<?xml version="1.0" encoding="utf-8"?>
<!-- Generator: Adobe Illustrator 16.0.0, SVG Export Plug-In . SVG Version: 6.00 Build 0)  -->
<!DOCTYPE svg PUBLIC "-//W3C//DTD SVG 1.1//EN" "http://www.w3.org/Graphics/SVG/1.1/DTD/svg11.dtd">
<svg version="1.1" id="레이어_1" xmlns="http://www.w3.org/2000/svg" xmlns:xlink="http://www.w3.org/1999/xlink" x="0px"
	 y="0px" width="841.89px" height="209.713px" viewBox="0 0 841.89 209.713" enable-background="new 0 0 841.89 209.713"
	 xml:space="preserve">
<g>
	<path fill="#00A8E1" d="M773.534,68.52h-18.819c0,0,2.504,14.182,1.127,36.27c-14.795,12.217-29.664,13.842-42.076,13.426
		c-14.608-0.494-25.157-3.882-30.019-14.565c-5.589-12.286-1.979-35.13-1.979-35.13H662.81c0,0-3.565,16.922,0.589,35.187
		c0,0,3.869,33.021,50.012,33.021c0,0,19.05,1.629,39.68-8.561c0,0-2.721,21.808-14.231,47.862h20.219
		C781.068,123.679,773.534,68.52,773.534,68.52"/>
	<path fill="#00A8E1" d="M631.253,81.391c0,0-19.145-21.96-55.812-21.229c0,0-21.022-0.658-37.693,10.653
		c-20.838,13.517-18.823,33.718-18.823,33.718c3.214,39.267,54.82,37.075,54.82,37.075c38.394,0.026,58.465-25.451,58.465-25.451
		c4.718,9.63,7.621,18.536,8.253,20.526h19.223C657.576,128.954,649.043,98.894,631.253,81.391 M573.949,123.085
		c-14.197,0.134-33.216-4.354-34.581-19.639c-1.009-11.307,11.193-25.075,37.709-25.114c30.447-0.043,44.573,21.432,44.573,21.432
		C617.021,107.017,600.043,122.836,573.949,123.085"/>
	<path fill="#00A8E1" d="M59.037,100.815c0,27.571,28.402,41.743,65.156,41.743c15.438,0,38.191-3.098,52.804-10.067l-6.169-16.771
		c-12.508,5.013-30.491,7.926-46.625,7.926c-25.288,0-44.684-7.9-44.684-22.832v0.052c0-14.927,19.396-22.827,44.684-22.827
		c16.133,0,34.117,2.907,46.377,7.93l6.161-16.774c-14.357-6.969-37.111-10.073-52.549-10.073c-36.753,0-65.156,14.18-65.156,41.744
		V100.815z"/>
	<path fill="#00A8E1" d="M247.328,141.969c-35.764,0-63.408-13.849-63.408-41.154v0.05c0-27.289,27.644-41.144,63.408-41.144h0.069
		c34.364,0,63.408,13.855,63.408,41.144v-0.05c0,27.305-27.653,41.154-63.408,41.154H247.328z M247.396,123.534
		c24.105,0,42.596-7.935,42.596-22.719v0.05c0-14.775-19.574-22.712-42.596-22.712h-0.069c-24.114,0-42.608,7.937-42.608,22.712
		v-0.05c0,14.784,18.495,22.719,42.608,22.719H247.396z"/>
	<path fill="#00A8E1" d="M415.291,103.265c14.141,0,24.148,34.251,49.289,34.251c14.968,0,33.707-12.551,49.293-68.979h-21.474
		c-2.062,11.052-14.463,47.543-27.275,47.543c-17.795,0-24.641-34.914-49.829-34.923h-0.004l0,0h-0.006
		c-25.177,0.009-32.031,34.923-49.824,34.923c-12.811,0-25.214-36.491-27.272-47.543h-21.475
		c15.587,56.428,34.329,68.979,49.291,68.979C391.149,137.516,401.159,103.265,415.291,103.265"/>
</g>
</svg>
