<svg xmlns="http://www.w3.org/2000/svg" width="59.891" height="53.648" viewBox="0 0 59.891 53.648">
  <defs>
    <style>
      .cls-1 {
        fill: #2b2e34;
      }

      .cls-2 {
        fill: none;
      }

      .cls-2, .cls-3 {
        stroke: #2b2e34;
      }

      .cls-3, .cls-4 {
        fill: #fff;
      }
    </style>
  </defs>
  <g id="구성_요소_49_1" data-name="구성 요소 49 – 1" transform="translate(0.5 0.5)">
    <g id="그룹_290" data-name="그룹 290" transform="translate(58.891 50.73)">
      <path id="패스_431" data-name="패스 431" class="cls-1" d="M0,0A1.908,1.908,0,0,1-1.895,1.918H-54.828A1.908,1.908,0,0,1-56.723,0V-32.279a1.908,1.908,0,0,1,1.9-1.918H-1.895A1.908,1.908,0,0,1,0-32.279Z"/>
    </g>
    <g id="그룹_291" data-name="그룹 291" transform="translate(58.891 50.73)">
      <path id="패스_432" data-name="패스 432" class="cls-2" d="M0,0A1.908,1.908,0,0,1-1.895,1.918H-54.828A1.908,1.908,0,0,1-56.723,0V-32.279a1.908,1.908,0,0,1,1.9-1.918H-1.895A1.908,1.908,0,0,1,0-32.279Z"/>
    </g>
    <g id="그룹_292" data-name="그룹 292" transform="translate(5.21 47.014)">
      <path id="패스_433" data-name="패스 433" class="cls-1" d="M0,0V-36.614c1.907-1.083,14.917-7.916,25.2.856V.337C22.208-1.276,10.957-6.449,0,0"/>
    </g>
    <g id="그룹_293" data-name="그룹 293" transform="translate(5.21 47.014)">
      <path id="패스_434" data-name="패스 434" class="cls-2" d="M0,0V-36.614c1.907-1.083,14.917-7.916,25.2.856V.337C22.208-1.276,10.957-6.449,0,0Z"/>
    </g>
    <g id="그룹_294" data-name="그룹 294" transform="translate(30.45 47.013)">
      <path id="패스_435" data-name="패스 435" class="cls-1" d="M0,0V-36.633a23.385,23.385,0,0,1,25.2.9V.338C22.208-1.276,10.957-6.45,0,0"/>
    </g>
    <g id="그룹_295" data-name="그룹 295" transform="translate(30.45 47.013)">
      <path id="패스_436" data-name="패스 436" class="cls-2" d="M0,0V-36.633a23.385,23.385,0,0,1,25.2.9V.338C22.208-1.276,10.957-6.45,0,0Z"/>
    </g>
    <path id="패스_438" data-name="패스 438" class="cls-3" d="M0,0V-4.355H6.44V2" transform="translate(42.315 4.355)"/>
    <g id="그룹_298" data-name="그룹 298" transform="translate(56.723 46.562)">
      <path id="패스_439" data-name="패스 439" class="cls-4" d="M0,0A1.908,1.908,0,0,1-1.895,1.918H-54.828A1.908,1.908,0,0,1-56.723,0V-32.279a1.908,1.908,0,0,1,1.9-1.918H-1.895A1.908,1.908,0,0,1,0-32.279Z"/>
    </g>
    <g id="그룹_299" data-name="그룹 299" transform="translate(56.723 46.562)">
      <path id="패스_440" data-name="패스 440" class="cls-2" d="M0,0A1.908,1.908,0,0,1-1.895,1.918H-54.828A1.908,1.908,0,0,1-56.723,0V-32.279a1.908,1.908,0,0,1,1.9-1.918H-1.895A1.908,1.908,0,0,1,0-32.279Z"/>
    </g>
    <g id="그룹_300" data-name="그룹 300" transform="translate(31.956 44.628)">
      <path id="패스_441" data-name="패스 441" class="cls-3" d="M0,0C.087-.078,8.673-7.586,21.185-.144V-36.293c-1.915-1.081-14.97-7.888-25.213.992"/>
    </g>
    <g id="그룹_301" data-name="그룹 301" transform="translate(3.042 44.846)">
      <path id="패스_442" data-name="패스 442" class="cls-4" d="M0,0V-36.614c1.907-1.083,14.917-7.916,25.2.856V.337C22.208-1.276,10.957-6.449,0,0"/>
    </g>
    <g id="그룹_302" data-name="그룹 302" transform="translate(3.042 44.846)">
      <path id="패스_443" data-name="패스 443" class="cls-2" d="M0,0V-36.614c1.907-1.083,14.917-7.916,25.2.856V.337C22.208-1.276,10.957-6.449,0,0Z"/>
    </g>
  </g>
</svg>
