<svg id="구성_요소_52_1" data-name="구성 요소 52 – 1" xmlns="http://www.w3.org/2000/svg" xmlns:xlink="http://www.w3.org/1999/xlink" width="77.213" height="53.672" viewBox="0 0 77.213 53.672">
  <defs>
    <style>
      .cls-1, .cls-5 {
        fill: none;
      }

      .cls-2, .cls-7 {
        fill: #1e2323;
      }

      .cls-2, .cls-5, .cls-6 {
        stroke: #1e2323;
      }

      .cls-3, .cls-6 {
        fill: #fff;
      }

      .cls-4 {
        clip-path: url(#clip-path);
      }
    </style>
    <clipPath id="clip-path">
      <path id="패스_575" data-name="패스 575" class="cls-1" d="M0,0H77.213V-53.672H0Z"/>
    </clipPath>
  </defs>
  <path id="패스_569" data-name="패스 569" class="cls-2" d="M2.981-6.766H66.713v-42.68H2.981Z" transform="translate(0 53.672)"/>
  <path id="패스_570" data-name="패스 570" class="cls-3" d="M.5-10.492H64.232v-42.68H.5Z" transform="translate(0 53.672)"/>
  <g id="그룹_411" data-name="그룹 411" class="cls-4" transform="translate(0 53.672)">
    <path id="패스_571" data-name="패스 571" class="cls-5" d="M.5-10.492H64.232v-42.68H.5Z"/>
    <g id="그룹_408" data-name="그룹 408" transform="translate(60.039 -22.031)">
      <path id="패스_572" data-name="패스 572" class="cls-3" d="M0,0A7.756,7.756,0,0,0-7,7.3q-20.661,0-41.321-.008A7.749,7.749,0,0,0-55.345,0V-19.594a7.749,7.749,0,0,0,7.02-7.3q20.663,0,41.321-.007a7.763,7.763,0,0,0,7,7.312Z"/>
    </g>
    <g id="그룹_409" data-name="그룹 409" transform="translate(60.039 -22.031)">
      <path id="패스_573" data-name="패스 573" class="cls-5" d="M0,0A7.756,7.756,0,0,0-7,7.3q-20.661,0-41.321-.008A7.749,7.749,0,0,0-55.345,0V-19.594a7.749,7.749,0,0,0,7.02-7.3q20.663,0,41.321-.007a7.763,7.763,0,0,0,7,7.312Z"/>
    </g>
    <g id="그룹_410" data-name="그룹 410" transform="translate(38.19 -30.396)">
      <path id="패스_574" data-name="패스 574" class="cls-6" d="M0,0V-6.85a4.445,4.445,0,0,0-1.378-3.462,6.431,6.431,0,0,0-4.5-1.283,6.3,6.3,0,0,0-4.394,1.283A4.442,4.442,0,0,0-11.647-6.85V0"/>
    </g>
  </g>
  <path id="패스_576" data-name="패스 576" class="cls-6" d="M25.539-21.646H39.192V-33.453H25.539Z" transform="translate(0 53.672)"/>
  <g id="그룹_414" data-name="그룹 414" class="cls-4" transform="translate(0 53.672)">
    <g id="그룹_412" data-name="그룹 412" transform="translate(32.366 -27.785)">
      <path id="패스_577" data-name="패스 577" class="cls-3" d="M0,0A1.5,1.5,0,0,0,1.493-1.493,1.494,1.494,0,0,0,0-2.986,1.494,1.494,0,0,0-1.493-1.493,1.5,1.5,0,0,0,0,0"/>
    </g>
    <g id="그룹_413" data-name="그룹 413" transform="translate(32.366 -27.785)">
      <path id="패스_578" data-name="패스 578" class="cls-5" d="M0,0A1.5,1.5,0,0,0,1.493-1.493,1.494,1.494,0,0,0,0-2.986,1.494,1.494,0,0,0-1.493-1.493,1.5,1.5,0,0,0,0,0Z"/>
    </g>
  </g>
  <g id="그룹_415" data-name="그룹 415" transform="translate(32.366 25.958)">
    <path id="패스_580" data-name="패스 580" class="cls-5" d="M0,0V3.6"/>
  </g>
  <path id="패스_581" data-name="패스 581" class="cls-3" d="M48.213-12.271h13.92v-22H48.213Z" transform="translate(0 53.672)"/>
  <g id="그룹_422" data-name="그룹 422" class="cls-4" transform="translate(0 53.672)">
    <g id="그룹_416" data-name="그룹 416" transform="translate(64.68 -23.063)">
      <path id="패스_582" data-name="패스 582" class="cls-7" d="M0,0A5.524,5.524,0,0,1-5.495-5.555,5.524,5.524,0,0,1,0-11.109,5.524,5.524,0,0,1,5.495-5.555,5.524,5.524,0,0,1,0,0"/>
    </g>
    <g id="그룹_417" data-name="그룹 417" transform="translate(77.213)">
      <path id="패스_583" data-name="패스 583" class="cls-7" d="M0,0C-.014-2.7-.027-8.508-.027-12.98c0-6.215-7.12-5.461-7.12-5.461H-17.889s-7.15-.754-7.15,5.461c0,4.472-.014,10.277-.027,12.98Z"/>
    </g>
    <g id="그룹_418" data-name="그룹 418" transform="translate(63.118 -23.791)">
      <path id="패스_584" data-name="패스 584" class="cls-3" d="M0,0A5.576,5.576,0,0,1-5.546-5.605,5.576,5.576,0,0,1,0-11.211,5.576,5.576,0,0,1,5.546-5.605,5.576,5.576,0,0,1,0,0"/>
    </g>
    <g id="그룹_419" data-name="그룹 419" transform="translate(63.118 -23.791)">
      <path id="패스_585" data-name="패스 585" class="cls-5" d="M0,0A5.576,5.576,0,0,1-5.546-5.605,5.576,5.576,0,0,1,0-11.211,5.576,5.576,0,0,1,5.546-5.605,5.576,5.576,0,0,1,0,0Z"/>
    </g>
    <g id="그룹_420" data-name="그룹 420" transform="translate(75.702 -2.293)">
      <path id="패스_586" data-name="패스 586" class="cls-3" d="M0,0C-.014-2.715-.027-8.555-.027-13.051c0-6.246-7.15-5.492-7.15-5.492H-17.962s-7.18-.754-7.18,5.492c0,4.5-.013,10.336-.027,13.051Z"/>
    </g>
    <g id="그룹_421" data-name="그룹 421" transform="translate(75.702 -2.293)">
      <path id="패스_587" data-name="패스 587" class="cls-5" d="M0,0C-.014-2.715-.027-8.555-.027-13.051c0-6.246-7.15-5.492-7.15-5.492H-17.962s-7.18-.754-7.18,5.492c0,4.5-.013,10.336-.027,13.051Z"/>
    </g>
  </g>
  <g id="그룹_423" data-name="그룹 423" transform="translate(70.26 51.258)">
    <path id="패스_589" data-name="패스 589" class="cls-5" d="M0,0V-11.691"/>
  </g>
  <g id="그룹_424" data-name="그룹 424" transform="translate(56.158 39.598)">
    <path id="패스_590" data-name="패스 590" class="cls-5" d="M0,0,.186,11.629"/>
  </g>
</svg>
