<svg id="구성_요소_44_1" data-name="구성 요소 44 – 1" xmlns="http://www.w3.org/2000/svg" xmlns:xlink="http://www.w3.org/1999/xlink" width="80" height="82" viewBox="0 0 80 82">
  <defs>
    <style>
      .cls-1, .cls-4 {
        fill: none;
      }

      .cls-2 {
        fill: #3e3a39;
        font-size: 12px;
        font-family: NotoSansKR-Regular, Noto Sans KR;
      }

      .cls-3 {
        clip-path: url(#clip-path);
      }

      .cls-4 {
        stroke: #808083;
      }

      .cls-5 {
        fill: #808083;
      }
    </style>
    <clipPath id="clip-path">
      <path id="패스_36486" data-name="패스 36486" class="cls-1" d="M0,3.862H31.491V-29H0Z" transform="translate(0 29)"/>
    </clipPath>
  </defs>
  <path id="패스_36453" data-name="패스 36453" class="cls-1" d="M0,0H80V82H0Z"/>
  <g id="구성_요소_38_2" data-name="구성 요소 38 – 2" transform="translate(19.288 7.138)">
    <text id="_" data-name="
" class="cls-2" transform="translate(20.712 47.943)"><tspan x="0" y="0"></tspan><tspan x="0" y="16.8"></tspan></text>
    <g id="그룹_21529" data-name="그룹 21529" transform="translate(2.011 29)">
      <g id="그룹_21512" data-name="그룹 21512" class="cls-3" transform="translate(0 -29)">
        <g id="그룹_21510" data-name="그룹 21510" transform="translate(9.56 0.566)">
          <path id="패스_36484" data-name="패스 36484" class="cls-4" d="M2.076.379V-2.848H-15.586V6.8" transform="translate(15.586 2.848)"/>
        </g>
        <g id="그룹_21511" data-name="그룹 21511" transform="translate(13.263 3.496)">
          <path id="패스_36485" data-name="패스 36485" class="cls-4" d="M.524,2.672h13.2V-20.062H-3.934v8.515" transform="translate(3.934 20.062)"/>
        </g>
      </g>
      <g id="그룹_21513" data-name="그룹 21513" transform="translate(15.73 -22.338)">
        <path id="패스_36487" data-name="패스 36487" class="cls-4" d="M0,0H2.882"/>
      </g>
      <g id="그룹_21514" data-name="그룹 21514" transform="translate(15.73 -19.793)">
        <path id="패스_36488" data-name="패스 36488" class="cls-4" d="M0,0H2.882"/>
      </g>
      <g id="그룹_21515" data-name="그룹 21515" transform="translate(15.73 -17.001)">
        <path id="패스_36489" data-name="패스 36489" class="cls-4" d="M0,0H2.882"/>
      </g>
      <g id="그룹_21516" data-name="그룹 21516" transform="translate(20.627 -22.338)">
        <path id="패스_36490" data-name="패스 36490" class="cls-4" d="M0,0H2.882"/>
      </g>
      <g id="그룹_21517" data-name="그룹 21517" transform="translate(20.627 -19.793)">
        <path id="패스_36491" data-name="패스 36491" class="cls-4" d="M0,0H2.882"/>
      </g>
      <g id="그룹_21518" data-name="그룹 21518" transform="translate(20.627 -17.001)">
        <path id="패스_36492" data-name="패스 36492" class="cls-4" d="M0,0H2.882"/>
      </g>
      <g id="그룹_21519" data-name="그룹 21519" transform="translate(25.923 -22.338)">
        <path id="패스_36493" data-name="패스 36493" class="cls-4" d="M0,0H2.882"/>
      </g>
      <g id="그룹_21520" data-name="그룹 21520" transform="translate(25.923 -19.793)">
        <path id="패스_36494" data-name="패스 36494" class="cls-4" d="M0,0H2.882"/>
      </g>
      <g id="그룹_21521" data-name="그룹 21521" transform="translate(25.923 -17.001)">
        <path id="패스_36495" data-name="패스 36495" class="cls-4" d="M0,0H2.882"/>
      </g>
      <g id="그룹_21523" data-name="그룹 21523" class="cls-3" transform="translate(0 -29)">
        <g id="그룹_21522" data-name="그룹 21522" transform="translate(0.567 10.355)">
          <path id="패스_36496" data-name="패스 36496" class="cls-4" d="M.278.243a7.553,7.553,0,1,0,10.684.3A7.559,7.559,0,0,0,.278.243Z" transform="translate(2.091 1.824)"/>
        </g>
      </g>
      <g id="그룹_21524" data-name="그룹 21524" transform="translate(12.211 -4.781)">
        <path id="패스_36498" data-name="패스 36498" class="cls-4" d="M0,0,1.556,1.617"/>
      </g>
      <g id="그룹_21527" data-name="그룹 21527" class="cls-3" transform="translate(0 -29)">
        <g id="그룹_21525" data-name="그룹 21525" transform="translate(13.417 24.012)">
          <path id="패스_36499" data-name="패스 36499" class="cls-4" d="M.905.67a.491.491,0,0,1-.018.677L-.931,3.124a.452.452,0,0,1-.654-.018L-6.67-2.442a.49.49,0,0,1,.018-.677L-4.834-4.9a.45.45,0,0,1,.653.019Z" transform="translate(6.797 5.028)"/>
        </g>
        <g id="그룹_21526" data-name="그룹 21526" transform="translate(2.797 12.588)">
          <path id="패스_36500" data-name="패스 36500" class="cls-4" d="M1.081.2A5.323,5.323,0,0,1,.864,7.722a5.328,5.328,0,0,1-7.53-.209A5.323,5.323,0,0,1-6.449-.013,5.328,5.328,0,0,1,1.081.2Z" transform="translate(8.119 1.469)"/>
        </g>
      </g>
      <g id="그룹_21528" data-name="그룹 21528" transform="translate(13.733 -6.036)">
        <path id="패스_36502" data-name="패스 36502" class="cls-4" d="M0,0-1.556-1.617" transform="translate(1.556 1.617)"/>
      </g>
    </g>
    <path id="패스_36508" data-name="패스 36508" class="cls-5" d="M-14.94-5.964l.144.84,6.5-.348a22.365,22.365,0,0,1-.384,2.544l.972.12a22.173,22.173,0,0,0,.456-5V-8.82l-.564-.012h-6.84v.8H-8.22v.216c0,.492,0,1.008-.024,1.572Zm3.9,4.584v-2.8h-.984v2.8h-3.792v.8h9.732v-.8Zm8.868-7.056A1.3,1.3,0,0,1-.72-7.2,1.3,1.3,0,0,1-2.172-5.964,1.308,1.308,0,0,1-3.636-7.2,1.308,1.308,0,0,1-2.172-8.436Zm0,3.216A2.107,2.107,0,0,0,.168-7.2a2.1,2.1,0,0,0-2.34-1.98A2.093,2.093,0,0,0-4.512-7.2,2.1,2.1,0,0,0-2.172-5.22Zm2.748.552a41.848,41.848,0,0,1-5.6.276l.12.828c.624,0,1.4,0,2.22-.036V.024h.936V-3.66a17.046,17.046,0,0,0,2.4-.288Zm.684,1.86H-.756v.768H1.26V.336h.924V-9.612H1.26ZM3.288-9.864V.888h.948V-9.864Zm10.584-.012V.912h.984V-9.876ZM9.18-9.048c-1.6,0-2.736,1.464-2.736,3.756S7.584-1.536,9.18-1.536,11.916-3,11.916-5.292,10.776-9.048,9.18-9.048Zm0,.888c1.044,0,1.788,1.128,1.788,2.868s-.744,2.88-1.788,2.88-1.8-1.128-1.8-2.88S8.124-8.16,9.18-8.16ZM-20.712,16.8H-19.6V8h-1.116Zm4.524-7.9h1.476c1.38,0,2.136.408,2.136,1.572,0,1.14-.756,1.692-2.136,1.692h-1.476Zm4.98,7.9-2.256-3.852a2.386,2.386,0,0,0,1.992-2.472C-11.472,8.64-12.756,8-14.544,8H-17.3v8.8h1.116V13.068H-14.6l2.136,3.732Zm4.464-8.94h-.972V9.792A5.7,5.7,0,0,1-10.488,14.6l.588.792a5.961,5.961,0,0,0,2.676-3.564,5.937,5.937,0,0,0,2.6,3.348l.612-.78A5.435,5.435,0,0,1-6.744,9.792ZM-.3,11.292H-2.076V6.936H-3.06V17.688h.984v-5.58H-.3ZM8.4,6.924V17.712h.984V6.924Zm-4.692.828c-1.6,0-2.736,1.464-2.736,3.756s1.14,3.756,2.736,3.756S6.444,13.8,6.444,11.508,5.3,7.752,3.708,7.752Zm0,.888C4.752,8.64,5.5,9.768,5.5,11.508s-.744,2.88-1.788,2.88-1.8-1.128-1.8-2.88S2.652,8.64,3.708,8.64Zm16.44,4.092h-6.4v-1.7H19.8v-.78H13.752v-1.6H20.04V7.86H12.756v5.664h7.392ZM11.5,15.492v.8h9.768v-.8Z" transform="translate(20.712 49.943)"/>
  </g>
</svg>
