<svg id="구성_요소_44_1" data-name="구성 요소 44 – 1" xmlns="http://www.w3.org/2000/svg" xmlns:xlink="http://www.w3.org/1999/xlink" width="80" height="82" viewBox="0 0 80 82">
  <defs>
    <style>
      .cls-1, .cls-4 {
        fill: none;
      }

      .cls-2 {
        fill: #3e3a39;
      }

      .cls-2, .cls-5 {
        font-size: 12px;
        font-family: NotoSansKR-Regular, Noto Sans KR;
      }

      .cls-3 {
        clip-path: url(#clip-path);
      }

      .cls-4 {
        stroke: #808083;
      }

      .cls-5 {
        fill: #808083;
        letter-spacing: -0.009em;
      }
    </style>
    <clipPath id="clip-path">
      <path id="패스_36486" data-name="패스 36486" class="cls-1" d="M0,3.862H31.491V-29H0Z" transform="translate(0 29)"/>
    </clipPath>
  </defs>
  <path id="패스_36453" data-name="패스 36453" class="cls-1" d="M0,0H80V82H0Z"/>
  <g id="구성_요소_38_2" data-name="구성 요소 38 – 2" transform="translate(18 7.138)">
    <text id="_" data-name="
" class="cls-2" transform="translate(22 47.943)"><tspan x="0" y="0"></tspan><tspan x="0" y="16.8"></tspan></text>
    <g id="그룹_21529" data-name="그룹 21529" transform="translate(3.299 29)">
      <g id="그룹_21512" data-name="그룹 21512" class="cls-3" transform="translate(0 -29)">
        <g id="그룹_21510" data-name="그룹 21510" transform="translate(9.56 0.566)">
          <path id="패스_36484" data-name="패스 36484" class="cls-4" d="M2.076.379V-2.848H-15.586V6.8" transform="translate(15.586 2.848)"/>
        </g>
        <g id="그룹_21511" data-name="그룹 21511" transform="translate(13.263 3.496)">
          <path id="패스_36485" data-name="패스 36485" class="cls-4" d="M.524,2.672h13.2V-20.062H-3.934v8.515" transform="translate(3.934 20.062)"/>
        </g>
      </g>
      <g id="그룹_21513" data-name="그룹 21513" transform="translate(15.73 -22.338)">
        <path id="패스_36487" data-name="패스 36487" class="cls-4" d="M0,0H2.882"/>
      </g>
      <g id="그룹_21514" data-name="그룹 21514" transform="translate(15.73 -19.793)">
        <path id="패스_36488" data-name="패스 36488" class="cls-4" d="M0,0H2.882"/>
      </g>
      <g id="그룹_21515" data-name="그룹 21515" transform="translate(15.73 -17.001)">
        <path id="패스_36489" data-name="패스 36489" class="cls-4" d="M0,0H2.882"/>
      </g>
      <g id="그룹_21516" data-name="그룹 21516" transform="translate(20.627 -22.338)">
        <path id="패스_36490" data-name="패스 36490" class="cls-4" d="M0,0H2.882"/>
      </g>
      <g id="그룹_21517" data-name="그룹 21517" transform="translate(20.627 -19.793)">
        <path id="패스_36491" data-name="패스 36491" class="cls-4" d="M0,0H2.882"/>
      </g>
      <g id="그룹_21518" data-name="그룹 21518" transform="translate(20.627 -17.001)">
        <path id="패스_36492" data-name="패스 36492" class="cls-4" d="M0,0H2.882"/>
      </g>
      <g id="그룹_21519" data-name="그룹 21519" transform="translate(25.923 -22.338)">
        <path id="패스_36493" data-name="패스 36493" class="cls-4" d="M0,0H2.882"/>
      </g>
      <g id="그룹_21520" data-name="그룹 21520" transform="translate(25.923 -19.793)">
        <path id="패스_36494" data-name="패스 36494" class="cls-4" d="M0,0H2.882"/>
      </g>
      <g id="그룹_21521" data-name="그룹 21521" transform="translate(25.923 -17.001)">
        <path id="패스_36495" data-name="패스 36495" class="cls-4" d="M0,0H2.882"/>
      </g>
      <g id="그룹_21523" data-name="그룹 21523" class="cls-3" transform="translate(0 -29)">
        <g id="그룹_21522" data-name="그룹 21522" transform="translate(0.567 10.355)">
          <path id="패스_36496" data-name="패스 36496" class="cls-4" d="M.278.243a7.553,7.553,0,1,0,10.684.3A7.559,7.559,0,0,0,.278.243Z" transform="translate(2.091 1.824)"/>
        </g>
      </g>
      <g id="그룹_21524" data-name="그룹 21524" transform="translate(12.211 -4.781)">
        <path id="패스_36498" data-name="패스 36498" class="cls-4" d="M0,0,1.556,1.617"/>
      </g>
      <g id="그룹_21527" data-name="그룹 21527" class="cls-3" transform="translate(0 -29)">
        <g id="그룹_21525" data-name="그룹 21525" transform="translate(13.417 24.012)">
          <path id="패스_36499" data-name="패스 36499" class="cls-4" d="M.905.67a.491.491,0,0,1-.018.677L-.931,3.124a.452.452,0,0,1-.654-.018L-6.67-2.442a.49.49,0,0,1,.018-.677L-4.834-4.9a.45.45,0,0,1,.653.019Z" transform="translate(6.797 5.028)"/>
        </g>
        <g id="그룹_21526" data-name="그룹 21526" transform="translate(2.797 12.588)">
          <path id="패스_36500" data-name="패스 36500" class="cls-4" d="M1.081.2A5.323,5.323,0,0,1,.864,7.722a5.328,5.328,0,0,1-7.53-.209A5.323,5.323,0,0,1-6.449-.013,5.328,5.328,0,0,1,1.081.2Z" transform="translate(8.119 1.469)"/>
        </g>
      </g>
      <g id="그룹_21528" data-name="그룹 21528" transform="translate(13.733 -6.036)">
        <path id="패스_36502" data-name="패스 36502" class="cls-4" d="M0,0-1.556-1.617" transform="translate(1.556 1.617)"/>
      </g>
    </g>
    <text id="코웨이_IR사이트" data-name="코웨이
IR사이트" class="cls-5" transform="translate(22 49.943)"><tspan x="-16.452" y="0">코웨이</tspan><tspan x="-21.912" y="16.8">IR</tspan><tspan y="16.8">사이트</tspan></text>
  </g>
</svg>
