<svg xmlns="http://www.w3.org/2000/svg" width="52" height="81.109" viewBox="0 0 52 81.109">
  <defs>
    <style>
      .cls-1 {
        fill: none;
        stroke: #3e3a39;
      }

      .cls-2 {
        fill: #fafafa;
      }

      .cls-3 {
        fill: #3e3a39;
        font-size: 14px;
        font-family: NotoSansKR-Regular, Noto Sans KR;
      }

      .cls-4 {
        letter-spacing: -0.009em;
      }
    </style>
  </defs>
  <g id="구성_요소_30_1" data-name="구성 요소 30 – 1" transform="translate(0 0.5)">
    <g id="그룹_21504" data-name="그룹 21504" transform="translate(-1850.355 -2150.472)">
      <line id="선_24" data-name="선 24" class="cls-1" y2="29.722" transform="translate(1875.88 2153.725)"/>
      <line id="선_25" data-name="선 25" class="cls-1" x2="18.614" transform="translate(1866.576 2183.72)"/>
      <g id="그룹_44" data-name="그룹 44" transform="translate(1851.355 2168.149)">
        <path id="패스_48" data-name="패스 48" class="cls-1" d="M1855.355,2171.893a9,9,0,0,0,18,0Z" transform="translate(-1855.355 -2171.893)"/>
        <path id="패스_49" data-name="패스 49" class="cls-1" d="M1880.306,2171.893a9,9,0,0,0,18,0Z" transform="translate(-1848.989 -2171.893)"/>
      </g>
      <path id="패스_50" data-name="패스 50" class="cls-1" d="M1857.153,2175.13l6.6-14.938h15.833" transform="translate(-3.541 -6.729)"/>
      <line id="선_26" data-name="선 26" class="cls-1" x2="7.05" y2="14.745" transform="translate(1860.142 2153.619)"/>
      <path id="패스_51" data-name="패스 51" class="cls-1" d="M1897.406,2175.13l-6.6-14.938h-15.832" transform="translate(1.006 -6.729)"/>
      <line id="선_27" data-name="선 27" class="cls-1" x1="7.05" y2="14.745" transform="translate(1884.832 2153.619)"/>
      <g id="그룹_45" data-name="그룹 45" transform="translate(1872.228 2150.472)">
        <path id="패스_52" data-name="패스 52" class="cls-2" d="M1875.639,2164.851a3.524,3.524,0,1,0-3.654-3.521,3.589,3.589,0,0,0,3.654,3.521" transform="translate(-1871.985 -2157.809)"/>
        <path id="패스_53" data-name="패스 53" class="cls-1" d="M1875.639,2164.851a3.524,3.524,0,1,0-3.654-3.521A3.589,3.589,0,0,0,1875.639,2164.851Z" transform="translate(-1871.985 -2157.809)"/>
      </g>
      <line id="선_28" data-name="선 28" class="cls-1" x2="23.035" transform="translate(1864.365 2186.566)"/>
    </g>
    <text id="무한책임" class="cls-3" transform="translate(0 59.609)"><tspan class="cls-4" x="0" y="0">무한책</tspan><tspan y="0">임</tspan></text>
    <text id="_" data-name="
" class="cls-3" transform="translate(26 59.609)"><tspan x="0" y="0"></tspan><tspan x="0" y="16.8"></tspan></text>
    <text id="위원회" class="cls-3" transform="translate(7 76.409)"><tspan class="cls-4" x="0" y="0">위원</tspan><tspan y="0">회</tspan></text>
  </g>
</svg>
