<svg xmlns="http://www.w3.org/2000/svg" width="67" height="80.926" viewBox="0 0 67 80.926">
  <defs>
    <style>
      .cls-1 {
        fill: none;
        stroke: #3e3a39;
      }

      .cls-2 {
        fill: #3e3a39;
        font-size: 14px;
        font-family: NotoSansKR-Regular, Noto Sans KR;
      }

      .cls-3 {
        letter-spacing: -0.009em;
      }
    </style>
  </defs>
  <g id="구성_요소_32_1" data-name="구성 요소 32 – 1" transform="translate(0 0.5)">
    <g id="그룹_21505" data-name="그룹 21505" transform="translate(-1846.354 -2275.082)">
      <g id="그룹_43" data-name="그룹 43" transform="translate(1855.354 2275.082)">
        <path id="패스_43" data-name="패스 43" class="cls-1" d="M1897.665,2278.908v23.922a3.587,3.587,0,0,1-7.173,0v-23.922h-.262a1.241,1.241,0,0,1-1.245-1.235v-2.591h10.187v2.591a1.241,1.241,0,0,1-1.246,1.235h-3.848m-10.6,0v23.922a3.587,3.587,0,0,1-7.174,0v-23.922h-.261a1.241,1.241,0,0,1-1.246-1.235v-2.591h10.189v2.591a1.241,1.241,0,0,1-1.246,1.235h-3.849m-10.6,0v23.922a3.587,3.587,0,0,1-7.173,0v-23.922h-.261a1.24,1.24,0,0,1-1.246-1.235v-2.591h10.188v2.591a1.241,1.241,0,0,1-1.246,1.235H1865.7m35.294,5.357h3.43v22.762a3.677,3.677,0,0,1-3.694,3.66h-41.68a3.677,3.677,0,0,1-3.694-3.66v-22.762h3.43" transform="translate(-1855.354 -2275.082)"/>
      </g>
      <line id="선_19" data-name="선 19" class="cls-1" y1="13.252" transform="translate(1894.24 2288.536)"/>
      <line id="선_20" data-name="선 20" class="cls-1" y1="13.252" transform="translate(1879.907 2288.536)"/>
      <line id="선_21" data-name="선 21" class="cls-1" y1="13.252" transform="translate(1865.575 2288.536)"/>
    </g>
    <text id="코웨이" class="cls-2" transform="translate(15 59.426)"><tspan class="cls-3" x="0" y="0">코웨</tspan><tspan y="0">이</tspan></text>
    <text id="_" data-name="
" class="cls-2" transform="translate(34 59.426)"><tspan x="0" y="0"></tspan><tspan x="0" y="16.8"></tspan></text>
    <text id="물맛_연구소" data-name="물맛 연구소" class="cls-2" transform="translate(0 76.226)"><tspan class="cls-3" x="0" y="0">물맛 연구</tspan><tspan y="0">소</tspan></text>
  </g>
</svg>
