<svg id="구성_요소_64_1" data-name="구성 요소 64 – 1" xmlns="http://www.w3.org/2000/svg" xmlns:xlink="http://www.w3.org/1999/xlink" width="402.505" height="289.101" viewBox="0 0 402.505 289.101">
  <defs>
    <style>
      .cls-1, .cls-10, .cls-11, .cls-12, .cls-13, .cls-7 {
        fill: none;
      }

      .cls-2 {
        fill: #4b6ea3;
      }

      .cls-3 {
        fill: #333;
      }

      .cls-4 {
        fill: #1e2323;
      }

      .cls-5 {
        fill: #f5f6f7;
      }

      .cls-6 {
        clip-path: url(#clip-path);
      }

      .cls-7 {
        stroke: #1394d1;
      }

      .cls-8 {
        clip-path: url(#clip-path-2);
      }

      .cls-9 {
        fill: #1f4a8c;
      }

      .cls-10 {
        stroke: #1f4a8c;
      }

      .cls-10, .cls-12 {
        stroke-width: 0.283px;
      }

      .cls-11, .cls-13 {
        stroke: #3e3a39;
      }

      .cls-12 {
        stroke: #828585;
      }

      .cls-13 {
        stroke-width: 3px;
      }
    </style>
    <clipPath id="clip-path">
      <rect id="사각형_164" data-name="사각형 164" class="cls-1" width="40.002" height="100.101" transform="translate(1363.033 6797.114)"/>
    </clipPath>
    <clipPath id="clip-path-2">
      <rect id="사각형_166" data-name="사각형 166" class="cls-1" width="40" height="84.988" transform="translate(1295.748 6812.227)"/>
    </clipPath>
  </defs>
  <path id="패스_749" data-name="패스 749" class="cls-2" d="M1.548,0h7.56V-1.71H6.516V-13.248H4.95A8.138,8.138,0,0,1,2.07-12.24v1.314H4.446V-1.71h-2.9ZM12.6.234a1.378,1.378,0,0,0,1.386-1.44A1.409,1.409,0,0,0,12.6-2.682a1.409,1.409,0,0,0-1.386,1.476A1.378,1.378,0,0,0,12.6.234ZM15.714,0h8.55V-1.764H20.952c-.648,0-1.476.054-2.16.126C21.6-4.32,23.634-6.966,23.634-9.522a3.746,3.746,0,0,0-4-3.978,5.2,5.2,0,0,0-4.032,1.98l1.17,1.152a3.593,3.593,0,0,1,2.61-1.476,2.16,2.16,0,0,1,2.25,2.43c0,2.178-2.016,4.752-5.922,8.208Zm13.95.234a4.371,4.371,0,0,0,4.464-4.59c0-2.9-1.818-4.212-4.032-4.212a3.735,3.735,0,0,0-1.818.468l.306-3.4H33.5v-1.746H26.784l-.4,6.282L27.4-6.3a3.486,3.486,0,0,1,2.124-.756,2.457,2.457,0,0,1,2.52,2.772,2.589,2.589,0,0,1-2.628,2.826,4.239,4.239,0,0,1-3.1-1.422l-.99,1.35A5.863,5.863,0,0,0,29.664.234Z" transform="translate(350.555 27.059)"/>
  <path id="패스_750" data-name="패스 750" class="cls-3" d="M1.32,0H7.35V-1.14H5.145v-9.855H4.1a6.967,6.967,0,0,1-2.28.78v.87h1.95V-1.14H1.32Zm8.79.2A.991.991,0,0,0,11.1-.84a1.017,1.017,0,0,0-.99-1.065A1.017,1.017,0,0,0,9.12-.84.991.991,0,0,0,10.11.2Zm5.76,0C17.82.2,19.4-.975,19.4-2.94a2.827,2.827,0,0,0-2.34-2.79v-.06A2.741,2.741,0,0,0,19.02-8.445c0-1.77-1.35-2.76-3.2-2.76a4.4,4.4,0,0,0-3.075,1.32l.735.87a3.431,3.431,0,0,1,2.28-1.1,1.718,1.718,0,0,1,1.86,1.77c0,1.185-.78,2.1-3.045,2.1v1.05c2.535,0,3.42.885,3.42,2.2a2.025,2.025,0,0,1-2.235,2.04,3.635,3.635,0,0,1-2.73-1.26l-.69.9A4.552,4.552,0,0,0,15.87.2ZM24.45-.87c-1.38,0-2.2-1.245-2.37-3.525A2.866,2.866,0,0,1,24.33-5.8c1.335,0,1.98.945,1.98,2.43S25.5-.87,24.45-.87ZM27.4-10.08A3.378,3.378,0,0,0,24.84-11.2c-2.13,0-4.065,1.65-4.065,5.955C20.775-1.62,22.335.2,24.45.2a3.3,3.3,0,0,0,3.15-3.57c0-2.3-1.185-3.45-3.045-3.45A3.42,3.42,0,0,0,22.05-5.49c.06-3.42,1.335-4.575,2.835-4.575a2.325,2.325,0,0,1,1.77.84Z" transform="translate(276.25 17.595)"/>
  <path id="패스_751" data-name="패스 751" class="cls-3" d="M1.32,0H7.35V-1.14H5.145v-9.855H4.1a6.967,6.967,0,0,1-2.28.78v.87h1.95V-1.14H1.32Zm8.79.2A.991.991,0,0,0,11.1-.84a1.017,1.017,0,0,0-.99-1.065A1.017,1.017,0,0,0,9.12-.84.991.991,0,0,0,10.11.2Zm3.525-4.32,2.5-3.75c.315-.54.615-1.08.885-1.62h.06c-.03.57-.09,1.455-.09,1.995v3.375Zm6.12,0H18.3v-6.87H16.785L12.21-3.93v.9h4.785V0H18.3V-3.03h1.455Zm1.9,0,2.5-3.75c.315-.54.615-1.08.885-1.62h.06c-.03.57-.09,1.455-.09,1.995v3.375Zm6.12,0H26.325v-6.87H24.81L20.235-3.93v.9H25.02V0h1.3V-3.03H27.78Z" transform="translate(209.799 10.995)"/>
  <path id="패스_745" data-name="패스 745" class="cls-4" d="M.63,0H6.776V-.728H3.6c-.532,0-1.12.042-1.68.084C4.634-3.178,6.286-5.32,6.286-7.462a2.674,2.674,0,0,0-2.828-2.926,3.752,3.752,0,0,0-2.87,1.47l.518.49A3.04,3.04,0,0,1,3.374-9.7,2.006,2.006,0,0,1,5.46-7.434C5.46-5.586,4.088-3.486.63-.5ZM11.046.182c1.848,0,3-1.736,3-5.32,0-3.542-1.148-5.25-3-5.25s-3.01,1.708-3.01,5.25C8.036-1.554,9.184.182,11.046.182Zm0-.686c-1.33,0-2.2-1.54-2.2-4.634,0-3.038.868-4.564,2.2-4.564S13.23-8.176,13.23-5.138C13.23-2.044,12.362-.5,11.046-.5Zm4.83.5H21.14V-.714H19.012v-9.492h-.658a5.859,5.859,0,0,1-1.946.644v.546h1.778v8.3h-2.31Zm8.876,0h.882c.154-3.99.658-6.538,3.08-9.716v-.49h-6.16v.714H27.72C25.69-6.664,24.92-4.074,24.752,0Z" transform="translate(187.219 288.919)"/>
  <path id="패스_743" data-name="패스 743" class="cls-4" d="M.63,0H6.776V-.728H3.6c-.532,0-1.12.042-1.68.084C4.634-3.178,6.286-5.32,6.286-7.462a2.674,2.674,0,0,0-2.828-2.926,3.752,3.752,0,0,0-2.87,1.47l.518.49A3.04,3.04,0,0,1,3.374-9.7,2.006,2.006,0,0,1,5.46-7.434C5.46-5.586,4.088-3.486.63-.5ZM11.046.182c1.848,0,3-1.736,3-5.32,0-3.542-1.148-5.25-3-5.25s-3.01,1.708-3.01,5.25C8.036-1.554,9.184.182,11.046.182Zm0-.686c-1.33,0-2.2-1.54-2.2-4.634,0-3.038.868-4.564,2.2-4.564S13.23-8.176,13.23-5.138C13.23-2.044,12.362-.5,11.046-.5Zm4.83.5H21.14V-.714H19.012v-9.492h-.658a5.859,5.859,0,0,1-1.946.644v.546h1.778v8.3h-2.31Zm9.8.182a2.761,2.761,0,0,0,3.052-2.59,3,3,0,0,0-1.736-2.66v-.07a3.568,3.568,0,0,0,1.4-2.534,2.535,2.535,0,0,0-2.7-2.674,2.5,2.5,0,0,0-2.632,2.52,2.818,2.818,0,0,0,1.4,2.324v.056a3.452,3.452,0,0,0-1.946,2.912A2.879,2.879,0,0,0,25.676.182Zm.714-5.544c-1.274-.5-2.548-1.078-2.548-2.464a1.787,1.787,0,0,1,1.834-1.862,1.918,1.918,0,0,1,1.96,2.044A2.977,2.977,0,0,1,26.39-5.362ZM25.676-.476a2.2,2.2,0,0,1-2.394-2.1,3.036,3.036,0,0,1,1.666-2.562c1.54.6,2.968,1.162,2.968,2.716A2.026,2.026,0,0,1,25.676-.476Z" transform="translate(260.244 288.919)"/>
  <path id="패스_744" data-name="패스 744" class="cls-4" d="M.63,0H6.776V-.728H3.6c-.532,0-1.12.042-1.68.084C4.634-3.178,6.286-5.32,6.286-7.462a2.674,2.674,0,0,0-2.828-2.926,3.752,3.752,0,0,0-2.87,1.47l.518.49A3.04,3.04,0,0,1,3.374-9.7,2.006,2.006,0,0,1,5.46-7.434C5.46-5.586,4.088-3.486.63-.5ZM11.046.182c1.848,0,3-1.736,3-5.32,0-3.542-1.148-5.25-3-5.25s-3.01,1.708-3.01,5.25C8.036-1.554,9.184.182,11.046.182Zm0-.686c-1.33,0-2.2-1.54-2.2-4.634,0-3.038.868-4.564,2.2-4.564S13.23-8.176,13.23-5.138C13.23-2.044,12.362-.5,11.046-.5Zm4.83.5H21.14V-.714H19.012v-9.492h-.658a5.859,5.859,0,0,1-1.946.644v.546h1.778v8.3h-2.31Zm9.506-4.578c-1.414,0-2.044-1.078-2.044-2.548s.826-2.59,1.932-2.59c1.6,0,2.408,1.414,2.492,3.64A3.057,3.057,0,0,1,25.382-4.578ZM22.736-.8a2.98,2.98,0,0,0,2.254.98c1.862,0,3.584-1.54,3.584-5.838,0-3.08-1.316-4.732-3.29-4.732a3,3,0,0,0-2.758,3.262c0,2.072,1.05,3.206,2.758,3.206a3.324,3.324,0,0,0,2.492-1.358C27.692-1.75,26.418-.518,25-.518a2.3,2.3,0,0,1-1.778-.812Z" transform="translate(332.96 288.919)"/>
  <rect id="사각형_163" data-name="사각형 163" class="cls-5" width="40" height="173.684" transform="translate(250.338 91.474)"/>
  <path id="패스_747" data-name="패스 747" class="cls-3" d="M3.96.2C5.91.2,7.485-.975,7.485-2.94a2.827,2.827,0,0,0-2.34-2.79v-.06A2.741,2.741,0,0,0,7.11-8.445c0-1.77-1.35-2.76-3.195-2.76A4.4,4.4,0,0,0,.84-9.885l.735.87a3.431,3.431,0,0,1,2.28-1.1,1.718,1.718,0,0,1,1.86,1.77c0,1.185-.78,2.1-3.045,2.1v1.05c2.535,0,3.42.885,3.42,2.2A2.025,2.025,0,0,1,3.855-.945,3.635,3.635,0,0,1,1.125-2.2l-.69.9A4.552,4.552,0,0,0,3.96.2ZM12.54-.87c-1.38,0-2.2-1.245-2.37-3.525A2.866,2.866,0,0,1,12.42-5.8c1.335,0,1.98.945,1.98,2.43S13.59-.87,12.54-.87Zm2.955-9.21A3.378,3.378,0,0,0,12.93-11.2c-2.13,0-4.065,1.65-4.065,5.955C8.865-1.62,10.425.2,12.54.2a3.3,3.3,0,0,0,3.15-3.57c0-2.3-1.185-3.45-3.045-3.45A3.42,3.42,0,0,0,10.14-5.49c.06-3.42,1.335-4.575,2.835-4.575a2.325,2.325,0,0,1,1.77.84Zm1.7,12.93A3.338,3.338,0,0,0,19.38-.285c0-1.005-.435-1.62-1.155-1.62a.975.975,0,0,0-1.035.96.94.94,0,0,0,1,.96A.615.615,0,0,0,18.36,0a2.249,2.249,0,0,1-1.5,2.04ZM24.135.2c2.07,0,3.45-1.245,3.45-2.85a3.209,3.209,0,0,0-1.86-2.88V-5.61A3.605,3.605,0,0,0,27.2-8.265,2.781,2.781,0,0,0,24.18-11.16a2.789,2.789,0,0,0-3.015,2.79A3.057,3.057,0,0,0,22.65-5.835v.075a3.522,3.522,0,0,0-2.025,3.03C20.625-1.035,22.11.2,24.135.2Zm.75-6.165c-1.29-.51-2.475-1.08-2.475-2.4a1.69,1.69,0,0,1,1.74-1.785A1.835,1.835,0,0,1,26.025-8.19,2.95,2.95,0,0,1,24.885-5.97Zm-.72,5.145a2.108,2.108,0,0,1-2.3-2.025,2.989,2.989,0,0,1,1.5-2.49c1.56.63,2.91,1.185,2.91,2.655A1.9,1.9,0,0,1,24.165-.825ZM28.635,0H35.55V-1.185H32.505c-.555,0-1.23.06-1.8.105,2.58-2.445,4.305-4.68,4.305-6.87a3.016,3.016,0,0,0-3.2-3.255,4.205,4.205,0,0,0-3.24,1.62l.8.78a3.079,3.079,0,0,1,2.28-1.275,1.933,1.933,0,0,1,2.025,2.175c0,1.89-1.59,4.08-5.04,7.1Zm11.34.2C41.925.2,43.5-.975,43.5-2.94a2.827,2.827,0,0,0-2.34-2.79v-.06a2.741,2.741,0,0,0,1.965-2.655c0-1.77-1.35-2.76-3.195-2.76a4.4,4.4,0,0,0-3.075,1.32l.735.87a3.431,3.431,0,0,1,2.28-1.1,1.718,1.718,0,0,1,1.86,1.77c0,1.185-.78,2.1-3.045,2.1v1.05c2.535,0,3.42.885,3.42,2.2A2.025,2.025,0,0,1,39.87-.945,3.635,3.635,0,0,1,37.14-2.2l-.69.9A4.552,4.552,0,0,0,39.975.2Z" transform="translate(241.168 115.675)"/>
  <g id="그룹_106" data-name="그룹 106" transform="translate(-1112.62 -6632.056)">
    <g id="그룹_105" data-name="그룹 105" class="cls-6">
      <line id="선_667" data-name="선 667" class="cls-7" x1="151.363" y2="102.33" transform="translate(1307.352 6705.024)"/>
      <line id="선_668" data-name="선 668" class="cls-7" x1="151.363" y2="102.33" transform="translate(1307.352 6721.197)"/>
      <line id="선_669" data-name="선 669" class="cls-7" x1="151.363" y2="102.33" transform="translate(1307.352 6696.937)"/>
      <line id="선_670" data-name="선 670" class="cls-7" x1="151.363" y2="102.33" transform="translate(1307.352 6737.371)"/>
      <line id="선_671" data-name="선 671" class="cls-7" x1="151.363" y2="102.33" transform="translate(1307.352 6713.11)"/>
      <line id="선_672" data-name="선 672" class="cls-7" x1="151.363" y2="102.33" transform="translate(1307.352 6753.544)"/>
      <line id="선_673" data-name="선 673" class="cls-7" x1="151.363" y2="102.33" transform="translate(1307.352 6729.284)"/>
      <line id="선_674" data-name="선 674" class="cls-7" x1="151.363" y2="102.33" transform="translate(1307.352 6769.717)"/>
      <line id="선_675" data-name="선 675" class="cls-7" x1="151.363" y2="102.33" transform="translate(1307.352 6745.457)"/>
      <line id="선_676" data-name="선 676" class="cls-7" x1="151.363" y2="102.33" transform="translate(1307.352 6785.891)"/>
      <line id="선_677" data-name="선 677" class="cls-7" x1="151.363" y2="102.33" transform="translate(1307.352 6761.63)"/>
      <line id="선_678" data-name="선 678" class="cls-7" x1="151.363" y2="102.33" transform="translate(1307.352 6802.064)"/>
      <line id="선_679" data-name="선 679" class="cls-7" x1="151.363" y2="102.33" transform="translate(1307.352 6777.804)"/>
      <line id="선_680" data-name="선 680" class="cls-7" x1="151.363" y2="102.33" transform="translate(1307.352 6818.237)"/>
      <line id="선_681" data-name="선 681" class="cls-7" x1="151.363" y2="102.33" transform="translate(1307.352 6793.977)"/>
      <line id="선_682" data-name="선 682" class="cls-7" x1="151.363" y2="102.33" transform="translate(1307.352 6830.367)"/>
      <line id="선_683" data-name="선 683" class="cls-7" x1="151.363" y2="102.33" transform="translate(1307.352 6810.15)"/>
      <line id="선_684" data-name="선 684" class="cls-7" x1="151.363" y2="102.33" transform="translate(1307.352 6709.067)"/>
      <line id="선_685" data-name="선 685" class="cls-7" x1="151.363" y2="102.33" transform="translate(1307.352 6692.894)"/>
      <line id="선_686" data-name="선 686" class="cls-7" x1="151.363" y2="102.33" transform="translate(1307.352 6725.24)"/>
      <line id="선_687" data-name="선 687" class="cls-7" x1="151.363" y2="102.33" transform="translate(1307.352 6700.98)"/>
      <line id="선_688" data-name="선 688" class="cls-7" x1="151.363" y2="102.33" transform="translate(1307.352 6741.414)"/>
      <line id="선_689" data-name="선 689" class="cls-7" x1="151.363" y2="102.33" transform="translate(1307.352 6717.154)"/>
      <line id="선_690" data-name="선 690" class="cls-7" x1="151.363" y2="102.33" transform="translate(1307.352 6757.587)"/>
      <line id="선_691" data-name="선 691" class="cls-7" x1="151.363" y2="102.33" transform="translate(1307.352 6733.327)"/>
      <line id="선_692" data-name="선 692" class="cls-7" x1="151.363" y2="102.33" transform="translate(1307.352 6773.761)"/>
      <line id="선_693" data-name="선 693" class="cls-7" x1="151.363" y2="102.33" transform="translate(1307.352 6749.5)"/>
      <line id="선_694" data-name="선 694" class="cls-7" x1="151.363" y2="102.33" transform="translate(1307.352 6789.934)"/>
      <line id="선_695" data-name="선 695" class="cls-7" x1="151.363" y2="102.33" transform="translate(1307.352 6765.674)"/>
      <line id="선_696" data-name="선 696" class="cls-7" x1="151.363" y2="102.33" transform="translate(1307.352 6806.107)"/>
      <line id="선_697" data-name="선 697" class="cls-7" x1="151.363" y2="102.33" transform="translate(1307.352 6781.847)"/>
      <line id="선_698" data-name="선 698" class="cls-7" x1="151.363" y2="102.33" transform="translate(1307.352 6822.281)"/>
      <line id="선_699" data-name="선 699" class="cls-7" x1="151.363" y2="102.33" transform="translate(1307.352 6798.021)"/>
      <line id="선_700" data-name="선 700" class="cls-7" x1="151.363" y2="102.33" transform="translate(1307.352 6834.411)"/>
      <line id="선_701" data-name="선 701" class="cls-7" x1="151.363" y2="102.33" transform="translate(1307.352 6814.194)"/>
      <line id="선_702" data-name="선 702" class="cls-7" x1="151.363" y2="102.33" transform="translate(1307.352 6842.497)"/>
      <line id="선_703" data-name="선 703" class="cls-7" x1="151.363" y2="102.33" transform="translate(1307.352 6826.324)"/>
      <line id="선_704" data-name="선 704" class="cls-7" x1="151.363" y2="102.33" transform="translate(1307.352 6850.584)"/>
      <line id="선_705" data-name="선 705" class="cls-7" x1="151.363" y2="102.33" transform="translate(1307.352 6838.454)"/>
      <line id="선_706" data-name="선 706" class="cls-7" x1="151.363" y2="102.33" transform="translate(1307.352 6858.671)"/>
      <line id="선_707" data-name="선 707" class="cls-7" x1="151.363" y2="102.33" transform="translate(1307.352 6846.541)"/>
      <line id="선_708" data-name="선 708" class="cls-7" x1="151.363" y2="102.33" transform="translate(1307.352 6866.757)"/>
      <line id="선_709" data-name="선 709" class="cls-7" x1="151.363" y2="102.33" transform="translate(1307.352 6854.627)"/>
      <line id="선_710" data-name="선 710" class="cls-7" x1="151.363" y2="102.33" transform="translate(1307.352 6874.844)"/>
      <line id="선_711" data-name="선 711" class="cls-7" x1="151.363" y2="102.33" transform="translate(1307.352 6862.714)"/>
      <line id="선_712" data-name="선 712" class="cls-7" x1="151.363" y2="102.33" transform="translate(1307.352 6882.931)"/>
      <line id="선_713" data-name="선 713" class="cls-7" x1="151.363" y2="102.33" transform="translate(1307.352 6870.801)"/>
      <line id="선_714" data-name="선 714" class="cls-7" x1="151.363" y2="102.33" transform="translate(1307.352 6886.974)"/>
      <line id="선_715" data-name="선 715" class="cls-7" x1="151.363" y2="102.33" transform="translate(1307.352 6878.888)"/>
    </g>
  </g>
  <rect id="사각형_165" data-name="사각형 165" class="cls-5" width="40" height="173.684" transform="translate(183.128 91.474)"/>
  <path id="패스_746" data-name="패스 746" class="cls-3" d="M3.96.2C5.91.2,7.485-.975,7.485-2.94a2.827,2.827,0,0,0-2.34-2.79v-.06A2.741,2.741,0,0,0,7.11-8.445c0-1.77-1.35-2.76-3.195-2.76A4.4,4.4,0,0,0,.84-9.885l.735.87a3.431,3.431,0,0,1,2.28-1.1,1.718,1.718,0,0,1,1.86,1.77c0,1.185-.78,2.1-3.045,2.1v1.05c2.535,0,3.42.885,3.42,2.2A2.025,2.025,0,0,1,3.855-.945,3.635,3.635,0,0,1,1.125-2.2l-.69.9A4.552,4.552,0,0,0,3.96.2ZM12.54-.87c-1.38,0-2.2-1.245-2.37-3.525A2.866,2.866,0,0,1,12.42-5.8c1.335,0,1.98.945,1.98,2.43S13.59-.87,12.54-.87Zm2.955-9.21A3.378,3.378,0,0,0,12.93-11.2c-2.13,0-4.065,1.65-4.065,5.955C8.865-1.62,10.425.2,12.54.2a3.3,3.3,0,0,0,3.15-3.57c0-2.3-1.185-3.45-3.045-3.45A3.42,3.42,0,0,0,10.14-5.49c.06-3.42,1.335-4.575,2.835-4.575a2.325,2.325,0,0,1,1.77.84Zm1.7,12.93A3.338,3.338,0,0,0,19.38-.285c0-1.005-.435-1.62-1.155-1.62a.975.975,0,0,0-1.035.96.94.94,0,0,0,1,.96A.615.615,0,0,0,18.36,0a2.249,2.249,0,0,1-1.5,2.04ZM21.27,0H27.3V-1.14H25.1v-9.855h-1.05a6.967,6.967,0,0,1-2.28.78v.87h1.95V-1.14H21.27Zm9.675,0H32.37c.165-4.3.645-6.855,3.225-10.17v-.825H28.71v1.17h5.325C31.89-6.825,31.125-4.17,30.945,0ZM37.74-4.125l2.505-3.75c.315-.54.615-1.08.885-1.62h.06c-.03.57-.09,1.455-.09,1.995v3.375Zm6.12,0H42.4v-6.87H40.89L36.315-3.93v.9H41.1V0H42.4V-3.03H43.86Z" transform="translate(176.205 115.675)"/>
  <g id="그룹_108" data-name="그룹 108" transform="translate(-1112.62 -6632.056)">
    <g id="그룹_107" data-name="그룹 107" class="cls-8">
      <line id="선_716" data-name="선 716" class="cls-7" x1="151.363" y2="102.33" transform="translate(1231.892 6721.197)"/>
      <line id="선_717" data-name="선 717" class="cls-7" x1="151.363" y2="102.33" transform="translate(1231.892 6737.371)"/>
      <line id="선_718" data-name="선 718" class="cls-7" x1="151.363" y2="102.33" transform="translate(1231.892 6713.11)"/>
      <line id="선_719" data-name="선 719" class="cls-7" x1="151.363" y2="102.33" transform="translate(1231.892 6753.544)"/>
      <line id="선_720" data-name="선 720" class="cls-7" x1="151.363" y2="102.33" transform="translate(1231.892 6729.284)"/>
      <line id="선_721" data-name="선 721" class="cls-7" x1="151.363" y2="102.33" transform="translate(1231.892 6769.717)"/>
      <line id="선_722" data-name="선 722" class="cls-7" x1="151.363" y2="102.33" transform="translate(1231.892 6745.457)"/>
      <line id="선_723" data-name="선 723" class="cls-7" x1="151.363" y2="102.33" transform="translate(1231.892 6785.891)"/>
      <line id="선_724" data-name="선 724" class="cls-7" x1="151.363" y2="102.33" transform="translate(1231.892 6761.63)"/>
      <line id="선_725" data-name="선 725" class="cls-7" x1="151.363" y2="102.33" transform="translate(1231.892 6802.064)"/>
      <line id="선_726" data-name="선 726" class="cls-7" x1="151.363" y2="102.33" transform="translate(1231.892 6777.804)"/>
      <line id="선_727" data-name="선 727" class="cls-7" x1="151.363" y2="102.33" transform="translate(1231.892 6818.237)"/>
      <line id="선_728" data-name="선 728" class="cls-7" x1="151.363" y2="102.33" transform="translate(1231.892 6793.977)"/>
      <line id="선_729" data-name="선 729" class="cls-7" x1="151.363" y2="102.33" transform="translate(1231.892 6830.367)"/>
      <line id="선_730" data-name="선 730" class="cls-7" x1="151.363" y2="102.33" transform="translate(1231.892 6810.15)"/>
      <line id="선_731" data-name="선 731" class="cls-7" x1="151.363" y2="102.33" transform="translate(1231.892 6709.067)"/>
      <line id="선_732" data-name="선 732" class="cls-7" x1="151.363" y2="102.33" transform="translate(1231.892 6725.24)"/>
      <line id="선_733" data-name="선 733" class="cls-7" x1="151.363" y2="102.33" transform="translate(1231.892 6741.414)"/>
      <line id="선_734" data-name="선 734" class="cls-7" x1="151.363" y2="102.33" transform="translate(1231.892 6717.154)"/>
      <line id="선_735" data-name="선 735" class="cls-7" x1="151.363" y2="102.33" transform="translate(1231.892 6757.587)"/>
      <line id="선_736" data-name="선 736" class="cls-7" x1="151.363" y2="102.33" transform="translate(1231.892 6733.327)"/>
      <line id="선_737" data-name="선 737" class="cls-7" x1="151.363" y2="102.33" transform="translate(1231.892 6773.761)"/>
      <line id="선_738" data-name="선 738" class="cls-7" x1="151.363" y2="102.33" transform="translate(1231.892 6749.5)"/>
      <line id="선_739" data-name="선 739" class="cls-7" x1="151.363" y2="102.33" transform="translate(1231.892 6789.934)"/>
      <line id="선_740" data-name="선 740" class="cls-7" x1="151.363" y2="102.33" transform="translate(1231.892 6765.674)"/>
      <line id="선_741" data-name="선 741" class="cls-7" x1="151.363" y2="102.33" transform="translate(1231.892 6806.107)"/>
      <line id="선_742" data-name="선 742" class="cls-7" x1="151.363" y2="102.33" transform="translate(1231.892 6781.847)"/>
      <line id="선_743" data-name="선 743" class="cls-7" x1="151.363" y2="102.33" transform="translate(1231.892 6822.281)"/>
      <line id="선_744" data-name="선 744" class="cls-7" x1="151.363" y2="102.33" transform="translate(1231.892 6798.021)"/>
      <line id="선_745" data-name="선 745" class="cls-7" x1="151.363" y2="102.33" transform="translate(1231.892 6834.411)"/>
      <line id="선_746" data-name="선 746" class="cls-7" x1="151.363" y2="102.33" transform="translate(1231.892 6814.194)"/>
      <line id="선_747" data-name="선 747" class="cls-7" x1="151.363" y2="102.33" transform="translate(1231.892 6842.497)"/>
      <line id="선_748" data-name="선 748" class="cls-7" x1="151.363" y2="102.33" transform="translate(1231.892 6826.324)"/>
      <line id="선_749" data-name="선 749" class="cls-7" x1="151.363" y2="102.33" transform="translate(1231.892 6850.584)"/>
      <line id="선_750" data-name="선 750" class="cls-7" x1="151.363" y2="102.33" transform="translate(1231.892 6838.454)"/>
      <line id="선_751" data-name="선 751" class="cls-7" x1="151.363" y2="102.33" transform="translate(1231.892 6858.671)"/>
      <line id="선_752" data-name="선 752" class="cls-7" x1="151.363" y2="102.33" transform="translate(1231.892 6846.541)"/>
      <line id="선_753" data-name="선 753" class="cls-7" x1="151.363" y2="102.33" transform="translate(1231.892 6866.757)"/>
      <line id="선_754" data-name="선 754" class="cls-7" x1="151.363" y2="102.33" transform="translate(1231.892 6854.627)"/>
      <line id="선_755" data-name="선 755" class="cls-7" x1="151.363" y2="102.33" transform="translate(1231.892 6874.844)"/>
      <line id="선_756" data-name="선 756" class="cls-7" x1="151.363" y2="102.33" transform="translate(1231.892 6862.714)"/>
      <line id="선_757" data-name="선 757" class="cls-7" x1="151.363" y2="102.33" transform="translate(1231.892 6882.931)"/>
      <line id="선_758" data-name="선 758" class="cls-7" x1="151.363" y2="102.33" transform="translate(1231.892 6870.801)"/>
      <line id="선_759" data-name="선 759" class="cls-7" x1="151.363" y2="102.33" transform="translate(1231.892 6886.974)"/>
      <line id="선_760" data-name="선 760" class="cls-7" x1="151.363" y2="102.33" transform="translate(1231.892 6878.888)"/>
    </g>
  </g>
  <rect id="사각형_167" data-name="사각형 167" class="cls-5" width="40" height="173.684" transform="translate(327.624 91.474)"/>
  <path id="패스_748" data-name="패스 748" class="cls-2" d="M4.824.234c2.43,0,4.428-1.4,4.428-3.8A3.354,3.354,0,0,0,6.516-6.876v-.09A3.2,3.2,0,0,0,8.8-10.08c0-2.2-1.674-3.42-4.05-3.42a5.583,5.583,0,0,0-3.8,1.6l1.08,1.3a3.88,3.88,0,0,1,2.646-1.26A1.854,1.854,0,0,1,6.714-9.936c0,1.332-.864,2.322-3.474,2.322v1.53c2.988,0,3.924.954,3.924,2.43a2.224,2.224,0,0,1-2.52,2.2A4.281,4.281,0,0,1,1.512-2.916L.5-1.584A5.5,5.5,0,0,0,4.824.234ZM13.392,0h2.124c.216-5.184.7-8.1,3.816-11.988v-1.26H10.8V-11.5h6.228C14.472-7.938,13.626-4.842,13.392,0Zm7.866,3.6A4.22,4.22,0,0,0,24.21-.45c0-1.386-.594-2.232-1.6-2.232a1.345,1.345,0,0,0-1.44,1.332A1.3,1.3,0,0,0,22.554-.018a.738.738,0,0,0,.2-.018A2.794,2.794,0,0,1,20.79,2.43Zm9.108-4.95c-1.422,0-2.376-1.242-2.592-3.87A3.083,3.083,0,0,1,30.24-6.768c1.422,0,2.178.954,2.178,2.664S31.518-1.35,30.366-1.35Zm3.762-10.728A4.449,4.449,0,0,0,30.816-13.5c-2.61,0-5,2.034-5,7.128,0,4.5,2.052,6.606,4.572,6.606A4.038,4.038,0,0,0,34.344-4.1c0-2.808-1.494-4.176-3.726-4.176a3.983,3.983,0,0,0-2.88,1.53c.09-3.78,1.494-5.058,3.186-5.058a2.846,2.846,0,0,1,2.07.99ZM38.25,0h2.124c.216-5.184.7-8.1,3.816-11.988v-1.26H35.658V-11.5h6.228C39.33-7.938,38.484-4.842,38.25,0Zm7.992,0H53.8V-1.71H51.21V-13.248H49.644a8.138,8.138,0,0,1-2.88,1.008v1.314H49.14V-1.71h-2.9Z" transform="translate(310.356 116.314)"/>
  <rect id="사각형_168" data-name="사각형 168" class="cls-9" width="40" height="129.677" transform="translate(327.624 135.481)"/>
  <rect id="사각형_169" data-name="사각형 169" class="cls-10" width="40" height="129.677" transform="translate(327.624 135.481)"/>
  <line id="선_761" data-name="선 761" class="cls-11" x2="402.505" transform="translate(0 265.659)"/>
  <line id="선_762" data-name="선 762" class="cls-12" y1="160.943" x2="0.142" transform="translate(223.651 19.229)"/>
  <line id="선_763" data-name="선 763" class="cls-12" y1="138" transform="translate(290.521 27.059)"/>
  <line id="선_764" data-name="선 764" class="cls-12" y1="88.161" transform="translate(368.238 47.179)"/>
  <path id="패스_266" data-name="패스 266" class="cls-13" d="M1336.309,6652.779l66.974,5.335,77.384,19.657" transform="translate(-1112.62 -6632.056)"/>
</svg>
