<svg id="구성_요소_30_1" data-name="구성 요소 30 – 1" xmlns="http://www.w3.org/2000/svg" width="539.02" height="44.354" viewBox="0 0 539.02 44.354">
  <defs>
    <style>
      .cls-1 {
        fill: #91c9e0;
      }

      .cls-2 {
        fill: none;
        stroke: #3e3a39;
        stroke-width: 0.99px;
      }

      .cls-3 {
        fill: #1e2323;
        font-size: 12px;
        font-family: NotoSansKR-Regular, Noto Sans KR;
      }

      .cls-4 {
        letter-spacing: -0.014em;
      }

      .cls-5 {
        letter-spacing: -0.015em;
      }
    </style>
  </defs>
  <g id="구성_요소_26_1" data-name="구성 요소 26 – 1">
    <rect id="사각형_73" data-name="사각형 73" class="cls-1" width="122.851" height="44.354"/>
    <path id="패스_83" data-name="패스 83" class="cls-2" d="M5763.728,4008.318l4.727,4.721-4.727,4.721" transform="translate(-5635.479 -3990.818)"/>
  </g>
  <rect id="사각형_74" data-name="사각형 74" class="cls-1" width="122.851" height="44.354" transform="translate(138.723)"/>
  <rect id="사각형_75" data-name="사각형 75" class="cls-1" width="122.851" height="44.354" transform="translate(277.446)"/>
  <rect id="사각형_76" data-name="사각형 76" class="cls-1" width="122.851" height="44.354" transform="translate(416.169)"/>
  <path id="패스_84" data-name="패스 84" class="cls-2" d="M5902.451,4008.318l4.727,4.721-4.727,4.721" transform="translate(-5635.479 -3990.818)"/>
  <path id="패스_85" data-name="패스 85" class="cls-2" d="M6041.173,4008.318l4.727,4.721-4.727,4.721" transform="translate(-5635.479 -3990.818)"/>
  <text id="_1차_초동조치_" data-name="1차 (초동조치)" class="cls-3" transform="translate(25.48 27)"><tspan class="cls-4" x="0" y="0">1차 (초동조치</tspan><tspan y="0">)</tspan></text>
  <text id="_2차_원인분석_" data-name="2차 (원인분석)" class="cls-3" transform="translate(164.203 27)"><tspan class="cls-4" x="0" y="0">2</tspan><tspan class="cls-5" y="0">차</tspan><tspan class="cls-4" y="0" xml:space="preserve"> (원인분석</tspan><tspan y="0">)</tspan></text>
  <text id="_3차_문제해결_" data-name="3차 (문제해결)" class="cls-3" transform="translate(302.925 27)"><tspan class="cls-5" x="0" y="0">3</tspan><tspan class="cls-4" y="0">차</tspan><tspan class="cls-5" y="0"> </tspan><tspan class="cls-4" y="0">(문제해결</tspan><tspan y="0">)</tspan></text>
  <text id="_4차_사후조치_" data-name="4차 (사후조치)" class="cls-3" transform="translate(441.648 27)"><tspan class="cls-4" x="0" y="0">4</tspan><tspan class="cls-5" y="0">차</tspan><tspan class="cls-4" y="0" xml:space="preserve"> (사후조치</tspan><tspan y="0">)</tspan></text>
</svg>
