<svg id="구성_요소_30_1" data-name="구성 요소 30 – 1" xmlns="http://www.w3.org/2000/svg" width="539.02" height="44.354" viewBox="0 0 539.02 44.354">
  <defs>
    <style>
      .cls-1 {
        fill: #91c9e0;
      }

      .cls-2 {
        fill: none;
        stroke: #3e3a39;
        stroke-width: 0.99px;
      }

      .cls-3 {
        fill: #1e2323;
      }
    </style>
  </defs>
  <g id="구성_요소_26_1" data-name="구성 요소 26 – 1">
    <rect id="사각형_73" data-name="사각형 73" class="cls-1" width="122.851" height="44.354"/>
    <path id="패스_83" data-name="패스 83" class="cls-2" d="M5763.728,4008.318l4.727,4.721-4.727,4.721" transform="translate(-5635.479 -3990.818)"/>
  </g>
  <rect id="사각형_74" data-name="사각형 74" class="cls-1" width="122.851" height="44.354" transform="translate(138.723)"/>
  <rect id="사각형_75" data-name="사각형 75" class="cls-1" width="122.851" height="44.354" transform="translate(277.446)"/>
  <rect id="사각형_76" data-name="사각형 76" class="cls-1" width="122.851" height="44.354" transform="translate(416.169)"/>
  <path id="패스_84" data-name="패스 84" class="cls-2" d="M5902.451,4008.318l4.727,4.721-4.727,4.721" transform="translate(-5635.479 -3990.818)"/>
  <path id="패스_85" data-name="패스 85" class="cls-2" d="M6041.173,4008.318l4.727,4.721-4.727,4.721" transform="translate(-5635.479 -3990.818)"/>
  <path id="패스_931" data-name="패스 931" class="cls-3" d="M1.056,0H5.88V-.912H4.116V-8.8h-.84a5.573,5.573,0,0,1-1.824.624v.7h1.56V-.912H1.056Zm9.672-7.224h2.388v-.792H10.728V-9.684H9.744v1.668H7.32v.792H9.756v.84A5.109,5.109,0,0,1,7.032-1.932l.552.744a5.482,5.482,0,0,0,2.664-3.324A5.287,5.287,0,0,0,12.792-1.38l.552-.768a4.849,4.849,0,0,1-2.616-4.236Zm6.456,1.776H15.408V-9.876h-.984V.888h.984v-5.52h1.776Zm5.568,7.812.684-.324A11.062,11.062,0,0,1,21.9-3.732,11.092,11.092,0,0,1,23.436-9.5l-.684-.312a11.207,11.207,0,0,0-1.764,6.084A11.248,11.248,0,0,0,22.752,2.364Zm2.58-5.712a5.432,5.432,0,0,0,3.96-2.5,5.385,5.385,0,0,0,3.948,2.5l.384-.78c-2.088-.336-3.84-1.6-3.84-3.252H33.24v-.792H29.784V-9.636h-1v1.464H25.32v.792h3.468c0,1.656-1.752,2.916-3.84,3.252Zm4.452,2.064V-3.732h-1v2.448h-4.38v.816h9.768v-.816ZM40.152.12c-1.7,0-2.7-.42-2.7-1.176s1-1.176,2.7-1.176c1.68,0,2.676.42,2.676,1.176S41.832.12,40.152.12Zm0-3.12c-2.3,0-3.7.7-3.7,1.944S37.848.888,40.152.888c2.28,0,3.672-.7,3.672-1.944S42.432-3,40.152-3Zm.492-1.56V-5.808h3.24V-6.6h-6.4V-8.592h6.324v-.792H36.5v3.576H39.66V-4.56H35.28v.792h9.744V-4.56Zm6.4,1.032a5.8,5.8,0,0,0,4-2.9,5.722,5.722,0,0,0,4.032,2.856l.4-.792c-1.872-.3-3.924-1.776-3.924-3.492v-.228H55.1v-.8H46.956v.8H50.52v.228c0,1.716-2.04,3.216-3.9,3.528Zm4.488,2.22v-2.6h-.984v2.6H46.152v.816H55.92v-.816Zm9.456-5.916h2.46v-.792H61V-9.684H60v1.668H57.516v.792h2.5V-6.4a5.075,5.075,0,0,1-2.784,4.452l.552.744a5.556,5.556,0,0,0,2.736-3.324A5.392,5.392,0,0,0,63.264-1.38l.552-.768A4.821,4.821,0,0,1,60.984-6.4Zm3.864-2.664V.876h1V-9.888Zm3.6,12.252a11.155,11.155,0,0,0,1.776-6.1,11.115,11.115,0,0,0-1.776-6.084l-.672.312a11.207,11.207,0,0,1,1.536,5.772A11.176,11.176,0,0,1,67.776,2.04Z" transform="translate(25.48 27)"/>
  <path id="패스_932" data-name="패스 932" class="cls-3" d="M.528,0H6.06V-.948H3.624c-.444,0-.984.048-1.44.084C4.248-2.82,5.628-4.608,5.628-6.36a2.413,2.413,0,0,0-2.556-2.6A3.364,3.364,0,0,0,.48-7.668l.636.624A2.463,2.463,0,0,1,2.94-8.064a1.546,1.546,0,0,1,1.62,1.74C4.56-4.812,3.288-3.06.528-.648Zm10.2-7.224h2.388v-.792H10.728V-9.684H9.744v1.668H7.32v.792H9.756v.84A5.109,5.109,0,0,1,7.032-1.932l.552.744a5.482,5.482,0,0,0,2.664-3.324A5.287,5.287,0,0,0,12.792-1.38l.552-.768a4.849,4.849,0,0,1-2.616-4.236Zm6.456,1.776H15.408V-9.876h-.984V.888h.984v-5.52h1.776ZM22.74,2.364l.684-.324a11.062,11.062,0,0,1-1.536-5.772A11.092,11.092,0,0,1,23.424-9.5l-.684-.312a11.207,11.207,0,0,0-1.764,6.084A11.248,11.248,0,0,0,22.74,2.364Zm7.3-5.88v.732H32.22v1.1H33.2v-8.2H32.22v6.36Zm-2.2-5.2c1.02,0,1.716.456,1.716,1.14S28.86-6.42,27.84-6.42s-1.716-.456-1.716-1.152S26.82-8.712,27.84-8.712Zm0,3.024c1.572,0,2.652-.732,2.652-1.884,0-1.128-1.08-1.872-2.652-1.872s-2.652.744-2.652,1.872C25.188-6.42,26.268-5.688,27.84-5.688Zm-.384,3.624h.984V-4.188c.972-.06,1.968-.168,2.916-.312l-.084-.708a58.47,58.47,0,0,1-6.936.312l.132.816c.888,0,1.92-.012,2.988-.06Zm-.6,1.908V-2.484h-.984V.648H33.48v-.8ZM44.1-9.864h-.984V-2H44.1ZM36.48-6.48a1.76,1.76,0,0,1,1.836-1.788,1.766,1.766,0,0,1,1.86,1.788,1.771,1.771,0,0,1-1.86,1.812A1.765,1.765,0,0,1,36.48-6.48Zm4.656,0a2.649,2.649,0,0,0-2.82-2.64,2.635,2.635,0,0,0-2.8,2.64,2.647,2.647,0,0,0,2.8,2.664A2.66,2.66,0,0,0,41.136-6.48ZM38.16-.156V-2.808h-.984V.648h7.248v-.8ZM53.628-6.012H48.4V-7.4h5.232ZM54.6-9.528h-.972V-8.16H48.4V-9.528h-.972v4.3H54.6ZM48.336-2.28h-.972V.648H54.8v-.8H48.336Zm-2.22-1.908V-3.4h4.476v2.088h.984V-3.4H55.9v-.792ZM63.3-4.752A3.764,3.764,0,0,1,60.672-8.16V-9.336h-.984V-8.2a3.909,3.909,0,0,1-2.664,3.672l.516.792A4.592,4.592,0,0,0,60.2-6.456a4.546,4.546,0,0,0,2.568,2.484ZM58.668-2.124h6.216V.9h1V-2.916H58.668Zm6.216-7.74V-7.62h-2.34v.8h2.34v3.3h1V-9.864ZM68.436,2.364a11.155,11.155,0,0,0,1.776-6.1,11.115,11.115,0,0,0-1.776-6.084l-.672.312A11.207,11.207,0,0,1,69.3-3.732,11.176,11.176,0,0,1,67.764,2.04Z" transform="translate(164.203 27)"/>
  <path id="패스_933" data-name="패스 933" class="cls-3" d="M3.168.156a2.561,2.561,0,0,0,2.82-2.508A2.262,2.262,0,0,0,4.116-4.584v-.048A2.193,2.193,0,0,0,5.688-6.756c0-1.416-1.08-2.208-2.556-2.208A3.522,3.522,0,0,0,.672-7.908l.588.7a2.745,2.745,0,0,1,1.824-.876A1.374,1.374,0,0,1,4.572-6.672c0,.948-.624,1.68-2.436,1.68v.84c2.028,0,2.736.708,2.736,1.764A1.62,1.62,0,0,1,3.084-.756,2.908,2.908,0,0,1,.9-1.764l-.552.72A3.641,3.641,0,0,0,3.168.156Zm7.548-7.38H13.1v-.792H10.716V-9.684H9.732v1.668H7.308v.792H9.744v.84A5.109,5.109,0,0,1,7.02-1.932l.552.744a5.482,5.482,0,0,0,2.664-3.324A5.287,5.287,0,0,0,12.78-1.38l.552-.768a4.849,4.849,0,0,1-2.616-4.236Zm6.456,1.776H15.4V-9.876h-.984V.888H15.4v-5.52h1.776Zm5.556,7.812.684-.324a11.062,11.062,0,0,1-1.536-5.772A11.092,11.092,0,0,1,23.412-9.5l-.684-.312a11.207,11.207,0,0,0-1.764,6.084A11.248,11.248,0,0,0,22.728,2.364ZM31.9-6.384h-5.3v-2.2h5.3Zm.972-2.988H25.632v3.78h7.236ZM26.592-2.424h-.984V.648h7.44v-.8H26.592ZM24.36-4.368v.792h4.476V-1.4h.984V-3.576h4.32v-.792ZM38.412-7.812h1.92v-.8H35.424v.8h2.04v.972A5.616,5.616,0,0,1,35.124-2l.6.732a5.572,5.572,0,0,0,2.22-3.408A5.147,5.147,0,0,0,40.1-1.536l.6-.72A5.215,5.215,0,0,1,38.412-6.84Zm2.88,1.8H39.516v.8h1.776V.324h.936v-9.96h-.936Zm2.16-3.876V.876H44.4V-9.888Zm5.34,7.464a1.485,1.485,0,0,1-1.428-1.644,1.477,1.477,0,0,1,1.428-1.62,1.484,1.484,0,0,1,1.428,1.62A1.492,1.492,0,0,1,48.792-2.424Zm0-4.092a2.291,2.291,0,0,0-2.3,2.448,2.288,2.288,0,0,0,2.3,2.46,2.288,2.288,0,0,0,2.3-2.46A2.291,2.291,0,0,0,48.792-6.516Zm.48-3.048H48.3V-8.04H46.116v.8h5.34v-.8H49.272ZM54.3-9.888V-5.34H52.92v-4.3H52v10h.924v-4.9H54.3V.876h.948V-9.888Zm10.572,2.34v1.284H62.064V-5.5h2.808V-4.38h1v-5.5h-1v1.56H62.436a4.856,4.856,0,0,0,.108-1.032H57.732v.8h3.744c-.18,1.7-1.68,2.988-4.308,3.6l.36.8C59.9-4.7,61.548-5.856,62.22-7.548ZM59.928,0V-1.248h5.94v-2.64H58.932V-3.1h5.952v1.1H58.956V.78h7.272V0Zm8.5,2.364a11.155,11.155,0,0,0,1.776-6.1,11.115,11.115,0,0,0-1.776-6.084l-.672.312a11.207,11.207,0,0,1,1.536,5.772A11.176,11.176,0,0,1,67.752,2.04Z" transform="translate(302.925 27)"/>
  <path id="패스_934" data-name="패스 934" class="cls-3" d="M1.38-3.3l2-3c.252-.432.492-.864.708-1.3H4.14c-.024.456-.072,1.164-.072,1.6v2.7Zm4.9,0H5.112V-8.8H3.9L.24-3.144v.72H4.068V0H5.112V-2.424H6.276Zm4.452-3.924h2.388v-.792H10.728V-9.684H9.744v1.668H7.32v.792H9.756v.84A5.109,5.109,0,0,1,7.032-1.932l.552.744a5.482,5.482,0,0,0,2.664-3.324A5.287,5.287,0,0,0,12.792-1.38l.552-.768a4.849,4.849,0,0,1-2.616-4.236Zm6.456,1.776H15.408V-9.876h-.984V.888h.984v-5.52h1.776ZM22.74,2.364l.684-.324a11.062,11.062,0,0,1-1.536-5.772A11.092,11.092,0,0,1,23.424-9.5l-.684-.312a11.207,11.207,0,0,0-1.764,6.084A11.248,11.248,0,0,0,22.74,2.364Zm5.268-11.3h-.972v1.932A5.7,5.7,0,0,1,24.264-2.2l.588.792a5.961,5.961,0,0,0,2.676-3.564,5.937,5.937,0,0,0,2.6,3.348l.612-.78a5.436,5.436,0,0,1-2.736-4.608Zm6.444,3.432H32.676V-9.864h-.984V.888h.984v-5.58h1.776ZM44.424-8.64H40.632v-1.3h-1v1.3H35.772v.792h8.652ZM42.6-5.436c0,.66-.888,1.044-2.46,1.044s-2.484-.384-2.484-1.044S38.568-6.48,40.14-6.48,42.6-6.1,42.6-5.436Zm-5.964,0c0,1.152,1.308,1.788,3.5,1.788,2.172,0,3.48-.636,3.48-1.788s-1.308-1.8-3.48-1.8C37.944-7.236,36.636-6.588,36.636-5.436Zm8.388,2.544H35.268v.8h4.368V.9h1V-2.088h4.392Zm2-.636a5.8,5.8,0,0,0,4-2.9,5.722,5.722,0,0,0,4.032,2.856l.4-.792c-1.872-.3-3.924-1.776-3.924-3.492v-.228h3.564v-.8H46.944v.8h3.564v.228c0,1.716-2.04,3.216-3.9,3.528Zm4.488,2.22v-2.6h-.984v2.6H46.14v.816h9.768v-.816Zm9.456-5.916h2.46v-.792H60.984V-9.684h-1v1.668H57.5v.792H60V-6.4a5.075,5.075,0,0,1-2.784,4.452l.552.744A5.556,5.556,0,0,0,60.5-4.524,5.392,5.392,0,0,0,63.252-1.38l.552-.768A4.821,4.821,0,0,1,60.972-6.4Zm3.864-2.664V.876h1V-9.888Zm3.6,12.252a11.155,11.155,0,0,0,1.776-6.1,11.115,11.115,0,0,0-1.776-6.084l-.672.312A11.207,11.207,0,0,1,69.3-3.732,11.176,11.176,0,0,1,67.764,2.04Z" transform="translate(441.648 27)"/>
</svg>
