<svg id="구성_요소_11_1" data-name="구성 요소 11 – 1" xmlns="http://www.w3.org/2000/svg" width="73.477" height="70" viewBox="0 0 73.477 70">
  <defs>
    <style>
      .cls-1 {
        fill: #970b31;
      }

      .cls-2 {
        fill: #fff;
      }
    </style>
  </defs>
  <rect id="사각형_88" data-name="사각형 88" class="cls-1" width="73.477" height="70"/>
  <g id="그룹_72" data-name="그룹 72" transform="translate(-9032.965 -5961.042)">
    <path id="패스_260" data-name="패스 260" class="cls-2" d="M9083.649,5997.371l-7.472,7.14a1.245,1.245,0,0,0-.427,1.072v20.01a.428.428,0,0,0,.427.427h7.717a.427.427,0,0,0,.426-.427v-28.042c0-.236-.185-.667-.671-.18"/>
    <path id="패스_261" data-name="패스 261" class="cls-2" d="M9062.127,6006.672l-7.471,7.139a1.246,1.246,0,0,0-.428,1.071v10.71a.428.428,0,0,0,.428.426h7.717a.425.425,0,0,0,.425-.426v-18.741c0-.236-.186-.668-.671-.179"/>
    <path id="패스_262" data-name="패스 262" class="cls-2" d="M9087.046,5988.713a.218.218,0,0,0-.063-.163.235.235,0,0,0-.139-.061l-.041,0-.061,0-5.721,1.3-.1.011a.216.216,0,0,0-.111.368l.063.065,1.307,1.312-12.962,13.022-5.987-6.015a.17.17,0,0,0-.243,0l-1.624,1.632v0l-9.6,9.64a.178.178,0,0,0,0,.245l1.627,1.633a.169.169,0,0,0,.242,0l9.478-9.519,4.345,4.365a.141.141,0,0,0,.013.021l1.625,1.631a.172.172,0,0,0,.244,0l14.712-14.78,1.372,1.378a.214.214,0,0,0,.3,0,.217.217,0,0,0,.063-.142v-.018l1.257-5.867Z"/>
    <path id="패스_263" data-name="패스 263" class="cls-2" d="M9072.931,6007.925l-3.613,3.662a.173.173,0,0,1-.233-.01l-3.276-3.353c-.6-.6-.728-.113-.728.122v17.246a.424.424,0,0,0,.423.426h7.718a.427.427,0,0,0,.426-.426v-17.531c0-.237-.186-.669-.716-.136"/>
    <path id="패스_264" data-name="패스 264" class="cls-2" d="M9044.742,5978.739c0,.9-.328,1.538-1.225,1.538-.875,0-1.2-.637-1.2-1.538v-2.415c0-.9.326-1.537,1.2-1.537.9,0,1.225.637,1.225,1.537Zm-2.339-8.233c0-.9.308-1.428,1.114-1.428.83,0,1.138.526,1.138,1.428v1.008c0,.9-.308,1.429-1.138,1.429-.807,0-1.114-.528-1.114-1.429Zm4.832,7.97v-1.625a2.953,2.953,0,0,0-1.661-2.987,2.623,2.623,0,0,0,1.44-2.591v-.615c0-2.327-1.2-3.579-3.5-3.579-2.271,0-3.452,1.252-3.452,3.579v.615a2.646,2.646,0,0,0,1.4,2.591,2.938,2.938,0,0,0-1.639,2.987v1.625c0,2.262,1.07,3.843,3.693,3.843,2.646,0,3.718-1.581,3.718-3.843"/>
    <path id="패스_265" data-name="패스 265" class="cls-2" d="M9054.052,5972.615c.43,0,.595-.257.595-.633v-3.259a.545.545,0,0,0-.595-.624h-.437v4.516Zm1.637-3.7v2.882c0,.954-.394,1.67-1.509,1.67h-1.608v-6.223h1.608c1.115,0,1.509.707,1.509,1.671"/>
  </g>
  <path id="패스_266" data-name="패스 266" class="cls-2" d="M9056.281,5967.245h2.484v.854h-1.442v1.781h1.031v.844h-1.031v1.891h1.442v.854h-2.484Z" transform="translate(-9032.965 -5961.042)"/>
  <g id="그룹_73" data-name="그룹 73" transform="translate(-9032.965 -5961.042)">
    <path id="패스_267" data-name="패스 267" class="cls-2" d="M9059.232,5971.862v-3.01c0-.974.456-1.68,1.554-1.68,1.149,0,1.47.642,1.47,1.56v.735h-.95v-.817c0-.386-.128-.606-.5-.606s-.529.266-.529.643v3.341c0,.376.155.641.529.641s.5-.238.5-.6v-1.148h.95v1.075c0,.89-.366,1.551-1.47,1.551a1.469,1.469,0,0,1-1.554-1.68"/>
  </g>
  <path id="패스_268" data-name="패스 268" class="cls-2" d="M9062.821,5967.245h2.485v.854h-1.443v1.781h1.032v.844h-1.032v1.891h1.443v.854h-2.485Z" transform="translate(-9032.965 -5961.042)"/>
  <path id="패스_269" data-name="패스 269" class="cls-2" d="M9066.74,5969.559v3.91h-.877v-6.223h1.023l1.125,3.57v-3.57h.867v6.223h-.914Z" transform="translate(-9032.965 -5961.042)"/>
  <path id="패스_270" data-name="패스 270" class="cls-2" d="M9069.353,5967.245h2.769v.854h-.858v5.37h-1.052v-5.37h-.858Z" transform="translate(-9032.965 -5961.042)"/>
  <path id="패스_271" data-name="패스 271" class="cls-2" d="M9075.812,5969.623l-.584,3.846h-.979l-.832-6.224h1.007l.483,3.947h.009l.521-3.947h.851l.575,3.947h.009l.477-3.947h.876l-.8,6.224h-.986l-.613-3.846Z" transform="translate(-9032.965 -5961.042)"/>
  <g id="그룹_74" data-name="그룹 74" transform="translate(-9032.965 -5961.042)">
    <path id="패스_272" data-name="패스 272" class="cls-2" d="M9080.69,5972.028v-3.342c0-.376-.164-.642-.54-.642s-.53.266-.53.642v3.342c0,.376.164.642.53.642s.54-.266.54-.642m-2.111-.166v-3.01a1.579,1.579,0,1,1,3.152,0v3.01a1.579,1.579,0,1,1-3.152,0"/>
    <path id="패스_273" data-name="패스 273" class="cls-2" d="M9083.366,5968.1v1.937h.346a.453.453,0,0,0,.513-.514v-.918c0-.34-.156-.5-.513-.5Zm0,2.515v2.854h-1.043v-6.223h1.518c1.051,0,1.436.524,1.436,1.4v.8c0,.67-.239,1.065-.832,1.2l1,2.827h-1.1Z"/>
  </g>
  <path id="패스_274" data-name="패스 274" class="cls-2" d="M9086.883,5970.44v3.028h-1.041v-6.222h1.041v2.735l1.133-2.735h1.023l-1.206,2.8,1.233,3.423h-1.1Z" transform="translate(-9032.965 -5961.042)"/>
  <path id="패스_275" data-name="패스 275" class="cls-2" d="M9091.56,5971.5h.831l-.409-2.5h-.01Zm-1.306,1.973,1.169-6.224h1.188l1.178,6.224h-1.068l-.191-1.138h-1.106l-.182,1.138Z" transform="translate(-9032.965 -5961.042)"/>
  <path id="패스_276" data-name="패스 276" class="cls-2" d="M9095.095,5969.559v3.91h-.877v-6.223h1.023l1.124,3.57v-3.57h.867v6.223h-.912Z" transform="translate(-9032.965 -5961.042)"/>
  <g id="그룹_75" data-name="그룹 75" transform="translate(-9032.965 -5961.042)">
    <path id="패스_277" data-name="패스 277" class="cls-2" d="M9099.306,5972.615c.431,0,.594-.257.594-.633v-3.259c0-.367-.163-.624-.594-.624h-.438v4.516Zm1.638-3.7v2.882c0,.954-.395,1.67-1.51,1.67h-1.607v-6.223h1.607c1.115,0,1.51.707,1.51,1.671"/>
  </g>
  <path id="패스_278" data-name="패스 278" class="cls-2" d="M9052.572,5975.962h2.485v.854h-1.444v1.78h1.033v.845h-1.033v1.891h1.444v.854h-2.485Z" transform="translate(-9032.965 -5961.042)"/>
  <g id="그룹_76" data-name="그룹 76" transform="translate(-9032.965 -5961.042)">
    <path id="패스_279" data-name="패스 279" class="cls-2" d="M9055.523,5980.58v-3.011c0-.973.455-1.68,1.554-1.68,1.149,0,1.47.643,1.47,1.561v.734h-.95v-.816c0-.387-.128-.607-.5-.607s-.529.266-.529.643v3.342c0,.376.155.641.529.641s.5-.238.5-.6v-1.148h.95v1.075c0,.89-.365,1.551-1.47,1.551a1.468,1.468,0,0,1-1.554-1.68"/>
    <path id="패스_280" data-name="패스 280" class="cls-2" d="M9061.223,5980.746V5977.4c0-.376-.165-.643-.539-.643s-.529.267-.529.643v3.342c0,.376.165.642.529.642s.539-.266.539-.642m-2.11-.166v-3.01a1.579,1.579,0,1,1,3.152,0v3.01a1.579,1.579,0,1,1-3.152,0"/>
  </g>
  <path id="패스_281" data-name="패스 281" class="cls-2" d="M9063.735,5978.276v3.91h-.878v-6.223h1.023l1.124,3.57v-3.57h.869v6.223h-.914Z" transform="translate(-9032.965 -5961.042)"/>
  <g id="그룹_77" data-name="그룹 77" transform="translate(-9032.965 -5961.042)">
    <path id="패스_282" data-name="패스 282" class="cls-2" d="M9068.577,5980.746V5977.4c0-.376-.164-.643-.54-.643s-.529.267-.529.643v3.342c0,.376.165.642.529.642s.54-.266.54-.642m-2.111-.166v-3.01a1.579,1.579,0,1,1,3.152,0v3.01a1.579,1.579,0,1,1-3.152,0"/>
  </g>
  <path id="패스_283" data-name="패스 283" class="cls-2" d="M9073.081,5978.147h-.026l-.705,4.038h-.483l-.777-4.038h-.018v4.038h-.859v-6.223h1.215l.676,3.507h.01l.6-3.507h1.316v6.223h-.95Z" transform="translate(-9032.965 -5961.042)"/>
  <rect id="사각형_89" data-name="사각형 89" class="cls-2" width="1.043" height="6.224" transform="translate(41.659 14.92)"/>
  <g id="그룹_78" data-name="그룹 78" transform="translate(-9032.965 -5961.042)">
    <path id="패스_284" data-name="패스 284" class="cls-2" d="M9076.268,5980.58v-3.011c0-.973.456-1.68,1.555-1.68,1.149,0,1.47.643,1.47,1.561v.734h-.951v-.816c0-.387-.128-.607-.5-.607s-.53.266-.53.643v3.342c0,.376.155.641.53.641s.5-.238.5-.6v-1.148h.951v1.075c0,.89-.366,1.551-1.47,1.551a1.469,1.469,0,0,1-1.555-1.68"/>
    <path id="패스_285" data-name="패스 285" class="cls-2" d="M9082.389,5978.863h1.481v3.324h-.75v-.68a.939.939,0,0,1-1,.753c-.895,0-1.307-.717-1.307-1.68v-3.012a1.471,1.471,0,0,1,1.562-1.679c1.152,0,1.49.642,1.49,1.56V5978h-.951v-.633c0-.386-.146-.606-.521-.606s-.539.266-.539.643v3.341c0,.377.155.642.512.642.338,0,.512-.192.512-.6v-1.1h-.494Z"/>
    <path id="패스_286" data-name="패스 286" class="cls-2" d="M9085.5,5976.817v1.937h.347a.453.453,0,0,0,.512-.515v-.917c0-.34-.156-.5-.512-.5Zm0,2.515v2.855h-1.043v-6.225h1.518c1.051,0,1.436.524,1.436,1.4v.8c0,.67-.238,1.065-.833,1.2l1,2.827h-1.1Z"/>
    <path id="패스_287" data-name="패스 287" class="cls-2" d="M9090.09,5980.746V5977.4c0-.376-.164-.643-.54-.643s-.528.267-.528.643v3.342c0,.376.162.642.528.642s.54-.266.54-.642m-2.111-.166v-3.01a1.579,1.579,0,1,1,3.152,0v3.01a1.579,1.579,0,1,1-3.152,0"/>
  </g>
  <path id="패스_288" data-name="패스 288" class="cls-2" d="M9093.881,5978.34l-.585,3.846h-.978l-.831-6.224h1l.485,3.947h.008l.521-3.947h.851l.575,3.947h.01l.474-3.947h.878l-.8,6.224h-.987l-.611-3.846Z" transform="translate(-9032.965 -5961.042)"/>
  <path id="패스_289" data-name="패스 289" class="cls-2" d="M9096.62,5975.962h2.77v.854h-.858v5.37h-1.052v-5.37h-.859Z" transform="translate(-9032.965 -5961.042)"/>
  <path id="패스_290" data-name="패스 290" class="cls-2" d="M9101.919,5979.442h-1v2.744h-1.042v-6.224h1.042v2.635h1v-2.635h1.05v6.224h-1.05Z" transform="translate(-9032.965 -5961.042)"/>
</svg>
