<svg id="구성_요소_106_1" data-name="구성 요소 106 – 1" xmlns="http://www.w3.org/2000/svg" xmlns:xlink="http://www.w3.org/1999/xlink" width="70" height="47.769" viewBox="0 0 70 47.769">
  <defs>
    <style>
      .cls-1 {
        fill: #fff;
      }

      .cls-2 {
        clip-path: url(#clip-path);
      }

      .cls-3 {
        fill: #78a5e2;
      }
    </style>
    <clipPath id="clip-path">
      <path id="패스_1231" data-name="패스 1231" class="cls-1" d="M0,0H70V-15.967H0Z"/>
    </clipPath>
  </defs>
  <g id="그룹_839" data-name="그룹 839" transform="translate(0 31.967)">
    <path id="패스_1229" data-name="패스 1229" class="cls-1" d="M.141-.145H69.858V-15.828H.141Z"/>
    <g id="그룹_836" data-name="그룹 836" class="cls-2">
      <path id="패스_1230" data-name="패스 1230" class="cls-1" d="M.142-.145H69.859V-15.829H.142Z"/>
    </g>
  </g>
  <g id="구성_요소_53_1" data-name="구성 요소 53 – 1" transform="translate(11)">
    <g id="그룹_27" data-name="그룹 27" transform="translate(-10427.502 -1576.243)">
      <path id="패스_135" data-name="패스 135" d="M10476.434,1601.332a22.68,22.68,0,1,1-22.68-22.68,22.679,22.679,0,0,1,22.68,22.68"/>
      <path id="패스_136" data-name="패스 136" class="cls-3" d="M10472.862,1598.923a22.68,22.68,0,1,1-22.681-22.68,22.681,22.681,0,0,1,22.681,22.68"/>
    </g>
    <path id="패스_1408" data-name="패스 1408" class="cls-1" d="M4.56.208c2.3,0,3.808-2.048,3.808-6.144C8.368-10,6.864-12,4.56-12,2.24-12,.752-10.016.752-5.936.752-1.84,2.24.208,4.56.208Zm0-1.456c-1.2,0-2.048-1.28-2.048-4.688,0-3.376.848-4.608,2.048-4.608S6.608-9.312,6.608-5.936C6.608-2.528,5.76-1.248,4.56-1.248ZM13.1.208c2.16,0,3.936-1.248,3.936-3.376a2.982,2.982,0,0,0-2.432-2.944v-.08A2.846,2.846,0,0,0,16.64-8.96c0-1.952-1.488-3.04-3.6-3.04a4.963,4.963,0,0,0-3.376,1.424l.96,1.152a3.448,3.448,0,0,1,2.352-1.12,1.648,1.648,0,0,1,1.808,1.712c0,1.184-.768,2.064-3.088,2.064v1.36c2.656,0,3.488.848,3.488,2.16A1.977,1.977,0,0,1,12.944-1.3a3.806,3.806,0,0,1-2.784-1.3l-.9,1.184A4.888,4.888,0,0,0,13.1.208Z" transform="translate(13.721 28.428)"/>
  </g>
</svg>
