<svg id="구성_요소_109_1" data-name="구성 요소 109 – 1" xmlns="http://www.w3.org/2000/svg" xmlns:xlink="http://www.w3.org/1999/xlink" width="70" height="47.769" viewBox="0 0 70 47.769">
  <defs>
    <style>
      .cls-1 {
        fill: #fff;
      }

      .cls-2 {
        clip-path: url(#clip-path);
      }

      .cls-3 {
        fill: #78a5e2;
      }
    </style>
    <clipPath id="clip-path">
      <path id="패스_1231" data-name="패스 1231" class="cls-1" d="M0,0H70V-15.967H0Z"/>
    </clipPath>
  </defs>
  <g id="그룹_841" data-name="그룹 841" transform="translate(0 31.967)">
    <path id="패스_1229" data-name="패스 1229" class="cls-1" d="M.141-.145H69.858V-15.828H.141Z"/>
    <g id="그룹_836" data-name="그룹 836" class="cls-2">
      <path id="패스_1230" data-name="패스 1230" class="cls-1" d="M.142-.145H69.859V-15.829H.142Z"/>
    </g>
  </g>
  <g id="구성_요소_55_1" data-name="구성 요소 55 – 1" transform="translate(11)">
    <g id="그룹_29" data-name="그룹 29" transform="translate(-10749.147 -1576.243)">
      <path id="패스_139" data-name="패스 139" d="M10798.078,1601.332a22.68,22.68,0,1,1-22.68-22.68,22.68,22.68,0,0,1,22.68,22.68"/>
      <path id="패스_140" data-name="패스 140" class="cls-3" d="M10794.507,1598.923a22.68,22.68,0,1,1-22.68-22.68,22.681,22.681,0,0,1,22.68,22.68"/>
    </g>
    <path id="패스_1410" data-name="패스 1410" class="cls-1" d="M4.56.208c2.3,0,3.808-2.048,3.808-6.144C8.368-10,6.864-12,4.56-12,2.24-12,.752-10.016.752-5.936.752-1.84,2.24.208,4.56.208Zm0-1.456c-1.2,0-2.048-1.28-2.048-4.688,0-3.376.848-4.608,2.048-4.608S6.608-9.312,6.608-5.936C6.608-2.528,5.76-1.248,4.56-1.248ZM13.1.208a3.885,3.885,0,0,0,3.968-4.08,3.387,3.387,0,0,0-3.584-3.744,3.32,3.32,0,0,0-1.616.416l.272-3.024h4.368v-1.552H10.544l-.352,5.584.9.592a3.1,3.1,0,0,1,1.888-.672,2.184,2.184,0,0,1,2.24,2.464A2.3,2.3,0,0,1,12.88-1.3,3.768,3.768,0,0,1,10.128-2.56l-.88,1.2A5.211,5.211,0,0,0,13.1.208Z" transform="translate(13.72 28.428)"/>
  </g>
</svg>
