<svg xmlns="http://www.w3.org/2000/svg" width="55.381" height="51.868" viewBox="0 0 55.381 51.868">
  <defs>
    <style>
      .cls-1, .cls-2 {
        fill: #1e2323;
      }

      .cls-1 {
        font-size: 14px;
        font-family: NotoSansKR-Light, Noto Sans KR;
        font-weight: 300;
      }

      .cls-3 {
        fill: none;
      }

      .cls-3, .cls-5 {
        stroke: #1e2323;
        stroke-miterlimit: 10;
      }

      .cls-4, .cls-5 {
        fill: #fff;
      }
    </style>
  </defs>
  <g id="구성_요소_62_1" data-name="구성 요소 62 – 1" transform="translate(0.5 0.5)">
    <text id="_" data-name=" " class="cls-1" transform="translate(0.421 19.94)"><tspan x="0" y="0"> </tspan></text>
    <text id="_2" data-name=" " class="cls-1" transform="translate(0.421 41.935)"><tspan x="0" y="0"> </tspan></text>
    <g id="그룹_790" data-name="그룹 790" transform="translate(49.395 26.054)">
      <path id="패스_1175" data-name="패스 1175" class="cls-2" d="M0,0C.006-.108.016-.213.016-.324c0-1.554-.632-2.812-1.411-2.812a1.047,1.047,0,0,0-.819.53A9.033,9.033,0,0,1-5.393-1.555L-6.8-1.961A16.666,16.666,0,0,0-10.691-11.1,13.626,13.626,0,0,1-7.545-12.5a1.484,1.484,0,0,0,1.357-.281c.773-.772.147-2.65-1.4-4.2s-3.425-2.171-4.2-1.4a1.483,1.483,0,0,0-.281,1.355,13.5,13.5,0,0,1-1.455,3.256,17.768,17.768,0,0,0-9.433-3.52A7.718,7.718,0,0,1-22-22.328a1.048,1.048,0,0,0,.53-.819c0-.78-1.258-1.411-2.809-1.411s-2.806.631-2.806,1.411a1.049,1.049,0,0,0,.529.819,7.706,7.706,0,0,1,.958,5.048,17.771,17.771,0,0,0-9.176,3.334,15.06,15.06,0,0,1-1.247-2.945,1.588,1.588,0,0,0-.3-1.455c-.833-.83-2.852-.158-4.513,1.5s-2.336,3.68-1.5,4.51a1.587,1.587,0,0,0,1.456.3,15.129,15.129,0,0,1,2.827,1.177A16.636,16.636,0,0,0-41.77-1.562a8.028,8.028,0,0,1-4.566-1.044,1.05,1.05,0,0,0-.82-.53c-.779,0-1.411,1.258-1.411,2.812s.632,2.811,1.411,2.811a1.052,1.052,0,0,0,.82-.53A8.024,8.024,0,0,1-41.77.913,16.622,16.622,0,0,0-38.054,10.2a15.1,15.1,0,0,1-2.829,1.177,1.585,1.585,0,0,0-1.454.3c-.833.832-.158,2.849,1.5,4.512s3.682,2.332,4.513,1.5a1.592,1.592,0,0,0,.3-1.457A15.007,15.007,0,0,1-34.772,13.3,17.772,17.772,0,0,0-25.6,16.632a7.7,7.7,0,0,1-.957,5.047,1.049,1.049,0,0,0-.529.819c0,.78,1.256,1.412,2.806,1.412s2.809-.632,2.809-1.412a1.05,1.05,0,0,0-.531-.82,7.708,7.708,0,0,1-.958-5.046,17.9,17.9,0,0,0,5.177-1.153,16.151,16.151,0,0,0,10.047,9.31C2.783,21.475,4.536,10.574,4.968,1.432Z"/>
    </g>
    <g id="그룹_791" data-name="그룹 791" transform="translate(49.395 26.054)">
      <path id="패스_1176" data-name="패스 1176" class="cls-3" d="M0,0C.006-.108.016-.213.016-.324c0-1.554-.632-2.812-1.411-2.812a1.047,1.047,0,0,0-.819.53A9.033,9.033,0,0,1-5.393-1.555L-6.8-1.961A16.666,16.666,0,0,0-10.691-11.1,13.626,13.626,0,0,1-7.545-12.5a1.484,1.484,0,0,0,1.357-.281c.773-.772.147-2.65-1.4-4.2s-3.425-2.171-4.2-1.4a1.483,1.483,0,0,0-.281,1.355,13.5,13.5,0,0,1-1.455,3.256,17.768,17.768,0,0,0-9.433-3.52A7.718,7.718,0,0,1-22-22.328a1.048,1.048,0,0,0,.53-.819c0-.78-1.258-1.411-2.809-1.411s-2.806.631-2.806,1.411a1.049,1.049,0,0,0,.529.819,7.706,7.706,0,0,1,.958,5.048,17.771,17.771,0,0,0-9.176,3.334,15.06,15.06,0,0,1-1.247-2.945,1.588,1.588,0,0,0-.3-1.455c-.833-.83-2.852-.158-4.513,1.5s-2.336,3.68-1.5,4.51a1.587,1.587,0,0,0,1.456.3,15.129,15.129,0,0,1,2.827,1.177A16.636,16.636,0,0,0-41.77-1.562a8.028,8.028,0,0,1-4.566-1.044,1.05,1.05,0,0,0-.82-.53c-.779,0-1.411,1.258-1.411,2.812s.632,2.811,1.411,2.811a1.052,1.052,0,0,0,.82-.53A8.024,8.024,0,0,1-41.77.913,16.622,16.622,0,0,0-38.054,10.2a15.1,15.1,0,0,1-2.829,1.177,1.585,1.585,0,0,0-1.454.3c-.833.832-.158,2.849,1.5,4.512s3.682,2.332,4.513,1.5a1.592,1.592,0,0,0,.3-1.457A15.007,15.007,0,0,1-34.772,13.3,17.772,17.772,0,0,0-25.6,16.632a7.7,7.7,0,0,1-.957,5.047,1.049,1.049,0,0,0-.529.819c0,.78,1.256,1.412,2.806,1.412s2.809-.632,2.809-1.412a1.05,1.05,0,0,0-.531-.82,7.708,7.708,0,0,1-.958-5.046,17.9,17.9,0,0,0,5.177-1.153,16.151,16.151,0,0,0,10.047,9.31C2.783,21.475,4.536,10.574,4.968,1.432Z"/>
    </g>
    <g id="그룹_792" data-name="그룹 792" transform="translate(24.291 41.248)">
      <path id="패스_1177" data-name="패스 1177" class="cls-4" d="M0,0A17.29,17.29,0,0,0,17.555-17.014C17.555-26.41,9.7-34.027,0-34.027S-17.555-26.41-17.555-17.014A17.29,17.29,0,0,0,0,0"/>
    </g>
    <g id="그룹_793" data-name="그룹 793" transform="translate(24.291 41.248)">
      <path id="패스_1178" data-name="패스 1178" class="cls-3" d="M0,0A17.29,17.29,0,0,0,17.555-17.014C17.555-26.41,9.7-34.027,0-34.027S-17.555-26.41-17.555-17.014A17.29,17.29,0,0,0,0,0Z"/>
    </g>
    <g id="그룹_794" data-name="그룹 794" transform="translate(25.732 7.779)">
      <path id="패스_1179" data-name="패스 1179" class="cls-5" d="M0,0A7.337,7.337,0,0,1,.831-5.556a1.044,1.044,0,0,0,.527-.816c0-.777-1.253-1.407-2.8-1.407s-2.8.63-2.8,1.407a1.044,1.044,0,0,0,.527.816A7.338,7.338,0,0,1-2.88,0"/>
    </g>
    <g id="그룹_795" data-name="그룹 795" transform="translate(22.85 40.689)">
      <path id="패스_1180" data-name="패스 1180" class="cls-5" d="M0,0A7.336,7.336,0,0,1-.828,5.555a1.047,1.047,0,0,0-.528.817c0,.777,1.252,1.407,2.8,1.407s2.8-.63,2.8-1.407a1.048,1.048,0,0,0-.529-.818A7.339,7.339,0,0,1,2.882,0"/>
    </g>
    <g id="그룹_796" data-name="그룹 796" transform="translate(7.797 22.796)">
      <path id="패스_1181" data-name="패스 1181" class="cls-5" d="M0,0A7.378,7.378,0,0,1-5.568-.828a1.05,1.05,0,0,0-.819-.526C-7.165-1.354-7.8-.1-7.8,1.438s.632,2.791,1.41,2.791A1.05,1.05,0,0,0-5.568,3.7,7.387,7.387,0,0,1,0,2.875"/>
    </g>
    <g id="그룹_797" data-name="그룹 797" transform="translate(40.786 25.671)">
      <path id="패스_1182" data-name="패스 1182" class="cls-5" d="M0,0A7.376,7.376,0,0,1,5.568.828a1.049,1.049,0,0,0,.819.526C7.165,1.354,7.8.1,7.8-1.437s-.632-2.792-1.41-2.792a1.049,1.049,0,0,0-.819.526A7.38,7.38,0,0,1,0-2.875"/>
    </g>
    <g id="그룹_798" data-name="그룹 798" transform="translate(17.597 14.465)">
      <path id="패스_1183" data-name="패스 1183" class="cls-5" d="M0,0C-3.07-1.548-4.474-4.889-5.048-6.8a1.588,1.588,0,0,0-.3-1.453c-.833-.828-2.851-.157-4.511,1.5s-2.335,3.671-1.5,4.5a1.587,1.587,0,0,0,1.455.3C-8-1.375-4.648.025-3.1,3.09"/>
    </g>
    <g id="그룹_799" data-name="그룹 799" transform="translate(32.1 35.084)">
      <path id="패스_1184" data-name="패스 1184" class="cls-5" d="M0,0C2.781,1.354,4.051,4.275,4.57,5.941a1.348,1.348,0,0,0,.274,1.27c.751.724,2.578.137,4.082-1.311s2.111-3.209,1.36-3.933A1.477,1.477,0,0,0,8.968,1.7C7.238,1.2,4.207-.021,2.8-2.7"/>
    </g>
    <g id="그룹_800" data-name="그룹 800" transform="translate(14.502 30.913)">
      <path id="패스_1185" data-name="패스 1185" class="cls-5" d="M0,0C-1.553,3.065-4.905,4.465-6.816,5.036a1.589,1.589,0,0,0-1.453.3c-.832.83-.158,2.844,1.5,4.5s3.68,2.327,4.511,1.5a1.589,1.589,0,0,0,.3-1.454C-1.38,7.977.025,4.636,3.1,3.088"/>
    </g>
    <g id="그룹_801" data-name="그룹 801" transform="translate(34.685 16.738)">
      <path id="패스_1186" data-name="패스 1186" class="cls-5" d="M0,0C1.443-2.851,4.558-4.154,6.335-4.686a1.49,1.49,0,0,0,1.357-.28c.772-.771.146-2.644-1.4-4.186S2.87-11.318,2.1-10.546a1.473,1.473,0,0,0-.281,1.351c-.533,1.774-1.839,4.882-4.7,6.321"/>
    </g>
    <g id="그룹_802" data-name="그룹 802" transform="translate(40.842 22.35)">
      <path id="패스_1187" data-name="패스 1187" class="cls-4" d="M0,0-12.693,3.659C-12.381,12.9-10.4,23.588,0,27c10.51-3.312,12.262-14.2,12.693-23.339Z"/>
    </g>
    <g id="그룹_803" data-name="그룹 803" transform="translate(40.842 22.35)">
      <path id="패스_1188" data-name="패스 1188" class="cls-3" d="M0,0-12.693,3.659C-12.381,12.9-10.4,23.588,0,27c10.51-3.312,12.262-14.2,12.693-23.339Z"/>
    </g>
    <g id="그룹_804" data-name="그룹 804" transform="translate(40.86 26.332)">
      <path id="패스_1189" data-name="패스 1189" class="cls-4" d="M0,0-8.817,2.58C-8.6,8.968-6.955,16.76,0,19.039,7.032,16.826,8.519,8.9,8.817,2.58Z"/>
    </g>
    <g id="그룹_805" data-name="그룹 805" transform="translate(40.86 26.332)">
      <path id="패스_1190" data-name="패스 1190" class="cls-3" d="M0,0-8.817,2.58C-8.6,8.968-6.955,16.76,0,19.039,7.032,16.826,8.519,8.9,8.817,2.58Z"/>
    </g>
  </g>
</svg>
