<svg xmlns="http://www.w3.org/2000/svg" width="48.001" height="47.131" viewBox="0 0 48.001 47.131">
  <defs>
    <style>
      .cls-1, .cls-2 {
        fill: #1e2323;
      }

      .cls-1 {
        font-size: 14px;
        font-family: NotoSansKR-Light, Noto Sans KR;
        font-weight: 300;
      }

      .cls-3 {
        fill: #fff;
      }

      .cls-4 {
        fill: none;
        stroke: #1e2323;
      }
    </style>
  </defs>
  <g id="구성_요소_64_1" data-name="구성 요소 64 – 1" transform="translate(0.575 0.5)">
    <text id="_" data-name=" " class="cls-1" transform="translate(0.428 20.637)"><tspan x="0" y="0"> </tspan></text>
    <text id="_2" data-name=" " class="cls-1" transform="translate(0.428 42.631)"><tspan x="0" y="0"> </tspan></text>
    <g id="그룹_827" data-name="그룹 827" transform="translate(9.573 13.036)">
      <path id="패스_1220" data-name="패스 1220" class="cls-2" d="M0,0,7.237-11.985H22.118L25.89-5.992l2.344-.7L24.157,1.1H14.78L16.716-.5,14.678-3.3,8.664,6.392Z"/>
    </g>
    <g id="그룹_828" data-name="그룹 828" transform="translate(39.379 14.349)">
      <path id="패스_1221" data-name="패스 1221" class="cls-2" d="M0,0,8.047,11.478,1.78,24.7l-7.135.828L-5.7,27.91l-5.494-6.9L-8.3,15.121l1.725-.055,3.447-.634L-9.565,5.008Z"/>
    </g>
    <g id="그룹_829" data-name="그룹 829" transform="translate(23.73 39.942)">
      <path id="패스_1222" data-name="패스 1222" class="cls-2" d="M0,0-14.2.5l-8.036-12.272,3.111-6.347L-21-19.67l8.893-.845,5.064,7.734-2.418-.735-1.3,3.192L.812-10.6Z"/>
    </g>
    <g id="그룹_830" data-name="그룹 830" transform="translate(8.079 12.047)">
      <path id="패스_1223" data-name="패스 1223" class="cls-3" d="M0,0,7.274-12.047H22.231l3.79,6.024,2.357-.7L24.28,1.1H14.855L16.8-.5,14.752-3.313,8.708,6.425Z"/>
    </g>
    <g id="그룹_831" data-name="그룹 831" transform="translate(8.079 12.047)">
      <path id="패스_1224" data-name="패스 1224" class="cls-4" d="M0,0,7.274-12.047H22.231l3.79,6.024,2.357-.7L24.28,1.1H14.855L16.8-.5,14.752-3.313,8.708,6.425Z"/>
    </g>
    <g id="그룹_832" data-name="그룹 832" transform="translate(37.95 13.28)">
      <path id="패스_1225" data-name="패스 1225" class="cls-3" d="M0,0,8.092,11.546l-6.3,13.3-7.175.834-.342,2.392-5.525-6.945,3.971-8.383.668,2.408,3.466-.638-6.472-9.48Z"/>
    </g>
    <g id="그룹_833" data-name="그룹 833" transform="translate(37.95 13.28)">
      <path id="패스_1226" data-name="패스 1226" class="cls-4" d="M0,0,8.092,11.546l-6.3,13.3-7.175.834-.342,2.392-5.525-6.945,3.971-8.383.668,2.408,3.466-.638-6.472-9.48Z"/>
    </g>
    <g id="그룹_834" data-name="그룹 834" transform="translate(22.342 38.959)">
      <path id="패스_1227" data-name="패스 1227" class="cls-3" d="M0,0-14.268.506l-8.074-12.315,3.125-6.367-1.875-1.562,8.934-.847,5.088,7.76-2.43-.737-1.307,3.2L.815-10.633Z"/>
    </g>
    <g id="그룹_835" data-name="그룹 835" transform="translate(22.342 38.959)">
      <path id="패스_1228" data-name="패스 1228" class="cls-4" d="M0,0-14.268.506l-8.074-12.315,3.125-6.367-1.875-1.562,8.934-.847,5.088,7.76-2.43-.737-1.307,3.2L.815-10.633Z"/>
    </g>
  </g>
</svg>
