<svg id="구성_요소_62_1" data-name="구성 요소 62 – 1" xmlns="http://www.w3.org/2000/svg" xmlns:xlink="http://www.w3.org/1999/xlink" width="63.55" height="61.292" viewBox="0 0 63.55 61.292">
  <defs>
    <style>
      .cls-1, .cls-5 {
        fill: none;
      }

      .cls-2 {
        clip-path: url(#clip-path);
      }

      .cls-3 {
        fill: #1e2323;
      }

      .cls-4, .cls-6 {
        fill: #fff;
      }

      .cls-5, .cls-6 {
        stroke: #1e2323;
      }
    </style>
    <clipPath id="clip-path">
      <path id="패스_2638" data-name="패스 2638" class="cls-1" d="M0,0H63.55V-61.292H0Z"/>
    </clipPath>
  </defs>
  <g id="그룹_2428" data-name="그룹 2428" class="cls-2" transform="translate(0 61.292)">
    <g id="그룹_2420" data-name="그룹 2420" transform="translate(58.868 -58.66)">
      <path id="패스_2630" data-name="패스 2630" class="cls-3" d="M0,0S-30.588.326-25.672,25.672C-.326,30.588,0,0,0,0"/>
    </g>
    <g id="그룹_2421" data-name="그룹 2421" transform="translate(13.532 -51.29)">
      <path id="패스_2631" data-name="패스 2631" class="cls-3" d="M0,0S23.089-.053,19.556,18.165C1.338,21.7,0,0,0,0"/>
    </g>
    <g id="그룹_2422" data-name="그룹 2422" transform="translate(13.62 -17.563)">
      <path id="패스_2632" data-name="패스 2632" class="cls-3" d="M0,0A5.571,5.571,0,0,0,5.571-5.57,5.572,5.572,0,0,0,0-11.143,5.572,5.572,0,0,0-5.571-5.57,5.571,5.571,0,0,0,0,0"/>
    </g>
    <g id="그룹_2423" data-name="그룹 2423" transform="translate(2.626)">
      <path id="패스_2633" data-name="패스 2633" class="cls-3" d="M0,0C.012-2.307.023-7.266.023-11.088c0-5.307,6.124-4.662,6.124-4.662H17.63l4.915-4.424,3.183-2.908s.88-1.32,2.494.146-.88,5.426-2.468,6.541L17.192-7.951,17.2,0"/>
    </g>
    <g id="그룹_2424" data-name="그룹 2424" transform="translate(52.556 -17.563)">
      <path id="패스_2634" data-name="패스 2634" class="cls-3" d="M0,0A5.571,5.571,0,0,1-5.571-5.57,5.572,5.572,0,0,1,0-11.143,5.572,5.572,0,0,1,5.571-5.57,5.571,5.571,0,0,1,0,0"/>
    </g>
    <g id="그룹_2425" data-name="그룹 2425" transform="translate(63.55)">
      <path id="패스_2635" data-name="패스 2635" class="cls-3" d="M0,0C-.012-2.307-.023-7.266-.023-11.088c0-5.307-6.124-4.662-6.124-4.662H-17.63l-4.915-4.424-3.183-2.908s-.88-1.32-2.494.146.88,5.426,2.468,6.541l8.562,8.444L-17.2,0"/>
    </g>
    <g id="그룹_2426" data-name="그룹 2426" transform="translate(56.742 -60.786)">
      <path id="패스_2636" data-name="패스 2636" class="cls-4" d="M0,0S-30.588.326-25.672,25.672C-.326,30.588,0,0,0,0"/>
    </g>
    <g id="그룹_2427" data-name="그룹 2427" transform="translate(56.742 -60.786)">
      <path id="패스_2637" data-name="패스 2637" class="cls-5" d="M0,0S-30.588.326-25.672,25.672C-.326,30.588,0,0,0,0Z"/>
    </g>
  </g>
  <g id="그룹_2429" data-name="그룹 2429" transform="translate(31.4 25.7)">
    <path id="패스_2639" data-name="패스 2639" class="cls-5" d="M0,0,10.327-10.327"/>
  </g>
  <g id="그룹_2432" data-name="그룹 2432" class="cls-2" transform="translate(0 61.292)">
    <g id="그룹_2430" data-name="그룹 2430" transform="translate(11.406 -53.416)">
      <path id="패스_2640" data-name="패스 2640" class="cls-4" d="M0,0S21.986.234,18.453,18.453C.234,21.986,0,0,0,0"/>
    </g>
    <g id="그룹_2431" data-name="그룹 2431" transform="translate(11.406 -53.416)">
      <path id="패스_2641" data-name="패스 2641" class="cls-5" d="M0,0S21.986.234,18.453,18.453C.234,21.986,0,0,0,0Z"/>
    </g>
  </g>
  <g id="그룹_2433" data-name="그룹 2433" transform="translate(29.652 26.014)">
    <path id="패스_2643" data-name="패스 2643" class="cls-5" d="M0,0-7.339-7.339"/>
  </g>
  <g id="그룹_2434" data-name="그룹 2434" transform="translate(30.393 21.26)">
    <path id="패스_2644" data-name="패스 2644" class="cls-5" d="M0,0V12.331"/>
  </g>
  <g id="그룹_2438" data-name="그룹 2438" class="cls-2" transform="translate(0 61.292)">
    <g id="그룹_2435" data-name="그룹 2435" transform="translate(11.494 -19.688)">
      <path id="패스_2645" data-name="패스 2645" class="cls-4" d="M0,0A5.571,5.571,0,0,0,5.571-5.57,5.572,5.572,0,0,0,0-11.143,5.572,5.572,0,0,0-5.571-5.57,5.571,5.571,0,0,0,0,0"/>
    </g>
    <g id="그룹_2436" data-name="그룹 2436" transform="translate(11.494 -19.688)">
      <path id="패스_2646" data-name="패스 2646" class="cls-5" d="M0,0A5.571,5.571,0,0,0,5.571-5.57,5.572,5.572,0,0,0,0-11.143,5.572,5.572,0,0,0-5.571-5.57,5.571,5.571,0,0,0,0,0Z"/>
    </g>
    <g id="그룹_2437" data-name="그룹 2437" transform="translate(0.5 -2.125)">
      <path id="패스_2647" data-name="패스 2647" class="cls-6" d="M0,0C.012-2.307.023-7.266.023-11.088c0-5.307,6.124-4.662,6.124-4.662H17.63l4.915-4.424,3.183-2.908s.88-1.32,2.494.146-.88,5.426-2.468,6.541L17.192-7.951,17.2,0"/>
    </g>
  </g>
  <g id="그룹_2439" data-name="그룹 2439" transform="translate(4.929 59.167)">
    <path id="패스_2649" data-name="패스 2649" class="cls-5" d="M0,0V-9.6"/>
  </g>
  <g id="그룹_2443" data-name="그룹 2443" class="cls-2" transform="translate(0 61.292)">
    <g id="그룹_2440" data-name="그룹 2440" transform="translate(50.43 -19.688)">
      <path id="패스_2650" data-name="패스 2650" class="cls-4" d="M0,0A5.571,5.571,0,0,1-5.571-5.57,5.572,5.572,0,0,1,0-11.143,5.572,5.572,0,0,1,5.571-5.57,5.571,5.571,0,0,1,0,0"/>
    </g>
    <g id="그룹_2441" data-name="그룹 2441" transform="translate(50.43 -19.688)">
      <path id="패스_2651" data-name="패스 2651" class="cls-5" d="M0,0A5.571,5.571,0,0,1-5.571-5.57,5.572,5.572,0,0,1,0-11.143,5.572,5.572,0,0,1,5.571-5.57,5.571,5.571,0,0,1,0,0Z"/>
    </g>
    <g id="그룹_2442" data-name="그룹 2442" transform="translate(61.424 -2.125)">
      <path id="패스_2652" data-name="패스 2652" class="cls-6" d="M0,0C-.012-2.307-.023-7.266-.023-11.088c0-5.307-6.124-4.662-6.124-4.662H-17.63l-4.915-4.424-3.183-2.908s-.88-1.32-2.494.146.88,5.426,2.468,6.541l8.562,8.444L-17.2,0"/>
    </g>
  </g>
  <g id="그룹_2444" data-name="그룹 2444" transform="translate(56.995 59.167)">
    <path id="패스_2654" data-name="패스 2654" class="cls-5" d="M0,0V-9.6"/>
  </g>
</svg>
