<svg xmlns="http://www.w3.org/2000/svg" width="150.646" height="155.287" viewBox="0 0 150.646 155.287">
  <defs>
    <style>
      .cls-1 {
        fill: #fff;
      }

      .cls-2 {
        fill: none;
        stroke: #000;
        stroke-miterlimit: 10;
        stroke-width: 1.05px;
      }

      .cls-3 {
        fill: #1e2323;
      }
    </style>
  </defs>
  <g id="구성_요소_9_1" data-name="구성 요소 9 – 1" transform="translate(0.525)">
    <g id="그룹_140" data-name="그룹 140" transform="translate(-1325.447 -1253.086)">
      <path id="패스_332" data-name="패스 332" d="M1475.567,1336.21a71.925,71.925,0,1,1-72.163-71.687,71.926,71.926,0,0,1,72.163,71.687"/>
      <path id="패스_333" data-name="패스 333" class="cls-1" d="M1391.938,1259.067q2.256-.15,4.549-.158a71.206,71.206,0,1,1-10.006.73"/>
      <path id="패스_334" data-name="패스 334" class="cls-2" d="M1391.938,1259.067q2.256-.15,4.549-.158a71.2,71.2,0,1,1-12.255,1.091"/>
    </g>
    <path id="패스_335" data-name="패스 335" d="M1379.163,1269.91l-1.713-1.218,6.012-8.431-8.849-5.38,1.094-1.8,10.775,6.555Z" transform="translate(-1325.447 -1253.086)"/>
    <path id="패스_8738" data-name="패스 8738" class="cls-3" d="M2.5,0H4.7V-9.625c0-1.925-.175-3.875-.275-5.725h.1L6.5-11.575,13.175,0H15.55V-18.325h-2.2V-8.8c0,1.9.175,3.95.3,5.8h-.125l-1.95-3.775L4.9-18.325H2.5ZM20.075,0h10.85V-1.975H22.4V-8.65h6.95v-1.975H22.4v-5.75h8.25v-1.95H20.075ZM38.1,0h2.325V-16.375h5.55v-1.95H32.55v1.95H38.1Z" transform="translate(50.113 79.972)"/>
    <path id="패스_8739" data-name="패스 8739" class="cls-3" d="M1.25,0H13.875V-1.975H4.1l9.675-15v-1.35H2.125v1.95h8.8l-9.675,15ZM17.075,0h10.85V-1.975H19.4V-8.65h6.95v-1.975H19.4v-5.75h8.25v-1.95H17.075ZM33.6-16.45h3.075c2.875,0,4.45.85,4.45,3.275,0,2.375-1.575,3.525-4.45,3.525H33.6ZM43.975,0l-4.7-8.025a4.97,4.97,0,0,0,4.15-5.15c0-3.825-2.675-5.15-6.4-5.15h-5.75V0H33.6V-7.775h3.3L41.35,0Zm9.45.325c4.6,0,7.825-3.675,7.825-9.55s-3.225-9.45-7.825-9.45S45.6-15.1,45.6-9.225,48.825.325,53.425.325Zm0-2.025c-3.3,0-5.45-2.95-5.45-7.525,0-4.6,2.15-7.425,5.45-7.425,3.275,0,5.45,2.825,5.45,7.425C58.875-4.65,56.7-1.7,53.425-1.7Z" transform="translate(42.113 106.972)"/>
    <path id="패스_8740" data-name="패스 8740" class="cls-3" d="M7.436-6.526a24.393,24.393,0,0,1-5.174.4V-9.165h4.1v-.858H1.209v4.758h.9a25.1,25.1,0,0,0,5.46-.416ZM3.406-1.365H9.737V-4.238H2.327v.845H8.684v1.222H2.366V.806h7.8V-.052H3.406ZM9.737-8.242V-10.7H8.671v5.863H9.737V-7.371h1.729v-.871ZM20.995-3.8h1.079v-6.89H20.995v2.47H18.46v.871h2.535Zm-1.69-1.378a4,4,0,0,1-2.834-3.705v-1.157H15.4v1.2a4.249,4.249,0,0,1-2.951,3.978l.559.871a4.931,4.931,0,0,0,2.951-2.964,4.773,4.773,0,0,0,2.769,2.613ZM18.226.1C16.471.1,15.4-.4,15.4-1.248s1.066-1.365,2.821-1.365,2.821.507,2.821,1.365S19.981.1,18.226.1Zm0-3.549c-2.392,0-3.887.793-3.887,2.2s1.495,2.2,3.887,2.2S22.1.143,22.1-1.248,20.618-3.445,18.226-3.445Z" transform="translate(61.613 125.972)"/>
    <path id="패스_8737" data-name="패스 8737" class="cls-3" d="M7.306-5.031a25.929,25.929,0,0,1-5.018.338V-6.435H6.344V-7.28H2.288V-8.9H6.552v-.858H1.222v5.915h.884a26.732,26.732,0,0,0,5.317-.338Zm-3.757,2.2H2.483V.7h7.774V-.169H3.549ZM9.737-7.072V-10.7H8.671v8.645H9.737V-6.188h1.729v-.884ZM22.529-5.005c-2.041-.364-4.264-2.08-4.264-4.017v-.9H17.147v.9c0,1.937-2.21,3.653-4.251,4.017l.442.884a6.286,6.286,0,0,0,4.368-3.25,6.313,6.313,0,0,0,4.368,3.25ZM18.239-1.43V-4.264H17.173V-1.43H12.467v.871H23.049V-1.43Zm12.6-1.391H28.392V-5.9h2.444Zm0-3.926H28.392V-9.594H27.378v7.631h4.459V-9.594h-1ZM35.854-10.7v4.615H34.281v-4.355h-1V.39h1v-5.6h1.573V.962h1.014V-10.7Zm3.757,4.654C41.574-6.2,43.3-6.8,44.018-7.878,44.733-6.8,46.449-6.2,48.4-6.045l.325-.806c-2.171-.143-3.926-.858-4.108-2.015H48.2v-.806H44.551v-1.105H43.485v1.105H39.819v.806h3.6c-.182,1.157-1.963,1.872-4.121,2.015ZM49.27-4.706v-.819H38.753v.819h4.719v1.079H40v.793h6.877v.988H40.04V.832h8.242V.026h-7.2v-1.1h6.851V-3.627h-3.38V-4.706Zm8.1-.871a28.538,28.538,0,0,1-5.3.377V-6.812h4.173V-9.971H50.986V-9.1h4.2v1.469H51.012v3.3h.923a30.907,30.907,0,0,0,5.538-.377ZM55.835.13c-1.742,0-2.8-.481-2.8-1.3s1.053-1.3,2.8-1.3,2.782.481,2.782,1.3S57.577.13,55.835.13Zm0-3.432C53.456-3.3,52-2.522,52-1.17S53.456.949,55.835.949,59.67.182,59.67-1.17,58.2-3.3,55.835-3.3Zm5.447-4.693v-.884H59.553v-1.807H58.487V-3.64h1.066v-1.9h1.729v-.884H59.553V-7.995Z" transform="translate(42.243 45.582)"/>
  </g>
</svg>
