<svg id="구성_요소_60_1" data-name="구성 요소 60 – 1" xmlns="http://www.w3.org/2000/svg" xmlns:xlink="http://www.w3.org/1999/xlink" width="80.892" height="73.925" viewBox="0 0 80.892 73.925">
  <defs>
    <style>
      .cls-1, .cls-5 {
        fill: none;
      }

      .cls-2 {
        clip-path: url(#clip-path);
      }

      .cls-3 {
        fill: #1e2323;
      }

      .cls-4, .cls-6 {
        fill: #fff;
      }

      .cls-5, .cls-6 {
        stroke: #1e2323;
      }
    </style>
    <clipPath id="clip-path">
      <path id="패스_2567" data-name="패스 2567" class="cls-1" d="M0,0H80.892V-73.925H0Z"/>
    </clipPath>
  </defs>
  <g id="그룹_2355" data-name="그룹 2355" class="cls-2" transform="translate(0 73.925)">
    <g id="그룹_2350" data-name="그룹 2350" transform="translate(61.45 -68.364)">
      <path id="패스_2562" data-name="패스 2562" class="cls-3" d="M0,0S-21.8.232-18.292,18.292C-.232,21.8,0,0,0,0"/>
    </g>
    <g id="그룹_2351" data-name="그룹 2351" transform="translate(21.88 -54.905)">
      <path id="패스_2563" data-name="패스 2563" class="cls-3" d="M0,0S21.711-1.859,19.956,16.466C2.32,21.687,0,0,0,0"/>
    </g>
    <g id="그룹_2352" data-name="그룹 2352" transform="translate(34.676 -67.357)">
      <path id="패스_2564" data-name="패스 2564" class="cls-3" d="M0,0A2.462,2.462,0,0,0,2.462-2.462,2.462,2.462,0,0,0,0-4.924,2.462,2.462,0,0,0-2.462-2.462,2.462,2.462,0,0,0,0,0"/>
    </g>
    <g id="그룹_2353" data-name="그룹 2353" transform="translate(59.707 -69.512)">
      <path id="패스_2565" data-name="패스 2565" class="cls-4" d="M0,0S-22.285.15-18.631,18.631C-.149,22.285,0,0,0,0"/>
    </g>
    <g id="그룹_2354" data-name="그룹 2354" transform="translate(59.707 -69.512)">
      <path id="패스_2566" data-name="패스 2566" class="cls-5" d="M0,0S-22.285.15-18.631,18.631C-.149,22.285,0,0,0,0Z"/>
    </g>
  </g>
  <g id="그룹_2356" data-name="그룹 2356" transform="translate(41.395 22.616)">
    <path id="패스_2568" data-name="패스 2568" class="cls-5" d="M0,0,7.165-7.165"/>
  </g>
  <g id="그룹_2359" data-name="그룹 2359" class="cls-2" transform="translate(0 73.925)">
    <g id="그룹_2357" data-name="그룹 2357" transform="translate(19.752 -56.035)">
      <path id="패스_2569" data-name="패스 2569" class="cls-4" d="M0,0S22.191-1.988,20.325,16.771C2.284,22.184,0,0,0,0"/>
    </g>
    <g id="그룹_2358" data-name="그룹 2358" transform="translate(19.752 -56.035)">
      <path id="패스_2570" data-name="패스 2570" class="cls-5" d="M0,0S22.191-1.988,20.325,16.771C2.284,22.184,0,0,0,0Z"/>
    </g>
  </g>
  <g id="그룹_2360" data-name="그룹 2360" transform="translate(39.581 34.404)">
    <path id="패스_2572" data-name="패스 2572" class="cls-5" d="M0,0-7.534-6.729"/>
  </g>
  <g id="그룹_2364" data-name="그룹 2364" class="cls-2" transform="translate(0 73.925)">
    <g id="그룹_2361" data-name="그룹 2361" transform="translate(41.881 -25.823)">
      <path id="패스_2573" data-name="패스 2573" class="cls-5" d="M0,0S2.274-32.157-5.374-38.455"/>
    </g>
    <g id="그룹_2362" data-name="그룹 2362" transform="translate(33.712 -68.14)">
      <path id="패스_2574" data-name="패스 2574" class="cls-4" d="M0,0A2.642,2.642,0,0,0,2.642-2.642,2.642,2.642,0,0,0,0-5.284,2.642,2.642,0,0,0-2.642-2.642,2.642,2.642,0,0,0,0,0"/>
    </g>
    <g id="그룹_2363" data-name="그룹 2363" transform="translate(33.712 -68.14)">
      <path id="패스_2575" data-name="패스 2575" class="cls-5" d="M0,0A2.642,2.642,0,0,0,2.642-2.642,2.642,2.642,0,0,0,0-5.284,2.642,2.642,0,0,0-2.642-2.642,2.642,2.642,0,0,0,0,0Z"/>
    </g>
  </g>
  <g id="그룹_2365" data-name="그룹 2365" transform="translate(65.476 40.619)">
    <path id="패스_2577" data-name="패스 2577" class="cls-3" d="M0,0-10.119,4.857l-10.37,5.089L-7.42,21.405,6.69,14.418Z"/>
  </g>
  <g id="그룹_2366" data-name="그룹 2366" transform="translate(47.693 57.097)">
    <path id="패스_2578" data-name="패스 2578" class="cls-3" d="M0,0,7.664,3.509,6.122,8.426l-2.13.058-.624.192v1.65L2.421,11.9l-1.388.1L-2.706,10.97-5.6,8.426Z"/>
  </g>
  <g id="그룹_2367" data-name="그룹 2367" transform="translate(61.263 38.397)">
    <path id="패스_2579" data-name="패스 2579" class="cls-3" d="M0,0,11.347,20.6l8.282-4.624L8.283-4.625Z"/>
  </g>
  <g id="그룹_2376" data-name="그룹 2376" class="cls-2" transform="translate(0 73.925)">
    <g id="그룹_2368" data-name="그룹 2368" transform="translate(47.167 -5.202)">
      <path id="패스_2580" data-name="패스 2580" class="cls-3" d="M0,0S1.411,2.086-.091,3.513c-1.442,1.371-6.5-2.1-6.486-2.043.1.11-16.515-9.759-16.515-9.759l-9.831-4.587,6.678-14.009,6.683,2.839s.231.53,4.494-.318,9.758-.02,12.524,1.465,1.908,5.861,1.908,5.861a4.451,4.451,0,0,1,.838.311l1.656,1.081L4.07-14.2,6.38-12.7c1.2.782,2.45,1.519,3.579,2.4.3.239.6.489.884.751s.541.517.795.791q.347.373.665.77a2.4,2.4,0,0,1,.725,2,1.975,1.975,0,0,1-.943,1.033,2,2,0,0,1-.911.294,4.475,4.475,0,0,1-2.365-.807c-.672-.386-1.318-.816-1.961-1.249A28.408,28.408,0,0,0,2.629-9.275"/>
    </g>
    <g id="그룹_2369" data-name="그룹 2369" transform="translate(50.406 -8.517)">
      <path id="패스_2581" data-name="패스 2581" class="cls-3" d="M0,0S1.408,1.936-.091,3.365-4.2,2.73-6.361,1.459"/>
    </g>
    <g id="그룹_2370" data-name="그룹 2370" transform="translate(53.507 -12.257)">
      <path id="패스_2582" data-name="패스 2582" class="cls-3" d="M0,0S1.684,2.288.185,3.717s-4.106-.635-6.27-1.906"/>
    </g>
    <g id="그룹_2371" data-name="그룹 2371" transform="translate(29.448 -15.439)">
      <path id="패스_2583" data-name="패스 2583" class="cls-3" d="M0,0S-1.817-1.885-4.542,1.086a2.484,2.484,0,0,0,.057,3.542C-2.725,6.4-.852,3.714-.852,3.714S1.192,1.771,0,0"/>
    </g>
    <g id="그룹_2372" data-name="그룹 2372" transform="translate(32.746 -12.05)">
      <path id="패스_2584" data-name="패스 2584" class="cls-3" d="M0,0S-1.817-1.885-4.542,1.086a2.484,2.484,0,0,0,.057,3.542C-2.725,6.4-.852,3.714-.852,3.714S1.192,1.771,0,0"/>
    </g>
    <g id="그룹_2373" data-name="그룹 2373" transform="translate(36.14 -8.642)">
      <path id="패스_2585" data-name="패스 2585" class="cls-3" d="M0,0S-1.817-1.885-4.542,1.086a2.484,2.484,0,0,0,.057,3.542C-2.725,6.4-.852,3.714-.852,3.714S1.192,1.771,0,0"/>
    </g>
    <g id="그룹_2374" data-name="그룹 2374" transform="translate(39.636 -5.232)">
      <path id="패스_2586" data-name="패스 2586" class="cls-3" d="M0,0S-1.817-1.885-4.542,1.086a2.484,2.484,0,0,0,.057,3.542C-2.725,6.4-.852,3.714-.852,3.714S1.192,1.771,0,0"/>
    </g>
    <g id="그룹_2375" data-name="그룹 2375" transform="translate(63.166 -31.879)">
      <path id="패스_2587" data-name="패스 2587" class="cls-3" d="M0,0-4.342,2.162a9.16,9.16,0,0,1-7.047.8c-4.044-1.144-5.892-.343-9.7,3.433s-4.737,4.92-3.235,6.407,2.773.915,3.813-.114S-15.2,8.112-15.2,8.112"/>
    </g>
  </g>
  <g id="그룹_2377" data-name="그룹 2377" transform="translate(23.479 38.396)">
    <path id="패스_2589" data-name="패스 2589" class="cls-3" d="M0,0-11.347,20.6l-8.282-4.625,11.347-20.6Z"/>
  </g>
  <g id="그룹_2378" data-name="그룹 2378" transform="translate(62.549 39.191)">
    <path id="패스_2590" data-name="패스 2590" class="cls-4" d="M0,0-10.119,4.857l-10.37,5.089L-7.42,21.405,6.69,14.418Z"/>
  </g>
  <g id="그룹_2379" data-name="그룹 2379" transform="translate(44.766 55.669)">
    <path id="패스_2591" data-name="패스 2591" class="cls-4" d="M0,0,7.664,3.509,6.122,8.426l-2.13.058-.623.192v1.65L2.421,11.9l-1.388.1L-2.706,10.97-5.6,8.426Z"/>
  </g>
  <g id="그룹_2380" data-name="그룹 2380" transform="translate(67.737 54.328)">
    <path id="패스_2592" data-name="패스 2592" class="cls-5" d="M0,0-10.376,5.832"/>
  </g>
  <g id="그룹_2381" data-name="그룹 2381" transform="translate(58.093 36.898)">
    <path id="패스_2593" data-name="패스 2593" class="cls-4" d="M0,0,11.52,20.915l8.6-4.8L8.6-4.8Z"/>
  </g>
  <g id="그룹_2382" data-name="그룹 2382" transform="translate(58.093 36.898)">
    <path id="패스_2594" data-name="패스 2594" class="cls-5" d="M0,0,11.52,20.915l8.6-4.8L8.6-4.8Z"/>
  </g>
  <g id="그룹_2395" data-name="그룹 2395" class="cls-2" transform="translate(0 73.925)">
    <g id="그룹_2383" data-name="그룹 2383" transform="translate(44.3 -6.501)">
      <path id="패스_2595" data-name="패스 2595" class="cls-6" d="M0,0S1.424,2.114-.092,3.56C-1.547,4.949-6.648,1.43-6.637,1.49-6.538,1.6-23.3-8.4-23.3-8.4l-9.921-4.649,6.739-14.2,6.745,2.878s.232.537,4.535-.323,9.847-.02,12.638,1.484,1.926,5.94,1.926,5.94a4.465,4.465,0,0,1,.845.316l1.672,1.1,2.232,1.462,2.332,1.528c1.21.792,2.472,1.539,3.611,2.434q.462.363.893.761t.8.8q.349.378.671.78a2.438,2.438,0,0,1,.732,2.031A2,2,0,0,1,12.2-5.012a2.01,2.01,0,0,1-.92.3A4.512,4.512,0,0,1,8.89-5.531C8.212-5.922,7.56-6.358,6.911-6.8A28.72,28.72,0,0,0,2.653-9.4"/>
    </g>
    <g id="그룹_2384" data-name="그룹 2384" transform="translate(47.636 -10.058)">
      <path id="패스_2596" data-name="패스 2596" class="cls-5" d="M0,0S1.461,2.083-.094,3.621-4.356,2.937-6.6,1.57"/>
    </g>
    <g id="그룹_2385" data-name="그룹 2385" transform="translate(50.729 -13.797)">
      <path id="패스_2597" data-name="패스 2597" class="cls-5" d="M0,0S1.749,2.447.193,3.975-4.072,3.3-6.32,1.937"/>
    </g>
    <g id="그룹_2386" data-name="그룹 2386" transform="translate(26.676 -17.01)">
      <path id="패스_2598" data-name="패스 2598" class="cls-4" d="M0,0S-1.932-2-4.831,1.153A2.634,2.634,0,0,0-4.77,4.914C-2.9,6.8-.906,3.943-.906,3.943S1.268,1.881,0,0"/>
    </g>
    <g id="그룹_2387" data-name="그룹 2387" transform="translate(26.676 -17.01)">
      <path id="패스_2599" data-name="패스 2599" class="cls-5" d="M0,0S-1.932-2-4.831,1.153A2.634,2.634,0,0,0-4.77,4.914C-2.9,6.8-.906,3.943-.906,3.943S1.268,1.881,0,0Z"/>
    </g>
    <g id="그룹_2388" data-name="그룹 2388" transform="translate(29.975 -13.621)">
      <path id="패스_2600" data-name="패스 2600" class="cls-4" d="M0,0S-1.932-2-4.831,1.153A2.634,2.634,0,0,0-4.77,4.914C-2.9,6.8-.906,3.943-.906,3.943S1.268,1.881,0,0"/>
    </g>
    <g id="그룹_2389" data-name="그룹 2389" transform="translate(29.975 -13.621)">
      <path id="패스_2601" data-name="패스 2601" class="cls-5" d="M0,0S-1.932-2-4.831,1.153A2.634,2.634,0,0,0-4.77,4.914C-2.9,6.8-.906,3.943-.906,3.943S1.268,1.881,0,0Z"/>
    </g>
    <g id="그룹_2390" data-name="그룹 2390" transform="translate(33.368 -10.213)">
      <path id="패스_2602" data-name="패스 2602" class="cls-4" d="M0,0S-1.932-2-4.831,1.153A2.634,2.634,0,0,0-4.77,4.914C-2.9,6.8-.906,3.943-.906,3.943S1.268,1.881,0,0"/>
    </g>
    <g id="그룹_2391" data-name="그룹 2391" transform="translate(33.368 -10.213)">
      <path id="패스_2603" data-name="패스 2603" class="cls-5" d="M0,0S-1.932-2-4.831,1.153A2.634,2.634,0,0,0-4.77,4.914C-2.9,6.8-.906,3.943-.906,3.943S1.268,1.881,0,0Z"/>
    </g>
    <g id="그룹_2392" data-name="그룹 2392" transform="translate(36.864 -6.803)">
      <path id="패스_2604" data-name="패스 2604" class="cls-4" d="M0,0S-1.932-2-4.831,1.153A2.634,2.634,0,0,0-4.77,4.914C-2.9,6.8-.906,3.943-.906,3.943S1.268,1.881,0,0"/>
    </g>
    <g id="그룹_2393" data-name="그룹 2393" transform="translate(36.864 -6.803)">
      <path id="패스_2605" data-name="패스 2605" class="cls-5" d="M0,0S-1.932-2-4.831,1.153A2.634,2.634,0,0,0-4.77,4.914C-2.9,6.8-.906,3.943-.906,3.943S1.268,1.881,0,0Z"/>
    </g>
    <g id="그룹_2394" data-name="그룹 2394" transform="translate(60.317 -33.47)">
      <path id="패스_2606" data-name="패스 2606" class="cls-6" d="M0,0-4.387,2.216a9.142,9.142,0,0,1-7.12.821c-4.085-1.173-5.953-.352-9.805,3.518S-26.1,11.6-24.58,13.123s2.8.938,3.852-.117,5.369-4.691,5.369-4.691"/>
    </g>
  </g>
  <g id="그룹_2396" data-name="그룹 2396" transform="translate(0.678 53.013)">
    <path id="패스_2608" data-name="패스 2608" class="cls-4" d="M0,0,8.6,4.8l11.52-20.916-8.6-4.8Z"/>
  </g>
  <g id="그룹_2398" data-name="그룹 2398" class="cls-2" transform="translate(0 73.925)">
    <g id="그룹_2397" data-name="그룹 2397" transform="translate(20.794 -37.027)">
      <path id="패스_2609" data-name="패스 2609" class="cls-5" d="M0,0-11.52,20.915l-8.6-4.8L-8.6-4.8Z"/>
    </g>
  </g>
</svg>
