<svg id="구성_요소_54_1" data-name="구성 요소 54 – 1" xmlns="http://www.w3.org/2000/svg" xmlns:xlink="http://www.w3.org/1999/xlink" width="836" height="608" viewBox="0 0 836 608">
  <defs>
    <style>
      .cls-1, .cls-15, .cls-16, .cls-4, .cls-5 {
        fill: none;
      }

      .cls-2 {
        fill: #f4f7f7;
      }

      .cls-3 {
        fill: #0a5049;
      }

      .cls-4, .cls-5 {
        stroke: #42454a;
      }

      .cls-5 {
        stroke-width: 3px;
      }

      .cls-17, .cls-6 {
        fill: #fff;
      }

      .cls-7 {
        fill: #206a5a;
      }

      .cls-13, .cls-8, .cls-9 {
        fill: #1e2323;
      }

      .cls-13, .cls-9 {
        font-size: 16px;
        font-family: NotoSansKR-Light, Noto Sans KR;
        font-weight: 300;
      }

      .cls-10 {
        clip-path: url(#clip-path);
      }

      .cls-11 {
        fill: #92bb48;
      }

      .cls-12 {
        fill: #2b2e34;
      }

      .cls-13 {
        letter-spacing: -0.02em;
      }

      .cls-14 {
        fill: #37786a;
      }

      .cls-15 {
        stroke: #5e6366;
        stroke-width: 0.5px;
      }

      .cls-16, .cls-17 {
        stroke: #1e2323;
      }
    </style>
    <clipPath id="clip-path">
      <path id="패스_2707" data-name="패스 2707" class="cls-1" d="M0,0H836V-608H0Z"/>
    </clipPath>
  </defs>
  <path id="패스_2698" data-name="패스 2698" class="cls-2" d="M0,0H836V-608H0Z" transform="translate(0 608)"/>
  <g id="그룹" transform="translate(0 608)">
    <path id="패스_8741" data-name="패스 8741" class="cls-3" d="M9.826-12.92H6.511v-1.343H4.267v1.343H.935v1.6H9.826ZM3.689-8.483c0-.612.646-.935,1.7-.935s1.683.323,1.683.935c0,.6-.629.918-1.683.918S3.689-7.888,3.689-8.483Zm6.528,2.771c-1.19.17-2.431.272-3.706.357v-.8C8.16-6.409,9.2-7.259,9.2-8.483c0-1.513-1.513-2.431-3.808-2.431-2.312,0-3.825.918-3.825,2.431,0,1.224,1.037,2.074,2.7,2.329v.9C2.924-5.2,1.649-5.2.544-5.2L.782-3.485a56.017,56.017,0,0,0,9.605-.7ZM4.964-2.737H2.72V1.19H13.668V-.6h-8.7Zm8.177-6.341v-5.134H10.9v12.24h2.244v-5.27h1.972V-9.078Zm13.736-.85v1.445H23.426v1.8h3.451v1.5h2.244v-9.01H26.877v2.482H24.072a9.736,9.736,0,0,0,.1-1.428H17v1.8h4.726c-.289,2.125-2.006,3.808-5.576,4.76l.867,1.768c3.451-.969,5.644-2.652,6.613-5.117ZM23.953-.357c-1.938,0-3.077-.493-3.077-1.445s1.139-1.445,3.077-1.445c1.921,0,3.06.493,3.06,1.445S25.874-.357,23.953-.357Zm0-4.624c-3.2,0-5.287,1.224-5.287,3.179s2.091,3.179,5.287,3.179c3.179,0,5.27-1.224,5.27-3.179S27.132-4.981,23.953-4.981ZM38.4-12.325c2.278,0,3.349.323,3.349,1.02,0,.731-1.071,1.037-3.349,1.037-2.261,0-3.332-.306-3.332-1.037C35.071-12,36.142-12.325,38.4-12.325Zm0,3.689c3.587,0,5.678-.935,5.678-2.669,0-1.717-2.091-2.669-5.678-2.669-3.57,0-5.661.952-5.661,2.669C32.742-9.571,34.833-8.636,38.4-8.636ZM35.19-1.224h8.568V-5.253H32.946V-3.6h8.6v.833H32.963V1.343h11.2V-.34H35.19ZM31.331-7.888v1.751H45.475V-7.888ZM58.293-9.639V-7.82H61v5.066H63.24V-14.195H61v4.556Zm-7.14-3.383v1.785h4.879c-.374,2.3-2.431,4.165-5.695,5.185l.918,1.8c4.556-1.445,7.174-4.539,7.174-8.772ZM55.25-.6V-3.876H53.006V1.19H63.631V-.6Zm10.812-12.58v1.785h4.947c-.34,2.142-2.261,3.91-5.678,4.828l.9,1.8c4.624-1.292,7.242-4.2,7.242-8.415Zm6.63,12.9c-1.9,0-3.043-.493-3.043-1.462S70.788-3.2,72.692-3.2s3.043.493,3.043,1.462S74.6-.272,72.692-.272Zm0-4.675c-3.162,0-5.253,1.258-5.253,3.213,0,1.972,2.091,3.213,5.253,3.213S77.945.238,77.945-1.734C77.945-3.689,75.854-4.947,72.692-4.947Zm5.083-5.593v-3.672H75.531v9.061h2.244V-8.687h2.074V-10.54Zm7.5,6.97a1.767,1.767,0,0,1-1.836-1.9,1.781,1.781,0,0,1,1.836-1.921,1.764,1.764,0,0,1,1.819,1.9A1.76,1.76,0,0,1,85.272-3.57Zm0-5.644a3.734,3.734,0,0,0-3.978,3.723,3.741,3.741,0,0,0,3.978,3.757,3.722,3.722,0,0,0,3.944-3.757A3.715,3.715,0,0,0,85.272-9.214Zm1.105-4.709H84.133v2.04H80.665V-10.1h9.112v-1.785h-3.4Zm8.908,5.848H93.041v-6.12H90.8V1.462h2.244V-6.222h2.244Zm8.806-.136H102.34a14.64,14.64,0,0,0,.51-4.131H96.713v1.785h3.91c-.272,3.06-1.649,5.321-4.777,7.191l1.275,1.581a10.983,10.983,0,0,0,4.522-4.624h2.448V.765h2.091v-14.62h-2.091Zm3.3-6V1.445h2.125V-14.212Zm13.243,1.224h-2.261v2.278c0,2.907-1.19,5.9-3.825,7.14l1.343,1.819a7.467,7.467,0,0,0,3.621-4.5,7.13,7.13,0,0,0,3.383,4.216l1.36-1.768c-2.516-1.241-3.621-4.08-3.621-6.9ZM129.4-8.177h-2.278v-6.018h-2.244V1.462h2.244V-6.307H129.4Zm9.775.459a33.683,33.683,0,0,1-6.222.476V-8.653h4.9v-4.76h-7.14v1.785h4.93v1.309H130.73V-5.44h1.343a37.7,37.7,0,0,0,7.293-.476ZM134.5-2.465h5.8V-.476h-5.8Zm-2.21,3.757h10.2V-4.233h-10.2Zm12.274-11.8h-2.074v-3.689H140.25v9.316h2.244V-8.67h2.074Zm7.973-1.819c2.278,0,3.349.323,3.349,1.02,0,.731-1.071,1.037-3.349,1.037-2.261,0-3.332-.306-3.332-1.037C149.209-12,150.28-12.325,152.541-12.325Zm0,3.689c3.587,0,5.678-.935,5.678-2.669,0-1.717-2.091-2.669-5.678-2.669-3.57,0-5.661.952-5.661,2.669C146.88-9.571,148.971-8.636,152.541-8.636Zm-3.213,7.412H157.9V-5.253H147.084V-3.6h8.6v.833H147.1V1.343h11.2V-.34h-8.976Zm-3.859-6.664v1.751h14.144V-7.888Zm28.883-.629h1.156V-4.4h2.125v-9.792h-2.125v3.859h-1.156v-3.57h-2.091V-4.9h2.091Zm-2.516-4.08h-2.72v-1.428h-2.21V-12.6h-2.7v1.734h7.633Zm-5.185,4.964c0-.731.561-1.122,1.394-1.122s1.377.391,1.377,1.122-.544,1.139-1.377,1.139S166.651-6.9,166.651-7.633Zm4.76,0c0-1.615-1.394-2.72-3.366-2.72-1.989,0-3.383,1.105-3.383,2.72S166.056-4.9,168.045-4.9C170.017-4.9,171.411-6.018,171.411-7.633ZM172.329-.2c-2.091,0-3.145-.357-3.145-1.173s1.054-1.173,3.145-1.173,3.145.357,3.145,1.173S174.42-.2,172.329-.2Zm0-4.029c-3.366,0-5.389,1.037-5.389,2.856s2.023,2.839,5.389,2.839,5.389-1.02,5.389-2.839S175.7-4.233,172.329-4.233Zm8.823,2.414h8.636v3.3h2.244V-3.6h-10.88Zm2.465-8.908h6.1V-9.5h-6.1Zm4.148,4.267V-7.752h4.182v-6.035H189.72v1.377h-6.1v-1.377H181.39v6.035h4.131V-6.46h-5.933v1.785h14.161V-6.46ZM199.41-3.57a1.767,1.767,0,0,1-1.836-1.9,1.781,1.781,0,0,1,1.836-1.921,1.764,1.764,0,0,1,1.819,1.9A1.76,1.76,0,0,1,199.41-3.57Zm0-5.644a3.734,3.734,0,0,0-3.978,3.723,3.741,3.741,0,0,0,3.978,3.757,3.722,3.722,0,0,0,3.944-3.757A3.715,3.715,0,0,0,199.41-9.214Zm1.1-4.709h-2.244v2.04H194.8V-10.1h9.112v-1.785h-3.4Zm8.908,5.848h-2.244v-6.12h-2.244V1.462h2.244V-6.222h2.244Zm8.806-.136h-1.751a14.64,14.64,0,0,0,.51-4.131h-6.137v1.785h3.91c-.272,3.06-1.649,5.321-4.777,7.191l1.275,1.581a10.983,10.983,0,0,0,4.522-4.624h2.448V.765h2.091v-14.62h-2.091Zm3.3-6V1.445h2.125V-14.212Z" transform="translate(315.619 -543.04)"/>
    <path id="패스_8742" data-name="패스 8742" class="cls-3" d="M9.826-12.92H6.511v-1.343H4.267v1.343H.935v1.6H9.826ZM3.689-8.483c0-.612.646-.935,1.7-.935s1.683.323,1.683.935c0,.6-.629.918-1.683.918S3.689-7.888,3.689-8.483Zm6.528,2.771c-1.19.17-2.431.272-3.706.357v-.8C8.16-6.409,9.2-7.259,9.2-8.483c0-1.513-1.513-2.431-3.808-2.431-2.312,0-3.825.918-3.825,2.431,0,1.224,1.037,2.074,2.7,2.329v.9C2.924-5.2,1.649-5.2.544-5.2L.782-3.485a56.017,56.017,0,0,0,9.605-.7ZM4.964-2.737H2.72V1.19H13.668V-.6h-8.7Zm8.177-6.341v-5.134H10.9v12.24h2.244v-5.27h1.972V-9.078Zm13.736-.85v1.445H23.426v1.8h3.451v1.5h2.244v-9.01H26.877v2.482H24.072a9.736,9.736,0,0,0,.1-1.428H17v1.8h4.726c-.289,2.125-2.006,3.808-5.576,4.76l.867,1.768c3.451-.969,5.644-2.652,6.613-5.117ZM23.953-.357c-1.938,0-3.077-.493-3.077-1.445s1.139-1.445,3.077-1.445c1.921,0,3.06.493,3.06,1.445S25.874-.357,23.953-.357Zm0-4.624c-3.2,0-5.287,1.224-5.287,3.179s2.091,3.179,5.287,3.179c3.179,0,5.27-1.224,5.27-3.179S27.132-4.981,23.953-4.981Zm10.9,1.156C34-3.825,33.49-5,33.49-7.412c0-2.4.51-3.57,1.36-3.57.867,0,1.36,1.173,1.36,3.57C36.21-5,35.717-3.825,34.85-3.825Zm4.607-4.607H38.216c-.255-2.924-1.513-4.658-3.366-4.658-2.074,0-3.383,2.142-3.383,5.678,0,3.553,1.309,5.695,3.383,5.695,1.9,0,3.179-1.836,3.383-4.9h1.224V.765h2.091v-14.7H39.457Zm3.179-5.78V1.445h2.125V-14.212ZM50.864-12.6v1.819h5.117C55.573-7.31,53.635-4.828,50-2.958l1.258,1.717A11.764,11.764,0,0,0,58.242-12.6ZM64.6-8.228H62.407v-5.984H60.163V1.428h2.244v-7.8H64.6ZM71.553-9.86h3.2v-1.785h-3.2v-2.176H69.309v2.176H66.045V-9.86h3.264v.544a6.732,6.732,0,0,1-3.791,6.188l1.207,1.717A7.309,7.309,0,0,0,70.465-5.7a6.9,6.9,0,0,0,3.706,4.012L75.361-3.4a6.439,6.439,0,0,1-3.808-5.916Zm4.641-4.335V1.462h2.244V-14.195Zm14.79,2.55H82.518v3.74H93.466V-9.418H84.728v-.816h8.466v-3.689H82.484v1.513h8.5ZM84.592-1.037h8.653V-4.76h-10.9v1.513h8.67v.8H82.365V1.326H93.67V-.187H84.592ZM80.75-7.157v1.615H94.928V-7.157Zm21.794-3.859h4.845V-12.8H100.3V-2.278h1.275a35.384,35.384,0,0,0,6.834-.459l-.221-1.819a32.93,32.93,0,0,1-5.644.442Zm7.922-3.179v5.406h-3.825v1.8h3.825v8.5h2.244V-14.195ZM119.391-3.57a1.767,1.767,0,0,1-1.836-1.9,1.781,1.781,0,0,1,1.836-1.921,1.764,1.764,0,0,1,1.819,1.9A1.76,1.76,0,0,1,119.391-3.57Zm0-5.644a3.734,3.734,0,0,0-3.978,3.723,3.741,3.741,0,0,0,3.978,3.757,3.722,3.722,0,0,0,3.944-3.757A3.715,3.715,0,0,0,119.391-9.214Zm1.105-4.709h-2.244v2.04h-3.468V-10.1H123.9v-1.785h-3.4ZM129.4-8.075H127.16v-6.12h-2.244V1.462h2.244V-6.222H129.4Zm3.6-2.856h5.066V-12.75h-7.31V-2.261h1.343a38.979,38.979,0,0,0,7.225-.51l-.221-1.853a38.92,38.92,0,0,1-6.1.493Zm11.7,2.516h-2.278v-5.78h-2.244V1.5h2.244V-6.562H144.7Z" transform="translate(356.079 -345.704)"/>
  </g>
  <g id="그룹_2474" data-name="그룹 2474" transform="translate(429.519 175.34)">
    <path id="패스_2699" data-name="패스 2699" class="cls-4" d="M0,0V42"/>
  </g>
  <g id="그룹_2475" data-name="그룹 2475" transform="translate(429.519 292.3)">
    <path id="패스_2700" data-name="패스 2700" class="cls-4" d="M0,0V42"/>
  </g>
  <g id="그룹_2476" data-name="그룹 2476" transform="translate(429.519 197.34)">
    <path id="패스_2701" data-name="패스 2701" class="cls-5" d="M0,0V20"/>
  </g>
  <g id="그룹_2477" data-name="그룹 2477" transform="translate(429.519 314.3)">
    <path id="패스_2702" data-name="패스 2702" class="cls-5" d="M0,0V20"/>
  </g>
  <path id="패스_2703" data-name="패스 2703" class="cls-6" d="M20-136.7H816v-136H20Z" transform="translate(0 608)"/>
  <g id="그룹_2478" data-name="그룹 2478" transform="translate(20 334.8)">
    <path id="패스_2704" data-name="패스 2704" class="cls-4" d="M0,0H796"/>
  </g>
  <g id="그룹_2479" data-name="그룹 2479" transform="translate(20 471.3)">
    <path id="패스_2705" data-name="패스 2705" class="cls-4" d="M0,0H796"/>
  </g>
  <g id="그룹-2" data-name="그룹" transform="translate(0 608)">
    <path id="패스_8756" data-name="패스 8756" class="cls-7" d="M3.408-10.288H5.184c1.712,0,2.64.5,2.64,1.92S6.9-6.24,5.184-6.24H3.408ZM10.08,0,7.2-4.992A3.278,3.278,0,0,0,9.664-8.368c0-2.544-1.824-3.408-4.256-3.408H1.552V0H3.408V-4.752h1.9L7.984,0Zm1.632,0h7.136V-1.568h-5.28V-5.376h4.32V-6.944h-4.32v-3.28h5.1v-1.552h-6.96Zm9.28,0h1.856V-4.464h1.776c2.56,0,4.432-1.184,4.432-3.76,0-2.656-1.872-3.552-4.5-3.552H20.992Zm1.856-5.952v-4.336h1.536c1.872,0,2.848.512,2.848,2.064s-.9,2.272-2.784,2.272Zm12.5,6.16c2.608,0,4.368-1.424,4.368-5.264v-6.72H37.92v6.848c0,2.656-1.088,3.52-2.576,3.52-1.472,0-2.528-.864-2.528-3.52v-6.848H30.96v6.72C30.96-1.216,32.736.208,35.344.208ZM44.832,0h1.856V-10.224H50.16v-1.552H41.376v1.552h3.456Z" transform="translate(52.188 -103.42)"/>
    <path id="패스_8755" data-name="패스 8755" class="cls-7" d="M3.328-4.816,3.808-6.4c.384-1.28.752-2.576,1.088-3.92H4.96c.368,1.328.72,2.64,1.12,3.92l.464,1.584ZM7.984,0H9.952l-3.9-11.776H3.9L0,0H1.888L2.9-3.36h4.1Z" transform="translate(101.788 -103.42)"/>
    <path id="패스_8754" data-name="패스 8754" class="cls-7" d="M3.952,0H5.808V-10.224H9.28v-1.552H.5v1.552H3.952Zm7.04,0h1.856V-11.776H10.992Zm9.1.208c3.024,0,5.136-2.352,5.136-6.144S23.12-12,20.1-12s-5.12,2.272-5.12,6.064S17.072.208,20.1.208Zm0-1.616c-1.952,0-3.216-1.76-3.216-4.528s1.264-4.448,3.216-4.448,3.232,1.68,3.232,4.448S22.048-1.408,20.1-1.408ZM27.36,0h1.76V-5.552c0-1.28-.144-2.64-.24-3.856h.08l1.232,2.464L34.1,0H36V-11.776H34.24v5.488c0,1.28.144,2.7.24,3.92H34.4l-1.232-2.5-3.9-6.912h-1.9Z" transform="translate(110.332 -103.42)"/>
    <path id="패스_8757" data-name="패스 8757" class="cls-8" d="M12.464-13.088h-.848v10.56h.848Zm-2.9,7.76C7.584-6,5.84-7.728,5.84-9.792v-.544H9.248v-.7H5.84v-2H4.992v2H1.552v.7h3.44v.544A5.356,5.356,0,0,1,1.312-5.04l.432.656a6.244,6.244,0,0,0,3.7-3.744A6.161,6.161,0,0,0,9.152-4.64ZM4.384.048V-3.536H3.536v4.3h9.408V.048Zm19.488-11.6h-3.7v-1.584h-.848v1.584h-3.7v.672h8.24Zm-6.56,3.568c0-.912.976-1.52,2.432-1.52s2.432.608,2.432,1.52c0,.928-.976,1.552-2.432,1.552S17.312-7.056,17.312-7.984Zm7.024,2.992c-1.312.192-2.752.32-4.16.384v-1.2c1.7-.112,2.784-.912,2.784-2.176,0-1.344-1.28-2.16-3.216-2.16-1.952,0-3.232.816-3.232,2.16,0,1.28,1.1,2.064,2.816,2.176V-4.56c-1.456.048-2.864.064-4.048.064l.128.736A55.209,55.209,0,0,0,24.4-4.368ZM18.32-2.7h-.848V.768h9.216V.048H18.32Zm7.84-5.248v-5.136h-.848v11.12h.848V-7.232h2.256v-.72ZM40.432-9.536V-7.28h-4.1v.72h4.1v2.176h.848v-8.688h-.848v2.816H36.768a6.48,6.48,0,0,0,.224-1.7H30.64v.7h5.44c-.224,2.784-2.672,4.9-6.144,5.984l.384.7C33.3-5.5,35.568-7.216,36.512-9.536ZM36.72.368C34.4.368,32.9-.4,32.9-1.6c0-1.184,1.5-1.936,3.824-1.936,2.288,0,3.808.752,3.808,1.936C40.528-.4,39.008.368,36.72.368Zm0-4.592c-2.88,0-4.656.976-4.656,2.624,0,1.68,1.776,2.656,4.656,2.656,2.848,0,4.624-.976,4.624-2.656C41.344-3.248,39.568-4.224,36.72-4.224Zm11.488-7.3v.72h5.68C53.664-7.3,51.5-4.272,47.6-2.384l.464.7c4.576-2.256,6.672-5.872,6.672-9.84Zm9.84-1.568V1.12H58.9V-13.088ZM72.464.192H65.28V-1.952h7.184Zm0-2.848H65.28V-4.72h-.848V.9h8.88V-4.72h-.848Zm-6.88-4A2.588,2.588,0,0,1,62.8-9.168a2.569,2.569,0,0,1,2.784-2.512,2.569,2.569,0,0,1,2.784,2.512A2.588,2.588,0,0,1,65.584-6.656Zm6.88-6.432v3.52h-3.3A3.318,3.318,0,0,0,65.584-12.4c-2.112,0-3.6,1.3-3.6,3.232,0,1.92,1.488,3.232,3.6,3.232a3.3,3.3,0,0,0,3.584-2.9h3.3v3.36h.848v-7.616ZM80.24-11.52v.72h5.68c-.224,3.5-2.384,6.528-6.288,8.416l.464.7c4.576-2.256,6.672-5.872,6.672-9.84Zm9.84-1.568V1.12h.848V-13.088Zm9.984,7.232H95.312V-8.784h4.752Zm.832-6.208h-.832v2.576H95.312v-2.576h-.848v6.928H100.9Zm-4,8.416h-.848V.768h9.376V.048H96.9Zm7.824-4.96v-4.48h-.848V-2.672h.848V-7.888h2.224v-.72Zm19.52,2.624h-2.224a22.813,22.813,0,0,0,.416-4.912v-1.216h-9.344v.7H121.6v.512a20.449,20.449,0,0,1-.464,4.912h-9.744v.72h6v6.4h.848v-6.4h6Zm2.736-.848c2.128-.288,4.448-1.184,5.248-2.832.8,1.648,3.12,2.544,5.248,2.832l.272-.672c-2.32-.272-5.056-1.44-5.072-3.424H137.3v-.7h-4.64v-1.6h-.848v1.6h-4.624v.7h4.592c-.016,1.984-2.752,3.152-5.072,3.424Zm11.664,1.7v-.72H125.792v.72h6.016V-3.3h-4.576v.72h8.96V1.056h.848V-3.3h-4.384v-1.84Zm4.048,7.968h.752l5.28-15.408h-.768Z" transform="translate(23.756 -76.428)"/>
    <text id="_" data-name=" " class="cls-9" transform="translate(176.316 -76.428)"><tspan x="0" y="0"> </tspan></text>
    <path id="패스_8758" data-name="패스 8758" class="cls-8" d="M9.472-11.552h-3.7v-1.584H4.928v1.584h-3.7v.672h8.24ZM2.912-7.984c0-.912.976-1.52,2.432-1.52s2.432.608,2.432,1.52c0,.928-.976,1.552-2.432,1.552S2.912-7.056,2.912-7.984ZM9.936-4.992c-1.312.192-2.752.32-4.16.384v-1.2C7.472-5.92,8.56-6.72,8.56-7.984c0-1.344-1.28-2.16-3.216-2.16-1.952,0-3.232.816-3.232,2.16,0,1.28,1.1,2.064,2.816,2.176V-4.56C3.472-4.512,2.064-4.5.88-4.5l.128.736A55.209,55.209,0,0,0,10-4.368ZM3.92-2.7H3.072V.768h9.216V.048H3.92Zm7.84-5.248v-5.136h-.848v11.12h.848V-7.232h2.256v-.72ZM26.032-9.536V-7.28h-4.1v.72h4.1v2.176h.848v-8.688h-.848v2.816H22.368a6.48,6.48,0,0,0,.224-1.7H16.24v.7h5.44c-.224,2.784-2.672,4.9-6.144,5.984l.384.7C18.9-5.5,21.168-7.216,22.112-9.536ZM22.32.368C20,.368,18.5-.4,18.5-1.6c0-1.184,1.5-1.936,3.824-1.936,2.288,0,3.808.752,3.808,1.936C26.128-.4,24.608.368,22.32.368Zm0-4.592c-2.88,0-4.656.976-4.656,2.624,0,1.68,1.776,2.656,4.656,2.656,2.848,0,4.624-.976,4.624-2.656C26.944-3.248,25.168-4.224,22.32-4.224ZM32.928-1.6v.72H45.84V-1.6ZM34.544-12v7.28h9.648V-12H43.36v2.8H35.392V-12Zm.848,3.52H43.36v3.04H35.392ZM56.032-8h2.384v5.5h.816V-13.088h-.816V-8.72H56.032v-4.1h-.816V-2.96h.816ZM54.3-5.92a23.769,23.769,0,0,1-5.376.48h-.064V-8h4.448v-3.824H48v.7h4.5v2.432H48.048V-4.72h.88a25.95,25.95,0,0,0,5.488-.48ZM50.992.048V-3.424h-.848V.768h9.568V.048Zm22.064-6.16H64.288v-4.864h8.624v-.72H63.456v6.3h9.6ZM61.728-1.664v.72h12.9v-.72ZM80.176-11.52v.72h5.568c-.224,3.456-2.32,6.5-6.16,8.4l.48.672c4.512-2.256,6.512-5.92,6.512-9.792ZM92.64-7.136H90.176v-5.952h-.848V1.12h.848V-6.4H92.64Zm6.176-2.688h3.456v-.72h-3.44V-12.88h-.848v2.336H94.5v.72H98V-8.4a7.051,7.051,0,0,1-3.824,6.048l.512.656a7.843,7.843,0,0,0,3.728-4.688,7.566,7.566,0,0,0,3.776,4.432l.512-.688A6.677,6.677,0,0,1,98.816-8.4Zm5.632-3.264V1.12h.864V-13.088Zm8.336,9.936h9.04V1.184h.848V-3.872h-9.888Zm9.344-3.824a20.013,20.013,0,0,0,.4-4.448v-.944h-9.456v.7h8.64v.24a18,18,0,0,1-.448,4.448h-9.856v.72h12.88v-.72Zm5.088,3.664v-7.28h4.464v-.736h-5.3v8.752h.88a23.083,23.083,0,0,0,5.392-.448l-.112-.736a21.126,21.126,0,0,1-5.3.448Zm9.744-9.776v5.84h-2.448v-5.488H133.7V.336h.816V-6.528h2.448V1.1h.832V-13.088Zm11.872,1.808h-3.856V-13.1h-.848v1.824h-3.856v.72h8.56ZM142.08-6.96c0-1.136.992-1.92,2.48-1.92,1.472,0,2.48.784,2.48,1.92,0,1.12-1.008,1.92-2.48,1.92C143.072-5.04,142.08-5.84,142.08-6.96Zm2.9,2.576c1.728-.144,2.864-1.1,2.864-2.576,0-1.6-1.328-2.608-3.28-2.608-1.968,0-3.264,1.008-3.264,2.608,0,1.472,1.12,2.432,2.832,2.576v1.776c-1.472.064-2.88.064-4.1.064l.16.736a55.706,55.706,0,0,0,9.04-.56l-.064-.656c-1.328.208-2.768.3-4.192.384ZM153.424-6.9H150.96v-6.192h-.848V1.1h.848V-6.16h2.464Z" transform="translate(21.644 -51.436)"/>
  </g>
  <g id="그룹_2481" data-name="그룹 2481" class="cls-10" transform="translate(0 608)">
    <g id="그룹_2480" data-name="그룹 2480" transform="translate(140.67 -204.95)">
      <path id="패스_2706" data-name="패스 2706" class="cls-11" d="M0,0A40.635,40.635,0,0,1-40.635,40.635,40.635,40.635,0,0,1-81.27,0,40.635,40.635,0,0,1-40.635-40.635,40.635,40.635,0,0,1,0,0"/>
    </g>
  </g>
  <path id="패스_8750" data-name="패스 8750" class="cls-12" d="M1.376,0H8.1V-1.52h-2.3V-11.776H4.4a7.234,7.234,0,0,1-2.56.9v1.168H3.952V-1.52H1.376Z" transform="translate(95.457 388.837)"/>
  <g id="그룹-3" data-name="그룹" transform="translate(0 608)">
    <path id="패스_8759" data-name="패스 8759" class="cls-7" d="M3.408-10.288H5.184c1.712,0,2.64.5,2.64,1.92S6.9-6.24,5.184-6.24H3.408ZM10.08,0,7.2-4.992A3.278,3.278,0,0,0,9.664-8.368c0-2.544-1.824-3.408-4.256-3.408H1.552V0H3.408V-4.752h1.9L7.984,0Zm1.632,0h1.856V-11.776H11.712ZM19.7.208c2.576,0,4.144-1.536,4.144-3.424A3.288,3.288,0,0,0,21.44-6.4l-1.616-.688c-.96-.384-1.9-.768-1.9-1.776,0-.944.784-1.52,1.984-1.52A3.751,3.751,0,0,1,22.5-9.328l.976-1.184A5.044,5.044,0,0,0,19.9-12c-2.24,0-3.872,1.392-3.872,3.248a3.387,3.387,0,0,0,2.4,3.088l1.632.7c1.088.48,1.888.816,1.888,1.888,0,.992-.8,1.664-2.224,1.664A4.566,4.566,0,0,1,16.592-2.8L15.5-1.52A5.875,5.875,0,0,0,19.7.208ZM25.744,0H27.6V-3.552L29.408-5.76,32.736,0H34.8L30.544-7.232l3.648-4.544H32.128l-4.48,5.568H27.6v-5.568H25.744ZM41.712,0h1.856V-10.224H47.04v-1.552H38.256v1.552h3.456Z" transform="translate(263.086 -103.42)"/>
    <path id="패스_8760" data-name="패스 8760" class="cls-7" d="M3.328-4.816,3.808-6.4c.384-1.28.752-2.576,1.088-3.92H4.96c.368,1.328.72,2.64,1.12,3.92l.464,1.584ZM7.984,0H9.952l-3.9-11.776H3.9L0,0H1.888L2.9-3.36h4.1Zm3.2,0H13.04V-3.552L14.848-5.76,18.176,0H20.24L15.984-7.232l3.648-4.544H17.568l-4.48,5.568H13.04v-5.568H11.184ZM21.472,0h1.856V-11.776H21.472ZM26.1,0h1.76V-5.552c0-1.28-.144-2.64-.24-3.856h.08l1.232,2.464L32.832,0h1.9V-11.776h-1.76v5.488c0,1.28.144,2.7.24,3.92h-.08L31.9-4.864,28-11.776H26.1ZM42.32.208a5.29,5.29,0,0,0,3.728-1.376v-5.1H42.032v1.52h2.336v2.768a2.92,2.92,0,0,1-1.856.576c-2.432,0-3.728-1.712-3.728-4.512,0-2.768,1.456-4.464,3.648-4.464a3.185,3.185,0,0,1,2.432,1.056l1.008-1.184A4.7,4.7,0,0,0,42.368-12c-3.12,0-5.488,2.3-5.488,6.144C36.88-2,39.168.208,42.32.208Z" transform="translate(310.445 -103.42)"/>
    <path id="패스_8761" data-name="패스 8761" class="cls-8" d="M9.472-11.552h-3.7v-1.584H4.928v1.584h-3.7v.672h8.24ZM2.912-7.984c0-.912.976-1.52,2.432-1.52s2.432.608,2.432,1.52c0,.928-.976,1.552-2.432,1.552S2.912-7.056,2.912-7.984ZM9.936-4.992c-1.312.192-2.752.32-4.16.384v-1.2C7.472-5.92,8.56-6.72,8.56-7.984c0-1.344-1.28-2.16-3.216-2.16-1.952,0-3.232.816-3.232,2.16,0,1.28,1.1,2.064,2.816,2.176V-4.56C3.472-4.512,2.064-4.5.88-4.5l.128.736A55.209,55.209,0,0,0,10-4.368ZM3.92-2.7H3.072V.768h9.216V.048H3.92Zm7.84-5.248v-5.136h-.848v11.12h.848V-7.232h2.256v-.72ZM26.032-9.536V-7.28h-4.1v.72h4.1v2.176h.848v-8.688h-.848v2.816H22.368a6.48,6.48,0,0,0,.224-1.7H16.24v.7h5.44c-.224,2.784-2.672,4.9-6.144,5.984l.384.7C18.9-5.5,21.168-7.216,22.112-9.536ZM22.32.368C20,.368,18.5-.4,18.5-1.6c0-1.184,1.5-1.936,3.824-1.936,2.288,0,3.808.752,3.808,1.936C26.128-.4,24.608.368,22.32.368Zm0-4.592c-2.88,0-4.656.976-4.656,2.624,0,1.68,1.776,2.656,4.656,2.656,2.848,0,4.624-.976,4.624-2.656C26.944-3.248,25.168-4.224,22.32-4.224ZM34.128-8.608a2.681,2.681,0,0,1,2.8-2.688A2.673,2.673,0,0,1,39.7-8.608,2.673,2.673,0,0,1,36.928-5.92,2.681,2.681,0,0,1,34.128-8.608Zm6.4,0a3.4,3.4,0,0,0-3.6-3.44,3.393,3.393,0,0,0-3.616,3.44,3.4,3.4,0,0,0,3.616,3.44A3.406,3.406,0,0,0,40.528-8.608ZM36.064-3.632h-.848v4.4h9.376V.048H36.064ZM43.888-8.64V-13.1H43.04V-2.56h.848V-7.9h2.224V-8.64Zm10.96-.384v.72h3.216v5.68h.848V-13.088h-.848v4.064ZM55.6-5.648c-1.936-.7-3.584-2.5-3.584-4.432V-11.1h3.328v-.72H47.792v.72h3.392v1.04A5.507,5.507,0,0,1,47.472-5.28l.448.688a6.428,6.428,0,0,0,3.7-3.856A6.2,6.2,0,0,0,55.168-4.96ZM50.88.048V-3.584h-.848V.768h9.312V.048ZM66.72-10.864h2.224c2.016,0,3.136.624,3.136,2.32,0,1.68-1.12,2.48-3.136,2.48H66.72ZM73.3,0,70.144-5.344a3.068,3.068,0,0,0,2.912-3.2c0-2.272-1.568-3.12-3.888-3.12H65.76V0h.96V-5.264H69.1L72.208,0Zm1.776,0H76V-8.528h-.928Zm.48-10.528a.755.755,0,0,0,.784-.736.752.752,0,0,0-.784-.768.743.743,0,0,0-.784.768A.746.746,0,0,0,75.552-10.528ZM80.96.208c1.888,0,2.928-1.12,2.928-2.432,0-1.648-1.44-2.112-2.752-2.608-.992-.368-1.984-.72-1.984-1.664,0-.768.576-1.472,1.84-1.472a3.27,3.27,0,0,1,2.032.768l.48-.64a4.119,4.119,0,0,0-2.48-.912c-1.792,0-2.8,1.056-2.8,2.3,0,1.472,1.408,2,2.672,2.448.992.352,2.064.816,2.064,1.824,0,.88-.656,1.616-1.952,1.616A3.906,3.906,0,0,1,78.32-1.632l-.5.672A5,5,0,0,0,80.96.208ZM85.776,0H86.7V-2.3l1.84-2.176L91.3,0H92.32L89.088-5.152l2.784-3.376H90.816L86.736-3.5H86.7V-12.72h-.928ZM100.8-11.792h-.816v2.848a7.863,7.863,0,0,1-3.792,6.272l.528.688a8.72,8.72,0,0,0,3.7-5.008,8.253,8.253,0,0,0,3.68,4.7l.528-.656a7.549,7.549,0,0,1-3.824-6Zm8.832,4.624h-2.5V-13.1h-.848V1.12h.848V-6.448h2.5Zm8.608-1.856v.72h3.216v5.68h.848V-13.088h-.848v4.064Zm.752,3.376c-1.936-.7-3.584-2.5-3.584-4.432V-11.1h3.328v-.72h-7.552v.72h3.392v1.04a5.507,5.507,0,0,1-3.712,4.784l.448.688a6.428,6.428,0,0,0,3.7-3.856A6.2,6.2,0,0,0,118.56-4.96Zm-4.72,5.7V-3.584h-.848V.768h9.312V.048ZM134.4-5.2a8.835,8.835,0,0,0,.176-1.792,8.674,8.674,0,0,0-.176-1.776h2.384V-5.2Zm-2.832,2.256c-1.328,0-2.208-1.664-2.208-4.048,0-2.368.88-4.048,2.208-4.048s2.208,1.68,2.208,4.048C133.776-4.608,132.9-2.944,131.568-2.944Zm5.216-6.544h-2.56a2.889,2.889,0,0,0-2.656-2.32c-1.808,0-2.992,1.872-2.992,4.816s1.184,4.816,2.992,4.816a2.9,2.9,0,0,0,2.656-2.3h2.56V.352h.816v-13.1h-.816Zm2.768-3.616V1.12h.816V-13.1Zm9.5,6.64H144.3V-9.152h4.752Zm.832-5.744h-.832v2.352H144.3v-2.352h-.848v6.464h6.432ZM149.232.384c-2.272,0-3.744-.7-3.744-1.872,0-1.136,1.472-1.856,3.744-1.856,2.288,0,3.76.72,3.76,1.856C152.992-.32,151.52.384,149.232.384Zm0-4.432c-2.848,0-4.576.928-4.576,2.56,0,1.648,1.728,2.576,4.576,2.576s4.592-.928,4.592-2.576C153.824-3.12,152.08-4.048,149.232-4.048Zm4.48-5.312v-3.728h-.848v8.624h.848v-4.16h2.224V-9.36Zm5.936,12.192h.752l5.28-15.408h-.768Z" transform="translate(225.133 -76.428)"/>
    <text id="_2" data-name=" " class="cls-13" transform="translate(395.582 -76.428)"><tspan x="0" y="0"> </tspan></text>
    <text id="_3" data-name=" " class="cls-9" transform="translate(399.422 -76.428)"><tspan x="0" y="0"> </tspan></text>
    <path id="패스_8764" data-name="패스 8764" class="cls-8" d="M1.7,0H8.32V-.832H2.656V-5.776H7.28v-.816H2.656v-4.256H8.144v-.816H1.7ZM13.472.208a4.127,4.127,0,0,0,2.72-1.1l-.448-.64a3.406,3.406,0,0,1-2.224.944c-1.792,0-2.976-1.488-2.976-3.664s1.3-3.68,2.992-3.68a2.8,2.8,0,0,1,1.952.864l.528-.64a3.607,3.607,0,0,0-2.5-1.04c-2.112,0-3.952,1.648-3.952,4.5C9.568-1.424,11.248.208,13.472.208Z" transform="translate(211.678 -51.436)"/>
    <path id="패스_8763" data-name="패스 8763" class="cls-8" d="M4.752.208c2.064,0,3.856-1.632,3.856-4.464,0-2.848-1.792-4.5-3.856-4.5S.9-7.1.9-4.256C.9-1.424,2.688.208,4.752.208Zm0-.8c-1.664,0-2.88-1.488-2.88-3.664s1.216-3.68,2.88-3.68,2.9,1.5,2.9,3.68S6.416-.592,4.752-.592Zm5.3-3.44h3.936v-.784H10.048ZM17.9,0H18.96l3.792-11.664h-.976L19.7-4.96c-.448,1.408-.752,2.5-1.232,3.9H18.4c-.464-1.408-.768-2.5-1.2-3.9l-2.1-6.7H14.08Z" transform="translate(227.678 -51.436)"/>
    <path id="패스_8762" data-name="패스 8762" class="cls-8" d="M3.488.208a4.915,4.915,0,0,0,2.976-1.3H6.5L6.592,0h.784V-5.408c0-1.888-.72-3.344-2.752-3.344a5.914,5.914,0,0,0-3.232,1.12l.416.672A4.611,4.611,0,0,1,4.5-7.936c1.616,0,1.984,1.312,1.952,2.576-3.76.432-5.44,1.328-5.44,3.216A2.25,2.25,0,0,0,3.488.208ZM3.68-.576A1.538,1.538,0,0,1,1.936-2.192c0-1.312,1.152-2.1,4.512-2.48V-1.9A4.2,4.2,0,0,1,3.68-.576Zm7.488.784a1.881,1.881,0,0,0,.624-.1l-.144-.736a1.431,1.431,0,0,1-.3.032c-.224,0-.384-.176-.384-.576V-12.72h-.928V-1.264C10.032-.272,10.4.208,11.168.208Zm5.264,0a3.786,3.786,0,0,0,2.88-1.616h.048L19.44,0h.784V-8.528H19.3v6.24c-.96,1.152-1.664,1.664-2.656,1.664-1.312,0-1.856-.816-1.856-2.56V-8.528h-.928v5.456C13.856-.88,14.656.208,16.432.208Zm9.936,0a4.772,4.772,0,0,0,2.72-.832l-.352-.688a3.818,3.818,0,0,1-2.272.736c-1.84,0-3.072-1.456-3.12-3.536h6.048a4.426,4.426,0,0,0,.048-.672c0-2.5-1.232-3.968-3.3-3.968-1.936,0-3.744,1.728-3.744,4.5C22.4-1.456,24.176.208,26.368.208ZM23.344-4.848c.176-1.952,1.424-3.1,2.816-3.1,1.488,0,2.432,1.04,2.432,3.1ZM38.912.208A4.371,4.371,0,0,0,42.4-1.456l-.544-.608a3.73,3.73,0,0,1-2.9,1.408c-2.448,0-3.968-2.032-3.968-5.216,0-3.152,1.552-5.136,4.016-5.136A3.278,3.278,0,0,1,41.536-9.84l.544-.624a4.034,4.034,0,0,0-3.072-1.408c-2.96,0-5.024,2.3-5.024,6.032S36.032.208,38.912.208ZM44.336,0h.928V-6.384c.992-1.024,1.7-1.536,2.688-1.536,1.312,0,1.872.816,1.872,2.592V0h.928V-5.456c0-2.192-.816-3.3-2.592-3.3a4.154,4.154,0,0,0-2.912,1.536l.016-1.856V-12.72h-.928ZM55.328.208a4.915,4.915,0,0,0,2.976-1.3h.032L58.432,0h.784V-5.408c0-1.888-.72-3.344-2.752-3.344a5.914,5.914,0,0,0-3.232,1.12l.416.672a4.611,4.611,0,0,1,2.688-.976c1.616,0,1.984,1.312,1.952,2.576-3.76.432-5.44,1.328-5.44,3.216A2.25,2.25,0,0,0,55.328.208Zm.192-.784a1.538,1.538,0,0,1-1.744-1.616c0-1.312,1.152-2.1,4.512-2.48V-1.9A4.2,4.2,0,0,1,55.52-.576ZM61.872,0H62.8V-8.528h-.928Zm.48-10.528a.755.755,0,0,0,.784-.736.752.752,0,0,0-.784-.768.743.743,0,0,0-.784.768A.746.746,0,0,0,62.352-10.528ZM65.664,0h.928V-6.384c.992-1.024,1.7-1.536,2.688-1.536,1.312,0,1.872.816,1.872,2.592V0h.928V-5.456c0-2.192-.816-3.3-2.592-3.3a4.2,4.2,0,0,0-2.912,1.52h-.032l-.112-1.3h-.768ZM90.208-5.984H87.984A22.813,22.813,0,0,0,88.4-10.9v-1.216H79.056v.7h8.512v.512A20.45,20.45,0,0,1,87.1-5.984H77.36v.72h6v6.4h.848v-6.4h6Zm2.736-.848c2.128-.288,4.448-1.184,5.248-2.832.8,1.648,3.12,2.544,5.248,2.832l.272-.672c-2.32-.272-5.056-1.44-5.072-3.424h4.624v-.7h-4.64v-1.6h-.848v1.6H93.152v.7h4.592c-.016,1.984-2.752,3.152-5.072,3.424Zm11.664,1.7v-.72H91.76v.72h6.016V-3.3H93.2v.72h8.96V1.056h.848V-3.3H98.624v-1.84ZM120.944-13.1H120.1V-4.88h.848Zm-5.136,5.952h-4.816V-11.44h4.816Zm.816-4.992H110.16v5.7h6.464Zm.432,9.056h4.3v-.688h-4.3V-5.312h-.864v1.536H111.92v.688h4.272v.144c0,1.616-2.784,3.04-4.848,3.328l.3.672c1.936-.336,4.176-1.392,4.976-2.848.784,1.44,2.944,2.512,4.9,2.848l.3-.672c-2.08-.32-4.768-1.728-4.768-3.328Zm16.384-8.88c2.4,0,4.032.832,4.032,2.08s-1.632,2.08-4.032,2.08c-2.368,0-4-.832-4-2.08S131.072-11.968,133.44-11.968Zm0,4.88c2.992,0,4.912-1.072,4.912-2.8s-1.92-2.784-4.912-2.784c-2.96,0-4.88,1.056-4.88,2.784S130.48-7.088,133.44-7.088Zm-3.856,3.776h-.832V.768H138.5V.032h-8.912ZM127.008-5.7v.72h6.144v3.152H134V-4.976h5.92V-5.7ZM142.5-8.912a2.627,2.627,0,0,1,2.784-2.576,2.627,2.627,0,0,1,2.784,2.576A2.62,2.62,0,0,1,145.28-6.32,2.62,2.62,0,0,1,142.5-8.912Zm9.664-1.312v2.64h-3.536a3.569,3.569,0,0,0,.256-1.328,3.549,3.549,0,0,0-.256-1.312Zm0,3.36V-4.64h.848V-13.1h-.848v2.176h-3.968a3.648,3.648,0,0,0-2.912-1.28,3.332,3.332,0,0,0-3.6,3.3,3.351,3.351,0,0,0,3.6,3.344,3.66,3.66,0,0,0,2.912-1.3ZM148.4.384c-2.3,0-3.808-.768-3.808-1.984,0-1.2,1.5-1.984,3.808-1.984,2.336,0,3.84.784,3.84,1.984C152.24-.384,150.736.384,148.4.384Zm0-4.656c-2.88,0-4.64.976-4.64,2.672s1.76,2.672,4.64,2.672c2.9,0,4.672-.976,4.672-2.672S151.3-4.272,148.4-4.272Z" transform="translate(250.077 -51.436)"/>
  </g>
  <g id="그룹_2483" data-name="그룹 2483" class="cls-10" transform="translate(0 608)">
    <g id="그룹_2482" data-name="그룹 2482" transform="translate(350.992 -204.95)">
      <path id="패스_2708" data-name="패스 2708" class="cls-11" d="M0,0A40.635,40.635,0,0,1-40.635,40.635,40.635,40.635,0,0,1-81.27,0,40.635,40.635,0,0,1-40.635-40.635,40.635,40.635,0,0,1,0,0"/>
    </g>
  </g>
  <path id="패스_8751" data-name="패스 8751" class="cls-12" d="M.7,0H8.3V-1.568H5.36c-.576,0-1.312.048-1.92.112,2.5-2.384,4.3-4.736,4.3-7.008A3.33,3.33,0,0,0,4.192-12,4.621,4.621,0,0,0,.608-10.24l1.04,1.024a3.194,3.194,0,0,1,2.32-1.312,1.92,1.92,0,0,1,2,2.16c0,1.936-1.792,4.224-5.264,7.3Z" transform="translate(305.778 388.837)"/>
  <g id="그룹-4" data-name="그룹" transform="translate(0 608)">
    <path id="패스_8765" data-name="패스 8765" class="cls-7" d="M3.408-10.288H5.184c1.712,0,2.64.5,2.64,1.92S6.9-6.24,5.184-6.24H3.408ZM10.08,0,7.2-4.992A3.278,3.278,0,0,0,9.664-8.368c0-2.544-1.824-3.408-4.256-3.408H1.552V0H3.408V-4.752h1.9L7.984,0Zm1.632,0h7.136V-1.568h-5.28V-5.376h4.32V-6.944h-4.32v-3.28h5.1v-1.552h-6.96ZM23.1,0H25.3l3.68-11.776H27.088l-1.744,6.1c-.384,1.344-.672,2.5-1.072,3.856h-.08c-.416-1.36-.672-2.512-1.072-3.856l-1.744-6.1H19.408Zm7.072,0h7.136V-1.568h-5.28V-5.376h4.32V-6.944h-4.32v-3.28h5.1v-1.552h-6.96Zm9.28,0h1.76V-5.552c0-1.28-.144-2.64-.24-3.856h.08l1.232,2.464L46.192,0h1.9V-11.776h-1.76v5.488c0,1.28.144,2.7.24,3.92H46.5l-1.232-2.5-3.9-6.912h-1.9ZM55.2.208c2.608,0,4.368-1.424,4.368-5.264v-6.72H57.776v6.848c0,2.656-1.088,3.52-2.576,3.52-1.472,0-2.528-.864-2.528-3.52v-6.848H50.816v6.72C50.816-1.216,52.592.208,55.2.208ZM62.288,0h7.136V-1.568h-5.28V-5.376h4.32V-6.944h-4.32v-3.28h5.1v-1.552h-6.96Z" transform="translate(485.511 -103.42)"/>
    <path id="패스_8767" data-name="패스 8767" class="cls-8" d="M1.7,0H8.32V-.832H2.656V-5.776H7.28v-.816H2.656v-4.256H8.144v-.816H1.7ZM13.472.208a4.127,4.127,0,0,0,2.72-1.1l-.448-.64a3.406,3.406,0,0,1-2.224.944c-1.792,0-2.976-1.488-2.976-3.664s1.3-3.68,2.992-3.68a2.8,2.8,0,0,1,1.952.864l.528-.64a3.607,3.607,0,0,0-2.5-1.04c-2.112,0-3.952,1.648-3.952,4.5C9.568-1.424,11.248.208,13.472.208Z" transform="translate(447.751 -76.428)"/>
    <path id="패스_8766" data-name="패스 8766" class="cls-8" d="M4.752.208c2.064,0,3.856-1.632,3.856-4.464,0-2.848-1.792-4.5-3.856-4.5S.9-7.1.9-4.256C.9-1.424,2.688.208,4.752.208Zm0-.8c-1.664,0-2.88-1.488-2.88-3.664s1.216-3.68,2.88-3.68,2.9,1.5,2.9,3.68S6.416-.592,4.752-.592Zm5.3-3.44h3.936v-.784H10.048ZM16.032,0h3.456c2.624,0,4.352-1.152,4.352-3.408a2.7,2.7,0,0,0-2.5-2.8v-.08a2.507,2.507,0,0,0,1.792-2.544c0-1.968-1.536-2.832-3.888-2.832H16.032Zm.96-6.576v-4.3H19.04c2.064,0,3.136.576,3.136,2.16,0,1.328-.928,2.144-3.232,2.144Zm0,5.776V-5.808h2.272c2.32,0,3.632.768,3.632,2.4C22.9-1.6,21.52-.8,19.264-.8Zm8.9.8h.928V-8.528h-.928Zm.48-10.528a.755.755,0,0,0,.784-.736.752.752,0,0,0-.784-.768.743.743,0,0,0-.784.768A.746.746,0,0,0,26.368-10.528ZM28.592,0h6.272V-.8H29.792L34.7-8.032v-.5H29.12v.784H33.5L28.592-.5ZM51.984-5.984H49.76a22.813,22.813,0,0,0,.416-4.912v-1.216H40.832v.7h8.512v.512a20.449,20.449,0,0,1-.464,4.912H39.136v.72h6v6.4h.848v-6.4h6Zm2.736-.848c2.128-.288,4.448-1.184,5.248-2.832.8,1.648,3.12,2.544,5.248,2.832l.272-.672c-2.32-.272-5.056-1.44-5.072-3.424H65.04v-.7H60.4v-1.6h-.848v1.6H54.928v.7H59.52C59.5-8.944,56.768-7.776,54.448-7.5Zm11.664,1.7v-.72H53.536v.72h6.016V-3.3H54.976v.72h8.96V1.056h.848V-3.3H60.4v-1.84ZM82.72-13.1h-.848V-4.88h.848ZM77.584-7.152H72.768V-11.44h4.816Zm.816-4.992H71.936v5.7H78.4Zm.432,9.056h4.3v-.688h-4.3V-5.312h-.864v1.536H73.7v.688h4.272v.144c0,1.616-2.784,3.04-4.848,3.328l.3.672C75.36.72,77.6-.336,78.4-1.792c.784,1.44,2.944,2.512,4.9,2.848l.3-.672c-2.08-.32-4.768-1.728-4.768-3.328ZM96.784-9.52v.72h2.752v2.016H96.768v.7h2.768v2.224h.848V-13.1h-.848V-9.52Zm.1-1.84H93.3v-1.872h-.848v1.872H88.816v.7H96.88ZM90.512-7.152c0-1.136.96-1.936,2.352-1.936s2.336.8,2.336,1.936-.944,1.936-2.336,1.936S90.512-6.016,90.512-7.152Zm5.5,0c0-1.6-1.28-2.624-3.152-2.624s-3.152,1.024-3.152,2.624c0,1.584,1.28,2.624,3.152,2.624S96.016-5.568,96.016-7.152ZM95.808.4c-2.3,0-3.792-.64-3.792-1.712S93.5-3.024,95.808-3.024c2.32,0,3.808.64,3.808,1.712S98.128.4,95.808.4Zm0-4.112c-2.912,0-4.656.88-4.656,2.4S92.9,1.072,95.808,1.072c2.928,0,4.672-.864,4.672-2.384S98.736-3.712,95.808-3.712Zm18.128-.928h.848V-13.1h-.848v3.28h-3.392v.72h3.392Zm-2.5-1.44a5.289,5.289,0,0,1-3.648-4.624v-1.552h-.832v1.568A5.494,5.494,0,0,1,103.28-5.7l.448.688a6.317,6.317,0,0,0,3.68-3.9,6.17,6.17,0,0,0,3.536,3.488ZM110.192.384c-2.32,0-3.808-.752-3.808-1.936s1.488-1.936,3.808-1.936,3.824.752,3.824,1.936S112.512.384,110.192.384Zm0-4.56c-2.9,0-4.656.944-4.656,2.624s1.76,2.624,4.656,2.624c2.88,0,4.656-.944,4.656-2.624S113.072-4.176,110.192-4.176Zm9.9,7.008h.752l5.28-15.408h-.768Z" transform="translate(463.751 -76.428)"/>
    <text id="_4" data-name=" " class="cls-13" transform="translate(593.591 -76.428)"><tspan x="0" y="0"> </tspan></text>
    <text id="_5" data-name=" " class="cls-9" transform="translate(597.431 -76.428)"><tspan x="0" y="0"> </tspan></text>
    <path id="패스_8768" data-name="패스 8768" class="cls-8" d="M9.1-5.76C7.152-6.4,5.52-8.064,5.52-9.968v-.512H8.864v-.7H5.536v-1.984H4.688v1.984H1.312v.7H4.688v.512a5.126,5.126,0,0,1-3.68,4.512l.432.672A6.078,6.078,0,0,0,5.12-8.336,5.889,5.889,0,0,0,8.672-5.072ZM2.768-2.9h8.24V1.136h.848V-3.616H2.768ZM14.08-9.136H11.856v-3.952h-.848v8.64h.848V-8.416H14.08Zm9.7-2.064H20v-1.872h-.848V-11.2H15.36v.7h8.416ZM17.008-6.944c0-1.136,1.04-1.92,2.56-1.92s2.544.784,2.544,1.92c0,1.1-1.024,1.9-2.544,1.9S17.008-5.84,17.008-6.944Zm5.9,0c0-1.584-1.328-2.608-3.344-2.608s-3.36,1.024-3.36,2.608c0,1.568,1.344,2.592,3.36,2.592S22.912-5.376,22.912-6.944ZM18.432-3.28h-.848V.768H26.96V.048H18.432Zm7.824-4.928v-4.864h-.848V-2.4h.848V-7.488H28.48v-.72Zm17.408,5.84h.848v-10.72h-.848v3.52H40.256v.736h3.408ZM41.136-5.584A5.465,5.465,0,0,1,37.52-10.3V-12.24h-.832v1.856a5.779,5.779,0,0,1-3.664,5.1l.448.688a6.518,6.518,0,0,0,3.648-4,6.359,6.359,0,0,0,3.552,3.664ZM36.4.048v-3.68h-.848v4.4h9.312V.048ZM59.328-7.84c-2.08-.368-5.136-2-5.136-4.048v-.848h-.864v.848c0,2.1-3.008,3.7-5.152,4.048l.352.672c1.968-.368,4.4-1.584,5.232-3.392.848,1.776,3.28,3.024,5.232,3.392ZM49.888-3.3H49.04V.768h9.744V.048h-8.9ZM47.312-5.712v.72h6.08v3.168h.848V-4.992h5.984v-.72ZM70.3-11.552h-3.7v-1.584H65.76v1.584h-3.7v.672H70.3Zm-6.56,3.568c0-.912.976-1.52,2.432-1.52s2.432.608,2.432,1.52c0,.928-.976,1.552-2.432,1.552S63.744-7.056,63.744-7.984Zm7.024,2.992c-1.312.192-2.752.32-4.16.384v-1.2c1.7-.112,2.784-.912,2.784-2.176,0-1.344-1.28-2.16-3.216-2.16-1.952,0-3.232.816-3.232,2.16,0,1.28,1.1,2.064,2.816,2.176V-4.56C64.3-4.512,62.9-4.5,61.712-4.5l.128.736a55.209,55.209,0,0,0,8.992-.608ZM64.752-2.7H63.9V.768H73.12V.048H64.752Zm7.84-5.248v-5.136h-.848v11.12h.848V-7.232h2.256v-.72Zm18.864.48c-2.128-.352-5.216-2.016-5.216-4.192v-.88h-.88v.88c0,2.24-3.056,3.84-5.232,4.192l.368.7c2-.384,4.464-1.616,5.312-3.5.848,1.856,3.328,3.12,5.3,3.5Zm.768,2.544H79.36v.72h5.984V1.1h.848V-4.208h6.016Zm3.728,1.184v.72h8.528V1.1h.848V-3.744Zm8.528-9.36v8.512h.848V-13.1Zm-6.7.88a3.3,3.3,0,0,0-3.6,3.312,3.285,3.285,0,0,0,3.6,3.28,3.285,3.285,0,0,0,3.6-3.28A3.3,3.3,0,0,0,97.776-12.224Zm0,.736a2.6,2.6,0,0,1,2.784,2.576,2.6,2.6,0,0,1-2.784,2.56,2.6,2.6,0,0,1-2.784-2.56A2.6,2.6,0,0,1,97.776-11.488Zm26.464,5.5h-2.224a22.813,22.813,0,0,0,.416-4.912v-1.216h-9.344v.7H121.6v.512a20.449,20.449,0,0,1-.464,4.912h-9.744v.72h6v6.4h.848v-6.4h6Zm2.64,1.232c1.888-.432,4.5-1.92,5.36-4.032.88,2.1,3.5,3.568,5.408,4l.368-.688c-2.032-.352-5.344-2.32-5.344-4.768v-.7h4.944v-.72H126.864v.72h4.944v.7c0,2.448-3.3,4.448-5.312,4.816Zm5.792,3.216V-5.168h-.848v3.632h-6.016v.72h12.88v-.72ZM152-11.648h-3.7v-1.568h-.848v1.568h-3.712v.672H152Zm-6.56,3.44c0-.88.976-1.472,2.432-1.472s2.432.592,2.432,1.472-.976,1.456-2.432,1.456S145.44-7.328,145.44-8.208Zm7.024,2.848a38.977,38.977,0,0,1-4.16.4V-6.144c1.7-.112,2.784-.848,2.784-2.064,0-1.3-1.28-2.1-3.216-2.1-1.952,0-3.232.8-3.232,2.1,0,1.216,1.088,1.952,2.816,2.064v1.216c-1.456.048-2.864.048-4.048.048l.128.72a51.87,51.87,0,0,0,8.992-.56ZM145.12-2.144h8.32V1.12h.848V-2.848H145.12Zm11.424-6.512h-2.256v-4.416h-.848v9.424h.848V-7.92h2.256ZM166.5-6.9a40.771,40.771,0,0,1-6.832.48h-.256V-8.768h5.52v-3.6h-6.4v.72H164.1v2.192h-5.52V-5.7h1.088a41.916,41.916,0,0,0,6.928-.48ZM168.56.176H161.2V-1.9h7.36Zm0-2.784H161.2V-4.576h-.832V.9h9.024V-4.576h-.832Zm-.016-10.464V-5.36h.848v-7.712Z" transform="translate(432.999 -51.436)"/>
  </g>
  <g id="그룹_2485" data-name="그룹 2485" class="cls-10" transform="translate(0 608)">
    <g id="그룹_2484" data-name="그룹 2484" transform="translate(561.313 -204.95)">
      <path id="패스_2710" data-name="패스 2710" class="cls-11" d="M0,0A40.635,40.635,0,0,1-40.635,40.635,40.635,40.635,0,0,1-81.27,0,40.635,40.635,0,0,1-40.635-40.635,40.635,40.635,0,0,1,0,0"/>
    </g>
  </g>
  <path id="패스_8752" data-name="패스 8752" class="cls-12" d="M4.288.208c2.16,0,3.936-1.248,3.936-3.376A2.982,2.982,0,0,0,5.792-6.112v-.08A2.846,2.846,0,0,0,7.824-8.96c0-1.952-1.488-3.04-3.6-3.04A4.963,4.963,0,0,0,.848-10.576l.96,1.152a3.448,3.448,0,0,1,2.352-1.12A1.648,1.648,0,0,1,5.968-8.832c0,1.184-.768,2.064-3.088,2.064v1.36c2.656,0,3.488.848,3.488,2.16A1.977,1.977,0,0,1,4.128-1.3a3.806,3.806,0,0,1-2.784-1.3l-.9,1.184A4.888,4.888,0,0,0,4.288.208Z" transform="translate(516.1 388.837)"/>
  <g id="그룹-5" data-name="그룹" transform="translate(0 608)">
    <path id="패스_8769" data-name="패스 8769" class="cls-7" d="M6.144.208a4.65,4.65,0,0,0,3.664-1.7L8.816-2.656A3.432,3.432,0,0,1,6.208-1.408c-2.08,0-3.392-1.712-3.392-4.512,0-2.768,1.408-4.464,3.44-4.464a3.132,3.132,0,0,1,2.3,1.056l1.008-1.184A4.538,4.538,0,0,0,6.224-12C3.248-12,.912-9.7.912-5.856.912-2,3.184.208,6.144.208Z" transform="translate(665.657 -103.42)"/>
    <path id="패스_8770" data-name="패스 8770" class="cls-7" d="M6.032.208c3.024,0,5.136-2.352,5.136-6.144S9.056-12,6.032-12,.912-9.728.912-5.936,3.008.208,6.032.208Zm0-1.616c-1.952,0-3.216-1.76-3.216-4.528s1.264-4.448,3.216-4.448S9.264-8.7,9.264-5.936,7.984-1.408,6.032-1.408ZM13.3,0H14.96V-5.824c0-1.056-.144-2.576-.224-3.648H14.8l.928,2.72,2.064,5.616h1.152l2.048-5.616.944-2.72H22c-.1,1.072-.24,2.592-.24,3.648V0h1.728V-11.776H21.344L19.216-5.824c-.272.784-.5,1.584-.768,2.384h-.08c-.272-.8-.512-1.6-.784-2.384l-2.16-5.952H13.3Zm12.96,0H27.92V-5.824c0-1.056-.144-2.576-.224-3.648h.064l.928,2.72,2.064,5.616H31.9l2.048-5.616.944-2.72h.064c-.1,1.072-.24,2.592-.24,3.648V0h1.728V-11.776H34.3L32.176-5.824c-.272.784-.5,1.584-.768,2.384h-.08c-.272-.8-.512-1.6-.784-2.384l-2.16-5.952H26.256Zm17.28.208c2.608,0,4.368-1.424,4.368-5.264v-6.72H46.112v6.848c0,2.656-1.088,3.52-2.576,3.52-1.472,0-2.528-.864-2.528-3.52v-6.848H39.152v6.72C39.152-1.216,40.928.208,43.536.208ZM50.624,0h1.76V-5.552c0-1.28-.144-2.64-.24-3.856h.08l1.232,2.464L57.36,0h1.9V-11.776H57.5v5.488c0,1.28.144,2.7.24,3.92h-.08l-1.232-2.5-3.9-6.912h-1.9ZM62.048,0H63.9V-11.776H62.048Zm9.216.208a4.65,4.65,0,0,0,3.664-1.7l-.992-1.168a3.432,3.432,0,0,1-2.608,1.248c-2.08,0-3.392-1.712-3.392-4.512,0-2.768,1.408-4.464,3.44-4.464a3.132,3.132,0,0,1,2.3,1.056l1.008-1.184A4.538,4.538,0,0,0,71.344-12c-2.976,0-5.312,2.3-5.312,6.144C66.032-2,68.3.208,71.264.208Zm7.2-5.024.48-1.584c.384-1.28.752-2.576,1.088-3.92H80.1c.368,1.328.72,2.64,1.12,3.92l.464,1.584ZM83.12,0h1.968l-3.9-11.776H79.04L75.136,0h1.888l1.008-3.36h4.1Z" transform="translate(675.113 -103.42)"/>
    <path id="패스_8771" data-name="패스 8771" class="cls-7" d="M3.952,0H5.808V-10.224H9.28v-1.552H.5v1.552H3.952Zm7.04,0h1.856V-11.776H10.992Zm9.1.208c3.024,0,5.136-2.352,5.136-6.144S23.12-12,20.1-12s-5.12,2.272-5.12,6.064S17.072.208,20.1.208Zm0-1.616c-1.952,0-3.216-1.76-3.216-4.528s1.264-4.448,3.216-4.448,3.232,1.68,3.232,4.448S22.048-1.408,20.1-1.408ZM27.36,0h1.76V-5.552c0-1.28-.144-2.64-.24-3.856h.08l1.232,2.464L34.1,0H36V-11.776H34.24v5.488c0,1.28.144,2.7.24,3.92H34.4l-1.232-2.5-3.9-6.912h-1.9Z" transform="translate(758.793 -103.42)"/>
    <path id="패스_8772" data-name="패스 8772" class="cls-8" d="M12.464-13.088h-.848v10.56h.848Zm-2.9,7.76C7.584-6,5.84-7.728,5.84-9.792v-.544H9.248v-.7H5.84v-2H4.992v2H1.552v.7h3.44v.544A5.356,5.356,0,0,1,1.312-5.04l.432.656a6.244,6.244,0,0,0,3.7-3.744A6.161,6.161,0,0,0,9.152-4.64ZM4.384.048V-3.536H3.536v4.3h9.408V.048Zm19.488-11.6h-3.7v-1.584h-.848v1.584h-3.7v.672h8.24Zm-6.56,3.568c0-.912.976-1.52,2.432-1.52s2.432.608,2.432,1.52c0,.928-.976,1.552-2.432,1.552S17.312-7.056,17.312-7.984Zm7.024,2.992c-1.312.192-2.752.32-4.16.384v-1.2c1.7-.112,2.784-.912,2.784-2.176,0-1.344-1.28-2.16-3.216-2.16-1.952,0-3.232.816-3.232,2.16,0,1.28,1.1,2.064,2.816,2.176V-4.56c-1.456.048-2.864.064-4.048.064l.128.736A55.209,55.209,0,0,0,24.4-4.368ZM18.32-2.7h-.848V.768h9.216V.048H18.32Zm7.84-5.248v-5.136h-.848v11.12h.848V-7.232h2.256v-.72ZM40.432-9.536V-7.28h-4.1v.72h4.1v2.176h.848v-8.688h-.848v2.816H36.768a6.48,6.48,0,0,0,.224-1.7H30.64v.7h5.44c-.224,2.784-2.672,4.9-6.144,5.984l.384.7C33.3-5.5,35.568-7.216,36.512-9.536ZM36.72.368C34.4.368,32.9-.4,32.9-1.6c0-1.184,1.5-1.936,3.824-1.936,2.288,0,3.808.752,3.808,1.936C40.528-.4,39.008.368,36.72.368Zm0-4.592c-2.88,0-4.656.976-4.656,2.624,0,1.68,1.776,2.656,4.656,2.656,2.848,0,4.624-.976,4.624-2.656C41.344-3.248,39.568-4.224,36.72-4.224ZM59.5-5.872c-2.048-.416-5.344-2.464-5.344-5.04v-1.136h-.88v1.136c0,2.592-3.264,4.624-5.312,5.04l.384.688c1.9-.448,4.5-1.968,5.376-4.16.9,2.192,3.488,3.712,5.392,4.16Zm-5.36,4.32V-5.184H53.3v3.632H47.328v.72h12.9v-.72ZM68.16.4c-2.48,0-3.984-.56-3.984-1.568,0-.976,1.5-1.568,3.984-1.568s3.984.592,3.984,1.568C72.144-.16,70.64.4,68.16.4Zm0-3.792c-3.088,0-4.832.768-4.832,2.224,0,1.472,1.744,2.24,4.832,2.24S72.992.3,72.992-1.168C72.992-2.624,71.248-3.392,68.16-3.392Zm.416-2.048V-7.168h4.416v-.688H64.336v-1.76h8.192V-10.3H64.336v-1.664h8.592v-.688h-9.44v5.488h4.24V-5.44H61.744v.72H74.576v-.72Zm14.88.272a35.553,35.553,0,0,0,.432-5.76v-.528h-7.1v.7h6.272a33.644,33.644,0,0,1-.448,5.5ZM80.1-7.392h-.832v4.464c-1.168.032-2.288.032-3.3.032l.144.752a66.67,66.67,0,0,0,8.976-.528l-.064-.64A48.574,48.574,0,0,1,80.1-2.96Zm9.264.368h-2.5V-13.1h-.848V1.12h.848V-6.256h2.5ZM101.984-6c-1.952-.624-3.6-2.24-3.6-4.128v-.432h3.344v-.7H98.4v-1.92h-.848v1.92H94.176v.7h3.376v.432c0,2.064-1.728,3.76-3.712,4.432l.432.672a6.035,6.035,0,0,0,3.712-3.488,5.9,5.9,0,0,0,3.584,3.2ZM96.8-3.232h7.072V.176H96.8ZM95.968.9h8.752V-3.92H95.968ZM106.944-9.328H104.72v-3.76h-.848V-4.64h.848V-8.608h2.224Zm8.208,4.112a8.191,8.191,0,0,0,.208-1.84,8.319,8.319,0,0,0-.24-1.984H118.9v3.824Zm-3.248,2.3c-1.568,0-2.656-1.728-2.656-4.144,0-2.432,1.088-4.128,2.656-4.128s2.656,1.7,2.656,4.128C114.56-4.64,113.472-2.912,111.9-2.912ZM118.9-13.088V-9.76h-4.032a3.2,3.2,0,0,0-2.96-2.176c-2.032,0-3.456,1.92-3.456,4.88,0,2.976,1.424,4.88,3.456,4.88a3.266,3.266,0,0,0,3.024-2.32H118.9V1.12h.848V-13.088Zm15.472,1.44h-3.7v-1.568h-.848v1.568h-3.712v.672h8.256Zm-6.56,3.44c0-.88.976-1.472,2.432-1.472s2.432.592,2.432,1.472-.976,1.456-2.432,1.456S127.808-7.328,127.808-8.208Zm7.024,2.848a38.976,38.976,0,0,1-4.16.4V-6.144c1.7-.112,2.784-.848,2.784-2.064,0-1.3-1.28-2.1-3.216-2.1-1.952,0-3.232.8-3.232,2.1,0,1.216,1.088,1.952,2.816,2.064v1.216c-1.456.048-2.864.048-4.048.048l.128.72a51.869,51.869,0,0,0,8.992-.56Zm-7.344,3.216h8.32V1.12h.848V-2.848h-9.168Zm11.424-6.512h-2.256v-4.416h-.848v9.424h.848V-7.92h2.256Zm2.7,5.344v-7.28h4.464v-.736h-5.3v8.752h.88a23.083,23.083,0,0,0,5.392-.448l-.112-.736a21.126,21.126,0,0,1-5.3.448Zm9.744-9.776v5.84h-2.448v-5.488H148.1V.336h.816V-6.528h2.448V1.1h.832V-13.088Zm5.728,15.92h.752l5.28-15.408h-.768Z" transform="translate(647.513 -76.428)"/>
    <text id="_6" data-name=" " class="cls-9" transform="translate(814.473 -76.428)"><tspan x="0" y="0"> </tspan></text>
    <path id="패스_8774" data-name="패스 8774" class="cls-8" d="M1.7,0H8.32V-.832H2.656V-5.776H7.28v-.816H2.656v-4.256H8.144v-.816H1.7ZM13.472.208a4.127,4.127,0,0,0,2.72-1.1l-.448-.64a3.406,3.406,0,0,1-2.224.944c-1.792,0-2.976-1.488-2.976-3.664s1.3-3.68,2.992-3.68a2.8,2.8,0,0,1,1.952.864l.528-.64a3.607,3.607,0,0,0-2.5-1.04c-2.112,0-3.952,1.648-3.952,4.5C9.568-1.424,11.248.208,13.472.208Z" transform="translate(676.809 -51.436)"/>
    <path id="패스_8773" data-name="패스 8773" class="cls-8" d="M4.752.208c2.064,0,3.856-1.632,3.856-4.464,0-2.848-1.792-4.5-3.856-4.5S.9-7.1.9-4.256C.9-1.424,2.688.208,4.752.208Zm0-.8c-1.664,0-2.88-1.488-2.88-3.664s1.216-3.68,2.88-3.68,2.9,1.5,2.9,3.68S6.416-.592,4.752-.592Zm5.3-3.44h3.936v-.784H10.048ZM16.032,0H18.8c3.568,0,5.328-2.3,5.328-5.872s-1.76-5.792-5.344-5.792H16.032Zm.96-.816V-10.864h1.7c3.072,0,4.432,1.968,4.432,4.992S21.76-.816,18.688-.816ZM26.464,0h.912V-6.992c0-1.168-.08-2.256-.128-3.376h.08L28.64-8.032,33.392,0h.992V-11.664h-.912v6.912c0,1.136.064,2.3.128,3.456h-.08l-1.3-2.352-4.768-8.016h-.992ZM38.432-4.688l.72-2.112c.464-1.36.864-2.592,1.264-4h.064c.416,1.408.8,2.64,1.28,4l.7,2.112ZM44.016,0H45.04L40.96-11.664h-.992L35.888,0h.96l1.328-3.92H42.72Zm6.592-11.3H49.76v8.608h.848a25.219,25.219,0,0,0,5.2-.5L55.7-3.936a24.016,24.016,0,0,1-5.088.48Zm9.52-1.808v5.968H57.664v-5.616h-.816V.352h.816V-6.384h2.464v7.5h.816V-13.1ZM67.36-10.56h2.88v-.72H63.552v.72H66.56v1.536c0,2.96-1.3,5.344-3.28,6.416l.56.656a6.95,6.95,0,0,0,3.152-4.672,6.546,6.546,0,0,0,3.024,4.192l.528-.672a6.489,6.489,0,0,1-3.184-5.92Zm7.184-2.528V-7.2h-2.3v-5.536h-.816V.352h.816v-6.8h2.3V1.12h.832V-13.088ZM86.4-11.28H82.544V-13.1H81.7v1.824H77.84v.72H86.4ZM79.648-6.96c0-1.136.992-1.92,2.48-1.92,1.472,0,2.48.784,2.48,1.92,0,1.12-1.008,1.92-2.48,1.92C80.64-5.04,79.648-5.84,79.648-6.96Zm2.9,2.576c1.728-.144,2.864-1.1,2.864-2.576,0-1.6-1.328-2.608-3.28-2.608-1.968,0-3.264,1.008-3.264,2.608,0,1.472,1.12,2.432,2.832,2.576v1.776c-1.472.064-2.88.064-4.1.064l.16.736a55.706,55.706,0,0,0,9.04-.56l-.064-.656c-1.328.208-2.768.3-4.192.384ZM90.992-6.9H88.528v-6.192H87.68V1.1h.848V-6.16h2.464Z" transform="translate(692.809 -51.436)"/>
  </g>
  <g id="그룹_2487" data-name="그룹 2487" class="cls-10" transform="translate(0 608)">
    <g id="그룹_2486" data-name="그룹 2486" transform="translate(771.635 -204.95)">
      <path id="패스_2712" data-name="패스 2712" class="cls-11" d="M0,0A40.635,40.635,0,0,1-40.635,40.635,40.635,40.635,0,0,1-81.27,0,40.635,40.635,0,0,1-40.635-40.635,40.635,40.635,0,0,1,0,0"/>
    </g>
  </g>
  <path id="패스_8753" data-name="패스 8753" class="cls-12" d="M2.176-4.592,4.5-8.144c.336-.608.656-1.216.944-1.808H5.5c-.032.64-.1,1.632-.1,2.272v3.088Zm6.464,0h-1.5v-7.184H5.008L.32-4.4v1.232H5.408V0H7.136V-3.168h1.5Z" transform="translate(726.422 388.837)"/>
  <path id="패스_2714" data-name="패스 2714" class="cls-6" d="M20-462.66H816v-49.5H20Z" transform="translate(0 608)"/>
  <g id="그룹-6" data-name="그룹" transform="translate(0 608)">
    <path id="패스_8749" data-name="패스 8749" class="cls-14" d="M6.528.221a4.941,4.941,0,0,0,3.893-1.8L9.367-2.822A3.646,3.646,0,0,1,6.6-1.5c-2.21,0-3.6-1.819-3.6-4.794,0-2.941,1.5-4.743,3.655-4.743A3.328,3.328,0,0,1,9.1-9.911l1.071-1.258A4.822,4.822,0,0,0,6.613-12.75C3.451-12.75.969-10.3.969-6.222.969-2.125,3.383.221,6.528.221Zm9.333,0c2.312,0,4.4-1.785,4.4-4.879,0-3.128-2.091-4.93-4.4-4.93s-4.4,1.8-4.4,4.93C11.458-1.564,13.549.221,15.861.221Zm0-1.6c-1.462,0-2.38-1.309-2.38-3.281,0-1.989.918-3.315,2.38-3.315,1.479,0,2.4,1.326,2.4,3.315C18.258-2.686,17.34-1.377,15.861-1.377ZM22.219,0h1.938V-5.831c.595-1.479,1.513-2.006,2.278-2.006a2.766,2.766,0,0,1,.935.153l.357-1.7a2.326,2.326,0,0,0-1.054-.2,3.232,3.232,0,0,0-2.652,1.921H23.97L23.817-9.35h-1.6Zm9.656.221A3.919,3.919,0,0,0,34.6-1.054h.051L34.816,0h1.6V-13.549H34.459v3.468l.085,1.547a3.607,3.607,0,0,0-2.516-1.054c-2.091,0-4.012,1.887-4.012,4.93C28.016-1.564,29.529.221,31.875.221Zm.459-1.615c-1.462,0-2.3-1.173-2.3-3.3,0-2.023,1.054-3.264,2.363-3.264a2.932,2.932,0,0,1,2.057.85v4.573A2.748,2.748,0,0,1,32.334-1.394ZM39.015,0h1.938V-9.35H39.015Zm.969-11.1a1.173,1.173,0,0,0,1.258-1.156,1.163,1.163,0,0,0-1.258-1.156,1.149,1.149,0,0,0-1.241,1.156A1.158,1.158,0,0,0,39.984-11.1ZM45.764.221a4.648,4.648,0,0,0,2.975-1.292h.051L48.96,0h1.6V-5.627c0-2.482-1.071-3.961-3.4-3.961a7.162,7.162,0,0,0-3.774,1.224l.731,1.326a5.142,5.142,0,0,1,2.7-.952c1.377,0,1.768.952,1.785,2.04-3.893.425-5.593,1.462-5.593,3.468A2.583,2.583,0,0,0,45.764.221Zm.6-1.547c-.833,0-1.462-.374-1.462-1.292,0-1.054.935-1.751,3.706-2.091v2.3A3.3,3.3,0,0,1,46.359-1.326ZM54.927.221A3.14,3.14,0,0,0,55.981.068l-.255-1.479a1.358,1.358,0,0,1-.323.034c-.238,0-.476-.187-.476-.714V-13.549H52.989V-2.193C52.989-.68,53.516.221,54.927.221ZM61.37,0h7.259V-1.666H63.342V-12.512H61.37Zm8.959,0h1.938V-9.35H70.329ZM71.3-11.1a1.173,1.173,0,0,0,1.258-1.156A1.163,1.163,0,0,0,71.3-13.413a1.149,1.149,0,0,0-1.241,1.156A1.158,1.158,0,0,0,71.3-11.1Zm8.5-2.346a4.245,4.245,0,0,0-1.649-.323c-2.091,0-2.958,1.326-2.958,3.247V-9.35l-1.275.1v1.462h1.275V0h1.955V-7.786h1.887V-9.35H77.146v-1.19c0-1.139.408-1.683,1.241-1.683a2.543,2.543,0,0,1,1.02.238ZM84.1.221a5.672,5.672,0,0,0,3.162-.986l-.68-1.241a3.97,3.97,0,0,1-2.227.7,2.824,2.824,0,0,1-2.89-2.856h6.069a5.053,5.053,0,0,0,.085-.986c0-2.652-1.326-4.437-3.808-4.437-2.193,0-4.267,1.887-4.267,4.93C79.543-1.581,81.566.221,84.1.221ZM81.447-5.508a2.536,2.536,0,0,1,2.4-2.55c1.36,0,2.091.935,2.091,2.55ZM98,.221a4.941,4.941,0,0,0,3.893-1.8l-1.054-1.241A3.646,3.646,0,0,1,98.073-1.5c-2.21,0-3.6-1.819-3.6-4.794,0-2.941,1.5-4.743,3.655-4.743a3.328,3.328,0,0,1,2.448,1.122l1.071-1.258A4.822,4.822,0,0,0,98.09-12.75c-3.162,0-5.644,2.448-5.644,6.528C92.446-2.125,94.86.221,98,.221Zm7.8,0a4.648,4.648,0,0,0,2.975-1.292h.051L109,0h1.6V-5.627c0-2.482-1.071-3.961-3.4-3.961a7.162,7.162,0,0,0-3.774,1.224l.731,1.326a5.142,5.142,0,0,1,2.7-.952c1.377,0,1.768.952,1.785,2.04-3.893.425-5.593,1.462-5.593,3.468A2.583,2.583,0,0,0,105.808.221Zm.595-1.547c-.833,0-1.462-.374-1.462-1.292,0-1.054.935-1.751,3.706-2.091v2.3A3.3,3.3,0,0,1,106.4-1.326ZM113.033,0h1.938V-5.831c.6-1.479,1.513-2.006,2.278-2.006a2.766,2.766,0,0,1,.935.153l.357-1.7a2.326,2.326,0,0,0-1.054-.2,3.232,3.232,0,0,0-2.652,1.921h-.051l-.153-1.683h-1.6Zm10.319.221a5.672,5.672,0,0,0,3.162-.986l-.68-1.241a3.97,3.97,0,0,1-2.227.7,2.824,2.824,0,0,1-2.89-2.856h6.069a5.053,5.053,0,0,0,.085-.986c0-2.652-1.326-4.437-3.808-4.437-2.193,0-4.267,1.887-4.267,4.93C118.8-1.581,120.819.221,123.352.221ZM120.7-5.508a2.536,2.536,0,0,1,2.4-2.55c1.36,0,2.091.935,2.091,2.55ZM135.949.221c2.737,0,4.4-1.632,4.4-3.638,0-1.836-1.071-2.754-2.55-3.383l-1.717-.731c-1.02-.408-2.023-.816-2.023-1.887,0-1,.833-1.615,2.108-1.615a3.985,3.985,0,0,1,2.754,1.122l1.037-1.258a5.359,5.359,0,0,0-3.791-1.581c-2.38,0-4.114,1.479-4.114,3.451a3.6,3.6,0,0,0,2.55,3.281l1.734.748c1.156.51,2.006.867,2.006,2.006,0,1.054-.85,1.768-2.363,1.768a4.851,4.851,0,0,1-3.332-1.479l-1.156,1.36A6.242,6.242,0,0,0,135.949.221Zm10.064,0a4.556,4.556,0,0,0,3.026-1.156l-.8-1.292a3.2,3.2,0,0,1-2.04.85c-1.564,0-2.635-1.309-2.635-3.281,0-1.989,1.122-3.315,2.686-3.315a2.45,2.45,0,0,1,1.683.731l.969-1.275a4.014,4.014,0,0,0-2.737-1.071,4.594,4.594,0,0,0-4.624,4.93C141.542-1.564,143.48.221,146.013.221ZM150.654,0h1.938V-9.35h-1.938Zm.969-11.1a1.173,1.173,0,0,0,1.258-1.156,1.163,1.163,0,0,0-1.258-1.156,1.149,1.149,0,0,0-1.241,1.156A1.158,1.158,0,0,0,151.623-11.1ZM159.086.221a5.672,5.672,0,0,0,3.162-.986l-.68-1.241a3.97,3.97,0,0,1-2.227.7,2.824,2.824,0,0,1-2.89-2.856h6.069a5.053,5.053,0,0,0,.085-.986c0-2.652-1.326-4.437-3.808-4.437-2.193,0-4.267,1.887-4.267,4.93C154.53-1.581,156.553.221,159.086.221Zm-2.652-5.729a2.536,2.536,0,0,1,2.4-2.55c1.36,0,2.091.935,2.091,2.55ZM164.458,0H166.4V-6.63a3.193,3.193,0,0,1,2.295-1.275c1.1,0,1.581.646,1.581,2.261V0h1.955V-5.882c0-2.38-.884-3.706-2.873-3.706a4.455,4.455,0,0,0-3.094,1.53h-.051l-.153-1.292h-1.6Zm14.076.221A4.556,4.556,0,0,0,181.56-.935l-.8-1.292a3.2,3.2,0,0,1-2.04.85c-1.564,0-2.635-1.309-2.635-3.281,0-1.989,1.122-3.315,2.686-3.315a2.45,2.45,0,0,1,1.683.731l.969-1.275a4.014,4.014,0,0,0-2.737-1.071,4.594,4.594,0,0,0-4.624,4.93C174.063-1.564,176,.221,178.534.221Z" transform="translate(29.981 -481.223)"/>
    <path id="패스_8748" data-name="패스 8748" class="cls-14" d="M5.372.221A5.672,5.672,0,0,0,8.534-.765l-.68-1.241a3.97,3.97,0,0,1-2.227.7,2.824,2.824,0,0,1-2.89-2.856H8.806a5.053,5.053,0,0,0,.085-.986c0-2.652-1.326-4.437-3.808-4.437C2.89-9.588.816-7.7.816-4.658.816-1.581,2.839.221,5.372.221ZM2.72-5.508a2.536,2.536,0,0,1,2.4-2.55c1.36,0,2.091.935,2.091,2.55ZM15.2-3.383a2.976,2.976,0,0,1,1.343-2.159,17.634,17.634,0,0,0,3.094,3.383,3.535,3.535,0,0,1-2.159.85A2.1,2.1,0,0,1,15.2-3.383Zm1.377-6.324a1.5,1.5,0,0,1,1.411-1.683c.765,0,1.088.561,1.088,1.241,0,1.037-.884,1.717-1.972,2.414A4.757,4.757,0,0,1,16.575-9.707Zm7.854,8.33a8.476,8.476,0,0,1-2.3-1.071,13.505,13.505,0,0,0,2.176-4.4h-1.8a10.148,10.148,0,0,1-1.683,3.468A16.087,16.087,0,0,1,17.85-6.494c1.377-.986,2.771-2.023,2.771-3.672a2.455,2.455,0,0,0-2.652-2.584,2.951,2.951,0,0,0-3.043,3.06,6.356,6.356,0,0,0,.816,2.822c-1.275.85-2.414,1.887-2.414,3.6,0,1.972,1.513,3.485,3.91,3.485a5.536,5.536,0,0,0,3.723-1.377A9.616,9.616,0,0,0,23.936.221ZM33.1.221c2.737,0,4.4-1.632,4.4-3.638,0-1.836-1.071-2.754-2.55-3.383l-1.717-.731c-1.02-.408-2.023-.816-2.023-1.887,0-1,.833-1.615,2.108-1.615a3.985,3.985,0,0,1,2.754,1.122l1.037-1.258A5.359,5.359,0,0,0,33.32-12.75c-2.38,0-4.114,1.479-4.114,3.451a3.6,3.6,0,0,0,2.55,3.281l1.734.748c1.156.51,2.006.867,2.006,2.006,0,1.054-.85,1.768-2.363,1.768A4.851,4.851,0,0,1,29.8-2.975l-1.156,1.36A6.242,6.242,0,0,0,33.1.221Zm10,0c2.312,0,4.4-1.785,4.4-4.879,0-3.128-2.091-4.93-4.4-4.93s-4.4,1.8-4.4,4.93C38.692-1.564,40.783.221,43.1.221Zm0-1.6c-1.462,0-2.38-1.309-2.38-3.281,0-1.989.918-3.315,2.38-3.315,1.479,0,2.4,1.326,2.4,3.315C45.492-2.686,44.574-1.377,43.1-1.377Zm8.3,1.6A3.14,3.14,0,0,0,52.445.068L52.19-1.411a1.358,1.358,0,0,1-.323.034c-.238,0-.476-.187-.476-.714V-13.549H49.453V-2.193C49.453-.68,49.98.221,51.391.221Zm5.525,0a3.92,3.92,0,0,0,3.06-1.632h.051L60.18,0h1.6V-9.35H59.823v6.494c-.782.986-1.377,1.394-2.244,1.394-1.105,0-1.564-.629-1.564-2.244V-9.35H54.06v5.882C54.06-1.088,54.927.221,56.916.221Zm10.608,0a5.982,5.982,0,0,0,1.836-.34L69-1.564a2.788,2.788,0,0,1-1,.221c-.969,0-1.36-.578-1.36-1.7V-7.786h2.431V-9.35H66.64v-2.584H64.991L64.77-9.35l-1.445.1v1.462h1.36V-3.06C64.685-1.088,65.416.221,67.524.221ZM70.771,0h1.938V-9.35H70.771Zm.969-11.1A1.173,1.173,0,0,0,73-12.257a1.163,1.163,0,0,0-1.258-1.156A1.149,1.149,0,0,0,70.5-12.257,1.158,1.158,0,0,0,71.74-11.1ZM79.05.221c2.312,0,4.4-1.785,4.4-4.879,0-3.128-2.091-4.93-4.4-4.93s-4.4,1.8-4.4,4.93C74.647-1.564,76.738.221,79.05.221Zm0-1.6c-1.462,0-2.38-1.309-2.38-3.281,0-1.989.918-3.315,2.38-3.315,1.479,0,2.4,1.326,2.4,3.315C81.447-2.686,80.529-1.377,79.05-1.377ZM85.408,0h1.938V-6.63a3.193,3.193,0,0,1,2.295-1.275c1.105,0,1.581.646,1.581,2.261V0h1.955V-5.882c0-2.38-.884-3.706-2.873-3.706a4.455,4.455,0,0,0-3.094,1.53h-.051L87.006-9.35h-1.6Zm18.8.221a4.941,4.941,0,0,0,3.893-1.8l-1.054-1.241A3.646,3.646,0,0,1,104.278-1.5c-2.21,0-3.6-1.819-3.6-4.794,0-2.941,1.5-4.743,3.655-4.743a3.328,3.328,0,0,1,2.448,1.122l1.071-1.258a4.822,4.822,0,0,0-3.553-1.581c-3.162,0-5.644,2.448-5.644,6.528C98.651-2.125,101.065.221,104.21.221Zm9.333,0c2.312,0,4.4-1.785,4.4-4.879,0-3.128-2.091-4.93-4.4-4.93s-4.4,1.8-4.4,4.93C109.14-1.564,111.231.221,113.543.221Zm0-1.6c-1.462,0-2.38-1.309-2.38-3.281,0-1.989.918-3.315,2.38-3.315,1.479,0,2.4,1.326,2.4,3.315C115.94-2.686,115.022-1.377,113.543-1.377ZM119.9,0h1.938V-6.63a3.156,3.156,0,0,1,2.108-1.275c1.071,0,1.564.646,1.564,2.261V0h1.955V-6.63a3.121,3.121,0,0,1,2.108-1.275c1.054,0,1.564.646,1.564,2.261V0h1.955V-5.882c0-2.38-.918-3.706-2.873-3.706a4.308,4.308,0,0,0-3.043,1.717,2.5,2.5,0,0,0-2.584-1.717,4.073,4.073,0,0,0-2.89,1.547h-.051L121.5-9.35h-1.6Zm15.674,3.791h1.938V.765l-.051-1.6A3.856,3.856,0,0,0,139.927.221c2.108,0,4.029-1.836,4.029-5.049,0-2.873-1.326-4.76-3.706-4.76a4.74,4.74,0,0,0-2.873,1.258h-.051l-.153-1.02h-1.6Zm3.978-5.185a3.169,3.169,0,0,1-2.04-.85V-6.817a3.285,3.285,0,0,1,2.227-1.139c1.564,0,2.193,1.207,2.193,3.162C141.933-2.6,140.913-1.394,139.553-1.394Z" transform="translate(214.04 -481.223)"/>
    <path id="패스_8747" data-name="패스 8747" class="cls-14" d="M3.689.221A4.648,4.648,0,0,0,6.664-1.071h.051L6.885,0h1.6V-5.627c0-2.482-1.071-3.961-3.4-3.961A7.162,7.162,0,0,0,1.309-8.364L2.04-7.038a5.142,5.142,0,0,1,2.7-.952c1.377,0,1.768.952,1.785,2.04C2.635-5.525.935-4.488.935-2.482A2.583,2.583,0,0,0,3.689.221Zm.6-1.547c-.833,0-1.462-.374-1.462-1.292,0-1.054.935-1.751,3.706-2.091v2.3A3.3,3.3,0,0,1,4.284-1.326ZM10.914,0h1.938V-6.63a3.193,3.193,0,0,1,2.3-1.275c1.105,0,1.581.646,1.581,2.261V0h1.955V-5.882c0-2.38-.884-3.706-2.873-3.706a4.455,4.455,0,0,0-3.094,1.53h-.051L12.512-9.35h-1.6ZM28.73-9.35h-1.9l-1.5,4.811L24.6-1.9h-.085c-.289-.867-.578-1.8-.85-2.635L21.93-9.35H19.924L23.63-.068l-.187.646c-.34,1-.935,1.751-1.955,1.751a2.533,2.533,0,0,1-.68-.136l-.374,1.53a3.325,3.325,0,0,0,1.173.187c1.972,0,2.958-1.343,3.689-3.349Z" transform="translate(359.054 -481.223)"/>
    <path id="패스_8743" data-name="패스 8743" class="cls-14" d="M6.749.221A5.621,5.621,0,0,0,10.71-1.241V-6.664H6.443v1.615H8.925v2.941A3.1,3.1,0,0,1,6.953-1.5C4.369-1.5,2.992-3.315,2.992-6.29c0-2.941,1.547-4.743,3.876-4.743A3.384,3.384,0,0,1,9.452-9.911l1.071-1.258A4.991,4.991,0,0,0,6.8-12.75C3.485-12.75.969-10.3.969-6.222.969-2.125,3.4.221,6.749.221ZM13.056,0h1.938V-5.831c.6-1.479,1.513-2.006,2.278-2.006a2.766,2.766,0,0,1,.935.153l.357-1.7a2.326,2.326,0,0,0-1.054-.2,3.232,3.232,0,0,0-2.652,1.921h-.051L14.654-9.35h-1.6ZM23.375.221a5.672,5.672,0,0,0,3.162-.986l-.68-1.241a3.97,3.97,0,0,1-2.227.7,2.824,2.824,0,0,1-2.89-2.856h6.069a5.053,5.053,0,0,0,.085-.986c0-2.652-1.326-4.437-3.808-4.437-2.193,0-4.267,1.887-4.267,4.93C18.819-1.581,20.842.221,23.375.221ZM20.723-5.508a2.536,2.536,0,0,1,2.4-2.55c1.36,0,2.091.935,2.091,2.55ZM32.64.221A5.672,5.672,0,0,0,35.8-.765l-.68-1.241a3.97,3.97,0,0,1-2.227.7A2.824,2.824,0,0,1,30-4.165h6.069a5.053,5.053,0,0,0,.085-.986c0-2.652-1.326-4.437-3.808-4.437-2.193,0-4.267,1.887-4.267,4.93C28.084-1.581,30.107.221,32.64.221ZM29.988-5.508a2.536,2.536,0,0,1,2.4-2.55c1.36,0,2.091.935,2.091,2.55ZM38.012,0H39.95V-6.63a3.193,3.193,0,0,1,2.3-1.275c1.1,0,1.581.646,1.581,2.261V0h1.955V-5.882c0-2.38-.884-3.706-2.873-3.706a4.455,4.455,0,0,0-3.094,1.53h-.051L39.61-9.35h-1.6ZM57.035.221A5.621,5.621,0,0,0,61-1.241V-6.664H56.729v1.615h2.482v2.941a3.1,3.1,0,0,1-1.972.612c-2.584,0-3.961-1.819-3.961-4.794,0-2.941,1.547-4.743,3.876-4.743a3.384,3.384,0,0,1,2.584,1.122l1.071-1.258a4.991,4.991,0,0,0-3.723-1.581c-3.315,0-5.831,2.448-5.831,6.528C51.255-2.125,53.686.221,57.035.221Zm8.245,0A3.14,3.14,0,0,0,66.334.068l-.255-1.479a1.358,1.358,0,0,1-.323.034c-.238,0-.476-.187-.476-.714V-13.549H63.342V-2.193C63.342-.68,63.869.221,65.28.221Zm6.528,0c2.312,0,4.4-1.785,4.4-4.879,0-3.128-2.091-4.93-4.4-4.93s-4.4,1.8-4.4,4.93C67.4-1.564,69.5.221,71.808.221Zm0-1.6c-1.462,0-2.38-1.309-2.38-3.281,0-1.989.918-3.315,2.38-3.315,1.479,0,2.4,1.326,2.4,3.315C74.2-2.686,73.287-1.377,71.808-1.377Zm10.71,1.6c2.108,0,4.029-1.836,4.029-5.049,0-2.873-1.343-4.76-3.706-4.76a4.463,4.463,0,0,0-2.788,1.224l.051-1.6v-3.587H78.166V0H79.7l.187-.969h.051A3.883,3.883,0,0,0,82.518.221Zm-.374-1.615a3.136,3.136,0,0,1-2.04-.85V-6.817a3.253,3.253,0,0,1,2.227-1.139c1.564,0,2.193,1.207,2.193,3.162C84.524-2.6,83.5-1.394,82.144-1.394Z" transform="translate(634.127 -481.223)"/>
    <path id="패스_8744" data-name="패스 8744" class="cls-14" d="M3.689.221A4.648,4.648,0,0,0,6.664-1.071h.051L6.885,0h1.6V-5.627c0-2.482-1.071-3.961-3.4-3.961A7.162,7.162,0,0,0,1.309-8.364L2.04-7.038a5.142,5.142,0,0,1,2.7-.952c1.377,0,1.768.952,1.785,2.04C2.635-5.525.935-4.488.935-2.482A2.583,2.583,0,0,0,3.689.221Zm.6-1.547c-.833,0-1.462-.374-1.462-1.292,0-1.054.935-1.751,3.706-2.091v2.3A3.3,3.3,0,0,1,4.284-1.326ZM12.852.221A3.14,3.14,0,0,0,13.906.068l-.255-1.479a1.358,1.358,0,0,1-.323.034c-.238,0-.476-.187-.476-.714V-13.549H10.914V-2.193C10.914-.68,11.441.221,12.852.221ZM19.3,0h7.259V-1.666H21.267V-12.512H19.3Z" transform="translate(721.847 -481.223)"/>
    <path id="패스_8745" data-name="패스 8745" class="cls-14" d="M5.372.221A5.672,5.672,0,0,0,8.534-.765l-.68-1.241a3.97,3.97,0,0,1-2.227.7,2.824,2.824,0,0,1-2.89-2.856H8.806a5.053,5.053,0,0,0,.085-.986c0-2.652-1.326-4.437-3.808-4.437C2.89-9.588.816-7.7.816-4.658.816-1.581,2.839.221,5.372.221ZM2.72-5.508a2.536,2.536,0,0,1,2.4-2.55c1.36,0,2.091.935,2.091,2.55Z" transform="translate(749.319 -481.223)"/>
    <path id="패스_8746" data-name="패스 8746" class="cls-14" d="M3.689.221A4.648,4.648,0,0,0,6.664-1.071h.051L6.885,0h1.6V-5.627c0-2.482-1.071-3.961-3.4-3.961A7.162,7.162,0,0,0,1.309-8.364L2.04-7.038a5.142,5.142,0,0,1,2.7-.952c1.377,0,1.768.952,1.785,2.04C2.635-5.525.935-4.488.935-2.482A2.583,2.583,0,0,0,3.689.221Zm.6-1.547c-.833,0-1.462-.374-1.462-1.292,0-1.054.935-1.751,3.706-2.091v2.3A3.3,3.3,0,0,1,4.284-1.326ZM14.144.221a3.919,3.919,0,0,0,2.72-1.275h.051L17.085,0h1.6V-13.549H16.728v3.468l.085,1.547A3.607,3.607,0,0,0,14.3-9.588c-2.091,0-4.012,1.887-4.012,4.93C10.285-1.564,11.8.221,14.144.221ZM14.6-1.394c-1.462,0-2.3-1.173-2.3-3.3,0-2.023,1.054-3.264,2.363-3.264a2.932,2.932,0,0,1,2.057.85v4.573A2.748,2.748,0,0,1,14.6-1.394ZM25.177.221a5.673,5.673,0,0,0,3.162-.986l-.68-1.241a3.97,3.97,0,0,1-2.227.7,2.824,2.824,0,0,1-2.89-2.856h6.069a5.053,5.053,0,0,0,.085-.986c0-2.652-1.326-4.437-3.808-4.437-2.193,0-4.267,1.887-4.267,4.93C20.621-1.581,22.644.221,25.177.221ZM22.525-5.508a2.536,2.536,0,0,1,2.4-2.55c1.36,0,2.091.935,2.091,2.55ZM30.549,0h1.938V-5.831c.6-1.479,1.513-2.006,2.278-2.006a2.766,2.766,0,0,1,.935.153l.357-1.7A2.326,2.326,0,0,0,35-9.588a3.232,3.232,0,0,0-2.652,1.921H32.3L32.147-9.35h-1.6Z" transform="translate(758.329 -481.223)"/>
  </g>
  <g id="그룹_2488" data-name="그룹 2488" transform="translate(414.167 120.59)">
    <path id="패스_2715" data-name="패스 2715" class="cls-15" d="M0,0H198"/>
  </g>
  <g id="그룹_2492" data-name="그룹 2492" class="cls-10" transform="translate(0 608)">
    <g id="그룹_2489" data-name="그룹 2489" transform="translate(117.042 -192.986)">
      <path id="패스_2716" data-name="패스 2716" class="cls-8" d="M0,0-.467,7.527s-3.895,4.7-3.5,6.037l-7.789.056,3.583-8.759Z"/>
    </g>
    <g id="그룹_2490" data-name="그룹 2490" transform="translate(116.404 -194.034)">
      <path id="패스_2717" data-name="패스 2717" class="cls-8" d="M0,0V-7.728s0-2.886,2-2.886S4.6-9.075,4.6-7.343V.738a10.231,10.231,0,0,1-2,5.772C.249,9.28-3.6,11.9-3.8,14.976"/>
    </g>
    <g id="그룹_2491" data-name="그룹 2491" transform="translate(112.005 -187.636)">
      <path id="패스_2718" data-name="패스 2718" class="cls-8" d="M0,0,3.722-3.7s2.351-1.945.392-3.695S-.2-5.835-.2-5.835l-3.526,3.7S-6.857.389-6.857,3.112v6.03"/>
    </g>
  </g>
  <path id="패스_2720" data-name="패스 2720" class="cls-8" d="M115.26-175.151H102.953v-4.691H115.26Z" transform="translate(0 608)"/>
  <g id="그룹_2496" data-name="그룹 2496" class="cls-10" transform="translate(0 608)">
    <g id="그룹_2493" data-name="그룹 2493" transform="translate(85.01 -192.986)">
      <path id="패스_2721" data-name="패스 2721" class="cls-8" d="M0,0,.467,7.527s3.895,4.7,3.5,6.037l7.789.056L8.178,4.861Z"/>
    </g>
    <g id="그룹_2494" data-name="그룹 2494" transform="translate(85.648 -194.034)">
      <path id="패스_2722" data-name="패스 2722" class="cls-8" d="M0,0V-7.728s0-2.886-2-2.886S-4.6-9.075-4.6-7.343V.738a10.231,10.231,0,0,0,2,5.772C-.249,9.28,3.6,11.9,3.8,14.976"/>
    </g>
    <g id="그룹_2495" data-name="그룹 2495" transform="translate(90.047 -187.636)">
      <path id="패스_2723" data-name="패스 2723" class="cls-8" d="M0,0-3.722-3.7s-2.351-1.945-.392-3.695S.2-5.835.2-5.835l3.526,3.7S6.857.389,6.857,3.112v6.03"/>
    </g>
  </g>
  <path id="패스_2725" data-name="패스 2725" class="cls-8" d="M86.791-175.151H99.1v-4.691H86.791Z" transform="translate(0 608)"/>
  <g id="그룹_2501" data-name="그룹 2501" class="cls-10" transform="translate(0 608)">
    <g id="그룹_2497" data-name="그룹 2497" transform="translate(115.301 -194.367)">
      <path id="패스_2726" data-name="패스 2726" class="cls-6" d="M0,0-.455,7.334s-3.788,4.584-3.409,5.883l-7.577.054,3.485-8.534Z"/>
    </g>
    <g id="그룹_2498" data-name="그룹 2498" transform="translate(115.301 -194.367)">
      <path id="패스_2727" data-name="패스 2727" class="cls-16" d="M0,0-.455,7.334s-3.788,4.584-3.409,5.883l-7.577.054,3.485-8.534Z"/>
    </g>
    <g id="그룹_2499" data-name="그룹 2499" transform="translate(114.811 -195.571)">
      <path id="패스_2728" data-name="패스 2728" class="cls-17" d="M0,0V-7.689S0-10.56,1.94-10.56,4.462-9.029,4.462-7.306V.734a10.356,10.356,0,0,1-1.94,5.743C.242,9.233-3.492,11.838-3.686,14.9"/>
    </g>
    <g id="그룹_2500" data-name="그룹 2500" transform="translate(110.38 -189.176)">
      <path id="패스_2729" data-name="패스 2729" class="cls-17" d="M0,0,3.644-3.669s2.3-1.931.384-3.669S-.192-5.793-.192-5.793L-3.644-2.124S-6.713.386-6.713,3.09V9.076"/>
    </g>
  </g>
  <path id="패스_2731" data-name="패스 2731" class="cls-17" d="M113.534-176.879H101.473v-4.446h12.061Z" transform="translate(0 608)"/>
  <g id="그룹_2506" data-name="그룹 2506" class="cls-10" transform="translate(0 608)">
    <g id="그룹_2502" data-name="그룹 2502" transform="translate(83.542 -194.367)">
      <path id="패스_2732" data-name="패스 2732" class="cls-6" d="M0,0,.455,7.334s3.788,4.584,3.409,5.883l7.577.054L7.956,4.737Z"/>
    </g>
    <g id="그룹_2503" data-name="그룹 2503" transform="translate(83.542 -194.367)">
      <path id="패스_2733" data-name="패스 2733" class="cls-16" d="M0,0,.455,7.334s3.788,4.584,3.409,5.883l7.577.054L7.956,4.737Z"/>
    </g>
    <g id="그룹_2504" data-name="그룹 2504" transform="translate(84.033 -195.571)">
      <path id="패스_2734" data-name="패스 2734" class="cls-17" d="M0,0V-7.689S0-10.56-1.94-10.56-4.462-9.029-4.462-7.306V.734a10.356,10.356,0,0,0,1.94,5.743c2.28,2.756,6.014,5.361,6.208,8.423"/>
    </g>
    <g id="그룹_2505" data-name="그룹 2505" transform="translate(88.464 -189.176)">
      <path id="패스_2735" data-name="패스 2735" class="cls-17" d="M0,0-3.644-3.669s-2.3-1.931-.384-3.669S.192-5.793.192-5.793L3.644-2.124S6.713.386,6.713,3.09V9.076"/>
    </g>
  </g>
  <path id="패스_2737" data-name="패스 2737" class="cls-17" d="M85.31-176.879H97.371v-4.446H85.31Z" transform="translate(0 608)"/>
  <g id="그룹_2511" data-name="그룹 2511" class="cls-10" transform="translate(0 608)">
    <g id="그룹_2507" data-name="그룹 2507" transform="translate(88.725 -210.131)">
      <path id="패스_2738" data-name="패스 2738" class="cls-8" d="M0,0S14.491-.033,12.273,11.371C.839,13.583,0,0,0,0"/>
    </g>
    <g id="그룹_2508" data-name="그룹 2508" transform="translate(111.77 -210.13)">
      <path id="패스_2739" data-name="패스 2739" class="cls-8" d="M0,0S-14.491-.033-12.273,11.371C-.839,13.583,0,0,0,0"/>
    </g>
    <g id="그룹_2509" data-name="그룹 2509" transform="translate(87.579 -211.273)">
      <path id="패스_2740" data-name="패스 2740" class="cls-6" d="M0,0S13.361.142,11.214,11.183C.142,13.325,0,0,0,0"/>
    </g>
    <g id="그룹_2510" data-name="그룹 2510" transform="translate(87.579 -211.273)">
      <path id="패스_2741" data-name="패스 2741" class="cls-16" d="M0,0S13.361.142,11.214,11.183C.142,13.325,0,0,0,0Z"/>
    </g>
  </g>
  <g id="그룹_2512" data-name="그룹 2512" transform="translate(98.711 407.76)">
    <path id="패스_2743" data-name="패스 2743" class="cls-16" d="M0,0-4.344-4.328"/>
  </g>
  <g id="그룹_2515" data-name="그룹 2515" class="cls-10" transform="translate(0 608)">
    <g id="그룹_2513" data-name="그룹 2513" transform="translate(110.777 -211.273)">
      <path id="패스_2744" data-name="패스 2744" class="cls-6" d="M0,0S-13.362.142-11.214,11.183C-.142,13.325,0,0,0,0"/>
    </g>
    <g id="그룹_2514" data-name="그룹 2514" transform="translate(110.777 -211.273)">
      <path id="패스_2745" data-name="패스 2745" class="cls-16" d="M0,0S-13.362.142-11.214,11.183C-.142,13.325,0,0,0,0Z"/>
    </g>
  </g>
  <g id="그룹_2516" data-name="그룹 2516" transform="translate(99.645 407.76)">
    <path id="패스_2747" data-name="패스 2747" class="cls-16" d="M0,0,4.344-4.328"/>
  </g>
  <g id="그룹_2517" data-name="그룹 2517" transform="translate(99.209 405.091)">
    <path id="패스_2748" data-name="패스 2748" class="cls-16" d="M0,0V7.719"/>
  </g>
  <g id="그룹_2536" data-name="그룹 2536" class="cls-10" transform="translate(0 608)">
    <g id="그룹_2518" data-name="그룹 2518" transform="translate(321.863 -198.834)">
      <path id="패스_2749" data-name="패스 2749" class="cls-8" d="M0,0S2.807-5.129-1.737-7.86s-14.768-2.932-21.05,4.6c0,0,6.014-.133,9.823,3.93S-3.408,4.8,0,0"/>
    </g>
    <g id="그룹_2519" data-name="그룹 2519" transform="translate(299.343 -195.16)">
      <path id="패스_2750" data-name="패스 2750" class="cls-8" d="M0,0S-5.825.65-5.463,5.927.6,19.668,10.388,20.48c0,0-3.559-4.835-2.4-10.276S5.9.032,0,0"/>
    </g>
    <g id="그룹_2520" data-name="그룹 2520" transform="translate(314.436 -178.523)">
      <path id="패스_2751" data-name="패스 2751" class="cls-8" d="M0,0S3.225,4.878,7.778,2.161s9.529-11.622,5.811-20.685c0,0-2.706,5.356-8.093,6.8S-2.648-5.251,0,0"/>
    </g>
    <g id="그룹_2521" data-name="그룹 2521" transform="translate(324.87 -196.436)">
      <path id="패스_2752" data-name="패스 2752" class="cls-8" d="M0,0S0-6.661-17.107-7.461"/>
    </g>
    <g id="그룹_2522" data-name="그룹 2522" transform="translate(315.782 -205.229)">
      <path id="패스_2753" data-name="패스 2753" class="cls-8" d="M0,0A2.868,2.868,0,0,1,1.2,2.665a2.342,2.342,0,0,1-2,2.4"/>
    </g>
    <g id="그룹_2523" data-name="그룹 2523" transform="translate(299.589 -198.991)">
      <path id="패스_2754" data-name="패스 2754" class="cls-8" d="M0,0S-5.474,3.821,3.681,18.249"/>
    </g>
    <g id="그룹_2524" data-name="그룹 2524" transform="translate(297.576 -186.527)">
      <path id="패스_2755" data-name="패스 2755" class="cls-8" d="M0,0A2.867,2.867,0,0,1,1.5-2.511a2.351,2.351,0,0,1,3.12.262"/>
    </g>
    <g id="그룹_2525" data-name="그룹 2525" transform="translate(310.9 -177.002)">
      <path id="패스_2756" data-name="패스 2756" class="cls-8" d="M0,0S5.9,3.127,14.639-11.554"/>
    </g>
    <g id="그룹_2526" data-name="그룹 2526" transform="translate(322.954 -180.873)">
      <path id="패스_2757" data-name="패스 2757" class="cls-8" d="M0,0A2.887,2.887,0,0,1-2.925-.192,2.337,2.337,0,0,1-4.108-3.083"/>
    </g>
    <g id="그룹_2527" data-name="그룹 2527" transform="translate(319.833 -200.846)">
      <path id="패스_2758" data-name="패스 2758" class="cls-6" d="M0,0S2.8-5.106-1.731-7.825-16.44-10.743-22.7-3.249c0,0,5.991-.133,9.784,3.912S-3.395,4.775,0,0"/>
    </g>
    <g id="그룹_2528" data-name="그룹 2528" transform="translate(319.833 -200.846)">
      <path id="패스_2759" data-name="패스 2759" class="cls-16" d="M0,0S2.8-5.106-1.731-7.825-16.44-10.743-22.7-3.249c0,0,5.991-.133,9.784,3.912S-3.395,4.775,0,0Z"/>
    </g>
    <g id="그룹_2529" data-name="그룹 2529" transform="translate(297.336 -197.129)">
      <path id="패스_2760" data-name="패스 2760" class="cls-6" d="M0,0S-5.792.648-5.432,5.908.6,19.6,10.329,20.414c0,0-3.539-4.819-2.391-10.243S5.863.032,0,0"/>
    </g>
    <g id="그룹_2530" data-name="그룹 2530" transform="translate(297.336 -197.129)">
      <path id="패스_2761" data-name="패스 2761" class="cls-16" d="M0,0S-5.792.648-5.432,5.908.6,19.6,10.329,20.414c0,0-3.539-4.819-2.391-10.243S5.863.032,0,0Z"/>
    </g>
    <g id="그룹_2531" data-name="그룹 2531" transform="translate(312.456 -180.538)">
      <path id="패스_2762" data-name="패스 2762" class="cls-6" d="M0,0S3.214,4.856,7.75,2.151s9.5-11.569,5.79-20.591c0,0-2.7,5.332-8.064,6.77S-2.639-5.227,0,0"/>
    </g>
    <g id="그룹_2532" data-name="그룹 2532" transform="translate(312.456 -180.538)">
      <path id="패스_2763" data-name="패스 2763" class="cls-16" d="M0,0S3.214,4.856,7.75,2.151s9.5-11.569,5.79-20.591c0,0-2.7,5.332-8.064,6.77S-2.639-5.227,0,0Z"/>
    </g>
    <g id="그룹_2533" data-name="그룹 2533" transform="translate(322.837 -198.434)">
      <path id="패스_2764" data-name="패스 2764" class="cls-16" d="M0,0S0-5.429-12.6-7.049"/>
    </g>
    <g id="그룹_2534" data-name="그룹 2534" transform="translate(297.463 -200.978)">
      <path id="패스_2765" data-name="패스 2765" class="cls-16" d="M0,0S-3.806,2.914.813,13.272"/>
    </g>
    <g id="그룹_2535" data-name="그룹 2535" transform="translate(308.906 -179.026)">
      <path id="패스_2766" data-name="패스 2766" class="cls-16" d="M0,0S4.95,2.6,12.492-8.168"/>
    </g>
  </g>
  <g id="그룹_2537" data-name="그룹 2537" transform="translate(510.598 409.892)">
    <path id="패스_2768" data-name="패스 2768" class="cls-8" d="M0,0,5.554-9.2H16.975l2.894,4.6,1.8-.536L18.539.843h-7.2L12.829-.383,11.264-2.529,6.649,4.905Z"/>
  </g>
  <g id="그룹_2538" data-name="그룹 2538" transform="translate(533.472 410.9)">
    <path id="패스_2769" data-name="패스 2769" class="cls-8" d="M0,0,6.175,8.809,1.366,18.959l-5.475.636-.261,1.824-4.217-5.3,3.03-6.4.51,1.838,2.645-.487L-7.341,3.844Z"/>
  </g>
  <g id="그룹_2539" data-name="그룹 2539" transform="translate(521.461 430.542)">
    <path id="패스_2770" data-name="패스 2770" class="cls-8" d="M0,0-10.9.387l-6.167-9.419,2.387-4.87L-16.112-15.1l6.825-.648L-5.4-9.809l-1.856-.564-1,2.45L.623-8.132Z"/>
  </g>
  <g id="그룹_2540" data-name="그룹 2540" transform="translate(508.505 407.665)">
    <path id="패스_2771" data-name="패스 2771" class="cls-6" d="M0,0,5.483-9.06H16.758l2.858,4.53,1.776-.528L18.3.831H11.2L12.665-.378,11.121-2.492,6.564,4.832Z"/>
  </g>
  <g id="그룹_2541" data-name="그룹 2541" transform="translate(508.505 407.665)">
    <path id="패스_2772" data-name="패스 2772" class="cls-16" d="M0,0,5.483-9.06H16.758l2.858,4.53,1.776-.528L18.3.831H11.2L12.665-.378,11.121-2.492,6.564,4.832Z"/>
  </g>
  <g id="그룹_2542" data-name="그룹 2542" transform="translate(531.255 408.83)">
    <path id="패스_2773" data-name="패스 2773" class="cls-6" d="M0,0,6.1,8.684l-4.748,10-5.406.627-.258,1.8-4.163-5.223,2.992-6.305.5,1.811,2.612-.48L-7.247,3.789Z"/>
  </g>
  <g id="그룹_2543" data-name="그룹 2543" transform="translate(531.255 408.83)">
    <path id="패스_2774" data-name="패스 2774" class="cls-16" d="M0,0,6.1,8.684l-4.748,10-5.406.627-.258,1.8-4.163-5.223,2.992-6.305.5,1.811,2.612-.48L-7.247,3.789Z"/>
  </g>
  <g id="그룹_2544" data-name="그룹 2544" transform="translate(519.18 428.274)">
    <path id="패스_2775" data-name="패스 2775" class="cls-6" d="M0,0-10.79.382-16.9-8.928l2.363-4.814-1.418-1.18,6.757-.641L-5.347-9.7l-1.837-.557-.989,2.421,8.79-.207Z"/>
  </g>
  <g id="그룹_2545" data-name="그룹 2545" transform="translate(519.18 428.274)">
    <path id="패스_2776" data-name="패스 2776" class="cls-16" d="M0,0-10.79.382-16.9-8.928l2.363-4.814-1.418-1.18,6.757-.641L-5.347-9.7l-1.837-.557-.989,2.421,8.79-.207Z"/>
  </g>
  <g id="그룹_2550" data-name="그룹 2550" class="cls-10" transform="translate(0 608)">
    <g id="그룹_2546" data-name="그룹 2546" transform="translate(746.443 -209.433)">
      <path id="패스_2777" data-name="패스 2777" class="cls-8" d="M0,0S-17.435.186-14.633,14.633C-.186,17.435,0,0,0,0"/>
    </g>
    <g id="그룹_2547" data-name="그룹 2547" transform="translate(720.601 -205.232)">
      <path id="패스_2778" data-name="패스 2778" class="cls-8" d="M0,0S13.161-.03,11.147,10.354C.762,12.368,0,0,0,0"/>
    </g>
    <g id="그룹_2548" data-name="그룹 2548" transform="translate(720.652 -186.006)">
      <path id="패스_2779" data-name="패스 2779" class="cls-8" d="M0,0A3.176,3.176,0,0,0,3.176-3.176,3.176,3.176,0,0,0,0-6.352,3.176,3.176,0,0,0-3.176-3.176,3.176,3.176,0,0,0,0,0"/>
    </g>
    <g id="그룹_2549" data-name="그룹 2549" transform="translate(714.385 -175.996)">
      <path id="패스_2780" data-name="패스 2780" class="cls-8" d="M0,0C.007-1.314.013-4.141.013-6.318.013-9.344,3.5-8.977,3.5-8.977h6.545l2.8-2.521,1.814-1.658s.5-.752,1.422.084-.5,3.092-1.407,3.728L9.8-4.531,9.8,0"/>
    </g>
  </g>
  <g id="그룹_2551" data-name="그룹 2551" transform="translate(716.91 432.004)">
    <path id="패스_2782" data-name="패스 2782" class="cls-16" d="M0,0V-5.473"/>
  </g>
  <g id="그룹_2554" data-name="그룹 2554" class="cls-10" transform="translate(0 608)">
    <g id="그룹_2552" data-name="그룹 2552" transform="translate(742.845 -186.006)">
      <path id="패스_2783" data-name="패스 2783" class="cls-8" d="M0,0A3.176,3.176,0,0,1-3.176-3.176,3.176,3.176,0,0,1,0-6.352,3.176,3.176,0,0,1,3.176-3.176,3.176,3.176,0,0,1,0,0"/>
    </g>
    <g id="그룹_2553" data-name="그룹 2553" transform="translate(749.112 -175.996)">
      <path id="패스_2784" data-name="패스 2784" class="cls-8" d="M0,0C-.007-1.314-.013-4.141-.013-6.318-.013-9.344-3.5-8.977-3.5-8.977h-6.545l-2.8-2.521-1.814-1.658s-.5-.752-1.422.084.5,3.092,1.407,3.728L-9.8-4.531-9.8,0"/>
    </g>
  </g>
  <g id="그룹_2555" data-name="그룹 2555" transform="translate(746.587 432.004)">
    <path id="패스_2786" data-name="패스 2786" class="cls-16" d="M0,0V-5.473"/>
  </g>
  <g id="그룹_2558" data-name="그룹 2558" class="cls-10" transform="translate(0 608)">
    <g id="그룹_2556" data-name="그룹 2556" transform="translate(745.231 -210.645)">
      <path id="패스_2787" data-name="패스 2787" class="cls-6" d="M0,0S-17.435.186-14.633,14.633C-.186,17.435,0,0,0,0"/>
    </g>
    <g id="그룹_2557" data-name="그룹 2557" transform="translate(745.231 -210.645)">
      <path id="패스_2788" data-name="패스 2788" class="cls-16" d="M0,0S-17.435.186-14.633,14.633C-.186,17.435,0,0,0,0Z"/>
    </g>
  </g>
  <g id="그룹_2559" data-name="그룹 2559" transform="translate(730.786 411.716)">
    <path id="패스_2790" data-name="패스 2790" class="cls-16" d="M0,0,5.887-5.887"/>
  </g>
  <g id="그룹_2562" data-name="그룹 2562" class="cls-10" transform="translate(0 608)">
    <g id="그룹_2560" data-name="그룹 2560" transform="translate(719.39 -206.444)">
      <path id="패스_2791" data-name="패스 2791" class="cls-6" d="M0,0S12.532.134,10.518,10.518C.134,12.532,0,0,0,0"/>
    </g>
    <g id="그룹_2561" data-name="그룹 2561" transform="translate(719.39 -206.444)">
      <path id="패스_2792" data-name="패스 2792" class="cls-16" d="M0,0S12.532.134,10.518,10.518C.134,12.532,0,0,0,0Z"/>
    </g>
  </g>
  <g id="그룹_2563" data-name="그룹 2563" transform="translate(729.79 411.895)">
    <path id="패스_2794" data-name="패스 2794" class="cls-16" d="M0,0-4.183-4.183"/>
  </g>
  <g id="그룹_2567" data-name="그룹 2567" class="cls-10" transform="translate(0 608)">
    <g id="그룹_2564" data-name="그룹 2564" transform="translate(719.44 -187.219)">
      <path id="패스_2795" data-name="패스 2795" class="cls-6" d="M0,0A3.176,3.176,0,0,0,3.176-3.176,3.176,3.176,0,0,0,0-6.352,3.176,3.176,0,0,0-3.176-3.176,3.176,3.176,0,0,0,0,0"/>
    </g>
    <g id="그룹_2565" data-name="그룹 2565" transform="translate(719.44 -187.219)">
      <path id="패스_2796" data-name="패스 2796" class="cls-16" d="M0,0A3.176,3.176,0,0,0,3.176-3.176,3.176,3.176,0,0,0,0-6.352,3.176,3.176,0,0,0-3.176-3.176,3.176,3.176,0,0,0,0,0Z"/>
    </g>
    <g id="그룹_2566" data-name="그룹 2566" transform="translate(713.173 -177.209)">
      <path id="패스_2797" data-name="패스 2797" class="cls-17" d="M0,0C.007-1.314.013-4.141.013-6.318.013-9.344,3.5-8.977,3.5-8.977h6.545l2.8-2.521,1.814-1.658s.5-.752,1.422.084-.5,3.092-1.407,3.728L9.8-4.531,9.8,0"/>
    </g>
  </g>
  <g id="그룹_2568" data-name="그룹 2568" transform="translate(715.698 430.791)">
    <path id="패스_2799" data-name="패스 2799" class="cls-16" d="M0,0V-5.473"/>
  </g>
  <g id="그룹_2572" data-name="그룹 2572" class="cls-10" transform="translate(0 608)">
    <g id="그룹_2569" data-name="그룹 2569" transform="translate(741.633 -187.219)">
      <path id="패스_2800" data-name="패스 2800" class="cls-6" d="M0,0A3.176,3.176,0,0,1-3.176-3.176,3.176,3.176,0,0,1,0-6.352,3.176,3.176,0,0,1,3.176-3.176,3.176,3.176,0,0,1,0,0"/>
    </g>
    <g id="그룹_2570" data-name="그룹 2570" transform="translate(741.633 -187.219)">
      <path id="패스_2801" data-name="패스 2801" class="cls-16" d="M0,0A3.176,3.176,0,0,1-3.176-3.176,3.176,3.176,0,0,1,0-6.352,3.176,3.176,0,0,1,3.176-3.176,3.176,3.176,0,0,1,0,0Z"/>
    </g>
    <g id="그룹_2571" data-name="그룹 2571" transform="translate(747.9 -177.209)">
      <path id="패스_2802" data-name="패스 2802" class="cls-17" d="M0,0C-.007-1.314-.013-4.141-.013-6.318-.013-9.344-3.5-8.977-3.5-8.977h-6.545l-2.8-2.521-1.814-1.658s-.5-.752-1.422.084.5,3.092,1.407,3.728L-9.8-4.531-9.8,0"/>
    </g>
  </g>
  <g id="그룹_2573" data-name="그룹 2573" transform="translate(745.375 430.791)">
    <path id="패스_2804" data-name="패스 2804" class="cls-16" d="M0,0V-5.473"/>
  </g>
</svg>
