<svg xmlns="http://www.w3.org/2000/svg" width="55.387" height="72.171" viewBox="0 0 55.387 72.171">
  <defs>
    <style>
      .cls-1 {
        fill: #1e2323;
      }

      .cls-2, .cls-4 {
        fill: #fff;
      }

      .cls-3 {
        fill: none;
      }

      .cls-3, .cls-4 {
        stroke: #1e2323;
      }
    </style>
  </defs>
  <g id="구성_요소_56_1" data-name="구성 요소 56 – 1" transform="translate(0.941 0.5)">
    <g id="그룹_4744" data-name="그룹 4744" transform="translate(18.706 37.608)">
      <path id="패스_4975" data-name="패스 4975" class="cls-1" d="M0,0-15.871,24.439l10.957-.357,3.863,9.981L14.82,9.624Z"/>
    </g>
    <g id="그룹_4745" data-name="그룹 4745" transform="translate(38.575 37.608)">
      <path id="패스_4976" data-name="패스 4976" class="cls-1" d="M0,0,15.871,24.439,4.914,24.082,1.051,34.063-14.82,9.624Z"/>
    </g>
    <g id="그룹_4746" data-name="그룹 4746" transform="translate(28.64 54.284)">
      <path id="패스_4977" data-name="패스 4977" class="cls-1" d="M0,0A25.724,25.724,0,0,0,25.724-25.724,25.724,25.724,0,0,0,0-51.449,25.724,25.724,0,0,0-25.724-25.724,25.724,25.724,0,0,0,0,0"/>
    </g>
    <g id="그룹_4747" data-name="그룹 4747" transform="translate(28.64 49.607)">
      <path id="패스_4978" data-name="패스 4978" class="cls-1" d="M0,0A21.047,21.047,0,0,0,21.047-21.047,21.047,21.047,0,0,0,0-42.094,21.047,21.047,0,0,0-21.047-21.047,21.047,21.047,0,0,0,0,0"/>
    </g>
    <g id="그룹_4748" data-name="그룹 4748" transform="translate(8.62 24.274)">
      <path id="패스_4979" data-name="패스 4979" class="cls-1" d="M0,0H12.628s4.833-3.9,4.989-8.887,6.548.78,3.274,8.263H33.676v17.15H16.058a27.262,27.262,0,0,1-3.741-1.715H2.183"/>
    </g>
    <g id="그룹_4750" data-name="그룹 4750" transform="translate(15.871 34.773)">
      <path id="패스_4981" data-name="패스 4981" class="cls-2" d="M0,0-15.871,24.439l10.957-.357,3.863,9.981L14.82,9.624Z"/>
    </g>
    <g id="그룹_4751" data-name="그룹 4751" transform="translate(15.871 34.773)">
      <path id="패스_4982" data-name="패스 4982" class="cls-3" d="M0,0-15.871,24.439l10.957-.357,3.863,9.981L14.82,9.624Z"/>
    </g>
    <g id="그룹_4752" data-name="그룹 4752" transform="translate(35.74 34.773)">
      <path id="패스_4983" data-name="패스 4983" class="cls-2" d="M0,0,15.871,24.439,4.914,24.082,1.051,34.063-14.82,9.624Z"/>
    </g>
    <g id="그룹_4753" data-name="그룹 4753" transform="translate(35.74 34.773)">
      <path id="패스_4984" data-name="패스 4984" class="cls-3" d="M0,0,15.871,24.439,4.914,24.082,1.051,34.063-14.82,9.624Z"/>
    </g>
    <g id="그룹_4754" data-name="그룹 4754" transform="translate(25.806 51.449)">
      <path id="패스_4985" data-name="패스 4985" class="cls-2" d="M0,0A25.724,25.724,0,0,0,25.724-25.724,25.724,25.724,0,0,0,0-51.449,25.724,25.724,0,0,0-25.724-25.724,25.724,25.724,0,0,0,0,0"/>
    </g>
    <g id="그룹_4755" data-name="그룹 4755" transform="translate(25.806 51.449)">
      <path id="패스_4986" data-name="패스 4986" class="cls-3" d="M0,0A25.724,25.724,0,0,0,25.724-25.724,25.724,25.724,0,0,0,0-51.449,25.724,25.724,0,0,0-25.724-25.724,25.724,25.724,0,0,0,0,0Z"/>
    </g>
    <g id="그룹_4756" data-name="그룹 4756" transform="translate(25.806 46.772)">
      <path id="패스_4987" data-name="패스 4987" class="cls-2" d="M0,0A21.047,21.047,0,0,0,21.047-21.047,21.047,21.047,0,0,0,0-42.094,21.047,21.047,0,0,0-21.047-21.047,21.047,21.047,0,0,0,0,0"/>
    </g>
    <g id="그룹_4757" data-name="그룹 4757" transform="translate(25.806 46.772)">
      <path id="패스_4988" data-name="패스 4988" class="cls-3" d="M0,0A21.047,21.047,0,0,0,21.047-21.047,21.047,21.047,0,0,0,0-42.094,21.047,21.047,0,0,0-21.047-21.047,21.047,21.047,0,0,0,0,0Z"/>
    </g>
    <g id="그룹_4758" data-name="그룹 4758" transform="translate(5.785 21.44)">
      <path id="패스_4989" data-name="패스 4989" class="cls-4" d="M0,0H12.628s4.833-3.9,4.989-8.887,6.548.78,3.274,8.263H33.676v17.15H16.058a27.262,27.262,0,0,1-3.741-1.715H2.183"/>
    </g>
    <g id="그룹_4760" data-name="그룹 4760" transform="translate(30.262 25.025)">
      <path id="패스_4991" data-name="패스 4991" class="cls-3" d="M0,0H9.043"/>
    </g>
    <g id="그룹_4761" data-name="그룹 4761" transform="translate(30.262 29.469)">
      <path id="패스_4992" data-name="패스 4992" class="cls-3" d="M0,0H9.043"/>
    </g>
    <g id="그룹_4762" data-name="그룹 4762" transform="translate(30.262 33.912)">
      <path id="패스_4993" data-name="패스 4993" class="cls-3" d="M0,0H9.043"/>
    </g>
  </g>
</svg>
