<svg xmlns="http://www.w3.org/2000/svg" width="72.057" height="63.362" viewBox="0 0 72.057 63.362">
  <defs>
    <style>
      .cls-1 {
        fill: none;
        stroke: #1e2323;
      }

      .cls-2 {
        fill: #1e2323;
      }

      .cls-3 {
        fill: #fff;
      }
    </style>
  </defs>
  <g id="구성_요소_57_1" data-name="구성 요소 57 – 1" transform="translate(0.346 0.581)">
    <g id="그룹_4790" data-name="그룹 4790" transform="translate(5.146 27.974)">
      <path id="패스_5021" data-name="패스 5021" class="cls-1" d="M0,0A30.591,30.591,0,0,0,3.394,17.913a30.805,30.805,0,0,0,41.7,12.68A30.814,30.814,0,0,0,58.771,16"/>
    </g>
    <g id="그룹_4792" data-name="그룹 4792" transform="translate(0 32.95)">
      <path id="패스_5023" data-name="패스 5023" class="cls-1" d="M0,0,5.124-4.916,9.97.151"/>
    </g>
    <g id="그룹_4793" data-name="그룹 4793" transform="translate(66.123 34.225)">
      <path id="패스_5024" data-name="패스 5024" class="cls-1" d="M0,0A30.581,30.581,0,0,0-3.393-17.913,30.813,30.813,0,0,0-45.1-30.59,30.828,30.828,0,0,0-57.714-18.145"/>
    </g>
    <g id="그룹_4794" data-name="그룹 4794" transform="translate(71.365 29.514)">
      <path id="패스_5025" data-name="패스 5025" class="cls-1" d="M0,0-5.124,4.916-9.97-.15"/>
    </g>
    <g id="그룹_4795" data-name="그룹 4795" transform="translate(36.371 56.29)">
      <path id="패스_5026" data-name="패스 5026" class="cls-2" d="M0,0A22.87,22.87,0,0,0,22.87-22.87,22.87,22.87,0,0,0,0-45.74,22.87,22.87,0,0,0-22.87-22.87,22.87,22.87,0,0,0,0,0"/>
    </g>
    <g id="그룹_4796" data-name="그룹 4796" transform="translate(35.271 53.99)">
      <path id="패스_5027" data-name="패스 5027" class="cls-3" d="M0,0A22.87,22.87,0,0,0,22.87-22.87,22.87,22.87,0,0,0,0-45.74,22.87,22.87,0,0,0-22.87-22.87,22.87,22.87,0,0,0,0,0"/>
    </g>
    <g id="그룹_4797" data-name="그룹 4797" transform="translate(35.271 53.99)">
      <path id="패스_5028" data-name="패스 5028" class="cls-1" d="M0,0A22.87,22.87,0,0,0,22.87-22.87,22.87,22.87,0,0,0,0-45.74,22.87,22.87,0,0,0-22.87-22.87,22.87,22.87,0,0,0,0,0Z"/>
    </g>
    <g id="그룹_4798" data-name="그룹 4798" transform="translate(50.732 22.333)">
      <path id="패스_5029" data-name="패스 5029" class="cls-2" d="M0,0S-31.112,12.841-16.749,14.729C1.621,17.144,0,0,0,0"/>
    </g>
    <g id="그룹_4799" data-name="그룹 4799" transform="translate(20.511 22.333)">
      <path id="패스_5030" data-name="패스 5030" class="cls-2" d="M0,0S17.227.212,14.482,14.434C.212,17.169,0,0,0,0"/>
    </g>
    <g id="그룹_4800" data-name="그룹 4800" transform="translate(50.226 21.19)">
      <path id="패스_5031" data-name="패스 5031" class="cls-3" d="M0,0S-17.337.194-14.558,14.51C-.194,17.279,0,0,0,0"/>
    </g>
    <g id="그룹_4801" data-name="그룹 4801" transform="translate(50.226 21.19)">
      <path id="패스_5032" data-name="패스 5032" class="cls-1" d="M0,0S-17.337.194-14.558,14.51C-.194,17.279,0,0,0,0Z"/>
    </g>
    <g id="그룹_4803" data-name="그룹 4803" transform="translate(35.926 35.607)">
      <path id="패스_5034" data-name="패스 5034" class="cls-1" d="M0,0,6.517-6.378"/>
    </g>
    <g id="그룹_4804" data-name="그룹 4804" transform="translate(20.278 21.191)">
      <path id="패스_5035" data-name="패스 5035" class="cls-3" d="M0,0S17.337.193,14.558,14.51C.194,17.279,0,0,0,0"/>
    </g>
    <g id="그룹_4805" data-name="그룹 4805" transform="translate(20.278 21.191)">
      <path id="패스_5036" data-name="패스 5036" class="cls-1" d="M0,0S17.337.193,14.558,14.51C.194,17.279,0,0,0,0Z"/>
    </g>
    <g id="그룹_4807" data-name="그룹 4807" transform="translate(34.578 35.607)">
      <path id="패스_5038" data-name="패스 5038" class="cls-1" d="M0,0-6.517-6.378"/>
    </g>
    <g id="그룹_4808" data-name="그룹 4808" transform="translate(35.098 32.436)">
      <path id="패스_5039" data-name="패스 5039" class="cls-1" d="M0,0V11.043"/>
    </g>
  </g>
</svg>
