<svg id="구성_요소_80_1" data-name="구성 요소 80 – 1" xmlns="http://www.w3.org/2000/svg" xmlns:xlink="http://www.w3.org/1999/xlink" width="835.717" height="642" viewBox="0 0 835.717 642">
  <defs>
    <style>
      .cls-1, .cls-10, .cls-12, .cls-13, .cls-16, .cls-19, .cls-22, .cls-5, .cls-6, .cls-7, .cls-8, .cls-9 {
        fill: none;
      }

      .cls-2 {
        fill: #f4f7f7;
      }

      .cls-3 {
        fill: #c6da97;
      }

      .cls-4 {
        fill: #92bb48;
      }

      .cls-12, .cls-13, .cls-5, .cls-6 {
        stroke: #0a5049;
      }

      .cls-10, .cls-13, .cls-16, .cls-17, .cls-19, .cls-6, .cls-8 {
        stroke-miterlimit: 10;
      }

      .cls-10, .cls-7, .cls-8, .cls-9 {
        stroke: #92bb48;
      }

      .cls-10, .cls-12, .cls-13, .cls-9 {
        stroke-width: 0.95px;
      }

      .cls-11, .cls-14, .cls-18, .cls-23 {
        fill: #1e2323;
      }

      .cls-14, .cls-18 {
        font-size: 14px;
        font-weight: 300;
        letter-spacing: -0.015em;
      }

      .cls-14 {
        font-family: NotoSansCJKkr-DemiLight, Noto Sans CJK KR;
      }

      .cls-15, .cls-17, .cls-21 {
        fill: #fff;
      }

      .cls-16, .cls-17, .cls-21, .cls-22, .cls-23 {
        stroke: #1e2323;
      }

      .cls-18 {
        font-family: NotoSansKR-Light, Noto Sans KR;
      }

      .cls-19 {
        stroke: #06060b;
      }

      .cls-20 {
        clip-path: url(#clip-path);
      }
    </style>
    <clipPath id="clip-path">
      <path id="패스_5535" data-name="패스 5535" class="cls-1" d="M738.414-322.631a11.33,11.33,0,0,0,11.254,11.4h0a11.33,11.33,0,0,0,11.254-11.4h0a11.33,11.33,0,0,0-11.254-11.4h0a11.33,11.33,0,0,0-11.254,11.4"/>
    </clipPath>
  </defs>
  <path id="패스_5392" data-name="패스 5392" class="cls-2" d="M9.283,0H845V-642H9.283Z" transform="translate(-9.283 642)"/>
  <g id="그룹_5120" data-name="그룹 5120" transform="translate(106.564 385.349)">
    <path id="패스_5393" data-name="패스 5393" class="cls-3" d="M0,0A63.852,63.852,0,0,0,63.705-64,63.853,63.853,0,0,0,0-128,63.853,63.853,0,0,0-63.705-64,63.852,63.852,0,0,0,0,0"/>
  </g>
  <g id="그룹_5121" data-name="그룹 5121" transform="translate(319.143 385.349)">
    <path id="패스_5394" data-name="패스 5394" class="cls-3" d="M0,0A63.852,63.852,0,0,0,63.705-64,63.853,63.853,0,0,0,0-128,63.853,63.853,0,0,0-63.705-64,63.852,63.852,0,0,0,0,0"/>
  </g>
  <g id="그룹_5122" data-name="그룹 5122" transform="translate(533.252 385.349)">
    <path id="패스_5395" data-name="패스 5395" class="cls-3" d="M0,0A63.852,63.852,0,0,0,63.705-64,63.853,63.853,0,0,0,0-128,63.854,63.854,0,0,0-63.706-64,63.853,63.853,0,0,0,0,0"/>
  </g>
  <g id="그룹_5123" data-name="그룹 5123" transform="translate(736.205 385.349)">
    <path id="패스_5396" data-name="패스 5396" class="cls-4" d="M0,0A63.852,63.852,0,0,0,63.705-64,63.853,63.853,0,0,0,0-128,63.854,63.854,0,0,0-63.706-64,63.853,63.853,0,0,0,0,0"/>
  </g>
  <g id="그룹_5125" data-name="그룹 5125" transform="translate(181.815 324.643)">
    <path id="패스_5398" data-name="패스 5398" class="cls-5" d="M0,0H51.936"/>
  </g>
  <g id="그룹_5126" data-name="그룹 5126" transform="translate(231.526 321.633)">
    <path id="패스_5399" data-name="패스 5399" class="cls-6" d="M0,0,2.991,3.01,0,6.021"/>
  </g>
  <g id="그룹_5127" data-name="그룹 5127" transform="translate(402.049 307.771)">
    <path id="패스_5400" data-name="패스 5400" class="cls-5" d="M0,0H51.936"/>
  </g>
  <g id="그룹_5128" data-name="그룹 5128" transform="translate(451.76 304.761)">
    <path id="패스_5401" data-name="패스 5401" class="cls-6" d="M0,0,2.991,3.01,0,6.021"/>
  </g>
  <g id="그룹_5129" data-name="그룹 5129" transform="translate(455.421 332.771)">
    <path id="패스_5402" data-name="패스 5402" class="cls-7" d="M0,0H-51.936"/>
  </g>
  <g id="그룹_5130" data-name="그룹 5130" transform="translate(405.709 329.761)">
    <path id="패스_5403" data-name="패스 5403" class="cls-8" d="M0,0-2.991,3.01,0,6.021"/>
  </g>
  <g id="그룹_5131" data-name="그룹 5131" transform="translate(609.091 307.771)">
    <path id="패스_5404" data-name="패스 5404" class="cls-5" d="M0,0H51.936"/>
  </g>
  <g id="그룹_5132" data-name="그룹 5132" transform="translate(658.803 304.761)">
    <path id="패스_5405" data-name="패스 5405" class="cls-6" d="M0,0,2.991,3.01,0,6.021"/>
  </g>
  <g id="그룹_5133" data-name="그룹 5133" transform="translate(662.464 332.771)">
    <path id="패스_5406" data-name="패스 5406" class="cls-7" d="M0,0H-51.936"/>
  </g>
  <g id="그룹_5134" data-name="그룹 5134" transform="translate(612.752 329.761)">
    <path id="패스_5407" data-name="패스 5407" class="cls-8" d="M0,0-2.991,3.01,0,6.021"/>
  </g>
  <g id="그룹_5135" data-name="그룹 5135" transform="translate(267.66 514.352)">
    <path id="패스_5408" data-name="패스 5408" class="cls-9" d="M0,0H-106.864"/>
  </g>
  <g id="그룹_5136" data-name="그룹 5136" transform="translate(163.021 517.361)">
    <path id="패스_5409" data-name="패스 5409" class="cls-10" d="M0,0-2.991-3.01,0-6.021"/>
  </g>
  <g id="그룹_5137" data-name="그룹 5137" transform="translate(110.197 394.413)">
    <path id="패스_5410" data-name="패스 5410" class="cls-9" d="M0,0V66.864"/>
  </g>
  <g id="그룹_5138" data-name="그룹 5138" transform="translate(113.207 459.053)">
    <path id="패스_5411" data-name="패스 5411" class="cls-10" d="M0,0-3.01,2.991-6.021,0"/>
  </g>
  <g id="그룹_5139" data-name="그룹 5139" transform="translate(319.143 395.349)">
    <path id="패스_5412" data-name="패스 5412" class="cls-9" d="M0,0V66.864"/>
  </g>
  <g id="그룹_5140" data-name="그룹 5140" transform="translate(322.153 459.989)">
    <path id="패스_5413" data-name="패스 5413" class="cls-10" d="M0,0-3.01,2.991-6.021,0"/>
  </g>
  <g id="그룹_5141" data-name="그룹 5141" transform="translate(319.143 247.752)">
    <path id="패스_5414" data-name="패스 5414" class="cls-9" d="M0,0V-27.3"/>
  </g>
  <g id="그룹_5142" data-name="그룹 5142" transform="translate(533.252 247.752)">
    <path id="패스_5415" data-name="패스 5415" class="cls-9" d="M0,0V-40"/>
  </g>
  <g id="그룹_5143" data-name="그룹 5143" transform="translate(379.125 515.267)">
    <path id="패스_5416" data-name="패스 5416" class="cls-9" d="M0,0H101.393"/>
  </g>
  <g id="그룹_5144" data-name="그룹 5144" transform="translate(483.441 455.884)">
    <path id="패스_5417" data-name="패스 5417" class="cls-9" d="M0,0H-20.461V130.641H0"/>
  </g>
  <path id="패스_8862" data-name="패스 8862" class="cls-11" d="M10.01-5.026h1.022v-6.482H10.01v2.352H7.2V-8.3H10.01ZM8.05-6.118A4.273,4.273,0,0,1,4.928-9.9v-1.218H3.92V-9.9A4.4,4.4,0,0,1,.756-5.824l.56.812A5.2,5.2,0,0,0,4.452-8.106a5.271,5.271,0,0,0,3.066,2.8Zm-4,6.132V-1.428h6.986v-2.94H3.01v.826h7.014v1.33H3.038V.84h8.5V.014ZM17.976-8.47H20.9v-.84H17.99v-1.974H16.968V-9.31H14.014v.84h2.968v1.05a6.05,6.05,0,0,1-3.276,5.236l.574.77a6.508,6.508,0,0,0,3.206-3.962,6.462,6.462,0,0,0,3.248,3.738l.588-.8A5.7,5.7,0,0,1,17.976-7.42Zm4.648-3.038V1.022H23.66v-12.53Z" transform="translate(623.003 297.577)"/>
  <g id="그룹_5145" data-name="그룹 5145" transform="translate(40.356 133.924)">
    <path id="패스_5418" data-name="패스 5418" class="cls-12" d="M0,0H36.936"/>
  </g>
  <g id="그룹_5146" data-name="그룹 5146" transform="translate(75.068 130.914)">
    <path id="패스_5419" data-name="패스 5419" class="cls-13" d="M0,0,2.991,3.01,0,6.021"/>
  </g>
  <g id="그룹_5147" data-name="그룹 5147" transform="translate(78.728 157.239)">
    <path id="패스_5420" data-name="패스 5420" class="cls-9" d="M0,0H-36.936"/>
  </g>
  <g id="그룹_5148" data-name="그룹 5148" transform="translate(44.017 154.229)">
    <path id="패스_5421" data-name="패스 5421" class="cls-10" d="M0,0-2.991,3.01,0,6.021"/>
  </g>
  <g id="그룹" transform="translate(-9.283 642)">
    <text id="설치" class="cls-14" transform="translate(99.571 -502.355)"><tspan x="0" y="0">설치</tspan></text>
    <text id="반환" class="cls-14" transform="translate(99.571 -479.046)"><tspan x="0" y="0">반환</tspan></text>
    <path id="패스_8863" data-name="패스 8863" class="cls-11" d="M6.062-5.264H2.31V-7.63H6.062Zm.994-5.348H6.062v2.156H2.31v-2.156H1.3v6.188H7.056ZM3.724-3.178H2.7V.742h8.316V-.112H3.724Zm6.72-4.48V-11.48H9.422v9.17h1.022V-6.8H12.32v-.854ZM20.9-10.234H17.808V-11.55H16.8v1.316H13.692v.784H20.9ZM15.358-6.972c0-.714.77-1.19,1.946-1.19s1.918.476,1.918,1.19S18.466-5.8,17.3-5.8,15.358-6.258,15.358-6.972ZM21.28-4.466a33.553,33.553,0,0,1-3.472.336v-.938c1.456-.14,2.38-.84,2.38-1.9,0-1.19-1.148-1.932-2.884-1.932-1.764,0-2.912.742-2.912,1.932,0,1.064.938,1.778,2.408,1.9v.98c-1.246.042-2.408.056-3.416.056l.14.84a45.244,45.244,0,0,0,7.84-.546ZM16.268-2.352H15.246V.742h8.288V-.112H16.268Zm6.818-4.732v-4.41H22.064v9.8h1.022V-6.23h1.876v-.854Z" transform="translate(632.285 -287.596)"/>
  </g>
  <g id="그룹_5149" data-name="그룹 5149" transform="translate(123.774 292.866)">
    <path id="패스_5422" data-name="패스 5422" class="cls-11" d="M0,0-1.939,30.2H8.007L6.068,0Z"/>
  </g>
  <g id="그룹_5150" data-name="그룹 5150" transform="translate(113.082 283.886)">
    <path id="패스_5423" data-name="패스 5423" class="cls-11" d="M0,0-2.6,39.86H10.733L8.134,0Z"/>
  </g>
  <path id="패스_5424" data-name="패스 5424" class="cls-11" d="M101.33-307h20.606v-25.093H101.33Z" transform="translate(-9.283 642)"/>
  <path id="패스_5425" data-name="패스 5425" class="cls-11" d="M121.991-307h22.5v-12.077h-22.5Z" transform="translate(-9.283 642)"/>
  <g id="그룹_5151" data-name="그룹 5151" transform="translate(118.357 334.875)">
    <path id="패스_5426" data-name="패스 5426" class="cls-11" d="M0,0V-8.857H14.294V0"/>
  </g>
  <path id="패스_5427" data-name="패스 5427" class="cls-11" d="M105.889-324.033h4.167V-328.3h-4.167Z" transform="translate(-9.283 642)"/>
  <path id="패스_5428" data-name="패스 5428" class="cls-11" d="M113.21-324.033h4.167V-328.3H113.21Z" transform="translate(-9.283 642)"/>
  <path id="패스_5429" data-name="패스 5429" class="cls-11" d="M89.436-307h24.17v-12.515H89.436Z" transform="translate(-9.283 642)"/>
  <g id="그룹_5152" data-name="그룹 5152" transform="translate(121.851 290.899)">
    <path id="패스_5430" data-name="패스 5430" class="cls-15" d="M0,0-1.922,30.143H7.937L6.015,0Z"/>
  </g>
  <g id="그룹_5153" data-name="그룹 5153" transform="translate(121.851 290.899)">
    <path id="패스_5431" data-name="패스 5431" class="cls-16" d="M0,0-1.922,30.143H7.937L6.015,0Z"/>
  </g>
  <g id="그룹_5154" data-name="그룹 5154" transform="translate(121.119 298.146)">
    <path id="패스_5432" data-name="패스 5432" class="cls-16" d="M0,0H7.439"/>
  </g>
  <g id="그룹_5155" data-name="그룹 5155" transform="translate(121.119 305.211)">
    <path id="패스_5433" data-name="패스 5433" class="cls-16" d="M0,0H7.439"/>
  </g>
  <g id="그룹_5156" data-name="그룹 5156" transform="translate(121.119 301.678)">
    <path id="패스_5434" data-name="패스 5434" class="cls-16" d="M0,0H7.439"/>
  </g>
  <g id="그룹_5157" data-name="그룹 5157" transform="translate(120.326 308.744)">
    <path id="패스_5435" data-name="패스 5435" class="cls-16" d="M0,0H9.026"/>
  </g>
  <g id="그룹_5158" data-name="그룹 5158" transform="translate(111.159 281.92)">
    <path id="패스_5436" data-name="패스 5436" class="cls-15" d="M0,0-2.582,39.8H10.663L8.081,0Z"/>
  </g>
  <g id="그룹_5159" data-name="그룹 5159" transform="translate(111.159 281.92)">
    <path id="패스_5437" data-name="패스 5437" class="cls-16" d="M0,0-2.582,39.8H10.663L8.081,0Z"/>
  </g>
  <g id="그룹_5160" data-name="그룹 5160" transform="translate(110.3 291.456)">
    <path id="패스_5438" data-name="패스 5438" class="cls-16" d="M0,0H9.746"/>
  </g>
  <g id="그룹_5161" data-name="그룹 5161" transform="translate(110.3 300.813)">
    <path id="패스_5439" data-name="패스 5439" class="cls-16" d="M0,0H9.746"/>
  </g>
  <g id="그룹_5162" data-name="그룹 5162" transform="translate(110.3 296.134)">
    <path id="패스_5440" data-name="패스 5440" class="cls-16" d="M0,0H9.746"/>
  </g>
  <g id="그룹_5163" data-name="그룹 5163" transform="translate(109.261 305.492)">
    <path id="패스_5441" data-name="패스 5441" class="cls-16" d="M0,0H11.825"/>
  </g>
  <path id="패스_5442" data-name="패스 5442" class="cls-17" d="M99.422-309.027h20.523v-25.032H99.422Z" transform="translate(-9.283 642)"/>
  <path id="패스_5443" data-name="패스 5443" class="cls-17" d="M120.084-309.027H142.5v-12.016h-22.42Z" transform="translate(-9.283 642)"/>
  <g id="그룹_5164" data-name="그룹 5164" transform="translate(116.449 332.877)">
    <path id="패스_5444" data-name="패스 5444" class="cls-16" d="M0,0V-8.827H14.211V0"/>
  </g>
  <path id="패스_5445" data-name="패스 5445" class="cls-17" d="M103.981-326.06h4.084v-4.209h-4.084Z" transform="translate(-9.283 642)"/>
  <path id="패스_5446" data-name="패스 5446" class="cls-17" d="M111.3-326.06h4.084v-4.209H111.3Z" transform="translate(-9.283 642)"/>
  <path id="패스_5447" data-name="패스 5447" class="cls-17" d="M87.529-309.027h24.087v-12.454H87.529Z" transform="translate(-9.283 642)"/>
  <g id="그룹_5165" data-name="그룹 5165" transform="translate(82.523 325.015)">
    <path id="패스_5448" data-name="패스 5448" class="cls-16" d="M0,0V7.862"/>
  </g>
  <g id="그룹_5166" data-name="그룹 5166" transform="translate(86.406 325.015)">
    <path id="패스_5449" data-name="패스 5449" class="cls-16" d="M0,0V7.862"/>
  </g>
  <g id="그룹_5167" data-name="그룹 5167" transform="translate(90.289 325.015)">
    <path id="패스_5450" data-name="패스 5450" class="cls-16" d="M0,0V7.862"/>
  </g>
  <g id="그룹_5168" data-name="그룹 5168" transform="translate(94.172 325.015)">
    <path id="패스_5451" data-name="패스 5451" class="cls-16" d="M0,0V7.862"/>
  </g>
  <g id="그룹_5169" data-name="그룹 5169" transform="translate(98.055 325.015)">
    <path id="패스_5452" data-name="패스 5452" class="cls-16" d="M0,0V7.862"/>
  </g>
  <g id="그룹-2" data-name="그룹" transform="translate(-9.283 642)">
    <path id="패스_8859" data-name="패스 8859" class="cls-11" d="M8.708-7.14h1.33v3.346H11.41V-11.55H10.038v3.234H8.708v-3.01H7.35V-4.2H8.708ZM7.056-5.768A3.678,3.678,0,0,1,4.592-9.2v-1.6h-1.4v1.6A4.23,4.23,0,0,1,.644-5.4L1.4-4.3A4.74,4.74,0,0,0,3.906-6.972,4.374,4.374,0,0,0,6.286-4.69ZM7.2-.028c-1.778,0-2.842-.434-2.842-1.2S5.418-2.45,7.2-2.45s2.842.434,2.842,1.218S8.974-.028,7.2-.028Zm0-3.528c-2.632,0-4.284.868-4.284,2.324S4.564,1.078,7.2,1.078,11.48.21,11.48-1.232,9.828-3.556,7.2-3.556Zm13.636-1.82a4.207,4.207,0,0,1-3.01-3.934v-1.484H16.366v1.47a4.4,4.4,0,0,1-3.108,4.242l.784,1.12a5.1,5.1,0,0,0,3.08-3A5.1,5.1,0,0,0,20.1-4.228ZM16.716-3.15H15.274V.84h8.484V-.336H16.716Zm6.538-4.634v-3.794H21.812v9.324h1.442v-4.34h1.792v-1.19Zm15.4,1.246A11.972,11.972,0,0,0,39-9.9v-1.064h-8.68V-9.8h7.252a11.275,11.275,0,0,1-.336,3.108Zm-3.99,6.51c-1.876,0-3.024-.462-3.024-1.26s1.148-1.246,3.024-1.246,2.982.462,2.982,1.246S36.526-.028,34.664-.028Zm0-3.612c-2.73,0-4.452.9-4.452,2.352s1.722,2.366,4.452,2.366c2.688,0,4.424-.9,4.424-2.366S37.352-3.64,34.664-3.64Zm.28-2.142V-8.106H33.488v2.324h-4.48V-4.62H40.4V-5.782Zm14.14.168A3.91,3.91,0,0,1,46.1-9.268v-.238h2.646v-1.162h-6.79v1.162h2.688v.252a4.3,4.3,0,0,1-3.094,4.032l.728,1.134a5.146,5.146,0,0,0,3.136-2.94,4.748,4.748,0,0,0,2.968,2.534ZM47.46-.056c-1.764,0-2.786-.448-2.786-1.26s1.022-1.26,2.786-1.26,2.786.434,2.786,1.26S49.224-.056,47.46-.056Zm0-3.654c-2.6,0-4.214.882-4.214,2.394s1.61,2.394,4.214,2.394,4.214-.9,4.214-2.394S50.064-3.71,47.46-3.71Zm4.074-4.774v-3.08H50.092V-4h1.442v-3.29h1.792v-1.19Z" transform="translate(88.547 -288.516)"/>
    <path id="패스_8873" data-name="패스 8873" class="cls-11" d="M4.7-10.318H3.99v2.492A6.88,6.88,0,0,1,.672-2.338l.462.6A7.63,7.63,0,0,0,4.368-6.118,7.221,7.221,0,0,0,7.588-2l.462-.574A6.606,6.606,0,0,1,4.7-7.826Zm7.728,4.046H10.248v-5.194H9.506V.98h.742V-5.642h2.184ZM22.848.168H16.562V-1.708h6.286Zm0-2.492H16.562V-4.13H15.82V.784h7.77V-4.13h-.742Zm-6.02-3.5a2.264,2.264,0,0,1-2.436-2.2,2.248,2.248,0,0,1,2.436-2.2,2.248,2.248,0,0,1,2.436,2.2A2.264,2.264,0,0,1,16.828-5.824Zm6.02-5.628v3.08H19.964a2.9,2.9,0,0,0-3.136-2.478,2.859,2.859,0,0,0-3.15,2.828,2.867,2.867,0,0,0,3.15,2.828,2.889,2.889,0,0,0,3.136-2.534h2.884v2.94h.742v-6.664Zm10.374,6.23a4.325,4.325,0,0,1-3.108-3.794v-.84h2.94v-.616H26.432v.616h2.954V-9a4.628,4.628,0,0,1-3.22,4.116l.392.588a5.432,5.432,0,0,0,3.22-3.248,5.078,5.078,0,0,0,3.08,2.912ZM31.794.336c-1.988,0-3.276-.616-3.276-1.61s1.288-1.61,3.276-1.61,3.29.616,3.29,1.61S33.8.336,31.794.336Zm0-3.822c-2.492,0-4,.8-4,2.212S29.3.938,31.794.938s4.018-.8,4.018-2.212S34.286-3.486,31.794-3.486Zm3.92-4.634v-3.332h-.742v7.56h.742V-7.476H37.66V-8.12Z" transform="translate(129.889 -215.436)"/>
    <text id="_" data-name=" " class="cls-18" transform="translate(168.109 -215.436)"><tspan x="0" y="0"> </tspan></text>
    <path id="패스_8872" data-name="패스 8872" class="cls-11" d="M2.814-9.142H4.746v6.16c-.644.028-1.3.056-1.932.07Zm2.632,0h1.19v-.63H.924v.63h1.19V-2.9c-.532.014-1.022.014-1.456.014l.1.658A43.063,43.063,0,0,0,7-2.618l-.056-.56c-.462.07-.98.112-1.5.14Zm2.8,1.288H6.314v.63H8.246V-5.11H6.314v.616H8.246V.28H8.96v-11.4H8.246Zm2.352-3.6V.98h.714V-11.452Zm3.626,1.372v.63h4.97c-.2,3.066-2.086,5.712-5.5,7.364l.406.616c4-1.974,5.838-5.138,5.838-8.61Zm8.61-1.372V.98h.742V-11.452ZM35.168-7.924H28.35v-2.492h6.818Zm.728-3.094h-8.26v3.71H35.9ZM37.366-5.4V-6.02H26.124V-5.4h5.25v1.47H27.538v.6h7.616v1.386H27.566V.8h8.722V.182H28.294V-1.372h7.588V-3.934H32.116V-5.4Z" transform="translate(129.889 -193.442)"/>
    <path id="패스_8870" data-name="패스 8870" class="cls-11" d="M4.886-10.388H3.878v2.324A6.713,6.713,0,0,1,.616-2.492l.63.826A7.124,7.124,0,0,0,4.382-5.922a6.955,6.955,0,0,0,3.108,4l.63-.812A6.388,6.388,0,0,1,4.886-8.064Zm7.56,4h-2.1v-5.11H9.324V1.022h1.022V-5.516h2.1ZM22.694,0H16.758V-1.68h5.936Zm0-2.506H16.758V-4.144H15.75V.84H23.7V-4.144H22.694Zm-5.852-3.5a2.07,2.07,0,0,1-2.24-2.03,2.059,2.059,0,0,1,2.24-2.016,2.047,2.047,0,0,1,2.226,2.016A2.058,2.058,0,0,1,16.842-6.006Zm5.838-5.488v3.01H20.02a2.966,2.966,0,0,0-3.178-2.422,2.915,2.915,0,0,0-3.206,2.87,2.918,2.918,0,0,0,3.206,2.884A2.946,2.946,0,0,0,20.02-7.63h2.66v2.842H23.7v-6.706Zm10.64,6.1a4.126,4.126,0,0,1-3.066-3.724V-9.7h2.828v-.854H26.39V-9.7h2.842v.6a4.492,4.492,0,0,1-3.15,4.074l.5.812A5.223,5.223,0,0,0,29.764-7.35,5.072,5.072,0,0,0,32.83-4.578ZM31.822.168c-1.918,0-3.094-.532-3.094-1.47,0-.91,1.176-1.456,3.094-1.456,1.89,0,3.08.546,3.08,1.456C34.9-.364,33.712.168,31.822.168Zm0-3.752c-2.548,0-4.1.854-4.1,2.282,0,1.456,1.554,2.3,4.1,2.3S35.91.154,35.91-1.3C35.91-2.73,34.37-3.584,31.822-3.584Zm3.962-4.69v-3.22H34.762v7.56h1.022V-7.42H37.66v-.854Zm8.036-.77h1.694v5.992c-.574.028-1.134.056-1.694.07Zm2.632,0H47.53V-9.9H41.8v.854H42.9v6.076c-.49.014-.938.014-1.344.014l.126.868a42.389,42.389,0,0,0,6.2-.392l-.07-.756c-.42.056-.882.1-1.358.126Zm2.506,1.12H47.236v.854h1.722v1.834H47.236v.854h1.722V.35h.966V-11.186h-.966Zm2.394-3.57V1.022h.98V-11.494ZM55.09-10.15v.84h4.788c-.21,3.01-1.96,5.5-5.348,7.126l.546.826c4.13-2.016,5.838-5.208,5.838-8.792Zm8.484-1.358V1.022H64.6v-12.53ZM75.866-8.12H69.5v-2.142h6.37Zm.994-2.968H68.5v3.794H76.86ZM78.344-5.32v-.84H67.018v.84H72.17v1.288H68.39v.784h7.476v1.2h-7.42V.868h8.806V.042H69.44v-1.33h7.434V-4.032h-3.7V-5.32Z" transform="translate(184.811 -134.502)"/>
  </g>
  <g id="그룹_5355" data-name="그룹 5355" transform="translate(309.086 335.578)">
    <path id="패스_5479" data-name="패스 5479" class="cls-11" d="M0,0A6.256,6.256,0,0,1-6.254-6.259,6.256,6.256,0,0,1,0-12.518,6.256,6.256,0,0,1,6.254-6.259,6.256,6.256,0,0,1,0,0"/>
  </g>
  <g id="그룹_5356" data-name="그룹 5356" transform="translate(340.086 335.578)">
    <path id="패스_5479-2" data-name="패스 5479" class="cls-11" d="M0,0A6.256,6.256,0,0,1-6.254-6.259,6.256,6.256,0,0,1,0-12.518,6.256,6.256,0,0,1,6.254-6.259,6.256,6.256,0,0,1,0,0"/>
  </g>
  <g id="그룹_5170" data-name="그룹 5170" transform="translate(291.253 328.838)">
    <path id="패스_5453" data-name="패스 5453" class="cls-11" d="M0,0,38.9.035V-31.086H.021Z"/>
  </g>
  <g id="그룹_5171" data-name="그룹 5171" transform="translate(291.253 328.838)">
    <path id="패스_5454" data-name="패스 5454" class="cls-19" d="M0,0,38.9.035V-31.086H.021Z"/>
  </g>
  <g id="그룹_5175" data-name="그룹 5175" transform="translate(349.569 328.873)">
    <path id="패스_5458" data-name="패스 5458" class="cls-11" d="M0,0V-11.157l-6.06-9.9H-19.567V0Z"/>
  </g>
  <g id="그룹_5176" data-name="그룹 5176" transform="translate(349.569 328.873)">
    <path id="패스_5459" data-name="패스 5459" class="cls-19" d="M0,0V-11.157l-6.06-9.9H-19.567V0Z"/>
  </g>
  <g id="그룹_5180" data-name="그룹 5180" transform="translate(341.204 310.646)">
    <path id="패스_5463" data-name="패스 5463" class="cls-11" d="M0,0,4.136,7.168H-4.576V0Z"/>
  </g>
  <g id="그룹_5181" data-name="그룹 5181" transform="translate(341.204 310.646)">
    <path id="패스_5464" data-name="패스 5464" class="cls-19" d="M0,0,4.136,7.168H-4.576V0Z"/>
  </g>
  <g id="그룹_5182" data-name="그룹 5182" transform="translate(289.667 327.252)">
    <path id="패스_5465" data-name="패스 5465" class="cls-15" d="M0,0,38.9.035V-31.086H.021Z"/>
  </g>
  <g id="그룹_5183" data-name="그룹 5183" transform="translate(289.667 327.252)">
    <path id="패스_5466" data-name="패스 5466" class="cls-16" d="M0,0,38.9.035V-31.086H.021Z"/>
  </g>
  <g id="그룹_5184" data-name="그룹 5184" transform="translate(307.956 332.914)">
    <path id="패스_5467" data-name="패스 5467" class="cls-15" d="M0,0A5.184,5.184,0,0,1-5.183-5.187,5.185,5.185,0,0,1,0-10.375,5.185,5.185,0,0,1,5.183-5.187,5.184,5.184,0,0,1,0,0"/>
  </g>
  <g id="그룹_5185" data-name="그룹 5185" transform="translate(307.956 332.914)">
    <path id="패스_5468" data-name="패스 5468" class="cls-16" d="M0,0A5.184,5.184,0,0,1-5.183-5.187,5.185,5.185,0,0,1,0-10.375,5.185,5.185,0,0,1,5.183-5.187,5.184,5.184,0,0,1,0,0Z"/>
  </g>
  <g id="그룹_5187" data-name="그룹 5187" transform="translate(347.982 327.288)">
    <path id="패스_5470" data-name="패스 5470" class="cls-15" d="M0,0V-11.158l-6.06-9.895H-19.566V0Z"/>
  </g>
  <g id="그룹_5188" data-name="그룹 5188" transform="translate(347.982 327.288)">
    <path id="패스_5471" data-name="패스 5471" class="cls-16" d="M0,0V-11.158l-6.06-9.895H-19.566V0Z"/>
  </g>
  <g id="그룹_5189" data-name="그룹 5189" transform="translate(338.465 332.914)">
    <path id="패스_5472" data-name="패스 5472" class="cls-15" d="M0,0A5.184,5.184,0,0,1-5.183-5.187,5.185,5.185,0,0,1,0-10.375,5.185,5.185,0,0,1,5.183-5.187,5.184,5.184,0,0,1,0,0"/>
  </g>
  <g id="그룹_5190" data-name="그룹 5190" transform="translate(338.465 332.914)">
    <path id="패스_5473" data-name="패스 5473" class="cls-16" d="M0,0A5.184,5.184,0,0,1-5.183-5.187,5.185,5.185,0,0,1,0-10.375,5.185,5.185,0,0,1,5.183-5.187,5.184,5.184,0,0,1,0,0Z"/>
  </g>
  <g id="그룹_5192" data-name="그룹 5192" transform="translate(339.618 309.061)">
    <path id="패스_5475" data-name="패스 5475" class="cls-15" d="M0,0,4.136,7.168H-4.576V0Z"/>
  </g>
  <g id="그룹_5193" data-name="그룹 5193" transform="translate(339.618 309.061)">
    <path id="패스_5476" data-name="패스 5476" class="cls-16" d="M0,0,4.136,7.168H-4.576V0Z"/>
  </g>
  <path id="패스_8860" data-name="패스 8860" class="cls-11" d="M9.254-8.4H3.584v-1.652h5.67Zm1.414-2.772H2.156v3.906h8.512Zm1.484,5.936V-6.384H.7v1.148H5.684v1.05H2.058v1.092H9.3v.9H2.086V.966h8.988V-.14H3.514V-1.176h7.2v-3.01H7.14v-1.05Zm9.856-3.528H14.756v3.556h9V-6.37H16.212V-7.686h7.266V-11.13h-8.75v1.162h7.28Zm2.828,4.676H13.37v1.162H16.2V1.092H17.64V-2.926h2.926V1.092h1.442V-2.926H24.85ZM36.75-11.564H35.378v9.478H36.75ZM32.9-2.45h1.358v-8.876H32.9v2.814H31.122v1.19H32.9Zm-.658-2.786a4.007,4.007,0,0,1-2.338-3.7V-10.7H28.5v1.764a4.506,4.506,0,0,1-2.52,4.018l.8,1.092a4.892,4.892,0,0,0,2.436-2.744,4.368,4.368,0,0,0,2.24,2.422Zm-2.394,4.9v-2.87H28.392V.84H37.1V-.336ZM40.726-5.768h3.906V-6.916H40.726V-9.282H45.15v-1.19H39.284v8.61h.994a30.524,30.524,0,0,0,5.684-.378L45.836-3.4a30.021,30.021,0,0,1-5.11.364Zm7.042-5.824v4.648H45.346v1.19h2.422V1.092h1.456V-11.592Z" transform="translate(293.697 353.484)"/>
  <g id="그룹_5194" data-name="그룹 5194" transform="translate(290.258 520.85)">
    <path id="패스_5477" data-name="패스 5477" class="cls-11" d="M0,0,46.419.042V-37.129H.025Z"/>
  </g>
  <g id="그룹_5195" data-name="그룹 5195" transform="translate(290.258 520.85)">
    <path id="패스_5478" data-name="패스 5478" class="cls-19" d="M0,0,46.419.042V-37.129H.025Z"/>
  </g>
  <g id="그룹_5196" data-name="그룹 5196" transform="translate(312.086 527.578)">
    <path id="패스_5479-3" data-name="패스 5479" class="cls-11" d="M0,0A6.256,6.256,0,0,1-6.254-6.259,6.256,6.256,0,0,1,0-12.518,6.256,6.256,0,0,1,6.254-6.259,6.256,6.256,0,0,1,0,0"/>
  </g>
  <g id="그룹_5197" data-name="그룹 5197" transform="translate(312.086 527.578)">
    <path id="패스_5480" data-name="패스 5480" class="cls-19" d="M0,0A6.256,6.256,0,0,1-6.254-6.259,6.256,6.256,0,0,1,0-12.518,6.256,6.256,0,0,1,6.254-6.259,6.256,6.256,0,0,1,0,0Z"/>
  </g>
  <g id="그룹_5199" data-name="그룹 5199" transform="translate(359.744 520.892)">
    <path id="패스_5482" data-name="패스 5482" class="cls-11" d="M0,0V-13.359L-7.259-25.206H-23.44V0Z"/>
  </g>
  <g id="그룹_5200" data-name="그룹 5200" transform="translate(359.744 520.892)">
    <path id="패스_5483" data-name="패스 5483" class="cls-19" d="M0,0V-13.359L-7.259-25.206H-23.44V0Z"/>
  </g>
  <g id="그룹_5201" data-name="그룹 5201" transform="translate(348.34 527.578)">
    <path id="패스_5484" data-name="패스 5484" class="cls-11" d="M0,0A6.256,6.256,0,0,1-6.254-6.259,6.256,6.256,0,0,1,0-12.518,6.256,6.256,0,0,1,6.254-6.259,6.256,6.256,0,0,1,0,0"/>
  </g>
  <g id="그룹_5202" data-name="그룹 5202" transform="translate(348.34 527.578)">
    <path id="패스_5485" data-name="패스 5485" class="cls-19" d="M0,0A6.256,6.256,0,0,1-6.254-6.259,6.256,6.256,0,0,1,0-12.518,6.256,6.256,0,0,1,6.254-6.259,6.256,6.256,0,0,1,0,0Z"/>
  </g>
  <g id="그룹_5204" data-name="그룹 5204" transform="translate(349.751 499.044)">
    <path id="패스_5487" data-name="패스 5487" class="cls-11" d="M0,0,5.037,8.707H-5.573V0Z"/>
  </g>
  <g id="그룹_5205" data-name="그룹 5205" transform="translate(349.751 499.044)">
    <path id="패스_5488" data-name="패스 5488" class="cls-19" d="M0,0,5.037,8.707H-5.573V0Z"/>
  </g>
  <g id="그룹_5206" data-name="그룹 5206" transform="translate(288.373 518.965)">
    <path id="패스_5489" data-name="패스 5489" class="cls-15" d="M0,0,46.419.042V-37.129H.025Z"/>
  </g>
  <g id="그룹_5207" data-name="그룹 5207" transform="translate(288.373 518.965)">
    <path id="패스_5490" data-name="패스 5490" class="cls-16" d="M0,0,46.419.042V-37.129H.025Z"/>
  </g>
  <g id="그룹_5208" data-name="그룹 5208" transform="translate(310.201 525.693)">
    <path id="패스_5491" data-name="패스 5491" class="cls-15" d="M0,0A6.256,6.256,0,0,1-6.254-6.259,6.257,6.257,0,0,1,0-12.518,6.257,6.257,0,0,1,6.254-6.259,6.256,6.256,0,0,1,0,0"/>
  </g>
  <g id="그룹_5209" data-name="그룹 5209" transform="translate(310.201 525.693)">
    <path id="패스_5492" data-name="패스 5492" class="cls-16" d="M0,0A6.256,6.256,0,0,1-6.254-6.259,6.257,6.257,0,0,1,0-12.518,6.257,6.257,0,0,1,6.254-6.259,6.256,6.256,0,0,1,0,0Z"/>
  </g>
  <g id="그룹_5211" data-name="그룹 5211" transform="translate(357.86 519.007)">
    <path id="패스_5494" data-name="패스 5494" class="cls-15" d="M0,0V-13.359L-7.259-25.206H-23.44V0Z"/>
  </g>
  <g id="그룹_5212" data-name="그룹 5212" transform="translate(357.86 519.007)">
    <path id="패스_5495" data-name="패스 5495" class="cls-16" d="M0,0V-13.359L-7.259-25.206H-23.44V0Z"/>
  </g>
  <g id="그룹_5213" data-name="그룹 5213" transform="translate(346.455 525.693)">
    <path id="패스_5496" data-name="패스 5496" class="cls-15" d="M0,0A6.256,6.256,0,0,1-6.254-6.259,6.257,6.257,0,0,1,0-12.518,6.257,6.257,0,0,1,6.254-6.259,6.256,6.256,0,0,1,0,0"/>
  </g>
  <g id="그룹_5214" data-name="그룹 5214" transform="translate(346.455 525.693)">
    <path id="패스_5497" data-name="패스 5497" class="cls-16" d="M0,0A6.256,6.256,0,0,1-6.254-6.259,6.257,6.257,0,0,1,0-12.518,6.257,6.257,0,0,1,6.254-6.259,6.256,6.256,0,0,1,0,0Z"/>
  </g>
  <g id="그룹_5216" data-name="그룹 5216" transform="translate(347.866 497.159)">
    <path id="패스_5499" data-name="패스 5499" class="cls-15" d="M0,0,5.037,8.707H-5.573V0Z"/>
  </g>
  <g id="그룹_5217" data-name="그룹 5217" transform="translate(347.866 497.159)">
    <path id="패스_5500" data-name="패스 5500" class="cls-16" d="M0,0,5.037,8.707H-5.573V0Z"/>
  </g>
  <path id="패스_8869" data-name="패스 8869" class="cls-11" d="M6.4,0c-1.9,0-2.9-.308-2.9-.98,0-.644.994-.966,2.9-.966S9.31-1.624,9.31-.98C9.31-.308,8.316,0,6.4,0Zm0-3.01c-2.744,0-4.354.7-4.354,2.03S3.654,1.078,6.4,1.078,10.752.364,10.752-.98,9.156-3.01,6.4-3.01ZM7.14-4.956V-5.992h3.71V-7.1H3.6v-.98h6.86V-9.156H3.6v-.952h7.168v-1.106H2.156v5.222H5.684v1.036h-5v1.162H12.124V-4.956Zm13.72-5.4H17.85v-1.316H16.408v1.316H13.4V-9.2H20.86ZM15.442-6.51c0-.714.672-1.148,1.68-1.148s1.694.434,1.694,1.148-.686,1.162-1.694,1.162S15.442-5.782,15.442-6.51Zm4.746,0c0-1.33-1.232-2.226-3.066-2.226s-3.066.9-3.066,2.226S15.3-4.27,17.122-4.27,20.188-5.166,20.188-6.51ZM21.826-.224H16.6V-1.386h5.222Zm0-2.282H16.6V-3.668H15.176V.924h8.078V-3.668H21.826Zm3.22-5.908H23.254v-3.15H21.812v7.378h1.442V-7.224h1.792ZM37.534-8.4h-5.67v-1.652h5.67Zm1.414-2.772H30.436v3.906h8.512Zm1.484,5.936V-6.384H28.98v1.148h4.984v1.05H30.338v1.092h7.238v.9h-7.21V.966h8.988V-.14h-7.56V-1.176h7.2v-3.01H35.42v-1.05Zm9.856-3.528H43.036v3.556h9V-6.37H44.492V-7.686h7.266V-11.13h-8.75v1.162h7.28Zm2.828,4.676H41.65v1.162h2.828V1.092H45.92V-2.926h2.926V1.092h1.442V-2.926H53.13Z" transform="translate(296.759 546.486)"/>
  <path id="패스_5501" data-name="패스 5501" class="cls-11" d="M545.6-308.714h15.935v-24.915H545.6Z" transform="translate(-9.283 642)"/>
  <path id="패스_5502" data-name="패스 5502" class="cls-11" d="M555.46-326.367h3.676V-330.7H555.46Z" transform="translate(-9.283 642)"/>
  <path id="패스_5503" data-name="패스 5503" class="cls-11" d="M555.46-318.89h3.676v-4.33H555.46Z" transform="translate(-9.283 642)"/>
  <path id="패스_5504" data-name="패스 5504" class="cls-11" d="M548.922-326.367H552.6V-330.7h-3.676Z" transform="translate(-9.283 642)"/>
  <path id="패스_5505" data-name="패스 5505" class="cls-11" d="M548.922-318.89H552.6v-4.33h-3.676Z" transform="translate(-9.283 642)"/>
  <g id="그룹_5218" data-name="그룹 5218" transform="translate(513.79 297.315)">
    <path id="패스_5506" data-name="패스 5506" class="cls-11" d="M0,0V35.971H23.043V.475Z"/>
  </g>
  <path id="패스_5507" data-name="패스 5507" class="cls-11" d="M526.741-336.893h3.676v-5.838h-3.676Z" transform="translate(-9.283 642)"/>
  <path id="패스_5508" data-name="패스 5508" class="cls-11" d="M526.741-327.891h3.676v-5.838h-3.676Z" transform="translate(-9.283 642)"/>
  <path id="패스_5509" data-name="패스 5509" class="cls-11" d="M526.741-318.89h3.676v-5.838h-3.676Z" transform="translate(-9.283 642)"/>
  <path id="패스_5510" data-name="패스 5510" class="cls-11" d="M532.756-336.893h3.676v-5.838h-3.676Z" transform="translate(-9.283 642)"/>
  <path id="패스_5511" data-name="패스 5511" class="cls-11" d="M532.756-327.891h3.676v-5.838h-3.676Z" transform="translate(-9.283 642)"/>
  <path id="패스_5512" data-name="패스 5512" class="cls-11" d="M532.756-318.89h3.676v-5.838h-3.676Z" transform="translate(-9.283 642)"/>
  <path id="패스_5513" data-name="패스 5513" class="cls-11" d="M518.86-307h46.885v-3.648H518.86Z" transform="translate(-9.283 642)"/>
  <path id="패스_5514" data-name="패스 5514" class="cls-17" d="M543.973-310.519h15.744v-24.718H543.973Z" transform="translate(-9.283 642)"/>
  <path id="패스_5515" data-name="패스 5515" class="cls-17" d="M553.836-328.172h3.485V-332.3h-3.485Z" transform="translate(-9.283 642)"/>
  <path id="패스_5516" data-name="패스 5516" class="cls-17" d="M553.836-320.7h3.485v-4.132h-3.485Z" transform="translate(-9.283 642)"/>
  <path id="패스_5517" data-name="패스 5517" class="cls-17" d="M547.3-328.172h3.485V-332.3H547.3Z" transform="translate(-9.283 642)"/>
  <path id="패스_5518" data-name="패스 5518" class="cls-17" d="M547.3-320.7h3.485v-4.132H547.3Z" transform="translate(-9.283 642)"/>
  <g id="그룹_5219" data-name="그룹 5219" transform="translate(512.166 296.21)">
    <path id="패스_5519" data-name="패스 5519" class="cls-15" d="M0,0V35.27H22.852V-.03Z"/>
  </g>
  <g id="그룹_5220" data-name="그룹 5220" transform="translate(512.166 296.21)">
    <path id="패스_5520" data-name="패스 5520" class="cls-16" d="M0,0V35.27H22.852V-.03Z"/>
  </g>
  <path id="패스_5521" data-name="패스 5521" class="cls-17" d="M524.617-336.2H528.1v-5.641h-3.485Z" transform="translate(-9.283 642)"/>
  <path id="패스_5522" data-name="패스 5522" class="cls-17" d="M524.617-327.2H528.1v-5.641h-3.485Z" transform="translate(-9.283 642)"/>
  <path id="패스_5523" data-name="패스 5523" class="cls-17" d="M524.617-318.2H528.1v-5.641h-3.485Z" transform="translate(-9.283 642)"/>
  <path id="패스_5524" data-name="패스 5524" class="cls-17" d="M530.632-336.2h3.485v-5.641h-3.485Z" transform="translate(-9.283 642)"/>
  <path id="패스_5525" data-name="패스 5525" class="cls-17" d="M530.632-327.2h3.485v-5.641h-3.485Z" transform="translate(-9.283 642)"/>
  <path id="패스_5526" data-name="패스 5526" class="cls-17" d="M530.632-318.2h3.485v-5.641h-3.485Z" transform="translate(-9.283 642)"/>
  <path id="패스_5527" data-name="패스 5527" class="cls-17" d="M517.236-308.8H563.93v-3.451H517.236Z" transform="translate(-9.283 642)"/>
  <g id="그룹-3" data-name="그룹" transform="translate(-9.283 642)">
    <path id="패스_8861" data-name="패스 8861" class="cls-11" d="M5.376-9.114H8.19V-10.3H1.106v1.19H3.92v1.2A6.182,6.182,0,0,1,.658-2.478L1.484-1.33A6.521,6.521,0,0,0,4.662-5.306,6.2,6.2,0,0,0,7.854-1.652l.8-1.134A5.7,5.7,0,0,1,5.376-7.91Zm4.284-2.45V1.078h1.456V-11.564ZM20.888-5.656a4.164,4.164,0,0,1-2.954-3.808v-.21h2.632v-1.162H13.8v1.162h2.674v.21A4.4,4.4,0,0,1,13.37-5.39l.742,1.134a5.183,5.183,0,0,0,3.122-2.982,4.923,4.923,0,0,0,2.954,2.7Zm-3.92,3.164h5.474V-.224H16.968ZM15.554.924h8.3V-3.64h-8.3Zm6.86-12.5V-8.5h-2.24v1.176h2.24v3.108h1.442v-7.364Zm3.094,14.1h1.12L30.52-11.172H29.4ZM35.966-9.114H38.78V-10.3H31.7v1.19H34.51v1.2a6.182,6.182,0,0,1-3.262,5.432l.826,1.148a6.521,6.521,0,0,0,3.178-3.976,6.2,6.2,0,0,0,3.192,3.654l.8-1.134A5.7,5.7,0,0,1,35.966-7.91Zm4.284-2.45V1.078h1.456V-11.564ZM55.426-5.376V-6.538H53.718A16.838,16.838,0,0,0,54-10.024v-.966H45.4v1.162h7.182a15.225,15.225,0,0,1-.308,3.29h-8.3v1.162h4.984V-3.3H45.136v1.162h7.476v3.22h1.442V-3.3h-3.64V-5.376Z" transform="translate(513.15 -288.516)"/>
    <path id="패스_8868" data-name="패스 8868" class="cls-11" d="M2.9-9.044H4.592v5.992c-.574.028-1.134.056-1.694.07Zm2.632,0H6.608V-9.9H.882v.854H1.974v6.076c-.49.014-.938.014-1.344.014l.126.868a42.389,42.389,0,0,0,6.2-.392l-.07-.756c-.42.056-.882.1-1.358.126Zm2.506,1.12H6.314v.854H8.036v1.834H6.314v.854H8.036V.35H9V-11.186H8.036Zm2.394-3.57V1.022h.98V-11.494Zm6.622,2.338h2.31v-.854H13.608v.854h2.45v1.232a6.642,6.642,0,0,1-2.772,5.656l.644.756a6.556,6.556,0,0,0,2.632-4.06A6.115,6.115,0,0,0,19.124-1.82l.63-.742a6.194,6.194,0,0,1-2.7-5.362Zm3.5,2.184H18.4v.854h2.156V.364h.966V-11.2h-.966Zm2.492-4.536V1.022h.98v-12.53ZM33.362-7.49H30.128v-2.772h3.234Zm-4.256,0h-1.89v.84h9.058v-.84h-1.9v-2.772h1.946v-.84H27.174v.84h1.932ZM35.014,0H28.5V-2.212h6.51Zm2.394-4.578v-.854H26.11v.854h5.152v1.526H27.51V.84h8.5V-3.052H32.27V-4.578ZM45.934-8.47h2.828v-.84H45.934v-1.974H44.926V-9.31H42.042v.84h2.884v1.036A6.039,6.039,0,0,1,41.72-2.2l.588.784A6.519,6.519,0,0,0,45.444-5.39a6.373,6.373,0,0,0,3.164,3.738l.588-.784a5.746,5.746,0,0,1-3.262-5Zm5-3.052v5.068H48.146V-5.6h2.786V1.022h1.022V-11.522Zm5.194,5.6h4.69v-4.41H55.062v.854h4.732v2.716h-4.7v4.746h1.036a39.874,39.874,0,0,0,6.314-.448l-.1-.868a37.2,37.2,0,0,1-6.216.462Zm7.448-5.6V1.022H64.6V-11.522Z" transform="translate(393.506 -134.488)"/>
  </g>
  <g id="그룹-4" data-name="그룹" transform="translate(-9.283 642)">
    <path id="패스_8851" data-name="패스 8851" class="cls-11" d="M2.613-8.489H4.407v5.72c-.6.026-1.209.052-1.794.065Zm2.444,0H6.162v-.585H.858v.585h1.1v5.8c-.494.013-.949.013-1.352.013L.7-2.067a39.987,39.987,0,0,0,5.8-.364l-.052-.52c-.429.065-.91.1-1.391.13Zm2.6,1.2H5.863v.585H7.657v1.963H5.863v.572H7.657V.26H8.32V-10.322H7.657Zm2.184-3.341V.91H10.5V-10.634Zm11.986,0h-.689v6.019h.689Zm-6.9,1.4h2.262v3.367c-.754.052-1.534.078-2.262.1Zm4.849,3.146c-.611.078-1.248.143-1.911.182V-9.23h1.287v-.585H12.961v.585h1.287v3.484c-.559.013-1.1.026-1.612.026l.091.6a54.414,54.414,0,0,0,7.085-.429ZM15.2.169V-1.417h6.63V-3.991H14.482v.572h6.669v1.456H14.508v2.7h7.813V.169ZM25.363-2.548V-5.681h4.082v-.585H25.363V-8.944H30v-.6h-5.33v7.579h.858a26.3,26.3,0,0,0,5.356-.39l-.065-.585a24.672,24.672,0,0,1-5.291.39Zm7.488-8.1v4.524H30.2v.6h2.652V.923h.689v-11.57Z" transform="translate(252.2 -460.346)"/>
    <path id="패스_8852" data-name="패스 8852" class="cls-11" d="M4.589-9.568H3.9v2.3A6.427,6.427,0,0,1,.806-2.145l.442.546a7,7,0,0,0,3-4.134A6.745,6.745,0,0,0,7.306-1.807l.4-.559a6.083,6.083,0,0,1-3.12-4.9Zm4.862-1.066v4.108H6.474v.572H9.451V.923h.689V-10.634Zm11.661-.013V.923H21.8v-11.57ZM13.143-9.633v7.709h5.3V-9.633h-.689v3.2H13.832v-3.2Zm.689,3.77h3.926v3.354H13.832Zm20.15,1.222c-1.638-.325-4.3-2.067-4.3-4.2v-.923h-.715v.923c0,2.145-2.626,3.861-4.277,4.2l.325.585A6.677,6.677,0,0,0,29.328-7.54a6.691,6.691,0,0,0,4.329,3.484ZM24.128-1.326v.585H34.606v-.585ZM43.68.325c-1.976,0-3.237-.546-3.237-1.469S41.7-2.613,43.68-2.613s3.237.559,3.237,1.469S45.656.325,43.68.325Zm0-3.484c-2.457,0-3.926.715-3.926,2.015S41.223.884,43.68.884s3.926-.728,3.926-2.028S46.137-3.159,43.68-3.159ZM41.86-6.37a9.287,9.287,0,0,0,1.807.169,9.753,9.753,0,0,0,1.859-.169V-4.8H41.86ZM40.391-8.307c0-.949,1.287-1.534,3.276-1.534,2.015,0,3.3.585,3.3,1.534s-1.287,1.547-3.3,1.547C41.678-6.76,40.391-7.358,40.391-8.307ZM46.2-4.8V-6.578a1.889,1.889,0,0,0,1.469-1.729c0-1.339-1.521-2.093-4-2.093s-3.978.754-3.978,2.093a1.905,1.905,0,0,0,1.482,1.742V-4.8h-2.7v.585H48.893V-4.8ZM56.966-6.825H53.755V-9.672h3.211Zm-3.887,0h-1.9v.572H59.54v-.572H57.655V-9.672h1.911v-.572h-8.4v.572h1.911ZM58.63.143H52.143V-2.21H58.63Zm1.963-4.511v-.585H50.154v.585h4.888v1.586H51.48V.728h7.826v-3.51H55.718V-4.368Z" transform="translate(353.847 -460.346)"/>
    <path id="패스_8853" data-name="패스 8853" class="cls-11" d="M1.4,2.184H3.757V1.716H1.989V-9.724H3.757v-.468H1.4Zm8.216-7.1H5.811V-9.022H9.62Zm3.666-2.964v1.872H10.3V-7.878ZM10.3-5.408h2.99v3.224h.689v-8.45h-.689v2.171H10.3V-9.594H5.148v5.252H10.3ZM7.384.039V-2.925H6.695V.624h7.566V.039ZM21.489.325c-1.976,0-3.224-.546-3.224-1.443s1.248-1.43,3.224-1.43,3.224.546,3.224,1.43S23.465.325,21.489.325Zm0-3.419c-2.457,0-3.913.7-3.913,1.976S19.032.871,21.489.871,25.4.169,25.4-1.118,23.933-3.094,21.489-3.094ZM18.369-8.32h6.266v1.573H18.369Zm3.471,3.6V-6.175h3.484v-4.173h-.689v1.456H18.369v-1.456H17.68v4.173h3.471v1.456H16.263v.572H26.7v-.572Zm6.305,7.007A2.7,2.7,0,0,0,29.7-.13c0-.689-.312-1.118-.78-1.118a.652.652,0,0,0-.689.65.637.637,0,0,0,.676.663.633.633,0,0,0,.156-.013,1.966,1.966,0,0,1-1.144,1.742ZM34.476-9.386V-8.8h4.5a8.2,8.2,0,0,1-.442,2.314l-4.615.338.156.637,4.238-.4A8.553,8.553,0,0,1,33.9-1.651l.39.572A8.707,8.707,0,0,0,39.65-9.386Zm7.813-1.248V.91h.689V-10.634Zm12.22,6.383H47.4V-6.383h6.747v-.572H47.4V-8.983h6.994v-.585H46.7v5.9h7.813Zm-9.23,2.99v.585H55.757v-.585Zm23.53-5.616H61.633V-9.5h7.085v-.585H60.957v3.8h7.852ZM64.831.312c-1.976,0-3.237-.559-3.237-1.495s1.261-1.5,3.237-1.5,3.237.559,3.237,1.5S66.807.312,64.831.312Zm0-3.549c-2.444,0-3.926.741-3.926,2.054S62.387.871,64.831.871s3.926-.728,3.926-2.054S67.275-3.237,64.831-3.237ZM59.618-5.005v.585H70.057v-.585Zm11.3,7.189h2.353V-10.192H70.915v.468h1.768V1.716H70.915Z" transform="translate(346.84 -442.341)"/>
    <path id="패스_8854" data-name="패스 8854" class="cls-11" d="M9.451-4.628h.689v-6.019H9.451v2.34H6.695v.6H9.451ZM7.4-5.473A4.213,4.213,0,0,1,4.42-9.061V-10.3H3.77v1.235A4.313,4.313,0,0,1,.793-5.187l.364.546a5.015,5.015,0,0,0,2.964-3,4.982,4.982,0,0,0,2.912,2.7ZM3.536.156V-1.4h6.6V-3.965H2.821v.572H9.464v1.43H2.86V.728h7.774V.156Zm13-8.138h2.808v-.585h-2.8v-1.9H15.86v1.9H13.026v.585h2.847v1.157a5.729,5.729,0,0,1-3.107,4.914l.416.533a6.373,6.373,0,0,0,3.029-3.809,6.147,6.147,0,0,0,3.068,3.6l.416-.559a5.425,5.425,0,0,1-3.159-4.68Zm4.576-2.652V.91h.7V-10.634Zm4.9,2.145h1.794v5.72c-.6.026-1.209.052-1.794.065Zm2.444,0h1.1v-.585h-5.3v.585h1.1v5.8c-.494.013-.949.013-1.352.013l.091.611a39.987,39.987,0,0,0,5.8-.364l-.052-.52c-.429.065-.91.1-1.391.13Zm2.6,1.2H29.263v.585h1.794v1.963H29.263v.572h1.794V.26h.663V-10.322h-.663Zm2.184-3.341V.91H33.9V-10.634Zm3.3,1.274v.585h4.615c-.182,2.847-1.937,5.3-5.109,6.838l.377.572c3.718-1.833,5.421-4.771,5.421-8Zm7.995-1.274V.91h.689V-10.634ZM55.926-7.358H49.6V-9.672h6.331Zm.676-2.873h-7.67v3.445H56.6Zm1.365,5.213V-5.59H47.528v.572H52.4v1.365H48.841v.559h7.072v1.287H48.867V.741h8.1V.169H49.543V-1.274h7.046V-3.653h-3.5V-5.018Z" transform="translate(513.162 -460.346)"/>
    <path id="패스_8855" data-name="패스 8855" class="cls-11" d="M1.4,2.184H3.757V1.716H1.989V-9.724H3.757v-.468H1.4ZM8.164-8.853h3.211v4.082H8.164ZM10.114-1.2v-2.99h3.874v-.585H12.064V-8.853h1.924v-.585H5.551v.585H7.488v4.082H5.564v.585H9.425V-1.2H4.563v.585H15.054V-1.2Zm12.74-3.653a4.016,4.016,0,0,1-2.886-3.523v-.78H22.7v-.572H16.549v.572h2.743v.793A4.3,4.3,0,0,1,16.3-4.537l.364.546a5.044,5.044,0,0,0,2.99-3.016,4.715,4.715,0,0,0,2.86,2.7ZM21.528.312c-1.846,0-3.042-.572-3.042-1.495s1.2-1.5,3.042-1.5,3.055.572,3.055,1.5S23.387.312,21.528.312Zm0-3.549c-2.314,0-3.718.741-3.718,2.054S19.214.871,21.528.871,25.259.13,25.259-1.183,23.842-3.237,21.528-3.237Zm3.64-4.3v-3.094h-.689v7.02h.689V-6.942h1.807v-.6Zm7.917,2.418H29.224V-7.371h3.861Zm.676-4.81h-.676v1.989H29.224V-9.932h-.689V-4.55h5.226Zm-4.277,7.54h6.695V.91h.689V-2.977H29.484Zm9.191-5.135H36.868v-3.107h-.689v6.981h.689V-6.929h1.807ZM49.517-4.641c-1.638-.325-4.3-2.067-4.3-4.2v-.923H44.5v.923c0,2.145-2.626,3.861-4.277,4.2l.325.585A6.677,6.677,0,0,0,44.863-7.54a6.691,6.691,0,0,0,4.329,3.484ZM39.663-1.326v.585H50.141v-.585ZM51.545,2.288A2.7,2.7,0,0,0,53.1-.13c0-.689-.312-1.118-.78-1.118a.652.652,0,0,0-.689.65.637.637,0,0,0,.676.663.633.633,0,0,0,.156-.013,1.966,1.966,0,0,1-1.144,1.742ZM66.833-4.641c-1.638-.325-4.3-2.067-4.3-4.2v-.923h-.715v.923c0,2.145-2.626,3.861-4.277,4.2l.325.585A6.677,6.677,0,0,0,62.179-7.54a6.691,6.691,0,0,0,4.329,3.484ZM56.979-1.326v.585H67.457v-.585ZM70.174-2.561V-5.694h4.368v-.585H70.174V-8.957h4.758v-.585H69.485v7.566h.871a29.226,29.226,0,0,0,5.59-.4l-.091-.585a28.085,28.085,0,0,1-5.5.4Zm7.215-8.086V.91h.689V-10.647ZM85.943-1.2V-3.627h3.822v-.585H82.433V-6.435h7.059V-9.711H81.718v.572h7.1v2.132H81.757v3.38h3.5V-1.2H80.379v.6H90.87v-.6Zm8.125-1.066h6.487v2.4H94.068ZM93.4.728h7.826V-2.821H93.4Zm2.275-10.4h3.211v2.847H95.68ZM97.643-4.68V-6.253h3.822v-.572H99.58V-9.672h1.911v-.572h-8.4v.572H95v2.847h-1.9v.572h3.848V-4.68H92.079v.585h10.439V-4.68Zm5.746,6.864h2.353V-10.192h-2.353v.468h1.768V1.716h-1.768Z" transform="translate(488.605 -442.341)"/>
  </g>
  <g id="그룹_5221" data-name="그룹 5221" transform="translate(756.791 311.176)">
    <path id="패스_5528" data-name="패스 5528" class="cls-11" d="M0,0V23.824H-32.369V0l-.4-1.988,16.951-13.038L-.183-2.234Z"/>
  </g>
  <g id="그룹_5228" data-name="그룹 5228" class="cls-20" transform="translate(-9.283 642)">
    <g id="그룹_5225" data-name="그룹 5225" transform="translate(764.736 -346.17)">
      <path id="패스_5532" data-name="패스 5532" class="cls-21" d="M0,0C-.009-1.795-.018-5.652-.018-8.625c0-4.129-4.776-3.629-4.776-3.629H-12s-4.8-.5-4.8,3.629c0,2.973-.009,6.83-.018,8.625"/>
    </g>
    <g id="그룹_5226" data-name="그룹 5226" transform="translate(761.282 -346.17)">
      <path id="패스_5533" data-name="패스 5533" class="cls-22" d="M0,0V-7.537"/>
    </g>
    <g id="그룹_5227" data-name="그룹 5227" transform="translate(751.331 -353.705)">
      <path id="패스_5534" data-name="패스 5534" class="cls-22" d="M0,0-.006,7.535"/>
    </g>
  </g>
  <g id="그룹_5229" data-name="그룹 5229" transform="translate(754.987 309.486)">
    <path id="패스_5536" data-name="패스 5536" class="cls-15" d="M0,0V23.692H-32.165V0l-.4-1.977,16.844-12.965L-.182-2.222Z"/>
  </g>
  <g id="그룹_5230" data-name="그룹 5230" transform="translate(754.987 309.486)">
    <path id="패스_5537" data-name="패스 5537" class="cls-16" d="M0,0V23.692H-32.165V0l-.4-1.977,16.844-12.965L-.182-2.222Z"/>
  </g>
  <g id="그룹_5231" data-name="그룹 5231" transform="translate(759.387 308.237)">
    <path id="패스_5538" data-name="패스 5538" class="cls-15" d="M0,0-18.509-15.178a3.07,3.07,0,0,0-4.108,0L-41.126,0a1.949,1.949,0,0,0-.194,2.695,1.822,1.822,0,0,0,2.62.2l17.691-14.34a.669.669,0,0,1,.892,0L-2.425,2.9a1.823,1.823,0,0,0,2.62-.2A1.95,1.95,0,0,0,0,0"/>
  </g>
  <g id="그룹_5232" data-name="그룹 5232" transform="translate(759.387 308.237)">
    <path id="패스_5539" data-name="패스 5539" class="cls-16" d="M0,0-18.509-15.178a3.07,3.07,0,0,0-4.108,0L-41.126,0a1.949,1.949,0,0,0-.194,2.695,1.822,1.822,0,0,0,2.62.2l17.691-14.34a.669.669,0,0,1,.892,0L-2.425,2.9a1.823,1.823,0,0,0,2.62-.2A1.95,1.95,0,0,0,0,0Z"/>
  </g>
  <g id="그룹_5233" data-name="그룹 5233" transform="translate(722.907 315.211)">
    <path id="패스_5540" data-name="패스 5540" class="cls-11" d="M0,0A4.747,4.747,0,0,1-4.764-4.73,4.75,4.75,0,0,1,0-9.465,4.75,4.75,0,0,1,4.764-4.73,4.747,4.747,0,0,1,0,0"/>
  </g>
  <g id="그룹_5234" data-name="그룹 5234" transform="translate(722.907 315.211)">
    <path id="패스_5541" data-name="패스 5541" class="cls-22" d="M0,0A4.747,4.747,0,0,1-4.764-4.73,4.75,4.75,0,0,1,0-9.465,4.75,4.75,0,0,1,4.764-4.73,4.747,4.747,0,0,1,0,0Z"/>
  </g>
  <g id="그룹_5235" data-name="그룹 5235" transform="translate(734.593 335)">
    <path id="패스_5542" data-name="패스 5542" class="cls-23" d="M0,0C-.012-2.3-.024-7.234-.024-11.039c0-5.285-6.252-4.645-6.252-4.645h-9.432s-6.279-.64-6.279,4.645c0,3.8-.012,8.742-.024,11.039"/>
  </g>
  <g id="그룹_5236" data-name="그룹 5236" transform="translate(722.078 314.66)">
    <path id="패스_5543" data-name="패스 5543" class="cls-15" d="M0,0A4.747,4.747,0,0,1-4.764-4.73,4.75,4.75,0,0,1,0-9.465,4.75,4.75,0,0,1,4.764-4.73,4.747,4.747,0,0,1,0,0"/>
  </g>
  <g id="그룹_5237" data-name="그룹 5237" transform="translate(722.078 314.66)">
    <path id="패스_5544" data-name="패스 5544" class="cls-22" d="M0,0A4.747,4.747,0,0,1-4.764-4.73,4.75,4.75,0,0,1,0-9.465,4.75,4.75,0,0,1,4.764-4.73,4.747,4.747,0,0,1,0,0Z"/>
  </g>
  <g id="그룹_5238" data-name="그룹 5238" transform="translate(733.084 333.383)">
    <path id="패스_5545" data-name="패스 5545" class="cls-21" d="M0,0C-.012-2.34-.024-7.371-.024-11.246c0-5.383-6.252-4.731-6.252-4.731h-9.432s-6.279-.652-6.279,4.731C-21.987-7.371-22-2.34-22.011,0"/>
  </g>
  <g id="그룹_5240" data-name="그룹 5240" transform="translate(728.42 333.383)">
    <path id="패스_5547" data-name="패스 5547" class="cls-22" d="M0,0V-9.738"/>
  </g>
  <g id="그룹_5241" data-name="그룹 5241" transform="translate(716.008 323.672)">
    <path id="패스_5548" data-name="패스 5548" class="cls-22" d="M0,0,.086,9.688"/>
  </g>
  <path id="패스_8864" data-name="패스 8864" class="cls-11" d="M9.45-9.142A27.213,27.213,0,0,1,8.96-3.36l1.456.154a28.947,28.947,0,0,0,.49-5.936v-1.246h-9v1.176H9.45ZM6.426-1.764V-6.216H4.97v4.452H.714v1.19H12.138v-1.19Zm7.49-8.89v1.162h3.472c-.238,1.946-1.54,3.444-4.032,4.424l.686,1.036c3.248-1.3,4.83-3.514,4.83-6.622Zm1.568,8.246h7.154v3.5H24.08V-3.57h-8.6Zm7.224-9.156V-8.5h-1.4v-2.828H19.95V-4.2h1.358V-7.322h1.4v3.178H24.08v-7.42Z" transform="translate(723.429 353.484)"/>
  <g id="그룹_5242" data-name="그룹 5242" transform="translate(260.342 207.771)">
    <path id="패스_5549" data-name="패스 5549" class="cls-9" d="M0,0V11.854H114.818V0"/>
  </g>
  <g id="그룹_5243" data-name="그룹 5243" transform="translate(260.384 111.262)">
    <path id="패스_5550" data-name="패스 5550" class="cls-11" d="M0,0-.986,27.584H6.246L5.26,0Z"/>
  </g>
  <g id="그룹_5244" data-name="그룹 5244" transform="translate(250.26 111.262)">
    <path id="패스_5551" data-name="패스 5551" class="cls-11" d="M0,0-.986,27.584H6.246L5.26,0Z"/>
  </g>
  <g id="그룹_5245" data-name="그룹 5245" transform="translate(281.046 156.117)">
    <path id="패스_5552" data-name="패스 5552" class="cls-11" d="M0,0V-30.031H-.1l-9.771,9.545v-9.545h-.1l-9.771,9.545v-9.545h-.1l-9.5,9.277v-9.277h-.1l-9.771,9.545V0H0Z"/>
  </g>
  <path id="패스_5553" data-name="패스 5553" class="cls-11" d="M270.131-495.051h6.2v-6.211h-6.2Z" transform="translate(-9.283 642)"/>
  <path id="패스_5554" data-name="패스 5554" class="cls-11" d="M279.671-495.051h6.205v-6.211h-6.205Z" transform="translate(-9.283 642)"/>
  <g id="그룹_5246" data-name="그룹 5246" transform="translate(258.041 108.887)">
    <path id="패스_5555" data-name="패스 5555" class="cls-15" d="M0,0-.986,27.584H6.246L5.26,0Z"/>
  </g>
  <g id="그룹_5247" data-name="그룹 5247" transform="translate(258.041 108.887)">
    <path id="패스_5556" data-name="패스 5556" class="cls-22" d="M0,0-.986,27.584H6.246L5.26,0Z"/>
  </g>
  <g id="그룹_5248" data-name="그룹 5248" transform="translate(247.917 108.887)">
    <path id="패스_5557" data-name="패스 5557" class="cls-15" d="M0,0-.986,27.584H6.246L5.26,0Z"/>
  </g>
  <g id="그룹_5249" data-name="그룹 5249" transform="translate(247.917 108.887)">
    <path id="패스_5558" data-name="패스 5558" class="cls-22" d="M0,0-.986,27.584H6.246L5.26,0Z"/>
  </g>
  <g id="그룹_5250" data-name="그룹 5250" transform="translate(278.703 153.742)">
    <path id="패스_5559" data-name="패스 5559" class="cls-15" d="M0,0V-30.031H-.1l-9.771,9.545v-9.545h-.1l-9.771,9.545v-9.545h-.1l-9.5,9.277v-9.277h-.1l-9.771,9.545V0H0Z"/>
  </g>
  <g id="그룹_5251" data-name="그룹 5251" transform="translate(278.703 153.742)">
    <path id="패스_5560" data-name="패스 5560" class="cls-22" d="M0,0V-30.031H-.1l-9.771,9.545v-9.545h-.1l-9.771,9.545v-9.545h-.1l-9.5,9.277v-9.277h-.1l-9.771,9.545V0H0Z"/>
  </g>
  <g id="그룹_5252" data-name="그룹 5252" transform="translate(279.973 162.102)">
    <path id="패스_5561" data-name="패스 5561" class="cls-15" d="M0,0A12.333,12.333,0,0,0,12.5-12.161,12.333,12.333,0,0,0,0-24.321a12.333,12.333,0,0,0-12.5,12.16A12.333,12.333,0,0,0,0,0"/>
  </g>
  <g id="그룹_5253" data-name="그룹 5253" transform="translate(279.973 162.102)">
    <path id="패스_5562" data-name="패스 5562" class="cls-22" d="M0,0A12.333,12.333,0,0,0,12.5-12.161,12.333,12.333,0,0,0,0-24.321a12.333,12.333,0,0,0-12.5,12.16A12.333,12.333,0,0,0,0,0Z"/>
  </g>
  <g id="그룹_5254" data-name="그룹 5254" transform="translate(284.274 148.128)">
    <path id="패스_5563" data-name="패스 5563" class="cls-21" d="M0,0-2.464-4.093a2.222,2.222,0,0,0-3.765,0L-7.718-1.621M-3.93,7.361h4.6A2.086,2.086,0,0,0,2.55,4.234L1.243,2.064M-8.794.166l-2.449,4.068A2.086,2.086,0,0,0-9.361,7.361h2.8"/>
  </g>
  <g id="그룹_5256" data-name="그룹 5256" transform="translate(278.424 145.808)">
    <path id="패스_5565" data-name="패스 5565" class="cls-22" d="M0,0-1.935.36l-.708-1.72"/>
  </g>
  <g id="그룹_5257" data-name="그룹 5257" transform="translate(276.516 154.266)">
    <path id="패스_5566" data-name="패스 5566" class="cls-22" d="M0,0,1.211,1.366-.056,2.79"/>
  </g>
  <g id="그룹_5258" data-name="그룹 5258" transform="translate(284.949 151.799)">
    <path id="패스_5567" data-name="패스 5567" class="cls-22" d="M0,0,.648-1.653l2.028.347"/>
  </g>
  <path id="패스_8858" data-name="패스 8858" class="cls-11" d="M2.39-6.23h.96c.95,0,1.47.27,1.47,1.07S4.3-3.97,3.35-3.97H2.39ZM6.59,0,4.86-3.03A2.118,2.118,0,0,0,6.27-5.16c0-1.7-1.23-2.24-2.78-2.24H.91V0H2.39V-2.8H3.42L4.94,0Zm3.96.14A3,3,0,0,0,12.91-.95l-.78-.92a2.058,2.058,0,0,1-1.53.73c-1.17,0-1.93-.97-1.93-2.58,0-1.59.84-2.55,1.96-2.55a1.908,1.908,0,0,1,1.36.62l.78-.94a3.019,3.019,0,0,0-2.17-.95c-1.87,0-3.44,1.43-3.44,3.87C7.16-1.2,8.68.14,10.55.14Z" transform="translate(243.134 148.182)"/>
  <g id="그룹_5259" data-name="그룹 5259" transform="translate(105.287 477.118)">
    <path id="패스_5568" data-name="패스 5568" class="cls-11" d="M0,0-.986,27.584H6.246L5.26,0Z"/>
  </g>
  <g id="그룹_5260" data-name="그룹 5260" transform="translate(95.164 477.118)">
    <path id="패스_5569" data-name="패스 5569" class="cls-11" d="M0,0-.986,27.584H6.246L5.26,0Z"/>
  </g>
  <g id="그룹_5261" data-name="그룹 5261" transform="translate(125.95 521.973)">
    <path id="패스_5570" data-name="패스 5570" class="cls-11" d="M0,0V-30.031H-.1l-9.771,9.545v-9.545h-.1l-9.771,9.545v-9.545h-.1l-9.5,9.277v-9.277h-.1l-9.771,9.545V0H0Z"/>
  </g>
  <path id="패스_5571" data-name="패스 5571" class="cls-11" d="M115.035-129.2h6.2v-6.211h-6.2Z" transform="translate(-9.283 642)"/>
  <path id="패스_5572" data-name="패스 5572" class="cls-11" d="M124.575-129.2h6.205v-6.211h-6.205Z" transform="translate(-9.283 642)"/>
  <g id="그룹_5262" data-name="그룹 5262" transform="translate(102.945 474.743)">
    <path id="패스_5573" data-name="패스 5573" class="cls-15" d="M0,0-.986,27.584H6.246L5.26,0Z"/>
  </g>
  <g id="그룹_5263" data-name="그룹 5263" transform="translate(102.945 474.743)">
    <path id="패스_5574" data-name="패스 5574" class="cls-22" d="M0,0-.986,27.584H6.246L5.26,0Z"/>
  </g>
  <g id="그룹_5264" data-name="그룹 5264" transform="translate(92.821 474.743)">
    <path id="패스_5575" data-name="패스 5575" class="cls-15" d="M0,0-.986,27.584H6.246L5.26,0Z"/>
  </g>
  <g id="그룹_5265" data-name="그룹 5265" transform="translate(92.821 474.743)">
    <path id="패스_5576" data-name="패스 5576" class="cls-22" d="M0,0-.986,27.584H6.246L5.26,0Z"/>
  </g>
  <g id="그룹_5266" data-name="그룹 5266" transform="translate(123.607 519.598)">
    <path id="패스_5577" data-name="패스 5577" class="cls-15" d="M0,0V-30.031H-.1l-9.771,9.545v-9.545h-.1l-9.771,9.545v-9.545h-.1l-9.5,9.277v-9.277h-.1l-9.771,9.545V0H0Z"/>
  </g>
  <g id="그룹_5267" data-name="그룹 5267" transform="translate(123.607 519.598)">
    <path id="패스_5578" data-name="패스 5578" class="cls-22" d="M0,0V-30.031H-.1l-9.771,9.545v-9.545h-.1l-9.771,9.545v-9.545h-.1l-9.5,9.277v-9.277h-.1l-9.771,9.545V0H0Z"/>
  </g>
  <g id="그룹_5268" data-name="그룹 5268" transform="translate(124.877 527.958)">
    <path id="패스_5579" data-name="패스 5579" class="cls-15" d="M0,0A12.333,12.333,0,0,0,12.5-12.161,12.333,12.333,0,0,0,0-24.321a12.333,12.333,0,0,0-12.5,12.16A12.333,12.333,0,0,0,0,0"/>
  </g>
  <g id="그룹_5269" data-name="그룹 5269" transform="translate(124.877 527.958)">
    <path id="패스_5580" data-name="패스 5580" class="cls-22" d="M0,0A12.333,12.333,0,0,0,12.5-12.161,12.333,12.333,0,0,0,0-24.321a12.333,12.333,0,0,0-12.5,12.16A12.333,12.333,0,0,0,0,0Z"/>
  </g>
  <g id="그룹_5270" data-name="그룹 5270" transform="translate(129.178 513.985)">
    <path id="패스_5581" data-name="패스 5581" class="cls-21" d="M0,0-2.464-4.093a2.222,2.222,0,0,0-3.765,0L-7.718-1.621M-3.93,7.361h4.6A2.086,2.086,0,0,0,2.55,4.234L1.243,2.064M-8.794.166l-2.449,4.068A2.086,2.086,0,0,0-9.361,7.361h2.8"/>
  </g>
  <g id="그룹_5272" data-name="그룹 5272" transform="translate(123.328 511.664)">
    <path id="패스_5583" data-name="패스 5583" class="cls-22" d="M0,0-1.935.36l-.708-1.72"/>
  </g>
  <g id="그룹_5273" data-name="그룹 5273" transform="translate(121.42 520.123)">
    <path id="패스_5584" data-name="패스 5584" class="cls-22" d="M0,0,1.211,1.366-.056,2.79"/>
  </g>
  <g id="그룹_5274" data-name="그룹 5274" transform="translate(129.853 517.655)">
    <path id="패스_5585" data-name="패스 5585" class="cls-22" d="M0,0,.648-1.653l2.028.347"/>
  </g>
  <path id="패스_8871" data-name="패스 8871" class="cls-11" d="M2.39-6.23h.96c.95,0,1.47.27,1.47,1.07S4.3-3.97,3.35-3.97H2.39ZM6.59,0,4.86-3.03A2.118,2.118,0,0,0,6.27-5.16c0-1.7-1.23-2.24-2.78-2.24H.91V0H2.39V-2.8H3.42L4.94,0Zm3.96.14A3,3,0,0,0,12.91-.95l-.78-.92a2.058,2.058,0,0,1-1.53.73c-1.17,0-1.93-.97-1.93-2.58,0-1.59.84-2.55,1.96-2.55a1.908,1.908,0,0,1,1.36.62l.78-.94a3.019,3.019,0,0,0-2.17-.95c-1.87,0-3.44,1.43-3.44,3.87C7.16-1.2,8.68.14,10.55.14Z" transform="translate(88.039 514.038)"/>
  <g id="그룹_5275" data-name="그룹 5275" transform="translate(370.045 111.262)">
    <path id="패스_5586" data-name="패스 5586" class="cls-11" d="M0,0-.986,27.584H6.246L5.26,0Z"/>
  </g>
  <g id="그룹_5276" data-name="그룹 5276" transform="translate(359.922 111.262)">
    <path id="패스_5587" data-name="패스 5587" class="cls-11" d="M0,0-.986,27.584H6.246L5.26,0Z"/>
  </g>
  <g id="그룹_5277" data-name="그룹 5277" transform="translate(390.708 156.117)">
    <path id="패스_5588" data-name="패스 5588" class="cls-11" d="M0,0V-30.031H-.1l-9.771,9.545v-9.545h-.1l-9.771,9.545v-9.545h-.1l-9.5,9.277v-9.277h-.1l-9.771,9.545V0H0Z"/>
  </g>
  <path id="패스_5589" data-name="패스 5589" class="cls-11" d="M379.793-495.051H386v-6.211h-6.2Z" transform="translate(-9.283 642)"/>
  <path id="패스_5590" data-name="패스 5590" class="cls-11" d="M389.333-495.051h6.2v-6.211h-6.2Z" transform="translate(-9.283 642)"/>
  <g id="그룹_5278" data-name="그룹 5278" transform="translate(367.703 108.887)">
    <path id="패스_5591" data-name="패스 5591" class="cls-15" d="M0,0-.986,27.584H6.246L5.26,0Z"/>
  </g>
  <g id="그룹_5279" data-name="그룹 5279" transform="translate(367.703 108.887)">
    <path id="패스_5592" data-name="패스 5592" class="cls-22" d="M0,0-.986,27.584H6.246L5.26,0Z"/>
  </g>
  <g id="그룹_5280" data-name="그룹 5280" transform="translate(357.579 108.887)">
    <path id="패스_5593" data-name="패스 5593" class="cls-15" d="M0,0-.986,27.584H6.246L5.26,0Z"/>
  </g>
  <g id="그룹_5281" data-name="그룹 5281" transform="translate(357.579 108.887)">
    <path id="패스_5594" data-name="패스 5594" class="cls-22" d="M0,0-.986,27.584H6.246L5.26,0Z"/>
  </g>
  <g id="그룹_5282" data-name="그룹 5282" transform="translate(388.365 153.742)">
    <path id="패스_5595" data-name="패스 5595" class="cls-15" d="M0,0V-30.031H-.1l-9.771,9.545v-9.545h-.1l-9.771,9.545v-9.545h-.1l-9.5,9.277v-9.277h-.1l-9.771,9.545V0H0Z"/>
  </g>
  <g id="그룹_5283" data-name="그룹 5283" transform="translate(388.365 153.742)">
    <path id="패스_5596" data-name="패스 5596" class="cls-22" d="M0,0V-30.031H-.1l-9.771,9.545v-9.545h-.1l-9.771,9.545v-9.545h-.1l-9.5,9.277v-9.277h-.1l-9.771,9.545V0H0Z"/>
  </g>
  <g id="그룹_5284" data-name="그룹 5284" transform="translate(389.635 162.102)">
    <path id="패스_5597" data-name="패스 5597" class="cls-15" d="M0,0A12.333,12.333,0,0,0,12.5-12.161,12.333,12.333,0,0,0,0-24.321a12.333,12.333,0,0,0-12.5,12.16A12.333,12.333,0,0,0,0,0"/>
  </g>
  <g id="그룹_5285" data-name="그룹 5285" transform="translate(389.635 162.102)">
    <path id="패스_5598" data-name="패스 5598" class="cls-22" d="M0,0A12.333,12.333,0,0,0,12.5-12.161,12.333,12.333,0,0,0,0-24.321a12.333,12.333,0,0,0-12.5,12.16A12.333,12.333,0,0,0,0,0Z"/>
  </g>
  <g id="그룹_5286" data-name="그룹 5286" transform="translate(393.936 148.128)">
    <path id="패스_5599" data-name="패스 5599" class="cls-21" d="M0,0-2.464-4.093a2.222,2.222,0,0,0-3.765,0L-7.718-1.621M-3.93,7.361h4.6A2.086,2.086,0,0,0,2.55,4.234L1.243,2.064M-8.794.166l-2.449,4.068A2.086,2.086,0,0,0-9.361,7.361h2.8"/>
  </g>
  <g id="그룹_5288" data-name="그룹 5288" transform="translate(388.086 145.808)">
    <path id="패스_5601" data-name="패스 5601" class="cls-22" d="M0,0-1.935.36l-.708-1.72"/>
  </g>
  <g id="그룹_5289" data-name="그룹 5289" transform="translate(386.177 154.266)">
    <path id="패스_5602" data-name="패스 5602" class="cls-22" d="M0,0,1.211,1.366-.056,2.79"/>
  </g>
  <g id="그룹_5290" data-name="그룹 5290" transform="translate(394.611 151.799)">
    <path id="패스_5603" data-name="패스 5603" class="cls-22" d="M0,0,.648-1.653l2.028.347"/>
  </g>
  <path id="패스_8857" data-name="패스 8857" class="cls-11" d="M2.39-6.23h.96c.95,0,1.47.27,1.47,1.07S4.3-3.97,3.35-3.97H2.39ZM6.59,0,4.86-3.03A2.118,2.118,0,0,0,6.27-5.16c0-1.7-1.23-2.24-2.78-2.24H.91V0H2.39V-2.8H3.42L4.94,0Zm3.96.14A3,3,0,0,0,12.91-.95l-.78-.92a2.058,2.058,0,0,1-1.53.73c-1.17,0-1.93-.97-1.93-2.58,0-1.59.84-2.55,1.96-2.55a1.908,1.908,0,0,1,1.36.62l.78-.94a3.019,3.019,0,0,0-2.17-.95c-1.87,0-3.44,1.43-3.44,3.87C7.16-1.2,8.68.14,10.55.14Z" transform="translate(352.796 148.182)"/>
  <g id="그룹_5291" data-name="그룹 5291" transform="translate(526.368 111.262)">
    <path id="패스_5604" data-name="패스 5604" class="cls-11" d="M0,0-.986,27.584H6.246L5.26,0Z"/>
  </g>
  <g id="그룹_5292" data-name="그룹 5292" transform="translate(516.245 111.262)">
    <path id="패스_5605" data-name="패스 5605" class="cls-11" d="M0,0-.986,27.584H6.246L5.26,0Z"/>
  </g>
  <g id="그룹_5293" data-name="그룹 5293" transform="translate(547.03 156.117)">
    <path id="패스_5606" data-name="패스 5606" class="cls-11" d="M0,0V-30.031H-.1l-9.771,9.545v-9.545h-.1l-9.771,9.545v-9.545h-.1l-9.5,9.277v-9.277h-.1l-9.771,9.545V0H0Z"/>
  </g>
  <path id="패스_5607" data-name="패스 5607" class="cls-11" d="M536.116-495.051h6.2v-6.211h-6.2Z" transform="translate(-9.283 642)"/>
  <path id="패스_5608" data-name="패스 5608" class="cls-11" d="M545.656-495.051h6.205v-6.211h-6.205Z" transform="translate(-9.283 642)"/>
  <g id="그룹_5294" data-name="그룹 5294" transform="translate(524.025 108.887)">
    <path id="패스_5609" data-name="패스 5609" class="cls-15" d="M0,0-.986,27.584H6.246L5.26,0Z"/>
  </g>
  <g id="그룹_5295" data-name="그룹 5295" transform="translate(524.025 108.887)">
    <path id="패스_5610" data-name="패스 5610" class="cls-22" d="M0,0-.986,27.584H6.246L5.26,0Z"/>
  </g>
  <g id="그룹_5296" data-name="그룹 5296" transform="translate(513.902 108.887)">
    <path id="패스_5611" data-name="패스 5611" class="cls-15" d="M0,0-.986,27.584H6.246L5.26,0Z"/>
  </g>
  <g id="그룹_5297" data-name="그룹 5297" transform="translate(513.902 108.887)">
    <path id="패스_5612" data-name="패스 5612" class="cls-22" d="M0,0-.986,27.584H6.246L5.26,0Z"/>
  </g>
  <g id="그룹_5298" data-name="그룹 5298" transform="translate(544.688 153.742)">
    <path id="패스_5613" data-name="패스 5613" class="cls-15" d="M0,0V-30.031H-.1l-9.771,9.545v-9.545h-.1l-9.771,9.545v-9.545h-.1l-9.5,9.277v-9.277h-.1l-9.771,9.545V0H0Z"/>
  </g>
  <g id="그룹_5299" data-name="그룹 5299" transform="translate(544.688 153.742)">
    <path id="패스_5614" data-name="패스 5614" class="cls-22" d="M0,0V-30.031H-.1l-9.771,9.545v-9.545h-.1l-9.771,9.545v-9.545h-.1l-9.5,9.277v-9.277h-.1l-9.771,9.545V0H0Z"/>
  </g>
  <g id="그룹_5300" data-name="그룹 5300" transform="translate(545.958 162.102)">
    <path id="패스_5615" data-name="패스 5615" class="cls-15" d="M0,0A12.333,12.333,0,0,0,12.5-12.161,12.333,12.333,0,0,0,0-24.321a12.333,12.333,0,0,0-12.5,12.16A12.333,12.333,0,0,0,0,0"/>
  </g>
  <g id="그룹_5301" data-name="그룹 5301" transform="translate(545.958 162.102)">
    <path id="패스_5616" data-name="패스 5616" class="cls-22" d="M0,0A12.333,12.333,0,0,0,12.5-12.161,12.333,12.333,0,0,0,0-24.321a12.333,12.333,0,0,0-12.5,12.16A12.333,12.333,0,0,0,0,0Z"/>
  </g>
  <g id="그룹_5302" data-name="그룹 5302" transform="translate(550.259 148.128)">
    <path id="패스_5617" data-name="패스 5617" class="cls-21" d="M0,0-2.464-4.093a2.222,2.222,0,0,0-3.765,0L-7.718-1.621M-3.93,7.361h4.6A2.086,2.086,0,0,0,2.55,4.234L1.243,2.064M-8.794.166l-2.449,4.068A2.086,2.086,0,0,0-9.361,7.361h2.8"/>
  </g>
  <g id="그룹_5304" data-name="그룹 5304" transform="translate(544.409 145.808)">
    <path id="패스_5619" data-name="패스 5619" class="cls-22" d="M0,0-1.935.36l-.708-1.72"/>
  </g>
  <g id="그룹_5305" data-name="그룹 5305" transform="translate(542.5 154.266)">
    <path id="패스_5620" data-name="패스 5620" class="cls-22" d="M0,0,1.211,1.366-.056,2.79"/>
  </g>
  <g id="그룹_5306" data-name="그룹 5306" transform="translate(550.934 151.799)">
    <path id="패스_5621" data-name="패스 5621" class="cls-22" d="M0,0,.648-1.653l2.028.347"/>
  </g>
  <path id="패스_8856" data-name="패스 8856" class="cls-11" d="M2.39-6.23h.96c.95,0,1.47.27,1.47,1.07S4.3-3.97,3.35-3.97H2.39ZM6.59,0,4.86-3.03A2.118,2.118,0,0,0,6.27-5.16c0-1.7-1.23-2.24-2.78-2.24H.91V0H2.39V-2.8H3.42L4.94,0Zm3.96.14A3,3,0,0,0,12.91-.95l-.78-.92a2.058,2.058,0,0,1-1.53.73c-1.17,0-1.93-.97-1.93-2.58,0-1.59.84-2.55,1.96-2.55a1.908,1.908,0,0,1,1.36.62l.78-.94a3.019,3.019,0,0,0-2.17-.95c-1.87,0-3.44,1.43-3.44,3.87C7.16-1.2,8.68.14,10.55.14Z" transform="translate(509.119 148.182)"/>
  <g id="그룹_5307" data-name="그룹 5307" transform="translate(515.862 422.875)">
    <path id="패스_5622" data-name="패스 5622" class="cls-11" d="M0,0-.986,27.584H6.246L5.26,0Z"/>
  </g>
  <g id="그룹_5308" data-name="그룹 5308" transform="translate(505.738 422.875)">
    <path id="패스_5623" data-name="패스 5623" class="cls-11" d="M0,0-.986,27.584H6.246L5.26,0Z"/>
  </g>
  <g id="그룹_5309" data-name="그룹 5309" transform="translate(536.524 467.73)">
    <path id="패스_5624" data-name="패스 5624" class="cls-11" d="M0,0V-30.031H-.1l-9.771,9.545v-9.545h-.1l-9.771,9.545v-9.545h-.1l-9.5,9.277v-9.277h-.1l-9.771,9.545V0H0Z"/>
  </g>
  <path id="패스_5625" data-name="패스 5625" class="cls-11" d="M525.61-183.437h6.205v-6.211H525.61Z" transform="translate(-9.283 642)"/>
  <path id="패스_5626" data-name="패스 5626" class="cls-11" d="M535.15-183.437h6.2v-6.211h-6.2Z" transform="translate(-9.283 642)"/>
  <g id="그룹_5310" data-name="그룹 5310" transform="translate(513.519 420.5)">
    <path id="패스_5627" data-name="패스 5627" class="cls-15" d="M0,0-.986,27.584H6.246L5.26,0Z"/>
  </g>
  <g id="그룹_5311" data-name="그룹 5311" transform="translate(513.519 420.5)">
    <path id="패스_5628" data-name="패스 5628" class="cls-22" d="M0,0-.986,27.584H6.246L5.26,0Z"/>
  </g>
  <g id="그룹_5312" data-name="그룹 5312" transform="translate(503.395 420.5)">
    <path id="패스_5629" data-name="패스 5629" class="cls-15" d="M0,0-.986,27.584H6.246L5.26,0Z"/>
  </g>
  <g id="그룹_5313" data-name="그룹 5313" transform="translate(503.395 420.5)">
    <path id="패스_5630" data-name="패스 5630" class="cls-22" d="M0,0-.986,27.584H6.246L5.26,0Z"/>
  </g>
  <g id="그룹_5314" data-name="그룹 5314" transform="translate(534.181 465.355)">
    <path id="패스_5631" data-name="패스 5631" class="cls-15" d="M0,0V-30.031H-.1l-9.771,9.545v-9.545h-.1l-9.771,9.545v-9.545h-.1l-9.5,9.277v-9.277h-.1l-9.771,9.545V0H0Z"/>
  </g>
  <g id="그룹_5315" data-name="그룹 5315" transform="translate(534.181 465.355)">
    <path id="패스_5632" data-name="패스 5632" class="cls-22" d="M0,0V-30.031H-.1l-9.771,9.545v-9.545h-.1l-9.771,9.545v-9.545h-.1l-9.5,9.277v-9.277h-.1l-9.771,9.545V0H0Z"/>
  </g>
  <g id="그룹_5316" data-name="그룹 5316" transform="translate(535.451 473.715)">
    <path id="패스_5633" data-name="패스 5633" class="cls-15" d="M0,0A12.333,12.333,0,0,0,12.5-12.161,12.333,12.333,0,0,0,0-24.321a12.333,12.333,0,0,0-12.5,12.16A12.333,12.333,0,0,0,0,0"/>
  </g>
  <g id="그룹_5317" data-name="그룹 5317" transform="translate(535.451 473.715)">
    <path id="패스_5634" data-name="패스 5634" class="cls-22" d="M0,0A12.333,12.333,0,0,0,12.5-12.161,12.333,12.333,0,0,0,0-24.321a12.333,12.333,0,0,0-12.5,12.16A12.333,12.333,0,0,0,0,0Z"/>
  </g>
  <g id="그룹_5318" data-name="그룹 5318" transform="translate(539.753 459.742)">
    <path id="패스_5635" data-name="패스 5635" class="cls-21" d="M0,0-2.464-4.093a2.222,2.222,0,0,0-3.765,0L-7.718-1.621M-3.93,7.361h4.6A2.086,2.086,0,0,0,2.55,4.234L1.243,2.064M-8.794.166l-2.449,4.068A2.086,2.086,0,0,0-9.361,7.361h2.8"/>
  </g>
  <g id="그룹_5320" data-name="그룹 5320" transform="translate(533.903 457.421)">
    <path id="패스_5637" data-name="패스 5637" class="cls-22" d="M0,0-1.935.36l-.708-1.72"/>
  </g>
  <g id="그룹_5321" data-name="그룹 5321" transform="translate(531.994 465.88)">
    <path id="패스_5638" data-name="패스 5638" class="cls-22" d="M0,0,1.211,1.366-.056,2.79"/>
  </g>
  <g id="그룹_5322" data-name="그룹 5322" transform="translate(540.428 463.412)">
    <path id="패스_5639" data-name="패스 5639" class="cls-22" d="M0,0,.648-1.653l2.028.347"/>
  </g>
  <path id="패스_8865" data-name="패스 8865" class="cls-11" d="M2.39-6.23h.96c.95,0,1.47.27,1.47,1.07S4.3-3.97,3.35-3.97H2.39ZM6.59,0,4.86-3.03A2.118,2.118,0,0,0,6.27-5.16c0-1.7-1.23-2.24-2.78-2.24H.91V0H2.39V-2.8H3.42L4.94,0Zm3.96.14A3,3,0,0,0,12.91-.95l-.78-.92a2.058,2.058,0,0,1-1.53.73c-1.17,0-1.93-.97-1.93-2.58,0-1.59.84-2.55,1.96-2.55a1.908,1.908,0,0,1,1.36.62l.78-.94a3.019,3.019,0,0,0-2.17-.95c-1.87,0-3.44,1.43-3.44,3.87C7.16-1.2,8.68.14,10.55.14Z" transform="translate(498.613 459.795)"/>
  <g id="그룹_5323" data-name="그룹 5323" transform="translate(515.862 491.034)">
    <path id="패스_5640" data-name="패스 5640" class="cls-11" d="M0,0-.986,27.584H6.246L5.26,0Z"/>
  </g>
  <g id="그룹_5324" data-name="그룹 5324" transform="translate(505.738 491.034)">
    <path id="패스_5641" data-name="패스 5641" class="cls-11" d="M0,0-.986,27.584H6.246L5.26,0Z"/>
  </g>
  <g id="그룹_5325" data-name="그룹 5325" transform="translate(536.524 535.889)">
    <path id="패스_5642" data-name="패스 5642" class="cls-11" d="M0,0V-30.031H-.1l-9.771,9.545v-9.545h-.1l-9.771,9.545v-9.545h-.1l-9.5,9.277v-9.277h-.1l-9.771,9.545V0H0Z"/>
  </g>
  <path id="패스_5643" data-name="패스 5643" class="cls-11" d="M525.61-115.277h6.205v-6.211H525.61Z" transform="translate(-9.283 642)"/>
  <path id="패스_5644" data-name="패스 5644" class="cls-11" d="M535.15-115.277h6.2v-6.211h-6.2Z" transform="translate(-9.283 642)"/>
  <g id="그룹_5326" data-name="그룹 5326" transform="translate(513.519 488.659)">
    <path id="패스_5645" data-name="패스 5645" class="cls-15" d="M0,0-.986,27.584H6.246L5.26,0Z"/>
  </g>
  <g id="그룹_5327" data-name="그룹 5327" transform="translate(513.519 488.659)">
    <path id="패스_5646" data-name="패스 5646" class="cls-22" d="M0,0-.986,27.584H6.246L5.26,0Z"/>
  </g>
  <g id="그룹_5328" data-name="그룹 5328" transform="translate(503.395 488.659)">
    <path id="패스_5647" data-name="패스 5647" class="cls-15" d="M0,0-.986,27.584H6.246L5.26,0Z"/>
  </g>
  <g id="그룹_5329" data-name="그룹 5329" transform="translate(503.395 488.659)">
    <path id="패스_5648" data-name="패스 5648" class="cls-22" d="M0,0-.986,27.584H6.246L5.26,0Z"/>
  </g>
  <g id="그룹_5330" data-name="그룹 5330" transform="translate(534.181 533.514)">
    <path id="패스_5649" data-name="패스 5649" class="cls-15" d="M0,0V-30.031H-.1l-9.771,9.545v-9.545h-.1l-9.771,9.545v-9.545h-.1l-9.5,9.277v-9.277h-.1l-9.771,9.545V0H0Z"/>
  </g>
  <g id="그룹_5331" data-name="그룹 5331" transform="translate(534.181 533.514)">
    <path id="패스_5650" data-name="패스 5650" class="cls-22" d="M0,0V-30.031H-.1l-9.771,9.545v-9.545h-.1l-9.771,9.545v-9.545h-.1l-9.5,9.277v-9.277h-.1l-9.771,9.545V0H0Z"/>
  </g>
  <g id="그룹_5332" data-name="그룹 5332" transform="translate(535.451 541.874)">
    <path id="패스_5651" data-name="패스 5651" class="cls-15" d="M0,0A12.333,12.333,0,0,0,12.5-12.161,12.333,12.333,0,0,0,0-24.321a12.333,12.333,0,0,0-12.5,12.16A12.333,12.333,0,0,0,0,0"/>
  </g>
  <g id="그룹_5333" data-name="그룹 5333" transform="translate(535.451 541.874)">
    <path id="패스_5652" data-name="패스 5652" class="cls-22" d="M0,0A12.333,12.333,0,0,0,12.5-12.161,12.333,12.333,0,0,0,0-24.321a12.333,12.333,0,0,0-12.5,12.16A12.333,12.333,0,0,0,0,0Z"/>
  </g>
  <g id="그룹_5334" data-name="그룹 5334" transform="translate(539.753 527.901)">
    <path id="패스_5653" data-name="패스 5653" class="cls-21" d="M0,0-2.464-4.093a2.222,2.222,0,0,0-3.765,0L-7.718-1.621M-3.93,7.361h4.6A2.086,2.086,0,0,0,2.55,4.234L1.243,2.064M-8.794.166l-2.449,4.068A2.086,2.086,0,0,0-9.361,7.361h2.8"/>
  </g>
  <g id="그룹_5336" data-name="그룹 5336" transform="translate(533.903 525.58)">
    <path id="패스_5655" data-name="패스 5655" class="cls-22" d="M0,0-1.935.36l-.708-1.72"/>
  </g>
  <g id="그룹_5337" data-name="그룹 5337" transform="translate(531.994 534.039)">
    <path id="패스_5656" data-name="패스 5656" class="cls-22" d="M0,0,1.211,1.366-.056,2.79"/>
  </g>
  <g id="그룹_5338" data-name="그룹 5338" transform="translate(540.428 531.571)">
    <path id="패스_5657" data-name="패스 5657" class="cls-22" d="M0,0,.648-1.653l2.028.347"/>
  </g>
  <path id="패스_8866" data-name="패스 8866" class="cls-11" d="M2.39-6.23h.96c.95,0,1.47.27,1.47,1.07S4.3-3.97,3.35-3.97H2.39ZM6.59,0,4.86-3.03A2.118,2.118,0,0,0,6.27-5.16c0-1.7-1.23-2.24-2.78-2.24H.91V0H2.39V-2.8H3.42L4.94,0Zm3.96.14A3,3,0,0,0,12.91-.95l-.78-.92a2.058,2.058,0,0,1-1.53.73c-1.17,0-1.93-.97-1.93-2.58,0-1.59.84-2.55,1.96-2.55a1.908,1.908,0,0,1,1.36.62l.78-.94a3.019,3.019,0,0,0-2.17-.95c-1.87,0-3.44,1.43-3.44,3.87C7.16-1.2,8.68.14,10.55.14Z" transform="translate(498.613 527.954)"/>
  <g id="그룹_5339" data-name="그룹 5339" transform="translate(515.862 559.192)">
    <path id="패스_5658" data-name="패스 5658" class="cls-11" d="M0,0-.986,27.584H6.246L5.26,0Z"/>
  </g>
  <g id="그룹_5340" data-name="그룹 5340" transform="translate(505.738 559.192)">
    <path id="패스_5659" data-name="패스 5659" class="cls-11" d="M0,0-.986,27.584H6.246L5.26,0Z"/>
  </g>
  <g id="그룹_5341" data-name="그룹 5341" transform="translate(536.524 604.048)">
    <path id="패스_5660" data-name="패스 5660" class="cls-11" d="M0,0V-30.031H-.1l-9.771,9.545v-9.545h-.1l-9.771,9.545v-9.545h-.1l-9.5,9.277v-9.277h-.1l-9.771,9.545V0H0Z"/>
  </g>
  <path id="패스_5661" data-name="패스 5661" class="cls-11" d="M525.61-47.121h6.205v-6.211H525.61Z" transform="translate(-9.283 642)"/>
  <path id="패스_5662" data-name="패스 5662" class="cls-11" d="M535.15-47.121h6.2v-6.211h-6.2Z" transform="translate(-9.283 642)"/>
  <g id="그룹_5342" data-name="그룹 5342" transform="translate(513.519 556.817)">
    <path id="패스_5663" data-name="패스 5663" class="cls-15" d="M0,0-.986,27.584H6.246L5.26,0Z"/>
  </g>
  <g id="그룹_5343" data-name="그룹 5343" transform="translate(513.519 556.817)">
    <path id="패스_5664" data-name="패스 5664" class="cls-22" d="M0,0-.986,27.584H6.246L5.26,0Z"/>
  </g>
  <g id="그룹_5344" data-name="그룹 5344" transform="translate(503.395 556.817)">
    <path id="패스_5665" data-name="패스 5665" class="cls-15" d="M0,0-.986,27.584H6.246L5.26,0Z"/>
  </g>
  <g id="그룹_5345" data-name="그룹 5345" transform="translate(503.395 556.817)">
    <path id="패스_5666" data-name="패스 5666" class="cls-22" d="M0,0-.986,27.584H6.246L5.26,0Z"/>
  </g>
  <g id="그룹_5346" data-name="그룹 5346" transform="translate(534.181 601.673)">
    <path id="패스_5667" data-name="패스 5667" class="cls-15" d="M0,0V-30.031H-.1l-9.771,9.545v-9.545h-.1l-9.771,9.545v-9.545h-.1l-9.5,9.277v-9.277h-.1l-9.771,9.545V0H0Z"/>
  </g>
  <g id="그룹_5347" data-name="그룹 5347" transform="translate(534.181 601.673)">
    <path id="패스_5668" data-name="패스 5668" class="cls-22" d="M0,0V-30.031H-.1l-9.771,9.545v-9.545h-.1l-9.771,9.545v-9.545h-.1l-9.5,9.277v-9.277h-.1l-9.771,9.545V0H0Z"/>
  </g>
  <g id="그룹_5348" data-name="그룹 5348" transform="translate(535.451 610.033)">
    <path id="패스_5669" data-name="패스 5669" class="cls-15" d="M0,0A12.333,12.333,0,0,0,12.5-12.161,12.333,12.333,0,0,0,0-24.321a12.333,12.333,0,0,0-12.5,12.16A12.333,12.333,0,0,0,0,0"/>
  </g>
  <g id="그룹_5349" data-name="그룹 5349" transform="translate(535.451 610.033)">
    <path id="패스_5670" data-name="패스 5670" class="cls-22" d="M0,0A12.333,12.333,0,0,0,12.5-12.161,12.333,12.333,0,0,0,0-24.321a12.333,12.333,0,0,0-12.5,12.16A12.333,12.333,0,0,0,0,0Z"/>
  </g>
  <g id="그룹_5350" data-name="그룹 5350" transform="translate(539.753 596.06)">
    <path id="패스_5671" data-name="패스 5671" class="cls-21" d="M0,0-2.464-4.093a2.222,2.222,0,0,0-3.765,0L-7.718-1.621M-3.93,7.361h4.6A2.086,2.086,0,0,0,2.55,4.234L1.243,2.064M-8.794.166l-2.449,4.068A2.086,2.086,0,0,0-9.361,7.361h2.8"/>
  </g>
  <g id="그룹_5352" data-name="그룹 5352" transform="translate(533.903 593.739)">
    <path id="패스_5673" data-name="패스 5673" class="cls-22" d="M0,0-1.935.36l-.708-1.72"/>
  </g>
  <g id="그룹_5353" data-name="그룹 5353" transform="translate(531.994 602.197)">
    <path id="패스_5674" data-name="패스 5674" class="cls-22" d="M0,0,1.211,1.366-.056,2.79"/>
  </g>
  <g id="그룹_5354" data-name="그룹 5354" transform="translate(540.428 599.73)">
    <path id="패스_5675" data-name="패스 5675" class="cls-22" d="M0,0,.648-1.653l2.028.347"/>
  </g>
  <path id="패스_8867" data-name="패스 8867" class="cls-11" d="M2.39-6.23h.96c.95,0,1.47.27,1.47,1.07S4.3-3.97,3.35-3.97H2.39ZM6.59,0,4.86-3.03A2.118,2.118,0,0,0,6.27-5.16c0-1.7-1.23-2.24-2.78-2.24H.91V0H2.39V-2.8H3.42L4.94,0Zm3.96.14A3,3,0,0,0,12.91-.95l-.78-.92a2.058,2.058,0,0,1-1.53.73c-1.17,0-1.93-.97-1.93-2.58,0-1.59.84-2.55,1.96-2.55a1.908,1.908,0,0,1,1.36.62l.78-.94a3.019,3.019,0,0,0-2.17-.95c-1.87,0-3.44,1.43-3.44,3.87C7.16-1.2,8.68.14,10.55.14Z" transform="translate(498.613 596.113)"/>
</svg>
