<svg id="구성_요소_78_1" data-name="구성 요소 78 – 1" xmlns="http://www.w3.org/2000/svg" xmlns:xlink="http://www.w3.org/1999/xlink" width="879.236" height="266.84" viewBox="0 0 879.236 266.84">
  <defs>
    <style>
      .cls-1, .cls-11, .cls-12, .cls-13, .cls-16, .cls-18, .cls-21, .cls-22, .cls-4, .cls-5 {
        fill: none;
      }

      .cls-2, .cls-7 {
        fill: #92bb48;
      }

      .cls-10, .cls-2, .cls-3 {
        font-size: 14px;
        font-family: NotoSansKR-Light, Noto Sans KR;
        font-weight: 300;
      }

      .cls-2, .cls-3 {
        letter-spacing: -0.015em;
      }

      .cls-10, .cls-15, .cls-19, .cls-3, .cls-8 {
        fill: #1e2323;
      }

      .cls-11, .cls-12, .cls-13, .cls-16, .cls-4, .cls-5 {
        stroke: #42454a;
      }

      .cls-11, .cls-12, .cls-13, .cls-4, .cls-5 {
        stroke-linecap: round;
        stroke-linejoin: round;
      }

      .cls-4 {
        stroke-dasharray: 0 2.003;
      }

      .cls-6 {
        clip-path: url(#clip-path);
      }

      .cls-15, .cls-8 {
        font-size: 15px;
        letter-spacing: -0.02em;
      }

      .cls-8 {
        font-family: NotoSansKR-Medium, Noto Sans KR;
        font-weight: 500;
      }

      .cls-9 {
        fill: #c6da97;
      }

      .cls-11, .cls-12, .cls-13 {
        stroke-width: 0.95px;
      }

      .cls-11 {
        stroke-dasharray: 0 2.817;
      }

      .cls-13 {
        stroke-dasharray: 0 2.856;
      }

      .cls-14 {
        fill: #f4f7f7;
      }

      .cls-15 {
        font-family: NotoSansKR-Regular, Noto Sans KR;
      }

      .cls-16 {
        stroke-width: 0.99px;
      }

      .cls-17, .cls-20 {
        fill: #fff;
      }

      .cls-18 {
        stroke: #92bb48;
      }

      .cls-20, .cls-21, .cls-22 {
        stroke: #1e2323;
      }

      .cls-22 {
        stroke-miterlimit: 10;
      }
    </style>
    <clipPath id="clip-path">
      <path id="패스_8019" data-name="패스 8019" class="cls-1" d="M0,0H879.236V-266.84H0Z"/>
    </clipPath>
  </defs>
  <g id="그룹" transform="translate(0 266.84)">
    <text id="_" data-name="• " class="cls-2" transform="translate(14.93 -80)"><tspan x="0" y="0">• </tspan></text>
    <text id="_2" data-name="" class="cls-3" transform="translate(22.868 -80)"><tspan x="0" y="0"></tspan></text>
    <text id="서비스_인력_C" data-name="서비스 인력 C" class="cls-3" transform="translate(22.868 -80)"><tspan x="0" y="0">서비스 인력 </tspan><tspan y="0">C</tspan></text>
    <text id="S_dr." data-name="S dr." class="cls-3" transform="translate(101.87 -80)"><tspan x="0" y="0">S dr.</tspan></text>
    <text id="_3" data-name="• " class="cls-2" transform="translate(14.93 -56.998)"><tspan x="0" y="0">• </tspan></text>
    <text id="_4" data-name="" class="cls-3" transform="translate(22.868 -56.998)"><tspan x="0" y="0"></tspan></text>
    <text id="대상모델_사전_공지" data-name="대상모델 사전 공지" class="cls-3" transform="translate(22.868 -56.998)"><tspan x="0" y="0">대상모델 사전 공지</tspan></text>
    <text id="_5" data-name="• " class="cls-2" transform="translate(720.306 -80)"><tspan x="0" y="0">• </tspan></text>
    <text id="_6" data-name="" class="cls-3" transform="translate(728.244 -80)"><tspan x="0" y="0"></tspan></text>
    <text id="서비스_인력_C-2" data-name="서비스 인력 C" class="cls-3" transform="translate(728.244 -80)"><tspan x="0" y="0">서비스 인력 </tspan><tspan y="0">C</tspan></text>
    <text id="S_dr.-2" data-name="S dr." class="cls-3" transform="translate(807.246 -80)"><tspan x="0" y="0">S dr.</tspan></text>
    <text id="_7" data-name="• " class="cls-2" transform="translate(720.306 -56.998)"><tspan x="0" y="0">• </tspan></text>
    <text id="_8" data-name="" class="cls-3" transform="translate(728.244 -56.998)"><tspan x="0" y="0"></tspan></text>
    <text id="대상모델_사전_공지-2" data-name="대상모델 사전 공지" class="cls-3" transform="translate(728.244 -56.998)"><tspan x="0" y="0">대상모델 사전 공지</tspan></text>
  </g>
  <g id="그룹_7663" data-name="그룹 7663" transform="translate(158.88 88.58)">
    <path id="패스_8015" data-name="패스 8015" class="cls-4" d="M0,0H537.868"/>
  </g>
  <g id="그룹_7664" data-name="그룹 7664" transform="translate(156.876 88.58)">
    <path id="패스_8016" data-name="패스 8016" class="cls-5" d="M0,0H0M540.873,0h0"/>
  </g>
  <g id="그룹_7667" data-name="그룹 7667" class="cls-6" transform="translate(0 266.84)">
    <g id="그룹_7665" data-name="그룹 7665" transform="translate(76.43 -106.952)">
      <path id="패스_8017" data-name="패스 8017" class="cls-7" d="M0,0A64.594,64.594,0,0,0,64.6-64.6,64.593,64.593,0,0,0,0-129.191,64.594,64.594,0,0,0-64.6-64.6,64.6,64.6,0,0,0,0,0"/>
    </g>
    <g id="그룹_7666" data-name="그룹 7666" transform="translate(781.803 -106.952)">
      <path id="패스_8018" data-name="패스 8018" class="cls-7" d="M0,0A64.594,64.594,0,0,0,64.6-64.6,64.593,64.593,0,0,0,0-129.191,64.594,64.594,0,0,0-64.6-64.6,64.6,64.6,0,0,0,0,0"/>
    </g>
  </g>
  <g id="그룹-2" data-name="그룹" transform="translate(0 266.84)">
    <text id="회수" class="cls-8" transform="translate(59.685 -153.855)"><tspan x="0" y="0">회수</tspan></text>
    <text id="_대상제품_" data-name="(대상제품)" class="cls-8" transform="translate(41.145 -128.85)"><tspan x="0" y="0">(대상제품)</tspan></text>
    <text id="입고" class="cls-8" transform="translate(768.15 -153.855)"><tspan x="0" y="0">입고</tspan></text>
    <text id="_물류센터_" data-name="(물류센터)" class="cls-8" transform="translate(749.61 -128.85)"><tspan x="0" y="0">(물류센터)</tspan></text>
  </g>
  <g id="그룹_7669" data-name="그룹 7669" class="cls-6" transform="translate(0 266.84)">
    <g id="그룹_7668" data-name="그룹 7668" transform="translate(261.576 -131.867)">
      <path id="패스_8020" data-name="패스 8020" class="cls-9" d="M0,0A47.624,47.624,0,0,0,47.625-47.625,47.624,47.624,0,0,0,0-95.251,47.624,47.624,0,0,0-47.625-47.625,47.624,47.624,0,0,0,0,0"/>
    </g>
  </g>
  <g id="그룹-3" data-name="그룹" transform="translate(0 266.84)">
    <text id="입고-2" data-name="입고" class="cls-3" transform="translate(248.801 -184.599)"><tspan x="0" y="0">입고</tspan></text>
    <text id="_완전분해_" data-name="(완전분해)" class="cls-3" transform="translate(231.945 -160.603)"><tspan x="0" y="0">(완전분해)</tspan></text>
    <text id="_9" data-name="• " class="cls-2" transform="translate(294.427 -66.999)"><tspan x="0" y="0">• </tspan></text>
    <text id="정수기_청정기_필터" data-name="정수기, 청정기 필터" class="cls-3" transform="translate(302.365 -66.999)"><tspan x="0" y="0">정수기, 청정기 필터</tspan></text>
    <text id="_10" data-name="• " class="cls-2" transform="translate(294.427 -43.997)"><tspan x="0" y="0">• </tspan></text>
    <text id="비데_-_필터_" data-name="비데 - 필터," class="cls-3" transform="translate(302.365 -43.997)"><tspan x="0" y="0">비데 - 필터,</tspan></text>
    <text id="_11" data-name=" " class="cls-3" transform="translate(368.445 -43.997)"><tspan x="0" y="0"> </tspan></text>
    <text id="_12" data-name="" class="cls-10" transform="translate(371.945 -43.997)"><tspan x="0" y="0"></tspan></text>
    <text id="노즐_팁_덕트" data-name="노즐, (팁)/덕트" class="cls-3" transform="translate(302.365 -22.003)"><tspan x="0" y="0">노즐, (팁)/덕트</tspan></text>
  </g>
  <g id="그룹_7671" data-name="그룹 7671" class="cls-6" transform="translate(0 266.84)">
    <g id="그룹_7670" data-name="그룹 7670" transform="translate(373.267 -131.867)">
      <path id="패스_8022" data-name="패스 8022" class="cls-9" d="M0,0A47.624,47.624,0,0,0,47.625-47.625,47.624,47.624,0,0,0,0-95.251,47.624,47.624,0,0,0-47.625-47.625,47.624,47.624,0,0,0,0,0"/>
    </g>
  </g>
  <g id="그룹-4" data-name="그룹" transform="translate(0 266.84)">
    <text id="부품_교체_" data-name="부품 교체," class="cls-3" transform="translate(344.315 -183.599)"><tspan x="0" y="0">부품 교체,</tspan></text>
    <text id="_13" data-name=" " class="cls-3" transform="translate(402.219 -183.599)"><tspan x="0" y="0"> </tspan></text>
    <text id="_14" data-name="" class="cls-10" transform="translate(405.719 -183.599)"><tspan x="0" y="0"></tspan></text>
    <text id="세척_필터_" data-name="세척(필터)" class="cls-3" transform="translate(343.643 -161.605)"><tspan x="0" y="0">세척(필터)</tspan></text>
    <text id="_15" data-name="• " class="cls-2" transform="translate(436.561 -67.007)"><tspan x="0" y="0">• </tspan></text>
    <text id="물마크_CA인증" data-name="물마크, CA인증" class="cls-3" transform="translate(444.499 -67.007)"><tspan x="0" y="0">물마크, </tspan><tspan y="0">CA</tspan><tspan y="0">인증</tspan></text>
    <text id="_16" data-name="• " class="cls-2" transform="translate(436.561 -44.005)"><tspan x="0" y="0">• </tspan></text>
    <text id="살균_향균_인증_" data-name="살균/향균 인증," class="cls-3" transform="translate(444.499 -44.005)"><tspan x="0" y="0">살균/향균 인증,</tspan></text>
    <text id="_17" data-name=" " class="cls-3" transform="translate(533.063 -44.005)"><tspan x="0" y="0"> </tspan></text>
    <text id="_18" data-name="" class="cls-10" transform="translate(536.563 -44.005)"><tspan x="0" y="0"></tspan></text>
    <text id="K" class="cls-3" transform="translate(436.561 -22.011)"><tspan x="0" y="0">K</tspan></text>
    <text id="C안전인증" class="cls-3" transform="translate(444.821 -22.011)"><tspan x="0" y="0">C</tspan><tspan y="0">안전인증</tspan></text>
  </g>
  <g id="그룹_7673" data-name="그룹 7673" class="cls-6" transform="translate(0 266.84)">
    <g id="그룹_7672" data-name="그룹 7672" transform="translate(484.958 -131.867)">
      <path id="패스_8024" data-name="패스 8024" class="cls-9" d="M0,0A47.624,47.624,0,0,0,47.625-47.625,47.624,47.624,0,0,0,0-95.251,47.624,47.624,0,0,0-47.625-47.625,47.624,47.624,0,0,0,0,0"/>
    </g>
  </g>
  <g id="그룹-5" data-name="그룹" transform="translate(0 266.84)">
    <text id="성능_T" data-name="성능 T" class="cls-3" transform="translate(457.896 -184.099)"><tspan x="0" y="0">성능 </tspan><tspan y="0">T</tspan></text>
    <text id="es" class="cls-3" transform="translate(493.96 -184.099)"><tspan x="0" y="0">es</tspan></text>
    <text id="t" class="cls-3" transform="translate(507.092 -184.099)"><tspan x="0" y="0">t</tspan></text>
    <text id="_T" data-name="(T" class="cls-3" transform="translate(467.948 -160.103)"><tspan x="0" y="0">(T</tspan></text>
    <text id="QA_" data-name="QA)" class="cls-3" transform="translate(479.764 -160.103)"><tspan x="0" y="0">QA)</tspan></text>
  </g>
  <g id="그룹_7675" data-name="그룹 7675" class="cls-6" transform="translate(0 266.84)">
    <g id="그룹_7674" data-name="그룹 7674" transform="translate(596.649 -131.867)">
      <path id="패스_8026" data-name="패스 8026" class="cls-9" d="M0,0A47.624,47.624,0,0,0,47.625-47.625,47.624,47.624,0,0,0,0-95.251,47.624,47.624,0,0,0-47.625-47.625,47.624,47.624,0,0,0,0,0"/>
    </g>
  </g>
  <g id="그룹-6" data-name="그룹" transform="translate(0 266.84)">
    <text id="최종_조립_" data-name="최종 조립 &amp;" class="cls-3" transform="translate(563.084 -183.099)"><tspan x="0" y="0">최종 조립 &amp;</tspan></text>
    <text id="포장" class="cls-3" transform="translate(583.874 -161.105)"><tspan x="0" y="0">포장</tspan></text>
  </g>
  <g id="그룹_7682" data-name="그룹 7682" class="cls-6" transform="translate(0 266.84)">
    <g id="그룹_7676" data-name="그룹 7676" transform="translate(611.962 -110.954)">
      <path id="패스_8028" data-name="패스 8028" class="cls-11" d="M0,0C34.521-1.483,62.152-30.122,62.868-65.5"/>
    </g>
    <g id="그룹_7677" data-name="그룹 7677" transform="translate(674.787 -180.681)">
      <path id="패스_8029" data-name="패스 8029" class="cls-11" d="M0,0C-1.428-35.206-29.52-63.4-64.233-64.141"/>
    </g>
    <g id="그룹_7678" data-name="그룹 7678" transform="translate(609.146 -110.894)">
      <path id="패스_8030" data-name="패스 8030" class="cls-12" d="M0,0H0M65.7-66.972h0M0-133.942H0"/>
    </g>
    <g id="그룹_7679" data-name="그룹 7679" transform="translate(246.258 -110.954)">
      <path id="패스_8031" data-name="패스 8031" class="cls-11" d="M0,0C-34.521-1.483-62.152-30.122-62.868-65.5"/>
    </g>
    <g id="그룹_7680" data-name="그룹 7680" transform="translate(183.432 -180.681)">
      <path id="패스_8032" data-name="패스 8032" class="cls-11" d="M0,0C1.428-35.206,29.52-63.4,64.233-64.141"/>
    </g>
    <g id="그룹_7681" data-name="그룹 7681" transform="translate(249.074 -110.894)">
      <path id="패스_8033" data-name="패스 8033" class="cls-12" d="M0,0H0M-65.7-66.972h0M0-133.942H0"/>
    </g>
  </g>
  <g id="그룹_7683" data-name="그룹 7683" transform="translate(603.34 21.994)">
    <path id="패스_8035" data-name="패스 8035" class="cls-13" d="M0,0H-349.888"/>
  </g>
  <g id="그룹_7684" data-name="그룹 7684" transform="translate(606.196 21.994)">
    <path id="패스_8036" data-name="패스 8036" class="cls-12" d="M0,0H0M-354.173,0h0"/>
  </g>
  <path id="패스_8037" data-name="패스 8037" class="cls-14" d="M386.036-238.72h72.795v-13.2H386.036Z" transform="translate(0 266.84)"/>
  <text id="RC통합물류" class="cls-15" transform="translate(386.036 28.12)"><tspan x="0" y="0">RC</tspan><tspan y="0">통합물류</tspan></text>
  <g id="그룹_7685" data-name="그룹 7685" transform="translate(167.166 83.682)">
    <path id="패스_8038" data-name="패스 8038" class="cls-16" d="M0,0,4.308,4.4,0,8.8"/>
  </g>
  <g id="그룹_7686" data-name="그룹 7686" transform="translate(247.186 152.022)">
    <path id="패스_8039" data-name="패스 8039" class="cls-16" d="M0,0,4.308,4.4,0,8.8"/>
  </g>
  <g id="그룹_7687" data-name="그룹 7687" transform="translate(315.431 83.682)">
    <path id="패스_8040" data-name="패스 8040" class="cls-16" d="M0,0,4.308,4.4,0,8.8"/>
  </g>
  <g id="그룹_7688" data-name="그룹 7688" transform="translate(426.789 83.682)">
    <path id="패스_8041" data-name="패스 8041" class="cls-16" d="M0,0,4.308,4.4,0,8.8"/>
  </g>
  <g id="그룹_7689" data-name="그룹 7689" transform="translate(538.146 83.682)">
    <path id="패스_8042" data-name="패스 8042" class="cls-16" d="M0,0,4.308,4.4,0,8.8"/>
  </g>
  <g id="그룹_7690" data-name="그룹 7690" transform="translate(693.784 84.182)">
    <path id="패스_8043" data-name="패스 8043" class="cls-16" d="M0,0,4.308,4.4,0,8.8"/>
  </g>
  <path id="패스_8044" data-name="패스 8044" class="cls-17" d="M144.687-130.855h64.389v-36.2H144.687Z" transform="translate(0 266.84)"/>
  <g id="그룹-7" data-name="그룹" transform="translate(0 266.84)">
    <text id="에어캡" class="cls-3" transform="translate(157.771 -154.735)"><tspan x="0" y="0">에어캡</tspan></text>
    <text id="_19" data-name=" " class="cls-3" transform="translate(195.991 -154.735)"><tspan x="0" y="0"> </tspan></text>
    <text id="_20" data-name="" class="cls-10" transform="translate(199.491 -154.735)"><tspan x="0" y="0"></tspan></text>
    <text id="포장-2" data-name="포장" class="cls-3" transform="translate(164.113 -132.741)"><tspan x="0" y="0">포장</tspan></text>
  </g>
  <path id="패스_8045" data-name="패스 8045" class="cls-17" d="M643.765-138.615h64.389v-28.44H643.765Z" transform="translate(0 266.84)"/>
  <text id="출하" class="cls-3" transform="translate(663.185 112.105)"><tspan x="0" y="0">출하</tspan></text>
  <g id="그룹_7691" data-name="그룹 7691" transform="translate(373.017 144.985)">
    <path id="패스_8046" data-name="패스 8046" class="cls-18" d="M0,0V37.429"/>
  </g>
  <g id="그룹_7692" data-name="그룹 7692" transform="translate(486.245 144.985)">
    <path id="패스_8047" data-name="패스 8047" class="cls-18" d="M0,0V37.429"/>
  </g>
  <g id="그룹_7693" data-name="그룹 7693" transform="translate(294.43 182.18)">
    <path id="패스_8048" data-name="패스 8048" class="cls-18" d="M0,0H124"/>
  </g>
  <g id="그룹_7694" data-name="그룹 7694" transform="translate(436.554 182.18)">
    <path id="패스_8049" data-name="패스 8049" class="cls-18" d="M0,0H106.593"/>
  </g>
  <g id="그룹_7697" data-name="그룹 7697" class="cls-6" transform="translate(0 266.84)">
    <g id="그룹_7695" data-name="그룹 7695" transform="translate(89.678 -172.347)">
      <path id="패스_8050" data-name="패스 8050" class="cls-19" d="M0,0A13.445,13.445,0,0,0,13.445-13.445,13.444,13.444,0,0,0,0-26.89,13.445,13.445,0,0,0-13.445-13.445,13.446,13.446,0,0,0,0,0"/>
    </g>
    <g id="그룹_7696" data-name="그룹 7696" transform="translate(93.912 -187.708)">
      <path id="패스_8051" data-name="패스 8051" class="cls-19" d="M0,0-2.446-4.344a2.13,2.13,0,0,0-3.736,0L-7.66-1.72M-3.9,7.813H.662A2.214,2.214,0,0,0,2.531,4.494l-1.3-2.3M-8.728.176l-2.431,4.318A2.214,2.214,0,0,0-9.29,7.813h2.777"/>
    </g>
  </g>
  <g id="그룹_7698" data-name="그룹 7698" transform="translate(88.057 76.973)">
    <path id="패스_8053" data-name="패스 8053" class="cls-19" d="M0,0-1.929.394l-.713-1.92"/>
  </g>
  <g id="그룹_7699" data-name="그룹 7699" transform="translate(86.208 85.532)">
    <path id="패스_8054" data-name="패스 8054" class="cls-19" d="M0,0,1.284,1.486-.06,3.036"/>
  </g>
  <g id="그룹_7700" data-name="그룹 7700" transform="translate(94.51 83.036)">
    <path id="패스_8055" data-name="패스 8055" class="cls-19" d="M0,0,.653-1.85l2.021.381"/>
  </g>
  <path id="패스_8056" data-name="패스 8056" class="cls-19" d="M62.864-179.873h25.4v-35.872h-25.4Z" transform="translate(0 266.84)"/>
  <g id="그룹_7701" data-name="그룹 7701" transform="translate(84.236 74.465)">
    <path id="패스_8057" data-name="패스 8057" class="cls-19" d="M0,0V-13.907H-17.348V0"/>
  </g>
  <path id="패스_8058" data-name="패스 8058" class="cls-19" d="M52.363-179.873H68.69v-22.745H52.363Z" transform="translate(0 266.84)"/>
  <g id="그룹_7702" data-name="그룹 7702" transform="translate(52.303 66.942)">
    <path id="패스_8059" data-name="패스 8059" class="cls-19" d="M0,0,1.885,1.974V16.448L0,18.421"/>
  </g>
  <g id="그룹_7703" data-name="그룹 7703" transform="translate(68.75 85.364)">
    <path id="패스_8060" data-name="패스 8060" class="cls-19" d="M0,0-1.885-1.974V-16.448L0-18.421"/>
  </g>
  <g id="그룹_7705" data-name="그룹 7705" class="cls-6" transform="translate(0 266.84)">
    <g id="그룹_7704" data-name="그룹 7704" transform="translate(60.527 -196.631)">
      <path id="패스_8061" data-name="패스 8061" class="cls-19" d="M0,0A1.5,1.5,0,0,0,1.522-1.473,1.5,1.5,0,0,0,0-2.947,1.5,1.5,0,0,0-1.522-1.473,1.5,1.5,0,0,0,0,0"/>
    </g>
  </g>
  <path id="패스_8063" data-name="패스 8063" class="cls-20" d="M60.738-182h25.4v-35.872h-25.4Z" transform="translate(0 266.84)"/>
  <g id="그룹_7706" data-name="그룹 7706" transform="translate(82.11 72.339)">
    <path id="패스_8064" data-name="패스 8064" class="cls-20" d="M0,0V-13.907H-17.348V0"/>
  </g>
  <g id="그룹_7707" data-name="그룹 7707" transform="translate(60.826 72.359)">
    <path id="패스_8065" data-name="패스 8065" class="cls-21" d="M0,0H25.222"/>
  </g>
  <g id="그룹_7708" data-name="그룹 7708" transform="translate(69.654 58.577)">
    <path id="패스_8066" data-name="패스 8066" class="cls-21" d="M0,0V5.73"/>
  </g>
  <g id="그룹_7709" data-name="그룹 7709" transform="translate(77.219 58.577)">
    <path id="패스_8067" data-name="패스 8067" class="cls-21" d="M0,0V5.73"/>
  </g>
  <path id="패스_8068" data-name="패스 8068" class="cls-20" d="M50.237-182H66.564v-22.745H50.237Z" transform="translate(0 266.84)"/>
  <g id="그룹_7710" data-name="그룹 7710" transform="translate(50.177 64.816)">
    <path id="패스_8069" data-name="패스 8069" class="cls-21" d="M0,0,1.885,1.974V16.448L0,18.421"/>
  </g>
  <g id="그룹_7711" data-name="그룹 7711" transform="translate(66.624 83.238)">
    <path id="패스_8070" data-name="패스 8070" class="cls-21" d="M0,0-1.885-1.974V-16.448L0-18.421"/>
  </g>
  <g id="그룹_7714" data-name="그룹 7714" class="cls-6" transform="translate(0 266.84)">
    <g id="그룹_7712" data-name="그룹 7712" transform="translate(58.401 -198.757)">
      <path id="패스_8071" data-name="패스 8071" class="cls-17" d="M0,0A1.5,1.5,0,0,0,1.522-1.473,1.5,1.5,0,0,0,0-2.947,1.5,1.5,0,0,0-1.522-1.473,1.5,1.5,0,0,0,0,0"/>
    </g>
    <g id="그룹_7713" data-name="그룹 7713" transform="translate(58.401 -198.757)">
      <path id="패스_8072" data-name="패스 8072" class="cls-21" d="M0,0A1.5,1.5,0,0,0,1.522-1.473,1.5,1.5,0,0,0,0-2.947,1.5,1.5,0,0,0-1.522-1.473,1.5,1.5,0,0,0,0,0Z"/>
    </g>
  </g>
  <g id="그룹_7715" data-name="그룹 7715" transform="translate(55.571 70.847)">
    <path id="패스_8074" data-name="패스 8074" class="cls-21" d="M0,0V2.518"/>
  </g>
  <g id="그룹_7716" data-name="그룹 7716" transform="translate(58.4 70.847)">
    <path id="패스_8075" data-name="패스 8075" class="cls-21" d="M0,0V2.518"/>
  </g>
  <g id="그룹_7717" data-name="그룹 7717" transform="translate(61.23 70.847)">
    <path id="패스_8076" data-name="패스 8076" class="cls-21" d="M0,0V2.518"/>
  </g>
  <g id="그룹_7718" data-name="그룹 7718" transform="translate(55.571 75.149)">
    <path id="패스_8077" data-name="패스 8077" class="cls-21" d="M0,0V2.518"/>
  </g>
  <g id="그룹_7719" data-name="그룹 7719" transform="translate(58.4 75.149)">
    <path id="패스_8078" data-name="패스 8078" class="cls-21" d="M0,0V2.518"/>
  </g>
  <g id="그룹_7720" data-name="그룹 7720" transform="translate(61.23 75.149)">
    <path id="패스_8079" data-name="패스 8079" class="cls-21" d="M0,0V2.518"/>
  </g>
  <g id="그룹_7721" data-name="그룹 7721" transform="translate(55.571 79.452)">
    <path id="패스_8080" data-name="패스 8080" class="cls-21" d="M0,0V2.518"/>
  </g>
  <g id="그룹_7722" data-name="그룹 7722" transform="translate(58.4 79.452)">
    <path id="패스_8081" data-name="패스 8081" class="cls-21" d="M0,0V2.518"/>
  </g>
  <g id="그룹_7723" data-name="그룹 7723" transform="translate(61.23 79.452)">
    <path id="패스_8082" data-name="패스 8082" class="cls-21" d="M0,0V2.518"/>
  </g>
  <g id="그룹_7727" data-name="그룹 7727" class="cls-6" transform="translate(0 266.84)">
    <g id="그룹_7724" data-name="그룹 7724" transform="translate(88.26 -173.815)">
      <path id="패스_8083" data-name="패스 8083" class="cls-17" d="M0,0A13.4,13.4,0,0,0,13.4-13.4,13.4,13.4,0,0,0,0-26.79,13.4,13.4,0,0,0-13.4-13.4,13.4,13.4,0,0,0,0,0"/>
    </g>
    <g id="그룹_7725" data-name="그룹 7725" transform="translate(88.26 -173.815)">
      <path id="패스_8084" data-name="패스 8084" class="cls-21" d="M0,0A13.4,13.4,0,0,0,13.4-13.4,13.4,13.4,0,0,0,0-26.79,13.4,13.4,0,0,0-13.4-13.4,13.4,13.4,0,0,0,0,0Z"/>
    </g>
    <g id="그룹_7726" data-name="그룹 7726" transform="translate(92.465 -189.117)">
      <path id="패스_8085" data-name="패스 8085" class="cls-20" d="M0,0-2.429-4.311a2.116,2.116,0,0,0-3.71,0l-1.467,2.6m3.733,9.461H.658A2.2,2.2,0,0,0,2.513,4.46L1.225,2.174m-9.891-2L-11.081,4.46A2.2,2.2,0,0,0-9.225,7.754h2.758"/>
    </g>
  </g>
  <g id="그룹_7728" data-name="그룹 7728" transform="translate(86.6 75.584)">
    <path id="패스_8087" data-name="패스 8087" class="cls-21" d="M0,0-1.866.323-2.607-1.5"/>
  </g>
  <g id="그룹_7729" data-name="그룹 7729" transform="translate(84.834 84.136)">
    <path id="패스_8088" data-name="패스 8088" class="cls-21" d="M0,0,1.191,1.466-.055,2.994"/>
  </g>
  <g id="그룹_7730" data-name="그룹 7730" transform="translate(93.09 81.57)">
    <path id="패스_8089" data-name="패스 8089" class="cls-21" d="M0,0,.681-1.759l1.954.307"/>
  </g>
  <path id="패스_8090" data-name="패스 8090" class="cls-19" d="M785.982-187.03h19.564v-27.707H785.982Z" transform="translate(0 266.84)"/>
  <g id="그룹_7731" data-name="그룹 7731" transform="translate(802.411 70.187)">
    <path id="패스_8091" data-name="패스 8091" class="cls-19" d="M0,0V-10.717H-13.294V0"/>
  </g>
  <path id="패스_8092" data-name="패스 8092" class="cls-19" d="M777.8-187.03h12.5v-17.487H777.8Z" transform="translate(0 266.84)"/>
  <g id="그룹_7733" data-name="그룹 7733" class="cls-6" transform="translate(0 266.84)">
    <g id="그룹_7732" data-name="그룹 7732" transform="translate(784.05 -200.077)">
      <path id="패스_8093" data-name="패스 8093" class="cls-19" d="M0,0A1.056,1.056,0,0,0,1.075-1.036,1.056,1.056,0,0,0,0-2.073,1.057,1.057,0,0,0-1.076-1.036,1.057,1.057,0,0,0,0,0"/>
    </g>
  </g>
  <g id="그룹_7734" data-name="그룹 7734" transform="translate(809.003 89.652)">
    <path id="패스_8095" data-name="패스 8095" class="cls-19" d="M0,0-34.66.012V-10.469H-.018Z"/>
  </g>
  <g id="그룹_7736" data-name="그룹 7736" class="cls-6" transform="translate(0 266.84)">
    <g id="그룹_7735" data-name="그룹 7735" transform="translate(793.137 -172.148)">
      <path id="패스_8096" data-name="패스 8096" class="cls-19" d="M0,0A4.581,4.581,0,0,0,4.579-4.583,4.581,4.581,0,0,0,0-9.166,4.581,4.581,0,0,0-4.579-4.583,4.581,4.581,0,0,0,0,0"/>
    </g>
  </g>
  <g id="그룹_7737" data-name="그룹 7737" transform="translate(757.229 89.664)">
    <path id="패스_8098" data-name="패스 8098" class="cls-19" d="M0,0V-9.915l5.382-8.793h12V0Z"/>
  </g>
  <g id="그룹_7739" data-name="그룹 7739" class="cls-6" transform="translate(0 266.84)">
    <g id="그룹_7738" data-name="그룹 7738" transform="translate(765.874 -172.148)">
      <path id="패스_8099" data-name="패스 8099" class="cls-19" d="M0,0A4.581,4.581,0,0,0,4.579-4.583,4.581,4.581,0,0,0,0-9.166,4.581,4.581,0,0,0-4.579-4.583,4.581,4.581,0,0,0,0,0"/>
    </g>
  </g>
  <g id="그룹_7740" data-name="그룹 7740" transform="translate(764.865 73.482)">
    <path id="패스_8101" data-name="패스 8101" class="cls-19" d="M0,0-3.628,6.3H4.014V0Z"/>
  </g>
  <path id="패스_8102" data-name="패스 8102" class="cls-20" d="M783.856-189.156H803.42v-27.707H783.856Z" transform="translate(0 266.84)"/>
  <g id="그룹_7741" data-name="그룹 7741" transform="translate(800.285 68.061)">
    <path id="패스_8103" data-name="패스 8103" class="cls-20" d="M0,0V-10.717H-13.294V0"/>
  </g>
  <g id="그룹_7742" data-name="그룹 7742" transform="translate(783.814 68.043)">
    <path id="패스_8104" data-name="패스 8104" class="cls-21" d="M0,0H19.649"/>
  </g>
  <g id="그룹_7743" data-name="그룹 7743" transform="translate(790.802 57.346)">
    <path id="패스_8105" data-name="패스 8105" class="cls-21" d="M0,0V4.461"/>
  </g>
  <g id="그룹_7744" data-name="그룹 7744" transform="translate(796.474 57.346)">
    <path id="패스_8106" data-name="패스 8106" class="cls-21" d="M0,0V4.461"/>
  </g>
  <path id="패스_8107" data-name="패스 8107" class="cls-20" d="M775.675-189.156h12.5v-17.487h-12.5Z" transform="translate(0 266.84)"/>
  <g id="그룹_7747" data-name="그룹 7747" class="cls-6" transform="translate(0 266.84)">
    <g id="그룹_7745" data-name="그룹 7745" transform="translate(781.924 -202.203)">
      <path id="패스_8108" data-name="패스 8108" class="cls-17" d="M0,0A1.056,1.056,0,0,0,1.075-1.036,1.056,1.056,0,0,0,0-2.073,1.057,1.057,0,0,0-1.076-1.036,1.057,1.057,0,0,0,0,0"/>
    </g>
    <g id="그룹_7746" data-name="그룹 7746" transform="translate(781.924 -202.203)">
      <path id="패스_8109" data-name="패스 8109" class="cls-21" d="M0,0A1.056,1.056,0,0,0,1.075-1.036,1.056,1.056,0,0,0,0-2.073,1.057,1.057,0,0,0-1.076-1.036,1.057,1.057,0,0,0,0,0Z"/>
    </g>
  </g>
  <g id="그룹_7748" data-name="그룹 7748" transform="translate(806.877 87.526)">
    <path id="패스_8111" data-name="패스 8111" class="cls-17" d="M0,0-34.66.012V-10.469H-.018Z"/>
  </g>
  <g id="그룹_7749" data-name="그룹 7749" transform="translate(806.877 87.526)">
    <path id="패스_8112" data-name="패스 8112" class="cls-22" d="M0,0-34.66.012V-10.469H-.018Z"/>
  </g>
  <g id="그룹_7752" data-name="그룹 7752" class="cls-6" transform="translate(0 266.84)">
    <g id="그룹_7750" data-name="그룹 7750" transform="translate(791.011 -174.273)">
      <path id="패스_8113" data-name="패스 8113" class="cls-17" d="M0,0A4.581,4.581,0,0,0,4.579-4.583,4.581,4.581,0,0,0,0-9.166,4.581,4.581,0,0,0-4.579-4.583,4.581,4.581,0,0,0,0,0"/>
    </g>
    <g id="그룹_7751" data-name="그룹 7751" transform="translate(791.011 -174.273)">
      <path id="패스_8114" data-name="패스 8114" class="cls-22" d="M0,0A4.581,4.581,0,0,0,4.579-4.583,4.581,4.581,0,0,0,0-9.166,4.581,4.581,0,0,0-4.579-4.583,4.581,4.581,0,0,0,0,0Z"/>
    </g>
  </g>
  <g id="그룹_7753" data-name="그룹 7753" transform="translate(755.103 87.538)">
    <path id="패스_8116" data-name="패스 8116" class="cls-17" d="M0,0V-9.915l5.382-8.793h12V0Z"/>
  </g>
  <g id="그룹_7754" data-name="그룹 7754" transform="translate(755.103 87.538)">
    <path id="패스_8117" data-name="패스 8117" class="cls-22" d="M0,0V-9.915l5.382-8.793h12V0Z"/>
  </g>
  <g id="그룹_7757" data-name="그룹 7757" class="cls-6" transform="translate(0 266.84)">
    <g id="그룹_7755" data-name="그룹 7755" transform="translate(763.748 -174.273)">
      <path id="패스_8118" data-name="패스 8118" class="cls-17" d="M0,0A4.581,4.581,0,0,0,4.579-4.583,4.581,4.581,0,0,0,0-9.166,4.581,4.581,0,0,0-4.579-4.583,4.581,4.581,0,0,0,0,0"/>
    </g>
    <g id="그룹_7756" data-name="그룹 7756" transform="translate(763.748 -174.273)">
      <path id="패스_8119" data-name="패스 8119" class="cls-22" d="M0,0A4.581,4.581,0,0,0,4.579-4.583,4.581,4.581,0,0,0,0-9.166,4.581,4.581,0,0,0-4.579-4.583,4.581,4.581,0,0,0,0,0Z"/>
    </g>
  </g>
  <g id="그룹_7758" data-name="그룹 7758" transform="translate(762.739 71.356)">
    <path id="패스_8121" data-name="패스 8121" class="cls-17" d="M0,0-3.628,6.3H4.014V0Z"/>
  </g>
  <g id="그룹_7759" data-name="그룹 7759" transform="translate(762.739 71.356)">
    <path id="패스_8122" data-name="패스 8122" class="cls-22" d="M0,0-3.628,6.3H4.014V0Z"/>
  </g>
  <g id="그룹_7760" data-name="그룹 7760" transform="translate(775.175 71.066)">
    <path id="패스_8123" data-name="패스 8123" class="cls-21" d="M0,0H13.424"/>
  </g>
</svg>
