<svg id="구성_요소_78_1" data-name="구성 요소 78 – 1" xmlns="http://www.w3.org/2000/svg" xmlns:xlink="http://www.w3.org/1999/xlink" width="879.236" height="266.84" viewBox="0 0 879.236 266.84">
  <defs>
    <style>
      .cls-1, .cls-11, .cls-12, .cls-13, .cls-16, .cls-18, .cls-20, .cls-21, .cls-5, .cls-6 {
        fill: none;
      }

      .cls-2, .cls-8 {
        fill: #92bb48;
      }

      .cls-10, .cls-2, .cls-3 {
        font-size: 14px;
        font-family: NotoSansKR-Light, Noto Sans KR;
        font-weight: 300;
      }

      .cls-2, .cls-3 {
        letter-spacing: -0.015em;
      }

      .cls-10, .cls-15, .cls-3, .cls-4 {
        fill: #1e2323;
      }

      .cls-11, .cls-12, .cls-13, .cls-16, .cls-5, .cls-6 {
        stroke: #42454a;
      }

      .cls-11, .cls-12, .cls-13, .cls-5, .cls-6 {
        stroke-linecap: round;
        stroke-linejoin: round;
      }

      .cls-5 {
        stroke-dasharray: 0 2.003;
      }

      .cls-7 {
        clip-path: url(#clip-path);
      }

      .cls-9 {
        fill: #c6da97;
      }

      .cls-11, .cls-12, .cls-13 {
        stroke-width: 0.95px;
      }

      .cls-11 {
        stroke-dasharray: 0 2.817;
      }

      .cls-13 {
        stroke-dasharray: 0 2.856;
      }

      .cls-14 {
        fill: #f4f7f7;
      }

      .cls-15 {
        font-size: 15px;
        font-family: NotoSansKR-Regular, Noto Sans KR;
        letter-spacing: -0.02em;
      }

      .cls-16 {
        stroke-width: 0.99px;
      }

      .cls-17, .cls-19 {
        fill: #fff;
      }

      .cls-18 {
        stroke: #92bb48;
      }

      .cls-19, .cls-20, .cls-21 {
        stroke: #1e2323;
      }

      .cls-21 {
        stroke-miterlimit: 10;
      }
    </style>
    <clipPath id="clip-path">
      <path id="패스_8019" data-name="패스 8019" class="cls-1" d="M0,0H879.236V-266.84H0Z"/>
    </clipPath>
  </defs>
  <g id="그룹" transform="translate(0 266.84)">
    <text id="_" data-name="• " class="cls-2" transform="translate(14.93 -80)"><tspan x="0" y="0">• </tspan></text>
    <text id="_2" data-name="" class="cls-3" transform="translate(22.868 -80)"><tspan x="0" y="0"></tspan></text>
    <path id="패스_8876" data-name="패스 8876" class="cls-4" d="M4.942-10.3H4.2v2.478A6.922,6.922,0,0,1,.868-2.31l.476.588A7.536,7.536,0,0,0,4.578-6.174a7.264,7.264,0,0,0,3.29,4.228l.434-.6a6.551,6.551,0,0,1-3.36-5.278Zm5.236-1.148v4.424H6.972v.616h3.206V.994h.742V-11.452Zm12.628-.014V.994h.742v-12.46Zm-8.582,1.092v8.3h5.712v-8.3h-.742V-6.93H14.966v-3.444Zm.742,4.06h4.228V-2.7H14.966ZM36.736-5C34.972-5.348,32.1-7.224,32.1-9.52v-.994h-.77v.994c0,2.31-2.828,4.158-4.606,4.522l.35.63A7.191,7.191,0,0,0,31.724-8.12a7.205,7.205,0,0,0,4.662,3.752ZM26.124-1.428V-.8H37.408v-.63Zm25.69-10.01h-.742v9.17h.742ZM42.77-7.546a2.339,2.339,0,0,1,2.436-2.338,2.339,2.339,0,0,1,2.436,2.338A2.354,2.354,0,0,1,45.206-5.18,2.354,2.354,0,0,1,42.77-7.546Zm5.586,0a2.962,2.962,0,0,0-3.15-3,2.962,2.962,0,0,0-3.15,3,2.976,2.976,0,0,0,3.15,3.024A2.976,2.976,0,0,0,48.356-7.546ZM44.744.042V-3.234H44V.672h8.232V.042Zm16.31-5.5a28.064,28.064,0,0,1-5.264.308h-.14V-7.42h4.536V-10.7H54.88v.63h4.578v2.044H54.922v3.5h.868a29.326,29.326,0,0,0,5.348-.308Zm-4.76,3h7.462V1.008H64.5v-4.1h-8.2Zm7.462-8.988v1.918H61.068v.63h2.688v1.89H61.068v.63h2.688v2.562H64.5v-7.63ZM74.3.182A3.824,3.824,0,0,0,77.35-1.274l-.476-.532A3.264,3.264,0,0,1,74.34-.574c-2.142,0-3.472-1.778-3.472-4.564,0-2.758,1.358-4.494,3.514-4.494A2.869,2.869,0,0,1,76.594-8.61l.476-.546a3.53,3.53,0,0,0-2.688-1.232c-2.59,0-4.4,2.016-4.4,5.278S71.778.182,74.3.182Z" transform="translate(22.868 -80)"/>
    <path id="패스_8877" data-name="패스 8877" class="cls-4" d="M4.186.182c2,0,3.3-1.2,3.3-2.772s-.98-2.2-2.142-2.716L3.822-5.978C3.08-6.3,2.086-6.734,2.086-7.9c0-1.05.868-1.736,2.17-1.736A3.275,3.275,0,0,1,6.664-8.61l.476-.546a3.9,3.9,0,0,0-2.884-1.232c-1.736,0-3.024,1.05-3.024,2.562A2.831,2.831,0,0,0,3.3-5.278l1.526.672c1.008.448,1.806.84,1.806,2.072,0,1.162-.938,1.96-2.45,1.96A3.93,3.93,0,0,1,1.232-1.932l-.518.588A4.542,4.542,0,0,0,4.186.182Zm10.5,0A3.459,3.459,0,0,0,17.08-.938h.028l.1.938h.672V-11.13h-.812v3.038l.056,1.344a3.351,3.351,0,0,0-2.226-.91c-1.764,0-3.3,1.526-3.3,3.934C11.592-1.218,12.81.182,14.686.182Zm.14-.714c-1.512,0-2.366-1.26-2.366-3.192,0-1.834,1.092-3.22,2.52-3.22a3.012,3.012,0,0,1,2.086.924v4.312A3.124,3.124,0,0,1,14.826-.532ZM20.468,0h.812V-5.012c.546-1.386,1.344-1.876,2-1.876a1.578,1.578,0,0,1,.686.126l.168-.728a1.5,1.5,0,0,0-.756-.168,2.568,2.568,0,0,0-2.114,1.582h-.028l-.1-1.386h-.672Zm4.508.182a.719.719,0,0,0,.714-.756.723.723,0,0,0-.714-.77.723.723,0,0,0-.714.77A.719.719,0,0,0,24.976.182Z" transform="translate(101.87 -80)"/>
    <text id="_3" data-name="• " class="cls-2" transform="translate(14.93 -56.998)"><tspan x="0" y="0">• </tspan></text>
    <text id="_4" data-name="" class="cls-3" transform="translate(22.868 -56.998)"><tspan x="0" y="0"></tspan></text>
    <path id="패스_8878" data-name="패스 8878" class="cls-4" d="M2.03-2.9v-6.37H5.936v-.644H1.3v7.658h.77A20.2,20.2,0,0,0,6.79-2.646l-.1-.644A18.485,18.485,0,0,1,2.058-2.9Zm8.526-8.554v5.11H8.414v-4.8H7.7V.294h.714V-5.712h2.142V.966h.728V-11.452ZM20.566-5.39a4.687,4.687,0,0,1-3.178-4.046V-10.85h-.714v1.386A4.894,4.894,0,0,1,13.5-5.054l.392.6A5.585,5.585,0,0,0,17.066-7.9,5.429,5.429,0,0,0,20.16-4.8ZM19.124.336c-1.988,0-3.276-.6-3.276-1.568s1.288-1.582,3.276-1.582,3.29.6,3.29,1.582S21.126.336,19.124.336Zm0-3.752c-2.506,0-4,.784-4,2.184s1.5,2.17,4,2.17,4.018-.784,4.018-2.17S21.63-3.416,19.124-3.416Zm3.92-4.634v-3.416H22.3v7.672h.742V-7.406H24.99V-8.05Zm5.208-1.708h7v4.494h-7ZM32.116-1.33V-4.662h3.85v-5.7H27.538v5.7h3.836V-1.33h-5.25V-.7h11.3v-.63ZM49.238-11.452H48.51v6.678h.728ZM43.316-8.624v.6h2.87v3.094H46.9v-6.258h-.714v2.562ZM44.842-6.58a20.777,20.777,0,0,1-4.634.378v-3.85H44.1v-.63H39.452v5.1h.756a22.659,22.659,0,0,0,4.718-.364ZM41.93.168V-1.47h7.308V-4.144H41.174v.616H48.51v1.456H41.2V.784h8.54V.168ZM58.282-10.318h-.714v2.492A6.88,6.88,0,0,1,54.25-2.338l.462.6a7.63,7.63,0,0,0,3.234-4.382A7.221,7.221,0,0,0,61.166-2l.462-.574a6.606,6.606,0,0,1-3.346-5.25ZM66.01-6.272H63.826v-5.194h-.742V.98h.742V-5.642H66.01Zm7.6-1.624v.63h2.814V-2.3h.742v-9.156h-.742V-7.9Zm.658,2.954A4.526,4.526,0,0,1,71.134-8.82v-.9h2.912v-.63H67.438v.63h2.968v.91A4.819,4.819,0,0,1,67.158-4.62l.392.6a5.625,5.625,0,0,0,3.234-3.374A5.424,5.424,0,0,0,73.892-4.34ZM70.14.042V-3.136H69.4V.672h8.148V.042ZM91.644-9.7a11.077,11.077,0,0,1-.336,3.164l.714.1A11.68,11.68,0,0,0,92.358-9.7V-10.78H83.986v.63h7.658ZM88.2.336c-2.114,0-3.542-.644-3.542-1.638S86.086-2.954,88.2-2.954,91.756-2.3,91.756-1.3,90.314.336,88.2.336Zm0-3.892c-2.632,0-4.284.84-4.284,2.254S85.568.938,88.2.938,92.484.112,92.484-1.3,90.832-3.556,88.2-3.556Zm.042-1.974V-8.05H87.5v2.52H82.628v.63H93.842v-.63ZM99.484-9.492h3.136v-.644H95.676v.644h3.08v2.1a6.829,6.829,0,0,1-3.43,5.348l.462.6A7.639,7.639,0,0,0,99.12-5.754a7.04,7.04,0,0,0,3.4,4l.448-.588a6.175,6.175,0,0,1-3.486-5.054Zm5.138-1.96V.98h.742V-11.452Z" transform="translate(22.868 -56.998)"/>
    <text id="_5" data-name="• " class="cls-2" transform="translate(720.306 -80)"><tspan x="0" y="0">• </tspan></text>
    <text id="_6" data-name="" class="cls-3" transform="translate(728.244 -80)"><tspan x="0" y="0"></tspan></text>
    <path id="패스_8895" data-name="패스 8895" class="cls-4" d="M4.942-10.3H4.2v2.478A6.922,6.922,0,0,1,.868-2.31l.476.588A7.536,7.536,0,0,0,4.578-6.174a7.264,7.264,0,0,0,3.29,4.228l.434-.6a6.551,6.551,0,0,1-3.36-5.278Zm5.236-1.148v4.424H6.972v.616h3.206V.994h.742V-11.452Zm12.628-.014V.994h.742v-12.46Zm-8.582,1.092v8.3h5.712v-8.3h-.742V-6.93H14.966v-3.444Zm.742,4.06h4.228V-2.7H14.966ZM36.736-5C34.972-5.348,32.1-7.224,32.1-9.52v-.994h-.77v.994c0,2.31-2.828,4.158-4.606,4.522l.35.63A7.191,7.191,0,0,0,31.724-8.12a7.205,7.205,0,0,0,4.662,3.752ZM26.124-1.428V-.8H37.408v-.63Zm25.69-10.01h-.742v9.17h.742ZM42.77-7.546a2.339,2.339,0,0,1,2.436-2.338,2.339,2.339,0,0,1,2.436,2.338A2.354,2.354,0,0,1,45.206-5.18,2.354,2.354,0,0,1,42.77-7.546Zm5.586,0a2.962,2.962,0,0,0-3.15-3,2.962,2.962,0,0,0-3.15,3,2.976,2.976,0,0,0,3.15,3.024A2.976,2.976,0,0,0,48.356-7.546ZM44.744.042V-3.234H44V.672h8.232V.042Zm16.31-5.5a28.064,28.064,0,0,1-5.264.308h-.14V-7.42h4.536V-10.7H54.88v.63h4.578v2.044H54.922v3.5h.868a29.326,29.326,0,0,0,5.348-.308Zm-4.76,3h7.462V1.008H64.5v-4.1h-8.2Zm7.462-8.988v1.918H61.068v.63h2.688v1.89H61.068v.63h2.688v2.562H64.5v-7.63ZM74.3.182A3.824,3.824,0,0,0,77.35-1.274l-.476-.532A3.264,3.264,0,0,1,74.34-.574c-2.142,0-3.472-1.778-3.472-4.564,0-2.758,1.358-4.494,3.514-4.494A2.869,2.869,0,0,1,76.594-8.61l.476-.546a3.53,3.53,0,0,0-2.688-1.232c-2.59,0-4.4,2.016-4.4,5.278S71.778.182,74.3.182Z" transform="translate(728.244 -80)"/>
    <path id="패스_8896" data-name="패스 8896" class="cls-4" d="M4.186.182c2,0,3.3-1.2,3.3-2.772s-.98-2.2-2.142-2.716L3.822-5.978C3.08-6.3,2.086-6.734,2.086-7.9c0-1.05.868-1.736,2.17-1.736A3.275,3.275,0,0,1,6.664-8.61l.476-.546a3.9,3.9,0,0,0-2.884-1.232c-1.736,0-3.024,1.05-3.024,2.562A2.831,2.831,0,0,0,3.3-5.278l1.526.672c1.008.448,1.806.84,1.806,2.072,0,1.162-.938,1.96-2.45,1.96A3.93,3.93,0,0,1,1.232-1.932l-.518.588A4.542,4.542,0,0,0,4.186.182Zm10.5,0A3.459,3.459,0,0,0,17.08-.938h.028l.1.938h.672V-11.13h-.812v3.038l.056,1.344a3.351,3.351,0,0,0-2.226-.91c-1.764,0-3.3,1.526-3.3,3.934C11.592-1.218,12.81.182,14.686.182Zm.14-.714c-1.512,0-2.366-1.26-2.366-3.192,0-1.834,1.092-3.22,2.52-3.22a3.012,3.012,0,0,1,2.086.924v4.312A3.124,3.124,0,0,1,14.826-.532ZM20.468,0h.812V-5.012c.546-1.386,1.344-1.876,2-1.876a1.578,1.578,0,0,1,.686.126l.168-.728a1.5,1.5,0,0,0-.756-.168,2.568,2.568,0,0,0-2.114,1.582h-.028l-.1-1.386h-.672Zm4.508.182a.719.719,0,0,0,.714-.756.723.723,0,0,0-.714-.77.723.723,0,0,0-.714.77A.719.719,0,0,0,24.976.182Z" transform="translate(807.246 -80)"/>
    <text id="_7" data-name="• " class="cls-2" transform="translate(720.306 -56.998)"><tspan x="0" y="0">• </tspan></text>
    <text id="_8" data-name="" class="cls-3" transform="translate(728.244 -56.998)"><tspan x="0" y="0"></tspan></text>
    <path id="패스_8897" data-name="패스 8897" class="cls-4" d="M2.03-2.9v-6.37H5.936v-.644H1.3v7.658h.77A20.2,20.2,0,0,0,6.79-2.646l-.1-.644A18.485,18.485,0,0,1,2.058-2.9Zm8.526-8.554v5.11H8.414v-4.8H7.7V.294h.714V-5.712h2.142V.966h.728V-11.452ZM20.566-5.39a4.687,4.687,0,0,1-3.178-4.046V-10.85h-.714v1.386A4.894,4.894,0,0,1,13.5-5.054l.392.6A5.585,5.585,0,0,0,17.066-7.9,5.429,5.429,0,0,0,20.16-4.8ZM19.124.336c-1.988,0-3.276-.6-3.276-1.568s1.288-1.582,3.276-1.582,3.29.6,3.29,1.582S21.126.336,19.124.336Zm0-3.752c-2.506,0-4,.784-4,2.184s1.5,2.17,4,2.17,4.018-.784,4.018-2.17S21.63-3.416,19.124-3.416Zm3.92-4.634v-3.416H22.3v7.672h.742V-7.406H24.99V-8.05Zm5.208-1.708h7v4.494h-7ZM32.116-1.33V-4.662h3.85v-5.7H27.538v5.7h3.836V-1.33h-5.25V-.7h11.3v-.63ZM49.238-11.452H48.51v6.678h.728ZM43.316-8.624v.6h2.87v3.094H46.9v-6.258h-.714v2.562ZM44.842-6.58a20.777,20.777,0,0,1-4.634.378v-3.85H44.1v-.63H39.452v5.1h.756a22.659,22.659,0,0,0,4.718-.364ZM41.93.168V-1.47h7.308V-4.144H41.174v.616H48.51v1.456H41.2V.784h8.54V.168ZM58.282-10.318h-.714v2.492A6.88,6.88,0,0,1,54.25-2.338l.462.6a7.63,7.63,0,0,0,3.234-4.382A7.221,7.221,0,0,0,61.166-2l.462-.574a6.606,6.606,0,0,1-3.346-5.25ZM66.01-6.272H63.826v-5.194h-.742V.98h.742V-5.642H66.01Zm7.6-1.624v.63h2.814V-2.3h.742v-9.156h-.742V-7.9Zm.658,2.954A4.526,4.526,0,0,1,71.134-8.82v-.9h2.912v-.63H67.438v.63h2.968v.91A4.819,4.819,0,0,1,67.158-4.62l.392.6a5.625,5.625,0,0,0,3.234-3.374A5.424,5.424,0,0,0,73.892-4.34ZM70.14.042V-3.136H69.4V.672h8.148V.042ZM91.644-9.7a11.077,11.077,0,0,1-.336,3.164l.714.1A11.68,11.68,0,0,0,92.358-9.7V-10.78H83.986v.63h7.658ZM88.2.336c-2.114,0-3.542-.644-3.542-1.638S86.086-2.954,88.2-2.954,91.756-2.3,91.756-1.3,90.314.336,88.2.336Zm0-3.892c-2.632,0-4.284.84-4.284,2.254S85.568.938,88.2.938,92.484.112,92.484-1.3,90.832-3.556,88.2-3.556Zm.042-1.974V-8.05H87.5v2.52H82.628v.63H93.842v-.63ZM99.484-9.492h3.136v-.644H95.676v.644h3.08v2.1a6.829,6.829,0,0,1-3.43,5.348l.462.6A7.639,7.639,0,0,0,99.12-5.754a7.04,7.04,0,0,0,3.4,4l.448-.588a6.175,6.175,0,0,1-3.486-5.054Zm5.138-1.96V.98h.742V-11.452Z" transform="translate(728.244 -56.998)"/>
  </g>
  <g id="그룹_7663" data-name="그룹 7663" transform="translate(158.88 88.58)">
    <path id="패스_8015" data-name="패스 8015" class="cls-5" d="M0,0H537.868"/>
  </g>
  <g id="그룹_7664" data-name="그룹 7664" transform="translate(156.876 88.58)">
    <path id="패스_8016" data-name="패스 8016" class="cls-6" d="M0,0H0M540.873,0h0"/>
  </g>
  <g id="그룹_7667" data-name="그룹 7667" class="cls-7" transform="translate(0 266.84)">
    <g id="그룹_7665" data-name="그룹 7665" transform="translate(76.43 -106.952)">
      <path id="패스_8017" data-name="패스 8017" class="cls-8" d="M0,0A64.594,64.594,0,0,0,64.6-64.6,64.593,64.593,0,0,0,0-129.191,64.594,64.594,0,0,0-64.6-64.6,64.6,64.6,0,0,0,0,0"/>
    </g>
    <g id="그룹_7666" data-name="그룹 7666" transform="translate(781.803 -106.952)">
      <path id="패스_8018" data-name="패스 8018" class="cls-8" d="M0,0A64.594,64.594,0,0,0,64.6-64.6,64.593,64.593,0,0,0,0-129.191,64.594,64.594,0,0,0-64.6-64.6,64.6,64.6,0,0,0,0,0"/>
    </g>
  </g>
  <g id="그룹-2" data-name="그룹" transform="translate(0 266.84)">
    <path id="패스_8874" data-name="패스 8874" class="cls-4" d="M9.3-10.815H5.985v-1.56H4.44v1.56H1.11V-9.57H9.3ZM3.375-6.39c0-.825.75-1.335,1.845-1.335s1.83.51,1.83,1.335S6.3-5.04,5.22-5.04,3.375-5.55,3.375-6.39Zm2.61,2.475C7.515-4.155,8.52-5.07,8.52-6.39c0-1.515-1.35-2.52-3.3-2.52-1.965,0-3.315,1-3.315,2.52,0,1.3,1,2.235,2.535,2.475v1.32c-1.275.045-2.52.045-3.6.045l.195,1.275A52.711,52.711,0,0,0,9.69-1.83L9.585-2.955c-1.155.165-2.385.24-3.6.315Zm4.365-8.49V1.155h1.56v-13.56Zm15.63,5.01c-2.73-.39-4.77-2.085-4.77-3.84v-.72H19.575v.72c0,1.785-2.01,3.45-4.77,3.84l.6,1.245A6.811,6.811,0,0,0,20.4-9.21a6.854,6.854,0,0,0,4.98,3.06Zm.525,2.52H14.265v1.26h5.31V1.17H21.12V-3.615h5.385Z" transform="translate(59.685 -153.855)"/>
    <path id="패스_8875" data-name="패스 8875" class="cls-4" d="M3.555,2.985l1.08-.48a14.006,14.006,0,0,1-1.89-7.2,14.083,14.083,0,0,1,1.89-7.2l-1.08-.465a14.135,14.135,0,0,0-2.22,7.665A14.149,14.149,0,0,0,3.555,2.985Zm4.2-12.51H11.25v-1.26H6.24V-2.07h.9a24.435,24.435,0,0,0,4.935-.375L11.94-3.72a20.788,20.788,0,0,1-4.185.375Zm8.115-2.88V-7.05H14.265v-5.07H12.81V.48h1.455V-5.79H15.87V1.14h1.47V-12.405Zm11.295,6.21A4.328,4.328,0,0,1,24-10.245V-11.7H22.44v1.335a4.734,4.734,0,0,1-3.285,4.53l.825,1.23a5.57,5.57,0,0,0,3.27-3.21,5.334,5.334,0,0,0,3.1,2.835ZM25.5-.06c-1.89,0-2.985-.465-2.985-1.335,0-.84,1.1-1.32,2.985-1.32s2.985.48,2.985,1.32C28.485-.525,27.39-.06,25.5-.06Zm0-3.87c-2.79,0-4.515.945-4.515,2.535s1.725,2.55,4.515,2.55,4.515-.945,4.515-2.55S28.305-3.93,25.5-3.93Zm4.365-5.115v-3.36H28.32V-4.26h1.545V-7.77h1.92V-9.045Zm7.035-.6h2.235V-10.92h-6.12v1.275H35.4v.975c0,2.415-.9,4.86-2.82,6.06l.93,1.14a6.713,6.713,0,0,0,2.655-3.99,6.165,6.165,0,0,0,2.6,3.66l.9-1.125C37.77-4.02,36.9-6.36,36.9-8.67Zm3.24,2.01H38.145v1.26H40.14V.5H41.6v-12.63H40.14Zm2.73-4.77V1.14h1.47V-12.405Zm11.085,4.14h-3.12v-2.49h3.12Zm-4.665,0H47.445V-7.02H57.33V-8.265H55.5v-2.49h1.905V-12H47.37v1.245h1.92ZM55.53-.24H49.275V-2.085H55.53Zm3-4.455V-5.94H46.275v1.245H51.63v1.38H47.745V.99h9.3V-3.315h-3.87v-1.38ZM60.8,2.985a14.033,14.033,0,0,0,2.235-7.68A14.019,14.019,0,0,0,60.8-12.36l-1.08.465a14.083,14.083,0,0,1,1.89,7.2,14.006,14.006,0,0,1-1.89,7.2Z" transform="translate(41.145 -128.85)"/>
    <path id="패스_8893" data-name="패스 8893" class="cls-4" d="M10.38-12.39v7.275h1.545V-12.39Zm-7.3,7.9V.99h8.85V-4.485H10.4v1.5H4.605v-1.5Zm1.53,2.7H10.4v1.53H4.605Zm.015-9.99c-2.07,0-3.6,1.29-3.6,3.15s1.53,3.15,3.6,3.15S8.2-6.765,8.2-8.625,6.69-11.775,4.62-11.775Zm0,1.275A1.9,1.9,0,0,1,6.7-8.625,1.889,1.889,0,0,1,4.62-6.75,1.881,1.881,0,0,1,2.535-8.625,1.889,1.889,0,0,1,4.62-10.5Zm19.005.7A29.157,29.157,0,0,1,23.1-3.6l1.56.165a31.014,31.014,0,0,0,.525-6.36V-11.13H15.54v1.26h8.085ZM20.385-1.89V-6.66h-1.56v4.77h-4.56V-.615h12.24V-1.89Z" transform="translate(768.15 -153.855)"/>
    <path id="패스_8894" data-name="패스 8894" class="cls-4" d="M3.555,2.985l1.08-.48a14.006,14.006,0,0,1-1.89-7.2,14.083,14.083,0,0,1,1.89-7.2l-1.08-.465a14.135,14.135,0,0,0-2.22,7.665A14.149,14.149,0,0,0,3.555,2.985ZM14.94-9H8.865v-1.77H14.94Zm1.515-2.97H7.335v4.185h9.12Zm1.59,6.36V-6.84H5.775v1.23h5.34v1.125H7.23v1.17h7.755v.96H7.26v3.39h9.63V-.15H8.79V-1.26H16.5V-4.485H12.675V-5.61ZM28.53-9.39H20.76v3.81H30.4V-6.825H22.32v-1.41H30.1v-3.69H20.73v1.245h7.8Zm3.03,5.01H19.275v1.245h3.03V1.17H23.85V-3.135h3.135V1.17H28.53V-3.135h3.045Zm12.69-8.01H42.78V-2.235h1.47ZM40.125-2.625H41.58v-9.51H40.125V-9.12h-1.9v1.275h1.9Zm-.7-2.985a4.294,4.294,0,0,1-2.505-3.96v-1.89h-1.5v1.89a4.827,4.827,0,0,1-2.7,4.3L33.57-4.1a5.241,5.241,0,0,0,2.61-2.94,4.68,4.68,0,0,0,2.4,2.6ZM36.855-.36V-3.435H35.3V.9h9.33V-.36Zm11.58-5.82H52.62V-7.41H48.435V-9.945h4.74V-11.22H46.89V-2h1.065a32.7,32.7,0,0,0,6.09-.4L53.91-3.645a32.166,32.166,0,0,1-5.475.39Zm7.545-6.24v4.98h-2.6v1.275h2.6V1.17h1.56V-12.42ZM60.8,2.985a14.033,14.033,0,0,0,2.235-7.68A14.019,14.019,0,0,0,60.8-12.36l-1.08.465a14.083,14.083,0,0,1,1.89,7.2,14.006,14.006,0,0,1-1.89,7.2Z" transform="translate(749.61 -128.85)"/>
  </g>
  <g id="그룹_7669" data-name="그룹 7669" class="cls-7" transform="translate(0 266.84)">
    <g id="그룹_7668" data-name="그룹 7668" transform="translate(261.576 -131.867)">
      <path id="패스_8020" data-name="패스 8020" class="cls-9" d="M0,0A47.624,47.624,0,0,0,47.625-47.625,47.624,47.624,0,0,0,0-95.251,47.624,47.624,0,0,0-47.625-47.625,47.624,47.624,0,0,0,0,0"/>
    </g>
  </g>
  <g id="그룹-3" data-name="그룹" transform="translate(0 266.84)">
    <path id="패스_8881" data-name="패스 8881" class="cls-4" d="M10.164-11.452v6.664h.742v-6.664ZM3.052-4.13V.784h7.854V-4.13h-.728v1.736H3.794V-4.13Zm.742,2.352h6.384V.168H3.794Zm.49-9.03A2.852,2.852,0,0,0,1.148-7.994,2.852,2.852,0,0,0,4.284-5.18,2.861,2.861,0,0,0,7.448-7.994,2.861,2.861,0,0,0,4.284-10.808Zm0,.63a2.242,2.242,0,0,1,2.45,2.184A2.25,2.25,0,0,1,4.284-5.81,2.241,2.241,0,0,1,1.862-7.994,2.233,2.233,0,0,1,4.284-10.178ZM22.456-8.834a26.6,26.6,0,0,1-.448,5.516l.756.112A28.964,28.964,0,0,0,23.2-8.834V-10.08H14.686v.616h7.77ZM18.8-1.554V-6.1h-.728v4.55H13.468v.63H24.71v-.63Z" transform="translate(248.801 -184.599)"/>
    <path id="패스_8882" data-name="패스 8882" class="cls-4" d="M3.388,2.7l.5-.252A12.873,12.873,0,0,1,2.044-4.312a12.909,12.909,0,0,1,1.848-6.762l-.5-.266A12.91,12.91,0,0,0,1.344-4.312,12.862,12.862,0,0,0,3.388,2.7ZM6.44-8.428c0-1.05.966-1.82,2.338-1.82s2.338.77,2.338,1.82S10.15-6.622,8.778-6.622,6.44-7.378,6.44-8.428ZM12.908-5a31.693,31.693,0,0,1-3.724.35V-6.034c1.6-.14,2.646-1.05,2.646-2.394,0-1.456-1.246-2.408-3.052-2.408S5.74-9.884,5.74-8.428c0,1.358,1.092,2.282,2.7,2.394v1.428c-1.246.042-2.45.056-3.458.056l.126.644a46.366,46.366,0,0,0,7.84-.518ZM7.63-2.73H6.888V.658h8.064V.028H7.63Zm6.86-4.326v-4.382h-.742v9.52h.742V-6.426h1.974v-.63Zm9.744-.84v.63h2.814V-2.3h.742v-9.156h-.742V-7.9Zm.658,2.954A4.526,4.526,0,0,1,21.756-8.82v-.9h2.912v-.63H18.06v.63h2.968v.91A4.819,4.819,0,0,1,17.78-4.62l.392.6a5.625,5.625,0,0,0,3.234-3.374A5.424,5.424,0,0,0,24.514-4.34ZM20.762.042V-3.136H20.02V.672h8.148V.042ZM39.34-6.8H32.592v-1.89H39.34Zm.742-4.27H39.34V-9.31H32.592v-1.764H31.85v4.9h8.232Zm-7.532,8.4h-.728V.672h8.526V.042h-7.8ZM30.31-4.76v.616h5.32V-1.47h.742V-4.144h5.236V-4.76Zm15.806,2.1a2,2,0,0,1-1.96-2.128,2.008,2.008,0,0,1,1.96-2.128A2.01,2.01,0,0,1,48.09-4.788,2,2,0,0,1,46.116-2.66Zm0-4.886a2.6,2.6,0,0,0-2.632,2.758,2.605,2.605,0,0,0,2.632,2.772,2.6,2.6,0,0,0,2.646-2.772A2.6,2.6,0,0,0,46.116-7.546Zm.378-3.528h-.742v1.9H42.98v.63h6.3v-.63H46.494Zm6.216-.378V-6.1H50.736v-5.04h-.728V.322h.728v-5.8H52.71V.98h.728V-11.452ZM55.9,2.7a12.862,12.862,0,0,0,2.044-7.014A12.91,12.91,0,0,0,55.9-11.34l-.5.266a12.909,12.909,0,0,1,1.848,6.762A12.873,12.873,0,0,1,55.4,2.45Z" transform="translate(231.945 -160.603)"/>
    <text id="_9" data-name="• " class="cls-2" transform="translate(294.427 -66.999)"><tspan x="0" y="0">• </tspan></text>
    <path id="패스_8902" data-name="패스 8902" class="cls-4" d="M7.378-8.092v.63h2.8v3.416h.742v-7.406h-.742v3.36ZM8.022-5.18A4.526,4.526,0,0,1,4.886-9.058v-.77H7.8v-.63H1.19v.63H4.158v.784A4.859,4.859,0,0,1,.924-4.816l.378.6a5.619,5.619,0,0,0,3.248-3.4A5.315,5.315,0,0,0,7.644-4.592ZM6.9.35C4.872.35,3.57-.28,3.57-1.316S4.872-2.982,6.9-2.982s3.346.63,3.346,1.666S8.932.35,6.9.35Zm0-3.934c-2.534,0-4.074.812-4.074,2.268S4.368.952,6.9.952,10.976.14,10.976-1.316,9.422-3.584,6.9-3.584ZM24.038-6.538c-1.862-.308-4.564-1.764-4.564-3.668v-.77H18.7v.77c0,1.96-2.674,3.36-4.578,3.668l.322.616c1.75-.336,3.906-1.414,4.648-3.066.742,1.624,2.912,2.73,4.634,3.066Zm.672,2.226H13.454v.63H18.69V.966h.742V-3.682H24.7Zm2.184-5.768v.63h4.97c-.2,3.066-2.086,5.712-5.5,7.364l.406.616c4-1.974,5.838-5.138,5.838-8.61Zm8.61-1.372V.98h.742V-11.452ZM38.99,2.464a2.909,2.909,0,0,0,1.68-2.6c0-.742-.336-1.2-.84-1.2a.7.7,0,0,0-.742.7.686.686,0,0,0,.728.714.682.682,0,0,0,.168-.014,2.118,2.118,0,0,1-1.232,1.876ZM51.562-7.77v.63h2.814v3.22h.742v-7.532h-.742V-7.77Zm.714,2.688c-1.722-.574-3.248-2-3.248-3.71V-9.2h2.926v-.63H49.042v-1.708H48.3v1.708H45.346v.63H48.3v.406A4.579,4.579,0,0,1,45.108-4.76l.378.574a5.369,5.369,0,0,0,3.206-3.178,5.221,5.221,0,0,0,3.234,2.856ZM51.1.336c-2.03,0-3.332-.63-3.332-1.624s1.3-1.624,3.332-1.624,3.346.616,3.346,1.624S53.13.336,51.1.336Zm0-3.864c-2.548,0-4.074.812-4.074,2.24S48.552.938,51.1.938s4.074-.812,4.074-2.226S53.634-3.528,51.1-3.528ZM64.246-8.092v.63h2.8v3.416h.742v-7.406h-.742v3.36ZM64.89-5.18a4.526,4.526,0,0,1-3.136-3.878v-.77h2.912v-.63H58.058v.63h2.968v.784a4.859,4.859,0,0,1-3.234,4.228l.378.6a5.619,5.619,0,0,0,3.248-3.4,5.315,5.315,0,0,0,3.094,3.024ZM63.77.35c-2.03,0-3.332-.63-3.332-1.666s1.3-1.666,3.332-1.666,3.346.63,3.346,1.666S65.8.35,63.77.35Zm0-3.934c-2.534,0-4.074.812-4.074,2.268S61.236.952,63.77.952,67.844.14,67.844-1.316,66.29-3.584,63.77-3.584Zm7.322-6.5v.63h4.97c-.2,3.066-2.086,5.712-5.5,7.364l.406.616c4-1.974,5.838-5.138,5.838-8.61Zm8.61-1.372V.98h.742V-11.452Zm16.31,0H95.27V-4.97h.742ZM88.578-9.94h2.436v3.626c-.812.056-1.652.084-2.436.112ZM93.8-6.552c-.658.084-1.344.154-2.058.2V-9.94h1.386v-.63H86.464v.63H87.85v3.752c-.6.014-1.19.028-1.736.028l.1.644a58.6,58.6,0,0,0,7.63-.462ZM88.872.182V-1.526h7.14V-4.3H88.1v.616h7.182v1.568H88.13V.8h8.414V.182ZM99.89-2.744V-6.118h4.4v-.63h-4.4V-9.632h5v-.644h-5.74v8.162h.924a28.321,28.321,0,0,0,5.768-.42l-.07-.63a26.57,26.57,0,0,1-5.7.42Zm8.064-8.722v4.872H105.1v.644h2.856V.994h.742v-12.46Z" transform="translate(302.365 -66.999)"/>
    <text id="_10" data-name="• " class="cls-2" transform="translate(294.427 -43.997)"><tspan x="0" y="0">• </tspan></text>
    <path id="패스_8903" data-name="패스 8903" class="cls-4" d="M10.136-11.466V.994h.742v-12.46ZM1.554-10.374v8.3H7.266v-8.3H6.524V-6.93H2.3v-3.444ZM2.3-6.314H6.524V-2.7H2.3ZM14.728-2.8V-9.226H18.62v-.63H13.986v7.7h.77a20.44,20.44,0,0,0,4.69-.378l-.1-.644a18.749,18.749,0,0,1-4.592.378Zm6.034-3.794H17.78v.63h2.982V.294h.714v-11.41h-.714Zm2.464-4.858V.98h.728V-11.452Zm5.642,7.924h3.444v-.686H28.868Zm17.626-7.924h-.742V-4.97h.742ZM39.06-9.94H41.5v3.626c-.812.056-1.652.084-2.436.112Zm5.222,3.388c-.658.084-1.344.154-2.058.2V-9.94H43.61v-.63H36.946v.63h1.386v3.752c-.6.014-1.19.028-1.736.028l.1.644a58.6,58.6,0,0,0,7.63-.462ZM39.354.182V-1.526h7.14V-4.3h-7.91v.616h7.182v1.568H38.612V.8h8.414V.182ZM50.372-2.744V-6.118h4.4v-.63h-4.4V-9.632h5v-.644H49.63v8.162h.924a28.321,28.321,0,0,0,5.768-.42l-.07-.63a26.57,26.57,0,0,1-5.7.42Zm8.064-8.722v4.872H55.58v.644h2.856V.994h.742v-12.46Zm3.472,13.93a2.909,2.909,0,0,0,1.68-2.6c0-.742-.336-1.2-.84-1.2a.7.7,0,0,0-.742.7.686.686,0,0,0,.728.714A.682.682,0,0,0,62.9.056,2.118,2.118,0,0,1,61.67,1.932Z" transform="translate(302.365 -43.997)"/>
    <text id="_11" data-name=" " class="cls-3" transform="translate(368.445 -43.997)"><tspan x="0" y="0"> </tspan></text>
    <text id="_12" data-name="" class="cls-10" transform="translate(371.945 -43.997)"><tspan x="0" y="0"></tspan></text>
    <path id="패스_8904" data-name="패스 8904" class="cls-4" d="M6.776-1.372v-3.64h3.948v-.63H2.982v-4.7H2.24v5.334H6.034v3.64H.784v.63H12.068v-.63Zm7.616-5.446c1.834-.21,3.976-1.036,4.69-2.422.714,1.386,2.87,2.212,4.69,2.422l.266-.574c-1.96-.21-4.55-1.246-4.55-2.842v-.084h4.2v-.616H14.5v.616h4.172v.084c0,1.6-2.59,2.632-4.55,2.842Zm1.232,5.446h7.588v-2.6H14.868v.6h7.616V-1.96H14.9V.8h8.722V.182H15.624Zm-2.17-4.634v.616H24.7v-.616ZM26.32,2.464A2.909,2.909,0,0,0,28-.14c0-.742-.336-1.2-.84-1.2a.7.7,0,0,0-.742.7.686.686,0,0,0,.728.714.682.682,0,0,0,.168-.014,2.118,2.118,0,0,1-1.232,1.876Zm8.6.238.5-.252a12.873,12.873,0,0,1-1.848-6.762,12.909,12.909,0,0,1,1.848-6.762l-.5-.266a12.91,12.91,0,0,0-2.044,7.028A12.862,12.862,0,0,0,34.916,2.7Zm9.31-8.736a32.143,32.143,0,0,1-6.006.378H38V-7.644h4.816V-8.26H38v-1.876h5.152v-.616H37.254V-5.04h.966a32.349,32.349,0,0,0,6.1-.378ZM45.906.154H39.522V-1.652h6.384Zm0-2.422H39.522v-1.61H38.78V.784h7.854V-3.878h-.728Zm-.014-9.2v6.93h.742v-6.93ZM49.42,2.7a12.862,12.862,0,0,0,2.044-7.014A12.91,12.91,0,0,0,49.42-11.34l-.5.266a12.909,12.909,0,0,1,1.848,6.762A12.873,12.873,0,0,1,48.916,2.45Zm3.318-.224H53.4L58.016-11h-.672Zm13.132-8.3a26.056,26.056,0,0,1-5.586.434h-.168V-9.954h4.97v-.63H59.374V-4.76h.91a27.946,27.946,0,0,0,5.67-.434ZM60.62-2.73h7.462V.98h.742V-3.36h-8.2Zm7.462-8.722v3.276H64.26v.63h3.822V-4.06h.742v-7.392ZM81.3-4.578H73.64v-2.3h7.266V-7.49H73.64V-9.674h7.532v-.63H72.884v6.356H81.3Zm-9.94,3.22v.63H82.642v-.63Z" transform="translate(302.365 -22.003)"/>
  </g>
  <g id="그룹_7671" data-name="그룹 7671" class="cls-7" transform="translate(0 266.84)">
    <g id="그룹_7670" data-name="그룹 7670" transform="translate(373.267 -131.867)">
      <path id="패스_8022" data-name="패스 8022" class="cls-9" d="M0,0A47.624,47.624,0,0,0,47.625-47.625,47.624,47.624,0,0,0,0-95.251,47.624,47.624,0,0,0-47.625-47.625,47.624,47.624,0,0,0,0,0"/>
    </g>
  </g>
  <g id="그룹-4" data-name="그룹" transform="translate(0 266.84)">
    <path id="패스_8883" data-name="패스 8883" class="cls-4" d="M9.828-6.272h-6.8v-2.17h6.8Zm.742-4.676H9.828v1.89h-6.8v-1.89H2.282v5.306H10.57Zm1.5,6.986H.77v.63H6.02V.98h.742V-3.332h5.306ZM20.79-7.35H17.332v-3.066H20.79Zm-4.186,0H14.56v.616h9V-7.35h-2.03v-3.066H23.59v-.616H14.546v.616H16.6Zm5.978,7.5H15.6V-2.38h6.986ZM24.7-4.7v-.63H13.454v.63h5.264V-3H14.882V.784H23.31V-3H19.446V-4.7ZM38.038-8.638a23.22,23.22,0,0,1-.448,5.292l.742.1a24.919,24.919,0,0,0,.434-5.39V-10.08H30.24v.616h7.8Zm-2.2,7.084V-5.768h-.728v4.214H32.774V-5.768h-.728v4.214h-3.01v.63H40.278v-.63Zm9.338-6.86H47.7v-.63H45.192V-11h-.728v1.96H41.93v.63h2.534V-7.6a6.526,6.526,0,0,1-2.8,5.348l.476.56a6.669,6.669,0,0,0,2.688-4.088,6.465,6.465,0,0,0,2.716,3.836l.462-.588A6.026,6.026,0,0,1,45.178-7.6Zm3.794,1.988h-2.2v.63h2.2V.294h.714V-11.13h-.714Zm2.492-5.04V.98h.728V-11.466Zm3.094,13.93a2.909,2.909,0,0,0,1.68-2.6c0-.742-.336-1.2-.84-1.2a.7.7,0,0,0-.742.7.686.686,0,0,0,.728.714.682.682,0,0,0,.168-.014A2.118,2.118,0,0,1,54.32,1.932Z" transform="translate(344.315 -183.599)"/>
    <text id="_13" data-name=" " class="cls-3" transform="translate(402.219 -183.599)"><tspan x="0" y="0"> </tspan></text>
    <text id="_14" data-name="" class="cls-10" transform="translate(405.719 -183.599)"><tspan x="0" y="0"></tspan></text>
    <path id="패스_8884" data-name="패스 8884" class="cls-4" d="M4.284-10.234h-.7v2.548A6.407,6.407,0,0,1,.7-2.38l.49.56A6.755,6.755,0,0,0,3.948-5.894a6.574,6.574,0,0,0,2.66,3.808l.476-.574a6.176,6.176,0,0,1-2.8-5.04Zm3.752,3.4H5.7v.63H8.036V.322H8.75V-11.144H8.036Zm2.548-4.62V.98H11.3V-11.452Zm10.15,6.538A4.383,4.383,0,0,1,17.5-8.736V-9.2h2.926v-.616H17.514v-1.722h-.742v1.722H13.818V-9.2h2.954v.462a4.631,4.631,0,0,1-3.206,4.074l.392.6A5.566,5.566,0,0,0,17.15-7.28a5.3,5.3,0,0,0,3.22,2.954ZM15.386-2.506h7.462v3.5h.742v-4.13h-8.2Zm7.462-8.946v3.794h-2.8v.63h2.8v3.164h.742v-7.588ZM28.728,2.7l.5-.252a12.873,12.873,0,0,1-1.848-6.762,12.909,12.909,0,0,1,1.848-6.762l-.5-.266a12.91,12.91,0,0,0-2.044,7.028A12.862,12.862,0,0,0,28.728,2.7ZM40.446-11.452H39.7V-4.97h.742ZM33.012-9.94h2.436v3.626c-.812.056-1.652.084-2.436.112Zm5.222,3.388c-.658.084-1.344.154-2.058.2V-9.94h1.386v-.63H30.9v.63h1.386v3.752c-.6.014-1.19.028-1.736.028l.1.644a58.6,58.6,0,0,0,7.63-.462ZM33.306.182V-1.526h7.14V-4.3h-7.91v.616h7.182v1.568H32.564V.8h8.414V.182ZM44.324-2.744V-6.118h4.4v-.63h-4.4V-9.632h5v-.644h-5.74v8.162h.924a28.321,28.321,0,0,0,5.768-.42l-.07-.63a26.57,26.57,0,0,1-5.7.42Zm8.064-8.722v4.872H49.532v.644h2.856V.994h.742v-12.46ZM55.9,2.7a12.862,12.862,0,0,0,2.044-7.014A12.91,12.91,0,0,0,55.9-11.34l-.5.266a12.909,12.909,0,0,1,1.848,6.762A12.873,12.873,0,0,1,55.4,2.45Z" transform="translate(343.643 -161.605)"/>
    <text id="_15" data-name="• " class="cls-2" transform="translate(436.561 -67.007)"><tspan x="0" y="0">• </tspan></text>
    <path id="패스_8898" data-name="패스 8898" class="cls-4" d="M9.828-7.924H3.01v-2.492H9.828Zm.728-3.094H2.3v3.71h8.26ZM12.026-5.4V-6.02H.784V-5.4h5.25v1.47H2.2v.6H9.814v1.386H2.226V.8h8.722V.182H2.954V-1.372h7.588V-3.934H6.776V-5.4Zm2.73-4.144h4.116v6.664H14.756Zm-.728,7.28h5.558v-7.9H14.028ZM25.1-6.328H22.918v-5.124h-.742V.966h.742V-5.7H25.1Zm2.1.07.14.644,7.728-.42a20.851,20.851,0,0,1-.462,3.4l.728.084a26.306,26.306,0,0,0,.5-5.95V-10.08H27.524v.63h7.6V-8.5c0,.63,0,1.246-.028,1.876Zm-1.078,4.7v.63H37.366v-.63ZM38.99,2.464a2.909,2.909,0,0,0,1.68-2.6c0-.742-.336-1.2-.84-1.2a.7.7,0,0,0-.742.7.686.686,0,0,0,.728.714.682.682,0,0,0,.168-.014,2.118,2.118,0,0,1-1.232,1.876ZM49.35.182A3.824,3.824,0,0,0,52.4-1.274l-.476-.532A3.264,3.264,0,0,1,49.392-.574c-2.142,0-3.472-1.778-3.472-4.564,0-2.758,1.358-4.494,3.514-4.494A2.869,2.869,0,0,1,51.646-8.61l.476-.546a3.53,3.53,0,0,0-2.688-1.232c-2.59,0-4.4,2.016-4.4,5.278S46.83.182,49.35.182ZM55.1-4.1l.63-1.848c.406-1.19.756-2.268,1.106-3.5H56.9c.364,1.232.7,2.31,1.12,3.5L58.632-4.1ZM59.99,0h.9l-3.57-10.206h-.868L52.878,0h.84L54.88-3.43h3.976ZM71.68-11.438h-.742v9.17h.742ZM62.636-7.546a2.339,2.339,0,0,1,2.436-2.338,2.339,2.339,0,0,1,2.436,2.338A2.354,2.354,0,0,1,65.072-5.18,2.354,2.354,0,0,1,62.636-7.546Zm5.586,0a2.962,2.962,0,0,0-3.15-3,2.962,2.962,0,0,0-3.15,3,2.976,2.976,0,0,0,3.15,3.024A2.976,2.976,0,0,0,68.222-7.546ZM64.61.042V-3.234h-.742V.672H72.1V.042Zm10.626-6.4c1.82-.28,3.962-1.19,4.634-2.66.658,1.47,2.8,2.38,4.62,2.66l.28-.6C82.838-7.21,80.3-8.33,80.3-10.01v-.154h4.158v-.616H75.278v.616h4.158v.154c0,1.68-2.548,2.8-4.48,3.052ZM79.87.336c-2.142,0-3.5-.6-3.5-1.61s1.358-1.61,3.5-1.61c2.114,0,3.472.6,3.472,1.61S81.984.336,79.87.336Zm0-3.836c-2.646,0-4.242.8-4.242,2.226S77.224.938,79.87.938s4.214-.784,4.214-2.212S82.5-3.5,79.87-3.5ZM74.228-5.432v.63H85.47v-.63Z" transform="translate(444.499 -67.007)"/>
    <text id="_16" data-name="• " class="cls-2" transform="translate(436.561 -44.005)"><tspan x="0" y="0">• </tspan></text>
    <path id="패스_8899" data-name="패스 8899" class="cls-4" d="M7.91-6.118a4.357,4.357,0,0,1-3.178-3.85V-11.06H4v1.106A4.647,4.647,0,0,1,.784-5.726l.378.6A5.367,5.367,0,0,0,4.4-8.428,5.216,5.216,0,0,0,7.5-5.53ZM3.416-1.526h6.958V-4.3H2.66v.616H9.646v1.554H2.688V.8h8.19V.182H3.416Zm6.958-7.056v-2.884H9.632v6.552h.742V-7.938h1.932v-.644Zm5.292,5.446h-.742V.672h8.61V.042H15.666ZM22.89-6.02a18.425,18.425,0,0,0,.322-3.85v-.882H14.924v.63h7.56v.252a17.805,17.805,0,0,1-.336,3.85H13.454v.63H17.22V-2.2h.728V-5.39h2.744V-2.2h.728V-5.39h3.318v-.63Zm2.59,8.5h.658L30.758-11h-.672Zm13.37-12.4h-3.3v-1.652H34.8v1.652H31.486v.616H38.85ZM32.928-6.37c0-.938.91-1.582,2.24-1.582s2.226.644,2.226,1.582-.9,1.582-2.226,1.582S32.928-5.432,32.928-6.37Zm5.166,0c0-1.344-1.162-2.17-2.926-2.17s-2.94.826-2.94,2.17S33.39-4.2,35.168-4.2,38.094-5.026,38.094-6.37ZM37.184.336c-1.988,0-3.248-.56-3.248-1.512s1.26-1.5,3.248-1.5,3.234.56,3.234,1.5S39.158.336,37.184.336Zm0-3.612c-2.478,0-3.976.77-3.976,2.1S34.706.938,37.184.938s3.962-.77,3.962-2.114S39.648-3.276,37.184-3.276Zm5.768-5.18v-.63H41.02v-2.366h-.742v8.078h.742v-2.45h1.932v-.644H41.02V-8.456Zm3.36,5.32H45.57V.672h8.61V.042H46.312ZM53.536-6.02a18.425,18.425,0,0,0,.322-3.85v-.882H45.57v.63h7.56v.252a17.805,17.805,0,0,1-.336,3.85H44.1v.63h3.766V-2.2h.728V-5.39h2.744V-2.2h.728V-5.39h3.318v-.63ZM69.79-11.438h-.742v9.17h.742ZM60.746-7.546a2.339,2.339,0,0,1,2.436-2.338,2.339,2.339,0,0,1,2.436,2.338A2.354,2.354,0,0,1,63.182-5.18,2.354,2.354,0,0,1,60.746-7.546Zm5.586,0a2.962,2.962,0,0,0-3.15-3,2.962,2.962,0,0,0-3.15,3,2.976,2.976,0,0,0,3.15,3.024A2.976,2.976,0,0,0,66.332-7.546ZM62.72.042V-3.234h-.742V.672H70.21V.042Zm10.626-6.4c1.82-.28,3.962-1.19,4.634-2.66.658,1.47,2.8,2.38,4.62,2.66l.28-.6c-1.932-.252-4.466-1.372-4.466-3.052v-.154h4.158v-.616H73.388v.616h4.158v.154c0,1.68-2.548,2.8-4.48,3.052ZM77.98.336c-2.142,0-3.5-.6-3.5-1.61s1.358-1.61,3.5-1.61c2.114,0,3.472.6,3.472,1.61S80.094.336,77.98.336Zm0-3.836c-2.646,0-4.242.8-4.242,2.226S75.334.938,77.98.938s4.214-.784,4.214-2.212S80.612-3.5,77.98-3.5ZM72.338-5.432v.63H83.58v-.63ZM85.2,2.464a2.909,2.909,0,0,0,1.68-2.6c0-.742-.336-1.2-.84-1.2a.7.7,0,0,0-.742.7A.686.686,0,0,0,86.03.07.682.682,0,0,0,86.2.056a2.118,2.118,0,0,1-1.232,1.876Z" transform="translate(444.499 -44.005)"/>
    <text id="_17" data-name=" " class="cls-3" transform="translate(533.063 -44.005)"><tspan x="0" y="0"> </tspan></text>
    <text id="_18" data-name="" class="cls-10" transform="translate(536.563 -44.005)"><tspan x="0" y="0"></tspan></text>
    <path id="패스_8901" data-name="패스 8901" class="cls-4" d="M1.484,0h.84V-3.444l2-2.31L7.63,0H8.6L4.886-6.412l3.248-3.794H7.14L2.352-4.662H2.324v-5.544h-.84Z" transform="translate(446.561 -22.011)"/>
    <path id="패스_8900" data-name="패스 8900" class="cls-4" d="M5.152.182A3.824,3.824,0,0,0,8.2-1.274l-.476-.532A3.264,3.264,0,0,1,5.194-.574c-2.142,0-3.472-1.778-3.472-4.564,0-2.758,1.358-4.494,3.514-4.494A2.869,2.869,0,0,1,7.448-8.61l.476-.546a3.53,3.53,0,0,0-2.688-1.232c-2.59,0-4.4,2.016-4.4,5.278S2.632.182,5.152.182ZM10.4-7.532a2.346,2.346,0,0,1,2.45-2.352,2.339,2.339,0,0,1,2.422,2.352A2.339,2.339,0,0,1,12.852-5.18,2.346,2.346,0,0,1,10.4-7.532Zm5.6,0a2.973,2.973,0,0,0-3.15-3.01,2.969,2.969,0,0,0-3.164,3.01,2.977,2.977,0,0,0,3.164,3.01A2.981,2.981,0,0,0,16-7.532ZM12.1-3.178h-.742V.672h8.2V.042H12.1ZM18.942-7.56v-3.906H18.2V-2.24h.742V-6.916h1.946V-7.56ZM28.6-7.9v.63h2.814V-2.3h.742v-9.156h-.742V-7.9Zm.658,2.954A4.526,4.526,0,0,1,26.124-8.82v-.9h2.912v-.63H22.428v.63H25.4v.91A4.819,4.819,0,0,1,22.148-4.62l.392.6a5.625,5.625,0,0,0,3.234-3.374A5.424,5.424,0,0,0,28.882-4.34ZM25.13.042V-3.136h-.742V.672h8.148V.042Zm19.684-11.48h-.742v9.17h.742ZM35.77-7.546a2.339,2.339,0,0,1,2.436-2.338,2.339,2.339,0,0,1,2.436,2.338A2.354,2.354,0,0,1,38.206-5.18,2.354,2.354,0,0,1,35.77-7.546Zm5.586,0a2.962,2.962,0,0,0-3.15-3,2.962,2.962,0,0,0-3.15,3,2.976,2.976,0,0,0,3.15,3.024A2.976,2.976,0,0,0,41.356-7.546ZM37.744.042V-3.234H37V.672h8.232V.042Zm10.626-6.4c1.82-.28,3.962-1.19,4.634-2.66.658,1.47,2.8,2.38,4.62,2.66l.28-.6c-1.932-.252-4.466-1.372-4.466-3.052v-.154H57.6v-.616H48.412v.616H52.57v.154c0,1.68-2.548,2.8-4.48,3.052ZM53,.336c-2.142,0-3.5-.6-3.5-1.61s1.358-1.61,3.5-1.61c2.114,0,3.472.6,3.472,1.61S55.118.336,53,.336ZM53-3.5c-2.646,0-4.242.8-4.242,2.226S50.358.938,53,.938s4.214-.784,4.214-2.212S55.636-3.5,53-3.5ZM47.362-5.432v.63H58.6v-.63Z" transform="translate(454.821 -22.011)"/>
  </g>
  <g id="그룹_7673" data-name="그룹 7673" class="cls-7" transform="translate(0 266.84)">
    <g id="그룹_7672" data-name="그룹 7672" transform="translate(484.958 -131.867)">
      <path id="패스_8024" data-name="패스 8024" class="cls-9" d="M0,0A47.624,47.624,0,0,0,47.625-47.625,47.624,47.624,0,0,0,0-95.251,47.624,47.624,0,0,0-47.625-47.625,47.624,47.624,0,0,0,0,0"/>
    </g>
  </g>
  <g id="그룹-5" data-name="그룹" transform="translate(0 266.84)">
    <path id="패스_8885" data-name="패스 8885" class="cls-4" d="M10.178-4.06h.742v-7.406h-.742V-8.6H7.21v.63h2.968ZM7.994-5.32A4.628,4.628,0,0,1,4.8-9.366v-1.358H4.074v1.372A4.807,4.807,0,0,1,.854-4.984l.392.6A5.527,5.527,0,0,0,4.466-7.8,5.4,5.4,0,0,0,7.56-4.746ZM6.9.336C4.872.336,3.57-.322,3.57-1.358S4.872-3.052,6.9-3.052s3.346.658,3.346,1.694S8.932.336,6.9.336Zm0-3.99c-2.534,0-4.074.826-4.074,2.3S4.368.938,6.9.938s4.074-.826,4.074-2.3S9.422-3.654,6.9-3.654Zm16.506-4.13h-7.6v-3.388h-.742v4.018h8.344ZM19.082.308C16.954.308,15.6-.308,15.6-1.316S16.954-2.94,19.082-2.94s3.486.616,3.486,1.624S21.21.308,19.082.308Zm0-3.864c-2.632,0-4.228.812-4.228,2.24s1.6,2.24,4.228,2.24,4.228-.8,4.228-2.24S21.728-3.556,19.082-3.556Zm-5.6-1.918v.63H24.71v-.63ZM31.892,0h.854V-9.492h3.22v-.714h-7.28v.714h3.206Z" transform="translate(457.896 -184.099)"/>
    <path id="패스_8886" data-name="패스 8886" class="cls-4" d="M4.256.182a4.175,4.175,0,0,0,2.38-.728l-.308-.6A3.341,3.341,0,0,1,4.34-.5C2.73-.5,1.652-1.778,1.61-3.6H6.9a3.872,3.872,0,0,0,.042-.588c0-2.184-1.078-3.472-2.884-3.472C2.366-7.658.784-6.146.784-3.724.784-1.274,2.338.182,4.256.182ZM1.61-4.242A2.657,2.657,0,0,1,4.074-6.958c1.3,0,2.128.91,2.128,2.716ZM10.556.182c1.652,0,2.562-.98,2.562-2.128,0-1.442-1.26-1.848-2.408-2.282-.868-.322-1.736-.63-1.736-1.456,0-.672.5-1.288,1.61-1.288a2.861,2.861,0,0,1,1.778.672l.42-.56a3.6,3.6,0,0,0-2.17-.8c-1.568,0-2.45.924-2.45,2.016,0,1.288,1.232,1.75,2.338,2.142.868.308,1.806.714,1.806,1.6,0,.77-.574,1.414-1.708,1.414a3.418,3.418,0,0,1-2.352-.938L7.812-.84A4.372,4.372,0,0,0,10.556.182Z" transform="translate(493.96 -184.099)"/>
    <path id="패스_8887" data-name="패스 8887" class="cls-4" d="M3.5.182A4.222,4.222,0,0,0,4.746-.1l-.2-.63a2.61,2.61,0,0,1-.91.21c-.994,0-1.246-.616-1.246-1.554v-4.7H4.536v-.686H2.394V-9.618H1.708l-.1,2.156-1.19.07v.616H1.582v4.648C1.582-.742,2.03.182,3.5.182Z" transform="translate(507.092 -184.099)"/>
    <path id="패스_8889" data-name="패스 8889" class="cls-4" d="M3.388,2.7l.5-.252A12.873,12.873,0,0,1,2.044-4.312a12.909,12.909,0,0,1,1.848-6.762l-.5-.266A12.91,12.91,0,0,0,1.344-4.312,12.862,12.862,0,0,0,3.388,2.7ZM7.854,0h.854V-9.492h3.22v-.714H4.648v.714H7.854Z" transform="translate(467.948 -160.103)"/>
    <path id="패스_8888" data-name="패스 8888" class="cls-4" d="M1.722-5.138c0-2.772,1.33-4.494,3.346-4.494S8.442-7.91,8.442-5.138c0,2.8-1.344,4.606-3.374,4.606S1.722-2.338,1.722-5.138Zm7.49,6.692a3.228,3.228,0,0,1-1.036.14A2.683,2.683,0,0,1,5.558.154C7.784-.1,9.31-2.114,9.31-5.138c0-3.234-1.75-5.25-4.242-5.25C2.6-10.388.84-8.372.84-5.138.84-2.086,2.394-.07,4.634.154A3.545,3.545,0,0,0,8.092,2.436a4.313,4.313,0,0,0,1.3-.182ZM12.138-4.1l.63-1.848c.406-1.19.756-2.268,1.106-3.5h.056c.364,1.232.7,2.31,1.12,3.5L15.666-4.1ZM17.024,0h.9L14.35-10.206h-.868L9.912,0h.84l1.162-3.43H15.89ZM18.83,2.7a12.862,12.862,0,0,0,2.044-7.014A12.91,12.91,0,0,0,18.83-11.34l-.5.266a12.909,12.909,0,0,1,1.848,6.762A12.873,12.873,0,0,1,18.326,2.45Z" transform="translate(479.764 -160.103)"/>
  </g>
  <g id="그룹_7675" data-name="그룹 7675" class="cls-7" transform="translate(0 266.84)">
    <g id="그룹_7674" data-name="그룹 7674" transform="translate(596.649 -131.867)">
      <path id="패스_8026" data-name="패스 8026" class="cls-9" d="M0,0A47.624,47.624,0,0,0,47.625-47.625,47.624,47.624,0,0,0,0-95.251,47.624,47.624,0,0,0-47.625-47.625,47.624,47.624,0,0,0,0,0"/>
    </g>
  </g>
  <g id="그룹-6" data-name="그룹" transform="translate(0 266.84)">
    <path id="패스_8890" data-name="패스 8890" class="cls-4" d="M1.68-4.564A5.218,5.218,0,0,0,4.956-7.616,5.282,5.282,0,0,0,8.26-4.7l.35-.588c-1.75-.546-3.29-1.96-3.29-3.752v-.07H8.414V-9.73H5.32v-1.638H4.578V-9.73H1.568v.616h3.01v.07A4.355,4.355,0,0,1,1.316-5.152ZM5.32-5H4.578v2.562c-1.344.042-2.618.042-3.71.042l.126.658a45.583,45.583,0,0,0,8.2-.532l-.056-.56a34.3,34.3,0,0,1-3.822.35Zm4.7-6.454V.994h.742V-11.452ZM14.448-6.5c1.834-.252,3.962-1.162,4.634-2.632.686,1.47,2.828,2.38,4.648,2.632L24-7.1c-1.932-.238-4.466-1.344-4.466-3.01v-.126h4.158v-.616H14.5v.616h4.158v.126c0,1.666-2.548,2.772-4.494,3.01ZM19.1.336c-2.156,0-3.5-.56-3.5-1.512,0-.924,1.344-1.5,3.5-1.5,2.128,0,3.472.574,3.472,1.5C22.568-.224,21.224.336,19.1.336Zm0-3.612c-2.66,0-4.242.77-4.242,2.1C14.854.182,16.436.938,19.1.938c2.632,0,4.214-.756,4.214-2.114C23.31-2.506,21.728-3.276,19.1-3.276Zm.35-1.848V-7.07H18.7v1.946h-5.25v.63H24.7v-.63Zm10.528.966c1.652-.378,3.934-1.68,4.69-3.528.77,1.834,3.066,3.122,4.732,3.5l.322-.6C37.94-5.1,35.042-6.818,35.042-8.96v-.616h4.326v-.63H29.96v.63h4.326v.616c0,2.142-2.884,3.892-4.648,4.214Zm5.068,2.814V-4.522H34.3v3.178H29.036v.63h11.27v-.63ZM49.28-6.034a35.674,35.674,0,0,1-5.978.42h-.224V-7.672h4.83v-3.15h-5.6v.63H47.18v1.918H42.35v3.29H43.3a36.676,36.676,0,0,0,6.062-.42ZM51.086.154h-6.44v-1.82h6.44Zm0-2.436h-6.44V-4h-.728V.784h7.9V-4h-.728Zm-.014-9.156V-4.69h.742v-6.748Zm6.776,8.792A3.227,3.227,0,0,1,59.416-5a15.239,15.239,0,0,0,2.87,3.472A3.227,3.227,0,0,1,60.088-.5,2.131,2.131,0,0,1,57.848-2.646Zm1.3-5.46a1.47,1.47,0,0,1,1.4-1.638c.8,0,1.092.616,1.092,1.274,0,1.022-.924,1.722-1.946,2.45A5.142,5.142,0,0,1,59.15-8.106ZM65.3-.518a7.392,7.392,0,0,1-1.96-1.12,11.451,11.451,0,0,0,1.806-3.738h-.77A9.646,9.646,0,0,1,62.79-2.1,13.442,13.442,0,0,1,60-5.446c1.148-.868,2.338-1.736,2.338-3.066a1.706,1.706,0,0,0-1.764-1.876,2.153,2.153,0,0,0-2.17,2.3,5.931,5.931,0,0,0,.686,2.506c-1.064.77-2.072,1.638-2.072,2.982A2.783,2.783,0,0,0,60,.182a3.934,3.934,0,0,0,2.828-1.246A7.217,7.217,0,0,0,65.044.182Z" transform="translate(563.084 -183.099)"/>
    <path id="패스_8891" data-name="패스 8891" class="cls-4" d="M4.662-9.534H8.12v4.4H4.662Zm2.1,8.246v-3.22h4.172v-.63H8.862v-4.4h2.072v-.63H1.848v.63H3.934v4.4H1.862v.63H6.02v3.22H.784v.63h11.3v-.63Zm13.79-3.934a4.325,4.325,0,0,1-3.108-3.794v-.84h2.94v-.616H13.762v.616h2.954V-9A4.628,4.628,0,0,1,13.5-4.886l.392.588a5.432,5.432,0,0,0,3.22-3.248,5.078,5.078,0,0,0,3.08,2.912ZM19.124.336c-1.988,0-3.276-.616-3.276-1.61s1.288-1.61,3.276-1.61,3.29.616,3.29,1.61S21.126.336,19.124.336Zm0-3.822c-2.492,0-4,.8-4,2.212s1.512,2.212,4,2.212,4.018-.8,4.018-2.212S21.616-3.486,19.124-3.486Zm3.92-4.634v-3.332H22.3v7.56h.742V-7.476H24.99V-8.12Z" transform="translate(583.874 -161.105)"/>
  </g>
  <g id="그룹_7682" data-name="그룹 7682" class="cls-7" transform="translate(0 266.84)">
    <g id="그룹_7676" data-name="그룹 7676" transform="translate(611.962 -110.954)">
      <path id="패스_8028" data-name="패스 8028" class="cls-11" d="M0,0C34.521-1.483,62.152-30.122,62.868-65.5"/>
    </g>
    <g id="그룹_7677" data-name="그룹 7677" transform="translate(674.787 -180.681)">
      <path id="패스_8029" data-name="패스 8029" class="cls-11" d="M0,0C-1.428-35.206-29.52-63.4-64.233-64.141"/>
    </g>
    <g id="그룹_7678" data-name="그룹 7678" transform="translate(609.146 -110.894)">
      <path id="패스_8030" data-name="패스 8030" class="cls-12" d="M0,0H0M65.7-66.972h0M0-133.942H0"/>
    </g>
    <g id="그룹_7679" data-name="그룹 7679" transform="translate(246.258 -110.954)">
      <path id="패스_8031" data-name="패스 8031" class="cls-11" d="M0,0C-34.521-1.483-62.152-30.122-62.868-65.5"/>
    </g>
    <g id="그룹_7680" data-name="그룹 7680" transform="translate(183.432 -180.681)">
      <path id="패스_8032" data-name="패스 8032" class="cls-11" d="M0,0C1.428-35.206,29.52-63.4,64.233-64.141"/>
    </g>
    <g id="그룹_7681" data-name="그룹 7681" transform="translate(249.074 -110.894)">
      <path id="패스_8033" data-name="패스 8033" class="cls-12" d="M0,0H0M-65.7-66.972h0M0-133.942H0"/>
    </g>
  </g>
  <g id="그룹_7683" data-name="그룹 7683" transform="translate(603.34 21.994)">
    <path id="패스_8035" data-name="패스 8035" class="cls-13" d="M0,0H-349.888"/>
  </g>
  <g id="그룹_7684" data-name="그룹 7684" transform="translate(606.196 21.994)">
    <path id="패스_8036" data-name="패스 8036" class="cls-12" d="M0,0H0M-354.173,0h0"/>
  </g>
  <path id="패스_8037" data-name="패스 8037" class="cls-14" d="M386.036-238.72h72.795v-13.2H386.036Z" transform="translate(0 266.84)"/>
  <text id="RC통합물류" class="cls-15" transform="translate(386.036 28.12)"><tspan x="0" y="0">RC</tspan><tspan y="0">통합물류</tspan></text>
  <g id="그룹_7685" data-name="그룹 7685" transform="translate(167.166 83.682)">
    <path id="패스_8038" data-name="패스 8038" class="cls-16" d="M0,0,4.308,4.4,0,8.8"/>
  </g>
  <g id="그룹_7686" data-name="그룹 7686" transform="translate(247.186 152.023)">
    <path id="패스_8039" data-name="패스 8039" class="cls-16" d="M0,0,4.308,4.4,0,8.8"/>
  </g>
  <g id="그룹_7687" data-name="그룹 7687" transform="translate(315.431 83.682)">
    <path id="패스_8040" data-name="패스 8040" class="cls-16" d="M0,0,4.308,4.4,0,8.8"/>
  </g>
  <g id="그룹_7688" data-name="그룹 7688" transform="translate(426.789 83.682)">
    <path id="패스_8041" data-name="패스 8041" class="cls-16" d="M0,0,4.308,4.4,0,8.8"/>
  </g>
  <g id="그룹_7689" data-name="그룹 7689" transform="translate(538.146 83.682)">
    <path id="패스_8042" data-name="패스 8042" class="cls-16" d="M0,0,4.308,4.4,0,8.8"/>
  </g>
  <g id="그룹_7690" data-name="그룹 7690" transform="translate(693.784 84.182)">
    <path id="패스_8043" data-name="패스 8043" class="cls-16" d="M0,0,4.308,4.4,0,8.8"/>
  </g>
  <path id="패스_8044" data-name="패스 8044" class="cls-17" d="M144.687-130.855h64.389v-36.2H144.687Z" transform="translate(0 266.84)"/>
  <g id="그룹-7" data-name="그룹" transform="translate(0 266.84)">
    <path id="패스_8879" data-name="패스 8879" class="cls-4" d="M3.6-2.576c-1.148,0-1.932-1.456-1.932-3.542S2.45-9.66,3.6-9.66,5.53-8.19,5.53-6.118,4.76-2.576,3.6-2.576Zm4.55-3.892H6.23c-.1-2.366-1.106-3.864-2.632-3.864C2.016-10.332.98-8.694.98-6.118S2.016-1.9,3.6-1.9c1.54,0,2.548-1.512,2.632-3.934H8.148V.308h.714V-11.158H8.148Zm2.436-5V.98H11.3V-11.466ZM16.73-2.548c-1.372,0-2.324-1.512-2.324-3.626s.952-3.612,2.324-3.612S19.054-8.3,19.054-6.174,18.1-2.548,16.73-2.548Zm6.118-8.9v4.886H19.74c-.126-2.366-1.33-3.878-3.01-3.878-1.778,0-3.024,1.68-3.024,4.27S14.952-1.9,16.73-1.9c1.722,0,2.94-1.568,3.024-4.046h3.094V.98h.742V-11.452ZM33.824-7.616h2v3.08h.714v-6.916h-.714v3.206h-2v-2.968H33.11V-4.62h.714ZM26.88-10.64v.616h4.046a6.03,6.03,0,0,1-.35,1.582L26.25-8.12l.154.658L30.3-7.868a6.994,6.994,0,0,1-3.906,3.01l.364.588c3.332-1.288,4.928-3.528,4.928-6.37ZM35.826.168H29.3V-1.694h6.524Zm0-4.13V-2.31H29.3V-3.962H28.56V.784h7.994V-3.962Z" transform="translate(157.771 -154.735)"/>
    <text id="_19" data-name=" " class="cls-3" transform="translate(195.991 -154.735)"><tspan x="0" y="0"> </tspan></text>
    <text id="_20" data-name="" class="cls-10" transform="translate(199.491 -154.735)"><tspan x="0" y="0"></tspan></text>
    <path id="패스_8880" data-name="패스 8880" class="cls-4" d="M4.662-9.534H8.12v4.4H4.662Zm2.1,8.246v-3.22h4.172v-.63H8.862v-4.4h2.072v-.63H1.848v.63H3.934v4.4H1.862v.63H6.02v3.22H.784v.63h11.3v-.63Zm13.79-3.934a4.325,4.325,0,0,1-3.108-3.794v-.84h2.94v-.616H13.762v.616h2.954V-9A4.628,4.628,0,0,1,13.5-4.886l.392.588a5.432,5.432,0,0,0,3.22-3.248,5.078,5.078,0,0,0,3.08,2.912ZM19.124.336c-1.988,0-3.276-.616-3.276-1.61s1.288-1.61,3.276-1.61,3.29.616,3.29,1.61S21.126.336,19.124.336Zm0-3.822c-2.492,0-4,.8-4,2.212s1.512,2.212,4,2.212,4.018-.8,4.018-2.212S21.616-3.486,19.124-3.486Zm3.92-4.634v-3.332H22.3v7.56h.742V-7.476H24.99V-8.12Z" transform="translate(164.113 -132.741)"/>
  </g>
  <path id="패스_8045" data-name="패스 8045" class="cls-17" d="M643.765-138.615h64.389v-28.44H643.765Z" transform="translate(0 266.84)"/>
  <path id="패스_8892" data-name="패스 8892" class="cls-4" d="M1.722-6.5c1.89-.2,3.976-.9,4.69-2.254.714,1.358,2.8,2.058,4.69,2.254l.238-.588C9.31-7.266,6.888-8.106,6.8-9.7H10.85v-.6H6.79v-1.274H6.048V-10.3H2v.6H6.02c-.084,1.6-2.506,2.436-4.536,2.618Zm10.3,1.316v-.6H.8v.6H6.034v1.372H2.2v.574H9.814v1.358H2.226V.8h8.722V.2H2.954V-1.3h7.588V-3.808H6.776V-5.18Zm5.138,2.6A2.147,2.147,0,0,1,14.91-4.732a2.138,2.138,0,0,1,2.254-2.156,2.147,2.147,0,0,1,2.254,2.156A2.155,2.155,0,0,1,17.164-2.576Zm0-4.956a2.771,2.771,0,0,0-2.954,2.8,2.752,2.752,0,0,0,2.954,2.786,2.752,2.752,0,0,0,2.954-2.786A2.771,2.771,0,0,0,17.164-7.532Zm.35-3.808h-.742v1.946H13.384v.63h7.392v-.63H17.514ZM25.1-6.188H22.918v-5.278h-.742V.966h.742V-5.558H25.1Z" transform="translate(663.185 112.105)"/>
  <g id="그룹_7691" data-name="그룹 7691" transform="translate(373.017 144.986)">
    <path id="패스_8046" data-name="패스 8046" class="cls-18" d="M0,0V37.429"/>
  </g>
  <g id="그룹_7692" data-name="그룹 7692" transform="translate(486.245 144.986)">
    <path id="패스_8047" data-name="패스 8047" class="cls-18" d="M0,0V37.429"/>
  </g>
  <g id="그룹_7693" data-name="그룹 7693" transform="translate(294.43 182.18)">
    <path id="패스_8048" data-name="패스 8048" class="cls-18" d="M0,0H124"/>
  </g>
  <g id="그룹_7694" data-name="그룹 7694" transform="translate(436.554 182.18)">
    <path id="패스_8049" data-name="패스 8049" class="cls-18" d="M0,0H106.593"/>
  </g>
  <g id="그룹_7697" data-name="그룹 7697" class="cls-7" transform="translate(0 266.84)">
    <g id="그룹_7695" data-name="그룹 7695" transform="translate(89.678 -172.347)">
      <path id="패스_8050" data-name="패스 8050" class="cls-4" d="M0,0A13.445,13.445,0,0,0,13.445-13.445,13.444,13.444,0,0,0,0-26.89,13.445,13.445,0,0,0-13.445-13.445,13.446,13.446,0,0,0,0,0"/>
    </g>
    <g id="그룹_7696" data-name="그룹 7696" transform="translate(93.912 -187.708)">
      <path id="패스_8051" data-name="패스 8051" class="cls-4" d="M0,0-2.446-4.344a2.13,2.13,0,0,0-3.736,0L-7.66-1.72M-3.9,7.813H.662A2.214,2.214,0,0,0,2.531,4.494l-1.3-2.3M-8.728.176l-2.431,4.318A2.214,2.214,0,0,0-9.29,7.813h2.777"/>
    </g>
  </g>
  <g id="그룹_7698" data-name="그룹 7698" transform="translate(88.057 76.973)">
    <path id="패스_8053" data-name="패스 8053" class="cls-4" d="M0,0-1.929.394l-.713-1.92"/>
  </g>
  <g id="그룹_7699" data-name="그룹 7699" transform="translate(86.208 85.532)">
    <path id="패스_8054" data-name="패스 8054" class="cls-4" d="M0,0,1.284,1.486-.06,3.036"/>
  </g>
  <g id="그룹_7700" data-name="그룹 7700" transform="translate(94.51 83.036)">
    <path id="패스_8055" data-name="패스 8055" class="cls-4" d="M0,0,.653-1.85l2.021.381"/>
  </g>
  <path id="패스_8056" data-name="패스 8056" class="cls-4" d="M62.864-179.873h25.4v-35.872h-25.4Z" transform="translate(0 266.84)"/>
  <g id="그룹_7701" data-name="그룹 7701" transform="translate(84.236 74.465)">
    <path id="패스_8057" data-name="패스 8057" class="cls-4" d="M0,0V-13.907H-17.348V0"/>
  </g>
  <path id="패스_8058" data-name="패스 8058" class="cls-4" d="M52.363-179.873H68.69v-22.745H52.363Z" transform="translate(0 266.84)"/>
  <g id="그룹_7702" data-name="그룹 7702" transform="translate(52.303 66.943)">
    <path id="패스_8059" data-name="패스 8059" class="cls-4" d="M0,0,1.885,1.974V16.448L0,18.421"/>
  </g>
  <g id="그룹_7703" data-name="그룹 7703" transform="translate(68.75 85.364)">
    <path id="패스_8060" data-name="패스 8060" class="cls-4" d="M0,0-1.885-1.974V-16.448L0-18.421"/>
  </g>
  <g id="그룹_7705" data-name="그룹 7705" class="cls-7" transform="translate(0 266.84)">
    <g id="그룹_7704" data-name="그룹 7704" transform="translate(60.527 -196.631)">
      <path id="패스_8061" data-name="패스 8061" class="cls-4" d="M0,0A1.5,1.5,0,0,0,1.522-1.473,1.5,1.5,0,0,0,0-2.947,1.5,1.5,0,0,0-1.522-1.473,1.5,1.5,0,0,0,0,0"/>
    </g>
  </g>
  <path id="패스_8063" data-name="패스 8063" class="cls-19" d="M60.738-182h25.4v-35.872h-25.4Z" transform="translate(0 266.84)"/>
  <g id="그룹_7706" data-name="그룹 7706" transform="translate(82.11 72.339)">
    <path id="패스_8064" data-name="패스 8064" class="cls-19" d="M0,0V-13.907H-17.348V0"/>
  </g>
  <g id="그룹_7707" data-name="그룹 7707" transform="translate(60.826 72.359)">
    <path id="패스_8065" data-name="패스 8065" class="cls-20" d="M0,0H25.222"/>
  </g>
  <g id="그룹_7708" data-name="그룹 7708" transform="translate(69.654 58.577)">
    <path id="패스_8066" data-name="패스 8066" class="cls-20" d="M0,0V5.73"/>
  </g>
  <g id="그룹_7709" data-name="그룹 7709" transform="translate(77.219 58.577)">
    <path id="패스_8067" data-name="패스 8067" class="cls-20" d="M0,0V5.73"/>
  </g>
  <path id="패스_8068" data-name="패스 8068" class="cls-19" d="M50.237-182H66.564v-22.745H50.237Z" transform="translate(0 266.84)"/>
  <g id="그룹_7710" data-name="그룹 7710" transform="translate(50.177 64.817)">
    <path id="패스_8069" data-name="패스 8069" class="cls-20" d="M0,0,1.885,1.974V16.448L0,18.421"/>
  </g>
  <g id="그룹_7711" data-name="그룹 7711" transform="translate(66.624 83.238)">
    <path id="패스_8070" data-name="패스 8070" class="cls-20" d="M0,0-1.885-1.974V-16.448L0-18.421"/>
  </g>
  <g id="그룹_7714" data-name="그룹 7714" class="cls-7" transform="translate(0 266.84)">
    <g id="그룹_7712" data-name="그룹 7712" transform="translate(58.401 -198.757)">
      <path id="패스_8071" data-name="패스 8071" class="cls-17" d="M0,0A1.5,1.5,0,0,0,1.522-1.473,1.5,1.5,0,0,0,0-2.947,1.5,1.5,0,0,0-1.522-1.473,1.5,1.5,0,0,0,0,0"/>
    </g>
    <g id="그룹_7713" data-name="그룹 7713" transform="translate(58.401 -198.757)">
      <path id="패스_8072" data-name="패스 8072" class="cls-20" d="M0,0A1.5,1.5,0,0,0,1.522-1.473,1.5,1.5,0,0,0,0-2.947,1.5,1.5,0,0,0-1.522-1.473,1.5,1.5,0,0,0,0,0Z"/>
    </g>
  </g>
  <g id="그룹_7715" data-name="그룹 7715" transform="translate(55.571 70.847)">
    <path id="패스_8074" data-name="패스 8074" class="cls-20" d="M0,0V2.518"/>
  </g>
  <g id="그룹_7716" data-name="그룹 7716" transform="translate(58.4 70.847)">
    <path id="패스_8075" data-name="패스 8075" class="cls-20" d="M0,0V2.518"/>
  </g>
  <g id="그룹_7717" data-name="그룹 7717" transform="translate(61.23 70.847)">
    <path id="패스_8076" data-name="패스 8076" class="cls-20" d="M0,0V2.518"/>
  </g>
  <g id="그룹_7718" data-name="그룹 7718" transform="translate(55.571 75.149)">
    <path id="패스_8077" data-name="패스 8077" class="cls-20" d="M0,0V2.518"/>
  </g>
  <g id="그룹_7719" data-name="그룹 7719" transform="translate(58.4 75.149)">
    <path id="패스_8078" data-name="패스 8078" class="cls-20" d="M0,0V2.518"/>
  </g>
  <g id="그룹_7720" data-name="그룹 7720" transform="translate(61.23 75.149)">
    <path id="패스_8079" data-name="패스 8079" class="cls-20" d="M0,0V2.518"/>
  </g>
  <g id="그룹_7721" data-name="그룹 7721" transform="translate(55.571 79.452)">
    <path id="패스_8080" data-name="패스 8080" class="cls-20" d="M0,0V2.518"/>
  </g>
  <g id="그룹_7722" data-name="그룹 7722" transform="translate(58.4 79.452)">
    <path id="패스_8081" data-name="패스 8081" class="cls-20" d="M0,0V2.518"/>
  </g>
  <g id="그룹_7723" data-name="그룹 7723" transform="translate(61.23 79.452)">
    <path id="패스_8082" data-name="패스 8082" class="cls-20" d="M0,0V2.518"/>
  </g>
  <g id="그룹_7727" data-name="그룹 7727" class="cls-7" transform="translate(0 266.84)">
    <g id="그룹_7724" data-name="그룹 7724" transform="translate(88.26 -173.815)">
      <path id="패스_8083" data-name="패스 8083" class="cls-17" d="M0,0A13.4,13.4,0,0,0,13.4-13.4,13.4,13.4,0,0,0,0-26.79,13.4,13.4,0,0,0-13.4-13.4,13.4,13.4,0,0,0,0,0"/>
    </g>
    <g id="그룹_7725" data-name="그룹 7725" transform="translate(88.26 -173.815)">
      <path id="패스_8084" data-name="패스 8084" class="cls-20" d="M0,0A13.4,13.4,0,0,0,13.4-13.4,13.4,13.4,0,0,0,0-26.79,13.4,13.4,0,0,0-13.4-13.4,13.4,13.4,0,0,0,0,0Z"/>
    </g>
    <g id="그룹_7726" data-name="그룹 7726" transform="translate(92.465 -189.117)">
      <path id="패스_8085" data-name="패스 8085" class="cls-19" d="M0,0-2.429-4.311a2.116,2.116,0,0,0-3.71,0l-1.467,2.6m3.733,9.461H.658A2.2,2.2,0,0,0,2.513,4.46L1.225,2.174m-9.891-2L-11.081,4.46A2.2,2.2,0,0,0-9.225,7.754h2.758"/>
    </g>
  </g>
  <g id="그룹_7728" data-name="그룹 7728" transform="translate(86.6 75.584)">
    <path id="패스_8087" data-name="패스 8087" class="cls-20" d="M0,0-1.866.323-2.607-1.5"/>
  </g>
  <g id="그룹_7729" data-name="그룹 7729" transform="translate(84.834 84.136)">
    <path id="패스_8088" data-name="패스 8088" class="cls-20" d="M0,0,1.191,1.466-.055,2.994"/>
  </g>
  <g id="그룹_7730" data-name="그룹 7730" transform="translate(93.09 81.57)">
    <path id="패스_8089" data-name="패스 8089" class="cls-20" d="M0,0,.681-1.759l1.954.307"/>
  </g>
  <path id="패스_8090" data-name="패스 8090" class="cls-4" d="M785.982-187.03h19.564v-27.707H785.982Z" transform="translate(0 266.84)"/>
  <g id="그룹_7731" data-name="그룹 7731" transform="translate(802.411 70.187)">
    <path id="패스_8091" data-name="패스 8091" class="cls-4" d="M0,0V-10.717H-13.294V0"/>
  </g>
  <path id="패스_8092" data-name="패스 8092" class="cls-4" d="M777.8-187.03h12.5v-17.487H777.8Z" transform="translate(0 266.84)"/>
  <g id="그룹_7733" data-name="그룹 7733" class="cls-7" transform="translate(0 266.84)">
    <g id="그룹_7732" data-name="그룹 7732" transform="translate(784.05 -200.077)">
      <path id="패스_8093" data-name="패스 8093" class="cls-4" d="M0,0A1.056,1.056,0,0,0,1.075-1.036,1.056,1.056,0,0,0,0-2.073,1.057,1.057,0,0,0-1.076-1.036,1.057,1.057,0,0,0,0,0"/>
    </g>
  </g>
  <g id="그룹_7734" data-name="그룹 7734" transform="translate(809.003 89.652)">
    <path id="패스_8095" data-name="패스 8095" class="cls-4" d="M0,0-34.66.012V-10.469H-.018Z"/>
  </g>
  <g id="그룹_7736" data-name="그룹 7736" class="cls-7" transform="translate(0 266.84)">
    <g id="그룹_7735" data-name="그룹 7735" transform="translate(793.137 -172.148)">
      <path id="패스_8096" data-name="패스 8096" class="cls-4" d="M0,0A4.581,4.581,0,0,0,4.579-4.583,4.581,4.581,0,0,0,0-9.166,4.581,4.581,0,0,0-4.579-4.583,4.581,4.581,0,0,0,0,0"/>
    </g>
  </g>
  <g id="그룹_7737" data-name="그룹 7737" transform="translate(757.229 89.664)">
    <path id="패스_8098" data-name="패스 8098" class="cls-4" d="M0,0V-9.915l5.382-8.793h12V0Z"/>
  </g>
  <g id="그룹_7739" data-name="그룹 7739" class="cls-7" transform="translate(0 266.84)">
    <g id="그룹_7738" data-name="그룹 7738" transform="translate(765.874 -172.148)">
      <path id="패스_8099" data-name="패스 8099" class="cls-4" d="M0,0A4.581,4.581,0,0,0,4.579-4.583,4.581,4.581,0,0,0,0-9.166,4.581,4.581,0,0,0-4.579-4.583,4.581,4.581,0,0,0,0,0"/>
    </g>
  </g>
  <g id="그룹_7740" data-name="그룹 7740" transform="translate(764.865 73.482)">
    <path id="패스_8101" data-name="패스 8101" class="cls-4" d="M0,0-3.628,6.3H4.014V0Z"/>
  </g>
  <path id="패스_8102" data-name="패스 8102" class="cls-19" d="M783.856-189.156H803.42v-27.707H783.856Z" transform="translate(0 266.84)"/>
  <g id="그룹_7741" data-name="그룹 7741" transform="translate(800.285 68.061)">
    <path id="패스_8103" data-name="패스 8103" class="cls-19" d="M0,0V-10.717H-13.294V0"/>
  </g>
  <g id="그룹_7742" data-name="그룹 7742" transform="translate(783.814 68.043)">
    <path id="패스_8104" data-name="패스 8104" class="cls-20" d="M0,0H19.649"/>
  </g>
  <g id="그룹_7743" data-name="그룹 7743" transform="translate(790.802 57.346)">
    <path id="패스_8105" data-name="패스 8105" class="cls-20" d="M0,0V4.461"/>
  </g>
  <g id="그룹_7744" data-name="그룹 7744" transform="translate(796.474 57.346)">
    <path id="패스_8106" data-name="패스 8106" class="cls-20" d="M0,0V4.461"/>
  </g>
  <path id="패스_8107" data-name="패스 8107" class="cls-19" d="M775.675-189.156h12.5v-17.487h-12.5Z" transform="translate(0 266.84)"/>
  <g id="그룹_7747" data-name="그룹 7747" class="cls-7" transform="translate(0 266.84)">
    <g id="그룹_7745" data-name="그룹 7745" transform="translate(781.924 -202.203)">
      <path id="패스_8108" data-name="패스 8108" class="cls-17" d="M0,0A1.056,1.056,0,0,0,1.075-1.036,1.056,1.056,0,0,0,0-2.073,1.057,1.057,0,0,0-1.076-1.036,1.057,1.057,0,0,0,0,0"/>
    </g>
    <g id="그룹_7746" data-name="그룹 7746" transform="translate(781.924 -202.203)">
      <path id="패스_8109" data-name="패스 8109" class="cls-20" d="M0,0A1.056,1.056,0,0,0,1.075-1.036,1.056,1.056,0,0,0,0-2.073,1.057,1.057,0,0,0-1.076-1.036,1.057,1.057,0,0,0,0,0Z"/>
    </g>
  </g>
  <g id="그룹_7748" data-name="그룹 7748" transform="translate(806.877 87.527)">
    <path id="패스_8111" data-name="패스 8111" class="cls-17" d="M0,0-34.66.012V-10.469H-.018Z"/>
  </g>
  <g id="그룹_7749" data-name="그룹 7749" transform="translate(806.877 87.527)">
    <path id="패스_8112" data-name="패스 8112" class="cls-21" d="M0,0-34.66.012V-10.469H-.018Z"/>
  </g>
  <g id="그룹_7752" data-name="그룹 7752" class="cls-7" transform="translate(0 266.84)">
    <g id="그룹_7750" data-name="그룹 7750" transform="translate(791.011 -174.273)">
      <path id="패스_8113" data-name="패스 8113" class="cls-17" d="M0,0A4.581,4.581,0,0,0,4.579-4.583,4.581,4.581,0,0,0,0-9.166,4.581,4.581,0,0,0-4.579-4.583,4.581,4.581,0,0,0,0,0"/>
    </g>
    <g id="그룹_7751" data-name="그룹 7751" transform="translate(791.011 -174.273)">
      <path id="패스_8114" data-name="패스 8114" class="cls-21" d="M0,0A4.581,4.581,0,0,0,4.579-4.583,4.581,4.581,0,0,0,0-9.166,4.581,4.581,0,0,0-4.579-4.583,4.581,4.581,0,0,0,0,0Z"/>
    </g>
  </g>
  <g id="그룹_7753" data-name="그룹 7753" transform="translate(755.103 87.538)">
    <path id="패스_8116" data-name="패스 8116" class="cls-17" d="M0,0V-9.915l5.382-8.793h12V0Z"/>
  </g>
  <g id="그룹_7754" data-name="그룹 7754" transform="translate(755.103 87.538)">
    <path id="패스_8117" data-name="패스 8117" class="cls-21" d="M0,0V-9.915l5.382-8.793h12V0Z"/>
  </g>
  <g id="그룹_7757" data-name="그룹 7757" class="cls-7" transform="translate(0 266.84)">
    <g id="그룹_7755" data-name="그룹 7755" transform="translate(763.748 -174.273)">
      <path id="패스_8118" data-name="패스 8118" class="cls-17" d="M0,0A4.581,4.581,0,0,0,4.579-4.583,4.581,4.581,0,0,0,0-9.166,4.581,4.581,0,0,0-4.579-4.583,4.581,4.581,0,0,0,0,0"/>
    </g>
    <g id="그룹_7756" data-name="그룹 7756" transform="translate(763.748 -174.273)">
      <path id="패스_8119" data-name="패스 8119" class="cls-21" d="M0,0A4.581,4.581,0,0,0,4.579-4.583,4.581,4.581,0,0,0,0-9.166,4.581,4.581,0,0,0-4.579-4.583,4.581,4.581,0,0,0,0,0Z"/>
    </g>
  </g>
  <g id="그룹_7758" data-name="그룹 7758" transform="translate(762.739 71.356)">
    <path id="패스_8121" data-name="패스 8121" class="cls-17" d="M0,0-3.628,6.3H4.014V0Z"/>
  </g>
  <g id="그룹_7759" data-name="그룹 7759" transform="translate(762.739 71.356)">
    <path id="패스_8122" data-name="패스 8122" class="cls-21" d="M0,0-3.628,6.3H4.014V0Z"/>
  </g>
  <g id="그룹_7760" data-name="그룹 7760" transform="translate(775.175 71.067)">
    <path id="패스_8123" data-name="패스 8123" class="cls-20" d="M0,0H13.424"/>
  </g>
</svg>
