<svg id="구성_요소_74_1" data-name="구성 요소 74 – 1" xmlns="http://www.w3.org/2000/svg" xmlns:xlink="http://www.w3.org/1999/xlink" width="91.674" height="65.516" viewBox="0 0 91.674 65.516">
  <defs>
    <style>
      .cls-1, .cls-5 {
        fill: none;
      }

      .cls-2 {
        clip-path: url(#clip-path);
      }

      .cls-3 {
        fill: #1e2323;
      }

      .cls-4, .cls-7 {
        fill: #fff;
      }

      .cls-5, .cls-7 {
        stroke: #1e2323;
      }

      .cls-6 {
        clip-path: url(#clip-path-3);
      }
    </style>
    <clipPath id="clip-path">
      <path id="패스_7964" data-name="패스 7964" class="cls-1" d="M0,0H91.674V-65.516H0Z"/>
    </clipPath>
    <clipPath id="clip-path-3">
      <path id="패스_7974" data-name="패스 7974" class="cls-1" d="M28.492-19.714A17.769,17.769,0,0,0,46.262-1.945h0A17.769,17.769,0,0,0,64.031-19.714h0A17.769,17.769,0,0,0,46.262-37.482h0a17.768,17.768,0,0,0-17.77,17.768"/>
    </clipPath>
  </defs>
  <g id="그룹_7618" data-name="그룹 7618" class="cls-2" transform="translate(0 65.516)">
    <g id="그룹_7608" data-name="그룹 7608" transform="translate(75.034 -49.94)">
      <path id="패스_7954" data-name="패스 7954" class="cls-3" d="M0,0C-9.19,0-16.64,7.1-16.64,15.865A15.339,15.339,0,0,0-12.4,26.356l-1.219,7.391,7.222-3.24A17.269,17.269,0,0,0,0,31.729c9.189,0,16.64-7.1,16.64-15.864S9.189,0,0,0"/>
    </g>
    <g id="그룹_7609" data-name="그룹 7609" transform="translate(52.281 -38.123)">
      <path id="패스_7955" data-name="패스 7955" class="cls-3" d="M0,0A24.689,24.689,0,0,1-24.689,24.689,24.689,24.689,0,0,1-49.378,0,24.688,24.688,0,0,1-24.689-24.689,24.689,24.689,0,0,1,0,0"/>
    </g>
    <g id="그룹_7610" data-name="그룹 7610" transform="translate(41.463 -38.123)">
      <path id="패스_7956" data-name="패스 7956" class="cls-3" d="M0,0C0,13.635-6.21,24.689-13.871,24.689S-27.742,13.635-27.742,0s6.21-24.689,13.871-24.689S0-13.636,0,0"/>
    </g>
    <g id="그룹_7611" data-name="그룹 7611" transform="translate(48.535 0)">
      <path id="패스_7957" data-name="패스 7957" class="cls-3" d="M0,0A17.641,17.641,0,0,0,17.641-17.64,17.641,17.641,0,0,0,0-35.28,17.641,17.641,0,0,0-17.641-17.64,17.641,17.641,0,0,0,0,0"/>
    </g>
    <g id="그룹_7612" data-name="그룹 7612" transform="translate(50.136 -40.197)">
      <path id="패스_7958" data-name="패스 7958" class="cls-4" d="M0,0A24.817,24.817,0,0,1-24.818,24.818,24.817,24.817,0,0,1-49.636,0,24.817,24.817,0,0,1-24.818-24.818,24.817,24.817,0,0,1,0,0"/>
    </g>
    <g id="그룹_7613" data-name="그룹 7613" transform="translate(50.136 -40.197)">
      <path id="패스_7959" data-name="패스 7959" class="cls-5" d="M0,0A24.817,24.817,0,0,1-24.818,24.818,24.817,24.817,0,0,1-49.636,0,24.817,24.817,0,0,1-24.818-24.818,24.817,24.817,0,0,1,0,0Z"/>
    </g>
    <g id="그룹_7614" data-name="그룹 7614" transform="translate(39.318 -40.197)">
      <path id="패스_7960" data-name="패스 7960" class="cls-4" d="M0,0C0,13.707-6.268,24.818-14,24.818S-28,13.707-28,0s6.268-24.818,14-24.818S0-13.707,0,0"/>
    </g>
    <g id="그룹_7615" data-name="그룹 7615" transform="translate(39.318 -40.197)">
      <path id="패스_7961" data-name="패스 7961" class="cls-5" d="M0,0C0,13.707-6.268,24.818-14,24.818S-28,13.707-28,0s6.268-24.818,14-24.818S0-13.707,0,0Z"/>
    </g>
    <g id="그룹_7616" data-name="그룹 7616" transform="translate(25.333 -65.405)">
      <path id="패스_7962" data-name="패스 7962" class="cls-5" d="M0,0V50"/>
    </g>
    <g id="그룹_7617" data-name="그룹 7617" transform="translate(50.288 -40.183)">
      <path id="패스_7963" data-name="패스 7963" class="cls-5" d="M0,0H-50"/>
    </g>
  </g>
  <g id="그룹_7619" data-name="그룹 7619" transform="translate(46.288 12.577)">
    <path id="패스_7965" data-name="패스 7965" class="cls-5" d="M0,0H-42"/>
  </g>
  <g id="그룹_7620" data-name="그룹 7620" transform="translate(45.972 38.089)">
    <path id="패스_7966" data-name="패스 7966" class="cls-5" d="M0,0H-41.683"/>
  </g>
  <g id="그룹_7622" data-name="그룹 7622" class="cls-2" transform="translate(0 65.516)">
    <g id="그룹_7621" data-name="그룹 7621" transform="translate(46.262 -1.945)">
      <path id="패스_7967" data-name="패스 7967" class="cls-4" d="M0,0A17.769,17.769,0,0,0,17.77-17.769,17.77,17.77,0,0,0,0-35.538,17.77,17.77,0,0,0-17.77-17.769,17.769,17.769,0,0,0,0,0"/>
    </g>
  </g>
  <g id="그룹_7628" data-name="그룹 7628" class="cls-6" transform="translate(0 65.516)">
    <g id="그룹_7623" data-name="그룹 7623" transform="translate(46.262 -20.488)">
      <path id="패스_7969" data-name="패스 7969" class="cls-4" d="M0,0A4.609,4.609,0,0,1-4.625-4.594,4.611,4.611,0,0,1,0-9.188,4.611,4.611,0,0,1,4.625-4.594,4.609,4.609,0,0,1,0,0"/>
    </g>
    <g id="그룹_7624" data-name="그룹 7624" transform="translate(46.262 -20.488)">
      <path id="패스_7970" data-name="패스 7970" class="cls-5" d="M0,0A4.609,4.609,0,0,1-4.625-4.594,4.611,4.611,0,0,1,0-9.188,4.611,4.611,0,0,1,4.625-4.594,4.609,4.609,0,0,1,0,0Z"/>
    </g>
    <g id="그룹_7625" data-name="그룹 7625" transform="translate(56.963 -2.246)">
      <path id="패스_7971" data-name="패스 7971" class="cls-7" d="M0,0C-.012-2.277-.023-7.168-.023-10.938c0-5.238-6.08-4.6-6.08-4.6h-9.171s-6.1-.637-6.1,4.6c0,3.77-.012,8.661-.023,10.938"/>
    </g>
    <g id="그룹_7626" data-name="그룹 7626" transform="translate(52.49 -2.246)">
      <path id="패스_7972" data-name="패스 7972" class="cls-5" d="M0,0V-9.48"/>
    </g>
    <g id="그룹_7627" data-name="그룹 7627" transform="translate(40.103 -11.711)">
      <path id="패스_7973" data-name="패스 7973" class="cls-5" d="M0,0-.266,9.449"/>
    </g>
  </g>
  <g id="그룹_7632" data-name="그룹 7632" class="cls-2" transform="translate(0 65.516)">
    <g id="그룹_7629" data-name="그룹 7629" transform="translate(46.262 -1.945)">
      <path id="패스_7975" data-name="패스 7975" class="cls-5" d="M0,0A17.769,17.769,0,0,0,17.77-17.769,17.77,17.77,0,0,0,0-35.538,17.77,17.77,0,0,0-17.77-17.769,17.769,17.769,0,0,0,0,0Z"/>
    </g>
    <g id="그룹_7630" data-name="그룹 7630" transform="translate(74.017 -52.475)">
      <path id="패스_7976" data-name="패스 7976" class="cls-4" d="M0,0C-9.19,0-16.64,7.1-16.64,15.865A15.339,15.339,0,0,0-12.4,26.356l-1.219,7.391,7.222-3.24A17.269,17.269,0,0,0,0,31.729c9.189,0,16.64-7.1,16.64-15.864S9.189,0,0,0"/>
    </g>
    <g id="그룹_7631" data-name="그룹 7631" transform="translate(74.017 -52.475)">
      <path id="패스_7977" data-name="패스 7977" class="cls-5" d="M0,0C-9.19,0-16.64,7.1-16.64,15.865A15.339,15.339,0,0,0-12.4,26.356l-1.219,7.391,7.222-3.24A17.269,17.269,0,0,0,0,31.729c9.189,0,16.64-7.1,16.64-15.864S9.189,0,0,0Z"/>
    </g>
  </g>
  <g id="그룹_7633" data-name="그룹 7633" transform="translate(64.255 24.127)">
    <path id="패스_7979" data-name="패스 7979" class="cls-5" d="M0,0H18.358M0,7.843H7.343"/>
  </g>
</svg>
