<svg id="구성_요소_68_1" data-name="구성 요소 68 – 1" xmlns="http://www.w3.org/2000/svg" xmlns:xlink="http://www.w3.org/1999/xlink" width="54.064" height="52" viewBox="0 0 54.064 52">
  <defs>
    <style>
      .cls-1, .cls-4, .cls-6 {
        fill: none;
      }

      .cls-2 {
        clip-path: url(#clip-path);
      }

      .cls-3 {
        fill: #1e2323;
      }

      .cls-4, .cls-6 {
        stroke: #1e2323;
        stroke-linecap: round;
        stroke-linejoin: round;
      }

      .cls-4 {
        stroke-width: 0.6px;
      }

      .cls-5 {
        fill: #fff;
      }
    </style>
    <clipPath id="clip-path">
      <path id="패스_5003" data-name="패스 5003" class="cls-1" d="M0,0H54.064V-52H0Z"/>
    </clipPath>
  </defs>
  <g id="그룹_4622" data-name="그룹 4622" class="cls-2" transform="translate(0 52)">
    <g id="그룹_4618" data-name="그룹 4618" transform="translate(17.691 -16.581)">
      <path id="패스_4999" data-name="패스 4999" class="cls-3" d="M0,0-2.524,2.427a3.253,3.253,0,0,1-4.483,0,2.982,2.982,0,0,1,0-4.322l2.514-2.427.063-.061A3.269,3.269,0,0,1,0-4.322,2.982,2.982,0,0,1,0,0M8.965,8.636,6.452,11.063a3.255,3.255,0,0,1-4.483,0,2.964,2.964,0,0,1-.01-4.313,3.263,3.263,0,0,1-4.483-.01,2.972,2.972,0,0,1,0-4.313L0,0A3.254,3.254,0,0,1,4.482,0a2.984,2.984,0,0,1,0,4.323,3.253,3.253,0,0,1,4.483,0,2.954,2.954,0,0,1,0,4.313m4.713,4.092c-.073.08-.146.16-.219.23l-2.525,2.427a3.252,3.252,0,0,1-4.482,0,2.982,2.982,0,0,1,0-4.322L8.965,8.636a3.267,3.267,0,0,1,4.494,0,2.977,2.977,0,0,1,.219,4.092m15.2-14.623-.031.03a3.15,3.15,0,0,0-.346-.392Zm0,4.322a3.253,3.253,0,0,1-4.483,0,2.97,2.97,0,0,1,0,4.313,3.262,3.262,0,0,1-4.482.01,2.963,2.963,0,0,1-.011,4.313,3.254,3.254,0,0,1-4.482,0,2.982,2.982,0,0,1,0,4.322,3.253,3.253,0,0,1-4.483,0l2.525-2.427c.073-.07.146-.15.219-.23a2.977,2.977,0,0,0-.219-4.092,3.267,3.267,0,0,0-4.494,0,2.954,2.954,0,0,0,0-4.313,3.253,3.253,0,0,0-4.483,0A2.984,2.984,0,0,0,4.482,0,3.254,3.254,0,0,0,0,0,2.982,2.982,0,0,0,0-4.322a3.269,3.269,0,0,0-4.43-.061l-.063.061L-7.007-1.895-9.248-4.052a15.862,15.862,0,0,1,0-23.037,17.376,17.376,0,0,1,20.182-2.718A16.54,16.54,0,0,0,7.2-27.089L-4.012-16.3l1.488,1.445a4.355,4.355,0,0,0,5.98,0l5.98-5.757,1.5,1.434L28.5-2.257a3.15,3.15,0,0,1,.346.392c.953,1.254,1.142,3.22.031,4.292m2.241-6.479L28.875-1.895,28.5-2.257,10.934-19.176l-1.5-1.434-5.98,5.757a4.355,4.355,0,0,1-5.98,0L-4.012-16.3,7.2-27.089a16.54,16.54,0,0,1,3.739-2.718,17.375,17.375,0,0,1,20.182,2.718,15.86,15.86,0,0,1,0,23.037M1.959,6.75,4.482,4.323"/>
    </g>
    <g id="그룹_4619" data-name="그룹 4619" transform="translate(17.691 -16.581)">
      <path id="패스_5000" data-name="패스 5000" class="cls-4" d="M0,0-2.524,2.427a3.253,3.253,0,0,1-4.483,0,2.982,2.982,0,0,1,0-4.322l2.514-2.427.063-.061A3.269,3.269,0,0,1,0-4.322,2.982,2.982,0,0,1,0,0ZM8.965,8.636,6.452,11.063a3.255,3.255,0,0,1-4.483,0,2.964,2.964,0,0,1-.01-4.313,3.263,3.263,0,0,1-4.483-.01,2.972,2.972,0,0,1,0-4.313L0,0A3.254,3.254,0,0,1,4.482,0a2.984,2.984,0,0,1,0,4.323,3.253,3.253,0,0,1,4.483,0A2.954,2.954,0,0,1,8.965,8.636Zm4.713,4.092c-.073.08-.146.16-.219.23l-2.525,2.427a3.252,3.252,0,0,1-4.482,0,2.982,2.982,0,0,1,0-4.322L8.965,8.636a3.267,3.267,0,0,1,4.494,0A2.977,2.977,0,0,1,13.678,12.728Zm15.2-14.623-.031.03a3.15,3.15,0,0,0-.346-.392Zm0,4.322a3.253,3.253,0,0,1-4.483,0,2.97,2.97,0,0,1,0,4.313,3.262,3.262,0,0,1-4.482.01,2.963,2.963,0,0,1-.011,4.313,3.254,3.254,0,0,1-4.482,0,2.982,2.982,0,0,1,0,4.322,3.253,3.253,0,0,1-4.483,0l2.525-2.427c.073-.07.146-.15.219-.23a2.977,2.977,0,0,0-.219-4.092,3.267,3.267,0,0,0-4.494,0,2.954,2.954,0,0,0,0-4.313,3.253,3.253,0,0,0-4.483,0A2.984,2.984,0,0,0,4.482,0,3.254,3.254,0,0,0,0,0,2.982,2.982,0,0,0,0-4.322a3.269,3.269,0,0,0-4.43-.061l-.063.061L-7.007-1.895-9.248-4.052a15.862,15.862,0,0,1,0-23.037,17.376,17.376,0,0,1,20.182-2.718A16.54,16.54,0,0,0,7.2-27.089L-4.012-16.3l1.488,1.445a4.355,4.355,0,0,0,5.98,0l5.98-5.757,1.5,1.434L28.5-2.257a3.15,3.15,0,0,1,.346.392C29.8-.611,29.986,1.355,28.875,2.427Zm2.241-6.479L28.875-1.895,28.5-2.257,10.934-19.176l-1.5-1.434-5.98,5.757a4.355,4.355,0,0,1-5.98,0L-4.012-16.3,7.2-27.089a16.54,16.54,0,0,1,3.739-2.718,17.375,17.375,0,0,1,20.182,2.718A15.86,15.86,0,0,1,31.116-4.052ZM1.959,6.75,4.482,4.323"/>
    </g>
    <g id="그룹_4620" data-name="그룹 4620" transform="translate(14.804 -19.393)">
      <path id="패스_5001" data-name="패스 5001" class="cls-5" d="M0,0-2.542,2.445a3.272,3.272,0,0,1-4.514,0,3.008,3.008,0,0,1,0-4.355l2.531-2.445.064-.061A3.291,3.291,0,0,1,0-4.355,3.006,3.006,0,0,1,0,0M9.028,8.7,6.5,11.147a3.276,3.276,0,0,1-4.514,0A2.987,2.987,0,0,1,1.972,6.8a3.285,3.285,0,0,1-4.514-.011,3,3,0,0,1,0-4.346L0,0A3.276,3.276,0,0,1,4.514,0a3.009,3.009,0,0,1,0,4.356,3.274,3.274,0,0,1,4.514,0,2.978,2.978,0,0,1,0,4.345m4.746,4.124c-.075.08-.148.161-.222.231L11.01,15.5a3.273,3.273,0,0,1-4.513,0,3.006,3.006,0,0,1,0-4.355L9.028,8.7a3.287,3.287,0,0,1,4.524,0,3,3,0,0,1,.222,4.124M29.076-1.91l-.032.031a3.113,3.113,0,0,0-.348-.395Zm0,4.355a3.272,3.272,0,0,1-4.514,0,3,3,0,0,1,0,4.346,3.284,3.284,0,0,1-4.513.011,2.987,2.987,0,0,1-.011,4.345,3.276,3.276,0,0,1-4.514,0,3.006,3.006,0,0,1,0,4.355,3.274,3.274,0,0,1-4.514,0l2.542-2.446c.074-.07.147-.151.222-.231A3,3,0,0,0,13.552,8.7a3.287,3.287,0,0,0-4.524,0,2.978,2.978,0,0,0,0-4.345,3.274,3.274,0,0,0-4.514,0A3.009,3.009,0,0,0,4.514,0,3.276,3.276,0,0,0,0,0,3.006,3.006,0,0,0,0-4.355a3.291,3.291,0,0,0-4.461-.061l-.064.061L-7.056-1.91-9.313-4.083a15.991,15.991,0,0,1,0-23.212A17.491,17.491,0,0,1,11.01-30.034,16.668,16.668,0,0,0,7.246-27.3L-4.039-16.422l1.5,1.456a4.384,4.384,0,0,0,6.022,0l6.022-5.8,1.508,1.445L28.7-2.274a3.113,3.113,0,0,1,.348.395c.96,1.263,1.151,3.244.032,4.324m2.257-6.528L29.076-1.91l-.38-.364L11.01-19.322,9.5-20.767l-6.022,5.8a4.384,4.384,0,0,1-6.022,0l-1.5-1.456L7.246-27.3a16.668,16.668,0,0,1,3.764-2.739A17.491,17.491,0,0,1,31.333-27.3a15.989,15.989,0,0,1,0,23.212M1.972,6.8,4.514,4.356"/>
    </g>
    <g id="그룹_4621" data-name="그룹 4621" transform="translate(14.804 -19.393)">
      <path id="패스_5002" data-name="패스 5002" class="cls-6" d="M0,0-2.542,2.445a3.272,3.272,0,0,1-4.514,0,3.008,3.008,0,0,1,0-4.355l2.531-2.445.064-.061A3.291,3.291,0,0,1,0-4.355,3.006,3.006,0,0,1,0,0ZM9.028,8.7,6.5,11.147a3.276,3.276,0,0,1-4.514,0A2.987,2.987,0,0,1,1.972,6.8a3.285,3.285,0,0,1-4.514-.011,3,3,0,0,1,0-4.346L0,0A3.276,3.276,0,0,1,4.514,0a3.009,3.009,0,0,1,0,4.356,3.274,3.274,0,0,1,4.514,0A2.978,2.978,0,0,1,9.028,8.7Zm4.746,4.124c-.075.08-.148.161-.222.231L11.01,15.5a3.273,3.273,0,0,1-4.513,0,3.006,3.006,0,0,1,0-4.355L9.028,8.7a3.287,3.287,0,0,1,4.524,0A3,3,0,0,1,13.774,12.825ZM29.076-1.91l-.032.031a3.113,3.113,0,0,0-.348-.395Zm0,4.355a3.272,3.272,0,0,1-4.514,0,3,3,0,0,1,0,4.346,3.284,3.284,0,0,1-4.513.011,2.987,2.987,0,0,1-.011,4.345,3.276,3.276,0,0,1-4.514,0,3.006,3.006,0,0,1,0,4.355,3.274,3.274,0,0,1-4.514,0l2.542-2.446c.074-.07.147-.151.222-.231A3,3,0,0,0,13.552,8.7a3.287,3.287,0,0,0-4.524,0,2.978,2.978,0,0,0,0-4.345,3.274,3.274,0,0,0-4.514,0A3.009,3.009,0,0,0,4.514,0,3.276,3.276,0,0,0,0,0,3.006,3.006,0,0,0,0-4.355a3.291,3.291,0,0,0-4.461-.061l-.064.061L-7.056-1.91-9.313-4.083a15.991,15.991,0,0,1,0-23.212A17.491,17.491,0,0,1,11.01-30.034,16.668,16.668,0,0,0,7.246-27.3L-4.039-16.422l1.5,1.456a4.384,4.384,0,0,0,6.022,0l6.022-5.8,1.508,1.445L28.7-2.274a3.113,3.113,0,0,1,.348.395C30-.616,30.195,1.365,29.076,2.445Zm2.257-6.528L29.076-1.91l-.38-.364L11.01-19.322,9.5-20.767l-6.022,5.8a4.384,4.384,0,0,1-6.022,0l-1.5-1.456L7.246-27.3a16.668,16.668,0,0,1,3.764-2.739A17.491,17.491,0,0,1,31.333-27.3,15.989,15.989,0,0,1,31.333-4.083ZM1.972,6.8,4.514,4.356"/>
    </g>
  </g>
</svg>
