<svg id="구성_요소_70_1" data-name="구성 요소 70 – 1" xmlns="http://www.w3.org/2000/svg" xmlns:xlink="http://www.w3.org/1999/xlink" width="59.783" height="57.535" viewBox="0 0 59.783 57.535">
  <defs>
    <style>
      .cls-1, .cls-4 {
        fill: none;
      }

      .cls-2 {
        clip-path: url(#clip-path);
      }

      .cls-3 {
        fill: #1e2323;
      }

      .cls-4, .cls-6 {
        stroke: #1e2323;
      }

      .cls-5, .cls-6 {
        fill: #fff;
      }
    </style>
    <clipPath id="clip-path">
      <path id="패스_5087" data-name="패스 5087" class="cls-1" d="M0,0H59.783V-57.535H0Z"/>
    </clipPath>
  </defs>
  <g id="그룹_4685" data-name="그룹 4685" class="cls-2" transform="translate(0 57.535)">
    <g id="그룹_4669" data-name="그룹 4669" transform="translate(53.895 -28.08)">
      <path id="패스_5071" data-name="패스 5071" class="cls-3" d="M0,0C.007-.12.018-.237.018-.36c0-1.727-.684-3.126-1.526-3.126a1.134,1.134,0,0,0-.886.589A9.571,9.571,0,0,1-5.83-1.728L-7.353-2.18a18.794,18.794,0,0,0-4.2-10.163,14.539,14.539,0,0,1,3.4-1.547A1.568,1.568,0,0,0-6.689-14.2c.835-.858.158-2.946-1.512-4.664s-3.7-2.413-4.54-1.553a1.675,1.675,0,0,0-.3,1.506A15.242,15.242,0,0,1-14.619-15.3a18.906,18.906,0,0,0-10.2-3.912,8.775,8.775,0,0,1,1.036-5.611,1.17,1.17,0,0,0,.572-.91c0-.866-1.359-1.569-3.035-1.569s-3.035.7-3.035,1.569a1.173,1.173,0,0,0,.573.911,8.764,8.764,0,0,1,1.035,5.61A18.881,18.881,0,0,0-37.588-15.5a16.963,16.963,0,0,1-1.348-3.273,1.8,1.8,0,0,0-.327-1.618c-.9-.923-3.082-.175-4.878,1.67s-2.526,4.09-1.626,5.013a1.684,1.684,0,0,0,1.574.337,16.029,16.029,0,0,1,3.056,1.308A18.773,18.773,0,0,0-45.154-1.736,8.482,8.482,0,0,1-50.09-2.9a1.135,1.135,0,0,0-.886-.589c-.843,0-1.526,1.4-1.526,3.126s.683,3.124,1.526,3.124a1.135,1.135,0,0,0,.886-.589,8.49,8.49,0,0,1,4.936-1.16,18.765,18.765,0,0,0,4.017,10.328,16.132,16.132,0,0,1-3.058,1.308,1.679,1.679,0,0,0-1.572.336c-.9.924-.17,3.167,1.626,5.014s3.98,2.593,4.878,1.671a1.806,1.806,0,0,0,.327-1.62,17.01,17.01,0,0,1,1.347-3.272,18.89,18.89,0,0,0,9.919,3.707A8.765,8.765,0,0,1-28.7,24.1a1.171,1.171,0,0,0-.573.911c0,.866,1.359,1.569,3.035,1.569s3.035-.7,3.035-1.569a1.171,1.171,0,0,0-.574-.912,8.776,8.776,0,0,1-1.034-5.608,18.906,18.906,0,0,0,5.6-1.282A17.665,17.665,0,0,0-8.358,27.553C3.008,23.869,4.9,11.753,5.37,1.592Z"/>
    </g>
    <g id="그룹_4670" data-name="그룹 4670" transform="translate(53.895 -28.08)">
      <path id="패스_5072" data-name="패스 5072" class="cls-4" d="M0,0C.007-.12.018-.237.018-.36c0-1.727-.684-3.126-1.526-3.126a1.134,1.134,0,0,0-.886.589A9.571,9.571,0,0,1-5.83-1.728L-7.353-2.18a18.794,18.794,0,0,0-4.2-10.163,14.539,14.539,0,0,1,3.4-1.547A1.568,1.568,0,0,0-6.689-14.2c.835-.858.158-2.946-1.512-4.664s-3.7-2.413-4.54-1.553a1.675,1.675,0,0,0-.3,1.506A15.242,15.242,0,0,1-14.619-15.3a18.906,18.906,0,0,0-10.2-3.912,8.775,8.775,0,0,1,1.036-5.611,1.17,1.17,0,0,0,.572-.91c0-.866-1.359-1.569-3.035-1.569s-3.035.7-3.035,1.569a1.173,1.173,0,0,0,.573.911,8.764,8.764,0,0,1,1.035,5.61A18.881,18.881,0,0,0-37.588-15.5a16.963,16.963,0,0,1-1.348-3.273,1.8,1.8,0,0,0-.327-1.618c-.9-.923-3.082-.175-4.878,1.67s-2.526,4.09-1.626,5.013a1.684,1.684,0,0,0,1.574.337,16.029,16.029,0,0,1,3.056,1.308A18.773,18.773,0,0,0-45.154-1.736,8.482,8.482,0,0,1-50.09-2.9a1.135,1.135,0,0,0-.886-.589c-.843,0-1.526,1.4-1.526,3.126s.683,3.124,1.526,3.124a1.135,1.135,0,0,0,.886-.589,8.49,8.49,0,0,1,4.936-1.16,18.765,18.765,0,0,0,4.017,10.328,16.132,16.132,0,0,1-3.058,1.308,1.679,1.679,0,0,0-1.572.336c-.9.924-.17,3.167,1.626,5.014s3.98,2.593,4.878,1.671a1.806,1.806,0,0,0,.327-1.62,17.01,17.01,0,0,1,1.347-3.272,18.89,18.89,0,0,0,9.919,3.707A8.765,8.765,0,0,1-28.7,24.1a1.171,1.171,0,0,0-.573.911c0,.866,1.359,1.569,3.035,1.569s3.035-.7,3.035-1.569a1.171,1.171,0,0,0-.574-.912,8.776,8.776,0,0,1-1.034-5.608,18.906,18.906,0,0,0,5.6-1.282A17.665,17.665,0,0,0-8.358,27.553C3.008,23.869,4.9,11.753,5.37,1.592Z"/>
    </g>
    <g id="그룹_4671" data-name="그룹 4671" transform="translate(26.762 -11.172)">
      <path id="패스_5073" data-name="패스 5073" class="cls-5" d="M0,0A18.959,18.959,0,0,0,18.991-18.927,18.96,18.96,0,0,0,0-37.855,18.96,18.96,0,0,0-18.991-18.927,18.959,18.959,0,0,0,0,0"/>
    </g>
    <g id="그룹_4672" data-name="그룹 4672" transform="translate(26.762 -11.172)">
      <path id="패스_5074" data-name="패스 5074" class="cls-4" d="M0,0A18.959,18.959,0,0,0,18.991-18.927,18.96,18.96,0,0,0,0-37.855,18.96,18.96,0,0,0-18.991-18.927,18.959,18.959,0,0,0,0,0Z"/>
    </g>
    <g id="그룹_4673" data-name="그룹 4673" transform="translate(28.337 -48.333)">
      <path id="패스_5075" data-name="패스 5075" class="cls-6" d="M0,0A8.375,8.375,0,0,1,.909-6.216a1.174,1.174,0,0,0,.577-.914C1.486-8,.115-8.7-1.575-8.7s-3.06.7-3.06,1.573a1.176,1.176,0,0,0,.577.914A8.37,8.37,0,0,1-3.15,0"/>
    </g>
    <g id="그룹_4674" data-name="그룹 4674" transform="translate(25.185 -11.867)">
      <path id="패스_5076" data-name="패스 5076" class="cls-6" d="M0,0A8.364,8.364,0,0,1-.906,6.215a1.174,1.174,0,0,0-.577.914C-1.483,8-.113,8.7,1.577,8.7S4.637,8,4.637,7.129a1.178,1.178,0,0,0-.578-.915A8.372,8.372,0,0,1,3.152,0"/>
    </g>
    <g id="그룹_4675" data-name="그룹 4675" transform="translate(8.963 -31.723)">
      <path id="패스_5077" data-name="패스 5077" class="cls-6" d="M0,0C-2.373.8-4.788-.233-6.044-.934a1.134,1.134,0,0,0-.888-.594c-.846,0-1.531,1.41-1.531,3.151s.685,3.151,1.531,3.151a1.136,1.136,0,0,0,.888-.594c1.256-.7,3.671-1.737,6.044-.935"/>
    </g>
    <g id="그룹_4676" data-name="그룹 4676" transform="translate(44.561 -28.478)">
      <path id="패스_5078" data-name="패스 5078" class="cls-6" d="M0,0C2.374-.8,4.789.233,6.044.934a1.134,1.134,0,0,0,.888.594c.846,0,1.531-1.41,1.531-3.15S7.778-4.774,6.932-4.774a1.136,1.136,0,0,0-.888.594c-1.255.7-3.67,1.738-6.044.935"/>
    </g>
    <g id="그룹_4677" data-name="그룹 4677" transform="translate(19.548 -40.928)">
      <path id="패스_5079" data-name="패스 5079" class="cls-6" d="M0,0C-3.328-1.728-4.85-5.459-5.472-7.588A1.812,1.812,0,0,0-5.8-9.21c-.9-.924-3.089-.175-4.889,1.674s-2.531,4.1-1.629,5.024a1.684,1.684,0,0,0,1.577.338c2.072.638,5.7,2.2,7.386,5.624"/>
    </g>
    <g id="그룹_4678" data-name="그룹 4678" transform="translate(35.179 -18.073)">
      <path id="패스_5080" data-name="패스 5080" class="cls-6" d="M0,0C3.015,1.513,4.393,4.777,4.955,6.64a1.542,1.542,0,0,0,.3,1.419c.814.809,2.8.153,4.426-1.465s2.29-3.587,1.475-4.4A1.567,1.567,0,0,0,9.724,1.9C7.849,1.345,4.562-.023,3.039-3.017"/>
    </g>
    <g id="그룹_4679" data-name="그룹 4679" transform="translate(16.193 -22.721)">
      <path id="패스_5081" data-name="패스 5081" class="cls-6" d="M0,0C-1.683,3.422-5.317,4.985-7.388,5.623a1.685,1.685,0,0,0-1.575.336c-.9.927-.171,3.175,1.629,5.026s3.989,2.6,4.889,1.674a1.811,1.811,0,0,0,.328-1.623C-1.5,8.907.027,5.177,3.355,3.447"/>
    </g>
    <g id="그룹_4680" data-name="그룹 4680" transform="translate(37.983 -38.384)">
      <path id="패스_5082" data-name="패스 5082" class="cls-6" d="M0,0C1.564-3.185,4.942-4.64,6.87-5.235a1.572,1.572,0,0,0,1.47-.313c.837-.86.159-2.953-1.516-4.675s-3.712-2.419-4.551-1.558a1.687,1.687,0,0,0-.3,1.51C1.39-8.29-.026-4.818-3.124-3.21"/>
    </g>
    <g id="그룹_4681" data-name="그룹 4681" transform="translate(44.629 -32.244)">
      <path id="패스_5083" data-name="패스 5083" class="cls-5" d="M0,0-13.744,4.074C-13.406,14.357-11.26,26.261,0,30.059,11.379,26.371,13.277,14.244,13.744,4.074Z"/>
    </g>
    <g id="그룹_4682" data-name="그룹 4682" transform="translate(44.629 -32.244)">
      <path id="패스_5084" data-name="패스 5084" class="cls-4" d="M0,0-13.744,4.074C-13.406,14.357-11.26,26.261,0,30.059,11.379,26.371,13.277,14.244,13.744,4.074Z"/>
    </g>
    <g id="그룹_4683" data-name="그룹 4683" transform="translate(44.648 -27.827)">
      <path id="패스_5085" data-name="패스 5085" class="cls-5" d="M0,0-9.56,2.877C-9.325,10-7.541,18.689,0,21.23,7.624,18.762,9.236,9.924,9.56,2.877Z"/>
    </g>
    <g id="그룹_4684" data-name="그룹 4684" transform="translate(44.648 -27.827)">
      <path id="패스_5086" data-name="패스 5086" class="cls-4" d="M0,0-9.56,2.877C-9.325,10-7.541,18.689,0,21.23,7.624,18.762,9.236,9.924,9.56,2.877Z"/>
    </g>
  </g>
</svg>
