<svg id="구성_요소_71_1" data-name="구성 요소 71 – 1" xmlns="http://www.w3.org/2000/svg" xmlns:xlink="http://www.w3.org/1999/xlink" width="68.038" height="58.548" viewBox="0 0 68.038 58.548">
  <defs>
    <style>
      .cls-1, .cls-5 {
        fill: none;
      }

      .cls-2, .cls-4 {
        fill: #1e2323;
      }

      .cls-2, .cls-5, .cls-6 {
        stroke: #1e2323;
      }

      .cls-3 {
        clip-path: url(#clip-path);
      }

      .cls-6, .cls-7 {
        fill: #fff;
      }
    </style>
    <clipPath id="clip-path">
      <path id="패스_5051" data-name="패스 5051" class="cls-1" d="M0,0H68.038V-58.548H0Z"/>
    </clipPath>
  </defs>
  <path id="패스_5036" data-name="패스 5036" class="cls-2" d="M20.439-15.367H65.305V-46.2H20.439Z" transform="translate(0 58.548)"/>
  <path id="패스_5037" data-name="패스 5037" class="cls-2" d="M11.94-34.778H33.018V-55.76H11.94Z" transform="translate(0 58.548)"/>
  <path id="패스_5038" data-name="패스 5038" class="cls-2" d="M2.407-20.53H9.195v-6.755H2.407Z" transform="translate(0 58.548)"/>
  <g id="그룹_4653" data-name="그룹 4653" class="cls-3" transform="translate(0 58.548)">
    <g id="그룹_4641" data-name="그룹 4641" transform="translate(47.581 -30.062)">
      <path id="패스_5039" data-name="패스 5039" class="cls-4" d="M0,0A5.967,5.967,0,0,0,5.98,5.953,5.967,5.967,0,0,0,11.961,0,5.967,5.967,0,0,0,5.98-5.953,5.967,5.967,0,0,0,0,0"/>
    </g>
    <g id="그룹_4642" data-name="그룹 4642" transform="translate(47.581 -30.062)">
      <path id="패스_5040" data-name="패스 5040" class="cls-5" d="M0,0A5.967,5.967,0,0,0,5.98,5.953,5.967,5.967,0,0,0,11.961,0,5.967,5.967,0,0,0,5.98-5.953,5.967,5.967,0,0,0,0,0Z"/>
    </g>
    <g id="그룹_4643" data-name="그룹 4643" transform="translate(51.505 -20.845)">
      <path id="패스_5041" data-name="패스 5041" class="cls-4" d="M0,0H-1A10.848,10.848,0,0,0-11.92,10.771v9.574H16.033V10.771A10.848,10.848,0,0,0,5.11,0L4.089-.015Z"/>
    </g>
    <g id="그룹_4644" data-name="그룹 4644" transform="translate(51.505 -20.845)">
      <path id="패스_5042" data-name="패스 5042" class="cls-5" d="M0,0H-1A10.848,10.848,0,0,0-11.92,10.771v9.574H16.033V10.771A10.848,10.848,0,0,0,5.11,0L4.089-.015Z"/>
    </g>
    <g id="그룹_4645" data-name="그룹 4645" transform="translate(28.874 -19.228)">
      <path id="패스_5043" data-name="패스 5043" class="cls-4" d="M0,0A6.735,6.735,0,0,0-.408-1.444L.74-2.09-.221-3.778-1.4-3.115A6.9,6.9,0,0,0-2.539-4.222l.69-1.189-1.69-.969-.7,1.2a6.93,6.93,0,0,0-1.469-.385V-6.958H-7.657V-5.57a6.856,6.856,0,0,0-1.477.378l-.69-1.188-1.69.969.677,1.167a6.843,6.843,0,0,0-1.156,1.113l-1.15-.647L-14.1-2.09l1.113.626A6.72,6.72,0,0,0-13.406,0h-1.251V1.94h1.208a6.809,6.809,0,0,0,.368,1.514l-1.023.575.961,1.689.994-.559a6.86,6.86,0,0,0,1.2,1.223l-.562.968,1.69.97.552-.951A6.811,6.811,0,0,0-7.657,7.8V8.9h1.951V7.8A6.9,6.9,0,0,0-4.1,7.354l.561.966,1.69-.97-.576-.991A6.872,6.872,0,0,0-1.244,5.142l1.023.576L.74,4.029-.318,3.434A6.807,6.807,0,0,0,.043,1.94H1.294V0Z"/>
    </g>
    <g id="그룹_4646" data-name="그룹 4646" transform="translate(28.874 -19.228)">
      <path id="패스_5044" data-name="패스 5044" class="cls-5" d="M0,0A6.735,6.735,0,0,0-.408-1.444L.74-2.09-.221-3.778-1.4-3.115A6.9,6.9,0,0,0-2.539-4.222l.69-1.189-1.69-.969-.7,1.2a6.93,6.93,0,0,0-1.469-.385V-6.958H-7.657V-5.57a6.856,6.856,0,0,0-1.477.378l-.69-1.188-1.69.969.677,1.167a6.843,6.843,0,0,0-1.156,1.113l-1.15-.647L-14.1-2.09l1.113.626A6.72,6.72,0,0,0-13.406,0h-1.251V1.94h1.208a6.809,6.809,0,0,0,.368,1.514l-1.023.575.961,1.689.994-.559a6.86,6.86,0,0,0,1.2,1.223l-.562.968,1.69.97.552-.951A6.811,6.811,0,0,0-7.657,7.8V8.9h1.951V7.8A6.9,6.9,0,0,0-4.1,7.354l.561.966,1.69-.97-.576-.991A6.872,6.872,0,0,0-1.244,5.142l1.023.576L.74,4.029-.318,3.434A6.807,6.807,0,0,0,.043,1.94H1.294V0Z"/>
    </g>
    <g id="그룹_4647" data-name="그룹 4647" transform="translate(22.17 -14.145)">
      <path id="패스_5045" data-name="패스 5045" class="cls-4" d="M0,0A3.971,3.971,0,0,0,3.984-3.959,3.971,3.971,0,0,0,0-7.917,3.971,3.971,0,0,0-3.984-3.959,3.971,3.971,0,0,0,0,0"/>
    </g>
    <g id="그룹_4648" data-name="그룹 4648" transform="translate(22.17 -14.145)">
      <path id="패스_5046" data-name="패스 5046" class="cls-5" d="M0,0A3.971,3.971,0,0,0,3.984-3.959,3.971,3.971,0,0,0,0-7.917,3.971,3.971,0,0,0-3.984-3.959,3.971,3.971,0,0,0,0,0Z"/>
    </g>
    <g id="그룹_4649" data-name="그룹 4649" transform="translate(20.439 -49.729)">
      <path id="패스_5047" data-name="패스 5047" class="cls-4" d="M0,0A1.748,1.748,0,0,0,1.753,1.743,1.748,1.748,0,0,0,3.506,0,1.753,1.753,0,0,0,0,0"/>
    </g>
    <g id="그룹_4650" data-name="그룹 4650" transform="translate(20.439 -49.729)">
      <path id="패스_5048" data-name="패스 5048" class="cls-5" d="M0,0A1.748,1.748,0,0,0,1.753,1.743,1.748,1.748,0,0,0,3.506,0,1.753,1.753,0,0,0,0,0Z"/>
    </g>
    <g id="그룹_4651" data-name="그룹 4651" transform="translate(21.525 -46.199)">
      <path id="패스_5049" data-name="패스 5049" class="cls-4" d="M0,0H-.323A3.473,3.473,0,0,0-3.866,3.4V6.421H5.2V3.4A3.473,3.473,0,0,0,1.657,0L1.326,0Z"/>
    </g>
    <g id="그룹_4652" data-name="그룹 4652" transform="translate(21.525 -46.199)">
      <path id="패스_5050" data-name="패스 5050" class="cls-5" d="M0,0H-.323A3.473,3.473,0,0,0-3.866,3.4V6.421H5.2V3.4A3.473,3.473,0,0,0,1.657,0L1.326,0Z"/>
    </g>
  </g>
  <path id="패스_5052" data-name="패스 5052" class="cls-6" d="M18.533-17.655H63.4V-48.491H18.533Z" transform="translate(0 58.548)"/>
  <path id="패스_5053" data-name="패스 5053" class="cls-7" d="M10.033-37.066H31.11V-58.049H10.033Z" transform="translate(0 58.548)"/>
  <g id="그룹_4654" data-name="그룹 4654" class="cls-3" transform="translate(0 58.548)">
    <path id="패스_5054" data-name="패스 5054" class="cls-5" d="M10.033-37.066H31.111V-58.048H10.033Z"/>
  </g>
  <path id="패스_5056" data-name="패스 5056" class="cls-7" d="M.5-22.818H7.288v-6.755H.5Z" transform="translate(0 58.548)"/>
  <g id="그룹_4667" data-name="그룹 4667" class="cls-3" transform="translate(0 58.548)">
    <path id="패스_5057" data-name="패스 5057" class="cls-5" d="M.5-22.817H7.288v-6.755H.5Z"/>
    <g id="그룹_4655" data-name="그룹 4655" transform="translate(45.675 -32.35)">
      <path id="패스_5058" data-name="패스 5058" class="cls-7" d="M0,0A5.967,5.967,0,0,0,5.98,5.953,5.967,5.967,0,0,0,11.961,0,5.967,5.967,0,0,0,5.98-5.953,5.967,5.967,0,0,0,0,0"/>
    </g>
    <g id="그룹_4656" data-name="그룹 4656" transform="translate(45.675 -32.35)">
      <path id="패스_5059" data-name="패스 5059" class="cls-5" d="M0,0A5.967,5.967,0,0,0,5.98,5.953,5.967,5.967,0,0,0,11.961,0,5.967,5.967,0,0,0,5.98-5.953,5.967,5.967,0,0,0,0,0Z"/>
    </g>
    <g id="그룹_4657" data-name="그룹 4657" transform="translate(49.599 -23.132)">
      <path id="패스_5060" data-name="패스 5060" class="cls-7" d="M0,0H-1A10.848,10.848,0,0,0-11.92,10.771v9.574H16.033V10.771A10.848,10.848,0,0,0,5.11,0L4.089-.015Z"/>
    </g>
    <g id="그룹_4658" data-name="그룹 4658" transform="translate(49.599 -23.132)">
      <path id="패스_5061" data-name="패스 5061" class="cls-5" d="M0,0H-1A10.848,10.848,0,0,0-11.92,10.771v9.574H16.033V10.771A10.848,10.848,0,0,0,5.11,0L4.089-.015Z"/>
    </g>
    <g id="그룹_4659" data-name="그룹 4659" transform="translate(26.967 -21.515)">
      <path id="패스_5062" data-name="패스 5062" class="cls-7" d="M0,0A6.735,6.735,0,0,0-.408-1.444L.74-2.09-.221-3.778-1.4-3.115A6.9,6.9,0,0,0-2.539-4.222l.69-1.189-1.69-.969-.7,1.2a6.93,6.93,0,0,0-1.469-.385V-6.958H-7.657V-5.57a6.856,6.856,0,0,0-1.477.378l-.69-1.188-1.69.969.677,1.167a6.843,6.843,0,0,0-1.156,1.113l-1.15-.647L-14.1-2.09l1.113.626A6.72,6.72,0,0,0-13.406,0h-1.251V1.94h1.208a6.809,6.809,0,0,0,.368,1.514l-1.023.575.961,1.689.994-.559a6.86,6.86,0,0,0,1.2,1.223l-.562.968,1.69.97.552-.951A6.811,6.811,0,0,0-7.657,7.8V8.9h1.951V7.8A6.9,6.9,0,0,0-4.1,7.354l.561.966,1.69-.97-.576-.991A6.838,6.838,0,0,0-1.244,5.142l1.023.576L.74,4.029-.318,3.434A6.807,6.807,0,0,0,.043,1.94H1.294V0Z"/>
    </g>
    <g id="그룹_4660" data-name="그룹 4660" transform="translate(26.967 -21.515)">
      <path id="패스_5063" data-name="패스 5063" class="cls-5" d="M0,0A6.735,6.735,0,0,0-.408-1.444L.74-2.09-.221-3.778-1.4-3.115A6.9,6.9,0,0,0-2.539-4.222l.69-1.189-1.69-.969-.7,1.2a6.93,6.93,0,0,0-1.469-.385V-6.958H-7.657V-5.57a6.856,6.856,0,0,0-1.477.378l-.69-1.188-1.69.969.677,1.167a6.843,6.843,0,0,0-1.156,1.113l-1.15-.647L-14.1-2.09l1.113.626A6.72,6.72,0,0,0-13.406,0h-1.251V1.94h1.208a6.809,6.809,0,0,0,.368,1.514l-1.023.575.961,1.689.994-.559a6.86,6.86,0,0,0,1.2,1.223l-.562.968,1.69.97.552-.951A6.811,6.811,0,0,0-7.657,7.8V8.9h1.951V7.8A6.9,6.9,0,0,0-4.1,7.354l.561.966,1.69-.97-.576-.991A6.838,6.838,0,0,0-1.244,5.142l1.023.576L.74,4.029-.318,3.434A6.807,6.807,0,0,0,.043,1.94H1.294V0Z"/>
    </g>
    <g id="그룹_4661" data-name="그룹 4661" transform="translate(20.264 -16.433)">
      <path id="패스_5064" data-name="패스 5064" class="cls-7" d="M0,0A3.971,3.971,0,0,0,3.984-3.959,3.971,3.971,0,0,0,0-7.917,3.971,3.971,0,0,0-3.984-3.959,3.971,3.971,0,0,0,0,0"/>
    </g>
    <g id="그룹_4662" data-name="그룹 4662" transform="translate(20.264 -16.433)">
      <path id="패스_5065" data-name="패스 5065" class="cls-5" d="M0,0A3.971,3.971,0,0,0,3.984-3.959,3.971,3.971,0,0,0,0-7.917,3.971,3.971,0,0,0-3.984-3.959,3.971,3.971,0,0,0,0,0Z"/>
    </g>
    <g id="그룹_4663" data-name="그룹 4663" transform="translate(18.533 -52.017)">
      <path id="패스_5066" data-name="패스 5066" class="cls-7" d="M0,0A1.748,1.748,0,0,0,1.753,1.743,1.748,1.748,0,0,0,3.506,0,1.753,1.753,0,0,0,0,0"/>
    </g>
    <g id="그룹_4664" data-name="그룹 4664" transform="translate(18.533 -52.017)">
      <path id="패스_5067" data-name="패스 5067" class="cls-5" d="M0,0A1.748,1.748,0,0,0,1.753,1.743,1.748,1.748,0,0,0,3.506,0,1.753,1.753,0,0,0,0,0Z"/>
    </g>
    <g id="그룹_4665" data-name="그룹 4665" transform="translate(19.619 -48.486)">
      <path id="패스_5068" data-name="패스 5068" class="cls-7" d="M0,0H-.323A3.473,3.473,0,0,0-3.866,3.4V6.421H5.2V3.4A3.473,3.473,0,0,0,1.657,0L1.326,0Z"/>
    </g>
    <g id="그룹_4666" data-name="그룹 4666" transform="translate(19.619 -48.486)">
      <path id="패스_5069" data-name="패스 5069" class="cls-5" d="M0,0H-.323A3.473,3.473,0,0,0-3.866,3.4V6.421H5.2V3.4A3.473,3.473,0,0,0,1.657,0L1.326,0Z"/>
    </g>
  </g>
</svg>
