<svg id="구성_요소_67_1" data-name="구성 요소 67 – 1" xmlns="http://www.w3.org/2000/svg" xmlns:xlink="http://www.w3.org/1999/xlink" width="55.931" height="77.585" viewBox="0 0 55.931 77.585">
  <defs>
    <style>
      .cls-1, .cls-11, .cls-13, .cls-4, .cls-5, .cls-6, .cls-7 {
        fill: none;
      }

      .cls-2, .cls-9 {
        fill: #1e2323;
      }

      .cls-3 {
        clip-path: url(#clip-path);
      }

      .cls-11, .cls-12, .cls-13, .cls-14, .cls-4, .cls-5, .cls-6, .cls-7, .cls-8, .cls-9 {
        stroke: #1e2323;
      }

      .cls-14, .cls-5, .cls-6, .cls-7, .cls-8 {
        stroke-linecap: round;
      }

      .cls-11, .cls-12, .cls-5, .cls-6, .cls-7, .cls-8 {
        stroke-linejoin: round;
      }

      .cls-5 {
        stroke-dasharray: 0 2.858;
      }

      .cls-7 {
        stroke-dasharray: 0 3.078;
      }

      .cls-10, .cls-12, .cls-14, .cls-8 {
        fill: #fff;
      }

      .cls-13 {
        stroke-miterlimit: 10;
      }
    </style>
    <clipPath id="clip-path">
      <path id="패스_4973" data-name="패스 4973" class="cls-1" d="M0,0H55.931V-77.585H0Z"/>
    </clipPath>
  </defs>
  <g id="그룹_4591" data-name="그룹 4591" transform="translate(47.844 44.915)">
    <path id="패스_4969" data-name="패스 4969" class="cls-2" d="M0,0V22.725L4.043,32.67l4.044-9.945V0Z"/>
  </g>
  <g id="그룹_4595" data-name="그룹 4595" class="cls-3" transform="translate(0 77.585)">
    <g id="그룹_4592" data-name="그룹 4592" transform="translate(47.786 -28.59)">
      <path id="패스_4970" data-name="패스 4970" class="cls-2" d="M0,0H8.145M.058-3.895V-6.406A3.9,3.9,0,0,1,4.1-10.138,3.9,3.9,0,0,1,8.145-6.406v2.511ZM8.145,18.351H.058"/>
    </g>
    <g id="그룹_4593" data-name="그룹 4593" transform="translate(33.09 -17.705)">
      <path id="패스_4971" data-name="패스 4971" class="cls-2" d="M0,0H-28.184a2.572,2.572,0,0,0-2.234,2.806h-1A3.559,3.559,0,0,1-28.184-1h1.7V-43.666h-1.7a2.572,2.572,0,0,0-2.234,2.806V4.226a2.572,2.572,0,0,0,2.234,2.805H3.825V0H0Z"/>
    </g>
    <g id="그룹_4594" data-name="그룹 4594" transform="translate(33.09 -17.705)">
      <path id="패스_4972" data-name="패스 4972" class="cls-4" d="M0,0H-28.184a2.572,2.572,0,0,0-2.234,2.806h-1A3.559,3.559,0,0,1-28.184-1h1.7V-43.666h-1.7a2.572,2.572,0,0,0-2.234,2.806V4.226a2.572,2.572,0,0,0,2.234,2.805H3.825V0H0Z"/>
    </g>
  </g>
  <g id="그룹_4596" data-name="그룹 4596" transform="translate(28.799 60.916)">
    <path id="패스_4974" data-name="패스 4974" class="cls-5" d="M0,0H7.145"/>
  </g>
  <g id="그룹_4597" data-name="그룹 4597" transform="translate(25.942 60.916)">
    <path id="패스_4975" data-name="패스 4975" class="cls-6" d="M0,0H0M11.431,0h0"/>
  </g>
  <g id="그룹_4598" data-name="그룹 4598" transform="translate(9.672 63.612)">
    <path id="패스_4976" data-name="패스 4976" class="cls-7" d="M0,0H26.162"/>
  </g>
  <g id="그룹_4599" data-name="그룹 4599" transform="translate(6.594 63.612)">
    <path id="패스_4977" data-name="패스 4977" class="cls-6" d="M0,0H0M30.779,0h0"/>
  </g>
  <path id="패스_4978" data-name="패스 4978" class="cls-8" d="M38.2-35.837H28.838v-1.154H38.2Z" transform="translate(0 77.585)"/>
  <g id="그룹_4600" data-name="그룹 4600" transform="translate(39.858 23.294)">
    <path id="패스_4979" data-name="패스 4979" class="cls-9" d="M0,0V43.617H-32.858V.266l.486-.014L-6.471-.5"/>
  </g>
  <g id="그룹_4605" data-name="그룹 4605" class="cls-3" transform="translate(0 77.585)">
    <g id="그룹_4601" data-name="그룹 4601" transform="translate(44.718 -58.274)">
      <path id="패스_4980" data-name="패스 4980" class="cls-2" d="M0,0A11.289,11.289,0,0,0-11.2-11.378,11.288,11.288,0,0,0-22.4,0a14.973,14.973,0,0,0,5.082,10.892v4.623H-5.082V10.892A14.973,14.973,0,0,0,0,0"/>
    </g>
    <g id="그룹_4602" data-name="그룹 4602" transform="translate(44.718 -58.274)">
      <path id="패스_4981" data-name="패스 4981" class="cls-6" d="M0,0A11.289,11.289,0,0,0-11.2-11.378,11.288,11.288,0,0,0-22.4,0a14.973,14.973,0,0,0,5.082,10.892v4.623H-5.082V10.892A14.973,14.973,0,0,0,0,0Z"/>
    </g>
    <g id="그룹_4603" data-name="그룹 4603" transform="translate(31.521 -21.008)">
      <path id="패스_4982" data-name="패스 4982" class="cls-10" d="M0,0H-28.278a3.015,3.015,0,0,0-2.743,3.228A3.015,3.015,0,0,1-28.278,0h2.206V-42.648h-2.206a3.015,3.015,0,0,0-2.743,3.228V4.615a3.015,3.015,0,0,0,2.743,3.229H4.339V0H0Z"/>
    </g>
    <g id="그룹_4604" data-name="그룹 4604" transform="translate(31.521 -21.008)">
      <path id="패스_4983" data-name="패스 4983" class="cls-6" d="M0,0H-28.278a3.015,3.015,0,0,0-2.743,3.228A3.015,3.015,0,0,1-28.278,0h2.206V-42.648h-2.206a3.015,3.015,0,0,0-2.743,3.228V4.615a3.015,3.015,0,0,0,2.743,3.229H4.339V0H0Z"/>
    </g>
  </g>
  <g id="그룹_4606" data-name="그룹 4606" transform="translate(31.585 13.928)">
    <path id="패스_4985" data-name="패스 4985" class="cls-10" d="M0,0H-26V42.493H5.978V0H0Z"/>
  </g>
  <g id="그룹_4607" data-name="그룹 4607" transform="translate(31.585 13.928)">
    <path id="패스_4986" data-name="패스 4986" class="cls-4" d="M0,0H-26V42.493H5.978V0H0Z"/>
  </g>
  <g id="그룹_4611" data-name="그룹 4611" class="cls-3" transform="translate(0 77.585)">
    <g id="그룹_4608" data-name="그룹 4608" transform="translate(43.163 -60.007)">
      <path id="패스_4987" data-name="패스 4987" class="cls-10" d="M0,0A11.344,11.344,0,0,0-11.256-11.43,11.343,11.343,0,0,0-22.512,0,15.037,15.037,0,0,0-17.4,10.942v4.645h12.3V10.942A15.037,15.037,0,0,0,0,0"/>
    </g>
    <g id="그룹_4609" data-name="그룹 4609" transform="translate(43.163 -60.007)">
      <path id="패스_4988" data-name="패스 4988" class="cls-11" d="M0,0A11.344,11.344,0,0,0-11.256-11.43,11.343,11.343,0,0,0-22.512,0,15.037,15.037,0,0,0-17.4,10.942v4.645h12.3V10.942A15.037,15.037,0,0,0,0,0Z"/>
    </g>
    <g id="그룹_4610" data-name="그룹 4610" transform="translate(23.956 -60.346)">
      <path id="패스_4989" data-name="패스 4989" class="cls-12" d="M0,0A8.01,8.01,0,0,1,7.951-8.068M5.913,16V13.245L3.976,3.929M9.989,16V13.245l1.937-9.316M4.238,5.193h7.426M7.951-17.238v3.913M-4.608-11.96l2.727,2.767M-9.81.783h3.856m1.346,12.744,2.727-2.767M20.51,13.527,17.783,10.76M25.712.783H21.855M20.51-11.96,17.783-9.193"/>
    </g>
  </g>
  <g id="그룹_4612" data-name="그룹 4612" transform="translate(45.718 66.223)">
    <path id="패스_4991" data-name="패스 4991" class="cls-10" d="M0,0,4.044,9.945,8.087,0V-22.725H0Z"/>
  </g>
  <g id="그룹_4616" data-name="그룹 4616" class="cls-3" transform="translate(0 77.585)">
    <g id="그룹_4613" data-name="그룹 4613" transform="translate(45.718 -11.362)">
      <path id="패스_4992" data-name="패스 4992" class="cls-13" d="M0,0,4.044,9.945,8.087,0V-22.725H0Z"/>
    </g>
    <g id="그룹_4614" data-name="그룹 4614" transform="translate(45.66 -30.007)">
      <path id="패스_4993" data-name="패스 4993" class="cls-10" d="M0,0H8.145M.058-3.895V-6.406A3.9,3.9,0,0,1,4.1-10.138,3.9,3.9,0,0,1,8.145-6.406v2.511ZM8.145,18.351H.058"/>
    </g>
    <g id="그룹_4615" data-name="그룹 4615" transform="translate(45.66 -30.007)">
      <path id="패스_4994" data-name="패스 4994" class="cls-13" d="M0,0H8.145M.058-3.895V-6.406A3.9,3.9,0,0,1,4.1-10.138,3.9,3.9,0,0,1,8.145-6.406v2.511ZM8.145,18.351H.058"/>
    </g>
  </g>
  <g id="그룹_4617" data-name="그룹 4617" transform="translate(48.393 70.473)">
    <path id="패스_4996" data-name="패스 4996" class="cls-13" d="M0,0H2.736"/>
  </g>
  <path id="패스_4997" data-name="패스 4997" class="cls-14" d="M25.749-41.976h13V-44.8h-13Z" transform="translate(0 77.585)"/>
  <path id="패스_4998" data-name="패스 4998" class="cls-14" d="M28.749-39.155h7v-2.821h-7Z" transform="translate(0 77.585)"/>
</svg>
