<svg id="구성_요소_61_1" data-name="구성 요소 61 – 1" xmlns="http://www.w3.org/2000/svg" width="836" height="286.5" viewBox="0 0 836 286.5">
  <defs>
    <style>
      .cls-1 {
        fill: #f5f6f7;
      }

      .cls-2, .cls-5 {
        fill: #1e2323;
      }

      .cls-3 {
        fill: #d6a803;
      }

      .cls-4 {
        fill: #fff;
      }

      .cls-5 {
        font-size: 14px;
        font-family: NotoSansKR-Light, Noto Sans KR;
        font-weight: 300;
      }

      .cls-6, .cls-7, .cls-8 {
        fill: none;
        stroke: #3e3a39;
      }

      .cls-6, .cls-7 {
        stroke-linecap: round;
        stroke-linejoin: round;
      }

      .cls-6 {
        stroke-dasharray: 0 2.976;
      }

      .cls-8 {
        stroke-width: 0.5px;
      }
    </style>
  </defs>
  <rect id="사각형_227" data-name="사각형 227" class="cls-1" width="836" height="286.5"/>
  <path id="패스_23596" data-name="패스 23596" class="cls-2" d="M1.92-8.08l.224,1.392,8.528-.464a25.863,25.863,0,0,1-.5,3.2l1.632.192a29.522,29.522,0,0,0,.624-6.816V-11.9H2.336v1.328H10.8c0,.656,0,1.376-.032,2.16ZM7.344-1.936V-5.568H5.68v3.632H.8v1.36H13.872v-1.36ZM18.832-11.12a1.508,1.508,0,0,1,1.68,1.472,1.508,1.508,0,0,1-1.68,1.472,1.514,1.514,0,0,1-1.7-1.472A1.514,1.514,0,0,1,18.832-11.12Zm0,4.176c1.824,0,3.152-1.1,3.152-2.7s-1.328-2.7-3.152-2.7c-1.84,0-3.168,1.1-3.168,2.7S16.992-6.944,18.832-6.944Zm3.584.592A57.47,57.47,0,0,1,15.008-6L15.2-4.624c.784,0,1.76-.016,2.8-.048V.08h1.568V-4.768a29.041,29.041,0,0,0,2.976-.384Zm.832,2.528H20.736V-2.56h2.512V.528h1.536V-12.928H23.248Zm2.8-9.408V1.232h1.568V-13.232Zm13.792,0v14.5H41.5v-14.5ZM33.808-12.16c-2.144,0-3.712,1.984-3.712,5.088,0,3.136,1.568,5.1,3.712,5.1,2.16,0,3.728-1.968,3.728-5.1C37.536-10.176,35.968-12.16,33.808-12.16Zm0,1.488c1.264,0,2.144,1.36,2.144,3.6,0,2.272-.88,3.632-2.144,3.632-1.248,0-2.128-1.36-2.128-3.632C31.68-9.312,32.56-10.672,33.808-10.672ZM51.392.208c2.576,0,4.144-1.536,4.144-3.424a3.288,3.288,0,0,0-2.4-3.184L51.52-7.088c-.96-.384-1.9-.768-1.9-1.776,0-.944.784-1.52,1.984-1.52a3.751,3.751,0,0,1,2.592,1.056l.976-1.184A5.044,5.044,0,0,0,51.6-12c-2.24,0-3.872,1.392-3.872,3.248a3.387,3.387,0,0,0,2.4,3.088l1.632.7c1.088.48,1.888.816,1.888,1.888,0,.992-.8,1.664-2.224,1.664A4.566,4.566,0,0,1,48.288-2.8L47.2-1.52A5.875,5.875,0,0,0,51.392.208ZM59.152,0h1.856V-10.224H64.48v-1.552H55.7v1.552h3.456Zm7.056,0h7.136V-1.568h-5.28V-5.376h4.32V-6.944h-4.32v-3.28h5.1v-1.552h-6.96Zm9.3,0H77.36V-4.464h1.776c2.56,0,4.432-1.184,4.432-3.76,0-2.656-1.872-3.552-4.5-3.552H75.5ZM77.36-5.952v-4.336H78.9c1.872,0,2.848.512,2.848,2.064s-.9,2.272-2.784,2.272ZM87.792,3.184l1.152-.512a14.939,14.939,0,0,1-2.016-7.68,15.022,15.022,0,0,1,2.016-7.68l-1.152-.5a15.077,15.077,0,0,0-2.368,8.176A15.092,15.092,0,0,0,87.792,3.184Zm6.5-2.976c2.576,0,4.144-1.536,4.144-3.424a3.288,3.288,0,0,0-2.4-3.184l-1.616-.688c-.96-.384-1.9-.768-1.9-1.776,0-.944.784-1.52,1.984-1.52a3.751,3.751,0,0,1,2.592,1.056l.976-1.184A5.044,5.044,0,0,0,94.5-12c-2.24,0-3.872,1.392-3.872,3.248a3.387,3.387,0,0,0,2.4,3.088l1.632.7c1.088.48,1.888.816,1.888,1.888,0,.992-.8,1.664-2.224,1.664A4.566,4.566,0,0,1,91.184-2.8L90.1-1.52A5.875,5.875,0,0,0,94.288.208Zm9.568,0a5.339,5.339,0,0,0,2.976-.928l-.64-1.168a3.736,3.736,0,0,1-2.1.656,2.657,2.657,0,0,1-2.72-2.688h5.712a4.756,4.756,0,0,0,.08-.928c0-2.5-1.248-4.176-3.584-4.176-2.064,0-4.016,1.776-4.016,4.64A4.227,4.227,0,0,0,103.856.208Zm-2.5-5.392a2.386,2.386,0,0,1,2.256-2.4c1.28,0,1.968.88,1.968,2.4ZM110.752.208a2.955,2.955,0,0,0,.992-.144l-.24-1.392a1.278,1.278,0,0,1-.3.032c-.224,0-.448-.176-.448-.672V-12.752h-1.824V-2.064C108.928-.64,109.424.208,110.752.208Zm7.28-12.864a4,4,0,0,0-1.552-.3c-1.968,0-2.784,1.248-2.784,3.056v1.1l-1.2.1v1.376h1.2V0h1.84V-7.328h1.776V-8.8h-1.776V-9.92c0-1.072.384-1.584,1.168-1.584a2.394,2.394,0,0,1,.96.224ZM124.448,0H126.3V-10.224h3.472v-1.552h-8.784v1.552h3.456Zm8.064.208a5.339,5.339,0,0,0,2.976-.928l-.64-1.168a3.736,3.736,0,0,1-2.1.656,2.657,2.657,0,0,1-2.72-2.688h5.712a4.755,4.755,0,0,0,.08-.928c0-2.5-1.248-4.176-3.584-4.176-2.064,0-4.016,1.776-4.016,4.64A4.227,4.227,0,0,0,132.512.208Zm-2.5-5.392a2.386,2.386,0,0,1,2.256-2.4c1.28,0,1.968.88,1.968,2.4ZM139.168.208a4.375,4.375,0,0,0,2.8-1.216h.048L142.176,0h1.5V-5.3c0-2.336-1.008-3.728-3.2-3.728a6.74,6.74,0,0,0-3.552,1.152l.688,1.248a4.839,4.839,0,0,1,2.544-.9c1.3,0,1.664.9,1.68,1.92-3.664.4-5.264,1.376-5.264,3.264A2.431,2.431,0,0,0,139.168.208Zm.56-1.456c-.784,0-1.376-.352-1.376-1.216,0-.992.88-1.648,3.488-1.968v2.16A3.1,3.1,0,0,1,139.728-1.248ZM149.552.208A4.288,4.288,0,0,0,152.4-.88L151.648-2.1a3.014,3.014,0,0,1-1.92.8c-1.472,0-2.48-1.232-2.48-3.088,0-1.872,1.056-3.12,2.528-3.12a2.306,2.306,0,0,1,1.584.688l.912-1.2A3.778,3.778,0,0,0,149.7-9.024a4.324,4.324,0,0,0-4.352,4.64C145.344-1.472,147.168.208,149.552.208ZM153.92,0h1.824V-6.24a3,3,0,0,1,2.16-1.2c1.04,0,1.488.608,1.488,2.128V0h1.84V-5.536c0-2.24-.832-3.488-2.7-3.488a4.1,4.1,0,0,0-2.848,1.392l.064-1.744v-3.376H153.92Zm9.632,0h1.824V-8.8h-1.824Zm.912-10.448a1.1,1.1,0,0,0,1.184-1.088,1.1,1.1,0,0,0-1.184-1.088,1.081,1.081,0,0,0-1.168,1.088A1.09,1.09,0,0,0,164.464-10.448ZM167.84,0h1.824V-6.24a3,3,0,0,1,2.16-1.2c1.04,0,1.488.608,1.488,2.128V0h1.84V-5.536c0-2.24-.832-3.488-2.7-3.488a4.193,4.193,0,0,0-2.912,1.44h-.048L169.344-8.8h-1.5Zm12.672,3.952c2.816,0,4.608-1.376,4.608-3.072,0-1.5-1.088-2.144-3.168-2.144h-1.616c-1.12,0-1.472-.336-1.472-.864a1.167,1.167,0,0,1,.48-.928,3.059,3.059,0,0,0,1.232.272,3.007,3.007,0,0,0,3.3-3.024,2.379,2.379,0,0,0-.576-1.616h1.68V-8.8h-3.12a3.67,3.67,0,0,0-1.28-.224,3.174,3.174,0,0,0-3.408,3.168A3.011,3.011,0,0,0,178.32-3.52v.064a2.172,2.172,0,0,0-.976,1.632,1.618,1.618,0,0,0,.8,1.456v.08a2.325,2.325,0,0,0-1.28,1.92C176.864,3.168,178.4,3.952,180.512,3.952Zm.064-7.92a1.716,1.716,0,0,1-1.664-1.888,1.676,1.676,0,0,1,1.664-1.872,1.684,1.684,0,0,1,1.664,1.872A1.716,1.716,0,0,1,180.576-3.968Zm.208,6.7c-1.456,0-2.352-.512-2.352-1.376a1.583,1.583,0,0,1,.752-1.28,5.594,5.594,0,0,0,1.184.128H181.7c1.072,0,1.648.224,1.648.96C183.344,1.984,182.32,2.736,180.784,2.736Zm9.856-5.92A2.8,2.8,0,0,1,191.9-5.216a16.6,16.6,0,0,0,2.912,3.184,3.327,3.327,0,0,1-2.032.8A1.98,1.98,0,0,1,190.64-3.184Zm1.3-5.952a1.41,1.41,0,0,1,1.328-1.584c.72,0,1.024.528,1.024,1.168,0,.976-.832,1.616-1.856,2.272A4.478,4.478,0,0,1,191.936-9.136Zm7.392,7.84a7.977,7.977,0,0,1-2.16-1.008,12.711,12.711,0,0,0,2.048-4.144h-1.7a9.551,9.551,0,0,1-1.584,3.264,15.141,15.141,0,0,1-2.8-2.928c1.3-.928,2.608-1.9,2.608-3.456a2.31,2.31,0,0,0-2.5-2.432,2.777,2.777,0,0,0-2.864,2.88,5.982,5.982,0,0,0,.768,2.656c-1.2.8-2.272,1.776-2.272,3.392,0,1.856,1.424,3.28,3.68,3.28a5.21,5.21,0,0,0,3.5-1.3,9.05,9.05,0,0,0,2.8,1.3ZM204.144,0h7.136V-1.568H206V-5.376h4.32V-6.944H206v-3.28h5.1v-1.552h-6.96Zm11.824.208a3.688,3.688,0,0,0,2.56-1.2h.048l.16.992h1.5V-12.752H218.4v3.264l.08,1.456a3.4,3.4,0,0,0-2.368-.992c-1.968,0-3.776,1.776-3.776,4.64C212.336-1.472,213.76.208,215.968.208Zm.432-1.52c-1.376,0-2.16-1.1-2.16-3.1,0-1.9.992-3.072,2.224-3.072a2.76,2.76,0,0,1,1.936.8v4.3A2.586,2.586,0,0,1,216.4-1.312Zm8.88,1.52a3.69,3.69,0,0,0,2.88-1.536h.048L228.352,0h1.5V-8.8h-1.84v6.112c-.736.928-1.3,1.312-2.112,1.312-1.04,0-1.472-.592-1.472-2.112V-8.8h-1.84v5.536C222.592-1.024,223.408.208,225.28.208Zm10.608,0A4.288,4.288,0,0,0,238.736-.88L237.984-2.1a3.014,3.014,0,0,1-1.92.8c-1.472,0-2.48-1.232-2.48-3.088,0-1.872,1.056-3.12,2.528-3.12a2.306,2.306,0,0,1,1.584.688l.912-1.2a3.778,3.778,0,0,0-2.576-1.008,4.324,4.324,0,0,0-4.352,4.64C231.68-1.472,233.5.208,235.888.208Zm6.1,0a4.375,4.375,0,0,0,2.8-1.216h.048L244.992,0h1.5V-5.3c0-2.336-1.008-3.728-3.2-3.728a6.74,6.74,0,0,0-3.552,1.152l.688,1.248a4.839,4.839,0,0,1,2.544-.9c1.3,0,1.664.9,1.68,1.92-3.664.4-5.264,1.376-5.264,3.264A2.431,2.431,0,0,0,241.984.208Zm.56-1.456c-.784,0-1.376-.352-1.376-1.216,0-.992.88-1.648,3.488-1.968v2.16A3.1,3.1,0,0,1,242.544-1.248ZM251.2.208a5.63,5.63,0,0,0,1.728-.32l-.336-1.36a2.624,2.624,0,0,1-.944.208c-.912,0-1.28-.544-1.28-1.6V-7.328h2.288V-8.8h-2.288v-2.432h-1.552L248.608-8.8l-1.36.1v1.376h1.28V-2.88C248.528-1.024,249.216.208,251.2.208ZM254.256,0h1.824V-8.8h-1.824Zm.912-10.448a1.1,1.1,0,0,0,1.184-1.088,1.1,1.1,0,0,0-1.184-1.088A1.081,1.081,0,0,0,254-11.536,1.09,1.09,0,0,0,255.168-10.448Zm6.9,10.656c2.176,0,4.144-1.68,4.144-4.592,0-2.944-1.968-4.64-4.144-4.64s-4.144,1.7-4.144,4.64C257.92-1.472,259.888.208,262.064.208Zm0-1.5c-1.376,0-2.24-1.232-2.24-3.088,0-1.872.864-3.12,2.24-3.12,1.392,0,2.256,1.248,2.256,3.12C264.32-2.528,263.456-1.3,262.064-1.3ZM268.048,0h1.824V-6.24a3,3,0,0,1,2.16-1.2c1.04,0,1.488.608,1.488,2.128V0h1.84V-5.536c0-2.24-.832-3.488-2.7-3.488a4.193,4.193,0,0,0-2.912,1.44H269.7L269.552-8.8h-1.5Zm13.1,0h1.856V-4.464h1.776c2.56,0,4.432-1.184,4.432-3.76,0-2.656-1.872-3.552-4.5-3.552h-3.568Zm1.856-5.952v-4.336h1.536c1.872,0,2.848.512,2.848,2.064s-.9,2.272-2.784,2.272Zm9.856,6.16a2.956,2.956,0,0,0,.992-.144l-.24-1.392a1.278,1.278,0,0,1-.3.032c-.224,0-.448-.176-.448-.672V-12.752H291.04V-2.064C291.04-.64,291.536.208,292.864.208Zm4.72,0a4.375,4.375,0,0,0,2.8-1.216h.048L300.592,0h1.5V-5.3c0-2.336-1.008-3.728-3.2-3.728a6.74,6.74,0,0,0-3.552,1.152l.688,1.248a4.839,4.839,0,0,1,2.544-.9c1.3,0,1.664.9,1.68,1.92-3.664.4-5.264,1.376-5.264,3.264A2.431,2.431,0,0,0,297.584.208Zm.56-1.456c-.784,0-1.376-.352-1.376-1.216,0-.992.88-1.648,3.488-1.968v2.16A3.1,3.1,0,0,1,298.144-1.248ZM304.384,0h1.824V-6.24a3,3,0,0,1,2.16-1.2c1.04,0,1.488.608,1.488,2.128V0h1.84V-5.536c0-2.24-.832-3.488-2.7-3.488a4.193,4.193,0,0,0-2.912,1.44h-.048L305.888-8.8h-1.5Zm10.16,3.184a14.968,14.968,0,0,0,2.384-8.192,14.954,14.954,0,0,0-2.384-8.176l-1.152.5a15.022,15.022,0,0,1,2.016,7.68,14.939,14.939,0,0,1-2.016,7.68Zm11.968-13.472H328.9v-1.36h-6.528v1.36h2.544v1.04c0,2.576-.96,5.184-3.008,6.464l.992,1.216a7.161,7.161,0,0,0,2.832-4.256,6.576,6.576,0,0,0,2.768,3.9l.96-1.2c-2.016-1.168-2.944-3.664-2.944-6.128Zm3.456,2.144H327.84V-6.8h2.128V.528h1.552V-12.944h-1.552Zm2.912-5.088V1.216h1.568V-13.232ZM343.872-1.856V-5.264h4.272V-6.592h-8.368V-10.8h8.24v-1.328h-9.888v6.864h4.1v3.408h-5.7V-.5h13.088v-1.36Z" transform="translate(240.269 39.513)"/>
  <rect id="사각형_228" data-name="사각형 228" class="cls-3" width="163.724" height="30" transform="translate(20 80.61)"/>
  <rect id="사각형_229" data-name="사각형 229" class="cls-3" width="163.724" height="30" transform="translate(230.759 80.61)"/>
  <rect id="사각형_230" data-name="사각형 230" class="cls-3" width="163.724" height="30" transform="translate(441.517 80.61)"/>
  <rect id="사각형_231" data-name="사각형 231" class="cls-3" width="163.724" height="30" transform="translate(652.276 80.61)"/>
  <path id="패스_23597" data-name="패스 23597" class="cls-4" d="M2.805-6.285H7.77V-11.1H1.53v1.005h5v2.8H1.575v5.16h1.11a39.044,39.044,0,0,0,6.78-.495l-.12-1a39.538,39.538,0,0,1-6.54.48Zm7.8-6.075V1.125h1.23V-12.36Zm5.6,2.31h4.89v-1.02H14.97v8.88H16a31.069,31.069,0,0,0,6.12-.45l-.15-1.02a28.831,28.831,0,0,1-5.775.435Zm7.95-2.3V-7.47H20.3v1.02H24.15V1.14h1.23V-12.345Zm11.79,5.88a4.617,4.617,0,0,1-3.405-4.17v-1.26h-1.23v1.26A4.875,4.875,0,0,1,27.87-6.21l.63.975A5.738,5.738,0,0,0,31.935-8.58,5.631,5.631,0,0,0,35.34-5.505ZM37.62-.06H31.38V-1.845h6.24Zm0-2.745H31.38V-4.44H30.165V.93h8.67V-4.44H37.62ZM37.6-12.33v7.215h1.23V-12.33Zm16.26,2.82A27.994,27.994,0,0,1,53.4-3.675l1.215.15A28.8,28.8,0,0,0,55.1-9.51v-1.485h-9.48V-9.99h8.25Zm-1.98,7.725V-6.24H50.67v4.455H48.555V-6.24H47.34v4.455H44.355V-.78H56.52V-1.785Zm12.045-9.27c2.13,0,3.465.6,3.465,1.605s-1.335,1.6-3.465,1.6-3.465-.6-3.465-1.6S61.8-11.055,63.93-11.055Zm0,4.17c2.91,0,4.725-.945,4.725-2.565s-1.815-2.58-4.725-2.58c-2.9,0-4.725.96-4.725,2.58S61.035-6.885,63.93-6.885Zm1.65,3.72H62.3v-1.71H65.58Zm4.44-1.71v-.99H57.855v.99h3.21v1.71h-1.86v.99H67.29v3.3h1.23v-4.29H66.81v-1.71Z" transform="translate(66.012 102.212)"/>
  <path id="패스_23599" data-name="패스 23599" class="cls-4" d="M9.015-5.775A4.579,4.579,0,0,1,5.64-9.87v-.54H8.685v-.99H1.3v.99H4.38v.54A4.817,4.817,0,0,1,.975-5.505l.645.96A5.681,5.681,0,0,0,5.025-7.86,5.715,5.715,0,0,0,8.415-4.8ZM2.835-2.5h7.77V1.11h1.23v-4.6h-9Zm7.77-9.84V-4.2h1.23v-8.145Zm13.11,5.01H17.04v-3.27h6.675ZM24.93-11.6H15.84V-6.36h9.09ZM26.49-4.53H14.28v1h5.46V1.1h1.23v-4.62h5.52ZM40.365-9.51A27.994,27.994,0,0,1,39.9-3.675l1.215.15A28.8,28.8,0,0,0,41.6-9.51v-1.485h-9.48V-9.99h8.25Zm-1.98,7.725V-6.24H37.17v4.455H35.055V-6.24H33.84v4.455H30.855V-.78H43.02V-1.785Zm12.045-9.27c2.13,0,3.465.6,3.465,1.605s-1.335,1.6-3.465,1.6-3.465-.6-3.465-1.6S48.3-11.055,50.43-11.055Zm0,4.17c2.91,0,4.725-.945,4.725-2.565s-1.815-2.58-4.725-2.58-4.725.96-4.725,2.58S47.535-6.885,50.43-6.885Zm1.65,3.72H48.8v-1.71H52.08Zm4.44-1.71v-.99H44.355v.99h3.21v1.71h-1.86v.99H53.79v3.3h1.23v-4.29H53.31v-1.71Z" transform="translate(283.527 102.212)"/>
  <path id="패스_23600" data-name="패스 23600" class="cls-4" d="M3.585-3.075H2.355V.81H11.61V-.2H3.585ZM3.4-9.255c0-1.065,1.35-1.7,3.48-1.7,2.1,0,3.45.63,3.45,1.7s-1.35,1.68-3.45,1.68C4.755-7.575,3.4-8.19,3.4-9.255ZM7.5-5.19V-6.6c2.505-.135,4.1-1.11,4.1-2.655,0-1.68-1.845-2.685-4.71-2.685-2.895,0-4.74,1.005-4.74,2.685,0,1.56,1.59,2.52,4.125,2.655v1.41H.8v1h12.15v-1Zm9.45-2.79h6.87v2.475H16.95ZM21-1.62V-4.515h4.02v-6.87h-1.2v2.4H16.95v-2.4H15.735v6.87h4.02V-1.62H14.3v1H26.49v-1ZM38.85-12.345H37.62v8.28h1.23ZM36.27-6.87a29.99,29.99,0,0,1-6.42.48v-3.9h5.1v-.99H28.62v5.895h1.11a32.1,32.1,0,0,0,6.66-.48Zm-1.89,7c-2.04,0-3.3-.6-3.3-1.6s1.26-1.605,3.3-1.605,3.285.6,3.285,1.605S36.42.135,34.38.135Zm0-4.185c-2.775,0-4.515.945-4.515,2.58S31.6,1.11,34.38,1.11,38.9.165,38.9-1.47,37.155-4.05,34.38-4.05Zm19.5-5.46a27.994,27.994,0,0,1-.465,5.835l1.215.15a28.8,28.8,0,0,0,.48-5.985v-1.485H45.63V-9.99h8.25ZM51.9-1.785V-6.24H50.685v4.455H48.57V-6.24H47.355v4.455H44.37V-.78H56.535V-1.785Zm12.045-9.27c2.13,0,3.465.6,3.465,1.605s-1.335,1.6-3.465,1.6-3.465-.6-3.465-1.6S61.815-11.055,63.945-11.055Zm0,4.17c2.91,0,4.725-.945,4.725-2.565s-1.815-2.58-4.725-2.58c-2.9,0-4.725.96-4.725,2.58S61.05-6.885,63.945-6.885Zm1.65,3.72H62.31v-1.71H65.6Zm4.44-1.71v-.99H57.87v.99h3.21v1.71H59.22v.99h8.085v3.3h1.23v-4.29h-1.71v-1.71Z" transform="translate(487.542 102.212)"/>
  <path id="패스_23601" data-name="패스 23601" class="cls-4" d="M10.65-.075H4.47v-1.68h6.18Zm0-2.64H4.47v-1.62H3.255V.915h8.61v-5.25H10.65ZM6.315-6.495H2.685v-2.13h3.63Zm4.32-5.835v3.3H7.53v-2.61H6.315v2.055H2.685V-11.64H1.47v6.15H7.53V-8.025h3.105V-4.98H11.88v-7.35ZM21.48-8.85v1h2.655V-4.32H25.38v-8.01H24.135v3.48Zm.75,3.06A4.632,4.632,0,0,1,18.96-9.9v-.465h2.955v-.99H14.73v.99h3V-9.9a4.96,4.96,0,0,1-3.39,4.485l.645.975a5.823,5.823,0,0,0,3.39-3.42,5.527,5.527,0,0,0,3.24,3.03ZM20.94.15c-2.025,0-3.255-.57-3.255-1.545s1.23-1.56,3.255-1.56,3.255.585,3.255,1.56S22.965.15,20.94.15Zm0-4.05c-2.76,0-4.485.915-4.485,2.5s1.725,2.5,4.485,2.5,4.47-.915,4.47-2.5S23.7-3.9,20.94-3.9Zm17.925-8.445h-1.23v6.99h1.23ZM30.93-10.47h2.19v3.5c-.735.045-1.47.075-2.19.09Zm5.355,3.24c-.645.075-1.305.15-1.98.195V-10.47h1.32v-.975H28.41v.975h1.32v3.615c-.585.015-1.155.015-1.68.015l.12,1.02a60.367,60.367,0,0,0,8.175-.51ZM31.335-.015v-1.47h7.53V-4.71h-8.79v.96H37.65V-2.4H30.12V.96h9.255V-.015Zm21.555-7.2c-2.445-.36-4.845-2.025-4.845-3.9v-.75h-1.29v.75c0,1.92-2.37,3.54-4.815,3.9l.495.99A6.894,6.894,0,0,0,47.4-9.375a7.06,7.06,0,0,0,4.98,3.15Zm.585,2.445H41.325v1.02h5.43V1.125h1.23V-3.75h5.5Zm13.9-4.74a27.994,27.994,0,0,1-.465,5.835l1.215.15a28.8,28.8,0,0,0,.48-5.985v-1.485H59.13V-9.99h8.25ZM65.4-1.785V-6.24H64.185v4.455H62.07V-6.24H60.855v4.455H57.87V-.78H70.035V-1.785Zm12.045-9.27c2.13,0,3.465.6,3.465,1.605s-1.335,1.6-3.465,1.6-3.465-.6-3.465-1.6S75.315-11.055,77.445-11.055Zm0,4.17c2.91,0,4.725-.945,4.725-2.565s-1.815-2.58-4.725-2.58-4.725.96-4.725,2.58S74.55-6.885,77.445-6.885Zm1.65,3.72H75.81v-1.71H79.1Zm4.44-1.71v-.99H71.37v.99h3.21v1.71H72.72v.99H80.8v3.3h1.23v-4.29h-1.71v-1.71Z" transform="translate(691.542 102.212)"/>
  <g id="그룹_220" data-name="그룹 220" transform="translate(-679 -2187.401)">
    <text id="_" data-name=" " class="cls-5" transform="translate(820.455 2338.724)"><tspan x="0" y="0"> </tspan></text>
    <text id="_2" data-name=" " class="cls-5" transform="translate(756.559 2338.724)"><tspan x="0" y="0"> </tspan></text>
    <text id="_3" data-name=" " class="cls-5" transform="translate(714.839 2338.724)"><tspan x="0" y="0"> </tspan></text>
    <path id="패스_23598" data-name="패스 23598" class="cls-2" d="M3.71-4.256a.738.738,0,0,0,.728-.756.725.725,0,0,0-.728-.77A.722.722,0,0,0,3-5.012.736.736,0,0,0,3.71-4.256Zm14.868-.882A4.509,4.509,0,0,1,15.3-9.044V-9.87H18.34v-.63H11.508v.63H14.56v.826A4.728,4.728,0,0,1,11.312-4.9l.378.588a5.445,5.445,0,0,0,3.262-3.3A5.359,5.359,0,0,0,18.214-4.55Zm-5.6,2.562H20.44V.98h.742V-3.192h-8.2Zm7.462-8.876V-3.92h.742v-7.532Zm9.506,6.4a4.289,4.289,0,0,1-2.674-3.822v-.182h2.394v-.63H27.272v-1.624h-.728v1.624H24.066v.63h2.478v.182A4.494,4.494,0,0,1,23.9-4.816l.406.56a4.928,4.928,0,0,0,2.618-3.108A4.9,4.9,0,0,0,29.554-4.48Zm-4,2.6H33.4V.98h.742V-3.08h-8.2Zm7.49-9v3.43h-1.96v-3.206h-.714V-3.92h.714V-7.392h1.96v3.57h.714v-7.63Zm6.944,1.96H43.3v-.644H36.666v.644h2.982v2.086a6.823,6.823,0,0,1-3.4,5.348l.462.616a7.68,7.68,0,0,0,3.3-4.34A7.233,7.233,0,0,0,43.246-1.75l.434-.6a6.324,6.324,0,0,1-3.3-5.054Zm7.672,3.22H45.864v-5.18h-.742V.98h.742V-5.642h2.184ZM60.984-8.638a23.22,23.22,0,0,1-.448,5.292l.742.1a24.918,24.918,0,0,0,.434-5.39V-10.08H53.186v.616h7.8Zm-2.2,7.084V-5.768h-.728v4.214H55.72V-5.768h-.728v4.214h-3.01v.63H63.224v-.63Zm11.466-8.974c2.156,0,3.556.658,3.556,1.722s-1.4,1.736-3.556,1.736-3.528-.672-3.528-1.736S68.11-10.528,70.252-10.528Zm0,4.06c2.674,0,4.312-.854,4.312-2.338s-1.638-2.324-4.312-2.324c-2.646,0-4.284.84-4.284,2.324S67.606-6.468,70.252-6.468ZM72-2.926H68.544V-4.718H72ZM75.88-4.718v-.63H64.652v.63H67.8v1.792H65.9v.63h7.84V.966h.742V-2.926H72.744V-4.718ZM79.912,2.7l.5-.252a12.873,12.873,0,0,1-1.848-6.762,12.909,12.909,0,0,1,1.848-6.762l-.5-.266a12.91,12.91,0,0,0-2.044,7.028A12.862,12.862,0,0,0,79.912,2.7ZM90.888-11.452V-4.3h.742v-7.154ZM83.734-3.57V.784h7.9V-3.57Zm7.168.616V.154h-6.44V-2.954Zm-5.894-7.8A2.867,2.867,0,0,0,81.872-7.9,2.867,2.867,0,0,0,85.008-5.04,2.876,2.876,0,0,0,88.172-7.9,2.876,2.876,0,0,0,85.008-10.752Zm0,.63A2.265,2.265,0,0,1,87.458-7.9a2.265,2.265,0,0,1-2.45,2.226A2.249,2.249,0,0,1,82.586-7.9,2.249,2.249,0,0,1,85.008-10.122ZM100.8-4.032v.588h2.646v1.47h.742v-9.464h-.742v7.406Zm-2.618-6.3c1.372,0,2.324.644,2.324,1.554,0,.938-.952,1.568-2.324,1.568s-2.324-.63-2.324-1.568C95.858-9.688,96.81-10.332,98.182-10.332Zm0,3.7c1.82,0,3.024-.826,3.024-2.142s-1.2-2.128-3.024-2.128-3.038.826-3.038,2.128S96.362-6.636,98.182-6.636ZM97.9-2.478h.742V-5.012a34.563,34.563,0,0,0,3.626-.364l-.07-.546a68.472,68.472,0,0,1-8.092.364l.112.644c1.092,0,2.338,0,3.682-.056ZM96.726.042V-2.912H96V.672h8.512V.042ZM106.2,2.478h.658L111.482-11h-.672Zm16.562-8.372a32.143,32.143,0,0,1-6.006.378h-.224V-7.532h4.816v-.616h-4.816v-1.9h5.152v-.63h-5.894V-4.9h.966a32.435,32.435,0,0,0,6.1-.378Zm-4.76,3.178h6.44V.154h-6.44Zm-.728,3.5h7.9V-3.332h-7.9Zm7.154-12.236v7.434h.742v-7.434Zm10.388,6.23a4.325,4.325,0,0,1-3.108-3.794v-.84h2.94v-.616H128.03v.616h2.954V-9a4.628,4.628,0,0,1-3.22,4.116l.392.588a5.432,5.432,0,0,0,3.22-3.248,5.078,5.078,0,0,0,3.08,2.912ZM133.392.336c-1.988,0-3.276-.616-3.276-1.61s1.288-1.61,3.276-1.61,3.29.616,3.29,1.61S135.394.336,133.392.336Zm0-3.822c-2.492,0-4,.8-4,2.212s1.512,2.212,4,2.212,4.018-.8,4.018-2.212S135.884-3.486,133.392-3.486Zm3.92-4.634v-3.332h-.742v7.56h.742V-7.476h1.946V-8.12ZM140.63,2.7a12.862,12.862,0,0,0,2.044-7.014,12.91,12.91,0,0,0-2.044-7.028l-.5.266a12.909,12.909,0,0,1,1.848,6.762,12.873,12.873,0,0,1-1.848,6.762ZM3.71,17.744a.738.738,0,0,0,.728-.756.723.723,0,1,0-1.442,0A.736.736,0,0,0,3.71,17.744Zm17.472-7.182H20.44V19.7h.742ZM18.466,17a5.068,5.068,0,0,1-3.234-4.466V11.248H14.5v1.288a5.3,5.3,0,0,1-3.206,4.7l.42.6a5.937,5.937,0,0,0,3.164-3.668,5.673,5.673,0,0,0,3.192,3.416Zm-4.354,5.04V18.878H13.37v3.794H21.6v-.63Zm19-11.494V17.7h.742V10.548ZM25.956,18.43v4.354h7.9V18.43Zm7.168.616v3.108h-6.44V19.046Zm-5.894-7.8a2.868,2.868,0,1,0,0,5.712,2.871,2.871,0,1,0,0-5.712Zm0,.63a2.236,2.236,0,1,1,0,4.452,2.234,2.234,0,1,1,0-4.452Zm16.688,4.984a4.509,4.509,0,0,1-3.276-3.906V12.13H43.68V11.5H36.848v.63H39.9v.826A4.728,4.728,0,0,1,36.652,17.1l.378.588a5.445,5.445,0,0,0,3.262-3.3,5.359,5.359,0,0,0,3.262,3.066Zm-5.6,2.562H45.78V22.98h.742V18.808h-8.2Zm7.462-8.876V18.08h.742V10.548Zm9.506,6.4a4.289,4.289,0,0,1-2.674-3.822v-.182h2.394v-.63H52.612V10.688h-.728v1.624H49.406v.63h2.478v.182a4.494,4.494,0,0,1-2.646,4.06l.406.56a4.928,4.928,0,0,0,2.618-3.108,4.9,4.9,0,0,0,2.632,2.884Zm-4,2.6h7.462v3.43h.742V18.92h-8.2Zm7.49-9v3.43h-1.96V10.772H56.1V18.08h.714V14.608h1.96v3.57h.714v-7.63Zm6.944,1.96h2.926v-.644H62.006v.644h2.982v2.086a6.823,6.823,0,0,1-3.4,5.348l.462.616a7.68,7.68,0,0,0,3.3-4.34,7.233,7.233,0,0,0,3.234,4.032l.434-.6a6.324,6.324,0,0,1-3.3-5.054Zm7.672,3.22H71.2v-5.18h-.742V22.98H71.2V16.358h2.184Zm12.936-2.366a23.22,23.22,0,0,1-.448,5.292l.742.1a24.919,24.919,0,0,0,.434-5.39V11.92H78.526v.616h7.8Zm-2.2,7.084V16.232H83.4v4.214H81.06V16.232h-.728v4.214h-3.01v.63H88.564v-.63Zm11.466-8.974c2.156,0,3.556.658,3.556,1.722s-1.4,1.736-3.556,1.736-3.528-.672-3.528-1.736S93.45,11.472,95.592,11.472Zm0,4.06c2.674,0,4.312-.854,4.312-2.338s-1.638-2.324-4.312-2.324c-2.646,0-4.284.84-4.284,2.324S92.946,15.532,95.592,15.532Zm1.75,3.542H93.884V17.282h3.458Zm3.878-1.792v-.63H89.992v.63h3.15v1.792h-1.9v.63h7.84v3.262h.742V19.074H98.084V17.282ZM3.71,39.744a.738.738,0,0,0,.728-.756.723.723,0,1,0-1.442,0A.736.736,0,0,0,3.71,39.744Zm17.878-2.912c-1.834-.28-4.522-1.666-4.522-3.416v-.672H16.31v.672c0,1.792-2.646,3.136-4.522,3.416l.28.6c1.764-.322,3.892-1.344,4.62-2.884.742,1.526,2.9,2.562,4.62,2.884Zm-4.9,7.518c-2.128,0-3.486-.588-3.486-1.582S14.56,41.2,16.688,41.2s3.486.588,3.486,1.568S18.816,44.35,16.688,44.35Zm0-3.752c-2.646,0-4.228.784-4.228,2.17,0,1.414,1.582,2.184,4.228,2.184s4.228-.77,4.228-2.184C20.916,41.382,19.334,40.6,16.688,40.6ZM11.06,38.624v.616H22.3v-.616Zm22.792-6.076H33.11v9.184h.742Zm-2.6,6.664c-1.736-.6-3.276-2.114-3.276-3.92V34.284H31.01v-.63H24.178v.63H27.23v1.008a4.71,4.71,0,0,1-3.248,4.158l.392.588a5.423,5.423,0,0,0,3.248-3.3,5.3,5.3,0,0,0,3.262,3.052Zm-4.466,4.83V40.85H26.04v3.822h8.232v-.63Zm13.594-9.534H43.3v-.644H36.666v.644h2.982v2.086a6.823,6.823,0,0,1-3.4,5.348l.462.616a7.68,7.68,0,0,0,3.3-4.34,7.233,7.233,0,0,0,3.234,4.032l.434-.6a6.324,6.324,0,0,1-3.3-5.054Zm7.672,3.22H45.864v-5.18h-.742V44.98h.742V38.358h2.184Zm12.936-2.366a23.22,23.22,0,0,1-.448,5.292l.742.1a24.918,24.918,0,0,0,.434-5.39V33.92H53.186v.616h7.8Zm-2.2,7.084V38.232h-.728v4.214H55.72V38.232h-.728v4.214h-3.01v.63H63.224v-.63Zm11.466-8.974c2.156,0,3.556.658,3.556,1.722s-1.4,1.736-3.556,1.736-3.528-.672-3.528-1.736S68.11,33.472,70.252,33.472Zm0,4.06c2.674,0,4.312-.854,4.312-2.338s-1.638-2.324-4.312-2.324c-2.646,0-4.284.84-4.284,2.324S67.606,37.532,70.252,37.532ZM72,41.074H68.544V39.282H72Zm3.878-1.792v-.63H64.652v.63H67.8v1.792H65.9v.63h7.84v3.262h.742V41.074H72.744V39.282ZM3.71,61.744a.738.738,0,0,0,.728-.756.723.723,0,1,0-1.442,0A.736.736,0,0,0,3.71,61.744Zm14.868-.882A4.509,4.509,0,0,1,15.3,56.956V56.13H18.34V55.5H11.508v.63H14.56v.826A4.728,4.728,0,0,1,11.312,61.1l.378.588a5.445,5.445,0,0,0,3.262-3.3,5.359,5.359,0,0,0,3.262,3.066Zm-5.6,2.562H20.44V66.98h.742V62.808h-8.2Zm7.462-8.876V62.08h.742V54.548Zm12.32,11.62H26.012v-2.03H32.76Zm0-2.646H26.012V61.674H25.27V66.8h8.218V61.674H32.76Zm.364-3.78A16.11,16.11,0,0,0,33.474,56V55.15H25.2v.63h7.56V56a14.493,14.493,0,0,1-.392,3.738H23.744v.63h11.27v-.63Zm12.656-2.7v1.652H42.532V57.04ZM41.8,59.882H37.828V57.74H41.8Zm.728-.588H45.78v1.792h.742V54.548H45.78v1.876H42.532V55.15H41.8v1.988H37.828V55.15h-.742V60.5h5.446ZM39.41,66.168v-1.68h7.112V61.772H38.654v.616h7.14V63.9H38.682v2.884h8.372v-.616Zm15.386.014a2.854,2.854,0,0,0,3.08-2.884,2.66,2.66,0,0,0-2.24-2.632V60.6a2.547,2.547,0,0,0,1.876-2.52A2.484,2.484,0,0,0,54.754,55.6a3.965,3.965,0,0,0-2.73,1.2l.476.56a3.2,3.2,0,0,1,2.24-1.078,1.787,1.787,0,0,1,1.932,1.848c0,1.218-.784,2.184-3.024,2.184V61c2.436,0,3.388.924,3.388,2.3a2.125,2.125,0,0,1-2.268,2.184,3.491,3.491,0,0,1-2.688-1.246l-.462.546A4.127,4.127,0,0,0,54.8,66.182ZM68.642,63.8h.742V54.548h-.742V56.3H64.82v.63h3.822V58.72H64.82v.616h3.822Zm-2.226-3.136a28.952,28.952,0,0,1-5.5.476h-.168V55.514H60v6.272h.91A29.8,29.8,0,0,0,66.5,61.31Zm-4.088,5.376v-3.01h-.742v3.64h8.162v-.63ZM75.866,57.4h2.926v-.63H75.866V54.73h-.742v2.044H72.17v.63h2.968V58.65a6.215,6.215,0,0,1-3.262,5.292l.434.574a6.871,6.871,0,0,0,3.206-4.144,6.483,6.483,0,0,0,3.052,3.906l.448-.588a5.943,5.943,0,0,1-3.15-5.04Zm7.7,2.408H81.382V54.548H80.64V66.98h.742V60.456h2.184ZM96.5,57.362a23.22,23.22,0,0,1-.448,5.292l.742.1a24.919,24.919,0,0,0,.434-5.39V55.92H88.7v.616h7.8Zm-2.2,7.084V60.232h-.728v4.214H91.238V60.232H90.51v4.214H87.5v.63H98.742v-.63Zm11.466-8.974c2.156,0,3.556.658,3.556,1.722s-1.4,1.736-3.556,1.736-3.528-.672-3.528-1.736S103.628,55.472,105.77,55.472Zm0,4.06c2.674,0,4.312-.854,4.312-2.338s-1.638-2.324-4.312-2.324c-2.646,0-4.284.84-4.284,2.324S103.124,59.532,105.77,59.532Zm1.75,3.542h-3.458V61.282h3.458Zm3.878-1.792v-.63H100.17v.63h3.15v1.792h-1.9v.63h7.84v3.262H110V63.074h-1.736V61.282Z" transform="translate(711.535 2338.724)"/>
  </g>
  <g id="그룹_221" data-name="그룹 221" transform="translate(-679 -2187.401)">
    <text id="_4" data-name=" " class="cls-5" transform="translate(1025.549 2338.724)"><tspan x="0" y="0"> </tspan></text>
    <text id="_5" data-name=" " class="cls-5" transform="translate(961.653 2338.724)"><tspan x="0" y="0"> </tspan></text>
    <text id="_6" data-name=" " class="cls-5" transform="translate(919.933 2338.724)"><tspan x="0" y="0"> </tspan></text>
    <path id="패스_23604" data-name="패스 23604" class="cls-2" d="M3.71-4.256a.738.738,0,0,0,.728-.756.725.725,0,0,0-.728-.77A.722.722,0,0,0,3-5.012.736.736,0,0,0,3.71-4.256ZM20.1-9.7a11.078,11.078,0,0,1-.336,3.164l.714.1A11.68,11.68,0,0,0,20.818-9.7V-10.78H12.446v.63H20.1ZM16.66.336c-2.114,0-3.542-.644-3.542-1.638s1.428-1.652,3.542-1.652S20.216-2.3,20.216-1.3,18.774.336,16.66.336Zm0-3.892c-2.632,0-4.284.84-4.284,2.254S14.028.938,16.66.938,20.944.112,20.944-1.3,19.292-3.556,16.66-3.556ZM16.7-5.53V-8.05H15.96v2.52H11.088v.63H22.3v-.63ZM29.358.35c-2.17,0-3.486-.49-3.486-1.372,0-.854,1.316-1.372,3.486-1.372s3.486.518,3.486,1.372C32.844-.14,31.528.35,29.358.35Zm0-3.318c-2.7,0-4.228.672-4.228,1.946S26.656.938,29.358.938s4.228-.672,4.228-1.96S32.06-2.968,29.358-2.968Zm.364-1.792V-6.272h3.864v-.6H26.012v-1.54H33.18v-.6H26.012v-1.456H33.53v-.6H25.27v4.8h3.71V-4.76H23.744v.63H34.972v-.63Zm8.61,2h7.462V.98h.742V-3.388h-8.2Zm4.4-3.92a3.187,3.187,0,0,0,.2-1.12,3.108,3.108,0,0,0-.2-1.106h3.066v2.226ZM39.774-5.5a2.315,2.315,0,0,1-2.436-2.3,2.334,2.334,0,0,1,2.436-2.31A2.334,2.334,0,0,1,42.21-7.8,2.315,2.315,0,0,1,39.774-5.5Zm6.02-5.964v1.932H42.378a3.163,3.163,0,0,0-2.6-1.2,2.934,2.934,0,0,0-3.15,2.94,2.924,2.924,0,0,0,3.15,2.926,3.192,3.192,0,0,0,2.6-1.19h3.416v1.918h.742v-7.322ZM56.5-5.824a32.936,32.936,0,0,1-5.894.434h-.2V-7.5h4.774v-3.164H49.644v.63h4.83v1.932H49.686V-4.76h.924a35.263,35.263,0,0,0,5.978-.42ZM54.74.35c-2,0-3.29-.616-3.29-1.61s1.288-1.6,3.29-1.6,3.29.616,3.29,1.6S56.742.35,54.74.35Zm0-3.808c-2.492,0-4.018.8-4.018,2.2S52.248.952,54.74.952s4.018-.8,4.018-2.212S57.246-3.458,54.74-3.458Zm5.866-5.264v-.644H58.66v-2.086h-.742v7.546h.742V-6.1h1.946v-.63H58.66V-8.722Zm13.048.084a23.22,23.22,0,0,1-.448,5.292l.742.1a24.918,24.918,0,0,0,.434-5.39V-10.08H65.856v.616h7.8Zm-2.2,7.084V-5.768h-.728v4.214H68.39V-5.768h-.728v4.214h-3.01v.63H75.894v-.63Zm11.466-8.974c2.156,0,3.556.658,3.556,1.722s-1.4,1.736-3.556,1.736-3.528-.672-3.528-1.736S80.78-10.528,82.922-10.528Zm0,4.06c2.674,0,4.312-.854,4.312-2.338S85.6-11.13,82.922-11.13c-2.646,0-4.284.84-4.284,2.324S80.276-6.468,82.922-6.468Zm1.75,3.542H81.214V-4.718h3.458ZM88.55-4.718v-.63H77.322v.63h3.15v1.792h-1.9v.63h7.84V.966h.742V-2.926H85.414V-4.718ZM3.71,17.744a.738.738,0,0,0,.728-.756.723.723,0,1,0-1.442,0A.736.736,0,0,0,3.71,17.744Zm9.6,1.512h-.742v3.416h8.5v-.63H13.314Zm.014-5.81h6.748v1.9H13.328Zm3.738,4v-1.5h3.752v-4.9h-.742V12.83H13.328V11.052h-.742v4.9h3.738v1.5H11.06v.63H22.3v-.63Zm15.708-1.722h-6.8v-2.17h6.8Zm.742-4.676h-.742v1.89h-6.8v-1.89h-.742v5.306h8.288Zm1.5,6.986h-11.3v.63h5.25V22.98h.742V18.668h5.306Zm6.874-2.016H37.744v-3.99h4.144Zm.714-4.606H37.016v5.222H42.6Zm-.014,7.756,3.64-.014v-.63H38.206v.63h3.626v.014c0,1.582-2.226,2.828-4.088,3.178l.294.574c1.68-.322,3.514-1.26,4.172-2.632.686,1.358,2.52,2.31,4.172,2.646l.294-.588C44.828,22,42.588,20.74,42.588,19.172Zm3.4-5.488V10.548h-.742V17.7h.742V14.328h1.946v-.644ZM50.078,15.9c1.862-.266,3.906-1.022,4.62-2.436.714,1.414,2.758,2.17,4.634,2.436l.224-.6c-2.044-.224-4.452-1.2-4.466-2.912h4.046v-.616h-4.06V10.408h-.742v1.358H50.288v.616h4.018c-.014,1.708-2.422,2.688-4.466,2.912Zm8.12,6.258H51.212v-2.52H58.2Zm2.114-4.746v-.63H49.07v.63h5.264v1.61H50.5v3.766h8.428V19.018h-3.85v-1.61Zm13.342-4.046a23.22,23.22,0,0,1-.448,5.292l.742.1a24.918,24.918,0,0,0,.434-5.39V11.92H65.856v.616h7.8Zm-2.2,7.084V16.232h-.728v4.214H68.39V16.232h-.728v4.214h-3.01v.63H75.894v-.63Zm11.466-8.974c2.156,0,3.556.658,3.556,1.722s-1.4,1.736-3.556,1.736-3.528-.672-3.528-1.736S80.78,11.472,82.922,11.472Zm0,4.06c2.674,0,4.312-.854,4.312-2.338S85.6,10.87,82.922,10.87c-2.646,0-4.284.84-4.284,2.324S80.276,15.532,82.922,15.532Zm1.75,3.542H81.214V17.282h3.458Zm3.878-1.792v-.63H77.322v.63h3.15v1.792h-1.9v.63h7.84v3.262h.742V19.074H85.414V17.282ZM3.71,39.744a.738.738,0,0,0,.728-.756.723.723,0,1,0-1.442,0A.736.736,0,0,0,3.71,39.744Zm8.848-3.514a2.321,2.321,0,0,1,2.562-2.2,2.224,2.224,0,1,1,0,4.4A2.321,2.321,0,0,1,12.558,36.23Zm2.94,2.828a2.853,2.853,0,0,0,2.9-2.828c0-1.694-1.344-2.842-3.276-2.842s-3.276,1.148-3.276,2.842a2.865,2.865,0,0,0,2.912,2.828v2.408c-1.3.042-2.548.042-3.612.042l.126.644a47.028,47.028,0,0,0,8.218-.518l-.07-.574a32.619,32.619,0,0,1-3.92.364Zm4.8-6.524v12.46h.742V32.534Zm12.474,5.194h-6.8v-2.17h6.8Zm.742-4.676h-.742v1.89h-6.8v-1.89h-.742v5.306h8.288Zm1.5,6.986h-11.3v.63h5.25V44.98h.742V40.668h5.306Zm5.474-6.23c1.4,0,2.408.8,2.408,1.862s-1.008,1.876-2.408,1.876-2.38-.8-2.38-1.876S39.1,33.808,40.488,33.808Zm0,4.368c1.834,0,3.122-1.008,3.122-2.506s-1.288-2.492-3.122-2.492-3.094,1.008-3.094,2.492S38.668,38.176,40.488,38.176Zm4.256.77a59.4,59.4,0,0,1-8.4.462l.126.658c1.106,0,2.38-.014,3.724-.07v4.592h.742V39.954a36.207,36.207,0,0,0,3.864-.42Zm.98-6.384V44.994h.742V32.562ZM56.21,38.33a29.623,29.623,0,0,1-5.586.35h-.168V36.594H55.1v-.616H50.456V34.032h4.858V33.4h-5.6V39.31h.91a29.586,29.586,0,0,0,5.684-.364Zm-5.5,3.052h7.21v3.584h.742V40.752H50.708Zm9.9-5.376H58.66V32.548h-.742V40.08h.742V36.636h1.946Zm13.048-.644a23.22,23.22,0,0,1-.448,5.292l.742.1a24.918,24.918,0,0,0,.434-5.39V33.92H65.856v.616h7.8Zm-2.2,7.084V38.232h-.728v4.214H68.39V38.232h-.728v4.214h-3.01v.63H75.894v-.63Zm11.466-8.974c2.156,0,3.556.658,3.556,1.722s-1.4,1.736-3.556,1.736-3.528-.672-3.528-1.736S80.78,33.472,82.922,33.472Zm0,4.06c2.674,0,4.312-.854,4.312-2.338S85.6,32.87,82.922,32.87c-2.646,0-4.284.84-4.284,2.324S80.276,37.532,82.922,37.532Zm1.75,3.542H81.214V39.282h3.458Zm3.878-1.792v-.63H77.322v.63h3.15v1.792h-1.9v.63h7.84v3.262h.742V41.074H85.414V39.282ZM3.71,61.744a.738.738,0,0,0,.728-.756.723.723,0,1,0-1.442,0A.736.736,0,0,0,3.71,61.744Zm9.492,2.6h7.686V61.422H12.446v.616H20.16v1.708H12.474v3.038H21.2v-.616H13.2Zm7.308-5.026a16.538,16.538,0,0,0,.294-3.458V55.08H12.53v.63h7.56v.154a15.935,15.935,0,0,1-.308,3.458H11.06v.63H22.344v-.63Zm9.212,5.39V62.094h4.116v-.63h-7.9V59.07h7.6V55.542H25.172v.616h7.644v2.3h-7.6v3.64H28.98v2.618H23.73v.644h11.3v-.644ZM41.8,59.868H37.828V57.74H41.8Zm.728-1.778H45.78v2.982h.742V54.548H45.78V57.46H42.532V55.15H41.8v1.974H37.828V55.15h-.742V60.5h5.446ZM39.41,66.168v-1.68h7.112v-2.73H38.654v.63h7.14v1.5H38.682v2.9h8.372v-.616Zm15.834-2.716c-1.372,0-2.324-1.512-2.324-3.626s.952-3.612,2.324-3.612,2.324,1.484,2.324,3.612S56.616,63.452,55.244,63.452Zm6.118-8.9v4.886H58.254c-.126-2.366-1.33-3.878-3.01-3.878-1.778,0-3.024,1.68-3.024,4.27s1.246,4.27,3.024,4.27c1.722,0,2.94-1.568,3.024-4.046h3.094v6.93H62.1V54.548Zm10.7,1.442h-3.3V54.464h-.742V55.99H64.694v.616h7.364Zm-5.922,3.64c0-.966.91-1.624,2.24-1.624s2.226.658,2.226,1.624-.9,1.61-2.226,1.61S66.136,60.582,66.136,59.63Zm5.166,0c0-1.372-1.162-2.212-2.926-2.212s-2.94.84-2.94,2.212,1.176,2.212,2.94,2.212S71.3,60.988,71.3,59.63ZM66.276,63.7h7.21v3.262h.742V63.074H66.276Zm9.9-5.6H74.228v-3.57h-.742V62.3h.742V58.748h1.946Zm8.246-1.6h3.136v-.644H80.612v.644h3.08v2.1a6.829,6.829,0,0,1-3.43,5.348l.462.6a7.639,7.639,0,0,0,3.332-4.312,7.04,7.04,0,0,0,3.4,4l.448-.588a6.175,6.175,0,0,1-3.486-5.054Zm5.138-1.96V66.98H90.3V54.548Zm9.94,7.42v.588h2.646v1.47h.742V54.562h-.742v7.406Zm-2.618-6.3c1.372,0,2.324.644,2.324,1.554,0,.938-.952,1.568-2.324,1.568s-2.324-.63-2.324-1.568C94.556,56.312,95.508,55.668,96.88,55.668Zm0,3.7c1.82,0,3.024-.826,3.024-2.142s-1.2-2.128-3.024-2.128-3.038.826-3.038,2.128S95.06,59.364,96.88,59.364Zm-.28,4.158h.742V60.988a34.563,34.563,0,0,0,3.626-.364l-.07-.546a68.471,68.471,0,0,1-8.092.364l.112.644c1.092,0,2.338,0,3.682-.056Zm-1.176,2.52V63.088H94.7v3.584h8.512v-.63ZM3.71,83.744a.738.738,0,0,0,.728-.756.723.723,0,1,0-1.442,0A.736.736,0,0,0,3.71,83.744Zm12.8-1.428H12.4V78.13h4.1Zm3.948-3.01V81.14h-3.22V79.306Zm-3.22,2.464h3.22v2.17H21.2V76.548h-.742v2.128h-3.22V77.514H11.69v5.418h5.544Zm-.056,6.566c-2.03,0-3.332-.644-3.332-1.694s1.3-1.694,3.332-1.694,3.346.658,3.346,1.694S19.208,88.336,17.178,88.336Zm0-3.99c-2.52,0-4.074.826-4.074,2.3s1.554,2.3,4.074,2.3,4.074-.826,4.074-2.3S19.7,84.346,17.178,84.346ZM27.65,77.682h-.714v2.492a6.88,6.88,0,0,1-3.318,5.488l.462.6a7.63,7.63,0,0,0,3.234-4.382A7.221,7.221,0,0,0,30.534,86L31,85.424a6.606,6.606,0,0,1-3.346-5.25Zm7.728,4.046H33.194V76.534h-.742V88.98h.742V82.358h2.184Zm13.776-.588H41.58V79.572h7.168v-.6H41.58V77.514H49.1v-.6h-8.26v4.844h8.316Zm-8.6,4.718H48.3V88.98h.742V85.242H40.558ZM39.312,83.17v.63H50.54v-.63Zm13.244-5.642v.63h4.858c-.182,2.422-2.24,4.284-5.362,5.25l.308.616c3.57-1.092,5.866-3.416,5.866-6.5Zm5.152,10.794c-1.946,0-3.234-.672-3.234-1.708s1.288-1.722,3.234-1.722c1.974,0,3.262.672,3.262,1.722S59.682,88.322,57.708,88.322Zm0-4.046c-2.422,0-3.962.868-3.962,2.338s1.54,2.31,3.962,2.31c2.45,0,3.99-.854,3.99-2.31S60.158,84.276,57.708,84.276Zm3.85-4.326v-3.4h-.742v7.574h.742V80.58H63.5v-.63Z" transform="translate(916.629 2338.724)"/>
  </g>
  <g id="그룹_222" data-name="그룹 222" transform="translate(-679 -2187.401)">
    <text id="_7" data-name=" " class="cls-5" transform="translate(1233.455 2338.724)"><tspan x="0" y="0"> </tspan></text>
    <text id="_8" data-name=" " class="cls-5" transform="translate(1169.559 2338.724)"><tspan x="0" y="0"> </tspan></text>
    <text id="_9" data-name=" " class="cls-5" transform="translate(1127.839 2338.724)"><tspan x="0" y="0"> </tspan></text>
    <path id="패스_23603" data-name="패스 23603" class="cls-2" d="M3.71-4.256a.738.738,0,0,0,.728-.756.725.725,0,0,0-.728-.77A.722.722,0,0,0,3-5.012.736.736,0,0,0,3.71-4.256ZM20.1-9.7a11.078,11.078,0,0,1-.336,3.164l.714.1A11.68,11.68,0,0,0,20.818-9.7V-10.78H12.446v.63H20.1ZM16.66.336c-2.114,0-3.542-.644-3.542-1.638s1.428-1.652,3.542-1.652S20.216-2.3,20.216-1.3,18.774.336,16.66.336Zm0-3.892c-2.632,0-4.284.84-4.284,2.254S14.028.938,16.66.938,20.944.112,20.944-1.3,19.292-3.556,16.66-3.556ZM16.7-5.53V-8.05H15.96v2.52H11.088v.63H22.3v-.63ZM27.216-8.386h2.562V-9.03H27.23V-11H26.5V-9.03H23.94v.644H26.5V-7.6A6.458,6.458,0,0,1,23.7-2.31l.476.574A6.636,6.636,0,0,0,26.866-5.81,6.414,6.414,0,0,0,29.582-2l.476-.56A6.027,6.027,0,0,1,27.216-7.6Zm6.3-3.08V-6.3H31.5v-4.858h-.714V.308H31.5v-5.95h2.016V.98h.728V-11.466Zm13.006.028H45.78V-2.3h.742ZM43.806-5a5.068,5.068,0,0,1-3.234-4.466v-1.288h-.728v1.288a5.3,5.3,0,0,1-3.206,4.7l.42.6a5.937,5.937,0,0,0,3.164-3.668A5.673,5.673,0,0,0,43.414-4.41ZM39.452.042V-3.122H38.71V.672h8.232V.042Zm19-11.494v6.664h.742v-6.664ZM51.338-4.13V.784h7.854V-4.13h-.728v1.736H52.08V-4.13Zm.742,2.352h6.384V.168H52.08Zm.49-9.03a2.852,2.852,0,0,0-3.136,2.814A2.852,2.852,0,0,0,52.57-5.18a2.861,2.861,0,0,0,3.164-2.814A2.861,2.861,0,0,0,52.57-10.808Zm0,.63a2.242,2.242,0,0,1,2.45,2.184A2.25,2.25,0,0,1,52.57-5.81a2.241,2.241,0,0,1-2.422-2.184A2.233,2.233,0,0,1,52.57-10.178Zm13.09-.14h-.714v2.492a6.88,6.88,0,0,1-3.318,5.488l.462.6a7.63,7.63,0,0,0,3.234-4.382A7.221,7.221,0,0,0,68.544-2l.462-.574a6.606,6.606,0,0,1-3.346-5.25Zm7.728,4.046H71.2v-5.194h-.742V.98H71.2V-5.642h2.184Zm7.644,2.24v.588h2.646v1.47h.742v-9.464h-.742v7.406Zm-2.618-6.3c1.372,0,2.324.644,2.324,1.554,0,.938-.952,1.568-2.324,1.568S76.09-7.84,76.09-8.778C76.09-9.688,77.042-10.332,78.414-10.332Zm0,3.7c1.82,0,3.024-.826,3.024-2.142s-1.2-2.128-3.024-2.128-3.038.826-3.038,2.128S76.594-6.636,78.414-6.636Zm-.28,4.158h.742V-5.012A34.563,34.563,0,0,0,82.5-5.376l-.07-.546a68.472,68.472,0,0,1-8.092.364l.112.644c1.092,0,2.338,0,3.682-.056ZM76.958.042V-2.912H76.23V.672h8.512V.042Zm22.036-8.68a23.22,23.22,0,0,1-.448,5.292l.742.1a24.919,24.919,0,0,0,.434-5.39V-10.08H91.2v.616h7.8ZM96.8-1.554V-5.768h-.728v4.214H93.73V-5.768H93v4.214h-3.01v.63h11.242v-.63Zm11.466-8.974c2.156,0,3.556.658,3.556,1.722s-1.4,1.736-3.556,1.736-3.528-.672-3.528-1.736S106.12-10.528,108.262-10.528Zm0,4.06c2.674,0,4.312-.854,4.312-2.338s-1.638-2.324-4.312-2.324c-2.646,0-4.284.84-4.284,2.324S105.616-6.468,108.262-6.468Zm1.75,3.542h-3.458V-4.718h3.458Zm3.878-1.792v-.63H102.662v.63h3.15v1.792h-1.9v.63h7.84V.966h.742V-2.926h-1.736V-4.718ZM3.71,17.744a.738.738,0,0,0,.728-.756.723.723,0,1,0-1.442,0A.736.736,0,0,0,3.71,17.744Zm16.744-4.088V15.63H16.87v.63h3.584v1.9H21.2v-7.6h-.742v2.464H17.248a5.67,5.67,0,0,0,.2-1.484H11.886v.616h4.76c-.2,2.436-2.338,4.284-5.376,5.236l.336.616c2.6-.826,4.592-2.324,5.418-4.354Zm-3.248,8.666c-2.03,0-3.346-.672-3.346-1.722s1.316-1.694,3.346-1.694c2,0,3.332.658,3.332,1.694S19.208,22.322,17.206,22.322Zm0-4.018c-2.52,0-4.074.854-4.074,2.3,0,1.47,1.554,2.324,4.074,2.324,2.492,0,4.046-.854,4.046-2.324C21.252,19.158,19.7,18.3,17.206,18.3ZM30.422,16.54a28.064,28.064,0,0,1-5.264.308h-.14V14.58h4.536V11.3H24.248v.63h4.578v2.044H24.29v3.5h.868a29.325,29.325,0,0,0,5.348-.308Zm-4.76,3h7.462v3.472h.742v-4.1h-8.2Zm7.462-8.988v1.918H30.436v.63h2.688v1.89H30.436v.63h2.688v2.562h.742v-7.63Zm10.794,6.314a4.509,4.509,0,0,1-3.276-3.906V12.13H43.68V11.5H36.848v.63H39.9v.826A4.728,4.728,0,0,1,36.652,17.1l.378.588a5.445,5.445,0,0,0,3.262-3.3,5.359,5.359,0,0,0,3.262,3.066Zm-5.6,2.562H45.78V22.98h.742V18.808h-8.2Zm7.462-8.876V18.08h.742V10.548Zm16.31.014h-.742V19.7h.742ZM59.374,17a5.068,5.068,0,0,1-3.234-4.466V11.248h-.728v1.288a5.3,5.3,0,0,1-3.206,4.7l.42.6a5.937,5.937,0,0,0,3.164-3.668,5.673,5.673,0,0,0,3.192,3.416Zm-4.354,5.04V18.878h-.742v3.794H62.51v-.63Zm20.86-5.166H73.892a21.079,21.079,0,0,0,.378-4.48V11.4H66.136v.63h7.406V12.4a19.724,19.724,0,0,1-.406,4.48h-8.5v.63h3.136v5.46h.742v-5.46H72v5.46h.742v-5.46H75.88Zm10.808-6.328v6.664h.742V10.548ZM79.576,17.87v4.914H87.43V17.87H86.7v1.736H80.318V17.87Zm.742,2.352H86.7v1.946H80.318Zm.49-9.03a2.833,2.833,0,1,0,3.164,2.814A2.852,2.852,0,0,0,80.808,11.192Zm0,.63a2.2,2.2,0,1,1-2.422,2.184A2.242,2.242,0,0,1,80.808,11.822Zm13.09-.14h-.714v2.492a6.88,6.88,0,0,1-3.318,5.488l.462.6a7.63,7.63,0,0,0,3.234-4.382A7.221,7.221,0,0,0,96.782,20l.462-.574a6.606,6.606,0,0,1-3.346-5.25Zm7.728,4.046H99.442V10.534H98.7V22.98h.742V16.358h2.184Zm5-3.22h2.926v-.644h-6.636v.644H105.9v2.086a6.823,6.823,0,0,1-3.4,5.348l.462.616a7.68,7.68,0,0,0,3.3-4.34,7.233,7.233,0,0,0,3.234,4.032l.434-.6a6.324,6.324,0,0,1-3.3-5.054Zm7.672,3.22h-2.184v-5.18h-.742V22.98h.742V16.358H114.3Zm12.936-2.366a23.22,23.22,0,0,1-.448,5.292l.742.1a24.919,24.919,0,0,0,.434-5.39V11.92h-8.526v.616h7.8Zm-2.2,7.084V16.232h-.728v4.214h-2.338V16.232h-.728v4.214h-3.01v.63h11.242v-.63ZM136.5,11.472c2.156,0,3.556.658,3.556,1.722s-1.4,1.736-3.556,1.736-3.528-.672-3.528-1.736S134.358,11.472,136.5,11.472Zm0,4.06c2.674,0,4.312-.854,4.312-2.338s-1.638-2.324-4.312-2.324c-2.646,0-4.284.84-4.284,2.324S133.854,15.532,136.5,15.532Zm1.75,3.542h-3.458V17.282h3.458Zm3.878-1.792v-.63H130.9v.63h3.15v1.792h-1.9v.63h7.84v3.262h.742V19.074h-1.736V17.282Z" transform="translate(1120.517 2338.724)"/>
  </g>
  <g id="그룹_223" data-name="그룹 223" transform="translate(-679 -2187.401)">
    <text id="_10" data-name=" " class="cls-5" transform="translate(1444.214 2338.724)"><tspan x="0" y="0"> </tspan></text>
    <text id="_11" data-name=" " class="cls-5" transform="translate(1380.318 2338.724)"><tspan x="0" y="0"> </tspan></text>
    <text id="_12" data-name=" " class="cls-5" transform="translate(1338.597 2338.724)"><tspan x="0" y="0"> </tspan></text>
    <path id="패스_23602" data-name="패스 23602" class="cls-2" d="M3.71-4.256a.738.738,0,0,0,.728-.756.725.725,0,0,0-.728-.77A.722.722,0,0,0,3-5.012.736.736,0,0,0,3.71-4.256Zm16.744.2H21.2v-7.406h-.742V-8.6H17.486v.63h2.968ZM18.27-5.32a4.628,4.628,0,0,1-3.192-4.046v-1.358H14.35v1.372a4.807,4.807,0,0,1-3.22,4.368l.392.6A5.527,5.527,0,0,0,14.742-7.8a5.4,5.4,0,0,0,3.094,3.052ZM17.178.336c-2.03,0-3.332-.658-3.332-1.694s1.3-1.694,3.332-1.694,3.346.658,3.346,1.694S19.208.336,17.178.336Zm0-3.99c-2.534,0-4.074.826-4.074,2.3s1.54,2.3,4.074,2.3,4.074-.826,4.074-2.3S19.7-3.654,17.178-3.654Zm14.5-6.034H28.266V-11.34h-.742v1.652H24.108v.63h7.574ZM30.114-5.922c0,.994-.924,1.722-2.226,1.722s-2.2-.728-2.2-1.722.9-1.708,2.2-1.708S30.114-6.916,30.114-5.922Zm-5.124,0c0,1.4,1.176,2.31,2.9,2.31s2.926-.91,2.926-2.31-1.19-2.31-2.926-2.31S24.99-7.322,24.99-5.922ZM23.94-1.638a53.7,53.7,0,0,0,8.218-.49L32.1-2.7a68.617,68.617,0,0,1-8.288.406Zm9.03-9.828V.98h.742V-11.466ZM42.028.364c-2.156,0-3.5-.532-3.5-1.428s1.344-1.442,3.5-1.442,3.514.532,3.514,1.442S44.2.364,42.028.364Zm0-3.444c-2.7,0-4.242.7-4.242,2.016s1.54,2,4.242,2,4.256-.7,4.256-2S44.73-3.08,42.028-3.08Zm.378-1.652v-1.4h4.06v-.616H38.612V-8.316h7.574V-11.06h-8.33v.616h7.6V-8.9H37.884v2.772h3.78v1.4H36.386v.616h11.3v-.616Zm11.956.182a7.732,7.732,0,0,0,.154-1.568,7.59,7.59,0,0,0-.154-1.554h2.086V-4.55ZM51.884-2.576c-1.162,0-1.932-1.456-1.932-3.542s.77-3.542,1.932-3.542,1.932,1.47,1.932,3.542S53.046-2.576,51.884-2.576ZM56.448-8.3h-2.24a2.528,2.528,0,0,0-2.324-2.03c-1.582,0-2.618,1.638-2.618,4.214S50.3-1.9,51.884-1.9A2.538,2.538,0,0,0,54.208-3.92h2.24V.308h.714V-11.158h-.714Zm2.422-3.164V.98h.714V-11.466Zm8.386,5.81H63.1V-8.008h4.158Zm.728-5.026h-.728v2.058H63.1v-2.058h-.742v5.656h5.628ZM67.41.336c-1.988,0-3.276-.616-3.276-1.638,0-.994,1.288-1.624,3.276-1.624S70.7-2.3,70.7-1.3C70.7-.28,69.412.336,67.41.336Zm0-3.878c-2.492,0-4,.812-4,2.24s1.512,2.254,4,2.254S71.428.14,71.428-1.3,69.9-3.542,67.41-3.542ZM71.33-8.19v-3.262h-.742v7.546h.742v-3.64h1.946V-8.19Zm14.994-.448a23.22,23.22,0,0,1-.448,5.292l.742.1a24.919,24.919,0,0,0,.434-5.39V-10.08H78.526v.616h7.8Zm-2.2,7.084V-5.768H83.4v4.214H81.06V-5.768h-.728v4.214h-3.01v.63H88.564v-.63Zm11.466-8.974c2.156,0,3.556.658,3.556,1.722s-1.4,1.736-3.556,1.736-3.528-.672-3.528-1.736S93.45-10.528,95.592-10.528Zm0,4.06c2.674,0,4.312-.854,4.312-2.338s-1.638-2.324-4.312-2.324c-2.646,0-4.284.84-4.284,2.324S92.946-6.468,95.592-6.468Zm1.75,3.542H93.884V-4.718h3.458Zm3.878-1.792v-.63H89.992v.63h3.15v1.792h-1.9v.63h7.84V.966h.742V-2.926H98.084V-4.718ZM3.71,17.744a.738.738,0,0,0,.728-.756.723.723,0,1,0-1.442,0A.736.736,0,0,0,3.71,17.744Zm13.944-3.836v.63h2.8v3.416H21.2V10.548h-.742v3.36ZM18.3,16.82a4.526,4.526,0,0,1-3.136-3.878v-.77h2.912v-.63H11.466v.63h2.968v.784A4.859,4.859,0,0,1,11.2,17.184l.378.6a5.619,5.619,0,0,0,3.248-3.4,5.315,5.315,0,0,0,3.094,3.024Zm-1.12,5.53c-2.03,0-3.332-.63-3.332-1.666s1.3-1.666,3.332-1.666,3.346.63,3.346,1.666S19.208,22.35,17.178,22.35Zm0-3.934c-2.534,0-4.074.812-4.074,2.268s1.54,2.268,4.074,2.268,4.074-.812,4.074-2.268S19.7,18.416,17.178,18.416Zm8.708-3.906h6.972v2.618H25.886Zm3.836,6.174V17.758h3.864V11.472h-.728V13.88H25.886V11.472h-.742v6.286H28.98v2.926H23.73v.63h11.3v-.63Zm8.834-6.174h6.972v2.618H38.556Zm3.836,6.174V17.758h3.864V11.472h-.728V13.88H38.556V11.472h-.742v6.286H41.65v2.926H36.4v.63H47.7v-.63Zm17.276-8.148H55.076v-1.75h-.742v1.75H49.686v.63h9.982Zm-8.2,3.962c0-1.05,1.274-1.708,3.234-1.708s3.234.658,3.234,1.708-1.274,1.736-3.234,1.736S51.464,17.562,51.464,16.5Zm3.612,4.27V18.822c2.226-.084,3.6-.924,3.6-2.324,0-1.47-1.526-2.324-3.976-2.324s-3.976.854-3.976,2.324c0,1.4,1.372,2.24,3.612,2.338v1.932h-5.25v.63h11.27v-.63Zm18.578-7.406a23.22,23.22,0,0,1-.448,5.292l.742.1a24.918,24.918,0,0,0,.434-5.39V11.92H65.856v.616h7.8Zm-2.2,7.084V16.232h-.728v4.214H68.39V16.232h-.728v4.214h-3.01v.63H75.894v-.63Zm11.466-8.974c2.156,0,3.556.658,3.556,1.722s-1.4,1.736-3.556,1.736-3.528-.672-3.528-1.736S80.78,11.472,82.922,11.472Zm0,4.06c2.674,0,4.312-.854,4.312-2.338S85.6,10.87,82.922,10.87c-2.646,0-4.284.84-4.284,2.324S80.276,15.532,82.922,15.532Zm1.75,3.542H81.214V17.282h3.458Zm3.878-1.792v-.63H77.322v.63h3.15v1.792h-1.9v.63h7.84v3.262h.742V19.074H85.414V17.282ZM3.71,39.744a.738.738,0,0,0,.728-.756.723.723,0,1,0-1.442,0A.736.736,0,0,0,3.71,39.744Zm14.868-.882A4.509,4.509,0,0,1,15.3,34.956V34.13H18.34V33.5H11.508v.63H14.56v.826A4.728,4.728,0,0,1,11.312,39.1l.378.588a5.445,5.445,0,0,0,3.262-3.3,5.359,5.359,0,0,0,3.262,3.066Zm-5.6,2.562H20.44V44.98h.742V40.808h-8.2Zm7.462-8.876V40.08h.742V32.548Zm10.388,6.23a4.325,4.325,0,0,1-3.108-3.794v-.84h2.94v-.616H24.038v.616h2.954V35a4.628,4.628,0,0,1-3.22,4.116l.392.588a5.432,5.432,0,0,0,3.22-3.248,5.078,5.078,0,0,0,3.08,2.912ZM29.4,44.336c-1.988,0-3.276-.616-3.276-1.61s1.288-1.61,3.276-1.61,3.29.616,3.29,1.61S31.4,44.336,29.4,44.336Zm0-3.822c-2.492,0-4,.8-4,2.212s1.512,2.212,4,2.212,4.018-.8,4.018-2.212S31.892,40.514,29.4,40.514Zm3.92-4.634V32.548h-.742v7.56h.742V36.524h1.946V35.88Zm4.522-1.764H37.1v7.532h.742a22.067,22.067,0,0,0,4.55-.434l-.1-.658a21.014,21.014,0,0,1-4.452.42Zm8.33-1.582v5.222H44.016V32.842H43.3V44.308h.714V38.414h2.156V44.98h.714V32.534Zm12.894,6.244a4.325,4.325,0,0,1-3.108-3.794v-.84H58.9v-.616H52.276v.616H55.23V35a4.628,4.628,0,0,1-3.22,4.116l.392.588a5.432,5.432,0,0,0,3.22-3.248,5.078,5.078,0,0,0,3.08,2.912Zm-1.428,5.558c-1.988,0-3.276-.616-3.276-1.61s1.288-1.61,3.276-1.61,3.29.616,3.29,1.61S59.64,44.336,57.638,44.336Zm0-3.822c-2.492,0-4,.8-4,2.212s1.512,2.212,4,2.212,4.018-.8,4.018-2.212S60.13,40.514,57.638,40.514Zm3.92-4.634V32.548h-.742v7.56h.742V36.524H63.5V35.88Zm5.894,5.544c-1.148,0-1.918-1.442-1.918-3.542,0-2.072.77-3.542,1.918-3.542s1.932,1.47,1.932,3.542C69.384,39.982,68.614,41.424,67.452,41.424Zm0-7.756c-1.582,0-2.618,1.638-2.618,4.214S65.87,42.1,67.452,42.1s2.632-1.638,2.632-4.214S69.048,33.668,67.452,33.668Zm6.986-1.134v5.054H72.366V32.842h-.714V44.308h.714v-6.09h2.072V44.98h.714V32.534Zm12.992.028h-.742v9.17h.742Zm-9.044,3.892a2.437,2.437,0,1,1,2.436,2.366A2.339,2.339,0,0,1,78.386,36.454Zm5.586,0a3.153,3.153,0,1,0-3.15,3.024A2.962,2.962,0,0,0,83.972,36.454ZM80.36,44.042V40.766h-.742v3.906H87.85v-.63Zm19.74-11.48h-.742v9.17h.742Zm-9.044,3.892a2.437,2.437,0,1,1,2.436,2.366A2.339,2.339,0,0,1,91.056,36.454Zm5.586,0a3.153,3.153,0,1,0-3.15,3.024A2.962,2.962,0,0,0,96.642,36.454ZM93.03,44.042V40.766h-.742v3.906h8.232v-.63Zm17.052-5.4a4.9,4.9,0,0,1-3.262-4.284V33.122h-.728v1.232a5.107,5.107,0,0,1-3.234,4.522l.392.6a5.862,5.862,0,0,0,3.22-3.542,5.6,5.6,0,0,0,3.234,3.29Zm-5.516,2.73h7.462v3.6h.742V40.738h-8.2Zm7.462-8.834v7.532h.742V32.534Zm3.78,1.666v.63h4.074a7.989,7.989,0,0,1-4.466,6.86l.448.546A8.7,8.7,0,0,0,120.61,34.2Zm9.282-1.652v5.18h-2.058V32.884h-.714V44.308h.714v-5.95h2.058V44.98h.714V32.548Zm12.292,9.38h.742v-9.38h-.742v3.08H134.4v.644h2.982Zm-2.212-2.814a4.782,4.782,0,0,1-3.164-4.13V33.29h-.728v1.624a5.056,5.056,0,0,1-3.206,4.466l.392.6a5.7,5.7,0,0,0,3.192-3.5,5.564,5.564,0,0,0,3.108,3.206Zm-4.144,4.928v-3.22h-.742v3.85h8.148v-.63Zm21.546-8.68a23.22,23.22,0,0,1-.448,5.292l.742.1a24.918,24.918,0,0,0,.434-5.39V33.92h-8.526v.616h7.8Zm-2.2,7.084V38.232h-.728v4.214h-2.338V38.232h-.728v4.214h-3.01v.63h11.242v-.63Zm11.466-8.974c2.156,0,3.556.658,3.556,1.722S164,36.93,161.84,36.93s-3.528-.672-3.528-1.736S159.7,33.472,161.84,33.472Zm0,4.06c2.674,0,4.312-.854,4.312-2.338s-1.638-2.324-4.312-2.324c-2.646,0-4.284.84-4.284,2.324S159.194,37.532,161.84,37.532Zm1.75,3.542h-3.458V39.282h3.458Zm3.878-1.792v-.63H156.24v.63h3.15v1.792h-1.9v.63h7.84v3.262h.742V41.074h-1.736V39.282ZM3.71,61.744a.738.738,0,0,0,.728-.756.723.723,0,1,0-1.442,0A.736.736,0,0,0,3.71,61.744Zm14.868-.882A4.509,4.509,0,0,1,15.3,56.956V56.13H18.34V55.5H11.508v.63H14.56v.826A4.728,4.728,0,0,1,11.312,61.1l.378.588a5.445,5.445,0,0,0,3.262-3.3,5.359,5.359,0,0,0,3.262,3.066Zm-5.6,2.562H20.44V66.98h.742V62.808h-8.2Zm7.462-8.876V62.08h.742V54.548Zm10.388,6.23a4.325,4.325,0,0,1-3.108-3.794v-.84h2.94v-.616H24.038v.616h2.954V57a4.628,4.628,0,0,1-3.22,4.116l.392.588a5.432,5.432,0,0,0,3.22-3.248,5.078,5.078,0,0,0,3.08,2.912ZM29.4,66.336c-1.988,0-3.276-.616-3.276-1.61s1.288-1.61,3.276-1.61,3.29.616,3.29,1.61S31.4,66.336,29.4,66.336Zm0-3.822c-2.492,0-4,.8-4,2.212s1.512,2.212,4,2.212,4.018-.8,4.018-2.212S31.892,62.514,29.4,62.514Zm3.92-4.634V54.548h-.742v7.56h.742V58.524h1.946V57.88Zm4.522-1.764H37.1v7.532h.742a22.067,22.067,0,0,0,4.55-.434l-.1-.658a21.014,21.014,0,0,1-4.452.42Zm8.33-1.582v5.222H44.016V54.842H43.3V66.308h.714V60.414h2.156V66.98h.714V54.534Zm12.474,6.93a30.106,30.106,0,0,0,.392-5.012v-.434h-6.2v.63H58.31a27.17,27.17,0,0,1-.406,4.7Zm-2.87-1.82h-.728v3.808c-1.064.028-2.086.042-3,.042l.126.658a55.8,55.8,0,0,0,8.246-.49l-.07-.56c-1.47.182-3.052.28-4.578.336Zm5.46-5.11v12.46h.742V54.534ZM73.668,66.168H66.934V64.432h6.734Zm0-2.338H66.934V62.374h-.728v4.41h8.2v-4.41h-.742Zm-3.024-2.814V59.574H74.7v-.616H66.85V57.474h7.574V54.856h-8.33v.6h7.6v1.428H66.122v2.688H69.9v1.442H64.624v.63h11.3v-.63ZM85.12,55.99H81.7V54.422h-.742V55.99H77.518v.616h7.6Zm-6.09,3.584c0-.966.924-1.61,2.282-1.61s2.282.644,2.282,1.61-.91,1.61-2.282,1.61S79.03,60.526,79.03,59.574Zm5.264,0c0-1.372-1.176-2.2-2.982-2.2s-2.982.826-2.982,2.2,1.176,2.2,2.982,2.2S84.294,60.932,84.294,59.574Zm-4.032,3.864H86.7v2.716h-6.44Zm-.728,3.346h7.9V62.822h-7.9Zm7.154-12.25V62.08h.742V54.534Zm11.48,6.916a7.731,7.731,0,0,0,.154-1.568,7.59,7.59,0,0,0-.154-1.554h2.086V61.45ZM95.69,63.424c-1.162,0-1.932-1.456-1.932-3.542s.77-3.542,1.932-3.542,1.932,1.47,1.932,3.542S96.852,63.424,95.69,63.424Zm4.564-5.726h-2.24a2.528,2.528,0,0,0-2.324-2.03c-1.582,0-2.618,1.638-2.618,4.214S94.108,64.1,95.69,64.1a2.538,2.538,0,0,0,2.324-2.016h2.24v4.228h.714V54.842h-.714Zm2.422-3.164V66.98h.714V54.534Zm8.386,5.81H106.9V57.992h4.158Zm.728-5.026h-.728v2.058H106.9V55.318h-.742v5.656h5.628Zm-.574,11.018c-1.988,0-3.276-.616-3.276-1.638,0-.994,1.288-1.624,3.276-1.624s3.29.63,3.29,1.624C114.506,65.72,113.218,66.336,111.216,66.336Zm0-3.878c-2.492,0-4,.812-4,2.24s1.512,2.254,4,2.254,4.018-.812,4.018-2.254S113.708,62.458,111.216,62.458Zm3.92-4.648V54.548h-.742v7.546h.742v-3.64h1.946V57.81Zm14.994-.448a23.22,23.22,0,0,1-.448,5.292l.742.1a24.918,24.918,0,0,0,.434-5.39V55.92h-8.526v.616h7.8Zm-2.2,7.084V60.232H127.2v4.214h-2.338V60.232h-.728v4.214h-3.01v.63H132.37v-.63ZM139.4,55.472c2.156,0,3.556.658,3.556,1.722s-1.4,1.736-3.556,1.736-3.528-.672-3.528-1.736S137.256,55.472,139.4,55.472Zm0,4.06c2.674,0,4.312-.854,4.312-2.338s-1.638-2.324-4.312-2.324c-2.646,0-4.284.84-4.284,2.324S136.752,59.532,139.4,59.532Zm1.75,3.542H137.69V61.282h3.458Zm3.878-1.792v-.63H133.8v.63h3.15v1.792h-1.9v.63h7.84v3.262h.742V63.074H141.89V61.282Z" transform="translate(1331.276 2338.724)"/>
  </g>
  <line id="선_940" data-name="선 940" class="cls-6" y1="120.535" transform="translate(207.242 128.142)"/>
  <path id="패스_585" data-name="패스 585" class="cls-7" d="M886.242,2314.055h0m0,125h0" transform="translate(-679 -2187.401)"/>
  <line id="선_941" data-name="선 941" class="cls-6" y1="120.535" transform="translate(418 128.142)"/>
  <path id="패스_586" data-name="패스 586" class="cls-7" d="M1097,2314.055h0m0,125h0" transform="translate(-679 -2187.401)"/>
  <line id="선_942" data-name="선 942" class="cls-6" y1="120.535" transform="translate(628.759 128.142)"/>
  <path id="패스_587" data-name="패스 587" class="cls-7" d="M1307.759,2314.055h0m0,125h0" transform="translate(-679 -2187.401)"/>
  <line id="선_943" data-name="선 943" class="cls-8" y2="15" transform="translate(101.862 110.611)"/>
  <line id="선_944" data-name="선 944" class="cls-8" x2="163.724" transform="translate(20 125.792)"/>
  <line id="선_945" data-name="선 945" class="cls-8" y2="15" transform="translate(312.621 110.611)"/>
  <line id="선_946" data-name="선 946" class="cls-8" x2="163.724" transform="translate(230.759 125.792)"/>
  <line id="선_947" data-name="선 947" class="cls-8" y2="15" transform="translate(523.379 110.611)"/>
  <line id="선_948" data-name="선 948" class="cls-8" x2="163.724" transform="translate(441.517 125.792)"/>
  <line id="선_949" data-name="선 949" class="cls-8" y2="15" transform="translate(734.123 110.611)"/>
  <line id="선_950" data-name="선 950" class="cls-8" x2="163.694" transform="translate(652.276 125.792)"/>
  <line id="선_951" data-name="선 951" class="cls-8" x2="795.97" transform="translate(20 263.761)"/>
</svg>
