<svg id="구성_요소_109_1" data-name="구성 요소 109 – 1" xmlns="http://www.w3.org/2000/svg" xmlns:xlink="http://www.w3.org/1999/xlink" width="80" height="63" viewBox="0 0 80 63">
  <defs>
    <style>
      .cls-1, .cls-9 {
        fill: #fff;
      }

      .cls-2, .cls-8 {
        fill: none;
      }

      .cls-3 {
        clip-path: url(#clip-path);
      }

      .cls-4 {
        fill: #d6a803;
      }

      .cls-5 {
        clip-path: url(#clip-path-2);
      }

      .cls-6, .cls-7 {
        fill: #1e2323;
      }

      .cls-6, .cls-8, .cls-9 {
        stroke: #1e2323;
      }
    </style>
    <clipPath id="clip-path">
      <path id="패스_1231" data-name="패스 1231" class="cls-1" d="M0,0H80V-15.967H0Z" transform="translate(0 15.967)"/>
    </clipPath>
    <clipPath id="clip-path-2">
      <path id="패스_5181" data-name="패스 5181" class="cls-2" d="M0,0H36.507V-28H0Z"/>
    </clipPath>
  </defs>
  <g id="그룹_23051" data-name="그룹 23051" transform="translate(0 38.967)">
    <path id="패스_1229" data-name="패스 1229" class="cls-1" d="M.141-.145H79.858V-15.828H.141Z"/>
    <g id="그룹_836" data-name="그룹 836" class="cls-3" transform="translate(0 -15.967)">
      <path id="패스_1230" data-name="패스 1230" class="cls-1" d="M.142-.145H79.819V-15.829H.142Z" transform="translate(0.02 15.967)"/>
    </g>
  </g>
  <g id="구성_요소_14_1" data-name="구성 요소 14 – 1" transform="translate(9)">
    <path id="패스_552" data-name="패스 552" class="cls-4" d="M1298.435,3385.292a31.5,31.5,0,1,1-31.5-31.5,31.5,31.5,0,0,1,31.5,31.5" transform="translate(-1235.435 -3353.792)"/>
    <path id="패스_554" data-name="패스 554" class="cls-1" d="M1267.627,3398.4" transform="translate(-1235.435 -3353.792)"/>
    <g id="그룹_4815" data-name="그룹 4815" transform="translate(13.565 45.208)">
      <g id="그룹_4808" data-name="그룹 4808" class="cls-5">
        <g id="그룹_4805" data-name="그룹 4805" transform="translate(6.404 -23.207)">
          <path id="패스_5178" data-name="패스 5178" class="cls-6" d="M0,0H-2.879L-4.047.412a.877.877,0,0,0-.584.827V21a.156.156,0,0,0,.183.153,38.5,38.5,0,0,1,6.693-.586H7.6a1.752,1.752,0,0,1,1.752,1.753.386.386,0,0,0,.386.386h5.038a.386.386,0,0,0,.386-.386,1.752,1.752,0,0,1,1.752-1.753h5.81a38.554,38.554,0,0,1,6.7.586A.153.153,0,0,0,29.6,21V1.239a.877.877,0,0,0-.584-.827L27.852,0H24.7"/>
        </g>
        <g id="그룹_4806" data-name="그룹 4806" transform="translate(32.607 -24.524)">
          <path id="패스_5179" data-name="패스 5179" class="cls-7" d="M0,0A.43.43,0,0,0-.43-.43H-7.725A7.739,7.739,0,0,0-12.189.987L-13.624,2-15.179.931A7.738,7.738,0,0,0-19.563-.43H-27a.429.429,0,0,0-.43.43V19.418a.248.248,0,0,0,.331.235,8.6,8.6,0,0,1,2.863-.491h7.1a1.376,1.376,0,0,1,1.347,1.094.6.6,0,0,0,.586.475h2.975a.6.6,0,0,0,.586-.475A1.376,1.376,0,0,1-10.3,19.162h7.1a8.609,8.609,0,0,1,2.862.49A.249.249,0,0,0,0,19.417Z"/>
        </g>
        <g id="그룹_4807" data-name="그룹 4807" transform="translate(32.607 -24.524)">
          <path id="패스_5180" data-name="패스 5180" class="cls-8" d="M0,0A.43.43,0,0,0-.43-.43H-7.725A7.739,7.739,0,0,0-12.189.987L-13.624,2-15.179.931A7.738,7.738,0,0,0-19.563-.43H-27a.429.429,0,0,0-.43.43V19.418a.248.248,0,0,0,.331.235,8.6,8.6,0,0,1,2.863-.491h7.1a1.376,1.376,0,0,1,1.347,1.094.6.6,0,0,0,.586.475h2.975a.6.6,0,0,0,.586-.475A1.376,1.376,0,0,1-10.3,19.162h7.1a8.609,8.609,0,0,1,2.862.49A.249.249,0,0,0,0,19.417Z"/>
        </g>
      </g>
      <g id="그룹_4809" data-name="그룹 4809" transform="translate(18.89 -22.228)">
        <path id="패스_5182" data-name="패스 5182" class="cls-8" d="M0,0V17.583"/>
      </g>
      <g id="그룹_4813" data-name="그룹 4813" class="cls-5">
        <g id="그룹_4810" data-name="그룹 4810" transform="translate(5.131 -25.753)">
          <path id="패스_5183" data-name="패스 5183" class="cls-9" d="M0,0H-2.879L-4.047.412a.877.877,0,0,0-.584.827V21a.155.155,0,0,0,.182.153,38.52,38.52,0,0,1,6.694-.586H7.6a1.752,1.752,0,0,1,1.752,1.753.386.386,0,0,0,.386.386h5.038a.386.386,0,0,0,.386-.386,1.752,1.752,0,0,1,1.752-1.753h5.81a38.554,38.554,0,0,1,6.7.586A.153.153,0,0,0,29.6,21V1.239a.877.877,0,0,0-.584-.827L27.852,0H24.7"/>
        </g>
        <g id="그룹_4811" data-name="그룹 4811" transform="translate(31.334 -27.069)">
          <path id="패스_5184" data-name="패스 5184" class="cls-1" d="M0,0A.43.43,0,0,0-.43-.43H-7.725A7.739,7.739,0,0,0-12.189.987L-13.624,2-15.179.931A7.738,7.738,0,0,0-19.563-.43H-27a.429.429,0,0,0-.43.43V19.418a.248.248,0,0,0,.331.235,8.6,8.6,0,0,1,2.863-.491h7.1a1.376,1.376,0,0,1,1.347,1.094.6.6,0,0,0,.586.475h2.975a.6.6,0,0,0,.586-.475A1.376,1.376,0,0,1-10.3,19.162h7.1a8.609,8.609,0,0,1,2.862.49A.249.249,0,0,0,0,19.417Z"/>
        </g>
        <g id="그룹_4812" data-name="그룹 4812" transform="translate(31.334 -27.069)">
          <path id="패스_5185" data-name="패스 5185" class="cls-8" d="M0,0A.43.43,0,0,0-.43-.43H-7.725A7.739,7.739,0,0,0-12.189.987L-13.624,2-15.179.931A7.738,7.738,0,0,0-19.563-.43H-27a.429.429,0,0,0-.43.43V19.418a.248.248,0,0,0,.331.235,8.6,8.6,0,0,1,2.863-.491h7.1a1.376,1.376,0,0,1,1.347,1.094.6.6,0,0,0,.586.475h2.975a.6.6,0,0,0,.586-.475A1.376,1.376,0,0,1-10.3,19.162h7.1a8.609,8.609,0,0,1,2.862.49A.249.249,0,0,0,0,19.417Z"/>
        </g>
      </g>
      <g id="그룹_4814" data-name="그룹 4814" transform="translate(17.617 -25.084)">
        <path id="패스_5187" data-name="패스 5187" class="cls-8" d="M0,0V18.308"/>
      </g>
    </g>
  </g>
</svg>
