<svg id="구성_요소_110_1" data-name="구성 요소 110 – 1" xmlns="http://www.w3.org/2000/svg" xmlns:xlink="http://www.w3.org/1999/xlink" width="80" height="63" viewBox="0 0 80 63">
  <defs>
    <style>
      .cls-1 {
        fill: #fff;
      }

      .cls-2, .cls-7 {
        fill: none;
      }

      .cls-3 {
        clip-path: url(#clip-path);
      }

      .cls-4 {
        fill: #d6a803;
      }

      .cls-5 {
        clip-path: url(#clip-path-2);
      }

      .cls-6 {
        fill: #1e2323;
      }

      .cls-7 {
        stroke: #1e2323;
      }
    </style>
    <clipPath id="clip-path">
      <path id="패스_1231" data-name="패스 1231" class="cls-1" d="M0,0H80V-15.967H0Z" transform="translate(0 15.967)"/>
    </clipPath>
    <clipPath id="clip-path-2">
      <path id="패스_5201" data-name="패스 5201" class="cls-2" d="M0,0H42.847V-36H0Z"/>
    </clipPath>
  </defs>
  <g id="그룹_23052" data-name="그룹 23052" transform="translate(0 38.967)">
    <path id="패스_1229" data-name="패스 1229" class="cls-1" d="M.141-.145H79.858V-15.828H.141Z"/>
    <g id="그룹_836" data-name="그룹 836" class="cls-3" transform="translate(0 -15.967)">
      <path id="패스_1230" data-name="패스 1230" class="cls-1" d="M.142-.145H79.819V-15.829H.142Z" transform="translate(0.02 15.967)"/>
    </g>
  </g>
  <g id="구성_요소_15_1" data-name="구성 요소 15 – 1" transform="translate(9)">
    <path id="패스_557" data-name="패스 557" class="cls-4" d="M1467.149,3385.292a31.5,31.5,0,1,1-31.5-31.5,31.5,31.5,0,0,1,31.5,31.5" transform="translate(-1404.149 -3353.792)"/>
    <g id="그룹_4830" data-name="그룹 4830" transform="translate(9.851 51.208)">
      <g id="그룹_4829" data-name="그룹 4829" class="cls-5">
        <g id="그룹_4816" data-name="그룹 4816" transform="translate(15.834 -6.098)">
          <path id="패스_5188" data-name="패스 5188" class="cls-6" d="M0,0A7.92,7.92,0,0,0,7.92-7.92,7.92,7.92,0,0,0,0-15.84,7.92,7.92,0,0,0-7.92-7.92,7.92,7.92,0,0,0,0,0"/>
        </g>
        <g id="그룹_4817" data-name="그룹 4817" transform="translate(26.506 -15.004)">
          <path id="패스_5189" data-name="패스 5189" class="cls-6" d="M0,0,2.6-1.774l-.037-.164c-.094-.425-.209-.844-.341-1.249S1.934-4,1.76-4.4l-.066-.155-3.149.086a10.547,10.547,0,0,0-1.166-1.6l1.058-2.961-.127-.111a13.582,13.582,0,0,0-2.1-1.518l-.146-.085-2.5,1.914a10.809,10.809,0,0,0-1.883-.609l-.89-3.018-.169-.017a13.372,13.372,0,0,0-2.593,0l-.168.015-.891,3.017c-.327.072-.647.16-.956.26s-.621.217-.928.349l-2.5-1.918-.146.086a13.3,13.3,0,0,0-2.1,1.519l-.125.11,1.056,2.963a10.866,10.866,0,0,0-1.165,1.6l-3.148-.087L-23.1-4.4c-.345.791,1.759,4.4,1.759,4.4a10.594,10.594,0,0,0,0,1.975l-2.6,1.774.037.165c.094.423.21.843.342,1.249s.286.813.459,1.211l.067.155,3.149-.088a10.516,10.516,0,0,0,1.166,1.6L-19.782,11l.128.113a13.714,13.714,0,0,0,2.1,1.518l.146.085,2.5-1.915a10.78,10.78,0,0,0,1.883.609l.892,3.018.168.016a13.533,13.533,0,0,0,2.593,0l.167-.016.892-3.016c.325-.074.646-.16.956-.26s.622-.219.928-.349l2.5,1.916.146-.084a13.5,13.5,0,0,0,2.1-1.519L-1.566,11-2.624,8.038a10.643,10.643,0,0,0,1.165-1.6l3.149.089.067-.156a13.449,13.449,0,0,0,.8-2.457L2.6,3.752,0,1.977A10.616,10.616,0,0,0,0,0M-10.673,8.606A7.632,7.632,0,0,1-18.315.986a7.631,7.631,0,0,1,7.642-7.619A7.63,7.63,0,0,1-3.031.986a7.631,7.631,0,0,1-7.642,7.62m0-1.414,0-2.361A3.851,3.851,0,0,1-14.529.986a3.851,3.851,0,0,1,3.856-3.844A3.85,3.85,0,0,1-6.817.986a3.85,3.85,0,0,1-3.856,3.845"/>
        </g>
        <g id="그룹_4818" data-name="그룹 4818" transform="translate(26.506 -15.004)">
          <path id="패스_5190" data-name="패스 5190" class="cls-7" d="M0,0,2.6-1.774l-.037-.164c-.094-.425-.209-.844-.341-1.249S1.934-4,1.76-4.4l-.066-.155-3.149.086a10.547,10.547,0,0,0-1.166-1.6l1.058-2.961-.127-.111a13.582,13.582,0,0,0-2.1-1.518l-.146-.085-2.5,1.914a10.809,10.809,0,0,0-1.883-.609l-.89-3.018-.169-.017a13.372,13.372,0,0,0-2.593,0l-.168.015-.891,3.017c-.327.072-.647.16-.956.26s-.621.217-.928.349l-2.5-1.918-.146.086a13.3,13.3,0,0,0-2.1,1.519l-.125.11,1.056,2.963a10.866,10.866,0,0,0-1.165,1.6l-3.148-.087L-23.1-4.4c-.345.791,1.759,4.4,1.759,4.4a10.594,10.594,0,0,0,0,1.975l-2.6,1.774.037.165c.094.423.21.843.342,1.249s.286.813.459,1.211l.067.155,3.149-.088a10.516,10.516,0,0,0,1.166,1.6L-19.782,11l.128.113a13.714,13.714,0,0,0,2.1,1.518l.146.085,2.5-1.915a10.78,10.78,0,0,0,1.883.609l.892,3.018.168.016a13.533,13.533,0,0,0,2.593,0l.167-.016.892-3.016c.325-.074.646-.16.956-.26s.622-.219.928-.349l2.5,1.916.146-.084a13.5,13.5,0,0,0,2.1-1.519L-1.566,11-2.624,8.038a10.643,10.643,0,0,0,1.165-1.6l3.149.089.067-.156a13.449,13.449,0,0,0,.8-2.457L2.6,3.752,0,1.977A10.616,10.616,0,0,0,0,0ZM-10.673,8.606A7.632,7.632,0,0,1-18.315.986a7.631,7.631,0,0,1,7.642-7.619A7.63,7.63,0,0,1-3.031.986,7.631,7.631,0,0,1-10.673,8.606Zm0-1.414,0-2.361A3.851,3.851,0,0,1-14.529.986a3.851,3.851,0,0,1,3.856-3.844A3.85,3.85,0,0,1-6.817.986,3.85,3.85,0,0,1-10.673,4.831Z"/>
        </g>
        <g id="그룹_4819" data-name="그룹 4819" transform="translate(40.779 -26.243)">
          <path id="패스_5191" data-name="패스 5191" class="cls-6" d="M0,0,1.5-1.027l-.022-.1c-.055-.246-.121-.489-.2-.724s-.166-.47-.267-.7l-.038-.09-1.823.05a6.126,6.126,0,0,0-.676-.926L-.9-5.226l-.074-.065A7.891,7.891,0,0,0-2.194-6.17l-.085-.049L-3.724-5.11a6.194,6.194,0,0,0-1.09-.353L-5.33-7.211l-.1-.01a7.76,7.76,0,0,0-1.5,0l-.1.009-.516,1.747c-.189.042-.375.092-.554.151s-.36.125-.537.2l-1.446-1.111-.085.05a7.667,7.667,0,0,0-1.215.879l-.073.064.612,1.716a6.233,6.233,0,0,0-.675.925l-1.823-.05-.039.088a7.9,7.9,0,0,0-.466,1.424l-.021.1L-12.359,0a6.234,6.234,0,0,0,0,1.143L-13.864,2.17l.021.1c.055.245.122.487.2.723s.166.47.266.7l.039.09,1.823-.051a6.181,6.181,0,0,0,.675.925l-.612,1.715.074.065a7.867,7.867,0,0,0,1.215.88l.084.049,1.446-1.109a6.25,6.25,0,0,0,1.09.353l.516,1.748.1.009a8.007,8.007,0,0,0,1.5,0l.1-.009.516-1.747c.188-.043.374-.093.554-.151s.36-.127.537-.2l1.446,1.11.085-.049A7.831,7.831,0,0,0-.98,6.436l.073-.065-.612-1.716a6.27,6.27,0,0,0,.674-.924l1.824.051.039-.09a7.84,7.84,0,0,0,.465-1.423l.022-.1L0,1.145A6.169,6.169,0,0,0,0,0"/>
        </g>
        <g id="그룹_4820" data-name="그룹 4820" transform="translate(40.779 -26.243)">
          <path id="패스_5192" data-name="패스 5192" class="cls-7" d="M0,0,1.5-1.027l-.022-.1c-.055-.246-.121-.489-.2-.724s-.166-.47-.267-.7l-.038-.09-1.823.05a6.126,6.126,0,0,0-.676-.926L-.9-5.226l-.074-.065A7.891,7.891,0,0,0-2.194-6.17l-.085-.049L-3.724-5.11a6.194,6.194,0,0,0-1.09-.353L-5.33-7.211l-.1-.01a7.76,7.76,0,0,0-1.5,0l-.1.009-.516,1.747c-.189.042-.375.092-.554.151s-.36.125-.537.2l-1.446-1.111-.085.05a7.667,7.667,0,0,0-1.215.879l-.073.064.612,1.716a6.233,6.233,0,0,0-.675.925l-1.823-.05-.039.088a7.9,7.9,0,0,0-.466,1.424l-.021.1L-12.359,0a6.234,6.234,0,0,0,0,1.143L-13.864,2.17l.021.1c.055.245.122.487.2.723s.166.47.266.7l.039.09,1.823-.051a6.181,6.181,0,0,0,.675.925l-.612,1.715.074.065a7.867,7.867,0,0,0,1.215.88l.084.049,1.446-1.109a6.25,6.25,0,0,0,1.09.353l.516,1.748.1.009a8.007,8.007,0,0,0,1.5,0l.1-.009.516-1.747c.188-.043.374-.093.554-.151s.36-.127.537-.2l1.446,1.11.085-.049A7.831,7.831,0,0,0-.98,6.436l.073-.065-.612-1.716a6.27,6.27,0,0,0,.674-.924l1.824.051.039-.09a7.84,7.84,0,0,0,.465-1.423l.022-.1L0,1.145A6.169,6.169,0,0,0,0,0Z"/>
        </g>
        <g id="그룹_4821" data-name="그룹 4821" transform="translate(24.506 -17.004)">
          <path id="패스_5193" data-name="패스 5193" class="cls-1" d="M0,0,2.6-1.774l-.037-.164c-.094-.425-.209-.844-.341-1.249S1.934-4,1.76-4.4l-.066-.155-3.149.086a10.547,10.547,0,0,0-1.166-1.6l1.058-2.961-.127-.111a13.582,13.582,0,0,0-2.1-1.518l-.146-.085-2.5,1.914a10.809,10.809,0,0,0-1.883-.609l-.89-3.018-.169-.017a13.372,13.372,0,0,0-2.593,0l-.168.015-.891,3.017c-.327.072-.647.16-.956.26s-.621.217-.928.349l-2.5-1.918-.146.086a13.3,13.3,0,0,0-2.1,1.519l-.125.11,1.056,2.963a10.866,10.866,0,0,0-1.165,1.6l-3.148-.087L-23.1-4.4a13.629,13.629,0,0,0-.8,2.457l-.036.165L-21.344,0a10.594,10.594,0,0,0,0,1.975l-2.6,1.774.037.165c.094.423.21.843.342,1.249s.286.813.459,1.211l.067.155,3.149-.088a10.516,10.516,0,0,0,1.166,1.6L-19.782,11l.128.113a13.714,13.714,0,0,0,2.1,1.518l.146.085,2.5-1.915a10.78,10.78,0,0,0,1.883.609l.892,3.018.168.016a13.533,13.533,0,0,0,2.593,0l.167-.016.892-3.016c.325-.074.646-.16.956-.26s.622-.219.928-.349l2.5,1.916.146-.084a13.5,13.5,0,0,0,2.1-1.519L-1.566,11-2.624,8.038a10.643,10.643,0,0,0,1.165-1.6l3.149.089.067-.156a13.449,13.449,0,0,0,.8-2.457L2.6,3.752,0,1.977A10.616,10.616,0,0,0,0,0"/>
        </g>
        <g id="그룹_4822" data-name="그룹 4822" transform="translate(24.506 -17.004)">
          <path id="패스_5194" data-name="패스 5194" class="cls-7" d="M0,0,2.6-1.774l-.037-.164c-.094-.425-.209-.844-.341-1.249S1.934-4,1.76-4.4l-.066-.155-3.149.086a10.547,10.547,0,0,0-1.166-1.6l1.058-2.961-.127-.111a13.582,13.582,0,0,0-2.1-1.518l-.146-.085-2.5,1.914a10.809,10.809,0,0,0-1.883-.609l-.89-3.018-.169-.017a13.372,13.372,0,0,0-2.593,0l-.168.015-.891,3.017c-.327.072-.647.16-.956.26s-.621.217-.928.349l-2.5-1.918-.146.086a13.3,13.3,0,0,0-2.1,1.519l-.125.11,1.056,2.963a10.866,10.866,0,0,0-1.165,1.6l-3.148-.087L-23.1-4.4a13.629,13.629,0,0,0-.8,2.457l-.036.165L-21.344,0a10.594,10.594,0,0,0,0,1.975l-2.6,1.774.037.165c.094.423.21.843.342,1.249s.286.813.459,1.211l.067.155,3.149-.088a10.516,10.516,0,0,0,1.166,1.6L-19.782,11l.128.113a13.714,13.714,0,0,0,2.1,1.518l.146.085,2.5-1.915a10.78,10.78,0,0,0,1.883.609l.892,3.018.168.016a13.533,13.533,0,0,0,2.593,0l.167-.016.892-3.016c.325-.074.646-.16.956-.26s.622-.219.928-.349l2.5,1.916.146-.084a13.5,13.5,0,0,0,2.1-1.519L-1.566,11-2.624,8.038a10.643,10.643,0,0,0,1.165-1.6l3.149.089.067-.156a13.449,13.449,0,0,0,.8-2.457L2.6,3.752,0,1.977A10.616,10.616,0,0,0,0,0Z"/>
        </g>
        <g id="그룹_4823" data-name="그룹 4823" transform="translate(38.779 -28.243)">
          <path id="패스_5195" data-name="패스 5195" class="cls-1" d="M0,0,1.5-1.027l-.022-.1c-.055-.246-.121-.489-.2-.724s-.166-.47-.267-.7l-.038-.09-1.823.05a6.126,6.126,0,0,0-.676-.926L-.9-5.226l-.074-.065A7.891,7.891,0,0,0-2.194-6.17l-.085-.049L-3.724-5.11a6.194,6.194,0,0,0-1.09-.353L-5.33-7.211l-.1-.01a7.76,7.76,0,0,0-1.5,0l-.1.009-.516,1.747c-.189.042-.375.092-.554.151s-.36.125-.537.2l-1.446-1.111-.085.05a7.667,7.667,0,0,0-1.215.879l-.073.064.612,1.716a6.233,6.233,0,0,0-.675.925l-1.823-.05-.039.088a7.9,7.9,0,0,0-.466,1.424l-.021.1L-12.359,0a6.234,6.234,0,0,0,0,1.143L-13.864,2.17l.021.1c.055.245.122.487.2.723s.166.47.266.7l.039.09,1.823-.051a6.181,6.181,0,0,0,.675.925l-.612,1.715.074.065a7.867,7.867,0,0,0,1.215.88l.084.049,1.446-1.109a6.25,6.25,0,0,0,1.09.353l.516,1.748.1.009a8.007,8.007,0,0,0,1.5,0l.1-.009.516-1.747c.188-.043.374-.093.554-.151s.36-.127.537-.2l1.446,1.11.085-.049A7.831,7.831,0,0,0-.98,6.436l.073-.065-.612-1.716a6.27,6.27,0,0,0,.674-.924l1.824.051.039-.09a7.84,7.84,0,0,0,.465-1.423l.022-.1L0,1.145A6.169,6.169,0,0,0,0,0"/>
        </g>
        <g id="그룹_4824" data-name="그룹 4824" transform="translate(38.779 -28.243)">
          <path id="패스_5196" data-name="패스 5196" class="cls-7" d="M0,0,1.5-1.027l-.022-.1c-.055-.246-.121-.489-.2-.724s-.166-.47-.267-.7l-.038-.09-1.823.05a6.126,6.126,0,0,0-.676-.926L-.9-5.226l-.074-.065A7.891,7.891,0,0,0-2.194-6.17l-.085-.049L-3.724-5.11a6.194,6.194,0,0,0-1.09-.353L-5.33-7.211l-.1-.01a7.76,7.76,0,0,0-1.5,0l-.1.009-.516,1.747c-.189.042-.375.092-.554.151s-.36.125-.537.2l-1.446-1.111-.085.05a7.667,7.667,0,0,0-1.215.879l-.073.064.612,1.716a6.233,6.233,0,0,0-.675.925l-1.823-.05-.039.088a7.9,7.9,0,0,0-.466,1.424l-.021.1L-12.359,0a6.234,6.234,0,0,0,0,1.143L-13.864,2.17l.021.1c.055.245.122.487.2.723s.166.47.266.7l.039.09,1.823-.051a6.181,6.181,0,0,0,.675.925l-.612,1.715.074.065a7.867,7.867,0,0,0,1.215.88l.084.049,1.446-1.109a6.25,6.25,0,0,0,1.09.353l.516,1.748.1.009a8.007,8.007,0,0,0,1.5,0l.1-.009.516-1.747c.188-.043.374-.093.554-.151s.36-.127.537-.2l1.446,1.11.085-.049A7.831,7.831,0,0,0-.98,6.436l.073-.065-.612-1.716a6.27,6.27,0,0,0,.674-.924l1.824.051.039-.09a7.84,7.84,0,0,0,.465-1.423l.022-.1L0,1.145A6.169,6.169,0,0,0,0,0Z"/>
        </g>
        <g id="그룹_4825" data-name="그룹 4825" transform="translate(32.599 -24.67)">
          <path id="패스_5197" data-name="패스 5197" class="cls-1" d="M0,0A3,3,0,0,0,3-3,3,3,0,0,0,0-6,3,3,0,0,0-3-3,3,3,0,0,0,0,0"/>
        </g>
        <g id="그룹_4826" data-name="그룹 4826" transform="translate(32.599 -24.67)">
          <path id="패스_5198" data-name="패스 5198" class="cls-7" d="M0,0A3,3,0,0,0,3-3,3,3,0,0,0,0-6,3,3,0,0,0-3-3,3,3,0,0,0,0,0Z"/>
        </g>
        <g id="그룹_4827" data-name="그룹 4827" transform="translate(13.834 -10.518)">
          <path id="패스_5199" data-name="패스 5199" class="cls-1" d="M0,0A5.5,5.5,0,0,0,5.5-5.5,5.5,5.5,0,0,0,0-11,5.5,5.5,0,0,0-5.5-5.5,5.5,5.5,0,0,0,0,0"/>
        </g>
        <g id="그룹_4828" data-name="그룹 4828" transform="translate(13.834 -10.518)">
          <path id="패스_5200" data-name="패스 5200" class="cls-7" d="M0,0A5.5,5.5,0,0,0,5.5-5.5,5.5,5.5,0,0,0,0-11,5.5,5.5,0,0,0-5.5-5.5,5.5,5.5,0,0,0,0,0Z"/>
        </g>
      </g>
    </g>
  </g>
</svg>
