<svg id="구성_요소_104_1" data-name="구성 요소 104 – 1" xmlns="http://www.w3.org/2000/svg" xmlns:xlink="http://www.w3.org/1999/xlink" width="70" height="47.769" viewBox="0 0 70 47.769">
  <defs>
    <style>
      .cls-1 {
        fill: #fff;
      }

      .cls-2 {
        clip-path: url(#clip-path);
      }

      .cls-3 {
        fill: #d6a803;
      }
    </style>
    <clipPath id="clip-path">
      <path id="패스_1231" data-name="패스 1231" class="cls-1" d="M0,0H70V-15.967H0Z"/>
    </clipPath>
  </defs>
  <g id="그룹_839" data-name="그룹 839" transform="translate(0 31.967)">
    <path id="패스_1229" data-name="패스 1229" class="cls-1" d="M.141-.145H69.858V-15.828H.141Z"/>
    <g id="그룹_836" data-name="그룹 836" class="cls-2">
      <path id="패스_1230" data-name="패스 1230" class="cls-1" d="M.142-.145H69.859V-15.829H.142Z"/>
    </g>
  </g>
  <g id="구성_요소_17_1" data-name="구성 요소 17 – 1" transform="translate(11)">
    <g id="그룹_217" data-name="그룹 217" transform="translate(-1073.325 -4001.96)">
      <path id="패스_580" data-name="패스 580" d="M1122.257,4027.048a22.68,22.68,0,1,1-22.68-22.679,22.68,22.68,0,0,1,22.68,22.679"/>
      <path id="패스_581" data-name="패스 581" class="cls-3" d="M1118.685,4024.64a22.68,22.68,0,1,1-22.68-22.68,22.68,22.68,0,0,1,22.68,22.68"/>
    </g>
    <path id="패스_23606" data-name="패스 23606" class="cls-1" d="M4.56.208c2.3,0,3.808-2.048,3.808-6.144C8.368-10,6.864-12,4.56-12,2.24-12,.752-10.016.752-5.936.752-1.84,2.24.208,4.56.208Zm0-1.456c-1.2,0-2.048-1.28-2.048-4.688,0-3.376.848-4.608,2.048-4.608S6.608-9.312,6.608-5.936C6.608-2.528,5.76-1.248,4.56-1.248ZM9.52,0h7.6V-1.568H14.176c-.576,0-1.312.048-1.92.112,2.5-2.384,4.3-4.736,4.3-7.008A3.33,3.33,0,0,0,13.008-12a4.621,4.621,0,0,0-3.584,1.76l1.04,1.024a3.194,3.194,0,0,1,2.32-1.312,1.92,1.92,0,0,1,2,2.16c0,1.936-1.792,4.224-5.264,7.3Z" transform="translate(13.721 28.428)"/>
  </g>
</svg>
