<svg id="구성_요소_114_1" data-name="구성 요소 114 – 1" xmlns="http://www.w3.org/2000/svg" xmlns:xlink="http://www.w3.org/1999/xlink" width="70" height="47.769" viewBox="0 0 70 47.769">
  <defs>
    <style>
      .cls-1 {
        fill: #fff;
      }

      .cls-2 {
        clip-path: url(#clip-path);
      }

      .cls-3 {
        fill: #d6a803;
      }
    </style>
    <clipPath id="clip-path">
      <path id="패스_1231" data-name="패스 1231" class="cls-1" d="M0,0H70V-15.967H0Z"/>
    </clipPath>
  </defs>
  <g id="그룹_23056" data-name="그룹 23056" transform="translate(0 31.967)">
    <path id="패스_1229" data-name="패스 1229" class="cls-1" d="M.141-.145H69.858V-15.828H.141Z"/>
    <g id="그룹_836" data-name="그룹 836" class="cls-2">
      <path id="패스_1230" data-name="패스 1230" class="cls-1" d="M.142-.145H69.859V-15.829H.142Z"/>
    </g>
  </g>
  <g id="구성_요소_22_1" data-name="구성 요소 22 – 1" transform="translate(11)">
    <g id="그룹_208" data-name="그룹 208" transform="translate(-1369.521 -5167.022)">
      <path id="패스_562" data-name="패스 562" d="M1418.453,5192.11a22.68,22.68,0,1,1-22.68-22.679,22.68,22.68,0,0,1,22.68,22.679"/>
      <path id="패스_563" data-name="패스 563" class="cls-3" d="M1414.881,5189.7a22.68,22.68,0,1,1-22.68-22.68,22.68,22.68,0,0,1,22.68,22.68"/>
    </g>
    <path id="패스_23611" data-name="패스 23611" class="cls-1" d="M4.56.208c2.3,0,3.808-2.048,3.808-6.144C8.368-10,6.864-12,4.56-12,2.24-12,.752-10.016.752-5.936.752-1.84,2.24.208,4.56.208Zm0-1.456c-1.2,0-2.048-1.28-2.048-4.688,0-3.376.848-4.608,2.048-4.608S6.608-9.312,6.608-5.936C6.608-2.528,5.76-1.248,4.56-1.248Zm6.432-3.344,2.32-3.552c.336-.608.656-1.216.944-1.808h.064c-.032.64-.1,1.632-.1,2.272v3.088Zm6.464,0h-1.5v-7.184H13.824L9.136-4.4v1.232h5.088V0h1.728V-3.168h1.5Z" transform="translate(13.72 28.428)"/>
  </g>
</svg>
