<svg id="구성_요소_79_1" data-name="구성 요소 79 – 1" xmlns="http://www.w3.org/2000/svg" xmlns:xlink="http://www.w3.org/1999/xlink" width="60.979" height="48.084" viewBox="0 0 60.979 48.084">
  <defs>
    <style>
      .cls-1, .cls-4, .cls-6 {
        fill: none;
      }

      .cls-2 {
        clip-path: url(#clip-path);
      }

      .cls-3 {
        fill: #1e2323;
      }

      .cls-4, .cls-6 {
        stroke: #1e2323;
      }

      .cls-5 {
        fill: #fff;
      }

      .cls-6 {
        stroke-width: 0.9px;
      }
    </style>
    <clipPath id="clip-path">
      <path id="패스_14104" data-name="패스 14104" class="cls-1" d="M0,0H60.979V-48.084H0Z"/>
    </clipPath>
  </defs>
  <g id="그룹_13721" data-name="그룹 13721" class="cls-2" transform="translate(0 48.084)">
    <g id="그룹_13705" data-name="그룹 13705" transform="translate(23.509 -1.702)">
      <path id="패스_14088" data-name="패스 14088" class="cls-3" d="M0,0-2.939-13.874a5.092,5.092,0,0,0-4.9-4.143h-4.923v-3.592l3.044,1.543h5.045a2.844,2.844,0,0,0,2.8-2.808,2.794,2.794,0,0,0-2.714-2.915H-8.759l-3.736-4.487a3.05,3.05,0,0,0-2.344-1.12H-19.2a2.886,2.886,0,0,0-2.807,2.96v13.105A4.81,4.81,0,0,0-17.331-10.4h6.582L-7.33.524a.943.943,0,0,0,.889.678H-.913A.975.975,0,0,0,0,0M14.961,0,17.9-13.874a5.091,5.091,0,0,1,4.9-4.143h4.924v-3.592l-3.044,1.543H19.638a2.843,2.843,0,0,1-2.8-2.808,2.794,2.794,0,0,1,2.714-2.915H23.72l3.735-4.487A3.054,3.054,0,0,1,29.8-31.4h4.363a2.887,2.887,0,0,1,2.807,2.96v13.105A4.811,4.811,0,0,1,32.291-10.4H25.71L22.29.524A.941.941,0,0,1,21.4,1.2H15.874A.975.975,0,0,1,14.961,0M-4.587-20.066H19.548m-10.913-13-1.21,1.3-1.21-1.3a.914.914,0,0,0-.668-.3H3.862A5.614,5.614,0,0,0-1.6-27.606v7.54H16.448v-7.541a5.613,5.613,0,0,0-5.459-5.755H9.3a.914.914,0,0,0-.669.3"/>
    </g>
    <g id="그룹_13706" data-name="그룹 13706" transform="translate(23.509 -1.702)">
      <path id="패스_14089" data-name="패스 14089" class="cls-4" d="M0,0-2.939-13.874a5.092,5.092,0,0,0-4.9-4.143h-4.923v-3.592l3.044,1.543h5.045a2.844,2.844,0,0,0,2.8-2.808,2.794,2.794,0,0,0-2.714-2.915H-8.759l-3.736-4.487a3.05,3.05,0,0,0-2.344-1.12H-19.2a2.886,2.886,0,0,0-2.807,2.96v13.105A4.81,4.81,0,0,0-17.331-10.4h6.582L-7.33.524a.943.943,0,0,0,.889.678H-.913A.975.975,0,0,0,0,0ZM14.961,0,17.9-13.874a5.091,5.091,0,0,1,4.9-4.143h4.924v-3.592l-3.044,1.543H19.638a2.843,2.843,0,0,1-2.8-2.808,2.794,2.794,0,0,1,2.714-2.915H23.72l3.735-4.487A3.054,3.054,0,0,1,29.8-31.4h4.363a2.887,2.887,0,0,1,2.807,2.96v13.105A4.811,4.811,0,0,1,32.291-10.4H25.71L22.29.524A.941.941,0,0,1,21.4,1.2H15.874A.975.975,0,0,1,14.961,0ZM-4.587-20.066H19.548m-10.913-13-1.21,1.3-1.21-1.3a.914.914,0,0,0-.668-.3H3.862A5.614,5.614,0,0,0-1.6-27.606v7.54H16.448v-7.541a5.613,5.613,0,0,0-5.459-5.755H9.3A.914.914,0,0,0,8.635-33.066Z"/>
    </g>
    <g id="그룹_13707" data-name="그룹 13707" transform="translate(22.509 -2.701)">
      <path id="패스_14090" data-name="패스 14090" class="cls-5" d="M0,0-2.939-13.874a5.092,5.092,0,0,0-4.9-4.143h-4.923v-3.592l3.044,1.543h5.045a2.844,2.844,0,0,0,2.8-2.808,2.794,2.794,0,0,0-2.714-2.915H-8.759l-3.736-4.487a3.05,3.05,0,0,0-2.344-1.12H-19.2a2.886,2.886,0,0,0-2.807,2.96v13.105A4.81,4.81,0,0,0-17.331-10.4h6.582L-7.33.524a.943.943,0,0,0,.889.678H-.913A.975.975,0,0,0,0,0M14.961,0,17.9-13.874a5.091,5.091,0,0,1,4.9-4.143h4.924v-3.592l-3.044,1.543H19.638a2.843,2.843,0,0,1-2.8-2.808,2.794,2.794,0,0,1,2.714-2.915H23.72l3.735-4.487A3.054,3.054,0,0,1,29.8-31.4h4.363a2.887,2.887,0,0,1,2.807,2.96v13.105A4.811,4.811,0,0,1,32.291-10.4H25.71L22.29.524A.941.941,0,0,1,21.4,1.2H15.874A.975.975,0,0,1,14.961,0M-4.587-20.066H19.548m-10.913-13-1.21,1.3-1.21-1.3a.914.914,0,0,0-.668-.3H3.862A5.614,5.614,0,0,0-1.6-27.606v7.54H16.448v-7.541a5.613,5.613,0,0,0-5.459-5.755H9.3a.914.914,0,0,0-.669.3"/>
    </g>
    <g id="그룹_13708" data-name="그룹 13708" transform="translate(22.509 -2.701)">
      <path id="패스_14091" data-name="패스 14091" class="cls-4" d="M0,0-2.939-13.874a5.092,5.092,0,0,0-4.9-4.143h-4.923v-3.592l3.044,1.543h5.045a2.844,2.844,0,0,0,2.8-2.808,2.794,2.794,0,0,0-2.714-2.915H-8.759l-3.736-4.487a3.05,3.05,0,0,0-2.344-1.12H-19.2a2.886,2.886,0,0,0-2.807,2.96v13.105A4.81,4.81,0,0,0-17.331-10.4h6.582L-7.33.524a.943.943,0,0,0,.889.678H-.913A.975.975,0,0,0,0,0ZM14.961,0,17.9-13.874a5.091,5.091,0,0,1,4.9-4.143h4.924v-3.592l-3.044,1.543H19.638a2.843,2.843,0,0,1-2.8-2.808,2.794,2.794,0,0,1,2.714-2.915H23.72l3.735-4.487A3.054,3.054,0,0,1,29.8-31.4h4.363a2.887,2.887,0,0,1,2.807,2.96v13.105A4.811,4.811,0,0,1,32.291-10.4H25.71L22.29.524A.941.941,0,0,1,21.4,1.2H15.874A.975.975,0,0,1,14.961,0ZM-4.587-20.066H19.548m-10.913-13-1.21,1.3-1.21-1.3a.914.914,0,0,0-.668-.3H3.862A5.614,5.614,0,0,0-1.6-27.606v7.54H16.448v-7.541a5.613,5.613,0,0,0-5.459-5.755H9.3A.914.914,0,0,0,8.635-33.066Z"/>
    </g>
    <g id="그룹_13709" data-name="그룹 13709" transform="translate(35.29 -42.279)">
      <path id="패스_14092" data-name="패스 14092" class="cls-3" d="M0,0A4.354,4.354,0,0,1-4.354,4.355,4.355,4.355,0,0,1-8.709,0,4.355,4.355,0,0,1-4.354-4.355,4.354,4.354,0,0,1,0,0"/>
    </g>
    <g id="그룹_13710" data-name="그룹 13710" transform="translate(35.29 -42.279)">
      <path id="패스_14093" data-name="패스 14093" class="cls-6" d="M0,0A4.354,4.354,0,0,1-4.354,4.355,4.355,4.355,0,0,1-8.709,0,4.355,4.355,0,0,1-4.354-4.355,4.354,4.354,0,0,1,0,0Z"/>
    </g>
    <g id="그룹_13711" data-name="그룹 13711" transform="translate(54.315 -35.962)">
      <path id="패스_14094" data-name="패스 14094" class="cls-3" d="M0,0A4.181,4.181,0,0,0,4.181-4.181,4.181,4.181,0,0,0,0-8.362,4.181,4.181,0,0,0-4.181-4.181,4.181,4.181,0,0,0,0,0"/>
    </g>
    <g id="그룹_13712" data-name="그룹 13712" transform="translate(54.315 -35.962)">
      <path id="패스_14095" data-name="패스 14095" class="cls-6" d="M0,0A4.181,4.181,0,0,0,4.181-4.181,4.181,4.181,0,0,0,0-8.362,4.181,4.181,0,0,0-4.181-4.181,4.181,4.181,0,0,0,0,0Z"/>
    </g>
    <g id="그룹_13713" data-name="그룹 13713" transform="translate(11.906 -40.256)">
      <path id="패스_14096" data-name="패스 14096" class="cls-3" d="M0,0A4.354,4.354,0,0,1-4.354,4.355,4.355,4.355,0,0,1-8.709,0,4.355,4.355,0,0,1-4.354-4.355,4.354,4.354,0,0,1,0,0"/>
    </g>
    <g id="그룹_13714" data-name="그룹 13714" transform="translate(11.906 -40.256)">
      <path id="패스_14097" data-name="패스 14097" class="cls-6" d="M0,0A4.354,4.354,0,0,1-4.354,4.355,4.355,4.355,0,0,1-8.709,0,4.355,4.355,0,0,1-4.354-4.355,4.354,4.354,0,0,1,0,0Z"/>
    </g>
    <g id="그룹_13715" data-name="그룹 13715" transform="translate(34.29 -43.279)">
      <path id="패스_14098" data-name="패스 14098" class="cls-5" d="M0,0A4.354,4.354,0,0,1-4.354,4.355,4.355,4.355,0,0,1-8.709,0,4.355,4.355,0,0,1-4.354-4.355,4.354,4.354,0,0,1,0,0"/>
    </g>
    <g id="그룹_13716" data-name="그룹 13716" transform="translate(34.29 -43.279)">
      <path id="패스_14099" data-name="패스 14099" class="cls-6" d="M0,0A4.354,4.354,0,0,1-4.354,4.355,4.355,4.355,0,0,1-8.709,0,4.355,4.355,0,0,1-4.354-4.355,4.354,4.354,0,0,1,0,0Z"/>
    </g>
    <g id="그룹_13717" data-name="그룹 13717" transform="translate(53.315 -36.962)">
      <path id="패스_14100" data-name="패스 14100" class="cls-5" d="M0,0A4.181,4.181,0,0,0,4.181-4.181,4.181,4.181,0,0,0,0-8.362,4.181,4.181,0,0,0-4.181-4.181,4.181,4.181,0,0,0,0,0"/>
    </g>
    <g id="그룹_13718" data-name="그룹 13718" transform="translate(53.315 -36.962)">
      <path id="패스_14101" data-name="패스 14101" class="cls-6" d="M0,0A4.181,4.181,0,0,0,4.181-4.181,4.181,4.181,0,0,0,0-8.362,4.181,4.181,0,0,0-4.181-4.181,4.181,4.181,0,0,0,0,0Z"/>
    </g>
    <g id="그룹_13719" data-name="그룹 13719" transform="translate(10.906 -41.256)">
      <path id="패스_14102" data-name="패스 14102" class="cls-5" d="M0,0A4.354,4.354,0,0,1-4.354,4.355,4.355,4.355,0,0,1-8.709,0,4.355,4.355,0,0,1-4.354-4.355,4.354,4.354,0,0,1,0,0"/>
    </g>
    <g id="그룹_13720" data-name="그룹 13720" transform="translate(10.906 -41.256)">
      <path id="패스_14103" data-name="패스 14103" class="cls-6" d="M0,0A4.354,4.354,0,0,1-4.354,4.355,4.355,4.355,0,0,1-8.709,0,4.355,4.355,0,0,1-4.354-4.355,4.354,4.354,0,0,1,0,0Z"/>
    </g>
  </g>
</svg>
