<svg id="구성_요소_76_1" data-name="구성 요소 76 – 1" xmlns="http://www.w3.org/2000/svg" xmlns:xlink="http://www.w3.org/1999/xlink" width="79.021" height="67.1" viewBox="0 0 79.021 67.1">
  <defs>
    <style>
      .cls-1, .cls-4, .cls-5 {
        fill: none;
      }

      .cls-2 {
        clip-path: url(#clip-path);
      }

      .cls-3, .cls-6 {
        fill: #1e2323;
      }

      .cls-4, .cls-5, .cls-6, .cls-8 {
        stroke: #1e2323;
        stroke-linecap: round;
      }

      .cls-5 {
        stroke-linejoin: round;
      }

      .cls-7, .cls-8 {
        fill: #fff;
      }
    </style>
    <clipPath id="clip-path">
      <path id="패스_13904" data-name="패스 13904" class="cls-1" d="M0,4H79.021V-63.1H0Z" transform="translate(0 63.1)"/>
    </clipPath>
  </defs>
  <g id="그룹_13524" data-name="그룹 13524" class="cls-2" transform="translate(0 0)">
    <g id="그룹_13522" data-name="그룹 13522" transform="translate(13.327 14.501)">
      <path id="패스_13902" data-name="패스 13902" class="cls-3" d="M1.645,3.088a25.952,25.952,0,0,0,26-25.9,25.952,25.952,0,0,0-26-25.9,25.952,25.952,0,0,0-26,25.9,25.952,25.952,0,0,0,26,25.9" transform="translate(24.357 48.714)"/>
    </g>
    <g id="그룹_13523" data-name="그룹 13523" transform="translate(13.327 14.501)">
      <path id="패스_13903" data-name="패스 13903" class="cls-4" d="M1.645,3.088a25.952,25.952,0,0,0,26-25.9,25.952,25.952,0,0,0-26-25.9,25.952,25.952,0,0,0-26,25.9A25.952,25.952,0,0,0,1.645,3.088Z" transform="translate(24.357 48.714)"/>
    </g>
  </g>
  <g id="그룹_13525" data-name="그룹 13525" transform="translate(34.717 36.312)">
    <path id="패스_13905" data-name="패스 13905" class="cls-5" d="M0,0H12.231"/>
  </g>
  <g id="그룹_13526" data-name="그룹 13526" transform="translate(34.717 39.422)">
    <path id="패스_13906" data-name="패스 13906" class="cls-5" d="M0,0H12.231"/>
  </g>
  <g id="그룹_13527" data-name="그룹 13527" transform="translate(34.466 42.531)">
    <path id="패스_13907" data-name="패스 13907" class="cls-5" d="M0,0H5.615"/>
  </g>
  <g id="그룹_13530" data-name="그룹 13530" class="cls-2" transform="translate(0 0)">
    <g id="그룹_13528" data-name="그룹 13528" transform="translate(29.827 31.862)">
      <path id="패스_13908" data-name="패스 13908" class="cls-3" d="M1.2.761v-11.97s0-.8-.731-.8H-17.071a.739.739,0,0,0-.731.8V.761s0,.8.731.8h2.6l-.546,4.51,3.841-4.51H.471A.739.739,0,0,0,1.2.761" transform="translate(17.802 12.006)"/>
    </g>
    <g id="그룹_13529" data-name="그룹 13529" transform="translate(29.827 31.862)">
      <path id="패스_13909" data-name="패스 13909" class="cls-5" d="M1.2.761v-11.97s0-.8-.731-.8H-17.071a.739.739,0,0,0-.731.8V.761s0,.8.731.8h2.6l-.546,4.51,3.841-4.51H.471A.739.739,0,0,0,1.2.761Z" transform="translate(17.802 12.006)"/>
    </g>
  </g>
  <g id="그룹_13531" data-name="그룹 13531" transform="translate(33.212 35.099)">
    <path id="패스_13911" data-name="패스 13911" class="cls-5" d="M0,0H12.231"/>
  </g>
  <g id="그룹_13532" data-name="그룹 13532" transform="translate(33.212 38.208)">
    <path id="패스_13912" data-name="패스 13912" class="cls-5" d="M0,0H12.231"/>
  </g>
  <g id="그룹_13533" data-name="그룹 13533" transform="translate(32.971 41.318)">
    <path id="패스_13913" data-name="패스 13913" class="cls-5" d="M0,0H5.615"/>
  </g>
  <g id="그룹_13551" data-name="그룹 13551" class="cls-2" transform="translate(0 0)">
    <g id="그룹_13534" data-name="그룹 13534" transform="translate(2.455 42.033)">
      <path id="패스_13914" data-name="패스 13914" class="cls-3" d="M.779,1.463A12.292,12.292,0,0,0,13.1-10.806,12.292,12.292,0,0,0,.779-23.073,12.292,12.292,0,0,0-11.537-10.806,12.292,12.292,0,0,0,.779,1.463" transform="translate(11.537 23.073)"/>
    </g>
    <g id="그룹_13535" data-name="그룹 13535" transform="translate(2.455 42.033)">
      <path id="패스_13915" data-name="패스 13915" class="cls-4" d="M.779,1.463A12.292,12.292,0,0,0,13.1-10.806,12.292,12.292,0,0,0,.779-23.073,12.292,12.292,0,0,0-11.537-10.806,12.292,12.292,0,0,0,.779,1.463Z" transform="translate(11.537 23.073)"/>
    </g>
    <g id="그룹_13536" data-name="그룹 13536" transform="translate(11.274 46.531)">
      <path id="패스_13916" data-name="패스 13916" class="cls-3" d="M.221.415a3.491,3.491,0,0,0,3.5-3.484,3.49,3.49,0,0,0-3.5-3.484,3.49,3.49,0,0,0-3.5,3.484A3.491,3.491,0,0,0,.221.415" transform="translate(3.276 6.552)"/>
    </g>
    <g id="그룹_13537" data-name="그룹 13537" transform="translate(11.274 46.531)">
      <path id="패스_13917" data-name="패스 13917" class="cls-4" d="M.221.415a3.491,3.491,0,0,0,3.5-3.484,3.49,3.49,0,0,0-3.5-3.484,3.49,3.49,0,0,0-3.5,3.484A3.491,3.491,0,0,0,.221.415Z" transform="translate(3.276 6.552)"/>
    </g>
    <g id="그룹_13538" data-name="그룹 13538" transform="translate(9.242 55.23)">
      <path id="패스_13918" data-name="패스 13918" class="cls-6" d="M.7.408V-4.7A1.783,1.783,0,0,0-1.28-6.432h-7.1s-1.978,0-1.978,1.731V.408" transform="translate(10.359 6.432)"/>
    </g>
    <g id="그룹_13539" data-name="그룹 13539" transform="translate(53.854 42.033)">
      <path id="패스_13919" data-name="패스 13919" class="cls-3" d="M.779,1.463A12.292,12.292,0,0,0,13.1-10.806,12.292,12.292,0,0,0,.779-23.073,12.292,12.292,0,0,0-11.537-10.806,12.292,12.292,0,0,0,.779,1.463" transform="translate(11.537 23.073)"/>
    </g>
    <g id="그룹_13540" data-name="그룹 13540" transform="translate(53.854 42.033)">
      <path id="패스_13920" data-name="패스 13920" class="cls-4" d="M.779,1.463A12.292,12.292,0,0,0,13.1-10.806,12.292,12.292,0,0,0,.779-23.073,12.292,12.292,0,0,0-11.537-10.806,12.292,12.292,0,0,0,.779,1.463Z" transform="translate(11.537 23.073)"/>
    </g>
    <g id="그룹_13541" data-name="그룹 13541" transform="translate(62.674 46.531)">
      <path id="패스_13921" data-name="패스 13921" class="cls-3" d="M.221.415a3.491,3.491,0,0,0,3.5-3.484,3.49,3.49,0,0,0-3.5-3.484,3.49,3.49,0,0,0-3.5,3.484A3.491,3.491,0,0,0,.221.415" transform="translate(3.276 6.552)"/>
    </g>
    <g id="그룹_13542" data-name="그룹 13542" transform="translate(62.674 46.531)">
      <path id="패스_13922" data-name="패스 13922" class="cls-4" d="M.221.415a3.491,3.491,0,0,0,3.5-3.484,3.49,3.49,0,0,0-3.5-3.484,3.49,3.49,0,0,0-3.5,3.484A3.491,3.491,0,0,0,.221.415Z" transform="translate(3.276 6.552)"/>
    </g>
    <g id="그룹_13543" data-name="그룹 13543" transform="translate(60.642 55.23)">
      <path id="패스_13923" data-name="패스 13923" class="cls-6" d="M.7.408V-4.7A1.783,1.783,0,0,0-1.28-6.432h-7.1s-1.978,0-1.978,1.731V.408" transform="translate(10.359 6.432)"/>
    </g>
    <g id="그룹_13544" data-name="그룹 13544" transform="translate(27.013 1.702)">
      <path id="패스_13924" data-name="패스 13924" class="cls-3" d="M.779,1.463A12.292,12.292,0,0,0,13.1-10.806,12.292,12.292,0,0,0,.779-23.073,12.292,12.292,0,0,0-11.537-10.806,12.292,12.292,0,0,0,.779,1.463" transform="translate(11.537 23.073)"/>
    </g>
    <g id="그룹_13545" data-name="그룹 13545" transform="translate(27.013 1.702)">
      <path id="패스_13925" data-name="패스 13925" class="cls-4" d="M.779,1.463A12.292,12.292,0,0,0,13.1-10.806,12.292,12.292,0,0,0,.779-23.073,12.292,12.292,0,0,0-11.537-10.806,12.292,12.292,0,0,0,.779,1.463Z" transform="translate(11.537 23.073)"/>
    </g>
    <g id="그룹_13546" data-name="그룹 13546" transform="translate(35.832 6.2)">
      <path id="패스_13926" data-name="패스 13926" class="cls-3" d="M.221.415a3.491,3.491,0,0,0,3.5-3.484,3.49,3.49,0,0,0-3.5-3.484,3.49,3.49,0,0,0-3.5,3.484A3.491,3.491,0,0,0,.221.415" transform="translate(3.276 6.552)"/>
    </g>
    <g id="그룹_13547" data-name="그룹 13547" transform="translate(35.832 6.2)">
      <path id="패스_13927" data-name="패스 13927" class="cls-4" d="M.221.415a3.491,3.491,0,0,0,3.5-3.484,3.49,3.49,0,0,0-3.5-3.484,3.49,3.49,0,0,0-3.5,3.484A3.491,3.491,0,0,0,.221.415Z" transform="translate(3.276 6.552)"/>
    </g>
    <g id="그룹_13548" data-name="그룹 13548" transform="translate(33.8 14.899)">
      <path id="패스_13928" data-name="패스 13928" class="cls-6" d="M.7.408V-4.7A1.783,1.783,0,0,0-1.28-6.432h-7.1s-1.978,0-1.978,1.731V.408" transform="translate(10.359 6.432)"/>
    </g>
    <g id="그룹_13549" data-name="그룹 13549" transform="translate(11.405 13.331)">
      <path id="패스_13929" data-name="패스 13929" class="cls-7" d="M1.645,3.088a25.952,25.952,0,0,0,26-25.9,25.952,25.952,0,0,0-26-25.9,25.952,25.952,0,0,0-26,25.9,25.952,25.952,0,0,0,26,25.9" transform="translate(24.357 48.714)"/>
    </g>
    <g id="그룹_13550" data-name="그룹 13550" transform="translate(11.405 13.331)">
      <path id="패스_13930" data-name="패스 13930" class="cls-4" d="M1.645,3.088a25.952,25.952,0,0,0,26-25.9,25.952,25.952,0,0,0-26-25.9,25.952,25.952,0,0,0-26,25.9A25.952,25.952,0,0,0,1.645,3.088Z" transform="translate(24.357 48.714)"/>
    </g>
  </g>
  <g id="그룹_13552" data-name="그룹 13552" transform="translate(32.771 35.142)">
    <path id="패스_13932" data-name="패스 13932" class="cls-5" d="M0,0H12.231"/>
  </g>
  <g id="그룹_13553" data-name="그룹 13553" transform="translate(32.771 38.252)">
    <path id="패스_13933" data-name="패스 13933" class="cls-5" d="M0,0H12.231"/>
  </g>
  <g id="그룹_13554" data-name="그룹 13554" transform="translate(32.534 41.362)">
    <path id="패스_13934" data-name="패스 13934" class="cls-5" d="M0,0H5.615"/>
  </g>
  <g id="그룹_13557" data-name="그룹 13557" class="cls-2" transform="translate(0 0)">
    <g id="그룹_13555" data-name="그룹 13555" transform="translate(27.905 30.692)">
      <path id="패스_13935" data-name="패스 13935" class="cls-7" d="M1.2.761v-11.97s0-.8-.731-.8H-17.071a.739.739,0,0,0-.731.8V.761s0,.8.731.8h2.6l-.546,4.51,3.841-4.51H.471A.739.739,0,0,0,1.2.761" transform="translate(17.802 12.006)"/>
    </g>
    <g id="그룹_13556" data-name="그룹 13556" transform="translate(27.905 30.692)">
      <path id="패스_13936" data-name="패스 13936" class="cls-5" d="M1.2.761v-11.97s0-.8-.731-.8H-17.071a.739.739,0,0,0-.731.8V.761s0,.8.731.8h2.6l-.546,4.51,3.841-4.51H.471A.739.739,0,0,0,1.2.761Z" transform="translate(17.802 12.006)"/>
    </g>
  </g>
  <g id="그룹_13558" data-name="그룹 13558" transform="translate(31.266 33.929)">
    <path id="패스_13938" data-name="패스 13938" class="cls-5" d="M0,0H12.231"/>
  </g>
  <g id="그룹_13559" data-name="그룹 13559" transform="translate(31.266 37.038)">
    <path id="패스_13939" data-name="패스 13939" class="cls-5" d="M0,0H12.231"/>
  </g>
  <g id="그룹_13560" data-name="그룹 13560" transform="translate(31.04 40.148)">
    <path id="패스_13940" data-name="패스 13940" class="cls-5" d="M0,0H5.615"/>
  </g>
  <g id="그룹_13576" data-name="그룹 13576" class="cls-2" transform="translate(0 0)">
    <g id="그룹_13561" data-name="그룹 13561" transform="translate(0.534 40.863)">
      <path id="패스_13941" data-name="패스 13941" class="cls-7" d="M.779,1.463A12.292,12.292,0,0,0,13.1-10.806,12.292,12.292,0,0,0,.779-23.073,12.292,12.292,0,0,0-11.537-10.806,12.292,12.292,0,0,0,.779,1.463" transform="translate(11.537 23.073)"/>
    </g>
    <g id="그룹_13562" data-name="그룹 13562" transform="translate(0.534 40.863)">
      <path id="패스_13942" data-name="패스 13942" class="cls-4" d="M.779,1.463A12.292,12.292,0,0,0,13.1-10.806,12.292,12.292,0,0,0,.779-23.073,12.292,12.292,0,0,0-11.537-10.806,12.292,12.292,0,0,0,.779,1.463Z" transform="translate(11.537 23.073)"/>
    </g>
    <g id="그룹_13563" data-name="그룹 13563" transform="translate(9.353 45.361)">
      <path id="패스_13943" data-name="패스 13943" class="cls-7" d="M.221.415a3.491,3.491,0,0,0,3.5-3.484,3.49,3.49,0,0,0-3.5-3.484,3.49,3.49,0,0,0-3.5,3.484A3.491,3.491,0,0,0,.221.415" transform="translate(3.276 6.552)"/>
    </g>
    <g id="그룹_13564" data-name="그룹 13564" transform="translate(9.353 45.361)">
      <path id="패스_13944" data-name="패스 13944" class="cls-4" d="M.221.415a3.491,3.491,0,0,0,3.5-3.484,3.49,3.49,0,0,0-3.5-3.484,3.49,3.49,0,0,0-3.5,3.484A3.491,3.491,0,0,0,.221.415Z" transform="translate(3.276 6.552)"/>
    </g>
    <g id="그룹_13565" data-name="그룹 13565" transform="translate(7.321 54.06)">
      <path id="패스_13945" data-name="패스 13945" class="cls-8" d="M.7.408V-4.7A1.783,1.783,0,0,0-1.28-6.432h-7.1s-1.978,0-1.978,1.731V.408" transform="translate(10.359 6.432)"/>
    </g>
    <g id="그룹_13566" data-name="그룹 13566" transform="translate(51.933 40.863)">
      <path id="패스_13946" data-name="패스 13946" class="cls-7" d="M.779,1.463A12.292,12.292,0,0,0,13.1-10.806,12.292,12.292,0,0,0,.779-23.073,12.292,12.292,0,0,0-11.537-10.806,12.292,12.292,0,0,0,.779,1.463" transform="translate(11.537 23.073)"/>
    </g>
    <g id="그룹_13567" data-name="그룹 13567" transform="translate(51.933 40.863)">
      <path id="패스_13947" data-name="패스 13947" class="cls-4" d="M.779,1.463A12.292,12.292,0,0,0,13.1-10.806,12.292,12.292,0,0,0,.779-23.073,12.292,12.292,0,0,0-11.537-10.806,12.292,12.292,0,0,0,.779,1.463Z" transform="translate(11.537 23.073)"/>
    </g>
    <g id="그룹_13568" data-name="그룹 13568" transform="translate(60.752 45.361)">
      <path id="패스_13948" data-name="패스 13948" class="cls-7" d="M.221.415a3.491,3.491,0,0,0,3.5-3.484,3.49,3.49,0,0,0-3.5-3.484,3.49,3.49,0,0,0-3.5,3.484A3.491,3.491,0,0,0,.221.415" transform="translate(3.276 6.552)"/>
    </g>
    <g id="그룹_13569" data-name="그룹 13569" transform="translate(60.752 45.361)">
      <path id="패스_13949" data-name="패스 13949" class="cls-4" d="M.221.415a3.491,3.491,0,0,0,3.5-3.484,3.49,3.49,0,0,0-3.5-3.484,3.49,3.49,0,0,0-3.5,3.484A3.491,3.491,0,0,0,.221.415Z" transform="translate(3.276 6.552)"/>
    </g>
    <g id="그룹_13570" data-name="그룹 13570" transform="translate(58.72 54.06)">
      <path id="패스_13950" data-name="패스 13950" class="cls-8" d="M.7.408V-4.7A1.783,1.783,0,0,0-1.28-6.432h-7.1s-1.978,0-1.978,1.731V.408" transform="translate(10.359 6.432)"/>
    </g>
    <g id="그룹_13571" data-name="그룹 13571" transform="translate(25.091 0.532)">
      <path id="패스_13951" data-name="패스 13951" class="cls-7" d="M.779,1.463A12.292,12.292,0,0,0,13.1-10.806,12.292,12.292,0,0,0,.779-23.073,12.292,12.292,0,0,0-11.537-10.806,12.292,12.292,0,0,0,.779,1.463" transform="translate(11.537 23.073)"/>
    </g>
    <g id="그룹_13572" data-name="그룹 13572" transform="translate(25.091 0.532)">
      <path id="패스_13952" data-name="패스 13952" class="cls-4" d="M.779,1.463A12.292,12.292,0,0,0,13.1-10.806,12.292,12.292,0,0,0,.779-23.073,12.292,12.292,0,0,0-11.537-10.806,12.292,12.292,0,0,0,.779,1.463Z" transform="translate(11.537 23.073)"/>
    </g>
    <g id="그룹_13573" data-name="그룹 13573" transform="translate(33.91 5.03)">
      <path id="패스_13953" data-name="패스 13953" class="cls-7" d="M.221.415a3.491,3.491,0,0,0,3.5-3.484,3.49,3.49,0,0,0-3.5-3.484,3.49,3.49,0,0,0-3.5,3.484A3.491,3.491,0,0,0,.221.415" transform="translate(3.276 6.552)"/>
    </g>
    <g id="그룹_13574" data-name="그룹 13574" transform="translate(33.91 5.03)">
      <path id="패스_13954" data-name="패스 13954" class="cls-4" d="M.221.415a3.491,3.491,0,0,0,3.5-3.484,3.49,3.49,0,0,0-3.5-3.484,3.49,3.49,0,0,0-3.5,3.484A3.491,3.491,0,0,0,.221.415Z" transform="translate(3.276 6.552)"/>
    </g>
    <g id="그룹_13575" data-name="그룹 13575" transform="translate(31.878 13.73)">
      <path id="패스_13955" data-name="패스 13955" class="cls-8" d="M.7.408V-4.7A1.783,1.783,0,0,0-1.28-6.432h-7.1s-1.978,0-1.978,1.731V.408" transform="translate(10.359 6.432)"/>
    </g>
  </g>
</svg>
