<svg id="구성_요소_75_1" data-name="구성 요소 75 – 1" xmlns="http://www.w3.org/2000/svg" xmlns:xlink="http://www.w3.org/1999/xlink" width="68.874" height="66.033" viewBox="0 0 68.874 66.033">
  <defs>
    <style>
      .cls-1, .cls-4 {
        fill: none;
      }

      .cls-2 {
        clip-path: url(#clip-path);
      }

      .cls-3 {
        fill: #1e2323;
      }

      .cls-4, .cls-6 {
        stroke: #1e2323;
      }

      .cls-5, .cls-6 {
        fill: #fff;
      }
    </style>
    <clipPath id="clip-path">
      <path id="패스_13959" data-name="패스 13959" class="cls-1" d="M0,0H68.874V-66.033H0Z"/>
    </clipPath>
  </defs>
  <g id="그룹_13580" data-name="그룹 13580" class="cls-2" transform="translate(0 66.033)">
    <g id="그룹_13578" data-name="그룹 13578" transform="translate(67.798 -4.598)">
      <path id="패스_13957" data-name="패스 13957" class="cls-3" d="M0,0-10.076-10c-.487-.484-1.059-.692-1.3-.49l-1.246-1.237a12.353,12.353,0,0,0-1.135-16.254,12.51,12.51,0,0,0-2.293-1.785V-58.861H-65.811V4.1h49.756V-8.691c.323-.2.659-.366.966-.6l1.247,1.237c-.2.244.006.812.493,1.3L-3.274,3.251c.5.5,1.1.71,1.33.479L.483,1.321C.716,1.089.5.5,0,0"/>
    </g>
    <g id="그룹_13579" data-name="그룹 13579" transform="translate(67.798 -4.598)">
      <path id="패스_13958" data-name="패스 13958" class="cls-4" d="M0,0-10.076-10c-.487-.484-1.059-.692-1.3-.49l-1.246-1.237a12.353,12.353,0,0,0-1.135-16.254,12.51,12.51,0,0,0-2.293-1.785V-58.861H-65.811V4.1h49.756V-8.691c.323-.2.659-.366.966-.6l1.247,1.237c-.2.244.006.812.493,1.3L-3.274,3.251c.5.5,1.1.71,1.33.479L.483,1.321C.716,1.089.5.5,0,0Z"/>
    </g>
  </g>
  <path id="패스_13960" data-name="패스 13960" class="cls-5" d="M.5-2.574H50.274v-62.96H.5Zm0-62.96,29,8.238h0ZM18.1-52.617h0ZM29.5-47.938h0Zm-3.312,4.68h0Zm-.744,4.679h0Z" transform="translate(0 66.033)"/>
  <g id="그룹_13581" data-name="그룹 13581" class="cls-2" transform="translate(0 66.033)">
    <path id="패스_13961" data-name="패스 13961" class="cls-4" d="M50.274-65.533H.5V-2.574H50.274ZM4.263-61.795,5.847-38.579H25.442M5.847-43.258H26.186M5.847-47.937H29.5M5.847-52.616H18.1M5.847-57.3H29.5"/>
  </g>
  <g id="그룹_13582" data-name="그룹 13582" transform="translate(55.586 49.48)">
    <path id="패스_13963" data-name="패스 13963" class="cls-5" d="M0,0-2.505,2.487-5.474-.461l2.506-2.487Z"/>
  </g>
  <g id="그룹_13583" data-name="그룹 13583" transform="translate(55.586 49.48)">
    <path id="패스_13964" data-name="패스 13964" class="cls-4" d="M0,0-2.505,2.487-5.474-.461l2.506-2.487Z"/>
  </g>
  <g id="그룹_13591" data-name="그룹 13591" class="cls-2" transform="translate(0 66.033)">
    <g id="그룹_13584" data-name="그룹 13584" transform="translate(34.823 -17.08)">
      <path id="패스_13965" data-name="패스 13965" class="cls-5" d="M0,0A12.379,12.379,0,0,1,0-17.6a12.6,12.6,0,0,1,17.73,0,12.379,12.379,0,0,1,0,17.6A12.6,12.6,0,0,1,0,0"/>
    </g>
    <g id="그룹_13585" data-name="그룹 13585" transform="translate(34.823 -17.08)">
      <path id="패스_13966" data-name="패스 13966" class="cls-4" d="M0,0A12.379,12.379,0,0,1,0-17.6a12.6,12.6,0,0,1,17.73,0,12.379,12.379,0,0,1,0,17.6A12.6,12.6,0,0,1,0,0Z"/>
    </g>
    <g id="그룹_13586" data-name="그룹 13586" transform="translate(36.355 -18.601)">
      <path id="패스_13967" data-name="패스 13967" class="cls-5" d="M0,0A10.239,10.239,0,0,1,0-14.557a10.425,10.425,0,0,1,14.666,0A10.239,10.239,0,0,1,14.666,0,10.427,10.427,0,0,1,0,0"/>
    </g>
    <g id="그룹_13587" data-name="그룹 13587" transform="translate(36.355 -18.601)">
      <path id="패스_13968" data-name="패스 13968" class="cls-4" d="M0,0A10.239,10.239,0,0,1,0-14.557a10.425,10.425,0,0,1,14.666,0A10.239,10.239,0,0,1,14.666,0,10.427,10.427,0,0,1,0,0Z"/>
    </g>
    <g id="그룹_13588" data-name="그룹 13588" transform="translate(38.023 -30.934)">
      <path id="패스_13969" data-name="패스 13969" class="cls-6" d="M0,0C3.129-4.037,8.2-4.037,11.33,0"/>
    </g>
    <g id="그룹_13589" data-name="그룹 13589" transform="translate(66.309 -6.685)">
      <path id="패스_13970" data-name="패스 13970" class="cls-5" d="M0,0C.5.5.719,1.093.485,1.325L-1.952,3.743c-.234.232-.833.017-1.335-.481L-13.4-6.778c-.5-.5-.72-1.092-.486-1.326l2.437-2.417c.235-.233.833-.017,1.335.481Z"/>
    </g>
    <g id="그룹_13590" data-name="그룹 13590" transform="translate(66.309 -6.685)">
      <path id="패스_13971" data-name="패스 13971" class="cls-4" d="M0,0C.5.5.719,1.093.485,1.325L-1.952,3.743c-.234.232-.833.017-1.335-.481L-13.4-6.778c-.5-.5-.72-1.092-.486-1.326l2.437-2.417c.235-.233.833-.017,1.335.481Z"/>
    </g>
  </g>
</svg>
