<svg id="구성_요소_74_1" data-name="구성 요소 74 – 1" xmlns="http://www.w3.org/2000/svg" xmlns:xlink="http://www.w3.org/1999/xlink" width="71.472" height="71.059" viewBox="0 0 71.472 71.059">
  <defs>
    <style>
      .cls-1, .cls-4 {
        fill: none;
      }

      .cls-2 {
        clip-path: url(#clip-path);
      }

      .cls-3, .cls-5 {
        fill: #1e2323;
      }

      .cls-4, .cls-5, .cls-7 {
        stroke: #1e2323;
      }

      .cls-6, .cls-7 {
        fill: #fff;
      }
    </style>
    <clipPath id="clip-path">
      <path id="패스_13980" data-name="패스 13980" class="cls-1" d="M0,0H71.472V-71.059H0Z"/>
    </clipPath>
  </defs>
  <g id="그룹_13600" data-name="그룹 13600" class="cls-2" transform="translate(0 71.059)">
    <g id="그룹_13593" data-name="그룹 13593" transform="translate(16.084 -46.934)">
      <path id="패스_13973" data-name="패스 13973" class="cls-3" d="M0,0A5.642,5.642,0,0,0,5.594-5.687,5.643,5.643,0,0,0,0-11.377a5.642,5.642,0,0,0-5.593,5.69A5.641,5.641,0,0,0,0,0"/>
    </g>
    <g id="그룹_13594" data-name="그룹 13594" transform="translate(16.084 -46.934)">
      <path id="패스_13974" data-name="패스 13974" class="cls-4" d="M0,0A5.642,5.642,0,0,0,5.594-5.687,5.643,5.643,0,0,0,0-11.377a5.642,5.642,0,0,0-5.593,5.69A5.641,5.641,0,0,0,0,0Z"/>
    </g>
    <g id="그룹_13595" data-name="그룹 13595" transform="translate(7.808 -34.791)">
      <path id="패스_13975" data-name="패스 13975" class="cls-5" d="M0,0V30.445s-.1,3.846,2.988,3.846,3.09-3.639,3.09-4.158V17.561s.309-2.5,2.061-2.5,2.06,2.5,2.06,2.5V30.133c0,.519,0,4.158,3.091,4.158s2.987-3.846,2.987-3.846V-.039L27.2-8.947l-4.115-4.928L14.809-8.109H2.157s-6.815-.838-6.815,6.082S-4.71,10.307-4.71,10.307s-.1,4.822,2.982,4.822S.329,13.869.329,10.516"/>
    </g>
    <g id="그룹_13596" data-name="그룹 13596" transform="translate(57.987 -46.934)">
      <path id="패스_13976" data-name="패스 13976" class="cls-3" d="M0,0A5.641,5.641,0,0,1-5.593-5.687,5.642,5.642,0,0,1,0-11.377a5.643,5.643,0,0,1,5.594,5.69A5.642,5.642,0,0,1,0,0"/>
    </g>
    <g id="그룹_13597" data-name="그룹 13597" transform="translate(57.987 -46.934)">
      <path id="패스_13977" data-name="패스 13977" class="cls-4" d="M0,0A5.641,5.641,0,0,1-5.593-5.687,5.642,5.642,0,0,1,0-11.377a5.643,5.643,0,0,1,5.594,5.69A5.642,5.642,0,0,1,0,0Z"/>
    </g>
    <g id="그룹_13598" data-name="그룹 13598" transform="translate(66.262 -34.791)">
      <path id="패스_13978" data-name="패스 13978" class="cls-5" d="M0,0V30.445s.1,3.846-2.988,3.846-3.09-3.639-3.09-4.158V17.561s-.309-2.5-2.061-2.5-2.06,2.5-2.06,2.5V30.133c0,.519,0,4.158-3.091,4.158s-2.987-3.846-2.987-3.846V-.039L-27.2-8.947l4.115-4.928,8.273,5.766H-2.157s6.815-.838,6.815,6.082.052,12.334.052,12.334.1,4.822-2.982,4.822-2.076-1.26-2.076-4.613"/>
    </g>
    <g id="그룹_13599" data-name="그룹 13599" transform="translate(39.826 -50.751)">
      <path id="패스_13979" data-name="패스 13979" class="cls-5" d="M0,0V-2.15A7.1,7.1,0,0,0,3.714-8.432,6.964,6.964,0,0,0-3.141-15.5,6.964,6.964,0,0,0-10-8.432,7.1,7.1,0,0,0-6.282-2.15V-.018"/>
    </g>
  </g>
  <g id="그룹_13601" data-name="그룹 13601" transform="translate(32.179 22.932)">
    <path id="패스_13981" data-name="패스 13981" class="cls-5" d="M0,0V-2.926H9.014V0"/>
  </g>
  <g id="그룹_13604" data-name="그룹 13604" class="cls-2" transform="translate(0 71.059)">
    <g id="그룹_13602" data-name="그룹 13602" transform="translate(32.179 -48.57)">
      <path id="패스_13982" data-name="패스 13982" class="cls-5" d="M0,0A4.413,4.413,0,0,0,4.507,4.312,4.413,4.413,0,0,0,9.013,0"/>
    </g>
    <g id="그룹_13603" data-name="그룹 13603" transform="translate(36.686 -56.76)">
      <path id="패스_13983" data-name="패스 13983" class="cls-3" d="M0,0"/>
    </g>
  </g>
  <g id="그룹_13605" data-name="그룹 13605" transform="translate(36.686 14.299)">
    <path id="패스_13985" data-name="패스 13985" class="cls-4" d="M0,0"/>
  </g>
  <g id="그룹_13613" data-name="그룹 13613" class="cls-2" transform="translate(0 71.059)">
    <g id="그룹_13606" data-name="그룹 13606" transform="translate(13.486 -46.98)">
      <path id="패스_13986" data-name="패스 13986" class="cls-6" d="M0,0A5.641,5.641,0,0,0,5.593-5.687,5.642,5.642,0,0,0,0-11.377a5.642,5.642,0,0,0-5.593,5.69A5.641,5.641,0,0,0,0,0"/>
    </g>
    <g id="그룹_13607" data-name="그룹 13607" transform="translate(13.486 -46.98)">
      <path id="패스_13987" data-name="패스 13987" class="cls-4" d="M0,0A5.641,5.641,0,0,0,5.593-5.687,5.642,5.642,0,0,0,0-11.377a5.642,5.642,0,0,0-5.593,5.69A5.641,5.641,0,0,0,0,0Z"/>
    </g>
    <g id="그룹_13608" data-name="그룹 13608" transform="translate(5.539 -24.322)">
      <path id="패스_13988" data-name="패스 13988" class="cls-7" d="M0,0C0,3.354,1.028,4.613-2.057,4.613S-5.039-.209-5.039-.209s.052-5.416.052-12.334,6.814-6.082,6.814-6.082H14.48l8.273-5.766,4.115,4.928-10.92,8.908V19.93s.1,3.845-2.988,3.845-3.09-3.638-3.09-4.158V7.045s-.309-2.5-2.061-2.5-2.06,2.5-2.06,2.5V19.617c0,.52,0,4.158-3.091,4.158S-.329,19.93-.329,19.93V-10.516"/>
    </g>
    <g id="그룹_13609" data-name="그룹 13609" transform="translate(55.388 -46.98)">
      <path id="패스_13989" data-name="패스 13989" class="cls-6" d="M0,0A5.641,5.641,0,0,1-5.593-5.687,5.642,5.642,0,0,1,0-11.377a5.643,5.643,0,0,1,5.594,5.69A5.642,5.642,0,0,1,0,0"/>
    </g>
    <g id="그룹_13610" data-name="그룹 13610" transform="translate(55.388 -46.98)">
      <path id="패스_13990" data-name="패스 13990" class="cls-4" d="M0,0A5.641,5.641,0,0,1-5.593-5.687,5.642,5.642,0,0,1,0-11.377a5.643,5.643,0,0,1,5.594,5.69A5.642,5.642,0,0,1,0,0Z"/>
    </g>
    <g id="그룹_13611" data-name="그룹 13611" transform="translate(63.316 -24.322)">
      <path id="패스_13991" data-name="패스 13991" class="cls-7" d="M0,0C0,3.354-1.009,4.613,2.076,4.613S5.058-.209,5.058-.209s-.052-5.416-.052-12.334-6.815-6.082-6.815-6.082H-14.461l-8.273-5.766-4.115,4.928,10.92,8.908V19.93s-.1,3.845,2.987,3.845,3.091-3.638,3.091-4.158V7.045s.309-2.5,2.061-2.5,2.06,2.5,2.06,2.5V19.617c0,.52,0,4.158,3.091,4.158S.348,19.93.348,19.93V-10.516"/>
    </g>
    <g id="그룹_13612" data-name="그룹 13612" transform="translate(37.228 -50.797)">
      <path id="패스_13992" data-name="패스 13992" class="cls-7" d="M0,0V-2.15A7.1,7.1,0,0,0,3.714-8.432,6.964,6.964,0,0,0-3.141-15.5,6.964,6.964,0,0,0-10-8.432,7.1,7.1,0,0,0-6.282-2.15V-.018"/>
    </g>
  </g>
  <g id="그룹_13614" data-name="그룹 13614" transform="translate(29.581 22.886)">
    <path id="패스_13994" data-name="패스 13994" class="cls-7" d="M0,0V-2.926H9.014V0"/>
  </g>
  <g id="그룹_13617" data-name="그룹 13617" class="cls-2" transform="translate(0 71.059)">
    <g id="그룹_13615" data-name="그룹 13615" transform="translate(29.581 -48.615)">
      <path id="패스_13995" data-name="패스 13995" class="cls-7" d="M0,0A4.413,4.413,0,0,0,4.507,4.312,4.413,4.413,0,0,0,9.013,0"/>
    </g>
    <g id="그룹_13616" data-name="그룹 13616" transform="translate(34.08 -71.059)">
      <path id="패스_13996" data-name="패스 13996" class="cls-4" d="M0,0V2"/>
    </g>
  </g>
  <g id="그룹_13618" data-name="그룹 13618" transform="translate(27.484 1.413)">
    <path id="패스_13998" data-name="패스 13998" class="cls-4" d="M0,0,2.914,3.65"/>
  </g>
  <g id="그룹_13619" data-name="그룹 13619" transform="translate(23.396 5.556)">
    <path id="패스_13999" data-name="패스 13999" class="cls-4" d="M0,0,3.578,2.977"/>
  </g>
  <g id="그룹_13620" data-name="그룹 13620" transform="translate(40.662 1.446)">
    <path id="패스_14000" data-name="패스 14000" class="cls-4" d="M0,0-2.914,3.648"/>
  </g>
  <g id="그룹_13621" data-name="그룹 13621" transform="translate(44.737 5.631)">
    <path id="패스_14001" data-name="패스 14001" class="cls-4" d="M0,0-3.576,2.977"/>
  </g>
  <g id="그룹_13624" data-name="그룹 13624" class="cls-2" transform="translate(0 71.059)">
    <g id="그룹_13622" data-name="그룹 13622" transform="translate(37.881 -58.887)">
      <path id="패스_14002" data-name="패스 14002" class="cls-7" d="M0,0A4.045,4.045,0,0,0-4-4.084"/>
    </g>
    <g id="그룹_13623" data-name="그룹 13623" transform="translate(34.087 -56.807)">
      <path id="패스_14003" data-name="패스 14003" class="cls-6" d="M0,0"/>
    </g>
  </g>
  <g id="그룹_13625" data-name="그룹 13625" transform="translate(34.087 14.253)">
    <path id="패스_14005" data-name="패스 14005" class="cls-4" d="M0,0"/>
  </g>
</svg>
