<svg id="구성_요소_81_1" data-name="구성 요소 81 – 1" xmlns="http://www.w3.org/2000/svg" xmlns:xlink="http://www.w3.org/1999/xlink" width="81.873" height="75.183" viewBox="0 0 81.873 75.183">
  <defs>
    <style>
      .cls-1, .cls-6 {
        fill: none;
      }

      .cls-2 {
        clip-path: url(#clip-path);
      }

      .cls-3 {
        fill: #1e2323;
      }

      .cls-4, .cls-7 {
        fill: #fff;
      }

      .cls-5 {
        clip-path: url(#clip-path-3);
      }

      .cls-6, .cls-7 {
        stroke: #1e2323;
      }
    </style>
    <clipPath id="clip-path">
      <path id="패스_18494" data-name="패스 18494" class="cls-1" d="M0,0H81.873V-75.183H0Z"/>
    </clipPath>
    <clipPath id="clip-path-3">
      <path id="패스_18505" data-name="패스 18505" class="cls-1" d="M16.574-34.67a21.309,21.309,0,0,0,21.31,21.309h0A21.309,21.309,0,0,0,59.193-34.67h0A21.309,21.309,0,0,0,37.884-55.978h0A21.309,21.309,0,0,0,16.574-34.67"/>
    </clipPath>
  </defs>
  <g id="그룹_18110" data-name="그룹 18110" class="cls-2" transform="translate(0 75.183)">
    <g id="그룹_18107" data-name="그룹 18107" transform="translate(40.009 -10.527)">
      <path id="패스_18491" data-name="패스 18491" class="cls-3" d="M0,0A21.308,21.308,0,0,0,21.309-21.308,21.309,21.309,0,0,0,0-42.617,21.309,21.309,0,0,0-21.309-21.308,21.308,21.308,0,0,0,0,0"/>
    </g>
    <g id="그룹_18108" data-name="그룹 18108" transform="translate(13.794 -19.308)">
      <path id="패스_18492" data-name="패스 18492" class="cls-3" d="M0,0H1.075A4.946,4.946,0,0,0,3.538-4.316c.095-2.229.106-5.267.106-5.267a2.219,2.219,0,0,1,2.395-1.736,2.768,2.768,0,0,1,2.7,2.19A25.108,25.108,0,0,1,8.7-.1a84.558,84.558,0,0,1,11.143-.02c1.245.155,2.971.2,2.971,2.875s-1.629,2.864-1.629,2.864.918.321,1.069,1.828c.076.757-.152,2.5-1.524,2.914,0,0,.765.449.765,2.232,0,0-.152,1.891-1.181,2.435a1.612,1.612,0,0,1,.421.932c0,.492-.147,2.726-1.823,2.914a64.122,64.122,0,0,1-15.338-.014,3.26,3.26,0,0,1-2.262-1.735H0Z"/>
    </g>
    <g id="그룹_18109" data-name="그룹 18109" transform="translate(13.962 -2.072)">
      <path id="패스_18493" data-name="패스 18493" class="cls-3" d="M0,0"/>
    </g>
  </g>
  <path id="패스_18495" data-name="패스 18495" class="cls-3" d="M2.626-1.506H8.571V-19.96H2.626Z" transform="translate(0 75.183)"/>
  <path id="패스_18496" data-name="패스 18496" class="cls-3" d="M5.545-1.246H15.1V-20.22H5.545Z" transform="translate(0 75.183)"/>
  <g id="그룹_18113" data-name="그룹 18113" class="cls-2" transform="translate(0 75.183)">
    <g id="그룹_18111" data-name="그룹 18111" transform="translate(65.233 -71.848)">
      <path id="패스_18497" data-name="패스 18497" class="cls-3" d="M0,0C-9.19,0-16.64,7.1-16.64,15.865A15.339,15.339,0,0,0-12.4,26.356l-1.219,7.391,7.222-3.24A17.269,17.269,0,0,0,0,31.729c9.189,0,16.64-7.1,16.64-15.864S9.189,0,0,0"/>
    </g>
    <g id="그룹_18112" data-name="그룹 18112" transform="translate(37.883 -13.361)">
      <path id="패스_18498" data-name="패스 18498" class="cls-4" d="M0,0A21.308,21.308,0,0,0,21.309-21.308,21.309,21.309,0,0,0,0-42.617,21.309,21.309,0,0,0-21.309-21.308,21.308,21.308,0,0,0,0,0"/>
    </g>
  </g>
  <g id="그룹_18119" data-name="그룹 18119" class="cls-5" transform="translate(0 75.183)">
    <g id="그룹_18114" data-name="그룹 18114" transform="translate(37.883 -35.5)">
      <path id="패스_18500" data-name="패스 18500" class="cls-4" d="M0,0A5.6,5.6,0,0,1-5.618-5.582,5.6,5.6,0,0,1,0-11.164,5.6,5.6,0,0,1,5.618-5.582,5.6,5.6,0,0,1,0,0"/>
    </g>
    <g id="그룹_18115" data-name="그룹 18115" transform="translate(37.883 -35.5)">
      <path id="패스_18501" data-name="패스 18501" class="cls-6" d="M0,0A5.6,5.6,0,0,1-5.618-5.582,5.6,5.6,0,0,1,0-11.164,5.6,5.6,0,0,1,5.618-5.582,5.6,5.6,0,0,1,0,0Z"/>
    </g>
    <g id="그룹_18116" data-name="그룹 18116" transform="translate(50.755 -13.82)">
      <path id="패스_18502" data-name="패스 18502" class="cls-7" d="M0,0C-.014-2.734-.028-8.6-.028-13.129c0-6.285-7.312-5.523-7.312-5.523H-18.372s-7.343-.762-7.343,5.523c0,4.524-.014,10.395-.028,13.129"/>
    </g>
    <g id="그룹_18117" data-name="그룹 18117" transform="translate(45.318 -13.82)">
      <path id="패스_18503" data-name="패스 18503" class="cls-6" d="M0,0V-11.316"/>
    </g>
    <g id="그룹_18118" data-name="그룹 18118" transform="translate(30.629 -25.117)">
      <path id="패스_18504" data-name="패스 18504" class="cls-6" d="M0,0,0,11.406"/>
    </g>
  </g>
  <g id="그룹_18124" data-name="그룹 18124" class="cls-2" transform="translate(0 75.183)">
    <g id="그룹_18120" data-name="그룹 18120" transform="translate(37.883 -13.361)">
      <path id="패스_18506" data-name="패스 18506" class="cls-6" d="M0,0A21.308,21.308,0,0,0,21.309-21.308,21.309,21.309,0,0,0,0-42.617,21.309,21.309,0,0,0-21.309-21.308,21.308,21.308,0,0,0,0,0Z"/>
    </g>
    <g id="그룹_18121" data-name="그룹 18121" transform="translate(11.668 -22.143)">
      <path id="패스_18507" data-name="패스 18507" class="cls-4" d="M0,0H1.075A4.946,4.946,0,0,0,3.538-4.316c.095-2.229.106-5.267.106-5.267a2.219,2.219,0,0,1,2.395-1.736,2.768,2.768,0,0,1,2.7,2.19A25.108,25.108,0,0,1,8.7-.1a84.558,84.558,0,0,1,11.143-.02c1.245.155,2.971.2,2.971,2.875s-1.629,2.864-1.629,2.864.918.321,1.069,1.828c.076.757-.152,2.5-1.524,2.914,0,0,.765.449.765,2.232,0,0-.152,1.891-1.181,2.435a1.612,1.612,0,0,1,.421.932c0,.492-.147,2.726-1.823,2.914a64.122,64.122,0,0,1-15.338-.014,3.26,3.26,0,0,1-2.262-1.735H0Z"/>
    </g>
    <g id="그룹_18122" data-name="그룹 18122" transform="translate(11.668 -22.143)">
      <path id="패스_18508" data-name="패스 18508" class="cls-6" d="M0,0H1.075A4.946,4.946,0,0,0,3.538-4.316c.095-2.229.106-5.267.106-5.267a2.219,2.219,0,0,1,2.395-1.736,2.768,2.768,0,0,1,2.7,2.19A25.108,25.108,0,0,1,8.7-.1a84.558,84.558,0,0,1,11.143-.02c1.245.155,2.971.2,2.971,2.875s-1.629,2.864-1.629,2.864.918.321,1.069,1.828c.076.757-.152,2.5-1.524,2.914,0,0,.765.449.765,2.232,0,0-.152,1.891-1.181,2.435a1.612,1.612,0,0,1,.421.932c0,.492-.147,2.726-1.823,2.914a64.122,64.122,0,0,1-15.338-.014,3.26,3.26,0,0,1-2.262-1.735H0Z"/>
    </g>
    <g id="그룹_18123" data-name="그룹 18123" transform="translate(11.835 -4.907)">
      <path id="패스_18509" data-name="패스 18509" class="cls-4" d="M0,0"/>
    </g>
  </g>
  <g id="그룹_18125" data-name="그룹 18125" transform="translate(11.835 70.276)">
    <path id="패스_18511" data-name="패스 18511" class="cls-6" d="M0,0"/>
  </g>
  <path id="패스_18512" data-name="패스 18512" class="cls-4" d="M.5-4.341H6.445V-22.8H.5Z" transform="translate(0 75.183)"/>
  <g id="그룹_18126" data-name="그룹 18126" class="cls-2" transform="translate(0 75.183)">
    <path id="패스_18513" data-name="패스 18513" class="cls-6" d="M.5-4.341H6.445V-22.8H.5Z"/>
  </g>
  <path id="패스_18515" data-name="패스 18515" class="cls-7" d="M3.419-4.081h9.55V-23.055H3.419Z" transform="translate(0 75.183)"/>
  <g id="그룹_18129" data-name="그룹 18129" class="cls-2" transform="translate(0 75.183)">
    <g id="그룹_18127" data-name="그룹 18127" transform="translate(63.107 -74.683)">
      <path id="패스_18516" data-name="패스 18516" class="cls-4" d="M0,0C-9.19,0-16.64,7.1-16.64,15.865A15.339,15.339,0,0,0-12.4,26.356l-1.219,7.391,7.222-3.24A17.269,17.269,0,0,0,0,31.729c9.189,0,16.64-7.1,16.64-15.864S9.189,0,0,0"/>
    </g>
    <g id="그룹_18128" data-name="그룹 18128" transform="translate(63.107 -74.683)">
      <path id="패스_18517" data-name="패스 18517" class="cls-6" d="M0,0C-9.19,0-16.64,7.1-16.64,15.865A15.339,15.339,0,0,0-12.4,26.356l-1.219,7.391,7.222-3.24A17.269,17.269,0,0,0,0,31.729c9.189,0,16.64-7.1,16.64-15.864S9.189,0,0,0Z"/>
    </g>
  </g>
  <g id="그룹_18130" data-name="그룹 18130" transform="translate(53.346 11.586)">
    <path id="패스_18519" data-name="패스 18519" class="cls-6" d="M0,0H18.358M0,7.843H7.343"/>
  </g>
</svg>
