<svg id="구성_요소_85_1" data-name="구성 요소 85 – 1" xmlns="http://www.w3.org/2000/svg" xmlns:xlink="http://www.w3.org/1999/xlink" width="72.802" height="73.046" viewBox="0 0 72.802 73.046">
  <defs>
    <style>
      .cls-1, .cls-5 {
        fill: none;
      }

      .cls-2 {
        fill: #1e2323;
      }

      .cls-3 {
        clip-path: url(#clip-path);
      }

      .cls-4, .cls-6 {
        fill: #fff;
      }

      .cls-5, .cls-6 {
        stroke: #1e2323;
      }
    </style>
    <clipPath id="clip-path">
      <path id="패스_18605" data-name="패스 18605" class="cls-1" d="M0,0H72.8V-73.046H0Z"/>
    </clipPath>
  </defs>
  <g id="그룹_18172" data-name="그룹 18172" transform="translate(52.122 19.025)">
    <path id="패스_18600" data-name="패스 18600" class="cls-2" d="M0,0-14.336-16.085-29,0h7.389V29.457H-7.389V0Z"/>
  </g>
  <g id="그룹_18173" data-name="그룹 18173" transform="translate(58.203 34.191)">
    <path id="패스_18601" data-name="패스 18601" class="cls-2" d="M0,0-9.913-11.339-20.053,0h4.737V20.766H-4.737V0Z"/>
  </g>
  <g id="그룹_18174" data-name="그룹 18174" transform="translate(42.932 46.086)">
    <path id="패스_18602" data-name="패스 18602" class="cls-2" d="M0,0-7.8.489l-5.982,6.548,9.246,7.971,5.741-4.131L.6,2.25Z"/>
  </g>
  <g id="그룹_18177" data-name="그룹 18177" class="cls-3" transform="translate(0 73.046)">
    <g id="그룹_18175" data-name="그룹 18175" transform="translate(5.316 -31.652)">
      <path id="패스_18603" data-name="패스 18603" class="cls-2" d="M0,0"/>
    </g>
    <g id="그룹_18176" data-name="그룹 18176" transform="translate(5.425 -31.521)">
      <path id="패스_18604" data-name="패스 18604" class="cls-2" d="M0,0-3.059,15.783l7.572,1.981.4-1.016,3.912.965s1.654-2.18,2.908-.914a2.1,2.1,0,0,1,.7,2.74,2.407,2.407,0,0,1,2.908.508,2.533,2.533,0,0,1,.4,2.842A2.536,2.536,0,0,1,18.253,23a3.407,3.407,0,0,1,.161,3.236,2.276,2.276,0,0,1,2.246.117c.9.766.2,2.116-.6,3.131l1.956,1.725s1.755.2,2.156-.762a5.709,5.709,0,0,0,.231-2.385s2.357,1.35,3.079.2a3.182,3.182,0,0,0,.211-2.538s2.7,1.014,3.7,0,.177-3.654.177-3.654,2.431.76,2.982-.254S34,18.932,34,18.932L26.025,10.2,20.9,8.576a37.281,37.281,0,0,1-4.355,1.067,4.381,4.381,0,0,1-3.711-2.284l8.725-5.584L7.522,3.2l.4-1.32Z"/>
    </g>
  </g>
  <g id="그룹_18178" data-name="그룹 18178" transform="translate(5.307 41.188)">
    <path id="패스_18606" data-name="패스 18606" class="cls-2" d="M0,0,8.084,2.049,4.656,18.172l-7.915-2.005Z"/>
  </g>
  <g id="그룹_18189" data-name="그룹 18189" class="cls-3" transform="translate(0 73.046)">
    <g id="그룹_18179" data-name="그룹 18179" transform="translate(17.562 -14.717)">
      <path id="패스_18607" data-name="패스 18607" class="cls-2" d="M0,0A1.9,1.9,0,0,0-2.768.227c-.02.023-1.621,2.059-1.64,2.083a2.124,2.124,0,0,0,.217,2.9,1.9,1.9,0,0,0,2.768-.227C-1.4,4.959.2,2.923.217,2.9A2.124,2.124,0,0,0,0,0"/>
    </g>
    <g id="그룹_18180" data-name="그룹 18180" transform="translate(23.675 -8.436)">
      <path id="패스_18608" data-name="패스 18608" class="cls-2" d="M0,0A1.847,1.847,0,0,0-2.687.222c-.018.023-1.574,2-1.593,2.024A2.063,2.063,0,0,0-4.071,5.06a1.846,1.846,0,0,0,2.687-.222L.208,2.815A2.062,2.062,0,0,0,0,0"/>
    </g>
    <g id="그룹_18181" data-name="그룹 18181" transform="translate(20.795 -11.733)">
      <path id="패스_18609" data-name="패스 18609" class="cls-2" d="M0,0A2.049,2.049,0,0,0-2.98.239L-4.741,2.477A2.285,2.285,0,0,0-4.5,5.6a2.048,2.048,0,0,0,2.979-.239L.239,3.119A2.285,2.285,0,0,0,0,0"/>
    </g>
    <g id="그룹_18182" data-name="그룹 18182" transform="translate(26.073 -7.484)">
      <path id="패스_18610" data-name="패스 18610" class="cls-2" d="M0,0,4.087,4.417a1.975,1.975,0,0,0,2.939.052,2.272,2.272,0,0,0,.243-3.085"/>
    </g>
    <g id="그룹_18183" data-name="그룹 18183" transform="translate(25.696 -1.884)">
      <path id="패스_18611" data-name="패스 18611" class="cls-2" d="M0,0C.021.022,1.189,1.242,1.209,1.264a1.832,1.832,0,0,0,2.7.057A2.52,2.52,0,0,0,3.9-1.843"/>
    </g>
    <g id="그룹_18184" data-name="그룹 18184" transform="translate(45.982 -16.826)">
      <path id="패스_18612" data-name="패스 18612" class="cls-2" d="M0,0A1.071,1.071,0,0,1-1.038-1.1,1.071,1.071,0,0,1,0-2.2,1.071,1.071,0,0,1,1.038-1.1,1.071,1.071,0,0,1,0,0"/>
    </g>
    <g id="그룹_18185" data-name="그룹 18185" transform="translate(26.093 -5.335)">
      <path id="패스_18613" data-name="패스 18613" class="cls-2" d="M0,0A1.569,1.569,0,0,0-2.283.2C-2.3.219-3.628,1.909-3.644,1.929a1.755,1.755,0,0,0,.167,2.395,1.57,1.57,0,0,0,2.284-.2C-1.177,4.105.151,2.415.167,2.4A1.756,1.756,0,0,0,0,0"/>
    </g>
    <g id="그룹_18186" data-name="그룹 18186" transform="translate(28.5 -11.224)">
      <path id="패스_18614" data-name="패스 18614" class="cls-2" d="M0,0,5.213,5.574a2.266,2.266,0,0,0,3.353.05,2.957,2.957,0,0,0-.1-3.805"/>
    </g>
    <g id="그룹_18187" data-name="그룹 18187" transform="translate(31.217 -15.387)">
      <path id="패스_18615" data-name="패스 18615" class="cls-2" d="M0,0,5.915,6.174a1.958,1.958,0,0,0,2.856.059A2.182,2.182,0,0,0,8.76,3.245L.317-5.839"/>
    </g>
    <g id="그룹_18188" data-name="그룹 18188" transform="translate(40.001 -27.326)">
      <path id="패스_18616" data-name="패스 18616" class="cls-2" d="M0,0-12.771-2.711l-8.943,5.877s.556,2.608,4.108,2.254c0,0,2.739-.707,4.108-1.193,0,0,4.707,2.077,5.563,2.077a8.348,8.348,0,0,0,2.324-.363"/>
    </g>
  </g>
  <g id="그룹_18190" data-name="그룹 18190" transform="translate(47.396 41.188)">
    <path id="패스_18618" data-name="패스 18618" class="cls-2" d="M0,0-8.084,2.049l3.428,16.123,7.915-2.005Z"/>
  </g>
  <g id="그룹_18194" data-name="그룹 18194" class="cls-3" transform="translate(0 73.046)">
    <g id="그룹_18191" data-name="그룹 18191" transform="translate(25.709 -7.486)">
      <path id="패스_18619" data-name="패스 18619" class="cls-2" d="M0,0"/>
    </g>
    <g id="그룹_18192" data-name="그룹 18192" transform="translate(59.329 -1.875)">
      <path id="패스_18620" data-name="패스 18620" class="cls-2" d="M0,0A13.522,13.522,0,0,0,13.473-13.572,13.522,13.522,0,0,0,0-27.144,13.522,13.522,0,0,0-13.473-13.572,13.522,13.522,0,0,0,0,0"/>
    </g>
    <g id="그룹_18193" data-name="그룹 18193" transform="translate(63.958 -20.733)">
      <path id="패스_18621" data-name="패스 18621" class="cls-2" d="M0,0A5.864,5.864,0,0,0-3.486-1.825V-4.11H-5.562v2.325A4,4,0,0,0-9.131,2.307c0,4.194,6.383,3.953,6.383,6.662,0,1.144-.674,1.766-2.143,1.766A5.784,5.784,0,0,1-8.355,9.371l-1.364,1.984A8.038,8.038,0,0,0-5.562,13.1v2.247h2.076V13.02A4.119,4.119,0,0,0,.21,8.767c0-4.494-6.383-4.113-6.383-6.6C-6.173,1.063-5.478.5-4.24.5A3.819,3.819,0,0,1-1.552,1.685Z"/>
    </g>
  </g>
  <g id="그룹_18195" data-name="그룹 18195" transform="translate(50.697 16.842)">
    <path id="패스_18623" data-name="패스 18623" class="cls-4" d="M0,0-14.361-16.1-29.053,0h7.4V29.477H-7.4V0Z"/>
  </g>
  <g id="그룹_18197" data-name="그룹 18197" class="cls-3" transform="translate(0 73.046)">
    <g id="그룹_18196" data-name="그룹 18196" transform="translate(50.697 -56.204)">
      <path id="패스_18624" data-name="패스 18624" class="cls-5" d="M0,0-14.361-16.1-29.053,0h7.4V29.477H-7.4V0Z"/>
    </g>
  </g>
  <g id="그룹_18198" data-name="그룹 18198" transform="translate(56.777 32.007)">
    <path id="패스_18626" data-name="패스 18626" class="cls-4" d="M0,0-9.937-11.35-20.1,0h4.749V20.785H-4.749V0Z"/>
  </g>
  <g id="그룹_18199" data-name="그룹 18199" transform="translate(56.777 32.007)">
    <path id="패스_18627" data-name="패스 18627" class="cls-5" d="M0,0-9.937-11.35-20.1,0h4.749V20.785H-4.749V0Z"/>
  </g>
  <g id="그룹_18200" data-name="그룹 18200" transform="translate(41.481 43.911)">
    <path id="패스_18628" data-name="패스 18628" class="cls-4" d="M0,0-7.8.489l-5.982,6.548,9.246,7.971,5.741-4.131L.6,2.25Z"/>
  </g>
  <g id="그룹_18202" data-name="그룹 18202" class="cls-3" transform="translate(0 73.046)">
    <g id="그룹_18201" data-name="그룹 18201" transform="translate(3.865 -33.828)">
      <path id="패스_18629" data-name="패스 18629" class="cls-4" d="M0,0"/>
    </g>
  </g>
  <g id="그룹_18203" data-name="그룹 18203" transform="translate(3.865 39.218)">
    <path id="패스_18631" data-name="패스 18631" class="cls-5" d="M0,0"/>
  </g>
  <g id="그룹_18206" data-name="그룹 18206" class="cls-3" transform="translate(0 73.046)">
    <g id="그룹_18204" data-name="그룹 18204" transform="translate(3.963 -33.711)">
      <path id="패스_18632" data-name="패스 18632" class="cls-4" d="M0,0-3.061,15.8l7.577,1.98.4-1.015,3.913.965s1.656-2.182,2.911-.915a2.1,2.1,0,0,1,.7,2.743,2.409,2.409,0,0,1,2.911.507,2.534,2.534,0,0,1,.4,2.844,2.543,2.543,0,0,1,2.509.115,3.411,3.411,0,0,1,.161,3.239,2.277,2.277,0,0,1,2.248.117c.9.768.2,2.117-.6,3.133l1.957,1.726s1.756.2,2.157-.761a5.7,5.7,0,0,0,.231-2.387s2.359,1.349,3.081.2a3.182,3.182,0,0,0,.212-2.539s2.7,1.016,3.7,0,.177-3.658.177-3.658,2.432.761,2.984-.254-.552-2.9-.552-2.9l-7.978-8.736L20.917,8.584A37.332,37.332,0,0,1,16.559,9.65a4.383,4.383,0,0,1-3.713-2.285l8.731-5.588L7.527,3.2l.4-1.32Z"/>
    </g>
    <g id="그룹_18205" data-name="그룹 18205" transform="translate(3.963 -33.711)">
      <path id="패스_18633" data-name="패스 18633" class="cls-5" d="M0,0-3.061,15.8l7.577,1.98.4-1.015,3.913.965s1.656-2.182,2.911-.915a2.1,2.1,0,0,1,.7,2.743,2.409,2.409,0,0,1,2.911.507,2.534,2.534,0,0,1,.4,2.844,2.543,2.543,0,0,1,2.509.115,3.411,3.411,0,0,1,.161,3.239,2.277,2.277,0,0,1,2.248.117c.9.768.2,2.117-.6,3.133l1.957,1.726s1.756.2,2.157-.761a5.7,5.7,0,0,0,.231-2.387s2.359,1.349,3.081.2a3.182,3.182,0,0,0,.212-2.539s2.7,1.016,3.7,0,.177-3.658.177-3.658,2.432.761,2.984-.254-.552-2.9-.552-2.9l-7.978-8.736L20.917,8.584A37.332,37.332,0,0,1,16.559,9.65a4.383,4.383,0,0,1-3.713-2.285l8.731-5.588L7.527,3.2l.4-1.32Z"/>
    </g>
  </g>
  <g id="그룹_18207" data-name="그룹 18207" transform="translate(0.584 55.19)">
    <path id="패스_18635" data-name="패스 18635" class="cls-4" d="M0,0,7.934,2.007,11.371-14.14l-8.1-2.052Z"/>
  </g>
  <g id="그룹_18209" data-name="그룹 18209" class="cls-3" transform="translate(0 73.046)">
    <g id="그룹_18208" data-name="그룹 18208" transform="translate(3.851 -34.048)">
      <path id="패스_18636" data-name="패스 18636" class="cls-5" d="M0,0,8.1,2.052,4.667,18.2l-7.934-2.008Z"/>
    </g>
  </g>
  <g id="그룹_18210" data-name="그룹 18210" transform="translate(11.408 42.689)">
    <path id="패스_18638" data-name="패스 18638" class="cls-5" d="M0,0,14.534-1.784"/>
  </g>
  <g id="그룹_18211" data-name="그룹 18211" transform="translate(8.522 55.97)">
    <path id="패스_18639" data-name="패스 18639" class="cls-5" d="M0,0,4.349,1.144"/>
  </g>
  <g id="그룹_18212" data-name="그룹 18212" transform="translate(41.025 55.564)">
    <path id="패스_18640" data-name="패스 18640" class="cls-5" d="M0,0-2.71,2.573"/>
  </g>
  <g id="그룹_18228" data-name="그룹 18228" class="cls-3" transform="translate(0 73.046)">
    <g id="그룹_18213" data-name="그룹 18213" transform="translate(16.119 -16.903)">
      <path id="패스_18641" data-name="패스 18641" class="cls-4" d="M0,0A1.911,1.911,0,0,0-2.781.225c-.02.024-1.626,2.067-1.645,2.09A2.134,2.134,0,0,0-4.2,5.227,1.91,1.91,0,0,0-1.424,5C-1.4,4.979.2,2.936.221,2.912A2.134,2.134,0,0,0,0,0"/>
    </g>
    <g id="그룹_18214" data-name="그룹 18214" transform="translate(16.119 -16.903)">
      <path id="패스_18642" data-name="패스 18642" class="cls-5" d="M0,0A1.911,1.911,0,0,0-2.781.225c-.02.024-1.626,2.067-1.645,2.09A2.134,2.134,0,0,0-4.2,5.227,1.91,1.91,0,0,0-1.424,5C-1.4,4.979.2,2.936.221,2.912A2.134,2.134,0,0,0,0,0Z"/>
    </g>
    <g id="그룹_18215" data-name="그룹 18215" transform="translate(22.232 -10.622)">
      <path id="패스_18643" data-name="패스 18643" class="cls-4" d="M0,0A1.856,1.856,0,0,0-2.7.22c-.018.024-1.579,2.008-1.6,2.031a2.072,2.072,0,0,0,.213,2.828,1.854,1.854,0,0,0,2.7-.221c.019-.023,1.58-2.007,1.6-2.03A2.074,2.074,0,0,0,0,0"/>
    </g>
    <g id="그룹_18216" data-name="그룹 18216" transform="translate(22.232 -10.622)">
      <path id="패스_18644" data-name="패스 18644" class="cls-5" d="M0,0A1.856,1.856,0,0,0-2.7.22c-.018.024-1.579,2.008-1.6,2.031a2.072,2.072,0,0,0,.213,2.828,1.854,1.854,0,0,0,2.7-.221c.019-.023,1.58-2.007,1.6-2.03A2.074,2.074,0,0,0,0,0Z"/>
    </g>
    <g id="그룹_18217" data-name="그룹 18217" transform="translate(19.352 -13.919)">
      <path id="패스_18645" data-name="패스 18645" class="cls-4" d="M0,0A2.057,2.057,0,0,0-2.993.237C-3.014.262-4.739,2.456-4.76,2.482a2.3,2.3,0,0,0,.243,3.132,2.058,2.058,0,0,0,2.993-.237C-1.5,5.351.222,3.157.243,3.132A2.3,2.3,0,0,0,0,0"/>
    </g>
    <g id="그룹_18218" data-name="그룹 18218" transform="translate(19.352 -13.919)">
      <path id="패스_18646" data-name="패스 18646" class="cls-5" d="M0,0A2.057,2.057,0,0,0-2.993.237C-3.014.262-4.739,2.456-4.76,2.482a2.3,2.3,0,0,0,.243,3.132,2.058,2.058,0,0,0,2.993-.237C-1.5,5.351.222,3.157.243,3.132A2.3,2.3,0,0,0,0,0Z"/>
    </g>
    <g id="그룹_18219" data-name="그룹 18219" transform="translate(24.614 -9.653)">
      <path id="패스_18647" data-name="패스 18647" class="cls-6" d="M0,0C.022.024,4.071,4.4,4.093,4.424a1.981,1.981,0,0,0,2.949.046,2.284,2.284,0,0,0,.25-3.1"/>
    </g>
    <g id="그룹_18220" data-name="그룹 18220" transform="translate(24.237 -4.053)">
      <path id="패스_18648" data-name="패스 18648" class="cls-6" d="M0,0C.02.022,1.192,1.246,1.213,1.268a1.84,1.84,0,0,0,2.707.054,2.531,2.531,0,0,0,0-3.178"/>
    </g>
    <g id="그룹_18221" data-name="그룹 18221" transform="translate(44.531 -18.99)">
      <path id="패스_18649" data-name="패스 18649" class="cls-4" d="M0,0A1.082,1.082,0,0,1-1.049-1.112,1.082,1.082,0,0,1,0-2.224,1.082,1.082,0,0,1,1.049-1.112,1.082,1.082,0,0,1,0,0"/>
    </g>
    <g id="그룹_18222" data-name="그룹 18222" transform="translate(44.531 -18.99)">
      <path id="패스_18650" data-name="패스 18650" class="cls-5" d="M0,0A1.082,1.082,0,0,1-1.049-1.112,1.082,1.082,0,0,1,0-2.224,1.082,1.082,0,0,1,1.049-1.112,1.082,1.082,0,0,1,0,0Z"/>
    </g>
    <g id="그룹_18223" data-name="그룹 18223" transform="translate(24.65 -7.521)">
      <path id="패스_18651" data-name="패스 18651" class="cls-4" d="M0,0A1.578,1.578,0,0,0-2.3.2c-.017.019-1.35,1.716-1.366,1.736a1.764,1.764,0,0,0,.171,2.408,1.578,1.578,0,0,0,2.3-.2c.016-.02,1.35-1.717,1.366-1.736A1.766,1.766,0,0,0,0,0"/>
    </g>
    <g id="그룹_18224" data-name="그룹 18224" transform="translate(24.65 -7.521)">
      <path id="패스_18652" data-name="패스 18652" class="cls-5" d="M0,0A1.578,1.578,0,0,0-2.3.2c-.017.019-1.35,1.716-1.366,1.736a1.764,1.764,0,0,0,.171,2.408,1.578,1.578,0,0,0,2.3-.2c.016-.02,1.35-1.717,1.366-1.736A1.766,1.766,0,0,0,0,0Z"/>
    </g>
    <g id="그룹_18225" data-name="그룹 18225" transform="translate(27.042 -13.392)">
      <path id="패스_18653" data-name="패스 18653" class="cls-6" d="M0,0,5.219,5.581a2.273,2.273,0,0,0,3.363.044A2.964,2.964,0,0,0,8.489,1.81"/>
    </g>
    <g id="그룹_18226" data-name="그룹 18226" transform="translate(29.761 -17.553)">
      <path id="패스_18654" data-name="패스 18654" class="cls-6" d="M0,0,5.92,6.179a1.963,1.963,0,0,0,2.864.053,2.189,2.189,0,0,0,0-3L.331-5.856"/>
    </g>
    <g id="그룹_18227" data-name="그룹 18227" transform="translate(38.553 -29.507)">
      <path id="패스_18655" data-name="패스 18655" class="cls-6" d="M0,0-12.78-2.719l-8.95,5.894s.557,2.614,4.111,2.259c0,0,2.741-.709,4.111-1.2,0,0,4.711,2.082,5.567,2.082a8.357,8.357,0,0,0,2.326-.363"/>
    </g>
  </g>
  <g id="그룹_18229" data-name="그룹 18229" transform="translate(45.952 38.998)">
    <path id="패스_18657" data-name="패스 18657" class="cls-4" d="M0,0-8.1,2.052-4.667,18.2l7.934-2.008Z"/>
  </g>
  <g id="그룹_18230" data-name="그룹 18230" transform="translate(45.952 38.998)">
    <path id="패스_18658" data-name="패스 18658" class="cls-5" d="M0,0-8.1,2.052-4.667,18.2l7.934-2.008Z"/>
  </g>
  <g id="그룹_18232" data-name="그룹 18232" class="cls-3" transform="translate(0 73.046)">
    <g id="그룹_18231" data-name="그룹 18231" transform="translate(24.258 -9.662)">
      <path id="패스_18659" data-name="패스 18659" class="cls-4" d="M0,0"/>
    </g>
  </g>
  <g id="그룹_18233" data-name="그룹 18233" transform="translate(24.259 63.384)">
    <path id="패스_18661" data-name="패스 18661" class="cls-5" d="M0,0"/>
  </g>
  <g id="그룹_18234" data-name="그룹 18234" transform="translate(27.255 66.184)">
    <path id="패스_18662" data-name="패스 18662" class="cls-5" d="M0,0,1.273,1.673"/>
  </g>
  <g id="그룹_18239" data-name="그룹 18239" class="cls-3" transform="translate(0 73.046)">
    <g id="그룹_18235" data-name="그룹 18235" transform="translate(57.879 -4.039)">
      <path id="패스_18663" data-name="패스 18663" class="cls-4" d="M0,0A13.535,13.535,0,0,0,13.485-13.584,13.534,13.534,0,0,0,0-27.167,13.534,13.534,0,0,0-13.485-13.584,13.535,13.535,0,0,0,0,0"/>
    </g>
    <g id="그룹_18236" data-name="그룹 18236" transform="translate(57.879 -4.039)">
      <path id="패스_18664" data-name="패스 18664" class="cls-5" d="M0,0A13.535,13.535,0,0,0,13.485-13.584,13.534,13.534,0,0,0,0-27.167,13.534,13.534,0,0,0-13.485-13.584,13.535,13.535,0,0,0,0,0Z"/>
    </g>
    <g id="그룹_18237" data-name="그룹 18237" transform="translate(62.518 -22.915)">
      <path id="패스_18665" data-name="패스 18665" class="cls-4" d="M0,0A5.879,5.879,0,0,0-3.495-1.827V-4.115H-5.577v2.328a4,4,0,0,0-3.578,4.1c0,4.2,6.4,3.958,6.4,6.67,0,1.145-.677,1.768-2.149,1.768A5.8,5.8,0,0,1-8.377,9.382l-1.368,1.986a8.058,8.058,0,0,0,4.168,1.748v2.249h2.082v-2.33A4.125,4.125,0,0,0,.21,8.777c0-4.5-6.4-4.117-6.4-6.608,0-1.1.7-1.667,1.938-1.667A3.83,3.83,0,0,1-1.557,1.687Z"/>
    </g>
    <g id="그룹_18238" data-name="그룹 18238" transform="translate(62.518 -22.915)">
      <path id="패스_18666" data-name="패스 18666" class="cls-5" d="M0,0A5.879,5.879,0,0,0-3.495-1.827V-4.115H-5.577v2.328a4,4,0,0,0-3.578,4.1c0,4.2,6.4,3.958,6.4,6.67,0,1.145-.677,1.768-2.149,1.768A5.8,5.8,0,0,1-8.377,9.382l-1.368,1.986a8.058,8.058,0,0,0,4.168,1.748v2.249h2.082v-2.33A4.125,4.125,0,0,0,.21,8.777c0-4.5-6.4-4.117-6.4-6.608,0-1.1.7-1.667,1.938-1.667A3.83,3.83,0,0,1-1.557,1.687Z"/>
    </g>
  </g>
</svg>
