<svg xmlns="http://www.w3.org/2000/svg" xmlns:xlink="http://www.w3.org/1999/xlink" width="95.445" height="73.482" viewBox="0 0 95.445 73.482">
  <defs>
    <style>
      .cls-1, .cls-7 {
        fill: none;
      }

      .cls-2 {
        clip-path: url(#clip-path);
      }

      .cls-3 {
        fill: #1e2323;
      }

      .cls-4, .cls-5 {
        fill: #fff;
      }

      .cls-4, .cls-7 {
        stroke: #1e2323;
      }

      .cls-6 {
        clip-path: url(#clip-path-2);
      }
    </style>
    <clipPath id="clip-path">
      <path id="패스_23245" data-name="패스 23245" class="cls-1" d="M0,0H95.445V-73.482H0Z"/>
    </clipPath>
    <clipPath id="clip-path-2">
      <path id="패스_23251" data-name="패스 23251" class="cls-1" d="M27.58-23.59a21.1,21.1,0,0,0,21.1,21.1h0a21.1,21.1,0,0,0,21.1-21.1h0a21.1,21.1,0,0,0-21.1-21.1h0a21.1,21.1,0,0,0-21.1,21.1"/>
    </clipPath>
  </defs>
  <g id="구성_요소_121_1" data-name="구성 요소 121 – 1" transform="translate(0 0)">
    <g id="구성_요소_95_1" data-name="구성 요소 95 – 1">
      <g id="그룹_22775" data-name="그룹 22775" class="cls-2" transform="translate(0 73.482)">
        <g id="그룹_22765" data-name="그룹 22765" transform="translate(77.423 -21.199)">
          <path id="패스_23235" data-name="패스 23235" class="cls-3" d="M0,0C8.57,0,15.517-6.634,15.517-14.819S8.57-29.636,0-29.636-15.517-23-15.517-14.819-8.57,0,0,0"/>
        </g>
        <g id="그룹_22766" data-name="그룹 22766" transform="translate(82.423 -44.872)">
          <path id="패스_23236" data-name="패스 23236" class="cls-3" d="M0,0C2.7,4.531,4.469,8.342,4.469,10.324c0,6.333-5.4,11.485-12.034,11.485M13.022,10.324c0-10.851-20.587-35.158-20.587-35.158S-28.149-.527-28.149,10.324s9.217,19.648,20.584,19.648,20.587-8.8,20.587-19.648"/>
        </g>
        <g id="그룹_22767" data-name="그룹 22767" transform="translate(50.378)">
          <path id="패스_23237" data-name="패스 23237" class="cls-3" d="M0,0A20.9,20.9,0,0,0,20.9-20.9,20.9,20.9,0,0,0,0-41.795,20.9,20.9,0,0,0-20.9-20.9,20.9,20.9,0,0,0,0,0"/>
        </g>
        <g id="그룹_22768" data-name="그룹 22768" transform="translate(13.345 -47.577)">
          <path id="패스_23238" data-name="패스 23238" class="cls-3" d="M0,0A6.8,6.8,0,0,1,0,9.616a6.794,6.794,0,0,1-9.611,0A6.8,6.8,0,0,1-9.612,0,6.794,6.794,0,0,1,0,0"/>
        </g>
        <g id="그룹_22769" data-name="그룹 22769" transform="translate(30.603 -63.742)">
          <path id="패스_23239" data-name="패스 23239" class="cls-3" d="M0,0A5.623,5.623,0,0,1,0,7.951a5.618,5.618,0,0,1-7.947,0,5.622,5.622,0,0,1,0-7.95A5.617,5.617,0,0,1,0,0"/>
        </g>
        <g id="그룹_22770" data-name="그룹 22770" transform="translate(12.405 -28.047)">
          <path id="패스_23240" data-name="패스 23240" class="cls-3" d="M0,0A4.676,4.676,0,1,0,6.612,0,4.682,4.682,0,0,0,0,0"/>
        </g>
        <g id="그룹_22771" data-name="그룹 22771" transform="translate(23.71 -44.62)">
          <path id="패스_23241" data-name="패스 23241" class="cls-3" d="M0,0A9.521,9.521,0,1,0,13.47,0,9.517,9.517,0,0,0,0,0"/>
        </g>
        <g id="그룹_22772" data-name="그룹 22772" transform="translate(75.723 -23.692)">
          <path id="패스_23242" data-name="패스 23242" class="cls-4" d="M0,0C8.68,0,15.717-6.724,15.717-15.019S8.68-30.036,0-30.036s-15.717,6.724-15.717,15.017S-8.68,0,0,0"/>
        </g>
        <g id="그룹_22773" data-name="그룹 22773" transform="translate(80.796 -47.644)">
          <path id="패스_23243" data-name="패스 23243" class="cls-4" d="M0,0C2.73,4.573,4.512,8.42,4.512,10.42c0,6.392-5.451,11.592-12.15,11.592M13.148,10.42c0-10.952-20.786-35.485-20.786-35.485S-28.423-.532-28.423,10.42s9.307,19.83,20.785,19.83,20.786-8.878,20.786-19.83"/>
        </g>
        <g id="그룹_22774" data-name="그룹 22774" transform="translate(48.678 -2.493)">
          <path id="패스_23244" data-name="패스 23244" class="cls-5" d="M0,0A21.1,21.1,0,0,0,21.1-21.1,21.1,21.1,0,0,0,0-42.195,21.1,21.1,0,0,0-21.1-21.1,21.1,21.1,0,0,0,0,0"/>
        </g>
      </g>
    </g>
    <g id="그룹_22781" data-name="그룹 22781" class="cls-6" transform="translate(0 73.482)">
      <g id="그룹_22776" data-name="그룹 22776" transform="translate(48.678 -24.414)">
        <path id="패스_23246" data-name="패스 23246" class="cls-5" d="M0,0A5.541,5.541,0,0,1-5.559-5.52,5.541,5.541,0,0,1,0-11.043,5.541,5.541,0,0,1,5.559-5.52,5.541,5.541,0,0,1,0,0"/>
      </g>
      <g id="그룹_22777" data-name="그룹 22777" transform="translate(48.678 -24.414)">
        <path id="패스_23247" data-name="패스 23247" class="cls-7" d="M0,0A5.541,5.541,0,0,1-5.559-5.52,5.541,5.541,0,0,1,0-11.043,5.541,5.541,0,0,1,5.559-5.52,5.541,5.541,0,0,1,0,0Z"/>
      </g>
      <g id="그룹_22778" data-name="그룹 22778" transform="translate(61.42 -2.941)">
        <path id="패스_23248" data-name="패스 23248" class="cls-4" d="M0,0C-.014-2.707-.028-8.52-.028-13c0-6.219-7.238-5.465-7.238-5.465H-18.187s-7.27-.754-7.27,5.465c0,4.48-.014,10.293-.027,13"/>
      </g>
      <g id="그룹_22779" data-name="그룹 22779" transform="translate(56.041 -2.941)">
        <path id="패스_23249" data-name="패스 23249" class="cls-7" d="M0,0V-11.207"/>
      </g>
      <g id="그룹_22780" data-name="그룹 22780" transform="translate(41.488 -14.129)">
        <path id="패스_23250" data-name="패스 23250" class="cls-7" d="M0,0,.011,11.164"/>
      </g>
    </g>
    <g id="구성_요소_119_1" data-name="구성 요소 119 – 1">
      <g id="그룹_22791" data-name="그룹 22791" class="cls-2" transform="translate(0 73.482)">
        <g id="그룹_22782" data-name="그룹 22782" transform="translate(48.678 -2.493)">
          <path id="패스_23252" data-name="패스 23252" class="cls-7" d="M0,0A21.1,21.1,0,0,0,21.1-21.1,21.1,21.1,0,0,0,0-42.195,21.1,21.1,0,0,0-21.1-21.1,21.1,21.1,0,0,0,0,0Z"/>
        </g>
        <g id="그룹_22783" data-name="그룹 22783" transform="translate(11.485 -48.259)">
          <path id="패스_23253" data-name="패스 23253" class="cls-5" d="M0,0A6.45,6.45,0,0,1,0,9.108a6.392,6.392,0,0,1-4.551,1.886A6.392,6.392,0,0,1-9.1,9.107,6.448,6.448,0,0,1-9.1,0,6.39,6.39,0,0,1-4.552-1.886,6.391,6.391,0,0,1,0,0"/>
        </g>
        <g id="그룹_22784" data-name="그룹 22784" transform="translate(11.485 -48.259)">
          <path id="패스_23254" data-name="패스 23254" class="cls-7" d="M0,0A6.45,6.45,0,0,1,0,9.108a6.392,6.392,0,0,1-4.551,1.886A6.392,6.392,0,0,1-9.1,9.107,6.448,6.448,0,0,1-9.1,0,6.39,6.39,0,0,1-4.552-1.886,6.391,6.391,0,0,1,0,0Z"/>
        </g>
        <g id="그룹_22785" data-name="그룹 22785" transform="translate(29.099 -64.758)">
          <path id="패스_23255" data-name="패스 23255" class="cls-5" d="M0,0A5.245,5.245,0,0,1,0,7.407,5.2,5.2,0,0,1-3.7,8.941,5.2,5.2,0,0,1-7.4,7.407,5.244,5.244,0,0,1-7.4,0,5.2,5.2,0,0,1-3.7-1.534,5.2,5.2,0,0,1,0,0"/>
        </g>
        <g id="그룹_22786" data-name="그룹 22786" transform="translate(29.099 -64.758)">
          <path id="패스_23256" data-name="패스 23256" class="cls-7" d="M0,0A5.245,5.245,0,0,1,0,7.407,5.2,5.2,0,0,1-3.7,8.941,5.2,5.2,0,0,1-7.4,7.407,5.244,5.244,0,0,1-7.4,0,5.2,5.2,0,0,1-3.7-1.534,5.2,5.2,0,0,1,0,0Z"/>
        </g>
        <g id="그룹_22787" data-name="그룹 22787" transform="translate(11.233 -28.326)">
          <path id="패스_23257" data-name="패스 23257" class="cls-5" d="M0,0A4.282,4.282,0,0,0,0,6.046a4.267,4.267,0,0,0,6.038,0A4.28,4.28,0,0,0,6.04,0,4.27,4.27,0,0,0,0,0"/>
        </g>
        <g id="그룹_22788" data-name="그룹 22788" transform="translate(11.233 -28.326)">
          <path id="패스_23258" data-name="패스 23258" class="cls-7" d="M0,0A4.282,4.282,0,0,0,0,6.046a4.267,4.267,0,0,0,6.038,0A4.28,4.28,0,0,0,6.04,0,4.27,4.27,0,0,0,0,0Z"/>
        </g>
        <g id="그룹_22789" data-name="그룹 22789" transform="translate(22.22 -46.344)">
          <path id="패스_23259" data-name="패스 23259" class="cls-5" d="M0,0A9.211,9.211,0,0,0,0,13.033a9.231,9.231,0,0,0,13.037,0A9.213,9.213,0,0,0,13.041,0,9.236,9.236,0,0,0,0,0"/>
        </g>
        <g id="그룹_22790" data-name="그룹 22790" transform="translate(22.22 -46.344)">
          <path id="패스_23260" data-name="패스 23260" class="cls-7" d="M0,0A9.211,9.211,0,0,0,0,13.033a9.231,9.231,0,0,0,13.037,0A9.213,9.213,0,0,0,13.041,0,9.236,9.236,0,0,0,0,0Z"/>
        </g>
      </g>
    </g>
  </g>
</svg>
