<svg id="구성_요소_122_1" data-name="구성 요소 122 – 1" xmlns="http://www.w3.org/2000/svg" xmlns:xlink="http://www.w3.org/1999/xlink" width="68" height="64.917" viewBox="0 0 68 64.917">
  <defs>
    <style>
      .cls-1, .cls-5 {
        fill: none;
      }

      .cls-2 {
        clip-path: url(#clip-path);
      }

      .cls-3 {
        fill: #1e2323;
      }

      .cls-4, .cls-6 {
        fill: #fff;
      }

      .cls-5, .cls-6 {
        stroke: #1e2323;
      }
    </style>
    <clipPath id="clip-path">
      <path id="패스_23334" data-name="패스 23334" class="cls-1" d="M0,0H68V-64.917H0Z"/>
    </clipPath>
  </defs>
  <g id="그룹_22861" data-name="그룹 22861" class="cls-2" transform="translate(0 64.917)">
    <g id="그룹_22859" data-name="그룹 22859" transform="translate(11.709 -19.085)">
      <path id="패스_23332" data-name="패스 23332" class="cls-3" d="M0,0,8.387-5.706s2.642-2.174,8.191,0c1.214.476,2.437.929,3.663,1.376q2.051.747,4.112,1.468,1.935.68,3.875,1.345,1.5.516,3.007,1.025l.947.32a3.612,3.612,0,0,1,2.26,3.159c0,.167-.009.713-.162.817l14.532-9.51s4.028-3.079,6.394-.272c1.6,1.893,1.661,3.353-1.374,5.706C50.495,2.316,34.016,13.586,34.016,13.586s-2.114,2.445-7.926.543h0c-2.558-.837-5.153-1.547-7.722-2.343-2.348-.729-4.93-1.971-7.43-1.389a7.092,7.092,0,0,0-3.343,2.1Z"/>
    </g>
    <g id="그룹_22860" data-name="그룹 22860" transform="translate(32.829 -16.296)">
      <path id="패스_23333" data-name="패스 23333" class="cls-3" d="M0,0,9.6,3.014A3.34,3.34,0,0,0,13.7.468"/>
    </g>
  </g>
  <g id="그룹_22862" data-name="그룹 22862" transform="translate(3.002 48.515)">
    <path id="패스_23335" data-name="패스 23335" class="cls-3" d="M0,0,10.85,16.4,19,10.8,8.15-5.6Z"/>
  </g>
  <g id="구성_요소_93_1" data-name="구성 요소 93 – 1">
    <g id="그룹_22868" data-name="그룹 22868" class="cls-2" transform="translate(0 64.917)">
      <g id="그룹_22863" data-name="그룹 22863" transform="translate(42.411 -51.598)">
        <path id="패스_23336" data-name="패스 23336" class="cls-3" d="M0,0A5.947,5.947,0,0,1-5.918-5.973,5.948,5.948,0,0,1,0-11.949,5.948,5.948,0,0,1,5.918-5.973,5.947,5.947,0,0,1,0,0"/>
      </g>
      <g id="그룹_22864" data-name="그룹 22864" transform="translate(56.731 -27.602)">
        <path id="패스_23337" data-name="패스 23337" class="cls-3" d="M0,0C-.015-2.926-.029-9.215-.029-14.063c0-6.726-7.707-5.914-7.707-5.914H-19.362s-7.74-.812-7.74,5.914c0,4.848-.014,11.137-.029,14.063"/>
      </g>
      <g id="그룹_22865" data-name="그룹 22865" transform="translate(9.396 -20.633)">
        <path id="패스_23338" data-name="패스 23338" class="cls-4" d="M0,0,8.4-5.727s2.646-2.182,8.2,0c1.216.477,2.441.933,3.668,1.381q2.055.75,4.118,1.473,1.938.682,3.881,1.351Q29.773-1,31.28-.494l.948.321A3.625,3.625,0,0,1,34.492,3c0,.167-.01.714-.162.819L48.883-5.727s4.034-3.091,6.4-.273c1.6,1.9,1.663,3.366-1.376,5.727-3.341,2.6-19.845,13.909-19.845,13.909s-2.116,2.455-7.938.545h0c-2.561-.84-5.16-1.552-7.734-2.352-2.351-.73-4.936-1.977-7.44-1.394a7.109,7.109,0,0,0-3.348,2.11Z"/>
      </g>
      <g id="그룹_22866" data-name="그룹 22866" transform="translate(9.396 -20.633)">
        <path id="패스_23339" data-name="패스 23339" class="cls-5" d="M0,0,8.4-5.727s2.646-2.182,8.2,0c1.216.477,2.441.933,3.668,1.381q2.055.75,4.118,1.473,1.938.682,3.881,1.351Q29.773-1,31.28-.494l.948.321A3.625,3.625,0,0,1,34.492,3c0,.167-.01.714-.162.819L48.883-5.727s4.034-3.091,6.4-.273c1.6,1.9,1.663,3.366-1.376,5.727-3.341,2.6-19.845,13.909-19.845,13.909s-2.116,2.455-7.938.545h0c-2.561-.84-5.16-1.552-7.734-2.352-2.351-.73-4.936-1.977-7.44-1.394a7.109,7.109,0,0,0-3.348,2.11Z"/>
      </g>
      <g id="그룹_22867" data-name="그룹 22867" transform="translate(30.126 -18.08)">
        <path id="패스_23340" data-name="패스 23340" class="cls-6" d="M0,0,9.626,3.094A3.333,3.333,0,0,0,13.731.48"/>
      </g>
    </g>
  </g>
  <g id="그룹_22869" data-name="그룹 22869" transform="translate(0.688 46.957)">
    <path id="패스_23342" data-name="패스 23342" class="cls-4" d="M0,0,10.907,16.479l8.195-5.63L8.194-5.63Z"/>
  </g>
  <g id="구성_요소_120_1" data-name="구성 요소 120 – 1">
    <g id="그룹_22875" data-name="그룹 22875" class="cls-2" transform="translate(0 64.917)">
      <g id="그룹_22870" data-name="그룹 22870" transform="translate(0.688 -17.96)">
        <path id="패스_23343" data-name="패스 23343" class="cls-5" d="M0,0,10.908,16.479,19.1,10.848,8.194-5.63Z"/>
      </g>
      <g id="그룹_22871" data-name="그룹 22871" transform="translate(40.903 -52.258)">
        <path id="패스_23344" data-name="패스 23344" class="cls-4" d="M0,0A6.048,6.048,0,0,1-6.014-6.078,6.044,6.044,0,0,1,0-12.156,6.044,6.044,0,0,1,6.014-6.078,6.048,6.048,0,0,1,0,0"/>
      </g>
      <g id="그룹_22872" data-name="그룹 22872" transform="translate(40.903 -52.258)">
        <path id="패스_23345" data-name="패스 23345" class="cls-5" d="M0,0A6.048,6.048,0,0,1-6.014-6.078,6.044,6.044,0,0,1,0-12.156,6.044,6.044,0,0,1,6.014-6.078,6.048,6.048,0,0,1,0,0Z"/>
      </g>
      <g id="그룹_22873" data-name="그룹 22873" transform="translate(54.501 -29.098)">
        <path id="패스_23346" data-name="패스 23346" class="cls-4" d="M0,0C-.015-2.938-.029-9.25-.029-14.113c0-6.758-7.726-5.942-7.726-5.942H-19.409s-7.758-.816-7.758,5.942c0,4.863-.014,11.175-.029,14.113Z"/>
      </g>
      <g id="그룹_22874" data-name="그룹 22874" transform="translate(54.501 -29.098)">
        <path id="패스_23347" data-name="패스 23347" class="cls-5" d="M0,0C-.015-2.938-.029-9.25-.029-14.113c0-6.758-7.726-5.942-7.726-5.942H-19.409s-7.758-.816-7.758,5.942c0,4.863-.014,11.175-.029,14.113Z"/>
      </g>
    </g>
  </g>
  <g id="그룹_22876" data-name="그룹 22876" transform="translate(48.76 35.78)">
    <path id="패스_23349" data-name="패스 23349" class="cls-5" d="M0,0V-12.125"/>
  </g>
  <g id="그룹_22877" data-name="그룹 22877" transform="translate(33.217 23.683)">
    <path id="패스_23350" data-name="패스 23350" class="cls-5" d="M0,0,.076,12.07"/>
  </g>
</svg>
