<svg id="구성_요소_94_1" data-name="구성 요소 94 – 1" xmlns="http://www.w3.org/2000/svg" width="70.622" height="68.779" viewBox="0 0 70.622 68.779">
  <defs>
    <style>
      .cls-1 {
        fill: #1e2323;
      }

      .cls-2, .cls-4, .cls-6 {
        fill: none;
      }

      .cls-3, .cls-5, .cls-7 {
        fill: #fff;
      }

      .cls-4, .cls-5, .cls-6, .cls-7 {
        stroke: #1e2323;
      }

      .cls-6, .cls-7 {
        stroke-miterlimit: 10;
      }
    </style>
  </defs>
  <path id="패스_23310" data-name="패스 23310" class="cls-1" d="M3.335-5.775h42.37V-65.444H3.335Z" transform="translate(0 68.779)"/>
  <path id="패스_23311" data-name="패스 23311" class="cls-1" d="M0,0V-23.2H-29.146V0" transform="translate(39.093 42.11)"/>
  <path id="패스_23312" data-name="패스 23312" class="cls-1" d="M0,0H1.109A5.1,5.1,0,0,0,3.648-4.447c.1-2.3.109-5.429.109-5.429a2.286,2.286,0,0,1,2.469-1.788A2.851,2.851,0,0,1,9.005-9.407a25.873,25.873,0,0,1-.035,9.3A87.147,87.147,0,0,1,20.457-.127c1.284.16,3.063.21,3.063,2.962s-1.679,2.952-1.679,2.952.946.33,1.1,1.885c.078.779-.157,2.573-1.571,3,0,0,.788.462.788,2.3,0,0-.157,1.949-1.218,2.509a1.657,1.657,0,0,1,.435.96c0,.507-.152,2.809-1.88,3a66.061,66.061,0,0,1-15.811-.013,3.367,3.367,0,0,1-2.333-1.789H0Z" transform="translate(47.102 48.881)"/>
  <path id="패스_23313" data-name="패스 23313" class="cls-1" d="M0,0" transform="translate(47.289 66.63)"/>
  <path id="패스_23314" data-name="패스 23314" class="cls-2" d="M0,0H70.622V-68.779H0Z" transform="translate(0 68.779)"/>
  <path id="패스_23315" data-name="패스 23315" class="cls-1" d="M35.6-1.551h6.15v-19.03H35.6Z" transform="translate(0 68.779)"/>
  <path id="패스_23316" data-name="패스 23316" class="cls-1" d="M38.609-1.283h9.862V-20.848H38.609Z" transform="translate(0 68.779)"/>
  <path id="패스_23317" data-name="패스 23317" class="cls-3" d="M.5-8.609H42.869v-59.67H.5Z" transform="translate(0 68.779)"/>
  <path id="패스_23318" data-name="패스 23318" class="cls-4" d="M.5-8.61H42.87V-68.279H.5Z" transform="translate(0 68.779)"/>
  <path id="패스_23319" data-name="패스 23319" class="cls-2" d="M0,0H70.622V-68.779H0Z" transform="translate(0 68.779)"/>
  <path id="패스_23320" data-name="패스 23320" class="cls-5" d="M0,0V-23.2H-29.146V0" transform="translate(36.258 39.275)"/>
  <path id="패스_23321" data-name="패스 23321" class="cls-4" d="M0,0H41.44" transform="translate(0.965 39.422)"/>
  <path id="패스_23322" data-name="패스 23322" class="cls-2" d="M0,0H70.622V-68.779H0Z" transform="translate(0 68.779)"/>
  <path id="패스_23323" data-name="패스 23323" class="cls-4" d="M0,0V10.432" transform="translate(15.148 15.627)"/>
  <path id="패스_23324" data-name="패스 23324" class="cls-4" d="M0,0V10.432" transform="translate(28.222 15.627)"/>
  <path id="패스_23325" data-name="패스 23325" class="cls-3" d="M0,0H1.109A5.1,5.1,0,0,0,3.648-4.447c.1-2.3.109-5.429.109-5.429a2.286,2.286,0,0,1,2.469-1.788A2.851,2.851,0,0,1,9.005-9.407a25.873,25.873,0,0,1-.035,9.3A87.147,87.147,0,0,1,20.457-.127c1.284.16,3.063.21,3.063,2.962s-1.679,2.952-1.679,2.952.946.33,1.1,1.885c.078.779-.157,2.573-1.571,3,0,0,.788.462.788,2.3,0,0-.157,1.949-1.218,2.509a1.657,1.657,0,0,1,.435.96c0,.507-.152,2.809-1.88,3a66.061,66.061,0,0,1-15.811-.013,3.367,3.367,0,0,1-2.333-1.789H0Z" transform="translate(44.268 46.047)"/>
  <path id="패스_23326" data-name="패스 23326" class="cls-6" d="M0,0H1.109A5.1,5.1,0,0,0,3.648-4.447c.1-2.3.109-5.429.109-5.429a2.286,2.286,0,0,1,2.469-1.788A2.851,2.851,0,0,1,9.005-9.407a25.873,25.873,0,0,1-.035,9.3A87.147,87.147,0,0,1,20.457-.127c1.284.16,3.063.21,3.063,2.962s-1.679,2.952-1.679,2.952.946.33,1.1,1.885c.078.779-.157,2.573-1.571,3,0,0,.788.462.788,2.3,0,0-.157,1.949-1.218,2.509a1.657,1.657,0,0,1,.435.96c0,.507-.152,2.809-1.88,3a66.061,66.061,0,0,1-15.811-.013,3.367,3.367,0,0,1-2.333-1.789H0Z" transform="translate(44.268 46.047)"/>
  <path id="패스_23327" data-name="패스 23327" class="cls-3" d="M0,0" transform="translate(44.455 63.796)"/>
  <path id="패스_23328" data-name="패스 23328" class="cls-2" d="M0,0H70.622V-68.779H0Z" transform="translate(0 68.779)"/>
  <path id="패스_23329" data-name="패스 23329" class="cls-6" d="M0,0" transform="translate(44.455 63.796)"/>
  <path id="패스_23330" data-name="패스 23330" class="cls-7" d="M32.769-4.385h6.15v-19.03h-6.15Z" transform="translate(0 68.779)"/>
  <path id="패스_23331" data-name="패스 23331" class="cls-7" d="M35.774-4.117h9.862V-23.682H35.774Z" transform="translate(0 68.779)"/>
</svg>
