<svg id="구성_요소_96_1" data-name="구성 요소 96 – 1" xmlns="http://www.w3.org/2000/svg" xmlns:xlink="http://www.w3.org/1999/xlink" width="82.491" height="66.306" viewBox="0 0 82.491 66.306">
  <defs>
    <style>
      .cls-1, .cls-4 {
        fill: none;
      }

      .cls-2 {
        clip-path: url(#clip-path);
      }

      .cls-3 {
        fill: #fff;
      }

      .cls-4 {
        stroke: #1e2323;
      }
    </style>
    <clipPath id="clip-path">
      <path id="패스_23283" data-name="패스 23283" class="cls-1" d="M0,0H82.491V-66.306H0Z"/>
    </clipPath>
  </defs>
  <g id="그룹_22814" data-name="그룹 22814" class="cls-2" transform="translate(0 66.306)">
    <g id="그룹_22804" data-name="그룹 22804" transform="translate(79.404 -42.125)">
      <path id="패스_23273" data-name="패스 23273" class="cls-3" d="M0,0-27.583-22.512a4.59,4.59,0,0,0-6.123,0L-61.288,0a2.88,2.88,0,0,0-.291,4,2.725,2.725,0,0,0,3.9.3l26.365-21.269a1,1,0,0,1,1.329,0L-3.614,4.3A2.723,2.723,0,0,0,.29,4,2.881,2.881,0,0,0,0,0"/>
    </g>
    <g id="그룹_22805" data-name="그룹 22805" transform="translate(79.404 -42.125)">
      <path id="패스_23274" data-name="패스 23274" class="cls-4" d="M0,0-27.583-22.512a4.59,4.59,0,0,0-6.123,0L-61.288,0a2.88,2.88,0,0,0-.291,4,2.725,2.725,0,0,0,3.9.3l26.365-21.269a1,1,0,0,1,1.329,0L-3.614,4.3A2.723,2.723,0,0,0,.29,4,2.881,2.881,0,0,0,0,0Z"/>
    </g>
    <g id="그룹_22806" data-name="그룹 22806" transform="translate(48.759 -12.635)">
      <path id="패스_23275" data-name="패스 23275" class="cls-3" d="M0,0A16.077,16.077,0,0,0,16.076-16.076,16.076,16.076,0,0,0,0-32.152,16.075,16.075,0,0,0-16.076-16.076,16.076,16.076,0,0,0,0,0"/>
    </g>
    <g id="그룹_22807" data-name="그룹 22807" transform="translate(48.759 -12.635)">
      <path id="패스_23276" data-name="패스 23276" class="cls-4" d="M0,0A16.077,16.077,0,0,0,16.076-16.076,16.076,16.076,0,0,0,0-32.152,16.075,16.075,0,0,0-16.076-16.076,16.076,16.076,0,0,0,0,0Z"/>
    </g>
    <g id="그룹_22808" data-name="그룹 22808" transform="translate(56.307 -33.814)">
      <path id="패스_23277" data-name="패스 23277" class="cls-3" d="M0,0A4.86,4.86,0,0,0-6.837,0h0l-.71.7L-8.258,0h0A4.86,4.86,0,0,0-15.1,0a4.773,4.773,0,0,0,0,6.786h0l.71.705,6.838,6.786L-.71,7.491,0,6.786H0A4.773,4.773,0,0,0,0,0"/>
    </g>
    <g id="그룹_22809" data-name="그룹 22809" transform="translate(56.307 -33.814)">
      <path id="패스_23278" data-name="패스 23278" class="cls-4" d="M0,0A4.86,4.86,0,0,0-6.837,0h0l-.71.7L-8.258,0h0A4.86,4.86,0,0,0-15.1,0a4.773,4.773,0,0,0,0,6.786h0l.71.705,6.838,6.786L-.71,7.491,0,6.786H0A4.773,4.773,0,0,0,0,0Z"/>
    </g>
    <g id="그룹_22810" data-name="그룹 22810" transform="translate(18.534 -31.289)">
      <path id="패스_23279" data-name="패스 23279" class="cls-3" d="M0,0A7.857,7.857,0,0,1-7.979-7.727,7.858,7.858,0,0,1,0-15.457a7.858,7.858,0,0,1,7.979,7.73A7.857,7.857,0,0,1,0,0"/>
    </g>
    <g id="그룹_22811" data-name="그룹 22811" transform="translate(18.534 -31.289)">
      <path id="패스_23280" data-name="패스 23280" class="cls-4" d="M0,0A7.857,7.857,0,0,1-7.979-7.727,7.858,7.858,0,0,1,0-15.457a7.858,7.858,0,0,1,7.979,7.73A7.857,7.857,0,0,1,0,0Z"/>
    </g>
    <g id="그룹_22812" data-name="그룹 22812" transform="translate(36.564 -2.238)">
      <path id="패스_23281" data-name="패스 23281" class="cls-3" d="M0,0C-.02-3.707-.039-11.672-.039-17.809c0-8.527-10.244-7.492-10.244-7.492H-25.736s-10.287-1.035-10.287,7.492c0,6.137-.019,14.1-.039,17.809Z"/>
    </g>
    <g id="그룹_22813" data-name="그룹 22813" transform="translate(36.564 -2.238)">
      <path id="패스_23282" data-name="패스 23282" class="cls-4" d="M0,0C-.02-3.707-.039-11.672-.039-17.809c0-8.527-10.244-7.492-10.244-7.492H-25.736s-10.287-1.035-10.287,7.492c0,6.137-.019,14.1-.039,17.809Z"/>
    </g>
  </g>
</svg>
