<svg id="구성_요소_97_1" data-name="구성 요소 97 – 1" xmlns="http://www.w3.org/2000/svg" xmlns:xlink="http://www.w3.org/1999/xlink" width="81.245" height="76.143" viewBox="0 0 81.245 76.143">
  <defs>
    <style>
      .cls-1, .cls-3, .cls-6 {
        fill: none;
      }

      .cls-2 {
        clip-path: url(#clip-path);
      }

      .cls-3, .cls-6 {
        stroke: #1e2323;
      }

      .cls-4 {
        fill: #1e2323;
      }

      .cls-5 {
        fill: #fff;
      }

      .cls-6 {
        stroke-miterlimit: 10;
      }
    </style>
    <clipPath id="clip-path">
      <path id="패스_23298" data-name="패스 23298" class="cls-1" d="M0,0H81.245V-76.143H0Z"/>
    </clipPath>
  </defs>
  <g id="그룹_22830" data-name="그룹 22830" class="cls-2" transform="translate(0 76.143)">
    <g id="그룹_22821" data-name="그룹 22821" transform="translate(10.019 -64.601)">
      <path id="패스_23289" data-name="패스 23289" class="cls-3" d="M0,0A34.935,34.935,0,1,1-7.4,11.992"/>
    </g>
    <g id="그룹_22822" data-name="그룹 22822" transform="translate(61.795 -38.458)">
      <path id="패스_23290" data-name="패스 23290" class="cls-4" d="M0,0A24.817,24.817,0,0,1-24.818,24.818,24.817,24.817,0,0,1-49.636,0,24.817,24.817,0,0,1-24.818-24.818,24.817,24.817,0,0,1,0,0"/>
    </g>
    <g id="그룹_22823" data-name="그룹 22823" transform="translate(50.977 -38.458)">
      <path id="패스_23291" data-name="패스 23291" class="cls-4" d="M0,0C0,13.707-6.268,24.818-14,24.818S-28,13.707-28,0s6.268-24.818,14-24.818S0-13.707,0,0"/>
    </g>
    <g id="그룹_22824" data-name="그룹 22824" transform="translate(65.439 -0.001)">
      <path id="패스_23292" data-name="패스 23292" class="cls-4" d="M0,0A15.806,15.806,0,0,0,15.806-15.806,15.806,15.806,0,0,0,0-31.611,15.806,15.806,0,0,0-15.806-15.806,15.806,15.806,0,0,0,0,0"/>
    </g>
    <g id="그룹_22825" data-name="그룹 22825" transform="translate(72.857 -20.82)">
      <path id="패스_23293" data-name="패스 23293" class="cls-4" d="M0,0A4.777,4.777,0,0,0-6.719,0h0l-.7.692L-8.116,0h0a4.777,4.777,0,0,0-6.719,0,4.687,4.687,0,0,0,0,6.667h0l.7.692,6.719,6.667L-.7,7.359,0,6.667H0A4.689,4.689,0,0,0,0,0"/>
    </g>
    <g id="그룹_22826" data-name="그룹 22826" transform="translate(60.377 -40.584)">
      <path id="패스_23294" data-name="패스 23294" class="cls-5" d="M0,0A24.817,24.817,0,0,1-24.818,24.818,24.817,24.817,0,0,1-49.636,0,24.817,24.817,0,0,1-24.818-24.818,24.817,24.817,0,0,1,0,0"/>
    </g>
    <g id="그룹_22827" data-name="그룹 22827" transform="translate(60.377 -40.584)">
      <path id="패스_23295" data-name="패스 23295" class="cls-3" d="M0,0A24.817,24.817,0,0,1-24.818,24.818,24.817,24.817,0,0,1-49.636,0,24.817,24.817,0,0,1-24.818-24.818,24.817,24.817,0,0,1,0,0Z"/>
    </g>
    <g id="그룹_22828" data-name="그룹 22828" transform="translate(49.559 -40.584)">
      <path id="패스_23296" data-name="패스 23296" class="cls-5" d="M0,0C0,13.707-6.268,24.818-14,24.818S-28,13.707-28,0s6.268-24.818,14-24.818S0-13.707,0,0"/>
    </g>
    <g id="그룹_22829" data-name="그룹 22829" transform="translate(49.559 -40.584)">
      <path id="패스_23297" data-name="패스 23297" class="cls-3" d="M0,0C0,13.707-6.268,24.818-14,24.818S-28,13.707-28,0s6.268-24.818,14-24.818S0-13.707,0,0Z"/>
    </g>
  </g>
  <g id="그룹_22831" data-name="그룹 22831" transform="translate(35.574 10.352)">
    <path id="패스_23299" data-name="패스 23299" class="cls-3" d="M0,0V50"/>
  </g>
  <g id="그룹_22832" data-name="그룹 22832" transform="translate(60.529 35.574)">
    <path id="패스_23300" data-name="패스 23300" class="cls-3" d="M0,0H-50"/>
  </g>
  <g id="그룹_22833" data-name="그룹 22833" transform="translate(56.529 22.817)">
    <path id="패스_23301" data-name="패스 23301" class="cls-3" d="M0,0H-42"/>
  </g>
  <g id="그룹_22834" data-name="그룹 22834" transform="translate(56.213 48.33)">
    <path id="패스_23302" data-name="패스 23302" class="cls-3" d="M0,0H-41.683"/>
  </g>
  <g id="그룹_22841" data-name="그룹 22841" class="cls-2" transform="translate(0 76.143)">
    <g id="그룹_22835" data-name="그룹 22835" transform="translate(64.022 -2.126)">
      <path id="패스_23303" data-name="패스 23303" class="cls-5" d="M0,0A15.806,15.806,0,0,0,15.806-15.806,15.806,15.806,0,0,0,0-31.611,15.806,15.806,0,0,0-15.806-15.806,15.806,15.806,0,0,0,0,0"/>
    </g>
    <g id="그룹_22836" data-name="그룹 22836" transform="translate(64.022 -2.126)">
      <path id="패스_23304" data-name="패스 23304" class="cls-3" d="M0,0A15.806,15.806,0,0,0,15.806-15.806,15.806,15.806,0,0,0,0-31.611,15.806,15.806,0,0,0-15.806-15.806,15.806,15.806,0,0,0,0,0Z"/>
    </g>
    <g id="그룹_22837" data-name="그룹 22837" transform="translate(71.44 -22.946)">
      <path id="패스_23305" data-name="패스 23305" class="cls-5" d="M0,0A4.777,4.777,0,0,0-6.719,0h0l-.7.692L-8.116,0h0a4.777,4.777,0,0,0-6.719,0,4.687,4.687,0,0,0,0,6.667h0l.7.692,6.719,6.667L-.7,7.359,0,6.667H0A4.689,4.689,0,0,0,0,0"/>
    </g>
    <g id="그룹_22838" data-name="그룹 22838" transform="translate(71.44 -22.946)">
      <path id="패스_23306" data-name="패스 23306" class="cls-3" d="M0,0A4.777,4.777,0,0,0-6.719,0h0l-.7.692L-8.116,0h0a4.777,4.777,0,0,0-6.719,0,4.687,4.687,0,0,0,0,6.667h0l.7.692,6.719,6.667L-.7,7.359,0,6.667H0A4.689,4.689,0,0,0,0,0Z"/>
    </g>
    <g id="그룹_22839" data-name="그룹 22839" transform="translate(6.234 -55.699)">
      <path id="패스_23307" data-name="패스 23307" class="cls-5" d="M0,0A2.946,2.946,0,0,0,2.947-2.947,2.948,2.948,0,0,0,0-5.895,2.948,2.948,0,0,0-2.947-2.947,2.946,2.946,0,0,0,0,0"/>
    </g>
    <g id="그룹_22840" data-name="그룹 22840" transform="translate(6.234 -55.699)">
      <path id="패스_23308" data-name="패스 23308" class="cls-6" d="M0,0A2.946,2.946,0,0,0,2.947-2.947,2.948,2.948,0,0,0,0-5.895,2.948,2.948,0,0,0-2.947-2.947,2.946,2.946,0,0,0,0,0Z"/>
    </g>
  </g>
</svg>
