<svg id="구성_요소_42_1" data-name="구성 요소 42 – 1" xmlns="http://www.w3.org/2000/svg" width="102.646" height="121.554" viewBox="0 0 102.646 121.554">
  <defs>
    <style>
      .cls-1 {
        fill: #1393d1;
      }

      .cls-2, .cls-3 {
        fill: #fff;
      }

      .cls-3 {
        font-size: 14px;
        font-family: NotoSansKR-Bold, Noto Sans KR;
        font-weight: 700;
      }

      .cls-4 {
        fill: #787b7b;
      }
    </style>
  </defs>
  <path id="패스_17147" data-name="패스 17147" class="cls-1" d="M0,0A51.323,51.323,0,0,1-51.323,51.323,51.323,51.323,0,0,1-102.646,0,51.323,51.323,0,0,1-51.323-51.323,51.323,51.323,0,0,1,0,0" transform="translate(102.646 70.231)"/>
  <path id="패스_36479" data-name="패스 36479" class="cls-2" d="M14.615-10.021q0,5.182-1.634,7.738a5.52,5.52,0,0,1-5,2.557A5.473,5.473,0,0,1,3.076-2.345Q1.395-4.963,1.395-10.021q0-5.223,1.627-7.752A5.5,5.5,0,0,1,7.984-20.3a5.5,5.5,0,0,1,4.942,2.639Q14.615-15.025,14.615-10.021Zm-10.924,0A14.639,14.639,0,0,0,4.717-3.671,3.429,3.429,0,0,0,7.984-1.682,3.431,3.431,0,0,0,11.272-3.7a14.752,14.752,0,0,0,1.019-6.323,14.654,14.654,0,0,0-1.019-6.31,3.434,3.434,0,0,0-3.288-2,3.432,3.432,0,0,0-3.268,1.976A14.541,14.541,0,0,0,3.691-10.021ZM17.668-1.449a2.036,2.036,0,0,1,.417-1.388,1.512,1.512,0,0,1,1.2-.472,1.617,1.617,0,0,1,1.237.472,1.953,1.953,0,0,1,.444,1.388,1.918,1.918,0,0,1-.451,1.367A1.61,1.61,0,0,1,19.281.4a1.62,1.62,0,0,1-1.155-.431A1.872,1.872,0,0,1,17.668-1.449ZM37.127,0H23.988V-1.955l5.264-5.291a38.761,38.761,0,0,0,3.172-3.473,8.863,8.863,0,0,0,1.148-2.023,5.8,5.8,0,0,0,.383-2.119,3.36,3.36,0,0,0-.971-2.536,3.718,3.718,0,0,0-2.693-.937,6.773,6.773,0,0,0-2.358.41,9.4,9.4,0,0,0-2.481,1.49l-1.2-1.545a9.215,9.215,0,0,1,6.016-2.3,6.355,6.355,0,0,1,4.416,1.442,4.961,4.961,0,0,1,1.6,3.876,7.485,7.485,0,0,1-1.066,3.76,23.87,23.87,0,0,1-3.992,4.7L26.846-2.215v.109H37.127ZM51.965-15.285a4.558,4.558,0,0,1-1.073,3.131,5.373,5.373,0,0,1-3.042,1.627v.109a5.721,5.721,0,0,1,3.568,1.531A4.507,4.507,0,0,1,52.58-5.66a5.234,5.234,0,0,1-1.982,4.4A9.015,9.015,0,0,1,44.965.273,16.325,16.325,0,0,1,42.059.034,9.943,9.943,0,0,1,39.5-.807v-2.16a12.465,12.465,0,0,0,2.769.978,12.538,12.538,0,0,0,2.782.335q5.182,0,5.182-4.061,0-3.637-5.715-3.637H42.545v-1.955h2a6.01,6.01,0,0,0,3.705-1.032A3.387,3.387,0,0,0,49.613-15.2a2.824,2.824,0,0,0-1-2.3,4.141,4.141,0,0,0-2.728-.834,8.416,8.416,0,0,0-2.475.355,11.074,11.074,0,0,0-2.652,1.313L39.605-18.2a9.575,9.575,0,0,1,2.837-1.524,10.311,10.311,0,0,1,3.384-.554,6.914,6.914,0,0,1,4.525,1.333A4.489,4.489,0,0,1,51.965-15.285Zm15.59,0a4.558,4.558,0,0,1-1.073,3.131,5.373,5.373,0,0,1-3.042,1.627v.109a5.721,5.721,0,0,1,3.568,1.531A4.507,4.507,0,0,1,68.17-5.66a5.234,5.234,0,0,1-1.982,4.4A9.015,9.015,0,0,1,60.554.273,16.325,16.325,0,0,1,57.649.034a9.943,9.943,0,0,1-2.563-.841v-2.16a12.465,12.465,0,0,0,2.769.978,12.538,12.538,0,0,0,2.782.335q5.182,0,5.182-4.061,0-3.637-5.715-3.637H58.134v-1.955h2a6.01,6.01,0,0,0,3.705-1.032A3.387,3.387,0,0,0,65.2-15.2a2.824,2.824,0,0,0-1-2.3,4.141,4.141,0,0,0-2.728-.834A8.416,8.416,0,0,0,59-17.979a11.074,11.074,0,0,0-2.652,1.313L55.195-18.2a9.575,9.575,0,0,1,2.837-1.524,10.311,10.311,0,0,1,3.384-.554,6.914,6.914,0,0,1,4.525,1.333A4.489,4.489,0,0,1,67.554-15.285Z" transform="translate(16.812 75.277)"/>
  <text id="_" data-name="" class="cls-3" transform="translate(85.834 75.277)"><tspan x="0" y="0"></tspan></text>
  <g id="그룹" transform="translate(-646.017 135.83)">
    <path id="패스_36481" data-name="패스 36481" class="cls-2" d="M3.5.182A4.222,4.222,0,0,0,4.746-.1l-.2-.63a2.61,2.61,0,0,1-.91.21c-.994,0-1.246-.616-1.246-1.554v-4.7H4.536v-.686H2.394V-9.618H1.708l-.1,2.156-1.19.07v.616H1.582v4.648C1.582-.742,2.03.182,3.5.182Z" transform="translate(665.288 -40.656)"/>
    <path id="패스_36480" data-name="패스 36480" class="cls-2" d="M5.152.182A3.824,3.824,0,0,0,8.2-1.274l-.476-.532A3.264,3.264,0,0,1,5.194-.574c-2.142,0-3.472-1.778-3.472-4.564,0-2.758,1.358-4.494,3.514-4.494A2.869,2.869,0,0,1,7.448-8.61l.476-.546a3.53,3.53,0,0,0-2.688-1.232c-2.59,0-4.4,2.016-4.4,5.278S2.632.182,5.152.182Zm7.658,0c2.492,0,4.242-2.072,4.242-5.32s-1.75-5.25-4.242-5.25c-2.464,0-4.228,2.016-4.228,5.25S10.346.182,12.81.182Zm0-.756c-2.016,0-3.346-1.792-3.346-4.564s1.33-4.494,3.346-4.494,3.374,1.722,3.374,4.494S14.84-.574,12.81-.574Z" transform="translate(669.883 -40.656)"/>
  </g>
  <path id="패스_36483" data-name="패스 36483" class="cls-2" d="M.36,0H3.872V-.416H2.056c-.3,0-.64.024-.96.048,1.552-1.448,2.5-2.672,2.5-3.9A1.528,1.528,0,0,0,1.976-5.936a2.144,2.144,0,0,0-1.64.84l.3.28a1.737,1.737,0,0,1,1.3-.728,1.146,1.146,0,0,1,1.192,1.3c0,1.056-.784,2.256-2.76,3.96Z" transform="translate(41.667 95.458)"/>
  <path id="패스_36482" data-name="패스 36482" class="cls-2" d="M4.256.182a4.175,4.175,0,0,0,2.38-.728l-.308-.6A3.341,3.341,0,0,1,4.34-.5C2.73-.5,1.652-1.778,1.61-3.6H6.9a3.872,3.872,0,0,0,.042-.588c0-2.184-1.078-3.472-2.884-3.472C2.366-7.658.784-6.146.784-3.724.784-1.274,2.338.182,4.256.182ZM1.61-4.242A2.657,2.657,0,0,1,4.074-6.958c1.3,0,2.128.91,2.128,2.716Zm5.782,6.72H8.05L12.67-11H12ZM15.2-2.744h7.462V.994h.742V-3.374H15.2ZM16.646-5.5A2.323,2.323,0,0,1,14.21-7.8a2.334,2.334,0,0,1,2.436-2.31A2.334,2.334,0,0,1,19.082-7.8,2.323,2.323,0,0,1,16.646-5.5Zm6.02-5.964v3.332H19.782a2.957,2.957,0,0,0-3.136-2.6A2.934,2.934,0,0,0,13.5-7.8a2.924,2.924,0,0,0,3.15,2.926A2.95,2.95,0,0,0,19.782-7.5h2.884v3.36h.742v-7.322Zm9.828,7.434v.588H35.14v1.47h.742v-9.464H35.14v7.406Zm-2.618-6.3c1.372,0,2.324.644,2.324,1.554,0,.938-.952,1.568-2.324,1.568s-2.324-.63-2.324-1.568C27.552-9.688,28.5-10.332,29.876-10.332Zm0,3.7c1.82,0,3.024-.826,3.024-2.142s-1.2-2.128-3.024-2.128-3.038.826-3.038,2.128S28.056-6.636,29.876-6.636ZM29.6-2.478h.742V-5.012a34.563,34.563,0,0,0,3.626-.364l-.07-.546a68.472,68.472,0,0,1-8.092.364l.112.644c1.092,0,2.338,0,3.682-.056ZM28.42.042V-2.912h-.728V.672H36.2V.042Z" transform="translate(45.823 95.175)"/>
  <path id="패스_36478" data-name="패스 36478" class="cls-4" d="M.616,0h6.65V-1.372H4.69c-.5,0-1.148.042-1.68.1C5.194-3.36,6.776-5.418,6.776-7.406A2.914,2.914,0,0,0,3.668-10.5,4.043,4.043,0,0,0,.532-8.96l.91.9a2.8,2.8,0,0,1,2.03-1.148,1.68,1.68,0,0,1,1.75,1.89c0,1.694-1.568,3.7-4.606,6.384ZM11.69.182c2.016,0,3.332-1.792,3.332-5.376,0-3.556-1.316-5.306-3.332-5.306S8.358-8.764,8.358-5.194,9.66.182,11.69.182Zm0-1.274c-1.05,0-1.792-1.12-1.792-4.1,0-2.954.742-4.032,1.792-4.032s1.792,1.078,1.792,4.032C13.482-2.212,12.74-1.092,11.69-1.092ZM16.6,0h5.88V-1.33H20.468V-10.3H19.25a6.33,6.33,0,0,1-2.24.784V-8.5h1.848V-1.33H16.6ZM26.866-5.04C25.788-5.04,25.2-5.8,25.2-7.112c0-1.344.7-2.142,1.582-2.142,1.12,0,1.89.924,2.044,2.954A2.471,2.471,0,0,1,26.866-5.04Zm-3,4.13A3.536,3.536,0,0,0,26.5.182c1.988,0,3.836-1.624,3.836-5.684,0-3.4-1.6-5-3.57-5A3.151,3.151,0,0,0,23.7-7.112c0,2.156,1.162,3.234,2.884,3.234a3.1,3.1,0,0,0,2.268-1.2c-.1,2.94-1.176,3.948-2.422,3.948a2.3,2.3,0,0,1-1.694-.77Z" transform="translate(35.954 10.5)"/>
</svg>
