<svg id="구성_요소_14_1" data-name="구성 요소 14 – 1" xmlns="http://www.w3.org/2000/svg" width="795.265" height="527.66" viewBox="0 0 795.265 527.66">
  <defs>
    <style>
      .cls-1 {
        fill: #f1f7fe;
      }

      .cls-2 {
        fill: #e7eaee;
      }

      .cls-10, .cls-3 {
        fill: #656464;
      }

      .cls-4 {
        fill: #5171b1;
      }

      .cls-5 {
        fill: #132e54;
      }

      .cls-6 {
        fill: #fff;
      }

      .cls-12, .cls-13, .cls-14, .cls-7, .cls-8, .cls-9 {
        fill: none;
        stroke-miterlimit: 10;
      }

      .cls-7 {
        stroke: #dfdfe0;
      }

      .cls-13, .cls-14, .cls-7, .cls-8, .cls-9 {
        stroke-width: 0.5px;
      }

      .cls-8 {
        stroke: #babbbb;
      }

      .cls-9 {
        stroke: #e0e0e0;
      }

      .cls-10 {
        opacity: 0.8;
      }

      .cls-11 {
        fill: #78a5e2;
      }

      .cls-12, .cls-14 {
        stroke: #656464;
      }

      .cls-12 {
        stroke-width: 0.283px;
      }

      .cls-13 {
        stroke: #3e3a39;
      }
    </style>
  </defs>
  <rect id="사각형_139" data-name="사각형 139" class="cls-1" width="339" height="366.344" transform="translate(456.265)"/>
  <rect id="사각형_140" data-name="사각형 140" class="cls-2" width="255.029" height="207.247" transform="translate(539.594 22.892)"/>
  <rect id="사각형_141" data-name="사각형 141" class="cls-3" width="428.5" height="25" transform="translate(27.765)"/>
  <rect id="사각형_142" data-name="사각형 142" class="cls-4" width="83.329" height="25" transform="translate(456.265)"/>
  <path id="패스_1263" data-name="패스 1263" class="cls-5" d="M0,0H255.812V25H0Z" transform="translate(539.453)"/>
  <path id="패스_1260" data-name="패스 1260" class="cls-3" d="M2.175-8.355A2.164,2.164,0,0,1,4.47-10.5,2.142,2.142,0,0,1,6.75-8.355a2.145,2.145,0,0,1-2.28,2.16A2.166,2.166,0,0,1,2.175-8.355Zm8.46-1.05v2.1H7.74a3.028,3.028,0,0,0,.18-1.05A3.28,3.28,0,0,0,7.755-9.4Zm0,3.105v1.92H11.88v-7.965H10.635v1.935H7.185A3.581,3.581,0,0,0,4.47-11.535,3.21,3.21,0,0,0,1-8.355,3.225,3.225,0,0,0,4.47-5.145,3.5,3.5,0,0,0,7.185-6.3ZM7.425.12C5.4.12,4.17-.48,4.17-1.485s1.23-1.62,3.255-1.62c2.055,0,3.285.6,3.285,1.62S9.48.12,7.425.12Zm0-4.185c-2.76,0-4.47.945-4.47,2.58S4.665,1.1,7.425,1.1s4.5-.945,4.5-2.58S10.2-4.065,7.425-4.065ZM22.29-10.83H18.93v-1.635H17.7v1.635H14.355v.99H22.29ZM16.275-6.8c0-.885.81-1.44,2.04-1.44S20.37-7.68,20.37-6.8,19.545-5.34,18.315-5.34,16.275-5.91,16.275-6.8Zm5.265,0c0-1.44-1.305-2.37-3.225-2.37s-3.21.93-3.21,2.37S16.4-4.41,18.315-4.41,21.54-5.34,21.54-6.8ZM20.535.15C18.57.15,17.37-.36,17.37-1.23s1.2-1.38,3.165-1.38S23.7-2.1,23.7-1.23,22.5.15,20.535.15Zm0-3.705c-2.715,0-4.38.84-4.38,2.325S17.82,1.1,20.535,1.1s4.38-.855,4.38-2.325S23.235-3.555,20.535-3.555Zm6.18-5.46v-1H24.75v-2.325H23.52V-3.69h1.23V-6.135h1.965v-1.02H24.75v-1.86ZM34.92-6a30.39,30.39,0,0,1-5.34.315v-2.04h4.56v-3.81H28.335v1h4.6v1.86H28.38v3.99h.96a31.06,31.06,0,0,0,5.7-.33ZM29.88-2.34h7.77V1.125h1.23v-4.47h-9Zm7.77-9.99v1.98H35.025v1.005H37.65v1.8H35.025v.99H37.65v2.49h1.23V-12.33ZM44.115,2.955l.855-.4a13.827,13.827,0,0,1-1.92-7.215,13.865,13.865,0,0,1,1.92-7.215l-.855-.39a14.009,14.009,0,0,0-2.2,7.605A14.06,14.06,0,0,0,44.115,2.955ZM46.8,0h1.4V-10.995H46.8Zm3.975,0H52.14V-5.91a3.008,3.008,0,0,1,2.055-1.245c1.035,0,1.515.645,1.515,2.175V0h1.365V-5.91A3.008,3.008,0,0,1,59.13-7.155c1.035,0,1.515.645,1.515,2.175V0H62.01V-5.16c0-2.085-.8-3.195-2.475-3.195A3.85,3.85,0,0,0,56.85-6.8a2.148,2.148,0,0,0-2.25-1.56A3.579,3.579,0,0,0,52.065-6.96H52.02L51.9-8.145H50.775Zm13.59,3.435H65.73V.675L65.7-.75A3.675,3.675,0,0,0,67.95.2c1.875,0,3.54-1.6,3.54-4.395,0-2.505-1.14-4.155-3.24-4.155a4.343,4.343,0,0,0-2.6,1.14H65.61l-.12-.93H64.365Zm3.36-4.38A3.157,3.157,0,0,1,65.73-1.8V-6.075A3.4,3.4,0,0,1,67.92-7.2c1.545,0,2.145,1.215,2.145,3.015C70.065-2.16,69.075-.945,67.725-.945ZM74.775.2a4.364,4.364,0,0,0,2.7-1.17h.045L77.64,0h1.125V-5.01c0-2.01-.84-3.345-2.82-3.345a6.127,6.127,0,0,0-3.21,1.065l.54.945a4.488,4.488,0,0,1,2.445-.87c1.335,0,1.68,1.005,1.68,2.055-3.465.39-5.01,1.275-5.01,3.045A2.208,2.208,0,0,0,74.775.2ZM75.165-.9c-.81,0-1.44-.375-1.44-1.3,0-1.05.93-1.725,3.675-2.055v2.28A3.329,3.329,0,0,1,75.165-.9ZM84.27.2A3.884,3.884,0,0,0,86.9-.84l-.585-.915a2.872,2.872,0,0,1-1.92.81c-1.5,0-2.52-1.245-2.52-3.12s1.08-3.15,2.55-3.15a2.365,2.365,0,0,1,1.635.735l.705-.915a3.482,3.482,0,0,0-2.385-.96,3.966,3.966,0,0,0-3.93,4.29C80.445-1.365,82.11.2,84.27.2Zm6.375,0a5.128,5.128,0,0,0,1.5-.3l-.27-1.02a2.886,2.886,0,0,1-.93.21c-.945,0-1.26-.57-1.26-1.575V-7.035H91.89v-1.11H89.685v-2.28h-1.14l-.165,2.28L87.1-8.07v1.035H88.32V-2.52C88.32-.885,88.9.2,90.645.2Zm2.9,2.76a13.944,13.944,0,0,0,2.22-7.62,13.893,13.893,0,0,0-2.22-7.605l-.84.39a14.009,14.009,0,0,1,1.92,7.215A13.97,13.97,0,0,1,92.7,2.55Z" transform="translate(12.465 122.469) rotate(-90)"/>
  <path id="패스_1261" data-name="패스 1261" class="cls-6" d="M1.455,0h6.69V-1.47H3.195V-5.04h4.05V-6.51H3.195V-9.585H7.98V-11.04H1.455ZM10.02,0h1.71V-5.85a2.785,2.785,0,0,1,1.86-1.125c.945,0,1.38.57,1.38,1.995V0h1.725V-5.85a2.754,2.754,0,0,1,1.86-1.125c.93,0,1.38.57,1.38,1.995V0H21.66V-5.19c0-2.1-.81-3.27-2.535-3.27A3.8,3.8,0,0,0,16.44-6.945,2.2,2.2,0,0,0,14.16-8.46a3.594,3.594,0,0,0-2.55,1.365h-.045L11.43-8.25H10.02ZM27.3.2a5.005,5.005,0,0,0,2.79-.87l-.6-1.095a3.5,3.5,0,0,1-1.965.615,2.491,2.491,0,0,1-2.55-2.52H30.33a4.459,4.459,0,0,0,.075-.87c0-2.34-1.17-3.915-3.36-3.915C25.11-8.46,23.28-6.8,23.28-4.11A3.963,3.963,0,0,0,27.3.2ZM24.96-4.86a2.237,2.237,0,0,1,2.115-2.25c1.2,0,1.845.825,1.845,2.25ZM32.055,0h1.71V-5.145c.525-1.305,1.335-1.77,2.01-1.77a2.441,2.441,0,0,1,.825.135l.315-1.5a2.052,2.052,0,0,0-.93-.18,2.852,2.852,0,0,0-2.34,1.7H33.6L33.465-8.25h-1.41ZM40.38,3.7c2.64,0,4.32-1.29,4.32-2.88,0-1.41-1.02-2.01-2.97-2.01H40.215c-1.05,0-1.38-.315-1.38-.81a1.094,1.094,0,0,1,.45-.87,2.868,2.868,0,0,0,1.155.255,2.819,2.819,0,0,0,3.09-2.835,2.23,2.23,0,0,0-.54-1.515h1.575V-8.25H41.64a3.44,3.44,0,0,0-1.2-.21,2.975,2.975,0,0,0-3.195,2.97,2.823,2.823,0,0,0,1.08,2.19v.06a2.036,2.036,0,0,0-.915,1.53,1.517,1.517,0,0,0,.75,1.365V-.27a2.18,2.18,0,0,0-1.2,1.8C36.96,2.97,38.4,3.7,40.38,3.7Zm.06-7.425a1.609,1.609,0,0,1-1.56-1.77,1.571,1.571,0,0,1,1.56-1.755A1.579,1.579,0,0,1,42-5.49,1.609,1.609,0,0,1,40.44-3.72Zm.195,6.285c-1.365,0-2.205-.48-2.205-1.29a1.484,1.484,0,0,1,.705-1.2,5.245,5.245,0,0,0,1.11.12H41.49c1.005,0,1.545.21,1.545.9C43.035,1.86,42.075,2.565,40.635,2.565ZM45.945,0h1.71V-8.25h-1.71ZM46.8-9.8a1.035,1.035,0,0,0,1.11-1.02,1.026,1.026,0,0,0-1.11-1.02,1.013,1.013,0,0,0-1.1,1.02A1.022,1.022,0,0,0,46.8-9.8ZM49.965,0h1.71V-5.85A2.817,2.817,0,0,1,53.7-6.975c.975,0,1.4.57,1.4,1.995V0H56.82V-5.19c0-2.1-.78-3.27-2.535-3.27a3.931,3.931,0,0,0-2.73,1.35H51.51l-.135-1.14h-1.41Zm11.88,3.7c2.64,0,4.32-1.29,4.32-2.88,0-1.41-1.02-2.01-2.97-2.01H61.68c-1.05,0-1.38-.315-1.38-.81a1.094,1.094,0,0,1,.45-.87,2.868,2.868,0,0,0,1.155.255A2.819,2.819,0,0,0,65-5.445a2.23,2.23,0,0,0-.54-1.515H66.03V-8.25H63.1a3.44,3.44,0,0,0-1.2-.21A2.975,2.975,0,0,0,58.71-5.49,2.823,2.823,0,0,0,59.79-3.3v.06a2.036,2.036,0,0,0-.915,1.53,1.517,1.517,0,0,0,.75,1.365V-.27a2.18,2.18,0,0,0-1.2,1.8C58.425,2.97,59.865,3.7,61.845,3.7Zm.06-7.425a1.609,1.609,0,0,1-1.56-1.77,1.571,1.571,0,0,1,1.56-1.755,1.579,1.579,0,0,1,1.56,1.755A1.609,1.609,0,0,1,61.905-3.72ZM62.1,2.565c-1.365,0-2.205-.48-2.205-1.29A1.484,1.484,0,0,1,60.6.075,5.245,5.245,0,0,0,61.71.2h1.245c1.005,0,1.545.21,1.545.9C64.5,1.86,63.54,2.565,62.1,2.565Z" transform="translate(208.776 17.45)"/>
  <path id="패스_1262" data-name="패스 1262" class="cls-6" d="M3.195-9.645H4.86c1.605,0,2.475.465,2.475,1.8s-.87,2-2.475,2H3.195ZM9.45,0,6.75-4.68A3.073,3.073,0,0,0,9.06-7.845c0-2.385-1.71-3.195-3.99-3.195H1.455V0h1.74V-4.455H4.98L7.485,0Zm4.485.2a5.005,5.005,0,0,0,2.79-.87l-.6-1.095a3.5,3.5,0,0,1-1.965.615,2.491,2.491,0,0,1-2.55-2.52h5.355a4.458,4.458,0,0,0,.075-.87c0-2.34-1.17-3.915-3.36-3.915-1.935,0-3.765,1.665-3.765,4.35A3.963,3.963,0,0,0,13.935.2ZM11.595-4.86A2.237,2.237,0,0,1,13.71-7.11c1.2,0,1.845.825,1.845,2.25ZM20.4.2A2.771,2.771,0,0,0,21.33.06L21.1-1.245a1.2,1.2,0,0,1-.285.03c-.21,0-.42-.165-.42-.63v-10.11H18.69v10.02C18.69-.6,19.155.2,20.4.2Zm5.91,0a5.005,5.005,0,0,0,2.79-.87L28.5-1.77a3.5,3.5,0,0,1-1.965.615,2.491,2.491,0,0,1-2.55-2.52H29.34a4.458,4.458,0,0,0,.075-.87c0-2.34-1.17-3.915-3.36-3.915C24.12-8.46,22.29-6.8,22.29-4.11A3.963,3.963,0,0,0,26.31.2ZM23.97-4.86a2.237,2.237,0,0,1,2.115-2.25c1.2,0,1.845.825,1.845,2.25ZM32.88,0h1.995l2.85-8.25h-1.68l-1.41,4.44c-.225.81-.48,1.65-.72,2.46h-.06c-.24-.81-.495-1.65-.72-2.46l-1.41-4.44h-1.77Zm7.35.2a4.1,4.1,0,0,0,2.625-1.14H42.9L43.05,0h1.41V-4.965c0-2.19-.945-3.495-3-3.495a6.319,6.319,0,0,0-3.33,1.08l.645,1.17a4.537,4.537,0,0,1,2.385-.84c1.215,0,1.56.84,1.575,1.8C39.3-4.875,37.8-3.96,37.8-2.19A2.279,2.279,0,0,0,40.23.2Zm.525-1.365c-.735,0-1.29-.33-1.29-1.14,0-.93.825-1.545,3.27-1.845V-2.13A2.908,2.908,0,0,1,40.755-1.17ZM46.6,0h1.71V-5.85A2.817,2.817,0,0,1,50.34-6.975c.975,0,1.4.57,1.4,1.995V0H53.46V-5.19c0-2.1-.78-3.27-2.535-3.27a3.931,3.931,0,0,0-2.73,1.35H48.15l-.135-1.14H46.6ZM58.44.2a5.278,5.278,0,0,0,1.62-.3L59.745-1.38a2.46,2.46,0,0,1-.885.195c-.855,0-1.2-.51-1.2-1.5V-6.87h2.145V-8.25H57.66v-2.28H56.205L56.01-8.25l-1.275.09v1.29h1.2V-2.7C55.935-.96,56.58.2,58.44.2Z" transform="translate(467.556 17.45)"/>
  <path id="패스_339" data-name="패스 339" class="cls-6" d="M3316.541,3368.978l1.02-1.2a4.277,4.277,0,0,0,2.939,1.306c1.335,0,2.085-.63,2.085-1.561,0-1-.75-1.319-1.77-1.77l-1.53-.659a3.175,3.175,0,0,1-2.249-2.9c0-1.74,1.529-3.045,3.629-3.045a4.729,4.729,0,0,1,3.345,1.4l-.915,1.11a3.516,3.516,0,0,0-2.43-.99c-1.125,0-1.86.54-1.86,1.425,0,.945.885,1.3,1.785,1.665l1.515.644a3.084,3.084,0,0,1,2.25,2.986c0,1.769-1.47,3.209-3.885,3.209A5.5,5.5,0,0,1,3316.541,3368.978Zm9.209-9.39a1.013,1.013,0,0,1,1.095-1.02,1.022,1.022,0,1,1-1.095,1.02Zm.24,2.565h1.71v8.249h-1.71Zm3.406,9.779a2.18,2.18,0,0,1,1.2-1.8v-.075a1.519,1.519,0,0,1-.75-1.365,2.037,2.037,0,0,1,.915-1.529v-.06a2.825,2.825,0,0,1-1.079-2.19,2.975,2.975,0,0,1,3.194-2.97,3.437,3.437,0,0,1,1.2.21H3337v1.289h-1.575a2.234,2.234,0,0,1,.54,1.516,2.819,2.819,0,0,1-3.09,2.834,2.87,2.87,0,0,1-1.155-.254,1.091,1.091,0,0,0-.449.869c0,.5.329.81,1.379.81h1.515c1.95,0,2.97.6,2.97,2.011,0,1.589-1.68,2.879-4.32,2.879C3330.835,3374.107,3329.4,3373.372,3329.4,3371.932Zm6.074-.435c0-.69-.54-.9-1.545-.9h-1.245a5.313,5.313,0,0,1-1.11-.119,1.48,1.48,0,0,0-.705,1.2c0,.81.84,1.29,2.205,1.29C3334.51,3372.967,3335.47,3372.262,3335.47,3371.5Zm-1.035-6.584a1.571,1.571,0,1,0-3.12,0,1.573,1.573,0,1,0,3.12,0Zm3.93-2.76h1.41l.135,1.139h.045a3.934,3.934,0,0,1,2.73-1.349c1.755,0,2.535,1.17,2.535,3.269v5.19H3343.5v-4.98c0-1.424-.42-1.994-1.4-1.994a2.813,2.813,0,0,0-2.025,1.125v5.849h-1.71Zm8.82-2.565a1.013,1.013,0,0,1,1.095-1.02,1.022,1.022,0,1,1-1.095,1.02Zm.24,2.565h1.71v8.249h-1.71Zm4.29-1.035c0-1.695.765-2.865,2.61-2.865a3.746,3.746,0,0,1,1.455.285l-.345,1.29a2.248,2.248,0,0,0-.9-.21c-.735,0-1.095.48-1.095,1.485v1.05h1.665v1.38h-1.665v6.869h-1.725v-6.869h-1.125v-1.29l1.125-.09Zm4.95-1.53a1.114,1.114,0,1,1,1.11,1.02A1.026,1.026,0,0,1,3356.665,3359.588Zm.24,2.565h1.725v8.249h-1.725Zm3.435,4.139a4.053,4.053,0,0,1,4.08-4.349,3.542,3.542,0,0,1,2.415.945l-.855,1.125a2.157,2.157,0,0,0-1.485-.645c-1.38,0-2.37,1.17-2.37,2.924s.945,2.9,2.325,2.9a2.832,2.832,0,0,0,1.8-.75l.705,1.139a4.02,4.02,0,0,1-2.67,1.02C3362.05,3370.6,3360.34,3369.022,3360.34,3366.292Zm7.4,1.92c0-1.77,1.5-2.685,4.935-3.06-.015-.96-.36-1.8-1.575-1.8a4.545,4.545,0,0,0-2.385.839l-.645-1.17a6.318,6.318,0,0,1,3.33-1.079c2.055,0,3,1.3,3,3.495v4.964h-1.41l-.15-.944h-.045a4.1,4.1,0,0,1-2.625,1.139A2.279,2.279,0,0,1,3367.735,3368.212Zm4.935.06v-2.024c-2.445.3-3.27.915-3.27,1.844,0,.81.555,1.14,1.29,1.14A2.908,2.908,0,0,0,3372.67,3368.272Zm3.87-6.119h1.41l.135,1.139h.045a3.935,3.935,0,0,1,2.73-1.349c1.755,0,2.535,1.17,2.535,3.269v5.19h-1.725v-4.98c0-1.424-.42-1.994-1.4-1.994a2.813,2.813,0,0,0-2.025,1.125v5.849h-1.71Zm9.33,5.55v-4.17h-1.2v-1.29l1.275-.09.195-2.28h1.455v2.28h2.145v1.38h-2.145v4.184c0,.991.345,1.5,1.2,1.5a2.459,2.459,0,0,0,.885-.2l.315,1.275a5.282,5.282,0,0,1-1.62.3C3386.515,3370.6,3385.87,3369.442,3385.87,3367.7Z" transform="translate(-2749.655 -3352.952)"/>
  <path id="패스_1290" data-name="패스 1290" class="cls-3" d="M2.175-8.115a2.222,2.222,0,0,1,2.3-2.3,2.219,2.219,0,0,1,2.28,2.3A2.219,2.219,0,0,1,4.47-5.82,2.222,2.222,0,0,1,2.175-8.115Zm8.46-1.125v2.235H7.74a3.377,3.377,0,0,0,.18-1.11A3.4,3.4,0,0,0,7.74-9.24Zm0,3.225V-2.4H11.88v-9.93H10.635v2.1H7.215A3.447,3.447,0,0,0,4.47-11.49,3.319,3.319,0,0,0,1-8.115,3.319,3.319,0,0,0,4.47-4.74,3.444,3.444,0,0,0,7.23-6.015ZM4.515-.2V-3.42H3.27V.81h8.985V-.2ZM21.36-6.6a19.459,19.459,0,0,0,.345-3.99V-11.3h-6.69v1.005h5.49a17.1,17.1,0,0,1-.36,3.555Zm1.275.81c-1.365.2-2.9.3-4.365.36V-8.3H17.055v2.91c-1.02.015-1.995.03-2.85.03l.12,1.005a53.915,53.915,0,0,0,8.4-.54ZM17.49-3.135H16.26V.81H25.2V-.2H17.49Zm7.275-4.83v-4.38h-1.23V-2.2h1.23v-4.74H26.7v-1.02ZM37.635-4.38H38.88v-7.95H37.635v2.85H34.71v1.005h2.925Zm-1.95-1.59a4.613,4.613,0,0,1-3.27-4.275V-11.58h-1.23v1.38A4.9,4.9,0,0,1,27.78-5.61l.645,1.005a5.69,5.69,0,0,0,3.405-3.42,5.508,5.508,0,0,0,3.2,3.015ZM34.44.12c-2.025,0-3.255-.585-3.255-1.56s1.23-1.575,3.255-1.575,3.255.585,3.255,1.575S36.465.12,34.44.12Zm0-4.095c-2.76,0-4.485.915-4.485,2.535S31.68,1.1,34.44,1.1s4.47-.93,4.47-2.535S37.2-3.975,34.44-3.975Zm9.66,6.93.855-.4a13.827,13.827,0,0,1-1.92-7.215,13.865,13.865,0,0,1,1.92-7.215l-.855-.39a14.009,14.009,0,0,0-2.2,7.605A14.06,14.06,0,0,0,44.1,2.955ZM48.18-9.87h1.845c1.725,0,2.67.51,2.67,1.965,0,1.425-.945,2.115-2.67,2.115H48.18ZM54.4,0l-2.82-4.815a2.982,2.982,0,0,0,2.49-3.09c0-2.295-1.6-3.09-3.84-3.09h-3.45V0h1.4V-4.665h1.98L52.83,0Zm4.44.2a4.848,4.848,0,0,0,2.7-.84l-.495-.9A3.511,3.511,0,0,1,59.01-.9a2.7,2.7,0,0,1-2.7-2.85H61.8a5.328,5.328,0,0,0,.06-.78c0-2.325-1.17-3.825-3.24-3.825-1.89,0-3.675,1.65-3.675,4.29C54.945-1.38,56.685.2,58.845.2ZM56.3-4.725a2.506,2.506,0,0,1,2.34-2.535c1.275,0,2.025.885,2.025,2.535ZM65.025.2a2.157,2.157,0,0,0,.795-.12l-.195-1.05a1.2,1.2,0,0,1-.285.03c-.21,0-.39-.165-.39-.585V-11.94H63.585V-1.62C63.585-.465,64.005.2,65.025.2ZM70.86.2a4.848,4.848,0,0,0,2.7-.84l-.495-.9a3.511,3.511,0,0,1-2.04.645,2.7,2.7,0,0,1-2.7-2.85h5.49a5.329,5.329,0,0,0,.06-.78c0-2.325-1.17-3.825-3.24-3.825-1.89,0-3.675,1.65-3.675,4.29C66.96-1.38,68.7.2,70.86.2Zm-2.55-4.92A2.506,2.506,0,0,1,70.65-7.26c1.275,0,2.025.885,2.025,2.535ZM77.505,0H79.1l2.9-8.145H80.64L79.1-3.51c-.24.8-.51,1.635-.75,2.4h-.06c-.255-.765-.51-1.6-.765-2.4L75.99-8.145H74.565ZM84.48.2a4.364,4.364,0,0,0,2.7-1.17h.045l.12.975H88.47V-5.01c0-2.01-.84-3.345-2.82-3.345A6.127,6.127,0,0,0,82.44-7.29l.54.945a4.488,4.488,0,0,1,2.445-.87c1.335,0,1.68,1.005,1.68,2.055-3.465.39-5.01,1.275-5.01,3.045A2.208,2.208,0,0,0,84.48.2ZM84.87-.9c-.81,0-1.44-.375-1.44-1.3,0-1.05.93-1.725,3.675-2.055v2.28A3.329,3.329,0,0,1,84.87-.9Zm5.9.9H92.13V-5.91a3.1,3.1,0,0,1,2.235-1.245c1.08,0,1.545.645,1.545,2.175V0h1.365V-5.16c0-2.085-.78-3.195-2.49-3.195a3.906,3.906,0,0,0-2.73,1.38H92.01l-.12-1.17H90.765ZM102.84.2A3.884,3.884,0,0,0,105.465-.84l-.585-.915a2.872,2.872,0,0,1-1.92.81c-1.5,0-2.52-1.245-2.52-3.12s1.08-3.15,2.55-3.15a2.365,2.365,0,0,1,1.635.735l.705-.915a3.482,3.482,0,0,0-2.385-.96,3.966,3.966,0,0,0-3.93,4.29C99.015-1.365,100.68.2,102.84.2Zm6.705,0a4.848,4.848,0,0,0,2.7-.84l-.495-.9a3.511,3.511,0,0,1-2.04.645,2.7,2.7,0,0,1-2.7-2.85h5.49a5.329,5.329,0,0,0,.06-.78c0-2.325-1.17-3.825-3.24-3.825-1.89,0-3.675,1.65-3.675,4.29C105.645-1.38,107.385.2,109.545.2Zm-2.55-4.92a2.506,2.506,0,0,1,2.34-2.535c1.275,0,2.025.885,2.025,2.535Zm7.4,7.68a13.944,13.944,0,0,0,2.22-7.62,13.893,13.893,0,0,0-2.22-7.605l-.84.39a14.009,14.009,0,0,1,1.92,7.215,13.97,13.97,0,0,1-1.92,7.215Z" transform="translate(676.611 524.705)"/>
  <line id="선_729" data-name="선 729" class="cls-7" x2="767.5" transform="translate(27.765 434.75)"/>
  <line id="선_730" data-name="선 730" class="cls-7" x2="767.5" transform="translate(27.765 366.5)"/>
  <line id="선_731" data-name="선 731" class="cls-7" x2="767.5" transform="translate(27.765 298.25)"/>
  <line id="선_732" data-name="선 732" class="cls-7" x2="767.5" transform="translate(27.765 230)"/>
  <line id="선_733" data-name="선 733" class="cls-7" x2="767.5" transform="translate(27.765 161.75)"/>
  <line id="선_734" data-name="선 734" class="cls-7" x2="767.5" transform="translate(27.765 93.5)"/>
  <line id="선_735" data-name="선 735" class="cls-8" x2="767.5" transform="translate(27.765 25.25)"/>
  <line id="선_736" data-name="선 736" class="cls-9" y2="476" transform="translate(105.265 25.5)"/>
  <line id="선_737" data-name="선 737" class="cls-9" y2="476" transform="translate(181.904 25.5)"/>
  <line id="선_738" data-name="선 738" class="cls-9" y2="476" transform="translate(258.543 25.5)"/>
  <line id="선_739" data-name="선 739" class="cls-9" y2="476" transform="translate(335.181 25.5)"/>
  <line id="선_740" data-name="선 740" class="cls-9" y2="476" transform="translate(488.459 25.5)"/>
  <line id="선_741" data-name="선 741" class="cls-9" y2="476" transform="translate(565.098 25.5)"/>
  <line id="선_742" data-name="선 742" class="cls-9" y2="476" transform="translate(641.737 25.5)"/>
  <line id="선_743" data-name="선 743" class="cls-9" y2="476" transform="translate(718.376 25.5)"/>
  <g id="그룹_79" data-name="그룹 79" transform="translate(-2749.655 -3352.952)">
    <path id="패스_340" data-name="패스 340" class="cls-3" d="M2871.545,3840.232a4,4,0,1,0-4-4,4,4,0,0,0,4,4"/>
  </g>
  <path id="패스_1276" data-name="패스 1276" class="cls-3" d="M7.4-6.18H8.772v2.952H9.72V-9.864H8.772v2.88H7.4V-9.66H6.468v6.084H7.4ZM6.024-4.824A3.236,3.236,0,0,1,3.84-7.752V-9.2H2.892v1.452A3.727,3.727,0,0,1,.648-4.536l.528.768a4.28,4.28,0,0,0,2.2-2.388A3.858,3.858,0,0,0,5.5-4.068ZM6.168.12C4.56.12,3.552-.312,3.552-1.056S4.56-2.22,6.168-2.22C7.8-2.22,8.8-1.8,8.8-1.056S7.8.12,6.168.12Zm0-3.108c-2.208,0-3.588.708-3.588,1.932S3.96.876,6.168.876s3.6-.708,3.6-1.932S8.388-2.988,6.168-2.988ZM17.784-4.464a3.768,3.768,0,0,1-2.652-3.408V-9.228h-.984V-7.9A3.911,3.911,0,0,1,11.46-4.2l.516.78a4.465,4.465,0,0,0,2.688-2.736,4.527,4.527,0,0,0,2.628,2.472ZM14.172-2.688h-.984V.648h7.14v-.8H14.172ZM19.86-6.576V-9.888h-.984v7.956h.984V-5.76h1.6v-.816ZM28.776-9.06H26.184v-.924H25.2v.924H22.6v.708h6.18ZM24.108-6.6c0-.48.612-.768,1.584-.768s1.572.288,1.572.768-.612.78-1.572.78S24.108-6.12,24.108-6.6ZM29.1-4.824c-.924.132-1.932.2-2.916.252V-5.2C27.42-5.3,28.2-5.808,28.2-6.6c0-.888-1-1.416-2.508-1.416-1.536,0-2.52.528-2.52,1.416,0,.8.78,1.308,2.028,1.4v.66c-1.032.036-2.028.036-2.868.036l.108.732a39.564,39.564,0,0,0,6.72-.42ZM24.744-.852H30.72v-2.2H23.748v.7h6v.84H23.784V.768h7.344V.06H24.744ZM30.72-7.128V-9.876h-.984v6.36h.984V-6.3H32.3v-.828ZM38.124.12c-1.7,0-2.7-.42-2.7-1.176s1-1.176,2.7-1.176c1.68,0,2.676.42,2.676,1.176S39.8.12,38.124.12Zm0-3.12c-2.3,0-3.7.7-3.7,1.944S35.82.888,38.124.888c2.28,0,3.672-.7,3.672-1.944S40.4-3,38.124-3Zm.492-1.56V-5.808h3.24V-6.6h-6.4V-8.592h6.324v-.792H34.476v3.576h3.156V-4.56h-4.38v.792H43V-4.56Zm9-4.524a2.607,2.607,0,0,0-2.88,2.532,2.614,2.614,0,0,0,2.88,2.532A2.607,2.607,0,0,0,50.5-6.552,2.6,2.6,0,0,0,47.616-9.084Zm0,.84a1.739,1.739,0,0,1,1.92,1.692,1.746,1.746,0,0,1-1.92,1.692A1.746,1.746,0,0,1,45.7-6.552,1.739,1.739,0,0,1,47.616-8.244Zm4.3-1.632V.912H52.9V-9.876Zm-7.6,8.424a38.458,38.458,0,0,0,6.972-.468L51.2-2.652A48.467,48.467,0,0,1,44.2-2.28ZM64.284-6.18h1.368v2.952H66.6V-9.864h-.948v2.88H64.284V-9.66h-.936v6.084h.936ZM62.9-4.824A3.236,3.236,0,0,1,60.72-7.752V-9.2h-.948v1.452a3.727,3.727,0,0,1-2.244,3.216l.528.768a4.28,4.28,0,0,0,2.2-2.388,3.858,3.858,0,0,0,2.124,2.088ZM63.048.12c-1.608,0-2.616-.432-2.616-1.176S61.44-2.22,63.048-2.22c1.632,0,2.628.42,2.628,1.164S64.68.12,63.048.12Zm0-3.108c-2.208,0-3.588.708-3.588,1.932S60.84.876,63.048.876s3.6-.708,3.6-1.932S65.268-2.988,63.048-2.988Zm6.708-2.028h3.132V-5.8H69.756v-2.04h3.3v-.8H68.808v6.864h.708a19.712,19.712,0,0,0,4.02-.276l-.1-.816a17.515,17.515,0,0,1-3.684.276Zm6.84-4.86v4.32H75.168v-4.08h-.936v10h.936V-4.752H76.6V.888h.936V-9.876Zm3.768,3.192A1.731,1.731,0,0,1,82.2-8.4a1.714,1.714,0,0,1,1.824,1.716A1.716,1.716,0,0,1,82.2-4.956,1.733,1.733,0,0,1,80.364-6.684Zm6.768-.84v1.68H84.816a2.422,2.422,0,0,0,.144-.84,2.624,2.624,0,0,0-.132-.84Zm0,2.484V-3.5h1V-9.876h-1v1.548h-2.76a2.865,2.865,0,0,0-2.172-.9,2.568,2.568,0,0,0-2.772,2.544A2.58,2.58,0,0,0,82.2-4.116a2.8,2.8,0,0,0,2.172-.924ZM84.564.1c-1.62,0-2.6-.48-2.6-1.284s.984-1.3,2.6-1.3c1.644,0,2.628.48,2.628,1.3S86.208.1,84.564.1Zm0-3.348c-2.208,0-3.576.756-3.576,2.064S82.356.876,84.564.876s3.6-.756,3.6-2.064S86.784-3.252,84.564-3.252ZM96.516-8.664H93.828V-9.972h-.984v1.308H90.168v.792h6.348ZM91.7-5.436c0-.708.648-1.152,1.632-1.152s1.644.444,1.644,1.152-.66,1.164-1.644,1.164S91.7-4.728,91.7-5.436Zm4.212,0c0-1.152-1.044-1.9-2.58-1.9s-2.568.744-2.568,1.9S91.8-3.528,93.336-3.528,95.916-4.272,95.916-5.436ZM95.112.12c-1.572,0-2.532-.408-2.532-1.1s.96-1.1,2.532-1.1,2.532.408,2.532,1.1S96.684.12,95.112.12Zm0-2.964c-2.172,0-3.5.672-3.5,1.86s1.332,1.86,3.5,1.86,3.5-.684,3.5-1.86S97.272-2.844,95.112-2.844Zm4.944-4.368v-.8H98.484v-1.86H97.5v6.924h.984V-4.908h1.572v-.816H98.484V-7.212Zm7.188-.756h2.448v-.8h-5.868v.8h2.436V-6.72a5.605,5.605,0,0,1-2.82,4.7l.576.78a6.067,6.067,0,0,0,2.736-3.612,5.912,5.912,0,0,0,2.724,3.384l.588-.768a5.343,5.343,0,0,1-2.82-4.488Zm4.164-1.908v3.912H109.08v.8h2.328V.9h.984V-9.876Zm3.456.684v.8h3.912c-.192,1.824-1.764,3.24-4.392,3.948l.384.78c3.168-.864,5.064-2.8,5.064-5.532Zm2.076,6.72h4.836V-.06H116.94Zm-.972,3.2h6.78v-4h-6.78Zm8.376-7.98h-1.6v-2.64h-.984v6.12h.984V-6.432h1.6Z" transform="translate(130.89 488.56)"/>
  <g id="그룹_80" data-name="그룹 80" transform="translate(-2749.655 -3352.952)">
    <path id="패스_341" data-name="패스 341" class="cls-3" d="M3026.17,3824.232a4,4,0,1,0-4-4,4,4,0,0,0,4,4"/>
  </g>
  <path id="패스_1275" data-name="패스 1275" class="cls-3" d="M1.992-7.764H5.028v-.8H1.02v6.8h.708a17.673,17.673,0,0,0,3.984-.324L5.628-2.9a16.93,16.93,0,0,1-3.636.324Zm6.84-2.112v4.32H7.308v-4.08H6.384V.348h.924v-5.1H8.832V.888H9.78V-9.876Zm3.312,1.164v.792h4.044c-.2,2.556-1.644,4.62-4.536,6l.528.8c3.576-1.752,5-4.488,5-7.6Zm7.212-1.164V.888h.984V-9.876Zm14.364.012h-.984v5.58h.984Zm-2.232,4.6a3.448,3.448,0,0,1-2.712-3.084v-.12h2.436v-.792h-5.9v.792h2.46v.12a3.634,3.634,0,0,1-2.724,3.3l.468.78A4.44,4.44,0,0,0,28.284-6.84,4.345,4.345,0,0,0,31.032-4.5ZM27.756-.012V-1.188h5.976v-2.58H26.76V-3h6v1.08H26.784V.768h7.308v-.78ZM43.944-5.28a15.567,15.567,0,0,0,.276-3.192v-.564H38.868v.8H43.26a13.682,13.682,0,0,1-.288,2.844Zm1.02.648c-1.092.156-2.316.24-3.492.288V-6.636H40.5v2.328c-.816.012-1.6.024-2.28.024l.1.8a43.132,43.132,0,0,0,6.72-.432ZM40.848-2.508h-.984V.648h7.152v-.8H40.848Zm5.82-3.864v-3.5h-.984v8.112h.984V-5.556h1.548v-.816ZM50.76-5.028h3.972V-8.88H49.74v.8h4v2.244h-3.96V-1.7h.888a31.235,31.235,0,0,0,5.424-.4l-.1-.8a31.63,31.63,0,0,1-5.232.384ZM57-9.888V.9h.984V-9.888Z" transform="translate(285.515 472.56)"/>
  <g id="그룹_81" data-name="그룹 81" transform="translate(-2749.655 -3352.952)">
    <path id="패스_342" data-name="패스 342" class="cls-3" d="M3209.92,3818.952a4,4,0,1,0-4-4,4,4,0,0,0,4,4"/>
  </g>
  <path id="패스_1277" data-name="패스 1277" class="cls-3" d="M9.9-5.772c-1.956-.288-3.876-1.62-3.876-3.12v-.6H4.992v.6c0,1.536-1.9,2.832-3.852,3.12l.4.792A5.515,5.515,0,0,0,5.508-7.5,5.648,5.648,0,0,0,9.492-4.98Zm.468,1.956H.648V-3H4.992V.9h.984V-3h4.4Zm4.764-4.14H17.52v-.816H11.7v.816h2.46v1.368a5.627,5.627,0,0,1-2.832,4.632l.576.78A6.076,6.076,0,0,0,14.652-4.74a5.808,5.808,0,0,0,2.7,3.3l.564-.792a5.176,5.176,0,0,1-2.784-4.356Zm6.432,2.424H19.788V-9.864H18.8V.888h.984V-4.7h1.776ZM28.02-3.516v.732H30.2v1.1h.984v-8.2H30.2v6.36Zm-2.2-5.2c1.02,0,1.716.456,1.716,1.14s-.7,1.152-1.716,1.152-1.716-.456-1.716-1.152S24.8-8.712,25.824-8.712Zm0,3.024c1.572,0,2.652-.732,2.652-1.884,0-1.128-1.08-1.872-2.652-1.872s-2.652.744-2.652,1.872C23.172-6.42,24.252-5.688,25.824-5.688ZM25.44-2.064h.984V-4.188c.972-.06,1.968-.168,2.916-.312l-.084-.708A58.47,58.47,0,0,1,22.32-4.9l.132.816c.888,0,1.92-.012,2.988-.06Zm-.6,1.908V-2.484h-.984V.648h7.608v-.8ZM41.424-5.28A15.567,15.567,0,0,0,41.7-8.472v-.564H36.348v.8H40.74a13.682,13.682,0,0,1-.288,2.844Zm1.02.648c-1.092.156-2.316.24-3.492.288V-6.636H37.98v2.328c-.816.012-1.6.024-2.28.024l.1.8a43.132,43.132,0,0,0,6.72-.432ZM38.328-2.508h-.984V.648H44.5v-.8H38.328Zm5.82-3.864v-3.5h-.984v8.112h.984V-5.556H45.7v-.816ZM48.24-5.028h3.972V-8.88H47.22v.8h4v2.244h-3.96V-1.7h.888a31.235,31.235,0,0,0,5.424-.4l-.1-.8a31.63,31.63,0,0,1-5.232.384Zm6.24-4.86V.9h.984V-9.888Z" transform="translate(469.265 467.28)"/>
  <g id="그룹_82" data-name="그룹 82" transform="translate(-2749.655 -3352.952)">
    <path id="패스_343" data-name="패스 343" class="cls-3" d="M3134.045,3780.232a4,4,0,1,0-4-4,4,4,0,0,0,4,4"/>
  </g>
  <path id="패스_1274" data-name="패스 1274" class="cls-3" d="M3.072-2.388c-.864,0-1.4-1.092-1.4-2.856,0-1.728.54-2.82,1.4-2.82.84,0,1.392,1.092,1.392,2.82C4.464-3.48,3.912-2.388,3.072-2.388Zm3.636-3.3H5.352c-.12-2.028-.984-3.288-2.28-3.288-1.4,0-2.3,1.44-2.3,3.732,0,2.328.9,3.768,2.3,3.768,1.32,0,2.2-1.3,2.28-3.408H6.708V.36h.936v-10H6.708ZM8.844-9.876V.888H9.78V-9.876Zm4.236,1.2H12.1v6.984h.84a25.252,25.252,0,0,0,4.92-.432l-.132-.84a23.331,23.331,0,0,1-4.644.444Zm6.312-1.2v3.552h-3.3v.816h3.3V.912h.984V-9.876Zm6.828,1.92h2.532v-.816H22.74v.816h2.5v1.368a5.505,5.505,0,0,1-2.856,4.62l.576.792a6.036,6.036,0,0,0,2.772-3.552,5.686,5.686,0,0,0,2.82,3.288l.552-.792a5.012,5.012,0,0,1-2.88-4.356ZM30.2-9.864V.888h.984V-9.864ZM41.424-5.28A15.567,15.567,0,0,0,41.7-8.472v-.564H36.348v.8H40.74a13.682,13.682,0,0,1-.288,2.844Zm1.02.648c-1.092.156-2.316.24-3.492.288V-6.636H37.98v2.328c-.816.012-1.6.024-2.28.024l.1.8a43.132,43.132,0,0,0,6.72-.432ZM38.328-2.508h-.984V.648H44.5v-.8H38.328Zm5.82-3.864v-3.5h-.984v8.112h.984V-5.556H45.7v-.816ZM48.24-5.028h3.972V-8.88H47.22v.8h4v2.244h-3.96V-1.7h.888a31.235,31.235,0,0,0,5.424-.4l-.1-.8a31.63,31.63,0,0,1-5.232.384Zm6.24-4.86V.9h.984V-9.888Z" transform="translate(393.39 428.56)"/>
  <g id="그룹_83" data-name="그룹 83" transform="translate(-2749.655 -3352.952)">
    <path id="패스_344" data-name="패스 344" class="cls-3" d="M3233.045,3770.422a4,4,0,1,0-4-4,4,4,0,0,0,4,4"/>
  </g>
  <path id="패스_1278" data-name="패스 1278" class="cls-3" d="M1.272-8.712v.792H5.316c-.2,2.556-1.644,4.62-4.536,6l.528.8c3.576-1.752,5-4.488,5-7.6ZM8.484-9.876V.888h.984V-9.876ZM20.664-8.64H16.872v-1.3h-1v1.3H12.012v.792h8.652Zm-1.824,3.2c0,.66-.888,1.044-2.46,1.044S13.9-4.776,13.9-5.436,14.808-6.48,16.38-6.48,18.84-6.1,18.84-5.436Zm-5.964,0c0,1.152,1.308,1.788,3.5,1.788,2.172,0,3.48-.636,3.48-1.788s-1.308-1.8-3.48-1.8C14.184-7.236,12.876-6.588,12.876-5.436Zm8.388,2.544H11.508v.8h4.368V.9h1V-2.088h4.392ZM30.252-7.1V-5.58H27.768V-7.1ZM26.8-4.536h-2.9V-6.48h2.9Zm.972-.24h2.484v2.868h1V-9.864h-1V-7.9H27.768v-1.26H26.8v1.9h-2.9v-1.9H22.92v5.412h4.848Zm-2.46,4.62V-2.688h-.984V.648H31.5v-.8ZM39.744-8.568H37.032v-1.3h-.984v1.3H33.312v.78h6.432ZM34.932-5.16c0-.744.648-1.236,1.608-1.236s1.608.492,1.608,1.236S37.5-3.936,36.54-3.936,34.932-4.416,34.932-5.16Zm2.1,1.968A2.058,2.058,0,0,0,39.084-5.16c0-1.212-1.044-1.992-2.544-1.992S34-6.372,34-5.16a2.058,2.058,0,0,0,2.052,1.968v1.176C35-1.98,34-1.98,33.132-1.98l.132.828a39.728,39.728,0,0,0,6.72-.432l-.06-.732a28.137,28.137,0,0,1-2.892.264ZM43.224-5.3h-1.68V-9.876H40.56V.888h.984V-4.476h1.68Zm4.764-2.46h3.036v-.8H47.016v6.8h.708a17.673,17.673,0,0,0,3.984-.324L51.624-2.9a16.93,16.93,0,0,1-3.636.324Zm6.84-2.112v4.32H53.3v-4.08H52.38V.348H53.3v-5.1h1.524V.888h.948V-9.876ZM57.5-4.644v.792h9.72v-.792Zm4.86,1.692c-2.292,0-3.684.684-3.684,1.92S60.072.888,62.364.888s3.684-.7,3.684-1.92S64.668-2.952,62.364-2.952Zm0,.756c1.692,0,2.688.432,2.688,1.164S64.056.12,62.364.12,59.676-.3,59.676-1.032,60.672-2.2,62.364-2.2Zm0-7.4c-2.316,0-3.78.756-3.78,2.052s1.464,2.04,3.78,2.04,3.78-.756,3.78-2.04S64.692-9.6,62.364-9.6Zm0,.768c1.7,0,2.772.48,2.772,1.284s-1.068,1.272-2.772,1.272-2.772-.48-2.772-1.272S60.66-8.832,62.364-8.832Z" transform="translate(492.39 418.749)"/>
  <g id="그룹_84" data-name="그룹 84" transform="translate(-2749.655 -3352.952)">
    <path id="패스_345" data-name="패스 345" class="cls-3" d="M3296.42,3747.672a4,4,0,1,0-4-4,4,4,0,0,0,4,4"/>
  </g>
  <path id="패스_1279" data-name="패스 1279" class="cls-3" d="M9.9-5.772c-1.956-.288-3.876-1.62-3.876-3.12v-.6H4.992v.6c0,1.536-1.9,2.832-3.852,3.12l.4.792A5.515,5.515,0,0,0,5.508-7.5,5.648,5.648,0,0,0,9.492-4.98Zm.468,1.956H.648V-3H4.992V.9h.984V-3h4.4Zm9.012.576h1V-9.864h-1v1.908H17.6v.8H19.38v1.128H17.6v.8H19.38ZM13.848-8.268h1.62v3.492c-.54.024-1.092.048-1.62.06Zm3.984,3.3c-.444.06-.924.108-1.4.144V-8.268H17.5V-9.06H11.832v.792H12.9V-4.7c-.48.012-.948.012-1.356.012l.108.816a42.8,42.8,0,0,0,6.24-.36ZM16.824.108c-1.632,0-2.6-.432-2.6-1.188,0-.732.972-1.176,2.6-1.176s2.6.444,2.6,1.176C19.428-.324,18.456.108,16.824.108Zm0-3.12c-2.232,0-3.588.7-3.588,1.932S14.592.876,16.824.876,20.4.168,20.4-1.08,19.044-3.012,16.824-3.012Zm11.9-1.608a3.706,3.706,0,0,1-2.616-3.288V-8.34h2.364v-.8H22.728v.8h2.4v.432A3.91,3.91,0,0,1,22.416-4.38l.516.78a4.561,4.561,0,0,0,2.7-2.688,4.46,4.46,0,0,0,2.6,2.436Zm-4.68,2.568h6.2V.9h.984V-2.844H24.048Zm6.2-7.824v2.808h-2.1v.8h2.1v2.832h.984V-9.876Zm10.824,0V.912h.984V-9.876Zm-4.692.828c-1.6,0-2.736,1.464-2.736,3.756s1.14,3.756,2.736,3.756S39.12-3,39.12-5.292,37.98-9.048,36.384-9.048Zm0,.888c1.044,0,1.788,1.128,1.788,2.868s-.744,2.88-1.788,2.88-1.8-1.128-1.8-2.88S35.328-8.16,36.384-8.16Zm15.336.432a22.98,22.98,0,0,1-.408,4.872l.984.108a24.264,24.264,0,0,0,.408-4.98V-8.8H45.156v.8H51.72Zm-2.82,6.3V-5.28h-.984v3.852h-3.78v.8h9.732v-.8Zm9.18-7.3v.816h3.948C61.8-5.364,60.324-3.3,57.576-1.92l.54.768A8.092,8.092,0,0,0,63-8.724Zm9.432,3.216H65.784V-9.876H64.8V.888h.984v-5.58h1.728Zm1.776.012c1.764-.216,3.36-1.008,3.96-2.2.6,1.188,2.208,1.98,3.972,2.2l.348-.768c-1.9-.216-3.624-1.164-3.684-2.376h3.348v-.8H69.264v.8h3.348c-.06,1.212-1.812,2.16-3.684,2.376Zm.168,3.684h6.468V.9h.984V-2.6H69.456Zm4.272-2.664V-6.1h-.984v1.62H68.376v.8h9.768v-.8Zm16.86-5.388H89.6V-1.92h.984ZM88.38-4.188a3.554,3.554,0,0,1-2.724-3.18v-.276h2.436v-.792H85.668v-1.38h-.984v1.38H82.236v.792h2.448v.276a3.7,3.7,0,0,1-2.7,3.384l.48.768a4.429,4.429,0,0,0,2.724-2.556A4.383,4.383,0,0,0,87.912-3.42ZM84.648-.156v-2.5h-.984v3.3h7.248v-.8ZM99.12-8.568H96.408v-1.3h-.984v1.3H92.688v.78H99.12ZM94.308-5.16c0-.744.648-1.236,1.608-1.236s1.608.492,1.608,1.236-.648,1.224-1.608,1.224S94.308-4.416,94.308-5.16Zm2.1,1.968A2.058,2.058,0,0,0,98.46-5.16c0-1.212-1.044-1.992-2.544-1.992s-2.544.78-2.544,1.992a2.058,2.058,0,0,0,2.052,1.968v1.176c-1.044.036-2.052.036-2.916.036l.132.828a39.728,39.728,0,0,0,6.72-.432l-.06-.732a28.136,28.136,0,0,1-2.892.264ZM102.6-5.3h-1.68V-9.876h-.984V.888h.984V-4.476h1.68Zm7.248.684a3.706,3.706,0,0,1-2.616-3.288V-8.34H109.6v-.8h-5.748v.8h2.4v.432a3.91,3.91,0,0,1-2.712,3.528l.516.78a4.561,4.561,0,0,0,2.7-2.688,4.46,4.46,0,0,0,2.6,2.436Zm-4.68,2.568h6.2V.9h.984V-2.844h-7.188Zm6.2-7.824v2.808h-2.1v.8h2.1v2.832h.984V-9.876Zm11.832.012h-.984V-2h.984Zm-7.62,3.384a1.76,1.76,0,0,1,1.836-1.788,1.766,1.766,0,0,1,1.86,1.788,1.771,1.771,0,0,1-1.86,1.812A1.765,1.765,0,0,1,115.584-6.48Zm4.656,0a2.649,2.649,0,0,0-2.82-2.64,2.635,2.635,0,0,0-2.8,2.64,2.647,2.647,0,0,0,2.8,2.664A2.66,2.66,0,0,0,120.24-6.48ZM117.264-.156V-2.808h-.984V.648h7.248v-.8ZM128.4-8.712v.792h4.044c-.2,2.556-1.644,4.62-4.536,6l.528.8c3.576-1.752,5-4.488,5-7.6Zm7.212-1.164V.888h.984V-9.876Zm10.9,9.828h-4.932V-1.44h4.932Zm0-2.16h-4.932V-3.564H140.6V.744h6.888V-3.564h-.984Zm-4.944-3a1.7,1.7,0,0,1-1.836-1.68,1.688,1.688,0,0,1,1.836-1.668A1.688,1.688,0,0,1,143.4-6.888,1.7,1.7,0,0,1,141.564-5.208ZM146.5-9.864v2.556h-2.2a2.563,2.563,0,0,0-2.736-2.064,2.531,2.531,0,0,0-2.772,2.484,2.533,2.533,0,0,0,2.772,2.5A2.567,2.567,0,0,0,144.312-6.5H146.5v2.412h1V-9.864Zm10.512,3.48h-5.3v-2.2h5.3Zm.972-2.988h-7.236v3.78h7.236ZM151.7-2.424h-.984V.648h7.44v-.8H151.7Zm-2.232-1.944v.792h4.476V-1.4h.984V-3.576h4.32v-.792Zm17.376-4.2h-2.712v-1.3h-.984v1.3h-2.736v.78h6.432ZM162.036-5.16c0-.744.648-1.236,1.608-1.236s1.608.492,1.608,1.236-.648,1.224-1.608,1.224S162.036-4.416,162.036-5.16Zm2.1,1.968a2.058,2.058,0,0,0,2.052-1.968c0-1.212-1.044-1.992-2.544-1.992s-2.544.78-2.544,1.992a2.058,2.058,0,0,0,2.052,1.968v1.176c-1.044.036-2.052.036-2.916.036l.132.828a39.728,39.728,0,0,0,6.72-.432l-.06-.732a28.136,28.136,0,0,1-2.892.264ZM170.328-5.3h-1.68V-9.876h-.984V.888h.984V-4.476h1.68Z" transform="translate(555.765 396)"/>
  <g id="그룹_85" data-name="그룹 85" transform="translate(-2749.655 -3352.952)">
    <path id="패스_346" data-name="패스 346" class="cls-3" d="M3096.67,3756.232a4,4,0,1,0-4-4,4,4,0,0,0,4,4"/>
  </g>
  <path id="패스_1273" data-name="패스 1273" class="cls-3" d="M7.032-8.82H4.44V-9.912H3.456V-8.82H.852v.732h6.18ZM2.364-5.988c0-.576.612-.948,1.584-.948.948,0,1.572.372,1.572.948,0,.6-.624.96-1.572.96C2.976-5.028,2.364-5.388,2.364-5.988ZM7.356-3.864a25.261,25.261,0,0,1-2.916.288v-.768c1.236-.132,2.016-.72,2.016-1.644,0-1.02-1.008-1.644-2.508-1.644s-2.52.624-2.52,1.644c0,.924.792,1.524,2.028,1.644v.816c-1.032.036-2.028.048-2.868.048L.7-2.688a40.059,40.059,0,0,0,6.732-.468ZM3.156-2H2.172V.648H9.36v-.8h-6.2ZM8.976-6.12V-9.876H7.992v8.424h.984V-5.3H10.56V-6.12Zm10.4-.972v1.44H16.56v.8h2.82v1.416h1V-9.864h-1V-7.9H16.944a6.175,6.175,0,0,0,.12-1.164H12.2v.792H16c-.18,1.86-1.776,3.288-4.344,4.056l.4.78a6.669,6.669,0,0,0,4.644-3.66ZM16.86.072c-1.584,0-2.592-.492-2.592-1.308s1.008-1.3,2.592-1.3,2.592.492,2.592,1.3S18.444.072,16.86.072Zm0-3.384c-2.172,0-3.564.78-3.564,2.076S14.688.84,16.86.84s3.564-.78,3.564-2.076S19.032-3.312,16.86-3.312ZM32.784-.06H27.84V-1.4h4.944Zm0-2.112H27.84v-1.3h-.972v4.2h6.888v-4.2h-.972ZM29.316-5.2h-2.9V-6.9h2.9Zm3.456-4.668v2.64H30.288V-9.312h-.972v1.644h-2.9V-9.312H25.44v4.92h4.848V-6.42h2.484v2.436h1v-5.88Zm12.72,5.376H43.836a19.106,19.106,0,0,0,.324-3.9v-.8H37v.816h6.192a18.4,18.4,0,0,1-.336,3.888h-7.08v.8h2.5V.876h.984v-4.56h2.7V.876h.972v-4.56h2.568ZM50.1-5.112a5.1,5.1,0,0,0,3.912-2.376,5.055,5.055,0,0,0,3.912,2.376l.36-.792c-1.9-.252-3.636-1.32-3.636-2.628v-.012H58v-.792H50.028v.792h3.348v.012c0,1.308-1.74,2.376-3.648,2.628ZM51.348-2.4h-.984V.648H57.8v-.8H51.348ZM49.116-4.332v.792h4.476v2.184h.984V-3.54h4.308v-.792Zm20.16-1.44C67.32-6.06,65.4-7.392,65.4-8.892v-.6H64.368v.6c0,1.536-1.9,2.832-3.852,3.12l.4.792A5.515,5.515,0,0,0,64.884-7.5a5.648,5.648,0,0,0,3.984,2.52Zm.468,1.956h-9.72V-3h4.344V.9h.984V-3h4.4Zm12.468-6.06h-.984V-3.7h.984ZM78.024-5.568H74.916V-8.4h3.108Zm.96-3.612H73.956v4.4h5.028Zm3.48,6.972v-.756H79.308V-4.008h-1v1.044H75.156v.756H78.3C78.288-1.14,76.572-.12,74.736.1l.324.756a5.379,5.379,0,0,0,3.756-1.968,5.3,5.3,0,0,0,3.7,1.968L82.848.1C81-.132,79.32-1.176,79.308-2.208ZM96.5-4.488H94.848a19.106,19.106,0,0,0,.324-3.9v-.8H88.008v.816H94.2a18.4,18.4,0,0,1-.336,3.888h-7.08v.8h2.5V.876h.984v-4.56h2.7V.876h.972v-4.56H96.5Zm4.3-3.324h1.92v-.8H97.812v.8h2.04v.972A5.616,5.616,0,0,1,97.512-2l.6.732a5.572,5.572,0,0,0,2.22-3.408,5.147,5.147,0,0,0,2.16,3.144l.6-.72A5.215,5.215,0,0,1,100.8-6.84Zm2.88,1.8H101.9v.8h1.776V.324h.936v-9.96h-.936Zm2.16-3.876V.876h.948V-9.888Zm6.54,2.124h3.036v-.8h-4.008v6.8h.708a17.673,17.673,0,0,0,3.984-.324l-.084-.816a16.93,16.93,0,0,1-3.636.324Zm6.84-2.112v4.32H117.7v-4.08h-.924V.348h.924v-5.1h1.524V.888h.948V-9.876ZM121.9-4.644v.792h9.72v-.792Zm4.86,1.692c-2.292,0-3.684.684-3.684,1.92s1.392,1.92,3.684,1.92,3.684-.7,3.684-1.92S129.06-2.952,126.756-2.952Zm0,.756c1.692,0,2.688.432,2.688,1.164s-1,1.152-2.688,1.152-2.688-.42-2.688-1.152S125.064-2.2,126.756-2.2Zm0-7.4c-2.316,0-3.78.756-3.78,2.052s1.464,2.04,3.78,2.04,3.78-.756,3.78-2.04S129.084-9.6,126.756-9.6Zm0,.768c1.7,0,2.772.48,2.772,1.284s-1.068,1.272-2.772,1.272-2.772-.48-2.772-1.272S125.052-8.832,126.756-8.832Z" transform="translate(356.015 404.56)"/>
  <g id="그룹_86" data-name="그룹 86" transform="translate(-2749.655 -3352.952)">
    <path id="패스_347" data-name="패스 347" class="cls-3" d="M3019.67,3700.232a4,4,0,1,0-4-4,4,4,0,0,0,4,4"/>
  </g>
  <path id="패스_1272" data-name="패스 1272" class="cls-3" d="M3.792-7.812h1.92v-.8H.8v.8h2.04v.972A5.616,5.616,0,0,1,.5-2l.6.732A5.572,5.572,0,0,0,3.324-4.68a5.147,5.147,0,0,0,2.16,3.144l.6-.72A5.215,5.215,0,0,1,3.792-6.84Zm2.88,1.8H4.9v.8H6.672V.324h.936v-9.96H6.672Zm2.16-3.876V.876H9.78V-9.888ZM17.7-6.48H15.024V-8.736H17.7Zm-3.66,0H12.456v.792h7.812V-6.48H18.684V-8.736h1.632v-.792h-7.9v.792h1.62ZM19.092-.048H13.668V-1.836h5.424ZM21.24-3.876v-.792H11.508v.792h4.38v1.26h-3.18V.744h7.344v-3.36h-3.18v-1.26Zm12.48-6h-.984V-3.7h.984ZM29.532-5.568H26.424V-8.4h3.108Zm.96-3.612H25.464v4.4h5.028Zm3.48,6.972v-.756H30.816V-4.008h-1v1.044H26.664v.756h3.144C29.8-1.14,28.08-.12,26.244.1l.324.756a5.379,5.379,0,0,0,3.756-1.968A5.3,5.3,0,0,0,34.02.852L34.356.1c-1.848-.228-3.528-1.272-3.54-2.3ZM42.06-8.952h-.984V-7.02a5.686,5.686,0,0,1-2.784,4.848l.6.78a5.972,5.972,0,0,0,2.676-3.6,5.766,5.766,0,0,0,2.7,3.408l.576-.78A5.366,5.366,0,0,1,42.06-7.02Zm4.116-.924v3.648h-2.5v.8h2.5V.9h.984V-9.876Zm10.812,0V.9h.984V-9.876Zm-7.212.912V-1.7H54.84v-7.26h-.972V-6.12h-3.12V-8.964Zm.972,3.624h3.12v2.832h-3.12Zm18.564.876c-1.884-.36-3.924-1.992-3.924-3.828V-9.12H64.356v.828c0,1.836-2.028,3.456-3.912,3.828l.444.816a5.911,5.911,0,0,0,3.984-3.108,5.84,5.84,0,0,0,4,3.108Zm-9.276,3.1v.816h9.756v-.816ZM78.444-7.992H72.156v2.3h7.452V-6.4h-6.48V-7.32h6.288V-9.564H72.132v.7h6.312ZM73.068-.96h6.384V-3.252h-7.38v.708H78.48v.9H72.1V.744h7.692V.036h-6.72Zm-2.16-3.912v.744h9.756v-.744Zm18.24,5c-1.728,0-2.7-.336-2.7-.984s.972-.984,2.7-.984,2.7.348,2.7.984S90.888.132,89.148.132Zm0-2.7c-2.34,0-3.684.6-3.684,1.716S86.808.876,89.148.876s3.684-.6,3.684-1.728S91.488-2.568,89.148-2.568Zm.492-1.608V-5.232h3.24V-6H86.544V-7.056h5.988V-7.8H86.544v-1H92.82v-.768H85.56v4.332h3.1v1.056h-4.38v.792H94.02v-.792Zm11.9-4.38H98.856V-9.864h-.984v1.308H95.2v.792h6.348ZM96.732-5.172c0-.744.648-1.224,1.632-1.224s1.644.48,1.644,1.224-.672,1.236-1.644,1.236S96.732-4.416,96.732-5.172Zm4.212,0c0-1.2-1.056-1.992-2.58-1.992S95.8-6.372,95.8-5.172s1.044,2,2.568,2S100.944-3.96,100.944-5.172ZM97.8-2.436h-.984V.648h7.176v-.8H97.8Zm5.712-3.888v-3.54h-.984V-1.8h.984V-5.5h1.6v-.828Zm8.64-2.616h-.972v1.932A5.7,5.7,0,0,1,108.408-2.2L109-1.4a5.961,5.961,0,0,0,2.676-3.564,5.937,5.937,0,0,0,2.6,3.348l.612-.78a5.435,5.435,0,0,1-2.736-4.608ZM118.6-5.508H116.82V-9.864h-.984V.888h.984v-5.58H118.6Zm7.644-3.048h-2.772V-9.864h-.984v1.308H119.7v.792h6.54Zm-4.92,3.4c0-.756.672-1.236,1.656-1.236s1.644.48,1.644,1.236-.672,1.224-1.644,1.224S121.32-4.416,121.32-5.16Zm2.148,1.968c1.272-.156,2.088-.9,2.088-1.968,0-1.212-1.044-1.992-2.58-1.992s-2.592.78-2.592,1.992c0,1.08.828,1.824,2.1,1.98v1.152c-1.068.036-2.1.048-3.012.048l.144.828a44.017,44.017,0,0,0,6.972-.432l-.072-.732c-.984.132-2.028.2-3.048.252ZM127.2-9.864V.888h.984V-9.864Zm9.432,5.244a3.706,3.706,0,0,1-2.616-3.288V-8.34h2.364v-.8h-5.748v.8h2.4v.432A3.91,3.91,0,0,1,130.32-4.38l.516.78a4.561,4.561,0,0,0,2.7-2.688,4.46,4.46,0,0,0,2.6,2.436Zm-4.68,2.568h6.2V.9h.984V-2.844h-7.188Zm6.2-7.824v2.808h-2.1v.8h2.1v2.832h.984V-9.876ZM144.3-8.712v.792h4.044c-.2,2.556-1.644,4.62-4.536,6l.528.8c3.576-1.752,5-4.488,5-7.6Zm7.212-1.164V.888h.984V-9.876Zm8.46,5.808a6.414,6.414,0,0,0,.12-1.224,6.115,6.115,0,0,0-.156-1.368h2.484v2.592Zm-2.556,1.656c-1.032,0-1.752-1.128-1.752-2.88s.72-2.868,1.752-2.868,1.752,1.128,1.752,2.868S158.436-2.412,157.416-2.412Zm5-7.464v2.412h-2.76a2.426,2.426,0,0,0-2.244-1.584c-1.572,0-2.688,1.464-2.688,3.756s1.116,3.756,2.688,3.756a2.5,2.5,0,0,0,2.316-1.728h2.688V.912h.984V-9.876Z" transform="translate(282.015 348.56)"/>
  <g id="그룹_87" data-name="그룹 87" transform="translate(-2749.655 -3352.952)">
    <path id="패스_348" data-name="패스 348" class="cls-4" d="M3416.295,3700.232a4,4,0,1,0-4-4,4,4,0,0,0,4,4"/>
  </g>
  <path id="패스_1289" data-name="패스 1289" class="cls-4" d="M4.26-7.956H6.648v-.816H.828v.816h2.46v1.368A5.627,5.627,0,0,1,.456-1.956l.576.78A6.076,6.076,0,0,0,3.78-4.74a5.808,5.808,0,0,0,2.7,3.3l.564-.792A5.176,5.176,0,0,1,4.26-6.588Zm6.432,2.424H8.916V-9.864H7.932V.888h.984V-4.7h1.776Zm6.456,2.016v.732h2.184v1.1h.984v-8.2h-.984v6.36Zm-2.2-5.2c1.02,0,1.716.456,1.716,1.14s-.7,1.152-1.716,1.152-1.716-.456-1.716-1.152S13.932-8.712,14.952-8.712Zm0,3.024c1.572,0,2.652-.732,2.652-1.884,0-1.128-1.08-1.872-2.652-1.872S12.3-8.7,12.3-7.572C12.3-6.42,13.38-5.688,14.952-5.688Zm-.384,3.624h.984V-4.188c.972-.06,1.968-.168,2.916-.312l-.084-.708a58.47,58.47,0,0,1-6.936.312l.132.816c.888,0,1.92-.012,2.988-.06Zm-.6,1.908V-2.484h-.984V.648h7.608v-.8ZM31.524-6.1c-1.872-.288-3.768-1.572-3.768-2.976V-9.6H26.748v.528c0,1.44-1.884,2.712-3.792,3l.384.768a5.453,5.453,0,0,0,3.912-2.448,5.577,5.577,0,0,0,3.9,2.424ZM24.588-2.448H23.6v3.1h7.452v-.8H24.588ZM22.356-4.392V-3.6H26.82v2.172h1V-3.6h4.308v-.792ZM39.648-8.82H37.056V-9.912h-.984V-8.82h-2.6v.732h6.18ZM34.98-5.988c0-.576.612-.948,1.584-.948.948,0,1.572.372,1.572.948,0,.6-.624.96-1.572.96C35.592-5.028,34.98-5.388,34.98-5.988Zm4.992,2.124a25.261,25.261,0,0,1-2.916.288v-.768c1.236-.132,2.016-.72,2.016-1.644,0-1.02-1.008-1.644-2.508-1.644s-2.52.624-2.52,1.644c0,.924.792,1.524,2.028,1.644v.816c-1.032.036-2.028.048-2.868.048l.108.792a40.059,40.059,0,0,0,6.732-.468ZM35.772-2h-.984V.648h7.188v-.8h-6.2Zm5.82-4.116V-9.876h-.984v8.424h.984V-5.3h1.584V-6.12Zm13.86-3.756h-.984V-3.7h.984ZM51.264-5.568H48.156V-8.4h3.108Zm.96-3.612H47.2v4.4h5.028ZM55.7-2.208v-.756H52.548V-4.008h-1v1.044H48.4v.756H51.54C51.528-1.14,49.812-.12,47.976.1L48.3.852a5.379,5.379,0,0,0,3.756-1.968,5.3,5.3,0,0,0,3.7,1.968L56.088.1c-1.848-.228-3.528-1.272-3.54-2.3ZM63.192-7.8h1.956v-.8H60.156v.8h2.088v.84c0,2.184-.8,4.02-2.34,4.884l.6.744a5.025,5.025,0,0,0,2.232-3.276A4.816,4.816,0,0,0,64.92-1.7L65.5-2.46a4.846,4.846,0,0,1-2.3-4.5Zm5.052-2.088v4.356H66.828v-4.1H65.9v10h.924V-4.716h1.416v5.6h.948V-9.888Zm9.036.828H74.688v-.924H73.7v.924H71.1v.708h6.18ZM72.612-6.6c0-.48.612-.768,1.584-.768s1.572.288,1.572.768-.612.78-1.572.78S72.612-6.12,72.612-6.6ZM77.6-4.824c-.924.132-1.932.2-2.916.252V-5.2C75.924-5.3,76.7-5.808,76.7-6.6c0-.888-1-1.416-2.508-1.416-1.536,0-2.52.528-2.52,1.416,0,.8.78,1.308,2.028,1.4v.66c-1.032.036-2.028.036-2.868.036l.108.732a39.564,39.564,0,0,0,6.72-.42ZM73.248-.852h5.976v-2.2H72.252v.7h6v.84H72.288V.768h7.344V.06H73.248Zm5.976-6.276V-9.876H78.24v6.36h.984V-6.3h1.584v-.828ZM86.616.12c-1.692,0-2.688-.42-2.688-1.152s1-1.152,2.688-1.152,2.688.42,2.688,1.152S88.3.12,86.616.12Zm0-3.072c-2.3,0-3.684.684-3.684,1.92S84.312.876,86.616.876,90.3.2,90.3-1.032,88.932-2.952,86.616-2.952ZM85.128-5.808a9.342,9.342,0,0,0,1.488.12,9.381,9.381,0,0,0,1.5-.12v1.26H85.128ZM83.844-7.68c0-.78,1.056-1.236,2.772-1.236s2.772.456,2.772,1.236-1.056,1.236-2.772,1.236S83.844-6.912,83.844-7.68Zm5.244,3.132V-6.072A1.776,1.776,0,0,0,90.4-7.68c0-1.26-1.44-2-3.78-2s-3.78.744-3.78,2a1.771,1.771,0,0,0,1.32,1.62v1.512H81.744v.792h9.744v-.792Z" transform="translate(675.64 348.56)"/>
  <g id="그룹_88" data-name="그룹 88" transform="translate(-2749.655 -3352.952)">
    <path id="패스_349" data-name="패스 349" class="cls-3" d="M3351.186,3723.982a4,4,0,1,0-4-4,4,4,0,0,0,4,4"/>
  </g>
  <path id="패스_1280" data-name="패스 1280" class="cls-3" d="M5.484-8.652c1.644,0,2.76.6,2.76,1.548s-1.116,1.56-2.76,1.56S2.736-6.156,2.736-7.1,3.852-8.652,5.484-8.652Zm0,3.9c2.244,0,3.768-.912,3.768-2.352s-1.524-2.34-3.768-2.34-3.756.9-3.756,2.34S3.252-4.752,5.484-4.752Zm4.9,1.008H.636v.8H3.144V.888h1V-2.94h2.7V.888h1V-2.94H10.38Zm3.792,1.32a1.485,1.485,0,0,1-1.428-1.644,1.477,1.477,0,0,1,1.428-1.62A1.484,1.484,0,0,1,15.6-4.068,1.492,1.492,0,0,1,14.172-2.424Zm0-4.092a2.291,2.291,0,0,0-2.3,2.448,2.288,2.288,0,0,0,2.3,2.46,2.288,2.288,0,0,0,2.3-2.46A2.291,2.291,0,0,0,14.172-6.516Zm.48-3.048H13.68V-8.04H11.5v.8h5.34v-.8H14.652Zm5.028-.324V-5.34H18.3v-4.3h-.924v10H18.3v-4.9h1.38V.876h.948V-9.888Zm9.192,1.32H26.16v-1.3h-.984v1.3H22.44v.78h6.432ZM24.06-5.16c0-.744.648-1.236,1.608-1.236s1.608.492,1.608,1.236-.648,1.224-1.608,1.224S24.06-4.416,24.06-5.16Zm2.1,1.968A2.058,2.058,0,0,0,28.212-5.16c0-1.212-1.044-1.992-2.544-1.992s-2.544.78-2.544,1.992a2.058,2.058,0,0,0,2.052,1.968v1.176c-1.044.036-2.052.036-2.916.036l.132.828a39.728,39.728,0,0,0,6.72-.432l-.06-.732a28.137,28.137,0,0,1-2.892.264ZM32.352-5.3h-1.68V-9.876h-.984V.888h.984V-4.476h1.68Zm7.284-3.432H36.948v-1.2h-.984v1.2H33.288v.792h6.348Zm-4.812,3.3c0-.72.648-1.188,1.632-1.188S38.1-6.156,38.1-5.448,37.44-4.26,36.456-4.26,34.824-4.716,34.824-5.436Zm4.212,0c0-1.188-1.044-1.956-2.58-1.956s-2.568.768-2.568,1.944S34.932-3.5,36.456-3.5,39.036-4.26,39.036-5.436ZM34.62-1.752h6V.9H41.6V-2.556H34.62ZM43.2-6.9H41.6V-9.864H40.62v6.72H41.6v-2.94h1.6Zm8.424-.12h-5.28V-8.736h5.28Zm.972-2.5H45.384V-6.24H52.6Zm1.26,4.968V-5.34H44.112v.792h4.38v1.056h-3.2v.744h6.348v.96H45.324V.768h7.608V0H46.284V-1.068h6.324V-3.492H49.476V-4.548Zm9.96-5.316h-.984v5.58h.984Zm-2.232,4.6a3.448,3.448,0,0,1-2.712-3.084v-.12h2.436v-.792H55.4v.792h2.46v.12a3.634,3.634,0,0,1-2.724,3.3l.468.78A4.44,4.44,0,0,0,58.38-6.84,4.345,4.345,0,0,0,61.128-4.5ZM57.852-.012V-1.188h5.976v-2.58H56.856V-3h6v1.08H56.88V.768h7.308v-.78ZM74.028-5.28A15.567,15.567,0,0,0,74.3-8.472v-.564H68.952v.8h4.392a13.682,13.682,0,0,1-.288,2.844Zm1.02.648c-1.092.156-2.316.24-3.492.288V-6.636h-.972v2.328c-.816.012-1.6.024-2.28.024l.1.8a43.132,43.132,0,0,0,6.72-.432ZM70.932-2.508h-.984V.648H77.1v-.8H70.932Zm5.82-3.864v-3.5h-.984v8.112h.984V-5.556H78.3v-.816Zm4.1,1.344h3.972V-8.88H79.836v.8h4v2.244h-3.96V-1.7h.888a31.235,31.235,0,0,0,5.424-.4l-.1-.8a31.63,31.63,0,0,1-5.232.384Zm6.24-4.86V.9h.984V-9.888Z" transform="translate(610.53 372.31)"/>
  <g id="그룹_89" data-name="그룹 89" transform="translate(-2749.655 -3352.952)">
    <path id="패스_350" data-name="패스 350" class="cls-3" d="M3187.92,3714.792a4,4,0,1,0-4-4,4,4,0,0,0,4,4"/>
  </g>
  <path id="패스_1282" data-name="패스 1282" class="cls-3" d="M8.52-.06H3.576V-1.4H8.52Zm0-2.112H3.576v-1.3H2.6v4.2H9.492v-4.2H8.52ZM5.052-5.2h-2.9V-6.9h2.9ZM8.508-9.864v2.64H6.024V-9.312H5.052v1.644h-2.9V-9.312H1.176v4.92H6.024V-6.42H8.508v2.436h1v-5.88ZM11,2.148h.8L15.4-9.516H14.6ZM25.776-4.488H24.12a19.106,19.106,0,0,0,.324-3.9v-.8H17.28v.816h6.192a18.4,18.4,0,0,1-.336,3.888h-7.08v.8h2.5V.876h.984v-4.56h2.7V.876h.972v-4.56h2.568Zm4.3-3.324h1.92v-.8H27.084v.8h2.04v.972A5.616,5.616,0,0,1,26.784-2l.6.732A5.572,5.572,0,0,0,29.6-4.68a5.147,5.147,0,0,0,2.16,3.144l.6-.72A5.215,5.215,0,0,1,30.072-6.84Zm2.88,1.8H31.176v.8h1.776V.324h.936v-9.96h-.936Zm2.16-3.876V.876h.948V-9.888Zm13.512.024H47.64V-2h.984ZM41-6.48A1.76,1.76,0,0,1,42.84-8.268,1.766,1.766,0,0,1,44.7-6.48a1.771,1.771,0,0,1-1.86,1.812A1.765,1.765,0,0,1,41-6.48Zm4.656,0a2.649,2.649,0,0,0-2.82-2.64,2.635,2.635,0,0,0-2.8,2.64,2.647,2.647,0,0,0,2.8,2.664A2.66,2.66,0,0,0,45.66-6.48ZM42.684-.156V-2.808H41.7V.648h7.248v-.8Zm11.808-7.8h2.532v-.816H51.012v.816h2.5v1.368a5.505,5.505,0,0,1-2.856,4.62l.576.792A6.036,6.036,0,0,0,54-4.728,5.686,5.686,0,0,0,56.82-1.44l.552-.792a5.012,5.012,0,0,1-2.88-4.356Zm3.984-1.908V.888h.984V-9.864ZM72.36-9.876h-.984V-3.7h.984ZM68.172-5.568H65.064V-8.4h3.108Zm.96-3.612H64.1v4.4h5.028Zm3.48,6.972v-.756H69.456V-4.008h-1v1.044H65.3v.756h3.144C68.436-1.14,66.72-.12,64.884.1l.324.756a5.379,5.379,0,0,0,3.756-1.968A5.3,5.3,0,0,0,72.66.852L73,.1c-1.848-.228-3.528-1.272-3.54-2.3Zm4.776-2.9A5.1,5.1,0,0,0,81.3-7.488a5.055,5.055,0,0,0,3.912,2.376l.36-.792c-1.9-.252-3.636-1.32-3.636-2.628v-.012h3.348v-.792H77.316v.792h3.348v.012c0,1.308-1.74,2.376-3.648,2.628ZM78.636-2.4h-.984V.648h7.44v-.8H78.636ZM76.4-4.332v.792H80.88v2.184h.984V-3.54h4.308v-.792Zm20.148-1.44c-1.956-.288-3.876-1.62-3.876-3.12v-.6H91.644v.6c0,1.536-1.9,2.832-3.852,3.12l.4.792A5.515,5.515,0,0,0,92.16-7.5a5.648,5.648,0,0,0,3.984,2.52Zm.468,1.956H87.3V-3h4.344V.9h.984V-3h4.4Z" transform="translate(447.265 363.12)"/>
  <g id="그룹_90" data-name="그룹 90" transform="translate(-2749.655 -3352.952)">
    <path id="패스_351" data-name="패스 351" class="cls-3" d="M3206.92,3732.232a4,4,0,1,0-4-4,4,4,0,0,0,4,4"/>
  </g>
  <path id="패스_1281" data-name="패스 1281" class="cls-10" d="M5.5-8.808c1.644,0,2.736.516,2.736,1.356S7.14-6.1,5.5-6.1,2.76-6.612,2.76-7.452,3.864-8.808,5.5-8.808Zm0,3.5c2.28,0,3.768-.816,3.768-2.148S7.776-9.6,5.5-9.6s-3.768.816-3.768,2.148S3.228-5.3,5.5-5.3ZM2.808-2.364H1.824V.648H9.372v-.8H2.808ZM.636-4.488v.8h3.4v2.232h.984V-3.684h1.9v2.232H7.9V-3.684h2.472v-.8Zm12.48-.54h3.972V-8.88H12.1v.8h4v2.244h-3.96V-1.7h.888a31.235,31.235,0,0,0,5.424-.4l-.1-.8a31.63,31.63,0,0,1-5.232.384Zm6.24-4.86V.9h.984V-9.888Zm10.9,2.8v1.44h-2.82v.8h2.82v1.416h1V-9.864h-1V-7.9H27.816a6.174,6.174,0,0,0,.12-1.164h-4.86v.792h3.792c-.18,1.86-1.776,3.288-4.344,4.056l.4.78a6.669,6.669,0,0,0,4.644-3.66ZM27.732.072c-1.584,0-2.592-.492-2.592-1.308s1.008-1.3,2.592-1.3,2.592.492,2.592,1.3S29.316.072,27.732.072Zm0-3.384c-2.172,0-3.564.78-3.564,2.076S25.56.84,27.732.84,31.3.06,31.3-1.236,29.9-3.312,27.732-3.312Zm6.624-3.372A1.731,1.731,0,0,1,36.192-8.4a1.714,1.714,0,0,1,1.824,1.716,1.716,1.716,0,0,1-1.824,1.728A1.733,1.733,0,0,1,34.356-6.684Zm6.768-.84v1.68H38.808a2.422,2.422,0,0,0,.144-.84,2.624,2.624,0,0,0-.132-.84Zm0,2.484V-3.5h1V-9.876h-1v1.548h-2.76a2.865,2.865,0,0,0-2.172-.9A2.568,2.568,0,0,0,33.42-6.684a2.58,2.58,0,0,0,2.772,2.568,2.8,2.8,0,0,0,2.172-.924ZM38.556.1c-1.62,0-2.6-.48-2.6-1.284s.984-1.3,2.6-1.3c1.644,0,2.628.48,2.628,1.3S40.2.1,38.556.1Zm0-3.348c-2.208,0-3.576.756-3.576,2.064S36.348.876,38.556.876s3.6-.756,3.6-2.064S40.776-3.252,38.556-3.252Zm16.9-6.624h-.984V-3.7h.984ZM51.264-5.568H48.156V-8.4h3.108Zm.96-3.612H47.2v4.4h5.028ZM55.7-2.208v-.756H52.548V-4.008h-1v1.044H48.4v.756H51.54C51.528-1.14,49.812-.12,47.976.1L48.3.852a5.379,5.379,0,0,0,3.756-1.968,5.3,5.3,0,0,0,3.7,1.968L56.088.1c-1.848-.228-3.528-1.272-3.54-2.3Zm5.82-6.36H60.54v6.66h.684a19.915,19.915,0,0,0,3.852-.336l-.1-.852a18.712,18.712,0,0,1-3.456.336ZM68.2-9.876V-5.5H66.672v-4.14h-.924V.336h.924V-4.68H68.2V.876h.948V-9.876ZM78.42-5.592H73.08V-7.176h5.34ZM79.4-9.444H78.42v1.476H73.08V-9.444h-.972v4.656h7.3ZM80.64-3.492H70.872V-2.7H75.24V.9h.984V-2.7H80.64ZM86.616.132c-1.728,0-2.7-.336-2.7-.984s.972-.984,2.7-.984,2.7.348,2.7.984S88.356.132,86.616.132Zm0-2.7c-2.34,0-3.684.6-3.684,1.716S84.276.876,86.616.876,90.3.276,90.3-.852,88.956-2.568,86.616-2.568Zm.492-1.608V-5.232h3.24V-6H84.012V-7.056H90V-7.8H84.012v-1h6.276v-.768h-7.26v4.332h3.1v1.056h-4.38v.792h9.744v-.792Zm8.676-3.636H97.7v-.8H92.8v.8h2.04v.972A5.616,5.616,0,0,1,92.5-2l.6.732a5.572,5.572,0,0,0,2.22-3.408,5.147,5.147,0,0,0,2.16,3.144l.6-.72A5.215,5.215,0,0,1,95.784-6.84Zm2.88,1.8H96.888v.8h1.776V.324H99.6v-9.96h-.936Zm2.16-3.876V.876h.948V-9.888Z" transform="translate(466.265 380.56)"/>
  <g id="그룹_91" data-name="그룹 91" transform="translate(-2749.655 -3352.952)">
    <path id="패스_352" data-name="패스 352" class="cls-3" d="M3126.92,3676.232a4,4,0,1,0-4-4,4,4,0,0,0,4,4"/>
  </g>
  <path id="패스_1271" data-name="패스 1271" class="cls-3" d="M2.892-7.92H4.656v5.232c-.588.024-1.188.048-1.764.06Zm2.724,0H6.768v-.792H.78v.792H1.932v5.3C1.428-2.6.948-2.6.5-2.6l.12.828a44.493,44.493,0,0,0,6.708-.4L7.26-2.9c-.528.072-1.08.12-1.644.156Zm5.076,2.352H8.916v-4.3H7.932V.888h.984v-5.64h1.776Zm9.456,1.5h-6.4v-1.7H19.8v-.78H13.752v-1.6H20.04V-8.94H12.756v5.664h7.392ZM11.5-1.308v.8h9.768v-.8ZM23.952-8.676h-.984v6.984h.84a25.252,25.252,0,0,0,4.92-.432l-.132-.84a23.331,23.331,0,0,1-4.644.444Zm6.312-1.2v3.552h-3.3v.816h3.3V.912h.984V-9.876ZM41.484-6.9v.8h2.16V-1.98h1V-9.864h-1V-6.9Zm.636,2.532a3.7,3.7,0,0,1-2.616-3.3V-8.2h2.364V-9H36.12v.8h2.4v.54a3.923,3.923,0,0,1-2.712,3.528l.516.768a4.594,4.594,0,0,0,2.712-2.676A4.441,4.441,0,0,0,41.628-3.6ZM38.748-.156v-2.52h-1V.648H44.94v-.8Zm15.4-6.228h-5.3v-2.2h5.3Zm.972-2.988H47.88v3.78h7.236ZM48.84-2.424h-.984V.648H55.3v-.8H48.84ZM46.608-4.368v.792h4.476V-1.4h.984V-3.576h4.32v-.792ZM65.376-3.5h1v-6.36h-1v2.28h-2.34v.8h2.34Zm-1.56-1.272A3.691,3.691,0,0,1,61.2-8.2V-9.264h-.984v1.1a3.922,3.922,0,0,1-2.724,3.672l.516.8A4.552,4.552,0,0,0,60.732-6.42a4.406,4.406,0,0,0,2.556,2.412ZM62.82.1c-1.62,0-2.6-.468-2.6-1.248s.984-1.26,2.6-1.26,2.6.468,2.6,1.26S64.44.1,62.82.1Zm0-3.276c-2.208,0-3.588.732-3.588,2.028S60.612.876,62.82.876,66.4.132,66.4-1.152,65.028-3.18,62.82-3.18Zm8.544-5.892v.792h3.9c-.18,1.86-1.8,3.324-4.356,4.08l.4.792c3.12-.924,5.028-2.928,5.028-5.664ZM75.864.1C74.316.1,73.332-.4,73.332-1.212s.984-1.32,2.532-1.32S78.4-2.04,78.4-1.212,77.412.1,75.864.1Zm0-3.4c-2.124,0-3.5.78-3.5,2.088S73.74.876,75.864.876s3.5-.792,3.5-2.088S77.988-3.3,75.864-3.3Zm3.372-3.792V-9.876h-.984v6.432h.984V-6.276h1.6v-.816Zm9.012-1.476H85.536v-1.3h-.984v1.3H81.816v.78h6.432ZM83.436-5.16c0-.744.648-1.236,1.608-1.236s1.608.492,1.608,1.236S86-3.936,85.044-3.936,83.436-4.416,83.436-5.16Zm2.1,1.968A2.058,2.058,0,0,0,87.588-5.16c0-1.212-1.044-1.992-2.544-1.992S82.5-6.372,82.5-5.16a2.058,2.058,0,0,0,2.052,1.968v1.176c-1.044.036-2.052.036-2.916.036l.132.828a39.728,39.728,0,0,0,6.72-.432l-.06-.732a28.136,28.136,0,0,1-2.892.264ZM91.728-5.3h-1.68V-9.876h-.984V.888h.984V-4.476h1.68Z" transform="translate(386.265 324.56)"/>
  <g id="그룹_92" data-name="그룹 92" transform="translate(-2749.655 -3352.952)">
    <path id="패스_353" data-name="패스 353" class="cls-4" d="M3293.108,3669.952a4,4,0,1,0-4-4,4,4,0,0,0,4,4"/>
  </g>
  <path id="패스_1284" data-name="패스 1284" class="cls-4" d="M.636-1.356V-.54h9.756v-.816ZM1.788-9.1v5.6H9.216V-9.1h-.96v1.968H2.76V-9.1Zm.972,2.76h5.5V-4.3H2.76ZM18.2-5.844h1.44V-1.86h.948v-8h-.948v3.216H18.2V-9.672h-.936v7.5H18.2ZM16.656-4.572a17.576,17.576,0,0,1-3.708.312V-5.88H16.02V-8.94H11.976v.792h3.1v1.524H12v3.168h.708a19.8,19.8,0,0,0,4.044-.324Zm-2.1,4.416V-2.58h-.984V.648H20.9v-.8Zm16.452-4.56h-6.42v-3.36H30.9v-.816H23.616v4.98h7.392ZM22.368-1.38v.816h9.768V-1.38Zm22.224-8.5h-.984v7.9h.984ZM42.24-4.512a3.993,3.993,0,0,1-2.688-3.672V-9.276h-.984v1.092a4.194,4.194,0,0,1-2.7,3.864l.516.8A4.829,4.829,0,0,0,39.072-6.4a4.64,4.64,0,0,0,2.652,2.664ZM38.652-.156V-2.712h-.984V.648h7.248v-.8ZM50.7-3.888h2.46v-.78h-4.7V-6.036h4.4V-8.88h-5.4v.78h4.428v1.32H47.5v2.892h2.22v1.824c-1.056.036-2.088.036-3.012.036l.12.828A47.66,47.66,0,0,0,53.8-1.608l-.072-.72c-.972.12-1.992.18-3.024.228Zm3.72-6V.912H55.4v-10.8Zm8.436,8.6v-2.76h3.276v-.792h-6.42V-8.208h6.312v-.8h-7.3v4.968H61.86v2.76H57.48v.816h9.78v-.816Zm8.5-7.788v.792h3.9c-.18,1.86-1.8,3.324-4.356,4.08l.4.792c3.12-.924,5.028-2.928,5.028-5.664ZM75.852.1C74.3.1,73.32-.4,73.32-1.212s.984-1.32,2.532-1.32,2.532.492,2.532,1.32S77.4.1,75.852.1Zm0-3.4c-2.124,0-3.5.78-3.5,2.088s1.38,2.088,3.5,2.088,3.5-.792,3.5-2.088S77.976-3.3,75.852-3.3Zm3.372-3.792V-9.876H78.24v6.432h.984V-6.276h1.6v-.816Zm9.012-1.476H85.524v-1.3H84.54v1.3H81.8v.78h6.432ZM83.424-5.16c0-.744.648-1.236,1.608-1.236S86.64-5.9,86.64-5.16s-.648,1.224-1.608,1.224S83.424-4.416,83.424-5.16Zm2.1,1.968A2.058,2.058,0,0,0,87.576-5.16c0-1.212-1.044-1.992-2.544-1.992s-2.544.78-2.544,1.992A2.058,2.058,0,0,0,84.54-3.192v1.176c-1.044.036-2.052.036-2.916.036l.132.828a39.728,39.728,0,0,0,6.72-.432l-.06-.732a28.136,28.136,0,0,1-2.892.264ZM91.716-5.3h-1.68V-9.876h-.984V.888h.984V-4.476h1.68Z" transform="translate(552.452 318.28)"/>
  <g id="그룹_93" data-name="그룹 93" transform="translate(-2749.655 -3352.952)">
    <path id="패스_354" data-name="패스 354" class="cls-3" d="M3203.67,3691.952a4,4,0,1,0-4-4,4,4,0,0,0,4,4"/>
  </g>
  <path id="패스_1283" data-name="패스 1283" class="cls-3" d="M6.684-8.8H4.212V-9.984H3.228V-8.8H.66V-8H6.684ZM2.2-5.532c0-.72.612-1.188,1.512-1.188S5.22-6.252,5.22-5.532,4.608-4.344,3.708-4.344,2.2-4.812,2.2-5.532Zm3.948,0c0-1.164-1.008-1.932-2.436-1.932S1.272-6.7,1.272-5.532,2.268-3.6,3.708-3.6,6.144-4.368,6.144-5.532Zm2.388,5.5H3.5v-1.14H8.532Zm0-1.9H3.5v-1.1H2.532V.744H9.5v-3.78H8.532ZM8.508-9.864v2.508H6.7v.792H8.508v1.3H6.684v.8H8.508v.948h1V-9.864ZM17.2-4.8a24.312,24.312,0,0,1-4.272.252V-6.18h3.648V-9.228H11.928v.8h3.684v1.488H11.964v3.192h.768a24.848,24.848,0,0,0,4.56-.264ZM13.164-1.872H19.38V.9h.984V-2.676h-7.2ZM19.38-9.864V-8.28h-2.1v.8h2.1v1.44h-2.1v.792h2.1v1.992h.984V-9.864Zm6.612.924H25.02v1.932A5.7,5.7,0,0,1,22.248-2.2l.588.792a5.961,5.961,0,0,0,2.676-3.564,5.937,5.937,0,0,0,2.6,3.348l.612-.78a5.435,5.435,0,0,1-2.736-4.608Zm6.444,3.432H30.66V-9.864h-.984V.888h.984v-5.58h1.776ZM39.6-7.956h2.532v-.816H36.12v.816h2.5v1.368a5.505,5.505,0,0,1-2.856,4.62l.576.792a6.036,6.036,0,0,0,2.772-3.552,5.686,5.686,0,0,0,2.82,3.288l.552-.792A5.012,5.012,0,0,1,39.6-6.588Zm3.984-1.908V.888h.984V-9.864ZM55.776-6.336C53.856-6.6,52-7.8,52-9.228v-.48H50.988v.48c0,1.428-1.86,2.628-3.768,2.892l.372.792a5.467,5.467,0,0,0,3.9-2.364A5.517,5.517,0,0,0,55.4-5.544ZM47.712-1.824H54.18V.9h.984V-2.628H47.712Zm4.272-2.652V-6.108H51v1.632H46.632v.8H56.4v-.8Zm6.084-4.248v.816h3.948c-.228,2.544-1.7,4.608-4.452,5.988l.54.768a8.092,8.092,0,0,0,4.884-7.572ZM67.5-5.508H65.772V-9.876h-.984V.888h.984v-5.58H67.5Zm9.492-1.368H70.668V-9.648h-.984v3.564h7.308ZM73.224.084c-1.692,0-2.688-.444-2.688-1.188,0-.768,1-1.2,2.688-1.2s2.688.432,2.688,1.2C75.912-.36,74.9.084,73.224.084Zm0-3.156c-2.292,0-3.684.708-3.684,1.968S70.932.852,73.224.852,76.908.144,76.908-1.1,75.516-3.072,73.224-3.072ZM68.376-4.836v.8h9.732v-.8ZM87.1-7.092v1.44h-2.82v.8H87.1v1.416h1V-9.864h-1V-7.9H84.66a6.175,6.175,0,0,0,.12-1.164H79.92v.792h3.792c-.18,1.86-1.776,3.288-4.344,4.056l.4.78a6.669,6.669,0,0,0,4.644-3.66ZM84.576.072c-1.584,0-2.592-.492-2.592-1.308s1.008-1.3,2.592-1.3,2.592.492,2.592,1.3S86.16.072,84.576.072Zm0-3.384c-2.172,0-3.564.78-3.564,2.076S82.4.84,84.576.84,88.14.06,88.14-1.236,86.748-3.312,84.576-3.312ZM91.2-6.684A1.731,1.731,0,0,1,93.036-8.4,1.714,1.714,0,0,1,94.86-6.684a1.716,1.716,0,0,1-1.824,1.728A1.733,1.733,0,0,1,91.2-6.684Zm6.768-.84v1.68H95.652a2.422,2.422,0,0,0,.144-.84,2.624,2.624,0,0,0-.132-.84Zm0,2.484V-3.5h1V-9.876h-1v1.548h-2.76a2.865,2.865,0,0,0-2.172-.9,2.568,2.568,0,0,0-2.772,2.544,2.58,2.58,0,0,0,2.772,2.568,2.8,2.8,0,0,0,2.172-.924ZM95.4.1c-1.62,0-2.6-.48-2.6-1.284s.984-1.3,2.6-1.3c1.644,0,2.628.48,2.628,1.3S97.044.1,95.4.1Zm0-3.348c-2.208,0-3.576.756-3.576,2.064S93.192.876,95.4.876,99,.12,99-1.188,97.62-3.252,95.4-3.252Zm15.9-6.624V.912h.984V-9.876Zm-4.692.828c-1.6,0-2.736,1.464-2.736,3.756s1.14,3.756,2.736,3.756S109.344-3,109.344-5.292,108.2-9.048,106.608-9.048Zm0,.888c1.044,0,1.788,1.128,1.788,2.868s-.744,2.88-1.788,2.88-1.8-1.128-1.8-2.88S105.552-8.16,106.608-8.16Zm14.508,2.016h1.368V-3.06h.948V-9.876h-.948v2.928h-1.368V-9.66h-.936v6.216h.936ZM119.76-8.592h-2.244v-1.2h-.972v1.2h-2.256v.78h5.472Zm-4.14,3.18c0-.66.564-1.1,1.416-1.1s1.416.444,1.416,1.1S117.876-4.3,117.036-4.3,115.62-4.74,115.62-5.412Zm3.708,0c0-1.1-.936-1.836-2.292-1.836s-2.3.732-2.3,1.836c0,1.128.948,1.848,2.3,1.848S119.328-4.284,119.328-5.412ZM119.892.12c-1.644,0-2.628-.408-2.628-1.116s.984-1.128,2.628-1.128,2.616.408,2.616,1.128S121.524.12,119.892.12Zm0-3c-2.244,0-3.6.672-3.6,1.884s1.356,1.872,3.6,1.872,3.6-.672,3.6-1.872S122.136-2.88,119.892-2.88Zm14.244-6.012h-2.592V-9.948h-.984v1.056h-2.6v.744h6.18Zm-4.668,2.736c0-.564.612-.912,1.584-.912.948,0,1.572.348,1.572.912s-.624.924-1.572.924C130.08-5.232,129.468-5.592,129.468-6.156Zm4.992,2.064a28.609,28.609,0,0,1-2.916.264v-.744c1.236-.132,2.016-.708,2.016-1.584,0-.984-1.008-1.6-2.508-1.6-1.524,0-2.52.612-2.52,1.6,0,.888.78,1.464,2.028,1.584v.78c-1.032.036-2.016.036-2.868.036l.108.792a41.059,41.059,0,0,0,6.732-.42ZM129-1.332h6.1V.888h.984v-3H129Zm8.664-5.28H136.08V-9.864H135.1v7.212h.984V-5.8h1.584Zm7.212,2.148a3.768,3.768,0,0,1-2.652-3.408V-9.228h-.984V-7.9a3.911,3.911,0,0,1-2.688,3.7l.516.78a4.465,4.465,0,0,0,2.688-2.736,4.527,4.527,0,0,0,2.628,2.472Zm-3.612,1.776h-.984V.648h7.14v-.8h-6.156Zm5.688-3.888V-9.888h-.984v7.956h.984V-5.76h1.6v-.816Z" transform="translate(463.015 340.28)"/>
  <g id="그룹_94" data-name="그룹 94" transform="translate(-2749.655 -3352.952)">
    <path id="패스_355" data-name="패스 355" class="cls-3" d="M3049.92,3637.232a4,4,0,1,0-4-4,4,4,0,0,0,4,4"/>
  </g>
  <path id="패스_1270" data-name="패스 1270" class="cls-3" d="M6.684-8.8H4.212V-9.984H3.228V-8.8H.66V-8H6.684ZM2.2-5.532c0-.72.612-1.188,1.512-1.188S5.22-6.252,5.22-5.532,4.608-4.344,3.708-4.344,2.2-4.812,2.2-5.532Zm3.948,0c0-1.164-1.008-1.932-2.436-1.932S1.272-6.7,1.272-5.532,2.268-3.6,3.708-3.6,6.144-4.368,6.144-5.532Zm2.388,5.5H3.5v-1.14H8.532Zm0-1.9H3.5v-1.1H2.532V.744H9.5v-3.78H8.532ZM8.508-9.864v2.508H6.7v.792H8.508v1.3H6.684v.8H8.508v.948h1V-9.864ZM17.2-4.8a24.312,24.312,0,0,1-4.272.252V-6.18h3.648V-9.228H11.928v.8h3.684v1.488H11.964v3.192h.768a24.848,24.848,0,0,0,4.56-.264ZM13.164-1.872H19.38V.9h.984V-2.676h-7.2ZM19.38-9.864V-8.28h-2.1v.8h2.1v1.44h-2.1v.792h2.1v1.992h.984V-9.864Zm6.612.924H25.02v1.932A5.7,5.7,0,0,1,22.248-2.2l.588.792a5.961,5.961,0,0,0,2.676-3.564,5.937,5.937,0,0,0,2.6,3.348l.612-.78a5.435,5.435,0,0,1-2.736-4.608Zm6.444,3.432H30.66V-9.864h-.984V.888h.984v-5.58h1.776Zm9.552.7a3.654,3.654,0,0,1-2.6-3.324V-9.324H38.4v1.1a3.939,3.939,0,0,1-2.676,3.7l.516.78A4.5,4.5,0,0,0,38.9-6.468a4.518,4.518,0,0,0,2.568,2.424ZM40.7.108c-1.6,0-2.568-.444-2.568-1.188s.972-1.2,2.568-1.2,2.556.444,2.556,1.2S42.288.108,40.7.108Zm0-3.156c-2.2,0-3.552.708-3.552,1.968S38.508.876,40.7.876s3.54-.708,3.54-1.956S42.888-3.048,40.7-3.048Zm3.42-4.044V-9.864H43.14v6.516h.984V-6.276h1.6v-.816ZM53.4-6.18h1.368v2.952h.948V-9.864h-.948v2.88H53.4V-9.66h-.936v6.084H53.4ZM52.02-4.824a3.236,3.236,0,0,1-2.184-2.928V-9.2h-.948v1.452a3.727,3.727,0,0,1-2.244,3.216l.528.768a4.28,4.28,0,0,0,2.2-2.388,3.858,3.858,0,0,0,2.124,2.088ZM52.164.12c-1.608,0-2.616-.432-2.616-1.176S50.556-2.22,52.164-2.22c1.632,0,2.628.42,2.628,1.164S53.8.12,52.164.12Zm0-3.108c-2.208,0-3.588.708-3.588,1.932S49.956.876,52.164.876s3.6-.708,3.6-1.932S54.384-2.988,52.164-2.988ZM66.2-4.26H63.528V-8H66.2Zm-3.66,0H60.9v.8h7.932v-.8H67.188V-8h1.668V-8.8h-7.98V-8h1.668ZM60.012-1.308v.816h9.756v-.816Zm16.236.06V-3.276h3.444v-.792H73.068v-1.74H79.44V-9.084H72.072v.8H78.48V-6.6H72.1v3.324h3.156v2.028h-4.38v.8h9.78v-.8ZM89.22-7.656a24.378,24.378,0,0,1-.432,5.136l.984.108a26.5,26.5,0,0,0,.42-5.244V-8.724h-.456v-.012H82.812v.8H89.22ZM81.768-1.5v.816H91.5V-1.5ZM97.776-5.028a17.645,17.645,0,0,1-3.708.312V-6.24H97.14V-9.168H93.1v.792h3.1v1.392H93.12v3.06h.708a20.717,20.717,0,0,0,4.044-.312ZM95.6-2.148h5.148v2.1H95.6ZM94.644.744h7.068V-2.928H94.644Zm6.12-10.62V-7.14h-1.44V-9.672h-.936v6.084h.936V-6.336h1.44v2.892h.948V-9.876Zm9.06.936h-.972v1.932a5.655,5.655,0,0,1-2.892,4.86l.6.8a5.981,5.981,0,0,0,2.784-3.612,5.845,5.845,0,0,0,2.772,3.408l.588-.792a5.354,5.354,0,0,1-2.88-4.668Zm4.008-.936V.912h.984V-9.876Zm9.816,3.732h1.368V-3.06h.948V-9.876h-.948v2.928h-1.368V-9.66h-.936v6.216h.936Zm-1.356-2.448h-2.244v-1.2h-.972v1.2H116.82v.78h5.472Zm-4.14,3.18c0-.66.564-1.1,1.416-1.1s1.416.444,1.416,1.1S120.408-4.3,119.568-4.3,118.152-4.74,118.152-5.412Zm3.708,0c0-1.1-.936-1.836-2.292-1.836s-2.3.732-2.3,1.836c0,1.128.948,1.848,2.3,1.848S121.86-4.284,121.86-5.412ZM122.424.12C120.78.12,119.8-.288,119.8-1s.984-1.128,2.628-1.128S125.04-1.716,125.04-1,124.056.12,122.424.12Zm0-3c-2.244,0-3.6.672-3.6,1.884s1.356,1.872,3.6,1.872,3.6-.672,3.6-1.872S124.668-2.88,122.424-2.88Z" transform="translate(309.265 285.56)"/>
  <g id="그룹_95" data-name="그룹 95" transform="translate(-2749.655 -3352.952)">
    <path id="패스_356" data-name="패스 356" class="cls-4" d="M3216.248,3610.922a4,4,0,1,0-4-4,4,4,0,0,0,4,4"/>
  </g>
  <path id="패스_1286" data-name="패스 1286" class="cls-4" d="M6.348-6.9v.8h2.16V-1.98h1V-9.864h-1V-6.9Zm.636,2.532a3.7,3.7,0,0,1-2.616-3.3V-8.2H6.732V-9H.984v.8h2.4v.54A3.923,3.923,0,0,1,.672-4.128l.516.768A4.594,4.594,0,0,0,3.9-6.036,4.441,4.441,0,0,0,6.492-3.6ZM3.612-.156v-2.52h-1V.648H9.8v-.8ZM17.844-5.064a26.3,26.3,0,0,1-4.9.36V-6.252H16.8V-9.24H11.952v.8h3.876v1.428H11.976V-3.9h.852a28.481,28.481,0,0,0,5.112-.36Zm-4.98,3.1h6.012V.876h.984V-2.76h-7Zm8.592-5.376V-8.16h-1.6v-1.7h-.984v6.54h.984V-5.088h1.6V-5.9h-1.6v-1.44ZM28.728-4.62a3.706,3.706,0,0,1-2.616-3.288V-8.34h2.364v-.8H22.728v.8h2.4v.432A3.91,3.91,0,0,1,22.416-4.38l.516.78a4.561,4.561,0,0,0,2.7-2.688,4.46,4.46,0,0,0,2.6,2.436Zm-4.68,2.568h6.2V.9h.984V-2.844H24.048Zm6.2-7.824v2.808h-2.1v.8h2.1v2.832h.984V-9.876Zm9.12.936H38.4v1.932A5.7,5.7,0,0,1,35.628-2.2l.588.792a5.961,5.961,0,0,0,2.676-3.564A5.937,5.937,0,0,0,41.5-1.62l.612-.78a5.435,5.435,0,0,1-2.736-4.608Zm6.444,3.432H44.04V-9.864h-.984V.888h.984v-5.58h1.776ZM53.46-8.556H50.688V-9.864H49.7v1.308H46.92v.792h6.54Zm-4.92,3.4c0-.756.672-1.236,1.656-1.236s1.644.48,1.644,1.236S51.168-3.936,50.2-3.936,48.54-4.416,48.54-5.16Zm2.148,1.968c1.272-.156,2.088-.9,2.088-1.968,0-1.212-1.044-1.992-2.58-1.992S47.6-6.372,47.6-5.16c0,1.08.828,1.824,2.1,1.98v1.152c-1.068.036-2.1.048-3.012.048l.144.828a44.017,44.017,0,0,0,6.972-.432l-.072-.732c-.984.132-2.028.2-3.048.252ZM54.42-9.864V.888H55.4V-9.864Zm10.6,1.452a9.736,9.736,0,0,1-.288,2.736l.96.108a9.981,9.981,0,0,0,.3-2.844v-.912H58.656v.792h6.36Zm-2.7,8.52c-1.68,0-2.76-.456-2.76-1.2,0-.768,1.08-1.224,2.76-1.224s2.772.456,2.772,1.224C65.088-.348,64.008.108,62.316.108Zm0-3.18c-2.292,0-3.744.732-3.744,1.98,0,1.224,1.452,1.968,3.744,1.968s3.756-.744,3.756-1.968C66.072-2.34,64.608-3.072,62.316-3.072Zm.156-1.788V-6.924h-.984V-4.86H57.516v.8H67.2v-.8Zm11.94-1.308v.816h1.824v3.6h1V-9.864h-1v3.7Zm.2-2.388H71.988v-1.32H71v1.32H68.376v.792h6.24Zm-4.68,3.384c0-.732.648-1.224,1.56-1.224s1.56.492,1.56,1.224S72.4-3.936,71.5-3.936,69.936-4.428,69.936-5.172Zm4.044,0c0-1.176-1.032-1.992-2.484-1.992S69-6.348,69-5.172s1.044,2,2.5,2S73.98-3.984,73.98-5.172ZM71.292-.156V-2.448h-.984v3.1h7.176v-.8ZM88.14-9.06H85.548v-.924h-.984v.924h-2.6v.708h6.18ZM83.472-6.6c0-.48.612-.768,1.584-.768s1.572.288,1.572.768-.612.78-1.572.78S83.472-6.12,83.472-6.6Zm4.992,1.776c-.924.132-1.932.2-2.916.252V-5.2c1.236-.108,2.016-.612,2.016-1.4,0-.888-1-1.416-2.508-1.416-1.536,0-2.52.528-2.52,1.416,0,.8.78,1.308,2.028,1.4v.66C83.532-4.5,82.536-4.5,81.7-4.5l.108.732a39.564,39.564,0,0,0,6.72-.42ZM84.108-.852h5.976v-2.2H83.112v.7h6v.84H83.148V.768h7.344V.06H84.108Zm5.976-6.276V-9.876H89.1v6.36h.984V-6.3h1.584v-.828ZM97.488.12c-1.7,0-2.7-.42-2.7-1.176s1-1.176,2.7-1.176c1.68,0,2.676.42,2.676,1.176S99.168.12,97.488.12Zm0-3.12c-2.3,0-3.7.7-3.7,1.944S95.184.888,97.488.888c2.28,0,3.672-.7,3.672-1.944S99.768-3,97.488-3Zm.492-1.56V-5.808h3.24V-6.6h-6.4V-8.592h6.324v-.792H93.84v3.576H97V-4.56h-4.38v.792h9.744V-4.56Z" transform="translate(475.593 259.25)"/>
  <g id="그룹_96" data-name="그룹 96" transform="translate(-2749.655 -3352.952)">
    <path id="패스_357" data-name="패스 357" class="cls-4" d="M3241.607,3632.952a4,4,0,1,0-4-4,4,4,0,0,0,4,4"/>
  </g>
  <path id="패스_1285" data-name="패스 1285" class="cls-4" d="M9.468-9.864H8.484V-2h.984ZM1.848-6.48A1.76,1.76,0,0,1,3.684-8.268,1.766,1.766,0,0,1,5.544-6.48a1.771,1.771,0,0,1-1.86,1.812A1.765,1.765,0,0,1,1.848-6.48Zm4.656,0a2.649,2.649,0,0,0-2.82-2.64,2.635,2.635,0,0,0-2.8,2.64,2.647,2.647,0,0,0,2.8,2.664A2.66,2.66,0,0,0,6.5-6.48ZM3.528-.156V-2.808H2.544V.648H9.792v-.8ZM17.04-4.008v.78h2.34V-1.74h.984V-9.864H19.38v5.856ZM14.46-2.436h.984V-4.92a24.987,24.987,0,0,0,3.036-.348l-.072-.708c-.384.06-.8.1-1.212.132a16.771,16.771,0,0,0,.228-2.964v-.408H12.408v.792h4.056A15.808,15.808,0,0,1,16.2-5.76c-1.692.12-3.4.132-4.776.144l.132.8c.864,0,1.86-.012,2.9-.06Zm-.468,2.28V-2.628H13.02V.648h7.608v-.8ZM28-3.84a26.762,26.762,0,0,0,.3-4.272V-8.7H22.86v.8h4.476a22.824,22.824,0,0,1-.324,3.96ZM25.524-5.628h-.972v3.312c-.8.024-1.6.036-2.28.036l.108.816a43.862,43.862,0,0,0,6.672-.408l-.06-.72c-1.092.144-2.292.2-3.468.252Zm6.828.252H30.636v-4.5h-.984V.888h.984V-4.548h1.716Zm8.784,4.068v-2.88h3.288V-4.98h-6.48V-8.952H36.96v4.764h3.192v2.88H35.76v.8h9.78v-.8ZM51.5.12c-1.7,0-2.7-.42-2.7-1.176s1-1.176,2.7-1.176c1.68,0,2.676.42,2.676,1.176S53.184.12,51.5.12ZM51.5-3c-2.3,0-3.7.7-3.7,1.944S49.2.888,51.5.888c2.28,0,3.672-.7,3.672-1.944S53.784-3,51.5-3ZM52-4.56V-5.808h3.24V-6.6h-6.4V-8.592h6.324v-.792H47.856v3.576h3.156V-4.56h-4.38v.792h9.744V-4.56Zm13.668-.72a15.567,15.567,0,0,0,.276-3.192v-.564H60.588v.8H64.98a13.682,13.682,0,0,1-.288,2.844Zm1.02.648c-1.092.156-2.316.24-3.492.288V-6.636H62.22v2.328c-.816.012-1.6.024-2.28.024l.1.8a43.132,43.132,0,0,0,6.72-.432ZM62.568-2.508h-.984V.648h7.152v-.8H62.568Zm5.82-3.864v-3.5H67.4v8.112h.984V-5.556h1.548v-.816ZM78.756-1.956h1V-9.864h-1v1.812H76.668v.792h2.088v1.608H76.668v.8h2.088Zm-2.172-2.52A22.744,22.744,0,0,1,72.3-4.2V-5.964h3.648V-9.108H71.3v.792h3.66v1.584H71.328V-3.4h.78a24.514,24.514,0,0,0,4.572-.276ZM73.764-.192v-2.34H72.78V.6h7.3V-.192ZM89.9-3.516v.732h2.184v1.1h.984v-8.2h-.984v6.36Zm-2.2-5.2c1.02,0,1.716.456,1.716,1.14s-.7,1.152-1.716,1.152-1.716-.456-1.716-1.152S86.688-8.712,87.708-8.712Zm0,3.024c1.572,0,2.652-.732,2.652-1.884,0-1.128-1.08-1.872-2.652-1.872s-2.652.744-2.652,1.872C85.056-6.42,86.136-5.688,87.708-5.688Zm-.384,3.624h.984V-4.188c.972-.06,1.968-.168,2.916-.312l-.084-.708A58.47,58.47,0,0,1,84.2-4.9l.132.816c.888,0,1.92-.012,2.988-.06Zm-.6,1.908V-2.484H85.74V.648h7.608v-.8ZM101.772-4.4a3.525,3.525,0,0,1-2.736-3.12v-.252h2.436v-.792H99.048V-9.924h-.984v1.356H95.616v.792h2.448v.252a3.639,3.639,0,0,1-2.712,3.312l.48.768a4.392,4.392,0,0,0,2.736-2.5,4.505,4.505,0,0,0,2.748,2.3Zm-5,2.5h6.216v2.8h.984V-2.7h-7.2Zm6.216-7.968V-3.24h.984V-9.876Zm6.492,4.764a5.1,5.1,0,0,0,3.912-2.376A5.055,5.055,0,0,0,117.3-5.112l.36-.792c-1.9-.252-3.636-1.32-3.636-2.628v-.012h3.348v-.792H109.4v.792h3.348v.012c0,1.308-1.74,2.376-3.648,2.628ZM110.724-2.4h-.984V.648h7.44v-.8h-6.456Zm-2.232-1.932v.792h4.476v2.184h.984V-3.54h4.308v-.792Zm20.16-1.44c-1.956-.288-3.876-1.62-3.876-3.12v-.6h-1.032v.6c0,1.536-1.9,2.832-3.852,3.12l.4.792A5.515,5.515,0,0,0,124.26-7.5a5.648,5.648,0,0,0,3.984,2.52Zm.468,1.956H119.4V-3h4.344V.9h.984V-3h4.4Z" transform="translate(500.952 281.28)"/>
  <g id="그룹_97" data-name="그룹 97" transform="translate(-2749.655 -3352.952)">
    <path id="패스_358" data-name="패스 358" class="cls-4" d="M3362.92,3654.982a4,4,0,1,0-4-4,4,4,0,0,0,4,4"/>
  </g>
  <path id="패스_1287" data-name="패스 1287" class="cls-4" d="M7.032-8.82H4.44V-9.912H3.456V-8.82H.852v.732h6.18ZM2.364-5.988c0-.576.612-.948,1.584-.948.948,0,1.572.372,1.572.948,0,.6-.624.96-1.572.96C2.976-5.028,2.364-5.388,2.364-5.988ZM7.356-3.864a25.261,25.261,0,0,1-2.916.288v-.768c1.236-.132,2.016-.72,2.016-1.644,0-1.02-1.008-1.644-2.508-1.644s-2.52.624-2.52,1.644c0,.924.792,1.524,2.028,1.644v.816c-1.032.036-2.028.048-2.868.048L.7-2.688a40.059,40.059,0,0,0,6.732-.468ZM3.156-2H2.172V.648H9.36v-.8h-6.2ZM8.976-6.12V-9.876H7.992v8.424h.984V-5.3H10.56V-6.12Zm10.4-.972v1.44H16.56v.8h2.82v1.416h1V-9.864h-1V-7.9H16.944a6.175,6.175,0,0,0,.12-1.164H12.2v.792H16c-.18,1.86-1.776,3.288-4.344,4.056l.4.78a6.669,6.669,0,0,0,4.644-3.66ZM16.86.072c-1.584,0-2.592-.492-2.592-1.308s1.008-1.3,2.592-1.3,2.592.492,2.592,1.3S18.444.072,16.86.072Zm0-3.384c-2.172,0-3.564.78-3.564,2.076S14.688.84,16.86.84s3.564-.78,3.564-2.076S19.032-3.312,16.86-3.312ZM33.72-9.864h-.984V-1.92h.984ZM31.512-4.188a3.554,3.554,0,0,1-2.724-3.18v-.276h2.436v-.792H28.8v-1.38h-.984v1.38H25.368v.792h2.448v.276a3.7,3.7,0,0,1-2.7,3.384l.48.768A4.428,4.428,0,0,0,28.32-5.772,4.383,4.383,0,0,0,31.044-3.42ZM27.78-.156v-2.5H26.8v3.3h7.248v-.8ZM42.252-8.568H39.54v-1.3h-.984v1.3H35.82v.78h6.432ZM37.44-5.16c0-.744.648-1.236,1.608-1.236s1.608.492,1.608,1.236-.648,1.224-1.608,1.224S37.44-4.416,37.44-5.16Zm2.1,1.968A2.058,2.058,0,0,0,41.592-5.16c0-1.212-1.044-1.992-2.544-1.992S36.5-6.372,36.5-5.16a2.058,2.058,0,0,0,2.052,1.968v1.176c-1.044.036-2.052.036-2.916.036l.132.828a39.728,39.728,0,0,0,6.72-.432l-.06-.732a28.137,28.137,0,0,1-2.892.264ZM45.732-5.3h-1.68V-9.876h-.984V.888h.984V-4.476h1.68Zm7.236.684a3.706,3.706,0,0,1-2.616-3.288V-8.34h2.364v-.8H46.968v.8h2.4v.432A3.91,3.91,0,0,1,46.656-4.38l.516.78a4.561,4.561,0,0,0,2.7-2.688,4.46,4.46,0,0,0,2.6,2.436Zm-4.68,2.568h6.2V.9h.984V-2.844H48.288Zm6.2-7.824v2.808h-2.1v.8h2.1v2.832h.984V-9.876Zm8.664,2.064h1.92v-.8H60.168v.8h2.04v.972A5.616,5.616,0,0,1,59.868-2l.6.732a5.572,5.572,0,0,0,2.22-3.408,5.147,5.147,0,0,0,2.16,3.144l.6-.72A5.215,5.215,0,0,1,63.156-6.84Zm2.88,1.8H64.26v.8h1.776V.324h.936v-9.96h-.936ZM68.2-9.888V.876h.948V-9.888ZM77.064-6.48H74.388V-8.736h2.676Zm-3.66,0H71.82v.792h7.812V-6.48H78.048V-8.736H79.68v-.792h-7.9v.792H73.4ZM78.456-.048H73.032V-1.836h5.424ZM80.6-3.876v-.792H70.872v.792h4.38v1.26h-3.18V.744h7.344v-3.36h-3.18v-1.26Zm12.468-6h-.984V-3.7h.984ZM88.884-5.568H85.776V-8.4h3.108Zm.96-3.612H84.816v4.4h5.028Zm3.48,6.972v-.756H90.168V-4.008h-1v1.044H86.016v.756H89.16C89.148-1.14,87.432-.12,85.6.1l.324.756a5.379,5.379,0,0,0,3.756-1.968,5.3,5.3,0,0,0,3.7,1.968L93.708.1c-1.848-.228-3.528-1.272-3.54-2.3ZM101.4-8.952h-.984V-7.02a5.686,5.686,0,0,1-2.784,4.848l.6.78a5.972,5.972,0,0,0,2.676-3.6,5.766,5.766,0,0,0,2.7,3.408l.576-.78A5.366,5.366,0,0,1,101.4-7.02Zm4.116-.924v3.648h-2.5v.8h2.5V.9h.984V-9.876Zm10.812,0V.9h.984V-9.876Zm-7.212.912V-1.7h5.064v-7.26h-.972V-6.12h-3.12V-8.964Zm.972,3.624h3.12v2.832h-3.12Zm18.564.876c-1.884-.36-3.924-1.992-3.924-3.828V-9.12H123.7v.828c0,1.836-2.028,3.456-3.912,3.828l.444.816a5.911,5.911,0,0,0,3.984-3.108,5.84,5.84,0,0,0,4,3.108Zm-9.276,3.1v.816h9.756v-.816ZM133.74-9.084a2.607,2.607,0,0,0-2.88,2.532,2.614,2.614,0,0,0,2.88,2.532,2.607,2.607,0,0,0,2.88-2.532A2.6,2.6,0,0,0,133.74-9.084Zm0,.84a1.739,1.739,0,0,1,1.92,1.692,1.746,1.746,0,0,1-1.92,1.692,1.746,1.746,0,0,1-1.92-1.692A1.739,1.739,0,0,1,133.74-8.244Zm4.3-1.632V.912h.984V-9.876Zm-7.6,8.424a38.458,38.458,0,0,0,6.972-.468l-.084-.732a48.467,48.467,0,0,1-7.008.372Zm13.6-7.032v.8h3.228a6.518,6.518,0,0,1-3.636,5.556l.576.708a7.528,7.528,0,0,0,4.032-7.068Zm7.776-1.392v4.332h-1.464V-9.588h-.924V.348h.924V-4.74h1.464V.888h.948V-9.876Zm7.152,4.356h-3.048V-7.128h3.048Zm.96-3.912h-.96v1.548h-3.048V-9.432h-.972v4.7h4.98Zm-2.916,8.244h5.844V-3.8h-6.84v.78h5.868v1.1h-5.832V.768h7.2v-.78h-6.24Zm5.844-6.372v-2.3h-.984v5.556h.984V-6.744h1.6V-7.56Z" transform="translate(622.265 303.31)"/>
  <g id="그룹_98" data-name="그룹 98" transform="translate(-2749.655 -3352.952)">
    <path id="패스_359" data-name="패스 359" class="cls-4" d="M3412.295,3624.952a4,4,0,1,0-4-4,4,4,0,0,0,4,4"/>
  </g>
  <path id="패스_1288" data-name="패스 1288" class="cls-4" d="M8.484-9.864v6.156h.984V-9.864ZM2.508-3.132V.744h6.96V-3.132Zm6,.78v2.3H3.468v-2.3ZM3.684-9.3a2.556,2.556,0,0,0-2.8,2.508,2.556,2.556,0,0,0,2.8,2.508A2.57,2.57,0,0,0,6.5-6.792,2.57,2.57,0,0,0,3.684-9.3Zm0,.816a1.72,1.72,0,0,1,1.86,1.692A1.713,1.713,0,0,1,3.684-5.1,1.7,1.7,0,0,1,1.848-6.792,1.706,1.706,0,0,1,3.684-8.484Zm14.4,3.864a3.663,3.663,0,0,1-2.7-3.276v-.432H17.82V-9.12h-5.9v.792h2.46V-7.9A3.854,3.854,0,0,1,11.652-4.4l.516.768a4.545,4.545,0,0,0,2.724-2.652A4.572,4.572,0,0,0,17.6-3.84ZM13.14-2h6.216V.888h.984V-2.8h-7.2Zm6.216-7.872V-3.36h.984V-9.876Zm8.664,6.36v.732H30.2v1.1h.984v-8.2H30.2v6.36Zm-2.2-5.2c1.02,0,1.716.456,1.716,1.14s-.7,1.152-1.716,1.152-1.716-.456-1.716-1.152S24.8-8.712,25.824-8.712Zm0,3.024c1.572,0,2.652-.732,2.652-1.884,0-1.128-1.08-1.872-2.652-1.872s-2.652.744-2.652,1.872C23.172-6.42,24.252-5.688,25.824-5.688ZM25.44-2.064h.984V-4.188c.972-.06,1.968-.168,2.916-.312l-.084-.708A58.47,58.47,0,0,1,22.32-4.9l.132.816c.888,0,1.92-.012,2.988-.06Zm-.6,1.908V-2.484h-.984V.648h7.608v-.8Zm12.6-1.98h6.2V.9h1V-2.94h-7.2ZM41.352-5.88a2.91,2.91,0,0,0,.12-.816,2.891,2.891,0,0,0-.12-.8h2.292v1.62ZM38.7-4.932A1.737,1.737,0,0,1,36.876-6.7,1.732,1.732,0,0,1,38.7-8.436,1.736,1.736,0,0,1,40.536-6.7,1.741,1.741,0,0,1,38.7-4.932Zm4.944-4.932v1.572H40.932A2.834,2.834,0,0,0,38.7-9.276,2.585,2.585,0,0,0,35.94-6.7a2.6,2.6,0,0,0,2.76,2.6,2.809,2.809,0,0,0,2.22-.984h2.724v1.548h1V-9.876Zm9.324,4.716a26.342,26.342,0,0,1-4.9.348V-6.288h3.852V-9.2H47.076v.8h3.876v1.356H47.1V-4h.852a28.529,28.529,0,0,0,5.112-.348ZM51.552.12c-1.608,0-2.58-.444-2.58-1.2s.972-1.2,2.58-1.2,2.568.444,2.568,1.2S53.16.12,51.552.12Zm0-3.168c-2.2,0-3.54.72-3.54,1.968S49.356.876,51.552.876s3.54-.708,3.54-1.956S53.736-3.048,51.552-3.048ZM56.58-7.38V-8.2h-1.6V-9.864H54v6.5h.984V-5.112h1.6v-.816h-1.6V-7.38Zm1.332-1.1v.8H61.14A6.518,6.518,0,0,1,57.5-2.124l.576.708a7.528,7.528,0,0,0,4.032-7.068Zm7.776-1.392v4.332H64.224V-9.588H63.3V.348h.924V-4.74h1.464V.888h.948V-9.876Zm7.14,4.356H69.78V-7.128h3.048Zm.96-3.912h-.96v1.548H69.78V-9.432h-.972v4.7h4.98ZM70.872-1.188h5.844V-3.8h-6.84v.78h5.868v1.1H69.912V.768h7.2v-.78h-6.24ZM76.716-7.56v-2.3h-.984v5.556h.984V-6.744h1.6V-7.56ZM90.564-9.876H89.58V-3.7h.984ZM86.376-5.568H83.268V-8.4h3.108Zm.96-3.612H82.308v4.4h5.028Zm3.48,6.972v-.756H87.66V-4.008h-1v1.044H83.508v.756h3.144C86.64-1.14,84.924-.12,83.088.1l.324.756a5.379,5.379,0,0,0,3.756-1.968,5.3,5.3,0,0,0,3.7,1.968L91.2.1c-1.848-.228-3.528-1.272-3.54-2.3Zm9.168-6.444c1.644,0,2.76.6,2.76,1.548s-1.116,1.56-2.76,1.56-2.748-.612-2.748-1.56S98.352-8.652,99.984-8.652Zm0,3.9c2.244,0,3.768-.912,3.768-2.352s-1.524-2.34-3.768-2.34-3.756.9-3.756,2.34S97.752-4.752,99.984-4.752Zm4.9,1.008H95.136v.8h2.508V.888h1V-2.94h2.7V.888h1V-2.94h2.544Zm4.956-4.212h2.532v-.816h-6.012v.816h2.5v1.368A5.505,5.505,0,0,1,106-1.968l.576.792a6.036,6.036,0,0,0,2.772-3.552,5.686,5.686,0,0,0,2.82,3.288l.552-.792a5.012,5.012,0,0,1-2.88-4.356Zm3.984-1.908V.888h.984V-9.864Z" transform="translate(671.64 273.28)"/>
  <g id="그룹_99" data-name="그룹 99" transform="translate(-2749.655 -3352.952)">
    <path id="패스_360" data-name="패스 360" class="cls-3" d="M3068.42,3587.232a4,4,0,1,0-4-4,4,4,0,0,0,4,4"/>
  </g>
  <path id="패스_1269" data-name="패스 1269" class="cls-3" d="M3.3-2.424A1.485,1.485,0,0,1,1.872-4.068,1.477,1.477,0,0,1,3.3-5.688a1.484,1.484,0,0,1,1.428,1.62A1.492,1.492,0,0,1,3.3-2.424Zm0-4.092A2.291,2.291,0,0,0,1-4.068a2.288,2.288,0,0,0,2.3,2.46,2.288,2.288,0,0,0,2.3-2.46A2.291,2.291,0,0,0,3.3-6.516Zm.48-3.048H2.808V-8.04H.624v.8h5.34v-.8H3.78Zm5.028-.324V-5.34H7.428v-4.3H6.5v10h.924v-4.9h1.38V.876h.948V-9.888ZM13.08-6.66a1.733,1.733,0,0,1,1.908-1.68A1.741,1.741,0,0,1,16.92-6.66a1.752,1.752,0,0,1-1.932,1.7A1.744,1.744,0,0,1,13.08-6.66Zm2.4,2.508a2.514,2.514,0,0,0,2.4-2.508,2.6,2.6,0,0,0-2.892-2.52A2.6,2.6,0,0,0,12.12-6.66,2.527,2.527,0,0,0,14.5-4.152v1.86c-1.056.036-2.052.036-2.916.036l.12.828A38.458,38.458,0,0,0,18.672-1.9l-.084-.732c-1,.156-2.064.24-3.108.3ZM19.3-9.888V.912h.984v-10.8Zm6.9.948h-.972v1.932a5.655,5.655,0,0,1-2.892,4.86l.6.8a5.981,5.981,0,0,0,2.784-3.612,5.845,5.845,0,0,0,2.772,3.408l.588-.792A5.354,5.354,0,0,1,26.2-7.008ZM30.2-9.876V.912h.984V-9.876Zm9.288,5.208a3.5,3.5,0,0,1-2.6-3.192v-.42h2.376v-.792H33.492v.792H35.9v.42a3.812,3.812,0,0,1-2.7,3.5l.5.78a4.444,4.444,0,0,0,2.712-2.64,4.185,4.185,0,0,0,2.6,2.316ZM38.184.1c-1.608,0-2.568-.444-2.568-1.212s.96-1.2,2.568-1.2c1.584,0,2.556.444,2.556,1.2S39.768.1,38.184.1Zm0-3.192c-2.208,0-3.552.732-3.552,1.98S35.976.876,38.184.876c2.184,0,3.54-.732,3.54-1.992S40.368-3.1,38.184-3.1ZM41.6-7.152V-9.864H40.62v6.492H41.6V-6.324h1.6v-.828Zm11.076.144v.8H54.5v1.452H52.68v.8H54.5v2.28h1v-8.2h-1v2.856Zm0-1.548H50.208v-1.32h-.984v1.32H46.656v.792H52.68ZM48.2-5.124A1.332,1.332,0,0,1,49.7-6.4a1.332,1.332,0,0,1,1.5,1.272,1.342,1.342,0,0,1-1.5,1.3A1.342,1.342,0,0,1,48.2-5.124Zm3.936,0A2.155,2.155,0,0,0,49.7-7.164a2.155,2.155,0,0,0-2.436,2.04A2.165,2.165,0,0,0,49.7-3.06,2.165,2.165,0,0,0,52.14-5.124ZM49.56-.156V-2.364h-.984V.648h7.176v-.8Zm11.784-7.8h2.532v-.816H57.864v.816h2.5v1.368A5.505,5.505,0,0,1,57.5-1.968l.576.792a6.036,6.036,0,0,0,2.772-3.552,5.686,5.686,0,0,0,2.82,3.288l.552-.792a5.012,5.012,0,0,1-2.88-4.356Zm3.984-1.908V.888h.984V-9.864ZM73.14-7.92H74.9v5.232c-.588.024-1.188.048-1.764.06Zm2.724,0h1.152v-.792H71.028v.792H72.18v5.3c-.5.012-.984.012-1.428.012l.12.828a44.493,44.493,0,0,0,6.708-.4L77.508-2.9c-.528.072-1.08.12-1.644.156ZM80.94-5.568H79.164v-4.3H78.18V.888h.984v-5.64H80.94Zm9.456,1.5H84v-1.7h6.048v-.78H84v-1.6h6.288V-8.94H83v5.664H90.4Zm-8.652,2.76v.8h9.768v-.8ZM94.2-8.676h-.984v6.984h.84a25.252,25.252,0,0,0,4.92-.432l-.132-.84A23.331,23.331,0,0,1,94.2-2.52Zm6.312-1.2v3.552h-3.3v.816h3.3V.912h.984V-9.876Zm9.5,4.7a3.694,3.694,0,0,1-2.724-3.336V-9.516h-.984v1.008a3.9,3.9,0,0,1-2.748,3.54l.5.78a4.59,4.59,0,0,0,2.748-2.676,4.5,4.5,0,0,0,2.724,2.46ZM111.36-.048h-4.992V-1.476h4.992Zm0-2.2h-4.992V-3.552H105.4v4.3h6.936v-4.3h-.972Zm-.012-7.62v5.772h.984V-9.864Zm6.024.792v.792h3.9c-.18,1.86-1.8,3.324-4.356,4.08l.4.792c3.12-.924,5.028-2.928,5.028-5.664ZM121.872.1c-1.548,0-2.532-.492-2.532-1.308s.984-1.32,2.532-1.32,2.532.492,2.532,1.32S123.42.1,121.872.1Zm0-3.4c-2.124,0-3.5.78-3.5,2.088s1.38,2.088,3.5,2.088,3.5-.792,3.5-2.088S124-3.3,121.872-3.3Zm3.372-3.792V-9.876h-.984v6.432h.984V-6.276h1.6v-.816Zm9-1.476h-2.712v-1.3h-.984v1.3h-2.736v.78h6.432ZM129.432-5.16c0-.744.648-1.236,1.608-1.236s1.608.492,1.608,1.236S132-3.936,131.04-3.936,129.432-4.416,129.432-5.16Zm2.1,1.968a2.058,2.058,0,0,0,2.052-1.968c0-1.212-1.044-1.992-2.544-1.992s-2.544.78-2.544,1.992a2.058,2.058,0,0,0,2.052,1.968v1.176c-1.044.036-2.052.036-2.916.036l.132.828a39.728,39.728,0,0,0,6.72-.432l-.06-.732a28.136,28.136,0,0,1-2.892.264ZM137.724-5.3h-1.68V-9.876h-.984V.888h.984V-4.476h1.68Z" transform="translate(327.765 235.56)"/>
  <g id="그룹_100" data-name="그룹 100" transform="translate(-2749.655 -3352.952)">
    <path id="패스_361" data-name="패스 361" class="cls-3" d="M2983.92,3535.232a4,4,0,1,0-4-4,4,4,0,0,0,4,4"/>
  </g>
  <path id="패스_1268" data-name="패스 1268" class="cls-3" d="M1.2,0H2.208V-4.872c0-.756-.084-1.824-.132-2.592h.048l.7,2L4.488-.888h.744L6.9-5.46l.7-2h.048C7.584-6.7,7.5-5.628,7.5-4.872V0H8.544V-8.8H7.2l-1.68,4.7c-.2.612-.4,1.224-.6,1.836H4.86c-.216-.612-.42-1.224-.624-1.836L2.544-8.8H1.2Zm9.876-2.34a2.338,2.338,0,0,1,1.1-1.716A13.38,13.38,0,0,0,14.5-1.428a2.624,2.624,0,0,1-1.68.708A1.622,1.622,0,0,1,11.076-2.34ZM12.108-6.9a1.131,1.131,0,0,1,1.08-1.272c.6,0,.84.456.84.972,0,.78-.7,1.32-1.5,1.86A3.668,3.668,0,0,1,12.108-6.9ZM17.532-.756a5.339,5.339,0,0,1-1.644-.84A9.482,9.482,0,0,0,17.424-4.74H16.416a7.5,7.5,0,0,1-1.248,2.6A10.724,10.724,0,0,1,12.936-4.62c.972-.708,1.98-1.452,1.98-2.6a1.622,1.622,0,0,0-1.728-1.74A1.989,1.989,0,0,0,11.16-6.876a4.674,4.674,0,0,0,.576,2.052A3.187,3.187,0,0,0,10.008-2.28,2.452,2.452,0,0,0,12.684.156,3.664,3.664,0,0,0,15.228-.852a6.534,6.534,0,0,0,2,1.008Zm2.328-2.82.432-1.344c.312-1,.6-1.944.876-2.976h.048c.288,1.02.564,1.98.888,2.976l.42,1.344ZM23.64,0h1.176L21.828-8.8H20.592L17.6,0h1.128l.852-2.688H22.8Zm4.836-8.712v.792H32.52c-.2,2.556-1.644,4.62-4.536,6l.528.8c3.576-1.752,5-4.488,5-7.6Zm7.212-1.164V.888h.984V-9.876ZM43.176-4.56H40.128V-6.528h3.048Zm.96-4.536h-.96v1.8H40.128V-9.1h-.972v5.328h4.98ZM41.352-2.724h-.984V.648h7.176v-.8H41.352Zm5.712-3.888V-9.864H46.08v7.9h.984V-5.784h1.6v-.828ZM55.92-8.94h-.972v1.932a5.655,5.655,0,0,1-2.892,4.86l.6.8A5.981,5.981,0,0,0,55.44-4.956a5.845,5.845,0,0,0,2.772,3.408L58.8-2.34a5.354,5.354,0,0,1-2.88-4.668Zm4.008-.936V.912h.984V-9.876Zm4.62,1.2h-.984v6.984h.84a25.252,25.252,0,0,0,4.92-.432l-.132-.84a23.331,23.331,0,0,1-4.644.444Zm6.312-1.2v3.552h-3.3v.816h3.3V.912h.984V-9.876Zm6.828,1.92H80.22v-.816H74.208v.816h2.5v1.368a5.505,5.505,0,0,1-2.856,4.62l.576.792A6.036,6.036,0,0,0,77.2-4.728a5.686,5.686,0,0,0,2.82,3.288l.552-.792a5.012,5.012,0,0,1-2.88-4.356Zm3.984-1.908V.888h.984V-9.864ZM93.54-4.6A3.313,3.313,0,0,1,90.912-7.56v-.216h2.376v-.792H90.912V-9.924h-.984v1.356H87.54v.792h2.388v.216a3.533,3.533,0,0,1-2.676,3.228l.492.78a4.353,4.353,0,0,0,2.688-2.46,4.265,4.265,0,0,0,2.64,2.184ZM92.172.108C90.564.108,89.6-.324,89.6-1.068s.96-1.176,2.568-1.176c1.584,0,2.556.432,2.556,1.176S93.756.108,92.172.108Zm0-3.12c-2.22,0-3.552.7-3.552,1.944S89.952.864,92.172.864c2.2,0,3.54-.7,3.54-1.932S94.368-3.012,92.172-3.012Zm3.42-4.08V-9.876h-.984v6.6h.984v-3h1.6v-.816ZM98.9-5.58c1.812-.144,3.408-.7,4.068-1.692.66,1,2.244,1.548,4.044,1.692l.3-.744c-2-.132-3.624-.792-3.792-1.86h3.312v-.744h-3.372v-1.02h-.984v1.02H99.1v.744h3.324c-.168,1.068-1.812,1.728-3.8,1.86Zm8.916,1.236V-5.1H98.112v.756h4.356v1h-3.2v.732h6.348V-1.7H99.3V.768h7.608V.024H100.26V-1h6.324V-3.348h-3.12v-1ZM117.192-6.9v.8h2.16V-1.98h1V-9.864h-1V-6.9Zm.636,2.532a3.7,3.7,0,0,1-2.616-3.3V-8.2h2.364V-9h-5.748v.8h2.4v.54a3.923,3.923,0,0,1-2.712,3.528l.516.768a4.594,4.594,0,0,0,2.712-2.676A4.441,4.441,0,0,0,117.336-3.6ZM114.456-.156v-2.52h-1V.648h7.188v-.8Zm14.232-4.908a26.3,26.3,0,0,1-4.9.36V-6.252h3.852V-9.24H122.8v.8h3.876v1.428H122.82V-3.9h.852a28.481,28.481,0,0,0,5.112-.36Zm-4.98,3.1h6.012V.876h.984V-2.76h-7ZM132.3-7.344V-8.16h-1.6v-1.7h-.984v6.54h.984V-5.088h1.6V-5.9h-1.6v-1.44Z" transform="translate(243.265 183.56)"/>
  <g id="그룹_101" data-name="그룹 101" transform="translate(-2749.655 -3352.952)">
    <path id="패스_362" data-name="패스 362" class="cls-4" d="M3255.67,3535.232a4,4,0,1,0-4-4,4,4,0,0,0,4,4"/>
  </g>
  <path id="패스_1267" data-name="패스 1267" class="cls-5" d="M6.384-7.08v.8H8.508v2.82h1V-9.864h-1V-7.08Zm.6,2.448A3.706,3.706,0,0,1,4.368-7.92v-.372H6.732v-.792H.984v.792h2.4v.372A3.968,3.968,0,0,1,.672-4.332l.516.78A4.658,4.658,0,0,0,3.9-6.288,4.422,4.422,0,0,0,6.492-3.864ZM5.952.12c-1.62,0-2.6-.456-2.6-1.236s.984-1.248,2.6-1.248,2.6.468,2.6,1.248S7.572.12,5.952.12Zm0-3.24c-2.208,0-3.588.732-3.588,2s1.38,2,3.588,2,3.576-.732,3.576-2S8.16-3.12,5.952-3.12Zm7.68-3.264h5.5V-4.4h-5.5ZM16.872-1.3V-3.612h3.216v-5.5h-.96v1.92h-5.5v-1.92H12.66v5.5h3.216V-1.3H11.508v.8h9.756v-.8ZM27.024-6.384h5.5V-4.4h-5.5ZM30.264-1.3V-3.612H33.48v-5.5h-.96v1.92h-5.5v-1.92h-.972v5.5h3.216V-1.3H24.9v.8h9.756v-.8ZM44.976-8.3H41.124v-1.4H40.14v1.4h-3.9v.8h8.736ZM38.088-4.728C38.088-5.52,39.06-6,40.632-6c1.548,0,2.508.48,2.508,1.272s-.96,1.284-2.508,1.284C39.06-3.444,38.088-3.924,38.088-4.728Zm3.036,3.552V-2.688c1.872-.12,3.012-.84,3.012-2.04,0-1.3-1.356-2.04-3.5-2.04-2.184,0-3.54.744-3.54,2.04,0,1.2,1.152,1.932,3.048,2.04v1.512H35.76v.8h9.756v-.8Z" transform="translate(515.015 183.56)"/>
  <g id="그룹_102" data-name="그룹 102" transform="translate(-2749.655 -3352.952)">
    <path id="패스_363" data-name="패스 363" class="cls-5" d="M3335.232,3517.232a4,4,0,1,0-4-4,4,4,0,0,0,4,4"/>
  </g>
  <path id="패스_1266" data-name="패스 1266" class="cls-5" d="M2.316-7.9H3.792c1.38,0,2.136.408,2.136,1.572,0,1.14-.756,1.692-2.136,1.692H2.316ZM7.3,0,5.04-3.852A2.386,2.386,0,0,0,7.032-6.324C7.032-8.16,5.748-8.8,3.96-8.8H1.2V0H2.316V-3.732H3.9L6.036,0ZM8.952-2.34a2.338,2.338,0,0,1,1.1-1.716,13.38,13.38,0,0,0,2.316,2.628,2.624,2.624,0,0,1-1.68.708A1.622,1.622,0,0,1,8.952-2.34ZM9.984-6.9a1.131,1.131,0,0,1,1.08-1.272c.6,0,.84.456.84.972,0,.78-.7,1.32-1.5,1.86A3.668,3.668,0,0,1,9.984-6.9ZM15.408-.756a5.339,5.339,0,0,1-1.644-.84A9.482,9.482,0,0,0,15.3-4.74H14.292a7.5,7.5,0,0,1-1.248,2.6A10.724,10.724,0,0,1,10.812-4.62c.972-.708,1.98-1.452,1.98-2.6a1.622,1.622,0,0,0-1.728-1.74A1.989,1.989,0,0,0,9.036-6.876a4.674,4.674,0,0,0,.576,2.052A3.187,3.187,0,0,0,7.884-2.28,2.452,2.452,0,0,0,10.56.156,3.664,3.664,0,0,0,13.1-.852a6.534,6.534,0,0,0,2,1.008ZM16.644,0H18.9C21.552,0,23-1.644,23-4.428S21.552-8.8,18.852-8.8H16.644ZM17.76-.912V-7.9h1c2.076,0,3.1,1.236,3.1,3.468s-1.02,3.516-3.1,3.516Zm13.932-7.08H25.4v2.3h7.452V-6.4h-6.48V-7.32h6.288V-9.564H25.38v.7h6.312ZM26.316-.96H32.7V-3.252H25.32v.708h6.408v.9H25.344V.744h7.692V.036h-6.72Zm-2.16-3.912v.744h9.756v-.744Zm18.24,5c-1.728,0-2.7-.336-2.7-.984s.972-.984,2.7-.984,2.7.348,2.7.984S44.136.132,42.4.132Zm0-2.7c-2.34,0-3.684.6-3.684,1.716S40.056.876,42.4.876,46.08.276,46.08-.852,44.736-2.568,42.4-2.568Zm.492-1.608V-5.232h3.24V-6H39.792V-7.056H45.78V-7.8H39.792v-1h6.276v-.768h-7.26v4.332h3.1v1.056h-4.38v.792h9.744v-.792Zm11.9-4.38H52.1V-9.864H51.12v1.308H48.444v.792h6.348ZM49.98-5.172c0-.744.648-1.224,1.632-1.224s1.644.48,1.644,1.224-.672,1.236-1.644,1.236S49.98-4.416,49.98-5.172Zm4.212,0c0-1.2-1.056-1.992-2.58-1.992s-2.568.792-2.568,1.992,1.044,2,2.568,2S54.192-3.96,54.192-5.172ZM51.048-2.436h-.984V.648H57.24v-.8H51.048ZM56.76-6.324v-3.54h-.984V-1.8h.984V-5.5h1.6v-.828Zm5.676-2.388v.792H66.48c-.2,2.556-1.644,4.62-4.536,6l.528.8c3.576-1.752,5-4.488,5-7.6Zm7.212-1.164V.888h.984V-9.876ZM81.864-6.84c-1.956-.216-3.828-1.272-3.828-2.58v-.408H77.028v.408c0,1.308-1.9,2.364-3.852,2.58l.336.744A5.428,5.428,0,0,0,77.52-8.22,5.473,5.473,0,0,0,81.528-6.1ZM82.392-4.6v-.792H72.648V-4.6h4.38v1.068h-3.2v.756h6.348v.984H73.86V.768h7.608V0H74.82V-1.068h6.324v-2.46H78.012V-4.6Zm11.52-2.5v1.44h-2.82v.8h2.82v1.416h1V-9.864h-1V-7.9H91.476A6.175,6.175,0,0,0,91.6-9.06h-4.86v.792h3.792c-.18,1.86-1.776,3.288-4.344,4.056l.4.78a6.669,6.669,0,0,0,4.644-3.66ZM91.392.072C89.808.072,88.8-.42,88.8-1.236s1.008-1.3,2.592-1.3,2.592.492,2.592,1.3S92.976.072,91.392.072Zm0-3.384c-2.172,0-3.564.78-3.564,2.076S89.22.84,91.392.84s3.564-.78,3.564-2.076S93.564-3.312,91.392-3.312Zm12.3-2.892h1.356v2.928H106V-9.864h-.948v2.856h-1.356V-9.66h-.924v6.024h.924ZM102.18-4.692A3.168,3.168,0,0,1,100.092-7.7v-.48h1.9v-.792H97.164v.792h1.968v.48a3.564,3.564,0,0,1-2.184,3.3l.54.756a3.994,3.994,0,0,0,2.136-2.364,3.616,3.616,0,0,0,2.04,2.076Zm.264,4.8c-1.608,0-2.616-.432-2.616-1.188s1.008-1.176,2.616-1.176c1.632,0,2.628.432,2.628,1.176S104.076.108,102.444.108Zm0-3.132c-2.208,0-3.588.708-3.588,1.944s1.38,1.956,3.588,1.956,3.6-.72,3.6-1.956S104.664-3.024,102.444-3.024ZM113.472-4.8a24.312,24.312,0,0,1-4.272.252V-6.18h3.648V-9.228H108.2v.8h3.684v1.488H108.24v3.192h.768a24.848,24.848,0,0,0,4.56-.264ZM109.44-1.872h6.216V.9h.984V-2.676h-7.2Zm6.216-7.992V-8.28h-2.1v.8h2.1v1.44h-2.1v.792h2.1v1.992h.984V-9.864Zm11.916.972H124.98V-9.948H124v1.056h-2.6v.744h6.18ZM122.9-6.156c0-.564.612-.912,1.584-.912.948,0,1.572.348,1.572.912s-.624.924-1.572.924C123.516-5.232,122.9-5.592,122.9-6.156ZM127.9-4.092a28.61,28.61,0,0,1-2.916.264v-.744C126.216-4.7,127-5.28,127-6.156c0-.984-1.008-1.6-2.508-1.6-1.524,0-2.52.612-2.52,1.6,0,.888.78,1.464,2.028,1.584v.78c-1.032.036-2.016.036-2.868.036l.108.792a41.059,41.059,0,0,0,6.732-.42Zm-5.46,2.76h6.1V.888h.984v-3h-7.08Zm8.664-5.28h-1.584V-9.864h-.984v7.212h.984V-5.8H131.1Zm3.06.228h5.5V-4.4h-5.5ZM137.4-1.3V-3.612h3.216v-5.5h-.96v1.92h-5.5v-1.92h-.972v5.5H136.4V-1.3h-4.368v.8h9.756v-.8Z" transform="translate(594.577 165.56)"/>
  <g id="그룹_103" data-name="그룹 103" transform="translate(-2749.655 -3352.952)">
    <path id="패스_364" data-name="패스 364" class="cls-5" d="M3365.92,3436.232a4,4,0,1,0-4-4,4,4,0,0,0,4,4"/>
  </g>
  <path id="패스_1264" data-name="패스 1264" class="cls-5" d="M8.232-7.728a22.98,22.98,0,0,1-.408,4.872l.984.108a24.264,24.264,0,0,0,.408-4.98V-8.8H1.668v.8H8.232Zm-2.82,6.3V-5.28H4.428v3.852H.648v.8H10.38v-.8Zm6.576-7.644v.792H15.18C15-6.492,13.764-5.04,11.568-4.14l.48.72c2.724-1.152,4.14-3.084,4.14-5.652ZM13.356-2.22h6.252V.888h.984V-3.024H13.356Zm6.288-7.644v2.7H18.228V-9.672h-.936v6.084h.936V-6.36h1.416v2.82h.948V-9.864Zm9.672,4.536H26.292V-8.364h3.024Zm.96-3.816H25.332v4.608h4.944ZM33.42-2.3V-3.1H26.388V-2.3h3c-.12,1.152-1.644,2.136-3.42,2.4l.36.756A4.929,4.929,0,0,0,29.916-1.26,5.011,5.011,0,0,0,33.468.864L33.84.108c-1.752-.276-3.3-1.284-3.42-2.412ZM33.24-7.3v-2.58h-.984v6.144h.984V-6.48h1.6V-7.3Zm3.384,2.112c1.776-.18,3.348-.8,4.008-1.848.648,1.044,2.22,1.668,4,1.848l.3-.756c-2.028-.18-3.684-.972-3.768-2.148H44.5v-.78H41.124v-1.08H40.14v1.08H36.768v.78h3.324c-.084,1.176-1.74,1.968-3.768,2.148Zm6.72,5.136H37.92V-1.8h5.424Zm2.148-3.708v-.8H35.76v.8h4.38V-2.58H36.96V.744H44.3V-2.58h-3.18V-3.756Zm9-1.44H52.668v.8h1.824v1.464h1V-9.876h-1v2.592H52.68v.792h1.812ZM52.668-8.688H50.2V-9.972h-.984v1.284H46.644V-7.9h6.024ZM48.18-5.352c0-.744.612-1.236,1.512-1.236S51.2-6.1,51.2-5.352,50.592-4.1,49.692-4.1,48.18-4.6,48.18-5.352Zm3.948,0c0-1.2-1.008-1.992-2.436-1.992s-2.436.792-2.436,1.992,1,2,2.436,2S52.128-4.14,52.128-5.352ZM51.96.12c-1.584,0-2.568-.4-2.568-1.08s.984-1.08,2.568-1.08,2.556.384,2.556,1.08S53.544.12,51.96.12Zm0-2.916c-2.232,0-3.588.66-3.588,1.836S49.728.876,51.96.876,55.536.2,55.536-.96,54.18-2.8,51.96-2.8Zm11.2-5.016h1.92v-.8H60.168v.8h2.04v.972A5.616,5.616,0,0,1,59.868-2l.6.732a5.572,5.572,0,0,0,2.22-3.408,5.147,5.147,0,0,0,2.16,3.144l.6-.72A5.215,5.215,0,0,1,63.156-6.84Zm2.88,1.8H64.26v.8h1.776V.324h.936v-9.96h-.936ZM68.2-9.888V.876h.948V-9.888ZM77.064-6.48H74.388V-8.736h2.676Zm-3.66,0H71.82v.792h7.812V-6.48H78.048V-8.736H79.68v-.792h-7.9v.792H73.4ZM78.456-.048H73.032V-1.836h5.424ZM80.6-3.876v-.792H70.872v.792h4.38v1.26h-3.18V.744h7.344v-3.36h-3.18v-1.26Zm12.468-6h-.984V-3.7h.984ZM88.884-5.568H85.776V-8.4h3.108Zm.96-3.612H84.816v4.4h5.028Zm3.48,6.972v-.756H90.168V-4.008h-1v1.044H86.016v.756H89.16C89.148-1.14,87.432-.12,85.6.1l.324.756a5.379,5.379,0,0,0,3.756-1.968,5.3,5.3,0,0,0,3.7,1.968L93.708.1c-1.848-.228-3.528-1.272-3.54-2.3ZM101.4-8.952h-.984V-7.02a5.686,5.686,0,0,1-2.784,4.848l.6.78a5.972,5.972,0,0,0,2.676-3.6,5.766,5.766,0,0,0,2.7,3.408l.576-.78A5.366,5.366,0,0,1,101.4-7.02Zm4.116-.924v3.648h-2.5v.8h2.5V.9h.984V-9.876Zm10.812,0V.9h.984V-9.876Zm-7.212.912V-1.7h5.064v-7.26h-.972V-6.12h-3.12V-8.964Zm.972,3.624h3.12v2.832h-3.12Zm18.564.876c-1.884-.36-3.924-1.992-3.924-3.828V-9.12H123.7v.828c0,1.836-2.028,3.456-3.912,3.828l.444.816a5.911,5.911,0,0,0,3.984-3.108,5.84,5.84,0,0,0,4,3.108Zm-9.276,3.1v.816h9.756v-.816Zm13.8-7.116v.8H136.4a6.518,6.518,0,0,1-3.636,5.556l.576.708a7.528,7.528,0,0,0,4.032-7.068Zm7.776-1.392v4.332h-1.464V-9.588h-.924V.348h.924V-4.74h1.464V.888h.948V-9.876Zm7.14,4.356h-3.048V-7.128h3.048Zm.96-3.912h-.96v1.548h-3.048V-9.432h-.972v4.7h4.98Zm-2.916,8.244h5.844V-3.8h-6.84v.78h5.868v1.1h-5.832V.768h7.2v-.78h-6.24ZM151.98-7.56v-2.3H151v5.556h.984V-6.744h1.6V-7.56Z" transform="translate(625.265 84.56)"/>
  <g id="그룹_104" data-name="그룹 104" transform="translate(-2749.655 -3352.952)">
    <path id="패스_365" data-name="패스 365" class="cls-5" d="M3472.92,3488.232a4,4,0,1,0-4-4,4,4,0,0,0,4,4"/>
  </g>
  <path id="패스_1265" data-name="패스 1265" class="cls-5" d="M3.792-7.812h1.92v-.8H.8v.8h2.04v.972A5.616,5.616,0,0,1,.5-2l.6.732A5.572,5.572,0,0,0,3.324-4.68a5.147,5.147,0,0,0,2.16,3.144l.6-.72A5.215,5.215,0,0,1,3.792-6.84Zm2.88,1.8H4.9v.8H6.672V.324h.936v-9.96H6.672Zm2.16-3.876V.876H9.78V-9.888ZM17.7-6.48H15.024V-8.736H17.7Zm-3.66,0H12.456v.792h7.812V-6.48H18.684V-8.736h1.632v-.792h-7.9v.792h1.62ZM19.092-.048H13.668V-1.836h5.424ZM21.24-3.876v-.792H11.508v.792h4.38v1.26h-3.18V.744h7.344v-3.36h-3.18v-1.26Zm4.824-2.592a1.766,1.766,0,0,1,1.848-1.8,1.766,1.766,0,0,1,1.848,1.8,1.766,1.766,0,0,1-1.848,1.8A1.766,1.766,0,0,1,26.064-6.468Zm4.656,0A2.641,2.641,0,0,0,27.912-9.12,2.641,2.641,0,0,0,25.1-6.468a2.641,2.641,0,0,0,2.808,2.652A2.641,2.641,0,0,0,30.72-6.468ZM27.54-2.76h-.984V.648h7.176v-.8H27.54ZM33.252-6.6V-9.876h-.984v7.92h.984V-5.784h1.6V-6.6Zm8.22-.3v.8h2.16V-1.98h1V-9.864h-1V-6.9Zm.636,2.532a3.7,3.7,0,0,1-2.616-3.3V-8.2h2.364V-9H36.108v.8h2.4v.54A3.923,3.923,0,0,1,35.8-4.128l.516.768a4.594,4.594,0,0,0,2.712-2.676A4.441,4.441,0,0,0,41.616-3.6ZM38.736-.156v-2.52h-1V.648h7.188v-.8ZM57.96-9.876h-.984V-3.7h.984ZM53.772-5.568H50.664V-8.4h3.108Zm.96-3.612H49.7v4.4h5.028Zm3.48,6.972v-.756H55.056V-4.008h-1v1.044H50.9v.756h3.144C54.036-1.14,52.32-.12,50.484.1l.324.756a5.379,5.379,0,0,0,3.756-1.968A5.3,5.3,0,0,0,58.26.852L58.6.1c-1.848-.228-3.528-1.272-3.54-2.3ZM71.364-9.876H70.38v7.9h.984ZM69.012-4.512a3.993,3.993,0,0,1-2.688-3.672V-9.276H65.34v1.092a4.194,4.194,0,0,1-2.7,3.864l.516.8A4.829,4.829,0,0,0,65.844-6.4,4.64,4.64,0,0,0,68.5-3.732ZM65.424-.156V-2.712H64.44V.648h7.248v-.8ZM77.46-3.888h2.46v-.78h-4.7V-6.036h4.4V-8.88h-5.4v.78h4.428v1.32H74.256v2.892h2.22v1.824c-1.056.036-2.088.036-3.012.036l.12.828a47.66,47.66,0,0,0,6.972-.408l-.072-.72c-.972.12-1.992.18-3.024.228Zm3.72-6V.912h.984v-10.8ZM92.136-3.5h1v-6.36h-1v2.28H89.8v.8h2.34Zm-1.56-1.272A3.691,3.691,0,0,1,87.96-8.2V-9.264h-.984v1.1a3.922,3.922,0,0,1-2.724,3.672l.516.8A4.552,4.552,0,0,0,87.492-6.42a4.406,4.406,0,0,0,2.556,2.412ZM89.58.1c-1.62,0-2.6-.468-2.6-1.248s.984-1.26,2.6-1.26,2.6.468,2.6,1.26S91.2.1,89.58.1Zm0-3.276c-2.208,0-3.588.732-3.588,2.028S87.372.876,89.58.876s3.576-.744,3.576-2.028S91.788-3.18,89.58-3.18Zm8.544-5.892v.792h3.9c-.18,1.86-1.8,3.324-4.356,4.08l.4.792c3.12-.924,5.028-2.928,5.028-5.664ZM102.624.1c-1.548,0-2.532-.492-2.532-1.308s.984-1.32,2.532-1.32,2.532.492,2.532,1.32S104.172.1,102.624.1Zm0-3.4c-2.124,0-3.5.78-3.5,2.088s1.38,2.088,3.5,2.088,3.5-.792,3.5-2.088S104.748-3.3,102.624-3.3ZM106-7.092V-9.876h-.984v6.432H106V-6.276h1.6v-.816Zm9.012-1.476H112.3v-1.3h-.984v1.3h-2.736v.78h6.432ZM110.2-5.16c0-.744.648-1.236,1.608-1.236s1.608.492,1.608,1.236-.648,1.224-1.608,1.224S110.2-4.416,110.2-5.16Zm2.1,1.968a2.058,2.058,0,0,0,2.052-1.968c0-1.212-1.044-1.992-2.544-1.992s-2.544.78-2.544,1.992a2.058,2.058,0,0,0,2.052,1.968v1.176c-1.044.036-2.052.036-2.916.036l.132.828a39.728,39.728,0,0,0,6.72-.432l-.06-.732a28.136,28.136,0,0,1-2.892.264ZM118.488-5.3h-1.68V-9.876h-.984V.888h.984V-4.476h1.68Z" transform="translate(592.609 136.56)"/>
  <g id="그룹_105" data-name="그룹 105" transform="translate(-2749.655 -3352.952)">
    <path id="패스_366" data-name="패스 366" class="cls-11" d="M3161.92,3376.45"/>
  </g>
  <path id="패스_367" data-name="패스 367" class="cls-12" d="M3161.92,3376.45" transform="translate(-2749.655 -3352.952)"/>
  <g id="그룹_106" data-name="그룹 106" transform="translate(-2749.655 -3352.952)">
    <path id="패스_368" data-name="패스 368" class="cls-11" d="M2957.67,3377.952"/>
  </g>
  <path id="패스_369" data-name="패스 369" class="cls-12" d="M2957.67,3377.952" transform="translate(-2749.655 -3352.952)"/>
  <line id="선_744" data-name="선 744" class="cls-9" y2="476" transform="translate(411.765 25.5)"/>
  <path id="패스_370" data-name="패스 370" class="cls-13" d="M2777.92,3377.952v476h767" transform="translate(-2749.655 -3352.952)"/>
  <line id="선_745" data-name="선 745" class="cls-14" x2="610.791" transform="translate(27.765 519.5)"/>
  <path id="패스_371" data-name="패스 371" class="cls-14" d="M3384.743,3869.229l3.467,3.224-3.467,3.223" transform="translate(-2749.655 -3352.952)"/>
  <line id="선_746" data-name="선 746" class="cls-14" y1="338.633" transform="translate(8.515 160.865)"/>
  <path id="패스_372" data-name="패스 372" class="cls-14" d="M2754.946,3517.284l3.224-3.467,3.223,3.467" transform="translate(-2749.655 -3352.952)"/>
</svg>
