<svg id="구성_요소_54_1" data-name="구성 요소 54 – 1" xmlns="http://www.w3.org/2000/svg" width="836" height="252" viewBox="0 0 836 252">
  <defs>
    <style>
      .cls-1 {
        fill: #f5f6f7;
      }

      .cls-2 {
        fill: none;
        stroke: #685239;
        stroke-width: 0.5px;
      }

      .cls-3 {
        fill: #fff;
      }

      .cls-4 {
        font-size: 13px;
        font-family: NotoSansKR-Light, Noto Sans KR;
        font-weight: 300;
      }

      .cls-5 {
        fill: #99691d;
      }

      .cls-6 {
        fill: #d6a803;
      }

      .cls-7 {
        fill: #685239;
      }
    </style>
  </defs>
  <rect id="사각형_111" data-name="사각형 111" class="cls-1" width="836" height="252"/>
  <line id="선_315" data-name="선 315" class="cls-2" y2="147.375" transform="translate(417.12 26.803)"/>
  <line id="선_316" data-name="선 316" class="cls-2" x1="138.16" transform="translate(279.182 105.331)"/>
  <path id="패스_212" data-name="패스 212" class="cls-2" d="M9002.343,3560.17v-21.458h-591.3v21.458" transform="translate(-8289.571 -3386.992)"/>
  <rect id="사각형_112" data-name="사각형 112" class="cls-3" width="110.38" height="46.5" transform="translate(66.25 173.428)"/>
  <rect id="사각형_113" data-name="사각형 113" class="cls-2" width="110.38" height="46.5" transform="translate(66.25 173.428)"/>
  <path id="패스_23747" data-name="패스 23747" d="M2.158-8.827H3.965c1.638,0,2.548.507,2.548,1.885S5.6-4.927,3.965-4.927H2.158ZM7.5,0,4.94-4.342a2.493,2.493,0,0,0,2.366-2.6c0-1.846-1.274-2.535-3.159-2.535H1.378V0h.78V-4.277H4.095L6.617,0Zm1.43-2.457a3,3,0,0,1,1.456-2.184,14.151,14.151,0,0,0,2.665,3.224,3,3,0,0,1-2.041.949A1.978,1.978,0,0,1,8.931-2.457Zm1.209-5.07a1.365,1.365,0,0,1,1.3-1.521c.741,0,1.014.572,1.014,1.183,0,.949-.858,1.6-1.807,2.275A4.775,4.775,0,0,1,10.14-7.527ZM15.847-.481a6.864,6.864,0,0,1-1.82-1.04A10.633,10.633,0,0,0,15.7-4.992h-.715A8.957,8.957,0,0,1,13.52-1.95a12.482,12.482,0,0,1-2.587-3.107C12-5.863,13.1-6.669,13.1-7.9a1.584,1.584,0,0,0-1.638-1.742A2,2,0,0,0,9.451-7.514a5.507,5.507,0,0,0,.637,2.327C9.1-4.472,8.164-3.666,8.164-2.418A2.584,2.584,0,0,0,10.933.169,3.653,3.653,0,0,0,13.559-.988,6.7,6.7,0,0,0,15.613.169ZM17.173,0h2.249c2.9,0,4.329-1.872,4.329-4.771s-1.43-4.706-4.342-4.706H17.173Zm.78-.663V-8.827h1.378c2.5,0,3.6,1.6,3.6,4.056s-1.1,4.108-3.6,4.108Zm16.718-9.971h-.663v8.671h.663ZM31.785-2.288h.663v-8.086h-.663v2.821H29.718v.585h2.067ZM30.693-4.576a3.892,3.892,0,0,1-2.418-3.393V-9.8h-.65v1.833a4.509,4.509,0,0,1-2.483,3.7l.39.546A4.984,4.984,0,0,0,27.95-6.63a4.474,4.474,0,0,0,2.366,2.6ZM27.976.039V-3.042h-.689V.624h7.774V.039Zm9.958-2.587V-5.681h4.082v-.585H37.934V-8.944h4.641v-.6h-5.33v7.579H38.1a26.3,26.3,0,0,0,5.356-.39l-.065-.585a24.672,24.672,0,0,1-5.291.39Zm7.488-8.1v4.524H42.77v.6h2.652V.923h.689v-11.57Z" transform="translate(97.488 193.898)"/>
  <text id="_" data-name="" class="cls-4" transform="translate(145.394 193.898)"><tspan x="0" y="0"></tspan></text>
  <path id="패스_23746" data-name="패스 23746" d="M1.443-9.36v.585H6.058C5.876-5.928,4.121-3.471.949-1.937l.377.572c3.718-1.833,5.421-4.771,5.421-8Zm7.995-1.274V.91h.689V-10.634ZM22.269-7.111c-1.781-.221-4.264-1.313-4.264-2.925v-.546h-.7v.546c0,1.612-2.483,2.7-4.264,2.925l.247.546c1.651-.247,3.679-1.092,4.368-2.457.676,1.365,2.691,2.21,4.355,2.457Zm.6,2.041v-.572H12.428v.572H17.3v1.391H13.741v.559h7.072v1.313H13.767V.741h8.1V.169H14.443V-1.274h7.046v-2.4h-3.5V-5.07Zm1.976-4.29v.585h4.615c-.182,2.847-1.937,5.3-5.109,6.838l.377.572c3.718-1.833,5.421-4.771,5.421-8Zm7.995-1.274V.91h.689V-10.634Zm10.205,1.17H40.014v-1.261h-.689v1.261H36.3v.546h6.747ZM37.661-6.682c0-.7.806-1.183,2.015-1.183S41.7-7.384,41.7-6.682s-.806,1.2-2.028,1.2S37.661-5.967,37.661-6.682Zm5.759,2.3c-1.079.156-2.249.247-3.406.3v-.9c1.43-.091,2.34-.7,2.34-1.7,0-1.04-1.066-1.69-2.678-1.69s-2.665.65-2.665,1.69c0,1,.91,1.612,2.314,1.7v.923C38.09-4,36.907-4,35.906-4l.1.585a49.407,49.407,0,0,0,7.449-.442ZM37.583-1.794h6.9V.9h.689V-2.366H37.583Zm6.9-8.814v7.644h.689v-7.644Zm10.2,5.135a29.847,29.847,0,0,1-5.577.351h-.208V-6.994h4.472v-.572H48.906V-9.334H53.69v-.585H48.217V-4.55h.9A30.119,30.119,0,0,0,54.782-4.9Zm-4.42,2.951h5.98V.143h-5.98ZM49.6.728h7.332V-3.094H49.6Zm6.643-11.362v6.9h.689v-6.9Z" transform="translate(92.067 210.395)"/>
  <rect id="사각형_114" data-name="사각형 114" class="cls-3" width="110.38" height="46.5" transform="translate(361.93 173.428)"/>
  <rect id="사각형_115" data-name="사각형 115" class="cls-2" width="110.38" height="46.5" transform="translate(361.93 173.428)"/>
  <path id="패스_23749" data-name="패스 23749" d="M5.941-9.568c1.924,0,3.263.767,3.263,1.9S7.865-5.759,5.941-5.759s-3.25-.78-3.25-1.911S4.03-9.568,5.941-9.568Zm0,4.381c2.379,0,3.965-.962,3.965-2.483S8.32-10.14,5.941-10.14s-3.952.949-3.952,2.47S3.562-5.187,5.941-5.187Zm5.265,1.209H.728v.585H3.614V.9h.7v-4.29H7.579V.9h.7v-4.29h2.925Zm11.661-.884H21.06A18.536,18.536,0,0,0,21.4-8.853v-.988H13.806v.572h6.916v.416a16.615,16.615,0,0,1-.377,3.991H12.428v.585H17.3v5.2h.689v-5.2h4.875Zm9.659-4.147a10.286,10.286,0,0,1-.312,2.938l.663.091a10.846,10.846,0,0,0,.312-3.029v-1H25.415v.585h7.111ZM29.328.312c-1.963,0-3.289-.6-3.289-1.521s1.326-1.534,3.289-1.534,3.3.611,3.3,1.534S31.291.312,29.328.312Zm0-3.614c-2.444,0-3.978.78-3.978,2.093S26.884.871,29.328.871,33.306.1,33.306-1.209,31.772-3.3,29.328-3.3Zm.039-1.833v-2.34h-.689v2.34H24.154v.585H34.567v-.585Zm13.052.286a4.016,4.016,0,0,1-2.886-3.523v-.78h2.73v-.572H36.114v.572h2.743v.793a4.3,4.3,0,0,1-2.99,3.822l.364.546a5.044,5.044,0,0,0,2.99-3.016,4.715,4.715,0,0,0,2.86,2.7ZM41.093.312c-1.846,0-3.042-.572-3.042-1.495s1.2-1.5,3.042-1.5,3.055.572,3.055,1.5S42.952.312,41.093.312Zm0-3.549c-2.314,0-3.718.741-3.718,2.054S38.779.871,41.093.871,44.824.13,44.824-1.183,43.407-3.237,41.093-3.237Zm3.64-4.3v-3.094h-.689v7.02h.689V-6.942H46.54v-.6Z" transform="translate(393.591 193.898)"/>
  <text id="_2" data-name="" class="cls-4" transform="translate(440.65 193.898)"><tspan x="0" y="0"></tspan></text>
  <path id="패스_23750" data-name="패스 23750" d="M9.126-9.009a10.286,10.286,0,0,1-.312,2.938l.663.091a10.846,10.846,0,0,0,.312-3.029v-1H2.015v.585H9.126ZM5.928.312c-1.963,0-3.289-.6-3.289-1.521S3.965-2.743,5.928-2.743s3.3.611,3.3,1.534S7.891.312,5.928.312Zm0-3.614c-2.444,0-3.978.78-3.978,2.093S3.484.871,5.928.871,9.906.1,9.906-1.209,8.372-3.3,5.928-3.3Zm.039-1.833v-2.34H5.278v2.34H.754v.585H11.167v-.585Zm13.052.286a4.016,4.016,0,0,1-2.886-3.523v-.78h2.73v-.572H12.714v.572h2.743v.793a4.3,4.3,0,0,1-2.99,3.822l.364.546a5.044,5.044,0,0,0,2.99-3.016,4.715,4.715,0,0,0,2.86,2.7ZM17.693.312c-1.846,0-3.042-.572-3.042-1.495s1.2-1.5,3.042-1.5,3.055.572,3.055,1.5S19.552.312,17.693.312Zm0-3.549c-2.314,0-3.718.741-3.718,2.054S15.379.871,17.693.871,21.424.13,21.424-1.183,20.007-3.237,17.693-3.237Zm3.64-4.3v-3.094h-.689v7.02h.689V-6.942H23.14v-.6Zm8.788,1.807a15.707,15.707,0,0,0,.325-3.432V-9.7H24.83v.572h4.94A14.288,14.288,0,0,1,29.432-5.8Zm1.313.819a39.346,39.346,0,0,1-3.991.325V-7.2h-.689v2.639c-.949.026-1.846.026-2.639.026l.091.611a50.149,50.149,0,0,0,7.28-.455ZM26.624-2.73h-.689V.624h7.423V.039H26.624Zm6.357-4.017v-3.887h-.689v8.723h.689V-6.149H34.8v-.6Zm4.238,4.225V-5.6h4.55V-9.516H36.491v.6h4.6v2.73H36.53v4.251h.923a35.493,35.493,0,0,0,5.889-.429l-.065-.585a36.28,36.28,0,0,1-5.824.429Zm7.306-8.112V.923h.689V-10.634ZM54.691-5.473a29.847,29.847,0,0,1-5.577.351h-.208V-6.994h4.472v-.572H48.906V-9.334H53.69v-.585H48.217V-4.55h.9A30.119,30.119,0,0,0,54.782-4.9Zm-4.42,2.951h5.98V.143h-5.98ZM49.6.728h7.332V-3.094H49.6Zm6.643-11.362v6.9h.689v-6.9Z" transform="translate(387.74 210.395)"/>
  <rect id="사각형_116" data-name="사각형 116" class="cls-3" width="110.38" height="46.5" transform="translate(657.609 173.428)"/>
  <rect id="사각형_117" data-name="사각형 117" class="cls-2" width="110.38" height="46.5" transform="translate(657.609 173.428)"/>
  <path id="패스_23753" data-name="패스 23753" d="M4.329-8.853H7.54v4.082H4.329ZM6.279-1.2v-2.99h3.874v-.585H8.229V-8.853h1.924v-.585H1.716v.585H3.653v4.082H1.729v.585H5.59V-1.2H.728v.585H11.219V-1.2ZM18.512-6.968v.585h2.639v4.407h.689v-8.658h-.689v3.666ZM19.2-4.29a4.1,4.1,0,0,1-3.016-3.575v-.546H18.9v-.572H16.2v-1.6h-.689v1.6H12.766v.572h2.743v.546a4.243,4.243,0,0,1-2.964,3.8l.351.546A4.887,4.887,0,0,0,15.86-6.487a4.974,4.974,0,0,0,2.977,2.743ZM15.314.039V-2.769h-.689V.624h7.566V.039ZM32.526-9.009a10.286,10.286,0,0,1-.312,2.938l.663.091a10.846,10.846,0,0,0,.312-3.029v-1H25.415v.585h7.111ZM29.328.312c-1.963,0-3.289-.6-3.289-1.521s1.326-1.534,3.289-1.534,3.3.611,3.3,1.534S31.291.312,29.328.312Zm0-3.614c-2.444,0-3.978.78-3.978,2.093S26.884.871,29.328.871,33.306.1,33.306-1.209,31.772-3.3,29.328-3.3Zm.039-1.833v-2.34h-.689v2.34H24.154v.585H34.567v-.585Zm13.052.286a4.016,4.016,0,0,1-2.886-3.523v-.78h2.73v-.572H36.114v.572h2.743v.793a4.3,4.3,0,0,1-2.99,3.822l.364.546a5.044,5.044,0,0,0,2.99-3.016,4.715,4.715,0,0,0,2.86,2.7ZM41.093.312c-1.846,0-3.042-.572-3.042-1.495s1.2-1.5,3.042-1.5,3.055.572,3.055,1.5S42.952.312,41.093.312Zm0-3.549c-2.314,0-3.718.741-3.718,2.054S38.779.871,41.093.871,44.824.13,44.824-1.183,43.407-3.237,41.093-3.237Zm3.64-4.3v-3.094h-.689v7.02h.689V-6.942H46.54v-.6Z" transform="translate(689.271 202.398)"/>
  <rect id="사각형_118" data-name="사각형 118" class="cls-5" width="153.333" height="30" transform="translate(340.454 90.331)"/>
  <rect id="사각형_119" data-name="사각형 119" class="cls-6" width="122" height="30" transform="translate(159.6 90.33)"/>
  <path id="패스_23744" data-name="패스 23744" class="cls-3" d="M6.855-.03c-1.98,0-3.09-.435-3.09-1.275S4.875-2.58,6.855-2.58,9.96-2.13,9.96-1.3,8.835-.03,6.855-.03Zm0-3.735c-2.895,0-4.665.9-4.665,2.46S3.96,1.17,6.855,1.17c2.91,0,4.665-.9,4.665-2.475S9.765-3.765,6.855-3.765Zm.81-2.085V-7.2H11.61V-8.445H3.825V-10.56h7.7v-1.23H2.3V-7.2H6.12v1.35H.78v1.26H13.02V-5.85Zm18.24-4.7H21.15V-12.21H19.6v1.665H14.82V-9.3H25.905ZM17.43-5.925c0-.885,1.08-1.395,2.925-1.395,1.86,0,2.94.51,2.94,1.395,0,.9-1.08,1.41-2.94,1.41C18.51-4.515,17.43-5.025,17.43-5.925ZM21.15-1.59V-3.33c2.325-.18,3.72-1.095,3.72-2.6,0-1.635-1.74-2.6-4.515-2.6-2.76,0-4.5.96-4.5,2.6,0,1.5,1.425,2.43,3.75,2.6v1.74H14.25V-.315H26.535V-1.59ZM36.3-10.815H32.985v-1.56H31.44v1.56H28.11V-9.57H36.3ZM30.375-6.39c0-.825.75-1.335,1.845-1.335,1.08,0,1.83.51,1.83,1.335s-.75,1.35-1.83,1.35C31.125-5.04,30.375-5.55,30.375-6.39Zm2.61,2.475c1.53-.24,2.535-1.155,2.535-2.475,0-1.515-1.35-2.52-3.3-2.52-1.965,0-3.315,1-3.315,2.52,0,1.3,1,2.235,2.535,2.475v1.32c-1.275.045-2.52.045-3.6.045l.195,1.275A52.712,52.712,0,0,0,36.69-1.83l-.105-1.125c-1.155.165-2.385.24-3.6.315Zm4.365-8.49V1.155h1.56v-13.56ZM50.43-.015c-1.98,0-3.09-.42-3.09-1.215s1.11-1.215,3.09-1.215,3.1.42,3.1,1.215S52.425-.015,50.43-.015Zm0-3.6c-2.91,0-4.65.855-4.65,2.385s1.74,2.385,4.65,2.385S55.1.3,55.1-1.23,53.355-3.615,50.43-3.615Zm-2.985-5.88h6.03v1.3h-6.03Zm3.78,3.78V-6.96h3.78v-5.055h-1.53v1.335h-6.03v-1.335h-1.53V-6.96h3.75v1.245H44.31V-4.47H56.6V-5.715Zm11.355-5.55H61.035v2.22A6.856,6.856,0,0,1,57.6-2.94l.945,1.245a7,7,0,0,0,3.27-4.245,6.747,6.747,0,0,0,3.12,3.99l.945-1.23a6.573,6.573,0,0,1-3.3-5.865ZM70.44-7.02H68.325v-5.37H66.78V1.155h1.545v-6.9H70.44Z" transform="translate(184.751 111.931)"/>
  <path id="패스_23745" data-name="패스 23745" class="cls-3" d="M12.33-11.325H7.665v-1.23H6.105v1.23H1.365v1.185H12.33ZM6.855.03C4.83.03,3.78-.285,3.78-.93s1.05-.96,3.075-.96,3.09.315,3.09.96S8.895.03,6.855.03Zm0-3.045C3.9-3.015,2.19-2.3,2.19-.93S3.9,1.155,6.855,1.155,11.52.435,11.52-.93,9.825-3.015,6.855-3.015ZM4.08-7.74c0-.6.96-.87,2.8-.87,1.83,0,2.805.27,2.805.87,0,.585-.975.885-2.805.885C5.04-6.855,4.08-7.155,4.08-7.74Zm3.585,2.8V-5.82c2.355-.12,3.66-.765,3.66-1.92,0-1.29-1.59-1.95-4.44-1.95S2.43-9.03,2.43-7.74c0,1.155,1.3,1.8,3.675,1.92v.885H.75V-3.72H13.005V-4.935Zm9.51-3.03h6.42v2.22h-6.42Zm3.975,6.2V-4.5h3.975v-6.99h-1.53v2.28h-6.42v-2.28h-1.53V-4.5H19.6v2.73h-5.34V-.5h12.27V-1.77ZM36.03-6.645a33.79,33.79,0,0,1-5.955.36v-1.47h4.56V-8.97h-4.56v-1.395h4.95V-11.61h-6.48v6.555H29.67a38.074,38.074,0,0,0,6.51-.36ZM31.59-2.46h5.835V-.24H31.59ZM30.075.99H38.94V-3.69H30.075Zm7.32-13.38v8.07H38.94v-8.07Z" transform="translate(398.605 111.931)"/>
  <line id="선_317" data-name="선 317" class="cls-2" y1="21.708" transform="translate(564.951 151.47)"/>
  <line id="선_318" data-name="선 318" class="cls-2" y1="22.708" transform="translate(269.291 151.47)"/>
  <rect id="사각형_120" data-name="사각형 120" class="cls-3" width="110.38" height="46.5" transform="translate(214.09 173.428)"/>
  <rect id="사각형_121" data-name="사각형 121" class="cls-2" width="110.38" height="46.5" transform="translate(214.09 173.428)"/>
  <path id="패스_23748" data-name="패스 23748" d="M2.821-2.548H2.132V.624h7.891V.039h-7.2Zm.013-5.395H9.1v1.768H2.834ZM6.305-4.225V-5.616H9.789v-4.55H9.1v1.651H2.834v-1.651H2.145v4.55H5.616v1.391H.728v.585H11.167v-.585Zm9.763-5.356H15.4v2.314a6.388,6.388,0,0,1-3.081,5.1l.429.559a7.085,7.085,0,0,0,3-4.069,6.705,6.705,0,0,0,2.99,3.822l.429-.533a6.134,6.134,0,0,1-3.107-4.875Zm7.176,3.757H21.216v-4.823h-.689V.91h.689V-5.239h2.028Z" transform="translate(257.45 202.398)"/>
  <rect id="사각형_122" data-name="사각형 122" class="cls-3" width="110.38" height="46.5" transform="translate(509.77 173.428)"/>
  <rect id="사각형_123" data-name="사각형 123" class="cls-2" width="110.38" height="46.5" transform="translate(509.77 173.428)"/>
  <path id="패스_23751" data-name="패스 23751" d="M10.127-10.621H9.438v8.515h.689Zm-8.4,3.614A2.172,2.172,0,0,1,3.991-9.178,2.172,2.172,0,0,1,6.253-7.007a2.185,2.185,0,0,1-2.262,2.2A2.185,2.185,0,0,1,1.729-7.007Zm5.187,0A2.75,2.75,0,0,0,3.991-9.789,2.75,2.75,0,0,0,1.066-7.007,2.763,2.763,0,0,0,3.991-4.2,2.763,2.763,0,0,0,6.916-7.007ZM3.562.039V-3H2.873V.624h7.644V.039Zm14.95-7.007v.585h2.639v4.407h.689v-8.658h-.689v3.666ZM19.2-4.29a4.1,4.1,0,0,1-3.016-3.575v-.546H18.9v-.572H16.2v-1.6h-.689v1.6H12.766v.572h2.743v.546a4.243,4.243,0,0,1-2.964,3.8l.351.546A4.887,4.887,0,0,0,15.86-6.487a4.974,4.974,0,0,0,2.977,2.743ZM15.314.039V-2.769h-.689V.624h7.566V.039ZM32.526-9.009a10.286,10.286,0,0,1-.312,2.938l.663.091a10.846,10.846,0,0,0,.312-3.029v-1H25.415v.585h7.111ZM29.328.312c-1.963,0-3.289-.6-3.289-1.521s1.326-1.534,3.289-1.534,3.3.611,3.3,1.534S31.291.312,29.328.312Zm0-3.614c-2.444,0-3.978.78-3.978,2.093S26.884.871,29.328.871,33.306.1,33.306-1.209,31.772-3.3,29.328-3.3Zm.039-1.833v-2.34h-.689v2.34H24.154v.585H34.567v-.585Zm13.052.286a4.016,4.016,0,0,1-2.886-3.523v-.78h2.73v-.572H36.114v.572h2.743v.793a4.3,4.3,0,0,1-2.99,3.822l.364.546a5.044,5.044,0,0,0,2.99-3.016,4.715,4.715,0,0,0,2.86,2.7ZM41.093.312c-1.846,0-3.042-.572-3.042-1.495s1.2-1.5,3.042-1.5,3.055.572,3.055,1.5S42.952.312,41.093.312Zm0-3.549c-2.314,0-3.718.741-3.718,2.054S38.779.871,41.093.871,44.824.13,44.824-1.183,43.407-3.237,41.093-3.237Zm3.64-4.3v-3.094h-.689v7.02h.689V-6.942H46.54v-.6Z" transform="translate(541.431 193.898)"/>
  <text id="_3" data-name="" class="cls-4" transform="translate(588.49 193.898)"><tspan x="0" y="0"></tspan></text>
  <path id="패스_23752" data-name="패스 23752" d="M9.126-9.009a10.286,10.286,0,0,1-.312,2.938l.663.091a10.846,10.846,0,0,0,.312-3.029v-1H2.015v.585H9.126ZM5.928.312c-1.963,0-3.289-.6-3.289-1.521S3.965-2.743,5.928-2.743s3.3.611,3.3,1.534S7.891.312,5.928.312Zm0-3.614c-2.444,0-3.978.78-3.978,2.093S3.484.871,5.928.871,9.906.1,9.906-1.209,8.372-3.3,5.928-3.3Zm.039-1.833v-2.34H5.278v2.34H.754v.585H11.167v-.585Zm13.052.286a4.016,4.016,0,0,1-2.886-3.523v-.78h2.73v-.572H12.714v.572h2.743v.793a4.3,4.3,0,0,1-2.99,3.822l.364.546a5.044,5.044,0,0,0,2.99-3.016,4.715,4.715,0,0,0,2.86,2.7ZM17.693.312c-1.846,0-3.042-.572-3.042-1.495s1.2-1.5,3.042-1.5,3.055.572,3.055,1.5S19.552.312,17.693.312Zm0-3.549c-2.314,0-3.718.741-3.718,2.054S15.379.871,17.693.871,21.424.13,21.424-1.183,20.007-3.237,17.693-3.237Zm3.64-4.3v-3.094h-.689v7.02h.689V-6.942H23.14v-.6Zm8.788,1.807a15.707,15.707,0,0,0,.325-3.432V-9.7H24.83v.572h4.94A14.288,14.288,0,0,1,29.432-5.8Zm1.313.819a39.346,39.346,0,0,1-3.991.325V-7.2h-.689v2.639c-.949.026-1.846.026-2.639.026l.091.611a50.149,50.149,0,0,0,7.28-.455ZM26.624-2.73h-.689V.624h7.423V.039H26.624Zm6.357-4.017v-3.887h-.689v8.723h.689V-6.149H34.8v-.6Zm4.238,4.225V-5.6h4.55V-9.516H36.491v.6h4.6v2.73H36.53v4.251h.923a35.493,35.493,0,0,0,5.889-.429l-.065-.585a36.28,36.28,0,0,1-5.824.429Zm7.306-8.112V.923h.689V-10.634ZM54.691-5.473a29.847,29.847,0,0,1-5.577.351h-.208V-6.994h4.472v-.572H48.906V-9.334H53.69v-.585H48.217V-4.55h.9A30.119,30.119,0,0,0,54.782-4.9Zm-4.42,2.951h5.98V.143h-5.98ZM49.6.728h7.332V-3.094H49.6Zm6.643-11.362v6.9h.689v-6.9Z" transform="translate(535.581 209.901)"/>
  <rect id="사각형_124" data-name="사각형 124" class="cls-7" width="212.833" height="32.75" transform="translate(313.579 26.553)"/>
  <rect id="사각형_125" data-name="사각형 125" class="cls-3" width="212.833" height="29.5" transform="translate(307.579 26.804)"/>
  <rect id="사각형_126" data-name="사각형 126" class="cls-2" width="212.833" height="29.5" transform="translate(307.579 26.804)"/>
  <path id="패스_23743" data-name="패스 23743" class="cls-7" d="M8.52-6.615a26.479,26.479,0,0,1-5.655.435v-3.84H7.35v-1.26H1.32V-4.9h1.1A28.107,28.107,0,0,0,8.67-5.37Zm-4.2,3.03H2.76V.9h9.12V-.36H4.32ZM11.34-8.52v-3.885H9.8v9.81H11.34v-4.65h1.92V-8.52ZM22.215-6.015A4.189,4.189,0,0,1,19.02-9.93v-.255h2.835V-11.43H14.58v1.245h2.88v.27a4.611,4.611,0,0,1-3.315,4.32l.78,1.215a5.513,5.513,0,0,0,3.36-3.15,5.087,5.087,0,0,0,3.18,2.715ZM20.475-.06c-1.89,0-2.985-.48-2.985-1.35,0-.885,1.095-1.35,2.985-1.35S23.46-2.3,23.46-1.41C23.46-.54,22.365-.06,20.475-.06Zm0-3.915c-2.79,0-4.515.945-4.515,2.565,0,1.6,1.725,2.565,4.515,2.565S24.99.2,24.99-1.41C24.99-3.03,23.265-3.975,20.475-3.975ZM24.84-9.09v-3.3H23.3v8.1H24.84V-7.815h1.92V-9.09ZM35.85.2a4.359,4.359,0,0,0,3.435-1.59l-.93-1.1A3.217,3.217,0,0,1,35.91-1.32c-1.95,0-3.18-1.605-3.18-4.23,0-2.595,1.32-4.185,3.225-4.185a2.936,2.936,0,0,1,2.16.99l.945-1.11a4.255,4.255,0,0,0-3.135-1.395c-2.79,0-4.98,2.16-4.98,5.76S33.075.2,35.85.2ZM40.935,0h6.69V-1.47h-4.95V-5.04h4.05V-6.51h-4.05V-9.585H47.46V-11.04H40.935ZM53.85.2c2.835,0,4.815-2.2,4.815-5.76s-1.98-5.685-4.815-5.685-4.8,2.13-4.8,5.685S51.015.2,53.85.2Zm0-1.515c-1.83,0-3.015-1.65-3.015-4.245s1.185-4.17,3.015-4.17,3.03,1.575,3.03,4.17S55.68-1.32,53.85-1.32Z" transform="translate(383.846 48.154)"/>
</svg>
