<svg id="구성_요소_44_1" data-name="구성 요소 44 – 1" xmlns="http://www.w3.org/2000/svg" width="836" height="285.68" viewBox="0 0 836 285.68">
  <defs>
    <style>
      .cls-1 {
        fill: #f5f6f7;
      }

      .cls-2 {
        fill: #fcf1db;
      }

      .cls-3 {
        fill: #e6e6e6;
      }

      .cls-4 {
        fill: none;
        stroke: #685239;
        stroke-width: 0.5px;
      }

      .cls-5 {
        fill: #fff;
      }

      .cls-6 {
        fill: #d6a803;
      }

      .cls-7 {
        fill: #685239;
      }
    </style>
  </defs>
  <rect id="사각형_166" data-name="사각형 166" class="cls-1" width="836" height="285.68"/>
  <rect id="사각형_167" data-name="사각형 167" class="cls-2" width="633" height="82" transform="translate(20 165.957)"/>
  <rect id="사각형_168" data-name="사각형 168" class="cls-3" width="144" height="82" transform="translate(672 165.957)"/>
  <line id="선_423" data-name="선 423" class="cls-4" y2="137.375" transform="translate(417.12 39.402)"/>
  <path id="패스_363" data-name="패스 363" class="cls-4" d="M6566.749,2914.958V2893.5H5922.132v21.458" transform="translate(-5826.44 -2739.18)"/>
  <rect id="사각형_169" data-name="사각형 169" class="cls-5" width="110.38" height="29.5" transform="translate(40.25 176.027)"/>
  <rect id="사각형_170" data-name="사각형 170" class="cls-4" width="110.38" height="29.5" transform="translate(40.25 176.027)"/>
  <path id="패스_23708" data-name="패스 23708" d="M1.2,0H6.084V-.663H4.108V-9.477H3.5a5.441,5.441,0,0,1-1.807.6v.507H3.341V-.663H1.2ZM15.808-6.318H9.542V-8.073h6.266Zm.689-3.965h-.689v1.638H9.542v-1.638H8.853v4.55H16.5ZM9.5-2.483H8.827V.624h7.917V.039H9.5ZM7.423-4.42v.572h4.94v2.483h.689V-3.848h4.862V-4.42ZM25.09-4.2a28.886,28.886,0,0,0,.351-4.68v-.429H19.669v.572h5.1A27.336,27.336,0,0,1,24.4-4.264ZM22.36-6.006h-.676v3.627c-.949.026-1.859.026-2.678.026l.117.611a54.169,54.169,0,0,0,7.293-.429l-.052-.52a39.467,39.467,0,0,1-4,.286Zm7.527.3H27.859v-4.94H27.17V.91h.689V-5.083h2.028Z" transform="translate(80.263 196.498)"/>
  <rect id="사각형_171" data-name="사각형 171" class="cls-5" width="110.38" height="29.5" transform="translate(362.81 176.027)"/>
  <rect id="사각형_172" data-name="사각형 172" class="cls-4" width="110.38" height="29.5" transform="translate(362.81 176.027)"/>
  <path id="패스_23710" data-name="패스 23710" d="M3.354.169a2.651,2.651,0,0,0,2.86-2.678,2.47,2.47,0,0,0-2.08-2.444v-.065a2.365,2.365,0,0,0,1.742-2.34,2.306,2.306,0,0,0-2.561-2.3A3.682,3.682,0,0,0,.78-8.541l.442.52a2.973,2.973,0,0,1,2.08-1A1.659,1.659,0,0,1,5.1-7.306c0,1.131-.728,2.028-2.808,2.028v.637c2.262,0,3.146.858,3.146,2.132A1.973,1.973,0,0,1,3.328-.481a3.242,3.242,0,0,1-2.5-1.157L.4-1.131A3.833,3.833,0,0,0,3.354.169ZM15.808-6.318H9.542V-8.073h6.266Zm.689-3.965h-.689v1.638H9.542v-1.638H8.853v4.55H16.5ZM9.5-2.483H8.827V.624h7.917V.039H9.5ZM7.423-4.42v.572h4.94v2.483h.689V-3.848h4.862V-4.42ZM25.09-4.2a28.886,28.886,0,0,0,.351-4.68v-.429H19.669v.572h5.1A27.336,27.336,0,0,1,24.4-4.264ZM22.36-6.006h-.676v3.627c-.949.026-1.859.026-2.678.026l.117.611a54.169,54.169,0,0,0,7.293-.429l-.052-.52a39.467,39.467,0,0,1-4,.286Zm7.527.3H27.859v-4.94H27.17V.91h.689V-5.083h2.028Z" transform="translate(402.822 196.498)"/>
  <rect id="사각형_173" data-name="사각형 173" class="cls-5" width="110.38" height="29.5" transform="translate(685.37 176.027)"/>
  <rect id="사각형_174" data-name="사각형 174" class="cls-4" width="110.38" height="29.5" transform="translate(685.37 176.027)"/>
  <path id="패스_23712" data-name="패스 23712" d="M3.289.169A3,3,0,0,0,6.253-3.042c0-2.106-1.248-3.042-2.808-3.042a2.922,2.922,0,0,0-1.586.455l.273-3.185H5.785v-.663H1.456L1.131-5.148l.494.3a2.747,2.747,0,0,1,1.677-.6A2.146,2.146,0,0,1,5.473-3.016,2.323,2.323,0,0,1,3.263-.481,3.191,3.191,0,0,1,.78-1.6l-.416.533A3.9,3.9,0,0,0,3.289.169ZM15.808-6.318H9.542V-8.073h6.266Zm.689-3.965h-.689v1.638H9.542v-1.638H8.853v4.55H16.5ZM9.5-2.483H8.827V.624h7.917V.039H9.5ZM7.423-4.42v.572h4.94v2.483h.689V-3.848h4.862V-4.42ZM25.09-4.2a28.886,28.886,0,0,0,.351-4.68v-.429H19.669v.572h5.1A27.336,27.336,0,0,1,24.4-4.264ZM22.36-6.006h-.676v3.627c-.949.026-1.859.026-2.678.026l.117.611a54.169,54.169,0,0,0,7.293-.429l-.052-.52a39.467,39.467,0,0,1-4,.286Zm7.527.3H27.859v-4.94H27.17V.91h.689V-5.083h2.028Z" transform="translate(725.383 196.498)"/>
  <line id="선_424" data-name="선 424" class="cls-4" x1="138.16" transform="translate(279.18 107.68)"/>
  <rect id="사각형_175" data-name="사각형 175" class="cls-6" width="132" height="30" transform="translate(149.6 92.679)"/>
  <path id="패스_23707" data-name="패스 23707" class="cls-5" d="M-18.6-7.575l.21,1.3,7.995-.435a24.247,24.247,0,0,1-.465,3l1.53.18a27.677,27.677,0,0,0,.585-6.39V-11.16H-18.21v1.245h7.935c0,.615,0,1.29-.03,2.025Zm5.085,5.76v-3.4h-1.56v3.4H-19.65V-.54H-7.395V-1.815Zm10.77-8.61A1.414,1.414,0,0,1-1.17-9.045a1.414,1.414,0,0,1-1.575,1.38,1.419,1.419,0,0,1-1.59-1.38A1.419,1.419,0,0,1-2.745-10.425Zm0,3.915A2.66,2.66,0,0,0,.21-9.045,2.66,2.66,0,0,0-2.745-11.58c-1.725,0-2.97,1.035-2.97,2.535S-4.47-6.51-2.745-6.51Zm3.36.555a53.878,53.878,0,0,1-6.945.33l.18,1.29c.735,0,1.65-.015,2.625-.045V.075h1.47V-4.47a27.226,27.226,0,0,0,2.79-.36Zm.78,2.37H-.96V-2.4H1.4V.5h1.44V-12.12H1.4Zm2.625-8.82V1.155H5.49v-13.56Zm12.93,0V1.185h1.56v-13.59ZM11.3-11.4c-2.01,0-3.48,1.86-3.48,4.77,0,2.94,1.47,4.785,3.48,4.785,2.025,0,3.5-1.845,3.5-4.785C14.79-9.54,13.32-11.4,11.3-11.4Zm0,1.395c1.185,0,2.01,1.275,2.01,3.375,0,2.13-.825,3.4-2.01,3.4S9.3-4.5,9.3-6.63C9.3-8.73,10.125-10.005,11.3-10.005Z" transform="translate(215.7 113.281)"/>
  <line id="선_425" data-name="선 425" class="cls-4" y1="21.708" transform="translate(579.531 154.07)"/>
  <line id="선_426" data-name="선 426" class="cls-4" y1="22.708" transform="translate(256.969 154.07)"/>
  <rect id="사각형_176" data-name="사각형 176" class="cls-5" width="110.38" height="29.5" transform="translate(201.53 176.027)"/>
  <rect id="사각형_177" data-name="사각형 177" class="cls-4" width="110.38" height="29.5" transform="translate(201.53 176.027)"/>
  <path id="패스_23709" data-name="패스 23709" d="M.585,0H6.292V-.676H3.341c-.494,0-1.04.039-1.56.078C4.3-2.951,5.837-4.94,5.837-6.929A2.483,2.483,0,0,0,3.211-9.646,3.484,3.484,0,0,0,.546-8.281l.481.455A2.823,2.823,0,0,1,3.133-9.009,1.863,1.863,0,0,1,5.07-6.9C5.07-5.187,3.8-3.237.585-.468ZM15.808-6.318H9.542V-8.073h6.266Zm.689-3.965h-.689v1.638H9.542v-1.638H8.853v4.55H16.5ZM9.5-2.483H8.827V.624h7.917V.039H9.5ZM7.423-4.42v.572h4.94v2.483h.689V-3.848h4.862V-4.42ZM25.09-4.2a28.886,28.886,0,0,0,.351-4.68v-.429H19.669v.572h5.1A27.336,27.336,0,0,1,24.4-4.264ZM22.36-6.006h-.676v3.627c-.949.026-1.859.026-2.678.026l.117.611a54.169,54.169,0,0,0,7.293-.429l-.052-.52a39.467,39.467,0,0,1-4,.286Zm7.527.3H27.859v-4.94H27.17V.91h.689V-5.083h2.028Z" transform="translate(241.542 196.498)"/>
  <rect id="사각형_178" data-name="사각형 178" class="cls-5" width="110.38" height="29.5" transform="translate(524.09 176.027)"/>
  <rect id="사각형_179" data-name="사각형 179" class="cls-4" width="110.38" height="29.5" transform="translate(524.09 176.027)"/>
  <path id="패스_23711" data-name="패스 23711" d="M1.118-3.341,3.692-7.1c.273-.429.533-.884.754-1.313h.065c-.039.442-.078,1.144-.078,1.573v3.5Zm5.395,0H5.174V-9.477H4.433L.247-3.185V-2.7H4.433V0h.741V-2.7H6.513Zm9.295-2.977H9.542V-8.073h6.266Zm.689-3.965h-.689v1.638H9.542v-1.638H8.853v4.55H16.5ZM9.5-2.483H8.827V.624h7.917V.039H9.5ZM7.423-4.42v.572h4.94v2.483h.689V-3.848h4.862V-4.42ZM25.09-4.2a28.886,28.886,0,0,0,.351-4.68v-.429H19.669v.572h5.1A27.336,27.336,0,0,1,24.4-4.264ZM22.36-6.006h-.676v3.627c-.949.026-1.859.026-2.678.026l.117.611a54.169,54.169,0,0,0,7.293-.429l-.052-.52a39.467,39.467,0,0,1-4,.286Zm7.527.3H27.859v-4.94H27.17V.91h.689V-5.083h2.028Z" transform="translate(564.103 196.498)"/>
  <rect id="사각형_180" data-name="사각형 180" class="cls-7" width="253.333" height="33" transform="translate(293.204 26.154)"/>
  <rect id="사각형_181" data-name="사각형 181" class="cls-5" width="252.833" height="29.5" transform="translate(287.453 26.404)"/>
  <rect id="사각형_182" data-name="사각형 182" class="cls-4" width="252.833" height="29.5" transform="translate(287.453 26.404)"/>
  <path id="패스_23705" data-name="패스 23705" class="cls-7" d="M8.76-5.8a4.007,4.007,0,0,1-3.225-3.66v-.15h2.85v-1.23H5.55v-1.62H3.99v1.62H1.14v1.23H3.99v.15a4.191,4.191,0,0,1-3.255,3.9L1.47-4.35A5.288,5.288,0,0,0,4.8-7.215a5,5,0,0,0,3.225,2.61ZM2.43-2.22H9.8V1.185H11.34v-4.65H2.43ZM13.26-8.895H11.34v-3.51H9.8v8.3H11.34V-7.62h1.92Zm9.015-1.95H19.05v-1.56H17.5v1.56H14.28v1.23h7.995ZM16.47-6.42c0-.855.735-1.365,1.8-1.365s1.815.51,1.815,1.365S19.35-5.055,18.27-5.055,16.47-5.565,16.47-6.42Zm5.085,0c0-1.53-1.335-2.565-3.285-2.565S14.985-7.95,14.985-6.42c0,1.545,1.35,2.565,3.285,2.565S21.555-4.875,21.555-6.42Zm-3.735,3.4H16.26V.9h9.12V-.36H17.82ZM24.84-8.07v-4.32H23.3V-2.235H24.84V-6.8h1.92V-8.07Zm14.1-4.32H37.395v7.695H38.94ZM33.39-6.81H29.985v-3.51H33.39Zm1.5-4.755H28.47v6h6.42ZM31.635-.255V-2.73h7.4V-3.975H30.09V.99h9.195V-.255ZM47.4-12.1c-2.955,0-4.83.975-4.83,2.595s1.875,2.6,4.83,2.6,4.83-.99,4.83-2.6S50.355-12.1,47.4-12.1Zm0,1.2c2.01,0,3.225.495,3.225,1.395S49.41-8.13,47.4-8.13s-3.24-.495-3.24-1.38S45.39-10.9,47.4-10.9ZM42.735-3.54V.99h9.3V-3.54ZM50.52-2.31V-.24H44.265V-2.31ZM41.265-5.925v1.23H53.52v-1.23Zm21.06-5.2H59.4v-1.395H57.855v1.395H54.81V-9.9h7.515ZM56.955-6.9c0-.8.675-1.29,1.665-1.29,1.005,0,1.68.5,1.68,1.29s-.675,1.29-1.68,1.29C57.63-5.61,56.955-6.105,56.955-6.9Zm4.785,0c0-1.47-1.275-2.445-3.12-2.445-1.83,0-3.1.975-3.1,2.445s1.275,2.445,3.1,2.445C60.465-4.455,61.74-5.43,61.74-6.9ZM64.47-.225H58.635V-1.41H64.47Zm0-2.355H58.635V-3.81H57.1V.99H66v-4.8H64.47Zm-.015-9.825V-9.36h-2.04V-8.1h2.04v1.4h-2.07v1.26h2.07v1.1H66v-8.055Zm8.19.96c-2.115,0-3.675,1.335-3.675,3.255s1.56,3.255,3.675,3.255,3.69-1.335,3.69-3.255S74.76-11.445,72.645-11.445Zm0,1.32A1.961,1.961,0,0,1,74.82-8.19a1.969,1.969,0,0,1-2.175,1.935,1.964,1.964,0,0,1-2.16-1.935A1.956,1.956,0,0,1,72.645-10.125Zm5.22-2.28V1.17h1.56V-12.405Zm-9.33,10.71a47.15,47.15,0,0,0,8.625-.6L77.055-3.42a61.926,61.926,0,0,1-8.715.45Zm21.78-9.12H87v-1.56H85.455v1.56h-3.33V-9.57h8.19ZM84.39-6.39c0-.825.75-1.335,1.845-1.335s1.83.51,1.83,1.335-.75,1.35-1.83,1.35S84.39-5.55,84.39-6.39ZM87-3.915c1.53-.24,2.535-1.155,2.535-2.475,0-1.515-1.35-2.52-3.3-2.52-1.965,0-3.315,1-3.315,2.52,0,1.3,1.005,2.235,2.535,2.475v1.32c-1.275.045-2.52.045-3.6.045l.2,1.275a52.711,52.711,0,0,0,8.655-.555L90.6-2.955c-1.155.165-2.385.24-3.6.315Zm4.365-8.49V1.155h1.56v-13.56Z" transform="translate(366.47 47.754)"/>
  <line id="선_427" data-name="선 427" class="cls-4" x2="594.22" transform="translate(40.25 226.777)"/>
  <line id="선_428" data-name="선 428" class="cls-4" y2="2.25" transform="translate(40.25 225.652)"/>
  <line id="선_429" data-name="선 429" class="cls-4" y2="2.25" transform="translate(634.47 225.652)"/>
  <line id="선_430" data-name="선 430" class="cls-4" x2="110.38" transform="translate(685.37 226.777)"/>
  <line id="선_431" data-name="선 431" class="cls-4" y2="2.25" transform="translate(685.37 225.652)"/>
  <line id="선_432" data-name="선 432" class="cls-4" y2="2.25" transform="translate(795.75 225.652)"/>
  <rect id="사각형_183" data-name="사각형 183" class="cls-2" width="62" height="11.44" transform="translate(312.7 221.057)"/>
  <path id="패스_23714" data-name="패스 23714" d="M1.144,0H6.37V-.988H4.459V-9.529h-.91a6.038,6.038,0,0,1-1.976.676V-8.1h1.69V-.988H1.144Zm10.4-7.826h2.587v-.858H11.544v-1.807H10.478v1.807H7.852v.858h2.639v.91A5.535,5.535,0,0,1,7.54-2.093l.6.806a5.939,5.939,0,0,0,2.886-3.6A5.728,5.728,0,0,0,13.78-1.5l.6-.832a5.253,5.253,0,0,1-2.834-4.589ZM18.538-5.9H16.614v-4.8H15.548V.962h1.066v-5.98h1.924Zm10.01-3.627H25.87v-1.287H24.8v1.287H22.022v.858h6.526ZM23.686-5.993c0-.78.663-1.287,1.638-1.287s1.638.507,1.638,1.287S26.3-4.706,25.324-4.706,23.686-5.213,23.686-5.993Zm4.277,0c0-1.261-1.092-2.093-2.639-2.093s-2.639.832-2.639,2.093S23.764-3.9,25.324-3.9,27.963-4.732,27.963-5.993ZM30.55-.039H25.1V-1.274H30.55Zm0-2.054H25.1v-1.2H24.05V.806H31.6V-3.289H30.55Zm-.026-8.593v2.717H28.561v.858h1.963v1.4H28.548v.871h1.976v1.027H31.6v-6.877ZM39.858-5.2a26.338,26.338,0,0,1-4.628.273V-6.695h3.952V-10H34.151v.871h3.991v1.612H34.19v3.458h.832a26.919,26.919,0,0,0,4.94-.286ZM35.49-2.028h6.734v3H43.29V-2.9h-7.8Zm6.734-8.658V-8.97H39.949V-8.1h2.275v1.56H39.949v.858h2.275v2.158H43.29v-7.163Zm7.085,1H48.256v2.093a6.178,6.178,0,0,1-3,5.213l.637.858a6.458,6.458,0,0,0,2.9-3.861A6.432,6.432,0,0,0,51.61-1.755l.663-.845a5.888,5.888,0,0,1-2.964-4.992ZM56.29-5.967H54.366v-4.719H53.3V.962h1.066V-5.083H56.29Z" transform="translate(315.003 232.498)"/>
  <rect id="사각형_184" data-name="사각형 184" class="cls-1" width="169.499" height="20" transform="translate(332.37 69.153)"/>
  <path id="패스_23706" data-name="패스 23706" d="M3.289.169A3,3,0,0,0,6.253-3.042c0-2.106-1.248-3.042-2.808-3.042a2.922,2.922,0,0,0-1.586.455l.273-3.185H5.785v-.663H1.456L1.131-5.148l.494.3a2.747,2.747,0,0,1,1.677-.6A2.146,2.146,0,0,1,5.473-3.016,2.323,2.323,0,0,1,3.263-.481,3.191,3.191,0,0,1,.78-1.6l-.416.533A3.9,3.9,0,0,0,3.289.169ZM7.891-9.1v.585h3.783a7.418,7.418,0,0,1-4.147,6.37l.416.507A8.081,8.081,0,0,0,12.35-9.1Zm8.619-1.534v4.81H14.6v-4.5h-.663V.286H14.6V-5.239H16.51V.91h.663V-10.634ZM30.134-6.318H23.868V-8.073h6.266Zm.689-3.965h-.689v1.638H23.868v-1.638h-.689v4.55h7.644Zm-6.994,7.8h-.676V.624H31.07V.039H23.829ZM21.749-4.42v.572h4.94v2.483h.689V-3.848H32.24V-4.42ZM39.416-4.2a28.886,28.886,0,0,0,.351-4.68v-.429H34v.572h5.1a27.335,27.335,0,0,1-.364,4.472Zm-2.73-1.807H36.01v3.627c-.949.026-1.859.026-2.678.026l.117.611a54.169,54.169,0,0,0,7.293-.429l-.052-.52a39.467,39.467,0,0,1-4,.286Zm7.527.3H42.185v-4.94H41.5V.91h.689V-5.083h2.028Zm4.511.1c1.729-.234,3.627-.949,4.29-2.262.663,1.313,2.561,2.028,4.29,2.262l.221-.546c-1.9-.221-4.147-1.144-4.147-2.73h3.757v-.572h-3.77v-1.274h-.689v1.274H48.919v.572H52.65c0,1.586-2.249,2.509-4.147,2.73ZM53.014.325c-1.989,0-3.237-.507-3.237-1.339s1.248-1.352,3.237-1.352,3.237.507,3.237,1.352S55,.325,53.014.325Zm0-3.224c-2.47,0-3.926.663-3.926,1.885S50.544.871,53.014.871,56.94.208,56.94-1.014,55.484-2.9,53.014-2.9Zm.351-1.651V-6.175h-.689V-4.55H47.788v.572H58.227V-4.55ZM62.582,0H67.47V-.663H65.494V-9.477h-.611a5.441,5.441,0,0,1-1.807.6v.507h1.651V-.663H62.582Zm9,.169c1.716,0,2.782-1.612,2.782-4.94,0-3.289-1.066-4.875-2.782-4.875S68.783-8.06,68.783-4.771C68.783-1.443,69.849.169,71.578.169Zm0-.637c-1.235,0-2.041-1.43-2.041-4.3,0-2.821.806-4.238,2.041-4.238s2.028,1.417,2.028,4.238C73.606-1.9,72.8-.468,71.578-.468Zm6.708.637c1.716,0,2.782-1.612,2.782-4.94,0-3.289-1.066-4.875-2.782-4.875S75.491-8.06,75.491-4.771C75.491-1.443,76.557.169,78.286.169Zm0-.637c-1.235,0-2.041-1.43-2.041-4.3,0-2.821.806-4.238,2.041-4.238s2.028,1.417,2.028,4.238C80.314-1.9,79.508-.468,78.286-.468Zm9.633-3.77a6.655,6.655,0,0,0,.169-1.5,6.76,6.76,0,0,0-.195-1.612h3.068v3.107ZM85.28-2.366c-1.274,0-2.158-1.4-2.158-3.367s.884-3.354,2.158-3.354,2.158,1.378,2.158,3.354S86.554-2.366,85.28-2.366Zm5.681-8.268v2.7H87.685A2.6,2.6,0,0,0,85.28-9.7c-1.651,0-2.808,1.56-2.808,3.965s1.157,3.965,2.808,3.965a2.654,2.654,0,0,0,2.457-1.885h3.224V.91h.689V-10.634ZM94.393-9.1v.585h3.783a7.418,7.418,0,0,1-4.147,6.37l.416.507A8.081,8.081,0,0,0,98.852-9.1Zm8.619-1.534v4.81H101.1v-4.5h-.663V.286h.663V-5.239h1.911V.91h.663V-10.634Zm11.817,1.261h-2.912v-1.391h-.689v1.391h-2.951v.585h6.552Zm-5.174,3.354c0-.884.78-1.508,1.911-1.508s1.9.624,1.9,1.508-.767,1.508-1.9,1.508S109.655-5.135,109.655-6.019Zm4.472,0c0-1.261-1.04-2.054-2.561-2.054s-2.561.793-2.561,2.054,1.04,2.054,2.561,2.054S114.127-4.758,114.127-6.019ZM117,.156h-5.941V-1.339H117ZM117-1.9h-5.941V-3.3h-.689V.728h7.306V-3.3H117Zm-.013-8.736V-7.8h-2.236v.585h2.236v1.651h-2.249v.572h2.249v1.144h.689v-6.786Zm9.191,5.564a26.06,26.06,0,0,1-4.888.286h-.13V-6.89h4.212V-9.932h-4.927v.585H124.7v1.9h-4.212V-4.2h.806a27.231,27.231,0,0,0,4.966-.286Zm-4.42,2.782h6.929V.936h.689V-2.873h-7.618Zm6.929-8.346v1.781h-2.5v.585h2.5v1.755h-2.5v.585h2.5v2.379h.689v-7.085ZM135.3-9.581h-.663v2.314a6.388,6.388,0,0,1-3.081,5.1l.429.559a7.085,7.085,0,0,0,3-4.069,6.705,6.705,0,0,0,2.99,3.822l.429-.533A6.134,6.134,0,0,1,135.3-7.267Zm7.176,3.757h-2.028v-4.823h-.689V.91h.689V-5.239h2.028Z" transform="translate(344.19 83.873)"/>
  <rect id="사각형_185" data-name="사각형 185" class="cls-3" width="61" height="11.44" transform="translate(710.06 221.057)"/>
  <path id="패스_23713" data-name="패스 23713" d="M.572,0H6.565V-1.027H3.926c-.481,0-1.066.052-1.56.091C4.6-3.055,6.1-4.992,6.1-6.89A2.614,2.614,0,0,0,3.328-9.711,3.645,3.645,0,0,0,.52-8.307l.689.676A2.669,2.669,0,0,1,3.185-8.736,1.675,1.675,0,0,1,4.94-6.851C4.94-5.213,3.562-3.315.572-.7ZM11.544-7.826h2.587v-.858H11.544v-1.807H10.478v1.807H7.852v.858h2.639v.91A5.535,5.535,0,0,1,7.54-2.093l.6.806a5.939,5.939,0,0,0,2.886-3.6A5.728,5.728,0,0,0,13.78-1.5l.6-.832a5.253,5.253,0,0,1-2.834-4.589ZM18.538-5.9H16.614v-4.8H15.548V.962h1.066v-5.98h1.924Zm10.01-3.627H25.87v-1.287H24.8v1.287H22.022v.858h6.526ZM23.686-5.993c0-.78.663-1.287,1.638-1.287s1.638.507,1.638,1.287S26.3-4.706,25.324-4.706,23.686-5.213,23.686-5.993Zm4.277,0c0-1.261-1.092-2.093-2.639-2.093s-2.639.832-2.639,2.093S23.764-3.9,25.324-3.9,27.963-4.732,27.963-5.993ZM30.55-.039H25.1V-1.274H30.55Zm0-2.054H25.1v-1.2H24.05V.806H31.6V-3.289H30.55Zm-.026-8.593v2.717H28.561v.858h1.963v1.4H28.548v.871h1.976v1.027H31.6v-6.877ZM39.858-5.2a26.338,26.338,0,0,1-4.628.273V-6.695h3.952V-10H34.151v.871h3.991v1.612H34.19v3.458h.832a26.919,26.919,0,0,0,4.94-.286ZM35.49-2.028h6.734v3H43.29V-2.9h-7.8Zm6.734-8.658V-8.97H39.949V-8.1h2.275v1.56H39.949v.858h2.275v2.158H43.29v-7.163Zm7.085,1H48.256v2.093a6.178,6.178,0,0,1-3,5.213l.637.858a6.458,6.458,0,0,0,2.9-3.861A6.432,6.432,0,0,0,51.61-1.755l.663-.845a5.888,5.888,0,0,1-2.964-4.992ZM56.29-5.967H54.366v-4.719H53.3V.962h1.066V-5.083H56.29Z" transform="translate(711.862 232.498)"/>
</svg>
