<svg id="구성_요소_111_1" data-name="구성 요소 111 – 1" xmlns="http://www.w3.org/2000/svg" xmlns:xlink="http://www.w3.org/1999/xlink" width="834.004" height="281.588" viewBox="0 0 834.004 281.588">
  <defs>
    <style>
      .cls-1, .cls-10, .cls-12, .cls-13, .cls-14, .cls-17, .cls-18, .cls-20, .cls-21, .cls-22, .cls-24, .cls-3, .cls-4 {
        fill: none;
      }

      .cls-2 {
        clip-path: url(#clip-path);
      }

      .cls-10, .cls-3, .cls-4 {
        stroke: #42454a;
      }

      .cls-12, .cls-13, .cls-18, .cls-19, .cls-3, .cls-4 {
        stroke-linecap: round;
      }

      .cls-12, .cls-3 {
        stroke-linejoin: round;
      }

      .cls-12, .cls-13, .cls-14, .cls-3, .cls-4 {
        stroke-width: 0.99px;
      }

      .cls-3 {
        stroke-dasharray: 0 2.941;
      }

      .cls-5 {
        fill: #a0c0ea;
      }

      .cls-6 {
        fill: #1e2323;
      }

      .cls-7 {
        fill: #5170b0;
        font-size: 16px;
      }

      .cls-7, .cls-9 {
        font-family: NotoSansKR-Light, Noto Sans KR;
        font-weight: 300;
        letter-spacing: -0.02em;
      }

      .cls-16, .cls-25, .cls-8, .cls-9 {
        fill: #fff;
      }

      .cls-9 {
        font-size: 15px;
      }

      .cls-11 {
        fill: #132d53;
      }

      .cls-12, .cls-13, .cls-14 {
        stroke: #5e6366;
      }

      .cls-12 {
        stroke-dasharray: 0 3.067;
      }

      .cls-15 {
        fill: #393c41;
      }

      .cls-16, .cls-17, .cls-18, .cls-19, .cls-21, .cls-22, .cls-24, .cls-25 {
        stroke: #393c41;
      }

      .cls-16, .cls-17, .cls-18, .cls-19, .cls-21, .cls-22 {
        stroke-miterlimit: 10;
      }

      .cls-19 {
        fill: #ebeff5;
      }

      .cls-20 {
        stroke: #2b2e34;
      }

      .cls-21 {
        stroke-width: 0.85px;
      }

      .cls-22 {
        stroke-width: 1.165px;
      }

      .cls-23 {
        fill: #78a4e1;
      }

      .cls-26 {
        clip-path: url(#clip-path-16);
      }
    </style>
    <clipPath id="clip-path">
      <path id="패스_611" data-name="패스 611" class="cls-1" d="M0,0H834V-276.937H0Z"/>
    </clipPath>
    <clipPath id="clip-path-16">
      <path id="패스_1528" data-name="패스 1528" class="cls-1" d="M0,0H9.491V-5.354H0Z"/>
    </clipPath>
  </defs>
  <g id="그룹_263" data-name="그룹 263" class="cls-2" transform="translate(0 281.588)">
    <g id="그룹_256" data-name="그룹 256" transform="translate(14.828 -184.809)">
      <path id="패스_604" data-name="패스 604" class="cls-3" d="M0,0A89.865,89.865,0,0,0,88.345,86.91"/>
    </g>
    <g id="그룹_257" data-name="그룹 257" transform="translate(107.584 -97.934)">
      <path id="패스_605" data-name="패스 605" class="cls-3" d="M0,0A89.865,89.865,0,0,0,86.91-88.345"/>
    </g>
    <g id="그룹_258" data-name="그룹 258" transform="translate(41.237 -251.428)">
      <path id="패스_606" data-name="패스 606" class="cls-4" d="M-26.457,63.679h0m89.863,89.862h0m89.862-89.862h0"/>
    </g>
    <g id="그룹_259" data-name="그룹 259" transform="translate(104.643 -116.329)">
      <path id="패스_607" data-name="패스 607" class="cls-5" d="M0,0A71.42,71.42,0,0,0,71.42-71.42,71.42,71.42,0,0,0,0-142.841,71.42,71.42,0,0,0-71.42-71.42,71.42,71.42,0,0,0,0,0"/>
    </g>
    <g id="그룹_260" data-name="그룹 260" transform="translate(527.54 -116.329)">
      <path id="패스_608" data-name="패스 608" class="cls-5" d="M0,0A71.42,71.42,0,0,0,71.42-71.42,71.42,71.42,0,0,0,0-142.841,71.42,71.42,0,0,0-71.42-71.42,71.42,71.42,0,0,0,0,0"/>
    </g>
    <g id="그룹_261" data-name="그룹 261" transform="translate(316.028 -116.329)">
      <path id="패스_609" data-name="패스 609" class="cls-5" d="M0,0A71.42,71.42,0,0,0,71.42-71.42,71.42,71.42,0,0,0,0-142.841,71.42,71.42,0,0,0-71.42-71.42,71.42,71.42,0,0,0,0,0"/>
    </g>
    <g id="그룹_262" data-name="그룹 262" transform="translate(738.924 -116.329)">
      <path id="패스_610" data-name="패스 610" class="cls-5" d="M0,0A71.42,71.42,0,0,0,71.42-71.42,71.42,71.42,0,0,0,0-142.841,71.42,71.42,0,0,0-71.42-71.42,71.42,71.42,0,0,0,0,0"/>
    </g>
  </g>
  <path id="패스_1235" data-name="패스 1235" class="cls-6" d="M1.935-4.41a6.938,6.938,0,0,0,4.95-3.45,7.014,7.014,0,0,0,5.025,3.4l.63-1.23C9.855-6.105,7.7-7.935,7.7-9.975v-.03H12V-11.25H1.77v1.245h4.3v.03c0,2.04-2.145,3.915-4.785,4.335ZM7.68-1.77V-4.935H6.12V-1.77H.765V-.51h12.27V-1.77ZM22.02-7.71a27.376,27.376,0,0,1-5.685.45v-3.15H20.82v-1.23H14.79v5.625h1.1a28.539,28.539,0,0,0,6.315-.48ZM17.64-1.455h7.2v-3.54H16.095V-3.75H23.31v1.125H16.125V.99H25.29V-.24H17.64Zm7.2-8.22V-12.39H23.3v6.78H24.84V-8.4h1.92V-9.675Z" transform="translate(90.003 110.099)"/>
  <g id="그룹" transform="translate(0 281.588)">
    <path id="패스_1246" data-name="패스 1246" class="cls-6" d="M3.825-9.945h1.8v4.23c-.6.03-1.215.06-1.8.075ZM8.91-5.97c-.57.075-1.17.135-1.785.18V-9.945h1.23V-11.2H1.11v1.26H2.34v4.32c-.555.015-1.1.015-1.59.015L.915-4.335a53.481,53.481,0,0,0,8.1-.51ZM4.32-3.345H2.76V.9h9.12V-.36H4.32Zm7.02-5.04v-4H9.8v9.975H11.34v-4.7h1.92V-8.385Zm4.815-1.29h2.34V-3.6h-2.34Zm-1.44,7.3h5.22V-10.9h-5.22ZM24.36-12.39v5.28H22.815v-5.025H21.36V.51h1.455V-5.85H24.36V1.14h1.47V-12.39ZM42-12.405H40.44v7.74H42Zm-5.55,5.25h-3.4V-10.32h3.4Zm1.5-4.395H31.53v5.625h6.42Zm4.305,8.91V-3.825H38.37V-5.04H36.8v1.215H32.91V-2.64H36.8c-.12,1.155-1.875,2.34-4.41,2.595l.51,1.17a6.593,6.593,0,0,0,4.695-2.3,6.57,6.57,0,0,0,4.65,2.3l.51-1.17c-2.5-.27-4.245-1.485-4.365-2.595ZM52.32-11.3H50.76V-9.06a6.944,6.944,0,0,1-3.435,6.18L48.3-1.65a7,7,0,0,0,3.255-4.29,6.677,6.677,0,0,0,3.21,4.065L55.68-3.12a6.516,6.516,0,0,1-3.36-5.94Zm4.785-1.125v4.455h-2.9V-6.7h2.9V1.17h1.56V-12.42Zm13.395.015V1.185h1.56v-13.59ZM61.635-11.28v9.24h6.51v-9.24H66.6v3.45H63.165v-3.45Zm1.53,4.68H66.6v3.315H63.165Zm23,.825c-2.67-.48-4.845-2.565-4.845-4.725v-1.02H79.68v1.02c0,2.145-2.175,4.23-4.845,4.725L75.5-4.5a7.092,7.092,0,0,0,5-3.72A7.092,7.092,0,0,0,85.485-4.5ZM74.415-1.86V-.585h12.27V-1.86Z" transform="translate(484.257 -171.621)"/>
    <path id="패스_1247" data-name="패스 1247" class="cls-6" d="M2.415-8.115a1.993,1.993,0,0,1,2.07-2.07,1.986,1.986,0,0,1,2.04,2.07,1.994,1.994,0,0,1-2.04,2.1A2,2,0,0,1,2.415-8.115ZM10.44-9.12v2.01H7.845a3.134,3.134,0,0,0,.15-1,3.134,3.134,0,0,0-.15-1.005Zm0,3.27v3.435h1.545v-9.96H10.44v2H7.185a3.545,3.545,0,0,0-2.7-1.17A3.4,3.4,0,0,0,.945-8.115,3.4,3.4,0,0,0,4.485-4.68a3.444,3.444,0,0,0,2.7-1.17ZM4.755-.36V-3.42H3.21V.9h9.12V-.36ZM26.52-5.775H24.63a23.8,23.8,0,0,0,.345-4.6v-1.185h-9.24v1.245H23.46a20.61,20.61,0,0,1-.39,4.545h-8.8V-4.5h5.3V1.155h1.56V-4.5h5.4Zm1.74-4.905v1.26h3.8A7.935,7.935,0,0,1,27.69-2.775l.9,1.1c3.81-2.19,4.995-5.385,4.995-9Zm9.555-1.71v5.295H36.27V-12.03H34.815V.525H36.27v-6.36h1.545v6.99h1.47V-12.39ZM46.59-7.125H43.275V-8.85H46.59Zm1.53-4.695H46.59v1.785H43.275V-11.82H41.73v5.925h6.39ZM44.64-1.38h7.2V-4.845H43.1v1.2H50.31V-2.52H43.125V1.035H52.29V-.18H44.64Zm7.2-8.235V-12.39H50.295v6.945H51.84V-8.34h1.9V-9.615ZM69-12.405H67.44v7.74H69Zm-5.55,5.25h-3.4V-10.32h3.4Zm1.5-4.395H58.53v5.625h6.42Zm4.305,8.91V-3.825H65.37V-5.04H63.8v1.215H59.91V-2.64H63.8c-.12,1.155-1.875,2.34-4.41,2.595l.51,1.17a6.593,6.593,0,0,0,4.7-2.3,6.57,6.57,0,0,0,4.65,2.3l.51-1.17c-2.5-.27-4.245-1.485-4.365-2.595ZM82.98-7.65H84.4v3.585h1.47v-8.31H84.4V-8.91H82.98v-3.225H81.525V-4.5H82.98ZM81.21-6.18a3.941,3.941,0,0,1-2.64-3.675v-1.71h-1.5v1.71A4.532,4.532,0,0,1,74.34-5.79l.81,1.185A5.079,5.079,0,0,0,77.835-7.47a4.687,4.687,0,0,0,2.55,2.445Zm.15,6.15c-1.9,0-3.045-.465-3.045-1.29s1.14-1.305,3.045-1.305S84.4-2.16,84.4-1.32,83.265-.03,81.36-.03Zm0-3.78c-2.82,0-4.59.93-4.59,2.49,0,1.545,1.77,2.475,4.59,2.475s4.59-.93,4.59-2.475C85.95-2.88,84.18-3.81,81.36-3.81ZM95.9-5.76A4.508,4.508,0,0,1,92.67-9.975v-1.59H91.11V-9.99a4.711,4.711,0,0,1-3.33,4.545l.84,1.2a5.461,5.461,0,0,0,3.3-3.21,5.459,5.459,0,0,0,3.2,2.925Zm-4.41,2.385H89.94V.9h9.09V-.36H91.485ZM98.49-8.34v-4.065H96.945v9.99H98.49v-4.65h1.92V-8.34Z" transform="translate(266.555 -172.913)"/>
    <path id="패스_1245" data-name="패스 1245" class="cls-6" d="M3.27-9.54H4.665v6.165L3.27-3.33Zm2.775,0H7.05v-1.245H.885V-9.54h.99V-3.3H.615L.8-2.025A41.082,41.082,0,0,0,7.38-2.46L7.275-3.585c-.39.045-.8.075-1.23.12ZM8.3-8.6H6.735v1.26H8.3V-5.79H6.735v1.26H8.3V.48H9.75V-12.09H8.3Zm2.64-3.81V1.155H12.42v-13.56Zm4.1,1.44V-9.7h4.83c-.27,3.12-1.95,5.505-5.505,7.215l.825,1.23c4.65-2.25,6.27-5.67,6.27-9.705ZM23.9-12.39V1.155H25.44V-12.39ZM42-12.405H40.44v7.74H42Zm-5.55,5.25h-3.4V-10.32h3.4Zm1.5-4.395H31.53v5.625h6.42Zm4.305,8.91V-3.825H38.37V-5.04H36.8v1.215H32.91V-2.64H36.8c-.12,1.155-1.875,2.34-4.41,2.595l.51,1.17a6.593,6.593,0,0,0,4.695-2.3,6.57,6.57,0,0,0,4.65,2.3l.51-1.17c-2.5-.27-4.245-1.485-4.365-2.595ZM51.54-9.63h2.265V-10.9H47.6V-9.63H50.04v.75c0,2.685-.855,5.04-2.82,6.18l.945,1.155a6.212,6.212,0,0,0,2.67-3.9A5.8,5.8,0,0,0,53.46-2.01l.9-1.185c-1.965-1.02-2.82-3.24-2.82-5.685Zm6.03-2.775V-7.05H56.085v-5.1H54.63V.525h1.455v-6.3H57.57v6.93h1.47v-13.56Zm11.31.96H65.805v-1.08h-1.56v1.08h-3.09v1.065H68.88Zm-5.64,3.18c0-.51.69-.795,1.77-.795s1.77.285,1.77.795c0,.525-.675.81-1.77.81S63.24-7.74,63.24-8.265ZM69.255-6.12c-1.1.15-2.28.24-3.45.3v-.7c1.515-.15,2.43-.765,2.43-1.74,0-1.11-1.26-1.77-3.225-1.77s-3.225.66-3.225,1.77c0,.975.93,1.59,2.46,1.74v.765c-1.245.03-2.43.03-3.45.03l.165,1.1a49.736,49.736,0,0,0,8.415-.54Zm-5.1,5.145H71.52v-2.88H62.6v1.05h7.4v.855H62.625V1.035h9.39V-.03h-7.86Zm7.365-8.07V-12.39H69.975v7.965H71.52V-7.77h1.86V-9.045ZM80.505-.03c-1.98,0-3.09-.42-3.09-1.245s1.11-1.245,3.09-1.245,3.1.435,3.1,1.245S82.485-.03,80.505-.03Zm0-3.675c-2.91,0-4.665.885-4.665,2.43,0,1.56,1.755,2.43,4.665,2.43s4.665-.87,4.665-2.43C85.17-2.82,83.43-3.7,80.505-3.7Zm-1.65-3.48a11.484,11.484,0,0,0,1.68.12,11.062,11.062,0,0,0,1.65-.12V-5.8h-3.33Zm1.68-3.78c2.01,0,3.225.48,3.225,1.35S82.545-8.25,80.535-8.25c-2.025,0-3.24-.495-3.24-1.365S78.51-10.965,80.535-10.965ZM83.73-5.8V-7.59a2.282,2.282,0,0,0,1.635-2.025c0-1.59-1.875-2.55-4.83-2.55s-4.83.96-4.83,2.55a2.237,2.237,0,0,0,1.605,2.01v1.8H74.4v1.23H86.655V-5.8Z" transform="translate(694.815 -171.621)"/>
  </g>
  <g id="그룹-2" data-name="그룹" transform="translate(0 281.588)">
    <text id="_" data-name="• " class="cls-7" transform="translate(67.168 -50.147)"><tspan x="0" y="0">• </tspan></text>
    <path id="패스_1248" data-name="패스 1248" class="cls-6" d="M5.44-10.848H8.784v-.736H1.2v.736H4.608v2.384A7.8,7.8,0,0,1,.72-2.352l.528.7a8.777,8.777,0,0,0,3.776-4.96A8.267,8.267,0,0,0,8.72-2l.5-.688A7.228,7.228,0,0,1,5.44-8.464Zm8.768,3.68h-2.5v-5.92h-.848V1.12h.848V-6.448h2.5ZM19.3-10.56h2.88v-.72H15.488v.72H18.5v1.536c0,2.96-1.3,5.344-3.28,6.416l.56.656a6.95,6.95,0,0,0,3.152-4.672,6.546,6.546,0,0,0,3.024,4.192L22.48-3.1A6.489,6.489,0,0,1,19.3-9.024Zm7.184-2.528V-7.2h-2.3v-5.536H23.36V.352h.816v-6.8h2.3V1.12h.832V-13.088Zm16.784,2a12.66,12.66,0,0,1-.384,3.616l.816.112a13.349,13.349,0,0,0,.384-3.728V-12.32H34.512v.72h8.752ZM39.328.384c-2.416,0-4.048-.736-4.048-1.872s1.632-1.888,4.048-1.888,4.064.752,4.064,1.888S41.744.384,39.328.384Zm0-4.448c-3.008,0-4.9.96-4.9,2.576s1.888,2.56,4.9,2.56,4.9-.944,4.9-2.56S42.336-4.064,39.328-4.064Zm.048-2.256V-9.2h-.848v2.88H32.96v.72H45.776v-.72ZM57.648.192H49.936v-2.32h7.712Zm0-3.024H49.936V-4.944h-.848V.912H58.48V-4.944h-.832Zm.416-4.32a18.412,18.412,0,0,0,.4-4.272V-12.4H49.008v.72h8.64v.256A16.563,16.563,0,0,1,57.2-7.152H47.344v.72h12.88v-.72Z" transform="translate(75.991 -50.147)"/>
    <text id="_2" data-name="• " class="cls-7" transform="translate(67.168 -25.405)"><tspan x="0" y="0">• </tspan></text>
    <path id="패스_1249" data-name="패스 1249" class="cls-6" d="M11.232-7.168H3.456v-2.48h7.776Zm.848-5.344h-.848v2.16H3.456v-2.16H2.608v6.064H12.08Zm1.712,7.984H.88v.72h6V1.12h.848V-3.808h6.064ZM23.68-8.4H19.728v-3.5H23.68ZM18.9-8.4H16.56v.7H26.848v-.7h-2.32v-3.5H26.88v-.7H16.544v.7H18.9ZM25.728.176H17.744v-2.9h7.984Zm2.416-5.552V-6.1H15.3v.72h6.016v1.952H16.928V.9H26.56v-4.32H22.144V-5.376Zm15.12-5.712a12.66,12.66,0,0,1-.384,3.616l.816.112a13.349,13.349,0,0,0,.384-3.728V-12.32H34.512v.72h8.752ZM39.328.384c-2.416,0-4.048-.736-4.048-1.872s1.632-1.888,4.048-1.888,4.064.752,4.064,1.888S41.744.384,39.328.384Zm0-4.448c-3.008,0-4.9.96-4.9,2.576s1.888,2.56,4.9,2.56,4.9-.944,4.9-2.56S42.336-4.064,39.328-4.064Zm.048-2.256V-9.2h-.848v2.88H32.96v.72H45.776v-.72ZM57.648.192H49.936v-2.32h7.712Zm0-3.024H49.936V-4.944h-.848V.912H58.48V-4.944h-.832Zm.416-4.32a18.412,18.412,0,0,0,.4-4.272V-12.4H49.008v.72h8.64v.256A16.563,16.563,0,0,1,57.2-7.152H47.344v.72h12.88v-.72Z" transform="translate(75.991 -25.405)"/>
    <text id="_3" data-name="• " class="cls-7" transform="translate(441.942 -50.147)"><tspan x="0" y="0">• </tspan></text>
    <path id="패스_1250" data-name="패스 1250" class="cls-6" d="M3.824-10.944H6.608v5.168c-.944.048-1.872.08-2.784.112ZM9.808-6.016c-.752.1-1.552.16-2.368.192v-5.12h1.6v-.72H1.424v.72H3.008v5.3c-.7,0-1.376.016-2,.016l.128.752a64.842,64.842,0,0,0,8.736-.5ZM4.032-3.632H3.184v4.4H12.56V.048H4.032Zm7.824-4.944v-4.5h-.848V-2.624h.848V-7.84H14.08v-.736Zm4.832-2.08h3.7v7.1h-3.7Zm-.8,7.808h5.3v-8.5h-5.3ZM26.5-13.088v5.76H24.128v-5.408h-.816V.368h.816V-6.608H26.5V1.12h.816V-13.088ZM32.672,3.088l.576-.288a14.712,14.712,0,0,1-2.112-7.728,14.753,14.753,0,0,1,2.112-7.728l-.576-.3a14.754,14.754,0,0,0-2.336,8.032A14.7,14.7,0,0,0,32.672,3.088ZM46.32-13.088H45.5V-2.4h.816ZM42.768-2.8h.816V-12.848h-.816v3.92H40.736v.72h2.032ZM41.344-5.92a23.43,23.43,0,0,1-5.328.48h-.048V-8.08h4.16v-3.808h-5.04v.688H39.3v2.432h-4.16V-4.72h.88a25.592,25.592,0,0,0,5.44-.48ZM38.08.048v-3.52h-.848V.768H46.8V.048ZM56.992-7.376a34.025,34.025,0,0,1-6.416.4H50.4V-8.992h5.312V-9.68H50.4v-1.9h5.552v-.72h-6.4v6.032h1.024a33.983,33.983,0,0,0,6.512-.4Zm-5.168,5.6h7.952V-4.864H50.96v.7h7.984v1.712H50.992V.912h9.36v-.7H51.824Zm7.952-8.032v-3.28h-.848v7.472h.848V-9.088h2.208v-.72ZM63.44,2.816A3.325,3.325,0,0,0,65.36-.16c0-.848-.384-1.376-.96-1.376a.8.8,0,0,0-.848.8.785.785,0,0,0,.832.816.779.779,0,0,0,.192-.016,2.42,2.42,0,0,1-1.408,2.144ZM75.456-6.72H71.664v-4.672h3.792Zm.8-2.112h2.352v3.808h.816v-7.744h-.816v3.216H76.256v-2.512H70.864v6.032h5.392ZM73.728-3.36h7.5V.176h-7.5ZM72.9.9h9.152v-4.96H72.9Zm8.336-13.968v8.224h.816v-8.224Zm9.424,9.744H85.984v-4.1h4.672Zm4.608-9.76v5.44H91.488v-4.32h-.832v3.856H85.984v-3.856h-.848v9.36h6.352v-4.32h3.776V1.12h.848V-13.088Zm12.48,4.4c-1.936-.464-3.616-1.68-3.616-3.28v-.8h-.864v.8c0,1.632-1.648,2.992-3.584,3.488l.384.672a5.376,5.376,0,0,0,3.648-2.864,5.24,5.24,0,0,0,3.648,2.64Zm-4.32,4.976h.848V-6.1a37.5,37.5,0,0,0,4.208-.432l-.064-.64a72.635,72.635,0,0,1-9.44.432L99.1-6c1.264,0,2.768,0,4.32-.064ZM109.488.176H102.1v-1.92h7.392Zm0-2.624H102.1V-4.192h-.848V.9h9.072V-4.192h-.832Zm-.016-10.64V-4.96h.848v-8.128Zm4.08,15.9a3.325,3.325,0,0,0,1.92-2.976c0-.848-.384-1.376-.96-1.376a.8.8,0,0,0-.848.8A.784.784,0,0,0,114.5.08a.779.779,0,0,0,.192-.016,2.42,2.42,0,0,1-1.408,2.144ZM131.808-13.1h-.848V-5.7h.848Zm-10.32,3.68a2.521,2.521,0,0,1,2.752-2.384,2.521,2.521,0,0,1,2.752,2.384A2.511,2.511,0,0,1,124.24-7.04,2.511,2.511,0,0,1,121.488-9.424Zm6.336,0c0-1.84-1.488-3.1-3.584-3.1s-3.584,1.264-3.584,3.1,1.488,3.088,3.584,3.088S127.824-7.584,127.824-9.424ZM123.664.192V-1.776h8.144V-4.928h-9.024v.7h8.192v1.776h-8.144V.9h9.536v-.7Zm15.728-11.968h-.832v2.832a7.872,7.872,0,0,1-3.92,6.32l.528.688a8.629,8.629,0,0,0,3.824-4.992,8.454,8.454,0,0,0,3.824,4.768l.528-.688a7.478,7.478,0,0,1-3.952-6.1Zm5.936-1.312V1.136h.848V-13.088Zm14.016,4.16h-7.712v-1.68h7.712Zm.848-3.952h-.848V-11.3h-7.712V-12.88h-.848v4.656h9.408Zm1.7,6.768v-.7H149.04v.7h6v1.7h-4.384v.672h8.7v1.568h-8.672V.912h9.968v-.7H151.52V-1.52h8.672v-2.9h-4.3v-1.7Zm1.824,9.2a14.7,14.7,0,0,0,2.336-8.016,14.754,14.754,0,0,0-2.336-8.032l-.576.3a14.753,14.753,0,0,1,2.112,7.728A14.712,14.712,0,0,1,163.136,2.8Z" transform="translate(450.765 -50.147)"/>
    <text id="_4" data-name="• " class="cls-7" transform="translate(441.942 -25.405)"><tspan x="0" y="0">• </tspan></text>
    <path id="패스_1251" data-name="패스 1251" class="cls-6" d="M5.648-11.776H4.8v2.832A7.911,7.911,0,0,1,.992-2.64l.544.672a8.613,8.613,0,0,0,3.7-5.088,8.3,8.3,0,0,0,3.76,4.832l.5-.688a7.486,7.486,0,0,1-3.84-6.032Zm5.984-1.312v5.056H7.968v.7h3.664V1.136h.848V-13.088ZM25.984-13.1V1.136h.848V-13.1Zm-9.808,1.248v9.488H22.7v-9.488h-.848V-7.92H17.024v-3.936Zm.848,4.64h4.832v4.128H17.024Zm24.8,1.5c-2.016-.4-5.3-2.544-5.3-5.168v-1.136h-.88v1.136c0,2.64-3.232,4.752-5.264,5.168l.4.72c1.888-.5,4.432-2.064,5.312-4.288.88,2.224,3.456,3.808,5.328,4.288ZM29.7-1.632v.72h12.9v-.72ZM55.712-5.488H51.76v-5.344h3.952Zm-4.784,0H48.56v.72H58.928v-.72H56.56v-5.344h2.368v-.72H48.544v.72h2.384Zm-3.6,3.952v.72H60.24v-.72Zm21.248.064V-4.464h4.7v-.72H64.256V-7.92h8.688v-4.032H63.376v.7h8.736v2.624H63.424v4.16h4.3v2.992h-6v.736H74.64v-.736Zm17.76-8.736A33.511,33.511,0,0,1,85.76-3.36l.848.112a35.057,35.057,0,0,0,.576-6.96v-1.264h-9.6v.72h8.752ZM76.128-1.824v.72H88.976v-.72ZM97.5-6.464a24.725,24.725,0,0,1-5.376.48h-.064v-2.48h4.448V-12.1H91.2v.7h4.5v2.24H91.248V-5.28h.88a25.95,25.95,0,0,0,5.488-.48ZM94.112-3.1h7.5V.176h-7.5ZM93.28.9h9.152v-4.7H93.28Zm8.336-13.968v3.76H99.232v-3.5h-.816v8.032h.816V-8.592h2.384V-4.56h.816v-8.512Z" transform="translate(450.765 -25.405)"/>
  </g>
  <g id="그룹_264" data-name="그룹 264" class="cls-2" transform="translate(0 281.588)">
    <g id="그룹-3" data-name="그룹">
      <text id="_5" data-name="• " class="cls-7" transform="translate(441.936 -0.648)"><tspan x="0" y="0">• </tspan></text>
      <path id="패스_1255" data-name="패스 1255" class="cls-6" d="M11.184-10.1a30.4,30.4,0,0,1-.512,6.3l.864.128a33.1,33.1,0,0,0,.5-6.432V-11.52H2.3v.7h8.88ZM7.008-1.776v-5.2H6.176v5.2H.912v.72H13.76v-.72Zm9.008-10.208v.7H20.64c-.192,2.624-2.064,4.816-5.136,6.144l.464.624C19.488-6.064,21.5-8.72,21.5-11.984Zm1.84,8.752h8.5V1.12H27.2V-3.952H17.856Zm8.528-9.84v3.728H24.1v-3.472H23.28v8.032H24.1v-3.84h2.288v3.936H27.2v-8.384Zm7.36,1.52v.72h5.488A9.875,9.875,0,0,1,38.688-8l-5.648.416.192.768,5.2-.5A10.662,10.662,0,0,1,33.04-2.048l.5.7c4.928-2.448,6.528-6.256,6.528-10.208Zm9.9-1.536v5.84H40v.72h3.648V1.1H44.5V-13.088ZM57.664-7.552H49.888v-4.032h7.776Zm.832-4.72h-9.44v5.424H58.5Zm1.728,7.584H47.312v.72h3.5V1.264h.848V-3.968h4.224V1.264h.848V-3.968h3.488Zm3.344,1.3v-8.3h-.832V-2.64h1.1a33.5,33.5,0,0,0,6.976-.7l-.128-.736a32.277,32.277,0,0,1-6.848.688Zm8.816-9.7V1.12h.848V-13.088Zm11.984,5.76h-2.7a12.255,12.255,0,0,0,.656-4.048H76.928v.72h4.56a10.609,10.609,0,0,1-.448,2.64l-4.8.336.16.768,4.416-.432A9.344,9.344,0,0,1,76.3-2.56l.5.64a10.209,10.209,0,0,0,4.576-4.7h2.992V.336h.816V-12.7h-.816ZM87.312-13.1V1.12h.816V-13.1Zm13.9.016V1.12h.848V-13.088Zm-6.544,1.152c-2.08,0-3.536,1.92-3.536,4.88,0,2.976,1.456,4.88,3.536,4.88,2.064,0,3.52-1.9,3.52-4.88C98.192-10.016,96.736-11.936,94.672-11.936Zm0,.752c1.584,0,2.7,1.7,2.7,4.128s-1.12,4.144-2.7,4.144c-1.6,0-2.72-1.712-2.72-4.144S93.072-11.184,94.672-11.184Zm20.992,8.752h.848v-10.64h-.848v2.24H112.5v.72h3.168v2.288H112.5v.72h3.168ZM113.12-5.456a5.644,5.644,0,0,1-3.6-4.912V-12.3h-.832v1.936a5.865,5.865,0,0,1-3.664,5.184l.464.672a6.59,6.59,0,0,0,3.648-4.064,6.486,6.486,0,0,0,3.488,3.792ZM108.4.048V-3.568h-.848V.768h9.312V.048Z" transform="translate(450.759 -0.648)"/>
    </g>
  </g>
  <g id="그룹-4" data-name="그룹" transform="translate(0 281.588)">
    <text id="_6" data-name="• " class="cls-7" transform="translate(282.413 -50.147)"><tspan x="0" y="0">• </tspan></text>
    <path id="패스_1256" data-name="패스 1256" class="cls-6" d="M1.968-8.672a2.693,2.693,0,0,1,2.784-2.72,2.693,2.693,0,0,1,2.784,2.72A2.7,2.7,0,0,1,4.752-5.92,2.7,2.7,0,0,1,1.968-8.672Zm9.664-1.344v2.672h-3.5a3.919,3.919,0,0,0,.224-1.328,4.013,4.013,0,0,0-.24-1.344Zm0,3.392v4.1h.848v-10.56h-.848v2.352h-3.9a3.661,3.661,0,0,0-2.976-1.408,3.4,3.4,0,0,0-3.6,3.472,3.408,3.408,0,0,0,3.6,3.488,3.586,3.586,0,0,0,2.992-1.44ZM4.448.048v-3.68H3.6v4.4h9.312V.048Zm23.7-6.032H25.92a22.813,22.813,0,0,0,.416-4.912v-1.216H16.992v.7H25.5v.512a20.45,20.45,0,0,1-.464,4.912H15.3v.72h6v6.4h.848v-6.4h6ZM30.256-11.2v.72h4.656a9.13,9.13,0,0,1-5.1,7.84l.512.624A9.946,9.946,0,0,0,35.744-11.2Zm10.608-1.888v5.92H38.512V-12.7H37.7V.352h.816v-6.8h2.352V1.12h.816V-13.088ZM50.4-7.056H45.648V-9.584H50.4Zm.832-5.488H50.4v2.256H45.648v-2.256H44.8v6.192h6.432ZM47.1-1.728h7.952V-4.912H46.24v.688h7.984v1.808H46.272V.912h9.36v-.7H47.1Zm7.952-8.128V-13.1h-.848V-5.68h.848V-9.12h2.208v-.736Z" transform="translate(291.235 -50.147)"/>
    <text id="_7" data-name="• " class="cls-7" transform="translate(282.413 -25.405)"><tspan x="0" y="0">• </tspan></text>
    <path id="패스_1252" data-name="패스 1252" class="cls-6" d="M4.864-10.576H7.7v-.72H1.1v.72H4.048v1.648A7.665,7.665,0,0,1,.784-2.48l.56.64a7.79,7.79,0,0,0,3.12-4.832,7.345,7.345,0,0,0,3.04,4.5l.544-.64A7.232,7.232,0,0,1,4.864-8.928Zm4.352,2.72H6.576v.736h2.64V.336h.816V-12.7H9.216Zm2.848-5.232V1.12H12.9V-13.088ZM23.68-8.4H19.728v-3.5H23.68ZM18.9-8.4H16.56v.7H26.848v-.7h-2.32v-3.5H26.88v-.7H16.544v.7H18.9ZM25.728.176H17.744v-2.9h7.984Zm2.416-5.552V-6.1H15.3v.72h6.016v1.952H16.928V.9H26.56v-4.32H22.144V-5.376Zm10.4-2.976h2.24v4.08H41.6v-8.816h-.816v4.016h-2.24v-3.744h-.816v8.08h.816Zm-1.76,2.16a4.576,4.576,0,0,1-3.04-3.936v-2.08h-.816v2.08a5.21,5.21,0,0,1-3.1,4.288l.48.656a6,6,0,0,0,3.04-3.376,5.316,5.316,0,0,0,2.992,3.008ZM37.024.4C34.7.4,33.2-.288,33.2-1.392c0-1.12,1.5-1.792,3.824-1.792,2.336,0,3.824.672,3.824,1.792C40.848-.288,39.36.4,37.024.4Zm0-4.272c-2.9,0-4.656.9-4.656,2.48s1.76,2.464,4.656,2.464S41.68.192,41.68-1.392,39.92-3.872,37.024-3.872ZM52.256-5.7A5.348,5.348,0,0,1,48.608-10.3V-12.24h-.816v1.872A5.544,5.544,0,0,1,44.16-5.3l.448.688A6.262,6.262,0,0,0,48.24-8.544a6.267,6.267,0,0,0,3.6,3.536ZM47.28-3.552h-.848V.768h9.312V.048H47.28Zm7.776-5.056v-4.5h-.848V-2.528h.848V-7.872H57.28v-.736Z" transform="translate(291.235 -25.405)"/>
    <text id="_8" data-name="• " class="cls-7" transform="translate(686.206 -50.147)"><tspan x="0" y="0">• </tspan></text>
    <path id="패스_1253" data-name="패스 1253" class="cls-6" d="M2.608-3.1V-6.9h5.6v-4.816h-6.5v.736H7.376v3.36H1.76v5.232H2.9a43.683,43.683,0,0,0,7.248-.528l-.08-.72A44.652,44.652,0,0,1,2.9-3.1ZM11.6-13.088V1.136h.848V-13.088Zm6.464,2.352H20.9v7.28c-.944.048-1.92.08-2.832.112Zm3.664,0h1.744v-.72h-7.84v.72h1.6v7.408c-.72,0-1.408.016-2.064.016l.112.736a64.937,64.937,0,0,0,8.752-.48l-.048-.656c-.72.1-1.488.16-2.256.192Zm4.3-2.368v5.472H22.944v.72h3.088V1.1h.848V-13.1ZM29.7-1.6v.72H42.608V-1.6ZM31.312-12v7.28H40.96V-12h-.832v2.8H32.16V-12Zm.848,3.52h7.968v3.04H32.16Zm19.136-2.1h2.832v-.72H47.536v.72H50.48v1.648A7.665,7.665,0,0,1,47.216-2.48l.56.64A7.79,7.79,0,0,0,50.9-6.672a7.345,7.345,0,0,0,3.04,4.5l.544-.64A7.232,7.232,0,0,1,51.3-8.928Zm4.352,2.72h-2.64v.736h2.64V.336h.816V-12.7h-.816ZM58.5-13.088V1.12h.832V-13.088ZM70.112-8.4H66.16v-3.5h3.952Zm-4.784,0H62.992v.7H73.28v-.7H70.96v-3.5h2.352v-.7H62.976v.7h2.352ZM72.16.176H64.176v-2.9H72.16Zm2.416-5.552V-6.1H61.728v.72h6.016v1.952H63.36V.9h9.632v-4.32H68.576V-5.376Zm7.712-5.568h2.784v5.168c-.944.048-1.872.08-2.784.112Zm5.984,4.928c-.752.1-1.552.16-2.368.192v-5.12h1.6v-.72H79.888v.72h1.584v5.3c-.7,0-1.376.016-2,.016l.128.752a64.842,64.842,0,0,0,8.736-.5ZM82.5-3.632h-.848v4.4h9.376V.048H82.5ZM90.32-8.576v-4.5h-.848V-2.624h.848V-7.84h2.224v-.736Zm4.832-2.08h3.7v7.1h-3.7Zm-.8,7.808h5.3v-8.5h-5.3Zm10.608-10.24v5.76h-2.368v-5.408h-.816V.368h.816V-6.608h2.368V1.12h.816V-13.088Z" transform="translate(695.029 -50.147)"/>
    <text id="_9" data-name="• " class="cls-7" transform="translate(686.206 -25.405)"><tspan x="0" y="0">• </tspan></text>
    <path id="패스_1254" data-name="패스 1254" class="cls-6" d="M8.464-4.608v.672h3.024v1.68h.848V-13.072h-.848v8.464Zm-2.992-7.2c1.568,0,2.656.736,2.656,1.776C8.128-8.96,7.04-8.24,5.472-8.24s-2.656-.72-2.656-1.792C2.816-11.072,3.9-11.808,5.472-11.808Zm0,4.224c2.08,0,3.456-.944,3.456-2.448,0-1.488-1.376-2.432-3.456-2.432S2-11.52,2-10.032C2-8.528,3.392-7.584,5.472-7.584Zm-.32,4.752H6v-2.9a39.5,39.5,0,0,0,4.144-.416l-.08-.624a78.253,78.253,0,0,1-9.248.416l.128.736c1.248,0,2.672,0,4.208-.064ZM3.808.048V-3.328H2.976v4.1H12.7V.048ZM19.3-10.56h2.88v-.72H15.488v.72H18.5v1.536c0,2.96-1.3,5.344-3.28,6.416l.56.656a6.95,6.95,0,0,0,3.152-4.672,6.546,6.546,0,0,0,3.024,4.192L22.48-3.1A6.489,6.489,0,0,1,19.3-9.024Zm7.184-2.528V-7.2h-2.3v-5.536H23.36V.352h.816v-6.8h2.3V1.12h.832V-13.088ZM34.352-4.48H38.08v3.008H34.352Zm4.56,3.008V-4.48h2.336V-5.2H32.224V-7.92h8.688v-4.032H31.344v.7H40.08v2.624H31.392V-4.48H33.52v3.008H29.7v.736H42.608v-.736ZM51.328-10.56h2.88v-.72H47.52v.72h3.008v1.536c0,2.96-1.3,5.344-3.28,6.416l.56.656A6.95,6.95,0,0,0,50.96-6.624a6.546,6.546,0,0,0,3.024,4.192l.528-.672a6.489,6.489,0,0,1-3.184-5.92Zm7.184-2.528V-7.2h-2.3v-5.536h-.816V.352h.816v-6.8h2.3V1.12h.832V-13.088Zm11.792,1.2h-3.7v-1.36H65.76v1.36h-3.7v.656H70.3Zm-6.56,3.1c0-.784.976-1.28,2.432-1.28s2.432.5,2.432,1.28c0,.736-.976,1.248-2.432,1.248S63.744-8.048,63.744-8.784Zm7.024,2.512c-1.328.176-2.768.3-4.16.368v-1.04c1.712-.1,2.784-.768,2.784-1.84,0-1.184-1.264-1.888-3.216-1.888-1.968,0-3.232.7-3.232,1.888,0,1.072,1.088,1.744,2.816,1.84v1.072c-1.456.048-2.864.048-4.048.048l.112.688a54.893,54.893,0,0,0,9.008-.544ZM64.48-1.312h8.112V-3.984H63.616v.656h8.16v1.392H63.648V.912h9.52V.256H64.48ZM72.592-9.28v-3.808h-.848v8.4h.848V-8.56h2.256v-.72ZM82.56.4c-2.432,0-3.984-.672-3.984-1.808,0-1.12,1.552-1.808,3.984-1.808s3.984.688,3.984,1.808C86.544-.272,84.992.4,82.56.4Zm0-4.288c-3.024,0-4.832.88-4.832,2.48s1.808,2.5,4.832,2.5,4.832-.9,4.832-2.5S85.584-3.888,82.56-3.888ZM80.32-7.84a11.431,11.431,0,0,0,2.224.208,12,12,0,0,0,2.288-.208V-5.9H80.32Zm-1.808-2.384c0-1.168,1.584-1.888,4.032-1.888,2.48,0,4.064.72,4.064,1.888s-1.584,1.9-4.064,1.9C80.1-8.32,78.512-9.056,78.512-10.224ZM85.664-5.9V-8.1a2.325,2.325,0,0,0,1.808-2.128c0-1.648-1.872-2.576-4.928-2.576-3.04,0-4.9.928-4.9,2.576A2.345,2.345,0,0,0,79.472-8.08V-5.9H76.144v.72H88.976V-5.9Z" transform="translate(695.029 -25.405)"/>
  </g>
  <g id="그룹-5" data-name="그룹" transform="translate(0 281.588)">
    <path id="패스_1236" data-name="패스 1236" class="cls-8" d="M1.59,0h.9V-4.62h2c2.43,0,3.93-1.05,3.93-3.24,0-2.265-1.515-3.075-3.99-3.075H1.59Zm.9-5.37v-4.815H4.245C6.42-10.185,7.5-9.63,7.5-7.86c0,1.755-1.035,2.49-3.2,2.49ZM10.38,0h.87V-5.37c.585-1.485,1.44-2.01,2.145-2.01a1.691,1.691,0,0,1,.735.135l.18-.78a1.611,1.611,0,0,0-.81-.18,2.751,2.751,0,0,0-2.265,1.7H11.2l-.1-1.485h-.72Zm7.875.2C20.19.2,21.87-1.335,21.87-3.99S20.19-8.2,18.255-8.2,14.64-6.66,14.64-3.99,16.32.2,18.255.2Zm0-.75c-1.56,0-2.7-1.395-2.7-3.435s1.14-3.45,2.7-3.45S20.97-6.03,20.97-3.99,19.815-.555,18.255-.555ZM26.91.2A3.869,3.869,0,0,0,29.46-.84l-.42-.6a3.193,3.193,0,0,1-2.085.885c-1.68,0-2.79-1.395-2.79-3.435S25.38-7.44,26.97-7.44a2.625,2.625,0,0,1,1.83.81l.5-.6a3.381,3.381,0,0,0-2.34-.975c-1.98,0-3.7,1.545-3.7,4.215S24.825.2,26.91.2Zm6.48,0a3.549,3.549,0,0,0,2.7-1.515h.045L36.21,0h.735V-7.995h-.87v5.85c-.9,1.08-1.56,1.56-2.49,1.56-1.23,0-1.74-.765-1.74-2.4v-5.01h-.87V-2.88C30.975-.825,31.725.2,33.39.2ZM39.645,0h.87V-5.37c.585-1.485,1.44-2.01,2.145-2.01a1.691,1.691,0,0,1,.735.135l.18-.78a1.611,1.611,0,0,0-.81-.18A2.751,2.751,0,0,0,40.5-6.51h-.03l-.1-1.485h-.72Zm7.98.2a4.473,4.473,0,0,0,2.55-.78l-.33-.645a3.58,3.58,0,0,1-2.13.69c-1.725,0-2.88-1.365-2.925-3.315h5.67a4.149,4.149,0,0,0,.045-.63c0-2.34-1.155-3.72-3.09-3.72C45.6-8.2,43.9-6.585,43.9-3.99,43.9-1.365,45.57.2,47.625.2ZM44.79-4.545c.165-1.83,1.335-2.91,2.64-2.91,1.395,0,2.28.975,2.28,2.91ZM52.335,0h.87V-5.985a3.373,3.373,0,0,1,2.31-1.44c1.185,0,1.725.765,1.725,2.43V0h.87V-5.985a3.373,3.373,0,0,1,2.31-1.44c1.17,0,1.725.765,1.725,2.43V0h.87V-5.115c0-2.055-.795-3.09-2.4-3.09a4,4,0,0,0-2.7,1.62A2.071,2.071,0,0,0,55.71-8.2,3.713,3.713,0,0,0,53.19-6.78h-.03l-.1-1.215h-.72Zm16.32.2a4.473,4.473,0,0,0,2.55-.78l-.33-.645a3.58,3.58,0,0,1-2.13.69c-1.725,0-2.88-1.365-2.925-3.315h5.67a4.148,4.148,0,0,0,.045-.63c0-2.34-1.155-3.72-3.09-3.72-1.815,0-3.51,1.62-3.51,4.215C64.935-1.365,66.6.2,68.655.2ZM65.82-4.545c.165-1.83,1.335-2.91,2.64-2.91,1.4,0,2.28.975,2.28,2.91ZM73.365,0h.87V-5.985c.93-.96,1.59-1.44,2.52-1.44,1.23,0,1.755.765,1.755,2.43V0h.87V-5.115c0-2.055-.765-3.09-2.43-3.09A3.933,3.933,0,0,0,74.22-6.78h-.03l-.1-1.215h-.72ZM84.21.2a4.523,4.523,0,0,0,1.335-.3l-.21-.675a2.8,2.8,0,0,1-.975.225c-1.065,0-1.335-.66-1.335-1.665V-7.26H85.32v-.735H83.025V-10.3H82.29l-.105,2.31L80.91-7.92v.66h1.245v4.98C82.155-.8,82.635.2,84.21.2Z" transform="translate(61.773 -152.571)"/>
    <path id="패스_1239" data-name="패스 1239" class="cls-8" d="M4.485.2c2.145,0,3.54-1.29,3.54-2.97,0-1.665-1.05-2.355-2.3-2.91L4.1-6.4c-.8-.345-1.86-.81-1.86-2.055,0-1.125.93-1.86,2.325-1.86a3.509,3.509,0,0,1,2.58,1.1l.51-.585a4.177,4.177,0,0,0-3.09-1.32c-1.86,0-3.24,1.125-3.24,2.745s1.245,2.3,2.22,2.73l1.635.72c1.08.48,1.935.9,1.935,2.22,0,1.245-1.005,2.1-2.625,2.1A4.21,4.21,0,0,1,1.32-2.07l-.555.63A4.867,4.867,0,0,0,4.485.2ZM11.67.2A4.608,4.608,0,0,0,14.46-1.02h.03L14.58,0h.735V-5.07c0-1.77-.675-3.135-2.58-3.135A5.545,5.545,0,0,0,9.7-7.155l.39.63a4.323,4.323,0,0,1,2.52-.915c1.515,0,1.86,1.23,1.83,2.415-3.525.405-5.1,1.245-5.1,3.015A2.11,2.11,0,0,0,11.67.2Zm.18-.735a1.442,1.442,0,0,1-1.635-1.515c0-1.23,1.08-1.965,4.23-2.325v2.6A3.94,3.94,0,0,1,11.85-.54ZM18.87.2a1.763,1.763,0,0,0,.585-.09l-.135-.69a1.342,1.342,0,0,1-.285.03c-.21,0-.36-.165-.36-.54v-10.83h-.87v10.74C17.805-.255,18.15.2,18.87.2Zm5.7,0a4.473,4.473,0,0,0,2.55-.78l-.33-.645a3.58,3.58,0,0,1-2.13.69c-1.725,0-2.88-1.365-2.925-3.315h5.67a4.149,4.149,0,0,0,.045-.63c0-2.34-1.155-3.72-3.09-3.72-1.815,0-3.51,1.62-3.51,4.215C20.85-1.365,22.515.2,24.57.2Zm-2.835-4.74c.165-1.83,1.335-2.91,2.64-2.91,1.4,0,2.28.975,2.28,2.91ZM31.245.2c1.77,0,2.745-1.05,2.745-2.28,0-1.545-1.35-1.98-2.58-2.445-.93-.345-1.86-.675-1.86-1.56,0-.72.54-1.38,1.725-1.38a3.066,3.066,0,0,1,1.9.72l.45-.6A3.862,3.862,0,0,0,31.305-8.2c-1.68,0-2.625.99-2.625,2.16,0,1.38,1.32,1.875,2.505,2.3.93.33,1.935.765,1.935,1.71,0,.825-.615,1.515-1.83,1.515a3.662,3.662,0,0,1-2.52-1l-.465.63A4.685,4.685,0,0,0,31.245.2Zm7.515-3.03a3.458,3.458,0,0,1,1.68-2.52,16.328,16.328,0,0,0,3.075,3.72A3.457,3.457,0,0,1,41.16-.54,2.283,2.283,0,0,1,38.76-2.835Zm1.4-5.85a1.575,1.575,0,0,1,1.5-1.755c.855,0,1.17.66,1.17,1.365,0,1.1-.99,1.845-2.085,2.625A5.509,5.509,0,0,1,40.155-8.685ZM46.74-.555a7.92,7.92,0,0,1-2.1-1.2A12.269,12.269,0,0,0,46.575-5.76H45.75a10.335,10.335,0,0,1-1.695,3.51A14.4,14.4,0,0,1,41.07-5.835c1.23-.93,2.505-1.86,2.505-3.285a1.828,1.828,0,0,0-1.89-2.01A2.306,2.306,0,0,0,39.36-8.67,6.354,6.354,0,0,0,40.1-5.985c-1.14.825-2.22,1.755-2.22,3.195A2.982,2.982,0,0,0,41.07.2,4.216,4.216,0,0,0,44.1-1.14,7.733,7.733,0,0,0,46.47.2Z" transform="translate(504.438 -152.571)"/>
    <text id="_10" data-name=" " class="cls-9" transform="translate(552.273 -152.571)"><tspan x="0" y="0"> </tspan></text>
    <path id="패스_1242" data-name="패스 1242" class="cls-8" d="M4.485.2c2.145,0,3.54-1.29,3.54-2.97,0-1.665-1.05-2.355-2.3-2.91L4.1-6.4c-.8-.345-1.86-.81-1.86-2.055,0-1.125.93-1.86,2.325-1.86a3.509,3.509,0,0,1,2.58,1.1l.51-.585a4.177,4.177,0,0,0-3.09-1.32c-1.86,0-3.24,1.125-3.24,2.745s1.245,2.3,2.22,2.73l1.635.72c1.08.48,1.935.9,1.935,2.22,0,1.245-1.005,2.1-2.625,2.1A4.21,4.21,0,0,1,1.32-2.07l-.555.63A4.867,4.867,0,0,0,4.485.2ZM12.96.2a4.473,4.473,0,0,0,2.55-.78l-.33-.645a3.58,3.58,0,0,1-2.13.69c-1.725,0-2.88-1.365-2.925-3.315H15.8a4.149,4.149,0,0,0,.045-.63c0-2.34-1.155-3.72-3.09-3.72-1.815,0-3.51,1.62-3.51,4.215C9.24-1.365,10.9.2,12.96.2Zm-2.835-4.74c.165-1.83,1.335-2.91,2.64-2.91,1.4,0,2.28.975,2.28,2.91ZM17.67,0h.87V-5.37c.585-1.485,1.44-2.01,2.145-2.01a1.691,1.691,0,0,1,.735.135l.18-.78a1.611,1.611,0,0,0-.81-.18,2.751,2.751,0,0,0-2.265,1.7H18.5L18.39-7.995h-.72Z" transform="translate(501.453 -135.576)"/>
    <path id="패스_1240" data-name="패스 1240" class="cls-8" d="M3.165,0H4.2L7.14-7.995H6.255l-1.74,4.9c-.255.78-.54,1.59-.795,2.31H3.66c-.27-.72-.54-1.53-.8-2.31L1.14-7.995H.2Zm5.37,0H9.4V-7.995h-.87Zm.45-9.87a.708.708,0,0,0,.735-.69.7.7,0,0,0-.735-.72.7.7,0,0,0-.735.72A.7.7,0,0,0,8.985-9.87ZM15.09.2A3.869,3.869,0,0,0,17.64-.84l-.42-.6a3.193,3.193,0,0,1-2.085.885c-1.68,0-2.79-1.395-2.79-3.435s1.215-3.45,2.8-3.45a2.625,2.625,0,0,1,1.83.81l.5-.6a3.381,3.381,0,0,0-2.34-.975c-1.98,0-3.7,1.545-3.7,4.215S13.005.2,15.09.2Z" transform="translate(523.263 -135.576)"/>
    <path id="패스_1241" data-name="패스 1241" class="cls-8" d="M4.56.2a4.473,4.473,0,0,0,2.55-.78L6.78-1.23a3.58,3.58,0,0,1-2.13.69c-1.725,0-2.88-1.365-2.925-3.315h5.67a4.149,4.149,0,0,0,.045-.63c0-2.34-1.155-3.72-3.09-3.72C2.535-8.2.84-6.585.84-3.99.84-1.365,2.5.2,4.56.2ZM1.725-4.545c.165-1.83,1.335-2.91,2.64-2.91,1.395,0,2.28.975,2.28,2.91ZM11.235.2c1.77,0,2.745-1.05,2.745-2.28,0-1.545-1.35-1.98-2.58-2.445-.93-.345-1.86-.675-1.86-1.56,0-.72.54-1.38,1.725-1.38a3.066,3.066,0,0,1,1.905.72l.45-.6A3.862,3.862,0,0,0,11.3-8.2c-1.68,0-2.625.99-2.625,2.16,0,1.38,1.32,1.875,2.505,2.3.93.33,1.935.765,1.935,1.71,0,.825-.615,1.515-1.83,1.515a3.662,3.662,0,0,1-2.52-1L8.3-.9A4.685,4.685,0,0,0,11.235.2Z" transform="translate(540.723 -135.576)"/>
    <path id="패스_1237" data-name="패스 1237" class="cls-8" d="M2.49-10.185H4.575c1.89,0,2.94.585,2.94,2.175,0,1.575-1.05,2.325-2.94,2.325H2.49ZM8.655,0,5.7-5.01a2.877,2.877,0,0,0,2.73-3c0-2.13-1.47-2.925-3.645-2.925H1.59V0h.9V-4.935H4.725L7.635,0ZM10.29-2.835a3.458,3.458,0,0,1,1.68-2.52,16.328,16.328,0,0,0,3.075,3.72A3.457,3.457,0,0,1,12.69-.54,2.283,2.283,0,0,1,10.29-2.835Zm1.395-5.85a1.575,1.575,0,0,1,1.5-1.755c.855,0,1.17.66,1.17,1.365,0,1.1-.99,1.845-2.085,2.625A5.509,5.509,0,0,1,11.685-8.685ZM18.27-.555a7.92,7.92,0,0,1-2.1-1.2A12.269,12.269,0,0,0,18.1-5.76H17.28a10.335,10.335,0,0,1-1.695,3.51A14.4,14.4,0,0,1,12.6-5.835C13.83-6.765,15.1-7.7,15.1-9.12a1.828,1.828,0,0,0-1.89-2.01A2.306,2.306,0,0,0,10.89-8.67a6.354,6.354,0,0,0,.735,2.685C10.485-5.16,9.4-4.23,9.4-2.79A2.982,2.982,0,0,0,12.6.2,4.215,4.215,0,0,0,15.63-1.14,7.733,7.733,0,0,0,18,.2ZM19.785,0h2.6c3.345,0,4.995-2.16,4.995-5.505s-1.65-5.43-5.01-5.43h-2.58Zm.9-.765v-9.42h1.59c2.88,0,4.155,1.845,4.155,4.68s-1.275,4.74-4.155,4.74Z" transform="translate(301.893 -152.571)"/>
    <text id="_11" data-name=" " class="cls-9" transform="translate(330.168 -152.571)"><tspan x="0" y="0"> </tspan></text>
    <path id="패스_1238" data-name="패스 1238" class="cls-8" d="M1.59,0h.9V-4.62h2c2.43,0,3.93-1.05,3.93-3.24,0-2.265-1.515-3.075-3.99-3.075H1.59Zm.9-5.37v-4.815H4.245C6.42-10.185,7.5-9.63,7.5-7.86c0,1.755-1.035,2.49-3.2,2.49ZM10.38,0h.87V-5.37c.585-1.485,1.44-2.01,2.145-2.01a1.691,1.691,0,0,1,.735.135l.18-.78a1.611,1.611,0,0,0-.81-.18,2.751,2.751,0,0,0-2.265,1.7H11.2l-.1-1.485h-.72Zm7.875.2C20.19.2,21.87-1.335,21.87-3.99S20.19-8.2,18.255-8.2,14.64-6.66,14.64-3.99,16.32.2,18.255.2Zm0-.75c-1.56,0-2.7-1.395-2.7-3.435s1.14-3.45,2.7-3.45S20.97-6.03,20.97-3.99,19.815-.555,18.255-.555Zm8.31.75A3.706,3.706,0,0,0,29.13-1h.03l.1,1h.72V-11.925h-.87V-8.67l.06,1.44A3.59,3.59,0,0,0,26.79-8.2c-1.89,0-3.54,1.635-3.54,4.215C23.25-1.3,24.555.2,26.565.2Zm.15-.765c-1.62,0-2.535-1.35-2.535-3.42,0-1.965,1.17-3.45,2.7-3.45a3.228,3.228,0,0,1,2.235.99v4.62A3.347,3.347,0,0,1,26.715-.57ZM34.98.2a3.549,3.549,0,0,0,2.7-1.515h.045L37.8,0h.735V-7.995h-.87v5.85c-.9,1.08-1.56,1.56-2.49,1.56-1.23,0-1.74-.765-1.74-2.4v-5.01h-.87V-2.88C32.565-.825,33.315.2,34.98.2Zm9.255,0A3.869,3.869,0,0,0,46.785-.84l-.42-.6a3.193,3.193,0,0,1-2.085.885c-1.68,0-2.79-1.395-2.79-3.435S42.705-7.44,44.3-7.44a2.625,2.625,0,0,1,1.83.81l.495-.6A3.381,3.381,0,0,0,44.28-8.2c-1.98,0-3.7,1.545-3.7,4.215S42.15.2,44.235.2Zm6.27,0a4.524,4.524,0,0,0,1.335-.3L51.63-.78a2.8,2.8,0,0,1-.975.225c-1.065,0-1.335-.66-1.335-1.665V-7.26h2.3v-.735h-2.3V-10.3h-.735l-.105,2.31-1.275.075v.66H48.45v4.98C48.45-.8,48.93.2,50.505.2Zm2.73-.2h.87V-7.995h-.87Zm.45-9.87a.708.708,0,0,0,.735-.69.7.7,0,0,0-.735-.72.7.7,0,0,0-.735.72A.7.7,0,0,0,53.685-9.87ZM59.745.2C61.68.2,63.36-1.335,63.36-3.99S61.68-8.2,59.745-8.2,56.13-6.66,56.13-3.99,57.81.2,59.745.2Zm0-.75c-1.56,0-2.7-1.395-2.7-3.435s1.14-3.45,2.7-3.45S62.46-6.03,62.46-3.99,61.305-.555,59.745-.555ZM65.4,0h.87V-5.985c.93-.96,1.59-1.44,2.52-1.44,1.23,0,1.755.765,1.755,2.43V0h.87V-5.115c0-2.055-.765-3.09-2.43-3.09a3.933,3.933,0,0,0-2.73,1.425h-.03l-.1-1.215H65.4Z" transform="translate(279.633 -135.576)"/>
    <path id="패스_1243" data-name="패스 1243" class="cls-8" d="M1.59,0h2.6C7.53,0,9.18-2.16,9.18-5.505s-1.65-5.43-5.01-5.43H1.59Zm.9-.765v-9.42H4.08c2.88,0,4.155,1.845,4.155,4.68S6.96-.765,4.08-.765ZM11.28,0h.87V-7.995h-.87Zm.45-9.87a.708.708,0,0,0,.735-.69.7.7,0,0,0-.735-.72.7.7,0,0,0-.735.72A.7.7,0,0,0,11.73-9.87ZM16.8.2c1.77,0,2.745-1.05,2.745-2.28,0-1.545-1.35-1.98-2.58-2.445-.93-.345-1.86-.675-1.86-1.56,0-.72.54-1.38,1.725-1.38a3.066,3.066,0,0,1,1.905.72l.45-.6A3.862,3.862,0,0,0,16.86-8.2c-1.68,0-2.625.99-2.625,2.16,0,1.38,1.32,1.875,2.505,2.3.93.33,1.935.765,1.935,1.71,0,.825-.615,1.515-1.83,1.515a3.662,3.662,0,0,1-2.52-1L13.86-.9A4.685,4.685,0,0,0,16.8.2ZM21.315,3.57h.87V.69L22.17-.78A3.95,3.95,0,0,0,24.525.2c1.875,0,3.525-1.59,3.525-4.32,0-2.46-1.08-4.08-3.21-4.08A4.649,4.649,0,0,0,22.17-7.02h-.03l-.105-.975h-.72ZM24.45-.57a3.668,3.668,0,0,1-2.265-.975v-4.62a4.008,4.008,0,0,1,2.49-1.275c1.785,0,2.445,1.395,2.445,3.315C27.12-1.98,26.01-.57,24.45-.57ZM33.045.2C34.98.2,36.66-1.335,36.66-3.99S34.98-8.2,33.045-8.2,29.43-6.66,29.43-3.99,31.11.2,33.045.2Zm0-.75c-1.56,0-2.7-1.395-2.7-3.435s1.14-3.45,2.7-3.45S35.76-6.03,35.76-3.99,34.6-.555,33.045-.555Zm7.62.75c1.77,0,2.745-1.05,2.745-2.28,0-1.545-1.35-1.98-2.58-2.445-.93-.345-1.86-.675-1.86-1.56,0-.72.54-1.38,1.725-1.38a3.066,3.066,0,0,1,1.905.72l.45-.6A3.862,3.862,0,0,0,40.725-8.2c-1.68,0-2.625.99-2.625,2.16,0,1.38,1.32,1.875,2.5,2.3.93.33,1.935.765,1.935,1.71,0,.825-.615,1.515-1.83,1.515a3.662,3.662,0,0,1-2.52-1l-.465.63A4.685,4.685,0,0,0,40.665.2ZM46.95.2A4.608,4.608,0,0,0,49.74-1.02h.03L49.86,0H50.6V-5.07c0-1.77-.675-3.135-2.58-3.135a5.545,5.545,0,0,0-3.03,1.05l.39.63A4.323,4.323,0,0,1,47.9-7.44c1.515,0,1.86,1.23,1.83,2.415-3.525.405-5.1,1.245-5.1,3.015A2.11,2.11,0,0,0,46.95.2Zm.18-.735a1.442,1.442,0,0,1-1.635-1.515c0-1.23,1.08-1.965,4.23-2.325v2.6A3.94,3.94,0,0,1,47.13-.54ZM54.15.2a1.763,1.763,0,0,0,.585-.09L54.6-.585a1.342,1.342,0,0,1-.285.03c-.21,0-.36-.165-.36-.54v-10.83h-.87v10.74C53.085-.255,53.43.2,54.15.2Zm5.64-3.03a3.458,3.458,0,0,1,1.68-2.52,16.328,16.328,0,0,0,3.075,3.72A3.457,3.457,0,0,1,62.19-.54,2.283,2.283,0,0,1,59.79-2.835Zm1.4-5.85a1.575,1.575,0,0,1,1.5-1.755c.855,0,1.17.66,1.17,1.365,0,1.1-.99,1.845-2.085,2.625A5.509,5.509,0,0,1,61.185-8.685ZM67.77-.555a7.92,7.92,0,0,1-2.1-1.2A12.269,12.269,0,0,0,67.6-5.76H66.78a10.335,10.335,0,0,1-1.695,3.51A14.4,14.4,0,0,1,62.1-5.835c1.23-.93,2.5-1.86,2.5-3.285a1.828,1.828,0,0,0-1.89-2.01A2.306,2.306,0,0,0,60.39-8.67a6.354,6.354,0,0,0,.735,2.685C59.985-5.16,58.9-4.23,58.9-2.79A2.982,2.982,0,0,0,62.1.2,4.215,4.215,0,0,0,65.13-1.14,7.733,7.733,0,0,0,67.5.2Z" transform="translate(704.493 -152.571)"/>
    <text id="_12" data-name=" " class="cls-9" transform="translate(773.358 -152.571)"><tspan x="0" y="0"> </tspan></text>
    <path id="패스_1244" data-name="패스 1244" class="cls-8" d="M2.49-10.185H4.575c1.89,0,2.94.585,2.94,2.175,0,1.575-1.05,2.325-2.94,2.325H2.49ZM8.655,0,5.7-5.01a2.877,2.877,0,0,0,2.73-3c0-2.13-1.47-2.925-3.645-2.925H1.59V0h.9V-4.935H4.725L7.635,0Zm4.56.2a4.473,4.473,0,0,0,2.55-.78l-.33-.645a3.58,3.58,0,0,1-2.13.69c-1.725,0-2.88-1.365-2.925-3.315h5.67a4.149,4.149,0,0,0,.045-.63c0-2.34-1.155-3.72-3.09-3.72-1.815,0-3.51,1.62-3.51,4.215C9.495-1.365,11.16.2,13.215.2ZM10.38-4.545c.165-1.83,1.335-2.91,2.64-2.91,1.395,0,2.28.975,2.28,2.91ZM20.925.2A3.869,3.869,0,0,0,23.475-.84l-.42-.6a3.193,3.193,0,0,1-2.085.885c-1.68,0-2.79-1.395-2.79-3.435s1.215-3.45,2.805-3.45a2.625,2.625,0,0,1,1.83.81l.5-.6A3.381,3.381,0,0,0,20.97-8.2c-1.98,0-3.7,1.545-3.7,4.215S18.84.2,20.925.2Zm4.1,3.4c1.47,0,2.28-1.29,2.76-2.67L30.9-7.995h-.885L28.38-3.105c-.225.69-.48,1.53-.72,2.25h-.075c-.285-.72-.585-1.56-.84-2.25l-1.86-4.89H23.94L27.21.12,27,.8C26.61,1.95,25.965,2.82,25.005,2.82a2.058,2.058,0,0,1-.645-.12l-.195.735A2.119,2.119,0,0,0,25.02,3.6ZM35.295.2A3.869,3.869,0,0,0,37.845-.84l-.42-.6a3.193,3.193,0,0,1-2.085.885c-1.68,0-2.79-1.395-2.79-3.435s1.215-3.45,2.805-3.45a2.625,2.625,0,0,1,1.83.81l.495-.6A3.381,3.381,0,0,0,35.34-8.2c-1.98,0-3.7,1.545-3.7,4.215S33.21.2,35.295.2Zm5.25,0a1.763,1.763,0,0,0,.585-.09l-.135-.69a1.342,1.342,0,0,1-.285.03c-.21,0-.36-.165-.36-.54v-10.83h-.87v10.74C39.48-.255,39.825.2,40.545.2Zm2.64-.2h.87V-7.995h-.87Zm.45-9.87a.708.708,0,0,0,.735-.69.7.7,0,0,0-.735-.72.7.7,0,0,0-.735.72A.7.7,0,0,0,43.635-9.87ZM46.74,0h.87V-5.985c.93-.96,1.59-1.44,2.52-1.44,1.23,0,1.755.765,1.755,2.43V0h.87V-5.115c0-2.055-.765-3.09-2.43-3.09A3.933,3.933,0,0,0,47.6-6.78h-.03l-.1-1.215h-.72ZM57.96,3.81c2.34,0,3.84-1.32,3.84-2.715C61.8-.18,60.945-.75,59.13-.75H57.45c-1.155,0-1.5-.435-1.5-1a1.375,1.375,0,0,1,.63-1.11,2.7,2.7,0,0,0,1.29.33,2.752,2.752,0,0,0,2.82-2.82,2.55,2.55,0,0,0-.825-1.92h1.8v-.72h-2.73A2.843,2.843,0,0,0,57.87-8.2,2.793,2.793,0,0,0,55-5.37a2.9,2.9,0,0,0,1.02,2.175v.06A1.988,1.988,0,0,0,55.14-1.65a1.434,1.434,0,0,0,.72,1.29v.075a2.43,2.43,0,0,0-1.2,1.905C54.66,2.97,55.965,3.81,57.96,3.81Zm-.09-7.005A2.05,2.05,0,0,1,55.875-5.37,1.984,1.984,0,0,1,57.87-7.5a1.981,1.981,0,0,1,1.98,2.13A2.047,2.047,0,0,1,57.87-3.195Zm.195,6.345c-1.635,0-2.58-.66-2.58-1.635a2.006,2.006,0,0,1,.99-1.605A5.622,5.622,0,0,0,57.48.045h1.635c1.185,0,1.815.315,1.815,1.17C60.93,2.175,59.805,3.15,58.065,3.15Z" transform="translate(707.943 -135.576)"/>
  </g>
  <g id="그룹_274" data-name="그룹 274" class="cls-2" transform="translate(0 281.588)">
    <g id="그룹_265" data-name="그룹 265" transform="translate(437.725 -184.809)">
      <path id="패스_613" data-name="패스 613" class="cls-3" d="M0,0A89.865,89.865,0,0,0,88.345,86.91"/>
    </g>
    <g id="그룹_266" data-name="그룹 266" transform="translate(530.48 -97.934)">
      <path id="패스_614" data-name="패스 614" class="cls-3" d="M0,0A89.865,89.865,0,0,0,86.91-88.345"/>
    </g>
    <g id="그룹_267" data-name="그룹 267" transform="translate(437.677 -187.749)">
      <path id="패스_615" data-name="패스 615" class="cls-4" d="M0,0H0M89.862,89.862h0M179.724,0h0"/>
    </g>
    <g id="그룹_268" data-name="그룹 268" transform="translate(226.213 -189.52)">
      <path id="패스_616" data-name="패스 616" class="cls-3" d="M0,0A89.865,89.865,0,0,1,88.345-86.91"/>
    </g>
    <g id="그룹_269" data-name="그룹 269" transform="translate(318.969 -276.395)">
      <path id="패스_617" data-name="패스 617" class="cls-3" d="M0,0A89.865,89.865,0,0,1,86.91,88.345"/>
    </g>
    <g id="그룹_270" data-name="그룹 270" transform="translate(226.166 -186.579)">
      <path id="패스_618" data-name="패스 618" class="cls-4" d="M0,0H0M89.862-89.862h0M179.725,0h0"/>
    </g>
    <g id="그룹_271" data-name="그룹 271" transform="translate(649.109 -189.52)">
      <path id="패스_619" data-name="패스 619" class="cls-3" d="M0,0A89.865,89.865,0,0,1,88.345-86.91"/>
    </g>
    <g id="그룹_272" data-name="그룹 272" transform="translate(741.865 -276.395)">
      <path id="패스_620" data-name="패스 620" class="cls-3" d="M0,0A89.865,89.865,0,0,1,86.91,88.345"/>
    </g>
    <g id="그룹_273" data-name="그룹 273" transform="translate(649.062 -186.579)">
      <path id="패스_621" data-name="패스 621" class="cls-4" d="M0,0H0M89.862-89.862h0M179.724,0h0"/>
    </g>
  </g>
  <g id="그룹_275" data-name="그룹 275" transform="translate(101 192.691)">
    <path id="패스_623" data-name="패스 623" class="cls-10" d="M0,0V12"/>
  </g>
  <g id="그룹_276" data-name="그룹 276" transform="translate(527.045 192.691)">
    <path id="패스_624" data-name="패스 624" class="cls-10" d="M0,0V12"/>
  </g>
  <g id="그룹_277" data-name="그룹 277" transform="translate(315.533 192.691)">
    <path id="패스_625" data-name="패스 625" class="cls-10" d="M0,0V12"/>
  </g>
  <g id="그룹_278" data-name="그룹 278" transform="translate(739.419 192.691)">
    <path id="패스_626" data-name="패스 626" class="cls-10" d="M0,0V12"/>
  </g>
  <g id="그룹_280" data-name="그룹 280" class="cls-2" transform="translate(0 281.588)">
    <g id="그룹_279" data-name="그룹 279" transform="translate(14.772 -172.978)">
      <path id="패스_627" data-name="패스 627" class="cls-11" d="M0,0A14.772,14.772,0,0,0,14.772-14.772,14.772,14.772,0,0,0,0-29.543,14.772,14.772,0,0,0-14.772-14.772,14.772,14.772,0,0,0,0,0"/>
    </g>
  </g>
  <path id="패스_1234" data-name="패스 1234" class="cls-8" d="M1.29,0h6.3V-1.425H5.43V-11.04h-1.3a6.782,6.782,0,0,1-2.4.84v1.1H3.7v7.68H1.29Z" transform="translate(10.539 99.502)"/>
  <g id="그룹_281" data-name="그룹 281" transform="translate(201.037 93.839)">
    <path id="패스_629" data-name="패스 629" class="cls-12" d="M0,0H26.07"/>
  </g>
  <g id="그룹_282" data-name="그룹 282" transform="translate(197.97 93.839)">
    <path id="패스_630" data-name="패스 630" class="cls-13" d="M0,0H0M30.67,0h0"/>
  </g>
  <g id="그룹_283" data-name="그룹 283" transform="translate(620.964 93.839)">
    <path id="패스_631" data-name="패스 631" class="cls-12" d="M0,0H26.07"/>
  </g>
  <g id="그룹_284" data-name="그룹 284" transform="translate(617.897 93.839)">
    <path id="패스_632" data-name="패스 632" class="cls-13" d="M0,0H0M30.67,0h0"/>
  </g>
  <g id="그룹_285" data-name="그룹 285" transform="translate(411.054 95.117)">
    <path id="패스_633" data-name="패스 633" class="cls-12" d="M0,0H26.07"/>
  </g>
  <g id="그룹_286" data-name="그룹 286" transform="translate(407.987 95.117)">
    <path id="패스_634" data-name="패스 634" class="cls-13" d="M0,0H0M30.67,0h0"/>
  </g>
  <g id="그룹_288" data-name="그룹 288" class="cls-2" transform="translate(0 281.588)">
    <g id="그룹_287" data-name="그룹 287" transform="translate(225.186 -174.736)">
      <path id="패스_635" data-name="패스 635" class="cls-11" d="M0,0A14.772,14.772,0,0,0,14.772-14.772,14.772,14.772,0,0,0,0-29.543,14.772,14.772,0,0,0-14.772-14.772,14.772,14.772,0,0,0,0,0"/>
    </g>
  </g>
  <path id="패스_1259" data-name="패스 1259" class="cls-8" d="M.66,0H7.785V-1.47H5.025c-.54,0-1.23.045-1.8.1C5.565-3.6,7.26-5.8,7.26-7.935A3.122,3.122,0,0,0,3.93-11.25,4.332,4.332,0,0,0,.57-9.6l.975.96A2.994,2.994,0,0,1,3.72-9.87,1.8,1.8,0,0,1,5.595-7.845C5.595-6.03,3.915-3.885.66-1Z" transform="translate(220.953 97.743)"/>
  <g id="그룹_290" data-name="그룹 290" class="cls-2" transform="translate(0 281.588)">
    <g id="그룹_289" data-name="그룹 289" transform="translate(430.018 -171.699)">
      <path id="패스_637" data-name="패스 637" class="cls-11" d="M0,0A14.772,14.772,0,0,0,14.772-14.772,14.772,14.772,0,0,0,0-29.543,14.772,14.772,0,0,0-14.772-14.772,14.772,14.772,0,0,0,0,0"/>
    </g>
  </g>
  <path id="패스_1257" data-name="패스 1257" class="cls-8" d="M4.02.2C6.045.2,7.71-.975,7.71-2.97A2.8,2.8,0,0,0,5.43-5.73V-5.8A2.668,2.668,0,0,0,7.335-8.4c0-1.83-1.395-2.85-3.375-2.85A4.653,4.653,0,0,0,.8-9.915l.9,1.08a3.233,3.233,0,0,1,2.2-1.05,1.545,1.545,0,0,1,1.695,1.6c0,1.11-.72,1.935-2.895,1.935V-5.07c2.49,0,3.27.8,3.27,2.025a1.854,1.854,0,0,1-2.1,1.83A3.568,3.568,0,0,1,1.26-2.43L.42-1.32A4.582,4.582,0,0,0,4.02.2Z" transform="translate(425.786 100.78)"/>
  <g id="그룹_292" data-name="그룹 292" class="cls-2" transform="translate(0 281.588)">
    <g id="그룹_291" data-name="그룹 291" transform="translate(642.701 -171.699)">
      <path id="패스_639" data-name="패스 639" class="cls-11" d="M0,0A14.772,14.772,0,0,0,14.772-14.772,14.772,14.772,0,0,0,0-29.543,14.772,14.772,0,0,0-14.772-14.772,14.772,14.772,0,0,0,0,0"/>
    </g>
  </g>
  <path id="패스_1258" data-name="패스 1258" class="cls-8" d="M2.04-4.3l2.175-3.33c.315-.57.615-1.14.885-1.695h.06c-.03.6-.09,1.53-.09,2.13V-4.3Zm6.06,0H6.69V-11.04h-2L.3-4.125V-2.97H5.07V0H6.69V-2.97H8.1Z" transform="translate(638.468 100.78)"/>
  <g id="그룹_294" data-name="그룹 294" class="cls-2" transform="translate(0 281.588)">
    <g id="그룹_293" data-name="그룹 293" transform="translate(833.658 -186.493)">
      <path id="패스_641" data-name="패스 641" class="cls-14" d="M0,0-4.4,4.308-8.8,0"/>
    </g>
  </g>
  <g id="그룹_297" data-name="그룹 297" class="cls-2" transform="translate(0 281.588)">
    <g id="그룹_296" data-name="그룹 296" transform="translate(128.467 -210.22)">
      <path id="패스_644" data-name="패스 644" class="cls-15" d="M0,0V-19.426l-34.033.213v5.574h-8.7L-51-4.052V9.523h5.278a5.411,5.411,0,0,0-.322,1.783,5.481,5.481,0,0,0,5.481,5.481,5.481,5.481,0,0,0,5.481-5.481A5.437,5.437,0,0,0-35.4,9.523h19.558a5.411,5.411,0,0,0-.322,1.783,5.48,5.48,0,0,0,5.48,5.481,5.48,5.48,0,0,0,5.481-5.481,5.437,5.437,0,0,0-.321-1.783H0Z"/>
    </g>
  </g>
  <path id="패스_646" data-name="패스 646" class="cls-16" d="M92.5-208.715h34v-20.062h-34Z" transform="translate(0 281.588)"/>
  <path id="패스_647" data-name="패스 647" class="cls-16" d="M90.958-201.566h35.435v-9.572H90.958Z" transform="translate(0 281.588)"/>
  <g id="그룹_300" data-name="그룹 300" class="cls-2" transform="translate(0 281.588)">
    <g id="그룹_298" data-name="그룹 298" transform="translate(121.186 -199.807)">
      <path id="패스_648" data-name="패스 648" class="cls-8" d="M0,0A5.5,5.5,0,0,1-5.506,5.505,5.5,5.5,0,0,1-11.011,0a5.506,5.506,0,0,1,5.5-5.506A5.506,5.506,0,0,1,0,0"/>
    </g>
    <g id="그룹_299" data-name="그룹 299" transform="translate(121.186 -199.807)">
      <path id="패스_649" data-name="패스 649" class="cls-17" d="M0,0A5.5,5.5,0,0,1-5.506,5.505,5.5,5.5,0,0,1-11.011,0a5.506,5.506,0,0,1,5.5-5.506A5.506,5.506,0,0,1,0,0Z"/>
    </g>
  </g>
  <g id="그룹_301" data-name="그룹 301" transform="translate(75.343 66.418)">
    <path id="패스_651" data-name="패스 651" class="cls-8" d="M0,0V13.6H17.017V-9.607H8.29Z"/>
  </g>
  <g id="그룹_302" data-name="그룹 302" transform="translate(75.343 66.418)">
    <path id="패스_652" data-name="패스 652" class="cls-17" d="M0,0V13.6H17.017V-9.607H8.29Z"/>
  </g>
  <g id="그룹_303" data-name="그룹 303" transform="translate(87.689 58.409)">
    <path id="패스_653" data-name="패스 653" class="cls-16" d="M0,0V10.709H-10.747"/>
  </g>
  <g id="그룹_317" data-name="그룹 317" class="cls-2" transform="translate(0 281.588)">
    <g id="그룹_304" data-name="그룹 304" transform="translate(91.311 -199.807)">
      <path id="패스_654" data-name="패스 654" class="cls-8" d="M0,0A5.5,5.5,0,0,1-5.505,5.505,5.5,5.5,0,0,1-11.011,0,5.506,5.506,0,0,1-5.505-5.506,5.506,5.506,0,0,1,0,0"/>
    </g>
    <g id="그룹_305" data-name="그룹 305" transform="translate(91.311 -199.807)">
      <path id="패스_655" data-name="패스 655" class="cls-17" d="M0,0A5.5,5.5,0,0,1-5.505,5.505,5.5,5.5,0,0,1-11.011,0,5.506,5.506,0,0,1-5.505-5.506,5.506,5.506,0,0,1,0,0Z"/>
    </g>
    <g id="그룹_306" data-name="그룹 306" transform="translate(88.658 -199.987)">
      <path id="패스_656" data-name="패스 656" class="cls-8" d="M0,0A2.853,2.853,0,0,1-2.853,2.853,2.853,2.853,0,0,1-5.707,0,2.853,2.853,0,0,1-2.853-2.853,2.853,2.853,0,0,1,0,0"/>
    </g>
    <g id="그룹_307" data-name="그룹 307" transform="translate(88.658 -199.987)">
      <path id="패스_657" data-name="패스 657" class="cls-17" d="M0,0A2.853,2.853,0,0,1-2.853,2.853,2.853,2.853,0,0,1-5.707,0,2.853,2.853,0,0,1-2.853-2.853,2.853,2.853,0,0,1,0,0Z"/>
    </g>
    <g id="그룹_308" data-name="그룹 308" transform="translate(118.534 -199.987)">
      <path id="패스_658" data-name="패스 658" class="cls-8" d="M0,0A2.853,2.853,0,0,1-2.853,2.853,2.853,2.853,0,0,1-5.707,0,2.853,2.853,0,0,1-2.853-2.853,2.853,2.853,0,0,1,0,0"/>
    </g>
    <g id="그룹_309" data-name="그룹 309" transform="translate(118.534 -199.987)">
      <path id="패스_659" data-name="패스 659" class="cls-17" d="M0,0A2.853,2.853,0,0,1-2.853,2.853,2.853,2.853,0,0,1-5.707,0,2.853,2.853,0,0,1-2.853-2.853,2.853,2.853,0,0,1,0,0Z"/>
    </g>
    <g id="그룹_310" data-name="그룹 310" transform="translate(758.519 -222.413)">
      <path id="패스_660" data-name="패스 660" class="cls-15" d="M0,0H-3.189a.5.5,0,0,1-.488-.394Q-4.221-2.9-4.765-5.4l-5.613-1.411-2.064,2.086a.5.5,0,0,1-.443.141.5.5,0,0,1-.367-.283l-1.382-3.008h-5.725l-1.353,2.946a.5.5,0,0,1-.354.282A.5.5,0,0,1-22.5-4.77q-.363-.328-.726-.66l-4.13,1.275q-.467,1.889-.934,3.775a.5.5,0,0,1-.486.38h-3.238V4.622h1.423a.5.5,0,0,1,.5.48l1.065,25.718a12.766,12.766,0,0,0,2.083.941c.618.175,7.471.379,10.627.317.874.017,2.235.012,3.731-.01a.427.427,0,0,1,.18-.044c1.389-.02,2.809,0,4.033.016l.3,0c1.32.019,2.685.04,2.93-.02.618-.174.861-.991.863-1l.267-4.964L-2.522,5.087a.5.5,0,0,1,.5-.465H0Z"/>
    </g>
    <g id="그룹_311" data-name="그룹 311" transform="translate(758.519 -222.413)">
      <path id="패스_661" data-name="패스 661" class="cls-18" d="M0,0H-3.189a.5.5,0,0,1-.488-.394Q-4.221-2.9-4.765-5.4l-5.613-1.411-2.064,2.086a.5.5,0,0,1-.443.141.5.5,0,0,1-.367-.283l-1.382-3.008h-5.725l-1.353,2.946a.5.5,0,0,1-.354.282A.5.5,0,0,1-22.5-4.77q-.363-.328-.726-.66l-4.13,1.275q-.467,1.889-.934,3.775a.5.5,0,0,1-.486.38h-3.238V4.622h1.423a.5.5,0,0,1,.5.48l1.065,25.718a12.766,12.766,0,0,0,2.083.941c.618.175,7.471.379,10.627.317.874.017,2.235.012,3.731-.01a.427.427,0,0,1,.18-.044c1.389-.02,2.809,0,4.033.016l.3,0c1.32.019,2.685.04,2.93-.02.618-.174.861-.991.863-1l.267-4.964L-2.522,5.087a.5.5,0,0,1,.5-.465H0Z"/>
    </g>
    <g id="그룹_312" data-name="그룹 312" transform="translate(754.724 -220.317)">
      <path id="패스_662" data-name="패스 662" class="cls-19" d="M0,0-2.059-9.478a.5.5,0,0,0-.366-.379l-6.191-1.557a.5.5,0,0,0-.477.133l-6.938,7.015"/>
    </g>
    <g id="그룹_313" data-name="그룹 313" transform="translate(739.326 -225.178)">
      <path id="패스_663" data-name="패스 663" class="cls-19" d="M0,0-5.576-5.062a.5.5,0,0,0-.483-.108l-4.672,1.442a.5.5,0,0,0-.338.358l-1.818,7.344"/>
    </g>
    <g id="그룹_314" data-name="그룹 314" transform="translate(747.701 -221.492)">
      <path id="패스_664" data-name="패스 664" class="cls-19" d="M0,0-5.04-10.971a.5.5,0,0,0-.455-.292h-6.366a.5.5,0,0,0-.455.291L-17.353,0"/>
    </g>
    <g id="그룹_315" data-name="그룹 315" transform="translate(725.558 -223.274)">
      <path id="패스_665" data-name="패스 665" class="cls-8" d="M0,0,0,.028-.039-.041l2.7,30.329a2.054,2.054,0,0,0,1.215,1.35c.755.212,7.968.39,10.773.336.9.017,2.349.011,3.933-.013l-.024-.041c3.348-.05,6.878.126,7.388-.018a2.052,2.052,0,0,0,1.211-1.347l.284-5.071L29.26,0Z"/>
    </g>
    <g id="그룹_316" data-name="그룹 316" transform="translate(725.558 -223.274)">
      <path id="패스_666" data-name="패스 666" class="cls-18" d="M0,0,0,.028-.039-.041l2.7,30.329a2.054,2.054,0,0,0,1.215,1.35c.755.212,7.968.39,10.773.336.9.017,2.349.011,3.933-.013l-.024-.041c3.348-.05,6.878.126,7.388-.018a2.052,2.052,0,0,0,1.211-1.347l.284-5.071L29.26,0Z"/>
    </g>
  </g>
  <path id="패스_668" data-name="패스 668" class="cls-19" d="M724.5-219.257h32.017v-4.622H724.5Z" transform="translate(0 281.588)"/>
  <g id="그룹_318" data-name="그룹 318" transform="translate(734.104 72.645)">
    <path id="패스_669" data-name="패스 669" class="cls-8" d="M0,0,2.862-5H8.747l1.492,2.5.927-.292L9.553.458H5.845l.766-.666L5.8-1.375,3.426,2.666Z"/>
  </g>
  <g id="그룹_319" data-name="그룹 319" transform="translate(734.104 72.645)">
    <path id="패스_670" data-name="패스 670" class="cls-20" d="M0,0,2.862-5H8.747l1.492,2.5.927-.292L9.553.458H5.845l.766-.666L5.8-1.375,3.426,2.666Z"/>
  </g>
  <g id="그룹_320" data-name="그룹 320" transform="translate(745.849 73.148)">
    <path id="패스_671" data-name="패스 671" class="cls-8" d="M0,0,3.183,4.787.7,10.3l-2.822.345-.134.992L-4.425,8.761l1.561-3.476.263,1,1.363-.265-2.545-3.93Z"/>
  </g>
  <g id="그룹_321" data-name="그룹 321" transform="translate(745.849 73.148)">
    <path id="패스_672" data-name="패스 672" class="cls-20" d="M0,0,3.183,4.787.7,10.3l-2.822.345-.134.992L-4.425,8.761l1.561-3.476.263,1,1.363-.265-2.545-3.93Z"/>
  </g>
  <g id="그룹_322" data-name="그룹 322" transform="translate(739.713 83.798)">
    <path id="패스_673" data-name="패스 673" class="cls-8" d="M0,0-5.664.21-8.869-4.9l1.241-2.643-.744-.648,3.546-.351,2.019,3.22-.964-.306L-4.29-4.3.324-4.412Z"/>
  </g>
  <g id="그룹_323" data-name="그룹 323" transform="translate(739.713 83.798)">
    <path id="패스_674" data-name="패스 674" class="cls-20" d="M0,0-5.664.21-8.869-4.9l1.241-2.643-.744-.648,3.546-.351,2.019,3.22-.964-.306L-4.29-4.3.324-4.412Z"/>
  </g>
  <g id="그룹_330" data-name="그룹 330" class="cls-2" transform="translate(0 281.588)">
    <g id="그룹_324" data-name="그룹 324" transform="translate(338.062 -214.273)">
      <path id="패스_675" data-name="패스 675" class="cls-15" d="M0,0A11.083,11.083,0,0,0-.813-1.913L-.96-2.19l.222-.222L.768-3.917-3.306-7.991-4.77-6.527l-.224.224-.278-.151a10.7,10.7,0,0,0-1.953-.8l-.3-.093V-9.738h-5.761v2.416l-.3.094a11.663,11.663,0,0,0-1.933.8l-.278.148-.222-.222-1.49-1.49-4.074,4.074,1.49,1.49.223.222-.149.278a11.664,11.664,0,0,0-.8,1.933l-.1.295h-2.416V6.062H-20.9l.092.3A11.076,11.076,0,0,0-20,8.275l.147.277-.222.222-1.506,1.506,4.074,4.074,1.464-1.464.224-.224.279.151a10.777,10.777,0,0,0,1.952.8l.3.092V16.1h5.761V13.685l.3-.1a11.543,11.543,0,0,0,1.933-.8l.278-.148.222.223,1.49,1.49L.768,10.28-.722,8.79l-.222-.222L-.8,8.29A11.786,11.786,0,0,0,0,6.357l.094-.3H2.515V.3H.092Z"/>
    </g>
    <g id="그룹_325" data-name="그룹 325" transform="translate(338.062 -214.273)">
      <path id="패스_676" data-name="패스 676" class="cls-21" d="M0,0A11.083,11.083,0,0,0-.813-1.913L-.96-2.19l.222-.222L.768-3.917-3.306-7.991-4.77-6.527l-.224.224-.278-.151a10.7,10.7,0,0,0-1.953-.8l-.3-.093V-9.738h-5.761v2.416l-.3.094a11.663,11.663,0,0,0-1.933.8l-.278.148-.222-.222-1.49-1.49-4.074,4.074,1.49,1.49.223.222-.149.278a11.664,11.664,0,0,0-.8,1.933l-.1.295h-2.416V6.062H-20.9l.092.3A11.076,11.076,0,0,0-20,8.275l.147.277-.222.222-1.506,1.506,4.074,4.074,1.464-1.464.224-.224.279.151a10.777,10.777,0,0,0,1.952.8l.3.092V16.1h5.761V13.685l.3-.1a11.543,11.543,0,0,0,1.933-.8l.278-.148.222.223,1.49,1.49L.768,10.28-.722,8.79l-.222-.222L-.8,8.29A11.786,11.786,0,0,0,0,6.357l.094-.3H2.515V.3H.092Z"/>
    </g>
    <g id="그룹_326" data-name="그룹 326" transform="translate(317.941 -208.331)">
      <path id="패스_677" data-name="패스 677" class="cls-15" d="M0,0V-20.7H-9.448V0q-2.937,7.236-5.873,14.473H5.871Q2.951,7.316.031.161L0,.083Z"/>
    </g>
    <g id="그룹_327" data-name="그룹 327" transform="translate(317.941 -208.331)">
      <path id="패스_678" data-name="패스 678" class="cls-21" d="M0,0V-20.7H-9.448V0q-2.937,7.236-5.873,14.473H5.871Q2.951,7.316.031.161L0,.083Z"/>
    </g>
    <g id="그룹_328" data-name="그룹 328" transform="translate(316.065 -209.666)">
      <path id="패스_679" data-name="패스 679" class="cls-8" d="M0,0V-19.555H-9.448V0q-2.93,6.767-5.857,13.534H5.855L.035.17,0,.089Z"/>
    </g>
    <g id="그룹_329" data-name="그룹 329" transform="translate(316.065 -209.666)">
      <path id="패스_680" data-name="패스 680" class="cls-21" d="M0,0V-19.555H-9.448V0q-2.93,6.767-5.857,13.534H5.855L.035.17,0,.089Z"/>
    </g>
  </g>
  <g id="그룹_331" data-name="그룹 331" transform="translate(303.589 52.367)">
    <path id="패스_682" data-name="패스 682" class="cls-21" d="M0,0H15.5"/>
  </g>
  <g id="그룹_332" data-name="그룹 332" transform="translate(306.303 71.909)">
    <path id="패스_683" data-name="패스 683" class="cls-21" d="M0,0H10.244"/>
  </g>
  <g id="그룹_333" data-name="그룹 333" transform="translate(306.219 56.224)">
    <path id="패스_684" data-name="패스 684" class="cls-21" d="M0,0H5.016"/>
  </g>
  <g id="그룹_334" data-name="그룹 334" transform="translate(306.219 59.888)">
    <path id="패스_685" data-name="패스 685" class="cls-21" d="M0,0H5.016"/>
  </g>
  <g id="그룹_335" data-name="그룹 335" transform="translate(306.219 63.552)">
    <path id="패스_686" data-name="패스 686" class="cls-21" d="M0,0H5.016"/>
  </g>
  <g id="그룹_340" data-name="그룹 340" class="cls-2" transform="translate(0 281.588)">
    <g id="그룹_336" data-name="그룹 336" transform="translate(336.985 -217.923)">
      <path id="패스_687" data-name="패스 687" class="cls-8" d="M0,0A11.49,11.49,0,0,0-.852-2.007L.972-3.832-3.75-8.554-5.532-6.772a11.37,11.37,0,0,0-2.05-.84v-2.529H-14.26v2.557a12.224,12.224,0,0,0-2.023.839l-1.808-1.809-2.4,2.4V8.257l2.845,6.534,1.341-1.341a11.361,11.361,0,0,0,2.049.84v2.529h6.678V14.262a12.22,12.22,0,0,0,2.023-.838l1.809,1.808L.972,10.51-.836,8.7A12.224,12.224,0,0,0,0,6.678H2.56V0Z"/>
    </g>
    <g id="그룹_337" data-name="그룹 337" transform="translate(336.985 -217.923)">
      <path id="패스_688" data-name="패스 688" class="cls-22" d="M0,0A11.49,11.49,0,0,0-.852-2.007L.972-3.832-3.75-8.554-5.532-6.772a11.37,11.37,0,0,0-2.05-.84v-2.529H-14.26v2.557a12.224,12.224,0,0,0-2.023.839l-1.808-1.809-2.4,2.4V8.257l2.845,6.534,1.341-1.341a11.361,11.361,0,0,0,2.049.84v2.529h6.678V14.262a12.22,12.22,0,0,0,2.023-.838l1.809,1.808L.972,10.51-.836,8.7A12.224,12.224,0,0,0,0,6.678H2.56V0Z"/>
    </g>
    <g id="그룹_338" data-name="그룹 338" transform="translate(326.065 -207.742)">
      <path id="패스_689" data-name="패스 689" class="cls-23" d="M0,0A6.841,6.841,0,0,0,6.841-6.841,6.841,6.841,0,0,0,0-13.683,6.841,6.841,0,0,0-6.841-6.841,6.841,6.841,0,0,0,0,0"/>
    </g>
    <g id="그룹_339" data-name="그룹 339" transform="translate(326.065 -207.742)">
      <path id="패스_690" data-name="패스 690" class="cls-22" d="M0,0A6.841,6.841,0,0,0,6.841-6.841,6.841,6.841,0,0,0,0-13.683,6.841,6.841,0,0,0-6.841-6.841,6.841,6.841,0,0,0,0,0Z"/>
    </g>
  </g>
  <g id="그룹_341" data-name="그룹 341" transform="translate(540.36 54.708)">
    <path id="패스_692" data-name="패스 692" class="cls-15" d="M0,0H-7.991V-3.818H-22.973V9.717H0Z"/>
  </g>
  <g id="그룹_342" data-name="그룹 342" transform="translate(540.36 54.708)">
    <path id="패스_693" data-name="패스 693" class="cls-24" d="M0,0H-7.991V-3.818H-22.973V9.717H0Z"/>
  </g>
  <path id="패스_694" data-name="패스 694" class="cls-25" d="M516.387-217.663h14.982V-231.2H516.387Z" transform="translate(0 281.588)"/>
  <path id="패스_695" data-name="패스 695" class="cls-25" d="M524.378-217.663H539.36v-9.717H524.378Z" transform="translate(0 281.588)"/>
  <g id="그룹_343" data-name="그룹 343" transform="translate(513.263 63.712)">
    <path id="패스_696" data-name="패스 696" class="cls-15" d="M0,0,4.383,15.959H27.85L32.089,0Z"/>
  </g>
  <g id="그룹_344" data-name="그룹 344" transform="translate(513.263 63.712)">
    <path id="패스_697" data-name="패스 697" class="cls-24" d="M0,0,4.383,15.959H27.85L32.089,0Z"/>
  </g>
  <g id="그룹_345" data-name="그룹 345" transform="translate(512.263 63.212)">
    <path id="패스_698" data-name="패스 698" class="cls-8" d="M0,0,4.383,15.959H27.85L32.089,0Z"/>
  </g>
  <g id="그룹_346" data-name="그룹 346" transform="translate(512.263 63.212)">
    <path id="패스_699" data-name="패스 699" class="cls-24" d="M0,0,4.383,15.959H27.85L32.089,0Z"/>
  </g>
  <g id="그룹_351" data-name="그룹 351" class="cls-2" transform="translate(0 281.588)">
    <g id="그룹_347" data-name="그룹 347" transform="translate(539.002 -194.88)">
      <path id="패스_700" data-name="패스 700" class="cls-15" d="M0,0A3,3,0,0,1-3,3,3,3,0,0,1-6,0,3,3,0,0,1-3-3,3,3,0,0,1,0,0"/>
    </g>
    <g id="그룹_348" data-name="그룹 348" transform="translate(539.002 -194.88)">
      <path id="패스_701" data-name="패스 701" class="cls-17" d="M0,0A3,3,0,0,1-3,3,3,3,0,0,1-6,0,3,3,0,0,1-3-3,3,3,0,0,1,0,0Z"/>
    </g>
    <g id="그룹_349" data-name="그룹 349" transform="translate(525.782 -194.88)">
      <path id="패스_702" data-name="패스 702" class="cls-15" d="M0,0A3,3,0,0,1-3,3,3,3,0,0,1-6,0,3,3,0,0,1-3-3,3,3,0,0,1,0,0"/>
    </g>
    <g id="그룹_350" data-name="그룹 350" transform="translate(525.782 -194.88)">
      <path id="패스_703" data-name="패스 703" class="cls-17" d="M0,0A3,3,0,0,1-3,3,3,3,0,0,1-6,0,3,3,0,0,1-3-3,3,3,0,0,1,0,0Z"/>
    </g>
  </g>
  <g id="그룹_352" data-name="그룹 352" transform="translate(541.502 84.708)">
    <path id="패스_705" data-name="패스 705" class="cls-24" d="M0,0H-23.5l-6.394-24.5-8.606-.01"/>
  </g>
  <g id="그룹_361" data-name="그룹 361" class="cls-2" transform="translate(0 281.588)">
    <g id="그룹_353" data-name="그룹 353" transform="translate(538.502 -195.38)">
      <path id="패스_706" data-name="패스 706" class="cls-8" d="M0,0A3,3,0,0,1-3,3,3,3,0,0,1-6,0,3,3,0,0,1-3-3,3,3,0,0,1,0,0"/>
    </g>
    <g id="그룹_354" data-name="그룹 354" transform="translate(538.502 -195.38)">
      <path id="패스_707" data-name="패스 707" class="cls-17" d="M0,0A3,3,0,0,1-3,3,3,3,0,0,1-6,0,3,3,0,0,1-3-3,3,3,0,0,1,0,0Z"/>
    </g>
    <g id="그룹_355" data-name="그룹 355" transform="translate(525.282 -195.38)">
      <path id="패스_708" data-name="패스 708" class="cls-8" d="M0,0A3,3,0,0,1-3,3,3,3,0,0,1-6,0,3,3,0,0,1-3-3,3,3,0,0,1,0,0"/>
    </g>
    <g id="그룹_356" data-name="그룹 356" transform="translate(525.282 -195.38)">
      <path id="패스_709" data-name="패스 709" class="cls-17" d="M0,0A3,3,0,0,1-3,3,3,3,0,0,1-6,0,3,3,0,0,1-3-3,3,3,0,0,1,0,0Z"/>
    </g>
    <g id="그룹_357" data-name="그룹 357" transform="translate(536.956 -195.38)">
      <path id="패스_710" data-name="패스 710" class="cls-8" d="M0,0A1.454,1.454,0,0,1-1.454,1.454,1.455,1.455,0,0,1-2.909,0,1.455,1.455,0,0,1-1.454-1.454,1.454,1.454,0,0,1,0,0"/>
    </g>
    <g id="그룹_358" data-name="그룹 358" transform="translate(536.956 -195.38)">
      <path id="패스_711" data-name="패스 711" class="cls-17" d="M0,0A1.454,1.454,0,0,1-1.454,1.454,1.455,1.455,0,0,1-2.909,0,1.455,1.455,0,0,1-1.454-1.454,1.454,1.454,0,0,1,0,0Z"/>
    </g>
    <g id="그룹_359" data-name="그룹 359" transform="translate(523.736 -195.38)">
      <path id="패스_712" data-name="패스 712" class="cls-8" d="M0,0A1.454,1.454,0,0,1-1.454,1.454,1.455,1.455,0,0,1-2.909,0,1.455,1.455,0,0,1-1.454-1.454,1.454,1.454,0,0,1,0,0"/>
    </g>
    <g id="그룹_360" data-name="그룹 360" transform="translate(523.736 -195.38)">
      <path id="패스_713" data-name="패스 713" class="cls-17" d="M0,0A1.454,1.454,0,0,1-1.454,1.454,1.455,1.455,0,0,1-2.909,0,1.455,1.455,0,0,1-1.454-1.454,1.454,1.454,0,0,1,0,0Z"/>
    </g>
  </g>
  <g id="그룹_362" data-name="그룹 362" transform="translate(513.502 68.213)">
    <path id="패스_715" data-name="패스 715" class="cls-24" d="M0,0H29.373"/>
  </g>
  <g id="그룹_363" data-name="그룹 363" transform="translate(515.008 73.215)">
    <path id="패스_716" data-name="패스 716" class="cls-24" d="M0,0H26.593"/>
  </g>
  <g id="그룹_364" data-name="그룹 364" transform="translate(534.445 62.709)">
    <path id="패스_717" data-name="패스 717" class="cls-24" d="M0,0-1.176,16.965"/>
  </g>
  <g id="그룹_365" data-name="그룹 365" transform="translate(522.929 62.709)">
    <path id="패스_718" data-name="패스 718" class="cls-24" d="M0,0,1.176,16.965"/>
  </g>
  <g id="그룹_857" data-name="그룹 857" class="cls-26" transform="translate(105.354 188.491) rotate(-90)">
    <g id="그룹_856" data-name="그룹 856" transform="translate(9.144 -5.001)">
      <path id="패스_1527" data-name="패스 1527" class="cls-14" d="M0,0-4.4,4.308-8.8,0"/>
    </g>
  </g>
  <g id="그룹_859" data-name="그룹 859" transform="translate(317.422 9.491) rotate(-90)">
    <g id="그룹_857-2" data-name="그룹 857" class="cls-26">
      <g id="그룹_856-2" data-name="그룹 856" transform="translate(9.144 -5.001)">
        <path id="패스_1527-2" data-name="패스 1527" class="cls-14" d="M0,0-4.4,4.308-8.8,0"/>
      </g>
    </g>
  </g>
  <g id="그룹_860" data-name="그룹 860" transform="translate(530.422 188.491) rotate(-90)">
    <g id="그룹_857-3" data-name="그룹 857" class="cls-26">
      <g id="그룹_856-3" data-name="그룹 856" transform="translate(9.144 -5.001)">
        <path id="패스_1527-3" data-name="패스 1527" class="cls-14" d="M0,0-4.4,4.308-8.8,0"/>
      </g>
    </g>
  </g>
</svg>
