<svg id="구성_요소_56_1" data-name="구성 요소 56 – 1" xmlns="http://www.w3.org/2000/svg" xmlns:xlink="http://www.w3.org/1999/xlink" width="834.004" height="276.937" viewBox="0 0 834.004 276.937">
  <defs>
    <style>
      .cls-1, .cls-11, .cls-14, .cls-15, .cls-16, .cls-20, .cls-21, .cls-23, .cls-24, .cls-25, .cls-27, .cls-3, .cls-4, .cls-5 {
        fill: none;
      }

      .cls-2 {
        clip-path: url(#clip-path);
      }

      .cls-11, .cls-3, .cls-4, .cls-5 {
        stroke: #42454a;
      }

      .cls-14, .cls-15, .cls-21, .cls-22, .cls-3, .cls-4, .cls-5 {
        stroke-linecap: round;
      }

      .cls-14, .cls-3, .cls-4 {
        stroke-linejoin: round;
      }

      .cls-14, .cls-15, .cls-16, .cls-3, .cls-4, .cls-5 {
        stroke-width: 0.99px;
      }

      .cls-3 {
        stroke-dasharray: 0 2.949;
      }

      .cls-4 {
        stroke-dasharray: 0 2.941;
      }

      .cls-6 {
        fill: #a0c0ea;
      }

      .cls-7, .cls-9 {
        fill: #1e2323;
      }

      .cls-10, .cls-13, .cls-7 {
        font-size: 15px;
      }

      .cls-13, .cls-7 {
        font-family: NotoSansKR-Medium, Noto Sans KR;
        font-weight: 500;
      }

      .cls-10, .cls-7, .cls-8, .cls-9 {
        letter-spacing: -0.02em;
      }

      .cls-8 {
        fill: #5170b0;
      }

      .cls-8, .cls-9 {
        font-size: 16px;
      }

      .cls-10, .cls-8, .cls-9 {
        font-family: NotoSansKR-Light, Noto Sans KR;
        font-weight: 300;
      }

      .cls-10, .cls-13, .cls-18, .cls-19, .cls-28 {
        fill: #fff;
      }

      .cls-12 {
        fill: #132d53;
      }

      .cls-14, .cls-15, .cls-16 {
        stroke: #5e6366;
      }

      .cls-14 {
        stroke-dasharray: 0 3.067;
      }

      .cls-17 {
        fill: #393c41;
      }

      .cls-18, .cls-20, .cls-21, .cls-22, .cls-24, .cls-25, .cls-27, .cls-28 {
        stroke: #393c41;
      }

      .cls-18, .cls-20, .cls-21, .cls-22, .cls-24, .cls-25 {
        stroke-miterlimit: 10;
      }

      .cls-22 {
        fill: #ebeff5;
      }

      .cls-23 {
        stroke: #2b2e34;
      }

      .cls-24 {
        stroke-width: 0.85px;
      }

      .cls-25 {
        stroke-width: 1.165px;
      }

      .cls-26 {
        fill: #78a4e1;
      }
    </style>
    <clipPath id="clip-path">
      <path id="패스_611" data-name="패스 611" class="cls-1" d="M0,0H834V-276.937H0Z"/>
    </clipPath>
  </defs>
  <g id="그룹_263" data-name="그룹 263" class="cls-2" transform="translate(0 276.937)">
    <g id="그룹_255" data-name="그룹 255" transform="translate(39.182 -249.313)">
      <path id="패스_603" data-name="패스 603" class="cls-3" d="M0,0A89.54,89.54,0,0,0-24.389,60.089"/>
    </g>
    <g id="그룹_256" data-name="그룹 256" transform="translate(14.828 -184.809)">
      <path id="패스_604" data-name="패스 604" class="cls-4" d="M0,0A89.865,89.865,0,0,0,88.345,86.91"/>
    </g>
    <g id="그룹_257" data-name="그룹 257" transform="translate(107.584 -97.934)">
      <path id="패스_605" data-name="패스 605" class="cls-4" d="M0,0A89.865,89.865,0,0,0,86.91-88.345"/>
    </g>
    <g id="그룹_258" data-name="그룹 258" transform="translate(41.237 -251.428)">
      <path id="패스_606" data-name="패스 606" class="cls-5" d="M0,0H0M-26.457,63.679h0m89.863,89.862h0m89.862-89.862h0"/>
    </g>
    <g id="그룹_259" data-name="그룹 259" transform="translate(104.643 -116.329)">
      <path id="패스_607" data-name="패스 607" class="cls-6" d="M0,0A71.42,71.42,0,0,0,71.42-71.42,71.42,71.42,0,0,0,0-142.841,71.42,71.42,0,0,0-71.42-71.42,71.42,71.42,0,0,0,0,0"/>
    </g>
    <g id="그룹_260" data-name="그룹 260" transform="translate(527.54 -116.329)">
      <path id="패스_608" data-name="패스 608" class="cls-6" d="M0,0A71.42,71.42,0,0,0,71.42-71.42,71.42,71.42,0,0,0,0-142.841,71.42,71.42,0,0,0-71.42-71.42,71.42,71.42,0,0,0,0,0"/>
    </g>
    <g id="그룹_261" data-name="그룹 261" transform="translate(316.028 -116.329)">
      <path id="패스_609" data-name="패스 609" class="cls-6" d="M0,0A71.42,71.42,0,0,0,71.42-71.42,71.42,71.42,0,0,0,0-142.841,71.42,71.42,0,0,0-71.42-71.42,71.42,71.42,0,0,0,0,0"/>
    </g>
    <g id="그룹_262" data-name="그룹 262" transform="translate(738.924 -116.329)">
      <path id="패스_610" data-name="패스 610" class="cls-6" d="M0,0A71.42,71.42,0,0,0,71.42-71.42,71.42,71.42,0,0,0,0-142.841,71.42,71.42,0,0,0-71.42-71.42,71.42,71.42,0,0,0,0,0"/>
    </g>
  </g>
  <text id="조달" class="cls-7" transform="translate(90.003 105.448)"><tspan x="0" y="0">조달</tspan></text>
  <g id="그룹" transform="translate(0 276.937)">
    <text id="판매_및_서비스" data-name="판매 및 서비스" class="cls-7" transform="translate(484.257 -171.621)"><tspan x="0" y="0">판매 및 서비스</tspan></text>
    <text id="연구개발_및_생산" data-name="연구개발 및 생산" class="cls-7" transform="translate(266.555 -172.913)"><tspan x="0" y="0">연구개발 및 생산</tspan></text>
    <text id="폐기_및_재활용" data-name="폐기 및 재활용" class="cls-7" transform="translate(694.815 -171.621)"><tspan x="0" y="0">폐기 및 재활용</tspan></text>
  </g>
  <g id="그룹-2" data-name="그룹" transform="translate(0 276.937)">
    <text id="_" data-name="• " class="cls-8" transform="translate(67.168 -50.147)"><tspan x="0" y="0">• </tspan></text>
    <text id="자재_공급" data-name="자재 공급" class="cls-9" transform="translate(75.991 -50.147)"><tspan x="0" y="0">자재 공급</tspan></text>
    <text id="_2" data-name="• " class="cls-8" transform="translate(67.168 -25.405)"><tspan x="0" y="0">• </tspan></text>
    <text id="부품_공급" data-name="부품 공급" class="cls-9" transform="translate(75.991 -25.405)"><tspan x="0" y="0">부품 공급</tspan></text>
    <text id="_3" data-name="• " class="cls-8" transform="translate(441.942 -50.147)"><tspan x="0" y="0">• </tspan></text>
    <text id="판매_렌탈_멤버쉽_일시불_" data-name="판매(렌탈, 멤버쉽, 일시불)" class="cls-9" transform="translate(450.765 -50.147)"><tspan x="0" y="0">판매(렌탈, 멤버쉽, 일시불)</tspan></text>
    <text id="_4" data-name="• " class="cls-8" transform="translate(441.942 -25.405)"><tspan x="0" y="0">• </tspan></text>
    <text id="서비스_프로그램" data-name="서비스 프로그램" class="cls-9" transform="translate(450.765 -25.405)"><tspan x="0" y="0">서비스 프로그램</tspan></text>
  </g>
  <g id="그룹_264" data-name="그룹 264" class="cls-2" transform="translate(0 276.937)">
    <g id="그룹-3" data-name="그룹">
      <text id="_5" data-name="• " class="cls-8" transform="translate(441.936 -0.648)"><tspan x="0" y="0">• </tspan></text>
      <text id="고객_커뮤니케이션" data-name="고객 커뮤니케이션" class="cls-9" transform="translate(450.759 -0.648)"><tspan x="0" y="0">고객 커뮤니케이션</tspan></text>
    </g>
  </g>
  <g id="그룹-4" data-name="그룹" transform="translate(0 276.937)">
    <text id="_6" data-name="• " class="cls-8" transform="translate(282.413 -50.147)"><tspan x="0" y="0">• </tspan></text>
    <text id="연구개발" class="cls-9" transform="translate(291.235 -50.147)"><tspan x="0" y="0">연구개발</tspan></text>
    <text id="_7" data-name="• " class="cls-8" transform="translate(282.413 -25.405)"><tspan x="0" y="0">• </tspan></text>
    <text id="제품생산" class="cls-9" transform="translate(291.235 -25.405)"><tspan x="0" y="0">제품생산</tspan></text>
    <text id="_8" data-name="• " class="cls-8" transform="translate(686.206 -50.147)"><tspan x="0" y="0">• </tspan></text>
    <text id="리퍼브_제품_판매" data-name="리퍼브 제품 판매" class="cls-9" transform="translate(695.029 -50.147)"><tspan x="0" y="0">리퍼브 제품 판매</tspan></text>
    <text id="_9" data-name="• " class="cls-8" transform="translate(686.206 -25.405)"><tspan x="0" y="0">• </tspan></text>
    <text id="원재료_재활용" data-name="원재료 재활용" class="cls-9" transform="translate(695.029 -25.405)"><tspan x="0" y="0">원재료 재활용</tspan></text>
  </g>
  <g id="그룹-5" data-name="그룹" transform="translate(0 276.937)">
    <text id="Procurement" class="cls-10" transform="translate(61.773 -152.571)"><tspan x="0" y="0">Procurement</tspan></text>
    <text id="Sales_" data-name="Sales &amp;" class="cls-10" transform="translate(504.438 -152.571)"><tspan x="0" y="0">Sales &amp;</tspan></text>
    <text id="_10" data-name=" " class="cls-10" transform="translate(552.273 -152.571)"><tspan x="0" y="0"> </tspan></text>
    <text id="Ser" class="cls-10" transform="translate(501.453 -135.576)"><tspan x="0" y="0">Ser</tspan></text>
    <text id="vic" class="cls-10" transform="translate(523.263 -135.576)"><tspan x="0" y="0">vic</tspan></text>
    <text id="es" class="cls-10" transform="translate(540.723 -135.576)"><tspan x="0" y="0">es</tspan></text>
    <text id="R_D" data-name="R&amp;D" class="cls-10" transform="translate(301.893 -152.571)"><tspan x="0" y="0">R&amp;D</tspan></text>
    <text id="_11" data-name=" " class="cls-10" transform="translate(330.168 -152.571)"><tspan x="0" y="0"> </tspan></text>
    <text id="Production" class="cls-10" transform="translate(279.633 -135.576)"><tspan x="0" y="0">Production</tspan></text>
    <text id="Disposal_" data-name="Disposal &amp;" class="cls-10" transform="translate(704.493 -152.571)"><tspan x="0" y="0">Disposal &amp;</tspan></text>
    <text id="_12" data-name=" " class="cls-10" transform="translate(773.358 -152.571)"><tspan x="0" y="0"> </tspan></text>
    <text id="Recycling" class="cls-10" transform="translate(707.943 -135.576)"><tspan x="0" y="0">Recycling</tspan></text>
  </g>
  <g id="그룹_274" data-name="그룹 274" class="cls-2" transform="translate(0 276.937)">
    <g id="그룹_265" data-name="그룹 265" transform="translate(437.725 -184.809)">
      <path id="패스_613" data-name="패스 613" class="cls-4" d="M0,0A89.865,89.865,0,0,0,88.345,86.91"/>
    </g>
    <g id="그룹_266" data-name="그룹 266" transform="translate(530.48 -97.934)">
      <path id="패스_614" data-name="패스 614" class="cls-4" d="M0,0A89.865,89.865,0,0,0,86.91-88.345"/>
    </g>
    <g id="그룹_267" data-name="그룹 267" transform="translate(437.677 -187.749)">
      <path id="패스_615" data-name="패스 615" class="cls-5" d="M0,0H0M89.862,89.862h0M179.724,0h0"/>
    </g>
    <g id="그룹_268" data-name="그룹 268" transform="translate(226.213 -189.52)">
      <path id="패스_616" data-name="패스 616" class="cls-4" d="M0,0A89.865,89.865,0,0,1,88.345-86.91"/>
    </g>
    <g id="그룹_269" data-name="그룹 269" transform="translate(318.969 -276.395)">
      <path id="패스_617" data-name="패스 617" class="cls-4" d="M0,0A89.865,89.865,0,0,1,86.91,88.345"/>
    </g>
    <g id="그룹_270" data-name="그룹 270" transform="translate(226.166 -186.579)">
      <path id="패스_618" data-name="패스 618" class="cls-5" d="M0,0H0M89.862-89.862h0M179.725,0h0"/>
    </g>
    <g id="그룹_271" data-name="그룹 271" transform="translate(649.109 -189.52)">
      <path id="패스_619" data-name="패스 619" class="cls-4" d="M0,0A89.865,89.865,0,0,1,88.345-86.91"/>
    </g>
    <g id="그룹_272" data-name="그룹 272" transform="translate(741.865 -276.395)">
      <path id="패스_620" data-name="패스 620" class="cls-4" d="M0,0A89.865,89.865,0,0,1,86.91,88.345"/>
    </g>
    <g id="그룹_273" data-name="그룹 273" transform="translate(649.062 -186.579)">
      <path id="패스_621" data-name="패스 621" class="cls-5" d="M0,0H0M89.862-89.862h0M179.724,0h0"/>
    </g>
  </g>
  <g id="그룹_275" data-name="그룹 275" transform="translate(104.643 188.04)">
    <path id="패스_623" data-name="패스 623" class="cls-11" d="M0,0V12"/>
  </g>
  <g id="그룹_276" data-name="그룹 276" transform="translate(527.045 188.04)">
    <path id="패스_624" data-name="패스 624" class="cls-11" d="M0,0V12"/>
  </g>
  <g id="그룹_277" data-name="그룹 277" transform="translate(315.533 188.04)">
    <path id="패스_625" data-name="패스 625" class="cls-11" d="M0,0V12"/>
  </g>
  <g id="그룹_278" data-name="그룹 278" transform="translate(739.419 188.04)">
    <path id="패스_626" data-name="패스 626" class="cls-11" d="M0,0V12"/>
  </g>
  <g id="그룹_280" data-name="그룹 280" class="cls-2" transform="translate(0 276.937)">
    <g id="그룹_279" data-name="그룹 279" transform="translate(14.772 -172.978)">
      <path id="패스_627" data-name="패스 627" class="cls-12" d="M0,0A14.772,14.772,0,0,0,14.772-14.772,14.772,14.772,0,0,0,0-29.543,14.772,14.772,0,0,0-14.772-14.772,14.772,14.772,0,0,0,0,0"/>
    </g>
  </g>
  <text id="_1" data-name="1" class="cls-13" transform="translate(10.539 94.851)"><tspan x="0" y="0">1</tspan></text>
  <g id="그룹_281" data-name="그룹 281" transform="translate(201.037 89.188)">
    <path id="패스_629" data-name="패스 629" class="cls-14" d="M0,0H26.07"/>
  </g>
  <g id="그룹_282" data-name="그룹 282" transform="translate(197.97 89.188)">
    <path id="패스_630" data-name="패스 630" class="cls-15" d="M0,0H0M30.67,0h0"/>
  </g>
  <g id="그룹_283" data-name="그룹 283" transform="translate(620.964 89.188)">
    <path id="패스_631" data-name="패스 631" class="cls-14" d="M0,0H26.07"/>
  </g>
  <g id="그룹_284" data-name="그룹 284" transform="translate(617.897 89.188)">
    <path id="패스_632" data-name="패스 632" class="cls-15" d="M0,0H0M30.67,0h0"/>
  </g>
  <g id="그룹_285" data-name="그룹 285" transform="translate(411.054 90.466)">
    <path id="패스_633" data-name="패스 633" class="cls-14" d="M0,0H26.07"/>
  </g>
  <g id="그룹_286" data-name="그룹 286" transform="translate(407.987 90.466)">
    <path id="패스_634" data-name="패스 634" class="cls-15" d="M0,0H0M30.67,0h0"/>
  </g>
  <g id="그룹_288" data-name="그룹 288" class="cls-2" transform="translate(0 276.937)">
    <g id="그룹_287" data-name="그룹 287" transform="translate(225.186 -174.736)">
      <path id="패스_635" data-name="패스 635" class="cls-12" d="M0,0A14.772,14.772,0,0,0,14.772-14.772,14.772,14.772,0,0,0,0-29.543,14.772,14.772,0,0,0-14.772-14.772,14.772,14.772,0,0,0,0,0"/>
    </g>
  </g>
  <text id="_2-2" data-name="2" class="cls-13" transform="translate(220.953 93.092)"><tspan x="0" y="0">2</tspan></text>
  <g id="그룹_290" data-name="그룹 290" class="cls-2" transform="translate(0 276.937)">
    <g id="그룹_289" data-name="그룹 289" transform="translate(430.018 -171.699)">
      <path id="패스_637" data-name="패스 637" class="cls-12" d="M0,0A14.772,14.772,0,0,0,14.772-14.772,14.772,14.772,0,0,0,0-29.543,14.772,14.772,0,0,0-14.772-14.772,14.772,14.772,0,0,0,0,0"/>
    </g>
  </g>
  <text id="_3-2" data-name="3" class="cls-13" transform="translate(425.786 96.129)"><tspan x="0" y="0">3</tspan></text>
  <g id="그룹_292" data-name="그룹 292" class="cls-2" transform="translate(0 276.937)">
    <g id="그룹_291" data-name="그룹 291" transform="translate(642.701 -171.699)">
      <path id="패스_639" data-name="패스 639" class="cls-12" d="M0,0A14.772,14.772,0,0,0,14.772-14.772,14.772,14.772,0,0,0,0-29.543,14.772,14.772,0,0,0-14.772-14.772,14.772,14.772,0,0,0,0,0"/>
    </g>
  </g>
  <text id="_4-2" data-name="4" class="cls-13" transform="translate(638.468 96.129)"><tspan x="0" y="0">4</tspan></text>
  <g id="그룹_294" data-name="그룹 294" class="cls-2" transform="translate(0 276.937)">
    <g id="그룹_293" data-name="그룹 293" transform="translate(833.658 -186.493)">
      <path id="패스_641" data-name="패스 641" class="cls-16" d="M0,0-4.4,4.308-8.8,0"/>
    </g>
  </g>
  <g id="그룹_295" data-name="그룹 295" transform="translate(38.519 22.271)">
    <path id="패스_643" data-name="패스 643" class="cls-16" d="M0,0,6.1.814,5.417,6.933"/>
  </g>
  <g id="그룹_297" data-name="그룹 297" class="cls-2" transform="translate(0 276.937)">
    <g id="그룹_296" data-name="그룹 296" transform="translate(128.467 -210.22)">
      <path id="패스_644" data-name="패스 644" class="cls-17" d="M0,0V-19.426l-34.033.213v5.574h-8.7L-51-4.052V9.523h5.278a5.411,5.411,0,0,0-.322,1.783,5.481,5.481,0,0,0,5.481,5.481,5.481,5.481,0,0,0,5.481-5.481A5.437,5.437,0,0,0-35.4,9.523h19.558a5.411,5.411,0,0,0-.322,1.783,5.48,5.48,0,0,0,5.48,5.481,5.48,5.48,0,0,0,5.481-5.481,5.437,5.437,0,0,0-.321-1.783H0Z"/>
    </g>
  </g>
  <path id="패스_646" data-name="패스 646" class="cls-18" d="M92.5-208.715h34v-20.062h-34Z" transform="translate(0 276.937)"/>
  <path id="패스_647" data-name="패스 647" class="cls-18" d="M90.958-201.566h35.435v-9.572H90.958Z" transform="translate(0 276.937)"/>
  <g id="그룹_300" data-name="그룹 300" class="cls-2" transform="translate(0 276.937)">
    <g id="그룹_298" data-name="그룹 298" transform="translate(121.186 -199.807)">
      <path id="패스_648" data-name="패스 648" class="cls-19" d="M0,0A5.5,5.5,0,0,1-5.506,5.505,5.5,5.5,0,0,1-11.011,0a5.506,5.506,0,0,1,5.5-5.506A5.506,5.506,0,0,1,0,0"/>
    </g>
    <g id="그룹_299" data-name="그룹 299" transform="translate(121.186 -199.807)">
      <path id="패스_649" data-name="패스 649" class="cls-20" d="M0,0A5.5,5.5,0,0,1-5.506,5.505,5.5,5.5,0,0,1-11.011,0a5.506,5.506,0,0,1,5.5-5.506A5.506,5.506,0,0,1,0,0Z"/>
    </g>
  </g>
  <g id="그룹_301" data-name="그룹 301" transform="translate(75.343 61.767)">
    <path id="패스_651" data-name="패스 651" class="cls-19" d="M0,0V13.6H17.017V-9.607H8.29Z"/>
  </g>
  <g id="그룹_302" data-name="그룹 302" transform="translate(75.343 61.767)">
    <path id="패스_652" data-name="패스 652" class="cls-20" d="M0,0V13.6H17.017V-9.607H8.29Z"/>
  </g>
  <g id="그룹_303" data-name="그룹 303" transform="translate(87.689 53.758)">
    <path id="패스_653" data-name="패스 653" class="cls-18" d="M0,0V10.709H-10.747"/>
  </g>
  <g id="그룹_317" data-name="그룹 317" class="cls-2" transform="translate(0 276.937)">
    <g id="그룹_304" data-name="그룹 304" transform="translate(91.311 -199.807)">
      <path id="패스_654" data-name="패스 654" class="cls-19" d="M0,0A5.5,5.5,0,0,1-5.505,5.505,5.5,5.5,0,0,1-11.011,0,5.506,5.506,0,0,1-5.505-5.506,5.506,5.506,0,0,1,0,0"/>
    </g>
    <g id="그룹_305" data-name="그룹 305" transform="translate(91.311 -199.807)">
      <path id="패스_655" data-name="패스 655" class="cls-20" d="M0,0A5.5,5.5,0,0,1-5.505,5.505,5.5,5.5,0,0,1-11.011,0,5.506,5.506,0,0,1-5.505-5.506,5.506,5.506,0,0,1,0,0Z"/>
    </g>
    <g id="그룹_306" data-name="그룹 306" transform="translate(88.658 -199.987)">
      <path id="패스_656" data-name="패스 656" class="cls-19" d="M0,0A2.853,2.853,0,0,1-2.853,2.853,2.853,2.853,0,0,1-5.707,0,2.853,2.853,0,0,1-2.853-2.853,2.853,2.853,0,0,1,0,0"/>
    </g>
    <g id="그룹_307" data-name="그룹 307" transform="translate(88.658 -199.987)">
      <path id="패스_657" data-name="패스 657" class="cls-20" d="M0,0A2.853,2.853,0,0,1-2.853,2.853,2.853,2.853,0,0,1-5.707,0,2.853,2.853,0,0,1-2.853-2.853,2.853,2.853,0,0,1,0,0Z"/>
    </g>
    <g id="그룹_308" data-name="그룹 308" transform="translate(118.534 -199.987)">
      <path id="패스_658" data-name="패스 658" class="cls-19" d="M0,0A2.853,2.853,0,0,1-2.853,2.853,2.853,2.853,0,0,1-5.707,0,2.853,2.853,0,0,1-2.853-2.853,2.853,2.853,0,0,1,0,0"/>
    </g>
    <g id="그룹_309" data-name="그룹 309" transform="translate(118.534 -199.987)">
      <path id="패스_659" data-name="패스 659" class="cls-20" d="M0,0A2.853,2.853,0,0,1-2.853,2.853,2.853,2.853,0,0,1-5.707,0,2.853,2.853,0,0,1-2.853-2.853,2.853,2.853,0,0,1,0,0Z"/>
    </g>
    <g id="그룹_310" data-name="그룹 310" transform="translate(758.519 -222.413)">
      <path id="패스_660" data-name="패스 660" class="cls-17" d="M0,0H-3.189a.5.5,0,0,1-.488-.394Q-4.221-2.9-4.765-5.4l-5.613-1.411-2.064,2.086a.5.5,0,0,1-.443.141.5.5,0,0,1-.367-.283l-1.382-3.008h-5.725l-1.353,2.946a.5.5,0,0,1-.354.282A.5.5,0,0,1-22.5-4.77q-.363-.328-.726-.66l-4.13,1.275q-.467,1.889-.934,3.775a.5.5,0,0,1-.486.38h-3.238V4.622h1.423a.5.5,0,0,1,.5.48l1.065,25.718a12.766,12.766,0,0,0,2.083.941c.618.175,7.471.379,10.627.317.874.017,2.235.012,3.731-.01a.427.427,0,0,1,.18-.044c1.389-.02,2.809,0,4.033.016l.3,0c1.32.019,2.685.04,2.93-.02.618-.174.861-.991.863-1l.267-4.964L-2.522,5.087a.5.5,0,0,1,.5-.465H0Z"/>
    </g>
    <g id="그룹_311" data-name="그룹 311" transform="translate(758.519 -222.413)">
      <path id="패스_661" data-name="패스 661" class="cls-21" d="M0,0H-3.189a.5.5,0,0,1-.488-.394Q-4.221-2.9-4.765-5.4l-5.613-1.411-2.064,2.086a.5.5,0,0,1-.443.141.5.5,0,0,1-.367-.283l-1.382-3.008h-5.725l-1.353,2.946a.5.5,0,0,1-.354.282A.5.5,0,0,1-22.5-4.77q-.363-.328-.726-.66l-4.13,1.275q-.467,1.889-.934,3.775a.5.5,0,0,1-.486.38h-3.238V4.622h1.423a.5.5,0,0,1,.5.48l1.065,25.718a12.766,12.766,0,0,0,2.083.941c.618.175,7.471.379,10.627.317.874.017,2.235.012,3.731-.01a.427.427,0,0,1,.18-.044c1.389-.02,2.809,0,4.033.016l.3,0c1.32.019,2.685.04,2.93-.02.618-.174.861-.991.863-1l.267-4.964L-2.522,5.087a.5.5,0,0,1,.5-.465H0Z"/>
    </g>
    <g id="그룹_312" data-name="그룹 312" transform="translate(754.724 -220.317)">
      <path id="패스_662" data-name="패스 662" class="cls-22" d="M0,0-2.059-9.478a.5.5,0,0,0-.366-.379l-6.191-1.557a.5.5,0,0,0-.477.133l-6.938,7.015"/>
    </g>
    <g id="그룹_313" data-name="그룹 313" transform="translate(739.326 -225.178)">
      <path id="패스_663" data-name="패스 663" class="cls-22" d="M0,0-5.576-5.062a.5.5,0,0,0-.483-.108l-4.672,1.442a.5.5,0,0,0-.338.358l-1.818,7.344"/>
    </g>
    <g id="그룹_314" data-name="그룹 314" transform="translate(747.701 -221.492)">
      <path id="패스_664" data-name="패스 664" class="cls-22" d="M0,0-5.04-10.971a.5.5,0,0,0-.455-.292h-6.366a.5.5,0,0,0-.455.291L-17.353,0"/>
    </g>
    <g id="그룹_315" data-name="그룹 315" transform="translate(725.558 -223.274)">
      <path id="패스_665" data-name="패스 665" class="cls-19" d="M0,0,0,.028-.039-.041l2.7,30.329a2.054,2.054,0,0,0,1.215,1.35c.755.212,7.968.39,10.773.336.9.017,2.349.011,3.933-.013l-.024-.041c3.348-.05,6.878.126,7.388-.018a2.052,2.052,0,0,0,1.211-1.347l.284-5.071L29.26,0Z"/>
    </g>
    <g id="그룹_316" data-name="그룹 316" transform="translate(725.558 -223.274)">
      <path id="패스_666" data-name="패스 666" class="cls-21" d="M0,0,0,.028-.039-.041l2.7,30.329a2.054,2.054,0,0,0,1.215,1.35c.755.212,7.968.39,10.773.336.9.017,2.349.011,3.933-.013l-.024-.041c3.348-.05,6.878.126,7.388-.018a2.052,2.052,0,0,0,1.211-1.347l.284-5.071L29.26,0Z"/>
    </g>
  </g>
  <path id="패스_668" data-name="패스 668" class="cls-22" d="M724.5-219.257h32.017v-4.622H724.5Z" transform="translate(0 276.937)"/>
  <g id="그룹_318" data-name="그룹 318" transform="translate(734.104 67.994)">
    <path id="패스_669" data-name="패스 669" class="cls-19" d="M0,0,2.862-5H8.747l1.492,2.5.927-.292L9.553.458H5.845l.766-.666L5.8-1.375,3.426,2.666Z"/>
  </g>
  <g id="그룹_319" data-name="그룹 319" transform="translate(734.104 67.994)">
    <path id="패스_670" data-name="패스 670" class="cls-23" d="M0,0,2.862-5H8.747l1.492,2.5.927-.292L9.553.458H5.845l.766-.666L5.8-1.375,3.426,2.666Z"/>
  </g>
  <g id="그룹_320" data-name="그룹 320" transform="translate(745.849 68.497)">
    <path id="패스_671" data-name="패스 671" class="cls-19" d="M0,0,3.183,4.787.7,10.3l-2.822.345-.134.992L-4.425,8.761l1.561-3.476.263,1,1.363-.265-2.545-3.93Z"/>
  </g>
  <g id="그룹_321" data-name="그룹 321" transform="translate(745.849 68.497)">
    <path id="패스_672" data-name="패스 672" class="cls-23" d="M0,0,3.183,4.787.7,10.3l-2.822.345-.134.992L-4.425,8.761l1.561-3.476.263,1,1.363-.265-2.545-3.93Z"/>
  </g>
  <g id="그룹_322" data-name="그룹 322" transform="translate(739.713 79.147)">
    <path id="패스_673" data-name="패스 673" class="cls-19" d="M0,0-5.664.21-8.869-4.9l1.241-2.643-.744-.648,3.546-.351,2.019,3.22-.964-.306L-4.29-4.3.324-4.412Z"/>
  </g>
  <g id="그룹_323" data-name="그룹 323" transform="translate(739.713 79.147)">
    <path id="패스_674" data-name="패스 674" class="cls-23" d="M0,0-5.664.21-8.869-4.9l1.241-2.643-.744-.648,3.546-.351,2.019,3.22-.964-.306L-4.29-4.3.324-4.412Z"/>
  </g>
  <g id="그룹_330" data-name="그룹 330" class="cls-2" transform="translate(0 276.937)">
    <g id="그룹_324" data-name="그룹 324" transform="translate(338.062 -214.273)">
      <path id="패스_675" data-name="패스 675" class="cls-17" d="M0,0A11.083,11.083,0,0,0-.813-1.913L-.96-2.19l.222-.222L.768-3.917-3.306-7.991-4.77-6.527l-.224.224-.278-.151a10.7,10.7,0,0,0-1.953-.8l-.3-.093V-9.738h-5.761v2.416l-.3.094a11.663,11.663,0,0,0-1.933.8l-.278.148-.222-.222-1.49-1.49-4.074,4.074,1.49,1.49.223.222-.149.278a11.664,11.664,0,0,0-.8,1.933l-.1.295h-2.416V6.062H-20.9l.092.3A11.076,11.076,0,0,0-20,8.275l.147.277-.222.222-1.506,1.506,4.074,4.074,1.464-1.464.224-.224.279.151a10.777,10.777,0,0,0,1.952.8l.3.092V16.1h5.761V13.685l.3-.1a11.543,11.543,0,0,0,1.933-.8l.278-.148.222.223,1.49,1.49L.768,10.28-.722,8.79l-.222-.222L-.8,8.29A11.786,11.786,0,0,0,0,6.357l.094-.3H2.515V.3H.092Z"/>
    </g>
    <g id="그룹_325" data-name="그룹 325" transform="translate(338.062 -214.273)">
      <path id="패스_676" data-name="패스 676" class="cls-24" d="M0,0A11.083,11.083,0,0,0-.813-1.913L-.96-2.19l.222-.222L.768-3.917-3.306-7.991-4.77-6.527l-.224.224-.278-.151a10.7,10.7,0,0,0-1.953-.8l-.3-.093V-9.738h-5.761v2.416l-.3.094a11.663,11.663,0,0,0-1.933.8l-.278.148-.222-.222-1.49-1.49-4.074,4.074,1.49,1.49.223.222-.149.278a11.664,11.664,0,0,0-.8,1.933l-.1.295h-2.416V6.062H-20.9l.092.3A11.076,11.076,0,0,0-20,8.275l.147.277-.222.222-1.506,1.506,4.074,4.074,1.464-1.464.224-.224.279.151a10.777,10.777,0,0,0,1.952.8l.3.092V16.1h5.761V13.685l.3-.1a11.543,11.543,0,0,0,1.933-.8l.278-.148.222.223,1.49,1.49L.768,10.28-.722,8.79l-.222-.222L-.8,8.29A11.786,11.786,0,0,0,0,6.357l.094-.3H2.515V.3H.092Z"/>
    </g>
    <g id="그룹_326" data-name="그룹 326" transform="translate(317.941 -208.331)">
      <path id="패스_677" data-name="패스 677" class="cls-17" d="M0,0V-20.7H-9.448V0q-2.937,7.236-5.873,14.473H5.871Q2.951,7.316.031.161L0,.083Z"/>
    </g>
    <g id="그룹_327" data-name="그룹 327" transform="translate(317.941 -208.331)">
      <path id="패스_678" data-name="패스 678" class="cls-24" d="M0,0V-20.7H-9.448V0q-2.937,7.236-5.873,14.473H5.871Q2.951,7.316.031.161L0,.083Z"/>
    </g>
    <g id="그룹_328" data-name="그룹 328" transform="translate(316.065 -209.666)">
      <path id="패스_679" data-name="패스 679" class="cls-19" d="M0,0V-19.555H-9.448V0q-2.93,6.767-5.857,13.534H5.855L.035.17,0,.089Z"/>
    </g>
    <g id="그룹_329" data-name="그룹 329" transform="translate(316.065 -209.666)">
      <path id="패스_680" data-name="패스 680" class="cls-24" d="M0,0V-19.555H-9.448V0q-2.93,6.767-5.857,13.534H5.855L.035.17,0,.089Z"/>
    </g>
  </g>
  <g id="그룹_331" data-name="그룹 331" transform="translate(303.589 47.716)">
    <path id="패스_682" data-name="패스 682" class="cls-24" d="M0,0H15.5"/>
  </g>
  <g id="그룹_332" data-name="그룹 332" transform="translate(306.303 67.258)">
    <path id="패스_683" data-name="패스 683" class="cls-24" d="M0,0H10.244"/>
  </g>
  <g id="그룹_333" data-name="그룹 333" transform="translate(306.219 51.573)">
    <path id="패스_684" data-name="패스 684" class="cls-24" d="M0,0H5.016"/>
  </g>
  <g id="그룹_334" data-name="그룹 334" transform="translate(306.219 55.237)">
    <path id="패스_685" data-name="패스 685" class="cls-24" d="M0,0H5.016"/>
  </g>
  <g id="그룹_335" data-name="그룹 335" transform="translate(306.219 58.901)">
    <path id="패스_686" data-name="패스 686" class="cls-24" d="M0,0H5.016"/>
  </g>
  <g id="그룹_340" data-name="그룹 340" class="cls-2" transform="translate(0 276.937)">
    <g id="그룹_336" data-name="그룹 336" transform="translate(336.985 -217.923)">
      <path id="패스_687" data-name="패스 687" class="cls-19" d="M0,0A11.49,11.49,0,0,0-.852-2.007L.972-3.832-3.75-8.554-5.532-6.772a11.37,11.37,0,0,0-2.05-.84v-2.529H-14.26v2.557a12.224,12.224,0,0,0-2.023.839l-1.808-1.809-2.4,2.4V8.257l2.845,6.534,1.341-1.341a11.361,11.361,0,0,0,2.049.84v2.529h6.678V14.262a12.22,12.22,0,0,0,2.023-.838l1.809,1.808L.972,10.51-.836,8.7A12.224,12.224,0,0,0,0,6.678H2.56V0Z"/>
    </g>
    <g id="그룹_337" data-name="그룹 337" transform="translate(336.985 -217.923)">
      <path id="패스_688" data-name="패스 688" class="cls-25" d="M0,0A11.49,11.49,0,0,0-.852-2.007L.972-3.832-3.75-8.554-5.532-6.772a11.37,11.37,0,0,0-2.05-.84v-2.529H-14.26v2.557a12.224,12.224,0,0,0-2.023.839l-1.808-1.809-2.4,2.4V8.257l2.845,6.534,1.341-1.341a11.361,11.361,0,0,0,2.049.84v2.529h6.678V14.262a12.22,12.22,0,0,0,2.023-.838l1.809,1.808L.972,10.51-.836,8.7A12.224,12.224,0,0,0,0,6.678H2.56V0Z"/>
    </g>
    <g id="그룹_338" data-name="그룹 338" transform="translate(326.065 -207.742)">
      <path id="패스_689" data-name="패스 689" class="cls-26" d="M0,0A6.841,6.841,0,0,0,6.841-6.841,6.841,6.841,0,0,0,0-13.683,6.841,6.841,0,0,0-6.841-6.841,6.841,6.841,0,0,0,0,0"/>
    </g>
    <g id="그룹_339" data-name="그룹 339" transform="translate(326.065 -207.742)">
      <path id="패스_690" data-name="패스 690" class="cls-25" d="M0,0A6.841,6.841,0,0,0,6.841-6.841,6.841,6.841,0,0,0,0-13.683,6.841,6.841,0,0,0-6.841-6.841,6.841,6.841,0,0,0,0,0Z"/>
    </g>
  </g>
  <g id="그룹_341" data-name="그룹 341" transform="translate(540.36 50.057)">
    <path id="패스_692" data-name="패스 692" class="cls-17" d="M0,0H-7.991V-3.818H-22.973V9.717H0Z"/>
  </g>
  <g id="그룹_342" data-name="그룹 342" transform="translate(540.36 50.057)">
    <path id="패스_693" data-name="패스 693" class="cls-27" d="M0,0H-7.991V-3.818H-22.973V9.717H0Z"/>
  </g>
  <path id="패스_694" data-name="패스 694" class="cls-28" d="M516.387-217.663h14.982V-231.2H516.387Z" transform="translate(0 276.937)"/>
  <path id="패스_695" data-name="패스 695" class="cls-28" d="M524.378-217.663H539.36v-9.717H524.378Z" transform="translate(0 276.937)"/>
  <g id="그룹_343" data-name="그룹 343" transform="translate(513.263 59.061)">
    <path id="패스_696" data-name="패스 696" class="cls-17" d="M0,0,4.383,15.959H27.85L32.089,0Z"/>
  </g>
  <g id="그룹_344" data-name="그룹 344" transform="translate(513.263 59.061)">
    <path id="패스_697" data-name="패스 697" class="cls-27" d="M0,0,4.383,15.959H27.85L32.089,0Z"/>
  </g>
  <g id="그룹_345" data-name="그룹 345" transform="translate(512.263 58.561)">
    <path id="패스_698" data-name="패스 698" class="cls-19" d="M0,0,4.383,15.959H27.85L32.089,0Z"/>
  </g>
  <g id="그룹_346" data-name="그룹 346" transform="translate(512.263 58.561)">
    <path id="패스_699" data-name="패스 699" class="cls-27" d="M0,0,4.383,15.959H27.85L32.089,0Z"/>
  </g>
  <g id="그룹_351" data-name="그룹 351" class="cls-2" transform="translate(0 276.937)">
    <g id="그룹_347" data-name="그룹 347" transform="translate(539.002 -194.88)">
      <path id="패스_700" data-name="패스 700" class="cls-17" d="M0,0A3,3,0,0,1-3,3,3,3,0,0,1-6,0,3,3,0,0,1-3-3,3,3,0,0,1,0,0"/>
    </g>
    <g id="그룹_348" data-name="그룹 348" transform="translate(539.002 -194.88)">
      <path id="패스_701" data-name="패스 701" class="cls-20" d="M0,0A3,3,0,0,1-3,3,3,3,0,0,1-6,0,3,3,0,0,1-3-3,3,3,0,0,1,0,0Z"/>
    </g>
    <g id="그룹_349" data-name="그룹 349" transform="translate(525.782 -194.88)">
      <path id="패스_702" data-name="패스 702" class="cls-17" d="M0,0A3,3,0,0,1-3,3,3,3,0,0,1-6,0,3,3,0,0,1-3-3,3,3,0,0,1,0,0"/>
    </g>
    <g id="그룹_350" data-name="그룹 350" transform="translate(525.782 -194.88)">
      <path id="패스_703" data-name="패스 703" class="cls-20" d="M0,0A3,3,0,0,1-3,3,3,3,0,0,1-6,0,3,3,0,0,1-3-3,3,3,0,0,1,0,0Z"/>
    </g>
  </g>
  <g id="그룹_352" data-name="그룹 352" transform="translate(541.502 80.057)">
    <path id="패스_705" data-name="패스 705" class="cls-27" d="M0,0H-23.5l-6.394-24.5-8.606-.01"/>
  </g>
  <g id="그룹_361" data-name="그룹 361" class="cls-2" transform="translate(0 276.937)">
    <g id="그룹_353" data-name="그룹 353" transform="translate(538.502 -195.38)">
      <path id="패스_706" data-name="패스 706" class="cls-19" d="M0,0A3,3,0,0,1-3,3,3,3,0,0,1-6,0,3,3,0,0,1-3-3,3,3,0,0,1,0,0"/>
    </g>
    <g id="그룹_354" data-name="그룹 354" transform="translate(538.502 -195.38)">
      <path id="패스_707" data-name="패스 707" class="cls-20" d="M0,0A3,3,0,0,1-3,3,3,3,0,0,1-6,0,3,3,0,0,1-3-3,3,3,0,0,1,0,0Z"/>
    </g>
    <g id="그룹_355" data-name="그룹 355" transform="translate(525.282 -195.38)">
      <path id="패스_708" data-name="패스 708" class="cls-19" d="M0,0A3,3,0,0,1-3,3,3,3,0,0,1-6,0,3,3,0,0,1-3-3,3,3,0,0,1,0,0"/>
    </g>
    <g id="그룹_356" data-name="그룹 356" transform="translate(525.282 -195.38)">
      <path id="패스_709" data-name="패스 709" class="cls-20" d="M0,0A3,3,0,0,1-3,3,3,3,0,0,1-6,0,3,3,0,0,1-3-3,3,3,0,0,1,0,0Z"/>
    </g>
    <g id="그룹_357" data-name="그룹 357" transform="translate(536.956 -195.38)">
      <path id="패스_710" data-name="패스 710" class="cls-19" d="M0,0A1.454,1.454,0,0,1-1.454,1.454,1.455,1.455,0,0,1-2.909,0,1.455,1.455,0,0,1-1.454-1.454,1.454,1.454,0,0,1,0,0"/>
    </g>
    <g id="그룹_358" data-name="그룹 358" transform="translate(536.956 -195.38)">
      <path id="패스_711" data-name="패스 711" class="cls-20" d="M0,0A1.454,1.454,0,0,1-1.454,1.454,1.455,1.455,0,0,1-2.909,0,1.455,1.455,0,0,1-1.454-1.454,1.454,1.454,0,0,1,0,0Z"/>
    </g>
    <g id="그룹_359" data-name="그룹 359" transform="translate(523.736 -195.38)">
      <path id="패스_712" data-name="패스 712" class="cls-19" d="M0,0A1.454,1.454,0,0,1-1.454,1.454,1.455,1.455,0,0,1-2.909,0,1.455,1.455,0,0,1-1.454-1.454,1.454,1.454,0,0,1,0,0"/>
    </g>
    <g id="그룹_360" data-name="그룹 360" transform="translate(523.736 -195.38)">
      <path id="패스_713" data-name="패스 713" class="cls-20" d="M0,0A1.454,1.454,0,0,1-1.454,1.454,1.455,1.455,0,0,1-2.909,0,1.455,1.455,0,0,1-1.454-1.454,1.454,1.454,0,0,1,0,0Z"/>
    </g>
  </g>
  <g id="그룹_362" data-name="그룹 362" transform="translate(513.502 63.562)">
    <path id="패스_715" data-name="패스 715" class="cls-27" d="M0,0H29.373"/>
  </g>
  <g id="그룹_363" data-name="그룹 363" transform="translate(515.008 68.564)">
    <path id="패스_716" data-name="패스 716" class="cls-27" d="M0,0H26.593"/>
  </g>
  <g id="그룹_364" data-name="그룹 364" transform="translate(534.445 58.058)">
    <path id="패스_717" data-name="패스 717" class="cls-27" d="M0,0-1.176,16.965"/>
  </g>
  <g id="그룹_365" data-name="그룹 365" transform="translate(522.929 58.058)">
    <path id="패스_718" data-name="패스 718" class="cls-27" d="M0,0,1.176,16.965"/>
  </g>
</svg>
