<svg id="구성_요소_94_1" data-name="구성 요소 94 – 1" xmlns="http://www.w3.org/2000/svg" width="28.992" height="28.992" viewBox="0 0 28.992 28.992">
  <defs>
    <style>
      .cls-1 {
        fill: #828585;
      }

      .cls-2 {
        fill: #fff;
      }
    </style>
  </defs>
  <path id="패스_82" data-name="패스 82" class="cls-1" d="M3695.336,11087H3675.1a4.376,4.376,0,0,1-4.376-4.376v-20.24a4.376,4.376,0,0,1,4.376-4.376h20.24a4.376,4.376,0,0,1,4.376,4.376v20.24a4.376,4.376,0,0,1-4.376,4.376" transform="translate(-3670.72 -11058.008)"/>
  <path id="패스_83" data-name="패스 83" class="cls-2" d="M3692.438,11064.386h-14.445a.9.9,0,0,0-.9.9v14.443a.9.9,0,0,0,.9.9h7.776v-6.287h-2.115v-2.451h2.115v-1.807a2.953,2.953,0,0,1,3.152-3.239,17.555,17.555,0,0,1,1.892.1v2.191h-1.3c-1.017,0-1.214.484-1.214,1.193v1.563h2.426l-.316,2.451h-2.11v6.287h4.138a.9.9,0,0,0,.9-.9v-14.443a.9.9,0,0,0-.9-.9" transform="translate(-3670.72 -11058.008)"/>
</svg>
