<svg id="구성_요소_96_1" data-name="구성 요소 96 – 1" xmlns="http://www.w3.org/2000/svg" width="28.992" height="28.992" viewBox="0 0 28.992 28.992">
  <defs>
    <style>
      .cls-1 {
        fill: #828585;
      }

      .cls-2 {
        fill: #fff;
      }
    </style>
  </defs>
  <path id="패스_76" data-name="패스 76" class="cls-1" d="M3767.478,11087h-20.24a4.376,4.376,0,0,1-4.376-4.376v-20.24a4.376,4.376,0,0,1,4.376-4.376h20.24a4.376,4.376,0,0,1,4.376,4.376v20.24a4.376,4.376,0,0,1-4.376,4.376" transform="translate(-3742.862 -11058.008)"/>
  <path id="패스_77" data-name="패스 77" class="cls-2" d="M3755.681,11074.5l4.387-2.272-4.387-2.289Zm9.8,1.256a2.327,2.327,0,0,1-2.32,2.319h-11.6a2.326,2.326,0,0,1-2.318-2.319v-6.494a2.327,2.327,0,0,1,2.318-2.32h11.6a2.328,2.328,0,0,1,2.32,2.32Z" transform="translate(-3742.862 -11058.008)"/>
</svg>
