<svg xmlns="http://www.w3.org/2000/svg" width="110.111" height="25.5" viewBox="0 0 110.111 25.5">
  <defs>
    <style>
      .cls-1 {
        fill: #0b504a;
      }

      .cls-2 {
        fill: #fff;
      }

      .cls-3 {
        fill: none;
        stroke: #0b504a;
        stroke-width: 0.5px;
      }

      .cls-4 {
        fill: #1e2323;
      }
    </style>
  </defs>
  <g id="구성_요소_23_1" data-name="구성 요소 23 – 1" transform="translate(0.25)">
    <rect id="사각형_129" data-name="사각형 129" class="cls-1" width="104.111" height="25.5" transform="translate(5.75)"/>
    <rect id="사각형_130" data-name="사각형 130" class="cls-2" width="103.611" height="21.5" transform="translate(0 0.25)"/>
    <rect id="사각형_131" data-name="사각형 131" class="cls-3" width="103.611" height="21.5" transform="translate(0 0.25)"/>
    <path id="패스_8804" data-name="패스 8804" class="cls-4" d="M.572,0H6.747V-1.274H4.355c-.468,0-1.066.039-1.56.091,2.028-1.937,3.5-3.848,3.5-5.694A2.706,2.706,0,0,0,3.406-9.75,3.755,3.755,0,0,0,.494-8.32l.845.832A2.6,2.6,0,0,1,3.224-8.554,1.56,1.56,0,0,1,4.849-6.8c0,1.573-1.456,3.432-4.277,5.928Zm10.3.169c1.872,0,3.094-1.664,3.094-4.992,0-3.3-1.222-4.927-3.094-4.927S7.774-8.138,7.774-4.823,8.983.169,10.868.169Zm0-1.183c-.975,0-1.664-1.04-1.664-3.809,0-2.743.689-3.744,1.664-3.744s1.664,1,1.664,3.744C12.532-2.054,11.843-1.014,10.868-1.014ZM15.444,0H20.9V-1.235H19.032V-9.568H17.9a5.877,5.877,0,0,1-2.08.728v.949h1.716v6.656H15.444Zm9.75.169c1.872,0,3.094-1.664,3.094-4.992,0-3.3-1.222-4.927-3.094-4.927S22.1-8.138,22.1-4.823,23.309.169,25.194.169Zm0-1.183c-.975,0-1.664-1.04-1.664-3.809,0-2.743.689-3.744,1.664-3.744s1.664,1,1.664,3.744C26.858-2.054,26.169-1.014,25.194-1.014Z" transform="translate(37.376 16.279)"/>
  </g>
</svg>
