<svg xmlns="http://www.w3.org/2000/svg" width="110.111" height="25" viewBox="0 0 110.111 25">
  <defs>
    <style>
      .cls-1 {
        fill: #0b504a;
      }

      .cls-2 {
        fill: #fff;
      }

      .cls-3 {
        fill: none;
        stroke: #0b504a;
        stroke-width: 0.5px;
      }

      .cls-4 {
        fill: #1e2323;
      }
    </style>
  </defs>
  <g id="구성_요소_27_1" data-name="구성 요소 27 – 1" transform="translate(0.25)">
    <rect id="사각형_53" data-name="사각형 53" class="cls-1" width="104.111" height="25" transform="translate(5.75)"/>
    <rect id="사각형_139" data-name="사각형 139" class="cls-2" width="103.611" height="21.5" transform="translate(0 0.25)"/>
    <rect id="사각형_140" data-name="사각형 140" class="cls-3" width="103.611" height="21.5" transform="translate(0 0.25)"/>
    <path id="패스_8808" data-name="패스 8808" class="cls-4" d="M.572,0H6.747V-1.274H4.355c-.468,0-1.066.039-1.56.091,2.028-1.937,3.5-3.848,3.5-5.694A2.706,2.706,0,0,0,3.406-9.75,3.755,3.755,0,0,0,.494-8.32l.845.832A2.6,2.6,0,0,1,3.224-8.554,1.56,1.56,0,0,1,4.849-6.8c0,1.573-1.456,3.432-4.277,5.928Zm10.3.169c1.872,0,3.094-1.664,3.094-4.992,0-3.3-1.222-4.927-3.094-4.927S7.774-8.138,7.774-4.823,8.983.169,10.868.169Zm0-1.183c-.975,0-1.664-1.04-1.664-3.809,0-2.743.689-3.744,1.664-3.744s1.664,1,1.664,3.744C12.532-2.054,11.843-1.014,10.868-1.014ZM15.444,0H20.9V-1.235H19.032V-9.568H17.9a5.877,5.877,0,0,1-2.08.728v.949h1.716v6.656H15.444Zm9.542-4.68c-1,0-1.547-.7-1.547-1.924,0-1.248.65-1.989,1.469-1.989,1.04,0,1.755.858,1.9,2.743A2.3,2.3,0,0,1,24.986-4.68ZM22.2-.845A3.284,3.284,0,0,0,24.648.169c1.846,0,3.562-1.508,3.562-5.278,0-3.159-1.482-4.641-3.315-4.641A2.926,2.926,0,0,0,22.048-6.6c0,2,1.079,3,2.678,3a2.877,2.877,0,0,0,2.106-1.118c-.091,2.73-1.092,3.666-2.249,3.666a2.133,2.133,0,0,1-1.573-.715Z" transform="translate(37.376 16.279)"/>
  </g>
</svg>
