<svg id="구성_요소_28_1" data-name="구성 요소 28 – 1" xmlns="http://www.w3.org/2000/svg" width="836" height="713.857" viewBox="0 0 836 713.857">
  <defs>
    <style>
      .cls-1 {
        fill: #f5f7f7;
      }

      .cls-2 {
        fill: #0b504a;
        font-family: NotoSansKR-Bold, Noto Sans KR;
        font-weight: 700;
      }

      .cls-2, .cls-5 {
        font-size: 17px;
      }

      .cls-3 {
        letter-spacing: -0.02em;
      }

      .cls-4 {
        fill: #fff;
      }

      .cls-5 {
        fill: #216a5a;
      }

      .cls-12, .cls-5 {
        font-family: NotoSansKR-Medium, Noto Sans KR;
        font-weight: 500;
      }

      .cls-6 {
        letter-spacing: -0.019em;
      }

      .cls-7 {
        letter-spacing: -0.026em;
      }

      .cls-8 {
        letter-spacing: -0.03em;
      }

      .cls-9 {
        letter-spacing: -0.031em;
      }

      .cls-10, .cls-11, .cls-13, .cls-14, .cls-16, .cls-17 {
        fill: none;
      }

      .cls-10, .cls-11, .cls-13, .cls-14, .cls-17 {
        stroke: #3e3a39;
      }

      .cls-11 {
        stroke-width: 3px;
      }

      .cls-12 {
        fill: #1e2323;
        font-size: 16px;
      }

      .cls-13, .cls-14 {
        stroke-linecap: round;
        stroke-linejoin: round;
      }

      .cls-13 {
        stroke-dasharray: 0 2;
      }

      .cls-15 {
        fill: #92bc49;
      }

      .cls-16 {
        stroke: #000;
        stroke-width: 0.945px;
      }

      .cls-16, .cls-17 {
        stroke-miterlimit: 10;
      }
    </style>
  </defs>
  <rect id="사각형_86" data-name="사각형 86" class="cls-1" width="836" height="713.857"/>
  <text id="코웨이_화학물질_관리_선언" data-name="코웨이 화학물질 관리 선언" class="cls-2" transform="translate(327.05 60.67)"><tspan class="cls-3" x="0" y="0">코웨이 화학물질 관리 선</tspan><tspan y="0">언</tspan></text>
  <rect id="사각형_87" data-name="사각형 87" class="cls-4" width="737.556" height="68" transform="translate(49.222 91.55)"/>
  <text id="_1._현재_Coway는_전체_공기_청정기_제품에_대해_PVC_및_BFR을_0.5_미만_" data-name="1. 현재 Coway는 전체 공기 청정기 제품에 대해 PVC 및 BFR을 0.5% 미만 " class="cls-5" transform="translate(162.143 122.488)"><tspan class="cls-6" x="0" y="0">1</tspan><tspan class="cls-3" y="0">. 현재 </tspan><tspan class="cls-3" y="0">C</tspan><tspan class="cls-7" y="0">o</tspan><tspan class="cls-8" y="0">w</tspan><tspan class="cls-3" y="0">a</tspan><tspan class="cls-6" y="0">y</tspan><tspan class="cls-3" y="0">는 전체 공기 청정기 제품에 </tspan><tspan class="cls-6" y="0">대</tspan><tspan class="cls-3" y="0">해 </tspan><tspan class="cls-6" y="0">P</tspan><tspan class="cls-9" y="0">V</tspan><tspan class="cls-3" y="0">C </tspan><tspan class="cls-3" y="0">및 </tspan><tspan class="cls-6" y="0">B</tspan><tspan class="cls-3" y="0">FR</tspan><tspan class="cls-3" y="0">을 </tspan><tspan class="cls-6" y="0">0</tspan><tspan class="cls-3" y="0">.</tspan><tspan class="cls-6" y="0">5%</tspan><tspan class="cls-3" y="0" xml:space="preserve"> 미</tspan><tspan y="0">만 </tspan></text>
  <text id="_" data-name="
" class="cls-5" transform="translate(677.939 122.488)"><tspan x="0" y="0"></tspan><tspan x="0" y="20.4"></tspan></text>
  <text id="_PVC_및_BFR_FREE_으로_사용하기_위해_진행_중에_있습니다." data-name="(PVC 및 BFR FREE)으로 사용하기 위해 진행 중에 있습니다." class="cls-5" transform="translate(211.153 145.489)"><tspan class="cls-6" x="0" y="0">(P</tspan><tspan class="cls-9" y="0">V</tspan><tspan class="cls-3" y="0">C </tspan><tspan class="cls-3" y="0">및 </tspan><tspan class="cls-6" y="0">B</tspan><tspan class="cls-3" y="0">FR FR</tspan><tspan class="cls-6" y="0">EE)</tspan><tspan class="cls-3" y="0">으로 사용하기 위해 진행 중에 있습니다</tspan><tspan y="0">.</tspan></text>
  <rect id="사각형_88" data-name="사각형 88" class="cls-4" width="737.556" height="68" transform="translate(49.222 603.291)"/>
  <text id="_2._코웨이는_2022년까지_모든_공기청정기_제품에_PVC_FREE_BFR_FREE_를_적용할_계획입니다." data-name="2. 코웨이는 2022년까지 모든 공기청정기 제품에 ‘PVC FREE &amp; BFR FREE’를 적용할 계획입니다." class="cls-5" transform="translate(75 644.771)"><tspan class="cls-6" x="0" y="0">2</tspan><tspan class="cls-3" y="0">. 코웨이는 </tspan><tspan class="cls-6" y="0">2022</tspan><tspan class="cls-3" y="0">년까지 모든 공기청정기 제품에 ‘</tspan><tspan class="cls-6" y="0">P</tspan><tspan class="cls-9" y="0">V</tspan><tspan class="cls-3" y="0">C FR</tspan><tspan class="cls-6" y="0">EE</tspan><tspan class="cls-3" y="0"> </tspan><tspan class="cls-6" y="0">&amp;</tspan><tspan class="cls-3" y="0"> </tspan><tspan class="cls-6" y="0">B</tspan><tspan class="cls-3" y="0">FR FR</tspan><tspan class="cls-6" y="0">EE</tspan><tspan class="cls-3" y="0">’를 적용할 계획입니다</tspan><tspan y="0">.</tspan></text>
  <line id="선_774" data-name="선 774" class="cls-10" y2="42" transform="translate(418 189.55)"/>
  <line id="선_775" data-name="선 775" class="cls-11" y2="20" transform="translate(418 211.55)"/>
  <line id="선_776" data-name="선 776" class="cls-10" y2="42" transform="translate(418 531.291)"/>
  <line id="선_777" data-name="선 777" class="cls-11" y2="20" transform="translate(418 553.291)"/>
  <text id="추진계획" class="cls-2" transform="translate(388.563 276.511)"><tspan class="cls-3" x="0" y="0">추진계</tspan><tspan y="0">획</tspan></text>
  <text id="사용현황_조사" data-name="사용현황 조사" class="cls-12" transform="translate(79.047 478.291)"><tspan class="cls-3" x="0" y="0">사용현황 조</tspan><tspan y="0">사</tspan></text>
  <text id="대체소재_및_부품_개발_및_" data-name="대체소재 및 부품 개발 및 " class="cls-12" transform="translate(239.688 478.291)"><tspan class="cls-3" x="0" y="0">대체소재 및 부품 개발 </tspan><tspan y="0">및 </tspan></text>
  <text id="_2" data-name="
" class="cls-12" transform="translate(404.487 478.291)"><tspan x="0" y="0"></tspan><tspan x="0" y="19.2"></tspan></text>
  <text id="발굴_신뢰성_검토" data-name="발굴, 신뢰성 검토" class="cls-12" transform="translate(263.224 501.283)"><tspan class="cls-3" x="0" y="0">발굴, 신뢰성 검</tspan><tspan y="0">토</tspan></text>
  <text id="전환개발수립" class="cls-12" transform="translate(472.487 478.291)"><tspan class="cls-3" x="0" y="0">전환개발수</tspan><tspan y="0">립</tspan></text>
  <text id="전환완료" class="cls-12" transform="translate(682.567 478.291)"><tspan class="cls-3" x="0" y="0">전환완</tspan><tspan y="0">료</tspan></text>
  <rect id="사각형_89" data-name="사각형 89" class="cls-4" width="738" height="136" transform="translate(49 309.011)"/>
  <line id="선_778" data-name="선 778" class="cls-10" x2="738" transform="translate(49 308.511)"/>
  <line id="선_779" data-name="선 779" class="cls-10" x2="738" transform="translate(49 445.011)"/>
  <line id="선_780" data-name="선 780" class="cls-13" x2="595.014" transform="translate(146.525 380.92)"/>
  <path id="패스_116" data-name="패스 116" class="cls-14" d="M3701.539,3945.983h0m-598.014,0h0" transform="translate(-2959 -3565.063)"/>
  <g id="그룹_57" data-name="그룹 57" transform="translate(-2959 -3565.063)">
    <path id="패스_117" data-name="패스 117" class="cls-15" d="M3124.122,3941.824a40.635,40.635,0,1,1-40.635-40.635,40.635,40.635,0,0,1,40.635,40.635"/>
    <path id="패스_118" data-name="패스 118" d="M3100.63,3948.8c0-8.4-15.76-27.2-15.76-27.2s-15.758,18.807-15.758,27.2,7.055,15.2,15.758,15.2,15.76-6.807,15.76-15.2m-9.97-7.988c2.072,3.506,3.422,6.456,3.422,7.988a9.063,9.063,0,0,1-9.212,8.887"/>
    <path id="패스_119" data-name="패스 119" class="cls-4" d="M3084.308,3957.288a11.272,11.272,0,1,0-11.7-11.264,11.489,11.489,0,0,0,11.7,11.264"/>
    <path id="패스_120" data-name="패스 120" class="cls-4" d="M3097.96,3947.146c0-8.337-15.651-27.012-15.651-27.012s-15.65,18.675-15.65,27.012,7.007,15.095,15.65,15.095,15.651-6.758,15.651-15.095m-9.9-7.932c2.056,3.481,3.4,6.41,3.4,7.932a9,9,0,0,1-9.148,8.824"/>
    <path id="패스_121" data-name="패스 121" class="cls-16" d="M3097.8,3947.133c0-8.257-15.493-26.752-15.493-26.752s-15.492,18.495-15.492,26.752a15.5,15.5,0,0,0,30.985,0Zm-9.8-7.856c2.035,3.448,3.363,6.348,3.363,7.856a8.913,8.913,0,0,1-9.056,8.74"/>
    <path id="패스_122" data-name="패스 122" class="cls-15" d="M3319.8,3941.824a40.635,40.635,0,1,1-40.635-40.635,40.635,40.635,0,0,1,40.635,40.635"/>
    <path id="패스_123" data-name="패스 123" d="M3296.3,3948.8c0-8.4-15.76-27.2-15.76-27.2s-15.759,18.807-15.759,27.2,7.056,15.2,15.759,15.2,15.76-6.807,15.76-15.2m-9.97-7.988c2.072,3.506,3.422,6.456,3.422,7.988a9.064,9.064,0,0,1-9.212,8.887"/>
    <path id="패스_124" data-name="패스 124" class="cls-4" d="M3279.983,3957.288a11.272,11.272,0,1,0-11.7-11.264,11.489,11.489,0,0,0,11.7,11.264"/>
    <path id="패스_125" data-name="패스 125" class="cls-4" d="M3293.635,3947.146c0-8.337-15.651-27.012-15.651-27.012s-15.65,18.675-15.65,27.012,7.007,15.095,15.65,15.095,15.651-6.758,15.651-15.095m-9.9-7.932c2.056,3.481,3.4,6.41,3.4,7.932a9,9,0,0,1-9.148,8.824"/>
    <path id="패스_126" data-name="패스 126" class="cls-16" d="M3293.477,3947.133c0-8.257-15.493-26.752-15.493-26.752s-15.492,18.495-15.492,26.752a15.5,15.5,0,0,0,30.985,0Zm-9.8-7.856c2.035,3.448,3.363,6.348,3.363,7.856a8.913,8.913,0,0,1-9.056,8.74"/>
    <path id="패스_127" data-name="패스 127" class="cls-15" d="M3515.473,3941.824a40.635,40.635,0,1,1-40.635-40.635,40.636,40.636,0,0,1,40.635,40.635"/>
    <path id="패스_128" data-name="패스 128" d="M3491.98,3948.8c0-8.4-15.76-27.2-15.76-27.2s-15.759,18.807-15.759,27.2,7.056,15.2,15.759,15.2,15.76-6.807,15.76-15.2m-9.97-7.988c2.072,3.506,3.422,6.456,3.422,7.988a9.063,9.063,0,0,1-9.212,8.887"/>
    <path id="패스_129" data-name="패스 129" class="cls-4" d="M3475.658,3957.288a11.272,11.272,0,1,0-11.7-11.264,11.489,11.489,0,0,0,11.7,11.264"/>
    <path id="패스_130" data-name="패스 130" class="cls-4" d="M3489.31,3947.146c0-8.337-15.651-27.012-15.651-27.012s-15.649,18.675-15.649,27.012,7.006,15.095,15.649,15.095,15.651-6.758,15.651-15.095m-9.9-7.932c2.055,3.481,3.4,6.41,3.4,7.932a9,9,0,0,1-9.148,8.824"/>
    <path id="패스_131" data-name="패스 131" class="cls-16" d="M3489.152,3947.133c0-8.257-15.493-26.752-15.493-26.752s-15.492,18.495-15.492,26.752a15.5,15.5,0,0,0,30.985,0Zm-9.8-7.856c2.035,3.448,3.363,6.348,3.363,7.856a8.913,8.913,0,0,1-9.056,8.74"/>
    <path id="패스_132" data-name="패스 132" class="cls-15" d="M3711.147,3941.824a40.635,40.635,0,1,1-40.635-40.635,40.635,40.635,0,0,1,40.635,40.635"/>
    <path id="패스_133" data-name="패스 133" d="M3687.655,3948.8c0-8.4-15.76-27.2-15.76-27.2s-15.759,18.807-15.759,27.2,7.056,15.2,15.759,15.2,15.76-6.807,15.76-15.2m-9.97-7.988c2.072,3.506,3.422,6.456,3.422,7.988a9.063,9.063,0,0,1-9.212,8.887"/>
    <path id="패스_134" data-name="패스 134" class="cls-4" d="M3671.333,3957.288a11.272,11.272,0,1,0-11.7-11.264,11.489,11.489,0,0,0,11.7,11.264"/>
    <path id="패스_135" data-name="패스 135" class="cls-4" d="M3684.986,3947.146c0-8.337-15.651-27.012-15.651-27.012s-15.65,18.675-15.65,27.012,7.007,15.095,15.65,15.095,15.651-6.758,15.651-15.095m-9.9-7.932c2.056,3.481,3.4,6.41,3.4,7.932a9,9,0,0,1-9.148,8.824"/>
    <path id="패스_136" data-name="패스 136" class="cls-16" d="M3684.828,3947.133c0-8.257-15.494-26.752-15.494-26.752s-15.491,18.495-15.491,26.752a15.5,15.5,0,0,0,30.985,0Zm-9.8-7.856c2.035,3.448,3.363,6.348,3.363,7.856a8.913,8.913,0,0,1-9.057,8.74"/>
  </g>
  <path id="패스_137" data-name="패스 137" class="cls-17" d="M3179.578,3942.151l3.206,3.674-3.206,3.673" transform="translate(-2959 -3565.063)"/>
  <path id="패스_138" data-name="패스 138" class="cls-17" d="M3375.253,3942.151l3.206,3.674-3.206,3.673" transform="translate(-2959 -3565.063)"/>
  <path id="패스_139" data-name="패스 139" class="cls-17" d="M3570.928,3942.151l3.206,3.674-3.206,3.673" transform="translate(-2959 -3565.063)"/>
</svg>
