<svg id="구성_요소_28_1" data-name="구성 요소 28 – 1" xmlns="http://www.w3.org/2000/svg" xmlns:xlink="http://www.w3.org/1999/xlink" width="836" height="713.857" viewBox="0 0 836 713.857">
  <defs>
    <style>
      .cls-1, .cls-11, .cls-12, .cls-13, .cls-17, .cls-18, .cls-7, .cls-8 {
        fill: none;
      }

      .cls-2 {
        fill: #f5f7f7;
      }

      .cls-3 {
        fill: #0b504a;
      }

      .cls-16, .cls-19, .cls-4 {
        fill: #fff;
      }

      .cls-5, .cls-6 {
        fill: #216a5a;
      }

      .cls-6 {
        font-size: 17px;
      }

      .cls-10, .cls-6 {
        font-family: NotoSansKR-Medium, Noto Sans KR;
        font-weight: 500;
      }

      .cls-11, .cls-12, .cls-13, .cls-7, .cls-8 {
        stroke: #3e3a39;
      }

      .cls-8 {
        stroke-width: 3px;
      }

      .cls-10, .cls-9 {
        fill: #1e2323;
      }

      .cls-10 {
        font-size: 16px;
      }

      .cls-11, .cls-12 {
        stroke-linecap: round;
        stroke-linejoin: round;
      }

      .cls-11 {
        stroke-dasharray: 0 2;
      }

      .cls-13, .cls-18, .cls-19 {
        stroke-miterlimit: 10;
      }

      .cls-14 {
        clip-path: url(#clip-path);
      }

      .cls-15 {
        fill: #92bb48;
      }

      .cls-16, .cls-17, .cls-18, .cls-19 {
        stroke: #1e2323;
      }
    </style>
    <clipPath id="clip-path">
      <path id="패스_5096" data-name="패스 5096" class="cls-1" d="M0,0H668.295V-81.27H0Z"/>
    </clipPath>
  </defs>
  <rect id="사각형_86" data-name="사각형 86" class="cls-2" width="836" height="713.857"/>
  <path id="패스_8809" data-name="패스 8809" class="cls-3" d="M1.853-8.806l.289,1.887,8.976-.476a22.66,22.66,0,0,1-.527,3.128l2.21.272a31.943,31.943,0,0,0,.714-7.514v-1.377H2.329V-11.1h8.976c0,.612,0,1.275-.051,1.989ZM7.99-2.159V-5.9H5.746v3.74H.731V-.34H14.892V-2.159Zm11.934-9.486a1.294,1.294,0,0,1,1.462,1.309,1.3,1.3,0,0,1-1.462,1.292,1.32,1.32,0,0,1-1.5-1.292C18.428-11.186,19.057-11.645,19.924-11.645Zm0,4.267c1.989,0,3.451-1.241,3.451-2.958,0-1.751-1.462-2.975-3.451-2.975-2.006,0-3.485,1.224-3.485,2.975C16.439-8.619,17.918-7.378,19.924-7.378Zm3.774.442a64.816,64.816,0,0,1-7.9.374l.238,1.819c.8,0,1.751,0,2.788-.051V.238h2.142V-4.913c.986-.085,2.006-.221,2.907-.391Zm.765,2.822H22.015v1.683h2.448V.748h2.091V-13.923H24.463Zm3.128-10.064V1.462h2.125v-15.64Zm14.467-.034V1.5H44.3V-14.212Zm-6.171,1.105c-2.363,0-4.114,2.142-4.114,5.576,0,3.451,1.751,5.61,4.114,5.61S40-4.08,40-7.531C40-10.965,38.25-13.107,35.887-13.107Zm0,2.023c1.156,0,1.955,1.241,1.955,3.553,0,2.329-.8,3.57-1.955,3.57S33.932-5.2,33.932-7.531C33.932-9.843,34.731-11.084,35.887-11.084Zm23.6-1.394H56.015v-1.649H53.771v1.649h-3.5v1.768h9.214ZM53.193-7.14c0-.816.68-1.258,1.7-1.258s1.7.442,1.7,1.258-.68,1.258-1.7,1.258S53.193-6.324,53.193-7.14Zm2.822,2.822a2.976,2.976,0,0,0,2.7-2.822c0-1.768-1.581-2.958-3.825-2.958s-3.825,1.19-3.825,2.958a2.976,2.976,0,0,0,2.7,2.822v1.326c-1.377.034-2.669.034-3.791.034l.272,1.819a49.965,49.965,0,0,0,9.469-.646L59.551-3.4c-1.122.17-2.329.255-3.536.323Zm8.534-3.5H62.594v-6.375H60.35V1.462h2.244V-5.967h1.955Zm10.115-5H71.179V-14.28H68.918v1.462H65.45v1.768h9.214ZM68.357-7.684c0-.782.68-1.173,1.7-1.173,1,0,1.7.391,1.7,1.173,0,.8-.7,1.19-1.7,1.19C69.037-6.494,68.357-6.885,68.357-7.684Zm5.542,0c0-1.7-1.581-2.873-3.842-2.873-2.244,0-3.842,1.173-3.842,2.873,0,1.717,1.6,2.89,3.842,2.89C72.318-4.794,73.9-5.967,73.9-7.684ZM67.337-1.938h8.194V1.479h2.244V-3.74H67.337Zm12.512-8.228H77.775v-4.029H75.531v9.809h2.244V-8.313h2.074ZM90.9-10.54h-6.2v-1.479h6.2Zm2.193-3.2H82.5v4.913H93.092Zm1.8,7.514V-7.99H80.75v1.768h5.933v.986H82.365v1.649h8.6v.816H82.382V1.343h11.2V-.34H84.609v-.884h8.568V-5.236h-4.25v-.986Zm14.144-7.973h-2.244v8.024h2.244Zm-3.23,6.154c-2.346-.629-3.485-2.142-3.655-3.655h3.077v-1.785H96.713V-11.7h3.128a4.649,4.649,0,0,1-3.723,3.961l1.037,1.751a5.959,5.959,0,0,0,3.893-3.179,5.74,5.74,0,0,0,3.74,2.839ZM100.861-.357v-.986h8.194v-4.2H98.617v1.683h8.211v.935H98.634V1.343h10.812v-1.7ZM123.233-7.48a24.262,24.262,0,0,0,.357-4.607v-.969h-8.041v1.785h5.831a22.293,22.293,0,0,1-.34,3.536Zm1.037.629c-1.462.2-3.026.323-4.573.391V-9.418H117.5v3.043c-1.02.017-1.989.017-2.856.017l.2,1.785a56.832,56.832,0,0,0,9.554-.68Zm-5.1,3.332h-2.244V1.19h10.931V-.6H119.17Zm8.194-5.916v-4.777H125.12v11.73h2.244v-5.1h1.87V-9.435ZM133.3-6.817h5.083v-6.052h-7.4v1.785h5.1v2.5H131v6.443h1.411a42.938,42.938,0,0,0,7.684-.544L139.859-4.5a39.181,39.181,0,0,1-6.562.51Zm7.65-7.4V1.5h2.244V-14.212ZM159.834-2.635h2.244v-11.56h-2.244v3.332h-2.873v1.819h2.873Zm-1.5-4.012a4.993,4.993,0,0,1-3.5-4.9v-1.7h-2.278v1.683a5.283,5.283,0,0,1-3.672,5.27l1.173,1.751a6.154,6.154,0,0,0,3.689-3.553,5.82,5.82,0,0,0,3.4,3.179ZM153.986-.6v-3.2h-2.244V1.19h10.676V-.6Zm12.648-8.636a1.92,1.92,0,0,1,1.972-2.074,1.937,1.937,0,0,1,2.006,2.074,1.918,1.918,0,0,1-2.006,2.04A1.9,1.9,0,0,1,166.634-9.231Zm8.5.952v5.525h2.244V-14.178h-2.244v4.1h-2.465a4.012,4.012,0,0,0-4.063-3.162,3.969,3.969,0,0,0-4.114,4.012,3.976,3.976,0,0,0,4.114,3.995,3.97,3.97,0,0,0,4.029-3.043ZM169.3-.6V-3.859h-2.244V1.19h10.676V-.6Z" transform="translate(327.05 60.67)"/>
  <rect id="사각형_87" data-name="사각형 87" class="cls-4" width="737.556" height="68" transform="translate(49.222 91.55)"/>
  <path id="패스_8810" data-name="패스 8810" class="cls-5" d="M1.462,0H8.6V-1.615H6.154v-10.9H4.675a7.686,7.686,0,0,1-2.72.952v1.241H4.2v8.7H1.462ZM11.9.221a1.3,1.3,0,0,0,1.309-1.36A1.33,1.33,0,0,0,11.9-2.533a1.33,1.33,0,0,0-1.309,1.394A1.3,1.3,0,0,0,11.9.221Zm17.51-2.55h1.751V-14.042H29.41v3.961H27.064v1.428H29.41v1.836H27.064v1.411H29.41ZM27-12.291H23.681v-1.785H21.93v1.785H18.479V-10.9H27ZM20.927-7.208A1.658,1.658,0,0,1,22.8-8.823a1.664,1.664,0,0,1,1.887,1.615c0,1-.765,1.6-1.887,1.6C21.692-5.61,20.927-6.2,20.927-7.208Zm5.406,0c0-1.785-1.445-2.975-3.536-2.975-2.074,0-3.519,1.19-3.519,2.975,0,1.768,1.445,2.975,3.519,2.975C24.888-4.233,26.333-5.44,26.333-7.208Zm-3.4,6.8V-3.315H21.165V1.02H31.518V-.408ZM38.42-10.914h2.567v-1.445H33.949v1.445H36.72v.85c0,3.043-.969,5.712-3.2,7l1.071,1.309a7.04,7.04,0,0,0,3.026-4.42A6.569,6.569,0,0,0,40.6-2.278l1.02-1.343c-2.227-1.156-3.2-3.672-3.2-6.443Zm6.834-3.145V-7.99H43.571v-5.78H41.922V.6h1.649v-7.14h1.683V1.309H46.92V-14.059ZM58.191.221a4.941,4.941,0,0,0,3.893-1.8L61.03-2.822A3.646,3.646,0,0,1,58.259-1.5c-2.21,0-3.6-1.819-3.6-4.794,0-2.941,1.5-4.743,3.655-4.743a3.328,3.328,0,0,1,2.448,1.122l1.071-1.258a4.822,4.822,0,0,0-3.553-1.581c-3.162,0-5.644,2.448-5.644,6.528C52.632-2.125,55.046.221,58.191.221Zm9.333,0c2.312,0,4.4-1.785,4.4-4.879,0-3.128-2.091-4.93-4.4-4.93s-4.4,1.8-4.4,4.93C63.121-1.564,65.212.221,67.524.221Zm0-1.6c-1.462,0-2.38-1.309-2.38-3.281,0-1.989.918-3.315,2.38-3.315,1.479,0,2.4,1.326,2.4,3.315C69.921-2.686,69-1.377,67.524-1.377ZM75.191,0h2.261l1.139-4.607c.238-.884.408-1.751.6-2.72h.085c.2.969.374,1.819.6,2.7L81.056,0H83.4l2.414-9.35H83.98L82.773-4.284c-.2.9-.357,1.768-.544,2.652h-.068c-.221-.884-.408-1.751-.629-2.652L80.189-9.35H78.37L77.061-4.284c-.221.884-.408,1.768-.612,2.652h-.068c-.17-.884-.323-1.751-.51-2.652L74.63-9.35H72.658ZM89.267.221a4.648,4.648,0,0,0,2.975-1.292h.051L92.463,0h1.6V-5.627c0-2.482-1.071-3.961-3.4-3.961a7.162,7.162,0,0,0-3.774,1.224l.731,1.326a5.142,5.142,0,0,1,2.7-.952c1.377,0,1.768.952,1.785,2.04-3.893.425-5.593,1.462-5.593,3.468A2.583,2.583,0,0,0,89.267.221Zm.595-1.547c-.833,0-1.462-.374-1.462-1.292,0-1.054.935-1.751,3.706-2.091v2.3A3.3,3.3,0,0,1,89.862-1.326ZM104.04-9.35h-1.9l-1.5,4.811L99.909-1.9h-.085c-.289-.867-.578-1.8-.85-2.635L97.24-9.35H95.234L98.94-.068l-.187.646c-.34,1-.935,1.751-1.955,1.751a2.533,2.533,0,0,1-.68-.136l-.374,1.53a3.325,3.325,0,0,0,1.173.187c1.972,0,2.958-1.343,3.689-3.349Zm13.09-.289h-8.789V-13.5H106.59v5.287h10.54Zm-8.891,6.086h-1.751V.969h10.727V-.442h-8.976Zm-3.451-2.822v1.411h13.94V-6.375Zm26.979-3.553v1.445h2.788v5.678h1.751v-11.22h-1.751v4.1Zm.952,3.587a5.048,5.048,0,0,1-3.6-4.607v-.527h3.2v-1.411H124.1v1.411h3.247v.527a5.343,5.343,0,0,1-3.774,4.93l.9,1.377a6.275,6.275,0,0,0,3.791-3.638,5.907,5.907,0,0,0,3.587,3.3ZM128.112-.408V-3.774h-1.751V1.02H136.7V-.408ZM143.5-9.894h2.635v-1.445H143.5v-2.176h-1.666v2.176h-2.652v1.445h2.652v.544c0,2.448-1.02,5.066-3.128,6.307l1,1.326a7.029,7.029,0,0,0,2.975-4.2,6.637,6.637,0,0,0,2.992,3.859l.969-1.309A6.673,6.673,0,0,1,143.5-9.35Zm3.723,1.8h-2.074v1.428h2.074V.561h1.649v-14.3H147.22Zm3.094-5.95V1.309h1.666V-14.042Zm19.091,6.1a14.537,14.537,0,0,0,.425-4.08v-1.292H159.29V-11.9H168.1a13.692,13.692,0,0,1-.408,3.774ZM164.56-.034c-2.278,0-3.672-.561-3.672-1.53,0-.952,1.394-1.513,3.672-1.513,2.261,0,3.621.561,3.621,1.513C168.181-.6,166.821-.034,164.56-.034Zm0-4.386c-3.315,0-5.406,1.088-5.406,2.856,0,1.785,2.091,2.873,5.406,2.873,3.264,0,5.372-1.088,5.372-2.873C169.932-3.332,167.824-4.42,164.56-4.42Zm.34-2.6V-9.843h-1.768v2.822h-5.44V-5.61H171.53V-7.021Zm8.942-5.406V-11h5.474c-.306,3.536-2.21,6.239-6.239,8.177l.935,1.394c5.27-2.55,7.106-6.426,7.106-11Zm10.047-1.615V1.309h1.751V-14.042Zm16.065,4.233v1.445h2.771v3.6h1.751v-9.3h-1.751v4.25Zm.952,3.128c-2.346-.68-3.74-2.346-3.74-4.1v-.136h3.23v-1.394h-3.213v-1.819h-1.768v1.819h-3.23v1.394h3.23v.136a4.8,4.8,0,0,1-3.689,4.471l.85,1.36a5.974,5.974,0,0,0,3.774-3.3,5.91,5.91,0,0,0,3.74,2.907Zm-1.547,6.63c-2.176,0-3.417-.544-3.417-1.513s1.241-1.5,3.417-1.5c2.193,0,3.434.527,3.434,1.5S201.552-.051,199.359-.051Zm0-4.369c-3.213,0-5.168,1.054-5.168,2.856s1.955,2.873,5.168,2.873,5.185-1.071,5.185-2.873S202.572-4.42,199.359-4.42ZM215.3-10.183v1.428h2.72V-4.9h1.751v-9.146h-1.751v3.859Zm.884,3.417a5.035,5.035,0,0,1-3.6-4.624v-.2h3.2v-1.411H207.57v1.411h3.247v.221a5.39,5.39,0,0,1-3.757,5l.9,1.394a6.353,6.353,0,0,0,3.791-3.689,6,6,0,0,0,3.57,3.281ZM214.676-.034c-2.193,0-3.434-.544-3.434-1.547s1.241-1.547,3.434-1.547c2.159,0,3.417.544,3.417,1.547S216.835-.034,214.676-.034Zm0-4.454c-3.213,0-5.185,1.088-5.185,2.907,0,1.836,1.972,2.907,5.185,2.907,3.2,0,5.168-1.071,5.168-2.907C219.844-3.4,217.872-4.488,214.676-4.488Zm8.551-7.939V-11H228.7c-.306,3.536-2.21,6.239-6.239,8.177l.935,1.394c5.27-2.55,7.106-6.426,7.106-11Zm10.047-1.615V1.309h1.751V-14.042ZM245.8-10.931h2.533v-1.445H241.4v1.445h2.7v1.1c0,2.737-1.02,5.508-3.2,6.868l1.054,1.292a7.609,7.609,0,0,0,3.009-4.522,6.987,6.987,0,0,0,2.941,4.148l1.02-1.275c-2.142-1.241-3.128-3.893-3.128-6.511Zm3.672,2.278h-2.261v1.428h2.261V.561h1.649V-13.753h-1.649Zm3.094-5.406V1.292h1.666V-14.059Zm12.563,4.692H261.6v-2.822h3.536Zm-5.287,0h-2.091v1.411h11.2V-9.367h-2.074v-2.822h2.159V-13.6H257.669v1.411h2.176Zm7.072,9.095h-7.089V-2.363h7.089Zm3.4-5.049V-6.732H256.428v1.411H262.5v1.564h-4.4V1.122h10.54V-3.757h-4.386V-5.321ZM275.2-3.6c-1.054,0-1.7-1.377-1.7-3.808s.646-3.791,1.7-3.791,1.7,1.36,1.7,3.791S276.25-3.6,275.2-3.6Zm4.913-4.624H278.46c-.187-2.873-1.428-4.624-3.264-4.624-1.989,0-3.3,2.074-3.3,5.44s1.309,5.457,3.3,5.457c1.87,0,3.128-1.836,3.281-4.828h1.632V.578h1.632V-13.753h-1.632Zm3.077-5.814V1.292h1.666V-14.042Zm9.571,3.247h3.961v-1.428H291.04v9.877h1.02a27.693,27.693,0,0,0,5.593-.425L297.5-4.216a23.559,23.559,0,0,1-4.743.425Zm9.2-3.264V-7.99h-1.819v-5.746h-1.649V.544h1.649V-6.562h1.819V1.292h1.666V-14.059Zm7.633,10.472c-1.037,0-1.768-.833-1.768-2.108s.731-2.125,1.768-2.125,1.768.85,1.768,2.125S310.624-3.587,309.587-3.587Zm0-5.678a3.308,3.308,0,0,0-3.332,3.57,3.317,3.317,0,0,0,3.332,3.57,3.317,3.317,0,0,0,3.332-3.57A3.308,3.308,0,0,0,309.587-9.265Zm.867-4.335H308.72v2.057h-2.907v1.411h7.514v-1.411h-2.873Zm6.8-.442v6.358h-1.632v-6.035H313.99V.6h1.632V-6.239h1.632V1.309h1.666V-14.042ZM325.414,0h1.972V-4.743h1.887c2.72,0,4.709-1.258,4.709-3.995,0-2.822-1.989-3.774-4.777-3.774h-3.791Zm1.972-6.324v-4.607h1.632c1.989,0,3.026.544,3.026,2.193s-.952,2.414-2.958,2.414ZM338.334,0h2.329l3.91-12.512h-2.006l-1.853,6.477c-.408,1.428-.714,2.652-1.139,4.1h-.085c-.442-1.445-.714-2.669-1.139-4.1L336.5-12.512h-2.091Zm12.019.221a4.941,4.941,0,0,0,3.893-1.8l-1.054-1.241A3.646,3.646,0,0,1,350.421-1.5c-2.21,0-3.6-1.819-3.6-4.794,0-2.941,1.5-4.743,3.655-4.743a3.328,3.328,0,0,1,2.448,1.122l1.071-1.258a4.822,4.822,0,0,0-3.553-1.581c-3.162,0-5.644,2.448-5.644,6.528C344.794-2.125,347.208.221,350.353.221Zm21.114-14.28H369.7v8.772h1.768Zm-6.29,5.95h-3.859V-11.7h3.859Zm1.7-4.981H359.6v6.375h7.276Zm4.879,10.1V-4.335h-4.4V-5.712h-1.785v1.377h-4.4v1.343h4.4c-.136,1.309-2.125,2.652-5,2.941l.578,1.326c2.448-.289,4.386-1.258,5.321-2.6a7.446,7.446,0,0,0,5.27,2.6l.578-1.326c-2.839-.306-4.811-1.683-4.947-2.941ZM378.386,0h4.182c2.771,0,4.794-1.19,4.794-3.672A2.873,2.873,0,0,0,384.9-6.647v-.085a2.783,2.783,0,0,0,1.785-2.7c0-2.261-1.853-3.077-4.42-3.077h-3.876Zm1.972-7.293v-3.689h1.734c1.768,0,2.652.493,2.652,1.8,0,1.173-.8,1.887-2.7,1.887Zm0,5.746V-5.8h1.989c1.989,0,3.077.612,3.077,2.023,0,1.53-1.122,2.227-3.077,2.227ZM389.4,0h1.972V-5.389H396V-7.038h-4.624v-3.825h5.44v-1.649H389.4Zm11.254-10.931h1.887c1.819,0,2.8.527,2.8,2.04s-.986,2.261-2.8,2.261h-1.887ZM407.745,0l-3.06-5.3A3.483,3.483,0,0,0,407.3-8.891c0-2.7-1.938-3.621-4.522-3.621h-4.1V0h1.972V-5.049h2.023L405.518,0Zm7.888-12.495c2.38,0,3.655.459,3.655,1.343,0,.867-1.275,1.326-3.655,1.326s-3.655-.459-3.655-1.326C411.978-12.036,413.253-12.495,415.633-12.495Zm0,3.978c3.434,0,5.474-.935,5.474-2.635,0-1.717-2.04-2.652-5.474-2.652-3.451,0-5.474.935-5.474,2.652C410.159-9.452,412.182-8.517,415.633-8.517ZM412.1-1.445h8.738V-5.117H410.329v1.326h8.789v1.105h-8.755V1.173h10.914V-.17H412.1ZM408.68-7.616v1.394h13.906V-7.616ZM431.46.221c2.448,0,4.046-2.176,4.046-6.528,0-4.318-1.6-6.443-4.046-6.443-2.465,0-4.046,2.108-4.046,6.443C427.414-1.955,428.995.221,431.46.221Zm0-1.547c-1.275,0-2.176-1.36-2.176-4.981,0-3.587.9-4.9,2.176-4.9s2.176,1.309,2.176,4.9C433.636-2.686,432.735-1.326,431.46-1.326ZM438.515.221a1.3,1.3,0,0,0,1.309-1.36,1.33,1.33,0,0,0-1.309-1.394,1.33,1.33,0,0,0-1.309,1.394A1.3,1.3,0,0,0,438.515.221Zm6.749,0a4.128,4.128,0,0,0,4.216-4.335,3.6,3.6,0,0,0-3.808-3.978,3.527,3.527,0,0,0-1.717.442l.289-3.213h4.641v-1.649h-6.341l-.374,5.933.952.629a3.292,3.292,0,0,1,2.006-.714,2.321,2.321,0,0,1,2.38,2.618,2.445,2.445,0,0,1-2.482,2.669A4,4,0,0,1,442.1-2.72l-.935,1.275A5.537,5.537,0,0,0,445.264.221Zm8.347-5.049c1.751,0,2.941-1.462,2.941-3.978s-1.19-3.944-2.941-3.944-2.924,1.428-2.924,3.944S451.86-4.828,453.611-4.828Zm0-1.156c-.867,0-1.5-.9-1.5-2.822,0-1.938.629-2.788,1.5-2.788.884,0,1.513.85,1.513,2.788C455.124-6.885,454.5-5.984,453.611-5.984ZM454,.221h1.224l6.868-12.971h-1.241Zm8.5,0c1.734,0,2.924-1.445,2.924-3.961s-1.19-3.944-2.924-3.944c-1.751,0-2.941,1.428-2.941,3.944S460.751.221,462.5.221Zm0-1.139c-.884,0-1.513-.9-1.513-2.822,0-1.938.629-2.788,1.513-2.788.867,0,1.5.85,1.5,2.788C464-1.819,463.369-.918,462.5-.918ZM470.883-12.6V-2.448h7.208V-12.6Zm5.491,1.394v7.344H472.6V-11.2Zm4.556-2.856v15.4H482.7v-15.4Zm10.438,7.174h-3.74v-4.437h3.74Zm1.717-5.848h-7.191v7.259h7.191ZM489.4-3.893h-1.768V1.02h10.336V-.408H489.4Zm7.956-5.593v-4.573H495.6V-2.805h1.751V-8.041h2.176V-9.486Z" transform="translate(162.143 122.488)"/>
  <text id="_" data-name="
" class="cls-6" transform="translate(677.939 122.488)"><tspan x="0" y="0"></tspan><tspan x="0" y="20.4"></tspan></text>
  <path id="패스_8811" data-name="패스 8811" class="cls-5" d="M4.029,3.383l1.224-.544a15.873,15.873,0,0,1-2.142-8.16,15.96,15.96,0,0,1,2.142-8.16l-1.224-.527A16.02,16.02,0,0,0,1.513-5.321,16.035,16.035,0,0,0,4.029,3.383ZM7.361,0H9.333V-4.743H11.22c2.72,0,4.709-1.258,4.709-3.995,0-2.822-1.989-3.774-4.777-3.774H7.361ZM9.333-6.324v-4.607h1.632c1.989,0,3.026.544,3.026,2.193s-.952,2.414-2.958,2.414ZM20.281,0H22.61l3.91-12.512H24.514L22.661-6.035c-.408,1.428-.714,2.652-1.139,4.1h-.085C21-3.383,20.723-4.607,20.3-6.035l-1.853-6.477H16.354ZM32.3.221a4.941,4.941,0,0,0,3.893-1.8L35.139-2.822A3.646,3.646,0,0,1,32.368-1.5c-2.21,0-3.6-1.819-3.6-4.794,0-2.941,1.5-4.743,3.655-4.743a3.328,3.328,0,0,1,2.448,1.122l1.071-1.258a4.822,4.822,0,0,0-3.553-1.581c-3.162,0-5.644,2.448-5.644,6.528C26.741-2.125,29.155.221,32.3.221Zm21.114-14.28H51.646v8.772h1.768Zm-6.29,5.95H43.265V-11.7h3.859Zm1.7-4.981H41.548v6.375h7.276ZM53.7-2.992V-4.335H49.3V-5.712H47.515v1.377h-4.4v1.343h4.4c-.136,1.309-2.125,2.652-5,2.941l.578,1.326c2.448-.289,4.386-1.258,5.321-2.6a7.446,7.446,0,0,0,5.27,2.6l.578-1.326c-2.839-.306-4.811-1.683-4.947-2.941ZM60.333,0h4.182c2.771,0,4.794-1.19,4.794-3.672a2.873,2.873,0,0,0-2.465-2.975v-.085a2.783,2.783,0,0,0,1.785-2.7c0-2.261-1.853-3.077-4.42-3.077H60.333ZM62.3-7.293v-3.689h1.734c1.768,0,2.652.493,2.652,1.8,0,1.173-.8,1.887-2.7,1.887Zm0,5.746V-5.8h1.989c1.989,0,3.077.612,3.077,2.023,0,1.53-1.122,2.227-3.077,2.227ZM71.349,0h1.972V-5.389h4.624V-7.038H73.321v-3.825h5.44v-1.649H71.349ZM82.6-10.931H84.49c1.819,0,2.8.527,2.8,2.04s-.986,2.261-2.8,2.261H82.6ZM89.692,0l-3.06-5.3A3.483,3.483,0,0,0,89.25-8.891c0-2.7-1.938-3.621-4.522-3.621h-4.1V0H82.6V-5.049h2.023L87.465,0Zm5.219,0h1.972V-5.389h4.624V-7.038H96.883v-3.825h5.44v-1.649H94.911Zm11.254-10.931h1.887c1.819,0,2.8.527,2.8,2.04s-.986,2.261-2.8,2.261h-1.887ZM113.254,0l-3.06-5.3a3.483,3.483,0,0,0,2.618-3.587c0-2.7-1.938-3.621-4.522-3.621h-4.1V0h1.972V-5.049h2.023L111.027,0Zm1.734,0h7.582V-1.666h-5.61V-5.712h4.59V-7.378h-4.59v-3.485h5.423v-1.649h-7.395Zm9.877,0h7.582V-1.666h-5.61V-5.712h4.59V-7.378h-4.59v-3.485h5.423v-1.649h-7.4ZM135.1,3.383a15.9,15.9,0,0,0,2.533-8.7,15.889,15.889,0,0,0-2.533-8.687l-1.224.527a15.96,15.96,0,0,1,2.142,8.16,15.873,15.873,0,0,1-2.142,8.16Zm11.509-16.558c-3.213,0-5.644,1.734-5.644,4.335,0,2.618,2.431,4.335,5.644,4.335,3.2,0,5.644-1.717,5.644-4.335C152.252-11.441,149.8-13.175,146.608-13.175Zm0,1.445c2.261,0,3.944,1.122,3.944,2.89s-1.683,2.89-3.944,2.89c-2.278,0-3.944-1.122-3.944-2.89S144.33-11.73,146.608-11.73Zm-6.936,9.656V-.629h13.906V-2.074Zm23.1.136V-4.556h4.794V-5.967h-9.2V-8.109h8.857v-4.862H156.621v1.411h8.874V-9.5h-8.84v4.947h4.369v2.618h-6.052V-.493h13.906V-1.938Zm16.354-10.829h-1.751v2.516a7.77,7.77,0,0,1-3.893,6.919l1.071,1.411a7.933,7.933,0,0,0,3.706-4.811A7.646,7.646,0,0,0,181.8-2.21L182.869-3.6a7.449,7.449,0,0,1-3.74-6.647Zm8.908,4.811h-2.4v-6.086h-1.751V1.309h1.751v-7.82h2.4Zm7.922,7.922c-2.244,0-3.5-.476-3.5-1.411,0-.918,1.258-1.411,3.5-1.411s3.519.493,3.519,1.411C199.478-.51,198.2-.034,195.959-.034Zm0-4.165c-3.3,0-5.287,1-5.287,2.754,0,1.768,1.989,2.754,5.287,2.754,3.315,0,5.287-.986,5.287-2.754C201.246-3.2,199.274-4.2,195.959-4.2Zm-1.87-3.944a13.015,13.015,0,0,0,1.9.136,12.537,12.537,0,0,0,1.87-.136v1.564h-3.774Zm1.9-4.284c2.278,0,3.655.544,3.655,1.53s-1.377,1.547-3.655,1.547c-2.295,0-3.672-.561-3.672-1.547S193.7-12.427,195.993-12.427Zm3.621,5.848V-8.6a2.586,2.586,0,0,0,1.853-2.3c0-1.8-2.125-2.89-5.474-2.89-3.366,0-5.474,1.088-5.474,2.89a2.535,2.535,0,0,0,1.819,2.278v2.04h-3.3v1.394h13.889V-6.579Zm9.214,3.145a2.044,2.044,0,0,1-2.142-2.142,2.044,2.044,0,0,1,2.142-2.142,2.044,2.044,0,0,1,2.142,2.142A2.044,2.044,0,0,1,208.828-3.434Zm0-5.729a3.572,3.572,0,0,0-3.808,3.587,3.562,3.562,0,0,0,3.808,3.587,3.571,3.571,0,0,0,3.808-3.587A3.581,3.581,0,0,0,208.828-9.163Zm.85-4.658h-1.751v2.142h-3.655v1.428h8.993v-1.428h-3.587Zm8.959,5.95h-2.363v-6.171h-1.768V1.326h1.768V-6.409h2.363Zm1.887-4.556V-11H226c-.306,3.536-2.21,6.239-6.239,8.177l.935,1.394c5.27-2.55,7.106-6.426,7.106-11Zm10.047-1.615V1.309h1.751V-14.042Zm12.869,2.108c1.343,0,2.278.7,2.278,1.768,0,1.088-.935,1.785-2.278,1.785-1.326,0-2.278-.7-2.278-1.785C241.162-11.237,242.114-11.934,243.44-11.934Zm0,5c2.295,0,3.961-1.326,3.961-3.23,0-1.887-1.666-3.213-3.961-3.213s-3.961,1.326-3.961,3.213C239.479-8.262,241.145-6.936,243.44-6.936Zm4.947.578a71.442,71.442,0,0,1-9.945.544l.2,1.445c1.19,0,2.55-.017,3.995-.068V.85h1.751V-4.539a33.608,33.608,0,0,0,4.114-.527Zm1-7.684V1.326h1.751V-14.042Zm8.092,10.455c-1.037,0-1.768-.833-1.768-2.108s.731-2.125,1.768-2.125,1.768.85,1.768,2.125S258.519-3.587,257.482-3.587Zm0-5.678A3.308,3.308,0,0,0,254.15-5.7a3.317,3.317,0,0,0,3.332,3.57,3.317,3.317,0,0,0,3.332-3.57A3.308,3.308,0,0,0,257.482-9.265Zm.867-4.335h-1.734v2.057h-2.907v1.411h7.514v-1.411h-2.873Zm6.8-.442v6.358h-1.632v-6.035h-1.632V.6h1.632V-6.239h1.632V1.309h1.666V-14.042Zm20.026.017h-1.751V-2.856h1.751ZM282-6.29a5.006,5.006,0,0,1-3.757-4.59v-.561h3.281v-1.411h-8.4v1.411h3.332v.561A5.236,5.236,0,0,1,272.646-6l.918,1.36a6.178,6.178,0,0,0,3.808-3.553,6.07,6.07,0,0,0,3.74,3.281ZM276.913-.408V-3.876h-1.768v4.9h10.472V-.408ZM297.551-8.6h1.6v4.233h1.666v-9.69h-1.666v4.012h-1.6V-13.77h-1.632v8.891h1.632Zm-2.159-3.723h-2.958v-1.581h-1.717v1.581h-2.975v1.377h7.65Zm-5.525,4.692c0-.833.68-1.377,1.717-1.377,1.02,0,1.734.544,1.734,1.377s-.714,1.377-1.734,1.377C290.547-6.256,289.867-6.8,289.867-7.633Zm5.015,0c0-1.581-1.36-2.652-3.3-2.652-1.921,0-3.281,1.071-3.281,2.652,0,1.6,1.36,2.652,3.281,2.652C293.522-4.981,294.882-6.035,294.882-7.633Zm.833,7.616c-2.193,0-3.451-.493-3.451-1.411s1.258-1.394,3.451-1.394c2.21,0,3.434.476,3.434,1.394S297.925-.017,295.715-.017Zm0-4.131c-3.247,0-5.2.986-5.2,2.72s1.955,2.737,5.2,2.737,5.185-1,5.185-2.737S298.962-4.148,295.715-4.148Zm12.206-3.587c2.686-.289,4.794-1.394,5.627-2.975.816,1.581,2.924,2.686,5.627,2.975l.612-1.377c-2.839-.289-4.811-1.479-5.049-2.856h4.488v-1.411H307.887v1.411h4.454c-.238,1.377-2.21,2.567-5.049,2.856Zm9.112,6.324c0,.884-1.275,1.377-3.519,1.377s-3.5-.493-3.5-1.377c0-.918,1.258-1.394,3.5-1.394S317.033-2.329,317.033-1.411Zm3.451-4.148V-6.953H306.6v1.394h6.069v1.411c-2.788.17-4.437,1.139-4.437,2.737,0,1.734,1.989,2.72,5.287,2.72,3.315,0,5.287-.986,5.287-2.72,0-1.6-1.615-2.55-4.386-2.72V-5.559ZM325.363-3.6c-1.054,0-1.7-1.377-1.7-3.808s.646-3.791,1.7-3.791,1.7,1.36,1.7,3.791S326.417-3.6,325.363-3.6Zm4.913-4.624h-1.649c-.187-2.873-1.428-4.624-3.264-4.624-1.989,0-3.3,2.074-3.3,5.44s1.309,5.457,3.3,5.457c1.87,0,3.128-1.836,3.281-4.828h1.632V.578h1.632V-13.753h-1.632Zm3.077-5.814V1.292h1.666V-14.042Zm19.992.017h-1.751V-5.3h1.751Zm-8.279,2.278a2.178,2.178,0,0,1,2.363,2.176,2.168,2.168,0,0,1-2.363,2.176A2.168,2.168,0,0,1,342.7-9.571,2.178,2.178,0,0,1,345.066-11.747Zm0,5.8c2.346,0,4.063-1.479,4.063-3.621s-1.717-3.621-4.063-3.621-4.08,1.479-4.08,3.621S342.72-5.95,345.066-5.95Zm6.647,1.309H350v.68A4.425,4.425,0,0,1,347.99-.442a4.124,4.124,0,0,1-1.938-3.519v-.68h-1.7v.68a4.147,4.147,0,0,1-2.975,3.774l.85,1.292a5.182,5.182,0,0,0,2.975-2.72,4.817,4.817,0,0,0,2.822,2.856,5.183,5.183,0,0,0,2.8-2.89,4.955,4.955,0,0,0,3.009,2.754L354.7-.187a3.977,3.977,0,0,1-2.992-3.774Zm17.425-4.811c-3.043-.391-5.3-2.074-5.3-3.842v-.6h-1.8v.6c0,1.785-2.227,3.451-5.3,3.842l.646,1.36a7.65,7.65,0,0,0,5.559-3.094,7.721,7.721,0,0,0,5.576,3.094ZM366.35-.272h-6.919V-1.921h6.919Zm0-2.992h-6.919V-4.828H357.7v5.95h10.4v-5.95H366.35Zm-10.37-3.91V-5.78h13.906V-7.174Zm17.952-5.372H372.2v9.979h1.309A36.668,36.668,0,0,0,381-3.3l-.187-1.462a35.555,35.555,0,0,1-6.885.7Zm8.3-1.5V1.309h1.751V-14.042Zm6.732,2.873h5.389V-12.6h-7.14V-2.448h1.258a37.888,37.888,0,0,0,7.174-.51L395.454-4.4a37.063,37.063,0,0,1-6.494.493Zm11.917,3.026h-2.4v-5.916h-1.751V1.326h1.751V-6.7h2.4ZM403.563.221a1.3,1.3,0,0,0,1.309-1.36,1.33,1.33,0,0,0-1.309-1.394,1.33,1.33,0,0,0-1.309,1.394A1.3,1.3,0,0,0,403.563.221Z" transform="translate(211.153 145.489)"/>
  <rect id="사각형_88" data-name="사각형 88" class="cls-4" width="737.556" height="68" transform="translate(49.222 603.291)"/>
  <path id="패스_8818" data-name="패스 8818" class="cls-5" d="M.748,0H8.823V-1.666H5.7c-.612,0-1.394.051-2.04.119C6.307-4.08,8.228-6.579,8.228-8.993A3.538,3.538,0,0,0,4.454-12.75,4.91,4.91,0,0,0,.646-10.88L1.751-9.792a3.393,3.393,0,0,1,2.465-1.394,2.04,2.04,0,0,1,2.125,2.3c0,2.057-1.9,4.488-5.593,7.752ZM11.9.221a1.3,1.3,0,0,0,1.309-1.36A1.33,1.33,0,0,0,11.9-2.533a1.33,1.33,0,0,0-1.309,1.394A1.3,1.3,0,0,0,11.9.221Zm7.718-8.806.238,1.479L28.917-7.6a27.48,27.48,0,0,1-.527,3.4l1.734.2a31.367,31.367,0,0,0,.663-7.242v-1.411H20.06v1.411h8.993c0,.7,0,1.462-.034,2.3Zm5.763,6.528V-5.916H23.613v3.859H18.428V-.612H32.317V-2.057Zm12.206-9.758a1.6,1.6,0,0,1,1.785,1.564,1.6,1.6,0,0,1-1.785,1.564,1.608,1.608,0,0,1-1.8-1.564A1.608,1.608,0,0,1,37.587-11.815Zm0,4.437c1.938,0,3.349-1.173,3.349-2.873s-1.411-2.873-3.349-2.873c-1.955,0-3.366,1.173-3.366,2.873S35.632-7.378,37.587-7.378Zm3.808.629a61.061,61.061,0,0,1-7.871.374l.2,1.462c.833,0,1.87-.017,2.975-.051V.085h1.666V-5.066a30.856,30.856,0,0,0,3.162-.408Zm.884,2.686H39.61V-2.72h2.669V.561h1.632v-14.3H42.279Zm2.975-10V1.309H46.92V-14.059Zm14.654,0v15.4h1.768v-15.4ZM53.5-12.92c-2.278,0-3.944,2.108-3.944,5.406,0,3.332,1.666,5.423,3.944,5.423,2.3,0,3.961-2.091,3.961-5.423C57.46-10.812,55.794-12.92,53.5-12.92Zm0,1.581c1.343,0,2.278,1.445,2.278,3.825,0,2.414-.935,3.859-2.278,3.859-1.326,0-2.261-1.445-2.261-3.859C51.238-9.894,52.173-11.339,53.5-11.339Zm23.171,1.7H67.881V-13.5H66.13v5.287H76.67ZM67.779-3.553H66.028V.969H76.755V-.442H67.779ZM64.328-6.375v1.411h13.94V-6.375ZM83.011,0h8.075V-1.666H87.958c-.612,0-1.394.051-2.04.119,2.652-2.533,4.573-5.032,4.573-7.446a3.538,3.538,0,0,0-3.774-3.757,4.91,4.91,0,0,0-3.808,1.87l1.1,1.088a3.393,3.393,0,0,1,2.465-1.394,2.04,2.04,0,0,1,2.125,2.3c0,2.057-1.9,4.488-5.593,7.752ZM96.475.221c2.448,0,4.046-2.176,4.046-6.528,0-4.318-1.6-6.443-4.046-6.443-2.465,0-4.046,2.108-4.046,6.443C92.429-1.955,94.01.221,96.475.221Zm0-1.547c-1.275,0-2.176-1.36-2.176-4.981,0-3.587.9-4.9,2.176-4.9s2.176,1.309,2.176,4.9C98.651-2.686,97.75-1.326,96.475-1.326ZM101.745,0h8.075V-1.666h-3.128c-.612,0-1.394.051-2.04.119,2.652-2.533,4.573-5.032,4.573-7.446a3.538,3.538,0,0,0-3.774-3.757,4.91,4.91,0,0,0-3.808,1.87l1.1,1.088a3.393,3.393,0,0,1,2.465-1.394,2.04,2.04,0,0,1,2.125,2.3c0,2.057-1.9,4.488-5.593,7.752Zm9.367,0h8.075V-1.666h-3.128c-.612,0-1.394.051-2.04.119,2.652-2.533,4.573-5.032,4.573-7.446a3.538,3.538,0,0,0-3.774-3.757,4.91,4.91,0,0,0-3.808,1.87l1.1,1.088a3.393,3.393,0,0,1,2.465-1.394,2.04,2.04,0,0,1,2.125,2.3c0,2.057-1.9,4.488-5.593,7.752Zm20.451-2.7h1.751V-14.042h-1.751v1.87h-4.08v1.394h4.08v1.513h-4.08v1.394h4.08Zm-2.38-4.114a34.79,34.79,0,0,1-5.967.51v-6.681h-1.751v8.126h1.19a36.267,36.267,0,0,0,6.7-.527ZM125.1-.408v-3.3h-1.751V1.02h10.353V-.408Zm11.2-12.019v1.445h2.5a11.588,11.588,0,0,1-3.094,7.956l1.394.969c2.737-2.975,3.349-6.426,3.349-10.37Zm4.675,0v1.445h2.04c-.119,3.315-.748,6.307-2.958,8.959l1.411.986c2.737-3.349,3.2-7.361,3.2-11.39ZM150.2-7.854h-2.176v-6.188h-1.751V1.292h1.751v-7.7H150.2Zm6.664-3.213h3.417v-1.445h-8.6v1.445h3.417V-9.6a7.507,7.507,0,0,1-3.961,6.6l1,1.394a7.918,7.918,0,0,0,3.859-4.828,7.524,7.524,0,0,0,3.876,4.437l.969-1.377A6.926,6.926,0,0,1,156.859-9.6Zm5.2-2.975V1.309h1.768V-14.042Zm11.186,2.618h7.31v4.556h-7.31Zm4.539,9.418V-5.474h4.488v-7.344H171.53v7.344h4.505v3.468h-6.052V-.578h13.906V-2.006Zm19.822-7.276h-8.857v-2.737h8.738V-13.43H187.017v5.576h10.591Zm-8.857,5.763H187V1h10.727V-.408h-8.976ZM185.3-6.375v1.428h13.889V-6.375Zm30.5-1.564a14.537,14.537,0,0,0,.425-4.08v-1.292h-10.54V-11.9h8.806a13.692,13.692,0,0,1-.408,3.774ZM210.953-.034c-2.278,0-3.672-.561-3.672-1.53,0-.952,1.394-1.513,3.672-1.513,2.261,0,3.621.561,3.621,1.513C214.574-.6,213.214-.034,210.953-.034Zm0-4.386c-3.315,0-5.406,1.088-5.406,2.856,0,1.785,2.091,2.873,5.406,2.873,3.264,0,5.372-1.088,5.372-2.873C216.325-3.332,214.217-4.42,210.953-4.42Zm.34-2.6V-9.843h-1.768v2.822h-5.44V-5.61h13.838V-7.021Zm8.942-5.406V-11h5.474c-.306,3.536-2.21,6.239-6.239,8.177l.935,1.394c5.27-2.55,7.106-6.426,7.106-11Zm10.047-1.615V1.309h1.751V-14.042Zm12.58,4.233v1.445h2.771v3.6h1.751v-9.3h-1.751v4.25Zm.952,3.128c-2.346-.68-3.74-2.346-3.74-4.1v-.136h3.23v-1.394h-3.213v-1.819h-1.768v1.819h-3.23v1.394h3.23v.136a4.8,4.8,0,0,1-3.689,4.471l.85,1.36a5.974,5.974,0,0,0,3.774-3.3A5.91,5.91,0,0,0,243-5.338Zm-1.547,6.63c-2.176,0-3.417-.544-3.417-1.513s1.241-1.5,3.417-1.5c2.193,0,3.434.527,3.434,1.5S244.46-.051,242.267-.051Zm0-4.369c-3.213,0-5.168,1.054-5.168,2.856s1.955,2.873,5.168,2.873,5.185-1.071,5.185-2.873S245.48-4.42,242.267-4.42Zm15.946-5.763v1.428h2.72V-4.9h1.751v-9.146h-1.751v3.859Zm.884,3.417a5.035,5.035,0,0,1-3.6-4.624v-.2h3.2v-1.411h-8.211v1.411h3.247v.221a5.39,5.39,0,0,1-3.757,5l.9,1.394A6.353,6.353,0,0,0,254.66-8.67a6,6,0,0,0,3.57,3.281ZM257.584-.034c-2.193,0-3.434-.544-3.434-1.547s1.241-1.547,3.434-1.547c2.159,0,3.417.544,3.417,1.547S259.743-.034,257.584-.034Zm0-4.454c-3.213,0-5.185,1.088-5.185,2.907,0,1.836,1.972,2.907,5.185,2.907,3.2,0,5.168-1.071,5.168-2.907C262.752-3.4,260.78-4.488,257.584-4.488Zm8.551-7.939V-11h5.474c-.306,3.536-2.21,6.239-6.239,8.177l.935,1.394c5.27-2.55,7.106-6.426,7.106-11Zm10.047-1.615V1.309h1.751V-14.042Zm12.529,3.111h2.533v-1.445h-6.936v1.445h2.7v1.1c0,2.737-1.02,5.508-3.2,6.868l1.054,1.292a7.609,7.609,0,0,0,3.009-4.522,6.987,6.987,0,0,0,2.941,4.148l1.02-1.275c-2.142-1.241-3.128-3.893-3.128-6.511Zm3.672,2.278h-2.261v1.428h2.261V.561h1.649V-13.753h-1.649Zm3.094-5.406V1.292h1.666V-14.059ZM308.04-9.367H304.5v-2.822h3.536Zm-5.287,0h-2.091v1.411h11.2V-9.367h-2.074v-2.822h2.159V-13.6H300.577v1.411h2.176Zm7.072,9.095h-7.089V-2.363h7.089Zm3.4-5.049V-6.732H299.336v1.411H305.4v1.564H301V1.122h10.54V-3.757h-4.386V-5.321ZM318.1-3.6c-1.054,0-1.7-1.377-1.7-3.808s.646-3.791,1.7-3.791,1.7,1.36,1.7,3.791S319.158-3.6,318.1-3.6Zm4.913-4.624h-1.649c-.187-2.873-1.428-4.624-3.264-4.624-1.989,0-3.3,2.074-3.3,5.44s1.309,5.457,3.3,5.457c1.87,0,3.128-1.836,3.281-4.828h1.632V.578h1.632V-13.753h-1.632Zm3.077-5.814V1.292h1.666V-14.042Zm9.792.816a3.877,3.877,0,0,0-2.244,3.6c0,1.258.493,1.972,1.394,1.972a1.121,1.121,0,0,0,1.156-1.207,1.1,1.1,0,0,0-1.156-1.122.7.7,0,0,0-.187.017,2.674,2.674,0,0,1,1.547-2.38ZM338.946,0h1.972V-4.743H342.8c2.72,0,4.709-1.258,4.709-3.995,0-2.822-1.989-3.774-4.777-3.774h-3.791Zm1.972-6.324v-4.607h1.632c1.989,0,3.026.544,3.026,2.193s-.952,2.414-2.958,2.414ZM351.866,0H354.2l3.91-12.512H356.1l-1.853,6.477c-.408,1.428-.714,2.652-1.139,4.1h-.085c-.442-1.445-.714-2.669-1.139-4.1l-1.853-6.477h-2.091Zm12.019.221a4.941,4.941,0,0,0,3.893-1.8l-1.054-1.241A3.646,3.646,0,0,1,363.953-1.5c-2.21,0-3.6-1.819-3.6-4.794,0-2.941,1.5-4.743,3.655-4.743a3.328,3.328,0,0,1,2.448,1.122l1.071-1.258a4.822,4.822,0,0,0-3.553-1.581c-3.162,0-5.644,2.448-5.644,6.528C358.326-2.125,360.74.221,363.885.221ZM373.133,0h1.972V-5.389h4.624V-7.038h-4.624v-3.825h5.44v-1.649h-7.412Zm11.254-10.931h1.887c1.819,0,2.8.527,2.8,2.04s-.986,2.261-2.8,2.261h-1.887ZM391.476,0l-3.06-5.3a3.483,3.483,0,0,0,2.618-3.587c0-2.7-1.938-3.621-4.522-3.621h-4.1V0h1.972V-5.049h2.023L389.249,0Zm1.734,0h7.582V-1.666h-5.61V-5.712h4.59V-7.378h-4.59v-3.485h5.423v-1.649h-7.4Zm9.877,0h7.582V-1.666h-5.61V-5.712h4.59V-7.378h-4.59v-3.485h5.423v-1.649h-7.4Zm14.161-3.383a2.976,2.976,0,0,1,1.343-2.159,17.634,17.634,0,0,0,3.094,3.383,3.535,3.535,0,0,1-2.159.85A2.1,2.1,0,0,1,417.248-3.383Zm1.377-6.324a1.5,1.5,0,0,1,1.411-1.683c.765,0,1.088.561,1.088,1.241,0,1.037-.884,1.717-1.972,2.414A4.757,4.757,0,0,1,418.625-9.707Zm7.854,8.33a8.476,8.476,0,0,1-2.295-1.071,13.5,13.5,0,0,0,2.176-4.4h-1.8a10.148,10.148,0,0,1-1.683,3.468A16.086,16.086,0,0,1,419.9-6.494c1.377-.986,2.771-2.023,2.771-3.672a2.455,2.455,0,0,0-2.652-2.584,2.951,2.951,0,0,0-3.043,3.06,6.355,6.355,0,0,0,.816,2.822c-1.275.85-2.414,1.887-2.414,3.6,0,1.972,1.513,3.485,3.91,3.485a5.536,5.536,0,0,0,3.723-1.377A9.616,9.616,0,0,0,425.986.221ZM431.6,0h4.182c2.771,0,4.794-1.19,4.794-3.672a2.873,2.873,0,0,0-2.465-2.975v-.085a2.783,2.783,0,0,0,1.785-2.7c0-2.261-1.853-3.077-4.42-3.077H431.6Zm1.972-7.293v-3.689H435.3c1.768,0,2.652.493,2.652,1.8,0,1.173-.8,1.887-2.7,1.887Zm0,5.746V-5.8h1.989c1.989,0,3.077.612,3.077,2.023,0,1.53-1.122,2.227-3.077,2.227ZM442.612,0h1.972V-5.389h4.624V-7.038h-4.624v-3.825h5.44v-1.649h-7.412Zm11.254-10.931h1.887c1.819,0,2.8.527,2.8,2.04s-.986,2.261-2.8,2.261h-1.887ZM460.955,0l-3.06-5.3a3.483,3.483,0,0,0,2.618-3.587c0-2.7-1.938-3.621-4.522-3.621h-4.1V0h1.972V-5.049h2.023L458.728,0Zm5.219,0h1.972V-5.389h4.624V-7.038h-4.624v-3.825h5.44v-1.649h-7.412Zm11.254-10.931h1.887c1.819,0,2.8.527,2.8,2.04s-.986,2.261-2.8,2.261h-1.887ZM484.517,0l-3.06-5.3a3.483,3.483,0,0,0,2.618-3.587c0-2.7-1.938-3.621-4.522-3.621h-4.1V0h1.972V-5.049h2.023L482.29,0Zm1.734,0h7.582V-1.666h-5.61V-5.712h4.59V-7.378h-4.59v-3.485h5.423v-1.649h-7.4Zm9.877,0h7.582V-1.666H498.1V-5.712h4.59V-7.378H498.1v-3.485h5.423v-1.649h-7.4Zm9.962-7.769a3.882,3.882,0,0,0,2.261-3.6c0-1.258-.51-1.972-1.394-1.972a1.1,1.1,0,0,0-1.139,1.207,1.08,1.08,0,0,0,1.139,1.1.578.578,0,0,0,.17-.017,2.681,2.681,0,0,1-1.53,2.4Zm14.28-3.655h-8.653v3.451h10.659V-9.2h-8.942v-1.088h8.67v-3.383H511.683v1.207h8.687ZM513.315-1.241h8.84V-4.675H511.547v1.207h8.874V-2.38h-8.84V1.139h11.033V-.068h-9.3ZM509.932-7v1.292h13.923V-7Zm27.931.238a5.051,5.051,0,0,1-3.6-4.624v-.289h3.2V-13.09h-8.211v1.411h3.247v.306a5.307,5.307,0,0,1-3.774,4.913l.9,1.377a6.268,6.268,0,0,0,3.791-3.6A6.076,6.076,0,0,0,537-5.406ZM531.1-2.7h8.6V1.309h1.751V-4.114H531.1Zm8.6-11.356V-10.2h-2.686v1.445H539.7v3.876h1.751v-9.18ZM550.936-.034c-2.244,0-3.5-.476-3.5-1.411,0-.918,1.258-1.411,3.5-1.411s3.519.493,3.519,1.411C554.455-.51,553.18-.034,550.936-.034Zm0-4.165c-3.3,0-5.287,1-5.287,2.754,0,1.768,1.989,2.754,5.287,2.754,3.315,0,5.287-.986,5.287-2.754C556.223-3.2,554.251-4.2,550.936-4.2Zm-1.87-3.944a13.016,13.016,0,0,0,1.9.136,12.537,12.537,0,0,0,1.87-.136v1.564h-3.774Zm1.9-4.284c2.278,0,3.655.544,3.655,1.53S553.248-9.35,550.97-9.35c-2.295,0-3.672-.561-3.672-1.547S548.675-12.427,550.97-12.427Zm3.621,5.848V-8.6a2.586,2.586,0,0,0,1.853-2.3c0-1.8-2.125-2.89-5.474-2.89-3.366,0-5.474,1.088-5.474,2.89a2.535,2.535,0,0,0,1.819,2.278v2.04h-3.3v1.394h13.889V-6.579Zm13.821-6.171h-3.655v-1.445h-1.751v1.445h-3.655v1.326h9.061Zm-6.579,4.386c0-.8.8-1.258,2.04-1.258,1.258,0,2.057.459,2.057,1.258,0,.782-.8,1.241-2.057,1.241C562.632-7.123,561.833-7.582,561.833-8.364Zm5.763,0c0-1.564-1.462-2.533-3.723-2.533-2.244,0-3.723.969-3.723,2.533,0,1.547,1.479,2.5,3.723,2.5C566.134-5.865,567.6-6.817,567.6-8.364Zm-4.437,7.021h8.16V-4.964h-9.911v1.292h8.177v1.105h-8.143v3.74h10.387V-.136h-8.67Zm8.16-9.231v-3.5h-1.751v8.415h1.751V-9.129h2.176v-1.445Zm15.147.68h-1.938a13.862,13.862,0,0,0,.17-2.261h-5.933v1.411h4.2a9.342,9.342,0,0,1-4.947,7.565l1,1.241a10.8,10.8,0,0,0,5.2-6.528h2.244v2.431H583.95v1.428h2.516V.561H588.1V-13.668h-1.632Zm3.094-4.148V1.309h1.683V-14.042Zm13.4,1.292h-3.6v-1.411h-1.768v1.411h-3.6v1.275h8.976Zm-6.528,4.029c0-.68.8-1.088,2.04-1.088,1.258,0,2.057.408,2.057,1.088,0,.714-.8,1.122-2.057,1.122C597.227-7.6,596.428-8.007,596.428-8.721Zm6.8,2.805c-1.241.17-2.55.272-3.876.34V-6.46c1.734-.2,2.839-1.037,2.839-2.261,0-1.394-1.479-2.278-3.723-2.278-2.227,0-3.706.884-3.706,2.278,0,1.224,1.088,2.057,2.822,2.261v.952c-1.445.051-2.856.051-4.08.051l.221,1.36a59.391,59.391,0,0,0,9.639-.612Zm-7.565,4.267h8.653V1.326h1.751V-3.043h-10.4Zm8.653-12.376V-3.689h1.751V-14.025Zm15.3-.017V-5.8h1.751v-8.245Zm-8.279,8.959v6.2h10.03v-6.2h-1.734v1.7h-6.562v-1.7Zm1.734,3.06h6.562V-.289h-6.562Zm.017-11.322c-2.346,0-4.08,1.462-4.08,3.57s1.734,3.57,4.08,3.57,4.063-1.462,4.063-3.57S615.434-13.345,613.088-13.345Zm0,1.445a2.15,2.15,0,0,1,2.363,2.125,2.14,2.14,0,0,1-2.363,2.125,2.132,2.132,0,0,1-2.363-2.125A2.141,2.141,0,0,1,613.088-11.9Zm13.566-.646H624.92v9.979h1.309a36.667,36.667,0,0,0,7.5-.731l-.187-1.462a35.555,35.555,0,0,1-6.885.7Zm8.3-1.5V1.309H636.7V-14.042Zm6.732,2.873h5.389V-12.6h-7.14V-2.448h1.258a37.889,37.889,0,0,0,7.174-.51L648.176-4.4a37.064,37.064,0,0,1-6.494.493ZM653.6-8.143h-2.4v-5.916h-1.751V1.326H651.2V-6.7h2.4ZM656.285.221a1.3,1.3,0,0,0,1.309-1.36,1.33,1.33,0,0,0-1.309-1.394,1.33,1.33,0,0,0-1.309,1.394A1.3,1.3,0,0,0,656.285.221Z" transform="translate(75 644.771)"/>
  <line id="선_774" data-name="선 774" class="cls-7" y2="42" transform="translate(418 189.55)"/>
  <line id="선_775" data-name="선 775" class="cls-8" y2="20" transform="translate(418 211.55)"/>
  <line id="선_776" data-name="선 776" class="cls-7" y2="42" transform="translate(418 531.291)"/>
  <line id="선_777" data-name="선 777" class="cls-8" y2="20" transform="translate(418 553.291)"/>
  <path id="패스_8812" data-name="패스 8812" class="cls-3" d="M2.227-5.627A7.736,7.736,0,0,0,7.8-8.432a7.723,7.723,0,0,0,5.542,2.805l.8-1.768c-3.23-.357-4.913-1.9-5.185-3.23H13.6V-12.41H8.908v-1.751H6.664v1.751H2.006v1.785H6.63c-.255,1.36-1.921,2.873-5.185,3.23Zm12.665.8H.748v1.819H6.664V1.5H8.908V-3.009h5.984Zm14.144-9.367H26.775V-2.873h2.261ZM25.789-6.528a4.874,4.874,0,0,1-3.672-4.59v-.187h3.094v-1.768H16.694v1.768h3.145v.187A5.005,5.005,0,0,1,16.1-6.29l1.139,1.751a6.118,6.118,0,0,0,3.774-3.332,6,6,0,0,0,3.638,3.06ZM20.859-.6v-3.3H18.615V1.19H29.427V-.6Zm18.6-9.469H37.944a19.535,19.535,0,0,0,.136-2.278H31.994v1.785h3.859C35.564-7.5,34.2-5.236,31.11-3.349l1.275,1.564A10.523,10.523,0,0,0,37.57-8.279h1.887v2.125H37.281v1.8h2.176V.782h2.091V-13.855H39.457Zm3.213-4.148V1.462h2.125V-14.212Zm13.668,1.173H52.887v-1.275H50.643v1.275H47.158v1.6h9.18ZM50.014-8.721c0-.578.68-.867,1.751-.867,1.054,0,1.717.289,1.717.867,0,.561-.663.884-1.717.884C50.694-7.837,50.014-8.16,50.014-8.721ZM56.491-6c-1.156.136-2.38.238-3.6.306v-.748c1.666-.255,2.737-1.088,2.737-2.278,0-1.428-1.564-2.329-3.859-2.329-2.329,0-3.893.9-3.893,2.329,0,1.19,1.071,2.023,2.771,2.278v.833c-1.411.034-2.737.034-3.927.034l.289,1.683A59.391,59.391,0,0,0,56.644-4.5Zm-7.633,4.76h8.551v2.72H59.67V-2.975H48.858Zm8.551-12.937V-3.587H59.67V-14.178Z" transform="translate(388.563 276.511)"/>
  <path id="패스_8813" data-name="패스 8813" class="cls-9" d="M5.872-12.016H4.224v2.368A7.313,7.313,0,0,1,.56-3.136L1.568-1.808A7.466,7.466,0,0,0,5.056-6.336,7.2,7.2,0,0,0,8.384-2.08L9.392-3.392a7.011,7.011,0,0,1-3.52-6.256Zm8.384,4.528H12v-5.728H10.352V1.232H12v-7.36h2.256ZM21.712-.032c-2.112,0-3.3-.448-3.3-1.328,0-.864,1.184-1.328,3.3-1.328s3.312.464,3.312,1.328C25.024-.48,23.824-.032,21.712-.032Zm0-3.92c-3.1,0-4.976.944-4.976,2.592,0,1.664,1.872,2.592,4.976,2.592,3.12,0,4.976-.928,4.976-2.592C26.688-3.008,24.832-3.952,21.712-3.952Zm-1.76-3.712a12.25,12.25,0,0,0,1.792.128,11.8,11.8,0,0,0,1.76-.128v1.472H19.952ZM21.744-11.7c2.144,0,3.44.512,3.44,1.44S23.888-8.8,21.744-8.8c-2.16,0-3.456-.528-3.456-1.456S19.584-11.7,21.744-11.7Zm3.408,5.5V-8.1a2.434,2.434,0,0,0,1.744-2.16c0-1.7-2-2.72-5.152-2.72-3.168,0-5.152,1.024-5.152,2.72A2.386,2.386,0,0,0,18.3-8.112v1.92H15.2V-4.88H28.272V-6.192Zm14.784,4h1.648V-13.216H39.936v3.728H37.728v1.344h2.208v1.728H37.728v1.328h2.208Zm-2.272-9.376h-3.12v-1.68H32.9v1.68H29.648v1.312h8.016ZM31.952-6.784a1.56,1.56,0,0,1,1.76-1.52,1.566,1.566,0,0,1,1.776,1.52c0,.944-.72,1.5-1.776,1.5C32.672-5.28,31.952-5.84,31.952-6.784Zm5.088,0c0-1.68-1.36-2.8-3.328-2.8-1.952,0-3.312,1.12-3.312,2.8,0,1.664,1.36,2.8,3.312,2.8C35.68-3.984,37.04-5.12,37.04-6.784Zm-3.2,6.4V-3.12H32.176V.96H41.92V-.384Zm18.672-11.68h-3.28v-1.264H47.568v1.264H44.256v1.216h8.256ZM46.5-8.3c0-.608.736-.96,1.888-.96,1.168,0,1.888.352,1.888.96,0,.624-.72.976-1.888.976C47.232-7.328,46.5-7.68,46.5-8.3Zm6.416,2.64c-1.168.16-2.432.256-3.68.32v-.944c1.6-.192,2.592-.928,2.592-2.016,0-1.28-1.36-2.048-3.44-2.048s-3.44.768-3.44,2.048c0,1.1.992,1.824,2.624,2.016V-5.28c-1.328.048-2.592.048-3.68.048l.192,1.28a52.784,52.784,0,0,0,8.96-.592Zm-2.3,5.7c-2.1,0-3.168-.352-3.168-1.04,0-.7,1.072-1.056,3.168-1.056,2.08,0,3.152.352,3.152,1.056C53.76-.32,52.688.032,50.608.032Zm0-3.3c-3.056,0-4.832.784-4.832,2.256,0,1.456,1.776,2.256,4.832,2.256,3.04,0,4.816-.8,4.816-2.256C55.424-2.48,53.648-3.264,50.608-3.264Zm4.72-5.712V-13.2H53.68v9.744h1.648v-4.16h1.984v-1.36ZM62.944-4.7a7.4,7.4,0,0,0,5.28-3.68,7.482,7.482,0,0,0,5.36,3.632l.672-1.312c-2.864-.448-5.168-2.4-5.168-4.576v-.032H73.68V-12H62.768v1.328H67.36v.032c0,2.176-2.288,4.176-5.1,4.624Zm6.128,2.816V-5.264H67.408v3.376H61.7V-.544H74.784V-1.888Zm12.08-10.128H79.5v2.368A7.313,7.313,0,0,1,75.84-3.136l1.008,1.328a7.466,7.466,0,0,0,3.488-4.528A7.2,7.2,0,0,0,83.664-2.08l1.008-1.312a7.011,7.011,0,0,1-3.52-6.256Zm8.384,4.528H87.28v-5.728H85.632V1.232H87.28v-7.36h2.256Z" transform="translate(79.047 478.291)"/>
  <path id="패스_8814" data-name="패스 8814" class="cls-9" d="M2.912-10.16H6.64V-11.5H1.3v9.3h.96a26.064,26.064,0,0,0,5.264-.4l-.144-1.36a22.173,22.173,0,0,1-4.464.4Zm8.656-3.072V-7.52H9.856v-5.408H8.3V.512H9.856V-6.176h1.712V1.216h1.568V-13.232Zm7.984,3.92h2.48v-1.36h-2.48V-12.72H17.984v2.048h-2.5v1.36h2.5V-8.8A6.839,6.839,0,0,1,15.04-2.864l.944,1.248a6.615,6.615,0,0,0,2.8-3.952A6.247,6.247,0,0,0,21.6-1.936l.912-1.232A6.28,6.28,0,0,1,19.552-8.8Zm3.5,1.7H21.1v1.344h1.952v6.8h1.552V-12.928H23.056Zm2.912-5.6V1.232h1.568V-13.216ZM42.144-6.384c-2.848-.48-5.168-2.624-5.168-4.864v-1.088H35.232v1.088c0,2.224-2.32,4.384-5.184,4.864l.7,1.376a7.615,7.615,0,0,0,5.36-3.824,7.489,7.489,0,0,0,5.344,3.824ZM36.912-1.92V-5.3H35.264V-1.92H29.616V-.56H42.7V-1.92Zm11.5-8.352h2.416v-1.36H44.208v1.36h2.608v.8c0,2.864-.912,5.376-3.008,6.592l1.008,1.232a6.626,6.626,0,0,0,2.848-4.16,6.182,6.182,0,0,0,2.8,3.664l.96-1.264c-2.1-1.088-3.008-3.456-3.008-6.064Zm6.432-2.96V-7.52H53.264v-5.44H51.712V.56h1.552V-6.16h1.584V1.232h1.568V-13.232Zm18.752,0H71.936v8.256H73.6Zm-5.92,5.6H64.048v-3.376H67.68Zm1.6-4.688H62.432v6H69.28Zm4.592,9.5V-4.08H69.728v-1.3h-1.68v1.3H63.9v1.264h4.144c-.128,1.232-2,2.5-4.7,2.768L63.888,1.2A7.033,7.033,0,0,0,68.9-1.248,7.008,7.008,0,0,0,73.856,1.2L74.4-.048c-2.672-.288-4.528-1.584-4.656-2.768ZM89.2-7.664H82.592V-9.5H89.2Zm1.648-4.992H89.2v1.824H82.592v-1.824H80.944v6.32h9.9Zm1.616,7.888H79.36V-3.44h5.68V1.248h1.648V-3.44h5.776Zm9.488-4.048H98.624v-2.656h3.328Zm-4.976,0H95.008v1.328h10.544V-8.816H103.6v-2.656h2.032V-12.8h-10.7v1.328h2.048Zm6.656,8.56H96.96V-2.224h6.672Zm3.2-4.752V-6.336H93.76v1.328h5.712v1.472H95.328V1.056h9.92V-3.536H101.12V-5.008Zm5.152-6.384v1.344h4.048a8.464,8.464,0,0,1-4.656,7.088l.96,1.168c4.064-2.336,5.328-5.744,5.328-9.6Zm10.192-1.824v5.648h-1.648v-5.264h-1.552V.56h1.552V-6.224h1.648V1.232h1.568V-13.216Zm9.36,5.616H128V-9.44h3.536Zm1.632-5.008h-1.632v1.9H128v-1.9h-1.648v6.32h6.816ZM129.456-1.472h7.68v-3.7h-9.328v1.28h7.7v1.2H127.84V1.1h9.776v-1.3h-8.16Zm7.68-8.784v-2.96h-1.648v7.408h1.648V-8.9h2.032v-1.36Zm18.3-2.976h-1.664v8.256h1.664Zm-5.92,5.6h-3.632v-3.376h3.632Zm1.6-4.688h-6.848v6h6.848Zm4.592,9.5V-4.08h-4.144v-1.3h-1.68v1.3h-4.144v1.264h4.144c-.128,1.232-2,2.5-4.7,2.768l.544,1.248a7.033,7.033,0,0,0,5.008-2.448A7.008,7.008,0,0,0,155.7,1.2l.544-1.248c-2.672-.288-4.528-1.584-4.656-2.768Z" transform="translate(239.688 478.291)"/>
  <text id="_2" data-name="
" class="cls-10" transform="translate(404.487 478.291)"><tspan x="0" y="0"></tspan><tspan x="0" y="19.2"></tspan></text>
  <path id="패스_8815" data-name="패스 8815" class="cls-9" d="M6.5-7.6H2.96V-9.44H6.5Zm1.632-5.008H6.5v1.9H2.96v-1.9H1.312v6.32H8.128ZM4.416-1.472H12.1v-3.7H2.768v1.28h7.7v1.2H2.8V1.1h9.776v-1.3H4.416Zm7.68-8.784v-2.96H10.448v7.408H12.1V-8.9h2.032v-1.36ZM28.3-6.816V-8.128H26.4a18.587,18.587,0,0,0,.272-3.584v-.944H16.864v1.312h8.192a16.3,16.3,0,0,1-.3,3.216H15.216v1.312h5.7v1.632H16.72v1.3h8.32v1.232H16.752V1.088h10.3v-1.3H18.4V-1.5h8.288v-3.68H22.56V-6.816ZM30.064,3.2A3.751,3.751,0,0,0,32.688-.4c0-1.232-.528-1.984-1.424-1.984A1.2,1.2,0,0,0,29.984-1.2,1.154,1.154,0,0,0,31.216-.016a.656.656,0,0,0,.176-.016A2.484,2.484,0,0,1,29.648,2.16ZM49.248-13.2H47.6V-2.64h1.648ZM46.1-6.224a5.015,5.015,0,0,1-3.488-4.752v-1.44h-1.68v1.44a5.311,5.311,0,0,1-3.536,5.008L38.24-4.64a6.194,6.194,0,0,0,3.552-3.568,5.862,5.862,0,0,0,3.456,3.3ZM41.472-.384V-3.632H39.808V.96h9.856V-.384Zm15.9-4.64h3.088v-1.3H54.48V-7.872H60.1V-11.92h-7.28v1.3H58.48V-9.1H52.848v4.08h2.864v2.176c-1.376.032-2.688.048-3.9.048l.208,1.36a58.1,58.1,0,0,0,9.2-.528l-.128-1.216c-1.2.144-2.448.224-3.712.272Zm4.592-8.224V1.264h1.664V-13.248ZM76.464-4.7h1.648v-8.528H76.464v2.9H73.536v1.344h2.928ZM74.72-6.576A4.7,4.7,0,0,1,71.328-11.1v-1.344H69.664v1.424A5.056,5.056,0,0,1,66.08-6.176l.864,1.328a5.975,5.975,0,0,0,3.6-3.488,5.609,5.609,0,0,0,3.3,3.056ZM73.3-.064c-2.048,0-3.216-.528-3.216-1.472S71.248-3.008,73.3-3.008s3.232.528,3.232,1.472S75.344-.064,73.3-.064Zm0-4.24c-3.008,0-4.864,1.024-4.864,2.768S70.288,1.232,73.3,1.232c3.024,0,4.88-1.024,4.88-2.768S76.32-4.3,73.3-4.3Zm11.392-8.048v1.344h4.784c-.288,2.224-2.24,3.968-5.552,4.864l.672,1.312c4.176-1.184,6.656-3.776,6.656-7.52ZM88-3.136h6.176V-.272H88ZM86.384,1.056h9.408v-5.5H86.384Zm7.76-14.288v3.6H91.28v1.36h2.864V-5.04h1.648v-8.192Zm11.44,11.408v-2.72h4.272V-5.856H101.52V-7.744h7.888v-1.3H101.52v-1.744h8.208v-1.344H99.84v7.584h4.08v2.72h-5.7v1.36h13.088v-1.36Z" transform="translate(263.224 501.283)"/>
  <path id="패스_8816" data-name="패스 8816" class="cls-9" d="M8.512-9.344v1.36h2.624V-2.64h1.648V-13.2H11.136v3.856Zm.9,3.376A4.751,4.751,0,0,1,6.016-10.3v-.5H9.024v-1.328H1.3V-10.8H4.352v.5A5.029,5.029,0,0,1,.8-5.664l.848,1.3A5.906,5.906,0,0,0,5.216-7.792a5.559,5.559,0,0,0,3.376,3.1ZM5.072-.384V-3.552H3.424V.96h9.728V-.384ZM23.712-11.92h-3.28v-1.36H18.768v1.36H15.456V-10.7h8.256ZM17.7-7.968c0-.688.736-1.1,1.888-1.1s1.888.416,1.888,1.1c0,.672-.736,1.072-1.888,1.072S17.7-7.3,17.7-7.968Zm6.416,2.72c-1.168.176-2.432.272-3.68.352v-.912c1.6-.192,2.592-.992,2.592-2.16,0-1.376-1.36-2.224-3.44-2.224s-3.44.848-3.44,2.224c0,1.184,1.008,1.968,2.624,2.16v.992c-1.328.032-2.608.048-3.68.048l.192,1.312a51.725,51.725,0,0,0,8.96-.656ZM18.832-2.64H17.184V.96h9.84V-.384H18.832Zm7.7-5.68v-4.912H24.88V-1.92h1.648V-6.96h1.984V-8.32Zm3.616-3.072v1.344h4.048A8.464,8.464,0,0,1,29.536-2.96l.96,1.168c4.064-2.336,5.328-5.744,5.328-9.6Zm10.192-1.824v5.648H38.688v-5.264H37.136V.56h1.552V-6.224h1.648V1.232H41.9V-13.216ZM49.7-7.6H46.16V-9.44H49.7Zm1.632-5.008H49.7v1.9H46.16v-1.9H44.512v6.32h6.816ZM47.616-1.472H55.3v-3.7H45.968v1.28h7.7v1.2H46V1.1h9.776v-1.3h-8.16Zm7.68-8.784v-2.96H53.648v7.408H55.3V-8.9h2.032v-1.36ZM70.912-7.888c-2.912-.416-5.088-2.224-5.088-4.1v-.768H64.08v.768c0,1.9-2.144,3.68-5.088,4.1l.64,1.328A7.265,7.265,0,0,0,64.96-9.824,7.311,7.311,0,0,0,70.272-6.56Zm.56,2.688H58.416v1.344H64.08v5.1h1.648v-5.1h5.744Zm10.1-2.08a36.2,36.2,0,0,1-6.384.432v-1.6h4.944v-4.1H73.52V-11.2h4.992v1.5h-4.96V-5.5h1.216a41.083,41.083,0,0,0,6.992-.432Zm1.52,7.008H76.9v-1.5h6.192Zm0-2.8H76.9V-4.56H75.248V1.056H84.72V-4.56H83.088Zm-.016-10.144v7.984H84.72v-7.984Z" transform="translate(472.487 478.291)"/>
  <path id="패스_8817" data-name="패스 8817" class="cls-9" d="M8.512-9.344v1.36h2.624V-2.64h1.648V-13.2H11.136v3.856Zm.9,3.376A4.751,4.751,0,0,1,6.016-10.3v-.5H9.024v-1.328H1.3V-10.8H4.352v.5A5.029,5.029,0,0,1,.8-5.664l.848,1.3A5.906,5.906,0,0,0,5.216-7.792a5.559,5.559,0,0,0,3.376,3.1ZM5.072-.384V-3.552H3.424V.96h9.728V-.384ZM23.712-11.92h-3.28v-1.36H18.768v1.36H15.456V-10.7h8.256ZM17.7-7.968c0-.688.736-1.1,1.888-1.1s1.888.416,1.888,1.1c0,.672-.736,1.072-1.888,1.072S17.7-7.3,17.7-7.968Zm6.416,2.72c-1.168.176-2.432.272-3.68.352v-.912c1.6-.192,2.592-.992,2.592-2.16,0-1.376-1.36-2.224-3.44-2.224s-3.44.848-3.44,2.224c0,1.184,1.008,1.968,2.624,2.16v.992c-1.328.032-2.608.048-3.68.048l.192,1.312a51.725,51.725,0,0,0,8.96-.656ZM18.832-2.64H17.184V.96h9.84V-.384H18.832Zm7.7-5.68v-4.912H24.88V-1.92h1.648V-6.96h1.984V-8.32ZM31.9-9.712c0-.992.848-1.632,2.048-1.632,1.216,0,2.032.64,2.032,1.632,0,1.008-.816,1.648-2.032,1.648C32.752-8.064,31.9-8.7,31.9-9.712Zm6.528,3.728c-1.152.176-2.4.272-3.632.352V-6.88a2.931,2.931,0,0,0,2.72-2.832c0-1.712-1.472-2.88-3.568-2.88s-3.584,1.168-3.584,2.88A2.943,2.943,0,0,0,33.152-6.88v1.312c-1.3.048-2.528.048-3.568.048l.208,1.344a49.322,49.322,0,0,0,8.752-.608Zm-5.2,2.88H31.584V.944h9.84V-.384H33.232Zm7.7-5.376V-13.2H39.28V-2.16h1.648V-7.12h1.984V-8.48Zm8.224,4.16h2.96v2.5h-2.96Zm4.592,2.5v-2.5h2.128V-5.648H47.216v-2h8.336v-4.56H45.568v1.328H53.92v1.92H45.6v4.64h1.92v2.5h-3.5v1.36H57.1v-1.36Z" transform="translate(682.567 478.291)"/>
  <rect id="사각형_89" data-name="사각형 89" class="cls-4" width="738" height="136" transform="translate(49 309.011)"/>
  <line id="선_778" data-name="선 778" class="cls-7" x2="738" transform="translate(49 308.511)"/>
  <line id="선_779" data-name="선 779" class="cls-7" x2="738" transform="translate(49 445.011)"/>
  <line id="선_780" data-name="선 780" class="cls-11" x2="595.014" transform="translate(146.525 380.92)"/>
  <path id="패스_116" data-name="패스 116" class="cls-12" d="M3701.539,3945.983h0m-598.014,0h0" transform="translate(-2959 -3565.063)"/>
  <path id="패스_137" data-name="패스 137" class="cls-13" d="M3179.578,3942.151l3.206,3.674-3.206,3.673" transform="translate(-2959 -3565.063)"/>
  <path id="패스_138" data-name="패스 138" class="cls-13" d="M3375.253,3942.151l3.206,3.674-3.206,3.673" transform="translate(-2959 -3565.063)"/>
  <path id="패스_139" data-name="패스 139" class="cls-13" d="M3570.928,3942.151l3.206,3.674-3.206,3.673" transform="translate(-2959 -3565.063)"/>
  <g id="그룹_4915" data-name="그룹 4915" transform="translate(84 420.477)">
    <g id="그룹_4847" data-name="그룹 4847" class="cls-14">
      <g id="그룹_4843" data-name="그룹 4843" transform="translate(81.27 -40.635)">
        <path id="패스_5092" data-name="패스 5092" class="cls-15" d="M0,0A40.635,40.635,0,0,1-40.635,40.635,40.635,40.635,0,0,1-81.27,0,40.635,40.635,0,0,1-40.635-40.635,40.635,40.635,0,0,1,0,0"/>
      </g>
      <g id="그룹_4844" data-name="그룹 4844" transform="translate(276.945 -40.635)">
        <path id="패스_5093" data-name="패스 5093" class="cls-15" d="M0,0A40.635,40.635,0,0,1-40.635,40.635,40.635,40.635,0,0,1-81.27,0,40.635,40.635,0,0,1-40.635-40.635,40.635,40.635,0,0,1,0,0"/>
      </g>
      <g id="그룹_4845" data-name="그룹 4845" transform="translate(472.62 -40.635)">
        <path id="패스_5094" data-name="패스 5094" class="cls-15" d="M0,0A40.635,40.635,0,0,1-40.635,40.635,40.635,40.635,0,0,1-81.27,0,40.635,40.635,0,0,1-40.635-40.635,40.635,40.635,0,0,1,0,0"/>
      </g>
      <g id="그룹_4846" data-name="그룹 4846" transform="translate(668.295 -40.635)">
        <path id="패스_5095" data-name="패스 5095" class="cls-15" d="M0,0A40.635,40.635,0,0,1-40.635,40.635,40.635,40.635,0,0,1-81.27,0,40.635,40.635,0,0,1-40.635-40.635,40.635,40.635,0,0,1,0,0"/>
      </g>
    </g>
    <path id="패스_5097" data-name="패스 5097" class="cls-9" d="M24.582-18.428H56.263V-59.915H24.582Z"/>
    <g id="그룹_4850" data-name="그룹 4850" class="cls-14">
      <g id="그룹_4848" data-name="그룹 4848" transform="translate(41.857 -29.726)">
        <path id="패스_5098" data-name="패스 5098" class="cls-9" d="M0,0A8.787,8.787,0,0,0,8.787-8.787,8.787,8.787,0,0,0,0-17.575,8.787,8.787,0,0,0-8.787-8.787,8.787,8.787,0,0,0,0,0"/>
      </g>
      <g id="그룹_4849" data-name="그룹 4849" transform="translate(34.848 -46.241)">
        <path id="패스_5099" data-name="패스 5099" class="cls-9" d="M0,0A10.872,10.872,0,1,0,15.368.434,10.87,10.87,0,0,0,0,0M13.483,2.216a8.278,8.278,0,1,1-11.7-.331,8.279,8.279,0,0,1,11.7.331"/>
      </g>
    </g>
    <g id="그룹_4851" data-name="그룹 4851" transform="translate(50.73 -31.324)">
      <path id="패스_5101" data-name="패스 5101" class="cls-9" d="M0,0-1.894,1.719.838,4.495,2.732,2.776Z"/>
    </g>
    <g id="그룹_4853" data-name="그룹 4853" class="cls-14">
      <g id="그룹_4852" data-name="그룹 4852" transform="translate(62.235 -20.81)">
        <path id="패스_5102" data-name="패스 5102" class="cls-9" d="M0,0A.635.635,0,0,1-.025.9l-2.49,2.356a.635.635,0,0,1-.9-.025l-8.181-8.6a.635.635,0,0,1,.025-.9l2.49-2.357a.635.635,0,0,1,.9.025Z"/>
      </g>
    </g>
    <path id="패스_5104" data-name="패스 5104" class="cls-16" d="M22.648-20.471H54.329V-61.958H22.648Z"/>
    <g id="그룹_4854" data-name="그룹 4854" transform="translate(27.608 -54.589)">
      <path id="패스_5105" data-name="패스 5105" class="cls-17" d="M0,0H13.465"/>
    </g>
    <g id="그룹_4855" data-name="그룹 4855" transform="translate(27.608 -50.62)">
      <path id="패스_5106" data-name="패스 5106" class="cls-17" d="M0,0H13.465"/>
    </g>
    <g id="그룹_4856" data-name="그룹 4856" transform="translate(27.608 -46.652)">
      <path id="패스_5107" data-name="패스 5107" class="cls-17" d="M0,0H13.465"/>
    </g>
    <g id="그룹_4857" data-name="그룹 4857" transform="translate(27.608 -42.683)">
      <path id="패스_5108" data-name="패스 5108" class="cls-17" d="M0,0H13.465"/>
    </g>
    <g id="그룹_4861" data-name="그룹 4861" class="cls-14">
      <g id="그룹_4858" data-name="그룹 4858" transform="translate(39.923 -28.935)">
        <path id="패스_5109" data-name="패스 5109" class="cls-4" d="M0,0A8.787,8.787,0,0,0,8.787-8.787,8.787,8.787,0,0,0,0-17.575,8.787,8.787,0,0,0-8.787-8.787,8.787,8.787,0,0,0,0,0"/>
      </g>
      <g id="그룹_4859" data-name="그룹 4859" transform="translate(32.914 -45.449)">
        <path id="패스_5110" data-name="패스 5110" class="cls-4" d="M0,0A10.872,10.872,0,1,0,15.368.434,10.87,10.87,0,0,0,0,0M13.483,2.216a8.278,8.278,0,1,1-11.7-.331,8.279,8.279,0,0,1,11.7.331"/>
      </g>
      <g id="그룹_4860" data-name="그룹 4860" transform="translate(32.914 -45.449)">
        <path id="패스_5111" data-name="패스 5111" class="cls-17" d="M0,0A10.872,10.872,0,1,0,15.368.434,10.87,10.87,0,0,0,0,0ZM13.483,2.216a8.278,8.278,0,1,1-11.7-.331A8.279,8.279,0,0,1,13.483,2.216Z"/>
      </g>
    </g>
    <g id="그룹_4862" data-name="그룹 4862" transform="translate(48.796 -30.532)">
      <path id="패스_5113" data-name="패스 5113" class="cls-4" d="M0,0-1.894,1.719.838,4.495,2.732,2.776Z"/>
    </g>
    <g id="그룹_4863" data-name="그룹 4863" transform="translate(48.796 -30.532)">
      <path id="패스_5114" data-name="패스 5114" class="cls-17" d="M0,0-1.894,1.719.838,4.495,2.732,2.776Z"/>
    </g>
    <g id="그룹_4866" data-name="그룹 4866" class="cls-14">
      <g id="그룹_4864" data-name="그룹 4864" transform="translate(60.3 -20.019)">
        <path id="패스_5115" data-name="패스 5115" class="cls-4" d="M0,0A.635.635,0,0,1-.025.9l-2.49,2.356a.635.635,0,0,1-.9-.025l-8.181-8.6a.635.635,0,0,1,.025-.9l2.49-2.357a.635.635,0,0,1,.9.025Z"/>
      </g>
      <g id="그룹_4865" data-name="그룹 4865" transform="translate(60.3 -20.019)">
        <path id="패스_5116" data-name="패스 5116" class="cls-17" d="M0,0A.635.635,0,0,1-.025.9l-2.49,2.356a.635.635,0,0,1-.9-.025l-8.181-8.6a.635.635,0,0,1,.025-.9l2.49-2.357a.635.635,0,0,1,.9.025Z"/>
      </g>
    </g>
    <g id="그룹_4867" data-name="그룹 4867" transform="translate(250.905 -26.743)">
      <path id="패스_5118" data-name="패스 5118" class="cls-9" d="M0,0V-20.567L-18.053-30.851-36.1-20.567V0l18.052,10.284Z"/>
    </g>
    <g id="그룹_4868" data-name="그룹 4868" transform="translate(243.818 -30.78)">
      <path id="패스_5119" data-name="패스 5119" class="cls-9" d="M0,0V-12.493L-10.966-18.74l-10.965,6.247V0l10.965,6.247Z"/>
    </g>
    <g id="그룹_4869" data-name="그룹 4869" transform="translate(232.678 -49.225)">
      <path id="패스_5120" data-name="패스 5120" class="cls-9" d="M0,0V12.117L-10.137,17.98"/>
    </g>
    <g id="그룹_4876" data-name="그룹 4876" class="cls-14">
      <g id="그룹_4870" data-name="그룹 4870" transform="translate(259.085 -54.876)">
        <path id="패스_5121" data-name="패스 5121" class="cls-9" d="M0,0C-2.683,1.107-4.334.464-5.478-2.131a8.064,8.064,0,0,1-.3-.8,12.949,12.949,0,0,0-2.672.046,7.562,7.562,0,0,1-.3.861C-9.84.6-11.477,1.272-14.184.219a8.452,8.452,0,0,1-.793-.356,12.272,12.272,0,0,0-1.856,1.86,7.542,7.542,0,0,1,.416.815c1.144,2.594.479,4.192-2.2,5.3a8.092,8.092,0,0,1-.822.29,11.622,11.622,0,0,0,.046,2.585A8.59,8.59,0,0,1-18.5,11c2.7,1.053,3.4,2.637,2.316,5.254a7.35,7.35,0,0,1-.371.769,12.435,12.435,0,0,0,1.924,1.794,8.392,8.392,0,0,1,.842-.4c2.683-1.107,4.335-.464,5.478,2.131a7.506,7.506,0,0,1,.3.8A12.951,12.951,0,0,0-5.344,21.3a8.033,8.033,0,0,1,.3-.861C-3.953,17.819-2.316,17.145.39,18.2a8.313,8.313,0,0,1,.793.356A12.213,12.213,0,0,0,3.039,16.7a8.262,8.262,0,0,1-.417-.816c-1.143-2.6-.478-4.192,2.205-5.3a8.179,8.179,0,0,1,.823-.29A11.806,11.806,0,0,0,5.6,7.706a8.212,8.212,0,0,1-.891-.291C2.006,6.362,1.308,4.778,2.4,2.161a8.351,8.351,0,0,1,.369-.768A12.436,12.436,0,0,0,.843-.4,7.8,7.8,0,0,1,0,0"/>
      </g>
      <g id="그룹_4871" data-name="그룹 4871" transform="translate(252.188 -40.892)">
        <path id="패스_5122" data-name="패스 5122" class="cls-9" d="M0,0A4.8,4.8,0,0,0,4.818-4.776,4.8,4.8,0,0,0,0-9.552,4.8,4.8,0,0,0-4.818-4.776,4.8,4.8,0,0,0,0,0"/>
      </g>
      <g id="그룹_4872" data-name="그룹 4872" transform="translate(250.333 -28.98)">
        <path id="패스_5123" data-name="패스 5123" class="cls-4" d="M0,0V-20.988l-18.343-10.5-18.342,10.5V0l18.342,10.5L0,0"/>
      </g>
      <g id="그룹_4873" data-name="그룹 4873" transform="translate(250.333 -28.98)">
        <path id="패스_5124" data-name="패스 5124" class="cls-18" d="M0,0V-20.988l-18.343-10.5-18.342,10.5V0l18.342,10.5Z"/>
      </g>
      <g id="그룹_4874" data-name="그룹 4874" transform="translate(242.936 -33.213)">
        <path id="패스_5125" data-name="패스 5125" class="cls-4" d="M0,0V-12.521l-10.945-6.264-10.946,6.264V0l10.946,6.264L0,0"/>
      </g>
      <g id="그룹_4875" data-name="그룹 4875" transform="translate(242.936 -33.213)">
        <path id="패스_5126" data-name="패스 5126" class="cls-18" d="M0,0V-12.521l-10.945-6.264-10.946,6.264V0l10.946,6.264Z"/>
      </g>
    </g>
    <g id="그룹_4877" data-name="그룹 4877" transform="translate(213.582 -49.918)">
      <path id="패스_5128" data-name="패스 5128" class="cls-18" d="M0,0,7.144,4.028"/>
    </g>
    <g id="그룹_4878" data-name="그룹 4878" transform="translate(250.493 -49.836)">
      <path id="패스_5129" data-name="패스 5129" class="cls-18" d="M0,0-7.363,3.858"/>
    </g>
    <g id="그룹_4879" data-name="그룹 4879" transform="translate(231.976 -26.861)">
      <path id="패스_5130" data-name="패스 5130" class="cls-18" d="M0,0V8.675"/>
    </g>
    <g id="그룹_4880" data-name="그룹 4880" transform="translate(231.808 -52.265)">
      <path id="패스_5131" data-name="패스 5131" class="cls-19" d="M0,0V12.706l-10.581,6.148"/>
    </g>
    <g id="그룹_4881" data-name="그룹 4881" transform="translate(243.049 -33.417)">
      <path id="패스_5132" data-name="패스 5132" class="cls-18" d="M0,0-11-5.991"/>
    </g>
    <g id="그룹_4891" data-name="그룹 4891" class="cls-14">
      <g id="그룹_4882" data-name="그룹 4882" transform="translate(257.918 -55.454)">
        <path id="패스_5133" data-name="패스 5133" class="cls-4" d="M0,0C-2.928,1.209-4.875.449-6.127-2.392c-.079-.18-.147-.353-.209-.523a12.491,12.491,0,0,0-1.924.034c-.063.191-.136.388-.221.591C-9.671.574-11.6,1.372-14.556.223q-.286-.113-.541-.231A11.732,11.732,0,0,0-16.42,1.316q.14.263.27.558a4.536,4.536,0,0,1,.35,3.568,4.7,4.7,0,0,1-2.821,2.394c-.185.077-.365.144-.54.2a11.1,11.1,0,0,0,.033,1.822c.2.061.4.131.612.213a4.708,4.708,0,0,1,2.873,2.34,4.54,4.54,0,0,1-.275,3.572c-.074.177-.15.344-.229.5a11.992,11.992,0,0,0,1.372,1.277c.188-.094.386-.185.6-.273,2.929-1.208,4.875-.448,6.127,2.392.079.179.148.353.21.523a12.492,12.492,0,0,0,1.923-.033c.063-.192.136-.388.221-.591C-4.5,16.92-2.573,16.121.38,17.27c.191.075.371.152.542.231a11.64,11.64,0,0,0,1.323-1.323c-.093-.175-.183-.36-.27-.557a4.541,4.541,0,0,1-.352-3.569,4.705,4.705,0,0,1,2.823-2.4c.185-.077.365-.144.541-.2a11.419,11.419,0,0,0-.034-1.821q-.3-.091-.613-.214A4.707,4.707,0,0,1,1.468,5.08a4.539,4.539,0,0,1,.276-3.573c.073-.177.15-.343.228-.5A11.818,11.818,0,0,0,.6-.272Q.318-.131,0,0Z"/>
      </g>
      <g id="그룹_4883" data-name="그룹 4883" transform="translate(257.918 -55.454)">
        <path id="패스_5134" data-name="패스 5134" class="cls-18" d="M0,0C-2.928,1.209-4.875.449-6.127-2.392c-.079-.18-.147-.353-.209-.523a12.491,12.491,0,0,0-1.924.034c-.063.191-.136.388-.221.591C-9.671.574-11.6,1.372-14.556.223q-.286-.113-.541-.231A11.732,11.732,0,0,0-16.42,1.316q.14.263.27.558a4.536,4.536,0,0,1,.35,3.568,4.7,4.7,0,0,1-2.821,2.394c-.185.077-.365.144-.54.2a11.1,11.1,0,0,0,.033,1.822c.2.061.4.131.612.213a4.708,4.708,0,0,1,2.873,2.34,4.54,4.54,0,0,1-.275,3.572c-.074.177-.15.344-.229.5a11.992,11.992,0,0,0,1.372,1.277c.188-.094.386-.185.6-.273,2.929-1.208,4.875-.448,6.127,2.392.079.179.148.353.21.523a12.492,12.492,0,0,0,1.923-.033c.063-.192.136-.388.221-.591C-4.5,16.92-2.573,16.121.38,17.27c.191.075.371.152.542.231a11.64,11.64,0,0,0,1.323-1.323c-.093-.175-.183-.36-.27-.557a4.541,4.541,0,0,1-.352-3.569,4.705,4.705,0,0,1,2.823-2.4c.185-.077.365-.144.541-.2a11.419,11.419,0,0,0-.034-1.821q-.3-.091-.613-.214A4.707,4.707,0,0,1,1.468,5.08a4.539,4.539,0,0,1,.276-3.573c.073-.177.15-.343.228-.5A11.818,11.818,0,0,0,.6-.272Q.318-.131,0,0Z"/>
      </g>
      <g id="그룹_4884" data-name="그룹 4884" transform="translate(250.833 -42.431)">
        <path id="패스_5135" data-name="패스 5135" class="cls-4" d="M0,0A4.3,4.3,0,0,0,4.318-4.276,4.3,4.3,0,0,0,0-8.552,4.3,4.3,0,0,0-4.318-4.276,4.3,4.3,0,0,0,0,0"/>
      </g>
      <g id="그룹_4885" data-name="그룹 4885" transform="translate(250.833 -42.431)">
        <path id="패스_5136" data-name="패스 5136" class="cls-18" d="M0,0A4.3,4.3,0,0,0,4.318-4.276,4.3,4.3,0,0,0,0-8.552,4.3,4.3,0,0,0-4.318-4.276,4.3,4.3,0,0,0,0,0Z"/>
      </g>
      <g id="그룹_4886" data-name="그룹 4886" transform="translate(647.259 -41.574)">
        <path id="패스_5137" data-name="패스 5137" class="cls-9" d="M0,0A18.872,18.872,0,0,0-1.131-4.029l3.184-1.8L-.612-10.542-3.884-8.691A19.038,19.038,0,0,0-7.043-11.78L-5.128-15.1-9.815-17.8l-1.938,3.355a19.032,19.032,0,0,0-4.073-1.075v-3.891h-5.412v3.873a19.038,19.038,0,0,0-4.1,1.053L-27.248-17.8-31.936-15.1l1.88,3.254a19.008,19.008,0,0,0-3.207,3.106l-3.189-1.8-2.665,4.711,3.087,1.746A18.835,18.835,0,0,0-37.181,0h-3.471V5.412H-37.3a19.11,19.11,0,0,0,1.02,4.226l-2.837,1.605,2.665,4.711,2.757-1.559a19.083,19.083,0,0,0,3.319,3.413l-1.56,2.7,4.688,2.706,1.532-2.654a18.956,18.956,0,0,0,4.478,1.212v3.052h5.412V21.755a19,19,0,0,0,4.455-1.234l1.556,2.695,4.687-2.706-1.6-2.765a19.079,19.079,0,0,0,3.274-3.4l2.839,1.606,2.665-4.711L-.881,9.583a19.107,19.107,0,0,0,1-4.171h3.47V0Z"/>
      </g>
      <g id="그룹_4887" data-name="그룹 4887" transform="translate(646.107 -43.313)">
        <path id="패스_5138" data-name="패스 5138" class="cls-4" d="M0,0A18.766,18.766,0,0,0-1.125-4.008L2.042-5.8-.609-10.485-3.863-8.644a18.954,18.954,0,0,0-3.142-3.073l1.9-3.3-4.662-2.692-1.926,3.337a18.984,18.984,0,0,0-4.052-1.069v-3.87h-5.383v3.852A18.965,18.965,0,0,0-25.2-14.411l-1.9-3.3-4.662,2.692,1.869,3.237A18.874,18.874,0,0,0-33.084-8.69l-3.172-1.8L-38.907-5.8l3.07,1.737A18.762,18.762,0,0,0-36.982,0h-3.452V5.383H-37.1a18.98,18.98,0,0,0,1.014,4.2l-2.822,1.6,2.651,4.686,2.741-1.552a18.954,18.954,0,0,0,3.3,3.395L-31.764,20.4l4.662,2.691,1.524-2.639a18.861,18.861,0,0,0,4.454,1.2v3.036h5.383V21.638a18.906,18.906,0,0,0,4.431-1.227l1.547,2.68L-5.1,20.4l-1.587-2.751a19.006,19.006,0,0,0,3.256-3.378l2.823,1.6,2.651-4.686L-.876,9.532A19.079,19.079,0,0,0,.118,5.383H3.569V0Z"/>
      </g>
      <g id="그룹_4888" data-name="그룹 4888" transform="translate(646.107 -43.313)">
        <path id="패스_5139" data-name="패스 5139" class="cls-17" d="M0,0A18.766,18.766,0,0,0-1.125-4.008L2.042-5.8-.609-10.485-3.863-8.644a18.954,18.954,0,0,0-3.142-3.073l1.9-3.3-4.662-2.692-1.926,3.337a18.984,18.984,0,0,0-4.052-1.069v-3.87h-5.383v3.852A18.965,18.965,0,0,0-25.2-14.411l-1.9-3.3-4.662,2.692,1.869,3.237A18.874,18.874,0,0,0-33.084-8.69l-3.172-1.8L-38.907-5.8l3.07,1.737A18.762,18.762,0,0,0-36.982,0h-3.452V5.383H-37.1a18.98,18.98,0,0,0,1.014,4.2l-2.822,1.6,2.651,4.686,2.741-1.552a18.954,18.954,0,0,0,3.3,3.395L-31.764,20.4l4.662,2.691,1.524-2.639a18.861,18.861,0,0,0,4.454,1.2v3.036h5.383V21.638a18.906,18.906,0,0,0,4.431-1.227l1.547,2.68L-5.1,20.4l-1.587-2.751a19.006,19.006,0,0,0,3.256-3.378l2.823,1.6,2.651-4.686L-.876,9.532A19.079,19.079,0,0,0,.118,5.383H3.569V0Z"/>
      </g>
      <g id="그룹_4889" data-name="그룹 4889" transform="translate(627.615 -26.032)">
        <path id="패스_5140" data-name="패스 5140" class="cls-4" d="M0,0A14.177,14.177,0,0,0,14.177-14.177,14.177,14.177,0,0,0,0-28.354,14.177,14.177,0,0,0-14.177-14.177,14.177,14.177,0,0,0,0,0"/>
      </g>
      <g id="그룹_4890" data-name="그룹 4890" transform="translate(627.615 -26.032)">
        <path id="패스_5141" data-name="패스 5141" class="cls-17" d="M0,0A14.177,14.177,0,0,0,14.177-14.177,14.177,14.177,0,0,0,0-28.354,14.177,14.177,0,0,0-14.177-14.177,14.177,14.177,0,0,0,0,0Z"/>
      </g>
    </g>
    <g id="그룹_4892" data-name="그룹 4892" transform="translate(621.537 -41.455)">
      <path id="패스_5143" data-name="패스 5143" class="cls-16" d="M0,0,5.183,5.251,13.11-2.935"/>
    </g>
    <g id="그룹_4893" data-name="그룹 4893" transform="translate(426.149 -26.782)">
      <path id="패스_5144" data-name="패스 5144" class="cls-9" d="M0,0,.735,6.906l9.9.477L11.948,0Z"/>
    </g>
    <g id="그룹_4895" data-name="그룹 4895" class="cls-14">
      <g id="그룹_4894" data-name="그룹 4894" transform="translate(427.542 -19.975)">
        <path id="패스_5145" data-name="패스 5145" class="cls-9" d="M0,0C0,2.158,2.051,3.908,4.581,3.908S9.268,2.153,9.268,0Z"/>
      </g>
    </g>
    <g id="그룹_4896" data-name="그룹 4896" transform="translate(452.655 -31.504)">
      <path id="패스_5147" data-name="패스 5147" class="cls-9" d="M0,0,9.465-7.274,0-14.548v2.427H-27.326v9.694H0Z"/>
    </g>
    <g id="그룹_4897" data-name="그룹 4897" transform="translate(436.143 -41.128)">
      <path id="패스_5148" data-name="패스 5148" class="cls-9" d="M0,0,9.465-7.274,0-14.548v2.427H-27.326v9.694H0Z"/>
    </g>
    <g id="그룹_4909" data-name="그룹 4909" class="cls-14">
      <g id="그룹_4898" data-name="그룹 4898" transform="translate(439.296 -27.255)">
        <path id="패스_5149" data-name="패스 5149" class="cls-9" d="M0,0C0-2.713,1.132-4.884,4.388-11.187a29.3,29.3,0,0,0,1.761-4.16,27.843,27.843,0,0,0,.892-3.222A14.581,14.581,0,0,0,5.354-28.686,13.517,13.517,0,0,0-2.2-34.941a12.7,12.7,0,0,0-4.449-.692,12.69,12.69,0,0,0-4.449.692,13.514,13.514,0,0,0-7.553,6.255,14.571,14.571,0,0,0-1.687,10.117,27.644,27.644,0,0,0,.892,3.222,29.406,29.406,0,0,0,1.76,4.16C-14.429-4.884-13.3-2.713-13.3,0H0Z"/>
      </g>
      <g id="그룹_4899" data-name="그룹 4899" transform="translate(431.455 -56.41)">
        <path id="패스_5150" data-name="패스 5150" class="cls-9" d="M0,0S-6.983-.708-6.983,6.726"/>
      </g>
      <g id="그룹_4900" data-name="그룹 4900" transform="translate(452.499 -33.832)">
        <path id="패스_5151" data-name="패스 5151" class="cls-4" d="M0,0,8.144-6.259,0-12.518v1.912H-27.326v8.694H0V0Z"/>
      </g>
      <g id="그룹_4901" data-name="그룹 4901" transform="translate(452.499 -33.832)">
        <path id="패스_5152" data-name="패스 5152" class="cls-18" d="M0,0,8.144-6.259,0-12.518v1.912H-27.326v8.694H0V0Z"/>
      </g>
      <g id="그룹_4902" data-name="그룹 4902" transform="translate(435.986 -43.457)">
        <path id="패스_5153" data-name="패스 5153" class="cls-4" d="M0,0,8.144-6.259,0-12.518v1.912H-27.326v8.694H0V0Z"/>
      </g>
      <g id="그룹_4903" data-name="그룹 4903" transform="translate(435.986 -43.457)">
        <path id="패스_5154" data-name="패스 5154" class="cls-18" d="M0,0,8.144-6.259,0-12.518v1.912H-27.326v8.694H0V0Z"/>
      </g>
      <g id="그룹_4904" data-name="그룹 4904" transform="translate(437.495 -28.412)">
        <path id="패스_5155" data-name="패스 5155" class="cls-4" d="M0,0C.128-2.584,1.284-4.823,4.354-10.766a29.467,29.467,0,0,0,1.808-4.239,27,27,0,0,0,.877-3.164A14.134,14.134,0,0,0,5.406-27.94a13.028,13.028,0,0,0-7.273-6.026,12.1,12.1,0,0,0-4.271-.668,12.175,12.175,0,0,0-4.315.668,13.026,13.026,0,0,0-7.274,6.026,14.145,14.145,0,0,0-1.633,9.771,27.2,27.2,0,0,0,.877,3.164,28.975,28.975,0,0,0,1.73,4.088c3.144,6.085,4.3,8.333,4.432,10.917H0Z"/>
      </g>
      <g id="그룹_4905" data-name="그룹 4905" transform="translate(437.495 -28.412)">
        <path id="패스_5156" data-name="패스 5156" class="cls-18" d="M0,0C.128-2.584,1.284-4.823,4.354-10.766a29.467,29.467,0,0,0,1.808-4.239,27,27,0,0,0,.877-3.164A14.134,14.134,0,0,0,5.406-27.94a13.028,13.028,0,0,0-7.273-6.026,12.1,12.1,0,0,0-4.271-.668,12.175,12.175,0,0,0-4.315.668,13.026,13.026,0,0,0-7.274,6.026,14.145,14.145,0,0,0-1.633,9.771,27.2,27.2,0,0,0,.877,3.164,28.975,28.975,0,0,0,1.73,4.088c3.144,6.085,4.3,8.333,4.432,10.917H0Z"/>
      </g>
      <g id="그룹_4906" data-name="그룹 4906" transform="translate(423.227 -43.977)">
        <path id="패스_5157" data-name="패스 5157" class="cls-19" d="M0,0H2.912l.15-.195L5.706-3.6Q7.332-.873,8.958,1.859l.319.536.454-.43L12.466-.621h3.748"/>
      </g>
      <g id="그룹_4907" data-name="그룹 4907" transform="translate(426.089 -26.938)">
        <path id="패스_5158" data-name="패스 5158" class="cls-4" d="M0,0Q.567,3.192,1.135,6.384H9.62Q10.187,3.192,10.755,0Z"/>
      </g>
      <g id="그룹_4908" data-name="그룹 4908" transform="translate(426.089 -26.938)">
        <path id="패스_5159" data-name="패스 5159" class="cls-18" d="M0,0Q.567,3.192,1.135,6.384H9.62Q10.187,3.192,10.755,0Z"/>
      </g>
    </g>
    <g id="그룹_4910" data-name="그룹 4910" transform="translate(426.093 -24.847)">
      <path id="패스_5161" data-name="패스 5161" class="cls-18" d="M0,0H10.746"/>
    </g>
    <g id="그룹_4911" data-name="그룹 4911" transform="translate(426.592 -22.573)">
      <path id="패스_5162" data-name="패스 5162" class="cls-18" d="M0,0H9.748"/>
    </g>
    <g id="그룹_4914" data-name="그룹 4914" class="cls-14">
      <g id="그룹_4912" data-name="그룹 4912" transform="translate(427.438 -19.474)">
        <path id="패스_5163" data-name="패스 5163" class="cls-4" d="M0,0A3.919,3.919,0,0,0,4.029,2.907,3.918,3.918,0,0,0,8.057,0Z"/>
      </g>
      <g id="그룹_4913" data-name="그룹 4913" transform="translate(427.438 -19.474)">
        <path id="패스_5164" data-name="패스 5164" class="cls-18" d="M0,0A3.919,3.919,0,0,0,4.029,2.907,3.918,3.918,0,0,0,8.057,0Z"/>
      </g>
    </g>
  </g>
</svg>
