<svg id="구성_요소_28_1" data-name="구성 요소 28 – 1" xmlns="http://www.w3.org/2000/svg" xmlns:xlink="http://www.w3.org/1999/xlink" width="836" height="713.857" viewBox="0 0 836 713.857">
  <defs>
    <style>
      .cls-1, .cls-11, .cls-12, .cls-14, .cls-15, .cls-16, .cls-21, .cls-22 {
        fill: none;
      }

      .cls-2 {
        fill: #f5f7f7;
      }

      .cls-3 {
        fill: #0b504a;
        font-family: NotoSansKR-Bold, Noto Sans KR;
        font-weight: 700;
      }

      .cls-3, .cls-6 {
        font-size: 17px;
      }

      .cls-4 {
        letter-spacing: -0.02em;
      }

      .cls-20, .cls-23, .cls-5 {
        fill: #fff;
      }

      .cls-6 {
        fill: #216a5a;
      }

      .cls-13, .cls-6 {
        font-family: NotoSansKR-Medium, Noto Sans KR;
        font-weight: 500;
      }

      .cls-7 {
        letter-spacing: -0.019em;
      }

      .cls-8 {
        letter-spacing: -0.026em;
      }

      .cls-9 {
        letter-spacing: -0.03em;
      }

      .cls-10 {
        letter-spacing: -0.031em;
      }

      .cls-11, .cls-12, .cls-14, .cls-15, .cls-16 {
        stroke: #3e3a39;
      }

      .cls-12 {
        stroke-width: 3px;
      }

      .cls-13, .cls-19 {
        fill: #1e2323;
      }

      .cls-13 {
        font-size: 16px;
      }

      .cls-14, .cls-15 {
        stroke-linecap: round;
        stroke-linejoin: round;
      }

      .cls-14 {
        stroke-dasharray: 0 2;
      }

      .cls-16, .cls-22, .cls-23 {
        stroke-miterlimit: 10;
      }

      .cls-17 {
        clip-path: url(#clip-path);
      }

      .cls-18 {
        fill: #92bb48;
      }

      .cls-20, .cls-21, .cls-22, .cls-23 {
        stroke: #1e2323;
      }
    </style>
    <clipPath id="clip-path">
      <path id="패스_5096" data-name="패스 5096" class="cls-1" d="M0,0H668.295V-81.27H0Z"/>
    </clipPath>
  </defs>
  <rect id="사각형_86" data-name="사각형 86" class="cls-2" width="836" height="713.857"/>
  <text id="코웨이_화학물질_관리_선언" data-name="코웨이 화학물질 관리 선언" class="cls-3" transform="translate(327.05 60.67)"><tspan class="cls-4" x="0" y="0">코웨이 화학물질 관리 선</tspan><tspan y="0">언</tspan></text>
  <rect id="사각형_87" data-name="사각형 87" class="cls-5" width="737.556" height="68" transform="translate(49.222 91.55)"/>
  <text id="_1._현재_Coway는_전체_공기_청정기_제품에_대해_PVC_및_BFR을_0.5_미만_" data-name="1. 현재 Coway는 전체 공기 청정기 제품에 대해 PVC 및 BFR을 0.5% 미만 " class="cls-6" transform="translate(162.143 122.488)"><tspan class="cls-7" x="0" y="0">1</tspan><tspan class="cls-4" y="0">. 현재 </tspan><tspan class="cls-4" y="0">C</tspan><tspan class="cls-8" y="0">o</tspan><tspan class="cls-9" y="0">w</tspan><tspan class="cls-4" y="0">a</tspan><tspan class="cls-7" y="0">y</tspan><tspan class="cls-4" y="0">는 전체 공기 청정기 제품에 </tspan><tspan class="cls-7" y="0">대</tspan><tspan class="cls-4" y="0">해 </tspan><tspan class="cls-7" y="0">P</tspan><tspan class="cls-10" y="0">V</tspan><tspan class="cls-4" y="0">C </tspan><tspan class="cls-4" y="0">및 </tspan><tspan class="cls-7" y="0">B</tspan><tspan class="cls-4" y="0">FR</tspan><tspan class="cls-4" y="0">을 </tspan><tspan class="cls-7" y="0">0</tspan><tspan class="cls-4" y="0">.</tspan><tspan class="cls-7" y="0">5%</tspan><tspan class="cls-4" y="0" xml:space="preserve"> 미</tspan><tspan y="0">만 </tspan></text>
  <text id="_" data-name="
" class="cls-6" transform="translate(677.939 122.488)"><tspan x="0" y="0"></tspan><tspan x="0" y="20.4"></tspan></text>
  <text id="_PVC_및_BFR_FREE_으로_사용하기_위해_진행_중에_있습니다." data-name="(PVC 및 BFR FREE)으로 사용하기 위해 진행 중에 있습니다." class="cls-6" transform="translate(211.153 145.489)"><tspan class="cls-7" x="0" y="0">(P</tspan><tspan class="cls-10" y="0">V</tspan><tspan class="cls-4" y="0">C </tspan><tspan class="cls-4" y="0">및 </tspan><tspan class="cls-7" y="0">B</tspan><tspan class="cls-4" y="0">FR FR</tspan><tspan class="cls-7" y="0">EE)</tspan><tspan class="cls-4" y="0">으로 사용하기 위해 진행 중에 있습니다</tspan><tspan y="0">.</tspan></text>
  <rect id="사각형_88" data-name="사각형 88" class="cls-5" width="737.556" height="68" transform="translate(49.222 603.291)"/>
  <text id="_2._코웨이는_2022년까지_모든_공기청정기_제품에_PVC_FREE_BFR_FREE_를_적용할_계획입니다." data-name="2. 코웨이는 2022년까지 모든 공기청정기 제품에 ‘PVC FREE &amp; BFR FREE’를 적용할 계획입니다." class="cls-6" transform="translate(75 644.771)"><tspan class="cls-7" x="0" y="0">2</tspan><tspan class="cls-4" y="0">. 코웨이는 </tspan><tspan class="cls-7" y="0">2022</tspan><tspan class="cls-4" y="0">년까지 모든 공기청정기 제품에 ‘</tspan><tspan class="cls-7" y="0">P</tspan><tspan class="cls-10" y="0">V</tspan><tspan class="cls-4" y="0">C FR</tspan><tspan class="cls-7" y="0">EE</tspan><tspan class="cls-4" y="0"> </tspan><tspan class="cls-7" y="0">&amp;</tspan><tspan class="cls-4" y="0"> </tspan><tspan class="cls-7" y="0">B</tspan><tspan class="cls-4" y="0">FR FR</tspan><tspan class="cls-7" y="0">EE</tspan><tspan class="cls-4" y="0">’를 적용할 계획입니다</tspan><tspan y="0">.</tspan></text>
  <line id="선_774" data-name="선 774" class="cls-11" y2="42" transform="translate(418 189.55)"/>
  <line id="선_775" data-name="선 775" class="cls-12" y2="20" transform="translate(418 211.55)"/>
  <line id="선_776" data-name="선 776" class="cls-11" y2="42" transform="translate(418 531.291)"/>
  <line id="선_777" data-name="선 777" class="cls-12" y2="20" transform="translate(418 553.291)"/>
  <text id="추진계획" class="cls-3" transform="translate(388.563 276.511)"><tspan class="cls-4" x="0" y="0">추진계</tspan><tspan y="0">획</tspan></text>
  <text id="사용현황_조사" data-name="사용현황 조사" class="cls-13" transform="translate(79.047 478.291)"><tspan class="cls-4" x="0" y="0">사용현황 조</tspan><tspan y="0">사</tspan></text>
  <text id="대체소재_및_부품_개발_및_" data-name="대체소재 및 부품 개발 및 " class="cls-13" transform="translate(239.688 478.291)"><tspan class="cls-4" x="0" y="0">대체소재 및 부품 개발 </tspan><tspan y="0">및 </tspan></text>
  <text id="_2" data-name="
" class="cls-13" transform="translate(404.487 478.291)"><tspan x="0" y="0"></tspan><tspan x="0" y="19.2"></tspan></text>
  <text id="발굴_신뢰성_검토" data-name="발굴, 신뢰성 검토" class="cls-13" transform="translate(263.224 501.283)"><tspan class="cls-4" x="0" y="0">발굴, 신뢰성 검</tspan><tspan y="0">토</tspan></text>
  <text id="전환개발수립" class="cls-13" transform="translate(472.487 478.291)"><tspan class="cls-4" x="0" y="0">전환개발수</tspan><tspan y="0">립</tspan></text>
  <text id="전환완료" class="cls-13" transform="translate(682.567 478.291)"><tspan class="cls-4" x="0" y="0">전환완</tspan><tspan y="0">료</tspan></text>
  <rect id="사각형_89" data-name="사각형 89" class="cls-5" width="738" height="136" transform="translate(49 309.011)"/>
  <line id="선_778" data-name="선 778" class="cls-11" x2="738" transform="translate(49 308.511)"/>
  <line id="선_779" data-name="선 779" class="cls-11" x2="738" transform="translate(49 445.011)"/>
  <line id="선_780" data-name="선 780" class="cls-14" x2="595.014" transform="translate(146.525 380.92)"/>
  <path id="패스_116" data-name="패스 116" class="cls-15" d="M3701.539,3945.983h0m-598.014,0h0" transform="translate(-2959 -3565.063)"/>
  <path id="패스_137" data-name="패스 137" class="cls-16" d="M3179.578,3942.151l3.206,3.674-3.206,3.673" transform="translate(-2959 -3565.063)"/>
  <path id="패스_138" data-name="패스 138" class="cls-16" d="M3375.253,3942.151l3.206,3.674-3.206,3.673" transform="translate(-2959 -3565.063)"/>
  <path id="패스_139" data-name="패스 139" class="cls-16" d="M3570.928,3942.151l3.206,3.674-3.206,3.673" transform="translate(-2959 -3565.063)"/>
  <g id="그룹_4915" data-name="그룹 4915" transform="translate(84 420.477)">
    <g id="그룹_4847" data-name="그룹 4847" class="cls-17">
      <g id="그룹_4843" data-name="그룹 4843" transform="translate(81.27 -40.635)">
        <path id="패스_5092" data-name="패스 5092" class="cls-18" d="M0,0A40.635,40.635,0,0,1-40.635,40.635,40.635,40.635,0,0,1-81.27,0,40.635,40.635,0,0,1-40.635-40.635,40.635,40.635,0,0,1,0,0"/>
      </g>
      <g id="그룹_4844" data-name="그룹 4844" transform="translate(276.945 -40.635)">
        <path id="패스_5093" data-name="패스 5093" class="cls-18" d="M0,0A40.635,40.635,0,0,1-40.635,40.635,40.635,40.635,0,0,1-81.27,0,40.635,40.635,0,0,1-40.635-40.635,40.635,40.635,0,0,1,0,0"/>
      </g>
      <g id="그룹_4845" data-name="그룹 4845" transform="translate(472.62 -40.635)">
        <path id="패스_5094" data-name="패스 5094" class="cls-18" d="M0,0A40.635,40.635,0,0,1-40.635,40.635,40.635,40.635,0,0,1-81.27,0,40.635,40.635,0,0,1-40.635-40.635,40.635,40.635,0,0,1,0,0"/>
      </g>
      <g id="그룹_4846" data-name="그룹 4846" transform="translate(668.295 -40.635)">
        <path id="패스_5095" data-name="패스 5095" class="cls-18" d="M0,0A40.635,40.635,0,0,1-40.635,40.635,40.635,40.635,0,0,1-81.27,0,40.635,40.635,0,0,1-40.635-40.635,40.635,40.635,0,0,1,0,0"/>
      </g>
    </g>
    <path id="패스_5097" data-name="패스 5097" class="cls-19" d="M24.582-18.428H56.263V-59.915H24.582Z"/>
    <g id="그룹_4850" data-name="그룹 4850" class="cls-17">
      <g id="그룹_4848" data-name="그룹 4848" transform="translate(41.857 -29.726)">
        <path id="패스_5098" data-name="패스 5098" class="cls-19" d="M0,0A8.787,8.787,0,0,0,8.787-8.787,8.787,8.787,0,0,0,0-17.575,8.787,8.787,0,0,0-8.787-8.787,8.787,8.787,0,0,0,0,0"/>
      </g>
      <g id="그룹_4849" data-name="그룹 4849" transform="translate(34.848 -46.241)">
        <path id="패스_5099" data-name="패스 5099" class="cls-19" d="M0,0A10.872,10.872,0,1,0,15.368.434,10.87,10.87,0,0,0,0,0M13.483,2.216a8.278,8.278,0,1,1-11.7-.331,8.279,8.279,0,0,1,11.7.331"/>
      </g>
    </g>
    <g id="그룹_4851" data-name="그룹 4851" transform="translate(50.73 -31.324)">
      <path id="패스_5101" data-name="패스 5101" class="cls-19" d="M0,0-1.894,1.719.838,4.495,2.732,2.776Z"/>
    </g>
    <g id="그룹_4853" data-name="그룹 4853" class="cls-17">
      <g id="그룹_4852" data-name="그룹 4852" transform="translate(62.235 -20.81)">
        <path id="패스_5102" data-name="패스 5102" class="cls-19" d="M0,0A.635.635,0,0,1-.025.9l-2.49,2.356a.635.635,0,0,1-.9-.025l-8.181-8.6a.635.635,0,0,1,.025-.9l2.49-2.357a.635.635,0,0,1,.9.025Z"/>
      </g>
    </g>
    <path id="패스_5104" data-name="패스 5104" class="cls-20" d="M22.648-20.471H54.329V-61.958H22.648Z"/>
    <g id="그룹_4854" data-name="그룹 4854" transform="translate(27.608 -54.589)">
      <path id="패스_5105" data-name="패스 5105" class="cls-21" d="M0,0H13.465"/>
    </g>
    <g id="그룹_4855" data-name="그룹 4855" transform="translate(27.608 -50.62)">
      <path id="패스_5106" data-name="패스 5106" class="cls-21" d="M0,0H13.465"/>
    </g>
    <g id="그룹_4856" data-name="그룹 4856" transform="translate(27.608 -46.652)">
      <path id="패스_5107" data-name="패스 5107" class="cls-21" d="M0,0H13.465"/>
    </g>
    <g id="그룹_4857" data-name="그룹 4857" transform="translate(27.608 -42.683)">
      <path id="패스_5108" data-name="패스 5108" class="cls-21" d="M0,0H13.465"/>
    </g>
    <g id="그룹_4861" data-name="그룹 4861" class="cls-17">
      <g id="그룹_4858" data-name="그룹 4858" transform="translate(39.923 -28.935)">
        <path id="패스_5109" data-name="패스 5109" class="cls-5" d="M0,0A8.787,8.787,0,0,0,8.787-8.787,8.787,8.787,0,0,0,0-17.575,8.787,8.787,0,0,0-8.787-8.787,8.787,8.787,0,0,0,0,0"/>
      </g>
      <g id="그룹_4859" data-name="그룹 4859" transform="translate(32.914 -45.449)">
        <path id="패스_5110" data-name="패스 5110" class="cls-5" d="M0,0A10.872,10.872,0,1,0,15.368.434,10.87,10.87,0,0,0,0,0M13.483,2.216a8.278,8.278,0,1,1-11.7-.331,8.279,8.279,0,0,1,11.7.331"/>
      </g>
      <g id="그룹_4860" data-name="그룹 4860" transform="translate(32.914 -45.449)">
        <path id="패스_5111" data-name="패스 5111" class="cls-21" d="M0,0A10.872,10.872,0,1,0,15.368.434,10.87,10.87,0,0,0,0,0ZM13.483,2.216a8.278,8.278,0,1,1-11.7-.331A8.279,8.279,0,0,1,13.483,2.216Z"/>
      </g>
    </g>
    <g id="그룹_4862" data-name="그룹 4862" transform="translate(48.796 -30.532)">
      <path id="패스_5113" data-name="패스 5113" class="cls-5" d="M0,0-1.894,1.719.838,4.495,2.732,2.776Z"/>
    </g>
    <g id="그룹_4863" data-name="그룹 4863" transform="translate(48.796 -30.532)">
      <path id="패스_5114" data-name="패스 5114" class="cls-21" d="M0,0-1.894,1.719.838,4.495,2.732,2.776Z"/>
    </g>
    <g id="그룹_4866" data-name="그룹 4866" class="cls-17">
      <g id="그룹_4864" data-name="그룹 4864" transform="translate(60.3 -20.019)">
        <path id="패스_5115" data-name="패스 5115" class="cls-5" d="M0,0A.635.635,0,0,1-.025.9l-2.49,2.356a.635.635,0,0,1-.9-.025l-8.181-8.6a.635.635,0,0,1,.025-.9l2.49-2.357a.635.635,0,0,1,.9.025Z"/>
      </g>
      <g id="그룹_4865" data-name="그룹 4865" transform="translate(60.3 -20.019)">
        <path id="패스_5116" data-name="패스 5116" class="cls-21" d="M0,0A.635.635,0,0,1-.025.9l-2.49,2.356a.635.635,0,0,1-.9-.025l-8.181-8.6a.635.635,0,0,1,.025-.9l2.49-2.357a.635.635,0,0,1,.9.025Z"/>
      </g>
    </g>
    <g id="그룹_4867" data-name="그룹 4867" transform="translate(250.905 -26.743)">
      <path id="패스_5118" data-name="패스 5118" class="cls-19" d="M0,0V-20.567L-18.053-30.851-36.1-20.567V0l18.052,10.284Z"/>
    </g>
    <g id="그룹_4868" data-name="그룹 4868" transform="translate(243.818 -30.78)">
      <path id="패스_5119" data-name="패스 5119" class="cls-19" d="M0,0V-12.493L-10.966-18.74l-10.965,6.247V0l10.965,6.247Z"/>
    </g>
    <g id="그룹_4869" data-name="그룹 4869" transform="translate(232.678 -49.225)">
      <path id="패스_5120" data-name="패스 5120" class="cls-19" d="M0,0V12.117L-10.137,17.98"/>
    </g>
    <g id="그룹_4876" data-name="그룹 4876" class="cls-17">
      <g id="그룹_4870" data-name="그룹 4870" transform="translate(259.085 -54.876)">
        <path id="패스_5121" data-name="패스 5121" class="cls-19" d="M0,0C-2.683,1.107-4.334.464-5.478-2.131a8.064,8.064,0,0,1-.3-.8,12.949,12.949,0,0,0-2.672.046,7.562,7.562,0,0,1-.3.861C-9.84.6-11.477,1.272-14.184.219a8.452,8.452,0,0,1-.793-.356,12.272,12.272,0,0,0-1.856,1.86,7.542,7.542,0,0,1,.416.815c1.144,2.594.479,4.192-2.2,5.3a8.092,8.092,0,0,1-.822.29,11.622,11.622,0,0,0,.046,2.585A8.59,8.59,0,0,1-18.5,11c2.7,1.053,3.4,2.637,2.316,5.254a7.35,7.35,0,0,1-.371.769,12.435,12.435,0,0,0,1.924,1.794,8.392,8.392,0,0,1,.842-.4c2.683-1.107,4.335-.464,5.478,2.131a7.506,7.506,0,0,1,.3.8A12.951,12.951,0,0,0-5.344,21.3a8.033,8.033,0,0,1,.3-.861C-3.953,17.819-2.316,17.145.39,18.2a8.313,8.313,0,0,1,.793.356A12.213,12.213,0,0,0,3.039,16.7a8.262,8.262,0,0,1-.417-.816c-1.143-2.6-.478-4.192,2.205-5.3a8.179,8.179,0,0,1,.823-.29A11.806,11.806,0,0,0,5.6,7.706a8.212,8.212,0,0,1-.891-.291C2.006,6.362,1.308,4.778,2.4,2.161a8.351,8.351,0,0,1,.369-.768A12.436,12.436,0,0,0,.843-.4,7.8,7.8,0,0,1,0,0"/>
      </g>
      <g id="그룹_4871" data-name="그룹 4871" transform="translate(252.188 -40.892)">
        <path id="패스_5122" data-name="패스 5122" class="cls-19" d="M0,0A4.8,4.8,0,0,0,4.818-4.776,4.8,4.8,0,0,0,0-9.552,4.8,4.8,0,0,0-4.818-4.776,4.8,4.8,0,0,0,0,0"/>
      </g>
      <g id="그룹_4872" data-name="그룹 4872" transform="translate(250.333 -28.98)">
        <path id="패스_5123" data-name="패스 5123" class="cls-5" d="M0,0V-20.988l-18.343-10.5-18.342,10.5V0l18.342,10.5L0,0"/>
      </g>
      <g id="그룹_4873" data-name="그룹 4873" transform="translate(250.333 -28.98)">
        <path id="패스_5124" data-name="패스 5124" class="cls-22" d="M0,0V-20.988l-18.343-10.5-18.342,10.5V0l18.342,10.5Z"/>
      </g>
      <g id="그룹_4874" data-name="그룹 4874" transform="translate(242.936 -33.213)">
        <path id="패스_5125" data-name="패스 5125" class="cls-5" d="M0,0V-12.521l-10.945-6.264-10.946,6.264V0l10.946,6.264L0,0"/>
      </g>
      <g id="그룹_4875" data-name="그룹 4875" transform="translate(242.936 -33.213)">
        <path id="패스_5126" data-name="패스 5126" class="cls-22" d="M0,0V-12.521l-10.945-6.264-10.946,6.264V0l10.946,6.264Z"/>
      </g>
    </g>
    <g id="그룹_4877" data-name="그룹 4877" transform="translate(213.582 -49.918)">
      <path id="패스_5128" data-name="패스 5128" class="cls-22" d="M0,0,7.144,4.028"/>
    </g>
    <g id="그룹_4878" data-name="그룹 4878" transform="translate(250.493 -49.836)">
      <path id="패스_5129" data-name="패스 5129" class="cls-22" d="M0,0-7.363,3.858"/>
    </g>
    <g id="그룹_4879" data-name="그룹 4879" transform="translate(231.976 -26.861)">
      <path id="패스_5130" data-name="패스 5130" class="cls-22" d="M0,0V8.675"/>
    </g>
    <g id="그룹_4880" data-name="그룹 4880" transform="translate(231.808 -52.265)">
      <path id="패스_5131" data-name="패스 5131" class="cls-23" d="M0,0V12.706l-10.581,6.148"/>
    </g>
    <g id="그룹_4881" data-name="그룹 4881" transform="translate(243.049 -33.417)">
      <path id="패스_5132" data-name="패스 5132" class="cls-22" d="M0,0-11-5.991"/>
    </g>
    <g id="그룹_4891" data-name="그룹 4891" class="cls-17">
      <g id="그룹_4882" data-name="그룹 4882" transform="translate(257.918 -55.454)">
        <path id="패스_5133" data-name="패스 5133" class="cls-5" d="M0,0C-2.928,1.209-4.875.449-6.127-2.392c-.079-.18-.147-.353-.209-.523a12.491,12.491,0,0,0-1.924.034c-.063.191-.136.388-.221.591C-9.671.574-11.6,1.372-14.556.223q-.286-.113-.541-.231A11.732,11.732,0,0,0-16.42,1.316q.14.263.27.558a4.536,4.536,0,0,1,.35,3.568,4.7,4.7,0,0,1-2.821,2.394c-.185.077-.365.144-.54.2a11.1,11.1,0,0,0,.033,1.822c.2.061.4.131.612.213a4.708,4.708,0,0,1,2.873,2.34,4.54,4.54,0,0,1-.275,3.572c-.074.177-.15.344-.229.5a11.992,11.992,0,0,0,1.372,1.277c.188-.094.386-.185.6-.273,2.929-1.208,4.875-.448,6.127,2.392.079.179.148.353.21.523a12.492,12.492,0,0,0,1.923-.033c.063-.192.136-.388.221-.591C-4.5,16.92-2.573,16.121.38,17.27c.191.075.371.152.542.231a11.64,11.64,0,0,0,1.323-1.323c-.093-.175-.183-.36-.27-.557a4.541,4.541,0,0,1-.352-3.569,4.705,4.705,0,0,1,2.823-2.4c.185-.077.365-.144.541-.2a11.419,11.419,0,0,0-.034-1.821q-.3-.091-.613-.214A4.707,4.707,0,0,1,1.468,5.08a4.539,4.539,0,0,1,.276-3.573c.073-.177.15-.343.228-.5A11.818,11.818,0,0,0,.6-.272Q.318-.131,0,0Z"/>
      </g>
      <g id="그룹_4883" data-name="그룹 4883" transform="translate(257.918 -55.454)">
        <path id="패스_5134" data-name="패스 5134" class="cls-22" d="M0,0C-2.928,1.209-4.875.449-6.127-2.392c-.079-.18-.147-.353-.209-.523a12.491,12.491,0,0,0-1.924.034c-.063.191-.136.388-.221.591C-9.671.574-11.6,1.372-14.556.223q-.286-.113-.541-.231A11.732,11.732,0,0,0-16.42,1.316q.14.263.27.558a4.536,4.536,0,0,1,.35,3.568,4.7,4.7,0,0,1-2.821,2.394c-.185.077-.365.144-.54.2a11.1,11.1,0,0,0,.033,1.822c.2.061.4.131.612.213a4.708,4.708,0,0,1,2.873,2.34,4.54,4.54,0,0,1-.275,3.572c-.074.177-.15.344-.229.5a11.992,11.992,0,0,0,1.372,1.277c.188-.094.386-.185.6-.273,2.929-1.208,4.875-.448,6.127,2.392.079.179.148.353.21.523a12.492,12.492,0,0,0,1.923-.033c.063-.192.136-.388.221-.591C-4.5,16.92-2.573,16.121.38,17.27c.191.075.371.152.542.231a11.64,11.64,0,0,0,1.323-1.323c-.093-.175-.183-.36-.27-.557a4.541,4.541,0,0,1-.352-3.569,4.705,4.705,0,0,1,2.823-2.4c.185-.077.365-.144.541-.2a11.419,11.419,0,0,0-.034-1.821q-.3-.091-.613-.214A4.707,4.707,0,0,1,1.468,5.08a4.539,4.539,0,0,1,.276-3.573c.073-.177.15-.343.228-.5A11.818,11.818,0,0,0,.6-.272Q.318-.131,0,0Z"/>
      </g>
      <g id="그룹_4884" data-name="그룹 4884" transform="translate(250.833 -42.431)">
        <path id="패스_5135" data-name="패스 5135" class="cls-5" d="M0,0A4.3,4.3,0,0,0,4.318-4.276,4.3,4.3,0,0,0,0-8.552,4.3,4.3,0,0,0-4.318-4.276,4.3,4.3,0,0,0,0,0"/>
      </g>
      <g id="그룹_4885" data-name="그룹 4885" transform="translate(250.833 -42.431)">
        <path id="패스_5136" data-name="패스 5136" class="cls-22" d="M0,0A4.3,4.3,0,0,0,4.318-4.276,4.3,4.3,0,0,0,0-8.552,4.3,4.3,0,0,0-4.318-4.276,4.3,4.3,0,0,0,0,0Z"/>
      </g>
      <g id="그룹_4886" data-name="그룹 4886" transform="translate(647.259 -41.574)">
        <path id="패스_5137" data-name="패스 5137" class="cls-19" d="M0,0A18.872,18.872,0,0,0-1.131-4.029l3.184-1.8L-.612-10.542-3.884-8.691A19.038,19.038,0,0,0-7.043-11.78L-5.128-15.1-9.815-17.8l-1.938,3.355a19.032,19.032,0,0,0-4.073-1.075v-3.891h-5.412v3.873a19.038,19.038,0,0,0-4.1,1.053L-27.248-17.8-31.936-15.1l1.88,3.254a19.008,19.008,0,0,0-3.207,3.106l-3.189-1.8-2.665,4.711,3.087,1.746A18.835,18.835,0,0,0-37.181,0h-3.471V5.412H-37.3a19.11,19.11,0,0,0,1.02,4.226l-2.837,1.605,2.665,4.711,2.757-1.559a19.083,19.083,0,0,0,3.319,3.413l-1.56,2.7,4.688,2.706,1.532-2.654a18.956,18.956,0,0,0,4.478,1.212v3.052h5.412V21.755a19,19,0,0,0,4.455-1.234l1.556,2.695,4.687-2.706-1.6-2.765a19.079,19.079,0,0,0,3.274-3.4l2.839,1.606,2.665-4.711L-.881,9.583a19.107,19.107,0,0,0,1-4.171h3.47V0Z"/>
      </g>
      <g id="그룹_4887" data-name="그룹 4887" transform="translate(646.107 -43.313)">
        <path id="패스_5138" data-name="패스 5138" class="cls-5" d="M0,0A18.766,18.766,0,0,0-1.125-4.008L2.042-5.8-.609-10.485-3.863-8.644a18.954,18.954,0,0,0-3.142-3.073l1.9-3.3-4.662-2.692-1.926,3.337a18.984,18.984,0,0,0-4.052-1.069v-3.87h-5.383v3.852A18.965,18.965,0,0,0-25.2-14.411l-1.9-3.3-4.662,2.692,1.869,3.237A18.874,18.874,0,0,0-33.084-8.69l-3.172-1.8L-38.907-5.8l3.07,1.737A18.762,18.762,0,0,0-36.982,0h-3.452V5.383H-37.1a18.98,18.98,0,0,0,1.014,4.2l-2.822,1.6,2.651,4.686,2.741-1.552a18.954,18.954,0,0,0,3.3,3.395L-31.764,20.4l4.662,2.691,1.524-2.639a18.861,18.861,0,0,0,4.454,1.2v3.036h5.383V21.638a18.906,18.906,0,0,0,4.431-1.227l1.547,2.68L-5.1,20.4l-1.587-2.751a19.006,19.006,0,0,0,3.256-3.378l2.823,1.6,2.651-4.686L-.876,9.532A19.079,19.079,0,0,0,.118,5.383H3.569V0Z"/>
      </g>
      <g id="그룹_4888" data-name="그룹 4888" transform="translate(646.107 -43.313)">
        <path id="패스_5139" data-name="패스 5139" class="cls-21" d="M0,0A18.766,18.766,0,0,0-1.125-4.008L2.042-5.8-.609-10.485-3.863-8.644a18.954,18.954,0,0,0-3.142-3.073l1.9-3.3-4.662-2.692-1.926,3.337a18.984,18.984,0,0,0-4.052-1.069v-3.87h-5.383v3.852A18.965,18.965,0,0,0-25.2-14.411l-1.9-3.3-4.662,2.692,1.869,3.237A18.874,18.874,0,0,0-33.084-8.69l-3.172-1.8L-38.907-5.8l3.07,1.737A18.762,18.762,0,0,0-36.982,0h-3.452V5.383H-37.1a18.98,18.98,0,0,0,1.014,4.2l-2.822,1.6,2.651,4.686,2.741-1.552a18.954,18.954,0,0,0,3.3,3.395L-31.764,20.4l4.662,2.691,1.524-2.639a18.861,18.861,0,0,0,4.454,1.2v3.036h5.383V21.638a18.906,18.906,0,0,0,4.431-1.227l1.547,2.68L-5.1,20.4l-1.587-2.751a19.006,19.006,0,0,0,3.256-3.378l2.823,1.6,2.651-4.686L-.876,9.532A19.079,19.079,0,0,0,.118,5.383H3.569V0Z"/>
      </g>
      <g id="그룹_4889" data-name="그룹 4889" transform="translate(627.615 -26.032)">
        <path id="패스_5140" data-name="패스 5140" class="cls-5" d="M0,0A14.177,14.177,0,0,0,14.177-14.177,14.177,14.177,0,0,0,0-28.354,14.177,14.177,0,0,0-14.177-14.177,14.177,14.177,0,0,0,0,0"/>
      </g>
      <g id="그룹_4890" data-name="그룹 4890" transform="translate(627.615 -26.032)">
        <path id="패스_5141" data-name="패스 5141" class="cls-21" d="M0,0A14.177,14.177,0,0,0,14.177-14.177,14.177,14.177,0,0,0,0-28.354,14.177,14.177,0,0,0-14.177-14.177,14.177,14.177,0,0,0,0,0Z"/>
      </g>
    </g>
    <g id="그룹_4892" data-name="그룹 4892" transform="translate(621.537 -41.455)">
      <path id="패스_5143" data-name="패스 5143" class="cls-20" d="M0,0,5.183,5.251,13.11-2.935"/>
    </g>
    <g id="그룹_4893" data-name="그룹 4893" transform="translate(426.149 -26.782)">
      <path id="패스_5144" data-name="패스 5144" class="cls-19" d="M0,0,.735,6.906l9.9.477L11.948,0Z"/>
    </g>
    <g id="그룹_4895" data-name="그룹 4895" class="cls-17">
      <g id="그룹_4894" data-name="그룹 4894" transform="translate(427.542 -19.975)">
        <path id="패스_5145" data-name="패스 5145" class="cls-19" d="M0,0C0,2.158,2.051,3.908,4.581,3.908S9.268,2.153,9.268,0Z"/>
      </g>
    </g>
    <g id="그룹_4896" data-name="그룹 4896" transform="translate(452.655 -31.504)">
      <path id="패스_5147" data-name="패스 5147" class="cls-19" d="M0,0,9.465-7.274,0-14.548v2.427H-27.326v9.694H0Z"/>
    </g>
    <g id="그룹_4897" data-name="그룹 4897" transform="translate(436.143 -41.128)">
      <path id="패스_5148" data-name="패스 5148" class="cls-19" d="M0,0,9.465-7.274,0-14.548v2.427H-27.326v9.694H0Z"/>
    </g>
    <g id="그룹_4909" data-name="그룹 4909" class="cls-17">
      <g id="그룹_4898" data-name="그룹 4898" transform="translate(439.296 -27.255)">
        <path id="패스_5149" data-name="패스 5149" class="cls-19" d="M0,0C0-2.713,1.132-4.884,4.388-11.187a29.3,29.3,0,0,0,1.761-4.16,27.843,27.843,0,0,0,.892-3.222A14.581,14.581,0,0,0,5.354-28.686,13.517,13.517,0,0,0-2.2-34.941a12.7,12.7,0,0,0-4.449-.692,12.69,12.69,0,0,0-4.449.692,13.514,13.514,0,0,0-7.553,6.255,14.571,14.571,0,0,0-1.687,10.117,27.644,27.644,0,0,0,.892,3.222,29.406,29.406,0,0,0,1.76,4.16C-14.429-4.884-13.3-2.713-13.3,0H0Z"/>
      </g>
      <g id="그룹_4899" data-name="그룹 4899" transform="translate(431.455 -56.41)">
        <path id="패스_5150" data-name="패스 5150" class="cls-19" d="M0,0S-6.983-.708-6.983,6.726"/>
      </g>
      <g id="그룹_4900" data-name="그룹 4900" transform="translate(452.499 -33.832)">
        <path id="패스_5151" data-name="패스 5151" class="cls-5" d="M0,0,8.144-6.259,0-12.518v1.912H-27.326v8.694H0V0Z"/>
      </g>
      <g id="그룹_4901" data-name="그룹 4901" transform="translate(452.499 -33.832)">
        <path id="패스_5152" data-name="패스 5152" class="cls-22" d="M0,0,8.144-6.259,0-12.518v1.912H-27.326v8.694H0V0Z"/>
      </g>
      <g id="그룹_4902" data-name="그룹 4902" transform="translate(435.986 -43.457)">
        <path id="패스_5153" data-name="패스 5153" class="cls-5" d="M0,0,8.144-6.259,0-12.518v1.912H-27.326v8.694H0V0Z"/>
      </g>
      <g id="그룹_4903" data-name="그룹 4903" transform="translate(435.986 -43.457)">
        <path id="패스_5154" data-name="패스 5154" class="cls-22" d="M0,0,8.144-6.259,0-12.518v1.912H-27.326v8.694H0V0Z"/>
      </g>
      <g id="그룹_4904" data-name="그룹 4904" transform="translate(437.495 -28.412)">
        <path id="패스_5155" data-name="패스 5155" class="cls-5" d="M0,0C.128-2.584,1.284-4.823,4.354-10.766a29.467,29.467,0,0,0,1.808-4.239,27,27,0,0,0,.877-3.164A14.134,14.134,0,0,0,5.406-27.94a13.028,13.028,0,0,0-7.273-6.026,12.1,12.1,0,0,0-4.271-.668,12.175,12.175,0,0,0-4.315.668,13.026,13.026,0,0,0-7.274,6.026,14.145,14.145,0,0,0-1.633,9.771,27.2,27.2,0,0,0,.877,3.164,28.975,28.975,0,0,0,1.73,4.088c3.144,6.085,4.3,8.333,4.432,10.917H0Z"/>
      </g>
      <g id="그룹_4905" data-name="그룹 4905" transform="translate(437.495 -28.412)">
        <path id="패스_5156" data-name="패스 5156" class="cls-22" d="M0,0C.128-2.584,1.284-4.823,4.354-10.766a29.467,29.467,0,0,0,1.808-4.239,27,27,0,0,0,.877-3.164A14.134,14.134,0,0,0,5.406-27.94a13.028,13.028,0,0,0-7.273-6.026,12.1,12.1,0,0,0-4.271-.668,12.175,12.175,0,0,0-4.315.668,13.026,13.026,0,0,0-7.274,6.026,14.145,14.145,0,0,0-1.633,9.771,27.2,27.2,0,0,0,.877,3.164,28.975,28.975,0,0,0,1.73,4.088c3.144,6.085,4.3,8.333,4.432,10.917H0Z"/>
      </g>
      <g id="그룹_4906" data-name="그룹 4906" transform="translate(423.227 -43.977)">
        <path id="패스_5157" data-name="패스 5157" class="cls-23" d="M0,0H2.912l.15-.195L5.706-3.6Q7.332-.873,8.958,1.859l.319.536.454-.43L12.466-.621h3.748"/>
      </g>
      <g id="그룹_4907" data-name="그룹 4907" transform="translate(426.089 -26.938)">
        <path id="패스_5158" data-name="패스 5158" class="cls-5" d="M0,0Q.567,3.192,1.135,6.384H9.62Q10.187,3.192,10.755,0Z"/>
      </g>
      <g id="그룹_4908" data-name="그룹 4908" transform="translate(426.089 -26.938)">
        <path id="패스_5159" data-name="패스 5159" class="cls-22" d="M0,0Q.567,3.192,1.135,6.384H9.62Q10.187,3.192,10.755,0Z"/>
      </g>
    </g>
    <g id="그룹_4910" data-name="그룹 4910" transform="translate(426.093 -24.847)">
      <path id="패스_5161" data-name="패스 5161" class="cls-22" d="M0,0H10.746"/>
    </g>
    <g id="그룹_4911" data-name="그룹 4911" transform="translate(426.592 -22.573)">
      <path id="패스_5162" data-name="패스 5162" class="cls-22" d="M0,0H9.748"/>
    </g>
    <g id="그룹_4914" data-name="그룹 4914" class="cls-17">
      <g id="그룹_4912" data-name="그룹 4912" transform="translate(427.438 -19.474)">
        <path id="패스_5163" data-name="패스 5163" class="cls-5" d="M0,0A3.919,3.919,0,0,0,4.029,2.907,3.918,3.918,0,0,0,8.057,0Z"/>
      </g>
      <g id="그룹_4913" data-name="그룹 4913" transform="translate(427.438 -19.474)">
        <path id="패스_5164" data-name="패스 5164" class="cls-22" d="M0,0A3.919,3.919,0,0,0,4.029,2.907,3.918,3.918,0,0,0,8.057,0Z"/>
      </g>
    </g>
  </g>
</svg>
