<svg id="구성_요소_90_1" data-name="구성 요소 90 – 1" xmlns="http://www.w3.org/2000/svg" width="835.912" height="674.306" viewBox="0 0 835.912 674.306">
  <defs>
    <style>
      .cls-1 {
        fill: #f5f7f7;
      }

      .cls-17, .cls-2, .cls-7 {
        fill: #fff;
      }

      .cls-15, .cls-16, .cls-3, .cls-4, .cls-5 {
        fill: none;
      }

      .cls-15, .cls-16, .cls-17, .cls-3 {
        stroke: #0a5049;
      }

      .cls-17, .cls-3, .cls-7 {
        stroke-width: 0.5px;
      }

      .cls-4, .cls-5 {
        stroke: #42454a;
      }

      .cls-5 {
        stroke-width: 3px;
      }

      .cls-6 {
        fill: #92bb48;
      }

      .cls-7 {
        stroke: #92bb48;
      }

      .cls-10, .cls-14, .cls-8, .cls-9 {
        fill: #0a5049;
      }

      .cls-10, .cls-9 {
        font-size: 15px;
        font-family: NotoSansKR-Regular, Noto Sans KR;
      }

      .cls-20, .cls-9 {
        letter-spacing: -0.02em;
      }

      .cls-11, .cls-12 {
        fill: #1e2323;
      }

      .cls-12 {
        font-size: 13px;
        font-family: NotoSansKR-Light, Noto Sans KR;
        font-weight: 300;
      }

      .cls-13 {
        fill: #0b504a;
      }

      .cls-14 {
        opacity: 0.8;
      }

      .cls-15, .cls-16 {
        stroke-linecap: round;
        stroke-linejoin: round;
      }

      .cls-15 {
        stroke-dasharray: 0 2.938;
      }

      .cls-18, .cls-19, .cls-20, .cls-21 {
        fill: #206a5a;
      }

      .cls-18 {
        stroke: #206a5a;
        stroke-width: 0.283px;
      }

      .cls-20, .cls-21 {
        font-size: 17px;
        font-family: NotoSansKR-Medium, Noto Sans KR;
        font-weight: 500;
      }
    </style>
  </defs>
  <path id="패스_8976" data-name="패스 8976" class="cls-1" d="M0,0H835.912V-674.306H0Z" transform="translate(0 674.306)"/>
  <path id="패스_8977" data-name="패스 8977" class="cls-2" d="M25.195-362.539H248.776v-80.77H25.195Z" transform="translate(0 674.306)"/>
  <path id="패스_8978" data-name="패스 8978" class="cls-2" d="M589.866-362.539H813.447v-80.77H589.866Z" transform="translate(0 674.306)"/>
  <path id="패스_8979" data-name="패스 8979" class="cls-2" d="M280.5-362.539H559v-80.77H280.5Z" transform="translate(0 674.306)"/>
  <g id="그룹_8392" data-name="그룹 8392" transform="translate(420.144 312.018)">
    <path id="패스_8980" data-name="패스 8980" class="cls-3" d="M0,0V24.926"/>
  </g>
  <g id="그룹_8393" data-name="그룹 8393" transform="translate(418.357 431.114)">
    <path id="패스_8981" data-name="패스 8981" class="cls-4" d="M0,0V42"/>
  </g>
  <g id="그룹_8394" data-name="그룹 8394" transform="translate(418.357 453.114)">
    <path id="패스_8982" data-name="패스 8982" class="cls-5" d="M0,0V20"/>
  </g>
  <g id="그룹_8395" data-name="그룹 8395" transform="translate(418.357 84.021)">
    <path id="패스_8983" data-name="패스 8983" class="cls-4" d="M0,0V42"/>
  </g>
  <g id="그룹_8396" data-name="그룹 8396" transform="translate(418.357 106.021)">
    <path id="패스_8984" data-name="패스 8984" class="cls-5" d="M0,0V20"/>
  </g>
  <g id="그룹_8397" data-name="그룹 8397" transform="translate(24.945 337.194)">
    <path id="패스_8985" data-name="패스 8985" class="cls-3" d="M0,0H788.752"/>
  </g>
  <g id="그룹_8398" data-name="그룹 8398" transform="translate(24.945 407.694)">
    <path id="패스_8986" data-name="패스 8986" class="cls-3" d="M0,0H788.752"/>
  </g>
  <path id="패스_8987" data-name="패스 8987" class="cls-6" d="M595.147-489.715h218.8v-37.25h-218.8Z" transform="translate(0 674.306)"/>
  <path id="패스_8988" data-name="패스 8988" class="cls-7" d="M590.116-493.215h218.3v-33.5h-218.3Z" transform="translate(0 674.306)"/>
  <path id="패스_9005" data-name="패스 9005" class="cls-8" d="M5.7-10.812H7.973v-1.819H1v1.819H3.519v.765c0,2.686-.816,5.491-3.094,6.936L1.751-1.462a7.268,7.268,0,0,0,2.873-4.2A6.42,6.42,0,0,0,7.412-1.836L8.721-3.468C6.46-4.794,5.7-7.429,5.7-10.047ZM8.874-8.857H6.885v1.819H8.874V.748h2.091V-13.94H8.874Zm3.162-5.355V1.445h2.125V-14.212ZM24.7-9.622H21.488v-2.363H24.7Zm-5.44,0H17.374v1.785H28.8V-9.622h-1.87v-2.363h1.989V-13.77H17.272v1.785h1.989ZM26.282-.476H19.873V-2.057h6.409Zm3.893-4.607V-6.868H16.031v1.785h5.95v1.275h-4.3v5.1H28.492v-5.1H24.225V-5.083Zm14.008-7.4H40.715v-1.649H38.471v1.649h-3.5v1.768h9.214ZM37.893-7.14c0-.816.68-1.258,1.7-1.258s1.7.442,1.7,1.258-.68,1.258-1.7,1.258S37.893-6.324,37.893-7.14Zm2.822,2.822a2.976,2.976,0,0,0,2.7-2.822c0-1.768-1.581-2.958-3.825-2.958s-3.825,1.19-3.825,2.958a2.976,2.976,0,0,0,2.7,2.822v1.326c-1.377.034-2.669.034-3.791.034l.272,1.819a49.965,49.965,0,0,0,9.469-.646L44.251-3.4c-1.122.17-2.329.255-3.536.323Zm8.534-3.5H47.294v-6.375H45.05V1.462h2.244V-5.967h1.955Zm10.115-5H55.879V-14.28H53.618v1.462H50.15v1.768h9.214ZM53.057-7.684c0-.782.68-1.173,1.7-1.173,1,0,1.7.391,1.7,1.173,0,.8-.7,1.19-1.7,1.19C53.737-6.494,53.057-6.885,53.057-7.684Zm5.542,0c0-1.7-1.581-2.873-3.842-2.873-2.244,0-3.842,1.173-3.842,2.873,0,1.717,1.6,2.89,3.842,2.89C57.018-4.794,58.6-5.967,58.6-7.684ZM52.037-1.938h8.194V1.479h2.244V-3.74H52.037Zm12.512-8.228H62.475v-4.029H60.231v9.809h2.244V-8.313h2.074ZM75.6-10.54h-6.2v-1.479h6.2Zm2.193-3.2H67.2v4.913H77.792Zm1.8,7.514V-7.99H65.45v1.768h5.933v.986H67.065v1.649h8.6v.816H67.082V1.343h11.2V-.34H69.309v-.884h8.568V-5.236h-4.25v-.986Zm14.144-7.973H91.494v8.024h2.244Zm-3.23,6.154c-2.346-.629-3.485-2.142-3.655-3.655H89.93v-1.785H81.413V-11.7h3.128a4.649,4.649,0,0,1-3.723,3.961l1.037,1.751a5.959,5.959,0,0,0,3.893-3.179,5.74,5.74,0,0,0,3.74,2.839ZM85.561-.357v-.986h8.194v-4.2H83.317v1.683h8.211v.935H83.334V1.343H94.146v-1.7ZM107.933-7.48a24.262,24.262,0,0,0,.357-4.607v-.969h-8.041v1.785h5.831a22.293,22.293,0,0,1-.34,3.536Zm1.037.629c-1.462.2-3.026.323-4.573.391V-9.418H102.2v3.043c-1.02.017-1.989.017-2.856.017l.2,1.785a56.832,56.832,0,0,0,9.554-.68Zm-5.1,3.332h-2.244V1.19h10.931V-.6H103.87Zm8.194-5.916v-4.777H109.82v11.73h2.244v-5.1h1.87V-9.435ZM118-6.817h5.083v-6.052h-7.4v1.785h5.1v2.5H115.7v6.443h1.411a42.938,42.938,0,0,0,7.684-.544L124.559-4.5a39.181,39.181,0,0,1-6.562.51Zm7.65-7.4V1.5h2.244V-14.212Zm14.11,1.224h-2.244v2.278c0,3.043-1.292,6.069-4.029,7.242l1.343,1.853a7.575,7.575,0,0,0,3.842-4.658,7.153,7.153,0,0,0,3.706,4.284l1.275-1.819c-2.652-1.139-3.893-3.995-3.893-6.9Zm4.658-1.224V1.5h2.244V-14.212Zm18.258,7.4c-3.536-.612-5.474-3.043-5.474-5.338v-1.122h-2.4v1.122c0,2.244-1.955,4.726-5.474,5.338l.952,1.87a7.859,7.859,0,0,0,5.712-4.046,7.935,7.935,0,0,0,5.729,4.046ZM148.988-2.261V-.442h14.178V-2.261Zm23.443-2.7h2.091v-8.993h-2.091v3.519H170.9v1.8h1.53Zm-1.088-2.6a23.988,23.988,0,0,1-4.284.357V-8.551h3.179v-1.7h-3.179v-1.241h3.723V-13.26H164.9v7.82h1.071A28.881,28.881,0,0,0,171.53-5.8Zm-2.108,5.083h6.205V-.476h-6.205Zm-2.21,3.757h10.608V-4.233H167.025Zm8.483-15.453v9.333h2.125v-9.333Zm12.461,4.4h2.4v-1.8h-2.4v-2.108h-2.125v2.108H183.4v1.8h2.448v.323c0,2.414-.8,4.981-3.026,6.29l1.258,1.683a6.608,6.608,0,0,0,2.856-3.842,6.208,6.208,0,0,0,2.839,3.468l1.207-1.666c-2.21-1.173-3.009-3.57-3.009-5.933Zm3.281,1.5h-1.785V-6.46h1.785V.748h2.091V-13.94H191.25Zm3.162-5.933V1.445h2.125V-14.212Zm12.121,4.148H205.02a19.533,19.533,0,0,0,.136-2.278H199.07v1.785h3.859c-.289,3.06-1.649,5.321-4.743,7.208l1.275,1.564a10.523,10.523,0,0,0,5.185-6.494h1.887v2.125h-2.176v1.8h2.176V.782h2.091V-13.855h-2.091Zm3.213-4.148V1.462h2.125V-14.212ZM221.9-2.142V-5.406h4.471v-1.8h-8.755v-4.114h8.636v-1.8h-10.9v7.718h4.3v3.264h-5.95V-.306h14.178V-2.142Z" transform="translate(298.028 57.831)"/>
  <g id="그룹" transform="translate(0 674.306)">
    <path id="패스_9020" data-name="패스 9020" class="cls-8" d="M12.405-5.775c-2.355-.42-4.92-2.4-4.92-4.635v-1.035H6.195v1.035c0,2.235-2.55,4.215-4.9,4.635l.51,1.02A7.253,7.253,0,0,0,6.84-8.5a7.284,7.284,0,0,0,5.04,3.75ZM7.455-1.65V-4.92H6.225v3.27H.8v1h12.21v-1ZM18.27-9.75h2.445v-1.005h-6.24V-9.75h2.61V-8.7c0,2.73-1,5.025-2.925,6.105l.75.93a6.281,6.281,0,0,0,2.79-4.1,6.019,6.019,0,0,0,2.73,3.63l.72-.945c-1.905-.99-2.88-3.165-2.88-5.625Zm6.315-2.61v5.445h-1.77v-5.13H21.66V.45h1.155V-5.895h1.77v7H25.77V-12.36Zm2.58,15.045h1l4.485-14.58h-.99ZM42.8-6.99H36.12V-8.97H42.8Zm1.23-4.815H42.8V-9.96H36.12v-1.845H34.905v5.82h9.12Zm1.545,7.44H33.36v.99h5.46v4.5h1.23v-4.5h5.52ZM54.615-8.1H51.27v-2.82h3.345Zm-4.575,0H48.06v.99h9.765V-8.1h-1.98v-2.82h2.04v-.99h-9.87v.99H50.04ZM56.355-.06h-6.78V-2.3h6.78ZM59.04-4.845v-.99H46.875v.99H52.35V-3.27H48.375V.93h9.18v-4.2H53.58V-4.845Zm.705,7.53h1l4.485-14.58h-.99ZM69.9-9.765h2.4v-1H66.165v1h2.55V-8.55A7.021,7.021,0,0,1,65.79-2.5l.75.915a6.965,6.965,0,0,0,2.775-4.26,6.433,6.433,0,0,0,2.7,3.93l.75-.9A6.518,6.518,0,0,1,69.9-8.55Zm3.6,2.25H71.28V-6.51H73.5V.405h1.17v-12.45H73.5Zm2.7-4.845V1.1h1.185V-12.36Zm11,4.26H83.85v-2.82H87.2Zm-4.575,0H80.64v.99h9.765V-8.1h-1.98v-2.82h2.04v-.99H80.6v.99H82.62ZM88.935-.06h-6.78V-2.3h6.78ZM91.62-4.845v-.99H79.455v.99H84.93V-3.27H80.955V.93h9.18v-4.2H86.16V-4.845Z" transform="translate(94.009 -302.985)"/>
    <text id="_" data-name=" " class="cls-9" transform="translate(186.499 -302.985)"><tspan x="0" y="0"> </tspan></text>
    <text id="_2" data-name=" " class="cls-10" transform="translate(190.099 -302.985)"><tspan x="0" y="0"> </tspan></text>
    <path id="패스_9021" data-name="패스 9021" class="cls-8" d="M8.73-5.775a4.632,4.632,0,0,1-3.27-4.11v-.54H8.415V-11.43H1.23v1.005h3v.54A4.888,4.888,0,0,1,.84-5.475l.645.975A5.7,5.7,0,0,0,4.86-7.86,5.576,5.576,0,0,0,8.115-4.815ZM2.88-2.565h7.755v3.69h1.23v-4.68H2.88Zm7.755-9.78v3.51H8.01v1h2.625v3.54h1.23v-8.055Zm11.64,1.38h-3.36V-12.48h-1.23v1.515H14.34v.99h7.935ZM16.26-6.99c0-.87.81-1.425,2.04-1.425s2.055.555,2.055,1.425S19.53-5.565,18.3-5.565,16.26-6.105,16.26-6.99Zm5.265,0c0-1.425-1.305-2.34-3.225-2.34s-3.21.915-3.21,2.34,1.29,2.355,3.21,2.355S21.525-5.55,21.525-6.99ZM23.52-.06H17.49V-1.545h6.03Zm0-2.445H17.49V-3.93H16.275V.93h8.46V-3.93H23.52Zm3.21-6.42H24.735v-3.42h-1.23V-4.53h1.23V-7.89H26.73ZM37.635-4.38H38.88v-7.95H37.635v2.85H34.71v1.005h2.925Zm-1.95-1.59a4.613,4.613,0,0,1-3.27-4.275V-11.58h-1.23v1.38A4.9,4.9,0,0,1,27.78-5.61l.645,1.005a5.69,5.69,0,0,0,3.405-3.42,5.508,5.508,0,0,0,3.2,3.015ZM34.44.12c-2.025,0-3.255-.585-3.255-1.56s1.23-1.575,3.255-1.575,3.255.585,3.255,1.575S36.465.12,34.44.12Zm0-4.095c-2.76,0-4.485.915-4.485,2.535S31.68,1.1,34.44,1.1s4.47-.93,4.47-2.535S37.2-3.975,34.44-3.975ZM47.01-7.98h6.87v2.475H47.01Zm4.05,6.36V-4.515h4.02v-6.87h-1.2v2.4H47.01v-2.4H45.8v6.87h4.02V-1.62h-5.46v1h12.2v-1Zm7.92-5.145c2.2-.27,4.215-1.245,4.965-2.715.735,1.47,2.76,2.445,4.965,2.715l.435-.975c-2.385-.255-4.545-1.425-4.6-2.925h4.185v-.99H58.98v.99h4.17c-.06,1.5-2.22,2.67-4.6,2.925ZM63.93.12c-2.115,0-3.36-.525-3.36-1.47,0-.93,1.245-1.47,3.36-1.47s3.36.54,3.36,1.47C67.29-.405,66.03.12,63.93.12Zm0-3.9c-2.88,0-4.6.87-4.6,2.43S61.05,1.1,63.93,1.1s4.605-.87,4.605-2.445S66.795-3.78,63.93-3.78ZM57.855-5.94v.99H70.02v-.99Z" transform="translate(104.404 -280.98)"/>
  </g>
  <path id="패스_8989" data-name="패스 8989" class="cls-6" d="M24.945-445.361H249.026v-35H24.945Z" transform="translate(0 674.306)"/>
  <g id="그룹_8399" data-name="그룹 8399" transform="translate(261.378 217.462)">
    <path id="패스_8990" data-name="패스 8990" class="cls-6" d="M0,0,5.945-6.08,0-12.161"/>
  </g>
  <g id="그룹-2" data-name="그룹" transform="translate(0 674.306)">
    <path id="패스_9009" data-name="패스 9009" class="cls-6" d="M11.115-7.005a12.827,12.827,0,0,0,.375-3.6v-1.14H2.19V-10.5H9.96A12.081,12.081,0,0,1,9.6-7.17ZM6.84-.03C4.83-.03,3.6-.525,3.6-1.38S4.83-2.715,6.84-2.715c1.995,0,3.2.495,3.2,1.335S8.835-.03,6.84-.03Zm0-3.87c-2.925,0-4.77.96-4.77,2.52C2.07.2,3.915,1.155,6.84,1.155c2.88,0,4.74-.96,4.74-2.535C11.58-2.94,9.72-3.9,6.84-3.9Zm.3-2.295v-2.49H5.58v2.49H.78V-4.95H12.99V-6.195Zm16.3,5.94h-6.12V-1.83h6.12Zm0-2.775h-6.12V-4.65H15.8V.99H24.99V-4.65H23.445Zm1.23-3.945a17.061,17.061,0,0,0,.33-3.795v-1.035h-9.2v1.245h7.68a16.105,16.105,0,0,1-.345,3.585h-8.88v1.26h12.27v-1.26Zm8.385.285h-3.3v-3.465h3.3Zm1.515-4.7H28.23V-5.46h6.345ZM33.975-.06c-1.89,0-2.985-.48-2.985-1.365,0-.9,1.095-1.38,2.985-1.38s2.985.48,2.985,1.38C36.96-.54,35.865-.06,33.975-.06Zm0-3.975c-2.775,0-4.515.975-4.515,2.61,0,1.62,1.74,2.6,4.515,2.6,2.79,0,4.515-.975,4.515-2.6C38.49-3.06,36.765-4.035,33.975-4.035Zm4.365-5.13V-12.39H36.795v7.935H38.34V-7.89h1.92V-9.165ZM51.885-11.13H48.96v-1.395H47.415v1.395H44.37V-9.9h7.515ZM46.515-6.9c0-.8.675-1.29,1.665-1.29,1.005,0,1.68.5,1.68,1.29s-.675,1.29-1.68,1.29C47.19-5.61,46.515-6.105,46.515-6.9Zm4.785,0c0-1.47-1.275-2.445-3.12-2.445-1.83,0-3.1.975-3.1,2.445s1.275,2.445,3.1,2.445C50.025-4.455,51.3-5.43,51.3-6.9ZM54.03-.225H48.195V-1.41H54.03Zm0-2.355H48.195V-3.81h-1.53V.99h8.9v-4.8H54.03Zm-.015-9.825V-9.36h-2.04V-8.1h2.04v1.4h-2.07v1.26h2.07v1.1H55.56v-8.055ZM64.875-6.12A26.928,26.928,0,0,1,59.9-5.8V-7.56H64.23v-4.05H58.35v1.245H62.7v1.62H58.38v4.2h.99a30.8,30.8,0,0,0,5.67-.33Zm-4.98,4h7.62v3.3H69.06v-4.56H59.9Zm7.62-10.275v1.95h-2.43v1.245h2.43v1.59h-2.43V-6.36h2.43v2.31H69.06v-8.34Zm8.565,1.125H74.535v2.22A6.856,6.856,0,0,1,71.1-2.94l.945,1.245a7,7,0,0,0,3.27-4.245,6.747,6.747,0,0,0,3.12,3.99l.945-1.23a6.573,6.573,0,0,1-3.3-5.865ZM83.94-7.02H81.825v-5.37H80.28V1.155h1.545v-6.9H83.94Z" transform="translate(655.904 -503.965)"/>
    <path id="패스_9030" data-name="패스 9030" class="cls-2" d="M1.53-10.965V-9.7H6.36C6.09-6.585,4.41-4.2.855-2.49L1.68-1.26c4.65-2.25,6.27-5.67,6.27-9.705ZM10.4-12.39V1.155H11.94V-12.39Zm5.1,6.045c2.34-.3,4.155-1.38,4.875-2.88.735,1.5,2.565,2.58,4.92,2.88l.57-1.23c-2.535-.3-4.32-1.56-4.44-2.94H25.4V-11.76H15.39v1.245h3.945c-.12,1.38-1.875,2.64-4.425,2.94ZM17.3-2.97H15.75V.9h9.42V-.36H17.3ZM14.25-5.52v1.245h5.49v2.55h1.545v-2.55h5.25V-5.52ZM35.04-8.985v1.26h2.4V-4.32h1.545v-8.07H37.44v3.4Zm.78,3.015a4.442,4.442,0,0,1-3.18-4.08v-.18h2.82v-1.245H28.215v1.245H31.08v.195a4.756,4.756,0,0,1-3.315,4.41l.8,1.23A5.606,5.606,0,0,0,31.9-7.65a5.291,5.291,0,0,0,3.15,2.895ZM34.485-.03c-1.935,0-3.03-.48-3.03-1.365S32.55-2.76,34.485-2.76c1.9,0,3.015.48,3.015,1.365S36.39-.03,34.485-.03Zm0-3.93c-2.835,0-4.575.96-4.575,2.565S31.65,1.17,34.485,1.17c2.82,0,4.56-.945,4.56-2.565S37.305-3.96,34.485-3.96Zm9.69-4.005H50.6v2.22h-6.42Zm3.975,6.2V-4.5h3.975v-6.99H50.6v2.28h-6.42v-2.28h-1.53V-4.5H46.6v2.73h-5.34V-.5h12.27V-1.77ZM58.875-9.645H61.11V-10.92H54.99v1.275h2.385v.975c0,2.415-.9,4.86-2.82,6.06l.93,1.14A6.713,6.713,0,0,0,58.14-5.46a6.165,6.165,0,0,0,2.6,3.66l.9-1.125c-1.89-1.1-2.76-3.435-2.76-5.745Zm3.24,2.01H60.12v1.26h1.995V.5H63.57v-12.63H62.115Zm2.73-4.77V1.14h1.47V-12.405Zm13.77,5.4a12.827,12.827,0,0,0,.375-3.6v-1.14h-9.3V-10.5h7.77a12.081,12.081,0,0,1-.36,3.33ZM74.34-.03c-2.01,0-3.24-.495-3.24-1.35s1.23-1.335,3.24-1.335,3.2.495,3.2,1.335S76.335-.03,74.34-.03Zm0-3.87c-2.925,0-4.77.96-4.77,2.52,0,1.575,1.845,2.535,4.77,2.535,2.88,0,4.74-.96,4.74-2.535C79.08-2.94,77.22-3.9,74.34-3.9Zm.3-2.295v-2.49H73.08v2.49h-4.8V-4.95H80.49V-6.195Z" transform="translate(96.328 -455.8)"/>
  </g>
  <g id="그룹-3" data-name="그룹" transform="translate(0 674.306)">
    <path id="패스_9017" data-name="패스 9017" class="cls-11" d="M3.952-8.593h2.3v-.585H.9v.585H3.289v1.339A6.228,6.228,0,0,1,.637-2.015l.455.52A6.33,6.33,0,0,0,3.627-5.421,5.968,5.968,0,0,0,6.1-1.768l.442-.52A5.876,5.876,0,0,1,3.952-7.254Zm3.536,2.21H5.343v.6H7.488V.273h.663v-10.6H7.488ZM9.8-10.634V.91h.676V-10.634ZM19.24-6.825H16.029V-9.672H19.24Zm-3.887,0h-1.9v.572h8.359v-.572H19.929V-9.672H21.84v-.572h-8.4v.572h1.911ZM20.9.143H14.417V-2.21H20.9Zm1.963-4.511v-.585H12.428v.585h4.888v1.586H13.754V.728H21.58v-3.51H17.992V-4.368ZM23.53,2.3h.611l4.29-12.519h-.624ZM37.388-5.824H31.07V-7.839h6.318Zm.689-4.342h-.689v1.755H31.07v-1.755h-.689v4.927h7.7Zm1.391,6.487H28.977v.585h4.875v4h.689v-4h4.927ZM47.5-6.825H44.291V-9.672H47.5Zm-3.887,0h-1.9v.572h8.359v-.572H48.191V-9.672H50.1v-.572H41.7v.572h1.911ZM49.166.143H42.679V-2.21h6.487Zm1.963-4.511v-.585H40.69v.585h4.888v1.586H42.016V.728h7.826v-3.51H46.254V-4.368Zm7.384-3.146v.585h2.6v3.172H61.8v-6.877h-.689v3.12Zm.6,2.7a4.2,4.2,0,0,1-2.912-3.6v-.715h2.7v-.585H52.767v.585h2.756V-8.4a4.512,4.512,0,0,1-3,3.926l.351.559a5.218,5.218,0,0,0,3.016-3.159A4.935,4.935,0,0,0,58.76-4.264ZM58.071.325c-1.885,0-3.094-.585-3.094-1.547s1.209-1.547,3.094-1.547,3.107.585,3.107,1.547S59.956.325,58.071.325Zm0-3.653c-2.353,0-3.783.754-3.783,2.106S55.718.884,58.071.884,61.854.13,61.854-1.222,60.411-3.328,58.071-3.328Zm8.021-3.627h6.474v2.431H66.092Zm3.562,5.733V-3.939h3.588V-9.776h-.676V-7.54H66.092V-9.776H65.4v5.837h3.562v2.717H64.09v.585H74.581v-.585Z" transform="translate(99.318 -417.805)"/>
    <text id="_3" data-name=" " class="cls-12" transform="translate(174.653 -417.805)"><tspan x="0" y="0"> </tspan></text>
    <path id="패스_9018" data-name="패스 9018" class="cls-11" d="M1.378,0H4.186C6.318,0,7.722-.936,7.722-2.769A2.2,2.2,0,0,0,5.694-5.044v-.065A2.037,2.037,0,0,0,7.15-7.176c0-1.6-1.248-2.3-3.159-2.3H1.378Zm.78-5.343v-3.5H3.822c1.677,0,2.548.468,2.548,1.755,0,1.079-.754,1.742-2.626,1.742Zm0,4.693V-4.719H4c1.885,0,2.951.624,2.951,1.95C6.955-1.3,5.837-.65,4-.65ZM12.792.169c2.314,0,3.939-1.924,3.939-4.94s-1.625-4.875-3.939-4.875c-2.288,0-3.926,1.872-3.926,4.875S10.5.169,12.792.169Zm0-.7C10.92-.533,9.685-2.2,9.685-4.771s1.235-4.173,3.107-4.173,3.133,1.6,3.133,4.173S14.677-.533,12.792-.533ZM18.642,0h.715V-6.006c0-.78-.052-1.82-.091-2.613h.052L20.059-6.5l2,5.486h.624L24.674-6.5l.741-2.119h.052c-.039.793-.091,1.833-.091,2.613V0h.741V-9.477h-1.04L23.127-4.03c-.234.689-.455,1.391-.7,2.08h-.052l-.741-2.08-1.95-5.447h-1.04Zm18.07-7.514v.585h2.6v3.172H40v-6.877h-.689v3.12Zm.6,2.7a4.2,4.2,0,0,1-2.912-3.6v-.715h2.7v-.585H30.966v.585h2.756V-8.4a4.512,4.512,0,0,1-3,3.926l.351.559a5.218,5.218,0,0,0,3.016-3.159,4.935,4.935,0,0,0,2.873,2.808ZM36.27.325c-1.885,0-3.094-.585-3.094-1.547s1.209-1.547,3.094-1.547,3.107.585,3.107,1.547S38.155.325,36.27.325Zm0-3.653c-2.353,0-3.783.754-3.783,2.106S33.917.884,36.27.884,40.053.13,40.053-1.222,38.61-3.328,36.27-3.328Zm8.021-3.627h6.474v2.431H44.291Zm3.562,5.733V-3.939h3.588V-9.776h-.676V-7.54H44.291V-9.776H43.6v5.837h3.562v2.717H42.289v.585H52.78v-.585Z" transform="translate(109.848 -397.811)"/>
    <text id="_4" data-name=" " class="cls-12" transform="translate(164.123 -397.811)"><tspan x="0" y="0"> </tspan></text>
    <path id="패스_9019" data-name="패스 9019" class="cls-11" d="M7.293-9.373H4.381v-1.391H3.692v1.391H.741v.585H7.293ZM2.119-6.019c0-.884.78-1.508,1.911-1.508s1.9.624,1.9,1.508-.767,1.508-1.9,1.508S2.119-5.135,2.119-6.019Zm4.472,0c0-1.261-1.04-2.054-2.561-2.054S1.469-7.28,1.469-6.019,2.509-3.965,4.03-3.965,6.591-4.758,6.591-6.019ZM9.464.156H3.523V-1.339H9.464Zm0-2.054H3.523V-3.3H2.834V.728H10.14V-3.3H9.464Zm-.013-8.736V-7.8H7.215v.585H9.451v1.651H7.2v.572H9.451v1.144h.689v-6.786ZM18.642-5.07a26.06,26.06,0,0,1-4.888.286h-.13V-6.89h4.212V-9.932H12.909v.585H17.16v1.9H12.948V-4.2h.806a27.231,27.231,0,0,0,4.966-.286Zm-4.42,2.782h6.929V.936h.689V-2.873H14.222Zm6.929-8.346v1.781h-2.5v.585h2.5v1.755h-2.5v.585h2.5v2.379h.689v-7.085Zm6.617,1.053H27.1v2.314a6.388,6.388,0,0,1-3.081,5.1l.429.559a7.085,7.085,0,0,0,3-4.069,6.705,6.705,0,0,0,2.99,3.822l.429-.533a6.134,6.134,0,0,1-3.107-4.875Zm7.176,3.757H32.916v-4.823h-.689V.91h.689V-5.239h2.028Zm9.633-1.69v.585h2.6v3.172h.689v-6.877h-.689v3.12Zm.6,2.7a4.2,4.2,0,0,1-2.912-3.6v-.715h2.7v-.585H38.831v.585h2.756V-8.4a4.512,4.512,0,0,1-3,3.926l.351.559a5.218,5.218,0,0,0,3.016-3.159,4.935,4.935,0,0,0,2.873,2.808ZM44.135.325c-1.885,0-3.094-.585-3.094-1.547s1.209-1.547,3.094-1.547,3.107.585,3.107,1.547S46.02.325,44.135.325Zm0-3.653c-2.353,0-3.783.754-3.783,2.106S41.782.884,44.135.884,47.918.13,47.918-1.222,46.475-3.328,44.135-3.328Zm8.021-3.627H58.63v2.431H52.156Zm3.562,5.733V-3.939h3.588V-9.776H58.63V-7.54H52.156V-9.776h-.689v5.837h3.562v2.717H50.154v.585H60.645v-.585Z" transform="translate(105.922 -377.817)"/>
  </g>
  <path id="패스_8991" data-name="패스 8991" class="cls-13" d="M280.222-445.5H559.281v-35H280.222Z" transform="translate(0 674.306)"/>
  <g id="그룹-4" data-name="그룹" transform="translate(0 674.306)">
    <path id="패스_9029" data-name="패스 9029" class="cls-14" d="M12.405-5.775c-2.355-.42-4.92-2.4-4.92-4.635v-1.035H6.195v1.035c0,2.235-2.55,4.215-4.9,4.635l.51,1.02A7.253,7.253,0,0,0,6.84-8.5a7.284,7.284,0,0,0,5.04,3.75ZM7.455-1.65V-4.92H6.225v3.27H.8v1h12.21v-1ZM18.27-9.75h2.445v-1.005h-6.24V-9.75h2.61V-8.7c0,2.73-1,5.025-2.925,6.105l.75.93a6.281,6.281,0,0,0,2.79-4.1,6.019,6.019,0,0,0,2.73,3.63l.72-.945c-1.905-.99-2.88-3.165-2.88-5.625Zm6.315-2.61v5.445h-1.77v-5.13H21.66V.45h1.155V-5.895h1.77v7H25.77V-12.36Zm2.58,15.045h1l4.485-14.58h-.99ZM42.8-6.99H36.12V-8.97H42.8Zm1.23-4.815H42.8V-9.96H36.12v-1.845H34.905v5.82h9.12Zm1.545,7.44H33.36v.99h5.46v4.5h1.23v-4.5h5.52ZM54.615-8.1H51.27v-2.82h3.345Zm-4.575,0H48.06v.99h9.765V-8.1h-1.98v-2.82h2.04v-.99h-9.87v.99H50.04ZM56.355-.06h-6.78V-2.3h6.78ZM59.04-4.845v-.99H46.875v.99H52.35V-3.27H48.375V.93h9.18v-4.2H53.58V-4.845Zm.705,7.53h1l4.485-14.58h-.99ZM69.9-9.765h2.4v-1H66.165v1h2.55V-8.55A7.021,7.021,0,0,1,65.79-2.5l.75.915a6.965,6.965,0,0,0,2.775-4.26,6.433,6.433,0,0,0,2.7,3.93l.75-.9A6.518,6.518,0,0,1,69.9-8.55Zm3.6,2.25H71.28V-6.51H73.5V.405h1.17v-12.45H73.5Zm2.7-4.845V1.1h1.185V-12.36Zm11,4.26H83.85v-2.82H87.2Zm-4.575,0H80.64v.99h9.765V-8.1h-1.98v-2.82h2.04v-.99H80.6v.99H82.62ZM88.935-.06h-6.78V-2.3h6.78ZM91.62-4.845v-.99H79.455v.99H84.93V-3.27H80.955V.93h9.18v-4.2H86.16V-4.845Zm13.8-5.67a12.17,12.17,0,0,1-.36,3.42l1.2.135a12.477,12.477,0,0,0,.375-3.555v-1.14H97.47v.99h7.95ZM102.045.135c-2.1,0-3.45-.57-3.45-1.5,0-.96,1.35-1.53,3.45-1.53,2.115,0,3.465.57,3.465,1.53C105.51-.435,104.16.135,102.045.135Zm0-3.975c-2.865,0-4.68.915-4.68,2.475,0,1.53,1.815,2.46,4.68,2.46s4.7-.93,4.7-2.46C106.74-2.925,104.91-3.84,102.045-3.84Zm.195-2.235v-2.58h-1.23v2.58H96.045v1H108.15v-1ZM118.92-.06h-6.615V-1.905h6.615Zm0-2.805h-6.615v-1.77H111.09V.93h9.045V-4.635H118.92Zm.87-3.99a16.8,16.8,0,0,0,.36-3.9v-.975h-9.09v1.005h7.875a15.922,15.922,0,0,1-.375,3.87H109.5V-5.85h12.225V-6.855Zm8.76.33h-3.78v-3.81h3.78Zm1.2-4.8h-6.18v5.79h6.18ZM129.165.135c-2,0-3.2-.585-3.2-1.545,0-.975,1.2-1.545,3.2-1.545s3.21.57,3.21,1.545C132.375-.45,131.16.135,129.165.135Zm0-4.065c-2.715,0-4.425.915-4.425,2.52,0,1.59,1.71,2.52,4.425,2.52s4.44-.93,4.44-2.52C133.6-3.015,131.9-3.93,129.165-3.93Zm4.29-5.055V-12.33h-1.23v7.935h1.23v-3.57h1.995v-1.02Z" transform="translate(351.699 -302.985)"/>
    <text id="_5" data-name=" " class="cls-9" transform="translate(488.589 -302.985)"><tspan x="0" y="0"> </tspan></text>
    <text id="_6" data-name=" " class="cls-10" transform="translate(492.189 -302.985)"><tspan x="0" y="0"> </tspan></text>
    <path id="패스_9022" data-name="패스 9022" class="cls-8" d="M2.895-9.87H4.74c1.725,0,2.67.51,2.67,1.965,0,1.425-.945,2.115-2.67,2.115H2.895ZM9.12,0,6.3-4.815a2.982,2.982,0,0,0,2.49-3.09c0-2.295-1.605-3.09-3.84-3.09H1.5V0H2.895V-4.665h1.98L7.545,0Zm1.605,0h1.4V-10.995h-1.4ZM17.88.2c2.3,0,3.735-1.38,3.735-3.12,0-1.635-.99-2.385-2.265-2.94L17.775-6.54C16.92-6.9,15.96-7.3,15.96-8.37c0-.99.81-1.62,2.055-1.62A3.562,3.562,0,0,1,20.52-8.955l.735-.885a4.509,4.509,0,0,0-3.24-1.365c-1.995,0-3.465,1.23-3.465,2.925a3.106,3.106,0,0,0,2.235,2.82l1.59.69c1.035.465,1.83.825,1.83,1.95,0,1.08-.87,1.8-2.31,1.8A4.32,4.32,0,0,1,14.85-2.385l-.825.945A5.254,5.254,0,0,0,17.88.2Zm5.6-.2h1.4V-3.48l1.89-2.25L30.045,0H31.6L27.63-6.81l3.435-4.185h-1.56l-4.59,5.52H24.87v-5.52h-1.4ZM45.06-4.05h1.245v-8.28H45.06v2.385H42.84v1h2.22v1.41H42.84v1h2.22Zm-6.915-6.285H40.17V-5.97c-.675.03-1.365.06-2.025.075Zm4.98,4.125c-.555.075-1.155.135-1.755.18v-4.3H42.7v-.99h-7.08v.99H36.96V-5.88c-.6.015-1.185.015-1.695.015l.135,1.02a53.5,53.5,0,0,0,7.8-.45ZM41.865.135c-2.04,0-3.255-.54-3.255-1.485,0-.915,1.215-1.47,3.255-1.47s3.255.555,3.255,1.47C45.12-.405,43.9.135,41.865.135Zm0-3.9c-2.79,0-4.485.87-4.485,2.415,0,1.56,1.7,2.445,4.485,2.445s4.47-.885,4.47-2.445C46.335-2.895,44.64-3.765,41.865-3.765ZM49.44-10.9v1.02h4.935C54.09-6.7,52.245-4.125,48.81-2.4l.675.96c4.35-2.175,6.1-5.64,6.1-9.465Zm11.79,4.02H59.07v-5.46H57.84V1.11h1.23V-5.865h2.16Z" transform="translate(388.869 -280.98)"/>
    <path id="패스_9023" data-name="패스 9023" class="cls-8" d="M7.98-8.85v1h2.655V-4.32H11.88v-8.01H10.635v3.48Zm.75,3.06A4.632,4.632,0,0,1,5.46-9.9v-.465H8.415v-.99H1.23v.99h3V-9.9A4.96,4.96,0,0,1,.84-5.415l.645.975a5.823,5.823,0,0,0,3.39-3.42,5.527,5.527,0,0,0,3.24,3.03ZM7.44.15C5.415.15,4.185-.42,4.185-1.395s1.23-1.56,3.255-1.56,3.255.585,3.255,1.56S9.465.15,7.44.15Zm0-4.05c-2.76,0-4.485.915-4.485,2.5S4.68,1.11,7.44,1.11s4.47-.915,4.47-2.5S10.2-3.9,7.44-3.9ZM23.715-6.99H17.04V-8.97h6.675Zm1.23-4.815h-1.23V-9.96H17.04v-1.845H15.825v5.82h9.12Zm1.545,7.44H14.28v.99h5.46v4.5h1.23v-4.5h5.52ZM28.125,2.85a3.338,3.338,0,0,0,2.19-3.135c0-1.005-.435-1.62-1.155-1.62a.975.975,0,0,0-1.035.96.94.94,0,0,0,1.005.96A.615.615,0,0,0,29.3,0a2.249,2.249,0,0,1-1.5,2.04ZM40.32-3.135H36.48v-3.54h3.84Zm0-4.515H36.48V-11.2H35.265V-2.13H41.52V-11.2h-1.2Zm6.975.6h-2.22v-5.28h-1.23V1.1h1.23v-7.11h2.22Zm10.71-5.3V1.14h1.23V-12.345ZM52.14-11.31c-1.995,0-3.42,1.83-3.42,4.7s1.425,4.7,3.42,4.7,3.42-1.83,3.42-4.7S54.135-11.31,52.14-11.31Zm0,1.11c1.305,0,2.235,1.41,2.235,3.585,0,2.19-.93,3.6-2.235,3.6s-2.25-1.41-2.25-3.6C49.89-8.79,50.82-10.2,52.14-10.2ZM65.325-3.015c-1.29,0-2.19-1.41-2.19-3.6,0-2.175.9-3.585,2.19-3.585S67.5-8.79,67.5-6.615C67.5-4.425,66.6-3.015,65.325-3.015Zm6.255-9.33v5.13H68.655c-.195-2.52-1.515-4.1-3.33-4.1-1.965,0-3.36,1.83-3.36,4.7s1.4,4.7,3.36,4.7c1.875,0,3.21-1.65,3.33-4.29H71.58V1.14h1.23V-12.345ZM89.04-8.22H81.045v-2.6h7.9v-.99H79.815V-7.23H89.04ZM84.36.135C82.245.135,81-.39,81-1.335s1.245-1.47,3.36-1.47,3.36.525,3.36,1.47S86.46.135,84.36.135Zm0-3.9c-2.865,0-4.605.87-4.605,2.43S81.495,1.1,84.36,1.1s4.6-.87,4.6-2.43S87.225-3.765,84.36-3.765ZM78.285-5.94v1.02h12.18V-5.94Z" transform="translate(656.004 -302.985)"/>
    <text id="_7" data-name=" " class="cls-9" transform="translate(748.989 -302.985)"><tspan x="0" y="0"> </tspan></text>
    <text id="_8" data-name=" " class="cls-10" transform="translate(752.589 -302.985)"><tspan x="0" y="0"> </tspan></text>
    <path id="패스_9024" data-name="패스 9024" class="cls-8" d="M7.98-8.85v1h2.655V-4.32H11.88v-8.01H10.635v3.48Zm.75,3.06A4.632,4.632,0,0,1,5.46-9.9v-.465H8.415v-.99H1.23v.99h3V-9.9A4.96,4.96,0,0,1,.84-5.415l.645.975a5.823,5.823,0,0,0,3.39-3.42,5.527,5.527,0,0,0,3.24,3.03ZM7.44.15C5.415.15,4.185-.42,4.185-1.395s1.23-1.56,3.255-1.56,3.255.585,3.255,1.56S9.465.15,7.44.15Zm0-4.05c-2.76,0-4.485.915-4.485,2.5S4.68,1.11,7.44,1.11s4.47-.915,4.47-2.5S10.2-3.9,7.44-3.9Zm9.51-4.08h6.87v2.475H16.95ZM21-1.62V-4.515h4.02v-6.87h-1.2v2.4H16.95v-2.4H15.735v6.87h4.02V-1.62H14.3v1H26.49v-1ZM34.8-9.765h2.4v-1H31.065v1h2.55V-8.55A7.021,7.021,0,0,1,30.69-2.5l.75.915a6.965,6.965,0,0,0,2.775-4.26,6.433,6.433,0,0,0,2.7,3.93l.75-.9A6.518,6.518,0,0,1,34.8-8.55Zm3.6,2.25H36.18V-6.51H38.4V.405h1.17v-12.45H38.4Zm2.7-4.845V1.1h1.185V-12.36Zm12.66,1.845a12.17,12.17,0,0,1-.36,3.42l1.2.135a12.477,12.477,0,0,0,.375-3.555v-1.14H45.81v.99h7.95ZM50.385.135c-2.1,0-3.45-.57-3.45-1.5,0-.96,1.35-1.53,3.45-1.53s3.465.57,3.465,1.53C53.85-.435,52.5.135,50.385.135Zm0-3.975c-2.865,0-4.68.915-4.68,2.475,0,1.53,1.815,2.46,4.68,2.46s4.695-.93,4.695-2.46C55.08-2.925,53.25-3.84,50.385-3.84Zm.195-2.235v-2.58H49.35v2.58H44.385v1h12.1v-1Zm21.36-6.27H70.71V-4.62h1.23ZM66.705-6.96H62.82V-10.5h3.885Zm1.2-4.515H61.62v5.5H67.9Zm4.35,8.715V-3.7H68.31v-1.3H67.065v1.3H63.12v.945h3.93C67.035-1.425,64.89-.15,62.595.12L63,1.065a6.724,6.724,0,0,0,4.695-2.46,6.625,6.625,0,0,0,4.62,2.46l.42-.945c-2.31-.285-4.41-1.59-4.425-2.88Zm16.68-5.19c-2.385-.345-4.74-1.86-4.74-3.57v-.6h-1.26v.6c0,1.755-2.34,3.225-4.74,3.57l.45.96a6.807,6.807,0,0,0,4.92-2.94,6.882,6.882,0,0,0,4.9,2.94ZM83.565.15c-2.13,0-3.375-.51-3.375-1.44,0-.915,1.245-1.44,3.375-1.44,2.1,0,3.345.525,3.345,1.44C86.91-.36,85.665.15,83.565.15Zm0-3.825c-2.88,0-4.62.855-4.62,2.385,0,1.545,1.74,2.4,4.62,2.4,2.865,0,4.59-.855,4.59-2.4C88.155-2.82,86.43-3.675,83.565-3.675Zm-6.09-2.25V-4.92H89.64V-5.925Zm24.54-6.4h-1.23V-2.5h1.23ZM92.49-8.1a2.2,2.2,0,0,1,2.3-2.235A2.208,2.208,0,0,1,97.11-8.1a2.214,2.214,0,0,1-2.325,2.265A2.206,2.206,0,0,1,92.49-8.1Zm5.82,0a3.311,3.311,0,0,0-3.525-3.3,3.294,3.294,0,0,0-3.5,3.3,3.309,3.309,0,0,0,3.5,3.33A3.325,3.325,0,0,0,98.31-8.1ZM94.59-.2V-3.51H93.36V.81h9.06V-.2Z" transform="translate(649.254 -280.98)"/>
  </g>
  <g id="그룹_8400" data-name="그룹 8400" transform="translate(270.459 359.559)">
    <path id="패스_8992" data-name="패스 8992" class="cls-15" d="M0,0V33.792"/>
  </g>
  <g id="그룹_8401" data-name="그룹 8401" transform="translate(270.459 356.621)">
    <path id="패스_8993" data-name="패스 8993" class="cls-16" d="M0,0H0M0,38.2H0"/>
  </g>
  <path id="패스_8994" data-name="패스 8994" class="cls-8" d="M285.362-489.715H559.423v-37.25H285.362Z" transform="translate(0 674.306)"/>
  <path id="패스_8995" data-name="패스 8995" class="cls-17" d="M280.33-493.215H553.891v-33.5H280.33Z" transform="translate(0 674.306)"/>
  <g id="그룹_8402" data-name="그룹 8402" transform="translate(561.306 359.559)">
    <path id="패스_8996" data-name="패스 8996" class="cls-15" d="M0,0V33.792"/>
  </g>
  <g id="그룹_8403" data-name="그룹 8403" transform="translate(561.306 356.621)">
    <path id="패스_8997" data-name="패스 8997" class="cls-16" d="M0,0H0M0,38.2H0"/>
  </g>
  <path id="패스_8998" data-name="패스 8998" class="cls-6" d="M589.616-445.646H813.7v-35H589.616Z" transform="translate(0 674.306)"/>
  <path id="패스_9010" data-name="패스 9010" class="cls-2" d="M1.92-6.72c2.37-.255,4.23-1.23,4.965-2.625.72,1.4,2.565,2.37,4.965,2.625l.54-1.2c-2.52-.255-4.275-1.335-4.47-2.565h3.975V-11.73h-10v1.245H5.835c-.2,1.23-1.95,2.31-4.47,2.565ZM6.855-.06c-1.98,0-3.09-.435-3.09-1.26s1.11-1.275,3.09-1.275S9.96-2.16,9.96-1.32,8.835-.06,6.855-.06Zm0-3.75c-2.895,0-4.665.915-4.665,2.49S3.96,1.155,6.855,1.155c2.91,0,4.665-.9,4.665-2.475S9.765-3.81,6.855-3.81ZM.75-6.03v1.245H13.005V-6.03Zm14.2-5.535V-5.2h6.45v-6.36H19.86V-9.63H16.485v-1.935Zm1.53,3.15H19.86v1.98H16.485Zm7.395-3.96v8.16h1.545v-8.16Zm-3,8.4c-2.82,0-4.575.96-4.575,2.565S18.06,1.155,20.88,1.155c2.85,0,4.6-.945,4.6-2.565S23.73-3.975,20.88-3.975Zm0,1.2c1.95,0,3.06.5,3.06,1.365S22.83-.045,20.88-.045c-1.92,0-3.03-.495-3.03-1.365S18.96-2.775,20.88-2.775Zm11.625-6.99H35.37V-11.04H28v1.275H30.96V-8.46a6.727,6.727,0,0,1-3.45,5.805l.885,1.23A7.059,7.059,0,0,0,31.755-5.7,6.842,6.842,0,0,0,35.04-1.77L35.9-2.985a6.346,6.346,0,0,1-3.39-5.475Zm7.86,2.715H38.25v-5.34H36.705V1.155H38.25v-6.93h2.115Zm5.715,3h2.775v2.34H46.08Zm4.3,2.34V-4.05h2V-5.295H44.265V-7.17H52.08v-4.275H42.72V-10.2h7.83v1.8h-7.8v4.35h1.8v2.34H41.265V-.435h12.27V-1.71Zm8.49-7.935H61.11V-10.92H54.99v1.275h2.385v.975c0,2.415-.9,4.86-2.82,6.06l.93,1.14A6.713,6.713,0,0,0,58.14-5.46a6.165,6.165,0,0,0,2.6,3.66l.9-1.125c-1.89-1.1-2.76-3.435-2.76-5.745Zm3.24,2.01H60.12v1.26h1.995V.5H63.57v-12.63H62.115Zm2.73-4.77V1.14h1.47V-12.405Zm4.44,5.415c2.4-.165,4.23-.825,5.085-1.965.855,1.14,2.715,1.8,5.115,1.965l.42-1.155c-2.64-.15-4.32-.9-4.62-1.965h4v-1.155H75.15V-12.45H73.605v1.185H69.48v1.155h3.99C73.17-9.045,71.5-8.3,68.835-8.145ZM80.5-5.34V-6.495H68.28V-5.34h5.325v1.05h-3.9v1.14H77.46V-2.2H69.735v3.24h9.63V-.12h-8.1V-1.14h7.71V-4.29H75.15V-5.34Z" transform="translate(661.006 218.501)"/>
  <g id="그룹-5" data-name="그룹" transform="translate(0 674.306)">
    <path id="패스_9011" data-name="패스 9011" class="cls-11" d="M9.126-7.358H2.8V-9.672H9.126ZM9.8-10.231H2.132v3.445H9.8Zm1.365,5.213V-5.59H.728v.572H5.6v1.365H2.041v.559H9.113v1.287H2.067V.741h8.1V.169H2.743V-1.274H9.789V-3.653h-3.5V-5.018Zm10.647-5.629h-.689v6.032h.689Zm-2.392,5.2C17.8-5.98,16.367-7.332,16.367-8.97v-.364h2.821v-.585H12.844v.585h2.834v.364a4.29,4.29,0,0,1-3.016,3.757L13-4.667a5.039,5.039,0,0,0,3.042-3,4.9,4.9,0,0,0,3.042,2.756ZM15.21.169v-1.6h6.617V-3.991H14.495v.559h6.656v1.469H14.534v2.7h7.748V.169ZM25.1-6.994a2.178,2.178,0,0,1,2.275-2.184,2.172,2.172,0,0,1,2.249,2.184A2.172,2.172,0,0,1,27.378-4.81,2.178,2.178,0,0,1,25.1-6.994Zm5.2,0a2.76,2.76,0,0,0-2.925-2.8,2.757,2.757,0,0,0-2.938,2.8A2.764,2.764,0,0,0,27.378-4.2,2.768,2.768,0,0,0,30.3-6.994ZM26.676-2.951h-.689V.624H33.6V.039H26.676ZM33.033-7.02v-3.627h-.689V-2.08h.689V-6.422H34.84v-.6Zm8.9-.312v.585h2.613v4.615h.689v-8.5h-.689v3.3Zm.611,2.743a4.2,4.2,0,0,1-2.912-3.6v-.832h2.7v-.585H36.2v.585h2.756v.845A4.475,4.475,0,0,1,35.945-4.29l.364.559a5.223,5.223,0,0,0,3-3.133A5.036,5.036,0,0,0,42.2-4.03ZM38.714.039V-2.912h-.689V.624h7.566V.039ZM53.651-7.514v.585h2.6v3.172h.689v-6.877h-.689v3.12Zm.6,2.7a4.2,4.2,0,0,1-2.912-3.6v-.715h2.7v-.585H47.9v.585h2.756V-8.4a4.512,4.512,0,0,1-3,3.926l.351.559a5.218,5.218,0,0,0,3.016-3.159A4.935,4.935,0,0,0,53.9-4.264ZM53.209.325c-1.885,0-3.094-.585-3.094-1.547s1.209-1.547,3.094-1.547,3.107.585,3.107,1.547S55.094.325,53.209.325Zm0-3.653c-2.353,0-3.783.754-3.783,2.106S50.856.884,53.209.884,56.992.13,56.992-1.222,55.549-3.328,53.209-3.328ZM61.23-6.955H67.7v2.431H61.23Zm3.562,5.733V-3.939H68.38V-9.776H67.7V-7.54H61.23V-9.776h-.689v5.837H64.1v2.717H59.228v.585H69.719v-.585Z" transform="translate(666.426 -417.805)"/>
    <text id="_9" data-name=" " class="cls-12" transform="translate(736.886 -417.805)"><tspan x="0" y="0"> </tspan></text>
    <path id="패스_9012" data-name="패스 9012" class="cls-11" d="M10.621-4.771c-1.664-.338-4.342-2-4.342-4.095v-.923H5.564v.923c0,2.106-2.652,3.757-4.316,4.095l.312.559a6.54,6.54,0,0,0,4.368-3.38,6.591,6.591,0,0,0,4.381,3.38ZM6.266-1.261V-4.212H5.577v2.951H.728v.585H11.206v-.585ZM15.678-8.58h2.34v-.585H12.584v.585h2.444v1.248a5.725,5.725,0,0,1-2.665,5.213l.455.533a5.647,5.647,0,0,0,2.561-3.8,5.319,5.319,0,0,0,2.457,3.406l.429-.546a5.272,5.272,0,0,1-2.587-4.81Zm5.837-2.054V-5.85H19.643v-4.5H18.98V.286h.663V-5.239h1.872V.91h.676V-10.634ZM32.5-6.318H26.234V-8.073H32.5Zm.689-3.965H32.5v1.638H26.234v-1.638h-.689v4.55h7.644Zm-6.994,7.8h-.676V.624h7.917V.039H26.195ZM24.115-4.42v.572h4.94v2.483h.689V-3.848h4.862V-4.42Zm18.369-.559a4.386,4.386,0,0,1-2.951-3.783v-1.313H38.87v1.287a4.543,4.543,0,0,1-2.964,4.1l.364.559a5.171,5.171,0,0,0,2.964-3.2A5.145,5.145,0,0,0,42.107-4.42ZM37.622-2.561h6.929V.91h.689V-3.133H37.622Zm6.929-8.086v2.574H41.795v.585h2.756v3.64h.689v-6.8Zm9.1,3.133v.585h2.6v3.172h.689v-6.877h-.689v3.12Zm.6,2.7a4.2,4.2,0,0,1-2.912-3.6v-.715h2.7v-.585H47.9v.585h2.756V-8.4a4.512,4.512,0,0,1-3,3.926l.351.559a5.218,5.218,0,0,0,3.016-3.159A4.935,4.935,0,0,0,53.9-4.264ZM53.209.325c-1.885,0-3.094-.585-3.094-1.547s1.209-1.547,3.094-1.547,3.107.585,3.107,1.547S55.094.325,53.209.325Zm0-3.653c-2.353,0-3.783.754-3.783,2.106S50.856.884,53.209.884,56.992.13,56.992-1.222,55.549-3.328,53.209-3.328ZM61.23-6.955H67.7v2.431H61.23Zm3.562,5.733V-3.939H68.38V-9.776H67.7V-7.54H61.23V-9.776h-.689v5.837H64.1v2.717H59.228v.585H69.719v-.585Z" transform="translate(666.426 -397.811)"/>
    <text id="_10" data-name=" " class="cls-12" transform="translate(736.886 -397.811)"><tspan x="0" y="0"> </tspan></text>
    <path id="패스_9013" data-name="패스 9013" class="cls-11" d="M2.73-6.955H9.2v2.431H2.73ZM6.292-1.222V-3.939H9.88V-9.776H9.2V-7.54H2.73V-9.776H2.041v5.837H5.6v2.717H.728v.585H11.219v-.585ZM13.364-5.9c1.69-.26,3.679-1.1,4.3-2.47.611,1.365,2.6,2.21,4.29,2.47l.26-.559C20.423-6.695,18.07-7.735,18.07-9.3v-.143h3.861v-.572H13.4v.572h3.861V-9.3c0,1.56-2.366,2.6-4.16,2.834Zm4.3,6.214c-1.989,0-3.25-.559-3.25-1.495s1.261-1.5,3.25-1.5c1.963,0,3.224.559,3.224,1.5S19.63.312,17.667.312Zm0-3.562c-2.457,0-3.939.741-3.939,2.067S15.21.871,17.667.871,21.58.143,21.58-1.183,20.111-3.25,17.667-3.25ZM12.428-5.044v.585H22.867v-.585ZM23.53,2.3h.611l4.29-12.519h-.624ZM35.789-7.345H33.735A10.056,10.056,0,0,0,33.9-9.113H29.5v.585h3.731a8.037,8.037,0,0,1-4.147,6.383l.429.507A8.757,8.757,0,0,0,33.579-6.76h2.21v2.327H33.4v.585h2.392V.273h.663V-10.309h-.663Zm2.288-3.289V.91h.663V-10.634Zm3.588,3.393a2.119,2.119,0,0,1,2.262-2.093,2.112,2.112,0,0,1,2.262,2.093,2.109,2.109,0,0,1-2.262,2.08A2.117,2.117,0,0,1,41.665-7.241Zm5.2,0a2.692,2.692,0,0,0-2.938-2.691A2.681,2.681,0,0,0,41-7.241a2.669,2.669,0,0,0,2.925,2.665A2.68,2.68,0,0,0,46.865-7.241ZM42.211-2.574h6.695V.91H49.6V-3.159H42.211Zm9.178-5.564v-.6H49.6v-1.911h-.689v6.89H49.6V-5.681h1.794v-.585H49.6V-8.138Zm7.124.624v.585h2.6v3.172H61.8v-6.877h-.689v3.12Zm.6,2.7a4.2,4.2,0,0,1-2.912-3.6v-.715h2.7v-.585H52.767v.585h2.756V-8.4a4.512,4.512,0,0,1-3,3.926l.351.559a5.218,5.218,0,0,0,3.016-3.159A4.935,4.935,0,0,0,58.76-4.264ZM58.071.325c-1.885,0-3.094-.585-3.094-1.547s1.209-1.547,3.094-1.547,3.107.585,3.107,1.547S59.956.325,58.071.325Zm0-3.653c-2.353,0-3.783.754-3.783,2.106S55.718.884,58.071.884,61.854.13,61.854-1.222,60.411-3.328,58.071-3.328Zm8.021-3.627h6.474v2.431H66.092Zm3.562,5.733V-3.939h3.588V-9.776h-.676V-7.54H66.092V-9.776H65.4v5.837h3.562v2.717H64.09v.585H74.581v-.585Z" transform="translate(663.995 -377.817)"/>
  </g>
  <g id="그룹_8404" data-name="그룹 8404" transform="translate(577.492 217.462)">
    <path id="패스_8999" data-name="패스 8999" class="cls-6" d="M0,0-5.945-6.081,0-12.161"/>
  </g>
  <g id="그룹-6" data-name="그룹" transform="translate(0 674.306)">
    <path id="패스_9007" data-name="패스 9007" class="cls-8" d="M8.895-10.83H5.655v-1.53H4.11v1.53H.84v1.245H8.895ZM3.09-6.375c0-.84.735-1.35,1.8-1.35s1.785.51,1.785,1.35c0,.825-.72,1.335-1.785,1.335S3.09-5.55,3.09-6.375Zm2.565,2.46A2.582,2.582,0,0,0,8.13-6.375c0-1.53-1.32-2.535-3.24-2.535s-3.255,1-3.255,2.535A2.593,2.593,0,0,0,4.11-3.915v1.32C2.85-2.55,1.635-2.55.6-2.55L.81-1.275a49.431,49.431,0,0,0,8.355-.54l-.12-1.14c-1.08.165-2.235.24-3.39.3Zm7.635-2.82H11.355v-5.67H9.81V1.155h1.545V-5.46H13.29Zm8.985-4.335H19.05v-1.395H17.5v1.395H14.28v1.23h7.995ZM16.47-6.78c0-.81.72-1.29,1.8-1.29s1.815.48,1.815,1.29S19.35-5.505,18.27-5.505,16.47-5.985,16.47-6.78Zm5.085,0c0-1.485-1.335-2.475-3.285-2.475s-3.285.99-3.285,2.475c0,1.47,1.335,2.46,3.285,2.46S21.555-5.31,21.555-6.78ZM15.93-2.01H23.3V1.155H24.84v-4.41H15.93ZM26.76-8.76H24.84v-3.63H23.3v8.475H24.84v-3.57h1.92ZM36.915-9H30.84v-1.77h6.075Zm1.515-2.97H29.31v4.185h9.12Zm1.59,6.36V-6.84H27.75v1.23h5.34v1.125H29.2v1.17H36.96v.96H29.235v3.39h9.63V-.15h-8.1V-1.26h7.71V-4.485H34.65V-5.61Zm12.4-6.78h-1.56V-5.4h1.56ZM49.6-6.8a4.118,4.118,0,0,1-3.3-3.645h2.9v-1.245H41.79v1.245h2.94a4.338,4.338,0,0,1-3.36,3.915L42.1-5.31a5.438,5.438,0,0,0,3.435-3,5.247,5.247,0,0,0,3.375,2.7ZM45.09-.165v-1.2h7.335v-3.42h-8.88v1.17H50.9v1.14h-7.32v3.51H52.83v-1.2Zm16.83-6.42a20.224,20.224,0,0,0,.33-4v-.78H55.44v1.26h5.3a19.264,19.264,0,0,1-.33,3.36Zm1.125.675a38.029,38.029,0,0,1-4.2.36V-8.28h-1.53v2.775c-.96.03-1.89.03-2.7.03l.165,1.26a50.738,50.738,0,0,0,8.37-.57Zm-4.83,2.79h-1.56V.9h9.21V-.36h-7.65ZM65.43-8.1v-4.29H63.87V-2.22h1.56V-6.825h1.8V-8.1Zm5.16,1.935h4.725V-11.19H69v1.26h4.755v2.52H69.03v5.37h1.155a37.3,37.3,0,0,0,6.735-.48l-.165-1.26a38.78,38.78,0,0,1-6.165.465Zm7.29-6.255V1.185h1.56V-12.42Zm8.88,1.155H85.215v2.22a6.814,6.814,0,0,1-3.57,6.18l.915,1.29A7.04,7.04,0,0,0,86.01-5.94a6.762,6.762,0,0,0,3.36,4.065l.9-1.23a6.561,6.561,0,0,1-3.51-5.94Zm4.59-1.14V1.185h1.56v-13.59Zm15.66,6.63c-2.67-.48-4.845-2.565-4.845-4.725v-1.02H100.53v1.02c0,2.145-2.175,4.23-4.845,4.725l.66,1.275a7.092,7.092,0,0,0,4.995-3.72,7.092,7.092,0,0,0,5,3.72ZM95.265-1.86V-.585h12.27V-1.86Zm20.88-2.52h1.44v-7.8h-1.44v3.12h-1.6v1.245h1.6ZM115-6.51a23.1,23.1,0,0,1-4.185.33V-7.71h3.12V-8.895h-3.12V-10.3h3.615V-11.55h-5.1v6.6h.885a25.266,25.266,0,0,0,4.935-.33ZM112.74-2.445h5.985v2.2H112.74ZM111.21.99h9.015V-3.675H111.21Zm7.545-13.4V-4.26h1.47v-8.145Z" transform="translate(358.852 -503.965)"/>
    <path id="패스_9008" data-name="패스 9008" class="cls-2" d="M8.82-5.97a4.457,4.457,0,0,1-3.18-4.08V-10.3H8.46V-11.55H1.215V-10.3H4.08v.27A4.682,4.682,0,0,1,.75-5.7l.795,1.215A5.531,5.531,0,0,0,4.89-7.665,5.361,5.361,0,0,0,8.055-4.77ZM2.85-2.385h7.59v3.54h1.545V-3.63H2.85Zm7.59-10.02V-9H8.07v1.275h2.37V-4.3h1.545v-8.1ZM22.275-11.1H19.05v-1.41H17.5v1.41H14.28v1.245h7.995ZM16.47-6.975c0-.765.72-1.23,1.8-1.23s1.815.465,1.815,1.23c0,.78-.735,1.245-1.815,1.245S16.47-6.195,16.47-6.975Zm5.085,0c0-1.425-1.32-2.385-3.285-2.385s-3.285.96-3.285,2.385c0,1.44,1.335,2.4,3.285,2.4S21.555-5.535,21.555-6.975ZM23.31-.24H17.715V-1.485H23.31Zm0-2.445H17.715V-3.93h-1.53V.99H24.84V-3.93H23.31Zm3.45-6.33H24.84V-12.39H23.3v7.9H24.84V-7.74h1.92ZM37.44-4.41h1.545v-8H37.44V-9.69H34.695v1.26H37.44ZM35.805-6.165a4.405,4.405,0,0,1-3.18-4.245v-1.26h-1.56v1.335A4.74,4.74,0,0,1,27.7-5.79l.81,1.245a5.6,5.6,0,0,0,3.375-3.27A5.258,5.258,0,0,0,34.98-4.95ZM34.47-.06c-1.92,0-3.015-.5-3.015-1.38S32.55-2.82,34.47-2.82s3.03.495,3.03,1.38S36.39-.06,34.47-.06Zm0-3.975c-2.82,0-4.56.96-4.56,2.595s1.74,2.6,4.56,2.6,4.575-.96,4.575-2.6S37.305-4.035,34.47-4.035ZM45.15-11.58v1.26h4.485c-.27,2.085-2.1,3.72-5.205,4.56l.63,1.23c3.915-1.11,6.24-3.54,6.24-7.05Zm3.1,8.64h5.79V-.255h-5.79ZM46.74.99h8.82V-4.17H46.74Zm7.275-13.4V-9.03H51.33v1.275h2.685v3.03H55.56v-7.68ZM64.74-1.71V-4.26h4.005V-5.49H60.93V-7.26h7.395V-8.475H60.93V-10.11h7.695v-1.26h-9.27v7.11H63.18v2.55H57.84V-.435H70.11V-1.71ZM70.755,2.7h1.2l4.17-14.67h-1.2Zm17.7-10.86c-2.67-.36-4.65-1.9-4.65-3.495v-.51h-1.59v.51c0,1.62-1.965,3.135-4.665,3.495l.57,1.2a6.777,6.777,0,0,0,4.89-2.805A6.774,6.774,0,0,0,87.885-6.96ZM82.98-.015C81-.015,79.89-.45,79.89-1.26,79.89-2.085,81-2.5,82.98-2.5s3.1.42,3.1,1.245C86.085-.45,84.96-.015,82.98-.015Zm0-3.675c-2.91,0-4.665.87-4.665,2.43S80.07,1.17,82.98,1.17s4.665-.885,4.665-2.43S85.9-3.69,82.98-3.69ZM76.875-6.03v1.245H89.13V-6.03Zm24.675-6.36H100v9.84h1.545ZM92.16-8.1a1.976,1.976,0,0,1,2.085-2.055A1.984,1.984,0,0,1,96.33-8.1a1.993,1.993,0,0,1-2.085,2.055A1.985,1.985,0,0,1,92.16-8.1Zm5.67,0a3.389,3.389,0,0,0-3.585-3.39,3.4,3.4,0,0,0-3.6,3.39,3.411,3.411,0,0,0,3.6,3.39A3.4,3.4,0,0,0,97.83-8.1ZM94.26-.36V-3.54H92.7V.9h9.24V-.36Z" transform="translate(367.612 -455.8)"/>
  </g>
  <g id="그룹-7" data-name="그룹" transform="translate(0 674.306)">
    <path id="패스_9014" data-name="패스 9014" class="cls-11" d="M7.7-9.386h-3v-1.287H4v1.287H1v.546H7.7Zm-5.33,2.9c0-.741.793-1.235,1.976-1.235s1.976.494,1.976,1.235S5.525-5.226,4.342-5.226,2.366-5.733,2.366-6.487ZM8.073-4.056c-1.066.156-2.236.26-3.38.312v-.975C6.071-4.81,6.955-5.46,6.955-6.487c0-1.092-1.04-1.755-2.613-1.755s-2.626.663-2.626,1.755c0,1.04.9,1.677,2.288,1.768V-3.7c-1.183.039-2.327.052-3.289.052l.1.6a44.857,44.857,0,0,0,7.306-.494ZM3.185-2.2H2.5V.624H9.984V.039h-6.8Zm6.37-4.264v-4.173H8.866V-1.6h.689V-5.876h1.833v-.585Zm11.6-1.287v1.833H17.823v.585h3.328v1.768h.689v-7.059h-.689v2.288H18.174a5.265,5.265,0,0,0,.182-1.378H13.195v.572h4.42c-.182,2.262-2.171,3.978-4.992,4.862l.312.572a7.613,7.613,0,0,0,5.031-4.043ZM18.135.3c-1.885,0-3.107-.624-3.107-1.6s1.222-1.573,3.107-1.573c1.859,0,3.094.611,3.094,1.573S19.994.3,18.135.3Zm0-3.731c-2.34,0-3.783.793-3.783,2.132C14.352.065,15.8.858,18.135.858c2.314,0,3.757-.793,3.757-2.158C21.892-2.639,20.449-3.432,18.135-3.432ZM37.193-4.758H35.347a19.573,19.573,0,0,0,.351-4.16v-.923H28.145v.585h6.877v.338a18.315,18.315,0,0,1-.377,4.16H26.754v.585h2.912V.9h.689v-5.07h3.237V.9h.689v-5.07h2.912Zm4.485-3.835h2.3v-.585H38.623v.585h2.392v1.339a6.228,6.228,0,0,1-2.652,5.239l.455.52a6.33,6.33,0,0,0,2.535-3.926,5.968,5.968,0,0,0,2.47,3.653l.442-.52a5.876,5.876,0,0,1-2.587-4.966Zm3.536,2.21H43.069v.6h2.145V.273h.663v-10.6h-.663Zm2.314-4.251V.91H48.2V-10.634ZM58.9-7.514v.585h2.6v3.172h.689v-6.877H61.5v3.12Zm.6,2.7a4.2,4.2,0,0,1-2.912-3.6v-.715h2.7v-.585H53.157v.585h2.756V-8.4a4.512,4.512,0,0,1-3,3.926l.351.559a5.218,5.218,0,0,0,3.016-3.159A4.935,4.935,0,0,0,59.15-4.264ZM58.461.325c-1.885,0-3.094-.585-3.094-1.547s1.209-1.547,3.094-1.547,3.107.585,3.107,1.547S60.346.325,58.461.325Zm0-3.653c-2.353,0-3.783.754-3.783,2.106S56.108.884,58.461.884,62.244.13,62.244-1.222,60.8-3.328,58.461-3.328Zm8.021-3.627h6.474v2.431H66.482Zm3.562,5.733V-3.939h3.588V-9.776h-.676V-7.54H66.482V-9.776h-.689v5.837h3.562v2.717H64.48v.585H74.971v-.585Z" transform="translate(381.142 -417.805)"/>
    <text id="_11" data-name=" " class="cls-12" transform="translate(458.362 -417.805)"><tspan x="0" y="0"> </tspan></text>
    <path id="패스_9015" data-name="패스 9015" class="cls-11" d="M7.748-9.165H4.615v-1.482H3.926v1.482H.793v.585H7.748ZM2.262-5.655c0-.923.806-1.56,2.015-1.56s2.015.637,2.015,1.56-.819,1.56-2.015,1.56S2.262-4.745,2.262-5.655ZM4.615-3.562c1.4-.117,2.327-.9,2.327-2.093,0-1.3-1.079-2.119-2.665-2.119s-2.652.819-2.652,2.119c0,1.2.91,1.976,2.3,2.093v1.443c-1.2.052-2.34.052-3.328.052l.13.6a45.261,45.261,0,0,0,7.345-.455l-.052-.533c-1.079.169-2.249.247-3.406.312ZM11.479-5.6h-2v-5.031H8.788V.9h.689v-5.9h2ZM19.318-9.3H16.25v-1.417h-.689V-9.3H12.48v.572h6.838Zm-5.5,3.38c0-.9.845-1.508,2.08-1.508s2.067.611,2.067,1.508S17.134-4.42,15.9-4.42,13.819-5.031,13.819-5.915Zm4.8,0c0-1.274-1.079-2.054-2.717-2.054s-2.73.78-2.73,2.054,1.092,2.054,2.73,2.054S18.616-4.654,18.616-5.915ZM13.949-2.132h6.7V.9h.689V-2.717H13.949Zm9.191-5.2H21.333v-3.315h-.689v7.215h.689v-3.3H23.14Zm12.012-.026H28.821V-9.672h6.331Zm.676-2.873h-7.67v3.445h7.67Zm1.365,5.213V-5.59H26.754v.572h4.875v1.365H28.067v.559h7.072v1.287H28.093V.741h8.1V.169H28.769V-1.274h7.046V-3.653h-3.5V-5.018ZM47.84-10.647h-.689v6.032h.689Zm-2.392,5.2c-1.625-.533-3.055-1.885-3.055-3.523v-.364h2.821v-.585H38.87v.585H41.7v.364a4.29,4.29,0,0,1-3.016,3.757l.338.546a5.039,5.039,0,0,0,3.042-3A4.9,4.9,0,0,0,45.11-4.914ZM41.236.169v-1.6h6.617V-3.991H40.521v.559h6.656v1.469H40.56v2.7h7.748V.169ZM58.9-7.514v.585h2.6v3.172h.689v-6.877H61.5v3.12Zm.6,2.7a4.2,4.2,0,0,1-2.912-3.6v-.715h2.7v-.585H53.157v.585h2.756V-8.4a4.512,4.512,0,0,1-3,3.926l.351.559a5.218,5.218,0,0,0,3.016-3.159A4.935,4.935,0,0,0,59.15-4.264ZM58.461.325c-1.885,0-3.094-.585-3.094-1.547s1.209-1.547,3.094-1.547,3.107.585,3.107,1.547S60.346.325,58.461.325Zm0-3.653c-2.353,0-3.783.754-3.783,2.106S56.108.884,58.461.884,62.244.13,62.244-1.222,60.8-3.328,58.461-3.328Zm8.021-3.627h6.474v2.431H66.482Zm3.562,5.733V-3.939h3.588V-9.776h-.676V-7.54H66.482V-9.776h-.689v5.837h3.562v2.717H64.48v.585H74.971v-.585Z" transform="translate(381.142 -397.811)"/>
    <text id="_12" data-name=" " class="cls-12" transform="translate(458.362 -397.811)"><tspan x="0" y="0"> </tspan></text>
    <path id="패스_9016" data-name="패스 9016" class="cls-11" d="M9.126-5.824H2.808V-7.839H9.126Zm.689-4.342H9.126v1.755H2.808v-1.755H2.119v4.927h7.7Zm1.391,6.487H.715v.585H5.59v4h.689v-4h4.927ZM19.24-6.825H16.029V-9.672H19.24Zm-3.887,0h-1.9v.572h8.359v-.572H19.929V-9.672H21.84v-.572h-8.4v.572h1.911ZM20.9.143H14.417V-2.21H20.9Zm1.963-4.511v-.585H12.428v.585h4.888v1.586H13.754V.728H21.58v-3.51H17.992V-4.368ZM23.53,2.3h.611l4.29-12.519h-.624ZM38.883-4.771c-1.664-.338-4.342-2-4.342-4.095v-.923h-.715v.923c0,2.106-2.652,3.757-4.316,4.095l.312.559a6.54,6.54,0,0,0,4.368-3.38,6.591,6.591,0,0,0,4.381,3.38Zm-4.355,3.51V-4.212h-.689v2.951H28.99v.585H39.468v-.585ZM43.94-8.58h2.34v-.585H40.846v.585H43.29v1.248a5.725,5.725,0,0,1-2.665,5.213l.455.533a5.647,5.647,0,0,0,2.561-3.8A5.319,5.319,0,0,0,46.1-1.976l.429-.546a5.272,5.272,0,0,1-2.587-4.81Zm5.837-2.054V-5.85H47.905v-4.5h-.663V.286h.663V-5.239h1.872V.91h.676V-10.634ZM64.792-6.656c-1.7-.26-4.2-1.547-4.2-3.172v-.624h-.7v.624c0,1.664-2.457,2.912-4.2,3.172l.26.559c1.638-.3,3.614-1.248,4.29-2.678.689,1.417,2.691,2.379,4.29,2.678ZM60.242.325C58.266.325,57-.221,57-1.144S58.266-2.6,60.242-2.6s3.237.546,3.237,1.456S62.218.325,60.242.325Zm0-3.484c-2.457,0-3.926.728-3.926,2.015,0,1.313,1.469,2.028,3.926,2.028s3.926-.715,3.926-2.028C64.168-2.431,62.7-3.159,60.242-3.159ZM55.016-4.992v.572H65.455v-.572Zm21.1-5.629h-.689v8.515h.689Zm-8.4,3.614a2.172,2.172,0,0,1,2.262-2.171,2.172,2.172,0,0,1,2.262,2.171,2.185,2.185,0,0,1-2.262,2.2A2.185,2.185,0,0,1,67.717-7.007Zm5.187,0a2.75,2.75,0,0,0-2.925-2.782,2.75,2.75,0,0,0-2.925,2.782A2.763,2.763,0,0,0,69.979-4.2,2.763,2.763,0,0,0,72.9-7.007ZM69.55.039V-3h-.689V.624H76.5V.039ZM87.165-7.514v.585h2.6v3.172h.689v-6.877h-.689v3.12Zm.6,2.7a4.2,4.2,0,0,1-2.912-3.6v-.715h2.7v-.585H81.419v.585h2.756V-8.4a4.512,4.512,0,0,1-3,3.926l.351.559a5.218,5.218,0,0,0,3.016-3.159,4.935,4.935,0,0,0,2.873,2.808ZM86.723.325c-1.885,0-3.094-.585-3.094-1.547s1.209-1.547,3.094-1.547,3.107.585,3.107,1.547S88.608.325,86.723.325Zm0-3.653c-2.353,0-3.783.754-3.783,2.106S84.37.884,86.723.884,90.506.13,90.506-1.222,89.063-3.328,86.723-3.328Zm8.021-3.627h6.474v2.431H94.744Zm3.562,5.733V-3.939h3.588V-9.776h-.676V-7.54H94.744V-9.776h-.689v5.837h3.562v2.717H92.742v.585h10.491v-.585Z" transform="translate(367.011 -377.817)"/>
  </g>
  <g id="그룹_8405" data-name="그룹 8405" transform="translate(267.368 275.106)">
    <path id="패스_9000" data-name="패스 9000" class="cls-18" d="M0,0-5.939-6.082,0-12.163"/>
  </g>
  <g id="그룹_8406" data-name="그룹 8406" transform="translate(571.501 275.107)">
    <path id="패스_9001" data-name="패스 9001" class="cls-18" d="M0,0,5.939-6.082,0-12.164"/>
  </g>
  <path id="패스_9002" data-name="패스 9002" class="cls-2" d="M24.945-40.523H813.7v-137.5H24.945Z" transform="translate(0 674.306)"/>
  <g id="그룹-8" data-name="그룹" transform="translate(0 674.306)">
    <path id="패스_9031" data-name="패스 9031" class="cls-19" d="M4.811-4.862a1.325,1.325,0,0,0,1.326-1.36A1.324,1.324,0,0,0,4.811-7.616,1.317,1.317,0,0,0,3.519-6.222,1.318,1.318,0,0,0,4.811-4.862ZM24.735-2.329h1.751V-14.042H24.735v3.961H22.389v1.428h2.346v1.836H22.389v1.411h2.346Zm-2.414-9.962H19.006v-1.785H17.255v1.785H13.8V-10.9h8.517ZM16.252-7.208a1.658,1.658,0,0,1,1.87-1.615,1.664,1.664,0,0,1,1.887,1.615c0,1-.765,1.6-1.887,1.6C17.017-5.61,16.252-6.2,16.252-7.208Zm5.406,0c0-1.785-1.445-2.975-3.536-2.975-2.074,0-3.519,1.19-3.519,2.975,0,1.768,1.445,2.975,3.519,2.975C20.213-4.233,21.658-5.44,21.658-7.208Zm-3.4,6.8V-3.315H16.49V1.02H26.843V-.408ZM33.745-10.914h2.567v-1.445H29.274v1.445h2.771v.85c0,3.043-.969,5.712-3.2,7L29.92-1.751a7.04,7.04,0,0,0,3.026-4.42,6.569,6.569,0,0,0,2.975,3.893l1.02-1.343c-2.227-1.156-3.2-3.672-3.2-6.443Zm6.834-3.145V-7.99H38.9v-5.78H37.247V.6H38.9v-7.14h1.683V1.309h1.666V-14.059ZM53.516.221a4.941,4.941,0,0,0,3.893-1.8L56.355-2.822A3.646,3.646,0,0,1,53.584-1.5c-2.21,0-3.6-1.819-3.6-4.794,0-2.941,1.5-4.743,3.655-4.743a3.328,3.328,0,0,1,2.448,1.122l1.071-1.258A4.822,4.822,0,0,0,53.6-12.75c-3.162,0-5.644,2.448-5.644,6.528C47.957-2.125,50.371.221,53.516.221Zm9.333,0c2.312,0,4.4-1.785,4.4-4.879,0-3.128-2.091-4.93-4.4-4.93s-4.4,1.8-4.4,4.93C58.446-1.564,60.537.221,62.849.221Zm0-1.6c-1.462,0-2.38-1.309-2.38-3.281,0-1.989.918-3.315,2.38-3.315,1.479,0,2.4,1.326,2.4,3.315C65.246-2.686,64.328-1.377,62.849-1.377ZM70.618,0h2.261l1.139-4.607c.238-.884.408-1.751.6-2.72H74.7c.2.969.374,1.819.6,2.7L76.483,0h2.346l2.414-9.35H79.407L78.2-4.284c-.2.9-.357,1.768-.544,2.652h-.068c-.221-.884-.408-1.751-.629-2.652L75.616-9.35H73.8L72.488-4.284c-.221.884-.408,1.768-.612,2.652h-.068c-.17-.884-.323-1.751-.51-2.652L70.057-9.35H68.085ZM84.864.221a4.648,4.648,0,0,0,2.975-1.292h.051L88.06,0h1.6V-5.627c0-2.482-1.071-3.961-3.4-3.961a7.162,7.162,0,0,0-3.774,1.224l.731,1.326a5.142,5.142,0,0,1,2.7-.952c1.377,0,1.768.952,1.785,2.04-3.893.425-5.593,1.462-5.593,3.468A2.583,2.583,0,0,0,84.864.221Zm.595-1.547C84.626-1.326,84-1.7,84-2.618c0-1.054.935-1.751,3.706-2.091v2.3A3.3,3.3,0,0,1,85.459-1.326ZM99.637-9.35h-1.9l-1.5,4.811L95.506-1.9h-.085c-.289-.867-.578-1.8-.85-2.635L92.837-9.35H90.831L94.537-.068,94.35.578c-.34,1-.935,1.751-1.955,1.751a2.533,2.533,0,0,1-.68-.136l-.374,1.53a3.325,3.325,0,0,0,1.173.187c1.972,0,2.958-1.343,3.689-3.349Zm4.2,5.746c-1.054,0-1.7-1.377-1.7-3.808s.646-3.791,1.7-3.791,1.7,1.36,1.7,3.791S104.89-3.6,103.836-3.6Zm4.913-4.624H107.1c-.187-2.873-1.428-4.624-3.264-4.624-1.989,0-3.3,2.074-3.3,5.44s1.309,5.457,3.3,5.457c1.87,0,3.128-1.836,3.281-4.828h1.632V.578h1.632V-13.753h-1.632Zm3.077-5.814V1.292h1.666V-14.042Zm9.418,1.241h-1.768v2.533c0,2.873-1.5,5.831-3.893,7l1.105,1.394a7.936,7.936,0,0,0,3.689-4.862,7.567,7.567,0,0,0,3.638,4.607l1.037-1.411c-2.346-1.088-3.808-3.876-3.808-6.732Zm5.423-1.275v5.049h-3.281V-7.6h3.281V1.326h1.768v-15.4Zm17.51,5.406h1.615v4.063h1.666v-9.418h-1.666V-10.1h-1.615v-3.655h-1.649V-5.1h1.649ZM142.171-7a4.467,4.467,0,0,1-2.992-4.165v-1.938h-1.7v1.938a5.136,5.136,0,0,1-3.094,4.607l.918,1.343a5.756,5.756,0,0,0,3.043-3.247,5.311,5.311,0,0,0,2.89,2.771Zm.17,6.97c-2.159,0-3.451-.527-3.451-1.462,0-.952,1.292-1.479,3.451-1.479s3.451.527,3.451,1.479C145.792-.561,144.5-.034,142.341-.034Zm0-4.284c-3.2,0-5.2,1.054-5.2,2.822,0,1.751,2.006,2.805,5.2,2.805s5.2-1.054,5.2-2.805C147.543-3.264,145.537-4.318,142.341-4.318Zm16.473-2.21a5.109,5.109,0,0,1-3.655-4.777v-1.8h-1.768v1.785a5.34,5.34,0,0,1-3.774,5.151l.952,1.36a6.189,6.189,0,0,0,3.74-3.638,6.187,6.187,0,0,0,3.621,3.315Zm-5,2.7h-1.751V1.02h10.3V-.408h-8.551Zm7.939-5.627v-4.607H160V-2.737h1.751v-5.27h2.176V-9.452Zm7.786,6.018A2.044,2.044,0,0,1,167.4-5.576a2.044,2.044,0,0,1,2.142-2.142,2.044,2.044,0,0,1,2.142,2.142A2.044,2.044,0,0,1,169.541-3.434Zm0-5.729a3.572,3.572,0,0,0-3.808,3.587,3.562,3.562,0,0,0,3.808,3.587,3.571,3.571,0,0,0,3.808-3.587A3.581,3.581,0,0,0,169.541-9.163Zm.85-4.658H168.64v2.142h-3.655v1.428h8.993v-1.428h-3.587Zm8.959,5.95h-2.363v-6.171h-1.768V1.326h1.768V-6.409h2.363ZM192.7-9.639h-8.789V-13.5h-1.751v5.287H192.7ZM183.8-3.553h-1.751V.969H192.78V-.442H183.8Zm-3.451-2.822v1.411h13.94V-6.375Zm23.46-4.556h2.533v-1.445H199.41v1.445h2.7v1.1c0,2.737-1.02,5.508-3.2,6.868l1.054,1.292a7.609,7.609,0,0,0,3.009-4.522,6.987,6.987,0,0,0,2.941,4.148l1.02-1.275c-2.142-1.241-3.128-3.893-3.128-6.511Zm3.672,2.278h-2.261v1.428h2.261V.561h1.649V-13.753h-1.649Zm3.094-5.406V1.292h1.666V-14.059Zm12.563,4.692h-3.536v-2.822h3.536Zm-5.287,0h-2.091v1.411h11.2V-9.367h-2.074v-2.822h2.159V-13.6H215.679v1.411h2.176Zm7.072,9.095h-7.089V-2.363h7.089Zm3.4-5.049V-6.732H214.438v1.411h6.069v1.564h-4.4V1.122h10.54V-3.757h-4.386V-5.321Zm8.364-6.834c2.244,0,3.655.629,3.655,1.7,0,1.088-1.411,1.717-3.655,1.717-2.261,0-3.672-.629-3.672-1.717C233.019-11.526,234.43-12.155,236.691-12.155Zm0,4.828c3.315,0,5.474-1.173,5.474-3.128,0-1.938-2.159-3.111-5.474-3.111s-5.474,1.173-5.474,3.111C231.217-8.5,233.376-7.327,236.691-7.327Zm-3.434,3.876h-1.768V1.02H242.08V-.408h-8.823Zm-3.519-2.635v1.428h13.889V-6.086ZM254.2.221a4.941,4.941,0,0,0,3.893-1.8L257.04-2.822A3.646,3.646,0,0,1,254.269-1.5c-2.21,0-3.6-1.819-3.6-4.794,0-2.941,1.5-4.743,3.655-4.743a3.328,3.328,0,0,1,2.448,1.122l1.071-1.258a4.822,4.822,0,0,0-3.553-1.581c-3.162,0-5.644,2.448-5.644,6.528C248.642-2.125,251.056.221,254.2.221Zm9.333,0c2.312,0,4.4-1.785,4.4-4.879,0-3.128-2.091-4.93-4.4-4.93s-4.4,1.8-4.4,4.93C259.131-1.564,261.222.221,263.534.221Zm0-1.6c-1.462,0-2.38-1.309-2.38-3.281,0-1.989.918-3.315,2.38-3.315,1.479,0,2.4,1.326,2.4,3.315C265.931-2.686,265.013-1.377,263.534-1.377ZM271.3,0h2.261L274.7-4.607c.238-.884.408-1.751.6-2.72h.085c.2.969.374,1.819.6,2.7L277.168,0h2.346l2.414-9.35h-1.836l-1.207,5.066c-.2.9-.357,1.768-.544,2.652h-.068c-.221-.884-.408-1.751-.629-2.652L276.3-9.35h-1.819l-1.309,5.066c-.221.884-.408,1.768-.612,2.652h-.068c-.17-.884-.323-1.751-.51-2.652L270.742-9.35H268.77Zm14.246.221a4.648,4.648,0,0,0,2.975-1.292h.051L288.745,0h1.6V-5.627c0-2.482-1.071-3.961-3.4-3.961a7.162,7.162,0,0,0-3.774,1.224l.731,1.326a5.142,5.142,0,0,1,2.7-.952c1.377,0,1.768.952,1.785,2.04-3.893.425-5.593,1.462-5.593,3.468A2.583,2.583,0,0,0,285.549.221Zm.6-1.547c-.833,0-1.462-.374-1.462-1.292,0-1.054.935-1.751,3.706-2.091v2.3A3.3,3.3,0,0,1,286.144-1.326ZM300.322-9.35h-1.9l-1.5,4.811L296.191-1.9h-.085c-.289-.867-.578-1.8-.85-2.635L293.522-9.35h-2.006l3.706,9.282-.187.646c-.34,1-.935,1.751-1.955,1.751a2.533,2.533,0,0,1-.68-.136l-.374,1.53a3.325,3.325,0,0,0,1.173.187c1.972,0,2.958-1.343,3.689-3.349Zm13.447-2.924H310.1v-1.734h-1.751v1.734H304.64v1.411h9.129ZM307.19-7.225c0-.952.833-1.53,2.04-1.53s2.023.578,2.023,1.53c0,.935-.816,1.513-2.023,1.513S307.19-6.29,307.19-7.225ZM310.1-4.437c1.7-.272,2.8-1.326,2.8-2.788,0-1.734-1.5-2.873-3.672-2.873-2.193,0-3.689,1.139-3.689,2.873,0,1.462,1.105,2.5,2.8,2.788v1.5c-1.428.051-2.8.051-3.978.051l.238,1.445a56.022,56.022,0,0,0,9.469-.612l-.136-1.292c-1.224.187-2.533.272-3.842.34Zm8.653-3.2h-2.193v-6.426h-1.751V1.309h1.751v-7.5h2.193Zm10.183-4.913h-3.655v-1.581h-1.751v1.581h-3.655v1.394h9.061Zm-6.579,4.862c0-.918.816-1.462,2.04-1.462s2.057.544,2.057,1.462c0,.9-.833,1.445-2.057,1.445S322.354-6.783,322.354-7.684Zm5.763,0c0-1.683-1.513-2.8-3.723-2.8s-3.723,1.122-3.723,2.8c0,1.666,1.513,2.788,3.723,2.788S328.117-6.018,328.117-7.684Zm-6.375,5.406h8.347V1.309h1.751v-5h-10.1Zm12.274-7.65H331.84v-4.114h-1.751v9.6h1.751V-8.483h2.176Zm11.509-.272H338.64v-2.006h6.885Zm1.717-3.366H336.906v4.743h10.336Zm1.8,7.208V-7.752H335.138v1.394h6.052v1.275h-4.4v1.326h8.789v1.088h-8.755V1.173h10.914V-.17h-9.18V-1.428h8.738V-5.083h-4.335V-6.358ZM363.1-14.042h-1.768V-6.12H363.1Zm-3.2,6.341c-2.329-.663-3.689-2.346-3.74-4.131h3.281v-1.411h-8.4v1.411h3.332a4.916,4.916,0,0,1-3.808,4.437l.833,1.377a6.163,6.163,0,0,0,3.893-3.4,5.946,5.946,0,0,0,3.825,3.06ZM354.79-.187v-1.36H363.1V-5.423H353.039V-4.1h8.33v1.292h-8.3V1.173h10.489V-.187Zm19.074-7.276A22.921,22.921,0,0,0,374.238-12v-.884H366.52v1.428h6a21.832,21.832,0,0,1-.374,3.808Zm1.275.765a43.1,43.1,0,0,1-4.76.408V-9.384h-1.734v3.145c-1.088.034-2.142.034-3.06.034l.187,1.428a57.5,57.5,0,0,0,9.486-.646Zm-5.474,3.162H367.9V1.02h10.438V-.408h-8.67Zm8.177-5.644v-4.862h-1.768V-2.516h1.768V-7.735h2.04V-9.18Zm5.848,2.193h5.355v-5.695h-7.157v1.428h5.389V-8.4h-5.355v6.086h1.309a42.275,42.275,0,0,0,7.633-.544l-.187-1.428a43.951,43.951,0,0,1-6.987.527Zm8.262-7.089V1.343h1.768V-14.076Zm8.636,1.649V-11h5.372c-.357,3.536-2.38,6.239-6.137,8.16l.969,1.343c5.015-2.533,6.919-6.477,6.919-10.931ZM414.052-7.99h-2.329v-6.069h-1.751V1.292h1.751v-7.82h2.329ZM426-14.059v15.4h1.768v-15.4Zm-6.409,1.139c-2.278,0-3.944,2.108-3.944,5.406,0,3.332,1.666,5.423,3.944,5.423,2.295,0,3.961-2.091,3.961-5.423C423.555-10.812,421.889-12.92,419.594-12.92Zm0,1.581c1.343,0,2.278,1.445,2.278,3.825,0,2.414-.935,3.859-2.278,3.859-1.326,0-2.261-1.445-2.261-3.859C417.333-9.894,418.268-11.339,419.594-11.339ZM442.782-6.8h-8.891v-4.471h8.772V-12.7H432.14v7.31h10.642ZM430.44-2.108V-.663h13.923V-2.108ZM448.086-6.97h5.253v-5.712h-7.021v1.428H451.6v2.873h-5.253v6.069h1.258a38.529,38.529,0,0,0,7.259-.527l-.187-1.428a36.461,36.461,0,0,1-6.6.51ZM460.02-8.075h-2.363v-6h-1.768v15.4h1.768V-6.613h2.363Zm13.668-5.967h-1.751V-2.89h1.751ZM463.046-9.18a2.24,2.24,0,0,1,2.363-2.329,2.249,2.249,0,0,1,2.363,2.329,2.259,2.259,0,0,1-2.363,2.329A2.249,2.249,0,0,1,463.046-9.18Zm6.426,0a3.841,3.841,0,0,0-4.063-3.842,3.855,3.855,0,0,0-4.08,3.842,3.865,3.865,0,0,0,4.08,3.842A3.851,3.851,0,0,0,469.472-9.18ZM465.426-.408v-3.6h-1.768V1.02H474.13V-.408Zm14.365-3.2c-1.054,0-1.7-1.377-1.7-3.808s.646-3.791,1.7-3.791,1.7,1.36,1.7,3.791S480.845-3.6,479.791-3.6ZM484.7-8.228h-1.649c-.187-2.873-1.428-4.624-3.264-4.624-1.989,0-3.3,2.074-3.3,5.44s1.309,5.457,3.3,5.457c1.87,0,3.128-1.836,3.281-4.828H484.7V.578h1.632V-13.753H484.7Zm3.077-5.814V1.292h1.666V-14.042Zm12.291,1.071c-2.4,0-4.165,1.513-4.165,3.689s1.768,3.689,4.165,3.689,4.182-1.513,4.182-3.689S502.469-12.971,500.072-12.971Zm0,1.5a2.222,2.222,0,0,1,2.465,2.193,2.232,2.232,0,0,1-2.465,2.193,2.226,2.226,0,0,1-2.448-2.193A2.217,2.217,0,0,1,500.072-11.475Zm5.916-2.584V1.326h1.768V-14.059ZM495.414-1.921a53.437,53.437,0,0,0,9.775-.68l-.119-1.275a70.182,70.182,0,0,1-9.877.51Zm18.751-1.666c-1.037,0-1.768-.833-1.768-2.108s.731-2.125,1.768-2.125,1.768.85,1.768,2.125S515.2-3.587,514.165-3.587Zm0-5.678a3.308,3.308,0,0,0-3.332,3.57,3.317,3.317,0,0,0,3.332,3.57A3.317,3.317,0,0,0,517.5-5.7,3.308,3.308,0,0,0,514.165-9.265Zm.867-4.335H513.3v2.057h-2.907v1.411h7.514v-1.411h-2.873Zm6.8-.442v6.358H520.2v-6.035h-1.632V.6H520.2V-6.239h1.632V1.309H523.5V-14.042Zm9.452,1.241h-1.768v2.533c0,2.873-1.5,5.831-3.893,7l1.1,1.394a7.936,7.936,0,0,0,3.689-4.862,7.567,7.567,0,0,0,3.638,4.607l1.037-1.411c-2.346-1.088-3.808-3.876-3.808-6.732Zm5.423-1.275v5.049h-3.281V-7.6h3.281V1.326h1.768v-15.4Z" transform="translate(147.67 -136.184)"/>
    <text id="_13" data-name=" " class="cls-20" transform="translate(690.973 -136.184)"><tspan x="0" y="0"> </tspan></text>
    <text id="_14" data-name=" " class="cls-21" transform="translate(695.053 -136.184)"><tspan x="0" y="0"> </tspan></text>
    <path id="패스_9025" data-name="패스 9025" class="cls-19" d="M10.081-12.274H6.409v-1.734H4.658v1.734H.952v1.411h9.129ZM3.5-7.225c0-.952.833-1.53,2.04-1.53s2.023.578,2.023,1.53c0,.935-.816,1.513-2.023,1.513S3.5-6.29,3.5-7.225ZM6.409-4.437c1.7-.272,2.8-1.326,2.8-2.788,0-1.734-1.5-2.873-3.672-2.873-2.193,0-3.689,1.139-3.689,2.873,0,1.462,1.105,2.5,2.805,2.788v1.5C3.23-2.89,1.853-2.89.68-2.89L.918-1.445a56.022,56.022,0,0,0,9.469-.612l-.136-1.292c-1.224.187-2.533.272-3.842.34Zm8.653-3.2H12.869v-6.426H11.118V1.309h1.751v-7.5h2.193Zm10.183-4.913H21.59v-1.581H19.839v1.581H16.184v1.394h9.061ZM18.666-7.684c0-.918.816-1.462,2.04-1.462s2.057.544,2.057,1.462c0,.9-.833,1.445-2.057,1.445S18.666-6.783,18.666-7.684Zm5.763,0c0-1.683-1.513-2.8-3.723-2.8s-3.723,1.122-3.723,2.8c0,1.666,1.513,2.788,3.723,2.788S24.429-6.018,24.429-7.684ZM18.054-2.278H26.4V1.309h1.751v-5h-10.1Zm12.274-7.65H28.152v-4.114H26.4v9.6h1.751V-8.483h2.176ZM41.837-10.2H34.952v-2.006h6.885Zm1.717-3.366H33.218v4.743H43.554Zm1.8,7.208V-7.752H31.45v1.394H37.5v1.275H33.1v1.326h8.789v1.088H33.133V1.173H44.047V-.17h-9.18V-1.428H43.6V-5.083H39.27V-6.358Zm14.059-7.684H57.647V-6.12h1.768ZM56.219-7.7c-2.329-.663-3.689-2.346-3.74-4.131H55.76v-1.411h-8.4v1.411h3.332a4.916,4.916,0,0,1-3.808,4.437l.833,1.377a6.163,6.163,0,0,0,3.893-3.4,5.946,5.946,0,0,0,3.825,3.06ZM51.1-.187v-1.36h8.313V-5.423H49.351V-4.1h8.33v1.292h-8.3V1.173H59.874V-.187ZM73.661-7.463A22.92,22.92,0,0,0,74.035-12v-.884H66.317v1.428h6a21.833,21.833,0,0,1-.374,3.808Zm1.275.765a43.1,43.1,0,0,1-4.76.408V-9.384H68.442v3.145c-1.088.034-2.142.034-3.06.034l.187,1.428a57.5,57.5,0,0,0,9.486-.646ZM69.462-3.536H67.694V1.02H78.132V-.408h-8.67ZM77.639-9.18v-4.862H75.871V-2.516h1.768V-7.735h2.04V-9.18Zm5.848,2.193h5.355v-5.695H81.685v1.428h5.389V-8.4H81.719v6.086h1.309a42.275,42.275,0,0,0,7.633-.544l-.187-1.428a43.951,43.951,0,0,1-6.987.527Zm8.262-7.089V1.343h1.768V-14.076Zm8.755,1.649V-11h5.474c-.306,3.536-2.21,6.239-6.239,8.177l.935,1.394c5.27-2.55,7.106-6.426,7.106-11Zm10.047-1.615V1.309H112.3V-14.042Zm5.78,6.851c2.652-.34,4.709-1.564,5.525-3.264.833,1.7,2.907,2.924,5.576,3.264l.646-1.394c-2.873-.34-4.9-1.768-5.032-3.332h4.505v-1.411H116.212v1.411h4.471c-.136,1.564-2.125,2.992-5.015,3.332Zm2.04,3.825H116.62V1.02H127.3V-.408h-8.925Zm-3.451-2.89v1.411h6.222v2.89h1.751v-2.89h5.95V-6.256Zm31.45-7.8H144.6v8.772h1.768Zm-6.29,5.95h-3.859V-11.7h3.859Zm1.7-4.981H134.5v6.375h7.276Zm4.879,10.1V-4.335h-4.4V-5.712h-1.785v1.377h-4.4v1.343h4.4c-.136,1.309-2.125,2.652-5,2.941l.578,1.326c2.448-.289,4.386-1.258,5.321-2.6a7.446,7.446,0,0,0,5.27,2.6l.578-1.326c-2.839-.306-4.811-1.683-4.947-2.941ZM166.4-6.477H164.1a28.992,28.992,0,0,0,.442-5.576v-1.071H154.207V-11.7h8.6a25.434,25.434,0,0,1-.476,5.219h-9.826v1.445h3.383V1.326h1.734V-5.032h3.536V1.326h1.751V-5.032H166.4Zm6.069-4.454H175v-1.445h-6.936v1.445h2.7v1.1c0,2.737-1.02,5.508-3.2,6.868l1.054,1.292a7.609,7.609,0,0,0,3.009-4.522,6.987,6.987,0,0,0,2.941,4.148l1.02-1.275c-2.142-1.241-3.128-3.893-3.128-6.511Zm3.672,2.278h-2.261v1.428h2.261V.561h1.649V-13.753h-1.649Zm3.094-5.406V1.292H180.9V-14.059Zm8.755,6.868c2.652-.34,4.709-1.564,5.525-3.264.833,1.7,2.907,2.924,5.576,3.264l.646-1.394c-2.873-.34-4.9-1.768-5.032-3.332h4.505v-1.411H187.867v1.411h4.471c-.136,1.564-2.125,2.992-5.015,3.332Zm2.04,3.825h-1.751V1.02h10.676V-.408h-8.925Zm-3.451-2.89v1.411H192.8v2.89h1.751v-2.89h5.95V-6.256Zm28.594-2.125c-3.094-.442-5.406-2.363-5.406-4.352v-.816H207.91v.816c0,2.023-2.278,3.91-5.406,4.352l.68,1.411a7.719,7.719,0,0,0,5.661-3.468,7.768,7.768,0,0,0,5.644,3.468Zm.6,2.856H201.892V-4.1h6.018V1.326h1.751V-4.1h6.1Zm11.849-5.9H218.96v3.451h10.659V-9.2h-8.942v-1.088h8.67v-3.383H218.926v1.207h8.687ZM220.558-1.241h8.84V-4.675H218.79v1.207h8.874V-2.38h-8.84V1.139h11.033V-.068h-9.3ZM217.175-7v1.292H231.1V-7Zm29.665-7.055v15.4h1.768v-15.4Zm-6.409,1.139c-2.278,0-3.944,2.108-3.944,5.406,0,3.332,1.666,5.423,3.944,5.423,2.295,0,3.961-2.091,3.961-5.423C244.392-10.812,242.726-12.92,240.431-12.92Zm0,1.581c1.343,0,2.278,1.445,2.278,3.825,0,2.414-.935,3.859-2.278,3.859-1.326,0-2.261-1.445-2.261-3.859C238.17-9.894,239.1-11.339,240.431-11.339ZM261-8.6h1.6v4.233h1.666v-9.69H262.6v4.012H261V-13.77h-1.632v8.891H261Zm-2.159-3.723h-2.958v-1.581h-1.717v1.581h-2.975v1.377h7.65Zm-5.525,4.692c0-.833.68-1.377,1.717-1.377,1.02,0,1.734.544,1.734,1.377s-.714,1.377-1.734,1.377C254-6.256,253.317-6.8,253.317-7.633Zm5.015,0c0-1.581-1.36-2.652-3.3-2.652-1.921,0-3.281,1.071-3.281,2.652,0,1.6,1.36,2.652,3.281,2.652C256.972-4.981,258.332-6.035,258.332-7.633Zm.833,7.616c-2.193,0-3.451-.493-3.451-1.411s1.258-1.394,3.451-1.394c2.21,0,3.434.476,3.434,1.394S261.375-.017,259.165-.017Zm0-4.131c-3.247,0-5.2.986-5.2,2.72s1.955,2.737,5.2,2.737,5.185-1,5.185-2.737S262.412-4.148,259.165-4.148Zm11.883.714a2.044,2.044,0,0,1-2.142-2.142,2.044,2.044,0,0,1,2.142-2.142,2.044,2.044,0,0,1,2.142,2.142A2.044,2.044,0,0,1,271.048-3.434Zm0-5.729a3.572,3.572,0,0,0-3.808,3.587,3.562,3.562,0,0,0,3.808,3.587,3.571,3.571,0,0,0,3.808-3.587A3.581,3.581,0,0,0,271.048-9.163Zm.85-4.658h-1.751v2.142h-3.655v1.428h8.993v-1.428H271.9Zm8.959,5.95h-2.363v-6.171h-1.768V1.326h1.768V-6.409h2.363Zm11.628-3.23a33.044,33.044,0,0,1-.6,7.021l1.768.187a35.15,35.15,0,0,0,.6-7.208v-1.513H283.322v1.428h9.163Zm-3.672,8.959V-7.548h-1.768v5.406h-5.168V-.7h13.872V-2.142Zm21.012-11.883h-1.751V-5.3h1.751Zm-8.279,2.278a2.178,2.178,0,0,1,2.363,2.176,2.168,2.168,0,0,1-2.363,2.176,2.168,2.168,0,0,1-2.363-2.176A2.178,2.178,0,0,1,301.546-11.747Zm0,5.8c2.346,0,4.063-1.479,4.063-3.621s-1.717-3.621-4.063-3.621-4.08,1.479-4.08,3.621S299.2-5.95,301.546-5.95Zm6.647,1.309h-1.717v.68A4.425,4.425,0,0,1,304.47-.442a4.124,4.124,0,0,1-1.938-3.519v-.68h-1.7v.68a4.147,4.147,0,0,1-2.975,3.774l.85,1.292a5.182,5.182,0,0,0,2.975-2.72A4.817,4.817,0,0,0,304.5,1.241a5.183,5.183,0,0,0,2.8-2.89,4.955,4.955,0,0,0,3.009,2.754l.867-1.292a3.977,3.977,0,0,1-2.992-3.774Zm17.425-4.811c-3.043-.391-5.3-2.074-5.3-3.842v-.6h-1.8v.6c0,1.785-2.227,3.451-5.3,3.842l.646,1.36a7.65,7.65,0,0,0,5.559-3.094,7.721,7.721,0,0,0,5.576,3.094ZM322.83-.272h-6.919V-1.921h6.919Zm0-2.992h-6.919V-4.828h-1.734v5.95h10.4v-5.95H322.83Zm-10.37-3.91V-5.78h13.906V-7.174Zm17.952-5.372h-1.734v9.979h1.309a36.668,36.668,0,0,0,7.5-.731L337.3-4.76a35.555,35.555,0,0,1-6.885.7Zm8.3-1.5V1.309h1.751V-14.042Zm6.732,2.873h5.389V-12.6h-7.14V-2.448h1.258a37.888,37.888,0,0,0,7.174-.51L351.934-4.4a37.063,37.063,0,0,1-6.494.493Zm11.917,3.026h-2.4v-5.916h-1.751V1.326h1.751V-6.7h2.4ZM360.043.221a1.3,1.3,0,0,0,1.309-1.36,1.33,1.33,0,0,0-1.309-1.394,1.33,1.33,0,0,0-1.309,1.394A1.3,1.3,0,0,0,360.043.221Z" transform="translate(235.22 -114.679)"/>
    <path id="패스_9026" data-name="패스 9026" class="cls-19" d="M4.811-4.862a1.325,1.325,0,0,0,1.326-1.36A1.324,1.324,0,0,0,4.811-7.616,1.317,1.317,0,0,0,3.519-6.222,1.318,1.318,0,0,0,4.811-4.862ZM14.943-8.585l.238,1.479L24.242-7.6a27.48,27.48,0,0,1-.527,3.4l1.734.2a31.367,31.367,0,0,0,.663-7.242v-1.411H15.385v1.411h8.993c0,.7,0,1.462-.034,2.3Zm5.763,6.528V-5.916H18.938v3.859H13.753V-.612H27.642V-2.057Zm12.206-9.758A1.6,1.6,0,0,1,34.7-10.251a1.6,1.6,0,0,1-1.785,1.564,1.608,1.608,0,0,1-1.8-1.564A1.608,1.608,0,0,1,32.912-11.815Zm0,4.437c1.938,0,3.349-1.173,3.349-2.873s-1.411-2.873-3.349-2.873c-1.955,0-3.366,1.173-3.366,2.873S30.957-7.378,32.912-7.378Zm3.808.629a61.062,61.062,0,0,1-7.871.374l.2,1.462c.833,0,1.87-.017,2.975-.051V.085h1.666V-5.066a30.856,30.856,0,0,0,3.162-.408ZM37.6-4.063H34.935V-2.72H37.6V.561h1.632v-14.3H37.6Zm2.975-10V1.309h1.666V-14.059Zm14.654,0v15.4H57v-15.4ZM48.824-12.92c-2.278,0-3.944,2.108-3.944,5.406,0,3.332,1.666,5.423,3.944,5.423,2.3,0,3.961-2.091,3.961-5.423C52.785-10.812,51.119-12.92,48.824-12.92Zm0,1.581c1.343,0,2.278,1.445,2.278,3.825,0,2.414-.935,3.859-2.278,3.859-1.326,0-2.261-1.445-2.261-3.859C46.563-9.894,47.5-11.339,48.824-11.339Zm23.545-.935H68.7v-1.734H66.946v1.734H63.24v1.411h9.129ZM65.79-7.225c0-.952.833-1.53,2.04-1.53s2.023.578,2.023,1.53c0,.935-.816,1.513-2.023,1.513S65.79-6.29,65.79-7.225ZM68.7-4.437C70.4-4.709,71.5-5.763,71.5-7.225c0-1.734-1.5-2.873-3.672-2.873-2.193,0-3.689,1.139-3.689,2.873,0,1.462,1.1,2.5,2.805,2.788v1.5c-1.428.051-2.805.051-3.978.051l.238,1.445a56.022,56.022,0,0,0,9.469-.612l-.136-1.292c-1.224.187-2.533.272-3.842.34Zm8.653-3.2H75.157v-6.426H73.406V1.309h1.751v-7.5H77.35Zm10.183-4.913H83.878v-1.581H82.127v1.581H78.472v1.394h9.061ZM80.954-7.684c0-.918.816-1.462,2.04-1.462s2.057.544,2.057,1.462c0,.9-.833,1.445-2.057,1.445S80.954-6.783,80.954-7.684Zm5.763,0c0-1.683-1.513-2.8-3.723-2.8s-3.723,1.122-3.723,2.8c0,1.666,1.513,2.788,3.723,2.788S86.717-6.018,86.717-7.684ZM80.342-2.278h8.347V1.309H90.44v-5h-10.1Zm12.274-7.65H90.44v-4.114H88.689v9.6H90.44V-8.483h2.176Zm11.509-.272H97.24v-2.006h6.885Zm1.717-3.366H95.506v4.743h10.336Zm1.8,7.208V-7.752H93.738v1.394H99.79v1.275h-4.4v1.326h8.789v1.088H95.421V1.173h10.914V-.17h-9.18V-1.428h8.738V-5.083h-4.335V-6.358ZM121.7-14.042h-1.768V-6.12H121.7Zm-3.2,6.341c-2.329-.663-3.689-2.346-3.74-4.131h3.281v-1.411h-8.4v1.411h3.332a4.916,4.916,0,0,1-3.808,4.437l.833,1.377a6.163,6.163,0,0,0,3.893-3.4,5.946,5.946,0,0,0,3.825,3.06ZM113.39-.187v-1.36H121.7V-5.423H111.639V-4.1h8.33v1.292h-8.3V1.173h10.489V-.187Zm19.074-7.276A22.921,22.921,0,0,0,132.838-12v-.884H125.12v1.428h6a21.832,21.832,0,0,1-.374,3.808Zm1.275.765a43.1,43.1,0,0,1-4.76.408V-9.384h-1.734v3.145c-1.088.034-2.142.034-3.06.034l.187,1.428a57.5,57.5,0,0,0,9.486-.646Zm-5.474,3.162H126.5V1.02h10.438V-.408h-8.67Zm8.177-5.644v-4.862h-1.768V-2.516h1.768V-7.735h2.04V-9.18Zm5.848,2.193h5.355v-5.695h-7.157v1.428h5.389V-8.4h-5.355v6.086h1.309a42.275,42.275,0,0,0,7.633-.544l-.187-1.428a43.951,43.951,0,0,1-6.987.527Zm8.262-7.089V1.343h1.768V-14.076Zm8.636,1.649V-11h5.372c-.357,3.536-2.38,6.239-6.137,8.16l.969,1.343c5.015-2.533,6.919-6.477,6.919-10.931ZM172.652-7.99h-2.329v-6.069h-1.751V1.292h1.751v-7.82h2.329ZM184.6-14.059v15.4h1.768v-15.4Zm-6.409,1.139c-2.278,0-3.944,2.108-3.944,5.406,0,3.332,1.666,5.423,3.944,5.423,2.295,0,3.961-2.091,3.961-5.423C182.155-10.812,180.489-12.92,178.194-12.92Zm0,1.581c1.343,0,2.278,1.445,2.278,3.825,0,2.414-.935,3.859-2.278,3.859-1.326,0-2.261-1.445-2.261-3.859C175.933-9.894,176.868-11.339,178.194-11.339ZM201.382-6.8h-8.891v-4.471h8.772V-12.7H190.74v7.31h10.642ZM189.04-2.108V-.663h13.923V-2.108ZM206.686-6.97h5.253v-5.712h-7.021v1.428h5.287v2.873h-5.253v6.069h1.258a38.528,38.528,0,0,0,7.259-.527l-.187-1.428a36.461,36.461,0,0,1-6.6.51ZM218.62-8.075h-2.363v-6h-1.768v15.4h1.768V-6.613h2.363Zm13.668-5.967h-1.751V-2.89h1.751ZM221.646-9.18a2.24,2.24,0,0,1,2.363-2.329,2.249,2.249,0,0,1,2.363,2.329,2.259,2.259,0,0,1-2.363,2.329A2.249,2.249,0,0,1,221.646-9.18Zm6.426,0a3.841,3.841,0,0,0-4.063-3.842,3.855,3.855,0,0,0-4.08,3.842,3.865,3.865,0,0,0,4.08,3.842A3.851,3.851,0,0,0,228.072-9.18ZM224.026-.408v-3.6h-1.768V1.02H232.73V-.408Zm14.365-3.2c-1.054,0-1.7-1.377-1.7-3.808s.646-3.791,1.7-3.791,1.7,1.36,1.7,3.791S239.445-3.6,238.391-3.6ZM243.3-8.228h-1.649c-.187-2.873-1.428-4.624-3.264-4.624-1.989,0-3.3,2.074-3.3,5.44s1.309,5.457,3.3,5.457c1.87,0,3.128-1.836,3.281-4.828H243.3V.578h1.632V-13.753H243.3Zm3.077-5.814V1.292h1.666V-14.042ZM255.8-12.8h-1.768v2.533c0,2.873-1.5,5.831-3.893,7l1.1,1.394a7.936,7.936,0,0,0,3.689-4.862,7.567,7.567,0,0,0,3.638,4.607l1.037-1.411c-2.346-1.088-3.808-3.876-3.808-6.732Zm5.423-1.275v5.049h-3.281V-7.6h3.281V1.326h1.768v-15.4Zm21.692,7.6h-2.3a28.993,28.993,0,0,0,.442-5.576v-1.071H270.725V-11.7h8.6a25.433,25.433,0,0,1-.476,5.219h-9.826v1.445h3.383V1.326h1.734V-5.032h3.536V1.326h1.751V-5.032h3.485Zm6.069-4.454h2.533v-1.445H284.58v1.445h2.7v1.1c0,2.737-1.02,5.508-3.2,6.868l1.054,1.292a7.609,7.609,0,0,0,3.009-4.522,6.987,6.987,0,0,0,2.941,4.148l1.02-1.275c-2.142-1.241-3.128-3.893-3.128-6.511Zm3.672,2.278h-2.261v1.428h2.261V.561H294.3V-13.753h-1.649Zm3.094-5.406V1.292h1.666V-14.059ZM304.1-3.434a2.043,2.043,0,0,1-2.142-2.142A2.043,2.043,0,0,1,304.1-7.718a2.044,2.044,0,0,1,2.142,2.142A2.044,2.044,0,0,1,304.1-3.434Zm0-5.729a3.572,3.572,0,0,0-3.808,3.587A3.562,3.562,0,0,0,304.1-1.989,3.571,3.571,0,0,0,307.9-5.576,3.581,3.581,0,0,0,304.1-9.163Zm.85-4.658H303.2v2.142H299.54v1.428h8.993v-1.428h-3.587Zm8.959,5.95h-2.363v-6.171h-1.768V1.326h1.768V-6.409H313.9ZM327.25-9.639h-8.789V-13.5H316.71v5.287h10.54Zm-8.891,6.086h-1.751V.969h10.727V-.442h-8.976Zm-3.451-2.822v1.411h13.94V-6.375ZM344.08-10.2h-6.885v-2.006h6.885Zm1.717-3.366H335.461v4.743H345.8Zm1.8,7.208V-7.752H333.693v1.394h6.052v1.275h-4.4v1.326h8.789v1.088h-8.755V1.173H346.29V-.17h-9.18V-1.428h8.738V-5.083h-4.335V-6.358Zm14.059-7.684H359.89V-6.12h1.768Zm-3.2,6.341c-2.329-.663-3.689-2.346-3.74-4.131H358v-1.411h-8.4v1.411h3.332a4.916,4.916,0,0,1-3.808,4.437l.833,1.377a6.163,6.163,0,0,0,3.893-3.4,5.946,5.946,0,0,0,3.825,3.06ZM353.345-.187v-1.36h8.313V-5.423H351.594V-4.1h8.33v1.292h-8.3V1.173h10.489V-.187Zm17.9-11.968c2.244,0,3.655.629,3.655,1.7,0,1.088-1.411,1.717-3.655,1.717-2.261,0-3.672-.629-3.672-1.717C367.574-11.526,368.985-12.155,371.246-12.155Zm0,4.828c3.315,0,5.474-1.173,5.474-3.128,0-1.938-2.159-3.111-5.474-3.111s-5.474,1.173-5.474,3.111C365.772-8.5,367.931-7.327,371.246-7.327Zm-3.434,3.876h-1.768V1.02h10.591V-.408h-8.823Zm-3.519-2.635v1.428h13.889V-6.086ZM388.756.221a4.941,4.941,0,0,0,3.893-1.8L391.6-2.822A3.646,3.646,0,0,1,388.824-1.5c-2.21,0-3.6-1.819-3.6-4.794,0-2.941,1.5-4.743,3.655-4.743a3.328,3.328,0,0,1,2.448,1.122l1.071-1.258a4.822,4.822,0,0,0-3.553-1.581c-3.162,0-5.644,2.448-5.644,6.528C383.2-2.125,385.611.221,388.756.221Zm7.531,0a3.14,3.14,0,0,0,1.054-.153l-.255-1.479a1.358,1.358,0,0,1-.323.034c-.238,0-.476-.187-.476-.714V-13.549h-1.938V-2.193C394.349-.68,394.876.221,396.287.221Zm5,0a4.648,4.648,0,0,0,2.975-1.292h.051L404.481,0h1.6V-5.627c0-2.482-1.071-3.961-3.4-3.961A7.162,7.162,0,0,0,398.9-8.364l.731,1.326a5.142,5.142,0,0,1,2.7-.952c1.377,0,1.768.952,1.785,2.04-3.893.425-5.593,1.462-5.593,3.468A2.583,2.583,0,0,0,401.285.221Zm.6-1.547c-.833,0-1.462-.374-1.462-1.292,0-1.054.935-1.751,3.706-2.091v2.3A3.3,3.3,0,0,1,401.88-1.326ZM411.043.221c2.312,0,3.553-1.275,3.553-2.839,0-1.768-1.445-2.346-2.754-2.839-1.02-.374-1.989-.68-1.989-1.479,0-.646.476-1.156,1.5-1.156a3.5,3.5,0,0,1,2.091.816l.918-1.207a4.922,4.922,0,0,0-3.043-1.105c-2.057,0-3.315,1.173-3.315,2.737,0,1.581,1.428,2.244,2.669,2.72,1.02.391,2.074.765,2.074,1.615,0,.714-.527,1.258-1.649,1.258a4.144,4.144,0,0,1-2.652-1.071l-.918,1.258A5.751,5.751,0,0,0,411.043.221Zm7.82,0c2.312,0,3.553-1.275,3.553-2.839,0-1.768-1.445-2.346-2.754-2.839-1.02-.374-1.989-.68-1.989-1.479,0-.646.476-1.156,1.5-1.156a3.5,3.5,0,0,1,2.091.816l.918-1.207a4.922,4.922,0,0,0-3.043-1.105c-2.057,0-3.315,1.173-3.315,2.737,0,1.581,1.428,2.244,2.669,2.72,1.02.391,2.074.765,2.074,1.615,0,.714-.527,1.258-1.649,1.258a4.144,4.144,0,0,1-2.652-1.071l-.918,1.258A5.751,5.751,0,0,0,418.863.221ZM427.8,0h1.972V-12.512H427.8Zm10.778,3.383,1.224-.544a15.873,15.873,0,0,1-2.142-8.16,15.96,15.96,0,0,1,2.142-8.16l-1.224-.527a16.02,16.02,0,0,0-2.516,8.687A16.035,16.035,0,0,0,438.583,3.383Zm7.905-16.15h-1.751v2.516a7.77,7.77,0,0,1-3.893,6.919l1.071,1.411a7.933,7.933,0,0,0,3.706-4.811,7.646,7.646,0,0,0,3.536,4.522L450.228-3.6a7.449,7.449,0,0,1-3.74-6.647ZM455.4-7.956H453v-6.086h-1.751V1.309H453v-7.82h2.4Zm7.922,7.922c-2.244,0-3.5-.476-3.5-1.411,0-.918,1.258-1.411,3.5-1.411s3.519.493,3.519,1.411C466.837-.51,465.562-.034,463.318-.034Zm0-4.165c-3.3,0-5.287,1-5.287,2.754,0,1.768,1.989,2.754,5.287,2.754,3.315,0,5.287-.986,5.287-2.754C468.605-3.2,466.633-4.2,463.318-4.2Zm-1.87-3.944a13.015,13.015,0,0,0,1.9.136,12.537,12.537,0,0,0,1.87-.136v1.564h-3.774Zm1.9-4.284c2.278,0,3.655.544,3.655,1.53S465.63-9.35,463.352-9.35c-2.3,0-3.672-.561-3.672-1.547S461.057-12.427,463.352-12.427Zm3.621,5.848V-8.6a2.586,2.586,0,0,0,1.853-2.3c0-1.8-2.125-2.89-5.474-2.89-3.366,0-5.474,1.088-5.474,2.89A2.535,2.535,0,0,0,459.7-8.619v2.04h-3.3v1.394h13.889V-6.579Zm8.143,3.553h7.055V-.272h-7.055ZM473.4,1.122h10.489V-4.42H473.4ZM483.5-7.7a19.329,19.329,0,0,0,.391-4.4v-1.19H473.467v1.428h8.7a17.459,17.459,0,0,1-.425,4.165h-10.03v1.428h13.906V-7.7Zm9.18-3.366h3.417v-1.445h-8.6v1.445h3.417V-9.6a7.507,7.507,0,0,1-3.961,6.6l1,1.394a7.918,7.918,0,0,0,3.859-4.828,7.524,7.524,0,0,0,3.876,4.437l.969-1.377A6.926,6.926,0,0,1,492.677-9.6Zm5.2-2.975V1.309h1.768V-14.042ZM516.171-10.2h-6.885v-2.006h6.885Zm1.717-3.366H507.552v4.743h10.336Zm1.8,7.208V-7.752H505.784v1.394h6.052v1.275h-4.4v1.326h8.789v1.088h-8.755V1.173h10.914V-.17H509.2V-1.428h8.738V-5.083H513.6V-6.358Zm14.059-7.684h-1.768V-6.12h1.768Zm-3.2,6.341c-2.329-.663-3.689-2.346-3.74-4.131h3.281v-1.411h-8.4v1.411h3.332a4.916,4.916,0,0,1-3.808,4.437l.833,1.377a6.163,6.163,0,0,0,3.893-3.4,5.946,5.946,0,0,0,3.825,3.06ZM525.436-.187v-1.36h8.313V-5.423H523.685V-4.1h8.33v1.292h-8.3V1.173h10.489V-.187Zm12.1,3.57a15.9,15.9,0,0,0,2.533-8.7,15.888,15.888,0,0,0-2.533-8.687l-1.224.527a15.96,15.96,0,0,1,2.142,8.16,15.873,15.873,0,0,1-2.142,8.16Zm5.032.017A3.986,3.986,0,0,0,545.36-.425c0-1.309-.561-2.108-1.513-2.108a1.27,1.27,0,0,0-1.36,1.258A1.226,1.226,0,0,0,543.8-.017a.7.7,0,0,0,.187-.017A2.639,2.639,0,0,1,542.13,2.3Zm13.4-3.179a4.941,4.941,0,0,0,3.893-1.8l-1.054-1.241A3.646,3.646,0,0,1,556.036-1.5c-2.21,0-3.6-1.819-3.6-4.794,0-2.941,1.5-4.743,3.655-4.743a3.328,3.328,0,0,1,2.448,1.122l1.071-1.258a4.822,4.822,0,0,0-3.553-1.581c-3.162,0-5.644,2.448-5.644,6.528C550.409-2.125,552.823.221,555.968.221Zm7.531,0a3.14,3.14,0,0,0,1.054-.153L564.3-1.411a1.358,1.358,0,0,1-.323.034c-.238,0-.476-.187-.476-.714V-13.549h-1.938V-2.193C561.561-.68,562.088.221,563.5.221Zm5,0a4.648,4.648,0,0,0,2.975-1.292h.051L571.693,0h1.6V-5.627c0-2.482-1.071-3.961-3.4-3.961a7.161,7.161,0,0,0-3.774,1.224l.731,1.326a5.142,5.142,0,0,1,2.7-.952c1.377,0,1.768.952,1.785,2.04-3.893.425-5.593,1.462-5.593,3.468A2.583,2.583,0,0,0,568.5.221Zm.595-1.547c-.833,0-1.462-.374-1.462-1.292,0-1.054.935-1.751,3.706-2.091v2.3A3.3,3.3,0,0,1,569.092-1.326ZM578.255.221c2.312,0,3.553-1.275,3.553-2.839,0-1.768-1.445-2.346-2.754-2.839-1.02-.374-1.989-.68-1.989-1.479,0-.646.476-1.156,1.5-1.156a3.5,3.5,0,0,1,2.091.816l.918-1.207a4.922,4.922,0,0,0-3.043-1.105c-2.057,0-3.315,1.173-3.315,2.737,0,1.581,1.428,2.244,2.669,2.72,1.02.391,2.074.765,2.074,1.615,0,.714-.527,1.258-1.649,1.258a4.144,4.144,0,0,1-2.652-1.071l-.918,1.258A5.751,5.751,0,0,0,578.255.221Zm7.82,0c2.312,0,3.553-1.275,3.553-2.839,0-1.768-1.445-2.346-2.754-2.839-1.02-.374-1.989-.68-1.989-1.479,0-.646.476-1.156,1.5-1.156a3.5,3.5,0,0,1,2.091.816l.918-1.207a4.922,4.922,0,0,0-3.043-1.105c-2.057,0-3.315,1.173-3.315,2.737,0,1.581,1.428,2.244,2.669,2.72,1.02.391,2.074.765,2.074,1.615,0,.714-.527,1.258-1.649,1.258a4.144,4.144,0,0,1-2.652-1.071l-.918,1.258A5.751,5.751,0,0,0,586.075.221ZM595.017,0h1.972V-12.512h-1.972Zm4.913,0H601.9V-12.512H599.93Zm10.778,3.383,1.224-.544a15.873,15.873,0,0,1-2.142-8.16,15.961,15.961,0,0,1,2.142-8.16l-1.224-.527a16.02,16.02,0,0,0-2.516,8.687A16.035,16.035,0,0,0,610.708,3.383Zm7.905-16.15h-1.751v2.516a7.77,7.77,0,0,1-3.893,6.919l1.071,1.411a7.933,7.933,0,0,0,3.706-4.811,7.646,7.646,0,0,0,3.536,4.522L622.353-3.6a7.449,7.449,0,0,1-3.74-6.647Zm8.908,4.811h-2.4v-6.086h-1.751V1.309h1.751v-7.82h2.4Zm7.922,7.922c-2.244,0-3.5-.476-3.5-1.411,0-.918,1.258-1.411,3.5-1.411s3.519.493,3.519,1.411C638.962-.51,637.687-.034,635.443-.034Zm0-4.165c-3.3,0-5.287,1-5.287,2.754,0,1.768,1.989,2.754,5.287,2.754,3.315,0,5.287-.986,5.287-2.754C640.73-3.2,638.758-4.2,635.443-4.2Zm-1.87-3.944a13.016,13.016,0,0,0,1.9.136,12.537,12.537,0,0,0,1.87-.136v1.564h-3.774Zm1.9-4.284c2.278,0,3.655.544,3.655,1.53s-1.377,1.547-3.655,1.547c-2.295,0-3.672-.561-3.672-1.547S633.182-12.427,635.477-12.427ZM639.1-6.579V-8.6a2.586,2.586,0,0,0,1.853-2.3c0-1.8-2.125-2.89-5.474-2.89-3.366,0-5.474,1.088-5.474,2.89a2.535,2.535,0,0,0,1.819,2.278v2.04h-3.3v1.394h13.889V-6.579Zm9.4-4.352h2.533v-1.445H644.1v1.445h2.7v1.1c0,2.737-1.02,5.508-3.2,6.868l1.054,1.292a7.609,7.609,0,0,0,3.009-4.522,6.987,6.987,0,0,0,2.941,4.148l1.02-1.275c-2.142-1.241-3.128-3.893-3.128-6.511Zm3.672,2.278H649.91v1.428h2.261V.561h1.649V-13.753h-1.649Zm3.094-5.406V1.292h1.666V-14.059Zm12.954,1.768h-3.655v-1.768h-1.751v1.768h-3.655V-10.9h9.061ZM661.64-7.276c0-.969.833-1.547,2.04-1.547,1.224,0,2.057.578,2.057,1.547s-.833,1.547-2.057,1.547C662.473-5.729,661.64-6.307,661.64-7.276Zm5.763,0c0-1.734-1.513-2.907-3.723-2.907-2.193,0-3.723,1.173-3.723,2.907,0,1.751,1.53,2.907,3.723,2.907C665.89-4.369,667.4-5.525,667.4-7.276ZM663.17-3.417H661.4V1.02h10.336V-.408H663.17Zm7.956-5.729v-4.9h-1.751V-2.533h1.751V-7.7H673.3V-9.146Z" transform="translate(56.329 -83.178)"/>
    <path id="패스_9027" data-name="패스 9027" class="cls-19" d="M14.722-10.2H7.837v-2.006h6.885Zm1.717-3.366H6.1v4.743H16.439Zm1.8,7.208V-7.752H4.335v1.394h6.052v1.275h-4.4v1.326h8.789v1.088H6.018V1.173H16.932V-.17H7.752V-1.428H16.49V-5.083H12.155V-6.358ZM32.3-14.042H30.532V-6.12H32.3ZM29.1-7.7c-2.329-.663-3.689-2.346-3.74-4.131h3.281v-1.411h-8.4v1.411h3.332a4.916,4.916,0,0,1-3.808,4.437L20.6-6.018a6.163,6.163,0,0,0,3.893-3.4,5.946,5.946,0,0,0,3.825,3.06ZM23.987-.187v-1.36H32.3V-5.423H22.236V-4.1h8.33v1.292h-8.3V1.173H32.759V-.187Zm12.1,3.57a15.9,15.9,0,0,0,2.533-8.7,15.889,15.889,0,0,0-2.533-8.687l-1.224.527a15.96,15.96,0,0,1,2.142,8.16,15.873,15.873,0,0,1-2.142,8.16Zm5.032.017A3.986,3.986,0,0,0,43.911-.425c0-1.309-.561-2.108-1.513-2.108a1.27,1.27,0,0,0-1.36,1.258A1.226,1.226,0,0,0,42.347-.017a.7.7,0,0,0,.187-.017A2.639,2.639,0,0,1,40.681,2.3Z" transform="translate(729.516 -83.178)"/>
    <text id="_15" data-name=" " class="cls-20" transform="translate(782.331 -83.178)"><tspan x="0" y="0"> </tspan></text>
    <text id="_16" data-name=" " class="cls-21" transform="translate(786.411 -83.178)"><tspan x="0" y="0"> </tspan></text>
    <path id="패스_9028" data-name="패스 9028" class="cls-19" d="M6.528.221a4.941,4.941,0,0,0,3.893-1.8L9.367-2.822A3.646,3.646,0,0,1,6.6-1.5c-2.21,0-3.6-1.819-3.6-4.794,0-2.941,1.5-4.743,3.655-4.743A3.328,3.328,0,0,1,9.1-9.911l1.071-1.258A4.822,4.822,0,0,0,6.613-12.75C3.451-12.75.969-10.3.969-6.222.969-2.125,3.383.221,6.528.221Zm7.531,0A3.14,3.14,0,0,0,15.113.068l-.255-1.479a1.358,1.358,0,0,1-.323.034c-.238,0-.476-.187-.476-.714V-13.549H12.121V-2.193C12.121-.68,12.648.221,14.059.221Zm5,0a4.648,4.648,0,0,0,2.975-1.292h.051L22.253,0h1.6V-5.627c0-2.482-1.071-3.961-3.4-3.961a7.162,7.162,0,0,0-3.774,1.224l.731,1.326a5.142,5.142,0,0,1,2.7-.952c1.377,0,1.768.952,1.785,2.04C18-5.525,16.3-4.488,16.3-2.482A2.583,2.583,0,0,0,19.057.221Zm.6-1.547c-.833,0-1.462-.374-1.462-1.292,0-1.054.935-1.751,3.706-2.091v2.3A3.3,3.3,0,0,1,19.652-1.326ZM28.815.221c2.312,0,3.553-1.275,3.553-2.839,0-1.768-1.445-2.346-2.754-2.839-1.02-.374-1.989-.68-1.989-1.479,0-.646.476-1.156,1.5-1.156a3.5,3.5,0,0,1,2.091.816l.918-1.207a4.922,4.922,0,0,0-3.043-1.105c-2.057,0-3.315,1.173-3.315,2.737,0,1.581,1.428,2.244,2.669,2.72,1.02.391,2.074.765,2.074,1.615,0,.714-.527,1.258-1.649,1.258a4.144,4.144,0,0,1-2.652-1.071L25.3-1.071A5.751,5.751,0,0,0,28.815.221Zm7.82,0c2.312,0,3.553-1.275,3.553-2.839,0-1.768-1.445-2.346-2.754-2.839-1.02-.374-1.989-.68-1.989-1.479,0-.646.476-1.156,1.5-1.156a3.5,3.5,0,0,1,2.091.816l.918-1.207a4.922,4.922,0,0,0-3.043-1.105c-2.057,0-3.315,1.173-3.315,2.737,0,1.581,1.428,2.244,2.669,2.72,1.02.391,2.074.765,2.074,1.615,0,.714-.527,1.258-1.649,1.258a4.144,4.144,0,0,1-2.652-1.071l-.918,1.258A5.751,5.751,0,0,0,36.635.221ZM45.577,0h1.972V-12.512H45.577ZM50.49,0h1.972V-12.512H50.49ZM55.4,0h1.972V-12.512H55.4ZM66.181,3.383,67.4,2.839a15.873,15.873,0,0,1-2.142-8.16,15.96,15.96,0,0,1,2.142-8.16l-1.224-.527a16.02,16.02,0,0,0-2.516,8.687A16.035,16.035,0,0,0,66.181,3.383ZM69.887-8.585l.238,1.479L79.186-7.6a27.479,27.479,0,0,1-.527,3.4l1.734.2a31.367,31.367,0,0,0,.663-7.242v-1.411H70.329v1.411h8.993c0,.7,0,1.462-.034,2.3ZM75.65-2.057V-5.916H73.882v3.859H68.7V-.612H82.586V-2.057Zm12.206-9.758a1.6,1.6,0,0,1,1.785,1.564,1.6,1.6,0,0,1-1.785,1.564,1.608,1.608,0,0,1-1.8-1.564A1.608,1.608,0,0,1,87.856-11.815Zm0,4.437c1.938,0,3.349-1.173,3.349-2.873s-1.411-2.873-3.349-2.873c-1.955,0-3.366,1.173-3.366,2.873S85.9-7.378,87.856-7.378Zm3.808.629a61.061,61.061,0,0,1-7.871.374L84-4.913c.833,0,1.87-.017,2.975-.051V.085h1.666V-5.066A30.856,30.856,0,0,0,91.8-5.474Zm.884,2.686H89.879V-2.72h2.669V.561H94.18v-14.3H92.548Zm2.975-10V1.309h1.666V-14.059Zm14.654,0v15.4h1.768v-15.4Zm-6.409,1.139c-2.278,0-3.944,2.108-3.944,5.406,0,3.332,1.666,5.423,3.944,5.423,2.295,0,3.961-2.091,3.961-5.423C107.729-10.812,106.063-12.92,103.768-12.92Zm0,1.581c1.343,0,2.278,1.445,2.278,3.825,0,2.414-.935,3.859-2.278,3.859-1.326,0-2.261-1.445-2.261-3.859C101.507-9.894,102.442-11.339,103.768-11.339Zm19.7.272h3.247v-1.445h-8.347v1.445h3.349v1.479a7.624,7.624,0,0,1-3.91,6.579l1,1.394a8,8,0,0,0,3.808-4.845,7.754,7.754,0,0,0,3.723,4.454l.969-1.377a7.192,7.192,0,0,1-3.842-6.205Zm8.908,3.077h-2.4v-6.052h-1.751V1.309h1.751V-6.545h2.4Zm7.055-.085h-3.757V-10.03h3.757Zm1.734-5.321h-1.734v2.023h-3.757V-13.4h-1.751v6.715h7.242ZM137.224-1.564h8.16V-5.491h-9.911v1.36h8.177v1.275h-8.143V1.173h10.387V-.2h-8.67Zm8.16-9.333v-3.145h-1.751v7.871h1.751V-9.452h2.159V-10.9Zm12.444,4.131a5.051,5.051,0,0,1-3.6-4.624v-.289h3.2V-13.09h-8.211v1.411h3.247v.306a5.307,5.307,0,0,1-3.774,4.913l.9,1.377a6.268,6.268,0,0,0,3.791-3.6,6.075,6.075,0,0,0,3.587,3.281ZM151.062-2.7h8.6V1.309h1.751V-4.114H151.062Zm8.6-11.356V-10.2h-2.686v1.445h2.686v3.876h1.751v-9.18Zm13.192,1.292h-1.751v2.516a7.77,7.77,0,0,1-3.893,6.919l1.071,1.411a7.933,7.933,0,0,0,3.706-4.811,7.646,7.646,0,0,0,3.536,4.522L176.6-3.6a7.449,7.449,0,0,1-3.74-6.647Zm8.908,4.811h-2.4v-6.086h-1.751V1.309h1.751v-7.82h2.4Zm7.922,7.922c-2.244,0-3.5-.476-3.5-1.411,0-.918,1.258-1.411,3.5-1.411s3.519.493,3.519,1.411C193.205-.51,191.93-.034,189.686-.034Zm0-4.165c-3.3,0-5.287,1-5.287,2.754,0,1.768,1.989,2.754,5.287,2.754,3.315,0,5.287-.986,5.287-2.754C194.973-3.2,193-4.2,189.686-4.2Zm-1.87-3.944a13.015,13.015,0,0,0,1.9.136,12.537,12.537,0,0,0,1.87-.136v1.564h-3.774Zm1.9-4.284c2.278,0,3.655.544,3.655,1.53S192-9.35,189.72-9.35c-2.295,0-3.672-.561-3.672-1.547S187.425-12.427,189.72-12.427Zm3.621,5.848V-8.6a2.586,2.586,0,0,0,1.853-2.3c0-1.8-2.125-2.89-5.474-2.89-3.366,0-5.474,1.088-5.474,2.89a2.535,2.535,0,0,0,1.819,2.278v2.04h-3.3v1.394h13.889V-6.579Zm11.628,3.553h7.055V-.272h-7.055Zm-1.717,4.148h10.489V-4.42H203.252ZM213.35-7.7a19.329,19.329,0,0,0,.391-4.4v-1.19H203.32v1.428h8.7A17.459,17.459,0,0,1,211.6-7.7h-10.03v1.428h13.906V-7.7Zm9.18-3.366h3.417v-1.445h-8.6v1.445h3.417V-9.6a7.507,7.507,0,0,1-3.961,6.6l1,1.394a7.918,7.918,0,0,0,3.859-4.828,7.524,7.524,0,0,0,3.876,4.437l.969-1.377A6.926,6.926,0,0,1,222.53-9.6Zm5.2-2.975V1.309H229.5V-14.042ZM246.024-10.2h-6.885v-2.006h6.885Zm1.717-3.366H237.4v4.743h10.336Zm1.8,7.208V-7.752H235.637v1.394h6.052v1.275h-4.4v1.326h8.789v1.088H237.32V1.173h10.914V-.17h-9.18V-1.428h8.738V-5.083h-4.335V-6.358ZM263.6-14.042h-1.768V-6.12H263.6Zm-3.2,6.341c-2.329-.663-3.689-2.346-3.74-4.131h3.281v-1.411h-8.4v1.411h3.332a4.916,4.916,0,0,1-3.808,4.437l.833,1.377a6.163,6.163,0,0,0,3.893-3.4,5.946,5.946,0,0,0,3.825,3.06ZM255.289-.187v-1.36H263.6V-5.423H253.538V-4.1h8.33v1.292h-8.3V1.173h10.489V-.187Zm12.1,3.57a15.9,15.9,0,0,0,2.533-8.7,15.889,15.889,0,0,0-2.533-8.687l-1.224.527a15.961,15.961,0,0,1,2.142,8.16,15.873,15.873,0,0,1-2.142,8.16Zm11.492-16.558c-3.213,0-5.644,1.734-5.644,4.335,0,2.618,2.431,4.335,5.644,4.335,3.2,0,5.644-1.717,5.644-4.335C284.529-11.441,282.081-13.175,278.885-13.175Zm0,1.445c2.261,0,3.944,1.122,3.944,2.89s-1.683,2.89-3.944,2.89c-2.278,0-3.944-1.122-3.944-2.89S276.607-11.73,278.885-11.73Zm-6.936,9.656V-.629h13.906V-2.074Zm23.1.136V-4.556h4.794V-5.967h-9.2V-8.109h8.857v-4.862H288.9v1.411h8.874V-9.5h-8.84v4.947H293.3v2.618h-6.052V-.493h13.906V-1.938Zm12.155-6.647.238,1.479,9.061-.493a27.477,27.477,0,0,1-.527,3.4l1.734.2a31.366,31.366,0,0,0,.663-7.242v-1.411H307.649v1.411h8.993c0,.7,0,1.462-.034,2.3Zm5.763,6.528V-5.916H311.2v3.859h-5.185V-.612h13.889V-2.057Zm12.206-9.758a1.6,1.6,0,0,1,1.785,1.564,1.6,1.6,0,0,1-1.785,1.564,1.608,1.608,0,0,1-1.8-1.564A1.608,1.608,0,0,1,325.176-11.815Zm0,4.437c1.938,0,3.349-1.173,3.349-2.873s-1.411-2.873-3.349-2.873c-1.955,0-3.366,1.173-3.366,2.873S323.221-7.378,325.176-7.378Zm3.808.629a61.061,61.061,0,0,1-7.871.374l.2,1.462c.833,0,1.87-.017,2.975-.051V.085h1.666V-5.066a30.855,30.855,0,0,0,3.162-.408Zm.884,2.686H327.2V-2.72h2.669V.561H331.5v-14.3h-1.632Zm2.975-10V1.309h1.666V-14.059Zm14.654,0v15.4h1.768v-15.4Zm-6.409,1.139c-2.278,0-3.944,2.108-3.944,5.406,0,3.332,1.666,5.423,3.944,5.423,2.295,0,3.961-2.091,3.961-5.423C345.049-10.812,343.383-12.92,341.088-12.92Zm0,1.581c1.343,0,2.278,1.445,2.278,3.825,0,2.414-.935,3.859-2.278,3.859-1.326,0-2.261-1.445-2.261-3.859C338.827-9.894,339.762-11.339,341.088-11.339Zm18.989.408h2.533v-1.445h-6.936v1.445h2.7v1.1c0,2.737-1.02,5.508-3.2,6.868l1.054,1.292a7.609,7.609,0,0,0,3.009-4.522,6.987,6.987,0,0,0,2.941,4.148l1.02-1.275c-2.142-1.241-3.128-3.893-3.128-6.511Zm3.672,2.278h-2.261v1.428h2.261V.561H365.4V-13.753h-1.649Zm3.094-5.406V1.292h1.666V-14.059Zm12.563,4.692H375.87v-2.822h3.536Zm-5.287,0h-2.091v1.411h11.2V-9.367h-2.074v-2.822h2.159V-13.6H371.943v1.411h2.176Zm7.072,9.095H374.1V-2.363h7.089Zm3.4-5.049V-6.732H370.7v1.411h6.069v1.564h-4.4V1.122h10.54V-3.757h-4.386V-5.321Zm5.474-6.783v1.428h4.3a8.993,8.993,0,0,1-4.947,7.531l1.02,1.241c4.318-2.482,5.661-6.1,5.661-10.2Zm10.829-1.938v6h-1.751v-5.593h-1.649V.6h1.649V-6.613h1.751V1.309h1.666V-14.042Zm9.945,5.967h-3.757V-10.03h3.757Zm1.734-5.321h-1.734v2.023h-3.757V-13.4h-1.751v6.715h7.242ZM408.629-1.564h8.16V-5.491h-9.911v1.36h8.177v1.275h-8.143V1.173H417.3V-.2h-8.67Zm8.16-9.333v-3.145h-1.751v7.871h1.751V-9.452h2.159V-10.9Zm19.448-3.162h-1.768v8.772h1.768Zm-6.29,5.95h-3.859V-11.7h3.859Zm1.7-4.981h-7.276v6.375h7.276Zm4.879,10.1V-4.335h-4.4V-5.712h-1.785v1.377h-4.4v1.343h4.4c-.136,1.309-2.125,2.652-5,2.941l.578,1.326c2.448-.289,4.386-1.258,5.321-2.6a7.446,7.446,0,0,0,5.27,2.6l.578-1.326c-2.839-.306-4.811-1.683-4.947-2.941ZM452.081-8.67H453.7v4.063h1.666v-9.418H453.7V-10.1h-1.615v-3.655h-1.649V-5.1h1.649ZM450.075-7a4.467,4.467,0,0,1-2.992-4.165v-1.938h-1.7v1.938a5.136,5.136,0,0,1-3.094,4.607l.918,1.343a5.756,5.756,0,0,0,3.043-3.247A5.311,5.311,0,0,0,449.14-5.7Zm.17,6.97c-2.159,0-3.451-.527-3.451-1.462,0-.952,1.292-1.479,3.451-1.479S453.7-2.448,453.7-1.5C453.7-.561,452.4-.034,450.245-.034Zm0-4.284c-3.2,0-5.2,1.054-5.2,2.822,0,1.751,2.006,2.805,5.2,2.805s5.2-1.054,5.2-2.805C455.447-3.264,453.441-4.318,450.245-4.318Zm16.473-2.21a5.109,5.109,0,0,1-3.655-4.777v-1.8H461.3v1.785a5.34,5.34,0,0,1-3.774,5.151l.952,1.36a6.189,6.189,0,0,0,3.74-3.638,6.187,6.187,0,0,0,3.621,3.315Zm-5,2.7h-1.751V1.02h10.3V-.408H461.72Zm7.939-5.627v-4.607h-1.751V-2.737h1.751v-5.27h2.176V-9.452Zm8.262-3.519c-2.4,0-4.165,1.513-4.165,3.689s1.768,3.689,4.165,3.689S482.1-7.106,482.1-9.282,480.318-12.971,477.921-12.971Zm0,1.5a2.222,2.222,0,0,1,2.465,2.193,2.232,2.232,0,0,1-2.465,2.193,2.226,2.226,0,0,1-2.448-2.193A2.217,2.217,0,0,1,477.921-11.475Zm5.916-2.584V1.326H485.6V-14.059ZM473.263-1.921a53.437,53.437,0,0,0,9.775-.68l-.119-1.275a70.182,70.182,0,0,1-9.877.51Zm21.76-9.5h7.31v4.556h-7.31Zm4.539,9.418V-5.474h4.488v-7.344H493.306v7.344h4.505v3.468h-6.052V-.578h13.906V-2.006Zm19.822-7.276h-8.857v-2.737h8.738V-13.43H508.793v5.576h10.591Zm-8.857,5.763h-1.751V1H519.5V-.408h-8.976Zm-3.451-2.856v1.428h13.889V-6.375Zm26.809.969a35.867,35.867,0,0,0,.425-6v-1.02h-7.8v1.411h6.086a32,32,0,0,1-.425,5.457Zm-3.434-2.618h-1.717V-3.4c-1.071.017-2.108.034-3.043.034l.187,1.445a59.227,59.227,0,0,0,9.367-.6l-.085-1.292c-1.5.2-3.111.289-4.709.357Zm9.554.289h-2.261v-6.307h-1.768V1.309h1.768V-6.256h2.261Zm9.384-2.448v1.428h2.72V-4.9h1.751v-9.146h-1.751v3.859Zm.884,3.417a5.035,5.035,0,0,1-3.6-4.624v-.2h3.2v-1.411h-8.211v1.411H544.9v.221a5.39,5.39,0,0,1-3.757,5l.9,1.394a6.353,6.353,0,0,0,3.791-3.689,6,6,0,0,0,3.57,3.281ZM548.76-.034c-2.193,0-3.434-.544-3.434-1.547s1.241-1.547,3.434-1.547c2.159,0,3.417.544,3.417,1.547S550.919-.034,548.76-.034Zm0-4.454c-3.213,0-5.185,1.088-5.185,2.907,0,1.836,1.972,2.907,5.185,2.907,3.2,0,5.168-1.071,5.168-2.907C553.928-3.4,551.956-4.488,548.76-4.488ZM559.9-3.6c-1.054,0-1.7-1.377-1.7-3.808s.646-3.791,1.7-3.791,1.7,1.36,1.7,3.791S560.949-3.6,559.9-3.6Zm4.913-4.624h-1.649c-.187-2.873-1.428-4.624-3.264-4.624-1.989,0-3.3,2.074-3.3,5.44s1.309,5.457,3.3,5.457c1.87,0,3.128-1.836,3.281-4.828h1.632V.578h1.632V-13.753h-1.632Zm3.077-5.814V1.292h1.666V-14.042Zm16.473,7.276a5.051,5.051,0,0,1-3.6-4.624v-.289h3.2V-13.09h-8.211v1.411h3.247v.306a5.307,5.307,0,0,1-3.774,4.913l.9,1.377a6.268,6.268,0,0,0,3.791-3.6,6.076,6.076,0,0,0,3.587,3.281ZM577.592-2.7h8.6V1.309h1.751V-4.114H577.592Zm8.6-11.356V-10.2h-2.686v1.445h2.686v3.876h1.751v-9.18ZM597.431-.034c-2.244,0-3.5-.476-3.5-1.411,0-.918,1.258-1.411,3.5-1.411s3.519.493,3.519,1.411C600.95-.51,599.675-.034,597.431-.034Zm0-4.165c-3.3,0-5.287,1-5.287,2.754,0,1.768,1.989,2.754,5.287,2.754,3.315,0,5.287-.986,5.287-2.754C602.718-3.2,600.746-4.2,597.431-4.2Zm-1.87-3.944a13.016,13.016,0,0,0,1.9.136,12.537,12.537,0,0,0,1.87-.136v1.564h-3.774Zm1.9-4.284c2.278,0,3.655.544,3.655,1.53s-1.377,1.547-3.655,1.547c-2.295,0-3.672-.561-3.672-1.547S595.17-12.427,597.465-12.427Zm3.621,5.848V-8.6a2.586,2.586,0,0,0,1.853-2.3c0-1.8-2.125-2.89-5.474-2.89-3.366,0-5.474,1.088-5.474,2.89a2.535,2.535,0,0,0,1.819,2.278v2.04h-3.3v1.394H604.4V-6.579Zm14.552-.748a35.359,35.359,0,0,1-3.859.357V-8.347h2.839V-9.758h-5.661v-2.125H614.5v-1.428h-7.293v4.964h2.822v1.462c-1.5.051-2.924.051-4.165.051l.238,1.377a56.324,56.324,0,0,0,9.656-.646Zm1.139,7.055h-6.732v-1.5h6.732Zm0-2.839h-6.732V-4.5h-1.734V1.122h10.2V-4.5h-1.734Zm-.034-10.931v8.874h1.768v-8.874Zm7.021,1.5H622.03v9.979h1.309a36.667,36.667,0,0,0,7.5-.731l-.187-1.462a35.555,35.555,0,0,1-6.885.7Zm8.3-1.5V1.309h1.751V-14.042Zm6.732,2.873h5.389V-12.6h-7.14V-2.448H638.3a37.889,37.889,0,0,0,7.174-.51L645.286-4.4a37.064,37.064,0,0,1-6.494.493Zm11.917,3.026h-2.4v-5.916h-1.751V1.326h1.751V-6.7h2.4Z" transform="translate(87.167 -61.673)"/>
  </g>
  <path id="패스_9003" data-name="패스 9003" class="cls-6" d="M30.226-489.715h218.8v-37.25H30.226Z" transform="translate(0 674.306)"/>
  <path id="패스_9004" data-name="패스 9004" class="cls-7" d="M25.195-493.215h218.3v-33.5H25.195Z" transform="translate(0 674.306)"/>
  <path id="패스_9006" data-name="패스 9006" class="cls-6" d="M1.455,0h1.74V-4.185H4.86c2.4,0,4.155-1.11,4.155-3.525,0-2.49-1.755-3.33-4.215-3.33H1.455Zm1.74-5.58V-9.645h1.44c1.755,0,2.67.48,2.67,1.935s-.84,2.13-2.61,2.13ZM10.86,0h6.4V-1.47H12.6v-9.57H10.86Zm8.055,0h1.56V-5.46c0-.99-.135-2.415-.21-3.42h.06l.87,2.55L23.13-1.065h1.08L26.13-6.33l.885-2.55h.06c-.09,1.005-.225,2.43-.225,3.42V0h1.62V-11.04H26.46L24.465-5.46c-.255.735-.465,1.485-.72,2.235H23.67c-.255-.75-.48-1.5-.735-2.235L20.91-11.04h-2Zm13.95,2.7h1.2l4.17-14.67h-1.2ZM45.915.2C48.33.2,49.8-1.245,49.8-3.015A3.082,3.082,0,0,0,47.55-6l-1.515-.645c-.9-.36-1.785-.72-1.785-1.665,0-.885.735-1.425,1.86-1.425a3.516,3.516,0,0,1,2.43.99l.915-1.11A4.729,4.729,0,0,0,46.11-11.25c-2.1,0-3.63,1.305-3.63,3.045A3.176,3.176,0,0,0,44.73-5.31l1.53.66c1.02.45,1.77.765,1.77,1.77,0,.93-.75,1.56-2.085,1.56a4.28,4.28,0,0,1-2.94-1.305l-1.02,1.2A5.508,5.508,0,0,0,45.915.2Zm7.335-4.71L53.7-6c.36-1.2.705-2.415,1.02-3.675h.06C55.125-8.43,55.455-7.2,55.83-6l.435,1.485ZM57.615,0H59.46L55.8-11.04H53.79L50.13,0H51.9l.945-3.15h3.84Zm3,0h1.74V-4.185H64.02c2.4,0,4.155-1.11,4.155-3.525,0-2.49-1.755-3.33-4.215-3.33H60.615Zm1.74-5.58V-9.645h1.44c1.755,0,2.67.48,2.67,1.935s-.84,2.13-2.61,2.13Z" transform="translate(98.561 171.466)"/>
</svg>
