<svg id="구성_요소_66_1" data-name="구성 요소 66 – 1" xmlns="http://www.w3.org/2000/svg" xmlns:xlink="http://www.w3.org/1999/xlink" width="91.5" height="91.5" viewBox="0 0 91.5 91.5">
  <defs>
    <style>
      .cls-1, .cls-7 {
        fill: none;
      }

      .cls-2 {
        clip-path: url(#clip-path);
      }

      .cls-3 {
        fill: #92bb48;
      }

      .cls-4 {
        fill: #1e2323;
      }

      .cls-5, .cls-6 {
        fill: #fff;
      }

      .cls-5, .cls-7 {
        stroke: #1e2323;
      }
    </style>
    <clipPath id="clip-path">
      <path id="패스_5167" data-name="패스 5167" class="cls-1" d="M0,0H91.5V-91.5H0Z"/>
    </clipPath>
  </defs>
  <g id="그룹_4917" data-name="그룹 4917" class="cls-2" transform="translate(0 91.5)">
    <g id="그룹_4916" data-name="그룹 4916" transform="translate(91.5 -45.75)">
      <path id="패스_5166" data-name="패스 5166" class="cls-3" d="M0,0A45.75,45.75,0,0,1-45.75,45.75,45.75,45.75,0,0,1-91.5,0,45.75,45.75,0,0,1-45.75-45.75,45.75,45.75,0,0,1,0,0"/>
    </g>
  </g>
  <g id="그룹_4918" data-name="그룹 4918" transform="translate(40.099 27.39)">
    <path id="패스_5168" data-name="패스 5168" class="cls-4" d="M0,0,1.037-5.145H13.995L15.032,0"/>
  </g>
  <g id="그룹_4919" data-name="그룹 4919" transform="translate(30.93 33.637)">
    <path id="패스_5169" data-name="패스 5169" class="cls-4" d="M0,0,2.495,39.547H30.873L33.369,0Z"/>
  </g>
  <path id="패스_5170" data-name="패스 5170" class="cls-4" d="M30.109-57.128H67.416v-7.08H30.109Z" transform="translate(0 91.5)"/>
  <g id="그룹_4920" data-name="그룹 4920" transform="translate(40.426 48.819)">
    <path id="패스_5171" data-name="패스 5171" class="cls-4" d="M0,0,3.481-5.937H10.64l1.814,2.968,1.128-.346L11.621.544H7.11l.931-.791-.98-1.386-2.893,4.8Z"/>
  </g>
  <g id="그룹_4921" data-name="그룹 4921" transform="translate(54.898 49.612)">
    <path id="패스_5172" data-name="패스 5172" class="cls-4" d="M0,0,3.869,5.685.856,12.235l-3.43.41-.164,1.178L-5.38,10.4l1.9-4.128.319,1.186L-1.5,7.148-4.6,2.48Z"/>
  </g>
  <g id="그룹_4922" data-name="그룹 4922" transform="translate(47.189 62.37)">
    <path id="패스_5173" data-name="패스 5173" class="cls-4" d="M0,0-6.852.251l-3.876-6.109,1.5-3.159-.9-.775,4.29-.42,2.443,3.849-1.167-.365-.627,1.589L.392-5.275Z"/>
  </g>
  <g id="그룹_4923" data-name="그룹 4923" transform="translate(37.866 24.965)">
    <path id="패스_5174" data-name="패스 5174" class="cls-5" d="M0,0,1.015-4.948H13.7L14.714,0"/>
  </g>
  <g id="그룹_4924" data-name="그룹 4924" transform="translate(28.712 31.408)">
    <path id="패스_5175" data-name="패스 5175" class="cls-6" d="M0,0,2.469,39.222H30.553L33.023,0Z"/>
  </g>
  <g id="그룹_4925" data-name="그룹 4925" transform="translate(28.712 31.408)">
    <path id="패스_5176" data-name="패스 5176" class="cls-7" d="M0,0,2.469,39.222H30.553L33.023,0Z"/>
  </g>
  <path id="패스_5177" data-name="패스 5177" class="cls-5" d="M25.584-59.682H64.862v-6.755H25.584Z" transform="translate(0 91.5)"/>
  <g id="그룹_4927" data-name="그룹 4927" class="cls-2" transform="translate(0 91.5)">
    <g id="그룹_4926" data-name="그룹 4926" transform="translate(49.866 -44.123)">
      <path id="패스_5178" data-name="패스 5178" class="cls-5" d="M0,0-2.954-5.232a2.578,2.578,0,0,0-4.514,0l-1.784,3.16M-4.711,9.409H.8a2.665,2.665,0,0,0,2.257-4L1.49,2.638M-10.542.213l-2.937,5.2a2.665,2.665,0,0,0,2.257,4h3.355"/>
    </g>
  </g>
  <g id="그룹_4928" data-name="그룹 4928" transform="translate(42.897 44.533)">
    <path id="패스_5180" data-name="패스 5180" class="cls-7" d="M0,0-2.373.528l-.836-2.377"/>
  </g>
  <g id="그룹_4929" data-name="그룹 4929" transform="translate(40.546 55.037)">
    <path id="패스_5181" data-name="패스 5181" class="cls-7" d="M0,0,1.62,1.8l-1.7,1.876"/>
  </g>
  <g id="그룹_4930" data-name="그룹 4930" transform="translate(50.559 52.1)">
    <path id="패스_5182" data-name="패스 5182" class="cls-7" d="M0,0,.764-2.289l2.487.513"/>
  </g>
</svg>
