<svg id="구성_요소_57_1" data-name="구성 요소 57 – 1" xmlns="http://www.w3.org/2000/svg" xmlns:xlink="http://www.w3.org/1999/xlink" width="31.626" height="24.81" viewBox="0 0 31.626 24.81">
  <defs>
    <style>
      .cls-1, .cls-4, .cls-6 {
        fill: none;
      }

      .cls-2 {
        clip-path: url(#clip-path);
      }

      .cls-3 {
        fill: #393c41;
      }

      .cls-4 {
        stroke: #393c41;
      }

      .cls-5 {
        fill: #fff;
      }

      .cls-6 {
        stroke: #fff;
      }
    </style>
    <clipPath id="clip-path">
      <path id="패스_733" data-name="패스 733" class="cls-1" d="M0,0H31.626V-24.81H0Z"/>
    </clipPath>
  </defs>
  <g id="그룹_380" data-name="그룹 380" class="cls-2" transform="translate(0 24.81)">
    <g id="그룹_366" data-name="그룹 366" transform="translate(15.914 -0.5)">
      <path id="패스_719" data-name="패스 719" class="cls-3" d="M0,0V-4.9c0-3.13,2.134-5.667,4.766-5.667h5.68c2.632,0,4.766,2.537,4.766,5.667V0Z"/>
    </g>
    <g id="그룹_367" data-name="그룹 367" transform="translate(15.914 -0.5)">
      <path id="패스_720" data-name="패스 720" class="cls-4" d="M0,0V-4.9c0-3.13,2.134-5.667,4.766-5.667h5.68c2.632,0,4.766,2.537,4.766,5.667V0Z"/>
    </g>
    <g id="그룹_368" data-name="그룹 368" transform="translate(9.675 -12.764)">
      <path id="패스_721" data-name="패스 721" class="cls-5" d="M0,0A5.088,5.088,0,0,0,5.09-5.088,5.09,5.09,0,0,0,0-10.178a5.09,5.09,0,0,0-5.09,5.09A5.088,5.088,0,0,0,0,0"/>
    </g>
    <g id="그룹_369" data-name="그룹 369" transform="translate(9.675 -12.764)">
      <path id="패스_722" data-name="패스 722" class="cls-6" d="M0,0A5.088,5.088,0,0,0,5.09-5.088,5.09,5.09,0,0,0,0-10.178a5.09,5.09,0,0,0-5.09,5.09A5.088,5.088,0,0,0,0,0Z"/>
    </g>
    <g id="그룹_370" data-name="그룹 370" transform="translate(15.045 -2.127)">
      <path id="패스_723" data-name="패스 723" class="cls-5" d="M0,0V-4.387A4.928,4.928,0,0,1,4.766-9.463h5.68a4.928,4.928,0,0,1,4.766,5.076V0Z"/>
    </g>
    <g id="그룹_371" data-name="그룹 371" transform="translate(15.045 -2.127)">
      <path id="패스_724" data-name="패스 724" class="cls-4" d="M0,0V-4.387A4.928,4.928,0,0,1,4.766-9.463h5.68a4.928,4.928,0,0,1,4.766,5.076V0Z"/>
    </g>
    <g id="그룹_372" data-name="그룹 372" transform="translate(1.791 -0.5)">
      <path id="패스_725" data-name="패스 725" class="cls-3" d="M0,0V-6.2a6.01,6.01,0,0,1,5.749-6.24H13.4c3.175,0,4.954,2.794,4.954,6.24V0Z"/>
    </g>
    <g id="그룹_373" data-name="그룹 373" transform="translate(1.791 -0.5)">
      <path id="패스_726" data-name="패스 726" class="cls-4" d="M0,0V-6.2a6.01,6.01,0,0,1,5.749-6.24H13.4c3.175,0,4.954,2.794,4.954,6.24V0Z"/>
    </g>
    <g id="그룹_374" data-name="그룹 374" transform="translate(22.651 -13.922)">
      <path id="패스_727" data-name="패스 727" class="cls-5" d="M0,0A3.415,3.415,0,0,0,3.414-3.414,3.415,3.415,0,0,0,0-6.828,3.415,3.415,0,0,0-3.414-3.414,3.415,3.415,0,0,0,0,0"/>
    </g>
    <g id="그룹_375" data-name="그룹 375" transform="translate(22.651 -13.922)">
      <path id="패스_728" data-name="패스 728" class="cls-4" d="M0,0A3.415,3.415,0,0,0,3.414-3.414,3.415,3.415,0,0,0,0-6.828,3.415,3.415,0,0,0-3.414-3.414,3.415,3.415,0,0,0,0,0Z"/>
    </g>
    <g id="그룹_376" data-name="그룹 376" transform="translate(9.675 -16.092)">
      <path id="패스_729" data-name="패스 729" class="cls-5" d="M0,0A4.109,4.109,0,0,0,4.109-4.109,4.11,4.11,0,0,0,0-8.219a4.11,4.11,0,0,0-4.109,4.11A4.109,4.109,0,0,0,0,0"/>
    </g>
    <g id="그룹_377" data-name="그룹 377" transform="translate(9.675 -16.092)">
      <path id="패스_730" data-name="패스 730" class="cls-4" d="M0,0A4.109,4.109,0,0,0,4.109-4.109,4.11,4.11,0,0,0,0-8.219a4.11,4.11,0,0,0-4.109,4.11A4.109,4.109,0,0,0,0,0Z"/>
    </g>
    <g id="그룹_378" data-name="그룹 378" transform="translate(0.5 -2.169)">
      <path id="패스_731" data-name="패스 731" class="cls-5" d="M0,0V-5.291a5.944,5.944,0,0,1,5.749-6.121H12.6A5.944,5.944,0,0,1,18.35-5.291V0Z"/>
    </g>
    <g id="그룹_379" data-name="그룹 379" transform="translate(0.5 -2.169)">
      <path id="패스_732" data-name="패스 732" class="cls-4" d="M0,0V-5.291a5.944,5.944,0,0,1,5.749-6.121H12.6A5.944,5.944,0,0,1,18.35-5.291V0Z"/>
    </g>
  </g>
</svg>
