<svg xmlns="http://www.w3.org/2000/svg" width="23.519" height="27.575" viewBox="0 0 23.519 27.575">
  <defs>
    <style>
      .cls-1 {
        fill: #fff;
      }

      .cls-2 {
        fill: none;
        stroke: #000;
        stroke-miterlimit: 10;
        stroke-width: 0.99px;
      }
    </style>
  </defs>
  <g id="구성_요소_2_1" data-name="구성 요소 2 – 1" transform="translate(0.216 0.304)">
    <path id="패스_375" data-name="패스 375" d="M2773.585,899.124c0-5.218-10.811-16.91-10.811-16.91s-10.81,11.692-10.81,16.91,4.839,9.452,10.81,9.452,10.811-4.232,10.811-9.452m-6.839-4.965c1.421,2.179,2.348,4.013,2.348,4.965,0,3.047-2.835,5.525-6.32,5.525" transform="translate(-2750.282 -881.305)"/>
    <path id="패스_376" data-name="패스 376" class="cls-1" d="M2762.389,904.4c4.434,0,8.028-3.134,8.028-7s-3.594-7-8.028-7-8.028,3.136-8.028,7,3.594,7,8.028,7" transform="translate(-2750.282 -881.305)"/>
    <path id="패스_377" data-name="패스 377" class="cls-1" d="M2771.755,898.1c0-5.183-10.737-16.792-10.737-16.792s-10.736,11.609-10.736,16.792,4.807,9.384,10.736,9.384,10.737-4.2,10.737-9.384m-6.792-4.931c1.41,2.164,2.331,3.984,2.331,4.931,0,3.025-2.816,5.486-6.276,5.486" transform="translate(-2750.282 -881.305)"/>
    <path id="패스_378" data-name="패스 378" class="cls-2" d="M2771.475,898.056c0-5.039-10.458-16.327-10.458-16.327s-10.456,11.288-10.456,16.327,4.682,9.125,10.456,9.125S2771.475,903.1,2771.475,898.056Zm-6.615-4.794c1.374,2.1,2.27,3.875,2.27,4.794,0,2.942-2.742,5.334-6.113,5.334" transform="translate(-2750.282 -881.305)"/>
  </g>
</svg>
