<svg id="구성_요소_58_1" data-name="구성 요소 58 – 1" xmlns="http://www.w3.org/2000/svg" xmlns:xlink="http://www.w3.org/1999/xlink" width="30.465" height="28.006" viewBox="0 0 30.465 28.006">
  <defs>
    <style>
      .cls-1, .cls-5 {
        fill: none;
      }

      .cls-2 {
        clip-path: url(#clip-path);
      }

      .cls-3 {
        fill: #1e2323;
      }

      .cls-4 {
        fill: #fff;
      }

      .cls-5 {
        stroke: #1e2323;
      }
    </style>
    <clipPath id="clip-path">
      <path id="패스_736" data-name="패스 736" class="cls-1" d="M0-10.747H30.393V-38.753H0Z" transform="translate(0 38.753)"/>
    </clipPath>
  </defs>
  <g id="그룹_383" data-name="그룹 383" class="cls-2">
    <g id="그룹_381" data-name="그룹 381" transform="translate(5.703 6.717)">
      <path id="패스_734" data-name="패스 734" class="cls-3" d="M-1.314-2.656A3.443,3.443,0,0,1-4.737-6.117,3.442,3.442,0,0,1-1.314-9.578,3.442,3.442,0,0,1,2.11-6.117,3.443,3.443,0,0,1-1.314-2.656" transform="translate(4.737 9.578)"/>
    </g>
    <g id="그룹_382" data-name="그룹 382" transform="translate(1.318 16.499)">
      <path id="패스_735" data-name="패스 735" class="cls-3" d="M-5.993-4.416C-6-6.1-6.009-9.717-6.009-12.5c0-3.871-4.436-3.4-4.436-3.4h-6.692s-4.455-.469-4.455,3.4c0,2.786-.008,6.405-.017,8.087Z" transform="translate(21.609 15.923)"/>
    </g>
  </g>
  <g id="그룹_384" data-name="그룹 384" transform="translate(16.094 1.976)">
    <path id="패스_737" data-name="패스 737" class="cls-3" d="M-5.039-2.835l-6.491-7.386-6.641,7.386h3.345V10.692h6.441V-2.835Z" transform="translate(18.171 10.221)"/>
  </g>
  <g id="그룹_385" data-name="그룹 385" transform="translate(21.438 11.786)">
    <path id="패스_738" data-name="패스 738" class="cls-3" d="M0-1.987H2.115V7.5H6.839V-1.987H8.955L4.528-7.165Z" transform="translate(0 7.165)"/>
  </g>
  <g id="그룹_390" data-name="그룹 390" class="cls-2">
    <g id="그룹_386" data-name="그룹 386" transform="translate(4.748 6.25)">
      <path id="패스_739" data-name="패스 739" class="cls-4" d="M-1.307-2.642A3.424,3.424,0,0,1-4.712-6.085,3.424,3.424,0,0,1-1.307-9.527,3.424,3.424,0,0,1,2.1-6.085,3.424,3.424,0,0,1-1.307-2.642" transform="translate(4.712 9.527)"/>
    </g>
    <g id="그룹_387" data-name="그룹 387" transform="translate(4.748 6.25)">
      <path id="패스_740" data-name="패스 740" class="cls-5" d="M-1.307-2.642A3.424,3.424,0,0,1-4.712-6.085,3.424,3.424,0,0,1-1.307-9.527,3.424,3.424,0,0,1,2.1-6.085,3.424,3.424,0,0,1-1.307-2.642Z" transform="translate(4.712 9.527)"/>
    </g>
    <g id="그룹_388" data-name="그룹 388" transform="translate(0.363 15.059)">
      <path id="패스_741" data-name="패스 741" class="cls-4" d="M-5.979-4.4C-5.988-6.077-6-9.683-6-12.46c0-3.859-4.426-3.391-4.426-3.391H-17.1s-4.444-.468-4.444,3.391c0,2.777-.009,6.383-.017,8.059Z" transform="translate(21.559 15.869)"/>
    </g>
    <g id="그룹_389" data-name="그룹 389" transform="translate(0.363 15.059)">
      <path id="패스_742" data-name="패스 742" class="cls-5" d="M-5.979-4.4C-5.988-6.077-6-9.683-6-12.46c0-3.859-4.426-3.391-4.426-3.391H-17.1s-4.444-.468-4.444,3.391c0,2.777-.009,6.383-.017,8.059Z" transform="translate(21.559 15.869)"/>
    </g>
  </g>
  <g id="그룹_391" data-name="그룹 391" transform="translate(12.574 19.218)">
    <path id="패스_744" data-name="패스 744" class="cls-5" d="M0-2.8v-7.286" transform="translate(0 10.082)"/>
  </g>
  <g id="그룹_392" data-name="그룹 392" transform="translate(3.867 19.235)">
    <path id="패스_745" data-name="패스 745" class="cls-5" d="M0,0,.016,7.252"/>
  </g>
  <g id="그룹_393" data-name="그룹 393" transform="translate(15.159 0.545)">
    <path id="패스_746" data-name="패스 746" class="cls-4" d="M-5.01-2.828l-6.453-7.37-6.6,7.37h3.326v13.5h6.4v-13.5Z" transform="translate(18.065 10.198)"/>
  </g>
  <g id="그룹_395" data-name="그룹 395" class="cls-2">
    <g id="그룹_394" data-name="그룹 394" transform="translate(15.159 0.545)">
      <path id="패스_747" data-name="패스 747" class="cls-5" d="M-5.01-2.828l-6.453-7.37-6.6,7.37h3.326v13.5h6.4v-13.5Z" transform="translate(18.065 10.198)"/>
    </g>
  </g>
  <g id="그룹_396" data-name="그룹 396" transform="translate(20.502 10.356)">
    <path id="패스_749" data-name="패스 749" class="cls-4" d="M-3.408-1.981-7.8-7.142l-4.491,5.161h2.1V7.471h4.685V-1.981Z" transform="translate(12.289 7.142)"/>
  </g>
  <g id="그룹_397" data-name="그룹 397" transform="translate(20.502 10.356)">
    <path id="패스_750" data-name="패스 750" class="cls-5" d="M-3.408-1.981-7.8-7.142l-4.491,5.161h2.1V7.471h4.685V-1.981Z" transform="translate(12.289 7.142)"/>
  </g>
</svg>
