<svg id="구성_요소_59_1" data-name="구성 요소 59 – 1" xmlns="http://www.w3.org/2000/svg" xmlns:xlink="http://www.w3.org/1999/xlink" width="29.059" height="29.116" viewBox="0 0 29.059 29.116">
  <defs>
    <style>
      .cls-1, .cls-4 {
        fill: none;
      }

      .cls-2 {
        clip-path: url(#clip-path);
      }

      .cls-3 {
        fill: #393c41;
      }

      .cls-4, .cls-6 {
        stroke: #393c41;
      }

      .cls-5, .cls-6 {
        fill: #fff;
      }
    </style>
    <clipPath id="clip-path">
      <path id="패스_756" data-name="패스 756" class="cls-1" d="M0,0H29.059V-29.116H0Z"/>
    </clipPath>
  </defs>
  <g id="그룹_403" data-name="그룹 403" class="cls-2" transform="translate(0 29.116)">
    <g id="그룹_398" data-name="그룹 398" transform="translate(6.851 -9.991)">
      <path id="패스_751" data-name="패스 751" class="cls-3" d="M0,0H1.636C4.738,0,5,1.356,5,1.356l2.5,8.136H4.523L2.024,3.43h-3.4A3.813,3.813,0,0,1-5,1.316M16.5,0H15.075c-3.1,0-3.359,1.356-3.359,1.356l-2.5,8.136H12.19l2.5-6.062h3.4a3.811,3.811,0,0,0,3.618-2.114v-9.2s-.7-2.5-2.7-1.5S16.5,0,16.5,0"/>
    </g>
    <g id="그룹_399" data-name="그룹 399" transform="translate(6.851 -9.991)">
      <path id="패스_752" data-name="패스 752" class="cls-4" d="M0,0H1.636C4.738,0,5,1.356,5,1.356l2.5,8.136H4.523L2.024,3.43h-3.4A3.813,3.813,0,0,1-5,1.316M16.5,0H15.075c-3.1,0-3.359,1.356-3.359,1.356l-2.5,8.136H12.19l2.5-6.062h3.4a3.811,3.811,0,0,0,3.618-2.114v-9.2s-.7-2.5-2.7-1.5S16.5,0,16.5,0Z"/>
    </g>
    <g id="그룹_400" data-name="그룹 400" transform="translate(16.293 -25.956)">
      <path id="패스_753" data-name="패스 753" class="cls-5" d="M0,0A2.668,2.668,0,0,1-2.674,2.66,2.667,2.667,0,0,1-5.348,0,2.667,2.667,0,0,1-2.674-2.66,2.668,2.668,0,0,1,0,0M-9.076,2.418a2.668,2.668,0,0,1-2.675,2.66,2.668,2.668,0,0,1-2.674-2.66,2.668,2.668,0,0,1,2.674-2.66,2.668,2.668,0,0,1,2.675,2.66m18.152,0A2.675,2.675,0,1,1,6.4-.242a2.667,2.667,0,0,1,2.674,2.66M-8.59,7.818c0-2.092,2.649-3.788,5.916-3.788s5.916,1.7,5.916,3.788"/>
    </g>
    <g id="그룹_401" data-name="그룹 401" transform="translate(16.293 -25.956)">
      <path id="패스_754" data-name="패스 754" class="cls-4" d="M0,0A2.668,2.668,0,0,1-2.674,2.66,2.667,2.667,0,0,1-5.348,0,2.667,2.667,0,0,1-2.674-2.66,2.668,2.668,0,0,1,0,0ZM-9.076,2.418a2.668,2.668,0,0,1-2.675,2.66,2.668,2.668,0,0,1-2.674-2.66,2.668,2.668,0,0,1,2.674-2.66A2.668,2.668,0,0,1-9.076,2.418Zm18.152,0A2.675,2.675,0,1,1,6.4-.242,2.667,2.667,0,0,1,9.076,2.418ZM-8.59,7.818c0-2.092,2.649-3.788,5.916-3.788s5.916,1.7,5.916,3.788"/>
    </g>
    <g id="그룹_402" data-name="그룹 402" transform="translate(5.497 -13.983)">
      <path id="패스_755" data-name="패스 755" class="cls-6" d="M0,0V2.991H1.636C4.738,2.991,5,4.347,5,4.347l2.5,8.136H4.523l-2.5-6.062h-3.4A3.813,3.813,0,0,1-5,4.307V-3.749c0-1.515,2.369-1.914,2.369-1.914l5.3,4.028H6.762S7.538.359,3.833.359H.517l-2.8-2.552M16.5.2V2.991H15.075c-3.1,0-3.359,1.356-3.359,1.356l-2.5,8.136H12.19l2.5-6.062h3.4a3.811,3.811,0,0,0,3.618-2.114V-3.749c0-1.515-2.368-1.914-2.368-1.914l-5.3,4.028H9.949S9.174.359,12.879.359h3.316L19-2.193M0,.4H16.41"/>
    </g>
  </g>
</svg>
