<svg id="구성_요소_66_1" data-name="구성 요소 66 – 1" xmlns="http://www.w3.org/2000/svg" xmlns:xlink="http://www.w3.org/1999/xlink" width="27.215" height="26.176" viewBox="0 0 27.215 26.176">
  <defs>
    <style>
      .cls-1, .cls-4, .cls-6 {
        fill: none;
      }

      .cls-2 {
        clip-path: url(#clip-path);
      }

      .cls-3 {
        fill: #393c41;
      }

      .cls-4, .cls-6 {
        stroke: #393c41;
        stroke-linecap: round;
        stroke-linejoin: round;
      }

      .cls-4 {
        stroke-width: 0.6px;
      }

      .cls-5 {
        fill: #fff;
      }
    </style>
    <clipPath id="clip-path">
      <path id="패스_761" data-name="패스 761" class="cls-1" d="M0,0H27.215V-26.176H0Z"/>
    </clipPath>
  </defs>
  <g id="그룹_408" data-name="그룹 408" class="cls-2" transform="translate(0 26.176)">
    <g id="그룹_404" data-name="그룹 404" transform="translate(8.97 -8.395)">
      <path id="패스_757" data-name="패스 757" class="cls-3" d="M0,0-1.256,1.207a1.62,1.62,0,0,1-2.23,0,1.482,1.482,0,0,1,0-2.149l1.251-1.207.031-.03a1.627,1.627,0,0,1,2.2.03A1.482,1.482,0,0,1,0,0M4.46,4.294,3.21,5.5a1.619,1.619,0,0,1-2.231,0,1.472,1.472,0,0,1,0-2.144,1.623,1.623,0,0,1-2.23,0,1.478,1.478,0,0,1,0-2.144L0,0A1.62,1.62,0,0,1,2.23,0a1.483,1.483,0,0,1,0,2.15,1.618,1.618,0,0,1,2.23,0,1.468,1.468,0,0,1,0,2.144M6.8,6.328c-.037.04-.073.08-.11.115L5.439,7.649a1.617,1.617,0,0,1-2.229,0,1.482,1.482,0,0,1,0-2.149L4.46,4.294a1.624,1.624,0,0,1,2.235,0A1.48,1.48,0,0,1,6.8,6.328m7.559-7.27-.015.015a1.6,1.6,0,0,0-.172-.195Zm0,2.149a1.62,1.62,0,0,1-2.23,0,1.475,1.475,0,0,1,0,2.144,1.622,1.622,0,0,1-2.229,0A1.473,1.473,0,0,1,9.9,5.5a1.618,1.618,0,0,1-2.23,0,1.482,1.482,0,0,1,0,2.149,1.618,1.618,0,0,1-2.23,0L6.7,6.443c.037-.035.073-.075.11-.115A1.48,1.48,0,0,0,6.7,4.294a1.624,1.624,0,0,0-2.235,0,1.468,1.468,0,0,0,0-2.144,1.618,1.618,0,0,0-2.23,0A1.483,1.483,0,0,0,2.23,0,1.62,1.62,0,0,0,0,0,1.482,1.482,0,0,0,0-2.149a1.627,1.627,0,0,0-2.2-.03l-.031.03L-3.486-.942-4.6-2.015a7.885,7.885,0,0,1,0-11.454A8.648,8.648,0,0,1,5.439-14.82a8.25,8.25,0,0,0-1.86,1.351L-2-8.1l.74.718a2.167,2.167,0,0,0,2.975,0l2.975-2.862.745.712,8.738,8.413a1.6,1.6,0,0,1,.172.195,1.67,1.67,0,0,1,.015,2.134m1.115-3.222L14.364-.942l-.187-.18L5.439-9.535l-.745-.712L1.719-7.385a2.167,2.167,0,0,1-2.975,0L-2-8.1l5.575-5.366a8.25,8.25,0,0,1,1.86-1.351,8.647,8.647,0,0,1,10.04,1.351,7.883,7.883,0,0,1,0,11.454M.974,3.356,2.23,2.15"/>
    </g>
    <g id="그룹_405" data-name="그룹 405" transform="translate(8.97 -8.395)">
      <path id="패스_758" data-name="패스 758" class="cls-4" d="M0,0-1.256,1.207a1.62,1.62,0,0,1-2.23,0,1.482,1.482,0,0,1,0-2.149l1.251-1.207.031-.03a1.627,1.627,0,0,1,2.2.03A1.482,1.482,0,0,1,0,0ZM4.46,4.294,3.21,5.5a1.619,1.619,0,0,1-2.231,0,1.472,1.472,0,0,1,0-2.144,1.623,1.623,0,0,1-2.23,0,1.478,1.478,0,0,1,0-2.144L0,0A1.62,1.62,0,0,1,2.23,0a1.483,1.483,0,0,1,0,2.15,1.618,1.618,0,0,1,2.23,0A1.468,1.468,0,0,1,4.46,4.294ZM6.8,6.328c-.037.04-.073.08-.11.115L5.439,7.649a1.617,1.617,0,0,1-2.229,0,1.482,1.482,0,0,1,0-2.149L4.46,4.294a1.624,1.624,0,0,1,2.235,0A1.48,1.48,0,0,1,6.8,6.328Zm7.559-7.27-.015.015a1.6,1.6,0,0,0-.172-.195Zm0,2.149a1.62,1.62,0,0,1-2.23,0,1.475,1.475,0,0,1,0,2.144,1.622,1.622,0,0,1-2.229,0A1.473,1.473,0,0,1,9.9,5.5a1.618,1.618,0,0,1-2.23,0,1.482,1.482,0,0,1,0,2.149,1.618,1.618,0,0,1-2.23,0L6.7,6.443c.037-.035.073-.075.11-.115A1.48,1.48,0,0,0,6.7,4.294a1.624,1.624,0,0,0-2.235,0,1.468,1.468,0,0,0,0-2.144,1.618,1.618,0,0,0-2.23,0A1.483,1.483,0,0,0,2.23,0,1.62,1.62,0,0,0,0,0,1.482,1.482,0,0,0,0-2.149a1.627,1.627,0,0,0-2.2-.03l-.031.03L-3.486-.942-4.6-2.015a7.885,7.885,0,0,1,0-11.454A8.648,8.648,0,0,1,5.439-14.82a8.25,8.25,0,0,0-1.86,1.351L-2-8.1l.74.718a2.167,2.167,0,0,0,2.975,0l2.975-2.862.745.712,8.738,8.413a1.6,1.6,0,0,1,.172.195A1.67,1.67,0,0,1,14.364,1.207Zm1.115-3.222L14.364-.942l-.187-.18L5.439-9.535l-.745-.712L1.719-7.385a2.167,2.167,0,0,1-2.975,0L-2-8.1l5.575-5.366a8.25,8.25,0,0,1,1.86-1.351,8.647,8.647,0,0,1,10.04,1.351A7.883,7.883,0,0,1,15.479-2.015ZM.974,3.356,2.23,2.15"/>
    </g>
    <g id="그룹_406" data-name="그룹 406" transform="translate(7.56 -9.843)">
      <path id="패스_759" data-name="패스 759" class="cls-5" d="M0,0-1.255,1.206a1.616,1.616,0,0,1-2.227,0,1.481,1.481,0,0,1,0-2.148l1.249-1.206.031-.03a1.625,1.625,0,0,1,2.2.03A1.483,1.483,0,0,1,0,0M4.456,4.291,3.207,5.5a1.618,1.618,0,0,1-2.228,0A1.472,1.472,0,0,1,.973,3.354a1.623,1.623,0,0,1-2.228-.005,1.477,1.477,0,0,1,0-2.143L0,0A1.618,1.618,0,0,1,2.228,0a1.483,1.483,0,0,1,0,2.148,1.618,1.618,0,0,1,2.228,0,1.469,1.469,0,0,1,0,2.143M6.8,6.324c-.036.04-.073.08-.109.115L5.434,7.645a1.616,1.616,0,0,1-2.227,0,1.481,1.481,0,0,1,0-2.148L4.456,4.291a1.624,1.624,0,0,1,2.233,0A1.478,1.478,0,0,1,6.8,6.324M14.351-.942l-.015.015a1.59,1.59,0,0,0-.172-.194Zm0,2.148a1.618,1.618,0,0,1-2.228,0,1.475,1.475,0,0,1,0,2.143A1.621,1.621,0,0,1,9.9,3.354,1.472,1.472,0,0,1,9.89,5.5a1.618,1.618,0,0,1-2.228,0,1.481,1.481,0,0,1,0,2.148,1.618,1.618,0,0,1-2.228,0L6.689,6.439c.036-.035.073-.075.109-.115a1.478,1.478,0,0,0-.109-2.033,1.624,1.624,0,0,0-2.233,0,1.469,1.469,0,0,0,0-2.143,1.618,1.618,0,0,0-2.228,0A1.483,1.483,0,0,0,2.228,0,1.618,1.618,0,0,0,0,0,1.483,1.483,0,0,0,0-2.148a1.625,1.625,0,0,0-2.2-.03l-.031.03L-3.482-.942-4.6-2.013a7.883,7.883,0,0,1,0-11.448,8.639,8.639,0,0,1,10.031-1.35,8.234,8.234,0,0,0-1.858,1.35L-1.994-8.1l.739.717a2.165,2.165,0,0,0,2.973,0l2.972-2.86.744.712,8.73,8.408a1.59,1.59,0,0,1,.172.194,1.669,1.669,0,0,1,.015,2.133m1.114-3.219L14.351-.942l-.187-.179L5.434-9.529l-.744-.712L1.718-7.381a2.165,2.165,0,0,1-2.973,0L-1.994-8.1l5.57-5.363a8.234,8.234,0,0,1,1.858-1.35,8.638,8.638,0,0,1,10.031,1.35,7.881,7.881,0,0,1,0,11.448M.973,3.354,2.228,2.148"/>
    </g>
    <g id="그룹_407" data-name="그룹 407" transform="translate(7.56 -9.843)">
      <path id="패스_760" data-name="패스 760" class="cls-6" d="M0,0-1.255,1.206a1.616,1.616,0,0,1-2.227,0,1.481,1.481,0,0,1,0-2.148l1.249-1.206.031-.03a1.625,1.625,0,0,1,2.2.03A1.483,1.483,0,0,1,0,0ZM4.456,4.291,3.207,5.5a1.618,1.618,0,0,1-2.228,0A1.472,1.472,0,0,1,.973,3.354a1.623,1.623,0,0,1-2.228-.005,1.477,1.477,0,0,1,0-2.143L0,0A1.618,1.618,0,0,1,2.228,0a1.483,1.483,0,0,1,0,2.148,1.618,1.618,0,0,1,2.228,0A1.469,1.469,0,0,1,4.456,4.291ZM6.8,6.324c-.036.04-.073.08-.109.115L5.434,7.645a1.616,1.616,0,0,1-2.227,0,1.481,1.481,0,0,1,0-2.148L4.456,4.291a1.624,1.624,0,0,1,2.233,0A1.478,1.478,0,0,1,6.8,6.324ZM14.351-.942l-.015.015a1.59,1.59,0,0,0-.172-.194Zm0,2.148a1.618,1.618,0,0,1-2.228,0,1.475,1.475,0,0,1,0,2.143A1.621,1.621,0,0,1,9.9,3.354,1.472,1.472,0,0,1,9.89,5.5a1.618,1.618,0,0,1-2.228,0,1.481,1.481,0,0,1,0,2.148,1.618,1.618,0,0,1-2.228,0L6.689,6.439c.036-.035.073-.075.109-.115a1.478,1.478,0,0,0-.109-2.033,1.624,1.624,0,0,0-2.233,0,1.469,1.469,0,0,0,0-2.143,1.618,1.618,0,0,0-2.228,0A1.483,1.483,0,0,0,2.228,0,1.618,1.618,0,0,0,0,0,1.483,1.483,0,0,0,0-2.148a1.625,1.625,0,0,0-2.2-.03l-.031.03L-3.482-.942-4.6-2.013a7.883,7.883,0,0,1,0-11.448,8.639,8.639,0,0,1,10.031-1.35,8.234,8.234,0,0,0-1.858,1.35L-1.994-8.1l.739.717a2.165,2.165,0,0,0,2.973,0l2.972-2.86.744.712,8.73,8.408a1.59,1.59,0,0,1,.172.194A1.669,1.669,0,0,1,14.351,1.206Zm1.114-3.219L14.351-.942l-.187-.179L5.434-9.529l-.744-.712L1.718-7.381a2.165,2.165,0,0,1-2.973,0L-1.994-8.1l5.57-5.363a8.234,8.234,0,0,1,1.858-1.35,8.638,8.638,0,0,1,10.031,1.35A7.881,7.881,0,0,1,15.465-2.013ZM.973,3.354,2.228,2.148"/>
    </g>
  </g>
</svg>
