<svg id="구성_요소_67_1" data-name="구성 요소 67 – 1" xmlns="http://www.w3.org/2000/svg" xmlns:xlink="http://www.w3.org/1999/xlink" width="31.042" height="27.317" viewBox="0 0 31.042 27.317">
  <defs>
    <style>
      .cls-1, .cls-4 {
        fill: none;
      }

      .cls-2 {
        clip-path: url(#clip-path);
      }

      .cls-3 {
        fill: #393c41;
      }

      .cls-4, .cls-6 {
        stroke: #393c41;
      }

      .cls-5, .cls-6 {
        fill: #fff;
      }
    </style>
    <clipPath id="clip-path">
      <path id="패스_772" data-name="패스 772" class="cls-1" d="M0,0H31.042V-27.317H0Z"/>
    </clipPath>
  </defs>
  <g id="그룹_420" data-name="그룹 420" class="cls-2" transform="translate(0 27.317)">
    <g id="그룹_410" data-name="그룹 410" transform="translate(29.74 -25.514)">
      <path id="패스_762" data-name="패스 762" class="cls-3" d="M0,0C-2.8,1.732-6.336.837-8.914,3.9a4.627,4.627,0,0,0,.492,5.657l1.741.35A5.288,5.288,0,0,0-1.736,8.746C.674,6.339,1.464,2.419,0,0M-10.818,9.859s-.288-2.7-2.094-3.751-6.214-1.073-6.214-1.073,2.057,3.73,3.863,4.779,4.445.045,4.445.045m-7.651,1.977a5.691,5.691,0,0,0-3.387,1.624c-.5.479-1.212,1.174-1.858,1.8l-1.361-1.3L-28.6,17.333l7.834,7.49,3.527-3.374L-18.3,20.442a2.141,2.141,0,0,1,.473-.348,1.189,1.189,0,0,1,.55-.138h8.4c.787-.421,5.645-4.331,5.645-4.331S.07,12.219.723,10.753a3.105,3.105,0,0,0-4.515,1.083l-3.5,2.147a1.686,1.686,0,0,0-1.584-1.065H-12.26c-.776,0-1.956-1.082-2.891-1.082Z"/>
    </g>
    <g id="그룹_411" data-name="그룹 411" transform="translate(29.74 -25.514)">
      <path id="패스_763" data-name="패스 763" class="cls-4" d="M0,0C-2.8,1.732-6.336.837-8.914,3.9a4.627,4.627,0,0,0,.492,5.657l1.741.35A5.288,5.288,0,0,0-1.736,8.746C.674,6.339,1.464,2.419,0,0ZM-10.818,9.859s-.288-2.7-2.094-3.751-6.214-1.073-6.214-1.073,2.057,3.73,3.863,4.779S-10.818,9.859-10.818,9.859Zm-7.651,1.977a5.691,5.691,0,0,0-3.387,1.624c-.5.479-1.212,1.174-1.858,1.8l-1.361-1.3L-28.6,17.333l7.834,7.49,3.527-3.374L-18.3,20.442a2.141,2.141,0,0,1,.473-.348,1.189,1.189,0,0,1,.55-.138h8.4c.787-.421,5.645-4.331,5.645-4.331S.07,12.219.723,10.753a3.105,3.105,0,0,0-4.515,1.083l-3.5,2.147a1.686,1.686,0,0,0-1.584-1.065H-12.26c-.776,0-1.956-1.082-2.891-1.082Z"/>
    </g>
    <g id="그룹_412" data-name="그룹 412" transform="translate(16.374 -20.521)">
      <path id="패스_764" data-name="패스 764" class="cls-5" d="M0,0C1.764,1.019,2.046,3.646,2.046,3.646S-.532,4.621-2.3,3.6-6.069-1.042-6.069-1.042-1.764-1.019,0,0"/>
    </g>
    <g id="그룹_413" data-name="그룹 413" transform="translate(16.374 -20.521)">
      <path id="패스_765" data-name="패스 765" class="cls-4" d="M0,0C1.764,1.019,2.046,3.646,2.046,3.646S-.532,4.621-2.3,3.6-6.069-1.042-6.069-1.042-1.764-1.019,0,0Z"/>
    </g>
    <g id="그룹_414" data-name="그룹 414" transform="translate(29.35 -26.624)">
      <path id="패스_766" data-name="패스 766" class="cls-5" d="M0,0C-2.776,1.71-6.28.827-8.835,3.848a4.556,4.556,0,0,0,.488,5.586l1.725.346a5.254,5.254,0,0,0,4.9-1.143C.668,6.26,1.451,2.389,0,0"/>
    </g>
    <g id="그룹_415" data-name="그룹 415" transform="translate(29.35 -26.624)">
      <path id="패스_767" data-name="패스 767" class="cls-4" d="M0,0C-2.776,1.71-6.28.827-8.835,3.848a4.556,4.556,0,0,0,.488,5.586l1.725.346a5.254,5.254,0,0,0,4.9-1.143C.668,6.26,1.451,2.389,0,0Z"/>
    </g>
    <g id="그룹_416" data-name="그룹 416" transform="translate(21.003 -17.123)">
      <path id="패스_768" data-name="패스 768" class="cls-4" d="M0,0A4.616,4.616,0,0,1-.488-5.627C2.067-8.669,5.57-7.78,8.347-9.5,9.8-7.1,9.015-3.2,6.626-.8A5.228,5.228,0,0,1,1.725.349M-.953,3.176C-.392-1.7,3.419-3.863,6.04-6.019"/>
    </g>
    <g id="그룹_417" data-name="그룹 417" transform="translate(25.541 -14.724)">
      <path id="패스_769" data-name="패스 769" class="cls-5" d="M0,0-3.49,2.128A1.683,1.683,0,0,0-5.071,1.073h-3.38C-9.226,1.073-10.4,0-11.337,0h-3.312A5.7,5.7,0,0,0-18.03,1.609c-1.059,1.009-3.078,2.985-3.38,3.219,1.685,1.387,4.86,4.389,5.634,5.04,1.047-1,1.457-1.821,2.322-1.821h8.383C-4.285,7.63.563,3.755.563,3.755S3.855.38,4.507-1.073A3.112,3.112,0,0,0,0,0"/>
    </g>
    <g id="그룹_418" data-name="그룹 418" transform="translate(25.541 -14.724)">
      <path id="패스_770" data-name="패스 770" class="cls-4" d="M0,0-3.49,2.128A1.683,1.683,0,0,0-5.071,1.073h-3.38C-9.226,1.073-10.4,0-11.337,0h-3.312A5.7,5.7,0,0,0-18.03,1.609c-1.059,1.009-3.078,2.985-3.38,3.219,1.685,1.387,4.86,4.389,5.634,5.04,1.047-1,1.457-1.821,2.322-1.821h8.383C-4.285,7.63.563,3.755.563,3.755S3.855.38,4.507-1.073A3.112,3.112,0,0,0,0,0Z"/>
    </g>
    <g id="그룹_419" data-name="그룹 419" transform="translate(14.836 -10.432)">
      <path id="패스_771" data-name="패스 771" class="cls-6" d="M0,0H5.634A1.651,1.651,0,0,0,7.325-1.609a1.652,1.652,0,0,0-1.691-1.61H2.254C1.479-3.219.3-4.292-.632-4.292H-3.944a5.7,5.7,0,0,0-3.381,1.61C-8.384-1.674-10.4.3-10.7.536c1.685,1.388,4.86,4.39,5.634,5.04,1.047-1,1.457-1.821,2.322-1.821H5.634c.786-.417,5.634-4.291,5.634-4.291s3.292-3.376,3.944-4.829A3.113,3.113,0,0,0,10.7-4.292L7.186-2.146"/>
    </g>
  </g>
  <g id="그룹_421" data-name="그룹 421" transform="translate(0.723 18.13)">
    <path id="패스_773" data-name="패스 773" class="cls-5" d="M0,0,7.709,7.386,11.18,4.06,3.47-3.326Z"/>
  </g>
  <g id="그룹_423" data-name="그룹 423" class="cls-2" transform="translate(0 27.317)">
    <g id="그룹_422" data-name="그룹 422" transform="translate(8.432 -1.801)">
      <path id="패스_774" data-name="패스 774" class="cls-4" d="M0,0,3.471-3.327l-7.71-7.386-3.47,3.326Z"/>
    </g>
  </g>
</svg>
