<svg id="구성_요소_114_1" data-name="구성 요소 114 – 1" xmlns="http://www.w3.org/2000/svg" xmlns:xlink="http://www.w3.org/1999/xlink" width="834.004" height="305.909" viewBox="0 0 834.004 305.909">
  <defs>
    <style>
      .cls-1, .cls-10, .cls-13, .cls-14, .cls-16, .cls-17, .cls-18, .cls-19, .cls-2, .cls-3, .cls-5, .cls-8, .cls-9 {
        fill: none;
      }

      .cls-2, .cls-3, .cls-5 {
        stroke: #42454a;
      }

      .cls-14, .cls-15, .cls-2, .cls-3, .cls-8, .cls-9 {
        stroke-linecap: round;
      }

      .cls-2, .cls-8 {
        stroke-linejoin: round;
      }

      .cls-10, .cls-2, .cls-3, .cls-8, .cls-9 {
        stroke-width: 0.99px;
      }

      .cls-2 {
        stroke-dasharray: 0 2.941;
      }

      .cls-4 {
        fill: #a0c0ea;
      }

      .cls-6 {
        fill: #132d53;
      }

      .cls-12, .cls-20, .cls-7 {
        fill: #fff;
      }

      .cls-10, .cls-8, .cls-9 {
        stroke: #5e6366;
      }

      .cls-8 {
        stroke-dasharray: 0 3.067;
      }

      .cls-11 {
        fill: #393c41;
      }

      .cls-12, .cls-13, .cls-14, .cls-15, .cls-17, .cls-18, .cls-19, .cls-20 {
        stroke: #393c41;
      }

      .cls-12, .cls-13, .cls-14, .cls-15, .cls-17, .cls-18 {
        stroke-miterlimit: 10;
      }

      .cls-15 {
        fill: #ebeff5;
      }

      .cls-16 {
        stroke: #2b2e34;
      }

      .cls-17 {
        stroke-width: 0.85px;
      }

      .cls-18 {
        stroke-width: 1.165px;
      }

      .cls-21 {
        clip-path: url(#clip-path);
      }

      .cls-22, .cls-24 {
        fill: #171a1b;
      }

      .cls-23, .cls-25 {
        fill: #335998;
      }

      .cls-24, .cls-25 {
        font-size: 15px;
        font-family: NotoSansKR-Light, Noto Sans KR;
        font-weight: 300;
      }

      .cls-26 {
        letter-spacing: -0.004em;
      }
    </style>
    <clipPath id="clip-path">
      <path id="패스_1528" data-name="패스 1528" class="cls-1" d="M0,0H9.491V-5.354H0Z"/>
    </clipPath>
  </defs>
  <path id="패스_604" data-name="패스 604" class="cls-2" d="M0,0A89.865,89.865,0,0,0,88.345,86.91" transform="translate(14.828 96.779)"/>
  <path id="패스_605" data-name="패스 605" class="cls-2" d="M0,0A89.865,89.865,0,0,0,86.91-88.345" transform="translate(107.584 183.654)"/>
  <path id="패스_606" data-name="패스 606" class="cls-3" d="M-26.457,63.679h0m89.863,89.862h0m89.862-89.862h0" transform="translate(41.238 30.16)"/>
  <path id="패스_607" data-name="패스 607" class="cls-4" d="M0,0A71.42,71.42,0,0,0,71.42-71.42,71.42,71.42,0,0,0,0-142.841,71.42,71.42,0,0,0-71.42-71.42,71.42,71.42,0,0,0,0,0" transform="translate(104.643 165.259)"/>
  <path id="패스_608" data-name="패스 608" class="cls-4" d="M0,0A71.42,71.42,0,0,0,71.42-71.42,71.42,71.42,0,0,0,0-142.841,71.42,71.42,0,0,0-71.42-71.42,71.42,71.42,0,0,0,0,0" transform="translate(527.54 165.259)"/>
  <path id="패스_609" data-name="패스 609" class="cls-4" d="M0,0A71.42,71.42,0,0,0,71.42-71.42,71.42,71.42,0,0,0,0-142.841,71.42,71.42,0,0,0-71.42-71.42,71.42,71.42,0,0,0,0,0" transform="translate(316.028 165.259)"/>
  <path id="패스_610" data-name="패스 610" class="cls-4" d="M0,0A71.42,71.42,0,0,0,71.42-71.42,71.42,71.42,0,0,0,0-142.841,71.42,71.42,0,0,0-71.42-71.42,71.42,71.42,0,0,0,0,0" transform="translate(738.925 165.259)"/>
  <path id="패스_613" data-name="패스 613" class="cls-2" d="M0,0A89.865,89.865,0,0,0,88.345,86.91" transform="translate(437.725 96.779)"/>
  <path id="패스_614" data-name="패스 614" class="cls-2" d="M0,0A89.865,89.865,0,0,0,86.91-88.345" transform="translate(530.48 183.654)"/>
  <path id="패스_615" data-name="패스 615" class="cls-3" d="M0,0H0M89.862,89.862h0M179.724,0h0" transform="translate(437.678 93.839)"/>
  <path id="패스_616" data-name="패스 616" class="cls-2" d="M0,0A89.865,89.865,0,0,1,88.345-86.91" transform="translate(226.213 92.068)"/>
  <path id="패스_617" data-name="패스 617" class="cls-2" d="M0,0A89.865,89.865,0,0,1,86.91,88.345" transform="translate(318.969 5.193)"/>
  <path id="패스_618" data-name="패스 618" class="cls-3" d="M0,0H0M89.862-89.862h0M179.725,0h0" transform="translate(226.166 95.009)"/>
  <path id="패스_619" data-name="패스 619" class="cls-2" d="M0,0A89.865,89.865,0,0,1,88.345-86.91" transform="translate(649.11 92.068)"/>
  <path id="패스_620" data-name="패스 620" class="cls-2" d="M0,0A89.865,89.865,0,0,1,86.91,88.345" transform="translate(741.865 5.193)"/>
  <path id="패스_621" data-name="패스 621" class="cls-3" d="M0,0H0M89.862-89.862h0M179.724,0h0" transform="translate(649.063 95.009)"/>
  <path id="패스_623" data-name="패스 623" class="cls-5" d="M0,0V12" transform="translate(101 192.691)"/>
  <path id="패스_624" data-name="패스 624" class="cls-5" d="M0,0V12" transform="translate(527.045 192.691)"/>
  <path id="패스_625" data-name="패스 625" class="cls-5" d="M0,0V12" transform="translate(315.533 192.691)"/>
  <path id="패스_626" data-name="패스 626" class="cls-5" d="M0,0V12" transform="translate(739.42 192.691)"/>
  <path id="패스_627" data-name="패스 627" class="cls-6" d="M0,0A14.772,14.772,0,0,0,14.772-14.772,14.772,14.772,0,0,0,0-29.543,14.772,14.772,0,0,0-14.772-14.772,14.772,14.772,0,0,0,0,0" transform="translate(14.772 108.61)"/>
  <path id="패스_1234" data-name="패스 1234" class="cls-7" d="M1.29,0h6.3V-1.425H5.43V-11.04h-1.3a6.782,6.782,0,0,1-2.4.84v1.1H3.7v7.68H1.29Z" transform="translate(10.54 99.502)"/>
  <g id="그룹_281" data-name="그룹 281" transform="translate(201.038 93.839)">
    <path id="패스_629" data-name="패스 629" class="cls-8" d="M0,0H26.07"/>
  </g>
  <g id="그룹_282" data-name="그룹 282" transform="translate(197.971 93.839)">
    <path id="패스_630" data-name="패스 630" class="cls-9" d="M0,0H0M30.67,0h0"/>
  </g>
  <g id="그룹_283" data-name="그룹 283" transform="translate(620.964 93.839)">
    <path id="패스_631" data-name="패스 631" class="cls-8" d="M0,0H26.07"/>
  </g>
  <g id="그룹_284" data-name="그룹 284" transform="translate(617.897 93.839)">
    <path id="패스_632" data-name="패스 632" class="cls-9" d="M0,0H0M30.67,0h0"/>
  </g>
  <g id="그룹_285" data-name="그룹 285" transform="translate(411.055 95.117)">
    <path id="패스_633" data-name="패스 633" class="cls-8" d="M0,0H26.07"/>
  </g>
  <g id="그룹_286" data-name="그룹 286" transform="translate(407.987 95.117)">
    <path id="패스_634" data-name="패스 634" class="cls-9" d="M0,0H0M30.67,0h0"/>
  </g>
  <path id="패스_635" data-name="패스 635" class="cls-6" d="M0,0A14.772,14.772,0,0,0,14.772-14.772,14.772,14.772,0,0,0,0-29.543,14.772,14.772,0,0,0-14.772-14.772,14.772,14.772,0,0,0,0,0" transform="translate(225.186 106.852)"/>
  <path id="패스_1259" data-name="패스 1259" class="cls-7" d="M.66,0H7.785V-1.47H5.025c-.54,0-1.23.045-1.8.1C5.565-3.6,7.26-5.8,7.26-7.935A3.122,3.122,0,0,0,3.93-11.25,4.332,4.332,0,0,0,.57-9.6l.975.96A2.994,2.994,0,0,1,3.72-9.87,1.8,1.8,0,0,1,5.595-7.845C5.595-6.03,3.915-3.885.66-1Z" transform="translate(220.954 97.743)"/>
  <path id="패스_637" data-name="패스 637" class="cls-6" d="M0,0A14.772,14.772,0,0,0,14.772-14.772,14.772,14.772,0,0,0,0-29.543,14.772,14.772,0,0,0-14.772-14.772,14.772,14.772,0,0,0,0,0" transform="translate(430.018 109.889)"/>
  <path id="패스_1257" data-name="패스 1257" class="cls-7" d="M4.02.2C6.045.2,7.71-.975,7.71-2.97A2.8,2.8,0,0,0,5.43-5.73V-5.8A2.668,2.668,0,0,0,7.335-8.4c0-1.83-1.395-2.85-3.375-2.85A4.653,4.653,0,0,0,.8-9.915l.9,1.08a3.233,3.233,0,0,1,2.2-1.05,1.545,1.545,0,0,1,1.695,1.6c0,1.11-.72,1.935-2.895,1.935V-5.07c2.49,0,3.27.8,3.27,2.025a1.854,1.854,0,0,1-2.1,1.83A3.568,3.568,0,0,1,1.26-2.43L.42-1.32A4.582,4.582,0,0,0,4.02.2Z" transform="translate(425.786 100.78)"/>
  <path id="패스_639" data-name="패스 639" class="cls-6" d="M0,0A14.772,14.772,0,0,0,14.772-14.772,14.772,14.772,0,0,0,0-29.543,14.772,14.772,0,0,0-14.772-14.772,14.772,14.772,0,0,0,0,0" transform="translate(642.701 109.889)"/>
  <path id="패스_1258" data-name="패스 1258" class="cls-7" d="M2.04-4.3l2.175-3.33c.315-.57.615-1.14.885-1.695h.06c-.03.6-.09,1.53-.09,2.13V-4.3Zm6.06,0H6.69V-11.04h-2L.3-4.125V-2.97H5.07V0H6.69V-2.97H8.1Z" transform="translate(638.469 100.78)"/>
  <path id="패스_641" data-name="패스 641" class="cls-10" d="M0,0-4.4,4.308-8.8,0" transform="translate(833.658 95.095)"/>
  <g id="그룹_871" data-name="그룹 871" transform="translate(-682 -1068.286)">
    <path id="패스_644" data-name="패스 644" class="cls-11" d="M0,0V-19.426l-34.033.213v5.574h-8.7L-51-4.052V9.523h5.278a5.411,5.411,0,0,0-.322,1.783,5.481,5.481,0,0,0,5.481,5.481,5.481,5.481,0,0,0,5.481-5.481A5.437,5.437,0,0,0-35.4,9.523h19.558a5.411,5.411,0,0,0-.322,1.783,5.48,5.48,0,0,0,5.48,5.481,5.48,5.48,0,0,0,5.481-5.481,5.437,5.437,0,0,0-.321-1.783H0Z" transform="translate(810.467 1144.654)"/>
    <path id="패스_646" data-name="패스 646" class="cls-12" d="M92.5-208.715h34v-20.062h-34Z" transform="translate(682 1354.874)"/>
    <path id="패스_647" data-name="패스 647" class="cls-12" d="M90.958-201.566h35.435v-9.572H90.958Z" transform="translate(682 1354.874)"/>
    <path id="패스_648" data-name="패스 648" class="cls-7" d="M0,0A5.5,5.5,0,0,1-5.506,5.505,5.5,5.5,0,0,1-11.011,0a5.506,5.506,0,0,1,5.5-5.506A5.506,5.506,0,0,1,0,0" transform="translate(803.186 1155.067)"/>
    <path id="패스_649" data-name="패스 649" class="cls-13" d="M0,0A5.5,5.5,0,0,1-5.506,5.505,5.5,5.5,0,0,1-11.011,0a5.506,5.506,0,0,1,5.5-5.506A5.506,5.506,0,0,1,0,0Z" transform="translate(803.186 1155.067)"/>
    <g id="그룹_301" data-name="그룹 301" transform="translate(757.343 1139.704)">
      <path id="패스_651" data-name="패스 651" class="cls-7" d="M0,0V13.6H17.017V-9.607H8.29Z"/>
    </g>
    <g id="그룹_302" data-name="그룹 302" transform="translate(757.343 1139.704)">
      <path id="패스_652" data-name="패스 652" class="cls-13" d="M0,0V13.6H17.017V-9.607H8.29Z"/>
    </g>
    <g id="그룹_303" data-name="그룹 303" transform="translate(769.689 1131.695)">
      <path id="패스_653" data-name="패스 653" class="cls-12" d="M0,0V10.709H-10.747"/>
    </g>
    <path id="패스_654" data-name="패스 654" class="cls-7" d="M0,0A5.5,5.5,0,0,1-5.505,5.505,5.5,5.5,0,0,1-11.011,0,5.506,5.506,0,0,1-5.505-5.506,5.506,5.506,0,0,1,0,0" transform="translate(773.311 1155.067)"/>
    <path id="패스_655" data-name="패스 655" class="cls-13" d="M0,0A5.5,5.5,0,0,1-5.505,5.505,5.5,5.5,0,0,1-11.011,0,5.506,5.506,0,0,1-5.505-5.506,5.506,5.506,0,0,1,0,0Z" transform="translate(773.311 1155.067)"/>
    <path id="패스_656" data-name="패스 656" class="cls-7" d="M0,0A2.853,2.853,0,0,1-2.853,2.853,2.853,2.853,0,0,1-5.707,0,2.853,2.853,0,0,1-2.853-2.853,2.853,2.853,0,0,1,0,0" transform="translate(770.658 1154.887)"/>
    <path id="패스_657" data-name="패스 657" class="cls-13" d="M0,0A2.853,2.853,0,0,1-2.853,2.853,2.853,2.853,0,0,1-5.707,0,2.853,2.853,0,0,1-2.853-2.853,2.853,2.853,0,0,1,0,0Z" transform="translate(770.658 1154.887)"/>
    <path id="패스_658" data-name="패스 658" class="cls-7" d="M0,0A2.853,2.853,0,0,1-2.853,2.853,2.853,2.853,0,0,1-5.707,0,2.853,2.853,0,0,1-2.853-2.853,2.853,2.853,0,0,1,0,0" transform="translate(800.534 1154.887)"/>
    <path id="패스_659" data-name="패스 659" class="cls-13" d="M0,0A2.853,2.853,0,0,1-2.853,2.853,2.853,2.853,0,0,1-5.707,0,2.853,2.853,0,0,1-2.853-2.853,2.853,2.853,0,0,1,0,0Z" transform="translate(800.534 1154.887)"/>
  </g>
  <g id="그룹_874" data-name="그룹 874" transform="translate(-682.596 -1065.286)">
    <path id="패스_660" data-name="패스 660" class="cls-11" d="M.562.138H-2.683a.508.508,0,0,1-.5-.4Q-3.734-2.81-4.287-5.358L-10-6.793l-2.1,2.123a.508.508,0,0,1-.451.143.509.509,0,0,1-.373-.288l-1.406-3.061h-5.825l-1.377,3a.513.513,0,0,1-.36.287.511.511,0,0,1-.445-.123q-.369-.334-.739-.672l-4.2,1.3q-.475,1.922-.95,3.841a.509.509,0,0,1-.495.387h-3.295v4.7h1.448a.51.51,0,0,1,.509.488L-28.977,31.5a12.99,12.99,0,0,0,2.12.958c.629.178,7.6.386,10.813.323.889.017,2.274.012,3.8-.01a.434.434,0,0,1,.183-.045c1.413-.02,2.858,0,4.1.016l.3,0c1.343.019,2.732.041,2.981-.02.629-.177.876-1.008.878-1.017l.272-5.051L-2,5.314A.51.51,0,0,1-1.5,4.841H.562Z" transform="translate(1440.554 1125.504)"/>
    <path id="패스_661" data-name="패스 661" class="cls-14" d="M.562.138H-2.683a.508.508,0,0,1-.5-.4Q-3.734-2.81-4.287-5.358L-10-6.793l-2.1,2.123a.508.508,0,0,1-.451.143.509.509,0,0,1-.373-.288l-1.406-3.061h-5.825l-1.377,3a.513.513,0,0,1-.36.287.511.511,0,0,1-.445-.123q-.369-.334-.739-.672l-4.2,1.3q-.475,1.922-.95,3.841a.509.509,0,0,1-.495.387h-3.295v4.7h1.448a.51.51,0,0,1,.509.488L-28.977,31.5a12.99,12.99,0,0,0,2.12.958c.629.178,7.6.386,10.813.323.889.017,2.274.012,3.8-.01a.434.434,0,0,1,.183-.045c1.413-.02,2.858,0,4.1.016l.3,0c1.343.019,2.732.041,2.981-.02.629-.177.876-1.008.878-1.017l.272-5.051L-2,5.314A.51.51,0,0,1-1.5,4.841H.562Z" transform="translate(1440.554 1125.504)"/>
    <path id="패스_662" data-name="패스 662" class="cls-15" d="M.281.2l-2.1-9.644a.507.507,0,0,0-.372-.386l-6.3-1.584a.51.51,0,0,0-.485.135l-7.06,7.138" transform="translate(1436.973 1127.575)"/>
    <path id="패스_663" data-name="패스 663" class="cls-15" d="M.226.091-5.448-5.06a.508.508,0,0,0-.491-.11L-10.693-3.7a.507.507,0,0,0-.344.364l-1.85,7.473" transform="translate(1421.36 1122.738)"/>
    <path id="패스_664" data-name="패스 664" class="cls-15" d="M.3.2-4.824-10.966a.509.509,0,0,0-.463-.3h-6.478a.51.51,0,0,0-.463.3L-17.353.195" transform="translate(1429.803 1126.382)"/>
    <path id="패스_665" data-name="패스 665" class="cls-7" d="M0,0,0,.029l-.042-.07L2.711,30.82a2.09,2.09,0,0,0,1.236,1.374c.768.216,8.108.4,10.962.342.914.017,2.39.011,4-.013l-.024-.042c3.407-.051,7,.128,7.518-.018a2.087,2.087,0,0,0,1.232-1.371l.289-5.16L29.774,0Z" transform="translate(1407.575 1124.766)"/>
    <path id="패스_666" data-name="패스 666" class="cls-14" d="M0,0,0,.029l-.042-.07L2.711,30.82a2.09,2.09,0,0,0,1.236,1.374c.768.216,8.108.4,10.962.342.914.017,2.39.011,4-.013l-.024-.042c3.407-.051,7,.128,7.518-.018a2.087,2.087,0,0,0,1.232-1.371l.289-5.16L29.774,0Z" transform="translate(1407.575 1124.766)"/>
    <path id="패스_668" data-name="패스 668" class="cls-15" d="M724.5-219.176h32.579v-4.7H724.5Z" transform="translate(682 1348.03)"/>
    <g id="그룹_318" data-name="그룹 318" transform="translate(1416.273 1134.262)">
      <path id="패스_669" data-name="패스 669" class="cls-7" d="M0,.088,2.912-5H8.9l1.518,2.544.943-.3L9.721.554H5.948l.779-.678-.82-1.187L3.486,2.8Z" transform="translate(0 4.999)"/>
    </g>
    <g id="그룹_319" data-name="그룹 319" transform="translate(1416.273 1134.262)">
      <path id="패스_670" data-name="패스 670" class="cls-16" d="M0,.088,2.912-5H8.9l1.518,2.544.943-.3L9.721.554H5.948l.779-.678-.82-1.187L3.486,2.8Z" transform="translate(0 4.999)"/>
    </g>
    <g id="그룹_320" data-name="그룹 320" transform="translate(1423.721 1139.86)">
      <path id="패스_671" data-name="패스 671" class="cls-7" d="M.078,0,3.316,4.871.794,10.484l-2.871.351-.136,1.009L-4.425,8.915l1.588-3.537.268,1.017,1.387-.27-2.59-4Z" transform="translate(4.425)"/>
    </g>
    <g id="그룹_321" data-name="그룹 321" transform="translate(1423.721 1139.86)">
      <path id="패스_672" data-name="패스 672" class="cls-16" d="M.078,0,3.316,4.871.794,10.484l-2.871.351-.136,1.009L-4.425,8.915l1.588-3.537.268,1.017,1.387-.27-2.59-4Z" transform="translate(4.425)"/>
    </g>
    <g id="그룹_322" data-name="그룹 322" transform="translate(1412.955 1142.006)">
      <path id="패스_673" data-name="패스 673" class="cls-7" d="M.156.15-5.608.364l-3.261-5.2,1.263-2.689-.757-.659,3.608-.357L-2.7-5.266l-.981-.311L-4.21-4.225.485-4.34Z" transform="translate(8.869 8.542)"/>
    </g>
    <g id="그룹_323" data-name="그룹 323" transform="translate(1412.955 1142.006)">
      <path id="패스_674" data-name="패스 674" class="cls-16" d="M.156.15-5.608.364l-3.261-5.2,1.263-2.689-.757-.659,3.608-.357L-2.7-5.266l-.981-.311L-4.21-4.225.485-4.34Z" transform="translate(8.869 8.542)"/>
    </g>
  </g>
  <g id="그룹_872" data-name="그룹 872" transform="translate(-685 -1072.286)">
    <path id="패스_675" data-name="패스 675" class="cls-11" d="M1.5.627A11.8,11.8,0,0,0,.637-1.409L.481-1.7.717-1.94l1.6-1.6L-2.016-7.878-3.575-6.32l-.238.238-.3-.161a11.394,11.394,0,0,0-2.079-.85l-.318-.1V-9.738h-6.132v2.572l-.314.1a12.414,12.414,0,0,0-2.058.853l-.3.158-.236-.236-1.586-1.586-4.336,4.336q.794.792,1.586,1.586l.237.236-.159.3A12.415,12.415,0,0,0-20.651.634l-.1.314h-2.572V7.08h2.579l.1.32a11.789,11.789,0,0,0,.865,2.035l.156.295-.236.236-1.6,1.6,4.336,4.336,1.558-1.558.238-.238.3.161a11.471,11.471,0,0,0,2.078.85l.318.1v2.547h6.132V15.194l.314-.1a12.286,12.286,0,0,0,2.058-.853l.3-.158.236.237q.794.794,1.586,1.586L2.32,11.57.734,9.984.5,9.747l.158-.3a12.545,12.545,0,0,0,.853-2.058l.1-.314H4.18V.948H1.6Z" transform="translate(1020.962 1140.936)"/>
    <path id="패스_676" data-name="패스 676" class="cls-17" d="M1.5.627A11.8,11.8,0,0,0,.637-1.409L.481-1.7.717-1.94l1.6-1.6L-2.016-7.878-3.575-6.32l-.238.238-.3-.161a11.394,11.394,0,0,0-2.079-.85l-.318-.1V-9.738h-6.132v2.572l-.314.1a12.414,12.414,0,0,0-2.058.853l-.3.158-.236-.236-1.586-1.586-4.336,4.336q.794.792,1.586,1.586l.237.236-.159.3A12.415,12.415,0,0,0-20.651.634l-.1.314h-2.572V7.08h2.579l.1.32a11.789,11.789,0,0,0,.865,2.035l.156.295-.236.236-1.6,1.6,4.336,4.336,1.558-1.558.238-.238.3.161a11.471,11.471,0,0,0,2.078.85l.318.1v2.547h6.132V15.194l.314-.1a12.286,12.286,0,0,0,2.058-.853l.3-.158.236.237q.794.794,1.586,1.586L2.32,11.57.734,9.984.5,9.747l.158-.3a12.545,12.545,0,0,0,.853-2.058l.1-.314H4.18V.948H1.6Z" transform="translate(1020.962 1140.936)"/>
    <path id="패스_677" data-name="패스 677" class="cls-11" d="M.987,1.334V-20.7H-9.07V1.334q-3.126,7.7-6.251,15.405H7.236Q4.128,9.122,1.02,1.505L.987,1.422Z" transform="translate(1000.06 1146.555)"/>
    <path id="패스_678" data-name="패스 678" class="cls-17" d="M.987,1.334V-20.7H-9.07V1.334q-3.126,7.7-6.251,15.405H7.236Q4.128,9.122,1.02,1.505L.987,1.422Z" transform="translate(1000.06 1146.555)"/>
    <path id="패스_679" data-name="패스 679" class="cls-7" d="M.986,1.26V-19.555H-9.071V1.26q-3.118,7.2-6.234,14.406H7.218L1.023,1.441.986,1.355Z" transform="translate(998.065 1145.208)"/>
    <path id="패스_680" data-name="패스 680" class="cls-17" d="M.986,1.26V-19.555H-9.071V1.26q-3.118,7.2-6.234,14.406H7.218L1.023,1.441.986,1.355Z" transform="translate(998.065 1145.208)"/>
    <g id="그룹_331" data-name="그룹 331" transform="translate(985.771 1125.653)">
      <path id="패스_682" data-name="패스 682" class="cls-17" d="M0,0H16.5"/>
    </g>
    <g id="그룹_332" data-name="그룹 332" transform="translate(988.66 1146.454)">
      <path id="패스_683" data-name="패스 683" class="cls-17" d="M0,0H10.9"/>
    </g>
    <g id="그룹_333" data-name="그룹 333" transform="translate(988.571 1129.758)">
      <path id="패스_684" data-name="패스 684" class="cls-17" d="M0,0H5.339"/>
    </g>
    <g id="그룹_334" data-name="그룹 334" transform="translate(988.571 1133.659)">
      <path id="패스_685" data-name="패스 685" class="cls-17" d="M0,0H5.339"/>
    </g>
    <g id="그룹_335" data-name="그룹 335" transform="translate(988.571 1137.559)">
      <path id="패스_686" data-name="패스 686" class="cls-17" d="M0,0H5.339"/>
    </g>
    <path id="패스_687" data-name="패스 687" class="cls-7" d="M1.32.653A12.23,12.23,0,0,0,.414-1.483L2.355-3.426-2.671-8.452l-1.9,1.9A12.1,12.1,0,0,0-6.75-7.449v-2.692h-7.108v2.722a13.011,13.011,0,0,0-2.153.893l-1.924-1.926L-20.5-5.893V9.442l3.028,6.955,1.427-1.427a12.093,12.093,0,0,0,2.181.894v2.692H-6.75V15.834A13.007,13.007,0,0,0-4.6,14.942l1.926,1.924,5.026-5.026L.431,9.915a13.011,13.011,0,0,0,.893-2.153H4.045V.653Z" transform="translate(1019.999 1137.026)"/>
    <path id="패스_688" data-name="패스 688" class="cls-18" d="M1.32.653A12.23,12.23,0,0,0,.414-1.483L2.355-3.426-2.671-8.452l-1.9,1.9A12.1,12.1,0,0,0-6.75-7.449v-2.692h-7.108v2.722a13.011,13.011,0,0,0-2.153.893l-1.924-1.926L-20.5-5.893V9.442l3.028,6.955,1.427-1.427a12.093,12.093,0,0,0,2.181.894v2.692H-6.75V15.834A13.007,13.007,0,0,0-4.6,14.942l1.926,1.924,5.026-5.026L.431,9.915a13.011,13.011,0,0,0,.893-2.153H4.045V.653Z" transform="translate(1019.999 1137.026)"/>
    <path id="패스_689" data-name="패스 689" class="cls-4" d="M.441.882A7.282,7.282,0,0,0,7.723-6.4,7.282,7.282,0,0,0,.441-13.683,7.282,7.282,0,0,0-6.841-6.4,7.282,7.282,0,0,0,.441.882" transform="translate(1009.254 1147.634)"/>
    <path id="패스_690" data-name="패스 690" class="cls-18" d="M.441.882A7.282,7.282,0,0,0,7.723-6.4,7.282,7.282,0,0,0,.441-13.683,7.282,7.282,0,0,0-6.841-6.4,7.282,7.282,0,0,0,.441.882Z" transform="translate(1009.254 1147.634)"/>
  </g>
  <g id="그룹_873" data-name="그룹 873" transform="translate(-682 -1069.309)">
    <g id="그룹_341" data-name="그룹 341" transform="translate(1200.493 1124.215)">
      <path id="패스_692" data-name="패스 692" class="cls-11" d="M1.767.294H-6.839V-3.818H-22.973V10.758H1.767Z" transform="translate(22.973 3.818)"/>
    </g>
    <g id="그룹_342" data-name="그룹 342" transform="translate(1200.493 1124.215)">
      <path id="패스_693" data-name="패스 693" class="cls-19" d="M1.767.294H-6.839V-3.818H-22.973V10.758H1.767Z" transform="translate(22.973 3.818)"/>
    </g>
    <path id="패스_694" data-name="패스 694" class="cls-20" d="M516.387-216.622h16.134V-231.2H516.387Z" transform="translate(683.029 1354.874)"/>
    <path id="패스_695" data-name="패스 695" class="cls-20" d="M524.378-216.916h16.134V-227.38H524.378Z" transform="translate(683.644 1355.168)"/>
    <g id="그룹_343" data-name="그룹 343" transform="translate(1196.052 1138.022)">
      <path id="패스_696" data-name="패스 696" class="cls-11" d="M0,0,4.72,17.186H29.992L34.556,0Z"/>
    </g>
    <g id="그룹_344" data-name="그룹 344" transform="translate(1196.052 1138.022)">
      <path id="패스_697" data-name="패스 697" class="cls-19" d="M0,0,4.72,17.186H29.992L34.556,0Z"/>
    </g>
    <g id="그룹_345" data-name="그룹 345" transform="translate(1194.975 1137.484)">
      <path id="패스_698" data-name="패스 698" class="cls-7" d="M0,0,4.72,17.186H29.992L34.556,0Z"/>
    </g>
    <g id="그룹_346" data-name="그룹 346" transform="translate(1194.975 1137.484)">
      <path id="패스_699" data-name="패스 699" class="cls-19" d="M0,0,4.72,17.186H29.992L34.556,0Z"/>
    </g>
    <path id="패스_700" data-name="패스 700" class="cls-11" d="M.461.231A3.23,3.23,0,0,1-2.769,3.461,3.23,3.23,0,0,1-6,.231,3.23,3.23,0,0,1-2.769-3,3.23,3.23,0,0,1,.461.231" transform="translate(1223.309 1162.556)"/>
    <path id="패스_701" data-name="패스 701" class="cls-13" d="M.461.231A3.23,3.23,0,0,1-2.769,3.461,3.23,3.23,0,0,1-6,.231,3.23,3.23,0,0,1-2.769-3,3.23,3.23,0,0,1,.461.231Z" transform="translate(1223.309 1162.556)"/>
    <path id="패스_702" data-name="패스 702" class="cls-11" d="M.461.231A3.23,3.23,0,0,1-2.769,3.461,3.23,3.23,0,0,1-6,.231,3.23,3.23,0,0,1-2.769-3,3.23,3.23,0,0,1,.461.231" transform="translate(1209.072 1162.556)"/>
    <path id="패스_703" data-name="패스 703" class="cls-13" d="M.461.231A3.23,3.23,0,0,1-2.769,3.461,3.23,3.23,0,0,1-6,.231,3.23,3.23,0,0,1-2.769-3,3.23,3.23,0,0,1,.461.231Z" transform="translate(1209.072 1162.556)"/>
    <g id="그룹_352" data-name="그룹 352" transform="translate(1185.002 1134.238)">
      <path id="패스_705" data-name="패스 705" class="cls-19" d="M2.96,1.885H-22.347L-29.232-24.5-38.5-24.51" transform="translate(38.5 24.51)"/>
    </g>
    <path id="패스_706" data-name="패스 706" class="cls-7" d="M.461.231A3.23,3.23,0,0,1-2.769,3.461,3.23,3.23,0,0,1-6,.231,3.23,3.23,0,0,1-2.769-3,3.23,3.23,0,0,1,.461.231" transform="translate(1222.77 1162.017)"/>
    <path id="패스_707" data-name="패스 707" class="cls-13" d="M.461.231A3.23,3.23,0,0,1-2.769,3.461,3.23,3.23,0,0,1-6,.231,3.23,3.23,0,0,1-2.769-3,3.23,3.23,0,0,1,.461.231Z" transform="translate(1222.77 1162.017)"/>
    <path id="패스_708" data-name="패스 708" class="cls-7" d="M.461.231A3.23,3.23,0,0,1-2.769,3.461,3.23,3.23,0,0,1-6,.231,3.23,3.23,0,0,1-2.769-3,3.23,3.23,0,0,1,.461.231" transform="translate(1208.534 1162.017)"/>
    <path id="패스_709" data-name="패스 709" class="cls-13" d="M.461.231A3.23,3.23,0,0,1-2.769,3.461,3.23,3.23,0,0,1-6,.231,3.23,3.23,0,0,1-2.769-3,3.23,3.23,0,0,1,.461.231Z" transform="translate(1208.534 1162.017)"/>
    <path id="패스_710" data-name="패스 710" class="cls-7" d="M.224.112A1.566,1.566,0,0,1-1.342,1.678,1.567,1.567,0,0,1-2.909.112,1.567,1.567,0,0,1-1.342-1.454,1.566,1.566,0,0,1,.224.112" transform="translate(1221.343 1162.136)"/>
    <path id="패스_711" data-name="패스 711" class="cls-13" d="M.224.112A1.566,1.566,0,0,1-1.342,1.678,1.567,1.567,0,0,1-2.909.112,1.567,1.567,0,0,1-1.342-1.454,1.566,1.566,0,0,1,.224.112Z" transform="translate(1221.343 1162.136)"/>
    <path id="패스_712" data-name="패스 712" class="cls-7" d="M.224.112A1.566,1.566,0,0,1-1.342,1.678,1.567,1.567,0,0,1-2.909.112,1.567,1.567,0,0,1-1.342-1.454,1.566,1.566,0,0,1,.224.112" transform="translate(1207.107 1162.136)"/>
    <path id="패스_713" data-name="패스 713" class="cls-13" d="M.224.112A1.566,1.566,0,0,1-1.342,1.678,1.567,1.567,0,0,1-2.909.112,1.567,1.567,0,0,1-1.342-1.454,1.566,1.566,0,0,1,.224.112Z" transform="translate(1207.107 1162.136)"/>
    <g id="그룹_362" data-name="그룹 362" transform="translate(1196.309 1142.87)">
      <path id="패스_715" data-name="패스 715" class="cls-19" d="M0,0H31.632"/>
    </g>
    <g id="그룹_363" data-name="그룹 363" transform="translate(1197.932 1148.256)">
      <path id="패스_716" data-name="패스 716" class="cls-19" d="M0,0H28.638"/>
    </g>
    <g id="그룹_364" data-name="그룹 364" transform="translate(1217.597 1136.942)">
      <path id="패스_717" data-name="패스 717" class="cls-19" d="M.09,0-1.176,18.27" transform="translate(1.176)"/>
    </g>
    <g id="그룹_365" data-name="그룹 365" transform="translate(1206.461 1136.942)">
      <path id="패스_718" data-name="패스 718" class="cls-19" d="M0,0,1.266,18.27"/>
    </g>
  </g>
  <g id="그룹_857" data-name="그룹 857" class="cls-21" transform="translate(105.354 188.491) rotate(-90)">
    <g id="그룹_856" data-name="그룹 856" transform="translate(9.144 -5.001)">
      <path id="패스_1527" data-name="패스 1527" class="cls-10" d="M0,0-4.4,4.308-8.8,0"/>
    </g>
  </g>
  <g id="그룹_859" data-name="그룹 859" transform="translate(317.423 9.491) rotate(-90)">
    <g id="그룹_857-2" data-name="그룹 857" class="cls-21">
      <g id="그룹_856-2" data-name="그룹 856" transform="translate(9.144 -5.001)">
        <path id="패스_1527-2" data-name="패스 1527" class="cls-10" d="M0,0-4.4,4.308-8.8,0"/>
      </g>
    </g>
  </g>
  <g id="그룹_860" data-name="그룹 860" transform="translate(530.423 188.491) rotate(-90)">
    <g id="그룹_857-3" data-name="그룹 857" class="cls-21">
      <g id="그룹_856-3" data-name="그룹 856" transform="translate(9.144 -5.001)">
        <path id="패스_1527-3" data-name="패스 1527" class="cls-10" d="M0,0-4.4,4.308-8.8,0"/>
      </g>
    </g>
  </g>
  <path id="패스_1594" data-name="패스 1594" class="cls-22" d="M1.309,0H2.875V-3.767h1.5c2.16,0,3.74-1,3.74-3.172,0-2.241-1.58-3-3.794-3H1.309ZM2.875-5.022V-8.681h1.3c1.58,0,2.4.432,2.4,1.741S5.819-5.022,4.226-5.022ZM9.72,0h1.539V-4.63c.472-1.175,1.2-1.593,1.809-1.593a2.2,2.2,0,0,1,.742.122l.284-1.35a1.847,1.847,0,0,0-.837-.162,2.567,2.567,0,0,0-2.106,1.526h-.04l-.122-1.337H9.72Zm8.262.176a3.566,3.566,0,0,0,3.5-3.874,3.587,3.587,0,0,0-3.5-3.915,3.587,3.587,0,0,0-3.5,3.915A3.566,3.566,0,0,0,17.982.176Zm0-1.269c-1.161,0-1.89-1.04-1.89-2.605s.729-2.633,1.89-2.633,1.9,1.053,1.9,2.633S19.156-1.094,17.982-1.094ZM26.325.176a3.618,3.618,0,0,0,2.4-.918l-.635-1.026a2.543,2.543,0,0,1-1.62.675c-1.242,0-2.093-1.04-2.093-2.605s.891-2.633,2.133-2.633a1.945,1.945,0,0,1,1.336.581l.77-1.012a3.188,3.188,0,0,0-2.174-.851A3.648,3.648,0,0,0,22.774-3.7C22.774-1.242,24.313.176,26.325.176Zm5.981,0a3.113,3.113,0,0,0,2.43-1.3h.041L34.9,0h1.269V-7.425H34.614v5.157c-.621.783-1.093,1.107-1.782,1.107-.878,0-1.242-.5-1.242-1.782V-7.425H30.038v4.671C30.038-.864,30.726.176,32.306.176ZM38.354,0h1.539V-4.63c.472-1.175,1.2-1.593,1.809-1.593a2.2,2.2,0,0,1,.743.122l.284-1.35a1.847,1.847,0,0,0-.837-.162,2.567,2.567,0,0,0-2.106,1.526h-.041l-.121-1.337H38.354Zm8.37.176a4.5,4.5,0,0,0,2.511-.783l-.54-.986a3.153,3.153,0,0,1-1.768.554,2.242,2.242,0,0,1-2.3-2.268h4.819a4.013,4.013,0,0,0,.068-.783c0-2.106-1.053-3.524-3.024-3.524A3.605,3.605,0,0,0,43.105-3.7,3.567,3.567,0,0,0,46.723.176Zm-2.106-4.55a2.013,2.013,0,0,1,1.9-2.025c1.08,0,1.66.743,1.66,2.025ZM51.246,0h1.539V-5.265a2.506,2.506,0,0,1,1.674-1.013c.85,0,1.242.513,1.242,1.8V0h1.552V-5.265a2.479,2.479,0,0,1,1.674-1.013c.837,0,1.242.513,1.242,1.8V0h1.553V-4.671c0-1.89-.729-2.943-2.282-2.943a3.421,3.421,0,0,0-2.417,1.364,1.982,1.982,0,0,0-2.052-1.364,3.234,3.234,0,0,0-2.3,1.229h-.041l-.121-1.04H51.246ZM67.028.176a4.5,4.5,0,0,0,2.511-.783L69-1.593a3.153,3.153,0,0,1-1.769.554,2.242,2.242,0,0,1-2.3-2.268h4.82a4.013,4.013,0,0,0,.067-.783c0-2.106-1.053-3.524-3.024-3.524A3.605,3.605,0,0,0,63.41-3.7,3.567,3.567,0,0,0,67.028.176Zm-2.106-4.55a2.013,2.013,0,0,1,1.9-2.025c1.08,0,1.66.743,1.66,2.025ZM71.55,0h1.539V-5.265a2.535,2.535,0,0,1,1.823-1.013c.877,0,1.256.513,1.256,1.8V0H77.72V-4.671c0-1.89-.7-2.943-2.282-2.943A3.538,3.538,0,0,0,72.981-6.4h-.04l-.122-1.026H71.55ZM82.323.176a4.751,4.751,0,0,0,1.458-.27L83.5-1.242a2.214,2.214,0,0,1-.8.175c-.77,0-1.08-.459-1.08-1.35V-6.183h1.93V-7.425h-1.93V-9.477h-1.31l-.175,2.052-1.147.081v1.161h1.08V-2.43C80.069-.864,80.649.176,82.323.176Z" transform="translate(65.086 117.714)"/>
  <g id="그룹_867" data-name="그룹 867" transform="translate(-20.651 -176.207)">
    <path id="패스_1595" data-name="패스 1595" class="cls-22" d="M2.875-8.681h1.5c1.444,0,2.227.418,2.227,1.62s-.783,1.8-2.227,1.8h-1.5ZM8.505,0,6.075-4.212A2.766,2.766,0,0,0,8.154-7.061c0-2.146-1.539-2.875-3.591-2.875H1.309V0H2.875V-4.01H4.482L6.737,0Zm2.187-2.687A2.363,2.363,0,0,1,11.759-4.4a14,14,0,0,0,2.457,2.686,2.807,2.807,0,0,1-1.714.675A1.671,1.671,0,0,1,10.692-2.687Zm1.093-5.022a1.189,1.189,0,0,1,1.121-1.337c.608,0,.864.445.864.986,0,.823-.7,1.363-1.566,1.917A3.778,3.778,0,0,1,11.785-7.708Zm6.237,6.615a6.731,6.731,0,0,1-1.822-.85,10.725,10.725,0,0,0,1.728-3.5H16.5A8.058,8.058,0,0,1,15.16-2.687,12.775,12.775,0,0,1,12.8-5.157C13.892-5.94,15-6.763,15-8.073a1.949,1.949,0,0,0-2.106-2.052,2.343,2.343,0,0,0-2.417,2.43,5.047,5.047,0,0,0,.648,2.241A3.46,3.46,0,0,0,9.207-2.592,2.817,2.817,0,0,0,12.312.176,4.4,4.4,0,0,0,15.269-.918,7.636,7.636,0,0,0,17.631.176ZM19.562,0h2.66c2.97,0,4.712-1.782,4.712-5.009S25.191-9.936,22.14-9.936H19.562Zm1.566-1.283V-8.667h.9c2.133,0,3.28,1.174,3.28,3.658s-1.147,3.726-3.28,3.726ZM33.655.176A3.691,3.691,0,0,0,36.018-.85h.041l.135.85h1.269V-4.469c0-1.971-.851-3.146-2.7-3.146a5.687,5.687,0,0,0-3,.972l.581,1.053a4.083,4.083,0,0,1,2.146-.756c1.093,0,1.4.756,1.417,1.62-3.091.338-4.441,1.161-4.441,2.754A2.051,2.051,0,0,0,33.655.176Zm.472-1.228c-.661,0-1.161-.3-1.161-1.026,0-.837.743-1.391,2.943-1.661v1.822A2.618,2.618,0,0,1,34.128-1.053ZM39.569,0h1.539V-5.265A2.535,2.535,0,0,1,42.93-6.278c.878,0,1.256.513,1.256,1.8V0h1.553V-4.671c0-1.89-.7-2.943-2.282-2.943A3.538,3.538,0,0,0,41-6.4h-.041l-.121-1.026H39.569ZM50.531.176A3.112,3.112,0,0,0,52.69-.837h.041L52.866,0h1.269V-10.759H52.583v2.754l.068,1.229a2.865,2.865,0,0,0-2-.837c-1.66,0-3.186,1.5-3.186,3.915C47.466-1.242,48.667.176,50.531.176ZM50.9-1.107c-1.161,0-1.822-.931-1.822-2.619,0-1.607.837-2.592,1.876-2.592a2.329,2.329,0,0,1,1.633.675v3.632A2.182,2.182,0,0,1,50.9-1.107Z" transform="translate(312.562 293.921)"/>
    <path id="패스_1596" data-name="패스 1596" class="cls-22" d="M1.309,0H2.875V-3.767h1.5c2.16,0,3.74-1,3.74-3.172,0-2.241-1.58-3-3.794-3H1.309ZM2.875-5.022V-8.681h1.3c1.58,0,2.4.432,2.4,1.741S5.819-5.022,4.226-5.022ZM9.72,0h1.539V-4.63c.472-1.175,1.2-1.593,1.809-1.593a2.2,2.2,0,0,1,.742.122l.284-1.35a1.847,1.847,0,0,0-.837-.162,2.567,2.567,0,0,0-2.106,1.526h-.04l-.122-1.337H9.72Zm8.262.176a3.566,3.566,0,0,0,3.5-3.874,3.587,3.587,0,0,0-3.5-3.915,3.587,3.587,0,0,0-3.5,3.915A3.566,3.566,0,0,0,17.982.176Zm0-1.269c-1.161,0-1.89-1.04-1.89-2.605s.729-2.633,1.89-2.633,1.9,1.053,1.9,2.633S19.156-1.094,17.982-1.094ZM25.866.176a3.112,3.112,0,0,0,2.16-1.013h.041L28.2,0H29.47V-10.759H27.918v2.754l.067,1.229a2.865,2.865,0,0,0-2-.837c-1.66,0-3.186,1.5-3.186,3.915C22.8-1.242,24,.176,25.866.176Zm.365-1.282c-1.161,0-1.823-.931-1.823-2.619,0-1.607.837-2.592,1.877-2.592a2.329,2.329,0,0,1,1.633.675v3.632A2.182,2.182,0,0,1,26.23-1.107ZM33.885.176a3.113,3.113,0,0,0,2.43-1.3h.04L36.477,0h1.269V-7.425H36.194v5.157c-.621.783-1.093,1.107-1.782,1.107-.877,0-1.242-.5-1.242-1.782V-7.425H31.617v4.671C31.617-.864,32.306.176,33.885.176Zm9.166,0a3.618,3.618,0,0,0,2.4-.918L44.82-1.768a2.543,2.543,0,0,1-1.62.675c-1.242,0-2.092-1.04-2.092-2.605S42-6.332,43.241-6.332a1.945,1.945,0,0,1,1.336.581l.77-1.012a3.188,3.188,0,0,0-2.174-.851A3.648,3.648,0,0,0,39.5-3.7C39.5-1.242,41.04.176,43.051.176Zm6.521,0a4.751,4.751,0,0,0,1.458-.27l-.284-1.147a2.214,2.214,0,0,1-.8.175c-.77,0-1.08-.459-1.08-1.35V-6.183H50.8V-7.425H48.87V-9.477h-1.31l-.175,2.052-1.147.081v1.161h1.08V-2.43C47.318-.864,47.9.176,49.572.176ZM52.353,0h1.539V-7.425H52.353Zm.77-8.816a.931.931,0,0,0,1-.918.924.924,0,0,0-1-.918.912.912,0,0,0-.986.918A.92.92,0,0,0,53.123-8.816ZM59.1.176A3.566,3.566,0,0,0,62.6-3.7a3.587,3.587,0,0,0-3.5-3.915,3.587,3.587,0,0,0-3.5,3.915A3.566,3.566,0,0,0,59.1.176Zm0-1.269c-1.161,0-1.89-1.04-1.89-2.605s.729-2.633,1.89-2.633,1.9,1.053,1.9,2.633S60.278-1.094,59.1-1.094ZM64.354,0h1.539V-5.265a2.535,2.535,0,0,1,1.823-1.013c.877,0,1.255.513,1.255,1.8V0h1.553V-4.671c0-1.89-.7-2.943-2.282-2.943A3.538,3.538,0,0,0,65.785-6.4h-.04l-.122-1.026H64.354Z" transform="translate(304.651 312.915)"/>
  </g>
  <g id="그룹_868" data-name="그룹 868" transform="translate(-20.97 -176.207)">
    <path id="패스_1597" data-name="패스 1597" class="cls-22" d="M4.145.176c2.173,0,3.5-1.3,3.5-2.889A2.774,2.774,0,0,0,5.616-5.4L4.253-5.98c-.81-.324-1.607-.648-1.607-1.5,0-.8.662-1.282,1.674-1.282a3.165,3.165,0,0,1,2.187.891l.823-1a4.256,4.256,0,0,0-3.01-1.255c-1.89,0-3.267,1.175-3.267,2.74A2.858,2.858,0,0,0,3.078-4.779l1.377.594c.918.4,1.593.688,1.593,1.593,0,.837-.675,1.4-1.877,1.4A3.852,3.852,0,0,1,1.525-2.362L.608-1.283A4.957,4.957,0,0,0,4.145.176Zm7.02,0A3.691,3.691,0,0,0,13.527-.85h.04L13.7,0h1.269V-4.469c0-1.971-.851-3.146-2.7-3.146a5.687,5.687,0,0,0-3,.972l.58,1.053A4.083,4.083,0,0,1,12-6.345c1.093,0,1.4.756,1.417,1.62-3.092.338-4.441,1.161-4.441,2.754A2.051,2.051,0,0,0,11.164.176Zm.472-1.228c-.661,0-1.161-.3-1.161-1.026,0-.837.743-1.391,2.943-1.661v1.822A2.618,2.618,0,0,1,11.637-1.053ZM18.6.176A2.494,2.494,0,0,0,19.44.054l-.2-1.174a1.078,1.078,0,0,1-.257.027c-.189,0-.378-.148-.378-.567v-9.1H17.064v9.018C17.064-.54,17.483.176,18.6.176Zm5.427,0a4.5,4.5,0,0,0,2.511-.783L26-1.593a3.153,3.153,0,0,1-1.768.554,2.242,2.242,0,0,1-2.3-2.268h4.819a4.013,4.013,0,0,0,.068-.783c0-2.106-1.053-3.524-3.024-3.524A3.605,3.605,0,0,0,20.412-3.7,3.567,3.567,0,0,0,24.03.176Zm-2.106-4.55a2.013,2.013,0,0,1,1.9-2.025c1.08,0,1.66.743,1.66,2.025ZM30.578.176C32.414.176,33.4-.837,33.4-2.079c0-1.4-1.148-1.863-2.187-2.254-.81-.3-1.58-.54-1.58-1.174,0-.513.378-.918,1.188-.918a2.779,2.779,0,0,1,1.66.648l.729-.959a3.909,3.909,0,0,0-2.416-.878c-1.634,0-2.632.932-2.632,2.174S29.3-3.658,30.281-3.28c.81.31,1.647.607,1.647,1.282,0,.567-.418,1-1.309,1a3.291,3.291,0,0,1-2.106-.85l-.729,1A4.567,4.567,0,0,0,30.578.176Zm8.275-2.862A2.363,2.363,0,0,1,39.92-4.4a14,14,0,0,0,2.457,2.686,2.807,2.807,0,0,1-1.715.675A1.671,1.671,0,0,1,38.853-2.687Zm1.093-5.022a1.189,1.189,0,0,1,1.121-1.337c.607,0,.864.445.864.986,0,.823-.7,1.363-1.566,1.917A3.778,3.778,0,0,1,39.946-7.708Zm6.237,6.615a6.731,6.731,0,0,1-1.823-.85,10.725,10.725,0,0,0,1.728-3.5H44.658a8.058,8.058,0,0,1-1.337,2.754,12.775,12.775,0,0,1-2.362-2.47c1.094-.783,2.2-1.606,2.2-2.916a1.949,1.949,0,0,0-2.106-2.052,2.343,2.343,0,0,0-2.417,2.43,5.047,5.047,0,0,0,.648,2.241,3.46,3.46,0,0,0-1.917,2.862,2.817,2.817,0,0,0,3.1,2.768A4.4,4.4,0,0,0,43.43-.918,7.636,7.636,0,0,0,45.792.176Z" transform="translate(529.346 293.921)"/>
    <path id="패스_1598" data-name="패스 1598" class="cls-22" d="M4.145.176c2.173,0,3.5-1.3,3.5-2.889A2.774,2.774,0,0,0,5.616-5.4L4.253-5.98c-.81-.324-1.607-.648-1.607-1.5,0-.8.662-1.282,1.674-1.282a3.165,3.165,0,0,1,2.187.891l.823-1a4.256,4.256,0,0,0-3.01-1.255c-1.89,0-3.267,1.175-3.267,2.74A2.858,2.858,0,0,0,3.078-4.779l1.377.594c.918.4,1.593.688,1.593,1.593,0,.837-.675,1.4-1.877,1.4A3.852,3.852,0,0,1,1.525-2.362L.608-1.283A4.957,4.957,0,0,0,4.145.176Zm8.4,0a4.5,4.5,0,0,0,2.511-.783l-.54-.986a3.153,3.153,0,0,1-1.769.554,2.242,2.242,0,0,1-2.3-2.268h4.819a4.013,4.013,0,0,0,.068-.783c0-2.106-1.053-3.524-3.024-3.524A3.605,3.605,0,0,0,8.924-3.7,3.567,3.567,0,0,0,12.542.176Zm-2.106-4.55a2.013,2.013,0,0,1,1.9-2.025c1.08,0,1.66.743,1.66,2.025ZM17.064,0H18.6V-4.63c.472-1.175,1.2-1.593,1.809-1.593a2.2,2.2,0,0,1,.743.122l.284-1.35a1.847,1.847,0,0,0-.837-.162,2.567,2.567,0,0,0-2.106,1.526h-.04l-.122-1.337H17.064Zm7.992,0h1.8l2.565-7.425H27.9l-1.269,4c-.2.729-.432,1.485-.648,2.214h-.054c-.216-.729-.445-1.485-.648-2.214l-1.269-4H22.424ZM30.74,0h1.539V-7.425H30.74Zm.77-8.816a.931.931,0,0,0,1-.918.924.924,0,0,0-1-.918.912.912,0,0,0-.986.918A.92.92,0,0,0,31.509-8.816ZM37.53.176a3.618,3.618,0,0,0,2.4-.918L39.3-1.768a2.543,2.543,0,0,1-1.62.675c-1.242,0-2.092-1.04-2.092-2.605s.891-2.633,2.133-2.633a1.945,1.945,0,0,1,1.336.581l.77-1.012a3.188,3.188,0,0,0-2.174-.851A3.648,3.648,0,0,0,33.979-3.7C33.979-1.242,35.519.176,37.53.176Zm6.48,0a4.5,4.5,0,0,0,2.511-.783l-.54-.986a3.153,3.153,0,0,1-1.768.554,2.242,2.242,0,0,1-2.3-2.268h4.819A4.013,4.013,0,0,0,46.8-4.09c0-2.106-1.053-3.524-3.024-3.524A3.605,3.605,0,0,0,40.392-3.7,3.567,3.567,0,0,0,44.01.176ZM41.9-4.374a2.013,2.013,0,0,1,1.9-2.025c1.08,0,1.66.743,1.66,2.025ZM50.558.176c1.836,0,2.821-1.013,2.821-2.255,0-1.4-1.147-1.863-2.187-2.254-.81-.3-1.579-.54-1.579-1.174,0-.513.378-.918,1.188-.918a2.779,2.779,0,0,1,1.66.648l.729-.959a3.909,3.909,0,0,0-2.417-.878c-1.633,0-2.632.932-2.632,2.174s1.134,1.782,2.119,2.16c.81.31,1.647.607,1.647,1.282,0,.567-.418,1-1.309,1a3.291,3.291,0,0,1-2.106-.85l-.729,1A4.567,4.567,0,0,0,50.558.176Z" transform="translate(525.971 312.915)"/>
  </g>
  <g id="그룹_869" data-name="그룹 869" transform="translate(-22.591 -176.207)">
    <path id="패스_1599" data-name="패스 1599" class="cls-22" d="M1.309,0h2.66c2.97,0,4.711-1.782,4.711-5.009S6.939-9.936,3.888-9.936H1.309ZM2.875-1.283V-8.667h.9c2.133,0,3.281,1.174,3.281,3.658S5.913-1.283,3.78-1.283ZM10.57,0h1.539V-7.425H10.57Zm.77-8.816a.931.931,0,0,0,1-.918.924.924,0,0,0-1-.918.912.912,0,0,0-.986.918A.92.92,0,0,0,11.34-8.816ZM16.349.176c1.836,0,2.821-1.013,2.821-2.255,0-1.4-1.147-1.863-2.187-2.254-.81-.3-1.579-.54-1.579-1.174,0-.513.378-.918,1.188-.918a2.779,2.779,0,0,1,1.66.648l.729-.959a3.909,3.909,0,0,0-2.417-.878c-1.634,0-2.633.932-2.633,2.174s1.134,1.782,2.12,2.16c.81.31,1.647.607,1.647,1.282,0,.567-.418,1-1.309,1a3.291,3.291,0,0,1-2.106-.85l-.729,1A4.567,4.567,0,0,0,16.349.176ZM20.776,3.01h1.539V.608l-.04-1.269a3.062,3.062,0,0,0,1.957.837c1.674,0,3.2-1.458,3.2-4.01,0-2.281-1.053-3.78-2.943-3.78a3.764,3.764,0,0,0-2.281,1h-.04l-.122-.81H20.776Zm3.159-4.117a2.516,2.516,0,0,1-1.62-.675V-5.413a2.609,2.609,0,0,1,1.769-.9c1.242,0,1.741.958,1.741,2.511C25.825-2.066,25.015-1.107,23.935-1.107ZM32.251.176a3.566,3.566,0,0,0,3.5-3.874,3.587,3.587,0,0,0-3.5-3.915,3.587,3.587,0,0,0-3.5,3.915A3.566,3.566,0,0,0,32.251.176Zm0-1.269c-1.161,0-1.89-1.04-1.89-2.605s.729-2.633,1.89-2.633,1.9,1.053,1.9,2.633S33.426-1.094,32.251-1.094Zm7.2,1.269c1.836,0,2.821-1.013,2.821-2.255,0-1.4-1.147-1.863-2.187-2.254-.81-.3-1.579-.54-1.579-1.174,0-.513.378-.918,1.188-.918a2.779,2.779,0,0,1,1.66.648l.729-.959a3.909,3.909,0,0,0-2.417-.878c-1.633,0-2.632.932-2.632,2.174s1.134,1.782,2.119,2.16C39.96-2.97,40.8-2.673,40.8-2c0,.567-.418,1-1.309,1a3.291,3.291,0,0,1-2.106-.85l-.729,1A4.567,4.567,0,0,0,39.447.176Zm6.237,0A3.691,3.691,0,0,0,48.047-.85h.041l.135.85h1.269V-4.469c0-1.971-.85-3.146-2.7-3.146a5.687,5.687,0,0,0-3,.972l.58,1.053a4.083,4.083,0,0,1,2.146-.756c1.094,0,1.4.756,1.417,1.62C44.847-4.387,43.5-3.564,43.5-1.971A2.051,2.051,0,0,0,45.684.176Zm.472-1.228C45.5-1.053,45-1.35,45-2.079c0-.837.743-1.391,2.943-1.661v1.822A2.618,2.618,0,0,1,46.157-1.053ZM53.123.176a2.494,2.494,0,0,0,.837-.122l-.2-1.174a1.078,1.078,0,0,1-.257.027c-.189,0-.378-.148-.378-.567v-9.1H51.583v9.018C51.583-.54,52,.176,53.123.176Zm6.291-2.862A2.363,2.363,0,0,1,60.48-4.4a14,14,0,0,0,2.457,2.686,2.807,2.807,0,0,1-1.715.675A1.671,1.671,0,0,1,59.414-2.687Zm1.093-5.022a1.189,1.189,0,0,1,1.121-1.337c.607,0,.864.445.864.986,0,.823-.7,1.363-1.566,1.917A3.778,3.778,0,0,1,60.507-7.708Zm6.237,6.615a6.731,6.731,0,0,1-1.823-.85,10.725,10.725,0,0,0,1.728-3.5H65.218a8.058,8.058,0,0,1-1.336,2.754,12.775,12.775,0,0,1-2.362-2.47c1.094-.783,2.2-1.606,2.2-2.916a1.949,1.949,0,0,0-2.106-2.052A2.343,2.343,0,0,0,59.2-7.695a5.047,5.047,0,0,0,.648,2.241,3.46,3.46,0,0,0-1.917,2.862,2.817,2.817,0,0,0,3.1,2.768A4.4,4.4,0,0,0,63.99-.918,7.636,7.636,0,0,0,66.353.176Z" transform="translate(729.591 293.921)"/>
    <path id="패스_1600" data-name="패스 1600" class="cls-22" d="M2.875-8.681h1.5c1.444,0,2.227.418,2.227,1.62s-.783,1.8-2.227,1.8h-1.5ZM8.505,0,6.075-4.212A2.766,2.766,0,0,0,8.154-7.061c0-2.146-1.539-2.875-3.591-2.875H1.309V0H2.875V-4.01H4.482L6.737,0Zm4.334.176a4.5,4.5,0,0,0,2.511-.783l-.54-.986a3.153,3.153,0,0,1-1.768.554,2.242,2.242,0,0,1-2.3-2.268h4.819a4.013,4.013,0,0,0,.068-.783c0-2.106-1.053-3.524-3.024-3.524A3.605,3.605,0,0,0,9.22-3.7,3.567,3.567,0,0,0,12.839.176Zm-2.106-4.55a2.013,2.013,0,0,1,1.9-2.025c1.08,0,1.661.743,1.661,2.025Zm9.72,4.55a3.618,3.618,0,0,0,2.4-.918l-.634-1.026a2.543,2.543,0,0,1-1.62.675c-1.242,0-2.093-1.04-2.093-2.605s.891-2.633,2.133-2.633a1.945,1.945,0,0,1,1.337.581l.769-1.012a3.188,3.188,0,0,0-2.174-.851A3.648,3.648,0,0,0,16.9-3.7C16.9-1.242,18.441.176,20.452.176Zm10.233-7.6H29.174L27.986-3.6l-.58,2.092h-.068c-.229-.688-.459-1.431-.675-2.092L25.285-7.425H23.693L26.635-.054l-.149.513c-.27.8-.742,1.39-1.552,1.39a2.012,2.012,0,0,1-.54-.108l-.3,1.215a2.64,2.64,0,0,0,.931.148c1.566,0,2.349-1.067,2.93-2.66Zm4.077,7.6a3.618,3.618,0,0,0,2.4-.918l-.635-1.026a2.543,2.543,0,0,1-1.62.675c-1.242,0-2.092-1.04-2.092-2.605s.891-2.633,2.133-2.633a1.945,1.945,0,0,1,1.336.581l.77-1.012a3.188,3.188,0,0,0-2.174-.851A3.648,3.648,0,0,0,31.212-3.7C31.212-1.242,32.751.176,34.762.176Zm5.319,0a2.494,2.494,0,0,0,.837-.122l-.2-1.174a1.078,1.078,0,0,1-.257.027c-.189,0-.378-.148-.378-.567v-9.1H38.542v9.018C38.542-.54,38.961.176,40.082.176ZM42.444,0h1.539V-7.425H42.444Zm.77-8.816a.931.931,0,0,0,1-.918.924.924,0,0,0-1-.918.912.912,0,0,0-.986.918A.92.92,0,0,0,43.214-8.816ZM46.17,0h1.539V-5.265a2.535,2.535,0,0,1,1.822-1.013c.877,0,1.256.513,1.256,1.8V0H52.34V-4.671c0-1.89-.7-2.943-2.282-2.943A3.538,3.538,0,0,0,47.6-6.4H47.56l-.121-1.026H46.17ZM57.011,3.334c2.376,0,3.888-1.161,3.888-2.592,0-1.269-.918-1.809-2.673-1.809H56.862c-.945,0-1.242-.283-1.242-.729a.984.984,0,0,1,.405-.783,2.581,2.581,0,0,0,1.039.23A2.537,2.537,0,0,0,59.846-4.9a2.007,2.007,0,0,0-.486-1.363h1.417V-7.425H58.145a3.1,3.1,0,0,0-1.08-.189,2.678,2.678,0,0,0-2.875,2.673,2.541,2.541,0,0,0,.972,1.971v.054a1.832,1.832,0,0,0-.823,1.377A1.365,1.365,0,0,0,55.013-.31v.068a1.962,1.962,0,0,0-1.08,1.62C53.932,2.673,55.229,3.334,57.011,3.334Zm.054-6.682a1.448,1.448,0,0,1-1.4-1.593,1.414,1.414,0,0,1,1.4-1.58,1.421,1.421,0,0,1,1.4,1.58A1.448,1.448,0,0,1,57.064-3.348Zm.176,5.657c-1.229,0-1.985-.432-1.985-1.161A1.335,1.335,0,0,1,55.89.067a4.72,4.72,0,0,0,1,.108h1.12c.9,0,1.391.189,1.391.81C59.4,1.674,58.536,2.309,57.24,2.309Z" transform="translate(732.858 312.915)"/>
  </g>
  <g id="그룹_870" data-name="그룹 870" transform="translate(-24.721 -173.211)">
    <path id="패스_1638" data-name="패스 1638" class="cls-23" d="M2.385-2.52a1.755,1.755,0,0,0,1.7-1.86,1.755,1.755,0,0,0-1.7-1.86A1.768,1.768,0,0,0,.66-4.38,1.768,1.768,0,0,0,2.385-2.52Z" transform="translate(91.721 403.925)"/>
    <path id="패스_1639" data-name="패스 1639" class="cls-22" d="M4.845,0H5.67V-6.93c0-.9-.06-2.1-.105-3.015h.06L6.48-7.5,8.79-1.17h.72l2.3-6.33.855-2.445h.06c-.045.915-.1,2.115-.1,3.015V0h.855V-10.935h-1.2L10.02-4.65c-.27.8-.525,1.605-.81,2.4H9.15L8.3-4.65l-2.25-6.285h-1.2Zm13.11.2a4.608,4.608,0,0,0,2.79-1.215h.03L20.865,0H21.6V-5.07c0-1.77-.675-3.135-2.58-3.135a5.545,5.545,0,0,0-3.03,1.05l.39.63A4.323,4.323,0,0,1,18.9-7.44c1.515,0,1.86,1.23,1.83,2.415-3.525.405-5.1,1.245-5.1,3.015A2.11,2.11,0,0,0,17.955.2Zm.18-.735A1.442,1.442,0,0,1,16.5-2.055c0-1.23,1.08-1.965,4.23-2.325v2.6A3.94,3.94,0,0,1,18.135-.54ZM26.13.2a4.524,4.524,0,0,0,1.335-.3l-.21-.675a2.8,2.8,0,0,1-.975.225c-1.065,0-1.335-.66-1.335-1.665V-7.26h2.3v-.735h-2.3V-10.3H24.21l-.1,2.31L22.83-7.92v.66h1.245v4.98C24.075-.8,24.555.2,26.13.2Zm5.535,0a4.473,4.473,0,0,0,2.55-.78l-.33-.645a3.58,3.58,0,0,1-2.13.69c-1.725,0-2.88-1.365-2.925-3.315H34.5a4.149,4.149,0,0,0,.045-.63c0-2.34-1.155-3.72-3.09-3.72-1.815,0-3.51,1.62-3.51,4.215C27.945-1.365,29.61.2,31.665.2ZM28.83-4.545c.165-1.83,1.335-2.91,2.64-2.91,1.395,0,2.28.975,2.28,2.91ZM36.51,0h.87V-5.37c.585-1.485,1.44-2.01,2.145-2.01a1.691,1.691,0,0,1,.735.135l.18-.78a1.611,1.611,0,0,0-.81-.18,2.751,2.751,0,0,0-2.265,1.7h-.03l-.1-1.485h-.72Zm5.4,0h.87V-7.995h-.87Zm.45-9.87a.708.708,0,0,0,.735-.69.7.7,0,0,0-.735-.72.7.7,0,0,0-.735.72A.7.7,0,0,0,42.36-9.87ZM47.07.2A4.608,4.608,0,0,0,49.86-1.02h.03L49.98,0h.735V-5.07c0-1.77-.675-3.135-2.58-3.135a5.545,5.545,0,0,0-3.03,1.05l.39.63a4.323,4.323,0,0,1,2.52-.915c1.515,0,1.86,1.23,1.83,2.415-3.525.405-5.1,1.245-5.1,3.015A2.11,2.11,0,0,0,47.07.2Zm.18-.735a1.442,1.442,0,0,1-1.635-1.515c0-1.23,1.08-1.965,4.23-2.325v2.6A3.94,3.94,0,0,1,47.25-.54ZM54.27.2a1.763,1.763,0,0,0,.585-.09l-.135-.69a1.342,1.342,0,0,1-.285.03c-.21,0-.36-.165-.36-.54v-10.83h-.87v10.74C53.205-.255,53.55.2,54.27.2ZM59.1.2c1.77,0,2.745-1.05,2.745-2.28,0-1.545-1.35-1.98-2.58-2.445-.93-.345-1.86-.675-1.86-1.56,0-.72.54-1.38,1.725-1.38a3.066,3.066,0,0,1,1.905.72l.45-.6A3.862,3.862,0,0,0,59.16-8.2c-1.68,0-2.625.99-2.625,2.16,0,1.38,1.32,1.875,2.5,2.3.93.33,1.935.765,1.935,1.71,0,.825-.615,1.515-1.83,1.515a3.662,3.662,0,0,1-2.52-1L56.16-.9A4.685,4.685,0,0,0,59.1.2Z" transform="translate(96.401 403.925)"/>
    <path id="패스_1640" data-name="패스 1640" class="cls-23" d="M2.385-2.52a1.755,1.755,0,0,0,1.7-1.86,1.755,1.755,0,0,0-1.7-1.86A1.768,1.768,0,0,0,.66-4.38,1.768,1.768,0,0,0,2.385-2.52Z" transform="translate(91.721 428.931)"/>
    <path id="패스_1641" data-name="패스 1641" class="cls-22" d="M4.845,0h.9V-4.62h2c2.43,0,3.93-1.05,3.93-3.24,0-2.265-1.515-3.075-3.99-3.075H4.845Zm.9-5.37v-4.815H7.5c2.175,0,3.255.555,3.255,2.325,0,1.755-1.035,2.49-3.2,2.49ZM14.67.2A4.608,4.608,0,0,0,17.46-1.02h.03L17.58,0h.735V-5.07c0-1.77-.675-3.135-2.58-3.135a5.545,5.545,0,0,0-3.03,1.05l.39.63a4.323,4.323,0,0,1,2.52-.915c1.515,0,1.86,1.23,1.83,2.415-3.525.405-5.1,1.245-5.1,3.015A2.11,2.11,0,0,0,14.67.2Zm.18-.735a1.442,1.442,0,0,1-1.635-1.515c0-1.23,1.08-1.965,4.23-2.325v2.6A3.94,3.94,0,0,1,14.85-.54ZM20.805,0h.87V-5.37c.585-1.485,1.44-2.01,2.145-2.01a1.691,1.691,0,0,1,.735.135l.18-.78a1.611,1.611,0,0,0-.81-.18,2.751,2.751,0,0,0-2.265,1.7h-.03l-.105-1.485h-.72ZM28.98.2a4.524,4.524,0,0,0,1.335-.3L30.1-.78a2.8,2.8,0,0,1-.975.225c-1.065,0-1.335-.66-1.335-1.665V-7.26h2.3v-.735H27.8V-10.3H27.06l-.1,2.31L25.68-7.92v.66h1.245v4.98C26.925-.8,27.4.2,28.98.2Zm5.13,0c1.77,0,2.745-1.05,2.745-2.28,0-1.545-1.35-1.98-2.58-2.445-.93-.345-1.86-.675-1.86-1.56,0-.72.54-1.38,1.725-1.38a3.066,3.066,0,0,1,1.905.72l.45-.6A3.862,3.862,0,0,0,34.17-8.2c-1.68,0-2.625.99-2.625,2.16,0,1.38,1.32,1.875,2.5,2.3.93.33,1.935.765,1.935,1.71,0,.825-.615,1.515-1.83,1.515a3.662,3.662,0,0,1-2.52-1L31.17-.9A4.685,4.685,0,0,0,34.11.2Z" transform="translate(96.401 428.931)"/>
  </g>
  <g id="그룹_875" data-name="그룹 875" transform="translate(-23.966 -173.211)">
    <path id="패스_1634" data-name="패스 1634" class="cls-23" d="M2.385-2.52a1.755,1.755,0,0,0,1.7-1.86,1.755,1.755,0,0,0-1.7-1.86A1.768,1.768,0,0,0,.66-4.38,1.768,1.768,0,0,0,2.385-2.52Z" transform="translate(306.966 403.925)"/>
    <path id="패스_1635" data-name="패스 1635" class="cls-22" d="M5.745-10.185H7.83c1.89,0,2.94.585,2.94,2.175,0,1.575-1.05,2.325-2.94,2.325H5.745ZM11.91,0,8.955-5.01a2.877,2.877,0,0,0,2.73-3c0-2.13-1.47-2.925-3.645-2.925H4.845V0h.9V-4.935H7.98L10.89,0Zm1.74-2.835a3.458,3.458,0,0,1,1.68-2.52,16.328,16.328,0,0,0,3.075,3.72A3.457,3.457,0,0,1,16.05-.54,2.283,2.283,0,0,1,13.65-2.835Zm1.395-5.85a1.575,1.575,0,0,1,1.5-1.755c.855,0,1.17.66,1.17,1.365,0,1.1-.99,1.845-2.085,2.625A5.509,5.509,0,0,1,15.045-8.685ZM21.63-.555a7.92,7.92,0,0,1-2.1-1.2A12.269,12.269,0,0,0,21.465-5.76H20.64a10.335,10.335,0,0,1-1.695,3.51A14.4,14.4,0,0,1,15.96-5.835c1.23-.93,2.505-1.86,2.505-3.285a1.828,1.828,0,0,0-1.89-2.01A2.306,2.306,0,0,0,14.25-8.67a6.354,6.354,0,0,0,.735,2.685c-1.14.825-2.22,1.755-2.22,3.195A2.982,2.982,0,0,0,15.96.2,4.215,4.215,0,0,0,18.99-1.14,7.733,7.733,0,0,0,21.36.2ZM23.355,0h2.6c3.345,0,4.995-2.16,4.995-5.505s-1.65-5.43-5.01-5.43h-2.58Zm.9-.765v-9.42h1.59c2.88,0,4.155,1.845,4.155,4.68s-1.275,4.74-4.155,4.74Z" transform="translate(311.645 403.925)"/>
    <path id="패스_1636" data-name="패스 1636" class="cls-23" d="M2.385-2.52a1.755,1.755,0,0,0,1.7-1.86,1.755,1.755,0,0,0-1.7-1.86A1.768,1.768,0,0,0,.66-4.38,1.768,1.768,0,0,0,2.385-2.52Z" transform="translate(306.966 428.931)"/>
    <path id="패스_1637" data-name="패스 1637" class="cls-22" d="M4.845,0h.9V-4.62h2c2.43,0,3.93-1.05,3.93-3.24,0-2.265-1.515-3.075-3.99-3.075H4.845Zm.9-5.37v-4.815H7.5c2.175,0,3.255.555,3.255,2.325,0,1.755-1.035,2.49-3.2,2.49ZM13.59,0h.87V-5.37c.585-1.485,1.44-2.01,2.145-2.01a1.691,1.691,0,0,1,.735.135l.18-.78a1.611,1.611,0,0,0-.81-.18,2.751,2.751,0,0,0-2.265,1.7h-.03l-.1-1.485h-.72Zm7.935.2C23.46.2,25.14-1.335,25.14-3.99S23.46-8.2,21.525-8.2,17.91-6.66,17.91-3.99,19.59.2,21.525.2Zm0-.75c-1.56,0-2.7-1.395-2.7-3.435s1.14-3.45,2.7-3.45S24.24-6.03,24.24-3.99,23.085-.555,21.525-.555Zm8.52.75A3.706,3.706,0,0,0,32.61-1h.03l.1,1h.72V-11.925H32.6V-8.67l.06,1.44A3.59,3.59,0,0,0,30.27-8.2c-1.89,0-3.54,1.635-3.54,4.215C26.73-1.3,28.035.2,30.045.2Zm.15-.765c-1.62,0-2.535-1.35-2.535-3.42,0-1.965,1.17-3.45,2.7-3.45a3.228,3.228,0,0,1,2.235.99v4.62A3.347,3.347,0,0,1,30.195-.57ZM38.43.2a3.549,3.549,0,0,0,2.7-1.515h.045L41.25,0h.735V-7.995h-.87v5.85c-.9,1.08-1.56,1.56-2.49,1.56-1.23,0-1.74-.765-1.74-2.4v-5.01h-.87V-2.88C36.015-.825,36.765.2,38.43.2Zm9.315,0A3.869,3.869,0,0,0,50.295-.84l-.42-.6a3.193,3.193,0,0,1-2.085.885C46.11-.555,45-1.95,45-3.99s1.215-3.45,2.805-3.45a2.625,2.625,0,0,1,1.83.81l.495-.6A3.381,3.381,0,0,0,47.79-8.2c-1.98,0-3.705,1.545-3.705,4.215S45.66.2,47.745.2Zm6.78,0a4.524,4.524,0,0,0,1.335-.3L55.65-.78a2.8,2.8,0,0,1-.975.225c-1.065,0-1.335-.66-1.335-1.665V-7.26h2.3v-.735h-2.3V-10.3h-.735L52.5-7.995l-1.275.075v.66H52.47v4.98C52.47-.8,52.95.2,54.525.2ZM57.45,0h.87V-7.995h-.87Zm.45-9.87a.708.708,0,0,0,.735-.69.7.7,0,0,0-.735-.72.7.7,0,0,0-.735.72A.7.7,0,0,0,57.9-9.87ZM63.96.2c1.935,0,3.615-1.53,3.615-4.185S65.9-8.2,63.96-8.2,60.345-6.66,60.345-3.99,62.025.2,63.96.2Zm0-.75c-1.56,0-2.7-1.395-2.7-3.435s1.14-3.45,2.7-3.45,2.715,1.41,2.715,3.45S65.52-.555,63.96-.555ZM69.675,0h.87V-5.985c.93-.96,1.59-1.44,2.52-1.44,1.23,0,1.755.765,1.755,2.43V0h.87V-5.115c0-2.055-.765-3.09-2.43-3.09A3.933,3.933,0,0,0,70.53-6.78H70.5l-.1-1.215h-.72Z" transform="translate(311.645 428.931)"/>
  </g>
  <g id="그룹_877" data-name="그룹 877" transform="translate(-21.372 -173.211)">
    <path id="패스_1629" data-name="패스 1629" class="cls-23" d="M2.385-2.52a1.755,1.755,0,0,0,1.7-1.86,1.755,1.755,0,0,0-1.7-1.86A1.768,1.768,0,0,0,.66-4.38,1.768,1.768,0,0,0,2.385-2.52Z" transform="translate(466.376 403.925)"/>
    <g id="그룹_876" data-name="그룹 876">
      <text id="_" data-name=" " class="cls-24" transform="translate(647.836 403.925)"><tspan x="0" y="0"> </tspan></text>
      <path id="패스_1628" data-name="패스 1628" class="cls-22" d="M1.05,2.64A3.117,3.117,0,0,0,2.85-.15c0-.8-.36-1.29-.9-1.29a.752.752,0,0,0-.795.75.735.735,0,0,0,.78.765A.73.73,0,0,0,2.115.06,2.269,2.269,0,0,1,.8,2.07Z" transform="translate(644.071 403.925)"/>
      <path id="패스_1627" data-name="패스 1627" class="cls-22" d="M1.5,3.57h.87V.69L2.355-.78A3.95,3.95,0,0,0,4.71.2c1.875,0,3.525-1.59,3.525-4.32,0-2.46-1.08-4.08-3.21-4.08A4.649,4.649,0,0,0,2.355-7.02h-.03L2.22-7.995H1.5ZM4.635-.57A3.668,3.668,0,0,1,2.37-1.545v-4.62A4.008,4.008,0,0,1,4.86-7.44C6.645-7.44,7.3-6.045,7.3-4.125,7.3-1.98,6.195-.57,4.635-.57Z" transform="translate(635.554 403.925)"/>
      <path id="패스_1626" data-name="패스 1626" class="cls-22" d="M1.5,0h.87V-7.995H1.5Zm.45-9.87a.708.708,0,0,0,.735-.69.7.7,0,0,0-.735-.72.7.7,0,0,0-.735.72A.7.7,0,0,0,1.95-9.87Z" transform="translate(632.161 403.925)"/>
      <path id="패스_1625" data-name="패스 1625" class="cls-22" d="M1.5,0h.87V-5.985c.93-.96,1.59-1.44,2.52-1.44,1.23,0,1.755.765,1.755,2.43V0h.87V-5.115c0-2.055-.765-3.09-2.43-3.09a3.9,3.9,0,0,0-2.73,1.44L2.37-8.5v-3.42H1.5Z" transform="translate(623.728 403.925)"/>
      <path id="패스_1624" data-name="패스 1624" class="cls-22" d="M3.465.2C5.235.2,6.21-.855,6.21-2.085c0-1.545-1.35-1.98-2.58-2.445C2.7-4.875,1.77-5.2,1.77-6.09c0-.72.54-1.38,1.725-1.38A3.066,3.066,0,0,1,5.4-6.75l.45-.6A3.862,3.862,0,0,0,3.525-8.2C1.845-8.2.9-7.215.9-6.045c0,1.38,1.32,1.875,2.5,2.3.93.33,1.935.765,1.935,1.71,0,.825-.615,1.515-1.83,1.515a3.662,3.662,0,0,1-2.52-1L.525-.9A4.685,4.685,0,0,0,3.465.2Z" transform="translate(617.286 403.925)"/>
      <path id="패스_1623" data-name="패스 1623" class="cls-22" d="M1.5,0h.87V-5.37c.585-1.485,1.44-2.01,2.145-2.01a1.691,1.691,0,0,1,.735.135l.18-.78a1.611,1.611,0,0,0-.81-.18,2.751,2.751,0,0,0-2.265,1.7h-.03L2.22-7.995H1.5Z" transform="translate(611.863 403.925)"/>
      <path id="패스_1622" data-name="패스 1622" class="cls-22" d="M4.56.2a4.473,4.473,0,0,0,2.55-.78L6.78-1.23a3.58,3.58,0,0,1-2.13.69c-1.725,0-2.88-1.365-2.925-3.315h5.67a4.149,4.149,0,0,0,.045-.63c0-2.34-1.155-3.72-3.09-3.72C2.535-8.2.84-6.585.84-3.99.84-1.365,2.5.2,4.56.2ZM1.725-4.545c.165-1.83,1.335-2.91,2.64-2.91,1.395,0,2.28.975,2.28,2.91Z" transform="translate(604.033 403.925)"/>
      <path id="패스_1621" data-name="패스 1621" class="cls-22" d="M4.71.2c1.875,0,3.525-1.59,3.525-4.32,0-2.46-1.08-4.08-3.21-4.08a4.422,4.422,0,0,0-2.7,1.23L2.37-8.5v-3.42H1.5V0h.7L2.31-.81h.03A3.953,3.953,0,0,0,4.71.2ZM4.635-.57A3.605,3.605,0,0,1,2.37-1.545v-4.62A3.939,3.939,0,0,1,4.86-7.44C6.645-7.44,7.3-6.045,7.3-4.125,7.3-1.98,6.195-.57,4.635-.57Z" transform="translate(595.14 403.925)"/>
      <path id="패스_1620" data-name="패스 1620" class="cls-22" d="M1.5,0h.87V-5.985a3.373,3.373,0,0,1,2.31-1.44c1.185,0,1.725.765,1.725,2.43V0h.87V-5.985a3.373,3.373,0,0,1,2.31-1.44c1.17,0,1.725.765,1.725,2.43V0h.87V-5.115c0-2.055-.795-3.09-2.4-3.09a4,4,0,0,0-2.7,1.62,2.071,2.071,0,0,0-2.2-1.62A3.713,3.713,0,0,0,2.355-6.78h-.03L2.22-7.995H1.5Z" transform="translate(581.976 403.925)"/>
      <path id="패스_1619" data-name="패스 1619" class="cls-22" d="M4.56.2a4.473,4.473,0,0,0,2.55-.78L6.78-1.23a3.58,3.58,0,0,1-2.13.69c-1.725,0-2.88-1.365-2.925-3.315h5.67a4.149,4.149,0,0,0,.045-.63c0-2.34-1.155-3.72-3.09-3.72C2.535-8.2.84-6.585.84-3.99.84-1.365,2.5.2,4.56.2ZM1.725-4.545c.165-1.83,1.335-2.91,2.64-2.91,1.395,0,2.28.975,2.28,2.91Z" transform="translate(574.146 403.925)"/>
      <path id="패스_1618" data-name="패스 1618" class="cls-22" d="M1.59,0h.825V-6.93c0-.9-.06-2.1-.105-3.015h.06L3.225-7.5l2.31,6.33h.72L8.55-7.5,9.4-9.945h.06c-.045.915-.1,2.115-.1,3.015V0h.855V-10.935h-1.2L6.765-4.65c-.27.8-.525,1.605-.81,2.4h-.06L5.04-4.65,2.79-10.935H1.59Z" transform="translate(562.64 403.925)"/>
      <text id="_2" data-name=" " class="cls-24" transform="translate(558.856 403.925)"><tspan x="0" y="0"> </tspan></text>
      <path id="패스_1617" data-name="패스 1617" class="cls-22" d="M1.05,2.64A3.117,3.117,0,0,0,2.85-.15c0-.8-.36-1.29-.9-1.29a.752.752,0,0,0-.795.75.735.735,0,0,0,.78.765A.73.73,0,0,0,2.115.06,2.269,2.269,0,0,1,.8,2.07Z" transform="translate(555.241 403.925)"/>
      <path id="패스_1616" data-name="패스 1616" class="cls-22" d="M2.565.2A1.763,1.763,0,0,0,3.15.105l-.135-.69a1.342,1.342,0,0,1-.285.03c-.21,0-.36-.165-.36-.54v-10.83H1.5v10.74C1.5-.255,1.845.2,2.565.2Z" transform="translate(551.6 403.925)"/>
      <path id="패스_1615" data-name="패스 1615" class="cls-22" d="M3.27.2A4.608,4.608,0,0,0,6.06-1.02h.03L6.18,0h.735V-5.07c0-1.77-.675-3.135-2.58-3.135A5.545,5.545,0,0,0,1.3-7.155l.39.63a4.323,4.323,0,0,1,2.52-.915c1.515,0,1.86,1.23,1.83,2.415C2.52-4.62.945-3.78.945-2.01A2.11,2.11,0,0,0,3.27.2ZM3.45-.54A1.442,1.442,0,0,1,1.815-2.055c0-1.23,1.08-1.965,4.23-2.325v2.6A3.94,3.94,0,0,1,3.45-.54Z" transform="translate(543.772 403.925)"/>
      <path id="패스_1614" data-name="패스 1614" class="cls-22" d="M3.75.2a4.524,4.524,0,0,0,1.335-.3L4.875-.78A2.8,2.8,0,0,1,3.9-.555c-1.065,0-1.335-.66-1.335-1.665V-7.26h2.3v-.735h-2.3V-10.3H1.83l-.105,2.31L.45-7.92v.66H1.695v4.98C1.695-.8,2.175.2,3.75.2Z" transform="translate(538.584 403.925)"/>
      <path id="패스_1613" data-name="패스 1613" class="cls-22" d="M1.5,0h.87V-5.985c.93-.96,1.59-1.44,2.52-1.44,1.23,0,1.755.765,1.755,2.43V0h.87V-5.115c0-2.055-.765-3.09-2.43-3.09A3.933,3.933,0,0,0,2.355-6.78h-.03L2.22-7.995H1.5Z" transform="translate(530.097 403.925)"/>
      <path id="패스_1612" data-name="패스 1612" class="cls-22" d="M4.56.2a4.473,4.473,0,0,0,2.55-.78L6.78-1.23a3.58,3.58,0,0,1-2.13.69c-1.725,0-2.88-1.365-2.925-3.315h5.67a4.149,4.149,0,0,0,.045-.63c0-2.34-1.155-3.72-3.09-3.72C2.535-8.2.84-6.585.84-3.99.84-1.365,2.5.2,4.56.2ZM1.725-4.545c.165-1.83,1.335-2.91,2.64-2.91,1.395,0,2.28.975,2.28,2.91Z" transform="translate(522.267 403.925)"/>
      <path id="패스_1611" data-name="패스 1611" class="cls-22" d="M2.49-10.185H4.575c1.89,0,2.94.585,2.94,2.175,0,1.575-1.05,2.325-2.94,2.325H2.49ZM8.655,0,5.7-5.01a2.877,2.877,0,0,0,2.73-3c0-2.13-1.47-2.925-3.645-2.925H1.59V0h.9V-4.935H4.725L7.635,0Z" transform="translate(513.51 403.925)"/>
      <path id="패스_1610" data-name="패스 1610" class="cls-22" d="M3.63,2.895l.54-.27A13.792,13.792,0,0,1,2.19-4.62a13.831,13.831,0,0,1,1.98-7.245l-.54-.285A13.832,13.832,0,0,0,1.44-4.62,13.781,13.781,0,0,0,3.63,2.895Z" transform="translate(509.487 403.925)"/>
      <path id="패스_1609" data-name="패스 1609" class="cls-22" d="M3.465.2C5.235.2,6.21-.855,6.21-2.085c0-1.545-1.35-1.98-2.58-2.445C2.7-4.875,1.77-5.2,1.77-6.09c0-.72.54-1.38,1.725-1.38A3.066,3.066,0,0,1,5.4-6.75l.45-.6A3.862,3.862,0,0,0,3.525-8.2C1.845-8.2.9-7.215.9-6.045c0,1.38,1.32,1.875,2.5,2.3.93.33,1.935.765,1.935,1.71,0,.825-.615,1.515-1.83,1.515a3.662,3.662,0,0,1-2.52-1L.525-.9A4.685,4.685,0,0,0,3.465.2Z" transform="translate(503.177 403.925)"/>
      <path id="패스_1608" data-name="패스 1608" class="cls-22" d="M4.56.2a4.473,4.473,0,0,0,2.55-.78L6.78-1.23a3.58,3.58,0,0,1-2.13.69c-1.725,0-2.88-1.365-2.925-3.315h5.67a4.149,4.149,0,0,0,.045-.63c0-2.34-1.155-3.72-3.09-3.72C2.535-8.2.84-6.585.84-3.99.84-1.365,2.5.2,4.56.2ZM1.725-4.545c.165-1.83,1.335-2.91,2.64-2.91,1.395,0,2.28.975,2.28,2.91Z" transform="translate(495.184 403.925)"/>
      <path id="패스_1607" data-name="패스 1607" class="cls-22" d="M2.565.2A1.763,1.763,0,0,0,3.15.105l-.135-.69a1.342,1.342,0,0,1-.285.03c-.21,0-.36-.165-.36-.54v-10.83H1.5v10.74C1.5-.255,1.845.2,2.565.2Z" transform="translate(491.594 403.925)"/>
      <path id="패스_1606" data-name="패스 1606" class="cls-22" d="M3.27.2A4.608,4.608,0,0,0,6.06-1.02h.03L6.18,0h.735V-5.07c0-1.77-.675-3.135-2.58-3.135A5.545,5.545,0,0,0,1.3-7.155l.39.63a4.323,4.323,0,0,1,2.52-.915c1.515,0,1.86,1.23,1.83,2.415C2.52-4.62.945-3.78.945-2.01A2.11,2.11,0,0,0,3.27.2ZM3.45-.54A1.442,1.442,0,0,1,1.815-2.055c0-1.23,1.08-1.965,4.23-2.325v2.6A3.94,3.94,0,0,1,3.45-.54Z" transform="translate(483.767 403.925)"/>
      <path id="패스_1605" data-name="패스 1605" class="cls-22" d="M4.485.2c2.145,0,3.54-1.29,3.54-2.97,0-1.665-1.05-2.355-2.3-2.91L4.1-6.4c-.8-.345-1.86-.81-1.86-2.055,0-1.125.93-1.86,2.325-1.86a3.509,3.509,0,0,1,2.58,1.1l.51-.585a4.177,4.177,0,0,0-3.09-1.32c-1.86,0-3.24,1.125-3.24,2.745s1.245,2.3,2.22,2.73l1.635.72c1.08.48,1.935.9,1.935,2.22,0,1.245-1.005,2.1-2.625,2.1A4.21,4.21,0,0,1,1.32-2.07l-.555.63A4.867,4.867,0,0,0,4.485.2Z" transform="translate(475.181 403.925)"/>
      <text id="_3" data-name="" class="cls-24" transform="translate(475.181 403.925)"><tspan x="0" y="0"></tspan></text>
    </g>
    <text id="_4" data-name="" class="cls-24" transform="translate(651.446 403.925)"><tspan x="0" y="0"></tspan></text>
    <path id="패스_1630" data-name="패스 1630" class="cls-22" d="M1.59,0H7.47V-.78H2.49V-10.935h-.9Zm9.63.2a3.549,3.549,0,0,0,2.7-1.515h.045L14.04,0h.735V-7.995h-.87v5.85c-.9,1.08-1.56,1.56-2.49,1.56-1.23,0-1.74-.765-1.74-2.4v-5.01h-.87V-2.88C8.805-.825,9.555.2,11.22.2ZM17.385,0h.87V-5.985a3.373,3.373,0,0,1,2.31-1.44c1.185,0,1.725.765,1.725,2.43V0h.87V-5.985a3.373,3.373,0,0,1,2.31-1.44c1.17,0,1.725.765,1.725,2.43V0h.87V-5.115c0-2.055-.795-3.09-2.4-3.09a4,4,0,0,0-2.7,1.62,2.071,2.071,0,0,0-2.2-1.62A3.713,3.713,0,0,0,18.24-6.78h-.03L18.1-7.995h-.72ZM30.63,3.57h.87V.69L31.485-.78A3.95,3.95,0,0,0,33.84.2c1.875,0,3.525-1.59,3.525-4.32,0-2.46-1.08-4.08-3.21-4.08a4.649,4.649,0,0,0-2.67,1.185h-.03l-.105-.975h-.72ZM33.765-.57A3.668,3.668,0,0,1,31.5-1.545v-4.62A4.008,4.008,0,0,1,33.99-7.44c1.785,0,2.445,1.395,2.445,3.315C36.435-1.98,35.325-.57,33.765-.57Zm5.25-3.21h3.69v-.735h-3.69ZM46.8.2c1.77,0,2.745-1.05,2.745-2.28,0-1.545-1.35-1.98-2.58-2.445-.93-.345-1.86-.675-1.86-1.56,0-.72.54-1.38,1.725-1.38a3.066,3.066,0,0,1,1.905.72l.45-.6A3.862,3.862,0,0,0,46.86-8.2c-1.68,0-2.625.99-2.625,2.16,0,1.38,1.32,1.875,2.5,2.3.93.33,1.935.765,1.935,1.71,0,.825-.615,1.515-1.83,1.515a3.662,3.662,0,0,1-2.52-1L43.86-.9A4.685,4.685,0,0,0,46.8.2Zm6.87,0a3.549,3.549,0,0,0,2.7-1.515h.045L56.49,0h.735V-7.995h-.87v5.85c-.9,1.08-1.56,1.56-2.49,1.56-1.23,0-1.74-.765-1.74-2.4v-5.01h-.87V-2.88C51.255-.825,52.005.2,53.67.2ZM59.85,0h.87V-5.985a3.373,3.373,0,0,1,2.31-1.44c1.185,0,1.725.765,1.725,2.43V0h.87V-5.985a3.373,3.373,0,0,1,2.31-1.44c1.17,0,1.725.765,1.725,2.43V0h.87V-5.115c0-2.055-.795-3.09-2.4-3.09a4,4,0,0,0-2.7,1.62A2.071,2.071,0,0,0,63.225-8.2,3.713,3.713,0,0,0,60.7-6.78h-.03l-.1-1.215h-.72ZM78.57.2c1.77,0,2.745-1.05,2.745-2.28,0-1.545-1.35-1.98-2.58-2.445-.93-.345-1.86-.675-1.86-1.56,0-.72.54-1.38,1.725-1.38a3.066,3.066,0,0,1,1.9.72l.45-.6A3.862,3.862,0,0,0,78.63-8.2c-1.68,0-2.625.99-2.625,2.16,0,1.38,1.32,1.875,2.5,2.3.93.33,1.935.765,1.935,1.71,0,.825-.615,1.515-1.83,1.515a3.662,3.662,0,0,1-2.52-1L75.63-.9A4.685,4.685,0,0,0,78.57.2Zm6.57,0A4.608,4.608,0,0,0,87.93-1.02h.03L88.05,0h.735V-5.07c0-1.77-.675-3.135-2.58-3.135a5.545,5.545,0,0,0-3.03,1.05l.39.63a4.323,4.323,0,0,1,2.52-.915c1.515,0,1.86,1.23,1.83,2.415-3.525.405-5.1,1.245-5.1,3.015A2.11,2.11,0,0,0,85.14.2Zm.18-.735a1.442,1.442,0,0,1-1.635-1.515c0-1.23,1.08-1.965,4.23-2.325v2.6A3.94,3.94,0,0,1,85.32-.54ZM92.34.2a1.763,1.763,0,0,0,.585-.09l-.135-.69a1.342,1.342,0,0,1-.285.03c-.21,0-.36-.165-.36-.54v-10.83h-.87v10.74C91.275-.255,91.62.2,92.34.2Zm5.67,0a4.473,4.473,0,0,0,2.55-.78l-.33-.645a3.58,3.58,0,0,1-2.13.69c-1.725,0-2.88-1.365-2.925-3.315h5.67a4.148,4.148,0,0,0,.045-.63c0-2.34-1.155-3.72-3.09-3.72-1.815,0-3.51,1.62-3.51,4.215C94.29-1.365,95.955.2,98.01.2Zm-2.835-4.74c.165-1.83,1.335-2.91,2.64-2.91,1.4,0,2.28.975,2.28,2.91ZM104.985.2c1.77,0,2.745-1.05,2.745-2.28,0-1.545-1.35-1.98-2.58-2.445-.93-.345-1.86-.675-1.86-1.56,0-.72.54-1.38,1.725-1.38a3.066,3.066,0,0,1,1.9.72l.45-.6a3.862,3.862,0,0,0-2.325-.855c-1.68,0-2.625.99-2.625,2.16,0,1.38,1.32,1.875,2.5,2.3.93.33,1.935.765,1.935,1.71,0,.825-.615,1.515-1.83,1.515a3.662,3.662,0,0,1-2.52-1l-.465.63A4.685,4.685,0,0,0,104.985.2Zm3.945,2.7a13.781,13.781,0,0,0,2.19-7.515,13.832,13.832,0,0,0-2.19-7.53l-.54.285a13.831,13.831,0,0,1,1.98,7.245,13.792,13.792,0,0,1-1.98,7.245Z" transform="translate(475.181 428.931)"/>
    <text id="_5" data-name="• " class="cls-25" transform="translate(466.376 453.936)"><tspan class="cls-26" x="0" y="0">•</tspan><tspan y="0"> </tspan></text>
    <path id="패스_1631" data-name="패스 1631" class="cls-22" d="M4.485.2c2.145,0,3.54-1.29,3.54-2.97,0-1.665-1.05-2.355-2.3-2.91L4.1-6.4c-.8-.345-1.86-.81-1.86-2.055,0-1.125.93-1.86,2.325-1.86a3.509,3.509,0,0,1,2.58,1.1l.51-.585a4.177,4.177,0,0,0-3.09-1.32c-1.86,0-3.24,1.125-3.24,2.745s1.245,2.3,2.22,2.73l1.635.72c1.08.48,1.935.9,1.935,2.22,0,1.245-1.005,2.1-2.625,2.1A4.21,4.21,0,0,1,1.32-2.07l-.555.63A4.867,4.867,0,0,0,4.485.2ZM13.26.2a4.473,4.473,0,0,0,2.55-.78l-.33-.645a3.58,3.58,0,0,1-2.13.69c-1.725,0-2.88-1.365-2.925-3.315h5.67a4.149,4.149,0,0,0,.045-.63c0-2.34-1.155-3.72-3.09-3.72-1.815,0-3.51,1.62-3.51,4.215C9.54-1.365,11.2.2,13.26.2Zm-2.835-4.74c.165-1.83,1.335-2.91,2.64-2.91,1.395,0,2.28.975,2.28,2.91ZM18.1,0h.87V-5.37c.585-1.485,1.44-2.01,2.145-2.01a1.691,1.691,0,0,1,.735.135l.18-.78a1.611,1.611,0,0,0-.81-.18,2.751,2.751,0,0,0-2.265,1.7h-.03l-.105-1.485H18.1ZM26.37,0H27.4l2.94-7.995H29.46l-1.74,4.9c-.255.78-.54,1.59-.8,2.31h-.06c-.27-.72-.54-1.53-.8-2.31l-1.725-4.9H23.4Zm5.58,0h.87V-7.995h-.87Zm.45-9.87a.708.708,0,0,0,.735-.69.7.7,0,0,0-.735-.72.7.7,0,0,0-.735.72A.7.7,0,0,0,32.4-9.87ZM38.55.2A3.869,3.869,0,0,0,41.1-.84l-.42-.6A3.193,3.193,0,0,1,38.6-.555c-1.68,0-2.79-1.395-2.79-3.435S37.02-7.44,38.61-7.44a2.625,2.625,0,0,1,1.83.81l.495-.6A3.381,3.381,0,0,0,38.6-8.2c-1.98,0-3.705,1.545-3.705,4.215S36.465.2,38.55.2Zm6.9,0A4.473,4.473,0,0,0,48-.585l-.33-.645a3.58,3.58,0,0,1-2.13.69c-1.725,0-2.88-1.365-2.925-3.315h5.67a4.149,4.149,0,0,0,.045-.63c0-2.34-1.155-3.72-3.09-3.72-1.815,0-3.51,1.62-3.51,4.215C41.73-1.365,43.4.2,45.45.2Zm-2.835-4.74c.165-1.83,1.335-2.91,2.64-2.91,1.4,0,2.28.975,2.28,2.91ZM53.64,3.57h.87V.69L54.495-.78A3.95,3.95,0,0,0,56.85.2c1.875,0,3.525-1.59,3.525-4.32,0-2.46-1.08-4.08-3.21-4.08a4.649,4.649,0,0,0-2.67,1.185h-.03l-.1-.975h-.72ZM56.775-.57a3.668,3.668,0,0,1-2.265-.975v-4.62A4.008,4.008,0,0,1,57-7.44c1.785,0,2.445,1.395,2.445,3.315C59.445-1.98,58.335-.57,56.775-.57ZM62.52,0h.87V-5.37c.585-1.485,1.44-2.01,2.145-2.01a1.691,1.691,0,0,1,.735.135l.18-.78a1.611,1.611,0,0,0-.81-.18,2.751,2.751,0,0,0-2.265,1.7h-.03l-.1-1.485h-.72Zm7.935.2C72.39.2,74.07-1.335,74.07-3.99S72.39-8.2,70.455-8.2,66.84-6.66,66.84-3.99,68.52.2,70.455.2Zm0-.75c-1.56,0-2.7-1.395-2.7-3.435s1.14-3.45,2.7-3.45S73.17-6.03,73.17-3.99,72.015-.555,70.455-.555Zm8.31,4.365c2.34,0,3.84-1.32,3.84-2.715C82.6-.18,81.75-.75,79.935-.75h-1.68c-1.155,0-1.5-.435-1.5-1a1.375,1.375,0,0,1,.63-1.11,2.7,2.7,0,0,0,1.29.33,2.752,2.752,0,0,0,2.82-2.82,2.55,2.55,0,0,0-.825-1.92h1.8v-.72H79.74a2.843,2.843,0,0,0-1.065-.21A2.793,2.793,0,0,0,75.81-5.37a2.9,2.9,0,0,0,1.02,2.175v.06a1.988,1.988,0,0,0-.885,1.485,1.434,1.434,0,0,0,.72,1.29v.075a2.43,2.43,0,0,0-1.2,1.905C75.465,2.97,76.77,3.81,78.765,3.81Zm-.09-7.005a2.05,2.05,0,0,1-2-2.175,1.984,1.984,0,0,1,2-2.13,1.981,1.981,0,0,1,1.98,2.13A2.047,2.047,0,0,1,78.675-3.195ZM78.87,3.15c-1.635,0-2.58-.66-2.58-1.635A2.006,2.006,0,0,1,77.28-.09a5.622,5.622,0,0,0,1,.135H79.92c1.185,0,1.815.315,1.815,1.17C81.735,2.175,80.61,3.15,78.87,3.15ZM84.135,0h.87V-5.37c.585-1.485,1.44-2.01,2.145-2.01a1.691,1.691,0,0,1,.735.135l.18-.78a1.611,1.611,0,0,0-.81-.18,2.751,2.751,0,0,0-2.265,1.7h-.03l-.1-1.485h-.72ZM90.96.2A4.608,4.608,0,0,0,93.75-1.02h.03L93.87,0h.735V-5.07c0-1.77-.675-3.135-2.58-3.135A5.545,5.545,0,0,0,89-7.155l.39.63A4.323,4.323,0,0,1,91.9-7.44c1.515,0,1.86,1.23,1.83,2.415-3.525.405-5.1,1.245-5.1,3.015A2.11,2.11,0,0,0,90.96.2Zm.18-.735a1.442,1.442,0,0,1-1.635-1.515c0-1.23,1.08-1.965,4.23-2.325v2.6A3.94,3.94,0,0,1,91.14-.54ZM97.11,0h.87V-5.985a3.373,3.373,0,0,1,2.31-1.44c1.185,0,1.725.765,1.725,2.43V0h.87V-5.985a3.373,3.373,0,0,1,2.31-1.44c1.17,0,1.725.765,1.725,2.43V0h.87V-5.115c0-2.055-.795-3.09-2.4-3.09a4,4,0,0,0-2.7,1.62,2.071,2.071,0,0,0-2.205-1.62,3.713,3.713,0,0,0-2.52,1.425h-.03l-.1-1.215h-.72Zm15.345.2c1.77,0,2.745-1.05,2.745-2.28,0-1.545-1.35-1.98-2.58-2.445-.93-.345-1.86-.675-1.86-1.56,0-.72.54-1.38,1.725-1.38a3.066,3.066,0,0,1,1.9.72l.45-.6a3.862,3.862,0,0,0-2.325-.855c-1.68,0-2.625.99-2.625,2.16,0,1.38,1.32,1.875,2.5,2.3.93.33,1.935.765,1.935,1.71,0,.825-.615,1.515-1.83,1.515a3.662,3.662,0,0,1-2.52-1l-.465.63A4.685,4.685,0,0,0,112.455.2Z" transform="translate(475.181 453.936)"/>
    <path id="패스_1632" data-name="패스 1632" class="cls-23" d="M2.385-2.52a1.755,1.755,0,0,0,1.7-1.86,1.755,1.755,0,0,0-1.7-1.86A1.768,1.768,0,0,0,.66-4.38,1.768,1.768,0,0,0,2.385-2.52Z" transform="translate(466.372 478.925)"/>
    <path id="패스_1633" data-name="패스 1633" class="cls-22" d="M5.52.2a4.1,4.1,0,0,0,3.27-1.56l-.51-.57A3.5,3.5,0,0,1,5.565-.615c-2.3,0-3.72-1.9-3.72-4.89C1.845-8.46,3.3-10.32,5.61-10.32a3.073,3.073,0,0,1,2.37,1.1l.51-.585a3.782,3.782,0,0,0-2.88-1.32C2.835-11.13.9-8.97.9-5.475S2.82.2,5.52.2Zm7.245,0a3.549,3.549,0,0,0,2.7-1.515h.045L15.585,0h.735V-7.995h-.87v5.85c-.9,1.08-1.56,1.56-2.49,1.56-1.23,0-1.74-.765-1.74-2.4v-5.01h-.87V-2.88C10.35-.825,11.1.2,12.765.2Zm8.25,0c1.77,0,2.745-1.05,2.745-2.28,0-1.545-1.35-1.98-2.58-2.445-.93-.345-1.86-.675-1.86-1.56,0-.72.54-1.38,1.725-1.38a3.066,3.066,0,0,1,1.905.72l.45-.6A3.862,3.862,0,0,0,21.075-8.2c-1.68,0-2.625.99-2.625,2.16,0,1.38,1.32,1.875,2.505,2.3.93.33,1.935.765,1.935,1.71,0,.825-.615,1.515-1.83,1.515a3.662,3.662,0,0,1-2.52-1l-.465.63A4.685,4.685,0,0,0,21.015.2ZM27.8.2a4.524,4.524,0,0,0,1.335-.3L28.92-.78a2.8,2.8,0,0,1-.975.225c-1.065,0-1.335-.66-1.335-1.665V-7.26h2.3v-.735h-2.3V-10.3h-.735l-.1,2.31L24.5-7.92v.66H25.74v4.98C25.74-.8,26.22.2,27.8.2ZM33.24.2c1.935,0,3.615-1.53,3.615-4.185S35.175-8.2,33.24-8.2,29.625-6.66,29.625-3.99,31.305.2,33.24.2Zm0-.75c-1.56,0-2.7-1.395-2.7-3.435s1.14-3.45,2.7-3.45,2.715,1.41,2.715,3.45S34.8-.555,33.24-.555ZM38.955,0h.87V-5.985a3.373,3.373,0,0,1,2.31-1.44c1.185,0,1.725.765,1.725,2.43V0h.87V-5.985a3.373,3.373,0,0,1,2.31-1.44c1.17,0,1.725.765,1.725,2.43V0h.87V-5.115c0-2.055-.795-3.09-2.4-3.09a4,4,0,0,0-2.7,1.62A2.071,2.071,0,0,0,42.33-8.2,3.713,3.713,0,0,0,39.81-6.78h-.03l-.1-1.215h-.72ZM55.38.2a4.473,4.473,0,0,0,2.55-.78L57.6-1.23a3.58,3.58,0,0,1-2.13.69c-1.725,0-2.88-1.365-2.925-3.315h5.67a4.149,4.149,0,0,0,.045-.63c0-2.34-1.155-3.72-3.09-3.72-1.815,0-3.51,1.62-3.51,4.215C51.66-1.365,53.325.2,55.38.2Zm-2.835-4.74c.165-1.83,1.335-2.91,2.64-2.91,1.4,0,2.28.975,2.28,2.91ZM60.225,0h.87V-5.37c.585-1.485,1.44-2.01,2.145-2.01a1.691,1.691,0,0,1,.735.135l.18-.78a1.611,1.611,0,0,0-.81-.18,2.751,2.751,0,0,0-2.265,1.7h-.03l-.1-1.485h-.72Zm11.22.2A3.869,3.869,0,0,0,74-.84l-.42-.6a3.193,3.193,0,0,1-2.085.885c-1.68,0-2.79-1.395-2.79-3.435S69.915-7.44,71.5-7.44a2.625,2.625,0,0,1,1.83.81l.5-.6A3.381,3.381,0,0,0,71.49-8.2c-1.98,0-3.705,1.545-3.705,4.215S69.36.2,71.445.2Zm6.8,0c1.935,0,3.615-1.53,3.615-4.185S80.175-8.2,78.24-8.2,74.625-6.66,74.625-3.99,76.305.2,78.24.2Zm0-.75c-1.56,0-2.7-1.395-2.7-3.435s1.14-3.45,2.7-3.45,2.715,1.41,2.715,3.45S79.8-.555,78.24-.555ZM83.955,0h.87V-5.985a3.373,3.373,0,0,1,2.31-1.44c1.185,0,1.725.765,1.725,2.43V0h.87V-5.985a3.373,3.373,0,0,1,2.31-1.44c1.17,0,1.725.765,1.725,2.43V0h.87V-5.115c0-2.055-.795-3.09-2.4-3.09a4,4,0,0,0-2.7,1.62A2.071,2.071,0,0,0,87.33-8.2,3.713,3.713,0,0,0,84.81-6.78h-.03l-.1-1.215h-.72ZM97.2,0h.87V-5.985a3.373,3.373,0,0,1,2.31-1.44c1.185,0,1.725.765,1.725,2.43V0h.87V-5.985a3.373,3.373,0,0,1,2.31-1.44c1.17,0,1.725.765,1.725,2.43V0h.87V-5.115c0-2.055-.795-3.09-2.4-3.09a4,4,0,0,0-2.7,1.62,2.071,2.071,0,0,0-2.205-1.62,3.713,3.713,0,0,0-2.52,1.425h-.03l-.1-1.215H97.2Zm15.57.2a3.549,3.549,0,0,0,2.7-1.515h.045L115.59,0h.735V-7.995h-.87v5.85c-.9,1.08-1.56,1.56-2.49,1.56-1.23,0-1.74-.765-1.74-2.4v-5.01h-.87V-2.88C110.355-.825,111.1.2,112.77.2Zm6.165-.2h.87V-5.985c.93-.96,1.59-1.44,2.52-1.44,1.23,0,1.755.765,1.755,2.43V0h.87V-5.115c0-2.055-.765-3.09-2.43-3.09a3.933,3.933,0,0,0-2.73,1.425h-.03l-.1-1.215h-.72Zm8.55,0h.87V-7.995h-.87Zm.45-9.87a.708.708,0,0,0,.735-.69.7.7,0,0,0-.735-.72.7.7,0,0,0-.735.72A.7.7,0,0,0,127.935-9.87ZM134.085.2a3.869,3.869,0,0,0,2.55-1.035l-.42-.6a3.193,3.193,0,0,1-2.085.885c-1.68,0-2.79-1.395-2.79-3.435s1.215-3.45,2.8-3.45a2.625,2.625,0,0,1,1.83.81l.495-.6a3.381,3.381,0,0,0-2.34-.975c-1.98,0-3.705,1.545-3.705,4.215S132,.2,134.085.2Zm6.075,0a4.608,4.608,0,0,0,2.79-1.215h.03L143.07,0h.735V-5.07c0-1.77-.675-3.135-2.58-3.135a5.545,5.545,0,0,0-3.03,1.05l.39.63a4.323,4.323,0,0,1,2.52-.915c1.515,0,1.86,1.23,1.83,2.415-3.525.405-5.1,1.245-5.1,3.015A2.11,2.11,0,0,0,140.16.2Zm.18-.735a1.442,1.442,0,0,1-1.635-1.515c0-1.23,1.08-1.965,4.23-2.325v2.6A3.94,3.94,0,0,1,140.34-.54Zm8,.735a4.524,4.524,0,0,0,1.335-.3l-.21-.675a2.8,2.8,0,0,1-.975.225c-1.065,0-1.335-.66-1.335-1.665V-7.26h2.295v-.735H147.15V-10.3h-.735l-.1,2.31-1.275.075v.66h1.245v4.98C146.28-.8,146.76.2,148.335.2ZM151.26,0h.87V-7.995h-.87Zm.45-9.87a.708.708,0,0,0,.735-.69.7.7,0,0,0-.735-.72.7.7,0,0,0-.735.72A.7.7,0,0,0,151.71-9.87ZM157.77.2c1.935,0,3.615-1.53,3.615-4.185S159.705-8.2,157.77-8.2s-3.615,1.545-3.615,4.215S155.835.2,157.77.2Zm0-.75c-1.56,0-2.7-1.395-2.7-3.435s1.14-3.45,2.7-3.45,2.715,1.41,2.715,3.45S159.33-.555,157.77-.555ZM163.485,0h.87V-5.985c.93-.96,1.59-1.44,2.52-1.44,1.23,0,1.755.765,1.755,2.43V0h.87V-5.115c0-2.055-.765-3.09-2.43-3.09a3.933,3.933,0,0,0-2.73,1.425h-.03l-.1-1.215h-.72Z" transform="translate(474.818 478.925)"/>
  </g>
  <g id="그룹_878" data-name="그룹 878" transform="translate(-20.095 -173.211)">
    <path id="패스_1603" data-name="패스 1603" class="cls-23" d="M2.385-2.52a1.755,1.755,0,0,0,1.7-1.86,1.755,1.755,0,0,0-1.7-1.86A1.768,1.768,0,0,0,.66-4.38,1.768,1.768,0,0,0,2.385-2.52Z" transform="translate(684.096 403.925)"/>
    <path id="패스_1601" data-name="패스 1601" class="cls-22" d="M5.745-10.185H7.83c1.89,0,2.94.585,2.94,2.175,0,1.575-1.05,2.325-2.94,2.325H5.745ZM11.91,0,8.955-5.01a2.877,2.877,0,0,0,2.73-3c0-2.13-1.47-2.925-3.645-2.925H4.845V0h.9V-4.935H7.98L10.89,0Zm4.575.2a4.473,4.473,0,0,0,2.55-.78L18.7-1.23a3.58,3.58,0,0,1-2.13.69c-1.725,0-2.88-1.365-2.925-3.315h5.67a4.149,4.149,0,0,0,.045-.63c0-2.34-1.155-3.72-3.09-3.72-1.815,0-3.51,1.62-3.51,4.215C12.765-1.365,14.43.2,16.485.2ZM13.65-4.545c.165-1.83,1.335-2.91,2.64-2.91,1.4,0,2.28.975,2.28,2.91ZM24.735-11.85a3.041,3.041,0,0,0-1.2-.27c-1.35,0-2.055.855-2.055,2.445v1.68l-1.11.075v.66h1.11V0h.87V-7.26h1.815v-.735H22.35V-9.63c0-1.125.375-1.755,1.23-1.755a2.284,2.284,0,0,1,.945.225ZM28.095.2a3.549,3.549,0,0,0,2.7-1.515h.045L30.915,0h.735V-7.995h-.87v5.85c-.9,1.08-1.56,1.56-2.49,1.56-1.23,0-1.74-.765-1.74-2.4v-5.01h-.87V-2.88C25.68-.825,26.43.2,28.095.2Zm6.18-.2h.87V-5.37c.585-1.485,1.44-2.01,2.145-2.01a1.691,1.691,0,0,1,.735.135l.18-.78a1.611,1.611,0,0,0-.81-.18,2.751,2.751,0,0,0-2.265,1.7H35.1L35-7.995h-.72ZM42.87.2c1.875,0,3.525-1.59,3.525-4.32,0-2.46-1.08-4.08-3.21-4.08a4.422,4.422,0,0,0-2.7,1.23L40.53-8.5v-3.42h-.87V0h.7l.105-.81h.03A3.953,3.953,0,0,0,42.87.2ZM42.795-.57a3.605,3.605,0,0,1-2.265-.975v-4.62A3.939,3.939,0,0,1,43.02-7.44c1.785,0,2.445,1.395,2.445,3.315C45.465-1.98,44.355-.57,42.795-.57ZM48.48,0h.87V-7.995h-.87Zm.45-9.87a.708.708,0,0,0,.735-.69.7.7,0,0,0-.735-.72.7.7,0,0,0-.735.72A.7.7,0,0,0,48.93-9.87ZM54.03.2c1.77,0,2.745-1.05,2.745-2.28,0-1.545-1.35-1.98-2.58-2.445-.93-.345-1.86-.675-1.86-1.56,0-.72.54-1.38,1.725-1.38a3.066,3.066,0,0,1,1.905.72l.45-.6A3.862,3.862,0,0,0,54.09-8.2c-1.68,0-2.625.99-2.625,2.16,0,1.38,1.32,1.875,2.5,2.3.93.33,1.935.765,1.935,1.71,0,.825-.615,1.515-1.83,1.515a3.662,3.662,0,0,1-2.52-1L51.09-.9A4.685,4.685,0,0,0,54.03.2ZM58.59,0h.87V-5.985c.93-.96,1.59-1.44,2.52-1.44,1.23,0,1.755.765,1.755,2.43V0h.87V-5.115c0-2.055-.765-3.09-2.43-3.09a3.9,3.9,0,0,0-2.73,1.44L59.46-8.5v-3.42h-.87ZM70.305.2a4.473,4.473,0,0,0,2.55-.78l-.33-.645a3.58,3.58,0,0,1-2.13.69c-1.725,0-2.88-1.365-2.925-3.315h5.67a4.148,4.148,0,0,0,.045-.63c0-2.34-1.155-3.72-3.09-3.72-1.815,0-3.51,1.62-3.51,4.215C66.585-1.365,68.25.2,70.305.2ZM67.47-4.545c.165-1.83,1.335-2.91,2.64-2.91,1.4,0,2.28.975,2.28,2.91ZM77.97.2A3.706,3.706,0,0,0,80.535-1h.03l.105,1h.72V-11.925h-.87V-8.67l.06,1.44A3.59,3.59,0,0,0,78.195-8.2c-1.89,0-3.54,1.635-3.54,4.215C74.655-1.3,75.96.2,77.97.2Zm.15-.765c-1.62,0-2.535-1.35-2.535-3.42,0-1.965,1.17-3.45,2.7-3.45a3.228,3.228,0,0,1,2.235.99v4.62A3.347,3.347,0,0,1,78.12-.57ZM90.195,3.81c2.34,0,3.84-1.32,3.84-2.715,0-1.275-.855-1.845-2.67-1.845h-1.68c-1.155,0-1.5-.435-1.5-1a1.375,1.375,0,0,1,.63-1.11,2.7,2.7,0,0,0,1.29.33,2.752,2.752,0,0,0,2.82-2.82,2.55,2.55,0,0,0-.825-1.92h1.8v-.72H91.17A2.843,2.843,0,0,0,90.1-8.2,2.793,2.793,0,0,0,87.24-5.37a2.9,2.9,0,0,0,1.02,2.175v.06a1.988,1.988,0,0,0-.885,1.485A1.434,1.434,0,0,0,88.1-.36v.075a2.43,2.43,0,0,0-1.2,1.905C86.895,2.97,88.2,3.81,90.195,3.81ZM90.1-3.195A2.05,2.05,0,0,1,88.11-5.37,1.984,1.984,0,0,1,90.1-7.5a1.981,1.981,0,0,1,1.98,2.13A2.047,2.047,0,0,1,90.1-3.195Zm.2,6.345c-1.635,0-2.58-.66-2.58-1.635A2.006,2.006,0,0,1,88.71-.09a5.622,5.622,0,0,0,1,.135H91.35c1.185,0,1.815.315,1.815,1.17C93.165,2.175,92.04,3.15,90.3,3.15ZM98.145.2c1.935,0,3.615-1.53,3.615-4.185S100.08-8.2,98.145-8.2,94.53-6.66,94.53-3.99,96.21.2,98.145.2Zm0-.75c-1.56,0-2.7-1.395-2.7-3.435s1.14-3.45,2.7-3.45,2.715,1.41,2.715,3.45S99.705-.555,98.145-.555Zm8.82.75c1.935,0,3.615-1.53,3.615-4.185S108.9-8.2,106.965-8.2,103.35-6.66,103.35-3.99,105.03.2,106.965.2Zm0-.75c-1.56,0-2.7-1.395-2.7-3.435s1.14-3.45,2.7-3.45,2.715,1.41,2.715,3.45S108.525-.555,106.965-.555Zm8.52.75A3.706,3.706,0,0,0,118.05-1h.03l.105,1h.72V-11.925h-.87V-8.67l.06,1.44A3.59,3.59,0,0,0,115.71-8.2c-1.89,0-3.54,1.635-3.54,4.215C112.17-1.3,113.475.2,115.485.2Zm.15-.765c-1.62,0-2.535-1.35-2.535-3.42,0-1.965,1.17-3.45,2.7-3.45a3.228,3.228,0,0,1,2.235.99v4.62A3.347,3.347,0,0,1,115.635-.57Zm7.98.765c1.77,0,2.745-1.05,2.745-2.28,0-1.545-1.35-1.98-2.58-2.445-.93-.345-1.86-.675-1.86-1.56,0-.72.54-1.38,1.725-1.38a3.066,3.066,0,0,1,1.9.72l.45-.6a3.862,3.862,0,0,0-2.325-.855c-1.68,0-2.625.99-2.625,2.16,0,1.38,1.32,1.875,2.5,2.3.93.33,1.935.765,1.935,1.71,0,.825-.615,1.515-1.83,1.515a3.662,3.662,0,0,1-2.52-1l-.465.63A4.685,4.685,0,0,0,123.615.2Z" transform="translate(688.776 403.925)"/>
    <path id="패스_1604" data-name="패스 1604" class="cls-23" d="M2.385-2.52a1.755,1.755,0,0,0,1.7-1.86,1.755,1.755,0,0,0-1.7-1.86A1.768,1.768,0,0,0,.66-4.38,1.768,1.768,0,0,0,2.385-2.52Z" transform="translate(684.096 428.931)"/>
    <path id="패스_1602" data-name="패스 1602" class="cls-22" d="M5.73-10.185H7.815c1.89,0,2.94.585,2.94,2.175,0,1.575-1.05,2.325-2.94,2.325H5.73ZM11.9,0,8.94-5.01a2.877,2.877,0,0,0,2.73-3c0-2.13-1.47-2.925-3.645-2.925H4.83V0h.9V-4.935H7.965L10.875,0Zm3.51.2a4.608,4.608,0,0,0,2.79-1.215h.03L18.315,0h.735V-5.07c0-1.77-.675-3.135-2.58-3.135a5.545,5.545,0,0,0-3.03,1.05l.39.63a4.323,4.323,0,0,1,2.52-.915c1.515,0,1.86,1.23,1.83,2.415-3.525.405-5.1,1.245-5.1,3.015A2.11,2.11,0,0,0,15.405.2Zm.18-.735A1.442,1.442,0,0,1,13.95-2.055c0-1.23,1.08-1.965,4.23-2.325v2.6A3.94,3.94,0,0,1,15.585-.54Zm7.17.54h1.05L25.11-4.785c.255-.78.435-1.53.615-2.325H25.8c.225.8.375,1.53.6,2.3L27.75,0h1.125l2.25-7.995H30.27L28.9-2.955C28.71-2.19,28.53-1.5,28.35-.78h-.06c-.21-.72-.39-1.41-.585-2.175L26.28-7.995h-.96L23.9-2.955C23.7-2.2,23.52-1.5,23.325-.78H23.25c-.15-.72-.33-1.41-.51-2.175l-1.4-5.04h-.93Zm13.44,0h.87V-5.985a3.373,3.373,0,0,1,2.31-1.44c1.185,0,1.725.765,1.725,2.43V0h.87V-5.985a3.373,3.373,0,0,1,2.31-1.44c1.17,0,1.725.765,1.725,2.43V0h.87V-5.115c0-2.055-.795-3.09-2.4-3.09a4,4,0,0,0-2.7,1.62A2.071,2.071,0,0,0,39.57-8.2,3.713,3.713,0,0,0,37.05-6.78h-.03l-.1-1.215h-.72Zm14.97.2a4.608,4.608,0,0,0,2.79-1.215h.03L54.075,0h.735V-5.07c0-1.77-.675-3.135-2.58-3.135a5.545,5.545,0,0,0-3.03,1.05l.39.63a4.323,4.323,0,0,1,2.52-.915c1.515,0,1.86,1.23,1.83,2.415-3.525.405-5.1,1.245-5.1,3.015A2.11,2.11,0,0,0,51.165.2Zm.18-.735A1.442,1.442,0,0,1,49.71-2.055c0-1.23,1.08-1.965,4.23-2.325v2.6A3.94,3.94,0,0,1,51.345-.54ZM59.34.2a4.524,4.524,0,0,0,1.335-.3l-.21-.675a2.8,2.8,0,0,1-.975.225c-1.065,0-1.335-.66-1.335-1.665V-7.26h2.3v-.735h-2.3V-10.3H57.42l-.105,2.31L56.04-7.92v.66h1.245v4.98C57.285-.8,57.765.2,59.34.2Zm5.55,0a4.473,4.473,0,0,0,2.55-.78l-.33-.645a3.58,3.58,0,0,1-2.13.69c-1.725,0-2.88-1.365-2.925-3.315h5.67a4.148,4.148,0,0,0,.045-.63c0-2.34-1.155-3.72-3.09-3.72-1.815,0-3.51,1.62-3.51,4.215C61.17-1.365,62.835.2,64.89.2Zm-2.835-4.74c.165-1.83,1.335-2.91,2.64-2.91,1.4,0,2.28.975,2.28,2.91ZM69.735,0h.87V-5.37c.585-1.485,1.44-2.01,2.145-2.01a1.691,1.691,0,0,1,.735.135l.18-.78a1.611,1.611,0,0,0-.81-.18,2.751,2.751,0,0,0-2.265,1.7h-.03l-.1-1.485h-.72Zm5.4,0h.87V-7.995h-.87Zm.45-9.87a.708.708,0,0,0,.735-.69.7.7,0,0,0-.735-.72.7.7,0,0,0-.735.72A.7.7,0,0,0,75.585-9.87ZM80.295.2a4.608,4.608,0,0,0,2.79-1.215h.03L83.205,0h.735V-5.07c0-1.77-.675-3.135-2.58-3.135a5.545,5.545,0,0,0-3.03,1.05l.39.63a4.323,4.323,0,0,1,2.52-.915c1.515,0,1.86,1.23,1.83,2.415-3.525.405-5.1,1.245-5.1,3.015A2.11,2.11,0,0,0,80.295.2Zm.18-.735A1.442,1.442,0,0,1,78.84-2.055c0-1.23,1.08-1.965,4.23-2.325v2.6A3.94,3.94,0,0,1,80.475-.54ZM87.5.2a1.763,1.763,0,0,0,.585-.09l-.135-.69a1.342,1.342,0,0,1-.285.03c-.21,0-.36-.165-.36-.54v-10.83h-.87v10.74C86.43-.255,86.775.2,87.5.2ZM93.6,0h.87V-5.37c.585-1.485,1.44-2.01,2.145-2.01a1.691,1.691,0,0,1,.735.135l.18-.78a1.611,1.611,0,0,0-.81-.18,2.751,2.751,0,0,0-2.265,1.7h-.03l-.1-1.485H93.6Zm8.04.2a4.473,4.473,0,0,0,2.55-.78l-.33-.645a3.58,3.58,0,0,1-2.13.69c-1.725,0-2.88-1.365-2.925-3.315h5.67a4.148,4.148,0,0,0,.045-.63c0-2.34-1.155-3.72-3.09-3.72-1.815,0-3.51,1.62-3.51,4.215C97.92-1.365,99.585.2,101.64.2Zm-2.835-4.74c.165-1.83,1.335-2.91,2.64-2.91,1.4,0,2.28.975,2.28,2.91ZM109.65.2A3.869,3.869,0,0,0,112.2-.84l-.42-.6a3.193,3.193,0,0,1-2.085.885c-1.68,0-2.79-1.395-2.79-3.435s1.215-3.45,2.805-3.45a2.625,2.625,0,0,1,1.83.81l.5-.6a3.381,3.381,0,0,0-2.34-.975c-1.98,0-3.705,1.545-3.705,4.215S107.565.2,109.65.2Zm4.635,3.4c1.47,0,2.28-1.29,2.76-2.67l3.12-8.925h-.885l-1.635,4.89c-.225.69-.48,1.53-.72,2.25h-.075c-.285-.72-.585-1.56-.84-2.25l-1.86-4.89h-.945L116.475.12l-.21.675c-.39,1.155-1.035,2.025-1.995,2.025a2.058,2.058,0,0,1-.645-.12l-.195.735A2.119,2.119,0,0,0,114.285,3.6ZM124.605.2a3.869,3.869,0,0,0,2.55-1.035l-.42-.6a3.193,3.193,0,0,1-2.085.885c-1.68,0-2.79-1.395-2.79-3.435s1.215-3.45,2.805-3.45a2.625,2.625,0,0,1,1.83.81l.5-.6a3.381,3.381,0,0,0-2.34-.975c-1.98,0-3.705,1.545-3.705,4.215S122.52.2,124.605.2Zm5.34,0a1.763,1.763,0,0,0,.585-.09l-.135-.69a1.342,1.342,0,0,1-.285.03c-.21,0-.36-.165-.36-.54v-10.83h-.87v10.74C128.88-.255,129.225.2,129.945.2ZM132.48,0h.87V-7.995h-.87Zm.45-9.87a.708.708,0,0,0,.735-.69.7.7,0,0,0-.735-.72.7.7,0,0,0-.735.72A.7.7,0,0,0,132.93-9.87ZM135.96,0h.87V-5.985c.93-.96,1.59-1.44,2.52-1.44,1.23,0,1.755.765,1.755,2.43V0h.87V-5.115c0-2.055-.765-3.09-2.43-3.09a3.933,3.933,0,0,0-2.73,1.425h-.03l-.1-1.215h-.72Zm11.175,3.81c2.34,0,3.84-1.32,3.84-2.715,0-1.275-.855-1.845-2.67-1.845h-1.68c-1.155,0-1.5-.435-1.5-1a1.375,1.375,0,0,1,.63-1.11,2.7,2.7,0,0,0,1.29.33,2.752,2.752,0,0,0,2.82-2.82,2.55,2.55,0,0,0-.825-1.92h1.8v-.72h-2.73a2.843,2.843,0,0,0-1.065-.21A2.793,2.793,0,0,0,144.18-5.37a2.9,2.9,0,0,0,1.02,2.175v.06a1.988,1.988,0,0,0-.885,1.485,1.434,1.434,0,0,0,.72,1.29v.075a2.43,2.43,0,0,0-1.2,1.905C143.835,2.97,145.14,3.81,147.135,3.81Zm-.09-7.005a2.05,2.05,0,0,1-2-2.175,1.984,1.984,0,0,1,2-2.13,1.981,1.981,0,0,1,1.98,2.13A2.047,2.047,0,0,1,147.045-3.195Zm.195,6.345c-1.635,0-2.58-.66-2.58-1.635a2.006,2.006,0,0,1,.99-1.605,5.622,5.622,0,0,0,1.005.135h1.635c1.185,0,1.815.315,1.815,1.17C150.1,2.175,148.98,3.15,147.24,3.15Z" transform="translate(688.776 428.931)"/>
  </g>
</svg>
