<svg xmlns="http://www.w3.org/2000/svg" width="796.5" height="314.402" viewBox="0 0 796.5 314.402">
  <defs>
    <style>
      .cls-1 {
        fill: #171a1b;
      }

      .cls-2 {
        fill: #052342;
      }

      .cls-3, .cls-4, .cls-5, .cls-6 {
        fill: none;
        stroke: #2f2c2c;
        stroke-linecap: round;
        stroke-linejoin: round;
      }

      .cls-3 {
        stroke-dasharray: 0 3.027;
      }

      .cls-4 {
        stroke-dasharray: 0 3.018;
      }

      .cls-6 {
        stroke-dasharray: 0 2.99;
      }

      .cls-7 {
        fill: #325a97;
      }

      .cls-8 {
        fill: #85acdb;
      }

      .cls-9 {
        fill: #c1e0ee;
      }

      .cls-10 {
        fill: #f1f3f3;
      }

      .cls-11 {
        fill: #fff;
      }

      .cls-12 {
        fill: #525251;
      }
    </style>
  </defs>
  <g id="구성_요소_119_1" data-name="구성 요소 119 – 1" transform="translate(0.5)">
    <g id="그룹_925" data-name="그룹 925" transform="translate(-48.867 -2467.45)">
      <path id="패스_2191" data-name="패스 2191" class="cls-1" d="M52.82,2641.016H49.49v-1.17h8.054v1.17H54.215v9.824h-1.4Z"/>
      <path id="패스_2192" data-name="패스 2192" class="cls-1" d="M57.95,2642.7h1.125l.12,1.486h.045a2.813,2.813,0,0,1,2.31-1.7,1.73,1.73,0,0,1,.869.18l-.254,1.2a1.944,1.944,0,0,0-.8-.135c-.675,0-1.516.48-2.055,1.875v5.235H57.95Z"/>
      <path id="패스_2193" data-name="패스 2193" class="cls-1" d="M62.96,2646.775c0-2.639,1.785-4.29,3.675-4.29,2.07,0,3.24,1.5,3.24,3.826a5.163,5.163,0,0,1-.061.779H64.325a2.7,2.7,0,0,0,2.7,2.85,3.509,3.509,0,0,0,2.04-.645l.5.9a4.852,4.852,0,0,1-2.7.84C64.7,2651.035,62.96,2649.46,62.96,2646.775Zm5.715-.66c0-1.649-.75-2.535-2.026-2.535a2.506,2.506,0,0,0-2.339,2.535Z"/>
      <path id="패스_2194" data-name="패스 2194" class="cls-1" d="M71.12,2648.726c0-1.771,1.545-2.656,5.009-3.045,0-1.051-.345-2.056-1.68-2.056a4.5,4.5,0,0,0-2.445.87l-.54-.944a6.118,6.118,0,0,1,3.21-1.066c1.98,0,2.82,1.335,2.82,3.345v5.01H76.369l-.12-.975H76.2a4.363,4.363,0,0,1-2.7,1.17A2.208,2.208,0,0,1,71.12,2648.726Zm5.009.134v-2.28c-2.745.33-3.674,1-3.674,2.055,0,.93.629,1.3,1.44,1.3A3.329,3.329,0,0,0,76.129,2648.86Z"/>
      <path id="패스_2195" data-name="패스 2195" class="cls-1" d="M79.009,2649.91l.676-.9a3.691,3.691,0,0,0,2.414.96c1.08,0,1.605-.57,1.605-1.275,0-.825-.96-1.2-1.86-1.545-1.14-.42-2.429-.975-2.429-2.355,0-1.289,1.034-2.31,2.8-2.31a4.221,4.221,0,0,1,2.535.915l-.66.885a3.065,3.065,0,0,0-1.875-.72c-1.02,0-1.485.54-1.485,1.17,0,.781.885,1.066,1.8,1.411,1.185.45,2.49.929,2.49,2.474,0,1.32-1.05,2.415-2.97,2.415A4.915,4.915,0,0,1,79.009,2649.91Z"/>
      <path id="패스_2196" data-name="패스 2196" class="cls-1" d="M86.644,2647.855v-5.16h1.365v4.995c0,1.515.45,2.161,1.53,2.161.84,0,1.425-.406,2.205-1.381V2642.7h1.365v8.145h-1.14l-.105-1.275h-.045a3.494,3.494,0,0,1-2.7,1.47C87.409,2651.035,86.644,2649.925,86.644,2647.855Z"/>
      <path id="패스_2197" data-name="패스 2197" class="cls-1" d="M95.554,2642.7h1.125l.12,1.486h.045a2.813,2.813,0,0,1,2.31-1.7,1.736,1.736,0,0,1,.87.18l-.255,1.2a1.944,1.944,0,0,0-.795-.135c-.675,0-1.515.48-2.055,1.875v5.235H95.554Z"/>
      <path id="패스_2198" data-name="패스 2198" class="cls-1" d="M101.134,2654.185l.27-1.095a1.951,1.951,0,0,0,.615.135c.93,0,1.515-.75,1.845-1.755l.18-.615-3.27-8.16H102.2l1.665,4.531c.24.7.525,1.545.78,2.279h.075c.225-.734.465-1.56.69-2.279l1.455-4.531H108.2l-3.075,8.82c-.57,1.605-1.41,2.835-3.03,2.835A2.508,2.508,0,0,1,101.134,2654.185Z"/>
      <path id="패스_2199" data-name="패스 2199" class="cls-1" d="M112.309,2649.4l.825-.945a4.32,4.32,0,0,0,3.045,1.365c1.44,0,2.31-.719,2.31-1.8,0-1.125-.795-1.486-1.83-1.951l-1.59-.69a3.106,3.106,0,0,1-2.235-2.819c0-1.7,1.47-2.925,3.465-2.925a4.5,4.5,0,0,1,3.24,1.365l-.735.885a3.562,3.562,0,0,0-2.5-1.035c-1.245,0-2.055.629-2.055,1.62,0,1.064.96,1.469,1.815,1.83l1.575.675c1.275.554,2.264,1.3,2.264,2.939,0,1.74-1.44,3.12-3.734,3.12A5.254,5.254,0,0,1,112.309,2649.4Z"/>
      <path id="패스_2200" data-name="패스 2200" class="cls-1" d="M121.774,2648.32v-4.514h-1.215v-1.035l1.275-.076.165-2.28h1.14v2.28h2.205v1.111h-2.205v4.545c0,1,.315,1.574,1.259,1.574a2.886,2.886,0,0,0,.931-.21l.27,1.02a5.131,5.131,0,0,1-1.5.3C122.359,2651.035,121.774,2649.955,121.774,2648.32Z"/>
      <path id="패스_2201" data-name="패스 2201" class="cls-1" d="M126.229,2646.775c0-2.714,1.784-4.29,3.779-4.29s3.78,1.576,3.78,4.29-1.785,4.26-3.78,4.26S126.229,2649.476,126.229,2646.775Zm6.149,0c0-1.875-.96-3.15-2.37-3.15s-2.355,1.275-2.355,3.15.945,3.121,2.355,3.121S132.378,2648.65,132.378,2646.775Z"/>
      <path id="패스_2202" data-name="패스 2202" class="cls-1" d="M135.229,2646.775a3.965,3.965,0,0,1,3.929-4.29,3.487,3.487,0,0,1,2.385.96l-.705.915a2.368,2.368,0,0,0-1.635-.735c-1.47,0-2.55,1.275-2.55,3.15s1.02,3.121,2.52,3.121a2.872,2.872,0,0,0,1.92-.811l.585.915a3.884,3.884,0,0,1-2.625,1.035C136.893,2651.035,135.229,2649.476,135.229,2646.775Z"/>
      <path id="패스_2203" data-name="패스 2203" class="cls-1" d="M143.253,2638.9h1.35v8.1h.03l3.5-4.3h1.515l-2.73,3.27,3.09,4.875h-1.485l-2.385-3.93-1.53,1.785v2.145h-1.35Z"/>
    </g>
    <g id="그룹_926" data-name="그룹 926" transform="translate(-48.867 -2467.45)">
      <path id="패스_2204" data-name="패스 2204" class="cls-2" d="M175.7,2651.84H160.681V2649.6l6.016-6.046a44.382,44.382,0,0,0,3.625-3.969,10.14,10.14,0,0,0,1.312-2.313,6.613,6.613,0,0,0,.438-2.422,3.839,3.839,0,0,0-1.11-2.9,4.249,4.249,0,0,0-3.078-1.07,7.749,7.749,0,0,0-2.7.468,10.766,10.766,0,0,0-2.836,1.7l-1.375-1.766a10.531,10.531,0,0,1,6.875-2.625,7.269,7.269,0,0,1,5.047,1.648,5.673,5.673,0,0,1,1.828,4.43,8.548,8.548,0,0,1-1.219,4.3,27.235,27.235,0,0,1-4.562,5.375l-5,4.891v.125H175.7Z"/>
      <path id="패스_2205" data-name="패스 2205" class="cls-2" d="M187.9,2635.809a9.864,9.864,0,0,1-1.2,5.382,3.929,3.929,0,0,1-3.507,1.821,3.833,3.833,0,0,1-3.4-1.86,9.8,9.8,0,0,1-1.211-5.343,9.924,9.924,0,0,1,1.164-5.344,3.844,3.844,0,0,1,3.446-1.8,3.923,3.923,0,0,1,3.484,1.859A9.616,9.616,0,0,1,187.9,2635.809Zm-7.156,0a10.46,10.46,0,0,0,.578,3.984,1.944,1.944,0,0,0,1.875,1.328q2.562,0,2.562-5.312,0-5.281-2.562-5.282a1.945,1.945,0,0,0-1.875,1.313A10.339,10.339,0,0,0,180.749,2635.809Zm16.89-6.813-12.672,22.844h-2.3L195.342,2629Zm4.031,15.969a9.834,9.834,0,0,1-1.195,5.367,3.93,3.93,0,0,1-3.508,1.82,3.825,3.825,0,0,1-3.414-1.859,12.659,12.659,0,0,1-.031-10.672,3.842,3.842,0,0,1,3.445-1.8,3.953,3.953,0,0,1,3.461,1.836A9.456,9.456,0,0,1,201.67,2644.965Zm-7.171,0a10.455,10.455,0,0,0,.578,3.992,1.953,1.953,0,0,0,1.89,1.32,2.042,2.042,0,0,0,1.938-1.3,9.743,9.743,0,0,0,.625-4.008A9.533,9.533,0,0,0,198.9,2641a2.044,2.044,0,0,0-1.938-1.289,1.954,1.954,0,0,0-1.89,1.289A10.205,10.205,0,0,0,194.5,2644.965Z"/>
    </g>
    <line id="선_1098" data-name="선 1098" class="cls-3" x1="114.234" y2="76.916" transform="translate(167.256 67.657)"/>
    <line id="선_1099" data-name="선 1099" class="cls-4" x1="161.473" transform="translate(1.509 145.417)"/>
    <path id="패스_2206" data-name="패스 2206" class="cls-5" d="M48.867,2612.867h0m166,0h0m118-79.449h0" transform="translate(-48.867 -2467.45)"/>
    <line id="선_1100" data-name="선 1100" class="cls-6" x2="336.365" transform="translate(3.49 28.176)"/>
    <path id="패스_2207" data-name="패스 2207" class="cls-5" d="M390.217,2495.627h0m-340.85,0h0" transform="translate(-48.867 -2467.45)"/>
    <line id="선_1101" data-name="선 1101" class="cls-6" x2="336.365" transform="translate(457.641 17.315)"/>
    <path id="패스_2208" data-name="패스 2208" class="cls-5" d="M844.367,2484.766h0m-340.849,0h0" transform="translate(-48.867 -2467.45)"/>
    <g id="그룹_927" data-name="그룹 927" transform="translate(-48.867 -2467.45)">
      <path id="패스_2209" data-name="패스 2209" class="cls-1" d="M673.964,2514.01h1.44l4.005,6.929,1.17,2.265h.075c-.075-1.109-.18-2.34-.18-3.479v-5.715h1.32V2525h-1.425l-4.005-6.944-1.185-2.265h-.06c.06,1.109.165,2.279.165,3.434V2525h-1.32Z"/>
      <path id="패스_2210" data-name="패스 2210" class="cls-1" d="M683.879,2520.939c0-2.639,1.785-4.29,3.675-4.29,2.07,0,3.24,1.5,3.24,3.826a5.316,5.316,0,0,1-.06.779h-5.49a2.7,2.7,0,0,0,2.7,2.85,3.511,3.511,0,0,0,2.04-.645l.495.9a4.847,4.847,0,0,1-2.7.84C685.619,2525.2,683.879,2523.624,683.879,2520.939Zm5.715-.66c0-1.649-.75-2.535-2.025-2.535a2.507,2.507,0,0,0-2.34,2.535Z"/>
      <path id="패스_2211" data-name="패스 2211" class="cls-1" d="M692.939,2522.484v-4.514h-1.215v-1.035l1.275-.076.165-2.28h1.14v2.28h2.2v1.111h-2.2v4.545c0,1.005.315,1.574,1.259,1.574a2.887,2.887,0,0,0,.931-.21l.27,1.02a5.123,5.123,0,0,1-1.5.3C693.524,2525.2,692.939,2524.119,692.939,2522.484Z"/>
      <path id="패스_2212" data-name="패스 2212" class="cls-1" d="M698.234,2516.859h1.125l.12,1.186h.045a3.58,3.58,0,0,1,2.535-1.4,2.148,2.148,0,0,1,2.25,1.56,3.85,3.85,0,0,1,2.685-1.56c1.679,0,2.474,1.111,2.474,3.2V2525H708.1v-4.98c0-1.53-.48-2.174-1.516-2.174a3.006,3.006,0,0,0-2.054,1.245V2525h-1.365v-4.98c0-1.53-.48-2.174-1.515-2.174a3.008,3.008,0,0,0-2.055,1.245V2525h-1.365Z"/>
      <path id="패스_2213" data-name="패스 2213" class="cls-1" d="M711.329,2522.89c0-1.771,1.545-2.656,5.01-3.045,0-1.051-.345-2.056-1.68-2.056a4.5,4.5,0,0,0-2.445.87l-.54-.944a6.116,6.116,0,0,1,3.21-1.066c1.98,0,2.82,1.335,2.82,3.345V2525h-1.125l-.12-.975h-.045a4.364,4.364,0,0,1-2.7,1.17A2.208,2.208,0,0,1,711.329,2522.89Zm5.01.134v-2.28c-2.745.33-3.675,1.005-3.675,2.055,0,.93.63,1.3,1.44,1.3A3.329,3.329,0,0,0,716.339,2523.024Z"/>
      <path id="패스_2214" data-name="패스 2214" class="cls-1" d="M720.059,2516.859h1.125l.12,1.486h.045a2.812,2.812,0,0,1,2.31-1.7,1.732,1.732,0,0,1,.869.18l-.255,1.2a1.939,1.939,0,0,0-.794-.134c-.675,0-1.516.479-2.055,1.875V2525h-1.365Z"/>
      <path id="패스_2215" data-name="패스 2215" class="cls-1" d="M727.139,2524.164h-.046l-.119.84h-1.1v-11.94h1.366v3.271l-.046,1.47a4.1,4.1,0,0,1,2.551-1.156c2.114,0,3.254,1.651,3.254,4.14,0,2.8-1.665,4.41-3.54,4.41A3.6,3.6,0,0,1,727.139,2524.164Zm4.439-3.345c0-1.8-.6-3.014-2.145-3.014a3.355,3.355,0,0,0-2.189,1.125v4.274a3.125,3.125,0,0,0,1.994.856C730.588,2524.06,731.578,2522.845,731.578,2520.819Z"/>
      <path id="패스_2216" data-name="패스 2216" class="cls-1" d="M734.968,2523.384v-10.32h1.365v10.411c0,.42.18.585.39.585a1.161,1.161,0,0,0,.285-.031l.2,1.05a2.158,2.158,0,0,1-.795.12C735.388,2525.2,734.968,2524.539,734.968,2523.384Z"/>
      <path id="패스_2217" data-name="패스 2217" class="cls-1" d="M738.343,2520.939c0-2.639,1.785-4.29,3.675-4.29,2.07,0,3.24,1.5,3.24,3.826a5.307,5.307,0,0,1-.06.779h-5.49a2.7,2.7,0,0,0,2.7,2.85,3.511,3.511,0,0,0,2.04-.645l.495.9a4.847,4.847,0,0,1-2.7.84C740.083,2525.2,738.343,2523.624,738.343,2520.939Zm5.715-.66c0-1.649-.75-2.535-2.025-2.535a2.507,2.507,0,0,0-2.34,2.535Z"/>
      <path id="패스_2218" data-name="패스 2218" class="cls-1" d="M750.238,2514.295a.947.947,0,0,1,1.89,0,.947.947,0,0,1-1.89,0Zm.255,2.564h1.365V2525h-1.365Z"/>
      <path id="패스_2219" data-name="패스 2219" class="cls-1" d="M754.3,2516.859h1.125l.12,1.17h.045a3.909,3.909,0,0,1,2.73-1.38c1.71,0,2.489,1.111,2.489,3.2V2525h-1.364v-4.98c0-1.53-.466-2.174-1.545-2.174a3.1,3.1,0,0,0-2.235,1.245V2525H754.3Z"/>
      <path id="패스_2220" data-name="패스 2220" class="cls-1" d="M762.688,2520.939a3.966,3.966,0,0,1,3.93-4.29,3.485,3.485,0,0,1,2.384.96l-.705.915a2.367,2.367,0,0,0-1.634-.735c-1.47,0-2.55,1.275-2.55,3.15s1.02,3.121,2.52,3.121a2.874,2.874,0,0,0,1.92-.811l.585.915a3.886,3.886,0,0,1-2.625,1.035C764.353,2525.2,762.688,2523.64,762.688,2520.939Z"/>
      <path id="패스_2221" data-name="패스 2221" class="cls-1" d="M770.667,2524.164a.993.993,0,1,1,1.98,0,.991.991,0,1,1-1.98,0Z"/>
    </g>
    <g id="그룹_928" data-name="그룹 928" transform="translate(-48.867 -2467.45)">
      <path id="패스_2222" data-name="패스 2222" class="cls-2" d="M799.31,2526H784.294v-2.234l6.016-6.047a44.221,44.221,0,0,0,3.625-3.969,10.145,10.145,0,0,0,1.313-2.313,6.63,6.63,0,0,0,.437-2.421,3.843,3.843,0,0,0-1.109-2.9,4.252,4.252,0,0,0-3.078-1.07,7.729,7.729,0,0,0-2.7.469,10.731,10.731,0,0,0-2.836,1.7l-1.375-1.766a10.531,10.531,0,0,1,6.875-2.625,7.269,7.269,0,0,1,5.047,1.648,5.673,5.673,0,0,1,1.828,4.43,8.557,8.557,0,0,1-1.218,4.3,27.281,27.281,0,0,1-4.563,5.375l-5,4.891v.125h11.75Z"/>
      <path id="패스_2223" data-name="패스 2223" class="cls-2" d="M809.284,2512.051a8.4,8.4,0,0,1,5.679,1.789,6.137,6.137,0,0,1,2.071,4.9,7.074,7.074,0,0,1-2.258,5.563,9.017,9.017,0,0,1-6.227,2.015,11.455,11.455,0,0,1-5.89-1.234v-2.5a8.955,8.955,0,0,0,2.718,1.1,13.452,13.452,0,0,0,3.2.4,6.394,6.394,0,0,0,4.273-1.3,4.649,4.649,0,0,0,1.523-3.75q0-4.781-5.859-4.781a23.343,23.343,0,0,0-3.969.453l-1.343-.859.859-10.688h11.359v2.391h-9.14l-.578,6.859A18.237,18.237,0,0,1,809.284,2512.051Z"/>
      <path id="패스_2224" data-name="패스 2224" class="cls-2" d="M829.367,2509.973a9.866,9.866,0,0,1-1.2,5.382,3.93,3.93,0,0,1-3.508,1.821,3.833,3.833,0,0,1-3.4-1.86,9.793,9.793,0,0,1-1.211-5.343,9.915,9.915,0,0,1,1.164-5.344,3.842,3.842,0,0,1,3.445-1.8,3.923,3.923,0,0,1,3.484,1.859A9.616,9.616,0,0,1,829.367,2509.973Zm-7.156,0a10.461,10.461,0,0,0,.578,3.984,1.944,1.944,0,0,0,1.875,1.328q2.562,0,2.563-5.312,0-5.281-2.563-5.282a1.945,1.945,0,0,0-1.875,1.313A10.339,10.339,0,0,0,822.211,2509.973Zm16.891-6.813L826.43,2526h-2.3L836.8,2503.16Zm4.031,15.969a9.835,9.835,0,0,1-1.2,5.367,3.928,3.928,0,0,1-3.507,1.82,3.822,3.822,0,0,1-3.414-1.859,12.655,12.655,0,0,1-.032-10.672,3.843,3.843,0,0,1,3.446-1.8,3.954,3.954,0,0,1,3.461,1.836A9.455,9.455,0,0,1,843.133,2519.129Zm-7.172,0a10.456,10.456,0,0,0,.578,3.992,1.954,1.954,0,0,0,1.891,1.32,2.041,2.041,0,0,0,1.937-1.3,9.727,9.727,0,0,0,.625-4.008,9.515,9.515,0,0,0-.625-3.961,2.043,2.043,0,0,0-1.937-1.289,1.955,1.955,0,0,0-1.891,1.289A10.2,10.2,0,0,0,835.961,2519.129Z"/>
    </g>
    <g id="그룹_929" data-name="그룹 929" transform="translate(-48.867 -2467.45)">
      <path id="패스_2225" data-name="패스 2225" class="cls-1" d="M49.9,2530.33c0-3.524,1.935-5.67,4.695-5.67s4.695,2.146,4.695,5.67-1.935,5.73-4.695,5.73S49.9,2533.855,49.9,2530.33Zm7.964,0c0-2.76-1.3-4.455-3.269-4.455s-3.27,1.7-3.27,4.455c0,2.745,1.29,4.515,3.27,4.515S57.859,2533.075,57.859,2530.33Z"/>
      <path id="패스_2226" data-name="패스 2226" class="cls-1" d="M61.82,2533.345v-4.515H60.6v-1.035l1.276-.074.164-2.281h1.141v2.281h2.2v1.109h-2.2v4.545c0,1,.315,1.575,1.259,1.575a2.9,2.9,0,0,0,.931-.21l.27,1.02a5.131,5.131,0,0,1-1.5.3C62.4,2536.06,61.82,2534.98,61.82,2533.345Z"/>
      <path id="패스_2227" data-name="패스 2227" class="cls-1" d="M67.1,2523.926h1.365v3.269l-.046,1.68a3.825,3.825,0,0,1,2.7-1.364c1.71,0,2.489,1.109,2.489,3.194v5.16H72.245v-4.98c0-1.53-.466-2.175-1.545-2.175a3.1,3.1,0,0,0-2.235,1.245v5.91H67.1Z"/>
      <path id="패스_2228" data-name="패스 2228" class="cls-1" d="M75.455,2531.8c0-2.64,1.784-4.289,3.674-4.289,2.07,0,3.24,1.5,3.24,3.824a5.33,5.33,0,0,1-.06.78h-5.49a2.7,2.7,0,0,0,2.7,2.85,3.511,3.511,0,0,0,2.04-.645l.5.9a4.847,4.847,0,0,1-2.7.84C77.194,2536.06,75.455,2534.485,75.455,2531.8Zm5.714-.659c0-1.651-.75-2.536-2.025-2.536a2.506,2.506,0,0,0-2.34,2.536Z"/>
      <path id="패스_2229" data-name="패스 2229" class="cls-1" d="M84.259,2527.721h1.125l.12,1.484h.045a2.811,2.811,0,0,1,2.31-1.694,1.747,1.747,0,0,1,.87.179l-.255,1.2a1.908,1.908,0,0,0-.795-.136c-.675,0-1.515.48-2.054,1.875v5.235H84.259Z"/>
      <path id="패스_2230" data-name="패스 2230" class="cls-1" d="M89.239,2534.935l.676-.9a3.69,3.69,0,0,0,2.414.96c1.08,0,1.6-.57,1.6-1.275,0-.824-.96-1.2-1.86-1.545-1.139-.42-2.429-.975-2.429-2.355,0-1.29,1.034-2.309,2.8-2.309a4.22,4.22,0,0,1,2.535.915l-.66.885a3.066,3.066,0,0,0-1.875-.721c-1.02,0-1.485.54-1.485,1.17,0,.78.885,1.065,1.8,1.41,1.185.45,2.49.931,2.49,2.476,0,1.319-1.05,2.414-2.97,2.414A4.915,4.915,0,0,1,89.239,2534.935Z"/>
    </g>
    <g id="그룹_930" data-name="그룹 930" transform="translate(-48.867 -2467.45)">
      <path id="패스_2231" data-name="패스 2231" class="cls-2" d="M105.805,2527.1q0-6.735,2.617-10.071t7.742-3.336a10.31,10.31,0,0,1,2.781.3v2.235a8.876,8.876,0,0,0-2.75-.391,6.937,6.937,0,0,0-5.609,2.289q-1.938,2.289-2.125,7.2h.187a5.98,5.98,0,0,1,5.438-2.687,6.386,6.386,0,0,1,4.851,1.859,7.007,7.007,0,0,1,1.774,5.047,7.787,7.787,0,0,1-1.945,5.6,6.926,6.926,0,0,1-5.258,2.039,6.756,6.756,0,0,1-5.625-2.664Q105.8,2531.849,105.805,2527.1Zm7.672,7.875a4.338,4.338,0,0,0,3.445-1.4,5.946,5.946,0,0,0,1.226-4.039,5.206,5.206,0,0,0-1.14-3.562,4.3,4.3,0,0,0-3.406-1.3,5.744,5.744,0,0,0-2.579.578,4.782,4.782,0,0,0-1.867,1.594,3.674,3.674,0,0,0-.695,2.109,7.227,7.227,0,0,0,.625,3,5.288,5.288,0,0,0,1.773,2.2A4.419,4.419,0,0,0,113.477,2534.975Z"/>
      <path id="패스_2232" data-name="패스 2232" class="cls-2" d="M132.763,2520.834a9.874,9.874,0,0,1-1.2,5.383,3.928,3.928,0,0,1-3.507,1.82,3.836,3.836,0,0,1-3.4-1.859,9.808,9.808,0,0,1-1.211-5.344,9.926,9.926,0,0,1,1.164-5.344,3.841,3.841,0,0,1,3.446-1.8,3.922,3.922,0,0,1,3.484,1.86A9.618,9.618,0,0,1,132.763,2520.834Zm-7.157,0a10.461,10.461,0,0,0,.579,3.984,1.944,1.944,0,0,0,1.875,1.328q2.562,0,2.562-5.312,0-5.281-2.562-5.281a1.944,1.944,0,0,0-1.875,1.312A10.336,10.336,0,0,0,125.606,2520.834Zm16.891-6.813-12.672,22.844h-2.3l12.672-22.844Zm4.031,15.969a9.836,9.836,0,0,1-1.2,5.367,3.93,3.93,0,0,1-3.508,1.821,3.825,3.825,0,0,1-3.414-1.86,12.66,12.66,0,0,1-.031-10.672,3.839,3.839,0,0,1,3.445-1.8,3.95,3.95,0,0,1,3.461,1.836A9.448,9.448,0,0,1,146.528,2529.99Zm-7.172,0a10.447,10.447,0,0,0,.579,3.992,1.955,1.955,0,0,0,1.89,1.321,2.043,2.043,0,0,0,1.938-1.3,9.751,9.751,0,0,0,.625-4.008,9.534,9.534,0,0,0-.625-3.961,2.044,2.044,0,0,0-1.938-1.289,1.954,1.954,0,0,0-1.89,1.289A10.2,10.2,0,0,0,139.356,2529.99Z"/>
    </g>
    <line id="선_1102" data-name="선 1102" class="cls-6" x2="336.365" transform="translate(457.641 110.249)"/>
    <path id="패스_2233" data-name="패스 2233" class="cls-5" d="M844.367,2577.7h0m-340.849,0h0" transform="translate(-48.867 -2467.45)"/>
    <g id="그룹_931" data-name="그룹 931" transform="translate(-48.867 -2467.45)">
      <path id="패스_2234" data-name="패스 2234" class="cls-1" d="M676.49,2606.908h1.44l4.005,6.93,1.17,2.266h.075c-.075-1.111-.18-2.34-.18-3.481v-5.715h1.32v11H682.9l-4.005-6.945-1.185-2.265h-.06c.06,1.111.165,2.281.165,3.435v5.775h-1.32Z"/>
      <path id="패스_2235" data-name="패스 2235" class="cls-1" d="M686.39,2615.788c0-1.769,1.545-2.655,5.01-3.045,0-1.05-.345-2.055-1.68-2.055a4.48,4.48,0,0,0-2.445.871l-.54-.946a6.135,6.135,0,0,1,3.21-1.064c1.98,0,2.82,1.335,2.82,3.345v5.009H691.64l-.12-.975h-.045a4.363,4.363,0,0,1-2.7,1.17A2.208,2.208,0,0,1,686.39,2615.788Zm5.01.135v-2.279c-2.745.33-3.675,1-3.675,2.054,0,.93.63,1.3,1.44,1.3A3.329,3.329,0,0,0,691.4,2615.923Z"/>
      <path id="패스_2236" data-name="패스 2236" class="cls-1" d="M695.3,2615.383v-4.515h-1.215v-1.035l1.275-.074.165-2.28h1.14v2.28h2.205v1.109h-2.205v4.545c0,1,.315,1.575,1.26,1.575a2.886,2.886,0,0,0,.93-.21l.27,1.02a5.131,5.131,0,0,1-1.5.3C695.885,2618.1,695.3,2617.019,695.3,2615.383Z"/>
      <path id="패스_2237" data-name="패스 2237" class="cls-1" d="M700.34,2607.193a.947.947,0,0,1,1.889,0,.947.947,0,0,1-1.889,0Zm.255,2.566h1.365v8.144h-1.365Z"/>
      <path id="패스_2238" data-name="패스 2238" class="cls-1" d="M703.865,2613.838c0-2.715,1.784-4.289,3.78-4.289s3.779,1.574,3.779,4.289-1.785,4.26-3.779,4.26S703.865,2616.538,703.865,2613.838Zm6.149,0c0-1.875-.96-3.15-2.369-3.15s-2.355,1.275-2.355,3.15.944,3.12,2.355,3.12S710.014,2615.713,710.014,2613.838Z"/>
      <path id="패스_2239" data-name="패스 2239" class="cls-1" d="M713.39,2609.759h1.125l.12,1.17h.045a3.9,3.9,0,0,1,2.73-1.38c1.71,0,2.489,1.109,2.489,3.194v5.16h-1.364v-4.98c0-1.529-.466-2.175-1.545-2.175a3.1,3.1,0,0,0-2.235,1.245v5.91H713.39Z"/>
      <path id="패스_2240" data-name="패스 2240" class="cls-1" d="M721.745,2615.788c0-1.769,1.545-2.655,5.009-3.045,0-1.05-.345-2.055-1.68-2.055a4.48,4.48,0,0,0-2.445.871l-.54-.946a6.135,6.135,0,0,1,3.21-1.064c1.98,0,2.82,1.335,2.82,3.345v5.009h-1.125l-.12-.975h-.045a4.363,4.363,0,0,1-2.7,1.17A2.208,2.208,0,0,1,721.745,2615.788Zm5.009.135v-2.279c-2.745.33-3.674,1-3.674,2.054,0,.93.629,1.3,1.44,1.3A3.329,3.329,0,0,0,726.754,2615.923Z"/>
      <path id="패스_2241" data-name="패스 2241" class="cls-1" d="M730.474,2616.283v-10.319h1.365v10.409c0,.42.18.585.39.585a1.2,1.2,0,0,0,.285-.03l.2,1.051a2.182,2.182,0,0,1-.795.119C730.894,2618.1,730.474,2617.438,730.474,2616.283Z"/>
      <path id="패스_2242" data-name="패스 2242" class="cls-1" d="M738.094,2606.908h3.135c2.475,0,4.125.825,4.125,3.226,0,2.324-1.65,3.4-4.05,3.4h-1.815v4.365h-1.4Zm3.03,5.505c1.935,0,2.85-.705,2.85-2.279,0-1.59-.975-2.1-2.91-2.1h-1.575v4.38Z"/>
      <path id="패스_2243" data-name="패스 2243" class="cls-1" d="M746.509,2613.838c0-2.64,1.785-4.289,3.675-4.289,2.07,0,3.24,1.5,3.24,3.824a5.334,5.334,0,0,1-.06.78h-5.49a2.7,2.7,0,0,0,2.7,2.85,3.511,3.511,0,0,0,2.04-.645l.495.9a4.849,4.849,0,0,1-2.7.84C748.249,2618.1,746.509,2616.523,746.509,2613.838Zm5.715-.659c0-1.651-.75-2.535-2.025-2.535a2.5,2.5,0,0,0-2.34,2.535Z"/>
      <path id="패스_2244" data-name="패스 2244" class="cls-1" d="M755.314,2609.759h1.125l.12,1.17h.045a3.9,3.9,0,0,1,2.73-1.38c1.71,0,2.49,1.109,2.49,3.194v5.16h-1.365v-4.98c0-1.529-.465-2.175-1.545-2.175a3.1,3.1,0,0,0-2.235,1.245v5.91h-1.365Z"/>
      <path id="패스_2245" data-name="패스 2245" class="cls-1" d="M763.369,2616.973l.675-.9a3.688,3.688,0,0,0,2.414.96c1.081,0,1.6-.57,1.6-1.275,0-.824-.959-1.2-1.859-1.545-1.141-.42-2.43-.975-2.43-2.355,0-1.29,1.035-2.309,2.8-2.309a4.222,4.222,0,0,1,2.535.915l-.66.885a3.067,3.067,0,0,0-1.875-.721c-1.02,0-1.485.54-1.485,1.17,0,.78.885,1.065,1.8,1.41,1.185.45,2.49.931,2.49,2.476,0,1.319-1.051,2.414-2.97,2.414A4.913,4.913,0,0,1,763.369,2616.973Z"/>
      <path id="패스_2246" data-name="패스 2246" class="cls-1" d="M770.824,2607.193a.947.947,0,0,1,1.889,0,.947.947,0,0,1-1.889,0Zm.255,2.566h1.365v8.144h-1.365Z"/>
      <path id="패스_2247" data-name="패스 2247" class="cls-1" d="M774.349,2613.838c0-2.715,1.784-4.289,3.779-4.289s3.78,1.574,3.78,4.289-1.785,4.26-3.78,4.26S774.349,2616.538,774.349,2613.838Zm6.149,0c0-1.875-.96-3.15-2.37-3.15s-2.355,1.275-2.355,3.15.945,3.12,2.355,3.12S780.5,2615.713,780.5,2613.838Z"/>
      <path id="패스_2248" data-name="패스 2248" class="cls-1" d="M783.873,2609.759H785l.12,1.17h.045a3.9,3.9,0,0,1,2.73-1.38c1.71,0,2.49,1.109,2.49,3.194v5.16h-1.365v-4.98c0-1.529-.465-2.175-1.545-2.175a3.1,3.1,0,0,0-2.235,1.245v5.91h-1.365Z"/>
    </g>
    <g id="그룹_932" data-name="그룹 932" transform="translate(-48.867 -2467.45)">
      <path id="패스_2249" data-name="패스 2249" class="cls-2" d="M809.674,2595.731a7.745,7.745,0,0,1,4.953,1.454,4.843,4.843,0,0,1,1.828,4.015,5,5,0,0,1-1.047,3.078,9.251,9.251,0,0,1-3.344,2.532,11.248,11.248,0,0,1,3.954,2.789,5.247,5.247,0,0,1,1.171,3.382,5.668,5.668,0,0,1-1.984,4.54,8.109,8.109,0,0,1-5.437,1.7,8.706,8.706,0,0,1-5.625-1.6,5.517,5.517,0,0,1-1.969-4.539q0-3.921,4.781-6.109a8.845,8.845,0,0,1-3.094-2.633,5.6,5.6,0,0,1-.937-3.164,4.821,4.821,0,0,1,1.836-3.961A7.614,7.614,0,0,1,809.674,2595.731Zm-4.938,17.407a3.538,3.538,0,0,0,1.3,2.922,5.714,5.714,0,0,0,3.664,1.046,5.46,5.46,0,0,0,3.625-1.093,3.72,3.72,0,0,0,1.3-3,3.656,3.656,0,0,0-1.219-2.7,12.446,12.446,0,0,0-4.25-2.289,9.255,9.255,0,0,0-3.375,2.211A4.287,4.287,0,0,0,804.736,2613.138Zm4.907-15.3a4.6,4.6,0,0,0-3.063.937,3.106,3.106,0,0,0-1.109,2.5,3.576,3.576,0,0,0,.922,2.469,9.622,9.622,0,0,0,3.406,2.063,8.535,8.535,0,0,0,3.164-2.016,3.734,3.734,0,0,0,.93-2.516,3.076,3.076,0,0,0-1.133-2.507A4.77,4.77,0,0,0,809.643,2597.841Z"/>
      <path id="패스_2250" data-name="패스 2250" class="cls-2" d="M829.335,2602.872a9.873,9.873,0,0,1-1.2,5.383,3.931,3.931,0,0,1-3.508,1.82,3.837,3.837,0,0,1-3.4-1.859,9.806,9.806,0,0,1-1.211-5.344,9.918,9.918,0,0,1,1.165-5.344,3.839,3.839,0,0,1,3.445-1.8,3.924,3.924,0,0,1,3.484,1.86A9.61,9.61,0,0,1,829.335,2602.872Zm-7.156,0a10.459,10.459,0,0,0,.578,3.984,1.945,1.945,0,0,0,1.875,1.329q2.562,0,2.562-5.313,0-5.28-2.562-5.281a1.944,1.944,0,0,0-1.875,1.312A10.342,10.342,0,0,0,822.179,2602.872Zm16.89-6.812L826.4,2618.9h-2.3l12.671-22.843Zm4.032,15.968a9.84,9.84,0,0,1-1.2,5.368,3.932,3.932,0,0,1-3.508,1.82,3.826,3.826,0,0,1-3.414-1.86,12.657,12.657,0,0,1-.031-10.671,3.838,3.838,0,0,1,3.445-1.8,3.95,3.95,0,0,1,3.461,1.836A9.439,9.439,0,0,1,843.1,2612.028Zm-7.172,0a10.455,10.455,0,0,0,.578,3.993,1.956,1.956,0,0,0,1.89,1.32,2.043,2.043,0,0,0,1.938-1.305,9.75,9.75,0,0,0,.625-4.008,9.537,9.537,0,0,0-.625-3.961,2.044,2.044,0,0,0-1.938-1.289,1.954,1.954,0,0,0-1.89,1.289A10.208,10.208,0,0,0,835.929,2612.028Z"/>
    </g>
    <line id="선_1103" data-name="선 1103" class="cls-6" x2="336.365" transform="translate(457.641 203.147)"/>
    <path id="패스_2251" data-name="패스 2251" class="cls-5" d="M844.367,2670.6h0m-340.849,0h0" transform="translate(-48.867 -2467.45)"/>
    <g id="그룹_933" data-name="그룹 933" transform="translate(-48.867 -2467.45)">
      <path id="패스_2252" data-name="패스 2252" class="cls-1" d="M703.192,2699.809h6.345v1.17h-4.95v3.719h4.2v1.17h-4.2v4.935h-1.395Z"/>
      <path id="패스_2253" data-name="패스 2253" class="cls-1" d="M710.467,2706.738c0-2.715,1.784-4.29,3.78-4.29s3.779,1.575,3.779,4.29c0,2.7-1.785,4.26-3.779,4.26S710.467,2709.438,710.467,2706.738Zm6.149,0c0-1.875-.96-3.15-2.369-3.15s-2.355,1.275-2.355,3.15.944,3.119,2.355,3.119S716.616,2708.613,716.616,2706.738Z"/>
      <path id="패스_2254" data-name="패스 2254" class="cls-1" d="M719.991,2702.658h1.125l.12,1.485h.045a2.812,2.812,0,0,1,2.31-1.7,1.736,1.736,0,0,1,.87.18l-.255,1.2a1.927,1.927,0,0,0-.795-.135c-.675,0-1.515.48-2.055,1.875v5.235h-1.365Z"/>
      <path id="패스_2255" data-name="패스 2255" class="cls-1" d="M725,2706.738c0-2.64,1.785-4.29,3.675-4.29,2.07,0,3.24,1.5,3.24,3.824a5.349,5.349,0,0,1-.06.781h-5.49a2.7,2.7,0,0,0,2.7,2.849,3.51,3.51,0,0,0,2.04-.644l.495.9a4.847,4.847,0,0,1-2.7.84C726.741,2711,725,2709.423,725,2706.738Zm5.715-.66c0-1.65-.75-2.535-2.025-2.535a2.506,2.506,0,0,0-2.34,2.535Z"/>
      <path id="패스_2256" data-name="패스 2256" class="cls-1" d="M733.521,2700.093a.947.947,0,0,1,1.89,0,.947.947,0,0,1-1.89,0Zm.255,2.565h1.365v8.145h-1.365Z"/>
      <path id="패스_2257" data-name="패스 2257" class="cls-1" d="M736.971,2712.362a2.305,2.305,0,0,1,1.215-1.844v-.06a1.473,1.473,0,0,1-.75-1.335,1.991,1.991,0,0,1,.915-1.516v-.059a2.86,2.86,0,0,1-1.065-2.19,2.9,2.9,0,0,1,3.06-2.91,3.361,3.361,0,0,1,1.14.21h2.835v1.05h-1.665a2.326,2.326,0,0,1,.66,1.68,2.793,2.793,0,0,1-2.97,2.835,2.834,2.834,0,0,1-1.215-.285,1.211,1.211,0,0,0-.525.975c0,.525.33.885,1.425.885h1.59c1.89,0,2.835.6,2.835,1.934,0,1.516-1.59,2.821-4.11,2.821C738.351,2714.553,736.971,2713.772,736.971,2712.362Zm6.165-.42c0-.75-.585-1-1.665-1h-1.41a4.576,4.576,0,0,1-1.05-.135,1.718,1.718,0,0,0-.84,1.38c0,.87.885,1.44,2.37,1.44C742.1,2713.623,743.136,2712.8,743.136,2711.942Zm-1.065-6.584a1.74,1.74,0,1,0-3.465,0,1.743,1.743,0,1,0,3.465,0Z"/>
      <path id="패스_2258" data-name="패스 2258" class="cls-1" d="M745.9,2702.658h1.125l.12,1.17h.045a3.9,3.9,0,0,1,2.73-1.38c1.709,0,2.489,1.11,2.489,3.2v5.16h-1.364v-4.98c0-1.53-.466-2.175-1.545-2.175a3.1,3.1,0,0,0-2.235,1.245v5.91H745.9Z"/>
      <path id="패스_2259" data-name="패스 2259" class="cls-1" d="M754.281,2706.738c0-2.64,1.784-4.29,3.675-4.29,2.069,0,3.239,1.5,3.239,3.824a5.207,5.207,0,0,1-.06.781h-5.489a2.7,2.7,0,0,0,2.7,2.849,3.508,3.508,0,0,0,2.04-.644l.495.9a4.844,4.844,0,0,1-2.7.84C756.021,2711,754.281,2709.423,754.281,2706.738Zm5.714-.66c0-1.65-.749-2.535-2.025-2.535a2.506,2.506,0,0,0-2.34,2.535Z"/>
      <path id="패스_2260" data-name="패스 2260" class="cls-1" d="M763.085,2702.658h1.125l.121,1.485h.044a2.813,2.813,0,0,1,2.311-1.7,1.735,1.735,0,0,1,.869.18l-.255,1.2a1.927,1.927,0,0,0-.795-.135c-.674,0-1.515.48-2.054,1.875v5.235h-1.366Z"/>
      <path id="패스_2261" data-name="패스 2261" class="cls-1" d="M768.065,2709.873l.675-.9a3.694,3.694,0,0,0,2.415.96c1.08,0,1.6-.57,1.6-1.275,0-.825-.96-1.2-1.86-1.545-1.14-.42-2.43-.975-2.43-2.355,0-1.29,1.035-2.31,2.805-2.31a4.22,4.22,0,0,1,2.535.915l-.66.885a3.064,3.064,0,0,0-1.875-.72c-1.02,0-1.485.54-1.485,1.17,0,.78.885,1.065,1.8,1.41,1.185.45,2.49.93,2.49,2.475,0,1.319-1.05,2.415-2.97,2.415A4.913,4.913,0,0,1,768.065,2709.873Z"/>
    </g>
    <g id="그룹_934" data-name="그룹 934" transform="translate(-48.867 -2467.45)">
      <path id="패스_2262" data-name="패스 2262" class="cls-2" d="M791.435,2697.85a8.4,8.4,0,0,1,5.68,1.789,6.137,6.137,0,0,1,2.07,4.9,7.075,7.075,0,0,1-2.258,5.563,9.021,9.021,0,0,1-6.226,2.015,11.457,11.457,0,0,1-5.891-1.234v-2.5a8.92,8.92,0,0,0,2.719,1.1,13.391,13.391,0,0,0,3.2.4,6.393,6.393,0,0,0,4.273-1.3,4.649,4.649,0,0,0,1.524-3.75q0-4.782-5.86-4.781a23.334,23.334,0,0,0-3.968.453l-1.344-.86.859-10.687h11.36v2.391h-9.141l-.578,6.859A18.252,18.252,0,0,1,791.435,2697.85Z"/>
      <path id="패스_2263" data-name="패스 2263" class="cls-2" d="M817.159,2698.709q0,13.406-10.375,13.406a10.575,10.575,0,0,1-2.875-.312v-2.235a9.149,9.149,0,0,0,2.843.407,6.921,6.921,0,0,0,5.665-2.321q1.913-2.321,2.085-7.117h-.187a5.563,5.563,0,0,1-2.281,1.977,7.339,7.339,0,0,1-3.2.679,6.439,6.439,0,0,1-4.813-1.812,6.916,6.916,0,0,1-1.781-5.063,7.756,7.756,0,0,1,1.992-5.625,7.625,7.625,0,0,1,9.313-.867,7.56,7.56,0,0,1,2.679,3.485A14.192,14.192,0,0,1,817.159,2698.709Zm-7.688-7.859a4.279,4.279,0,0,0-3.453,1.437,6,6,0,0,0-1.219,4,5.2,5.2,0,0,0,1.125,3.539,4.3,4.3,0,0,0,3.422,1.289,5.919,5.919,0,0,0,2.617-.578,4.716,4.716,0,0,0,1.883-1.578,3.641,3.641,0,0,0,.688-2.094,7.159,7.159,0,0,0-.641-3.031,5.289,5.289,0,0,0-1.789-2.188A4.509,4.509,0,0,0,809.471,2690.85Z"/>
      <path id="패스_2264" data-name="패스 2264" class="cls-2" d="M829.367,2695.771a9.873,9.873,0,0,1-1.2,5.383,3.931,3.931,0,0,1-3.508,1.821,3.835,3.835,0,0,1-3.4-1.86,9.8,9.8,0,0,1-1.211-5.344,9.914,9.914,0,0,1,1.164-5.343,3.84,3.84,0,0,1,3.445-1.8,3.923,3.923,0,0,1,3.484,1.859A9.612,9.612,0,0,1,829.367,2695.771Zm-7.156,0a10.464,10.464,0,0,0,.578,3.985,1.944,1.944,0,0,0,1.875,1.328q2.562,0,2.563-5.313,0-5.28-2.563-5.281a1.945,1.945,0,0,0-1.875,1.313A10.337,10.337,0,0,0,822.211,2695.771Zm16.891-6.812L826.43,2711.8h-2.3l12.672-22.844Zm4.031,15.969a9.833,9.833,0,0,1-1.2,5.367,3.928,3.928,0,0,1-3.507,1.82,3.822,3.822,0,0,1-3.414-1.859,12.655,12.655,0,0,1-.032-10.672,3.843,3.843,0,0,1,3.446-1.8,3.951,3.951,0,0,1,3.461,1.836A9.454,9.454,0,0,1,843.133,2704.928Zm-7.172,0a10.454,10.454,0,0,0,.578,3.992,1.954,1.954,0,0,0,1.891,1.32,2.041,2.041,0,0,0,1.937-1.3,9.734,9.734,0,0,0,.625-4.008,9.512,9.512,0,0,0-.625-3.961,2.041,2.041,0,0,0-1.937-1.289,1.953,1.953,0,0,0-1.891,1.289A10.2,10.2,0,0,0,835.961,2704.928Z"/>
    </g>
    <path id="패스_2265" data-name="패스 2265" class="cls-7" d="M446.868,2601.231l111.546-73.83a128.56,128.56,0,0,1,21.808,63.335Z" transform="translate(-48.867 -2467.45)"/>
    <path id="패스_2266" data-name="패스 2266" class="cls-8" d="M446.868,2601.231l-73.831-111.545A133.766,133.766,0,0,1,558.414,2527.4Z" transform="translate(-48.867 -2467.45)"/>
    <path id="패스_2267" data-name="패스 2267" class="cls-9" d="M446.868,2601.231l-110.24-75.766a129.631,129.631,0,0,1,36.409-35.779Z" transform="translate(-48.867 -2467.45)"/>
    <path id="패스_2268" data-name="패스 2268" class="cls-10" d="M446.868,2601.231l-118.652-61.766a123.237,123.237,0,0,1,8.412-14Z" transform="translate(-48.867 -2467.45)"/>
    <path id="패스_2269" data-name="패스 2269" class="cls-2" d="M446.868,2601.231l133.354-10.495a133.766,133.766,0,0,1-266.708,20.99c-2.087-26.513,2.421-48.671,14.7-72.261Z" transform="translate(-48.867 -2467.45)"/>
    <path id="패스_2270" data-name="패스 2270" class="cls-11" d="M446.867,2705.1a103.881,103.881,0,1,0-103.881-103.88A103.879,103.879,0,0,0,446.867,2705.1" transform="translate(-48.867 -2467.45)"/>
    <g id="그룹_935" data-name="그룹 935" transform="translate(-48.867 -2467.45)">
      <path id="패스_2271" data-name="패스 2271" class="cls-12" d="M50.19,2772.891l.7-1.151-1.173-.461.137-.436,1.232.333.1-1.322h.46l.081,1.311,1.231-.322.138.436-1.173.461.713,1.151-.38.264-.84-1.058-.851,1.058Z"/>
      <path id="패스_2272" data-name="패스 2272" class="cls-12" d="M57.734,2770.543h.713l3.429,5.765.932,1.691h.057c-.046-.829-.092-1.669-.092-2.485v-4.971h.656v8.388h-.713l-3.417-5.776-.944-1.679H58.3c.035.8.092,1.587.092,2.427v5.028h-.656Z"/>
      <path id="패스_2273" data-name="패스 2273" class="cls-12" d="M65.22,2775.87c0-1.99,1.3-3.232,2.692-3.232,1.484,0,2.37,1.058,2.37,2.852a3.2,3.2,0,0,1-.034.484H65.9a2.321,2.321,0,0,0,2.243,2.543,2.74,2.74,0,0,0,1.634-.53l.253.495a3.429,3.429,0,0,1-1.956.6A2.9,2.9,0,0,1,65.22,2775.87Zm4.452-.426c0-1.483-.678-2.231-1.748-2.231a2.183,2.183,0,0,0-2.025,2.231Z"/>
      <path id="패스_2274" data-name="패스 2274" class="cls-12" d="M72.063,2777.182v-3.82h-.955v-.507l.978-.056.081-1.773h.563v1.773h1.76v.563H72.73v3.866c0,.771.207,1.277,1.024,1.277a2.127,2.127,0,0,0,.748-.173l.161.519a3.486,3.486,0,0,1-1.024.229C72.431,2779.08,72.063,2778.321,72.063,2777.182Z"/>
      <path id="패스_2275" data-name="패스 2275" class="cls-12" d="M75.973,2772.8h.552l.08.931h.023a2.849,2.849,0,0,1,1.934-1.092,1.588,1.588,0,0,1,1.691,1.242,3.061,3.061,0,0,1,2.071-1.242c1.231,0,1.841.794,1.841,2.37v3.923H83.5V2775.1c0-1.278-.426-1.865-1.323-1.865a2.59,2.59,0,0,0-1.772,1.1v4.591h-.667V2775.1c0-1.278-.414-1.865-1.323-1.865a2.588,2.588,0,0,0-1.772,1.1v4.591h-.667Z"/>
      <path id="패스_2276" data-name="패스 2276" class="cls-12" d="M85.77,2777.389c0-1.358,1.209-2,3.912-2.313.023-.908-.242-1.851-1.4-1.851a3.313,3.313,0,0,0-1.932.7l-.3-.484a4.26,4.26,0,0,1,2.325-.8c1.461,0,1.978,1.047,1.978,2.4v3.889h-.563l-.07-.783h-.023a3.533,3.533,0,0,1-2.139.932A1.618,1.618,0,0,1,85.77,2777.389Zm3.912.173v-1.991c-2.416.277-3.244.84-3.244,1.783a1.106,1.106,0,0,0,1.253,1.163A3.025,3.025,0,0,0,89.682,2777.562Z"/>
      <path id="패스_2277" data-name="패스 2277" class="cls-12" d="M92.36,2772.8h.552l.081,1.139h.023a2.11,2.11,0,0,1,1.737-1.3,1.246,1.246,0,0,1,.622.137l-.139.6a1.289,1.289,0,0,0-.564-.1c-.54,0-1.2.4-1.645,1.541v4.119H92.36Z"/>
      <path id="패스_2278" data-name="패스 2278" class="cls-12" d="M97.236,2778.31h-.023l-.08.621h-.541v-9.147h.667v2.623l-.034,1.174a3.386,3.386,0,0,1,2.07-.943c1.634,0,2.463,1.242,2.463,3.129,0,2.093-1.266,3.313-2.7,3.313A3.037,3.037,0,0,1,97.236,2778.31Zm3.808-2.543c0-1.473-.506-2.542-1.875-2.542a3.022,3.022,0,0,0-1.91.977v3.544a2.766,2.766,0,0,0,1.738.747C100.193,2778.493,101.044,2777.412,101.044,2775.767Z"/>
      <path id="패스_2279" data-name="패스 2279" class="cls-12" d="M103.469,2778.021v-8.237h.667v8.307c0,.288.115.414.276.414a1.037,1.037,0,0,0,.219-.023l.1.529a1.339,1.339,0,0,1-.448.069C103.733,2779.08,103.469,2778.735,103.469,2778.021Z"/>
      <path id="패스_2280" data-name="패스 2280" class="cls-12" d="M105.872,2775.87c0-1.99,1.3-3.232,2.692-3.232,1.485,0,2.371,1.058,2.371,2.852a3.2,3.2,0,0,1-.035.484h-4.349a2.322,2.322,0,0,0,2.243,2.543,2.74,2.74,0,0,0,1.634-.53l.254.495a3.432,3.432,0,0,1-1.956.6A2.9,2.9,0,0,1,105.872,2775.87Zm4.453-.426c0-1.483-.679-2.231-1.749-2.231a2.184,2.184,0,0,0-2.025,2.231Z"/>
      <path id="패스_2281" data-name="패스 2281" class="cls-12" d="M114.692,2777.389c0-1.358,1.208-2,3.912-2.313.023-.908-.241-1.851-1.4-1.851a3.316,3.316,0,0,0-1.933.7l-.3-.484a4.253,4.253,0,0,1,2.324-.8c1.461,0,1.978,1.047,1.978,2.4v3.889h-.563l-.069-.783h-.023a3.536,3.536,0,0,1-2.14.932A1.618,1.618,0,0,1,114.692,2777.389Zm3.912.173v-1.991c-2.416.277-3.244.84-3.244,1.783a1.106,1.106,0,0,0,1.254,1.163A3.025,3.025,0,0,0,118.6,2777.562Z"/>
      <path id="패스_2282" data-name="패스 2282" class="cls-12" d="M120.868,2775.87a2.929,2.929,0,0,1,2.841-3.232,2.6,2.6,0,0,1,1.795.747l-.379.461a2.01,2.01,0,0,0-1.4-.621c-1.22,0-2.151,1.081-2.151,2.645s.851,2.635,2.139,2.635a2.451,2.451,0,0,0,1.6-.679l.322.46a2.967,2.967,0,0,1-1.956.794C122.076,2779.08,120.868,2777.906,120.868,2775.87Z"/>
      <path id="패스_2283" data-name="패스 2283" class="cls-12" d="M131.013,2779.333l.046-1.2a2.894,2.894,0,0,1-2,.943c-1.542,0-2.542-1.15-2.542-3.21,0-1.978,1.265-3.232,2.714-3.232a2.671,2.671,0,0,1,1.807.736h.023l.081-.575h.54v8.87h-.667Zm0-1.806v-3.544a2.478,2.478,0,0,0-1.714-.758c-1.174,0-2.071,1.138-2.071,2.645,0,1.588.7,2.623,1.944,2.623A2.567,2.567,0,0,0,131.013,2777.527Z"/>
      <path id="패스_2284" data-name="패스 2284" class="cls-12" d="M133.725,2776.722V2772.8h.667v3.843c0,1.254.391,1.84,1.335,1.84.713,0,1.219-.368,1.91-1.2V2772.8h.667v6.132h-.564l-.057-1.013h-.035a2.722,2.722,0,0,1-2.071,1.162C134.3,2779.08,133.725,2778.3,133.725,2776.722Z"/>
      <path id="패스_2285" data-name="패스 2285" class="cls-12" d="M140.2,2770.831a.534.534,0,0,1,.563-.552.541.541,0,1,1-.563.552Zm.218,1.968h.667v6.132h-.667Z"/>
      <path id="패스_2286" data-name="패스 2286" class="cls-12" d="M143.178,2772.8h.552l.081,1.139h.022a2.111,2.111,0,0,1,1.738-1.3,1.242,1.242,0,0,1,.621.137l-.138.6a1.289,1.289,0,0,0-.564-.1c-.54,0-1.2.4-1.645,1.541v4.119h-.667Z"/>
      <path id="패스_2287" data-name="패스 2287" class="cls-12" d="M146.708,2775.87c0-1.99,1.3-3.232,2.692-3.232,1.484,0,2.37,1.058,2.37,2.852a3.2,3.2,0,0,1-.035.484h-4.348a2.321,2.321,0,0,0,2.243,2.543,2.74,2.74,0,0,0,1.634-.53l.253.495a3.429,3.429,0,0,1-1.956.6A2.9,2.9,0,0,1,146.708,2775.87Zm4.452-.426c0-1.483-.679-2.231-1.748-2.231a2.183,2.183,0,0,0-2.025,2.231Z"/>
      <path id="패스_2288" data-name="패스 2288" class="cls-12" d="M153,2775.87c0-1.978,1.266-3.232,2.715-3.232a2.754,2.754,0,0,1,1.83.747l-.046-1.1v-2.5h.667v9.147h-.552l-.081-.771h-.023a2.842,2.842,0,0,1-1.967.92C154,2779.08,153,2777.93,153,2775.87Zm4.5,1.657v-3.544a2.48,2.48,0,0,0-1.714-.758c-1.174,0-2.072,1.138-2.072,2.645,0,1.588.7,2.623,1.945,2.623A2.567,2.567,0,0,0,157.5,2777.527Z"/>
      <path id="패스_2289" data-name="패스 2289" class="cls-12" d="M162.589,2777.389c0-1.358,1.208-2,3.912-2.313.023-.908-.242-1.851-1.4-1.851a3.313,3.313,0,0,0-1.932.7l-.3-.484a4.256,4.256,0,0,1,2.324-.8c1.461,0,1.979,1.047,1.979,2.4v3.889H166.6l-.069-.783h-.023a3.533,3.533,0,0,1-2.139.932A1.618,1.618,0,0,1,162.589,2777.389Zm3.912.173v-1.991c-2.416.277-3.245.84-3.245,1.783a1.107,1.107,0,0,0,1.254,1.163A3.027,3.027,0,0,0,166.5,2777.562Z"/>
      <path id="패스_2290" data-name="패스 2290" class="cls-12" d="M171.225,2778.517c2.842-2.452,3.969-4.177,3.969-5.7a1.648,1.648,0,0,0-1.714-1.863,2.5,2.5,0,0,0-1.864,1.047l-.425-.4a3.083,3.083,0,0,1,2.358-1.208,2.2,2.2,0,0,1,2.325,2.405c0,1.76-1.358,3.52-3.59,5.6.46-.034.943-.069,1.381-.069h2.611v.6h-5.051Z"/>
      <path id="패스_2291" data-name="패스 2291" class="cls-12" d="M177.378,2777.987l.368-.471a2.828,2.828,0,0,0,2.2.989,2.056,2.056,0,0,0,1.956-2.243,1.9,1.9,0,0,0-1.921-2.152,2.424,2.424,0,0,0-1.484.53l-.437-.265.287-3.832h3.831v.587h-3.233l-.241,2.819a2.583,2.583,0,0,1,1.4-.4,2.382,2.382,0,0,1,2.486,2.692,2.656,2.656,0,0,1-2.624,2.842A3.451,3.451,0,0,1,177.378,2777.987Z"/>
      <path id="패스_2292" data-name="패스 2292" class="cls-12" d="M184.014,2778.459a.587.587,0,1,1,.586.621A.593.593,0,0,1,184.014,2778.459Z"/>
      <path id="패스_2293" data-name="패스 2293" class="cls-12" d="M186.5,2774.708c0-2.91.943-4.314,2.474-4.314s2.462,1.4,2.462,4.314c0,2.945-.944,4.372-2.462,4.372S186.5,2777.653,186.5,2774.708Zm4.269,0c0-2.5-.714-3.75-1.8-3.75s-1.807,1.254-1.807,3.75c0,2.543.713,3.809,1.807,3.809S190.766,2777.251,190.766,2774.708Z"/>
      <path id="패스_2294" data-name="패스 2294" class="cls-12" d="M192.649,2776.849a2.837,2.837,0,0,1,1.6-2.394v-.046a2.313,2.313,0,0,1-1.151-1.91,2.056,2.056,0,0,1,2.163-2.07,2.083,2.083,0,0,1,2.221,2.2,2.932,2.932,0,0,1-1.151,2.082v.058a2.464,2.464,0,0,1,1.427,2.186,2.268,2.268,0,0,1-2.508,2.128A2.367,2.367,0,0,1,192.649,2776.849Zm4.441.091c0-1.277-1.173-1.737-2.439-2.232a2.5,2.5,0,0,0-1.369,2.1,1.811,1.811,0,0,0,1.968,1.726A1.664,1.664,0,0,0,197.09,2776.94Zm-.23-4.292a1.576,1.576,0,0,0-1.61-1.679,1.468,1.468,0,0,0-1.507,1.53c0,1.14,1.047,1.611,2.093,2.025A2.444,2.444,0,0,0,196.86,2772.648Z"/>
      <path id="패스_2295" data-name="패스 2295" class="cls-12" d="M198.836,2773.006c0-1.669.7-2.612,1.818-2.612s1.818.943,1.818,2.612c0,1.7-.69,2.657-1.818,2.657S198.836,2774.708,198.836,2773.006Zm3.084,0c0-1.393-.506-2.152-1.266-2.152s-1.254.759-1.254,2.152.5,2.2,1.254,2.2S201.92,2774.409,201.92,2773.006Zm3.636-2.612h.529l-4.671,8.686h-.53Zm-1.036,6.04c0-1.68.7-2.623,1.83-2.623,1.1,0,1.817.943,1.817,2.623,0,1.7-.713,2.646-1.817,2.646C205.222,2779.08,204.52,2778.137,204.52,2776.434Zm3.084,0c0-1.4-.507-2.163-1.254-2.163-.771,0-1.266.759-1.266,2.163s.495,2.186,1.266,2.186C207.1,2778.62,207.6,2777.838,207.6,2776.434Z"/>
      <path id="패스_2296" data-name="패스 2296" class="cls-12" d="M211.613,2778.24l.356-.483a2.809,2.809,0,0,0,1.933.771c.932,0,1.4-.529,1.4-1.162,0-.724-.771-1.058-1.484-1.311-.909-.323-1.922-.7-1.922-1.761,0-.9.725-1.656,2.014-1.656a2.962,2.962,0,0,1,1.783.655l-.345.46a2.351,2.351,0,0,0-1.461-.552c-.909,0-1.324.506-1.324,1.059,0,.678.714.931,1.427,1.2.943.357,1.979.69,1.979,1.875,0,.943-.748,1.749-2.105,1.749A3.593,3.593,0,0,1,211.613,2778.24Z"/>
      <path id="패스_2297" data-name="패스 2297" class="cls-12" d="M217.455,2769.784h.667v2.623l-.012,1.335a2.988,2.988,0,0,1,2.1-1.1c1.276,0,1.863.794,1.863,2.37v3.923H221.4V2775.1c0-1.278-.4-1.865-1.346-1.865-.713,0-1.22.369-1.933,1.1v4.591h-.667Z"/>
      <path id="패스_2298" data-name="패스 2298" class="cls-12" d="M223.641,2777.389c0-1.358,1.209-2,3.912-2.313.023-.908-.241-1.851-1.4-1.851a3.313,3.313,0,0,0-1.932.7l-.3-.484a4.26,4.26,0,0,1,2.325-.8c1.461,0,1.978,1.047,1.978,2.4v3.889h-.563l-.07-.783h-.023a3.533,3.533,0,0,1-2.139.932A1.618,1.618,0,0,1,223.641,2777.389Zm3.912.173v-1.991c-2.416.277-3.244.84-3.244,1.783a1.106,1.106,0,0,0,1.253,1.163A3.025,3.025,0,0,0,227.553,2777.562Z"/>
      <path id="패스_2299" data-name="패스 2299" class="cls-12" d="M230.231,2772.8h.552l.081,1.139h.023a2.11,2.11,0,0,1,1.737-1.3,1.246,1.246,0,0,1,.622.137l-.139.6a1.289,1.289,0,0,0-.564-.1c-.54,0-1.2.4-1.645,1.541v4.119h-.667Z"/>
      <path id="패스_2300" data-name="패스 2300" class="cls-12" d="M233.762,2775.87c0-1.99,1.3-3.232,2.692-3.232,1.484,0,2.37,1.058,2.37,2.852a3.2,3.2,0,0,1-.035.484H234.44a2.323,2.323,0,0,0,2.244,2.543,2.739,2.739,0,0,0,1.633-.53l.254.495a3.432,3.432,0,0,1-1.956.6A2.9,2.9,0,0,1,233.762,2775.87Zm4.452-.426c0-1.483-.679-2.231-1.749-2.231a2.184,2.184,0,0,0-2.025,2.231Z"/>
      <path id="패스_2301" data-name="패스 2301" class="cls-12" d="M242.5,2775.87c0-2.048,1.289-3.232,2.773-3.232s2.773,1.184,2.773,3.232-1.289,3.21-2.773,3.21S242.5,2777.906,242.5,2775.87Zm4.855,0c0-1.564-.885-2.645-2.082-2.645s-2.071,1.081-2.071,2.645.875,2.635,2.071,2.635S247.356,2777.435,247.356,2775.87Z"/>
      <path id="패스_2302" data-name="패스 2302" class="cls-12" d="M252.15,2770.371a1.75,1.75,0,0,0-.724-.173c-.656,0-.944.484-.944,1.346v1.255h1.393v.563h-1.393v5.569h-.667v-5.569h-.851v-.507l.851-.056v-1.289c0-1.22.541-1.875,1.576-1.875a2.328,2.328,0,0,1,.921.207Z"/>
      <path id="패스_2303" data-name="패스 2303" class="cls-12" d="M254.886,2770.543h.714l1.012,4.855c.2.91.38,1.819.564,2.739h.046c.207-.92.425-1.829.644-2.739l1.277-4.855h.679l1.288,4.855c.219.91.426,1.819.645,2.739h.057c.173-.92.345-1.829.529-2.739l1.013-4.855h.679l-1.841,8.388h-.782l-1.485-5.6c-.138-.668-.287-1.243-.437-1.888h-.046c-.138.645-.311,1.22-.46,1.888l-1.438,5.6h-.782Z"/>
      <path id="패스_2304" data-name="패스 2304" class="cls-12" d="M264.811,2775.87c0-2.048,1.289-3.232,2.772-3.232s2.773,1.184,2.773,3.232-1.288,3.21-2.773,3.21S264.811,2777.906,264.811,2775.87Zm4.855,0c0-1.564-.886-2.645-2.083-2.645s-2.07,1.081-2.07,2.645.874,2.635,2.07,2.635S269.666,2777.435,269.666,2775.87Z"/>
      <path id="패스_2305" data-name="패스 2305" class="cls-12" d="M271.664,2775.87c0-2.048,1.289-3.232,2.773-3.232s2.773,1.184,2.773,3.232-1.289,3.21-2.773,3.21S271.664,2777.906,271.664,2775.87Zm4.856,0c0-1.564-.886-2.645-2.083-2.645s-2.071,1.081-2.071,2.645.875,2.635,2.071,2.635S276.52,2777.435,276.52,2775.87Z"/>
      <path id="패스_2306" data-name="패스 2306" class="cls-12" d="M278.91,2772.8h.552l.08.931h.023a3.018,3.018,0,0,1,2.1-1.092c1.277,0,1.863.794,1.863,2.37v3.923h-.667V2775.1c0-1.278-.4-1.865-1.346-1.865-.713,0-1.219.369-1.933,1.1v4.591h-.667Z"/>
      <path id="패스_2307" data-name="패스 2307" class="cls-12" d="M285.039,2780.173a1.867,1.867,0,0,1,.92-1.461v-.058a1.1,1.1,0,0,1-.552-.989,1.526,1.526,0,0,1,.679-1.139v-.046a2.221,2.221,0,0,1-.782-1.668,2.141,2.141,0,0,1,2.2-2.174,2.167,2.167,0,0,1,.817.161h2.094v.552h-1.381a1.955,1.955,0,0,1,.633,1.472,2.111,2.111,0,0,1-2.163,2.163,2.058,2.058,0,0,1-.989-.253,1.055,1.055,0,0,0-.484.852c0,.436.265.77,1.151.77h1.289c1.392,0,2.048.438,2.048,1.416,0,1.07-1.151,2.082-2.946,2.082C286.04,2781.853,285.039,2781.209,285.039,2780.173Zm4.809-.311c0-.655-.483-.9-1.392-.9H287.2a4.255,4.255,0,0,1-.771-.1,1.54,1.54,0,0,0-.759,1.232c0,.748.724,1.254,1.979,1.254C288.985,2781.347,289.848,2780.6,289.848,2779.862Zm-.828-5.05a1.528,1.528,0,1,0-3.049,0,1.531,1.531,0,1,0,3.049,0Z"/>
      <path id="패스_2308" data-name="패스 2308" class="cls-12" d="M290.7,2781.657l.15-.529a1.908,1.908,0,0,0,.633.127c.678,0,.8-.541.8-1.312V2772.8h.678v7.167c0,1.22-.448,1.852-1.449,1.852A2.06,2.06,0,0,1,290.7,2781.657Zm1.381-10.826a.525.525,0,0,1,.552-.552.541.541,0,1,1,0,1.081A.526.526,0,0,1,292.077,2770.831Z"/>
      <path id="패스_2309" data-name="패스 2309" class="cls-12" d="M294.849,2770.831a.534.534,0,0,1,.563-.552.541.541,0,1,1-.563.552Zm.218,1.968h.667v6.132h-.667Z"/>
      <path id="패스_2310" data-name="패스 2310" class="cls-12" d="M297.827,2772.8h.552l.08.931h.023a3.018,3.018,0,0,1,2.1-1.092c1.277,0,1.863.794,1.863,2.37v3.923h-.667V2775.1c0-1.278-.4-1.865-1.346-1.865-.713,0-1.219.369-1.933,1.1v4.591h-.667Z"/>
      <path id="패스_2311" data-name="패스 2311" class="cls-12" d="M309.051,2771.13h-2.634v-.587H312.4v.587h-2.646v7.8h-.7Z"/>
      <path id="패스_2312" data-name="패스 2312" class="cls-12" d="M313.857,2769.784h.668v2.623l-.012,1.335a2.988,2.988,0,0,1,2.094-1.1c1.277,0,1.864.794,1.864,2.37v3.923H317.8V2775.1c0-1.278-.4-1.865-1.346-1.865-.714,0-1.22.369-1.933,1.1v4.591h-.668Z"/>
      <path id="패스_2313" data-name="패스 2313" class="cls-12" d="M320.263,2770.831a.534.534,0,0,1,.564-.552.541.541,0,1,1-.564.552Zm.218,1.968h.668v6.132h-.668Z"/>
      <path id="패스_2314" data-name="패스 2314" class="cls-12" d="M323.241,2772.8h.552l.081.931h.023a3.016,3.016,0,0,1,2.094-1.092c1.277,0,1.864.794,1.864,2.37v3.923h-.668V2775.1c0-1.278-.4-1.865-1.346-1.865-.713,0-1.219.369-1.932,1.1v4.591h-.668Z"/>
      <path id="패스_2315" data-name="패스 2315" class="cls-12" d="M329.911,2769.784h.668v6.627h.023l2.933-3.612h.76l-2,2.427,2.324,3.7h-.737l-1.978-3.222-1.323,1.564v1.658h-.668Z"/>
      <path id="패스_2316" data-name="패스 2316" class="cls-12" d="M336.57,2778.31h-.023l-.081.621h-.541v-9.147h.668v2.623l-.035,1.174a3.391,3.391,0,0,1,2.071-.943c1.634,0,2.462,1.242,2.462,3.129,0,2.093-1.265,3.313-2.7,3.313A3.032,3.032,0,0,1,336.57,2778.31Zm3.808-2.543c0-1.473-.506-2.542-1.876-2.542a3.018,3.018,0,0,0-1.909.977v3.544a2.764,2.764,0,0,0,1.737.747C339.526,2778.493,340.378,2777.412,340.378,2775.767Z"/>
      <path id="패스_2317" data-name="패스 2317" class="cls-12" d="M342.561,2770.831a.534.534,0,0,1,.564-.552.541.541,0,1,1-.564.552Zm.218,1.968h.668v6.132h-.668Z"/>
      <path id="패스_2318" data-name="패스 2318" class="cls-12" d="M345.033,2780.173a1.866,1.866,0,0,1,.921-1.461v-.058a1.1,1.1,0,0,1-.553-.989,1.526,1.526,0,0,1,.679-1.139v-.046a2.22,2.22,0,0,1-.782-1.668,2.141,2.141,0,0,1,2.2-2.174,2.167,2.167,0,0,1,.817.161h2.094v.552h-1.381a1.951,1.951,0,0,1,.633,1.472,2.111,2.111,0,0,1-2.163,2.163,2.061,2.061,0,0,1-.989-.253,1.055,1.055,0,0,0-.484.852c0,.436.265.77,1.151.77h1.289c1.392,0,2.048.438,2.048,1.416,0,1.07-1.151,2.082-2.946,2.082C346.034,2781.853,345.033,2781.209,345.033,2780.173Zm4.809-.311c0-.655-.483-.9-1.392-.9H347.2a4.256,4.256,0,0,1-.771-.1,1.54,1.54,0,0,0-.759,1.232c0,.748.725,1.254,1.979,1.254C348.979,2781.347,349.842,2780.6,349.842,2779.862Zm-.828-5.05a1.528,1.528,0,1,0-3.049,0,1.531,1.531,0,1,0,3.049,0Z"/>
      <path id="패스_2319" data-name="패스 2319" class="cls-12" d="M353.842,2775.87c0-2.048,1.289-3.232,2.773-3.232s2.773,1.184,2.773,3.232-1.289,3.21-2.773,3.21S353.842,2777.906,353.842,2775.87Zm4.855,0c0-1.564-.885-2.645-2.082-2.645s-2.071,1.081-2.071,2.645.874,2.635,2.071,2.635S358.7,2777.435,358.7,2775.87Z"/>
      <path id="패스_2320" data-name="패스 2320" class="cls-12" d="M361.087,2772.8h.552l.081.931h.023a3.014,3.014,0,0,1,2.094-1.092c1.277,0,1.864.794,1.864,2.37v3.923h-.668V2775.1c0-1.278-.4-1.865-1.346-1.865-.713,0-1.219.369-1.933,1.1v4.591h-.667Z"/>
      <path id="패스_2321" data-name="패스 2321" class="cls-12" d="M370.528,2770.543h4.625v.587h-3.935v3.233h3.325v.587h-3.325v3.981h-.69Z"/>
      <path id="패스_2322" data-name="패스 2322" class="cls-12" d="M375.979,2775.87c0-1.99,1.3-3.232,2.692-3.232,1.485,0,2.371,1.058,2.371,2.852a3.193,3.193,0,0,1-.035.484h-4.349a2.322,2.322,0,0,0,2.243,2.543,2.74,2.74,0,0,0,1.634-.53l.254.495a3.434,3.434,0,0,1-1.956.6A2.9,2.9,0,0,1,375.979,2775.87Zm4.453-.426c0-1.483-.679-2.231-1.749-2.231a2.184,2.184,0,0,0-2.025,2.231Z"/>
      <path id="패스_2323" data-name="패스 2323" class="cls-12" d="M383.282,2778.31h-.023l-.08.621h-.541v-9.147h.667v2.623l-.034,1.174a3.386,3.386,0,0,1,2.07-.943c1.634,0,2.463,1.242,2.463,3.129,0,2.093-1.266,3.313-2.7,3.313A3.034,3.034,0,0,1,383.282,2778.31Zm3.808-2.543c0-1.473-.506-2.542-1.875-2.542a3.02,3.02,0,0,0-1.91.977v3.544a2.766,2.766,0,0,0,1.737.747C386.239,2778.493,387.09,2777.412,387.09,2775.767Z"/>
      <path id="패스_2324" data-name="패스 2324" class="cls-12" d="M389.526,2772.8h.552l.081,1.139h.023a2.109,2.109,0,0,1,1.737-1.3,1.246,1.246,0,0,1,.622.137l-.139.6a1.289,1.289,0,0,0-.564-.1c-.54,0-1.2.4-1.645,1.541v4.119h-.667Z"/>
      <path id="패스_2325" data-name="패스 2325" class="cls-12" d="M393.712,2776.722V2772.8h.667v3.843c0,1.254.392,1.84,1.335,1.84.714,0,1.22-.368,1.91-1.2V2772.8h.668v6.132h-.564l-.058-1.013h-.034a2.726,2.726,0,0,1-2.072,1.162C394.288,2779.08,393.712,2778.3,393.712,2776.722Z"/>
      <path id="패스_2326" data-name="패스 2326" class="cls-12" d="M399.956,2777.389c0-1.358,1.208-2,3.912-2.313.023-.908-.242-1.851-1.4-1.851a3.313,3.313,0,0,0-1.932.7l-.3-.484a4.26,4.26,0,0,1,2.325-.8c1.461,0,1.978,1.047,1.978,2.4v3.889h-.563l-.07-.783h-.023a3.533,3.533,0,0,1-2.139.932A1.618,1.618,0,0,1,399.956,2777.389Zm3.912.173v-1.991c-2.416.277-3.244.84-3.244,1.783a1.106,1.106,0,0,0,1.253,1.163A3.025,3.025,0,0,0,403.868,2777.562Z"/>
      <path id="패스_2327" data-name="패스 2327" class="cls-12" d="M406.546,2772.8h.552l.081,1.139h.023a2.11,2.11,0,0,1,1.737-1.3,1.246,1.246,0,0,1,.622.137l-.139.6a1.289,1.289,0,0,0-.564-.1c-.54,0-1.2.4-1.645,1.541v4.119h-.667Z"/>
      <path id="패스_2328" data-name="패스 2328" class="cls-12" d="M410.444,2781.565l.15-.563a1.57,1.57,0,0,0,.494.092c.737,0,1.231-.667,1.531-1.554l.161-.518-2.509-6.223H411l1.426,3.75c.2.529.426,1.174.644,1.725h.058c.184-.551.379-1.2.552-1.725l1.254-3.75h.679l-2.393,6.845c-.368,1.058-.989,2.047-2.117,2.047A1.618,1.618,0,0,1,410.444,2781.565Z"/>
      <path id="패스_2329" data-name="패스 2329" class="cls-12" d="M419.368,2778.344h1.9v-6.823H419.8v-.449a4.786,4.786,0,0,0,1.6-.529h.541v7.8h1.749v.587h-4.326Z"/>
      <path id="패스_2330" data-name="패스 2330" class="cls-12" d="M425.325,2778.344h1.9v-6.823h-1.462v-.449a4.786,4.786,0,0,0,1.6-.529h.541v7.8h1.749v.587h-4.326Z"/>
      <path id="패스_2331" data-name="패스 2331" class="cls-12" d="M430.9,2780.519a1.743,1.743,0,0,0,1.013-1.542.585.585,0,0,1-.138.011.565.565,0,0,1-.6-.587.577.577,0,0,1,.61-.575c.414,0,.691.38.691.989a2.39,2.39,0,0,1-1.381,2.14Z"/>
      <path id="패스_2332" data-name="패스 2332" class="cls-12" d="M436.238,2778.517c2.842-2.452,3.969-4.177,3.969-5.7a1.648,1.648,0,0,0-1.714-1.863,2.5,2.5,0,0,0-1.864,1.047l-.425-.4a3.079,3.079,0,0,1,2.358-1.208,2.2,2.2,0,0,1,2.324,2.405c0,1.76-1.358,3.52-3.59,5.6.461-.034.944-.069,1.381-.069h2.612v.6h-5.051Z"/>
      <path id="패스_2333" data-name="패스 2333" class="cls-12" d="M442.356,2774.708c0-2.91.943-4.314,2.474-4.314s2.462,1.4,2.462,4.314c0,2.945-.944,4.372-2.462,4.372S442.356,2777.653,442.356,2774.708Zm4.268,0c0-2.5-.713-3.75-1.794-3.75s-1.807,1.254-1.807,3.75c0,2.543.713,3.809,1.807,3.809S446.624,2777.251,446.624,2774.708Z"/>
      <path id="패스_2334" data-name="패스 2334" class="cls-12" d="M448.347,2778.517c2.842-2.452,3.969-4.177,3.969-5.7a1.647,1.647,0,0,0-1.713-1.863,2.5,2.5,0,0,0-1.865,1.047l-.425-.4a3.083,3.083,0,0,1,2.358-1.208A2.2,2.2,0,0,1,453,2772.8c0,1.76-1.358,3.52-3.59,5.6.46-.034.943-.069,1.381-.069H453.4v.6h-5.051Z"/>
      <path id="패스_2335" data-name="패스 2335" class="cls-12" d="M454.465,2774.708c0-2.91.944-4.314,2.474-4.314s2.462,1.4,2.462,4.314c0,2.945-.943,4.372-2.462,4.372S454.465,2777.653,454.465,2774.708Zm4.268,0c0-2.5-.712-3.75-1.794-3.75s-1.807,1.254-1.807,3.75c0,2.543.714,3.809,1.807,3.809S458.733,2777.251,458.733,2774.708Z"/>
    </g>
    <g id="그룹_936" data-name="그룹 936" transform="translate(-48.867 -2467.45)">
      <path id="패스_2336" data-name="패스 2336" class="cls-7" d="M370.327,2597.834l1.155-1.359a4.854,4.854,0,0,0,3.332,1.478c1.513,0,2.363-.714,2.363-1.767,0-1.139-.85-1.5-2.006-2.006l-1.734-.748a3.6,3.6,0,0,1-2.55-3.281c0-1.972,1.734-3.451,4.114-3.451a5.363,5.363,0,0,1,3.791,1.581l-1.037,1.258a3.985,3.985,0,0,0-2.754-1.122c-1.275,0-2.108.612-2.108,1.615,0,1.071,1,1.479,2.023,1.887l1.717.73c1.479.629,2.55,1.547,2.55,3.383,0,2.006-1.666,3.638-4.4,3.638A6.238,6.238,0,0,1,370.327,2597.834Z"/>
      <path id="패스_2337" data-name="패스 2337" class="cls-7" d="M381.172,2585.9h1.938v3.587l-.068,1.853a4.351,4.351,0,0,1,3.026-1.479c1.989,0,2.872,1.326,2.872,3.7v5.882h-1.954v-5.643c0-1.616-.476-2.261-1.581-2.261a3.191,3.191,0,0,0-2.3,1.274v6.63h-1.938Z"/>
      <path id="패스_2338" data-name="패스 2338" class="cls-7" d="M390.947,2596.967c0-2.005,1.7-3.042,5.593-3.467-.018-1.088-.408-2.04-1.785-2.04a5.132,5.132,0,0,0-2.7.952l-.731-1.326a7.163,7.163,0,0,1,3.774-1.224c2.328,0,3.4,1.479,3.4,3.96v5.627h-1.6l-.169-1.071h-.051a4.648,4.648,0,0,1-2.975,1.292A2.583,2.583,0,0,1,390.947,2596.967Zm5.593.068v-2.295c-2.771.34-3.706,1.037-3.706,2.091,0,.918.629,1.292,1.462,1.292A3.3,3.3,0,0,0,396.54,2597.035Z"/>
      <path id="패스_2339" data-name="패스 2339" class="cls-7" d="M401.062,2590.1h1.6l.152,1.683h.052a3.23,3.23,0,0,1,2.652-1.921,2.322,2.322,0,0,1,1.053.2l-.357,1.7a2.765,2.765,0,0,0-.935-.154c-.764,0-1.682.528-2.277,2.006v5.831h-1.938Z"/>
      <path id="패스_2340" data-name="패스 2340" class="cls-7" d="M407.131,2594.791c0-3.042,2.074-4.929,4.266-4.929,2.482,0,3.808,1.784,3.808,4.437a5.04,5.04,0,0,1-.085.985h-6.068a2.823,2.823,0,0,0,2.889,2.856,3.971,3.971,0,0,0,2.227-.7l.68,1.241a5.673,5.673,0,0,1-3.161.986C409.154,2599.67,407.131,2597.868,407.131,2594.791Zm6.391-.85c0-1.614-.73-2.549-2.09-2.549a2.535,2.535,0,0,0-2.4,2.549Z"/>
      <path id="패스_2341" data-name="패스 2341" class="cls-7" d="M417.28,2585.9h1.937v3.587l-.068,1.853a4.351,4.351,0,0,1,3.026-1.479c1.989,0,2.873,1.326,2.873,3.7v5.882h-1.955v-5.643c0-1.616-.476-2.261-1.581-2.261a3.193,3.193,0,0,0-2.295,1.274v6.63H417.28Z"/>
      <path id="패스_2342" data-name="패스 2342" class="cls-7" d="M427.021,2594.791c0-3.127,2.09-4.929,4.4-4.929s4.4,1.8,4.4,4.929c0,3.094-2.091,4.879-4.4,4.879S427.021,2597.885,427.021,2594.791Zm6.8,0c0-1.988-.918-3.314-2.4-3.314-1.462,0-2.38,1.326-2.38,3.314,0,1.973.918,3.281,2.38,3.281C432.9,2598.072,433.82,2596.764,433.82,2594.791Z"/>
      <path id="패스_2343" data-name="패스 2343" class="cls-7" d="M437.935,2597.256V2585.9h1.937v11.457c0,.527.238.714.476.714a1.36,1.36,0,0,0,.323-.034l.255,1.479a3.142,3.142,0,0,1-1.054.153C438.461,2599.67,437.935,2598.77,437.935,2597.256Z"/>
      <path id="패스_2344" data-name="패스 2344" class="cls-7" d="M442.1,2594.791c0-3.042,1.92-4.929,4.011-4.929a3.607,3.607,0,0,1,2.516,1.054l-.085-1.547V2585.9H450.5v13.548h-1.6l-.17-1.053h-.051a3.922,3.922,0,0,1-2.72,1.274C443.612,2599.67,442.1,2597.885,442.1,2594.791Zm6.442,2.125v-4.572a2.933,2.933,0,0,0-2.057-.85c-1.309,0-2.363,1.24-2.363,3.264,0,2.124.833,3.3,2.295,3.3A2.748,2.748,0,0,0,448.542,2596.916Z"/>
      <path id="패스_2345" data-name="패스 2345" class="cls-7" d="M452.605,2594.791c0-3.042,2.074-4.929,4.267-4.929,2.482,0,3.807,1.784,3.807,4.437a5.04,5.04,0,0,1-.085.985h-6.068a2.823,2.823,0,0,0,2.89,2.856,3.967,3.967,0,0,0,2.226-.7l.68,1.241a5.673,5.673,0,0,1-3.161.986C454.628,2599.67,452.605,2597.868,452.605,2594.791Zm6.391-.85c0-1.614-.73-2.549-2.09-2.549a2.534,2.534,0,0,0-2.4,2.549Z"/>
      <path id="패스_2346" data-name="패스 2346" class="cls-7" d="M462.754,2590.1h1.6l.152,1.683h.052a3.232,3.232,0,0,1,2.652-1.921,2.325,2.325,0,0,1,1.053.2l-.357,1.7a2.765,2.765,0,0,0-.935-.154c-.764,0-1.682.528-2.278,2.006v5.831h-1.937Z"/>
      <path id="패스_2347" data-name="패스 2347" class="cls-7" d="M472.648,2597.834l1.156-1.359a4.852,4.852,0,0,0,3.331,1.478c1.513,0,2.363-.714,2.363-1.767,0-1.139-.85-1.5-2.006-2.006l-1.734-.748a3.6,3.6,0,0,1-2.55-3.281c0-1.972,1.734-3.451,4.114-3.451a5.363,5.363,0,0,1,3.791,1.581l-1.037,1.258a3.985,3.985,0,0,0-2.754-1.122c-1.275,0-2.108.612-2.108,1.615,0,1.071,1,1.479,2.023,1.887l1.717.73c1.479.629,2.55,1.547,2.55,3.383,0,2.006-1.666,3.638-4.4,3.638A6.24,6.24,0,0,1,472.648,2597.834Z"/>
      <path id="패스_2348" data-name="패스 2348" class="cls-7" d="M483.629,2596.39v-4.726h-1.36V2590.2l1.445-.1.221-2.583h1.649v2.583h2.431v1.564h-2.431v4.742c0,1.122.391,1.7,1.36,1.7a2.79,2.79,0,0,0,1-.221l.357,1.445a5.99,5.99,0,0,1-1.836.34C484.36,2599.67,483.629,2598.361,483.629,2596.39Z"/>
      <path id="패스_2349" data-name="패스 2349" class="cls-7" d="M489.41,2596.967c0-2.005,1.7-3.042,5.592-3.467-.017-1.088-.408-2.04-1.785-2.04a5.125,5.125,0,0,0-2.7.952l-.731-1.326a7.157,7.157,0,0,1,3.773-1.224c2.329,0,3.4,1.479,3.4,3.96v5.627h-1.6l-.17-1.071h-.051a4.648,4.648,0,0,1-2.975,1.292A2.582,2.582,0,0,1,489.41,2596.967Zm5.592.068v-2.295c-2.771.34-3.706,1.037-3.706,2.091,0,.918.629,1.292,1.462,1.292A3.3,3.3,0,0,0,495,2597.035Z"/>
      <path id="패스_2350" data-name="패스 2350" class="cls-7" d="M499.728,2596.39v-4.726h-1.36V2590.2l1.445-.1.221-2.583h1.649v2.583h2.431v1.564h-2.431v4.742c0,1.122.391,1.7,1.36,1.7a2.79,2.79,0,0,0,1-.221l.357,1.445a5.985,5.985,0,0,1-1.836.34C500.459,2599.67,499.728,2598.361,499.728,2596.39Z"/>
      <path id="패스_2351" data-name="패스 2351" class="cls-7" d="M505.763,2595.981V2590.1h1.955v5.643c0,1.615.459,2.244,1.564,2.244.867,0,1.462-.408,2.243-1.393V2590.1h1.955v9.349h-1.6l-.154-1.411h-.05a3.92,3.92,0,0,1-3.06,1.632C506.63,2599.67,505.763,2598.361,505.763,2595.981Z"/>
      <path id="패스_2352" data-name="패스 2352" class="cls-7" d="M515.232,2598.378l.918-1.258a4.145,4.145,0,0,0,2.652,1.071c1.122,0,1.649-.544,1.649-1.257,0-.851-1.054-1.225-2.074-1.616-1.241-.475-2.669-1.138-2.669-2.719,0-1.564,1.258-2.737,3.315-2.737a4.917,4.917,0,0,1,3.042,1.1l-.918,1.207a3.5,3.5,0,0,0-2.09-.817c-1.02,0-1.5.511-1.5,1.157,0,.8.969,1.1,1.989,1.478,1.308.493,2.754,1.071,2.754,2.839,0,1.565-1.242,2.839-3.553,2.839A5.751,5.751,0,0,1,515.232,2598.378Z"/>
    </g>
    <g id="그룹_937" data-name="그룹 937" transform="translate(-48.867 -2467.45)">
      <path id="패스_2353" data-name="패스 2353" class="cls-1" d="M424.888,2623.79a12.638,12.638,0,0,1,1.932-6.779l.476.257a13.056,13.056,0,0,0,0,13.045l-.476.243A12.6,12.6,0,0,1,424.888,2623.79Z"/>
      <path id="패스_2354" data-name="패스 2354" class="cls-1" d="M428.46,2625.356v-4.6h.768v4.511c0,1.471.449,2.16,1.534,2.16.821,0,1.4-.432,2.2-1.4v-5.267h.768v7.2h-.649l-.066-1.188h-.039a3.118,3.118,0,0,1-2.382,1.364C429.122,2628.125,428.46,2627.206,428.46,2625.356Z"/>
      <path id="패스_2355" data-name="패스 2355" class="cls-1" d="M436.107,2620.751h.635l.093,1.094h.026a3.449,3.449,0,0,1,2.408-1.282c1.468,0,2.143.931,2.143,2.781v4.6h-.767v-4.5c0-1.5-.463-2.187-1.548-2.187-.82,0-1.4.431-2.222,1.3v5.388h-.768Z"/>
      <path id="패스_2356" data-name="패스 2356" class="cls-1" d="M443.463,2618.442a.62.62,0,0,1,.648-.648.635.635,0,1,1-.648.648Zm.251,2.309h.767v7.2h-.767Z"/>
      <path id="패스_2357" data-name="패스 2357" class="cls-1" d="M447.154,2625.9v-4.483h-1.1v-.594l1.124-.068.092-2.079h.649v2.079h2.024v.662h-2.024v4.537c0,.905.238,1.5,1.177,1.5a2.444,2.444,0,0,0,.86-.2l.186.607a3.919,3.919,0,0,1-1.178.271C447.577,2628.125,447.154,2627.233,447.154,2625.9Z"/>
      <path id="패스_2358" data-name="패스 2358" class="cls-1" d="M453.821,2620.994c0-1.958.807-3.065,2.091-3.065s2.09,1.107,2.09,3.065c0,2-.794,3.12-2.09,3.12S453.821,2622.993,453.821,2620.994Zm3.546,0c0-1.634-.582-2.525-1.455-2.525s-1.442.891-1.442,2.525.569,2.579,1.442,2.579S457.367,2622.642,457.367,2620.994Zm4.18-3.065h.609l-5.371,10.2h-.609Zm-1.191,7.09c0-1.972.808-3.08,2.1-3.08,1.27,0,2.09,1.108,2.09,3.08,0,2-.82,3.106-2.09,3.106C461.164,2628.125,460.356,2627.018,460.356,2625.019Zm3.546,0c0-1.648-.582-2.54-1.442-2.54-.886,0-1.455.892-1.455,2.54s.569,2.565,1.455,2.565C463.32,2627.584,463.9,2626.666,463.9,2625.019Z"/>
      <path id="패스_2359" data-name="패스 2359" class="cls-1" d="M465.212,2630.313a13.056,13.056,0,0,0,0-13.045l.476-.257a12.836,12.836,0,0,1,0,13.545Z"/>
    </g>
  </g>
</svg>
