<svg xmlns="http://www.w3.org/2000/svg" width="799.843" height="267.558" viewBox="0 0 799.843 267.558">
  <defs>
    <style>
      .cls-1, .cls-11 {
        fill: #132d53;
      }

      .cls-2 {
        fill: #5a78b5;
      }

      .cls-14, .cls-3, .cls-4, .cls-5, .cls-6 {
        fill: none;
      }

      .cls-3, .cls-4, .cls-5, .cls-6 {
        stroke: #42454a;
        stroke-linecap: round;
        stroke-linejoin: round;
      }

      .cls-3 {
        stroke-dasharray: 0 2.99;
      }

      .cls-5 {
        stroke-dasharray: 0 2.999;
      }

      .cls-6 {
        stroke-dasharray: 0 2.984;
      }

      .cls-7 {
        fill: #a6c4ec;
      }

      .cls-8 {
        fill: #fff;
      }

      .cls-10, .cls-9 {
        fill: #1e2323;
      }

      .cls-13, .cls-9 {
        font-size: 17px;
        font-family: NotoSansKR-Medium, Noto Sans KR;
        font-weight: 500;
      }

      .cls-11 {
        font-size: 32px;
        font-family: OpenSans, Open Sans;
        letter-spacing: -0.015em;
      }

      .cls-12, .cls-13 {
        fill: #5170b0;
      }

      .cls-13 {
        letter-spacing: -0.005em;
      }
    </style>
  </defs>
  <g id="구성_요소_113_1" data-name="구성 요소 113 – 1" transform="translate(0.5)">
    <path id="패스_494" data-name="패스 494" class="cls-1" d="M0,0-89.466-92.644C-117.1-65.956-130.314-34.831-130.314,3.588A133.779,133.779,0,0,0,3.465,137.367a133.174,133.174,0,0,0,79.664-26.308Z" transform="translate(394.035 130.191)"/>
    <path id="패스_495" data-name="패스 495" class="cls-2" d="M0,0,53.409,117.194c34.96-15.932,57.8-40.861,70.628-77.077A133.778,133.778,0,0,0,42.588-130.644a133.171,133.171,0,0,0-83.876-1.794Z" transform="translate(399.532 138.349)"/>
    <path id="패스_497" data-name="패스 497" class="cls-3" d="M0,0H336.365" transform="translate(2.99 21.027)"/>
    <path id="패스_498" data-name="패스 498" class="cls-4" d="M0,0H0M340.85,0h0" transform="translate(0 21.027)"/>
    <path id="패스_499" data-name="패스 499" class="cls-3" d="M0,0H336.365" transform="translate(457.141 84.808)"/>
    <path id="패스_500" data-name="패스 500" class="cls-4" d="M0,0H0M340.85,0h0" transform="translate(454.15 84.808)"/>
    <path id="패스_502" data-name="패스 502" class="cls-5" d="M0,0H181.459" transform="translate(3 189.843)"/>
    <path id="패스_503" data-name="패스 503" class="cls-6" d="M0,0,85.268-85.658" transform="translate(188.064 187.73)"/>
    <path id="패스_505" data-name="패스 505" class="cls-2" d="M0,0V-133.779A133.779,133.779,0,0,1,133.779,0Z" transform="translate(397.5 133.779)"/>
    <path id="패스_506" data-name="패스 506" class="cls-7" d="M0,0-92.931-96.232C-67.42-120.868-35.464-133.779,0-133.779Z" transform="translate(397.5 133.779)"/>
    <path id="패스_507" data-name="패스 507" class="cls-8" d="M0,0A98.933,98.933,0,0,0,98.934-98.934,98.933,98.933,0,0,0,0-197.867,98.933,98.933,0,0,0-98.934-98.934,98.933,98.933,0,0,0,0,0" transform="translate(397.5 232.712)"/>
    <text id="_" data-name=" " class="cls-9" transform="translate(795.343 113.552)"><tspan x="0" y="0"> </tspan></text>
    <path id="패스_1323" data-name="패스 1323" class="cls-1" d="M17.656-5.25H14.266V0H11.781V-5.25H.672V-7.516L11.516-22.969h2.75V-7.609h3.391ZM11.781-7.609V-15.2q0-2.234.156-5.047h-.125a23.479,23.479,0,0,1-1.406,2.484L3.266-7.609Zm21.754-9.859a5.209,5.209,0,0,1-1.227,3.578,6.141,6.141,0,0,1-3.477,1.859v.125a6.538,6.538,0,0,1,4.078,1.75,5.151,5.151,0,0,1,1.328,3.688,5.982,5.982,0,0,1-2.266,5.023A10.3,10.3,0,0,1,25.536.313a18.657,18.657,0,0,1-3.32-.273,11.363,11.363,0,0,1-2.93-.961V-3.391A14.245,14.245,0,0,0,22.45-2.273a14.329,14.329,0,0,0,3.18.383q5.922,0,5.922-4.641,0-4.156-6.531-4.156H22.77v-2.234h2.281a6.869,6.869,0,0,0,4.234-1.18,3.871,3.871,0,0,0,1.563-3.273A3.227,3.227,0,0,0,29.7-20a4.732,4.732,0,0,0-3.117-.953,9.618,9.618,0,0,0-2.828.406,12.656,12.656,0,0,0-3.031,1.5L19.411-20.8a10.942,10.942,0,0,1,3.242-1.742,11.784,11.784,0,0,1,3.867-.633,7.9,7.9,0,0,1,5.172,1.523A5.13,5.13,0,0,1,33.536-17.469Zm5.879,1.438a10.476,10.476,0,0,0,.578,3.984,1.946,1.946,0,0,0,1.875,1.328q2.562,0,2.563-5.312,0-5.281-2.562-5.281A1.945,1.945,0,0,0,39.993-20,10.349,10.349,0,0,0,39.415-16.031Zm7.156,0a9.874,9.874,0,0,1-1.2,5.383,3.931,3.931,0,0,1-3.508,1.82,3.836,3.836,0,0,1-3.4-1.859,9.8,9.8,0,0,1-1.211-5.344,9.924,9.924,0,0,1,1.164-5.344,3.841,3.841,0,0,1,3.445-1.8,3.922,3.922,0,0,1,3.484,1.859A9.616,9.616,0,0,1,46.571-16.031Zm6.594,9.156a10.467,10.467,0,0,0,.578,3.992,1.955,1.955,0,0,0,1.891,1.32,2.042,2.042,0,0,0,1.938-1.3A9.737,9.737,0,0,0,58.2-6.875a9.521,9.521,0,0,0-.625-3.961,2.043,2.043,0,0,0-1.937-1.289,1.954,1.954,0,0,0-1.891,1.289A10.215,10.215,0,0,0,53.165-6.875Zm7.172,0a9.838,9.838,0,0,1-1.2,5.367A3.931,3.931,0,0,1,55.634.313,3.826,3.826,0,0,1,52.22-1.547a9.872,9.872,0,0,1-1.2-5.328,9.924,9.924,0,0,1,1.164-5.344,3.841,3.841,0,0,1,3.445-1.8,3.95,3.95,0,0,1,3.461,1.836A9.451,9.451,0,0,1,60.337-6.875ZM56.306-22.844,43.634,0h-2.3L54.009-22.844Z" transform="translate(733.365 123.552)"/>
    <path id="패스_1327" data-name="패스 1327" class="cls-1" d="M17.656-5.25H14.266V0H11.781V-5.25H.672V-7.516L11.516-22.969h2.75V-7.609h3.391ZM11.781-7.609V-15.2q0-2.234.156-5.047h-.125a23.479,23.479,0,0,1-1.406,2.484L3.266-7.609Zm21.754-9.859a5.209,5.209,0,0,1-1.227,3.578,6.141,6.141,0,0,1-3.477,1.859v.125a6.538,6.538,0,0,1,4.078,1.75,5.151,5.151,0,0,1,1.328,3.688,5.982,5.982,0,0,1-2.266,5.023A10.3,10.3,0,0,1,25.536.313a18.657,18.657,0,0,1-3.32-.273,11.363,11.363,0,0,1-2.93-.961V-3.391A14.245,14.245,0,0,0,22.45-2.273a14.329,14.329,0,0,0,3.18.383q5.922,0,5.922-4.641,0-4.156-6.531-4.156H22.77v-2.234h2.281a6.869,6.869,0,0,0,4.234-1.18,3.871,3.871,0,0,0,1.563-3.273A3.227,3.227,0,0,0,29.7-20a4.732,4.732,0,0,0-3.117-.953,9.618,9.618,0,0,0-2.828.406,12.656,12.656,0,0,0-3.031,1.5L19.411-20.8a10.942,10.942,0,0,1,3.242-1.742,11.784,11.784,0,0,1,3.867-.633,7.9,7.9,0,0,1,5.172,1.523A5.13,5.13,0,0,1,33.536-17.469Zm5.879,1.438a10.476,10.476,0,0,0,.578,3.984,1.946,1.946,0,0,0,1.875,1.328q2.562,0,2.563-5.312,0-5.281-2.562-5.281A1.945,1.945,0,0,0,39.993-20,10.349,10.349,0,0,0,39.415-16.031Zm7.156,0a9.874,9.874,0,0,1-1.2,5.383,3.931,3.931,0,0,1-3.508,1.82,3.836,3.836,0,0,1-3.4-1.859,9.8,9.8,0,0,1-1.211-5.344,9.924,9.924,0,0,1,1.164-5.344,3.841,3.841,0,0,1,3.445-1.8,3.922,3.922,0,0,1,3.484,1.859A9.616,9.616,0,0,1,46.571-16.031Zm6.594,9.156a10.467,10.467,0,0,0,.578,3.992,1.955,1.955,0,0,0,1.891,1.32,2.042,2.042,0,0,0,1.938-1.3A9.737,9.737,0,0,0,58.2-6.875a9.521,9.521,0,0,0-.625-3.961,2.043,2.043,0,0,0-1.937-1.289,1.954,1.954,0,0,0-1.891,1.289A10.215,10.215,0,0,0,53.165-6.875Zm7.172,0a9.838,9.838,0,0,1-1.2,5.367A3.931,3.931,0,0,1,55.634.313,3.826,3.826,0,0,1,52.22-1.547a9.872,9.872,0,0,1-1.2-5.328,9.924,9.924,0,0,1,1.164-5.344,3.841,3.841,0,0,1,3.445-1.8,3.95,3.95,0,0,1,3.461,1.836A9.451,9.451,0,0,1,60.337-6.875ZM56.306-22.844,43.634,0h-2.3L54.009-22.844Z" transform="translate(128.857 231.034)"/>
    <g id="그룹_863" data-name="그룹 863" transform="translate(-16.53 75.415)">
      <g id="그룹">
        <path id="패스_1558" data-name="패스 1558" class="cls-10" d="M1.5,0H7.7V-1.185h-4.8v-9.81H1.5Zm9.81.2a4.364,4.364,0,0,0,2.7-1.17h.045l.12.975H15.3V-5.01c0-2.01-.84-3.345-2.82-3.345A6.127,6.127,0,0,0,9.27-7.29l.54.945a4.488,4.488,0,0,1,2.445-.87c1.335,0,1.68,1.005,1.68,2.055-3.465.39-5.01,1.275-5.01,3.045A2.208,2.208,0,0,0,11.31.2ZM11.7-.9c-.81,0-1.44-.375-1.44-1.3,0-1.05.93-1.725,3.675-2.055v2.28A3.329,3.329,0,0,1,11.7-.9Z" transform="translate(16.03 -17.72)"/>
        <path id="패스_1559" data-name="패스 1559" class="cls-10" d="M2.67,0H4.275l1.14-4.365c.21-.78.375-1.545.555-2.37h.075c.2.825.345,1.575.555,2.34L7.785,0h1.65l2.19-8.145h-1.29l-1.2,4.71c-.18.78-.33,1.515-.51,2.28h-.06c-.195-.765-.375-1.5-.57-2.28L6.72-8.145H5.385l-1.26,4.71c-.21.765-.375,1.515-.555,2.28H3.495c-.15-.765-.315-1.5-.48-2.28L1.8-8.145H.405ZM19.9.2a4.848,4.848,0,0,0,2.7-.84l-.495-.9A3.511,3.511,0,0,1,20.07-.9a2.7,2.7,0,0,1-2.7-2.85h5.49a5.329,5.329,0,0,0,.06-.78c0-2.325-1.17-3.825-3.24-3.825C17.79-8.355,16-6.7,16-4.065,16-1.38,17.745.2,19.9.2Zm-2.55-4.92a2.506,2.506,0,0,1,2.34-2.535c1.275,0,2.025.885,2.025,2.535ZM23.58,0h1.44l1.095-1.905c.285-.495.555-.99.84-1.455h.075c.3.465.6.96.87,1.455L29.1,0h1.5L27.915-4.11,30.39-8.145H28.965l-1.005,1.8c-.24.45-.48.9-.735,1.35h-.06c-.27-.45-.555-.9-.81-1.35l-1.095-1.8H23.79l2.475,3.9Zm8.55,3.435h1.365V.675L33.465-.75A3.675,3.675,0,0,0,35.715.2c1.875,0,3.54-1.6,3.54-4.395,0-2.505-1.14-4.155-3.24-4.155a4.343,4.343,0,0,0-2.6,1.14h-.045l-.12-.93H32.13Zm3.36-4.38a3.157,3.157,0,0,1-2-.855V-6.075A3.4,3.4,0,0,1,35.685-7.2c1.545,0,2.145,1.215,2.145,3.015C37.83-2.16,36.84-.945,35.49-.945ZM44.64.2a4.848,4.848,0,0,0,2.7-.84l-.495-.9a3.511,3.511,0,0,1-2.04.645,2.7,2.7,0,0,1-2.7-2.85h5.49a5.328,5.328,0,0,0,.06-.78c0-2.325-1.17-3.825-3.24-3.825-1.89,0-3.675,1.65-3.675,4.29C40.74-1.38,42.48.2,44.64.2Zm-2.55-4.92A2.506,2.506,0,0,1,44.43-7.26c1.275,0,2.025.885,2.025,2.535ZM49.59,0h1.365V-5.235c.54-1.395,1.38-1.875,2.055-1.875a1.927,1.927,0,0,1,.8.135l.255-1.2a1.736,1.736,0,0,0-.87-.18A2.812,2.812,0,0,0,50.88-6.66h-.045l-.12-1.485H49.59Z" transform="translate(32.306 -17.72)"/>
        <path id="패스_1560" data-name="패스 1560" class="cls-10" d="M3.945.2a5.128,5.128,0,0,0,1.5-.3l-.27-1.02a2.886,2.886,0,0,1-.93.21c-.945,0-1.26-.57-1.26-1.575V-7.035h2.2v-1.11h-2.2v-2.28H1.845L1.68-8.145.405-8.07v1.035H1.62V-2.52C1.62-.885,2.2.2,3.945.2Z" transform="translate(87.682 -17.72)"/>
        <path id="패스_1561" data-name="패스 1561" class="cls-10" d="M3.51.2C5.43.2,6.48-.9,6.48-2.22c0-1.545-1.3-2.025-2.49-2.475-.915-.345-1.8-.63-1.8-1.41,0-.63.465-1.17,1.485-1.17a3.065,3.065,0,0,1,1.875.72l.66-.885a4.22,4.22,0,0,0-2.535-.915C1.905-8.355.87-7.335.87-6.045.87-4.665,2.16-4.11,3.3-3.69c.9.345,1.86.72,1.86,1.545,0,.7-.525,1.275-1.605,1.275A3.694,3.694,0,0,1,1.14-1.83l-.675.9A4.913,4.913,0,0,0,3.51.2Z" transform="translate(93.586 -17.72)"/>
      </g>
      <text id="_13_" data-name="13%" class="cls-11" transform="translate(108.779 -16.72)"><tspan x="0" y="0">13%</tspan></text>
    </g>
    <path id="패스_1557" data-name="패스 1557" class="cls-10" d="M5.655.2A4.251,4.251,0,0,0,9.03-1.38l-.765-.87a3.342,3.342,0,0,1-2.55,1.23c-2.1,0-3.42-1.74-3.42-4.515C2.3-8.28,3.675-9.99,5.76-9.99A3,3,0,0,1,8.01-8.94l.75-.9A4.066,4.066,0,0,0,5.745-11.2C2.955-11.2.87-9.045.87-5.49S2.925.2,5.655.2ZM14.04.2c1.995,0,3.78-1.56,3.78-4.26s-1.785-4.29-3.78-4.29-3.78,1.575-3.78,4.29S12.045.2,14.04.2Zm0-1.14c-1.41,0-2.355-1.245-2.355-3.12s.945-3.15,2.355-3.15,2.37,1.275,2.37,3.15S15.45-.945,14.04-.945ZM19.89,0h1.365V-5.91A3.1,3.1,0,0,1,23.49-7.155c1.08,0,1.545.645,1.545,2.175V0H26.4V-5.16c0-2.085-.78-3.195-2.49-3.195a3.906,3.906,0,0,0-2.73,1.38h-.045l-.12-1.17H19.89ZM31.11.2C33.03.2,34.08-.9,34.08-2.22c0-1.545-1.305-2.025-2.49-2.475-.915-.345-1.8-.63-1.8-1.41,0-.63.465-1.17,1.485-1.17a3.065,3.065,0,0,1,1.875.72l.66-.885a4.22,4.22,0,0,0-2.535-.915c-1.77,0-2.805,1.02-2.805,2.31,0,1.38,1.29,1.935,2.43,2.355.9.345,1.86.72,1.86,1.545,0,.7-.525,1.275-1.605,1.275a3.694,3.694,0,0,1-2.415-.96l-.675.9A4.913,4.913,0,0,0,31.11.2Zm7.185,0a3.494,3.494,0,0,0,2.7-1.47h.045L41.145,0h1.14V-8.145H40.92V-2.37c-.78.975-1.365,1.38-2.205,1.38-1.08,0-1.53-.645-1.53-2.16V-8.145H35.82v5.16C35.82-.915,36.585.2,38.295.2Zm6.66-.2H46.32V-5.91a3.008,3.008,0,0,1,2.055-1.245c1.035,0,1.515.645,1.515,2.175V0h1.365V-5.91A3.008,3.008,0,0,1,53.31-7.155c1.035,0,1.515.645,1.515,2.175V0H56.19V-5.16c0-2.085-.8-3.195-2.475-3.195A3.85,3.85,0,0,0,51.03-6.8a2.148,2.148,0,0,0-2.25-1.56A3.579,3.579,0,0,0,46.245-6.96H46.2l-.12-1.185H44.955Zm17.1.2a4.848,4.848,0,0,0,2.7-.84l-.495-.9A3.511,3.511,0,0,1,62.22-.9a2.7,2.7,0,0,1-2.7-2.85h5.49a5.329,5.329,0,0,0,.06-.78c0-2.325-1.17-3.825-3.24-3.825-1.89,0-3.675,1.65-3.675,4.29C58.155-1.38,59.9.2,62.055.2Zm-2.55-4.92a2.506,2.506,0,0,1,2.34-2.535c1.275,0,2.025.885,2.025,2.535ZM67,0H68.37V-5.235c.54-1.395,1.38-1.875,2.055-1.875a1.927,1.927,0,0,1,.795.135l.255-1.2a1.736,1.736,0,0,0-.87-.18,2.812,2.812,0,0,0-2.31,1.695H68.25l-.12-1.485H67ZM78.78,3.75c2.52,0,4.11-1.305,4.11-2.82C82.89-.405,81.945-1,80.055-1h-1.59c-1.1,0-1.425-.36-1.425-.885a1.213,1.213,0,0,1,.525-.975,2.833,2.833,0,0,0,1.215.285,2.793,2.793,0,0,0,2.97-2.835,2.326,2.326,0,0,0-.66-1.68h1.665v-1.05H79.92a3.36,3.36,0,0,0-1.14-.21,2.9,2.9,0,0,0-3.06,2.91,2.859,2.859,0,0,0,1.065,2.19v.06A1.987,1.987,0,0,0,75.87-1.68a1.473,1.473,0,0,0,.75,1.335v.06A2.305,2.305,0,0,0,75.4,1.56C75.4,2.97,76.785,3.75,78.78,3.75Zm0-7.26a1.785,1.785,0,0,1-1.74-1.935A1.742,1.742,0,0,1,78.78-7.35,1.739,1.739,0,0,1,80.5-5.445,1.783,1.783,0,0,1,78.78-3.51Zm.195,6.33c-1.485,0-2.37-.57-2.37-1.44A1.718,1.718,0,0,1,77.445,0a4.581,4.581,0,0,0,1.05.135H79.9c1.08,0,1.665.255,1.665,1C81.57,2,80.535,2.82,78.975,2.82ZM87.345.2c2,0,3.78-1.56,3.78-4.26s-1.785-4.29-3.78-4.29-3.78,1.575-3.78,4.29S85.35.2,87.345.2Zm0-1.14c-1.41,0-2.355-1.245-2.355-3.12s.945-3.15,2.355-3.15,2.37,1.275,2.37,3.15S88.755-.945,87.345-.945ZM96.36.2c2,0,3.78-1.56,3.78-4.26s-1.785-4.29-3.78-4.29-3.78,1.575-3.78,4.29S94.365.2,96.36.2Zm0-1.14c-1.41,0-2.355-1.245-2.355-3.12s.945-3.15,2.355-3.15,2.37,1.275,2.37,3.15S97.77-.945,96.36-.945ZM104.985.2A3.633,3.633,0,0,0,107.46-.96h.03l.135.96h1.11V-11.94H107.37v3.135l.075,1.41a3.314,3.314,0,0,0-2.295-.96c-1.86,0-3.525,1.65-3.525,4.29C101.625-1.35,102.945.2,104.985.2Zm.3-1.14c-1.44,0-2.25-1.17-2.25-3.135,0-1.86,1.035-3.12,2.355-3.12a2.859,2.859,0,0,1,1.98.855V-2.07A2.8,2.8,0,0,1,105.285-.945ZM113.565.2c1.92,0,2.97-1.095,2.97-2.415,0-1.545-1.305-2.025-2.49-2.475-.915-.345-1.8-.63-1.8-1.41,0-.63.465-1.17,1.485-1.17a3.065,3.065,0,0,1,1.875.72l.66-.885a4.22,4.22,0,0,0-2.535-.915c-1.77,0-2.805,1.02-2.805,2.31,0,1.38,1.29,1.935,2.43,2.355.9.345,1.86.72,1.86,1.545,0,.7-.525,1.275-1.605,1.275a3.694,3.694,0,0,1-2.415-.96l-.675.9A4.913,4.913,0,0,0,113.565.2Zm9.975,0a4.364,4.364,0,0,0,2.7-1.17h.045l.12.975h1.125V-5.01c0-2.01-.84-3.345-2.82-3.345A6.127,6.127,0,0,0,121.5-7.29l.54.945a4.488,4.488,0,0,1,2.445-.87c1.335,0,1.68,1.005,1.68,2.055-3.465.39-5.01,1.275-5.01,3.045A2.208,2.208,0,0,0,123.54.2ZM123.93-.9c-.81,0-1.44-.375-1.44-1.3,0-1.05.93-1.725,3.675-2.055v2.28A3.329,3.329,0,0,1,123.93-.9Zm6.12.9h1.365V-5.91a3.1,3.1,0,0,1,2.235-1.245c1.08,0,1.545.645,1.545,2.175V0h1.365V-5.16c0-2.085-.78-3.195-2.49-3.195a3.906,3.906,0,0,0-2.73,1.38h-.045l-.12-1.17H130.05Zm11.865.2A3.633,3.633,0,0,0,144.39-.96h.03l.135.96h1.11V-11.94H144.3v3.135l.075,1.41a3.314,3.314,0,0,0-2.3-.96c-1.86,0-3.525,1.65-3.525,4.29C138.555-1.35,139.875.2,141.915.2Zm.3-1.14c-1.44,0-2.25-1.17-2.25-3.135,0-1.86,1.035-3.12,2.355-3.12a2.859,2.859,0,0,1,1.98.855V-2.07A2.8,2.8,0,0,1,142.215-.945ZM1.5,22H2.895V16.81h5.13V22H9.4V11.005H8.025V15.61H2.895V11.005H1.5Zm13.89.195c1.995,0,3.78-1.56,3.78-4.26s-1.785-4.29-3.78-4.29-3.78,1.575-3.78,4.29S13.4,22.195,15.39,22.195Zm0-1.14c-1.41,0-2.355-1.245-2.355-3.12s.945-3.15,2.355-3.15,2.37,1.275,2.37,3.15S16.8,21.055,15.39,21.055ZM21.24,22H22.6V16.09a3.008,3.008,0,0,1,2.055-1.245c1.035,0,1.515.645,1.515,2.175V22H27.54V16.09A3.008,3.008,0,0,1,29.6,14.845c1.035,0,1.515.645,1.515,2.175V22h1.365V16.84c0-2.085-.8-3.195-2.475-3.195a3.85,3.85,0,0,0-2.685,1.56,2.148,2.148,0,0,0-2.25-1.56A3.579,3.579,0,0,0,22.53,15.04h-.045l-.12-1.185H21.24Zm17.1.195a4.848,4.848,0,0,0,2.7-.84l-.5-.9a3.511,3.511,0,0,1-2.04.645,2.7,2.7,0,0,1-2.7-2.85h5.49a5.329,5.329,0,0,0,.06-.78c0-2.325-1.17-3.825-3.24-3.825-1.89,0-3.675,1.65-3.675,4.29C34.44,20.62,36.18,22.195,38.34,22.195Zm-2.55-4.92a2.506,2.506,0,0,1,2.34-2.535c1.275,0,2.025.885,2.025,2.535Zm12.27.255.54-1.68c.39-1.245.75-2.43,1.1-3.72h.06c.36,1.275.7,2.475,1.11,3.72l.525,1.68ZM52.785,22h1.47L50.52,11.005H48.975L45.24,22h1.41l1.065-3.36h4.02Zm2.82,3.435H56.97v-2.76l-.03-1.425a3.675,3.675,0,0,0,2.25.945c1.875,0,3.54-1.6,3.54-4.4,0-2.5-1.14-4.155-3.24-4.155a4.343,4.343,0,0,0-2.6,1.14H56.85l-.12-.93H55.6Zm3.36-4.38a3.157,3.157,0,0,1-2-.855V15.925A3.4,3.4,0,0,1,59.16,14.8c1.545,0,2.145,1.215,2.145,3.015C61.305,19.84,60.315,21.055,58.965,21.055Zm5.865,4.38h1.365v-2.76l-.03-1.425a3.675,3.675,0,0,0,2.25.945c1.875,0,3.54-1.6,3.54-4.4,0-2.5-1.14-4.155-3.24-4.155a4.343,4.343,0,0,0-2.6,1.14h-.045l-.12-.93H64.83Zm3.36-4.38a3.157,3.157,0,0,1-2-.855V15.925a3.4,3.4,0,0,1,2.19-1.125c1.545,0,2.145,1.215,2.145,3.015C70.53,19.84,69.54,21.055,68.19,21.055Zm7.305,1.14a2.157,2.157,0,0,0,.795-.12l-.195-1.05a1.2,1.2,0,0,1-.285.03c-.21,0-.39-.165-.39-.585V10.06H74.055V20.38C74.055,21.535,74.475,22.195,75.5,22.195ZM78.255,22H79.62V13.855H78.255Zm.69-9.825a.892.892,0,0,0,.945-.885.947.947,0,0,0-1.89,0A.892.892,0,0,0,78.945,12.175Zm5.235,10.02a4.364,4.364,0,0,0,2.7-1.17h.045l.12.975H88.17V16.99c0-2.01-.84-3.345-2.82-3.345a6.127,6.127,0,0,0-3.21,1.065l.54.945a4.488,4.488,0,0,1,2.445-.87c1.335,0,1.68,1.005,1.68,2.055-3.465.39-5.01,1.275-5.01,3.045A2.208,2.208,0,0,0,84.18,22.195Zm.39-1.095c-.81,0-1.44-.375-1.44-1.305,0-1.05.93-1.725,3.675-2.055v2.28A3.329,3.329,0,0,1,84.57,21.1Zm6.12.9h1.365V16.09a3.1,3.1,0,0,1,2.235-1.245c1.08,0,1.545.645,1.545,2.175V22H97.2V16.84c0-2.085-.78-3.195-2.49-3.195a3.906,3.906,0,0,0-2.73,1.38h-.045l-.12-1.17H90.69Zm12.3.195a3.884,3.884,0,0,0,2.625-1.035l-.585-.915a2.872,2.872,0,0,1-1.92.81c-1.5,0-2.52-1.245-2.52-3.12s1.08-3.15,2.55-3.15a2.365,2.365,0,0,1,1.635.735l.705-.915a3.482,3.482,0,0,0-2.385-.96,3.966,3.966,0,0,0-3.93,4.29C99.165,20.635,100.83,22.195,102.99,22.195Zm7.275,0a4.848,4.848,0,0,0,2.7-.84l-.495-.9a3.511,3.511,0,0,1-2.04.645,2.7,2.7,0,0,1-2.7-2.85h5.49a5.329,5.329,0,0,0,.06-.78c0-2.325-1.17-3.825-3.24-3.825-1.89,0-3.675,1.65-3.675,4.29C106.365,20.62,108.1,22.195,110.265,22.195Zm-2.55-4.92a2.506,2.506,0,0,1,2.34-2.535c1.275,0,2.025.885,2.025,2.535Zm9.63,4.92c1.92,0,2.97-1.095,2.97-2.415,0-1.545-1.305-2.025-2.49-2.475-.915-.345-1.8-.63-1.8-1.41,0-.63.465-1.17,1.485-1.17a3.065,3.065,0,0,1,1.875.72l.66-.885a4.22,4.22,0,0,0-2.535-.915c-1.77,0-2.805,1.02-2.805,2.31,0,1.38,1.29,1.935,2.43,2.355.9.345,1.86.72,1.86,1.545,0,.7-.525,1.275-1.605,1.275a3.694,3.694,0,0,1-2.415-.96l-.675.9A4.913,4.913,0,0,0,117.345,22.195ZM1.38,44H2.745V35.855H1.38Zm.69-9.825a.892.892,0,0,0,.945-.885A.867.867,0,0,0,2.07,32.4a.867.867,0,0,0-.945.885A.892.892,0,0,0,2.07,34.175ZM5.43,44H6.8V38.09A3.1,3.1,0,0,1,9.03,36.845c1.08,0,1.545.645,1.545,2.175V44H11.94V38.84c0-2.085-.78-3.195-2.49-3.195a3.906,3.906,0,0,0-2.73,1.38H6.675l-.12-1.17H5.43Zm11.865.195A3.633,3.633,0,0,0,19.77,43.04h.03l.135.96h1.11V32.06H19.68v3.135l.075,1.41a3.314,3.314,0,0,0-2.3-.96c-1.86,0-3.525,1.65-3.525,4.29C13.935,42.65,15.255,44.195,17.3,44.195Zm.3-1.14c-1.44,0-2.25-1.17-2.25-3.135,0-1.86,1.035-3.12,2.355-3.12a2.859,2.859,0,0,1,1.98.855V41.93A2.8,2.8,0,0,1,17.6,43.055Zm8.52,1.14a3.494,3.494,0,0,0,2.7-1.47h.045l.1,1.275H30.1V35.855H28.74V41.63c-.78.975-1.365,1.38-2.2,1.38-1.08,0-1.53-.645-1.53-2.16V35.855H23.64v5.16C23.64,43.085,24.405,44.195,26.115,44.195Zm8.79,0c1.92,0,2.97-1.1,2.97-2.415,0-1.545-1.305-2.025-2.49-2.475-.915-.345-1.8-.63-1.8-1.41,0-.63.465-1.17,1.485-1.17a3.065,3.065,0,0,1,1.875.72l.66-.885a4.22,4.22,0,0,0-2.535-.915c-1.77,0-2.805,1.02-2.805,2.31,0,1.38,1.29,1.935,2.43,2.355.9.345,1.86.72,1.86,1.545,0,.705-.525,1.275-1.6,1.275a3.694,3.694,0,0,1-2.415-.96l-.675.9A4.913,4.913,0,0,0,34.9,44.195Zm7.05,0a5.128,5.128,0,0,0,1.5-.3l-.27-1.02a2.886,2.886,0,0,1-.93.21c-.945,0-1.26-.57-1.26-1.575V36.965h2.2v-1.11h-2.2v-2.28h-1.14l-.165,2.28-1.275.075v1.035H39.63V41.48C39.63,43.115,40.215,44.195,41.955,44.195ZM44.97,44h1.365V38.765c.54-1.4,1.38-1.875,2.055-1.875a1.927,1.927,0,0,1,.8.135l.255-1.2a1.736,1.736,0,0,0-.87-.18,2.812,2.812,0,0,0-2.31,1.695h-.045l-.12-1.485H44.97Zm6.315,3.51c1.62,0,2.46-1.23,3.03-2.835l3.075-8.82H56.055L54.6,40.385c-.225.72-.465,1.545-.69,2.28h-.075c-.255-.735-.54-1.575-.78-2.28l-1.665-4.53H49.965l3.27,8.16-.18.615c-.33,1-.915,1.755-1.845,1.755a1.946,1.946,0,0,1-.615-.135l-.27,1.1A2.508,2.508,0,0,0,51.285,47.51ZM65.46,44.195a4.848,4.848,0,0,0,2.7-.84l-.495-.9a3.511,3.511,0,0,1-2.04.645,2.7,2.7,0,0,1-2.7-2.85h5.49a5.329,5.329,0,0,0,.06-.78c0-2.325-1.17-3.825-3.24-3.825-1.89,0-3.675,1.65-3.675,4.29C61.56,42.62,63.3,44.195,65.46,44.195Zm-2.55-4.92a2.506,2.506,0,0,1,2.34-2.535c1.275,0,2.025.885,2.025,2.535ZM69.135,44h1.44l1.1-1.9c.285-.5.555-.99.84-1.455h.075c.3.465.6.96.87,1.455l1.2,1.9h1.5L73.47,39.89l2.475-4.035H74.52l-1,1.8c-.24.45-.48.9-.735,1.35h-.06c-.27-.45-.555-.9-.81-1.35l-1.1-1.8h-1.47l2.475,3.9Zm8.55,3.435H79.05v-2.76l-.03-1.425a3.675,3.675,0,0,0,2.25.945c1.875,0,3.54-1.6,3.54-4.4,0-2.505-1.14-4.155-3.24-4.155a4.343,4.343,0,0,0-2.6,1.14H78.93l-.12-.93H77.685Zm3.36-4.38A3.157,3.157,0,0,1,79.05,42.2V37.925A3.4,3.4,0,0,1,81.24,36.8c1.545,0,2.145,1.215,2.145,3.015C83.385,41.84,82.395,43.055,81.045,43.055Zm9.15,1.14a4.848,4.848,0,0,0,2.7-.84l-.495-.9a3.511,3.511,0,0,1-2.04.645,2.7,2.7,0,0,1-2.7-2.85h5.49a5.329,5.329,0,0,0,.06-.78c0-2.325-1.17-3.825-3.24-3.825-1.89,0-3.675,1.65-3.675,4.29C86.295,42.62,88.035,44.195,90.195,44.195Zm-2.55-4.92a2.506,2.506,0,0,1,2.34-2.535c1.275,0,2.025.885,2.025,2.535ZM95.145,44H96.51V38.765c.54-1.4,1.38-1.875,2.055-1.875a1.927,1.927,0,0,1,.795.135l.255-1.2a1.736,1.736,0,0,0-.87-.18,2.812,2.812,0,0,0-2.31,1.695H96.39l-.12-1.485H95.145Zm8.31.195a5.128,5.128,0,0,0,1.5-.3l-.27-1.02a2.886,2.886,0,0,1-.93.21c-.945,0-1.26-.57-1.26-1.575V36.965H104.7v-1.11H102.5v-2.28h-1.14l-.165,2.28-1.275.075v1.035h1.215V41.48C101.13,43.115,101.715,44.195,103.455,44.195Zm4.98,0c1.92,0,2.97-1.1,2.97-2.415,0-1.545-1.305-2.025-2.49-2.475-.915-.345-1.8-.63-1.8-1.41,0-.63.465-1.17,1.485-1.17a3.065,3.065,0,0,1,1.875.72l.66-.885a4.22,4.22,0,0,0-2.535-.915c-1.77,0-2.805,1.02-2.805,2.31,0,1.38,1.29,1.935,2.43,2.355.9.345,1.86.72,1.86,1.545,0,.705-.525,1.275-1.605,1.275a3.694,3.694,0,0,1-2.415-.96l-.675.9A4.913,4.913,0,0,0,108.435,44.195Z" transform="translate(572.777 111.695)"/>
    <path id="패스_1562" data-name="패스 1562" class="cls-10" d="M1.5,0H8.01V-1.185H2.895v-4h4.17V-6.375H2.895v-3.45h4.95v-1.17H1.5ZM13.17.2A3.884,3.884,0,0,0,15.8-.84l-.585-.915a2.872,2.872,0,0,1-1.92.81c-1.5,0-2.52-1.245-2.52-3.12s1.08-3.15,2.55-3.15a2.365,2.365,0,0,1,1.635.735l.7-.915a3.482,3.482,0,0,0-2.385-.96,3.965,3.965,0,0,0-3.93,4.29C9.345-1.365,11.01.2,13.17.2Zm7.155,0c1.995,0,3.78-1.56,3.78-4.26s-1.785-4.29-3.78-4.29-3.78,1.575-3.78,4.29S18.33.2,20.325.2Zm0-1.14c-1.41,0-2.355-1.245-2.355-3.12s.945-3.15,2.355-3.15,2.37,1.275,2.37,3.15S21.735-.945,20.325-.945ZM26.175,0H27.54V-5.91a3.1,3.1,0,0,1,2.235-1.245c1.08,0,1.545.645,1.545,2.175V0h1.365V-5.16c0-2.085-.78-3.195-2.49-3.195a3.906,3.906,0,0,0-2.73,1.38H27.42l-.12-1.17H26.175ZM38.43.2c1.995,0,3.78-1.56,3.78-4.26s-1.785-4.29-3.78-4.29-3.78,1.575-3.78,4.29S36.435.2,38.43.2Zm0-1.14c-1.41,0-2.355-1.245-2.355-3.12s.945-3.15,2.355-3.15S40.8-5.94,40.8-4.065,39.84-.945,38.43-.945ZM44.28,0h1.365V-5.91A3.008,3.008,0,0,1,47.7-7.155c1.035,0,1.515.645,1.515,2.175V0H50.58V-5.91a3.008,3.008,0,0,1,2.055-1.245c1.035,0,1.515.645,1.515,2.175V0h1.365V-5.16c0-2.085-.8-3.195-2.475-3.195A3.85,3.85,0,0,0,50.355-6.8a2.148,2.148,0,0,0-2.25-1.56A3.579,3.579,0,0,0,45.57-6.96h-.045l-.12-1.185H44.28ZM58.1,0H59.46V-8.145H58.1Zm.69-9.825a.892.892,0,0,0,.945-.885.867.867,0,0,0-.945-.885.867.867,0,0,0-.945.885A.892.892,0,0,0,58.785-9.825ZM65.355.2A3.884,3.884,0,0,0,67.98-.84l-.585-.915a2.872,2.872,0,0,1-1.92.81c-1.5,0-2.52-1.245-2.52-3.12s1.08-3.15,2.55-3.15a2.365,2.365,0,0,1,1.635.735l.705-.915a3.482,3.482,0,0,0-2.385-.96,3.966,3.966,0,0,0-3.93,4.29C61.53-1.365,63.195.2,65.355.2Zm6.48,0c1.92,0,2.97-1.095,2.97-2.415,0-1.545-1.305-2.025-2.49-2.475-.915-.345-1.8-.63-1.8-1.41,0-.63.465-1.17,1.485-1.17a3.065,3.065,0,0,1,1.875.72l.66-.885A4.22,4.22,0,0,0,72-8.355c-1.77,0-2.805,1.02-2.805,2.31,0,1.38,1.29,1.935,2.43,2.355.9.345,1.86.72,1.86,1.545,0,.7-.525,1.275-1.605,1.275a3.694,3.694,0,0,1-2.415-.96l-.675.9A4.913,4.913,0,0,0,71.835.2Zm4.56,2.655a3.338,3.338,0,0,0,2.19-3.135c0-1.005-.435-1.62-1.155-1.62a.975.975,0,0,0-1.035.96.94.94,0,0,0,1,.96A.615.615,0,0,0,77.565,0a2.249,2.249,0,0,1-1.5,2.04ZM1.5,22H2.76V15.91c0-.945-.105-2.28-.165-3.24h.06l.87,2.5L5.61,20.89h.93l2.085-5.715.87-2.5h.06c-.075.96-.18,2.3-.18,3.24V22H10.68V11.005H9l-2.1,5.88c-.255.765-.5,1.53-.75,2.3H6.075c-.27-.765-.525-1.53-.78-2.3L3.18,11.005H1.5Zm13.86.195a4.364,4.364,0,0,0,2.7-1.17H18.1l.12.975H19.35V16.99c0-2.01-.84-3.345-2.82-3.345a6.127,6.127,0,0,0-3.21,1.065l.54.945a4.488,4.488,0,0,1,2.445-.87c1.335,0,1.68,1.005,1.68,2.055-3.465.39-5.01,1.275-5.01,3.045A2.208,2.208,0,0,0,15.36,22.195Zm.39-1.095c-.81,0-1.44-.375-1.44-1.305,0-1.05.93-1.725,3.675-2.055v2.28A3.329,3.329,0,0,1,15.75,21.1Zm6.12.9h1.365V16.09a3.1,3.1,0,0,1,2.235-1.245c1.08,0,1.545.645,1.545,2.175V22H28.38V16.84c0-2.085-.78-3.195-2.49-3.195a3.906,3.906,0,0,0-2.73,1.38h-.045l-.12-1.17H21.87Zm10.965.195a4.364,4.364,0,0,0,2.7-1.17h.045L35.7,22h1.125V16.99c0-2.01-.84-3.345-2.82-3.345A6.127,6.127,0,0,0,30.8,14.71l.54.945a4.488,4.488,0,0,1,2.445-.87c1.335,0,1.68,1.005,1.68,2.055-3.465.39-5.01,1.275-5.01,3.045A2.208,2.208,0,0,0,32.835,22.195Zm.39-1.095c-.81,0-1.44-.375-1.44-1.305,0-1.05.93-1.725,3.675-2.055v2.28A3.329,3.329,0,0,1,33.225,21.1Zm8.865,4.65c2.52,0,4.11-1.305,4.11-2.82,0-1.335-.945-1.935-2.835-1.935h-1.59c-1.1,0-1.425-.36-1.425-.885a1.213,1.213,0,0,1,.525-.975,2.833,2.833,0,0,0,1.215.285,2.793,2.793,0,0,0,2.97-2.835,2.326,2.326,0,0,0-.66-1.68h1.665v-1.05H43.23a3.36,3.36,0,0,0-1.14-.21,2.9,2.9,0,0,0-3.06,2.91,2.859,2.859,0,0,0,1.065,2.19v.06a1.987,1.987,0,0,0-.915,1.515,1.473,1.473,0,0,0,.75,1.335v.06a2.305,2.305,0,0,0-1.215,1.845C38.715,24.97,40.1,25.75,42.09,25.75Zm0-7.26a1.785,1.785,0,0,1-1.74-1.935,1.74,1.74,0,1,1,3.465,0A1.783,1.783,0,0,1,42.09,18.49Zm.195,6.33c-1.485,0-2.37-.57-2.37-1.44a1.718,1.718,0,0,1,.84-1.38,4.581,4.581,0,0,0,1.05.135h1.41c1.08,0,1.665.255,1.665,1C44.88,24,43.845,24.82,42.285,24.82Zm8.49-2.625a4.848,4.848,0,0,0,2.7-.84l-.495-.9a3.511,3.511,0,0,1-2.04.645,2.7,2.7,0,0,1-2.7-2.85h5.49a5.328,5.328,0,0,0,.06-.78c0-2.325-1.17-3.825-3.24-3.825-1.89,0-3.675,1.65-3.675,4.29C46.875,20.62,48.615,22.195,50.775,22.195Zm-2.55-4.92a2.506,2.506,0,0,1,2.34-2.535c1.275,0,2.025.885,2.025,2.535ZM55.725,22H57.09V16.09a3.008,3.008,0,0,1,2.055-1.245c1.035,0,1.515.645,1.515,2.175V22h1.365V16.09a3.008,3.008,0,0,1,2.055-1.245c1.035,0,1.515.645,1.515,2.175V22H66.96V16.84c0-2.085-.795-3.195-2.475-3.195A3.85,3.85,0,0,0,61.8,15.2a2.148,2.148,0,0,0-2.25-1.56,3.579,3.579,0,0,0-2.535,1.395H56.97l-.12-1.185H55.725Zm17.1.195a4.848,4.848,0,0,0,2.7-.84l-.495-.9a3.511,3.511,0,0,1-2.04.645,2.7,2.7,0,0,1-2.7-2.85h5.49a5.329,5.329,0,0,0,.06-.78c0-2.325-1.17-3.825-3.24-3.825-1.89,0-3.675,1.65-3.675,4.29C68.925,20.62,70.665,22.195,72.825,22.195Zm-2.55-4.92a2.506,2.506,0,0,1,2.34-2.535c1.275,0,2.025.885,2.025,2.535ZM77.775,22H79.14V16.09a3.1,3.1,0,0,1,2.235-1.245c1.08,0,1.545.645,1.545,2.175V22h1.365V16.84c0-2.085-.78-3.195-2.49-3.195a3.906,3.906,0,0,0-2.73,1.38H79.02l-.12-1.17H77.775Zm11.655.195a5.128,5.128,0,0,0,1.5-.3l-.27-1.02a2.886,2.886,0,0,1-.93.21c-.945,0-1.26-.57-1.26-1.575V14.965h2.205v-1.11H88.47v-2.28H87.33l-.165,2.28-1.275.075v1.035h1.215V19.48C87.105,21.115,87.69,22.195,89.43,22.195Zm2.865,2.655a3.338,3.338,0,0,0,2.19-3.135c0-1.005-.435-1.62-1.155-1.62a.975.975,0,0,0-1.035.96.94.94,0,0,0,1,.96A.615.615,0,0,0,93.465,22a2.249,2.249,0,0,1-1.5,2.04ZM2.865,39.53l.54-1.68c.39-1.245.75-2.43,1.1-3.72h.06c.36,1.275.705,2.475,1.11,3.72l.525,1.68ZM7.59,44H9.06L5.325,33.005H3.78L.045,44h1.41L2.52,40.64H6.54Zm6.03.195a3.884,3.884,0,0,0,2.625-1.035l-.585-.915a2.872,2.872,0,0,1-1.92.81c-1.5,0-2.52-1.245-2.52-3.12s1.08-3.15,2.55-3.15a2.364,2.364,0,0,1,1.635.735l.705-.915a3.482,3.482,0,0,0-2.385-.96,3.966,3.966,0,0,0-3.93,4.29C9.8,42.635,11.46,44.195,13.62,44.195Zm7.2,0a3.884,3.884,0,0,0,2.625-1.035l-.585-.915a2.872,2.872,0,0,1-1.92.81c-1.5,0-2.52-1.245-2.52-3.12s1.08-3.15,2.55-3.15a2.364,2.364,0,0,1,1.635.735l.7-.915a3.482,3.482,0,0,0-2.385-.96,3.966,3.966,0,0,0-3.93,4.29C16.995,42.635,18.66,44.195,20.82,44.195Zm7.155,0c2,0,3.78-1.56,3.78-4.26,0-2.715-1.785-4.29-3.78-4.29s-3.78,1.575-3.78,4.29C24.195,42.635,25.98,44.195,27.975,44.195Zm0-1.14c-1.41,0-2.355-1.245-2.355-3.12s.945-3.15,2.355-3.15,2.37,1.275,2.37,3.15S29.385,43.055,27.975,43.055Zm8.22,1.14a3.494,3.494,0,0,0,2.7-1.47h.045l.1,1.275h1.14V35.855H38.82V41.63c-.78.975-1.365,1.38-2.205,1.38-1.08,0-1.53-.645-1.53-2.16V35.855H33.72v5.16C33.72,43.085,34.485,44.195,36.195,44.195ZM42.855,44H44.22V38.09a3.1,3.1,0,0,1,2.235-1.245c1.08,0,1.545.645,1.545,2.175V44h1.365V38.84c0-2.085-.78-3.195-2.49-3.195a3.906,3.906,0,0,0-2.73,1.38H44.1l-.12-1.17H42.855Zm11.655.195a5.128,5.128,0,0,0,1.5-.3l-.27-1.02a2.886,2.886,0,0,1-.93.21c-.945,0-1.26-.57-1.26-1.575V36.965h2.2v-1.11h-2.2v-2.28H52.41l-.165,2.28-1.275.075v1.035h1.215V41.48C52.185,43.115,52.77,44.195,54.51,44.195ZM57.525,44H58.89V35.855H57.525Zm.69-9.825a.892.892,0,0,0,.945-.885.947.947,0,0,0-1.89,0A.892.892,0,0,0,58.215,34.175ZM61.575,44H62.94V38.09a3.1,3.1,0,0,1,2.235-1.245c1.08,0,1.545.645,1.545,2.175V44h1.365V38.84c0-2.085-.78-3.195-2.49-3.195a3.906,3.906,0,0,0-2.73,1.38H62.82l-.12-1.17H61.575ZM73.41,47.75c2.52,0,4.11-1.305,4.11-2.82,0-1.335-.945-1.935-2.835-1.935H73.1c-1.1,0-1.425-.36-1.425-.885a1.213,1.213,0,0,1,.525-.975,2.833,2.833,0,0,0,1.215.285,2.793,2.793,0,0,0,2.97-2.835,2.326,2.326,0,0,0-.66-1.68h1.665v-1.05H74.55a3.36,3.36,0,0,0-1.14-.21,2.9,2.9,0,0,0-3.06,2.91,2.859,2.859,0,0,0,1.065,2.19v.06A1.987,1.987,0,0,0,70.5,42.32a1.473,1.473,0,0,0,.75,1.335v.06a2.305,2.305,0,0,0-1.215,1.845C70.035,46.97,71.415,47.75,73.41,47.75Zm0-7.26a1.785,1.785,0,0,1-1.74-1.935,1.74,1.74,0,1,1,3.465,0A1.783,1.783,0,0,1,73.41,40.49Zm.195,6.33c-1.485,0-2.37-.57-2.37-1.44a1.718,1.718,0,0,1,.84-1.38,4.581,4.581,0,0,0,1.05.135h1.41c1.08,0,1.665.255,1.665,1.005C76.2,45.995,75.165,46.82,73.605,46.82Zm12-2.625a4.848,4.848,0,0,0,2.7-.84l-.495-.9a3.511,3.511,0,0,1-2.04.645,2.7,2.7,0,0,1-2.7-2.85h5.49a5.329,5.329,0,0,0,.06-.78c0-2.325-1.17-3.825-3.24-3.825-1.89,0-3.675,1.65-3.675,4.29C81.705,42.62,83.445,44.195,85.605,44.195Zm-2.55-4.92A2.506,2.506,0,0,1,85.4,36.74c1.275,0,2.025.885,2.025,2.535ZM89.28,44h1.44l1.1-1.9c.285-.5.555-.99.84-1.455h.075c.3.465.6.96.87,1.455L94.8,44h1.5l-2.685-4.11,2.475-4.035H94.665l-1,1.8c-.24.45-.48.9-.735,1.35h-.06c-.27-.45-.555-.9-.81-1.35l-1.1-1.8H89.49l2.475,3.9Zm8.55,3.435h1.365v-2.76l-.03-1.425a3.675,3.675,0,0,0,2.25.945c1.875,0,3.54-1.6,3.54-4.4,0-2.505-1.14-4.155-3.24-4.155a4.343,4.343,0,0,0-2.6,1.14h-.045l-.12-.93H97.83Zm3.36-4.38a3.157,3.157,0,0,1-1.995-.855V37.925a3.4,3.4,0,0,1,2.19-1.125c1.545,0,2.145,1.215,2.145,3.015C103.53,41.84,102.54,43.055,101.19,43.055Zm9.15,1.14a4.848,4.848,0,0,0,2.7-.84l-.495-.9a3.511,3.511,0,0,1-2.04.645,2.7,2.7,0,0,1-2.7-2.85h5.49a5.329,5.329,0,0,0,.06-.78c0-2.325-1.17-3.825-3.24-3.825-1.89,0-3.675,1.65-3.675,4.29C106.44,42.62,108.18,44.195,110.34,44.195Zm-2.55-4.92a2.506,2.506,0,0,1,2.34-2.535c1.275,0,2.025.885,2.025,2.535ZM115.29,44h1.365V38.765c.54-1.4,1.38-1.875,2.055-1.875a1.927,1.927,0,0,1,.795.135l.255-1.2a1.736,1.736,0,0,0-.87-.18,2.812,2.812,0,0,0-2.31,1.695h-.045l-.12-1.485H115.29Zm8.31.195a5.128,5.128,0,0,0,1.5-.3l-.27-1.02a2.886,2.886,0,0,1-.93.21c-.945,0-1.26-.57-1.26-1.575V36.965h2.205v-1.11H122.64v-2.28H121.5l-.165,2.28-1.275.075v1.035h1.215V41.48C121.275,43.115,121.86,44.195,123.6,44.195Zm4.98,0c1.92,0,2.97-1.1,2.97-2.415,0-1.545-1.305-2.025-2.49-2.475-.915-.345-1.8-.63-1.8-1.41,0-.63.465-1.17,1.485-1.17a3.065,3.065,0,0,1,1.875.72l.66-.885a4.22,4.22,0,0,0-2.535-.915c-1.77,0-2.8,1.02-2.8,2.31,0,1.38,1.29,1.935,2.43,2.355.9.345,1.86.72,1.86,1.545,0,.705-.525,1.275-1.6,1.275a3.694,3.694,0,0,1-2.415-.96l-.675.9A4.913,4.913,0,0,0,128.58,44.195Z" transform="translate(1.777 217.695)"/>
    <g id="그룹-2" data-name="그룹" transform="translate(307.5 188.206)">
      <path id="패스_1544" data-name="패스 1544" class="cls-12" d="M1.649,0H9.231V-1.666H3.621V-5.712h4.59V-7.378H3.621v-3.485H9.044v-1.649H1.649Z" transform="translate(27.975 -68.661)"/>
      <path id="패스_1545" data-name="패스 1545" class="cls-12" d="M.255,0H2.312L3.4-1.972c.289-.578.578-1.139.867-1.666h.085c.34.527.663,1.105.969,1.666L6.545,0H8.67L5.661-4.658l2.8-4.692H6.426L5.44-7.463c-.255.51-.527,1.037-.782,1.564H4.59c-.306-.527-.612-1.054-.884-1.564L2.584-9.35H.476L3.281-4.879ZM10.336,3.791h1.938V.765l-.051-1.6A3.856,3.856,0,0,0,14.688.221c2.108,0,4.029-1.836,4.029-5.049,0-2.873-1.326-4.76-3.706-4.76A4.74,4.74,0,0,0,12.138-8.33h-.051l-.153-1.02h-1.6Zm3.978-5.185a3.169,3.169,0,0,1-2.04-.85V-6.817A3.285,3.285,0,0,1,14.5-7.956c1.564,0,2.193,1.207,2.193,3.162C16.694-2.6,15.674-1.394,14.314-1.394ZM24.854.221a5.672,5.672,0,0,0,3.162-.986l-.68-1.241a3.97,3.97,0,0,1-2.227.7,2.824,2.824,0,0,1-2.89-2.856h6.069a5.053,5.053,0,0,0,.085-.986c0-2.652-1.326-4.437-3.808-4.437-2.193,0-4.267,1.887-4.267,4.93C20.3-1.581,22.321.221,24.854.221ZM22.2-5.508a2.536,2.536,0,0,1,2.4-2.55c1.36,0,2.091.935,2.091,2.55ZM30.481,0h1.938V-5.831c.595-1.479,1.513-2.006,2.278-2.006a2.766,2.766,0,0,1,.935.153l.357-1.7a2.326,2.326,0,0,0-1.054-.2,3.232,3.232,0,0,0-2.652,1.921h-.051L32.079-9.35h-1.6Z" transform="translate(38.33 -68.661)"/>
      <path id="패스_1546" data-name="패스 1546" class="cls-12" d="M4.624.221A5.982,5.982,0,0,0,6.46-.119L6.1-1.564a2.788,2.788,0,0,1-1,.221c-.969,0-1.36-.578-1.36-1.7V-7.786H6.171V-9.35H3.74v-2.584H2.091L1.87-9.35l-1.445.1v1.462h1.36V-3.06C1.785-1.088,2.516.221,4.624.221ZM8.126,0h1.938V-9.35H8.126Zm.969-11.1a1.173,1.173,0,0,0,1.258-1.156,1.163,1.163,0,0,0-1.258-1.156,1.149,1.149,0,0,0-1.241,1.156A1.158,1.158,0,0,0,9.095-11.1ZM15.453.221c2.312,0,3.553-1.275,3.553-2.839,0-1.768-1.445-2.346-2.754-2.839-1.02-.374-1.989-.68-1.989-1.479,0-.646.476-1.156,1.5-1.156a3.5,3.5,0,0,1,2.091.816l.918-1.207a4.922,4.922,0,0,0-3.043-1.105c-2.057,0-3.315,1.173-3.315,2.737,0,1.581,1.428,2.244,2.669,2.72,1.02.391,2.074.765,2.074,1.615,0,.714-.527,1.258-1.649,1.258a4.144,4.144,0,0,1-2.652-1.071l-.918,1.258A5.751,5.751,0,0,0,15.453.221Zm9.435,0A5.672,5.672,0,0,0,28.05-.765l-.68-1.241a3.97,3.97,0,0,1-2.227.7,2.824,2.824,0,0,1-2.89-2.856h6.069a5.053,5.053,0,0,0,.085-.986c0-2.652-1.326-4.437-3.808-4.437-2.193,0-4.267,1.887-4.267,4.93C20.332-1.581,22.355.221,24.888.221ZM22.236-5.508a2.536,2.536,0,0,1,2.4-2.55c1.36,0,2.091.935,2.091,2.55ZM38,.221c2.312,0,4.4-1.785,4.4-4.879,0-3.128-2.091-4.93-4.4-4.93s-4.4,1.8-4.4,4.93C33.592-1.564,35.683.221,38,.221Zm0-1.6c-1.462,0-2.38-1.309-2.38-3.281,0-1.989.918-3.315,2.38-3.315,1.479,0,2.4,1.326,2.4,3.315C40.392-2.686,39.474-1.377,38-1.377Z" transform="translate(74.633 -68.661)"/>
      <path id="패스_1547" data-name="패스 1547" class="cls-12" d="M6.409-13.447A4.245,4.245,0,0,0,4.76-13.77c-2.091,0-2.958,1.326-2.958,3.247V-9.35l-1.275.1v1.462H1.8V0H3.757V-7.786H5.644V-9.35H3.757v-1.19c0-1.139.408-1.683,1.241-1.683a2.543,2.543,0,0,1,1.02.238ZM14.144.221a5.982,5.982,0,0,0,1.836-.34l-.357-1.445a2.788,2.788,0,0,1-1,.221c-.969,0-1.36-.578-1.36-1.7V-7.786h2.431V-9.35H13.26v-2.584H11.611L11.39-9.35l-1.445.1v1.462h1.36V-3.06C11.305-1.088,12.036.221,14.144.221ZM17.646,0h1.938V-6.63a3.193,3.193,0,0,1,2.3-1.275c1.1,0,1.581.646,1.581,2.261V0h1.955V-5.882c0-2.38-.884-3.706-2.873-3.706a4.351,4.351,0,0,0-3.026,1.479l.068-1.853v-3.587H17.646ZM32.011.221a5.672,5.672,0,0,0,3.162-.986l-.68-1.241a3.97,3.97,0,0,1-2.227.7,2.824,2.824,0,0,1-2.89-2.856h6.069a5.053,5.053,0,0,0,.085-.986c0-2.652-1.326-4.437-3.808-4.437-2.193,0-4.267,1.887-4.267,4.93C27.455-1.581,29.478.221,32.011.221ZM29.359-5.508a2.536,2.536,0,0,1,2.4-2.55c1.36,0,2.091.935,2.091,2.55Z" transform="translate(118.216 -68.661)"/>
      <path id="패스_1548" data-name="패스 1548" class="cls-12" d="M1.649,0H5.831C8.6,0,10.625-1.19,10.625-3.672A2.873,2.873,0,0,0,8.16-6.647v-.085a2.783,2.783,0,0,0,1.785-2.7c0-2.261-1.853-3.077-4.42-3.077H1.649ZM3.621-7.293v-3.689H5.355c1.768,0,2.652.493,2.652,1.8,0,1.173-.8,1.887-2.7,1.887Zm0,5.746V-5.8H5.61c1.989,0,3.077.612,3.077,2.023,0,1.53-1.122,2.227-3.077,2.227ZM16.473.221c2.312,0,4.4-1.785,4.4-4.879,0-3.128-2.091-4.93-4.4-4.93s-4.4,1.8-4.4,4.93C12.07-1.564,14.161.221,16.473.221Zm0-1.6c-1.462,0-2.38-1.309-2.38-3.281,0-1.989.918-3.315,2.38-3.315,1.479,0,2.4,1.326,2.4,3.315C18.87-2.686,17.952-1.377,16.473-1.377Zm8.568,1.6a4.648,4.648,0,0,0,2.975-1.292h.051L28.237,0h1.6V-5.627c0-2.482-1.071-3.961-3.4-3.961a7.162,7.162,0,0,0-3.774,1.224l.731,1.326a5.142,5.142,0,0,1,2.7-.952c1.377,0,1.768.952,1.785,2.04-3.893.425-5.593,1.462-5.593,3.468A2.583,2.583,0,0,0,25.041.221Zm.6-1.547c-.833,0-1.462-.374-1.462-1.292,0-1.054.935-1.751,3.706-2.091v2.3A3.3,3.3,0,0,1,25.636-1.326ZM32.521,0h1.938V-5.831c.6-1.479,1.513-2.006,2.278-2.006a2.766,2.766,0,0,1,.935.153l.357-1.7a2.326,2.326,0,0,0-1.054-.2,3.232,3.232,0,0,0-2.652,1.921h-.051L34.119-9.35h-1.6Zm9.911.221a3.919,3.919,0,0,0,2.72-1.275H45.2L45.373,0h1.6V-13.549H45.016v3.468L45.1-8.534a3.607,3.607,0,0,0-2.516-1.054c-2.091,0-4.012,1.887-4.012,4.93C38.573-1.564,40.086.221,42.432.221Zm.459-1.615c-1.462,0-2.295-1.173-2.295-3.3,0-2.023,1.054-3.264,2.363-3.264a2.932,2.932,0,0,1,2.057.85v4.573A2.748,2.748,0,0,1,42.891-1.394ZM57.307.221c2.312,0,4.4-1.785,4.4-4.879,0-3.128-2.091-4.93-4.4-4.93s-4.4,1.8-4.4,4.93C52.9-1.564,55,.221,57.307.221Zm0-1.6c-1.462,0-2.38-1.309-2.38-3.281,0-1.989.918-3.315,2.38-3.315,1.479,0,2.4,1.326,2.4,3.315C59.7-2.686,58.786-1.377,57.307-1.377Z" transform="translate(18.115 -43.654)"/>
      <path id="패스_1549" data-name="패스 1549" class="cls-12" d="M6.409-13.447A4.245,4.245,0,0,0,4.76-13.77c-2.091,0-2.958,1.326-2.958,3.247V-9.35l-1.275.1v1.462H1.8V0H3.757V-7.786H5.644V-9.35H3.757v-1.19c0-1.139.408-1.683,1.241-1.683a2.543,2.543,0,0,1,1.02.238ZM11.169,0h3.349c3.74,0,5.933-2.244,5.933-6.307,0-4.08-2.193-6.205-6.035-6.205H11.169Zm1.972-1.615v-9.3H14.28c2.686,0,4.131,1.479,4.131,4.607,0,3.111-1.445,4.692-4.131,4.692ZM22.8,0h1.938V-9.35H22.8Zm.969-11.1a1.173,1.173,0,0,0,1.258-1.156,1.163,1.163,0,0,0-1.258-1.156,1.149,1.149,0,0,0-1.241,1.156A1.158,1.158,0,0,0,23.766-11.1Z" transform="translate(81.348 -43.654)"/>
      <path id="패스_1550" data-name="패스 1550" class="cls-12" d="M1.479,0H3.417V-5.831C4.012-7.31,4.93-7.837,5.7-7.837a2.766,2.766,0,0,1,.935.153l.357-1.7a2.326,2.326,0,0,0-1.054-.2A3.232,3.232,0,0,0,3.281-7.667H3.23L3.077-9.35h-1.6ZM12.053.221a5.672,5.672,0,0,0,3.162-.986l-.68-1.241a3.97,3.97,0,0,1-2.227.7,2.824,2.824,0,0,1-2.89-2.856h6.069a5.053,5.053,0,0,0,.085-.986c0-2.652-1.326-4.437-3.808-4.437C9.571-9.588,7.5-7.7,7.5-4.658,7.5-1.581,9.52.221,12.053.221ZM9.4-5.508a2.536,2.536,0,0,1,2.4-2.55c1.36,0,2.091.935,2.091,2.55ZM21.488.221A4.556,4.556,0,0,0,24.514-.935l-.8-1.292a3.2,3.2,0,0,1-2.04.85c-1.564,0-2.635-1.309-2.635-3.281,0-1.989,1.122-3.315,2.686-3.315a2.45,2.45,0,0,1,1.683.731l.969-1.275a4.014,4.014,0,0,0-2.737-1.071,4.594,4.594,0,0,0-4.624,4.93C17.017-1.564,18.955.221,21.488.221Z" transform="translate(108.086 -43.654)"/>
      <text id="t" class="cls-13" transform="translate(133.355 -43.654)"><tspan x="0" y="0">t</tspan></text>
      <path id="패스_1551" data-name="패스 1551" class="cls-12" d="M5.219.221c2.312,0,4.4-1.785,4.4-4.879,0-3.128-2.091-4.93-4.4-4.93s-4.4,1.8-4.4,4.93C.816-1.564,2.907.221,5.219.221Zm0-1.6c-1.462,0-2.38-1.309-2.38-3.281,0-1.989.918-3.315,2.38-3.315,1.479,0,2.4,1.326,2.4,3.315C7.616-2.686,6.7-1.377,5.219-1.377ZM11.832,0H13.77V-5.831c.6-1.479,1.513-2.006,2.278-2.006a2.766,2.766,0,0,1,.935.153l.357-1.7a2.326,2.326,0,0,0-1.054-.2,3.232,3.232,0,0,0-2.652,1.921h-.051L13.43-9.35h-1.6Zm9.3.221c2.312,0,3.553-1.275,3.553-2.839,0-1.768-1.445-2.346-2.754-2.839-1.02-.374-1.989-.68-1.989-1.479,0-.646.476-1.156,1.5-1.156a3.5,3.5,0,0,1,2.091.816l.918-1.207A4.922,4.922,0,0,0,21.4-9.588c-2.057,0-3.315,1.173-3.315,2.737,0,1.581,1.428,2.244,2.669,2.72,1.02.391,2.074.765,2.074,1.615,0,.714-.527,1.258-1.649,1.258A4.144,4.144,0,0,1,18.53-2.329l-.918,1.258A5.751,5.751,0,0,0,21.131.221Z" transform="translate(139.689 -43.654)"/>
    </g>
    <g id="그룹-3" data-name="그룹" transform="translate(307.5 188.206)">
      <path id="패스_1552" data-name="패스 1552" class="cls-10" d="M3.146,2.509l.468-.234A11.953,11.953,0,0,1,1.9-4a11.987,11.987,0,0,1,1.716-6.279l-.468-.247A11.987,11.987,0,0,0,1.248-4,11.943,11.943,0,0,0,3.146,2.509Z" transform="translate(68.592 -15.161)"/>
      <path id="패스_1553" data-name="패스 1553" class="cls-10" d="M3.289.169a3.076,3.076,0,0,0,2.34-1.313h.039L5.733,0H6.37V-6.929H5.616v5.07C4.836-.923,4.264-.507,3.458-.507c-1.066,0-1.508-.663-1.508-2.08V-6.929H1.2V-2.5C1.2-.715,1.846.169,3.289.169Z" transform="translate(72.2 -15.161)"/>
      <path id="패스_1554" data-name="패스 1554" class="cls-10" d="M1.3,0h.754V-5.187c.806-.832,1.378-1.248,2.184-1.248,1.066,0,1.521.663,1.521,2.106V0h.754V-4.433c0-1.781-.663-2.678-2.106-2.678A3.408,3.408,0,0,0,2.041-5.876H2.015L1.924-6.929H1.3Z" transform="translate(79.736 -15.161)"/>
      <path id="패스_1555" data-name="패스 1555" class="cls-10" d="M1.3,0h.754V-6.929H1.3Zm.39-8.554a.614.614,0,0,0,.637-.6.611.611,0,0,0-.637-.624.6.6,0,0,0-.637.624A.606.606,0,0,0,1.69-8.554ZM6.591.169a3.92,3.92,0,0,0,1.157-.26L7.566-.676a2.424,2.424,0,0,1-.845.195c-.923,0-1.157-.572-1.157-1.443V-6.292H7.553v-.637H5.564v-2H4.927l-.091,2-1.105.065v.572H4.81v4.316C4.81-.689,5.226.169,6.591.169Zm6.825-3.861c1.274,0,2.054-1.079,2.054-3,0-1.885-.78-2.951-2.054-2.951S11.362-8.58,11.362-6.695C11.362-4.771,12.155-3.692,13.416-3.692Zm0-.52c-.858,0-1.417-.9-1.417-2.483s.559-2.431,1.417-2.431,1.43.858,1.43,2.431S14.274-4.212,13.416-4.212Zm.26,4.381h.6l5.278-9.815h-.6Zm6.175,0C21.1.169,21.9-.9,21.9-2.821c0-1.9-.806-2.964-2.054-2.964-1.274,0-2.067,1.066-2.067,2.964C17.784-.9,18.577.169,19.851.169Zm0-.52c-.871,0-1.43-.884-1.43-2.47s.559-2.444,1.43-2.444c.845,0,1.417.858,1.417,2.444S20.7-.351,19.851-.351Z" transform="translate(87.34 -15.161)"/>
      <path id="패스_1556" data-name="패스 1556" class="cls-10" d="M.949,2.509A11.943,11.943,0,0,0,2.847-4a11.987,11.987,0,0,0-1.9-6.526l-.468.247A11.987,11.987,0,0,1,2.2-4,11.953,11.953,0,0,1,.481,2.275Z" transform="translate(110.436 -15.161)"/>
    </g>
    <path id="패스_1529" data-name="패스 1529" class="cls-14" d="M0,0H220.413V-100.381H0Z" transform="translate(309.5 188.206)"/>
  </g>
</svg>
