<svg id="구성_요소_118_1" data-name="구성 요소 118 – 1" xmlns="http://www.w3.org/2000/svg" width="796" height="458.651" viewBox="0 0 796 458.651">
  <defs>
    <style>
      .cls-1 {
        fill: #f9fafa;
      }

      .cls-2 {
        fill: #052342;
      }

      .cls-10, .cls-15, .cls-3, .cls-5, .cls-6, .cls-9 {
        fill: none;
      }

      .cls-3 {
        stroke: #052342;
        stroke-width: 0.5px;
      }

      .cls-4 {
        fill: #fff;
      }

      .cls-10, .cls-15, .cls-5, .cls-6, .cls-9 {
        stroke: #2f2c2c;
        stroke-linecap: round;
        stroke-linejoin: round;
      }

      .cls-5 {
        stroke-dasharray: 0 2.993;
      }

      .cls-7 {
        fill: #78a5e2;
      }

      .cls-8 {
        fill: #171a1b;
      }

      .cls-9 {
        stroke-dasharray: 0 3;
      }

      .cls-10 {
        stroke-dasharray: 0 3.006;
      }

      .cls-11 {
        fill: #828585;
      }

      .cls-12 {
        fill: #6f7171;
        stroke: #828585;
      }

      .cls-13 {
        fill: #5171b1;
      }

      .cls-14 {
        fill: #132e54;
      }

      .cls-15 {
        stroke-dasharray: 0 3.019;
      }
    </style>
  </defs>
  <path id="패스_3222" data-name="패스 3222" class="cls-1" d="M0,0H796V458.651H0Z"/>
  <rect id="사각형_191" data-name="사각형 191" class="cls-2" width="144.469" height="36.5" transform="translate(629.503 30.251)"/>
  <rect id="사각형_192" data-name="사각형 192" class="cls-3" width="144.469" height="36.5" transform="translate(629.503 30.251)"/>
  <rect id="사각형_193" data-name="사각형 193" class="cls-2" width="500.272" height="37" transform="translate(26.5 30.001)"/>
  <rect id="사각형_194" data-name="사각형 194" class="cls-4" width="144.469" height="33.5" transform="translate(623.503 30.251)"/>
  <rect id="사각형_195" data-name="사각형 195" class="cls-3" width="144.469" height="33.5" transform="translate(623.503 30.251)"/>
  <g id="그룹_983" data-name="그룹 983" transform="translate(-57.858 -4152.254)">
    <path id="패스_2980" data-name="패스 2980" class="cls-2" d="M707.094,4205.3l-2.505-4.455H702.8v4.455h-1.74v-11.04h3.615c2.279,0,3.989.809,3.989,3.194a3.074,3.074,0,0,1-2.31,3.166l2.7,4.68Zm-4.29-5.85h1.665c1.6,0,2.474-.66,2.474-2s-.869-1.8-2.474-1.8H702.8Z"/>
    <path id="패스_2981" data-name="패스 2981" class="cls-2" d="M710.2,4194.486a1.014,1.014,0,0,1,1.1-1.02,1.023,1.023,0,1,1-1.1,1.02Zm.24,2.565h1.709v8.25h-1.709Z"/>
    <path id="패스_2982" data-name="패스 2982" class="cls-2" d="M713.589,4204.355l.81-1.109a3.661,3.661,0,0,0,2.34.944c.99,0,1.454-.479,1.454-1.11,0-.75-.929-1.08-1.829-1.425-1.1-.42-2.355-1-2.355-2.4s1.11-2.415,2.925-2.415a4.353,4.353,0,0,1,2.685.974l-.81,1.066a3.089,3.089,0,0,0-1.845-.721c-.9,0-1.32.45-1.32,1.021,0,.705.855.974,1.754,1.3,1.156.435,2.431.946,2.431,2.505,0,1.38-1.1,2.5-3.135,2.5A5.068,5.068,0,0,1,713.589,4204.355Z"/>
    <path id="패스_2983" data-name="패스 2983" class="cls-2" d="M721.359,4193.346h1.68v7.71h.044l3.24-4.005h1.906l-2.806,3.345,3.12,4.9h-1.875l-2.234-3.736-1.4,1.6v2.131h-1.68Z"/>
    <path id="패스_2984" data-name="패스 2984" class="cls-2" d="M732.909,4194.261H734.9l2.025,5.579c.256.736.48,1.486.736,2.235h.074c.255-.749.465-1.5.72-2.235l1.995-5.579h2.01v11.04h-1.62v-5.461c0-.989.135-2.414.225-3.42h-.06l-.885,2.551-1.92,5.264h-1.079l-1.936-5.264-.87-2.551h-.06c.075,1.006.21,2.431.21,3.42v5.461h-1.559Z"/>
    <path id="패스_2985" data-name="패스 2985" class="cls-2" d="M744.338,4201.19c0-2.759,1.845-4.349,3.885-4.349s3.885,1.59,3.885,4.349a3.905,3.905,0,1,1-7.77,0Zm6,0c0-1.754-.81-2.924-2.115-2.924s-2.1,1.17-2.1,2.924.81,2.9,2.1,2.9S750.338,4202.93,750.338,4201.19Z"/>
    <path id="패스_2986" data-name="패스 2986" class="cls-2" d="M753.833,4197.051h1.41l.135,1.139h.045a3.931,3.931,0,0,1,2.73-1.349c1.755,0,2.535,1.17,2.535,3.269v5.191h-1.725v-4.981c0-1.424-.42-1.994-1.4-1.994a2.812,2.812,0,0,0-2.025,1.125v5.85h-1.71Z"/>
    <path id="패스_2987" data-name="패스 2987" class="cls-2" d="M762.653,4194.486a1.014,1.014,0,0,1,1.095-1.02,1.023,1.023,0,1,1-1.095,1.02Zm.24,2.565h1.71v8.25h-1.71Z"/>
    <path id="패스_2988" data-name="패스 2988" class="cls-2" d="M767.183,4202.6v-4.17h-1.2v-1.29l1.275-.09.2-2.28h1.455v2.28h2.145v1.38h-2.145v4.184c0,.99.345,1.5,1.2,1.5a2.46,2.46,0,0,0,.885-.2l.315,1.275a5.238,5.238,0,0,1-1.621.3C767.828,4205.5,767.183,4204.34,767.183,4202.6Z"/>
    <path id="패스_2989" data-name="패스 2989" class="cls-2" d="M771.728,4201.19c0-2.759,1.845-4.349,3.885-4.349s3.885,1.59,3.885,4.349a3.905,3.905,0,1,1-7.77,0Zm6,0c0-1.754-.811-2.924-2.115-2.924s-2.1,1.17-2.1,2.924.81,2.9,2.1,2.9S777.728,4202.93,777.728,4201.19Z"/>
    <path id="패스_2990" data-name="패스 2990" class="cls-2" d="M781.223,4197.051h1.41l.135,1.484h.045a2.853,2.853,0,0,1,2.34-1.694,2.038,2.038,0,0,1,.93.18l-.315,1.5a2.445,2.445,0,0,0-.825-.135c-.675,0-1.485.465-2.01,1.769v5.146h-1.71Z"/>
    <path id="패스_2991" data-name="패스 2991" class="cls-2" d="M786.818,4194.486a1.014,1.014,0,0,1,1.1-1.02,1.023,1.023,0,1,1-1.1,1.02Zm.24,2.565h1.71v8.25h-1.71Z"/>
    <path id="패스_2992" data-name="패스 2992" class="cls-2" d="M791.078,4197.051h1.409l.136,1.139h.044a3.931,3.931,0,0,1,2.73-1.349c1.755,0,2.535,1.17,2.535,3.269v5.191h-1.725v-4.981c0-1.424-.42-1.994-1.395-1.994a2.812,2.812,0,0,0-2.025,1.125v5.85h-1.709Z"/>
    <path id="패스_2993" data-name="패스 2993" class="cls-2" d="M799.538,4206.83a2.183,2.183,0,0,1,1.2-1.8v-.075a1.516,1.516,0,0,1-.75-1.365,2.037,2.037,0,0,1,.915-1.529V4202a2.826,2.826,0,0,1-1.08-2.189,2.976,2.976,0,0,1,3.2-2.97,3.447,3.447,0,0,1,1.2.21h2.925v1.289h-1.575a2.233,2.233,0,0,1,.54,1.515,2.819,2.819,0,0,1-3.089,2.835,2.87,2.87,0,0,1-1.156-.254,1.092,1.092,0,0,0-.449.869c0,.5.329.81,1.379.81h1.515c1.95,0,2.97.6,2.97,2.01,0,1.59-1.68,2.881-4.319,2.881C800.978,4209.006,799.538,4208.27,799.538,4206.83Zm6.074-.435c0-.69-.54-.9-1.545-.9h-1.245a5.246,5.246,0,0,1-1.11-.12,1.483,1.483,0,0,0-.7,1.2c0,.81.84,1.29,2.2,1.29C804.652,4207.865,805.612,4207.16,805.612,4206.4Zm-1.035-6.584a1.57,1.57,0,1,0-3.119,0,1.572,1.572,0,1,0,3.119,0Z"/>
  </g>
  <rect id="사각형_196" data-name="사각형 196" class="cls-4" width="500.272" height="33.5" transform="translate(20.5 30.501)"/>
  <rect id="사각형_197" data-name="사각형 197" class="cls-3" width="500.272" height="33.5" transform="translate(20.5 30.501)"/>
  <g id="그룹_984" data-name="그룹 984" transform="translate(-57.858 -4152.254)">
    <path id="패스_2994" data-name="패스 2994" class="cls-2" d="M269.076,4205.3l-2.5-4.455h-1.785v4.455h-1.74v-11.04h3.615c2.279,0,3.989.809,3.989,3.194a3.074,3.074,0,0,1-2.31,3.166l2.7,4.68Zm-4.29-5.85h1.665c1.605,0,2.474-.66,2.474-2s-.869-1.8-2.474-1.8h-1.665Z"/>
    <path id="패스_2995" data-name="패스 2995" class="cls-2" d="M272.181,4194.486a1.013,1.013,0,0,1,1.094-1.02,1.023,1.023,0,1,1-1.094,1.02Zm.24,2.565h1.709v8.25h-1.709Z"/>
    <path id="패스_2996" data-name="패스 2996" class="cls-2" d="M275.571,4204.355l.81-1.109a3.659,3.659,0,0,0,2.34.944c.989,0,1.455-.479,1.455-1.11,0-.75-.93-1.08-1.83-1.425-1.1-.42-2.355-1-2.355-2.4s1.11-2.415,2.925-2.415a4.354,4.354,0,0,1,2.685.974l-.81,1.066a3.089,3.089,0,0,0-1.845-.721c-.9,0-1.321.45-1.321,1.021,0,.705.855.974,1.755,1.3,1.156.435,2.431.946,2.431,2.505,0,1.38-1.1,2.5-3.135,2.5A5.068,5.068,0,0,1,275.571,4204.355Z"/>
    <path id="패스_2997" data-name="패스 2997" class="cls-2" d="M283.341,4193.346h1.68v7.71h.044l3.24-4.005h1.9l-2.8,3.345,3.12,4.9H288.65l-2.234-3.736-1.395,1.6v2.131h-1.68Z"/>
    <path id="패스_2998" data-name="패스 2998" class="cls-2" d="M294.891,4194.261h1.994l2.025,5.579c.256.736.48,1.486.736,2.235h.074c.255-.749.465-1.5.72-2.235l1.995-5.579h2.01v11.04h-1.62v-5.461c0-.989.135-2.414.225-3.42h-.06l-.885,2.551-1.92,5.264h-1.08l-1.935-5.264-.87-2.551h-.06c.075,1.006.21,2.431.21,3.42v5.461h-1.559Z"/>
    <path id="패스_2999" data-name="패스 2999" class="cls-2" d="M306.425,4203.11c0-1.77,1.5-2.684,4.935-3.059-.015-.961-.36-1.8-1.575-1.8a4.548,4.548,0,0,0-2.385.84l-.645-1.17a6.327,6.327,0,0,1,3.33-1.079c2.055,0,3,1.305,3,3.5v4.965h-1.41l-.15-.946h-.045a4.1,4.1,0,0,1-2.625,1.14A2.28,2.28,0,0,1,306.425,4203.11Zm4.935.06v-2.024c-2.445.3-3.27.915-3.27,1.844,0,.811.555,1.141,1.29,1.141A2.909,2.909,0,0,0,311.36,4203.17Z"/>
    <path id="패스_3000" data-name="패스 3000" class="cls-2" d="M315.23,4197.051h1.41l.135,1.139h.045a3.931,3.931,0,0,1,2.73-1.349c1.755,0,2.535,1.17,2.535,3.269v5.191H320.36v-4.981c0-1.424-.42-1.994-1.395-1.994a2.812,2.812,0,0,0-2.025,1.125v5.85h-1.71Z"/>
    <path id="패스_3001" data-name="패스 3001" class="cls-2" d="M323.81,4203.11c0-1.77,1.5-2.684,4.935-3.059-.016-.961-.36-1.8-1.575-1.8a4.548,4.548,0,0,0-2.385.84l-.645-1.17a6.327,6.327,0,0,1,3.33-1.079c2.054,0,3,1.305,3,3.5v4.965h-1.41l-.15-.946h-.045a4.1,4.1,0,0,1-2.625,1.14A2.28,2.28,0,0,1,323.81,4203.11Zm4.935.06v-2.024c-2.445.3-3.27.915-3.27,1.844,0,.811.555,1.141,1.29,1.141A2.909,2.909,0,0,0,328.745,4203.17Z"/>
    <path id="패스_3002" data-name="패스 3002" class="cls-2" d="M332.015,4206.83a2.182,2.182,0,0,1,1.2-1.8v-.075a1.516,1.516,0,0,1-.75-1.365,2.034,2.034,0,0,1,.915-1.529V4202a2.823,2.823,0,0,1-1.08-2.189,2.976,2.976,0,0,1,3.2-2.97,3.449,3.449,0,0,1,1.2.21h2.925v1.289h-1.575a2.233,2.233,0,0,1,.54,1.515,2.819,2.819,0,0,1-3.09,2.835,2.866,2.866,0,0,1-1.155-.254,1.093,1.093,0,0,0-.45.869c0,.5.33.81,1.38.81h1.515c1.95,0,2.97.6,2.97,2.01,0,1.59-1.68,2.881-4.32,2.881C333.455,4209.006,332.015,4208.27,332.015,4206.83Zm6.075-.435c0-.69-.54-.9-1.545-.9H335.3a5.232,5.232,0,0,1-1.11-.12,1.483,1.483,0,0,0-.705,1.2c0,.81.84,1.29,2.205,1.29C337.13,4207.865,338.09,4207.16,338.09,4206.4Zm-1.035-6.584a1.571,1.571,0,1,0-3.12,0,1.572,1.572,0,1,0,3.12,0Z"/>
    <path id="패스_3003" data-name="패스 3003" class="cls-2" d="M340.16,4201.19c0-2.684,1.83-4.349,3.765-4.349,2.19,0,3.36,1.575,3.36,3.915a4.43,4.43,0,0,1-.076.869h-5.354a2.492,2.492,0,0,0,2.55,2.521,3.5,3.5,0,0,0,1.965-.616l.6,1.1a5.007,5.007,0,0,1-2.79.87A3.963,3.963,0,0,1,340.16,4201.19Zm5.64-.75c0-1.424-.645-2.25-1.845-2.25a2.237,2.237,0,0,0-2.115,2.25Z"/>
    <path id="패스_3004" data-name="패스 3004" class="cls-2" d="M348.935,4197.051h1.409l.135,1.154h.045a3.593,3.593,0,0,1,2.55-1.364,2.2,2.2,0,0,1,2.28,1.514,3.8,3.8,0,0,1,2.685-1.514c1.725,0,2.535,1.17,2.535,3.269v5.191h-1.725v-4.981c0-1.424-.45-1.994-1.38-1.994a2.754,2.754,0,0,0-1.86,1.125v5.85h-1.725v-4.981c0-1.424-.435-1.994-1.38-1.994a2.785,2.785,0,0,0-1.86,1.125v5.85h-1.709Z"/>
    <path id="패스_3005" data-name="패스 3005" class="cls-2" d="M362.194,4201.19c0-2.684,1.83-4.349,3.765-4.349,2.19,0,3.36,1.575,3.36,3.915a4.438,4.438,0,0,1-.075.869H363.89a2.491,2.491,0,0,0,2.549,2.521,3.5,3.5,0,0,0,1.965-.616l.6,1.1a5.007,5.007,0,0,1-2.79.87A3.963,3.963,0,0,1,362.194,4201.19Zm5.64-.75c0-1.424-.645-2.25-1.845-2.25a2.237,2.237,0,0,0-2.114,2.25Z"/>
    <path id="패스_3006" data-name="패스 3006" class="cls-2" d="M370.969,4197.051h1.41l.135,1.139h.045a3.931,3.931,0,0,1,2.73-1.349c1.755,0,2.535,1.17,2.535,3.269v5.191H376.1v-4.981c0-1.424-.42-1.994-1.395-1.994a2.812,2.812,0,0,0-2.025,1.125v5.85h-1.71Z"/>
    <path id="패스_3007" data-name="패스 3007" class="cls-2" d="M380.3,4202.6v-4.17h-1.2v-1.29l1.275-.09.2-2.28h1.455v2.28h2.145v1.38h-2.145v4.184c0,.99.345,1.5,1.2,1.5a2.46,2.46,0,0,0,.885-.2l.315,1.275a5.238,5.238,0,0,1-1.62.3C380.944,4205.5,380.3,4204.34,380.3,4202.6Z"/>
  </g>
  <line id="선_1104" data-name="선 1104" class="cls-5" y1="402.511" transform="translate(571.343 28.397)"/>
  <path id="패스_3008" data-name="패스 3008" class="cls-6" d="M629.2,4179.155h0m0,407h0" transform="translate(-57.858 -4152.254)"/>
  <rect id="사각형_198" data-name="사각형 198" class="cls-7" width="152.023" height="30" transform="translate(623.003 88.219)"/>
  <g id="그룹_985" data-name="그룹 985" transform="translate(-57.858 -4152.254)">
    <path id="패스_3009" data-name="패스 3009" class="cls-4" d="M709.324,4257.628h-3.619l-.958,3.024h-1.27l3.362-9.9h1.391l3.363,9.9H710.27Zm-.31-1-.473-1.513c-.365-1.121-.675-2.2-1-3.348h-.054c-.311,1.161-.635,2.227-.986,3.348l-.486,1.513Z"/>
    <path id="패스_3010" data-name="패스 3010" class="cls-4" d="M712.685,4257.965v-4.645h1.228v4.5c0,1.365.4,1.946,1.378,1.946.756,0,1.283-.366,1.985-1.242v-5.2h1.229v7.332h-1.026l-.1-1.147h-.041a3.144,3.144,0,0,1-2.43,1.323C713.373,4260.828,712.685,4259.829,712.685,4257.965Z"/>
    <path id="패스_3011" data-name="패스 3011" class="cls-4" d="M720.366,4256.993c0-2.376,1.5-3.862,3.173-3.862a2.984,2.984,0,0,1,2.066.864l-.067-1.268V4249.9h1.229v10.748h-1l-.121-.863h-.027a3.277,3.277,0,0,1-2.228,1.039C721.554,4260.828,720.366,4259.438,720.366,4256.993Zm5.172,1.8v-3.849a2.578,2.578,0,0,0-1.783-.769c-1.188,0-2.12,1.134-2.12,2.809,0,1.768.729,2.823,2.026,2.823A2.521,2.521,0,0,0,725.538,4258.789Z"/>
    <path id="패스_3012" data-name="패스 3012" class="cls-4" d="M728.83,4251.011a.853.853,0,0,1,1.7,0,.853.853,0,0,1-1.7,0Zm.23,2.309h1.229v7.332H729.06Z"/>
    <path id="패스_3013" data-name="패스 3013" class="cls-4" d="M732.867,4258.385v-4.066h-1.094v-.931l1.148-.068.148-2.052H734.1v2.052h1.985v1H734.1v4.092c0,.9.283,1.418,1.134,1.418a2.645,2.645,0,0,0,.837-.188l.243.918a4.653,4.653,0,0,1-1.35.269C733.393,4260.828,732.867,4259.855,732.867,4258.385Z"/>
    <path id="패스_3014" data-name="패스 3014" class="cls-4" d="M740.3,4255.711c0-3.2,1.877-5.146,4.388-5.146a3.66,3.66,0,0,1,2.715,1.23l-.676.809a2.7,2.7,0,0,0-2.025-.945c-1.877,0-3.12,1.54-3.12,4.011,0,2.5,1.189,4.064,3.08,4.064a3.005,3.005,0,0,0,2.295-1.107l.689.783a3.826,3.826,0,0,1-3.039,1.418C742.155,4260.828,740.3,4258.924,740.3,4255.711Z"/>
    <path id="패스_3015" data-name="패스 3015" class="cls-4" d="M748.7,4256.993c0-2.444,1.607-3.862,3.4-3.862s3.4,1.418,3.4,3.862-1.607,3.835-3.4,3.835S748.7,4259.424,748.7,4256.993Zm5.537,0c0-1.688-.864-2.836-2.134-2.836s-2.12,1.148-2.12,2.836.85,2.81,2.12,2.81S754.239,4258.682,754.239,4256.993Z"/>
    <path id="패스_3016" data-name="패스 3016" class="cls-4" d="M757.341,4253.32h1.013l.108,1.067h.041a3.223,3.223,0,0,1,2.282-1.256,1.935,1.935,0,0,1,2.026,1.4,3.466,3.466,0,0,1,2.417-1.4c1.512,0,2.228,1,2.228,2.877v4.644h-1.229v-4.482c0-1.378-.432-1.959-1.364-1.959a2.711,2.711,0,0,0-1.85,1.121v5.32h-1.229v-4.482c0-1.378-.432-1.959-1.364-1.959a2.713,2.713,0,0,0-1.85,1.121v5.32h-1.229Z"/>
    <path id="패스_3017" data-name="패스 3017" class="cls-4" d="M769.694,4253.32h1.013l.108,1.067h.04a3.225,3.225,0,0,1,2.283-1.256,1.935,1.935,0,0,1,2.025,1.4,3.468,3.468,0,0,1,2.418-1.4c1.512,0,2.228,1,2.228,2.877v4.644H778.58v-4.482c0-1.378-.433-1.959-1.364-1.959a2.707,2.707,0,0,0-1.85,1.121v5.32h-1.229v-4.482c0-1.378-.432-1.959-1.364-1.959a2.709,2.709,0,0,0-1.85,1.121v5.32h-1.229Z"/>
    <path id="패스_3018" data-name="패스 3018" class="cls-4" d="M781.817,4251.011a.853.853,0,0,1,1.7,0,.853.853,0,0,1-1.7,0Zm.229,2.309h1.229v7.332h-1.229Z"/>
    <path id="패스_3019" data-name="패스 3019" class="cls-4" d="M785.854,4258.385v-4.066H784.76v-.931l1.147-.068.149-2.052h1.027v2.052h1.984v1h-1.984v4.092c0,.9.283,1.418,1.134,1.418a2.645,2.645,0,0,0,.837-.188l.243.918a4.66,4.66,0,0,1-1.35.269C786.38,4260.828,785.854,4259.855,785.854,4258.385Z"/>
    <path id="패스_3020" data-name="패스 3020" class="cls-4" d="M791.213,4258.385v-4.066h-1.094v-.931l1.148-.068.149-2.052h1.026v2.052h1.985v1h-1.985v4.092c0,.9.283,1.418,1.134,1.418a2.639,2.639,0,0,0,.837-.188l.243.918a4.654,4.654,0,0,1-1.35.269C791.739,4260.828,791.213,4259.855,791.213,4258.385Z"/>
    <path id="패스_3021" data-name="패스 3021" class="cls-4" d="M795.3,4256.993c0-2.376,1.608-3.862,3.309-3.862,1.864,0,2.917,1.35,2.917,3.443a4.78,4.78,0,0,1-.054.7h-4.943a2.429,2.429,0,0,0,2.431,2.566,3.163,3.163,0,0,0,1.837-.581l.445.81a4.364,4.364,0,0,1-2.431.756A3.5,3.5,0,0,1,795.3,4256.993Zm5.145-.6c0-1.484-.675-2.281-1.823-2.281a2.254,2.254,0,0,0-2.106,2.281Z"/>
    <path id="패스_3022" data-name="패스 3022" class="cls-4" d="M802.822,4256.993c0-2.376,1.608-3.862,3.309-3.862,1.864,0,2.917,1.35,2.917,3.443a4.79,4.79,0,0,1-.054.7h-4.943a2.429,2.429,0,0,0,2.431,2.566,3.162,3.162,0,0,0,1.837-.581l.445.81a4.364,4.364,0,0,1-2.431.756A3.5,3.5,0,0,1,802.822,4256.993Zm5.146-.6c0-1.484-.676-2.281-1.823-2.281a2.255,2.255,0,0,0-2.107,2.281Z"/>
  </g>
  <rect id="사각형_199" data-name="사각형 199" class="cls-7" width="152.023" height="65" transform="translate(623.003 219.753)"/>
  <g id="그룹_986" data-name="그룹 986" transform="translate(-57.858 -4152.254)">
    <path id="패스_3023" data-name="패스 3023" class="cls-4" d="M720.654,4396c0-3.2,1.877-5.146,4.389-5.146a3.659,3.659,0,0,1,2.714,1.23l-.675.809a2.706,2.706,0,0,0-2.025-.945c-1.877,0-3.12,1.54-3.12,4.011,0,2.5,1.188,4.064,3.079,4.064a3.009,3.009,0,0,0,2.3-1.107l.688.783a3.825,3.825,0,0,1-3.038,1.418C722.5,4401.121,720.654,4399.217,720.654,4396Z"/>
    <path id="패스_3024" data-name="패스 3024" class="cls-4" d="M729.051,4397.286c0-2.444,1.607-3.862,3.4-3.862s3.4,1.418,3.4,3.862-1.607,3.835-3.4,3.835S729.051,4399.717,729.051,4397.286Zm5.537,0c0-1.688-.864-2.836-2.134-2.836s-2.12,1.148-2.12,2.836.851,2.81,2.12,2.81S734.588,4398.975,734.588,4397.286Z"/>
    <path id="패스_3025" data-name="패스 3025" class="cls-4" d="M737.691,4393.613H738.7l.108,1.067h.041a3.221,3.221,0,0,1,2.282-1.256,1.935,1.935,0,0,1,2.025,1.4,3.47,3.47,0,0,1,2.418-1.4c1.512,0,2.228,1,2.228,2.877v4.644h-1.229v-4.482c0-1.378-.432-1.959-1.364-1.959a2.709,2.709,0,0,0-1.85,1.121v5.32h-1.229v-4.482c0-1.378-.432-1.959-1.364-1.959a2.709,2.709,0,0,0-1.85,1.121v5.32h-1.229Z"/>
    <path id="패스_3026" data-name="패스 3026" class="cls-4" d="M750.043,4393.613h1.014l.108.837h.04a3.911,3.911,0,0,1,2.336-1.026c1.891,0,2.917,1.486,2.917,3.74,0,2.512-1.5,3.957-3.187,3.957a3.3,3.3,0,0,1-2.025-.85l.026,1.283v2.484h-1.229Zm5.132,3.565c0-1.62-.54-2.714-1.931-2.714a3.053,3.053,0,0,0-1.972,1.013v3.848a2.844,2.844,0,0,0,1.8.771C754.284,4400.1,755.175,4399,755.175,4397.178Z"/>
    <path id="패스_3027" data-name="패스 3027" class="cls-4" d="M758.319,4399.487v-9.29h1.229v9.371c0,.378.162.528.351.528a1.035,1.035,0,0,0,.257-.028l.175.946a1.958,1.958,0,0,1-.716.107C758.7,4401.121,758.319,4400.527,758.319,4399.487Z"/>
    <path id="패스_3028" data-name="패스 3028" class="cls-4" d="M761.748,4391.3a.852.852,0,0,1,1.7,0,.852.852,0,0,1-1.7,0Zm.229,2.309h1.229v7.332h-1.229Z"/>
    <path id="패스_3029" data-name="패스 3029" class="cls-4" d="M764.987,4399.041c0-1.593,1.391-2.39,4.511-2.74,0-.946-.311-1.851-1.513-1.851a4.043,4.043,0,0,0-2.2.783l-.486-.85a5.52,5.52,0,0,1,2.89-.959c1.782,0,2.539,1.2,2.539,3.012v4.509h-1.013l-.109-.877h-.04a3.931,3.931,0,0,1-2.431,1.053A1.988,1.988,0,0,1,764.987,4399.041Zm4.511.122v-2.052c-2.472.3-3.309.905-3.309,1.85,0,.837.567,1.175,1.3,1.175A3,3,0,0,0,769.5,4399.163Z"/>
    <path id="패스_3030" data-name="패스 3030" class="cls-4" d="M772.925,4393.613h1.013l.108,1.053h.041a3.518,3.518,0,0,1,2.457-1.242c1.54,0,2.242,1,2.242,2.877v4.644h-1.229v-4.482c0-1.378-.418-1.959-1.39-1.959a2.792,2.792,0,0,0-2.013,1.121v5.32h-1.229Z"/>
    <path id="패스_3031" data-name="패스 3031" class="cls-4" d="M780.553,4397.286a3.57,3.57,0,0,1,3.538-3.862,3.136,3.136,0,0,1,2.147.864l-.634.823a2.138,2.138,0,0,0-1.473-.661c-1.323,0-2.295,1.148-2.295,2.836s.918,2.81,2.268,2.81a2.58,2.58,0,0,0,1.729-.731l.527.824a3.5,3.5,0,0,1-2.363.932C782.052,4401.121,780.553,4399.717,780.553,4397.286Z"/>
    <path id="패스_3032" data-name="패스 3032" class="cls-4" d="M787.167,4397.286c0-2.376,1.608-3.862,3.309-3.862,1.864,0,2.917,1.35,2.917,3.443a4.78,4.78,0,0,1-.054.7H788.4a2.431,2.431,0,0,0,2.431,2.566,3.161,3.161,0,0,0,1.837-.581l.445.81a4.367,4.367,0,0,1-2.43.756A3.505,3.505,0,0,1,787.167,4397.286Zm5.145-.6c0-1.484-.674-2.281-1.822-2.281a2.256,2.256,0,0,0-2.107,2.281Z"/>
  </g>
  <g id="그룹_987" data-name="그룹 987" transform="translate(-57.858 -4152.254)">
    <path id="패스_3033" data-name="패스 3033" class="cls-4" d="M698.461,4410.042h1.512l1.9,5.294c.23.688.459,1.377.7,2.066h.067c.229-.689.446-1.378.675-2.066l1.891-5.294h1.512v9.9H705.55v-5.482c0-.851.1-2.053.162-2.917h-.054l-.783,2.255L703,4418.941h-.837l-1.877-5.145-.784-2.255h-.053c.053.864.148,2.066.148,2.917v5.482h-1.134Z"/>
    <path id="패스_3034" data-name="패스 3034" class="cls-4" d="M708.667,4418.036c0-1.593,1.391-2.39,4.51-2.741,0-.945-.311-1.85-1.512-1.85a4.029,4.029,0,0,0-2.2.784l-.486-.852a5.515,5.515,0,0,1,2.89-.959c1.782,0,2.539,1.2,2.539,3.012v4.51h-1.013l-.108-.877h-.04a3.931,3.931,0,0,1-2.432,1.053A1.988,1.988,0,0,1,708.667,4418.036Zm4.51.122V4416.1c-2.471.3-3.309.9-3.309,1.85,0,.838.568,1.176,1.3,1.176A3,3,0,0,0,713.177,4418.158Z"/>
    <path id="패스_3035" data-name="패스 3035" class="cls-4" d="M716.6,4412.607h1.014l.108,1.054h.04a3.521,3.521,0,0,1,2.458-1.243c1.539,0,2.241,1,2.241,2.877v4.645h-1.229v-4.483c0-1.377-.418-1.958-1.39-1.958a2.79,2.79,0,0,0-2.013,1.12v5.321H716.6Z"/>
    <path id="패스_3036" data-name="패스 3036" class="cls-4" d="M724.205,4418.036c0-1.593,1.391-2.39,4.51-2.741,0-.945-.31-1.85-1.512-1.85a4.029,4.029,0,0,0-2.2.784l-.486-.852a5.512,5.512,0,0,1,2.89-.959c1.782,0,2.538,1.2,2.538,3.012v4.51h-1.012l-.109-.877h-.04a3.926,3.926,0,0,1-2.431,1.053A1.989,1.989,0,0,1,724.205,4418.036Zm4.51.122V4416.1c-2.471.3-3.308.9-3.308,1.85,0,.838.567,1.176,1.3,1.176A3,3,0,0,0,728.715,4418.158Z"/>
    <path id="패스_3037" data-name="패스 3037" class="cls-4" d="M731.549,4421.345a2.074,2.074,0,0,1,1.094-1.661v-.054a1.326,1.326,0,0,1-.676-1.2,1.789,1.789,0,0,1,.824-1.364v-.054a2.572,2.572,0,0,1-.958-1.971,2.612,2.612,0,0,1,2.754-2.621,3.064,3.064,0,0,1,1.026.189h2.553v.946h-1.5a2.1,2.1,0,0,1,.594,1.512,2.514,2.514,0,0,1-2.674,2.552,2.552,2.552,0,0,1-1.094-.256,1.093,1.093,0,0,0-.472.877c0,.473.3.8,1.283.8h1.431c1.7,0,2.552.541,2.552,1.742,0,1.365-1.431,2.539-3.7,2.539C732.791,4423.316,731.549,4422.614,731.549,4421.345Zm5.55-.378c0-.676-.527-.9-1.5-.9h-1.269a4.135,4.135,0,0,1-.946-.123,1.545,1.545,0,0,0-.756,1.243c0,.783.8,1.3,2.134,1.3C736.167,4422.479,737.1,4421.736,737.1,4420.967Zm-.959-5.928a1.567,1.567,0,1,0-3.119,0,1.569,1.569,0,1,0,3.119,0Z"/>
    <path id="패스_3038" data-name="패스 3038" class="cls-4" d="M738.973,4416.281c0-2.377,1.608-3.863,3.309-3.863,1.864,0,2.917,1.352,2.917,3.444a4.782,4.782,0,0,1-.054.7H740.2a2.431,2.431,0,0,0,2.431,2.567,3.16,3.16,0,0,0,1.837-.582l.445.81a4.361,4.361,0,0,1-2.431.757A3.505,3.505,0,0,1,738.973,4416.281Zm5.145-.594c0-1.486-.675-2.283-1.823-2.283a2.256,2.256,0,0,0-2.106,2.283Z"/>
    <path id="패스_3039" data-name="패스 3039" class="cls-4" d="M746.979,4412.607h1.013l.108,1.067h.041a3.225,3.225,0,0,1,2.282-1.256,1.934,1.934,0,0,1,2.025,1.405,3.471,3.471,0,0,1,2.418-1.405c1.512,0,2.228,1,2.228,2.877v4.645h-1.229v-4.483c0-1.377-.432-1.958-1.364-1.958a2.705,2.705,0,0,0-1.85,1.12v5.321h-1.229v-4.483c0-1.377-.432-1.958-1.364-1.958a2.705,2.705,0,0,0-1.85,1.12v5.321h-1.229Z"/>
    <path id="패스_3040" data-name="패스 3040" class="cls-4" d="M758.872,4416.281c0-2.377,1.607-3.863,3.309-3.863,1.863,0,2.917,1.352,2.917,3.444a4.634,4.634,0,0,1-.055.7H760.1a2.431,2.431,0,0,0,2.431,2.567,3.16,3.16,0,0,0,1.837-.582l.445.81a4.361,4.361,0,0,1-2.431.757A3.505,3.505,0,0,1,758.872,4416.281Zm5.146-.594c0-1.486-.676-2.283-1.824-2.283a2.256,2.256,0,0,0-2.106,2.283Z"/>
    <path id="패스_3041" data-name="패스 3041" class="cls-4" d="M766.877,4412.607h1.014l.108,1.054h.04a3.521,3.521,0,0,1,2.458-1.243c1.539,0,2.241,1,2.241,2.877v4.645h-1.229v-4.483c0-1.377-.418-1.958-1.39-1.958a2.79,2.79,0,0,0-2.013,1.12v5.321h-1.229Z"/>
    <path id="패스_3042" data-name="패스 3042" class="cls-4" d="M775.167,4417.672v-4.065h-1.094v-.931l1.148-.069.149-2.052H776.4v2.052h1.985v1H776.4v4.092c0,.9.283,1.418,1.134,1.418a2.634,2.634,0,0,0,.837-.189l.243.918a4.648,4.648,0,0,1-1.35.27C775.693,4420.116,775.167,4419.144,775.167,4417.672Z"/>
    <path id="패스_3043" data-name="패스 3043" class="cls-4" d="M785.238,4411.1h-3v-1.054h7.252v1.054h-3v8.844h-1.256Z"/>
    <path id="패스_3044" data-name="패스 3044" class="cls-4" d="M789.4,4416.281c0-2.377,1.607-3.863,3.308-3.863,1.864,0,2.917,1.352,2.917,3.444a4.782,4.782,0,0,1-.054.7h-4.942a2.43,2.43,0,0,0,2.43,2.567,3.158,3.158,0,0,0,1.837-.582l.445.81a4.36,4.36,0,0,1-2.43.757A3.5,3.5,0,0,1,789.4,4416.281Zm5.145-.594c0-1.486-.675-2.283-1.823-2.283a2.257,2.257,0,0,0-2.107,2.283Z"/>
    <path id="패스_3045" data-name="패스 3045" class="cls-4" d="M796.807,4418.036c0-1.593,1.391-2.39,4.51-2.741,0-.945-.311-1.85-1.512-1.85a4.026,4.026,0,0,0-2.2.784l-.487-.852a5.515,5.515,0,0,1,2.89-.959c1.783,0,2.539,1.2,2.539,3.012v4.51h-1.013l-.108-.877h-.04a3.931,3.931,0,0,1-2.431,1.053A1.988,1.988,0,0,1,796.807,4418.036Zm4.51.122V4416.1c-2.471.3-3.309.9-3.309,1.85,0,.838.568,1.176,1.3,1.176A3,3,0,0,0,801.317,4418.158Z"/>
    <path id="패스_3046" data-name="패스 3046" class="cls-4" d="M804.745,4412.607h1.013l.108,1.067h.04a3.229,3.229,0,0,1,2.282-1.256,1.935,1.935,0,0,1,2.026,1.405,3.469,3.469,0,0,1,2.417-1.405c1.513,0,2.228,1,2.228,2.877v4.645H813.63v-4.483c0-1.377-.432-1.958-1.363-1.958a2.7,2.7,0,0,0-1.85,1.12v5.321h-1.23v-4.483c0-1.377-.432-1.958-1.363-1.958a2.705,2.705,0,0,0-1.85,1.12v5.321h-1.229Z"/>
  </g>
  <path id="패스_3047" data-name="패스 3047" class="cls-3" d="M202.992,4525.4H91.492v40h111.5Z" transform="translate(-57.858 -4152.254)"/>
  <g id="그룹_988" data-name="그룹 988" transform="translate(-57.858 -4152.254)">
    <path id="패스_3048" data-name="패스 3048" class="cls-8" d="M122.614,4533h2.659c1.945,0,3.215.73,3.215,2.391a2.116,2.116,0,0,1-1.482,2.148v.066a2.267,2.267,0,0,1,2.064,2.364c0,1.9-1.428,2.877-3.6,2.877h-2.858Zm2.408,4.295c1.9,0,2.672-.69,2.672-1.809,0-1.338-.886-1.824-2.592-1.824h-1.694v3.633Zm.265,4.875c1.865,0,3-.676,3-2.2,0-1.377-1.085-2.026-3-2.026h-1.879v4.227Z"/>
    <path id="패스_3049" data-name="패스 3049" class="cls-8" d="M130.883,4540.252v-4.6h.767v4.51c0,1.471.45,2.16,1.535,2.16.82,0,1.4-.431,2.2-1.4v-5.266h.767v7.2H135.5l-.066-1.19H135.4a3.116,3.116,0,0,1-2.382,1.365C131.544,4543.021,130.883,4542.1,130.883,4540.252Z"/>
    <path id="패스_3050" data-name="패스 3050" class="cls-8" d="M137.775,4542.035l.411-.566a3.2,3.2,0,0,0,2.222.9c1.072,0,1.614-.621,1.614-1.365,0-.85-.886-1.242-1.707-1.539-1.044-.377-2.209-.824-2.209-2.067a2.047,2.047,0,0,1,2.315-1.943,3.367,3.367,0,0,1,2.051.77l-.4.539a2.672,2.672,0,0,0-1.68-.647c-1.045,0-1.521.594-1.521,1.242,0,.8.82,1.094,1.64,1.405,1.085.418,2.276.81,2.276,2.2a2.143,2.143,0,0,1-2.421,2.052A4.092,4.092,0,0,1,137.775,4542.035Z"/>
    <path id="패스_3051" data-name="패스 3051" class="cls-8" d="M144.179,4533.338a.622.622,0,0,1,.648-.649.635.635,0,1,1,0,1.27A.622.622,0,0,1,144.179,4533.338Zm.251,2.31h.768v7.2h-.768Z"/>
    <path id="패스_3052" data-name="패스 3052" class="cls-8" d="M147.579,4535.648h.635l.093,1.094h.026a3.44,3.44,0,0,1,2.408-1.283c1.468,0,2.143.932,2.143,2.781v4.606h-.767v-4.5c0-1.5-.464-2.188-1.548-2.188-.82,0-1.4.434-2.223,1.3v5.389h-.767Z"/>
    <path id="패스_3053" data-name="패스 3053" class="cls-8" d="M154.736,4539.254c0-2.338,1.5-3.795,3.1-3.795,1.706,0,2.725,1.242,2.725,3.348a3.883,3.883,0,0,1-.04.568h-5c.039,1.756,1.058,2.984,2.579,2.984a3.12,3.12,0,0,0,1.879-.621l.291.58a3.878,3.878,0,0,1-2.249.7C156.205,4543.021,154.736,4541.617,154.736,4539.254Zm5.12-.5c0-1.742-.781-2.621-2.011-2.621-1.151,0-2.183.972-2.328,2.621Z"/>
    <path id="패스_3054" data-name="패스 3054" class="cls-8" d="M161.642,4542.035l.41-.566a3.2,3.2,0,0,0,2.223.9c1.072,0,1.614-.621,1.614-1.365,0-.85-.887-1.242-1.707-1.539-1.045-.377-2.209-.824-2.209-2.067a2.047,2.047,0,0,1,2.315-1.943,3.367,3.367,0,0,1,2.051.77l-.4.539a2.675,2.675,0,0,0-1.68-.647c-1.046,0-1.522.594-1.522,1.242,0,.8.821,1.094,1.641,1.405,1.084.418,2.275.81,2.275,2.2a2.143,2.143,0,0,1-2.421,2.052A4.089,4.089,0,0,1,161.642,4542.035Z"/>
    <path id="패스_3055" data-name="패스 3055" class="cls-8" d="M167.781,4542.035l.41-.566a3.2,3.2,0,0,0,2.223.9c1.071,0,1.613-.621,1.613-1.365,0-.85-.886-1.242-1.706-1.539-1.045-.377-2.209-.824-2.209-2.067a2.046,2.046,0,0,1,2.315-1.943,3.369,3.369,0,0,1,2.051.77l-.4.539a2.677,2.677,0,0,0-1.681-.647c-1.045,0-1.521.594-1.521,1.242,0,.8.82,1.094,1.641,1.405,1.084.418,2.275.81,2.275,2.2a2.143,2.143,0,0,1-2.421,2.052A4.089,4.089,0,0,1,167.781,4542.035Z"/>
  </g>
  <g id="그룹_989" data-name="그룹 989" transform="translate(-57.858 -4152.254)">
    <path id="패스_3056" data-name="패스 3056" class="cls-8" d="M112.679,4550h2.275c2.963,0,4.419,1.877,4.419,4.889s-1.456,4.957-4.406,4.957h-2.288Zm2.2,9.156c2.54,0,3.664-1.714,3.664-4.267s-1.124-4.213-3.664-4.213h-1.4v8.48Z"/>
    <path id="패스_3057" data-name="패스 3057" class="cls-8" d="M120.895,4556.25c0-2.338,1.5-3.795,3.1-3.795,1.707,0,2.726,1.242,2.726,3.348a3.888,3.888,0,0,1-.04.568h-5c.04,1.756,1.058,2.984,2.58,2.984a3.12,3.12,0,0,0,1.878-.621l.291.58a3.877,3.877,0,0,1-2.248.7C122.363,4560.018,120.895,4558.613,120.895,4556.25Zm5.12-.5c0-1.742-.781-2.621-2.012-2.621-1.15,0-2.182.973-2.328,2.621Z"/>
    <path id="패스_3058" data-name="패스 3058" class="cls-8" d="M128.528,4552.645h.635l.093.876h.026a4.055,4.055,0,0,1,2.355-1.066c1.879,0,2.831,1.457,2.831,3.672,0,2.459-1.455,3.891-3.109,3.891a3.446,3.446,0,0,1-2.077-.879l.013,1.324v2.592h-.767Zm5.12,3.482c0-1.729-.582-2.984-2.157-2.984a3.515,3.515,0,0,0-2.2,1.148v4.16a3.207,3.207,0,0,0,2,.877C132.669,4559.328,133.648,4558.059,133.648,4556.127Z"/>
    <path id="패스_3059" data-name="패스 3059" class="cls-8" d="M135.911,4558.031c0-1.593,1.389-2.349,4.5-2.713.026-1.068-.278-2.175-1.615-2.175a3.777,3.777,0,0,0-2.222.824l-.344-.567a4.826,4.826,0,0,1,2.672-.945c1.681,0,2.276,1.229,2.276,2.822v4.565h-.648l-.08-.918h-.026a4.024,4.024,0,0,1-2.461,1.094A1.878,1.878,0,0,1,135.911,4558.031Zm4.5.2V4555.9c-2.779.325-3.731.987-3.731,2.094a1.282,1.282,0,0,0,1.442,1.363A3.447,3.447,0,0,0,140.409,4558.234Z"/>
    <path id="패스_3060" data-name="패스 3060" class="cls-8" d="M143.451,4552.645h.635l.093,1.335h.027a2.431,2.431,0,0,1,2-1.525,1.38,1.38,0,0,1,.714.162l-.158.7a1.492,1.492,0,0,0-.649-.121c-.621,0-1.376.473-1.891,1.811v4.834h-.768Z"/>
    <path id="패스_3061" data-name="패스 3061" class="cls-8" d="M148.916,4557.789v-4.484h-1.1v-.594l1.125-.066.092-2.081h.649v2.081h2.024v.66h-2.024v4.537c0,.906.238,1.5,1.177,1.5a2.4,2.4,0,0,0,.86-.2l.185.607a3.918,3.918,0,0,1-1.177.272C149.339,4560.018,148.916,4559.125,148.916,4557.789Z"/>
    <path id="패스_3062" data-name="패스 3062" class="cls-8" d="M153.387,4552.645h.635l.093,1.093h.026a3.255,3.255,0,0,1,2.222-1.283,1.832,1.832,0,0,1,1.945,1.457,3.51,3.51,0,0,1,2.381-1.457c1.416,0,2.117.932,2.117,2.781v4.606h-.767v-4.5c0-1.5-.49-2.188-1.521-2.188a2.969,2.969,0,0,0-2.038,1.3v5.389h-.767v-4.5c0-1.5-.476-2.188-1.522-2.188a2.971,2.971,0,0,0-2.037,1.3v5.389h-.767Z"/>
    <path id="패스_3063" data-name="패스 3063" class="cls-8" d="M164.672,4556.25c0-2.338,1.5-3.795,3.1-3.795,1.706,0,2.725,1.242,2.725,3.348a3.889,3.889,0,0,1-.04.568h-5c.039,1.756,1.058,2.984,2.579,2.984a3.123,3.123,0,0,0,1.879-.621l.291.58a3.878,3.878,0,0,1-2.249.7C166.141,4560.018,164.672,4558.613,164.672,4556.25Zm5.12-.5c0-1.742-.781-2.621-2.011-2.621-1.151,0-2.183.973-2.328,2.621Z"/>
    <path id="패스_3064" data-name="패스 3064" class="cls-8" d="M172.306,4552.645h.635l.093,1.093h.026a3.441,3.441,0,0,1,2.408-1.283c1.468,0,2.143.932,2.143,2.781v4.606h-.767v-4.5c0-1.5-.464-2.188-1.548-2.188-.82,0-1.4.434-2.223,1.3v5.389h-.767Z"/>
    <path id="패스_3065" data-name="패스 3065" class="cls-8" d="M180.111,4557.789v-4.484h-1.1v-.594l1.125-.066.092-2.081h.648v2.081H182.9v.66h-2.024v4.537c0,.906.239,1.5,1.178,1.5a2.408,2.408,0,0,0,.86-.2l.185.607a3.917,3.917,0,0,1-1.178.272C180.535,4560.018,180.111,4559.125,180.111,4557.789Z"/>
  </g>
  <path id="패스_3066" data-name="패스 3066" class="cls-3" d="M320.782,4525.4h-111.5v40h111.5Z" transform="translate(-57.858 -4152.254)"/>
  <g id="그룹_990" data-name="그룹 990" transform="translate(-57.858 -4152.254)">
    <path id="패스_3067" data-name="패스 3067" class="cls-8" d="M240.4,4533h2.659c1.945,0,3.215.73,3.215,2.391a2.116,2.116,0,0,1-1.482,2.148v.066a2.267,2.267,0,0,1,2.064,2.364c0,1.9-1.429,2.877-3.6,2.877H240.4Zm2.408,4.295c1.9,0,2.672-.69,2.672-1.809,0-1.338-.886-1.824-2.593-1.824H241.2v3.633Zm.264,4.875c1.865,0,3-.676,3-2.2,0-1.377-1.085-2.026-3-2.026H241.2v4.227Z"/>
    <path id="패스_3068" data-name="패스 3068" class="cls-8" d="M248.673,4540.252v-4.6h.767v4.51c0,1.471.45,2.16,1.535,2.16.82,0,1.4-.431,2.2-1.4v-5.266h.767v7.2h-.648l-.066-1.19h-.04a3.115,3.115,0,0,1-2.381,1.365C249.334,4543.021,248.673,4542.1,248.673,4540.252Z"/>
    <path id="패스_3069" data-name="패스 3069" class="cls-8" d="M255.565,4542.035l.41-.566a3.2,3.2,0,0,0,2.223.9c1.072,0,1.614-.621,1.614-1.365,0-.85-.887-1.242-1.707-1.539-1.045-.377-2.209-.824-2.209-2.067a2.046,2.046,0,0,1,2.315-1.943,3.369,3.369,0,0,1,2.051.77l-.4.539a2.675,2.675,0,0,0-1.68-.647c-1.046,0-1.522.594-1.522,1.242,0,.8.82,1.094,1.641,1.405,1.084.418,2.275.81,2.275,2.2a2.143,2.143,0,0,1-2.421,2.052A4.089,4.089,0,0,1,255.565,4542.035Z"/>
    <path id="패스_3070" data-name="패스 3070" class="cls-8" d="M261.969,4533.338a.622.622,0,0,1,.648-.649.635.635,0,1,1,0,1.27A.622.622,0,0,1,261.969,4533.338Zm.251,2.31h.767v7.2h-.767Z"/>
    <path id="패스_3071" data-name="패스 3071" class="cls-8" d="M265.368,4535.648H266l.093,1.094h.027a3.438,3.438,0,0,1,2.407-1.283c1.469,0,2.143.932,2.143,2.781v4.606h-.767v-4.5c0-1.5-.463-2.188-1.548-2.188-.82,0-1.4.434-2.222,1.3v5.389h-.768Z"/>
    <path id="패스_3072" data-name="패스 3072" class="cls-8" d="M272.525,4539.254c0-2.338,1.5-3.795,3.1-3.795,1.707,0,2.726,1.242,2.726,3.348a3.884,3.884,0,0,1-.04.568h-5c.04,1.756,1.058,2.984,2.58,2.984a3.117,3.117,0,0,0,1.878-.621l.291.58a3.877,3.877,0,0,1-2.248.7C273.994,4543.021,272.525,4541.617,272.525,4539.254Zm5.121-.5c0-1.742-.781-2.621-2.012-2.621-1.151,0-2.182.972-2.328,2.621Z"/>
    <path id="패스_3073" data-name="패스 3073" class="cls-8" d="M279.432,4542.035l.41-.566a3.2,3.2,0,0,0,2.222.9c1.072,0,1.614-.621,1.614-1.365,0-.85-.886-1.242-1.706-1.539-1.045-.377-2.209-.824-2.209-2.067a2.046,2.046,0,0,1,2.315-1.943,3.364,3.364,0,0,1,2.05.77l-.4.539a2.672,2.672,0,0,0-1.68-.647c-1.045,0-1.521.594-1.521,1.242,0,.8.82,1.094,1.64,1.405,1.085.418,2.276.81,2.276,2.2a2.143,2.143,0,0,1-2.421,2.052A4.089,4.089,0,0,1,279.432,4542.035Z"/>
    <path id="패스_3074" data-name="패스 3074" class="cls-8" d="M285.57,4542.035l.41-.566a3.2,3.2,0,0,0,2.223.9c1.072,0,1.614-.621,1.614-1.365,0-.85-.886-1.242-1.707-1.539-1.045-.377-2.209-.824-2.209-2.067a2.047,2.047,0,0,1,2.315-1.943,3.367,3.367,0,0,1,2.051.77l-.4.539a2.672,2.672,0,0,0-1.68-.647c-1.045,0-1.522.594-1.522,1.242,0,.8.821,1.094,1.641,1.405,1.085.418,2.275.81,2.275,2.2a2.142,2.142,0,0,1-2.42,2.052A4.092,4.092,0,0,1,285.57,4542.035Z"/>
  </g>
  <g id="그룹_991" data-name="그룹 991" transform="translate(-57.858 -4152.254)">
    <path id="패스_3075" data-name="패스 3075" class="cls-8" d="M230.468,4550h2.276c2.963,0,4.418,1.877,4.418,4.889s-1.455,4.957-4.4,4.957h-2.289Zm2.2,9.156c2.54,0,3.665-1.714,3.665-4.267s-1.125-4.213-3.665-4.213h-1.4v8.48Z"/>
    <path id="패스_3076" data-name="패스 3076" class="cls-8" d="M238.684,4556.25c0-2.338,1.495-3.795,3.1-3.795,1.706,0,2.725,1.242,2.725,3.348a3.753,3.753,0,0,1-.04.568h-5c.039,1.756,1.058,2.984,2.579,2.984a3.123,3.123,0,0,0,1.879-.621l.291.58a3.878,3.878,0,0,1-2.249.7C240.153,4560.018,238.684,4558.613,238.684,4556.25Zm5.12-.5c0-1.742-.781-2.621-2.011-2.621-1.151,0-2.183.973-2.328,2.621Z"/>
    <path id="패스_3077" data-name="패스 3077" class="cls-8" d="M246.317,4552.645h.636l.092.876h.027a4.052,4.052,0,0,1,2.354-1.066c1.879,0,2.831,1.457,2.831,3.672,0,2.459-1.455,3.891-3.109,3.891a3.441,3.441,0,0,1-2.076-.879l.013,1.324v2.592h-.768Zm5.12,3.482c0-1.729-.582-2.984-2.156-2.984a3.51,3.51,0,0,0-2.2,1.148v4.16a3.2,3.2,0,0,0,2,.877C250.458,4559.328,251.437,4558.059,251.437,4556.127Z"/>
    <path id="패스_3078" data-name="패스 3078" class="cls-8" d="M253.7,4558.031c0-1.593,1.389-2.349,4.5-2.713.027-1.068-.278-2.175-1.614-2.175a3.772,3.772,0,0,0-2.222.824l-.344-.567a4.82,4.82,0,0,1,2.672-.945c1.68,0,2.275,1.229,2.275,2.822v4.565h-.648l-.079-.918h-.027a4.024,4.024,0,0,1-2.461,1.094A1.878,1.878,0,0,1,253.7,4558.031Zm4.5.2V4555.9c-2.778.325-3.731.987-3.731,2.094a1.282,1.282,0,0,0,1.443,1.363A3.443,3.443,0,0,0,258.2,4558.234Z"/>
    <path id="패스_3079" data-name="패스 3079" class="cls-8" d="M261.241,4552.645h.635l.093,1.335h.026a2.431,2.431,0,0,1,2-1.525,1.38,1.38,0,0,1,.714.162l-.159.7a1.488,1.488,0,0,0-.648-.121c-.622,0-1.376.473-1.892,1.811v4.834h-.767Z"/>
    <path id="패스_3080" data-name="패스 3080" class="cls-8" d="M266.7,4557.789v-4.484h-1.1v-.594l1.124-.066.093-2.081h.648v2.081H269.5v.66h-2.024v4.537c0,.906.238,1.5,1.177,1.5a2.4,2.4,0,0,0,.86-.2l.186.607a3.917,3.917,0,0,1-1.178.272C267.128,4560.018,266.7,4559.125,266.7,4557.789Z"/>
    <path id="패스_3081" data-name="패스 3081" class="cls-8" d="M271.176,4552.645h.636l.092,1.093h.027a3.251,3.251,0,0,1,2.222-1.283,1.834,1.834,0,0,1,1.945,1.457,3.51,3.51,0,0,1,2.381-1.457c1.416,0,2.117.932,2.117,2.781v4.606h-.767v-4.5c0-1.5-.49-2.188-1.522-2.188a2.969,2.969,0,0,0-2.037,1.3v5.389H275.5v-4.5c0-1.5-.476-2.188-1.521-2.188a2.969,2.969,0,0,0-2.037,1.3v5.389h-.768Z"/>
    <path id="패스_3082" data-name="패스 3082" class="cls-8" d="M282.461,4556.25c0-2.338,1.5-3.795,3.1-3.795,1.707,0,2.725,1.242,2.725,3.348a3.894,3.894,0,0,1-.039.568h-5c.04,1.756,1.058,2.984,2.58,2.984a3.12,3.12,0,0,0,1.878-.621l.291.58a3.878,3.878,0,0,1-2.249.7C283.93,4560.018,282.461,4558.613,282.461,4556.25Zm5.121-.5c0-1.742-.781-2.621-2.012-2.621-1.151,0-2.182.973-2.328,2.621Z"/>
    <path id="패스_3083" data-name="패스 3083" class="cls-8" d="M290.1,4552.645h.635l.093,1.093h.027a3.441,3.441,0,0,1,2.407-1.283c1.469,0,2.143.932,2.143,2.781v4.606h-.767v-4.5c0-1.5-.463-2.188-1.548-2.188-.82,0-1.4.434-2.222,1.3v5.389H290.1Z"/>
    <path id="패스_3084" data-name="패스 3084" class="cls-8" d="M297.9,4557.789v-4.484h-1.1v-.594l1.124-.066.093-2.081h.648v2.081h2.024v.66h-2.024v4.537c0,.906.238,1.5,1.177,1.5a2.4,2.4,0,0,0,.86-.2l.186.607a3.923,3.923,0,0,1-1.178.272C298.324,4560.018,297.9,4559.125,297.9,4557.789Z"/>
  </g>
  <path id="패스_3085" data-name="패스 3085" class="cls-3" d="M438.571,4525.4h-111.5v40h111.5Z" transform="translate(-57.858 -4152.254)"/>
  <g id="그룹_992" data-name="그룹 992" transform="translate(-57.858 -4152.254)">
    <path id="패스_3086" data-name="패스 3086" class="cls-8" d="M358.193,4533h2.66c1.944,0,3.214.73,3.214,2.391a2.116,2.116,0,0,1-1.482,2.148v.066a2.267,2.267,0,0,1,2.064,2.364c0,1.9-1.428,2.877-3.6,2.877h-2.858Zm2.408,4.295c1.9,0,2.672-.69,2.672-1.809,0-1.338-.886-1.824-2.592-1.824h-1.694v3.633Zm.265,4.875c1.865,0,3-.676,3-2.2,0-1.377-1.085-2.026-3-2.026h-1.879v4.227Z"/>
    <path id="패스_3087" data-name="패스 3087" class="cls-8" d="M366.462,4540.252v-4.6h.767v4.51c0,1.471.45,2.16,1.535,2.16.82,0,1.4-.431,2.2-1.4v-5.266h.768v7.2h-.649l-.066-1.19h-.039a3.116,3.116,0,0,1-2.382,1.365C367.124,4543.021,366.462,4542.1,366.462,4540.252Z"/>
    <path id="패스_3088" data-name="패스 3088" class="cls-8" d="M373.354,4542.035l.411-.566a3.2,3.2,0,0,0,2.222.9c1.072,0,1.614-.621,1.614-1.365,0-.85-.886-1.242-1.706-1.539-1.045-.377-2.209-.824-2.209-2.067a2.046,2.046,0,0,1,2.314-1.943,3.364,3.364,0,0,1,2.051.77l-.4.539a2.672,2.672,0,0,0-1.68-.647c-1.045,0-1.521.594-1.521,1.242,0,.8.82,1.094,1.64,1.405,1.085.418,2.276.81,2.276,2.2a2.143,2.143,0,0,1-2.421,2.052A4.094,4.094,0,0,1,373.354,4542.035Z"/>
    <path id="패스_3089" data-name="패스 3089" class="cls-8" d="M379.758,4533.338a.622.622,0,0,1,.648-.649.635.635,0,1,1,0,1.27A.622.622,0,0,1,379.758,4533.338Zm.251,2.31h.768v7.2h-.768Z"/>
    <path id="패스_3090" data-name="패스 3090" class="cls-8" d="M383.158,4535.648h.635l.093,1.094h.026a3.44,3.44,0,0,1,2.408-1.283c1.468,0,2.143.932,2.143,2.781v4.606H387.7v-4.5c0-1.5-.464-2.188-1.548-2.188-.82,0-1.4.434-2.223,1.3v5.389h-.767Z"/>
    <path id="패스_3091" data-name="패스 3091" class="cls-8" d="M390.315,4539.254c0-2.338,1.495-3.795,3.1-3.795,1.706,0,2.725,1.242,2.725,3.348a3.753,3.753,0,0,1-.04.568h-5c.039,1.756,1.058,2.984,2.579,2.984a3.12,3.12,0,0,0,1.879-.621l.291.58a3.878,3.878,0,0,1-2.249.7C391.784,4543.021,390.315,4541.617,390.315,4539.254Zm5.12-.5c0-1.742-.781-2.621-2.011-2.621-1.151,0-2.183.972-2.328,2.621Z"/>
    <path id="패스_3092" data-name="패스 3092" class="cls-8" d="M397.221,4542.035l.41-.566a3.2,3.2,0,0,0,2.223.9c1.072,0,1.614-.621,1.614-1.365,0-.85-.886-1.242-1.707-1.539-1.045-.377-2.209-.824-2.209-2.067a2.047,2.047,0,0,1,2.315-1.943,3.367,3.367,0,0,1,2.051.77l-.4.539a2.675,2.675,0,0,0-1.68-.647c-1.046,0-1.522.594-1.522,1.242,0,.8.821,1.094,1.641,1.405,1.084.418,2.275.81,2.275,2.2a2.143,2.143,0,0,1-2.421,2.052A4.089,4.089,0,0,1,397.221,4542.035Z"/>
    <path id="패스_3093" data-name="패스 3093" class="cls-8" d="M403.36,4542.035l.41-.566a3.2,3.2,0,0,0,2.223.9c1.071,0,1.613-.621,1.613-1.365,0-.85-.886-1.242-1.706-1.539-1.045-.377-2.209-.824-2.209-2.067a2.046,2.046,0,0,1,2.315-1.943,3.369,3.369,0,0,1,2.051.77l-.4.539a2.677,2.677,0,0,0-1.681-.647c-1.045,0-1.521.594-1.521,1.242,0,.8.82,1.094,1.641,1.405,1.084.418,2.275.81,2.275,2.2a2.143,2.143,0,0,1-2.421,2.052A4.089,4.089,0,0,1,403.36,4542.035Z"/>
  </g>
  <g id="그룹_993" data-name="그룹 993" transform="translate(-57.858 -4152.254)">
    <path id="패스_3094" data-name="패스 3094" class="cls-8" d="M348.258,4550h2.275c2.964,0,4.419,1.877,4.419,4.889s-1.455,4.957-4.406,4.957h-2.288Zm2.2,9.156c2.54,0,3.664-1.714,3.664-4.267s-1.124-4.213-3.664-4.213h-1.4v8.48Z"/>
    <path id="패스_3095" data-name="패스 3095" class="cls-8" d="M356.474,4556.25c0-2.338,1.495-3.795,3.1-3.795,1.707,0,2.726,1.242,2.726,3.348a3.888,3.888,0,0,1-.04.568h-5c.04,1.756,1.058,2.984,2.58,2.984a3.118,3.118,0,0,0,1.878-.621l.291.58a3.875,3.875,0,0,1-2.248.7C357.942,4560.018,356.474,4558.613,356.474,4556.25Zm5.12-.5c0-1.742-.781-2.621-2.011-2.621-1.151,0-2.183.973-2.329,2.621Z"/>
    <path id="패스_3096" data-name="패스 3096" class="cls-8" d="M364.107,4552.645h.635l.093.876h.026a4.055,4.055,0,0,1,2.355-1.066c1.879,0,2.831,1.457,2.831,3.672,0,2.459-1.455,3.891-3.109,3.891a3.446,3.446,0,0,1-2.077-.879l.014,1.324v2.592h-.768Zm5.12,3.482c0-1.729-.582-2.984-2.157-2.984a3.51,3.51,0,0,0-2.2,1.148v4.16a3.2,3.2,0,0,0,2,.877C368.248,4559.328,369.227,4558.059,369.227,4556.127Z"/>
    <path id="패스_3097" data-name="패스 3097" class="cls-8" d="M371.49,4558.031c0-1.593,1.389-2.349,4.5-2.713.026-1.068-.278-2.175-1.614-2.175a3.777,3.777,0,0,0-2.223.824l-.344-.567a4.826,4.826,0,0,1,2.672-.945c1.681,0,2.276,1.229,2.276,2.822v4.565h-.648l-.08-.918H376a4.024,4.024,0,0,1-2.461,1.094A1.878,1.878,0,0,1,371.49,4558.031Zm4.5.2V4555.9c-2.779.325-3.731.987-3.731,2.094a1.282,1.282,0,0,0,1.442,1.363A3.447,3.447,0,0,0,375.988,4558.234Z"/>
    <path id="패스_3098" data-name="패스 3098" class="cls-8" d="M379.03,4552.645h.636l.092,1.335h.027a2.431,2.431,0,0,1,2-1.525,1.386,1.386,0,0,1,.715.162l-.159.7a1.492,1.492,0,0,0-.649-.121c-.621,0-1.376.473-1.891,1.811v4.834h-.768Z"/>
    <path id="패스_3099" data-name="패스 3099" class="cls-8" d="M384.495,4557.789v-4.484h-1.1v-.594l1.125-.066.092-2.081h.649v2.081h2.024v.66h-2.024v4.537c0,.906.238,1.5,1.177,1.5a2.4,2.4,0,0,0,.86-.2l.185.607a3.911,3.911,0,0,1-1.177.272C384.918,4560.018,384.495,4559.125,384.495,4557.789Z"/>
    <path id="패스_3100" data-name="패스 3100" class="cls-8" d="M388.966,4552.645h.635l.093,1.093h.026a3.255,3.255,0,0,1,2.222-1.283,1.832,1.832,0,0,1,1.945,1.457,3.51,3.51,0,0,1,2.382-1.457c1.415,0,2.116.932,2.116,2.781v4.606h-.767v-4.5c0-1.5-.49-2.188-1.521-2.188a2.969,2.969,0,0,0-2.038,1.3v5.389h-.767v-4.5c0-1.5-.476-2.188-1.521-2.188a2.971,2.971,0,0,0-2.038,1.3v5.389h-.767Z"/>
    <path id="패스_3101" data-name="패스 3101" class="cls-8" d="M400.251,4556.25c0-2.338,1.495-3.795,3.1-3.795,1.706,0,2.725,1.242,2.725,3.348a3.757,3.757,0,0,1-.04.568h-5c.039,1.756,1.058,2.984,2.579,2.984a3.123,3.123,0,0,0,1.879-.621l.291.58a3.878,3.878,0,0,1-2.249.7C401.72,4560.018,400.251,4558.613,400.251,4556.25Zm5.12-.5c0-1.742-.781-2.621-2.011-2.621-1.151,0-2.183.973-2.328,2.621Z"/>
    <path id="패스_3102" data-name="패스 3102" class="cls-8" d="M407.885,4552.645h.635l.093,1.093h.026a3.443,3.443,0,0,1,2.408-1.283c1.468,0,2.143.932,2.143,2.781v4.606h-.767v-4.5c0-1.5-.464-2.188-1.548-2.188-.82,0-1.4.434-2.223,1.3v5.389h-.767Z"/>
    <path id="패스_3103" data-name="패스 3103" class="cls-8" d="M415.69,4557.789v-4.484h-1.1v-.594l1.125-.066.092-2.081h.649v2.081h2.023v.66h-2.023v4.537c0,.906.238,1.5,1.177,1.5a2.408,2.408,0,0,0,.86-.2l.185.607a3.917,3.917,0,0,1-1.178.272C416.114,4560.018,415.69,4559.125,415.69,4557.789Z"/>
  </g>
  <path id="패스_3104" data-name="패스 3104" class="cls-3" d="M556.361,4525.4h-111.5v40h111.5Z" transform="translate(-57.858 -4152.254)"/>
  <g id="그룹_994" data-name="그룹 994" transform="translate(-57.858 -4152.254)">
    <path id="패스_3105" data-name="패스 3105" class="cls-8" d="M475.983,4533h2.659c1.945,0,3.215.73,3.215,2.391a2.116,2.116,0,0,1-1.482,2.148v.066a2.267,2.267,0,0,1,2.064,2.364c0,1.9-1.429,2.877-3.6,2.877h-2.857Zm2.408,4.295c1.9,0,2.672-.69,2.672-1.809,0-1.338-.886-1.824-2.593-1.824h-1.693v3.633Zm.264,4.875c1.866,0,3-.676,3-2.2,0-1.377-1.085-2.026-3-2.026h-1.878v4.227Z"/>
    <path id="패스_3106" data-name="패스 3106" class="cls-8" d="M484.252,4540.252v-4.6h.767v4.51c0,1.471.45,2.16,1.535,2.16.82,0,1.4-.431,2.2-1.4v-5.266h.767v7.2h-.648l-.066-1.19h-.04a3.114,3.114,0,0,1-2.381,1.365C484.913,4543.021,484.252,4542.1,484.252,4540.252Z"/>
    <path id="패스_3107" data-name="패스 3107" class="cls-8" d="M491.144,4542.035l.41-.566a3.2,3.2,0,0,0,2.223.9c1.072,0,1.614-.621,1.614-1.365,0-.85-.887-1.242-1.707-1.539-1.045-.377-2.209-.824-2.209-2.067a2.047,2.047,0,0,1,2.315-1.943,3.367,3.367,0,0,1,2.051.77l-.4.539a2.675,2.675,0,0,0-1.68-.647c-1.046,0-1.522.594-1.522,1.242,0,.8.82,1.094,1.641,1.405,1.084.418,2.275.81,2.275,2.2a2.143,2.143,0,0,1-2.421,2.052A4.089,4.089,0,0,1,491.144,4542.035Z"/>
    <path id="패스_3108" data-name="패스 3108" class="cls-8" d="M497.548,4533.338a.622.622,0,0,1,.648-.649.635.635,0,1,1,0,1.27A.622.622,0,0,1,497.548,4533.338Zm.251,2.31h.767v7.2H497.8Z"/>
    <path id="패스_3109" data-name="패스 3109" class="cls-8" d="M500.947,4535.648h.636l.092,1.094h.027a3.44,3.44,0,0,1,2.407-1.283c1.469,0,2.143.932,2.143,2.781v4.606h-.767v-4.5c0-1.5-.463-2.188-1.548-2.188-.82,0-1.4.434-2.222,1.3v5.389h-.768Z"/>
    <path id="패스_3110" data-name="패스 3110" class="cls-8" d="M508.1,4539.254c0-2.338,1.5-3.795,3.1-3.795,1.707,0,2.726,1.242,2.726,3.348a3.883,3.883,0,0,1-.04.568h-5c.04,1.756,1.058,2.984,2.58,2.984a3.117,3.117,0,0,0,1.878-.621l.291.58a3.877,3.877,0,0,1-2.248.7C509.573,4543.021,508.1,4541.617,508.1,4539.254Zm5.121-.5c0-1.742-.781-2.621-2.012-2.621-1.151,0-2.182.972-2.328,2.621Z"/>
    <path id="패스_3111" data-name="패스 3111" class="cls-8" d="M515.011,4542.035l.41-.566a3.2,3.2,0,0,0,2.223.9c1.071,0,1.613-.621,1.613-1.365,0-.85-.886-1.242-1.706-1.539-1.045-.377-2.209-.824-2.209-2.067a2.046,2.046,0,0,1,2.315-1.943,3.369,3.369,0,0,1,2.051.77l-.4.539a2.677,2.677,0,0,0-1.681-.647c-1.045,0-1.521.594-1.521,1.242,0,.8.82,1.094,1.641,1.405,1.084.418,2.275.81,2.275,2.2a2.143,2.143,0,0,1-2.421,2.052A4.089,4.089,0,0,1,515.011,4542.035Z"/>
    <path id="패스_3112" data-name="패스 3112" class="cls-8" d="M521.149,4542.035l.411-.566a3.2,3.2,0,0,0,2.222.9c1.072,0,1.614-.621,1.614-1.365,0-.85-.886-1.242-1.707-1.539-1.044-.377-2.209-.824-2.209-2.067a2.047,2.047,0,0,1,2.315-1.943,3.367,3.367,0,0,1,2.051.77l-.4.539a2.672,2.672,0,0,0-1.68-.647c-1.045,0-1.521.594-1.521,1.242,0,.8.82,1.094,1.64,1.405,1.085.418,2.276.81,2.276,2.2a2.143,2.143,0,0,1-2.421,2.052A4.092,4.092,0,0,1,521.149,4542.035Z"/>
  </g>
  <g id="그룹_995" data-name="그룹 995" transform="translate(-57.858 -4152.254)">
    <path id="패스_3113" data-name="패스 3113" class="cls-8" d="M466.047,4550h2.276c2.963,0,4.418,1.877,4.418,4.889s-1.455,4.957-4.4,4.957h-2.289Zm2.2,9.156c2.54,0,3.665-1.714,3.665-4.267s-1.125-4.213-3.665-4.213h-1.4v8.48Z"/>
    <path id="패스_3114" data-name="패스 3114" class="cls-8" d="M474.263,4556.25c0-2.338,1.495-3.795,3.1-3.795,1.706,0,2.725,1.242,2.725,3.348a3.753,3.753,0,0,1-.04.568h-5c.039,1.756,1.058,2.984,2.58,2.984a3.122,3.122,0,0,0,1.878-.621l.291.58a3.878,3.878,0,0,1-2.249.7C475.732,4560.018,474.263,4558.613,474.263,4556.25Zm5.12-.5c0-1.742-.78-2.621-2.011-2.621-1.151,0-2.183.973-2.328,2.621Z"/>
    <path id="패스_3115" data-name="패스 3115" class="cls-8" d="M481.9,4552.645h.636l.093.876h.026a4.055,4.055,0,0,1,2.354-1.066c1.879,0,2.831,1.457,2.831,3.672,0,2.459-1.455,3.891-3.108,3.891a3.441,3.441,0,0,1-2.077-.879l.013,1.324v2.592H481.9Zm5.121,3.482c0-1.729-.582-2.984-2.157-2.984a3.512,3.512,0,0,0-2.2,1.148v4.16a3.207,3.207,0,0,0,2,.877C486.038,4559.328,487.017,4558.059,487.017,4556.127Z"/>
    <path id="패스_3116" data-name="패스 3116" class="cls-8" d="M489.279,4558.031c0-1.593,1.389-2.349,4.5-2.713.027-1.068-.277-2.175-1.614-2.175a3.772,3.772,0,0,0-2.222.824l-.344-.567a4.82,4.82,0,0,1,2.672-.945c1.68,0,2.275,1.229,2.275,2.822v4.565H493.9l-.079-.918h-.026a4.028,4.028,0,0,1-2.461,1.094A1.879,1.879,0,0,1,489.279,4558.031Zm4.5.2V4555.9c-2.778.325-3.731.987-3.731,2.094a1.282,1.282,0,0,0,1.443,1.363A3.443,3.443,0,0,0,493.777,4558.234Z"/>
    <path id="패스_3117" data-name="패스 3117" class="cls-8" d="M496.82,4552.645h.635l.093,1.335h.026a2.431,2.431,0,0,1,2-1.525,1.38,1.38,0,0,1,.714.162l-.159.7a1.488,1.488,0,0,0-.648-.121c-.622,0-1.376.473-1.892,1.811v4.834h-.767Z"/>
    <path id="패스_3118" data-name="패스 3118" class="cls-8" d="M502.284,4557.789v-4.484h-1.1v-.594l1.125-.066.092-2.081h.648v2.081h2.024v.66h-2.024v4.537c0,.906.239,1.5,1.178,1.5a2.4,2.4,0,0,0,.859-.2l.186.607a3.917,3.917,0,0,1-1.178.272C502.708,4560.018,502.284,4559.125,502.284,4557.789Z"/>
    <path id="패스_3119" data-name="패스 3119" class="cls-8" d="M506.755,4552.645h.636l.092,1.093h.027a3.253,3.253,0,0,1,2.222-1.283,1.834,1.834,0,0,1,1.945,1.457,3.51,3.51,0,0,1,2.381-1.457c1.416,0,2.117.932,2.117,2.781v4.606h-.767v-4.5c0-1.5-.49-2.188-1.522-2.188a2.969,2.969,0,0,0-2.037,1.3v5.389h-.767v-4.5c0-1.5-.477-2.188-1.522-2.188a2.969,2.969,0,0,0-2.037,1.3v5.389h-.768Z"/>
    <path id="패스_3120" data-name="패스 3120" class="cls-8" d="M518.041,4556.25c0-2.338,1.495-3.795,3.095-3.795,1.707,0,2.725,1.242,2.725,3.348a3.894,3.894,0,0,1-.039.568h-5c.04,1.756,1.058,2.984,2.58,2.984a3.12,3.12,0,0,0,1.878-.621l.291.58a3.878,3.878,0,0,1-2.249.7C519.509,4560.018,518.041,4558.613,518.041,4556.25Zm5.12-.5c0-1.742-.781-2.621-2.012-2.621-1.15,0-2.182.973-2.328,2.621Z"/>
    <path id="패스_3121" data-name="패스 3121" class="cls-8" d="M525.674,4552.645h.636l.092,1.093h.027a3.441,3.441,0,0,1,2.407-1.283c1.469,0,2.143.932,2.143,2.781v4.606h-.767v-4.5c0-1.5-.463-2.188-1.547-2.188-.821,0-1.4.434-2.223,1.3v5.389h-.768Z"/>
    <path id="패스_3122" data-name="패스 3122" class="cls-8" d="M533.48,4557.789v-4.484h-1.1v-.594l1.124-.066.093-2.081h.648v2.081h2.024v.66h-2.024v4.537c0,.906.238,1.5,1.177,1.5a2.4,2.4,0,0,0,.86-.2l.186.607a3.917,3.917,0,0,1-1.178.272C533.9,4560.018,533.48,4559.125,533.48,4557.789Z"/>
  </g>
  <line id="선_1105" data-name="선 1105" class="cls-3" y2="79.492" transform="translate(699.015 129.127)"/>
  <path id="패스_3123" data-name="패스 3123" class="cls-3" d="M753.226,4284.924l3.647-3.665,3.648,3.665" transform="translate(-57.858 -4152.254)"/>
  <path id="패스_3124" data-name="패스 3124" class="cls-3" d="M753.226,4357.555l3.647,3.665,3.648-3.665" transform="translate(-57.858 -4152.254)"/>
  <line id="선_1106" data-name="선 1106" class="cls-3" x2="92.003" transform="translate(531 252.252)"/>
  <path id="패스_3125" data-name="패스 3125" class="cls-3" d="M589.773,4408.153l-3.665-3.647,3.665-3.648" transform="translate(-57.858 -4152.254)"/>
  <line id="선_1107" data-name="선 1107" class="cls-9" y2="91.5" transform="translate(20.25 206.901)"/>
  <line id="선_1108" data-name="선 1108" class="cls-10" x2="494.424" transform="translate(23.256 299.901)"/>
  <line id="선_1109" data-name="선 1109" class="cls-9" y1="91.5" transform="translate(519.183 205.401)"/>
  <line id="선_1110" data-name="선 1110" class="cls-10" x1="494.424" transform="translate(21.753 203.901)"/>
  <path id="패스_3126" data-name="패스 3126" class="cls-6" d="M78.109,4356.155h0m498.932,0h0m0,96h0m-498.932,0h0" transform="translate(-57.858 -4152.254)"/>
  <rect id="사각형_200" data-name="사각형 200" class="cls-11" width="211.904" height="30" transform="translate(286.849 88.219)"/>
  <g id="그룹_996" data-name="그룹 996" transform="translate(-57.858 -4152.254)">
    <path id="패스_3127" data-name="패스 3127" class="cls-4" d="M403.11,4257.628h-3.619l-.959,3.024h-1.269l3.362-9.9h1.391l3.362,9.9h-1.323Zm-.311-1-.472-1.513c-.365-1.121-.676-2.2-1-3.348h-.054c-.31,1.161-.634,2.227-.985,3.348l-.487,1.513Z"/>
    <path id="패스_3128" data-name="패스 3128" class="cls-4" d="M406.47,4257.965v-4.645H407.7v4.5c0,1.365.4,1.946,1.377,1.946.757,0,1.283-.366,1.986-1.242v-5.2h1.229v7.332h-1.027l-.1-1.147h-.04a3.146,3.146,0,0,1-2.431,1.323C407.159,4260.828,406.47,4259.829,406.47,4257.965Z"/>
    <path id="패스_3129" data-name="패스 3129" class="cls-4" d="M414.151,4256.993c0-2.376,1.5-3.862,3.174-3.862a2.984,2.984,0,0,1,2.066.864l-.068-1.268V4249.9h1.229v10.748h-1l-.122-.863H419.4a3.273,3.273,0,0,1-2.228,1.039C415.34,4260.828,414.151,4259.438,414.151,4256.993Zm5.172,1.8v-3.849a2.577,2.577,0,0,0-1.782-.769c-1.188,0-2.121,1.134-2.121,2.809,0,1.768.73,2.823,2.026,2.823A2.518,2.518,0,0,0,419.323,4258.789Z"/>
    <path id="패스_3130" data-name="패스 3130" class="cls-4" d="M422.616,4251.011a.852.852,0,0,1,1.7,0,.852.852,0,0,1-1.7,0Zm.229,2.309h1.229v7.332h-1.229Z"/>
    <path id="패스_3131" data-name="패스 3131" class="cls-4" d="M426.652,4258.385v-4.066h-1.093v-.931l1.147-.068.149-2.052h1.026v2.052h1.985v1h-1.985v4.092c0,.9.284,1.418,1.135,1.418a2.645,2.645,0,0,0,.837-.188l.243.918a4.66,4.66,0,0,1-1.35.269C427.179,4260.828,426.652,4259.855,426.652,4258.385Z"/>
    <path id="패스_3132" data-name="패스 3132" class="cls-4" d="M434.09,4255.711c0-3.2,1.877-5.146,4.389-5.146a3.659,3.659,0,0,1,2.714,1.23l-.675.809a2.7,2.7,0,0,0-2.025-.945c-1.877,0-3.12,1.54-3.12,4.011,0,2.5,1.189,4.064,3.079,4.064a3.009,3.009,0,0,0,2.3-1.107l.689.783a3.829,3.829,0,0,1-3.039,1.418C435.94,4260.828,434.09,4258.924,434.09,4255.711Z"/>
    <path id="패스_3133" data-name="패스 3133" class="cls-4" d="M442.487,4256.993c0-2.444,1.608-3.862,3.4-3.862s3.4,1.418,3.4,3.862-1.606,3.835-3.4,3.835S442.487,4259.424,442.487,4256.993Zm5.537,0c0-1.688-.864-2.836-2.133-2.836s-2.12,1.148-2.12,2.836.85,2.81,2.12,2.81S448.024,4258.682,448.024,4256.993Z"/>
    <path id="패스_3134" data-name="패스 3134" class="cls-4" d="M451.127,4253.32h1.013l.108,1.067h.041a3.221,3.221,0,0,1,2.282-1.256,1.935,1.935,0,0,1,2.025,1.4,3.469,3.469,0,0,1,2.418-1.4c1.512,0,2.228,1,2.228,2.877v4.644h-1.229v-4.482c0-1.378-.432-1.959-1.364-1.959a2.709,2.709,0,0,0-1.85,1.121v5.32H455.57v-4.482c0-1.378-.432-1.959-1.364-1.959a2.709,2.709,0,0,0-1.85,1.121v5.32h-1.229Z"/>
    <path id="패스_3135" data-name="패스 3135" class="cls-4" d="M463.479,4253.32h1.014l.108,1.067h.04a3.223,3.223,0,0,1,2.282-1.256,1.935,1.935,0,0,1,2.026,1.4,3.468,3.468,0,0,1,2.417-1.4c1.512,0,2.228,1,2.228,2.877v4.644h-1.229v-4.482c0-1.378-.432-1.959-1.364-1.959a2.711,2.711,0,0,0-1.85,1.121v5.32h-1.229v-4.482c0-1.378-.432-1.959-1.363-1.959a2.713,2.713,0,0,0-1.851,1.121v5.32h-1.229Z"/>
    <path id="패스_3136" data-name="패스 3136" class="cls-4" d="M475.6,4251.011a.852.852,0,0,1,1.7,0,.852.852,0,0,1-1.7,0Zm.229,2.309h1.229v7.332h-1.229Z"/>
    <path id="패스_3137" data-name="패스 3137" class="cls-4" d="M479.639,4258.385v-4.066h-1.094v-.931l1.148-.068.149-2.052h1.026v2.052h1.985v1h-1.985v4.092c0,.9.283,1.418,1.134,1.418a2.632,2.632,0,0,0,.837-.188l.244.918a4.66,4.66,0,0,1-1.351.269C480.166,4260.828,479.639,4259.855,479.639,4258.385Z"/>
    <path id="패스_3138" data-name="패스 3138" class="cls-4" d="M485,4258.385v-4.066H483.9v-.931l1.148-.068.148-2.052h1.027v2.052h1.984v1h-1.984v4.092c0,.9.283,1.418,1.134,1.418a2.645,2.645,0,0,0,.837-.188l.243.918a4.66,4.66,0,0,1-1.35.269C485.525,4260.828,485,4259.855,485,4258.385Z"/>
    <path id="패스_3139" data-name="패스 3139" class="cls-4" d="M489.089,4256.993c0-2.376,1.607-3.862,3.308-3.862,1.864,0,2.917,1.35,2.917,3.443a4.653,4.653,0,0,1-.054.7h-4.942a2.429,2.429,0,0,0,2.431,2.566,3.159,3.159,0,0,0,1.836-.581l.446.81a4.364,4.364,0,0,1-2.431.756A3.5,3.5,0,0,1,489.089,4256.993Zm5.145-.6c0-1.484-.675-2.281-1.823-2.281a2.254,2.254,0,0,0-2.106,2.281Z"/>
    <path id="패스_3140" data-name="패스 3140" class="cls-4" d="M496.608,4256.993c0-2.376,1.607-3.862,3.309-3.862,1.863,0,2.916,1.35,2.916,3.443a4.649,4.649,0,0,1-.054.7h-4.942a2.429,2.429,0,0,0,2.431,2.566,3.16,3.16,0,0,0,1.836-.581l.446.81a4.364,4.364,0,0,1-2.431.756A3.5,3.5,0,0,1,496.608,4256.993Zm5.145-.6c0-1.484-.675-2.281-1.823-2.281a2.254,2.254,0,0,0-2.106,2.281Z"/>
  </g>
  <path id="패스_3221" data-name="패스 3221" class="cls-12" d="M0,0H211.9V30H0Z" transform="translate(286.849 128.126)"/>
  <g id="그룹_997" data-name="그룹 997" transform="translate(-57.858 -4152.254)">
    <path id="패스_3141" data-name="패스 3141" class="cls-4" d="M438.438,4295.616c0-3.2,1.877-5.145,4.389-5.145a3.662,3.662,0,0,1,2.715,1.228l-.676.811a2.705,2.705,0,0,0-2.025-.946c-1.877,0-3.12,1.54-3.12,4.012,0,2.5,1.189,4.065,3.079,4.065a3.008,3.008,0,0,0,2.3-1.108l.689.783a3.827,3.827,0,0,1-3.039,1.418C440.289,4300.734,438.438,4298.83,438.438,4295.616Z"/>
    <path id="패스_3142" data-name="패스 3142" class="cls-4" d="M447.484,4290.66H453.2v1.053H448.74v3.106h3.754v1.068H448.74v3.6h4.6v1.067h-5.86Z"/>
    <path id="패스_3143" data-name="패스 3143" class="cls-4" d="M454.436,4295.576c0-3.174,1.742-5.1,4.226-5.1s4.227,1.931,4.227,5.1-1.742,5.158-4.227,5.158S454.436,4298.749,454.436,4295.576Zm7.17,0c0-2.485-1.175-4.012-2.944-4.012s-2.944,1.527-2.944,4.012,1.162,4.065,2.944,4.065S461.606,4298.047,461.606,4295.576Z"/>
  </g>
  <rect id="사각형_202" data-name="사각형 202" class="cls-13" width="163.616" height="30" transform="translate(33.383 219.753)"/>
  <g id="그룹_998" data-name="그룹 998" transform="translate(-57.858 -4152.254)">
    <path id="패스_3144" data-name="패스 3144" class="cls-4" d="M95.462,4387.244c0-3.2,1.877-5.145,4.389-5.145a3.657,3.657,0,0,1,2.714,1.229l-.675.81a2.7,2.7,0,0,0-2.026-.946c-1.877,0-3.119,1.54-3.119,4.011,0,2.5,1.188,4.065,3.079,4.065a3.007,3.007,0,0,0,2.3-1.108l.688.783a3.821,3.821,0,0,1-3.038,1.418C97.312,4392.361,95.462,4390.457,95.462,4387.244Z"/>
    <path id="패스_3145" data-name="패스 3145" class="cls-4" d="M104.412,4384.854h1.013l.108,1.336h.041a2.531,2.531,0,0,1,2.079-1.526,1.57,1.57,0,0,1,.784.162l-.23,1.08a1.766,1.766,0,0,0-.716-.121c-.608,0-1.364.432-1.85,1.688v4.713h-1.229Z"/>
    <path id="패스_3146" data-name="패스 3146" class="cls-4" d="M109.488,4382.544a.852.852,0,0,1,1.7,0,.852.852,0,0,1-1.7,0Zm.229,2.31h1.229v7.332h-1.229Z"/>
    <path id="패스_3147" data-name="패스 3147" class="cls-4" d="M112.471,4391.349l.608-.81a3.327,3.327,0,0,0,2.174.863c.973,0,1.445-.512,1.445-1.147,0-.743-.864-1.08-1.675-1.391-1.026-.378-2.187-.878-2.187-2.12,0-1.162.932-2.08,2.525-2.08a3.81,3.81,0,0,1,2.283.824l-.595.8a2.75,2.75,0,0,0-1.688-.648c-.918,0-1.337.486-1.337,1.052,0,.7.8.959,1.621,1.27,1.066.4,2.242.838,2.242,2.229,0,1.188-.946,2.173-2.674,2.173A4.421,4.421,0,0,1,112.471,4391.349Z"/>
    <path id="패스_3148" data-name="패스 3148" class="cls-4" d="M119.262,4382.544a.852.852,0,0,1,1.7,0,.852.852,0,0,1-1.7,0Zm.229,2.31h1.229v7.332h-1.229Z"/>
    <path id="패스_3149" data-name="패스 3149" class="cls-4" d="M122.245,4391.349l.608-.81a3.327,3.327,0,0,0,2.174.863c.973,0,1.445-.512,1.445-1.147,0-.743-.864-1.08-1.675-1.391-1.026-.378-2.187-.878-2.187-2.12,0-1.162.932-2.08,2.525-2.08a3.8,3.8,0,0,1,2.282.824l-.594.8a2.75,2.75,0,0,0-1.688-.648c-.918,0-1.337.486-1.337,1.052,0,.7.8.959,1.621,1.27,1.066.4,2.241.838,2.241,2.229,0,1.188-.945,2.173-2.673,2.173A4.421,4.421,0,0,1,122.245,4391.349Z"/>
    <path id="패스_3150" data-name="패스 3150" class="cls-4" d="M132.519,4382.287h1.512l1.9,5.294c.229.689.459,1.378.7,2.066h.067c.23-.688.446-1.377.675-2.066l1.891-5.294h1.512v9.9h-1.175V4386.7c0-.85.1-2.053.163-2.916h-.055l-.783,2.254-1.877,5.146h-.837l-1.877-5.146-.783-2.254h-.054c.054.863.148,2.066.148,2.916v5.483h-1.134Z"/>
    <path id="패스_3151" data-name="패스 3151" class="cls-4" d="M142.725,4390.281c0-1.593,1.391-2.389,4.51-2.74,0-.945-.311-1.851-1.512-1.851a4.04,4.04,0,0,0-2.2.784l-.486-.851a5.515,5.515,0,0,1,2.89-.959c1.783,0,2.539,1.2,2.539,3.012v4.51h-1.013l-.108-.877h-.04a3.934,3.934,0,0,1-2.431,1.052A1.988,1.988,0,0,1,142.725,4390.281Zm4.51.122v-2.051c-2.471.3-3.309.9-3.309,1.849,0,.837.568,1.175,1.3,1.175A3,3,0,0,0,147.235,4390.4Z"/>
    <path id="패스_3152" data-name="패스 3152" class="cls-4" d="M150.662,4384.854h1.013l.108,1.052h.041a3.517,3.517,0,0,1,2.457-1.242c1.54,0,2.242,1,2.242,2.877v4.645h-1.229V4387.7c0-1.378-.419-1.959-1.391-1.959a2.792,2.792,0,0,0-2.012,1.121v5.321h-1.229Z"/>
    <path id="패스_3153" data-name="패스 3153" class="cls-4" d="M158.263,4390.281c0-1.593,1.391-2.389,4.51-2.74,0-.945-.311-1.851-1.512-1.851a4.034,4.034,0,0,0-2.2.784l-.487-.851a5.518,5.518,0,0,1,2.89-.959c1.783,0,2.539,1.2,2.539,3.012v4.51h-1.013l-.108-.877h-.04a3.934,3.934,0,0,1-2.431,1.052A1.988,1.988,0,0,1,158.263,4390.281Zm4.51.122v-2.051c-2.471.3-3.309.9-3.309,1.849,0,.837.568,1.175,1.3,1.175A3,3,0,0,0,162.773,4390.4Z"/>
    <path id="패스_3154" data-name="패스 3154" class="cls-4" d="M165.607,4393.59a2.073,2.073,0,0,1,1.094-1.66v-.055a1.325,1.325,0,0,1-.676-1.2,1.789,1.789,0,0,1,.824-1.364v-.054a2.575,2.575,0,0,1-.958-1.972,2.612,2.612,0,0,1,2.754-2.62,3,3,0,0,1,1.026.19h2.553v.945h-1.5a2.094,2.094,0,0,1,.594,1.512,2.636,2.636,0,0,1-3.768,2.3,1.091,1.091,0,0,0-.472.877c0,.473.3.8,1.283.8h1.431c1.7,0,2.552.54,2.552,1.742,0,1.364-1.431,2.54-3.7,2.54C166.849,4395.563,165.607,4394.859,165.607,4393.59Zm5.55-.377c0-.676-.527-.9-1.5-.9h-1.269a4.084,4.084,0,0,1-.946-.122,1.548,1.548,0,0,0-.756,1.242c0,.783.8,1.3,2.134,1.3C170.225,4394.725,171.157,4393.982,171.157,4393.213Zm-.959-5.929a1.567,1.567,0,1,0-3.119,0,1.569,1.569,0,1,0,3.119,0Z"/>
    <path id="패스_3155" data-name="패스 3155" class="cls-4" d="M173.018,4388.526c0-2.376,1.607-3.862,3.308-3.862,1.864,0,2.917,1.351,2.917,3.443a4.824,4.824,0,0,1-.054.7h-4.942a2.429,2.429,0,0,0,2.43,2.565,3.157,3.157,0,0,0,1.837-.581l.445.81a4.365,4.365,0,0,1-2.43.756A3.5,3.5,0,0,1,173.018,4388.526Zm5.145-.594c0-1.485-.675-2.282-1.823-2.282a2.256,2.256,0,0,0-2.107,2.282Z"/>
    <path id="패스_3156" data-name="패스 3156" class="cls-4" d="M181.023,4384.854h1.014l.108,1.066h.04a3.222,3.222,0,0,1,2.282-1.256,1.935,1.935,0,0,1,2.026,1.4,3.469,3.469,0,0,1,2.417-1.4c1.512,0,2.228,1,2.228,2.877v4.645h-1.229V4387.7c0-1.378-.432-1.959-1.364-1.959a2.709,2.709,0,0,0-1.85,1.121v5.321h-1.229V4387.7c0-1.378-.432-1.959-1.363-1.959a2.711,2.711,0,0,0-1.851,1.121v5.321h-1.229Z"/>
    <path id="패스_3157" data-name="패스 3157" class="cls-4" d="M192.917,4388.526c0-2.376,1.607-3.862,3.308-3.862,1.864,0,2.917,1.351,2.917,3.443a4.824,4.824,0,0,1-.054.7h-4.942a2.429,2.429,0,0,0,2.43,2.565,3.157,3.157,0,0,0,1.837-.581l.445.81a4.367,4.367,0,0,1-2.43.756A3.5,3.5,0,0,1,192.917,4388.526Zm5.145-.594c0-1.485-.675-2.282-1.823-2.282a2.256,2.256,0,0,0-2.107,2.282Z"/>
    <path id="패스_3158" data-name="패스 3158" class="cls-4" d="M200.922,4384.854h1.013l.108,1.052h.04a3.521,3.521,0,0,1,2.458-1.242c1.54,0,2.242,1,2.242,2.877v4.645h-1.229V4387.7c0-1.378-.419-1.959-1.391-1.959a2.792,2.792,0,0,0-2.012,1.121v5.321h-1.229Z"/>
    <path id="패스_3159" data-name="패스 3159" class="cls-4" d="M209.211,4389.918v-4.065h-1.093v-.932l1.148-.067.148-2.053h1.026v2.053h1.985v1H210.44v4.091c0,.906.284,1.418,1.135,1.418a2.605,2.605,0,0,0,.837-.188l.243.918a4.612,4.612,0,0,1-1.35.269C209.738,4392.361,209.211,4391.389,209.211,4389.918Z"/>
    <path id="패스_3160" data-name="패스 3160" class="cls-4" d="M219.283,4383.341h-3v-1.054h7.252v1.054h-3v8.845h-1.256Z"/>
    <path id="패스_3161" data-name="패스 3161" class="cls-4" d="M223.439,4388.526c0-2.376,1.608-3.862,3.309-3.862,1.864,0,2.917,1.351,2.917,3.443a4.824,4.824,0,0,1-.054.7h-4.943a2.43,2.43,0,0,0,2.431,2.565,3.157,3.157,0,0,0,1.837-.581l.445.81a4.367,4.367,0,0,1-2.43.756A3.505,3.505,0,0,1,223.439,4388.526Zm5.146-.594c0-1.485-.675-2.282-1.823-2.282a2.256,2.256,0,0,0-2.107,2.282Z"/>
    <path id="패스_3162" data-name="패스 3162" class="cls-4" d="M230.851,4390.281c0-1.593,1.391-2.389,4.51-2.74,0-.945-.31-1.851-1.512-1.851a4.037,4.037,0,0,0-2.2.784l-.486-.851a5.515,5.515,0,0,1,2.89-.959c1.782,0,2.538,1.2,2.538,3.012v4.51h-1.012l-.108-.877h-.041a3.93,3.93,0,0,1-2.431,1.052A1.988,1.988,0,0,1,230.851,4390.281Zm4.51.122v-2.051c-2.471.3-3.308.9-3.308,1.849,0,.837.567,1.175,1.3,1.175A2.994,2.994,0,0,0,235.361,4390.4Z"/>
    <path id="패스_3163" data-name="패스 3163" class="cls-4" d="M238.789,4384.854H239.8l.108,1.066h.041a3.22,3.22,0,0,1,2.282-1.256,1.934,1.934,0,0,1,2.025,1.4,3.47,3.47,0,0,1,2.418-1.4c1.512,0,2.228,1,2.228,2.877v4.645h-1.229V4387.7c0-1.378-.432-1.959-1.364-1.959a2.707,2.707,0,0,0-1.85,1.121v5.321h-1.229V4387.7c0-1.378-.432-1.959-1.364-1.959a2.707,2.707,0,0,0-1.85,1.121v5.321h-1.229Z"/>
  </g>
  <rect id="사각형_203" data-name="사각형 203" class="cls-14" width="211.904" height="65" transform="translate(286.849 219.753)"/>
  <g id="그룹_999" data-name="그룹 999" transform="translate(-57.858 -4152.254)">
    <path id="패스_3164" data-name="패스 3164" class="cls-4" d="M373.07,4405.5c0-3.2,1.877-5.146,4.389-5.146a3.659,3.659,0,0,1,2.714,1.23l-.675.809a2.706,2.706,0,0,0-2.025-.945c-1.877,0-3.12,1.54-3.12,4.011,0,2.5,1.189,4.064,3.079,4.064a3.009,3.009,0,0,0,2.3-1.107l.689.783a3.829,3.829,0,0,1-3.039,1.418C374.92,4410.621,373.07,4408.717,373.07,4405.5Z"/>
    <path id="패스_3165" data-name="패스 3165" class="cls-4" d="M382.021,4403.113h1.013l.108,1.337h.04a2.531,2.531,0,0,1,2.08-1.526,1.568,1.568,0,0,1,.783.162l-.23,1.08a1.739,1.739,0,0,0-.715-.121c-.608,0-1.364.432-1.85,1.687v4.713h-1.229Z"/>
    <path id="패스_3166" data-name="패스 3166" class="cls-4" d="M387.1,4400.8a.853.853,0,0,1,1.7,0,.853.853,0,0,1-1.7,0Zm.23,2.309h1.229v7.332h-1.229Z"/>
    <path id="패스_3167" data-name="패스 3167" class="cls-4" d="M390.08,4409.608l.607-.809a3.327,3.327,0,0,0,2.175.863c.972,0,1.445-.513,1.445-1.147,0-.744-.865-1.08-1.675-1.391-1.027-.378-2.188-.878-2.188-2.12,0-1.162.932-2.08,2.526-2.08a3.8,3.8,0,0,1,2.282.824l-.594.8a2.756,2.756,0,0,0-1.688-.649c-.919,0-1.337.487-1.337,1.053,0,.7.8.959,1.62,1.27,1.067.4,2.242.838,2.242,2.228,0,1.189-.945,2.174-2.674,2.174A4.419,4.419,0,0,1,390.08,4409.608Z"/>
    <path id="패스_3168" data-name="패스 3168" class="cls-4" d="M396.87,4400.8a.853.853,0,0,1,1.7,0,.853.853,0,0,1-1.7,0Zm.23,2.309h1.229v7.332H397.1Z"/>
    <path id="패스_3169" data-name="패스 3169" class="cls-4" d="M399.854,4409.608l.607-.809a3.327,3.327,0,0,0,2.175.863c.972,0,1.445-.513,1.445-1.147,0-.744-.865-1.08-1.675-1.391-1.026-.378-2.188-.878-2.188-2.12,0-1.162.932-2.08,2.526-2.08a3.807,3.807,0,0,1,2.282.824l-.594.8a2.759,2.759,0,0,0-1.688-.649c-.919,0-1.337.487-1.337,1.053,0,.7.8.959,1.62,1.27,1.067.4,2.242.838,2.242,2.228,0,1.189-.945,2.174-2.674,2.174A4.419,4.419,0,0,1,399.854,4409.608Z"/>
    <path id="패스_3170" data-name="패스 3170" class="cls-4" d="M410.127,4400.547h1.513l1.9,5.294c.229.688.459,1.378.7,2.066h.067c.23-.688.446-1.378.676-2.066l1.89-5.294h1.513v9.9h-1.175v-5.482c0-.851.1-2.053.162-2.916h-.054l-.783,2.254-1.877,5.145h-.838l-1.877-5.145-.783-2.254h-.054c.054.863.149,2.065.149,2.916v5.482h-1.135Z"/>
    <path id="패스_3171" data-name="패스 3171" class="cls-4" d="M420.333,4408.541c0-1.593,1.391-2.39,4.51-2.74,0-.946-.31-1.851-1.512-1.851a4.04,4.04,0,0,0-2.2.783l-.486-.85a5.516,5.516,0,0,1,2.89-.959c1.782,0,2.538,1.2,2.538,3.012v4.509H425.06l-.109-.877h-.04a3.934,3.934,0,0,1-2.431,1.053A1.988,1.988,0,0,1,420.333,4408.541Zm4.51.122v-2.052c-2.471.3-3.308.905-3.308,1.85,0,.837.567,1.175,1.3,1.175A3,3,0,0,0,424.843,4408.663Z"/>
    <path id="패스_3172" data-name="패스 3172" class="cls-4" d="M428.271,4403.113h1.013l.108,1.053h.04a3.52,3.52,0,0,1,2.458-1.242c1.539,0,2.241,1,2.241,2.877v4.644H432.9v-4.482c0-1.378-.418-1.959-1.39-1.959a2.788,2.788,0,0,0-2.012,1.121v5.32h-1.229Z"/>
    <path id="패스_3173" data-name="패스 3173" class="cls-4" d="M435.871,4408.541c0-1.593,1.391-2.39,4.51-2.74,0-.946-.31-1.851-1.512-1.851a4.043,4.043,0,0,0-2.2.783l-.486-.85a5.516,5.516,0,0,1,2.89-.959c1.782,0,2.538,1.2,2.538,3.012v4.509H440.6l-.109-.877h-.04a3.931,3.931,0,0,1-2.431,1.053A1.988,1.988,0,0,1,435.871,4408.541Zm4.51.122v-2.052c-2.471.3-3.308.905-3.308,1.85,0,.837.567,1.175,1.3,1.175A3,3,0,0,0,440.381,4408.663Z"/>
    <path id="패스_3174" data-name="패스 3174" class="cls-4" d="M443.215,4411.85a2.076,2.076,0,0,1,1.094-1.661v-.054a1.323,1.323,0,0,1-.675-1.2,1.793,1.793,0,0,1,.824-1.365v-.053a2.577,2.577,0,0,1-.959-1.972,2.612,2.612,0,0,1,2.754-2.62,3.046,3.046,0,0,1,1.027.189h2.552v.946h-1.5a2.087,2.087,0,0,1,.594,1.511,2.515,2.515,0,0,1-2.674,2.553,2.554,2.554,0,0,1-1.093-.256,1.091,1.091,0,0,0-.473.877c0,.473.3.8,1.283.8H447.4c1.7,0,2.553.54,2.553,1.742,0,1.363-1.432,2.539-3.7,2.539C444.458,4413.822,443.215,4413.119,443.215,4411.85Zm5.551-.377c0-.676-.527-.906-1.5-.906H446a4.069,4.069,0,0,1-.945-.122,1.55,1.55,0,0,0-.757,1.243c0,.783.8,1.3,2.134,1.3C447.833,4412.984,448.766,4412.242,448.766,4411.473Zm-.959-5.929a1.567,1.567,0,1,0-3.12,0,1.569,1.569,0,1,0,3.12,0Z"/>
    <path id="패스_3175" data-name="패스 3175" class="cls-4" d="M450.626,4406.786c0-2.376,1.607-3.862,3.309-3.862,1.863,0,2.917,1.35,2.917,3.443a4.633,4.633,0,0,1-.055.7h-4.942a2.43,2.43,0,0,0,2.431,2.566,3.165,3.165,0,0,0,1.837-.581l.445.81a4.368,4.368,0,0,1-2.431.756A3.5,3.5,0,0,1,450.626,4406.786Zm5.145-.6c0-1.484-.675-2.281-1.823-2.281a2.254,2.254,0,0,0-2.106,2.281Z"/>
    <path id="패스_3176" data-name="패스 3176" class="cls-4" d="M458.632,4403.113h1.013l.108,1.067h.04a3.225,3.225,0,0,1,2.283-1.256,1.935,1.935,0,0,1,2.025,1.4,3.468,3.468,0,0,1,2.418-1.4c1.512,0,2.228,1,2.228,2.877v4.644h-1.229v-4.482c0-1.378-.433-1.959-1.364-1.959a2.707,2.707,0,0,0-1.85,1.121v5.32h-1.229v-4.482c0-1.378-.432-1.959-1.364-1.959a2.709,2.709,0,0,0-1.85,1.121v5.32h-1.229Z"/>
    <path id="패스_3177" data-name="패스 3177" class="cls-4" d="M470.525,4406.786c0-2.376,1.607-3.862,3.308-3.862,1.864,0,2.917,1.35,2.917,3.443a4.653,4.653,0,0,1-.054.7h-4.942a2.43,2.43,0,0,0,2.431,2.566,3.16,3.16,0,0,0,1.836-.581l.446.81a4.368,4.368,0,0,1-2.431.756A3.5,3.5,0,0,1,470.525,4406.786Zm5.145-.6c0-1.484-.675-2.281-1.823-2.281a2.254,2.254,0,0,0-2.106,2.281Z"/>
    <path id="패스_3178" data-name="패스 3178" class="cls-4" d="M478.53,4403.113h1.013l.108,1.053h.041a3.518,3.518,0,0,1,2.457-1.242c1.54,0,2.242,1,2.242,2.877v4.644h-1.229v-4.482c0-1.378-.418-1.959-1.391-1.959a2.792,2.792,0,0,0-2.012,1.121v5.32H478.53Z"/>
    <path id="패스_3179" data-name="패스 3179" class="cls-4" d="M486.82,4408.178v-4.066h-1.094v-.931l1.148-.068.148-2.052h1.027v2.052h1.985v1h-1.985v4.092c0,.9.283,1.418,1.134,1.418a2.645,2.645,0,0,0,.837-.188l.243.918a4.653,4.653,0,0,1-1.35.269C487.346,4410.621,486.82,4409.648,486.82,4408.178Z"/>
    <path id="패스_3180" data-name="패스 3180" class="cls-4" d="M496.891,4401.6h-3v-1.054h7.252v1.054h-3v8.844h-1.256Z"/>
    <path id="패스_3181" data-name="패스 3181" class="cls-4" d="M501.048,4406.786c0-2.376,1.607-3.862,3.308-3.862,1.864,0,2.917,1.35,2.917,3.443a4.649,4.649,0,0,1-.054.7h-4.942a2.43,2.43,0,0,0,2.431,2.566,3.16,3.16,0,0,0,1.836-.581l.446.81a4.368,4.368,0,0,1-2.431.756A3.5,3.5,0,0,1,501.048,4406.786Zm5.145-.6c0-1.484-.675-2.281-1.823-2.281a2.254,2.254,0,0,0-2.106,2.281Z"/>
    <path id="패스_3182" data-name="패스 3182" class="cls-4" d="M508.459,4408.541c0-1.593,1.392-2.39,4.511-2.74,0-.946-.311-1.851-1.512-1.851a4.044,4.044,0,0,0-2.2.783l-.486-.85a5.519,5.519,0,0,1,2.89-.959c1.782,0,2.539,1.2,2.539,3.012v4.509h-1.013l-.108-.877h-.04a3.936,3.936,0,0,1-2.432,1.053A1.988,1.988,0,0,1,508.459,4408.541Zm4.511.122v-2.052c-2.471.3-3.309.905-3.309,1.85,0,.837.568,1.175,1.3,1.175A3,3,0,0,0,512.97,4408.663Z"/>
    <path id="패스_3183" data-name="패스 3183" class="cls-4" d="M516.4,4403.113h1.014l.108,1.067h.04a3.222,3.222,0,0,1,2.282-1.256,1.935,1.935,0,0,1,2.026,1.4,3.468,3.468,0,0,1,2.417-1.4c1.512,0,2.228,1,2.228,2.877v4.644h-1.229v-4.482c0-1.378-.432-1.959-1.364-1.959a2.711,2.711,0,0,0-1.85,1.121v5.32H520.84v-4.482c0-1.378-.432-1.959-1.363-1.959a2.713,2.713,0,0,0-1.851,1.121v5.32H516.4Z"/>
  </g>
  <rect id="사각형_204" data-name="사각형 204" class="cls-13" width="163.616" height="30" transform="translate(33.383 254.753)"/>
  <g id="그룹_1000" data-name="그룹 1000" transform="translate(-57.858 -4152.254)">
    <path id="패스_3184" data-name="패스 3184" class="cls-4" d="M110.521,4422.244c0-3.2,1.877-5.145,4.389-5.145a3.657,3.657,0,0,1,2.714,1.229l-.675.81a2.7,2.7,0,0,0-2.026-.946c-1.877,0-3.119,1.54-3.119,4.011,0,2.5,1.188,4.065,3.079,4.065a3.007,3.007,0,0,0,2.3-1.108l.688.783a3.821,3.821,0,0,1-3.038,1.418C112.371,4427.361,110.521,4425.457,110.521,4422.244Z"/>
    <path id="패스_3185" data-name="패스 3185" class="cls-4" d="M119.471,4419.854h1.013l.108,1.336h.041a2.531,2.531,0,0,1,2.079-1.526,1.57,1.57,0,0,1,.784.162l-.23,1.08a1.766,1.766,0,0,0-.716-.121c-.608,0-1.363.432-1.85,1.688v4.713h-1.229Z"/>
    <path id="패스_3186" data-name="패스 3186" class="cls-4" d="M124.547,4417.544a.853.853,0,0,1,1.7,0,.853.853,0,0,1-1.7,0Zm.229,2.31H126v7.332h-1.229Z"/>
    <path id="패스_3187" data-name="패스 3187" class="cls-4" d="M127.53,4426.349l.608-.81a3.329,3.329,0,0,0,2.174.863c.973,0,1.445-.512,1.445-1.147,0-.743-.864-1.08-1.674-1.391-1.026-.378-2.188-.878-2.188-2.12,0-1.162.932-2.08,2.525-2.08a3.807,3.807,0,0,1,2.283.824l-.6.8a2.75,2.75,0,0,0-1.688-.648c-.918,0-1.337.486-1.337,1.052,0,.7.8.959,1.621,1.27,1.067.4,2.241.838,2.241,2.229,0,1.188-.945,2.173-2.673,2.173A4.421,4.421,0,0,1,127.53,4426.349Z"/>
    <path id="패스_3188" data-name="패스 3188" class="cls-4" d="M134.321,4417.544a.852.852,0,0,1,1.7,0,.852.852,0,0,1-1.7,0Zm.229,2.31h1.229v7.332H134.55Z"/>
    <path id="패스_3189" data-name="패스 3189" class="cls-4" d="M137.3,4426.349l.608-.81a3.327,3.327,0,0,0,2.174.863c.973,0,1.445-.512,1.445-1.147,0-.743-.864-1.08-1.675-1.391-1.026-.378-2.187-.878-2.187-2.12,0-1.162.932-2.08,2.525-2.08a3.807,3.807,0,0,1,2.283.824l-.6.8a2.75,2.75,0,0,0-1.688-.648c-.918,0-1.337.486-1.337,1.052,0,.7.8.959,1.621,1.27,1.066.4,2.242.838,2.242,2.229,0,1.188-.946,2.173-2.674,2.173A4.421,4.421,0,0,1,137.3,4426.349Z"/>
    <path id="패스_3190" data-name="패스 3190" class="cls-4" d="M146.862,4425.89l.743-.851a3.894,3.894,0,0,0,2.741,1.229c1.3,0,2.08-.649,2.08-1.621,0-1.012-.716-1.336-1.648-1.755l-1.431-.621a2.8,2.8,0,0,1-2.012-2.539c0-1.526,1.323-2.633,3.119-2.633a4.056,4.056,0,0,1,2.917,1.229l-.662.8a3.205,3.205,0,0,0-2.255-.932c-1.121,0-1.85.568-1.85,1.458,0,.959.865,1.325,1.634,1.649l1.418.607a2.757,2.757,0,0,1,2.039,2.647c0,1.566-1.3,2.808-3.362,2.808A4.731,4.731,0,0,1,146.862,4425.89Z"/>
    <path id="패스_3191" data-name="패스 3191" class="cls-4" d="M155.313,4424.5v-4.644h1.229v4.5c0,1.364.4,1.945,1.377,1.945.756,0,1.283-.365,1.985-1.242v-5.2h1.229v7.332h-1.026l-.1-1.148h-.04a3.145,3.145,0,0,1-2.431,1.323C156,4427.361,155.313,4426.362,155.313,4424.5Z"/>
    <path id="패스_3192" data-name="패스 3192" class="cls-4" d="M163.413,4419.854h1.013l.108.836h.04a3.912,3.912,0,0,1,2.336-1.026c1.891,0,2.917,1.486,2.917,3.74,0,2.512-1.5,3.957-3.187,3.957a3.309,3.309,0,0,1-2.025-.85l.027,1.283v2.484h-1.229Zm5.131,3.564c0-1.62-.54-2.714-1.931-2.714a3.055,3.055,0,0,0-1.971,1.013v3.848a2.839,2.839,0,0,0,1.795.771C167.653,4426.336,168.544,4425.242,168.544,4423.418Z"/>
    <path id="패스_3193" data-name="패스 3193" class="cls-4" d="M171.7,4419.854h1.013l.108.836h.04a3.912,3.912,0,0,1,2.336-1.026c1.891,0,2.917,1.486,2.917,3.74,0,2.512-1.5,3.957-3.187,3.957a3.309,3.309,0,0,1-2.025-.85l.027,1.283v2.484H171.7Zm5.131,3.564c0-1.62-.54-2.714-1.931-2.714a3.055,3.055,0,0,0-1.971,1.013v3.848a2.839,2.839,0,0,0,1.8.771C175.942,4426.336,176.833,4425.242,176.833,4423.418Z"/>
    <path id="패스_3194" data-name="패스 3194" class="cls-4" d="M179.5,4423.526c0-2.444,1.608-3.862,3.4-3.862s3.4,1.418,3.4,3.862-1.607,3.835-3.4,3.835S179.5,4425.957,179.5,4423.526Zm5.538,0c0-1.688-.865-2.836-2.134-2.836s-2.12,1.148-2.12,2.836.85,2.81,2.12,2.81S185.042,4425.215,185.042,4423.526Z"/>
    <path id="패스_3195" data-name="패스 3195" class="cls-4" d="M188.145,4419.854h1.013l.108,1.336h.04a2.531,2.531,0,0,1,2.08-1.526,1.568,1.568,0,0,1,.783.162l-.23,1.08a1.761,1.761,0,0,0-.715-.121c-.608,0-1.364.432-1.85,1.688v4.713h-1.229Z"/>
    <path id="패스_3196" data-name="패스 3196" class="cls-4" d="M194.1,4424.918v-4.065H193v-.932l1.148-.067.149-2.053h1.026v2.053h1.985v1h-1.985v4.091c0,.906.283,1.418,1.134,1.418a2.594,2.594,0,0,0,.837-.188l.244.918a4.612,4.612,0,0,1-1.351.269C194.625,4427.361,194.1,4426.389,194.1,4424.918Z"/>
    <path id="패스_3197" data-name="패스 3197" class="cls-4" d="M204.169,4418.341h-3v-1.054h7.252v1.054h-3v8.845h-1.256Z"/>
    <path id="패스_3198" data-name="패스 3198" class="cls-4" d="M208.327,4423.526c0-2.376,1.607-3.862,3.308-3.862,1.864,0,2.917,1.351,2.917,3.443a4.826,4.826,0,0,1-.054.7h-4.942a2.429,2.429,0,0,0,2.43,2.565,3.157,3.157,0,0,0,1.837-.581l.446.81a4.371,4.371,0,0,1-2.431.756A3.5,3.5,0,0,1,208.327,4423.526Zm5.145-.594c0-1.485-.675-2.282-1.823-2.282a2.256,2.256,0,0,0-2.107,2.282Z"/>
    <path id="패스_3199" data-name="패스 3199" class="cls-4" d="M215.738,4425.281c0-1.593,1.391-2.389,4.51-2.74,0-.945-.311-1.851-1.512-1.851a4.034,4.034,0,0,0-2.2.784l-.487-.851a5.521,5.521,0,0,1,2.89-.959c1.783,0,2.539,1.2,2.539,3.012v4.51h-1.013l-.108-.877h-.04a3.932,3.932,0,0,1-2.431,1.052A1.988,1.988,0,0,1,215.738,4425.281Zm4.51.122v-2.051c-2.471.3-3.309.9-3.309,1.849,0,.837.568,1.175,1.3,1.175A3,3,0,0,0,220.248,4425.4Z"/>
    <path id="패스_3200" data-name="패스 3200" class="cls-4" d="M223.676,4419.854h1.013l.108,1.066h.04a3.224,3.224,0,0,1,2.283-1.256,1.935,1.935,0,0,1,2.025,1.4,3.469,3.469,0,0,1,2.417-1.4c1.513,0,2.229,1,2.229,2.877v4.645h-1.229V4422.7c0-1.378-.433-1.959-1.364-1.959a2.705,2.705,0,0,0-1.85,1.121v5.321h-1.229V4422.7c0-1.378-.432-1.959-1.364-1.959a2.707,2.707,0,0,0-1.85,1.121v5.321h-1.229Z"/>
  </g>
  <line id="선_1111" data-name="선 1111" class="cls-3" y2="24.966" transform="translate(392.801 168.399)"/>
  <path id="패스_3201" data-name="패스 3201" class="cls-3" d="M447.012,4324.177l3.647-3.665,3.648,3.665" transform="translate(-57.858 -4152.254)"/>
  <line id="선_1112" data-name="선 1112" class="cls-3" x2="69.069" transform="translate(205.521 234.68)"/>
  <path id="패스_3202" data-name="패스 3202" class="cls-3" d="M266.9,4390.581l-3.665-3.647,3.665-3.648" transform="translate(-57.858 -4152.254)"/>
  <path id="패스_3203" data-name="패스 3203" class="cls-3" d="M328.866,4390.581l3.665-3.647-3.665-3.648" transform="translate(-57.858 -4152.254)"/>
  <line id="선_1113" data-name="선 1113" class="cls-3" x2="69.069" transform="translate(205.521 269.752)"/>
  <path id="패스_3204" data-name="패스 3204" class="cls-3" d="M266.9,4425.653l-3.665-3.647,3.665-3.648" transform="translate(-57.858 -4152.254)"/>
  <path id="패스_3205" data-name="패스 3205" class="cls-3" d="M328.866,4425.653l3.665-3.647-3.665-3.648" transform="translate(-57.858 -4152.254)"/>
  <line id="선_1114" data-name="선 1114" class="cls-15" y2="76.973" transform="translate(20.25 355.42)"/>
  <line id="선_1115" data-name="선 1115" class="cls-10" x2="494.424" transform="translate(23.256 433.901)"/>
  <line id="선_1116" data-name="선 1116" class="cls-15" y1="76.973" transform="translate(519.183 353.909)"/>
  <line id="선_1117" data-name="선 1117" class="cls-10" x1="494.424" transform="translate(21.753 352.401)"/>
  <path id="패스_3206" data-name="패스 3206" class="cls-6" d="M78.109,4504.655h0m498.932,0h0m0,81.5h0m-498.932,0h0" transform="translate(-57.858 -4152.254)"/>
  <line id="선_1118" data-name="선 1118" class="cls-3" y2="37" transform="translate(364.09 307.681)"/>
  <path id="패스_3207" data-name="패스 3207" class="cls-3" d="M418.3,4463.458l3.647-3.665,3.648,3.665" transform="translate(-57.858 -4152.254)"/>
  <line id="선_1119" data-name="선 1119" class="cls-3" y2="37" transform="translate(421.511 307.681)"/>
  <path id="패스_3208" data-name="패스 3208" class="cls-3" d="M475.722,4493.352l3.647,3.665,3.648-3.665" transform="translate(-57.858 -4152.254)"/>
  <path id="패스_3209" data-name="패스 3209" class="cls-13" d="M655.282,4391.447a10.4,10.4,0,1,0-10.4-10.4,10.4,10.4,0,0,0,10.4,10.4" transform="translate(-57.858 -4152.254)"/>
  <g id="그룹_1001" data-name="그룹 1001" transform="translate(-57.858 -4152.254)">
    <path id="패스_3210" data-name="패스 3210" class="cls-4" d="M651.979,4384.987l.705-.96a3.016,3.016,0,0,0,2.2,1.012,1.842,1.842,0,0,0,1.869-2.01,1.747,1.747,0,0,0-1.793-1.972,2.472,2.472,0,0,0-1.51.538l-.717-.474.282-4.468h4.775v1.242H654.3l-.218,2.419a2.654,2.654,0,0,1,1.293-.332,2.71,2.71,0,0,1,2.868,3,3.109,3.109,0,0,1-3.175,3.264A4.167,4.167,0,0,1,651.979,4384.987Z"/>
  </g>
  <path id="패스_3211" data-name="패스 3211" class="cls-13" d="M483.194,4343.288a10.4,10.4,0,1,0-10.4-10.4,10.4,10.4,0,0,0,10.4,10.4" transform="translate(-57.858 -4152.254)"/>
  <g id="그룹_1002" data-name="그룹 1002" transform="translate(-57.858 -4152.254)">
    <path id="패스_3212" data-name="패스 3212" class="cls-4" d="M479.9,4336.789l.717-.947a3.044,3.044,0,0,0,2.227,1.037,1.583,1.583,0,0,0,1.793-1.562c0-1.049-.666-1.728-2.791-1.728V4332.5c1.856,0,2.471-.7,2.471-1.65a1.32,1.32,0,0,0-1.447-1.371,2.765,2.765,0,0,0-1.882.9l-.768-.922a3.973,3.973,0,0,1,2.7-1.139c1.69,0,2.881.872,2.881,2.432a2.278,2.278,0,0,1-1.626,2.215v.064a2.386,2.386,0,0,1,1.945,2.356c0,1.7-1.42,2.7-3.148,2.7A3.907,3.907,0,0,1,479.9,4336.789Z"/>
  </g>
  <path id="패스_3213" data-name="패스 3213" class="cls-13" d="M394.863,4488.805a10.4,10.4,0,1,0-10.4-10.4,10.4,10.4,0,0,0,10.4,10.4" transform="translate(-57.858 -4152.254)"/>
  <g id="그룹_1003" data-name="그룹 1003" transform="translate(-57.858 -4152.254)">
    <path id="패스_3214" data-name="패스 3214" class="cls-4" d="M392.316,4482.217h2.061v-6.555h-1.69v-.934a5.8,5.8,0,0,0,2.049-.717h1.114v8.206h1.843v1.217h-5.377Z"/>
  </g>
  <path id="패스_3215" data-name="패스 3215" class="cls-13" d="M512.218,4488.805a10.4,10.4,0,1,0-10.4-10.4,10.4,10.4,0,0,0,10.4,10.4" transform="translate(-57.858 -4152.254)"/>
  <g id="그룹_1004" data-name="그룹 1004" transform="translate(-57.858 -4152.254)">
    <path id="패스_3216" data-name="패스 3216" class="cls-4" d="M515.483,4480.9h-1.2v2.536H512.9V4480.9h-4.071v-.986l3.751-5.9h1.7v5.748h1.2Zm-2.586-1.139v-2.471c0-.513.052-1.306.077-1.817h-.051c-.231.472-.486.959-.756,1.446l-1.855,2.842Z"/>
  </g>
  <path id="패스_3217" data-name="패스 3217" class="cls-13" d="M276.818,4343.288a10.4,10.4,0,1,0-10.4-10.4,10.4,10.4,0,0,0,10.4,10.4" transform="translate(-57.858 -4152.254)"/>
  <g id="그룹_1005" data-name="그룹 1005" transform="translate(-57.858 -4152.254)">
    <path id="패스_3218" data-name="패스 3218" class="cls-4" d="M273.734,4337.059c2.778-2.459,4.212-4.289,4.212-5.838a1.537,1.537,0,0,0-1.6-1.729,2.555,2.555,0,0,0-1.856,1.05l-.832-.819a3.7,3.7,0,0,1,2.867-1.409,2.665,2.665,0,0,1,2.843,2.83c0,1.817-1.447,3.7-3.444,5.607.486-.052,1.075-.089,1.536-.089h2.356v1.254h-6.081Z"/>
  </g>
  <path id="패스_3219" data-name="패스 3219" class="cls-13" d="M318.951,4343.288a10.4,10.4,0,1,0-10.4-10.4,10.4,10.4,0,0,0,10.4,10.4" transform="translate(-57.858 -4152.254)"/>
  <g id="그룹_1006" data-name="그룹 1006" transform="translate(-57.858 -4152.254)">
    <path id="패스_3220" data-name="패스 3220" class="cls-4" d="M322.216,4335.381h-1.2v2.535H319.63v-2.535h-4.071v-.985l3.751-5.9h1.7v5.748h1.2Zm-2.586-1.139v-2.471c0-.512.051-1.306.077-1.818h-.052c-.23.474-.486.96-.755,1.447l-1.856,2.842Z"/>
  </g>
</svg>
