<svg xmlns="http://www.w3.org/2000/svg" width="796" height="267.557" viewBox="0 0 796 267.557">
  <defs>
    <style>
      .cls-1, .cls-10, .cls-2 {
        fill: none;
        stroke: #3e3a39;
        stroke-linecap: round;
        stroke-linejoin: round;
      }

      .cls-1 {
        stroke-dasharray: 0 2.99;
      }

      .cls-3, .cls-4 {
        fill: #1e2323;
      }

      .cls-4 {
        font-size: 17px;
      }

      .cls-13, .cls-4 {
        font-family: NotoSansKR-Medium, Noto Sans KR;
        font-weight: 500;
      }

      .cls-5 {
        letter-spacing: -0.02em;
      }

      .cls-6 {
        fill: #132e54;
      }

      .cls-13, .cls-7 {
        fill: #5171b1;
      }

      .cls-8 {
        fill: #d0eaf6;
      }

      .cls-9 {
        fill: #a0c0eb;
      }

      .cls-10 {
        stroke-dasharray: 0 3.005;
      }

      .cls-11 {
        fill: #fff;
      }

      .cls-12 {
        fill: #535252;
      }

      .cls-13 {
        font-size: 18px;
      }
    </style>
  </defs>
  <g id="구성_요소_122_1" data-name="구성 요소 122 – 1" transform="translate(0.5)">
    <g id="구성_요소_102_1" data-name="구성 요소 102 – 1">
      <g id="구성_요소_85_1" data-name="구성 요소 85 – 1">
        <line id="선_90" data-name="선 90" class="cls-1" x2="336.365" transform="translate(457.141 39.088)"/>
        <path id="패스_41" data-name="패스 41" class="cls-2" d="M13425.42,2216.943h0m-340.85,0h0" transform="translate(-12630.42 -2177.855)"/>
        <path id="패스_42" data-name="패스 42" class="cls-3" d="M13285.413,2253.562h-4.29l-1.136,3.586h-1.5l3.985-11.733h1.648l3.985,11.733h-1.568Zm-.368-1.184-.561-1.793c-.433-1.328-.8-2.609-1.185-3.97h-.063c-.368,1.377-.752,2.642-1.168,3.97l-.577,1.793Zm3.981-6.659a1.01,1.01,0,0,1,2.017,0,1.01,1.01,0,0,1-2.017,0Zm.272,2.737h1.456v8.692h-1.456Zm4.079,0h1.2l.128,1.585h.048a3,3,0,0,1,2.465-1.809,1.856,1.856,0,0,1,.929.192l-.272,1.281a2.054,2.054,0,0,0-.848-.144c-.722,0-1.617.512-2.193,2v5.586h-1.457Zm10.048,0h1.2l.128.992h.048a4.636,4.636,0,0,1,2.77-1.216c2.241,0,3.457,1.761,3.457,4.434,0,2.977-1.776,4.69-3.777,4.69a3.916,3.916,0,0,1-2.4-1.009l.032,1.521v2.945h-1.457Zm6.083,4.226c0-1.921-.641-3.217-2.289-3.217a3.625,3.625,0,0,0-2.337,1.2v4.562a3.368,3.368,0,0,0,2.129.912C13308.452,2256.139,13309.509,2254.843,13309.509,2252.682Zm3.405,1.28v-5.506h1.457v5.33c0,1.617.479,2.305,1.632,2.305.9,0,1.521-.432,2.354-1.472v-6.163h1.457v8.692h-1.218l-.111-1.361h-.049a3.727,3.727,0,0,1-2.881,1.569C13313.73,2257.356,13312.914,2256.171,13312.914,2253.962Zm9.5-5.506h1.2l.128,1.585h.048a3,3,0,0,1,2.466-1.809,1.856,1.856,0,0,1,.929.192l-.272,1.281a2.056,2.056,0,0,0-.849-.144c-.721,0-1.616.512-2.192,2v5.586h-1.457Zm5.616-2.737a1.01,1.01,0,0,1,2.017,0,1.01,1.01,0,0,1-2.017,0Zm.271,2.737h1.456v8.692h-1.456Zm4.32-1.392c0-1.761.8-2.866,2.529-2.866a3.811,3.811,0,0,1,1.456.289l-.32,1.1a2.466,2.466,0,0,0-.976-.224c-.832,0-1.233.592-1.233,1.713v1.376h1.841v1.185h-1.841v7.507h-1.456v-7.507h-1.185v-1.105l1.185-.08Zm7.043-1.345a.968.968,0,0,1-1.025.945.948.948,0,0,1-.991-.945.919.919,0,0,1,.991-.944A.939.939,0,0,1,13339.669,2245.719Zm-1.761,2.737h1.472v8.692h-1.472Zm3.421,4.354c0-2.817,1.905-4.578,3.922-4.578,2.209,0,3.457,1.6,3.457,4.082a5.645,5.645,0,0,1-.064.832h-5.857a2.879,2.879,0,0,0,2.881,3.041,3.748,3.748,0,0,0,2.177-.688l.528.96a5.168,5.168,0,0,1-2.881.9C13343.186,2257.356,13341.329,2255.675,13341.329,2252.81Zm6.1-.7c0-1.761-.8-2.705-2.161-2.705a2.674,2.674,0,0,0-2.5,2.705Zm3.1-3.65h1.2l.128,1.585h.048a3,3,0,0,1,2.465-1.809,1.85,1.85,0,0,1,.928.192l-.271,1.281a2.056,2.056,0,0,0-.849-.144c-.72,0-1.617.512-2.192,2v5.586h-1.456Z" transform="translate(-12630.42 -2177.855)"/>
        <text id="_" data-name="  " class="cls-4" transform="translate(724.524 80.292)"><tspan class="cls-5" x="0" y="0"> </tspan><tspan y="0"> </tspan></text>
        <path id="패스_3462" data-name="패스 3462" class="cls-6" d="M15.719-17.469a5.209,5.209,0,0,1-1.227,3.578,6.141,6.141,0,0,1-3.477,1.859v.125a6.538,6.538,0,0,1,4.078,1.75,5.151,5.151,0,0,1,1.328,3.688,5.982,5.982,0,0,1-2.266,5.023A10.3,10.3,0,0,1,7.719.313,18.657,18.657,0,0,1,4.4.039a11.363,11.363,0,0,1-2.93-.961V-3.391A14.245,14.245,0,0,0,4.633-2.273a14.329,14.329,0,0,0,3.18.383q5.922,0,5.922-4.641,0-4.156-6.531-4.156H4.953v-2.234H7.234a6.869,6.869,0,0,0,4.234-1.18,3.871,3.871,0,0,0,1.563-3.273A3.227,3.227,0,0,0,11.883-20a4.732,4.732,0,0,0-3.117-.953,9.618,9.618,0,0,0-2.828.406,12.656,12.656,0,0,0-3.031,1.5L1.594-20.8a10.942,10.942,0,0,1,3.242-1.742A11.784,11.784,0,0,1,8.7-23.172a7.9,7.9,0,0,1,5.172,1.523A5.13,5.13,0,0,1,15.719-17.469Zm3.958,7.7q0-6.734,2.617-10.07t7.742-3.336a10.315,10.315,0,0,1,2.781.3v2.234a8.9,8.9,0,0,0-2.75-.391,6.939,6.939,0,0,0-5.609,2.289q-1.937,2.289-2.125,7.2h.188a5.982,5.982,0,0,1,5.438-2.687,6.386,6.386,0,0,1,4.852,1.859,7.01,7.01,0,0,1,1.773,5.047,7.782,7.782,0,0,1-1.945,5.6A6.924,6.924,0,0,1,27.38.313a6.757,6.757,0,0,1-5.625-2.664Q19.677-5.016,19.677-9.766Zm7.672,7.875a4.34,4.34,0,0,0,3.445-1.4,5.945,5.945,0,0,0,1.227-4.039,5.208,5.208,0,0,0-1.141-3.562,4.3,4.3,0,0,0-3.406-1.3,5.747,5.747,0,0,0-2.578.578,4.771,4.771,0,0,0-1.867,1.594,3.684,3.684,0,0,0-.7,2.109,7.233,7.233,0,0,0,.625,3,5.286,5.286,0,0,0,1.773,2.2A4.42,4.42,0,0,0,27.349-1.891Zm12.13-14.141a10.476,10.476,0,0,0,.578,3.984,1.946,1.946,0,0,0,1.875,1.328q2.562,0,2.563-5.312,0-5.281-2.562-5.281A1.945,1.945,0,0,0,40.057-20,10.349,10.349,0,0,0,39.479-16.031Zm7.156,0a9.874,9.874,0,0,1-1.2,5.383,3.931,3.931,0,0,1-3.508,1.82,3.836,3.836,0,0,1-3.4-1.859,9.8,9.8,0,0,1-1.211-5.344,9.924,9.924,0,0,1,1.164-5.344,3.841,3.841,0,0,1,3.445-1.8,3.922,3.922,0,0,1,3.484,1.859A9.616,9.616,0,0,1,46.635-16.031Zm6.594,9.156a10.467,10.467,0,0,0,.578,3.992A1.955,1.955,0,0,0,55.7-1.562a2.042,2.042,0,0,0,1.938-1.3,9.737,9.737,0,0,0,.625-4.008,9.521,9.521,0,0,0-.625-3.961A2.043,2.043,0,0,0,55.7-12.125a1.954,1.954,0,0,0-1.891,1.289A10.215,10.215,0,0,0,53.229-6.875Zm7.172,0a9.838,9.838,0,0,1-1.2,5.367A3.931,3.931,0,0,1,55.7.313a3.826,3.826,0,0,1-3.414-1.859,9.872,9.872,0,0,1-1.2-5.328,9.924,9.924,0,0,1,1.164-5.344,3.841,3.841,0,0,1,3.445-1.8,3.95,3.95,0,0,1,3.461,1.836A9.451,9.451,0,0,1,60.4-6.875ZM56.37-22.844,43.7,0H41.4L54.073-22.844Z" transform="translate(733.364 80.292)"/>
        <line id="선_91" data-name="선 91" class="cls-1" x2="336.365" transform="translate(2.99 78.733)"/>
        <path id="패스_43" data-name="패스 43" class="cls-2" d="M12971.269,2256.588h0m-340.849,0h0" transform="translate(-12630.42 -2177.855)"/>
        <path id="패스_1458" data-name="패스 1458" class="cls-3" d="M1.6,0H5.344C7.968,0,9.792-1.136,9.792-3.44a2.707,2.707,0,0,0-2.4-2.8v-.08A2.555,2.555,0,0,0,9.12-8.864c0-2.064-1.648-2.864-4.032-2.864H1.6ZM3.088-6.736V-10.56H4.9c1.824,0,2.768.512,2.768,1.888,0,1.184-.816,1.936-2.832,1.936Zm0,5.552V-5.6H5.136c2.048,0,3.2.656,3.2,2.112,0,1.584-1.184,2.3-3.2,2.3ZM11.664,0H13.12V-8.688H11.664ZM12.4-10.48a.952.952,0,0,0,1.008-.944.925.925,0,0,0-1.008-.944.925.925,0,0,0-1.008.944A.952.952,0,0,0,12.4-10.48ZM18.7.208a3.875,3.875,0,0,0,2.64-1.232h.032L21.52,0H22.7V-12.736H21.248v3.344l.08,1.5A3.535,3.535,0,0,0,18.88-8.912c-1.984,0-3.76,1.76-3.76,4.576C15.12-1.44,16.528.208,18.7.208Zm.32-1.216c-1.536,0-2.4-1.248-2.4-3.344,0-1.984,1.1-3.328,2.512-3.328a3.05,3.05,0,0,1,2.112.912v4.56A2.986,2.986,0,0,1,19.024-1.008ZM28.848.208a5.171,5.171,0,0,0,2.88-.9l-.528-.96a3.745,3.745,0,0,1-2.176.688A2.879,2.879,0,0,1,26.144-4H32a5.684,5.684,0,0,0,.064-.832c0-2.48-1.248-4.08-3.456-4.08-2.016,0-3.92,1.76-3.92,4.576C24.688-1.472,26.544.208,28.848.208ZM26.128-5.04a2.673,2.673,0,0,1,2.5-2.7c1.36,0,2.16.944,2.16,2.7ZM36.288.208a5.47,5.47,0,0,0,1.6-.32L37.6-1.2a3.078,3.078,0,0,1-.992.224c-1.008,0-1.344-.608-1.344-1.68V-7.5h2.352V-8.688H35.264V-11.12H34.048l-.176,2.432-1.36.08v1.1h1.3v4.816C33.808-.944,34.432.208,36.288.208Z" transform="translate(-0.342 118.972)"/>
        <text id="_2" data-name=" " class="cls-4" transform="translate(41.77 119.972)"><tspan x="0" y="0"> </tspan></text>
        <path id="패스_1459" data-name="패스 1459" class="cls-6" d="M17.656-5.25H14.266V0H11.781V-5.25H.672V-7.516L11.516-22.969h2.75V-7.609h3.391ZM11.781-7.609V-15.2q0-2.234.156-5.047h-.125a23.479,23.479,0,0,1-1.406,2.484L3.266-7.609Zm9.849-8.422a10.476,10.476,0,0,0,.578,3.984,1.946,1.946,0,0,0,1.875,1.328q2.563,0,2.563-5.312,0-5.281-2.562-5.281A1.945,1.945,0,0,0,22.208-20,10.349,10.349,0,0,0,21.63-16.031Zm7.156,0a9.874,9.874,0,0,1-1.2,5.383,3.931,3.931,0,0,1-3.508,1.82,3.836,3.836,0,0,1-3.4-1.859,9.8,9.8,0,0,1-1.211-5.344,9.924,9.924,0,0,1,1.164-5.344,3.841,3.841,0,0,1,3.445-1.8,3.922,3.922,0,0,1,3.484,1.859A9.616,9.616,0,0,1,28.786-16.031ZM35.38-6.875a10.467,10.467,0,0,0,.578,3.992,1.955,1.955,0,0,0,1.891,1.32,2.042,2.042,0,0,0,1.938-1.3,9.737,9.737,0,0,0,.625-4.008,9.521,9.521,0,0,0-.625-3.961,2.043,2.043,0,0,0-1.937-1.289,1.954,1.954,0,0,0-1.891,1.289A10.215,10.215,0,0,0,35.38-6.875Zm7.172,0a9.838,9.838,0,0,1-1.2,5.367A3.931,3.931,0,0,1,37.849.313a3.826,3.826,0,0,1-3.414-1.859,9.872,9.872,0,0,1-1.2-5.328A9.924,9.924,0,0,1,34.4-12.219a3.841,3.841,0,0,1,3.445-1.8A3.95,3.95,0,0,1,41.31-12.18,9.451,9.451,0,0,1,42.552-6.875ZM38.521-22.844,25.849,0h-2.3L36.224-22.844Z" transform="translate(46.189 119.972)"/>
        <g id="그룹_8" data-name="그룹 8" transform="translate(-12630.42 -2177.855)">
          <path id="패스_44" data-name="패스 44" class="cls-7" d="M13027.977,2311.623,12898.847,2277a129.762,129.762,0,0,1,17.013-38.229Z"/>
          <path id="패스_45" data-name="패스 45" class="cls-8" d="M13027.977,2311.623l-132.384-18.615a126.874,126.874,0,0,1,3.254-16Z"/>
          <path id="패스_46" data-name="패스 46" class="cls-6" d="M13027.977,2311.623l125.623-45.746a133.693,133.693,0,1,1-251.246,91.492c-7.9-21.727-9.977-41.465-6.761-64.361Z"/>
          <path id="패스_47" data-name="패스 47" class="cls-9" d="M13027.977,2311.623l-112.117-72.847a133.645,133.645,0,0,1,184.928-39.327c25.449,16.535,42.434,37.9,52.813,66.428Z"/>
        </g>
        <line id="선_92" data-name="선 92" class="cls-10" x2="301.993" transform="translate(3.005 205.112)"/>
        <path id="패스_48" data-name="패스 48" class="cls-2" d="M12936.92,2382.967h0m-306.5,0h0" transform="translate(-12630.42 -2177.855)"/>
        <path id="패스_49" data-name="패스 49" class="cls-3" d="M12630.478,2411.426h1.536l1.233,6.386c.224,1.265.464,2.529.688,3.793h.064c.272-1.264.561-2.528.849-3.793l1.616-6.386h1.345l1.649,6.386c.288,1.249.56,2.513.832,3.793h.08q.335-1.92.672-3.793l1.233-6.386h1.424l-2.434,11.732h-1.775l-1.777-7.075c-.208-.928-.384-1.776-.576-2.673h-.063c-.193.9-.4,1.745-.593,2.673l-1.744,7.075h-1.762Zm13.969,9.475c0-1.889,1.648-2.833,5.346-3.249,0-1.121-.368-2.193-1.792-2.193a4.791,4.791,0,0,0-2.609.928l-.576-1.008a6.539,6.539,0,0,1,3.426-1.136c2.112,0,3.009,1.424,3.009,3.569v5.346h-1.2l-.129-1.04h-.048a4.654,4.654,0,0,1-2.881,1.248A2.356,2.356,0,0,1,12644.446,2420.9Zm5.346.144v-2.433c-2.929.353-3.921,1.073-3.921,2.193,0,.993.672,1.393,1.536,1.393A3.547,3.547,0,0,0,12649.792,2421.045Zm3.918-.576v-4.818h-1.3v-1.1l1.36-.08.177-2.433h1.216v2.433h2.353v1.184h-2.353v4.85c0,1.072.336,1.681,1.345,1.681a3.074,3.074,0,0,0,.992-.224l.288,1.088a5.467,5.467,0,0,1-1.6.32C12654.335,2423.366,12653.71,2422.214,12653.71,2420.469Zm4.56-1.648c0-2.818,1.905-4.578,3.923-4.578,2.209,0,3.457,1.6,3.457,4.081a5.645,5.645,0,0,1-.064.832h-5.858a2.881,2.881,0,0,0,2.882,3.042,3.753,3.753,0,0,0,2.177-.688l.528.96a5.177,5.177,0,0,1-2.882.9C12660.127,2423.366,12658.27,2421.686,12658.27,2418.821Zm6.1-.705c0-1.761-.8-2.705-2.16-2.705a2.674,2.674,0,0,0-2.5,2.705Zm3.1-3.649h1.2l.128,1.584h.048a3,3,0,0,1,2.465-1.808,1.854,1.854,0,0,1,.929.192l-.272,1.28a2.054,2.054,0,0,0-.848-.144c-.721,0-1.617.512-2.193,2v5.586h-1.457Zm10.048,0h1.2l.128.992h.048a4.636,4.636,0,0,1,2.77-1.216c2.241,0,3.457,1.76,3.457,4.433,0,2.978-1.777,4.69-3.777,4.69a3.916,3.916,0,0,1-2.4-1.008l.031,1.52v2.946h-1.457Zm6.083,4.225c0-1.92-.641-3.217-2.289-3.217a3.622,3.622,0,0,0-2.337,1.2v4.561a3.366,3.366,0,0,0,2.129.913C12682.544,2422.15,12683.6,2420.853,12683.6,2418.692Zm3.405,1.281v-5.506h1.456v5.33c0,1.617.481,2.3,1.633,2.3.9,0,1.521-.432,2.354-1.473v-6.162h1.457v8.691h-1.217l-.112-1.36h-.048a3.731,3.731,0,0,1-2.881,1.568C12687.822,2423.366,12687.006,2422.182,12687.006,2419.973Zm9.5-5.506h1.2l.128,1.584h.048a3,3,0,0,1,2.465-1.808,1.858,1.858,0,0,1,.93.192l-.272,1.28a2.062,2.062,0,0,0-.849-.144c-.72,0-1.616.512-2.193,2v5.586h-1.456Zm5.616-2.738a1.01,1.01,0,0,1,2.016,0,1.01,1.01,0,0,1-2.016,0Zm.272,2.738h1.455v8.691h-1.455Zm4.319-1.393c0-1.761.8-2.865,2.529-2.865a3.807,3.807,0,0,1,1.456.288l-.32,1.1a2.464,2.464,0,0,0-.976-.225c-.833,0-1.233.593-1.233,1.713v1.377h1.841v1.184h-1.841v7.507h-1.456v-7.507h-1.185v-1.1l1.185-.08Zm7.042-1.345a.966.966,0,0,1-1.023.945.947.947,0,0,1-.992-.945.92.92,0,0,1,.992-.944A.938.938,0,0,1,12713.76,2411.729Zm-1.76,2.738h1.472v8.691H12712Zm3.421,4.354c0-2.818,1.905-4.578,3.922-4.578,2.209,0,3.457,1.6,3.457,4.081a5.8,5.8,0,0,1-.063.832h-5.858a2.88,2.88,0,0,0,2.881,3.042,3.746,3.746,0,0,0,2.177-.688l.528.96a5.173,5.173,0,0,1-2.881.9C12717.278,2423.366,12715.421,2421.686,12715.421,2418.821Zm6.1-.705c0-1.761-.8-2.705-2.16-2.705a2.674,2.674,0,0,0-2.5,2.705Zm3.1-3.649h1.2l.128,1.584h.048a3,3,0,0,1,2.465-1.808,1.85,1.85,0,0,1,.928.192l-.271,1.28a2.054,2.054,0,0,0-.848-.144c-.721,0-1.617.512-2.193,2v5.586h-1.457Z" transform="translate(-12630.42 -2177.855)"/>
        <text id="_3" data-name="  " class="cls-4" transform="translate(98.616 246.303)"><tspan class="cls-5" x="0" y="0"> </tspan><tspan y="0"> </tspan></text>
        <path id="패스_1460" data-name="패스 1460" class="cls-6" d="M8.7-13.953a8.4,8.4,0,0,1,5.68,1.789,6.136,6.136,0,0,1,2.07,4.9A7.074,7.074,0,0,1,14.2-1.7,9.018,9.018,0,0,1,7.969.313,11.459,11.459,0,0,1,2.078-.922v-2.5A8.952,8.952,0,0,0,4.8-2.32a13.417,13.417,0,0,0,3.2.4,6.4,6.4,0,0,0,4.273-1.3A4.652,4.652,0,0,0,13.8-6.969q0-4.781-5.859-4.781a23.329,23.329,0,0,0-3.969.453l-1.344-.859.859-10.687H14.844v2.391H5.7l-.578,6.859A18.206,18.206,0,0,1,8.7-13.953Zm25.724.859Q34.427.313,24.052.313A10.564,10.564,0,0,1,21.177,0V-2.234a9.187,9.187,0,0,0,2.844.406,6.918,6.918,0,0,0,5.664-2.32q1.914-2.32,2.086-7.117h-.187A5.561,5.561,0,0,1,29.3-9.289a7.335,7.335,0,0,1-3.2.68,6.44,6.44,0,0,1-4.812-1.812,6.914,6.914,0,0,1-1.781-5.062A7.755,7.755,0,0,1,21.5-21.109a6.957,6.957,0,0,1,5.242-2.062,7.018,7.018,0,0,1,4.07,1.2,7.555,7.555,0,0,1,2.68,3.484A14.192,14.192,0,0,1,34.427-13.094ZM26.74-20.953a4.278,4.278,0,0,0-3.453,1.438,6,6,0,0,0-1.219,4,5.2,5.2,0,0,0,1.125,3.539,4.3,4.3,0,0,0,3.422,1.289,5.931,5.931,0,0,0,2.617-.578,4.725,4.725,0,0,0,1.883-1.578,3.641,3.641,0,0,0,.688-2.094,7.156,7.156,0,0,0-.641-3.031,5.286,5.286,0,0,0-1.789-2.187A4.505,4.505,0,0,0,26.74-20.953Zm12.74,4.922a10.476,10.476,0,0,0,.578,3.984,1.946,1.946,0,0,0,1.875,1.328q2.562,0,2.563-5.312,0-5.281-2.562-5.281A1.945,1.945,0,0,0,40.057-20,10.349,10.349,0,0,0,39.479-16.031Zm7.156,0a9.874,9.874,0,0,1-1.2,5.383,3.931,3.931,0,0,1-3.508,1.82,3.836,3.836,0,0,1-3.4-1.859,9.8,9.8,0,0,1-1.211-5.344,9.924,9.924,0,0,1,1.164-5.344,3.841,3.841,0,0,1,3.445-1.8,3.922,3.922,0,0,1,3.484,1.859A9.616,9.616,0,0,1,46.635-16.031Zm6.594,9.156a10.467,10.467,0,0,0,.578,3.992A1.955,1.955,0,0,0,55.7-1.562a2.042,2.042,0,0,0,1.938-1.3,9.737,9.737,0,0,0,.625-4.008,9.521,9.521,0,0,0-.625-3.961A2.043,2.043,0,0,0,55.7-12.125a1.954,1.954,0,0,0-1.891,1.289A10.215,10.215,0,0,0,53.229-6.875Zm7.172,0a9.838,9.838,0,0,1-1.2,5.367A3.931,3.931,0,0,1,55.7.313a3.826,3.826,0,0,1-3.414-1.859,9.872,9.872,0,0,1-1.2-5.328,9.924,9.924,0,0,1,1.164-5.344,3.841,3.841,0,0,1,3.445-1.8,3.95,3.95,0,0,1,3.461,1.836A9.451,9.451,0,0,1,60.4-6.875ZM56.37-22.844,43.7,0H41.4L54.073-22.844Z" transform="translate(107.456 246.303)"/>
        <g id="그룹_9" data-name="그룹 9" transform="translate(-12630.42 -2177.855)">
          <path id="패스_50" data-name="패스 50" class="cls-11" d="M13027.92,2415.514a103.881,103.881,0,1,0-103.881-103.881,103.88,103.88,0,0,0,103.881,103.881"/>
          <path id="패스_51" data-name="패스 51" class="cls-11" d="M13029.5,2339.694c12.442,0,22.527-9.151,22.527-20.439s-10.085-20.437-22.527-20.437-22.527,9.15-22.527,20.437,10.086,20.439,22.527,20.439"/>
        </g>
        <g id="그룹_1011" data-name="그룹 1011" transform="translate(-51.826 -4849.418)">
          <path id="패스_3251" data-name="패스 3251" class="cls-12" d="M787.878,5100.818l.7-1.15-1.174-.461.138-.436,1.231.333.1-1.323h.46l.08,1.312,1.231-.322.139.436-1.174.461.714,1.15-.38.265-.84-1.059-.852,1.059Z"/>
          <path id="패스_3252" data-name="패스 3252" class="cls-12" d="M799.207,5104.04h-3.268l-.955,2.818h-.69l2.934-8.387h.713l2.934,8.387h-.736Zm-.184-.553-.506-1.518c-.346-.978-.621-1.865-.921-2.876h-.046c-.287,1.011-.575,1.9-.909,2.876l-.517,1.518Z"/>
          <path id="패스_3253" data-name="패스 3253" class="cls-12" d="M801.723,5106.168l.357-.483a2.808,2.808,0,0,0,1.933.771c.931,0,1.4-.529,1.4-1.162,0-.725-.77-1.059-1.484-1.312-.909-.322-1.921-.7-1.921-1.76,0-.9.724-1.657,2.013-1.657a2.962,2.962,0,0,1,1.783.656l-.345.46a2.349,2.349,0,0,0-1.461-.552c-.909,0-1.323.506-1.323,1.059,0,.678.713.931,1.426,1.2.944.356,1.979.69,1.979,1.875,0,.943-.748,1.749-2.1,1.749A3.6,3.6,0,0,1,801.723,5106.168Z"/>
          <path id="패스_3254" data-name="패스 3254" class="cls-12" d="M809.715,5103.8c0-2.048,1.289-3.233,2.773-3.233s2.773,1.185,2.773,3.233-1.288,3.21-2.773,3.21S809.715,5105.834,809.715,5103.8Zm4.856,0c0-1.565-.886-2.646-2.083-2.646s-2.071,1.081-2.071,2.646.875,2.635,2.071,2.635S814.571,5105.362,814.571,5103.8Z"/>
          <path id="패스_3255" data-name="패스 3255" class="cls-12" d="M819.365,5098.3a1.758,1.758,0,0,0-.725-.173c-.656,0-.943.483-.943,1.346v1.255h1.392v.563H817.7v5.568h-.668v-5.568h-.851v-.507l.851-.056v-1.289c0-1.22.541-1.875,1.576-1.875a2.325,2.325,0,0,1,.921.207Z"/>
          <path id="패스_3256" data-name="패스 3256" class="cls-12" d="M822.273,5106.444c2.842-2.451,3.969-4.176,3.969-5.695a1.647,1.647,0,0,0-1.714-1.863,2.5,2.5,0,0,0-1.864,1.047l-.425-.4a3.086,3.086,0,0,1,2.358-1.208,2.2,2.2,0,0,1,2.324,2.406c0,1.759-1.358,3.52-3.589,5.6.46-.034.943-.069,1.38-.069h2.612v.6h-5.051Z"/>
          <path id="패스_3257" data-name="패스 3257" class="cls-12" d="M828.391,5102.636c0-2.91.943-4.315,2.474-4.315s2.462,1.405,2.462,4.315c0,2.945-.944,4.372-2.462,4.372S828.391,5105.581,828.391,5102.636Zm4.269,0c0-2.5-.714-3.75-1.795-3.75s-1.807,1.254-1.807,3.75c0,2.543.713,3.808,1.807,3.808S832.66,5105.179,832.66,5102.636Z"/>
          <path id="패스_3258" data-name="패스 3258" class="cls-12" d="M834.509,5106.271h1.9v-6.822h-1.461V5099a4.781,4.781,0,0,0,1.6-.529h.541v7.8h1.748v.587h-4.325Z"/>
          <path id="패스_3259" data-name="패스 3259" class="cls-12" d="M840.7,5105.766a1.89,1.89,0,0,0,1.461.667c1.162,0,2.209-1.013,2.278-3.912a2.734,2.734,0,0,1-2.048,1.116c-1.4,0-2.266-.932-2.266-2.635a2.461,2.461,0,0,1,2.266-2.681c1.622,0,2.7,1.359,2.7,3.889,0,3.532-1.415,4.8-2.945,4.8a2.451,2.451,0,0,1-1.853-.806Zm3.727-3.9c-.069-1.829-.736-2.991-2.048-2.991-.908,0-1.587.909-1.587,2.128s.518,2.1,1.68,2.1A2.514,2.514,0,0,0,844.423,5101.865Z"/>
        </g>
      </g>
      <text id="_4" data-name=" " class="cls-13" transform="translate(426.3 112.958)"><tspan x="0" y="0"> </tspan></text>
    </g>
    <g id="그룹_1038" data-name="그룹 1038" transform="translate(642.916 -335.646)">
      <g id="그룹_1035" data-name="그룹 1035">
        <path id="패스_3463" data-name="패스 3463" class="cls-7" d="M-311.336,443.828h7.394v1.649h-5.422v3.485h4.589v1.665h-4.589v4.046h5.609v1.666h-7.581Z"/>
        <path id="패스_3464" data-name="패스 3464" class="cls-7" d="M-299.351,451.46l-2.8-4.47h2.108l1.122,1.887c.272.51.578,1.036.884,1.563h.068c.255-.527.527-1.053.782-1.563l.985-1.887h2.04l-2.8,4.692,3.008,4.657h-2.124l-1.225-1.972c-.3-.561-.628-1.138-.968-1.666h-.085c-.289.528-.578,1.088-.867,1.666l-1.088,1.972h-2.057Z"/>
        <path id="패스_3465" data-name="패스 3465" class="cls-7" d="M-292.381,446.99h1.6l.153,1.02h.051a4.74,4.74,0,0,1,2.873-1.258c2.38,0,3.706,1.887,3.706,4.76,0,3.212-1.921,5.048-4.029,5.048a3.856,3.856,0,0,1-2.465-1.054l.051,1.6v3.026h-1.937Zm6.357,4.555c0-1.954-.629-3.161-2.193-3.161a3.288,3.288,0,0,0-2.227,1.138V454.1a3.169,3.169,0,0,0,2.04.85C-287.044,454.945-286.024,453.738-286.024,451.545Z"/>
        <path id="패스_3466" data-name="패스 3466" class="cls-7" d="M-282.4,451.682c0-3.128,2.09-4.93,4.4-4.93s4.4,1.8,4.4,4.93c0,3.093-2.091,4.878-4.4,4.878S-282.4,454.775-282.4,451.682Zm6.8,0c0-1.99-.918-3.316-2.4-3.316-1.461,0-2.379,1.326-2.379,3.316,0,1.971.918,3.28,2.379,3.28C-276.521,454.962-275.6,453.653-275.6,451.682Z"/>
        <path id="패스_3467" data-name="패스 3467" class="cls-7" d="M-271.488,446.99h1.6l.153,1.683h.051a3.233,3.233,0,0,1,2.652-1.921,2.326,2.326,0,0,1,1.054.2l-.357,1.7a2.791,2.791,0,0,0-.935-.152c-.765,0-1.683.526-2.278,2.006v5.83h-1.937Z"/>
        <path id="패스_3468" data-name="패스 3468" class="cls-7" d="M-263.737,453.279v-4.725h-1.36v-1.462l1.445-.1.221-2.584h1.649v2.584h2.431v1.564h-2.431V453.3c0,1.122.391,1.7,1.36,1.7a2.787,2.787,0,0,0,1-.221l.357,1.445a5.982,5.982,0,0,1-1.836.34C-263.006,456.56-263.737,455.251-263.737,453.279Z"/>
        <path id="패스_3469" data-name="패스 3469" class="cls-7" d="M-254.676,446.99h1.972l1.241,5.066c.187.9.34,1.767.51,2.651h.068c.2-.884.391-1.768.612-2.651l1.309-5.066h1.818l1.343,5.066c.221.9.408,1.767.629,2.651h.068c.187-.884.34-1.751.544-2.651l1.207-5.066h1.836l-2.414,9.349h-2.346l-1.19-4.624c-.22-.884-.39-1.734-.594-2.7h-.085c-.187.968-.357,1.836-.6,2.719l-1.139,4.607h-2.261Z"/>
        <path id="패스_3470" data-name="패스 3470" class="cls-7" d="M-240.549,451.682c0-3.043,2.074-4.93,4.267-4.93,2.482,0,3.807,1.785,3.807,4.436a5.046,5.046,0,0,1-.085.986h-6.068a2.824,2.824,0,0,0,2.89,2.856,3.964,3.964,0,0,0,2.226-.7l.68,1.241a5.672,5.672,0,0,1-3.161.986C-238.526,456.56-240.549,454.758-240.549,451.682Zm6.392-.851c0-1.614-.731-2.55-2.091-2.55a2.536,2.536,0,0,0-2.4,2.55Z"/>
        <path id="패스_3471" data-name="패스 3471" class="cls-7" d="M-230.689,444.083a1.149,1.149,0,0,1,1.241-1.156,1.163,1.163,0,0,1,1.258,1.156,1.173,1.173,0,0,1-1.258,1.156A1.158,1.158,0,0,1-230.689,444.083Zm.272,2.907h1.938v9.349h-1.938Z"/>
        <path id="패스_3472" data-name="패스 3472" class="cls-7" d="M-226.524,458.072a2.471,2.471,0,0,1,1.359-2.039v-.085a1.718,1.718,0,0,1-.849-1.547,2.309,2.309,0,0,1,1.036-1.734V452.6a3.2,3.2,0,0,1-1.223-2.483,3.371,3.371,0,0,1,3.62-3.365,3.9,3.9,0,0,1,1.36.238h3.315v1.461h-1.785a2.529,2.529,0,0,1,.612,1.718,3.2,3.2,0,0,1-3.5,3.212,3.254,3.254,0,0,1-1.309-.289,1.241,1.241,0,0,0-.509.986c0,.561.374.918,1.563.918h1.717c2.21,0,3.366.68,3.366,2.277,0,1.8-1.9,3.264-4.9,3.264C-224.893,460.537-226.524,459.7-226.524,458.072Zm6.884-.492c0-.782-.612-1.02-1.751-1.02H-222.8a5.952,5.952,0,0,1-1.258-.136,1.68,1.68,0,0,0-.8,1.36c0,.917.951,1.461,2.5,1.461C-220.728,459.245-219.64,458.446-219.64,457.58Zm-1.173-7.463a1.789,1.789,0,0,0-1.768-1.988,1.78,1.78,0,0,0-1.768,1.988,1.823,1.823,0,0,0,1.768,2.006A1.823,1.823,0,0,0-220.813,450.117Z"/>
        <path id="패스_3473" data-name="패스 3473" class="cls-7" d="M-216.24,442.791h1.938v3.587l-.068,1.852a4.354,4.354,0,0,1,3.026-1.478c1.989,0,2.872,1.326,2.872,3.7v5.882h-1.954V450.7c0-1.614-.476-2.26-1.581-2.26a3.193,3.193,0,0,0-2.295,1.275v6.629h-1.938Z"/>
        <path id="패스_3474" data-name="패스 3474" class="cls-7" d="M-205.649,453.279v-4.725h-1.36v-1.462l1.445-.1.221-2.584h1.649v2.584h2.431v1.564h-2.431V453.3c0,1.122.391,1.7,1.36,1.7a2.787,2.787,0,0,0,1-.221l.357,1.445a5.982,5.982,0,0,1-1.836.34C-204.918,456.56-205.649,455.251-205.649,453.279Z"/>
        <path id="패스_3475" data-name="패스 3475" class="cls-7" d="M-193.8,455.37h-.051l-.187.969h-1.53V442.791h1.938v3.587l-.051,1.6a4.457,4.457,0,0,1,2.787-1.224c2.363,0,3.706,1.887,3.706,4.76,0,3.212-1.921,5.048-4.028,5.048A3.883,3.883,0,0,1-193.8,455.37Zm4.59-3.825c0-1.954-.63-3.161-2.193-3.161a3.255,3.255,0,0,0-2.227,1.138V454.1a3.134,3.134,0,0,0,2.04.85C-190.23,454.945-189.21,453.738-189.21,451.545Z"/>
        <path id="패스_3476" data-name="패스 3476" class="cls-7" d="M-181.136,456.9c-.731,2.006-1.717,3.349-3.688,3.349a3.327,3.327,0,0,1-1.173-.186l.374-1.531a2.493,2.493,0,0,0,.68.137c1.02,0,1.615-.748,1.955-1.751l.187-.646-3.706-9.281h2.006l1.733,4.811c.272.832.561,1.767.851,2.635h.084l.731-2.635,1.5-4.811h1.9Z"/>
      </g>
      <g id="그룹_1036" data-name="그룹 1036">
        <path id="패스_3477" data-name="패스 3477" class="cls-7" d="M-274.769,468.835h3.79c2.788,0,4.777.952,4.777,3.773,0,2.738-1.989,4-4.709,4H-272.8v4.742h-1.972Zm3.671,6.187c2.006,0,2.958-.764,2.958-2.414s-1.037-2.192-3.026-2.192H-272.8v4.606Z"/>
        <path id="패스_3478" data-name="패스 3478" class="cls-7" d="M-264.144,472h1.6l.152,1.683h.052a3.231,3.231,0,0,1,2.652-1.921,2.308,2.308,0,0,1,1.053.2l-.357,1.7a2.791,2.791,0,0,0-.935-.152c-.764,0-1.682.526-2.278,2.006v5.83h-1.937Z"/>
        <path id="패스_3479" data-name="패스 3479" class="cls-7" d="M-258.058,476.688c0-3.127,2.091-4.929,4.4-4.929s4.4,1.8,4.4,4.929c0,3.094-2.091,4.878-4.4,4.878S-258.058,479.782-258.058,476.688Zm6.8,0c0-1.989-.918-3.315-2.4-3.315-1.461,0-2.379,1.326-2.379,3.315,0,1.972.918,3.281,2.379,3.281C-252.177,479.969-251.259,478.66-251.259,476.688Z"/>
        <path id="패스_3480" data-name="패스 3480" class="cls-7" d="M-247.671,476.688c0-3.042,1.92-4.929,4.011-4.929a3.607,3.607,0,0,1,2.516,1.054l-.085-1.547V467.8h1.955v13.548h-1.6l-.17-1.054h-.051a3.918,3.918,0,0,1-2.72,1.274C-246.159,481.566-247.671,479.782-247.671,476.688Zm6.442,2.125V474.24a2.931,2.931,0,0,0-2.057-.849c-1.309,0-2.363,1.241-2.363,3.263,0,2.125.833,3.3,2.295,3.3A2.748,2.748,0,0,0-241.229,478.813Z"/>
        <path id="패스_3481" data-name="패스 3481" class="cls-7" d="M-236.689,477.878V472h1.954v5.643c0,1.615.459,2.244,1.564,2.244.867,0,1.462-.408,2.244-1.394V472h1.955v9.349h-1.6l-.153-1.411h-.051a3.919,3.919,0,0,1-3.06,1.631C-235.823,481.566-236.689,480.258-236.689,477.878Z"/>
        <path id="패스_3482" data-name="패스 3482" class="cls-7" d="M-226.847,476.688a4.594,4.594,0,0,1,4.624-4.929,4.016,4.016,0,0,1,2.737,1.07l-.969,1.275a2.454,2.454,0,0,0-1.683-.731c-1.564,0-2.686,1.326-2.686,3.315,0,1.972,1.071,3.281,2.635,3.281a3.2,3.2,0,0,0,2.04-.85l.8,1.292a4.55,4.55,0,0,1-3.025,1.155C-224.909,481.566-226.847,479.782-226.847,476.688Z"/>
        <path id="패스_3483" data-name="패스 3483" class="cls-7" d="M-216.919,478.286v-4.725h-1.36V472.1l1.445-.1.221-2.584h1.649V472h2.431v1.564h-2.431V478.3c0,1.122.391,1.7,1.36,1.7a2.809,2.809,0,0,0,1-.221l.357,1.445a6.013,6.013,0,0,1-1.836.339C-216.188,481.566-216.919,480.258-216.919,478.286Z"/>
      </g>
      <g id="그룹_1037" data-name="그룹 1037" transform="translate(-2)">
        <path id="패스_3484" data-name="패스 3484" class="cls-3" d="M-266.817,505.68a12.643,12.643,0,0,1,1.931-6.78l.476.257a12.652,12.652,0,0,0-1.746,6.523,12.61,12.61,0,0,0,1.746,6.522l-.476.243A12.591,12.591,0,0,1-266.817,505.68Z"/>
        <path id="패스_3485" data-name="패스 3485" class="cls-3" d="M-263.126,505.99v-6h.793v5.955c0,2.567,1.165,3.336,2.5,3.336,1.363,0,2.554-.769,2.554-3.336v-5.955h.754v6c0,3.106-1.575,4.025-3.308,4.025S-263.126,509.1-263.126,505.99Z"/>
        <path id="패스_3486" data-name="패스 3486" class="cls-3" d="M-254.1,502.642h.635l.093,1.093h.026a3.45,3.45,0,0,1,2.408-1.283c1.468,0,2.143.932,2.143,2.782v4.6h-.767v-4.5c0-1.5-.463-2.188-1.548-2.188-.82,0-1.4.433-2.222,1.3v5.388h-.768Z"/>
        <path id="패스_3487" data-name="패스 3487" class="cls-3" d="M-246.748,500.332a.62.62,0,0,1,.648-.648.627.627,0,0,1,.648.648.63.63,0,0,1-.648.621A.622.622,0,0,1-246.748,500.332Zm.251,2.31h.768v7.2h-.768Z"/>
        <path id="패스_3488" data-name="패스 3488" class="cls-3" d="M-243.057,507.786V503.3h-1.1v-.594l1.125-.067.092-2.08h.648v2.08h2.024v.661h-2.024v4.537c0,.9.239,1.5,1.178,1.5a2.426,2.426,0,0,0,.86-.2l.185.607a3.91,3.91,0,0,1-1.178.271C-242.633,510.015-243.057,509.123-243.057,507.786Z"/>
        <path id="패스_3489" data-name="패스 3489" class="cls-3" d="M-236.39,502.885c0-1.959.807-3.066,2.091-3.066s2.09,1.107,2.09,3.066c0,2-.794,3.119-2.09,3.119S-236.39,504.883-236.39,502.885Zm3.546,0c0-1.635-.582-2.526-1.455-2.526s-1.442.891-1.442,2.526.569,2.579,1.442,2.579S-232.844,504.532-232.844,502.885Zm4.18-3.066h.609l-5.371,10.2h-.609Zm-1.19,7.089c0-1.971.807-3.079,2.1-3.079,1.27,0,2.09,1.108,2.09,3.079,0,2-.82,3.107-2.09,3.107C-229.047,510.015-229.854,508.907-229.854,506.908Zm3.545,0c0-1.647-.582-2.538-1.442-2.538-.886,0-1.455.891-1.455,2.538s.569,2.567,1.455,2.567C-226.891,509.475-226.309,508.556-226.309,506.908Z" transform="translate(4)"/>
        <path id="패스_3490" data-name="패스 3490" class="cls-3" d="M-225,512.2a12.611,12.611,0,0,0,1.747-6.522A12.653,12.653,0,0,0-225,499.157l.477-.257a12.652,12.652,0,0,1,1.931,6.78,12.6,12.6,0,0,1-1.931,6.765Z" transform="translate(4)"/>
      </g>
      <path id="패스_3534" data-name="패스 3534" class="cls-3" d="M-152.285,642.691a.691.691,0,0,1,.675-.743.691.691,0,0,1,.674.743.687.687,0,0,1-.674.73A.688.688,0,0,1-152.285,642.691Zm0,5.645a.691.691,0,0,1,.675-.742.69.69,0,0,1,.674.742.686.686,0,0,1-.674.729A.687.687,0,0,1-152.285,648.336Z" transform="translate(-86.178 -139.051)"/>
    </g>
  </g>
</svg>
