<svg xmlns="http://www.w3.org/2000/svg" width="796.323" height="344.477" viewBox="0 0 796.323 344.477">
  <defs>
    <style>
      .cls-1, .cls-2, .cls-3, .cls-4, .cls-5, .cls-6 {
        fill: none;
        stroke: #302d2c;
        stroke-linecap: round;
        stroke-linejoin: round;
      }

      .cls-1 {
        stroke-dasharray: 0 2.962;
      }

      .cls-2 {
        stroke-dasharray: 0 2.997;
      }

      .cls-4 {
        stroke-dasharray: 0 2.995;
      }

      .cls-5 {
        stroke-dasharray: 0 3.006;
      }

      .cls-6 {
        stroke-dasharray: 0 2.998;
      }

      .cls-7, .cls-9 {
        fill: #171a1b;
      }

      .cls-8 {
        fill: #052342;
      }

      .cls-9 {
        font-size: 13px;
        font-family: NotoSansKR-Light, Noto Sans KR;
        font-weight: 300;
      }

      .cls-10 {
        letter-spacing: -0.019em;
      }

      .cls-11 {
        fill: #828585;
      }

      .cls-12 {
        fill: #cbd0d3;
      }

      .cls-13 {
        fill: #c2e2f0;
      }

      .cls-14 {
        fill: #335998;
      }

      .cls-15 {
        fill: #87aedc;
      }

      .cls-16 {
        fill: #fff;
      }
    </style>
  </defs>
  <g id="구성_요소_121_1" data-name="구성 요소 121 – 1" transform="translate(0.5 0.021)">
    <line id="선_1120" data-name="선 1120" class="cls-1" y1="46.289" x2="43.728" transform="translate(486.534 1.556)"/>
    <line id="선_1121" data-name="선 1121" class="cls-2" x2="259.226" transform="translate(534.276 0.479)"/>
    <path id="패스_3260" data-name="패스 3260" class="cls-3" d="M849.513,5382.261h0m-263.721,0h0m-46.779,49.518h0" transform="translate(-54.513 -5381.782)"/>
    <line id="선_1122" data-name="선 1122" class="cls-4" x2="286.008" transform="translate(507.495 93.03)"/>
    <path id="패스_3261" data-name="패스 3261" class="cls-3" d="M849.513,5474.812h0m-290.5,0h0" transform="translate(-54.513 -5381.782)"/>
    <line id="선_1123" data-name="선 1123" class="cls-4" x2="286.008" transform="translate(2.995 72.323)"/>
    <path id="패스_3262" data-name="패스 3262" class="cls-3" d="M345.013,5454.1h0m-290.5,0h0" transform="translate(-54.513 -5381.782)"/>
    <line id="선_1124" data-name="선 1124" class="cls-4" x2="286.008" transform="translate(2.995 204.296)"/>
    <path id="패스_3263" data-name="패스 3263" class="cls-3" d="M345.013,5586.078h0m-290.5,0h0" transform="translate(-54.513 -5381.782)"/>
    <line id="선_1125" data-name="선 1125" class="cls-4" x2="286.008" transform="translate(507.495 185.009)"/>
    <path id="패스_3264" data-name="패스 3264" class="cls-3" d="M849.513,5566.791h0m-290.5,0h0" transform="translate(-54.513 -5381.782)"/>
    <line id="선_1126" data-name="선 1126" class="cls-5" x2="62.981" y2="43.701" transform="translate(466.969 234.405)"/>
    <line id="선_1127" data-name="선 1127" class="cls-6" x2="259.317" transform="translate(534.184 278.964)"/>
    <path id="패스_3265" data-name="패스 3265" class="cls-3" d="M849.513,5660.746h0m-263.814,0h0m-66.686-46.272h0" transform="translate(-54.513 -5381.782)"/>
    <g id="그룹_1012" data-name="그룹 1012" transform="translate(-54.513 -5381.782)">
      <path id="패스_3266" data-name="패스 3266" class="cls-7" d="M712.527,5411.977c0-3.555,2.13-5.715,5.039-5.715a4.179,4.179,0,0,1,3.165,1.365l-.75.9a3.079,3.079,0,0,0-2.384-1.05c-2.2,0-3.645,1.71-3.645,4.455,0,2.775,1.3,4.514,3.659,4.514a3.023,3.023,0,0,0,1.995-.645v-2.879h-2.324v-1.155h3.6v4.62a4.725,4.725,0,0,1-3.4,1.274C714.582,5417.661,712.527,5415.547,712.527,5411.977Z"/>
      <path id="패스_3267" data-name="패스 3267" class="cls-7" d="M722.667,5413.4c0-2.714,1.785-4.29,3.78-4.29s3.78,1.576,3.78,4.29-1.786,4.26-3.78,4.26S722.667,5416.1,722.667,5413.4Zm6.149,0c0-1.875-.96-3.149-2.369-3.149s-2.355,1.274-2.355,3.149.945,3.12,2.355,3.12S728.816,5415.276,728.816,5413.4Z"/>
      <path id="패스_3268" data-name="패스 3268" class="cls-7" d="M730.886,5409.322h1.426l1.529,4.635c.255.795.51,1.635.765,2.4h.06c.24-.764.51-1.6.75-2.4l1.545-4.635h1.35l-2.895,8.145h-1.59Z"/>
      <path id="패스_3269" data-name="패스 3269" class="cls-7" d="M738.972,5413.4c0-2.639,1.784-4.29,3.674-4.29,2.07,0,3.24,1.5,3.24,3.826a5.345,5.345,0,0,1-.06.78h-5.49a2.7,2.7,0,0,0,2.7,2.849,3.513,3.513,0,0,0,2.04-.644l.495.9a4.844,4.844,0,0,1-2.7.84C740.711,5417.661,738.972,5416.086,738.972,5413.4Zm5.715-.659c0-1.65-.75-2.535-2.026-2.535a2.506,2.506,0,0,0-2.34,2.535Z"/>
      <path id="패스_3270" data-name="패스 3270" class="cls-7" d="M747.776,5409.322H748.9l.12,1.485h.045a2.812,2.812,0,0,1,2.31-1.7,1.733,1.733,0,0,1,.87.18l-.255,1.2a1.928,1.928,0,0,0-.8-.136c-.675,0-1.515.48-2.055,1.875v5.236h-1.365Z"/>
      <path id="패스_3271" data-name="패스 3271" class="cls-7" d="M753.6,5409.322h1.125l.12,1.17h.045a3.907,3.907,0,0,1,2.73-1.381c1.71,0,2.489,1.111,2.489,3.2v5.16h-1.364v-4.981c0-1.529-.466-2.174-1.545-2.174a3.092,3.092,0,0,0-2.235,1.245v5.91H753.6Z"/>
      <path id="패스_3272" data-name="패스 3272" class="cls-7" d="M762.506,5409.322h1.125l.12,1.185h.045a3.581,3.581,0,0,1,2.535-1.4,2.149,2.149,0,0,1,2.25,1.561,3.848,3.848,0,0,1,2.685-1.561c1.679,0,2.474,1.111,2.474,3.2v5.16h-1.365v-4.981c0-1.529-.479-2.174-1.515-2.174a3.006,3.006,0,0,0-2.054,1.245v5.91h-1.365v-4.981c0-1.529-.48-2.174-1.515-2.174a3.007,3.007,0,0,0-2.055,1.245v5.91h-1.365Z"/>
      <path id="패스_3273" data-name="패스 3273" class="cls-7" d="M775.631,5413.4c0-2.639,1.785-4.29,3.675-4.29,2.069,0,3.239,1.5,3.239,3.826a5.211,5.211,0,0,1-.06.78H777a2.7,2.7,0,0,0,2.7,2.849,3.513,3.513,0,0,0,2.04-.644l.495.9a4.842,4.842,0,0,1-2.7.84C777.371,5417.661,775.631,5416.086,775.631,5413.4Zm5.715-.659c0-1.65-.75-2.535-2.026-2.535a2.507,2.507,0,0,0-2.34,2.535Z"/>
      <path id="패스_3274" data-name="패스 3274" class="cls-7" d="M784.436,5409.322h1.125l.12,1.17h.045a3.905,3.905,0,0,1,2.73-1.381c1.71,0,2.489,1.111,2.489,3.2v5.16h-1.364v-4.981c0-1.529-.466-2.174-1.545-2.174a3.091,3.091,0,0,0-2.235,1.245v5.91h-1.365Z"/>
      <path id="패스_3275" data-name="패스 3275" class="cls-7" d="M793.556,5414.946v-4.514H792.34V5409.4l1.275-.074.165-2.281h1.14v2.281h2.205v1.11H794.92v4.545c0,1,.315,1.574,1.26,1.574a2.91,2.91,0,0,0,.93-.209l.27,1.019a5.078,5.078,0,0,1-1.5.3C794.141,5417.661,793.556,5416.582,793.556,5414.946Z"/>
    </g>
    <g id="그룹_1013" data-name="그룹 1013" transform="translate(-54.513 -5381.782)">
      <path id="패스_3276" data-name="패스 3276" class="cls-8" d="M823.351,5413.217H819.96v5.25h-2.484v-5.25H806.367v-2.266L817.21,5395.5h2.75v15.359h3.391Zm-5.875-2.36v-7.593q0-2.237.156-5.047h-.125a23.4,23.4,0,0,1-1.406,2.484l-7.141,10.156Z"/>
      <path id="패스_3277" data-name="패스 3277" class="cls-8" d="M834.481,5402.436a9.87,9.87,0,0,1-1.2,5.382,3.934,3.934,0,0,1-3.508,1.821,3.836,3.836,0,0,1-3.4-1.86,9.806,9.806,0,0,1-1.211-5.343,9.911,9.911,0,0,1,1.165-5.344,3.839,3.839,0,0,1,3.445-1.8,3.921,3.921,0,0,1,3.484,1.859A9.614,9.614,0,0,1,834.481,5402.436Zm-7.156,0a10.466,10.466,0,0,0,.578,3.984,1.945,1.945,0,0,0,1.875,1.328q2.562,0,2.562-5.312,0-5.283-2.562-5.282a1.945,1.945,0,0,0-1.875,1.313A10.337,10.337,0,0,0,827.325,5402.436Zm16.89-6.813-12.672,22.844h-2.3l12.671-22.844Zm4.032,15.969a9.838,9.838,0,0,1-1.2,5.367,3.932,3.932,0,0,1-3.508,1.82,3.826,3.826,0,0,1-3.414-1.859,12.659,12.659,0,0,1-.031-10.672,3.839,3.839,0,0,1,3.445-1.8,3.95,3.95,0,0,1,3.461,1.836A9.443,9.443,0,0,1,848.247,5411.592Zm-7.172,0a10.458,10.458,0,0,0,.578,3.992,1.954,1.954,0,0,0,1.89,1.32,2.043,2.043,0,0,0,1.938-1.3,9.755,9.755,0,0,0,.625-4.008,9.534,9.534,0,0,0-.625-3.961,2.043,2.043,0,0,0-1.938-1.289,1.953,1.953,0,0,0-1.89,1.289A10.206,10.206,0,0,0,841.075,5411.592Z"/>
    </g>
    <text id="_119_210_882" data-name="119,210,882" class="cls-9" transform="translate(728.823 63.684)"><tspan class="cls-10" x="0" y="0">119,210,88</tspan><tspan y="0">2</tspan></text>
    <g id="그룹_1014" data-name="그룹 1014" transform="translate(-54.513 -5381.782)">
      <path id="패스_3278" data-name="패스 3278" class="cls-7" d="M758.716,5504.482c0-3.525,1.934-5.669,4.7-5.669s4.694,2.144,4.694,5.669-1.935,5.729-4.694,5.729S758.716,5508.007,758.716,5504.482Zm7.964,0c0-2.759-1.3-4.455-3.269-4.455-1.98,0-3.27,1.7-3.27,4.455s1.29,4.514,3.27,4.514C765.375,5509,766.68,5507.227,766.68,5504.482Z"/>
      <path id="패스_3279" data-name="패스 3279" class="cls-7" d="M770.641,5507.5v-4.514h-1.216v-1.035l1.275-.075.165-2.28h1.14v2.28h2.205v1.11h-2.205v4.545c0,1,.315,1.575,1.26,1.575a2.912,2.912,0,0,0,.93-.21l.27,1.02a5.13,5.13,0,0,1-1.5.3C771.226,5510.211,770.641,5509.132,770.641,5507.5Z"/>
      <path id="패스_3280" data-name="패스 3280" class="cls-7" d="M775.92,5498.077h1.366v3.271l-.046,1.679a3.826,3.826,0,0,1,2.7-1.365c1.71,0,2.49,1.109,2.49,3.195v5.16h-1.365v-4.98c0-1.53-.465-2.176-1.544-2.176a3.092,3.092,0,0,0-2.235,1.246v5.91H775.92Z"/>
      <path id="패스_3281" data-name="패스 3281" class="cls-7" d="M784.275,5505.951c0-2.638,1.785-4.289,3.675-4.289,2.07,0,3.24,1.5,3.24,3.824a5.341,5.341,0,0,1-.06.781h-5.49a2.7,2.7,0,0,0,2.7,2.85,3.513,3.513,0,0,0,2.04-.645l.495.9a4.849,4.849,0,0,1-2.7.84C786.015,5510.211,784.275,5508.637,784.275,5505.951Zm5.715-.659c0-1.649-.75-2.535-2.025-2.535a2.507,2.507,0,0,0-2.34,2.535Z"/>
      <path id="패스_3282" data-name="패스 3282" class="cls-7" d="M793.08,5501.872h1.125l.12,1.485h.045a2.812,2.812,0,0,1,2.31-1.695,1.739,1.739,0,0,1,.87.18l-.255,1.2a1.943,1.943,0,0,0-.795-.136c-.675,0-1.515.481-2.055,1.875v5.236H793.08Z"/>
    </g>
    <g id="그룹_1015" data-name="그룹 1015" transform="translate(-54.513 -5381.782)">
      <path id="패스_3283" data-name="패스 3283" class="cls-8" d="M814.82,5487.845a7.746,7.746,0,0,1,4.953,1.453,4.845,4.845,0,0,1,1.828,4.015,5,5,0,0,1-1.047,3.079,9.261,9.261,0,0,1-3.344,2.531,11.263,11.263,0,0,1,3.954,2.789,5.251,5.251,0,0,1,1.171,3.383,5.667,5.667,0,0,1-1.984,4.539,8.1,8.1,0,0,1-5.437,1.7,8.712,8.712,0,0,1-5.625-1.6,5.52,5.52,0,0,1-1.969-4.54q0-3.921,4.781-6.109a8.82,8.82,0,0,1-3.094-2.633,5.6,5.6,0,0,1-.937-3.164,4.823,4.823,0,0,1,1.836-3.961A7.614,7.614,0,0,1,814.82,5487.845Zm-4.938,17.406a3.535,3.535,0,0,0,1.3,2.922,5.713,5.713,0,0,0,3.664,1.047,5.46,5.46,0,0,0,3.625-1.094,3.72,3.72,0,0,0,1.3-3,3.651,3.651,0,0,0-1.219-2.695,12.421,12.421,0,0,0-4.25-2.289,9.243,9.243,0,0,0-3.375,2.211A4.282,4.282,0,0,0,809.882,5505.251Zm4.907-15.3a4.6,4.6,0,0,0-3.063.938,3.106,3.106,0,0,0-1.109,2.5,3.573,3.573,0,0,0,.922,2.468,9.622,9.622,0,0,0,3.406,2.063,8.538,8.538,0,0,0,3.164-2.016,3.733,3.733,0,0,0,.93-2.515,3.077,3.077,0,0,0-1.133-2.508A4.778,4.778,0,0,0,814.789,5489.954Z"/>
      <path id="패스_3284" data-name="패스 3284" class="cls-8" d="M834.481,5494.985a9.876,9.876,0,0,1-1.2,5.383,3.931,3.931,0,0,1-3.508,1.82,3.838,3.838,0,0,1-3.4-1.859,9.8,9.8,0,0,1-1.211-5.344,9.912,9.912,0,0,1,1.165-5.343,3.836,3.836,0,0,1,3.445-1.8,3.922,3.922,0,0,1,3.484,1.859A9.609,9.609,0,0,1,834.481,5494.985Zm-7.156,0a10.473,10.473,0,0,0,.578,3.985,1.946,1.946,0,0,0,1.875,1.328q2.562,0,2.562-5.313,0-5.28-2.562-5.281a1.945,1.945,0,0,0-1.875,1.313A10.336,10.336,0,0,0,827.325,5494.985Zm16.89-6.812-12.672,22.844h-2.3l12.671-22.844Zm4.032,15.969a9.837,9.837,0,0,1-1.2,5.367,3.929,3.929,0,0,1-3.508,1.82,3.827,3.827,0,0,1-3.414-1.859,12.66,12.66,0,0,1-.031-10.672,3.84,3.84,0,0,1,3.445-1.8,3.95,3.95,0,0,1,3.461,1.836A9.445,9.445,0,0,1,848.247,5504.142Zm-7.172,0a10.454,10.454,0,0,0,.578,3.992,1.954,1.954,0,0,0,1.89,1.32,2.042,2.042,0,0,0,1.938-1.305,9.749,9.749,0,0,0,.625-4.007,9.528,9.528,0,0,0-.625-3.961,2.042,2.042,0,0,0-1.938-1.289,1.952,1.952,0,0,0-1.89,1.289A10.2,10.2,0,0,0,841.075,5504.142Z"/>
    </g>
    <g id="그룹_1016" data-name="그룹 1016" transform="translate(-54.513 -5381.782)">
      <path id="패스_3285" data-name="패스 3285" class="cls-7" d="M783.921,5537.549c3.211-2.77,4.485-4.719,4.485-6.436a1.862,1.862,0,0,0-1.937-2.1,2.823,2.823,0,0,0-2.106,1.182l-.481-.455a3.484,3.484,0,0,1,2.665-1.365,2.483,2.483,0,0,1,2.626,2.718c0,1.988-1.534,3.977-4.056,6.33.52-.039,1.066-.077,1.56-.077h2.951v.676h-5.707Z"/>
      <path id="패스_3286" data-name="패스 3286" class="cls-7" d="M796.557,5535.313h-1.339v2.7h-.741v-2.7h-4.186v-.481l4.186-6.293h.741v6.137h1.339Zm-2.08-.637v-3.5c0-.428.039-1.131.078-1.573h-.065c-.221.429-.481.884-.754,1.313l-2.574,3.758Z"/>
      <path id="패스_3287" data-name="패스 3287" class="cls-7" d="M797.336,5537.549c3.212-2.77,4.486-4.719,4.486-6.436a1.862,1.862,0,0,0-1.937-2.1,2.825,2.825,0,0,0-2.107,1.182l-.481-.455a3.486,3.486,0,0,1,2.665-1.365,2.483,2.483,0,0,1,2.627,2.718c0,1.988-1.534,3.977-4.056,6.33.52-.039,1.066-.077,1.56-.077h2.951v.676h-5.708Z"/>
      <path id="패스_3288" data-name="패스 3288" class="cls-7" d="M804.148,5539.811a1.968,1.968,0,0,0,1.144-1.743.575.575,0,0,1-.155.014.638.638,0,0,1-.677-.664.651.651,0,0,1,.689-.649c.469,0,.781.428.781,1.118a2.7,2.7,0,0,1-1.56,2.418Z"/>
      <path id="패스_3289" data-name="패스 3289" class="cls-7" d="M807.658,5537.354H809.8v-7.709h-1.652v-.508a5.431,5.431,0,0,0,1.807-.6h.611v8.815h1.977v.663h-4.889Z"/>
      <path id="패스_3290" data-name="패스 3290" class="cls-7" d="M814.418,5536.781a2.132,2.132,0,0,0,1.651.754c1.314,0,2.5-1.143,2.575-4.42a3.09,3.09,0,0,1-2.314,1.262c-1.586,0-2.561-1.054-2.561-2.978a2.781,2.781,0,0,1,2.561-3.029c1.833,0,3.055,1.534,3.055,4.4,0,3.991-1.6,5.421-3.328,5.421a2.766,2.766,0,0,1-2.094-.911Zm4.213-4.406c-.078-2.068-.832-3.381-2.315-3.381-1.026,0-1.794,1.027-1.794,2.4s.585,2.367,1.9,2.367A2.842,2.842,0,0,0,818.631,5532.375Z"/>
      <path id="패스_3291" data-name="패스 3291" class="cls-7" d="M826.392,5535.313h-1.339v2.7h-.741v-2.7h-4.187v-.481l4.187-6.293h.741v6.137h1.339Zm-2.08-.637v-3.5c0-.428.039-1.131.078-1.573h-.065c-.221.429-.481.884-.755,1.313L821,5534.676Z"/>
      <path id="패스_3292" data-name="패스 3292" class="cls-7" d="M827.275,5539.811a1.969,1.969,0,0,0,1.144-1.743.583.583,0,0,1-.156.014.638.638,0,0,1-.676-.664.651.651,0,0,1,.689-.649c.468,0,.78.428.78,1.118a2.7,2.7,0,0,1-1.56,2.418Z"/>
      <path id="패스_3293" data-name="패스 3293" class="cls-7" d="M835.322,5529.774a1.981,1.981,0,0,0-1.547-.753c-1.43,0-2.639,1.13-2.678,4.393a3.049,3.049,0,0,1,2.288-1.234c1.612,0,2.574,1.027,2.574,2.976a2.782,2.782,0,0,1-2.561,3.03c-1.833,0-3.042-1.625-3.042-4.641,0-3.822,1.625-5.175,3.406-5.175a2.6,2.6,0,0,1,2.015.91Zm-.117,5.382c0-1.378-.572-2.365-1.924-2.365a2.846,2.846,0,0,0-2.171,1.352c.117,2.08.858,3.406,2.3,3.406C834.438,5537.549,835.205,5536.535,835.205,5535.156Z"/>
      <path id="패스_3294" data-name="패스 3294" class="cls-7" d="M836.986,5533.246c0-3.29,1.066-4.876,2.795-4.876s2.782,1.586,2.782,4.876c0,3.328-1.066,4.94-2.782,4.94S836.986,5536.574,836.986,5533.246Zm4.823,0c0-2.822-.806-4.238-2.028-4.238s-2.041,1.416-2.041,4.238c0,2.873.806,4.3,2.041,4.3S841.809,5536.119,841.809,5533.246Z"/>
      <path id="패스_3295" data-name="패스 3295" class="cls-7" d="M843.369,5536.951l.416-.533a3.19,3.19,0,0,0,2.483,1.117,2.323,2.323,0,0,0,2.21-2.535,2.147,2.147,0,0,0-2.171-2.431,2.744,2.744,0,0,0-1.677.6l-.494-.3.325-4.329h4.329v.663h-3.653l-.273,3.185a2.918,2.918,0,0,1,1.586-.454c1.56,0,2.808.935,2.808,3.042a3,3,0,0,1-2.964,3.211A3.905,3.905,0,0,1,843.369,5536.951Z"/>
    </g>
    <g id="그룹_1017" data-name="그룹 1017" transform="translate(-54.513 -5381.782)">
      <path id="패스_3296" data-name="패스 3296" class="cls-7" d="M54.718,5487.871l.825-.945a4.323,4.323,0,0,0,3.045,1.365c1.44,0,2.31-.721,2.31-1.8,0-1.125-.795-1.484-1.83-1.949l-1.59-.69a3.106,3.106,0,0,1-2.235-2.82c0-1.695,1.47-2.926,3.465-2.926a4.509,4.509,0,0,1,3.24,1.366l-.735.884a3.571,3.571,0,0,0-2.505-1.035c-1.245,0-2.055.631-2.055,1.621,0,1.065.96,1.469,1.815,1.83l1.575.674c1.275.556,2.265,1.306,2.265,2.941,0,1.739-1.44,3.12-3.735,3.12A5.258,5.258,0,0,1,54.718,5487.871Z"/>
      <path id="패스_3297" data-name="패스 3297" class="cls-7" d="M64.018,5486.326v-5.16h1.365v4.994c0,1.516.45,2.16,1.53,2.16.84,0,1.425-.4,2.2-1.38v-5.774h1.365v8.145h-1.14l-.105-1.276h-.045a3.5,3.5,0,0,1-2.7,1.471C64.783,5489.506,64.018,5488.4,64.018,5486.326Z"/>
      <path id="패스_3298" data-name="패스 3298" class="cls-7" d="M72.928,5481.166h1.125l.12.93h.045a4.343,4.343,0,0,1,2.6-1.14c2.1,0,3.24,1.649,3.24,4.155,0,2.789-1.665,4.4-3.54,4.4a3.68,3.68,0,0,1-2.25-.945l.03,1.424v2.761H72.928Zm5.7,3.959c0-1.8-.6-3.014-2.145-3.014a3.394,3.394,0,0,0-2.189,1.125v4.275a3.155,3.155,0,0,0,2,.854C77.638,5488.365,78.627,5487.15,78.627,5485.125Z"/>
      <path id="패스_3299" data-name="패스 3299" class="cls-7" d="M82.063,5481.166h1.125l.12.93h.045a4.338,4.338,0,0,1,2.594-1.14c2.1,0,3.241,1.649,3.241,4.155,0,2.789-1.666,4.4-3.541,4.4a3.682,3.682,0,0,1-2.25-.945l.031,1.424v2.761H82.063Zm5.7,3.959c0-1.8-.6-3.014-2.145-3.014a3.394,3.394,0,0,0-2.189,1.125v4.275a3.153,3.153,0,0,0,1.994.854C86.772,5488.365,87.762,5487.15,87.762,5485.125Z"/>
      <path id="패스_3300" data-name="패스 3300" class="cls-7" d="M91.167,5487.69v-10.319h1.366v10.41c0,.42.179.584.389.584a1.229,1.229,0,0,0,.286-.029l.194,1.05a2.16,2.16,0,0,1-.795.12C91.587,5489.506,91.167,5488.846,91.167,5487.69Z"/>
      <path id="패스_3301" data-name="패스 3301" class="cls-7" d="M94.888,5478.6a.946.946,0,0,1,1.889,0,.947.947,0,0,1-1.889,0Zm.255,2.564h1.365v8.145H95.143Z"/>
      <path id="패스_3302" data-name="패스 3302" class="cls-7" d="M98.413,5485.246c0-2.641,1.784-4.29,3.674-4.29,2.07,0,3.24,1.5,3.24,3.825a5.351,5.351,0,0,1-.06.78h-5.49a2.7,2.7,0,0,0,2.7,2.849,3.519,3.519,0,0,0,2.04-.644l.5.9a4.849,4.849,0,0,1-2.7.84C100.152,5489.506,98.413,5487.931,98.413,5485.246Zm5.714-.66c0-1.65-.75-2.535-2.025-2.535a2.505,2.505,0,0,0-2.34,2.535Z"/>
      <path id="패스_3303" data-name="패스 3303" class="cls-7" d="M107.217,5481.166h1.125l.12,1.484h.045a2.811,2.811,0,0,1,2.31-1.694,1.734,1.734,0,0,1,.87.18l-.255,1.2a1.912,1.912,0,0,0-.795-.135c-.675,0-1.515.48-2.054,1.875v5.235h-1.366Z"/>
      <path id="패스_3304" data-name="패스 3304" class="cls-7" d="M112.2,5488.381l.675-.9a3.69,3.69,0,0,0,2.415.96c1.08,0,1.6-.569,1.6-1.274,0-.825-.96-1.2-1.86-1.545-1.14-.42-2.43-.975-2.43-2.355,0-1.289,1.035-2.31,2.805-2.31a4.22,4.22,0,0,1,2.535.915l-.66.885a3.066,3.066,0,0,0-1.875-.721c-1.02,0-1.485.541-1.485,1.17,0,.781.885,1.066,1.8,1.41,1.185.451,2.49.931,2.49,2.476,0,1.319-1.05,2.415-2.97,2.415A4.919,4.919,0,0,1,112.2,5488.381Z"/>
    </g>
    <g id="그룹_1018" data-name="그룹 1018" transform="translate(-54.513 -5381.782)">
      <path id="패스_3305" data-name="패스 3305" class="cls-8" d="M144.541,5485.061H141.15v5.25h-2.484v-5.25H127.557v-2.266l10.843-15.453h2.75V5482.7h3.391Zm-5.875-2.36v-7.594q0-2.233.156-5.046H138.7a23.332,23.332,0,0,1-1.406,2.484L130.15,5482.7Z"/>
      <path id="패스_3306" data-name="패스 3306" class="cls-8" d="M160.452,5472.842a5.211,5.211,0,0,1-1.226,3.578,6.133,6.133,0,0,1-3.477,1.859v.125a6.547,6.547,0,0,1,4.078,1.75,5.154,5.154,0,0,1,1.328,3.688,5.982,5.982,0,0,1-2.265,5.023,10.307,10.307,0,0,1-6.438,1.758,18.809,18.809,0,0,1-3.32-.273,11.326,11.326,0,0,1-2.93-.961v-2.469a14.961,14.961,0,0,0,6.344,1.5q5.922,0,5.922-4.641,0-4.155-6.531-4.156h-2.25v-2.234h2.281a6.865,6.865,0,0,0,4.234-1.18,3.869,3.869,0,0,0,1.563-3.273,3.225,3.225,0,0,0-1.149-2.625,4.731,4.731,0,0,0-3.117-.954,9.61,9.61,0,0,0-2.828.407,12.649,12.649,0,0,0-3.031,1.5l-1.313-1.75a10.934,10.934,0,0,1,3.242-1.743,11.81,11.81,0,0,1,3.868-.632,7.9,7.9,0,0,1,5.171,1.523A5.131,5.131,0,0,1,160.452,5472.842Z"/>
      <path id="패스_3307" data-name="패스 3307" class="cls-8" d="M173.52,5474.279a9.873,9.873,0,0,1-1.2,5.383,3.931,3.931,0,0,1-3.508,1.82,3.836,3.836,0,0,1-3.4-1.859,9.8,9.8,0,0,1-1.21-5.344,9.913,9.913,0,0,1,1.164-5.343,3.838,3.838,0,0,1,3.445-1.8A3.922,3.922,0,0,1,172.3,5469,9.611,9.611,0,0,1,173.52,5474.279Zm-7.156,0a10.466,10.466,0,0,0,.578,3.985,1.946,1.946,0,0,0,1.875,1.328q2.562,0,2.562-5.313,0-5.28-2.562-5.281a1.945,1.945,0,0,0-1.875,1.313A10.335,10.335,0,0,0,166.364,5474.279Zm16.89-6.812-12.671,22.844h-2.3l12.672-22.844Zm4.032,15.969a9.836,9.836,0,0,1-1.2,5.367,3.929,3.929,0,0,1-3.507,1.82,3.826,3.826,0,0,1-3.415-1.859,12.66,12.66,0,0,1-.031-10.672,3.844,3.844,0,0,1,3.446-1.8,3.95,3.95,0,0,1,3.46,1.836A9.445,9.445,0,0,1,187.286,5483.436Zm-7.172,0a10.458,10.458,0,0,0,.578,3.992,1.954,1.954,0,0,0,1.891,1.32,2.042,2.042,0,0,0,1.937-1.305,9.724,9.724,0,0,0,.625-4.007,9.511,9.511,0,0,0-.625-3.961,2.042,2.042,0,0,0-1.937-1.289,1.954,1.954,0,0,0-1.891,1.289A10.2,10.2,0,0,0,180.114,5483.436Z"/>
    </g>
    <g id="그룹_1019" data-name="그룹 1019" transform="translate(-54.513 -5381.782)">
      <path id="패스_3308" data-name="패스 3308" class="cls-7" d="M55.209,5516.647h2.145v-7.709H55.7v-.506a5.442,5.442,0,0,0,1.807-.6h.611v8.814H60.1v.664H55.209Z"/>
      <path id="패스_3309" data-name="패스 3309" class="cls-7" d="M61.41,5519.1a1.965,1.965,0,0,0,1.144-1.742.624.624,0,0,1-.156.013.637.637,0,0,1-.676-.662.652.652,0,0,1,.689-.65c.468,0,.78.429.78,1.118a2.7,2.7,0,0,1-1.56,2.418Z"/>
      <path id="패스_3310" data-name="패스 3310" class="cls-7" d="M64.127,5516.18l.429-.508a3.239,3.239,0,0,0,2.5,1.158,1.974,1.974,0,0,0,2.106-2.029c0-1.274-.884-2.131-3.146-2.131v-.638c2.08,0,2.808-.9,2.808-2.028a1.659,1.659,0,0,0-1.794-1.716,2.972,2.972,0,0,0-2.08,1l-.442-.519a3.68,3.68,0,0,1,2.535-1.119,2.307,2.307,0,0,1,2.562,2.3,2.368,2.368,0,0,1-1.743,2.341v.064a2.47,2.47,0,0,1,2.08,2.444,2.65,2.65,0,0,1-2.86,2.678A3.836,3.836,0,0,1,64.127,5516.18Z"/>
      <path id="패스_3311" data-name="패스 3311" class="cls-7" d="M71.121,5512.539c0-3.289,1.066-4.875,2.795-4.875s2.782,1.586,2.782,4.875c0,3.328-1.066,4.94-2.782,4.94S71.121,5515.867,71.121,5512.539Zm4.823,0c0-2.82-.806-4.238-2.028-4.238s-2.041,1.418-2.041,4.238c0,2.873.806,4.3,2.041,4.3S75.944,5515.412,75.944,5512.539Z"/>
      <path id="패스_3312" data-name="패스 3312" class="cls-7" d="M78.336,5516.647h2.145v-7.709H78.83v-.506a5.442,5.442,0,0,0,1.807-.6h.611v8.814h1.976v.664H78.336Z"/>
      <path id="패스_3313" data-name="패스 3313" class="cls-7" d="M84.537,5519.1a1.965,1.965,0,0,0,1.144-1.742.624.624,0,0,1-.156.013.637.637,0,0,1-.676-.662.652.652,0,0,1,.689-.65c.468,0,.78.429.78,1.118a2.7,2.7,0,0,1-1.56,2.418Z"/>
      <path id="패스_3314" data-name="패스 3314" class="cls-7" d="M92.272,5508.5h-4.8v-.663h5.72v.455c-2.249,2.951-2.717,5.317-2.86,9.023h-.819C89.672,5513.527,90.387,5511.122,92.272,5508.5Z"/>
      <path id="패스_3315" data-name="패스 3315" class="cls-7" d="M98.98,5508.5h-4.8v-.663H99.9v.455c-2.249,2.951-2.717,5.317-2.86,9.023h-.819C96.38,5513.527,97.1,5511.122,98.98,5508.5Z"/>
      <path id="패스_3316" data-name="패스 3316" class="cls-7" d="M100.851,5514.957a3.2,3.2,0,0,1,1.807-2.7v-.053a2.616,2.616,0,0,1-1.3-2.158,2.324,2.324,0,0,1,2.444-2.34,2.355,2.355,0,0,1,2.51,2.484,3.315,3.315,0,0,1-1.3,2.352v.065a2.787,2.787,0,0,1,1.613,2.47,2.564,2.564,0,0,1-2.835,2.4A2.673,2.673,0,0,1,100.851,5514.957Zm5.018.1c0-1.444-1.326-1.963-2.756-2.523a2.82,2.82,0,0,0-1.547,2.379,2.047,2.047,0,0,0,2.223,1.951A1.881,1.881,0,0,0,105.869,5515.062Zm-.26-4.849a1.781,1.781,0,0,0-1.82-1.9,1.66,1.66,0,0,0-1.7,1.729c0,1.287,1.183,1.82,2.366,2.289A2.767,2.767,0,0,0,105.609,5510.213Z"/>
      <path id="패스_3317" data-name="패스 3317" class="cls-7" d="M107.663,5519.1a1.965,1.965,0,0,0,1.144-1.742.624.624,0,0,1-.156.013.637.637,0,0,1-.676-.662.652.652,0,0,1,.689-.65c.468,0,.78.429.78,1.118a2.7,2.7,0,0,1-1.56,2.418Z"/>
      <path id="패스_3318" data-name="패스 3318" class="cls-7" d="M110.562,5514.957a3.2,3.2,0,0,1,1.807-2.7v-.053a2.616,2.616,0,0,1-1.3-2.158,2.324,2.324,0,0,1,2.444-2.34,2.354,2.354,0,0,1,2.509,2.484,3.314,3.314,0,0,1-1.3,2.352v.065a2.786,2.786,0,0,1,1.612,2.47,2.563,2.563,0,0,1-2.834,2.4A2.673,2.673,0,0,1,110.562,5514.957Zm5.018.1c0-1.444-1.326-1.963-2.756-2.523a2.82,2.82,0,0,0-1.547,2.379,2.047,2.047,0,0,0,2.223,1.951A1.881,1.881,0,0,0,115.58,5515.062Zm-.26-4.849a1.781,1.781,0,0,0-1.82-1.9,1.66,1.66,0,0,0-1.7,1.729c0,1.287,1.183,1.82,2.366,2.289A2.767,2.767,0,0,0,115.32,5510.213Z"/>
      <path id="패스_3319" data-name="패스 3319" class="cls-7" d="M117.088,5516.18l.429-.508a3.239,3.239,0,0,0,2.5,1.158,1.974,1.974,0,0,0,2.106-2.029c0-1.274-.884-2.131-3.146-2.131v-.638c2.08,0,2.808-.9,2.808-2.028a1.659,1.659,0,0,0-1.794-1.716,2.972,2.972,0,0,0-2.08,1l-.442-.519a3.68,3.68,0,0,1,2.535-1.119,2.307,2.307,0,0,1,2.562,2.3,2.368,2.368,0,0,1-1.743,2.341v.064a2.47,2.47,0,0,1,2.08,2.444,2.65,2.65,0,0,1-2.86,2.678A3.836,3.836,0,0,1,117.088,5516.18Z"/>
      <path id="패스_3320" data-name="패스 3320" class="cls-7" d="M129.906,5514.606h-1.339v2.705h-.741v-2.705H123.64v-.481l4.186-6.292h.741v6.136h1.339Zm-2.08-.637v-3.5c0-.43.039-1.131.078-1.574h-.065c-.221.429-.481.884-.754,1.314l-2.574,3.756Z"/>
    </g>
    <g id="그룹_1020" data-name="그룹 1020" transform="translate(-54.513 -5381.782)">
      <path id="패스_3321" data-name="패스 3321" class="cls-7" d="M55.513,5610.287h3.135c2.475,0,4.125.826,4.125,3.226,0,2.325-1.65,3.4-4.05,3.4H56.908v4.364h-1.4Zm3.03,5.506c1.935,0,2.85-.705,2.85-2.28,0-1.59-.975-2.1-2.91-2.1H56.908v4.381Z"/>
      <path id="패스_3322" data-name="패스 3322" class="cls-7" d="M64.123,5619.168c0-1.771,1.545-2.656,5.01-3.045,0-1.051-.345-2.056-1.68-2.056a4.48,4.48,0,0,0-2.445.871l-.54-.946a6.135,6.135,0,0,1,3.21-1.064c1.98,0,2.82,1.335,2.82,3.344v5.01H69.373l-.12-.975h-.045a4.363,4.363,0,0,1-2.7,1.17A2.208,2.208,0,0,1,64.123,5619.168Zm5.01.135v-2.281c-2.745.331-3.675,1-3.675,2.055,0,.931.63,1.306,1.44,1.306A3.33,3.33,0,0,0,69.133,5619.3Z"/>
      <path id="패스_3323" data-name="패스 3323" class="cls-7" d="M72.853,5613.138h1.125l.12,1.485h.045a2.812,2.812,0,0,1,2.31-1.695,1.749,1.749,0,0,1,.87.179l-.255,1.2a1.927,1.927,0,0,0-.795-.136c-.675,0-1.515.48-2.055,1.875v5.235H72.853Z"/>
      <path id="패스_3324" data-name="패스 3324" class="cls-7" d="M79.393,5618.762v-4.514H78.178v-1.035l1.275-.075.165-2.281h1.14v2.281h2.2v1.11h-2.2v4.545c0,1,.315,1.574,1.26,1.574a2.886,2.886,0,0,0,.93-.21l.27,1.021a5.161,5.161,0,0,1-1.5.3C79.978,5621.477,79.393,5620.4,79.393,5618.762Z"/>
      <path id="패스_3325" data-name="패스 3325" class="cls-7" d="M84.688,5613.138h1.125l.12,1.17h.045a3.9,3.9,0,0,1,2.73-1.38c1.709,0,2.489,1.109,2.489,3.195v5.159H89.833V5616.3c0-1.531-.466-2.176-1.545-2.176a3.092,3.092,0,0,0-2.235,1.246v5.909H84.688Z"/>
      <path id="패스_3326" data-name="패스 3326" class="cls-7" d="M93.073,5617.217c0-2.639,1.784-4.289,3.675-4.289,2.069,0,3.239,1.5,3.239,3.824a5.176,5.176,0,0,1-.06.78H94.438a2.7,2.7,0,0,0,2.7,2.851,3.5,3.5,0,0,0,2.04-.646l.495.9a4.846,4.846,0,0,1-2.7.84C94.813,5621.477,93.073,5619.9,93.073,5617.217Zm5.714-.659c0-1.65-.749-2.536-2.025-2.536a2.507,2.507,0,0,0-2.34,2.536Z"/>
      <path id="패스_3327" data-name="패스 3327" class="cls-7" d="M101.877,5613.138H103l.121,1.485h.044a2.812,2.812,0,0,1,2.311-1.695,1.748,1.748,0,0,1,.869.179l-.255,1.2a1.927,1.927,0,0,0-.8-.136c-.674,0-1.515.48-2.054,1.875v5.235h-1.366Z"/>
      <path id="패스_3328" data-name="패스 3328" class="cls-7" d="M106.857,5620.352l.675-.9a3.7,3.7,0,0,0,2.415.96c1.08,0,1.605-.57,1.605-1.275,0-.824-.96-1.2-1.86-1.545-1.14-.42-2.43-.975-2.43-2.355,0-1.29,1.035-2.309,2.805-2.309a4.222,4.222,0,0,1,2.535.915l-.66.885a3.065,3.065,0,0,0-1.875-.72c-1.02,0-1.485.539-1.485,1.17,0,.779.885,1.064,1.8,1.41,1.185.449,2.49.93,2.49,2.475,0,1.32-1.05,2.414-2.97,2.414A4.913,4.913,0,0,1,106.857,5620.352Z"/>
    </g>
    <g id="그룹_1021" data-name="그룹 1021" transform="translate(-54.513 -5381.782)">
      <path id="패스_3329" data-name="패스 3329" class="cls-8" d="M138.149,5622.282H123.133v-2.234l6.016-6.047a44.53,44.53,0,0,0,3.625-3.969,10.155,10.155,0,0,0,1.312-2.312,6.62,6.62,0,0,0,.438-2.422,3.843,3.843,0,0,0-1.109-2.9,4.254,4.254,0,0,0-3.079-1.07,7.727,7.727,0,0,0-2.695.469,10.74,10.74,0,0,0-2.836,1.7l-1.375-1.766a10.531,10.531,0,0,1,6.875-2.625,7.265,7.265,0,0,1,5.047,1.649,5.667,5.667,0,0,1,1.828,4.429,8.547,8.547,0,0,1-1.219,4.3,27.262,27.262,0,0,1-4.562,5.375l-5,4.891v.125h11.75Z"/>
      <path id="패스_3330" data-name="패스 3330" class="cls-8" d="M156,5622.282H140.982v-2.234L147,5614a44.53,44.53,0,0,0,3.625-3.969,10.155,10.155,0,0,0,1.312-2.312,6.62,6.62,0,0,0,.438-2.422,3.844,3.844,0,0,0-1.11-2.9,4.251,4.251,0,0,0-3.078-1.07,7.723,7.723,0,0,0-2.695.469,10.724,10.724,0,0,0-2.836,1.7l-1.375-1.766a10.529,10.529,0,0,1,6.875-2.625,7.267,7.267,0,0,1,5.047,1.649,5.67,5.67,0,0,1,1.828,4.429,8.547,8.547,0,0,1-1.219,4.3,27.262,27.262,0,0,1-4.562,5.375l-5,4.891v.125H156Z"/>
      <path id="패스_3331" data-name="패스 3331" class="cls-8" d="M168.206,5606.251a9.873,9.873,0,0,1-1.195,5.383,3.93,3.93,0,0,1-3.508,1.82,3.838,3.838,0,0,1-3.4-1.859,9.81,9.81,0,0,1-1.21-5.344,9.916,9.916,0,0,1,1.164-5.344,3.839,3.839,0,0,1,3.445-1.8,3.921,3.921,0,0,1,3.484,1.86A9.609,9.609,0,0,1,168.206,5606.251Zm-7.156,0a10.462,10.462,0,0,0,.578,3.984,1.944,1.944,0,0,0,1.875,1.328q2.562,0,2.562-5.312,0-5.281-2.562-5.281a1.944,1.944,0,0,0-1.875,1.312A10.338,10.338,0,0,0,161.05,5606.251Zm16.89-6.813-12.671,22.844h-2.3l12.672-22.844Zm4.032,15.969a9.835,9.835,0,0,1-1.2,5.367,3.93,3.93,0,0,1-3.507,1.821,3.826,3.826,0,0,1-3.415-1.86,12.659,12.659,0,0,1-.031-10.672,3.841,3.841,0,0,1,3.446-1.8,3.949,3.949,0,0,1,3.46,1.836A9.441,9.441,0,0,1,181.972,5615.407Zm-7.172,0a10.45,10.45,0,0,0,.578,3.992,1.957,1.957,0,0,0,1.891,1.321,2.042,2.042,0,0,0,1.937-1.305,9.734,9.734,0,0,0,.625-4.008,9.521,9.521,0,0,0-.625-3.961,2.042,2.042,0,0,0-1.937-1.289,1.955,1.955,0,0,0-1.891,1.289A10.21,10.21,0,0,0,174.8,5615.407Z"/>
    </g>
    <g id="그룹_1022" data-name="그룹 1022" transform="translate(-54.513 -5381.782)">
      <path id="패스_3332" data-name="패스 3332" class="cls-7" d="M59.747,5641.04a1.985,1.985,0,0,0-1.548-.754c-1.429,0-2.639,1.131-2.678,4.394a3.054,3.054,0,0,1,2.289-1.235c1.611,0,2.573,1.028,2.573,2.977a2.781,2.781,0,0,1-2.561,3.029c-1.833,0-3.042-1.625-3.042-4.64,0-3.823,1.625-5.175,3.407-5.175a2.593,2.593,0,0,1,2.014.91Zm-.118,5.382c0-1.378-.571-2.365-1.924-2.365a2.847,2.847,0,0,0-2.171,1.351c.117,2.08.858,3.406,2.3,3.406C58.862,5648.814,59.629,5647.8,59.629,5646.422Z"/>
      <path id="패스_3333" data-name="패스 3333" class="cls-7" d="M61.085,5648.217l.416-.533a3.191,3.191,0,0,0,2.483,1.117,2.322,2.322,0,0,0,2.21-2.535,2.146,2.146,0,0,0-2.171-2.431,2.735,2.735,0,0,0-1.677.6l-.494-.3.325-4.329h4.329v.663H62.854l-.274,3.184a2.931,2.931,0,0,1,1.587-.454c1.56,0,2.808.936,2.808,3.042a3,3,0,0,1-2.965,3.211A3.907,3.907,0,0,1,61.085,5648.217Z"/>
      <path id="패스_3334" data-name="패스 3334" class="cls-7" d="M68.014,5648.814c3.211-2.769,4.485-4.718,4.485-6.435a1.862,1.862,0,0,0-1.937-2.106,2.82,2.82,0,0,0-2.106,1.183l-.481-.455a3.484,3.484,0,0,1,2.665-1.365,2.483,2.483,0,0,1,2.626,2.718c0,1.988-1.534,3.977-4.056,6.33.52-.039,1.066-.078,1.56-.078h2.951v.676H68.014Z"/>
      <path id="패스_3335" data-name="패스 3335" class="cls-7" d="M74.826,5651.076a1.967,1.967,0,0,0,1.144-1.742.583.583,0,0,1-.156.014.638.638,0,0,1-.676-.664.652.652,0,0,1,.689-.65c.468,0,.78.429.78,1.118a2.7,2.7,0,0,1-1.56,2.418Z"/>
      <path id="패스_3336" data-name="패스 3336" class="cls-7" d="M82.873,5641.04a1.982,1.982,0,0,0-1.547-.754c-1.43,0-2.639,1.131-2.679,4.394a3.052,3.052,0,0,1,2.289-1.235c1.612,0,2.574,1.028,2.574,2.977a2.781,2.781,0,0,1-2.561,3.029c-1.833,0-3.042-1.625-3.042-4.64,0-3.823,1.625-5.175,3.406-5.175a2.6,2.6,0,0,1,2.015.91Zm-.117,5.382c0-1.378-.572-2.365-1.924-2.365a2.847,2.847,0,0,0-2.171,1.351c.117,2.08.858,3.406,2.3,3.406C81.989,5648.814,82.756,5647.8,82.756,5646.422Z"/>
      <path id="패스_3337" data-name="패스 3337" class="cls-7" d="M84.433,5646.93a3.206,3.206,0,0,1,1.807-2.705v-.052a2.615,2.615,0,0,1-1.3-2.157,2.325,2.325,0,0,1,2.445-2.341,2.355,2.355,0,0,1,2.509,2.483,3.316,3.316,0,0,1-1.3,2.354v.064a2.785,2.785,0,0,1,1.612,2.47,2.564,2.564,0,0,1-2.834,2.405A2.673,2.673,0,0,1,84.433,5646.93Zm5.018.1c0-1.443-1.326-1.963-2.756-2.521a2.817,2.817,0,0,0-1.548,2.379,2.047,2.047,0,0,0,2.224,1.949A1.881,1.881,0,0,0,89.451,5647.033Zm-.26-4.849a1.78,1.78,0,0,0-1.82-1.9,1.66,1.66,0,0,0-1.7,1.73c0,1.286,1.183,1.819,2.366,2.287A2.764,2.764,0,0,0,89.191,5642.184Z"/>
      <path id="패스_3338" data-name="패스 3338" class="cls-7" d="M91.752,5648.619H93.9v-7.709H92.246v-.508a5.445,5.445,0,0,0,1.807-.6h.611v8.814H96.64v.663H91.752Z"/>
      <path id="패스_3339" data-name="패스 3339" class="cls-7" d="M97.952,5651.076a1.967,1.967,0,0,0,1.144-1.742.583.583,0,0,1-.156.014.638.638,0,0,1-.676-.664.652.652,0,0,1,.689-.65c.468,0,.78.429.78,1.118a2.7,2.7,0,0,1-1.56,2.418Z"/>
      <path id="패스_3340" data-name="패스 3340" class="cls-7" d="M101.462,5648.619h2.145v-7.709h-1.651v-.508a5.445,5.445,0,0,0,1.807-.6h.611v8.814h1.977v.663h-4.889Z"/>
      <path id="패스_3341" data-name="패스 3341" class="cls-7" d="M113.487,5646.578h-1.339v2.7h-.741v-2.7h-4.186v-.48l4.186-6.293h.741v6.136h1.339Zm-2.08-.637v-3.5c0-.427.039-1.13.078-1.572h-.065c-.221.429-.481.884-.754,1.313l-2.574,3.757Z"/>
      <path id="패스_3342" data-name="패스 3342" class="cls-7" d="M120.195,5646.578h-1.339v2.7h-.741v-2.7h-4.186v-.48l4.186-6.293h.741v6.136h1.339Zm-2.08-.637v-3.5c0-.427.039-1.13.078-1.572h-.065c-.221.429-.481.884-.754,1.313l-2.574,3.757Z"/>
    </g>
    <g id="그룹_1023" data-name="그룹 1023" transform="translate(-54.513 -5381.782)">
      <path id="패스_3343" data-name="패스 3343" class="cls-7" d="M609.394,5600.555l.824-.945a4.317,4.317,0,0,0,3.045,1.365c1.44,0,2.31-.719,2.31-1.8,0-1.125-.795-1.486-1.83-1.951l-1.59-.69a3.106,3.106,0,0,1-2.235-2.82c0-1.694,1.47-2.924,3.465-2.924a4.513,4.513,0,0,1,3.24,1.364l-.735.886a3.558,3.558,0,0,0-2.505-1.035c-1.245,0-2.055.63-2.055,1.619,0,1.065.96,1.471,1.815,1.83l1.575.676c1.275.555,2.265,1.305,2.265,2.939,0,1.741-1.44,3.119-3.735,3.119A5.248,5.248,0,0,1,609.394,5600.555Z"/>
      <path id="패스_3344" data-name="패스 3344" class="cls-7" d="M618.783,5590.056h1.365v3.27l-.045,1.68a3.824,3.824,0,0,1,2.7-1.365c1.71,0,2.49,1.109,2.49,3.195V5602h-1.365v-4.979c0-1.531-.465-2.176-1.545-2.176a3.1,3.1,0,0,0-2.235,1.246V5602h-1.365Z"/>
      <path id="패스_3345" data-name="패스 3345" class="cls-7" d="M627.108,5599.881c0-1.771,1.545-2.656,5.01-3.045,0-1.051-.345-2.056-1.68-2.056a4.487,4.487,0,0,0-2.445.87l-.54-.945a6.135,6.135,0,0,1,3.21-1.064c1.98,0,2.82,1.335,2.82,3.344V5602h-1.125l-.12-.975h-.045a4.362,4.362,0,0,1-2.7,1.169A2.207,2.207,0,0,1,627.108,5599.881Zm5.01.135v-2.281c-2.745.33-3.675,1.005-3.675,2.055,0,.931.63,1.306,1.44,1.306A3.329,3.329,0,0,0,632.118,5600.016Z"/>
      <path id="패스_3346" data-name="패스 3346" class="cls-7" d="M635.838,5593.851h1.125l.12,1.485h.045a2.812,2.812,0,0,1,2.31-1.695,1.75,1.75,0,0,1,.87.179l-.255,1.2a1.927,1.927,0,0,0-.795-.136c-.675,0-1.515.48-2.055,1.875V5602h-1.365Z"/>
      <path id="패스_3347" data-name="패스 3347" class="cls-7" d="M640.848,5597.93c0-2.639,1.785-4.289,3.675-4.289,2.07,0,3.24,1.5,3.24,3.824a5.315,5.315,0,0,1-.06.78h-5.49a2.7,2.7,0,0,0,2.7,2.851,3.513,3.513,0,0,0,2.04-.646l.495.9a4.856,4.856,0,0,1-2.7.839C642.588,5602.189,640.848,5600.615,640.848,5597.93Zm5.714-.659c0-1.65-.749-2.536-2.024-2.536a2.507,2.507,0,0,0-2.34,2.536Z"/>
      <path id="패스_3348" data-name="패스 3348" class="cls-7" d="M649.652,5590.056h1.366v3.27l-.046,1.68a3.824,3.824,0,0,1,2.7-1.365c1.71,0,2.49,1.109,2.49,3.195V5602H654.8v-4.979c0-1.531-.465-2.176-1.545-2.176a3.092,3.092,0,0,0-2.234,1.246V5602h-1.366Z"/>
      <path id="패스_3349" data-name="패스 3349" class="cls-7" d="M658.008,5597.93c0-2.715,1.784-4.289,3.78-4.289s3.779,1.574,3.779,4.289-1.785,4.259-3.779,4.259S658.008,5600.631,658.008,5597.93Zm6.149,0c0-1.875-.96-3.15-2.369-3.15s-2.355,1.275-2.355,3.15.944,3.121,2.355,3.121S664.157,5599.805,664.157,5597.93Z"/>
      <path id="패스_3350" data-name="패스 3350" class="cls-7" d="M667.532,5600.375v-10.319H668.9v10.409c0,.42.18.586.39.586a1.17,1.17,0,0,0,.285-.031l.2,1.05a2.156,2.156,0,0,1-.8.119C667.952,5602.189,667.532,5601.53,667.532,5600.375Z"/>
      <path id="패스_3351" data-name="패스 3351" class="cls-7" d="M670.967,5597.93c0-2.639,1.665-4.289,3.525-4.289a3.309,3.309,0,0,1,2.295.96l-.075-1.411v-3.134h1.365V5602h-1.11l-.135-.96h-.03a3.632,3.632,0,0,1-2.475,1.154C672.287,5602.189,670.967,5600.645,670.967,5597.93Zm5.745,2v-4.276a2.861,2.861,0,0,0-1.98-.855c-1.32,0-2.355,1.26-2.355,3.12,0,1.966.81,3.136,2.25,3.136A2.8,2.8,0,0,0,676.712,5599.926Z"/>
      <path id="패스_3352" data-name="패스 3352" class="cls-7" d="M680.042,5597.93c0-2.639,1.785-4.289,3.675-4.289,2.07,0,3.24,1.5,3.24,3.824a5.306,5.306,0,0,1-.06.78h-5.49a2.7,2.7,0,0,0,2.7,2.851,3.513,3.513,0,0,0,2.04-.646l.5.9a4.856,4.856,0,0,1-2.7.839C681.782,5602.189,680.042,5600.615,680.042,5597.93Zm5.715-.659c0-1.65-.75-2.536-2.025-2.536a2.507,2.507,0,0,0-2.34,2.536Z"/>
      <path id="패스_3353" data-name="패스 3353" class="cls-7" d="M688.847,5593.851h1.125l.12,1.485h.045a2.812,2.812,0,0,1,2.31-1.695,1.743,1.743,0,0,1,.869.179l-.254,1.2a1.928,1.928,0,0,0-.795-.136c-.675,0-1.516.48-2.055,1.875V5602h-1.365Z"/>
      <path id="패스_3354" data-name="패스 3354" class="cls-7" d="M693.827,5601.064l.675-.9a3.7,3.7,0,0,0,2.415.96c1.08,0,1.6-.57,1.6-1.275,0-.825-.959-1.2-1.859-1.545-1.141-.42-2.43-.975-2.43-2.355,0-1.29,1.035-2.309,2.8-2.309a4.22,4.22,0,0,1,2.535.915l-.66.884a3.072,3.072,0,0,0-1.875-.719c-1.02,0-1.485.539-1.485,1.17,0,.779.885,1.064,1.8,1.41,1.185.449,2.49.929,2.49,2.474,0,1.321-1.05,2.414-2.97,2.414A4.907,4.907,0,0,1,693.827,5601.064Z"/>
      <path id="패스_3355" data-name="패스 3355" class="cls-7" d="M704.477,5599.881c0-1.771,1.544-2.656,5.009-3.045,0-1.051-.345-2.056-1.68-2.056a4.487,4.487,0,0,0-2.445.87l-.54-.945a6.138,6.138,0,0,1,3.21-1.064c1.98,0,2.82,1.335,2.82,3.344V5602h-1.125l-.12-.975h-.045a4.362,4.362,0,0,1-2.7,1.169A2.207,2.207,0,0,1,704.477,5599.881Zm5.009.135v-2.281c-2.745.33-3.674,1.005-3.674,2.055,0,.931.629,1.306,1.439,1.306A3.329,3.329,0,0,0,709.486,5600.016Z"/>
      <path id="패스_3356" data-name="패스 3356" class="cls-7" d="M713.207,5593.851h1.125l.12,1.17h.045a3.9,3.9,0,0,1,2.73-1.38c1.71,0,2.489,1.109,2.489,3.195V5602h-1.364v-4.979c0-1.531-.466-2.176-1.545-2.176a3.092,3.092,0,0,0-2.235,1.246V5602h-1.365Z"/>
      <path id="패스_3357" data-name="패스 3357" class="cls-7" d="M721.636,5597.93c0-2.639,1.665-4.289,3.525-4.289a3.309,3.309,0,0,1,2.295.96l-.075-1.411v-3.134h1.365V5602h-1.11l-.135-.96h-.03a3.632,3.632,0,0,1-2.475,1.154C722.956,5602.189,721.636,5600.645,721.636,5597.93Zm5.745,2v-4.276a2.861,2.861,0,0,0-1.98-.855c-1.32,0-2.355,1.26-2.355,3.12,0,1.966.81,3.136,2.25,3.136A2.8,2.8,0,0,0,727.381,5599.926Z"/>
      <path id="패스_3358" data-name="패스 3358" class="cls-7" d="M734.476,5591.285a.947.947,0,0,1,1.89,0,.947.947,0,0,1-1.89,0Zm.255,2.566H736.1V5602h-1.365Z"/>
      <path id="패스_3359" data-name="패스 3359" class="cls-7" d="M738.541,5593.851h1.125l.12,1.17h.045a3.905,3.905,0,0,1,2.73-1.38c1.71,0,2.49,1.109,2.49,3.195V5602h-1.365v-4.979c0-1.531-.465-2.176-1.545-2.176a3.1,3.1,0,0,0-2.235,1.246V5602h-1.365Z"/>
      <path id="패스_3360" data-name="패스 3360" class="cls-7" d="M746.161,5593.851h1.425l1.53,4.634c.255.795.509,1.635.765,2.4h.059c.241-.765.511-1.6.75-2.4l1.545-4.634h1.35l-2.9,8.144H749.1Z"/>
      <path id="패스_3361" data-name="패스 3361" class="cls-7" d="M754.231,5597.93c0-2.639,1.785-4.289,3.675-4.289,2.07,0,3.24,1.5,3.24,3.824a5.159,5.159,0,0,1-.061.78H755.6a2.7,2.7,0,0,0,2.7,2.851,3.511,3.511,0,0,0,2.04-.646l.5.9a4.859,4.859,0,0,1-2.7.839C755.971,5602.189,754.231,5600.615,754.231,5597.93Zm5.714-.659c0-1.65-.749-2.536-2.025-2.536a2.507,2.507,0,0,0-2.339,2.536Z"/>
      <path id="패스_3362" data-name="패스 3362" class="cls-7" d="M762.2,5601.064l.675-.9a3.7,3.7,0,0,0,2.415.96c1.08,0,1.6-.57,1.6-1.275,0-.825-.96-1.2-1.86-1.545-1.14-.42-2.43-.975-2.43-2.355,0-1.29,1.035-2.309,2.8-2.309a4.219,4.219,0,0,1,2.535.915l-.66.884a3.07,3.07,0,0,0-1.875-.719c-1.02,0-1.485.539-1.485,1.17,0,.779.885,1.064,1.8,1.41,1.185.449,2.49.929,2.49,2.474,0,1.321-1.05,2.414-2.97,2.414A4.907,4.907,0,0,1,762.2,5601.064Z"/>
      <path id="패스_3363" data-name="패스 3363" class="cls-7" d="M770.431,5599.475v-4.514h-1.216v-1.035l1.275-.075.165-2.281h1.14v2.281H774v1.11h-2.205v4.545c0,1,.315,1.574,1.26,1.574a2.886,2.886,0,0,0,.93-.21l.27,1.021a5.153,5.153,0,0,1-1.5.3C771.016,5602.189,770.431,5601.11,770.431,5599.475Z"/>
      <path id="패스_3364" data-name="패스 3364" class="cls-7" d="M774.886,5597.93c0-2.715,1.784-4.289,3.78-4.289s3.779,1.574,3.779,4.289-1.785,4.259-3.779,4.259S774.886,5600.631,774.886,5597.93Zm6.149,0c0-1.875-.96-3.15-2.369-3.15s-2.355,1.275-2.355,3.15.944,3.121,2.355,3.121S781.035,5599.805,781.035,5597.93Z"/>
      <path id="패스_3365" data-name="패스 3365" class="cls-7" d="M784.41,5593.851h1.125l.12,1.485h.045a2.812,2.812,0,0,1,2.31-1.695,1.75,1.75,0,0,1,.87.179l-.255,1.2a1.928,1.928,0,0,0-.795-.136c-.675,0-1.515.48-2.055,1.875V5602H784.41Z"/>
      <path id="패스_3366" data-name="패스 3366" class="cls-7" d="M789.39,5601.064l.675-.9a3.7,3.7,0,0,0,2.415.96c1.08,0,1.605-.57,1.605-1.275,0-.825-.96-1.2-1.86-1.545-1.14-.42-2.43-.975-2.43-2.355,0-1.29,1.035-2.309,2.8-2.309a4.22,4.22,0,0,1,2.535.915l-.66.884a3.069,3.069,0,0,0-1.875-.719c-1.02,0-1.485.539-1.485,1.17,0,.779.885,1.064,1.8,1.41,1.185.449,2.49.929,2.49,2.474,0,1.321-1.05,2.414-2.97,2.414A4.907,4.907,0,0,1,789.39,5601.064Z"/>
    </g>
    <g id="그룹_1024" data-name="그룹 1024" transform="translate(-54.513 -5381.782)">
      <path id="패스_3367" data-name="패스 3367" class="cls-8" d="M822.273,5589.9q0,13.407-10.375,13.407a10.569,10.569,0,0,1-2.875-.313v-2.234a9.225,9.225,0,0,0,2.844.406,6.919,6.919,0,0,0,5.664-2.32q1.914-2.321,2.086-7.118h-.188a5.557,5.557,0,0,1-2.281,1.977,7.336,7.336,0,0,1-3.2.68,6.445,6.445,0,0,1-4.813-1.813,6.913,6.913,0,0,1-1.781-5.062,7.756,7.756,0,0,1,1.992-5.625,7.621,7.621,0,0,1,9.313-.867,7.551,7.551,0,0,1,2.679,3.484A14.189,14.189,0,0,1,822.273,5589.9Zm-7.688-7.859a4.28,4.28,0,0,0-3.453,1.437,6,6,0,0,0-1.218,4,5.2,5.2,0,0,0,1.125,3.54,4.3,4.3,0,0,0,3.421,1.289,5.924,5.924,0,0,0,2.618-.579,4.711,4.711,0,0,0,1.882-1.578,3.642,3.642,0,0,0,.688-2.093,7.161,7.161,0,0,0-.641-3.032,5.289,5.289,0,0,0-1.789-2.187A4.507,4.507,0,0,0,814.585,5582.042Z"/>
      <path id="패스_3368" data-name="패스 3368" class="cls-8" d="M834.481,5586.964a9.876,9.876,0,0,1-1.2,5.383,3.931,3.931,0,0,1-3.508,1.82,3.838,3.838,0,0,1-3.4-1.859,9.809,9.809,0,0,1-1.211-5.344,9.916,9.916,0,0,1,1.165-5.344,3.838,3.838,0,0,1,3.445-1.8,3.921,3.921,0,0,1,3.484,1.86A9.609,9.609,0,0,1,834.481,5586.964Zm-7.156,0a10.467,10.467,0,0,0,.578,3.984,1.944,1.944,0,0,0,1.875,1.328q2.562,0,2.562-5.312,0-5.281-2.562-5.281A1.944,1.944,0,0,0,827.9,5583,10.338,10.338,0,0,0,827.325,5586.964Zm16.89-6.813L831.543,5603h-2.3l12.671-22.844Zm4.032,15.969a9.837,9.837,0,0,1-1.2,5.367,3.93,3.93,0,0,1-3.508,1.821,3.826,3.826,0,0,1-3.414-1.86,12.66,12.66,0,0,1-.031-10.672,3.84,3.84,0,0,1,3.445-1.8,3.952,3.952,0,0,1,3.461,1.836A9.447,9.447,0,0,1,848.247,5596.12Zm-7.172,0a10.454,10.454,0,0,0,.578,3.992,1.955,1.955,0,0,0,1.89,1.321,2.043,2.043,0,0,0,1.938-1.305,9.751,9.751,0,0,0,.625-4.008,9.534,9.534,0,0,0-.625-3.961,2.044,2.044,0,0,0-1.938-1.289,1.953,1.953,0,0,0-1.89,1.289A10.206,10.206,0,0,0,841.075,5596.12Z"/>
    </g>
    <g id="그룹_1025" data-name="그룹 1025" transform="translate(-54.513 -5381.782)">
      <path id="패스_3369" data-name="패스 3369" class="cls-7" d="M783.921,5629.527c3.211-2.769,4.485-4.718,4.485-6.435a1.862,1.862,0,0,0-1.937-2.106,2.821,2.821,0,0,0-2.106,1.183l-.481-.455a3.484,3.484,0,0,1,2.665-1.365,2.483,2.483,0,0,1,2.626,2.717c0,1.989-1.534,3.978-4.056,6.33.52-.039,1.066-.077,1.56-.077h2.951V5630h-5.707Z"/>
      <path id="패스_3370" data-name="패스 3370" class="cls-7" d="M795.465,5621.181h-4.8v-.663h5.72v.455c-2.249,2.951-2.717,5.317-2.86,9.022h-.819C792.865,5626.212,793.58,5623.807,795.465,5621.181Z"/>
      <path id="패스_3371" data-name="패스 3371" class="cls-7" d="M798,5628.76a2.129,2.129,0,0,0,1.65.754c1.314,0,2.5-1.144,2.575-4.42a3.089,3.089,0,0,1-2.314,1.261c-1.586,0-2.561-1.053-2.561-2.977a2.781,2.781,0,0,1,2.561-3.029c1.833,0,3.055,1.534,3.055,4.394,0,3.991-1.6,5.421-3.328,5.421a2.769,2.769,0,0,1-2.094-.91Zm4.212-4.406c-.078-2.069-.832-3.381-2.315-3.381-1.026,0-1.793,1.027-1.793,2.4s.584,2.366,1.9,2.366A2.84,2.84,0,0,0,802.212,5624.354Z"/>
      <path id="패스_3372" data-name="패스 3372" class="cls-7" d="M804.148,5631.789a1.965,1.965,0,0,0,1.144-1.742.575.575,0,0,1-.155.014.639.639,0,0,1-.677-.665.651.651,0,0,1,.689-.649c.469,0,.781.429.781,1.118a2.7,2.7,0,0,1-1.56,2.418Z"/>
      <path id="패스_3373" data-name="패스 3373" class="cls-7" d="M812.976,5627.291h-1.339v2.7H810.9v-2.7h-4.187v-.48l4.187-6.293h.741v6.136h1.339Zm-2.08-.637v-3.5c0-.427.039-1.131.078-1.572h-.065c-.222.429-.481.884-.755,1.312l-2.573,3.758Z"/>
      <path id="패스_3374" data-name="패스 3374" class="cls-7" d="M813.534,5628.93l.416-.534a3.189,3.189,0,0,0,2.484,1.118,2.323,2.323,0,0,0,2.21-2.535,2.147,2.147,0,0,0-2.171-2.431,2.745,2.745,0,0,0-1.678.6l-.494-.3.325-4.329h4.33v.663H815.3l-.274,3.184a2.928,2.928,0,0,1,1.587-.454c1.56,0,2.808.936,2.808,3.042a3,3,0,0,1-2.965,3.211A3.91,3.91,0,0,1,813.534,5628.93Z"/>
      <path id="패스_3375" data-name="패스 3375" class="cls-7" d="M826.392,5627.291h-1.339v2.7h-.741v-2.7h-4.187v-.48l4.187-6.293h.741v6.136h1.339Zm-2.08-.637v-3.5c0-.427.039-1.131.078-1.572h-.065c-.221.429-.481.884-.755,1.312L821,5626.654Z"/>
      <path id="패스_3376" data-name="패스 3376" class="cls-7" d="M827.275,5631.789a1.967,1.967,0,0,0,1.144-1.742.583.583,0,0,1-.156.014.638.638,0,0,1-.676-.665.651.651,0,0,1,.689-.649c.468,0,.78.429.78,1.118a2.7,2.7,0,0,1-1.56,2.418Z"/>
      <path id="패스_3377" data-name="패스 3377" class="cls-7" d="M830.278,5625.225c0-3.29,1.066-4.876,2.795-4.876s2.782,1.586,2.782,4.876c0,3.328-1.066,4.939-2.782,4.939S830.278,5628.553,830.278,5625.225Zm4.823,0c0-2.823-.806-4.239-2.028-4.239s-2.041,1.416-2.041,4.239c0,2.873.806,4.3,2.041,4.3S835.1,5628.1,835.1,5625.225Z"/>
      <path id="패스_3378" data-name="패스 3378" class="cls-7" d="M842.03,5621.753a1.982,1.982,0,0,0-1.547-.754c-1.43,0-2.639,1.131-2.678,4.394a3.05,3.05,0,0,1,2.288-1.235c1.612,0,2.574,1.028,2.574,2.977a2.781,2.781,0,0,1-2.561,3.029c-1.833,0-3.042-1.625-3.042-4.641,0-3.822,1.625-5.174,3.406-5.174a2.6,2.6,0,0,1,2.015.91Zm-.117,5.382c0-1.378-.572-2.365-1.924-2.365a2.847,2.847,0,0,0-2.171,1.351c.117,2.08.858,3.406,2.3,3.406C841.146,5629.527,841.913,5628.514,841.913,5627.135Z"/>
      <path id="패스_3379" data-name="패스 3379" class="cls-7" d="M849.518,5627.291h-1.339v2.7h-.741v-2.7h-4.186v-.48l4.186-6.293h.741v6.136h1.339Zm-2.08-.637v-3.5c0-.427.039-1.131.078-1.572h-.065c-.221.429-.481.884-.754,1.312l-2.574,3.758Z"/>
    </g>
    <g id="그룹_1026" data-name="그룹 1026" transform="translate(-54.513 -5381.782)">
      <path id="패스_3380" data-name="패스 3380" class="cls-7" d="M706.228,5684.956h6.345v1.17h-4.95v3.45h4.17v1.185h-4.17v4h5.115v1.185h-6.51Z"/>
      <path id="패스_3381" data-name="패스 3381" class="cls-7" d="M714.568,5687.807h1.125l.12,1.184h.045a3.578,3.578,0,0,1,2.535-1.4,2.148,2.148,0,0,1,2.25,1.56,3.847,3.847,0,0,1,2.685-1.56c1.679,0,2.474,1.11,2.474,3.195v5.16h-1.365v-4.98c0-1.53-.479-2.175-1.515-2.175a3.008,3.008,0,0,0-2.054,1.245v5.91H719.5v-4.98c0-1.53-.48-2.175-1.515-2.175a3.009,3.009,0,0,0-2.055,1.245v5.91h-1.365Z"/>
      <path id="패스_3382" data-name="패스 3382" class="cls-7" d="M728.218,5687.807h1.125l.12.929h.045a4.351,4.351,0,0,1,2.6-1.14c2.1,0,3.24,1.65,3.24,4.155,0,2.79-1.665,4.4-3.54,4.4a3.677,3.677,0,0,1-2.25-.945l.03,1.424v2.761h-1.365Zm5.7,3.959c0-1.8-.6-3.015-2.145-3.015a3.4,3.4,0,0,0-2.189,1.125v4.274a3.154,3.154,0,0,0,1.995.856C732.928,5695.006,733.917,5693.791,733.917,5691.766Z"/>
      <path id="패스_3383" data-name="패스 3383" class="cls-7" d="M737.323,5694.33v-10.318h1.365v10.409c0,.42.18.585.39.585a1.206,1.206,0,0,0,.285-.03l.2,1.049a2.129,2.129,0,0,1-.795.121C737.743,5696.146,737.323,5695.486,737.323,5694.33Z"/>
      <path id="패스_3384" data-name="패스 3384" class="cls-7" d="M740.7,5691.886c0-2.715,1.784-4.29,3.78-4.29s3.779,1.575,3.779,4.29c0,2.7-1.785,4.26-3.779,4.26S740.7,5694.586,740.7,5691.886Zm6.149,0c0-1.875-.96-3.15-2.369-3.15s-2.355,1.275-2.355,3.15.944,3.12,2.355,3.12S746.847,5693.761,746.847,5691.886Z"/>
      <path id="패스_3385" data-name="패스 3385" class="cls-7" d="M749.232,5699.295l.27-1.094a1.944,1.944,0,0,0,.615.135c.93,0,1.515-.75,1.845-1.756l.18-.614-3.27-8.159H750.3l1.665,4.529c.24.705.525,1.545.78,2.279h.075c.225-.734.465-1.559.69-2.279l1.455-4.529H756.3l-3.075,8.818c-.57,1.6-1.41,2.836-3.03,2.836A2.507,2.507,0,0,1,749.232,5699.295Z"/>
      <path id="패스_3386" data-name="패스 3386" class="cls-7" d="M756.958,5691.886c0-2.64,1.784-4.29,3.674-4.29,2.07,0,3.24,1.5,3.24,3.825a5.338,5.338,0,0,1-.06.78h-5.49a2.7,2.7,0,0,0,2.7,2.85,3.509,3.509,0,0,0,2.04-.645l.495.9a4.849,4.849,0,0,1-2.7.84C758.7,5696.146,756.958,5694.57,756.958,5691.886Zm5.714-.659c0-1.651-.75-2.536-2.025-2.536a2.506,2.506,0,0,0-2.34,2.536Z"/>
      <path id="패스_3387" data-name="패스 3387" class="cls-7" d="M765.252,5691.886c0-2.64,1.785-4.29,3.675-4.29,2.07,0,3.24,1.5,3.24,3.825a5.329,5.329,0,0,1-.06.78h-5.49a2.7,2.7,0,0,0,2.7,2.85,3.509,3.509,0,0,0,2.04-.645l.495.9a4.849,4.849,0,0,1-2.7.84C766.992,5696.146,765.252,5694.57,765.252,5691.886Zm5.715-.659c0-1.651-.75-2.536-2.025-2.536a2.506,2.506,0,0,0-2.34,2.536Z"/>
      <path id="패스_3388" data-name="패스 3388" class="cls-7" d="M773.217,5695.021l.675-.9a3.694,3.694,0,0,0,2.415.959c1.08,0,1.6-.569,1.6-1.274,0-.826-.96-1.2-1.86-1.545-1.14-.42-2.43-.976-2.43-2.355,0-1.29,1.035-2.31,2.8-2.31a4.219,4.219,0,0,1,2.535.915l-.66.885a3.071,3.071,0,0,0-1.875-.72c-1.02,0-1.485.54-1.485,1.17,0,.78.885,1.065,1.8,1.41,1.185.45,2.489.93,2.489,2.474,0,1.321-1.049,2.416-2.969,2.416A4.913,4.913,0,0,1,773.217,5695.021Z"/>
    </g>
    <g id="그룹_1027" data-name="그룹 1027" transform="translate(-54.513 -5381.782)">
      <path id="패스_3389" data-name="패스 3389" class="cls-8" d="M799.05,5696.951h-2.531V5680.67q0-2.032.125-3.844c-.219.219-.464.447-.735.688s-1.511,1.255-3.719,3.047l-1.375-1.782,6.047-4.672h2.188Z"/>
      <path id="패스_3390" data-name="패스 3390" class="cls-8" d="M823.383,5691.7h-3.391v5.25h-2.484v-5.25H806.4v-2.265l10.844-15.454h2.75v15.36h3.391Zm-5.875-2.359v-7.594q0-2.235.156-5.047h-.125a23.682,23.682,0,0,1-1.406,2.485l-7.141,10.156Z"/>
      <path id="패스_3391" data-name="패스 3391" class="cls-8" d="M834.513,5680.92a9.876,9.876,0,0,1-1.2,5.383,3.932,3.932,0,0,1-3.508,1.82,3.836,3.836,0,0,1-3.4-1.859,9.8,9.8,0,0,1-1.211-5.344,9.912,9.912,0,0,1,1.164-5.344,3.84,3.84,0,0,1,3.445-1.8,3.919,3.919,0,0,1,3.484,1.86A9.609,9.609,0,0,1,834.513,5680.92Zm-7.156,0a10.463,10.463,0,0,0,.578,3.984,1.945,1.945,0,0,0,1.875,1.328q2.562,0,2.563-5.312,0-5.283-2.563-5.281a1.944,1.944,0,0,0-1.875,1.312A10.335,10.335,0,0,0,827.357,5680.92Zm16.891-6.813-12.672,22.844h-2.3l12.672-22.844Zm4.031,15.969a9.837,9.837,0,0,1-1.2,5.367,3.931,3.931,0,0,1-3.507,1.821,3.823,3.823,0,0,1-3.414-1.86,12.654,12.654,0,0,1-.032-10.672,3.841,3.841,0,0,1,3.446-1.8,3.95,3.95,0,0,1,3.461,1.835A9.456,9.456,0,0,1,848.279,5690.076Zm-7.172,0a10.454,10.454,0,0,0,.578,3.992,1.956,1.956,0,0,0,1.891,1.321,2.043,2.043,0,0,0,1.937-1.305,9.734,9.734,0,0,0,.625-4.008,9.517,9.517,0,0,0-.625-3.961,2.042,2.042,0,0,0-1.937-1.289,1.954,1.954,0,0,0-1.891,1.289A10.206,10.206,0,0,0,841.107,5690.076Z"/>
    </g>
    <g id="그룹_1028" data-name="그룹 1028" transform="translate(-54.513 -5381.782)">
      <path id="패스_3392" data-name="패스 3392" class="cls-7" d="M789.849,5721.246H788.51v2.705h-.741v-2.705h-4.186v-.48l4.186-6.293h.741v6.136h1.339Zm-2.08-.637v-3.5c0-.428.039-1.131.078-1.573h-.065c-.221.43-.481.885-.754,1.314l-2.574,3.756Z"/>
      <path id="패스_3393" data-name="패스 3393" class="cls-7" d="M790.629,5723.482c3.211-2.769,4.485-4.718,4.485-6.435a1.863,1.863,0,0,0-1.937-2.106,2.822,2.822,0,0,0-2.106,1.184l-.481-.455a3.484,3.484,0,0,1,2.665-1.365,2.482,2.482,0,0,1,2.626,2.716c0,1.99-1.534,3.979-4.056,6.332.52-.04,1.066-.079,1.56-.079h2.951v.677h-5.707Z"/>
      <path id="패스_3394" data-name="패스 3394" class="cls-7" d="M797.154,5722.82l.429-.507a3.247,3.247,0,0,0,2.5,1.157,1.973,1.973,0,0,0,2.106-2.029c0-1.273-.884-2.131-3.146-2.131v-.638c2.08,0,2.808-.9,2.808-2.027a1.659,1.659,0,0,0-1.794-1.717,2.967,2.967,0,0,0-2.08,1l-.443-.521a3.692,3.692,0,0,1,2.535-1.118,2.308,2.308,0,0,1,2.562,2.3,2.368,2.368,0,0,1-1.742,2.341V5719a2.469,2.469,0,0,1,2.08,2.443,2.651,2.651,0,0,1-2.861,2.678A3.833,3.833,0,0,1,797.154,5722.82Z"/>
      <path id="패스_3395" data-name="패스 3395" class="cls-7" d="M804.148,5725.744a1.962,1.962,0,0,0,1.144-1.741.616.616,0,0,1-.155.013.638.638,0,0,1-.677-.663.652.652,0,0,1,.689-.65c.469,0,.781.429.781,1.117a2.7,2.7,0,0,1-1.56,2.418Z"/>
      <path id="패스_3396" data-name="패스 3396" class="cls-7" d="M806.865,5722.82l.429-.507a3.247,3.247,0,0,0,2.5,1.157,1.973,1.973,0,0,0,2.1-2.029c0-1.273-.883-2.131-3.146-2.131v-.638c2.081,0,2.809-.9,2.809-2.027a1.66,1.66,0,0,0-1.794-1.717,2.967,2.967,0,0,0-2.08,1l-.443-.521a3.692,3.692,0,0,1,2.535-1.118,2.308,2.308,0,0,1,2.562,2.3,2.368,2.368,0,0,1-1.742,2.341V5719a2.469,2.469,0,0,1,2.08,2.443,2.651,2.651,0,0,1-2.861,2.678A3.833,3.833,0,0,1,806.865,5722.82Z"/>
      <path id="패스_3397" data-name="패스 3397" class="cls-7" d="M814.366,5723.287h2.146v-7.709H814.86v-.507a5.444,5.444,0,0,0,1.807-.6h.611v8.814h1.977v.664h-4.889Z"/>
      <path id="패스_3398" data-name="패스 3398" class="cls-7" d="M820.567,5719.18c0-3.289,1.066-4.875,2.795-4.875s2.783,1.586,2.783,4.875c0,3.328-1.066,4.939-2.783,4.939S820.567,5722.508,820.567,5719.18Zm4.824,0c0-2.822-.807-4.239-2.029-4.239s-2.041,1.417-2.041,4.239c0,2.873.806,4.3,2.041,4.3S825.391,5722.053,825.391,5719.18Z"/>
      <path id="패스_3399" data-name="패스 3399" class="cls-7" d="M827.275,5725.744a1.964,1.964,0,0,0,1.144-1.741.624.624,0,0,1-.156.013.638.638,0,0,1-.676-.663.652.652,0,0,1,.689-.65c.468,0,.78.429.78,1.117a2.7,2.7,0,0,1-1.56,2.418Z"/>
      <path id="패스_3400" data-name="패스 3400" class="cls-7" d="M830.837,5722.716a2.134,2.134,0,0,0,1.651.754c1.313,0,2.5-1.144,2.574-4.421a3.084,3.084,0,0,1-2.314,1.262c-1.586,0-2.561-1.053-2.561-2.977a2.781,2.781,0,0,1,2.561-3.029c1.833,0,3.055,1.533,3.055,4.393,0,3.991-1.6,5.421-3.328,5.421a2.767,2.767,0,0,1-2.093-.91Zm4.212-4.407c-.078-2.068-.832-3.381-2.314-3.381-1.027,0-1.794,1.027-1.794,2.406s.585,2.365,1.9,2.365A2.838,2.838,0,0,0,835.049,5718.309Z"/>
      <path id="패스_3401" data-name="패스 3401" class="cls-7" d="M836.7,5722.82l.429-.507a3.245,3.245,0,0,0,2.5,1.157,1.973,1.973,0,0,0,2.106-2.029c0-1.273-.884-2.131-3.146-2.131v-.638c2.08,0,2.808-.9,2.808-2.027a1.659,1.659,0,0,0-1.794-1.717,2.969,2.969,0,0,0-2.08,1l-.442-.521a3.69,3.69,0,0,1,2.535-1.118,2.307,2.307,0,0,1,2.561,2.3,2.367,2.367,0,0,1-1.742,2.341V5719a2.469,2.469,0,0,1,2.08,2.443,2.65,2.65,0,0,1-2.86,2.678A3.832,3.832,0,0,1,836.7,5722.82Z"/>
      <path id="패스_3402" data-name="패스 3402" class="cls-7" d="M843.59,5723.482c3.211-2.769,4.485-4.718,4.485-6.435a1.863,1.863,0,0,0-1.937-2.106,2.822,2.822,0,0,0-2.106,1.184l-.481-.455a3.484,3.484,0,0,1,2.665-1.365,2.482,2.482,0,0,1,2.626,2.716c0,1.99-1.534,3.979-4.056,6.332.52-.04,1.066-.079,1.56-.079H849.3v.677H843.59Z"/>
    </g>
    <path id="패스_3403" data-name="패스 3403" class="cls-11" d="M452.215,5515.488l111.273-73.832a134.554,134.554,0,0,0-22.84-26.335Z" transform="translate(-54.513 -5381.782)"/>
    <path id="패스_3404" data-name="패스 3404" class="cls-12" d="M452.215,5515.488l133-10.533a128.611,128.611,0,0,0-21.73-63.3Z" transform="translate(-54.513 -5381.782)"/>
    <path id="패스_3405" data-name="패스 3405" class="cls-13" d="M452.215,5515.488l117.224,63.761c13.016-24.015,17.91-47.057,15.779-74.294Z" transform="translate(-54.513 -5381.782)"/>
    <path id="패스_3406" data-name="패스 3406" class="cls-14" d="M452.215,5515.488,478.771,5646.5c40.436-8.257,70.968-30.9,90.668-67.251Z" transform="translate(-54.513 -5381.782)"/>
    <path id="패스_3407" data-name="패스 3407" class="cls-15" d="M452.215,5515.488l-122.363,53.354c25.366,58.5,86.533,90.4,148.919,77.658Z" transform="translate(-54.513 -5381.782)"/>
    <path id="패스_3408" data-name="패스 3408" class="cls-8" d="M452.215,5515.488l88.433-100.167a133.221,133.221,0,0,0-188.324,11.6c-35.36,40.053-43.728,92.9-22.472,141.918Z" transform="translate(-54.513 -5381.782)"/>
    <path id="패스_3409" data-name="패스 3409" class="cls-16" d="M452.013,5619.42a103.881,103.881,0,1,0-103.881-103.881A103.88,103.88,0,0,0,452.013,5619.42" transform="translate(-54.513 -5381.782)"/>
    <g id="그룹_1029" data-name="그룹 1029" transform="translate(-54.513 -5381.782)">
      <path id="패스_3410" data-name="패스 3410" class="cls-14" d="M390.335,5470.2h7.394v1.65h-5.422v3.484H396.9V5477h-4.589v4.046h5.61v1.666h-7.582Z"/>
      <path id="패스_3411" data-name="패스 3411" class="cls-14" d="M399.243,5478.057a4.6,4.6,0,0,1,4.624-4.93,4.02,4.02,0,0,1,2.737,1.071l-.969,1.275a2.45,2.45,0,0,0-1.683-.731c-1.564,0-2.686,1.326-2.686,3.315,0,1.972,1.071,3.281,2.635,3.281a3.205,3.205,0,0,0,2.039-.85l.8,1.291a4.547,4.547,0,0,1-3.025,1.157C401.181,5482.936,399.243,5481.15,399.243,5478.057Z"/>
      <path id="패스_3412" data-name="패스 3412" class="cls-14" d="M407.658,5478.057c0-3.127,2.091-4.93,4.4-4.93s4.4,1.8,4.4,4.93c0,3.093-2.09,4.879-4.4,4.879S407.658,5481.15,407.658,5478.057Zm6.8,0c0-1.989-.918-3.315-2.4-3.315-1.462,0-2.38,1.326-2.38,3.315,0,1.972.918,3.281,2.38,3.281C413.54,5481.338,414.458,5480.029,414.458,5478.057Z"/>
      <path id="패스_3413" data-name="패스 3413" class="cls-14" d="M418.572,5473.365h1.6l.153,1.292h.051a4.456,4.456,0,0,1,3.094-1.53c1.989,0,2.872,1.326,2.872,3.706v5.882h-1.954v-5.645c0-1.614-.476-2.259-1.581-2.259a3.191,3.191,0,0,0-2.295,1.274v6.63h-1.938Z"/>
      <path id="패스_3414" data-name="패스 3414" class="cls-14" d="M428.347,5478.057c0-3.127,2.091-4.93,4.4-4.93s4.4,1.8,4.4,4.93c0,3.093-2.09,4.879-4.4,4.879S428.347,5481.15,428.347,5478.057Zm6.8,0c0-1.989-.917-3.315-2.4-3.315-1.462,0-2.38,1.326-2.38,3.315,0,1.972.918,3.281,2.38,3.281C434.229,5481.338,435.146,5480.029,435.146,5478.057Z"/>
      <path id="패스_3415" data-name="패스 3415" class="cls-14" d="M439.261,5473.365h1.6l.153,1.309h.051a4.074,4.074,0,0,1,2.89-1.547,2.5,2.5,0,0,1,2.583,1.717,4.307,4.307,0,0,1,3.043-1.717c1.955,0,2.873,1.326,2.873,3.706v5.882H450.5v-5.645c0-1.614-.51-2.259-1.564-2.259a3.119,3.119,0,0,0-2.108,1.274v6.63h-1.954v-5.645c0-1.614-.494-2.259-1.564-2.259a3.153,3.153,0,0,0-2.108,1.274v6.63h-1.938Z"/>
      <path id="패스_3416" data-name="패스 3416" class="cls-14" d="M454.782,5470.459a1.148,1.148,0,0,1,1.24-1.156,1.158,1.158,0,1,1-1.24,1.156Zm.272,2.906h1.937v9.35h-1.937Z"/>
      <path id="패스_3417" data-name="패스 3417" class="cls-14" d="M459.049,5478.057a4.6,4.6,0,0,1,4.623-4.93,4.018,4.018,0,0,1,2.737,1.071l-.969,1.275a2.45,2.45,0,0,0-1.683-.731c-1.564,0-2.685,1.326-2.685,3.315,0,1.972,1.071,3.281,2.635,3.281a3.207,3.207,0,0,0,2.039-.85l.8,1.291a4.551,4.551,0,0,1-3.025,1.157C460.987,5482.936,459.049,5481.15,459.049,5478.057Z"/>
      <path id="패스_3418" data-name="패스 3418" class="cls-14" d="M470.643,5470.2h2.09l1.853,6.477c.425,1.427.7,2.652,1.139,4.1h.085c.425-1.444.731-2.669,1.139-4.1l1.853-6.477h2.006l-3.91,12.512h-2.329Z"/>
      <path id="패스_3419" data-name="패스 3419" class="cls-14" d="M481.233,5480.232c0-2,1.7-3.043,5.593-3.466-.017-1.088-.408-2.041-1.785-2.041a5.132,5.132,0,0,0-2.7.953l-.731-1.326a7.151,7.151,0,0,1,3.774-1.225c2.328,0,3.4,1.478,3.4,3.961v5.627h-1.6l-.17-1.071h-.051a4.648,4.648,0,0,1-2.975,1.292A2.584,2.584,0,0,1,481.233,5480.232Zm5.593.069v-2.295c-2.771.34-3.706,1.037-3.706,2.091,0,.918.629,1.292,1.462,1.292A3.3,3.3,0,0,0,486.826,5480.3Z"/>
      <path id="패스_3420" data-name="패스 3420" class="cls-14" d="M491.314,5480.521v-11.355h1.938v11.457c0,.527.238.715.476.715a1.37,1.37,0,0,0,.323-.034l.255,1.478a3.138,3.138,0,0,1-1.054.154C491.841,5482.936,491.314,5482.034,491.314,5480.521Z"/>
      <path id="패스_3421" data-name="패스 3421" class="cls-14" d="M495.972,5479.246v-5.881h1.955v5.644c0,1.614.459,2.243,1.564,2.243.867,0,1.462-.407,2.243-1.394v-6.493h1.955v9.35h-1.6l-.154-1.411h-.05a3.923,3.923,0,0,1-3.06,1.632C496.839,5482.936,495.972,5481.627,495.972,5479.246Z"/>
      <path id="패스_3422" data-name="패스 3422" class="cls-14" d="M505.8,5478.057c0-3.043,2.074-4.93,4.266-4.93,2.482,0,3.808,1.785,3.808,4.437a5.054,5.054,0,0,1-.085.986h-6.068a2.823,2.823,0,0,0,2.889,2.855,3.977,3.977,0,0,0,2.227-.7l.68,1.24a5.675,5.675,0,0,1-3.161.987C507.821,5482.936,505.8,5481.133,505.8,5478.057Zm6.391-.85c0-1.615-.731-2.55-2.09-2.55a2.536,2.536,0,0,0-2.4,2.55Z"/>
    </g>
    <g id="그룹_1030" data-name="그룹 1030" transform="translate(-54.513 -5381.782)">
      <path id="패스_3423" data-name="패스 3423" class="cls-14" d="M405.958,5495.211H409.2c3.842,0,6.034,2.125,6.034,6.2,0,4.063-2.192,6.306-5.932,6.306h-3.349Zm3.111,10.9c2.686,0,4.131-1.581,4.131-4.691,0-3.128-1.445-4.606-4.131-4.606H407.93v9.3Z"/>
      <path id="패스_3424" data-name="패스 3424" class="cls-14" d="M417.229,5495.465a1.148,1.148,0,0,1,1.241-1.155,1.158,1.158,0,1,1-1.241,1.155Zm.272,2.907h1.938v9.349H417.5Z"/>
      <path id="패스_3425" data-name="패스 3425" class="cls-14" d="M421.173,5506.65l.918-1.257a4.148,4.148,0,0,0,2.652,1.07c1.122,0,1.649-.543,1.649-1.258,0-.85-1.054-1.224-2.074-1.614-1.241-.476-2.669-1.14-2.669-2.72,0-1.564,1.258-2.736,3.315-2.736a4.924,4.924,0,0,1,3.042,1.1l-.918,1.206a3.5,3.5,0,0,0-2.09-.815c-1.02,0-1.5.511-1.5,1.156,0,.8.969,1.1,1.989,1.479,1.309.493,2.754,1.071,2.754,2.839,0,1.564-1.242,2.838-3.553,2.838A5.751,5.751,0,0,1,421.173,5506.65Z"/>
      <path id="패스_3426" data-name="패스 3426" class="cls-14" d="M430.676,5504.662v-4.726h-1.36v-1.461l1.445-.1.221-2.583h1.649v2.583h2.431v1.564h-2.431v4.743c0,1.122.39,1.7,1.36,1.7a2.8,2.8,0,0,0,1-.222l.357,1.445a6.02,6.02,0,0,1-1.836.34C431.407,5507.942,430.676,5506.633,430.676,5504.662Z"/>
      <path id="패스_3427" data-name="패스 3427" class="cls-14" d="M436.915,5498.372h1.6l.153,1.683h.051a3.231,3.231,0,0,1,2.652-1.92,2.329,2.329,0,0,1,1.053.2l-.357,1.7a2.765,2.765,0,0,0-.935-.153c-.764,0-1.682.527-2.277,2.006v5.83h-1.938Z"/>
      <path id="패스_3428" data-name="패스 3428" class="cls-14" d="M443.562,5495.465a1.148,1.148,0,0,1,1.241-1.155,1.158,1.158,0,1,1-1.241,1.155Zm.272,2.907h1.937v9.349h-1.937Z"/>
      <path id="패스_3429" data-name="패스 3429" class="cls-14" d="M450.191,5506.752h-.05l-.187.969h-1.53v-13.547h1.937v3.586l-.05,1.6a4.462,4.462,0,0,1,2.787-1.222c2.363,0,3.706,1.886,3.706,4.759,0,3.212-1.921,5.048-4.029,5.048A3.877,3.877,0,0,1,450.191,5506.752Zm4.59-3.824c0-1.955-.629-3.162-2.193-3.162a3.262,3.262,0,0,0-2.227,1.138v4.574a3.14,3.14,0,0,0,2.04.849C453.761,5506.327,454.781,5505.121,454.781,5502.928Z"/>
      <path id="패스_3430" data-name="패스 3430" class="cls-14" d="M458.862,5504.254v-5.882h1.954v5.644c0,1.615.459,2.244,1.564,2.244.868,0,1.462-.408,2.244-1.395v-6.493h1.955v9.349h-1.6l-.153-1.41h-.051a3.919,3.919,0,0,1-3.059,1.631C459.729,5507.942,458.862,5506.633,458.862,5504.254Z"/>
      <path id="패스_3431" data-name="패스 3431" class="cls-14" d="M469.588,5504.662v-4.726h-1.359v-1.461l1.444-.1.222-2.583h1.648v2.583h2.431v1.564h-2.431v4.743c0,1.122.391,1.7,1.36,1.7a2.8,2.8,0,0,0,1-.222l.357,1.445a6.014,6.014,0,0,1-1.836.34C470.319,5507.942,469.588,5506.633,469.588,5504.662Z"/>
      <path id="패스_3432" data-name="패스 3432" class="cls-14" d="M475.556,5495.465a1.148,1.148,0,0,1,1.24-1.155,1.158,1.158,0,1,1-1.24,1.155Zm.272,2.907h1.937v9.349h-1.937Z"/>
      <path id="패스_3433" data-name="패스 3433" class="cls-14" d="M479.822,5503.063c0-3.127,2.091-4.928,4.4-4.928s4.4,1.8,4.4,4.928c0,3.094-2.09,4.879-4.4,4.879S479.822,5506.157,479.822,5503.063Zm6.8,0c0-1.989-.918-3.314-2.4-3.314-1.462,0-2.38,1.325-2.38,3.314,0,1.972.918,3.281,2.38,3.281C485.7,5506.344,486.622,5505.035,486.622,5503.063Z"/>
      <path id="패스_3434" data-name="패스 3434" class="cls-14" d="M490.736,5498.372h1.6l.153,1.292h.051a4.455,4.455,0,0,1,3.094-1.529c1.989,0,2.872,1.325,2.872,3.705v5.881H496.55v-5.643c0-1.615-.476-2.262-1.581-2.262a3.194,3.194,0,0,0-2.295,1.276v6.629h-1.938Z"/>
    </g>
    <g id="그룹_1031" data-name="그룹 1031" transform="translate(-54.513 -5381.782)">
      <path id="패스_3435" data-name="패스 3435" class="cls-7" d="M406.232,5532.365v-6h.793v5.955c0,2.566,1.165,3.335,2.5,3.335,1.363,0,2.553-.769,2.553-3.335v-5.955h.754v6c0,3.107-1.574,4.026-3.307,4.026S406.232,5535.472,406.232,5532.365Z"/>
      <path id="패스_3436" data-name="패스 3436" class="cls-7" d="M415.254,5529.017h.636l.092,1.093h.027a3.447,3.447,0,0,1,2.408-1.282c1.468,0,2.143.932,2.143,2.781v4.606h-.768v-4.5c0-1.5-.463-2.188-1.547-2.188-.821,0-1.4.433-2.223,1.3v5.389h-.768Z"/>
      <path id="패스_3437" data-name="패스 3437" class="cls-7" d="M422.61,5526.707a.62.62,0,0,1,.648-.647.634.634,0,1,1-.648.647Zm.251,2.31h.768v7.2h-.768Z"/>
      <path id="패스_3438" data-name="패스 3438" class="cls-7" d="M426.3,5534.162v-4.484h-1.1v-.594l1.125-.067.092-2.079h.648v2.079h2.024v.661h-2.024v4.538c0,.905.239,1.5,1.178,1.5a2.424,2.424,0,0,0,.859-.2l.186.607a3.887,3.887,0,0,1-1.178.272C426.725,5536.391,426.3,5535.5,426.3,5534.162Z"/>
      <path id="패스_3439" data-name="패스 3439" class="cls-7" d="M429.913,5530.016a.677.677,0,1,1,.675.729A.691.691,0,0,1,429.913,5530.016Zm0,5.644a.677.677,0,1,1,.675.731A.69.69,0,0,1,429.913,5535.66Z"/>
      <path id="패스_3440" data-name="패스 3440" class="cls-7" d="M436.4,5535.525h2.182v-8.007H436.9v-.527a5.464,5.464,0,0,0,1.839-.621h.622v9.155h2.011v.69H436.4Z"/>
      <path id="패스_3441" data-name="패스 3441" class="cls-7" d="M442.772,5538.078a2.045,2.045,0,0,0,1.164-1.809.727.727,0,0,1-.159.012.654.654,0,0,1-.688-.687.67.67,0,0,1,.7-.676c.476,0,.793.445.793,1.161a2.809,2.809,0,0,1-1.587,2.512Z"/>
      <path id="패스_3442" data-name="패스 3442" class="cls-7" d="M446,5531.258c0-3.416,1.085-5.064,2.844-5.064s2.831,1.648,2.831,5.064c0,3.457-1.084,5.133-2.831,5.133S446,5534.715,446,5531.258Zm4.908,0c0-2.93-.82-4.4-2.064-4.4s-2.077,1.473-2.077,4.4c0,2.984.82,4.471,2.077,4.471S450.908,5534.242,450.908,5531.258Z"/>
      <path id="패스_3443" data-name="패스 3443" class="cls-7" d="M453.3,5531.258c0-3.416,1.085-5.064,2.844-5.064s2.831,1.648,2.831,5.064c0,3.457-1.084,5.133-2.831,5.133S453.3,5534.715,453.3,5531.258Zm4.908,0c0-2.93-.82-4.4-2.064-4.4s-2.077,1.473-2.077,4.4c0,2.984.82,4.471,2.077,4.471S458.211,5534.242,458.211,5531.258Z"/>
      <path id="패스_3444" data-name="패스 3444" class="cls-7" d="M460.605,5531.258c0-3.416,1.085-5.064,2.845-5.064s2.831,1.648,2.831,5.064c0,3.457-1.085,5.133-2.831,5.133S460.605,5534.715,460.605,5531.258Zm4.909,0c0-2.93-.821-4.4-2.064-4.4s-2.077,1.473-2.077,4.4c0,2.984.82,4.471,2.077,4.471S465.514,5534.242,465.514,5531.258Z"/>
      <path id="패스_3445" data-name="패스 3445" class="cls-7" d="M471.322,5526.37h.794v5.347h.026l4.525-5.347h.938l-3.068,3.659,3.505,6.186h-.913l-3.122-5.551-1.891,2.229v3.322h-.794Z"/>
      <path id="패스_3446" data-name="패스 3446" class="cls-7" d="M484.922,5536.215l-2.567-4.444h-1.971v4.444h-.794v-9.845h2.818c1.918,0,3.215.716,3.215,2.634a2.569,2.569,0,0,1-2.408,2.7l2.606,4.511Zm-4.538-5.119h1.839c1.667,0,2.593-.675,2.593-2.092,0-1.432-.926-1.959-2.593-1.959h-1.839Z"/>
      <path id="패스_3447" data-name="패스 3447" class="cls-7" d="M486.7,5526.37h.82l1.164,5.7c.225,1.067.437,2.134.648,3.215h.053c.239-1.081.49-2.148.741-3.215l1.469-5.7h.78l1.482,5.7c.251,1.067.489,2.134.741,3.215h.066c.2-1.081.4-2.148.609-3.215l1.164-5.7h.78l-2.117,9.845h-.9l-1.707-6.577c-.158-.784-.33-1.458-.5-2.214h-.052c-.159.756-.358,1.43-.53,2.214l-1.654,6.577h-.9Z"/>
    </g>
    <g id="그룹_1032" data-name="그룹 1032" transform="translate(-54.513 -5381.782)">
      <path id="패스_3448" data-name="패스 3448" class="cls-8" d="M394.206,5571.169l1.092-1.443a4.637,4.637,0,0,0,3.393,1.579c1.619,0,2.73-.9,2.73-2.379,0-1.6-1.014-2.633-4.251-2.633v-1.657c2.828,0,3.764-1.073,3.764-2.516a2.01,2.01,0,0,0-2.2-2.087,4.212,4.212,0,0,0-2.867,1.365l-1.17-1.4a6.047,6.047,0,0,1,4.115-1.734c2.574,0,4.387,1.326,4.387,3.705a3.469,3.469,0,0,1-2.476,3.373v.1a3.635,3.635,0,0,1,2.964,3.587c0,2.594-2.164,4.116-4.8,4.116A5.957,5.957,0,0,1,394.206,5571.169Z"/>
      <path id="패스_3449" data-name="패스 3449" class="cls-8" d="M406.081,5571.578a1.5,1.5,0,1,1,3,0,1.5,1.5,0,1,1-3,0Z"/>
      <path id="패스_3450" data-name="패스 3450" class="cls-8" d="M411.131,5565.65c0-4.972,1.814-7.39,4.641-7.39,2.809,0,4.642,2.437,4.642,7.39,0,4.993-1.833,7.489-4.642,7.489C412.945,5573.139,411.131,5570.643,411.131,5565.65Zm7.138,0c0-4.115-1.034-5.617-2.5-5.617s-2.5,1.5-2.5,5.617c0,4.154,1.034,5.713,2.5,5.713S418.269,5569.8,418.269,5565.65Z"/>
      <path id="패스_3451" data-name="패스 3451" class="cls-8" d="M422.578,5565.65c0-4.972,1.813-7.39,4.641-7.39,2.808,0,4.641,2.437,4.641,7.39,0,4.993-1.833,7.489-4.641,7.489C424.391,5573.139,422.578,5570.643,422.578,5565.65Zm7.137,0c0-4.115-1.033-5.617-2.5-5.617s-2.5,1.5-2.5,5.617c0,4.154,1.033,5.713,2.5,5.713S429.715,5569.8,429.715,5565.65Z"/>
      <path id="패스_3452" data-name="패스 3452" class="cls-8" d="M440.127,5560.424H433.38v-1.892h9.244v1.365c-3.374,4.212-3.9,7.372-4.134,12.988h-2.3C436.442,5567.639,437.358,5564.285,440.127,5560.424Z"/>
      <path id="패스_3453" data-name="패스 3453" class="cls-8" d="M449.975,5569.375v-5.422h-1.56v-1.677l1.657-.117.254-2.964h1.891v2.964h2.789v1.794h-2.789v5.442c0,1.287.449,1.949,1.56,1.949a3.2,3.2,0,0,0,1.151-.253l.409,1.657a6.858,6.858,0,0,1-2.106.391C450.813,5573.139,449.975,5571.637,449.975,5569.375Z"/>
      <path id="패스_3454" data-name="패스 3454" class="cls-8" d="M457.209,5562.159h1.833l.176,1.931h.058a3.707,3.707,0,0,1,3.042-2.2,2.676,2.676,0,0,1,1.209.233l-.409,1.95a3.177,3.177,0,0,0-1.073-.175c-.877,0-1.93.6-2.613,2.3v6.69h-2.223Z"/>
      <path id="패스_3455" data-name="패스 3455" class="cls-8" d="M464.892,5558.824a1.318,1.318,0,0,1,1.423-1.326,1.329,1.329,0,1,1-1.423,1.326Zm.312,3.335h2.223v10.726H465.2Z"/>
      <path id="패스_3456" data-name="패스 3456" class="cls-8" d="M470.527,5570.369v-13.026h2.223v13.143c0,.6.273.819.546.819a1.557,1.557,0,0,0,.371-.039l.292,1.7a3.582,3.582,0,0,1-1.209.176C471.132,5573.139,470.527,5572.1,470.527,5570.369Z"/>
      <path id="패스_3457" data-name="패스 3457" class="cls-8" d="M476.065,5570.369v-13.026h2.223v13.143c0,.6.274.819.546.819a1.556,1.556,0,0,0,.371-.039l.293,1.7a3.593,3.593,0,0,1-1.21.176C476.67,5573.139,476.065,5572.1,476.065,5570.369Z"/>
      <path id="패스_3458" data-name="패스 3458" class="cls-8" d="M481.35,5558.824a1.317,1.317,0,0,1,1.423-1.326,1.329,1.329,0,1,1-1.423,1.326Zm.312,3.335h2.222v10.726h-2.222Z"/>
      <path id="패스_3459" data-name="패스 3459" class="cls-8" d="M486.322,5567.541c0-3.588,2.4-5.654,5.051-5.654s5.05,2.066,5.05,5.654c0,3.55-2.4,5.6-5.05,5.6S486.322,5571.091,486.322,5567.541Zm7.8,0c0-2.281-1.053-3.8-2.749-3.8-1.678,0-2.73,1.522-2.73,3.8,0,2.263,1.052,3.764,2.73,3.764C493.069,5571.305,494.122,5569.8,494.122,5567.541Z"/>
      <path id="패스_3460" data-name="패스 3460" class="cls-8" d="M498.919,5562.159h1.833l.175,1.483h.059a5.106,5.106,0,0,1,3.549-1.755c2.281,0,3.3,1.52,3.3,4.251v6.747h-2.243v-6.475c0-1.851-.546-2.594-1.814-2.594-.994,0-1.677.508-2.632,1.463v7.606h-2.223Z"/>
    </g>
  </g>
</svg>
