<svg id="구성_요소_89_1" data-name="구성 요소 89 – 1" xmlns="http://www.w3.org/2000/svg" xmlns:xlink="http://www.w3.org/1999/xlink" width="836" height="355.5" viewBox="0 0 836 355.5">
  <defs>
    <style>
      .cls-1, .cls-12, .cls-14, .cls-16, .cls-20, .cls-7, .cls-8 {
        fill: none;
      }

      .cls-2 {
        fill: #f4f6f7;
      }

      .cls-3 {
        fill: #e3e3e3;
      }

      .cls-4, .cls-5 {
        fill: #1e498b;
      }

      .cls-5 {
        font-size: 14px;
        font-family: NotoSansKR-Medium, Noto Sans KR;
        font-weight: 500;
        letter-spacing: -0.021em;
      }

      .cls-6 {
        clip-path: url(#clip-path);
      }

      .cls-7, .cls-8 {
        stroke: #7e8084;
        stroke-linecap: round;
        stroke-linejoin: round;
        stroke-width: 2px;
      }

      .cls-7 {
        stroke-dasharray: 0 6.012;
      }

      .cls-10, .cls-11, .cls-9 {
        fill: #1e2323;
      }

      .cls-10 {
        font-size: 12px;
        font-family: NotoSansKR-Light, Noto Sans KR;
        font-weight: 300;
        letter-spacing: -0.017em;
      }

      .cls-11 {
        font-size: 13px;
        font-family: NotoSansKR-Regular, Noto Sans KR;
        letter-spacing: -0.02em;
      }

      .cls-12 {
        stroke: #1e498b;
        stroke-width: 0.5px;
      }

      .cls-13 {
        fill: #2b2e34;
      }

      .cls-14, .cls-15 {
        stroke: #1e2323;
      }

      .cls-14, .cls-15, .cls-16 {
        stroke-miterlimit: 10;
      }

      .cls-15, .cls-17 {
        fill: #fff;
      }

      .cls-16, .cls-20 {
        stroke: #2b2e34;
      }

      .cls-18 {
        fill: #1393d1;
      }

      .cls-19 {
        fill: #a7d2e6;
      }

      .cls-21 {
        fill: #28669e;
      }
    </style>
    <clipPath id="clip-path">
      <path id="패스_9367" data-name="패스 9367" class="cls-1" d="M0,0H836V-355.5H0Z"/>
    </clipPath>
  </defs>
  <path id="패스_9360" data-name="패스 9360" class="cls-2" d="M0,0H836V-355.5H0Z" transform="translate(0 355.5)"/>
  <path id="패스_9361" data-name="패스 9361" class="cls-3" d="M55.77-74.362H195.314v-91.1H55.77Z" transform="translate(0 355.5)"/>
  <path id="패스_9362" data-name="패스 9362" class="cls-3" d="M637.114-94.157H770.75v-77.1H637.114Z" transform="translate(0 355.5)"/>
  <path id="패스_9363" data-name="패스 9363" class="cls-3" d="M334.2-20.283H500.672V-92.666H334.2Z" transform="translate(0 355.5)"/>
  <g id="그룹" transform="translate(0 355.5)">
    <path id="패스_10128" data-name="패스 10128" class="cls-4" d="M1.358,0H7.6V-1.372H2.982V-4.7h3.78V-6.076H2.982v-2.87H7.448V-10.3H1.358ZM9.324,0h1.6V-5.46a2.629,2.629,0,0,1,1.89-1.05c.91,0,1.3.532,1.3,1.862V0h1.61V-4.844c0-1.96-.728-3.052-2.366-3.052a3.669,3.669,0,0,0-2.548,1.26h-.042L10.64-7.7H9.324Zm8.442,0h1.6V-5.46a2.629,2.629,0,0,1,1.89-1.05c.91,0,1.3.532,1.3,1.862V0h1.61V-4.844c0-1.96-.728-3.052-2.366-3.052a3.583,3.583,0,0,0-2.492,1.218L19.362-8.2v-2.954h-1.6Zm10.22.182a3.828,3.828,0,0,0,2.45-1.064h.042l.14.882h1.316V-4.634c0-2.044-.882-3.262-2.8-3.262a5.9,5.9,0,0,0-3.108,1.008l.6,1.092a4.234,4.234,0,0,1,2.226-.784c1.134,0,1.456.784,1.47,1.68-3.206.35-4.606,1.2-4.606,2.856A2.127,2.127,0,0,0,27.986.182Zm.49-1.274c-.686,0-1.2-.308-1.2-1.064,0-.868.77-1.442,3.052-1.722v1.89A2.714,2.714,0,0,1,28.476-1.092ZM33.922,0h1.6V-5.46a2.629,2.629,0,0,1,1.89-1.05c.91,0,1.3.532,1.3,1.862V0h1.61V-4.844c0-1.96-.728-3.052-2.366-3.052a3.669,3.669,0,0,0-2.548,1.26h-.042L35.238-7.7H33.922Z" transform="translate(384.989 -243.613)"/>
    <path id="패스_10129" data-name="패스 10129" class="cls-4" d="M4.354.182A3.752,3.752,0,0,0,6.846-.77L6.188-1.834a2.638,2.638,0,0,1-1.68.7c-1.288,0-2.17-1.078-2.17-2.7s.924-2.73,2.212-2.73a2.017,2.017,0,0,1,1.386.6l.8-1.05A3.306,3.306,0,0,0,4.48-7.9,3.783,3.783,0,0,0,.672-3.836C.672-1.288,2.268.182,4.354.182Zm6.65,0a4.671,4.671,0,0,0,2.6-.812l-.56-1.022a3.269,3.269,0,0,1-1.834.574A2.325,2.325,0,0,1,8.834-3.43h5a4.161,4.161,0,0,0,.07-.812C13.9-6.426,12.81-7.9,10.766-7.9c-1.806,0-3.514,1.554-3.514,4.06A3.7,3.7,0,0,0,11,.182ZM8.82-4.536a2.088,2.088,0,0,1,1.974-2.1c1.12,0,1.722.77,1.722,2.1Z" transform="translate(425.434 -243.613)"/>
    <path id="패스_10130" data-name="패스 10130" class="cls-4" d="M3.878.182a3.227,3.227,0,0,0,2.24-1.05H6.16L6.3,0H7.616V-11.158H6.006V-8.3l.07,1.274A2.971,2.971,0,0,0,4-7.9C2.282-7.9.7-6.342.7-3.836.7-1.288,1.946.182,3.878.182Zm.378-1.33c-1.2,0-1.89-.966-1.89-2.716,0-1.666.868-2.688,1.946-2.688a2.415,2.415,0,0,1,1.694.7v3.766A2.263,2.263,0,0,1,4.256-1.148Z" transform="translate(439.856 -243.613)"/>
    <text id="_" data-name=" " class="cls-5" transform="translate(448.361 -243.613)"><tspan x="0" y="0"> </tspan></text>
    <path id="패스_10131" data-name="패스 10131" class="cls-4" d="M4.3.182c2.254,0,3.626-1.344,3.626-3A2.877,2.877,0,0,0,5.824-5.6L4.41-6.2c-.84-.336-1.666-.672-1.666-1.554,0-.826.686-1.33,1.736-1.33a3.282,3.282,0,0,1,2.268.924L7.6-9.2A4.414,4.414,0,0,0,4.48-10.5c-1.96,0-3.388,1.218-3.388,2.842a2.964,2.964,0,0,0,2.1,2.7L4.62-4.34c.952.42,1.652.714,1.652,1.652,0,.868-.7,1.456-1.946,1.456A4,4,0,0,1,1.582-2.45L.63-1.33A5.141,5.141,0,0,0,4.3.182Zm7.154,0A3.828,3.828,0,0,0,13.9-.882h.042l.14.882H15.4V-4.634c0-2.044-.882-3.262-2.8-3.262A5.9,5.9,0,0,0,9.492-6.888l.6,1.092A4.234,4.234,0,0,1,12.32-6.58c1.134,0,1.456.784,1.47,1.68-3.206.35-4.606,1.2-4.606,2.856A2.127,2.127,0,0,0,11.452.182Zm.49-1.274c-.686,0-1.2-.308-1.2-1.064,0-.868.77-1.442,3.052-1.722v1.89A2.714,2.714,0,0,1,11.942-1.092ZM17.584,0h1.6V-5.46a2.629,2.629,0,0,1,1.89-1.05c.91,0,1.3.532,1.3,1.862V0h1.61V-4.844c0-1.96-.728-3.052-2.366-3.052a3.669,3.669,0,0,0-2.548,1.26h-.042L18.9-7.7H17.584Zm8.638,0h1.6V-7.7h-1.6Zm.8-9.142a.966.966,0,0,0,1.036-.952.958.958,0,0,0-1.036-.952A.946.946,0,0,0,26-10.094.954.954,0,0,0,27.02-9.142ZM32.732.182A4.927,4.927,0,0,0,34.244-.1l-.294-1.19a2.3,2.3,0,0,1-.826.182c-.8,0-1.12-.476-1.12-1.4V-6.412h2V-7.7H32V-9.828H30.646L30.464-7.7l-1.19.084v1.2h1.12V-2.52C30.394-.9,31,.182,32.732.182Zm4.34,0a3.828,3.828,0,0,0,2.45-1.064h.042L39.7,0H41.02V-4.634c0-2.044-.882-3.262-2.8-3.262a5.9,5.9,0,0,0-3.108,1.008l.6,1.092A4.234,4.234,0,0,1,37.94-6.58c1.134,0,1.456.784,1.47,1.68C36.2-4.55,34.8-3.7,34.8-2.044A2.127,2.127,0,0,0,37.072.182Zm.49-1.274c-.686,0-1.2-.308-1.2-1.064,0-.868.77-1.442,3.052-1.722v1.89A2.714,2.714,0,0,1,37.562-1.092ZM45.556.182A4.927,4.927,0,0,0,47.068-.1l-.294-1.19a2.3,2.3,0,0,1-.826.182c-.8,0-1.12-.476-1.12-1.4V-6.412h2V-7.7h-2V-9.828H43.47L43.288-7.7l-1.19.084v1.2h1.12V-2.52C43.218-.9,43.82.182,45.556.182ZM48.412,0h1.6V-7.7h-1.6Zm.8-9.142a.966.966,0,0,0,1.036-.952.958.958,0,0,0-1.036-.952.946.946,0,0,0-1.022.952A.954.954,0,0,0,49.21-9.142Zm6.2,9.324a3.7,3.7,0,0,0,3.626-4.018c0-2.576-1.722-4.06-3.626-4.06s-3.626,1.484-3.626,4.06A3.7,3.7,0,0,0,55.412.182Zm0-1.316c-1.2,0-1.96-1.078-1.96-2.7s.756-2.73,1.96-2.73,1.974,1.092,1.974,2.73S56.63-1.134,55.412-1.134ZM60.83,0h1.6V-5.46a2.629,2.629,0,0,1,1.89-1.05c.91,0,1.3.532,1.3,1.862V0h1.61V-4.844c0-1.96-.728-3.052-2.366-3.052a3.669,3.669,0,0,0-2.548,1.26h-.042L62.146-7.7H60.83ZM76.678.182A4.069,4.069,0,0,0,79.884-1.3l-.868-1.022a3,3,0,0,1-2.282,1.092c-1.82,0-2.968-1.5-2.968-3.948,0-2.422,1.232-3.906,3.01-3.906a2.741,2.741,0,0,1,2.016.924L79.674-9.2a3.971,3.971,0,0,0-2.926-1.3c-2.6,0-4.648,2.016-4.648,5.376S74.088.182,76.678.182Zm6.608,0a3.828,3.828,0,0,0,2.45-1.064h.042l.14.882h1.316V-4.634c0-2.044-.882-3.262-2.8-3.262a5.9,5.9,0,0,0-3.108,1.008l.6,1.092a4.234,4.234,0,0,1,2.226-.784c1.134,0,1.456.784,1.47,1.68-3.206.35-4.606,1.2-4.606,2.856A2.127,2.127,0,0,0,83.286.182Zm.49-1.274c-.686,0-1.2-.308-1.2-1.064,0-.868.77-1.442,3.052-1.722v1.89A2.714,2.714,0,0,1,83.776-1.092ZM89.418,0h1.6V-4.8C91.5-6.02,92.26-6.454,92.89-6.454a2.278,2.278,0,0,1,.77.126l.294-1.4a1.915,1.915,0,0,0-.868-.168A2.662,2.662,0,0,0,90.9-6.314H90.86L90.734-7.7H89.418ZM98.1.182a4.671,4.671,0,0,0,2.6-.812l-.56-1.022a3.269,3.269,0,0,1-1.834.574,2.325,2.325,0,0,1-2.38-2.352h5a4.161,4.161,0,0,0,.07-.812C101-6.426,99.9-7.9,97.86-7.9c-1.806,0-3.514,1.554-3.514,4.06A3.7,3.7,0,0,0,98.1.182ZM95.914-4.536a2.088,2.088,0,0,1,1.974-2.1c1.12,0,1.722.77,1.722,2.1Z" transform="translate(366.751 -224.618)"/>
  </g>
  <g id="그룹_8561" data-name="그룹 8561" class="cls-6" transform="translate(0 355.5)">
    <g id="그룹_8558" data-name="그룹 8558" transform="translate(257.067 -309.35)">
      <path id="패스_9364" data-name="패스 9364" class="cls-7" d="M0,0C3.086,85.539,71.759,154.125,156.6,155.711"/>
    </g>
    <g id="그룹_8559" data-name="그룹 8559" transform="translate(422.687 -153.723)">
      <path id="패스_9365" data-name="패스 9365" class="cls-7" d="M0,0C84.441-3.164,152.133-72.716,153.679-158.632"/>
    </g>
    <g id="그룹_8560" data-name="그룹 8560" transform="translate(256.959 -315.36)">
      <path id="패스_9366" data-name="패스 9366" class="cls-8" d="M0,0H0M159.717,161.75h0M319.434,0h0"/>
    </g>
  </g>
  <path id="패스_10127" data-name="패스 10127" class="cls-9" d="M1.358,0H4.116C7.2,0,9-1.848,9-5.194S7.2-10.3,4.032-10.3H1.358ZM2.982-1.33V-8.988H3.92c2.212,0,3.4,1.218,3.4,3.794S6.132-1.33,3.92-1.33ZM14.042.182a4.671,4.671,0,0,0,2.6-.812l-.56-1.022a3.269,3.269,0,0,1-1.834.574,2.325,2.325,0,0,1-2.38-2.352h5a4.161,4.161,0,0,0,.07-.812C16.94-6.426,15.848-7.9,13.8-7.9,12-7.9,10.29-6.342,10.29-3.836A3.7,3.7,0,0,0,14.042.182ZM11.858-4.536a2.088,2.088,0,0,1,1.974-2.1c1.12,0,1.722.77,1.722,2.1ZM20.664.182c1.9,0,2.926-1.05,2.926-2.338,0-1.456-1.19-1.932-2.268-2.338-.84-.308-1.638-.56-1.638-1.218,0-.532.392-.952,1.232-.952a2.882,2.882,0,0,1,1.722.672l.756-.994a4.053,4.053,0,0,0-2.506-.91c-1.694,0-2.73.966-2.73,2.254s1.176,1.848,2.2,2.24c.84.322,1.708.63,1.708,1.33,0,.588-.434,1.036-1.358,1.036a3.413,3.413,0,0,1-2.184-.882L17.766-.882A4.736,4.736,0,0,0,20.664.182ZM25.13,0h1.6V-7.7h-1.6Zm.8-9.142a.966.966,0,0,0,1.036-.952.958.958,0,0,0-1.036-.952.946.946,0,0,0-1.022.952A.954.954,0,0,0,25.928-9.142Zm5.684,12.6c2.464,0,4.032-1.2,4.032-2.688,0-1.316-.952-1.876-2.772-1.876H31.458c-.98,0-1.288-.294-1.288-.756a1.021,1.021,0,0,1,.42-.812,2.677,2.677,0,0,0,1.078.238,2.631,2.631,0,0,0,2.884-2.646,2.082,2.082,0,0,0-.5-1.414h1.47V-7.7h-2.73a3.211,3.211,0,0,0-1.12-.2,2.777,2.777,0,0,0-2.982,2.772A2.635,2.635,0,0,0,29.694-3.08v.056A1.9,1.9,0,0,0,28.84-1.6a1.416,1.416,0,0,0,.7,1.274v.07a2.034,2.034,0,0,0-1.12,1.68C28.42,2.772,29.764,3.458,31.612,3.458Zm.056-6.93a1.5,1.5,0,0,1-1.456-1.652,1.466,1.466,0,0,1,1.456-1.638,1.474,1.474,0,0,1,1.456,1.638A1.5,1.5,0,0,1,31.668-3.472Zm.182,5.866c-1.274,0-2.058-.448-2.058-1.2A1.385,1.385,0,0,1,30.45.07a4.895,4.895,0,0,0,1.036.112h1.162c.938,0,1.442.2,1.442.84C34.09,1.736,33.194,2.394,31.85,2.394ZM36.9,0h1.6V-5.46a2.629,2.629,0,0,1,1.89-1.05c.91,0,1.3.532,1.3,1.862V0H43.3V-4.844c0-1.96-.728-3.052-2.366-3.052a3.669,3.669,0,0,0-2.548,1.26h-.042L38.22-7.7H36.9Z" transform="translate(103.891 212.487)"/>
  <g id="그룹-2" data-name="그룹" transform="translate(0 355.5)">
    <path id="패스_9482" data-name="패스 9482" class="cls-9" d="M3.588.156C5.3.156,6.42-.876,6.42-2.22S5.58-4.1,4.584-4.548L3.276-5.124C2.64-5.4,1.788-5.772,1.788-6.768c0-.9.744-1.488,1.86-1.488a2.807,2.807,0,0,1,2.064.876l.408-.468A3.341,3.341,0,0,0,3.648-8.9a2.332,2.332,0,0,0-2.592,2.2A2.426,2.426,0,0,0,2.832-4.524l1.308.576c.864.384,1.548.72,1.548,1.776,0,1-.8,1.68-2.1,1.68A3.368,3.368,0,0,1,1.056-1.656l-.444.5A3.893,3.893,0,0,0,3.588.156Z" transform="translate(64.4 -116.513)"/>
    <path id="패스_9483" data-name="패스 9483" class="cls-9" d="M3,.156a3.619,3.619,0,0,0,1.068-.24L3.9-.624a2.237,2.237,0,0,1-.78.18c-.852,0-1.068-.528-1.068-1.332V-5.808H3.888V-6.4H2.052V-8.244H1.464L1.38-6.4l-1.02.06v.528h1v3.984C1.356-.636,1.74.156,3,.156Zm3.552,0A3.687,3.687,0,0,0,8.784-.816h.024L8.88,0h.588V-4.056c0-1.416-.54-2.508-2.064-2.508a4.436,4.436,0,0,0-2.424.84l.312.5a3.458,3.458,0,0,1,2.016-.732c1.212,0,1.488.984,1.464,1.932-2.82.324-4.08,1-4.08,2.412A1.688,1.688,0,0,0,6.552.156ZM6.7-.432A1.153,1.153,0,0,1,5.388-1.644c0-.984.864-1.572,3.384-1.86v2.076A3.152,3.152,0,0,1,6.7-.432ZM11.7,0h.7V-4.788c.744-.768,1.272-1.152,2.016-1.152.984,0,1.4.612,1.4,1.944V0h.7V-4.092c0-1.644-.612-2.472-1.944-2.472a3.146,3.146,0,0,0-2.184,1.14H12.36L12.276-6.4H11.7Zm9.24.156A2.964,2.964,0,0,0,22.992-.8h.024L23.1,0h.576V-9.54h-.7v2.6l.048,1.152a2.872,2.872,0,0,0-1.908-.78c-1.512,0-2.832,1.308-2.832,3.372C18.288-1.044,19.332.156,20.94.156Zm.12-.612c-1.3,0-2.028-1.08-2.028-2.736,0-1.572.936-2.76,2.16-2.76a2.582,2.582,0,0,1,1.788.792v3.7A2.678,2.678,0,0,1,21.06-.456Z" transform="translate(71.244 -116.513)"/>
    <path id="패스_9484" data-name="패스 9484" class="cls-9" d="M2.616.156A3.687,3.687,0,0,0,4.848-.816h.024L4.944,0h.588V-4.056c0-1.416-.54-2.508-2.064-2.508a4.436,4.436,0,0,0-2.424.84l.312.5a3.458,3.458,0,0,1,2.016-.732c1.212,0,1.488.984,1.464,1.932-2.82.324-4.08,1-4.08,2.412A1.688,1.688,0,0,0,2.616.156ZM2.76-.432A1.153,1.153,0,0,1,1.452-1.644c0-.984.864-1.572,3.384-1.86v2.076A3.152,3.152,0,0,1,2.76-.432Zm5,.432h.7V-4.3C8.928-5.484,9.612-5.9,10.176-5.9a1.353,1.353,0,0,1,.588.108l.144-.624a1.289,1.289,0,0,0-.648-.144A2.2,2.2,0,0,0,8.448-5.208H8.424L8.34-6.4H7.764Zm6.3.156A2.964,2.964,0,0,0,16.116-.8h.024l.084.8H16.8V-9.54h-.7v2.6l.048,1.152a2.872,2.872,0,0,0-1.908-.78c-1.512,0-2.832,1.308-2.832,3.372C11.412-1.044,12.456.156,14.064.156Zm.12-.612c-1.3,0-2.028-1.08-2.028-2.736,0-1.572.936-2.76,2.16-2.76A2.582,2.582,0,0,1,16.1-5.16v3.7A2.678,2.678,0,0,1,14.184-.456Z" transform="translate(96.47 -116.513)"/>
    <path id="패스_9485" data-name="패스 9485" class="cls-9" d="M1.2,0h.7V-6.4H1.2Zm.36-7.9a.566.566,0,0,0,.588-.552.564.564,0,0,0-.588-.576.557.557,0,0,0-.588.576A.559.559,0,0,0,1.56-7.9ZM3.468,0h4.7V-.6h-3.8L8.052-6.024V-6.4H3.864v.588H7.152L3.468-.372Z" transform="translate(114.45 -116.513)"/>
    <path id="패스_9486" data-name="패스 9486" class="cls-9" d="M3.648.156a3.579,3.579,0,0,0,2.04-.624L5.424-.984a2.864,2.864,0,0,1-1.7.552A2.422,2.422,0,0,1,1.38-3.084H5.916a3.319,3.319,0,0,0,.036-.5c0-1.872-.924-2.976-2.472-2.976-1.452,0-2.808,1.3-2.808,3.372A3.03,3.03,0,0,0,3.648.156ZM1.38-3.636A2.278,2.278,0,0,1,3.492-5.964c1.116,0,1.824.78,1.824,2.328ZM9.78.156A2.964,2.964,0,0,0,11.832-.8h.024l.084.8h.576V-9.54h-.7v2.6l.048,1.152a2.872,2.872,0,0,0-1.908-.78c-1.512,0-2.832,1.308-2.832,3.372C7.128-1.044,8.172.156,9.78.156ZM9.9-.456c-1.3,0-2.028-1.08-2.028-2.736,0-1.572.936-2.76,2.16-2.76a2.582,2.582,0,0,1,1.788.792v3.7A2.678,2.678,0,0,1,9.9-.456ZM17.58,0h.7V-4.788A2.7,2.7,0,0,1,20.124-5.94c.948,0,1.38.612,1.38,1.944V0h.7V-4.788A2.7,2.7,0,0,1,24.048-5.94c.936,0,1.38.612,1.38,1.944V0h.7V-4.092c0-1.644-.636-2.472-1.92-2.472a3.2,3.2,0,0,0-2.16,1.3,1.657,1.657,0,0,0-1.764-1.3,2.97,2.97,0,0,0-2.016,1.14H18.24L18.156-6.4H17.58ZM30.792.156c1.548,0,2.892-1.224,2.892-3.348S32.34-6.564,30.792-6.564,27.9-5.328,27.9-3.192,29.244.156,30.792.156Zm0-.6c-1.248,0-2.16-1.116-2.16-2.748s.912-2.76,2.16-2.76,2.172,1.128,2.172,2.76S32.04-.444,30.792-.444Zm6.888.6A2.964,2.964,0,0,0,39.732-.8h.024l.084.8h.576V-9.54h-.7v2.6l.048,1.152a2.872,2.872,0,0,0-1.908-.78c-1.512,0-2.832,1.308-2.832,3.372C35.028-1.044,36.072.156,37.68.156Zm.12-.612c-1.3,0-2.028-1.08-2.028-2.736,0-1.572.936-2.76,2.16-2.76a2.582,2.582,0,0,1,1.788.792v3.7A2.678,2.678,0,0,1,37.8-.456Z" transform="translate(122.779 -116.513)"/>
    <path id="패스_9487" data-name="패스 9487" class="cls-9" d="M3.036.156A2.84,2.84,0,0,0,5.2-1.056h.036L5.292,0H5.88V-6.4h-.7v4.68C4.464-.852,3.936-.468,3.192-.468,2.208-.468,1.8-1.08,1.8-2.388V-6.4H1.1V-2.3C1.1-.66,1.7.156,3.036.156Z" transform="translate(164.756 -116.513)"/>
    <path id="패스_9489" data-name="패스 9489" class="cls-9" d="M2.052.156A1.41,1.41,0,0,0,2.52.084L2.412-.468a1.073,1.073,0,0,1-.228.024c-.168,0-.288-.132-.288-.432V-9.54H1.2V-.948C1.2-.2,1.476.156,2.052.156Z" transform="translate(171.737 -116.513)"/>
    <path id="패스_9488" data-name="패스 9488" class="cls-9" d="M2.616.156A3.687,3.687,0,0,0,4.848-.816h.024L4.944,0h.588V-4.056c0-1.416-.54-2.508-2.064-2.508a4.436,4.436,0,0,0-2.424.84l.312.5a3.458,3.458,0,0,1,2.016-.732c1.212,0,1.488.984,1.464,1.932-2.82.324-4.08,1-4.08,2.412A1.688,1.688,0,0,0,2.616.156ZM2.76-.432A1.153,1.153,0,0,1,1.452-1.644c0-.984.864-1.572,3.384-1.86v2.076A3.152,3.152,0,0,1,2.76-.432Zm5,.432h.7V-4.3C8.928-5.484,9.612-5.9,10.176-5.9a1.353,1.353,0,0,1,.588.108l.144-.624a1.289,1.289,0,0,0-.648-.144A2.2,2.2,0,0,0,8.448-5.208H8.424L8.34-6.4H7.764Z" transform="translate(174.759 -116.513)"/>
    <path id="패스_9490" data-name="패스 9490" class="cls-9" d="M3.324.156A2.964,2.964,0,0,0,5.376-.8H5.4l.084.8H6.06V-9.54h-.7v2.6l.048,1.152A2.872,2.872,0,0,0,3.5-6.564C1.992-6.564.672-5.256.672-3.192.672-1.044,1.716.156,3.324.156Zm.12-.612c-1.3,0-2.028-1.08-2.028-2.736,0-1.572.936-2.76,2.16-2.76a2.582,2.582,0,0,1,1.788.792v3.7A2.678,2.678,0,0,1,3.444-.456Zm7.464.612a3.579,3.579,0,0,0,2.04-.624l-.264-.516a2.864,2.864,0,0,1-1.7.552A2.422,2.422,0,0,1,8.64-3.084h4.536a3.319,3.319,0,0,0,.036-.5c0-1.872-.924-2.976-2.472-2.976-1.452,0-2.808,1.3-2.808,3.372A3.03,3.03,0,0,0,10.908.156ZM8.64-3.636a2.278,2.278,0,0,1,2.112-2.328c1.116,0,1.824.78,1.824,2.328ZM16.488.156c1.416,0,2.2-.84,2.2-1.824,0-1.236-1.08-1.584-2.064-1.956-.744-.276-1.488-.54-1.488-1.248,0-.576.432-1.1,1.38-1.1a2.453,2.453,0,0,1,1.524.576l.36-.48a3.089,3.089,0,0,0-1.86-.684c-1.344,0-2.1.792-2.1,1.728,0,1.1,1.056,1.5,2,1.836.744.264,1.548.612,1.548,1.368,0,.66-.492,1.212-1.464,1.212a2.93,2.93,0,0,1-2.016-.8l-.372.5A3.748,3.748,0,0,0,16.488.156ZM20.34,0h.7V-6.4h-.7Zm.36-7.9a.566.566,0,0,0,.588-.552.564.564,0,0,0-.588-.576.557.557,0,0,0-.588.576A.559.559,0,0,0,20.7-7.9Z" transform="translate(66.14 -100.013)"/>
    <path id="패스_9491" data-name="패스 9491" class="cls-9" d="M3.3,3.048c1.872,0,3.072-1.056,3.072-2.172C6.372-.144,5.688-.6,4.236-.6H2.892c-.924,0-1.2-.348-1.2-.8a1.1,1.1,0,0,1,.5-.888,2.162,2.162,0,0,0,1.032.264A2.2,2.2,0,0,0,5.484-4.284a2.04,2.04,0,0,0-.66-1.536h1.44V-6.4H4.08a2.274,2.274,0,0,0-.852-.168A2.234,2.234,0,0,0,.936-4.3a2.316,2.316,0,0,0,.816,1.74v.048A1.591,1.591,0,0,0,1.044-1.32,1.147,1.147,0,0,0,1.62-.288v.06A1.944,1.944,0,0,0,.66,1.3C.66,2.376,1.7,3.048,3.3,3.048Zm-.072-5.6a1.64,1.64,0,0,1-1.6-1.74A1.587,1.587,0,0,1,3.228-6,1.585,1.585,0,0,1,4.812-4.3,1.638,1.638,0,0,1,3.228-2.556ZM3.384,2.52c-1.308,0-2.064-.528-2.064-1.308A1.6,1.6,0,0,1,2.112-.072a4.5,4.5,0,0,0,.8.108H4.224c.948,0,1.452.252,1.452.936C5.676,1.74,4.776,2.52,3.384,2.52ZM7.716,0h.7V-4.788c.744-.768,1.272-1.152,2.016-1.152.984,0,1.4.612,1.4,1.944V0h.7V-4.092c0-1.644-.612-2.472-1.944-2.472A3.146,3.146,0,0,0,8.4-5.424H8.376L8.292-6.4H7.716Zm11.2.156a3.687,3.687,0,0,0,2.232-.972h.024L21.24,0h.588V-4.056c0-1.416-.54-2.508-2.064-2.508a4.436,4.436,0,0,0-2.424.84l.312.5a3.458,3.458,0,0,1,2.016-.732c1.212,0,1.488.984,1.464,1.932-2.82.324-4.08,1-4.08,2.412A1.688,1.688,0,0,0,18.912.156Zm.144-.588a1.153,1.153,0,0,1-1.308-1.212c0-.984.864-1.572,3.384-1.86v2.076A3.152,3.152,0,0,1,19.056-.432Zm5,.432h.7V-4.788c.744-.768,1.272-1.152,2.016-1.152.984,0,1.4.612,1.4,1.944V0h.7V-4.092c0-1.644-.612-2.472-1.944-2.472a3.146,3.146,0,0,0-2.184,1.14H24.72L24.636-6.4H24.06ZM33.3.156A2.964,2.964,0,0,0,35.352-.8h.024l.084.8h.576V-9.54h-.7v2.6l.048,1.152a2.872,2.872,0,0,0-1.908-.78c-1.512,0-2.832,1.308-2.832,3.372C30.648-1.044,31.692.156,33.3.156Zm.12-.612c-1.3,0-2.028-1.08-2.028-2.736,0-1.572.936-2.76,2.16-2.76a2.582,2.582,0,0,1,1.788.792v3.7A2.678,2.678,0,0,1,33.42-.456Zm9.252.612c1.416,0,2.2-.84,2.2-1.824,0-1.236-1.08-1.584-2.064-1.956-.744-.276-1.488-.54-1.488-1.248,0-.576.432-1.1,1.38-1.1A2.453,2.453,0,0,1,44.22-5.4l.36-.48a3.089,3.089,0,0,0-1.86-.684c-1.344,0-2.1.792-2.1,1.728,0,1.1,1.056,1.5,2,1.836.744.264,1.548.612,1.548,1.368,0,.66-.492,1.212-1.464,1.212a2.93,2.93,0,0,1-2.016-.8l-.372.5A3.748,3.748,0,0,0,42.672.156Zm5.268,0a3.687,3.687,0,0,0,2.232-.972H50.2L50.268,0h.588V-4.056c0-1.416-.54-2.508-2.064-2.508a4.436,4.436,0,0,0-2.424.84l.312.5A3.458,3.458,0,0,1,48.7-5.952c1.212,0,1.488.984,1.464,1.932-2.82.324-4.08,1-4.08,2.412A1.688,1.688,0,0,0,47.94.156Zm.144-.588a1.153,1.153,0,0,1-1.308-1.212c0-.984.864-1.572,3.384-1.86v2.076A3.152,3.152,0,0,1,48.084-.432Zm5,.432h.7V-4.788c.744-.768,1.272-1.152,2.016-1.152.984,0,1.4.612,1.4,1.944V0h.7V-4.092c0-1.644-.612-2.472-1.944-2.472a3.146,3.146,0,0,0-2.184,1.14h-.024L53.664-6.4h-.576Z" transform="translate(88.363 -100.013)"/>
    <path id="패스_9492" data-name="패스 9492" class="cls-9" d="M1.2,0h.7V-6.4H1.2Zm.36-7.9a.566.566,0,0,0,.588-.552.564.564,0,0,0-.588-.576.557.557,0,0,0-.588.576A.559.559,0,0,0,1.56-7.9ZM6.084.156a3.619,3.619,0,0,0,1.068-.24l-.168-.54a2.237,2.237,0,0,1-.78.18c-.852,0-1.068-.528-1.068-1.332V-5.808H6.972V-6.4H5.136V-8.244H4.548L4.464-6.4l-1.02.06v.528h1v3.984C4.44-.636,4.824.156,6.084.156Zm3.552,0a3.687,3.687,0,0,0,2.232-.972h.024L11.964,0h.588V-4.056c0-1.416-.54-2.508-2.064-2.508a4.436,4.436,0,0,0-2.424.84l.312.5a3.458,3.458,0,0,1,2.016-.732c1.212,0,1.488.984,1.464,1.932-2.82.324-4.08,1-4.08,2.412A1.688,1.688,0,0,0,9.636.156ZM9.78-.432A1.153,1.153,0,0,1,8.472-1.644c0-.984.864-1.572,3.384-1.86v2.076A3.152,3.152,0,0,1,9.78-.432Zm6.648.588A3.619,3.619,0,0,0,17.5-.084l-.168-.54a2.237,2.237,0,0,1-.78.18c-.852,0-1.068-.528-1.068-1.332V-5.808h1.836V-6.4H15.48V-8.244h-.588L14.808-6.4l-1.02.06v.528h1v3.984C14.784-.636,15.168.156,16.428.156ZM18.852,0h.7V-6.4h-.7Zm.36-7.9a.566.566,0,0,0,.588-.552.564.564,0,0,0-.588-.576.557.557,0,0,0-.588.576A.559.559,0,0,0,19.212-7.9ZM24.3.156c1.548,0,2.892-1.224,2.892-3.348S25.848-6.564,24.3-6.564s-2.892,1.236-2.892,3.372S22.752.156,24.3.156Zm0-.6c-1.248,0-2.16-1.116-2.16-2.748s.912-2.76,2.16-2.76,2.172,1.128,2.172,2.76S25.548-.444,24.3-.444ZM29.064,0h.7V-4.788c.744-.768,1.272-1.152,2.016-1.152.984,0,1.4.612,1.4,1.944V0h.7V-4.092c0-1.644-.612-2.472-1.944-2.472a3.146,3.146,0,0,0-2.184,1.14h-.024L29.64-6.4h-.576Z" transform="translate(147.371 -100.013)"/>
    <path id="패스_9493" data-name="패스 9493" class="cls-9" d="M3.912-9.48a2.433,2.433,0,0,0-.96-.216c-1.08,0-1.644.684-1.644,1.956V-6.4l-.888.06v.528h.888V0H2V-5.808H3.456V-6.4H2V-7.7c0-.9.3-1.4.984-1.4a1.827,1.827,0,0,1,.756.18Z" transform="translate(102.596 -83.513)"/>
    <path id="패스_9494" data-name="패스 9494" class="cls-9" d="M3.036.156A2.84,2.84,0,0,0,5.2-1.056h.036L5.292,0H5.88V-6.4h-.7v4.68C4.464-.852,3.936-.468,3.192-.468,2.208-.468,1.8-1.08,1.8-2.388V-6.4H1.1V-2.3C1.1-.66,1.7.156,3.036.156ZM8.04,0h.7V-4.788c.744-.768,1.272-1.152,2.016-1.152.984,0,1.4.612,1.4,1.944V0h.7V-4.092c0-1.644-.612-2.472-1.944-2.472a3.146,3.146,0,0,0-2.184,1.14H8.7L8.616-6.4H8.04Zm9.276.156a3.1,3.1,0,0,0,2.04-.828l-.336-.48a2.555,2.555,0,0,1-1.668.708c-1.344,0-2.232-1.116-2.232-2.748s.972-2.76,2.244-2.76a2.1,2.1,0,0,1,1.464.648l.4-.48a2.705,2.705,0,0,0-1.872-.78,3.056,3.056,0,0,0-2.964,3.372C14.388-1.068,15.648.156,17.316.156Z" transform="translate(106.298 -83.513)"/>
    <path id="패스_9495" data-name="패스 9495" class="cls-9" d="M3,.156a3.619,3.619,0,0,0,1.068-.24L3.9-.624a2.237,2.237,0,0,1-.78.18c-.852,0-1.068-.528-1.068-1.332V-5.808H3.888V-6.4H2.052V-8.244H1.464L1.38-6.4l-1.02.06v.528h1v3.984C1.356-.636,1.74.156,3,.156Z" transform="translate(126.826 -83.513)"/>
    <path id="패스_9496" data-name="패스 9496" class="cls-9" d="M1.2,0h.7V-6.4H1.2Zm.36-7.9a.566.566,0,0,0,.588-.552.564.564,0,0,0-.588-.576.557.557,0,0,0-.588.576A.559.559,0,0,0,1.56-7.9ZM6.408.156C7.956.156,9.3-1.068,9.3-3.192S7.956-6.564,6.408-6.564,3.516-5.328,3.516-3.192,4.86.156,6.408.156Zm0-.6c-1.248,0-2.16-1.116-2.16-2.748s.912-2.76,2.16-2.76S8.58-4.824,8.58-3.192,7.656-.444,6.408-.444ZM10.932,0h.7V-4.788c.744-.768,1.272-1.152,2.016-1.152.984,0,1.4.612,1.4,1.944V0h.7V-4.092c0-1.644-.612-2.472-1.944-2.472a3.146,3.146,0,0,0-2.184,1.14h-.024L11.508-6.4h-.576Z" transform="translate(131.122 -83.513)"/>
  </g>
  <g id="그룹-3" data-name="그룹" transform="translate(0 355.5)">
    <path id="패스_10132" data-name="패스 10132" class="cls-9" d="M1.358,0H2.814V-5.1c0-.924-.126-2.254-.2-3.192h.056l.812,2.38L5.292-.994H6.3L8.092-5.908l.826-2.38h.056c-.084.938-.21,2.268-.21,3.192V0h1.512V-10.3H8.4L6.538-5.1C6.3-4.41,6.1-3.71,5.866-3.01H5.8c-.238-.7-.448-1.4-.686-2.086L3.22-10.3H1.358ZM14.42.182A3.828,3.828,0,0,0,16.87-.882h.042l.14.882h1.316V-4.634c0-2.044-.882-3.262-2.8-3.262A5.9,5.9,0,0,0,12.46-6.888l.6,1.092a4.234,4.234,0,0,1,2.226-.784c1.134,0,1.456.784,1.47,1.68-3.206.35-4.606,1.2-4.606,2.856A2.127,2.127,0,0,0,14.42.182Zm.49-1.274c-.686,0-1.2-.308-1.2-1.064,0-.868.77-1.442,3.052-1.722v1.89A2.714,2.714,0,0,1,14.91-1.092ZM22.764.182A4.927,4.927,0,0,0,24.276-.1l-.294-1.19a2.3,2.3,0,0,1-.826.182c-.8,0-1.12-.476-1.12-1.4V-6.412h2V-7.7h-2V-9.828H20.678L20.5-7.7l-1.19.084v1.2h1.12V-2.52C20.426-.9,21.028.182,22.764.182Zm5.684,0a4.671,4.671,0,0,0,2.6-.812l-.56-1.022a3.269,3.269,0,0,1-1.834.574,2.325,2.325,0,0,1-2.38-2.352h5a4.161,4.161,0,0,0,.07-.812c0-2.184-1.092-3.654-3.136-3.654C26.4-7.9,24.7-6.342,24.7-3.836A3.7,3.7,0,0,0,28.448.182ZM26.264-4.536a2.088,2.088,0,0,1,1.974-2.1c1.12,0,1.722.77,1.722,2.1Z" transform="translate(387.97 -71.875)"/>
    <path id="패스_10133" data-name="패스 10133" class="cls-9" d="M1.218,0h1.6V-4.8C3.3-6.02,4.06-6.454,4.69-6.454a2.278,2.278,0,0,1,.77.126l.294-1.4A1.915,1.915,0,0,0,4.886-7.9,2.662,2.662,0,0,0,2.7-6.314H2.66L2.534-7.7H1.218Z" transform="translate(419.357 -71.875)"/>
    <path id="패스_10134" data-name="패스 10134" class="cls-9" d="M1.218,0h1.6V-7.7h-1.6Zm.8-9.142a.966.966,0,0,0,1.036-.952.958.958,0,0,0-1.036-.952.946.946,0,0,0-1.022.952A.954.954,0,0,0,2.016-9.142ZM6.818.182A3.828,3.828,0,0,0,9.268-.882H9.31L9.45,0h1.316V-4.634c0-2.044-.882-3.262-2.8-3.262A5.9,5.9,0,0,0,4.858-6.888L5.46-5.8A4.234,4.234,0,0,1,7.686-6.58c1.134,0,1.456.784,1.47,1.68C5.95-4.55,4.55-3.7,4.55-2.044A2.127,2.127,0,0,0,6.818.182Zm.49-1.274c-.686,0-1.2-.308-1.2-1.064,0-.868.77-1.442,3.052-1.722v1.89A2.714,2.714,0,0,1,7.308-1.092Zm7.1,1.274a2.586,2.586,0,0,0,.868-.126l-.21-1.218a1.118,1.118,0,0,1-.266.028c-.2,0-.392-.154-.392-.588v-9.436h-1.6v9.352C12.81-.56,13.244.182,14.406.182Z" transform="translate(424.931 -71.875)"/>
    <path id="패스_10135" data-name="패스 10135" class="cls-9" d="M3.3.182c1.9,0,2.926-1.05,2.926-2.338,0-1.456-1.19-1.932-2.268-2.338-.84-.308-1.638-.56-1.638-1.218,0-.532.392-.952,1.232-.952a2.882,2.882,0,0,1,1.722.672l.756-.994A4.053,4.053,0,0,0,3.528-7.9C1.834-7.9.8-6.93.8-5.642S1.974-3.794,3-3.4c.84.322,1.708.63,1.708,1.33,0,.588-.434,1.036-1.358,1.036a3.413,3.413,0,0,1-2.184-.882L.406-.882A4.736,4.736,0,0,0,3.3.182Z" transform="translate(440.418 -71.875)"/>
  </g>
  <g id="그룹-4" data-name="그룹" transform="translate(0 355.5)">
    <path id="패스_9473" data-name="패스 9473" class="cls-9" d="M1.272,0h.684V-5.244c0-.876-.06-1.692-.1-2.532h.06L2.9-6.024,6.468,0h.744V-8.748H6.528v5.184c0,.852.048,1.728.1,2.592h-.06L5.592-2.736,2.016-8.748H1.272Zm10.86.156a3.579,3.579,0,0,0,2.04-.624l-.264-.516a2.864,2.864,0,0,1-1.7.552,2.422,2.422,0,0,1-2.34-2.652H14.4a3.319,3.319,0,0,0,.036-.5c0-1.872-.924-2.976-2.472-2.976-1.452,0-2.808,1.3-2.808,3.372A3.03,3.03,0,0,0,12.132.156ZM9.864-3.636a2.278,2.278,0,0,1,2.112-2.328c1.116,0,1.824.78,1.824,2.328ZM17.256,0h.84L19.14-3.828c.2-.624.348-1.224.492-1.86h.06c.18.636.3,1.224.48,1.836L21.252,0h.9l1.8-6.4h-.684L22.176-2.364c-.156.612-.3,1.164-.444,1.74h-.048c-.168-.576-.312-1.128-.468-1.74L20.076-6.4h-.768l-1.14,4.032c-.156.6-.3,1.164-.456,1.74h-.06c-.12-.576-.264-1.128-.408-1.74L16.128-6.4h-.744ZM28.128,0h.7V-4.788A2.7,2.7,0,0,1,30.672-5.94c.948,0,1.38.612,1.38,1.944V0h.7V-4.788A2.7,2.7,0,0,1,34.6-5.94c.936,0,1.38.612,1.38,1.944V0h.7V-4.092c0-1.644-.636-2.472-1.92-2.472a3.2,3.2,0,0,0-2.16,1.3,1.657,1.657,0,0,0-1.764-1.3,2.97,2.97,0,0,0-2.016,1.14h-.024L28.7-6.4h-.576Z" transform="translate(368.913 -45.375)"/>
    <path id="패스_9474" data-name="패스 9474" class="cls-9" d="M2.616.156A3.687,3.687,0,0,0,4.848-.816h.024L4.944,0h.588V-4.056c0-1.416-.54-2.508-2.064-2.508a4.436,4.436,0,0,0-2.424.84l.312.5a3.458,3.458,0,0,1,2.016-.732c1.212,0,1.488.984,1.464,1.932-2.82.324-4.08,1-4.08,2.412A1.688,1.688,0,0,0,2.616.156ZM2.76-.432A1.153,1.153,0,0,1,1.452-1.644c0-.984.864-1.572,3.384-1.86v2.076A3.152,3.152,0,0,1,2.76-.432ZM9.408.156a3.619,3.619,0,0,0,1.068-.24l-.168-.54a2.237,2.237,0,0,1-.78.18c-.852,0-1.068-.528-1.068-1.332V-5.808H10.3V-6.4H8.46V-8.244H7.872L7.788-6.4l-1.02.06v.528h1v3.984C7.764-.636,8.148.156,9.408.156Z" transform="translate(406.696 -45.375)"/>
    <path id="패스_9475" data-name="패스 9475" class="cls-9" d="M3.648.156a3.579,3.579,0,0,0,2.04-.624L5.424-.984a2.864,2.864,0,0,1-1.7.552A2.422,2.422,0,0,1,1.38-3.084H5.916a3.319,3.319,0,0,0,.036-.5c0-1.872-.924-2.976-2.472-2.976-1.452,0-2.808,1.3-2.808,3.372A3.03,3.03,0,0,0,3.648.156ZM1.38-3.636A2.278,2.278,0,0,1,3.492-5.964c1.116,0,1.824.78,1.824,2.328ZM7.656,0h.7V-4.3C8.82-5.484,9.5-5.9,10.068-5.9a1.353,1.353,0,0,1,.588.108L10.8-6.42a1.289,1.289,0,0,0-.648-.144A2.2,2.2,0,0,0,8.34-5.208H8.316L8.232-6.4H7.656Zm4.308,0h.7V-6.4h-.7Zm.36-7.9a.566.566,0,0,0,.588-.552.564.564,0,0,0-.588-.576.557.557,0,0,0-.588.576A.559.559,0,0,0,12.324-7.9Z" transform="translate(418.297 -45.375)"/>
    <path id="패스_9476" data-name="패스 9476" class="cls-9" d="M2.616.156A3.687,3.687,0,0,0,4.848-.816h.024L4.944,0h.588V-4.056c0-1.416-.54-2.508-2.064-2.508a4.436,4.436,0,0,0-2.424.84l.312.5a3.458,3.458,0,0,1,2.016-.732c1.212,0,1.488.984,1.464,1.932-2.82.324-4.08,1-4.08,2.412A1.688,1.688,0,0,0,2.616.156ZM2.76-.432A1.153,1.153,0,0,1,1.452-1.644c0-.984.864-1.572,3.384-1.86v2.076A3.152,3.152,0,0,1,2.76-.432ZM8.616.156A1.41,1.41,0,0,0,9.084.084L8.976-.468a1.073,1.073,0,0,1-.228.024c-.168,0-.288-.132-.288-.432V-9.54h-.7V-.948C7.764-.2,8.04.156,8.616.156Zm3.924,0c1.416,0,2.2-.84,2.2-1.824,0-1.236-1.08-1.584-2.064-1.956-.744-.276-1.488-.54-1.488-1.248,0-.576.432-1.1,1.38-1.1a2.453,2.453,0,0,1,1.524.576l.36-.48a3.089,3.089,0,0,0-1.86-.684c-1.344,0-2.1.792-2.1,1.728,0,1.1,1.056,1.5,2,1.836.744.264,1.548.612,1.548,1.368,0,.66-.492,1.212-1.464,1.212a2.93,2.93,0,0,1-2.016-.8l-.372.5A3.748,3.748,0,0,0,12.54.156ZM21.768-9.48a2.433,2.433,0,0,0-.96-.216c-1.08,0-1.644.684-1.644,1.956V-6.4l-.888.06v.528h.888V0h.7V-5.808h1.452V-6.4H19.86V-7.7c0-.9.3-1.4.984-1.4a1.827,1.827,0,0,1,.756.18Zm3.1,9.636c1.548,0,2.892-1.224,2.892-3.348s-1.344-3.372-2.892-3.372-2.892,1.236-2.892,3.372S23.316.156,24.864.156Zm0-.6c-1.248,0-2.16-1.116-2.16-2.748s.912-2.76,2.16-2.76,2.172,1.128,2.172,2.76S26.112-.444,24.864-.444ZM29.628,0h.7V-4.3C30.792-5.484,31.476-5.9,32.04-5.9a1.353,1.353,0,0,1,.588.108l.144-.624a1.289,1.289,0,0,0-.648-.144,2.2,2.2,0,0,0-1.812,1.356h-.024L30.2-6.4h-.576Z" transform="translate(432.135 -45.375)"/>
    <path id="패스_9477" data-name="패스 9477" class="cls-9" d="M3.648.156a3.579,3.579,0,0,0,2.04-.624L5.424-.984a2.864,2.864,0,0,1-1.7.552A2.422,2.422,0,0,1,1.38-3.084H5.916a3.319,3.319,0,0,0,.036-.5c0-1.872-.924-2.976-2.472-2.976-1.452,0-2.808,1.3-2.808,3.372A3.03,3.03,0,0,0,3.648.156ZM1.38-3.636A2.278,2.278,0,0,1,3.492-5.964c1.116,0,1.824.78,1.824,2.328ZM7.452,0h.7V-4.788C8.892-5.556,9.42-5.94,10.164-5.94c.984,0,1.4.612,1.4,1.944V0h.7V-4.092c0-1.644-.612-2.472-1.944-2.472a3.146,3.146,0,0,0-2.184,1.14H8.112L8.028-6.4H7.452Zm6.912,0h.7V-4.788c.744-.768,1.272-1.152,2.016-1.152.984,0,1.4.612,1.4,1.944V0h.7V-4.092c0-1.644-.612-2.472-1.944-2.472a3.116,3.116,0,0,0-2.184,1.152L15.06-6.8V-9.54h-.7Zm8.28.156a3.687,3.687,0,0,0,2.232-.972H24.9L24.972,0h.588V-4.056c0-1.416-.54-2.508-2.064-2.508a4.436,4.436,0,0,0-2.424.84l.312.5A3.458,3.458,0,0,1,23.4-5.952c1.212,0,1.488.984,1.464,1.932-2.82.324-4.08,1-4.08,2.412A1.688,1.688,0,0,0,22.644.156Zm.144-.588A1.153,1.153,0,0,1,21.48-1.644c0-.984.864-1.572,3.384-1.86v2.076A3.152,3.152,0,0,1,22.788-.432Zm4.8.432h.7V-4.788c.744-.768,1.272-1.152,2.016-1.152.984,0,1.4.612,1.4,1.944V0h.7V-4.092c0-1.644-.612-2.472-1.944-2.472a3.146,3.146,0,0,0-2.184,1.14h-.024L28.164-6.4h-.576ZM36.9.156a3.1,3.1,0,0,0,2.04-.828l-.336-.48a2.555,2.555,0,0,1-1.668.708C35.592-.444,34.7-1.56,34.7-3.192s.972-2.76,2.244-2.76a2.1,2.1,0,0,1,1.464.648l.4-.48a2.705,2.705,0,0,0-1.872-.78,3.056,3.056,0,0,0-2.964,3.372C33.972-1.068,35.232.156,36.9.156Zm5.58,0a3.579,3.579,0,0,0,2.04-.624l-.264-.516a2.864,2.864,0,0,1-1.7.552,2.422,2.422,0,0,1-2.34-2.652h4.536a3.319,3.319,0,0,0,.036-.5c0-1.872-.924-2.976-2.472-2.976-1.452,0-2.808,1.3-2.808,3.372A3.03,3.03,0,0,0,42.48.156ZM40.212-3.636a2.278,2.278,0,0,1,2.112-2.328c1.116,0,1.824.78,1.824,2.328Z" transform="translate(372.134 -28.875)"/>
    <path id="패스_9478" data-name="패스 9478" class="cls-9" d="M3.324.156A2.964,2.964,0,0,0,5.376-.8H5.4l.084.8H6.06V-9.54h-.7v2.6l.048,1.152A2.872,2.872,0,0,0,3.5-6.564C1.992-6.564.672-5.256.672-3.192.672-1.044,1.716.156,3.324.156Zm.12-.612c-1.3,0-2.028-1.08-2.028-2.736,0-1.572.936-2.76,2.16-2.76a2.582,2.582,0,0,1,1.788.792v3.7A2.678,2.678,0,0,1,3.444-.456Z" transform="translate(417.999 -28.875)"/>
    <text id="_2" data-name=" " class="cls-10" transform="translate(426.411 -28.875)"><tspan x="0" y="0"> </tspan></text>
    <path id="패스_9479" data-name="패스 9479" class="cls-9" d="M2.772.156c1.416,0,2.2-.84,2.2-1.824,0-1.236-1.08-1.584-2.064-1.956C2.16-3.9,1.416-4.164,1.416-4.872c0-.576.432-1.1,1.38-1.1A2.453,2.453,0,0,1,4.32-5.4l.36-.48a3.089,3.089,0,0,0-1.86-.684c-1.344,0-2.1.792-2.1,1.728,0,1.1,1.056,1.5,2,1.836.744.264,1.548.612,1.548,1.368,0,.66-.492,1.212-1.464,1.212a2.93,2.93,0,0,1-2.016-.8L.42-.72A3.748,3.748,0,0,0,2.772.156Z" transform="translate(429.841 -28.875)"/>
    <path id="패스_9480" data-name="패스 9480" class="cls-9" d="M2.616.156A3.687,3.687,0,0,0,4.848-.816h.024L4.944,0h.588V-4.056c0-1.416-.54-2.508-2.064-2.508a4.436,4.436,0,0,0-2.424.84l.312.5a3.458,3.458,0,0,1,2.016-.732c1.212,0,1.488.984,1.464,1.932-2.82.324-4.08,1-4.08,2.412A1.688,1.688,0,0,0,2.616.156ZM2.76-.432A1.153,1.153,0,0,1,1.452-1.644c0-.984.864-1.572,3.384-1.86v2.076A3.152,3.152,0,0,1,2.76-.432ZM10.272-9.48a2.433,2.433,0,0,0-.96-.216c-1.08,0-1.644.684-1.644,1.956V-6.4l-.888.06v.528h.888V0h.7V-5.808H9.816V-6.4H8.364V-7.7c0-.9.3-1.4.984-1.4a1.827,1.827,0,0,1,.756.18ZM13.248.156a3.579,3.579,0,0,0,2.04-.624l-.264-.516a2.864,2.864,0,0,1-1.7.552,2.422,2.422,0,0,1-2.34-2.652h4.536a3.319,3.319,0,0,0,.036-.5c0-1.872-.924-2.976-2.472-2.976-1.452,0-2.808,1.3-2.808,3.372A3.03,3.03,0,0,0,13.248.156ZM10.98-3.636a2.278,2.278,0,0,1,2.112-2.328c1.116,0,1.824.78,1.824,2.328ZM18.72.156a3.619,3.619,0,0,0,1.068-.24l-.168-.54a2.237,2.237,0,0,1-.78.18c-.852,0-1.068-.528-1.068-1.332V-5.808h1.836V-6.4H17.772V-8.244h-.588L17.1-6.4l-1.02.06v.528h1v3.984C17.076-.636,17.46.156,18.72.156Z" transform="translate(435.435 -28.875)"/>
    <path id="패스_9481" data-name="패스 9481" class="cls-9" d="M1.02,2.88C2.2,2.88,2.844,1.848,3.228.744l2.5-7.14H5.016L3.708-2.484c-.18.552-.384,1.224-.576,1.8h-.06C2.844-1.26,2.6-1.932,2.4-2.484L.912-6.4H.156L2.772.1,2.6.636c-.312.924-.828,1.62-1.6,1.62a1.646,1.646,0,0,1-.516-.1l-.156.588A1.7,1.7,0,0,0,1.02,2.88Z" transform="translate(455.733 -28.875)"/>
  </g>
  <g id="그룹-5" data-name="그룹" transform="translate(0 355.5)">
    <path id="패스_10136" data-name="패스 10136" class="cls-9" d="M5.376.182A4.069,4.069,0,0,0,8.582-1.3L7.714-2.324A3,3,0,0,1,5.432-1.232c-1.82,0-2.968-1.5-2.968-3.948,0-2.422,1.232-3.906,3.01-3.906a2.741,2.741,0,0,1,2.016.924L8.372-9.2a3.971,3.971,0,0,0-2.926-1.3C2.842-10.5.8-8.484.8-5.124S2.786.182,5.376.182Zm6.608,0a3.828,3.828,0,0,0,2.45-1.064h.042l.14.882h1.316V-4.634c0-2.044-.882-3.262-2.8-3.262a5.9,5.9,0,0,0-3.108,1.008l.6,1.092a4.234,4.234,0,0,1,2.226-.784c1.134,0,1.456.784,1.47,1.68-3.206.35-4.606,1.2-4.606,2.856A2.127,2.127,0,0,0,11.984.182Zm.49-1.274c-.686,0-1.2-.308-1.2-1.064,0-.868.77-1.442,3.052-1.722v1.89A2.714,2.714,0,0,1,12.474-1.092ZM18.116,0h1.6V-4.8c.49-1.218,1.246-1.652,1.876-1.652a2.278,2.278,0,0,1,.77.126l.294-1.4a1.915,1.915,0,0,0-.868-.168A2.662,2.662,0,0,0,19.6-6.314h-.042L19.432-7.7H18.116ZM26.8.182A4.671,4.671,0,0,0,29.4-.63l-.56-1.022a3.269,3.269,0,0,1-1.834.574,2.325,2.325,0,0,1-2.38-2.352h5a4.161,4.161,0,0,0,.07-.812c0-2.184-1.092-3.654-3.136-3.654-1.806,0-3.514,1.554-3.514,4.06A3.7,3.7,0,0,0,26.8.182ZM24.612-4.536a2.088,2.088,0,0,1,1.974-2.1c1.12,0,1.722.77,1.722,2.1ZM37.534.182c2.254,0,3.626-1.344,3.626-3A2.877,2.877,0,0,0,39.06-5.6l-1.414-.6c-.84-.336-1.666-.672-1.666-1.554,0-.826.686-1.33,1.736-1.33a3.282,3.282,0,0,1,2.268.924L40.838-9.2a4.414,4.414,0,0,0-3.122-1.3c-1.96,0-3.388,1.218-3.388,2.842a2.964,2.964,0,0,0,2.1,2.7l1.428.616c.952.42,1.652.714,1.652,1.652,0,.868-.7,1.456-1.946,1.456A4,4,0,0,1,34.818-2.45l-.952,1.12A5.141,5.141,0,0,0,37.534.182Zm8.54,0a4.671,4.671,0,0,0,2.6-.812l-.56-1.022a3.269,3.269,0,0,1-1.834.574A2.325,2.325,0,0,1,43.9-3.43h5a4.161,4.161,0,0,0,.07-.812c0-2.184-1.092-3.654-3.136-3.654-1.806,0-3.514,1.554-3.514,4.06A3.7,3.7,0,0,0,46.074.182ZM43.89-4.536a2.088,2.088,0,0,1,1.974-2.1c1.12,0,1.722.77,1.722,2.1ZM50.68,0h1.6V-4.8c.49-1.218,1.246-1.652,1.876-1.652a2.278,2.278,0,0,1,.77.126l.294-1.4a1.915,1.915,0,0,0-.868-.168,2.662,2.662,0,0,0-2.184,1.582h-.042L52-7.7H50.68Z" transform="translate(663.885 -148.107)"/>
    <path id="패스_10137" data-name="패스 10137" class="cls-9" d="M2.912,0H4.774l2.66-7.7H5.866L4.55-3.556c-.21.756-.448,1.54-.672,2.3H3.822C3.6-2.016,3.36-2.8,3.15-3.556L1.834-7.7H.182ZM8.75,0h1.6V-7.7H8.75Zm.8-9.142a.966.966,0,0,0,1.036-.952.958.958,0,0,0-1.036-.952.946.946,0,0,0-1.022.952A.954.954,0,0,0,9.548-9.142ZM15.806.182A3.752,3.752,0,0,0,18.3-.77L17.64-1.834a2.638,2.638,0,0,1-1.68.7c-1.288,0-2.17-1.078-2.17-2.7s.924-2.73,2.212-2.73a2.017,2.017,0,0,1,1.386.6l.8-1.05A3.306,3.306,0,0,0,15.932-7.9a3.783,3.783,0,0,0-3.808,4.06C12.124-1.288,13.72.182,15.806.182Zm6.846,0a4.671,4.671,0,0,0,2.6-.812L24.7-1.652a3.269,3.269,0,0,1-1.834.574,2.325,2.325,0,0,1-2.38-2.352h5a4.161,4.161,0,0,0,.07-.812c0-2.184-1.092-3.654-3.136-3.654-1.806,0-3.514,1.554-3.514,4.06A3.7,3.7,0,0,0,22.652.182ZM20.468-4.536a2.088,2.088,0,0,1,1.974-2.1c1.12,0,1.722.77,1.722,2.1Z" transform="translate(719.152 -148.107)"/>
  </g>
  <g id="그룹-6" data-name="그룹" transform="translate(0 355.5)">
    <path id="패스_9469" data-name="패스 9469" class="cls-9" d="M3.887.169C5.746.169,6.955-.949,6.955-2.4s-.91-2.041-1.989-2.522L3.549-5.551c-.689-.3-1.612-.7-1.612-1.781,0-.975.806-1.612,2.015-1.612a3.041,3.041,0,0,1,2.236.949L6.63-8.5A3.62,3.62,0,0,0,3.952-9.646,2.526,2.526,0,0,0,1.144-7.267,2.628,2.628,0,0,0,3.068-4.9l1.417.624c.936.416,1.677.78,1.677,1.924,0,1.079-.871,1.82-2.275,1.82A3.649,3.649,0,0,1,1.144-1.794l-.481.546A4.218,4.218,0,0,0,3.887.169Zm6.227,0A3.994,3.994,0,0,0,12.532-.884h.026L12.636,0h.637V-4.394c0-1.534-.585-2.717-2.236-2.717a4.805,4.805,0,0,0-2.626.91l.338.546a3.747,3.747,0,0,1,2.184-.793c1.313,0,1.612,1.066,1.586,2.093C9.464-4,8.1-3.276,8.1-1.742A1.828,1.828,0,0,0,10.114.169Zm.156-.637A1.249,1.249,0,0,1,8.853-1.781c0-1.066.936-1.7,3.666-2.015v2.249A3.415,3.415,0,0,1,10.27-.468Zm8.1-9.8a2.636,2.636,0,0,0-1.04-.234c-1.17,0-1.781.741-1.781,2.119v1.456l-.962.065v.572h.962V0H16.3V-6.292h1.573v-.637H16.3V-8.346c0-.975.325-1.521,1.066-1.521a1.98,1.98,0,0,1,.819.195ZM21.554.169a3.877,3.877,0,0,0,2.21-.676l-.286-.559a3.1,3.1,0,0,1-1.846.6c-1.5,0-2.5-1.183-2.535-2.873h4.914a3.6,3.6,0,0,0,.039-.546c0-2.028-1-3.224-2.678-3.224-1.573,0-3.042,1.4-3.042,3.653C18.33-1.183,19.773.169,21.554.169ZM19.1-3.939a2.468,2.468,0,0,1,2.288-2.522c1.209,0,1.976.845,1.976,2.522ZM27.443.169A3.92,3.92,0,0,0,28.6-.091l-.182-.585a2.424,2.424,0,0,1-.845.195c-.923,0-1.157-.572-1.157-1.443V-6.292h1.989v-.637H26.416v-2h-.637l-.091,2-1.105.065v.572h1.079v4.316C25.662-.689,26.078.169,27.443.169ZM29.614,3.12C30.888,3.12,31.59,2,32.006.806l2.7-7.735h-.767L32.526-2.691c-.195.6-.416,1.326-.624,1.95h-.065c-.247-.624-.507-1.352-.728-1.95L29.5-6.929h-.819L31.512.1,31.33.689c-.338,1-.9,1.755-1.729,1.755a1.783,1.783,0,0,1-.559-.1l-.169.637A1.836,1.836,0,0,0,29.614,3.12ZM40.079.169A3.994,3.994,0,0,0,42.5-.884h.026L42.6,0h.637V-4.394c0-1.534-.585-2.717-2.236-2.717a4.805,4.805,0,0,0-2.626.91l.338.546A3.747,3.747,0,0,1,40.9-6.448c1.313,0,1.612,1.066,1.586,2.093-3.055.351-4.42,1.079-4.42,2.613A1.828,1.828,0,0,0,40.079.169Zm.156-.637a1.249,1.249,0,0,1-1.417-1.313c0-1.066.936-1.7,3.666-2.015v2.249A3.415,3.415,0,0,1,40.235-.468ZM45.4,0h.754V-5.187c.806-.832,1.378-1.248,2.184-1.248,1.066,0,1.521.663,1.521,2.106V0h.754V-4.433c0-1.781-.663-2.678-2.106-2.678a3.408,3.408,0,0,0-2.366,1.235h-.026L46.02-6.929H45.4Zm9.75.169a3.212,3.212,0,0,0,2.223-1.04H57.4L57.486,0h.624V-10.335h-.754v2.821l.052,1.248a3.112,3.112,0,0,0-2.067-.845c-1.638,0-3.068,1.417-3.068,3.653C52.273-1.131,53.4.169,55.146.169Zm.13-.663c-1.4,0-2.2-1.17-2.2-2.964,0-1.7,1.014-2.99,2.34-2.99a2.8,2.8,0,0,1,1.937.858v4A2.9,2.9,0,0,1,55.276-.494ZM63.154,0h.78V-4.693h4.927V0h.767V-9.477h-.767v4.108H63.934V-9.477h-.78Zm8.7,3.12C73.125,3.12,73.827,2,74.243.806l2.7-7.735H76.18L74.763-2.691c-.195.6-.416,1.326-.624,1.95h-.065c-.247-.624-.507-1.352-.728-1.95L71.734-6.929h-.819L73.749.1l-.182.585c-.338,1-.9,1.755-1.729,1.755a1.783,1.783,0,0,1-.559-.1l-.169.637A1.836,1.836,0,0,0,71.851,3.12Zm8.58.182c2.028,0,3.328-1.144,3.328-2.353,0-1.105-.741-1.6-2.314-1.6H79.989c-1,0-1.3-.377-1.3-.871a1.192,1.192,0,0,1,.546-.962,2.343,2.343,0,0,0,1.118.286A2.385,2.385,0,0,0,82.8-4.641a2.21,2.21,0,0,0-.715-1.664h1.56v-.624H81.276a2.464,2.464,0,0,0-.923-.182A2.42,2.42,0,0,0,77.87-4.654a2.509,2.509,0,0,0,.884,1.885v.052a1.723,1.723,0,0,0-.767,1.287,1.243,1.243,0,0,0,.624,1.118v.065A2.106,2.106,0,0,0,77.571,1.4C77.571,2.574,78.7,3.3,80.431,3.3Zm-.078-6.071a1.776,1.776,0,0,1-1.729-1.885A1.72,1.72,0,0,1,80.353-6.5a1.717,1.717,0,0,1,1.716,1.846A1.774,1.774,0,0,1,80.353-2.769Zm.169,5.5c-1.417,0-2.236-.572-2.236-1.417a1.738,1.738,0,0,1,.858-1.391,4.873,4.873,0,0,0,.871.117h1.417c1.027,0,1.573.273,1.573,1.014C83.005,1.885,82.03,2.73,80.522,2.73ZM84.955,0h.754V-6.929h-.754Zm.39-8.554a.614.614,0,0,0,.637-.6.611.611,0,0,0-.637-.624.6.6,0,0,0-.637.624A.606.606,0,0,0,85.345-8.554ZM90.688.169A3.877,3.877,0,0,0,92.9-.507l-.286-.559a3.1,3.1,0,0,1-1.846.6c-1.5,0-2.5-1.183-2.535-2.873h4.914a3.6,3.6,0,0,0,.039-.546c0-2.028-1-3.224-2.678-3.224-1.573,0-3.042,1.4-3.042,3.653C87.464-1.183,88.907.169,90.688.169ZM88.231-3.939a2.468,2.468,0,0,1,2.288-2.522c1.209,0,1.976.845,1.976,2.522ZM94.77,0h.754V-5.187c.806-.832,1.378-1.248,2.184-1.248,1.066,0,1.521.663,1.521,2.106V0h.754V-4.433c0-1.781-.663-2.678-2.106-2.678a3.408,3.408,0,0,0-2.366,1.235h-.026l-.091-1.053H94.77Zm10.1.169a3.877,3.877,0,0,0,2.21-.676l-.286-.559a3.1,3.1,0,0,1-1.846.6c-1.5,0-2.5-1.183-2.535-2.873h4.914a3.6,3.6,0,0,0,.039-.546c0-2.028-1-3.224-2.678-3.224-1.573,0-3.042,1.4-3.042,3.653C101.647-1.183,103.09.169,104.871.169Zm-2.457-4.108A2.468,2.468,0,0,1,104.7-6.461c1.209,0,1.976.845,1.976,2.522Z" transform="translate(647.452 -121.107)"/>
    <text id="_3" data-name=" " class="cls-11" transform="translate(761.033 -121.107)"><tspan x="0" y="0"> </tspan></text>
    <path id="패스_9472" data-name="패스 9472" class="cls-9" d="M3.9.169a3.353,3.353,0,0,0,2.21-.9l-.364-.52a2.768,2.768,0,0,1-1.807.767c-1.456,0-2.418-1.209-2.418-2.977s1.053-2.99,2.431-2.99a2.275,2.275,0,0,1,1.586.7l.429-.52a2.931,2.931,0,0,0-2.028-.845C2.223-7.111.728-5.772.728-3.458S2.093.169,3.9.169Zm5.018,0A3.994,3.994,0,0,0,11.336-.884h.026L11.44,0h.637V-4.394c0-1.534-.585-2.717-2.236-2.717a4.805,4.805,0,0,0-2.626.91l.338.546a3.747,3.747,0,0,1,2.184-.793c1.313,0,1.612,1.066,1.586,2.093C8.268-4,6.9-3.276,6.9-1.742A1.828,1.828,0,0,0,8.918.169Zm.156-.637A1.249,1.249,0,0,1,7.657-1.781c0-1.066.936-1.7,3.666-2.015v2.249A3.415,3.415,0,0,1,9.074-.468ZM14.235,0h.754V-4.654C15.5-5.941,16.237-6.4,16.848-6.4a1.465,1.465,0,0,1,.637.117l.156-.676a1.4,1.4,0,0,0-.7-.156,2.384,2.384,0,0,0-1.963,1.469H14.95l-.091-1.287h-.624Zm6.916.169a3.877,3.877,0,0,0,2.21-.676l-.286-.559a3.1,3.1,0,0,1-1.846.6c-1.5,0-2.5-1.183-2.535-2.873h4.914a3.6,3.6,0,0,0,.039-.546c0-2.028-1-3.224-2.678-3.224-1.573,0-3.042,1.4-3.042,3.653C17.927-1.183,19.37.169,21.151.169ZM18.694-3.939a2.468,2.468,0,0,1,2.288-2.522c1.209,0,1.976.845,1.976,2.522ZM29.562.169c1.534,0,2.379-.91,2.379-1.976,0-1.339-1.17-1.716-2.236-2.119-.806-.3-1.612-.585-1.612-1.352,0-.624.468-1.2,1.495-1.2a2.657,2.657,0,0,1,1.651.624l.39-.52a3.347,3.347,0,0,0-2.015-.741c-1.456,0-2.275.858-2.275,1.872,0,1.2,1.144,1.625,2.171,1.989.806.286,1.677.663,1.677,1.482,0,.715-.533,1.313-1.586,1.313a3.174,3.174,0,0,1-2.184-.871l-.4.546A4.06,4.06,0,0,0,29.562.169Zm6.565,0a3.877,3.877,0,0,0,2.21-.676l-.286-.559a3.1,3.1,0,0,1-1.846.6c-1.495,0-2.5-1.183-2.535-2.873h4.914a3.6,3.6,0,0,0,.039-.546c0-2.028-1-3.224-2.678-3.224-1.573,0-3.042,1.4-3.042,3.653C32.9-1.183,34.346.169,36.127.169ZM33.67-3.939a2.468,2.468,0,0,1,2.288-2.522c1.209,0,1.976.845,1.976,2.522ZM40.209,0h.754V-4.654C41.47-5.941,42.211-6.4,42.822-6.4a1.465,1.465,0,0,1,.637.117l.156-.676a1.4,1.4,0,0,0-.7-.156A2.384,2.384,0,0,0,40.95-5.642h-.026l-.091-1.287h-.624Z" transform="translate(669.617 -104.103)"/>
    <path id="패스_9470" data-name="패스 9470" class="cls-9" d="M2.743,0h.9L6.188-6.929H5.421L3.913-2.678c-.221.676-.468,1.378-.689,2H3.172C2.938-1.3,2.7-2,2.483-2.678L.988-6.929H.169ZM7.4,0h.754V-6.929H7.4Zm.39-8.554a.614.614,0,0,0,.637-.6.611.611,0,0,0-.637-.624.6.6,0,0,0-.637.624A.606.606,0,0,0,7.787-8.554ZM13.078.169a3.353,3.353,0,0,0,2.21-.9l-.364-.52a2.768,2.768,0,0,1-1.807.767C11.661-.481,10.7-1.69,10.7-3.458s1.053-2.99,2.431-2.99a2.275,2.275,0,0,1,1.586.7l.429-.52a2.931,2.931,0,0,0-2.028-.845c-1.716,0-3.211,1.339-3.211,3.653S11.271.169,13.078.169Z" transform="translate(714.793 -104.103)"/>
    <path id="패스_9471" data-name="패스 9471" class="cls-9" d="M3.952.169a3.877,3.877,0,0,0,2.21-.676l-.286-.559a3.1,3.1,0,0,1-1.846.6c-1.5,0-2.5-1.183-2.535-2.873H6.409a3.6,3.6,0,0,0,.039-.546c0-2.028-1-3.224-2.678-3.224C2.2-7.111.728-5.707.728-3.458.728-1.183,2.171.169,3.952.169ZM1.5-3.939A2.468,2.468,0,0,1,3.783-6.461c1.209,0,1.976.845,1.976,2.522Z" transform="translate(730.666 -104.103)"/>
  </g>
  <g id="그룹_8562" data-name="그룹 8562" transform="translate(251.398 149.677)">
    <path id="패스_9368" data-name="패스 9368" class="cls-12" d="M0,0-53.585,35.3"/>
  </g>
  <g id="그룹_8564" data-name="그룹 8564" class="cls-6" transform="translate(0 355.5)">
    <g id="그룹_8563" data-name="그룹 8563" transform="translate(197.882 -168.524)">
      <path id="패스_9369" data-name="패스 9369" class="cls-4" d="M0,0A2,2,0,0,0,1.929-2.067,2,2,0,0,0-.14-4,2,2,0,0,0-2.069-1.929,2,2,0,0,0,0,0"/>
    </g>
  </g>
  <g id="그룹_8565" data-name="그룹 8565" transform="translate(416.676 235.39)">
    <path id="패스_9371" data-name="패스 9371" class="cls-12" d="M0,0V20"/>
  </g>
  <g id="그룹_8567" data-name="그룹 8567" class="cls-6" transform="translate(0 355.5)">
    <g id="그룹_8566" data-name="그룹 8566" transform="translate(416.676 -98.11)">
      <path id="패스_9372" data-name="패스 9372" class="cls-4" d="M0,0A2,2,0,0,0,2-2,2,2,0,0,0,0-4,2,2,0,0,0-2-2,2,2,0,0,0,0,0"/>
    </g>
  </g>
  <g id="그룹_8568" data-name="그룹 8568" transform="translate(577.53 142.943)">
    <path id="패스_9374" data-name="패스 9374" class="cls-12" d="M0,0,53.585,35.3"/>
  </g>
  <g id="그룹_8570" data-name="그룹 8570" class="cls-6" transform="translate(0 355.5)">
    <g id="그룹_8569" data-name="그룹 8569" transform="translate(631.046 -175.258)">
      <path id="패스_9375" data-name="패스 9375" class="cls-4" d="M0,0A2,2,0,0,1-1.929-2.067,2,2,0,0,1,.14-4,2,2,0,0,1,2.069-1.929,2,2,0,0,1,0,0"/>
    </g>
  </g>
  <g id="그룹_8571" data-name="그룹 8571" transform="translate(195.564 190.138)">
    <path id="패스_9377" data-name="패스 9377" class="cls-12" d="M0,0V91"/>
  </g>
  <g id="그룹_8572" data-name="그룹 8572" transform="translate(500.75 262.583)">
    <path id="패스_9378" data-name="패스 9378" class="cls-12" d="M0,0H-166.549"/>
  </g>
  <g id="그룹_8573" data-name="그룹 8573" transform="translate(637.364 261.344)">
    <path id="패스_9379" data-name="패스 9379" class="cls-12" d="M0,0V-77.1"/>
  </g>
  <g id="그룹_8576" data-name="그룹 8576" class="cls-6" transform="translate(0 355.5)">
    <g id="그룹_8574" data-name="그룹 8574" transform="translate(395.616 -278.341)">
      <path id="패스_9380" data-name="패스 9380" class="cls-13" d="M0,0-2.467-2.438V-20.977L0-23.415"/>
    </g>
    <g id="그룹_8575" data-name="그룹 8575" transform="translate(395.616 -278.341)">
      <path id="패스_9381" data-name="패스 9381" class="cls-14" d="M0,0-2.467-2.438V-20.977L0-23.415"/>
    </g>
  </g>
  <path id="패스_9383" data-name="패스 9383" class="cls-13" d="M392.545-276.347h31.473V-322.27H392.545Z" transform="translate(0 355.5)"/>
  <path id="패스_9384" data-name="패스 9384" class="cls-14" d="M392.545-276.347h31.473V-322.27H392.545Z" transform="translate(0 355.5)"/>
  <g id="그룹_8577" data-name="그룹 8577" transform="translate(419.911 63.257)">
    <path id="패스_9385" data-name="패스 9385" class="cls-13" d="M0,0V-18.723H-23.26V0"/>
  </g>
  <g id="그룹_8578" data-name="그룹 8578" transform="translate(419.911 63.257)">
    <path id="패스_9386" data-name="패스 9386" class="cls-14" d="M0,0V-18.723H-23.26V0"/>
  </g>
  <g id="그룹_8579" data-name="그룹 8579" transform="translate(392.28 63.778)">
    <path id="패스_9387" data-name="패스 9387" class="cls-14" d="M0,0H32"/>
  </g>
  <g id="그룹_8580" data-name="그룹 8580" transform="translate(402.857 45.362)">
    <path id="패스_9388" data-name="패스 9388" class="cls-14" d="M0,0V7.451"/>
  </g>
  <g id="그룹_8581" data-name="그룹 8581" transform="translate(412.705 45.362)">
    <path id="패스_9389" data-name="패스 9389" class="cls-14" d="M0,0V7.451"/>
  </g>
  <g id="그룹_8583" data-name="그룹 8583" class="cls-6" transform="translate(0 355.5)">
    <g id="그룹_8582" data-name="그룹 8582" transform="translate(393.552 -281.617)">
      <path id="패스_9390" data-name="패스 9390" class="cls-15" d="M0,0-2.467-2.438V-20.977L0-23.415"/>
    </g>
  </g>
  <path id="패스_9392" data-name="패스 9392" class="cls-15" d="M390.481-279.623h31.473v-45.923H390.481Z" transform="translate(0 355.5)"/>
  <g id="그룹_8584" data-name="그룹 8584" transform="translate(417.847 59.98)">
    <path id="패스_9393" data-name="패스 9393" class="cls-15" d="M0,0V-18.723H-23.26V0"/>
  </g>
  <g id="그룹_8585" data-name="그룹 8585" transform="translate(390.216 60.502)">
    <path id="패스_9394" data-name="패스 9394" class="cls-14" d="M0,0H32"/>
  </g>
  <g id="그룹_8586" data-name="그룹 8586" transform="translate(400.793 42.086)">
    <path id="패스_9395" data-name="패스 9395" class="cls-14" d="M0,0V7.451"/>
  </g>
  <g id="그룹_8587" data-name="그룹 8587" transform="translate(410.641 42.086)">
    <path id="패스_9396" data-name="패스 9396" class="cls-14" d="M0,0V7.451"/>
  </g>
  <g id="그룹_8590" data-name="그룹 8590" class="cls-6" transform="translate(0 355.5)">
    <g id="그룹_8588" data-name="그룹 8588" transform="translate(442.871 -282.197)">
      <path id="패스_9397" data-name="패스 9397" class="cls-13" d="M0,0V-19.093l-13.118-3.65-13.118,3.65V0l13.118,11.387L0,0"/>
    </g>
    <g id="그룹_8589" data-name="그룹 8589" transform="translate(442.871 -282.197)">
      <path id="패스_9398" data-name="패스 9398" class="cls-16" d="M0,0V-19.093l-13.118-3.65-13.118,3.65V0l13.118,11.387Z"/>
    </g>
  </g>
  <g id="그룹_8591" data-name="그룹 8591" transform="translate(435.377 64.691)">
    <path id="패스_9400" data-name="패스 9400" class="cls-13" d="M0,0H-4.078V-4.078H-7.169V0h-4.079V3.091h4.079V7.169h3.091V3.091H0Z"/>
  </g>
  <g id="그룹_8592" data-name="그룹 8592" transform="translate(435.377 64.691)">
    <path id="패스_9401" data-name="패스 9401" class="cls-16" d="M0,0H-4.078V-4.078H-7.169V0h-4.079V3.091h4.079V7.169h3.091V3.091H0Z"/>
  </g>
  <g id="그룹_8594" data-name="그룹 8594" transform="translate(429.238 52.485)">
    <path id="패스_9403" data-name="패스 9403" class="cls-13" d="M0,0-10.166,2.876l-.364.1V18.494"/>
  </g>
  <g id="그룹_8595" data-name="그룹 8595" transform="translate(429.238 52.485)">
    <path id="패스_9404" data-name="패스 9404" class="cls-16" d="M0,0-10.166,2.876l-.364.1V18.494"/>
  </g>
  <g id="그룹_8598" data-name="그룹 8598" class="cls-6" transform="translate(0 355.5)">
    <g id="그룹_8596" data-name="그룹 8596" transform="translate(441.851 -285.582)">
      <path id="패스_9405" data-name="패스 9405" class="cls-17" d="M0,0V-19.093l-13.118-3.65-13.118,3.65V0l13.118,11.387L0,0"/>
    </g>
    <g id="그룹_8597" data-name="그룹 8597" transform="translate(441.851 -285.582)">
      <path id="패스_9406" data-name="패스 9406" class="cls-14" d="M0,0V-19.093l-13.118-3.65-13.118,3.65V0l13.118,11.387Z"/>
    </g>
  </g>
  <g id="그룹_8599" data-name="그룹 8599" transform="translate(434.356 61.306)">
    <path id="패스_9408" data-name="패스 9408" class="cls-13" d="M0,0H-4.078V-4.078H-7.169V0h-4.079V3.091h4.079V7.169h3.091V3.091H0Z"/>
  </g>
  <g id="그룹_8600" data-name="그룹 8600" transform="translate(434.356 61.306)">
    <path id="패스_9409" data-name="패스 9409" class="cls-14" d="M0,0H-4.078V-4.078H-7.169V0h-4.079V3.091h4.079V7.169h3.091V3.091H0Z"/>
  </g>
  <g id="그룹_8602" data-name="그룹 8602" transform="translate(428.218 49.1)">
    <path id="패스_9411" data-name="패스 9411" class="cls-15" d="M0,0-10.166,2.876l-.364.1V18.494"/>
  </g>
  <g id="그룹_8613" data-name="그룹 8613" class="cls-6" transform="translate(0 355.5)">
    <g id="그룹_8603" data-name="그룹 8603" transform="translate(544.106 -224.481)">
      <path id="패스_9412" data-name="패스 9412" class="cls-13" d="M0,0,7.017-7.017,10.65-8.174q1.493-3.282,2.984-6.565l-.771-.772q-.387-.385-.772-.772L5.529-13.3,4.494-9.874-2.65-2.65Z"/>
    </g>
    <g id="그룹_8604" data-name="그룹 8604" transform="translate(544.106 -224.481)">
      <path id="패스_9413" data-name="패스 9413" class="cls-14" d="M0,0,7.017-7.017,10.65-8.174q1.493-3.282,2.984-6.565l-.771-.772q-.387-.385-.772-.772L5.529-13.3,4.494-9.874-2.65-2.65Z"/>
    </g>
    <g id="그룹_8605" data-name="그룹 8605" transform="translate(549.544 -198.736)">
      <path id="패스_9414" data-name="패스 9414" class="cls-18" d="M0,0A27.75,27.75,0,0,0,27.75-27.75,27.75,27.75,0,0,0,0-55.5,27.75,27.75,0,0,0-27.75-27.75,27.75,27.75,0,0,0,0,0"/>
    </g>
    <g id="그룹_8606" data-name="그룹 8606" transform="translate(551.819 -226.481)">
      <path id="패스_9415" data-name="패스 9415" class="cls-17" d="M0,0,7.017-7.017,10.65-8.174q1.493-3.282,2.984-6.565l-.771-.772q-.387-.385-.772-.772L5.529-13.3,4.494-9.874-2.65-2.65Z"/>
    </g>
    <g id="그룹_8607" data-name="그룹 8607" transform="translate(551.819 -226.481)">
      <path id="패스_9416" data-name="패스 9416" class="cls-14" d="M0,0,7.017-7.017,10.65-8.174q1.493-3.282,2.984-6.565l-.771-.772q-.387-.385-.772-.772L5.529-13.3,4.494-9.874-2.65-2.65Z"/>
    </g>
    <g id="그룹_8608" data-name="그룹 8608" transform="translate(548.908 -223.71)">
      <path id="패스_9417" data-name="패스 9417" class="cls-13" d="M0,0-2.1-2.1l-.353-.353L-2.81-2.1-5.385.473-6.857.607l-.18.016-.128.128-4.806,4.806-2.388,2.388-.3.3.248.345,2.359,3.274,3.387,2.471.345.249.3-.3L-5.632,11.9-.826,7.09-.7,6.962l.016-.18q.067-.737.134-1.472L2.027,2.735l.354-.354-.354-.354-2.1-2.1"/>
    </g>
    <g id="그룹_8609" data-name="그룹 8609" transform="translate(548.908 -223.71)">
      <path id="패스_9418" data-name="패스 9418" class="cls-14" d="M0,0-2.1-2.1l-.353-.353L-2.81-2.1-5.385.473-6.857.607l-.18.016-.128.128-4.806,4.806-2.388,2.388-.3.3.248.345,2.359,3.274,3.387,2.471.345.249.3-.3L-5.632,11.9-.826,7.09-.7,6.962l.016-.18q.067-.737.134-1.472L2.027,2.735l.354-.354-.354-.354-2.1-2.1"/>
    </g>
    <g id="그룹_8610" data-name="그룹 8610" transform="translate(551.268 -226.591)">
      <path id="패스_9419" data-name="패스 9419" class="cls-13" d="M0,0,3.778,3.778c.86.86,2.142.885,3.5.912,1.717.033,3.664.071,5.322,1.73a5.9,5.9,0,0,1,1.815,5.293L10.925,8.224l-.191-.192-.265.056-3.63.764L6.52,8.92l-.068.319-.764,3.63-.056.265.192.191,3.489,3.489A5.9,5.9,0,0,1,4.02,15c-1.659-1.658-1.7-3.6-1.73-5.322-.027-1.357-.052-2.639-.912-3.5L-2.339,2.461-6.055-1.255c-.861-.861-2.143-.886-3.5-.912-1.717-.034-3.663-.072-5.322-1.73A5.9,5.9,0,0,1-16.692-9.19L-13.2-5.7l.192.191.265-.056,3.63-.764L-8.8-6.4l.067-.319.764-3.63.056-.265L-8.1-10.8l-3.489-3.489A5.9,5.9,0,0,1-6.3-12.477c1.658,1.659,1.7,3.605,1.73,5.322.026,1.357.051,2.639.912,3.5L.123.123"/>
    </g>
    <g id="그룹_8611" data-name="그룹 8611" transform="translate(551.268 -226.591)">
      <path id="패스_9420" data-name="패스 9420" class="cls-14" d="M0,0,3.778,3.778c.86.86,2.142.885,3.5.912,1.717.033,3.664.071,5.322,1.73a5.9,5.9,0,0,1,1.815,5.293L10.925,8.224l-.191-.192-.265.056-3.63.764L6.52,8.92l-.068.319-.764,3.63-.056.265.192.191,3.489,3.489A5.9,5.9,0,0,1,4.02,15c-1.659-1.658-1.7-3.6-1.73-5.322-.027-1.357-.052-2.639-.912-3.5L-2.339,2.461-6.055-1.255c-.861-.861-2.143-.886-3.5-.912-1.717-.034-3.663-.072-5.322-1.73A5.9,5.9,0,0,1-16.692-9.19L-13.2-5.7l.192.191.265-.056,3.63-.764L-8.8-6.4l.067-.319.764-3.63.056-.265L-8.1-10.8l-3.489-3.489A5.9,5.9,0,0,1-6.3-12.477c1.658,1.659,1.7,3.605,1.73,5.322.026,1.357.051,2.639.912,3.5L.123.123"/>
    </g>
    <g id="그룹_8612" data-name="그룹 8612" transform="translate(550.012 -227.905)">
      <path id="패스_9421" data-name="패스 9421" class="cls-15" d="M0,0,3.778,3.778c.86.86,2.142.885,3.5.912,1.717.033,3.664.071,5.322,1.73a5.9,5.9,0,0,1,1.815,5.293L10.925,8.224l-.191-.192-.265.056-3.63.764L6.52,8.92l-.068.319-.764,3.63-.056.265.192.191,3.489,3.489A5.9,5.9,0,0,1,4.02,15c-1.659-1.658-1.7-3.6-1.73-5.322-.027-1.357-.052-2.639-.912-3.5L-2.339,2.461-6.055-1.255c-.861-.861-2.143-.886-3.5-.912-1.717-.034-3.663-.072-5.322-1.73A5.9,5.9,0,0,1-16.692-9.19L-13.2-5.7l.192.191.265-.056,3.63-.764L-8.8-6.4l.067-.319.764-3.63.056-.265L-8.1-10.8l-3.489-3.489A5.9,5.9,0,0,1-6.3-12.477c1.658,1.659,1.7,3.605,1.73,5.322.026,1.357.051,2.639.912,3.5L.123.123"/>
    </g>
  </g>
  <g id="그룹_8614" data-name="그룹 8614" transform="translate(547.978 131.994)">
    <path id="패스_9423" data-name="패스 9423" class="cls-14" d="M0,0-8.9,8.9"/>
  </g>
  <g id="그룹_8616" data-name="그룹 8616" class="cls-6" transform="translate(0 355.5)">
    <g id="그룹_8615" data-name="그룹 8615" transform="translate(547.652 -225.024)">
      <path id="패스_9424" data-name="패스 9424" class="cls-15" d="M0,0-2.1-2.1l-.353-.353L-2.81-2.1-5.385.473-6.857.607l-.18.016-.128.128-4.806,4.806-2.388,2.388-.3.3.248.345,2.359,3.274,3.387,2.471.345.249.3-.3L-5.632,11.9-.826,7.09-.7,6.962l.016-.18q.067-.737.134-1.472L2.027,2.735l.354-.354-.354-.354-2.1-2.1"/>
    </g>
  </g>
  <g id="그룹_8617" data-name="그룹 8617" transform="translate(545.722 131.68)">
    <path id="패스_9426" data-name="패스 9426" class="cls-14" d="M0,0-8.9,8.9"/>
  </g>
  <g id="그룹_8627" data-name="그룹 8627" class="cls-6" transform="translate(0 355.5)">
    <g id="그룹_8618" data-name="그룹 8618" transform="translate(414.313 -130.28)">
      <path id="패스_9427" data-name="패스 9427" class="cls-19" d="M0,0A27.75,27.75,0,0,0,27.75-27.75,27.75,27.75,0,0,0,0-55.5,27.75,27.75,0,0,0-27.75-27.75,27.75,27.75,0,0,0,0,0"/>
    </g>
    <g id="그룹_8619" data-name="그룹 8619" transform="translate(404.332 -172.476)">
      <path id="패스_9428" data-name="패스 9428" class="cls-13" d="M0,0,0,21.127v.894c0,.831,2,2.063,4.461,2.063s4.46-1.232,4.46-2.063V0"/>
    </g>
    <g id="그룹_8620" data-name="그룹 8620" transform="translate(404.332 -172.476)">
      <path id="패스_9429" data-name="패스 9429" class="cls-20" d="M0,0,0,21.127v.894c0,.831,2,2.063,4.461,2.063s4.46-1.232,4.46-2.063V0"/>
    </g>
    <g id="그룹_8621" data-name="그룹 8621" transform="translate(413.25 -170.66)">
      <path id="패스_9430" data-name="패스 9430" class="cls-13" d="M0,0C0-.655-2-1.187-4.461-1.187S-8.922-.655-8.922,0s2,1.187,4.461,1.187S0,.655,0,0"/>
    </g>
    <g id="그룹_8622" data-name="그룹 8622" transform="translate(413.25 -170.66)">
      <path id="패스_9431" data-name="패스 9431" class="cls-20" d="M0,0C0-.655-2-1.187-4.461-1.187S-8.922-.655-8.922,0s2,1.187,4.461,1.187S0,.655,0,0Z"/>
    </g>
    <g id="그룹_8623" data-name="그룹 8623" transform="translate(411.405 -166.934)">
      <path id="패스_9432" data-name="패스 9432" class="cls-13" d="M0,0,0,23l0,.973c0,.9,3.4,2.246,7.6,2.246s7.6-1.342,7.6-2.246V0"/>
    </g>
    <g id="그룹_8624" data-name="그룹 8624" transform="translate(411.405 -166.934)">
      <path id="패스_9433" data-name="패스 9433" class="cls-20" d="M0,0,0,23l0,.973c0,.9,3.4,2.246,7.6,2.246s7.6-1.342,7.6-2.246V0"/>
    </g>
    <g id="그룹_8625" data-name="그룹 8625" transform="translate(426.593 -167.134)">
      <path id="패스_9434" data-name="패스 9434" class="cls-13" d="M0,0C0-.735-3.4-1.331-7.6-1.331s-7.6.6-7.6,1.331,3.4,1.331,7.6,1.331S0,.735,0,0"/>
    </g>
    <g id="그룹_8626" data-name="그룹 8626" transform="translate(426.593 -167.134)">
      <path id="패스_9435" data-name="패스 9435" class="cls-20" d="M0,0C0-.735-3.4-1.331-7.6-1.331s-7.6.6-7.6,1.331,3.4,1.331,7.6,1.331S0,.735,0,0Z"/>
    </g>
  </g>
  <g id="그룹_8628" data-name="그룹 8628" transform="translate(424.757 191.587)">
    <path id="패스_9437" data-name="패스 9437" class="cls-20" d="M0,0V9.081"/>
  </g>
  <g id="그룹_8629" data-name="그룹 8629" transform="translate(415.574 191.587)">
    <path id="패스_9438" data-name="패스 9438" class="cls-20" d="M0,0V4.821"/>
  </g>
  <g id="그룹_8630" data-name="그룹 8630" transform="translate(415.574 198.313)">
    <path id="패스_9439" data-name="패스 9439" class="cls-20" d="M0,0V3.139"/>
  </g>
  <g id="그룹_8631" data-name="그룹 8631" transform="translate(420.14 191.587)">
    <path id="패스_9440" data-name="패스 9440" class="cls-20" d="M0,0V18.946"/>
  </g>
  <g id="그룹_8632" data-name="그룹 8632" transform="translate(424.757 202.91)">
    <path id="패스_9441" data-name="패스 9441" class="cls-20" d="M0,0V4.709"/>
  </g>
  <g id="그룹_8641" data-name="그룹 8641" class="cls-6" transform="translate(0 355.5)">
    <g id="그룹_8633" data-name="그룹 8633" transform="translate(402.651 -172.718)">
      <path id="패스_9442" data-name="패스 9442" class="cls-17" d="M0,0,0,21.127l0,.894c0,.831,2.384,2.062,5.325,2.062s5.325-1.231,5.325-2.062V0"/>
    </g>
    <g id="그룹_8634" data-name="그룹 8634" transform="translate(402.651 -172.718)">
      <path id="패스_9443" data-name="패스 9443" class="cls-20" d="M0,0,0,21.127l0,.894c0,.831,2.384,2.062,5.325,2.062s5.325-1.231,5.325-2.062V0"/>
    </g>
    <g id="그룹_8635" data-name="그룹 8635" transform="translate(413.297 -172.902)">
      <path id="패스_9444" data-name="패스 9444" class="cls-17" d="M0,0C0-.655-2.384-1.187-5.325-1.187S-10.65-.655-10.65,0s2.384,1.187,5.325,1.187S0,.655,0,0"/>
    </g>
    <g id="그룹_8636" data-name="그룹 8636" transform="translate(413.297 -172.902)">
      <path id="패스_9445" data-name="패스 9445" class="cls-20" d="M0,0C0-.655-2.384-1.187-5.325-1.187S-10.65-.655-10.65,0s2.384,1.187,5.325,1.187S0,.655,0,0Z"/>
    </g>
    <g id="그룹_8637" data-name="그룹 8637" transform="translate(410.724 -167.176)">
      <path id="패스_9446" data-name="패스 9446" class="cls-17" d="M0,0,0,23l0,.973c0,.9,3.4,2.246,7.6,2.246s7.6-1.342,7.6-2.246V0"/>
    </g>
    <g id="그룹_8638" data-name="그룹 8638" transform="translate(410.724 -167.176)">
      <path id="패스_9447" data-name="패스 9447" class="cls-20" d="M0,0,0,23l0,.973c0,.9,3.4,2.246,7.6,2.246s7.6-1.342,7.6-2.246V0"/>
    </g>
    <g id="그룹_8639" data-name="그룹 8639" transform="translate(425.912 -167.376)">
      <path id="패스_9448" data-name="패스 9448" class="cls-17" d="M0,0C0-.735-3.4-1.331-7.6-1.331s-7.6.6-7.6,1.331,3.4,1.331,7.6,1.331S0,.735,0,0"/>
    </g>
    <g id="그룹_8640" data-name="그룹 8640" transform="translate(425.912 -167.376)">
      <path id="패스_9449" data-name="패스 9449" class="cls-20" d="M0,0C0-.735-3.4-1.331-7.6-1.331s-7.6.6-7.6,1.331,3.4,1.331,7.6,1.331S0,.735,0,0Z"/>
    </g>
  </g>
  <g id="그룹_8642" data-name="그룹 8642" transform="translate(423.076 189.345)">
    <path id="패스_9451" data-name="패스 9451" class="cls-20" d="M0,0V9.081"/>
  </g>
  <g id="그룹_8643" data-name="그룹 8643" transform="translate(413.893 189.345)">
    <path id="패스_9452" data-name="패스 9452" class="cls-20" d="M0,0V4.821"/>
  </g>
  <g id="그룹_8644" data-name="그룹 8644" transform="translate(413.893 196.071)">
    <path id="패스_9453" data-name="패스 9453" class="cls-20" d="M0,0V3.139"/>
  </g>
  <g id="그룹_8645" data-name="그룹 8645" transform="translate(418.458 189.345)">
    <path id="패스_9454" data-name="패스 9454" class="cls-20" d="M0,0V18.946"/>
  </g>
  <g id="그룹_8646" data-name="그룹 8646" transform="translate(423.076 200.667)">
    <path id="패스_9455" data-name="패스 9455" class="cls-20" d="M0,0V4.708"/>
  </g>
  <g id="그룹_8654" data-name="그룹 8654" class="cls-6" transform="translate(0 355.5)">
    <g id="그룹_8647" data-name="그룹 8647" transform="translate(279.286 -201.862)">
      <path id="패스_9456" data-name="패스 9456" class="cls-21" d="M0,0A27.75,27.75,0,0,0,27.75-27.75,27.75,27.75,0,0,0,0-55.5,27.75,27.75,0,0,0-27.75-27.75,27.75,27.75,0,0,0,0,0"/>
    </g>
    <g id="그룹_8648" data-name="그룹 8648" transform="translate(293.896 -220.929)">
      <path id="패스_9457" data-name="패스 9457" class="cls-9" d="M0,0V-16.5l-14.293-8.251L-28.585-16.5V0l14.292,8.252L0,0"/>
    </g>
    <g id="그룹_8649" data-name="그룹 8649" transform="translate(293.896 -220.929)">
      <path id="패스_9458" data-name="패스 9458" class="cls-16" d="M0,0V-16.5l-14.293-8.251L-28.585-16.5V0l14.292,8.252Z"/>
    </g>
    <g id="그룹_8650" data-name="그룹 8650" transform="translate(293.26 -221.792)">
      <path id="패스_9459" data-name="패스 9459" class="cls-17" d="M0,0V-16.5l-14.292-8.251L-28.585-16.5V0l14.293,8.252L0,0"/>
    </g>
    <g id="그룹_8651" data-name="그룹 8651" transform="translate(293.26 -221.792)">
      <path id="패스_9460" data-name="패스 9460" class="cls-14" d="M0,0V-16.5l-14.292-8.251L-28.585-16.5V0l14.293,8.252Z"/>
    </g>
    <g id="그룹_8652" data-name="그룹 8652" transform="translate(287.453 -225.145)">
      <path id="패스_9461" data-name="패스 9461" class="cls-17" d="M0,0V-9.8l-8.486-4.9-8.486,4.9V0l8.486,4.9L0,0"/>
    </g>
    <g id="그룹_8653" data-name="그룹 8653" transform="translate(287.453 -225.145)">
      <path id="패스_9462" data-name="패스 9462" class="cls-14" d="M0,0V-9.8l-8.486-4.9-8.486,4.9V0l8.486,4.9Z"/>
    </g>
  </g>
  <g id="그룹_8655" data-name="그룹 8655" transform="translate(264.551 117.252)">
    <path id="패스_9464" data-name="패스 9464" class="cls-14" d="M0,0,5.539,3.054"/>
  </g>
  <g id="그룹_8656" data-name="그룹 8656" transform="translate(293.462 117.318)">
    <path id="패스_9465" data-name="패스 9465" class="cls-14" d="M0,0-5.717,2.917"/>
  </g>
  <g id="그룹_8657" data-name="그룹 8657" transform="translate(278.957 135.445)">
    <path id="패스_9466" data-name="패스 9466" class="cls-14" d="M0,0V6.87"/>
  </g>
  <g id="그룹_8658" data-name="그룹 8658" transform="translate(278.745 115.325)">
    <path id="패스_9467" data-name="패스 9467" class="cls-15" d="M0,0V10.02l-8.184,4.849"/>
  </g>
  <g id="그룹_8659" data-name="그룹 8659" transform="translate(287.614 130.185)">
    <path id="패스_9468" data-name="패스 9468" class="cls-14" d="M0,0-8.563-4.61"/>
  </g>
</svg>
