<svg xmlns="http://www.w3.org/2000/svg" width="836.506" height="298.235" viewBox="0 0 836.506 298.235">
  <defs>
    <style>
      .cls-1, .cls-12, .cls-13, .cls-14, .cls-15, .cls-6, .cls-7 {
        fill: none;
      }

      .cls-1 {
        stroke: #1e498b;
      }

      .cls-1, .cls-11, .cls-12, .cls-13, .cls-14, .cls-15, .cls-7 {
        stroke-width: 0.5px;
      }

      .cls-2, .cls-3, .cls-4, .cls-5 {
        fill: #1e2323;
      }

      .cls-3, .cls-4, .cls-5 {
        font-size: 12px;
        font-family: NotoSansKR-Light, Noto Sans KR;
        font-weight: 300;
      }

      .cls-4 {
        letter-spacing: -0.021em;
      }

      .cls-5 {
        letter-spacing: -0.02em;
      }

      .cls-14, .cls-15, .cls-6, .cls-7 {
        stroke: #2b2e34;
      }

      .cls-6 {
        stroke-width: 0.283px;
      }

      .cls-8 {
        fill: #1e498b;
      }

      .cls-9 {
        fill: #1393d1;
      }

      .cls-10 {
        fill: #a7d2e6;
      }

      .cls-11 {
        fill: #fff;
        stroke: #303c72;
      }

      .cls-12, .cls-13 {
        stroke: #42454a;
      }

      .cls-12, .cls-13, .cls-14, .cls-15 {
        stroke-linecap: round;
        stroke-linejoin: round;
      }

      .cls-12 {
        stroke-dasharray: 0 1.501;
      }

      .cls-14 {
        stroke-dasharray: 0 1.495;
      }
    </style>
  </defs>
  <g id="구성_요소_88_1" data-name="구성 요소 88 – 1" transform="translate(0.25 0.25)">
    <path id="패스_9182" data-name="패스 9182" class="cls-1" d="M144.953-170.051H850.686V-312.967H144.953Z" transform="translate(-14.68 312.967)"/>
    <path id="패스_9282" data-name="패스 9282" class="cls-2" d="M1.272,0h.72V-2.952l1.716-1.98L6.54,0h.828L4.188-5.5,6.972-8.748H6.12L2.016-4H1.992V-8.748h-.72ZM11.2.156c2.136,0,3.636-1.776,3.636-4.56s-1.5-4.5-3.636-4.5c-2.112,0-3.624,1.728-3.624,4.5S9.084.156,11.2.156Zm0-.648C9.468-.492,8.328-2.028,8.328-4.4S9.468-8.256,11.2-8.256,14.088-6.78,14.088-4.4,12.936-.492,11.2-.492Z" transform="translate(149.668 42.608)"/>
    <path id="패스_9283" data-name="패스 9283" class="cls-2" d="M1.272,0h4.7V-.624H1.992V-8.748h-.72Z" transform="translate(165.668 42.608)"/>
    <path id="패스_9284" data-name="패스 9284" class="cls-2" d="M2-3.516,2.544-5.1c.348-1.02.648-1.944.948-3H3.54c.312,1.056.6,1.98.96,3l.528,1.584ZM6.192,0H6.96L3.9-8.748H3.156L.1,0h.72l1-2.94H5.22Z" transform="translate(172.598 42.608)"/>
    <path id="패스_9285" data-name="패스 9285" class="cls-2" d="M3.588.156C5.3.156,6.42-.876,6.42-2.22S5.58-4.1,4.584-4.548L3.276-5.124C2.64-5.4,1.788-5.772,1.788-6.768c0-.9.744-1.488,1.86-1.488a2.807,2.807,0,0,1,2.064.876l.408-.468A3.341,3.341,0,0,0,3.648-8.9a2.332,2.332,0,0,0-2.592,2.2A2.426,2.426,0,0,0,2.832-4.524l1.308.576c.864.384,1.548.72,1.548,1.776,0,1-.8,1.68-2.1,1.68A3.368,3.368,0,0,1,1.056-1.656l-.444.5A3.893,3.893,0,0,0,3.588.156Z" transform="translate(179.999 42.608)"/>
    <path id="패스_9289" data-name="패스 9289" class="cls-2" d="M1.272,0h.72V-2.952l1.716-1.98L6.54,0h.828L4.188-5.5,6.972-8.748H6.12L2.016-4H1.992V-8.748h-.72Z" transform="translate(216.896 34.358)"/>
    <path id="패스_9290" data-name="패스 9290" class="cls-2" d="M4.416.156A3.278,3.278,0,0,0,7.032-1.092l-.408-.456A2.8,2.8,0,0,1,4.452-.492C2.616-.492,1.476-2.016,1.476-4.4c0-2.364,1.164-3.852,3.012-3.852a2.459,2.459,0,0,1,1.9.876l.408-.468A3.026,3.026,0,0,0,4.488-8.9C2.268-8.9.72-7.176.72-4.38S2.256.156,4.416.156Zm6.708-8.088h2.124v-.54H8.3v.54h2.208V-6.7A5.749,5.749,0,0,1,8.064-1.86l.42.48A5.843,5.843,0,0,0,10.824-5,5.509,5.509,0,0,0,13.1-1.632l.408-.48A5.424,5.424,0,0,1,11.124-6.7Zm3.264,2.04h-1.98v.552h1.98V.252H15v-9.78h-.612Zm2.136-3.924V.84h.624V-9.816Z" transform="translate(224.114 34.358)"/>
    <path id="패스_9292" data-name="패스 9292" class="cls-2" d="M1.488-3.564a6.017,6.017,0,0,0,4.02-3.024,6.082,6.082,0,0,0,4.056,3L9.84-4.1C8.316-4.368,5.832-5.844,5.832-7.68v-.528H9.54v-.54H1.476v.54H5.184v.528c0,1.836-2.472,3.336-3.984,3.612ZM5.832-1.152V-3.876H5.2v2.724H.684v.54h9.66v-.54Zm9.24-6.984H17.58v-.552H11.892v.552h2.556v1.788a5.848,5.848,0,0,1-2.916,4.584l.4.528a6.583,6.583,0,0,0,2.832-3.72A6.2,6.2,0,0,0,17.532-1.5l.372-.516a5.421,5.421,0,0,1-2.832-4.332Zm6.576,2.76H19.776v-4.44H19.14V.84h.636V-4.836h1.872Z" transform="translate(242.712 34.358)"/>
    <text id="_" data-name=" " class="cls-3" transform="translate(265.198 34.358)"><tspan x="0" y="0"> </tspan></text>
    <path id="패스_9291" data-name="패스 9291" class="cls-2" d="M4.236-8.832H3.612v2.124a5.9,5.9,0,0,1-2.94,4.74l.4.516A6.471,6.471,0,0,0,3.936-5.2,6.34,6.34,0,0,0,6.8-1.62l.4-.516A5.608,5.608,0,0,1,4.236-6.708Zm4.452-.984V.852h.636V-9.816Zm8.7,1.212H14.64V-9.936H14V-8.6H11.256v.528h6.132ZM12.5-5.508c0-.8.756-1.38,1.812-1.38s1.812.576,1.812,1.38-.756,1.38-1.812,1.38S12.5-4.716,12.5-5.508Zm4.224,0c0-1.14-1-1.884-2.412-1.884S11.9-6.648,11.9-5.508s1.008,1.884,2.412,1.884S16.728-4.368,16.728-5.508ZM13.752-2.2H19.32V.132H13.752ZM13.128.672h6.8v-3.4h-6.8ZM19.3-9.828v3.312h-2.04v.54H19.3V-3.36h.636V-9.828ZM30.948-4.4c-1.536-.312-4.008-1.848-4.008-3.78v-.852h-.66v.852c0,1.944-2.448,3.468-3.984,3.78l.288.516a6.037,6.037,0,0,0,4.032-3.12,6.084,6.084,0,0,0,4.044,3.12Zm-4.02,3.24V-3.888h-.636v2.724H21.816v.54h9.672v-.54Z" transform="translate(224.614 50.858)"/>
    <path id="패스_9294" data-name="패스 9294" class="cls-2" d="M1.272,0h.72V-2.952l1.716-1.98L6.54,0h.828L4.188-5.5,6.972-8.748H6.12L2.016-4H1.992V-8.748h-.72Z" transform="translate(295.1 34.358)"/>
    <path id="패스_9295" data-name="패스 9295" class="cls-2" d="M3.132,0h.732V-8.136h2.76v-.612H.384v.612H3.132ZM8.28,0h4.7V-.624H9V-8.748H8.28ZM20.352.156a3.278,3.278,0,0,0,2.616-1.248l-.408-.456A2.8,2.8,0,0,1,20.388-.492c-1.836,0-2.976-1.524-2.976-3.912,0-2.364,1.164-3.852,3.012-3.852a2.459,2.459,0,0,1,1.9.876l.408-.468a3.026,3.026,0,0,0-2.3-1.056c-2.22,0-3.768,1.728-3.768,4.524S18.192.156,20.352.156ZM24.732,0h.72V-8.748h-.72Z" transform="translate(303.016 34.358)"/>
    <path id="패스_9299" data-name="패스 9299" class="cls-2" d="M1.272,0h.72V-4.152H5.46v-.612H1.992V-8.136H6.1v-.612H1.272Z" transform="translate(330.499 34.358)"/>
    <path id="패스_9296" data-name="패스 9296" class="cls-2" d="M3,.156a3.619,3.619,0,0,0,1.068-.24L3.9-.624a2.237,2.237,0,0,1-.78.18c-.852,0-1.068-.528-1.068-1.332V-5.808H3.888V-6.4H2.052V-8.244H1.464L1.38-6.4l-1.02.06v.528h1v3.984C1.356-.636,1.74.156,3,.156Z" transform="translate(307.681 50.858)"/>
    <path id="패스_9297" data-name="패스 9297" class="cls-2" d="M2.532,0H3.36L5.712-6.4H5L3.612-2.472c-.2.624-.432,1.272-.636,1.848H2.928C2.712-1.2,2.5-1.848,2.292-2.472L.912-6.4H.156Zm5.9.156a2.447,2.447,0,0,0,2.64-2.472,2.28,2.28,0,0,0-1.92-2.256v-.06a2.183,2.183,0,0,0,1.608-2.16A2.129,2.129,0,0,0,8.4-8.916,3.4,3.4,0,0,0,6.06-7.884l.408.48a2.745,2.745,0,0,1,1.92-.924,1.532,1.532,0,0,1,1.656,1.584c0,1.044-.672,1.872-2.592,1.872v.588c2.088,0,2.9.792,2.9,1.968A1.821,1.821,0,0,1,8.412-.444a2.992,2.992,0,0,1-2.3-1.068l-.4.468A3.538,3.538,0,0,0,8.436.156Z" transform="translate(312.418 50.858)"/>
    <path id="패스_9298" data-name="패스 9298" class="cls-2" transform="translate(324.423 50.858)"/>
    <path id="패스_9306" data-name="패스 9306" class="cls-2" d="M4.224.156c1.572,0,3-.816,3-3.576V-8.748H6.54v5.292c0,2.28-1.08,2.964-2.316,2.964-1.212,0-2.268-.684-2.268-2.964V-8.748h-.72V-3.42C1.236-.66,2.652.156,4.224.156ZM9.636,0h4.7V-.624H10.356V-8.748h-.72Zm9.78,0h.816l1.5-5.844c.156-.7.336-1.3.48-1.968h.048c.156.672.312,1.272.456,1.968L24.264,0h.816L27-8.748h-.708L25.236-3.684c-.192.948-.372,1.9-.552,2.856h-.06c-.228-.96-.444-1.908-.672-2.856L22.608-8.748H21.9L20.568-3.684c-.228.948-.456,1.9-.672,2.856h-.048c-.192-.96-.384-1.908-.588-2.856L18.2-8.748H17.46ZM28.56,0h4.7V-.624H29.28V-8.748h-.72Zm6.168,0h.72V-8.748h-.72ZM37.9,0h2.076c2.676,0,4-1.728,4-4.4s-1.32-4.344-4.008-4.344H37.9Zm.72-.612V-8.148h1.272c2.3,0,3.324,1.476,3.324,3.744S42.192-.612,39.888-.612ZM45.864,0h.72V-3.7h1.6c1.944,0,3.144-.84,3.144-2.592,0-1.812-1.212-2.46-3.192-2.46H45.864Zm.72-4.3V-8.148h1.4c1.74,0,2.6.444,2.6,1.86S49.764-4.3,48.036-4.3Z" transform="translate(366.199 42.608)"/>
    <path id="패스_9313" data-name="패스 9313" class="cls-2" d="M1.272,0h.72V-8.748h-.72ZM4.428,0h.684V-5.244c0-.876-.06-1.692-.1-2.532h.06L6.06-6.024,9.624,0h.744V-8.748H9.684v5.184c0,.852.048,1.728.1,2.592H9.72L8.748-2.736,5.172-8.748H4.428ZM14.664,0H15.4V-8.136h2.76v-.612h-6.24v.612h2.748ZM19.7,0h4.968V-.624H20.424V-4.332h3.468v-.612H20.424V-8.136H24.54v-.612H19.7Zm7.488-8.148H28.86c1.512,0,2.352.468,2.352,1.74s-.84,1.86-2.352,1.86H27.192ZM32.124,0,29.76-4.008a2.3,2.3,0,0,0,2.184-2.4c0-1.7-1.176-2.34-2.916-2.34H26.472V0h.72V-3.948H28.98L31.308,0Zm3.24,0H36.1V-8.136h2.76v-.612h-6.24v.612h2.748ZM40.4,0h4.968V-.624H41.124V-4.332h3.468v-.612H41.124V-8.136H45.24v-.612H40.4Zm6.768,0h.72V-2.952l1.716-1.98L52.44,0h.828l-3.18-5.5,2.784-3.252H52.02L47.916-4h-.024V-8.748h-.72Z" transform="translate(428.576 34.358)"/>
    <text id="_2" data-name=" " class="cls-3" transform="translate(486.347 34.358)"><tspan x="0" y="0"> </tspan></text>
    <path id="패스_9314" data-name="패스 9314" class="cls-2" d="M2.772.156c1.416,0,2.2-.84,2.2-1.824,0-1.236-1.08-1.584-2.064-1.956C2.16-3.9,1.416-4.164,1.416-4.872c0-.576.432-1.1,1.38-1.1A2.453,2.453,0,0,1,4.32-5.4l.36-.48a3.089,3.089,0,0,0-1.86-.684c-1.344,0-2.1.792-2.1,1.728,0,1.1,1.056,1.5,2,1.836.744.264,1.548.612,1.548,1.368,0,.66-.492,1.212-1.464,1.212a2.93,2.93,0,0,1-2.016-.8L.42-.72A3.748,3.748,0,0,0,2.772.156Zm5.268,0a3.687,3.687,0,0,0,2.232-.972H10.3L10.368,0h.588V-4.056c0-1.416-.54-2.508-2.064-2.508a4.436,4.436,0,0,0-2.424.84l.312.5A3.458,3.458,0,0,1,8.8-5.952c1.212,0,1.488.984,1.464,1.932-2.82.324-4.08,1-4.08,2.412A1.688,1.688,0,0,0,8.04.156Zm.144-.588A1.153,1.153,0,0,1,6.876-1.644c0-.984.864-1.572,3.384-1.86v2.076A3.152,3.152,0,0,1,8.184-.432Zm6.648.588A3.619,3.619,0,0,0,15.9-.084l-.168-.54a2.237,2.237,0,0,1-.78.18c-.852,0-1.068-.528-1.068-1.332V-5.808H15.72V-6.4H13.884V-8.244H13.3L13.212-6.4l-1.02.06v.528h1v3.984C13.188-.636,13.572.156,14.832.156Z" transform="translate(429.532 50.858)"/>
    <path id="패스_9315" data-name="패스 9315" class="cls-2" d="M3.648.156a3.579,3.579,0,0,0,2.04-.624L5.424-.984a2.864,2.864,0,0,1-1.7.552A2.422,2.422,0,0,1,1.38-3.084H5.916a3.319,3.319,0,0,0,.036-.5c0-1.872-.924-2.976-2.472-2.976-1.452,0-2.808,1.3-2.808,3.372A3.03,3.03,0,0,0,3.648.156ZM1.38-3.636A2.278,2.278,0,0,1,3.492-5.964c1.116,0,1.824.78,1.824,2.328ZM8.508.156A1.41,1.41,0,0,0,8.976.084L8.868-.468a1.073,1.073,0,0,1-.228.024c-.168,0-.288-.132-.288-.432V-9.54h-.7V-.948C7.656-.2,7.932.156,8.508.156Z" transform="translate(445.727 50.858)"/>
    <path id="패스_9316" data-name="패스 9316" class="cls-2" d="M2.052.156A1.41,1.41,0,0,0,2.52.084L2.412-.468a1.073,1.073,0,0,1-.228.024c-.168,0-.288-.132-.288-.432V-9.54H1.2V-.948C1.2-.2,1.476.156,2.052.156Z" transform="translate(455.257 50.858)"/>
    <path id="패스_9317" data-name="패스 9317" class="cls-2" d="M1.2,0h.7V-6.4H1.2Zm.36-7.9a.566.566,0,0,0,.588-.552.564.564,0,0,0-.588-.576.557.557,0,0,0-.588.576A.559.559,0,0,0,1.56-7.9ZM6.084.156a3.619,3.619,0,0,0,1.068-.24l-.168-.54a2.237,2.237,0,0,1-.78.18c-.852,0-1.068-.528-1.068-1.332V-5.808H6.972V-6.4H5.136V-8.244H4.548L4.464-6.4l-1.02.06v.528h1v3.984C4.44-.636,4.824.156,6.084.156Z" transform="translate(458.265 50.858)"/>
    <path id="패스_9318" data-name="패스 9318" class="cls-2" d="M3.648.156a3.579,3.579,0,0,0,2.04-.624L5.424-.984a2.864,2.864,0,0,1-1.7.552A2.422,2.422,0,0,1,1.38-3.084H5.916a3.319,3.319,0,0,0,.036-.5c0-1.872-.924-2.976-2.472-2.976-1.452,0-2.808,1.3-2.808,3.372A3.03,3.03,0,0,0,3.648.156ZM1.38-3.636A2.278,2.278,0,0,1,3.492-5.964c1.116,0,1.824.78,1.824,2.328ZM9.66,0h5.268V-.624H12.2c-.456,0-.96.036-1.44.072C13.092-2.724,14.508-4.56,14.508-6.4A2.292,2.292,0,0,0,12.084-8.9a3.216,3.216,0,0,0-2.46,1.26l.444.42a2.606,2.606,0,0,1,1.944-1.092A1.719,1.719,0,0,1,13.8-6.372c0,1.584-1.176,3.384-4.14,5.94Z" transform="translate(465.381 50.858)"/>
    <path id="패스_9325" data-name="패스 9325" class="cls-2" d="M1.272,0h.684V-5.244c0-.876-.06-1.692-.1-2.532h.06L2.9-6.024,6.468,0h.744V-8.748H6.528v5.184c0,.852.048,1.728.1,2.592h-.06L5.592-2.736,2.016-8.748H1.272Zm8.28,0H14.52V-.624H10.272V-4.332H13.74v-.612H10.272V-8.136h4.116v-.612H9.552Zm6.672,0h.66V-5.544c0-.72-.048-1.68-.084-2.412h.048L17.532-6,19.38-.936h.576L21.792-6l.684-1.956h.048c-.036.732-.084,1.692-.084,2.412V0h.684V-8.748h-.96l-1.8,5.028c-.216.636-.42,1.284-.648,1.92h-.048l-.684-1.92-1.8-5.028h-.96Zm9.24,0h.72V-2.952L27.9-4.932,30.732,0h.828L28.38-5.5l2.784-3.252h-.852L26.208-4h-.024V-8.748h-.72Z" transform="translate(503.375 34.358)"/>
    <path id="패스_9327" data-name="패스 9327" class="cls-2" d="M4.344.156C6.48.156,7.98-1.62,7.98-4.4S6.48-8.9,4.344-8.9C2.232-8.9.72-7.176.72-4.4S2.232.156,4.344.156Zm0-.648C2.616-.492,1.476-2.028,1.476-4.4s1.14-3.852,2.868-3.852S7.236-6.78,7.236-4.4,6.084-.492,4.344-.492Z" transform="translate(535.253 34.358)"/>
    <path id="패스_9328" data-name="패스 9328" class="cls-2" transform="translate(544.146 34.358)"/>
    <path id="패스_9326" data-name="패스 9326" class="cls-2" d="M4.416.156A3.278,3.278,0,0,0,7.032-1.092l-.408-.456A2.8,2.8,0,0,1,4.452-.492C2.616-.492,1.476-2.016,1.476-4.4c0-2.364,1.164-3.852,3.012-3.852a2.459,2.459,0,0,1,1.9.876l.408-.468A3.026,3.026,0,0,0,4.488-8.9C2.268-8.9.72-7.176.72-4.38S2.256.156,4.416.156ZM10.392,0h.732V-8.136h2.76v-.612H7.644v.612h2.748ZM15.54,0h.72V-4.152h3.468v-.612H16.26V-8.136h4.1v-.612H15.54Zm8.316,0h5.268V-.624H26.4c-.456,0-.96.036-1.44.072C27.288-2.724,28.7-4.56,28.7-6.4A2.292,2.292,0,0,0,26.28-8.9a3.216,3.216,0,0,0-2.46,1.26l.444.42a2.606,2.606,0,0,1,1.944-1.092A1.719,1.719,0,0,1,28-6.372c0,1.584-1.176,3.384-4.14,5.94Z" transform="translate(508.103 50.858)"/>
    <path id="패스_9331" data-name="패스 9331" class="cls-2" d="M1.272,0h.72V-8.748h-.72Z" transform="translate(569.304 42.608)"/>
    <path id="패스_9332" data-name="패스 9332" class="cls-2" d="M1.272,0H6.24V-.624H1.992V-4.332H5.46v-.612H1.992V-8.136H6.108v-.612H1.272Z" transform="translate(572.406 42.608)"/>
    <path id="패스_9333" data-name="패스 9333" class="cls-2" d="M4.416.156A3.278,3.278,0,0,0,7.032-1.092l-.408-.456A2.8,2.8,0,0,1,4.452-.492C2.616-.492,1.476-2.016,1.476-4.4c0-2.364,1.164-3.852,3.012-3.852a2.459,2.459,0,0,1,1.9.876l.408-.468A3.026,3.026,0,0,0,4.488-8.9C2.268-8.9.72-7.176.72-4.38S2.256.156,4.416.156Zm9.3-.588c-1.332,0-2.016-1.224-2.124-3.144a2.63,2.63,0,0,1,2-1.248c1.248,0,1.776.912,1.776,2.184S14.664-.432,13.716-.432ZM15.9-8.064a2.4,2.4,0,0,0-1.86-.84C12.4-8.9,10.9-7.656,10.9-4.128,10.9-1.344,12.012.156,13.7.156a2.567,2.567,0,0,0,2.364-2.8c0-1.8-.888-2.748-2.376-2.748a2.816,2.816,0,0,0-2.112,1.14C11.616-7.26,12.732-8.3,14.052-8.3a1.83,1.83,0,0,1,1.428.7Z" transform="translate(579.066 42.608)"/>
    <path id="패스_9334" data-name="패스 9334" class="cls-2" d="M1.1,0H5.616V-.612H3.792V-8.748H3.228A5.022,5.022,0,0,1,1.56-8.2v.468H3.084V-.612H1.1Z" transform="translate(596.347 42.608)"/>
    <path id="패스_9335" data-name="패스 9335" class="cls-2" d="M2.46,0h.756c.132-3.42.564-5.6,2.64-8.328v-.42H.576v.612H5A13.467,13.467,0,0,0,2.46,0ZM8.88,0h.756c.132-3.42.564-5.6,2.64-8.328v-.42H7v.612h4.428A13.467,13.467,0,0,0,8.88,0Z" transform="translate(601.99 42.608)"/>
    <path id="패스_9336" data-name="패스 9336" class="cls-2" d="M3.216.156C4.8.156,5.784-1.332,5.784-4.4c0-3.036-.984-4.5-2.568-4.5S.636-7.44.636-4.4C.636-1.332,1.62.156,3.216.156Zm0-.588c-1.14,0-1.884-1.32-1.884-3.972,0-2.6.744-3.912,1.884-3.912S5.088-7.008,5.088-4.4C5.088-1.752,4.344-.432,3.216-.432Z" transform="translate(614.905 42.608)"/>
    <path id="패스_9346" data-name="패스 9346" class="cls-2" d="M4.416.156A3.278,3.278,0,0,0,7.032-1.092l-.408-.456A2.8,2.8,0,0,1,4.452-.492C2.616-.492,1.476-2.016,1.476-4.4c0-2.364,1.164-3.852,3.012-3.852a2.459,2.459,0,0,1,1.9.876l.408-.468A3.026,3.026,0,0,0,4.488-8.9C2.268-8.9.72-7.176.72-4.38S2.256.156,4.416.156Z" transform="translate(640.685 42.608)"/>
    <path id="패스_9347" data-name="패스 9347" class="cls-2" d="M1.476-4.4c0-2.376,1.14-3.852,2.868-3.852S7.236-6.78,7.236-4.4C7.236-2,6.084-.456,4.344-.456S1.476-2,1.476-4.4ZM7.9,1.332a2.767,2.767,0,0,1-.888.12A2.3,2.3,0,0,1,4.764.132C6.672-.084,7.98-1.812,7.98-4.4c0-2.772-1.5-4.5-3.636-4.5C2.232-8.9.72-7.176.72-4.4.72-1.788,2.052-.06,3.972.132A3.039,3.039,0,0,0,6.936,2.088a3.7,3.7,0,0,0,1.116-.156ZM13.128.156a3.278,3.278,0,0,0,2.616-1.248l-.408-.456A2.8,2.8,0,0,1,13.164-.492c-1.836,0-2.976-1.524-2.976-3.912,0-2.364,1.164-3.852,3.012-3.852a2.459,2.459,0,0,1,1.9.876l.408-.468A3.026,3.026,0,0,0,13.2-8.9c-2.22,0-3.768,1.728-3.768,4.524S10.968.156,13.128.156ZM21.216,0h.816l1.5-5.844c.156-.7.336-1.3.48-1.968h.048c.156.672.312,1.272.456,1.968L26.064,0h.816L28.8-8.748h-.708L27.036-3.684c-.192.948-.372,1.9-.552,2.856h-.06c-.228-.96-.444-1.908-.672-2.856L24.408-8.748H23.7L22.368-3.684c-.228.948-.456,1.9-.672,2.856h-.048c-.192-.96-.384-1.908-.588-2.856L20-8.748H19.26Zm9.24,0h.66V-5.544c0-.72-.048-1.68-.084-2.412h.048L31.764-6,33.612-.936h.576L36.024-6l.684-1.956h.048c-.036.732-.084,1.692-.084,2.412V0h.684V-8.748H36.4L34.6-3.72c-.216.636-.42,1.284-.648,1.92H33.9l-.684-1.92-1.8-5.028h-.96Zm11.3,0h.732V-8.136h2.76v-.612h-6.24v.612H41.76Z" transform="translate(648.05 42.608)"/>
    <path id="패스_9348" data-name="패스 9348" class="cls-2" d="M4.416.156A3.278,3.278,0,0,0,7.032-1.092l-.408-.456A2.8,2.8,0,0,1,4.452-.492C2.616-.492,1.476-2.016,1.476-4.4c0-2.364,1.164-3.852,3.012-3.852a2.459,2.459,0,0,1,1.9.876l.408-.468A3.026,3.026,0,0,0,4.488-8.9C2.268-8.9.72-7.176.72-4.38S2.256.156,4.416.156Z" transform="translate(710.976 42.608)"/>
    <path id="패스_9349" data-name="패스 9349" class="cls-2" d="M2.916,0h.792L6.552-8.748H5.82L4.26-3.72C3.924-2.664,3.7-1.848,3.336-.792H3.288c-.348-1.056-.576-1.872-.9-2.928L.816-8.748H.048Zm7.968.156A3.278,3.278,0,0,0,13.5-1.092l-.408-.456A2.8,2.8,0,0,1,10.92-.492C9.084-.492,7.944-2.016,7.944-4.4c0-2.364,1.164-3.852,3.012-3.852a2.459,2.459,0,0,1,1.9.876l.408-.468a3.026,3.026,0,0,0-2.3-1.056c-2.22,0-3.768,1.728-3.768,4.524S8.724.156,10.884.156ZM18.972,0h.816l1.5-5.844c.156-.7.336-1.3.48-1.968h.048c.156.672.312,1.272.456,1.968L23.82,0h.816l1.92-8.748h-.708L24.792-3.684c-.192.948-.372,1.9-.552,2.856h-.06c-.228-.96-.444-1.908-.672-2.856L22.164-8.748h-.708L20.124-3.684c-.228.948-.456,1.9-.672,2.856H19.4c-.192-.96-.384-1.908-.588-2.856L17.76-8.748h-.744Zm9.24,0h.66V-5.544c0-.72-.048-1.68-.084-2.412h.048L29.52-6,31.368-.936h.576L33.78-6l.684-1.956h.048c-.036.732-.084,1.692-.084,2.412V0h.684V-8.748h-.96l-1.8,5.028c-.216.636-.42,1.284-.648,1.92h-.048l-.684-1.92-1.8-5.028h-.96Zm11.3,0h.732V-8.136h2.76v-.612h-6.24v.612h2.748Z" transform="translate(718.879 42.608)"/>
    <path id="패스_9350" data-name="패스 9350" class="cls-2" d="M1.272,0h.684V-5.244c0-.876-.06-1.692-.1-2.532h.06L2.9-6.024,6.468,0h.744V-8.748H6.528v5.184c0,.852.048,1.728.1,2.592h-.06L5.592-2.736,2.016-8.748H1.272Zm8.28,0H14.52V-.624H10.272V-4.332H13.74v-.612H10.272V-8.136h4.116v-.612H9.552Zm6.672,0h.66V-5.544c0-.72-.048-1.68-.084-2.412h.048L17.532-6,19.38-.936h.576L21.792-6l.684-1.956h.048c-.036.732-.084,1.692-.084,2.412V0h.684V-8.748h-.96l-1.8,5.028c-.216.636-.42,1.284-.648,1.92h-.048l-.684-1.92-1.8-5.028h-.96Zm9.24,0h.72V-2.952L27.9-4.932,30.732,0h.828L28.38-5.5l2.784-3.252h-.852L26.208-4h-.024V-8.748h-.72Z" transform="translate(780.531 34.358)"/>
    <path id="패스_9353" data-name="패스 9353" class="cls-2" d="M4.344.156C6.48.156,7.98-1.62,7.98-4.4S6.48-8.9,4.344-8.9C2.232-8.9.72-7.176.72-4.4S2.232.156,4.344.156Zm0-.648C2.616-.492,1.476-2.028,1.476-4.4s1.14-3.852,2.868-3.852S7.236-6.78,7.236-4.4,6.084-.492,4.344-.492Z" transform="translate(812.409 34.358)"/>
    <path id="패스_9354" data-name="패스 9354" class="cls-2" transform="translate(821.303 34.358)"/>
    <path id="패스_9351" data-name="패스 9351" class="cls-2" d="M1.272,0H6.24V-.624H1.992V-4.332H5.46v-.612H1.992V-8.136H6.108v-.612H1.272Z" transform="translate(774.969 50.858)"/>
    <path id="패스_9352" data-name="패스 9352" class="cls-2" d="M1.272,0h.66V-5.544c0-.72-.048-1.68-.084-2.412H1.9L2.58-6,4.428-.936H5L6.84-6l.684-1.956h.048c-.036.732-.084,1.692-.084,2.412V0h.684V-8.748h-.96L5.412-3.72c-.216.636-.42,1.284-.648,1.92H4.716L4.032-3.72l-1.8-5.028h-.96ZM13.86.156a3.278,3.278,0,0,0,2.616-1.248l-.408-.456A2.8,2.8,0,0,1,13.9-.492C12.06-.492,10.92-2.016,10.92-4.4c0-2.364,1.164-3.852,3.012-3.852a2.459,2.459,0,0,1,1.9.876l.408-.468a3.026,3.026,0,0,0-2.3-1.056c-2.22,0-3.768,1.728-3.768,4.524S11.7.156,13.86.156ZM22.764,0H23.5V-8.136h2.76v-.612h-6.24v.612h2.748Zm5.148,0H30.5c1.968,0,3.264-.864,3.264-2.556a2.028,2.028,0,0,0-1.872-2.1v-.06A1.88,1.88,0,0,0,33.24-6.624c0-1.476-1.152-2.124-2.916-2.124H27.912Zm.72-4.932V-8.16h1.536c1.548,0,2.352.432,2.352,1.62,0,1-.7,1.608-2.424,1.608Zm0,4.332V-4.356h1.7c1.74,0,2.724.576,2.724,1.8C33.06-1.2,32.028-.6,30.336-.6Zm6.984.6h.66V-5.544c0-.72-.048-1.68-.084-2.412h.048L36.924-6,38.772-.936h.576L41.184-6l.684-1.956h.048c-.036.732-.084,1.692-.084,2.412V0h.684V-8.748h-.96l-1.8,5.028c-.216.636-.42,1.284-.648,1.92H39.06l-.684-1.92-1.8-5.028h-.96Z" transform="translate(781.746 50.858)"/>
    <path id="패스_9286" data-name="패스 9286" class="cls-2" d="M1.272,0h.72V-8.748h-.72ZM4.224,0h.7V-4.788C5.664-5.556,6.192-5.94,6.936-5.94c.984,0,1.4.612,1.4,1.944V0h.7V-4.092c0-1.644-.612-2.472-1.944-2.472a3.146,3.146,0,0,0-2.184,1.14H4.884L4.8-6.4H4.224ZM12.9.156a3.619,3.619,0,0,0,1.068-.24L13.8-.624a2.237,2.237,0,0,1-.78.18c-.852,0-1.068-.528-1.068-1.332V-5.808h1.836V-6.4H11.952V-8.244h-.588L11.28-6.4l-1.02.06v.528h1v3.984C11.256-.636,11.64.156,12.9.156Zm4.476,0a3.579,3.579,0,0,0,2.04-.624l-.264-.516a2.864,2.864,0,0,1-1.7.552,2.422,2.422,0,0,1-2.34-2.652h4.536a3.319,3.319,0,0,0,.036-.5c0-1.872-.924-2.976-2.472-2.976-1.452,0-2.808,1.3-2.808,3.372A3.03,3.03,0,0,0,17.376.156ZM15.108-3.636A2.278,2.278,0,0,1,17.22-5.964c1.116,0,1.824.78,1.824,2.328ZM21.144,0h.7V-4.3C22.308-5.484,22.992-5.9,23.556-5.9a1.353,1.353,0,0,1,.588.108l.144-.624a1.289,1.289,0,0,0-.648-.144,2.2,2.2,0,0,0-1.812,1.356H21.8L21.72-6.4h-.576Z" transform="translate(135.385 112.371)"/>
    <path id="패스_9287" data-name="패스 9287" class="cls-2" d="M1.2,0h.7V-4.788C2.64-5.556,3.168-5.94,3.912-5.94c.984,0,1.4.612,1.4,1.944V0h.7V-4.092c0-1.644-.612-2.472-1.944-2.472a3.146,3.146,0,0,0-2.184,1.14H1.86L1.776-6.4H1.2ZM9.492.156a3.687,3.687,0,0,0,2.232-.972h.024L11.82,0h.588V-4.056c0-1.416-.54-2.508-2.064-2.508a4.436,4.436,0,0,0-2.424.84l.312.5a3.458,3.458,0,0,1,2.016-.732c1.212,0,1.488.984,1.464,1.932-2.82.324-4.08,1-4.08,2.412A1.688,1.688,0,0,0,9.492.156Zm.144-.588A1.153,1.153,0,0,1,8.328-1.644c0-.984.864-1.572,3.384-1.86v2.076A3.152,3.152,0,0,1,9.636-.432Zm6.408.588a3.619,3.619,0,0,0,1.068-.24l-.168-.54a2.237,2.237,0,0,1-.78.18c-.852,0-1.068-.528-1.068-1.332V-5.808h1.836V-6.4H15.1V-8.244h-.588L14.424-6.4l-1.02.06v.528h1v3.984C14.4-.636,14.784.156,16.044.156Z" transform="translate(160.627 112.371)"/>
    <path id="패스_9288" data-name="패스 9288" class="cls-2" d="M1.2,0h.7V-6.4H1.2Zm.36-7.9a.566.566,0,0,0,.588-.552.564.564,0,0,0-.588-.576.557.557,0,0,0-.588.576A.559.559,0,0,0,1.56-7.9ZM6.408.156C7.956.156,9.3-1.068,9.3-3.192S7.956-6.564,6.408-6.564,3.516-5.328,3.516-3.192,4.86.156,6.408.156Zm0-.6c-1.248,0-2.16-1.116-2.16-2.748s.912-2.76,2.16-2.76S8.58-4.824,8.58-3.192,7.656-.444,6.408-.444ZM10.932,0h.7V-4.788c.744-.768,1.272-1.152,2.016-1.152.984,0,1.4.612,1.4,1.944V0h.7V-4.092c0-1.644-.612-2.472-1.944-2.472a3.146,3.146,0,0,0-2.184,1.14h-.024L11.508-6.4h-.576Zm8.292.156a3.687,3.687,0,0,0,2.232-.972h.024L21.552,0h.588V-4.056c0-1.416-.54-2.508-2.064-2.508a4.436,4.436,0,0,0-2.424.84l.312.5a3.458,3.458,0,0,1,2.016-.732c1.212,0,1.488.984,1.464,1.932-2.82.324-4.08,1-4.08,2.412A1.688,1.688,0,0,0,19.224.156Zm.144-.588A1.153,1.153,0,0,1,18.06-1.644c0-.984.864-1.572,3.384-1.86v2.076A3.152,3.152,0,0,1,19.368-.432Zm5.616.588a1.41,1.41,0,0,0,.468-.072l-.108-.552a1.073,1.073,0,0,1-.228.024c-.168,0-.288-.132-.288-.432V-9.54h-.7V-.948C24.132-.2,24.408.156,24.984.156Z" transform="translate(178.456 112.371)"/>
    <path id="패스_9293" data-name="패스 9293" class="cls-2" d="M1.272,0H3.348c2.676,0,4-1.728,4-4.4S6.024-8.748,3.336-8.748H1.272Zm.72-.612V-8.148H3.264c2.3,0,3.324,1.476,3.324,3.744S5.568-.612,3.264-.612Zm9.624.768c1.548,0,2.892-1.224,2.892-3.348s-1.344-3.372-2.892-3.372S8.724-5.328,8.724-3.192,10.068.156,11.616.156Zm0-.6c-1.248,0-2.16-1.116-2.16-2.748s.912-2.76,2.16-2.76,2.172,1.128,2.172,2.76S12.864-.444,11.616-.444ZM16.368,0h.7V-4.788A2.7,2.7,0,0,1,18.912-5.94c.948,0,1.38.612,1.38,1.944V0h.7V-4.788A2.7,2.7,0,0,1,22.836-5.94c.936,0,1.38.612,1.38,1.944V0h.7V-4.092c0-1.644-.636-2.472-1.92-2.472a3.2,3.2,0,0,0-2.16,1.3,1.657,1.657,0,0,0-1.764-1.3,2.97,2.97,0,0,0-2.016,1.14h-.024L16.944-6.4h-.576ZM29.652.156a3.579,3.579,0,0,0,2.04-.624l-.264-.516a2.864,2.864,0,0,1-1.7.552,2.422,2.422,0,0,1-2.34-2.652H31.92a3.319,3.319,0,0,0,.036-.5c0-1.872-.924-2.976-2.472-2.976-1.452,0-2.808,1.3-2.808,3.372A3.03,3.03,0,0,0,29.652.156ZM27.384-3.636A2.278,2.278,0,0,1,29.5-5.964c1.116,0,1.824.78,1.824,2.328ZM35.22.156c1.416,0,2.2-.84,2.2-1.824,0-1.236-1.08-1.584-2.064-1.956-.744-.276-1.488-.54-1.488-1.248,0-.576.432-1.1,1.38-1.1a2.453,2.453,0,0,1,1.524.576l.36-.48a3.089,3.089,0,0,0-1.86-.684c-1.344,0-2.1.792-2.1,1.728,0,1.1,1.056,1.5,2,1.836.744.264,1.548.612,1.548,1.368,0,.66-.492,1.212-1.464,1.212a2.93,2.93,0,0,1-2.016-.8l-.372.5A3.748,3.748,0,0,0,35.22.156Zm5.376,0a3.619,3.619,0,0,0,1.068-.24L41.5-.624a2.237,2.237,0,0,1-.78.18c-.852,0-1.068-.528-1.068-1.332V-5.808h1.836V-6.4H39.648V-8.244H39.06L38.976-6.4l-1.02.06v.528h1v3.984C38.952-.636,39.336.156,40.6.156ZM43.008,0h.7V-6.4h-.7Zm.36-7.9a.566.566,0,0,0,.588-.552.564.564,0,0,0-.588-.576.557.557,0,0,0-.588.576A.559.559,0,0,0,43.368-7.9ZM48.48.156a3.1,3.1,0,0,0,2.04-.828l-.336-.48a2.555,2.555,0,0,1-1.668.708c-1.344,0-2.232-1.116-2.232-2.748s.972-2.76,2.244-2.76a2.1,2.1,0,0,1,1.464.648l.4-.48a2.705,2.705,0,0,0-1.872-.78,3.056,3.056,0,0,0-2.964,3.372C45.552-1.068,46.812.156,48.48.156Z" transform="translate(216.223 112.371)"/>
    <path id="패스_9300" data-name="패스 9300" class="cls-2" d="M1.272,0h.72V-8.748h-.72ZM4.224,0h.7V-4.788C5.664-5.556,6.192-5.94,6.936-5.94c.984,0,1.4.612,1.4,1.944V0h.7V-4.092c0-1.644-.612-2.472-1.944-2.472a3.146,3.146,0,0,0-2.184,1.14H4.884L4.8-6.4H4.224ZM12.9.156a3.619,3.619,0,0,0,1.068-.24L13.8-.624a2.237,2.237,0,0,1-.78.18c-.852,0-1.068-.528-1.068-1.332V-5.808h1.836V-6.4H11.952V-8.244h-.588L11.28-6.4l-1.02.06v.528h1v3.984C11.256-.636,11.64.156,12.9.156Zm4.476,0a3.579,3.579,0,0,0,2.04-.624l-.264-.516a2.864,2.864,0,0,1-1.7.552,2.422,2.422,0,0,1-2.34-2.652h4.536a3.319,3.319,0,0,0,.036-.5c0-1.872-.924-2.976-2.472-2.976-1.452,0-2.808,1.3-2.808,3.372A3.03,3.03,0,0,0,17.376.156ZM15.108-3.636A2.278,2.278,0,0,1,17.22-5.964c1.116,0,1.824.78,1.824,2.328ZM21.144,0h.7V-4.3C22.308-5.484,22.992-5.9,23.556-5.9a1.353,1.353,0,0,1,.588.108l.144-.624a1.289,1.289,0,0,0-.648-.144,2.2,2.2,0,0,0-1.812,1.356H21.8L21.72-6.4h-.576Z" transform="translate(281.049 109.196)"/>
    <path id="패스_9301" data-name="패스 9301" class="cls-2" d="M1.2,0h.7V-4.788C2.64-5.556,3.168-5.94,3.912-5.94c.984,0,1.4.612,1.4,1.944V0h.7V-4.092c0-1.644-.612-2.472-1.944-2.472a3.146,3.146,0,0,0-2.184,1.14H1.86L1.776-6.4H1.2ZM9.492.156a3.687,3.687,0,0,0,2.232-.972h.024L11.82,0h.588V-4.056c0-1.416-.54-2.508-2.064-2.508a4.436,4.436,0,0,0-2.424.84l.312.5a3.458,3.458,0,0,1,2.016-.732c1.212,0,1.488.984,1.464,1.932-2.82.324-4.08,1-4.08,2.412A1.688,1.688,0,0,0,9.492.156Zm.144-.588A1.153,1.153,0,0,1,8.328-1.644c0-.984.864-1.572,3.384-1.86v2.076A3.152,3.152,0,0,1,9.636-.432Zm6.408.588a3.619,3.619,0,0,0,1.068-.24l-.168-.54a2.237,2.237,0,0,1-.78.18c-.852,0-1.068-.528-1.068-1.332V-5.808h1.836V-6.4H15.1V-8.244h-.588L14.424-6.4l-1.02.06v.528h1v3.984C14.4-.636,14.784.156,16.044.156Z" transform="translate(306.292 109.196)"/>
    <path id="패스_9304" data-name="패스 9304" class="cls-2" d="M1.2,0h.7V-6.4H1.2Zm.36-7.9a.566.566,0,0,0,.588-.552.564.564,0,0,0-.588-.576.557.557,0,0,0-.588.576A.559.559,0,0,0,1.56-7.9ZM6.408.156C7.956.156,9.3-1.068,9.3-3.192S7.956-6.564,6.408-6.564,3.516-5.328,3.516-3.192,4.86.156,6.408.156Zm0-.6c-1.248,0-2.16-1.116-2.16-2.748s.912-2.76,2.16-2.76S8.58-4.824,8.58-3.192,7.656-.444,6.408-.444ZM10.932,0h.7V-4.788c.744-.768,1.272-1.152,2.016-1.152.984,0,1.4.612,1.4,1.944V0h.7V-4.092c0-1.644-.612-2.472-1.944-2.472a3.146,3.146,0,0,0-2.184,1.14h-.024L11.508-6.4h-.576Zm8.292.156a3.687,3.687,0,0,0,2.232-.972h.024L21.552,0h.588V-4.056c0-1.416-.54-2.508-2.064-2.508a4.436,4.436,0,0,0-2.424.84l.312.5a3.458,3.458,0,0,1,2.016-.732c1.212,0,1.488.984,1.464,1.932-2.82.324-4.08,1-4.08,2.412A1.688,1.688,0,0,0,19.224.156Zm.144-.588A1.153,1.153,0,0,1,18.06-1.644c0-.984.864-1.572,3.384-1.86v2.076A3.152,3.152,0,0,1,19.368-.432Zm5.616.588a1.41,1.41,0,0,0,.468-.072l-.108-.552a1.073,1.073,0,0,1-.228.024c-.168,0-.288-.132-.288-.432V-9.54h-.7V-.948C24.132-.2,24.408.156,24.984.156Z" transform="translate(324.121 109.196)"/>
    <path id="패스_9305" data-name="패스 9305" class="cls-2" transform="translate(351.058 109.196)"/>
    <path id="패스_9302" data-name="패스 9302" class="cls-2" d="M2.9,2.316,3.336,2.1A11.034,11.034,0,0,1,1.752-3.7a11.065,11.065,0,0,1,1.584-5.8L2.9-9.72A11.065,11.065,0,0,0,1.152-3.7,11.024,11.024,0,0,0,2.9,2.316ZM7.752.156a3.278,3.278,0,0,0,2.616-1.248L9.96-1.548A2.8,2.8,0,0,1,7.788-.492C5.952-.492,4.812-2.016,4.812-4.4c0-2.364,1.164-3.852,3.012-3.852a2.459,2.459,0,0,1,1.9.876l.408-.468A3.026,3.026,0,0,0,7.824-8.9C5.6-8.9,4.056-7.176,4.056-4.38S5.592.156,7.752.156Z" transform="translate(304.925 125.696)"/>
    <path id="패스_9303" data-name="패스 9303" class="cls-2" d="M1.272,0H3.864C5.832,0,7.128-.864,7.128-2.556a2.028,2.028,0,0,0-1.872-2.1v-.06A1.88,1.88,0,0,0,6.6-6.624C6.6-8.1,5.448-8.748,3.684-8.748H1.272Zm.72-4.932V-8.16H3.528c1.548,0,2.352.432,2.352,1.62,0,1-.7,1.608-2.424,1.608Zm0,4.332V-4.356H3.7c1.74,0,2.724.576,2.724,1.8C6.42-1.2,5.388-.6,3.7-.6ZM8.136,2.316A11.024,11.024,0,0,0,9.888-3.7,11.065,11.065,0,0,0,8.136-9.72L7.7-9.492A11.065,11.065,0,0,1,9.288-3.7,11.034,11.034,0,0,1,7.7,2.1Z" transform="translate(315.836 125.696)"/>
    <path id="패스_9307" data-name="패스 9307" class="cls-2" d="M1.272,0h.684V-5.244c0-.876-.06-1.692-.1-2.532h.06L2.9-6.024,6.468,0h.744V-8.748H6.528v5.184c0,.852.048,1.728.1,2.592h-.06L5.592-2.736,2.016-8.748H1.272ZM11.916.156c1.548,0,2.892-1.224,2.892-3.348s-1.344-3.372-2.892-3.372S9.024-5.328,9.024-3.192,10.368.156,11.916.156Zm0-.6c-1.248,0-2.16-1.116-2.16-2.748s.912-2.76,2.16-2.76,2.172,1.128,2.172,2.76S13.164-.444,11.916-.444ZM16.548,0h.7V-4.3C17.712-5.484,18.4-5.9,18.96-5.9a1.353,1.353,0,0,1,.588.108l.144-.624a1.289,1.289,0,0,0-.648-.144,2.2,2.2,0,0,0-1.812,1.356h-.024L17.124-6.4h-.576Z" transform="translate(373.807 104.121)"/>
    <path id="패스_9308" data-name="패스 9308" class="cls-2" d="M3,.156a3.619,3.619,0,0,0,1.068-.24L3.9-.624a2.237,2.237,0,0,1-.78.18c-.852,0-1.068-.528-1.068-1.332V-5.808H3.888V-6.4H2.052V-8.244H1.464L1.38-6.4l-1.02.06v.528h1v3.984C1.356-.636,1.74.156,3,.156ZM5.292,0h.7V-4.788C6.732-5.556,7.26-5.94,8-5.94c.984,0,1.4.612,1.4,1.944V0h.7V-4.092c0-1.644-.612-2.472-1.944-2.472A3.116,3.116,0,0,0,5.976-5.412L5.988-6.8V-9.54h-.7Z" transform="translate(394.406 104.121)"/>
    <path id="패스_9309" data-name="패스 9309" class="cls-2" d="M2-3.516,2.544-5.1c.348-1.02.648-1.944.948-3H3.54c.312,1.056.6,1.98.96,3l.528,1.584ZM6.192,0H6.96L3.9-8.748H3.156L.1,0h.72l1-2.94H5.22Z" transform="translate(367.314 120.621)"/>
    <path id="패스_9310" data-name="패스 9310" class="cls-2" d="M1.2,0h.7V-4.788A2.7,2.7,0,0,1,3.744-5.94c.948,0,1.38.612,1.38,1.944V0h.7V-4.788A2.7,2.7,0,0,1,7.668-5.94c.936,0,1.38.612,1.38,1.944V0h.7V-4.092c0-1.644-.636-2.472-1.92-2.472a3.2,3.2,0,0,0-2.16,1.3A1.657,1.657,0,0,0,3.9-6.564a2.97,2.97,0,0,0-2.016,1.14H1.86L1.776-6.4H1.2ZM14.352.156a3.579,3.579,0,0,0,2.04-.624l-.264-.516a2.864,2.864,0,0,1-1.7.552,2.422,2.422,0,0,1-2.34-2.652H16.62a3.319,3.319,0,0,0,.036-.5c0-1.872-.924-2.976-2.472-2.976-1.452,0-2.808,1.3-2.808,3.372A3.03,3.03,0,0,0,14.352.156ZM12.084-3.636A2.278,2.278,0,0,1,14.2-5.964c1.116,0,1.824.78,1.824,2.328ZM18.216,0h.7V-4.3C19.38-5.484,20.064-5.9,20.628-5.9a1.353,1.353,0,0,1,.588.108l.144-.624a1.289,1.289,0,0,0-.648-.144A2.2,2.2,0,0,0,18.9-5.208h-.024L18.792-6.4h-.576Z" transform="translate(374.562 120.621)"/>
    <path id="패스_9311" data-name="패스 9311" class="cls-2" d="M1.2,0h.7V-6.4H1.2Zm.36-7.9a.566.566,0,0,0,.588-.552.564.564,0,0,0-.588-.576.557.557,0,0,0-.588.576A.559.559,0,0,0,1.56-7.9ZM6.54.156A3.1,3.1,0,0,0,8.58-.672l-.336-.48a2.555,2.555,0,0,1-1.668.708c-1.344,0-2.232-1.116-2.232-2.748s.972-2.76,2.244-2.76A2.1,2.1,0,0,1,8.052-5.3l.4-.48a2.705,2.705,0,0,0-1.872-.78A3.056,3.056,0,0,0,3.612-3.192C3.612-1.068,4.872.156,6.54.156Z" transform="translate(396.546 120.621)"/>
    <path id="패스_9312" data-name="패스 9312" class="cls-2" d="M2.616.156A3.687,3.687,0,0,0,4.848-.816h.024L4.944,0h.588V-4.056c0-1.416-.54-2.508-2.064-2.508a4.436,4.436,0,0,0-2.424.84l.312.5a3.458,3.458,0,0,1,2.016-.732c1.212,0,1.488.984,1.464,1.932-2.82.324-4.08,1-4.08,2.412A1.688,1.688,0,0,0,2.616.156ZM2.76-.432A1.153,1.153,0,0,1,1.452-1.644c0-.984.864-1.572,3.384-1.86v2.076A3.152,3.152,0,0,1,2.76-.432Z" transform="translate(405.712 120.621)"/>
    <path id="패스_9319" data-name="패스 9319" class="cls-2" d="M1.272,0h.684V-5.244c0-.876-.06-1.692-.1-2.532h.06L2.9-6.024,6.468,0h.744V-8.748H6.528v5.184c0,.852.048,1.728.1,2.592h-.06L5.592-2.736,2.016-8.748H1.272ZM11.916.156c1.548,0,2.892-1.224,2.892-3.348s-1.344-3.372-2.892-3.372S9.024-5.328,9.024-3.192,10.368.156,11.916.156Zm0-.6c-1.248,0-2.16-1.116-2.16-2.748s.912-2.76,2.16-2.76,2.172,1.128,2.172,2.76S13.164-.444,11.916-.444ZM16.548,0h.7V-4.3C17.712-5.484,18.4-5.9,18.96-5.9a1.353,1.353,0,0,1,.588.108l.144-.624a1.289,1.289,0,0,0-.648-.144,2.2,2.2,0,0,0-1.812,1.356h-.024L17.124-6.4h-.576Z" transform="translate(440.618 104.121)"/>
    <path id="패스_9322" data-name="패스 9322" class="cls-2" d="M3,.156a3.619,3.619,0,0,0,1.068-.24L3.9-.624a2.237,2.237,0,0,1-.78.18c-.852,0-1.068-.528-1.068-1.332V-5.808H3.888V-6.4H2.052V-8.244H1.464L1.38-6.4l-1.02.06v.528h1v3.984C1.356-.636,1.74.156,3,.156ZM5.292,0h.7V-4.788C6.732-5.556,7.26-5.94,8-5.94c.984,0,1.4.612,1.4,1.944V0h.7V-4.092c0-1.644-.612-2.472-1.944-2.472A3.116,3.116,0,0,0,5.976-5.412L5.988-6.8V-9.54h-.7Z" transform="translate(461.218 104.121)"/>
    <path id="패스_9320" data-name="패스 9320" class="cls-2" d="M2-3.516,2.544-5.1c.348-1.02.648-1.944.948-3H3.54c.312,1.056.6,1.98.96,3l.528,1.584ZM6.192,0H6.96L3.9-8.748H3.156L.1,0h.72l1-2.94H5.22Z" transform="translate(434.125 120.621)"/>
    <path id="패스_9321" data-name="패스 9321" class="cls-2" d="M1.2,0h.7V-4.788A2.7,2.7,0,0,1,3.744-5.94c.948,0,1.38.612,1.38,1.944V0h.7V-4.788A2.7,2.7,0,0,1,7.668-5.94c.936,0,1.38.612,1.38,1.944V0h.7V-4.092c0-1.644-.636-2.472-1.92-2.472a3.2,3.2,0,0,0-2.16,1.3A1.657,1.657,0,0,0,3.9-6.564a2.97,2.97,0,0,0-2.016,1.14H1.86L1.776-6.4H1.2ZM14.352.156a3.579,3.579,0,0,0,2.04-.624l-.264-.516a2.864,2.864,0,0,1-1.7.552,2.422,2.422,0,0,1-2.34-2.652H16.62a3.319,3.319,0,0,0,.036-.5c0-1.872-.924-2.976-2.472-2.976-1.452,0-2.808,1.3-2.808,3.372A3.03,3.03,0,0,0,14.352.156ZM12.084-3.636A2.278,2.278,0,0,1,14.2-5.964c1.116,0,1.824.78,1.824,2.328ZM18.216,0h.7V-4.3C19.38-5.484,20.064-5.9,20.628-5.9a1.353,1.353,0,0,1,.588.108l.144-.624a1.289,1.289,0,0,0-.648-.144A2.2,2.2,0,0,0,18.9-5.208h-.024L18.792-6.4h-.576Z" transform="translate(441.374 120.621)"/>
    <path id="패스_9323" data-name="패스 9323" class="cls-2" d="M1.2,0h.7V-6.4H1.2Zm.36-7.9a.566.566,0,0,0,.588-.552.564.564,0,0,0-.588-.576.557.557,0,0,0-.588.576A.559.559,0,0,0,1.56-7.9ZM6.54.156A3.1,3.1,0,0,0,8.58-.672l-.336-.48a2.555,2.555,0,0,1-1.668.708c-1.344,0-2.232-1.116-2.232-2.748s.972-2.76,2.244-2.76A2.1,2.1,0,0,1,8.052-5.3l.4-.48a2.705,2.705,0,0,0-1.872-.78A3.056,3.056,0,0,0,3.612-3.192C3.612-1.068,4.872.156,6.54.156Z" transform="translate(463.358 120.621)"/>
    <path id="패스_9324" data-name="패스 9324" class="cls-2" d="M2.616.156A3.687,3.687,0,0,0,4.848-.816h.024L4.944,0h.588V-4.056c0-1.416-.54-2.508-2.064-2.508a4.436,4.436,0,0,0-2.424.84l.312.5a3.458,3.458,0,0,1,2.016-.732c1.212,0,1.488.984,1.464,1.932-2.82.324-4.08,1-4.08,2.412A1.688,1.688,0,0,0,2.616.156ZM2.76-.432A1.153,1.153,0,0,1,1.452-1.644c0-.984.864-1.572,3.384-1.86v2.076A3.152,3.152,0,0,1,2.76-.432Z" transform="translate(472.523 120.621)"/>
    <path id="패스_9329" data-name="패스 9329" class="cls-2" d="M1.272,0H6.24V-.624H1.992V-4.332H5.46v-.612H1.992V-8.136H6.108v-.612H1.272Zm8.34.156a2.84,2.84,0,0,0,2.16-1.212h.036L11.868,0h.588V-6.4h-.7v4.68c-.72.864-1.248,1.248-1.992,1.248-.984,0-1.392-.612-1.392-1.92V-6.4h-.7V-2.3C7.68-.66,8.28.156,9.612.156ZM14.556,0h.7V-4.3C15.72-5.484,16.4-5.9,16.968-5.9a1.353,1.353,0,0,1,.588.108L17.7-6.42a1.289,1.289,0,0,0-.648-.144A2.2,2.2,0,0,0,15.24-5.208h-.024L15.132-6.4h-.576ZM20.8.156c1.548,0,2.892-1.224,2.892-3.348S22.344-6.564,20.8-6.564,17.9-5.328,17.9-3.192,19.248.156,20.8.156Zm0-.6c-1.248,0-2.16-1.116-2.16-2.748s.912-2.76,2.16-2.76,2.172,1.128,2.172,2.76S22.044-.444,20.8-.444Zm4.464,3.3h.7V.552L25.944-.624a3.16,3.16,0,0,0,1.884.78c1.5,0,2.82-1.272,2.82-3.456,0-1.968-.864-3.264-2.568-3.264a3.719,3.719,0,0,0-2.136.948H25.92l-.084-.78H25.26ZM27.768-.456a2.935,2.935,0,0,1-1.812-.78v-3.7a3.207,3.207,0,0,1,1.992-1.02c1.428,0,1.956,1.116,1.956,2.652C29.9-1.584,29.016-.456,27.768-.456Z" transform="translate(503.938 112.371)"/>
    <path id="패스_9330" data-name="패스 9330" class="cls-2" d="M3.648.156a3.579,3.579,0,0,0,2.04-.624L5.424-.984a2.864,2.864,0,0,1-1.7.552A2.422,2.422,0,0,1,1.38-3.084H5.916a3.319,3.319,0,0,0,.036-.5c0-1.872-.924-2.976-2.472-2.976-1.452,0-2.808,1.3-2.808,3.372A3.03,3.03,0,0,0,3.648.156ZM1.38-3.636A2.278,2.278,0,0,1,3.492-5.964c1.116,0,1.824.78,1.824,2.328Z" transform="translate(535.453 112.371)"/>
    <path id="패스_9337" data-name="패스 9337" class="cls-2" d="M1.272,0h.72V-8.748h-.72ZM4.224,0h.7V-4.788C5.664-5.556,6.192-5.94,6.936-5.94c.984,0,1.4.612,1.4,1.944V0h.7V-4.092c0-1.644-.612-2.472-1.944-2.472a3.146,3.146,0,0,0-2.184,1.14H4.884L4.8-6.4H4.224ZM12.9.156a3.619,3.619,0,0,0,1.068-.24L13.8-.624a2.237,2.237,0,0,1-.78.18c-.852,0-1.068-.528-1.068-1.332V-5.808h1.836V-6.4H11.952V-8.244h-.588L11.28-6.4l-1.02.06v.528h1v3.984C11.256-.636,11.64.156,12.9.156Zm4.476,0a3.579,3.579,0,0,0,2.04-.624l-.264-.516a2.864,2.864,0,0,1-1.7.552,2.422,2.422,0,0,1-2.34-2.652h4.536a3.319,3.319,0,0,0,.036-.5c0-1.872-.924-2.976-2.472-2.976-1.452,0-2.808,1.3-2.808,3.372A3.03,3.03,0,0,0,17.376.156ZM15.108-3.636A2.278,2.278,0,0,1,17.22-5.964c1.116,0,1.824.78,1.824,2.328ZM21.144,0h.7V-4.3C22.308-5.484,22.992-5.9,23.556-5.9a1.353,1.353,0,0,1,.588.108l.144-.624a1.289,1.289,0,0,0-.648-.144,2.2,2.2,0,0,0-1.812,1.356H21.8L21.72-6.4h-.576Z" transform="translate(560.398 109.196)"/>
    <path id="패스_9338" data-name="패스 9338" class="cls-2" d="M1.2,0h.7V-4.788C2.64-5.556,3.168-5.94,3.912-5.94c.984,0,1.4.612,1.4,1.944V0h.7V-4.092c0-1.644-.612-2.472-1.944-2.472a3.146,3.146,0,0,0-2.184,1.14H1.86L1.776-6.4H1.2ZM9.492.156a3.687,3.687,0,0,0,2.232-.972h.024L11.82,0h.588V-4.056c0-1.416-.54-2.508-2.064-2.508a4.436,4.436,0,0,0-2.424.84l.312.5a3.458,3.458,0,0,1,2.016-.732c1.212,0,1.488.984,1.464,1.932-2.82.324-4.08,1-4.08,2.412A1.688,1.688,0,0,0,9.492.156Zm.144-.588A1.153,1.153,0,0,1,8.328-1.644c0-.984.864-1.572,3.384-1.86v2.076A3.152,3.152,0,0,1,9.636-.432Zm6.408.588a3.619,3.619,0,0,0,1.068-.24l-.168-.54a2.237,2.237,0,0,1-.78.18c-.852,0-1.068-.528-1.068-1.332V-5.808h1.836V-6.4H15.1V-8.244h-.588L14.424-6.4l-1.02.06v.528h1v3.984C14.4-.636,14.784.156,16.044.156Z" transform="translate(585.641 109.196)"/>
    <path id="패스_9342" data-name="패스 9342" class="cls-2" d="M1.2,0h.7V-6.4H1.2Zm.36-7.9a.566.566,0,0,0,.588-.552.564.564,0,0,0-.588-.576.557.557,0,0,0-.588.576A.559.559,0,0,0,1.56-7.9ZM6.408.156C7.956.156,9.3-1.068,9.3-3.192S7.956-6.564,6.408-6.564,3.516-5.328,3.516-3.192,4.86.156,6.408.156Zm0-.6c-1.248,0-2.16-1.116-2.16-2.748s.912-2.76,2.16-2.76S8.58-4.824,8.58-3.192,7.656-.444,6.408-.444ZM10.932,0h.7V-4.788c.744-.768,1.272-1.152,2.016-1.152.984,0,1.4.612,1.4,1.944V0h.7V-4.092c0-1.644-.612-2.472-1.944-2.472a3.146,3.146,0,0,0-2.184,1.14h-.024L11.508-6.4h-.576Zm8.292.156a3.687,3.687,0,0,0,2.232-.972h.024L21.552,0h.588V-4.056c0-1.416-.54-2.508-2.064-2.508a4.436,4.436,0,0,0-2.424.84l.312.5a3.458,3.458,0,0,1,2.016-.732c1.212,0,1.488.984,1.464,1.932-2.82.324-4.08,1-4.08,2.412A1.688,1.688,0,0,0,19.224.156Zm.144-.588A1.153,1.153,0,0,1,18.06-1.644c0-.984.864-1.572,3.384-1.86v2.076A3.152,3.152,0,0,1,19.368-.432Zm5.616.588a1.41,1.41,0,0,0,.468-.072l-.108-.552a1.073,1.073,0,0,1-.228.024c-.168,0-.288-.132-.288-.432V-9.54h-.7V-.948C24.132-.2,24.408.156,24.984.156Z" transform="translate(603.469 109.196)"/>
    <path id="패스_9345" data-name="패스 9345" class="cls-2" transform="translate(630.396 109.196)"/>
    <path id="패스_9339" data-name="패스 9339" class="cls-2" d="M2.9,2.316,3.336,2.1A11.034,11.034,0,0,1,1.752-3.7a11.065,11.065,0,0,1,1.584-5.8L2.9-9.72A11.065,11.065,0,0,0,1.152-3.7,11.024,11.024,0,0,0,2.9,2.316Z" transform="translate(562.689 125.696)"/>
    <path id="패스_9340" data-name="패스 9340" class="cls-2" d="M2.184,0h.84L4.068-3.828c.2-.624.348-1.224.492-1.86h.06c.18.636.3,1.224.48,1.836L6.18,0h.9l1.8-6.4H8.2L7.1-2.364c-.156.612-.3,1.164-.444,1.74H6.612C6.444-1.2,6.3-1.752,6.144-2.364L5-6.4H4.236L3.1-2.364c-.156.6-.3,1.164-.456,1.74H2.58c-.12-.576-.264-1.128-.408-1.74L1.056-6.4H.312Zm9.492.156a3.687,3.687,0,0,0,2.232-.972h.024L14,0h.588V-4.056c0-1.416-.54-2.508-2.064-2.508a4.436,4.436,0,0,0-2.424.84l.312.5a3.458,3.458,0,0,1,2.016-.732c1.212,0,1.488.984,1.464,1.932-2.82.324-4.08,1-4.08,2.412A1.688,1.688,0,0,0,11.676.156Zm.144-.588a1.153,1.153,0,0,1-1.308-1.212c0-.984.864-1.572,3.384-1.86v2.076A3.152,3.152,0,0,1,11.82-.432Zm6.648.588a3.619,3.619,0,0,0,1.068-.24l-.168-.54a2.237,2.237,0,0,1-.78.18c-.852,0-1.068-.528-1.068-1.332V-5.808h1.836V-6.4H17.52V-8.244h-.588L16.848-6.4l-1.02.06v.528h1v3.984C16.824-.636,17.208.156,18.468.156Z" transform="translate(566.116 125.696)"/>
    <path id="패스_9341" data-name="패스 9341" class="cls-2" d="M3.648.156a3.579,3.579,0,0,0,2.04-.624L5.424-.984a2.864,2.864,0,0,1-1.7.552A2.422,2.422,0,0,1,1.38-3.084H5.916a3.319,3.319,0,0,0,.036-.5c0-1.872-.924-2.976-2.472-2.976-1.452,0-2.808,1.3-2.808,3.372A3.03,3.03,0,0,0,3.648.156ZM1.38-3.636A2.278,2.278,0,0,1,3.492-5.964c1.116,0,1.824.78,1.824,2.328ZM7.656,0h.7V-4.3C8.82-5.484,9.5-5.9,10.068-5.9a1.353,1.353,0,0,1,.588.108L10.8-6.42a1.289,1.289,0,0,0-.648-.144A2.2,2.2,0,0,0,8.34-5.208H8.316L8.232-6.4H7.656Zm6.972,2.856h.7V.552L15.312-.624A3.16,3.16,0,0,0,17.2.156c1.5,0,2.82-1.272,2.82-3.456,0-1.968-.864-3.264-2.568-3.264a3.719,3.719,0,0,0-2.136.948h-.024L15.2-6.4h-.576ZM17.136-.456a2.935,2.935,0,0,1-1.812-.78v-3.7a3.207,3.207,0,0,1,1.992-1.02c1.428,0,1.956,1.116,1.956,2.652C19.272-1.584,18.384-.456,17.136-.456ZM21.888,0h.7V-6.4h-.7Zm.36-7.9a.566.566,0,0,0,.588-.552.564.564,0,0,0-.588-.576.557.557,0,0,0-.588.576A.559.559,0,0,0,22.248-7.9Z" transform="translate(586.035 125.696)"/>
    <path id="패스_9343" data-name="패스 9343" class="cls-2" d="M1.2,2.856h.7V.552L1.884-.624a3.16,3.16,0,0,0,1.884.78c1.5,0,2.82-1.272,2.82-3.456,0-1.968-.864-3.264-2.568-3.264a3.719,3.719,0,0,0-2.136.948H1.86L1.776-6.4H1.2ZM3.708-.456A2.935,2.935,0,0,1,1.9-1.236v-3.7a3.207,3.207,0,0,1,1.992-1.02c1.428,0,1.956,1.116,1.956,2.652C5.844-1.584,4.956-.456,3.708-.456Zm7.2.612a3.579,3.579,0,0,0,2.04-.624l-.264-.516a2.864,2.864,0,0,1-1.7.552A2.422,2.422,0,0,1,8.64-3.084h4.536a3.319,3.319,0,0,0,.036-.5c0-1.872-.924-2.976-2.472-2.976-1.452,0-2.808,1.3-2.808,3.372A3.03,3.03,0,0,0,10.908.156ZM8.64-3.636a2.278,2.278,0,0,1,2.112-2.328c1.116,0,1.824.78,1.824,2.328Z" transform="translate(610.572 125.696)"/>
    <path id="패스_9344" data-name="패스 9344" class="cls-2" d="M.876,2.316A11.024,11.024,0,0,0,2.628-3.7,11.065,11.065,0,0,0,.876-9.72l-.432.228A11.065,11.065,0,0,1,2.028-3.7,11.034,11.034,0,0,1,.444,2.1Z" transform="translate(624.276 125.696)"/>
    <path id="패스_9358" data-name="패스 9358" class="cls-2" d="M4.416.156A3.278,3.278,0,0,0,7.032-1.092l-.408-.456A2.8,2.8,0,0,1,4.452-.492C2.616-.492,1.476-2.016,1.476-4.4c0-2.364,1.164-3.852,3.012-3.852a2.459,2.459,0,0,1,1.9.876l.408-.468A3.026,3.026,0,0,0,4.488-8.9C2.268-8.9.72-7.176.72-4.38S2.256.156,4.416.156ZM8.484,0h.7V-4.788C9.924-5.556,10.452-5.94,11.2-5.94c.984,0,1.4.612,1.4,1.944V0h.7V-4.092c0-1.644-.612-2.472-1.944-2.472A3.116,3.116,0,0,0,9.168-5.412L9.18-6.8V-9.54h-.7Zm6.828,0h.7V-6.4h-.7Zm.36-7.9a.566.566,0,0,0,.588-.552.564.564,0,0,0-.588-.576.557.557,0,0,0-.588.576A.559.559,0,0,0,15.672-7.9ZM18.156,0h.7V-4.788c.744-.768,1.272-1.152,2.016-1.152.984,0,1.4.612,1.4,1.944V0h.7V-4.092c0-1.644-.612-2.472-1.944-2.472a3.146,3.146,0,0,0-2.184,1.14h-.024L18.732-6.4h-.576Zm8.292.156A3.687,3.687,0,0,0,28.68-.816H28.7L28.776,0h.588V-4.056c0-1.416-.54-2.508-2.064-2.508a4.436,4.436,0,0,0-2.424.84l.312.5A3.458,3.458,0,0,1,27.2-5.952c1.212,0,1.488.984,1.464,1.932-2.82.324-4.08,1-4.08,2.412A1.688,1.688,0,0,0,26.448.156Zm.144-.588a1.153,1.153,0,0,1-1.308-1.212c0-.984.864-1.572,3.384-1.86v2.076A3.152,3.152,0,0,1,26.592-.432Z" transform="translate(651.722 112.371)"/>
    <path id="패스_9357" data-name="패스 9357" class="cls-2" d="M4.416.156A3.278,3.278,0,0,0,7.032-1.092l-.408-.456A2.8,2.8,0,0,1,4.452-.492C2.616-.492,1.476-2.016,1.476-4.4c0-2.364,1.164-3.852,3.012-3.852a2.459,2.459,0,0,1,1.9.876l.408-.468A3.026,3.026,0,0,0,4.488-8.9C2.268-8.9.72-7.176.72-4.38S2.256.156,4.416.156ZM8.484,0h.7V-4.788C9.924-5.556,10.452-5.94,11.2-5.94c.984,0,1.4.612,1.4,1.944V0h.7V-4.092c0-1.644-.612-2.472-1.944-2.472A3.116,3.116,0,0,0,9.168-5.412L9.18-6.8V-9.54h-.7Zm6.828,0h.7V-6.4h-.7Zm.36-7.9a.566.566,0,0,0,.588-.552.564.564,0,0,0-.588-.576.557.557,0,0,0-.588.576A.559.559,0,0,0,15.672-7.9ZM18.156,0h.7V-4.788c.744-.768,1.272-1.152,2.016-1.152.984,0,1.4.612,1.4,1.944V0h.7V-4.092c0-1.644-.612-2.472-1.944-2.472a3.146,3.146,0,0,0-2.184,1.14h-.024L18.732-6.4h-.576Zm8.292.156A3.687,3.687,0,0,0,28.68-.816H28.7L28.776,0h.588V-4.056c0-1.416-.54-2.508-2.064-2.508a4.436,4.436,0,0,0-2.424.84l.312.5A3.458,3.458,0,0,1,27.2-5.952c1.212,0,1.488.984,1.464,1.932-2.82.324-4.08,1-4.08,2.412A1.688,1.688,0,0,0,26.448.156Zm.144-.588a1.153,1.153,0,0,1-1.308-1.212c0-.984.864-1.572,3.384-1.86v2.076A3.152,3.152,0,0,1,26.592-.432Z" transform="translate(718.534 112.371)"/>
    <path id="패스_9355" data-name="패스 9355" class="cls-2" d="M1.272,0H6.24V-.624H1.992V-4.332H5.46v-.612H1.992V-8.136H6.108v-.612H1.272Zm8.34.156a2.84,2.84,0,0,0,2.16-1.212h.036L11.868,0h.588V-6.4h-.7v4.68c-.72.864-1.248,1.248-1.992,1.248-.984,0-1.392-.612-1.392-1.92V-6.4h-.7V-2.3C7.68-.66,8.28.156,9.612.156ZM14.556,0h.7V-4.3C15.72-5.484,16.4-5.9,16.968-5.9a1.353,1.353,0,0,1,.588.108L17.7-6.42a1.289,1.289,0,0,0-.648-.144A2.2,2.2,0,0,0,15.24-5.208h-.024L15.132-6.4h-.576ZM20.8.156c1.548,0,2.892-1.224,2.892-3.348S22.344-6.564,20.8-6.564,17.9-5.328,17.9-3.192,19.248.156,20.8.156Zm0-.6c-1.248,0-2.16-1.116-2.16-2.748s.912-2.76,2.16-2.76,2.172,1.128,2.172,2.76S22.044-.444,20.8-.444Zm4.464,3.3h.7V.552L25.944-.624a3.16,3.16,0,0,0,1.884.78c1.5,0,2.82-1.272,2.82-3.456,0-1.968-.864-3.264-2.568-3.264a3.719,3.719,0,0,0-2.136.948H25.92l-.084-.78H25.26ZM27.768-.456a2.935,2.935,0,0,1-1.812-.78v-3.7a3.207,3.207,0,0,1,1.992-1.02c1.428,0,1.956,1.116,1.956,2.652C29.9-1.584,29.016-.456,27.768-.456Z" transform="translate(781.388 112.371)"/>
    <path id="패스_9356" data-name="패스 9356" class="cls-2" d="M3.648.156a3.579,3.579,0,0,0,2.04-.624L5.424-.984a2.864,2.864,0,0,1-1.7.552A2.422,2.422,0,0,1,1.38-3.084H5.916a3.319,3.319,0,0,0,.036-.5c0-1.872-.924-2.976-2.472-2.976-1.452,0-2.808,1.3-2.808,3.372A3.03,3.03,0,0,0,3.648.156ZM1.38-3.636A2.278,2.278,0,0,1,3.492-5.964c1.116,0,1.824.78,1.824,2.328Z" transform="translate(812.904 112.371)"/>
    <g id="그룹_8506" data-name="그룹 8506" transform="translate(130.131 22.872)">
      <path id="패스_9183" data-name="패스 9183" class="cls-1" d="M0,0H-10V82.713H0"/>
    </g>
    <path id="패스_9243" data-name="패스 9243" class="cls-2" d="M1.144,0H6.37V-.988H4.459V-9.529h-.91a6.038,6.038,0,0,1-1.976.676V-8.1h1.69V-.988H1.144Z" transform="translate(14.517 112.474)"/>
    <path id="패스_9244" data-name="패스 9244" class="cls-2" d="M3.614.169C5.421.169,6.578-1.482,6.578-4.8S5.421-9.711,3.614-9.711.637-8.112.637-4.8,1.794.169,3.614.169Zm0-.949c-1.092,0-1.82-1.209-1.82-4.017,0-2.782.728-3.952,1.82-3.952S5.421-7.579,5.421-4.8C5.421-1.989,4.693-.78,3.614-.78Zm9.8.78h1.209V-8.515h2.886V-9.529H10.53v1.014h2.886Z" transform="translate(21.472 112.474)"/>
    <path id="패스_9245" data-name="패스 9245" class="cls-2" d="M4.043.169a4.2,4.2,0,0,0,2.34-.728l-.429-.78A3.043,3.043,0,0,1,4.186-.78a2.339,2.339,0,0,1-2.34-2.47H6.6a4.618,4.618,0,0,0,.052-.676c0-2.015-1.014-3.315-2.808-3.315A3.414,3.414,0,0,0,.663-3.523,3.374,3.374,0,0,0,4.043.169ZM1.833-4.095a2.172,2.172,0,0,1,2.028-2.2c1.105,0,1.755.767,1.755,2.2ZM10.244.169c1.664,0,2.574-.949,2.574-2.093,0-1.339-1.131-1.755-2.158-2.145-.793-.3-1.56-.546-1.56-1.222,0-.546.4-1.014,1.287-1.014a2.656,2.656,0,0,1,1.625.624l.572-.767a3.658,3.658,0,0,0-2.2-.793c-1.534,0-2.431.884-2.431,2,0,1.2,1.118,1.677,2.106,2.041.78.3,1.612.624,1.612,1.339,0,.611-.455,1.105-1.391,1.105A3.2,3.2,0,0,1,8.19-1.586l-.585.78A4.258,4.258,0,0,0,10.244.169Zm6.175,0a4.444,4.444,0,0,0,1.3-.26l-.234-.884a2.5,2.5,0,0,1-.806.182c-.819,0-1.092-.494-1.092-1.365V-6.1H17.5v-.962H15.587V-9.035H14.6l-.143,1.976-1.105.065v.9H14.4v3.913C14.4-.767,14.911.169,16.419.169ZM22.113,0h5.369V-1.027h-4.16v-8.5H22.113ZM30.68.169A3.782,3.782,0,0,0,33.02-.845h.039l.1.845h.975V-4.342c0-1.742-.728-2.9-2.444-2.9a5.31,5.31,0,0,0-2.782.923l.468.819A3.889,3.889,0,0,1,31.5-6.253c1.157,0,1.456.871,1.456,1.781-3,.338-4.342,1.105-4.342,2.639A1.914,1.914,0,0,0,30.68.169Zm.338-.949c-.7,0-1.248-.325-1.248-1.131,0-.91.806-1.495,3.185-1.781v1.976A2.885,2.885,0,0,1,31.018-.78Zm8.476.949c1.625,0,3.068-1.391,3.068-3.822,0-2.158-.988-3.588-2.821-3.588a3.556,3.556,0,0,0-2.21,1l.039-1.274v-2.834H36.387V0h.949l.1-.728h.039A3.127,3.127,0,0,0,39.494.169ZM39.3-.819A2.709,2.709,0,0,1,37.57-1.56v-3.7a2.915,2.915,0,0,1,1.9-.975c1.339,0,1.859,1.053,1.859,2.613C41.327-1.872,40.469-.819,39.3-.819Zm6.968.988c1.664,0,2.574-.949,2.574-2.093,0-1.339-1.131-1.755-2.158-2.145-.793-.3-1.56-.546-1.56-1.222,0-.546.4-1.014,1.287-1.014a2.656,2.656,0,0,1,1.625.624l.572-.767a3.658,3.658,0,0,0-2.2-.793c-1.534,0-2.431.884-2.431,2,0,1.2,1.118,1.677,2.106,2.041.78.3,1.612.624,1.612,1.339,0,.611-.455,1.105-1.391,1.105a3.2,3.2,0,0,1-2.093-.832l-.585.78A4.258,4.258,0,0,0,46.267.169Z" transform="translate(39.258 112.474)"/>
    <path id="패스_9184" data-name="패스 9184" class="cls-1" d="M143.109-67.453H417.686v-65H143.109Z" transform="translate(-14.68 312.967)"/>
    <path id="패스_9262" data-name="패스 9262" class="cls-2" d="M3.588.156C5.3.156,6.42-.876,6.42-2.22S5.58-4.1,4.584-4.548L3.276-5.124C2.64-5.4,1.788-5.772,1.788-6.768c0-.9.744-1.488,1.86-1.488a2.807,2.807,0,0,1,2.064.876l.408-.468A3.341,3.341,0,0,0,3.648-8.9a2.332,2.332,0,0,0-2.592,2.2A2.426,2.426,0,0,0,2.832-4.524l1.308.576c.864.384,1.548.72,1.548,1.776,0,1-.8,1.68-2.1,1.68A3.368,3.368,0,0,1,1.056-1.656l-.444.5A3.893,3.893,0,0,0,3.588.156Zm5.832,0a3.619,3.619,0,0,0,1.068-.24l-.168-.54a2.237,2.237,0,0,1-.78.18c-.852,0-1.068-.528-1.068-1.332V-5.808h1.836V-6.4H8.472V-8.244H7.884L7.8-6.4l-1.02.06v.528h1v3.984C7.776-.636,8.16.156,9.42.156Z" transform="translate(142.212 210.264)"/>
    <path id="패스_9263" data-name="패스 9263" class="cls-2" d="M2.616.156A3.687,3.687,0,0,0,4.848-.816h.024L4.944,0h.588V-4.056c0-1.416-.54-2.508-2.064-2.508a4.436,4.436,0,0,0-2.424.84l.312.5a3.458,3.458,0,0,1,2.016-.732c1.212,0,1.488.984,1.464,1.932-2.82.324-4.08,1-4.08,2.412A1.688,1.688,0,0,0,2.616.156ZM2.76-.432A1.153,1.153,0,0,1,1.452-1.644c0-.984.864-1.572,3.384-1.86v2.076A3.152,3.152,0,0,1,2.76-.432ZM7.512,0h.7V-4.788C8.952-5.556,9.48-5.94,10.224-5.94c.984,0,1.4.612,1.4,1.944V0h.7V-4.092c0-1.644-.612-2.472-1.944-2.472A3.146,3.146,0,0,0,8.2-5.424H8.172L8.088-6.4H7.512ZM16.5.156A2.964,2.964,0,0,0,18.552-.8h.024l.084.8h.576V-9.54h-.7v2.6l.048,1.152a2.872,2.872,0,0,0-1.908-.78c-1.512,0-2.832,1.308-2.832,3.372C13.848-1.044,14.892.156,16.5.156Zm.12-.612c-1.3,0-2.028-1.08-2.028-2.736,0-1.572.936-2.76,2.16-2.76a2.582,2.582,0,0,1,1.788.792v3.7A2.678,2.678,0,0,1,16.62-.456Zm7.332.612c1.5,0,2.82-1.272,2.82-3.456,0-1.968-.864-3.264-2.568-3.264a3.538,3.538,0,0,0-2.16.984L22.08-6.8V-9.54h-.7V0h.564l.084-.648h.024A3.162,3.162,0,0,0,23.952.156Zm-.06-.612a2.884,2.884,0,0,1-1.812-.78v-3.7a3.151,3.151,0,0,1,1.992-1.02c1.428,0,1.956,1.116,1.956,2.652C26.028-1.584,25.14-.456,23.892-.456Zm4.3,3.336c1.176,0,1.824-1.032,2.208-2.136l2.5-7.14h-.708L30.876-2.484c-.18.552-.384,1.224-.576,1.8h-.06c-.228-.576-.468-1.248-.672-1.8L28.08-6.4h-.756L29.94.1l-.168.54c-.312.924-.828,1.62-1.6,1.62a1.646,1.646,0,0,1-.516-.1l-.156.588A1.7,1.7,0,0,0,28.188,2.88Z" transform="translate(153.429 210.264)"/>
    <text id="_3" data-name=" " class="cls-4" transform="translate(187.584 210.264)"><tspan x="0" y="0"> </tspan></text>
    <path id="패스_9264" data-name="패스 9264" class="cls-2" d="M1.272,0h.72V-3.7h1.6c1.944,0,3.144-.84,3.144-2.592,0-1.812-1.212-2.46-3.192-2.46H1.272Zm.72-4.3V-8.148H3.4c1.74,0,2.6.444,2.6,1.86S5.172-4.3,3.444-4.3ZM10.344.156c1.548,0,2.892-1.224,2.892-3.348s-1.344-3.372-2.892-3.372S7.452-5.328,7.452-3.192,8.8.156,10.344.156Zm0-.6c-1.248,0-2.16-1.116-2.16-2.748s.912-2.76,2.16-2.76,2.172,1.128,2.172,2.76S11.592-.444,10.344-.444ZM15.864,0h.84l1.044-3.828c.2-.624.348-1.224.492-1.86h.06c.18.636.3,1.224.48,1.836L19.86,0h.9l1.8-6.4h-.684L20.784-2.364c-.156.612-.3,1.164-.444,1.74h-.048c-.168-.576-.312-1.128-.468-1.74L18.684-6.4h-.768l-1.14,4.032c-.156.6-.3,1.164-.456,1.74h-.06c-.12-.576-.264-1.128-.408-1.74L14.736-6.4h-.744ZM26.292.156a3.579,3.579,0,0,0,2.04-.624l-.264-.516a2.864,2.864,0,0,1-1.7.552,2.422,2.422,0,0,1-2.34-2.652H28.56a3.319,3.319,0,0,0,.036-.5c0-1.872-.924-2.976-2.472-2.976-1.452,0-2.808,1.3-2.808,3.372A3.03,3.03,0,0,0,26.292.156ZM24.024-3.636a2.278,2.278,0,0,1,2.112-2.328c1.116,0,1.824.78,1.824,2.328ZM30.072,0h.7V-4.3C31.236-5.484,31.92-5.9,32.484-5.9a1.353,1.353,0,0,1,.588.108l.144-.624a1.289,1.289,0,0,0-.648-.144,2.2,2.2,0,0,0-1.812,1.356h-.024L30.648-6.4h-.576Z" transform="translate(147.626 226.764)"/>
    <path id="패스_9265" data-name="패스 9265" class="cls-2" d="M1.272,0H6.24V-.624H1.992V-4.332H5.46v-.612H1.992V-8.136H6.108v-.612H1.272ZM8.628-8.148H10.3c1.512,0,2.352.468,2.352,1.74s-.84,1.86-2.352,1.86H8.628ZM13.56,0,11.2-4.008a2.3,2.3,0,0,0,2.184-2.4c0-1.7-1.176-2.34-2.916-2.34H7.908V0h.72V-3.948h1.788L12.744,0Zm1.4,0h.72V-3.7h1.6c1.944,0,3.144-.84,3.144-2.592,0-1.812-1.212-2.46-3.192-2.46H14.964Zm.72-4.3V-8.148h1.4c1.74,0,2.6.444,2.6,1.86S18.864-4.3,17.136-4.3Z" transform="translate(224.079 218.514)"/>
    <text id="_4" data-name=" " class="cls-5" transform="translate(245.726 218.514)"><tspan x="0" y="0"> </tspan></text>
    <path id="패스_9266" data-name="패스 9266" class="cls-2" d="M1.272,0H3.348c2.676,0,4-1.728,4-4.4S6.024-8.748,3.336-8.748H1.272Zm.72-.612V-8.148H3.264c2.3,0,3.324,1.476,3.324,3.744S5.568-.612,3.264-.612Zm9.624.768c1.548,0,2.892-1.224,2.892-3.348s-1.344-3.372-2.892-3.372S8.724-5.328,8.724-3.192,10.068.156,11.616.156Zm0-.6c-1.248,0-2.16-1.116-2.16-2.748s.912-2.76,2.16-2.76,2.172,1.128,2.172,2.76S12.864-.444,11.616-.444ZM16.368,0h.7V-4.788A2.7,2.7,0,0,1,18.912-5.94c.948,0,1.38.612,1.38,1.944V0h.7V-4.788A2.7,2.7,0,0,1,22.836-5.94c.936,0,1.38.612,1.38,1.944V0h.7V-4.092c0-1.644-.636-2.472-1.92-2.472a3.2,3.2,0,0,0-2.16,1.3,1.657,1.657,0,0,0-1.764-1.3,2.97,2.97,0,0,0-2.016,1.14h-.024L16.944-6.4h-.576ZM29.652.156a3.579,3.579,0,0,0,2.04-.624l-.264-.516a2.864,2.864,0,0,1-1.7.552,2.422,2.422,0,0,1-2.34-2.652H31.92a3.319,3.319,0,0,0,.036-.5c0-1.872-.924-2.976-2.472-2.976-1.452,0-2.808,1.3-2.808,3.372A3.03,3.03,0,0,0,29.652.156ZM27.384-3.636A2.278,2.278,0,0,1,29.5-5.964c1.116,0,1.824.78,1.824,2.328ZM35.22.156c1.416,0,2.2-.84,2.2-1.824,0-1.236-1.08-1.584-2.064-1.956-.744-.276-1.488-.54-1.488-1.248,0-.576.432-1.1,1.38-1.1a2.453,2.453,0,0,1,1.524.576l.36-.48a3.089,3.089,0,0,0-1.86-.684c-1.344,0-2.1.792-2.1,1.728,0,1.1,1.056,1.5,2,1.836.744.264,1.548.612,1.548,1.368,0,.66-.492,1.212-1.464,1.212a2.93,2.93,0,0,1-2.016-.8l-.372.5A3.748,3.748,0,0,0,35.22.156Zm5.376,0a3.619,3.619,0,0,0,1.068-.24L41.5-.624a2.237,2.237,0,0,1-.78.18c-.852,0-1.068-.528-1.068-1.332V-5.808h1.836V-6.4H39.648V-8.244H39.06L38.976-6.4l-1.02.06v.528h1v3.984C38.952-.636,39.336.156,40.6.156ZM43.008,0h.7V-6.4h-.7Zm.36-7.9a.566.566,0,0,0,.588-.552.564.564,0,0,0-.588-.576.557.557,0,0,0-.588.576A.559.559,0,0,0,43.368-7.9ZM48.48.156a3.1,3.1,0,0,0,2.04-.828l-.336-.48a2.555,2.555,0,0,1-1.668.708c-1.344,0-2.232-1.116-2.232-2.748s.972-2.76,2.244-2.76a2.1,2.1,0,0,1,1.464.648l.4-.48a2.705,2.705,0,0,0-1.872-.78,3.056,3.056,0,0,0-2.964,3.372C45.552-1.068,46.812.156,48.48.156Z" transform="translate(278.885 218.976)"/>
    <path id="패스_9267" data-name="패스 9267" class="cls-2" d="M1.272,0H6.24V-.624H1.992V-4.332H5.46v-.612H1.992V-8.136H6.108v-.612H1.272Zm8.34.156a2.84,2.84,0,0,0,2.16-1.212h.036L11.868,0h.588V-6.4h-.7v4.68c-.72.864-1.248,1.248-1.992,1.248-.984,0-1.392-.612-1.392-1.92V-6.4h-.7V-2.3C7.68-.66,8.28.156,9.612.156ZM14.556,0h.7V-4.3C15.72-5.484,16.4-5.9,16.968-5.9a1.353,1.353,0,0,1,.588.108L17.7-6.42a1.289,1.289,0,0,0-.648-.144A2.2,2.2,0,0,0,15.24-5.208h-.024L15.132-6.4h-.576ZM20.8.156c1.548,0,2.892-1.224,2.892-3.348S22.344-6.564,20.8-6.564,17.9-5.328,17.9-3.192,19.248.156,20.8.156Zm0-.6c-1.248,0-2.16-1.116-2.16-2.748s.912-2.76,2.16-2.76,2.172,1.128,2.172,2.76S22.044-.444,20.8-.444Zm4.464,3.3h.7V.552L25.944-.624a3.16,3.16,0,0,0,1.884.78c1.5,0,2.82-1.272,2.82-3.456,0-1.968-.864-3.264-2.568-3.264a3.719,3.719,0,0,0-2.136.948H25.92l-.084-.78H25.26ZM27.768-.456a2.935,2.935,0,0,1-1.812-.78v-3.7a3.207,3.207,0,0,1,1.992-1.02c1.428,0,1.956,1.116,1.956,2.652C29.9-1.584,29.016-.456,27.768-.456Z" transform="translate(350.952 218.976)"/>
    <path id="패스_9268" data-name="패스 9268" class="cls-2" d="M3.648.156a3.579,3.579,0,0,0,2.04-.624L5.424-.984a2.864,2.864,0,0,1-1.7.552A2.422,2.422,0,0,1,1.38-3.084H5.916a3.319,3.319,0,0,0,.036-.5c0-1.872-.924-2.976-2.472-2.976-1.452,0-2.808,1.3-2.808,3.372A3.03,3.03,0,0,0,3.648.156ZM1.38-3.636A2.278,2.278,0,0,1,3.492-5.964c1.116,0,1.824.78,1.824,2.328Z" transform="translate(382.467 218.976)"/>
    <path id="패스_9259" data-name="패스 9259" class="cls-2" d="M.572,0H6.565V-1.027H3.926c-.481,0-1.066.052-1.56.091C4.6-3.055,6.1-4.992,6.1-6.89A2.614,2.614,0,0,0,3.328-9.711,3.645,3.645,0,0,0,.52-8.307l.689.676A2.669,2.669,0,0,1,3.185-8.736,1.675,1.675,0,0,1,4.94-6.851C4.94-5.213,3.562-3.315.572-.7ZM13.416,0h1.209V-8.515h2.886V-9.529H10.53v1.014h2.886Z" transform="translate(18.238 259.88)"/>
    <path id="패스_9260" data-name="패스 9260" class="cls-2" d="M4.043.169a4.2,4.2,0,0,0,2.34-.728l-.429-.78A3.043,3.043,0,0,1,4.186-.78a2.339,2.339,0,0,1-2.34-2.47H6.6a4.618,4.618,0,0,0,.052-.676c0-2.015-1.014-3.315-2.808-3.315A3.414,3.414,0,0,0,.663-3.523,3.374,3.374,0,0,0,4.043.169ZM1.833-4.095a2.172,2.172,0,0,1,2.028-2.2c1.105,0,1.755.767,1.755,2.2ZM10.244.169c1.664,0,2.574-.949,2.574-2.093,0-1.339-1.131-1.755-2.158-2.145-.793-.3-1.56-.546-1.56-1.222,0-.546.4-1.014,1.287-1.014a2.656,2.656,0,0,1,1.625.624l.572-.767a3.658,3.658,0,0,0-2.2-.793c-1.534,0-2.431.884-2.431,2,0,1.2,1.118,1.677,2.106,2.041.78.3,1.612.624,1.612,1.339,0,.611-.455,1.105-1.391,1.105A3.2,3.2,0,0,1,8.19-1.586l-.585.78A4.258,4.258,0,0,0,10.244.169Zm6.175,0a4.444,4.444,0,0,0,1.3-.26l-.234-.884a2.5,2.5,0,0,1-.806.182c-.819,0-1.092-.494-1.092-1.365V-6.1H17.5v-.962H15.587V-9.035H14.6l-.143,1.976-1.105.065v.9H14.4v3.913C14.4-.767,14.911.169,16.419.169ZM22.113,0h5.369V-1.027h-4.16v-8.5H22.113ZM30.68.169A3.782,3.782,0,0,0,33.02-.845h.039l.1.845h.975V-4.342c0-1.742-.728-2.9-2.444-2.9a5.31,5.31,0,0,0-2.782.923l.468.819A3.889,3.889,0,0,1,31.5-6.253c1.157,0,1.456.871,1.456,1.781-3,.338-4.342,1.105-4.342,2.639A1.914,1.914,0,0,0,30.68.169Zm.338-.949c-.7,0-1.248-.325-1.248-1.131,0-.91.806-1.495,3.185-1.781v1.976A2.885,2.885,0,0,1,31.018-.78Zm8.476.949c1.625,0,3.068-1.391,3.068-3.822,0-2.158-.988-3.588-2.821-3.588a3.556,3.556,0,0,0-2.21,1l.039-1.274v-2.834H36.387V0h.949l.1-.728h.039A3.127,3.127,0,0,0,39.494.169ZM39.3-.819A2.709,2.709,0,0,1,37.57-1.56v-3.7a2.915,2.915,0,0,1,1.9-.975c1.339,0,1.859,1.053,1.859,2.613C41.327-1.872,40.469-.819,39.3-.819Zm6.968.988c1.664,0,2.574-.949,2.574-2.093,0-1.339-1.131-1.755-2.158-2.145-.793-.3-1.56-.546-1.56-1.222,0-.546.4-1.014,1.287-1.014a2.656,2.656,0,0,1,1.625.624l.572-.767a3.658,3.658,0,0,0-2.2-.793c-1.534,0-2.431.884-2.431,2,0,1.2,1.118,1.677,2.106,2.041.78.3,1.612.624,1.612,1.339,0,.611-.455,1.105-1.391,1.105a3.2,3.2,0,0,1-2.093-.832l-.585.78A4.258,4.258,0,0,0,46.267.169Z" transform="translate(36.024 259.88)"/>
    <path id="패스_9269" data-name="패스 9269" class="cls-2" d="M1.144,0H6.37V-.988H4.459V-9.529h-.91a6.038,6.038,0,0,1-1.976.676V-8.1h1.69V-.988H1.144ZM13.416,0h1.209V-8.515h2.886V-9.529H10.53v1.014h2.886Z" transform="translate(456.045 258.354)"/>
    <path id="패스_9270" data-name="패스 9270" class="cls-2" d="M4.043.169a4.2,4.2,0,0,0,2.34-.728l-.429-.78A3.043,3.043,0,0,1,4.186-.78a2.339,2.339,0,0,1-2.34-2.47H6.6a4.618,4.618,0,0,0,.052-.676c0-2.015-1.014-3.315-2.808-3.315A3.414,3.414,0,0,0,.663-3.523,3.374,3.374,0,0,0,4.043.169ZM1.833-4.095a2.172,2.172,0,0,1,2.028-2.2c1.105,0,1.755.767,1.755,2.2ZM10.244.169c1.664,0,2.574-.949,2.574-2.093,0-1.339-1.131-1.755-2.158-2.145-.793-.3-1.56-.546-1.56-1.222,0-.546.4-1.014,1.287-1.014a2.656,2.656,0,0,1,1.625.624l.572-.767a3.658,3.658,0,0,0-2.2-.793c-1.534,0-2.431.884-2.431,2,0,1.2,1.118,1.677,2.106,2.041.78.3,1.612.624,1.612,1.339,0,.611-.455,1.105-1.391,1.105A3.2,3.2,0,0,1,8.19-1.586l-.585.78A4.258,4.258,0,0,0,10.244.169Zm6.175,0a4.444,4.444,0,0,0,1.3-.26l-.234-.884a2.5,2.5,0,0,1-.806.182c-.819,0-1.092-.494-1.092-1.365V-6.1H17.5v-.962H15.587V-9.035H14.6l-.143,1.976-1.105.065v.9H14.4v3.913C14.4-.767,14.911.169,16.419.169ZM22.113,0h5.369V-1.027h-4.16v-8.5H22.113ZM30.68.169A3.782,3.782,0,0,0,33.02-.845h.039l.1.845h.975V-4.342c0-1.742-.728-2.9-2.444-2.9a5.31,5.31,0,0,0-2.782.923l.468.819A3.889,3.889,0,0,1,31.5-6.253c1.157,0,1.456.871,1.456,1.781-3,.338-4.342,1.105-4.342,2.639A1.914,1.914,0,0,0,30.68.169Zm.338-.949c-.7,0-1.248-.325-1.248-1.131,0-.91.806-1.495,3.185-1.781v1.976A2.885,2.885,0,0,1,31.018-.78Zm8.476.949c1.625,0,3.068-1.391,3.068-3.822,0-2.158-.988-3.588-2.821-3.588a3.556,3.556,0,0,0-2.21,1l.039-1.274v-2.834H36.387V0h.949l.1-.728h.039A3.127,3.127,0,0,0,39.494.169ZM39.3-.819A2.709,2.709,0,0,1,37.57-1.56v-3.7a2.915,2.915,0,0,1,1.9-.975c1.339,0,1.859,1.053,1.859,2.613C41.327-1.872,40.469-.819,39.3-.819Z" transform="translate(473.831 258.354)"/>
    <path id="패스_9246" data-name="패스 9246" class="cls-2" d="M1.144,0H6.37V-.988H4.459V-9.529h-.91a6.038,6.038,0,0,1-1.976.676V-8.1h1.69V-.988H1.144Z" transform="translate(7.932 134.735)"/>
    <path id="패스_9247" data-name="패스 9247" class="cls-2" d="M2.574,0H3.809c.143-3.731.559-5.941,2.795-8.814v-.715H.637v1.014H5.252A14.112,14.112,0,0,0,2.574,0ZM7.787,0H13.78V-1.027H11.141c-.481,0-1.066.052-1.56.091,2.236-2.119,3.731-4.056,3.731-5.954a2.614,2.614,0,0,0-2.769-2.821,3.645,3.645,0,0,0-2.808,1.4l.689.676A2.669,2.669,0,0,1,10.4-8.736a1.675,1.675,0,0,1,1.755,1.885c0,1.638-1.378,3.536-4.368,6.149ZM18.642,0h5.642V-1.027H19.851V-4.5h3.614V-5.525H19.851v-2.99h4.29V-9.529h-5.5Z" transform="translate(14.29 134.735)"/>
    <path id="패스_9248" data-name="패스 9248" class="cls-2" d="M2.444.169a1.869,1.869,0,0,0,.689-.1l-.169-.91a1.038,1.038,0,0,1-.247.026c-.182,0-.338-.143-.338-.507v-9.022H1.2V-1.4C1.2-.4,1.56.169,2.444.169Zm5.3,0a4.2,4.2,0,0,0,2.34-.728l-.429-.78A3.043,3.043,0,0,1,7.891-.78a2.339,2.339,0,0,1-2.34-2.47h4.758a4.618,4.618,0,0,0,.052-.676c0-2.015-1.014-3.315-2.808-3.315A3.414,3.414,0,0,0,4.368-3.523,3.374,3.374,0,0,0,7.748.169ZM5.538-4.095a2.172,2.172,0,0,1,2.028-2.2c1.1,0,1.755.767,1.755,2.2ZM14.885.169a3.366,3.366,0,0,0,2.275-.9l-.507-.793a2.489,2.489,0,0,1-1.664.7c-1.3,0-2.184-1.079-2.184-2.7s.936-2.73,2.21-2.73a2.049,2.049,0,0,1,1.417.637l.611-.793a3.018,3.018,0,0,0-2.067-.832A3.437,3.437,0,0,0,11.57-3.523C11.57-1.183,13.013.169,14.885.169Z" transform="translate(39.266 134.735)"/>
    <path id="패스_9249" data-name="패스 9249" class="cls-2" d="M3.419.169a4.444,4.444,0,0,0,1.3-.26L4.485-.975a2.5,2.5,0,0,1-.806.182c-.819,0-1.092-.494-1.092-1.365V-6.1H4.5v-.962H2.587V-9.035H1.6L1.456-7.059.351-6.994v.9H1.4v3.913C1.4-.767,1.911.169,3.419.169ZM6.1,0H7.28V-4.537c.468-1.209,1.2-1.625,1.781-1.625a1.67,1.67,0,0,1,.689.117l.221-1.04a1.5,1.5,0,0,0-.754-.156,2.437,2.437,0,0,0-2,1.469H7.176l-.1-1.287H6.1Zm5.044,0h1.183V-7.059H11.141Zm.6-8.515a.773.773,0,0,0,.819-.767.751.751,0,0,0-.819-.767.751.751,0,0,0-.819.767A.773.773,0,0,0,11.739-8.515ZM17.5.169a3.366,3.366,0,0,0,2.275-.9l-.507-.793a2.489,2.489,0,0,1-1.664.7c-1.3,0-2.184-1.079-2.184-2.7s.936-2.73,2.21-2.73a2.049,2.049,0,0,1,1.417.637l.611-.793a3.018,3.018,0,0,0-2.067-.832,3.437,3.437,0,0,0-3.406,3.718C14.183-1.183,15.626.169,17.5.169ZM21.333,0h1.183V-7.059H21.333Zm.6-8.515a.773.773,0,0,0,.819-.767.751.751,0,0,0-.819-.767.751.751,0,0,0-.819.767A.773.773,0,0,0,21.931-8.515Zm5.2,8.684a4.444,4.444,0,0,0,1.3-.26L28.2-.975a2.5,2.5,0,0,1-.806.182c-.819,0-1.092-.494-1.092-1.365V-6.1H28.21v-.962H26.3V-9.035h-.988l-.143,1.976-1.1.065v.9h1.053v3.913C25.116-.767,25.623.169,27.131.169Z" transform="translate(57.212 134.735)"/>
    <path id="패스_9252" data-name="패스 9252" class="cls-2" d="M1.313,3.042c1.4,0,2.132-1.066,2.626-2.457L6.6-7.059H5.447L4.186-3.133c-.195.624-.4,1.339-.6,1.976H3.523c-.221-.637-.468-1.365-.676-1.976L1.4-7.059H.169L3,.013,2.847.546c-.286.871-.793,1.521-1.6,1.521A1.687,1.687,0,0,1,.715,1.95L.481,2.9A2.173,2.173,0,0,0,1.313,3.042Z" transform="translate(86.324 134.735)"/>
    <path id="패스_9250" data-name="패스 9250" class="cls-2" d="M3.952.169c1.989,0,3.237-1.2,3.237-2.7A2.655,2.655,0,0,0,5.226-5.083L3.861-5.668C3.12-5.98,2.288-6.331,2.288-7.254c0-.858.7-1.4,1.781-1.4a3.087,3.087,0,0,1,2.171.9l.637-.767A3.908,3.908,0,0,0,4.069-9.711c-1.729,0-3,1.066-3,2.535A2.692,2.692,0,0,0,3-4.732l1.378.6c.9.4,1.586.715,1.586,1.69,0,.936-.754,1.56-2,1.56A3.744,3.744,0,0,1,1.326-2.067l-.715.819A4.554,4.554,0,0,0,3.952.169Zm6.63,0a3.782,3.782,0,0,0,2.34-1.014h.039l.1.845h.975V-4.342c0-1.742-.728-2.9-2.444-2.9a5.31,5.31,0,0,0-2.782.923l.468.819A3.889,3.889,0,0,1,11.4-6.253c1.157,0,1.456.871,1.456,1.781-3,.338-4.342,1.105-4.342,2.639A1.914,1.914,0,0,0,10.582.169ZM10.92-.78c-.7,0-1.248-.325-1.248-1.131,0-.91.806-1.495,3.185-1.781v1.976A2.885,2.885,0,0,1,10.92-.78Zm8.8-9.5a3.094,3.094,0,0,0-1.183-.234c-1.4,0-2.054.9-2.054,2.327v1.131l-.962.065v.9h.962V0h1.183V-6.1h1.5v-.962h-1.5V-8.177c0-.91.325-1.391,1-1.391a2,2,0,0,1,.793.182ZM23.218.169a4.2,4.2,0,0,0,2.34-.728l-.429-.78a3.043,3.043,0,0,1-1.768.559,2.339,2.339,0,0,1-2.34-2.47h4.758a4.618,4.618,0,0,0,.052-.676c0-2.015-1.014-3.315-2.808-3.315a3.414,3.414,0,0,0-3.185,3.718A3.374,3.374,0,0,0,23.218.169Zm-2.21-4.264a2.172,2.172,0,0,1,2.028-2.2c1.1,0,1.755.767,1.755,2.2ZM29.653.169a4.444,4.444,0,0,0,1.3-.26l-.234-.884a2.5,2.5,0,0,1-.806.182c-.819,0-1.092-.494-1.092-1.365V-6.1h1.911v-.962H28.821V-9.035h-.988L27.69-7.059l-1.1.065v.9h1.053v3.913C27.638-.767,28.145.169,29.653.169Z" transform="translate(15.036 152.73)"/>
    <path id="패스_9251" data-name="패스 9251" class="cls-2" d="M1.313,3.042c1.4,0,2.132-1.066,2.626-2.457L6.6-7.059H5.447L4.186-3.133c-.195.624-.4,1.339-.6,1.976H3.523c-.221-.637-.468-1.365-.676-1.976L1.4-7.059H.169L3,.013,2.847.546c-.286.871-.793,1.521-1.6,1.521A1.687,1.687,0,0,1,.715,1.95L.481,2.9A2.173,2.173,0,0,0,1.313,3.042ZM14.586.169A3.684,3.684,0,0,0,17.511-1.2l-.663-.754a2.9,2.9,0,0,1-2.21,1.066c-1.82,0-2.964-1.508-2.964-3.913,0-2.379,1.2-3.861,3-3.861a2.6,2.6,0,0,1,1.95.91l.65-.78a3.523,3.523,0,0,0-2.613-1.183c-2.418,0-4.225,1.872-4.225,4.953S12.22.169,14.586.169Zm6.214,0A3.782,3.782,0,0,0,23.14-.845h.039l.1.845h.975V-4.342c0-1.742-.728-2.9-2.444-2.9a5.31,5.31,0,0,0-2.782.923L19.5-5.5a3.889,3.889,0,0,1,2.119-.754c1.157,0,1.456.871,1.456,1.781-3,.338-4.342,1.105-4.342,2.639A1.914,1.914,0,0,0,20.8.169Zm.338-.949c-.7,0-1.248-.325-1.248-1.131,0-.91.806-1.495,3.185-1.781v1.976A2.885,2.885,0,0,1,21.138-.78Zm7.215.949c1.664,0,2.574-.949,2.574-2.093,0-1.339-1.131-1.755-2.158-2.145-.793-.3-1.56-.546-1.56-1.222,0-.546.4-1.014,1.287-1.014a2.656,2.656,0,0,1,1.625.624l.572-.767a3.658,3.658,0,0,0-2.2-.793c-1.534,0-2.431.884-2.431,2,0,1.2,1.118,1.677,2.106,2.041.78.3,1.612.624,1.612,1.339,0,.611-.455,1.105-1.391,1.105A3.2,3.2,0,0,1,26.3-1.586l-.585.78A4.258,4.258,0,0,0,28.353.169Zm7.085,0a4.2,4.2,0,0,0,2.34-.728l-.429-.78a3.043,3.043,0,0,1-1.768.559,2.339,2.339,0,0,1-2.34-2.47H38a4.618,4.618,0,0,0,.052-.676c0-2.015-1.014-3.315-2.808-3.315a3.414,3.414,0,0,0-3.185,3.718A3.374,3.374,0,0,0,35.438.169Zm-2.21-4.264a2.172,2.172,0,0,1,2.028-2.2c1.1,0,1.755.767,1.755,2.2Z" transform="translate(47.073 152.73)"/>
    <path id="패스_9258" data-name="패스 9258" class="cls-2" d="M1.5-3.575l2.171-3.25c.273-.468.533-.936.767-1.4h.052c-.026.494-.078,1.261-.078,1.729v2.925Zm5.3,0H5.538V-9.529H4.225L.26-3.406v.78H4.407V0H5.538V-2.626H6.8Z" transform="translate(5.312 279.82)"/>
    <path id="패스_9256" data-name="패스 9256" class="cls-2" d="M3.614.169C5.421.169,6.578-1.482,6.578-4.8S5.421-9.711,3.614-9.711.637-8.112.637-4.8,1.794.169,3.614.169Zm0-.949c-1.092,0-1.82-1.209-1.82-4.017,0-2.782.728-3.952,1.82-3.952S5.421-7.579,5.421-4.8C5.421-1.989,4.693-.78,3.614-.78ZM11.427,0h5.642V-1.027H12.636V-4.5H16.25V-5.525H12.636v-2.99h4.29V-9.529h-5.5Z" transform="translate(12.852 279.82)"/>
    <path id="패스_9257" data-name="패스 9257" class="cls-2" d="M1.2,0H2.379V-5.122A2.685,2.685,0,0,1,4.316-6.2c.936,0,1.339.559,1.339,1.885V0H6.838V-4.472c0-1.807-.676-2.769-2.158-2.769a3.385,3.385,0,0,0-2.366,1.2H2.275l-.1-1.014H1.2Z" transform="translate(31.422 279.82)"/>
    <path id="패스_9255" data-name="패스 9255" class="cls-2" d="M2.717,0H4.095L6.6-7.059H5.434L4.095-3.042c-.208.689-.442,1.417-.65,2.08H3.393c-.221-.663-.442-1.391-.663-2.08L1.4-7.059H.169ZM7.969,0H9.152V-7.059H7.969Zm.6-8.515a.773.773,0,0,0,.819-.767.751.751,0,0,0-.819-.767.751.751,0,0,0-.819.767A.773.773,0,0,0,8.567-8.515Z" transform="translate(39.258 279.82)"/>
    <path id="패스_9253" data-name="패스 9253" class="cls-2" d="M1.2,0H2.379V-4.537c.468-1.209,1.2-1.625,1.781-1.625a1.67,1.67,0,0,1,.689.117l.221-1.04a1.5,1.5,0,0,0-.754-.156,2.437,2.437,0,0,0-2,1.469H2.275l-.1-1.287H1.2ZM8.84.169a3.37,3.37,0,0,0,3.276-3.692c0-2.353-1.547-3.718-3.276-3.718S5.564-5.876,5.564-3.523A3.37,3.37,0,0,0,8.84.169Zm0-.988C7.618-.819,6.8-1.9,6.8-3.523s.819-2.73,2.041-2.73,2.054,1.105,2.054,2.73S10.062-.819,8.84-.819ZM13.975,0h1.183V-5.122A2.685,2.685,0,0,1,17.1-6.2c.936,0,1.339.559,1.339,1.885V0h1.183V-4.472c0-1.807-.676-2.769-2.158-2.769a3.385,3.385,0,0,0-2.366,1.2h-.039l-.1-1.014h-.975Zm7.943,0H23.1V-5.122A2.607,2.607,0,0,1,24.882-6.2c.9,0,1.313.559,1.313,1.885V0h1.183V-5.122A2.607,2.607,0,0,1,29.159-6.2c.9,0,1.313.559,1.313,1.885V0h1.183V-4.472c0-1.807-.689-2.769-2.145-2.769a3.337,3.337,0,0,0-2.327,1.352,1.862,1.862,0,0,0-1.95-1.352,3.1,3.1,0,0,0-2.2,1.209H23l-.1-1.027h-.975ZM36.8.169a4.2,4.2,0,0,0,2.34-.728l-.429-.78a3.043,3.043,0,0,1-1.768.559,2.339,2.339,0,0,1-2.34-2.47h4.758a4.618,4.618,0,0,0,.052-.676c0-2.015-1.014-3.315-2.808-3.315a3.414,3.414,0,0,0-3.185,3.718A3.374,3.374,0,0,0,36.8.169Zm-2.21-4.264a2.172,2.172,0,0,1,2.028-2.2c1.1,0,1.755.767,1.755,2.2ZM41.158,0h1.183V-5.122A2.685,2.685,0,0,1,44.278-6.2c.936,0,1.339.559,1.339,1.885V0H46.8V-4.472c0-1.807-.676-2.769-2.158-2.769a3.385,3.385,0,0,0-2.366,1.2h-.039l-.1-1.014h-.975ZM51.324.169a4.444,4.444,0,0,0,1.3-.26L52.39-.975a2.5,2.5,0,0,1-.806.182c-.819,0-1.092-.494-1.092-1.365V-6.1H52.4v-.962H50.492V-9.035H49.5l-.143,1.976-1.1.065v.9h1.053v3.913C49.309-.767,49.816.169,51.324.169Z" transform="translate(49.553 279.82)"/>
    <path id="패스_9254" data-name="패스 9254" class="cls-2" d="M4.9.169A3.684,3.684,0,0,0,7.826-1.2L7.163-1.95A2.9,2.9,0,0,1,4.953-.884c-1.82,0-2.964-1.508-2.964-3.913,0-2.379,1.2-3.861,3-3.861a2.6,2.6,0,0,1,1.95.91l.65-.78A3.523,3.523,0,0,0,4.979-9.711C2.561-9.711.754-7.839.754-4.758S2.535.169,4.9.169Zm6.24,0a3.782,3.782,0,0,0,2.34-1.014h.039l.1.845H14.6V-4.342c0-1.742-.728-2.9-2.444-2.9a5.31,5.31,0,0,0-2.782.923l.468.819a3.889,3.889,0,0,1,2.119-.754c1.157,0,1.456.871,1.456,1.781-3,.338-4.342,1.105-4.342,2.639A1.914,1.914,0,0,0,11.141.169Zm.338-.949c-.7,0-1.248-.325-1.248-1.131,0-.91.806-1.495,3.185-1.781v1.976A2.885,2.885,0,0,1,11.479-.78ZM18.72.169c1.664,0,2.574-.949,2.574-2.093,0-1.339-1.131-1.755-2.158-2.145-.793-.3-1.56-.546-1.56-1.222,0-.546.4-1.014,1.287-1.014a2.656,2.656,0,0,1,1.625.624l.572-.767a3.658,3.658,0,0,0-2.2-.793c-1.534,0-2.431.884-2.431,2,0,1.2,1.118,1.677,2.106,2.041.78.3,1.612.624,1.612,1.339,0,.611-.455,1.105-1.391,1.105a3.2,3.2,0,0,1-2.093-.832l-.585.78A4.258,4.258,0,0,0,18.72.169Zm7.111,0a4.2,4.2,0,0,0,2.34-.728l-.429-.78a3.043,3.043,0,0,1-1.768.559,2.339,2.339,0,0,1-2.34-2.47h4.758a4.618,4.618,0,0,0,.052-.676c0-2.015-1.014-3.315-2.808-3.315a3.414,3.414,0,0,0-3.185,3.718A3.374,3.374,0,0,0,25.831.169Zm-2.21-4.264a2.172,2.172,0,0,1,2.028-2.2c1.1,0,1.755.767,1.755,2.2ZM32.058.169c1.664,0,2.574-.949,2.574-2.093,0-1.339-1.131-1.755-2.158-2.145-.793-.3-1.56-.546-1.56-1.222,0-.546.4-1.014,1.287-1.014a2.656,2.656,0,0,1,1.625.624l.572-.767a3.658,3.658,0,0,0-2.2-.793c-1.534,0-2.431.884-2.431,2,0,1.2,1.118,1.677,2.106,2.041.78.3,1.612.624,1.612,1.339,0,.611-.455,1.105-1.391,1.105A3.2,3.2,0,0,1,30-1.586l-.585.78A4.258,4.258,0,0,0,32.058.169Z" transform="translate(36.218 297.815)"/>
    <path id="패스_9272" data-name="패스 9272" class="cls-2" d="M3.393-4.5c-1.131,0-1.7-.832-1.7-2.119s.7-2.158,1.612-2.158c1.222,0,1.95,1.04,2.08,3A2.518,2.518,0,0,1,3.393-4.5ZM.754-.806A3.032,3.032,0,0,0,3.042.169C4.836.169,6.5-1.313,6.5-5.174,6.5-8.2,5.135-9.711,3.3-9.711A2.861,2.861,0,0,0,.572-6.617c0,1.976,1.04,3,2.626,3A2.938,2.938,0,0,0,5.395-4.8C5.3-1.833,4.238-.819,3-.819a2.15,2.15,0,0,1-1.6-.728ZM7.787,0H13.78V-1.027H11.141c-.481,0-1.066.052-1.56.091,2.236-2.119,3.731-4.056,3.731-5.954a2.614,2.614,0,0,0-2.769-2.821,3.645,3.645,0,0,0-2.808,1.4l.689.676A2.669,2.669,0,0,1,10.4-8.736a1.675,1.675,0,0,1,1.755,1.885c0,1.638-1.378,3.536-4.368,6.149ZM18.642,0h5.642V-1.027H19.851V-4.5h3.614V-5.525H19.851v-2.99h4.29V-9.529h-5.5Z" transform="translate(439.362 276.688)"/>
    <path id="패스_9271" data-name="패스 9271" class="cls-2" d="M1.2,0H2.379V-5.122A2.685,2.685,0,0,1,4.316-6.2c.936,0,1.339.559,1.339,1.885V0H6.838V-4.472c0-1.807-.676-2.769-2.158-2.769a3.385,3.385,0,0,0-2.366,1.2H2.275l-.1-1.014H1.2Zm10.79.169a4.2,4.2,0,0,0,2.34-.728l-.429-.78a3.043,3.043,0,0,1-1.768.559,2.339,2.339,0,0,1-2.34-2.47h4.758a4.618,4.618,0,0,0,.052-.676c0-2.015-1.014-3.315-2.808-3.315A3.414,3.414,0,0,0,8.606-3.523,3.374,3.374,0,0,0,11.986.169ZM9.776-4.095a2.172,2.172,0,0,1,2.028-2.2c1.105,0,1.755.767,1.755,2.2ZM16.341,0h1.183V-4.537c.468-1.209,1.2-1.625,1.781-1.625a1.67,1.67,0,0,1,.689.117l.221-1.04a1.5,1.5,0,0,0-.754-.156,2.437,2.437,0,0,0-2,1.469H17.42l-.1-1.287h-.975Zm7.28,3.25c2.184,0,3.562-1.131,3.562-2.444,0-1.157-.819-1.677-2.457-1.677H23.348c-.949,0-1.235-.312-1.235-.767a1.051,1.051,0,0,1,.455-.845,2.455,2.455,0,0,0,1.053.247,2.421,2.421,0,0,0,2.574-2.457,2.016,2.016,0,0,0-.572-1.456h1.443v-.91H24.609a2.912,2.912,0,0,0-.988-.182,2.514,2.514,0,0,0-2.652,2.522,2.478,2.478,0,0,0,.923,1.9v.052A1.722,1.722,0,0,0,21.1-1.456,1.277,1.277,0,0,0,21.749-.3v.052a2,2,0,0,0-1.053,1.6C20.7,2.574,21.892,3.25,23.621,3.25Zm0-6.292a1.547,1.547,0,0,1-1.508-1.677A1.509,1.509,0,0,1,23.621-6.37a1.507,1.507,0,0,1,1.495,1.651A1.545,1.545,0,0,1,23.621-3.042Zm.169,5.486c-1.287,0-2.054-.494-2.054-1.248A1.489,1.489,0,0,1,22.464,0a3.97,3.97,0,0,0,.91.117H24.6c.936,0,1.443.221,1.443.871C26.039,1.729,25.142,2.444,23.79,2.444Z" transform="translate(465.092 276.688)"/>
    <path id="패스_9273" data-name="패스 9273" class="cls-2" d="M1.313,3.042c1.4,0,2.132-1.066,2.626-2.457L6.6-7.059H5.447L4.186-3.133c-.195.624-.4,1.339-.6,1.976H3.523c-.221-.637-.468-1.365-.676-1.976L1.4-7.059H.169L3,.013,2.847.546c-.286.871-.793,1.521-1.6,1.521A1.687,1.687,0,0,1,.715,1.95L.481,2.9A2.173,2.173,0,0,0,1.313,3.042ZM14.586.169A3.684,3.684,0,0,0,17.511-1.2l-.663-.754a2.9,2.9,0,0,1-2.21,1.066c-1.82,0-2.964-1.508-2.964-3.913,0-2.379,1.2-3.861,3-3.861a2.6,2.6,0,0,1,1.95.91l.65-.78a3.523,3.523,0,0,0-2.613-1.183c-2.418,0-4.225,1.872-4.225,4.953S12.22.169,14.586.169Zm6.214,0A3.782,3.782,0,0,0,23.14-.845h.039l.1.845h.975V-4.342c0-1.742-.728-2.9-2.444-2.9a5.31,5.31,0,0,0-2.782.923L19.5-5.5a3.889,3.889,0,0,1,2.119-.754c1.157,0,1.456.871,1.456,1.781-3,.338-4.342,1.105-4.342,2.639A1.914,1.914,0,0,0,20.8.169Zm.338-.949c-.7,0-1.248-.325-1.248-1.131,0-.91.806-1.495,3.185-1.781v1.976A2.885,2.885,0,0,1,21.138-.78Zm7.215.949c1.664,0,2.574-.949,2.574-2.093,0-1.339-1.131-1.755-2.158-2.145-.793-.3-1.56-.546-1.56-1.222,0-.546.4-1.014,1.287-1.014a2.656,2.656,0,0,1,1.625.624l.572-.767a3.658,3.658,0,0,0-2.2-.793c-1.534,0-2.431.884-2.431,2,0,1.2,1.118,1.677,2.106,2.041.78.3,1.612.624,1.612,1.339,0,.611-.455,1.105-1.391,1.105A3.2,3.2,0,0,1,26.3-1.586l-.585.78A4.258,4.258,0,0,0,28.353.169Zm7.085,0a4.2,4.2,0,0,0,2.34-.728l-.429-.78a3.043,3.043,0,0,1-1.768.559,2.339,2.339,0,0,1-2.34-2.47H38a4.618,4.618,0,0,0,.052-.676c0-2.015-1.014-3.315-2.808-3.315a3.414,3.414,0,0,0-3.185,3.718A3.374,3.374,0,0,0,35.438.169Zm-2.21-4.264a2.172,2.172,0,0,1,2.028-2.2c1.1,0,1.755.767,1.755,2.2ZM41.639.169c1.664,0,2.574-.949,2.574-2.093,0-1.339-1.131-1.755-2.158-2.145-.793-.3-1.56-.546-1.56-1.222,0-.546.4-1.014,1.287-1.014a2.656,2.656,0,0,1,1.625.624l.572-.767a3.658,3.658,0,0,0-2.2-.793c-1.534,0-2.431.884-2.431,2,0,1.2,1.118,1.677,2.106,2.041.78.3,1.612.624,1.612,1.339,0,.611-.455,1.105-1.391,1.105a3.2,3.2,0,0,1-2.093-.832L39-.806A4.258,4.258,0,0,0,41.639.169Z" transform="translate(493.382 276.688)"/>
    <g id="그룹_8507" data-name="그룹 8507" transform="translate(105.006 64.014)">
      <path id="패스_9185" data-name="패스 9185" class="cls-6" d="M0,0H14.875"/>
    </g>
    <g id="그룹_8508" data-name="그룹 8508" transform="translate(105.006 213.248)">
      <path id="패스_9186" data-name="패스 9186" class="cls-6" d="M0,0H23.423"/>
    </g>
    <g id="그룹_8509" data-name="그룹 8509" transform="translate(542.016 210.865)">
      <path id="패스_9187" data-name="패스 9187" class="cls-7" d="M0,0H23.423"/>
    </g>
    <path id="패스_9188" data-name="패스 9188" class="cls-8" d="M20.927-226.359H123.942v-40.353H20.927Z" transform="translate(-14.68 312.967)"/>
    <path id="패스_9189" data-name="패스 9189" class="cls-9" d="M20.927-78.151H123.942v-40.48H20.927Z" transform="translate(-14.68 312.967)"/>
    <path id="패스_9190" data-name="패스 9190" class="cls-10" d="M455.681-78.151H558.7v-40.48H455.681Z" transform="translate(-14.68 312.967)"/>
    <path id="패스_9191" data-name="패스 9191" class="cls-11" d="M14.68-229.42H117.325v-37.042H14.68Z" transform="translate(-14.68 312.967)"/>
    <path id="패스_9192" data-name="패스 9192" class="cls-11" d="M14.68-81.34H117.325v-37.042H14.68Z" transform="translate(-14.68 312.967)"/>
    <path id="패스_9193" data-name="패스 9193" class="cls-11" d="M449.434-81.34H552.079v-37.042H449.434Z" transform="translate(-14.68 312.967)"/>
    <path id="패스_9241" data-name="패스 9241" class="cls-8" d="M4.3.182c2.254,0,3.626-1.344,3.626-3A2.877,2.877,0,0,0,5.824-5.6L4.41-6.2c-.84-.336-1.666-.672-1.666-1.554,0-.826.686-1.33,1.736-1.33a3.282,3.282,0,0,1,2.268.924L7.6-9.2A4.414,4.414,0,0,0,4.48-10.5c-1.96,0-3.388,1.218-3.388,2.842a2.964,2.964,0,0,0,2.1,2.7L4.62-4.34c.952.42,1.652.714,1.652,1.652,0,.868-.7,1.456-1.946,1.456A4,4,0,0,1,1.582-2.45L.63-1.33A5.141,5.141,0,0,0,4.3.182Zm7.084,0a3.828,3.828,0,0,0,2.45-1.064h.042l.14.882H15.33V-4.634c0-2.044-.882-3.262-2.8-3.262A5.9,5.9,0,0,0,9.422-6.888l.6,1.092A4.234,4.234,0,0,1,12.25-6.58c1.134,0,1.456.784,1.47,1.68-3.206.35-4.606,1.2-4.606,2.856A2.127,2.127,0,0,0,11.382.182Zm.49-1.274c-.686,0-1.2-.308-1.2-1.064,0-.868.77-1.442,3.052-1.722v1.89A2.714,2.714,0,0,1,11.872-1.092ZM21.5-11.074a3.5,3.5,0,0,0-1.358-.266c-1.722,0-2.436,1.092-2.436,2.674V-7.7l-1.05.084v1.2h1.05V0h1.61V-6.412h1.554V-7.7H19.32v-.98c0-.938.336-1.386,1.022-1.386a2.1,2.1,0,0,1,.84.2ZM25.158.182a4.671,4.671,0,0,0,2.6-.812L27.2-1.652a3.269,3.269,0,0,1-1.834.574,2.325,2.325,0,0,1-2.38-2.352h5a4.161,4.161,0,0,0,.07-.812c0-2.184-1.092-3.654-3.136-3.654-1.806,0-3.514,1.554-3.514,4.06A3.7,3.7,0,0,0,25.158.182ZM22.974-4.536a2.088,2.088,0,0,1,1.974-2.1c1.12,0,1.722.77,1.722,2.1ZM32.13.182A4.927,4.927,0,0,0,33.642-.1l-.294-1.19a2.3,2.3,0,0,1-.826.182c-.8,0-1.12-.476-1.12-1.4V-6.412h2V-7.7h-2V-9.828H30.044L29.862-7.7l-1.19.084v1.2h1.12V-2.52C29.792-.9,30.394.182,32.13.182Z" transform="translate(30.817 69.152)"/>
    <path id="패스_9242" data-name="패스 9242" class="cls-8" d="M7.434-7.7H5.866L4.634-3.738l-.6,2.17h-.07c-.238-.714-.476-1.484-.7-2.17L1.834-7.7H.182L3.234-.056,3.08.476C2.8,1.3,2.31,1.918,1.47,1.918a2.086,2.086,0,0,1-.56-.112L.6,3.066a2.738,2.738,0,0,0,.966.154C3.192,3.22,4,2.114,4.606.462Z" transform="translate(64.481 69.152)"/>
    <path id="패스_9261" data-name="패스 9261" class="cls-8" d="M1.358,0H7.6V-1.372H2.982V-4.7h3.78V-6.076H2.982v-2.87H7.448V-10.3H1.358ZM9.45,0h1.6V-5.46a2.629,2.629,0,0,1,1.89-1.05c.91,0,1.3.532,1.3,1.862V0h1.61V-4.844c0-1.96-.728-3.052-2.366-3.052a3.669,3.669,0,0,0-2.548,1.26h-.042L10.766-7.7H9.45ZM19.712,0h1.862l2.66-7.7H22.666L21.35-3.556c-.21.756-.448,1.54-.672,2.3h-.056c-.224-.756-.462-1.54-.672-2.3L18.634-7.7H16.982ZM25.48,0h1.6V-7.7h-1.6Zm.8-9.142a.966.966,0,0,0,1.036-.952.958.958,0,0,0-1.036-.952.946.946,0,0,0-1.022.952A.954.954,0,0,0,26.278-9.142ZM29.33,0h1.6V-4.8c.49-1.218,1.246-1.652,1.876-1.652a2.278,2.278,0,0,1,.77.126l.294-1.4A1.915,1.915,0,0,0,33-7.9a2.662,2.662,0,0,0-2.184,1.582h-.042L30.646-7.7H29.33Zm8.484.182A3.7,3.7,0,0,0,41.44-3.836c0-2.576-1.722-4.06-3.626-4.06s-3.626,1.484-3.626,4.06A3.7,3.7,0,0,0,37.814.182Zm0-1.316c-1.2,0-1.96-1.078-1.96-2.7s.756-2.73,1.96-2.73,1.974,1.092,1.974,2.73S39.032-1.134,37.814-1.134ZM43.162,0h1.6V-5.46a2.629,2.629,0,0,1,1.89-1.05c.91,0,1.3.532,1.3,1.862V0h1.61V-4.844c0-1.96-.728-3.052-2.366-3.052a3.669,3.669,0,0,0-2.548,1.26H44.6L44.478-7.7H43.162ZM51.73,0h1.6V-5.46a2.6,2.6,0,0,1,1.736-1.05c.882,0,1.288.532,1.288,1.862V0h1.61V-5.46A2.571,2.571,0,0,1,59.7-6.51c.868,0,1.288.532,1.288,1.862V0h1.61V-4.844c0-1.96-.756-3.052-2.366-3.052a3.548,3.548,0,0,0-2.506,1.414A2.055,2.055,0,0,0,55.594-7.9a3.354,3.354,0,0,0-2.38,1.274h-.042L53.046-7.7H51.73ZM67.956.182a4.671,4.671,0,0,0,2.6-.812L70-1.652a3.269,3.269,0,0,1-1.834.574,2.325,2.325,0,0,1-2.38-2.352h5a4.161,4.161,0,0,0,.07-.812c0-2.184-1.092-3.654-3.136-3.654-1.806,0-3.514,1.554-3.514,4.06A3.7,3.7,0,0,0,67.956.182ZM65.772-4.536a2.088,2.088,0,0,1,1.974-2.1c1.12,0,1.722.77,1.722,2.1ZM72.492,0h1.6V-5.46a2.629,2.629,0,0,1,1.89-1.05c.91,0,1.3.532,1.3,1.862V0h1.61V-4.844c0-1.96-.728-3.052-2.366-3.052a3.669,3.669,0,0,0-2.548,1.26h-.042L73.808-7.7H72.492ZM83.65.182A4.927,4.927,0,0,0,85.162-.1l-.294-1.19a2.3,2.3,0,0,1-.826.182c-.8,0-1.12-.476-1.12-1.4V-6.412h2V-7.7h-2V-9.828H81.564L81.382-7.7l-1.19.084v1.2h1.12V-2.52C81.312-.9,81.914.182,83.65.182Z" transform="translate(7.703 218.234)"/>
    <path id="패스_9276" data-name="패스 9276" class="cls-8" d="M1.358,0H7.6V-1.372H2.982V-4.7h3.78V-6.076H2.982v-2.87H7.448V-10.3H1.358Z" transform="translate(463.668 217.234)"/>
    <path id="패스_9275" data-name="패스 9275" class="cls-8" d="M1.218,0h1.6V-5.46A2.629,2.629,0,0,1,4.7-6.51c.91,0,1.3.532,1.3,1.862V0h1.61V-4.844C7.616-6.8,6.888-7.9,5.25-7.9A3.669,3.669,0,0,0,2.7-6.636H2.66L2.534-7.7H1.218ZM13.132.182a4.671,4.671,0,0,0,2.6-.812l-.56-1.022a3.269,3.269,0,0,1-1.834.574,2.325,2.325,0,0,1-2.38-2.352h5a4.161,4.161,0,0,0,.07-.812c0-2.184-1.092-3.654-3.136-3.654-1.806,0-3.514,1.554-3.514,4.06A3.7,3.7,0,0,0,13.132.182ZM10.948-4.536a2.088,2.088,0,0,1,1.974-2.1c1.12,0,1.722.77,1.722,2.1ZM17.808,0h1.6V-4.8c.49-1.218,1.246-1.652,1.876-1.652a2.278,2.278,0,0,1,.77.126l.294-1.4a1.915,1.915,0,0,0-.868-.168,2.662,2.662,0,0,0-2.184,1.582H19.25L19.124-7.7H17.808Zm8.176,3.458c2.464,0,4.032-1.2,4.032-2.688,0-1.316-.952-1.876-2.772-1.876H25.83c-.98,0-1.288-.294-1.288-.756a1.021,1.021,0,0,1,.42-.812,2.677,2.677,0,0,0,1.078.238,2.631,2.631,0,0,0,2.884-2.646,2.082,2.082,0,0,0-.5-1.414h1.47V-7.7H27.16a3.211,3.211,0,0,0-1.12-.2,2.777,2.777,0,0,0-2.982,2.772A2.635,2.635,0,0,0,24.066-3.08v.056A1.9,1.9,0,0,0,23.212-1.6a1.416,1.416,0,0,0,.7,1.274v.07a2.034,2.034,0,0,0-1.12,1.68C22.792,2.772,24.136,3.458,25.984,3.458Zm.056-6.93a1.5,1.5,0,0,1-1.456-1.652A1.466,1.466,0,0,1,26.04-6.762,1.474,1.474,0,0,1,27.5-5.124,1.5,1.5,0,0,1,26.04-3.472Zm.182,5.866c-1.274,0-2.058-.448-2.058-1.2A1.385,1.385,0,0,1,24.822.07a4.895,4.895,0,0,0,1.036.112H27.02c.938,0,1.442.2,1.442.84C28.462,1.736,27.566,2.394,26.222,2.394Z" transform="translate(471.486 217.234)"/>
    <path id="패스_9274" data-name="패스 9274" class="cls-8" d="M7.434-7.7H5.866L4.634-3.738l-.6,2.17h-.07c-.238-.714-.476-1.484-.7-2.17L1.834-7.7H.182L3.234-.056,3.08.476C2.8,1.3,2.31,1.918,1.47,1.918a2.086,2.086,0,0,1-.56-.112L.6,3.066a2.738,2.738,0,0,0,.966.154C3.192,3.22,4,2.114,4.606.462Z" transform="translate(501.127 217.234)"/>
    <path id="패스_9194" data-name="패스 9194" class="cls-1" d="M580.369-67.361H713.054v-65H580.369Z" transform="translate(-14.68 312.967)"/>
    <path id="패스_9277" data-name="패스 9277" class="cls-2" d="M1.272,0H6.24V-.624H1.992V-4.332H5.46v-.612H1.992V-8.136H6.108v-.612H1.272ZM7.848,0h.7V-4.788C9.288-5.556,9.816-5.94,10.56-5.94c.984,0,1.4.612,1.4,1.944V0h.7V-4.092c0-1.644-.612-2.472-1.944-2.472a3.146,3.146,0,0,0-2.184,1.14H8.508L8.424-6.4H7.848Zm9.336.156a3.579,3.579,0,0,0,2.04-.624L18.96-.984a2.864,2.864,0,0,1-1.7.552,2.422,2.422,0,0,1-2.34-2.652h4.536a3.319,3.319,0,0,0,.036-.5c0-1.872-.924-2.976-2.472-2.976-1.452,0-2.808,1.3-2.808,3.372A3.03,3.03,0,0,0,17.184.156ZM14.916-3.636a2.278,2.278,0,0,1,2.112-2.328c1.116,0,1.824.78,1.824,2.328ZM20.964,0h.7V-4.3C22.128-5.484,22.812-5.9,23.376-5.9a1.353,1.353,0,0,1,.588.108l.144-.624a1.289,1.289,0,0,0-.648-.144,2.2,2.2,0,0,0-1.812,1.356h-.024L21.54-6.4h-.576Zm6.048,3.048c1.872,0,3.072-1.056,3.072-2.172C30.084-.144,29.4-.6,27.948-.6H26.6c-.924,0-1.2-.348-1.2-.8a1.1,1.1,0,0,1,.5-.888,2.162,2.162,0,0,0,1.032.264A2.2,2.2,0,0,0,29.2-4.284a2.04,2.04,0,0,0-.66-1.536h1.44V-6.4H27.792a2.274,2.274,0,0,0-.852-.168A2.234,2.234,0,0,0,24.648-4.3a2.316,2.316,0,0,0,.816,1.74v.048a1.591,1.591,0,0,0-.708,1.188,1.147,1.147,0,0,0,.576,1.032v.06a1.944,1.944,0,0,0-.96,1.524C24.372,2.376,25.416,3.048,27.012,3.048Zm-.072-5.6a1.64,1.64,0,0,1-1.6-1.74A1.587,1.587,0,0,1,26.94-6a1.585,1.585,0,0,1,1.584,1.7A1.638,1.638,0,0,1,26.94-2.556ZM27.1,2.52c-1.308,0-2.064-.528-2.064-1.308a1.6,1.6,0,0,1,.792-1.284,4.5,4.5,0,0,0,.8.108h1.308c.948,0,1.452.252,1.452.936C29.388,1.74,28.488,2.52,27.1,2.52Z" transform="translate(579.216 210.355)"/>
    <path id="패스_9278" data-name="패스 9278" class="cls-2" d="M1.02,2.88C2.2,2.88,2.844,1.848,3.228.744l2.5-7.14H5.016L3.708-2.484c-.18.552-.384,1.224-.576,1.8h-.06C2.844-1.26,2.6-1.932,2.4-2.484L.912-6.4H.156L2.772.1,2.6.636c-.312.924-.828,1.62-1.6,1.62a1.646,1.646,0,0,1-.516-.1l-.156.588A1.7,1.7,0,0,0,1.02,2.88Z" transform="translate(610.157 210.355)"/>
    <path id="패스_9359" data-name="패스 9359" class="cls-2" transform="translate(617.158 210.355)"/>
    <path id="패스_9279" data-name="패스 9279" class="cls-2" d="M1.272,0H6.24V-.624H1.992V-4.332H5.46v-.612H1.992V-8.136H6.108v-.612H1.272Zm10.4-6.4h-2.9V-7.464c0-.96.384-1.512,1.116-1.512a2.046,2.046,0,0,1,.9.2l.18-.564a2.931,2.931,0,0,0-1.1-.228c-1.14,0-1.788.72-1.788,2.052V-6.4l-.888.06v.528h.888V0h.7V-5.808h2.9V0h.7V-5.808h1.452V-6.4H12.372V-7.7c0-.9.3-1.4.984-1.4a1.827,1.827,0,0,1,.756.18l.168-.552a2.433,2.433,0,0,0-.96-.216c-1.08,0-1.644.684-1.644,1.956ZM15.144,0h.7V-6.4h-.7Zm.348-9.024a.554.554,0,0,0-.576.576.556.556,0,0,0,.576.552.559.559,0,0,0,.588-.552A.557.557,0,0,0,15.492-9.024ZM20.52.156a3.1,3.1,0,0,0,2.04-.828l-.336-.48a2.555,2.555,0,0,1-1.668.708c-1.344,0-2.232-1.116-2.232-2.748s.972-2.76,2.244-2.76a2.1,2.1,0,0,1,1.464.648l.4-.48a2.705,2.705,0,0,0-1.872-.78,3.056,3.056,0,0,0-2.964,3.372C17.592-1.068,18.852.156,20.52.156ZM24,0h.7V-6.4H24Zm.36-7.9a.566.566,0,0,0,.588-.552.564.564,0,0,0-.588-.576.557.557,0,0,0-.588.576A.559.559,0,0,0,24.36-7.9ZM29.424.156a3.579,3.579,0,0,0,2.04-.624L31.2-.984a2.864,2.864,0,0,1-1.7.552,2.422,2.422,0,0,1-2.34-2.652h4.536a3.319,3.319,0,0,0,.036-.5c0-1.872-.924-2.976-2.472-2.976-1.452,0-2.808,1.3-2.808,3.372A3.03,3.03,0,0,0,29.424.156ZM27.156-3.636a2.278,2.278,0,0,1,2.112-2.328c1.116,0,1.824.78,1.824,2.328ZM33.324,0h.7V-4.788c.744-.768,1.272-1.152,2.016-1.152.984,0,1.4.612,1.4,1.944V0h.7V-4.092c0-1.644-.612-2.472-1.944-2.472a3.146,3.146,0,0,0-2.184,1.14h-.024L33.9-6.4h-.576Zm9.408.156a3.1,3.1,0,0,0,2.04-.828l-.336-.48a2.555,2.555,0,0,1-1.668.708c-1.344,0-2.232-1.116-2.232-2.748s.972-2.76,2.244-2.76a2.1,2.1,0,0,1,1.464.648l.4-.48a2.705,2.705,0,0,0-1.872-.78A3.056,3.056,0,0,0,39.8-3.192C39.8-1.068,41.064.156,42.732.156Z" transform="translate(572.099 226.855)"/>
    <path id="패스_9280" data-name="패스 9280" class="cls-2" d="M1.02,2.88C2.2,2.88,2.844,1.848,3.228.744l2.5-7.14H5.016L3.708-2.484c-.18.552-.384,1.224-.576,1.8h-.06C2.844-1.26,2.6-1.932,2.4-2.484L.912-6.4H.156L2.772.1,2.6.636c-.312.924-.828,1.62-1.6,1.62a1.646,1.646,0,0,1-.516-.1l-.156.588A1.7,1.7,0,0,0,1.02,2.88Z" transform="translate(617.28 226.855)"/>
    <path id="패스_9281" data-name="패스 9281" class="cls-2" d="M1.272,0H3.348c2.676,0,4-1.728,4-4.4S6.024-8.748,3.336-8.748H1.272Zm.72-.612V-8.148H3.264c2.3,0,3.324,1.476,3.324,3.744S5.568-.612,3.264-.612Zm9.624.768c1.548,0,2.892-1.224,2.892-3.348s-1.344-3.372-2.892-3.372S8.724-5.328,8.724-3.192,10.068.156,11.616.156Zm0-.6c-1.248,0-2.16-1.116-2.16-2.748s.912-2.76,2.16-2.76,2.172,1.128,2.172,2.76S12.864-.444,11.616-.444ZM16.368,0h.7V-4.788A2.7,2.7,0,0,1,18.912-5.94c.948,0,1.38.612,1.38,1.944V0h.7V-4.788A2.7,2.7,0,0,1,22.836-5.94c.936,0,1.38.612,1.38,1.944V0h.7V-4.092c0-1.644-.636-2.472-1.92-2.472a3.2,3.2,0,0,0-2.16,1.3,1.657,1.657,0,0,0-1.764-1.3,2.97,2.97,0,0,0-2.016,1.14h-.024L16.944-6.4h-.576ZM29.652.156a3.579,3.579,0,0,0,2.04-.624l-.264-.516a2.864,2.864,0,0,1-1.7.552,2.422,2.422,0,0,1-2.34-2.652H31.92a3.319,3.319,0,0,0,.036-.5c0-1.872-.924-2.976-2.472-2.976-1.452,0-2.808,1.3-2.808,3.372A3.03,3.03,0,0,0,29.652.156ZM27.384-3.636A2.278,2.278,0,0,1,29.5-5.964c1.116,0,1.824.78,1.824,2.328ZM35.22.156c1.416,0,2.2-.84,2.2-1.824,0-1.236-1.08-1.584-2.064-1.956-.744-.276-1.488-.54-1.488-1.248,0-.576.432-1.1,1.38-1.1a2.453,2.453,0,0,1,1.524.576l.36-.48a3.089,3.089,0,0,0-1.86-.684c-1.344,0-2.1.792-2.1,1.728,0,1.1,1.056,1.5,2,1.836.744.264,1.548.612,1.548,1.368,0,.66-.492,1.212-1.464,1.212a2.93,2.93,0,0,1-2.016-.8l-.372.5A3.748,3.748,0,0,0,35.22.156Zm5.376,0a3.619,3.619,0,0,0,1.068-.24L41.5-.624a2.237,2.237,0,0,1-.78.18c-.852,0-1.068-.528-1.068-1.332V-5.808h1.836V-6.4H39.648V-8.244H39.06L38.976-6.4l-1.02.06v.528h1v3.984C38.952-.636,39.336.156,40.6.156ZM43.008,0h.7V-6.4h-.7Zm.36-7.9a.566.566,0,0,0,.588-.552.564.564,0,0,0-.588-.576.557.557,0,0,0-.588.576A.559.559,0,0,0,43.368-7.9ZM48.48.156a3.1,3.1,0,0,0,2.04-.828l-.336-.48a2.555,2.555,0,0,1-1.668.708c-1.344,0-2.232-1.116-2.232-2.748s.972-2.76,2.244-2.76a2.1,2.1,0,0,1,1.464.648l.4-.48a2.705,2.705,0,0,0-1.872-.78,3.056,3.056,0,0,0-2.964,3.372C45.552-1.068,46.812.156,48.48.156Z" transform="translate(640.822 218.605)"/>
    <g id="그룹_8510" data-name="그룹 8510" transform="translate(141.632 71.459)">
      <path id="패스_9195" data-name="패스 9195" class="cls-12" d="M0,0H683.624"/>
    </g>
    <g id="그룹_8511" data-name="그룹 8511" transform="translate(140.131 71.459)">
      <path id="패스_9196" data-name="패스 9196" class="cls-13" d="M0,0H0M685.875,0h0"/>
    </g>
    <g id="그룹_8512" data-name="그룹 8512" transform="translate(208.352 16.925)">
      <path id="패스_9197" data-name="패스 9197" class="cls-14" d="M0,0V41.114"/>
    </g>
    <g id="그룹_8513" data-name="그룹 8513" transform="translate(208.352 15.43)">
      <path id="패스_9198" data-name="패스 9198" class="cls-15" d="M0,0H0M0,43.356H0"/>
    </g>
    <g id="그룹_8514" data-name="그룹 8514" transform="translate(208.852 86.683)">
      <path id="패스_9199" data-name="패스 9199" class="cls-14" d="M0,0V41.114"/>
    </g>
    <g id="그룹_8515" data-name="그룹 8515" transform="translate(208.852 85.188)">
      <path id="패스_9200" data-name="패스 9200" class="cls-15" d="M0,0H0M0,43.356H0"/>
    </g>
    <g id="그룹_8516" data-name="그룹 8516" transform="translate(201.179 192.83)">
      <path id="패스_9201" data-name="패스 9201" class="cls-14" d="M0,0V41.114"/>
    </g>
    <g id="그룹_8517" data-name="그룹 8517" transform="translate(201.179 191.335)">
      <path id="패스_9202" data-name="패스 9202" class="cls-15" d="M0,0H0M0,43.356H0"/>
    </g>
    <g id="그룹_8518" data-name="그룹 8518" transform="translate(275.664 86.683)">
      <path id="패스_9203" data-name="패스 9203" class="cls-14" d="M0,0V41.114"/>
    </g>
    <g id="그룹_8519" data-name="그룹 8519" transform="translate(275.664 85.188)">
      <path id="패스_9204" data-name="패스 9204" class="cls-15" d="M0,0H0M0,43.356H0"/>
    </g>
    <g id="그룹_8520" data-name="그룹 8520" transform="translate(269.224 192.83)">
      <path id="패스_9205" data-name="패스 9205" class="cls-14" d="M0,0V41.114"/>
    </g>
    <g id="그룹_8521" data-name="그룹 8521" transform="translate(269.224 191.335)">
      <path id="패스_9206" data-name="패스 9206" class="cls-15" d="M0,0H0M0,43.356H0"/>
    </g>
    <g id="그룹_8522" data-name="그룹 8522" transform="translate(356.452 86.683)">
      <path id="패스_9207" data-name="패스 9207" class="cls-14" d="M0,0V41.114"/>
    </g>
    <g id="그룹_8523" data-name="그룹 8523" transform="translate(356.452 85.188)">
      <path id="패스_9208" data-name="패스 9208" class="cls-15" d="M0,0H0M0,43.356H0"/>
    </g>
    <g id="그룹_8524" data-name="그룹 8524" transform="translate(339.856 192.83)">
      <path id="패스_9209" data-name="패스 9209" class="cls-14" d="M0,0V41.114"/>
    </g>
    <g id="그룹_8525" data-name="그룹 8525" transform="translate(339.856 191.335)">
      <path id="패스_9210" data-name="패스 9210" class="cls-15" d="M0,0H0M0,43.356H0"/>
    </g>
    <g id="그룹_8526" data-name="그룹 8526" transform="translate(423.262 86.683)">
      <path id="패스_9211" data-name="패스 9211" class="cls-14" d="M0,0V41.114"/>
    </g>
    <g id="그룹_8527" data-name="그룹 8527" transform="translate(423.262 85.188)">
      <path id="패스_9212" data-name="패스 9212" class="cls-15" d="M0,0H0M0,43.356H0"/>
    </g>
    <g id="그룹_8528" data-name="그룹 8528" transform="translate(490.073 86.683)">
      <path id="패스_9213" data-name="패스 9213" class="cls-14" d="M0,0V41.114"/>
    </g>
    <g id="그룹_8529" data-name="그룹 8529" transform="translate(490.073 85.188)">
      <path id="패스_9214" data-name="패스 9214" class="cls-15" d="M0,0H0M0,43.356H0"/>
    </g>
    <g id="그룹_8530" data-name="그룹 8530" transform="translate(556.884 86.683)">
      <path id="패스_9215" data-name="패스 9215" class="cls-14" d="M0,0V41.114"/>
    </g>
    <g id="그룹_8531" data-name="그룹 8531" transform="translate(556.884 85.188)">
      <path id="패스_9216" data-name="패스 9216" class="cls-15" d="M0,0H0M0,43.356H0"/>
    </g>
    <g id="그룹_8532" data-name="그룹 8532" transform="translate(633.9 86.683)">
      <path id="패스_9217" data-name="패스 9217" class="cls-14" d="M0,0V41.114"/>
    </g>
    <g id="그룹_8533" data-name="그룹 8533" transform="translate(633.9 85.188)">
      <path id="패스_9218" data-name="패스 9218" class="cls-15" d="M0,0H0M0,43.356H0"/>
    </g>
    <g id="그룹_8534" data-name="그룹 8534" transform="translate(632.297 193.298)">
      <path id="패스_9219" data-name="패스 9219" class="cls-14" d="M0,0V41.114"/>
    </g>
    <g id="그룹_8535" data-name="그룹 8535" transform="translate(632.297 191.803)">
      <path id="패스_9220" data-name="패스 9220" class="cls-15" d="M0,0H0M0,43.356H0"/>
    </g>
    <g id="그룹_8536" data-name="그룹 8536" transform="translate(700.711 86.683)">
      <path id="패스_9221" data-name="패스 9221" class="cls-14" d="M0,0V41.114"/>
    </g>
    <g id="그룹_8537" data-name="그룹 8537" transform="translate(700.711 85.188)">
      <path id="패스_9222" data-name="패스 9222" class="cls-15" d="M0,0H0M0,43.356H0"/>
    </g>
    <g id="그룹_8538" data-name="그룹 8538" transform="translate(767.521 86.683)">
      <path id="패스_9223" data-name="패스 9223" class="cls-14" d="M0,0V41.114"/>
    </g>
    <g id="그룹_8539" data-name="그룹 8539" transform="translate(767.521 85.188)">
      <path id="패스_9224" data-name="패스 9224" class="cls-15" d="M0,0H0M0,43.356H0"/>
    </g>
    <g id="그룹_8540" data-name="그룹 8540" transform="translate(275.664 16.925)">
      <path id="패스_9225" data-name="패스 9225" class="cls-14" d="M0,0V41.114"/>
    </g>
    <g id="그룹_8541" data-name="그룹 8541" transform="translate(275.664 15.43)">
      <path id="패스_9226" data-name="패스 9226" class="cls-15" d="M0,0H0M0,43.356H0"/>
    </g>
    <g id="그룹_8542" data-name="그룹 8542" transform="translate(356.202 16.925)">
      <path id="패스_9227" data-name="패스 9227" class="cls-14" d="M0,0V41.114"/>
    </g>
    <g id="그룹_8543" data-name="그룹 8543" transform="translate(356.202 15.43)">
      <path id="패스_9228" data-name="패스 9228" class="cls-15" d="M0,0H0M0,43.356H0"/>
    </g>
    <g id="그룹_8544" data-name="그룹 8544" transform="translate(423.262 16.925)">
      <path id="패스_9229" data-name="패스 9229" class="cls-14" d="M0,0V41.114"/>
    </g>
    <g id="그룹_8545" data-name="그룹 8545" transform="translate(423.262 15.43)">
      <path id="패스_9230" data-name="패스 9230" class="cls-15" d="M0,0H0M0,43.356H0"/>
    </g>
    <g id="그룹_8546" data-name="그룹 8546" transform="translate(490.308 16.925)">
      <path id="패스_9231" data-name="패스 9231" class="cls-14" d="M0,0V41.114"/>
    </g>
    <g id="그룹_8547" data-name="그룹 8547" transform="translate(490.308 15.43)">
      <path id="패스_9232" data-name="패스 9232" class="cls-15" d="M0,0H0M0,43.356H0"/>
    </g>
    <g id="그룹_8548" data-name="그룹 8548" transform="translate(556.384 16.925)">
      <path id="패스_9233" data-name="패스 9233" class="cls-14" d="M0,0V41.114"/>
    </g>
    <g id="그룹_8549" data-name="그룹 8549" transform="translate(556.384 15.43)">
      <path id="패스_9234" data-name="패스 9234" class="cls-15" d="M0,0H0M0,43.356H0"/>
    </g>
    <g id="그룹_8550" data-name="그룹 8550" transform="translate(633.4 16.925)">
      <path id="패스_9235" data-name="패스 9235" class="cls-14" d="M0,0V41.114"/>
    </g>
    <g id="그룹_8551" data-name="그룹 8551" transform="translate(633.4 15.43)">
      <path id="패스_9236" data-name="패스 9236" class="cls-15" d="M0,0H0M0,43.356H0"/>
    </g>
    <g id="그룹_8552" data-name="그룹 8552" transform="translate(700.756 16.925)">
      <path id="패스_9237" data-name="패스 9237" class="cls-14" d="M0,0V41.114"/>
    </g>
    <g id="그룹_8553" data-name="그룹 8553" transform="translate(700.756 15.43)">
      <path id="패스_9238" data-name="패스 9238" class="cls-15" d="M0,0H0M0,43.356H0"/>
    </g>
    <g id="그룹_8554" data-name="그룹 8554" transform="translate(768.021 16.925)">
      <path id="패스_9239" data-name="패스 9239" class="cls-14" d="M0,0V41.114"/>
    </g>
    <g id="그룹_8555" data-name="그룹 8555" transform="translate(768.021 15.43)">
      <path id="패스_9240" data-name="패스 9240" class="cls-15" d="M0,0H0M0,43.356H0"/>
    </g>
  </g>
</svg>
