<svg id="구성_요소_99_1" data-name="구성 요소 99 – 1" xmlns="http://www.w3.org/2000/svg" width="836" height="346.06" viewBox="0 0 836 346.06">
  <defs>
    <style>
      .cls-1 {
        fill: #f8f9fa;
      }

      .cls-13, .cls-2, .cls-5, .cls-6 {
        fill: none;
      }

      .cls-13, .cls-2, .cls-4 {
        stroke: #1e498b;
      }

      .cls-2, .cls-4 {
        stroke-width: 0.5px;
      }

      .cls-3 {
        fill: #1e498b;
      }

      .cls-4, .cls-7 {
        fill: #fff;
      }

      .cls-5, .cls-6 {
        stroke: #42454a;
        stroke-linecap: round;
        stroke-linejoin: round;
      }

      .cls-5 {
        stroke-dasharray: 0 3.004;
      }

      .cls-11, .cls-8, .cls-9 {
        fill: #4e89c8;
        font-size: 15px;
      }

      .cls-10, .cls-15, .cls-8 {
        font-family: NotoSansKR-Light, Noto Sans KR;
        font-weight: 300;
      }

      .cls-11, .cls-9 {
        font-family: NotoSansKR-Regular, Noto Sans KR;
      }

      .cls-9 {
        letter-spacing: -0.02em;
      }

      .cls-10, .cls-14, .cls-15 {
        fill: #1e2323;
      }

      .cls-10 {
        font-size: 13px;
      }

      .cls-12 {
        fill: #a7d2e6;
      }

      .cls-15 {
        font-size: 12px;
        letter-spacing: -0.021em;
      }
    </style>
  </defs>
  <g id="구성_요소_96_1" data-name="구성 요소 96 – 1">
    <g id="구성_요소_85_1" data-name="구성 요소 85 – 1">
      <path id="패스_9055" data-name="패스 9055" class="cls-1" d="M5.494,0h836V-346.06h-836Z" transform="translate(-5.494 346.06)"/>
      <g id="그룹_8453" data-name="그룹 8453" transform="translate(682.759 116.92)">
        <path id="패스_9056" data-name="패스 9056" class="cls-2" d="M-4.96,0H-142.92V35.89H-4.96Z" transform="translate(142.92)"/>
      </g>
      <path id="패스_9057" data-name="패스 9057" class="cls-3" d="M207.993-270.441H820.214V-310.31H207.993Z" transform="translate(0.506 342.191)"/>
      <path id="패스_9058" data-name="패스 9058" class="cls-3" d="M15.571-274.31H172.792v-39.75H15.571Z" transform="translate(0.506 346.06)"/>
      <path id="패스_9059" data-name="패스 9059" class="cls-4" d="M10.571-276.56H167.792v-37.5H10.571Z" transform="translate(0.506 346.06)"/>
      <path id="패스_9060" data-name="패스 9060" class="cls-4" d="M202.993-272.691H815.214V-309.81H202.993Z" transform="translate(0.506 342.191)"/>
      <path id="패스_9090" data-name="패스 9090" class="cls-3" d="M1.358,0H2.982V-3.906H4.536c2.24,0,3.878-1.036,3.878-3.29C8.414-9.52,6.776-10.3,4.48-10.3H1.358ZM2.982-5.208V-9H4.326C5.964-9,6.818-8.554,6.818-7.2S6.034-5.208,4.382-5.208ZM10.192,0h1.6V-4.8c.49-1.218,1.246-1.652,1.876-1.652a2.278,2.278,0,0,1,.77.126l.294-1.4A1.915,1.915,0,0,0,13.86-7.9a2.662,2.662,0,0,0-2.184,1.582h-.042L11.508-7.7H10.192ZM18.76.182a3.7,3.7,0,0,0,3.626-4.018c0-2.576-1.722-4.06-3.626-4.06s-3.626,1.484-3.626,4.06A3.7,3.7,0,0,0,18.76.182Zm0-1.316c-1.2,0-1.96-1.078-1.96-2.7s.756-2.73,1.96-2.73,1.974,1.092,1.974,2.73S19.978-1.134,18.76-1.134ZM26.852.182a3.227,3.227,0,0,0,2.24-1.05h.042l.14.868H30.59V-11.158H28.98V-8.3l.07,1.274A2.971,2.971,0,0,0,26.978-7.9c-1.722,0-3.3,1.554-3.3,4.06C23.674-1.288,24.92.182,26.852.182Zm.378-1.33c-1.2,0-1.89-.966-1.89-2.716,0-1.666.868-2.688,1.946-2.688a2.415,2.415,0,0,1,1.694.7v3.766A2.263,2.263,0,0,1,27.23-1.148ZM35.182.182A3.228,3.228,0,0,0,37.7-1.162h.042L37.87,0h1.316V-7.7h-1.61v5.348C36.932-1.54,36.442-1.2,35.728-1.2c-.91,0-1.288-.518-1.288-1.848V-7.7H32.83v4.844C32.83-.9,33.544.182,35.182.182Zm9.478,0A3.752,3.752,0,0,0,47.152-.77l-.658-1.064a2.638,2.638,0,0,1-1.68.7c-1.288,0-2.17-1.078-2.17-2.7s.924-2.73,2.212-2.73a2.017,2.017,0,0,1,1.386.6l.8-1.05A3.306,3.306,0,0,0,44.786-7.9a3.783,3.783,0,0,0-3.808,4.06C40.978-1.288,42.574.182,44.66.182Z" transform="translate(16.03 48.881)"/>
      <path id="패스_9091" data-name="패스 9091" class="cls-3" d="M3.808.182A4.927,4.927,0,0,0,5.32-.1l-.294-1.19a2.3,2.3,0,0,1-.826.182c-.8,0-1.12-.476-1.12-1.4V-6.412h2V-7.7h-2V-9.828H1.722L1.54-7.7.35-7.616v1.2H1.47V-2.52C1.47-.9,2.072.182,3.808.182ZM11.508-9h1.554c1.5,0,2.31.434,2.31,1.68S14.56-5.46,13.062-5.46H11.508Zm5.838,9-2.52-4.368a2.868,2.868,0,0,0,2.156-2.954c0-2.226-1.6-2.982-3.724-2.982H9.884V0h1.624V-4.158h1.666L15.512,0Zm4.536.182a4.671,4.671,0,0,0,2.6-.812l-.56-1.022a3.269,3.269,0,0,1-1.834.574,2.325,2.325,0,0,1-2.38-2.352h5a4.161,4.161,0,0,0,.07-.812c0-2.184-1.092-3.654-3.136-3.654-1.806,0-3.514,1.554-3.514,4.06A3.7,3.7,0,0,0,21.882.182ZM19.7-4.536a2.088,2.088,0,0,1,1.974-2.1c1.12,0,1.722.77,1.722,2.1ZM28.588.182c1.9,0,2.926-1.05,2.926-2.338,0-1.456-1.19-1.932-2.268-2.338-.84-.308-1.638-.56-1.638-1.218,0-.532.392-.952,1.232-.952a2.882,2.882,0,0,1,1.722.672l.756-.994a4.053,4.053,0,0,0-2.506-.91c-1.694,0-2.73.966-2.73,2.254s1.176,1.848,2.2,2.24c.84.322,1.708.63,1.708,1.33,0,.588-.434,1.036-1.358,1.036a3.413,3.413,0,0,1-2.184-.882L25.69-.882A4.736,4.736,0,0,0,28.588.182Zm4.55,2.94h1.6V.63L34.692-.686a3.175,3.175,0,0,0,2.03.868c1.736,0,3.318-1.512,3.318-4.158,0-2.366-1.092-3.92-3.052-3.92A3.9,3.9,0,0,0,34.622-6.86H34.58l-.126-.84H33.138Zm3.276-4.27a2.609,2.609,0,0,1-1.68-.7V-5.614a2.706,2.706,0,0,1,1.834-.938c1.288,0,1.806.994,1.806,2.6C38.374-2.142,37.534-1.148,36.414-1.148Zm8.54,1.33A3.7,3.7,0,0,0,48.58-3.836c0-2.576-1.722-4.06-3.626-4.06s-3.626,1.484-3.626,4.06A3.7,3.7,0,0,0,44.954.182Zm0-1.316c-1.2,0-1.96-1.078-1.96-2.7s.756-2.73,1.96-2.73,1.974,1.092,1.974,2.73S46.172-1.134,44.954-1.134ZM50.386,0h1.6V-5.46a2.629,2.629,0,0,1,1.89-1.05c.91,0,1.3.532,1.3,1.862V0h1.61V-4.844c0-1.96-.728-3.052-2.366-3.052a3.669,3.669,0,0,0-2.548,1.26h-.042L51.7-7.7H50.386ZM61.124.182c1.9,0,2.926-1.05,2.926-2.338,0-1.456-1.19-1.932-2.268-2.338-.84-.308-1.638-.56-1.638-1.218,0-.532.392-.952,1.232-.952a2.882,2.882,0,0,1,1.722.672l.756-.994a4.053,4.053,0,0,0-2.506-.91c-1.694,0-2.73.966-2.73,2.254s1.176,1.848,2.2,2.24c.84.322,1.708.63,1.708,1.33,0,.588-.434,1.036-1.358,1.036a3.413,3.413,0,0,1-2.184-.882L58.226-.882A4.736,4.736,0,0,0,61.124.182ZM65.674,0h1.6V-7.7h-1.6Zm.8-9.142a.966.966,0,0,0,1.036-.952.958.958,0,0,0-1.036-.952.946.946,0,0,0-1.022.952A.954.954,0,0,0,66.472-9.142ZM73.192.182c1.736,0,3.318-1.512,3.318-4.158,0-2.366-1.106-3.92-3.052-3.92a3.675,3.675,0,0,0-2.3,1.008L71.2-8.2v-2.954h-1.6V0h1.26l.154-.8h.042A3.2,3.2,0,0,0,73.192.182Zm-.308-1.33a2.582,2.582,0,0,1-1.68-.7V-5.614a2.679,2.679,0,0,1,1.834-.938c1.288,0,1.806.994,1.806,2.6C74.844-2.142,74-1.148,72.884-1.148ZM78.33,0h1.6V-7.7h-1.6Zm.8-9.142a.966.966,0,0,0,1.036-.952.958.958,0,0,0-1.036-.952.946.946,0,0,0-1.022.952A.954.954,0,0,0,79.128-9.142ZM83.86.182a2.586,2.586,0,0,0,.868-.126l-.21-1.218a1.118,1.118,0,0,1-.266.028c-.2,0-.392-.154-.392-.588v-9.436h-1.6v9.352C82.264-.56,82.7.182,83.86.182ZM86.352,0h1.6V-7.7h-1.6Zm.8-9.142a.966.966,0,0,0,1.036-.952.958.958,0,0,0-1.036-.952.946.946,0,0,0-1.022.952A.954.954,0,0,0,87.15-9.142ZM92.876.182A4.927,4.927,0,0,0,94.388-.1l-.294-1.19a2.3,2.3,0,0,1-.826.182c-.8,0-1.12-.476-1.12-1.4V-6.412h2V-7.7h-2V-9.828H90.79L90.608-7.7l-1.19.084v1.2h1.12V-2.52C90.538-.9,91.14.182,92.876.182Z" transform="translate(62.2 48.881)"/>
      <path id="패스_9096" data-name="패스 9096" class="cls-3" d="M7.434-7.7H5.866L4.634-3.738l-.6,2.17h-.07c-.238-.714-.476-1.484-.7-2.17L1.834-7.7H.182L3.234-.056,3.08.476C2.8,1.3,2.31,1.918,1.47,1.918a2.086,2.086,0,0,1-.56-.112L.6,3.066a2.738,2.738,0,0,0,.966.154C3.192,3.22,4,2.114,4.606.462Z" transform="translate(154.689 48.881)"/>
      <path id="패스_9092" data-name="패스 9092" class="cls-3" d="M5.558.182a4.629,4.629,0,0,0,3.262-1.2V-5.488H5.306v1.33H7.35v2.422a2.555,2.555,0,0,1-1.624.5c-2.128,0-3.262-1.5-3.262-3.948,0-2.422,1.274-3.906,3.192-3.906a2.787,2.787,0,0,1,2.128.924L8.666-9.2A4.111,4.111,0,0,0,5.6-10.5C2.87-10.5.8-8.484.8-5.124S2.8.182,5.558.182Z" transform="translate(50.752 65.876)"/>
      <path id="패스_9093" data-name="패스 9093" class="cls-3" d="M4.3.182A3.7,3.7,0,0,0,7.924-3.836C7.924-6.412,6.2-7.9,4.3-7.9S.672-6.412.672-3.836A3.7,3.7,0,0,0,4.3.182Zm0-1.316c-1.2,0-1.96-1.078-1.96-2.7s.756-2.73,1.96-2.73,1.974,1.092,1.974,2.73S5.516-1.134,4.3-1.134ZM11.186,0h1.862l2.66-7.7H14.14L12.824-3.556c-.21.756-.448,1.54-.672,2.3H12.1c-.224-.756-.462-1.54-.672-2.3L10.108-7.7H8.456Zm8.82.182a4.671,4.671,0,0,0,2.6-.812l-.56-1.022a3.269,3.269,0,0,1-1.834.574,2.325,2.325,0,0,1-2.38-2.352h5a4.161,4.161,0,0,0,.07-.812c0-2.184-1.092-3.654-3.136-3.654-1.806,0-3.514,1.554-3.514,4.06A3.7,3.7,0,0,0,20.006.182ZM17.822-4.536a2.088,2.088,0,0,1,1.974-2.1c1.12,0,1.722.77,1.722,2.1Z" transform="translate(60.244 65.876)"/>
      <path id="패스_9094" data-name="패스 9094" class="cls-3" d="M1.218,0h1.6V-4.8C3.3-6.02,4.06-6.454,4.69-6.454a2.278,2.278,0,0,1,.77.126l.294-1.4A1.915,1.915,0,0,0,4.886-7.9,2.662,2.662,0,0,0,2.7-6.314H2.66L2.534-7.7H1.218Z" transform="translate(83.027 65.876)"/>
      <path id="패스_9095" data-name="패스 9095" class="cls-3" d="M1.218,0h1.6V-5.46A2.629,2.629,0,0,1,4.7-6.51c.91,0,1.3.532,1.3,1.862V0h1.61V-4.844C7.616-6.8,6.888-7.9,5.25-7.9A3.669,3.669,0,0,0,2.7-6.636H2.66L2.534-7.7H1.218ZM11.536.182a3.828,3.828,0,0,0,2.45-1.064h.042l.14.882h1.316V-4.634c0-2.044-.882-3.262-2.8-3.262A5.9,5.9,0,0,0,9.576-6.888l.6,1.092A4.234,4.234,0,0,1,12.4-6.58c1.134,0,1.456.784,1.47,1.68-3.206.35-4.606,1.2-4.606,2.856A2.127,2.127,0,0,0,11.536.182Zm.49-1.274c-.686,0-1.2-.308-1.2-1.064,0-.868.77-1.442,3.052-1.722v1.89A2.714,2.714,0,0,1,12.026-1.092ZM17.528,0h1.6V-5.46a2.629,2.629,0,0,1,1.89-1.05c.91,0,1.3.532,1.3,1.862V0h1.61V-4.844C23.926-6.8,23.2-7.9,21.56-7.9a3.669,3.669,0,0,0-2.548,1.26H18.97L18.844-7.7H17.528ZM29.162.182A3.752,3.752,0,0,0,31.654-.77L31-1.834a2.638,2.638,0,0,1-1.68.7c-1.288,0-2.17-1.078-2.17-2.7s.924-2.73,2.212-2.73a2.017,2.017,0,0,1,1.386.6l.8-1.05A3.306,3.306,0,0,0,29.288-7.9a3.783,3.783,0,0,0-3.808,4.06C25.48-1.288,27.076.182,29.162.182Zm6.706,0a4.671,4.671,0,0,0,2.6-.812l-.56-1.022a3.269,3.269,0,0,1-1.834.574A2.325,2.325,0,0,1,33.7-3.43h5a4.161,4.161,0,0,0,.07-.812c0-2.184-1.092-3.654-3.136-3.654-1.806,0-3.514,1.554-3.514,4.06A3.7,3.7,0,0,0,35.868.182ZM33.684-4.536a2.088,2.088,0,0,1,1.974-2.1c1.12,0,1.722.77,1.722,2.1Z" transform="translate(88.6 65.876)"/>
      <path id="패스_9109" data-name="패스 9109" class="cls-3" d="M2.464-5.194c0-2.422,1.106-3.892,2.814-3.892s2.828,1.47,2.828,3.892c0,2.492-1.12,4.046-2.828,4.046S2.464-2.7,2.464-5.194ZM9.786,1.19a3.78,3.78,0,0,1-1.092.154A2.638,2.638,0,0,1,6.244.084C8.358-.364,9.772-2.3,9.772-5.194c0-3.318-1.848-5.306-4.494-5.306S.8-8.512.8-5.194C.8-2.212,2.282-.252,4.508.126a4.158,4.158,0,0,0,4,2.548,4.089,4.089,0,0,0,1.582-.266Zm4.1-1.008a3.228,3.228,0,0,0,2.52-1.344h.042L16.576,0h1.316V-7.7h-1.61v5.348C15.638-1.54,15.148-1.2,14.434-1.2c-.91,0-1.288-.518-1.288-1.848V-7.7h-1.61v4.844C11.536-.9,12.25.182,13.888.182Zm8.106,0a3.828,3.828,0,0,0,2.45-1.064h.042l.14.882h1.316V-4.634c0-2.044-.882-3.262-2.8-3.262a5.9,5.9,0,0,0-3.108,1.008l.6,1.092a4.234,4.234,0,0,1,2.226-.784c1.134,0,1.456.784,1.47,1.68-3.206.35-4.606,1.2-4.606,2.856A2.127,2.127,0,0,0,21.994.182Zm.49-1.274c-.686,0-1.2-.308-1.2-1.064,0-.868.77-1.442,3.052-1.722v1.89A2.714,2.714,0,0,1,22.484-1.092ZM29.68.182a2.586,2.586,0,0,0,.868-.126l-.21-1.218a1.118,1.118,0,0,1-.266.028c-.2,0-.392-.154-.392-.588v-9.436h-1.6v9.352C28.084-.56,28.518.182,29.68.182ZM32.116,0h1.6V-7.7h-1.6Zm.8-9.142a.966.966,0,0,0,1.036-.952.958.958,0,0,0-1.036-.952.946.946,0,0,0-1.022.952A.954.954,0,0,0,32.914-9.142ZM38.584.182A4.927,4.927,0,0,0,40.1-.1L39.8-1.288a2.3,2.3,0,0,1-.826.182c-.8,0-1.12-.476-1.12-1.4V-6.412h2V-7.7h-2V-9.828H36.5L36.316-7.7l-1.19.084v1.2h1.12V-2.52C36.246-.9,36.848.182,38.584.182Z" transform="translate(393.261 57.479)"/>
      <path id="패스_9110" data-name="패스 9110" class="cls-3" d="M7.434-7.7H5.866L4.634-3.738l-.6,2.17h-.07c-.238-.714-.476-1.484-.7-2.17L1.834-7.7H.182L3.234-.056,3.08.476C2.8,1.3,2.31,1.918,1.47,1.918a2.086,2.086,0,0,1-.56-.112L.6,3.066a2.738,2.738,0,0,0,.966.154C3.192,3.22,4,2.114,4.606.462ZM11.844,0H13.3V-5.1c0-.924-.126-2.254-.2-3.192h.056l.812,2.38L15.778-.994h1.008l1.792-4.914.826-2.38h.056c-.084.938-.21,2.268-.21,3.192V0h1.512V-10.3H18.886L17.024-5.1c-.238.686-.434,1.386-.672,2.086h-.07c-.238-.7-.448-1.4-.686-2.086L13.706-10.3H11.844ZM25,.182a3.828,3.828,0,0,0,2.45-1.064H27.5l.14.882h1.316V-4.634c0-2.044-.882-3.262-2.8-3.262a5.9,5.9,0,0,0-3.108,1.008l.6,1.092a4.234,4.234,0,0,1,2.226-.784c1.134,0,1.456.784,1.47,1.68-3.206.35-4.606,1.2-4.606,2.856A2.127,2.127,0,0,0,25,.182Zm.49-1.274c-.686,0-1.2-.308-1.2-1.064,0-.868.77-1.442,3.052-1.722v1.89A2.714,2.714,0,0,1,25.494-1.092ZM31.094,0h1.6V-5.46a2.629,2.629,0,0,1,1.89-1.05c.91,0,1.3.532,1.3,1.862V0h1.61V-4.844c0-1.96-.728-3.052-2.366-3.052a3.669,3.669,0,0,0-2.548,1.26h-.042L32.41-7.7H31.094ZM41.51.182A3.828,3.828,0,0,0,43.96-.882H44l.14.882h1.316V-4.634c0-2.044-.882-3.262-2.8-3.262A5.9,5.9,0,0,0,39.55-6.888l.6,1.092a4.234,4.234,0,0,1,2.226-.784c1.134,0,1.456.784,1.47,1.68-3.206.35-4.606,1.2-4.606,2.856A2.127,2.127,0,0,0,41.51.182ZM42-1.092c-.686,0-1.2-.308-1.2-1.064,0-.868.77-1.442,3.052-1.722v1.89A2.714,2.714,0,0,1,42-1.092Zm8.232,4.55c2.464,0,4.032-1.2,4.032-2.688,0-1.316-.952-1.876-2.772-1.876H50.078c-.98,0-1.288-.294-1.288-.756a1.021,1.021,0,0,1,.42-.812,2.677,2.677,0,0,0,1.078.238,2.631,2.631,0,0,0,2.884-2.646,2.082,2.082,0,0,0-.5-1.414h1.47V-7.7h-2.73a3.211,3.211,0,0,0-1.12-.2,2.777,2.777,0,0,0-2.982,2.772A2.635,2.635,0,0,0,48.314-3.08v.056A1.9,1.9,0,0,0,47.46-1.6a1.416,1.416,0,0,0,.7,1.274v.07a2.034,2.034,0,0,0-1.12,1.68C47.04,2.772,48.384,3.458,50.232,3.458Zm.056-6.93a1.5,1.5,0,0,1-1.456-1.652,1.466,1.466,0,0,1,1.456-1.638,1.474,1.474,0,0,1,1.456,1.638A1.5,1.5,0,0,1,50.288-3.472Zm.182,5.866c-1.274,0-2.058-.448-2.058-1.2A1.385,1.385,0,0,1,49.07.07a4.895,4.895,0,0,0,1.036.112h1.162c.938,0,1.442.2,1.442.84C52.71,1.736,51.814,2.394,50.47,2.394ZM58.52.182a4.671,4.671,0,0,0,2.6-.812l-.56-1.022a3.269,3.269,0,0,1-1.834.574A2.325,2.325,0,0,1,56.35-3.43h5a4.161,4.161,0,0,0,.07-.812c0-2.184-1.092-3.654-3.136-3.654-1.806,0-3.514,1.554-3.514,4.06A3.7,3.7,0,0,0,58.52.182ZM56.336-4.536a2.088,2.088,0,0,1,1.974-2.1c1.12,0,1.722.77,1.722,2.1ZM63.084,0h1.6V-5.46a2.6,2.6,0,0,1,1.736-1.05c.882,0,1.288.532,1.288,1.862V0h1.61V-5.46A2.571,2.571,0,0,1,71.05-6.51c.868,0,1.288.532,1.288,1.862V0h1.61V-4.844c0-1.96-.756-3.052-2.366-3.052a3.548,3.548,0,0,0-2.506,1.414A2.055,2.055,0,0,0,66.948-7.9a3.354,3.354,0,0,0-2.38,1.274h-.042L64.4-7.7H63.084ZM79.338.182a4.671,4.671,0,0,0,2.6-.812l-.56-1.022a3.269,3.269,0,0,1-1.834.574,2.325,2.325,0,0,1-2.38-2.352h5a4.161,4.161,0,0,0,.07-.812c0-2.184-1.092-3.654-3.136-3.654-1.806,0-3.514,1.554-3.514,4.06A3.7,3.7,0,0,0,79.338.182ZM77.154-4.536a2.088,2.088,0,0,1,1.974-2.1c1.12,0,1.722.77,1.722,2.1ZM83.9,0h1.6V-5.46a2.629,2.629,0,0,1,1.89-1.05c.91,0,1.3.532,1.3,1.862V0H90.3V-4.844c0-1.96-.728-3.052-2.366-3.052a3.669,3.669,0,0,0-2.548,1.26h-.042L85.218-7.7H83.9ZM95.088.182A4.927,4.927,0,0,0,96.6-.1l-.294-1.19a2.3,2.3,0,0,1-.826.182c-.8,0-1.12-.476-1.12-1.4V-6.412h2V-7.7h-2V-9.828H93L92.82-7.7l-1.19.084v1.2h1.12V-2.52C92.75-.9,93.352.182,95.088.182Zm10.164,0a4.629,4.629,0,0,0,3.262-1.2V-5.488H105v1.33h2.044v2.422a2.555,2.555,0,0,1-1.624.5c-2.128,0-3.262-1.5-3.262-3.948,0-2.422,1.274-3.906,3.192-3.906a2.787,2.787,0,0,1,2.128.924L108.36-9.2a4.111,4.111,0,0,0-3.066-1.3c-2.73,0-4.8,2.016-4.8,5.376S102.494.182,105.252.182Zm8.414,0a3.7,3.7,0,0,0,3.626-4.018c0-2.576-1.722-4.06-3.626-4.06s-3.626,1.484-3.626,4.06A3.7,3.7,0,0,0,113.666.182Zm0-1.316c-1.2,0-1.96-1.078-1.96-2.7s.756-2.73,1.96-2.73,1.974,1.092,1.974,2.73S114.884-1.134,113.666-1.134ZM120.652,0h1.862l2.66-7.7h-1.568L122.29-3.556c-.21.756-.448,1.54-.672,2.3h-.056c-.224-.756-.462-1.54-.672-2.3L119.574-7.7h-1.652Zm8.918.182a4.672,4.672,0,0,0,2.6-.812l-.56-1.022a3.269,3.269,0,0,1-1.834.574A2.325,2.325,0,0,1,127.4-3.43h5a4.162,4.162,0,0,0,.07-.812c0-2.184-1.092-3.654-3.136-3.654-1.806,0-3.514,1.554-3.514,4.06A3.7,3.7,0,0,0,129.57.182Zm-2.184-4.718a2.088,2.088,0,0,1,1.974-2.1c1.12,0,1.722.77,1.722,2.1ZM134.134,0h1.6V-4.8c.49-1.218,1.246-1.652,1.876-1.652a2.278,2.278,0,0,1,.77.126l.294-1.4A1.915,1.915,0,0,0,137.8-7.9a2.662,2.662,0,0,0-2.184,1.582h-.042L135.45-7.7h-1.316Zm5.586,0h1.6V-5.46a2.629,2.629,0,0,1,1.89-1.05c.91,0,1.3.532,1.3,1.862V0h1.61V-4.844c0-1.96-.728-3.052-2.366-3.052a3.669,3.669,0,0,0-2.548,1.26h-.042L141.036-7.7H139.72Zm10.416.182a3.828,3.828,0,0,0,2.45-1.064h.042l.14.882h1.316V-4.634c0-2.044-.882-3.262-2.8-3.262a5.9,5.9,0,0,0-3.108,1.008l.6,1.092A4.234,4.234,0,0,1,151-6.58c1.134,0,1.456.784,1.47,1.68-3.206.35-4.606,1.2-4.606,2.856A2.127,2.127,0,0,0,150.136.182Zm.49-1.274c-.686,0-1.2-.308-1.2-1.064,0-.868.77-1.442,3.052-1.722v1.89A2.715,2.715,0,0,1,150.626-1.092ZM156.226,0h1.6V-5.46a2.629,2.629,0,0,1,1.89-1.05c.91,0,1.3.532,1.3,1.862V0h1.61V-4.844c0-1.96-.728-3.052-2.366-3.052a3.669,3.669,0,0,0-2.548,1.26h-.042L157.542-7.7h-1.316Zm11.732.182A3.752,3.752,0,0,0,170.45-.77l-.658-1.064a2.638,2.638,0,0,1-1.68.7c-1.288,0-2.17-1.078-2.17-2.7s.924-2.73,2.212-2.73a2.017,2.017,0,0,1,1.386.6l.8-1.05a3.306,3.306,0,0,0-2.254-.882,3.783,3.783,0,0,0-3.808,4.06C164.276-1.288,165.872.182,167.958.182Zm6.8,0a4.671,4.671,0,0,0,2.6-.812l-.56-1.022a3.269,3.269,0,0,1-1.834.574,2.325,2.325,0,0,1-2.38-2.352h5a4.161,4.161,0,0,0,.07-.812c0-2.184-1.092-3.654-3.136-3.654-1.806,0-3.514,1.554-3.514,4.06A3.7,3.7,0,0,0,174.762.182Zm-2.184-4.718a2.088,2.088,0,0,1,1.974-2.1c1.12,0,1.722.77,1.722,2.1Z" transform="translate(432.557 57.479)"/>
      <g id="그룹_8454" data-name="그룹 8454" transform="translate(188.274 315.114)">
        <path id="패스_9061" data-name="패스 9061" class="cls-5" d="M0,0V-277.909"/>
      </g>
      <g id="그룹_8455" data-name="그룹 8455" transform="translate(188.274 318.119)">
        <path id="패스_9062" data-name="패스 9062" class="cls-6" d="M0,0H0M0-282.416H0"/>
      </g>
      <path id="패스_9063" data-name="패스 9063" class="cls-3" d="M20.084-215.81H182.3v-30H20.084Z" transform="translate(-9.007 346.06)"/>
      <path id="패스_9097" data-name="패스 9097" class="cls-7" d="M5.655.2A4.251,4.251,0,0,0,9.03-1.38l-.765-.87a3.342,3.342,0,0,1-2.55,1.23c-2.1,0-3.42-1.74-3.42-4.515C2.3-8.28,3.675-9.99,5.76-9.99A3,3,0,0,1,8.01-8.94l.75-.9A4.066,4.066,0,0,0,5.745-11.2C2.955-11.2.87-9.045.87-5.49S2.925.2,5.655.2ZM10.77,0h6.51V-1.185H12.165v-4h4.17V-6.375h-4.17v-3.45h4.95v-1.17H10.77ZM23.355.2c2.76,0,4.695-2.2,4.695-5.73s-1.935-5.67-4.695-5.67S18.66-9.06,18.66-5.535,20.6.2,23.355.2Zm0-1.215c-1.98,0-3.27-1.77-3.27-4.515,0-2.76,1.29-4.455,3.27-4.455,1.965,0,3.27,1.695,3.27,4.455C26.625-2.79,25.32-1.02,23.355-1.02Z" transform="translate(77.864 121.75)"/>
      <text id="_" data-name="•" class="cls-8" transform="translate(354.689 234.01)"><tspan x="0" y="0">•</tspan></text>
      <text id="_2" data-name=" " class="cls-9" transform="translate(359.144 234.01)"><tspan x="0" y="0" xml:space="preserve"> </tspan></text>
      <g id="그룹" transform="translate(0.506 346.06)">
        <text id="_3" data-name="•" class="cls-8" transform="translate(424.486 -112.05)"><tspan x="0" y="0">•</tspan></text>
        <text id="_4" data-name=" " class="cls-9" transform="translate(428.941 -112.05)"><tspan x="0" y="0" xml:space="preserve"> </tspan></text>
      </g>
      <text id="_5" data-name=" " class="cls-10" transform="translate(469.411 234.01)"><tspan x="0" y="0"> </tspan></text>
      <g id="그룹_8456" data-name="그룹 8456" transform="translate(92.804 130.25)">
        <path id="패스_9064" data-name="패스 9064" class="cls-2" d="M0,0V139.42"/>
      </g>
      <g id="그룹-2" data-name="그룹" transform="translate(0.506 346.06)">
        <text id="_6" data-name="•" class="cls-8" transform="translate(15.925 -32.436)"><tspan x="0" y="0">•</tspan></text>
        <text id="_7" data-name=" " class="cls-11" transform="translate(20.38 -32.436)"><tspan x="0" y="0"> </tspan></text>
      </g>
      <path id="패스_9065" data-name="패스 9065" class="cls-12" d="M10.321-51.9H172.792v-39.41H10.321Z" transform="translate(0.506 346.06)"/>
      <path id="패스_9098" data-name="패스 9098" class="cls-7" d="M1.358,0H2.982V-10.3H1.358ZM5.4,0H7V-5.46A2.629,2.629,0,0,1,8.89-6.51c.91,0,1.3.532,1.3,1.862V0H11.8V-4.844C11.8-6.8,11.074-7.9,9.436-7.9a3.669,3.669,0,0,0-2.548,1.26H6.846L6.72-7.7H5.4Zm8.862-7.7-1.05.084v1.2h1.05V0h1.61V-6.412H17.43V-7.7H15.876v-.98c0-.938.336-1.386,1.022-1.386a2.1,2.1,0,0,1,.84.2l.322-1.2A3.5,3.5,0,0,0,16.7-11.34c-1.722,0-2.436,1.092-2.436,2.674Zm5.656-1.442a.966.966,0,0,0,1.036-.952.958.958,0,0,0-1.036-.952.958.958,0,0,0-1.036.952A.966.966,0,0,0,19.922-9.142ZM19.11,0h1.61V-7.7H19.11ZM23,0h1.6V-5.46a2.629,2.629,0,0,1,1.89-1.05c.91,0,1.3.532,1.3,1.862V0H29.4V-4.844c0-1.96-.728-3.052-2.366-3.052a3.669,3.669,0,0,0-2.548,1.26h-.042L24.318-7.7H23Zm8.6,0h1.6V-7.7H31.6Zm.8-9.142a.966.966,0,0,0,1.036-.952.958.958,0,0,0-1.036-.952.946.946,0,0,0-1.022.952A.954.954,0,0,0,32.4-9.142ZM38.066.182A4.927,4.927,0,0,0,39.578-.1l-.294-1.19a2.3,2.3,0,0,1-.826.182c-.8,0-1.12-.476-1.12-1.4V-6.412h2V-7.7h-2V-9.828H35.98L35.8-7.7l-1.19.084v1.2h1.12V-2.52C35.728-.9,36.33.182,38.066.182Zm5.782,0a4.671,4.671,0,0,0,2.6-.812l-.56-1.022a3.269,3.269,0,0,1-1.834.574,2.325,2.325,0,0,1-2.38-2.352h5a4.161,4.161,0,0,0,.07-.812c0-2.184-1.092-3.654-3.136-3.654C41.8-7.9,40.1-6.342,40.1-3.836A3.7,3.7,0,0,0,43.848.182ZM41.664-4.536a2.088,2.088,0,0,1,1.974-2.1c1.12,0,1.722.77,1.722,2.1ZM53.186-9H54.74c1.5,0,2.31.434,2.31,1.68S56.238-5.46,54.74-5.46H53.186Zm5.838,9L56.5-4.368A2.868,2.868,0,0,0,58.66-7.322c0-2.226-1.6-2.982-3.724-2.982H51.562V0h1.624V-4.158h1.666L57.19,0ZM63.5.182a4.671,4.671,0,0,0,2.6-.812l-.56-1.022a3.269,3.269,0,0,1-1.834.574,2.325,2.325,0,0,1-2.38-2.352h5a4.161,4.161,0,0,0,.07-.812C66.4-6.426,65.31-7.9,63.266-7.9c-1.806,0-3.514,1.554-3.514,4.06A3.7,3.7,0,0,0,63.5.182ZM61.32-4.536a2.088,2.088,0,0,1,1.974-2.1c1.12,0,1.722.77,1.722,2.1ZM70.154.182c1.9,0,2.926-1.05,2.926-2.338,0-1.456-1.19-1.932-2.268-2.338-.84-.308-1.638-.56-1.638-1.218,0-.532.392-.952,1.232-.952a2.882,2.882,0,0,1,1.722.672l.756-.994a4.053,4.053,0,0,0-2.506-.91c-1.694,0-2.73.966-2.73,2.254s1.176,1.848,2.2,2.24c.84.322,1.708.63,1.708,1.33,0,.588-.434,1.036-1.358,1.036a3.413,3.413,0,0,1-2.184-.882L67.256-.882A4.736,4.736,0,0,0,70.154.182Zm4.494,2.94h1.6V.63L76.2-.686a3.175,3.175,0,0,0,2.03.868c1.736,0,3.318-1.512,3.318-4.158,0-2.366-1.092-3.92-3.052-3.92A3.9,3.9,0,0,0,76.132-6.86H76.09l-.126-.84H74.648Zm3.276-4.27a2.609,2.609,0,0,1-1.68-.7V-5.614a2.706,2.706,0,0,1,1.834-.938c1.288,0,1.806.994,1.806,2.6C79.884-2.142,79.044-1.148,77.924-1.148ZM86.408.182a3.7,3.7,0,0,0,3.626-4.018c0-2.576-1.722-4.06-3.626-4.06s-3.626,1.484-3.626,4.06A3.7,3.7,0,0,0,86.408.182Zm0-1.316c-1.2,0-1.96-1.078-1.96-2.7s.756-2.73,1.96-2.73,1.974,1.092,1.974,2.73S87.626-1.134,86.408-1.134ZM91.784,0h1.6V-5.46a2.629,2.629,0,0,1,1.89-1.05c.91,0,1.3.532,1.3,1.862V0h1.61V-4.844c0-1.96-.728-3.052-2.366-3.052a3.669,3.669,0,0,0-2.548,1.26h-.042L93.1-7.7H91.784Zm10.682.182c1.9,0,2.926-1.05,2.926-2.338,0-1.456-1.19-1.932-2.268-2.338-.84-.308-1.638-.56-1.638-1.218,0-.532.392-.952,1.232-.952a2.882,2.882,0,0,1,1.722.672l.756-.994a4.053,4.053,0,0,0-2.506-.91c-1.694,0-2.73.966-2.73,2.254s1.176,1.848,2.2,2.24c.84.322,1.708.63,1.708,1.33,0,.588-.434,1.036-1.358,1.036a3.413,3.413,0,0,1-2.184-.882L99.568-.882A4.736,4.736,0,0,0,102.466.182ZM106.96,0h1.6V-7.7h-1.6Zm.8-9.142a.966.966,0,0,0,1.036-.952.958.958,0,0,0-1.036-.952.946.946,0,0,0-1.022.952A.954.954,0,0,0,107.758-9.142ZM114.422.182c1.736,0,3.318-1.512,3.318-4.158,0-2.366-1.106-3.92-3.052-3.92a3.675,3.675,0,0,0-2.3,1.008l.042-1.316v-2.954h-1.6V0h1.26l.154-.8h.042A3.2,3.2,0,0,0,114.422.182Zm-.308-1.33a2.582,2.582,0,0,1-1.68-.7V-5.614a2.679,2.679,0,0,1,1.834-.938c1.288,0,1.806.994,1.806,2.6C116.074-2.142,115.234-1.148,114.114-1.148ZM119.5,0h1.6V-7.7h-1.6Zm.8-9.142a.966.966,0,0,0,1.036-.952.958.958,0,0,0-1.036-.952.946.946,0,0,0-1.022.952A.954.954,0,0,0,120.3-9.142ZM124.978.182a2.586,2.586,0,0,0,.868-.126l-.21-1.218a1.118,1.118,0,0,1-.266.028c-.2,0-.392-.154-.392-.588v-9.436h-1.6v9.352C123.382-.56,123.816.182,124.978.182ZM127.414,0h1.6V-7.7h-1.6Zm.8-9.142a.966.966,0,0,0,1.036-.952.958.958,0,0,0-1.036-.952.946.946,0,0,0-1.022.952A.954.954,0,0,0,128.212-9.142Zm5.67,9.324a4.927,4.927,0,0,0,1.512-.28l-.294-1.19a2.3,2.3,0,0,1-.826.182c-.8,0-1.12-.476-1.12-1.4V-6.412h2V-7.7h-2V-9.828H131.8L131.614-7.7l-1.19.084v1.2h1.12V-2.52C131.544-.9,132.146.182,133.882.182Z" transform="translate(21.641 270.845)"/>
      <path id="패스_9101" data-name="패스 9101" class="cls-7" d="M7.434-7.7H5.866L4.634-3.738l-.6,2.17h-.07c-.238-.714-.476-1.484-.7-2.17L1.834-7.7H.182L3.234-.056,3.08.476C2.8,1.3,2.31,1.918,1.47,1.918a2.086,2.086,0,0,1-.56-.112L.6,3.066a2.738,2.738,0,0,0,.966.154C3.192,3.22,4,2.114,4.606.462Z" transform="translate(154.631 270.845)"/>
      <path id="패스_9099" data-name="패스 9099" class="cls-7" d="M5.376.182A4.069,4.069,0,0,0,8.582-1.3L7.714-2.324A3,3,0,0,1,5.432-1.232c-1.82,0-2.968-1.5-2.968-3.948,0-2.422,1.232-3.906,3.01-3.906a2.741,2.741,0,0,1,2.016.924L8.372-9.2a3.971,3.971,0,0,0-2.926-1.3C2.842-10.5.8-8.484.8-5.124S2.786.182,5.376.182Zm7.826,0a3.7,3.7,0,0,0,3.626-4.018c0-2.576-1.722-4.06-3.626-4.06S9.576-6.412,9.576-3.836A3.7,3.7,0,0,0,13.2.182Zm0-1.316c-1.2,0-1.96-1.078-1.96-2.7S12-6.566,13.2-6.566s1.974,1.092,1.974,2.73S14.42-1.134,13.2-1.134ZM18.578,0h1.6V-5.46A2.6,2.6,0,0,1,21.91-6.51c.882,0,1.288.532,1.288,1.862V0h1.61V-5.46a2.571,2.571,0,0,1,1.736-1.05c.868,0,1.288.532,1.288,1.862V0h1.61V-4.844c0-1.96-.756-3.052-2.366-3.052A3.548,3.548,0,0,0,24.57-6.482,2.055,2.055,0,0,0,22.442-7.9a3.354,3.354,0,0,0-2.38,1.274H20.02L19.894-7.7H18.578ZM31.626,0h1.6V-5.46a2.6,2.6,0,0,1,1.736-1.05c.882,0,1.288.532,1.288,1.862V0h1.61V-5.46a2.571,2.571,0,0,1,1.736-1.05c.868,0,1.288.532,1.288,1.862V0h1.61V-4.844c0-1.96-.756-3.052-2.366-3.052a3.548,3.548,0,0,0-2.506,1.414A2.055,2.055,0,0,0,35.49-7.9a3.354,3.354,0,0,0-2.38,1.274h-.042L32.942-7.7H31.626ZM44.674,0h1.6V-7.7h-1.6Zm.8-9.142a.966.966,0,0,0,1.036-.952.958.958,0,0,0-1.036-.952.946.946,0,0,0-1.022.952A.954.954,0,0,0,45.472-9.142ZM51.142.182A4.927,4.927,0,0,0,52.654-.1l-.294-1.19a2.3,2.3,0,0,1-.826.182c-.8,0-1.12-.476-1.12-1.4V-6.412h2V-7.7h-2V-9.828H49.056L48.874-7.7l-1.19.084v1.2H48.8V-2.52C48.8-.9,49.406.182,51.142.182Z" transform="translate(55.944 289.84)"/>
      <path id="패스_9100" data-name="패스 9100" class="cls-7" d="M3.808.182A4.927,4.927,0,0,0,5.32-.1l-.294-1.19a2.3,2.3,0,0,1-.826.182c-.8,0-1.12-.476-1.12-1.4V-6.412h2V-7.7h-2V-9.828H1.722L1.54-7.7.35-7.616v1.2H1.47V-2.52C1.47-.9,2.072.182,3.808.182Zm5.782,0a4.671,4.671,0,0,0,2.6-.812l-.56-1.022A3.269,3.269,0,0,1,9.8-1.078,2.325,2.325,0,0,1,7.42-3.43h5a4.161,4.161,0,0,0,.07-.812C12.488-6.426,11.4-7.9,9.352-7.9c-1.806,0-3.514,1.554-3.514,4.06A3.7,3.7,0,0,0,9.59.182ZM7.406-4.536a2.088,2.088,0,0,1,1.974-2.1c1.12,0,1.722.77,1.722,2.1ZM17.36.182a4.671,4.671,0,0,0,2.6-.812L19.4-1.652a3.269,3.269,0,0,1-1.834.574A2.325,2.325,0,0,1,15.19-3.43h5a4.161,4.161,0,0,0,.07-.812c0-2.184-1.092-3.654-3.136-3.654-1.806,0-3.514,1.554-3.514,4.06A3.7,3.7,0,0,0,17.36.182ZM15.176-4.536a2.088,2.088,0,0,1,1.974-2.1c1.12,0,1.722.77,1.722,2.1Z" transform="translate(109.301 289.84)"/>
      <g id="그룹_8457" data-name="그룹 8457" transform="translate(10.826 293.665)">
        <path id="패스_9066" data-name="패스 9066" class="cls-13" d="M0,0H162.471"/>
      </g>
      <g id="그룹_8458" data-name="그룹 8458" transform="translate(682.759 87.42)">
        <path id="패스_9067" data-name="패스 9067" class="cls-2" d="M-4.96,0H-142.921V24H-4.96Z" transform="translate(142.921)"/>
      </g>
      <g id="그룹-3" data-name="그룹" transform="translate(0.506 346.06)">
        <path id="패스_9125" data-name="패스 9125" class="cls-14" d="M1.992-8.148H3.66c1.512,0,2.352.468,2.352,1.74s-.84,1.86-2.352,1.86H1.992ZM6.924,0,4.56-4.008a2.3,2.3,0,0,0,2.184-2.4c0-1.7-1.176-2.34-2.916-2.34H1.272V0h.72V-3.948H3.78L6.108,0ZM10.56.156A3.579,3.579,0,0,0,12.6-.468l-.264-.516a2.864,2.864,0,0,1-1.7.552,2.422,2.422,0,0,1-2.34-2.652h4.536a3.319,3.319,0,0,0,.036-.5c0-1.872-.924-2.976-2.472-2.976-1.452,0-2.808,1.3-2.808,3.372A3.03,3.03,0,0,0,10.56.156ZM8.292-3.636A2.278,2.278,0,0,1,10.4-5.964c1.116,0,1.824.78,1.824,2.328ZM15.168.156a1.41,1.41,0,0,0,.468-.072l-.108-.552a1.073,1.073,0,0,1-.228.024c-.168,0-.288-.132-.288-.432V-9.54h-.7V-.948C14.316-.2,14.592.156,15.168.156ZM17.268,0h.7V-6.4h-.7Zm.36-7.9a.566.566,0,0,0,.588-.552.564.564,0,0,0-.588-.576.557.557,0,0,0-.588.576A.559.559,0,0,0,17.628-7.9ZM21.516.156a3.687,3.687,0,0,0,2.232-.972h.024L23.844,0h.588V-4.056c0-1.416-.54-2.508-2.064-2.508a4.436,4.436,0,0,0-2.424.84l.312.5a3.458,3.458,0,0,1,2.016-.732c1.212,0,1.488.984,1.464,1.932-2.82.324-4.08,1-4.08,2.412A1.688,1.688,0,0,0,21.516.156Zm.144-.588a1.153,1.153,0,0,1-1.308-1.212c0-.984.864-1.572,3.384-1.86v2.076A3.152,3.152,0,0,1,21.66-.432Zm7.32.588c1.5,0,2.82-1.272,2.82-3.456,0-1.968-.864-3.264-2.568-3.264a3.538,3.538,0,0,0-2.16.984L27.108-6.8V-9.54h-.7V0h.564l.084-.648h.024A3.162,3.162,0,0,0,28.98.156Zm-.06-.612a2.884,2.884,0,0,1-1.812-.78v-3.7A3.151,3.151,0,0,1,29.1-5.952c1.428,0,1.956,1.116,1.956,2.652C31.056-1.584,30.168-.456,28.92-.456ZM33.4,0h.7V-6.4h-.7Zm.36-7.9a.566.566,0,0,0,.588-.552.564.564,0,0,0-.588-.576.557.557,0,0,0-.588.576A.559.559,0,0,0,33.756-7.9ZM37.08.156a1.41,1.41,0,0,0,.468-.072L37.44-.468a1.073,1.073,0,0,1-.228.024c-.168,0-.288-.132-.288-.432V-9.54h-.7V-.948C36.228-.2,36.5.156,37.08.156ZM39.18,0h.7V-6.4h-.7Zm.36-7.9a.566.566,0,0,0,.588-.552.564.564,0,0,0-.588-.576.557.557,0,0,0-.588.576A.559.559,0,0,0,39.54-7.9ZM43.812.156a3.619,3.619,0,0,0,1.068-.24l-.168-.54a2.237,2.237,0,0,1-.78.18c-.852,0-1.068-.528-1.068-1.332V-5.808H44.7V-6.4H42.864V-8.244h-.588L42.192-6.4l-1.02.06v.528h1v3.984C42.168-.636,42.552.156,43.812.156Z" transform="translate(710.443 -241.14)"/>
        <path id="패스_9126" data-name="패스 9126" class="cls-14" d="M1.02,2.88C2.2,2.88,2.844,1.848,3.228.744l2.5-7.14H5.016L3.708-2.484c-.18.552-.384,1.224-.576,1.8h-.06C2.844-1.26,2.6-1.932,2.4-2.484L.912-6.4H.156L2.772.1,2.6.636c-.312.924-.828,1.62-1.6,1.62a1.646,1.646,0,0,1-.516-.1l-.156.588A1.7,1.7,0,0,0,1.02,2.88Z" transform="translate(756.583 -241.14)"/>
        <text id="_8" data-name=" " class="cls-15" transform="translate(763.585 -241.14)"><tspan x="0" y="0"> </tspan></text>
        <path id="패스_9127" data-name="패스 9127" class="cls-14" d="M3.132,0h.732V-8.136h2.76v-.612H.384v.612H3.132Z" transform="translate(767.015 -241.14)"/>
        <path id="패스_9128" data-name="패스 9128" class="cls-14" d="M3.648.156a3.579,3.579,0,0,0,2.04-.624L5.424-.984a2.864,2.864,0,0,1-1.7.552A2.422,2.422,0,0,1,1.38-3.084H5.916a3.319,3.319,0,0,0,.036-.5c0-1.872-.924-2.976-2.472-2.976-1.452,0-2.808,1.3-2.808,3.372A3.03,3.03,0,0,0,3.648.156ZM1.38-3.636A2.278,2.278,0,0,1,3.492-5.964c1.116,0,1.824.78,1.824,2.328ZM8.616.156a3.687,3.687,0,0,0,2.232-.972h.024L10.944,0h.588V-4.056c0-1.416-.54-2.508-2.064-2.508a4.436,4.436,0,0,0-2.424.84l.312.5a3.458,3.458,0,0,1,2.016-.732c1.212,0,1.488.984,1.464,1.932-2.82.324-4.08,1-4.08,2.412A1.688,1.688,0,0,0,8.616.156ZM8.76-.432A1.153,1.153,0,0,1,7.452-1.644c0-.984.864-1.572,3.384-1.86v2.076A3.152,3.152,0,0,1,8.76-.432ZM13.512,0h.7V-4.788A2.7,2.7,0,0,1,16.056-5.94c.948,0,1.38.612,1.38,1.944V0h.7V-4.788A2.7,2.7,0,0,1,19.98-5.94c.936,0,1.38.612,1.38,1.944V0h.7V-4.092c0-1.644-.636-2.472-1.92-2.472a3.2,3.2,0,0,0-2.16,1.3,1.657,1.657,0,0,0-1.764-1.3A2.97,2.97,0,0,0,14.2-5.424h-.024L14.088-6.4h-.576Z" transform="translate(773.004 -241.14)"/>
      </g>
      <g id="그룹_8459" data-name="그룹 8459" transform="translate(682.759 158.31)">
        <path id="패스_9068" data-name="패스 9068" class="cls-2" d="M-4.96,0H-142.921V35.89H-4.96Z" transform="translate(142.921)"/>
      </g>
      <path id="패스_9136" data-name="패스 9136" class="cls-14" d="M4.344.156C6.48.156,7.98-1.62,7.98-4.4S6.48-8.9,4.344-8.9C2.232-8.9.72-7.176.72-4.4S2.232.156,4.344.156Zm0-.648C2.616-.492,1.476-2.028,1.476-4.4s1.14-3.852,2.868-3.852S7.236-6.78,7.236-4.4,6.084-.492,4.344-.492Zm7.4.648a2.84,2.84,0,0,0,2.16-1.212h.036L14,0h.588V-6.4h-.7v4.68c-.72.864-1.248,1.248-1.992,1.248-.984,0-1.392-.612-1.392-1.92V-6.4h-.7V-2.3C9.816-.66,10.416.156,11.748.156Zm7.044,0a3.619,3.619,0,0,0,1.068-.24l-.168-.54a2.237,2.237,0,0,1-.78.18c-.852,0-1.068-.528-1.068-1.332V-5.808H19.68V-6.4H17.844V-8.244h-.588L17.172-6.4l-1.02.06v.528h1v3.984C17.148-.636,17.532.156,18.792.156Z" transform="translate(699.374 173.505)"/>
      <path id="패스_9137" data-name="패스 9137" class="cls-14" d="M2.772.156c1.416,0,2.2-.84,2.2-1.824,0-1.236-1.08-1.584-2.064-1.956C2.16-3.9,1.416-4.164,1.416-4.872c0-.576.432-1.1,1.38-1.1A2.453,2.453,0,0,1,4.32-5.4l.36-.48a3.089,3.089,0,0,0-1.86-.684c-1.344,0-2.1.792-2.1,1.728,0,1.1,1.056,1.5,2,1.836.744.264,1.548.612,1.548,1.368,0,.66-.492,1.212-1.464,1.212a2.93,2.93,0,0,1-2.016-.8L.42-.72A3.748,3.748,0,0,0,2.772.156Zm6.216,0c1.548,0,2.892-1.224,2.892-3.348S10.536-6.564,8.988-6.564,6.1-5.328,6.1-3.192,7.44.156,8.988.156Zm0-.6c-1.248,0-2.16-1.116-2.16-2.748s.912-2.76,2.16-2.76,2.172,1.128,2.172,2.76S10.236-.444,8.988-.444Zm6.6.6a2.84,2.84,0,0,0,2.16-1.212h.036L17.844,0h.588V-6.4h-.7v4.68c-.72.864-1.248,1.248-1.992,1.248-.984,0-1.392-.612-1.392-1.92V-6.4h-.7V-2.3C13.656-.66,14.256.156,15.588.156Z" transform="translate(719.958 173.505)"/>
      <path id="패스_9138" data-name="패스 9138" class="cls-14" d="M1.2,0h.7V-4.3C2.364-5.484,3.048-5.9,3.612-5.9A1.353,1.353,0,0,1,4.2-5.8l.144-.624A1.289,1.289,0,0,0,3.7-6.564,2.2,2.2,0,0,0,1.884-5.208H1.86L1.776-6.4H1.2ZM7.776.156a3.1,3.1,0,0,0,2.04-.828l-.336-.48a2.555,2.555,0,0,1-1.668.708C6.468-.444,5.58-1.56,5.58-3.192s.972-2.76,2.244-2.76A2.1,2.1,0,0,1,9.288-5.3l.4-.48a2.705,2.705,0,0,0-1.872-.78A3.056,3.056,0,0,0,4.848-3.192C4.848-1.068,6.108.156,7.776.156ZM11.364,0h.7V-6.4h-.7Zm.36-7.9a.566.566,0,0,0,.588-.552.564.564,0,0,0-.588-.576.557.557,0,0,0-.588.576A.559.559,0,0,0,11.724-7.9Z" transform="translate(739.688 173.505)"/>
      <path id="패스_9139" data-name="패스 9139" class="cls-14" d="M1.2,0h.7V-4.788C2.64-5.556,3.168-5.94,3.912-5.94c.984,0,1.4.612,1.4,1.944V0h.7V-4.092c0-1.644-.612-2.472-1.944-2.472a3.146,3.146,0,0,0-2.184,1.14H1.86L1.776-6.4H1.2Z" transform="translate(752.862 173.505)"/>
      <path id="패스_9140" data-name="패스 9140" class="cls-14" d="M3.3,3.048c1.872,0,3.072-1.056,3.072-2.172C6.372-.144,5.688-.6,4.236-.6H2.892c-.924,0-1.2-.348-1.2-.8a1.1,1.1,0,0,1,.5-.888,2.162,2.162,0,0,0,1.032.264A2.2,2.2,0,0,0,5.484-4.284a2.04,2.04,0,0,0-.66-1.536h1.44V-6.4H4.08a2.274,2.274,0,0,0-.852-.168A2.234,2.234,0,0,0,.936-4.3a2.316,2.316,0,0,0,.816,1.74v.048A1.591,1.591,0,0,0,1.044-1.32,1.147,1.147,0,0,0,1.62-.288v.06A1.944,1.944,0,0,0,.66,1.3C.66,2.376,1.7,3.048,3.3,3.048Zm-.072-5.6a1.64,1.64,0,0,1-1.6-1.74A1.587,1.587,0,0,1,3.228-6,1.585,1.585,0,0,1,4.812-4.3,1.638,1.638,0,0,1,3.228-2.556ZM3.384,2.52c-1.308,0-2.064-.528-2.064-1.308A1.6,1.6,0,0,1,2.112-.072a4.5,4.5,0,0,0,.8.108H4.224c.948,0,1.452.252,1.452.936C5.676,1.74,4.776,2.52,3.384,2.52ZM10.656-4.4c0-2.376,1.14-3.852,2.868-3.852S16.416-6.78,16.416-4.4c0,2.4-1.152,3.948-2.892,3.948S10.656-2,10.656-4.4Zm6.42,5.736a2.767,2.767,0,0,1-.888.12A2.3,2.3,0,0,1,13.944.132C15.852-.084,17.16-1.812,17.16-4.4c0-2.772-1.5-4.5-3.636-4.5C11.412-8.9,9.9-7.176,9.9-4.4,9.9-1.788,11.232-.06,13.152.132a3.039,3.039,0,0,0,2.964,1.956,3.7,3.7,0,0,0,1.116-.156ZM20.928.156a2.84,2.84,0,0,0,2.16-1.212h.036L23.184,0h.588V-6.4h-.7v4.68c-.72.864-1.248,1.248-1.992,1.248-.984,0-1.392-.612-1.392-1.92V-6.4H19V-2.3C19-.66,19.6.156,20.928.156Z" transform="translate(759.908 173.505)"/>
      <path id="패스_9142" data-name="패스 9142" class="cls-14" d="M2.616.156A3.687,3.687,0,0,0,4.848-.816h.024L4.944,0h.588V-4.056c0-1.416-.54-2.508-2.064-2.508a4.436,4.436,0,0,0-2.424.84l.312.5a3.458,3.458,0,0,1,2.016-.732c1.212,0,1.488.984,1.464,1.932-2.82.324-4.08,1-4.08,2.412A1.688,1.688,0,0,0,2.616.156ZM2.76-.432A1.153,1.153,0,0,1,1.452-1.644c0-.984.864-1.572,3.384-1.86v2.076A3.152,3.152,0,0,1,2.76-.432ZM8.616.156A1.41,1.41,0,0,0,9.084.084L8.976-.468a1.073,1.073,0,0,1-.228.024c-.168,0-.288-.132-.288-.432V-9.54h-.7V-.948C7.764-.2,8.04.156,8.616.156Z" transform="translate(784.763 173.505)"/>
      <path id="패스_9171" data-name="패스 9171" class="cls-14" d="M1.2,0h.7V-6.4H1.2Zm.36-7.9a.566.566,0,0,0,.588-.552.564.564,0,0,0-.588-.576.557.557,0,0,0-.588.576A.559.559,0,0,0,1.56-7.9ZM6.084.156a3.619,3.619,0,0,0,1.068-.24l-.168-.54a2.237,2.237,0,0,1-.78.18c-.852,0-1.068-.528-1.068-1.332V-5.808H6.972V-6.4H5.136V-8.244H4.548L4.464-6.4l-1.02.06v.528h1v3.984C4.44-.636,4.824.156,6.084.156Z" transform="translate(794.297 173.505)"/>
      <path id="패스_9141" data-name="패스 9141" class="cls-14" d="M1.02,2.88C2.2,2.88,2.844,1.848,3.228.744l2.5-7.14H5.016L3.708-2.484c-.18.552-.384,1.224-.576,1.8h-.06C2.844-1.26,2.6-1.932,2.4-2.484L.912-6.4H.156L2.772.1,2.6.636c-.312.924-.828,1.62-1.6,1.62a1.646,1.646,0,0,1-.516-.1l-.156.588A1.7,1.7,0,0,0,1.02,2.88Z" transform="translate(802.062 173.505)"/>
      <path id="패스_9166" data-name="패스 9166" class="cls-14" d="M3.132,0h.732V-8.136h2.76v-.612H.384v.612H3.132ZM8.7.156a3.579,3.579,0,0,0,2.04-.624l-.264-.516a2.864,2.864,0,0,1-1.7.552,2.422,2.422,0,0,1-2.34-2.652h4.536a3.319,3.319,0,0,0,.036-.5c0-1.872-.924-2.976-2.472-2.976-1.452,0-2.808,1.3-2.808,3.372A3.03,3.03,0,0,0,8.7.156ZM6.432-3.636A2.278,2.278,0,0,1,8.544-5.964c1.116,0,1.824.78,1.824,2.328Z" transform="translate(739.236 190.005)"/>
      <path id="패스_9167" data-name="패스 9167" class="cls-14" d="M2.616.156A3.687,3.687,0,0,0,4.848-.816h.024L4.944,0h.588V-4.056c0-1.416-.54-2.508-2.064-2.508a4.436,4.436,0,0,0-2.424.84l.312.5a3.458,3.458,0,0,1,2.016-.732c1.212,0,1.488.984,1.464,1.932-2.82.324-4.08,1-4.08,2.412A1.688,1.688,0,0,0,2.616.156ZM2.76-.432A1.153,1.153,0,0,1,1.452-1.644c0-.984.864-1.572,3.384-1.86v2.076A3.152,3.152,0,0,1,2.76-.432Z" transform="translate(751.611 190.005)"/>
      <path id="패스_9168" data-name="패스 9168" class="cls-14" d="M1.2,0h.7V-4.788A2.7,2.7,0,0,1,3.744-5.94c.948,0,1.38.612,1.38,1.944V0h.7V-4.788A2.7,2.7,0,0,1,7.668-5.94c.936,0,1.38.612,1.38,1.944V0h.7V-4.092c0-1.644-.636-2.472-1.92-2.472a3.2,3.2,0,0,0-2.16,1.3A1.657,1.657,0,0,0,3.9-6.564a2.97,2.97,0,0,0-2.016,1.14H1.86L1.776-6.4H1.2Z" transform="translate(758.141 190.005)"/>
      <g id="그룹_8460" data-name="그룹 8460" transform="translate(682.759 199.7)">
        <path id="패스_9069" data-name="패스 9069" class="cls-2" d="M-4.96,0H-142.921V35.89H-4.96Z" transform="translate(142.921)"/>
      </g>
      <path id="패스_9169" data-name="패스 9169" class="cls-14" d="M2.652,0h.72V-3.516L6-8.748H5.256L3.972-6.072c-.276.636-.6,1.248-.936,1.9H2.988c-.324-.648-.6-1.26-.912-1.9L.792-8.748H.024L2.652-3.516Z" transform="translate(719.696 214.895)"/>
      <path id="패스_9165" data-name="패스 9165" class="cls-14" d="M3.036.156A2.84,2.84,0,0,0,5.2-1.056h.036L5.292,0H5.88V-6.4h-.7v4.68C4.464-.852,3.936-.468,3.192-.468,2.208-.468,1.8-1.08,1.8-2.388V-6.4H1.1V-2.3C1.1-.66,1.7.156,3.036.156Z" transform="translate(725.382 214.895)"/>
      <path id="패스_9161" data-name="패스 9161" class="cls-14" d="M3.3,3.048c1.872,0,3.072-1.056,3.072-2.172C6.372-.144,5.688-.6,4.236-.6H2.892c-.924,0-1.2-.348-1.2-.8a1.1,1.1,0,0,1,.5-.888,2.162,2.162,0,0,0,1.032.264A2.2,2.2,0,0,0,5.484-4.284a2.04,2.04,0,0,0-.66-1.536h1.44V-6.4H4.08a2.274,2.274,0,0,0-.852-.168A2.234,2.234,0,0,0,.936-4.3a2.316,2.316,0,0,0,.816,1.74v.048A1.591,1.591,0,0,0,1.044-1.32,1.147,1.147,0,0,0,1.62-.288v.06A1.944,1.944,0,0,0,.66,1.3C.66,2.376,1.7,3.048,3.3,3.048Zm-.072-5.6a1.64,1.64,0,0,1-1.6-1.74A1.587,1.587,0,0,1,3.228-6,1.585,1.585,0,0,1,4.812-4.3,1.638,1.638,0,0,1,3.228-2.556ZM3.384,2.52c-1.308,0-2.064-.528-2.064-1.308A1.6,1.6,0,0,1,2.112-.072a4.5,4.5,0,0,0,.8.108H4.224c.948,0,1.452.252,1.452.936C5.676,1.74,4.776,2.52,3.384,2.52ZM9.552.156a2.84,2.84,0,0,0,2.16-1.212h.036L11.808,0H12.4V-6.4h-.7v4.68c-.72.864-1.248,1.248-1.992,1.248-.984,0-1.392-.612-1.392-1.92V-6.4h-.7V-2.3C7.62-.66,8.22.156,9.552.156ZM17.736-4.4c0-2.376,1.14-3.852,2.868-3.852S23.5-6.78,23.5-4.4C23.5-2,22.344-.456,20.6-.456S17.736-2,17.736-4.4Zm6.42,5.736a2.767,2.767,0,0,1-.888.12A2.3,2.3,0,0,1,21.024.132C22.932-.084,24.24-1.812,24.24-4.4c0-2.772-1.5-4.5-3.636-4.5-2.112,0-3.624,1.728-3.624,4.5,0,2.616,1.332,4.344,3.252,4.536A3.039,3.039,0,0,0,23.2,2.088a3.7,3.7,0,0,0,1.116-.156ZM28.008.156a2.84,2.84,0,0,0,2.16-1.212H30.2L30.264,0h.588V-6.4h-.7v4.68c-.72.864-1.248,1.248-1.992,1.248-.984,0-1.392-.612-1.392-1.92V-6.4h-.7V-2.3C26.076-.66,26.676.156,28.008.156Z" transform="translate(732.37 214.895)"/>
      <path id="패스_9162" data-name="패스 9162" class="cls-14" d="M2.616.156A3.687,3.687,0,0,0,4.848-.816h.024L4.944,0h.588V-4.056c0-1.416-.54-2.508-2.064-2.508a4.436,4.436,0,0,0-2.424.84l.312.5a3.458,3.458,0,0,1,2.016-.732c1.212,0,1.488.984,1.464,1.932-2.82.324-4.08,1-4.08,2.412A1.688,1.688,0,0,0,2.616.156ZM2.76-.432A1.153,1.153,0,0,1,1.452-1.644c0-.984.864-1.572,3.384-1.86v2.076A3.152,3.152,0,0,1,2.76-.432ZM8.616.156A1.41,1.41,0,0,0,9.084.084L8.976-.468a1.073,1.073,0,0,1-.228.024c-.168,0-.288-.132-.288-.432V-9.54h-.7V-.948C7.764-.2,8.04.156,8.616.156Z" transform="translate(764.442 214.895)"/>
      <path id="패스_9163" data-name="패스 9163" class="cls-14" d="M1.2,0h.7V-6.4H1.2Zm.36-7.9a.566.566,0,0,0,.588-.552.564.564,0,0,0-.588-.576.557.557,0,0,0-.588.576A.559.559,0,0,0,1.56-7.9ZM6.084.156a3.619,3.619,0,0,0,1.068-.24l-.168-.54a2.237,2.237,0,0,1-.78.18c-.852,0-1.068-.528-1.068-1.332V-5.808H6.972V-6.4H5.136V-8.244H4.548L4.464-6.4l-1.02.06v.528h1v3.984C4.44-.636,4.824.156,6.084.156Z" transform="translate(773.976 214.895)"/>
      <path id="패스_9164" data-name="패스 9164" class="cls-14" d="M1.02,2.88C2.2,2.88,2.844,1.848,3.228.744l2.5-7.14H5.016L3.708-2.484c-.18.552-.384,1.224-.576,1.8h-.06C2.844-1.26,2.6-1.932,2.4-2.484L.912-6.4H.156L2.772.1,2.6.636c-.312.924-.828,1.62-1.6,1.62a1.646,1.646,0,0,1-.516-.1l-.156.588A1.7,1.7,0,0,0,1.02,2.88Z" transform="translate(781.742 214.895)"/>
      <path id="패스_9157" data-name="패스 9157" class="cls-14" d="M1.272,0h.66V-5.544c0-.72-.048-1.68-.084-2.412H1.9L2.58-6,4.428-.936H5L6.84-6l.684-1.956h.048c-.036.732-.084,1.692-.084,2.412V0h.684V-8.748h-.96L5.412-3.72c-.216.636-.42,1.284-.648,1.92H4.716L4.032-3.72l-1.8-5.028h-.96ZM11.82.156a3.687,3.687,0,0,0,2.232-.972h.024L14.148,0h.588V-4.056c0-1.416-.54-2.508-2.064-2.508a4.436,4.436,0,0,0-2.424.84l.312.5a3.458,3.458,0,0,1,2.016-.732c1.212,0,1.488.984,1.464,1.932-2.82.324-4.08,1-4.08,2.412A1.688,1.688,0,0,0,11.82.156Zm.144-.588a1.153,1.153,0,0,1-1.308-1.212c0-.984.864-1.572,3.384-1.86v2.076A3.152,3.152,0,0,1,11.964-.432ZM16.728,0h.7V-4.788C18.168-5.556,18.7-5.94,19.44-5.94c.984,0,1.4.612,1.4,1.944V0h.7V-4.092c0-1.644-.612-2.472-1.944-2.472a3.146,3.146,0,0,0-2.184,1.14h-.024L17.3-6.4h-.576ZM25.02.156a3.687,3.687,0,0,0,2.232-.972h.024L27.348,0h.588V-4.056c0-1.416-.54-2.508-2.064-2.508a4.436,4.436,0,0,0-2.424.84l.312.5a3.458,3.458,0,0,1,2.016-.732c1.212,0,1.488.984,1.464,1.932-2.82.324-4.08,1-4.08,2.412A1.688,1.688,0,0,0,25.02.156Zm.144-.588a1.153,1.153,0,0,1-1.308-1.212c0-.984.864-1.572,3.384-1.86v2.076A3.152,3.152,0,0,1,25.164-.432Zm6.864,3.48C33.9,3.048,35.1,1.992,35.1.876,35.1-.144,34.416-.6,32.964-.6H31.62c-.924,0-1.2-.348-1.2-.8a1.1,1.1,0,0,1,.5-.888,2.162,2.162,0,0,0,1.032.264,2.2,2.2,0,0,0,2.256-2.256,2.04,2.04,0,0,0-.66-1.536h1.44V-6.4H32.808a2.274,2.274,0,0,0-.852-.168A2.234,2.234,0,0,0,29.664-4.3a2.316,2.316,0,0,0,.816,1.74v.048a1.591,1.591,0,0,0-.708,1.188,1.147,1.147,0,0,0,.576,1.032v.06a1.944,1.944,0,0,0-.96,1.524C29.388,2.376,30.432,3.048,32.028,3.048Zm-.072-5.6a1.64,1.64,0,0,1-1.6-1.74,1.587,1.587,0,0,1,1.6-1.7A1.585,1.585,0,0,1,33.54-4.3,1.638,1.638,0,0,1,31.956-2.556Zm.156,5.076c-1.308,0-2.064-.528-2.064-1.308A1.6,1.6,0,0,1,30.84-.072a4.5,4.5,0,0,0,.8.108h1.308C33.9.036,34.4.288,34.4.972,34.4,1.74,33.5,2.52,32.112,2.52ZM38.5.156a3.579,3.579,0,0,0,2.04-.624l-.264-.516a2.864,2.864,0,0,1-1.7.552,2.422,2.422,0,0,1-2.34-2.652h4.536a3.319,3.319,0,0,0,.036-.5c0-1.872-.924-2.976-2.472-2.976-1.452,0-2.808,1.3-2.808,3.372A3.03,3.03,0,0,0,38.5.156ZM36.228-3.636A2.278,2.278,0,0,1,38.34-5.964c1.116,0,1.824.78,1.824,2.328ZM42.264,0h.7V-4.788A2.7,2.7,0,0,1,44.808-5.94c.948,0,1.38.612,1.38,1.944V0h.7V-4.788A2.7,2.7,0,0,1,48.732-5.94c.936,0,1.38.612,1.38,1.944V0h.7V-4.092c0-1.644-.636-2.472-1.92-2.472a3.2,3.2,0,0,0-2.16,1.3,1.657,1.657,0,0,0-1.764-1.3,2.97,2.97,0,0,0-2.016,1.14h-.024L42.84-6.4h-.576ZM55.32.156a3.579,3.579,0,0,0,2.04-.624L57.1-.984a2.864,2.864,0,0,1-1.7.552,2.422,2.422,0,0,1-2.34-2.652h4.536a3.319,3.319,0,0,0,.036-.5c0-1.872-.924-2.976-2.472-2.976-1.452,0-2.808,1.3-2.808,3.372A3.03,3.03,0,0,0,55.32.156ZM53.052-3.636a2.278,2.278,0,0,1,2.112-2.328c1.116,0,1.824.78,1.824,2.328ZM59.088,0h.7V-4.788c.744-.768,1.272-1.152,2.016-1.152.984,0,1.4.612,1.4,1.944V0h.7V-4.092c0-1.644-.612-2.472-1.944-2.472a3.146,3.146,0,0,0-2.184,1.14h-.024L59.664-6.4h-.576Zm8.676.156a3.619,3.619,0,0,0,1.068-.24l-.168-.54a2.237,2.237,0,0,1-.78.18c-.852,0-1.068-.528-1.068-1.332V-5.808h1.836V-6.4H66.816V-8.244h-.588L66.144-6.4l-1.02.06v.528h1v3.984C66.12-.636,66.5.156,67.764.156Z" transform="translate(701.859 231.395)"/>
      <path id="패스_9158" data-name="패스 9158" class="cls-14" transform="translate(773.175 231.395)"/>
      <path id="패스_9159" data-name="패스 9159" class="cls-14" d="M3.132,0h.732V-8.136h2.76v-.612H.384v.612H3.132Z" transform="translate(776.605 231.395)"/>
      <path id="패스_9160" data-name="패스 9160" class="cls-14" d="M3.648.156a3.579,3.579,0,0,0,2.04-.624L5.424-.984a2.864,2.864,0,0,1-1.7.552A2.422,2.422,0,0,1,1.38-3.084H5.916a3.319,3.319,0,0,0,.036-.5c0-1.872-.924-2.976-2.472-2.976-1.452,0-2.808,1.3-2.808,3.372A3.03,3.03,0,0,0,3.648.156ZM1.38-3.636A2.278,2.278,0,0,1,3.492-5.964c1.116,0,1.824.78,1.824,2.328ZM8.628.156A3.687,3.687,0,0,0,10.86-.816h.024L10.956,0h.588V-4.056c0-1.416-.54-2.508-2.064-2.508a4.436,4.436,0,0,0-2.424.84l.312.5a3.458,3.458,0,0,1,2.016-.732c1.212,0,1.488.984,1.464,1.932-2.82.324-4.08,1-4.08,2.412A1.688,1.688,0,0,0,8.628.156Zm.144-.588A1.153,1.153,0,0,1,7.464-1.644c0-.984.864-1.572,3.384-1.86v2.076A3.152,3.152,0,0,1,8.772-.432ZM13.536,0h.7V-4.788A2.7,2.7,0,0,1,16.08-5.94c.948,0,1.38.612,1.38,1.944V0h.7V-4.788A2.7,2.7,0,0,1,20-5.94c.936,0,1.38.612,1.38,1.944V0h.7V-4.092c0-1.644-.636-2.472-1.92-2.472A3.2,3.2,0,0,0,18-5.268a1.657,1.657,0,0,0-1.764-1.3,2.97,2.97,0,0,0-2.016,1.14H14.2L14.112-6.4h-.576Z" transform="translate(782.594 231.395)"/>
      <g id="그룹_8461" data-name="그룹 8461" transform="translate(682.759 241.089)">
        <path id="패스_9070" data-name="패스 9070" class="cls-2" d="M-4.96,0H-142.921V35.89H-4.96Z" transform="translate(142.921)"/>
      </g>
      <path id="패스_9170" data-name="패스 9170" class="cls-14" d="M1.272,0h.72V-8.748h-.72Z" transform="translate(710.725 256.284)"/>
      <path id="패스_9153" data-name="패스 9153" class="cls-14" d="M1.2,0h.7V-4.788C2.64-5.556,3.168-5.94,3.912-5.94c.984,0,1.4.612,1.4,1.944V0h.7V-4.092c0-1.644-.612-2.472-1.944-2.472a3.146,3.146,0,0,0-2.184,1.14H1.86L1.776-6.4H1.2Zm9.516.156a3.1,3.1,0,0,0,2.04-.828l-.336-.48a2.555,2.555,0,0,1-1.668.708C9.408-.444,8.52-1.56,8.52-3.192s.972-2.76,2.244-2.76a2.1,2.1,0,0,1,1.464.648l.4-.48a2.705,2.705,0,0,0-1.872-.78A3.056,3.056,0,0,0,7.788-3.192C7.788-1.068,9.048.156,10.716.156ZM14.3,0H15V-4.788c.744-.768,1.272-1.152,2.016-1.152.984,0,1.4.612,1.4,1.944V0h.7V-4.092c0-1.644-.612-2.472-1.944-2.472a3.116,3.116,0,0,0-2.184,1.152L15-6.8V-9.54h-.7ZM23.82.156a3.579,3.579,0,0,0,2.04-.624L25.6-.984a2.864,2.864,0,0,1-1.7.552,2.422,2.422,0,0,1-2.34-2.652h4.536a3.319,3.319,0,0,0,.036-.5c0-1.872-.924-2.976-2.472-2.976-1.452,0-2.808,1.3-2.808,3.372A3.03,3.03,0,0,0,23.82.156ZM21.552-3.636a2.278,2.278,0,0,1,2.112-2.328c1.116,0,1.824.78,1.824,2.328ZM30.192.156c1.548,0,2.892-1.224,2.892-3.348S31.74-6.564,30.192-6.564,27.3-5.328,27.3-3.192,28.644.156,30.192.156Zm0-.6c-1.248,0-2.16-1.116-2.16-2.748s.912-2.76,2.16-2.76,2.172,1.128,2.172,2.76S31.44-.444,30.192-.444ZM34.956,0h.7V-4.788c.744-.768,1.272-1.152,2.016-1.152.984,0,1.4.612,1.4,1.944V0h.7V-4.092c0-1.644-.612-2.472-1.944-2.472a3.146,3.146,0,0,0-2.184,1.14h-.024L35.532-6.4h-.576ZM45.012-4.4c0-2.376,1.14-3.852,2.868-3.852S50.772-6.78,50.772-4.4c0,2.4-1.152,3.948-2.892,3.948S45.012-2,45.012-4.4Zm6.42,5.736a2.767,2.767,0,0,1-.888.12A2.3,2.3,0,0,1,48.3.132c1.908-.216,3.216-1.944,3.216-4.536,0-2.772-1.5-4.5-3.636-4.5-2.112,0-3.624,1.728-3.624,4.5,0,2.616,1.332,4.344,3.252,4.536a3.039,3.039,0,0,0,2.964,1.956,3.7,3.7,0,0,0,1.116-.156ZM55.284.156a2.84,2.84,0,0,0,2.16-1.212h.036L57.54,0h.588V-6.4h-.7v4.68c-.72.864-1.248,1.248-1.992,1.248-.984,0-1.392-.612-1.392-1.92V-6.4h-.7V-2.3C53.352-.66,53.952.156,55.284.156Z" transform="translate(713.81 256.284)"/>
      <path id="패스_9154" data-name="패스 9154" class="cls-14" d="M2.616.156A3.687,3.687,0,0,0,4.848-.816h.024L4.944,0h.588V-4.056c0-1.416-.54-2.508-2.064-2.508a4.436,4.436,0,0,0-2.424.84l.312.5a3.458,3.458,0,0,1,2.016-.732c1.212,0,1.488.984,1.464,1.932-2.82.324-4.08,1-4.08,2.412A1.688,1.688,0,0,0,2.616.156ZM2.76-.432A1.153,1.153,0,0,1,1.452-1.644c0-.984.864-1.572,3.384-1.86v2.076A3.152,3.152,0,0,1,2.76-.432ZM8.616.156A1.41,1.41,0,0,0,9.084.084L8.976-.468a1.073,1.073,0,0,1-.228.024c-.168,0-.288-.132-.288-.432V-9.54h-.7V-.948C7.764-.2,8.04.156,8.616.156Z" transform="translate(773.412 256.284)"/>
      <path id="패스_9155" data-name="패스 9155" class="cls-14" d="M1.2,0h.7V-6.4H1.2Zm.36-7.9a.566.566,0,0,0,.588-.552.564.564,0,0,0-.588-.576.557.557,0,0,0-.588.576A.559.559,0,0,0,1.56-7.9ZM6.084.156a3.619,3.619,0,0,0,1.068-.24l-.168-.54a2.237,2.237,0,0,1-.78.18c-.852,0-1.068-.528-1.068-1.332V-5.808H6.972V-6.4H5.136V-8.244H4.548L4.464-6.4l-1.02.06v.528h1v3.984C4.44-.636,4.824.156,6.084.156Z" transform="translate(782.947 256.284)"/>
      <path id="패스_9156" data-name="패스 9156" class="cls-14" d="M1.02,2.88C2.2,2.88,2.844,1.848,3.228.744l2.5-7.14H5.016L3.708-2.484c-.18.552-.384,1.224-.576,1.8h-.06C2.844-1.26,2.6-1.932,2.4-2.484L.912-6.4H.156L2.772.1,2.6.636c-.312.924-.828,1.62-1.6,1.62a1.646,1.646,0,0,1-.516-.1l-.156.588A1.7,1.7,0,0,0,1.02,2.88Z" transform="translate(790.712 256.284)"/>
      <path id="패스_9149" data-name="패스 9149" class="cls-14" d="M1.272,0h.66V-5.544c0-.72-.048-1.68-.084-2.412H1.9L2.58-6,4.428-.936H5L6.84-6l.684-1.956h.048c-.036.732-.084,1.692-.084,2.412V0h.684V-8.748h-.96L5.412-3.72c-.216.636-.42,1.284-.648,1.92H4.716L4.032-3.72l-1.8-5.028h-.96ZM11.82.156a3.687,3.687,0,0,0,2.232-.972h.024L14.148,0h.588V-4.056c0-1.416-.54-2.508-2.064-2.508a4.436,4.436,0,0,0-2.424.84l.312.5a3.458,3.458,0,0,1,2.016-.732c1.212,0,1.488.984,1.464,1.932-2.82.324-4.08,1-4.08,2.412A1.688,1.688,0,0,0,11.82.156Zm.144-.588a1.153,1.153,0,0,1-1.308-1.212c0-.984.864-1.572,3.384-1.86v2.076A3.152,3.152,0,0,1,11.964-.432ZM16.728,0h.7V-4.788C18.168-5.556,18.7-5.94,19.44-5.94c.984,0,1.4.612,1.4,1.944V0h.7V-4.092c0-1.644-.612-2.472-1.944-2.472a3.146,3.146,0,0,0-2.184,1.14h-.024L17.3-6.4h-.576ZM25.02.156a3.687,3.687,0,0,0,2.232-.972h.024L27.348,0h.588V-4.056c0-1.416-.54-2.508-2.064-2.508a4.436,4.436,0,0,0-2.424.84l.312.5a3.458,3.458,0,0,1,2.016-.732c1.212,0,1.488.984,1.464,1.932-2.82.324-4.08,1-4.08,2.412A1.688,1.688,0,0,0,25.02.156Zm.144-.588a1.153,1.153,0,0,1-1.308-1.212c0-.984.864-1.572,3.384-1.86v2.076A3.152,3.152,0,0,1,25.164-.432Zm6.864,3.48C33.9,3.048,35.1,1.992,35.1.876,35.1-.144,34.416-.6,32.964-.6H31.62c-.924,0-1.2-.348-1.2-.8a1.1,1.1,0,0,1,.5-.888,2.162,2.162,0,0,0,1.032.264,2.2,2.2,0,0,0,2.256-2.256,2.04,2.04,0,0,0-.66-1.536h1.44V-6.4H32.808a2.274,2.274,0,0,0-.852-.168A2.234,2.234,0,0,0,29.664-4.3a2.316,2.316,0,0,0,.816,1.74v.048a1.591,1.591,0,0,0-.708,1.188,1.147,1.147,0,0,0,.576,1.032v.06a1.944,1.944,0,0,0-.96,1.524C29.388,2.376,30.432,3.048,32.028,3.048Zm-.072-5.6a1.64,1.64,0,0,1-1.6-1.74,1.587,1.587,0,0,1,1.6-1.7A1.585,1.585,0,0,1,33.54-4.3,1.638,1.638,0,0,1,31.956-2.556Zm.156,5.076c-1.308,0-2.064-.528-2.064-1.308A1.6,1.6,0,0,1,30.84-.072a4.5,4.5,0,0,0,.8.108h1.308C33.9.036,34.4.288,34.4.972,34.4,1.74,33.5,2.52,32.112,2.52ZM38.5.156a3.579,3.579,0,0,0,2.04-.624l-.264-.516a2.864,2.864,0,0,1-1.7.552,2.422,2.422,0,0,1-2.34-2.652h4.536a3.319,3.319,0,0,0,.036-.5c0-1.872-.924-2.976-2.472-2.976-1.452,0-2.808,1.3-2.808,3.372A3.03,3.03,0,0,0,38.5.156ZM36.228-3.636A2.278,2.278,0,0,1,38.34-5.964c1.116,0,1.824.78,1.824,2.328ZM42.264,0h.7V-4.788A2.7,2.7,0,0,1,44.808-5.94c.948,0,1.38.612,1.38,1.944V0h.7V-4.788A2.7,2.7,0,0,1,48.732-5.94c.936,0,1.38.612,1.38,1.944V0h.7V-4.092c0-1.644-.636-2.472-1.92-2.472a3.2,3.2,0,0,0-2.16,1.3,1.657,1.657,0,0,0-1.764-1.3,2.97,2.97,0,0,0-2.016,1.14h-.024L42.84-6.4h-.576ZM55.32.156a3.579,3.579,0,0,0,2.04-.624L57.1-.984a2.864,2.864,0,0,1-1.7.552,2.422,2.422,0,0,1-2.34-2.652h4.536a3.319,3.319,0,0,0,.036-.5c0-1.872-.924-2.976-2.472-2.976-1.452,0-2.808,1.3-2.808,3.372A3.03,3.03,0,0,0,55.32.156ZM53.052-3.636a2.278,2.278,0,0,1,2.112-2.328c1.116,0,1.824.78,1.824,2.328ZM59.088,0h.7V-4.788c.744-.768,1.272-1.152,2.016-1.152.984,0,1.4.612,1.4,1.944V0h.7V-4.092c0-1.644-.612-2.472-1.944-2.472a3.146,3.146,0,0,0-2.184,1.14h-.024L59.664-6.4h-.576Zm8.676.156a3.619,3.619,0,0,0,1.068-.24l-.168-.54a2.237,2.237,0,0,1-.78.18c-.852,0-1.068-.528-1.068-1.332V-5.808h1.836V-6.4H66.816V-8.244h-.588L66.144-6.4l-1.02.06v.528h1v3.984C66.12-.636,66.5.156,67.764.156Z" transform="translate(701.856 272.784)"/>
      <path id="패스_9150" data-name="패스 9150" class="cls-14" transform="translate(773.172 272.784)"/>
      <path id="패스_9151" data-name="패스 9151" class="cls-14" d="M3.132,0h.732V-8.136h2.76v-.612H.384v.612H3.132Z" transform="translate(776.601 272.784)"/>
      <path id="패스_9152" data-name="패스 9152" class="cls-14" d="M3.648.156a3.579,3.579,0,0,0,2.04-.624L5.424-.984a2.864,2.864,0,0,1-1.7.552A2.422,2.422,0,0,1,1.38-3.084H5.916a3.319,3.319,0,0,0,.036-.5c0-1.872-.924-2.976-2.472-2.976-1.452,0-2.808,1.3-2.808,3.372A3.03,3.03,0,0,0,3.648.156ZM1.38-3.636A2.278,2.278,0,0,1,3.492-5.964c1.116,0,1.824.78,1.824,2.328ZM8.628.156A3.687,3.687,0,0,0,10.86-.816h.024L10.956,0h.588V-4.056c0-1.416-.54-2.508-2.064-2.508a4.436,4.436,0,0,0-2.424.84l.312.5a3.458,3.458,0,0,1,2.016-.732c1.212,0,1.488.984,1.464,1.932-2.82.324-4.08,1-4.08,2.412A1.688,1.688,0,0,0,8.628.156Zm.144-.588A1.153,1.153,0,0,1,7.464-1.644c0-.984.864-1.572,3.384-1.86v2.076A3.152,3.152,0,0,1,8.772-.432ZM13.536,0h.7V-4.788A2.7,2.7,0,0,1,16.08-5.94c.948,0,1.38.612,1.38,1.944V0h.7V-4.788A2.7,2.7,0,0,1,20-5.94c.936,0,1.38.612,1.38,1.944V0h.7V-4.092c0-1.644-.636-2.472-1.92-2.472A3.2,3.2,0,0,0,18-5.268a1.657,1.657,0,0,0-1.764-1.3,2.97,2.97,0,0,0-2.016,1.14H14.2L14.112-6.4h-.576Z" transform="translate(782.59 272.784)"/>
      <g id="그룹_8462" data-name="그룹 8462" transform="translate(682.759 282.479)">
        <path id="패스_9071" data-name="패스 9071" class="cls-2" d="M-4.96,0H-142.921V35.89H-4.96Z" transform="translate(142.921)"/>
      </g>
      <path id="패스_9145" data-name="패스 9145" class="cls-14" d="M1.272,0H6.24V-.624H1.992V-4.332H5.46v-.612H1.992V-8.136H6.108v-.612H1.272ZM7.884,0h.7V-4.788C9.324-5.556,9.852-5.94,10.6-5.94,11.58-5.94,12-5.328,12-4V0h.7V-4.092c0-1.644-.612-2.472-1.944-2.472a3.146,3.146,0,0,0-2.184,1.14H8.544L8.46-6.4H7.884ZM16.14,0h.828L19.32-6.4h-.708L17.22-2.472c-.2.624-.432,1.272-.636,1.848h-.048C16.32-1.2,16.1-1.848,15.9-2.472L14.52-6.4h-.756Zm4.344,0h.7V-6.4h-.7Zm.36-7.9a.566.566,0,0,0,.588-.552.564.564,0,0,0-.588-.576.557.557,0,0,0-.588.576A.559.559,0,0,0,20.844-7.9ZM23.376,0h.7V-4.3C24.54-5.484,25.224-5.9,25.788-5.9a1.353,1.353,0,0,1,.588.108l.144-.624a1.289,1.289,0,0,0-.648-.144A2.2,2.2,0,0,0,24.06-5.208h-.024L23.952-6.4h-.576Zm6.348.156c1.548,0,2.892-1.224,2.892-3.348s-1.344-3.372-2.892-3.372-2.892,1.236-2.892,3.372S28.176.156,29.724.156Zm0-.6c-1.248,0-2.16-1.116-2.16-2.748s.912-2.76,2.16-2.76S31.9-4.824,31.9-3.192,30.972-.444,29.724-.444ZM34.3,0h.7V-4.788c.744-.768,1.272-1.152,2.016-1.152.984,0,1.4.612,1.4,1.944V0h.7V-4.092c0-1.644-.612-2.472-1.944-2.472a3.146,3.146,0,0,0-2.184,1.14h-.024L34.872-6.4H34.3ZM41.22,0h.7V-4.788A2.7,2.7,0,0,1,43.764-5.94c.948,0,1.38.612,1.38,1.944V0h.7V-4.788A2.7,2.7,0,0,1,47.688-5.94c.936,0,1.38.612,1.38,1.944V0h.7V-4.092c0-1.644-.636-2.472-1.92-2.472a3.2,3.2,0,0,0-2.16,1.3,1.657,1.657,0,0,0-1.764-1.3A2.97,2.97,0,0,0,41.9-5.424H41.88L41.8-6.4H41.22Zm13.1.156a3.579,3.579,0,0,0,2.04-.624L56.1-.984a2.864,2.864,0,0,1-1.7.552,2.422,2.422,0,0,1-2.34-2.652h4.536a3.319,3.319,0,0,0,.036-.5c0-1.872-.924-2.976-2.472-2.976-1.452,0-2.808,1.3-2.808,3.372A3.03,3.03,0,0,0,54.324.156ZM52.056-3.636a2.278,2.278,0,0,1,2.112-2.328c1.116,0,1.824.78,1.824,2.328ZM58.14,0h.7V-4.788c.744-.768,1.272-1.152,2.016-1.152.984,0,1.4.612,1.4,1.944V0h.7V-4.092c0-1.644-.612-2.472-1.944-2.472a3.146,3.146,0,0,0-2.184,1.14H58.8L58.716-6.4H58.14Zm8.724.156a3.619,3.619,0,0,0,1.068-.24l-.168-.54a2.237,2.237,0,0,1-.78.18c-.852,0-1.068-.528-1.068-1.332V-5.808h1.836V-6.4H65.916V-8.244h-.588L65.244-6.4l-1.02.06v.528h1v3.984C65.22-.636,65.6.156,66.864.156Z" transform="translate(714.242 297.674)"/>
      <path id="패스_9146" data-name="패스 9146" class="cls-14" d="M2.616.156A3.687,3.687,0,0,0,4.848-.816h.024L4.944,0h.588V-4.056c0-1.416-.54-2.508-2.064-2.508a4.436,4.436,0,0,0-2.424.84l.312.5a3.458,3.458,0,0,1,2.016-.732c1.212,0,1.488.984,1.464,1.932-2.82.324-4.08,1-4.08,2.412A1.688,1.688,0,0,0,2.616.156ZM2.76-.432A1.153,1.153,0,0,1,1.452-1.644c0-.984.864-1.572,3.384-1.86v2.076A3.152,3.152,0,0,1,2.76-.432ZM8.424.156A1.41,1.41,0,0,0,8.892.084L8.784-.468a1.073,1.073,0,0,1-.228.024c-.168,0-.288-.132-.288-.432V-9.54h-.7V-.948C7.572-.2,7.848.156,8.424.156Z" transform="translate(783.403 297.674)"/>
      <path id="패스_9148" data-name="패스 9148" class="cls-14" d="M1.272,0h.66V-5.544c0-.72-.048-1.68-.084-2.412H1.9L2.58-6,4.428-.936H5L6.84-6l.684-1.956h.048c-.036.732-.084,1.692-.084,2.412V0h.684V-8.748h-.96L5.412-3.72c-.216.636-.42,1.284-.648,1.92H4.716L4.032-3.72l-1.8-5.028h-.96ZM11.82.156a3.687,3.687,0,0,0,2.232-.972h.024L14.148,0h.588V-4.056c0-1.416-.54-2.508-2.064-2.508a4.436,4.436,0,0,0-2.424.84l.312.5a3.458,3.458,0,0,1,2.016-.732c1.212,0,1.488.984,1.464,1.932-2.82.324-4.08,1-4.08,2.412A1.688,1.688,0,0,0,11.82.156Zm.144-.588a1.153,1.153,0,0,1-1.308-1.212c0-.984.864-1.572,3.384-1.86v2.076A3.152,3.152,0,0,1,11.964-.432ZM16.728,0h.7V-4.788C18.168-5.556,18.7-5.94,19.44-5.94c.984,0,1.4.612,1.4,1.944V0h.7V-4.092c0-1.644-.612-2.472-1.944-2.472a3.146,3.146,0,0,0-2.184,1.14h-.024L17.3-6.4h-.576ZM25.02.156a3.687,3.687,0,0,0,2.232-.972h.024L27.348,0h.588V-4.056c0-1.416-.54-2.508-2.064-2.508a4.436,4.436,0,0,0-2.424.84l.312.5a3.458,3.458,0,0,1,2.016-.732c1.212,0,1.488.984,1.464,1.932-2.82.324-4.08,1-4.08,2.412A1.688,1.688,0,0,0,25.02.156Zm.144-.588a1.153,1.153,0,0,1-1.308-1.212c0-.984.864-1.572,3.384-1.86v2.076A3.152,3.152,0,0,1,25.164-.432Zm6.864,3.48C33.9,3.048,35.1,1.992,35.1.876,35.1-.144,34.416-.6,32.964-.6H31.62c-.924,0-1.2-.348-1.2-.8a1.1,1.1,0,0,1,.5-.888,2.162,2.162,0,0,0,1.032.264,2.2,2.2,0,0,0,2.256-2.256,2.04,2.04,0,0,0-.66-1.536h1.44V-6.4H32.808a2.274,2.274,0,0,0-.852-.168A2.234,2.234,0,0,0,29.664-4.3a2.316,2.316,0,0,0,.816,1.74v.048a1.591,1.591,0,0,0-.708,1.188,1.147,1.147,0,0,0,.576,1.032v.06a1.944,1.944,0,0,0-.96,1.524C29.388,2.376,30.432,3.048,32.028,3.048Zm-.072-5.6a1.64,1.64,0,0,1-1.6-1.74,1.587,1.587,0,0,1,1.6-1.7A1.585,1.585,0,0,1,33.54-4.3,1.638,1.638,0,0,1,31.956-2.556Zm.156,5.076c-1.308,0-2.064-.528-2.064-1.308A1.6,1.6,0,0,1,30.84-.072a4.5,4.5,0,0,0,.8.108h1.308C33.9.036,34.4.288,34.4.972,34.4,1.74,33.5,2.52,32.112,2.52ZM38.5.156a3.579,3.579,0,0,0,2.04-.624l-.264-.516a2.864,2.864,0,0,1-1.7.552,2.422,2.422,0,0,1-2.34-2.652h4.536a3.319,3.319,0,0,0,.036-.5c0-1.872-.924-2.976-2.472-2.976-1.452,0-2.808,1.3-2.808,3.372A3.03,3.03,0,0,0,38.5.156ZM36.228-3.636A2.278,2.278,0,0,1,38.34-5.964c1.116,0,1.824.78,1.824,2.328ZM42.264,0h.7V-4.788A2.7,2.7,0,0,1,44.808-5.94c.948,0,1.38.612,1.38,1.944V0h.7V-4.788A2.7,2.7,0,0,1,48.732-5.94c.936,0,1.38.612,1.38,1.944V0h.7V-4.092c0-1.644-.636-2.472-1.92-2.472a3.2,3.2,0,0,0-2.16,1.3,1.657,1.657,0,0,0-1.764-1.3,2.97,2.97,0,0,0-2.016,1.14h-.024L42.84-6.4h-.576ZM55.32.156a3.579,3.579,0,0,0,2.04-.624L57.1-.984a2.864,2.864,0,0,1-1.7.552,2.422,2.422,0,0,1-2.34-2.652h4.536a3.319,3.319,0,0,0,.036-.5c0-1.872-.924-2.976-2.472-2.976-1.452,0-2.808,1.3-2.808,3.372A3.03,3.03,0,0,0,55.32.156ZM53.052-3.636a2.278,2.278,0,0,1,2.112-2.328c1.116,0,1.824.78,1.824,2.328ZM59.088,0h.7V-4.788c.744-.768,1.272-1.152,2.016-1.152.984,0,1.4.612,1.4,1.944V0h.7V-4.092c0-1.644-.612-2.472-1.944-2.472a3.146,3.146,0,0,0-2.184,1.14h-.024L59.664-6.4h-.576Zm8.676.156a3.619,3.619,0,0,0,1.068-.24l-.168-.54a2.237,2.237,0,0,1-.78.18c-.852,0-1.068-.528-1.068-1.332V-5.808h1.836V-6.4H66.816V-8.244h-.588L66.144-6.4l-1.02.06v.528h1v3.984C66.12-.636,66.5.156,67.764.156Z" transform="translate(701.857 314.174)"/>
      <path id="패스_9147" data-name="패스 9147" class="cls-14" transform="translate(773.173 314.174)"/>
      <path id="패스_9144" data-name="패스 9144" class="cls-14" d="M3.132,0h.732V-8.136h2.76v-.612H.384v.612H3.132Z" transform="translate(776.603 314.174)"/>
      <path id="패스_9143" data-name="패스 9143" class="cls-14" d="M3.648.156a3.579,3.579,0,0,0,2.04-.624L5.424-.984a2.864,2.864,0,0,1-1.7.552A2.422,2.422,0,0,1,1.38-3.084H5.916a3.319,3.319,0,0,0,.036-.5c0-1.872-.924-2.976-2.472-2.976-1.452,0-2.808,1.3-2.808,3.372A3.03,3.03,0,0,0,3.648.156ZM1.38-3.636A2.278,2.278,0,0,1,3.492-5.964c1.116,0,1.824.78,1.824,2.328ZM8.628.156A3.687,3.687,0,0,0,10.86-.816h.024L10.956,0h.588V-4.056c0-1.416-.54-2.508-2.064-2.508a4.436,4.436,0,0,0-2.424.84l.312.5a3.458,3.458,0,0,1,2.016-.732c1.212,0,1.488.984,1.464,1.932-2.82.324-4.08,1-4.08,2.412A1.688,1.688,0,0,0,8.628.156Zm.144-.588A1.153,1.153,0,0,1,7.464-1.644c0-.984.864-1.572,3.384-1.86v2.076A3.152,3.152,0,0,1,8.772-.432ZM13.536,0h.7V-4.788A2.7,2.7,0,0,1,16.08-5.94c.948,0,1.38.612,1.38,1.944V0h.7V-4.788A2.7,2.7,0,0,1,20-5.94c.936,0,1.38.612,1.38,1.944V0h.7V-4.092c0-1.644-.636-2.472-1.92-2.472A3.2,3.2,0,0,0,18-5.268a1.657,1.657,0,0,0-1.764-1.3,2.97,2.97,0,0,0-2.016,1.14H14.2L14.112-6.4h-.576Z" transform="translate(782.592 314.174)"/>
      <g id="그룹_8463" data-name="그룹 8463" transform="translate(282.637 198.16)">
        <path id="패스_9072" data-name="패스 9072" class="cls-2" d="M0,0H377.533"/>
      </g>
      <g id="그룹_8464" data-name="그룹 8464" transform="translate(354.417 214.375)">
        <path id="패스_9073" data-name="패스 9073" class="cls-13" d="M0,0H125.195"/>
      </g>
      <path id="패스_9074" data-name="패스 9074" class="cls-3" d="M205.677-132.186h125.2v-30h-125.2Z" transform="translate(0.506 346.06)"/>
      <path id="패스_9111" data-name="패스 9111" class="cls-7" d="M5.655.2A4.251,4.251,0,0,0,9.03-1.38l-.765-.87a3.342,3.342,0,0,1-2.55,1.23c-2.1,0-3.42-1.74-3.42-4.515C2.3-8.28,3.675-9.99,5.76-9.99A3,3,0,0,1,8.01-8.94l.75-.9A4.066,4.066,0,0,0,5.745-11.2C2.955-11.2.87-9.045.87-5.49S2.925.2,5.655.2ZM10.77,0h6.51V-1.185H12.165v-4h4.17V-6.375h-4.17v-3.45h4.95v-1.17H10.77ZM23.355.2c2.76,0,4.695-2.2,4.695-5.73s-1.935-5.67-4.695-5.67S18.66-9.06,18.66-5.535,20.6.2,23.355.2Zm0-1.215c-1.98,0-3.27-1.77-3.27-4.515,0-2.76,1.29-4.455,3.27-4.455,1.965,0,3.27,1.695,3.27,4.455C26.625-2.79,25.32-1.02,23.355-1.02Z" transform="translate(254.321 204.475)"/>
      <path id="패스_9075" data-name="패스 9075" class="cls-12" d="M353.911-132.085H479.106v-30H353.911Z" transform="translate(0.506 346.06)"/>
      <path id="패스_9112" data-name="패스 9112" class="cls-7" d="M1.5,0H2.895V-4.365H4.71c2.4,0,4.05-1.08,4.05-3.4,0-2.4-1.65-3.225-4.125-3.225H1.5ZM2.895-5.49V-9.87H4.47c1.935,0,2.91.51,2.91,2.1,0,1.575-.915,2.28-2.85,2.28ZM10.68,0h1.4V-10.995h-1.4Zm8.25.2A4.251,4.251,0,0,0,22.305-1.38l-.765-.87a3.342,3.342,0,0,1-2.55,1.23c-2.1,0-3.42-1.74-3.42-4.515,0-2.745,1.38-4.455,3.465-4.455a3,3,0,0,1,2.25,1.05l.75-.9A4.066,4.066,0,0,0,19.02-11.2c-2.79,0-4.875,2.16-4.875,5.715S16.2.2,18.93.2ZM29.565.2c1.95,0,3.525-1.17,3.525-3.135a2.827,2.827,0,0,0-2.34-2.79v-.06a2.741,2.741,0,0,0,1.965-2.655c0-1.77-1.35-2.76-3.195-2.76a4.4,4.4,0,0,0-3.075,1.32l.735.87a3.431,3.431,0,0,1,2.28-1.1,1.718,1.718,0,0,1,1.86,1.77c0,1.185-.78,2.1-3.045,2.1v1.05c2.535,0,3.42.885,3.42,2.2A2.025,2.025,0,0,1,29.46-.945,3.635,3.635,0,0,1,26.73-2.2l-.69.9A4.552,4.552,0,0,0,29.565.2ZM38.145-.87c-1.38,0-2.2-1.245-2.37-3.525a2.866,2.866,0,0,1,2.25-1.41c1.335,0,1.98.945,1.98,2.43S39.195-.87,38.145-.87ZM41.1-10.08A3.378,3.378,0,0,0,38.535-11.2c-2.13,0-4.065,1.65-4.065,5.955C34.47-1.62,36.03.2,38.145.2a3.3,3.3,0,0,0,3.15-3.57c0-2.3-1.185-3.45-3.045-3.45a3.42,3.42,0,0,0-2.5,1.335c.06-3.42,1.335-4.575,2.835-4.575a2.325,2.325,0,0,1,1.77.84ZM45.825.2c2.085,0,3.42-1.905,3.42-5.73s-1.335-5.67-3.42-5.67S42.39-9.36,42.39-5.535,43.725.2,45.825.2Zm0-1.095c-1.26,0-2.1-1.4-2.1-4.635,0-3.21.84-4.56,2.1-4.56s2.085,1.35,2.085,4.56C47.91-2.3,47.07-.9,45.825-.9Z" transform="translate(391.605 204.575)"/>
      <path id="패스_9076" data-name="패스 9076" class="cls-12" d="M502.145-133.186h125.2v-30h-125.2Z" transform="translate(0.506 346.06)"/>
      <g id="그룹-4" data-name="그룹" transform="translate(0.506 346.06)">
        <path id="패스_9113" data-name="패스 9113" class="cls-7" d="M3.795,0H5.19V-9.825H8.52v-1.17H.465v1.17h3.33Z" transform="translate(526.365 -142.585)"/>
        <path id="패스_9114" data-name="패스 9114" class="cls-7" d="M2.3-5.535c0-2.76,1.29-4.455,3.27-4.455,1.965,0,3.27,1.695,3.27,4.455,0,2.8-1.305,4.59-3.27,4.59C3.585-.945,2.3-2.73,2.3-5.535ZM10.23,1.44a3.783,3.783,0,0,1-1.155.165,2.86,2.86,0,0,1-2.7-1.47C8.7-.27,10.26-2.37,10.26-5.535c0-3.525-1.935-5.67-4.7-5.67S.87-9.06.87-5.535C.87-2.31,2.49-.18,4.89.15A4.15,4.15,0,0,0,8.925,2.76,4.953,4.953,0,0,0,10.5,2.52Zm3.3-5.91.54-1.68c.39-1.245.75-2.43,1.1-3.72h.06c.36,1.275.7,2.475,1.11,3.72l.525,1.68ZM18.255,0h1.47L15.99-10.995H14.445L10.71,0h1.41l1.065-3.36H17.2Zm9.93.2A4.251,4.251,0,0,0,31.56-1.38L30.8-2.25a3.342,3.342,0,0,1-2.55,1.23c-2.1,0-3.42-1.74-3.42-4.515,0-2.745,1.38-4.455,3.465-4.455a3,3,0,0,1,2.25,1.05l.75-.9A4.066,4.066,0,0,0,28.275-11.2c-2.79,0-4.875,2.16-4.875,5.715S25.455.2,28.185.2Zm8.28,0a4.848,4.848,0,0,0,2.7-.84l-.5-.9A3.511,3.511,0,0,1,36.63-.9a2.7,2.7,0,0,1-2.7-2.85h5.49a5.329,5.329,0,0,0,.06-.78c0-2.325-1.17-3.825-3.24-3.825-1.89,0-3.675,1.65-3.675,4.29C32.565-1.38,34.305.2,36.465.2Zm-2.55-4.92a2.506,2.506,0,0,1,2.34-2.535c1.275,0,2.025.885,2.025,2.535ZM41.19,0h1.365V-5.91A3.1,3.1,0,0,1,44.79-7.155c1.08,0,1.545.645,1.545,2.175V0H47.7V-5.16c0-2.085-.78-3.195-2.49-3.195a3.906,3.906,0,0,0-2.73,1.38h-.045l-.12-1.17H41.19ZM52.62.2a5.128,5.128,0,0,0,1.5-.3l-.27-1.02a2.886,2.886,0,0,1-.93.21c-.945,0-1.26-.57-1.26-1.575V-7.035h2.2v-1.11h-2.2v-2.28H50.52l-.165,2.28L49.08-8.07v1.035h1.215V-2.52C50.295-.885,50.88.2,52.62.2Z" transform="translate(534.645 -142.585)"/>
        <path id="패스_9115" data-name="패스 9115" class="cls-7" d="M4.665.2a4.848,4.848,0,0,0,2.7-.84l-.495-.9A3.511,3.511,0,0,1,4.83-.9a2.7,2.7,0,0,1-2.7-2.85H7.62a5.329,5.329,0,0,0,.06-.78c0-2.325-1.17-3.825-3.24-3.825C2.55-8.355.765-6.7.765-4.065.765-1.38,2.5.2,4.665.2Zm-2.55-4.92A2.506,2.506,0,0,1,4.455-7.26c1.275,0,2.025.885,2.025,2.535ZM9.39,0h1.365V-5.235C11.3-6.63,12.135-7.11,12.81-7.11a1.927,1.927,0,0,1,.8.135l.255-1.2a1.736,1.736,0,0,0-.87-.18A2.812,2.812,0,0,0,10.68-6.66h-.045l-.12-1.485H9.39Z" transform="translate(589.29 -142.585)"/>
      </g>
      <g id="그룹_8465" data-name="그룹 8465" transform="translate(660.691 256.681)">
        <path id="패스_9077" data-name="패스 9077" class="cls-2" d="M0,0H14.063"/>
      </g>
      <g id="그룹_8466" data-name="그룹 8466" transform="translate(660.691 217.667)">
        <path id="패스_9078" data-name="패스 9078" class="cls-2" d="M0,0H14.063"/>
      </g>
      <g id="그룹_8467" data-name="그룹 8467" transform="translate(660.691 178.654)">
        <path id="패스_9079" data-name="패스 9079" class="cls-2" d="M0,0H14.063"/>
      </g>
      <g id="그룹_8468" data-name="그룹 8468" transform="translate(660.691 139.64)">
        <path id="패스_9080" data-name="패스 9080" class="cls-2" d="M0,0H14.063"/>
      </g>
      <g id="그룹_8469" data-name="그룹 8469" transform="translate(674.811 99.65)">
        <path id="패스_9081" data-name="패스 9081" class="cls-2" d="M0,0H-14.391V197.02H0"/>
      </g>
      <path id="패스_11262" data-name="패스 11262" class="cls-14" d="M1.378,0H6.76V-.676h-4.6V-4.693H5.915v-.663H2.158V-8.814H6.617v-.663H1.378ZM7.215,0h.806L9.139-1.833c.273-.429.52-.858.78-1.261h.065a12.794,12.794,0,0,1,.793,1.261L11.96,0h.845l-2.34-3.549,2.145-3.38h-.793l-1.027,1.7c-.234.39-.455.767-.689,1.144h-.052c-.26-.377-.507-.754-.741-1.144l-1.066-1.7H7.41l2.145,3.3Zm9.464.169a3.877,3.877,0,0,0,2.21-.676L18.6-1.066a3.1,3.1,0,0,1-1.846.6c-1.495,0-2.5-1.183-2.535-2.873h4.914a3.6,3.6,0,0,0,.039-.546c0-2.028-1-3.224-2.678-3.224-1.573,0-3.042,1.4-3.042,3.653C13.455-1.183,14.9.169,16.679.169ZM14.222-3.939A2.468,2.468,0,0,1,16.51-6.461c1.209,0,1.976.845,1.976,2.522ZM23.543.169a3.353,3.353,0,0,0,2.21-.9l-.364-.52a2.768,2.768,0,0,1-1.807.767c-1.456,0-2.418-1.209-2.418-2.977s1.053-2.99,2.431-2.99a2.275,2.275,0,0,1,1.586.7l.429-.52a2.931,2.931,0,0,0-2.028-.845c-1.716,0-3.211,1.339-3.211,3.653S21.736.169,23.543.169Zm5.8,0a3.076,3.076,0,0,0,2.34-1.313h.039L31.785,0h.637V-6.929h-.754v5.07c-.78.936-1.352,1.352-2.158,1.352C28.444-.507,28-1.17,28-2.587V-6.929h-.754V-2.5C27.248-.715,27.9.169,29.341.169Zm7.553,0a3.92,3.92,0,0,0,1.157-.26l-.182-.585a2.424,2.424,0,0,1-.845.195c-.923,0-1.157-.572-1.157-1.443V-6.292h1.989v-.637H35.867v-2H35.23l-.091,2-1.1.065v.572h1.079v4.316C35.113-.689,35.529.169,36.894.169ZM39.442,0H40.2V-6.929h-.754Zm.39-8.554a.614.614,0,0,0,.637-.6.611.611,0,0,0-.637-.624.6.6,0,0,0-.637.624A.606.606,0,0,0,39.832-8.554ZM44.148,0h.9l2.548-6.929h-.767L45.318-2.678c-.221.676-.468,1.378-.689,2h-.052c-.234-.624-.468-1.326-.689-2l-1.5-4.251h-.819Zm7.488.169a3.877,3.877,0,0,0,2.21-.676l-.286-.559a3.1,3.1,0,0,1-1.846.6c-1.495,0-2.5-1.183-2.535-2.873h4.914a3.6,3.6,0,0,0,.039-.546c0-2.028-1-3.224-2.678-3.224-1.573,0-3.042,1.4-3.042,3.653C48.412-1.183,49.855.169,51.636.169ZM49.179-3.939a2.468,2.468,0,0,1,2.288-2.522c1.209,0,1.976.845,1.976,2.522ZM3.861,19.169c1.677,0,3.133-1.326,3.133-3.627s-1.456-3.653-3.133-3.653S.728,13.228.728,15.542,2.184,19.169,3.861,19.169Zm0-.65c-1.352,0-2.34-1.209-2.34-2.977s.988-2.99,2.34-2.99,2.353,1.222,2.353,2.99S5.213,18.519,3.861,18.519Zm9.1-6.448H9.815V10.914c0-1.04.416-1.638,1.209-1.638A2.217,2.217,0,0,1,12,9.5l.195-.611A3.175,3.175,0,0,0,11,8.639c-1.235,0-1.937.78-1.937,2.223v1.209l-.962.065v.572h.962V19h.754V12.708h3.146V19h.754V12.708h1.573v-.637H13.715V10.654c0-.975.325-1.521,1.066-1.521a1.98,1.98,0,0,1,.819.195l.182-.6a2.636,2.636,0,0,0-1.04-.234c-1.17,0-1.781.741-1.781,2.119ZM16.718,19h.754V12.071h-.754ZM17.1,9.224a.612.612,0,1,0,.637.624A.6.6,0,0,0,17.1,9.224Zm5.486,9.945a3.353,3.353,0,0,0,2.21-.9l-.364-.52a2.768,2.768,0,0,1-1.807.767c-1.456,0-2.418-1.209-2.418-2.977s1.053-2.99,2.431-2.99a2.275,2.275,0,0,1,1.586.7l.429-.52a2.931,2.931,0,0,0-2.028-.845c-1.716,0-3.211,1.339-3.211,3.653S20.774,19.169,22.581,19.169Zm6.188,0a3.877,3.877,0,0,0,2.21-.676l-.286-.559a3.1,3.1,0,0,1-1.846.6c-1.5,0-2.5-1.183-2.535-2.873h4.914a3.6,3.6,0,0,0,.039-.546c0-2.028-1-3.224-2.678-3.224-1.573,0-3.042,1.4-3.042,3.653C25.545,17.817,26.988,19.169,28.769,19.169Zm-2.457-4.108A2.468,2.468,0,0,1,28.6,12.539c1.209,0,1.976.845,1.976,2.522ZM33.033,19h.754V14.346c.507-1.287,1.248-1.742,1.859-1.742a1.465,1.465,0,0,1,.637.117l.156-.676a1.4,1.4,0,0,0-.7-.156,2.384,2.384,0,0,0-1.963,1.469h-.026l-.091-1.287h-.624Zm6.292.169c1.534,0,2.379-.91,2.379-1.976,0-1.339-1.17-1.716-2.236-2.119-.806-.3-1.612-.585-1.612-1.352,0-.624.468-1.2,1.495-1.2A2.657,2.657,0,0,1,41,13.15l.39-.52a3.347,3.347,0,0,0-2.015-.741c-1.456,0-2.275.858-2.275,1.872,0,1.2,1.144,1.625,2.171,1.989.806.286,1.677.663,1.677,1.482,0,.715-.533,1.313-1.586,1.313a3.174,3.174,0,0,1-2.184-.871l-.4.546A4.06,4.06,0,0,0,39.325,19.169Z" transform="translate(361.041 235.005)"/>
      <path id="패스_11261" data-name="패스 11261" class="cls-14" d="M3.393,0h.793V-8.814h2.99v-.663H.416v.663H3.393Zm7.189.169a3.877,3.877,0,0,0,2.21-.676l-.286-.559a3.1,3.1,0,0,1-1.846.6c-1.495,0-2.5-1.183-2.535-2.873h4.914a3.6,3.6,0,0,0,.039-.546c0-2.028-1-3.224-2.678-3.224-1.573,0-3.042,1.4-3.042,3.653C7.358-1.183,8.8.169,10.582.169ZM8.125-3.939a2.468,2.468,0,0,1,2.288-2.522c1.209,0,1.976.845,1.976,2.522ZM16.159.169A3.994,3.994,0,0,0,18.577-.884H18.6L18.681,0h.637V-4.394c0-1.534-.585-2.717-2.236-2.717a4.805,4.805,0,0,0-2.626.91l.338.546a3.747,3.747,0,0,1,2.184-.793c1.313,0,1.612,1.066,1.586,2.093-3.055.351-4.42,1.079-4.42,2.613A1.828,1.828,0,0,0,16.159.169Zm.156-.637A1.249,1.249,0,0,1,14.9-1.781c0-1.066.936-1.7,3.666-2.015v2.249A3.415,3.415,0,0,1,16.315-.468ZM21.658,0h.754V-5.187a2.923,2.923,0,0,1,2-1.248c1.027,0,1.5.663,1.5,2.106V0h.754V-5.187a2.923,2.923,0,0,1,2-1.248c1.014,0,1.495.663,1.495,2.106V0h.754V-4.433c0-1.781-.689-2.678-2.08-2.678a3.462,3.462,0,0,0-2.34,1.4,1.8,1.8,0,0,0-1.911-1.4A3.218,3.218,0,0,0,22.4-5.876h-.026l-.091-1.053h-.624ZM2.223,19.169a1.528,1.528,0,0,0,.507-.078l-.117-.6a1.163,1.163,0,0,1-.247.026c-.182,0-.312-.143-.312-.468V8.665H1.3v9.308C1.3,18.779,1.6,19.169,2.223,19.169Zm5.122,0a3.877,3.877,0,0,0,2.21-.676l-.286-.559a3.1,3.1,0,0,1-1.846.6c-1.5,0-2.5-1.183-2.535-2.873H9.8a3.6,3.6,0,0,0,.039-.546c0-2.028-1-3.224-2.678-3.224-1.573,0-3.042,1.4-3.042,3.653C4.121,17.817,5.564,19.169,7.345,19.169ZM4.888,15.061a2.468,2.468,0,0,1,2.288-2.522c1.209,0,1.976.845,1.976,2.522Zm8.034,4.108a3.994,3.994,0,0,0,2.418-1.053h.026l.078.884h.637V14.606c0-1.534-.585-2.717-2.236-2.717a4.805,4.805,0,0,0-2.626.91l.338.546a3.747,3.747,0,0,1,2.184-.793c1.313,0,1.612,1.066,1.586,2.093-3.055.351-4.42,1.079-4.42,2.613A1.828,1.828,0,0,0,12.922,19.169Zm.156-.637a1.249,1.249,0,0,1-1.417-1.313c0-1.066.936-1.7,3.666-2.015v2.249A3.415,3.415,0,0,1,13.078,18.532Zm7.644.637a3.211,3.211,0,0,0,2.223-1.04h.026l.091.871h.624V8.665h-.754v2.821l.052,1.248a3.112,3.112,0,0,0-2.067-.845c-1.638,0-3.068,1.417-3.068,3.653C17.849,17.869,18.98,19.169,20.722,19.169Zm.13-.663c-1.4,0-2.2-1.17-2.2-2.964,0-1.7,1.014-2.99,2.34-2.99a2.8,2.8,0,0,1,1.937.858v4A2.9,2.9,0,0,1,20.852,18.506Zm8.008.663a3.877,3.877,0,0,0,2.21-.676l-.286-.559a3.1,3.1,0,0,1-1.846.6c-1.5,0-2.5-1.183-2.535-2.873h4.914a3.6,3.6,0,0,0,.039-.546c0-2.028-1-3.224-2.678-3.224-1.573,0-3.042,1.4-3.042,3.653C25.636,17.817,27.079,19.169,28.86,19.169ZM26.4,15.061a2.468,2.468,0,0,1,2.288-2.522c1.209,0,1.976.845,1.976,2.522ZM33.124,19h.754V14.346c.507-1.287,1.248-1.742,1.859-1.742a1.465,1.465,0,0,1,.637.117l.156-.676a1.4,1.4,0,0,0-.7-.156,2.384,2.384,0,0,0-1.963,1.469h-.026l-.091-1.287h-.624Zm6.292.169c1.534,0,2.379-.91,2.379-1.976,0-1.339-1.17-1.716-2.236-2.119-.806-.3-1.612-.585-1.612-1.352,0-.624.468-1.2,1.495-1.2a2.657,2.657,0,0,1,1.651.624l.39-.52a3.347,3.347,0,0,0-2.015-.741c-1.456,0-2.275.858-2.275,1.872,0,1.2,1.144,1.625,2.171,1.989.806.286,1.677.663,1.677,1.482,0,.715-.533,1.313-1.586,1.313a3.174,3.174,0,0,1-2.184-.871l-.4.546A4.06,4.06,0,0,0,39.416,19.169Z" transform="translate(432.041 235.005)"/>
    </g>
    <path id="패스_10148" data-name="패스 10148" class="cls-14" d="M-56.136-4.4c0-2.376,1.14-3.852,2.868-3.852S-50.376-6.78-50.376-4.4c0,2.4-1.152,3.948-2.892,3.948S-56.136-2-56.136-4.4Zm6.42,5.736a2.767,2.767,0,0,1-.888.12A2.3,2.3,0,0,1-52.848.132c1.908-.216,3.216-1.944,3.216-4.536,0-2.772-1.5-4.5-3.636-4.5-2.112,0-3.624,1.728-3.624,4.5,0,2.616,1.332,4.344,3.252,4.536a3.039,3.039,0,0,0,2.964,1.956,3.7,3.7,0,0,0,1.116-.156ZM-45.864.156A2.84,2.84,0,0,0-43.7-1.056h.036L-43.608,0h.588V-6.4h-.7v4.68c-.72.864-1.248,1.248-1.992,1.248-.984,0-1.392-.612-1.392-1.92V-6.4h-.7V-2.3C-47.8-.66-47.2.156-45.864.156Zm6.66,0a3.687,3.687,0,0,0,2.232-.972h.024l.072.816h.588V-4.056c0-1.416-.54-2.508-2.064-2.508a4.436,4.436,0,0,0-2.424.84l.312.5a3.458,3.458,0,0,1,2.016-.732c1.212,0,1.488.984,1.464,1.932-2.82.324-4.08,1-4.08,2.412A1.688,1.688,0,0,0-39.2.156Zm.144-.588a1.153,1.153,0,0,1-1.308-1.212c0-.984.864-1.572,3.384-1.86v2.076A3.152,3.152,0,0,1-39.06-.432ZM-33.2.156a1.41,1.41,0,0,0,.468-.072l-.108-.552a1.073,1.073,0,0,1-.228.024c-.168,0-.288-.132-.288-.432V-9.54h-.7V-.948C-34.056-.2-33.78.156-33.2.156ZM-30.852,0h.7V-6.4h-.7Zm.36-7.9a.566.566,0,0,0,.588-.552.564.564,0,0,0-.588-.576.557.557,0,0,0-.588.576A.559.559,0,0,0-30.492-7.9ZM-25.968.156A3.619,3.619,0,0,0-24.9-.084l-.168-.54a2.237,2.237,0,0,1-.78.18c-.852,0-1.068-.528-1.068-1.332V-5.808h1.836V-6.4h-1.836V-8.244H-27.5L-27.588-6.4l-1.02.06v.528h1v3.984C-27.612-.636-27.228.156-25.968.156Zm2.244,2.724c1.176,0,1.824-1.032,2.208-2.136l2.5-7.14h-.708l-1.308,3.912c-.18.552-.384,1.224-.576,1.8h-.06c-.228-.576-.468-1.248-.672-1.8L-23.832-6.4h-.756L-21.972.1l-.168.54c-.312.924-.828,1.62-1.6,1.62a1.646,1.646,0,0,1-.516-.1l-.156.588A1.7,1.7,0,0,0-23.724,2.88Zm8.8-2.88h.66V-5.544c0-.72-.048-1.68-.084-2.412h.048L-13.62-6l1.848,5.064h.576L-9.36-6l.684-1.956h.048c-.036.732-.084,1.692-.084,2.412V0h.684V-8.748h-.96l-1.8,5.028c-.216.636-.42,1.284-.648,1.92h-.048l-.684-1.92-1.8-5.028h-.96ZM-4.14.156A3.687,3.687,0,0,0-1.908-.816h.024L-1.812,0h.588V-4.056c0-1.416-.54-2.508-2.064-2.508a4.436,4.436,0,0,0-2.424.84l.312.5a3.458,3.458,0,0,1,2.016-.732c1.212,0,1.488.984,1.464,1.932C-4.74-3.7-6-3.024-6-1.608A1.688,1.688,0,0,0-4.14.156ZM-4-.432A1.153,1.153,0,0,1-5.3-1.644c0-.984.864-1.572,3.384-1.86v2.076A3.152,3.152,0,0,1-4-.432Zm5,.432h.7V-4.788C2.448-5.556,2.976-5.94,3.72-5.94c.984,0,1.4.612,1.4,1.944V0h.7V-4.092c0-1.644-.612-2.472-1.944-2.472a3.146,3.146,0,0,0-2.184,1.14H1.668L1.584-6.4H1.008ZM9.54.156a3.687,3.687,0,0,0,2.232-.972H11.8L11.868,0h.588V-4.056c0-1.416-.54-2.508-2.064-2.508a4.436,4.436,0,0,0-2.424.84l.312.5A3.458,3.458,0,0,1,10.3-5.952c1.212,0,1.488.984,1.464,1.932-2.82.324-4.08,1-4.08,2.412A1.688,1.688,0,0,0,9.54.156Zm.144-.588A1.153,1.153,0,0,1,8.376-1.644c0-.984.864-1.572,3.384-1.86v2.076A3.152,3.152,0,0,1,9.684-.432Zm7.1,3.48c1.872,0,3.072-1.056,3.072-2.172,0-1.02-.684-1.476-2.136-1.476H16.38c-.924,0-1.2-.348-1.2-.8a1.1,1.1,0,0,1,.5-.888,2.162,2.162,0,0,0,1.032.264,2.2,2.2,0,0,0,2.256-2.256,2.04,2.04,0,0,0-.66-1.536h1.44V-6.4H17.568a2.274,2.274,0,0,0-.852-.168A2.234,2.234,0,0,0,14.424-4.3a2.316,2.316,0,0,0,.816,1.74v.048a1.591,1.591,0,0,0-.708,1.188,1.147,1.147,0,0,0,.576,1.032v.06a1.944,1.944,0,0,0-.96,1.524C14.148,2.376,15.192,3.048,16.788,3.048Zm-.072-5.6a1.64,1.64,0,0,1-1.6-1.74,1.587,1.587,0,0,1,1.6-1.7A1.585,1.585,0,0,1,18.3-4.3,1.638,1.638,0,0,1,16.716-2.556Zm.156,5.076c-1.308,0-2.064-.528-2.064-1.308A1.6,1.6,0,0,1,15.6-.072a4.5,4.5,0,0,0,.8.108h1.308c.948,0,1.452.252,1.452.936C19.164,1.74,18.264,2.52,16.872,2.52ZM23.5.156a3.579,3.579,0,0,0,2.04-.624l-.264-.516a2.864,2.864,0,0,1-1.7.552,2.422,2.422,0,0,1-2.34-2.652h4.536a3.319,3.319,0,0,0,.036-.5c0-1.872-.924-2.976-2.472-2.976-1.452,0-2.808,1.3-2.808,3.372A3.03,3.03,0,0,0,23.5.156ZM21.228-3.636A2.278,2.278,0,0,1,23.34-5.964c1.116,0,1.824.78,1.824,2.328ZM27.5,0h.7V-4.788A2.7,2.7,0,0,1,30.048-5.94c.948,0,1.38.612,1.38,1.944V0h.7V-4.788A2.7,2.7,0,0,1,33.972-5.94c.936,0,1.38.612,1.38,1.944V0h.7V-4.092c0-1.644-.636-2.472-1.92-2.472a3.2,3.2,0,0,0-2.16,1.3,1.657,1.657,0,0,0-1.764-1.3,2.97,2.97,0,0,0-2.016,1.14h-.024L28.08-6.4H27.5ZM40.8.156a3.579,3.579,0,0,0,2.04-.624l-.264-.516a2.864,2.864,0,0,1-1.7.552,2.422,2.422,0,0,1-2.34-2.652h4.536a3.319,3.319,0,0,0,.036-.5c0-1.872-.924-2.976-2.472-2.976-1.452,0-2.808,1.3-2.808,3.372A3.03,3.03,0,0,0,40.8.156ZM38.532-3.636a2.278,2.278,0,0,1,2.112-2.328c1.116,0,1.824.78,1.824,2.328ZM44.808,0h.7V-4.788c.744-.768,1.272-1.152,2.016-1.152.984,0,1.4.612,1.4,1.944V0h.7V-4.092c0-1.644-.612-2.472-1.944-2.472a3.146,3.146,0,0,0-2.184,1.14h-.024L45.384-6.4h-.576Zm8.916.156a3.619,3.619,0,0,0,1.068-.24l-.168-.54a2.237,2.237,0,0,1-.78.18c-.852,0-1.068-.528-1.068-1.332V-5.808h1.836V-6.4H52.776V-8.244h-.588L52.1-6.4l-1.02.06v.528h1v3.984C52.08-.636,52.464.156,53.724.156ZM-11.8,18h.732V9.864H-8.3V9.252h-6.24v.612H-11.8Zm6.708.156a3.579,3.579,0,0,0,2.04-.624l-.264-.516a2.864,2.864,0,0,1-1.7.552,2.422,2.422,0,0,1-2.34-2.652H-2.82a3.319,3.319,0,0,0,.036-.5c0-1.872-.924-2.976-2.472-2.976-1.452,0-2.808,1.3-2.808,3.372A3.03,3.03,0,0,0-5.088,18.156Zm-2.268-3.792a2.278,2.278,0,0,1,2.112-2.328c1.116,0,1.824.78,1.824,2.328ZM.132,18.156a3.687,3.687,0,0,0,2.232-.972h.024L2.46,18h.588V13.944c0-1.416-.54-2.508-2.064-2.508a4.436,4.436,0,0,0-2.424.84l.312.5a3.458,3.458,0,0,1,2.016-.732c1.212,0,1.488.984,1.464,1.932-2.82.324-4.08,1-4.08,2.412A1.688,1.688,0,0,0,.132,18.156Zm.144-.588a1.153,1.153,0,0,1-1.308-1.212c0-.984.864-1.572,3.384-1.86v2.076A3.152,3.152,0,0,1,.276,17.568Zm5,.432h.7V13.212A2.7,2.7,0,0,1,7.824,12.06c.948,0,1.38.612,1.38,1.944v4h.7V13.212a2.7,2.7,0,0,1,1.848-1.152c.936,0,1.38.612,1.38,1.944v4h.7V13.908c0-1.644-.636-2.472-1.92-2.472a3.2,3.2,0,0,0-2.16,1.3,1.657,1.657,0,0,0-1.764-1.3,2.97,2.97,0,0,0-2.016,1.14H5.94L5.856,11.6H5.28Z" transform="translate(753.485 130.115)"/>
  </g>
</svg>
