<svg xmlns="http://www.w3.org/2000/svg" width="836.377" height="219.602" viewBox="0 0 836.377 219.602">
  <defs>
    <style>
      .cls-1 {
        fill: #1e498b;
      }

      .cls-11, .cls-2, .cls-20, .cls-3, .cls-4, .cls-5, .cls-6, .cls-7, .cls-8, .cls-9 {
        fill: none;
      }

      .cls-2, .cls-3, .cls-4, .cls-5, .cls-6, .cls-7, .cls-8, .cls-9 {
        stroke: #6180ae;
        stroke-width: 0.7px;
      }

      .cls-2, .cls-3, .cls-5, .cls-6, .cls-7, .cls-8, .cls-9 {
        stroke-linecap: round;
        stroke-linejoin: round;
      }

      .cls-2 {
        stroke-dasharray: 0 2.019;
      }

      .cls-5 {
        stroke-dasharray: 0 2.023;
      }

      .cls-6 {
        stroke-dasharray: 0 2.142;
      }

      .cls-7 {
        stroke-dasharray: 0 2.092;
      }

      .cls-8 {
        stroke-dasharray: 0 2.115;
      }

      .cls-9 {
        stroke-dasharray: 0 2.098;
      }

      .cls-10, .cls-13, .cls-15 {
        fill: #fff;
      }

      .cls-11, .cls-13 {
        stroke: #1e498b;
      }

      .cls-11, .cls-13, .cls-20 {
        stroke-width: 0.5px;
      }

      .cls-12, .cls-14, .cls-16, .cls-17, .cls-19 {
        fill: #1e2323;
      }

      .cls-14, .cls-15, .cls-16, .cls-17, .cls-19 {
        font-size: 13px;
        font-family: NotoSansKR-Regular, Noto Sans KR;
      }

      .cls-14, .cls-15 {
        letter-spacing: -0.015em;
      }

      .cls-17 {
        letter-spacing: -0.016em;
      }

      .cls-18 {
        fill: #28669e;
      }

      .cls-19 {
        letter-spacing: -0.003em;
      }

      .cls-20 {
        stroke: #303c72;
      }

      .cls-21 {
        fill: #1393d1;
      }
    </style>
  </defs>
  <g id="구성_요소_90_1" data-name="구성 요소 90 – 1" transform="translate(0.25)">
    <path id="패스_9497" data-name="패스 9497" class="cls-1" d="M582.847-186.688h253.53v-36.75H582.847Z" transform="translate(-0.25 223.438)"/>
    <path id="패스_9498" data-name="패스 9498" class="cls-1" d="M6.25-186.688H550.426v-36.75H6.25Z" transform="translate(-0.25 223.438)"/>
    <path id="패스_9499" data-name="패스 9499" class="cls-2" d="M0,0V19.182" transform="translate(129.452 94.62)"/>
    <path id="패스_9500" data-name="패스 9500" class="cls-3" d="M0,0H0M0,22.211H0" transform="translate(129.452 92.6)"/>
    <path id="패스_9501" data-name="패스 9501" class="cls-4" d="M0,0-3.424,3.682-6.847,0" transform="translate(132.875 111.129)"/>
    <path id="패스_9502" data-name="패스 9502" class="cls-5" d="M0,0V15.176" transform="translate(707.042 94.624)"/>
    <path id="패스_9503" data-name="패스 9503" class="cls-3" d="M0,0H0M0,18.211H0" transform="translate(707.042 92.6)"/>
    <path id="패스_9504" data-name="패스 9504" class="cls-4" d="M0,0-3.424,3.682-6.847,0" transform="translate(710.466 107.129)"/>
    <path id="패스_9505" data-name="패스 9505" class="cls-2" d="M0,0V19.182" transform="translate(129.452 158.616)"/>
    <path id="패스_9506" data-name="패스 9506" class="cls-3" d="M0,0H0M0,22.211H0" transform="translate(129.452 156.596)"/>
    <path id="패스_9507" data-name="패스 9507" class="cls-4" d="M0,0-3.424,3.682-6.847,0" transform="translate(132.875 175.125)"/>
    <path id="패스_9508" data-name="패스 9508" class="cls-5" d="M0,0V15.176" transform="translate(707.042 158.62)"/>
    <path id="패스_9509" data-name="패스 9509" class="cls-3" d="M0,0H0M0,18.211H0" transform="translate(707.042 156.596)"/>
    <path id="패스_9510" data-name="패스 9510" class="cls-4" d="M0,0-3.424,3.682-6.847,0" transform="translate(710.466 171.125)"/>
    <path id="패스_9511" data-name="패스 9511" class="cls-6" d="M0,0V13.92" transform="translate(417.75 94.393)"/>
    <path id="패스_9512" data-name="패스 9512" class="cls-3" d="M0,0H0M0,17.133H0" transform="translate(417.75 92.25)"/>
    <path id="패스_9513" data-name="패스 9513" class="cls-4" d="M0,0-3.424,3.682-6.847,0" transform="translate(421.174 105.702)"/>
    <path id="패스_9514" data-name="패스 9514" class="cls-7" d="M0,0H11.51" transform="translate(261.191 184.75)"/>
    <path id="패스_9515" data-name="패스 9515" class="cls-8" d="M0,0V-106.827" transform="translate(273.746 182.634)"/>
    <path id="패스_9516" data-name="패스 9516" class="cls-9" d="M0,0H7.344" transform="translate(275.844 74.75)"/>
    <path id="패스_9517" data-name="패스 9517" class="cls-3" d="M0,0H0M14.646,0h0m0-110h0m10.491,0h0" transform="translate(259.1 184.75)"/>
    <path id="패스_9518" data-name="패스 9518" class="cls-4" d="M0,0,3.684,3.424,0,6.847" transform="translate(280.553 71.326)"/>
    <path id="패스_9519" data-name="패스 9519" class="cls-10" d="M.25-189.688H544.426v-33.5H.25Z" transform="translate(-0.25 223.438)"/>
    <path id="패스_9520" data-name="패스 9520" class="cls-11" d="M.25-189.688H544.426v-33.5H.25Z" transform="translate(-0.25 223.438)"/>
    <path id="패스_9531" data-name="패스 9531" class="cls-12" d="M1.3,0H2.509V-3.783H4.082c2.08,0,3.51-.936,3.51-2.951,0-2.08-1.43-2.795-3.575-2.795H1.3ZM2.509-4.758v-3.8H3.874c1.677,0,2.522.442,2.522,1.82S5.6-4.758,3.926-4.758Z" transform="translate(58.794 22.28)"/>
    <path id="패스_9532" data-name="패스 9532" class="cls-12" d="M4.043.169a4.2,4.2,0,0,0,2.34-.728l-.429-.78A3.043,3.043,0,0,1,4.186-.78a2.339,2.339,0,0,1-2.34-2.47H6.6a4.618,4.618,0,0,0,.052-.676c0-2.015-1.014-3.315-2.808-3.315A3.414,3.414,0,0,0,.663-3.523,3.374,3.374,0,0,0,4.043.169ZM1.833-4.095a2.172,2.172,0,0,1,2.028-2.2c1.105,0,1.755.767,1.755,2.2ZM8.4,0H9.581V-4.537c.468-1.209,1.2-1.625,1.781-1.625a1.67,1.67,0,0,1,.689.117l.221-1.04a1.5,1.5,0,0,0-.754-.156,2.437,2.437,0,0,0-2,1.469H9.477l-.1-1.287H8.4Zm6.838.169C16.9.169,17.81-.78,17.81-1.924c0-1.339-1.131-1.755-2.158-2.145-.793-.3-1.56-.546-1.56-1.222,0-.546.4-1.014,1.287-1.014A2.656,2.656,0,0,1,17-5.681l.572-.767a3.658,3.658,0,0,0-2.2-.793c-1.534,0-2.431.884-2.431,2,0,1.2,1.118,1.677,2.106,2.041.78.3,1.612.624,1.612,1.339,0,.611-.455,1.105-1.391,1.105a3.2,3.2,0,0,1-2.093-.832l-.585.78A4.258,4.258,0,0,0,15.236.169Zm6.981,0a3.37,3.37,0,0,0,3.276-3.692c0-2.353-1.547-3.718-3.276-3.718s-3.276,1.365-3.276,3.718A3.37,3.37,0,0,0,22.217.169Zm0-.988c-1.222,0-2.041-1.079-2.041-2.7s.819-2.73,2.041-2.73,2.054,1.105,2.054,2.73S23.439-.819,22.217-.819ZM27.352,0h1.183V-5.122A2.685,2.685,0,0,1,30.472-6.2c.936,0,1.339.559,1.339,1.885V0h1.183V-4.472c0-1.807-.676-2.769-2.158-2.769a3.385,3.385,0,0,0-2.366,1.2h-.039l-.1-1.014h-.975ZM36.92.169A3.782,3.782,0,0,0,39.26-.845H39.3L39.4,0h.975V-4.342c0-1.742-.728-2.9-2.444-2.9a5.31,5.31,0,0,0-2.782.923l.468.819a3.889,3.889,0,0,1,2.119-.754c1.157,0,1.456.871,1.456,1.781-3,.338-4.342,1.105-4.342,2.639A1.914,1.914,0,0,0,36.92.169Zm.338-.949c-.7,0-1.248-.325-1.248-1.131,0-.91.806-1.495,3.185-1.781v1.976A2.885,2.885,0,0,1,37.258-.78Zm6.617.949a1.869,1.869,0,0,0,.689-.1L44.4-.845a1.038,1.038,0,0,1-.247.026c-.182,0-.338-.143-.338-.507v-9.022H42.627V-1.4C42.627-.4,42.991.169,43.875.169ZM49.244,0h1.183V-7.059H49.244Zm.6-8.515a.773.773,0,0,0,.819-.767.751.751,0,0,0-.819-.767.751.751,0,0,0-.819.767A.773.773,0,0,0,49.842-8.515Z" transform="translate(66.93 22.28)"/>
    <path id="패스_9533" data-name="패스 9533" class="cls-12" d="M1.2,0H2.379V-5.122A2.685,2.685,0,0,1,4.316-6.2c.936,0,1.339.559,1.339,1.885V0H6.838V-4.472c0-1.807-.676-2.769-2.158-2.769a3.385,3.385,0,0,0-2.366,1.2H2.275l-.1-1.014H1.2Z" transform="translate(119.739 22.28)"/>
    <path id="패스_9534" data-name="패스 9534" class="cls-12" d="M4.628-10.283a3.094,3.094,0,0,0-1.183-.234c-1.4,0-2.054.9-2.054,2.327v1.131l-.962.065v.9h.962V0H2.574V-6.1H4.069v-.962H2.574V-8.177c0-.91.325-1.391,1-1.391a2,2,0,0,1,.793.182ZM8.021.169A3.37,3.37,0,0,0,11.3-3.523c0-2.353-1.547-3.718-3.276-3.718S4.745-5.876,4.745-3.523A3.37,3.37,0,0,0,8.021.169Zm0-.988C6.8-.819,5.98-1.9,5.98-3.523s.819-2.73,2.041-2.73,2.054,1.105,2.054,2.73S9.243-.819,8.021-.819ZM13.156,0h1.183V-4.537c.468-1.209,1.2-1.625,1.781-1.625a1.67,1.67,0,0,1,.689.117l.221-1.04a1.5,1.5,0,0,0-.754-.156,2.437,2.437,0,0,0-2,1.469h-.039l-.1-1.287h-.975ZM18.2,0h1.183V-5.122A2.607,2.607,0,0,1,21.164-6.2c.9,0,1.313.559,1.313,1.885V0H23.66V-5.122A2.607,2.607,0,0,1,25.441-6.2c.9,0,1.313.559,1.313,1.885V0h1.183V-4.472c0-1.807-.689-2.769-2.145-2.769a3.337,3.337,0,0,0-2.327,1.352,1.862,1.862,0,0,0-1.95-1.352,3.1,3.1,0,0,0-2.2,1.209h-.039l-.1-1.027H18.2ZM31.863.169A3.782,3.782,0,0,0,34.2-.845h.039l.1.845h.975V-4.342c0-1.742-.728-2.9-2.444-2.9a5.31,5.31,0,0,0-2.782.923l.468.819a3.889,3.889,0,0,1,2.119-.754c1.157,0,1.456.871,1.456,1.781-3,.338-4.342,1.105-4.342,2.639A1.914,1.914,0,0,0,31.863.169ZM32.2-.78c-.7,0-1.248-.325-1.248-1.131,0-.91.806-1.495,3.185-1.781v1.976A2.885,2.885,0,0,1,32.2-.78Zm7.4.949a4.444,4.444,0,0,0,1.3-.26l-.234-.884a2.5,2.5,0,0,1-.806.182c-.819,0-1.092-.494-1.092-1.365V-6.1h1.911v-.962H38.766V-9.035h-.988l-.143,1.976-1.1.065v.9h1.053v3.913C37.583-.767,38.09.169,39.6.169ZM42.276,0h1.183V-7.059H42.276Zm.6-8.515a.773.773,0,0,0,.819-.767.751.751,0,0,0-.819-.767.751.751,0,0,0-.819.767A.773.773,0,0,0,42.874-8.515ZM48.594.169A3.37,3.37,0,0,0,51.87-3.523c0-2.353-1.547-3.718-3.276-3.718s-3.276,1.365-3.276,3.718A3.37,3.37,0,0,0,48.594.169Zm0-.988c-1.222,0-2.041-1.079-2.041-2.7s.819-2.73,2.041-2.73,2.054,1.105,2.054,2.73S49.816-.819,48.594-.819ZM53.729,0h1.183V-5.122A2.685,2.685,0,0,1,56.849-6.2c.936,0,1.339.559,1.339,1.885V0h1.183V-4.472c0-1.807-.676-2.769-2.158-2.769a3.385,3.385,0,0,0-2.366,1.2h-.039l-.1-1.014h-.975Zm12.48.169a3.782,3.782,0,0,0,2.34-1.014h.039l.1.845h.975V-4.342c0-1.742-.728-2.9-2.444-2.9a5.31,5.31,0,0,0-2.782.923l.468.819a3.889,3.889,0,0,1,2.119-.754c1.157,0,1.456.871,1.456,1.781-3,.338-4.342,1.105-4.342,2.639A1.914,1.914,0,0,0,66.209.169Zm.338-.949c-.7,0-1.248-.325-1.248-1.131,0-.91.806-1.495,3.185-1.781v1.976A2.885,2.885,0,0,1,66.547-.78ZM71.916,0H73.1V-5.122A2.685,2.685,0,0,1,75.036-6.2c.936,0,1.339.559,1.339,1.885V0h1.183V-4.472c0-1.807-.676-2.769-2.158-2.769a3.385,3.385,0,0,0-2.366,1.2H73l-.1-1.014h-.975ZM82.6.169a3.37,3.37,0,0,0,3.276-3.692c0-2.353-1.547-3.718-3.276-3.718s-3.276,1.365-3.276,3.718A3.37,3.37,0,0,0,82.6.169Zm0-.988c-1.222,0-2.041-1.079-2.041-2.7s.819-2.73,2.041-2.73,2.054,1.105,2.054,2.73S83.824-.819,82.6-.819ZM87.737,0H88.92V-5.122A2.607,2.607,0,0,1,90.7-6.2c.9,0,1.313.559,1.313,1.885V0H93.2V-5.122A2.607,2.607,0,0,1,94.978-6.2c.9,0,1.313.559,1.313,1.885V0h1.183V-4.472c0-1.807-.689-2.769-2.145-2.769A3.337,3.337,0,0,0,93-5.889a1.862,1.862,0,0,0-1.95-1.352,3.1,3.1,0,0,0-2.2,1.209h-.039l-.1-1.027h-.975ZM101.4.169a3.782,3.782,0,0,0,2.34-1.014h.039l.1.845h.975V-4.342c0-1.742-.728-2.9-2.444-2.9a5.31,5.31,0,0,0-2.782.923l.468.819a3.889,3.889,0,0,1,2.119-.754c1.157,0,1.456.871,1.456,1.781-3,.338-4.342,1.105-4.342,2.639A1.914,1.914,0,0,0,101.4.169Zm.338-.949c-.7,0-1.248-.325-1.248-1.131,0-.91.806-1.495,3.185-1.781v1.976A2.885,2.885,0,0,1,101.738-.78Zm6.617.949a1.869,1.869,0,0,0,.689-.1l-.169-.91a1.038,1.038,0,0,1-.247.026c-.182,0-.338-.143-.338-.507v-9.022h-1.183V-1.4C107.107-.4,107.471.169,108.355.169Zm2.574,2.873c1.4,0,2.132-1.066,2.626-2.457l2.665-7.644h-1.157L113.8-3.133c-.195.624-.4,1.339-.6,1.976h-.065c-.221-.637-.468-1.365-.676-1.976L111.02-7.059h-1.235L112.619.013l-.156.533c-.286.871-.793,1.521-1.6,1.521a1.687,1.687,0,0,1-.533-.117L110.1,2.9A2.173,2.173,0,0,0,110.929,3.042ZM122.9.169a3.149,3.149,0,0,0,2.145-1h.026L125.19,0h.962V-10.348h-1.183v2.717l.065,1.222a2.872,2.872,0,0,0-1.989-.832c-1.612,0-3.055,1.43-3.055,3.718C119.99-1.17,121.134.169,122.9.169Zm.26-.988c-1.248,0-1.95-1.014-1.95-2.717,0-1.612.9-2.7,2.041-2.7a2.478,2.478,0,0,1,1.716.741v3.705A2.426,2.426,0,0,1,123.162-.819ZM131.4.169a4.2,4.2,0,0,0,2.34-.728l-.429-.78a3.043,3.043,0,0,1-1.768.559,2.339,2.339,0,0,1-2.34-2.47h4.758a4.618,4.618,0,0,0,.052-.676c0-2.015-1.014-3.315-2.808-3.315a3.414,3.414,0,0,0-3.185,3.718A3.374,3.374,0,0,0,131.4.169Zm-2.21-4.264a2.172,2.172,0,0,1,2.028-2.2c1.1,0,1.755.767,1.755,2.2ZM137.839.169a4.444,4.444,0,0,0,1.3-.26L138.9-.975a2.5,2.5,0,0,1-.806.182c-.819,0-1.092-.494-1.092-1.365V-6.1h1.911v-.962h-1.911V-9.035h-.988l-.143,1.976-1.1.065v.9h1.053v3.913C135.824-.767,136.331.169,137.839.169Z" transform="translate(127.611 22.28)"/>
    <path id="패스_9535" data-name="패스 9535" class="cls-12" d="M4.043.169a4.2,4.2,0,0,0,2.34-.728l-.429-.78A3.043,3.043,0,0,1,4.186-.78a2.339,2.339,0,0,1-2.34-2.47H6.6a4.618,4.618,0,0,0,.052-.676c0-2.015-1.014-3.315-2.808-3.315A3.414,3.414,0,0,0,.663-3.523,3.374,3.374,0,0,0,4.043.169ZM1.833-4.095a2.172,2.172,0,0,1,2.028-2.2c1.105,0,1.755.767,1.755,2.2ZM11.18.169a3.366,3.366,0,0,0,2.275-.9l-.507-.793a2.489,2.489,0,0,1-1.664.7C9.984-.819,9.1-1.9,9.1-3.523s.936-2.73,2.21-2.73a2.049,2.049,0,0,1,1.417.637l.611-.793a3.018,3.018,0,0,0-2.067-.832A3.437,3.437,0,0,0,7.865-3.523C7.865-1.183,9.308.169,11.18.169Z" transform="translate(267.443 22.28)"/>
    <path id="패스_9536" data-name="패스 9536" class="cls-12" d="M3.419.169a4.444,4.444,0,0,0,1.3-.26L4.485-.975a2.5,2.5,0,0,1-.806.182c-.819,0-1.092-.494-1.092-1.365V-6.1H4.5v-.962H2.587V-9.035H1.6L1.456-7.059.351-6.994v.9H1.4v3.913C1.4-.767,1.911.169,3.419.169ZM6.1,0H7.28V-7.059H6.1Zm.6-8.515a.773.773,0,0,0,.819-.767.751.751,0,0,0-.819-.767.751.751,0,0,0-.819.767A.773.773,0,0,0,6.695-8.515ZM12.415.169a3.37,3.37,0,0,0,3.276-3.692c0-2.353-1.547-3.718-3.276-3.718S9.139-5.876,9.139-3.523A3.37,3.37,0,0,0,12.415.169Zm0-.988c-1.222,0-2.041-1.079-2.041-2.7s.819-2.73,2.041-2.73,2.054,1.105,2.054,2.73S13.637-.819,12.415-.819ZM17.55,0h1.183V-5.122A2.685,2.685,0,0,1,20.67-6.2c.936,0,1.339.559,1.339,1.885V0h1.183V-4.472c0-1.807-.676-2.769-2.158-2.769a3.385,3.385,0,0,0-2.366,1.2h-.039l-.1-1.014H17.55Zm12.7.169c1.664,0,2.574-.949,2.574-2.093,0-1.339-1.131-1.755-2.158-2.145-.793-.3-1.56-.546-1.56-1.222,0-.546.4-1.014,1.287-1.014a2.656,2.656,0,0,1,1.625.624l.572-.767a3.658,3.658,0,0,0-2.2-.793c-1.534,0-2.431.884-2.431,2,0,1.2,1.118,1.677,2.106,2.041.78.3,1.612.624,1.612,1.339,0,.611-.455,1.105-1.391,1.105A3.2,3.2,0,0,1,28.2-1.586l-.585.78A4.258,4.258,0,0,0,30.251.169Zm4.355,2.873c1.4,0,2.132-1.066,2.626-2.457L39.9-7.059H38.74L37.479-3.133c-.195.624-.4,1.339-.6,1.976h-.065c-.221-.637-.468-1.365-.676-1.976L34.7-7.059H33.462L36.3.013,36.14.546c-.286.871-.793,1.521-1.6,1.521a1.687,1.687,0,0,1-.533-.117l-.234.949A2.173,2.173,0,0,0,34.606,3.042Zm8.5-2.873c1.664,0,2.574-.949,2.574-2.093,0-1.339-1.131-1.755-2.158-2.145-.793-.3-1.56-.546-1.56-1.222,0-.546.4-1.014,1.287-1.014a2.656,2.656,0,0,1,1.625.624l.572-.767a3.658,3.658,0,0,0-2.2-.793c-1.534,0-2.431.884-2.431,2,0,1.2,1.118,1.677,2.106,2.041.78.3,1.612.624,1.612,1.339,0,.611-.455,1.105-1.391,1.105a3.2,3.2,0,0,1-2.093-.832l-.585.78A4.258,4.258,0,0,0,43.108.169Zm6.175,0a4.444,4.444,0,0,0,1.3-.26l-.234-.884a2.5,2.5,0,0,1-.806.182c-.819,0-1.092-.494-1.092-1.365V-6.1h1.911v-.962H48.451V-9.035h-.988L47.32-7.059l-1.1.065v.9h1.053v3.913C47.268-.767,47.775.169,49.283.169Z" transform="translate(280.803 22.28)"/>
    <path id="패스_9537" data-name="패스 9537" class="cls-12" d="M4.043.169a4.2,4.2,0,0,0,2.34-.728l-.429-.78A3.043,3.043,0,0,1,4.186-.78a2.339,2.339,0,0,1-2.34-2.47H6.6a4.618,4.618,0,0,0,.052-.676c0-2.015-1.014-3.315-2.808-3.315A3.414,3.414,0,0,0,.663-3.523,3.374,3.374,0,0,0,4.043.169ZM1.833-4.095a2.172,2.172,0,0,1,2.028-2.2c1.105,0,1.755.767,1.755,2.2ZM8.4,0H9.581V-5.122A2.607,2.607,0,0,1,11.362-6.2c.9,0,1.313.559,1.313,1.885V0h1.183V-5.122A2.607,2.607,0,0,1,15.639-6.2c.9,0,1.313.559,1.313,1.885V0h1.183V-4.472c0-1.807-.689-2.769-2.145-2.769a3.337,3.337,0,0,0-2.327,1.352,1.862,1.862,0,0,0-1.95-1.352,3.1,3.1,0,0,0-2.2,1.209H9.477l-.1-1.027H8.4Zm11.44-3.185h3.328v-.91H19.838ZM28.054.169c1.625,0,3.068-1.391,3.068-3.822,0-2.158-.988-3.588-2.821-3.588a3.556,3.556,0,0,0-2.21,1l.039-1.274v-2.834H24.947V0H25.9L26-.728h.039A3.127,3.127,0,0,0,28.054.169Zm-.195-.988A2.709,2.709,0,0,1,26.13-1.56v-3.7a2.915,2.915,0,0,1,1.9-.975c1.339,0,1.859,1.053,1.859,2.613C29.887-1.872,29.029-.819,27.859-.819ZM34.4.169a3.782,3.782,0,0,0,2.34-1.014h.039l.1.845h.975V-4.342c0-1.742-.728-2.9-2.444-2.9a5.31,5.31,0,0,0-2.782.923L33.1-5.5a3.889,3.889,0,0,1,2.119-.754c1.157,0,1.456.871,1.456,1.781-3,.338-4.342,1.105-4.342,2.639A1.914,1.914,0,0,0,34.4.169Zm.338-.949c-.7,0-1.248-.325-1.248-1.131,0-.91.806-1.495,3.185-1.781v1.976A2.885,2.885,0,0,1,34.736-.78Zm7.215.949c1.664,0,2.574-.949,2.574-2.093,0-1.339-1.131-1.755-2.158-2.145-.793-.3-1.56-.546-1.56-1.222,0-.546.4-1.014,1.287-1.014a2.656,2.656,0,0,1,1.625.624l.572-.767a3.658,3.658,0,0,0-2.2-.793c-1.534,0-2.431.884-2.431,2,0,1.2,1.118,1.677,2.106,2.041.78.3,1.612.624,1.612,1.339,0,.611-.455,1.105-1.391,1.105A3.2,3.2,0,0,1,39.9-1.586l-.585.78A4.258,4.258,0,0,0,41.951.169Zm7.085,0a4.2,4.2,0,0,0,2.34-.728l-.429-.78a3.043,3.043,0,0,1-1.768.559,2.339,2.339,0,0,1-2.34-2.47H51.6a4.618,4.618,0,0,0,.052-.676c0-2.015-1.014-3.315-2.808-3.315a3.414,3.414,0,0,0-3.185,3.718A3.374,3.374,0,0,0,49.036.169Zm-2.21-4.264a2.172,2.172,0,0,1,2.028-2.2c1.1,0,1.755.767,1.755,2.2ZM55.8.169a3.149,3.149,0,0,0,2.145-1h.026L58.084,0h.962V-10.348H57.863v2.717l.065,1.222a2.872,2.872,0,0,0-1.989-.832c-1.612,0-3.055,1.43-3.055,3.718C52.884-1.17,54.028.169,55.8.169Zm.26-.988c-1.248,0-1.95-1.014-1.95-2.717,0-1.612.9-2.7,2.041-2.7a2.478,2.478,0,0,1,1.716.741v3.705A2.426,2.426,0,0,1,56.056-.819ZM64.363,0h1.183V-4.537c.468-1.209,1.2-1.625,1.781-1.625a1.67,1.67,0,0,1,.689.117l.221-1.04a1.5,1.5,0,0,0-.754-.156,2.437,2.437,0,0,0-2,1.469h-.039l-.1-1.287h-.975Zm5.044,0H70.59V-7.059H69.407ZM70-8.515a.773.773,0,0,0,.819-.767A.751.751,0,0,0,70-10.049a.751.751,0,0,0-.819.767A.773.773,0,0,0,70-8.515ZM74.828.169C76.492.169,77.4-.78,77.4-1.924c0-1.339-1.131-1.755-2.158-2.145-.793-.3-1.56-.546-1.56-1.222,0-.546.4-1.014,1.287-1.014a2.656,2.656,0,0,1,1.625.624l.572-.767a3.658,3.658,0,0,0-2.2-.793c-1.534,0-2.431.884-2.431,2,0,1.2,1.118,1.677,2.106,2.041.78.3,1.612.624,1.612,1.339,0,.611-.455,1.105-1.391,1.105a3.2,3.2,0,0,1-2.093-.832l-.585.78A4.258,4.258,0,0,0,74.828.169ZM79.066,0h1.17V-1.859l1.326-1.547L83.629,0h1.287L82.238-4.225,84.6-7.059H83.291L80.262-3.328h-.026v-7.02h-1.17ZM91.559.169a3.149,3.149,0,0,0,2.145-1h.026L93.847,0h.962V-10.348H93.626v2.717l.065,1.222A2.872,2.872,0,0,0,91.7-7.241c-1.612,0-3.055,1.43-3.055,3.718C88.647-1.17,89.791.169,91.559.169Zm.26-.988c-1.248,0-1.95-1.014-1.95-2.717,0-1.612.9-2.7,2.041-2.7a2.478,2.478,0,0,1,1.716.741v3.705A2.426,2.426,0,0,1,91.819-.819Z" transform="translate(332.239 22.28)"/>
    <path id="패스_9539" data-name="패스 9539" class="cls-12" d="M1.2,0H2.379V-7.059H1.2Zm.6-8.515a.773.773,0,0,0,.819-.767.751.751,0,0,0-.819-.767.751.751,0,0,0-.819.767A.773.773,0,0,0,1.794-8.515Z" transform="translate(427.99 22.28)"/>
    <path id="패스_9538" data-name="패스 9538" class="cls-12" d="M2.821.169A3.782,3.782,0,0,0,5.161-.845H5.2L5.3,0h.975V-4.342c0-1.742-.728-2.9-2.444-2.9a5.31,5.31,0,0,0-2.782.923l.468.819A3.889,3.889,0,0,1,3.64-6.253C4.8-6.253,5.1-5.382,5.1-4.472,2.093-4.134.754-3.367.754-1.833A1.914,1.914,0,0,0,2.821.169ZM3.159-.78c-.7,0-1.248-.325-1.248-1.131,0-.91.806-1.495,3.185-1.781v1.976A2.885,2.885,0,0,1,3.159-.78Zm7.748,4.03c2.184,0,3.562-1.131,3.562-2.444,0-1.157-.819-1.677-2.457-1.677H10.634c-.949,0-1.235-.312-1.235-.767a1.051,1.051,0,0,1,.455-.845,2.455,2.455,0,0,0,1.053.247,2.421,2.421,0,0,0,2.574-2.457,2.016,2.016,0,0,0-.572-1.456h1.443v-.91H11.9a2.912,2.912,0,0,0-.988-.182A2.514,2.514,0,0,0,8.255-4.719a2.478,2.478,0,0,0,.923,1.9v.052a1.722,1.722,0,0,0-.793,1.313A1.277,1.277,0,0,0,9.035-.3v.052a2,2,0,0,0-1.053,1.6C7.982,2.574,9.178,3.25,10.907,3.25Zm0-6.292A1.547,1.547,0,0,1,9.4-4.719,1.509,1.509,0,0,1,10.907-6.37,1.507,1.507,0,0,1,12.4-4.719,1.545,1.545,0,0,1,10.907-3.042Zm.169,5.486c-1.287,0-2.054-.494-2.054-1.248A1.489,1.489,0,0,1,9.75,0a3.97,3.97,0,0,0,.91.117h1.222c.936,0,1.443.221,1.443.871C13.325,1.729,12.428,2.444,11.076,2.444ZM15.847,0H17.03V-5.122A2.685,2.685,0,0,1,18.967-6.2c.936,0,1.339.559,1.339,1.885V0h1.183V-4.472c0-1.807-.676-2.769-2.158-2.769a3.385,3.385,0,0,0-2.366,1.2h-.039l-.1-1.014h-.975ZM26.533.169a3.37,3.37,0,0,0,3.276-3.692c0-2.353-1.547-3.718-3.276-3.718s-3.276,1.365-3.276,3.718A3.37,3.37,0,0,0,26.533.169Zm0-.988c-1.222,0-2.041-1.079-2.041-2.7s.819-2.73,2.041-2.73,2.054,1.105,2.054,2.73S27.755-.819,26.533-.819Zm6.981.988c1.664,0,2.574-.949,2.574-2.093,0-1.339-1.131-1.755-2.158-2.145-.793-.3-1.56-.546-1.56-1.222,0-.546.4-1.014,1.287-1.014a2.656,2.656,0,0,1,1.625.624l.572-.767a3.658,3.658,0,0,0-2.2-.793c-1.534,0-2.431.884-2.431,2,0,1.2,1.118,1.677,2.106,2.041.78.3,1.612.624,1.612,1.339,0,.611-.455,1.105-1.391,1.105a3.2,3.2,0,0,1-2.093-.832l-.585.78A4.258,4.258,0,0,0,33.514.169ZM37.752,0h1.183V-7.059H37.752Zm.6-8.515a.773.773,0,0,0,.819-.767.751.751,0,0,0-.819-.767.751.751,0,0,0-.819.767A.773.773,0,0,0,38.35-8.515ZM43.173.169c1.664,0,2.574-.949,2.574-2.093,0-1.339-1.131-1.755-2.158-2.145-.793-.3-1.56-.546-1.56-1.222,0-.546.4-1.014,1.287-1.014a2.656,2.656,0,0,1,1.625.624l.572-.767a3.658,3.658,0,0,0-2.2-.793c-1.534,0-2.431.884-2.431,2,0,1.2,1.118,1.677,2.106,2.041.78.3,1.612.624,1.612,1.339,0,.611-.455,1.105-1.391,1.105a3.2,3.2,0,0,1-2.093-.832l-.585.78A4.258,4.258,0,0,0,43.173.169Z" transform="translate(432.377 22.28)"/>
    <path id="패스_9522" data-name="패스 9522" class="cls-13" d="M576.847-189.688h253.53v-33.5H576.847Z" transform="translate(-0.25 223.438)"/>
    <path id="패스_9540" data-name="패스 9540" class="cls-12" d="M1.3,0H3.744C6.617,0,8.19-1.781,8.19-4.8s-1.573-4.732-4.5-4.732H1.3ZM2.509-.988V-8.554H3.588c2.249,0,3.354,1.339,3.354,3.757S5.837-.988,3.588-.988ZM11.986.169a3.028,3.028,0,0,0,2.34-1.274h.039L14.456,0h.988V-7.059H14.261v5c-.676.845-1.183,1.2-1.911,1.2-.936,0-1.326-.559-1.326-1.872V-7.059H9.841v4.472C9.841-.793,10.5.169,11.986.169Zm8.489,0a4.2,4.2,0,0,0,2.34-.728l-.429-.78a3.043,3.043,0,0,1-1.768.559,2.339,2.339,0,0,1-2.34-2.47h4.758a4.618,4.618,0,0,0,.052-.676c0-2.015-1.014-3.315-2.808-3.315a3.414,3.414,0,0,0-3.185,3.718A3.374,3.374,0,0,0,20.475.169Zm-2.21-4.264a2.172,2.172,0,0,1,2.028-2.2c1.1,0,1.755.767,1.755,2.2Z" transform="translate(662.982 21.809)"/>
    <text id="_" data-name=" " class="cls-14" transform="translate(687.312 21.809)"><tspan x="0" y="0"> </tspan></text>
    <path id="패스_9541" data-name="패스 9541" class="cls-12" d="M1.3,0H3.744C6.617,0,8.19-1.781,8.19-4.8s-1.573-4.732-4.5-4.732H1.3ZM2.509-.988V-8.554H3.588c2.249,0,3.354,1.339,3.354,3.757S5.837-.988,3.588-.988ZM9.932,0h1.183V-7.059H9.932Zm.6-8.515a.773.773,0,0,0,.819-.767.751.751,0,0,0-.819-.767.751.751,0,0,0-.819.767A.773.773,0,0,0,10.53-8.515ZM14.56.169a1.869,1.869,0,0,0,.689-.1l-.169-.91a1.038,1.038,0,0,1-.247.026c-.182,0-.338-.143-.338-.507v-9.022H13.312V-1.4C13.312-.4,13.676.169,14.56.169ZM16.822,0h1.183V-7.059H16.822Zm.6-8.515a.773.773,0,0,0,.819-.767.751.751,0,0,0-.819-.767.751.751,0,0,0-.819.767A.773.773,0,0,0,17.42-8.515ZM22.581,3.25c2.184,0,3.562-1.131,3.562-2.444,0-1.157-.819-1.677-2.457-1.677H22.308c-.949,0-1.235-.312-1.235-.767a1.051,1.051,0,0,1,.455-.845,2.455,2.455,0,0,0,1.053.247,2.421,2.421,0,0,0,2.574-2.457,2.016,2.016,0,0,0-.572-1.456h1.443v-.91H23.569a2.912,2.912,0,0,0-.988-.182,2.514,2.514,0,0,0-2.652,2.522,2.478,2.478,0,0,0,.923,1.9v.052a1.722,1.722,0,0,0-.793,1.313A1.277,1.277,0,0,0,20.709-.3v.052a2,2,0,0,0-1.053,1.6C19.656,2.574,20.852,3.25,22.581,3.25Zm0-6.292a1.547,1.547,0,0,1-1.508-1.677A1.509,1.509,0,0,1,22.581-6.37a1.507,1.507,0,0,1,1.495,1.651A1.545,1.545,0,0,1,22.581-3.042Zm.169,5.486C21.463,2.444,20.7,1.95,20.7,1.2A1.489,1.489,0,0,1,21.424,0a3.97,3.97,0,0,0,.91.117h1.222C24.492.117,25,.338,25,.988,25,1.729,24.1,2.444,22.75,2.444ZM29.978.169a4.2,4.2,0,0,0,2.34-.728l-.429-.78a3.043,3.043,0,0,1-1.768.559,2.339,2.339,0,0,1-2.34-2.47h4.758a4.619,4.619,0,0,0,.052-.676c0-2.015-1.014-3.315-2.808-3.315A3.414,3.414,0,0,0,26.6-3.523,3.374,3.374,0,0,0,29.978.169Zm-2.21-4.264a2.172,2.172,0,0,1,2.028-2.2c1.1,0,1.755.767,1.755,2.2ZM34.138,0h1.183V-5.122A2.685,2.685,0,0,1,37.258-6.2c.936,0,1.339.559,1.339,1.885V0H39.78V-4.472c0-1.807-.676-2.769-2.158-2.769a3.385,3.385,0,0,0-2.366,1.2h-.039l-.1-1.014h-.975Zm10.53.169a3.366,3.366,0,0,0,2.275-.9l-.507-.793a2.489,2.489,0,0,1-1.664.7c-1.3,0-2.184-1.079-2.184-2.7s.936-2.73,2.21-2.73a2.049,2.049,0,0,1,1.417.637l.611-.793a3.018,3.018,0,0,0-2.067-.832,3.437,3.437,0,0,0-3.406,3.718C41.353-1.183,42.8.169,44.668.169Zm6.175,0a4.2,4.2,0,0,0,2.34-.728l-.429-.78a3.043,3.043,0,0,1-1.768.559,2.339,2.339,0,0,1-2.34-2.47H53.4a4.618,4.618,0,0,0,.052-.676c0-2.015-1.014-3.315-2.808-3.315a3.414,3.414,0,0,0-3.185,3.718A3.374,3.374,0,0,0,50.843.169Zm-2.21-4.264a2.172,2.172,0,0,1,2.028-2.2c1.1,0,1.755.767,1.755,2.2Z" transform="translate(691.016 21.809)"/>
    <path id="패스_9523" data-name="패스 9523" class="cls-1" d="M.25-131.438h258.9v-34.5H.25Z" transform="translate(-0.25 223.438)"/>
    <path id="패스_9542" data-name="패스 9542" class="cls-10" d="M1.3,0H3.744C6.617,0,8.19-1.781,8.19-4.8s-1.573-4.732-4.5-4.732H1.3ZM2.509-.988V-8.554H3.588c2.249,0,3.354,1.339,3.354,3.757S5.837-.988,3.588-.988ZM11.557.169A3.782,3.782,0,0,0,13.9-.845h.039l.1.845h.975V-4.342c0-1.742-.728-2.9-2.444-2.9a5.31,5.31,0,0,0-2.782.923l.468.819a3.889,3.889,0,0,1,2.119-.754c1.157,0,1.456.871,1.456,1.781-3,.338-4.342,1.105-4.342,2.639A1.914,1.914,0,0,0,11.557.169ZM11.9-.78c-.7,0-1.248-.325-1.248-1.131,0-.91.806-1.495,3.185-1.781v1.976A2.885,2.885,0,0,1,11.9-.78Zm7.2.949a4.444,4.444,0,0,0,1.3-.26l-.234-.884a2.5,2.5,0,0,1-.806.182c-.819,0-1.092-.494-1.092-1.365V-6.1h1.911v-.962H18.265V-9.035h-.988l-.143,1.976-1.1.065v.9h1.053v3.913C17.082-.767,17.589.169,19.1.169Z" transform="translate(88.481 80.69)"/>
    <path id="패스_9543" data-name="패스 9543" class="cls-10" d="M2.821.169A3.782,3.782,0,0,0,5.161-.845H5.2L5.3,0h.975V-4.342c0-1.742-.728-2.9-2.444-2.9a5.31,5.31,0,0,0-2.782.923l.468.819A3.889,3.889,0,0,1,3.64-6.253C4.8-6.253,5.1-5.382,5.1-4.472,2.093-4.134.754-3.367.754-1.833A1.914,1.914,0,0,0,2.821.169ZM3.159-.78c-.7,0-1.248-.325-1.248-1.131,0-.91.806-1.495,3.185-1.781v1.976A2.885,2.885,0,0,1,3.159-.78Z" transform="translate(109.649 80.69)"/>
    <text id="_2" data-name=" " class="cls-15" transform="translate(117.111 80.69)"><tspan x="0" y="0"> </tspan></text>
    <path id="패스_9544" data-name="패스 9544" class="cls-10" d="M2.483-3.874,2.951-5.33c.338-1.079.65-2.106.949-3.224h.052c.312,1.1.611,2.145.962,3.224l.455,1.456ZM6.578,0H7.852L4.615-9.529H3.276L.039,0H1.261l.923-2.912H5.668Z" transform="translate(120.815 80.69)"/>
    <path id="패스_9545" data-name="패스 9545" class="cls-10" d="M1.2,0H2.379V-5.122A2.685,2.685,0,0,1,4.316-6.2c.936,0,1.339.559,1.339,1.885V0H6.838V-4.472c0-1.807-.676-2.769-2.158-2.769a3.385,3.385,0,0,0-2.366,1.2H2.275l-.1-1.014H1.2Zm9.373.169a3.782,3.782,0,0,0,2.34-1.014h.039l.1.845h.975V-4.342c0-1.742-.728-2.9-2.444-2.9A5.31,5.31,0,0,0,8.8-6.318l.468.819a3.889,3.889,0,0,1,2.119-.754c1.157,0,1.456.871,1.456,1.781C9.841-4.134,8.5-3.367,8.5-1.833A1.914,1.914,0,0,0,10.569.169Zm.338-.949c-.7,0-1.248-.325-1.248-1.131,0-.91.806-1.495,3.185-1.781v1.976A2.885,2.885,0,0,1,10.907-.78Zm6.422.949a1.869,1.869,0,0,0,.689-.1l-.169-.91a1.038,1.038,0,0,1-.247.026c-.182,0-.338-.143-.338-.507v-9.022H16.081V-1.4C16.081-.4,16.445.169,17.329.169Zm2.379,2.873c1.4,0,2.132-1.066,2.626-2.457L25-7.059H23.842L22.581-3.133c-.195.624-.4,1.339-.6,1.976h-.065c-.221-.637-.468-1.365-.676-1.976L19.8-7.059H18.564L21.4.013l-.156.533c-.286.871-.793,1.521-1.6,1.521a1.687,1.687,0,0,1-.533-.117l-.234.949A2.173,2.173,0,0,0,19.708,3.042ZM28.015.169c1.664,0,2.574-.949,2.574-2.093,0-1.339-1.131-1.755-2.158-2.145-.793-.3-1.56-.546-1.56-1.222,0-.546.4-1.014,1.287-1.014a2.656,2.656,0,0,1,1.625.624l.572-.767a3.658,3.658,0,0,0-2.2-.793c-1.534,0-2.431.884-2.431,2,0,1.2,1.118,1.677,2.106,2.041.78.3,1.612.624,1.612,1.339,0,.611-.455,1.105-1.391,1.105a3.2,3.2,0,0,1-2.093-.832l-.585.78A4.258,4.258,0,0,0,28.015.169ZM32.058,0h1.183V-7.059H32.058Zm.6-8.515a.773.773,0,0,0,.819-.767.751.751,0,0,0-.819-.767.751.751,0,0,0-.819.767A.773.773,0,0,0,32.656-8.515ZM37.284.169c1.664,0,2.574-.949,2.574-2.093,0-1.339-1.131-1.755-2.158-2.145-.793-.3-1.56-.546-1.56-1.222,0-.546.4-1.014,1.287-1.014a2.656,2.656,0,0,1,1.625.624l.572-.767a3.658,3.658,0,0,0-2.2-.793c-1.534,0-2.431.884-2.431,2,0,1.2,1.118,1.677,2.106,2.041.78.3,1.612.624,1.612,1.339,0,.611-.455,1.105-1.391,1.105a3.2,3.2,0,0,1-2.093-.832l-.585.78A4.258,4.258,0,0,0,37.284.169Z" transform="translate(128.934 80.69)"/>
    <path id="패스_9551" data-name="패스 9551" class="cls-12" d="M1.3,0H3.744C6.617,0,8.19-1.781,8.19-4.8s-1.573-4.732-4.5-4.732H1.3ZM2.509-.988V-8.554H3.588c2.249,0,3.354,1.339,3.354,3.757S5.837-.988,3.588-.988ZM12.974.169a4.2,4.2,0,0,0,2.34-.728l-.429-.78a3.043,3.043,0,0,1-1.768.559,2.339,2.339,0,0,1-2.34-2.47h4.758a4.618,4.618,0,0,0,.052-.676c0-2.015-1.014-3.315-2.808-3.315A3.414,3.414,0,0,0,9.594-3.523,3.374,3.374,0,0,0,12.974.169Zm-2.21-4.264a2.172,2.172,0,0,1,2.028-2.2c1.1,0,1.755.767,1.755,2.2ZM17.329,0h1.183V-5.122A2.607,2.607,0,0,1,20.293-6.2c.9,0,1.313.559,1.313,1.885V0h1.183V-5.122A2.607,2.607,0,0,1,24.57-6.2c.9,0,1.313.559,1.313,1.885V0h1.183V-4.472c0-1.807-.689-2.769-2.145-2.769a3.337,3.337,0,0,0-2.327,1.352,1.862,1.862,0,0,0-1.95-1.352,3.1,3.1,0,0,0-2.2,1.209h-.039l-.1-1.027h-.975ZM30.992.169a3.782,3.782,0,0,0,2.34-1.014h.039l.1.845h.975V-4.342c0-1.742-.728-2.9-2.444-2.9a5.31,5.31,0,0,0-2.782.923l.468.819a3.889,3.889,0,0,1,2.119-.754c1.157,0,1.456.871,1.456,1.781-3,.338-4.342,1.105-4.342,2.639A1.914,1.914,0,0,0,30.992.169ZM31.33-.78c-.7,0-1.248-.325-1.248-1.131,0-.91.806-1.495,3.185-1.781v1.976A2.885,2.885,0,0,1,31.33-.78ZM36.7,0h1.183V-5.122A2.685,2.685,0,0,1,39.819-6.2c.936,0,1.339.559,1.339,1.885V0h1.183V-4.472c0-1.807-.676-2.769-2.158-2.769a3.385,3.385,0,0,0-2.366,1.2h-.039l-.1-1.014H36.7ZM47.047.169a3.149,3.149,0,0,0,2.145-1h.026L49.335,0H50.3V-10.348H49.114v2.717l.065,1.222a2.872,2.872,0,0,0-1.989-.832c-1.612,0-3.055,1.43-3.055,3.718C44.135-1.17,45.279.169,47.047.169Zm.26-.988c-1.248,0-1.95-1.014-1.95-2.717,0-1.612.9-2.7,2.041-2.7a2.478,2.478,0,0,1,1.716.741v3.705A2.426,2.426,0,0,1,47.307-.819ZM58.461.169A4.2,4.2,0,0,0,60.8-.559l-.429-.78A3.043,3.043,0,0,1,58.6-.78a2.339,2.339,0,0,1-2.34-2.47h4.758a4.618,4.618,0,0,0,.052-.676c0-2.015-1.014-3.315-2.808-3.315a3.414,3.414,0,0,0-3.185,3.718A3.374,3.374,0,0,0,58.461.169Zm-2.21-4.264a2.172,2.172,0,0,1,2.028-2.2c1.1,0,1.755.767,1.755,2.2ZM61.711,0h1.248l.949-1.651c.247-.429.481-.858.728-1.261H64.7c.26.4.52.832.754,1.261L66.495,0h1.3L65.468-3.562l2.145-3.5H66.378L65.507-5.5c-.208.39-.416.78-.637,1.17h-.052c-.234-.39-.481-.78-.7-1.17l-.949-1.56H61.893l2.145,3.38Zm7.475,2.977h1.183V.585L70.343-.65a3.185,3.185,0,0,0,1.95.819c1.625,0,3.068-1.391,3.068-3.809,0-2.171-.988-3.6-2.808-3.6a3.764,3.764,0,0,0-2.249.988h-.039l-.1-.806h-.975ZM72.1-.819a2.736,2.736,0,0,1-1.729-.741v-3.7a2.943,2.943,0,0,1,1.9-.975c1.339,0,1.859,1.053,1.859,2.613C74.126-1.872,73.268-.819,72.1-.819Zm6.4.988a1.869,1.869,0,0,0,.689-.1l-.169-.91a1.038,1.038,0,0,1-.247.026c-.182,0-.338-.143-.338-.507v-9.022H77.246V-1.4C77.246-.4,77.61.169,78.494.169Zm4.082,0a3.782,3.782,0,0,0,2.34-1.014h.039l.1.845h.975V-4.342c0-1.742-.728-2.9-2.444-2.9a5.31,5.31,0,0,0-2.782.923l.468.819a3.889,3.889,0,0,1,2.119-.754c1.157,0,1.456.871,1.456,1.781-3,.338-4.342,1.105-4.342,2.639A1.914,1.914,0,0,0,82.576.169Zm.338-.949c-.7,0-1.248-.325-1.248-1.131,0-.91.806-1.495,3.185-1.781v1.976A2.885,2.885,0,0,1,82.914-.78ZM88.283,0h1.183V-5.122A2.685,2.685,0,0,1,91.4-6.2c.936,0,1.339.559,1.339,1.885V0h1.183V-4.472c0-1.807-.676-2.769-2.158-2.769a3.385,3.385,0,0,0-2.366,1.2h-.039l-.1-1.014h-.975Zm9.568.169a3.782,3.782,0,0,0,2.34-1.014h.039l.1.845h.975V-4.342c0-1.742-.728-2.9-2.444-2.9a5.31,5.31,0,0,0-2.782.923l.468.819a3.889,3.889,0,0,1,2.119-.754c1.157,0,1.456.871,1.456,1.781-3,.338-4.342,1.105-4.342,2.639A1.914,1.914,0,0,0,97.851.169Zm.338-.949c-.7,0-1.248-.325-1.248-1.131,0-.91.806-1.495,3.185-1.781v1.976A2.885,2.885,0,0,1,98.189-.78Zm7.4.949a4.444,4.444,0,0,0,1.3-.26l-.234-.884a2.5,2.5,0,0,1-.806.182c-.819,0-1.092-.494-1.092-1.365V-6.1h1.911v-.962h-1.911V-9.035h-.988l-.143,1.976-1.105.065v.9h1.053v3.913C103.571-.767,104.078.169,105.586.169ZM108.264,0h1.183V-7.059h-1.183Zm.6-8.515a.773.773,0,0,0,.819-.767.751.751,0,0,0-.819-.767.751.751,0,0,0-.819.767A.773.773,0,0,0,108.862-8.515Zm5.72,8.684a3.37,3.37,0,0,0,3.276-3.692c0-2.353-1.547-3.718-3.276-3.718s-3.276,1.365-3.276,3.718A3.37,3.37,0,0,0,114.582.169Zm0-.988c-1.222,0-2.041-1.079-2.041-2.7s.819-2.73,2.041-2.73,2.054,1.105,2.054,2.73S115.8-.819,114.582-.819ZM119.717,0H120.9V-5.122A2.685,2.685,0,0,1,122.837-6.2c.936,0,1.339.559,1.339,1.885V0h1.183V-4.472c0-1.807-.676-2.769-2.158-2.769a3.385,3.385,0,0,0-2.366,1.2H120.8l-.1-1.014h-.975ZM134-10.283a3.1,3.1,0,0,0-1.183-.234c-1.4,0-2.054.9-2.054,2.327v1.131l-.962.065v.9h.962V0h1.183V-6.1h1.495v-.962H131.95V-8.177c0-.91.325-1.391,1-1.391a2,2,0,0,1,.793.182ZM137.4.169a3.37,3.37,0,0,0,3.276-3.692c0-2.353-1.547-3.718-3.276-3.718s-3.276,1.365-3.276,3.718A3.37,3.37,0,0,0,137.4.169Zm0-.988c-1.222,0-2.041-1.079-2.041-2.7s.819-2.73,2.041-2.73,2.054,1.105,2.054,2.73S138.619-.819,137.4-.819ZM142.532,0h1.183V-4.537c.468-1.209,1.2-1.625,1.781-1.625a1.67,1.67,0,0,1,.689.117l.221-1.04a1.5,1.5,0,0,0-.754-.156,2.437,2.437,0,0,0-2,1.469h-.039l-.1-1.287h-.975Zm9.581.169a3.782,3.782,0,0,0,2.34-1.014h.039l.1.845h.975V-4.342c0-1.742-.728-2.9-2.444-2.9a5.31,5.31,0,0,0-2.782.923l.468.819a3.889,3.889,0,0,1,2.119-.754c1.157,0,1.456.871,1.456,1.781-3,.338-4.342,1.105-4.342,2.639A1.914,1.914,0,0,0,152.113.169Zm.338-.949c-.7,0-1.248-.325-1.248-1.131,0-.91.806-1.495,3.185-1.781v1.976A2.885,2.885,0,0,1,152.451-.78ZM157.82,0H159V-5.122A2.685,2.685,0,0,1,160.94-6.2c.936,0,1.339.559,1.339,1.885V0h1.183V-4.472c0-1.807-.676-2.769-2.158-2.769a3.385,3.385,0,0,0-2.366,1.2H158.9l-.1-1.014h-.975Zm10.686.169a3.37,3.37,0,0,0,3.276-3.692c0-2.353-1.547-3.718-3.276-3.718s-3.276,1.365-3.276,3.718A3.37,3.37,0,0,0,168.506.169Zm0-.988c-1.222,0-2.041-1.079-2.041-2.7s.819-2.73,2.041-2.73,2.054,1.105,2.054,2.73S169.728-.819,168.506-.819ZM173.641,0h1.183V-5.122A2.607,2.607,0,0,1,176.605-6.2c.9,0,1.313.559,1.313,1.885V0H179.1V-5.122A2.607,2.607,0,0,1,180.882-6.2c.9,0,1.313.559,1.313,1.885V0h1.183V-4.472c0-1.807-.689-2.769-2.145-2.769a3.337,3.337,0,0,0-2.327,1.352,1.862,1.862,0,0,0-1.95-1.352,3.1,3.1,0,0,0-2.2,1.209h-.039l-.1-1.027h-.975ZM187.3.169a3.782,3.782,0,0,0,2.34-1.014h.039l.1.845h.975V-4.342c0-1.742-.728-2.9-2.444-2.9a5.31,5.31,0,0,0-2.782.923L186-5.5a3.889,3.889,0,0,1,2.119-.754c1.157,0,1.456.871,1.456,1.781-3,.338-4.342,1.105-4.342,2.639A1.914,1.914,0,0,0,187.3.169Zm.338-.949c-.7,0-1.248-.325-1.248-1.131,0-.91.806-1.495,3.185-1.781v1.976A2.885,2.885,0,0,1,187.642-.78Zm6.617.949a1.869,1.869,0,0,0,.689-.1l-.169-.91a1.039,1.039,0,0,1-.247.026c-.182,0-.338-.143-.338-.507v-9.022h-1.183V-1.4C193.011-.4,193.375.169,194.259.169Zm2.574,2.873c1.4,0,2.132-1.066,2.626-2.457l2.665-7.644h-1.157l-1.261,3.926c-.2.624-.4,1.339-.6,1.976h-.065c-.221-.637-.468-1.365-.676-1.976l-1.443-3.926h-1.235L198.523.013l-.156.533c-.286.871-.793,1.521-1.6,1.521a1.687,1.687,0,0,1-.533-.117L196,2.9A2.173,2.173,0,0,0,196.833,3.042Z" transform="translate(316.09 80.69)"/>
    <path id="패스_9524" data-name="패스 9524" class="cls-11" d="M288.548-131.437h258.9v-34.5h-258.9Z" transform="translate(-0.25 223.438)"/>
    <path id="패스_9560" data-name="패스 9560" class="cls-12" d="M1.3,0H2.509V-4.277h3.64V-5.291H2.509V-8.515H6.8V-9.529H1.3ZM8.112,0H9.3V-7.059H8.112Zm.6-8.515a.773.773,0,0,0,.819-.767.751.751,0,0,0-.819-.767.751.751,0,0,0-.819.767A.773.773,0,0,0,8.71-8.515ZM14.274.169a4.2,4.2,0,0,0,2.34-.728l-.429-.78a3.043,3.043,0,0,1-1.768.559,2.339,2.339,0,0,1-2.34-2.47h4.758a4.618,4.618,0,0,0,.052-.676c0-2.015-1.014-3.315-2.808-3.315a3.414,3.414,0,0,0-3.185,3.718A3.374,3.374,0,0,0,14.274.169Zm-2.21-4.264a2.172,2.172,0,0,1,2.028-2.2c1.105,0,1.755.767,1.755,2.2ZM19.617.169a1.869,1.869,0,0,0,.689-.1l-.169-.91a1.038,1.038,0,0,1-.247.026c-.182,0-.338-.143-.338-.507v-9.022H18.369V-1.4C18.369-.4,18.733.169,19.617.169Zm4.6,0a3.149,3.149,0,0,0,2.145-1h.026L26.507,0h.962V-10.348H26.286v2.717l.065,1.222a2.872,2.872,0,0,0-1.989-.832c-1.612,0-3.055,1.43-3.055,3.718C21.307-1.17,22.451.169,24.219.169Zm.26-.988c-1.248,0-1.95-1.014-1.95-2.717,0-1.612.9-2.7,2.041-2.7a2.478,2.478,0,0,1,1.716.741v3.705A2.426,2.426,0,0,1,24.479-.819ZM30.732,0h1.391l.988-3.783c.182-.676.325-1.339.481-2.054h.065c.169.715.3,1.365.481,2.028L35.165,0H36.6l1.9-7.059H37.375l-1.04,4.082c-.156.676-.286,1.313-.442,1.976h-.052c-.169-.663-.325-1.3-.494-1.976l-1.1-4.082H33.085L31.993-2.977c-.182.663-.325,1.313-.481,1.976h-.065c-.13-.663-.273-1.3-.416-1.976L29.978-7.059H28.769ZM42.471.169a3.37,3.37,0,0,0,3.276-3.692c0-2.353-1.547-3.718-3.276-3.718s-3.276,1.365-3.276,3.718A3.37,3.37,0,0,0,42.471.169Zm0-.988c-1.222,0-2.041-1.079-2.041-2.7s.819-2.73,2.041-2.73,2.054,1.105,2.054,2.73S43.693-.819,42.471-.819ZM47.346,0h1.183V-4.537c.468-1.209,1.2-1.625,1.781-1.625A1.67,1.67,0,0,1,51-6.045l.221-1.04a1.5,1.5,0,0,0-.754-.156,2.437,2.437,0,0,0-2,1.469h-.039l-.1-1.287h-.975ZM52.13,0H53.3V-1.859l1.326-1.547L56.693,0H57.98L55.3-4.225l2.366-2.834H56.355L53.326-3.328H53.3v-7.02H52.13Z" transform="translate(678.524 81.35)"/>
    <path id="패스_9525" data-name="패스 9525" class="cls-11" d="M576.847-131.437h258.9v-34.5h-258.9Z" transform="translate(-0.25 223.438)"/>
    <path id="패스_9561" data-name="패스 9561" class="cls-12" d="M1.3,0H2.509V-9.529H1.3ZM7.41.169a3.149,3.149,0,0,0,2.145-1h.026L9.7,0h.962V-10.348H9.477v2.717l.065,1.222a2.872,2.872,0,0,0-1.989-.832C5.941-7.241,4.5-5.811,4.5-3.523,4.5-1.17,5.642.169,7.41.169Zm.26-.988c-1.248,0-1.95-1.014-1.95-2.717,0-1.612.9-2.7,2.041-2.7A2.478,2.478,0,0,1,9.477-5.5v3.705A2.426,2.426,0,0,1,7.67-.819Zm8.242.988a4.2,4.2,0,0,0,2.34-.728l-.429-.78a3.043,3.043,0,0,1-1.768.559,2.339,2.339,0,0,1-2.34-2.47h4.758a4.618,4.618,0,0,0,.052-.676c0-2.015-1.014-3.315-2.808-3.315a3.414,3.414,0,0,0-3.185,3.718A3.374,3.374,0,0,0,15.912.169ZM13.7-4.095a2.172,2.172,0,0,1,2.028-2.2c1.105,0,1.755.767,1.755,2.2ZM20.267,0H21.45V-5.122A2.685,2.685,0,0,1,23.387-6.2c.936,0,1.339.559,1.339,1.885V0h1.183V-4.472c0-1.807-.676-2.769-2.158-2.769a3.385,3.385,0,0,0-2.366,1.2h-.039l-.1-1.014h-.975ZM30.433.169a4.444,4.444,0,0,0,1.3-.26L31.5-.975a2.5,2.5,0,0,1-.806.182c-.819,0-1.092-.494-1.092-1.365V-6.1h1.911v-.962H29.6V-9.035h-.988L28.47-7.059l-1.1.065v.9h1.053v3.913C28.418-.767,28.925.169,30.433.169ZM33.111,0h1.183V-7.059H33.111Zm.6-8.515a.773.773,0,0,0,.819-.767.751.751,0,0,0-.819-.767.751.751,0,0,0-.819.767A.773.773,0,0,0,33.709-8.515Zm6.409-1.768a3.094,3.094,0,0,0-1.183-.234c-1.4,0-2.054.9-2.054,2.327v1.131l-.962.065v.9h.962V0h1.183V-6.1h1.495v-.962H38.064V-8.177c0-.91.325-1.391,1-1.391a2,2,0,0,1,.793.182Z" transform="translate(598.992 131.242)"/>
    <path id="패스_9562" data-name="패스 9562" class="cls-12" d="M1.313,3.042c1.4,0,2.132-1.066,2.626-2.457L6.6-7.059H5.447L4.186-3.133c-.195.624-.4,1.339-.6,1.976H3.523c-.221-.637-.468-1.365-.676-1.976L1.4-7.059H.169L3,.013,2.847.546c-.286.871-.793,1.521-1.6,1.521A1.687,1.687,0,0,1,.715,1.95L.481,2.9A2.173,2.173,0,0,0,1.313,3.042ZM12.4,0H13.78l2.509-7.059h-1.17L13.78-3.042c-.208.689-.442,1.417-.65,2.08h-.052c-.221-.663-.442-1.391-.663-2.08L11.089-7.059H9.854Zm7.306.169a3.028,3.028,0,0,0,2.34-1.274h.039L22.178,0h.988V-7.059H21.983v5c-.676.845-1.183,1.2-1.911,1.2-.936,0-1.326-.559-1.326-1.872V-7.059H17.563v4.472C17.563-.793,18.226.169,19.708.169Zm7.085,0a1.869,1.869,0,0,0,.689-.1l-.169-.91a1.038,1.038,0,0,1-.247.026c-.182,0-.338-.143-.338-.507v-9.022H25.545V-1.4C25.545-.4,25.909.169,26.793.169ZM29.25,0h1.183V-5.122A2.685,2.685,0,0,1,32.37-6.2c.936,0,1.339.559,1.339,1.885V0h1.183V-4.472c0-1.807-.676-2.769-2.158-2.769a3.385,3.385,0,0,0-2.366,1.2h-.039l-.1-1.014H29.25ZM40.04.169a4.2,4.2,0,0,0,2.34-.728l-.429-.78a3.043,3.043,0,0,1-1.768.559,2.339,2.339,0,0,1-2.34-2.47H42.6a4.618,4.618,0,0,0,.052-.676c0-2.015-1.014-3.315-2.808-3.315A3.414,3.414,0,0,0,36.66-3.523,3.374,3.374,0,0,0,40.04.169ZM37.83-4.095a2.172,2.172,0,0,1,2.028-2.2c1.1,0,1.755.767,1.755,2.2ZM44.4,0h1.183V-4.537c.468-1.209,1.2-1.625,1.781-1.625a1.67,1.67,0,0,1,.689.117l.221-1.04a1.5,1.5,0,0,0-.754-.156,2.437,2.437,0,0,0-2,1.469h-.039l-.1-1.287H44.4Zm6.318.169a3.782,3.782,0,0,0,2.34-1.014h.039L53.2,0h.975V-4.342c0-1.742-.728-2.9-2.444-2.9a5.31,5.31,0,0,0-2.782.923l.468.819a3.889,3.889,0,0,1,2.119-.754c1.157,0,1.456.871,1.456,1.781-3,.338-4.342,1.105-4.342,2.639A1.914,1.914,0,0,0,50.713.169Zm.338-.949c-.7,0-1.248-.325-1.248-1.131,0-.91.806-1.495,3.185-1.781v1.976A2.885,2.885,0,0,1,51.051-.78Zm8.476.949c1.625,0,3.068-1.391,3.068-3.822,0-2.158-.988-3.588-2.821-3.588a3.556,3.556,0,0,0-2.21,1L57.6-7.514v-2.834H56.42V0h.949l.1-.728h.039A3.127,3.127,0,0,0,59.527.169Zm-.195-.988A2.709,2.709,0,0,1,57.6-1.56v-3.7a2.915,2.915,0,0,1,1.9-.975c1.339,0,1.859,1.053,1.859,2.613C61.36-1.872,60.5-.819,59.332-.819ZM64.454,0h1.183V-7.059H64.454Zm.6-8.515a.773.773,0,0,0,.819-.767.751.751,0,0,0-.819-.767.751.751,0,0,0-.819.767A.773.773,0,0,0,65.052-8.515Z" transform="translate(639.281 131.242)"/>
    <path id="패스_9563" data-name="패스 9563" class="cls-12" d="M2.444.169a1.869,1.869,0,0,0,.689-.1l-.169-.91a1.038,1.038,0,0,1-.247.026c-.182,0-.338-.143-.338-.507v-9.022H1.2V-1.4C1.2-.4,1.56.169,2.444.169Z" transform="translate(706.531 131.242)"/>
    <path id="패스_9564" data-name="패스 9564" class="cls-12" d="M1.2,0H2.379V-7.059H1.2Zm.6-8.515a.773.773,0,0,0,.819-.767.751.751,0,0,0-.819-.767.751.751,0,0,0-.819.767A.773.773,0,0,0,1.794-8.515ZM6.994.169a4.444,4.444,0,0,0,1.3-.26L8.06-.975a2.5,2.5,0,0,1-.806.182c-.819,0-1.092-.494-1.092-1.365V-6.1H8.073v-.962H6.162V-9.035H5.174L5.031-7.059l-1.105.065v.9H4.979v3.913C4.979-.767,5.486.169,6.994.169Z" transform="translate(711.104 131.242)"/>
    <path id="패스_9565" data-name="패스 9565" class="cls-12" d="M1.313,3.042c1.4,0,2.132-1.066,2.626-2.457L6.6-7.059H5.447L4.186-3.133c-.195.624-.4,1.339-.6,1.976H3.523c-.221-.637-.468-1.365-.676-1.976L1.4-7.059H.169L3,.013,2.847.546c-.286.871-.793,1.521-1.6,1.521A1.687,1.687,0,0,1,.715,1.95L.481,2.9A2.173,2.173,0,0,0,1.313,3.042ZM12.506.169a3.782,3.782,0,0,0,2.34-1.014h.039l.1.845h.975V-4.342c0-1.742-.728-2.9-2.444-2.9a5.31,5.31,0,0,0-2.782.923l.468.819a3.889,3.889,0,0,1,2.119-.754c1.157,0,1.456.871,1.456,1.781-3,.338-4.342,1.105-4.342,2.639A1.914,1.914,0,0,0,12.506.169Zm.338-.949c-.7,0-1.248-.325-1.248-1.131,0-.91.806-1.495,3.185-1.781v1.976A2.885,2.885,0,0,1,12.844-.78ZM18.213,0H19.4V-5.122A2.685,2.685,0,0,1,21.333-6.2c.936,0,1.339.559,1.339,1.885V0h1.183V-4.472c0-1.807-.676-2.769-2.158-2.769a3.385,3.385,0,0,0-2.366,1.2h-.039l-.1-1.014h-.975ZM28.561.169a3.149,3.149,0,0,0,2.145-1h.026L30.849,0h.962V-10.348H30.628v2.717l.065,1.222A2.872,2.872,0,0,0,28.7-7.241c-1.612,0-3.055,1.43-3.055,3.718C25.649-1.17,26.793.169,28.561.169Zm.26-.988c-1.248,0-1.95-1.014-1.95-2.717,0-1.612.9-2.7,2.041-2.7a2.478,2.478,0,0,1,1.716.741v3.705A2.426,2.426,0,0,1,28.821-.819ZM39.975.169a4.2,4.2,0,0,0,2.34-.728l-.429-.78a3.043,3.043,0,0,1-1.768.559,2.339,2.339,0,0,1-2.34-2.47h4.758a4.618,4.618,0,0,0,.052-.676c0-2.015-1.014-3.315-2.808-3.315a3.414,3.414,0,0,0-3.185,3.718A3.374,3.374,0,0,0,39.975.169Zm-2.21-4.264a2.172,2.172,0,0,1,2.028-2.2c1.1,0,1.755.767,1.755,2.2ZM46.176.169c1.664,0,2.574-.949,2.574-2.093,0-1.339-1.131-1.755-2.158-2.145-.793-.3-1.56-.546-1.56-1.222,0-.546.4-1.014,1.287-1.014a2.656,2.656,0,0,1,1.625.624l.572-.767a3.658,3.658,0,0,0-2.2-.793c-1.534,0-2.431.884-2.431,2,0,1.2,1.118,1.677,2.106,2.041.78.3,1.612.624,1.612,1.339,0,.611-.455,1.105-1.391,1.105a3.2,3.2,0,0,1-2.093-.832l-.585.78A4.258,4.258,0,0,0,46.176.169Zm6.175,0a4.444,4.444,0,0,0,1.3-.26l-.234-.884a2.5,2.5,0,0,1-.806.182c-.819,0-1.092-.494-1.092-1.365V-6.1H53.43v-.962H51.519V-9.035h-.988l-.143,1.976-1.1.065v.9h1.053v3.913C50.336-.767,50.843.169,52.351.169Zm3.991,0a3.782,3.782,0,0,0,2.34-1.014h.039l.1.845H59.8V-4.342c0-1.742-.728-2.9-2.444-2.9a5.31,5.31,0,0,0-2.782.923l.468.819a3.889,3.889,0,0,1,2.119-.754c1.157,0,1.456.871,1.456,1.781-3,.338-4.342,1.105-4.342,2.639A1.914,1.914,0,0,0,56.342.169ZM56.68-.78c-.7,0-1.248-.325-1.248-1.131,0-.91.806-1.495,3.185-1.781v1.976A2.885,2.885,0,0,1,56.68-.78Zm8.476.949c1.625,0,3.068-1.391,3.068-3.822,0-2.158-.988-3.588-2.821-3.588a3.556,3.556,0,0,0-2.21,1l.039-1.274v-2.834H62.049V0H63l.1-.728h.039A3.127,3.127,0,0,0,65.156.169Zm-.195-.988a2.709,2.709,0,0,1-1.729-.741v-3.7a2.915,2.915,0,0,1,1.9-.975c1.339,0,1.859,1.053,1.859,2.613C66.989-1.872,66.131-.819,64.961-.819Zm6.37.988a1.869,1.869,0,0,0,.689-.1l-.169-.91a1.038,1.038,0,0,1-.247.026c-.182,0-.338-.143-.338-.507v-9.022H70.083V-1.4C70.083-.4,70.447.169,71.331.169Z" transform="translate(719.966 131.242)"/>
    <path id="패스_9566" data-name="패스 9566" class="cls-12" d="M1.2,0H2.379V-7.059H1.2Zm.6-8.515a.773.773,0,0,0,.819-.767.751.751,0,0,0-.819-.767.751.751,0,0,0-.819.767A.773.773,0,0,0,1.794-8.515ZM6.617.169c1.664,0,2.574-.949,2.574-2.093,0-1.339-1.131-1.755-2.158-2.145-.793-.3-1.56-.546-1.56-1.222,0-.546.4-1.014,1.287-1.014a2.656,2.656,0,0,1,1.625.624l.572-.767a3.658,3.658,0,0,0-2.2-.793c-1.534,0-2.431.884-2.431,2,0,1.2,1.118,1.677,2.106,2.041.78.3,1.612.624,1.612,1.339,0,.611-.455,1.105-1.391,1.105a3.2,3.2,0,0,1-2.093-.832l-.585.78A4.258,4.258,0,0,0,6.617.169ZM10.855,0h1.183V-5.122A2.685,2.685,0,0,1,13.975-6.2c.936,0,1.339.559,1.339,1.885V0H16.5V-4.472c0-1.807-.676-2.769-2.158-2.769A3.314,3.314,0,0,0,12-6.058l.039-1.456v-2.834H10.855Z" transform="translate(792.479 131.242)"/>
    <path id="패스_9567" data-name="패스 9567" class="cls-12" d="M1.2,2.977H2.379V.585L2.353-.65A3.185,3.185,0,0,0,4.3.169c1.625,0,3.068-1.391,3.068-3.809,0-2.171-.988-3.6-2.808-3.6a3.764,3.764,0,0,0-2.249.988H2.275l-.1-.806H1.2Zm2.912-3.8A2.736,2.736,0,0,1,2.379-1.56v-3.7a2.943,2.943,0,0,1,1.9-.975c1.339,0,1.859,1.053,1.859,2.613C6.136-1.872,5.278-.819,4.108-.819ZM9.152,0h1.183V-4.537c.468-1.209,1.2-1.625,1.781-1.625a1.67,1.67,0,0,1,.689.117l.221-1.04a1.5,1.5,0,0,0-.754-.156,2.437,2.437,0,0,0-2,1.469h-.039l-.1-1.287H9.152Zm7.54.169a3.37,3.37,0,0,0,3.276-3.692c0-2.353-1.547-3.718-3.276-3.718s-3.276,1.365-3.276,3.718A3.37,3.37,0,0,0,16.692.169Zm0-.988c-1.222,0-2.041-1.079-2.041-2.7s.819-2.73,2.041-2.73,2.054,1.105,2.054,2.73S17.914-.819,16.692-.819ZM23.7.169A4.444,4.444,0,0,0,25-.091l-.234-.884a2.5,2.5,0,0,1-.806.182c-.819,0-1.092-.494-1.092-1.365V-6.1h1.911v-.962H22.867V-9.035h-.988l-.143,1.976-1.1.065v.9h1.053v3.913C21.684-.767,22.191.169,23.7.169Zm5.226,0a4.2,4.2,0,0,0,2.34-.728l-.429-.78a3.043,3.043,0,0,1-1.768.559,2.339,2.339,0,0,1-2.34-2.47h4.758a4.618,4.618,0,0,0,.052-.676c0-2.015-1.014-3.315-2.808-3.315a3.414,3.414,0,0,0-3.185,3.718A3.374,3.374,0,0,0,28.925.169Zm-2.21-4.264a2.172,2.172,0,0,1,2.028-2.2c1.1,0,1.755.767,1.755,2.2ZM35.958.169a3.366,3.366,0,0,0,2.275-.9l-.507-.793a2.489,2.489,0,0,1-1.664.7c-1.3,0-2.184-1.079-2.184-2.7s.936-2.73,2.21-2.73a2.049,2.049,0,0,1,1.417.637l.611-.793a3.018,3.018,0,0,0-2.067-.832,3.437,3.437,0,0,0-3.406,3.718C32.643-1.183,34.086.169,35.958.169Z" transform="translate(646.416 149.237)"/>
    <path id="패스_9568" data-name="패스 9568" class="cls-12" d="M3.419.169a4.444,4.444,0,0,0,1.3-.26L4.485-.975a2.5,2.5,0,0,1-.806.182c-.819,0-1.092-.494-1.092-1.365V-6.1H4.5v-.962H2.587V-9.035H1.6L1.456-7.059.351-6.994v.9H1.4v3.913C1.4-.767,1.911.169,3.419.169ZM5.993,0H7.176V-7.059H5.993Zm.6-8.515a.773.773,0,0,0,.819-.767.751.751,0,0,0-.819-.767.751.751,0,0,0-.819.767A.773.773,0,0,0,6.591-8.515ZM12.207.169a3.37,3.37,0,0,0,3.276-3.692c0-2.353-1.547-3.718-3.276-3.718S8.931-5.876,8.931-3.523A3.37,3.37,0,0,0,12.207.169Zm0-.988c-1.222,0-2.041-1.079-2.041-2.7s.819-2.73,2.041-2.73,2.054,1.105,2.054,2.73S13.429-.819,12.207-.819ZM17.238,0h1.183V-5.122A2.685,2.685,0,0,1,20.358-6.2c.936,0,1.339.559,1.339,1.885V0H22.88V-4.472c0-1.807-.676-2.769-2.158-2.769a3.385,3.385,0,0,0-2.366,1.2h-.039l-.1-1.014h-.975ZM27.885,0h1.183V-5.122A2.607,2.607,0,0,1,30.849-6.2c.9,0,1.313.559,1.313,1.885V0h1.183V-5.122A2.607,2.607,0,0,1,35.126-6.2c.9,0,1.313.559,1.313,1.885V0h1.183V-4.472c0-1.807-.689-2.769-2.145-2.769A3.337,3.337,0,0,0,33.15-5.889,1.862,1.862,0,0,0,31.2-7.241,3.1,3.1,0,0,0,29-6.032h-.039l-.1-1.027h-.975ZM42.666.169a4.2,4.2,0,0,0,2.34-.728l-.429-.78a3.043,3.043,0,0,1-1.768.559,2.339,2.339,0,0,1-2.34-2.47h4.758a4.618,4.618,0,0,0,.052-.676c0-2.015-1.014-3.315-2.808-3.315a3.414,3.414,0,0,0-3.185,3.718A3.374,3.374,0,0,0,42.666.169Zm-2.21-4.264a2.172,2.172,0,0,1,2.028-2.2c1.1,0,1.755.767,1.755,2.2ZM48.334.169a3.782,3.782,0,0,0,2.34-1.014h.039l.1.845h.975V-4.342c0-1.742-.728-2.9-2.444-2.9a5.31,5.31,0,0,0-2.782.923l.468.819a3.889,3.889,0,0,1,2.119-.754c1.157,0,1.456.871,1.456,1.781-3,.338-4.342,1.105-4.342,2.639A1.914,1.914,0,0,0,48.334.169Zm.338-.949c-.7,0-1.248-.325-1.248-1.131,0-.91.806-1.495,3.185-1.781v1.976A2.885,2.885,0,0,1,48.672-.78Zm7.111.949c1.664,0,2.574-.949,2.574-2.093,0-1.339-1.131-1.755-2.158-2.145-.793-.3-1.56-.546-1.56-1.222,0-.546.4-1.014,1.287-1.014a2.656,2.656,0,0,1,1.625.624l.572-.767a3.658,3.658,0,0,0-2.2-.793c-1.534,0-2.431.884-2.431,2,0,1.2,1.118,1.677,2.106,2.041.78.3,1.612.624,1.612,1.339,0,.611-.455,1.105-1.391,1.105a3.2,3.2,0,0,1-2.093-.832l-.585.78A4.258,4.258,0,0,0,55.783.169Zm6.188,0a3.028,3.028,0,0,0,2.34-1.274h.039L64.441,0h.988V-7.059H64.246v5c-.676.845-1.183,1.2-1.911,1.2-.936,0-1.326-.559-1.326-1.872V-7.059H59.826v4.472C59.826-.793,60.489.169,61.971.169ZM67.7,0h1.183V-4.537c.468-1.209,1.2-1.625,1.781-1.625a1.67,1.67,0,0,1,.689.117l.221-1.04a1.5,1.5,0,0,0-.754-.156,2.437,2.437,0,0,0-2,1.469h-.039l-.1-1.287H67.7Zm7.644.169a4.2,4.2,0,0,0,2.34-.728l-.429-.78a3.043,3.043,0,0,1-1.768.559,2.339,2.339,0,0,1-2.34-2.47h4.758a4.618,4.618,0,0,0,.052-.676c0-2.015-1.014-3.315-2.808-3.315a3.414,3.414,0,0,0-3.185,3.718A3.374,3.374,0,0,0,75.348.169Zm-2.21-4.264a2.172,2.172,0,0,1,2.028-2.2c1.105,0,1.755.767,1.755,2.2Z" transform="translate(685.491 149.237)"/>
    <path id="패스_9526" data-name="패스 9526" class="cls-11" d="M576.847-67.439h258.9v-43.5h-258.9Z" transform="translate(-0.25 223.438)"/>
    <path id="패스_9552" data-name="패스 9552" class="cls-12" d="M1.3,0H2.509V-9.529H1.3Z" transform="translate(318.389 129.247)"/>
    <path id="패스_9553" data-name="패스 9553" class="cls-12" d="M1.2,0H2.379V-5.122A2.607,2.607,0,0,1,4.16-6.2c.9,0,1.313.559,1.313,1.885V0H6.656V-5.122A2.607,2.607,0,0,1,8.437-6.2c.9,0,1.313.559,1.313,1.885V0h1.183V-4.472c0-1.807-.689-2.769-2.145-2.769A3.337,3.337,0,0,0,6.461-5.889a1.862,1.862,0,0,0-1.95-1.352,3.1,3.1,0,0,0-2.2,1.209H2.275l-.1-1.027H1.2ZM13.234,2.977h1.183V.585L14.391-.65a3.185,3.185,0,0,0,1.95.819c1.625,0,3.068-1.391,3.068-3.809,0-2.171-.988-3.6-2.808-3.6a3.764,3.764,0,0,0-2.249.988h-.039l-.1-.806h-.975Zm2.912-3.8a2.736,2.736,0,0,1-1.729-.741v-3.7a2.943,2.943,0,0,1,1.9-.975c1.339,0,1.859,1.053,1.859,2.613C18.174-1.872,17.316-.819,16.146-.819ZM21.294,0h1.183V-4.537c.468-1.209,1.2-1.625,1.781-1.625a1.67,1.67,0,0,1,.689.117l.221-1.04a1.5,1.5,0,0,0-.754-.156,2.437,2.437,0,0,0-2,1.469h-.039l-.1-1.287h-.975Zm7.644.169a3.37,3.37,0,0,0,3.276-3.692c0-2.353-1.547-3.718-3.276-3.718s-3.276,1.365-3.276,3.718A3.37,3.37,0,0,0,28.938.169Zm0-.988c-1.222,0-2.041-1.079-2.041-2.7s.819-2.73,2.041-2.73,2.054,1.105,2.054,2.73S30.16-.819,28.938-.819Z" transform="translate(322.055 129.247)"/>
    <path id="패스_9554" data-name="패스 9554" class="cls-12" d="M2.717,0H4.095L6.6-7.059H5.434L4.095-3.042c-.208.689-.442,1.417-.65,2.08H3.393c-.221-.663-.442-1.391-.663-2.08L1.4-7.059H.169Z" transform="translate(355.133 129.247)"/>
    <path id="패스_9555" data-name="패스 9555" class="cls-12" d="M4.043.169a4.2,4.2,0,0,0,2.34-.728l-.429-.78A3.043,3.043,0,0,1,4.186-.78a2.339,2.339,0,0,1-2.34-2.47H6.6a4.618,4.618,0,0,0,.052-.676c0-2.015-1.014-3.315-2.808-3.315A3.414,3.414,0,0,0,.663-3.523,3.374,3.374,0,0,0,4.043.169ZM1.833-4.095a2.172,2.172,0,0,1,2.028-2.2c1.105,0,1.755.767,1.755,2.2ZM8.4,0H9.581V-5.122A2.607,2.607,0,0,1,11.362-6.2c.9,0,1.313.559,1.313,1.885V0h1.183V-5.122A2.607,2.607,0,0,1,15.639-6.2c.9,0,1.313.559,1.313,1.885V0h1.183V-4.472c0-1.807-.689-2.769-2.145-2.769a3.337,3.337,0,0,0-2.327,1.352,1.862,1.862,0,0,0-1.95-1.352,3.1,3.1,0,0,0-2.2,1.209H9.477l-.1-1.027H8.4ZM23.283.169a4.2,4.2,0,0,0,2.34-.728l-.429-.78a3.043,3.043,0,0,1-1.768.559,2.339,2.339,0,0,1-2.34-2.47h4.758a4.618,4.618,0,0,0,.052-.676c0-2.015-1.014-3.315-2.808-3.315A3.414,3.414,0,0,0,19.9-3.523,3.374,3.374,0,0,0,23.283.169Zm-2.21-4.264a2.172,2.172,0,0,1,2.028-2.2c1.1,0,1.755.767,1.755,2.2ZM27.638,0h1.183V-5.122A2.685,2.685,0,0,1,30.758-6.2c.936,0,1.339.559,1.339,1.885V0H33.28V-4.472c0-1.807-.676-2.769-2.158-2.769a3.385,3.385,0,0,0-2.366,1.2h-.039l-.1-1.014h-.975ZM37.8.169a4.444,4.444,0,0,0,1.3-.26L38.87-.975a2.5,2.5,0,0,1-.806.182c-.819,0-1.092-.494-1.092-1.365V-6.1h1.911v-.962H36.972V-9.035h-.988l-.143,1.976-1.1.065v.9h1.053v3.913C35.789-.767,36.3.169,37.8.169ZM43.394,0h1.183V-5.122A2.607,2.607,0,0,1,46.358-6.2c.9,0,1.313.559,1.313,1.885V0h1.183V-5.122A2.607,2.607,0,0,1,50.635-6.2c.9,0,1.313.559,1.313,1.885V0h1.183V-4.472c0-1.807-.689-2.769-2.145-2.769a3.337,3.337,0,0,0-2.327,1.352,1.862,1.862,0,0,0-1.95-1.352,3.1,3.1,0,0,0-2.2,1.209h-.039l-.1-1.027h-.975ZM58.279.169a4.2,4.2,0,0,0,2.34-.728l-.429-.78a3.043,3.043,0,0,1-1.768.559,2.339,2.339,0,0,1-2.34-2.47H60.84a4.618,4.618,0,0,0,.052-.676c0-2.015-1.014-3.315-2.808-3.315A3.414,3.414,0,0,0,54.9-3.523,3.374,3.374,0,0,0,58.279.169Zm-2.21-4.264a2.172,2.172,0,0,1,2.028-2.2c1.1,0,1.755.767,1.755,2.2ZM64.051.169a3.782,3.782,0,0,0,2.34-1.014h.039l.1.845h.975V-4.342c0-1.742-.728-2.9-2.444-2.9a5.31,5.31,0,0,0-2.782.923l.468.819a3.889,3.889,0,0,1,2.119-.754c1.157,0,1.456.871,1.456,1.781-3,.338-4.342,1.105-4.342,2.639A1.914,1.914,0,0,0,64.051.169Zm.338-.949c-.7,0-1.248-.325-1.248-1.131,0-.91.806-1.495,3.185-1.781v1.976A2.885,2.885,0,0,1,64.389-.78ZM71.6.169c1.664,0,2.574-.949,2.574-2.093,0-1.339-1.131-1.755-2.158-2.145-.793-.3-1.56-.546-1.56-1.222,0-.546.4-1.014,1.287-1.014a2.656,2.656,0,0,1,1.625.624l.572-.767a3.658,3.658,0,0,0-2.2-.793c-1.534,0-2.431.884-2.431,2,0,1.2,1.118,1.677,2.106,2.041.78.3,1.612.624,1.612,1.339,0,.611-.455,1.105-1.391,1.105a3.2,3.2,0,0,1-2.093-.832l-.585.78A4.258,4.258,0,0,0,71.6.169Zm6.292,0a3.028,3.028,0,0,0,2.34-1.274h.039L80.366,0h.988V-7.059H80.171v5c-.676.845-1.183,1.2-1.911,1.2-.936,0-1.326-.559-1.326-1.872V-7.059H75.751v4.472C75.751-.793,76.414.169,77.9.169ZM83.733,0h1.183V-4.537c.468-1.209,1.2-1.625,1.781-1.625a1.67,1.67,0,0,1,.689.117l.221-1.04a1.5,1.5,0,0,0-.754-.156,2.437,2.437,0,0,0-2,1.469h-.039l-.1-1.287h-.975Zm7.748.169a4.2,4.2,0,0,0,2.34-.728l-.429-.78a3.043,3.043,0,0,1-1.768.559,2.339,2.339,0,0,1-2.34-2.47h4.758a4.619,4.619,0,0,0,.052-.676c0-2.015-1.014-3.315-2.808-3.315A3.414,3.414,0,0,0,88.1-3.523,3.374,3.374,0,0,0,91.481.169Zm-2.21-4.264a2.172,2.172,0,0,1,2.028-2.2c1.105,0,1.755.767,1.755,2.2ZM97.682.169c1.664,0,2.574-.949,2.574-2.093,0-1.339-1.131-1.755-2.158-2.145-.793-.3-1.56-.546-1.56-1.222,0-.546.4-1.014,1.287-1.014a2.656,2.656,0,0,1,1.625.624l.572-.767a3.658,3.658,0,0,0-2.2-.793c-1.534,0-2.431.884-2.431,2,0,1.2,1.118,1.677,2.106,2.041.78.3,1.612.624,1.612,1.339,0,.611-.455,1.105-1.391,1.105a3.2,3.2,0,0,1-2.093-.832l-.585.78A4.258,4.258,0,0,0,97.682.169Zm9,0c1.664,0,2.574-.949,2.574-2.093,0-1.339-1.131-1.755-2.158-2.145-.793-.3-1.56-.546-1.56-1.222,0-.546.4-1.014,1.287-1.014a2.656,2.656,0,0,1,1.625.624l.572-.767a3.658,3.658,0,0,0-2.2-.793c-1.534,0-2.431.884-2.431,2,0,1.2,1.118,1.677,2.106,2.041.78.3,1.612.624,1.612,1.339,0,.611-.455,1.105-1.391,1.105a3.2,3.2,0,0,1-2.093-.832l-.585.78A4.258,4.258,0,0,0,106.678.169Zm6.292,0a3.028,3.028,0,0,0,2.34-1.274h.039L115.44,0h.988V-7.059h-1.183v5c-.676.845-1.183,1.2-1.911,1.2-.936,0-1.326-.559-1.326-1.872V-7.059h-1.183v4.472C110.825-.793,111.488.169,112.97.169Zm8.619,0a3.366,3.366,0,0,0,2.275-.9l-.507-.793a2.489,2.489,0,0,1-1.664.7c-1.3,0-2.184-1.079-2.184-2.7s.936-2.73,2.21-2.73a2.049,2.049,0,0,1,1.417.637l.611-.793a3.018,3.018,0,0,0-2.067-.832,3.437,3.437,0,0,0-3.406,3.718C118.274-1.183,119.717.169,121.589.169ZM125.424,0h1.183V-5.122A2.685,2.685,0,0,1,128.544-6.2c.936,0,1.339.559,1.339,1.885V0h1.183V-4.472c0-1.807-.676-2.769-2.158-2.769a3.314,3.314,0,0,0-2.34,1.183l.039-1.456v-2.834h-1.183Zm12.428.169a3.782,3.782,0,0,0,2.34-1.014h.039l.1.845h.975V-4.342c0-1.742-.728-2.9-2.444-2.9a5.31,5.31,0,0,0-2.782.923l.468.819a3.889,3.889,0,0,1,2.119-.754c1.157,0,1.456.871,1.456,1.781-3,.338-4.342,1.105-4.342,2.639A1.914,1.914,0,0,0,137.852.169Zm.338-.949c-.7,0-1.248-.325-1.248-1.131,0-.91.806-1.495,3.185-1.781v1.976A2.885,2.885,0,0,1,138.19-.78Zm7.215.949c1.664,0,2.574-.949,2.574-2.093,0-1.339-1.131-1.755-2.158-2.145-.793-.3-1.56-.546-1.56-1.222,0-.546.4-1.014,1.287-1.014a2.656,2.656,0,0,1,1.625.624l.572-.767a3.658,3.658,0,0,0-2.2-.793c-1.534,0-2.431.884-2.431,2,0,1.2,1.118,1.677,2.106,2.041.78.3,1.612.624,1.612,1.339,0,.611-.455,1.105-1.391,1.105a3.2,3.2,0,0,1-2.093-.832l-.585.78A4.258,4.258,0,0,0,145.405.169Z" transform="translate(361.82 129.247)"/>
    <path id="패스_9556" data-name="패스 9556" class="cls-12" d="M3.978.169a3.366,3.366,0,0,0,2.275-.9l-.507-.793a2.489,2.489,0,0,1-1.664.7C2.782-.819,1.9-1.9,1.9-3.523s.936-2.73,2.21-2.73a2.049,2.049,0,0,1,1.417.637l.611-.793a3.018,3.018,0,0,0-2.067-.832A3.437,3.437,0,0,0,.663-3.523C.663-1.183,2.106.169,3.978.169Z" transform="translate(335.31 147.242)"/>
    <path id="패스_9557" data-name="패스 9557" class="cls-12" d="M3.939.169A3.37,3.37,0,0,0,7.215-3.523c0-2.353-1.547-3.718-3.276-3.718S.663-5.876.663-3.523A3.37,3.37,0,0,0,3.939.169Zm0-.988C2.717-.819,1.9-1.9,1.9-3.523s.819-2.73,2.041-2.73,2.054,1.105,2.054,2.73S5.161-.819,3.939-.819ZM9.074,0h1.183V-5.122A2.607,2.607,0,0,1,12.038-6.2c.9,0,1.313.559,1.313,1.885V0h1.183V-5.122A2.607,2.607,0,0,1,16.315-6.2c.9,0,1.313.559,1.313,1.885V0h1.183V-4.472c0-1.807-.689-2.769-2.145-2.769a3.337,3.337,0,0,0-2.327,1.352,1.862,1.862,0,0,0-1.95-1.352,3.1,3.1,0,0,0-2.2,1.209h-.039l-.1-1.027H9.074ZM21.112,2.977H22.3V.585L22.269-.65a3.185,3.185,0,0,0,1.95.819c1.625,0,3.068-1.391,3.068-3.809,0-2.171-.988-3.6-2.808-3.6a3.764,3.764,0,0,0-2.249.988h-.039l-.1-.806h-.975Zm2.912-3.8A2.736,2.736,0,0,1,22.3-1.56v-3.7a2.943,2.943,0,0,1,1.9-.975c1.339,0,1.859,1.053,1.859,2.613C26.052-1.872,25.194-.819,24.024-.819Zm6.4.988a1.869,1.869,0,0,0,.689-.1l-.169-.91a1.038,1.038,0,0,1-.247.026c-.182,0-.338-.143-.338-.507v-9.022H29.172V-1.4C29.172-.4,29.536.169,30.42.169Zm5.3,0a4.2,4.2,0,0,0,2.34-.728l-.429-.78a3.043,3.043,0,0,1-1.768.559,2.339,2.339,0,0,1-2.34-2.47h4.758a4.618,4.618,0,0,0,.052-.676c0-2.015-1.014-3.315-2.808-3.315a3.414,3.414,0,0,0-3.185,3.718A3.374,3.374,0,0,0,35.724.169Zm-2.21-4.264a2.172,2.172,0,0,1,2.028-2.2c1.1,0,1.755.767,1.755,2.2ZM42.159.169a4.444,4.444,0,0,0,1.3-.26l-.234-.884a2.5,2.5,0,0,1-.806.182c-.819,0-1.092-.494-1.092-1.365V-6.1h1.911v-.962H41.327V-9.035h-.988L40.2-7.059l-1.1.065v.9h1.053v3.913C40.144-.767,40.651.169,42.159.169ZM44.837,0H46.02V-7.059H44.837Zm.6-8.515a.773.773,0,0,0,.819-.767.751.751,0,0,0-.819-.767.751.751,0,0,0-.819.767A.773.773,0,0,0,45.435-8.515ZM51.155.169a3.37,3.37,0,0,0,3.276-3.692c0-2.353-1.547-3.718-3.276-3.718s-3.276,1.365-3.276,3.718A3.37,3.37,0,0,0,51.155.169Zm0-.988c-1.222,0-2.041-1.079-2.041-2.7s.819-2.73,2.041-2.73,2.054,1.105,2.054,2.73S52.377-.819,51.155-.819ZM56.29,0h1.183V-5.122A2.685,2.685,0,0,1,59.41-6.2c.936,0,1.339.559,1.339,1.885V0h1.183V-4.472c0-1.807-.676-2.769-2.158-2.769a3.385,3.385,0,0,0-2.366,1.2h-.039l-.1-1.014H56.29Zm13.6.169a3.37,3.37,0,0,0,3.276-3.692c0-2.353-1.547-3.718-3.276-3.718s-3.276,1.365-3.276,3.718A3.37,3.37,0,0,0,69.888.169Zm0-.988c-1.222,0-2.041-1.079-2.041-2.7s.819-2.73,2.041-2.73,2.054,1.105,2.054,2.73S71.11-.819,69.888-.819Zm8.567-9.464a3.094,3.094,0,0,0-1.183-.234c-1.4,0-2.054.9-2.054,2.327v1.131l-.962.065v.9h.962V0H76.4V-6.1h1.5v-.962H76.4V-8.177c0-.91.325-1.391,1-1.391a2,2,0,0,1,.793.182ZM82.16,0h1.183V-7.059H82.16Zm.6-8.515a.773.773,0,0,0,.819-.767.751.751,0,0,0-.819-.767.751.751,0,0,0-.819.767A.773.773,0,0,0,82.758-8.515Z" transform="translate(341.778 147.242)"/>
    <path id="패스_9558" data-name="패스 9558" class="cls-12" d="M1.2,0H2.379V-5.122A2.685,2.685,0,0,1,4.316-6.2c.936,0,1.339.559,1.339,1.885V0H6.838V-4.472c0-1.807-.676-2.769-2.158-2.769a3.385,3.385,0,0,0-2.366,1.2H2.275l-.1-1.014H1.2Z" transform="translate(426.223 147.242)"/>
    <path id="패스_9559" data-name="패스 9559" class="cls-12" d="M4.628-10.283a3.094,3.094,0,0,0-1.183-.234c-1.4,0-2.054.9-2.054,2.327v1.131l-.962.065v.9h.962V0H2.574V-6.1H4.069v-.962H2.574V-8.177c0-.91.325-1.391,1-1.391a2,2,0,0,1,.793.182ZM8.021.169A3.37,3.37,0,0,0,11.3-3.523c0-2.353-1.547-3.718-3.276-3.718S4.745-5.876,4.745-3.523A3.37,3.37,0,0,0,8.021.169Zm0-.988C6.8-.819,5.98-1.9,5.98-3.523s.819-2.73,2.041-2.73,2.054,1.105,2.054,2.73S9.243-.819,8.021-.819ZM13.156,0h1.183V-4.537c.468-1.209,1.2-1.625,1.781-1.625a1.67,1.67,0,0,1,.689.117l.221-1.04a1.5,1.5,0,0,0-.754-.156,2.437,2.437,0,0,0-2,1.469h-.039l-.1-1.287h-.975ZM18.2,0h1.183V-5.122A2.607,2.607,0,0,1,21.164-6.2c.9,0,1.313.559,1.313,1.885V0H23.66V-5.122A2.607,2.607,0,0,1,25.441-6.2c.9,0,1.313.559,1.313,1.885V0h1.183V-4.472c0-1.807-.689-2.769-2.145-2.769a3.337,3.337,0,0,0-2.327,1.352,1.862,1.862,0,0,0-1.95-1.352,3.1,3.1,0,0,0-2.2,1.209h-.039l-.1-1.027H18.2ZM31.863.169A3.782,3.782,0,0,0,34.2-.845h.039l.1.845h.975V-4.342c0-1.742-.728-2.9-2.444-2.9a5.31,5.31,0,0,0-2.782.923l.468.819a3.889,3.889,0,0,1,2.119-.754c1.157,0,1.456.871,1.456,1.781-3,.338-4.342,1.105-4.342,2.639A1.914,1.914,0,0,0,31.863.169ZM32.2-.78c-.7,0-1.248-.325-1.248-1.131,0-.91.806-1.495,3.185-1.781v1.976A2.885,2.885,0,0,1,32.2-.78Zm7.4.949a4.444,4.444,0,0,0,1.3-.26l-.234-.884a2.5,2.5,0,0,1-.806.182c-.819,0-1.092-.494-1.092-1.365V-6.1h1.911v-.962H38.766V-9.035h-.988l-.143,1.976-1.1.065v.9h1.053v3.913C37.583-.767,38.09.169,39.6.169ZM42.276,0h1.183V-7.059H42.276Zm.6-8.515a.773.773,0,0,0,.819-.767.751.751,0,0,0-.819-.767.751.751,0,0,0-.819.767A.773.773,0,0,0,42.874-8.515ZM48.594.169A3.37,3.37,0,0,0,51.87-3.523c0-2.353-1.547-3.718-3.276-3.718s-3.276,1.365-3.276,3.718A3.37,3.37,0,0,0,48.594.169Zm0-.988c-1.222,0-2.041-1.079-2.041-2.7s.819-2.73,2.041-2.73,2.054,1.105,2.054,2.73S49.816-.819,48.594-.819ZM53.729,0h1.183V-5.122A2.685,2.685,0,0,1,56.849-6.2c.936,0,1.339.559,1.339,1.885V0h1.183V-4.472c0-1.807-.676-2.769-2.158-2.769a3.385,3.385,0,0,0-2.366,1.2h-.039l-.1-1.014h-.975Z" transform="translate(434.094 147.242)"/>
    <text id="_3" data-name=" " class="cls-16" transform="translate(500.871 147.247)"><tspan x="0" y="0"> </tspan></text>
    <text id="s" class="cls-17" transform="translate(366.097 165.247)"><tspan x="0" y="0">s</tspan></text>
    <text id="e" class="cls-17" transform="translate(372.314 165.247)"><tspan x="0" y="0">e</tspan></text>
    <text id="cur" class="cls-17" transform="translate(379.695 165.247)"><tspan x="0" y="0">cur</tspan></text>
    <text id="it" class="cls-17" transform="translate(399.324 165.247)"><tspan x="0" y="0">it</tspan></text>
    <text id="y" class="cls-17" transform="translate(408.187 165.247)"><tspan x="0" y="0">y</tspan></text>
    <text id="_4" data-name=" " class="cls-17" transform="translate(415.08 165.247)"><tspan x="0" y="0"> </tspan></text>
    <text id="tr" class="cls-17" transform="translate(418.784 165.247)"><tspan x="0" y="0">tr</tspan></text>
    <text id="aining" class="cls-17" transform="translate(428.943 165.247)"><tspan x="0" y="0">aining</tspan></text>
    <path id="패스_9527" data-name="패스 9527" class="cls-11" d="M288.548-52.877h258.9v-58.061h-258.9Z" transform="translate(-0.25 223.438)"/>
    <path id="패스_9528" data-name="패스 9528" class="cls-18" d="M.25-67.637h258.9v-34.5H.25Z" transform="translate(-0.25 223.438)"/>
    <path id="패스_9546" data-name="패스 9546" class="cls-10" d="M1.3,0H2.509V-9.529H1.3ZM4.966,0H6.149V-5.122A2.607,2.607,0,0,1,7.93-6.2c.9,0,1.313.559,1.313,1.885V0h1.183V-5.122A2.607,2.607,0,0,1,12.207-6.2c.9,0,1.313.559,1.313,1.885V0H14.7V-4.472c0-1.807-.689-2.769-2.145-2.769a3.337,3.337,0,0,0-2.327,1.352,1.862,1.862,0,0,0-1.95-1.352,3.1,3.1,0,0,0-2.2,1.209H6.045l-.1-1.027H4.966Zm12,2.977h1.183V.585L18.122-.65a3.185,3.185,0,0,0,1.95.819C21.7.169,23.14-1.222,23.14-3.64c0-2.171-.988-3.6-2.808-3.6a3.764,3.764,0,0,0-2.249.988h-.039l-.1-.806h-.975Zm2.912-3.8a2.736,2.736,0,0,1-1.729-.741v-3.7a2.943,2.943,0,0,1,1.9-.975c1.339,0,1.859,1.053,1.859,2.613C21.905-1.872,21.047-.819,19.877-.819Zm6.357.988a1.869,1.869,0,0,0,.689-.1l-.169-.91a1.038,1.038,0,0,1-.247.026c-.182,0-.338-.143-.338-.507v-9.022H24.986V-1.4C24.986-.4,25.35.169,26.234.169Zm5.265,0a4.2,4.2,0,0,0,2.34-.728l-.429-.78a3.043,3.043,0,0,1-1.768.559A2.339,2.339,0,0,1,29.3-3.25H34.06a4.618,4.618,0,0,0,.052-.676c0-2.015-1.014-3.315-2.808-3.315a3.414,3.414,0,0,0-3.185,3.718A3.374,3.374,0,0,0,31.5.169Zm-2.21-4.264a2.172,2.172,0,0,1,2.028-2.2c1.105,0,1.755.767,1.755,2.2ZM35.815,0H37V-5.122A2.607,2.607,0,0,1,38.779-6.2c.9,0,1.313.559,1.313,1.885V0h1.183V-5.122A2.607,2.607,0,0,1,43.056-6.2c.9,0,1.313.559,1.313,1.885V0h1.183V-4.472c0-1.807-.689-2.769-2.145-2.769A3.337,3.337,0,0,0,41.08-5.889a1.862,1.862,0,0,0-1.95-1.352,3.1,3.1,0,0,0-2.2,1.209h-.039l-.1-1.027h-.975ZM50.661.169A4.2,4.2,0,0,0,53-.559l-.429-.78A3.043,3.043,0,0,1,50.8-.78a2.339,2.339,0,0,1-2.34-2.47h4.758a4.618,4.618,0,0,0,.052-.676c0-2.015-1.014-3.315-2.808-3.315a3.414,3.414,0,0,0-3.185,3.718A3.374,3.374,0,0,0,50.661.169Zm-2.21-4.264a2.172,2.172,0,0,1,2.028-2.2c1.1,0,1.755.767,1.755,2.2ZM54.977,0H56.16V-5.122A2.685,2.685,0,0,1,58.1-6.2c.936,0,1.339.559,1.339,1.885V0h1.183V-4.472c0-1.807-.676-2.769-2.158-2.769a3.385,3.385,0,0,0-2.366,1.2h-.039l-.1-1.014h-.975ZM65.1.169a4.444,4.444,0,0,0,1.3-.26L66.17-.975a2.5,2.5,0,0,1-.806.182c-.819,0-1.092-.494-1.092-1.365V-6.1h1.911v-.962H64.272V-9.035h-.988l-.143,1.976-1.1.065v.9h1.053v3.913C63.089-.767,63.6.169,65.1.169Zm8.268,0c1.989,0,3.237-1.2,3.237-2.7a2.655,2.655,0,0,0-1.963-2.548l-1.365-.585c-.741-.312-1.573-.663-1.573-1.586,0-.858.7-1.4,1.781-1.4a3.087,3.087,0,0,1,2.171.9l.637-.767a3.908,3.908,0,0,0-2.808-1.183c-1.729,0-3,1.066-3,2.535a2.692,2.692,0,0,0,1.937,2.444l1.378.6c.9.4,1.586.715,1.586,1.69,0,.936-.754,1.56-2,1.56a3.744,3.744,0,0,1-2.639-1.183l-.715.819A4.554,4.554,0,0,0,73.372.169Zm7.748,0a3.366,3.366,0,0,0,2.275-.9l-.507-.793a2.489,2.489,0,0,1-1.664.7c-1.3,0-2.184-1.079-2.184-2.7s.936-2.73,2.21-2.73a2.049,2.049,0,0,1,1.417.637l.611-.793a3.018,3.018,0,0,0-2.067-.832,3.437,3.437,0,0,0-3.406,3.718C77.805-1.183,79.248.169,81.12.169Z" transform="translate(67.215 144.49)"/>
    <path id="패스_9547" data-name="패스 9547" class="cls-10" d="M4.043.169a4.2,4.2,0,0,0,2.34-.728l-.429-.78A3.043,3.043,0,0,1,4.186-.78a2.339,2.339,0,0,1-2.34-2.47H6.6a4.618,4.618,0,0,0,.052-.676c0-2.015-1.014-3.315-2.808-3.315A3.414,3.414,0,0,0,.663-3.523,3.374,3.374,0,0,0,4.043.169ZM1.833-4.095a2.172,2.172,0,0,1,2.028-2.2c1.105,0,1.755.767,1.755,2.2ZM8.359,0H9.542V-5.122A2.685,2.685,0,0,1,11.479-6.2c.936,0,1.339.559,1.339,1.885V0H14V-4.472c0-1.807-.676-2.769-2.158-2.769a3.385,3.385,0,0,0-2.366,1.2H9.438l-.1-1.014H8.359Zm9.529.169a3.782,3.782,0,0,0,2.34-1.014h.039l.1.845h.975V-4.342c0-1.742-.728-2.9-2.444-2.9a5.31,5.31,0,0,0-2.782.923l.468.819a3.889,3.889,0,0,1,2.119-.754c1.157,0,1.456.871,1.456,1.781-3,.338-4.342,1.105-4.342,2.639A1.914,1.914,0,0,0,17.888.169Zm.338-.949c-.7,0-1.248-.325-1.248-1.131,0-.91.806-1.495,3.185-1.781v1.976A2.885,2.885,0,0,1,18.226-.78Zm5.33.78h1.183V-4.537c.468-1.209,1.2-1.625,1.781-1.625a1.67,1.67,0,0,1,.689.117l.221-1.04a1.5,1.5,0,0,0-.754-.156,2.437,2.437,0,0,0-2,1.469h-.039l-.1-1.287h-.975Zm5,0h1.183V-7.059H28.561Zm.6-8.515a.773.773,0,0,0,.819-.767.751.751,0,0,0-.819-.767.751.751,0,0,0-.819.767A.773.773,0,0,0,29.159-8.515ZM34.84.169a3.37,3.37,0,0,0,3.276-3.692c0-2.353-1.547-3.718-3.276-3.718s-3.276,1.365-3.276,3.718A3.37,3.37,0,0,0,34.84.169Zm0-.988c-1.222,0-2.041-1.079-2.041-2.7s.819-2.73,2.041-2.73,2.054,1.105,2.054,2.73S36.062-.819,34.84-.819Z" transform="translate(152.471 144.49)"/>
    <text id="Implement_improvement_measure" data-name="Implement improvement measure" class="cls-19" transform="translate(600.848 201.757)"><tspan x="0" y="0">Implement improvement measure</tspan></text>
    <path id="패스_9529" data-name="패스 9529" class="cls-20" d="M576.847-10.363h258.9v-34.5h-258.9Z" transform="translate(-0.25 223.438)"/>
    <path id="패스_9530" data-name="패스 9530" class="cls-21" d="M.25-3.836h258.9v-34.5H.25Z" transform="translate(-0.25 223.438)"/>
    <path id="패스_9549" data-name="패스 9549" class="cls-10" d="M1.3,0H3.744C6.617,0,8.19-1.781,8.19-4.8s-1.573-4.732-4.5-4.732H1.3ZM2.509-.988V-8.554H3.588c2.249,0,3.354,1.339,3.354,3.757S5.837-.988,3.588-.988ZM12.961.169A4.2,4.2,0,0,0,15.3-.559l-.429-.78A3.043,3.043,0,0,1,13.1-.78a2.339,2.339,0,0,1-2.34-2.47h4.758a4.618,4.618,0,0,0,.052-.676c0-2.015-1.014-3.315-2.808-3.315A3.414,3.414,0,0,0,9.581-3.523,3.374,3.374,0,0,0,12.961.169Zm-2.21-4.264a2.172,2.172,0,0,1,2.028-2.2c1.105,0,1.755.767,1.755,2.2ZM19.383.169a4.444,4.444,0,0,0,1.3-.26l-.234-.884a2.5,2.5,0,0,1-.806.182c-.819,0-1.092-.494-1.092-1.365V-6.1h1.911v-.962H18.551V-9.035h-.988L17.42-7.059l-1.1.065v.9h1.053v3.913C17.368-.767,17.875.169,19.383.169Z" transform="translate(80.366 208.29)"/>
    <path id="패스_9548" data-name="패스 9548" class="cls-10" d="M4.043.169a4.2,4.2,0,0,0,2.34-.728l-.429-.78A3.043,3.043,0,0,1,4.186-.78a2.339,2.339,0,0,1-2.34-2.47H6.6a4.618,4.618,0,0,0,.052-.676c0-2.015-1.014-3.315-2.808-3.315A3.414,3.414,0,0,0,.663-3.523,3.374,3.374,0,0,0,4.043.169ZM1.833-4.095a2.172,2.172,0,0,1,2.028-2.2c1.105,0,1.755.767,1.755,2.2ZM11.167.169a3.366,3.366,0,0,0,2.275-.9l-.507-.793a2.489,2.489,0,0,1-1.664.7c-1.3,0-2.184-1.079-2.184-2.7s.936-2.73,2.21-2.73a2.049,2.049,0,0,1,1.417.637l.611-.793a3.018,3.018,0,0,0-2.067-.832A3.437,3.437,0,0,0,7.852-3.523C7.852-1.183,9.3.169,11.167.169Z" transform="translate(101.506 208.29)"/>
    <path id="패스_9550" data-name="패스 9550" class="cls-10" d="M3.419.169a4.444,4.444,0,0,0,1.3-.26L4.485-.975a2.5,2.5,0,0,1-.806.182c-.819,0-1.092-.494-1.092-1.365V-6.1H4.5v-.962H2.587V-9.035H1.6L1.456-7.059.351-6.994v.9H1.4v3.913C1.4-.767,1.911.169,3.419.169ZM10.27-3.874l.468-1.456c.338-1.079.65-2.106.949-3.224h.052c.312,1.1.611,2.145.962,3.224l.455,1.456ZM14.365,0h1.274L12.4-9.529H11.063L7.826,0H9.048l.923-2.912h3.484Zm2.5,0h1.183V-5.122A2.685,2.685,0,0,1,19.981-6.2c.936,0,1.339.559,1.339,1.885V0H22.5V-4.472c0-1.807-.676-2.769-2.158-2.769a3.385,3.385,0,0,0-2.366,1.2H17.94l-.1-1.014h-.975ZM27.534.169A3.37,3.37,0,0,0,30.81-3.523c0-2.353-1.547-3.718-3.276-3.718s-3.276,1.365-3.276,3.718A3.37,3.37,0,0,0,27.534.169Zm0-.988c-1.222,0-2.041-1.079-2.041-2.7s.819-2.73,2.041-2.73,2.054,1.105,2.054,2.73S28.756-.819,27.534-.819ZM32.656,0h1.183V-5.122A2.607,2.607,0,0,1,35.62-6.2c.9,0,1.313.559,1.313,1.885V0h1.183V-5.122A2.607,2.607,0,0,1,39.9-6.2c.9,0,1.313.559,1.313,1.885V0h1.183V-4.472c0-1.807-.689-2.769-2.145-2.769a3.337,3.337,0,0,0-2.327,1.352,1.862,1.862,0,0,0-1.95-1.352,3.1,3.1,0,0,0-2.2,1.209h-.039l-.1-1.027h-.975Zm13.65.169a3.782,3.782,0,0,0,2.34-1.014h.039l.1.845h.975V-4.342c0-1.742-.728-2.9-2.444-2.9a5.31,5.31,0,0,0-2.782.923l.468.819a3.889,3.889,0,0,1,2.119-.754c1.157,0,1.456.871,1.456,1.781-3,.338-4.342,1.105-4.342,2.639A1.914,1.914,0,0,0,46.306.169Zm.338-.949c-.7,0-1.248-.325-1.248-1.131,0-.91.806-1.495,3.185-1.781v1.976A2.885,2.885,0,0,1,46.644-.78Zm6.6.949a1.869,1.869,0,0,0,.689-.1l-.169-.91a1.038,1.038,0,0,1-.247.026c-.182,0-.338-.143-.338-.507v-9.022H52V-1.4C52-.4,52.364.169,53.248.169Zm2.561,2.873c1.4,0,2.132-1.066,2.626-2.457L61.1-7.059H59.943L58.682-3.133c-.195.624-.4,1.339-.6,1.976h-.065c-.221-.637-.468-1.365-.676-1.976L55.9-7.059H54.665L57.5.013l-.156.533c-.286.871-.793,1.521-1.6,1.521a1.687,1.687,0,0,1-.533-.117l-.234.949A2.173,2.173,0,0,0,55.809,3.042Z" transform="translate(115.866 208.29)"/>
  </g>
</svg>
