<svg id="구성_요소_91_1" data-name="구성 요소 91 – 1" xmlns="http://www.w3.org/2000/svg" width="539.019" height="54" viewBox="0 0 539.019 54">
  <defs>
    <style>
      .cls-1 {
        fill: #b8dbeb;
      }

      .cls-2, .cls-3 {
        fill: #1e2323;
      }

      .cls-3 {
        font-size: 12px;
        font-family: NotoSansKR-Regular, Noto Sans KR;
      }

      .cls-4 {
        fill: none;
        stroke: #42454a;
        stroke-width: 0.99px;
      }
    </style>
  </defs>
  <path id="패스_9588" data-name="패스 9588" class="cls-1" d="M311.143-205.837H433.994v-54H311.143Z" transform="translate(-311.143 259.837)"/>
  <path id="패스_9595" data-name="패스 9595" class="cls-2" d="M1.056,0H5.88V-.912H4.116V-8.8h-.84a5.573,5.573,0,0,1-1.824.624v.7h1.56V-.912H1.056ZM9.288.156c1.536,0,2.376-.876,2.376-1.932,0-1.236-1.044-1.62-1.992-1.98-.732-.276-1.44-.5-1.44-1.128,0-.5.372-.936,1.188-.936a2.452,2.452,0,0,1,1.5.576l.528-.708A3.376,3.376,0,0,0,9.42-6.684c-1.416,0-2.244.816-2.244,1.848,0,1.1,1.032,1.548,1.944,1.884.72.276,1.488.576,1.488,1.236,0,.564-.42,1.02-1.284,1.02a2.955,2.955,0,0,1-1.932-.768l-.54.72A3.93,3.93,0,0,0,9.288.156Z" transform="translate(39.472 16.28)"/>
  <path id="패스_9596" data-name="패스 9596" class="cls-2" d="M3.156.156a4.1,4.1,0,0,0,1.2-.24L4.14-.9A2.308,2.308,0,0,1,3.4-.732c-.756,0-1.008-.456-1.008-1.26V-5.628H4.152v-.888H2.388V-8.34H1.476L1.344-6.516l-1.02.06v.828H1.3v3.612C1.3-.708,1.764.156,3.156.156Zm7.344,0c1.836,0,2.988-1.1,2.988-2.5a2.45,2.45,0,0,0-1.812-2.352l-1.26-.54C9.732-5.52,8.964-5.844,8.964-6.7c0-.792.648-1.3,1.644-1.3a2.85,2.85,0,0,1,2,.828l.588-.708a3.607,3.607,0,0,0-2.592-1.092,2.5,2.5,0,0,0-2.772,2.34A2.485,2.485,0,0,0,9.624-4.368l1.272.552c.828.372,1.464.66,1.464,1.56,0,.864-.7,1.44-1.848,1.44A3.456,3.456,0,0,1,8.076-1.908l-.66.756A4.2,4.2,0,0,0,10.5.156Z" transform="translate(51.124 16.28)"/>
  <path id="패스_9597" data-name="패스 9597" class="cls-2" d="M3.156.156a4.1,4.1,0,0,0,1.2-.24L4.14-.9A2.308,2.308,0,0,1,3.4-.732c-.756,0-1.008-.456-1.008-1.26V-5.628H4.152v-.888H2.388V-8.34H1.476L1.344-6.516l-1.02.06v.828H1.3v3.612C1.3-.708,1.764.156,3.156.156Zm4.74,0a3.878,3.878,0,0,0,2.16-.672l-.4-.72A2.809,2.809,0,0,1,8.028-.72,2.159,2.159,0,0,1,5.868-3H10.26a4.263,4.263,0,0,0,.048-.624c0-1.86-.936-3.06-2.592-3.06a3.152,3.152,0,0,0-2.94,3.432A3.114,3.114,0,0,0,7.9.156ZM5.856-3.78A2,2,0,0,1,7.728-5.808c1.02,0,1.62.708,1.62,2.028Zm5.88,6.528h1.092V.54L12.8-.6a2.94,2.94,0,0,0,1.8.756c1.5,0,2.832-1.284,2.832-3.516,0-2-.912-3.324-2.592-3.324a3.475,3.475,0,0,0-2.076.912h-.036l-.1-.744h-.9Zm2.688-3.5a2.525,2.525,0,0,1-1.6-.684V-4.86a2.717,2.717,0,0,1,1.752-.9c1.236,0,1.716.972,1.716,2.412C16.3-1.728,15.5-.756,14.424-.756Z" transform="translate(65.308 16.28)"/>
  <text id="_" data-name=" " class="cls-3" transform="translate(86.38 16.28)"><tspan x="0" y="0"> </tspan></text>
  <path id="패스_9598" data-name="패스 9598" class="cls-2" d="M2.868,2.364l.684-.324A11.062,11.062,0,0,1,2.016-3.732,11.092,11.092,0,0,1,3.552-9.5l-.684-.312A11.207,11.207,0,0,0,1.1-3.732,11.248,11.248,0,0,0,2.868,2.364ZM5.076,0H6.192V-3.948h3.36v-.936H6.192V-7.86h3.96V-8.8H5.076Zm6.348,0h1.092V-6.516H11.424Zm.552-7.86a.714.714,0,0,0,.756-.708.693.693,0,0,0-.756-.708.693.693,0,0,0-.756.708A.714.714,0,0,0,11.976-7.86ZM14.544,0h1.092V-4.188c.432-1.116,1.1-1.5,1.644-1.5a1.542,1.542,0,0,1,.636.108l.2-.96a1.389,1.389,0,0,0-.7-.144,2.25,2.25,0,0,0-1.848,1.356H15.54l-.1-1.188h-.9Zm6.132.156c1.536,0,2.376-.876,2.376-1.932,0-1.236-1.044-1.62-1.992-1.98-.732-.276-1.44-.5-1.44-1.128,0-.5.372-.936,1.188-.936a2.452,2.452,0,0,1,1.5.576l.528-.708a3.376,3.376,0,0,0-2.028-.732c-1.416,0-2.244.816-2.244,1.848,0,1.1,1.032,1.548,1.944,1.884.72.276,1.488.576,1.488,1.236,0,.564-.42,1.02-1.284,1.02a2.955,2.955,0,0,1-1.932-.768l-.54.72A3.93,3.93,0,0,0,20.676.156Z" transform="translate(19.744 32.276)"/>
  <path id="패스_9599" data-name="패스 9599" class="cls-2" d="M3.156.156a4.1,4.1,0,0,0,1.2-.24L4.14-.9A2.308,2.308,0,0,1,3.4-.732c-.756,0-1.008-.456-1.008-1.26V-5.628H4.152v-.888H2.388V-8.34H1.476L1.344-6.516l-1.02.06v.828H1.3v3.612C1.3-.708,1.764.156,3.156.156ZM9.168-7.9h1.476c1.38,0,2.136.408,2.136,1.572,0,1.14-.756,1.692-2.136,1.692H9.168ZM14.148,0,11.892-3.852a2.386,2.386,0,0,0,1.992-2.472C13.884-8.16,12.6-8.8,10.812-8.8H8.052V0H9.168V-3.732h1.584L12.888,0Zm3.744.156a3.878,3.878,0,0,0,2.16-.672l-.4-.72a2.809,2.809,0,0,1-1.632.516A2.159,2.159,0,0,1,15.864-3h4.392a4.263,4.263,0,0,0,.048-.624c0-1.86-.936-3.06-2.592-3.06a3.152,3.152,0,0,0-2.94,3.432A3.114,3.114,0,0,0,17.892.156ZM15.852-3.78a2,2,0,0,1,1.872-2.028c1.02,0,1.62.708,1.62,2.028ZM23.436.156c1.536,0,2.376-.876,2.376-1.932,0-1.236-1.044-1.62-1.992-1.98-.732-.276-1.44-.5-1.44-1.128,0-.5.372-.936,1.188-.936a2.452,2.452,0,0,1,1.5.576l.528-.708a3.376,3.376,0,0,0-2.028-.732c-1.416,0-2.244.816-2.244,1.848,0,1.1,1.032,1.548,1.944,1.884.72.276,1.488.576,1.488,1.236,0,.564-.42,1.02-1.284,1.02a2.955,2.955,0,0,1-1.932-.768L21-.744A3.93,3.93,0,0,0,23.436.156Zm3.732,2.592H28.26V.54L28.236-.6a2.94,2.94,0,0,0,1.8.756c1.5,0,2.832-1.284,2.832-3.516,0-2-.912-3.324-2.592-3.324a3.475,3.475,0,0,0-2.076.912h-.036l-.1-.744h-.9Zm2.688-3.5a2.525,2.525,0,0,1-1.6-.684V-4.86a2.717,2.717,0,0,1,1.752-.9c1.236,0,1.716.972,1.716,2.412C31.728-1.728,30.936-.756,29.856-.756Zm7.1.912a3.111,3.111,0,0,0,3.024-3.408A3.126,3.126,0,0,0,36.96-6.684a3.126,3.126,0,0,0-3.024,3.432A3.111,3.111,0,0,0,36.96.156Zm0-.912c-1.128,0-1.884-1-1.884-2.5s.756-2.52,1.884-2.52,1.9,1.02,1.9,2.52S38.088-.756,36.96-.756ZM41.52,0h1.092V-4.728a2.478,2.478,0,0,1,1.788-1c.864,0,1.236.516,1.236,1.74V0h1.092V-4.128c0-1.668-.624-2.556-1.992-2.556a3.125,3.125,0,0,0-2.184,1.1h-.036l-.1-.936h-.9Zm8.856.156c1.536,0,2.376-.876,2.376-1.932,0-1.236-1.044-1.62-1.992-1.98-.732-.276-1.44-.5-1.44-1.128,0-.5.372-.936,1.188-.936a2.452,2.452,0,0,1,1.5.576l.528-.708a3.376,3.376,0,0,0-2.028-.732c-1.416,0-2.244.816-2.244,1.848,0,1.1,1.032,1.548,1.944,1.884.72.276,1.488.576,1.488,1.236,0,.564-.42,1.02-1.284,1.02a2.955,2.955,0,0,1-1.932-.768l-.54.72A3.93,3.93,0,0,0,50.376.156Zm6.36,0A3.878,3.878,0,0,0,58.9-.516l-.4-.72a2.809,2.809,0,0,1-1.632.516A2.159,2.159,0,0,1,54.708-3H59.1a4.263,4.263,0,0,0,.048-.624c0-1.86-.936-3.06-2.592-3.06a3.152,3.152,0,0,0-2.94,3.432A3.114,3.114,0,0,0,56.736.156ZM54.7-3.78a2,2,0,0,1,1.872-2.028c1.02,0,1.62.708,1.62,2.028Z" transform="translate(42.784 32.276)"/>
  <path id="패스_9600" data-name="패스 9600" class="cls-2" d="M2.292-3.576,2.724-4.92c.312-1,.6-1.944.876-2.976h.048c.288,1.02.564,1.98.888,2.976l.42,1.344ZM6.072,0H7.248L4.26-8.8H3.024L.036,0H1.164l.852-2.688H5.232Zm4.7.156a3.107,3.107,0,0,0,2.1-.828L12.408-1.4a2.3,2.3,0,0,1-1.536.648c-1.2,0-2.016-1-2.016-2.5s.864-2.52,2.04-2.52a1.892,1.892,0,0,1,1.308.588l.564-.732a2.786,2.786,0,0,0-1.908-.768A3.172,3.172,0,0,0,7.716-3.252C7.716-1.092,9.048.156,10.776.156Zm5.28,0a4.1,4.1,0,0,0,1.2-.24L17.04-.9a2.308,2.308,0,0,1-.744.168c-.756,0-1.008-.456-1.008-1.26V-5.628h1.764v-.888H15.288V-8.34h-.912l-.132,1.824-1.02.06v.828H14.2v3.612C14.2-.708,14.664.156,16.056.156ZM18.348,0H19.44V-6.516H18.348ZM18.9-7.86a.714.714,0,0,0,.756-.708.693.693,0,0,0-.756-.708.693.693,0,0,0-.756.708A.714.714,0,0,0,18.9-7.86ZM24,.156a3.111,3.111,0,0,0,3.024-3.408A3.126,3.126,0,0,0,24-6.684a3.126,3.126,0,0,0-3.024,3.432A3.111,3.111,0,0,0,24,.156Zm0-.912c-1.128,0-1.884-1-1.884-2.5s.756-2.52,1.884-2.52,1.9,1.02,1.9,2.52S25.128-.756,24-.756ZM28.56,0h1.092V-4.728a2.478,2.478,0,0,1,1.788-1c.864,0,1.236.516,1.236,1.74V0h1.092V-4.128c0-1.668-.624-2.556-1.992-2.556a3.125,3.125,0,0,0-2.184,1.1h-.036l-.1-.936h-.9ZM35.8,2.364a11.155,11.155,0,0,0,1.776-6.1A11.115,11.115,0,0,0,35.8-9.816l-.672.312A11.207,11.207,0,0,1,36.66-3.732,11.176,11.176,0,0,1,35.124,2.04Z" transform="translate(42.088 48.272)"/>
  <path id="패스_9589" data-name="패스 9589" class="cls-1" d="M449.866-205.837H572.717v-54H449.866Z" transform="translate(-311.143 259.837)"/>
  <path id="패스_9601" data-name="패스 9601" class="cls-2" d="M.528,0H6.06V-.948H3.624c-.444,0-.984.048-1.44.084C4.248-2.82,5.628-4.608,5.628-6.36a2.413,2.413,0,0,0-2.556-2.6A3.364,3.364,0,0,0,.48-7.668l.636.624A2.463,2.463,0,0,1,2.94-8.064a1.546,1.546,0,0,1,1.62,1.74C4.56-4.812,3.288-3.06.528-.648ZM7.584,0H8.676V-4.728a2.478,2.478,0,0,1,1.788-1c.864,0,1.236.516,1.236,1.74V0h1.092V-4.128c0-1.668-.624-2.556-1.992-2.556a3.125,3.125,0,0,0-2.184,1.1H8.58l-.1-.936h-.9Zm9.372.156a2.906,2.906,0,0,0,1.98-.924h.024L19.068,0h.888V-9.552H18.864v2.508l.06,1.128a2.651,2.651,0,0,0-1.836-.768c-1.488,0-2.82,1.32-2.82,3.432C14.268-1.08,15.324.156,16.956.156Zm.24-.912c-1.152,0-1.8-.936-1.8-2.508,0-1.488.828-2.5,1.884-2.5a2.288,2.288,0,0,1,1.584.684v3.42A2.239,2.239,0,0,1,17.2-.756Zm9.852.912c1.836,0,2.988-1.1,2.988-2.5a2.45,2.45,0,0,0-1.812-2.352l-1.26-.54c-.684-.288-1.452-.612-1.452-1.464,0-.792.648-1.3,1.644-1.3a2.85,2.85,0,0,1,2,.828l.588-.708a3.607,3.607,0,0,0-2.592-1.092,2.5,2.5,0,0,0-2.772,2.34,2.485,2.485,0,0,0,1.788,2.256l1.272.552c.828.372,1.464.66,1.464,1.56,0,.864-.7,1.44-1.848,1.44a3.456,3.456,0,0,1-2.436-1.092l-.66.756A4.2,4.2,0,0,0,27.048.156Z" transform="translate(175.747 24.28)"/>
  <path id="패스_9602" data-name="패스 9602" class="cls-2" d="M3.156.156a4.1,4.1,0,0,0,1.2-.24L4.14-.9A2.308,2.308,0,0,1,3.4-.732c-.756,0-1.008-.456-1.008-1.26V-5.628H4.152v-.888H2.388V-8.34H1.476L1.344-6.516l-1.02.06v.828H1.3v3.612C1.3-.708,1.764.156,3.156.156Zm4.74,0a3.878,3.878,0,0,0,2.16-.672l-.4-.72A2.809,2.809,0,0,1,8.028-.72,2.159,2.159,0,0,1,5.868-3H10.26a4.263,4.263,0,0,0,.048-.624c0-1.86-.936-3.06-2.592-3.06a3.152,3.152,0,0,0-2.94,3.432A3.114,3.114,0,0,0,7.9.156ZM5.856-3.78A2,2,0,0,1,7.728-5.808c1.02,0,1.62.708,1.62,2.028Zm5.88,6.528h1.092V.54L12.8-.6a2.94,2.94,0,0,0,1.8.756c1.5,0,2.832-1.284,2.832-3.516,0-2-.912-3.324-2.592-3.324a3.475,3.475,0,0,0-2.076.912h-.036l-.1-.744h-.9Zm2.688-3.5a2.525,2.525,0,0,1-1.6-.684V-4.86a2.717,2.717,0,0,1,1.752-.9c1.236,0,1.716.972,1.716,2.412C16.3-1.728,15.5-.756,14.424-.756Z" transform="translate(206.479 24.28)"/>
  <text id="_2" data-name=" " class="cls-3" transform="translate(227.551 24.28)"><tspan x="0" y="0"> </tspan></text>
  <path id="패스_9603" data-name="패스 9603" class="cls-2" d="M2.868,2.364l.684-.324A11.062,11.062,0,0,1,2.016-3.732,11.092,11.092,0,0,1,3.552-9.5l-.684-.312A11.207,11.207,0,0,0,1.1-3.732,11.248,11.248,0,0,0,2.868,2.364ZM8.4.156A3.4,3.4,0,0,0,11.1-1.1l-.612-.7a2.674,2.674,0,0,1-2.04.984c-1.68,0-2.736-1.392-2.736-3.612,0-2.2,1.1-3.564,2.772-3.564a2.4,2.4,0,0,1,1.8.84l.6-.72A3.252,3.252,0,0,0,8.472-8.964c-2.232,0-3.9,1.728-3.9,4.572S6.216.156,8.4.156Zm5.556,0a3.491,3.491,0,0,0,2.16-.936h.036l.1.78h.9V-4.008c0-1.608-.672-2.676-2.256-2.676a4.9,4.9,0,0,0-2.568.852l.432.756a3.59,3.59,0,0,1,1.956-.7c1.068,0,1.344.8,1.344,1.644-2.772.312-4.008,1.02-4.008,2.436A1.767,1.767,0,0,0,13.956.156Zm.312-.876c-.648,0-1.152-.3-1.152-1.044,0-.84.744-1.38,2.94-1.644v1.824A2.663,2.663,0,0,1,14.268-.72ZM20.94.156A2.8,2.8,0,0,0,23.1-1.02h.036L23.22,0h.912V-6.516H23.04V-1.9c-.624.78-1.092,1.1-1.764,1.1-.864,0-1.224-.516-1.224-1.728v-4H18.96v4.128C18.96-.732,19.572.156,20.94.156Zm6.912,0c1.536,0,2.376-.876,2.376-1.932,0-1.236-1.044-1.62-1.992-1.98-.732-.276-1.44-.5-1.44-1.128,0-.5.372-.936,1.188-.936a2.452,2.452,0,0,1,1.5.576l.528-.708a3.376,3.376,0,0,0-2.028-.732c-1.416,0-2.244.816-2.244,1.848,0,1.1,1.032,1.548,1.944,1.884.72.276,1.488.576,1.488,1.236,0,.564-.42,1.02-1.284,1.02a2.955,2.955,0,0,1-1.932-.768l-.54.72A3.93,3.93,0,0,0,27.852.156Zm6.36,0a3.878,3.878,0,0,0,2.16-.672l-.4-.72a2.809,2.809,0,0,1-1.632.516A2.159,2.159,0,0,1,32.184-3h4.392a4.263,4.263,0,0,0,.048-.624c0-1.86-.936-3.06-2.592-3.06a3.152,3.152,0,0,0-2.94,3.432A3.114,3.114,0,0,0,34.212.156ZM32.172-3.78a2,2,0,0,1,1.872-2.028c1.02,0,1.62.708,1.62,2.028Zm9.576.2L42.18-4.92c.312-1,.6-1.944.876-2.976H43.1c.288,1.02.564,1.98.888,2.976l.42,1.344ZM45.528,0H46.7L43.716-8.8H42.48L39.492,0H40.62l.852-2.688h3.216Zm2.136,0h1.092V-4.728a2.478,2.478,0,0,1,1.788-1c.864,0,1.236.516,1.236,1.74V0h1.092V-4.128c0-1.668-.624-2.556-1.992-2.556A3.125,3.125,0,0,0,48.7-5.58H48.66l-.1-.936h-.9Zm8.652.156a3.491,3.491,0,0,0,2.16-.936h.036l.1.78h.9V-4.008c0-1.608-.672-2.676-2.256-2.676a4.9,4.9,0,0,0-2.568.852l.432.756a3.59,3.59,0,0,1,1.956-.7c1.068,0,1.344.8,1.344,1.644-2.772.312-4.008,1.02-4.008,2.436A1.767,1.767,0,0,0,56.316.156Zm.312-.876c-.648,0-1.152-.3-1.152-1.044,0-.84.744-1.38,2.94-1.644v1.824A2.663,2.663,0,0,1,56.628-.72Zm5.928.876a1.725,1.725,0,0,0,.636-.1l-.156-.84a.959.959,0,0,1-.228.024c-.168,0-.312-.132-.312-.468V-9.552H61.4V-1.3C61.4-.372,61.74.156,62.556.156Zm2.2,2.652c1.3,0,1.968-.984,2.424-2.268l2.46-7.056H68.568L67.4-2.892c-.18.576-.372,1.236-.552,1.824h-.06c-.2-.588-.432-1.26-.624-1.824L64.836-6.516H63.7L66.312.012,66.168.5c-.264.8-.732,1.4-1.476,1.4A1.557,1.557,0,0,1,64.2,1.8l-.216.876A2.006,2.006,0,0,0,64.752,2.808ZM72.42.156C73.956.156,74.8-.72,74.8-1.776c0-1.236-1.044-1.62-1.992-1.98-.732-.276-1.44-.5-1.44-1.128,0-.5.372-.936,1.188-.936a2.452,2.452,0,0,1,1.5.576l.528-.708a3.376,3.376,0,0,0-2.028-.732c-1.416,0-2.244.816-2.244,1.848,0,1.1,1.032,1.548,1.944,1.884.72.276,1.488.576,1.488,1.236,0,.564-.42,1.02-1.284,1.02a2.955,2.955,0,0,1-1.932-.768l-.54.72A3.93,3.93,0,0,0,72.42.156ZM76.152,0h1.092V-6.516H76.152ZM76.7-7.86a.714.714,0,0,0,.756-.708.693.693,0,0,0-.756-.708.693.693,0,0,0-.756.708A.714.714,0,0,0,76.7-7.86ZM80.976.156c1.536,0,2.376-.876,2.376-1.932,0-1.236-1.044-1.62-1.992-1.98-.732-.276-1.44-.5-1.44-1.128,0-.5.372-.936,1.188-.936a2.452,2.452,0,0,1,1.5.576l.528-.708a3.376,3.376,0,0,0-2.028-.732c-1.416,0-2.244.816-2.244,1.848,0,1.1,1.032,1.548,1.944,1.884.72.276,1.488.576,1.488,1.236,0,.564-.42,1.02-1.284,1.02a2.955,2.955,0,0,1-1.932-.768l-.54.72A3.93,3.93,0,0,0,80.976.156Zm3.816,2.208a11.155,11.155,0,0,0,1.776-6.1,11.115,11.115,0,0,0-1.776-6.084L84.12-9.5a11.207,11.207,0,0,1,1.536,5.772A11.176,11.176,0,0,1,84.12,2.04Z" transform="translate(155.983 40.276)"/>
  <path id="패스_9590" data-name="패스 9590" class="cls-1" d="M588.589-205.837H711.44v-54H588.589Z" transform="translate(-311.143 259.837)"/>
  <path id="패스_9604" data-name="패스 9604" class="cls-2" d="M3.168.156a2.561,2.561,0,0,0,2.82-2.508A2.262,2.262,0,0,0,4.116-4.584v-.048A2.193,2.193,0,0,0,5.688-6.756c0-1.416-1.08-2.208-2.556-2.208A3.522,3.522,0,0,0,.672-7.908l.588.7a2.745,2.745,0,0,1,1.824-.876A1.374,1.374,0,0,1,4.572-6.672c0,.948-.624,1.68-2.436,1.68v.84c2.028,0,2.736.708,2.736,1.764A1.62,1.62,0,0,1,3.084-.756,2.908,2.908,0,0,1,.9-1.764l-.552.72A3.641,3.641,0,0,0,3.168.156ZM7.584,0H8.676V-4.188c.432-1.116,1.1-1.5,1.644-1.5a1.542,1.542,0,0,1,.636.108l.2-.96a1.389,1.389,0,0,0-.7-.144A2.25,2.25,0,0,0,8.616-5.328H8.58l-.1-1.188h-.9Zm6.564.156a2.906,2.906,0,0,0,1.98-.924h.024L16.26,0h.888V-9.552H16.056v2.508l.06,1.128a2.651,2.651,0,0,0-1.836-.768c-1.488,0-2.82,1.32-2.82,3.432C11.46-1.08,12.516.156,14.148.156Zm.24-.912c-1.152,0-1.8-.936-1.8-2.508,0-1.488.828-2.5,1.884-2.5a2.288,2.288,0,0,1,1.584.684v3.42A2.239,2.239,0,0,1,14.388-.756ZM24.24.156c1.836,0,2.988-1.1,2.988-2.5a2.45,2.45,0,0,0-1.812-2.352l-1.26-.54C23.472-5.52,22.7-5.844,22.7-6.7c0-.792.648-1.3,1.644-1.3a2.85,2.85,0,0,1,2,.828l.588-.708a3.607,3.607,0,0,0-2.592-1.092,2.5,2.5,0,0,0-2.772,2.34,2.485,2.485,0,0,0,1.788,2.256l1.272.552c.828.372,1.464.66,1.464,1.56,0,.864-.7,1.44-1.848,1.44a3.456,3.456,0,0,1-2.436-1.092l-.66.756A4.2,4.2,0,0,0,24.24.156Z" transform="translate(315.874 24.28)"/>
  <path id="패스_9605" data-name="패스 9605" class="cls-2" d="M3.156.156a4.1,4.1,0,0,0,1.2-.24L4.14-.9A2.308,2.308,0,0,1,3.4-.732c-.756,0-1.008-.456-1.008-1.26V-5.628H4.152v-.888H2.388V-8.34H1.476L1.344-6.516l-1.02.06v.828H1.3v3.612C1.3-.708,1.764.156,3.156.156Zm4.74,0a3.878,3.878,0,0,0,2.16-.672l-.4-.72A2.809,2.809,0,0,1,8.028-.72,2.159,2.159,0,0,1,5.868-3H10.26a4.263,4.263,0,0,0,.048-.624c0-1.86-.936-3.06-2.592-3.06a3.152,3.152,0,0,0-2.94,3.432A3.114,3.114,0,0,0,7.9.156ZM5.856-3.78A2,2,0,0,1,7.728-5.808c1.02,0,1.62.708,1.62,2.028Zm5.88,6.528h1.092V.54L12.8-.6a2.94,2.94,0,0,0,1.8.756c1.5,0,2.832-1.284,2.832-3.516,0-2-.912-3.324-2.592-3.324a3.475,3.475,0,0,0-2.076.912h-.036l-.1-.744h-.9Zm2.688-3.5a2.525,2.525,0,0,1-1.6-.684V-4.86a2.717,2.717,0,0,1,1.752-.9c1.236,0,1.716.972,1.716,2.412C16.3-1.728,15.5-.756,14.424-.756Z" transform="translate(343.797 24.28)"/>
  <text id="_3" data-name=" " class="cls-3" transform="translate(364.87 24.28)"><tspan x="0" y="0"> </tspan></text>
  <path id="패스_9606" data-name="패스 9606" class="cls-2" d="M2.868,2.364l.684-.324A11.062,11.062,0,0,1,2.016-3.732,11.092,11.092,0,0,1,3.552-9.5l-.684-.312A11.207,11.207,0,0,0,1.1-3.732,11.248,11.248,0,0,0,2.868,2.364ZM6.192-7.9H7.668c1.38,0,2.136.408,2.136,1.572,0,1.14-.756,1.692-2.136,1.692H6.192ZM11.172,0,8.916-3.852a2.386,2.386,0,0,0,1.992-2.472C10.908-8.16,9.624-8.8,7.836-8.8H5.076V0H6.192V-3.732H7.776L9.912,0Zm3.744.156a3.878,3.878,0,0,0,2.16-.672l-.4-.72a2.809,2.809,0,0,1-1.632.516A2.159,2.159,0,0,1,12.888-3H17.28a4.263,4.263,0,0,0,.048-.624c0-1.86-.936-3.06-2.592-3.06A3.152,3.152,0,0,0,11.8-3.252,3.114,3.114,0,0,0,14.916.156ZM12.876-3.78a2,2,0,0,1,1.872-2.028c1.02,0,1.62.708,1.62,2.028ZM20.46.156c1.536,0,2.376-.876,2.376-1.932,0-1.236-1.044-1.62-1.992-1.98-.732-.276-1.44-.5-1.44-1.128,0-.5.372-.936,1.188-.936a2.452,2.452,0,0,1,1.5.576l.528-.708a3.376,3.376,0,0,0-2.028-.732c-1.416,0-2.244.816-2.244,1.848,0,1.1,1.032,1.548,1.944,1.884.72.276,1.488.576,1.488,1.236,0,.564-.42,1.02-1.284,1.02a2.955,2.955,0,0,1-1.932-.768l-.54.72A3.93,3.93,0,0,0,20.46.156Zm6.264,0a3.111,3.111,0,0,0,3.024-3.408,3.126,3.126,0,0,0-3.024-3.432A3.126,3.126,0,0,0,23.7-3.252,3.111,3.111,0,0,0,26.724.156Zm0-.912c-1.128,0-1.884-1-1.884-2.5s.756-2.52,1.884-2.52,1.9,1.02,1.9,2.52S27.852-.756,26.724-.756Zm5.712.912a1.725,1.725,0,0,0,.636-.1l-.156-.84a.959.959,0,0,1-.228.024c-.168,0-.312-.132-.312-.468V-9.552H31.284V-1.3C31.284-.372,31.62.156,32.436.156ZM35.928,0H37.2l2.316-6.516h-1.08L37.2-2.808c-.192.636-.408,1.308-.6,1.92h-.048c-.2-.612-.408-1.284-.612-1.92L34.716-6.516h-1.14Zm7.248.156a3.878,3.878,0,0,0,2.16-.672l-.4-.72a2.809,2.809,0,0,1-1.632.516A2.159,2.159,0,0,1,41.148-3H45.54a4.263,4.263,0,0,0,.048-.624c0-1.86-.936-3.06-2.592-3.06a3.152,3.152,0,0,0-2.94,3.432A3.114,3.114,0,0,0,43.176.156ZM41.136-3.78a2,2,0,0,1,1.872-2.028c1.02,0,1.62.708,1.62,2.028ZM51.576.156a4.1,4.1,0,0,0,1.2-.24L52.56-.9a2.308,2.308,0,0,1-.744.168c-.756,0-1.008-.456-1.008-1.26V-5.628h1.764v-.888H50.808V-8.34H49.9l-.132,1.824-1.02.06v.828h.972v3.612C49.716-.708,50.184.156,51.576.156ZM53.868,0H54.96V-4.728a2.478,2.478,0,0,1,1.788-1c.864,0,1.236.516,1.236,1.74V0h1.092V-4.128c0-1.668-.624-2.556-1.992-2.556a3.059,3.059,0,0,0-2.16,1.092l.036-1.344V-9.552H53.868ZM63.6.156a3.878,3.878,0,0,0,2.16-.672l-.4-.72a2.809,2.809,0,0,1-1.632.516A2.159,2.159,0,0,1,61.572-3h4.392a4.263,4.263,0,0,0,.048-.624c0-1.86-.936-3.06-2.592-3.06a3.152,3.152,0,0,0-2.94,3.432A3.114,3.114,0,0,0,63.6.156ZM61.56-3.78a2,2,0,0,1,1.872-2.028c1.02,0,1.62.708,1.62,2.028ZM69.948,0H71.04V-6.516H69.948ZM70.5-7.86a.714.714,0,0,0,.756-.708.693.693,0,0,0-.756-.708.693.693,0,0,0-.756.708A.714.714,0,0,0,70.5-7.86ZM74.772.156c1.536,0,2.376-.876,2.376-1.932,0-1.236-1.044-1.62-1.992-1.98-.732-.276-1.44-.5-1.44-1.128,0-.5.372-.936,1.188-.936a2.452,2.452,0,0,1,1.5.576l.528-.708A3.376,3.376,0,0,0,74.9-6.684c-1.416,0-2.244.816-2.244,1.848,0,1.1,1.032,1.548,1.944,1.884.72.276,1.488.576,1.488,1.236,0,.564-.42,1.02-1.284,1.02a2.955,2.955,0,0,1-1.932-.768l-.54.72A3.93,3.93,0,0,0,74.772.156Zm5.436,0c1.536,0,2.376-.876,2.376-1.932,0-1.236-1.044-1.62-1.992-1.98-.732-.276-1.44-.5-1.44-1.128,0-.5.372-.936,1.188-.936a2.452,2.452,0,0,1,1.5.576l.528-.708a3.376,3.376,0,0,0-2.028-.732c-1.416,0-2.244.816-2.244,1.848,0,1.1,1.032,1.548,1.944,1.884.72.276,1.488.576,1.488,1.236,0,.564-.42,1.02-1.284,1.02a2.955,2.955,0,0,1-1.932-.768l-.54.72A3.93,3.93,0,0,0,80.208.156Zm5.628,0A2.8,2.8,0,0,0,88-1.02h.036L88.116,0h.912V-6.516H87.936V-1.9c-.624.78-1.092,1.1-1.764,1.1-.864,0-1.224-.516-1.224-1.728v-4H83.856v4.128C83.856-.732,84.468.156,85.836.156Zm7.836,0a3.878,3.878,0,0,0,2.16-.672l-.4-.72A2.809,2.809,0,0,1,93.8-.72,2.159,2.159,0,0,1,91.644-3h4.392a4.263,4.263,0,0,0,.048-.624c0-1.86-.936-3.06-2.592-3.06a3.152,3.152,0,0,0-2.94,3.432A3.114,3.114,0,0,0,93.672.156ZM91.632-3.78A2,2,0,0,1,93.5-5.808c1.02,0,1.62.708,1.62,2.028ZM97.6,2.364a11.155,11.155,0,0,0,1.776-6.1A11.115,11.115,0,0,0,97.6-9.816l-.672.312A11.207,11.207,0,0,1,98.46-3.732,11.176,11.176,0,0,1,96.924,2.04Z" transform="translate(287.973 40.276)"/>
  <path id="패스_9591" data-name="패스 9591" class="cls-1" d="M727.311-205.837H850.162v-54H727.311Z" transform="translate(-311.143 259.837)"/>
  <path id="패스_9607" data-name="패스 9607" class="cls-2" d="M1.38-3.3l2-3c.252-.432.492-.864.708-1.3H4.14c-.024.456-.072,1.164-.072,1.6v2.7Zm4.9,0H5.112V-8.8H3.9L.24-3.144v.72H4.068V0H5.112V-2.424H6.276ZM9.636.156a4.1,4.1,0,0,0,1.2-.24L10.62-.9a2.308,2.308,0,0,1-.744.168c-.756,0-1.008-.456-1.008-1.26V-5.628h1.764v-.888H8.868V-8.34H7.956L7.824-6.516l-1.02.06v.828h.972v3.612C7.776-.708,8.244.156,9.636.156ZM11.928,0H13.02V-4.728a2.478,2.478,0,0,1,1.788-1c.864,0,1.236.516,1.236,1.74V0h1.092V-4.128c0-1.668-.624-2.556-1.992-2.556a3.059,3.059,0,0,0-2.16,1.092l.036-1.344V-9.552H11.928Z" transform="translate(468.54 24.28)"/>
  <text id="_4" data-name=" " class="cls-3" transform="translate(489.648 24.28)"><tspan x="0" y="0"> </tspan></text>
  <path id="패스_9608" data-name="패스 9608" class="cls-2" d="M2.868,2.364l.684-.324A11.062,11.062,0,0,1,2.016-3.732,11.092,11.092,0,0,1,3.552-9.5l-.684-.312A11.207,11.207,0,0,0,1.1-3.732,11.248,11.248,0,0,0,2.868,2.364ZM5.076,0H6.192V-3.948h3.36v-.936H6.192V-7.86h3.96V-8.8H5.076Zm8.7.156A3.111,3.111,0,0,0,16.8-3.252a3.126,3.126,0,0,0-3.024-3.432,3.126,3.126,0,0,0-3.024,3.432A3.111,3.111,0,0,0,13.776.156Zm0-.912c-1.128,0-1.884-1-1.884-2.5s.756-2.52,1.884-2.52,1.9,1.02,1.9,2.52S14.9-.756,13.776-.756Zm5.712.912a1.725,1.725,0,0,0,.636-.1l-.156-.84a.959.959,0,0,1-.228.024c-.168,0-.312-.132-.312-.468V-9.552H18.336V-1.3C18.336-.372,18.672.156,19.488.156Zm3.24,0a1.725,1.725,0,0,0,.636-.1l-.156-.84a.959.959,0,0,1-.228.024c-.168,0-.312-.132-.312-.468V-9.552H21.576V-1.3C21.576-.372,21.912.156,22.728.156Zm4.62,0a3.111,3.111,0,0,0,3.024-3.408,3.126,3.126,0,0,0-3.024-3.432,3.126,3.126,0,0,0-3.024,3.432A3.111,3.111,0,0,0,27.348.156Zm0-.912c-1.128,0-1.884-1-1.884-2.5s.756-2.52,1.884-2.52,1.9,1.02,1.9,2.52S28.476-.756,27.348-.756ZM32.892,0h1.284l.912-3.492c.168-.624.3-1.236.444-1.9h.06c.156.66.276,1.26.444,1.872L36.984,0H38.3l1.752-6.516H39.024l-.96,3.768c-.144.624-.264,1.212-.408,1.824h-.048c-.156-.612-.3-1.2-.456-1.824l-1.02-3.768H35.064L34.056-2.748c-.168.612-.3,1.212-.444,1.824h-.06c-.12-.612-.252-1.2-.384-1.824L32.2-6.516H31.08Zm7.86-2.94h3.072v-.84H40.752Zm6.432,3.1a2.8,2.8,0,0,0,2.16-1.176h.036L49.464,0h.912V-6.516H49.284V-1.9c-.624.78-1.092,1.1-1.764,1.1-.864,0-1.224-.516-1.224-1.728v-4H45.2v4.128C45.2-.732,45.816.156,47.184.156Zm5.208,2.592h1.092V.54L53.46-.6a2.94,2.94,0,0,0,1.8.756c1.5,0,2.832-1.284,2.832-3.516,0-2-.912-3.324-2.592-3.324a3.475,3.475,0,0,0-2.076.912h-.036l-.1-.744h-.9Zm2.688-3.5a2.525,2.525,0,0,1-1.6-.684V-4.86a2.717,2.717,0,0,1,1.752-.9c1.236,0,1.716.972,1.716,2.412C56.952-1.728,56.16-.756,55.08-.756Zm4.656,3.12a11.155,11.155,0,0,0,1.776-6.1,11.115,11.115,0,0,0-1.776-6.084l-.672.312A11.207,11.207,0,0,1,60.6-3.732,11.176,11.176,0,0,1,59.064,2.04Z" transform="translate(446.292 40.276)"/>
  <path id="패스_9592" data-name="패스 9592" class="cls-4" d="M0,0,4.727,4.721,0,9.442" transform="translate(128.249 22.364)"/>
  <path id="패스_9593" data-name="패스 9593" class="cls-4" d="M0,0,4.727,4.721,0,9.442" transform="translate(266.971 22.364)"/>
  <path id="패스_9594" data-name="패스 9594" class="cls-4" d="M0,0,4.727,4.721,0,9.442" transform="translate(405.694 22.364)"/>
</svg>
