<svg xmlns="http://www.w3.org/2000/svg" width="475.991" height="274.801" viewBox="0 0 475.991 274.801">
  <defs>
    <style>
      .cls-1, .cls-10, .cls-12, .cls-15, .cls-16, .cls-2, .cls-7, .cls-8, .cls-9 {
        fill: none;
      }

      .cls-1, .cls-12, .cls-16, .cls-2, .cls-7 {
        stroke: #42454a;
      }

      .cls-1, .cls-10, .cls-15, .cls-16, .cls-2, .cls-8, .cls-9 {
        stroke-linecap: round;
        stroke-linejoin: round;
      }

      .cls-1 {
        stroke-dasharray: 0 2;
      }

      .cls-3 {
        fill: #a7d2e6;
      }

      .cls-4 {
        fill: #1e2323;
      }

      .cls-5 {
        fill: #b8dbeb;
      }

      .cls-13, .cls-14, .cls-17, .cls-6 {
        fill: #1e498b;
      }

      .cls-7 {
        stroke-width: 0.99px;
      }

      .cls-10, .cls-15, .cls-8, .cls-9 {
        stroke: #5e6266;
      }

      .cls-10, .cls-12, .cls-15, .cls-8, .cls-9 {
        stroke-miterlimit: 10;
      }

      .cls-8 {
        stroke-dasharray: 0 2.982;
      }

      .cls-9 {
        stroke-dasharray: 0 3.003;
      }

      .cls-11 {
        fill: #fff;
        font-size: 12px;
        font-family: NotoSansKR-Medium, Noto Sans KR;
        font-weight: 500;
      }

      .cls-13, .cls-14, .cls-17 {
        font-size: 14px;
        font-family: NotoSansKR-Regular, Noto Sans KR;
      }

      .cls-13 {
        letter-spacing: -0.016em;
      }

      .cls-15 {
        stroke-dasharray: 0 3.004;
      }

      .cls-16 {
        stroke-dasharray: 0 2.04;
      }

      .cls-17 {
        letter-spacing: -0.018em;
      }
    </style>
  </defs>
  <g id="구성_요소_93_1" data-name="구성 요소 93 – 1" transform="translate(0 0.348)">
    <path id="패스_9610" data-name="패스 9610" class="cls-1" d="M0,0H35" transform="translate(133.818 63.974)"/>
    <path id="패스_9611" data-name="패스 9611" class="cls-2" d="M0,0H0M38,0h0" transform="translate(131.818 63.974)"/>
    <path id="패스_9776" data-name="패스 9776" class="cls-3" d="M2.226-2.352A1.638,1.638,0,0,0,3.808-4.088,1.638,1.638,0,0,0,2.226-5.824,1.65,1.65,0,0,0,.616-4.088,1.65,1.65,0,0,0,2.226-2.352Z" transform="translate(4.318 162.137)"/>
    <path id="패스_9774" data-name="패스 9774" class="cls-4" transform="translate(8.545 162.137)"/>
    <path id="패스_9765" data-name="패스 9765" class="cls-4" d="M1.378,0H6.76V-.676h-4.6V-4.693H5.915v-.663H2.158V-8.814H6.617v-.663H1.378Z" transform="translate(12.25 162.137)"/>
    <path id="패스_9766" data-name="패스 9766" class="cls-4" d="M1.3,0h.754V-5.187c.806-.832,1.378-1.248,2.184-1.248,1.066,0,1.521.663,1.521,2.106V0h.754V-4.433c0-1.781-.663-2.678-2.106-2.678A3.408,3.408,0,0,0,2.041-5.876H2.015L1.924-6.929H1.3Z" transform="translate(19.578 162.137)"/>
    <path id="패스_9767" data-name="패스 9767" class="cls-4" d="M1.3,0h.754V-5.187c.806-.832,1.378-1.248,2.184-1.248,1.066,0,1.521.663,1.521,2.106V0h.754V-4.433c0-1.781-.663-2.678-2.106-2.678A3.375,3.375,0,0,0,2.041-5.863l.013-1.508v-2.964H1.3Z" transform="translate(27.199 162.137)"/>
    <path id="패스_9768" data-name="패스 9768" class="cls-4" d="M2.834.169A3.994,3.994,0,0,0,5.252-.884h.026L5.356,0h.637V-4.394c0-1.534-.585-2.717-2.236-2.717a4.805,4.805,0,0,0-2.626.91l.338.546a3.747,3.747,0,0,1,2.184-.793c1.313,0,1.612,1.066,1.586,2.093C2.184-4,.819-3.276.819-1.742A1.828,1.828,0,0,0,2.834.169ZM2.99-.468A1.249,1.249,0,0,1,1.573-1.781c0-1.066.936-1.7,3.666-2.015v2.249A3.415,3.415,0,0,1,2.99-.468ZM8.411,0h.754V-5.187c.806-.832,1.378-1.248,2.184-1.248,1.066,0,1.521.663,1.521,2.106V0h.754V-4.433c0-1.781-.663-2.678-2.106-2.678A3.408,3.408,0,0,0,9.152-5.876H9.126L9.035-6.929H8.411ZM18.72.169a3.353,3.353,0,0,0,2.21-.9l-.364-.52a2.768,2.768,0,0,1-1.807.767c-1.456,0-2.418-1.209-2.418-2.977s1.053-2.99,2.431-2.99a2.275,2.275,0,0,1,1.586.7l.429-.52a2.931,2.931,0,0,0-2.028-.845c-1.716,0-3.211,1.339-3.211,3.653S16.913.169,18.72.169Z" transform="translate(34.755 162.137)"/>
    <path id="패스_9769" data-name="패스 9769" class="cls-4" d="M3.952.169a3.877,3.877,0,0,0,2.21-.676l-.286-.559a3.1,3.1,0,0,1-1.846.6c-1.5,0-2.5-1.183-2.535-2.873H6.409a3.6,3.6,0,0,0,.039-.546c0-2.028-1-3.224-2.678-3.224C2.2-7.111.728-5.707.728-3.458.728-1.183,2.171.169,3.952.169ZM1.5-3.939A2.468,2.468,0,0,1,3.783-6.461c1.209,0,1.976.845,1.976,2.522ZM13.13.169a3.92,3.92,0,0,0,1.157-.26L14.1-.676a2.424,2.424,0,0,1-.845.195c-.923,0-1.157-.572-1.157-1.443V-6.292h1.989v-.637H12.1v-2h-.637l-.091,2-1.1.065v.572h1.079v4.316C11.349-.689,11.765.169,13.13.169ZM15.756,0h.754V-5.187c.806-.832,1.378-1.248,2.184-1.248,1.066,0,1.521.663,1.521,2.106V0h.754V-4.433c0-1.781-.663-2.678-2.106-2.678A3.375,3.375,0,0,0,16.5-5.863l.013-1.508v-2.964h-.754ZM26.065.169a3.877,3.877,0,0,0,2.21-.676l-.286-.559a3.1,3.1,0,0,1-1.846.6c-1.5,0-2.5-1.183-2.535-2.873h4.914a3.6,3.6,0,0,0,.039-.546c0-2.028-1-3.224-2.678-3.224-1.573,0-3.042,1.4-3.042,3.653C22.841-1.183,24.284.169,26.065.169ZM23.608-3.939A2.468,2.468,0,0,1,25.9-6.461c1.209,0,1.976.845,1.976,2.522ZM33.293,0h.754V-6.929h-.754Zm.39-8.554a.614.614,0,0,0,.637-.6.611.611,0,0,0-.637-.624.6.6,0,0,0-.637.624A.606.606,0,0,0,33.683-8.554ZM38.935.169a3.212,3.212,0,0,0,2.223-1.04h.026L41.275,0H41.9V-10.335h-.754v2.821L41.2-6.266a3.112,3.112,0,0,0-2.067-.845c-1.638,0-3.068,1.417-3.068,3.653C36.062-1.131,37.193.169,38.935.169Zm.13-.663c-1.4,0-2.2-1.17-2.2-2.964,0-1.7,1.014-2.99,2.34-2.99a2.8,2.8,0,0,1,1.937.858v4A2.9,2.9,0,0,1,39.065-.494Zm8.086.663a3.877,3.877,0,0,0,2.21-.676l-.286-.559a3.1,3.1,0,0,1-1.846.6c-1.495,0-2.5-1.183-2.535-2.873h4.914a3.6,3.6,0,0,0,.039-.546c0-2.028-1-3.224-2.678-3.224-1.573,0-3.042,1.4-3.042,3.653C43.927-1.183,45.37.169,47.151.169ZM44.694-3.939a2.468,2.468,0,0,1,2.288-2.522c1.209,0,1.976.845,1.976,2.522ZM51.493,0h.754V-5.187c.806-.832,1.378-1.248,2.184-1.248,1.066,0,1.521.663,1.521,2.106V0h.754V-4.433c0-1.781-.663-2.678-2.106-2.678a3.408,3.408,0,0,0-2.366,1.235h-.026l-.091-1.053h-.624Z" transform="translate(55.93 162.137)"/>
    <path id="패스_9770" data-name="패스 9770" class="cls-4" d="M3.25.169a3.92,3.92,0,0,0,1.157-.26L4.225-.676a2.424,2.424,0,0,1-.845.195c-.923,0-1.157-.572-1.157-1.443V-6.292H4.212v-.637H2.223v-2H1.586l-.091,2L.39-6.864v.572H1.469v4.316C1.469-.689,1.885.169,3.25.169ZM5.876,0H6.63V-6.929H5.876Zm.39-8.554a.614.614,0,0,0,.637-.6.611.611,0,0,0-.637-.624.6.6,0,0,0-.637.624A.606.606,0,0,0,6.266-8.554Zm5.889-1.716a2.636,2.636,0,0,0-1.04-.234c-1.17,0-1.781.741-1.781,2.119v1.456l-.962.065v.572h.962V0h.754V-6.292h1.573v-.637H10.088V-8.346c0-.975.325-1.521,1.066-1.521a1.98,1.98,0,0,1,.819.195Z" transform="translate(115.669 162.137)"/>
    <path id="패스_9771" data-name="패스 9771" class="cls-4" d="M1.3,0h.754V-6.929H1.3Zm.39-8.554a.614.614,0,0,0,.637-.6.611.611,0,0,0-.637-.624.6.6,0,0,0-.637.624A.606.606,0,0,0,1.69-8.554ZM7.241.169a3.353,3.353,0,0,0,2.21-.9l-.364-.52A2.768,2.768,0,0,1,7.28-.481c-1.456,0-2.418-1.209-2.418-2.977s1.053-2.99,2.431-2.99a2.275,2.275,0,0,1,1.586.7l.429-.52A2.931,2.931,0,0,0,7.28-7.111c-1.716,0-3.211,1.339-3.211,3.653S5.434.169,7.241.169Zm5.278,0A3.994,3.994,0,0,0,14.937-.884h.026L15.041,0h.637V-4.394c0-1.534-.585-2.717-2.236-2.717a4.805,4.805,0,0,0-2.626.91l.338.546a3.747,3.747,0,0,1,2.184-.793c1.313,0,1.612,1.066,1.586,2.093C11.869-4,10.5-3.276,10.5-1.742A1.828,1.828,0,0,0,12.519.169Zm.156-.637a1.249,1.249,0,0,1-1.417-1.313c0-1.066.936-1.7,3.666-2.015v2.249A3.415,3.415,0,0,1,12.675-.468Z" transform="translate(127.737 162.137)"/>
    <path id="패스_9772" data-name="패스 9772" class="cls-4" d="M3.25.169a3.92,3.92,0,0,0,1.157-.26L4.225-.676a2.424,2.424,0,0,1-.845.195c-.923,0-1.157-.572-1.157-1.443V-6.292H4.212v-.637H2.223v-2H1.586l-.091,2L.39-6.864v.572H1.469v4.316C1.469-.689,1.885.169,3.25.169ZM5.876,0H6.63V-6.929H5.876Zm.39-8.554a.614.614,0,0,0,.637-.6.611.611,0,0,0-.637-.624.6.6,0,0,0-.637.624A.606.606,0,0,0,6.266-8.554Z" transform="translate(144.654 162.137)"/>
    <path id="패스_9773" data-name="패스 9773" class="cls-4" d="M3.861.169c1.677,0,3.133-1.326,3.133-3.627S5.538-7.111,3.861-7.111.728-5.772.728-3.458,2.184.169,3.861.169Zm0-.65c-1.352,0-2.34-1.209-2.34-2.977s.988-2.99,2.34-2.99,2.353,1.222,2.353,2.99S5.213-.481,3.861-.481ZM9.022,0h.754V-5.187c.806-.832,1.378-1.248,2.184-1.248,1.066,0,1.521.663,1.521,2.106V0h.754V-4.433c0-1.781-.663-2.678-2.106-2.678A3.408,3.408,0,0,0,9.763-5.876H9.737L9.646-6.929H9.022Z" transform="translate(152.493 162.137)"/>
    <path id="패스_9755" data-name="패스 9755" class="cls-4" d="M1.3,3.094h.754V.6L2.041-.676A3.423,3.423,0,0,0,4.082.169c1.625,0,3.055-1.378,3.055-3.744,0-2.132-.936-3.536-2.782-3.536A4.029,4.029,0,0,0,2.041-6.084H2.015l-.091-.845H1.3ZM4.017-.494a3.179,3.179,0,0,1-1.963-.845v-4a3.474,3.474,0,0,1,2.158-1.1c1.547,0,2.119,1.209,2.119,2.873C6.331-1.716,5.369-.494,4.017-.494ZM9.165,0h.754V-4.654C10.426-5.941,11.167-6.4,11.778-6.4a1.465,1.465,0,0,1,.637.117l.156-.676a1.4,1.4,0,0,0-.7-.156A2.384,2.384,0,0,0,9.906-5.642H9.88L9.789-6.929H9.165ZM16.25.169c1.677,0,3.133-1.326,3.133-3.627S17.927-7.111,16.25-7.111s-3.133,1.339-3.133,3.653S14.573.169,16.25.169Zm0-.65c-1.352,0-2.34-1.209-2.34-2.977s.988-2.99,2.34-2.99S18.6-5.226,18.6-3.458,17.6-.481,16.25-.481Zm7.761.65a3.353,3.353,0,0,0,2.21-.9l-.364-.52a2.768,2.768,0,0,1-1.807.767c-1.456,0-2.418-1.209-2.418-2.977s1.053-2.99,2.431-2.99a2.275,2.275,0,0,1,1.586.7l.429-.52a2.931,2.931,0,0,0-2.028-.845c-1.716,0-3.211,1.339-3.211,3.653S22.2.169,24.011.169Z" transform="translate(12.25 182.644)"/>
    <path id="패스_9756" data-name="패스 9756" class="cls-4" d="M3.952.169a3.877,3.877,0,0,0,2.21-.676l-.286-.559a3.1,3.1,0,0,1-1.846.6c-1.5,0-2.5-1.183-2.535-2.873H6.409a3.6,3.6,0,0,0,.039-.546c0-2.028-1-3.224-2.678-3.224C2.2-7.111.728-5.707.728-3.458.728-1.183,2.171.169,3.952.169ZM1.5-3.939A2.468,2.468,0,0,1,3.783-6.461c1.209,0,1.976.845,1.976,2.522ZM10,.169c1.534,0,2.379-.91,2.379-1.976,0-1.339-1.17-1.716-2.236-2.119-.806-.3-1.612-.585-1.612-1.352,0-.624.468-1.2,1.495-1.2a2.657,2.657,0,0,1,1.651.624l.39-.52a3.347,3.347,0,0,0-2.015-.741c-1.456,0-2.275.858-2.275,1.872,0,1.2,1.144,1.625,2.171,1.989.806.286,1.677.663,1.677,1.482,0,.715-.533,1.313-1.586,1.313a3.174,3.174,0,0,1-2.184-.871l-.4.546A4.06,4.06,0,0,0,10,.169Zm5.876,0c1.534,0,2.379-.91,2.379-1.976,0-1.339-1.17-1.716-2.236-2.119-.806-.3-1.612-.585-1.612-1.352,0-.624.468-1.2,1.495-1.2a2.657,2.657,0,0,1,1.651.624l.39-.52a3.347,3.347,0,0,0-2.015-.741c-1.456,0-2.275.858-2.275,1.872,0,1.2,1.144,1.625,2.171,1.989.806.286,1.677.663,1.677,1.482,0,.715-.533,1.313-1.586,1.313a3.174,3.174,0,0,1-2.184-.871l-.4.546A4.06,4.06,0,0,0,15.873.169ZM24,0h.91l1.131-4.147c.221-.676.377-1.326.533-2.015h.065c.195.689.325,1.326.52,1.989L28.327,0H29.3l1.95-6.929h-.741L29.328-2.561C29.159-1.9,29-1.3,28.847-.676H28.8c-.182-.624-.338-1.222-.507-1.885L27.053-6.929h-.832L24.986-2.561c-.169.65-.325,1.261-.494,1.885h-.065c-.13-.624-.286-1.222-.442-1.885L22.776-6.929H21.97ZM32.89,0h.754V-5.187c.806-.832,1.378-1.248,2.184-1.248,1.066,0,1.521.663,1.521,2.106V0H38.1V-4.433c0-1.781-.663-2.678-2.106-2.678a3.375,3.375,0,0,0-2.366,1.248l.013-1.508v-2.964H32.89ZM43.2.169a3.877,3.877,0,0,0,2.21-.676l-.286-.559a3.1,3.1,0,0,1-1.846.6c-1.495,0-2.5-1.183-2.535-2.873h4.914a3.6,3.6,0,0,0,.039-.546c0-2.028-1-3.224-2.678-3.224-1.573,0-3.042,1.4-3.042,3.653C39.975-1.183,41.418.169,43.2.169ZM40.742-3.939A2.468,2.468,0,0,1,43.03-6.461c1.209,0,1.976.845,1.976,2.522ZM47.541,0H48.3V-5.187c.806-.832,1.378-1.248,2.184-1.248,1.066,0,1.521.663,1.521,2.106V0h.754V-4.433c0-1.781-.663-2.678-2.106-2.678a3.408,3.408,0,0,0-2.366,1.235h-.026l-.091-1.053h-.624Zm12.3.169c1.534,0,2.379-.91,2.379-1.976,0-1.339-1.17-1.716-2.236-2.119-.806-.3-1.612-.585-1.612-1.352,0-.624.468-1.2,1.495-1.2a2.657,2.657,0,0,1,1.651.624l.39-.52a3.347,3.347,0,0,0-2.015-.741c-1.456,0-2.275.858-2.275,1.872,0,1.2,1.144,1.625,2.171,1.989.806.286,1.677.663,1.677,1.482,0,.715-.533,1.313-1.586,1.313a3.174,3.174,0,0,1-2.184-.871l-.4.546A4.06,4.06,0,0,0,59.839.169ZM64.012,0h.754V-6.929h-.754Zm.39-8.554a.614.614,0,0,0,.637-.6.611.611,0,0,0-.637-.624.6.6,0,0,0-.637.624A.606.606,0,0,0,64.4-8.554Z" transform="translate(38.981 182.644)"/>
    <path id="패스_9757" data-name="패스 9757" class="cls-4" d="M3.575,3.3C5.6,3.3,6.9,2.158,6.9.949c0-1.105-.741-1.6-2.314-1.6H3.133c-1,0-1.3-.377-1.3-.871a1.192,1.192,0,0,1,.546-.962A2.343,2.343,0,0,0,3.5-2.2,2.385,2.385,0,0,0,5.941-4.641a2.21,2.21,0,0,0-.715-1.664h1.56v-.624H4.42A2.464,2.464,0,0,0,3.5-7.111,2.42,2.42,0,0,0,1.014-4.654,2.509,2.509,0,0,0,1.9-2.769v.052A1.723,1.723,0,0,0,1.131-1.43,1.243,1.243,0,0,0,1.755-.312v.065A2.106,2.106,0,0,0,.715,1.4C.715,2.574,1.846,3.3,3.575,3.3ZM3.5-2.769A1.776,1.776,0,0,1,1.768-4.654,1.72,1.72,0,0,1,3.5-6.5,1.717,1.717,0,0,1,5.213-4.654,1.774,1.774,0,0,1,3.5-2.769Zm.169,5.5c-1.417,0-2.236-.572-2.236-1.417A1.738,1.738,0,0,1,2.288-.078a4.873,4.873,0,0,0,.871.117H4.576C5.6.039,6.149.312,6.149,1.053,6.149,1.885,5.174,2.73,3.666,2.73ZM8.359,0h.754V-5.187c.806-.832,1.378-1.248,2.184-1.248,1.066,0,1.521.663,1.521,2.106V0h.754V-4.433c0-1.781-.663-2.678-2.106-2.678A3.408,3.408,0,0,0,9.1-5.876H9.074L8.983-6.929H8.359Z" transform="translate(105.279 182.644)"/>
    <path id="패스_9758" data-name="패스 9758" class="cls-4" d="M1.3,0h.754V-6.929H1.3Zm.39-8.554a.614.614,0,0,0,.637-.6.611.611,0,0,0-.637-.624.6.6,0,0,0-.637.624A.606.606,0,0,0,1.69-8.554Z" transform="translate(120 182.644)"/>
    <path id="패스_9759" data-name="패스 9759" class="cls-4" d="M1.3,0h.754V-5.187c.806-.832,1.378-1.248,2.184-1.248,1.066,0,1.521.663,1.521,2.106V0h.754V-4.433c0-1.781-.663-2.678-2.106-2.678A3.408,3.408,0,0,0,2.041-5.876H2.015L1.924-6.929H1.3Z" transform="translate(123.132 182.644)"/>
    <path id="패스_9760" data-name="패스 9760" class="cls-4" d="M3.575,3.3C5.6,3.3,6.9,2.158,6.9.949c0-1.105-.741-1.6-2.314-1.6H3.133c-1,0-1.3-.377-1.3-.871a1.192,1.192,0,0,1,.546-.962A2.343,2.343,0,0,0,3.5-2.2,2.385,2.385,0,0,0,5.941-4.641a2.21,2.21,0,0,0-.715-1.664h1.56v-.624H4.42A2.464,2.464,0,0,0,3.5-7.111,2.42,2.42,0,0,0,1.014-4.654,2.509,2.509,0,0,0,1.9-2.769v.052A1.723,1.723,0,0,0,1.131-1.43,1.243,1.243,0,0,0,1.755-.312v.065A2.106,2.106,0,0,0,.715,1.4C.715,2.574,1.846,3.3,3.575,3.3ZM3.5-2.769A1.776,1.776,0,0,1,1.768-4.654,1.72,1.72,0,0,1,3.5-6.5,1.717,1.717,0,0,1,5.213-4.654,1.774,1.774,0,0,1,3.5-2.769Zm.169,5.5c-1.417,0-2.236-.572-2.236-1.417A1.738,1.738,0,0,1,2.288-.078a4.873,4.873,0,0,0,.871.117H4.576C5.6.039,6.149.312,6.149,1.053,6.149,1.885,5.174,2.73,3.666,2.73Z" transform="translate(130.738 182.644)"/>
    <path id="패스_9761" data-name="패스 9761" class="cls-4" d="M3.9.169a3.353,3.353,0,0,0,2.21-.9l-.364-.52a2.768,2.768,0,0,1-1.807.767c-1.456,0-2.418-1.209-2.418-2.977s1.053-2.99,2.431-2.99a2.275,2.275,0,0,1,1.586.7l.429-.52a2.931,2.931,0,0,0-2.028-.845C2.223-7.111.728-5.772.728-3.458S2.093.169,3.9.169Zm5.954,0c1.677,0,3.133-1.326,3.133-3.627S11.531-7.111,9.854-7.111,6.721-5.772,6.721-3.458,8.177.169,9.854.169Zm0-.65c-1.352,0-2.34-1.209-2.34-2.977s.988-2.99,2.34-2.99,2.353,1.222,2.353,2.99S11.206-.481,9.854-.481ZM14.794,0h.754V-5.187c.806-.832,1.378-1.248,2.184-1.248,1.066,0,1.521.663,1.521,2.106V0h.754V-4.433c0-1.781-.663-2.678-2.106-2.678a3.408,3.408,0,0,0-2.366,1.235h-.026l-.091-1.053h-.624Zm9.438.169a3.92,3.92,0,0,0,1.157-.26l-.182-.585a2.424,2.424,0,0,1-.845.195c-.923,0-1.157-.572-1.157-1.443V-6.292h1.989v-.637H23.2v-2h-.637l-.091,2-1.105.065v.572h1.079v4.316C22.451-.689,22.867.169,24.232.169Z" transform="translate(12.25 203.151)"/>
    <path id="패스_9753" data-name="패스 9753" class="cls-4" d="M1.3,0h.754V-4.654C2.561-5.941,3.3-6.4,3.913-6.4a1.465,1.465,0,0,1,.637.117l.156-.676A1.4,1.4,0,0,0,4-7.111,2.384,2.384,0,0,0,2.041-5.642H2.015L1.924-6.929H1.3Z" transform="translate(38.592 203.151)"/>
    <path id="패스_9743" data-name="패스 9743" class="cls-4" d="M2.834.169A3.994,3.994,0,0,0,5.252-.884h.026L5.356,0h.637V-4.394c0-1.534-.585-2.717-2.236-2.717a4.805,4.805,0,0,0-2.626.91l.338.546a3.747,3.747,0,0,1,2.184-.793c1.313,0,1.612,1.066,1.586,2.093C2.184-4,.819-3.276.819-1.742A1.828,1.828,0,0,0,2.834.169ZM2.99-.468A1.249,1.249,0,0,1,1.573-1.781c0-1.066.936-1.7,3.666-2.015v2.249A3.415,3.415,0,0,1,2.99-.468Zm7.8.637A3.353,3.353,0,0,0,13-.728l-.364-.52a2.768,2.768,0,0,1-1.807.767c-1.456,0-2.418-1.209-2.418-2.977s1.053-2.99,2.431-2.99a2.275,2.275,0,0,1,1.586.7l.429-.52a2.931,2.931,0,0,0-2.028-.845c-1.716,0-3.211,1.339-3.211,3.653S8.983.169,10.79.169Z" transform="translate(43.454 203.151)"/>
    <path id="패스_9744" data-name="패스 9744" class="cls-4" d="M3.25.169a3.92,3.92,0,0,0,1.157-.26L4.225-.676a2.424,2.424,0,0,1-.845.195c-.923,0-1.157-.572-1.157-1.443V-6.292H4.212v-.637H2.223v-2H1.586l-.091,2L.39-6.864v.572H1.469v4.316C1.469-.689,1.885.169,3.25.169Z" transform="translate(57.487 203.151)"/>
    <path id="패스_9745" data-name="패스 9745" class="cls-4" d="M3,.169c1.534,0,2.379-.91,2.379-1.976,0-1.339-1.17-1.716-2.236-2.119-.806-.3-1.612-.585-1.612-1.352,0-.624.468-1.2,1.5-1.2A2.657,2.657,0,0,1,4.68-5.85l.39-.52a3.347,3.347,0,0,0-2.015-.741C1.6-7.111.78-6.253.78-5.239c0,1.2,1.144,1.625,2.171,1.989.806.286,1.677.663,1.677,1.482,0,.715-.533,1.313-1.586,1.313A3.174,3.174,0,0,1,.858-1.326l-.4.546A4.06,4.06,0,0,0,3,.169Z" transform="translate(62.488 203.151)"/>
    <path id="패스_9777" data-name="패스 9777" class="cls-3" d="M2.226-2.352A1.638,1.638,0,0,0,3.808-4.088,1.638,1.638,0,0,0,2.226-5.824,1.65,1.65,0,0,0,.616-4.088,1.65,1.65,0,0,0,2.226-2.352Z" transform="translate(4.318 230.137)"/>
    <path id="패스_9775" data-name="패스 9775" class="cls-4" transform="translate(8.545 230.137)"/>
    <path id="패스_9764" data-name="패스 9764" class="cls-4" d="M1.378,0h.78V-4H3.887c2.106,0,3.406-.91,3.406-2.808,0-1.963-1.313-2.665-3.458-2.665H1.378Zm.78-4.654V-8.827H3.679c1.885,0,2.821.481,2.821,2.015S5.6-4.654,3.731-4.654Z" transform="translate(12.25 230.137)"/>
    <path id="패스_9746" data-name="패스 9746" class="cls-4" d="M1.3,0h.754V-4.654C2.561-5.941,3.3-6.4,3.913-6.4a1.465,1.465,0,0,1,.637.117l.156-.676A1.4,1.4,0,0,0,4-7.111,2.384,2.384,0,0,0,2.041-5.642H2.015L1.924-6.929H1.3ZM8.385.169c1.677,0,3.133-1.326,3.133-3.627S10.062-7.111,8.385-7.111,5.252-5.772,5.252-3.458,6.708.169,8.385.169Zm0-.65c-1.352,0-2.34-1.209-2.34-2.977s.988-2.99,2.34-2.99,2.353,1.222,2.353,2.99S9.737-.481,8.385-.481Zm6.6.481h.9l2.548-6.929h-.767L16.159-2.678c-.221.676-.468,1.378-.689,2h-.052c-.234-.624-.468-1.326-.689-2L13.234-6.929h-.819ZM19.9,0h.754V-6.929H19.9Zm.39-8.554a.614.614,0,0,0,.637-.6.611.611,0,0,0-.637-.624.6.6,0,0,0-.637.624A.606.606,0,0,0,20.293-8.554ZM25.545.169a3.212,3.212,0,0,0,2.223-1.04h.026L27.885,0h.624V-10.335h-.754v2.821l.052,1.248a3.112,3.112,0,0,0-2.067-.845c-1.638,0-3.068,1.417-3.068,3.653C22.672-1.131,23.8.169,25.545.169Zm.13-.663c-1.4,0-2.2-1.17-2.2-2.964,0-1.7,1.014-2.99,2.34-2.99a2.8,2.8,0,0,1,1.937.858v4A2.9,2.9,0,0,1,25.675-.494Zm8.086.663a3.877,3.877,0,0,0,2.21-.676l-.286-.559a3.1,3.1,0,0,1-1.846.6c-1.495,0-2.5-1.183-2.535-2.873h4.914a3.6,3.6,0,0,0,.039-.546c0-2.028-1-3.224-2.678-3.224-1.573,0-3.042,1.4-3.042,3.653C30.537-1.183,31.98.169,33.761.169ZM31.3-3.939a2.468,2.468,0,0,1,2.288-2.522c1.209,0,1.976.845,1.976,2.522ZM43.55.169c1.677,0,3.133-1.326,3.133-3.627S45.227-7.111,43.55-7.111s-3.133,1.339-3.133,3.653S41.873.169,43.55.169Zm0-.65c-1.352,0-2.34-1.209-2.34-2.977s.988-2.99,2.34-2.99S45.9-5.226,45.9-3.458,44.9-.481,43.55-.481Zm5.161,3.575h.754V.6L49.452-.676a3.423,3.423,0,0,0,2.041.845c1.625,0,3.055-1.378,3.055-3.744,0-2.132-.936-3.536-2.782-3.536a4.029,4.029,0,0,0-2.314,1.027h-.026l-.091-.845h-.624ZM51.428-.494a3.179,3.179,0,0,1-1.963-.845v-4a3.474,3.474,0,0,1,2.158-1.1c1.547,0,2.119,1.209,2.119,2.873C53.742-1.716,52.78-.494,51.428-.494Zm6.9.663a3.92,3.92,0,0,0,1.157-.26l-.182-.585a2.424,2.424,0,0,1-.845.195c-.923,0-1.157-.572-1.157-1.443V-6.292h1.989v-.637H57.3v-2h-.637l-.091,2-1.1.065v.572H56.55v4.316C56.55-.689,56.966.169,58.331.169ZM60.957,0h.754V-6.929h-.754Zm.39-8.554a.614.614,0,0,0,.637-.6.611.611,0,0,0-.637-.624.6.6,0,0,0-.637.624A.606.606,0,0,0,61.347-8.554Z" transform="translate(20.107 230.137)"/>
    <path id="패스_9736" data-name="패스 9736" class="cls-4" d="M3.861.169c1.677,0,3.133-1.326,3.133-3.627S5.538-7.111,3.861-7.111.728-5.772.728-3.458,2.184.169,3.861.169Zm0-.65c-1.352,0-2.34-1.209-2.34-2.977s.988-2.99,2.34-2.99,2.353,1.222,2.353,2.99S5.213-.481,3.861-.481ZM9.022,0h.754V-5.187c.806-.832,1.378-1.248,2.184-1.248,1.066,0,1.521.663,1.521,2.106V0h.754V-4.433c0-1.781-.663-2.678-2.106-2.678A3.408,3.408,0,0,0,9.763-5.876H9.737L9.646-6.929H9.022ZM21.567.169a3.92,3.92,0,0,0,1.157-.26l-.182-.585a2.424,2.424,0,0,1-.845.195c-.923,0-1.157-.572-1.157-1.443V-6.292h1.989v-.637H20.54v-2H19.9l-.091,2-1.105.065v.572h1.079v4.316C19.786-.689,20.2.169,21.567.169Z" transform="translate(83.165 230.137)"/>
    <path id="패스_9737" data-name="패스 9737" class="cls-4" d="M3.861.169c1.677,0,3.133-1.326,3.133-3.627S5.538-7.111,3.861-7.111.728-5.772.728-3.458,2.184.169,3.861.169Zm0-.65c-1.352,0-2.34-1.209-2.34-2.977s.988-2.99,2.34-2.99,2.353,1.222,2.353,2.99S5.213-.481,3.861-.481Zm9.581.65A3.994,3.994,0,0,0,15.86-.884h.026L15.964,0H16.6V-4.394c0-1.534-.585-2.717-2.236-2.717a4.805,4.805,0,0,0-2.626.91l.338.546a3.747,3.747,0,0,1,2.184-.793c1.313,0,1.612,1.066,1.586,2.093-3.055.351-4.42,1.079-4.42,2.613A1.828,1.828,0,0,0,13.442.169ZM13.6-.468a1.249,1.249,0,0,1-1.417-1.313c0-1.066.936-1.7,3.666-2.015v2.249A3.415,3.415,0,0,1,13.6-.468Zm8.021.637a3.353,3.353,0,0,0,2.21-.9l-.364-.52a2.768,2.768,0,0,1-1.807.767C20.2-.481,19.24-1.69,19.24-3.458s1.053-2.99,2.431-2.99a2.275,2.275,0,0,1,1.586.7l.429-.52a2.931,2.931,0,0,0-2.028-.845c-1.716,0-3.211,1.339-3.211,3.653S19.812.169,21.619.169Z" transform="translate(106.843 230.137)"/>
    <path id="패스_9738" data-name="패스 9738" class="cls-4" d="M3.9.169a3.353,3.353,0,0,0,2.21-.9l-.364-.52a2.768,2.768,0,0,1-1.807.767c-1.456,0-2.418-1.209-2.418-2.977s1.053-2.99,2.431-2.99a2.275,2.275,0,0,1,1.586.7l.429-.52a2.931,2.931,0,0,0-2.028-.845C2.223-7.111.728-5.772.728-3.458S2.093.169,3.9.169Z" transform="translate(131.961 230.137)"/>
    <path id="패스_9739" data-name="패스 9739" class="cls-4" d="M3.952.169a3.877,3.877,0,0,0,2.21-.676l-.286-.559a3.1,3.1,0,0,1-1.846.6c-1.5,0-2.5-1.183-2.535-2.873H6.409a3.6,3.6,0,0,0,.039-.546c0-2.028-1-3.224-2.678-3.224C2.2-7.111.728-5.707.728-3.458.728-1.183,2.171.169,3.952.169ZM1.5-3.939A2.468,2.468,0,0,1,3.783-6.461c1.209,0,1.976.845,1.976,2.522Zm6.8,7.033h.754V.6L9.035-.676a3.423,3.423,0,0,0,2.041.845c1.625,0,3.055-1.378,3.055-3.744,0-2.132-.936-3.536-2.782-3.536A4.029,4.029,0,0,0,9.035-6.084H9.009l-.091-.845H8.294ZM11.011-.494a3.179,3.179,0,0,1-1.963-.845v-4a3.474,3.474,0,0,1,2.158-1.1c1.547,0,2.119,1.209,2.119,2.873C13.325-1.716,12.363-.494,11.011-.494Zm6.9.663a3.92,3.92,0,0,0,1.157-.26l-.182-.585a2.424,2.424,0,0,1-.845.195c-.923,0-1.157-.572-1.157-1.443V-6.292h1.989v-.637H16.887v-2H16.25l-.091,2-1.105.065v.572h1.079v4.316C16.133-.689,16.549.169,17.914.169Z" transform="translate(138.337 230.137)"/>
    <path id="패스_9740" data-name="패스 9740" class="cls-4" d="M.13,2.3H.741l4.29-12.519H4.407Z" transform="translate(158.273 230.137)"/>
    <path id="패스_9747" data-name="패스 9747" class="cls-4" d="M1.3,0h.754V-4.654C2.561-5.941,3.3-6.4,3.913-6.4a1.465,1.465,0,0,1,.637.117l.156-.676A1.4,1.4,0,0,0,4-7.111,2.384,2.384,0,0,0,2.041-5.642H2.015L1.924-6.929H1.3ZM8.476.169a3.877,3.877,0,0,0,2.21-.676L10.4-1.066a3.1,3.1,0,0,1-1.846.6c-1.5,0-2.5-1.183-2.535-2.873h4.914a3.6,3.6,0,0,0,.039-.546c0-2.028-1-3.224-2.678-3.224-1.573,0-3.042,1.4-3.042,3.653C5.252-1.183,6.7.169,8.476.169ZM6.019-3.939A2.468,2.468,0,0,1,8.307-6.461c1.209,0,1.976.845,1.976,2.522Zm9.737-6.331a2.636,2.636,0,0,0-1.04-.234c-1.17,0-1.781.741-1.781,2.119v1.456l-.962.065v.572h.962V0h.754V-6.292h1.573v-.637H13.689V-8.346c0-.975.325-1.521,1.066-1.521a1.98,1.98,0,0,1,.819.195ZM18.681.169a3.076,3.076,0,0,0,2.34-1.313h.039L21.125,0h.637V-6.929h-.754v5.07c-.78.936-1.352,1.352-2.158,1.352-1.066,0-1.508-.663-1.508-2.08V-6.929h-.754V-2.5C16.588-.715,17.238.169,18.681.169Zm7.384,0c1.534,0,2.379-.91,2.379-1.976,0-1.339-1.17-1.716-2.236-2.119-.806-.3-1.612-.585-1.612-1.352,0-.624.468-1.2,1.495-1.2a2.657,2.657,0,0,1,1.651.624l.39-.52a3.347,3.347,0,0,0-2.015-.741c-1.456,0-2.275.858-2.275,1.872,0,1.2,1.144,1.625,2.171,1.989.806.286,1.677.663,1.677,1.482,0,.715-.533,1.313-1.586,1.313a3.174,3.174,0,0,1-2.184-.871l-.4.546A4.06,4.06,0,0,0,26.065.169Zm6.825,0A3.877,3.877,0,0,0,35.1-.507l-.286-.559a3.1,3.1,0,0,1-1.846.6c-1.495,0-2.5-1.183-2.535-2.873h4.914a3.6,3.6,0,0,0,.039-.546c0-2.028-1-3.224-2.678-3.224-1.573,0-3.042,1.4-3.042,3.653C29.666-1.183,31.109.169,32.89.169ZM30.433-3.939a2.468,2.468,0,0,1,2.288-2.522c1.209,0,1.976.845,1.976,2.522ZM42.419.169a3.212,3.212,0,0,0,2.223-1.04h.026L44.759,0h.624V-10.335h-.754v2.821l.052,1.248a3.112,3.112,0,0,0-2.067-.845c-1.638,0-3.068,1.417-3.068,3.653C39.546-1.131,40.677.169,42.419.169Zm.13-.663c-1.4,0-2.2-1.17-2.2-2.964,0-1.7,1.014-2.99,2.34-2.99a2.8,2.8,0,0,1,1.937.858v4A2.9,2.9,0,0,1,42.549-.494Z" transform="translate(12.25 250.644)"/>
    <path id="패스_9748" data-name="패스 9748" class="cls-4" d="M2.834.169A3.994,3.994,0,0,0,5.252-.884h.026L5.356,0h.637V-4.394c0-1.534-.585-2.717-2.236-2.717a4.805,4.805,0,0,0-2.626.91l.338.546a3.747,3.747,0,0,1,2.184-.793c1.313,0,1.612,1.066,1.586,2.093C2.184-4,.819-3.276.819-1.742A1.828,1.828,0,0,0,2.834.169ZM2.99-.468A1.249,1.249,0,0,1,1.573-1.781c0-1.066.936-1.7,3.666-2.015v2.249A3.415,3.415,0,0,1,2.99-.468Z" transform="translate(59.098 250.644)"/>
    <path id="패스_9749" data-name="패스 9749" class="cls-4" d="M3.25.169a3.92,3.92,0,0,0,1.157-.26L4.225-.676a2.424,2.424,0,0,1-.845.195c-.923,0-1.157-.572-1.157-1.443V-6.292H4.212v-.637H2.223v-2H1.586l-.091,2L.39-6.864v.572H1.469v4.316C1.469-.689,1.885.169,3.25.169ZM7.1.169A3.994,3.994,0,0,0,9.516-.884h.026L9.62,0h.637V-4.394c0-1.534-.585-2.717-2.236-2.717a4.805,4.805,0,0,0-2.626.91l.338.546a3.747,3.747,0,0,1,2.184-.793c1.313,0,1.612,1.066,1.586,2.093C6.448-4,5.083-3.276,5.083-1.742A1.828,1.828,0,0,0,7.1.169Zm.156-.637A1.249,1.249,0,0,1,5.837-1.781c0-1.066.936-1.7,3.666-2.015v2.249A3.415,3.415,0,0,1,7.254-.468ZM18.161.169a3.353,3.353,0,0,0,2.21-.9l-.364-.52A2.768,2.768,0,0,1,18.2-.481c-1.456,0-2.418-1.209-2.418-2.977s1.053-2.99,2.431-2.99a2.275,2.275,0,0,1,1.586.7l.429-.52A2.931,2.931,0,0,0,18.2-7.111c-1.716,0-3.211,1.339-3.211,3.653S16.354.169,18.161.169Z" transform="translate(66.128 250.644)"/>
    <path id="패스_9741" data-name="패스 9741" class="cls-4" d="M3.861.169c1.677,0,3.133-1.326,3.133-3.627S5.538-7.111,3.861-7.111.728-5.772.728-3.458,2.184.169,3.861.169Zm0-.65c-1.352,0-2.34-1.209-2.34-2.977s.988-2.99,2.34-2.99,2.353,1.222,2.353,2.99S5.213-.481,3.861-.481Zm6.084.65a1.528,1.528,0,0,0,.507-.078l-.117-.6a1.163,1.163,0,0,1-.247.026c-.182,0-.312-.143-.312-.468v-9.386H9.022v9.308C9.022-.221,9.321.169,9.945.169Z" transform="translate(88.167 250.644)"/>
    <path id="패스_9742" data-name="패스 9742" class="cls-4" d="M2.223.169A1.528,1.528,0,0,0,2.73.091l-.117-.6a1.163,1.163,0,0,1-.247.026c-.182,0-.312-.143-.312-.468v-9.386H1.3v9.308C1.3-.221,1.6.169,2.223.169Z" transform="translate(99.12 250.644)"/>
    <path id="패스_9733" data-name="패스 9733" class="cls-4" d="M3.952.169a3.877,3.877,0,0,0,2.21-.676l-.286-.559a3.1,3.1,0,0,1-1.846.6c-1.5,0-2.5-1.183-2.535-2.873H6.409a3.6,3.6,0,0,0,.039-.546c0-2.028-1-3.224-2.678-3.224C2.2-7.111.728-5.707.728-3.458.728-1.183,2.171.169,3.952.169ZM1.5-3.939A2.468,2.468,0,0,1,3.783-6.461c1.209,0,1.976.845,1.976,2.522Zm9.4,4.108a3.353,3.353,0,0,0,2.21-.9l-.364-.52a2.768,2.768,0,0,1-1.807.767c-1.456,0-2.418-1.209-2.418-2.977s1.053-2.99,2.431-2.99a2.275,2.275,0,0,1,1.586.7l.429-.52a2.931,2.931,0,0,0-2.028-.845c-1.716,0-3.211,1.339-3.211,3.653S9.087.169,10.894.169Z" transform="translate(102.425 250.644)"/>
    <path id="패스_9734" data-name="패스 9734" class="cls-4" d="M3.25.169a3.92,3.92,0,0,0,1.157-.26L4.225-.676a2.424,2.424,0,0,1-.845.195c-.923,0-1.157-.572-1.157-1.443V-6.292H4.212v-.637H2.223v-2H1.586l-.091,2L.39-6.864v.572H1.469v4.316C1.469-.689,1.885.169,3.25.169ZM5.876,0H6.63V-6.929H5.876Zm.39-8.554a.614.614,0,0,0,.637-.6.611.611,0,0,0-.637-.624.6.6,0,0,0-.637.624A.606.606,0,0,0,6.266-8.554Z" transform="translate(116.501 250.644)"/>
    <path id="패스_9731" data-name="패스 9731" class="cls-4" d="M3.861.169c1.677,0,3.133-1.326,3.133-3.627S5.538-7.111,3.861-7.111.728-5.772.728-3.458,2.184.169,3.861.169Zm0-.65c-1.352,0-2.34-1.209-2.34-2.977s.988-2.99,2.34-2.99,2.353,1.222,2.353,2.99S5.213-.481,3.861-.481ZM9.022,0h.754V-5.187c.806-.832,1.378-1.248,2.184-1.248,1.066,0,1.521.663,1.521,2.106V0h.754V-4.433c0-1.781-.663-2.678-2.106-2.678A3.408,3.408,0,0,0,9.763-5.876H9.737L9.646-6.929H9.022ZM22.555-10.27a2.636,2.636,0,0,0-1.04-.234c-1.17,0-1.781.741-1.781,2.119v1.456l-.962.065v.572h.962V0h.754V-6.292h1.573v-.637H20.488V-8.346c0-.975.325-1.521,1.066-1.521a1.98,1.98,0,0,1,.819.195ZM25.909.169c1.677,0,3.133-1.326,3.133-3.627s-1.456-3.653-3.133-3.653-3.133,1.339-3.133,3.653S24.232.169,25.909.169Zm0-.65c-1.352,0-2.34-1.209-2.34-2.977s.988-2.99,2.34-2.99,2.353,1.222,2.353,2.99S27.261-.481,25.909-.481ZM31.07,0h.754V-4.654C32.331-5.941,33.072-6.4,33.683-6.4a1.465,1.465,0,0,1,.637.117l.156-.676a1.4,1.4,0,0,0-.7-.156,2.384,2.384,0,0,0-1.963,1.469h-.026l-.091-1.287H31.07Z" transform="translate(124.339 250.644)"/>
    <path id="패스_9763" data-name="패스 9763" class="cls-4" d="M1.3,0h.754V-5.187a2.923,2.923,0,0,1,2-1.248c1.027,0,1.495.663,1.495,2.106V0h.754V-5.187a2.923,2.923,0,0,1,2-1.248c1.014,0,1.495.663,1.495,2.106V0h.754V-4.433c0-1.781-.689-2.678-2.08-2.678a3.462,3.462,0,0,0-2.34,1.4,1.8,1.8,0,0,0-1.911-1.4A3.218,3.218,0,0,0,2.041-5.876H2.015L1.924-6.929H1.3Z" transform="translate(12.25 271.151)"/>
    <path id="패스_9762" data-name="패스 9762" class="cls-4" d="M2.834.169A3.994,3.994,0,0,0,5.252-.884h.026L5.356,0h.637V-4.394c0-1.534-.585-2.717-2.236-2.717a4.805,4.805,0,0,0-2.626.91l.338.546a3.747,3.747,0,0,1,2.184-.793c1.313,0,1.612,1.066,1.586,2.093C2.184-4,.819-3.276.819-1.742A1.828,1.828,0,0,0,2.834.169ZM2.99-.468A1.249,1.249,0,0,1,1.573-1.781c0-1.066.936-1.7,3.666-2.015v2.249A3.415,3.415,0,0,1,2.99-.468Z" transform="translate(23.959 271.151)"/>
    <path id="패스_9754" data-name="패스 9754" class="cls-4" d="M1.3,0h.754V-4.654C2.561-5.941,3.3-6.4,3.913-6.4a1.465,1.465,0,0,1,.637.117l.156-.676A1.4,1.4,0,0,0,4-7.111,2.384,2.384,0,0,0,2.041-5.642H2.015L1.924-6.929H1.3ZM6.045,0H6.8V-1.872L8.294-3.64,10.53,0h.832L8.736-4.186,11-6.929H10.14L6.825-2.847H6.8v-7.488H6.045Z" transform="translate(31.008 271.151)"/>
    <path id="패스_9750" data-name="패스 9750" class="cls-4" d="M3.952.169a3.877,3.877,0,0,0,2.21-.676l-.286-.559a3.1,3.1,0,0,1-1.846.6c-1.5,0-2.5-1.183-2.535-2.873H6.409a3.6,3.6,0,0,0,.039-.546c0-2.028-1-3.224-2.678-3.224C2.2-7.111.728-5.707.728-3.458.728-1.183,2.171.169,3.952.169ZM1.5-3.939A2.468,2.468,0,0,1,3.783-6.461c1.209,0,1.976.845,1.976,2.522ZM10.179.169a3.92,3.92,0,0,0,1.157-.26l-.182-.585a2.424,2.424,0,0,1-.845.195c-.923,0-1.157-.572-1.157-1.443V-6.292h1.989v-.637H9.152v-2H8.515l-.091,2-1.105.065v.572H8.4v4.316C8.4-.689,8.814.169,10.179.169ZM12.883,0h.754V-6.929h-.754Zm.39-8.554a.614.614,0,0,0,.637-.6.611.611,0,0,0-.637-.624.6.6,0,0,0-.637.624A.606.606,0,0,0,13.273-8.554Z" transform="translate(42.427 271.151)"/>
    <path id="패스_9751" data-name="패스 9751" class="cls-4" d="M1.3,0h.754V-5.187c.806-.832,1.378-1.248,2.184-1.248,1.066,0,1.521.663,1.521,2.106V0h.754V-4.433c0-1.781-.663-2.678-2.106-2.678A3.408,3.408,0,0,0,2.041-5.876H2.015L1.924-6.929H1.3Z" transform="translate(57.278 271.151)"/>
    <path id="패스_9752" data-name="패스 9752" class="cls-4" d="M3.575,3.3C5.6,3.3,6.9,2.158,6.9.949c0-1.105-.741-1.6-2.314-1.6H3.133c-1,0-1.3-.377-1.3-.871a1.192,1.192,0,0,1,.546-.962A2.343,2.343,0,0,0,3.5-2.2,2.385,2.385,0,0,0,5.941-4.641a2.21,2.21,0,0,0-.715-1.664h1.56v-.624H4.42A2.464,2.464,0,0,0,3.5-7.111,2.42,2.42,0,0,0,1.014-4.654,2.509,2.509,0,0,0,1.9-2.769v.052A1.723,1.723,0,0,0,1.131-1.43,1.243,1.243,0,0,0,1.755-.312v.065A2.106,2.106,0,0,0,.715,1.4C.715,2.574,1.846,3.3,3.575,3.3ZM3.5-2.769A1.776,1.776,0,0,1,1.768-4.654,1.72,1.72,0,0,1,3.5-6.5,1.717,1.717,0,0,1,5.213-4.654,1.774,1.774,0,0,1,3.5-2.769Zm.169,5.5c-1.417,0-2.236-.572-2.236-1.417A1.738,1.738,0,0,1,2.288-.078a4.873,4.873,0,0,0,.871.117H4.576C5.6.039,6.149.312,6.149,1.053,6.149,1.885,5.174,2.73,3.666,2.73Zm7.735.364h.754V.6L12.142-.676a3.423,3.423,0,0,0,2.041.845c1.625,0,3.055-1.378,3.055-3.744,0-2.132-.936-3.536-2.782-3.536a4.029,4.029,0,0,0-2.314,1.027h-.026l-.091-.845H11.4ZM14.118-.494a3.179,3.179,0,0,1-1.963-.845v-4a3.474,3.474,0,0,1,2.158-1.1c1.547,0,2.119,1.209,2.119,2.873C16.432-1.716,15.47-.494,14.118-.494Zm7.215.663a3.076,3.076,0,0,0,2.34-1.313h.039L23.777,0h.637V-6.929H23.66v5.07C22.88-.923,22.308-.507,21.5-.507c-1.066,0-1.508-.663-1.508-2.08V-6.929H19.24V-2.5C19.24-.715,19.89.169,21.333.169Z" transform="translate(64.884 271.151)"/>
    <path id="패스_9735" data-name="패스 9735" class="cls-4" d="M1.3,0h.754V-4.654C2.561-5.941,3.3-6.4,3.913-6.4a1.465,1.465,0,0,1,.637.117l.156-.676A1.4,1.4,0,0,0,4-7.111,2.384,2.384,0,0,0,2.041-5.642H2.015L1.924-6.929H1.3ZM6.045,3.094H6.8V.6L6.786-.676A3.423,3.423,0,0,0,8.827.169c1.625,0,3.055-1.378,3.055-3.744,0-2.132-.936-3.536-2.782-3.536A4.029,4.029,0,0,0,6.786-6.084H6.76l-.091-.845H6.045ZM8.762-.494A3.179,3.179,0,0,1,6.8-1.339v-4a3.474,3.474,0,0,1,2.158-1.1c1.547,0,2.119,1.209,2.119,2.873C11.076-1.716,10.114-.494,8.762-.494Zm7.787.663c1.677,0,3.133-1.326,3.133-3.627s-1.456-3.653-3.133-3.653-3.133,1.339-3.133,3.653S14.872.169,16.549.169Zm0-.65c-1.352,0-2.34-1.209-2.34-2.977s.988-2.99,2.34-2.99S18.9-5.226,18.9-3.458,17.9-.481,16.549-.481Z" transform="translate(91.217 271.151)"/>
    <path id="패스_9732" data-name="패스 9732" class="cls-4" d="M3,.169c1.534,0,2.379-.91,2.379-1.976,0-1.339-1.17-1.716-2.236-2.119-.806-.3-1.612-.585-1.612-1.352,0-.624.468-1.2,1.5-1.2A2.657,2.657,0,0,1,4.68-5.85l.39-.52a3.347,3.347,0,0,0-2.015-.741C1.6-7.111.78-6.253.78-5.239c0,1.2,1.144,1.625,2.171,1.989.806.286,1.677.663,1.677,1.482,0,.715-.533,1.313-1.586,1.313A3.174,3.174,0,0,1,.858-1.326l-.4.546A4.06,4.06,0,0,0,3,.169Zm6.9,0a3.877,3.877,0,0,0,2.21-.676l-.286-.559a3.1,3.1,0,0,1-1.846.6c-1.495,0-2.5-1.183-2.535-2.873h4.914a3.6,3.6,0,0,0,.039-.546c0-2.028-1-3.224-2.678-3.224-1.573,0-3.042,1.4-3.042,3.653C6.682-1.183,8.125.169,9.906.169ZM7.449-3.939A2.468,2.468,0,0,1,9.737-6.461c1.209,0,1.976.845,1.976,2.522ZM16.029.169c1.534,0,2.379-.91,2.379-1.976,0-1.339-1.17-1.716-2.236-2.119-.806-.3-1.612-.585-1.612-1.352,0-.624.468-1.2,1.495-1.2a2.657,2.657,0,0,1,1.651.624l.39-.52a3.347,3.347,0,0,0-2.015-.741c-1.456,0-2.275.858-2.275,1.872,0,1.2,1.144,1.625,2.171,1.989.806.286,1.677.663,1.677,1.482,0,.715-.533,1.313-1.586,1.313a3.174,3.174,0,0,1-2.184-.871l-.4.546A4.06,4.06,0,0,0,16.029.169Z" transform="translate(111.779 271.151)"/>
    <path id="패스_9798" data-name="패스 9798" class="cls-3" d="M2.226-2.352A1.638,1.638,0,0,0,3.808-4.088,1.638,1.638,0,0,0,2.226-5.824,1.65,1.65,0,0,0,.616-4.088,1.65,1.65,0,0,0,2.226-2.352Z" transform="translate(181.682 164.478)"/>
    <path id="패스_9799" data-name="패스 9799" class="cls-4" d="M1.378,0H6.76V-.676h-4.6V-4.693H5.915v-.663H2.158V-8.814H6.617v-.663H1.378Z" transform="translate(189.62 164.478)"/>
    <path id="패스_9800" data-name="패스 9800" class="cls-4" d="M1.3,0h.754V-5.187c.806-.832,1.378-1.248,2.184-1.248,1.066,0,1.521.663,1.521,2.106V0h.754V-4.433c0-1.781-.663-2.678-2.106-2.678A3.408,3.408,0,0,0,2.041-5.876H2.015L1.924-6.929H1.3ZM11.609.169a3.353,3.353,0,0,0,2.21-.9l-.364-.52a2.768,2.768,0,0,1-1.807.767C10.192-.481,9.23-1.69,9.23-3.458s1.053-2.99,2.431-2.99a2.275,2.275,0,0,1,1.586.7l.429-.52a2.931,2.931,0,0,0-2.028-.845c-1.716,0-3.211,1.339-3.211,3.653S9.8.169,11.609.169ZM15.5,0h.754V-4.654C16.757-5.941,17.5-6.4,18.109-6.4a1.465,1.465,0,0,1,.637.117l.156-.676a1.4,1.4,0,0,0-.7-.156,2.384,2.384,0,0,0-1.963,1.469h-.026L16.12-6.929H15.5Z" transform="translate(196.948 164.478)"/>
    <path id="패스_9801" data-name="패스 9801" class="cls-4" d="M1.105,3.12C2.379,3.12,3.081,2,3.5.806L6.2-6.929H5.434L4.017-2.691c-.195.6-.416,1.326-.624,1.95H3.328c-.247-.624-.507-1.352-.728-1.95L.988-6.929H.169L3,.1,2.821.689c-.338,1-.9,1.755-1.729,1.755a1.783,1.783,0,0,1-.559-.1l-.169.637A1.836,1.836,0,0,0,1.105,3.12ZM7.67,3.094h.754V.6L8.411-.676a3.423,3.423,0,0,0,2.041.845c1.625,0,3.055-1.378,3.055-3.744,0-2.132-.936-3.536-2.782-3.536A4.029,4.029,0,0,0,8.411-6.084H8.385l-.091-.845H7.67ZM10.387-.494a3.179,3.179,0,0,1-1.963-.845v-4a3.474,3.474,0,0,1,2.158-1.1c1.547,0,2.119,1.209,2.119,2.873C12.7-1.716,11.739-.494,10.387-.494Zm6.9.663a3.92,3.92,0,0,0,1.157-.26l-.182-.585a2.424,2.424,0,0,1-.845.195c-.923,0-1.157-.572-1.157-1.443V-6.292h1.989v-.637H16.263v-2h-.637l-.091,2-1.1.065v.572h1.079v4.316C15.509-.689,15.925.169,17.29.169ZM22.8,3.094h.754V.6L23.543-.676a3.423,3.423,0,0,0,2.041.845c1.625,0,3.055-1.378,3.055-3.744,0-2.132-.936-3.536-2.782-3.536a4.029,4.029,0,0,0-2.314,1.027h-.026l-.091-.845H22.8ZM25.519-.494a3.179,3.179,0,0,1-1.963-.845v-4a3.474,3.474,0,0,1,2.158-1.1c1.547,0,2.119,1.209,2.119,2.873C27.833-1.716,26.871-.494,25.519-.494Zm7.8.663a3.877,3.877,0,0,0,2.21-.676l-.286-.559a3.1,3.1,0,0,1-1.846.6c-1.495,0-2.5-1.183-2.535-2.873h4.914a3.6,3.6,0,0,0,.039-.546c0-2.028-1-3.224-2.678-3.224-1.573,0-3.042,1.4-3.042,3.653C30.1-1.183,31.538.169,33.319.169ZM30.862-3.939A2.468,2.468,0,0,1,33.15-6.461c1.209,0,1.976.845,1.976,2.522ZM37.661,0h.754V-4.654C38.922-5.941,39.663-6.4,40.274-6.4a1.465,1.465,0,0,1,.637.117l.156-.676a1.4,1.4,0,0,0-.7-.156A2.384,2.384,0,0,0,38.4-5.642h-.026l-.091-1.287h-.624Zm6.37.169c1.534,0,2.379-.91,2.379-1.976,0-1.339-1.17-1.716-2.236-2.119-.806-.3-1.612-.585-1.612-1.352,0-.624.468-1.2,1.495-1.2a2.657,2.657,0,0,1,1.651.624l.39-.52a3.347,3.347,0,0,0-2.015-.741c-1.456,0-2.275.858-2.275,1.872,0,1.2,1.144,1.625,2.171,1.989.806.286,1.677.663,1.677,1.482,0,.715-.533,1.313-1.586,1.313a3.174,3.174,0,0,1-2.184-.871l-.4.546A4.06,4.06,0,0,0,44.031.169Zm6.734,0c1.677,0,3.133-1.326,3.133-3.627s-1.456-3.653-3.133-3.653-3.133,1.339-3.133,3.653S49.088.169,50.765.169Zm0-.65c-1.352,0-2.34-1.209-2.34-2.977s.988-2.99,2.34-2.99,2.353,1.222,2.353,2.99S52.117-.481,50.765-.481ZM55.926,0h.754V-5.187c.806-.832,1.378-1.248,2.184-1.248,1.066,0,1.521.663,1.521,2.106V0h.754V-4.433c0-1.781-.663-2.678-2.106-2.678a3.408,3.408,0,0,0-2.366,1.235h-.026L56.55-6.929h-.624Z" transform="translate(216.59 164.478)"/>
    <path id="패스_9802" data-name="패스 9802" class="cls-4" d="M2.834.169A3.994,3.994,0,0,0,5.252-.884h.026L5.356,0h.637V-4.394c0-1.534-.585-2.717-2.236-2.717a4.805,4.805,0,0,0-2.626.91l.338.546a3.747,3.747,0,0,1,2.184-.793c1.313,0,1.612,1.066,1.586,2.093C2.184-4,.819-3.276.819-1.742A1.828,1.828,0,0,0,2.834.169ZM2.99-.468A1.249,1.249,0,0,1,1.573-1.781c0-1.066.936-1.7,3.666-2.015v2.249A3.415,3.415,0,0,1,2.99-.468ZM9.334.169A1.528,1.528,0,0,0,9.841.091l-.117-.6a1.163,1.163,0,0,1-.247.026c-.182,0-.312-.143-.312-.468v-9.386H8.411v9.308C8.411-.221,8.71.169,9.334.169Zm7.735,0a3.211,3.211,0,0,0,2.223-1.04h.026L19.409,0h.624V-10.335h-.754v2.821l.052,1.248a3.112,3.112,0,0,0-2.067-.845c-1.638,0-3.068,1.417-3.068,3.653C14.2-1.131,15.327.169,17.069.169Zm.13-.663c-1.4,0-2.2-1.17-2.2-2.964,0-1.7,1.014-2.99,2.34-2.99a2.8,2.8,0,0,1,1.937.858v4A2.9,2.9,0,0,1,17.2-.494Z" transform="translate(278.531 164.478)"/>
    <path id="패스_9803" data-name="패스 9803" class="cls-4" d="M2.834.169A3.994,3.994,0,0,0,5.252-.884h.026L5.356,0h.637V-4.394c0-1.534-.585-2.717-2.236-2.717a4.805,4.805,0,0,0-2.626.91l.338.546a3.747,3.747,0,0,1,2.184-.793c1.313,0,1.612,1.066,1.586,2.093C2.184-4,.819-3.276.819-1.742A1.828,1.828,0,0,0,2.834.169ZM2.99-.468A1.249,1.249,0,0,1,1.573-1.781c0-1.066.936-1.7,3.666-2.015v2.249A3.415,3.415,0,0,1,2.99-.468Z" transform="translate(300.525 164.478)"/>
    <path id="패스_9828" data-name="패스 9828" class="cls-4" d="M3.25.169a3.92,3.92,0,0,0,1.157-.26L4.225-.676a2.424,2.424,0,0,1-.845.195c-.923,0-1.157-.572-1.157-1.443V-6.292H4.212v-.637H2.223v-2H1.586l-.091,2L.39-6.864v.572H1.469v4.316C1.469-.689,1.885.169,3.25.169ZM7.1.169A3.994,3.994,0,0,0,9.516-.884h.026L9.62,0h.637V-4.394c0-1.534-.585-2.717-2.236-2.717a4.805,4.805,0,0,0-2.626.91l.338.546a3.747,3.747,0,0,1,2.184-.793c1.313,0,1.612,1.066,1.586,2.093C6.448-4,5.083-3.276,5.083-1.742A1.828,1.828,0,0,0,7.1.169Zm.156-.637A1.249,1.249,0,0,1,5.837-1.781c0-1.066.936-1.7,3.666-2.015v2.249A3.415,3.415,0,0,1,7.254-.468Z" transform="translate(307.555 164.478)"/>
    <path id="패스_9792" data-name="패스 9792" class="cls-4" d="M3,.169c1.534,0,2.379-.91,2.379-1.976,0-1.339-1.17-1.716-2.236-2.119-.806-.3-1.612-.585-1.612-1.352,0-.624.468-1.2,1.5-1.2A2.657,2.657,0,0,1,4.68-5.85l.39-.52a3.347,3.347,0,0,0-2.015-.741C1.6-7.111.78-6.253.78-5.239c0,1.2,1.144,1.625,2.171,1.989.806.286,1.677.663,1.677,1.482,0,.715-.533,1.313-1.586,1.313A3.174,3.174,0,0,1,.858-1.326l-.4.546A4.06,4.06,0,0,0,3,.169Zm5.837,0A3.92,3.92,0,0,0,10-.091L9.815-.676a2.424,2.424,0,0,1-.845.195c-.923,0-1.157-.572-1.157-1.443V-6.292H9.8v-.637H7.813v-2H7.176l-.091,2L5.98-6.864v.572H7.059v4.316C7.059-.689,7.475.169,8.84.169Z" transform="translate(189.62 184.984)"/>
    <path id="패스_9793" data-name="패스 9793" class="cls-4" d="M3.861.169c1.677,0,3.133-1.326,3.133-3.627S5.538-7.111,3.861-7.111.728-5.772.728-3.458,2.184.169,3.861.169Zm0-.65c-1.352,0-2.34-1.209-2.34-2.977s.988-2.99,2.34-2.99,2.353,1.222,2.353,2.99S5.213-.481,3.861-.481ZM9.022,0h.754V-4.654C10.283-5.941,11.024-6.4,11.635-6.4a1.465,1.465,0,0,1,.637.117l.156-.676a1.4,1.4,0,0,0-.7-.156A2.384,2.384,0,0,0,9.763-5.642H9.737L9.646-6.929H9.022ZM16.2.169a3.877,3.877,0,0,0,2.21-.676l-.286-.559a3.1,3.1,0,0,1-1.846.6c-1.5,0-2.5-1.183-2.535-2.873h4.914a3.6,3.6,0,0,0,.039-.546c0-2.028-1-3.224-2.678-3.224-1.573,0-3.042,1.4-3.042,3.653C12.974-1.183,14.417.169,16.2.169ZM13.741-3.939a2.468,2.468,0,0,1,2.288-2.522c1.209,0,1.976.845,1.976,2.522Zm9.1,4.108a3.211,3.211,0,0,0,2.223-1.04h.026L25.181,0h.624V-10.335h-.754v2.821L25.1-6.266a3.112,3.112,0,0,0-2.067-.845c-1.638,0-3.068,1.417-3.068,3.653C19.968-1.131,21.1.169,22.841.169Zm.13-.663c-1.4,0-2.2-1.17-2.2-2.964,0-1.7,1.014-2.99,2.34-2.99a2.8,2.8,0,0,1,1.937.858v4A2.9,2.9,0,0,1,22.971-.494ZM31.291,0h.754V-6.929h-.754Zm.39-8.554a.614.614,0,0,0,.637-.6.611.611,0,0,0-.637-.624.6.6,0,0,0-.637.624A.606.606,0,0,0,31.681-8.554Z" transform="translate(200.136 184.984)"/>
    <path id="패스_9794" data-name="패스 9794" class="cls-4" d="M1.3,0h.754V-5.187c.806-.832,1.378-1.248,2.184-1.248,1.066,0,1.521.663,1.521,2.106V0h.754V-4.433c0-1.781-.663-2.678-2.106-2.678A3.408,3.408,0,0,0,2.041-5.876H2.015L1.924-6.929H1.3ZM11.973,0h2.249c2.9,0,4.329-1.872,4.329-4.771s-1.43-4.706-4.342-4.706H11.973Zm.78-.663V-8.827h1.378c2.5,0,3.6,1.6,3.6,4.056s-1.105,4.108-3.6,4.108ZM20.709,0h2.808c2.132,0,3.536-.936,3.536-2.769a2.2,2.2,0,0,0-2.028-2.275v-.065a2.037,2.037,0,0,0,1.456-2.067c0-1.6-1.248-2.3-3.159-2.3H20.709Zm.78-5.343v-3.5h1.664c1.677,0,2.548.468,2.548,1.755,0,1.079-.754,1.742-2.626,1.742Zm0,4.693V-4.719h1.846c1.885,0,2.951.624,2.951,1.95,0,1.469-1.118,2.119-2.951,2.119Z" transform="translate(234.491 184.984)"/>
    <path id="패스_9804" data-name="패스 9804" class="cls-3" d="M2.226-2.352A1.638,1.638,0,0,0,3.808-4.088,1.638,1.638,0,0,0,2.226-5.824,1.65,1.65,0,0,0,.616-4.088,1.65,1.65,0,0,0,2.226-2.352Z" transform="translate(181.682 211.978)"/>
    <path id="패스_9805" data-name="패스 9805" class="cls-4" transform="translate(189.62 211.978)"/>
    <path id="패스_9795" data-name="패스 9795" class="cls-4" d="M1.378,0H6.76V-.676h-4.6V-4.693H5.915v-.663H2.158V-8.814H6.617v-.663H1.378Z" transform="translate(189.62 211.978)"/>
    <path id="패스_9796" data-name="패스 9796" class="cls-4" d="M1.3,0h.754V-5.187c.806-.832,1.378-1.248,2.184-1.248,1.066,0,1.521.663,1.521,2.106V0h.754V-4.433c0-1.781-.663-2.678-2.106-2.678A3.408,3.408,0,0,0,2.041-5.876H2.015L1.924-6.929H1.3ZM11.609.169a3.353,3.353,0,0,0,2.21-.9l-.364-.52a2.768,2.768,0,0,1-1.807.767C10.192-.481,9.23-1.69,9.23-3.458s1.053-2.99,2.431-2.99a2.275,2.275,0,0,1,1.586.7l.429-.52a2.931,2.931,0,0,0-2.028-.845c-1.716,0-3.211,1.339-3.211,3.653S9.8.169,11.609.169ZM15.5,0h.754V-4.654C16.757-5.941,17.5-6.4,18.109-6.4a1.465,1.465,0,0,1,.637.117l.156-.676a1.4,1.4,0,0,0-.7-.156,2.384,2.384,0,0,0-1.963,1.469h-.026L16.12-6.929H15.5Z" transform="translate(196.948 211.978)"/>
    <path id="패스_9788" data-name="패스 9788" class="cls-4" d="M1.105,3.12C2.379,3.12,3.081,2,3.5.806L6.2-6.929H5.434L4.017-2.691c-.195.6-.416,1.326-.624,1.95H3.328c-.247-.624-.507-1.352-.728-1.95L.988-6.929H.169L3,.1,2.821.689c-.338,1-.9,1.755-1.729,1.755a1.783,1.783,0,0,1-.559-.1l-.169.637A1.836,1.836,0,0,0,1.105,3.12ZM7.67,3.094h.754V.6L8.411-.676a3.423,3.423,0,0,0,2.041.845c1.625,0,3.055-1.378,3.055-3.744,0-2.132-.936-3.536-2.782-3.536A4.029,4.029,0,0,0,8.411-6.084H8.385l-.091-.845H7.67ZM10.387-.494a3.179,3.179,0,0,1-1.963-.845v-4a3.474,3.474,0,0,1,2.158-1.1c1.547,0,2.119,1.209,2.119,2.873C12.7-1.716,11.739-.494,10.387-.494Zm6.9.663a3.92,3.92,0,0,0,1.157-.26l-.182-.585a2.424,2.424,0,0,1-.845.195c-.923,0-1.157-.572-1.157-1.443V-6.292h1.989v-.637H16.263v-2h-.637l-.091,2-1.1.065v.572h1.079v4.316C15.509-.689,15.925.169,17.29.169Zm8.112,0a3.353,3.353,0,0,0,2.21-.9l-.364-.52a2.768,2.768,0,0,1-1.807.767c-1.456,0-2.418-1.209-2.418-2.977s1.053-2.99,2.431-2.99a2.275,2.275,0,0,1,1.586.7l.429-.52a2.931,2.931,0,0,0-2.028-.845c-1.716,0-3.211,1.339-3.211,3.653S23.6.169,25.4.169Z" transform="translate(216.59 211.978)"/>
    <path id="패스_9781" data-name="패스 9781" class="cls-4" d="M3.861.169c1.677,0,3.133-1.326,3.133-3.627S5.538-7.111,3.861-7.111.728-5.772.728-3.458,2.184.169,3.861.169Zm0-.65c-1.352,0-2.34-1.209-2.34-2.977s.988-2.99,2.34-2.99,2.353,1.222,2.353,2.99S5.213-.481,3.861-.481ZM9.022,0h.754V-5.187c.806-.832,1.378-1.248,2.184-1.248,1.066,0,1.521.663,1.521,2.106V0h.754V-4.433c0-1.781-.663-2.678-2.106-2.678A3.408,3.408,0,0,0,9.763-5.876H9.737L9.646-6.929H9.022Z" transform="translate(245.645 211.978)"/>
    <path id="패스_9782" data-name="패스 9782" class="cls-4" d="M4.238-10.27A2.636,2.636,0,0,0,3.2-10.5c-1.17,0-1.781.741-1.781,2.119v1.456l-.962.065v.572h.962V0h.754V-6.292H3.744v-.637H2.171V-8.346c0-.975.325-1.521,1.066-1.521a1.98,1.98,0,0,1,.819.195Z" transform="translate(260.965 211.978)"/>
    <path id="패스_9783" data-name="패스 9783" class="cls-4" d="M1.3,0h.754V-6.929H1.3Zm.39-8.554a.614.614,0,0,0,.637-.6.611.611,0,0,0-.637-.624.6.6,0,0,0-.637.624A.606.606,0,0,0,1.69-8.554ZM6.942.169A3.212,3.212,0,0,0,9.165-.871h.026L9.282,0h.624V-10.335H9.152v2.821L9.2-6.266a3.112,3.112,0,0,0-2.067-.845c-1.638,0-3.068,1.417-3.068,3.653C4.069-1.131,5.2.169,6.942.169Zm.13-.663c-1.4,0-2.2-1.17-2.2-2.964,0-1.7,1.014-2.99,2.34-2.99a2.8,2.8,0,0,1,1.937.858v4A2.9,2.9,0,0,1,7.072-.494Zm8.086.663a3.877,3.877,0,0,0,2.21-.676l-.286-.559a3.1,3.1,0,0,1-1.846.6c-1.495,0-2.5-1.183-2.535-2.873h4.914a3.6,3.6,0,0,0,.039-.546c0-2.028-1-3.224-2.678-3.224-1.573,0-3.042,1.4-3.042,3.653C11.934-1.183,13.377.169,15.158.169ZM12.7-3.939a2.468,2.468,0,0,1,2.288-2.522c1.209,0,1.976.845,1.976,2.522ZM19.5,0h.754V-5.187c.806-.832,1.378-1.248,2.184-1.248,1.066,0,1.521.663,1.521,2.106V0h.754V-4.433c0-1.781-.663-2.678-2.106-2.678a3.408,3.408,0,0,0-2.366,1.235h-.026l-.091-1.053H19.5Z" transform="translate(265.166 211.978)"/>
    <path id="패스_9784" data-name="패스 9784" class="cls-4" d="M3.25.169a3.92,3.92,0,0,0,1.157-.26L4.225-.676a2.424,2.424,0,0,1-.845.195c-.923,0-1.157-.572-1.157-1.443V-6.292H4.212v-.637H2.223v-2H1.586l-.091,2L.39-6.864v.572H1.469v4.316C1.469-.689,1.885.169,3.25.169ZM5.876,0H6.63V-6.929H5.876Zm.39-8.554a.614.614,0,0,0,.637-.6.611.611,0,0,0-.637-.624.6.6,0,0,0-.637.624A.606.606,0,0,0,6.266-8.554Z" transform="translate(290.922 211.978)"/>
    <path id="패스_9785" data-name="패스 9785" class="cls-4" d="M2.834.169A3.994,3.994,0,0,0,5.252-.884h.026L5.356,0h.637V-4.394c0-1.534-.585-2.717-2.236-2.717a4.805,4.805,0,0,0-2.626.91l.338.546a3.747,3.747,0,0,1,2.184-.793c1.313,0,1.612,1.066,1.586,2.093C2.184-4,.819-3.276.819-1.742A1.828,1.828,0,0,0,2.834.169ZM2.99-.468A1.249,1.249,0,0,1,1.573-1.781c0-1.066.936-1.7,3.666-2.015v2.249A3.415,3.415,0,0,1,2.99-.468ZM9.334.169A1.528,1.528,0,0,0,9.841.091l-.117-.6a1.163,1.163,0,0,1-.247.026c-.182,0-.312-.143-.312-.468v-9.386H8.411v9.308C8.411-.221,8.71.169,9.334.169Z" transform="translate(298.615 211.978)"/>
    <path id="패스_9790" data-name="패스 9790" class="cls-4" d="M3.6.169A3.212,3.212,0,0,0,5.824-.871H5.85L5.941,0h.624V-10.335H5.811v2.821l.052,1.248A3.112,3.112,0,0,0,3.8-7.111C2.158-7.111.728-5.694.728-3.458.728-1.131,1.859.169,3.6.169Zm.13-.663c-1.4,0-2.2-1.17-2.2-2.964,0-1.7,1.014-2.99,2.34-2.99a2.8,2.8,0,0,1,1.937.858v4A2.9,2.9,0,0,1,3.731-.494Zm7.995.663c1.677,0,3.133-1.326,3.133-3.627S13.4-7.111,11.726-7.111,8.593-5.772,8.593-3.458,10.049.169,11.726.169Zm0-.65c-1.352,0-2.34-1.209-2.34-2.977s.988-2.99,2.34-2.99,2.353,1.222,2.353,2.99S13.078-.481,11.726-.481Zm7.761.65a3.353,3.353,0,0,0,2.21-.9l-.364-.52a2.768,2.768,0,0,1-1.807.767c-1.456,0-2.418-1.209-2.418-2.977s1.053-2.99,2.431-2.99a2.275,2.275,0,0,1,1.586.7l.429-.52a2.931,2.931,0,0,0-2.028-.845c-1.716,0-3.211,1.339-3.211,3.653S17.68.169,19.487.169Zm5.876,0A3.076,3.076,0,0,0,27.7-1.144h.039L27.807,0h.637V-6.929H27.69v5.07c-.78.936-1.352,1.352-2.158,1.352-1.066,0-1.508-.663-1.508-2.08V-6.929H23.27V-2.5C23.27-.715,23.92.169,25.363.169Z" transform="translate(189.62 232.484)"/>
    <path id="패스_9789" data-name="패스 9789" class="cls-4" d="M1.3,0h.754V-5.187a2.923,2.923,0,0,1,2-1.248c1.027,0,1.495.663,1.495,2.106V0h.754V-5.187a2.923,2.923,0,0,1,2-1.248c1.014,0,1.495.663,1.495,2.106V0h.754V-4.433c0-1.781-.689-2.678-2.08-2.678a3.462,3.462,0,0,0-2.34,1.4,1.8,1.8,0,0,0-1.911-1.4A3.218,3.218,0,0,0,2.041-5.876H2.015L1.924-6.929H1.3ZM15.7.169a3.877,3.877,0,0,0,2.21-.676l-.286-.559a3.1,3.1,0,0,1-1.846.6c-1.495,0-2.5-1.183-2.535-2.873h4.914a3.6,3.6,0,0,0,.039-.546c0-2.028-1-3.224-2.678-3.224-1.573,0-3.042,1.4-3.042,3.653C12.48-1.183,13.923.169,15.7.169ZM13.247-3.939a2.468,2.468,0,0,1,2.288-2.522c1.209,0,1.976.845,1.976,2.522ZM20.046,0H20.8V-5.187c.806-.832,1.378-1.248,2.184-1.248,1.066,0,1.521.663,1.521,2.106V0h.754V-4.433c0-1.781-.663-2.678-2.106-2.678a3.408,3.408,0,0,0-2.366,1.235h-.026L20.67-6.929h-.624Z" transform="translate(219.324 232.484)"/>
    <path id="패스_9786" data-name="패스 9786" class="cls-4" d="M3.25.169a3.92,3.92,0,0,0,1.157-.26L4.225-.676a2.424,2.424,0,0,1-.845.195c-.923,0-1.157-.572-1.157-1.443V-6.292H4.212v-.637H2.223v-2H1.586l-.091,2L.39-6.864v.572H1.469v4.316C1.469-.689,1.885.169,3.25.169Z" transform="translate(245.846 232.484)"/>
    <path id="패스_9787" data-name="패스 9787" class="cls-4" d="M3,.169c1.534,0,2.379-.91,2.379-1.976,0-1.339-1.17-1.716-2.236-2.119-.806-.3-1.612-.585-1.612-1.352,0-.624.468-1.2,1.5-1.2A2.657,2.657,0,0,1,4.68-5.85l.39-.52a3.347,3.347,0,0,0-2.015-.741C1.6-7.111.78-6.253.78-5.239c0,1.2,1.144,1.625,2.171,1.989.806.286,1.677.663,1.677,1.482,0,.715-.533,1.313-1.586,1.313A3.174,3.174,0,0,1,.858-1.326l-.4.546A4.06,4.06,0,0,0,3,.169ZM10.062,0h.754V-6.929h-.754Zm.39-8.554a.614.614,0,0,0,.637-.6.611.611,0,0,0-.637-.624.6.6,0,0,0-.637.624A.606.606,0,0,0,10.452-8.554Z" transform="translate(250.847 232.484)"/>
    <path id="패스_9778" data-name="패스 9778" class="cls-4" d="M1.3,0h.754V-5.187c.806-.832,1.378-1.248,2.184-1.248,1.066,0,1.521.663,1.521,2.106V0h.754V-4.433c0-1.781-.663-2.678-2.106-2.678A3.408,3.408,0,0,0,2.041-5.876H2.015L1.924-6.929H1.3Z" transform="translate(263.663 232.484)"/>
    <path id="패스_9797" data-name="패스 9797" class="cls-4" d="M3.952.169a3.877,3.877,0,0,0,2.21-.676l-.286-.559a3.1,3.1,0,0,1-1.846.6c-1.5,0-2.5-1.183-2.535-2.873H6.409a3.6,3.6,0,0,0,.039-.546c0-2.028-1-3.224-2.678-3.224C2.2-7.111.728-5.707.728-3.458.728-1.183,2.171.169,3.952.169ZM1.5-3.939A2.468,2.468,0,0,1,3.783-6.461c1.209,0,1.976.845,1.976,2.522ZM8.294,0h.754V-5.187a2.923,2.923,0,0,1,2-1.248c1.027,0,1.495.663,1.495,2.106V0H13.3V-5.187a2.923,2.923,0,0,1,2-1.248c1.014,0,1.495.663,1.495,2.106V0h.754V-4.433c0-1.781-.689-2.678-2.08-2.678a3.462,3.462,0,0,0-2.34,1.4,1.8,1.8,0,0,0-1.911-1.4A3.218,3.218,0,0,0,9.035-5.876H9.009L8.918-6.929H8.294Z" transform="translate(189.62 252.99)"/>
    <path id="패스_9791" data-name="패스 9791" class="cls-4" d="M1.3,3.094h.754V.6L2.041-.676A3.423,3.423,0,0,0,4.082.169c1.625,0,3.055-1.378,3.055-3.744,0-2.132-.936-3.536-2.782-3.536A4.029,4.029,0,0,0,2.041-6.084H2.015l-.091-.845H1.3ZM4.017-.494a3.179,3.179,0,0,1-1.963-.845v-4a3.474,3.474,0,0,1,2.158-1.1c1.547,0,2.119,1.209,2.119,2.873C6.331-1.716,5.369-.494,4.017-.494Zm6.071.663a1.528,1.528,0,0,0,.507-.078l-.117-.6a1.163,1.163,0,0,1-.247.026c-.182,0-.312-.143-.312-.468v-9.386H9.165v9.308C9.165-.221,9.464.169,10.088.169Z" transform="translate(208.41 252.99)"/>
    <path id="패스_9780" data-name="패스 9780" class="cls-4" d="M3.861.169c1.677,0,3.133-1.326,3.133-3.627S5.538-7.111,3.861-7.111.728-5.772.728-3.458,2.184.169,3.861.169Zm0-.65c-1.352,0-2.34-1.209-2.34-2.977s.988-2.99,2.34-2.99,2.353,1.222,2.353,2.99S5.213-.481,3.861-.481Zm4.966,3.6C10.1,3.12,10.8,2,11.219.806l2.7-7.735h-.767L11.739-2.691c-.195.6-.416,1.326-.624,1.95H11.05c-.247-.624-.507-1.352-.728-1.95L8.71-6.929H7.891L10.725.1l-.182.585c-.338,1-.9,1.755-1.729,1.755a1.783,1.783,0,0,1-.559-.1l-.169.637A1.836,1.836,0,0,0,8.827,3.12ZM18.044.169a3.877,3.877,0,0,0,2.21-.676l-.286-.559a3.1,3.1,0,0,1-1.846.6c-1.5,0-2.5-1.183-2.535-2.873H20.5a3.6,3.6,0,0,0,.039-.546c0-2.028-1-3.224-2.678-3.224-1.573,0-3.042,1.4-3.042,3.653C14.82-1.183,16.263.169,18.044.169ZM15.587-3.939a2.468,2.468,0,0,1,2.288-2.522c1.209,0,1.976.845,1.976,2.522ZM25.038.169a3.877,3.877,0,0,0,2.21-.676l-.286-.559a3.1,3.1,0,0,1-1.846.6c-1.5,0-2.5-1.183-2.535-2.873H27.5a3.6,3.6,0,0,0,.039-.546c0-2.028-1-3.224-2.678-3.224-1.573,0-3.042,1.4-3.042,3.653C21.814-1.183,23.257.169,25.038.169ZM22.581-3.939a2.468,2.468,0,0,1,2.288-2.522c1.209,0,1.976.845,1.976,2.522ZM32.344,0h.78V-4h1.729c2.106,0,3.406-.91,3.406-2.808,0-1.963-1.313-2.665-3.458-2.665H32.344Zm.78-4.654V-8.827h1.521c1.885,0,2.821.481,2.821,2.015s-.9,2.158-2.769,2.158ZM43.706.169A3.551,3.551,0,0,0,46.54-1.183L46.1-1.677A3.03,3.03,0,0,1,43.745-.533c-1.989,0-3.224-1.651-3.224-4.238,0-2.561,1.261-4.173,3.263-4.173a2.664,2.664,0,0,1,2.054.949L46.28-8.5a3.278,3.278,0,0,0-2.5-1.144c-2.4,0-4.082,1.872-4.082,4.9S41.366.169,43.706.169Z" transform="translate(219.592 252.99)"/>
    <path id="패스_9779" data-name="패스 9779" class="cls-4" d="M3,.169c1.534,0,2.379-.91,2.379-1.976,0-1.339-1.17-1.716-2.236-2.119-.806-.3-1.612-.585-1.612-1.352,0-.624.468-1.2,1.5-1.2A2.657,2.657,0,0,1,4.68-5.85l.39-.52a3.347,3.347,0,0,0-2.015-.741C1.6-7.111.78-6.253.78-5.239c0,1.2,1.144,1.625,2.171,1.989.806.286,1.677.663,1.677,1.482,0,.715-.533,1.313-1.586,1.313A3.174,3.174,0,0,1,.858-1.326l-.4.546A4.06,4.06,0,0,0,3,.169Z" transform="translate(268.194 252.99)"/>
    <path id="패스_9825" data-name="패스 9825" class="cls-3" d="M2.226-2.352A1.638,1.638,0,0,0,3.808-4.088,1.638,1.638,0,0,0,2.226-5.824,1.65,1.65,0,0,0,.616-4.088,1.65,1.65,0,0,0,2.226-2.352Z" transform="translate(345.105 167.478)"/>
    <path id="패스_9826" data-name="패스 9826" class="cls-4" d="M4.706.169c2.314,0,3.939-1.924,3.939-4.94S7.02-9.646,4.706-9.646C2.418-9.646.78-7.774.78-4.771S2.418.169,4.706.169Zm0-.7C2.834-.533,1.6-2.2,1.6-4.771S2.834-8.944,4.706-8.944s3.133,1.6,3.133,4.173S6.591-.533,4.706-.533Zm7.878.7a3.076,3.076,0,0,0,2.34-1.313h.039L15.028,0h.637V-6.929h-.754v5.07c-.78.936-1.352,1.352-2.158,1.352-1.066,0-1.508-.663-1.508-2.08V-6.929h-.754V-2.5C10.491-.715,11.141.169,12.584.169Zm7.488,0a3.92,3.92,0,0,0,1.157-.26l-.182-.585a2.424,2.424,0,0,1-.845.195c-.923,0-1.157-.572-1.157-1.443V-6.292h1.989v-.637H19.045v-2h-.637l-.091,2-1.105.065v.572h1.079v4.316C18.291-.689,18.707.169,20.072.169Z" transform="translate(353.042 167.478)"/>
    <path id="패스_9827" data-name="패스 9827" class="cls-4" d="M3,.169c1.534,0,2.379-.91,2.379-1.976,0-1.339-1.17-1.716-2.236-2.119-.806-.3-1.612-.585-1.612-1.352,0-.624.468-1.2,1.5-1.2A2.657,2.657,0,0,1,4.68-5.85l.39-.52a3.347,3.347,0,0,0-2.015-.741C1.6-7.111.78-6.253.78-5.239c0,1.2,1.144,1.625,2.171,1.989.806.286,1.677.663,1.677,1.482,0,.715-.533,1.313-1.586,1.313A3.174,3.174,0,0,1,.858-1.326l-.4.546A4.06,4.06,0,0,0,3,.169Zm6.591,0c1.677,0,3.133-1.326,3.133-3.627S11.271-7.111,9.594-7.111,6.461-5.772,6.461-3.458,7.917.169,9.594.169Zm0-.65c-1.352,0-2.34-1.209-2.34-2.977s.988-2.99,2.34-2.99,2.353,1.222,2.353,2.99S10.946-.481,9.594-.481ZM16.6.169a3.076,3.076,0,0,0,2.34-1.313h.039L19.045,0h.637V-6.929h-.754v5.07c-.78.936-1.352,1.352-2.158,1.352-1.066,0-1.508-.663-1.508-2.08V-6.929h-.754V-2.5C14.508-.715,15.158.169,16.6.169ZM22.139,0h.754V-4.654C23.4-5.941,24.141-6.4,24.752-6.4a1.465,1.465,0,0,1,.637.117l.156-.676a1.4,1.4,0,0,0-.7-.156A2.384,2.384,0,0,0,22.88-5.642h-.026l-.091-1.287h-.624ZM29.12.169a3.353,3.353,0,0,0,2.21-.9l-.364-.52a2.768,2.768,0,0,1-1.807.767c-1.456,0-2.418-1.209-2.418-2.977s1.053-2.99,2.431-2.99a2.275,2.275,0,0,1,1.586.7l.429-.52a2.931,2.931,0,0,0-2.028-.845c-1.716,0-3.211,1.339-3.211,3.653S27.313.169,29.12.169Zm6.123,0a3.877,3.877,0,0,0,2.21-.676l-.286-.559a3.1,3.1,0,0,1-1.846.6c-1.495,0-2.5-1.183-2.535-2.873H37.7a3.6,3.6,0,0,0,.039-.546c0-2.028-1-3.224-2.678-3.224-1.573,0-3.042,1.4-3.042,3.653C32.019-1.183,33.462.169,35.243.169ZM32.786-3.939a2.468,2.468,0,0,1,2.288-2.522c1.209,0,1.976.845,1.976,2.522ZM44.486.169a3.212,3.212,0,0,0,2.223-1.04h.026L46.826,0h.624V-10.335H46.7v2.821l.052,1.248a3.112,3.112,0,0,0-2.067-.845c-1.638,0-3.068,1.417-3.068,3.653C41.613-1.131,42.744.169,44.486.169Zm.13-.663c-1.4,0-2.2-1.17-2.2-2.964,0-1.7,1.014-2.99,2.34-2.99A2.8,2.8,0,0,1,46.7-5.59v4A2.9,2.9,0,0,1,44.616-.494Zm7.852.663c1.677,0,3.133-1.326,3.133-3.627s-1.456-3.653-3.133-3.653-3.133,1.339-3.133,3.653S50.791.169,52.468.169Zm0-.65c-1.352,0-2.34-1.209-2.34-2.977s.988-2.99,2.34-2.99,2.353,1.222,2.353,2.99S53.82-.481,52.468-.481Zm7.618.65a3.353,3.353,0,0,0,2.21-.9l-.364-.52a2.768,2.768,0,0,1-1.807.767c-1.456,0-2.418-1.209-2.418-2.977s1.053-2.99,2.431-2.99a2.275,2.275,0,0,1,1.586.7l.429-.52a2.931,2.931,0,0,0-2.028-.845c-1.716,0-3.211,1.339-3.211,3.653S58.279.169,60.086.169Zm5.733,0a3.076,3.076,0,0,0,2.34-1.313H68.2L68.263,0H68.9V-6.929h-.754v5.07c-.78.936-1.352,1.352-2.158,1.352-1.066,0-1.508-.663-1.508-2.08V-6.929h-.754V-2.5C63.726-.715,64.376.169,65.819.169ZM71.357,0h.754V-5.187a2.923,2.923,0,0,1,2-1.248c1.027,0,1.5.663,1.5,2.106V0h.754V-5.187a2.923,2.923,0,0,1,2-1.248c1.014,0,1.5.663,1.5,2.106V0h.754V-4.433c0-1.781-.689-2.678-2.08-2.678a3.462,3.462,0,0,0-2.34,1.4,1.8,1.8,0,0,0-1.911-1.4A3.218,3.218,0,0,0,72.1-5.876h-.026l-.091-1.053h-.624ZM85.618.169a3.877,3.877,0,0,0,2.21-.676l-.286-.559a3.1,3.1,0,0,1-1.846.6c-1.495,0-2.5-1.183-2.535-2.873h4.914a3.6,3.6,0,0,0,.039-.546c0-2.028-1-3.224-2.678-3.224-1.573,0-3.042,1.4-3.042,3.653C82.394-1.183,83.837.169,85.618.169ZM83.161-3.939a2.468,2.468,0,0,1,2.288-2.522c1.209,0,1.976.845,1.976,2.522ZM89.817,0h.754V-5.187c.806-.832,1.378-1.248,2.184-1.248,1.066,0,1.521.663,1.521,2.106V0h.754V-4.433c0-1.781-.663-2.678-2.106-2.678a3.408,3.408,0,0,0-2.366,1.235h-.026l-.091-1.053h-.624Zm9.516.169a3.92,3.92,0,0,0,1.157-.26l-.182-.585a2.424,2.424,0,0,1-.845.195c-.923,0-1.157-.572-1.157-1.443V-6.292h1.989v-.637H98.306v-2h-.637l-.091,2-1.105.065v.572h1.079v4.316C97.552-.689,97.968.169,99.333.169Z" transform="translate(375.262 167.478)"/>
    <path id="패스_9817" data-name="패스 9817" class="cls-4" d="M3.6.169A3.212,3.212,0,0,0,5.824-.871H5.85L5.941,0h.624V-10.335H5.811v2.821l.052,1.248A3.112,3.112,0,0,0,3.8-7.111C2.158-7.111.728-5.694.728-3.458.728-1.131,1.859.169,3.6.169Zm.13-.663c-1.4,0-2.2-1.17-2.2-2.964,0-1.7,1.014-2.99,2.34-2.99a2.8,2.8,0,0,1,1.937.858v4A2.9,2.9,0,0,1,3.731-.494Zm7.943.663a3.877,3.877,0,0,0,2.21-.676L13.6-1.066a3.1,3.1,0,0,1-1.846.6c-1.5,0-2.5-1.183-2.535-2.873h4.914a3.6,3.6,0,0,0,.039-.546c0-2.028-1-3.224-2.678-3.224-1.573,0-3.042,1.4-3.042,3.653C8.45-1.183,9.893.169,11.674.169ZM9.217-3.939a2.468,2.468,0,0,1,2.288-2.522c1.209,0,1.976.845,1.976,2.522Z" transform="translate(353.042 187.984)"/>
    <path id="패스_9818" data-name="패스 9818" class="cls-4" d="M3,.169c1.534,0,2.379-.91,2.379-1.976,0-1.339-1.17-1.716-2.236-2.119-.806-.3-1.612-.585-1.612-1.352,0-.624.468-1.2,1.5-1.2A2.657,2.657,0,0,1,4.68-5.85l.39-.52a3.347,3.347,0,0,0-2.015-.741C1.6-7.111.78-6.253.78-5.239c0,1.2,1.144,1.625,2.171,1.989.806.286,1.677.663,1.677,1.482,0,.715-.533,1.313-1.586,1.313A3.174,3.174,0,0,1,.858-1.326l-.4.546A4.06,4.06,0,0,0,3,.169Z" transform="translate(368.091 187.984)"/>
    <path id="패스_9819" data-name="패스 9819" class="cls-4" d="M3.25.169a3.92,3.92,0,0,0,1.157-.26L4.225-.676a2.424,2.424,0,0,1-.845.195c-.923,0-1.157-.572-1.157-1.443V-6.292H4.212v-.637H2.223v-2H1.586l-.091,2L.39-6.864v.572H1.469v4.316C1.469-.689,1.885.169,3.25.169ZM5.733,0h.754V-4.654C6.994-5.941,7.735-6.4,8.346-6.4a1.465,1.465,0,0,1,.637.117l.156-.676a1.4,1.4,0,0,0-.7-.156A2.384,2.384,0,0,0,6.474-5.642H6.448L6.357-6.929H5.733Z" transform="translate(374.191 187.984)"/>
    <path id="패스_9820" data-name="패스 9820" class="cls-4" d="M3.289.169a3.076,3.076,0,0,0,2.34-1.313h.039L5.733,0H6.37V-6.929H5.616v5.07C4.836-.923,4.264-.507,3.458-.507c-1.066,0-1.508-.663-1.508-2.08V-6.929H1.2V-2.5C1.2-.715,1.846.169,3.289.169Zm8.138,0a3.353,3.353,0,0,0,2.21-.9l-.364-.52a2.768,2.768,0,0,1-1.807.767c-1.456,0-2.418-1.209-2.418-2.977s1.053-2.99,2.431-2.99a2.275,2.275,0,0,1,1.586.7l.429-.52a2.931,2.931,0,0,0-2.028-.845c-1.716,0-3.211,1.339-3.211,3.653S9.62.169,11.427.169Z" transform="translate(383.714 187.984)"/>
    <path id="패스_9821" data-name="패스 9821" class="cls-4" d="M3.25.169a3.92,3.92,0,0,0,1.157-.26L4.225-.676a2.424,2.424,0,0,1-.845.195c-.923,0-1.157-.572-1.157-1.443V-6.292H4.212v-.637H2.223v-2H1.586l-.091,2L.39-6.864v.572H1.469v4.316C1.469-.689,1.885.169,3.25.169ZM5.733,0h.754V-6.929H5.733Zm.39-8.554a.614.614,0,0,0,.637-.6.611.611,0,0,0-.637-.624.6.6,0,0,0-.637.624A.606.606,0,0,0,6.123-8.554ZM11.492.169c1.677,0,3.133-1.326,3.133-3.627s-1.456-3.653-3.133-3.653S8.359-5.772,8.359-3.458,9.815.169,11.492.169Zm0-.65c-1.352,0-2.34-1.209-2.34-2.977s.988-2.99,2.34-2.99,2.353,1.222,2.353,2.99S12.844-.481,11.492-.481ZM16.51,0h.754V-5.187c.806-.832,1.378-1.248,2.184-1.248,1.066,0,1.521.663,1.521,2.106V0h.754V-4.433c0-1.781-.663-2.678-2.106-2.678a3.408,3.408,0,0,0-2.366,1.235h-.026l-.091-1.053H16.51ZM26.819,3.094h.754V.6L27.56-.676A3.423,3.423,0,0,0,29.6.169c1.625,0,3.055-1.378,3.055-3.744,0-2.132-.936-3.536-2.782-3.536A4.029,4.029,0,0,0,27.56-6.084h-.026l-.091-.845h-.624ZM29.536-.494a3.179,3.179,0,0,1-1.963-.845v-4a3.474,3.474,0,0,1,2.158-1.1c1.547,0,2.119,1.209,2.119,2.873C31.85-1.716,30.888-.494,29.536-.494ZM34.541,0H35.3V-4.654C35.8-5.941,36.543-6.4,37.154-6.4a1.465,1.465,0,0,1,.637.117l.156-.676a1.4,1.4,0,0,0-.7-.156,2.384,2.384,0,0,0-1.963,1.469h-.026l-.091-1.287h-.624Zm6.942.169c1.677,0,3.133-1.326,3.133-3.627S43.16-7.111,41.483-7.111,38.35-5.772,38.35-3.458,39.806.169,41.483.169Zm0-.65c-1.352,0-2.34-1.209-2.34-2.977s.988-2.99,2.34-2.99,2.353,1.222,2.353,2.99S42.835-.481,41.483-.481ZM49.1.169a3.353,3.353,0,0,0,2.21-.9l-.364-.52a2.768,2.768,0,0,1-1.807.767c-1.456,0-2.418-1.209-2.418-2.977s1.053-2.99,2.431-2.99a2.275,2.275,0,0,1,1.586.7l.429-.52a2.931,2.931,0,0,0-2.028-.845c-1.716,0-3.211,1.339-3.211,3.653S47.294.169,49.1.169Zm6.123,0a3.877,3.877,0,0,0,2.21-.676l-.286-.559a3.1,3.1,0,0,1-1.846.6c-1.495,0-2.5-1.183-2.535-2.873h4.914a3.6,3.6,0,0,0,.039-.546c0-2.028-1-3.224-2.678-3.224C53.469-7.111,52-5.707,52-3.458,52-1.183,53.443.169,55.224.169ZM52.767-3.939a2.468,2.468,0,0,1,2.288-2.522c1.209,0,1.976.845,1.976,2.522Z" transform="translate(398.247 187.984)"/>
    <path id="패스_9822" data-name="패스 9822" class="cls-4" d="M3,.169c1.534,0,2.379-.91,2.379-1.976,0-1.339-1.17-1.716-2.236-2.119-.806-.3-1.612-.585-1.612-1.352,0-.624.468-1.2,1.5-1.2A2.657,2.657,0,0,1,4.68-5.85l.39-.52a3.347,3.347,0,0,0-2.015-.741C1.6-7.111.78-6.253.78-5.239c0,1.2,1.144,1.625,2.171,1.989.806.286,1.677.663,1.677,1.482,0,.715-.533,1.313-1.586,1.313A3.174,3.174,0,0,1,.858-1.326l-.4.546A4.06,4.06,0,0,0,3,.169Z" transform="translate(457.263 187.984)"/>
    <path id="패스_9823" data-name="패스 9823" class="cls-4" d="M3,.169c1.534,0,2.379-.91,2.379-1.976,0-1.339-1.17-1.716-2.236-2.119-.806-.3-1.612-.585-1.612-1.352,0-.624.468-1.2,1.5-1.2A2.657,2.657,0,0,1,4.68-5.85l.39-.52a3.347,3.347,0,0,0-2.015-.741C1.6-7.111.78-6.253.78-5.239c0,1.2,1.144,1.625,2.171,1.989.806.286,1.677.663,1.677,1.482,0,.715-.533,1.313-1.586,1.313A3.174,3.174,0,0,1,.858-1.326l-.4.546A4.06,4.06,0,0,0,3,.169Z" transform="translate(463.408 187.984)"/>
    <path id="패스_9824" data-name="패스 9824" class="cls-3" d="M2.226-2.352A1.638,1.638,0,0,0,3.808-4.088,1.638,1.638,0,0,0,2.226-5.824,1.65,1.65,0,0,0,.616-4.088,1.65,1.65,0,0,0,2.226-2.352Z" transform="translate(345.105 214.978)"/>
    <path id="패스_9816" data-name="패스 9816" class="cls-4" d="M2.158-8.827H3.965c1.638,0,2.548.507,2.548,1.885S5.6-4.927,3.965-4.927H2.158ZM7.5,0,4.94-4.342a2.493,2.493,0,0,0,2.366-2.6c0-1.846-1.274-2.535-3.159-2.535H1.378V0h.78V-4.277H4.095L6.617,0ZM11.57.169a3.877,3.877,0,0,0,2.21-.676l-.286-.559a3.1,3.1,0,0,1-1.846.6c-1.5,0-2.5-1.183-2.535-2.873h4.914a3.6,3.6,0,0,0,.039-.546c0-2.028-1-3.224-2.678-3.224-1.573,0-3.042,1.4-3.042,3.653C8.346-1.183,9.789.169,11.57.169ZM9.113-3.939A2.468,2.468,0,0,1,11.4-6.461c1.209,0,1.976.845,1.976,2.522Z" transform="translate(353.042 214.978)"/>
    <path id="패스_9811" data-name="패스 9811" class="cls-4" d="M5.811,3.094h.754V-6.929H5.954l-.091.65H5.837A3.021,3.021,0,0,0,3.8-7.111C2.158-7.111.728-5.694.728-3.458.728-1.131,1.859.169,3.6.169A3.269,3.269,0,0,0,5.863-.9L5.811.455ZM3.731-.494c-1.4,0-2.2-1.17-2.2-2.964,0-1.7,1.014-2.99,2.34-2.99a2.8,2.8,0,0,1,1.937.858v4A2.9,2.9,0,0,1,3.731-.494Zm7.28.663a3.076,3.076,0,0,0,2.34-1.313h.039L13.455,0h.637V-6.929h-.754v5.07c-.78.936-1.352,1.352-2.158,1.352-1.066,0-1.508-.663-1.508-2.08V-6.929H8.918V-2.5C8.918-.715,9.568.169,11.011.169ZM16.549,0H17.3V-6.929h-.754Zm.39-8.554a.614.614,0,0,0,.637-.6.611.611,0,0,0-.637-.624.6.6,0,0,0-.637.624A.606.606,0,0,0,16.939-8.554ZM19.747,0H20.5V-4.654C21.008-5.941,21.749-6.4,22.36-6.4A1.465,1.465,0,0,1,23-6.279l.156-.676a1.4,1.4,0,0,0-.7-.156,2.384,2.384,0,0,0-1.963,1.469h-.026l-.091-1.287h-.624ZM26.78.169a3.877,3.877,0,0,0,2.21-.676L28.7-1.066a3.1,3.1,0,0,1-1.846.6c-1.5,0-2.5-1.183-2.535-2.873h4.914a3.6,3.6,0,0,0,.039-.546c0-2.028-1-3.224-2.678-3.224-1.573,0-3.042,1.4-3.042,3.653C23.556-1.183,25,.169,26.78.169ZM24.323-3.939a2.468,2.468,0,0,1,2.288-2.522c1.209,0,1.976.845,1.976,2.522Zm12,4.108a3.353,3.353,0,0,0,2.21-.9l-.364-.52a2.768,2.768,0,0,1-1.807.767c-1.456,0-2.418-1.209-2.418-2.977S35-6.448,36.374-6.448a2.275,2.275,0,0,1,1.586.7l.429-.52a2.931,2.931,0,0,0-2.028-.845c-1.716,0-3.211,1.339-3.211,3.653S34.515.169,36.322.169Zm6.032,0c1.677,0,3.133-1.326,3.133-3.627s-1.456-3.653-3.133-3.653-3.133,1.339-3.133,3.653S40.677.169,42.354.169Zm0-.65c-1.352,0-2.34-1.209-2.34-2.977s.988-2.99,2.34-2.99,2.353,1.222,2.353,2.99S43.706-.481,42.354-.481ZM47.372,0h.754V-5.187c.806-.832,1.378-1.248,2.184-1.248,1.066,0,1.521.663,1.521,2.106V0h.754V-4.433c0-1.781-.663-2.678-2.106-2.678a3.408,3.408,0,0,0-2.366,1.235h-.026L48-6.929h-.624Zm10.5-10.27a2.636,2.636,0,0,0-1.04-.234c-1.17,0-1.781.741-1.781,2.119v1.456l-.962.065v.572h.962V0h.754V-6.292h1.573v-.637H55.809V-8.346c0-.975.325-1.521,1.066-1.521a1.98,1.98,0,0,1,.819.195Z" transform="translate(368.108 214.978)"/>
    <path id="패스_9812" data-name="패스 9812" class="cls-4" d="M1.3,0h.754V-6.929H1.3Zm.39-8.554a.614.614,0,0,0,.637-.6.611.611,0,0,0-.637-.624.6.6,0,0,0-.637.624A.606.606,0,0,0,1.69-8.554ZM4.5,0h.754V-4.654C5.759-5.941,6.5-6.4,7.111-6.4a1.465,1.465,0,0,1,.637.117L7.9-6.955a1.4,1.4,0,0,0-.7-.156A2.384,2.384,0,0,0,5.239-5.642H5.213L5.122-6.929H4.5Z" transform="translate(427.895 214.978)"/>
    <path id="패스_9813" data-name="패스 9813" class="cls-4" d="M1.3,0h.754V-5.187a2.923,2.923,0,0,1,2-1.248c1.027,0,1.495.663,1.495,2.106V0h.754V-5.187a2.923,2.923,0,0,1,2-1.248c1.014,0,1.495.663,1.495,2.106V0h.754V-4.433c0-1.781-.689-2.678-2.08-2.678a3.462,3.462,0,0,0-2.34,1.4,1.8,1.8,0,0,0-1.911-1.4A3.218,3.218,0,0,0,2.041-5.876H2.015L1.924-6.929H1.3ZM14.443.169A3.994,3.994,0,0,0,16.861-.884h.026L16.965,0H17.6V-4.394c0-1.534-.585-2.717-2.236-2.717a4.805,4.805,0,0,0-2.626.91l.338.546a3.747,3.747,0,0,1,2.184-.793c1.313,0,1.612,1.066,1.586,2.093-3.055.351-4.42,1.079-4.42,2.613A1.828,1.828,0,0,0,14.443.169ZM14.6-.468a1.249,1.249,0,0,1-1.417-1.313c0-1.066.936-1.7,3.666-2.015v2.249A3.415,3.415,0,0,1,14.6-.468Zm7.059.637a3.92,3.92,0,0,0,1.157-.26l-.182-.585a2.424,2.424,0,0,1-.845.195c-.923,0-1.157-.572-1.157-1.443V-6.292H22.62v-.637H20.631v-2h-.637l-.091,2L18.8-6.864v.572h1.079v4.316C19.877-.689,20.293.169,21.658.169ZM24.141,0H24.9V-6.929h-.754Zm.39-8.554a.614.614,0,0,0,.637-.6.611.611,0,0,0-.637-.624.6.6,0,0,0-.637.624A.606.606,0,0,0,24.531-8.554ZM29.9.169c1.677,0,3.133-1.326,3.133-3.627S31.577-7.111,29.9-7.111s-3.133,1.339-3.133,3.653S28.223.169,29.9.169Zm0-.65c-1.352,0-2.34-1.209-2.34-2.977s.988-2.99,2.34-2.99,2.353,1.222,2.353,2.99S31.252-.481,29.9-.481ZM34.918,0h.754V-5.187c.806-.832,1.378-1.248,2.184-1.248,1.066,0,1.521.663,1.521,2.106V0h.754V-4.433c0-1.781-.663-2.678-2.106-2.678a3.408,3.408,0,0,0-2.366,1.235h-.026l-.091-1.053h-.624Z" transform="translate(435.86 214.978)"/>
    <path id="패스_9814" data-name="패스 9814" class="cls-4" d="M3.861.169c1.677,0,3.133-1.326,3.133-3.627S5.538-7.111,3.861-7.111.728-5.772.728-3.458,2.184.169,3.861.169Zm0-.65c-1.352,0-2.34-1.209-2.34-2.977s.988-2.99,2.34-2.99,2.353,1.222,2.353,2.99S5.213-.481,3.861-.481Zm8.1-9.789a2.636,2.636,0,0,0-1.04-.234c-1.17,0-1.781.741-1.781,2.119v1.456l-.962.065v.572h.962V0h.754V-6.292h1.573v-.637H9.893V-8.346c0-.975.325-1.521,1.066-1.521a1.98,1.98,0,0,1,.819.195ZM18.083.169a3.211,3.211,0,0,0,2.223-1.04h.026L20.423,0h.624V-10.335h-.754v2.821l.052,1.248a3.112,3.112,0,0,0-2.067-.845c-1.638,0-3.068,1.417-3.068,3.653C15.21-1.131,16.341.169,18.083.169Zm.13-.663c-1.4,0-2.2-1.17-2.2-2.964,0-1.7,1.014-2.99,2.34-2.99a2.8,2.8,0,0,1,1.937.858v4A2.9,2.9,0,0,1,18.213-.494Z" transform="translate(353.042 235.484)"/>
    <path id="패스_9815" data-name="패스 9815" class="cls-4" d="M2.834.169A3.994,3.994,0,0,0,5.252-.884h.026L5.356,0h.637V-4.394c0-1.534-.585-2.717-2.236-2.717a4.805,4.805,0,0,0-2.626.91l.338.546a3.747,3.747,0,0,1,2.184-.793c1.313,0,1.612,1.066,1.586,2.093C2.184-4,.819-3.276.819-1.742A1.828,1.828,0,0,0,2.834.169ZM2.99-.468A1.249,1.249,0,0,1,1.573-1.781c0-1.066.936-1.7,3.666-2.015v2.249A3.415,3.415,0,0,1,2.99-.468Z" transform="translate(376.076 235.484)"/>
    <path id="패스_9807" data-name="패스 9807" class="cls-4" d="M3.25.169a3.92,3.92,0,0,0,1.157-.26L4.225-.676a2.424,2.424,0,0,1-.845.195c-.923,0-1.157-.572-1.157-1.443V-6.292H4.212v-.637H2.223v-2H1.586l-.091,2L.39-6.864v.572H1.469v4.316C1.469-.689,1.885.169,3.25.169ZM7.1.169A3.994,3.994,0,0,0,9.516-.884h.026L9.62,0h.637V-4.394c0-1.534-.585-2.717-2.236-2.717a4.805,4.805,0,0,0-2.626.91l.338.546a3.747,3.747,0,0,1,2.184-.793c1.313,0,1.612,1.066,1.586,2.093C6.448-4,5.083-3.276,5.083-1.742A1.828,1.828,0,0,0,7.1.169Zm.156-.637A1.249,1.249,0,0,1,5.837-1.781c0-1.066.936-1.7,3.666-2.015v2.249A3.415,3.415,0,0,1,7.254-.468ZM17.862.169a3.211,3.211,0,0,0,2.223-1.04h.026L20.2,0h.624V-10.335h-.754v2.821l.052,1.248a3.112,3.112,0,0,0-2.067-.845c-1.638,0-3.068,1.417-3.068,3.653C14.989-1.131,16.12.169,17.862.169Zm.13-.663c-1.4,0-2.2-1.17-2.2-2.964,0-1.7,1.014-2.99,2.34-2.99a2.8,2.8,0,0,1,1.937.858v4A2.9,2.9,0,0,1,17.992-.494Zm8.086.663a3.877,3.877,0,0,0,2.21-.676L28-1.066a3.1,3.1,0,0,1-1.846.6c-1.5,0-2.5-1.183-2.535-2.873h4.914a3.6,3.6,0,0,0,.039-.546c0-2.028-1-3.224-2.678-3.224-1.573,0-3.042,1.4-3.042,3.653C22.854-1.183,24.3.169,26.078.169ZM23.621-3.939a2.468,2.468,0,0,1,2.288-2.522c1.209,0,1.976.845,1.976,2.522Zm8.5,4.108c1.534,0,2.379-.91,2.379-1.976,0-1.339-1.17-1.716-2.236-2.119-.806-.3-1.612-.585-1.612-1.352,0-.624.468-1.2,1.5-1.2A2.657,2.657,0,0,1,33.8-5.85l.39-.52a3.347,3.347,0,0,0-2.015-.741c-1.456,0-2.275.858-2.275,1.872,0,1.2,1.144,1.625,2.171,1.989.806.286,1.677.663,1.677,1.482,0,.715-.533,1.313-1.586,1.313a3.174,3.174,0,0,1-2.184-.871l-.4.546A4.06,4.06,0,0,0,32.123.169Zm5.837,0a3.92,3.92,0,0,0,1.157-.26l-.182-.585a2.424,2.424,0,0,1-.845.195c-.923,0-1.157-.572-1.157-1.443V-6.292h1.989v-.637H36.933v-2H36.3l-.091,2-1.1.065v.572h1.079v4.316C36.179-.689,36.595.169,37.96.169ZM40.586,0h.754V-4.654C41.847-5.941,42.588-6.4,43.2-6.4a1.465,1.465,0,0,1,.637.117l.156-.676a1.4,1.4,0,0,0-.7-.156,2.384,2.384,0,0,0-1.963,1.469H41.3L41.21-6.929h-.624Zm6.656.169a3.076,3.076,0,0,0,2.34-1.313h.039L49.686,0h.637V-6.929h-.754v5.07c-.78.936-1.352,1.352-2.158,1.352-1.066,0-1.508-.663-1.508-2.08V-6.929h-.754V-2.5C45.149-.715,45.8.169,47.242.169Zm8.281,0a3.353,3.353,0,0,0,2.21-.9l-.364-.52a2.768,2.768,0,0,1-1.807.767c-1.456,0-2.418-1.209-2.418-2.977s1.053-2.99,2.431-2.99a2.275,2.275,0,0,1,1.586.7l.429-.52a2.931,2.931,0,0,0-2.028-.845c-1.716,0-3.211,1.339-3.211,3.653S53.716.169,55.523.169Z" transform="translate(383.106 235.484)"/>
    <path id="패스_9808" data-name="패스 9808" class="cls-4" d="M3.25.169a3.92,3.92,0,0,0,1.157-.26L4.225-.676a2.424,2.424,0,0,1-.845.195c-.923,0-1.157-.572-1.157-1.443V-6.292H4.212v-.637H2.223v-2H1.586l-.091,2L.39-6.864v.572H1.469v4.316C1.469-.689,1.885.169,3.25.169ZM5.876,0H6.63V-6.929H5.876Zm.39-8.554a.614.614,0,0,0,.637-.6.611.611,0,0,0-.637-.624.6.6,0,0,0-.637.624A.606.606,0,0,0,6.266-8.554Z" transform="translate(441.963 235.484)"/>
    <path id="패스_9809" data-name="패스 9809" class="cls-4" d="M3.861.169c1.677,0,3.133-1.326,3.133-3.627S5.538-7.111,3.861-7.111.728-5.772.728-3.458,2.184.169,3.861.169Zm0-.65c-1.352,0-2.34-1.209-2.34-2.977s.988-2.99,2.34-2.99,2.353,1.222,2.353,2.99S5.213-.481,3.861-.481ZM9.022,0h.754V-5.187c.806-.832,1.378-1.248,2.184-1.248,1.066,0,1.521.663,1.521,2.106V0h.754V-4.433c0-1.781-.663-2.678-2.106-2.678A3.408,3.408,0,0,0,9.763-5.876H9.737L9.646-6.929H9.022Z" transform="translate(449.802 235.484)"/>
    <path id="패스_9810" data-name="패스 9810" class="cls-4" d="M4.238-10.27A2.636,2.636,0,0,0,3.2-10.5c-1.17,0-1.781.741-1.781,2.119v1.456l-.962.065v.572h.962V0h.754V-6.292H3.744v-.637H2.171V-8.346c0-.975.325-1.521,1.066-1.521a1.98,1.98,0,0,1,.819.195ZM5.031,0h.754V-4.654C6.292-5.941,7.033-6.4,7.644-6.4a1.465,1.465,0,0,1,.637.117l.156-.676a1.4,1.4,0,0,0-.7-.156A2.384,2.384,0,0,0,5.772-5.642H5.746L5.655-6.929H5.031Zm6.942.169c1.677,0,3.133-1.326,3.133-3.627S13.65-7.111,11.973-7.111,8.84-5.772,8.84-3.458,10.3.169,11.973.169Zm0-.65c-1.352,0-2.34-1.209-2.34-2.977s.988-2.99,2.34-2.99,2.353,1.222,2.353,2.99S13.325-.481,11.973-.481ZM16.991,0h.754V-5.187a2.923,2.923,0,0,1,2-1.248c1.027,0,1.5.663,1.5,2.106V0H22V-5.187a2.923,2.923,0,0,1,2-1.248c1.014,0,1.495.663,1.495,2.106V0h.754V-4.433c0-1.781-.689-2.678-2.08-2.678a3.462,3.462,0,0,0-2.34,1.4,1.8,1.8,0,0,0-1.911-1.4,3.218,3.218,0,0,0-2.184,1.235h-.026l-.091-1.053h-.624ZM33.046.169c1.534,0,2.379-.91,2.379-1.976,0-1.339-1.17-1.716-2.236-2.119-.806-.3-1.612-.585-1.612-1.352,0-.624.468-1.2,1.495-1.2a2.657,2.657,0,0,1,1.651.624l.39-.52A3.347,3.347,0,0,0,33.1-7.111c-1.456,0-2.275.858-2.275,1.872,0,1.2,1.144,1.625,2.171,1.989.806.286,1.677.663,1.677,1.482,0,.715-.533,1.313-1.586,1.313A3.174,3.174,0,0,1,30.9-1.326l-.4.546A4.06,4.06,0,0,0,33.046.169Zm6.019,0a3.076,3.076,0,0,0,2.34-1.313h.039L41.509,0h.637V-6.929h-.754v5.07c-.78.936-1.352,1.352-2.158,1.352-1.066,0-1.508-.663-1.508-2.08V-6.929h-.754V-2.5C36.972-.715,37.622.169,39.065.169ZM44.6,3.094h.754V.6L45.344-.676a3.423,3.423,0,0,0,2.041.845c1.625,0,3.055-1.378,3.055-3.744,0-2.132-.936-3.536-2.782-3.536a4.029,4.029,0,0,0-2.314,1.027h-.026l-.091-.845H44.6ZM47.32-.494a3.179,3.179,0,0,1-1.963-.845v-4a3.474,3.474,0,0,1,2.158-1.1c1.547,0,2.119,1.209,2.119,2.873C49.634-1.716,48.672-.494,47.32-.494Zm5.005,3.588h.754V.6L53.066-.676a3.423,3.423,0,0,0,2.041.845c1.625,0,3.055-1.378,3.055-3.744,0-2.132-.936-3.536-2.782-3.536a4.029,4.029,0,0,0-2.314,1.027H53.04l-.091-.845h-.624ZM55.042-.494a3.179,3.179,0,0,1-1.963-.845v-4a3.474,3.474,0,0,1,2.158-1.1c1.547,0,2.119,1.209,2.119,2.873C57.356-1.716,56.394-.494,55.042-.494ZM60.97.169a1.528,1.528,0,0,0,.507-.078l-.117-.6a1.163,1.163,0,0,1-.247.026c-.182,0-.312-.143-.312-.468v-9.386h-.754v9.308C60.047-.221,60.346.169,60.97.169ZM63.375,0h.754V-6.929h-.754Zm.39-8.554a.614.614,0,0,0,.637-.6.611.611,0,0,0-.637-.624.6.6,0,0,0-.637.624A.606.606,0,0,0,63.765-8.554ZM69.225.169a3.877,3.877,0,0,0,2.21-.676l-.286-.559a3.1,3.1,0,0,1-1.846.6c-1.5,0-2.5-1.183-2.535-2.873h4.914a3.6,3.6,0,0,0,.039-.546c0-2.028-1-3.224-2.678-3.224C67.47-7.111,66-5.707,66-3.458,66-1.183,67.444.169,69.225.169ZM66.768-3.939a2.468,2.468,0,0,1,2.288-2.522c1.209,0,1.976.845,1.976,2.522ZM73.424,0h.754V-4.654C74.685-5.941,75.426-6.4,76.037-6.4a1.465,1.465,0,0,1,.637.117l.156-.676a1.4,1.4,0,0,0-.7-.156,2.384,2.384,0,0,0-1.963,1.469h-.026l-.091-1.287h-.624Z" transform="translate(353.042 255.99)"/>
    <path id="패스_9806" data-name="패스 9806" class="cls-4" d="M3,.169c1.534,0,2.379-.91,2.379-1.976,0-1.339-1.17-1.716-2.236-2.119-.806-.3-1.612-.585-1.612-1.352,0-.624.468-1.2,1.5-1.2A2.657,2.657,0,0,1,4.68-5.85l.39-.52a3.347,3.347,0,0,0-2.015-.741C1.6-7.111.78-6.253.78-5.239c0,1.2,1.144,1.625,2.171,1.989.806.286,1.677.663,1.677,1.482,0,.715-.533,1.313-1.586,1.313A3.174,3.174,0,0,1,.858-1.326l-.4.546A4.06,4.06,0,0,0,3,.169Z" transform="translate(430.518 255.99)"/>
    <path id="패스_9612" data-name="패스 9612" class="cls-5" d="M0,0A47.69,47.69,0,0,0-47.691-47.691,47.69,47.69,0,0,0-95.382,0,47.69,47.69,0,0,0-47.691,47.691,47.69,47.69,0,0,0,0,0" transform="translate(119.258 63.939)"/>
    <path id="패스_9708" data-name="패스 9708" class="cls-6" d="M5.278.182a3.967,3.967,0,0,0,3.15-1.47L7.714-2.1A3.119,3.119,0,0,1,5.334-.952c-1.96,0-3.192-1.624-3.192-4.214,0-2.562,1.288-4.158,3.234-4.158a2.8,2.8,0,0,1,2.1.98l.7-.84a3.8,3.8,0,0,0-2.814-1.274c-2.6,0-4.55,2.016-4.55,5.334S2.73.182,5.278.182Zm7.672,0c1.862,0,3.528-1.456,3.528-3.976s-1.666-4-3.528-4-3.528,1.47-3.528,4S11.088.182,12.95.182Zm0-1.064c-1.316,0-2.2-1.162-2.2-2.912s.882-2.94,2.2-2.94,2.212,1.19,2.212,2.94S14.266-.882,12.95-.882ZM19.6.182A2.013,2.013,0,0,0,20.342.07L20.16-.91a1.118,1.118,0,0,1-.266.028c-.2,0-.364-.154-.364-.546v-9.716H18.256v9.632C18.256-.434,18.648.182,19.6.182Zm3.766,0A2.013,2.013,0,0,0,24.108.07l-.182-.98a1.118,1.118,0,0,1-.266.028c-.2,0-.364-.154-.364-.546v-9.716H22.022v9.632C22.022-.434,22.414.182,23.366.182Zm5.488,0A4.525,4.525,0,0,0,31.374-.6l-.462-.84a3.277,3.277,0,0,1-1.9.6,2.519,2.519,0,0,1-2.52-2.66h5.124a4.974,4.974,0,0,0,.056-.728c0-2.17-1.092-3.57-3.024-3.57-1.764,0-3.43,1.54-3.43,4A3.633,3.633,0,0,0,28.854.182ZM26.474-4.41a2.339,2.339,0,0,1,2.184-2.366c1.19,0,1.89.826,1.89,2.366Z" transform="translate(49.769 52.533)"/>
    <path id="패스_9709" data-name="패스 9709" class="cls-6" d="M4.284.182a3.625,3.625,0,0,0,2.45-.966l-.546-.854A2.68,2.68,0,0,1,4.4-.882C3-.882,2.044-2.044,2.044-3.794s1.008-2.94,2.38-2.94a2.207,2.207,0,0,1,1.526.686L6.608-6.9a3.25,3.25,0,0,0-2.226-.9,3.7,3.7,0,0,0-3.668,4C.714-1.274,2.268.182,4.284.182Z" transform="translate(81.159 52.533)"/>
    <path id="패스_9710" data-name="패스 9710" class="cls-6" d="M3.682.182a4.786,4.786,0,0,0,1.4-.28L4.83-1.05a2.693,2.693,0,0,1-.868.2c-.882,0-1.176-.532-1.176-1.47V-6.566H4.844V-7.6H2.786V-9.73H1.722L1.568-7.6l-1.19.07v.966H1.512v4.214C1.512-.826,2.058.182,3.682.182Z" transform="translate(88.28 52.533)"/>
    <path id="패스_9711" data-name="패스 9711" class="cls-6" d="M4.284.182a3.625,3.625,0,0,0,2.45-.966l-.546-.854A2.68,2.68,0,0,1,4.4-.882C3-.882,2.044-2.044,2.044-3.794s1.008-2.94,2.38-2.94a2.207,2.207,0,0,1,1.526.686L6.608-6.9a3.25,3.25,0,0,0-2.226-.9,3.7,3.7,0,0,0-3.668,4C.714-1.274,2.268.182,4.284.182Zm6.09,0a3.261,3.261,0,0,0,2.52-1.372h.042l.1,1.19H14.1V-7.6H12.824v5.39C12.1-1.3,11.55-.924,10.766-.924c-1.008,0-1.428-.6-1.428-2.016V-7.6H8.064v4.816C8.064-.854,8.778.182,10.374.182Zm8.022,0c1.792,0,2.772-1.022,2.772-2.254,0-1.442-1.218-1.89-2.324-2.31-.854-.322-1.68-.588-1.68-1.316,0-.588.434-1.092,1.386-1.092a2.86,2.86,0,0,1,1.75.672l.616-.826A3.939,3.939,0,0,0,18.55-7.8c-1.652,0-2.618.952-2.618,2.156,0,1.288,1.2,1.806,2.268,2.2.84.322,1.736.672,1.736,1.442,0,.658-.49,1.19-1.5,1.19a3.448,3.448,0,0,1-2.254-.9l-.63.84A4.585,4.585,0,0,0,18.4.182Z" transform="translate(41.912 69.529)"/>
    <path id="패스_9712" data-name="패스 9712" class="cls-6" d="M3.682.182a4.786,4.786,0,0,0,1.4-.28L4.83-1.05a2.693,2.693,0,0,1-.868.2c-.882,0-1.176-.532-1.176-1.47V-6.566H4.844V-7.6H2.786V-9.73H1.722L1.568-7.6l-1.19.07v.966H1.512v4.214C1.512-.826,2.058.182,3.682.182Zm5.376,0c1.862,0,3.528-1.456,3.528-3.976s-1.666-4-3.528-4-3.528,1.47-3.528,4S7.2.182,9.058.182Zm0-1.064c-1.316,0-2.2-1.162-2.2-2.912s.882-2.94,2.2-2.94,2.212,1.19,2.212,2.94S10.374-.882,9.058-.882ZM14.336,0H15.61V-5.516a2.808,2.808,0,0,1,1.918-1.162c.966,0,1.414.6,1.414,2.03V0h1.274V-5.516a2.808,2.808,0,0,1,1.918-1.162c.966,0,1.414.6,1.414,2.03V0h1.274V-4.816c0-1.946-.742-2.982-2.31-2.982a3.594,3.594,0,0,0-2.506,1.456,2,2,0,0,0-2.1-1.456A3.34,3.34,0,0,0,15.54-6.5H15.5L15.386-7.6h-1.05ZM30.114.182A4.525,4.525,0,0,0,32.634-.6l-.462-.84a3.277,3.277,0,0,1-1.9.6,2.519,2.519,0,0,1-2.52-2.66h5.124a4.974,4.974,0,0,0,.056-.728c0-2.17-1.092-3.57-3.024-3.57-1.764,0-3.43,1.54-3.43,4A3.633,3.633,0,0,0,30.114.182ZM27.734-4.41a2.339,2.339,0,0,1,2.184-2.366c1.19,0,1.89.826,1.89,2.366Z" transform="translate(63.169 69.529)"/>
    <path id="패스_9713" data-name="패스 9713" class="cls-6" d="M1.288,0H2.562V-4.886c.5-1.3,1.288-1.75,1.918-1.75a1.8,1.8,0,0,1,.742.126L5.46-7.63A1.621,1.621,0,0,0,4.648-7.8,2.625,2.625,0,0,0,2.492-6.216H2.45L2.338-7.6H1.288Z" transform="translate(95.976 69.529)"/>
    <path id="패스_9714" data-name="패스 9714" class="cls-6" d="M1.288,0H2.562V-7.6H1.288Zm.644-9.17A.833.833,0,0,0,2.814-10a.809.809,0,0,0-.882-.826A.809.809,0,0,0,1.05-10,.833.833,0,0,0,1.932-9.17ZM4.914,0H6.188V-5.516A2.891,2.891,0,0,1,8.274-6.678c1.008,0,1.442.6,1.442,2.03V0H10.99V-4.816c0-1.946-.728-2.982-2.324-2.982A3.646,3.646,0,0,0,6.118-6.51H6.076L5.964-7.6H4.914ZM16.94-11.074a3.332,3.332,0,0,0-1.274-.252c-1.512,0-2.212.966-2.212,2.506V-7.6l-1.036.07v.966h1.036V0h1.274V-6.566h1.61V-7.6h-1.61v-1.2c0-.98.35-1.5,1.078-1.5a2.158,2.158,0,0,1,.854.2ZM20.37.182c1.862,0,3.528-1.456,3.528-3.976s-1.666-4-3.528-4-3.528,1.47-3.528,4S18.508.182,20.37.182Zm0-1.064c-1.316,0-2.2-1.162-2.2-2.912s.882-2.94,2.2-2.94,2.212,1.19,2.212,2.94S21.686-.882,20.37-.882ZM25.676,0H26.95V-4.886c.5-1.3,1.288-1.75,1.918-1.75a1.8,1.8,0,0,1,.742.126l.238-1.12a1.621,1.621,0,0,0-.812-.168A2.625,2.625,0,0,0,26.88-6.216h-.042L26.726-7.6h-1.05Z" transform="translate(34.636 86.526)"/>
    <path id="패스_9715" data-name="패스 9715" class="cls-6" d="M1.288,0H2.562V-5.516A2.808,2.808,0,0,1,4.48-6.678c.966,0,1.414.6,1.414,2.03V0H7.168V-5.516A2.808,2.808,0,0,1,9.086-6.678c.966,0,1.414.6,1.414,2.03V0h1.274V-4.816c0-1.946-.742-2.982-2.31-2.982A3.594,3.594,0,0,0,6.958-6.342,2,2,0,0,0,4.858-7.8,3.34,3.34,0,0,0,2.492-6.5H2.45L2.338-7.6H1.288Zm14.49.182A4.073,4.073,0,0,0,18.3-.91h.042l.112.91H19.5V-4.676c0-1.876-.784-3.122-2.632-3.122a5.718,5.718,0,0,0-3,.994l.5.882a4.188,4.188,0,0,1,2.282-.812c1.246,0,1.568.938,1.568,1.918-3.234.364-4.676,1.19-4.676,2.842A2.061,2.061,0,0,0,15.778.182ZM16.142-.84c-.756,0-1.344-.35-1.344-1.218,0-.98.868-1.61,3.43-1.918v2.128A3.107,3.107,0,0,1,16.142-.84ZM23.884.182a4.786,4.786,0,0,0,1.4-.28l-.252-.952a2.693,2.693,0,0,1-.868.2c-.882,0-1.176-.532-1.176-1.47V-6.566h2.058V-7.6H22.988V-9.73H21.924L21.77-7.6l-1.19.07v.966h1.134v4.214C21.714-.826,22.26.182,23.884.182ZM26.544,0h1.274V-7.6H26.544Zm.644-9.17A.833.833,0,0,0,28.07-10a.809.809,0,0,0-.882-.826.809.809,0,0,0-.882.826A.833.833,0,0,0,27.188-9.17ZM33.124.182c1.862,0,3.528-1.456,3.528-3.976s-1.666-4-3.528-4-3.528,1.47-3.528,4S31.262.182,33.124.182Zm0-1.064c-1.316,0-2.2-1.162-2.2-2.912s.882-2.94,2.2-2.94,2.212,1.19,2.212,2.94S34.44-.882,33.124-.882ZM38.43,0H39.7V-5.516A2.891,2.891,0,0,1,41.79-6.678c1.008,0,1.442.6,1.442,2.03V0h1.274V-4.816c0-1.946-.728-2.982-2.324-2.982A3.646,3.646,0,0,0,39.634-6.51h-.042L39.48-7.6H38.43Z" transform="translate(63.808 86.526)"/>
    <path id="패스_9614" data-name="패스 9614" class="cls-7" d="M0,0,6.645.035,6.68,6.68" transform="translate(23.819 21.89)"/>
    <path id="패스_9615" data-name="패스 9615" class="cls-8" d="M0,0A59,59,0,0,0-14.081,36.879" transform="translate(26.416 25.57)"/>
    <path id="패스_9616" data-name="패스 9616" class="cls-9" d="M0,0A59.253,59.253,0,0,0,57.674,56.23" transform="translate(12.392 66.941)"/>
    <path id="패스_9617" data-name="패스 9617" class="cls-9" d="M0,0A59.252,59.252,0,0,0,56.23-57.674" transform="translate(74.568 123.115)"/>
    <path id="패스_9618" data-name="패스 9618" class="cls-10" d="M0,0H0M-16.087,40.591h0m59.25,59.251h0m59.25-59.251h0" transform="translate(28.404 23.348)"/>
    <path id="패스_9619" data-name="패스 9619" class="cls-6" d="M0,0A11.817,11.817,0,0,0,11.817-11.817,11.817,11.817,0,0,0,0-23.635,11.817,11.817,0,0,0-11.817-11.817,11.817,11.817,0,0,0,0,0" transform="translate(11.817 78.033)"/>
    <text id="_1" data-name="1" class="cls-11" transform="translate(8.431 70.746)"><tspan x="0" y="0">1</tspan></text>
    <path id="패스_9621" data-name="패스 9621" class="cls-12" d="M0,0V12" transform="translate(70.033 127.817)"/>
    <path id="패스_9622" data-name="패스 9622" class="cls-5" d="M0,0A47.69,47.69,0,0,0,47.691-47.691,47.69,47.69,0,0,0,0-95.382,47.69,47.69,0,0,0-47.691-47.691,47.69,47.69,0,0,0,0,0" transform="translate(239.886 110.631)"/>
    <path id="패스_9716" data-name="패스 9716" class="cls-6" d="M2.674-4.172l.5-1.568c.364-1.162.7-2.268,1.022-3.472h.056c.336,1.19.658,2.31,1.036,3.472l.49,1.568ZM7.084,0H8.456L4.97-10.262H3.528L.042,0H1.358l.994-3.136H6.1Z" transform="translate(216.796 52.414)"/>
    <path id="패스_9717" data-name="패스 9717" class="cls-6" d="M1.288,0H2.562V-4.886c.5-1.3,1.288-1.75,1.918-1.75a1.8,1.8,0,0,1,.742.126L5.46-7.63A1.621,1.621,0,0,0,4.648-7.8,2.625,2.625,0,0,0,2.492-6.216H2.45L2.338-7.6H1.288Zm8.05.182a3.625,3.625,0,0,0,2.45-.966l-.546-.854A2.68,2.68,0,0,1,9.45-.882C8.05-.882,7.1-2.044,7.1-3.794s1.008-2.94,2.38-2.94A2.207,2.207,0,0,1,11-6.048l.658-.854a3.25,3.25,0,0,0-2.226-.9,3.7,3.7,0,0,0-3.668,4C5.768-1.274,7.322.182,9.338.182ZM13.244,0h1.274V-5.516A2.891,2.891,0,0,1,16.6-6.678c1.008,0,1.442.6,1.442,2.03V0H19.32V-4.816C19.32-6.762,18.592-7.8,17-7.8a3.569,3.569,0,0,0-2.52,1.274l.042-1.568v-3.052H13.244Zm8.274,0h1.274V-7.6H21.518Zm.644-9.17A.833.833,0,0,0,23.044-10a.809.809,0,0,0-.882-.826A.809.809,0,0,0,21.28-10,.833.833,0,0,0,22.162-9.17ZM26.782,0h1.484l2.7-7.6h-1.26L28.266-3.276c-.224.742-.476,1.526-.7,2.24H27.51c-.238-.714-.476-1.5-.714-2.24L25.368-7.6h-1.33Zm8.442.182A4.525,4.525,0,0,0,37.744-.6l-.462-.84a3.277,3.277,0,0,1-1.9.6,2.519,2.519,0,0,1-2.52-2.66h5.124a4.974,4.974,0,0,0,.056-.728c0-2.17-1.092-3.57-3.024-3.57-1.764,0-3.43,1.54-3.43,4A3.633,3.633,0,0,0,35.224.182ZM32.844-4.41a2.339,2.339,0,0,1,2.184-2.366c1.19,0,1.89.826,1.89,2.366Z" transform="translate(225.08 52.414)"/>
    <text id="_" data-name=" " class="cls-13" transform="translate(262.971 52.414)"><tspan x="0" y="0"> </tspan></text>
    <text id="_2" data-name=" " class="cls-14" transform="translate(266.759 52.414)"><tspan x="0" y="0"> </tspan></text>
    <path id="패스_9718" data-name="패스 9718" class="cls-6" d="M3.038.182A4.073,4.073,0,0,0,5.558-.91H5.6L5.712,0h1.05V-4.676C6.762-6.552,5.978-7.8,4.13-7.8a5.718,5.718,0,0,0-3,.994l.5.882A4.188,4.188,0,0,1,3.92-6.734c1.246,0,1.568.938,1.568,1.918C2.254-4.452.812-3.626.812-1.974A2.061,2.061,0,0,0,3.038.182ZM3.4-.84c-.756,0-1.344-.35-1.344-1.218,0-.98.868-1.61,3.43-1.918v2.128A3.107,3.107,0,0,1,3.4-.84ZM9.184,0h1.274V-5.516a2.891,2.891,0,0,1,2.086-1.162c1.008,0,1.442.6,1.442,2.03V0H15.26V-4.816c0-1.946-.728-2.982-2.324-2.982A3.646,3.646,0,0,0,10.388-6.51h-.042L10.234-7.6H9.184ZM20.328.182A3.391,3.391,0,0,0,22.638-.9h.028l.126.9h1.036V-11.144H22.554v2.926l.07,1.316a3.093,3.093,0,0,0-2.142-.9c-1.736,0-3.29,1.54-3.29,4C17.192-1.26,18.424.182,20.328.182Zm.28-1.064c-1.344,0-2.1-1.092-2.1-2.926,0-1.736.966-2.912,2.2-2.912a2.669,2.669,0,0,1,1.848.8v3.99A2.613,2.613,0,0,1,20.608-.882ZM31.766.182a3.261,3.261,0,0,0,2.52-1.372h.042l.1,1.19H35.49V-7.6H34.216v5.39c-.728.91-1.274,1.288-2.058,1.288-1.008,0-1.428-.6-1.428-2.016V-7.6H29.456v4.816C29.456-.854,30.17.182,31.766.182Zm8.274,0c1.792,0,2.772-1.022,2.772-2.254,0-1.442-1.218-1.89-2.324-2.31-.854-.322-1.68-.588-1.68-1.316,0-.588.434-1.092,1.386-1.092a2.86,2.86,0,0,1,1.75.672l.616-.826A3.939,3.939,0,0,0,40.194-7.8c-1.652,0-2.618.952-2.618,2.156,0,1.288,1.2,1.806,2.268,2.2.84.322,1.736.672,1.736,1.442,0,.658-.49,1.19-1.5,1.19a3.448,3.448,0,0,1-2.254-.9l-.63.84A4.585,4.585,0,0,0,40.04.182Zm7.63,0A4.525,4.525,0,0,0,50.19-.6l-.462-.84a3.277,3.277,0,0,1-1.9.6A2.519,2.519,0,0,1,45.3-3.5h5.124a4.974,4.974,0,0,0,.056-.728c0-2.17-1.092-3.57-3.024-3.57-1.764,0-3.43,1.54-3.43,4A3.633,3.633,0,0,0,47.67.182ZM45.29-4.41a2.339,2.339,0,0,1,2.184-2.366c1.19,0,1.89.826,1.89,2.366Z" transform="translate(215.041 69.41)"/>
    <path id="패스_9719" data-name="패스 9719" class="cls-6" d="M1.288,0H2.562V-7.6H1.288Zm.644-9.17A.833.833,0,0,0,2.814-10a.809.809,0,0,0-.882-.826A.809.809,0,0,0,1.05-10,.833.833,0,0,0,1.932-9.17ZM4.914,0H6.188V-5.516A2.891,2.891,0,0,1,8.274-6.678c1.008,0,1.442.6,1.442,2.03V0H10.99V-4.816c0-1.946-.728-2.982-2.324-2.982A3.646,3.646,0,0,0,6.118-6.51H6.076L5.964-7.6H4.914ZM16.94-11.074a3.332,3.332,0,0,0-1.274-.252c-1.512,0-2.212.966-2.212,2.506V-7.6l-1.036.07v.966h1.036V0h1.274V-6.566h1.61V-7.6h-1.61v-1.2c0-.98.35-1.5,1.078-1.5a2.158,2.158,0,0,1,.854.2ZM20.37.182c1.862,0,3.528-1.456,3.528-3.976s-1.666-4-3.528-4-3.528,1.47-3.528,4S18.508.182,20.37.182Zm0-1.064c-1.316,0-2.2-1.162-2.2-2.912s.882-2.94,2.2-2.94,2.212,1.19,2.212,2.94S21.686-.882,20.37-.882ZM25.676,0H26.95V-4.886c.5-1.3,1.288-1.75,1.918-1.75a1.8,1.8,0,0,1,.742.126l.238-1.12a1.621,1.621,0,0,0-.812-.168A2.625,2.625,0,0,0,26.88-6.216h-.042L26.726-7.6h-1.05Z" transform="translate(202.972 86.406)"/>
    <path id="패스_9720" data-name="패스 9720" class="cls-6" d="M1.288,0H2.562V-5.516A2.808,2.808,0,0,1,4.48-6.678c.966,0,1.414.6,1.414,2.03V0H7.168V-5.516A2.808,2.808,0,0,1,9.086-6.678c.966,0,1.414.6,1.414,2.03V0h1.274V-4.816c0-1.946-.742-2.982-2.31-2.982A3.594,3.594,0,0,0,6.958-6.342,2,2,0,0,0,4.858-7.8,3.34,3.34,0,0,0,2.492-6.5H2.45L2.338-7.6H1.288Zm14.49.182A4.073,4.073,0,0,0,18.3-.91h.042l.112.91H19.5V-4.676c0-1.876-.784-3.122-2.632-3.122a5.718,5.718,0,0,0-3,.994l.5.882a4.188,4.188,0,0,1,2.282-.812c1.246,0,1.568.938,1.568,1.918-3.234.364-4.676,1.19-4.676,2.842A2.061,2.061,0,0,0,15.778.182ZM16.142-.84c-.756,0-1.344-.35-1.344-1.218,0-.98.868-1.61,3.43-1.918v2.128A3.107,3.107,0,0,1,16.142-.84ZM23.884.182a4.786,4.786,0,0,0,1.4-.28l-.252-.952a2.693,2.693,0,0,1-.868.2c-.882,0-1.176-.532-1.176-1.47V-6.566h2.058V-7.6H22.988V-9.73H21.924L21.77-7.6l-1.19.07v.966h1.134v4.214C21.714-.826,22.26.182,23.884.182ZM26.544,0h1.274V-7.6H26.544Zm.644-9.17A.833.833,0,0,0,28.07-10a.809.809,0,0,0-.882-.826.809.809,0,0,0-.882.826A.833.833,0,0,0,27.188-9.17ZM33.124.182c1.862,0,3.528-1.456,3.528-3.976s-1.666-4-3.528-4-3.528,1.47-3.528,4S31.262.182,33.124.182Zm0-1.064c-1.316,0-2.2-1.162-2.2-2.912s.882-2.94,2.2-2.94,2.212,1.19,2.212,2.94S34.44-.882,33.124-.882ZM38.43,0H39.7V-5.516A2.891,2.891,0,0,1,41.79-6.678c1.008,0,1.442.6,1.442,2.03V0h1.274V-4.816c0-1.946-.728-2.982-2.324-2.982A3.646,3.646,0,0,0,39.634-6.51h-.042L39.48-7.6H38.43Z" transform="translate(232.144 86.406)"/>
    <path id="패스_9624" data-name="패스 9624" class="cls-15" d="M0,0A59.27,59.27,0,0,1,57.674-56.264" transform="translate(180.711 60.971)"/>
    <path id="패스_9625" data-name="패스 9625" class="cls-15" d="M0,0A59.271,59.271,0,0,1,56.229,57.708" transform="translate(242.888 4.764)"/>
    <path id="패스_9626" data-name="패스 9626" class="cls-10" d="M0,0H0M59.25-59.284h0M118.5,0h0" transform="translate(180.636 63.974)"/>
    <path id="패스_9627" data-name="패스 9627" class="cls-6" d="M0,0A11.817,11.817,0,0,0,11.817-11.817,11.817,11.817,0,0,0,0-23.635,11.817,11.817,0,0,0-11.817-11.817,11.817,11.817,0,0,0,0,0" transform="translate(178.136 76.291)"/>
    <text id="_2-2" data-name="2" class="cls-11" transform="translate(174.75 69.004)"><tspan x="0" y="0">2</tspan></text>
    <path id="패스_9629" data-name="패스 9629" class="cls-12" d="M0,0V12" transform="translate(244.023 127.817)"/>
    <path id="패스_9630" data-name="패스 9630" class="cls-16" d="M0,0H47.94" transform="translate(304.176 63.974)"/>
    <path id="패스_9631" data-name="패스 9631" class="cls-2" d="M0,0H0M51,0h0" transform="translate(302.136 63.974)"/>
    <path id="패스_9632" data-name="패스 9632" class="cls-3" d="M0,0A47.69,47.69,0,0,0,47.691-47.691,47.69,47.69,0,0,0,0-95.382,47.69,47.69,0,0,0-47.691-47.691,47.69,47.69,0,0,0,0,0" transform="translate(412.435 112.165)"/>
    <path id="패스_9721" data-name="패스 9721" class="cls-6" d="M1.4,0H4.032C7.126,0,8.82-1.918,8.82-5.166s-1.694-5.1-4.844-5.1H1.4ZM2.7-1.064V-9.212H3.864c2.422,0,3.612,1.442,3.612,4.046s-1.19,4.1-3.612,4.1Z" transform="translate(388.247 51.914)"/>
    <path id="패스_9722" data-name="패스 9722" class="cls-6" d="M4.354.182A4.525,4.525,0,0,0,6.874-.6l-.462-.84a3.277,3.277,0,0,1-1.9.6A2.519,2.519,0,0,1,1.988-3.5H7.112a4.974,4.974,0,0,0,.056-.728c0-2.17-1.092-3.57-3.024-3.57-1.764,0-3.43,1.54-3.43,4A3.633,3.633,0,0,0,4.354.182ZM1.974-4.41A2.339,2.339,0,0,1,4.158-6.776c1.19,0,1.89.826,1.89,2.366Z" transform="translate(397.505 51.914)"/>
    <path id="패스_9723" data-name="패스 9723" class="cls-6" d="M3.276.182C5.068.182,6.048-.84,6.048-2.072c0-1.442-1.218-1.89-2.324-2.31C2.87-4.7,2.044-4.97,2.044-5.7c0-.588.434-1.092,1.386-1.092a2.86,2.86,0,0,1,1.75.672L5.8-6.944A3.939,3.939,0,0,0,3.43-7.8C1.778-7.8.812-6.846.812-5.642c0,1.288,1.2,1.806,2.268,2.2.84.322,1.736.672,1.736,1.442,0,.658-.49,1.19-1.5,1.19a3.448,3.448,0,0,1-2.254-.9l-.63.84A4.585,4.585,0,0,0,3.276.182Z" transform="translate(405.011 51.914)"/>
    <path id="패스_9724" data-name="패스 9724" class="cls-6" d="M3.682.182a4.786,4.786,0,0,0,1.4-.28L4.83-1.05a2.693,2.693,0,0,1-.868.2c-.882,0-1.176-.532-1.176-1.47V-6.566H4.844V-7.6H2.786V-9.73H1.722L1.568-7.6l-1.19.07v.966H1.512v4.214C1.512-.826,2.058.182,3.682.182Z" transform="translate(411.458 51.914)"/>
    <path id="패스_9725" data-name="패스 9725" class="cls-6" d="M1.288,0H2.562V-4.886c.5-1.3,1.288-1.75,1.918-1.75a1.8,1.8,0,0,1,.742.126L5.46-7.63A1.621,1.621,0,0,0,4.648-7.8,2.625,2.625,0,0,0,2.492-6.216H2.45L2.338-7.6H1.288Zm7.98.182C11.13.182,12.8-1.274,12.8-3.794s-1.666-4-3.528-4-3.528,1.47-3.528,4S7.406.182,9.268.182Zm0-1.064c-1.316,0-2.2-1.162-2.2-2.912s.882-2.94,2.2-2.94,2.212,1.19,2.212,2.94S10.584-.882,9.268-.882Zm5.348,4.158c1.512,0,2.3-1.148,2.828-2.646L20.314-7.6H19.068L17.71-3.374c-.21.672-.434,1.442-.644,2.128H17c-.238-.686-.5-1.47-.728-2.128L14.714-7.6h-1.33L16.436.014l-.168.574c-.308.938-.854,1.638-1.722,1.638a1.817,1.817,0,0,1-.574-.126L13.72,3.122A2.34,2.34,0,0,0,14.616,3.276Z" transform="translate(416.505 51.914)"/>
    <text id="_3" data-name=" " class="cls-17" transform="translate(436.619 51.914)"><tspan x="0" y="0"> </tspan></text>
    <path id="패스_9726" data-name="패스 9726" class="cls-6" d="M4.284.182a3.625,3.625,0,0,0,2.45-.966l-.546-.854A2.68,2.68,0,0,1,4.4-.882C3-.882,2.044-2.044,2.044-3.794s1.008-2.94,2.38-2.94a2.207,2.207,0,0,1,1.526.686L6.608-6.9a3.25,3.25,0,0,0-2.226-.9,3.7,3.7,0,0,0-3.668,4C.714-1.274,2.268.182,4.284.182Zm6.09,0a3.261,3.261,0,0,0,2.52-1.372h.042l.1,1.19H14.1V-7.6H12.824v5.39C12.1-1.3,11.55-.924,10.766-.924c-1.008,0-1.428-.6-1.428-2.016V-7.6H8.064v4.816C8.064-.854,8.778.182,10.374.182Zm8.022,0c1.792,0,2.772-1.022,2.772-2.254,0-1.442-1.218-1.89-2.324-2.31-.854-.322-1.68-.588-1.68-1.316,0-.588.434-1.092,1.386-1.092a2.86,2.86,0,0,1,1.75.672l.616-.826A3.939,3.939,0,0,0,18.55-7.8c-1.652,0-2.618.952-2.618,2.156,0,1.288,1.2,1.806,2.268,2.2.84.322,1.736.672,1.736,1.442,0,.658-.49,1.19-1.5,1.19a3.448,3.448,0,0,1-2.254-.9l-.63.84A4.585,4.585,0,0,0,18.4.182Z" transform="translate(382.779 68.91)"/>
    <path id="패스_9727" data-name="패스 9727" class="cls-6" d="M3.682.182a4.786,4.786,0,0,0,1.4-.28L4.83-1.05a2.693,2.693,0,0,1-.868.2c-.882,0-1.176-.532-1.176-1.47V-6.566H4.844V-7.6H2.786V-9.73H1.722L1.568-7.6l-1.19.07v.966H1.512v4.214C1.512-.826,2.058.182,3.682.182Zm5.376,0c1.862,0,3.528-1.456,3.528-3.976s-1.666-4-3.528-4-3.528,1.47-3.528,4S7.2.182,9.058.182Zm0-1.064c-1.316,0-2.2-1.162-2.2-2.912s.882-2.94,2.2-2.94,2.212,1.19,2.212,2.94S10.374-.882,9.058-.882ZM14.336,0H15.61V-5.516a2.808,2.808,0,0,1,1.918-1.162c.966,0,1.414.6,1.414,2.03V0h1.274V-5.516a2.808,2.808,0,0,1,1.918-1.162c.966,0,1.414.6,1.414,2.03V0h1.274V-4.816c0-1.946-.742-2.982-2.31-2.982a3.594,3.594,0,0,0-2.506,1.456,2,2,0,0,0-2.1-1.456A3.34,3.34,0,0,0,15.54-6.5H15.5L15.386-7.6h-1.05ZM30.114.182A4.525,4.525,0,0,0,32.634-.6l-.462-.84a3.277,3.277,0,0,1-1.9.6,2.519,2.519,0,0,1-2.52-2.66h5.124a4.974,4.974,0,0,0,.056-.728c0-2.17-1.092-3.57-3.024-3.57-1.764,0-3.43,1.54-3.43,4A3.633,3.633,0,0,0,30.114.182ZM27.734-4.41a2.339,2.339,0,0,1,2.184-2.366c1.19,0,1.89.826,1.89,2.366Z" transform="translate(404.037 68.91)"/>
    <path id="패스_9728" data-name="패스 9728" class="cls-6" d="M1.288,0H2.562V-4.886c.5-1.3,1.288-1.75,1.918-1.75a1.8,1.8,0,0,1,.742.126L5.46-7.63A1.621,1.621,0,0,0,4.648-7.8,2.625,2.625,0,0,0,2.492-6.216H2.45L2.338-7.6H1.288Z" transform="translate(436.843 68.91)"/>
    <path id="패스_9729" data-name="패스 9729" class="cls-6" d="M1.288,0H2.562V-7.6H1.288Zm.644-9.17A.833.833,0,0,0,2.814-10a.809.809,0,0,0-.882-.826A.809.809,0,0,0,1.05-10,.833.833,0,0,0,1.932-9.17ZM4.914,0H6.188V-5.516A2.891,2.891,0,0,1,8.274-6.678c1.008,0,1.442.6,1.442,2.03V0H10.99V-4.816c0-1.946-.728-2.982-2.324-2.982A3.646,3.646,0,0,0,6.118-6.51H6.076L5.964-7.6H4.914ZM16.94-11.074a3.332,3.332,0,0,0-1.274-.252c-1.512,0-2.212.966-2.212,2.506V-7.6l-1.036.07v.966h1.036V0h1.274V-6.566h1.61V-7.6h-1.61v-1.2c0-.98.35-1.5,1.078-1.5a2.158,2.158,0,0,1,.854.2ZM20.37.182c1.862,0,3.528-1.456,3.528-3.976s-1.666-4-3.528-4-3.528,1.47-3.528,4S18.508.182,20.37.182Zm0-1.064c-1.316,0-2.2-1.162-2.2-2.912s.882-2.94,2.2-2.94,2.212,1.19,2.212,2.94S21.686-.882,20.37-.882ZM25.676,0H26.95V-4.886c.5-1.3,1.288-1.75,1.918-1.75a1.8,1.8,0,0,1,.742.126l.238-1.12a1.621,1.621,0,0,0-.812-.168A2.625,2.625,0,0,0,26.88-6.216h-.042L26.726-7.6h-1.05Z" transform="translate(375.503 85.907)"/>
    <path id="패스_9730" data-name="패스 9730" class="cls-6" d="M1.288,0H2.562V-5.516A2.808,2.808,0,0,1,4.48-6.678c.966,0,1.414.6,1.414,2.03V0H7.168V-5.516A2.808,2.808,0,0,1,9.086-6.678c.966,0,1.414.6,1.414,2.03V0h1.274V-4.816c0-1.946-.742-2.982-2.31-2.982A3.594,3.594,0,0,0,6.958-6.342,2,2,0,0,0,4.858-7.8,3.34,3.34,0,0,0,2.492-6.5H2.45L2.338-7.6H1.288Zm14.49.182A4.073,4.073,0,0,0,18.3-.91h.042l.112.91H19.5V-4.676c0-1.876-.784-3.122-2.632-3.122a5.718,5.718,0,0,0-3,.994l.5.882a4.188,4.188,0,0,1,2.282-.812c1.246,0,1.568.938,1.568,1.918-3.234.364-4.676,1.19-4.676,2.842A2.061,2.061,0,0,0,15.778.182ZM16.142-.84c-.756,0-1.344-.35-1.344-1.218,0-.98.868-1.61,3.43-1.918v2.128A3.107,3.107,0,0,1,16.142-.84ZM23.884.182a4.786,4.786,0,0,0,1.4-.28l-.252-.952a2.693,2.693,0,0,1-.868.2c-.882,0-1.176-.532-1.176-1.47V-6.566h2.058V-7.6H22.988V-9.73H21.924L21.77-7.6l-1.19.07v.966h1.134v4.214C21.714-.826,22.26.182,23.884.182ZM26.544,0h1.274V-7.6H26.544Zm.644-9.17A.833.833,0,0,0,28.07-10a.809.809,0,0,0-.882-.826.809.809,0,0,0-.882.826A.833.833,0,0,0,27.188-9.17ZM33.124.182c1.862,0,3.528-1.456,3.528-3.976s-1.666-4-3.528-4-3.528,1.47-3.528,4S31.262.182,33.124.182Zm0-1.064c-1.316,0-2.2-1.162-2.2-2.912s.882-2.94,2.2-2.94,2.212,1.19,2.212,2.94S34.44-.882,33.124-.882ZM38.43,0H39.7V-5.516A2.891,2.891,0,0,1,41.79-6.678c1.008,0,1.442.6,1.442,2.03V0h1.274V-4.816c0-1.946-.728-2.982-2.324-2.982A3.646,3.646,0,0,0,39.634-6.51h-.042L39.48-7.6H38.43Z" transform="translate(404.675 85.907)"/>
    <path id="패스_9634" data-name="패스 9634" class="cls-7" d="M0,0-4.674,4.723,0,9.447" transform="translate(412.084)"/>
    <path id="패스_9635" data-name="패스 9635" class="cls-9" d="M0,0A59.251,59.251,0,0,1,56.23,57.674" transform="translate(415.437 5.298)"/>
    <path id="패스_9636" data-name="패스 9636" class="cls-9" d="M0,0A59.253,59.253,0,0,1-57.674,56.23" transform="translate(471.611 67.475)"/>
    <path id="패스_9637" data-name="패스 9637" class="cls-9" d="M0,0A59.253,59.253,0,0,1-56.23-57.674" transform="translate(409.434 123.649)"/>
    <path id="패스_9638" data-name="패스 9638" class="cls-10" d="M0,0H0M59.25,59.25h0M0,118.5H0M-59.25,59.25h0" transform="translate(412.436 5.223)"/>
    <path id="패스_9639" data-name="패스 9639" class="cls-6" d="M0,0A11.817,11.817,0,0,0,11.817-11.817,11.817,11.817,0,0,0,0-23.635,11.817,11.817,0,0,0-11.817-11.817,11.817,11.817,0,0,0,0,0" transform="translate(351.454 76.291)"/>
    <text id="_3-2" data-name="3" class="cls-11" transform="translate(348.068 69.004)"><tspan x="0" y="0">3</tspan></text>
    <path id="패스_9641" data-name="패스 9641" class="cls-12" d="M0,0V12" transform="translate(411.935 127.817)"/>
  </g>
</svg>
