<svg id="구성_요소_92_1" data-name="구성 요소 92 – 1" xmlns="http://www.w3.org/2000/svg" width="323.672" height="299.45" viewBox="0 0 323.672 299.45">
  <defs>
    <style>
      .cls-1 {
        fill: #f4f6f7;
      }

      .cls-2 {
        fill: #1e2323;
      }

      .cls-3 {
        fill: #828484;
      }

      .cls-4, .cls-5 {
        fill: #fff;
      }

      .cls-4 {
        font-size: 13px;
        font-family: NotoSansKR-Regular, Noto Sans KR;
        letter-spacing: -0.015em;
      }

      .cls-6, .cls-7, .cls-8 {
        fill: none;
        stroke: #64666b;
        stroke-linecap: round;
        stroke-linejoin: round;
        stroke-width: 0.5px;
      }

      .cls-6 {
        stroke-dasharray: 0 1.497;
      }

      .cls-8 {
        stroke-dasharray: 0 1.5;
      }
    </style>
  </defs>
  <path id="패스_9609" data-name="패스 9609" class="cls-1" d="M529-3.679H852.668v-299.45H529Z" transform="translate(-528.996 303.129)"/>
  <path id="패스_9696" data-name="패스 9696" class="cls-2" d="M1.272,0H6.24V-.624H1.992V-4.332H5.46v-.612H1.992V-8.136H6.108v-.612H1.272Z" transform="translate(20.875 52.391)"/>
  <path id="패스_9697" data-name="패스 9697" class="cls-2" d="M.18,0H.924L1.956-1.692c.252-.4.48-.792.72-1.164h.06a11.81,11.81,0,0,1,.732,1.164L4.56,0h.78L3.18-3.276,5.16-6.4H4.428L3.48-4.824c-.216.36-.42.708-.636,1.056H2.8c-.24-.348-.468-.7-.684-1.056L1.128-6.4H.36L2.34-3.348Z" transform="translate(28.185 52.391)"/>
  <path id="패스_9698" data-name="패스 9698" class="cls-2" d="M3,.156a3.619,3.619,0,0,0,1.068-.24L3.9-.624a2.237,2.237,0,0,1-.78.18c-.852,0-1.068-.528-1.068-1.332V-5.808H3.888V-6.4H2.052V-8.244H1.464L1.38-6.4l-1.02.06v.528h1v3.984C1.356-.636,1.74.156,3,.156Z" transform="translate(34.134 52.391)"/>
  <path id="패스_9699" data-name="패스 9699" class="cls-2" d="M3.648.156a3.579,3.579,0,0,0,2.04-.624L5.424-.984a2.864,2.864,0,0,1-1.7.552A2.422,2.422,0,0,1,1.38-3.084H5.916a3.319,3.319,0,0,0,.036-.5c0-1.872-.924-2.976-2.472-2.976-1.452,0-2.808,1.3-2.808,3.372A3.03,3.03,0,0,0,3.648.156ZM1.38-3.636A2.278,2.278,0,0,1,3.492-5.964c1.116,0,1.824.78,1.824,2.328ZM7.656,0h.7V-4.3C8.82-5.484,9.5-5.9,10.068-5.9a1.353,1.353,0,0,1,.588.108L10.8-6.42a1.289,1.289,0,0,0-.648-.144A2.2,2.2,0,0,0,8.34-5.208H8.316L8.232-6.4H7.656Zm4.308,0h.7V-4.788c.744-.768,1.272-1.152,2.016-1.152.984,0,1.4.612,1.4,1.944V0h.7V-4.092c0-1.644-.612-2.472-1.944-2.472a3.146,3.146,0,0,0-2.184,1.14h-.024L12.54-6.4h-.576Z" transform="translate(38.222 52.391)"/>
  <path id="패스_9700" data-name="패스 9700" class="cls-2" d="M2.616.156A3.687,3.687,0,0,0,4.848-.816h.024L4.944,0h.588V-4.056c0-1.416-.54-2.508-2.064-2.508a4.436,4.436,0,0,0-2.424.84l.312.5a3.458,3.458,0,0,1,2.016-.732c1.212,0,1.488.984,1.464,1.932-2.82.324-4.08,1-4.08,2.412A1.688,1.688,0,0,0,2.616.156ZM2.76-.432A1.153,1.153,0,0,1,1.452-1.644c0-.984.864-1.572,3.384-1.86v2.076A3.152,3.152,0,0,1,2.76-.432ZM8.616.156A1.41,1.41,0,0,0,9.084.084L8.976-.468a1.073,1.073,0,0,1-.228.024c-.168,0-.288-.132-.288-.432V-9.54h-.7V-.948C7.764-.2,8.04.156,8.616.156Zm5.82-3.672.54-1.584c.348-1.02.648-1.944.948-3h.048c.312,1.056.6,1.98.96,3l.528,1.584ZM18.624,0h.768l-3.06-8.748h-.744L12.528,0h.72l1-2.94h3.408Z" transform="translate(56.248 52.391)"/>
  <path id="패스_9701" data-name="패스 9701" class="cls-2" d="M2.772.156c1.416,0,2.2-.84,2.2-1.824,0-1.236-1.08-1.584-2.064-1.956C2.16-3.9,1.416-4.164,1.416-4.872c0-.576.432-1.1,1.38-1.1A2.453,2.453,0,0,1,4.32-5.4l.36-.48a3.089,3.089,0,0,0-1.86-.684c-1.344,0-2.1.792-2.1,1.728,0,1.1,1.056,1.5,2,1.836.744.264,1.548.612,1.548,1.368,0,.66-.492,1.212-1.464,1.212a2.93,2.93,0,0,1-2.016-.8L.42-.72A3.748,3.748,0,0,0,2.772.156ZM8.2.156c1.416,0,2.2-.84,2.2-1.824,0-1.236-1.08-1.584-2.064-1.956C7.584-3.9,6.84-4.164,6.84-4.872c0-.576.432-1.1,1.38-1.1A2.453,2.453,0,0,1,9.744-5.4l.36-.48a3.089,3.089,0,0,0-1.86-.684c-1.344,0-2.1.792-2.1,1.728,0,1.1,1.056,1.5,2,1.836.744.264,1.548.612,1.548,1.368C9.7-.972,9.2-.42,8.232-.42a2.93,2.93,0,0,1-2.016-.8l-.372.5A3.748,3.748,0,0,0,8.2.156Zm6.3,0a3.579,3.579,0,0,0,2.04-.624l-.264-.516a2.864,2.864,0,0,1-1.7.552,2.422,2.422,0,0,1-2.34-2.652h4.536a3.319,3.319,0,0,0,.036-.5c0-1.872-.924-2.976-2.472-2.976-1.452,0-2.808,1.3-2.808,3.372A3.03,3.03,0,0,0,14.5.156ZM12.228-3.636A2.278,2.278,0,0,1,14.34-5.964c1.116,0,1.824.78,1.824,2.328ZM20.172.156a3.619,3.619,0,0,0,1.068-.24l-.168-.54a2.237,2.237,0,0,1-.78.18c-.852,0-1.068-.528-1.068-1.332V-5.808H21.06V-6.4H19.224V-8.244h-.588L18.552-6.4l-1.02.06v.528h1v3.984C18.528-.636,18.912.156,20.172.156Zm7.476,0c1.716,0,2.832-1.032,2.832-2.376S29.64-4.1,28.644-4.548l-1.308-.576c-.636-.276-1.488-.648-1.488-1.644,0-.9.744-1.488,1.86-1.488a2.807,2.807,0,0,1,2.064.876l.408-.468A3.341,3.341,0,0,0,27.708-8.9a2.332,2.332,0,0,0-2.592,2.2,2.426,2.426,0,0,0,1.776,2.184l1.308.576c.864.384,1.548.72,1.548,1.776,0,1-.8,1.68-2.1,1.68a3.368,3.368,0,0,1-2.532-1.164l-.444.5A3.893,3.893,0,0,0,27.648.156Zm7.02,0a3.579,3.579,0,0,0,2.04-.624l-.264-.516a2.864,2.864,0,0,1-1.7.552A2.422,2.422,0,0,1,32.4-3.084h4.536a3.319,3.319,0,0,0,.036-.5c0-1.872-.924-2.976-2.472-2.976-1.452,0-2.808,1.3-2.808,3.372A3.03,3.03,0,0,0,34.668.156ZM32.4-3.636a2.278,2.278,0,0,1,2.112-2.328c1.116,0,1.824.78,1.824,2.328ZM41.076.156a3.1,3.1,0,0,0,2.04-.828l-.336-.48a2.555,2.555,0,0,1-1.668.708c-1.344,0-2.232-1.116-2.232-2.748s.972-2.76,2.244-2.76a2.1,2.1,0,0,1,1.464.648l.4-.48a2.705,2.705,0,0,0-1.872-.78,3.056,3.056,0,0,0-2.964,3.372C38.148-1.068,39.408.156,41.076.156Zm5.424,0a2.84,2.84,0,0,0,2.16-1.212H48.7L48.756,0h.588V-6.4h-.7v4.68c-.72.864-1.248,1.248-1.992,1.248-.984,0-1.392-.612-1.392-1.92V-6.4h-.7V-2.3C44.568-.66,45.168.156,46.5.156Z" transform="translate(77.035 52.391)"/>
  <path id="패스_9702" data-name="패스 9702" class="cls-2" d="M1.2,0h.7V-4.3C2.364-5.484,3.048-5.9,3.612-5.9A1.353,1.353,0,0,1,4.2-5.8l.144-.624A1.289,1.289,0,0,0,3.7-6.564,2.2,2.2,0,0,0,1.884-5.208H1.86L1.776-6.4H1.2ZM5.508,0h.7V-6.4h-.7Zm.36-7.9a.566.566,0,0,0,.588-.552.564.564,0,0,0-.588-.576.557.557,0,0,0-.588.576A.559.559,0,0,0,5.868-7.9ZM10.392.156a3.619,3.619,0,0,0,1.068-.24l-.168-.54a2.237,2.237,0,0,1-.78.18c-.852,0-1.068-.528-1.068-1.332V-5.808H11.28V-6.4H9.444V-8.244H8.856L8.772-6.4l-1.02.06v.528h1v3.984C8.748-.636,9.132.156,10.392.156Z" transform="translate(127.423 52.391)"/>
  <path id="패스_9703" data-name="패스 9703" class="cls-2" d="M1.02,2.88C2.2,2.88,2.844,1.848,3.228.744l2.5-7.14H5.016L3.708-2.484c-.18.552-.384,1.224-.576,1.8h-.06C2.844-1.26,2.6-1.932,2.4-2.484L.912-6.4H.156L2.772.1,2.6.636c-.312.924-.828,1.62-1.6,1.62a1.646,1.646,0,0,1-.516-.1l-.156.588A1.7,1.7,0,0,0,1.02,2.88Z" transform="translate(139.667 52.391)"/>
  <path id="패스_9642" data-name="패스 9642" class="cls-3" d="M540.06-271.738H842.418v-20.5H540.06Z" transform="translate(-528.996 301.129)"/>
  <text id="Management" class="cls-4" transform="translate(106.521 25.081)"><tspan x="0" y="0">Management</tspan></text>
  <text id="_" data-name=" " class="cls-4" transform="translate(186.478 25.081)"><tspan x="0" y="0"> </tspan></text>
  <text id="A" class="cls-4" transform="translate(190.182 25.081)"><tspan x="0" y="0">A</tspan></text>
  <text id="rea" class="cls-4" transform="translate(198.3 25.081)"><tspan x="0" y="0">rea</tspan></text>
  <path id="패스_9643" data-name="패스 9643" class="cls-3" d="M540.06-165.856H842.418v-21.7H540.06Z" transform="translate(-528.996 301.129)"/>
  <path id="패스_9681" data-name="패스 9681" class="cls-5" d="M1.3,0H2.509V-3.783H4.082c2.08,0,3.51-.936,3.51-2.951,0-2.08-1.43-2.795-3.575-2.795H1.3ZM2.509-4.758v-3.8H3.874c1.677,0,2.522.442,2.522,1.82S5.6-4.758,3.926-4.758ZM9.152,0h1.183V-5.122A2.685,2.685,0,0,1,12.272-6.2c.936,0,1.339.559,1.339,1.885V0h1.183V-4.472c0-1.807-.676-2.769-2.158-2.769A3.314,3.314,0,0,0,10.3-6.058l.039-1.456v-2.834H9.152ZM16.9,3.042c1.4,0,2.132-1.066,2.626-2.457l2.665-7.644H21.034L19.773-3.133c-.195.624-.4,1.339-.6,1.976H19.11c-.221-.637-.468-1.365-.676-1.976L16.991-7.059H15.756L18.59.013l-.156.533c-.286.871-.793,1.521-1.6,1.521A1.687,1.687,0,0,1,16.3,1.95l-.234.949A2.173,2.173,0,0,0,16.9,3.042ZM25.142.169c1.664,0,2.574-.949,2.574-2.093,0-1.339-1.131-1.755-2.158-2.145-.793-.3-1.56-.546-1.56-1.222,0-.546.4-1.014,1.287-1.014a2.656,2.656,0,0,1,1.625.624l.572-.767a3.658,3.658,0,0,0-2.2-.793c-1.534,0-2.431.884-2.431,2,0,1.2,1.118,1.677,2.106,2.041.78.3,1.612.624,1.612,1.339,0,.611-.455,1.105-1.391,1.105a3.2,3.2,0,0,1-2.093-.832l-.585.78A4.258,4.258,0,0,0,25.142.169ZM29.12,0H30.3V-7.059H29.12Zm.6-8.515a.773.773,0,0,0,.819-.767.751.751,0,0,0-.819-.767.751.751,0,0,0-.819.767A.773.773,0,0,0,29.718-8.515Zm5.5,8.684a3.366,3.366,0,0,0,2.275-.9l-.507-.793a2.489,2.489,0,0,1-1.664.7c-1.3,0-2.184-1.079-2.184-2.7s.936-2.73,2.21-2.73a2.049,2.049,0,0,1,1.417.637l.611-.793a3.018,3.018,0,0,0-2.067-.832A3.437,3.437,0,0,0,31.9-3.523C31.9-1.183,33.345.169,35.217.169Zm5.057,0a3.782,3.782,0,0,0,2.34-1.014h.039l.1.845h.975V-4.342c0-1.742-.728-2.9-2.444-2.9a5.31,5.31,0,0,0-2.782.923l.468.819a3.889,3.889,0,0,1,2.119-.754c1.157,0,1.456.871,1.456,1.781-3,.338-4.342,1.105-4.342,2.639A1.914,1.914,0,0,0,40.274.169Zm.338-.949c-.7,0-1.248-.325-1.248-1.131,0-.91.806-1.495,3.185-1.781v1.976A2.885,2.885,0,0,1,40.612-.78Zm6.357.949a1.869,1.869,0,0,0,.689-.1l-.169-.91a1.038,1.038,0,0,1-.247.026c-.182,0-.338-.143-.338-.507v-9.022H45.721V-1.4C45.721-.4,46.085.169,46.969.169Zm6.136-4.043.468-1.456c.338-1.079.65-2.106.949-3.224h.052c.312,1.1.611,2.145.962,3.224l.455,1.456ZM57.2,0h1.274L55.237-9.529H53.9L50.661,0h1.222l.923-2.912H56.29Zm2.249,0h1.183V-4.537c.468-1.209,1.2-1.625,1.781-1.625a1.67,1.67,0,0,1,.689.117l.221-1.04a1.5,1.5,0,0,0-.754-.156,2.437,2.437,0,0,0-2,1.469h-.039l-.1-1.287h-.975Zm7.488.169a4.2,4.2,0,0,0,2.34-.728l-.429-.78A3.043,3.043,0,0,1,67.08-.78a2.339,2.339,0,0,1-2.34-2.47H69.5a4.618,4.618,0,0,0,.052-.676c0-2.015-1.014-3.315-2.808-3.315a3.414,3.414,0,0,0-3.185,3.718A3.374,3.374,0,0,0,66.937.169Zm-2.21-4.264a2.172,2.172,0,0,1,2.028-2.2c1.105,0,1.755.767,1.755,2.2Z" transform="translate(123.4 129.142)"/>
  <path id="패스_9682" data-name="패스 9682" class="cls-5" d="M2.821.169A3.782,3.782,0,0,0,5.161-.845H5.2L5.3,0h.975V-4.342c0-1.742-.728-2.9-2.444-2.9a5.31,5.31,0,0,0-2.782.923l.468.819A3.889,3.889,0,0,1,3.64-6.253C4.8-6.253,5.1-5.382,5.1-4.472,2.093-4.134.754-3.367.754-1.833A1.914,1.914,0,0,0,2.821.169ZM3.159-.78c-.7,0-1.248-.325-1.248-1.131,0-.91.806-1.495,3.185-1.781v1.976A2.885,2.885,0,0,1,3.159-.78Z" transform="translate(193.755 129.142)"/>
  <path id="패스_9644" data-name="패스 9644" class="cls-3" d="M540.06-117.508H842.418v-21.7H540.06Z" transform="translate(-528.996 301.129)"/>
  <path id="패스_9676" data-name="패스 9676" class="cls-5" d="M3.289,0H4.5V-8.515H7.384V-9.529H.4v1.014H3.289Z" transform="translate(113.559 178.49)"/>
  <path id="패스_9670" data-name="패스 9670" class="cls-5" d="M4.043.169a4.2,4.2,0,0,0,2.34-.728l-.429-.78A3.043,3.043,0,0,1,4.186-.78a2.339,2.339,0,0,1-2.34-2.47H6.6a4.618,4.618,0,0,0,.052-.676c0-2.015-1.014-3.315-2.808-3.315A3.414,3.414,0,0,0,.663-3.523,3.374,3.374,0,0,0,4.043.169ZM1.833-4.095a2.172,2.172,0,0,1,2.028-2.2c1.105,0,1.755.767,1.755,2.2ZM10.92.169a3.366,3.366,0,0,0,2.275-.9l-.507-.793a2.489,2.489,0,0,1-1.664.7c-1.3,0-2.184-1.079-2.184-2.7s.936-2.73,2.21-2.73a2.049,2.049,0,0,1,1.417.637l.611-.793a3.018,3.018,0,0,0-2.067-.832A3.437,3.437,0,0,0,7.605-3.523C7.605-1.183,9.048.169,10.92.169ZM14.495,0h1.183V-5.122A2.685,2.685,0,0,1,17.615-6.2c.936,0,1.339.559,1.339,1.885V0h1.183V-4.472c0-1.807-.676-2.769-2.158-2.769a3.314,3.314,0,0,0-2.34,1.183l.039-1.456v-2.834H14.495Zm7.631,0h1.183V-5.122A2.685,2.685,0,0,1,25.246-6.2c.936,0,1.339.559,1.339,1.885V0h1.183V-4.472c0-1.807-.676-2.769-2.158-2.769a3.385,3.385,0,0,0-2.366,1.2H23.2l-.1-1.014h-.975ZM32.552.169a3.37,3.37,0,0,0,3.276-3.692c0-2.353-1.547-3.718-3.276-3.718s-3.276,1.365-3.276,3.718A3.37,3.37,0,0,0,32.552.169Zm0-.988c-1.222,0-2.041-1.079-2.041-2.7s.819-2.73,2.041-2.73,2.054,1.105,2.054,2.73S33.774-.819,32.552-.819Zm6.123.988a1.869,1.869,0,0,0,.689-.1l-.169-.91a1.038,1.038,0,0,1-.247.026c-.182,0-.338-.143-.338-.507v-9.022H37.427V-1.4C37.427-.4,37.791.169,38.675.169Zm4.94,0a3.37,3.37,0,0,0,3.276-3.692c0-2.353-1.547-3.718-3.276-3.718s-3.276,1.365-3.276,3.718A3.37,3.37,0,0,0,43.615.169Zm0-.988c-1.222,0-2.041-1.079-2.041-2.7s.819-2.73,2.041-2.73,2.054,1.105,2.054,2.73S44.837-.819,43.615-.819ZM50.869,3.25c2.184,0,3.562-1.131,3.562-2.444,0-1.157-.819-1.677-2.457-1.677H50.6c-.949,0-1.235-.312-1.235-.767a1.051,1.051,0,0,1,.455-.845,2.455,2.455,0,0,0,1.053.247,2.421,2.421,0,0,0,2.574-2.457,2.016,2.016,0,0,0-.572-1.456h1.443v-.91H51.857a2.912,2.912,0,0,0-.988-.182,2.514,2.514,0,0,0-2.652,2.522,2.478,2.478,0,0,0,.923,1.9v.052a1.722,1.722,0,0,0-.793,1.313A1.277,1.277,0,0,0,49-.3v.052a2,2,0,0,0-1.053,1.6C47.944,2.574,49.14,3.25,50.869,3.25Zm0-6.292a1.547,1.547,0,0,1-1.508-1.677A1.509,1.509,0,0,1,50.869-6.37a1.507,1.507,0,0,1,1.495,1.651A1.545,1.545,0,0,1,50.869-3.042Zm.169,5.486c-1.287,0-2.054-.494-2.054-1.248A1.489,1.489,0,0,1,49.712,0a3.97,3.97,0,0,0,.91.117h1.222c.936,0,1.443.221,1.443.871C53.287,1.729,52.39,2.444,51.038,2.444Z" transform="translate(120.124 178.49)"/>
  <path id="패스_9671" data-name="패스 9671" class="cls-5" d="M1.313,3.042c1.4,0,2.132-1.066,2.626-2.457L6.6-7.059H5.447L4.186-3.133c-.195.624-.4,1.339-.6,1.976H3.523c-.221-.637-.468-1.365-.676-1.976L1.4-7.059H.169L3,.013,2.847.546c-.286.871-.793,1.521-1.6,1.521A1.687,1.687,0,0,1,.715,1.95L.481,2.9A2.173,2.173,0,0,0,1.313,3.042ZM11.648-3.874l.468-1.456c.338-1.079.65-2.106.949-3.224h.052c.312,1.1.611,2.145.962,3.224l.455,1.456ZM15.743,0h1.274L13.78-9.529H12.441L9.2,0h1.222l.923-2.912h3.484Zm2.249,0h1.183V-4.537c.468-1.209,1.2-1.625,1.781-1.625a1.67,1.67,0,0,1,.689.117l.221-1.04a1.5,1.5,0,0,0-.754-.156,2.437,2.437,0,0,0-2,1.469h-.039l-.1-1.287h-.975ZM25.48.169a4.2,4.2,0,0,0,2.34-.728l-.429-.78a3.043,3.043,0,0,1-1.768.559,2.339,2.339,0,0,1-2.34-2.47h4.758a4.618,4.618,0,0,0,.052-.676c0-2.015-1.014-3.315-2.808-3.315A3.414,3.414,0,0,0,22.1-3.523,3.374,3.374,0,0,0,25.48.169ZM23.27-4.095a2.172,2.172,0,0,1,2.028-2.2c1.1,0,1.755.767,1.755,2.2Z" transform="translate(174.698 178.49)"/>
  <path id="패스_9672" data-name="패스 9672" class="cls-5" d="M2.821.169A3.782,3.782,0,0,0,5.161-.845H5.2L5.3,0h.975V-4.342c0-1.742-.728-2.9-2.444-2.9a5.31,5.31,0,0,0-2.782.923l.468.819A3.889,3.889,0,0,1,3.64-6.253C4.8-6.253,5.1-5.382,5.1-4.472,2.093-4.134.754-3.367.754-1.833A1.914,1.914,0,0,0,2.821.169ZM3.159-.78c-.7,0-1.248-.325-1.248-1.131,0-.91.806-1.495,3.185-1.781v1.976A2.885,2.885,0,0,1,3.159-.78Z" transform="translate(203.597 178.49)"/>
  <path id="패스_9688" data-name="패스 9688" class="cls-2" d="M1.272,0h.72V-8.748h-.72ZM4.224,0h.7V-4.788C5.664-5.556,6.192-5.94,6.936-5.94c.984,0,1.4.612,1.4,1.944V0h.7V-4.092c0-1.644-.612-2.472-1.944-2.472a3.146,3.146,0,0,0-2.184,1.14H4.884L4.8-6.4H4.224Zm9.588-9.48a2.433,2.433,0,0,0-.96-.216c-1.08,0-1.644.684-1.644,1.956V-6.4l-.888.06v.528h.888V0h.7V-5.808h1.452V-6.4H11.9V-7.7c0-.9.3-1.4.984-1.4a1.827,1.827,0,0,1,.756.18ZM16.668.156c1.548,0,2.892-1.224,2.892-3.348s-1.344-3.372-2.892-3.372-2.892,1.236-2.892,3.372S15.12.156,16.668.156Zm0-.6c-1.248,0-2.16-1.116-2.16-2.748s.912-2.76,2.16-2.76,2.172,1.128,2.172,2.76S17.916-.444,16.668-.444ZM21.192,0h.7V-4.3C22.356-5.484,23.04-5.9,23.6-5.9a1.353,1.353,0,0,1,.588.108l.144-.624a1.289,1.289,0,0,0-.648-.144,2.2,2.2,0,0,0-1.812,1.356h-.024L21.768-6.4h-.576ZM25.26,0h.7V-4.788A2.7,2.7,0,0,1,27.8-5.94c.948,0,1.38.612,1.38,1.944V0h.7V-4.788A2.7,2.7,0,0,1,31.728-5.94c.936,0,1.38.612,1.38,1.944V0h.7V-4.092c0-1.644-.636-2.472-1.92-2.472a3.2,3.2,0,0,0-2.16,1.3,1.657,1.657,0,0,0-1.764-1.3,2.97,2.97,0,0,0-2.016,1.14H25.92L25.836-6.4H25.26ZM37.284.156a3.687,3.687,0,0,0,2.232-.972h.024L39.612,0H40.2V-4.056c0-1.416-.54-2.508-2.064-2.508a4.436,4.436,0,0,0-2.424.84l.312.5a3.458,3.458,0,0,1,2.016-.732c1.212,0,1.488.984,1.464,1.932-2.82.324-4.08,1-4.08,2.412A1.688,1.688,0,0,0,37.284.156Zm.144-.588A1.153,1.153,0,0,1,36.12-1.644c0-.984.864-1.572,3.384-1.86v2.076A3.152,3.152,0,0,1,37.428-.432Zm6.408.588A3.619,3.619,0,0,0,44.9-.084l-.168-.54a2.237,2.237,0,0,1-.78.18c-.852,0-1.068-.528-1.068-1.332V-5.808h1.836V-6.4H42.888V-8.244H42.3L42.216-6.4l-1.02.06v.528h1v3.984C42.192-.636,42.576.156,43.836.156ZM46.02,0h.7V-6.4h-.7Zm.36-7.9a.566.566,0,0,0,.588-.552.564.564,0,0,0-.588-.576.557.557,0,0,0-.588.576A.559.559,0,0,0,46.38-7.9ZM51.228.156c1.548,0,2.892-1.224,2.892-3.348s-1.344-3.372-2.892-3.372-2.892,1.236-2.892,3.372S49.68.156,51.228.156Zm0-.6c-1.248,0-2.16-1.116-2.16-2.748s.912-2.76,2.16-2.76S53.4-4.824,53.4-3.192,52.476-.444,51.228-.444ZM55.752,0h.7V-4.788c.744-.768,1.272-1.152,2.016-1.152.984,0,1.4.612,1.4,1.944V0h.7V-4.092c0-1.644-.612-2.472-1.944-2.472a3.146,3.146,0,0,0-2.184,1.14h-.024L56.328-6.4h-.576Zm9.372,0h.72V-3.7h1.6c1.944,0,3.144-.84,3.144-2.592,0-1.812-1.212-2.46-3.192-2.46H65.124Zm.72-4.3V-8.148h1.4c1.74,0,2.6.444,2.6,1.86S69.024-4.3,67.3-4.3ZM72.156,0h.7V-4.3C73.32-5.484,74-5.9,74.568-5.9a1.353,1.353,0,0,1,.588.108L75.3-6.42a1.289,1.289,0,0,0-.648-.144A2.2,2.2,0,0,0,72.84-5.208h-.024L72.732-6.4h-.576Zm6.3.156c1.548,0,2.892-1.224,2.892-3.348S80-6.564,78.456-6.564s-2.892,1.236-2.892,3.372S76.908.156,78.456.156Zm0-.6c-1.248,0-2.16-1.116-2.16-2.748s.912-2.76,2.16-2.76,2.172,1.128,2.172,2.76S79.7-.444,78.456-.444Zm6.144.6a3.619,3.619,0,0,0,1.068-.24L85.5-.624a2.237,2.237,0,0,1-.78.18c-.852,0-1.068-.528-1.068-1.332V-5.808h1.836V-6.4H83.652V-8.244h-.588L82.98-6.4l-1.02.06v.528h1v3.984C82.956-.636,83.34.156,84.6.156Zm4.476,0a3.579,3.579,0,0,0,2.04-.624l-.264-.516a2.864,2.864,0,0,1-1.7.552,2.422,2.422,0,0,1-2.34-2.652h4.536a3.319,3.319,0,0,0,.036-.5c0-1.872-.924-2.976-2.472-2.976-1.452,0-2.808,1.3-2.808,3.372A3.03,3.03,0,0,0,89.076.156ZM86.808-3.636A2.278,2.278,0,0,1,88.92-5.964c1.116,0,1.824.78,1.824,2.328ZM95.244.156a3.1,3.1,0,0,0,2.04-.828l-.336-.48a2.555,2.555,0,0,1-1.668.708c-1.344,0-2.232-1.116-2.232-2.748s.972-2.76,2.244-2.76a2.1,2.1,0,0,1,1.464.648l.4-.48a2.705,2.705,0,0,0-1.872-.78,3.056,3.056,0,0,0-2.964,3.372C92.316-1.068,93.576.156,95.244.156Zm5.016,0a3.619,3.619,0,0,0,1.068-.24l-.168-.54a2.237,2.237,0,0,1-.78.18c-.852,0-1.068-.528-1.068-1.332V-5.808h1.836V-6.4H99.312V-8.244h-.588L98.64-6.4l-1.02.06v.528h1v3.984C98.616-.636,99,.156,100.26.156ZM102.444,0h.7V-6.4h-.7Zm.36-7.9a.566.566,0,0,0,.588-.552.564.564,0,0,0-.588-.576.557.557,0,0,0-.588.576A.559.559,0,0,0,102.8-7.9ZM107.652.156c1.548,0,2.892-1.224,2.892-3.348s-1.344-3.372-2.892-3.372-2.892,1.236-2.892,3.372S106.1.156,107.652.156Zm0-.6c-1.248,0-2.16-1.116-2.16-2.748s.912-2.76,2.16-2.76,2.172,1.128,2.172,2.76S108.9-.444,107.652-.444ZM112.176,0h.7V-4.788c.744-.768,1.272-1.152,2.016-1.152.984,0,1.4.612,1.4,1.944V0h.7V-4.092c0-1.644-.612-2.472-1.944-2.472a3.146,3.146,0,0,0-2.184,1.14h-.024l-.084-.972h-.576Z" transform="translate(22.933 88.621)"/>
  <path id="패스_9689" data-name="패스 9689" class="cls-2" transform="translate(148.62 88.621)"/>
  <path id="패스_9685" data-name="패스 9685" class="cls-2" d="M3.132,0h.732V-8.136h2.76v-.612H.384v.612H3.132Z" transform="translate(64.429 105.625)"/>
  <path id="패스_9686" data-name="패스 9686" class="cls-2" d="M1.2,0h.7V-4.3C2.364-5.484,3.048-5.9,3.612-5.9A1.353,1.353,0,0,1,4.2-5.8l.144-.624A1.289,1.289,0,0,0,3.7-6.564,2.2,2.2,0,0,0,1.884-5.208H1.86L1.776-6.4H1.2Z" transform="translate(71.059 105.625)"/>
  <path id="패스_9683" data-name="패스 9683" class="cls-2" d="M2.616.156A3.687,3.687,0,0,0,4.848-.816h.024L4.944,0h.588V-4.056c0-1.416-.54-2.508-2.064-2.508a4.436,4.436,0,0,0-2.424.84l.312.5a3.458,3.458,0,0,1,2.016-.732c1.212,0,1.488.984,1.464,1.932-2.82.324-4.08,1-4.08,2.412A1.688,1.688,0,0,0,2.616.156ZM2.76-.432A1.153,1.153,0,0,1,1.452-1.644c0-.984.864-1.572,3.384-1.86v2.076A3.152,3.152,0,0,1,2.76-.432ZM7.524,0h.7V-6.4h-.7Zm.36-7.9a.566.566,0,0,0,.588-.552.564.564,0,0,0-.588-.576.557.557,0,0,0-.588.576A.559.559,0,0,0,7.884-7.9ZM10.368,0h.7V-4.788c.744-.768,1.272-1.152,2.016-1.152.984,0,1.4.612,1.4,1.944V0h.7V-4.092c0-1.644-.612-2.472-1.944-2.472a3.146,3.146,0,0,0-2.184,1.14h-.024L10.944-6.4h-.576Zm6.876,0h.7V-6.4h-.7Zm.36-7.9a.566.566,0,0,0,.588-.552.564.564,0,0,0-.588-.576.557.557,0,0,0-.588.576A.559.559,0,0,0,17.6-7.9ZM20.088,0h.7V-4.788c.744-.768,1.272-1.152,2.016-1.152.984,0,1.4.612,1.4,1.944V0h.7V-4.092c0-1.644-.612-2.472-1.944-2.472a3.146,3.146,0,0,0-2.184,1.14h-.024L20.664-6.4h-.576Zm8.976,3.048c1.872,0,3.072-1.056,3.072-2.172C32.136-.144,31.452-.6,30-.6H28.656c-.924,0-1.2-.348-1.2-.8a1.1,1.1,0,0,1,.5-.888,2.162,2.162,0,0,0,1.032.264,2.2,2.2,0,0,0,2.256-2.256,2.04,2.04,0,0,0-.66-1.536h1.44V-6.4H29.844a2.274,2.274,0,0,0-.852-.168A2.234,2.234,0,0,0,26.7-4.3a2.316,2.316,0,0,0,.816,1.74v.048a1.591,1.591,0,0,0-.708,1.188,1.147,1.147,0,0,0,.576,1.032v.06a1.944,1.944,0,0,0-.96,1.524C26.424,2.376,27.468,3.048,29.064,3.048Zm-.072-5.6A1.64,1.64,0,0,1,27.4-4.3a1.587,1.587,0,0,1,1.6-1.7,1.585,1.585,0,0,1,1.584,1.7A1.638,1.638,0,0,1,28.992-2.556Zm.156,5.076c-1.308,0-2.064-.528-2.064-1.308a1.6,1.6,0,0,1,.792-1.284,4.5,4.5,0,0,0,.8.108h1.308c.948,0,1.452.252,1.452.936C31.44,1.74,30.54,2.52,29.148,2.52Z" transform="translate(75.153 105.625)"/>
  <path id="패스_9704" data-name="패스 9704" class="cls-2" d="M1.272,0h.72V-8.748h-.72Zm3.06,0h.7V-4.788C5.772-5.556,6.3-5.94,7.044-5.94c.984,0,1.4.612,1.4,1.944V0h.7V-4.092c0-1.644-.612-2.472-1.944-2.472a3.146,3.146,0,0,0-2.184,1.14H4.992L4.908-6.4H4.332Zm9.7-9.48a2.433,2.433,0,0,0-.96-.216c-1.08,0-1.644.684-1.644,1.956V-6.4l-.888.06v.528h.888V0h.7V-5.808h1.452V-6.4H12.12V-7.7c0-.9.3-1.4.984-1.4a1.827,1.827,0,0,1,.756.18ZM16.992.156c1.548,0,2.892-1.224,2.892-3.348S18.54-6.564,16.992-6.564,14.1-5.328,14.1-3.192,15.444.156,16.992.156Zm0-.6c-1.248,0-2.16-1.116-2.16-2.748s.912-2.76,2.16-2.76,2.172,1.128,2.172,2.76S18.24-.444,16.992-.444ZM21.624,0h.7V-4.3C22.788-5.484,23.472-5.9,24.036-5.9a1.353,1.353,0,0,1,.588.108l.144-.624a1.289,1.289,0,0,0-.648-.144,2.2,2.2,0,0,0-1.812,1.356h-.024L22.2-6.4h-.576Z" transform="translate(191.496 48.641)"/>
  <path id="패스_9705" data-name="패스 9705" class="cls-2" d="M1.2,0h.7V-4.788A2.7,2.7,0,0,1,3.744-5.94c.948,0,1.38.612,1.38,1.944V0h.7V-4.788A2.7,2.7,0,0,1,7.668-5.94c.936,0,1.38.612,1.38,1.944V0h.7V-4.092c0-1.644-.636-2.472-1.92-2.472a3.2,3.2,0,0,0-2.16,1.3A1.657,1.657,0,0,0,3.9-6.564a2.97,2.97,0,0,0-2.016,1.14H1.86L1.776-6.4H1.2ZM13.332.156a3.687,3.687,0,0,0,2.232-.972h.024L15.66,0h.588V-4.056c0-1.416-.54-2.508-2.064-2.508a4.436,4.436,0,0,0-2.424.84l.312.5a3.458,3.458,0,0,1,2.016-.732c1.212,0,1.488.984,1.464,1.932-2.82.324-4.08,1-4.08,2.412A1.688,1.688,0,0,0,13.332.156Zm.144-.588a1.153,1.153,0,0,1-1.308-1.212c0-.984.864-1.572,3.384-1.86v2.076A3.152,3.152,0,0,1,13.476-.432Zm6.516.588a3.619,3.619,0,0,0,1.068-.24l-.168-.54a2.237,2.237,0,0,1-.78.18c-.852,0-1.068-.528-1.068-1.332V-5.808H20.88V-6.4H19.044V-8.244h-.588L18.372-6.4l-1.02.06v.528h1v3.984C18.348-.636,18.732.156,19.992.156ZM22.284,0h.7V-6.4h-.7Zm.36-7.9a.566.566,0,0,0,.588-.552.564.564,0,0,0-.588-.576.557.557,0,0,0-.588.576A.559.559,0,0,0,22.644-7.9ZM27.6.156c1.548,0,2.892-1.224,2.892-3.348S29.148-6.564,27.6-6.564s-2.892,1.236-2.892,3.372S26.052.156,27.6.156Zm0-.6c-1.248,0-2.16-1.116-2.16-2.748s.912-2.76,2.16-2.76,2.172,1.128,2.172,2.76S28.848-.444,27.6-.444ZM32.232,0h.7V-4.788c.744-.768,1.272-1.152,2.016-1.152.984,0,1.4.612,1.4,1.944V0h.7V-4.092c0-1.644-.612-2.472-1.944-2.472a3.146,3.146,0,0,0-2.184,1.14h-.024L32.808-6.4h-.576Zm10.32-3.516.54-1.584c.348-1.02.648-1.944.948-3h.048c.312,1.056.6,1.98.96,3l.528,1.584ZM46.74,0h.768l-3.06-8.748H43.7L40.644,0h.72l1-2.94h3.408Z" transform="translate(216.769 48.641)"/>
  <path id="패스_9706" data-name="패스 9706" class="cls-2" d="M2.772.156c1.416,0,2.2-.84,2.2-1.824,0-1.236-1.08-1.584-2.064-1.956C2.16-3.9,1.416-4.164,1.416-4.872c0-.576.432-1.1,1.38-1.1A2.453,2.453,0,0,1,4.32-5.4l.36-.48a3.089,3.089,0,0,0-1.86-.684c-1.344,0-2.1.792-2.1,1.728,0,1.1,1.056,1.5,2,1.836.744.264,1.548.612,1.548,1.368,0,.66-.492,1.212-1.464,1.212a2.93,2.93,0,0,1-2.016-.8L.42-.72A3.748,3.748,0,0,0,2.772.156Z" transform="translate(264.79 48.641)"/>
  <path id="패스_9707" data-name="패스 9707" class="cls-2" d="M2.772.156c1.416,0,2.2-.84,2.2-1.824,0-1.236-1.08-1.584-2.064-1.956C2.16-3.9,1.416-4.164,1.416-4.872c0-.576.432-1.1,1.38-1.1A2.453,2.453,0,0,1,4.32-5.4l.36-.48a3.089,3.089,0,0,0-1.86-.684c-1.344,0-2.1.792-2.1,1.728,0,1.1,1.056,1.5,2,1.836.744.264,1.548.612,1.548,1.368,0,.66-.492,1.212-1.464,1.212a2.93,2.93,0,0,1-2.016-.8L.42-.72A3.748,3.748,0,0,0,2.772.156Zm6.168,0a3.579,3.579,0,0,0,2.04-.624l-.264-.516a2.864,2.864,0,0,1-1.7.552,2.422,2.422,0,0,1-2.34-2.652h4.536a3.319,3.319,0,0,0,.036-.5c0-1.872-.924-2.976-2.472-2.976-1.452,0-2.808,1.3-2.808,3.372A3.03,3.03,0,0,0,8.94.156ZM6.672-3.636A2.278,2.278,0,0,1,8.784-5.964c1.116,0,1.824.78,1.824,2.328ZM14.484.156a3.619,3.619,0,0,0,1.068-.24l-.168-.54a2.237,2.237,0,0,1-.78.18c-.852,0-1.068-.528-1.068-1.332V-5.808h1.836V-6.4H13.536V-8.244h-.588L12.864-6.4l-1.02.06v.528h1v3.984C12.84-.636,13.224.156,14.484.156Z" transform="translate(270.482 48.641)"/>
  <path id="패스_9693" data-name="패스 9693" class="cls-2" d="M4.416.156A3.278,3.278,0,0,0,7.032-1.092l-.408-.456A2.8,2.8,0,0,1,4.452-.492C2.616-.492,1.476-2.016,1.476-4.4c0-2.364,1.164-3.852,3.012-3.852a2.459,2.459,0,0,1,1.9.876l.408-.468A3.026,3.026,0,0,0,4.488-8.9C2.268-8.9.72-7.176.72-4.38S2.256.156,4.416.156Zm4.98,0A1.41,1.41,0,0,0,9.864.084L9.756-.468a1.073,1.073,0,0,1-.228.024c-.168,0-.288-.132-.288-.432V-9.54h-.7V-.948C8.544-.2,8.82.156,9.4.156Zm3.588,0a3.687,3.687,0,0,0,2.232-.972h.024L15.312,0H15.9V-4.056c0-1.416-.54-2.508-2.064-2.508a4.436,4.436,0,0,0-2.424.84l.312.5a3.458,3.458,0,0,1,2.016-.732c1.212,0,1.488.984,1.464,1.932-2.82.324-4.08,1-4.08,2.412A1.688,1.688,0,0,0,12.984.156Zm.144-.588A1.153,1.153,0,0,1,11.82-1.644c0-.984.864-1.572,3.384-1.86v2.076A3.152,3.152,0,0,1,13.128-.432Zm6.4.588c1.416,0,2.2-.84,2.2-1.824,0-1.236-1.08-1.584-2.064-1.956-.744-.276-1.488-.54-1.488-1.248,0-.576.432-1.1,1.38-1.1a2.453,2.453,0,0,1,1.524.576l.36-.48a3.089,3.089,0,0,0-1.86-.684c-1.344,0-2.1.792-2.1,1.728,0,1.1,1.056,1.5,2,1.836.744.264,1.548.612,1.548,1.368,0,.66-.492,1.212-1.464,1.212a2.93,2.93,0,0,1-2.016-.8l-.372.5A3.748,3.748,0,0,0,19.524.156Z" transform="translate(203.93 65.141)"/>
  <path id="패스_9694" data-name="패스 9694" class="cls-2" d="M2.772.156c1.416,0,2.2-.84,2.2-1.824,0-1.236-1.08-1.584-2.064-1.956C2.16-3.9,1.416-4.164,1.416-4.872c0-.576.432-1.1,1.38-1.1A2.453,2.453,0,0,1,4.32-5.4l.36-.48a3.089,3.089,0,0,0-1.86-.684c-1.344,0-2.1.792-2.1,1.728,0,1.1,1.056,1.5,2,1.836.744.264,1.548.612,1.548,1.368,0,.66-.492,1.212-1.464,1.212a2.93,2.93,0,0,1-2.016-.8L.42-.72A3.748,3.748,0,0,0,2.772.156ZM6.444,0h.7V-6.4h-.7ZM6.8-7.9a.566.566,0,0,0,.588-.552A.564.564,0,0,0,6.8-9.024a.557.557,0,0,0-.588.576A.559.559,0,0,0,6.8-7.9ZM9.456-6.4l-.888.06v.528h.888V0h.7V-5.808H11.6V-6.4H10.152V-7.7c0-.9.3-1.4.984-1.4a1.827,1.827,0,0,1,.756.18l.168-.552A2.433,2.433,0,0,0,11.1-9.7c-1.08,0-1.644.684-1.644,1.956ZM13.164,0h.7V-6.4h-.7Zm.36-9.024a.557.557,0,0,0-.588.576.559.559,0,0,0,.588.552.566.566,0,0,0,.588-.552A.564.564,0,0,0,13.524-9.024ZM18.468.156a3.1,3.1,0,0,0,2.04-.828l-.336-.48A2.555,2.555,0,0,1,18.5-.444c-1.344,0-2.232-1.116-2.232-2.748s.972-2.76,2.244-2.76A2.1,2.1,0,0,1,19.98-5.3l.4-.48a2.705,2.705,0,0,0-1.872-.78A3.056,3.056,0,0,0,15.54-3.192C15.54-1.068,16.8.156,18.468.156Z" transform="translate(226.817 65.141)"/>
  <path id="패스_9695" data-name="패스 9695" class="cls-2" d="M2.616.156A3.687,3.687,0,0,0,4.848-.816h.024L4.944,0h.588V-4.056c0-1.416-.54-2.508-2.064-2.508a4.436,4.436,0,0,0-2.424.84l.312.5a3.458,3.458,0,0,1,2.016-.732c1.212,0,1.488.984,1.464,1.932-2.82.324-4.08,1-4.08,2.412A1.688,1.688,0,0,0,2.616.156ZM2.76-.432A1.153,1.153,0,0,1,1.452-1.644c0-.984.864-1.572,3.384-1.86v2.076A3.152,3.152,0,0,1,2.76-.432ZM9.228.156A3.619,3.619,0,0,0,10.3-.084l-.168-.54a2.237,2.237,0,0,1-.78.18C8.5-.444,8.28-.972,8.28-1.776V-5.808h1.836V-6.4H8.28V-8.244H7.692L7.608-6.4l-1.02.06v.528h1v3.984C7.584-.636,7.968.156,9.228.156ZM11.472,0h.7V-6.4h-.7Zm.36-7.9a.566.566,0,0,0,.588-.552.564.564,0,0,0-.588-.576.557.557,0,0,0-.588.576A.559.559,0,0,0,11.832-7.9ZM16.74.156c1.548,0,2.892-1.224,2.892-3.348S18.288-6.564,16.74-6.564s-2.892,1.236-2.892,3.372S15.192.156,16.74.156Zm0-.6c-1.248,0-2.16-1.116-2.16-2.748s.912-2.76,2.16-2.76,2.172,1.128,2.172,2.76S17.988-.444,16.74-.444ZM21.324,0h.7V-4.788c.744-.768,1.272-1.152,2.016-1.152.984,0,1.4.612,1.4,1.944V0h.7V-4.092c0-1.644-.612-2.472-1.944-2.472a3.146,3.146,0,0,0-2.184,1.14h-.024L21.9-6.4h-.576Z" transform="translate(248.301 65.141)"/>
  <path id="패스_9687" data-name="패스 9687" class="cls-2" d="M1.272,0h.72V-4.332H6.54V0h.708V-8.748H6.54v3.792H1.992V-8.748h-.72ZM11.316.156a2.84,2.84,0,0,0,2.16-1.212h.036L13.572,0h.588V-6.4h-.7v4.68c-.72.864-1.248,1.248-1.992,1.248-.984,0-1.392-.612-1.392-1.92V-6.4h-.7V-2.3C9.384-.66,9.984.156,11.316.156Zm5-.156h.7V-4.788A2.7,2.7,0,0,1,18.864-5.94c.948,0,1.38.612,1.38,1.944V0h.7V-4.788A2.7,2.7,0,0,1,22.788-5.94c.936,0,1.38.612,1.38,1.944V0h.7V-4.092c0-1.644-.636-2.472-1.92-2.472a3.2,3.2,0,0,0-2.16,1.3,1.657,1.657,0,0,0-1.764-1.3A2.97,2.97,0,0,0,17-5.424H16.98L16.9-6.4H16.32ZM28.344.156a3.687,3.687,0,0,0,2.232-.972H30.6L30.672,0h.588V-4.056c0-1.416-.54-2.508-2.064-2.508a4.436,4.436,0,0,0-2.424.84l.312.5A3.458,3.458,0,0,1,29.1-5.952c1.212,0,1.488.984,1.464,1.932-2.82.324-4.08,1-4.08,2.412A1.688,1.688,0,0,0,28.344.156Zm.144-.588A1.153,1.153,0,0,1,27.18-1.644c0-.984.864-1.572,3.384-1.86v2.076A3.152,3.152,0,0,1,28.488-.432ZM33.252,0h.7V-4.788c.744-.768,1.272-1.152,2.016-1.152.984,0,1.4.612,1.4,1.944V0h.7V-4.092c0-1.644-.612-2.472-1.944-2.472a3.146,3.146,0,0,0-2.184,1.14h-.024L33.828-6.4h-.576ZM44.94.156c1.716,0,2.832-1.032,2.832-2.376s-.84-1.884-1.836-2.328l-1.308-.576c-.636-.276-1.488-.648-1.488-1.644,0-.9.744-1.488,1.86-1.488a2.807,2.807,0,0,1,2.064.876l.408-.468A3.341,3.341,0,0,0,45-8.9a2.332,2.332,0,0,0-2.592,2.2,2.426,2.426,0,0,0,1.776,2.184l1.308.576c.864.384,1.548.72,1.548,1.776,0,1-.8,1.68-2.1,1.68a3.368,3.368,0,0,1-2.532-1.164l-.444.5A3.893,3.893,0,0,0,44.94.156Zm6.78,0a3.579,3.579,0,0,0,2.04-.624L53.5-.984a2.864,2.864,0,0,1-1.7.552,2.422,2.422,0,0,1-2.34-2.652h4.536a3.319,3.319,0,0,0,.036-.5c0-1.872-.924-2.976-2.472-2.976-1.452,0-2.808,1.3-2.808,3.372A3.03,3.03,0,0,0,51.72.156ZM49.452-3.636a2.278,2.278,0,0,1,2.112-2.328c1.116,0,1.824.78,1.824,2.328ZM57.888.156a3.1,3.1,0,0,0,2.04-.828l-.336-.48a2.555,2.555,0,0,1-1.668.708c-1.344,0-2.232-1.116-2.232-2.748s.972-2.76,2.244-2.76A2.1,2.1,0,0,1,59.4-5.3l.4-.48a2.705,2.705,0,0,0-1.872-.78A3.056,3.056,0,0,0,54.96-3.192C54.96-1.068,56.22.156,57.888.156Zm5.184,0a2.84,2.84,0,0,0,2.16-1.212h.036L65.328,0h.588V-6.4h-.7v4.68c-.72.864-1.248,1.248-1.992,1.248-.984,0-1.392-.612-1.392-1.92V-6.4h-.7V-2.3C61.14-.66,61.74.156,63.072.156Zm5-.156h.7V-4.3C69.24-5.484,69.924-5.9,70.488-5.9a1.353,1.353,0,0,1,.588.108l.144-.624a1.289,1.289,0,0,0-.648-.144A2.2,2.2,0,0,0,68.76-5.208h-.024L68.652-6.4h-.576Zm4.068,0h.7V-6.4h-.7Zm.36-7.9a.566.566,0,0,0,.588-.552.564.564,0,0,0-.588-.576.557.557,0,0,0-.588.576A.559.559,0,0,0,72.5-7.9ZM76.788.156a3.619,3.619,0,0,0,1.068-.24l-.168-.54a2.237,2.237,0,0,1-.78.18c-.852,0-1.068-.528-1.068-1.332V-5.808h1.836V-6.4H75.84V-8.244h-.588L75.168-6.4l-1.02.06v.528h1v3.984C75.144-.636,75.528.156,76.788.156Zm2,2.724c1.176,0,1.824-1.032,2.208-2.136L83.5-6.4h-.708L81.48-2.484c-.18.552-.384,1.224-.576,1.8h-.06c-.228-.576-.468-1.248-.672-1.8L78.684-6.4h-.756L80.544.1l-.168.54c-.312.924-.828,1.62-1.6,1.62a1.646,1.646,0,0,1-.516-.1l-.156.588A1.7,1.7,0,0,0,78.792,2.88Z" transform="translate(198.526 97.116)"/>
  <path id="패스_9673" data-name="패스 9673" class="cls-2" d="M1.272,0h.72V-3.7h1.6c1.944,0,3.144-.84,3.144-2.592,0-1.812-1.212-2.46-3.192-2.46H1.272Zm.72-4.3V-8.148H3.4c1.74,0,2.6.444,2.6,1.86S5.172-4.3,3.444-4.3ZM8.3,0H9V-4.788c.744-.768,1.272-1.152,2.016-1.152.984,0,1.4.612,1.4,1.944V0h.7V-4.092c0-1.644-.612-2.472-1.944-2.472A3.116,3.116,0,0,0,8.988-5.412L9-6.8V-9.54H8.3Zm6.648,2.88c1.176,0,1.824-1.032,2.208-2.136l2.5-7.14h-.708L17.64-2.484c-.18.552-.384,1.224-.576,1.8H17c-.228-.576-.468-1.248-.672-1.8L14.844-6.4h-.756L16.7.1l-.168.54c-.312.924-.828,1.62-1.6,1.62a1.646,1.646,0,0,1-.516-.1l-.156.588A1.7,1.7,0,0,0,14.952,2.88ZM22.344.156c1.416,0,2.2-.84,2.2-1.824,0-1.236-1.08-1.584-2.064-1.956-.744-.276-1.488-.54-1.488-1.248,0-.576.432-1.1,1.38-1.1a2.453,2.453,0,0,1,1.524.576l.36-.48a3.089,3.089,0,0,0-1.86-.684c-1.344,0-2.1.792-2.1,1.728,0,1.1,1.056,1.5,2,1.836.744.264,1.548.612,1.548,1.368,0,.66-.492,1.212-1.464,1.212a2.93,2.93,0,0,1-2.016-.8l-.372.5A3.748,3.748,0,0,0,22.344.156ZM25.956,0h.7V-6.4h-.7Zm.36-7.9a.566.566,0,0,0,.588-.552.564.564,0,0,0-.588-.576.557.557,0,0,0-.588.576A.559.559,0,0,0,26.316-7.9ZM31.2.156a3.1,3.1,0,0,0,2.04-.828l-.336-.48a2.555,2.555,0,0,1-1.668.708C29.892-.444,29-1.56,29-3.192s.972-2.76,2.244-2.76a2.1,2.1,0,0,1,1.464.648l.4-.48a2.705,2.705,0,0,0-1.872-.78,3.056,3.056,0,0,0-2.964,3.372C28.272-1.068,29.532.156,31.2.156Zm4.632,0a3.687,3.687,0,0,0,2.232-.972h.024L38.16,0h.588V-4.056c0-1.416-.54-2.508-2.064-2.508a4.436,4.436,0,0,0-2.424.84l.312.5a3.458,3.458,0,0,1,2.016-.732c1.212,0,1.488.984,1.464,1.932-2.82.324-4.08,1-4.08,2.412A1.688,1.688,0,0,0,35.832.156Zm.144-.588a1.153,1.153,0,0,1-1.308-1.212c0-.984.864-1.572,3.384-1.86v2.076A3.152,3.152,0,0,1,35.976-.432Zm5.616.588A1.41,1.41,0,0,0,42.06.084l-.108-.552a1.073,1.073,0,0,1-.228.024c-.168,0-.288-.132-.288-.432V-9.54h-.7V-.948C40.74-.2,41.016.156,41.592.156Zm6.924,0c1.716,0,2.832-1.032,2.832-2.376s-.84-1.884-1.836-2.328L48.2-5.124c-.636-.276-1.488-.648-1.488-1.644,0-.9.744-1.488,1.86-1.488a2.807,2.807,0,0,1,2.064.876l.408-.468A3.341,3.341,0,0,0,48.576-8.9a2.332,2.332,0,0,0-2.592,2.2A2.426,2.426,0,0,0,47.76-4.524l1.308.576c.864.384,1.548.72,1.548,1.776,0,1-.8,1.68-2.1,1.68a3.368,3.368,0,0,1-2.532-1.164l-.444.5A3.893,3.893,0,0,0,48.516.156Zm6.78,0a3.579,3.579,0,0,0,2.04-.624l-.264-.516a2.864,2.864,0,0,1-1.7.552,2.422,2.422,0,0,1-2.34-2.652h4.536a3.319,3.319,0,0,0,.036-.5c0-1.872-.924-2.976-2.472-2.976-1.452,0-2.808,1.3-2.808,3.372A3.03,3.03,0,0,0,55.3.156ZM53.028-3.636A2.278,2.278,0,0,1,55.14-5.964c1.116,0,1.824.78,1.824,2.328ZM61.464.156A3.1,3.1,0,0,0,63.5-.672l-.336-.48A2.555,2.555,0,0,1,61.5-.444c-1.344,0-2.232-1.116-2.232-2.748s.972-2.76,2.244-2.76a2.1,2.1,0,0,1,1.464.648l.4-.48a2.705,2.705,0,0,0-1.872-.78,3.056,3.056,0,0,0-2.964,3.372C58.536-1.068,59.8.156,61.464.156Zm5.184,0a2.84,2.84,0,0,0,2.16-1.212h.036L68.9,0h.588V-6.4h-.7v4.68c-.72.864-1.248,1.248-1.992,1.248-.984,0-1.392-.612-1.392-1.92V-6.4h-.7V-2.3C64.716-.66,65.316.156,66.648.156Zm5-.156h.7V-4.3C72.816-5.484,73.5-5.9,74.064-5.9a1.353,1.353,0,0,1,.588.108L74.8-6.42a1.289,1.289,0,0,0-.648-.144,2.2,2.2,0,0,0-1.812,1.356h-.024L72.228-6.4h-.576ZM75.72,0h.7V-6.4h-.7Zm.36-7.9a.566.566,0,0,0,.588-.552.564.564,0,0,0-.588-.576.557.557,0,0,0-.588.576A.559.559,0,0,0,76.08-7.9ZM80.364.156a3.619,3.619,0,0,0,1.068-.24l-.168-.54a2.237,2.237,0,0,1-.78.18c-.852,0-1.068-.528-1.068-1.332V-5.808h1.836V-6.4H79.416V-8.244h-.588L78.744-6.4l-1.02.06v.528h1v3.984C78.72-.636,79.1.156,80.364.156Zm2,2.724c1.176,0,1.824-1.032,2.208-2.136l2.5-7.14h-.708L85.056-2.484c-.18.552-.384,1.224-.576,1.8h-.06c-.228-.576-.468-1.248-.672-1.8L82.26-6.4H81.5L84.12.1l-.168.54c-.312.924-.828,1.62-1.6,1.62a1.646,1.646,0,0,1-.516-.1l-.156.588A1.7,1.7,0,0,0,82.368,2.88Z" transform="translate(117.368 153.965)"/>
  <path id="패스_9692" data-name="패스 9692" class="cls-2" d="M3.588.156C5.3.156,6.42-.876,6.42-2.22S5.58-4.1,4.584-4.548L3.276-5.124C2.64-5.4,1.788-5.772,1.788-6.768c0-.9.744-1.488,1.86-1.488a2.807,2.807,0,0,1,2.064.876l.408-.468A3.341,3.341,0,0,0,3.648-8.9a2.332,2.332,0,0,0-2.592,2.2A2.426,2.426,0,0,0,2.832-4.524l1.308.576c.864.384,1.548.72,1.548,1.776,0,1-.8,1.68-2.1,1.68A3.368,3.368,0,0,1,1.056-1.656l-.444.5A3.893,3.893,0,0,0,3.588.156ZM7.74,2.88c1.176,0,1.824-1.032,2.208-2.136l2.5-7.14h-.708L10.428-2.484c-.18.552-.384,1.224-.576,1.8h-.06c-.228-.576-.468-1.248-.672-1.8L7.632-6.4H6.876L9.492.1l-.168.54c-.312.924-.828,1.62-1.6,1.62a1.646,1.646,0,0,1-.516-.1l-.156.588A1.7,1.7,0,0,0,7.74,2.88ZM15.132.156c1.416,0,2.2-.84,2.2-1.824,0-1.236-1.08-1.584-2.064-1.956-.744-.276-1.488-.54-1.488-1.248,0-.576.432-1.1,1.38-1.1A2.453,2.453,0,0,1,16.68-5.4l.36-.48a3.089,3.089,0,0,0-1.86-.684c-1.344,0-2.1.792-2.1,1.728,0,1.1,1.056,1.5,2,1.836.744.264,1.548.612,1.548,1.368,0,.66-.492,1.212-1.464,1.212a2.93,2.93,0,0,1-2.016-.8l-.372.5A3.748,3.748,0,0,0,15.132.156Z" transform="translate(26.42 202.091)"/>
  <path id="패스_9674" data-name="패스 9674" class="cls-2" d="M3,.156a3.619,3.619,0,0,0,1.068-.24L3.9-.624a2.237,2.237,0,0,1-.78.18c-.852,0-1.068-.528-1.068-1.332V-5.808H3.888V-6.4H2.052V-8.244H1.464L1.38-6.4l-1.02.06v.528h1v3.984C1.356-.636,1.74.156,3,.156Zm4.476,0a3.579,3.579,0,0,0,2.04-.624L9.252-.984a2.864,2.864,0,0,1-1.7.552,2.422,2.422,0,0,1-2.34-2.652H9.744a3.319,3.319,0,0,0,.036-.5c0-1.872-.924-2.976-2.472-2.976-1.452,0-2.808,1.3-2.808,3.372A3.03,3.03,0,0,0,7.476.156ZM5.208-3.636A2.278,2.278,0,0,1,7.32-5.964c1.116,0,1.824.78,1.824,2.328ZM11.244,0h.7V-4.788A2.7,2.7,0,0,1,13.788-5.94c.948,0,1.38.612,1.38,1.944V0h.7V-4.788A2.7,2.7,0,0,1,17.712-5.94c.936,0,1.38.612,1.38,1.944V0h.7V-4.092c0-1.644-.636-2.472-1.92-2.472a3.2,3.2,0,0,0-2.16,1.3,1.657,1.657,0,0,0-1.764-1.3,2.97,2.97,0,0,0-2.016,1.14H11.9L11.82-6.4h-.576Zm13.1,0h2.076c2.676,0,4-1.728,4-4.4S29.1-8.748,26.412-8.748H24.348Zm.72-.612V-8.148H26.34c2.3,0,3.324,1.476,3.324,3.744S28.644-.612,26.34-.612Zm9.48.768a3.579,3.579,0,0,0,2.04-.624l-.264-.516a2.864,2.864,0,0,1-1.7.552,2.422,2.422,0,0,1-2.34-2.652h4.536a3.319,3.319,0,0,0,.036-.5c0-1.872-.924-2.976-2.472-2.976-1.452,0-2.808,1.3-2.808,3.372A3.03,3.03,0,0,0,34.548.156ZM32.28-3.636a2.278,2.278,0,0,1,2.112-2.328c1.116,0,1.824.78,1.824,2.328ZM39.78,0h.828L42.96-6.4h-.708L40.86-2.472c-.2.624-.432,1.272-.636,1.848h-.048c-.216-.576-.432-1.224-.636-1.848L38.16-6.4H37.4Zm6.744.156a3.579,3.579,0,0,0,2.04-.624L48.3-.984a2.864,2.864,0,0,1-1.7.552,2.422,2.422,0,0,1-2.34-2.652h4.536a3.319,3.319,0,0,0,.036-.5c0-1.872-.924-2.976-2.472-2.976-1.452,0-2.808,1.3-2.808,3.372A3.03,3.03,0,0,0,46.524.156ZM44.256-3.636a2.278,2.278,0,0,1,2.112-2.328c1.116,0,1.824.78,1.824,2.328ZM51.144.156a1.41,1.41,0,0,0,.468-.072L51.5-.468a1.073,1.073,0,0,1-.228.024c-.168,0-.288-.132-.288-.432V-9.54h-.7V-.948C50.292-.2,50.568.156,51.144.156Zm4.476,0c1.548,0,2.892-1.224,2.892-3.348S57.168-6.564,55.62-6.564s-2.892,1.236-2.892,3.372S54.072.156,55.62.156Zm0-.6c-1.248,0-2.16-1.116-2.16-2.748s.912-2.76,2.16-2.76,2.172,1.128,2.172,2.76S56.868-.444,55.62-.444Zm4.524,3.3h.7V.552L60.828-.624a3.16,3.16,0,0,0,1.884.78c1.5,0,2.82-1.272,2.82-3.456,0-1.968-.864-3.264-2.568-3.264a3.719,3.719,0,0,0-2.136.948H60.8L60.72-6.4h-.576ZM62.652-.456a2.935,2.935,0,0,1-1.812-.78v-3.7a3.207,3.207,0,0,1,1.992-1.02c1.428,0,1.956,1.116,1.956,2.652C64.788-1.584,63.9-.456,62.652-.456ZM67.164,0h.7V-4.788A2.7,2.7,0,0,1,69.708-5.94c.948,0,1.38.612,1.38,1.944V0h.7V-4.788A2.7,2.7,0,0,1,73.632-5.94c.936,0,1.38.612,1.38,1.944V0h.7V-4.092c0-1.644-.636-2.472-1.92-2.472a3.2,3.2,0,0,0-2.16,1.3,1.657,1.657,0,0,0-1.764-1.3,2.97,2.97,0,0,0-2.016,1.14h-.024L67.74-6.4h-.576ZM80.22.156a3.579,3.579,0,0,0,2.04-.624L82-.984a2.864,2.864,0,0,1-1.7.552,2.422,2.422,0,0,1-2.34-2.652h4.536a3.319,3.319,0,0,0,.036-.5c0-1.872-.924-2.976-2.472-2.976-1.452,0-2.808,1.3-2.808,3.372A3.03,3.03,0,0,0,80.22.156ZM77.952-3.636a2.278,2.278,0,0,1,2.112-2.328c1.116,0,1.824.78,1.824,2.328ZM83.988,0h.7V-4.788c.744-.768,1.272-1.152,2.016-1.152.984,0,1.4.612,1.4,1.944V0h.7V-4.092c0-1.644-.612-2.472-1.944-2.472a3.146,3.146,0,0,0-2.184,1.14h-.024L84.564-6.4h-.576Zm8.676.156a3.619,3.619,0,0,0,1.068-.24l-.168-.54a2.237,2.237,0,0,1-.78.18c-.852,0-1.068-.528-1.068-1.332V-5.808h1.836V-6.4H91.716V-8.244h-.588L91.044-6.4l-1.02.06v.528h1v3.984C91.02-.636,91.4.156,92.664.156Z" transform="translate(44.14 202.091)"/>
  <path id="패스_9675" data-name="패스 9675" class="cls-2" transform="translate(144.606 202.091)"/>
  <path id="패스_9684" data-name="패스 9684" class="cls-2" d="M3.588.156C5.3.156,6.42-.876,6.42-2.22S5.58-4.1,4.584-4.548L3.276-5.124C2.64-5.4,1.788-5.772,1.788-6.768c0-.9.744-1.488,1.86-1.488a2.807,2.807,0,0,1,2.064.876l.408-.468A3.341,3.341,0,0,0,3.648-8.9a2.332,2.332,0,0,0-2.592,2.2A2.426,2.426,0,0,0,2.832-4.524l1.308.576c.864.384,1.548.72,1.548,1.776,0,1-.8,1.68-2.1,1.68A3.368,3.368,0,0,1,1.056-1.656l-.444.5A3.893,3.893,0,0,0,3.588.156Zm6.78,0a3.579,3.579,0,0,0,2.04-.624l-.264-.516a2.864,2.864,0,0,1-1.7.552A2.422,2.422,0,0,1,8.1-3.084h4.536a3.319,3.319,0,0,0,.036-.5c0-1.872-.924-2.976-2.472-2.976-1.452,0-2.808,1.3-2.808,3.372A3.03,3.03,0,0,0,10.368.156ZM8.1-3.636a2.278,2.278,0,0,1,2.112-2.328c1.116,0,1.824.78,1.824,2.328ZM16.536.156a3.1,3.1,0,0,0,2.04-.828l-.336-.48a2.555,2.555,0,0,1-1.668.708c-1.344,0-2.232-1.116-2.232-2.748s.972-2.76,2.244-2.76a2.1,2.1,0,0,1,1.464.648l.4-.48a2.705,2.705,0,0,0-1.872-.78,3.056,3.056,0,0,0-2.964,3.372C13.608-1.068,14.868.156,16.536.156Zm5.184,0a2.84,2.84,0,0,0,2.16-1.212h.036L23.976,0h.588V-6.4h-.7v4.68c-.72.864-1.248,1.248-1.992,1.248-.984,0-1.392-.612-1.392-1.92V-6.4h-.7V-2.3C19.788-.66,20.388.156,21.72.156Zm5-.156h.7V-4.3C27.888-5.484,28.572-5.9,29.136-5.9a1.353,1.353,0,0,1,.588.108l.144-.624a1.289,1.289,0,0,0-.648-.144,2.2,2.2,0,0,0-1.812,1.356h-.024L27.3-6.4h-.576Zm4.068,0h.7V-6.4h-.7Zm.36-7.9a.566.566,0,0,0,.588-.552.564.564,0,0,0-.588-.576.557.557,0,0,0-.588.576A.559.559,0,0,0,31.152-7.9ZM35.436.156A3.619,3.619,0,0,0,36.5-.084l-.168-.54a2.237,2.237,0,0,1-.78.18c-.852,0-1.068-.528-1.068-1.332V-5.808h1.836V-6.4H34.488V-8.244H33.9L33.816-6.4l-1.02.06v.528h1v3.984C33.792-.636,34.176.156,35.436.156Zm2,2.724c1.176,0,1.824-1.032,2.208-2.136l2.5-7.14h-.708L40.128-2.484c-.18.552-.384,1.224-.576,1.8h-.06c-.228-.576-.468-1.248-.672-1.8L37.332-6.4h-.756L39.192.1l-.168.54c-.312.924-.828,1.62-1.6,1.62a1.646,1.646,0,0,1-.516-.1l-.156.588A1.7,1.7,0,0,0,37.44,2.88Z" transform="translate(61.094 219.095)"/>
  <path id="패스_9669" data-name="패스 9669" class="cls-2" d="M1.272,0h.72V-3.7h1.6c1.944,0,3.144-.84,3.144-2.592,0-1.812-1.212-2.46-3.192-2.46H1.272Zm.72-4.3V-8.148H3.4c1.74,0,2.6.444,2.6,1.86S5.172-4.3,3.444-4.3Z" transform="translate(190.548 210.593)"/>
  <path id="패스_9666" data-name="패스 9666" class="cls-2" d="M2.616.156A3.687,3.687,0,0,0,4.848-.816h.024L4.944,0h.588V-4.056c0-1.416-.54-2.508-2.064-2.508a4.436,4.436,0,0,0-2.424.84l.312.5a3.458,3.458,0,0,1,2.016-.732c1.212,0,1.488.984,1.464,1.932-2.82.324-4.08,1-4.08,2.412A1.688,1.688,0,0,0,2.616.156ZM2.76-.432A1.153,1.153,0,0,1,1.452-1.644c0-.984.864-1.572,3.384-1.86v2.076A3.152,3.152,0,0,1,2.76-.432ZM9.1.156c1.416,0,2.2-.84,2.2-1.824,0-1.236-1.08-1.584-2.064-1.956C8.484-3.9,7.74-4.164,7.74-4.872c0-.576.432-1.1,1.38-1.1a2.453,2.453,0,0,1,1.524.576L11-5.88a3.089,3.089,0,0,0-1.86-.684c-1.344,0-2.1.792-2.1,1.728,0,1.1,1.056,1.5,2,1.836.744.264,1.548.612,1.548,1.368C10.6-.972,10.1-.42,9.132-.42a2.93,2.93,0,0,1-2.016-.8l-.372.5A3.748,3.748,0,0,0,9.1.156Zm5.184,0c1.416,0,2.2-.84,2.2-1.824,0-1.236-1.08-1.584-2.064-1.956-.744-.276-1.488-.54-1.488-1.248,0-.576.432-1.1,1.38-1.1a2.453,2.453,0,0,1,1.524.576l.36-.48a3.089,3.089,0,0,0-1.86-.684c-1.344,0-2.1.792-2.1,1.728,0,1.1,1.056,1.5,2,1.836.744.264,1.548.612,1.548,1.368,0,.66-.492,1.212-1.464,1.212a2.93,2.93,0,0,1-2.016-.8l-.372.5A3.748,3.748,0,0,0,14.28.156ZM18.876,0h.84L20.76-3.828c.2-.624.348-1.224.492-1.86h.06c.18.636.3,1.224.48,1.836L22.872,0h.9l1.8-6.4h-.684L23.8-2.364c-.156.612-.3,1.164-.444,1.74H23.3c-.168-.576-.312-1.128-.468-1.74L21.7-6.4h-.768l-1.14,4.032c-.156.6-.3,1.164-.456,1.74h-.06c-.12-.576-.264-1.128-.408-1.74L17.748-6.4H17ZM29.208.156c1.548,0,2.892-1.224,2.892-3.348s-1.344-3.372-2.892-3.372-2.892,1.236-2.892,3.372S27.66.156,29.208.156Zm0-.6c-1.248,0-2.16-1.116-2.16-2.748s.912-2.76,2.16-2.76,2.172,1.128,2.172,2.76S30.456-.444,29.208-.444ZM33.732,0h.7V-4.3C34.9-5.484,35.58-5.9,36.144-5.9a1.353,1.353,0,0,1,.588.108l.144-.624a1.289,1.289,0,0,0-.648-.144,2.2,2.2,0,0,0-1.812,1.356h-.024L34.308-6.4h-.576Zm6.06.156A2.964,2.964,0,0,0,41.844-.8h.024l.084.8h.576V-9.54h-.7v2.6l.048,1.152a2.872,2.872,0,0,0-1.908-.78c-1.512,0-2.832,1.308-2.832,3.372C37.14-1.044,38.184.156,39.792.156Zm.12-.612c-1.3,0-2.028-1.08-2.028-2.736,0-1.572.936-2.76,2.16-2.76a2.582,2.582,0,0,1,1.788.792v3.7A2.678,2.678,0,0,1,39.912-.456ZM50.328.156a3.278,3.278,0,0,0,2.616-1.248l-.408-.456A2.8,2.8,0,0,1,50.364-.492c-1.836,0-2.976-1.524-2.976-3.912,0-2.364,1.164-3.852,3.012-3.852a2.459,2.459,0,0,1,1.9.876l.408-.468A3.026,3.026,0,0,0,50.4-8.9c-2.22,0-3.768,1.728-3.768,4.524S48.168.156,50.328.156Zm6.432,0c1.548,0,2.892-1.224,2.892-3.348S58.308-6.564,56.76-6.564s-2.892,1.236-2.892,3.372S55.212.156,56.76.156Zm0-.6c-1.248,0-2.16-1.116-2.16-2.748s.912-2.76,2.16-2.76,2.172,1.128,2.172,2.76S58.008-.444,56.76-.444ZM61.284,0h.7V-4.788C62.724-5.556,63.252-5.94,64-5.94c.984,0,1.4.612,1.4,1.944V0h.7V-4.092c0-1.644-.612-2.472-1.944-2.472a3.146,3.146,0,0,0-2.184,1.14h-.024L61.86-6.4h-.576ZM69.96.156a3.619,3.619,0,0,0,1.068-.24l-.168-.54a2.237,2.237,0,0,1-.78.18c-.852,0-1.068-.528-1.068-1.332V-5.808h1.836V-6.4H69.012V-8.244h-.588L68.34-6.4l-1.02.06v.528h1v3.984C68.316-.636,68.7.156,69.96.156ZM72.144,0h.7V-4.3C73.308-5.484,73.992-5.9,74.556-5.9a1.353,1.353,0,0,1,.588.108l.144-.624a1.289,1.289,0,0,0-.648-.144,2.2,2.2,0,0,0-1.812,1.356H72.8L72.72-6.4h-.576Zm6.3.156c1.548,0,2.892-1.224,2.892-3.348s-1.344-3.372-2.892-3.372-2.892,1.236-2.892,3.372S76.9.156,78.444.156Zm0-.6c-1.248,0-2.16-1.116-2.16-2.748s.912-2.76,2.16-2.76,2.172,1.128,2.172,2.76S79.692-.444,78.444-.444Zm5.376.6a1.41,1.41,0,0,0,.468-.072L84.18-.468a1.073,1.073,0,0,1-.228.024c-.168,0-.288-.132-.288-.432V-9.54h-.7V-.948C82.968-.2,83.244.156,83.82.156Z" transform="translate(197.568 210.593)"/>
  <path id="패스_9690" data-name="패스 9690" class="cls-2" d="M2-3.516,2.544-5.1c.348-1.02.648-1.944.948-3H3.54c.312,1.056.6,1.98.96,3l.528,1.584ZM6.192,0H6.96L3.9-8.748H3.156L.1,0h.72l1-2.94H5.22ZM10.4.156a3.1,3.1,0,0,0,2.04-.828l-.336-.48a2.555,2.555,0,0,1-1.668.708C9.1-.444,8.208-1.56,8.208-3.192s.972-2.76,2.244-2.76a2.1,2.1,0,0,1,1.464.648l.4-.48a2.705,2.705,0,0,0-1.872-.78A3.056,3.056,0,0,0,7.476-3.192C7.476-1.068,8.736.156,10.4.156Z" transform="translate(45.529 242.807)"/>
  <path id="패스_9691" data-name="패스 9691" class="cls-2" d="M3.6.156A3.1,3.1,0,0,0,5.64-.672L5.3-1.152a2.555,2.555,0,0,1-1.668.708C2.292-.444,1.4-1.56,1.4-3.192s.972-2.76,2.244-2.76A2.1,2.1,0,0,1,5.112-5.3l.4-.48a2.705,2.705,0,0,0-1.872-.78A3.056,3.056,0,0,0,.672-3.192C.672-1.068,1.932.156,3.6.156Z" transform="translate(57.855 242.807)"/>
  <path id="패스_9677" data-name="패스 9677" class="cls-2" d="M3.648.156a3.579,3.579,0,0,0,2.04-.624L5.424-.984a2.864,2.864,0,0,1-1.7.552A2.422,2.422,0,0,1,1.38-3.084H5.916a3.319,3.319,0,0,0,.036-.5c0-1.872-.924-2.976-2.472-2.976-1.452,0-2.808,1.3-2.808,3.372A3.03,3.03,0,0,0,3.648.156ZM1.38-3.636A2.278,2.278,0,0,1,3.492-5.964c1.116,0,1.824.78,1.824,2.328ZM8.988.156c1.416,0,2.2-.84,2.2-1.824,0-1.236-1.08-1.584-2.064-1.956-.744-.276-1.488-.54-1.488-1.248,0-.576.432-1.1,1.38-1.1a2.453,2.453,0,0,1,1.524.576l.36-.48a3.089,3.089,0,0,0-1.86-.684c-1.344,0-2.1.792-2.1,1.728,0,1.1,1.056,1.5,2,1.836.744.264,1.548.612,1.548,1.368C10.488-.972,10-.42,9.024-.42a2.93,2.93,0,0,1-2.016-.8l-.372.5A3.748,3.748,0,0,0,8.988.156Zm5.184,0c1.416,0,2.2-.84,2.2-1.824,0-1.236-1.08-1.584-2.064-1.956-.744-.276-1.488-.54-1.488-1.248,0-.576.432-1.1,1.38-1.1A2.453,2.453,0,0,1,15.72-5.4l.36-.48a3.089,3.089,0,0,0-1.86-.684c-1.344,0-2.1.792-2.1,1.728,0,1.1,1.056,1.5,2,1.836.744.264,1.548.612,1.548,1.368,0,.66-.492,1.212-1.464,1.212a2.93,2.93,0,0,1-2.016-.8l-.372.5A3.748,3.748,0,0,0,14.172.156Zm9.252,0A3.278,3.278,0,0,0,26.04-1.092l-.408-.456A2.8,2.8,0,0,1,23.46-.492c-1.836,0-2.976-1.524-2.976-3.912,0-2.364,1.164-3.852,3.012-3.852a2.459,2.459,0,0,1,1.9.876l.408-.468A3.026,3.026,0,0,0,23.5-8.9c-2.22,0-3.768,1.728-3.768,4.524S21.264.156,23.424.156Zm6.432,0c1.548,0,2.892-1.224,2.892-3.348S31.4-6.564,29.856-6.564s-2.892,1.236-2.892,3.372S28.308.156,29.856.156Zm0-.6c-1.248,0-2.16-1.116-2.16-2.748s.912-2.76,2.16-2.76,2.172,1.128,2.172,2.76S31.1-.444,29.856-.444ZM34.38,0h.7V-4.788c.744-.768,1.272-1.152,2.016-1.152.984,0,1.4.612,1.4,1.944V0h.7V-4.092c0-1.644-.612-2.472-1.944-2.472a3.146,3.146,0,0,0-2.184,1.14H35.04L34.956-6.4H34.38Zm8.676.156a3.619,3.619,0,0,0,1.068-.24l-.168-.54a2.237,2.237,0,0,1-.78.18c-.852,0-1.068-.528-1.068-1.332V-5.808h1.836V-6.4H42.108V-8.244H41.52L41.436-6.4l-1.02.06v.528h1v3.984C41.412-.636,41.8.156,43.056.156ZM45.24,0h.7V-4.3C46.4-5.484,47.088-5.9,47.652-5.9a1.353,1.353,0,0,1,.588.108l.144-.624a1.289,1.289,0,0,0-.648-.144,2.2,2.2,0,0,0-1.812,1.356H45.9L45.816-6.4H45.24Zm6.3.156c1.548,0,2.892-1.224,2.892-3.348S53.088-6.564,51.54-6.564s-2.892,1.236-2.892,3.372S49.992.156,51.54.156Zm0-.6c-1.248,0-2.16-1.116-2.16-2.748s.912-2.76,2.16-2.76,2.172,1.128,2.172,2.76S52.788-.444,51.54-.444Zm5.376.6a1.41,1.41,0,0,0,.468-.072l-.108-.552a1.073,1.073,0,0,1-.228.024c-.168,0-.288-.132-.288-.432V-9.54h-.7V-.948C56.064-.2,56.34.156,56.916.156Z" transform="translate(63.809 242.807)"/>
  <path id="패스_9667" data-name="패스 9667" class="cls-2" d="M4.344.156C6.48.156,7.98-1.62,7.98-4.4S6.48-8.9,4.344-8.9C2.232-8.9.72-7.176.72-4.4S2.232.156,4.344.156Zm0-.648C2.616-.492,1.476-2.028,1.476-4.4s1.14-3.852,2.868-3.852S7.236-6.78,7.236-4.4,6.084-.492,4.344-.492ZM9.672,2.856h.7V.552L10.356-.624a3.16,3.16,0,0,0,1.884.78c1.5,0,2.82-1.272,2.82-3.456,0-1.968-.864-3.264-2.568-3.264a3.719,3.719,0,0,0-2.136.948h-.024l-.084-.78H9.672ZM12.18-.456a2.935,2.935,0,0,1-1.812-.78v-3.7a3.207,3.207,0,0,1,1.992-1.02c1.428,0,1.956,1.116,1.956,2.652C14.316-1.584,13.428-.456,12.18-.456Zm6.96.612a3.579,3.579,0,0,0,2.04-.624l-.264-.516a2.864,2.864,0,0,1-1.7.552,2.422,2.422,0,0,1-2.34-2.652h4.536a3.319,3.319,0,0,0,.036-.5c0-1.872-.924-2.976-2.472-2.976-1.452,0-2.808,1.3-2.808,3.372A3.03,3.03,0,0,0,19.14.156ZM16.872-3.636a2.278,2.278,0,0,1,2.112-2.328c1.116,0,1.824.78,1.824,2.328ZM22.908,0h.7V-4.3C24.072-5.484,24.756-5.9,25.32-5.9a1.353,1.353,0,0,1,.588.108l.144-.624a1.289,1.289,0,0,0-.648-.144,2.2,2.2,0,0,0-1.812,1.356h-.024L23.484-6.4h-.576Z" transform="translate(192.558 242.807)"/>
  <path id="패스_9664" data-name="패스 9664" class="cls-2" d="M2.616.156A3.687,3.687,0,0,0,4.848-.816h.024L4.944,0h.588V-4.056c0-1.416-.54-2.508-2.064-2.508a4.436,4.436,0,0,0-2.424.84l.312.5a3.458,3.458,0,0,1,2.016-.732c1.212,0,1.488.984,1.464,1.932-2.82.324-4.08,1-4.08,2.412A1.688,1.688,0,0,0,2.616.156ZM2.76-.432A1.153,1.153,0,0,1,1.452-1.644c0-.984.864-1.572,3.384-1.86v2.076A3.152,3.152,0,0,1,2.76-.432ZM9.168.156a3.619,3.619,0,0,0,1.068-.24l-.168-.54a2.237,2.237,0,0,1-.78.18c-.852,0-1.068-.528-1.068-1.332V-5.808h1.836V-6.4H8.22V-8.244H7.632L7.548-6.4l-1.02.06v.528h1v3.984C7.524-.636,7.908.156,9.168.156ZM11.352,0h.7V-6.4h-.7Zm.36-7.9a.566.566,0,0,0,.588-.552.564.564,0,0,0-.588-.576.557.557,0,0,0-.588.576A.559.559,0,0,0,11.712-7.9ZM16.56.156c1.548,0,2.892-1.224,2.892-3.348S18.108-6.564,16.56-6.564s-2.892,1.236-2.892,3.372S15.012.156,16.56.156Zm0-.6c-1.248,0-2.16-1.116-2.16-2.748s.912-2.76,2.16-2.76,2.172,1.128,2.172,2.76S17.808-.444,16.56-.444ZM21.084,0h.7V-4.788c.744-.768,1.272-1.152,2.016-1.152.984,0,1.4.612,1.4,1.944V0h.7V-4.092c0-1.644-.612-2.472-1.944-2.472a3.146,3.146,0,0,0-2.184,1.14h-.024L21.66-6.4h-.576ZM32.772.156C34.488.156,35.6-.876,35.6-2.22s-.84-1.884-1.836-2.328L32.46-5.124c-.636-.276-1.488-.648-1.488-1.644,0-.9.744-1.488,1.86-1.488A2.807,2.807,0,0,1,34.9-7.38l.408-.468A3.341,3.341,0,0,0,32.832-8.9a2.332,2.332,0,0,0-2.592,2.2,2.426,2.426,0,0,0,1.776,2.184l1.308.576c.864.384,1.548.72,1.548,1.776,0,1-.8,1.68-2.1,1.68A3.368,3.368,0,0,1,30.24-1.656l-.444.5A3.893,3.893,0,0,0,32.772.156Zm6.78,0a3.579,3.579,0,0,0,2.04-.624l-.264-.516a2.864,2.864,0,0,1-1.7.552,2.422,2.422,0,0,1-2.34-2.652H41.82a3.319,3.319,0,0,0,.036-.5c0-1.872-.924-2.976-2.472-2.976-1.452,0-2.808,1.3-2.808,3.372A3.03,3.03,0,0,0,39.552.156ZM37.284-3.636A2.278,2.278,0,0,1,39.4-5.964c1.116,0,1.824.78,1.824,2.328ZM45.72.156a3.1,3.1,0,0,0,2.04-.828l-.336-.48a2.555,2.555,0,0,1-1.668.708c-1.344,0-2.232-1.116-2.232-2.748s.972-2.76,2.244-2.76a2.1,2.1,0,0,1,1.464.648l.4-.48a2.705,2.705,0,0,0-1.872-.78,3.056,3.056,0,0,0-2.964,3.372C42.792-1.068,44.052.156,45.72.156Zm5.184,0a2.84,2.84,0,0,0,2.16-1.212H53.1L53.16,0h.588V-6.4h-.7v4.68C52.332-.852,51.8-.468,51.06-.468c-.984,0-1.392-.612-1.392-1.92V-6.4h-.7V-2.3C48.972-.66,49.572.156,50.9.156Zm5-.156h.7V-4.3C57.072-5.484,57.756-5.9,58.32-5.9a1.353,1.353,0,0,1,.588.108l.144-.624a1.289,1.289,0,0,0-.648-.144,2.2,2.2,0,0,0-1.812,1.356h-.024L56.484-6.4h-.576Zm4.068,0h.7V-6.4h-.7Zm.36-7.9a.566.566,0,0,0,.588-.552.564.564,0,0,0-.588-.576.557.557,0,0,0-.588.576A.559.559,0,0,0,60.336-7.9ZM64.62.156a3.619,3.619,0,0,0,1.068-.24l-.168-.54a2.237,2.237,0,0,1-.78.18c-.852,0-1.068-.528-1.068-1.332V-5.808h1.836V-6.4H63.672V-8.244h-.588L63-6.4l-1.02.06v.528h1v3.984C62.976-.636,63.36.156,64.62.156Zm2,2.724c1.176,0,1.824-1.032,2.208-2.136l2.5-7.14H70.62L69.312-2.484c-.18.552-.384,1.224-.576,1.8h-.06c-.228-.576-.468-1.248-.672-1.8L66.516-6.4H65.76L68.376.1l-.168.54c-.312.924-.828,1.62-1.6,1.62a1.646,1.646,0,0,1-.516-.1l-.156.588A1.7,1.7,0,0,0,66.624,2.88Z" transform="translate(218.17 242.807)"/>
  <path id="패스_9678" data-name="패스 9678" class="cls-2" d="M1.272,0h.72V-8.748h-.72ZM4.224,0h.7V-4.788C5.664-5.556,6.192-5.94,6.936-5.94c.984,0,1.4.612,1.4,1.944V0h.7V-4.092c0-1.644-.612-2.472-1.944-2.472a3.146,3.146,0,0,0-2.184,1.14H4.884L4.8-6.4H4.224Zm9.588-9.48a2.433,2.433,0,0,0-.96-.216c-1.08,0-1.644.684-1.644,1.956V-6.4l-.888.06v.528h.888V0h.7V-5.808h1.452V-6.4H11.9V-7.7c0-.9.3-1.4.984-1.4a1.827,1.827,0,0,1,.756.18ZM14.436,0h.7V-4.3C15.6-5.484,16.284-5.9,16.848-5.9a1.353,1.353,0,0,1,.588.108l.144-.624a1.289,1.289,0,0,0-.648-.144A2.2,2.2,0,0,0,15.12-5.208H15.1L15.012-6.4h-.576ZM18.5,0h.7V-6.4h-.7Zm.36-7.9a.566.566,0,0,0,.588-.552.564.564,0,0,0-.588-.576.557.557,0,0,0-.588.576A.559.559,0,0,0,18.864-7.9ZM21.348,0h.7V-4.788c.744-.768,1.272-1.152,2.016-1.152.984,0,1.4.612,1.4,1.944V0h.7V-4.092c0-1.644-.612-2.472-1.944-2.472a3.146,3.146,0,0,0-2.184,1.14h-.024L21.924-6.4h-.576Zm8.976,3.048C32.2,3.048,33.4,1.992,33.4.876,33.4-.144,32.712-.6,31.26-.6H29.916c-.924,0-1.2-.348-1.2-.8a1.1,1.1,0,0,1,.5-.888,2.162,2.162,0,0,0,1.032.264,2.2,2.2,0,0,0,2.256-2.256,2.04,2.04,0,0,0-.66-1.536h1.44V-6.4H31.1a2.274,2.274,0,0,0-.852-.168A2.234,2.234,0,0,0,27.96-4.3a2.316,2.316,0,0,0,.816,1.74v.048a1.591,1.591,0,0,0-.708,1.188,1.147,1.147,0,0,0,.576,1.032v.06a1.944,1.944,0,0,0-.96,1.524C27.684,2.376,28.728,3.048,30.324,3.048Zm-.072-5.6a1.64,1.64,0,0,1-1.6-1.74,1.587,1.587,0,0,1,1.6-1.7,1.585,1.585,0,0,1,1.584,1.7A1.638,1.638,0,0,1,30.252-2.556Zm.156,5.076c-1.308,0-2.064-.528-2.064-1.308a1.6,1.6,0,0,1,.792-1.284,4.5,4.5,0,0,0,.8.108h1.308C32.2.036,32.7.288,32.7.972,32.7,1.74,31.8,2.52,30.408,2.52ZM36.792.156a3.579,3.579,0,0,0,2.04-.624l-.264-.516a2.864,2.864,0,0,1-1.7.552,2.422,2.422,0,0,1-2.34-2.652H39.06a3.319,3.319,0,0,0,.036-.5c0-1.872-.924-2.976-2.472-2.976-1.452,0-2.808,1.3-2.808,3.372A3.03,3.03,0,0,0,36.792.156ZM34.524-3.636a2.278,2.278,0,0,1,2.112-2.328c1.116,0,1.824.78,1.824,2.328ZM40.56,0h.7V-4.788A2.7,2.7,0,0,1,43.1-5.94c.948,0,1.38.612,1.38,1.944V0h.7V-4.788A2.7,2.7,0,0,1,47.028-5.94c.936,0,1.38.612,1.38,1.944V0h.7V-4.092c0-1.644-.636-2.472-1.92-2.472a3.2,3.2,0,0,0-2.16,1.3,1.657,1.657,0,0,0-1.764-1.3,2.97,2.97,0,0,0-2.016,1.14H41.22L41.136-6.4H40.56ZM53.616.156a3.579,3.579,0,0,0,2.04-.624l-.264-.516a2.864,2.864,0,0,1-1.7.552,2.422,2.422,0,0,1-2.34-2.652h4.536a3.319,3.319,0,0,0,.036-.5c0-1.872-.924-2.976-2.472-2.976-1.452,0-2.808,1.3-2.808,3.372A3.03,3.03,0,0,0,53.616.156ZM51.348-3.636A2.278,2.278,0,0,1,53.46-5.964c1.116,0,1.824.78,1.824,2.328ZM57.384,0h.7V-4.788c.744-.768,1.272-1.152,2.016-1.152.984,0,1.4.612,1.4,1.944V0h.7V-4.092c0-1.644-.612-2.472-1.944-2.472a3.146,3.146,0,0,0-2.184,1.14h-.024L57.96-6.4h-.576ZM66.06.156a3.619,3.619,0,0,0,1.068-.24l-.168-.54a2.237,2.237,0,0,1-.78.18c-.852,0-1.068-.528-1.068-1.332V-5.808h1.836V-6.4H65.112V-8.244h-.588L64.44-6.4l-1.02.06v.528h1v3.984C64.416-.636,64.8.156,66.06.156Z" transform="translate(49.561 269.496)"/>
  <path id="패스_9679" data-name="패스 9679" class="cls-2" transform="translate(120.452 269.496)"/>
  <path id="패스_9680" data-name="패스 9680" class="cls-2" d="M1.272,0h.66V-5.544c0-.72-.048-1.68-.084-2.412H1.9L2.58-6,4.428-.936H5L6.84-6l.684-1.956h.048c-.036.732-.084,1.692-.084,2.412V0h.684V-8.748h-.96L5.412-3.72c-.216.636-.42,1.284-.648,1.92H4.716L4.032-3.72l-1.8-5.028h-.96ZM11.82.156a3.687,3.687,0,0,0,2.232-.972h.024L14.148,0h.588V-4.056c0-1.416-.54-2.508-2.064-2.508a4.436,4.436,0,0,0-2.424.84l.312.5a3.458,3.458,0,0,1,2.016-.732c1.212,0,1.488.984,1.464,1.932-2.82.324-4.08,1-4.08,2.412A1.688,1.688,0,0,0,11.82.156Zm.144-.588a1.153,1.153,0,0,1-1.308-1.212c0-.984.864-1.572,3.384-1.86v2.076A3.152,3.152,0,0,1,11.964-.432ZM16.728,0h.7V-4.788C18.168-5.556,18.7-5.94,19.44-5.94c.984,0,1.4.612,1.4,1.944V0h.7V-4.092c0-1.644-.612-2.472-1.944-2.472a3.146,3.146,0,0,0-2.184,1.14h-.024L17.3-6.4h-.576ZM25.02.156a3.687,3.687,0,0,0,2.232-.972h.024L27.348,0h.588V-4.056c0-1.416-.54-2.508-2.064-2.508a4.436,4.436,0,0,0-2.424.84l.312.5a3.458,3.458,0,0,1,2.016-.732c1.212,0,1.488.984,1.464,1.932-2.82.324-4.08,1-4.08,2.412A1.688,1.688,0,0,0,25.02.156Zm.144-.588a1.153,1.153,0,0,1-1.308-1.212c0-.984.864-1.572,3.384-1.86v2.076A3.152,3.152,0,0,1,25.164-.432Zm6.864,3.48C33.9,3.048,35.1,1.992,35.1.876,35.1-.144,34.416-.6,32.964-.6H31.62c-.924,0-1.2-.348-1.2-.8a1.1,1.1,0,0,1,.5-.888,2.162,2.162,0,0,0,1.032.264,2.2,2.2,0,0,0,2.256-2.256,2.04,2.04,0,0,0-.66-1.536h1.44V-6.4H32.808a2.274,2.274,0,0,0-.852-.168A2.234,2.234,0,0,0,29.664-4.3a2.316,2.316,0,0,0,.816,1.74v.048a1.591,1.591,0,0,0-.708,1.188,1.147,1.147,0,0,0,.576,1.032v.06a1.944,1.944,0,0,0-.96,1.524C29.388,2.376,30.432,3.048,32.028,3.048Zm-.072-5.6a1.64,1.64,0,0,1-1.6-1.74,1.587,1.587,0,0,1,1.6-1.7A1.585,1.585,0,0,1,33.54-4.3,1.638,1.638,0,0,1,31.956-2.556Zm.156,5.076c-1.308,0-2.064-.528-2.064-1.308A1.6,1.6,0,0,1,30.84-.072a4.5,4.5,0,0,0,.8.108h1.308C33.9.036,34.4.288,34.4.972,34.4,1.74,33.5,2.52,32.112,2.52ZM38.5.156a3.579,3.579,0,0,0,2.04-.624l-.264-.516a2.864,2.864,0,0,1-1.7.552,2.422,2.422,0,0,1-2.34-2.652h4.536a3.319,3.319,0,0,0,.036-.5c0-1.872-.924-2.976-2.472-2.976-1.452,0-2.808,1.3-2.808,3.372A3.03,3.03,0,0,0,38.5.156ZM36.228-3.636A2.278,2.278,0,0,1,38.34-5.964c1.116,0,1.824.78,1.824,2.328ZM42.264,0h.7V-4.788A2.7,2.7,0,0,1,44.808-5.94c.948,0,1.38.612,1.38,1.944V0h.7V-4.788A2.7,2.7,0,0,1,48.732-5.94c.936,0,1.38.612,1.38,1.944V0h.7V-4.092c0-1.644-.636-2.472-1.92-2.472a3.2,3.2,0,0,0-2.16,1.3,1.657,1.657,0,0,0-1.764-1.3,2.97,2.97,0,0,0-2.016,1.14h-.024L42.84-6.4h-.576ZM55.32.156a3.579,3.579,0,0,0,2.04-.624L57.1-.984a2.864,2.864,0,0,1-1.7.552,2.422,2.422,0,0,1-2.34-2.652h4.536a3.319,3.319,0,0,0,.036-.5c0-1.872-.924-2.976-2.472-2.976-1.452,0-2.808,1.3-2.808,3.372A3.03,3.03,0,0,0,55.32.156ZM53.052-3.636a2.278,2.278,0,0,1,2.112-2.328c1.116,0,1.824.78,1.824,2.328ZM59.088,0h.7V-4.788c.744-.768,1.272-1.152,2.016-1.152.984,0,1.4.612,1.4,1.944V0h.7V-4.092c0-1.644-.612-2.472-1.944-2.472a3.146,3.146,0,0,0-2.184,1.14h-.024L59.664-6.4h-.576Zm8.676.156a3.619,3.619,0,0,0,1.068-.24l-.168-.54a2.237,2.237,0,0,1-.78.18c-.852,0-1.068-.528-1.068-1.332V-5.808h1.836V-6.4H66.816V-8.244h-.588L66.144-6.4l-1.02.06v.528h1v3.984C66.12-.636,66.5.156,67.764.156Z" transform="translate(48.646 286.492)"/>
  <path id="패스_9668" data-name="패스 9668" class="cls-2" d="M1.272,0h.72V-8.748h-.72ZM6.156,0h.732V-8.136h2.76v-.612H3.408v.612H6.156ZM15.54.156A2.964,2.964,0,0,0,17.592-.8h.024L17.7,0h.576V-9.54h-.7v2.6l.048,1.152a2.872,2.872,0,0,0-1.908-.78c-1.512,0-2.832,1.308-2.832,3.372C12.888-1.044,13.932.156,15.54.156Zm.12-.612c-1.3,0-2.028-1.08-2.028-2.736,0-1.572.936-2.76,2.16-2.76a2.582,2.582,0,0,1,1.788.792v3.7A2.678,2.678,0,0,1,15.66-.456ZM20.436,0h.7V-6.4h-.7Zm.36-7.9a.566.566,0,0,0,.588-.552.564.564,0,0,0-.588-.576.557.557,0,0,0-.588.576A.559.559,0,0,0,20.8-7.9ZM24.852.156c1.416,0,2.2-.84,2.2-1.824,0-1.236-1.08-1.584-2.064-1.956C24.24-3.9,23.5-4.164,23.5-4.872c0-.576.432-1.1,1.38-1.1A2.453,2.453,0,0,1,26.4-5.4l.36-.48a3.089,3.089,0,0,0-1.86-.684c-1.344,0-2.1.792-2.1,1.728,0,1.1,1.056,1.5,2,1.836.744.264,1.548.612,1.548,1.368,0,.66-.492,1.212-1.464,1.212a2.93,2.93,0,0,1-2.016-.8l-.372.5A3.748,3.748,0,0,0,24.852.156Zm5.028,0a3.687,3.687,0,0,0,2.232-.972h.024L32.208,0H32.8V-4.056c0-1.416-.54-2.508-2.064-2.508a4.436,4.436,0,0,0-2.424.84l.312.5a3.458,3.458,0,0,1,2.016-.732c1.212,0,1.488.984,1.464,1.932-2.82.324-4.08,1-4.08,2.412A1.688,1.688,0,0,0,29.88.156Zm.144-.588a1.153,1.153,0,0,1-1.308-1.212c0-.984.864-1.572,3.384-1.86v2.076A3.152,3.152,0,0,1,30.024-.432ZM36.36.156c1.416,0,2.2-.84,2.2-1.824,0-1.236-1.08-1.584-2.064-1.956C35.748-3.9,35-4.164,35-4.872c0-.576.432-1.1,1.38-1.1a2.453,2.453,0,0,1,1.524.576l.36-.48a3.089,3.089,0,0,0-1.86-.684c-1.344,0-2.1.792-2.1,1.728,0,1.1,1.056,1.5,2,1.836.744.264,1.548.612,1.548,1.368,0,.66-.492,1.212-1.464,1.212a2.93,2.93,0,0,1-2.016-.8l-.372.5A3.748,3.748,0,0,0,36.36.156Z" transform="translate(189.651 276.74)"/>
  <path id="패스_9665" data-name="패스 9665" class="cls-2" d="M3,.156a3.619,3.619,0,0,0,1.068-.24L3.9-.624a2.237,2.237,0,0,1-.78.18c-.852,0-1.068-.528-1.068-1.332V-5.808H3.888V-6.4H2.052V-8.244H1.464L1.38-6.4l-1.02.06v.528h1v3.984C1.356-.636,1.74.156,3,.156Zm4.476,0a3.579,3.579,0,0,0,2.04-.624L9.252-.984a2.864,2.864,0,0,1-1.7.552,2.422,2.422,0,0,1-2.34-2.652H9.744a3.319,3.319,0,0,0,.036-.5c0-1.872-.924-2.976-2.472-2.976-1.452,0-2.808,1.3-2.808,3.372A3.03,3.03,0,0,0,7.476.156ZM5.208-3.636A2.278,2.278,0,0,1,7.32-5.964c1.116,0,1.824.78,1.824,2.328ZM11.244,0h.7V-4.3C12.408-5.484,13.092-5.9,13.656-5.9a1.353,1.353,0,0,1,.588.108l.144-.624a1.289,1.289,0,0,0-.648-.144,2.2,2.2,0,0,0-1.812,1.356H11.9L11.82-6.4h-.576Zm6.492,0h.7V-4.3C18.9-5.484,19.584-5.9,20.148-5.9a1.353,1.353,0,0,1,.588.108l.144-.624a1.289,1.289,0,0,0-.648-.144A2.2,2.2,0,0,0,18.42-5.208H18.4L18.312-6.4h-.576ZM24.12.156a3.579,3.579,0,0,0,2.04-.624L25.9-.984a2.864,2.864,0,0,1-1.7.552,2.422,2.422,0,0,1-2.34-2.652h4.536a3.319,3.319,0,0,0,.036-.5c0-1.872-.924-2.976-2.472-2.976-1.452,0-2.808,1.3-2.808,3.372A3.03,3.03,0,0,0,24.12.156ZM21.852-3.636a2.278,2.278,0,0,1,2.112-2.328c1.116,0,1.824.78,1.824,2.328ZM30.288.156a3.1,3.1,0,0,0,2.04-.828l-.336-.48a2.555,2.555,0,0,1-1.668.708c-1.344,0-2.232-1.116-2.232-2.748s.972-2.76,2.244-2.76A2.1,2.1,0,0,1,31.8-5.3l.4-.48a2.705,2.705,0,0,0-1.872-.78A3.056,3.056,0,0,0,27.36-3.192C27.36-1.068,28.62.156,30.288.156Z" transform="translate(229.122 276.74)"/>
  <path id="패스_9662" data-name="패스 9662" class="cls-2" d="M3.564.156c1.548,0,2.892-1.224,2.892-3.348S5.112-6.564,3.564-6.564.672-5.328.672-3.192,2.016.156,3.564.156Zm0-.6C2.316-.444,1.4-1.56,1.4-3.192s.912-2.76,2.16-2.76,2.172,1.128,2.172,2.76S4.812-.444,3.564-.444ZM9.42,0h.828L12.6-6.4h-.708L10.5-2.472c-.2.624-.432,1.272-.636,1.848H9.816C9.6-1.2,9.384-1.848,9.18-2.472L7.8-6.4H7.044Zm6.744.156A3.579,3.579,0,0,0,18.2-.468L17.94-.984a2.864,2.864,0,0,1-1.7.552A2.422,2.422,0,0,1,13.9-3.084h4.536a3.319,3.319,0,0,0,.036-.5c0-1.872-.924-2.976-2.472-2.976-1.452,0-2.808,1.3-2.808,3.372A3.03,3.03,0,0,0,16.164.156ZM13.9-3.636a2.278,2.278,0,0,1,2.112-2.328c1.116,0,1.824.78,1.824,2.328ZM19.932,0h.7V-4.3C21.1-5.484,21.78-5.9,22.344-5.9a1.353,1.353,0,0,1,.588.108l.144-.624a1.289,1.289,0,0,0-.648-.144,2.2,2.2,0,0,0-1.812,1.356h-.024L20.508-6.4h-.576Z" transform="translate(261.742 276.74)"/>
  <path id="패스_9663" data-name="패스 9663" class="cls-2" d="M1.02,2.88C2.2,2.88,2.844,1.848,3.228.744l2.5-7.14H5.016L3.708-2.484c-.18.552-.384,1.224-.576,1.8h-.06C2.844-1.26,2.6-1.932,2.4-2.484L.912-6.4H.156L2.772.1,2.6.636c-.312.924-.828,1.62-1.6,1.62a1.646,1.646,0,0,1-.516-.1l-.156.588A1.7,1.7,0,0,0,1.02,2.88Z" transform="translate(284.923 276.74)"/>
  <path id="패스_9646" data-name="패스 9646" class="cls-6" d="M0,0H142.922" transform="translate(13.061 72.175)"/>
  <path id="패스_9647" data-name="패스 9647" class="cls-7" d="M0,0H0M145.167,0h0" transform="translate(11.564 72.175)"/>
  <path id="패스_9648" data-name="패스 9648" class="cls-6" d="M0,0H142.922" transform="translate(13.061 223.858)"/>
  <path id="패스_9649" data-name="패스 9649" class="cls-7" d="M0,0H0M145.167,0h0" transform="translate(11.564 223.858)"/>
  <path id="패스_9650" data-name="패스 9650" class="cls-6" d="M0,0H142.922" transform="translate(13.061 253.327)"/>
  <path id="패스_9651" data-name="패스 9651" class="cls-7" d="M0,0H0M145.167,0h0" transform="translate(11.564 253.327)"/>
  <path id="패스_9652" data-name="패스 9652" class="cls-6" d="M0,0H142.922" transform="translate(169.002 72.175)"/>
  <path id="패스_9653" data-name="패스 9653" class="cls-7" d="M0,0H0M145.167,0h0" transform="translate(167.505 72.175)"/>
  <path id="패스_9654" data-name="패스 9654" class="cls-6" d="M0,0H142.922" transform="translate(169.002 223.858)"/>
  <path id="패스_9655" data-name="패스 9655" class="cls-7" d="M0,0H0M145.167,0h0" transform="translate(167.505 223.858)"/>
  <path id="패스_9656" data-name="패스 9656" class="cls-6" d="M0,0H142.922" transform="translate(169.002 253.327)"/>
  <path id="패스_9657" data-name="패스 9657" class="cls-7" d="M0,0H0M145.167,0h0" transform="translate(167.505 253.327)"/>
  <path id="패스_9658" data-name="패스 9658" class="cls-8" d="M0,0V68.266" transform="translate(161.586 36.391)"/>
  <path id="패스_9659" data-name="패스 9659" class="cls-7" d="M0,0H0M0,70.517H0" transform="translate(161.586 34.891)"/>
  <path id="패스_9660" data-name="패스 9660" class="cls-8" d="M0,0V92.244" transform="translate(161.586 198.248)"/>
  <path id="패스_9661" data-name="패스 9661" class="cls-7" d="M0,0H0M0,71.99H0" transform="translate(161.586 196.749)"/>
</svg>
