<svg xmlns="http://www.w3.org/2000/svg" width="150.646" height="155.287" viewBox="0 0 150.646 155.287">
  <defs>
    <style>
      .cls-1 {
        fill: #fff;
      }

      .cls-2 {
        fill: none;
        stroke: #000;
        stroke-miterlimit: 10;
        stroke-width: 1.05px;
      }

      .cls-3 {
        fill: #1e2323;
      }
    </style>
  </defs>
  <g id="구성_요소_113_1" data-name="구성 요소 113 – 1" transform="translate(0.525)">
    <g id="구성_요소_9_1" data-name="구성 요소 9 – 1">
      <g id="그룹_140" data-name="그룹 140" transform="translate(-1325.447 -1253.086)">
        <path id="패스_332" data-name="패스 332" d="M1475.567,1336.21a71.925,71.925,0,1,1-72.163-71.687,71.926,71.926,0,0,1,72.163,71.687"/>
        <path id="패스_333" data-name="패스 333" class="cls-1" d="M1391.938,1259.067q2.256-.15,4.549-.158a71.206,71.206,0,1,1-10.006.73"/>
        <path id="패스_334" data-name="패스 334" class="cls-2" d="M1391.938,1259.067q2.256-.15,4.549-.158a71.2,71.2,0,1,1-12.255,1.091"/>
      </g>
      <path id="패스_335" data-name="패스 335" d="M1379.163,1269.91l-1.713-1.218,6.012-8.431-8.849-5.38,1.094-1.8,10.775,6.555Z" transform="translate(-1325.447 -1253.086)"/>
      <path id="패스_8738" data-name="패스 8738" class="cls-3" d="M2.5,0H4.7V-9.625c0-1.925-.175-3.875-.275-5.725h.1L6.5-11.575,13.175,0H15.55V-18.325h-2.2V-8.8c0,1.9.175,3.95.3,5.8h-.125l-1.95-3.775L4.9-18.325H2.5ZM20.075,0h10.85V-1.975H22.4V-8.65h6.95v-1.975H22.4v-5.75h8.25v-1.95H20.075ZM38.1,0h2.325V-16.375h5.55v-1.95H32.55v1.95H38.1Z" transform="translate(50.113 96.972)"/>
      <path id="패스_8739" data-name="패스 8739" class="cls-3" d="M1.25,0H13.875V-1.975H4.1l9.675-15v-1.35H2.125v1.95h8.8l-9.675,15ZM17.075,0h10.85V-1.975H19.4V-8.65h6.95v-1.975H19.4v-5.75h8.25v-1.95H17.075ZM33.6-16.45h3.075c2.875,0,4.45.85,4.45,3.275,0,2.375-1.575,3.525-4.45,3.525H33.6ZM43.975,0l-4.7-8.025a4.97,4.97,0,0,0,4.15-5.15c0-3.825-2.675-5.15-6.4-5.15h-5.75V0H33.6V-7.775h3.3L41.35,0Zm9.45.325c4.6,0,7.825-3.675,7.825-9.55s-3.225-9.45-7.825-9.45S45.6-15.1,45.6-9.225,48.825.325,53.425.325Zm0-2.025c-3.3,0-5.45-2.95-5.45-7.525,0-4.6,2.15-7.425,5.45-7.425,3.275,0,5.45,2.825,5.45,7.425C58.875-4.65,56.7-1.7,53.425-1.7Z" transform="translate(42.113 123.972)"/>
    </g>
    <path id="패스_9674" data-name="패스 9674" class="cls-3" d="M22.9,16.182A4.069,4.069,0,0,0,26.1,14.7l-.868-1.022a3,3,0,0,1-2.282,1.092c-1.82,0-2.968-1.5-2.968-3.948,0-2.422,1.232-3.906,3.01-3.906a2.741,2.741,0,0,1,2.016.924L25.893,6.8a3.971,3.971,0,0,0-2.926-1.3c-2.6,0-4.648,2.016-4.648,5.376S20.307,16.182,22.9,16.182Zm6.706,0a3.828,3.828,0,0,0,2.45-1.064h.042l.14.882h1.316V11.366c0-2.044-.882-3.262-2.8-3.262a5.9,5.9,0,0,0-3.108,1.008l.6,1.092a4.234,4.234,0,0,1,2.226-.784c1.134,0,1.456.784,1.47,1.68-3.206.35-4.606,1.2-4.606,2.856A2.127,2.127,0,0,0,29.6,16.182Zm.49-1.274c-.686,0-1.2-.308-1.2-1.064,0-.868.77-1.442,3.052-1.722v1.89A2.714,2.714,0,0,1,30.093,14.908ZM35.833,16h1.6V11.2c.49-1.218,1.246-1.652,1.876-1.652a2.278,2.278,0,0,1,.77.126l.294-1.4A1.915,1.915,0,0,0,39.5,8.1a2.662,2.662,0,0,0-2.184,1.582h-.042L37.149,8.3H35.833Zm9.31.182c1.736,0,3.318-1.512,3.318-4.158,0-2.366-1.106-3.92-3.052-3.92a3.675,3.675,0,0,0-2.3,1.008L43.155,7.8V4.842h-1.6V16h1.26l.154-.8h.042A3.2,3.2,0,0,0,45.143,16.182Zm-.308-1.33a2.582,2.582,0,0,1-1.68-.7V10.386a2.679,2.679,0,0,1,1.834-.938c1.288,0,1.806.994,1.806,2.6C46.795,13.858,45.955,14.852,44.835,14.852Zm8.61,1.33a3.7,3.7,0,0,0,3.626-4.018c0-2.576-1.722-4.06-3.626-4.06s-3.626,1.484-3.626,4.06A3.7,3.7,0,0,0,53.445,16.182Zm0-1.316c-1.2,0-1.96-1.078-1.96-2.7s.756-2.73,1.96-2.73,1.974,1.092,1.974,2.73S54.663,14.866,53.445,14.866ZM58.961,16h1.6V10.54a2.629,2.629,0,0,1,1.89-1.05c.91,0,1.3.532,1.3,1.862V16h1.61V11.156c0-1.96-.728-3.052-2.366-3.052a3.669,3.669,0,0,0-2.548,1.26H60.4L60.277,8.3H58.961ZM13.16,36H19.4V34.628h-4.62V31.3h3.78V29.924h-3.78v-2.87H19.25V25.7H13.16Zm8.26,0h1.6V30.54a2.6,2.6,0,0,1,1.736-1.05c.882,0,1.288.532,1.288,1.862V36h1.61V30.54a2.571,2.571,0,0,1,1.736-1.05c.868,0,1.288.532,1.288,1.862V36h1.61V31.156c0-1.96-.756-3.052-2.366-3.052a3.548,3.548,0,0,0-2.506,1.414A2.055,2.055,0,0,0,25.284,28.1a3.354,3.354,0,0,0-2.38,1.274h-.042L22.736,28.3H21.42Zm13.188,0h1.6V28.3h-1.6Zm.8-9.142a.955.955,0,1,0,0-1.9.954.954,0,1,0,0,1.9Zm5.306,9.324c1.9,0,2.926-1.05,2.926-2.338,0-1.456-1.19-1.932-2.268-2.338-.84-.308-1.638-.56-1.638-1.218,0-.532.392-.952,1.232-.952a2.882,2.882,0,0,1,1.722.672l.756-.994a4.053,4.053,0,0,0-2.506-.91c-1.694,0-2.73.966-2.73,2.254s1.176,1.848,2.2,2.24c.84.322,1.708.63,1.708,1.33,0,.588-.434,1.036-1.358,1.036a3.413,3.413,0,0,1-2.184-.882l-.756,1.036A4.736,4.736,0,0,0,40.712,36.182Zm6.72,0c1.9,0,2.926-1.05,2.926-2.338,0-1.456-1.19-1.932-2.268-2.338-.84-.308-1.638-.56-1.638-1.218,0-.532.392-.952,1.232-.952a2.882,2.882,0,0,1,1.722.672l.756-.994a4.053,4.053,0,0,0-2.506-.91c-1.694,0-2.73.966-2.73,2.254s1.176,1.848,2.2,2.24c.84.322,1.708.63,1.708,1.33,0,.588-.434,1.036-1.358,1.036a3.413,3.413,0,0,1-2.184-.882l-.756,1.036A4.736,4.736,0,0,0,47.432,36.182ZM52.066,36h1.6V28.3h-1.6Zm.8-9.142a.955.955,0,1,0,0-1.9.954.954,0,1,0,0,1.9Zm6.3,9.324a3.7,3.7,0,0,0,3.626-4.018c0-2.576-1.722-4.06-3.626-4.06s-3.626,1.484-3.626,4.06A3.7,3.7,0,0,0,59.164,36.182Zm0-1.316c-1.2,0-1.96-1.078-1.96-2.7s.756-2.73,1.96-2.73,1.974,1.092,1.974,2.73S60.382,34.866,59.164,34.866ZM64.68,36h1.6V30.54a2.629,2.629,0,0,1,1.89-1.05c.91,0,1.3.532,1.3,1.862V36h1.61V31.156c0-1.96-.728-3.052-2.366-3.052a3.669,3.669,0,0,0-2.548,1.26h-.042L66,28.3H64.68Z" transform="translate(32.553 24.914)"/>
  </g>
</svg>
