<svg id="구성_요소_112_1" data-name="구성 요소 112 – 1" xmlns="http://www.w3.org/2000/svg" width="407" height="339" viewBox="0 0 407 339">
  <defs>
    <style>
      .cls-1 {
        fill: #f9fafa;
      }

      .cls-2, .cls-5 {
        fill: none;
        stroke: #5e6366;
      }

      .cls-3 {
        fill: #92bc49;
      }

      .cls-4 {
        fill: #fff;
      }

      .cls-5 {
        stroke-miterlimit: 10;
      }

      .cls-6, .cls-7 {
        fill: #1e2323;
      }

      .cls-6 {
        font-size: 15px;
        font-family: NotoSansKR-Medium, Noto Sans KR;
        font-weight: 500;
      }
    </style>
  </defs>
  <rect id="사각형_128" data-name="사각형 128" class="cls-1" width="407" height="339"/>
  <line id="선_928" data-name="선 928" class="cls-2" y2="57.5" transform="translate(37 78.5)"/>
  <line id="선_929" data-name="선 929" class="cls-2" x1="4.5" transform="translate(34.75 78.5)"/>
  <line id="선_930" data-name="선 930" class="cls-2" y2="57.5" transform="translate(37 198.5)"/>
  <line id="선_931" data-name="선 931" class="cls-2" x1="4.5" transform="translate(34.75 198.5)"/>
  <g id="그룹_114" data-name="그룹 114" transform="translate(-2959 -7964)">
    <path id="패스_257" data-name="패스 257" class="cls-3" d="M2996,8027.762A16.762,16.762,0,1,0,2979.238,8011,16.761,16.761,0,0,0,2996,8027.762"/>
  </g>
  <path id="패스_8907" data-name="패스 8907" class="cls-4" d="M1.2,0h5.88V-1.33H5.068V-10.3H3.85a6.33,6.33,0,0,1-2.24.784V-8.5H3.458V-1.33H1.2Z" transform="translate(33.01 53.16)"/>
  <g id="그룹_115" data-name="그룹 115" transform="translate(-2959 -7964)">
    <path id="패스_258" data-name="패스 258" class="cls-5" d="M2996,7990.5a20.493,20.493,0,1,0,11.066,3.24"/>
  </g>
  <path id="패스_259" data-name="패스 259" class="cls-5" d="M3005.907,7996.139l-1-3.923,3.957-.716" transform="translate(-2959 -7964)"/>
  <text id="_" data-name="
" class="cls-6" transform="translate(342.665 53.6)"><tspan x="0" y="0"></tspan><tspan x="0" y="18"></tspan></text>
  <g id="그룹_116" data-name="그룹 116" transform="translate(-2959 -7964)">
    <path id="패스_260" data-name="패스 260" class="cls-3" d="M2996,8147.762A16.762,16.762,0,1,0,2979.238,8131,16.761,16.761,0,0,0,2996,8147.762"/>
  </g>
  <path id="패스_8908" data-name="패스 8908" class="cls-4" d="M.616,0h6.65V-1.372H4.69c-.5,0-1.148.042-1.68.1C5.194-3.36,6.776-5.418,6.776-7.406A2.914,2.914,0,0,0,3.668-10.5,4.043,4.043,0,0,0,.532-8.96l.91.9a2.8,2.8,0,0,1,2.03-1.148,1.68,1.68,0,0,1,1.75,1.89c0,1.694-1.568,3.7-4.606,6.384Z" transform="translate(33.01 173.16)"/>
  <g id="그룹_117" data-name="그룹 117" transform="translate(-2959 -7964)">
    <path id="패스_261" data-name="패스 261" class="cls-5" d="M2996,8110.5a20.493,20.493,0,1,0,11.066,3.24"/>
  </g>
  <path id="패스_262" data-name="패스 262" class="cls-5" d="M3005.907,8116.139l-1-3.923,3.957-.716" transform="translate(-2959 -7964)"/>
  <g id="그룹_118" data-name="그룹 118" transform="translate(-2959 -7964)">
    <path id="패스_263" data-name="패스 263" class="cls-3" d="M2996,8267.762A16.761,16.761,0,1,0,2979.238,8251,16.761,16.761,0,0,0,2996,8267.762"/>
  </g>
  <path id="패스_8910" data-name="패스 8910" class="cls-4" d="M3.752.182C5.642.182,7.2-.91,7.2-2.772A2.609,2.609,0,0,0,5.068-5.348v-.07A2.491,2.491,0,0,0,6.846-7.84c0-1.708-1.3-2.66-3.15-2.66A4.343,4.343,0,0,0,.742-9.254l.84,1.008a3.017,3.017,0,0,1,2.058-.98,1.442,1.442,0,0,1,1.582,1.5c0,1.036-.672,1.806-2.7,1.806v1.19c2.324,0,3.052.742,3.052,1.89a1.73,1.73,0,0,1-1.96,1.708A3.33,3.33,0,0,1,1.176-2.268L.392-1.232A4.277,4.277,0,0,0,3.752.182Z" transform="translate(33.01 293.16)"/>
  <g id="그룹_119" data-name="그룹 119" transform="translate(-2959 -7964)">
    <path id="패스_264" data-name="패스 264" class="cls-5" d="M2996,8230.5a20.493,20.493,0,1,0,11.066,3.24"/>
  </g>
  <path id="패스_265" data-name="패스 265" class="cls-5" d="M3005.907,8236.139l-1-3.923,3.957-.716" transform="translate(-2959 -7964)"/>
  <path id="패스_9671" data-name="패스 9671" class="cls-7" d="M2.769,6.641H4.212c1.391,0,2.145.4,2.145,1.56S5.6,9.93,4.212,9.93H2.769ZM8.19,15,5.85,10.944a2.664,2.664,0,0,0,2-2.743c0-2.067-1.482-2.769-3.458-2.769H1.261V15H2.769V11.139H4.316L6.487,15Zm4.29.169a4.338,4.338,0,0,0,2.418-.754l-.52-.949a3.036,3.036,0,0,1-1.7.533,2.159,2.159,0,0,1-2.21-2.184h4.641a3.864,3.864,0,0,0,.065-.754c0-2.028-1.014-3.393-2.912-3.393A3.472,3.472,0,0,0,9,11.438,3.435,3.435,0,0,0,12.48,15.169Zm-2.028-4.381a1.939,1.939,0,0,1,1.833-1.95c1.04,0,1.6.715,1.6,1.95ZM16.848,15H18.33V7.85H16.848Zm.741-8.489a.887.887,0,1,0,0-1.768.886.886,0,1,0,0,1.768ZM20.579,15h1.482V9.93a2.441,2.441,0,0,1,1.755-.975c.845,0,1.209.494,1.209,1.729V15h1.5V10.5c0-1.82-.676-2.834-2.2-2.834a3.407,3.407,0,0,0-2.366,1.17h-.039L21.8,7.85H20.579ZM32.461,4.717A3.246,3.246,0,0,0,31.2,4.47c-1.6,0-2.262,1.014-2.262,2.483v.9l-.975.078V9.046h.975V15h1.495V9.046h1.443V7.85H30.433V6.94c0-.871.312-1.287.949-1.287a1.945,1.945,0,0,1,.78.182Zm3.432,10.452a3.434,3.434,0,0,0,3.367-3.731,3.389,3.389,0,1,0-6.734,0A3.434,3.434,0,0,0,35.893,15.169Zm0-1.222c-1.118,0-1.82-1-1.82-2.509s.7-2.535,1.82-2.535,1.833,1.014,1.833,2.535S37.024,13.947,35.893,13.947ZM41.015,15H42.5V10.541c.455-1.131,1.157-1.534,1.742-1.534a2.115,2.115,0,0,1,.715.117l.273-1.3a1.779,1.779,0,0,0-.806-.156,2.472,2.472,0,0,0-2.028,1.469h-.039L42.237,7.85H41.015Zm8.086.169a3.484,3.484,0,0,0,2.314-.884L50.8,13.3a2.449,2.449,0,0,1-1.56.65c-1.2,0-2.015-1-2.015-2.509S48.087,8.9,49.283,8.9a1.873,1.873,0,0,1,1.287.559l.741-.975a3.07,3.07,0,0,0-2.093-.819,3.513,3.513,0,0,0-3.536,3.77C45.682,13.8,47.164,15.169,49.1,15.169ZM52.91,15h1.482V7.85H52.91Zm.741-8.489a.887.887,0,1,0,0-1.768.886.886,0,1,0,0,1.768ZM56.641,15h1.482V9.93a2.441,2.441,0,0,1,1.755-.975c.845,0,1.209.494,1.209,1.729V15h1.5V10.5c0-1.82-.676-2.834-2.2-2.834a3.407,3.407,0,0,0-2.366,1.17H57.98l-.117-.988H56.641ZM67.2,18.211c2.288,0,3.744-1.118,3.744-2.5,0-1.222-.884-1.742-2.574-1.742H67.054c-.91,0-1.2-.273-1.2-.7a.948.948,0,0,1,.39-.754,2.485,2.485,0,0,0,1,.221,2.443,2.443,0,0,0,2.678-2.457,1.933,1.933,0,0,0-.468-1.313h1.365V7.85H68.289a2.982,2.982,0,0,0-1.04-.182,2.579,2.579,0,0,0-2.769,2.574,2.447,2.447,0,0,0,.936,1.9v.052a1.764,1.764,0,0,0-.793,1.326,1.315,1.315,0,0,0,.65,1.183v.065a1.889,1.889,0,0,0-1.04,1.56C64.233,17.574,65.481,18.211,67.2,18.211Zm.052-6.435A1.394,1.394,0,0,1,65.9,10.242a1.361,1.361,0,1,1,2.7,0A1.394,1.394,0,0,1,67.249,11.776Zm.169,5.447c-1.183,0-1.911-.416-1.911-1.118a1.286,1.286,0,0,1,.611-1.04,4.545,4.545,0,0,0,.962.1h1.079c.871,0,1.339.182,1.339.78C69.5,16.612,68.666,17.223,67.418,17.223ZM77.6,15.169a4.575,4.575,0,0,0,1.4-.26L78.728,13.8a2.132,2.132,0,0,1-.767.169c-.741,0-1.04-.442-1.04-1.3V9.046H78.78V7.85H76.921V5.874H75.66L75.491,7.85l-1.105.078V9.046h1.04V12.66C75.426,14.168,75.985,15.169,77.6,15.169ZM80.34,15h1.482V9.93a2.441,2.441,0,0,1,1.755-.975c.845,0,1.209.494,1.209,1.729V15h1.5V10.5c0-1.82-.676-2.834-2.2-2.834A3.327,3.327,0,0,0,81.77,8.8l.052-1.417V4.639H80.34Zm11.05.169a4.338,4.338,0,0,0,2.418-.754l-.52-.949a3.036,3.036,0,0,1-1.7.533,2.159,2.159,0,0,1-2.21-2.184h4.641a3.864,3.864,0,0,0,.065-.754c0-2.028-1.014-3.393-2.912-3.393a3.472,3.472,0,0,0-3.263,3.77A3.435,3.435,0,0,0,91.39,15.169Zm-2.028-4.381a1.939,1.939,0,0,1,1.833-1.95c1.04,0,1.6.715,1.6,1.95ZM98.683,15h1.482V7.85H98.683Zm.741-8.489a.887.887,0,1,0,0-1.768.886.886,0,1,0,0,1.768ZM102.414,15H103.9V9.93a2.413,2.413,0,0,1,1.612-.975c.819,0,1.2.494,1.2,1.729V15h1.5V9.93a2.387,2.387,0,0,1,1.612-.975c.806,0,1.2.494,1.2,1.729V15h1.5V10.5c0-1.82-.7-2.834-2.2-2.834a3.294,3.294,0,0,0-2.327,1.313A1.909,1.909,0,0,0,106,7.668a3.115,3.115,0,0,0-2.21,1.183h-.039l-.117-1h-1.222Zm13.936.169a3.554,3.554,0,0,0,2.275-.988h.039l.13.819h1.222V10.7c0-1.9-.819-3.029-2.6-3.029a5.477,5.477,0,0,0-2.886.936l.559,1.014a3.932,3.932,0,0,1,2.067-.728c1.053,0,1.352.728,1.365,1.56-2.977.325-4.277,1.118-4.277,2.652A1.975,1.975,0,0,0,116.35,15.169Zm.455-1.183c-.637,0-1.118-.286-1.118-.988,0-.806.715-1.339,2.834-1.6v1.755A2.521,2.521,0,0,1,116.805,13.986Zm7.774,4.225c2.288,0,3.744-1.118,3.744-2.5,0-1.222-.884-1.742-2.574-1.742h-1.313c-.91,0-1.2-.273-1.2-.7a.948.948,0,0,1,.39-.754,2.485,2.485,0,0,0,1,.221,2.443,2.443,0,0,0,2.678-2.457,1.933,1.933,0,0,0-.468-1.313h1.365V7.85h-2.535a2.982,2.982,0,0,0-1.04-.182,2.579,2.579,0,0,0-2.769,2.574,2.447,2.447,0,0,0,.936,1.9v.052A1.764,1.764,0,0,0,122,13.518a1.315,1.315,0,0,0,.65,1.183v.065a1.889,1.889,0,0,0-1.04,1.56C121.615,17.574,122.863,18.211,124.579,18.211Zm.052-6.435a1.394,1.394,0,0,1-1.352-1.534,1.361,1.361,0,1,1,2.7,0A1.394,1.394,0,0,1,124.631,11.776Zm.169,5.447c-1.183,0-1.911-.416-1.911-1.118a1.286,1.286,0,0,1,.611-1.04,4.545,4.545,0,0,0,.962.1h1.079c.871,0,1.339.182,1.339.78C126.88,16.612,126.048,17.223,124.8,17.223Zm7.605-2.054a4.338,4.338,0,0,0,2.418-.754l-.52-.949a3.036,3.036,0,0,1-1.7.533,2.159,2.159,0,0,1-2.21-2.184h4.641a3.864,3.864,0,0,0,.065-.754c0-2.028-1.014-3.393-2.912-3.393a3.472,3.472,0,0,0-3.263,3.77A3.435,3.435,0,0,0,132.4,15.169Zm-2.028-4.381a1.939,1.939,0,0,1,1.833-1.95c1.04,0,1.6.715,1.6,1.95Zm12.181,4.381a3.434,3.434,0,0,0,3.367-3.731,3.389,3.389,0,1,0-6.734,0A3.434,3.434,0,0,0,142.558,15.169Zm0-1.222c-1.118,0-1.82-1-1.82-2.509s.7-2.535,1.82-2.535,1.833,1.014,1.833,2.535S143.689,13.947,142.558,13.947Zm8.853-9.23a3.246,3.246,0,0,0-1.261-.247c-1.6,0-2.262,1.014-2.262,2.483v.9l-.975.078V9.046h.975V15h1.495V9.046h1.443V7.85h-1.443V6.94c0-.871.312-1.287.949-1.287a1.945,1.945,0,0,1,.78.182Zm6.617,10.452a4.338,4.338,0,0,0,2.418-.754l-.52-.949a3.036,3.036,0,0,1-1.7.533,2.159,2.159,0,0,1-2.21-2.184h4.641a3.864,3.864,0,0,0,.065-.754c0-2.028-1.014-3.393-2.912-3.393a3.472,3.472,0,0,0-3.263,3.77A3.435,3.435,0,0,0,158.028,15.169ZM156,10.788a1.939,1.939,0,0,1,1.833-1.95c1.04,0,1.6.715,1.6,1.95Zm9.308,4.381a3.484,3.484,0,0,0,2.314-.884l-.611-.988a2.449,2.449,0,0,1-1.56.65c-1.2,0-2.015-1-2.015-2.509S164.294,8.9,165.49,8.9a1.873,1.873,0,0,1,1.287.559l.741-.975a3.07,3.07,0,0,0-2.093-.819,3.513,3.513,0,0,0-3.536,3.77C161.889,13.8,163.371,15.169,165.308,15.169Zm6.331,0a3.434,3.434,0,0,0,3.367-3.731,3.389,3.389,0,1,0-6.734,0A3.434,3.434,0,0,0,171.639,15.169Zm0-1.222c-1.118,0-1.82-1-1.82-2.509s.7-2.535,1.82-2.535,1.833,1.014,1.833,2.535S172.77,13.947,171.639,13.947Zm4.68-2.067h3.432V10.775h-3.432Zm8.931-7.163a3.246,3.246,0,0,0-1.261-.247c-1.6,0-2.262,1.014-2.262,2.483v.9l-.975.078V9.046h.975V15h1.495V9.046h1.443V7.85h-1.443V6.94c0-.871.312-1.287.949-1.287a1.945,1.945,0,0,1,.78.182ZM185.965,15h1.482V10.541c.455-1.131,1.157-1.534,1.742-1.534a2.115,2.115,0,0,1,.715.117l.273-1.3a1.779,1.779,0,0,0-.806-.156,2.472,2.472,0,0,0-2.028,1.469H187.3l-.117-1.287h-1.222Zm5.317,0h1.482V7.85h-1.482Zm.741-8.489a.887.887,0,1,0,0-1.768.886.886,0,1,0,0,1.768Zm5.967,8.658a4.338,4.338,0,0,0,2.418-.754l-.52-.949a3.036,3.036,0,0,1-1.7.533,2.159,2.159,0,0,1-2.21-2.184h4.641a3.864,3.864,0,0,0,.065-.754c0-2.028-1.014-3.393-2.912-3.393a3.472,3.472,0,0,0-3.263,3.77A3.435,3.435,0,0,0,197.99,15.169Zm-2.028-4.381a1.939,1.939,0,0,1,1.833-1.95c1.04,0,1.6.715,1.6,1.95Zm6.4,4.212h1.482V9.93a2.441,2.441,0,0,1,1.755-.975c.845,0,1.209.494,1.209,1.729V15h1.5V10.5c0-1.82-.676-2.834-2.2-2.834a3.407,3.407,0,0,0-2.366,1.17H203.7l-.117-.988h-1.222Zm10.582.169a3,3,0,0,0,2.08-.975h.039l.13.806h1.222V4.639h-1.5V7.291l.065,1.183a2.758,2.758,0,0,0-1.924-.806c-1.6,0-3.068,1.443-3.068,3.77C209.989,13.8,211.146,15.169,212.94,15.169Zm.351-1.235c-1.118,0-1.755-.9-1.755-2.522,0-1.547.806-2.5,1.807-2.5a2.242,2.242,0,0,1,1.573.65v3.5A2.1,2.1,0,0,1,213.291,13.934Zm6.851,1.235a2.4,2.4,0,0,0,.806-.117l-.2-1.131a1.038,1.038,0,0,1-.247.026c-.182,0-.364-.143-.364-.546V4.639H218.66v8.684C218.66,14.48,219.063,15.169,220.142,15.169Zm8.164-7.319H226.85l-1.144,3.679-.559,2.015h-.065c-.221-.663-.442-1.378-.65-2.015L223.106,7.85h-1.534l2.834,7.1-.143.494c-.26.767-.715,1.339-1.495,1.339a1.937,1.937,0,0,1-.52-.1l-.286,1.17a2.543,2.543,0,0,0,.9.143c1.508,0,2.262-1.027,2.821-2.561Zm7.137,7.319a3.484,3.484,0,0,0,2.314-.884l-.611-.988a2.449,2.449,0,0,1-1.56.65c-1.2,0-2.015-1-2.015-2.509s.858-2.535,2.054-2.535a1.873,1.873,0,0,1,1.287.559l.741-.975a3.07,3.07,0,0,0-2.093-.819,3.513,3.513,0,0,0-3.536,3.77C232.024,13.8,233.506,15.169,235.443,15.169Zm6.331,0a3.434,3.434,0,0,0,3.367-3.731,3.389,3.389,0,1,0-6.734,0A3.434,3.434,0,0,0,241.774,15.169Zm0-1.222c-1.118,0-1.82-1-1.82-2.509s.7-2.535,1.82-2.535,1.833,1.014,1.833,2.535S242.9,13.947,241.774,13.947ZM246.9,15h1.482V9.93a2.413,2.413,0,0,1,1.612-.975c.819,0,1.2.494,1.2,1.729V15h1.495V9.93a2.387,2.387,0,0,1,1.612-.975c.806,0,1.2.494,1.2,1.729V15h1.5V10.5c0-1.82-.7-2.834-2.2-2.834a3.294,3.294,0,0,0-2.327,1.313,1.909,1.909,0,0,0-1.976-1.313,3.115,3.115,0,0,0-2.21,1.183h-.039l-.117-1H246.9Zm12.246,2.9h1.482V15.585l-.039-1.222a2.949,2.949,0,0,0,1.885.806c1.612,0,3.081-1.4,3.081-3.861,0-2.2-1.014-3.64-2.834-3.64a3.625,3.625,0,0,0-2.2.962h-.039l-.117-.78h-1.222Zm3.042-3.965a2.423,2.423,0,0,1-1.56-.65v-3.5a2.512,2.512,0,0,1,1.7-.871c1.2,0,1.677.923,1.677,2.418C264,13.011,263.224,13.934,262.184,13.934Zm6.643,1.235a3.554,3.554,0,0,0,2.275-.988h.039l.13.819h1.222V10.7c0-1.9-.819-3.029-2.6-3.029a5.477,5.477,0,0,0-2.886.936l.559,1.014a3.932,3.932,0,0,1,2.067-.728c1.053,0,1.352.728,1.365,1.56-2.977.325-4.277,1.118-4.277,2.652A1.975,1.975,0,0,0,268.827,15.169Zm.455-1.183c-.637,0-1.118-.286-1.118-.988,0-.806.715-1.339,2.834-1.6v1.755A2.521,2.521,0,0,1,269.282,13.986ZM274.612,15h1.482V9.93a2.441,2.441,0,0,1,1.755-.975c.845,0,1.209.494,1.209,1.729V15h1.495V10.5c0-1.82-.676-2.834-2.2-2.834a3.407,3.407,0,0,0-2.366,1.17h-.039l-.117-.988h-1.222Zm8.112,0h1.482V7.85h-1.482Zm.741-8.489a.887.887,0,1,0,0-1.768.886.886,0,1,0,0,1.768Zm5.967,8.658a4.338,4.338,0,0,0,2.418-.754l-.52-.949a3.036,3.036,0,0,1-1.7.533,2.159,2.159,0,0,1-2.21-2.184h4.641a3.864,3.864,0,0,0,.065-.754c0-2.028-1.014-3.393-2.912-3.393a3.472,3.472,0,0,0-3.263,3.77A3.435,3.435,0,0,0,289.432,15.169ZM287.4,10.788a1.939,1.939,0,0,1,1.833-1.95c1.04,0,1.6.715,1.6,1.95Zm8.333,4.381c1.768,0,2.717-.975,2.717-2.171,0-1.352-1.105-1.794-2.106-2.171-.78-.286-1.521-.52-1.521-1.131,0-.494.364-.884,1.144-.884a2.676,2.676,0,0,1,1.6.624l.7-.923a3.764,3.764,0,0,0-2.327-.845c-1.573,0-2.535.9-2.535,2.093s1.092,1.716,2.041,2.08c.78.3,1.586.585,1.586,1.235,0,.546-.4.962-1.261.962a3.169,3.169,0,0,1-2.028-.819l-.7.962A4.4,4.4,0,0,0,295.737,15.169Zm-291.278,17c1.612,0,3.081-1.4,3.081-3.861,0-2.2-1.027-3.64-2.834-3.64a3.413,3.413,0,0,0-2.132.936l.039-1.222V21.639H1.131V32H2.3l.143-.741h.039A2.969,2.969,0,0,0,4.459,32.169Zm-.286-1.235a2.4,2.4,0,0,1-1.56-.65v-3.5a2.487,2.487,0,0,1,1.7-.871c1.2,0,1.677.923,1.677,2.418C5.993,30.011,5.213,30.934,4.173,30.934ZM15,24.85H13.546L12.4,28.529l-.559,2.015h-.065c-.221-.663-.442-1.378-.65-2.015L9.8,24.85H8.268l2.834,7.1-.143.494c-.26.767-.715,1.339-1.495,1.339a1.937,1.937,0,0,1-.52-.1l-.286,1.17a2.543,2.543,0,0,0,.9.143c1.508,0,2.262-1.027,2.821-2.561Zm7.2,7.319a4.338,4.338,0,0,0,2.418-.754l-.52-.949A3.036,3.036,0,0,1,22.4,31a2.159,2.159,0,0,1-2.21-2.184H24.83a3.864,3.864,0,0,0,.065-.754c0-2.028-1.014-3.393-2.912-3.393a3.472,3.472,0,0,0-3.263,3.77A3.435,3.435,0,0,0,22.2,32.169Zm-2.028-4.381a1.939,1.939,0,0,1,1.833-1.95c1.04,0,1.6.715,1.6,1.95ZM25.493,32h1.573l.832-1.508c.221-.442.442-.871.663-1.274h.065c.26.4.507.845.741,1.274L30.3,32h1.625l-2.3-3.562,2.145-3.588h-1.56l-.754,1.443c-.195.39-.4.793-.6,1.2h-.052c-.234-.4-.468-.806-.676-1.2l-.858-1.443H25.662l2.145,3.419Zm7.774,2.9h1.482V32.585l-.039-1.222a2.949,2.949,0,0,0,1.885.806c1.612,0,3.081-1.4,3.081-3.861,0-2.2-1.014-3.64-2.834-3.64a3.625,3.625,0,0,0-2.2.962h-.039l-.117-.78H33.267Zm3.042-3.965a2.423,2.423,0,0,1-1.56-.65v-3.5a2.512,2.512,0,0,1,1.7-.871c1.2,0,1.677.923,1.677,2.418C38.129,30.011,37.349,30.934,36.309,30.934Zm6.643,1.235a3.554,3.554,0,0,0,2.275-.988h.039L45.4,32h1.222V27.7c0-1.9-.819-3.029-2.6-3.029a5.477,5.477,0,0,0-2.886.936l.559,1.014a3.932,3.932,0,0,1,2.067-.728c1.053,0,1.352.728,1.365,1.56-2.977.325-4.277,1.118-4.277,2.652A1.975,1.975,0,0,0,42.952,32.169Zm.455-1.183c-.637,0-1.118-.286-1.118-.988,0-.806.715-1.339,2.834-1.6v1.755A2.521,2.521,0,0,1,43.407,30.986ZM48.737,32h1.482V26.93a2.441,2.441,0,0,1,1.755-.975c.845,0,1.209.494,1.209,1.729V32h1.5V27.5c0-1.82-.676-2.834-2.2-2.834a3.407,3.407,0,0,0-2.366,1.17h-.039l-.117-.988H48.737Zm10.582.169a3,3,0,0,0,2.08-.975h.039l.13.806H62.79V21.639h-1.5v2.652l.065,1.183a2.758,2.758,0,0,0-1.924-.806c-1.6,0-3.068,1.443-3.068,3.77C56.368,30.8,57.525,32.169,59.319,32.169Zm.351-1.235c-1.118,0-1.755-.9-1.755-2.522,0-1.547.806-2.5,1.807-2.5a2.242,2.242,0,0,1,1.573.65v3.5A2.1,2.1,0,0,1,59.67,30.934ZM65.039,32h1.482V24.85H65.039Zm.741-8.489a.887.887,0,1,0,0-1.768.886.886,0,1,0,0,1.768ZM68.77,32h1.482V26.93a2.441,2.441,0,0,1,1.755-.975c.845,0,1.209.494,1.209,1.729V32h1.495V27.5c0-1.82-.676-2.834-2.2-2.834a3.407,3.407,0,0,0-2.366,1.17h-.039l-.117-.988H68.77Zm10.556,3.211c2.288,0,3.744-1.118,3.744-2.5,0-1.222-.884-1.742-2.574-1.742H79.183c-.91,0-1.2-.273-1.2-.7a.948.948,0,0,1,.39-.754,2.485,2.485,0,0,0,1,.221,2.443,2.443,0,0,0,2.678-2.457,1.933,1.933,0,0,0-.468-1.313h1.365V24.85H80.418a2.982,2.982,0,0,0-1.04-.182,2.579,2.579,0,0,0-2.769,2.574,2.447,2.447,0,0,0,.936,1.9v.052a1.764,1.764,0,0,0-.793,1.326A1.315,1.315,0,0,0,77.4,31.7v.065a1.889,1.889,0,0,0-1.04,1.56C76.362,34.574,77.61,35.211,79.326,35.211Zm.052-6.435a1.394,1.394,0,0,1-1.352-1.534,1.361,1.361,0,1,1,2.7,0A1.394,1.394,0,0,1,79.378,28.776Zm.169,5.447c-1.183,0-1.911-.416-1.911-1.118a1.286,1.286,0,0,1,.611-1.04,4.545,4.545,0,0,0,.962.1h1.079c.871,0,1.339.182,1.339.78C81.627,33.612,80.795,34.223,79.547,34.223ZM87.321,32H88.8V27.541c.455-1.131,1.157-1.534,1.742-1.534a2.115,2.115,0,0,1,.715.117l.273-1.3a1.779,1.779,0,0,0-.806-.156A2.471,2.471,0,0,0,88.7,26.137H88.66l-.117-1.287H87.321Zm8.151.169a4.338,4.338,0,0,0,2.418-.754l-.52-.949a3.036,3.036,0,0,1-1.7.533,2.159,2.159,0,0,1-2.21-2.184H98.1a3.864,3.864,0,0,0,.065-.754c0-2.028-1.014-3.393-2.912-3.393a3.472,3.472,0,0,0-3.263,3.77A3.435,3.435,0,0,0,95.472,32.169Zm-2.028-4.381a1.939,1.939,0,0,1,1.833-1.95c1.04,0,1.6.715,1.6,1.95Zm10.127-6.071a3.246,3.246,0,0,0-1.261-.247c-1.6,0-2.262,1.014-2.262,2.483v.9l-.975.078v1.118h.975V32h1.5V26.046h1.443v-1.2h-1.443v-.91c0-.871.312-1.287.949-1.287a1.945,1.945,0,0,1,.78.182Zm2.808,10.452a3,3,0,0,0,2.34-1.248h.039L108.875,32H110.1V24.85h-1.5v4.966c-.6.754-1.053,1.066-1.716,1.066-.845,0-1.2-.481-1.2-1.716V24.85h-1.5v4.5C104.195,31.168,104.858,32.169,106.379,32.169ZM112.346,32h1.482V27.541c.455-1.131,1.157-1.534,1.742-1.534a2.115,2.115,0,0,1,.715.117l.273-1.3a1.779,1.779,0,0,0-.806-.156,2.471,2.471,0,0,0-2.028,1.469h-.039l-.117-1.287h-1.222Zm8.645.169c1.612,0,3.081-1.4,3.081-3.861,0-2.2-1.027-3.64-2.834-3.64a3.413,3.413,0,0,0-2.132.936l.039-1.222V21.639h-1.482V32h1.17l.143-.741h.039A2.969,2.969,0,0,0,120.991,32.169Zm-.286-1.235a2.4,2.4,0,0,1-1.56-.65v-3.5a2.487,2.487,0,0,1,1.7-.871c1.2,0,1.677.923,1.677,2.418C122.525,30.011,121.745,30.934,120.705,30.934ZM125.84,32h1.482V24.85H125.84Zm.741-8.489a.887.887,0,1,0,0-1.768.886.886,0,1,0,0,1.768Zm4.927,8.658c1.768,0,2.717-.975,2.717-2.171,0-1.352-1.105-1.794-2.106-2.171-.78-.286-1.521-.52-1.521-1.131,0-.494.364-.884,1.144-.884a2.676,2.676,0,0,1,1.6.624l.7-.923a3.764,3.764,0,0,0-2.327-.845c-1.573,0-2.535.9-2.535,2.093s1.092,1.716,2.041,2.08c.78.3,1.586.585,1.586,1.235,0,.546-.4.962-1.261.962a3.169,3.169,0,0,1-2.028-.819l-.7.962A4.4,4.4,0,0,0,131.508,32.169Zm4.3-.169h1.482V26.93a2.441,2.441,0,0,1,1.755-.975c.845,0,1.209.494,1.209,1.729V32h1.5V27.5c0-1.82-.676-2.834-2.2-2.834a3.327,3.327,0,0,0-2.314,1.131l.052-1.417V21.639h-1.482Zm11.05.169a4.338,4.338,0,0,0,2.418-.754l-.52-.949a3.036,3.036,0,0,1-1.7.533,2.159,2.159,0,0,1-2.21-2.184h4.641a3.864,3.864,0,0,0,.065-.754c0-2.028-1.014-3.393-2.912-3.393a3.472,3.472,0,0,0-3.263,3.77A3.435,3.435,0,0,0,146.861,32.169Zm-2.028-4.381a1.939,1.939,0,0,1,1.833-1.95c1.04,0,1.6.715,1.6,1.95Zm8.866,4.381a3,3,0,0,0,2.08-.975h.039l.13.806h1.222V21.639h-1.5v2.652l.065,1.183a2.758,2.758,0,0,0-1.924-.806c-1.6,0-3.068,1.443-3.068,3.77C150.748,30.8,151.905,32.169,153.7,32.169Zm.351-1.235c-1.118,0-1.755-.9-1.755-2.522,0-1.547.806-2.5,1.807-2.5a2.242,2.242,0,0,1,1.573.65v3.5A2.1,2.1,0,0,1,154.05,30.934Zm8.294,3.965h1.482V32.585l-.039-1.222a2.949,2.949,0,0,0,1.885.806c1.612,0,3.081-1.4,3.081-3.861,0-2.2-1.014-3.64-2.834-3.64a3.625,3.625,0,0,0-2.2.962h-.039l-.117-.78h-1.222Zm3.042-3.965a2.423,2.423,0,0,1-1.56-.65v-3.5a2.512,2.512,0,0,1,1.7-.871c1.2,0,1.677.923,1.677,2.418C167.206,30.011,166.426,30.934,165.386,30.934ZM170.534,32h1.482V27.541c.455-1.131,1.157-1.534,1.742-1.534a2.115,2.115,0,0,1,.715.117l.273-1.3a1.779,1.779,0,0,0-.806-.156,2.472,2.472,0,0,0-2.028,1.469h-.039l-.117-1.287h-1.222Zm8.034.169a3.434,3.434,0,0,0,3.367-3.731,3.389,3.389,0,1,0-6.734,0A3.434,3.434,0,0,0,178.568,32.169Zm0-1.222c-1.118,0-1.82-1-1.82-2.509s.7-2.535,1.82-2.535,1.833,1.014,1.833,2.535S179.7,30.947,178.568,30.947Zm7.592,1.222a3,3,0,0,0,2.08-.975h.039l.13.806h1.222V21.639h-1.5v2.652l.065,1.183a2.758,2.758,0,0,0-1.924-.806c-1.6,0-3.068,1.443-3.068,3.77C183.209,30.8,184.366,32.169,186.16,32.169Zm.351-1.235c-1.118,0-1.755-.9-1.755-2.522,0-1.547.806-2.5,1.807-2.5a2.242,2.242,0,0,1,1.573.65v3.5A2.1,2.1,0,0,1,186.511,30.934Zm7.462,1.235a3,3,0,0,0,2.34-1.248h.039L196.469,32h1.222V24.85H196.2v4.966c-.6.754-1.053,1.066-1.716,1.066-.845,0-1.2-.481-1.2-1.716V24.85h-1.5v4.5C191.789,31.168,192.452,32.169,193.973,32.169Zm8.879,0a3.484,3.484,0,0,0,2.314-.884l-.611-.988a2.449,2.449,0,0,1-1.56.65c-1.2,0-2.015-1-2.015-2.509s.858-2.535,2.054-2.535a1.873,1.873,0,0,1,1.287.559l.741-.975a3.07,3.07,0,0,0-2.093-.819,3.513,3.513,0,0,0-3.536,3.77C199.433,30.8,200.915,32.169,202.852,32.169Zm6.071,0a4.575,4.575,0,0,0,1.4-.26l-.273-1.1a2.132,2.132,0,0,1-.767.169c-.741,0-1.04-.442-1.04-1.3V26.046h1.859v-1.2h-1.859V22.874h-1.261l-.169,1.976-1.1.078v1.118h1.04V29.66C206.752,31.168,207.311,32.169,208.923,32.169Zm4.537,0c1.768,0,2.717-.975,2.717-2.171,0-1.352-1.105-1.794-2.106-2.171-.78-.286-1.521-.52-1.521-1.131,0-.494.364-.884,1.144-.884a2.676,2.676,0,0,1,1.6.624l.7-.923a3.764,3.764,0,0,0-2.327-.845c-1.573,0-2.535.9-2.535,2.093s1.092,1.716,2.041,2.08c.78.3,1.586.585,1.586,1.235,0,.546-.4.962-1.261.962a3.169,3.169,0,0,1-2.028-.819l-.7.962A4.4,4.4,0,0,0,213.46,32.169ZM.52,44.606h9.659a9.66,9.66,0,0,0-1.937,1.976l.949.533a14.355,14.355,0,0,1,3.354-3.055,14.355,14.355,0,0,1-3.354-3.055l-.949.533a9.66,9.66,0,0,0,1.937,1.976H.52ZM17.186,49h1.508V39.432H17.186Zm3.887,0h1.482V43.93a2.441,2.441,0,0,1,1.755-.975c.845,0,1.209.494,1.209,1.729V49h1.5V44.5c0-1.82-.676-2.834-2.2-2.834a3.407,3.407,0,0,0-2.366,1.17h-.039L22.3,41.85H21.073Zm10.582.169a3,3,0,0,0,2.08-.975h.039L33.9,49h1.222V38.639H33.631v2.652l.065,1.183a2.758,2.758,0,0,0-1.924-.806c-1.6,0-3.068,1.443-3.068,3.77C28.7,47.8,29.861,49.169,31.655,49.169Zm.351-1.235c-1.118,0-1.755-.9-1.755-2.522,0-1.547.806-2.5,1.807-2.5a2.242,2.242,0,0,1,1.573.65v3.5A2.1,2.1,0,0,1,32.006,47.934Zm7.462,1.235a3,3,0,0,0,2.34-1.248h.039L41.964,49h1.222V41.85h-1.5v4.966c-.6.754-1.053,1.066-1.716,1.066-.845,0-1.2-.481-1.2-1.716V41.85H37.284v4.5C37.284,48.168,37.947,49.169,39.468,49.169Zm8.879,0a3.484,3.484,0,0,0,2.314-.884L50.05,47.3a2.449,2.449,0,0,1-1.56.65c-1.2,0-2.015-1-2.015-2.509s.858-2.535,2.054-2.535a1.873,1.873,0,0,1,1.287.559l.741-.975a3.07,3.07,0,0,0-2.093-.819,3.513,3.513,0,0,0-3.536,3.77C44.928,47.8,46.41,49.169,48.347,49.169ZM52.156,49h1.482V41.85H52.156Zm.741-8.489a.887.887,0,1,0,0-1.768.886.886,0,1,0,0,1.768ZM55.887,49h1.482V43.93a2.441,2.441,0,0,1,1.755-.975c.845,0,1.209.494,1.209,1.729V49h1.5V44.5c0-1.82-.676-2.834-2.2-2.834a3.407,3.407,0,0,0-2.366,1.17h-.039l-.117-.988H55.887Zm10.556,3.211c2.288,0,3.744-1.118,3.744-2.5,0-1.222-.884-1.742-2.574-1.742H66.3c-.91,0-1.2-.273-1.2-.7a.948.948,0,0,1,.39-.754,2.485,2.485,0,0,0,1,.221,2.443,2.443,0,0,0,2.678-2.457,1.933,1.933,0,0,0-.468-1.313H70.07V41.85H67.535a2.982,2.982,0,0,0-1.04-.182,2.579,2.579,0,0,0-2.769,2.574,2.447,2.447,0,0,0,.936,1.9v.052a1.764,1.764,0,0,0-.793,1.326,1.315,1.315,0,0,0,.65,1.183v.065a1.889,1.889,0,0,0-1.04,1.56C63.479,51.574,64.727,52.211,66.443,52.211Zm.052-6.435a1.394,1.394,0,0,1-1.352-1.534,1.361,1.361,0,1,1,2.7,0A1.394,1.394,0,0,1,66.5,45.776Zm.169,5.447c-1.183,0-1.911-.416-1.911-1.118a1.286,1.286,0,0,1,.611-1.04,4.545,4.545,0,0,0,.962.1H67.4c.871,0,1.339.182,1.339.78C68.744,50.612,67.912,51.223,66.664,51.223ZM77.35,49.169a3.484,3.484,0,0,0,2.314-.884l-.611-.988a2.449,2.449,0,0,1-1.56.65c-1.2,0-2.015-1-2.015-2.509s.858-2.535,2.054-2.535a1.873,1.873,0,0,1,1.287.559l.741-.975a3.07,3.07,0,0,0-2.093-.819,3.513,3.513,0,0,0-3.536,3.77C73.931,47.8,75.413,49.169,77.35,49.169Zm5.9,0a3,3,0,0,0,2.34-1.248h.039L85.748,49H86.97V41.85h-1.5v4.966c-.6.754-1.053,1.066-1.716,1.066-.845,0-1.2-.481-1.2-1.716V41.85h-1.5v4.5C81.068,48.168,81.731,49.169,83.252,49.169Zm7.9,0c1.768,0,2.717-.975,2.717-2.171,0-1.352-1.105-1.794-2.106-2.171-.78-.286-1.521-.52-1.521-1.131,0-.494.364-.884,1.144-.884a2.676,2.676,0,0,1,1.6.624l.7-.923a3.764,3.764,0,0,0-2.327-.845c-1.573,0-2.535.9-2.535,2.093s1.092,1.716,2.041,2.08c.78.3,1.586.585,1.586,1.235,0,.546-.4.962-1.261.962a3.169,3.169,0,0,1-2.028-.819l-.7.962A4.4,4.4,0,0,0,91.156,49.169Zm6.422,0a4.575,4.575,0,0,0,1.4-.26l-.273-1.1a2.132,2.132,0,0,1-.767.169c-.741,0-1.04-.442-1.04-1.3V43.046h1.859v-1.2H96.9V39.874H95.641l-.169,1.976-1.105.078v1.118h1.04V46.66C95.407,48.168,95.966,49.169,97.578,49.169Zm5.382,0a3.434,3.434,0,0,0,3.367-3.731,3.389,3.389,0,1,0-6.734,0A3.434,3.434,0,0,0,102.96,49.169Zm0-1.222c-1.118,0-1.82-1-1.82-2.509s.7-2.535,1.82-2.535,1.833,1.014,1.833,2.535S104.091,47.947,102.96,47.947ZM108.082,49h1.482V43.93a2.413,2.413,0,0,1,1.612-.975c.819,0,1.2.494,1.2,1.729V49h1.5V43.93a2.387,2.387,0,0,1,1.612-.975c.806,0,1.2.494,1.2,1.729V49h1.5V44.5c0-1.82-.7-2.834-2.2-2.834a3.294,3.294,0,0,0-2.327,1.313,1.909,1.909,0,0,0-1.976-1.313,3.115,3.115,0,0,0-2.21,1.183h-.039l-.117-1h-1.222Zm15.223.169a4.338,4.338,0,0,0,2.418-.754l-.52-.949a3.036,3.036,0,0,1-1.7.533,2.159,2.159,0,0,1-2.21-2.184h4.641a3.864,3.864,0,0,0,.065-.754c0-2.028-1.014-3.393-2.912-3.393a3.472,3.472,0,0,0-3.263,3.77A3.435,3.435,0,0,0,123.305,49.169Zm-2.028-4.381a1.939,1.939,0,0,1,1.833-1.95c1.04,0,1.6.715,1.6,1.95Zm6.4,4.212h1.482V44.541c.455-1.131,1.157-1.534,1.742-1.534a2.115,2.115,0,0,1,.715.117l.273-1.3a1.779,1.779,0,0,0-.806-.156,2.472,2.472,0,0,0-2.028,1.469h-.039L128.9,41.85h-1.222Zm7.176.169c1.768,0,2.717-.975,2.717-2.171,0-1.352-1.105-1.794-2.106-2.171-.78-.286-1.521-.52-1.521-1.131,0-.494.364-.884,1.144-.884a2.676,2.676,0,0,1,1.6.624l.7-.923a3.764,3.764,0,0,0-2.327-.845c-1.573,0-2.535.9-2.535,2.093s1.092,1.716,2.041,2.08c.78.3,1.586.585,1.586,1.235,0,.546-.4.962-1.261.962a3.169,3.169,0,0,1-2.028-.819l-.7.962A4.4,4.4,0,0,0,134.849,49.169ZM143.234,49h1.729l.871-3.523c.182-.676.312-1.339.455-2.08h.065c.156.741.286,1.391.455,2.067l.91,3.536h1.794l1.846-7.15h-1.4l-.923,3.874c-.156.689-.273,1.352-.416,2.028h-.052c-.169-.676-.312-1.339-.481-2.028l-1.027-3.874h-1.391l-1,3.874c-.169.676-.312,1.352-.468,2.028h-.052c-.13-.676-.247-1.339-.39-2.028L142.8,41.85H141.3Zm9.607,0h1.482V41.85h-1.482Zm.741-8.489a.887.887,0,1,0,0-1.768.886.886,0,1,0,0,1.768Zm5.395,8.658a4.575,4.575,0,0,0,1.4-.26l-.273-1.1a2.132,2.132,0,0,1-.767.169c-.741,0-1.04-.442-1.04-1.3V43.046h1.859v-1.2H158.3V39.874H157.04l-.169,1.976-1.1.078v1.118h1.04V46.66C156.806,48.168,157.365,49.169,158.977,49.169ZM161.72,49H163.2V43.93a2.441,2.441,0,0,1,1.755-.975c.845,0,1.209.494,1.209,1.729V49h1.5V44.5c0-1.82-.676-2.834-2.2-2.834A3.327,3.327,0,0,0,163.15,42.8l.052-1.417V38.639H161.72ZM2.535,55.886A2.965,2.965,0,0,0,.819,58.642c0,.962.377,1.508,1.066,1.508a.857.857,0,0,0,.884-.923.839.839,0,0,0-.884-.858.533.533,0,0,0-.143.013,2.045,2.045,0,0,1,1.183-1.82Zm2.86,0a2.965,2.965,0,0,0-1.716,2.756c0,.962.377,1.508,1.053,1.508a.86.86,0,0,0,.9-.923.843.843,0,0,0-.9-.858.442.442,0,0,0-.13.013,2.045,2.045,0,0,1,1.183-1.82Zm4.94,10.283a3.484,3.484,0,0,0,2.314-.884l-.611-.988a2.449,2.449,0,0,1-1.56.65c-1.2,0-2.015-1-2.015-2.509S9.321,59.9,10.517,59.9a1.873,1.873,0,0,1,1.287.559l.741-.975a3.07,3.07,0,0,0-2.093-.819,3.513,3.513,0,0,0-3.536,3.77C6.916,64.8,8.4,66.169,10.335,66.169Zm6.331,0A3.772,3.772,0,1,0,13.3,62.438,3.434,3.434,0,0,0,16.666,66.169Zm0-1.222c-1.118,0-1.82-1-1.82-2.509s.7-2.535,1.82-2.535S18.5,60.917,18.5,62.438,17.8,64.947,16.666,64.947ZM21.788,66H23.27V60.93a2.441,2.441,0,0,1,1.755-.975c.845,0,1.209.494,1.209,1.729V66h1.5V61.5c0-1.82-.676-2.834-2.2-2.834a3.407,3.407,0,0,0-2.366,1.17h-.039l-.117-.988H21.788Zm10.049.169c1.768,0,2.717-.975,2.717-2.171,0-1.352-1.105-1.794-2.106-2.171-.78-.286-1.521-.52-1.521-1.131,0-.494.364-.884,1.144-.884a2.676,2.676,0,0,1,1.6.624l.7-.923a3.764,3.764,0,0,0-2.327-.845c-1.573,0-2.535.9-2.535,2.093s1.092,1.716,2.041,2.08c.78.3,1.586.585,1.586,1.235,0,.546-.4.962-1.261.962a3.169,3.169,0,0,1-2.028-.819l-.7.962A4.4,4.4,0,0,0,31.837,66.169Zm7.215,0a3.484,3.484,0,0,0,2.314-.884l-.611-.988a2.449,2.449,0,0,1-1.56.65c-1.2,0-2.015-1-2.015-2.509s.858-2.535,2.054-2.535a1.873,1.873,0,0,1,1.287.559l.741-.975a3.07,3.07,0,0,0-2.093-.819,3.513,3.513,0,0,0-3.536,3.77C35.633,64.8,37.115,66.169,39.052,66.169ZM42.861,66h1.482V58.85H42.861Zm.741-8.489a.887.887,0,1,0,0-1.768.886.886,0,1,0,0,1.768Zm5.85,8.658a3.772,3.772,0,1,0-3.367-3.731A3.434,3.434,0,0,0,49.452,66.169Zm0-1.222c-1.118,0-1.82-1-1.82-2.509s.7-2.535,1.82-2.535,1.833,1.014,1.833,2.535S50.583,64.947,49.452,64.947Zm7.215,1.222a3,3,0,0,0,2.34-1.248h.039L59.163,66h1.222V58.85h-1.5v4.966c-.6.754-1.053,1.066-1.716,1.066-.845,0-1.2-.481-1.2-1.716V58.85H54.483v4.5C54.483,65.168,55.146,66.169,56.667,66.169Zm7.9,0c1.768,0,2.717-.975,2.717-2.171,0-1.352-1.1-1.794-2.106-2.171-.78-.286-1.521-.52-1.521-1.131,0-.494.364-.884,1.144-.884a2.676,2.676,0,0,1,1.6.624l.7-.923a3.764,3.764,0,0,0-2.327-.845c-1.573,0-2.535.9-2.535,2.093s1.092,1.716,2.041,2.08c.78.3,1.586.585,1.586,1.235,0,.546-.4.962-1.261.962a3.169,3.169,0,0,1-2.028-.819l-.7.962A4.4,4.4,0,0,0,64.571,66.169Zm10.14,0a3.484,3.484,0,0,0,2.314-.884l-.611-.988a2.449,2.449,0,0,1-1.56.65c-1.2,0-2.015-1-2.015-2.509S73.7,59.9,74.893,59.9a1.873,1.873,0,0,1,1.287.559l.741-.975a3.07,3.07,0,0,0-2.093-.819,3.513,3.513,0,0,0-3.536,3.77C71.292,64.8,72.774,66.169,74.711,66.169Zm6.331,0a3.772,3.772,0,1,0-3.367-3.731A3.434,3.434,0,0,0,81.042,66.169Zm0-1.222c-1.118,0-1.82-1-1.82-2.509s.7-2.535,1.82-2.535,1.833,1.014,1.833,2.535S82.173,64.947,81.042,64.947ZM86.164,66h1.482V60.93a2.441,2.441,0,0,1,1.755-.975c.845,0,1.209.494,1.209,1.729V66H92.1V61.5c0-1.82-.676-2.834-2.2-2.834a3.407,3.407,0,0,0-2.366,1.17H87.5l-.117-.988H86.164Zm10.049.169c1.768,0,2.717-.975,2.717-2.171,0-1.352-1.1-1.794-2.106-2.171-.78-.286-1.521-.52-1.521-1.131,0-.494.364-.884,1.144-.884a2.676,2.676,0,0,1,1.6.624l.7-.923a3.764,3.764,0,0,0-2.327-.845c-1.573,0-2.535.9-2.535,2.093s1.092,1.716,2.041,2.08c.78.3,1.586.585,1.586,1.235,0,.546-.4.962-1.261.962a3.169,3.169,0,0,1-2.028-.819l-.7.962A4.4,4.4,0,0,0,96.213,66.169Zm6.4,0a3,3,0,0,0,2.34-1.248h.039L105.105,66h1.222V58.85h-1.5v4.966c-.6.754-1.053,1.066-1.716,1.066-.845,0-1.2-.481-1.2-1.716V58.85h-1.495v4.5C100.425,65.168,101.088,66.169,102.609,66.169ZM108.576,66h1.482V60.93a2.413,2.413,0,0,1,1.612-.975c.819,0,1.2.494,1.2,1.729V66h1.5V60.93a2.387,2.387,0,0,1,1.612-.975c.806,0,1.2.494,1.2,1.729V66h1.5V61.5c0-1.82-.7-2.834-2.2-2.834a3.294,3.294,0,0,0-2.327,1.313,1.909,1.909,0,0,0-1.976-1.313,3.115,3.115,0,0,0-2.21,1.183h-.039l-.117-1h-1.222Zm12.246,2.9H122.3V66.585l-.039-1.222a2.949,2.949,0,0,0,1.885.806c1.612,0,3.081-1.4,3.081-3.861,0-2.2-1.014-3.64-2.834-3.64a3.625,3.625,0,0,0-2.2.962h-.039l-.117-.78h-1.222Zm3.042-3.965a2.423,2.423,0,0,1-1.56-.65v-3.5a2.512,2.512,0,0,1,1.7-.871c1.2,0,1.677.923,1.677,2.418C125.684,64.011,124.9,64.934,123.864,64.934Zm7.254,1.235a4.575,4.575,0,0,0,1.4-.26l-.273-1.1a2.132,2.132,0,0,1-.767.169c-.741,0-1.04-.442-1.04-1.3V60.046H132.3v-1.2h-1.859V56.874h-1.261l-.169,1.976-1.1.078v1.118h1.04V63.66C128.947,65.168,129.506,66.169,131.118,66.169ZM133.861,66h1.482V58.85h-1.482Zm.741-8.489a.887.887,0,1,0,0-1.768.886.886,0,1,0,0,1.768Zm5.85,8.658a3.772,3.772,0,1,0-3.367-3.731A3.434,3.434,0,0,0,140.452,66.169Zm0-1.222c-1.118,0-1.82-1-1.82-2.509s.7-2.535,1.82-2.535,1.833,1.014,1.833,2.535S141.583,64.947,140.452,64.947ZM145.574,66h1.482V60.93a2.441,2.441,0,0,1,1.755-.975c.845,0,1.209.494,1.209,1.729V66h1.5V61.5c0-1.82-.676-2.834-2.2-2.834a3.407,3.407,0,0,0-2.366,1.17h-.039l-.117-.988h-1.222Zm8.918.169a1,1,0,0,0,1-1.04,1,1,0,1,0-2,0A1,1,0,0,0,154.492,66.169Zm1.56-6.11a2.969,2.969,0,0,0,1.729-2.756c0-.962-.39-1.508-1.066-1.508a.84.84,0,0,0-.871.923.826.826,0,0,0,.871.845.442.442,0,0,0,.13-.013,2.05,2.05,0,0,1-1.17,1.833Zm2.86,0a2.969,2.969,0,0,0,1.729-2.756c0-.962-.39-1.508-1.066-1.508a.85.85,0,0,0-.884.923.836.836,0,0,0,.884.845.442.442,0,0,0,.13-.013,2.05,2.05,0,0,1-1.17,1.833Z" transform="translate(73 22.955)"/>
  <path id="패스_9672" data-name="패스 9672" class="cls-7" d="M1.261,15h5.8V13.726H2.769V10.632h3.51V9.358H2.769V6.693H6.916V5.432H1.261Zm6.227,0H9.061l.832-1.508c.221-.442.442-.871.663-1.274h.065c.26.4.507.845.741,1.274L12.3,15h1.625l-2.3-3.562L13.767,7.85h-1.56l-.754,1.443c-.195.39-.4.793-.6,1.2H10.8c-.234-.4-.468-.806-.676-1.2L9.269,7.85H7.657L9.8,11.269Zm7.774,2.9h1.482V15.585L16.7,14.363a2.949,2.949,0,0,0,1.885.806c1.612,0,3.081-1.4,3.081-3.861,0-2.2-1.014-3.64-2.834-3.64a3.625,3.625,0,0,0-2.2.962H16.6l-.117-.78H15.262ZM18.3,13.934a2.423,2.423,0,0,1-1.56-.65v-3.5a2.512,2.512,0,0,1,1.7-.871c1.2,0,1.677.923,1.677,2.418C20.124,13.011,19.344,13.934,18.3,13.934Zm6.643,1.235a3.554,3.554,0,0,0,2.275-.988h.039l.13.819h1.222V10.7c0-1.9-.819-3.029-2.6-3.029a5.477,5.477,0,0,0-2.886.936l.559,1.014a3.932,3.932,0,0,1,2.067-.728c1.053,0,1.352.728,1.365,1.56-2.977.325-4.277,1.118-4.277,2.652A1.975,1.975,0,0,0,24.947,15.169Zm.455-1.183c-.637,0-1.118-.286-1.118-.988,0-.806.715-1.339,2.834-1.6v1.755A2.521,2.521,0,0,1,25.4,13.986ZM30.732,15h1.482V9.93a2.441,2.441,0,0,1,1.755-.975c.845,0,1.209.494,1.209,1.729V15h1.495V10.5c0-1.82-.676-2.834-2.2-2.834a3.407,3.407,0,0,0-2.366,1.17h-.039l-.117-.988H30.732Zm10.582.169a3,3,0,0,0,2.08-.975h.039l.13.806h1.222V4.639h-1.5V7.291l.065,1.183a2.758,2.758,0,0,0-1.924-.806c-1.6,0-3.068,1.443-3.068,3.77C38.363,13.8,39.52,15.169,41.314,15.169Zm.351-1.235c-1.118,0-1.755-.9-1.755-2.522,0-1.547.806-2.5,1.807-2.5a2.242,2.242,0,0,1,1.573.65v3.5A2.1,2.1,0,0,1,41.665,13.934ZM47.034,15h1.482V7.85H47.034Zm.741-8.489a.887.887,0,1,0,0-1.768.886.886,0,1,0,0,1.768ZM50.765,15h1.482V9.93A2.441,2.441,0,0,1,54,8.955c.845,0,1.209.494,1.209,1.729V15h1.5V10.5c0-1.82-.676-2.834-2.2-2.834a3.407,3.407,0,0,0-2.366,1.17H52.1l-.117-.988H50.765Zm10.556,3.211c2.288,0,3.744-1.118,3.744-2.5,0-1.222-.884-1.742-2.574-1.742H61.178c-.91,0-1.2-.273-1.2-.7a.948.948,0,0,1,.39-.754,2.485,2.485,0,0,0,1,.221,2.443,2.443,0,0,0,2.678-2.457,1.933,1.933,0,0,0-.468-1.313h1.365V7.85H62.413a2.982,2.982,0,0,0-1.04-.182A2.579,2.579,0,0,0,58.6,10.242a2.447,2.447,0,0,0,.936,1.9v.052a1.764,1.764,0,0,0-.793,1.326A1.315,1.315,0,0,0,59.4,14.7v.065a1.889,1.889,0,0,0-1.04,1.56C58.357,17.574,59.6,18.211,61.321,18.211Zm.052-6.435a1.394,1.394,0,0,1-1.352-1.534,1.361,1.361,0,1,1,2.7,0A1.394,1.394,0,0,1,61.373,11.776Zm.169,5.447c-1.183,0-1.911-.416-1.911-1.118a1.286,1.286,0,0,1,.611-1.04,4.545,4.545,0,0,0,.962.1h1.079c.871,0,1.339.182,1.339.78C63.622,16.612,62.79,17.223,61.542,17.223Zm7.774.676H70.8V15.585l-.039-1.222a2.949,2.949,0,0,0,1.885.806c1.612,0,3.081-1.4,3.081-3.861,0-2.2-1.014-3.64-2.834-3.64a3.625,3.625,0,0,0-2.2.962h-.039l-.117-.78H69.316Zm3.042-3.965a2.423,2.423,0,0,1-1.56-.65v-3.5a2.512,2.512,0,0,1,1.7-.871c1.2,0,1.677.923,1.677,2.418C74.178,13.011,73.4,13.934,72.358,13.934ZM77.506,15h1.482V10.541c.455-1.131,1.157-1.534,1.742-1.534a2.115,2.115,0,0,1,.715.117l.273-1.3a1.779,1.779,0,0,0-.806-.156,2.471,2.471,0,0,0-2.028,1.469h-.039L78.728,7.85H77.506Zm8.034.169a3.434,3.434,0,0,0,3.367-3.731,3.389,3.389,0,1,0-6.734,0A3.434,3.434,0,0,0,85.54,15.169Zm0-1.222c-1.118,0-1.82-1-1.82-2.509s.7-2.535,1.82-2.535,1.833,1.014,1.833,2.535S86.671,13.947,85.54,13.947Zm7.592,1.222a3,3,0,0,0,2.08-.975h.039l.13.806H96.6V4.639H95.108V7.291l.065,1.183a2.758,2.758,0,0,0-1.924-.806c-1.6,0-3.068,1.443-3.068,3.77C90.181,13.8,91.338,15.169,93.132,15.169Zm.351-1.235c-1.118,0-1.755-.9-1.755-2.522,0-1.547.806-2.5,1.807-2.5a2.242,2.242,0,0,1,1.573.65v3.5A2.1,2.1,0,0,1,93.483,13.934Zm7.462,1.235a3,3,0,0,0,2.34-1.248h.039L103.441,15h1.222V7.85h-1.5v4.966c-.6.754-1.053,1.066-1.716,1.066-.845,0-1.2-.481-1.2-1.716V7.85H98.761v4.5C98.761,14.168,99.424,15.169,100.945,15.169Zm8.879,0a3.484,3.484,0,0,0,2.314-.884l-.611-.988a2.449,2.449,0,0,1-1.56.65c-1.2,0-2.015-1-2.015-2.509S108.81,8.9,110.006,8.9a1.873,1.873,0,0,1,1.287.559l.741-.975a3.07,3.07,0,0,0-2.093-.819,3.513,3.513,0,0,0-3.536,3.77C106.4,13.8,107.887,15.169,109.824,15.169Zm6.071,0a4.575,4.575,0,0,0,1.4-.26l-.273-1.105a2.132,2.132,0,0,1-.767.169c-.741,0-1.04-.442-1.04-1.3V9.046h1.859V7.85h-1.859V5.874h-1.261l-.169,1.976-1.105.078V9.046h1.04V12.66C113.724,14.168,114.283,15.169,115.9,15.169ZM121.563,15h1.482V10.541c.455-1.131,1.157-1.534,1.742-1.534a2.115,2.115,0,0,1,.715.117l.273-1.3a1.779,1.779,0,0,0-.806-.156,2.471,2.471,0,0,0-2.028,1.469H122.9l-.117-1.287h-1.222Zm8.151.169a4.338,4.338,0,0,0,2.418-.754l-.52-.949a3.036,3.036,0,0,1-1.7.533,2.159,2.159,0,0,1-2.21-2.184h4.641a3.864,3.864,0,0,0,.065-.754c0-2.028-1.014-3.393-2.912-3.393a3.472,3.472,0,0,0-3.263,3.77A3.435,3.435,0,0,0,129.714,15.169Zm-2.028-4.381a1.939,1.939,0,0,1,1.833-1.95c1.04,0,1.6.715,1.6,1.95Zm8.489,4.381a3,3,0,0,0,2.34-1.248h.039L138.671,15h1.222V7.85H138.4v4.966c-.6.754-1.053,1.066-1.716,1.066-.845,0-1.2-.481-1.2-1.716V7.85h-1.5v4.5C133.991,14.168,134.654,15.169,136.175,15.169Zm7.9,0c1.768,0,2.717-.975,2.717-2.171,0-1.352-1.1-1.794-2.106-2.171-.78-.286-1.521-.52-1.521-1.131,0-.494.364-.884,1.144-.884a2.676,2.676,0,0,1,1.6.624l.7-.923a3.764,3.764,0,0,0-2.327-.845c-1.573,0-2.535.9-2.535,2.093s1.092,1.716,2.041,2.08c.78.3,1.586.585,1.586,1.235,0,.546-.4.962-1.261.962a3.169,3.169,0,0,1-2.028-.819l-.7.962A4.4,4.4,0,0,0,144.079,15.169Zm7.28,0a4.338,4.338,0,0,0,2.418-.754l-.52-.949a3.036,3.036,0,0,1-1.7.533,2.159,2.159,0,0,1-2.21-2.184h4.641a3.864,3.864,0,0,0,.065-.754c0-2.028-1.014-3.393-2.912-3.393a3.472,3.472,0,0,0-3.263,3.77A3.435,3.435,0,0,0,151.359,15.169Zm-2.028-4.381a1.939,1.939,0,0,1,1.833-1.95c1.04,0,1.6.715,1.6,1.95ZM158.652,15h1.482V10.541c.455-1.131,1.157-1.534,1.742-1.534a2.115,2.115,0,0,1,.715.117l.273-1.3a1.779,1.779,0,0,0-.806-.156,2.472,2.472,0,0,0-2.028,1.469h-.039l-.117-1.287h-1.222Zm6.643.169a3.554,3.554,0,0,0,2.275-.988h.039l.13.819h1.222V10.7c0-1.9-.819-3.029-2.6-3.029a5.476,5.476,0,0,0-2.886.936l.559,1.014A3.932,3.932,0,0,1,166.1,8.89c1.053,0,1.352.728,1.365,1.56-2.977.325-4.277,1.118-4.277,2.652A1.975,1.975,0,0,0,165.295,15.169Zm.455-1.183c-.637,0-1.118-.286-1.118-.988,0-.806.715-1.339,2.834-1.6v1.755A2.521,2.521,0,0,1,165.75,13.986Zm7.514,1.183a4.575,4.575,0,0,0,1.4-.26l-.273-1.105a2.132,2.132,0,0,1-.767.169c-.741,0-1.04-.442-1.04-1.3V9.046h1.859V7.85h-1.859V5.874h-1.261l-.169,1.976-1.1.078V9.046h1.04V12.66C171.093,14.168,171.652,15.169,173.264,15.169ZM176.007,15h1.482V9.93a2.441,2.441,0,0,1,1.755-.975c.845,0,1.209.494,1.209,1.729V15h1.5V10.5c0-1.82-.676-2.834-2.2-2.834A3.327,3.327,0,0,0,177.437,8.8l.052-1.417V4.639h-1.482Zm11.05.169a4.338,4.338,0,0,0,2.418-.754l-.52-.949a3.036,3.036,0,0,1-1.7.533,2.159,2.159,0,0,1-2.21-2.184h4.641a3.864,3.864,0,0,0,.065-.754c0-2.028-1.014-3.393-2.912-3.393a3.472,3.472,0,0,0-3.263,3.77A3.435,3.435,0,0,0,187.057,15.169Zm-2.028-4.381a1.939,1.939,0,0,1,1.833-1.95c1.04,0,1.6.715,1.6,1.95Zm6.4,4.212h1.482V10.541c.455-1.131,1.157-1.534,1.742-1.534a2.115,2.115,0,0,1,.715.117l.273-1.3a1.779,1.779,0,0,0-.806-.156A2.472,2.472,0,0,0,192.8,9.137h-.039l-.117-1.287h-1.222Zm10.647.169a4.575,4.575,0,0,0,1.4-.26L203.2,13.8a2.132,2.132,0,0,1-.767.169c-.741,0-1.04-.442-1.04-1.3V9.046h1.859V7.85H201.4V5.874h-1.261l-.169,1.976-1.1.078V9.046h1.04V12.66C199.9,14.168,200.46,15.169,202.072,15.169ZM204.815,15H206.3V9.93a2.441,2.441,0,0,1,1.755-.975c.845,0,1.209.494,1.209,1.729V15h1.5V10.5c0-1.82-.676-2.834-2.2-2.834A3.327,3.327,0,0,0,206.245,8.8l.052-1.417V4.639h-1.482Zm9.763.169a3.554,3.554,0,0,0,2.275-.988h.039l.13.819h1.222V10.7c0-1.9-.819-3.029-2.6-3.029a5.476,5.476,0,0,0-2.886.936l.559,1.014a3.932,3.932,0,0,1,2.067-.728c1.053,0,1.352.728,1.365,1.56-2.977.325-4.277,1.118-4.277,2.652A1.975,1.975,0,0,0,214.578,15.169Zm.455-1.183c-.637,0-1.118-.286-1.118-.988,0-.806.715-1.339,2.834-1.6v1.755A2.521,2.521,0,0,1,215.033,13.986ZM220.363,15h1.482V9.93a2.441,2.441,0,0,1,1.755-.975c.845,0,1.209.494,1.209,1.729V15h1.5V10.5c0-1.82-.676-2.834-2.2-2.834a3.407,3.407,0,0,0-2.366,1.17H221.7l-.117-.988h-1.222ZM3.068,32.169c1.768,0,2.717-.975,2.717-2.171,0-1.352-1.1-1.794-2.106-2.171-.78-.286-1.521-.52-1.521-1.131,0-.494.364-.884,1.144-.884a2.676,2.676,0,0,1,1.6.624l.7-.923a3.764,3.764,0,0,0-2.327-.845c-1.573,0-2.535.9-2.535,2.093s1.092,1.716,2.041,2.08c.78.3,1.586.585,1.586,1.235,0,.546-.4.962-1.261.962a3.169,3.169,0,0,1-2.028-.819l-.7.962A4.4,4.4,0,0,0,3.068,32.169ZM7.371,32H8.853V24.85H7.371Zm.741-8.489a.887.887,0,1,0,0-1.768.886.886,0,1,0,0,1.768ZM11.1,32h1.482V26.93a2.413,2.413,0,0,1,1.612-.975c.819,0,1.2.494,1.2,1.729V32h1.495V26.93a2.387,2.387,0,0,1,1.612-.975c.806,0,1.2.494,1.2,1.729V32H21.19V27.5c0-1.82-.7-2.834-2.2-2.834a3.294,3.294,0,0,0-2.327,1.313,1.909,1.909,0,0,0-1.976-1.313,3.115,3.115,0,0,0-2.21,1.183h-.039l-.117-1H11.1Zm12.246,2.9H24.83V32.585l-.039-1.222a2.949,2.949,0,0,0,1.885.806c1.612,0,3.081-1.4,3.081-3.861,0-2.2-1.014-3.64-2.834-3.64a3.625,3.625,0,0,0-2.2.962h-.039l-.117-.78H23.348Zm3.042-3.965a2.423,2.423,0,0,1-1.56-.65v-3.5a2.512,2.512,0,0,1,1.7-.871c1.2,0,1.677.923,1.677,2.418C28.21,30.011,27.43,30.934,26.39,30.934Zm6.63,1.235a2.4,2.4,0,0,0,.806-.117l-.195-1.131a1.038,1.038,0,0,1-.247.026c-.182,0-.364-.143-.364-.546V21.639H31.538v8.684C31.538,31.48,31.941,32.169,33.02,32.169Zm5.369,0a4.338,4.338,0,0,0,2.418-.754l-.52-.949a3.036,3.036,0,0,1-1.7.533,2.159,2.159,0,0,1-2.21-2.184h4.641a3.864,3.864,0,0,0,.065-.754c0-2.028-1.014-3.393-2.912-3.393a3.472,3.472,0,0,0-3.263,3.77A3.435,3.435,0,0,0,38.389,32.169Zm-2.028-4.381a1.939,1.939,0,0,1,1.833-1.95c1.04,0,1.6.715,1.6,1.95Zm11.791,4.381a3,3,0,0,0,2.08-.975h.039L50.4,32h1.222V21.639h-1.5v2.652l.065,1.183a2.758,2.758,0,0,0-1.924-.806c-1.6,0-3.068,1.443-3.068,3.77C45.2,30.8,46.358,32.169,48.152,32.169Zm.351-1.235c-1.118,0-1.755-.9-1.755-2.522,0-1.547.806-2.5,1.807-2.5a2.242,2.242,0,0,1,1.573.65v3.5A2.1,2.1,0,0,1,48.5,30.934ZM53.872,32h1.482V24.85H53.872Zm.741-8.489a.887.887,0,1,0,0-1.768.886.886,0,1,0,0,1.768Zm4.927,8.658c1.768,0,2.717-.975,2.717-2.171,0-1.352-1.1-1.794-2.106-2.171-.78-.286-1.521-.52-1.521-1.131,0-.494.364-.884,1.144-.884a2.676,2.676,0,0,1,1.6.624l.7-.923a3.764,3.764,0,0,0-2.327-.845c-1.573,0-2.535.9-2.535,2.093s1.092,1.716,2.041,2.08c.78.3,1.586.585,1.586,1.235,0,.546-.4.962-1.261.962a3.169,3.169,0,0,1-2.028-.819l-.7.962A4.4,4.4,0,0,0,59.54,32.169Zm4.3,2.73h1.482V32.585l-.039-1.222a2.949,2.949,0,0,0,1.885.806c1.612,0,3.081-1.4,3.081-3.861,0-2.2-1.014-3.64-2.834-3.64a3.625,3.625,0,0,0-2.2.962h-.039l-.117-.78H63.843Zm3.042-3.965a2.423,2.423,0,0,1-1.56-.65v-3.5a2.512,2.512,0,0,1,1.7-.871c1.2,0,1.677.923,1.677,2.418C68.705,30.011,67.925,30.934,66.885,30.934Zm8.008,1.235a3.434,3.434,0,0,0,3.367-3.731,3.389,3.389,0,1,0-6.734,0A3.434,3.434,0,0,0,74.893,32.169Zm0-1.222c-1.118,0-1.82-1-1.82-2.509s.7-2.535,1.82-2.535,1.833,1.014,1.833,2.535S76.024,30.947,74.893,30.947Zm7.02,1.222c1.768,0,2.717-.975,2.717-2.171,0-1.352-1.105-1.794-2.106-2.171C81.744,27.541,81,27.307,81,26.7c0-.494.364-.884,1.144-.884a2.676,2.676,0,0,1,1.6.624l.7-.923a3.764,3.764,0,0,0-2.327-.845c-1.573,0-2.535.9-2.535,2.093s1.092,1.716,2.041,2.08c.78.3,1.586.585,1.586,1.235,0,.546-.4.962-1.261.962a3.169,3.169,0,0,1-2.028-.819l-.7.962A4.4,4.4,0,0,0,81.913,32.169Zm5.993,0a3.554,3.554,0,0,0,2.275-.988h.039l.13.819h1.222V27.7c0-1.9-.819-3.029-2.6-3.029a5.477,5.477,0,0,0-2.886.936l.559,1.014a3.932,3.932,0,0,1,2.067-.728c1.053,0,1.352.728,1.365,1.56C87.1,27.775,85.8,28.568,85.8,30.1A1.975,1.975,0,0,0,87.906,32.169Zm.455-1.183c-.637,0-1.118-.286-1.118-.988,0-.806.715-1.339,2.834-1.6v1.755A2.521,2.521,0,0,1,88.361,30.986Zm6.812,1.183a2.4,2.4,0,0,0,.806-.117l-.195-1.131a1.038,1.038,0,0,1-.247.026c-.182,0-.364-.143-.364-.546V21.639H93.691v8.684C93.691,31.48,94.094,32.169,95.173,32.169Z" transform="translate(73 148.955)"/>
  <path id="패스_9673" data-name="패스 9673" class="cls-7" d="M1.261,15H2.769V11.373H4.212c2.08,0,3.6-.962,3.6-3.055,0-2.158-1.521-2.886-3.653-2.886h-2.9Zm1.508-4.836V6.641H4.017c1.521,0,2.314.416,2.314,1.677S5.6,10.164,4.069,10.164ZM9.542,15h1.482V10.541c.455-1.131,1.157-1.534,1.742-1.534a2.115,2.115,0,0,1,.715.117l.273-1.3a1.779,1.779,0,0,0-.806-.156A2.472,2.472,0,0,0,10.92,9.137h-.039L10.764,7.85H9.542Zm8.034.169a3.434,3.434,0,0,0,3.367-3.731,3.389,3.389,0,1,0-6.734,0A3.434,3.434,0,0,0,17.576,15.169Zm0-1.222c-1.118,0-1.82-1-1.82-2.509s.7-2.535,1.82-2.535,1.833,1.014,1.833,2.535S18.707,13.947,17.576,13.947ZM24.193,15h1.729l2.47-7.15H26.936L25.714,11.7c-.195.7-.416,1.43-.624,2.132h-.052c-.208-.7-.429-1.43-.624-2.132L23.192,7.85H21.658ZM29.7,15h1.482V7.85H29.7Zm.741-8.489a.887.887,0,1,0,0-1.768.886.886,0,1,0,0,1.768Zm5.46,8.658a3,3,0,0,0,2.08-.975h.039l.13.806h1.222V4.639H37.882V7.291l.065,1.183a2.758,2.758,0,0,0-1.924-.806c-1.6,0-3.068,1.443-3.068,3.77C32.955,13.8,34.112,15.169,35.906,15.169Zm.351-1.235c-1.118,0-1.755-.9-1.755-2.522,0-1.547.806-2.5,1.807-2.5a2.242,2.242,0,0,1,1.573.65v3.5A2.1,2.1,0,0,1,36.257,13.934ZM41.626,15h1.482V7.85H41.626Zm.741-8.489a.887.887,0,1,0,0-1.768.886.886,0,1,0,0,1.768ZM45.357,15h1.482V9.93a2.441,2.441,0,0,1,1.755-.975c.845,0,1.209.494,1.209,1.729V15h1.5V10.5c0-1.82-.676-2.834-2.2-2.834a3.407,3.407,0,0,0-2.366,1.17H46.7l-.117-.988H45.357Zm10.556,3.211c2.288,0,3.744-1.118,3.744-2.5,0-1.222-.884-1.742-2.574-1.742H55.77c-.91,0-1.2-.273-1.2-.7a.948.948,0,0,1,.39-.754,2.485,2.485,0,0,0,1,.221,2.443,2.443,0,0,0,2.678-2.457,1.933,1.933,0,0,0-.468-1.313H59.54V7.85H57.005a2.982,2.982,0,0,0-1.04-.182A2.579,2.579,0,0,0,53.2,10.242a2.447,2.447,0,0,0,.936,1.9v.052a1.764,1.764,0,0,0-.793,1.326,1.315,1.315,0,0,0,.65,1.183v.065a1.889,1.889,0,0,0-1.04,1.56C52.949,17.574,54.2,18.211,55.913,18.211Zm.052-6.435a1.394,1.394,0,0,1-1.352-1.534,1.361,1.361,0,1,1,2.7,0A1.394,1.394,0,0,1,55.965,11.776Zm.169,5.447c-1.183,0-1.911-.416-1.911-1.118a1.286,1.286,0,0,1,.611-1.04,4.545,4.545,0,0,0,.962.1h1.079c.871,0,1.339.182,1.339.78C58.214,16.612,57.382,17.223,56.134,17.223Zm10.751-2.054a4.338,4.338,0,0,0,2.418-.754l-.52-.949a3.036,3.036,0,0,1-1.7.533,2.159,2.159,0,0,1-2.21-2.184h4.641a3.864,3.864,0,0,0,.065-.754c0-2.028-1.014-3.393-2.912-3.393a3.472,3.472,0,0,0-3.263,3.77A3.435,3.435,0,0,0,66.885,15.169Zm-2.028-4.381a1.939,1.939,0,0,1,1.833-1.95c1.04,0,1.6.715,1.6,1.95ZM71.253,15h1.482V9.93a2.441,2.441,0,0,1,1.755-.975c.845,0,1.209.494,1.209,1.729V15h1.495V10.5c0-1.82-.676-2.834-2.2-2.834a3.407,3.407,0,0,0-2.366,1.17h-.039l-.117-.988H71.253Zm9.685,0h1.729l2.47-7.15H83.681L82.459,11.7c-.195.7-.416,1.43-.624,2.132h-.052c-.208-.7-.429-1.43-.624-2.132L79.937,7.85H78.4Zm5.512,0h1.482V7.85H86.45Zm.741-8.489a.887.887,0,1,0,0-1.768.886.886,0,1,0,0,1.768ZM90.181,15h1.482V10.541c.455-1.131,1.157-1.534,1.742-1.534a2.115,2.115,0,0,1,.715.117l.273-1.3a1.779,1.779,0,0,0-.806-.156,2.471,2.471,0,0,0-2.028,1.469H91.52L91.4,7.85H90.181Zm8.034.169a3.434,3.434,0,0,0,3.367-3.731,3.389,3.389,0,1,0-6.734,0A3.434,3.434,0,0,0,98.215,15.169Zm0-1.222c-1.118,0-1.82-1-1.82-2.509S97.1,8.9,98.215,8.9s1.833,1.014,1.833,2.535S99.346,13.947,98.215,13.947ZM103.337,15h1.482V9.93a2.441,2.441,0,0,1,1.755-.975c.845,0,1.209.494,1.209,1.729V15h1.495V10.5c0-1.82-.676-2.834-2.2-2.834a3.407,3.407,0,0,0-2.366,1.17h-.039l-.117-.988h-1.222Zm8.112,0h1.482V9.93a2.413,2.413,0,0,1,1.612-.975c.819,0,1.2.494,1.2,1.729V15h1.5V9.93a2.387,2.387,0,0,1,1.612-.975c.806,0,1.2.494,1.2,1.729V15h1.5V10.5c0-1.82-.7-2.834-2.2-2.834a3.294,3.294,0,0,0-2.327,1.313,1.909,1.909,0,0,0-1.976-1.313,3.115,3.115,0,0,0-2.21,1.183h-.039l-.117-1h-1.222Zm15.223.169a4.338,4.338,0,0,0,2.418-.754l-.52-.949a3.036,3.036,0,0,1-1.7.533,2.159,2.159,0,0,1-2.21-2.184H129.3a3.864,3.864,0,0,0,.065-.754c0-2.028-1.014-3.393-2.912-3.393a3.472,3.472,0,0,0-3.263,3.77A3.435,3.435,0,0,0,126.672,15.169Zm-2.028-4.381a1.939,1.939,0,0,1,1.833-1.95c1.04,0,1.6.715,1.6,1.95ZM131.04,15h1.482V9.93a2.441,2.441,0,0,1,1.755-.975c.845,0,1.209.494,1.209,1.729V15h1.5V10.5c0-1.82-.676-2.834-2.2-2.834a3.407,3.407,0,0,0-2.366,1.17h-.039l-.117-.988H131.04Zm10.517.169a4.575,4.575,0,0,0,1.4-.26l-.273-1.105a2.132,2.132,0,0,1-.767.169c-.741,0-1.04-.442-1.04-1.3V9.046h1.859V7.85h-1.859V5.874H139.62l-.169,1.976-1.1.078V9.046h1.04V12.66C139.386,14.168,139.945,15.169,141.557,15.169Zm4.121,0a3.554,3.554,0,0,0,2.275-.988h.039l.13.819h1.222V10.7c0-1.9-.819-3.029-2.6-3.029a5.476,5.476,0,0,0-2.886.936l.559,1.014a3.932,3.932,0,0,1,2.067-.728c1.053,0,1.352.728,1.365,1.56-2.977.325-4.277,1.118-4.277,2.652A1.975,1.975,0,0,0,145.678,15.169Zm.455-1.183c-.637,0-1.118-.286-1.118-.988,0-.806.715-1.339,2.834-1.6v1.755A2.521,2.521,0,0,1,146.133,13.986Zm6.812,1.183a2.4,2.4,0,0,0,.806-.117l-.2-1.131a1.038,1.038,0,0,1-.247.026c-.182,0-.364-.143-.364-.546V4.639h-1.482v8.684C151.463,14.48,151.866,15.169,152.945,15.169Zm5.317,2.73h1.482V15.585l-.039-1.222a2.949,2.949,0,0,0,1.885.806c1.612,0,3.081-1.4,3.081-3.861,0-2.2-1.014-3.64-2.834-3.64a3.625,3.625,0,0,0-2.2.962H159.6l-.117-.78h-1.222Zm3.042-3.965a2.423,2.423,0,0,1-1.56-.65v-3.5a2.512,2.512,0,0,1,1.7-.871c1.2,0,1.677.923,1.677,2.418C163.124,13.011,162.344,13.934,161.3,13.934ZM166.452,15h1.482V10.541c.455-1.131,1.157-1.534,1.742-1.534a2.115,2.115,0,0,1,.715.117l.273-1.3a1.779,1.779,0,0,0-.806-.156,2.472,2.472,0,0,0-2.028,1.469h-.039l-.117-1.287h-1.222Zm8.034.169a3.434,3.434,0,0,0,3.367-3.731,3.389,3.389,0,1,0-6.734,0A3.434,3.434,0,0,0,174.486,15.169Zm0-1.222c-1.118,0-1.82-1-1.82-2.509s.7-2.535,1.82-2.535,1.833,1.014,1.833,2.535S175.617,13.947,174.486,13.947Zm7.228,1.222a4.575,4.575,0,0,0,1.4-.26l-.273-1.105a2.132,2.132,0,0,1-.767.169c-.741,0-1.04-.442-1.04-1.3V9.046H182.9V7.85h-1.859V5.874h-1.261l-.169,1.976-1.1.078V9.046h1.04V12.66C179.543,14.168,180.1,15.169,181.714,15.169Zm5.5,0a4.338,4.338,0,0,0,2.418-.754l-.52-.949a3.036,3.036,0,0,1-1.7.533,2.159,2.159,0,0,1-2.21-2.184h4.641a3.864,3.864,0,0,0,.065-.754c0-2.028-1.014-3.393-2.912-3.393a3.472,3.472,0,0,0-3.263,3.77A3.435,3.435,0,0,0,187.213,15.169Zm-2.028-4.381a1.939,1.939,0,0,1,1.833-1.95c1.04,0,1.6.715,1.6,1.95Zm9.308,4.381a3.484,3.484,0,0,0,2.314-.884L196.2,13.3a2.449,2.449,0,0,1-1.56.65c-1.2,0-2.015-1-2.015-2.509s.858-2.535,2.054-2.535a1.873,1.873,0,0,1,1.287.559l.741-.975a3.07,3.07,0,0,0-2.093-.819,3.513,3.513,0,0,0-3.536,3.77C191.074,13.8,192.556,15.169,194.493,15.169Zm6.071,0a4.575,4.575,0,0,0,1.4-.26L201.7,13.8a2.132,2.132,0,0,1-.767.169c-.741,0-1.04-.442-1.04-1.3V9.046h1.859V7.85h-1.859V5.874h-1.261l-.169,1.976-1.1.078V9.046h1.04V12.66C198.393,14.168,198.952,15.169,200.564,15.169ZM203.307,15h1.482V7.85h-1.482Zm.741-8.489a.887.887,0,1,0,0-1.768.886.886,0,1,0,0,1.768Zm5.85,8.658a3.434,3.434,0,0,0,3.367-3.731,3.389,3.389,0,1,0-6.734,0A3.434,3.434,0,0,0,209.9,15.169Zm0-1.222c-1.118,0-1.82-1-1.82-2.509s.7-2.535,1.82-2.535,1.833,1.014,1.833,2.535S211.029,13.947,209.9,13.947ZM215.02,15H216.5V9.93a2.441,2.441,0,0,1,1.755-.975c.845,0,1.209.494,1.209,1.729V15h1.5V10.5c0-1.82-.676-2.834-2.2-2.834a3.407,3.407,0,0,0-2.366,1.17h-.039l-.117-.988H215.02Zm12.727.169a3.554,3.554,0,0,0,2.275-.988h.039l.13.819h1.222V10.7c0-1.9-.819-3.029-2.6-3.029a5.476,5.476,0,0,0-2.886.936l.559,1.014a3.932,3.932,0,0,1,2.067-.728c1.053,0,1.352.728,1.365,1.56-2.977.325-4.277,1.118-4.277,2.652A1.975,1.975,0,0,0,227.747,15.169Zm.455-1.183c-.637,0-1.118-.286-1.118-.988,0-.806.715-1.339,2.834-1.6v1.755A2.521,2.521,0,0,1,228.2,13.986ZM233.532,15h1.482V9.93a2.441,2.441,0,0,1,1.755-.975c.845,0,1.209.494,1.209,1.729V15h1.5V10.5c0-1.82-.676-2.834-2.2-2.834a3.407,3.407,0,0,0-2.366,1.17h-.039l-.117-.988h-1.222Zm10.582.169a3,3,0,0,0,2.08-.975h.039l.13.806h1.222V4.639h-1.5V7.291l.065,1.183a2.758,2.758,0,0,0-1.924-.806c-1.6,0-3.068,1.443-3.068,3.77C241.163,13.8,242.32,15.169,244.114,15.169Zm.351-1.235c-1.118,0-1.755-.9-1.755-2.522,0-1.547.806-2.5,1.807-2.5a2.242,2.242,0,0,1,1.573.65v3.5A2.1,2.1,0,0,1,244.465,13.934ZM4.108,32.169a4.338,4.338,0,0,0,2.418-.754l-.52-.949A3.036,3.036,0,0,1,4.3,31a2.159,2.159,0,0,1-2.21-2.184H6.734a3.864,3.864,0,0,0,.065-.754c0-2.028-1.014-3.393-2.912-3.393a3.472,3.472,0,0,0-3.263,3.77A3.435,3.435,0,0,0,4.108,32.169ZM2.08,27.788a1.939,1.939,0,0,1,1.833-1.95c1.04,0,1.6.715,1.6,1.95ZM8.476,32H9.958V26.93a2.441,2.441,0,0,1,1.755-.975c.845,0,1.209.494,1.209,1.729V32h1.5V27.5c0-1.82-.676-2.834-2.2-2.834a3.407,3.407,0,0,0-2.366,1.17H9.815L9.7,24.85H8.476Zm9.685,0H19.89l2.47-7.15H20.9L19.682,28.7c-.195.7-.416,1.43-.624,2.132h-.052c-.208-.7-.429-1.43-.624-2.132L17.16,24.85H15.626Zm5.512,0h1.482V24.85H23.673Zm.741-8.489a.887.887,0,1,0,0-1.768.886.886,0,1,0,0,1.768ZM27.4,32h1.482V27.541c.455-1.131,1.157-1.534,1.742-1.534a2.115,2.115,0,0,1,.715.117l.273-1.3a1.779,1.779,0,0,0-.806-.156,2.472,2.472,0,0,0-2.028,1.469h-.039l-.117-1.287H27.4Zm8.034.169a3.434,3.434,0,0,0,3.367-3.731,3.389,3.389,0,1,0-6.734,0A3.434,3.434,0,0,0,35.438,32.169Zm0-1.222c-1.118,0-1.82-1-1.82-2.509s.7-2.535,1.82-2.535,1.833,1.014,1.833,2.535S36.569,30.947,35.438,30.947ZM40.56,32h1.482V26.93a2.441,2.441,0,0,1,1.755-.975c.845,0,1.209.494,1.209,1.729V32H46.5V27.5c0-1.82-.676-2.834-2.2-2.834a3.407,3.407,0,0,0-2.366,1.17H41.9l-.117-.988H40.56Zm8.112,0h1.482V26.93a2.413,2.413,0,0,1,1.612-.975c.819,0,1.2.494,1.2,1.729V32h1.495V26.93a2.387,2.387,0,0,1,1.612-.975c.806,0,1.2.494,1.2,1.729V32h1.5V27.5c0-1.82-.7-2.834-2.2-2.834a3.294,3.294,0,0,0-2.327,1.313,1.909,1.909,0,0,0-1.976-1.313,3.115,3.115,0,0,0-2.21,1.183h-.039l-.117-1H48.672Zm15.223.169a4.338,4.338,0,0,0,2.418-.754l-.52-.949a3.036,3.036,0,0,1-1.7.533,2.159,2.159,0,0,1-2.21-2.184h4.641a3.864,3.864,0,0,0,.065-.754c0-2.028-1.014-3.393-2.912-3.393a3.472,3.472,0,0,0-3.263,3.77A3.435,3.435,0,0,0,63.9,32.169Zm-2.028-4.381a1.939,1.939,0,0,1,1.833-1.95c1.04,0,1.6.715,1.6,1.95ZM68.263,32h1.482V26.93a2.441,2.441,0,0,1,1.755-.975c.845,0,1.209.494,1.209,1.729V32h1.5V27.5c0-1.82-.676-2.834-2.2-2.834a3.407,3.407,0,0,0-2.366,1.17H69.6l-.117-.988H68.263Zm10.517.169a4.575,4.575,0,0,0,1.4-.26l-.273-1.1a2.132,2.132,0,0,1-.767.169c-.741,0-1.04-.442-1.04-1.3V26.046h1.859v-1.2H78.1V22.874H76.843l-.169,1.976-1.105.078v1.118h1.04V29.66C76.609,31.168,77.168,32.169,78.78,32.169Zm4.121,0a3.554,3.554,0,0,0,2.275-.988h.039l.13.819h1.222V27.7c0-1.9-.819-3.029-2.6-3.029a5.477,5.477,0,0,0-2.886.936l.559,1.014a3.932,3.932,0,0,1,2.067-.728c1.053,0,1.352.728,1.365,1.56-2.977.325-4.277,1.118-4.277,2.652A1.975,1.975,0,0,0,82.9,32.169Zm.455-1.183c-.637,0-1.118-.286-1.118-.988,0-.806.715-1.339,2.834-1.6v1.755A2.521,2.521,0,0,1,83.356,30.986Zm6.812,1.183a2.4,2.4,0,0,0,.806-.117l-.195-1.131a1.038,1.038,0,0,1-.247.026c-.182,0-.364-.143-.364-.546V21.639H88.686v8.684C88.686,31.48,89.089,32.169,90.168,32.169ZM97.058,32h1.729l2.47-7.15H99.8L98.579,28.7c-.195.7-.416,1.43-.624,2.132H97.9c-.208-.7-.429-1.43-.624-2.132L96.057,24.85H94.523Zm6.916.169a3.554,3.554,0,0,0,2.275-.988h.039l.13.819h1.222V27.7c0-1.9-.819-3.029-2.6-3.029a5.477,5.477,0,0,0-2.886.936l.559,1.014a3.932,3.932,0,0,1,2.067-.728c1.053,0,1.352.728,1.365,1.56-2.977.325-4.277,1.118-4.277,2.652A1.975,1.975,0,0,0,103.974,32.169Zm.455-1.183c-.637,0-1.118-.286-1.118-.988,0-.806.715-1.339,2.834-1.6v1.755A2.521,2.521,0,0,1,104.429,30.986Zm6.812,1.183a2.4,2.4,0,0,0,.806-.117l-.195-1.131a1.038,1.038,0,0,1-.247.026c-.182,0-.364-.143-.364-.546V21.639h-1.482v8.684C109.759,31.48,110.162,32.169,111.241,32.169Zm4.485,0a3,3,0,0,0,2.34-1.248h.039L118.222,32h1.222V24.85h-1.5v4.966c-.6.754-1.053,1.066-1.716,1.066-.845,0-1.2-.481-1.2-1.716V24.85h-1.5v4.5C113.542,31.168,114.205,32.169,115.726,32.169Zm8.944,0a4.338,4.338,0,0,0,2.418-.754l-.52-.949a3.036,3.036,0,0,1-1.7.533,2.159,2.159,0,0,1-2.21-2.184H127.3a3.864,3.864,0,0,0,.065-.754c0-2.028-1.014-3.393-2.912-3.393a3.472,3.472,0,0,0-3.263,3.77A3.435,3.435,0,0,0,124.67,32.169Zm-2.028-4.381a1.939,1.939,0,0,1,1.833-1.95c1.04,0,1.6.715,1.6,1.95Zm11.011,4.381a3.554,3.554,0,0,0,2.275-.988h.039l.13.819h1.222V27.7c0-1.9-.819-3.029-2.6-3.029a5.476,5.476,0,0,0-2.886.936l.559,1.014a3.932,3.932,0,0,1,2.067-.728c1.053,0,1.352.728,1.365,1.56-2.977.325-4.277,1.118-4.277,2.652A1.975,1.975,0,0,0,133.653,32.169Zm.455-1.183c-.637,0-1.118-.286-1.118-.988,0-.806.715-1.339,2.834-1.6v1.755A2.521,2.521,0,0,1,134.108,30.986ZM139.438,32h1.482V26.93a2.441,2.441,0,0,1,1.755-.975c.845,0,1.209.494,1.209,1.729V32h1.5V27.5c0-1.82-.676-2.834-2.2-2.834a3.407,3.407,0,0,0-2.366,1.17h-.039l-.117-.988h-1.222Zm10.582.169a3,3,0,0,0,2.08-.975h.039l.13.806h1.222V21.639H152v2.652l.065,1.183a2.758,2.758,0,0,0-1.924-.806c-1.6,0-3.068,1.443-3.068,3.77C147.069,30.8,148.226,32.169,150.02,32.169Zm.351-1.235c-1.118,0-1.755-.9-1.755-2.522,0-1.547.806-2.5,1.807-2.5a2.242,2.242,0,0,1,1.573.65v3.5A2.1,2.1,0,0,1,150.371,30.934Zm11.206,1.235a3.484,3.484,0,0,0,2.314-.884l-.611-.988a2.449,2.449,0,0,1-1.56.65c-1.2,0-2.015-1-2.015-2.509s.858-2.535,2.054-2.535a1.873,1.873,0,0,1,1.287.559l.741-.975a3.07,3.07,0,0,0-2.093-.819,3.513,3.513,0,0,0-3.536,3.77C158.158,30.8,159.64,32.169,161.577,32.169Zm6.331,0a3.434,3.434,0,0,0,3.367-3.731,3.389,3.389,0,1,0-6.734,0A3.434,3.434,0,0,0,167.908,32.169Zm0-1.222c-1.118,0-1.82-1-1.82-2.509s.7-2.535,1.82-2.535,1.833,1.014,1.833,2.535S169.039,30.947,167.908,30.947Zm7.02,1.222c1.768,0,2.717-.975,2.717-2.171,0-1.352-1.1-1.794-2.106-2.171-.78-.286-1.521-.52-1.521-1.131,0-.494.364-.884,1.144-.884a2.676,2.676,0,0,1,1.6.624l.7-.923a3.764,3.764,0,0,0-2.327-.845c-1.573,0-2.535.9-2.535,2.093s1.092,1.716,2.041,2.08c.78.3,1.586.585,1.586,1.235,0,.546-.4.962-1.261.962a3.169,3.169,0,0,1-2.028-.819l-.7.962A4.4,4.4,0,0,0,174.928,32.169Zm6.422,0a4.575,4.575,0,0,0,1.4-.26l-.273-1.1a2.132,2.132,0,0,1-.767.169c-.741,0-1.04-.442-1.04-1.3V26.046h1.859v-1.2h-1.859V22.874h-1.261l-.169,1.976-1.1.078v1.118h1.04V29.66C179.179,31.168,179.738,32.169,181.35,32.169Zm1.794-3.289h3.432V27.775h-3.432Zm8.138,3.289a4.338,4.338,0,0,0,2.418-.754l-.52-.949a3.036,3.036,0,0,1-1.7.533,2.159,2.159,0,0,1-2.21-2.184h4.641a3.864,3.864,0,0,0,.065-.754c0-2.028-1.014-3.393-2.912-3.393a3.472,3.472,0,0,0-3.263,3.77A3.435,3.435,0,0,0,191.282,32.169Zm-2.028-4.381a1.939,1.939,0,0,1,1.833-1.95c1.04,0,1.6.715,1.6,1.95ZM203.7,21.717a3.265,3.265,0,0,0-1.274-.247c-1.586,0-2.262,1.014-2.262,2.483v.9h-2.808v-.741c0-.858.39-1.313,1.027-1.313a2.094,2.094,0,0,1,.923.2l.3-1.118a3.616,3.616,0,0,0-1.378-.26,2.2,2.2,0,0,0-2.366,2.483v.754l-.975.078v1.118h.975V32h1.495V26.046h2.808V32h1.495V26.046H203.1v-1.2h-1.443v-.91c0-.871.325-1.287.949-1.287a2,2,0,0,1,.793.182Zm3.549,10.452a4.338,4.338,0,0,0,2.418-.754l-.52-.949a3.036,3.036,0,0,1-1.7.533,2.159,2.159,0,0,1-2.21-2.184h4.641a3.864,3.864,0,0,0,.065-.754c0-2.028-1.014-3.393-2.912-3.393a3.472,3.472,0,0,0-3.263,3.77A3.435,3.435,0,0,0,207.246,32.169Zm-2.028-4.381a1.939,1.939,0,0,1,1.833-1.95c1.04,0,1.6.715,1.6,1.95Zm9.308,4.381a3.484,3.484,0,0,0,2.314-.884l-.611-.988a2.449,2.449,0,0,1-1.56.65c-1.2,0-2.015-1-2.015-2.509s.858-2.535,2.054-2.535a1.873,1.873,0,0,1,1.287.559l.741-.975a3.07,3.07,0,0,0-2.093-.819,3.513,3.513,0,0,0-3.536,3.77C211.107,30.8,212.589,32.169,214.526,32.169Zm6.071,0a4.575,4.575,0,0,0,1.4-.26l-.273-1.1a2.132,2.132,0,0,1-.767.169c-.741,0-1.04-.442-1.04-1.3V26.046h1.859v-1.2h-1.859V22.874H218.66l-.169,1.976-1.1.078v1.118h1.04V29.66C218.426,31.168,218.985,32.169,220.6,32.169ZM223.34,32h1.482V24.85H223.34Zm.741-8.489a.887.887,0,1,0,0-1.768.886.886,0,1,0,0,1.768ZM228.644,32h1.729l2.47-7.15h-1.456L230.165,28.7c-.2.7-.416,1.43-.624,2.132h-.052c-.208-.7-.429-1.43-.624-2.132l-1.222-3.848h-1.534Zm8.411.169a4.338,4.338,0,0,0,2.418-.754l-.52-.949a3.036,3.036,0,0,1-1.7.533,2.159,2.159,0,0,1-2.21-2.184h4.641a3.864,3.864,0,0,0,.065-.754c0-2.028-1.014-3.393-2.912-3.393a3.472,3.472,0,0,0-3.263,3.77A3.435,3.435,0,0,0,237.055,32.169Zm-2.028-4.381a1.939,1.939,0,0,1,1.833-1.95c1.04,0,1.6.715,1.6,1.95Zm6.4,4.212h1.482V26.93a2.441,2.441,0,0,1,1.755-.975c.845,0,1.209.494,1.209,1.729V32h1.5V27.5c0-1.82-.676-2.834-2.2-2.834a3.407,3.407,0,0,0-2.366,1.17h-.039l-.117-.988h-1.222Zm11.089.169a4.338,4.338,0,0,0,2.418-.754l-.52-.949a3.036,3.036,0,0,1-1.7.533,2.159,2.159,0,0,1-2.21-2.184h4.641a3.864,3.864,0,0,0,.065-.754c0-2.028-1.014-3.393-2.912-3.393a3.472,3.472,0,0,0-3.263,3.77A3.435,3.435,0,0,0,252.512,32.169Zm-2.028-4.381a1.939,1.939,0,0,1,1.833-1.95c1.04,0,1.6.715,1.6,1.95Zm8.333,4.381c1.768,0,2.717-.975,2.717-2.171,0-1.352-1.105-1.794-2.106-2.171-.78-.286-1.521-.52-1.521-1.131,0-.494.364-.884,1.144-.884a2.676,2.676,0,0,1,1.6.624l.7-.923a3.764,3.764,0,0,0-2.327-.845c-1.573,0-2.535.9-2.535,2.093s1.092,1.716,2.041,2.08c.78.3,1.586.585,1.586,1.235,0,.546-.4.962-1.261.962a3.169,3.169,0,0,1-2.028-.819l-.7.962A4.4,4.4,0,0,0,258.817,32.169Zm6.24,0c1.768,0,2.717-.975,2.717-2.171,0-1.352-1.105-1.794-2.106-2.171-.78-.286-1.521-.52-1.521-1.131,0-.494.364-.884,1.144-.884a2.676,2.676,0,0,1,1.6.624l.7-.923a3.764,3.764,0,0,0-2.327-.845c-1.573,0-2.535.9-2.535,2.093s1.092,1.716,2.041,2.08c.78.3,1.586.585,1.586,1.235,0,.546-.4.962-1.261.962a3.169,3.169,0,0,1-2.028-.819l-.7.962A4.4,4.4,0,0,0,265.057,32.169Zm9.633,0a4.575,4.575,0,0,0,1.4-.26l-.273-1.1a2.132,2.132,0,0,1-.767.169c-.741,0-1.04-.442-1.04-1.3V26.046h1.859v-1.2h-1.859V22.874h-1.261l-.169,1.976-1.1.078v1.118h1.04V29.66C272.519,31.168,273.078,32.169,274.69,32.169Zm5.382,0a3.434,3.434,0,0,0,3.367-3.731,3.389,3.389,0,1,0-6.734,0A3.434,3.434,0,0,0,280.072,32.169Zm0-1.222c-1.118,0-1.82-1-1.82-2.509s.7-2.535,1.82-2.535,1.833,1.014,1.833,2.535S281.2,30.947,280.072,30.947ZM4.043,49.169a3.484,3.484,0,0,0,2.314-.884L5.746,47.3a2.449,2.449,0,0,1-1.56.65c-1.2,0-2.015-1-2.015-2.509S3.029,42.9,4.225,42.9a1.873,1.873,0,0,1,1.287.559l.741-.975a3.07,3.07,0,0,0-2.093-.819,3.513,3.513,0,0,0-3.536,3.77C.624,47.8,2.106,49.169,4.043,49.169Zm6.331,0a3.434,3.434,0,0,0,3.367-3.731,3.454,3.454,0,0,0-3.367-3.77,3.454,3.454,0,0,0-3.367,3.77A3.434,3.434,0,0,0,10.374,49.169Zm0-1.222c-1.118,0-1.82-1-1.82-2.509s.7-2.535,1.82-2.535,1.833,1.014,1.833,2.535S11.5,47.947,10.374,47.947ZM15.5,49h1.482V43.93a2.441,2.441,0,0,1,1.755-.975c.845,0,1.209.494,1.209,1.729V49h1.5V44.5c0-1.82-.676-2.834-2.2-2.834a3.407,3.407,0,0,0-2.366,1.17h-.039l-.117-.988H15.5Zm10.049.169c1.768,0,2.717-.975,2.717-2.171,0-1.352-1.1-1.794-2.106-2.171-.78-.286-1.521-.52-1.521-1.131,0-.494.364-.884,1.144-.884a2.676,2.676,0,0,1,1.6.624l.7-.923a3.764,3.764,0,0,0-2.327-.845c-1.573,0-2.535.9-2.535,2.093s1.092,1.716,2.041,2.08c.78.3,1.586.585,1.586,1.235,0,.546-.4.962-1.261.962a3.169,3.169,0,0,1-2.028-.819l-.7.962A4.4,4.4,0,0,0,25.545,49.169Zm6.4,0a3,3,0,0,0,2.34-1.248h.039L34.437,49h1.222V41.85h-1.5v4.966c-.6.754-1.053,1.066-1.716,1.066-.845,0-1.2-.481-1.2-1.716V41.85H29.757v4.5C29.757,48.168,30.42,49.169,31.941,49.169ZM37.908,49H39.39V43.93A2.413,2.413,0,0,1,41,42.955c.819,0,1.2.494,1.2,1.729V49h1.495V43.93a2.387,2.387,0,0,1,1.612-.975c.806,0,1.2.494,1.2,1.729V49H48V44.5c0-1.82-.7-2.834-2.2-2.834a3.294,3.294,0,0,0-2.327,1.313A1.909,1.909,0,0,0,41.5,41.668a3.115,3.115,0,0,0-2.21,1.183h-.039l-.117-1H37.908Zm15.223.169a4.338,4.338,0,0,0,2.418-.754l-.52-.949a3.036,3.036,0,0,1-1.7.533,2.159,2.159,0,0,1-2.21-2.184h4.641a3.864,3.864,0,0,0,.065-.754c0-2.028-1.014-3.393-2.912-3.393a3.472,3.472,0,0,0-3.263,3.77A3.435,3.435,0,0,0,53.131,49.169ZM51.1,44.788a1.939,1.939,0,0,1,1.833-1.95c1.04,0,1.6.715,1.6,1.95ZM57.5,49h1.482V44.541c.455-1.131,1.157-1.534,1.742-1.534a2.115,2.115,0,0,1,.715.117l.273-1.3a1.779,1.779,0,0,0-.806-.156,2.472,2.472,0,0,0-2.028,1.469h-.039l-.117-1.287H57.5Zm7.176.169c1.768,0,2.717-.975,2.717-2.171,0-1.352-1.1-1.794-2.106-2.171-.78-.286-1.521-.52-1.521-1.131,0-.494.364-.884,1.144-.884a2.676,2.676,0,0,1,1.6.624l.7-.923a3.764,3.764,0,0,0-2.327-.845c-1.573,0-2.535.9-2.535,2.093s1.092,1.716,2.041,2.08c.78.3,1.586.585,1.586,1.235,0,.546-.4.962-1.261.962a3.169,3.169,0,0,1-2.028-.819l-.7.962A4.4,4.4,0,0,0,64.675,49.169Z" transform="translate(73 260.955)"/>
</svg>
