<svg id="구성_요소_67_1" data-name="구성 요소 67 – 1" xmlns="http://www.w3.org/2000/svg" xmlns:xlink="http://www.w3.org/1999/xlink" width="91.5" height="91.5" viewBox="0 0 91.5 91.5">
  <defs>
    <style>
      .cls-1, .cls-6 {
        fill: none;
      }

      .cls-2 {
        clip-path: url(#clip-path);
      }

      .cls-3 {
        fill: #92bb48;
      }

      .cls-4 {
        fill: #1e2323;
      }

      .cls-5, .cls-7 {
        fill: #fff;
      }

      .cls-6, .cls-7 {
        stroke: #1e2323;
      }
    </style>
    <clipPath id="clip-path">
      <path id="패스_5184" data-name="패스 5184" class="cls-1" d="M0,0H91.5V-91.5H0Z"/>
    </clipPath>
  </defs>
  <g id="그룹_4932" data-name="그룹 4932" class="cls-2" transform="translate(0 91.5)">
    <g id="그룹_4931" data-name="그룹 4931" transform="translate(91.5 -45.75)">
      <path id="패스_5183" data-name="패스 5183" class="cls-3" d="M0,0A45.75,45.75,0,0,1-45.75,45.75,45.75,45.75,0,0,1-91.5,0,45.75,45.75,0,0,1-45.75-45.75,45.75,45.75,0,0,1,0,0"/>
    </g>
  </g>
  <g id="그룹_4933" data-name="그룹 4933" transform="translate(65.002 63.774)">
    <path id="패스_5185" data-name="패스 5185" class="cls-4" d="M0,0V-28.292H-4.311L-11.6-19.5v-8.8h-4.376l-7.293,8.8v-8.8h-4.377l-7.293,8.8v-8.8h-3.09V0Z"/>
  </g>
  <g id="그룹_4936" data-name="그룹 4936" class="cls-2" transform="translate(0 91.5)">
    <g id="그룹_4934" data-name="그룹 4934" transform="translate(63.019 -17.692)">
      <path id="패스_5186" data-name="패스 5186" class="cls-4" d="M0,0A13.749,13.749,0,0,0,13.749-13.749,13.749,13.749,0,0,0,0-27.5,13.749,13.749,0,0,0-13.749-13.749,13.749,13.749,0,0,0,0,0"/>
    </g>
    <g id="그룹_4935" data-name="그룹 4935" transform="translate(67.752 -33.56)">
      <path id="패스_5187" data-name="패스 5187" class="cls-4" d="M0,0-2.719-4.814a2.371,2.371,0,0,0-4.153,0L-8.514-1.906M-4.335,8.658H.736A2.452,2.452,0,0,0,2.813,4.981L1.371,2.428M-9.7.2l-2.7,4.785a2.452,2.452,0,0,0,2.077,3.677h3.087"/>
    </g>
  </g>
  <g id="그룹_4937" data-name="그룹 4937" transform="translate(61.339 55.323)">
    <path id="패스_5189" data-name="패스 5189" class="cls-4" d="M0,0-2.183.486-2.953-1.7"/>
  </g>
  <g id="그룹_4938" data-name="그룹 4938" transform="translate(59.175 64.989)">
    <path id="패스_5190" data-name="패스 5190" class="cls-4" d="M0,0,1.491,1.655-.069,3.382"/>
  </g>
  <g id="그룹_4939" data-name="그룹 4939" transform="translate(68.39 62.286)">
    <path id="패스_5191" data-name="패스 5191" class="cls-4" d="M0,0,.7-2.107l2.289.473"/>
  </g>
  <g id="그룹_4940" data-name="그룹 4940" transform="translate(19.532 27.928)">
    <path id="패스_5192" data-name="패스 5192" class="cls-4" d="M0,0-1.957,35.846H12.4L10.439,0Z"/>
  </g>
  <path id="패스_5193" data-name="패스 5193" class="cls-4" d="M36.75-35.551h2.869v-6.782H36.75Z" transform="translate(0 91.5)"/>
  <path id="패스_5194" data-name="패스 5194" class="cls-4" d="M42.032-35.551H44.9v-6.782H42.032Z" transform="translate(0 91.5)"/>
  <g id="그룹_4941" data-name="그룹 4941" transform="translate(63.006 61.778)">
    <path id="패스_5195" data-name="패스 5195" class="cls-5" d="M0,0V-28.213H-4.3l-7.278,8.771v-8.771h-4.367l-7.279,8.771v-8.771h-4.367l-7.278,8.771v-8.771h-3.083V0Z"/>
  </g>
  <g id="그룹_4942" data-name="그룹 4942" transform="translate(63.006 61.778)">
    <path id="패스_5196" data-name="패스 5196" class="cls-6" d="M0,0V-28.213H-4.3l-7.278,8.771v-8.771h-4.367l-7.279,8.771v-8.771h-4.367l-7.278,8.771v-8.771h-3.083V0Z"/>
  </g>
  <g id="그룹_4946" data-name="그룹 4946" class="cls-2" transform="translate(0 91.5)">
    <g id="그룹_4943" data-name="그룹 4943" transform="translate(61.063 -19.688)">
      <path id="패스_5197" data-name="패스 5197" class="cls-5" d="M0,0A13.709,13.709,0,0,0,13.709-13.709,13.708,13.708,0,0,0,0-27.417,13.708,13.708,0,0,0-13.709-13.709,13.709,13.709,0,0,0,0,0"/>
    </g>
    <g id="그룹_4944" data-name="그룹 4944" transform="translate(61.063 -19.688)">
      <path id="패스_5198" data-name="패스 5198" class="cls-6" d="M0,0A13.709,13.709,0,0,0,13.709-13.709,13.708,13.708,0,0,0,0-27.417,13.708,13.708,0,0,0-13.709-13.709,13.709,13.709,0,0,0,0,0Z"/>
    </g>
    <g id="그룹_4945" data-name="그룹 4945" transform="translate(65.772 -35.509)">
      <path id="패스_5199" data-name="패스 5199" class="cls-7" d="M0,0-2.7-4.788a2.36,2.36,0,0,0-4.132,0L-8.471-1.9M-4.313,8.611H.732A2.439,2.439,0,0,0,2.8,4.954L1.364,2.415M-9.652.195l-2.689,4.759a2.439,2.439,0,0,0,2.067,3.657H-7.2"/>
    </g>
  </g>
  <g id="그룹_4947" data-name="그룹 4947" transform="translate(59.351 53.387)">
    <path id="패스_5201" data-name="패스 5201" class="cls-6" d="M0,0-2.131.429l-.791-2.11"/>
  </g>
  <g id="그룹_4948" data-name="그룹 4948" transform="translate(57.252 63.052)">
    <path id="패스_5202" data-name="패스 5202" class="cls-6" d="M0,0,1.416,1.636-.066,3.343"/>
  </g>
  <g id="그룹_4949" data-name="그룹 4949" transform="translate(66.433 60.292)">
    <path id="패스_5203" data-name="패스 5203" class="cls-6" d="M0,0,.724-2.033l2.233.414"/>
  </g>
  <g id="그룹_4950" data-name="그룹 4950" transform="translate(17.606 26.011)">
    <path id="패스_5204" data-name="패스 5204" class="cls-5" d="M0,0-1.946,35.767h14.27L10.378,0Z"/>
  </g>
  <g id="그룹_4951" data-name="그룹 4951" transform="translate(17.606 26.011)">
    <path id="패스_5205" data-name="패스 5205" class="cls-6" d="M0,0-1.946,35.767h14.27L10.378,0Z"/>
  </g>
  <path id="패스_5206" data-name="패스 5206" class="cls-7" d="M34.834-37.547h2.789v-6.7H34.834Z" transform="translate(0 91.5)"/>
  <path id="패스_5207" data-name="패스 5207" class="cls-7" d="M40.116-37.547H42.9v-6.7H40.116Z" transform="translate(0 91.5)"/>
</svg>
