<svg id="구성_요소_134_1" data-name="구성 요소 134 – 1" xmlns="http://www.w3.org/2000/svg" width="796" height="296.626" viewBox="0 0 796 296.626">
  <defs>
    <style>
      .cls-1, .cls-2, .cls-9 {
        fill: none;
        stroke: #3e3a39;
      }

      .cls-1, .cls-2 {
        stroke-linecap: round;
        stroke-linejoin: round;
      }

      .cls-1 {
        stroke-dasharray: 0 2.983;
      }

      .cls-3 {
        fill: #f4f5f5;
      }

      .cls-4 {
        fill: #f0c560;
      }

      .cls-5 {
        fill: #fff;
      }

      .cls-10, .cls-6, .cls-8 {
        fill: #1d2222;
      }

      .cls-7 {
        fill: #665138;
      }

      .cls-8 {
        font-size: 14px;
        font-family: NotoSansKR-Light, Noto Sans KR;
        font-weight: 300;
      }

      .cls-10 {
        font-size: 17px;
        font-family: NotoSansKR-Medium, Noto Sans KR;
        font-weight: 500;
      }

      .cls-11, .cls-12 {
        fill: #112d52;
      }

      .cls-12 {
        font-size: 32px;
        font-family: OpenSans, Open Sans;
      }

      .cls-13 {
        fill: #946825;
      }
    </style>
  </defs>
  <line id="선_1071" data-name="선 1071" class="cls-1" x2="129.747" transform="translate(153.483 88.501)"/>
  <path id="패스_28225" data-name="패스 28225" class="cls-2" d="M350.531,5680.371h0m-134.221,0h0" transform="translate(-65.81 -5591.87)"/>
  <path id="패스_28226" data-name="패스 28226" class="cls-3" d="M155.813,5722.157l-52.9,72.811A90,90,0,0,1,83,5669.256c17.529-24.127,42.987-37.1,72.809-37.1Z" transform="translate(-65.81 -5591.87)"/>
  <path id="패스_28227" data-name="패스 28227" class="cls-4" d="M155.813,5722.157v-90a90,90,0,0,1,0,180,86.228,86.228,0,0,1-52.9-17.189Z" transform="translate(-65.81 -5591.87)"/>
  <path id="패스_28228" data-name="패스 28228" class="cls-5" d="M155.81,5791.09a68.933,68.933,0,1,0-68.931-68.934,68.933,68.933,0,0,0,68.931,68.934" transform="translate(-65.81 -5591.87)"/>
  <path id="패스_28243" data-name="패스 28243" class="cls-6" d="M1.484,0h5.8V-.728H2.324V-5.054H6.37v-.714H2.324V-9.492h4.8v-.714H1.484Zm7.6,0H9.9V-5.586c.868-.9,1.484-1.344,2.352-1.344,1.148,0,1.638.714,1.638,2.268V0H14.7V-4.774c0-1.918-.714-2.884-2.268-2.884a3.67,3.67,0,0,0-2.548,1.33H9.856l-.1-1.134H9.086Zm9.562,0h.966l2.744-7.462h-.826L19.908-2.884c-.238.728-.5,1.484-.742,2.156H19.11c-.252-.672-.5-1.428-.742-2.156l-1.61-4.578h-.882Zm5.208,0h.812V-7.462h-.812Zm.42-9.212a.661.661,0,0,0,.686-.644.658.658,0,0,0-.686-.672.65.65,0,0,0-.686.672A.652.652,0,0,0,24.276-9.212ZM27.1,0h.812V-5.012c.546-1.386,1.344-1.876,2-1.876a1.578,1.578,0,0,1,.686.126l.168-.728a1.5,1.5,0,0,0-.756-.168A2.568,2.568,0,0,0,27.9-6.076h-.028l-.1-1.386H27.1Zm7.42.182C36.33.182,37.9-1.246,37.9-3.724S36.33-7.658,34.524-7.658,31.15-6.216,31.15-3.724,32.718.182,34.524.182Zm0-.7C33.068-.518,32-1.82,32-3.724s1.064-3.22,2.52-3.22,2.534,1.316,2.534,3.22S35.98-.518,34.524-.518ZM39.858,0h.812V-5.586c.868-.9,1.484-1.344,2.352-1.344,1.148,0,1.638.714,1.638,2.268V0h.812V-4.774c0-1.918-.714-2.884-2.268-2.884a3.67,3.67,0,0,0-2.548,1.33h-.028l-.1-1.134h-.672Zm8.008,0h.812V-5.586A3.148,3.148,0,0,1,50.834-6.93c1.106,0,1.61.714,1.61,2.268V0h.812V-5.586A3.148,3.148,0,0,1,55.412-6.93c1.092,0,1.61.714,1.61,2.268V0h.812V-4.774c0-1.918-.742-2.884-2.24-2.884a3.729,3.729,0,0,0-2.52,1.512,1.933,1.933,0,0,0-2.058-1.512,3.465,3.465,0,0,0-2.352,1.33h-.028l-.1-1.134h-.672ZM63.2.182a4.175,4.175,0,0,0,2.38-.728l-.308-.6A3.341,3.341,0,0,1,63.28-.5c-1.61,0-2.688-1.274-2.73-3.094h5.292a3.872,3.872,0,0,0,.042-.588c0-2.184-1.078-3.472-2.884-3.472-1.694,0-3.276,1.512-3.276,3.934C59.724-1.274,61.278.182,63.2.182ZM60.55-4.242a2.657,2.657,0,0,1,2.464-2.716c1.3,0,2.128.91,2.128,2.716ZM67.718,0h.812V-5.586c.868-.9,1.484-1.344,2.352-1.344,1.148,0,1.638.714,1.638,2.268V0h.812V-4.774c0-1.918-.714-2.884-2.268-2.884a3.67,3.67,0,0,0-2.548,1.33h-.028l-.1-1.134h-.672ZM77.826.182A4.222,4.222,0,0,0,79.072-.1l-.2-.63a2.61,2.61,0,0,1-.91.21c-.994,0-1.246-.616-1.246-1.554v-4.7h2.142v-.686H76.72V-9.618h-.686l-.1,2.156-1.19.07v.616h1.162v4.648C75.908-.742,76.356.182,77.826.182Z" transform="translate(539.551 277.444)"/>
  <rect id="사각형_351" data-name="사각형 351" class="cls-3" width="40" height="253.684" transform="translate(559.182)"/>
  <path id="패스_28237" data-name="패스 28237" class="cls-7" d="M1.84-4.4l2.672-4c.336-.576.656-1.152.944-1.728H5.52c-.032.608-.1,1.552-.1,2.128v3.6Zm6.528,0H6.816v-7.328H5.2L.32-4.192v.96h5.1V0H6.816V-3.232H8.368Zm2.032,0,2.672-4c.336-.576.656-1.152.944-1.728h.064c-.032.608-.1,1.552-.1,2.128v3.6Zm6.528,0H15.376v-7.328H13.76L8.88-4.192v.96h5.1V0h1.392V-3.232h1.552ZM19.344.208A1.057,1.057,0,0,0,20.4-.9a1.085,1.085,0,0,0-1.056-1.136A1.085,1.085,0,0,0,18.288-.9,1.057,1.057,0,0,0,19.344.208ZM24.432,0h1.52c.176-4.592.688-7.312,3.44-10.848v-.88H22.048v1.248h5.68C25.44-7.28,24.624-4.448,24.432,0Z" transform="translate(564.109 24.08)"/>
  <path id="패스_28247" data-name="패스 28247" class="cls-4" d="M0,0H40V115H0Z" transform="translate(559.256 138.684)"/>
  <path id="패스_28244" data-name="패스 28244" class="cls-6" d="M1.484,0h5.8V-.728H2.324V-5.054H6.37v-.714H2.324V-9.492h4.8v-.714H1.484Zm9.268.182A4.222,4.222,0,0,0,12-.1l-.2-.63a2.61,2.61,0,0,1-.91.21c-.994,0-1.246-.616-1.246-1.554v-4.7h2.142v-.686H9.646V-9.618H8.96l-.1,2.156-1.19.07v.616H8.834v4.648C8.834-.742,9.282.182,10.752.182ZM13.566,0h.812V-5.586c.868-.9,1.484-1.344,2.352-1.344,1.148,0,1.638.714,1.638,2.268V0h.812V-4.774c0-1.918-.714-2.884-2.268-2.884a3.635,3.635,0,0,0-2.548,1.344l.014-1.624V-11.13h-.812Zm8.022,0H22.4V-7.462h-.812Zm.42-9.212a.661.661,0,0,0,.686-.644.658.658,0,0,0-.686-.672.65.65,0,0,0-.686.672A.652.652,0,0,0,22.008-9.212ZM27.818.182A3.611,3.611,0,0,0,30.2-.784l-.392-.56a2.98,2.98,0,0,1-1.946.826c-1.568,0-2.6-1.3-2.6-3.206s1.134-3.22,2.618-3.22a2.45,2.45,0,0,1,1.708.756l.462-.56a3.156,3.156,0,0,0-2.184-.91c-1.848,0-3.458,1.442-3.458,3.934S25.872.182,27.818.182Zm6.342,0c1.652,0,2.562-.98,2.562-2.128,0-1.442-1.26-1.848-2.408-2.282-.868-.322-1.736-.63-1.736-1.456,0-.672.5-1.288,1.61-1.288a2.861,2.861,0,0,1,1.778.672l.42-.56a3.6,3.6,0,0,0-2.17-.8c-1.568,0-2.45.924-2.45,2.016C31.766-4.354,33-3.892,34.1-3.5c.868.308,1.806.714,1.806,1.6,0,.77-.574,1.414-1.708,1.414a3.418,3.418,0,0,1-2.352-.938l-.434.588A4.373,4.373,0,0,0,34.16.182Z" transform="translate(641.105 277.444)"/>
  <rect id="사각형_353" data-name="사각형 353" class="cls-3" width="40" height="253.684" transform="translate(639.847)"/>
  <path id="패스_28238" data-name="패스 28238" class="cls-7" d="M4.176.208a3.809,3.809,0,0,0,3.84-4.032c0-2.576-1.584-3.728-3.536-3.728a3.368,3.368,0,0,0-1.744.464l.288-3.392H7.456v-1.248H1.744L1.376-6.24l.784.48a3.191,3.191,0,0,1,1.952-.688A2.373,2.373,0,0,1,6.544-3.776a2.535,2.535,0,0,1-2.5,2.768,3.858,3.858,0,0,1-2.88-1.3l-.72.96A4.982,4.982,0,0,0,4.176.208Zm8.56,0a3.809,3.809,0,0,0,3.84-4.032c0-2.576-1.584-3.728-3.536-3.728a3.368,3.368,0,0,0-1.744.464l.288-3.392h4.432v-1.248H10.3L9.936-6.24l.784.48a3.191,3.191,0,0,1,1.952-.688A2.373,2.373,0,0,1,15.1-3.776a2.535,2.535,0,0,1-2.5,2.768,3.858,3.858,0,0,1-2.88-1.3l-.72.96A4.982,4.982,0,0,0,12.736.208Zm6.608,0A1.057,1.057,0,0,0,20.4-.9a1.085,1.085,0,0,0-1.056-1.136A1.085,1.085,0,0,0,18.288-.9,1.057,1.057,0,0,0,19.344.208ZM22.672,0H29.1V-1.216H26.752V-11.728h-1.12A7.431,7.431,0,0,1,23.2-10.9v.928h2.08v8.752H22.672Z" transform="translate(644.851 24.08)"/>
  <rect id="사각형_354" data-name="사각형 354" class="cls-4" width="40" height="150.105" transform="translate(639.922 103.579)"/>
  <path id="패스_28229" data-name="패스 28229" class="cls-6" d="M783.114,5864.2c0-3.263,1.807-5.281,4.4-5.281a3.535,3.535,0,0,1,2.69,1.233l-.477.546a2.869,2.869,0,0,0-2.213-1.022c-2.157,0-3.516,1.737-3.516,4.5,0,2.788,1.331,4.567,3.474,4.567a3.265,3.265,0,0,0,2.536-1.233l.476.532a3.826,3.826,0,0,1-3.054,1.457C784.907,5869.5,783.114,5867.465,783.114,5864.2Zm8.59,1.387c0-2.493,1.569-3.936,3.376-3.936s3.376,1.443,3.376,3.936-1.569,3.908-3.376,3.908S791.7,5868.067,791.7,5865.588Zm5.911,0c0-1.9-1.078-3.222-2.535-3.222s-2.521,1.317-2.521,3.222,1.064,3.208,2.521,3.208S797.615,5867.493,797.615,5865.588Zm2.86-3.74h.673l.1,1.135h.028a3.671,3.671,0,0,1,2.549-1.331c1.555,0,2.269.966,2.269,2.886v4.776h-.812v-4.664c0-1.555-.49-2.27-1.639-2.27-.868,0-1.485.449-2.353,1.345v5.589h-.813Zm8.239-1.569c0-1.485.659-2.283,1.919-2.283a2.843,2.843,0,0,1,1.121.252l-.2.644a2.129,2.129,0,0,0-.882-.21c-.8,0-1.149.589-1.149,1.639v1.527h1.7v.686h-1.7v6.78h-.813v-6.78h-1.036v-.616l1.036-.07Zm5.589,9.133a1.617,1.617,0,0,1-.532.084c-.672,0-1.008-.42-1.008-1.288v-10.03h.812v10.114c0,.35.154.5.336.5a1.365,1.365,0,0,0,.28-.028Zm1.663-9.959a.652.652,0,0,1,.687-.673.659.659,0,1,1-.687.673Zm.266,2.4h.813v7.466h-.813Zm2.8,3.74c0-2.493,1.611-3.936,3.46-3.936a3.157,3.157,0,0,1,2.185.91l-.462.561a2.453,2.453,0,0,0-1.709-.757c-1.485,0-2.619,1.317-2.619,3.222s1.036,3.208,2.6,3.208a2.98,2.98,0,0,0,1.947-.827l.392.561a3.613,3.613,0,0,1-2.381.966C820.5,5869.5,819.032,5868.067,819.032,5865.588Zm8.069,1.6v-4.651h-1.163v-.616l1.191-.07.1-2.157h.686v2.157h2.143v.686h-2.143v4.707c0,.938.252,1.555,1.247,1.555a2.6,2.6,0,0,0,.91-.21l.2.63a4.214,4.214,0,0,1-1.246.28C827.549,5869.5,827.1,5868.572,827.1,5867.185Z" transform="translate(-65.81 -5591.87)"/>
  <path id="패스_28245" data-name="패스 28245" class="cls-6" d="M1.484,0h.77V-6.468c0-.84-.056-1.96-.1-2.814h.056L3.01-7,5.166-1.092h.672L7.98-7l.8-2.282h.056c-.042.854-.1,1.974-.1,2.814V0h.8V-10.206H8.414L6.314-4.34c-.252.742-.49,1.5-.756,2.24H5.5L4.7-4.34,2.6-10.206H1.484Zm10.7,0h.812V-7.462H12.18Zm.42-9.212a.661.661,0,0,0,.686-.644.658.658,0,0,0-.686-.672.65.65,0,0,0-.686.672A.652.652,0,0,0,12.6-9.212ZM15.5,0h.812V-5.586c.868-.9,1.484-1.344,2.352-1.344,1.148,0,1.638.714,1.638,2.268V0h.812V-4.774c0-1.918-.714-2.884-2.268-2.884A3.67,3.67,0,0,0,16.3-6.328h-.028l-.1-1.134H15.5ZM26.53.182a4.175,4.175,0,0,0,2.38-.728l-.308-.6A3.341,3.341,0,0,1,26.614-.5C25-.5,23.926-1.778,23.884-3.6h5.292a3.872,3.872,0,0,0,.042-.588c0-2.184-1.078-3.472-2.884-3.472-1.694,0-3.276,1.512-3.276,3.934C23.058-1.274,24.612.182,26.53.182ZM23.884-4.242a2.657,2.657,0,0,1,2.464-2.716c1.3,0,2.128.91,2.128,2.716ZM31.122,0h.812V-5.012c.546-1.386,1.344-1.876,2-1.876a1.578,1.578,0,0,1,.686.126l.168-.728a1.5,1.5,0,0,0-.756-.168A2.568,2.568,0,0,0,31.92-6.076h-.028l-.1-1.386h-.672Zm6.454.182a4.3,4.3,0,0,0,2.6-1.134h.028L40.292,0h.686V-4.732c0-1.652-.63-2.926-2.408-2.926a5.175,5.175,0,0,0-2.828.98l.364.588a4.035,4.035,0,0,1,2.352-.854c1.414,0,1.736,1.148,1.708,2.254-3.29.378-4.76,1.162-4.76,2.814A1.969,1.969,0,0,0,37.576.182ZM37.744-.5a1.346,1.346,0,0,1-1.526-1.414c0-1.148,1.008-1.834,3.948-2.17v2.422A3.677,3.677,0,0,1,37.744-.5ZM44.38.182A1.645,1.645,0,0,0,44.926.1L44.8-.546a1.252,1.252,0,0,1-.266.028c-.2,0-.336-.154-.336-.5V-11.13h-.812V-1.106C43.386-.238,43.708.182,44.38.182Zm4.578,0c1.652,0,2.562-.98,2.562-2.128,0-1.442-1.26-1.848-2.408-2.282-.868-.322-1.736-.63-1.736-1.456,0-.672.5-1.288,1.61-1.288a2.861,2.861,0,0,1,1.778.672l.42-.56a3.6,3.6,0,0,0-2.17-.8c-1.568,0-2.45.924-2.45,2.016,0,1.288,1.232,1.75,2.338,2.142.868.308,1.806.714,1.806,1.6,0,.77-.574,1.414-1.708,1.414a3.418,3.418,0,0,1-2.352-.938l-.434.588A4.372,4.372,0,0,0,48.958.182Z" transform="translate(714.372 296.444)"/>
  <rect id="사각형_355" data-name="사각형 355" class="cls-3" width="40" height="253.684" transform="translate(720.513)"/>
  <path id="패스_28239" data-name="패스 28239" class="cls-7" d="M4.816-.928c-1.472,0-2.352-1.328-2.528-3.76a3.057,3.057,0,0,1,2.4-1.5C6.112-6.192,6.8-5.184,6.8-3.6,6.8-2,5.936-.928,4.816-.928Zm3.152-9.824a3.6,3.6,0,0,0-2.736-1.2C2.96-11.952.9-10.192.9-5.6.9-1.728,2.56.208,4.816.208A3.522,3.522,0,0,0,8.176-3.6c0-2.448-1.264-3.68-3.248-3.68A3.648,3.648,0,0,0,2.256-5.856C2.32-9.5,3.68-10.736,5.28-10.736a2.48,2.48,0,0,1,1.888.9ZM9.968,0H16.4V-1.216H14.048V-11.728h-1.12A7.431,7.431,0,0,1,10.5-10.9v.928h2.08v8.752H9.968Zm9.376.208A1.057,1.057,0,0,0,20.4-.9a1.085,1.085,0,0,0-1.056-1.136A1.085,1.085,0,0,0,18.288-.9,1.057,1.057,0,0,0,19.344.208ZM21.968,0h7.376V-1.264H26.1c-.592,0-1.312.064-1.92.112,2.752-2.608,4.592-4.992,4.592-7.328a3.218,3.218,0,0,0-3.408-3.472A4.486,4.486,0,0,0,21.9-10.224l.848.832a3.284,3.284,0,0,1,2.432-1.36,2.062,2.062,0,0,1,2.16,2.32c0,2.016-1.7,4.352-5.376,7.568Z" transform="translate(725.517 24.08)"/>
  <rect id="사각형_356" data-name="사각형 356" class="cls-4" width="40" height="187.106" transform="translate(720.588 66.578)"/>
  <path id="패스_28242" data-name="패스 28242" class="cls-6" d="M4.186.182c2,0,3.3-1.2,3.3-2.772s-.98-2.2-2.142-2.716L3.822-5.978C3.08-6.3,2.086-6.734,2.086-7.9c0-1.05.868-1.736,2.17-1.736A3.275,3.275,0,0,1,6.664-8.61l.476-.546a3.9,3.9,0,0,0-2.884-1.232c-1.736,0-3.024,1.05-3.024,2.562A2.831,2.831,0,0,0,3.3-5.278l1.526.672c1.008.448,1.806.84,1.806,2.072,0,1.162-.938,1.96-2.45,1.96A3.93,3.93,0,0,1,1.232-1.932l-.518.588A4.542,4.542,0,0,0,4.186.182Zm6.958,0a4.3,4.3,0,0,0,2.6-1.134h.028L13.86,0h.686V-4.732c0-1.652-.63-2.926-2.408-2.926a5.175,5.175,0,0,0-2.828.98l.364.588a4.035,4.035,0,0,1,2.352-.854c1.414,0,1.736,1.148,1.708,2.254-3.29.378-4.76,1.162-4.76,2.814A1.969,1.969,0,0,0,11.144.182ZM11.312-.5A1.346,1.346,0,0,1,9.786-1.918c0-1.148,1.008-1.834,3.948-2.17v2.422A3.677,3.677,0,0,1,11.312-.5ZM20.006-11.06a2.838,2.838,0,0,0-1.12-.252c-1.26,0-1.918.8-1.918,2.282v1.568l-1.036.07v.616h1.036V0h.812V-6.776h1.694v-.686H17.78V-8.988c0-1.05.35-1.638,1.148-1.638a2.132,2.132,0,0,1,.882.21ZM23.478.182a4.175,4.175,0,0,0,2.38-.728l-.308-.6A3.341,3.341,0,0,1,23.562-.5c-1.61,0-2.688-1.274-2.73-3.094h5.292a3.872,3.872,0,0,0,.042-.588c0-2.184-1.078-3.472-2.884-3.472-1.694,0-3.276,1.512-3.276,3.934C20.006-1.274,21.56.182,23.478.182ZM20.832-4.242A2.657,2.657,0,0,1,23.3-6.958c1.3,0,2.128.91,2.128,2.716ZM30,.182A4.222,4.222,0,0,0,31.248-.1l-.2-.63a2.61,2.61,0,0,1-.91.21c-.994,0-1.246-.616-1.246-1.554v-4.7h2.142v-.686H28.9V-9.618H28.21l-.1,2.156-1.19.07v.616h1.162v4.648C28.084-.742,28.532.182,30,.182ZM33.026,3.36c1.372,0,2.128-1.2,2.576-2.492l2.912-8.33h-.826L36.162-2.9c-.21.644-.448,1.428-.672,2.1h-.07c-.266-.672-.546-1.456-.784-2.1L32.9-7.462h-.882L35.07.112l-.2.63c-.364,1.078-.966,1.89-1.862,1.89a1.921,1.921,0,0,1-.6-.112l-.182.686A1.978,1.978,0,0,0,33.026,3.36Z" transform="translate(479.103 277.444)"/>
  <text id="_" data-name=" " class="cls-8" transform="translate(521.858 277.444)"><tspan x="0" y="0"> </tspan></text>
  <path id="패스_28241" data-name="패스 28241" class="cls-6" d="M3.052.182a4.3,4.3,0,0,0,2.6-1.134h.028L5.768,0h.686V-4.732c0-1.652-.63-2.926-2.408-2.926a5.175,5.175,0,0,0-2.828.98l.364.588a4.035,4.035,0,0,1,2.352-.854C5.348-6.944,5.67-5.8,5.642-4.69,2.352-4.312.882-3.528.882-1.876A1.969,1.969,0,0,0,3.052.182ZM3.22-.5A1.346,1.346,0,0,1,1.694-1.918c0-1.148,1.008-1.834,3.948-2.17v2.422A3.677,3.677,0,0,1,3.22-.5ZM8.778,0H9.59V-5.586c.868-.9,1.484-1.344,2.352-1.344,1.148,0,1.638.714,1.638,2.268V0h.812V-4.774c0-1.918-.714-2.884-2.268-2.884a3.67,3.67,0,0,0-2.548,1.33H9.548l-.1-1.134H8.778ZM19.39.182a3.459,3.459,0,0,0,2.394-1.12h.028l.1.938h.672V-11.13H21.77v3.038l.056,1.344a3.351,3.351,0,0,0-2.226-.91c-1.764,0-3.3,1.526-3.3,3.934C16.3-1.218,17.514.182,19.39.182Zm.14-.714c-1.512,0-2.366-1.26-2.366-3.192,0-1.834,1.092-3.22,2.52-3.22a3.012,3.012,0,0,1,2.086.924v4.312A3.124,3.124,0,0,1,19.53-.532Zm8.9.532h.84V-5.054H34.58V0h.826V-10.206H34.58v4.424H29.274v-4.424h-.84ZM40.95.182a4.175,4.175,0,0,0,2.38-.728l-.308-.6A3.341,3.341,0,0,1,41.034-.5c-1.61,0-2.688-1.274-2.73-3.094H43.6a3.872,3.872,0,0,0,.042-.588c0-2.184-1.078-3.472-2.884-3.472-1.694,0-3.276,1.512-3.276,3.934C37.478-1.274,39.032.182,40.95.182ZM38.3-4.242a2.657,2.657,0,0,1,2.464-2.716c1.3,0,2.128.91,2.128,2.716ZM46.732.182a4.3,4.3,0,0,0,2.6-1.134h.028L49.448,0h.686V-4.732c0-1.652-.63-2.926-2.408-2.926a5.175,5.175,0,0,0-2.828.98l.364.588a4.035,4.035,0,0,1,2.352-.854c1.414,0,1.736,1.148,1.708,2.254-3.29.378-4.76,1.162-4.76,2.814A1.969,1.969,0,0,0,46.732.182ZM46.9-.5a1.346,1.346,0,0,1-1.526-1.414c0-1.148,1.008-1.834,3.948-2.17v2.422A3.677,3.677,0,0,1,46.9-.5Zm6.552.686A1.645,1.645,0,0,0,54,.1l-.126-.644a1.252,1.252,0,0,1-.266.028c-.2,0-.336-.154-.336-.5V-11.13h-.812V-1.106C52.458-.238,52.78.182,53.452.182Zm4.564,0A4.222,4.222,0,0,0,59.262-.1l-.2-.63a2.61,2.61,0,0,1-.91.21c-.994,0-1.246-.616-1.246-1.554v-4.7h2.142v-.686H56.91V-9.618h-.686l-.1,2.156-1.19.07v.616H56.1v4.648C56.1-.742,56.546.182,58.016.182ZM60.76,0h.812V-5.586c.868-.9,1.484-1.344,2.352-1.344,1.148,0,1.638.714,1.638,2.268V0h.812V-4.774c0-1.918-.714-2.884-2.268-2.884a3.635,3.635,0,0,0-2.548,1.344l.014-1.624V-11.13H60.76Z" transform="translate(464.279 296.444)"/>
  <rect id="사각형_357" data-name="사각형 357" class="cls-3" width="40" height="253.684" transform="translate(478.591)"/>
  <path id="패스_28236" data-name="패스 28236" class="cls-7" d="M4.176.208a3.809,3.809,0,0,0,3.84-4.032c0-2.576-1.584-3.728-3.536-3.728a3.368,3.368,0,0,0-1.744.464l.288-3.392H7.456v-1.248H1.744L1.376-6.24l.784.48a3.191,3.191,0,0,1,1.952-.688A2.373,2.373,0,0,1,6.544-3.776a2.535,2.535,0,0,1-2.5,2.768,3.858,3.858,0,0,1-2.88-1.3l-.72.96A4.982,4.982,0,0,0,4.176.208Zm8.56-5.744c-1.392,0-2.1-1.024-2.1-2.608,0-1.6.864-2.656,1.984-2.656,1.5,0,2.4,1.28,2.56,3.7A3.1,3.1,0,0,1,12.736-5.536ZM9.488-.992A3.732,3.732,0,0,0,12.3.208c2.208,0,4.256-1.824,4.256-6.576,0-3.728-1.68-5.584-3.936-5.584a3.522,3.522,0,0,0-3.36,3.808c0,2.432,1.28,3.7,3.232,3.7A3.616,3.616,0,0,0,15.2-5.9c-.112,3.648-1.424,4.9-2.944,4.9a2.647,2.647,0,0,1-1.968-.9Zm9.856,1.2A1.057,1.057,0,0,0,20.4-.9a1.085,1.085,0,0,0-1.056-1.136A1.085,1.085,0,0,0,18.288-.9,1.057,1.057,0,0,0,19.344.208Zm6.1-5.744c-1.392,0-2.1-1.024-2.1-2.608,0-1.6.864-2.656,1.984-2.656,1.5,0,2.4,1.28,2.56,3.7A3.1,3.1,0,0,1,25.44-5.536ZM22.192-.992a3.732,3.732,0,0,0,2.816,1.2c2.208,0,4.256-1.824,4.256-6.576,0-3.728-1.68-5.584-3.936-5.584a3.522,3.522,0,0,0-3.36,3.808c0,2.432,1.28,3.7,3.232,3.7A3.616,3.616,0,0,0,27.9-5.9c-.112,3.648-1.424,4.9-2.944,4.9a2.647,2.647,0,0,1-1.968-.9Z" transform="translate(483.52 24.08)"/>
  <path id="패스_28246" data-name="패스 28246" class="cls-4" d="M0,0H40V185.256H0Z" transform="translate(478.591 68.428)"/>
  <path id="패스_28240" data-name="패스 28240" class="cls-6" d="M1.484,0H6.972V-.728H2.324v-9.478h-.84Zm8.974.182a4.3,4.3,0,0,0,2.6-1.134h.028L13.174,0h.686V-4.732c0-1.652-.63-2.926-2.408-2.926a5.175,5.175,0,0,0-2.828.98l.364.588a4.035,4.035,0,0,1,2.352-.854c1.414,0,1.736,1.148,1.708,2.254-3.29.378-4.76,1.162-4.76,2.814A1.969,1.969,0,0,0,10.458.182ZM10.626-.5A1.346,1.346,0,0,1,9.1-1.918c0-1.148,1.008-1.834,3.948-2.17v2.422A3.677,3.677,0,0,1,10.626-.5Zm8.638.686c1.75,0,3.29-1.484,3.29-4.032,0-2.3-1.008-3.808-3-3.808a4.127,4.127,0,0,0-2.52,1.148l.042-1.428V-11.13h-.812V0h.658l.1-.756h.028A3.689,3.689,0,0,0,19.264.182Zm-.07-.714a3.365,3.365,0,0,1-2.114-.91V-5.754A3.677,3.677,0,0,1,19.4-6.944c1.666,0,2.282,1.3,2.282,3.094C21.686-1.848,20.65-.532,19.194-.532Zm8.274.714c1.806,0,3.374-1.428,3.374-3.906s-1.568-3.934-3.374-3.934-3.374,1.442-3.374,3.934S25.662.182,27.468.182Zm0-.7c-1.456,0-2.52-1.3-2.52-3.206s1.064-3.22,2.52-3.22S30-5.628,30-3.724,28.924-.518,27.468-.518Zm5.4.518h.812V-5.012c.546-1.386,1.344-1.876,2-1.876a1.578,1.578,0,0,1,.686.126l.168-.728a1.5,1.5,0,0,0-.756-.168A2.568,2.568,0,0,0,33.67-6.076h-.028l-.1-1.386h-.672Z" transform="translate(399.752 277.444)"/>
  <rect id="사각형_359" data-name="사각형 359" class="cls-3" width="40" height="253.684" transform="translate(398)"/>
  <path id="패스_28235" data-name="패스 28235" class="cls-7" d="M4.816-.928c-1.472,0-2.352-1.328-2.528-3.76a3.057,3.057,0,0,1,2.4-1.5C6.112-6.192,6.8-5.184,6.8-3.6,6.8-2,5.936-.928,4.816-.928Zm3.152-9.824a3.6,3.6,0,0,0-2.736-1.2C2.96-11.952.9-10.192.9-5.6.9-1.728,2.56.208,4.816.208A3.522,3.522,0,0,0,8.176-3.6c0-2.448-1.264-3.68-3.248-3.68A3.648,3.648,0,0,0,2.256-5.856C2.32-9.5,3.68-10.736,5.28-10.736a2.48,2.48,0,0,1,1.888.9ZM9.264,0H16.64V-1.264H13.392c-.592,0-1.312.064-1.92.112,2.752-2.608,4.592-4.992,4.592-7.328a3.218,3.218,0,0,0-3.408-3.472A4.486,4.486,0,0,0,9.2-10.224l.848.832a3.284,3.284,0,0,1,2.432-1.36,2.062,2.062,0,0,1,2.16,2.32c0,2.016-1.7,4.352-5.376,7.568Zm10.08.208A1.057,1.057,0,0,0,20.4-.9a1.085,1.085,0,0,0-1.056-1.136A1.085,1.085,0,0,0,18.288-.9,1.057,1.057,0,0,0,19.344.208ZM23.1-4.4l2.672-4c.336-.576.656-1.152.944-1.728h.064c-.032.608-.1,1.552-.1,2.128v3.6Zm6.528,0H28.08v-7.328H26.464l-4.88,7.536v.96h5.1V0H28.08V-3.232h1.552Z" transform="translate(402.929 24.08)"/>
  <rect id="사각형_360" data-name="사각형 360" class="cls-4" width="40" height="194.506" transform="translate(398 59.178)"/>
  <line id="선_1072" data-name="선 1072" class="cls-9" x2="796" transform="translate(0 254.184)"/>
  <text id="_2" data-name=" " class="cls-10" transform="translate(213.069 136)"><tspan x="0" y="0"> </tspan></text>
  <path id="패스_28234" data-name="패스 28234" class="cls-11" d="M8.7-13.953a8.4,8.4,0,0,1,5.68,1.789,6.136,6.136,0,0,1,2.07,4.9A7.074,7.074,0,0,1,14.2-1.7,9.018,9.018,0,0,1,7.969.313,11.459,11.459,0,0,1,2.078-.922v-2.5A8.952,8.952,0,0,0,4.8-2.32a13.417,13.417,0,0,0,3.2.4,6.4,6.4,0,0,0,4.273-1.3A4.652,4.652,0,0,0,13.8-6.969q0-4.781-5.859-4.781a23.329,23.329,0,0,0-3.969.453l-1.344-.859.859-10.687H14.844v2.391H5.7l-.578,6.859A18.206,18.206,0,0,1,8.7-13.953ZM22.3,0l9.469-20.453H19.318v-2.391h15.2v2.078L25.177,0ZM39.479-16.031a10.476,10.476,0,0,0,.578,3.984,1.946,1.946,0,0,0,1.875,1.328q2.562,0,2.563-5.312,0-5.281-2.562-5.281A1.945,1.945,0,0,0,40.057-20,10.349,10.349,0,0,0,39.479-16.031Zm7.156,0a9.874,9.874,0,0,1-1.2,5.383,3.931,3.931,0,0,1-3.508,1.82,3.836,3.836,0,0,1-3.4-1.859,9.8,9.8,0,0,1-1.211-5.344,9.924,9.924,0,0,1,1.164-5.344,3.841,3.841,0,0,1,3.445-1.8,3.922,3.922,0,0,1,3.484,1.859A9.616,9.616,0,0,1,46.635-16.031Zm6.594,9.156a10.467,10.467,0,0,0,.578,3.992A1.955,1.955,0,0,0,55.7-1.562a2.042,2.042,0,0,0,1.938-1.3,9.737,9.737,0,0,0,.625-4.008,9.521,9.521,0,0,0-.625-3.961A2.043,2.043,0,0,0,55.7-12.125a1.954,1.954,0,0,0-1.891,1.289A10.215,10.215,0,0,0,53.229-6.875Zm7.172,0a9.838,9.838,0,0,1-1.2,5.367A3.931,3.931,0,0,1,55.7.313a3.826,3.826,0,0,1-3.414-1.859,9.872,9.872,0,0,1-1.2-5.328,9.924,9.924,0,0,1,1.164-5.344,3.841,3.841,0,0,1,3.445-1.8,3.95,3.95,0,0,1,3.461,1.836A9.451,9.451,0,0,1,60.4-6.875ZM56.37-22.844,43.7,0H41.4L54.073-22.844Z" transform="translate(217.49 136)"/>
  <text id="_3" data-name=" " class="cls-12" transform="translate(279.474 136)"><tspan x="0" y="0"> </tspan></text>
  <path id="패스_28233" data-name="패스 28233" class="cls-6" d="M3.824,3.152l.912-.432a14.749,14.749,0,0,1-2.048-7.7,14.79,14.79,0,0,1,2.048-7.7l-.912-.416A14.943,14.943,0,0,0,1.472-4.976,15,15,0,0,0,3.824,3.152ZM9.264.208A3.809,3.809,0,0,0,13.1-3.824c0-2.576-1.584-3.728-3.536-3.728a3.368,3.368,0,0,0-1.744.464l.288-3.392h4.432v-1.248H6.832L6.464-6.24l.784.48A3.191,3.191,0,0,1,9.2-6.448a2.373,2.373,0,0,1,2.432,2.672,2.535,2.535,0,0,1-2.5,2.768,3.858,3.858,0,0,1-2.88-1.3l-.72.96A4.982,4.982,0,0,0,9.264.208Zm9.2-1.136c-1.472,0-2.352-1.328-2.528-3.76a3.057,3.057,0,0,1,2.4-1.5c1.424,0,2.112,1.008,2.112,2.592C20.448-2,19.584-.928,18.464-.928Zm3.152-9.824a3.6,3.6,0,0,0-2.736-1.2c-2.272,0-4.336,1.76-4.336,6.352,0,3.872,1.664,5.808,3.92,5.808A3.522,3.522,0,0,0,21.824-3.6c0-2.448-1.264-3.68-3.248-3.68A3.648,3.648,0,0,0,15.9-5.856c.064-3.648,1.424-4.88,3.024-4.88a2.48,2.48,0,0,1,1.888.9ZM24.432.208A1.057,1.057,0,0,0,25.488-.9a1.085,1.085,0,0,0-1.056-1.136A1.085,1.085,0,0,0,23.376-.9,1.057,1.057,0,0,0,24.432.208ZM29.52,0h1.52c.176-4.592.688-7.312,3.44-10.848v-.88H27.136v1.248h5.68C30.528-7.28,29.712-4.448,29.52,0Zm14.7-6.256a4.926,4.926,0,0,1-3.488-4.4v-.528h3.152v-1.072H36.224v1.072h3.2v.544a5.23,5.23,0,0,1-3.616,4.7L36.5-4.912A6.082,6.082,0,0,0,40.112-8.48a5.921,5.921,0,0,0,3.456,3.248ZM39.536-3.024H46.3v2.96H39.536ZM38.256.992h9.328V-4.064H38.256Zm8-14.16v3.6H43.424V-8.48h2.832v3.712h1.328v-8.4ZM50.9,3.152a14.874,14.874,0,0,0,2.368-8.128A14.82,14.82,0,0,0,50.9-13.088l-.9.416a14.943,14.943,0,0,1,2.048,7.7A14.9,14.9,0,0,1,50,2.72Z" transform="translate(224.748 159)"/>
  <path id="패스_28230" data-name="패스 28230" class="cls-13" d="M5.219.221c2.737,0,4.4-1.632,4.4-3.638,0-1.836-1.071-2.754-2.55-3.383L5.355-7.531c-1.02-.408-2.023-.816-2.023-1.887,0-1,.833-1.615,2.108-1.615A3.985,3.985,0,0,1,8.194-9.911l1.037-1.258A5.359,5.359,0,0,0,5.44-12.75c-2.38,0-4.114,1.479-4.114,3.451a3.6,3.6,0,0,0,2.55,3.281L5.61-5.27c1.156.51,2.006.867,2.006,2.006,0,1.054-.85,1.768-2.363,1.768A4.851,4.851,0,0,1,1.921-2.975L.765-1.615A6.242,6.242,0,0,0,5.219.221Zm8.891,0a5.982,5.982,0,0,0,1.836-.34l-.357-1.445a2.788,2.788,0,0,1-1,.221c-.969,0-1.36-.578-1.36-1.7V-7.786h2.431V-9.35H13.226v-2.584H11.577L11.356-9.35l-1.445.1v1.462h1.36V-3.06C11.271-1.088,12,.221,14.11.221Zm5.287,0a4.648,4.648,0,0,0,2.975-1.292h.051L22.593,0h1.6V-5.627c0-2.482-1.071-3.961-3.4-3.961a7.162,7.162,0,0,0-3.774,1.224l.731,1.326a5.142,5.142,0,0,1,2.7-.952c1.377,0,1.768.952,1.785,2.04-3.893.425-5.593,1.462-5.593,3.468A2.583,2.583,0,0,0,19.4.221Zm.6-1.547c-.833,0-1.462-.374-1.462-1.292,0-1.054.935-1.751,3.706-2.091v2.3A3.3,3.3,0,0,1,19.992-1.326ZM26.741,0h1.938V-6.63a3.193,3.193,0,0,1,2.3-1.275c1.1,0,1.581.646,1.581,2.261V0H34.51V-5.882c0-2.38-.884-3.706-2.873-3.706a4.455,4.455,0,0,0-3.094,1.53h-.051L28.339-9.35h-1.6Zm13.7.221a3.919,3.919,0,0,0,2.72-1.275h.051L43.384,0h1.6V-13.549H43.027v3.468l.085,1.547A3.607,3.607,0,0,0,40.6-9.588c-2.091,0-4.012,1.887-4.012,4.93C36.584-1.564,38.1.221,40.443.221ZM40.9-1.394c-1.462,0-2.295-1.173-2.295-3.3,0-2.023,1.054-3.264,2.363-3.264a2.932,2.932,0,0,1,2.057.85v4.573A2.748,2.748,0,0,1,40.9-1.394ZM49.844.221a4.648,4.648,0,0,0,2.975-1.292h.051L53.04,0h1.6V-5.627c0-2.482-1.071-3.961-3.4-3.961a7.162,7.162,0,0,0-3.774,1.224l.731,1.326a5.142,5.142,0,0,1,2.7-.952c1.377,0,1.768.952,1.785,2.04-3.893.425-5.593,1.462-5.593,3.468A2.583,2.583,0,0,0,49.844.221Zm.6-1.547c-.833,0-1.462-.374-1.462-1.292,0-1.054.935-1.751,3.706-2.091v2.3A3.3,3.3,0,0,1,50.439-1.326ZM57.188,0h1.938V-5.831c.6-1.479,1.513-2.006,2.278-2.006a2.766,2.766,0,0,1,.935.153l.357-1.7a2.326,2.326,0,0,0-1.054-.2A3.232,3.232,0,0,0,58.99-7.667h-.051L58.786-9.35h-1.6Zm9.775.221a3.919,3.919,0,0,0,2.72-1.275h.051L69.9,0h1.6V-13.549H69.547v3.468l.085,1.547a3.607,3.607,0,0,0-2.516-1.054c-2.091,0-4.012,1.887-4.012,4.93C63.1-1.564,64.617.221,66.963.221Zm.459-1.615c-1.462,0-2.3-1.173-2.3-3.3,0-2.023,1.054-3.264,2.363-3.264a2.932,2.932,0,0,1,2.057.85v4.573A2.748,2.748,0,0,1,67.422-1.394Z" transform="translate(53.003 119.768)"/>
  <path id="패스_28231" data-name="패스 28231" class="cls-13" d="M5.219.221c2.737,0,4.4-1.632,4.4-3.638,0-1.836-1.071-2.754-2.55-3.383L5.355-7.531c-1.02-.408-2.023-.816-2.023-1.887,0-1,.833-1.615,2.108-1.615A3.985,3.985,0,0,1,8.194-9.911l1.037-1.258A5.359,5.359,0,0,0,5.44-12.75c-2.38,0-4.114,1.479-4.114,3.451a3.6,3.6,0,0,0,2.55,3.281L5.61-5.27c1.156.51,2.006.867,2.006,2.006,0,1.054-.85,1.768-2.363,1.768A4.851,4.851,0,0,1,1.921-2.975L.765-1.615A6.242,6.242,0,0,0,5.219.221Zm8.755,0a4.648,4.648,0,0,0,2.975-1.292H17L17.17,0h1.6V-5.627c0-2.482-1.071-3.961-3.4-3.961a7.162,7.162,0,0,0-3.774,1.224l.731,1.326a5.142,5.142,0,0,1,2.7-.952c1.377,0,1.768.952,1.785,2.04-3.893.425-5.593,1.462-5.593,3.468A2.583,2.583,0,0,0,13.974.221Zm.6-1.547c-.833,0-1.462-.374-1.462-1.292,0-1.054.935-1.751,3.706-2.091v2.3A3.3,3.3,0,0,1,14.569-1.326ZM24.089.221a5.982,5.982,0,0,0,1.836-.34l-.357-1.445a2.788,2.788,0,0,1-1,.221c-.969,0-1.36-.578-1.36-1.7V-7.786h2.431V-9.35H23.2v-2.584H21.556L21.335-9.35l-1.445.1v1.462h1.36V-3.06C21.25-1.088,21.981.221,24.089.221ZM27.489,0h1.938V-9.35H27.489Zm.969-11.1a1.173,1.173,0,0,0,1.258-1.156,1.163,1.163,0,0,0-1.258-1.156,1.149,1.149,0,0,0-1.241,1.156A1.158,1.158,0,0,0,28.458-11.1ZM34.68.221c2.312,0,3.553-1.275,3.553-2.839,0-1.768-1.445-2.346-2.754-2.839-1.02-.374-1.989-.68-1.989-1.479,0-.646.476-1.156,1.5-1.156a3.5,3.5,0,0,1,2.091.816l.918-1.207a4.922,4.922,0,0,0-3.043-1.105c-2.057,0-3.315,1.173-3.315,2.737,0,1.581,1.428,2.244,2.669,2.72,1.02.391,2.074.765,2.074,1.615,0,.714-.527,1.258-1.649,1.258a4.144,4.144,0,0,1-2.652-1.071l-.918,1.258A5.751,5.751,0,0,0,34.68.221ZM45.237-13.447a4.245,4.245,0,0,0-1.649-.323c-2.091,0-2.958,1.326-2.958,3.247V-9.35l-1.275.1v1.462H40.63V0h1.955V-7.786h1.887V-9.35H42.585v-1.19c0-1.139.408-1.683,1.241-1.683a2.543,2.543,0,0,1,1.02.238ZM47.94.221a4.648,4.648,0,0,0,2.975-1.292h.051L51.136,0h1.6V-5.627c0-2.482-1.071-3.961-3.4-3.961A7.162,7.162,0,0,0,45.56-8.364l.731,1.326a5.142,5.142,0,0,1,2.7-.952c1.377,0,1.768.952,1.785,2.04-3.893.425-5.593,1.462-5.593,3.468A2.583,2.583,0,0,0,47.94.221Zm.6-1.547c-.833,0-1.462-.374-1.462-1.292,0-1.054.935-1.751,3.706-2.091v2.3A3.3,3.3,0,0,1,48.535-1.326ZM59.177.221A4.556,4.556,0,0,0,62.2-.935l-.8-1.292a3.2,3.2,0,0,1-2.04.85c-1.564,0-2.635-1.309-2.635-3.281,0-1.989,1.122-3.315,2.686-3.315a2.45,2.45,0,0,1,1.683.731l.969-1.275A4.014,4.014,0,0,0,59.33-9.588a4.594,4.594,0,0,0-4.624,4.93C54.706-1.564,56.644.221,59.177.221Zm8.109,0a5.982,5.982,0,0,0,1.836-.34l-.357-1.445a2.788,2.788,0,0,1-1,.221c-.969,0-1.36-.578-1.36-1.7V-7.786h2.431V-9.35H66.4v-2.584H64.753L64.532-9.35l-1.445.1v1.462h1.36V-3.06C64.447-1.088,65.178.221,67.286.221ZM70.686,0h1.938V-9.35H70.686Zm.969-11.1a1.173,1.173,0,0,0,1.258-1.156,1.163,1.163,0,0,0-1.258-1.156,1.149,1.149,0,0,0-1.241,1.156A1.158,1.158,0,0,0,71.655-11.1ZM79.084.221c2.312,0,4.4-1.785,4.4-4.879,0-3.128-2.091-4.93-4.4-4.93s-4.4,1.8-4.4,4.93C74.681-1.564,76.772.221,79.084.221Zm0-1.6c-1.462,0-2.38-1.309-2.38-3.281,0-1.989.918-3.315,2.38-3.315,1.479,0,2.4,1.326,2.4,3.315C81.481-2.686,80.563-1.377,79.084-1.377ZM85.595,0h1.938V-6.63a3.193,3.193,0,0,1,2.295-1.275c1.105,0,1.581.646,1.581,2.261V0h1.955V-5.882c0-2.38-.884-3.706-2.873-3.706A4.455,4.455,0,0,0,87.4-8.058h-.051L87.193-9.35h-1.6Z" transform="translate(42.259 142.769)"/>
  <path id="패스_28232" data-name="패스 28232" class="cls-13" d="M3.621-10.931H5.508c1.819,0,2.8.527,2.8,2.04S7.327-6.63,5.508-6.63H3.621ZM10.71,0,7.65-5.3a3.483,3.483,0,0,0,2.618-3.587c0-2.7-1.938-3.621-4.522-3.621h-4.1V0H3.621V-5.049H5.644L8.483,0Zm3.757.221a4.648,4.648,0,0,0,2.975-1.292h.051L17.663,0h1.6V-5.627c0-2.482-1.071-3.961-3.4-3.961a7.162,7.162,0,0,0-3.774,1.224l.731,1.326a5.142,5.142,0,0,1,2.7-.952c1.377,0,1.768.952,1.785,2.04-3.893.425-5.593,1.462-5.593,3.468A2.583,2.583,0,0,0,14.467.221Zm.6-1.547c-.833,0-1.462-.374-1.462-1.292,0-1.054.935-1.751,3.706-2.091v2.3A3.3,3.3,0,0,1,15.062-1.326ZM24.582.221a5.982,5.982,0,0,0,1.836-.34l-.357-1.445a2.788,2.788,0,0,1-1,.221c-.969,0-1.36-.578-1.36-1.7V-7.786h2.431V-9.35H23.7v-2.584H22.049L21.828-9.35l-1.445.1v1.462h1.36V-3.06C21.743-1.088,22.474.221,24.582.221Zm6.817,0a5.673,5.673,0,0,0,3.162-.986l-.68-1.241a3.97,3.97,0,0,1-2.227.7,2.824,2.824,0,0,1-2.89-2.856h6.069a5.053,5.053,0,0,0,.085-.986c0-2.652-1.326-4.437-3.808-4.437-2.193,0-4.267,1.887-4.267,4.93C26.843-1.581,28.866.221,31.4.221ZM28.747-5.508a2.536,2.536,0,0,1,2.4-2.55c1.36,0,2.091.935,2.091,2.55Z" transform="translate(71.855 165.77)"/>
</svg>
