<svg id="구성_요소_140_1" data-name="구성 요소 140 – 1" xmlns="http://www.w3.org/2000/svg" width="836" height="299.68" viewBox="0 0 836 299.68">
  <defs>
    <style>
      .cls-1 {
        fill: #f5f6f7;
      }

      .cls-2 {
        fill: #fcf1db;
      }

      .cls-3 {
        fill: #e6e6e6;
      }

      .cls-4 {
        fill: none;
        stroke: #665138;
        stroke-width: 0.5px;
      }

      .cls-5 {
        fill: #fff;
      }

      .cls-6 {
        fill: #1d2222;
      }

      .cls-7 {
        fill: #d6a803;
      }

      .cls-8 {
        fill: #665138;
      }

      .cls-9 {
        fill: #fcf1da;
      }

      .cls-10 {
        fill: #f4f5f5;
      }

      .cls-11 {
        fill: #e5e5e6;
      }
    </style>
  </defs>
  <rect id="사각형_307" data-name="사각형 307" class="cls-1" width="836" height="299.68"/>
  <rect id="사각형_308" data-name="사각형 308" class="cls-2" width="633" height="82" transform="translate(20 179.957)"/>
  <rect id="사각형_309" data-name="사각형 309" class="cls-3" width="144" height="82" transform="translate(672 179.957)"/>
  <line id="선_1023" data-name="선 1023" class="cls-4" y2="151.375" transform="translate(417.12 39.403)"/>
  <path id="패스_26789" data-name="패스 26789" class="cls-4" d="M789.245,3292.584v-21.458H144.628v21.458" transform="translate(-48.937 -3102.807)"/>
  <rect id="사각형_310" data-name="사각형 310" class="cls-5" width="110.38" height="29.5" transform="translate(40.25 190.027)"/>
  <rect id="사각형_311" data-name="사각형 311" class="cls-4" width="110.38" height="29.5" transform="translate(40.25 190.027)"/>
  <g id="그룹_23873" data-name="그룹 23873" transform="translate(-48.937 -3102.807)">
    <path id="패스_26790" data-name="패스 26790" class="cls-6" d="M96.662,3312.057l.481-.547a3.645,3.645,0,0,0,2.743,1.261c1.4,0,2.275-.742,2.275-1.82,0-1.144-.741-1.508-1.677-1.924l-1.417-.625a2.627,2.627,0,0,1-1.924-2.365,2.526,2.526,0,0,1,2.808-2.379,3.617,3.617,0,0,1,2.678,1.145l-.442.506a3.038,3.038,0,0,0-2.236-.95c-1.209,0-2.015.637-2.015,1.614,0,1.078.923,1.48,1.612,1.781l1.417.623c1.079.48,1.989,1.078,1.989,2.521s-1.209,2.575-3.068,2.575A4.224,4.224,0,0,1,96.662,3312.057Z"/>
    <path id="패스_26791" data-name="패스 26791" class="cls-6" d="M104.6,3310.809v-4.434h.754v4.342c0,1.418.442,2.08,1.508,2.08.806,0,1.379-.416,2.158-1.352v-5.07h.754v6.93h-.636l-.065-1.145h-.039a3.082,3.082,0,0,1-2.341,1.313C105.254,3313.473,104.6,3312.59,104.6,3310.809Z"/>
    <path id="패스_26792" data-name="패스 26792" class="cls-6" d="M112.846,3312.6h-.026l-.091.7h-.61v-10.336h.754v2.965l-.04,1.326a3.828,3.828,0,0,1,2.34-1.067c1.847,0,2.783,1.4,2.783,3.536,0,2.367-1.431,3.744-3.056,3.744A3.426,3.426,0,0,1,112.846,3312.6Zm4.3-2.873c0-1.665-.571-2.874-2.118-2.874a3.414,3.414,0,0,0-2.158,1.106v4a3.119,3.119,0,0,0,1.962.846C116.187,3312.811,117.149,3311.588,117.149,3309.729Z"/>
    <path id="패스_26793" data-name="패스 26793" class="cls-6" d="M119.411,3309.846c0-2.315,1.495-3.653,3.211-3.653a2.933,2.933,0,0,1,2.028.844l-.429.522a2.268,2.268,0,0,0-1.586-.7c-1.378,0-2.431,1.223-2.431,2.991s.962,2.976,2.418,2.976a2.766,2.766,0,0,0,1.807-.765l.364.519a3.353,3.353,0,0,1-2.21.9C120.776,3313.473,119.411,3312.146,119.411,3309.846Z"/>
    <path id="패스_26794" data-name="패스 26794" class="cls-6" d="M125.69,3309.846c0-2.315,1.456-3.653,3.134-3.653s3.133,1.338,3.133,3.653-1.457,3.627-3.133,3.627S125.69,3312.146,125.69,3309.846Zm5.487,0c0-1.768-1-2.991-2.353-2.991s-2.341,1.223-2.341,2.991.989,2.976,2.341,2.976S131.177,3311.613,131.177,3309.846Z"/>
    <path id="패스_26795" data-name="패스 26795" class="cls-6" d="M133.841,3306.375h.624l.091,1.053h.026a3.214,3.214,0,0,1,2.184-1.235,1.8,1.8,0,0,1,1.911,1.4,3.462,3.462,0,0,1,2.34-1.4c1.391,0,2.08.9,2.08,2.678v4.434h-.754v-4.33c0-1.444-.481-2.106-1.495-2.106a2.923,2.923,0,0,0-2,1.248v5.188h-.754v-4.33c0-1.444-.468-2.106-1.495-2.106a2.923,2.923,0,0,0-2,1.248v5.188h-.754Z"/>
    <path id="패스_26796" data-name="패스 26796" class="cls-6" d="M145.4,3306.375h.624l.091,1.053h.026a3.214,3.214,0,0,1,2.184-1.235,1.8,1.8,0,0,1,1.911,1.4,3.462,3.462,0,0,1,2.341-1.4c1.39,0,2.08.9,2.08,2.678v4.434H153.9v-4.33c0-1.444-.481-2.106-1.495-2.106a2.925,2.925,0,0,0-2,1.248v5.188h-.754v-4.33c0-1.444-.468-2.106-1.495-2.106a2.923,2.923,0,0,0-2,1.248v5.188H145.4Z"/>
    <path id="패스_26797" data-name="패스 26797" class="cls-6" d="M156.7,3304.152a.6.6,0,0,1,.637-.625.612.612,0,1,1-.637.625Zm.247,2.223h.754v6.93h-.754Z"/>
    <path id="패스_26798" data-name="패스 26798" class="cls-6" d="M160.335,3311.328v-4.316h-1.079v-.573l1.1-.064.091-2h.637v2h1.989v.637h-1.989v4.369c0,.871.234,1.441,1.157,1.441a2.443,2.443,0,0,0,.845-.193l.182.584a3.95,3.95,0,0,1-1.157.26C160.751,3313.473,160.335,3312.615,160.335,3311.328Z"/>
    <path id="패스_26799" data-name="패스 26799" class="cls-6" d="M165.249,3311.328v-4.316H164.17v-.573l1.1-.064.091-2H166v2h1.989v.637H166v4.369c0,.871.234,1.441,1.157,1.441a2.443,2.443,0,0,0,.845-.193l.182.584a3.95,3.95,0,0,1-1.157.26C165.665,3313.473,165.249,3312.615,165.249,3311.328Z"/>
    <path id="패스_26800" data-name="패스 26800" class="cls-6" d="M168.85,3309.846c0-2.248,1.469-3.653,3.042-3.653,1.677,0,2.678,1.2,2.678,3.225a3.589,3.589,0,0,1-.039.545h-4.914c.039,1.689,1.04,2.873,2.535,2.873a3.1,3.1,0,0,0,1.846-.6l.286.559a3.878,3.878,0,0,1-2.21.676C170.292,3313.473,168.85,3312.121,168.85,3309.846Zm5.031-.481c0-1.677-.767-2.521-1.976-2.521a2.467,2.467,0,0,0-2.288,2.521Z"/>
    <path id="패스_26801" data-name="패스 26801" class="cls-6" d="M175.921,3309.846c0-2.248,1.47-3.653,3.042-3.653,1.678,0,2.679,1.2,2.679,3.225a3.722,3.722,0,0,1-.039.545h-4.915c.04,1.689,1.041,2.873,2.536,2.873a3.107,3.107,0,0,0,1.846-.6l.285.559a3.877,3.877,0,0,1-2.209.676C177.364,3313.473,175.921,3312.121,175.921,3309.846Zm5.032-.481c0-1.677-.767-2.521-1.976-2.521a2.467,2.467,0,0,0-2.289,2.521Z"/>
    <path id="패스_26802" data-name="패스 26802" class="cls-6" d="M186.269,3312.641h2.146v-7.709h-1.652v-.506a5.463,5.463,0,0,0,1.807-.6h.611v8.815h1.977v.664h-4.889Z"/>
  </g>
  <rect id="사각형_312" data-name="사각형 312" class="cls-5" width="110.38" height="29.5" transform="translate(362.81 190.027)"/>
  <rect id="사각형_313" data-name="사각형 313" class="cls-4" width="110.38" height="29.5" transform="translate(362.81 190.027)"/>
  <g id="그룹_23874" data-name="그룹 23874" transform="translate(-48.937 -3102.807)">
    <path id="패스_26803" data-name="패스 26803" class="cls-6" d="M419.222,3312.057l.481-.547a3.645,3.645,0,0,0,2.743,1.261c1.4,0,2.275-.742,2.275-1.82,0-1.144-.741-1.508-1.677-1.924l-1.418-.625a2.628,2.628,0,0,1-1.923-2.365,2.526,2.526,0,0,1,2.808-2.379,3.617,3.617,0,0,1,2.678,1.145l-.442.506a3.038,3.038,0,0,0-2.236-.95c-1.209,0-2.015.637-2.015,1.614,0,1.078.922,1.48,1.612,1.781l1.417.623c1.079.48,1.989,1.078,1.989,2.521s-1.209,2.575-3.068,2.575A4.224,4.224,0,0,1,419.222,3312.057Z"/>
    <path id="패스_26804" data-name="패스 26804" class="cls-6" d="M427.165,3310.809v-4.434h.753v4.342c0,1.418.442,2.08,1.508,2.08.806,0,1.378-.416,2.158-1.352v-5.07h.754v6.93H431.7l-.066-1.145H431.6a3.082,3.082,0,0,1-2.341,1.313C427.814,3313.473,427.165,3312.59,427.165,3310.809Z"/>
    <path id="패스_26805" data-name="패스 26805" class="cls-6" d="M435.407,3312.6h-.027l-.09.7h-.612v-10.336h.755v2.965l-.039,1.326a3.826,3.826,0,0,1,2.339-1.067c1.847,0,2.783,1.4,2.783,3.536,0,2.367-1.431,3.744-3.056,3.744A3.423,3.423,0,0,1,435.407,3312.6Zm4.3-2.873c0-1.665-.571-2.874-2.119-2.874a3.415,3.415,0,0,0-2.157,1.106v4a3.119,3.119,0,0,0,1.963.846C438.748,3312.811,439.709,3311.588,439.709,3309.729Z"/>
    <path id="패스_26806" data-name="패스 26806" class="cls-6" d="M441.971,3309.846c0-2.315,1.495-3.653,3.211-3.653a2.933,2.933,0,0,1,2.028.844l-.429.522a2.266,2.266,0,0,0-1.586-.7c-1.378,0-2.431,1.223-2.431,2.991s.962,2.976,2.418,2.976a2.766,2.766,0,0,0,1.807-.765l.365.519a3.357,3.357,0,0,1-2.211.9C443.336,3313.473,441.971,3312.146,441.971,3309.846Z"/>
    <path id="패스_26807" data-name="패스 26807" class="cls-6" d="M448.25,3309.846c0-2.315,1.457-3.653,3.134-3.653s3.133,1.338,3.133,3.653-1.456,3.627-3.133,3.627S448.25,3312.146,448.25,3309.846Zm5.487,0c0-1.768-1-2.991-2.353-2.991s-2.341,1.223-2.341,2.991.989,2.976,2.341,2.976S453.737,3311.613,453.737,3309.846Z"/>
    <path id="패스_26808" data-name="패스 26808" class="cls-6" d="M456.4,3306.375h.624l.091,1.053h.026a3.214,3.214,0,0,1,2.184-1.235,1.8,1.8,0,0,1,1.911,1.4,3.46,3.46,0,0,1,2.341-1.4c1.39,0,2.08.9,2.08,2.678v4.434H464.9v-4.33c0-1.444-.481-2.106-1.5-2.106a2.923,2.923,0,0,0-2,1.248v5.188h-.754v-4.33c0-1.444-.468-2.106-1.495-2.106a2.923,2.923,0,0,0-2,1.248v5.188H456.4Z"/>
    <path id="패스_26809" data-name="패스 26809" class="cls-6" d="M467.958,3306.375h.625l.09,1.053h.026a3.216,3.216,0,0,1,2.184-1.235,1.8,1.8,0,0,1,1.911,1.4,3.464,3.464,0,0,1,2.34-1.4c1.391,0,2.08.9,2.08,2.678v4.434h-.754v-4.33c0-1.444-.481-2.106-1.495-2.106a2.925,2.925,0,0,0-2,1.248v5.188h-.754v-4.33c0-1.444-.468-2.106-1.5-2.106a2.925,2.925,0,0,0-2,1.248v5.188h-.754Z"/>
    <path id="패스_26810" data-name="패스 26810" class="cls-6" d="M479.255,3304.152a.6.6,0,0,1,.637-.625.612.612,0,1,1-.637.625Zm.247,2.223h.754v6.93H479.5Z"/>
    <path id="패스_26811" data-name="패스 26811" class="cls-6" d="M482.895,3311.328v-4.316h-1.079v-.573l1.1-.064.091-2h.637v2h1.989v.637h-1.989v4.369c0,.871.234,1.441,1.157,1.441a2.443,2.443,0,0,0,.845-.193l.182.584a3.95,3.95,0,0,1-1.157.26C483.311,3313.473,482.895,3312.615,482.895,3311.328Z"/>
    <path id="패스_26812" data-name="패스 26812" class="cls-6" d="M487.809,3311.328v-4.316H486.73v-.573l1.1-.064.091-2h.637v2h1.989v.637h-1.989v4.369c0,.871.234,1.441,1.157,1.441a2.443,2.443,0,0,0,.845-.193l.182.584a3.95,3.95,0,0,1-1.157.26C488.225,3313.473,487.809,3312.615,487.809,3311.328Z"/>
    <path id="패스_26813" data-name="패스 26813" class="cls-6" d="M491.41,3309.846c0-2.248,1.469-3.653,3.042-3.653,1.677,0,2.678,1.2,2.678,3.225a3.589,3.589,0,0,1-.039.545h-4.914c.039,1.689,1.04,2.873,2.535,2.873a3.1,3.1,0,0,0,1.846-.6l.286.559a3.878,3.878,0,0,1-2.21.676C492.853,3313.473,491.41,3312.121,491.41,3309.846Zm5.031-.481c0-1.677-.767-2.521-1.976-2.521a2.466,2.466,0,0,0-2.288,2.521Z"/>
    <path id="패스_26814" data-name="패스 26814" class="cls-6" d="M498.481,3309.846c0-2.248,1.47-3.653,3.042-3.653,1.678,0,2.679,1.2,2.679,3.225a3.724,3.724,0,0,1-.039.545h-4.914c.039,1.689,1.04,2.873,2.535,2.873a3.1,3.1,0,0,0,1.845-.6l.287.559a3.881,3.881,0,0,1-2.21.676C499.924,3313.473,498.481,3312.121,498.481,3309.846Zm5.032-.481c0-1.677-.767-2.521-1.976-2.521a2.467,2.467,0,0,0-2.288,2.521Z"/>
    <path id="패스_26815" data-name="패스 26815" class="cls-6" d="M508.036,3312.174l.429-.508a3.238,3.238,0,0,0,2.5,1.156,1.971,1.971,0,0,0,2.106-2.027c0-1.274-.883-2.133-3.146-2.133v-.637c2.08,0,2.808-.9,2.808-2.027a1.66,1.66,0,0,0-1.793-1.717,2.983,2.983,0,0,0-2.081,1l-.441-.519a3.676,3.676,0,0,1,2.534-1.119,2.306,2.306,0,0,1,2.561,2.3,2.363,2.363,0,0,1-1.741,2.34v.067a2.467,2.467,0,0,1,2.08,2.443,2.651,2.651,0,0,1-2.861,2.678A3.834,3.834,0,0,1,508.036,3312.174Z"/>
  </g>
  <rect id="사각형_314" data-name="사각형 314" class="cls-5" width="110.38" height="29.5" transform="translate(685.37 190.027)"/>
  <rect id="사각형_315" data-name="사각형 315" class="cls-4" width="110.38" height="29.5" transform="translate(685.37 190.027)"/>
  <g id="그룹_23875" data-name="그룹 23875" transform="translate(-48.937 -3102.807)">
    <path id="패스_26816" data-name="패스 26816" class="cls-6" d="M741.782,3312.057l.481-.547a3.645,3.645,0,0,0,2.743,1.261c1.4,0,2.275-.742,2.275-1.82,0-1.144-.741-1.508-1.677-1.924l-1.417-.625a2.627,2.627,0,0,1-1.924-2.365,2.526,2.526,0,0,1,2.808-2.379,3.617,3.617,0,0,1,2.678,1.145l-.442.506a3.038,3.038,0,0,0-2.236-.95c-1.209,0-2.015.637-2.015,1.614,0,1.078.923,1.48,1.612,1.781l1.417.623c1.079.48,1.989,1.078,1.989,2.521s-1.209,2.575-3.068,2.575A4.224,4.224,0,0,1,741.782,3312.057Z"/>
    <path id="패스_26817" data-name="패스 26817" class="cls-6" d="M749.724,3310.809v-4.434h.755v4.342c0,1.418.441,2.08,1.507,2.08.806,0,1.379-.416,2.159-1.352v-5.07h.753v6.93h-.636l-.065-1.145h-.039a3.082,3.082,0,0,1-2.341,1.313C750.375,3313.473,749.724,3312.59,749.724,3310.809Z"/>
    <path id="패스_26818" data-name="패스 26818" class="cls-6" d="M757.966,3312.6h-.026l-.09.7h-.611v-10.336h.754v2.965l-.039,1.326a3.826,3.826,0,0,1,2.339-1.067c1.847,0,2.783,1.4,2.783,3.536,0,2.367-1.43,3.744-3.055,3.744A3.431,3.431,0,0,1,757.966,3312.6Zm4.3-2.873c0-1.665-.572-2.874-2.119-2.874a3.414,3.414,0,0,0-2.158,1.106v4a3.121,3.121,0,0,0,1.963.846C761.308,3312.811,762.27,3311.588,762.27,3309.729Z"/>
    <path id="패스_26819" data-name="패스 26819" class="cls-6" d="M764.531,3309.846c0-2.315,1.495-3.653,3.211-3.653a2.934,2.934,0,0,1,2.029.844l-.43.522a2.266,2.266,0,0,0-1.586-.7c-1.378,0-2.431,1.223-2.431,2.991s.962,2.976,2.418,2.976a2.762,2.762,0,0,0,1.807-.765l.365.519a3.357,3.357,0,0,1-2.21.9C765.9,3313.473,764.531,3312.146,764.531,3309.846Z"/>
    <path id="패스_26820" data-name="패스 26820" class="cls-6" d="M770.811,3309.846c0-2.315,1.456-3.653,3.133-3.653s3.133,1.338,3.133,3.653-1.456,3.627-3.133,3.627S770.811,3312.146,770.811,3309.846Zm5.486,0c0-1.768-1-2.991-2.353-2.991s-2.34,1.223-2.34,2.991.988,2.976,2.34,2.976S776.3,3311.613,776.3,3309.846Z"/>
    <path id="패스_26821" data-name="패스 26821" class="cls-6" d="M778.961,3306.375h.624l.091,1.053h.026a3.214,3.214,0,0,1,2.184-1.235,1.8,1.8,0,0,1,1.911,1.4,3.464,3.464,0,0,1,2.34-1.4c1.391,0,2.08.9,2.08,2.678v4.434h-.754v-4.33c0-1.444-.481-2.106-1.495-2.106a2.925,2.925,0,0,0-2,1.248v5.188h-.754v-4.33c0-1.444-.468-2.106-1.495-2.106a2.923,2.923,0,0,0-2,1.248v5.188h-.754Z"/>
    <path id="패스_26822" data-name="패스 26822" class="cls-6" d="M790.518,3306.375h.624l.091,1.053h.026a3.216,3.216,0,0,1,2.184-1.235,1.8,1.8,0,0,1,1.911,1.4,3.462,3.462,0,0,1,2.341-1.4c1.39,0,2.08.9,2.08,2.678v4.434h-.754v-4.33c0-1.444-.481-2.106-1.5-2.106a2.925,2.925,0,0,0-2,1.248v5.188h-.753v-4.33c0-1.444-.469-2.106-1.5-2.106a2.925,2.925,0,0,0-2,1.248v5.188h-.754Z"/>
    <path id="패스_26823" data-name="패스 26823" class="cls-6" d="M801.815,3304.152a.6.6,0,0,1,.637-.625.612.612,0,1,1-.637.625Zm.247,2.223h.754v6.93h-.754Z"/>
    <path id="패스_26824" data-name="패스 26824" class="cls-6" d="M805.455,3311.328v-4.316h-1.079v-.573l1.105-.064.091-2h.637v2H808.2v.637h-1.989v4.369c0,.871.234,1.441,1.157,1.441a2.443,2.443,0,0,0,.845-.193l.182.584a3.95,3.95,0,0,1-1.157.26C805.871,3313.473,805.455,3312.615,805.455,3311.328Z"/>
    <path id="패스_26825" data-name="패스 26825" class="cls-6" d="M810.369,3311.328v-4.316H809.29v-.573l1.105-.064.091-2h.637v2h1.989v.637h-1.989v4.369c0,.871.234,1.441,1.157,1.441a2.443,2.443,0,0,0,.845-.193l.182.584a3.95,3.95,0,0,1-1.157.26C810.785,3313.473,810.369,3312.615,810.369,3311.328Z"/>
    <path id="패스_26826" data-name="패스 26826" class="cls-6" d="M813.97,3309.846c0-2.248,1.469-3.653,3.042-3.653,1.677,0,2.678,1.2,2.678,3.225a3.589,3.589,0,0,1-.039.545h-4.914c.039,1.689,1.04,2.873,2.535,2.873a3.1,3.1,0,0,0,1.846-.6l.286.559a3.878,3.878,0,0,1-2.21.676C815.413,3313.473,813.97,3312.121,813.97,3309.846Zm5.031-.481c0-1.677-.767-2.521-1.976-2.521a2.467,2.467,0,0,0-2.288,2.521Z"/>
    <path id="패스_26827" data-name="패스 26827" class="cls-6" d="M821.042,3309.846c0-2.248,1.469-3.653,3.041-3.653,1.678,0,2.679,1.2,2.679,3.225a3.589,3.589,0,0,1-.039.545h-4.914c.039,1.689,1.04,2.873,2.535,2.873a3.107,3.107,0,0,0,1.846-.6l.286.559a3.878,3.878,0,0,1-2.21.676C822.484,3313.473,821.042,3312.121,821.042,3309.846Zm5.031-.481c0-1.677-.767-2.521-1.976-2.521a2.466,2.466,0,0,0-2.288,2.521Z"/>
    <path id="패스_26828" data-name="패스 26828" class="cls-6" d="M830.557,3312.238l.416-.533a3.192,3.192,0,0,0,2.484,1.117,2.323,2.323,0,0,0,2.21-2.535,2.146,2.146,0,0,0-2.171-2.43,2.758,2.758,0,0,0-1.678.6l-.494-.3.325-4.33h4.33v.664h-3.653l-.274,3.186a2.915,2.915,0,0,1,1.587-.455c1.56,0,2.808.935,2.808,3.041a3,3,0,0,1-2.965,3.211A3.9,3.9,0,0,1,830.557,3312.238Z"/>
  </g>
  <line id="선_1024" data-name="선 1024" class="cls-4" x1="138.16" transform="translate(279.179 121.68)"/>
  <rect id="사각형_316" data-name="사각형 316" class="cls-7" width="132" height="30" transform="translate(149.6 106.68)"/>
  <g id="그룹_23876" data-name="그룹 23876" transform="translate(-48.937 -3102.807)">
    <path id="패스_26829" data-name="패스 26829" class="cls-5" d="M244.059,3223.824c0-3.241,1.971-5.185,4.483-5.185a3.822,3.822,0,0,1,2.822,1.256l-.85,1a2.646,2.646,0,0,0-1.945-.892c-1.715,0-2.9,1.432-2.9,3.768,0,2.363,1.107,3.808,2.863,3.808a2.892,2.892,0,0,0,2.2-1.053l.837.986a3.922,3.922,0,0,1-3.092,1.431C245.977,3228.942,244.059,3227.078,244.059,3223.824Z"/>
    <path id="패스_26830" data-name="패스 26830" class="cls-5" d="M252.537,3225.066a3.516,3.516,0,1,1,3.5,3.876A3.589,3.589,0,0,1,252.537,3225.066Zm5.4,0c0-1.58-.729-2.632-1.9-2.632s-1.89,1.052-1.89,2.632.729,2.607,1.89,2.607S257.938,3226.633,257.938,3225.066Z"/>
    <path id="패스_26831" data-name="패스 26831" class="cls-5" d="M260.34,3221.34h1.566l.986,4.023c.149.716.27,1.405.4,2.108h.054c.162-.7.311-1.405.486-2.108l1.04-4.023h1.445l1.067,4.023c.175.716.324,1.405.5,2.108h.053c.149-.7.27-1.392.433-2.108l.958-4.023h1.459l-1.918,7.427h-1.863l-.946-3.673c-.175-.7-.31-1.377-.472-2.148h-.068c-.149.771-.283,1.458-.472,2.161l-.9,3.66h-1.8Z"/>
    <path id="패스_26832" data-name="패스 26832" class="cls-5" d="M271.774,3226.795c0-1.594,1.351-2.417,4.443-2.755-.014-.864-.324-1.62-1.418-1.62a4.086,4.086,0,0,0-2.147.756l-.581-1.053a5.689,5.689,0,0,1,3-.973c1.85,0,2.7,1.175,2.7,3.147v4.47H276.5l-.135-.851h-.04a3.7,3.7,0,0,1-2.364,1.026A2.052,2.052,0,0,1,271.774,3226.795Zm4.443.055v-1.825c-2.2.271-2.944.825-2.944,1.663,0,.728.5,1.025,1.161,1.025A2.623,2.623,0,0,0,276.217,3226.85Z"/>
    <path id="패스_26833" data-name="패스 26833" class="cls-5" d="M282.926,3229.213c-.58,1.593-1.364,2.66-2.93,2.66a2.681,2.681,0,0,1-.932-.148l.3-1.216a2.03,2.03,0,0,0,.54.108c.81,0,1.283-.595,1.553-1.391l.149-.513-2.944-7.373h1.593l1.378,3.821c.216.661.446,1.4.675,2.093h.068l.58-2.093,1.189-3.821h1.512Z"/>
  </g>
  <line id="선_1025" data-name="선 1025" class="cls-4" y1="21.708" transform="translate(579.531 168.069)"/>
  <line id="선_1026" data-name="선 1026" class="cls-4" y1="22.708" transform="translate(256.968 168.069)"/>
  <rect id="사각형_317" data-name="사각형 317" class="cls-5" width="110.38" height="29.5" transform="translate(201.53 190.027)"/>
  <rect id="사각형_318" data-name="사각형 318" class="cls-4" width="110.38" height="29.5" transform="translate(201.53 190.027)"/>
  <g id="그룹_23877" data-name="그룹 23877" transform="translate(-48.937 -3102.807)">
    <path id="패스_26834" data-name="패스 26834" class="cls-6" d="M257.942,3312.057l.481-.547a3.645,3.645,0,0,0,2.743,1.261c1.4,0,2.275-.742,2.275-1.82,0-1.144-.741-1.508-1.677-1.924l-1.417-.625a2.627,2.627,0,0,1-1.924-2.365,2.526,2.526,0,0,1,2.808-2.379,3.617,3.617,0,0,1,2.678,1.145l-.442.506a3.038,3.038,0,0,0-2.236-.95c-1.209,0-2.015.637-2.015,1.614,0,1.078.923,1.48,1.612,1.781l1.417.623c1.079.48,1.989,1.078,1.989,2.521s-1.209,2.575-3.068,2.575A4.224,4.224,0,0,1,257.942,3312.057Z"/>
    <path id="패스_26835" data-name="패스 26835" class="cls-6" d="M265.884,3310.809v-4.434h.755v4.342c0,1.418.442,2.08,1.507,2.08.807,0,1.379-.416,2.159-1.352v-5.07h.754v6.93h-.637l-.065-1.145h-.039a3.081,3.081,0,0,1-2.34,1.313C266.535,3313.473,265.884,3312.59,265.884,3310.809Z"/>
    <path id="패스_26836" data-name="패스 26836" class="cls-6" d="M274.126,3312.6H274.1l-.091.7H273.4v-10.336h.754v2.965l-.039,1.326a3.828,3.828,0,0,1,2.34-1.067c1.846,0,2.782,1.4,2.782,3.536,0,2.367-1.43,3.744-3.055,3.744A3.431,3.431,0,0,1,274.126,3312.6Zm4.3-2.873c0-1.665-.572-2.874-2.119-2.874a3.417,3.417,0,0,0-2.158,1.106v4a3.121,3.121,0,0,0,1.963.846C277.468,3312.811,278.43,3311.588,278.43,3309.729Z"/>
    <path id="패스_26837" data-name="패스 26837" class="cls-6" d="M280.691,3309.846c0-2.315,1.5-3.653,3.211-3.653a2.934,2.934,0,0,1,2.029.844l-.43.522a2.266,2.266,0,0,0-1.585-.7c-1.378,0-2.432,1.223-2.432,2.991s.962,2.976,2.418,2.976a2.762,2.762,0,0,0,1.807-.765l.365.519a3.355,3.355,0,0,1-2.21.9C282.057,3313.473,280.691,3312.146,280.691,3309.846Z"/>
    <path id="패스_26838" data-name="패스 26838" class="cls-6" d="M286.971,3309.846c0-2.315,1.456-3.653,3.133-3.653s3.133,1.338,3.133,3.653-1.456,3.627-3.133,3.627S286.971,3312.146,286.971,3309.846Zm5.486,0c0-1.768-1-2.991-2.353-2.991s-2.34,1.223-2.34,2.991.988,2.976,2.34,2.976S292.457,3311.613,292.457,3309.846Z"/>
    <path id="패스_26839" data-name="패스 26839" class="cls-6" d="M295.122,3306.375h.624l.09,1.053h.026a3.216,3.216,0,0,1,2.184-1.235,1.8,1.8,0,0,1,1.912,1.4,3.46,3.46,0,0,1,2.339-1.4c1.391,0,2.08.9,2.08,2.678v4.434h-.753v-4.33c0-1.444-.481-2.106-1.5-2.106a2.925,2.925,0,0,0-2,1.248v5.188h-.753v-4.33c0-1.444-.469-2.106-1.5-2.106a2.927,2.927,0,0,0-2,1.248v5.188h-.753Z"/>
    <path id="패스_26840" data-name="패스 26840" class="cls-6" d="M306.678,3306.375h.624l.092,1.053h.025a3.216,3.216,0,0,1,2.185-1.235,1.8,1.8,0,0,1,1.911,1.4,3.458,3.458,0,0,1,2.34-1.4c1.391,0,2.08.9,2.08,2.678v4.434h-.754v-4.33c0-1.444-.481-2.106-1.495-2.106a2.923,2.923,0,0,0-2,1.248v5.188h-.754v-4.33c0-1.444-.469-2.106-1.495-2.106a2.923,2.923,0,0,0-2,1.248v5.188h-.755Z"/>
    <path id="패스_26841" data-name="패스 26841" class="cls-6" d="M317.976,3304.152a.6.6,0,0,1,.636-.625.612.612,0,1,1,0,1.223A.606.606,0,0,1,317.976,3304.152Zm.246,2.223h.755v6.93h-.755Z"/>
    <path id="패스_26842" data-name="패스 26842" class="cls-6" d="M321.615,3311.328v-4.316h-1.079v-.573l1.1-.064.091-2h.637v2h1.989v.637h-1.989v4.369c0,.871.234,1.441,1.157,1.441a2.443,2.443,0,0,0,.845-.193l.182.584a3.95,3.95,0,0,1-1.157.26C322.031,3313.473,321.615,3312.615,321.615,3311.328Z"/>
    <path id="패스_26843" data-name="패스 26843" class="cls-6" d="M326.529,3311.328v-4.316H325.45v-.573l1.1-.064.091-2h.637v2h1.989v.637h-1.989v4.369c0,.871.234,1.441,1.157,1.441a2.443,2.443,0,0,0,.845-.193l.182.584a3.95,3.95,0,0,1-1.157.26C326.945,3313.473,326.529,3312.615,326.529,3311.328Z"/>
    <path id="패스_26844" data-name="패스 26844" class="cls-6" d="M330.13,3309.846c0-2.248,1.469-3.653,3.042-3.653,1.677,0,2.678,1.2,2.678,3.225a3.589,3.589,0,0,1-.039.545H330.9c.039,1.689,1.04,2.873,2.535,2.873a3.1,3.1,0,0,0,1.846-.6l.286.559a3.878,3.878,0,0,1-2.21.676C331.573,3313.473,330.13,3312.121,330.13,3309.846Zm5.031-.481c0-1.677-.767-2.521-1.976-2.521a2.467,2.467,0,0,0-2.288,2.521Z"/>
    <path id="패스_26845" data-name="패스 26845" class="cls-6" d="M337.2,3309.846c0-2.248,1.469-3.653,3.042-3.653,1.677,0,2.678,1.2,2.678,3.225a3.589,3.589,0,0,1-.039.545h-4.914c.039,1.689,1.04,2.873,2.535,2.873a3.1,3.1,0,0,0,1.846-.6l.286.559a3.878,3.878,0,0,1-2.21.676C338.645,3313.473,337.2,3312.121,337.2,3309.846Zm5.031-.481c0-1.677-.767-2.521-1.976-2.521a2.466,2.466,0,0,0-2.288,2.521Z"/>
    <path id="패스_26846" data-name="패스 26846" class="cls-6" d="M346.938,3312.836c3.212-2.77,4.486-4.719,4.486-6.436a1.863,1.863,0,0,0-1.937-2.1,2.826,2.826,0,0,0-2.107,1.184l-.481-.456a3.486,3.486,0,0,1,2.665-1.365,2.482,2.482,0,0,1,2.627,2.717c0,1.988-1.534,3.979-4.056,6.332.52-.039,1.066-.078,1.56-.078h2.951v.676h-5.708Z"/>
  </g>
  <rect id="사각형_319" data-name="사각형 319" class="cls-5" width="110.38" height="29.5" transform="translate(524.09 190.027)"/>
  <rect id="사각형_320" data-name="사각형 320" class="cls-4" width="110.38" height="29.5" transform="translate(524.09 190.027)"/>
  <g id="그룹_23878" data-name="그룹 23878" transform="translate(-48.937 -3102.807)">
    <path id="패스_26847" data-name="패스 26847" class="cls-6" d="M580.5,3312.057l.481-.547a3.645,3.645,0,0,0,2.743,1.261c1.4,0,2.275-.742,2.275-1.82,0-1.144-.741-1.508-1.677-1.924l-1.417-.625a2.628,2.628,0,0,1-1.924-2.365,2.526,2.526,0,0,1,2.808-2.379,3.617,3.617,0,0,1,2.678,1.145l-.442.506a3.038,3.038,0,0,0-2.236-.95c-1.209,0-2.015.637-2.015,1.614,0,1.078.923,1.48,1.612,1.781l1.417.623c1.079.48,1.989,1.078,1.989,2.521s-1.209,2.575-3.068,2.575A4.224,4.224,0,0,1,580.5,3312.057Z"/>
    <path id="패스_26848" data-name="패스 26848" class="cls-6" d="M588.445,3310.809v-4.434h.754v4.342c0,1.418.442,2.08,1.508,2.08.806,0,1.377-.416,2.158-1.352v-5.07h.754v6.93h-.637l-.065-1.145h-.039a3.079,3.079,0,0,1-2.34,1.313C589.095,3313.473,588.445,3312.59,588.445,3310.809Z"/>
    <path id="패스_26849" data-name="패스 26849" class="cls-6" d="M596.687,3312.6h-.026l-.091.7h-.612v-10.336h.755v2.965l-.039,1.326a3.828,3.828,0,0,1,2.34-1.067c1.846,0,2.782,1.4,2.782,3.536,0,2.367-1.43,3.744-3.055,3.744A3.426,3.426,0,0,1,596.687,3312.6Zm4.3-2.873c0-1.665-.572-2.874-2.119-2.874a3.417,3.417,0,0,0-2.158,1.106v4a3.121,3.121,0,0,0,1.963.846C600.028,3312.811,600.99,3311.588,600.99,3309.729Z"/>
    <path id="패스_26850" data-name="패스 26850" class="cls-6" d="M603.251,3309.846c0-2.315,1.5-3.653,3.211-3.653a2.934,2.934,0,0,1,2.029.844l-.429.522a2.27,2.27,0,0,0-1.586-.7c-1.378,0-2.432,1.223-2.432,2.991s.962,2.976,2.418,2.976a2.766,2.766,0,0,0,1.808-.765l.364.519a3.355,3.355,0,0,1-2.211.9C604.617,3313.473,603.251,3312.146,603.251,3309.846Z"/>
    <path id="패스_26851" data-name="패스 26851" class="cls-6" d="M609.531,3309.846c0-2.315,1.456-3.653,3.133-3.653s3.133,1.338,3.133,3.653-1.456,3.627-3.133,3.627S609.531,3312.146,609.531,3309.846Zm5.486,0c0-1.768-1-2.991-2.353-2.991s-2.34,1.223-2.34,2.991.988,2.976,2.34,2.976S615.017,3311.613,615.017,3309.846Z"/>
    <path id="패스_26852" data-name="패스 26852" class="cls-6" d="M617.681,3306.375h.624l.091,1.053h.026a3.216,3.216,0,0,1,2.184-1.235,1.8,1.8,0,0,1,1.912,1.4,3.458,3.458,0,0,1,2.34-1.4c1.391,0,2.08.9,2.08,2.678v4.434h-.754v-4.33c0-1.444-.481-2.106-1.5-2.106a2.921,2.921,0,0,0-2,1.248v5.188h-.754v-4.33c0-1.444-.469-2.106-1.5-2.106a2.924,2.924,0,0,0-2,1.248v5.188h-.755Z"/>
    <path id="패스_26853" data-name="패스 26853" class="cls-6" d="M629.239,3306.375h.624l.091,1.053h.025a3.218,3.218,0,0,1,2.185-1.235,1.8,1.8,0,0,1,1.911,1.4,3.46,3.46,0,0,1,2.34-1.4c1.391,0,2.08.9,2.08,2.678v4.434h-.754v-4.33c0-1.444-.481-2.106-1.5-2.106a2.923,2.923,0,0,0-2,1.248v5.188h-.754v-4.33c0-1.444-.469-2.106-1.495-2.106a2.923,2.923,0,0,0-2,1.248v5.188h-.754Z"/>
    <path id="패스_26854" data-name="패스 26854" class="cls-6" d="M640.536,3304.152a.6.6,0,0,1,.636-.625.612.612,0,1,1,0,1.223A.606.606,0,0,1,640.536,3304.152Zm.247,2.223h.754v6.93h-.754Z"/>
    <path id="패스_26855" data-name="패스 26855" class="cls-6" d="M644.175,3311.328v-4.316H643.1v-.573l1.1-.064.091-2h.637v2h1.989v.637h-1.989v4.369c0,.871.234,1.441,1.157,1.441a2.443,2.443,0,0,0,.845-.193l.182.584a3.949,3.949,0,0,1-1.157.26C644.591,3313.473,644.175,3312.615,644.175,3311.328Z"/>
    <path id="패스_26856" data-name="패스 26856" class="cls-6" d="M649.089,3311.328v-4.316H648.01v-.573l1.1-.064.091-2h.637v2h1.99v.637h-1.99v4.369c0,.871.234,1.441,1.157,1.441a2.442,2.442,0,0,0,.845-.193l.182.584a3.942,3.942,0,0,1-1.157.26C649.505,3313.473,649.089,3312.615,649.089,3311.328Z"/>
    <path id="패스_26857" data-name="패스 26857" class="cls-6" d="M652.69,3309.846c0-2.248,1.469-3.653,3.042-3.653,1.677,0,2.678,1.2,2.678,3.225a3.589,3.589,0,0,1-.039.545h-4.914c.039,1.689,1.04,2.873,2.535,2.873a3.1,3.1,0,0,0,1.846-.6l.286.559a3.878,3.878,0,0,1-2.21.676C654.133,3313.473,652.69,3312.121,652.69,3309.846Zm5.031-.481c0-1.677-.767-2.521-1.976-2.521a2.467,2.467,0,0,0-2.288,2.521Z"/>
    <path id="패스_26858" data-name="패스 26858" class="cls-6" d="M659.762,3309.846c0-2.248,1.469-3.653,3.042-3.653,1.677,0,2.678,1.2,2.678,3.225a3.589,3.589,0,0,1-.039.545h-4.914c.039,1.689,1.04,2.873,2.535,2.873a3.1,3.1,0,0,0,1.846-.6l.286.559a3.878,3.878,0,0,1-2.21.676C661.205,3313.473,659.762,3312.121,659.762,3309.846Zm5.031-.481c0-1.677-.767-2.521-1.976-2.521a2.467,2.467,0,0,0-2.288,2.521Z"/>
    <path id="패스_26859" data-name="패스 26859" class="cls-6" d="M675.427,3310.6h-1.339v2.7h-.741v-2.7h-4.186v-.481l4.186-6.293h.741v6.137h1.339Zm-2.08-.637v-3.5c0-.43.039-1.133.078-1.574h-.065c-.221.429-.481.884-.754,1.312l-2.574,3.758Z"/>
  </g>
  <rect id="사각형_321" data-name="사각형 321" class="cls-8" width="253.333" height="33" transform="translate(293.204 26.153)"/>
  <rect id="사각형_322" data-name="사각형 322" class="cls-5" width="252.833" height="29.5" transform="translate(287.453 26.403)"/>
  <rect id="사각형_323" data-name="사각형 323" class="cls-4" width="252.833" height="29.5" transform="translate(287.453 26.403)"/>
  <g id="그룹_23879" data-name="그룹 23879" transform="translate(-48.937 -3102.807)">
    <path id="패스_26860" data-name="패스 26860" class="cls-8" d="M402.489,3144.957c0-3.241,2-5.186,4.633-5.186a3.968,3.968,0,0,1,2.957,1.256l-.851,1a2.691,2.691,0,0,0-2.053-.891c-1.85,0-3.079,1.431-3.079,3.767,0,2.364,1.094,3.809,3.147,3.809a2.472,2.472,0,0,0,1.567-.486v-2.336h-1.972V3144.6h3.389v4.309a4.468,4.468,0,0,1-3.146,1.161C404.42,3150.075,402.489,3148.211,402.489,3144.957Z"/>
    <path id="패스_26861" data-name="패스 26861" class="cls-8" d="M411.858,3146.2a3.516,3.516,0,1,1,3.5,3.876A3.589,3.589,0,0,1,411.858,3146.2Zm5.4,0c0-1.58-.729-2.633-1.9-2.633s-1.89,1.053-1.89,2.633.729,2.607,1.89,2.607S417.26,3147.766,417.26,3146.2Z"/>
    <path id="패스_26862" data-name="패스 26862" class="cls-8" d="M420.147,3146.2a3.516,3.516,0,1,1,3.5,3.876A3.589,3.589,0,0,1,420.147,3146.2Zm5.4,0c0-1.58-.729-2.633-1.9-2.633s-1.891,1.053-1.891,2.633.729,2.607,1.891,2.607S425.549,3147.766,425.549,3146.2Z"/>
    <path id="패스_26863" data-name="패스 26863" class="cls-8" d="M428.463,3146.2c0-2.417,1.526-3.916,3.187-3.916a2.863,2.863,0,0,1,2,.838l-.067-1.229v-2.755h1.552V3149.9h-1.269l-.135-.836h-.041a3.115,3.115,0,0,1-2.16,1.012C429.665,3150.075,428.463,3148.657,428.463,3146.2Zm5.119,1.688v-3.632a2.329,2.329,0,0,0-1.635-.675c-1.039,0-1.877.985-1.877,2.592,0,1.688.662,2.62,1.823,2.62A2.185,2.185,0,0,0,433.582,3147.887Z"/>
    <path id="패스_26864" data-name="패스 26864" class="cls-8" d="M440.64,3139.961h5.888v1.31h-4.321v3.038h3.672v1.31h-3.672v4.28H440.64Z"/>
    <path id="패스_26865" data-name="패스 26865" class="cls-8" d="M447.093,3147.928c0-1.594,1.35-2.417,4.443-2.755-.014-.864-.325-1.62-1.418-1.62a4.08,4.08,0,0,0-2.147.756l-.581-1.053a5.689,5.689,0,0,1,3-.973c1.85,0,2.7,1.175,2.7,3.147v4.469h-1.269l-.135-.85h-.04a3.7,3.7,0,0,1-2.364,1.026A2.052,2.052,0,0,1,447.093,3147.928Zm4.443.054v-1.824c-2.2.271-2.944.824-2.944,1.662,0,.729.5,1.026,1.161,1.026A2.623,2.623,0,0,0,451.536,3147.982Z"/>
    <path id="패스_26866" data-name="패스 26866" class="cls-8" d="M454.95,3140.163a.913.913,0,0,1,.986-.919.921.921,0,1,1-.986.919Zm.216,2.31h1.54v7.426h-1.54Z"/>
    <path id="패스_26867" data-name="패스 26867" class="cls-8" d="M459.162,3147.469v-3.754h-1.08v-1.162l1.147-.08.176-2.053h1.31v2.053h1.931v1.242h-1.931v3.767c0,.891.31,1.35,1.08,1.35a2.2,2.2,0,0,0,.8-.175l.283,1.148a4.771,4.771,0,0,1-1.458.27C459.743,3150.075,459.162,3149.035,459.162,3147.469Z"/>
    <path id="패스_26868" data-name="패스 26868" class="cls-8" d="M464.2,3139.137h1.54v2.849l-.054,1.472a3.456,3.456,0,0,1,2.4-1.175c1.581,0,2.283,1.053,2.283,2.944v4.672h-1.553v-4.483c0-1.283-.379-1.8-1.256-1.8a2.533,2.533,0,0,0-1.823,1.013v5.266H464.2Z"/>
    <path id="패스_26869" data-name="패스 26869" class="cls-8" d="M475.212,3144.957c0-3.241,1.972-5.186,4.484-5.186a3.828,3.828,0,0,1,2.822,1.256l-.851,1a2.645,2.645,0,0,0-1.944-.891c-1.715,0-2.9,1.431-2.9,3.767,0,2.364,1.107,3.809,2.863,3.809a2.894,2.894,0,0,0,2.2-1.053l.837.986a3.924,3.924,0,0,1-3.093,1.431C477.13,3150.075,475.212,3148.211,475.212,3144.957Z"/>
    <path id="패스_26870" data-name="패스 26870" class="cls-8" d="M483.677,3146.2a3.516,3.516,0,1,1,3.5,3.876A3.589,3.589,0,0,1,483.677,3146.2Zm5.4,0c0-1.58-.729-2.633-1.9-2.633s-1.89,1.053-1.89,2.633.729,2.607,1.89,2.607S489.079,3147.766,489.079,3146.2Z"/>
    <path id="패스_26871" data-name="패스 26871" class="cls-8" d="M492.344,3147.145v-4.672H493.9v4.482c0,1.283.365,1.783,1.243,1.783.689,0,1.161-.324,1.782-1.107v-5.158h1.553v7.426h-1.269l-.122-1.12h-.04a3.111,3.111,0,0,1-2.431,1.3C493.033,3150.075,492.344,3149.035,492.344,3147.145Z"/>
    <path id="패스_26872" data-name="패스 26872" class="cls-8" d="M500.674,3142.473h1.269l.122,1.025h.04a3.542,3.542,0,0,1,2.458-1.215c1.58,0,2.282,1.053,2.282,2.944v4.672h-1.553v-4.483c0-1.283-.378-1.8-1.255-1.8a2.537,2.537,0,0,0-1.824,1.013v5.266h-1.539Z"/>
    <path id="패스_26873" data-name="패스 26873" class="cls-8" d="M508.544,3146.2a3.65,3.65,0,0,1,3.673-3.916,3.189,3.189,0,0,1,2.175.851l-.77,1.012a1.948,1.948,0,0,0-1.337-.58c-1.243,0-2.134,1.053-2.134,2.633s.851,2.607,2.093,2.607a2.55,2.55,0,0,0,1.621-.675l.635,1.025a3.622,3.622,0,0,1-2.4.919C510.083,3150.075,508.544,3148.657,508.544,3146.2Z"/>
    <path id="패스_26874" data-name="패스 26874" class="cls-8" d="M515.7,3140.163a.913.913,0,0,1,.986-.919.921.921,0,1,1-.986.919Zm.216,2.31h1.54v7.426h-1.54Z"/>
    <path id="패스_26875" data-name="패스 26875" class="cls-8" d="M519.614,3148.157v-9.02h1.539v9.1c0,.419.189.568.378.568a1.086,1.086,0,0,0,.257-.027l.2,1.174a2.487,2.487,0,0,1-.838.122C520.032,3150.075,519.614,3149.359,519.614,3148.157Z"/>
  </g>
  <line id="선_1027" data-name="선 1027" class="cls-4" x2="594.22" transform="translate(40.25 240.777)"/>
  <line id="선_1028" data-name="선 1028" class="cls-4" y2="2.25" transform="translate(40.25 239.652)"/>
  <line id="선_1029" data-name="선 1029" class="cls-4" y2="2.25" transform="translate(634.47 239.652)"/>
  <line id="선_1030" data-name="선 1030" class="cls-4" x2="110.38" transform="translate(685.37 240.777)"/>
  <line id="선_1031" data-name="선 1031" class="cls-4" y2="2.25" transform="translate(685.37 239.652)"/>
  <line id="선_1032" data-name="선 1032" class="cls-4" y2="2.25" transform="translate(795.75 239.652)"/>
  <rect id="사각형_324" data-name="사각형 324" class="cls-9" width="91.518" height="11.44" transform="translate(297.941 234.957)"/>
  <g id="그룹_23880" data-name="그룹 23880" transform="translate(-48.937 -3102.807)">
    <path id="패스_26876" data-name="패스 26876" class="cls-6" d="M356.665,3348.215h2.119V3341.1h-1.69v-.754a6.065,6.065,0,0,0,1.976-.676h.91v8.541h1.911v.988h-5.226Z"/>
  </g>
  <g id="그룹_23881" data-name="그룹 23881" transform="translate(-48.937 -3102.807)">
    <path id="패스_26877" data-name="패스 26877" class="cls-6" d="M363.047,3344.406l.342-.455a1.872,1.872,0,0,0,1.221.485c.546,0,.811-.29.811-.645,0-.418-.485-.607-.94-.781-.576-.213-1.229-.492-1.229-1.192,0-.65.523-1.166,1.418-1.166a2.133,2.133,0,0,1,1.282.461l-.333.448a1.562,1.562,0,0,0-.949-.364c-.515,0-.75.274-.75.592,0,.4.447.539.91.713.6.227,1.258.471,1.258,1.252,0,.666-.53,1.221-1.5,1.221A2.5,2.5,0,0,1,363.047,3344.406Z"/>
    <path id="패스_26878" data-name="패스 26878" class="cls-6" d="M367.406,3343.6v-2.284h-.614v-.523l.644-.037.084-1.153h.576v1.153h1.115v.56H368.1v2.3c0,.508.159.8.637.8a1.483,1.483,0,0,0,.47-.105l.137.515a2.6,2.6,0,0,1-.758.153C367.7,3344.975,367.406,3344.428,367.406,3343.6Z"/>
  </g>
  <g id="그룹_23882" data-name="그룹 23882" transform="translate(-48.937 -3102.807)">
    <path id="패스_26879" data-name="패스 26879" class="cls-6" d="M372.964,3347.955l.715-.818a3.743,3.743,0,0,0,2.639,1.183c1.248,0,2-.625,2-1.56,0-.975-.689-1.287-1.586-1.69l-1.378-.6a2.692,2.692,0,0,1-1.937-2.444c0-1.468,1.274-2.535,3-2.535a3.9,3.9,0,0,1,2.808,1.184l-.637.765a3.091,3.091,0,0,0-2.171-.9c-1.079,0-1.781.547-1.781,1.4,0,.924.832,1.274,1.573,1.586l1.365.586a2.654,2.654,0,0,1,1.963,2.547c0,1.508-1.248,2.705-3.237,2.705A4.555,4.555,0,0,1,372.964,3347.955Z"/>
    <path id="패스_26880" data-name="패스 26880" class="cls-6" d="M381.1,3346.617v-4.472h1.183v4.328c0,1.314.39,1.873,1.326,1.873.728,0,1.235-.352,1.911-1.2v-5H386.7v7.058h-.988l-.091-1.1h-.039a3.029,3.029,0,0,1-2.34,1.275C381.765,3349.373,381.1,3348.41,381.1,3346.617Z"/>
    <path id="패스_26881" data-name="패스 26881" class="cls-6" d="M388.9,3342.145h.974l.1.806h.04a3.758,3.758,0,0,1,2.249-.988c1.82,0,2.808,1.43,2.808,3.6,0,2.419-1.443,3.81-3.068,3.81a3.181,3.181,0,0,1-1.95-.82l.025,1.236v2.393H388.9Zm4.94,3.431c0-1.56-.52-2.613-1.859-2.613a2.947,2.947,0,0,0-1.9.975v3.705a2.743,2.743,0,0,0,1.73.742C392.984,3348.385,393.842,3347.332,393.842,3345.576Z"/>
    <path id="패스_26882" data-name="패스 26882" class="cls-6" d="M396.883,3342.145h.975l.1.806H398a3.764,3.764,0,0,1,2.249-.988c1.821,0,2.809,1.43,2.809,3.6,0,2.419-1.443,3.81-3.068,3.81a3.181,3.181,0,0,1-1.95-.82l.025,1.236v2.393h-1.183Zm4.941,3.431c0-1.56-.52-2.613-1.859-2.613a2.945,2.945,0,0,0-1.9.975v3.705a2.742,2.742,0,0,0,1.729.742C400.966,3348.385,401.824,3347.332,401.824,3345.576Z"/>
    <path id="패스_26883" data-name="패스 26883" class="cls-6" d="M404.853,3347.8v-8.944h1.183v9.022c0,.365.156.508.338.508a1.034,1.034,0,0,0,.247-.026l.169.911a1.894,1.894,0,0,1-.689.1C405.217,3349.373,404.853,3348.8,404.853,3347.8Z"/>
    <path id="패스_26884" data-name="패스 26884" class="cls-6" d="M408.154,3339.922a.821.821,0,0,1,1.638,0,.821.821,0,0,1-1.638,0Zm.221,2.223h1.183v7.058h-1.183Z"/>
    <path id="패스_26885" data-name="패스 26885" class="cls-6" d="M411.288,3345.68a3.414,3.414,0,0,1,3.185-3.717c1.794,0,2.808,1.3,2.808,3.314a4.6,4.6,0,0,1-.052.676h-4.758a2.339,2.339,0,0,0,2.34,2.471,3.05,3.05,0,0,0,1.768-.559l.429.78a4.209,4.209,0,0,1-2.341.728A3.374,3.374,0,0,1,411.288,3345.68Zm4.953-.571c0-1.431-.65-2.2-1.755-2.2a2.171,2.171,0,0,0-2.028,2.2Z"/>
    <path id="패스_26886" data-name="패스 26886" class="cls-6" d="M419,3342.145h.974l.1,1.287h.039a2.437,2.437,0,0,1,2-1.469,1.51,1.51,0,0,1,.754.156l-.222,1.039a1.648,1.648,0,0,0-.689-.117c-.585,0-1.313.416-1.781,1.625v4.537H419Z"/>
    <path id="패스_26887" data-name="패스 26887" class="cls-6" d="M423.39,3348.4l.585-.781a3.2,3.2,0,0,0,2.093.832c.936,0,1.391-.494,1.391-1.1,0-.715-.832-1.039-1.612-1.338-.988-.365-2.106-.846-2.106-2.041,0-1.119.9-2,2.431-2a3.65,3.65,0,0,1,2.2.793l-.572.765a2.661,2.661,0,0,0-1.625-.623c-.884,0-1.287.469-1.287,1.014,0,.676.767.924,1.56,1.223,1.027.39,2.158.806,2.158,2.144,0,1.145-.91,2.094-2.574,2.094A4.257,4.257,0,0,1,423.39,3348.4Z"/>
  </g>
  <rect id="사각형_325" data-name="사각형 325" class="cls-10" width="273.76" height="28.44" transform="translate(280.24 72.696)"/>
  <g id="그룹_23883" data-name="그룹 23883" transform="translate(-48.937 -3102.807)">
    <path id="패스_26888" data-name="패스 26888" class="cls-6" d="M402.872,3184.877l.416-.533a3.19,3.19,0,0,0,2.483,1.119,2.323,2.323,0,0,0,2.209-2.535,2.147,2.147,0,0,0-2.17-2.432,2.752,2.752,0,0,0-1.678.6l-.494-.3.325-4.329h4.329v.663h-3.653l-.273,3.185a2.924,2.924,0,0,1,1.587-.455c1.56,0,2.808.936,2.808,3.042a3,3,0,0,1-2.965,3.211A3.9,3.9,0,0,1,402.872,3184.877Z"/>
    <path id="패스_26889" data-name="패스 26889" class="cls-6" d="M412.8,3185.164l.4-.547a3.169,3.169,0,0,0,2.184.871c1.053,0,1.586-.6,1.586-1.312,0-.82-.871-1.2-1.677-1.483-1.027-.364-2.171-.793-2.171-1.989,0-1.015.819-1.872,2.275-1.872a3.347,3.347,0,0,1,2.015.741l-.39.521a2.652,2.652,0,0,0-1.651-.625c-1.027,0-1.5.572-1.5,1.2,0,.767.806,1.054,1.612,1.353,1.066.4,2.236.779,2.236,2.119,0,1.065-.845,1.975-2.379,1.975A4.059,4.059,0,0,1,412.8,3185.164Z"/>
    <path id="패스_26890" data-name="패스 26890" class="cls-6" d="M419.29,3183.447v-4.433h.754v4.342c0,1.417.442,2.081,1.508,2.081.806,0,1.378-.416,2.158-1.353v-5.07h.754v6.929h-.637l-.065-1.144h-.039a3.073,3.073,0,0,1-2.34,1.313C419.94,3186.112,419.29,3185.229,419.29,3183.447Z"/>
    <path id="패스_26891" data-name="패스 26891" class="cls-6" d="M427.532,3185.241h-.026l-.091.7H426.8v-10.336h.754v2.965l-.039,1.326a3.832,3.832,0,0,1,2.34-1.066c1.846,0,2.782,1.4,2.782,3.536,0,2.366-1.43,3.744-3.055,3.744A3.426,3.426,0,0,1,427.532,3185.241Zm4.3-2.873c0-1.664-.572-2.873-2.119-2.873a3.413,3.413,0,0,0-2.158,1.1v4a3.119,3.119,0,0,0,1.963.845C430.873,3185.449,431.835,3184.227,431.835,3182.368Z"/>
    <path id="패스_26892" data-name="패스 26892" class="cls-6" d="M434.1,3182.485c0-2.313,1.5-3.653,3.211-3.653a2.927,2.927,0,0,1,2.028.846l-.429.519a2.274,2.274,0,0,0-1.586-.7c-1.378,0-2.431,1.222-2.431,2.99s.962,2.978,2.418,2.978a2.768,2.768,0,0,0,1.807-.768l.364.52a3.353,3.353,0,0,1-2.21.9C435.462,3186.112,434.1,3184.786,434.1,3182.485Z"/>
    <path id="패스_26893" data-name="패스 26893" class="cls-6" d="M440.376,3182.485c0-2.313,1.456-3.653,3.133-3.653s3.133,1.34,3.133,3.653-1.456,3.627-3.133,3.627S440.376,3184.786,440.376,3182.485Zm5.486,0c0-1.768-1-2.99-2.353-2.99s-2.34,1.222-2.34,2.99.988,2.978,2.34,2.978S445.862,3184.254,445.862,3182.485Z"/>
    <path id="패스_26894" data-name="패스 26894" class="cls-6" d="M448.527,3179.014h.624l.091,1.052h.026a3.22,3.22,0,0,1,2.184-1.234,1.8,1.8,0,0,1,1.911,1.4,3.462,3.462,0,0,1,2.34-1.4c1.391,0,2.08.9,2.08,2.678v4.433h-.754v-4.329c0-1.442-.481-2.106-1.495-2.106a2.923,2.923,0,0,0-2,1.248v5.187h-.754v-4.329c0-1.442-.468-2.106-1.5-2.106a2.923,2.923,0,0,0-2,1.248v5.187h-.754Z"/>
    <path id="패스_26895" data-name="패스 26895" class="cls-6" d="M460.083,3179.014h.625l.091,1.052h.026a3.22,3.22,0,0,1,2.184-1.234,1.8,1.8,0,0,1,1.911,1.4,3.462,3.462,0,0,1,2.34-1.4c1.391,0,2.08.9,2.08,2.678v4.433h-.754v-4.329c0-1.442-.481-2.106-1.495-2.106a2.923,2.923,0,0,0-2,1.248v5.187h-.754v-4.329c0-1.442-.468-2.106-1.495-2.106a2.923,2.923,0,0,0-2,1.248v5.187h-.755Z"/>
    <path id="패스_26896" data-name="패스 26896" class="cls-6" d="M471.381,3176.791a.6.6,0,0,1,.637-.624.611.611,0,1,1-.637.624Zm.246,2.223h.755v6.929h-.755Z"/>
    <path id="패스_26897" data-name="패스 26897" class="cls-6" d="M475.021,3183.967v-4.317h-1.08v-.571l1.1-.065.091-2h.637v2h1.989v.636h-1.989v4.37c0,.871.234,1.443,1.157,1.443a2.445,2.445,0,0,0,.845-.195l.182.585a3.914,3.914,0,0,1-1.157.259C475.437,3186.112,475.021,3185.254,475.021,3183.967Z"/>
    <path id="패스_26898" data-name="패스 26898" class="cls-6" d="M479.935,3183.967v-4.317h-1.08v-.571l1.1-.065.091-2h.637v2h1.989v.636h-1.989v4.37c0,.871.234,1.443,1.157,1.443a2.445,2.445,0,0,0,.845-.195l.183.585a3.926,3.926,0,0,1-1.158.259C480.351,3186.112,479.935,3185.254,479.935,3183.967Z"/>
    <path id="패스_26899" data-name="패스 26899" class="cls-6" d="M483.535,3182.485c0-2.249,1.469-3.653,3.042-3.653,1.677,0,2.678,1.2,2.678,3.225a3.574,3.574,0,0,1-.039.545H484.3c.039,1.691,1.04,2.873,2.535,2.873a3.1,3.1,0,0,0,1.846-.6l.286.56a3.884,3.884,0,0,1-2.21.675C484.978,3186.112,483.535,3184.76,483.535,3182.485Zm5.031-.481c0-1.677-.767-2.522-1.976-2.522A2.468,2.468,0,0,0,484.3,3182Z"/>
    <path id="패스_26900" data-name="패스 26900" class="cls-6" d="M490.607,3182.485c0-2.249,1.469-3.653,3.042-3.653,1.677,0,2.678,1.2,2.678,3.225a3.574,3.574,0,0,1-.039.545h-4.914c.039,1.691,1.04,2.873,2.535,2.873a3.1,3.1,0,0,0,1.846-.6l.286.56a3.884,3.884,0,0,1-2.21.675C492.05,3186.112,490.607,3184.76,490.607,3182.485Zm5.031-.481c0-1.677-.767-2.522-1.976-2.522a2.468,2.468,0,0,0-2.288,2.522Z"/>
    <path id="패스_26901" data-name="패스 26901" class="cls-6" d="M497.393,3185.164l.4-.547a3.169,3.169,0,0,0,2.184.871c1.053,0,1.586-.6,1.586-1.312,0-.82-.871-1.2-1.677-1.483-1.027-.364-2.171-.793-2.171-1.989,0-1.015.819-1.872,2.275-1.872a3.347,3.347,0,0,1,2.015.741l-.39.521a2.652,2.652,0,0,0-1.651-.625c-1.027,0-1.5.572-1.5,1.2,0,.767.806,1.054,1.612,1.353,1.066.4,2.236.779,2.236,2.119,0,1.065-.845,1.975-2.379,1.975A4.059,4.059,0,0,1,497.393,3185.164Z"/>
    <path id="패스_26902" data-name="패스 26902" class="cls-6" d="M506.519,3184.2c0-1.533,1.365-2.262,4.42-2.613.026-1.027-.273-2.093-1.586-2.093a3.746,3.746,0,0,0-2.184.793l-.338-.546a4.805,4.805,0,0,1,2.626-.91c1.651,0,2.236,1.184,2.236,2.717v4.394h-.637l-.078-.884h-.026a3.994,3.994,0,0,1-2.418,1.053A1.828,1.828,0,0,1,506.519,3184.2Zm4.42.2v-2.25c-2.73.313-3.666.95-3.666,2.016a1.249,1.249,0,0,0,1.417,1.313A3.415,3.415,0,0,0,510.939,3184.4Z"/>
    <path id="패스_26903" data-name="패스 26903" class="cls-6" d="M513.928,3179.014h.624l.092,1.052h.025a3.413,3.413,0,0,1,2.367-1.234c1.443,0,2.106.9,2.106,2.678v4.433h-.754v-4.329c0-1.442-.455-2.106-1.521-2.106-.806,0-1.378.416-2.184,1.248v5.187h-.755Z"/>
    <path id="패스_26904" data-name="패스 26904" class="cls-6" d="M520.987,3182.485c0-2.236,1.43-3.653,3.068-3.653a3.117,3.117,0,0,1,2.068.846l-.053-1.248v-2.823h.755v10.336H526.2l-.092-.871h-.026a3.211,3.211,0,0,1-2.223,1.04C522.118,3186.112,520.987,3184.813,520.987,3182.485Zm5.083,1.872v-4a2.791,2.791,0,0,0-1.937-.859c-1.326,0-2.34,1.287-2.34,2.99,0,1.794.793,2.964,2.2,2.964A2.9,2.9,0,0,0,526.07,3184.357Z"/>
  </g>
  <g id="그룹_23884" data-name="그룹 23884" transform="translate(-48.937 -3102.807)">
    <path id="패스_26905" data-name="패스 26905" class="cls-6" d="M396.566,3196.018h.624l.091,1.052h.026a3.22,3.22,0,0,1,2.184-1.234,1.8,1.8,0,0,1,1.911,1.4,3.464,3.464,0,0,1,2.341-1.4c1.39,0,2.08.9,2.08,2.678v4.433h-.755v-4.329c0-1.442-.481-2.106-1.495-2.106a2.923,2.923,0,0,0-2,1.248v5.187h-.754v-4.329c0-1.442-.468-2.106-1.495-2.106a2.923,2.923,0,0,0-2,1.248v5.187h-.754Z"/>
    <path id="패스_26906" data-name="패스 26906" class="cls-6" d="M407.655,3199.489c0-2.313,1.456-3.653,3.134-3.653s3.132,1.34,3.132,3.653-1.456,3.627-3.132,3.627S407.655,3201.79,407.655,3199.489Zm5.487,0c0-1.768-1-2.99-2.353-2.99s-2.341,1.222-2.341,2.99.989,2.978,2.341,2.978S413.142,3201.258,413.142,3199.489Z"/>
    <path id="패스_26907" data-name="패스 26907" class="cls-6" d="M415.806,3196.018h.624l.091,1.287h.026a2.384,2.384,0,0,1,1.963-1.469,1.4,1.4,0,0,1,.7.156l-.156.676a1.464,1.464,0,0,0-.637-.117c-.611,0-1.352.455-1.859,1.742v4.654h-.754Z"/>
    <path id="패스_26908" data-name="패스 26908" class="cls-6" d="M419.771,3199.489c0-2.249,1.469-3.653,3.042-3.653,1.677,0,2.678,1.2,2.678,3.225a3.548,3.548,0,0,1-.039.544h-4.914c.039,1.692,1.04,2.874,2.535,2.874a3.1,3.1,0,0,0,1.846-.6l.286.559a3.876,3.876,0,0,1-2.21.676C421.214,3203.116,419.771,3201.764,419.771,3199.489Zm5.031-.481c0-1.677-.767-2.522-1.976-2.522a2.468,2.468,0,0,0-2.288,2.522Z"/>
    <path id="패스_26909" data-name="패스 26909" class="cls-6" d="M430.392,3200.971v-4.317h-1.08v-.571l1.1-.065.091-2h.638v2h1.988v.636h-1.988v4.369c0,.872.233,1.444,1.156,1.444a2.425,2.425,0,0,0,.845-.2l.183.585a3.9,3.9,0,0,1-1.158.26C430.808,3203.116,430.392,3202.258,430.392,3200.971Z"/>
    <path id="패스_26910" data-name="패스 26910" class="cls-6" d="M434.786,3192.611h.754v2.965l-.014,1.508a3.378,3.378,0,0,1,2.367-1.248c1.442,0,2.106.9,2.106,2.678v4.433h-.754v-4.329c0-1.442-.455-2.106-1.521-2.106-.807,0-1.379.416-2.184,1.248v5.187h-.754Z"/>
    <path id="패스_26911" data-name="패스 26911" class="cls-6" d="M441.74,3201.205c0-1.533,1.365-2.262,4.421-2.613.026-1.028-.273-2.093-1.586-2.093a3.747,3.747,0,0,0-2.184.793l-.339-.546a4.806,4.806,0,0,1,2.627-.91c1.651,0,2.236,1.184,2.236,2.717v4.394h-.637l-.078-.884h-.027a3.989,3.989,0,0,1-2.418,1.053A1.828,1.828,0,0,1,441.74,3201.205Zm4.421.195v-2.25c-2.73.313-3.666.95-3.666,2.016a1.249,1.249,0,0,0,1.417,1.313A3.417,3.417,0,0,0,446.161,3201.4Z"/>
    <path id="패스_26912" data-name="패스 26912" class="cls-6" d="M449.15,3196.018h.624l.091,1.052h.026a3.411,3.411,0,0,1,2.366-1.234c1.443,0,2.106.9,2.106,2.678v4.433h-.754v-4.329c0-1.442-.455-2.106-1.521-2.106-.806,0-1.378.416-2.184,1.248v5.187h-.754Z"/>
    <path id="패스_26913" data-name="패스 26913" class="cls-6" d="M459.641,3202.284h2.145v-7.71h-1.651v-.506a5.443,5.443,0,0,0,1.807-.6h.611v8.814h1.976v.663h-4.888Z"/>
    <path id="패스_26914" data-name="패스 26914" class="cls-6" d="M465.673,3198.176c0-3.289,1.066-4.875,2.795-4.875s2.782,1.586,2.782,4.875c0,3.328-1.066,4.94-2.782,4.94S465.673,3201.5,465.673,3198.176Zm4.823,0c0-2.821-.806-4.238-2.028-4.238s-2.041,1.417-2.041,4.238c0,2.873.806,4.3,2.041,4.3S470.5,3201.049,470.5,3198.176Z"/>
    <path id="패스_26915" data-name="패스 26915" class="cls-6" d="M472.849,3198.176c0-3.289,1.066-4.875,2.8-4.875s2.782,1.586,2.782,4.875c0,3.328-1.066,4.94-2.782,4.94S472.849,3201.5,472.849,3198.176Zm4.823,0c0-2.821-.806-4.238-2.028-4.238s-2.041,1.417-2.041,4.238c0,2.873.806,4.3,2.041,4.3S477.672,3201.049,477.672,3198.176Z"/>
    <path id="패스_26916" data-name="패스 26916" class="cls-6" d="M482.456,3202.168l.4-.547a3.174,3.174,0,0,0,2.184.871c1.054,0,1.586-.6,1.586-1.312,0-.82-.87-1.2-1.676-1.483-1.028-.364-2.171-.793-2.171-1.989,0-1.015.819-1.872,2.275-1.872a3.347,3.347,0,0,1,2.015.741l-.39.521a2.655,2.655,0,0,0-1.651-.625c-1.028,0-1.495.572-1.495,1.2,0,.767.8,1.054,1.611,1.352,1.066.4,2.237.78,2.237,2.12,0,1.065-.845,1.975-2.38,1.975A4.059,4.059,0,0,1,482.456,3202.168Z"/>
    <path id="패스_26917" data-name="패스 26917" class="cls-6" d="M488.942,3200.451v-4.433h.754v4.342c0,1.417.442,2.08,1.508,2.08.806,0,1.379-.416,2.158-1.352v-5.07h.754v6.929h-.637l-.064-1.144h-.04a3.073,3.073,0,0,1-2.34,1.313C489.592,3203.116,488.942,3202.232,488.942,3200.451Z"/>
    <path id="패스_26918" data-name="패스 26918" class="cls-6" d="M496.457,3196.018h.624l.09.845h.026a4.041,4.041,0,0,1,2.314-1.027c1.846,0,2.782,1.4,2.782,3.536,0,2.366-1.43,3.744-3.055,3.744a3.424,3.424,0,0,1-2.041-.845l.013,1.274v2.5h-.753Zm5.03,3.354c0-1.664-.571-2.873-2.118-2.873a3.475,3.475,0,0,0-2.159,1.1v4a3.181,3.181,0,0,0,1.963.845C500.525,3202.453,501.487,3201.23,501.487,3199.372Z"/>
    <path id="패스_26919" data-name="패스 26919" class="cls-6" d="M504.23,3196.018h.624l.091.845h.026a4.036,4.036,0,0,1,2.314-1.027c1.846,0,2.782,1.4,2.782,3.536,0,2.366-1.43,3.744-3.055,3.744a3.424,3.424,0,0,1-2.041-.845l.013,1.274v2.5h-.754Zm5.031,3.354c0-1.664-.572-2.873-2.119-2.873a3.476,3.476,0,0,0-2.158,1.1v4a3.179,3.179,0,0,0,1.963.845C508.3,3202.453,509.261,3201.23,509.261,3199.372Z"/>
    <path id="패스_26920" data-name="패스 26920" class="cls-6" d="M511.978,3201.92v-9.309h.754V3202c0,.325.13.469.312.469a1.129,1.129,0,0,0,.248-.027l.116.6a1.533,1.533,0,0,1-.507.078C512.277,3203.116,511.978,3202.727,511.978,3201.92Z"/>
    <path id="패스_26921" data-name="패스 26921" class="cls-6" d="M514.929,3193.795a.6.6,0,0,1,.637-.624.612.612,0,1,1-.637.624Zm.247,2.223h.754v6.929h-.754Z"/>
    <path id="패스_26922" data-name="패스 26922" class="cls-6" d="M517.763,3199.489c0-2.249,1.469-3.653,3.042-3.653,1.677,0,2.678,1.2,2.678,3.225a3.548,3.548,0,0,1-.039.544H518.53c.039,1.692,1.04,2.874,2.535,2.874a3.1,3.1,0,0,0,1.846-.6l.286.559a3.877,3.877,0,0,1-2.21.676C519.206,3203.116,517.763,3201.764,517.763,3199.489Zm5.031-.481c0-1.677-.767-2.522-1.976-2.522a2.468,2.468,0,0,0-2.288,2.522Z"/>
    <path id="패스_26923" data-name="패스 26923" class="cls-6" d="M525.264,3196.018h.624l.091,1.287h.026a2.384,2.384,0,0,1,1.963-1.469,1.4,1.4,0,0,1,.7.156l-.156.676a1.464,1.464,0,0,0-.637-.117c-.611,0-1.352.455-1.859,1.742v4.654h-.754Z"/>
    <path id="패스_26924" data-name="패스 26924" class="cls-6" d="M529.255,3202.168l.4-.547a3.17,3.17,0,0,0,2.184.871c1.053,0,1.586-.6,1.586-1.312,0-.82-.871-1.2-1.677-1.483-1.027-.364-2.171-.793-2.171-1.989,0-1.015.819-1.872,2.275-1.872a3.347,3.347,0,0,1,2.015.741l-.39.521a2.653,2.653,0,0,0-1.651-.625c-1.027,0-1.495.572-1.495,1.2,0,.767.806,1.054,1.612,1.352,1.066.4,2.236.78,2.236,2.12,0,1.065-.845,1.975-2.379,1.975A4.059,4.059,0,0,1,529.255,3202.168Z"/>
  </g>
  <rect id="사각형_326" data-name="사각형 326" class="cls-11" width="84.61" height="11.44" transform="translate(698.255 234.957)"/>
  <g id="그룹_23885" data-name="그룹 23885" transform="translate(-48.937 -3102.807)">
    <path id="패스_26925" data-name="패스 26925" class="cls-6" d="M751.691,3348.5c2.99-2.613,4.368-4.512,4.368-6.15a1.675,1.675,0,0,0-1.755-1.885,2.672,2.672,0,0,0-1.976,1.1l-.689-.676a3.643,3.643,0,0,1,2.808-1.4,2.614,2.614,0,0,1,2.769,2.821c0,1.9-1.495,3.835-3.731,5.955.494-.039,1.079-.092,1.56-.092h2.639v1.027h-5.993Z"/>
  </g>
  <g id="그룹_23886" data-name="그룹 23886" transform="translate(-48.937 -3102.807)">
    <path id="패스_26926" data-name="패스 26926" class="cls-6" d="M758.808,3340.758h.569l.06.592h.023a1.973,1.973,0,0,1,1.38-.7c.865,0,1.259.561,1.259,1.616v2.607h-.69v-2.518c0-.773-.235-1.1-.781-1.1a1.57,1.57,0,0,0-1.13.629v2.988h-.69Z"/>
    <path id="패스_26927" data-name="패스 26927" class="cls-6" d="M763.264,3342.82a1.948,1.948,0,0,1,1.782-2.168,1.677,1.677,0,0,1,1.161.485l-.038-.713v-1.584h.69v6.035H766.3l-.069-.484h-.015a1.838,1.838,0,0,1-1.251.584C763.932,3344.975,763.264,3344.193,763.264,3342.82Zm2.905,1.008v-2.16a1.449,1.449,0,0,0-1-.434c-.667,0-1.19.639-1.19,1.579,0,.994.41,1.585,1.138,1.585A1.41,1.41,0,0,0,766.169,3343.828Z"/>
  </g>
  <g id="그룹_23887" data-name="그룹 23887" transform="translate(-48.937 -3102.807)">
    <path id="패스_26928" data-name="패스 26928" class="cls-6" d="M771.085,3347.955l.716-.818a3.743,3.743,0,0,0,2.639,1.183c1.248,0,2-.625,2-1.56,0-.975-.689-1.287-1.586-1.69l-1.378-.6a2.692,2.692,0,0,1-1.937-2.444c0-1.468,1.274-2.535,3-2.535a3.9,3.9,0,0,1,2.808,1.184l-.637.765a3.091,3.091,0,0,0-2.171-.9c-1.079,0-1.781.547-1.781,1.4,0,.924.832,1.274,1.573,1.586l1.365.586a2.654,2.654,0,0,1,1.963,2.547c0,1.508-1.248,2.705-3.237,2.705A4.557,4.557,0,0,1,771.085,3347.955Z"/>
    <path id="패스_26929" data-name="패스 26929" class="cls-6" d="M779.223,3346.617v-4.472h1.183v4.328c0,1.314.39,1.873,1.326,1.873.728,0,1.235-.352,1.912-1.2v-5h1.183v7.058h-.989l-.09-1.1h-.04a3.029,3.029,0,0,1-2.34,1.275C779.886,3349.373,779.223,3348.41,779.223,3346.617Z"/>
    <path id="패스_26930" data-name="패스 26930" class="cls-6" d="M787.023,3342.145H788l.1.806h.039a3.758,3.758,0,0,1,2.249-.988c1.82,0,2.808,1.43,2.808,3.6,0,2.419-1.443,3.81-3.068,3.81a3.181,3.181,0,0,1-1.95-.82l.026,1.236v2.393h-1.183Zm4.94,3.431c0-1.56-.52-2.613-1.859-2.613a2.943,2.943,0,0,0-1.9.975v3.705a2.738,2.738,0,0,0,1.729.742C791.1,3348.385,791.963,3347.332,791.963,3345.576Z"/>
    <path id="패스_26931" data-name="패스 26931" class="cls-6" d="M795.005,3342.145h.975l.1.806h.039a3.758,3.758,0,0,1,2.249-.988c1.82,0,2.808,1.43,2.808,3.6,0,2.419-1.443,3.81-3.068,3.81a3.181,3.181,0,0,1-1.95-.82l.026,1.236v2.393h-1.183Zm4.94,3.431c0-1.56-.52-2.613-1.859-2.613a2.943,2.943,0,0,0-1.9.975v3.705a2.738,2.738,0,0,0,1.729.742C799.087,3348.385,799.945,3347.332,799.945,3345.576Z"/>
    <path id="패스_26932" data-name="패스 26932" class="cls-6" d="M802.974,3347.8v-8.944h1.183v9.022c0,.365.156.508.339.508a1.038,1.038,0,0,0,.247-.026l.169.911a1.9,1.9,0,0,1-.69.1C803.338,3349.373,802.974,3348.8,802.974,3347.8Z"/>
    <path id="패스_26933" data-name="패스 26933" class="cls-6" d="M806.276,3339.922a.821.821,0,0,1,1.638,0,.821.821,0,0,1-1.638,0Zm.221,2.223h1.183v7.058H806.5Z"/>
    <path id="패스_26934" data-name="패스 26934" class="cls-6" d="M809.409,3345.68a3.414,3.414,0,0,1,3.185-3.717c1.794,0,2.808,1.3,2.808,3.314a4.6,4.6,0,0,1-.052.676h-4.758a2.34,2.34,0,0,0,2.34,2.471,3.05,3.05,0,0,0,1.768-.559l.429.78a4.209,4.209,0,0,1-2.34.728A3.374,3.374,0,0,1,809.409,3345.68Zm4.953-.571c0-1.431-.65-2.2-1.755-2.2a2.171,2.171,0,0,0-2.028,2.2Z"/>
    <path id="패스_26935" data-name="패스 26935" class="cls-6" d="M817.118,3342.145h.975l.1,1.287h.039a2.437,2.437,0,0,1,2-1.469,1.506,1.506,0,0,1,.754.156l-.221,1.039a1.653,1.653,0,0,0-.689-.117c-.585,0-1.313.416-1.781,1.625v4.537h-1.183Z"/>
    <path id="패스_26936" data-name="패스 26936" class="cls-6" d="M821.511,3348.4l.585-.781a3.2,3.2,0,0,0,2.093.832c.936,0,1.392-.494,1.392-1.1,0-.715-.832-1.039-1.613-1.338-.988-.365-2.106-.846-2.106-2.041,0-1.119.9-2,2.431-2a3.651,3.651,0,0,1,2.2.793l-.573.765a2.658,2.658,0,0,0-1.625-.623c-.883,0-1.287.469-1.287,1.014,0,.676.767.924,1.56,1.223,1.028.39,2.159.806,2.159,2.144,0,1.145-.911,2.094-2.575,2.094A4.258,4.258,0,0,1,821.511,3348.4Z"/>
  </g>
</svg>
