<svg id="구성_요소_143_1" data-name="구성 요소 143 – 1" xmlns="http://www.w3.org/2000/svg" width="836" height="299.68" viewBox="0 0 836 299.68">
  <defs>
    <style>
      .cls-1 {
        fill: #f4f5f6;
      }

      .cls-2 {
        fill: #fcf1da;
      }

      .cls-3 {
        fill: #e5e5e6;
      }

      .cls-4 {
        fill: none;
        stroke: #685239;
        stroke-width: 0.5px;
      }

      .cls-5 {
        fill: #fff;
      }

      .cls-6 {
        fill: #1e2323;
      }

      .cls-7 {
        fill: #d5a700;
      }

      .cls-8 {
        fill: #685239;
      }
    </style>
  </defs>
  <rect id="사각형_410" data-name="사각형 410" class="cls-1" width="836" height="299.68"/>
  <rect id="사각형_411" data-name="사각형 411" class="cls-2" width="633" height="82" transform="translate(20 179.957)"/>
  <rect id="사각형_412" data-name="사각형 412" class="cls-3" width="144" height="82" transform="translate(672 179.957)"/>
  <line id="선_1103" data-name="선 1103" class="cls-4" y2="151.375" transform="translate(417.12 39.403)"/>
  <path id="패스_30220" data-name="패스 30220" class="cls-4" d="M2768.238,659.1V637.639H2123.621V659.1" transform="translate(-2027.93 -469.32)"/>
  <rect id="사각형_413" data-name="사각형 413" class="cls-5" width="110.38" height="29.5" transform="translate(40.25 190.028)"/>
  <rect id="사각형_414" data-name="사각형 414" class="cls-4" width="110.38" height="29.5" transform="translate(40.25 190.028)"/>
  <g id="그룹_24475" data-name="그룹 24475" transform="translate(-2027.93 -469.32)">
    <path id="패스_30221" data-name="패스 30221" class="cls-6" d="M2075.655,678.569l.482-.546a3.643,3.643,0,0,0,2.742,1.261c1.4,0,2.275-.741,2.275-1.82,0-1.144-.74-1.508-1.676-1.924l-1.417-.624a2.627,2.627,0,0,1-1.924-2.366,2.525,2.525,0,0,1,2.807-2.379,3.624,3.624,0,0,1,2.679,1.144l-.442.507a3.043,3.043,0,0,0-2.237-.949c-1.209,0-2.014.637-2.014,1.612,0,1.079.923,1.482,1.611,1.782l1.418.624c1.078.48,1.988,1.078,1.988,2.521s-1.209,2.574-3.068,2.574A4.219,4.219,0,0,1,2075.655,678.569Z"/>
    <path id="패스_30222" data-name="패스 30222" class="cls-6" d="M2083.6,677.321v-4.433h.754v4.342c0,1.417.442,2.081,1.507,2.081.807,0,1.379-.416,2.159-1.353v-5.07h.753v6.929h-.636l-.065-1.143h-.039a3.08,3.08,0,0,1-2.34,1.312C2084.248,679.986,2083.6,679.1,2083.6,677.321Z"/>
    <path id="패스_30223" data-name="패스 30223" class="cls-6" d="M2091.84,679.115h-.026l-.091.7h-.611V669.482h.754v2.964l-.039,1.326a3.839,3.839,0,0,1,2.34-1.066c1.847,0,2.782,1.4,2.782,3.536,0,2.366-1.429,3.744-3.054,3.744A3.425,3.425,0,0,1,2091.84,679.115Zm4.3-2.873c0-1.664-.572-2.873-2.119-2.873a3.411,3.411,0,0,0-2.158,1.106v4a3.122,3.122,0,0,0,1.963.844C2095.182,679.323,2096.143,678.1,2096.143,676.242Z"/>
    <path id="패스_30224" data-name="패스 30224" class="cls-6" d="M2098.4,676.359c0-2.314,1.5-3.653,3.211-3.653a2.936,2.936,0,0,1,2.03.845l-.43.52a2.276,2.276,0,0,0-1.586-.7c-1.378,0-2.432,1.222-2.432,2.99s.963,2.977,2.418,2.977a2.768,2.768,0,0,0,1.808-.767l.364.521a3.36,3.36,0,0,1-2.21.9C2099.77,679.986,2098.4,678.66,2098.4,676.359Z"/>
    <path id="패스_30225" data-name="패스 30225" class="cls-6" d="M2104.684,676.359c0-2.314,1.457-3.653,3.133-3.653s3.133,1.339,3.133,3.653-1.456,3.627-3.133,3.627S2104.684,678.66,2104.684,676.359Zm5.486,0c0-1.768-1-2.99-2.353-2.99s-2.34,1.222-2.34,2.99.988,2.977,2.34,2.977S2110.17,678.127,2110.17,676.359Z"/>
    <path id="패스_30226" data-name="패스 30226" class="cls-6" d="M2112.835,672.888h.624l.091,1.053h.026a3.216,3.216,0,0,1,2.184-1.235,1.8,1.8,0,0,1,1.911,1.4,3.467,3.467,0,0,1,2.34-1.4c1.391,0,2.08.9,2.08,2.678v4.433h-.754v-4.329c0-1.443-.482-2.106-1.495-2.106a2.923,2.923,0,0,0-2,1.248v5.187h-.754v-4.329c0-1.443-.469-2.106-1.495-2.106a2.92,2.92,0,0,0-2,1.248v5.187h-.754Z"/>
    <path id="패스_30227" data-name="패스 30227" class="cls-6" d="M2124.392,672.888h.624l.091,1.053h.026a3.218,3.218,0,0,1,2.183-1.235,1.8,1.8,0,0,1,1.913,1.4,3.462,3.462,0,0,1,2.339-1.4c1.391,0,2.08.9,2.08,2.678v4.433h-.753v-4.329c0-1.443-.482-2.106-1.5-2.106a2.928,2.928,0,0,0-2,1.248v5.187h-.753v-4.329c0-1.443-.468-2.106-1.5-2.106a2.923,2.923,0,0,0-2,1.248v5.187h-.754Z"/>
    <path id="패스_30228" data-name="패스 30228" class="cls-6" d="M2135.689,670.665a.6.6,0,0,1,.637-.624.612.612,0,1,1-.637.624Zm.247,2.223h.753v6.929h-.753Z"/>
    <path id="패스_30229" data-name="패스 30229" class="cls-6" d="M2139.328,677.842v-4.317h-1.078v-.572l1.1-.065.091-2h.637v2h1.989v.637h-1.989v4.369c0,.871.234,1.442,1.157,1.442a2.436,2.436,0,0,0,.845-.194l.183.585a3.953,3.953,0,0,1-1.158.259C2139.744,679.986,2139.328,679.128,2139.328,677.842Z"/>
    <path id="패스_30230" data-name="패스 30230" class="cls-6" d="M2144.242,677.842v-4.317h-1.078v-.572l1.1-.065.09-2H2145v2h1.989v.637H2145v4.369c0,.871.234,1.442,1.157,1.442a2.436,2.436,0,0,0,.845-.194l.183.585a3.951,3.951,0,0,1-1.158.259C2144.658,679.986,2144.242,679.128,2144.242,677.842Z"/>
    <path id="패스_30231" data-name="패스 30231" class="cls-6" d="M2147.844,676.359c0-2.249,1.469-3.653,3.041-3.653,1.678,0,2.678,1.2,2.678,3.225a3.468,3.468,0,0,1-.039.546h-4.914c.039,1.689,1.04,2.873,2.536,2.873a3.1,3.1,0,0,0,1.845-.6l.286.56a3.882,3.882,0,0,1-2.21.675C2149.286,679.986,2147.844,678.635,2147.844,676.359Zm5.031-.481c0-1.677-.768-2.522-1.977-2.522a2.469,2.469,0,0,0-2.288,2.522Z"/>
    <path id="패스_30232" data-name="패스 30232" class="cls-6" d="M2154.915,676.359c0-2.249,1.47-3.653,3.042-3.653,1.678,0,2.678,1.2,2.678,3.225a3.589,3.589,0,0,1-.039.546h-4.914c.039,1.689,1.041,2.873,2.535,2.873a3.1,3.1,0,0,0,1.846-.6l.287.56a3.888,3.888,0,0,1-2.211.675C2156.357,679.986,2154.915,678.635,2154.915,676.359Zm5.031-.481c0-1.677-.766-2.522-1.975-2.522a2.468,2.468,0,0,0-2.289,2.522Z"/>
    <path id="패스_30233" data-name="패스 30233" class="cls-6" d="M2165.263,679.154h2.145v-7.709h-1.651v-.507a5.451,5.451,0,0,0,1.807-.6h.611v8.814h1.976v.663h-4.888Z"/>
  </g>
  <rect id="사각형_415" data-name="사각형 415" class="cls-5" width="110.38" height="29.5" transform="translate(362.81 190.028)"/>
  <rect id="사각형_416" data-name="사각형 416" class="cls-4" width="110.38" height="29.5" transform="translate(362.81 190.028)"/>
  <g id="그룹_24476" data-name="그룹 24476" transform="translate(-2027.93 -469.32)">
    <path id="패스_30234" data-name="패스 30234" class="cls-6" d="M2398.215,678.569l.481-.546a3.645,3.645,0,0,0,2.743,1.261c1.405,0,2.276-.741,2.276-1.82,0-1.144-.741-1.508-1.678-1.924l-1.417-.624a2.628,2.628,0,0,1-1.924-2.366,2.527,2.527,0,0,1,2.808-2.379,3.624,3.624,0,0,1,2.679,1.144l-.443.507a3.04,3.04,0,0,0-2.236-.949c-1.209,0-2.015.637-2.015,1.612,0,1.079.923,1.482,1.613,1.782l1.417.624c1.079.48,1.989,1.078,1.989,2.521s-1.209,2.574-3.069,2.574A4.219,4.219,0,0,1,2398.215,678.569Z"/>
    <path id="패스_30235" data-name="패스 30235" class="cls-6" d="M2406.158,677.321v-4.433h.754v4.342c0,1.417.442,2.081,1.508,2.081.807,0,1.378-.416,2.158-1.353v-5.07h.754v6.929h-.637l-.065-1.143h-.038a3.082,3.082,0,0,1-2.341,1.312C2406.809,679.986,2406.158,679.1,2406.158,677.321Z"/>
    <path id="패스_30236" data-name="패스 30236" class="cls-6" d="M2414.4,679.115h-.026l-.091.7h-.611V669.482h.754v2.964l-.039,1.326a3.838,3.838,0,0,1,2.34-1.066c1.846,0,2.783,1.4,2.783,3.536,0,2.366-1.431,3.744-3.056,3.744A3.429,3.429,0,0,1,2414.4,679.115Zm4.3-2.873c0-1.664-.572-2.873-2.119-2.873a3.413,3.413,0,0,0-2.158,1.106v4a3.124,3.124,0,0,0,1.963.844C2417.741,679.323,2418.7,678.1,2418.7,676.242Z"/>
    <path id="패스_30237" data-name="패스 30237" class="cls-6" d="M2420.965,676.359c0-2.314,1.495-3.653,3.211-3.653a2.929,2.929,0,0,1,2.028.845l-.429.52a2.274,2.274,0,0,0-1.586-.7c-1.378,0-2.431,1.222-2.431,2.99s.962,2.977,2.418,2.977a2.76,2.76,0,0,0,1.806-.767l.366.521a3.361,3.361,0,0,1-2.211.9C2422.33,679.986,2420.965,678.66,2420.965,676.359Z"/>
    <path id="패스_30238" data-name="패스 30238" class="cls-6" d="M2427.244,676.359c0-2.314,1.456-3.653,3.133-3.653s3.133,1.339,3.133,3.653-1.455,3.627-3.133,3.627S2427.244,678.66,2427.244,676.359Zm5.486,0c0-1.768-1-2.99-2.353-2.99s-2.34,1.222-2.34,2.99.988,2.977,2.34,2.977S2432.73,678.127,2432.73,676.359Z"/>
    <path id="패스_30239" data-name="패스 30239" class="cls-6" d="M2435.4,672.888h.624l.09,1.053h.027a3.218,3.218,0,0,1,2.184-1.235,1.794,1.794,0,0,1,1.91,1.4,3.472,3.472,0,0,1,2.341-1.4c1.391,0,2.08.9,2.08,2.678v4.433h-.755v-4.329c0-1.443-.48-2.106-1.494-2.106a2.922,2.922,0,0,0-2,1.248v5.187h-.754v-4.329c0-1.443-.468-2.106-1.5-2.106a2.927,2.927,0,0,0-2,1.248v5.187h-.753Z"/>
    <path id="패스_30240" data-name="패스 30240" class="cls-6" d="M2446.952,672.888h.624l.091,1.053h.026a3.217,3.217,0,0,1,2.184-1.235,1.8,1.8,0,0,1,1.911,1.4,3.466,3.466,0,0,1,2.34-1.4c1.392,0,2.08.9,2.08,2.678v4.433h-.754v-4.329c0-1.443-.481-2.106-1.5-2.106a2.923,2.923,0,0,0-2,1.248v5.187h-.754v-4.329c0-1.443-.469-2.106-1.495-2.106a2.925,2.925,0,0,0-2,1.248v5.187h-.754Z"/>
    <path id="패스_30241" data-name="패스 30241" class="cls-6" d="M2458.249,670.665a.6.6,0,0,1,.637-.624.612.612,0,1,1-.637.624Zm.247,2.223h.754v6.929h-.754Z"/>
    <path id="패스_30242" data-name="패스 30242" class="cls-6" d="M2461.889,677.842v-4.317h-1.079v-.572l1.1-.065.092-2h.637v2h1.989v.637h-1.989v4.369c0,.871.234,1.442,1.157,1.442a2.451,2.451,0,0,0,.845-.194l.181.585a3.94,3.94,0,0,1-1.156.259C2462.3,679.986,2461.889,679.128,2461.889,677.842Z"/>
    <path id="패스_30243" data-name="패스 30243" class="cls-6" d="M2466.8,677.842v-4.317h-1.079v-.572l1.1-.065.092-2h.637v2h1.989v.637h-1.989v4.369c0,.871.234,1.442,1.157,1.442a2.446,2.446,0,0,0,.845-.194l.181.585a3.935,3.935,0,0,1-1.156.259C2467.219,679.986,2466.8,679.128,2466.8,677.842Z"/>
    <path id="패스_30244" data-name="패스 30244" class="cls-6" d="M2470.4,676.359c0-2.249,1.47-3.653,3.042-3.653,1.678,0,2.678,1.2,2.678,3.225a3.589,3.589,0,0,1-.039.546h-4.914c.039,1.689,1.041,2.873,2.535,2.873a3.108,3.108,0,0,0,1.847-.6l.286.56a3.887,3.887,0,0,1-2.211.675C2471.846,679.986,2470.4,678.635,2470.4,676.359Zm5.032-.481c0-1.677-.767-2.522-1.976-2.522a2.468,2.468,0,0,0-2.289,2.522Z"/>
    <path id="패스_30245" data-name="패스 30245" class="cls-6" d="M2477.475,676.359c0-2.249,1.469-3.653,3.043-3.653,1.676,0,2.677,1.2,2.677,3.225a3.621,3.621,0,0,1-.039.546h-4.914c.039,1.689,1.04,2.873,2.535,2.873a3.1,3.1,0,0,0,1.846-.6l.286.56a3.884,3.884,0,0,1-2.21.675C2478.918,679.986,2477.475,678.635,2477.475,676.359Zm5.031-.481c0-1.677-.767-2.522-1.976-2.522a2.468,2.468,0,0,0-2.288,2.522Z"/>
    <path id="패스_30246" data-name="패스 30246" class="cls-6" d="M2487.029,678.687l.43-.507a3.241,3.241,0,0,0,2.5,1.156,1.972,1.972,0,0,0,2.106-2.027c0-1.275-.883-2.133-3.146-2.133v-.637c2.08,0,2.808-.9,2.808-2.028a1.659,1.659,0,0,0-1.793-1.716,2.967,2.967,0,0,0-2.08,1l-.443-.52a3.681,3.681,0,0,1,2.534-1.118,2.307,2.307,0,0,1,2.562,2.3,2.365,2.365,0,0,1-1.741,2.34v.065a2.471,2.471,0,0,1,2.08,2.445,2.651,2.651,0,0,1-2.862,2.677A3.839,3.839,0,0,1,2487.029,678.687Z"/>
  </g>
  <rect id="사각형_417" data-name="사각형 417" class="cls-5" width="110.38" height="29.5" transform="translate(685.37 190.028)"/>
  <rect id="사각형_418" data-name="사각형 418" class="cls-4" width="110.38" height="29.5" transform="translate(685.37 190.028)"/>
  <g id="그룹_24477" data-name="그룹 24477" transform="translate(-2027.93 -469.32)">
    <path id="패스_30247" data-name="패스 30247" class="cls-6" d="M2720.775,678.569l.481-.546a3.645,3.645,0,0,0,2.743,1.261c1.4,0,2.275-.741,2.275-1.82,0-1.144-.741-1.508-1.676-1.924l-1.417-.624a2.628,2.628,0,0,1-1.925-2.366,2.526,2.526,0,0,1,2.808-2.379,3.616,3.616,0,0,1,2.678,1.144l-.441.507a3.045,3.045,0,0,0-2.237-.949c-1.209,0-2.014.637-2.014,1.612,0,1.079.923,1.482,1.611,1.782l1.417.624c1.079.48,1.989,1.078,1.989,2.521s-1.209,2.574-3.068,2.574A4.218,4.218,0,0,1,2720.775,678.569Z"/>
    <path id="패스_30248" data-name="패스 30248" class="cls-6" d="M2728.719,677.321v-4.433h.754v4.342c0,1.417.441,2.081,1.507,2.081.807,0,1.378-.416,2.159-1.353v-5.07h.754v6.929h-.637l-.066-1.143h-.039a3.076,3.076,0,0,1-2.339,1.312C2729.368,679.986,2728.719,679.1,2728.719,677.321Z"/>
    <path id="패스_30249" data-name="패스 30249" class="cls-6" d="M2736.96,679.115h-.026l-.091.7h-.612V669.482h.754v2.964l-.039,1.326a3.843,3.843,0,0,1,2.341-1.066c1.846,0,2.782,1.4,2.782,3.536,0,2.366-1.43,3.744-3.055,3.744A3.423,3.423,0,0,1,2736.96,679.115Zm4.3-2.873c0-1.664-.573-2.873-2.119-2.873a3.413,3.413,0,0,0-2.159,1.106v4a3.124,3.124,0,0,0,1.964.844C2740.3,679.323,2741.263,678.1,2741.263,676.242Z"/>
    <path id="패스_30250" data-name="패스 30250" class="cls-6" d="M2743.525,676.359c0-2.314,1.5-3.653,3.211-3.653a2.93,2.93,0,0,1,2.028.845l-.429.52a2.275,2.275,0,0,0-1.586-.7c-1.378,0-2.431,1.222-2.431,2.99s.962,2.977,2.418,2.977a2.768,2.768,0,0,0,1.807-.767l.364.521a3.356,3.356,0,0,1-2.21.9C2744.89,679.986,2743.525,678.66,2743.525,676.359Z"/>
    <path id="패스_30251" data-name="패스 30251" class="cls-6" d="M2749.8,676.359c0-2.314,1.455-3.653,3.133-3.653s3.132,1.339,3.132,3.653-1.456,3.627-3.132,3.627S2749.8,678.66,2749.8,676.359Zm5.485,0c0-1.768-1-2.99-2.352-2.99s-2.34,1.222-2.34,2.99.987,2.977,2.34,2.977S2755.29,678.127,2755.29,676.359Z"/>
    <path id="패스_30252" data-name="패스 30252" class="cls-6" d="M2757.955,672.888h.624l.091,1.053h.026a3.22,3.22,0,0,1,2.185-1.235,1.8,1.8,0,0,1,1.91,1.4,3.466,3.466,0,0,1,2.341-1.4c1.39,0,2.08.9,2.08,2.678v4.433h-.754v-4.329c0-1.443-.481-2.106-1.5-2.106a2.921,2.921,0,0,0-2,1.248v5.187h-.755v-4.329c0-1.443-.468-2.106-1.5-2.106a2.927,2.927,0,0,0-2,1.248v5.187h-.754Z"/>
    <path id="패스_30253" data-name="패스 30253" class="cls-6" d="M2769.512,672.888h.624l.091,1.053h.026a3.218,3.218,0,0,1,2.185-1.235,1.8,1.8,0,0,1,1.91,1.4,3.467,3.467,0,0,1,2.34-1.4c1.391,0,2.081.9,2.081,2.678v4.433h-.754v-4.329c0-1.443-.482-2.106-1.495-2.106a2.921,2.921,0,0,0-2,1.248v5.187h-.755v-4.329c0-1.443-.468-2.106-1.495-2.106a2.922,2.922,0,0,0-2,1.248v5.187h-.754Z"/>
    <path id="패스_30254" data-name="패스 30254" class="cls-6" d="M2780.809,670.665a.6.6,0,0,1,.637-.624.612.612,0,1,1-.637.624Zm.247,2.223h.754v6.929h-.754Z"/>
    <path id="패스_30255" data-name="패스 30255" class="cls-6" d="M2784.448,677.842v-4.317h-1.079v-.572l1.106-.065.09-2h.637v2h1.989v.637H2785.2v4.369c0,.871.235,1.442,1.157,1.442a2.452,2.452,0,0,0,.846-.194l.182.585a3.953,3.953,0,0,1-1.158.259C2784.864,679.986,2784.448,679.128,2784.448,677.842Z"/>
    <path id="패스_30256" data-name="패스 30256" class="cls-6" d="M2789.362,677.842v-4.317h-1.079v-.572l1.106-.065.09-2h.637v2h1.989v.637h-1.989v4.369c0,.871.235,1.442,1.157,1.442a2.45,2.45,0,0,0,.846-.194l.182.585a3.954,3.954,0,0,1-1.157.259C2789.778,679.986,2789.362,679.128,2789.362,677.842Z"/>
    <path id="패스_30257" data-name="패스 30257" class="cls-6" d="M2792.963,676.359c0-2.249,1.47-3.653,3.043-3.653,1.677,0,2.678,1.2,2.678,3.225a3.621,3.621,0,0,1-.039.546h-4.915c.04,1.689,1.041,2.873,2.536,2.873a3.1,3.1,0,0,0,1.845-.6l.286.56a3.88,3.88,0,0,1-2.209.675C2794.406,679.986,2792.963,678.635,2792.963,676.359Zm5.031-.481c0-1.677-.766-2.522-1.975-2.522a2.468,2.468,0,0,0-2.289,2.522Z"/>
    <path id="패스_30258" data-name="패스 30258" class="cls-6" d="M2800.035,676.359c0-2.249,1.47-3.653,3.043-3.653,1.677,0,2.678,1.2,2.678,3.225a3.621,3.621,0,0,1-.039.546H2800.8c.039,1.689,1.04,2.873,2.535,2.873a3.1,3.1,0,0,0,1.846-.6l.286.56a3.884,3.884,0,0,1-2.21.675C2801.479,679.986,2800.035,678.635,2800.035,676.359Zm5.031-.481c0-1.677-.766-2.522-1.975-2.522a2.467,2.467,0,0,0-2.288,2.522Z"/>
    <path id="패스_30259" data-name="패스 30259" class="cls-6" d="M2809.551,678.751l.416-.532a3.193,3.193,0,0,0,2.482,1.117,2.323,2.323,0,0,0,2.211-2.535,2.147,2.147,0,0,0-2.172-2.431,2.747,2.747,0,0,0-1.676.6l-.5-.3.326-4.329h4.329V671h-3.654l-.272,3.185a2.92,2.92,0,0,1,1.586-.455c1.559,0,2.807.936,2.807,3.042a3,3,0,0,1-2.963,3.211A3.9,3.9,0,0,1,2809.551,678.751Z"/>
  </g>
  <line id="선_1104" data-name="선 1104" class="cls-4" x1="138.16" transform="translate(279.179 121.68)"/>
  <rect id="사각형_419" data-name="사각형 419" class="cls-7" width="132" height="30" transform="translate(149.6 106.68)"/>
  <g id="그룹_24478" data-name="그룹 24478" transform="translate(-2027.93 -469.32)">
    <path id="패스_30260" data-name="패스 30260" class="cls-5" d="M2223.053,590.338c0-3.241,1.97-5.186,4.482-5.186a3.826,3.826,0,0,1,2.822,1.256l-.849,1a2.648,2.648,0,0,0-1.945-.89c-1.715,0-2.9,1.43-2.9,3.767,0,2.363,1.108,3.808,2.863,3.808a2.9,2.9,0,0,0,2.2-1.053l.837.985a3.927,3.927,0,0,1-3.092,1.432C2224.971,595.456,2223.053,593.592,2223.053,590.338Z"/>
    <path id="패스_30261" data-name="패스 30261" class="cls-5" d="M2231.53,591.58a3.516,3.516,0,1,1,3.5,3.876A3.589,3.589,0,0,1,2231.53,591.58Zm5.4,0c0-1.58-.729-2.633-1.9-2.633-1.16,0-1.889,1.053-1.889,2.633s.729,2.607,1.889,2.607C2236.2,594.187,2236.932,593.146,2236.932,591.58Z"/>
    <path id="패스_30262" data-name="패스 30262" class="cls-5" d="M2239.334,587.854h1.566l.986,4.023c.148.716.27,1.4.405,2.107h.054c.162-.7.31-1.405.486-2.107l1.04-4.023h1.444l1.068,4.023c.176.716.324,1.4.5,2.107h.053c.148-.7.27-1.391.432-2.107l.959-4.023h1.458l-1.918,7.426H2246l-.945-3.673c-.176-.7-.311-1.378-.473-2.147h-.066c-.15.769-.285,1.459-.473,2.161l-.905,3.659h-1.8Z"/>
    <path id="패스_30263" data-name="패스 30263" class="cls-5" d="M2250.768,593.309c0-1.594,1.35-2.417,4.443-2.755-.014-.865-.324-1.62-1.418-1.62a4.082,4.082,0,0,0-2.147.755l-.582-1.052a5.685,5.685,0,0,1,3-.973c1.849,0,2.7,1.175,2.7,3.147v4.469h-1.27l-.135-.85h-.041a3.693,3.693,0,0,1-2.363,1.026A2.052,2.052,0,0,1,2250.768,593.309Zm4.443.053V591.54c-2.2.27-2.944.823-2.944,1.66,0,.73.5,1.027,1.161,1.027A2.62,2.62,0,0,0,2255.211,593.362Z"/>
    <path id="패스_30264" data-name="패스 30264" class="cls-5" d="M2261.92,595.726c-.58,1.593-1.363,2.66-2.931,2.66a2.623,2.623,0,0,1-.931-.149l.3-1.215a1.992,1.992,0,0,0,.54.108c.81,0,1.283-.594,1.552-1.391l.15-.512-2.945-7.373h1.594l1.377,3.821c.217.661.446,1.4.676,2.093h.067l.581-2.093,1.188-3.821h1.512Z"/>
  </g>
  <line id="선_1105" data-name="선 1105" class="cls-4" y1="21.708" transform="translate(579.531 168.069)"/>
  <line id="선_1106" data-name="선 1106" class="cls-4" y1="22.708" transform="translate(256.968 168.069)"/>
  <rect id="사각형_420" data-name="사각형 420" class="cls-5" width="110.38" height="29.5" transform="translate(201.53 190.028)"/>
  <rect id="사각형_421" data-name="사각형 421" class="cls-4" width="110.38" height="29.5" transform="translate(201.53 190.028)"/>
  <g id="그룹_24479" data-name="그룹 24479" transform="translate(-2027.93 -469.32)">
    <path id="패스_30265" data-name="패스 30265" class="cls-6" d="M2236.936,678.569l.48-.546a3.646,3.646,0,0,0,2.744,1.261c1.4,0,2.275-.741,2.275-1.82,0-1.144-.742-1.508-1.677-1.924l-1.417-.624a2.629,2.629,0,0,1-1.925-2.366,2.527,2.527,0,0,1,2.809-2.379,3.616,3.616,0,0,1,2.677,1.144l-.441.507a3.043,3.043,0,0,0-2.236-.949c-1.209,0-2.016.637-2.016,1.612,0,1.079.924,1.482,1.613,1.782l1.416.624c1.08.48,1.99,1.078,1.99,2.521s-1.209,2.574-3.068,2.574A4.214,4.214,0,0,1,2236.936,678.569Z"/>
    <path id="패스_30266" data-name="패스 30266" class="cls-6" d="M2244.878,677.321v-4.433h.755v4.342c0,1.417.441,2.081,1.508,2.081.8,0,1.378-.416,2.158-1.353v-5.07h.754v6.929h-.637l-.065-1.143h-.039a3.08,3.08,0,0,1-2.341,1.312C2245.528,679.986,2244.878,679.1,2244.878,677.321Z"/>
    <path id="패스_30267" data-name="패스 30267" class="cls-6" d="M2253.12,679.115h-.026l-.09.7h-.611V669.482h.753v2.964l-.039,1.326a3.841,3.841,0,0,1,2.34-1.066c1.846,0,2.782,1.4,2.782,3.536,0,2.366-1.43,3.744-3.055,3.744A3.428,3.428,0,0,1,2253.12,679.115Zm4.3-2.873c0-1.664-.572-2.873-2.119-2.873a3.413,3.413,0,0,0-2.159,1.106v4a3.124,3.124,0,0,0,1.963.844C2256.461,679.323,2257.424,678.1,2257.424,676.242Z"/>
    <path id="패스_30268" data-name="패스 30268" class="cls-6" d="M2259.686,676.359c0-2.314,1.494-3.653,3.21-3.653a2.93,2.93,0,0,1,2.028.845l-.429.52a2.276,2.276,0,0,0-1.586-.7c-1.378,0-2.43,1.222-2.43,2.99s.96,2.977,2.417,2.977a2.767,2.767,0,0,0,1.807-.767l.364.521a3.354,3.354,0,0,1-2.21.9C2261.051,679.986,2259.686,678.66,2259.686,676.359Z"/>
    <path id="패스_30269" data-name="패스 30269" class="cls-6" d="M2265.965,676.359c0-2.314,1.455-3.653,3.133-3.653s3.132,1.339,3.132,3.653-1.456,3.627-3.132,3.627S2265.965,678.66,2265.965,676.359Zm5.486,0c0-1.768-1-2.99-2.353-2.99s-2.34,1.222-2.34,2.99.988,2.977,2.34,2.977S2271.451,678.127,2271.451,676.359Z"/>
    <path id="패스_30270" data-name="패스 30270" class="cls-6" d="M2274.115,672.888h.624l.091,1.053h.025a3.222,3.222,0,0,1,2.185-1.235,1.8,1.8,0,0,1,1.911,1.4,3.467,3.467,0,0,1,2.34-1.4c1.391,0,2.08.9,2.08,2.678v4.433h-.754v-4.329c0-1.443-.48-2.106-1.495-2.106a2.923,2.923,0,0,0-2,1.248v5.187h-.754v-4.329c0-1.443-.468-2.106-1.495-2.106a2.925,2.925,0,0,0-2,1.248v5.187h-.754Z"/>
    <path id="패스_30271" data-name="패스 30271" class="cls-6" d="M2285.672,672.888h.624l.091,1.053h.026a3.218,3.218,0,0,1,2.185-1.235,1.8,1.8,0,0,1,1.91,1.4,3.468,3.468,0,0,1,2.341-1.4c1.39,0,2.08.9,2.08,2.678v4.433h-.755v-4.329c0-1.443-.481-2.106-1.494-2.106a2.919,2.919,0,0,0-2,1.248v5.187h-.754v-4.329c0-1.443-.469-2.106-1.5-2.106a2.923,2.923,0,0,0-2,1.248v5.187h-.754Z"/>
    <path id="패스_30272" data-name="패스 30272" class="cls-6" d="M2296.969,670.665a.6.6,0,0,1,.636-.624.611.611,0,1,1-.636.624Zm.247,2.223h.755v6.929h-.755Z"/>
    <path id="패스_30273" data-name="패스 30273" class="cls-6" d="M2300.609,677.842v-4.317h-1.08v-.572l1.106-.065.091-2h.637v2h1.989v.637h-1.989v4.369c0,.871.234,1.442,1.157,1.442a2.456,2.456,0,0,0,.845-.194l.182.585a3.955,3.955,0,0,1-1.157.259C2301.025,679.986,2300.609,679.128,2300.609,677.842Z"/>
    <path id="패스_30274" data-name="패스 30274" class="cls-6" d="M2305.523,677.842v-4.317h-1.08v-.572l1.106-.065.091-2h.637v2h1.989v.637h-1.989v4.369c0,.871.234,1.442,1.157,1.442a2.456,2.456,0,0,0,.845-.194l.182.585a3.952,3.952,0,0,1-1.157.259C2305.939,679.986,2305.523,679.128,2305.523,677.842Z"/>
    <path id="패스_30275" data-name="패스 30275" class="cls-6" d="M2309.123,676.359c0-2.249,1.47-3.653,3.043-3.653,1.677,0,2.678,1.2,2.678,3.225a3.719,3.719,0,0,1-.039.546h-4.914c.039,1.689,1.04,2.873,2.535,2.873a3.1,3.1,0,0,0,1.845-.6l.287.56a3.887,3.887,0,0,1-2.21.675C2310.566,679.986,2309.123,678.635,2309.123,676.359Zm5.031-.481c0-1.677-.766-2.522-1.975-2.522a2.467,2.467,0,0,0-2.288,2.522Z"/>
    <path id="패스_30276" data-name="패스 30276" class="cls-6" d="M2316.2,676.359c0-2.249,1.469-3.653,3.042-3.653,1.677,0,2.679,1.2,2.679,3.225a3.719,3.719,0,0,1-.039.546h-4.914c.039,1.689,1.039,2.873,2.535,2.873a3.107,3.107,0,0,0,1.846-.6l.285.56a3.883,3.883,0,0,1-2.209.675C2317.639,679.986,2316.2,678.635,2316.2,676.359Zm5.032-.481c0-1.677-.768-2.522-1.977-2.522a2.466,2.466,0,0,0-2.287,2.522Z"/>
    <path id="패스_30277" data-name="패스 30277" class="cls-6" d="M2325.932,679.35c3.212-2.77,4.486-4.72,4.486-6.436a1.863,1.863,0,0,0-1.938-2.106,2.823,2.823,0,0,0-2.106,1.183l-.481-.455a3.484,3.484,0,0,1,2.666-1.365,2.483,2.483,0,0,1,2.626,2.717c0,1.989-1.535,3.978-4.056,6.332.519-.039,1.065-.078,1.559-.078h2.952v.675h-5.708Z"/>
  </g>
  <rect id="사각형_422" data-name="사각형 422" class="cls-5" width="110.38" height="29.5" transform="translate(524.09 190.028)"/>
  <rect id="사각형_423" data-name="사각형 423" class="cls-4" width="110.38" height="29.5" transform="translate(524.09 190.028)"/>
  <g id="그룹_24480" data-name="그룹 24480" transform="translate(-2027.93 -469.32)">
    <path id="패스_30278" data-name="패스 30278" class="cls-6" d="M2559.5,678.569l.481-.546a3.645,3.645,0,0,0,2.743,1.261c1.4,0,2.274-.741,2.274-1.82,0-1.144-.74-1.508-1.676-1.924l-1.418-.624a2.629,2.629,0,0,1-1.923-2.366,2.526,2.526,0,0,1,2.808-2.379,3.619,3.619,0,0,1,2.678,1.144l-.442.507a3.041,3.041,0,0,0-2.236-.949c-1.209,0-2.015.637-2.015,1.612,0,1.079.922,1.482,1.612,1.782l1.417.624c1.079.48,1.988,1.078,1.988,2.521s-1.209,2.574-3.067,2.574A4.217,4.217,0,0,1,2559.5,678.569Z"/>
    <path id="패스_30279" data-name="패스 30279" class="cls-6" d="M2567.438,677.321v-4.433h.754v4.342c0,1.417.443,2.081,1.508,2.081.806,0,1.378-.416,2.158-1.353v-5.07h.754v6.929h-.636l-.066-1.143h-.039a3.078,3.078,0,0,1-2.34,1.312C2568.088,679.986,2567.438,679.1,2567.438,677.321Z"/>
    <path id="패스_30280" data-name="패스 30280" class="cls-6" d="M2575.681,679.115h-.027l-.091.7h-.611V669.482h.755v2.964l-.039,1.326a3.836,3.836,0,0,1,2.34-1.066c1.846,0,2.781,1.4,2.781,3.536,0,2.366-1.43,3.744-3.055,3.744A3.421,3.421,0,0,1,2575.681,679.115Zm4.3-2.873c0-1.664-.571-2.873-2.119-2.873a3.406,3.406,0,0,0-2.157,1.106v4a3.12,3.12,0,0,0,1.963.844C2579.021,679.323,2579.983,678.1,2579.983,676.242Z"/>
    <path id="패스_30281" data-name="패스 30281" class="cls-6" d="M2582.245,676.359c0-2.314,1.495-3.653,3.211-3.653a2.928,2.928,0,0,1,2.028.845l-.429.52a2.273,2.273,0,0,0-1.586-.7c-1.377,0-2.431,1.222-2.431,2.99s.962,2.977,2.418,2.977a2.77,2.77,0,0,0,1.808-.767l.363.521a3.356,3.356,0,0,1-2.21.9C2583.61,679.986,2582.245,678.66,2582.245,676.359Z"/>
    <path id="패스_30282" data-name="패스 30282" class="cls-6" d="M2588.524,676.359c0-2.314,1.456-3.653,3.134-3.653s3.133,1.339,3.133,3.653-1.457,3.627-3.133,3.627S2588.524,678.66,2588.524,676.359Zm5.487,0c0-1.768-1-2.99-2.353-2.99s-2.341,1.222-2.341,2.99.989,2.977,2.341,2.977S2594.011,678.127,2594.011,676.359Z"/>
    <path id="패스_30283" data-name="패스 30283" class="cls-6" d="M2596.675,672.888h.624l.092,1.053h.025a3.218,3.218,0,0,1,2.184-1.235,1.8,1.8,0,0,1,1.912,1.4,3.462,3.462,0,0,1,2.34-1.4c1.39,0,2.08.9,2.08,2.678v4.433h-.754v-4.329c0-1.443-.482-2.106-1.5-2.106a2.928,2.928,0,0,0-2,1.248v5.187h-.754v-4.329c0-1.443-.468-2.106-1.494-2.106a2.919,2.919,0,0,0-2,1.248v5.187h-.755Z"/>
    <path id="패스_30284" data-name="패스 30284" class="cls-6" d="M2608.232,672.888h.624l.091,1.053h.026a3.22,3.22,0,0,1,2.184-1.235,1.8,1.8,0,0,1,1.911,1.4,3.47,3.47,0,0,1,2.34-1.4c1.391,0,2.08.9,2.08,2.678v4.433h-.754v-4.329c0-1.443-.48-2.106-1.495-2.106a2.925,2.925,0,0,0-2,1.248v5.187h-.754v-4.329c0-1.443-.467-2.106-1.495-2.106a2.925,2.925,0,0,0-2,1.248v5.187h-.754Z"/>
    <path id="패스_30285" data-name="패스 30285" class="cls-6" d="M2619.529,670.665a.6.6,0,0,1,.637-.624.612.612,0,1,1-.637.624Zm.247,2.223h.754v6.929h-.754Z"/>
    <path id="패스_30286" data-name="패스 30286" class="cls-6" d="M2623.169,677.842v-4.317h-1.079v-.572l1.1-.065.09-2h.638v2h1.989v.637h-1.989v4.369c0,.871.233,1.442,1.157,1.442a2.446,2.446,0,0,0,.845-.194l.182.585a3.945,3.945,0,0,1-1.158.259C2623.585,679.986,2623.169,679.128,2623.169,677.842Z"/>
    <path id="패스_30287" data-name="패스 30287" class="cls-6" d="M2628.083,677.842v-4.317H2627v-.572l1.1-.065.09-2h.638v2h1.989v.637h-1.989v4.369c0,.871.233,1.442,1.157,1.442a2.447,2.447,0,0,0,.845-.194l.182.585a3.946,3.946,0,0,1-1.158.259C2628.5,679.986,2628.083,679.128,2628.083,677.842Z"/>
    <path id="패스_30288" data-name="패스 30288" class="cls-6" d="M2631.684,676.359c0-2.249,1.468-3.653,3.042-3.653,1.676,0,2.678,1.2,2.678,3.225a3.589,3.589,0,0,1-.039.546h-4.914c.039,1.689,1.039,2.873,2.535,2.873a3.1,3.1,0,0,0,1.846-.6l.285.56a3.88,3.88,0,0,1-2.209.675C2633.127,679.986,2631.684,678.635,2631.684,676.359Zm5.031-.481c0-1.677-.768-2.522-1.977-2.522a2.467,2.467,0,0,0-2.287,2.522Z"/>
    <path id="패스_30289" data-name="패스 30289" class="cls-6" d="M2638.756,676.359c0-2.249,1.469-3.653,3.041-3.653,1.678,0,2.679,1.2,2.679,3.225a3.621,3.621,0,0,1-.039.546h-4.915c.04,1.689,1.041,2.873,2.536,2.873a3.1,3.1,0,0,0,1.845-.6l.286.56a3.881,3.881,0,0,1-2.21.675C2640.2,679.986,2638.756,678.635,2638.756,676.359Zm5.031-.481c0-1.677-.767-2.522-1.976-2.522a2.469,2.469,0,0,0-2.289,2.522Z"/>
    <path id="패스_30290" data-name="패스 30290" class="cls-6" d="M2654.42,677.113h-1.338v2.7h-.742v-2.7h-4.186v-.481l4.186-6.292h.742v6.137h1.338Zm-2.08-.636v-3.5c0-.429.039-1.131.078-1.573h-.064c-.221.429-.481.884-.754,1.313l-2.575,3.758Z"/>
  </g>
  <rect id="사각형_424" data-name="사각형 424" class="cls-8" width="253.333" height="33" transform="translate(293.204 26.153)"/>
  <rect id="사각형_425" data-name="사각형 425" class="cls-5" width="252.833" height="29.5" transform="translate(287.453 26.403)"/>
  <rect id="사각형_426" data-name="사각형 426" class="cls-4" width="252.833" height="29.5" transform="translate(287.453 26.403)"/>
  <g id="그룹_24481" data-name="그룹 24481" transform="translate(-2027.93 -469.32)">
    <path id="패스_30291" data-name="패스 30291" class="cls-8" d="M2388.482,511.471c0-3.242,2-5.186,4.633-5.186a3.961,3.961,0,0,1,2.957,1.256l-.85,1a2.692,2.692,0,0,0-2.053-.891c-1.851,0-3.079,1.431-3.079,3.768,0,2.363,1.094,3.808,3.146,3.808a2.465,2.465,0,0,0,1.567-.487V512.4h-1.971v-1.283h3.389v4.309a4.47,4.47,0,0,1-3.147,1.161C2390.414,516.589,2388.482,514.725,2388.482,511.471Z"/>
    <path id="패스_30292" data-name="패스 30292" class="cls-8" d="M2397.852,512.713a3.516,3.516,0,1,1,3.5,3.876A3.589,3.589,0,0,1,2397.852,512.713Zm5.4,0c0-1.58-.73-2.633-1.9-2.633s-1.891,1.053-1.891,2.633.729,2.606,1.891,2.606S2403.254,514.279,2403.254,512.713Z"/>
    <path id="패스_30293" data-name="패스 30293" class="cls-8" d="M2406.168,512.713a3.516,3.516,0,1,1,3.5,3.876A3.588,3.588,0,0,1,2406.168,512.713Zm5.4,0c0-1.58-.729-2.633-1.9-2.633s-1.89,1.053-1.89,2.633.729,2.606,1.89,2.606S2411.569,514.279,2411.569,512.713Z"/>
    <path id="패스_30294" data-name="패스 30294" class="cls-8" d="M2414.511,512.713c0-2.417,1.526-3.916,3.186-3.916a2.865,2.865,0,0,1,2,.837l-.067-1.229V505.65h1.553v10.763h-1.27l-.135-.837h-.041a3.11,3.11,0,0,1-2.16,1.013C2415.713,516.589,2414.511,515.171,2414.511,512.713Zm5.118,1.688v-3.632a2.329,2.329,0,0,0-1.635-.676c-1.039,0-1.877.986-1.877,2.593,0,1.688.662,2.62,1.823,2.62A2.184,2.184,0,0,0,2419.629,514.4Z"/>
    <path id="패스_30295" data-name="패스 30295" class="cls-8" d="M2423.543,508.986h1.27l.121,1.026h.041a3.536,3.536,0,0,1,2.457-1.215c1.58,0,2.282,1.054,2.282,2.943v4.673h-1.553V511.93c0-1.284-.378-1.8-1.256-1.8a2.535,2.535,0,0,0-1.823,1.012v5.267h-1.539Z"/>
    <path id="패스_30296" data-name="패스 30296" class="cls-8" d="M2431.467,512.713a3.606,3.606,0,0,1,3.388-3.916c1.973,0,3.026,1.418,3.026,3.524a3.963,3.963,0,0,1-.068.783h-4.821a2.244,2.244,0,0,0,2.3,2.269,3.145,3.145,0,0,0,1.769-.554l.541.987a4.509,4.509,0,0,1-2.512.783A3.568,3.568,0,0,1,2431.467,512.713Zm5.077-.675c0-1.283-.581-2.026-1.661-2.026a2.014,2.014,0,0,0-1.9,2.026Z"/>
    <path id="패스_30297" data-name="패스 30297" class="cls-8" d="M2438.864,515.563l.73-1a3.289,3.289,0,0,0,2.106.851c.892,0,1.31-.433,1.31-1,0-.675-.837-.972-1.648-1.282-.985-.378-2.12-.905-2.12-2.161s1-2.174,2.633-2.174a3.907,3.907,0,0,1,2.418.878l-.73.959a2.773,2.773,0,0,0-1.661-.649c-.81,0-1.187.406-1.187.918,0,.635.769.878,1.58,1.175,1.039.392,2.187.851,2.187,2.255,0,1.243-.986,2.256-2.822,2.256A4.577,4.577,0,0,1,2438.864,515.563Z"/>
    <path id="패스_30298" data-name="패스 30298" class="cls-8" d="M2445.371,515.563l.729-1a3.291,3.291,0,0,0,2.107.851c.891,0,1.31-.433,1.31-1,0-.675-.837-.972-1.648-1.282-.985-.378-2.12-.905-2.12-2.161s1-2.174,2.634-2.174a3.911,3.911,0,0,1,2.417.878l-.73.959a2.773,2.773,0,0,0-1.66-.649c-.81,0-1.189.406-1.189.918,0,.635.769.878,1.58,1.175,1.04.392,2.187.851,2.187,2.255,0,1.243-.985,2.256-2.822,2.256A4.578,4.578,0,0,1,2445.371,515.563Z"/>
    <path id="패스_30299" data-name="패스 30299" class="cls-8" d="M2455.32,511.471c0-3.242,1.972-5.186,4.484-5.186a3.826,3.826,0,0,1,2.822,1.256l-.851,1a2.644,2.644,0,0,0-1.944-.891c-1.716,0-2.9,1.431-2.9,3.768,0,2.363,1.107,3.808,2.863,3.808a2.9,2.9,0,0,0,2.2-1.053l.836.985a3.922,3.922,0,0,1-3.092,1.432C2457.238,516.589,2455.32,514.725,2455.32,511.471Z"/>
    <path id="패스_30300" data-name="패스 30300" class="cls-8" d="M2463.947,512.713a3.515,3.515,0,1,1,3.5,3.876A3.588,3.588,0,0,1,2463.947,512.713Zm5.4,0c0-1.58-.73-2.633-1.905-2.633s-1.889,1.053-1.889,2.633.728,2.606,1.889,2.606S2469.349,514.279,2469.349,512.713Z"/>
    <path id="패스_30301" data-name="패스 30301" class="cls-8" d="M2472.7,513.658v-4.672h1.553v4.483c0,1.283.365,1.783,1.242,1.783.69,0,1.162-.324,1.783-1.107v-5.159h1.553v7.427h-1.269l-.121-1.121h-.041a3.118,3.118,0,0,1-2.431,1.3C2473.384,516.589,2472.7,515.549,2472.7,513.658Z"/>
    <path id="패스_30302" data-name="패스 30302" class="cls-8" d="M2481.187,508.986h1.269l.122,1.026h.04a3.542,3.542,0,0,1,2.458-1.215c1.58,0,2.281,1.054,2.281,2.943v4.673H2485.8V511.93c0-1.284-.378-1.8-1.256-1.8a2.53,2.53,0,0,0-1.822,1.012v5.267h-1.54Z"/>
    <path id="패스_30303" data-name="패스 30303" class="cls-8" d="M2489.111,512.713a3.65,3.65,0,0,1,3.673-3.916,3.2,3.2,0,0,1,2.175.85l-.771,1.013a1.946,1.946,0,0,0-1.336-.58c-1.243,0-2.133,1.053-2.133,2.633s.849,2.606,2.092,2.606a2.548,2.548,0,0,0,1.621-.674l.634,1.025a3.615,3.615,0,0,1-2.4.919C2490.65,516.589,2489.111,515.171,2489.111,512.713Z"/>
    <path id="패스_30304" data-name="패스 30304" class="cls-8" d="M2496.428,506.677a.912.912,0,0,1,.986-.918.92.92,0,1,1-.986.918Zm.217,2.309h1.539v7.427h-1.539Z"/>
    <path id="패스_30305" data-name="패스 30305" class="cls-8" d="M2500.545,514.671V505.65h1.54v9.1c0,.419.188.567.378.567a1.085,1.085,0,0,0,.257-.027l.2,1.175a2.511,2.511,0,0,1-.837.122C2500.964,516.589,2500.545,515.873,2500.545,514.671Z"/>
  </g>
  <line id="선_1107" data-name="선 1107" class="cls-4" x2="594.22" transform="translate(40.25 240.778)"/>
  <line id="선_1108" data-name="선 1108" class="cls-4" y2="2.25" transform="translate(40.25 239.653)"/>
  <line id="선_1109" data-name="선 1109" class="cls-4" y2="2.25" transform="translate(634.47 239.653)"/>
  <line id="선_1110" data-name="선 1110" class="cls-4" x2="110.38" transform="translate(685.37 240.778)"/>
  <line id="선_1111" data-name="선 1111" class="cls-4" y2="2.25" transform="translate(685.37 239.653)"/>
  <line id="선_1112" data-name="선 1112" class="cls-4" y2="2.25" transform="translate(795.75 239.653)"/>
  <rect id="사각형_427" data-name="사각형 427" class="cls-2" width="91.518" height="11.44" transform="translate(297.941 234.957)"/>
  <g id="그룹_24482" data-name="그룹 24482" transform="translate(-2027.93 -469.32)">
    <path id="패스_30306" data-name="패스 30306" class="cls-6" d="M2335.658,714.729h2.119v-7.112h-1.689v-.754a6.06,6.06,0,0,0,1.976-.675h.91v8.541h1.911v.988h-5.227Z"/>
  </g>
  <g id="그룹_24483" data-name="그룹 24483" transform="translate(-2027.93 -469.32)">
    <path id="패스_30307" data-name="패스 30307" class="cls-6" d="M2342.041,710.919l.342-.455a1.863,1.863,0,0,0,1.221.485c.545,0,.811-.289.811-.644,0-.418-.485-.608-.94-.782-.577-.212-1.229-.493-1.229-1.191,0-.651.524-1.167,1.418-1.167a2.133,2.133,0,0,1,1.281.462l-.333.447a1.552,1.552,0,0,0-.948-.363c-.516,0-.75.272-.75.591,0,.394.447.539.909.713.6.227,1.259.47,1.259,1.252,0,.667-.531,1.22-1.5,1.22A2.49,2.49,0,0,1,2342.041,710.919Z"/>
    <path id="패스_30308" data-name="패스 30308" class="cls-6" d="M2346.4,710.114v-2.282h-.614v-.523l.645-.038.084-1.153h.576v1.153h1.115v.561h-1.115v2.3c0,.508.159.8.637.8a1.457,1.457,0,0,0,.47-.106l.137.516a2.631,2.631,0,0,1-.759.151C2346.7,711.487,2346.4,710.941,2346.4,710.114Z"/>
  </g>
  <g id="그룹_24484" data-name="그룹 24484" transform="translate(-2027.93 -469.32)">
    <path id="패스_30309" data-name="패스 30309" class="cls-6" d="M2351.957,714.469l.716-.82a3.739,3.739,0,0,0,2.64,1.184c1.248,0,2-.624,2-1.561,0-.974-.689-1.287-1.585-1.689l-1.379-.6a2.692,2.692,0,0,1-1.938-2.443c0-1.47,1.275-2.535,3-2.535a3.911,3.911,0,0,1,2.809,1.182l-.638.767a3.086,3.086,0,0,0-2.171-.9c-1.079,0-1.781.545-1.781,1.4,0,.923.832,1.273,1.573,1.586l1.364.585a2.654,2.654,0,0,1,1.964,2.548c0,1.507-1.248,2.7-3.237,2.7A4.556,4.556,0,0,1,2351.957,714.469Z"/>
    <path id="패스_30310" data-name="패스 30310" class="cls-6" d="M2360.1,713.13v-4.473h1.182v4.329c0,1.314.39,1.872,1.326,1.872.728,0,1.236-.35,1.912-1.195v-5.006h1.182v7.06h-.987l-.092-1.106h-.039a3.025,3.025,0,0,1-2.34,1.275C2360.758,715.886,2360.1,714.924,2360.1,713.13Z"/>
    <path id="패스_30311" data-name="패스 30311" class="cls-6" d="M2367.9,708.657h.974l.1.807h.039a3.754,3.754,0,0,1,2.248-.988c1.82,0,2.808,1.429,2.808,3.6,0,2.419-1.443,3.81-3.068,3.81a3.176,3.176,0,0,1-1.949-.82l.025,1.236v2.392H2367.9Zm4.94,3.433c0-1.561-.521-2.613-1.859-2.613a2.946,2.946,0,0,0-1.9.974v3.705a2.733,2.733,0,0,0,1.73.741C2371.978,714.9,2372.836,713.845,2372.836,712.09Z"/>
    <path id="패스_30312" data-name="패스 30312" class="cls-6" d="M2375.877,708.657h.975l.1.807H2377a3.763,3.763,0,0,1,2.249-.988c1.82,0,2.809,1.429,2.809,3.6,0,2.419-1.444,3.81-3.069,3.81a3.186,3.186,0,0,1-1.95-.82l.027,1.236v2.392h-1.184Zm4.94,3.433c0-1.561-.52-2.613-1.858-2.613a2.937,2.937,0,0,0-1.9.974v3.705a2.726,2.726,0,0,0,1.728.741C2379.959,714.9,2380.817,713.845,2380.817,712.09Z"/>
    <path id="패스_30313" data-name="패스 30313" class="cls-6" d="M2383.847,714.313v-8.945h1.182v9.023c0,.364.157.506.338.506a1.076,1.076,0,0,0,.247-.025l.169.91a1.866,1.866,0,0,1-.688.1C2384.211,715.886,2383.847,715.313,2383.847,714.313Z"/>
    <path id="패스_30314" data-name="패스 30314" class="cls-6" d="M2387.148,706.435a.821.821,0,0,1,1.638,0,.821.821,0,0,1-1.638,0Zm.221,2.222h1.183v7.06h-1.183Z"/>
    <path id="패스_30315" data-name="패스 30315" class="cls-6" d="M2390.281,712.193a3.414,3.414,0,0,1,3.186-3.717c1.793,0,2.807,1.3,2.807,3.315a4.758,4.758,0,0,1-.051.676h-4.758a2.338,2.338,0,0,0,2.34,2.47,3.04,3.04,0,0,0,1.767-.559l.43.78a4.208,4.208,0,0,1-2.341.728A3.374,3.374,0,0,1,2390.281,712.193Zm4.953-.571c0-1.431-.65-2.2-1.755-2.2a2.172,2.172,0,0,0-2.028,2.2Z"/>
    <path id="패스_30316" data-name="패스 30316" class="cls-6" d="M2397.99,708.657h.975l.1,1.287h.039a2.439,2.439,0,0,1,2-1.468,1.5,1.5,0,0,1,.754.156l-.221,1.04a1.655,1.655,0,0,0-.689-.117c-.585,0-1.313.416-1.781,1.625v4.537h-1.183Z"/>
    <path id="패스_30317" data-name="패스 30317" class="cls-6" d="M2402.383,714.911l.586-.78a3.2,3.2,0,0,0,2.093.832c.936,0,1.391-.494,1.391-1.106,0-.714-.832-1.04-1.612-1.338-.988-.365-2.107-.845-2.107-2.041,0-1.119.9-2,2.432-2a3.658,3.658,0,0,1,2.2.793l-.572.766a2.662,2.662,0,0,0-1.625-.624c-.885,0-1.287.469-1.287,1.015,0,.676.767.923,1.559,1.221,1.028.391,2.159.807,2.159,2.146,0,1.144-.91,2.093-2.575,2.093A4.26,4.26,0,0,1,2402.383,714.911Z"/>
  </g>
  <rect id="사각형_428" data-name="사각형 428" class="cls-1" width="273.76" height="28.44" transform="translate(280.24 72.696)"/>
  <g id="그룹_24485" data-name="그룹 24485" transform="translate(-2027.93 -469.32)">
    <path id="패스_30318" data-name="패스 30318" class="cls-6" d="M2381.865,551.39l.416-.533a3.191,3.191,0,0,0,2.483,1.118,2.324,2.324,0,0,0,2.211-2.536,2.147,2.147,0,0,0-2.172-2.43,2.752,2.752,0,0,0-1.677.6l-.494-.3.325-4.329h4.329v.663h-3.653l-.274,3.185a2.926,2.926,0,0,1,1.587-.455c1.56,0,2.808.936,2.808,3.042a3,3,0,0,1-2.964,3.211A3.906,3.906,0,0,1,2381.865,551.39Z"/>
    <path id="패스_30319" data-name="패스 30319" class="cls-6" d="M2391.8,551.676l.4-.546a3.18,3.18,0,0,0,2.185.871c1.054,0,1.586-.6,1.586-1.313,0-.819-.87-1.2-1.677-1.482-1.027-.364-2.171-.793-2.171-1.989,0-1.014.819-1.872,2.274-1.872a3.348,3.348,0,0,1,2.016.741l-.391.519a2.658,2.658,0,0,0-1.65-.624c-1.027,0-1.5.573-1.5,1.2,0,.767.806,1.052,1.612,1.352,1.066.4,2.237.78,2.237,2.119,0,1.066-.846,1.976-2.38,1.976A4.06,4.06,0,0,1,2391.8,551.676Z"/>
    <path id="패스_30320" data-name="패스 30320" class="cls-6" d="M2398.283,549.96v-4.434h.754v4.343c0,1.417.442,2.08,1.508,2.08.807,0,1.379-.416,2.158-1.352v-5.071h.754v6.93h-.637l-.064-1.143h-.039a3.08,3.08,0,0,1-2.34,1.312C2398.934,552.625,2398.283,551.741,2398.283,549.96Z"/>
    <path id="패스_30321" data-name="패스 30321" class="cls-6" d="M2406.525,551.754h-.025l-.092.7h-.61V542.121h.754v2.964l-.039,1.326a3.83,3.83,0,0,1,2.34-1.066c1.846,0,2.782,1.4,2.782,3.536,0,2.366-1.43,3.744-3.055,3.744A3.429,3.429,0,0,1,2406.525,551.754Zm4.3-2.873c0-1.664-.571-2.873-2.118-2.873a3.409,3.409,0,0,0-2.158,1.1v4a3.125,3.125,0,0,0,1.963.845C2409.867,551.962,2410.828,550.74,2410.828,548.881Z"/>
    <path id="패스_30322" data-name="패스 30322" class="cls-6" d="M2413.09,549c0-2.314,1.5-3.653,3.211-3.653a2.935,2.935,0,0,1,2.029.844l-.43.521a2.271,2.271,0,0,0-1.586-.7c-1.377,0-2.431,1.221-2.431,2.99s.963,2.977,2.418,2.977a2.762,2.762,0,0,0,1.807-.767l.365.521a3.358,3.358,0,0,1-2.21.9C2414.455,552.625,2413.09,551.3,2413.09,549Z"/>
    <path id="패스_30323" data-name="패스 30323" class="cls-6" d="M2419.369,549c0-2.314,1.457-3.653,3.134-3.653s3.133,1.339,3.133,3.653-1.456,3.627-3.133,3.627S2419.369,551.3,2419.369,549Zm5.486,0c0-1.769-1-2.99-2.352-2.99s-2.341,1.221-2.341,2.99.988,2.977,2.341,2.977S2424.855,550.766,2424.855,549Z"/>
    <path id="패스_30324" data-name="패스 30324" class="cls-6" d="M2427.521,545.526h.624l.09,1.054h.027a3.216,3.216,0,0,1,2.183-1.235,1.794,1.794,0,0,1,1.911,1.4,3.467,3.467,0,0,1,2.34-1.4c1.392,0,2.08.9,2.08,2.677v4.434h-.754v-4.329c0-1.443-.481-2.106-1.495-2.106a2.926,2.926,0,0,0-2,1.248v5.187h-.754v-4.329c0-1.443-.468-2.106-1.5-2.106a2.925,2.925,0,0,0-2,1.248v5.187h-.753Z"/>
    <path id="패스_30325" data-name="패스 30325" class="cls-6" d="M2439.077,545.526h.624l.092,1.054h.025a3.219,3.219,0,0,1,2.184-1.235,1.8,1.8,0,0,1,1.912,1.4,3.458,3.458,0,0,1,2.34-1.4c1.391,0,2.08.9,2.08,2.677v4.434h-.754v-4.329c0-1.443-.481-2.106-1.5-2.106a2.927,2.927,0,0,0-2,1.248v5.187h-.754v-4.329c0-1.443-.468-2.106-1.494-2.106a2.923,2.923,0,0,0-2,1.248v5.187h-.755Z"/>
    <path id="패스_30326" data-name="패스 30326" class="cls-6" d="M2450.375,543.3a.6.6,0,0,1,.637-.624.611.611,0,1,1-.637.624Zm.246,2.222h.754v6.93h-.754Z"/>
    <path id="패스_30327" data-name="패스 30327" class="cls-6" d="M2454.014,550.48v-4.316h-1.078v-.572l1.1-.066.091-2h.637v2h1.989v.638h-1.989v4.368c0,.871.234,1.443,1.157,1.443a2.42,2.42,0,0,0,.845-.195l.182.585a3.919,3.919,0,0,1-1.157.26C2454.43,552.625,2454.014,551.767,2454.014,550.48Z"/>
    <path id="패스_30328" data-name="패스 30328" class="cls-6" d="M2458.928,550.48v-4.316h-1.078v-.572l1.1-.066.091-2h.637v2h1.989v.638h-1.989v4.368c0,.871.234,1.443,1.157,1.443a2.415,2.415,0,0,0,.845-.195l.182.585a3.921,3.921,0,0,1-1.157.26C2459.344,552.625,2458.928,551.767,2458.928,550.48Z"/>
    <path id="패스_30329" data-name="패스 30329" class="cls-6" d="M2462.529,549c0-2.249,1.469-3.653,3.041-3.653,1.678,0,2.679,1.2,2.679,3.224a3.58,3.58,0,0,1-.039.546H2463.3c.039,1.69,1.04,2.873,2.535,2.873a3.1,3.1,0,0,0,1.846-.6l.286.559a3.876,3.876,0,0,1-2.21.676C2463.972,552.625,2462.529,551.273,2462.529,549Zm5.032-.481c0-1.677-.768-2.522-1.977-2.522a2.468,2.468,0,0,0-2.288,2.522Z"/>
    <path id="패스_30330" data-name="패스 30330" class="cls-6" d="M2469.6,549c0-2.249,1.469-3.653,3.042-3.653,1.677,0,2.677,1.2,2.677,3.224a3.46,3.46,0,0,1-.039.546h-4.914c.039,1.69,1.041,2.873,2.535,2.873a3.1,3.1,0,0,0,1.847-.6l.286.559a3.877,3.877,0,0,1-2.211.676C2471.043,552.625,2469.6,551.273,2469.6,549Zm5.031-.481c0-1.677-.767-2.522-1.976-2.522a2.468,2.468,0,0,0-2.289,2.522Z"/>
    <path id="패스_30331" data-name="패스 30331" class="cls-6" d="M2476.387,551.676l.4-.546a3.177,3.177,0,0,0,2.185.871c1.053,0,1.586-.6,1.586-1.313,0-.819-.871-1.2-1.677-1.482-1.028-.364-2.171-.793-2.171-1.989,0-1.014.819-1.872,2.274-1.872a3.35,3.35,0,0,1,2.016.741l-.391.519a2.658,2.658,0,0,0-1.65-.624c-1.027,0-1.495.573-1.495,1.2,0,.767.8,1.052,1.612,1.352,1.066.4,2.236.78,2.236,2.119,0,1.066-.845,1.976-2.379,1.976A4.06,4.06,0,0,1,2476.387,551.676Z"/>
    <path id="패스_30332" data-name="패스 30332" class="cls-6" d="M2485.512,550.714c0-1.534,1.365-2.262,4.421-2.613.026-1.027-.273-2.093-1.586-2.093a3.752,3.752,0,0,0-2.185.793l-.338-.546a4.806,4.806,0,0,1,2.627-.91c1.651,0,2.236,1.182,2.236,2.717v4.394h-.637l-.078-.884h-.027a3.983,3.983,0,0,1-2.418,1.053A1.828,1.828,0,0,1,2485.512,550.714Zm4.421.2V548.66c-2.73.312-3.666.949-3.666,2.015a1.249,1.249,0,0,0,1.417,1.313A3.417,3.417,0,0,0,2489.933,550.909Z"/>
    <path id="패스_30333" data-name="패스 30333" class="cls-6" d="M2492.922,545.526h.624l.091,1.054h.026a3.408,3.408,0,0,1,2.366-1.235c1.444,0,2.106.9,2.106,2.677v4.434h-.754v-4.329c0-1.443-.455-2.106-1.521-2.106-.805,0-1.378.416-2.184,1.248v5.187h-.754Z"/>
    <path id="패스_30334" data-name="패스 30334" class="cls-6" d="M2499.98,549c0-2.236,1.431-3.653,3.069-3.653a3.117,3.117,0,0,1,2.067.844l-.052-1.248v-2.82h.754v10.335h-.624l-.09-.871h-.027a3.207,3.207,0,0,1-2.223,1.04C2501.111,552.625,2499.98,551.325,2499.98,549Zm5.084,1.872v-4a2.8,2.8,0,0,0-1.937-.858c-1.326,0-2.34,1.287-2.34,2.99,0,1.794.793,2.964,2.2,2.964A2.9,2.9,0,0,0,2505.064,550.87Z"/>
  </g>
  <g id="그룹_24486" data-name="그룹 24486" transform="translate(-2027.93 -469.32)">
    <path id="패스_30335" data-name="패스 30335" class="cls-6" d="M2375.56,562.53h.624l.091,1.054h.026a3.218,3.218,0,0,1,2.183-1.235,1.8,1.8,0,0,1,1.912,1.4,3.462,3.462,0,0,1,2.34-1.4c1.391,0,2.08.9,2.08,2.677v4.434h-.753v-4.329c0-1.443-.482-2.107-1.5-2.107a2.929,2.929,0,0,0-2,1.248v5.188h-.753v-4.329c0-1.443-.468-2.107-1.5-2.107a2.923,2.923,0,0,0-2,1.248v5.188h-.754Z"/>
    <path id="패스_30336" data-name="패스 30336" class="cls-6" d="M2386.648,566c0-2.314,1.457-3.653,3.134-3.653s3.133,1.339,3.133,3.653-1.456,3.627-3.133,3.627S2386.648,568.3,2386.648,566Zm5.487,0c0-1.769-1-2.99-2.353-2.99s-2.341,1.221-2.341,2.99.989,2.977,2.341,2.977S2392.135,567.77,2392.135,566Z"/>
    <path id="패스_30337" data-name="패스 30337" class="cls-6" d="M2394.8,562.53h.624l.091,1.287h.026a2.382,2.382,0,0,1,1.963-1.468,1.393,1.393,0,0,1,.7.156l-.155.676a1.47,1.47,0,0,0-.638-.118c-.61,0-1.351.456-1.858,1.743v4.654h-.754Z"/>
    <path id="패스_30338" data-name="패스 30338" class="cls-6" d="M2398.765,566c0-2.249,1.469-3.653,3.042-3.653,1.677,0,2.677,1.2,2.677,3.224a3.49,3.49,0,0,1-.039.546h-4.914c.039,1.69,1.041,2.873,2.535,2.873a3.1,3.1,0,0,0,1.847-.6l.286.559a3.878,3.878,0,0,1-2.211.676C2400.207,569.629,2398.765,568.277,2398.765,566Zm5.031-.481c0-1.677-.767-2.522-1.976-2.522a2.468,2.468,0,0,0-2.289,2.522Z"/>
    <path id="패스_30339" data-name="패스 30339" class="cls-6" d="M2409.385,567.484v-4.316h-1.078V562.6l1.1-.066.091-2h.637v2h1.989v.638h-1.989v4.368c0,.871.234,1.443,1.157,1.443a2.415,2.415,0,0,0,.845-.2l.182.585a3.914,3.914,0,0,1-1.157.26C2409.8,569.629,2409.385,568.771,2409.385,567.484Z"/>
    <path id="패스_30340" data-name="패스 30340" class="cls-6" d="M2413.779,559.125h.754v2.964l-.013,1.508a3.379,3.379,0,0,1,2.367-1.248c1.442,0,2.1.9,2.1,2.677v4.434h-.754v-4.329c0-1.443-.455-2.107-1.521-2.107-.806,0-1.378.416-2.184,1.248v5.188h-.754Z"/>
    <path id="패스_30341" data-name="패스 30341" class="cls-6" d="M2420.734,567.718c0-1.534,1.366-2.262,4.42-2.614.026-1.026-.273-2.092-1.586-2.092a3.734,3.734,0,0,0-2.183.793l-.339-.546a4.807,4.807,0,0,1,2.626-.91c1.651,0,2.236,1.182,2.236,2.716v4.4h-.637l-.078-.884h-.026a3.993,3.993,0,0,1-2.418,1.053A1.828,1.828,0,0,1,2420.734,567.718Zm4.42.2v-2.249c-2.73.312-3.666.949-3.666,2.015a1.25,1.25,0,0,0,1.417,1.313A3.415,3.415,0,0,0,2425.154,567.913Z"/>
    <path id="패스_30342" data-name="패스 30342" class="cls-6" d="M2428.144,562.53h.624l.091,1.054h.026a3.408,3.408,0,0,1,2.366-1.235c1.442,0,2.106.9,2.106,2.677v4.434h-.753v-4.329c0-1.443-.456-2.107-1.522-2.107-.807,0-1.378.416-2.184,1.248v5.188h-.754Z"/>
    <path id="패스_30343" data-name="패스 30343" class="cls-6" d="M2438.635,568.8h2.144v-7.709h-1.65v-.507a5.47,5.47,0,0,0,1.807-.6h.611V568.8h1.975v.663h-4.887Z"/>
    <path id="패스_30344" data-name="패스 30344" class="cls-6" d="M2444.666,564.688c0-3.289,1.066-4.875,2.8-4.875s2.782,1.586,2.782,4.875c0,3.329-1.066,4.941-2.782,4.941S2444.666,568.017,2444.666,564.688Zm4.824,0c0-2.821-.806-4.238-2.028-4.238s-2.042,1.417-2.042,4.238c0,2.874.807,4.3,2.042,4.3S2449.49,567.562,2449.49,564.688Z"/>
    <path id="패스_30345" data-name="패스 30345" class="cls-6" d="M2451.842,564.688c0-3.289,1.066-4.875,2.8-4.875s2.782,1.586,2.782,4.875c0,3.329-1.066,4.941-2.782,4.941S2451.842,568.017,2451.842,564.688Zm4.824,0c0-2.821-.807-4.238-2.028-4.238s-2.042,1.417-2.042,4.238c0,2.874.806,4.3,2.042,4.3S2456.666,567.562,2456.666,564.688Z"/>
    <path id="패스_30346" data-name="패스 30346" class="cls-6" d="M2461.449,568.68l.4-.546a3.175,3.175,0,0,0,2.184.871c1.054,0,1.586-.6,1.586-1.314,0-.818-.87-1.2-1.677-1.481-1.027-.364-2.171-.793-2.171-1.989,0-1.014.82-1.872,2.275-1.872a3.344,3.344,0,0,1,2.015.741l-.39.519a2.663,2.663,0,0,0-1.651-.624c-1.027,0-1.495.573-1.495,1.2,0,.767.806,1.052,1.613,1.352,1.065.4,2.236.779,2.236,2.119,0,1.066-.846,1.976-2.38,1.976A4.06,4.06,0,0,1,2461.449,568.68Z"/>
    <path id="패스_30347" data-name="패스 30347" class="cls-6" d="M2467.936,566.964V562.53h.753v4.343c0,1.417.443,2.08,1.508,2.08.807,0,1.379-.416,2.158-1.352V562.53h.754v6.93h-.636l-.065-1.144h-.039a3.077,3.077,0,0,1-2.34,1.313C2468.586,569.629,2467.936,568.745,2467.936,566.964Z"/>
    <path id="패스_30348" data-name="패스 30348" class="cls-6" d="M2475.45,562.53h.624l.091.846h.026a4.023,4.023,0,0,1,2.314-1.027c1.847,0,2.782,1.4,2.782,3.536,0,2.366-1.43,3.744-3.055,3.744a3.424,3.424,0,0,1-2.041-.845l.013,1.274v2.5h-.754Zm5.03,3.355c0-1.664-.571-2.873-2.118-2.873a3.468,3.468,0,0,0-2.158,1.1v4a3.179,3.179,0,0,0,1.963.845C2479.52,568.966,2480.48,567.744,2480.48,565.885Z"/>
    <path id="패스_30349" data-name="패스 30349" class="cls-6" d="M2483.224,562.53h.624l.091.846h.026a4.023,4.023,0,0,1,2.314-1.027c1.846,0,2.782,1.4,2.782,3.536,0,2.366-1.43,3.744-3.055,3.744a3.42,3.42,0,0,1-2.041-.845l.014,1.274v2.5h-.755Zm5.031,3.355c0-1.664-.571-2.873-2.119-2.873a3.464,3.464,0,0,0-2.157,1.1v4a3.175,3.175,0,0,0,1.962.845C2487.293,568.966,2488.255,567.744,2488.255,565.885Z"/>
    <path id="패스_30350" data-name="패스 30350" class="cls-6" d="M2490.972,568.433v-9.308h.755v9.386c0,.325.128.468.311.468a1.155,1.155,0,0,0,.247-.026l.117.6a1.529,1.529,0,0,1-.507.078C2491.271,569.629,2490.972,569.239,2490.972,568.433Z"/>
    <path id="패스_30351" data-name="패스 30351" class="cls-6" d="M2493.923,560.308a.6.6,0,0,1,.637-.624.611.611,0,1,1-.637.624Zm.247,2.222h.754v6.93h-.754Z"/>
    <path id="패스_30352" data-name="패스 30352" class="cls-6" d="M2496.756,566c0-2.249,1.47-3.653,3.043-3.653,1.677,0,2.678,1.2,2.678,3.224a3.743,3.743,0,0,1-.039.546h-4.915c.04,1.69,1.04,2.873,2.536,2.873a3.1,3.1,0,0,0,1.845-.6l.286.559a3.876,3.876,0,0,1-2.21.676C2498.2,569.629,2496.756,568.277,2496.756,566Zm5.031-.481c0-1.677-.766-2.522-1.975-2.522a2.468,2.468,0,0,0-2.289,2.522Z"/>
    <path id="패스_30353" data-name="패스 30353" class="cls-6" d="M2504.258,562.53h.624l.091,1.287H2505a2.385,2.385,0,0,1,1.964-1.468,1.4,1.4,0,0,1,.7.156l-.156.676a1.469,1.469,0,0,0-.637-.118c-.611,0-1.352.456-1.859,1.743v4.654h-.754Z"/>
    <path id="패스_30354" data-name="패스 30354" class="cls-6" d="M2508.248,568.68l.4-.546a3.178,3.178,0,0,0,2.185.871c1.053,0,1.586-.6,1.586-1.314,0-.818-.871-1.2-1.678-1.481-1.026-.364-2.171-.793-2.171-1.989,0-1.014.82-1.872,2.276-1.872a3.342,3.342,0,0,1,2.014.741l-.389.519a2.666,2.666,0,0,0-1.652-.624c-1.027,0-1.494.573-1.494,1.2,0,.767.806,1.052,1.611,1.352,1.067.4,2.237.779,2.237,2.119,0,1.066-.846,1.976-2.379,1.976A4.065,4.065,0,0,1,2508.248,568.68Z"/>
  </g>
  <rect id="사각형_429" data-name="사각형 429" class="cls-3" width="84.61" height="11.44" transform="translate(698.255 234.957)"/>
  <g id="그룹_24487" data-name="그룹 24487" transform="translate(-2027.93 -469.32)">
    <path id="패스_30355" data-name="패스 30355" class="cls-6" d="M2730.685,715.015c2.99-2.614,4.368-4.511,4.368-6.15a1.676,1.676,0,0,0-1.755-1.885,2.673,2.673,0,0,0-1.977,1.106l-.688-.677a3.64,3.64,0,0,1,2.807-1.4,2.614,2.614,0,0,1,2.77,2.82c0,1.9-1.495,3.836-3.731,5.955.494-.039,1.079-.092,1.559-.092h2.64v1.028h-5.993Z"/>
  </g>
  <g id="그룹_24488" data-name="그룹 24488" transform="translate(-2027.93 -469.32)">
    <path id="패스_30356" data-name="패스 30356" class="cls-6" d="M2737.8,707.271h.569l.061.591h.022a1.979,1.979,0,0,1,1.381-.7c.864,0,1.259.561,1.259,1.615v2.609h-.691v-2.518c0-.773-.235-1.1-.781-1.1a1.565,1.565,0,0,0-1.13.629v2.989h-.69Z"/>
    <path id="패스_30357" data-name="패스 30357" class="cls-6" d="M2742.258,709.334a1.948,1.948,0,0,1,1.781-2.169,1.677,1.677,0,0,1,1.161.485l-.038-.712v-1.585h.69v6.036h-.561l-.068-.486h-.016a1.834,1.834,0,0,1-1.251.584C2742.925,711.487,2742.258,710.706,2742.258,709.334Zm2.9,1.008v-2.161a1.448,1.448,0,0,0-1-.433c-.668,0-1.19.638-1.19,1.578,0,.993.409,1.585,1.136,1.585A1.415,1.415,0,0,0,2745.162,710.342Z"/>
  </g>
  <g id="그룹_24489" data-name="그룹 24489" transform="translate(-2027.93 -469.32)">
    <path id="패스_30358" data-name="패스 30358" class="cls-6" d="M2750.08,714.469l.715-.82a3.739,3.739,0,0,0,2.639,1.184c1.248,0,2-.624,2-1.561,0-.974-.689-1.287-1.586-1.689l-1.378-.6a2.691,2.691,0,0,1-1.937-2.443c0-1.47,1.274-2.535,3-2.535a3.907,3.907,0,0,1,2.808,1.182l-.637.767a3.086,3.086,0,0,0-2.171-.9c-1.079,0-1.781.545-1.781,1.4,0,.923.832,1.273,1.573,1.586l1.365.585a2.654,2.654,0,0,1,1.963,2.548c0,1.507-1.248,2.7-3.237,2.7A4.552,4.552,0,0,1,2750.08,714.469Z"/>
    <path id="패스_30359" data-name="패스 30359" class="cls-6" d="M2758.218,713.13v-4.473h1.182v4.329c0,1.314.39,1.872,1.327,1.872.727,0,1.235-.35,1.911-1.195v-5.006h1.182v7.06h-.988l-.091-1.106h-.039a3.025,3.025,0,0,1-2.34,1.275C2758.881,715.886,2758.218,714.924,2758.218,713.13Z"/>
    <path id="패스_30360" data-name="패스 30360" class="cls-6" d="M2766.018,708.657h.974l.1.807h.039a3.753,3.753,0,0,1,2.249-.988c1.819,0,2.807,1.429,2.807,3.6,0,2.419-1.442,3.81-3.068,3.81a3.178,3.178,0,0,1-1.949-.82l.025,1.236v2.392h-1.182Zm4.939,3.433c0-1.561-.519-2.613-1.858-2.613a2.943,2.943,0,0,0-1.9.974v3.705a2.732,2.732,0,0,0,1.73.741C2770.1,714.9,2770.957,713.845,2770.957,712.09Z"/>
    <path id="패스_30361" data-name="패스 30361" class="cls-6" d="M2774,708.657h.975l.1.807h.039a3.759,3.759,0,0,1,2.249-.988c1.82,0,2.808,1.429,2.808,3.6,0,2.419-1.443,3.81-3.069,3.81a3.181,3.181,0,0,1-1.949-.82l.026,1.236v2.392H2774Zm4.939,3.433c0-1.561-.519-2.613-1.858-2.613a2.939,2.939,0,0,0-1.9.974v3.705a2.728,2.728,0,0,0,1.729.741C2778.082,714.9,2778.939,713.845,2778.939,712.09Z"/>
    <path id="패스_30362" data-name="패스 30362" class="cls-6" d="M2781.969,714.313v-8.945h1.182v9.023c0,.364.157.506.338.506a1.077,1.077,0,0,0,.247-.025l.169.91a1.866,1.866,0,0,1-.688.1C2782.332,715.886,2781.969,715.313,2781.969,714.313Z"/>
    <path id="패스_30363" data-name="패스 30363" class="cls-6" d="M2785.27,706.435a.821.821,0,0,1,1.638,0,.821.821,0,0,1-1.638,0Zm.221,2.222h1.183v7.06h-1.183Z"/>
    <path id="패스_30364" data-name="패스 30364" class="cls-6" d="M2788.4,712.193a3.413,3.413,0,0,1,3.185-3.717c1.8,0,2.808,1.3,2.808,3.315a4.758,4.758,0,0,1-.051.676h-4.759a2.339,2.339,0,0,0,2.341,2.47,3.04,3.04,0,0,0,1.767-.559l.429.78a4.2,4.2,0,0,1-2.34.728A3.374,3.374,0,0,1,2788.4,712.193Zm4.953-.571c0-1.431-.65-2.2-1.754-2.2a2.172,2.172,0,0,0-2.029,2.2Z"/>
    <path id="패스_30365" data-name="패스 30365" class="cls-6" d="M2796.112,708.657h.975l.1,1.287h.039a2.439,2.439,0,0,1,2-1.468,1.5,1.5,0,0,1,.754.156l-.22,1.04a1.663,1.663,0,0,0-.69-.117c-.585,0-1.313.416-1.781,1.625v4.537h-1.183Z"/>
    <path id="패스_30366" data-name="패스 30366" class="cls-6" d="M2800.506,714.911l.585-.78a3.2,3.2,0,0,0,2.093.832c.936,0,1.39-.494,1.39-1.106,0-.714-.832-1.04-1.611-1.338-.988-.365-2.107-.845-2.107-2.041,0-1.119.9-2,2.432-2a3.654,3.654,0,0,1,2.2.793l-.571.766a2.662,2.662,0,0,0-1.625-.624c-.885,0-1.287.469-1.287,1.015,0,.676.767.923,1.56,1.221,1.027.391,2.158.807,2.158,2.146,0,1.144-.91,2.093-2.574,2.093A4.257,4.257,0,0,1,2800.506,714.911Z"/>
  </g>
</svg>
