<svg id="구성_요소_62_1" data-name="구성 요소 62 – 1" xmlns="http://www.w3.org/2000/svg" width="102.646" height="121.434" viewBox="0 0 102.646 121.434">
  <defs>
    <style>
      .cls-1 {
        fill: #e1e6e6;
      }

      .cls-2 {
        fill: #1393d0;
      }

      .cls-3 {
        fill: #5aaad2;
      }

      .cls-4 {
        fill: #787a7b;
      }
    </style>
  </defs>
  <path id="패스_36593" data-name="패스 36593" class="cls-1" d="M411.652,241.893a51.323,51.323,0,1,1-51.323-51.323,51.323,51.323,0,0,1,51.323,51.323" transform="translate(-309.006 -171.782)"/>
  <g id="그룹_21552" data-name="그룹 21552" transform="translate(-309.006 -171.782)">
    <path id="패스_36596" data-name="패스 36596" class="cls-2" d="M340.268,222.17q0,5.123-1.615,7.651a5.966,5.966,0,0,1-9.794-.061q-1.662-2.587-1.662-7.59,0-5.163,1.608-7.664a5.971,5.971,0,0,1,9.794.108Q340.267,217.222,340.268,222.17Zm-10.8,0a14.488,14.488,0,0,0,1.013,6.279,3.642,3.642,0,0,0,6.482-.027,19.868,19.868,0,0,0,0-12.49,3.654,3.654,0,0,0-6.482-.027A14.392,14.392,0,0,0,329.468,222.17Z"/>
    <path id="패스_36597" data-name="패스 36597" class="cls-2" d="M343.7,230.646a2.01,2.01,0,0,1,.412-1.372,1.492,1.492,0,0,1,1.183-.467,1.6,1.6,0,0,1,1.223.467,1.933,1.933,0,0,1,.439,1.372,1.894,1.894,0,0,1-.446,1.352,1.775,1.775,0,0,1-2.359.046A1.852,1.852,0,0,1,343.7,230.646Z"/>
    <path id="패스_36598" data-name="패스 36598" class="cls-2" d="M363.355,232.079h-12.99v-1.933l5.205-5.231a38.483,38.483,0,0,0,3.136-3.434,8.774,8.774,0,0,0,1.135-2,5.733,5.733,0,0,0,.379-2.1,3.328,3.328,0,0,0-.96-2.508,3.678,3.678,0,0,0-2.663-.925,6.685,6.685,0,0,0-2.332.4,9.29,9.29,0,0,0-2.453,1.474l-1.19-1.528a9.114,9.114,0,0,1,5.948-2.27,6.282,6.282,0,0,1,4.366,1.425,4.91,4.91,0,0,1,1.582,3.833,7.4,7.4,0,0,1-1.055,3.717,23.6,23.6,0,0,1-3.947,4.65l-4.326,4.231V230h10.165Z"/>
    <path id="패스_36599" data-name="패스 36599" class="cls-2" d="M372.372,220.007a7.273,7.273,0,0,1,4.914,1.548,5.313,5.313,0,0,1,1.791,4.238,6.123,6.123,0,0,1-1.953,4.812,7.8,7.8,0,0,1-5.387,1.744,9.91,9.91,0,0,1-5.1-1.068v-2.162a7.746,7.746,0,0,0,2.352.952,11.6,11.6,0,0,0,2.771.345,5.534,5.534,0,0,0,3.7-1.122,4.027,4.027,0,0,0,1.318-3.244q0-4.137-5.07-4.136a20.208,20.208,0,0,0-3.433.391l-1.162-.743.743-9.246h9.828v2.068h-7.908l-.5,5.935A15.7,15.7,0,0,1,372.372,220.007Z"/>
    <path id="패스_36600" data-name="패스 36600" class="cls-2" d="M394.27,216.966a4.511,4.511,0,0,1-1.061,3.1,5.312,5.312,0,0,1-3.008,1.608v.109a5.654,5.654,0,0,1,3.528,1.513,4.457,4.457,0,0,1,1.149,3.19,5.177,5.177,0,0,1-1.96,4.347,8.919,8.919,0,0,1-5.569,1.52,16.2,16.2,0,0,1-2.872-.236,9.824,9.824,0,0,1-2.535-.832v-2.136a12.928,12.928,0,0,0,5.488,1.3q5.123,0,5.123-4.015,0-3.594-5.65-3.6h-1.946V220.9h1.973a5.937,5.937,0,0,0,3.663-1.021,3.349,3.349,0,0,0,1.352-2.832,2.791,2.791,0,0,0-.994-2.271,4.1,4.1,0,0,0-2.7-.824,8.334,8.334,0,0,0-2.447.351,10.964,10.964,0,0,0-2.622,1.3l-1.136-1.515a9.482,9.482,0,0,1,2.805-1.506,10.168,10.168,0,0,1,3.346-.547,6.835,6.835,0,0,1,4.474,1.317A4.44,4.44,0,0,1,394.27,216.966Z"/>
  </g>
  <g id="그룹_21553" data-name="그룹 21553" transform="translate(-309.006 -171.782)">
    <path id="패스_36601" data-name="패스 36601" class="cls-3" d="M344.7,249.255v-3.981H343.7v-.527l1.019-.061.084-1.847h.588v1.847h1.835v.588h-1.835V249.3c0,.8.215,1.332,1.067,1.332a2.237,2.237,0,0,0,.78-.18l.168.54a3.65,3.65,0,0,1-1.068.24C345.081,251.235,344.7,250.443,344.7,249.255Z"/>
    <path id="패스_36602" data-name="패스 36602" class="cls-3" d="M348.058,246.7c0-2.794,1.546-4.522,3.765-4.522a3.024,3.024,0,0,1,2.3,1.056l-.408.468a2.457,2.457,0,0,0-1.895-.876c-1.846,0-3.01,1.487-3.01,3.85,0,2.387,1.14,3.909,2.975,3.909a2.8,2.8,0,0,0,2.17-1.054l.408.455a3.276,3.276,0,0,1-2.615,1.248C349.593,251.235,348.058,249.5,348.058,246.7Z"/>
    <path id="패스_36603" data-name="패스 36603" class="cls-3" d="M355.029,246.677c0-2.77,1.512-4.5,3.622-4.5,2.135,0,3.634,1.728,3.634,4.5s-1.5,4.558-3.634,4.558C356.541,251.235,355.029,249.459,355.029,246.677Zm6.513,0c0-2.375-1.152-3.85-2.891-3.85s-2.866,1.475-2.866,3.85,1.139,3.909,2.866,3.909S361.542,249.051,361.542,246.677Z"/>
  </g>
  <g id="그룹_21554" data-name="그룹 21554" transform="translate(-309.006 -171.782)">
    <path id="패스_36604" data-name="패스 36604" class="cls-3" d="M363.072,250.5c1.726-1.489,2.411-2.537,2.411-3.459a1,1,0,0,0-1.041-1.132,1.517,1.517,0,0,0-1.132.636l-.259-.246a1.878,1.878,0,0,1,1.433-.733,1.335,1.335,0,0,1,1.412,1.461c0,1.069-.825,2.139-2.181,3.4.28-.021.573-.042.839-.042h1.586v.364h-3.068Z"/>
  </g>
  <g id="그룹_21555" data-name="그룹 21555" transform="translate(-309.006 -171.782)">
    <path id="패스_36605" data-name="패스 36605" class="cls-3" d="M367.032,247.888c0-2.074,1.355-3.37,2.806-3.37,1.548,0,2.471,1.1,2.471,2.975a3.34,3.34,0,0,1-.036.5H367.74a2.419,2.419,0,0,0,2.338,2.65,2.858,2.858,0,0,0,1.7-.552l.264.516a3.575,3.575,0,0,1-2.039.624A3.029,3.029,0,0,1,367.032,247.888Zm4.641-.443c0-1.548-.707-2.327-1.822-2.327a2.276,2.276,0,0,0-2.111,2.327Z"/>
    <path id="패스_36606" data-name="패스 36606" class="cls-3" d="M376.642,241.652h.576L373.26,253.2H372.7Z"/>
  </g>
  <g id="그룹_21556" data-name="그룹 21556" transform="translate(-309.006 -171.782)">
    <path id="패스_36607" data-name="패스 36607" class="cls-3" d="M333.084,265.467h1.979v-7.112H333.54v-.468a5,5,0,0,0,1.667-.552h.564v8.132h1.822v.612h-4.509Z"/>
    <path id="패스_36608" data-name="패스 36608" class="cls-3" d="M338.808,261.677c0-3.034.984-4.5,2.579-4.5s2.566,1.464,2.566,4.5c0,3.071-.983,4.558-2.566,4.558S338.808,264.748,338.808,261.677Zm4.449,0c0-2.6-.743-3.91-1.87-3.91s-1.884,1.308-1.884,3.91c0,2.651.744,3.97,1.884,3.97S343.257,264.328,343.257,261.677Z"/>
    <path id="패스_36609" data-name="패스 36609" class="cls-3" d="M345,261.677c0-3.034.983-4.5,2.579-4.5s2.566,1.464,2.566,4.5c0,3.071-.983,4.558-2.566,4.558S345,264.748,345,261.677Zm4.45,0c0-2.6-.744-3.91-1.871-3.91s-1.884,1.308-1.884,3.91c0,2.651.744,3.97,1.884,3.97S349.45,264.328,349.45,261.677Z"/>
    <path id="패스_36610" data-name="패스 36610" class="cls-3" d="M352.991,259.686h.576l.084.972h.024a2.966,2.966,0,0,1,2.015-1.14,1.657,1.657,0,0,1,1.763,1.3,3.192,3.192,0,0,1,2.159-1.3c1.283,0,1.919.828,1.919,2.471v4.09h-.7v-3.995c0-1.331-.444-1.942-1.379-1.942a2.7,2.7,0,0,0-1.847,1.151v4.786h-.7v-3.995c0-1.331-.432-1.942-1.379-1.942a2.7,2.7,0,0,0-1.847,1.151v4.786h-.7Z"/>
    <path id="패스_36611" data-name="패스 36611" class="cls-3" d="M363.383,257.635a.558.558,0,0,1,.588-.576.565.565,0,1,1-.588.576Zm.228,2.051h.7v6.393h-.7Z"/>
    <path id="패스_36612" data-name="패스 36612" class="cls-3" d="M366.467,265.131v-8.588h.7v8.66c0,.3.12.432.287.432a1.068,1.068,0,0,0,.228-.024l.108.552a1.406,1.406,0,0,1-.468.072C366.743,266.235,366.467,265.875,366.467,265.131Z"/>
    <path id="패스_36613" data-name="패스 36613" class="cls-3" d="M369.431,265.131v-8.588h.7v8.66c0,.3.121.432.288.432a1.073,1.073,0,0,0,.228-.024l.108.552a1.41,1.41,0,0,1-.468.072C369.707,266.235,369.431,265.875,369.431,265.131Z"/>
    <path id="패스_36614" data-name="패스 36614" class="cls-3" d="M372.167,257.635a.558.558,0,0,1,.588-.576.565.565,0,1,1-.588.576Zm.228,2.051h.7v6.393h-.7Z"/>
    <path id="패스_36615" data-name="패스 36615" class="cls-3" d="M374.723,262.888c0-2.135,1.343-3.37,2.89-3.37s2.891,1.235,2.891,3.37-1.343,3.347-2.891,3.347S374.723,265.011,374.723,262.888Zm5.061,0c0-1.631-.923-2.759-2.171-2.759s-2.158,1.128-2.158,2.759.911,2.747,2.158,2.747S379.784,264.519,379.784,262.888Z"/>
    <path id="패스_36616" data-name="패스 36616" class="cls-3" d="M382.139,259.686h.575l.084.972h.024a3.146,3.146,0,0,1,2.183-1.14c1.331,0,1.943.828,1.943,2.471v4.09h-.7v-3.995c0-1.331-.419-1.942-1.4-1.942-.743,0-1.271.384-2.015,1.151v4.786h-.7Z"/>
  </g>
  <g id="그룹_21557" data-name="그룹 21557" transform="translate(-309.006 -171.782)">
    <path id="패스_36617" data-name="패스 36617" class="cls-3" d="M349.259,272.335h.719v4.749H350l4.1-4.749h.852l-2.783,3.25,3.178,5.494h-.827l-2.831-4.93-1.715,1.979v2.951h-.719Z"/>
    <path id="패스_36618" data-name="패스 36618" class="cls-3" d="M361.34,281.079l-2.327-3.947h-1.787v3.947h-.719v-8.744h2.554c1.739,0,2.915.636,2.915,2.339a2.3,2.3,0,0,1-2.183,2.4l2.363,4.006Zm-4.114-4.546h1.668c1.51,0,2.35-.6,2.35-1.859s-.84-1.739-2.35-1.739h-1.668Z"/>
    <path id="패스_36619" data-name="패스 36619" class="cls-3" d="M362.771,272.335h.744l1.055,5.062c.2.947.4,1.895.588,2.854h.048c.215-.959.443-1.907.671-2.854l1.331-5.062h.708l1.343,5.062c.228.947.444,1.895.672,2.854h.06c.18-.959.36-1.907.551-2.854l1.056-5.062h.708l-1.919,8.744h-.816l-1.547-5.841c-.144-.7-.3-1.3-.456-1.967h-.047c-.145.672-.325,1.271-.48,1.967l-1.5,5.841h-.816Z"/>
  </g>
  <g id="그룹_21570" data-name="그룹 21570" transform="translate(-309.006 -171.782)">
    <path id="패스_36668" data-name="패스 36668" class="cls-4" d="M345.574,181.234c3-2.657,4.553-4.636,4.553-6.311a1.66,1.66,0,0,0-1.73-1.868,2.762,2.762,0,0,0-2.007,1.135l-.9-.886a4,4,0,0,1,3.1-1.522,2.88,2.88,0,0,1,3.072,3.058c0,1.965-1.563,4-3.723,6.062.526-.055,1.163-.1,1.661-.1h2.546v1.357h-6.573Z"/>
    <path id="패스_36669" data-name="패스 36669" class="cls-4" d="M353.242,177.027c0-3.529,1.287-5.245,3.294-5.245s3.294,1.73,3.294,5.245c0,3.543-1.3,5.314-3.294,5.314S353.242,180.57,353.242,177.027Zm5.066,0c0-2.92-.734-3.985-1.772-3.985s-1.771,1.065-1.771,3.985c0,2.948.733,4.056,1.771,4.056S358.308,179.975,358.308,177.027Z"/>
    <path id="패스_36670" data-name="패스 36670" class="cls-4" d="M361.409,180.847h2.228v-7.086H361.81V172.75a6.231,6.231,0,0,0,2.214-.775h1.2v8.872h1.993v1.315h-5.812Z"/>
    <path id="패스_36671" data-name="패스 36671" class="cls-4" d="M373.312,173.318h-4.789v-1.343h6.56v.97c-2.394,2.989-2.768,5.231-2.934,9.217h-1.633C370.7,178.439,371.347,176.058,373.312,173.318Z"/>
  </g>
</svg>
