<svg id="구성_요소_64_1" data-name="구성 요소 64 – 1" xmlns="http://www.w3.org/2000/svg" width="102.646" height="121.434" viewBox="0 0 102.646 121.434">
  <defs>
    <style>
      .cls-1 {
        fill: #1393d0;
      }

      .cls-2 {
        fill: #fff;
      }

      .cls-3 {
        fill: #787a7b;
      }
    </style>
  </defs>
  <g id="그룹_21551" data-name="그룹 21551" transform="translate(-530.177 -171.782)">
    <path id="패스_36595" data-name="패스 36595" class="cls-1" d="M632.823,241.893A51.323,51.323,0,1,1,581.5,190.57a51.323,51.323,0,0,1,51.323,51.323"/>
  </g>
  <g id="그룹_21564" data-name="그룹 21564" transform="translate(-530.177 -171.782)">
    <path id="패스_36644" data-name="패스 36644" class="cls-2" d="M561.439,222.17q0,5.123-1.615,7.651a5.965,5.965,0,0,1-9.794-.061q-1.662-2.587-1.662-7.59,0-5.163,1.608-7.664a5.971,5.971,0,0,1,9.794.108Q561.438,217.222,561.439,222.17Zm-10.8,0a14.488,14.488,0,0,0,1.013,6.279,3.642,3.642,0,0,0,6.482-.027,19.868,19.868,0,0,0,0-12.49,3.654,3.654,0,0,0-6.482-.027A14.392,14.392,0,0,0,550.639,222.17Z"/>
    <path id="패스_36645" data-name="패스 36645" class="cls-2" d="M564.485,230.646a2.011,2.011,0,0,1,.412-1.372,1.492,1.492,0,0,1,1.183-.467,1.594,1.594,0,0,1,1.223.467,1.928,1.928,0,0,1,.44,1.372A1.9,1.9,0,0,1,567.3,232a1.775,1.775,0,0,1-2.359.046A1.851,1.851,0,0,1,564.485,230.646Z"/>
    <path id="패스_36646" data-name="패스 36646" class="cls-2" d="M583.724,232.079H570.733v-1.933l5.205-5.231a38.483,38.483,0,0,0,3.136-3.434,8.736,8.736,0,0,0,1.135-2,5.732,5.732,0,0,0,.379-2.1,3.324,3.324,0,0,0-.96-2.508,3.676,3.676,0,0,0-2.663-.925,6.685,6.685,0,0,0-2.332.4,9.29,9.29,0,0,0-2.453,1.474l-1.19-1.528a9.116,9.116,0,0,1,5.948-2.27,6.282,6.282,0,0,1,4.366,1.425,4.91,4.91,0,0,1,1.582,3.833,7.408,7.408,0,0,1-1.054,3.717,23.642,23.642,0,0,1-3.948,4.65l-4.325,4.231V230h10.165Z"/>
    <path id="패스_36647" data-name="패스 36647" class="cls-2" d="M598.422,216.966a4.511,4.511,0,0,1-1.061,3.1,5.312,5.312,0,0,1-3.008,1.608v.109a5.654,5.654,0,0,1,3.528,1.513,4.457,4.457,0,0,1,1.149,3.19,5.18,5.18,0,0,1-1.96,4.347,8.919,8.919,0,0,1-5.569,1.52,16.221,16.221,0,0,1-2.873-.236,9.829,9.829,0,0,1-2.534-.832v-2.136a12.928,12.928,0,0,0,5.488,1.3q5.123,0,5.123-4.015,0-3.594-5.65-3.6h-1.947V220.9h1.974a5.937,5.937,0,0,0,3.663-1.021,3.349,3.349,0,0,0,1.352-2.832,2.791,2.791,0,0,0-.994-2.271,4.1,4.1,0,0,0-2.7-.824,8.334,8.334,0,0,0-2.447.351,10.987,10.987,0,0,0-2.623,1.3l-1.135-1.515a9.482,9.482,0,0,1,2.8-1.506,10.168,10.168,0,0,1,3.346-.547,6.835,6.835,0,0,1,4.474,1.317A4.44,4.44,0,0,1,598.422,216.966Z"/>
    <path id="패스_36648" data-name="패스 36648" class="cls-2" d="M615.54,227.537h-2.934v4.542h-2.149v-4.542h-9.611v-1.96l9.381-13.369h2.379V225.5h2.934Zm-5.083-2.041v-6.57q0-1.934.135-4.366h-.108a20.328,20.328,0,0,1-1.217,2.149L603.09,225.5Z"/>
  </g>
  <g id="그룹_21565" data-name="그룹 21565" transform="translate(-530.177 -171.782)">
    <path id="패스_36649" data-name="패스 36649" class="cls-2" d="M565.868,249.255v-3.981h-1v-.527l1.02-.061.084-1.847h.587v1.847H568.4v.588h-1.835V249.3c0,.8.216,1.332,1.067,1.332a2.232,2.232,0,0,0,.78-.18l.168.54a3.652,3.652,0,0,1-1.067.24C566.251,251.235,565.868,250.443,565.868,249.255Z"/>
    <path id="패스_36650" data-name="패스 36650" class="cls-2" d="M569.228,246.7c0-2.794,1.547-4.522,3.766-4.522a3.021,3.021,0,0,1,2.3,1.056l-.407.468a2.458,2.458,0,0,0-1.895-.876c-1.847,0-3.011,1.487-3.011,3.85,0,2.387,1.14,3.909,2.975,3.909a2.794,2.794,0,0,0,2.17-1.054l.409.455a3.277,3.277,0,0,1-2.615,1.248C570.763,251.235,569.228,249.5,569.228,246.7Z"/>
    <path id="패스_36651" data-name="패스 36651" class="cls-2" d="M576.2,246.677c0-2.77,1.511-4.5,3.622-4.5,2.135,0,3.634,1.728,3.634,4.5s-1.5,4.558-3.634,4.558C577.711,251.235,576.2,249.459,576.2,246.677Zm6.512,0c0-2.375-1.151-3.85-2.89-3.85s-2.867,1.475-2.867,3.85,1.14,3.909,2.867,3.909S582.712,249.051,582.712,246.677Z"/>
  </g>
  <g id="그룹_21566" data-name="그룹 21566" transform="translate(-530.177 -171.782)">
    <path id="패스_36652" data-name="패스 36652" class="cls-2" d="M584.243,250.5c1.726-1.489,2.411-2.537,2.411-3.459a1,1,0,0,0-1.042-1.132,1.517,1.517,0,0,0-1.132.636l-.258-.246a1.876,1.876,0,0,1,1.432-.733,1.335,1.335,0,0,1,1.412,1.461c0,1.069-.825,2.139-2.18,3.4.279-.021.572-.042.838-.042h1.587v.364h-3.068Z"/>
  </g>
  <g id="그룹_21567" data-name="그룹 21567" transform="translate(-530.177 -171.782)">
    <path id="패스_36653" data-name="패스 36653" class="cls-2" d="M588.2,247.888c0-2.074,1.355-3.37,2.806-3.37,1.547,0,2.47,1.1,2.47,2.975a3.34,3.34,0,0,1-.036.5H588.91a2.421,2.421,0,0,0,2.339,2.65,2.863,2.863,0,0,0,1.7-.552l.264.516a3.578,3.578,0,0,1-2.039.624A3.029,3.029,0,0,1,588.2,247.888Zm4.641-.443c0-1.548-.708-2.327-1.823-2.327a2.277,2.277,0,0,0-2.111,2.327Z"/>
    <path id="패스_36654" data-name="패스 36654" class="cls-2" d="M597.812,241.652h.576L594.43,253.2h-.563Z"/>
  </g>
  <g id="그룹_21568" data-name="그룹 21568" transform="translate(-530.177 -171.782)">
    <path id="패스_36655" data-name="패스 36655" class="cls-2" d="M554.254,265.467h1.979v-7.112H554.71v-.468a4.993,4.993,0,0,0,1.667-.552h.564v8.132h1.823v.612h-4.51Z"/>
    <path id="패스_36656" data-name="패스 36656" class="cls-2" d="M559.979,261.677c0-3.034.983-4.5,2.578-4.5s2.567,1.464,2.567,4.5c0,3.071-.984,4.558-2.567,4.558S559.979,264.748,559.979,261.677Zm4.449,0c0-2.6-.743-3.91-1.871-3.91s-1.883,1.308-1.883,3.91c0,2.651.743,3.97,1.883,3.97S564.428,264.328,564.428,261.677Z"/>
    <path id="패스_36657" data-name="패스 36657" class="cls-2" d="M566.17,261.677c0-3.034.984-4.5,2.579-4.5s2.566,1.464,2.566,4.5c0,3.071-.983,4.558-2.566,4.558S566.17,264.748,566.17,261.677Zm4.45,0c0-2.6-.744-3.91-1.871-3.91s-1.883,1.308-1.883,3.91c0,2.651.743,3.97,1.883,3.97S570.62,264.328,570.62,261.677Z"/>
    <path id="패스_36658" data-name="패스 36658" class="cls-2" d="M574.162,259.686h.575l.084.972h.024a2.971,2.971,0,0,1,2.015-1.14,1.657,1.657,0,0,1,1.764,1.3,3.192,3.192,0,0,1,2.158-1.3c1.283,0,1.919.828,1.919,2.471v4.09h-.7v-3.995c0-1.331-.443-1.942-1.379-1.942a2.7,2.7,0,0,0-1.847,1.151v4.786h-.7v-3.995c0-1.331-.431-1.942-1.378-1.942a2.7,2.7,0,0,0-1.848,1.151v4.786h-.7Z"/>
    <path id="패스_36659" data-name="패스 36659" class="cls-2" d="M584.554,257.635a.557.557,0,0,1,.587-.576.565.565,0,1,1,0,1.128A.558.558,0,0,1,584.554,257.635Zm.227,2.051h.7v6.393h-.7Z"/>
    <path id="패스_36660" data-name="패스 36660" class="cls-2" d="M587.637,265.131v-8.588h.7v8.66c0,.3.12.432.288.432a1.073,1.073,0,0,0,.228-.024l.108.552a1.415,1.415,0,0,1-.468.072C587.913,266.235,587.637,265.875,587.637,265.131Z"/>
    <path id="패스_36661" data-name="패스 36661" class="cls-2" d="M590.6,265.131v-8.588h.7v8.66c0,.3.12.432.287.432a1.062,1.062,0,0,0,.228-.024l.108.552a1.4,1.4,0,0,1-.467.072C590.877,266.235,590.6,265.875,590.6,265.131Z"/>
    <path id="패스_36662" data-name="패스 36662" class="cls-2" d="M593.338,257.635a.558.558,0,0,1,.587-.576.564.564,0,1,1-.587.576Zm.227,2.051h.7v6.393h-.7Z"/>
    <path id="패스_36663" data-name="패스 36663" class="cls-2" d="M595.893,262.888c0-2.135,1.344-3.37,2.891-3.37s2.89,1.235,2.89,3.37-1.343,3.347-2.89,3.347S595.893,265.011,595.893,262.888Zm5.062,0c0-1.631-.924-2.759-2.171-2.759s-2.159,1.128-2.159,2.759.912,2.747,2.159,2.747S600.955,264.519,600.955,262.888Z"/>
    <path id="패스_36664" data-name="패스 36664" class="cls-2" d="M603.309,259.686h.576l.084.972h.024a3.144,3.144,0,0,1,2.183-1.14c1.331,0,1.943.828,1.943,2.471v4.09h-.7v-3.995c0-1.331-.42-1.942-1.4-1.942-.744,0-1.271.384-2.015,1.151v4.786h-.7Z"/>
  </g>
  <g id="그룹_21569" data-name="그룹 21569" transform="translate(-530.177 -171.782)">
    <path id="패스_36665" data-name="패스 36665" class="cls-2" d="M570.429,272.335h.719v4.749h.024l4.1-4.749h.852l-2.783,3.25,3.178,5.494h-.827l-2.83-4.93-1.716,1.979v2.951h-.719Z"/>
    <path id="패스_36666" data-name="패스 36666" class="cls-2" d="M582.51,281.079l-2.326-3.947H578.4v3.947h-.719v-8.744h2.554c1.74,0,2.915.636,2.915,2.339a2.3,2.3,0,0,1-2.183,2.4l2.363,4.006Zm-4.114-4.546h1.668c1.511,0,2.351-.6,2.351-1.859s-.84-1.739-2.351-1.739H578.4Z"/>
    <path id="패스_36667" data-name="패스 36667" class="cls-2" d="M583.941,272.335h.744l1.055,5.062c.2.947.4,1.895.588,2.854h.048c.216-.959.444-1.907.672-2.854l1.331-5.062h.707l1.344,5.062c.228.947.444,1.895.672,2.854h.06c.179-.959.359-1.907.551-2.854l1.056-5.062h.707l-1.919,8.744h-.815l-1.548-5.841c-.144-.7-.3-1.3-.455-1.967h-.048c-.144.672-.324,1.271-.48,1.967l-1.5,5.841H585.9Z"/>
  </g>
  <g id="그룹_21572" data-name="그룹 21572" transform="translate(-530.177 -171.782)">
    <path id="패스_36676" data-name="패스 36676" class="cls-3" d="M566.739,181.234c3-2.657,4.553-4.636,4.553-6.311a1.66,1.66,0,0,0-1.73-1.868,2.762,2.762,0,0,0-2.006,1.135l-.9-.886a4,4,0,0,1,3.1-1.522,2.881,2.881,0,0,1,3.073,3.058c0,1.965-1.564,4-3.723,6.062.526-.055,1.163-.1,1.661-.1h2.546v1.357h-6.574Z"/>
    <path id="패스_36677" data-name="패스 36677" class="cls-3" d="M574.408,177.027c0-3.529,1.287-5.245,3.294-5.245,1.992,0,3.294,1.73,3.294,5.245,0,3.543-1.3,5.314-3.294,5.314C575.7,182.341,574.408,180.57,574.408,177.027Zm5.065,0c0-2.92-.733-3.985-1.771-3.985s-1.772,1.065-1.772,3.985c0,2.948.734,4.056,1.772,4.056S579.473,179.975,579.473,177.027Z"/>
    <path id="패스_36678" data-name="패스 36678" class="cls-3" d="M582.574,180.847H584.8v-7.086h-1.826V172.75a6.246,6.246,0,0,0,2.214-.775h1.2v8.872h1.993v1.315h-5.813Z"/>
    <path id="패스_36679" data-name="패스 36679" class="cls-3" d="M590.63,180.28a2.272,2.272,0,0,0,1.675.761c1.231,0,2.3-1,2.394-3.9a3.06,3.06,0,0,1-2.242,1.19c-1.7,0-2.851-1.066-2.851-3.2a3.115,3.115,0,0,1,3.031-3.349c1.951,0,3.529,1.578,3.529,4.94,0,4.014-1.827,5.619-3.792,5.619a3.494,3.494,0,0,1-2.6-1.079Zm4.041-4.346c-.152-2.007-.913-2.921-2.021-2.921-.871,0-1.563.789-1.563,2.118,0,1.3.581,2.048,1.646,2.048A2.442,2.442,0,0,0,594.671,175.934Z"/>
  </g>
</svg>
