<svg id="구성_요소_63_1" data-name="구성 요소 63 – 1" xmlns="http://www.w3.org/2000/svg" width="102.646" height="121.434" viewBox="0 0 102.646 121.434">
  <defs>
    <style>
      .cls-1 {
        fill: #e1e5e5;
      }

      .cls-2 {
        fill: #1393d0;
      }

      .cls-3 {
        fill: #5aaad2;
      }

      .cls-4 {
        fill: #787a7b;
      }
    </style>
  </defs>
  <path id="패스_36594" data-name="패스 36594" class="cls-1" d="M522.237,241.893a51.323,51.323,0,1,1-51.323-51.323,51.323,51.323,0,0,1,51.323,51.323" transform="translate(-419.591 -171.782)"/>
  <g id="그룹_21558" data-name="그룹 21558" transform="translate(-419.591 -171.782)">
    <path id="패스_36620" data-name="패스 36620" class="cls-2" d="M450.854,222.17q0,5.123-1.616,7.651a5.965,5.965,0,0,1-9.793-.061q-1.664-2.587-1.663-7.59,0-5.163,1.609-7.664a5.97,5.97,0,0,1,9.793.108Q450.854,217.222,450.854,222.17Zm-10.8,0a14.47,14.47,0,0,0,1.014,6.279,3.641,3.641,0,0,0,6.481-.027,19.849,19.849,0,0,0,0-12.49,3.653,3.653,0,0,0-6.481-.027A14.375,14.375,0,0,0,440.053,222.17Z"/>
    <path id="패스_36621" data-name="패스 36621" class="cls-2" d="M453.9,230.646a2.011,2.011,0,0,1,.413-1.372,1.491,1.491,0,0,1,1.183-.467,1.6,1.6,0,0,1,1.223.467,1.933,1.933,0,0,1,.439,1.372,1.9,1.9,0,0,1-.446,1.352,1.775,1.775,0,0,1-2.359.046A1.848,1.848,0,0,1,453.9,230.646Z"/>
    <path id="패스_36622" data-name="패스 36622" class="cls-2" d="M473.166,232.079h-12.99v-1.933l5.2-5.231a38.483,38.483,0,0,0,3.136-3.434,8.78,8.78,0,0,0,1.136-2,5.733,5.733,0,0,0,.378-2.1,3.324,3.324,0,0,0-.96-2.508,3.674,3.674,0,0,0-2.662-.925,6.677,6.677,0,0,0-2.332.4,9.26,9.26,0,0,0-2.453,1.474l-1.19-1.528a9.113,9.113,0,0,1,5.947-2.27,6.284,6.284,0,0,1,4.367,1.425,4.909,4.909,0,0,1,1.581,3.833,7.4,7.4,0,0,1-1.054,3.717,23.6,23.6,0,0,1-3.947,4.65L463,229.889V230h10.165Z"/>
    <path id="패스_36623" data-name="패스 36623" class="cls-2" d="M481.8,220.007a7.27,7.27,0,0,1,4.913,1.548,5.31,5.31,0,0,1,1.792,4.238,6.12,6.12,0,0,1-1.954,4.812,7.8,7.8,0,0,1-5.386,1.744,9.917,9.917,0,0,1-5.1-1.068v-2.162a7.763,7.763,0,0,0,2.353.952,11.591,11.591,0,0,0,2.771.345,5.536,5.536,0,0,0,3.7-1.122,4.027,4.027,0,0,0,1.318-3.244q0-4.137-5.07-4.136a20.2,20.2,0,0,0-3.433.391l-1.162-.743.743-9.246h9.827v2.068H479.2l-.5,5.935A15.7,15.7,0,0,1,481.8,220.007Z"/>
    <path id="패스_36624" data-name="패스 36624" class="cls-2" d="M504.981,227.537h-2.933v4.542H499.9v-4.542h-9.611v-1.96l9.381-13.369h2.379V225.5h2.933ZM499.9,225.5v-6.57q0-1.934.135-4.366h-.108a20.5,20.5,0,0,1-1.217,2.149l-6.177,8.787Z"/>
  </g>
  <g id="그룹_21559" data-name="그룹 21559" transform="translate(-419.591 -171.782)">
    <path id="패스_36625" data-name="패스 36625" class="cls-3" d="M455.282,249.255v-3.981h-1v-.527l1.019-.061.084-1.847h.588v1.847h1.834v.588h-1.834V249.3c0,.8.215,1.332,1.067,1.332a2.238,2.238,0,0,0,.78-.18l.168.54a3.65,3.65,0,0,1-1.068.24C455.666,251.235,455.282,250.443,455.282,249.255Z"/>
    <path id="패스_36626" data-name="패스 36626" class="cls-3" d="M458.643,246.7c0-2.794,1.546-4.522,3.765-4.522a3.023,3.023,0,0,1,2.3,1.056l-.408.468a2.457,2.457,0,0,0-1.9-.876c-1.846,0-3.01,1.487-3.01,3.85,0,2.387,1.14,3.909,2.975,3.909a2.8,2.8,0,0,0,2.17-1.054l.408.455a3.276,3.276,0,0,1-2.615,1.248C460.178,251.235,458.643,249.5,458.643,246.7Z"/>
    <path id="패스_36627" data-name="패스 36627" class="cls-3" d="M465.614,246.677c0-2.77,1.511-4.5,3.622-4.5,2.135,0,3.634,1.728,3.634,4.5s-1.5,4.558-3.634,4.558C467.125,251.235,465.614,249.459,465.614,246.677Zm6.512,0c0-2.375-1.151-3.85-2.89-3.85s-2.866,1.475-2.866,3.85,1.139,3.909,2.866,3.909S472.126,249.051,472.126,246.677Z"/>
  </g>
  <g id="그룹_21560" data-name="그룹 21560" transform="translate(-419.591 -171.782)">
    <path id="패스_36628" data-name="패스 36628" class="cls-3" d="M473.657,250.5c1.726-1.489,2.411-2.537,2.411-3.459a1,1,0,0,0-1.041-1.132,1.515,1.515,0,0,0-1.132.636l-.259-.246a1.878,1.878,0,0,1,1.433-.733,1.334,1.334,0,0,1,1.411,1.461c0,1.069-.824,2.139-2.18,3.4.28-.021.573-.042.839-.042h1.586v.364h-3.068Z"/>
  </g>
  <g id="그룹_21561" data-name="그룹 21561" transform="translate(-419.591 -171.782)">
    <path id="패스_36629" data-name="패스 36629" class="cls-3" d="M477.618,247.888c0-2.074,1.355-3.37,2.806-3.37,1.547,0,2.471,1.1,2.471,2.975a3.336,3.336,0,0,1-.037.5h-4.533a2.421,2.421,0,0,0,2.339,2.65,2.863,2.863,0,0,0,1.7-.552l.264.516a3.578,3.578,0,0,1-2.039.624A3.029,3.029,0,0,1,477.618,247.888Zm4.641-.443c0-1.548-.708-2.327-1.823-2.327a2.277,2.277,0,0,0-2.111,2.327Z"/>
    <path id="패스_36630" data-name="패스 36630" class="cls-3" d="M487.228,241.652h.575l-3.958,11.55h-.563Z"/>
  </g>
  <g id="그룹_21562" data-name="그룹 21562" transform="translate(-419.591 -171.782)">
    <path id="패스_36631" data-name="패스 36631" class="cls-3" d="M443.669,265.467h1.979v-7.112h-1.523v-.468a4.985,4.985,0,0,0,1.667-.552h.564v8.132h1.823v.612h-4.51Z"/>
    <path id="패스_36632" data-name="패스 36632" class="cls-3" d="M449.394,261.677c0-3.034.983-4.5,2.578-4.5s2.567,1.464,2.567,4.5c0,3.071-.984,4.558-2.567,4.558S449.394,264.748,449.394,261.677Zm4.449,0c0-2.6-.743-3.91-1.871-3.91s-1.883,1.308-1.883,3.91c0,2.651.744,3.97,1.883,3.97S453.843,264.328,453.843,261.677Z"/>
    <path id="패스_36633" data-name="패스 36633" class="cls-3" d="M455.585,261.677c0-3.034.984-4.5,2.579-4.5s2.566,1.464,2.566,4.5c0,3.071-.983,4.558-2.566,4.558S455.585,264.748,455.585,261.677Zm4.45,0c0-2.6-.743-3.91-1.871-3.91s-1.883,1.308-1.883,3.91c0,2.651.743,3.97,1.883,3.97S460.035,264.328,460.035,261.677Z"/>
    <path id="패스_36634" data-name="패스 36634" class="cls-3" d="M463.577,259.686h.575l.084.972h.024a2.97,2.97,0,0,1,2.015-1.14,1.657,1.657,0,0,1,1.764,1.3,3.192,3.192,0,0,1,2.158-1.3c1.283,0,1.919.828,1.919,2.471v4.09h-.7v-3.995c0-1.331-.443-1.942-1.379-1.942a2.7,2.7,0,0,0-1.847,1.151v4.786h-.7v-3.995c0-1.331-.432-1.942-1.379-1.942a2.7,2.7,0,0,0-1.848,1.151v4.786h-.7Z"/>
    <path id="패스_36635" data-name="패스 36635" class="cls-3" d="M473.969,257.635a.557.557,0,0,1,.587-.576.565.565,0,1,1,0,1.128A.558.558,0,0,1,473.969,257.635Zm.227,2.051h.7v6.393h-.7Z"/>
    <path id="패스_36636" data-name="패스 36636" class="cls-3" d="M477.052,265.131v-8.588h.7v8.66c0,.3.12.432.288.432a1.073,1.073,0,0,0,.228-.024l.108.552a1.415,1.415,0,0,1-.468.072C477.328,266.235,477.052,265.875,477.052,265.131Z"/>
    <path id="패스_36637" data-name="패스 36637" class="cls-3" d="M480.016,265.131v-8.588h.7v8.66c0,.3.12.432.288.432a1.073,1.073,0,0,0,.228-.024l.107.552a1.4,1.4,0,0,1-.467.072C480.292,266.235,480.016,265.875,480.016,265.131Z"/>
    <path id="패스_36638" data-name="패스 36638" class="cls-3" d="M482.753,257.635a.558.558,0,0,1,.587-.576.564.564,0,1,1-.587.576Zm.227,2.051h.7v6.393h-.7Z"/>
    <path id="패스_36639" data-name="패스 36639" class="cls-3" d="M485.308,262.888c0-2.135,1.344-3.37,2.891-3.37s2.89,1.235,2.89,3.37-1.343,3.347-2.89,3.347S485.308,265.011,485.308,262.888Zm5.062,0c0-1.631-.924-2.759-2.171-2.759s-2.159,1.128-2.159,2.759.912,2.747,2.159,2.747S490.37,264.519,490.37,262.888Z"/>
    <path id="패스_36640" data-name="패스 36640" class="cls-3" d="M492.724,259.686h.576l.084.972h.024a3.144,3.144,0,0,1,2.183-1.14c1.331,0,1.943.828,1.943,2.471v4.09h-.7v-3.995c0-1.331-.42-1.942-1.4-1.942-.744,0-1.271.384-2.015,1.151v4.786h-.7Z"/>
  </g>
  <g id="그룹_21563" data-name="그룹 21563" transform="translate(-419.591 -171.782)">
    <path id="패스_36641" data-name="패스 36641" class="cls-3" d="M459.844,272.335h.719v4.749h.024l4.1-4.749h.852l-2.783,3.25,3.179,5.494h-.828l-2.83-4.93-1.716,1.979v2.951h-.719Z"/>
    <path id="패스_36642" data-name="패스 36642" class="cls-3" d="M471.925,281.079l-2.326-3.947h-1.787v3.947h-.72v-8.744h2.554c1.74,0,2.915.636,2.915,2.339a2.3,2.3,0,0,1-2.183,2.4l2.363,4.006Zm-4.113-4.546h1.667c1.511,0,2.351-.6,2.351-1.859s-.84-1.739-2.351-1.739h-1.667Z"/>
    <path id="패스_36643" data-name="패스 36643" class="cls-3" d="M473.356,272.335h.744l1.055,5.062c.2.947.4,1.895.588,2.854h.048c.216-.959.444-1.907.672-2.854l1.331-5.062h.707l1.344,5.062c.228.947.444,1.895.672,2.854h.06c.179-.959.359-1.907.551-2.854l1.056-5.062h.707l-1.919,8.744h-.815l-1.548-5.841c-.144-.7-.3-1.3-.455-1.967h-.048c-.144.672-.324,1.271-.48,1.967l-1.5,5.841h-.815Z"/>
  </g>
  <g id="그룹_21571" data-name="그룹 21571" transform="translate(-419.591 -171.782)">
    <path id="패스_36672" data-name="패스 36672" class="cls-4" d="M456.157,181.234c3-2.657,4.553-4.636,4.553-6.311a1.66,1.66,0,0,0-1.73-1.868,2.762,2.762,0,0,0-2.007,1.135l-.9-.886a4,4,0,0,1,3.1-1.522,2.88,2.88,0,0,1,3.072,3.058c0,1.965-1.563,4-3.723,6.062.526-.055,1.163-.1,1.661-.1h2.546v1.357h-6.573Z"/>
    <path id="패스_36673" data-name="패스 36673" class="cls-4" d="M463.825,177.027c0-3.529,1.287-5.245,3.294-5.245s3.294,1.73,3.294,5.245c0,3.543-1.3,5.314-3.294,5.314S463.825,180.57,463.825,177.027Zm5.066,0c0-2.92-.734-3.985-1.772-3.985s-1.771,1.065-1.771,3.985c0,2.948.733,4.056,1.771,4.056S468.891,179.975,468.891,177.027Z"/>
    <path id="패스_36674" data-name="패스 36674" class="cls-4" d="M471.992,180.847h2.228v-7.086h-1.827V172.75a6.231,6.231,0,0,0,2.214-.775h1.2v8.872H477.8v1.315h-5.812Z"/>
    <path id="패스_36675" data-name="패스 36675" class="cls-4" d="M479.065,179.629a3.12,3.12,0,0,1,1.827-2.74v-.069a2.881,2.881,0,0,1-1.371-2.381,2.9,2.9,0,0,1,5.786.069,3.167,3.167,0,0,1-1.343,2.4v.069a2.994,2.994,0,0,1,1.716,2.7c0,1.509-1.328,2.671-3.294,2.671C480.477,182.341,479.065,181.207,479.065,179.629Zm5.107,0c0-1.246-1.121-1.716-2.505-2.284a2.6,2.6,0,0,0-1.19,2.132,1.783,1.783,0,0,0,1.937,1.716A1.577,1.577,0,0,0,484.172,179.629Zm-.208-5.024a1.512,1.512,0,0,0-1.564-1.647,1.4,1.4,0,0,0-1.453,1.481c0,1.107.969,1.619,2.1,2.062A2.576,2.576,0,0,0,483.964,174.6Z"/>
  </g>
</svg>
