<svg id="구성_요소_132_1" data-name="구성 요소 132 – 1" xmlns="http://www.w3.org/2000/svg" width="836" height="263.08" viewBox="0 0 836 263.08">
  <defs>
    <style>
      .cls-1 {
        fill: #f4f5f6;
      }

      .cls-2 {
        fill: none;
        stroke: #685239;
        stroke-width: 0.5px;
      }

      .cls-3 {
        fill: #fff;
      }

      .cls-4 {
        fill: #1e2323;
      }

      .cls-5 {
        fill: #98691d;
      }

      .cls-6 {
        fill: #d5a700;
      }

      .cls-7 {
        fill: #685239;
      }
    </style>
  </defs>
  <rect id="사각형_335" data-name="사각형 335" class="cls-1" width="836" height="263.08"/>
  <line id="선_1067" data-name="선 1067" class="cls-2" y2="147.375" transform="translate(417.12 26.803)"/>
  <line id="선_1068" data-name="선 1068" class="cls-2" x1="138.16" transform="translate(279.18 105.331)"/>
  <path id="패스_28210" data-name="패스 28210" class="cls-2" d="M1702.522,4141.066v-21.458h-591.3v21.458" transform="translate(-989.752 -3967.889)"/>
  <rect id="사각형_336" data-name="사각형 336" class="cls-3" width="119.5" height="61.5" transform="translate(61.69 173.428)"/>
  <rect id="사각형_337" data-name="사각형 337" class="cls-2" width="119.5" height="61.5" transform="translate(61.69 173.428)"/>
  <rect id="사각형_338" data-name="사각형 338" class="cls-3" width="119.5" height="61.5" transform="translate(209.291 173.428)"/>
  <rect id="사각형_339" data-name="사각형 339" class="cls-2" width="119.5" height="61.5" transform="translate(209.291 173.428)"/>
  <rect id="사각형_340" data-name="사각형 340" class="cls-3" width="119.5" height="61.5" transform="translate(356.931 173.428)"/>
  <rect id="사각형_341" data-name="사각형 341" class="cls-2" width="119.5" height="61.5" transform="translate(356.931 173.428)"/>
  <rect id="사각형_342" data-name="사각형 342" class="cls-3" width="119.5" height="61.5" transform="translate(504.771 173.428)"/>
  <rect id="사각형_343" data-name="사각형 343" class="cls-2" width="119.5" height="61.5" transform="translate(504.771 173.428)"/>
  <rect id="사각형_344" data-name="사각형 344" class="cls-3" width="119.5" height="61.5" transform="translate(653.271 173.428)"/>
  <rect id="사각형_345" data-name="사각형 345" class="cls-2" width="119.5" height="61.5" transform="translate(653.271 173.428)"/>
  <path id="패스_28219" data-name="패스 28219" class="cls-4" d="M5.326-5.053a2.448,2.448,0,0,0,1.406-.355A1.447,1.447,0,0,0,7.249-6.69a1.376,1.376,0,0,0-.724-1.358,2.365,2.365,0,0,0-1.035-.19H2.406v3.187ZM1.143-9.325H5.459a4.3,4.3,0,0,1,1.758.311,2.2,2.2,0,0,1,1.314,2.2A2.477,2.477,0,0,1,8.185-5.44a2.5,2.5,0,0,1-.968.857A1.907,1.907,0,0,1,8.039-4a2.1,2.1,0,0,1,.308,1.174l.044,1.25a3.844,3.844,0,0,0,.089.793.78.78,0,0,0,.406.571V0H7.338a1.165,1.165,0,0,1-.1-.311,5.97,5.97,0,0,1-.063-.736L7.1-2.6a1.307,1.307,0,0,0-.679-1.225A2.809,2.809,0,0,0,5.281-4H2.406V0H1.143ZM13.011-5.7a4.832,4.832,0,0,0,.832-.692,1.428,1.428,0,0,0,.375-.958,1.017,1.017,0,0,0-.273-.711.949.949,0,0,0-.736-.3,1.034,1.034,0,0,0-.978.47,1.033,1.033,0,0,0-.14.527,1.426,1.426,0,0,0,.213.743A6.868,6.868,0,0,0,13.011-5.7ZM12.719-.787a2.208,2.208,0,0,0,1.212-.324,2.648,2.648,0,0,0,.781-.724L12.6-4.405a6.417,6.417,0,0,0-1.168.914,1.7,1.7,0,0,0-.419,1.162,1.334,1.334,0,0,0,.543,1.143A1.918,1.918,0,0,0,12.719-.787Zm-.749-4.4a4.792,4.792,0,0,1-.79-1.143,2.254,2.254,0,0,1-.2-.9,2,2,0,0,1,.609-1.495,2.238,2.238,0,0,1,1.631-.594,2.037,2.037,0,0,1,1.517.552,1.812,1.812,0,0,1,.546,1.32,2.364,2.364,0,0,1-.565,1.568,5.317,5.317,0,0,1-1.1.908l1.7,2.031q.171-.508.238-.759t.136-.7h1.085a6.929,6.929,0,0,1-.432,1.717q-.324.822-.324.663L17.676,0H16.2l-.876-1.066a4.584,4.584,0,0,1-.952.825,3.293,3.293,0,0,1-1.739.457,2.615,2.615,0,0,1-2.114-.784,2.672,2.672,0,0,1-.66-1.768A2.546,2.546,0,0,1,10.5-4.107,7.026,7.026,0,0,1,11.97-5.186ZM22.538-1.079a3.491,3.491,0,0,0,1.054-.133A2.318,2.318,0,0,0,24.8-2.165a3.9,3.9,0,0,0,.54-1.447,5.52,5.52,0,0,0,.1-.978,4.552,4.552,0,0,0-.689-2.691,2.544,2.544,0,0,0-2.219-.958H20.285v7.16ZM19.015-9.325h3.777A3.56,3.56,0,0,1,25.776-7.96a5.031,5.031,0,0,1,.946,3.155,6.286,6.286,0,0,1-.559,2.685A3.446,3.446,0,0,1,22.78,0H19.015Zm16.872-.254a3.821,3.821,0,0,1,2.749.933,3.3,3.3,0,0,1,1.085,2.12H38.49a2.563,2.563,0,0,0-.835-1.428A2.646,2.646,0,0,0,35.9-8.48a2.814,2.814,0,0,0-2.225.968,4.413,4.413,0,0,0-.847,2.968,4.31,4.31,0,0,0,.765,2.656A2.673,2.673,0,0,0,35.875-.87,2.411,2.411,0,0,0,38-1.942a4.08,4.08,0,0,0,.578-1.485H39.81A4.208,4.208,0,0,1,38.719-.958a3.885,3.885,0,0,1-3,1.2,3.954,3.954,0,0,1-2.729-.984,5.127,5.127,0,0,1-1.454-4.018,5.133,5.133,0,0,1,1.092-3.383A3.988,3.988,0,0,1,35.888-9.579Zm8.021,2.628a3.1,3.1,0,0,1,1.4.34,2.587,2.587,0,0,1,1.035.879,3.033,3.033,0,0,1,.457,1.2,7.849,7.849,0,0,1,.1,1.5H41.921a2.908,2.908,0,0,0,.489,1.66,1.637,1.637,0,0,0,1.416.625,1.83,1.83,0,0,0,1.428-.59,1.99,1.99,0,0,0,.432-.793h1.124a2.366,2.366,0,0,1-.3.835,2.969,2.969,0,0,1-.562.752A2.663,2.663,0,0,1,44.664.14a3.914,3.914,0,0,1-.933.1,2.863,2.863,0,0,1-2.152-.924A3.594,3.594,0,0,1,40.7-3.269a3.907,3.907,0,0,1,.889-2.66A2.932,2.932,0,0,1,43.908-6.951ZM45.73-3.942a2.96,2.96,0,0,0-.324-1.187,1.659,1.659,0,0,0-1.568-.825,1.738,1.738,0,0,0-1.32.568,2.146,2.146,0,0,0-.565,1.444ZM48.242-6.8h1.085v.965A3.044,3.044,0,0,1,50.35-6.69a2.725,2.725,0,0,1,1.2-.26A1.978,1.978,0,0,1,53.5-5.941a3.584,3.584,0,0,1,.279,1.581V0H52.622V-4.285a2.32,2.32,0,0,0-.184-1,1.116,1.116,0,0,0-1.1-.635,2.249,2.249,0,0,0-.667.083,1.716,1.716,0,0,0-.825.559,1.682,1.682,0,0,0-.371.7,4.679,4.679,0,0,0-.086,1.025V0H48.242Zm7.25-1.9h1.155v1.9h1.085v.933H56.648v4.437a.48.48,0,0,0,.241.476,1.025,1.025,0,0,0,.444.07l.178,0q.1,0,.222-.016V0a2.551,2.551,0,0,1-.409.083,3.893,3.893,0,0,1-.46.025A1.24,1.24,0,0,1,55.778-.3a1.819,1.819,0,0,1-.286-1.063v-4.5h-.92V-6.8h.92Zm5.98,1.746a3.1,3.1,0,0,1,1.4.34,2.587,2.587,0,0,1,1.035.879,3.033,3.033,0,0,1,.457,1.2,7.849,7.849,0,0,1,.1,1.5H59.486a2.908,2.908,0,0,0,.489,1.66,1.637,1.637,0,0,0,1.416.625,1.83,1.83,0,0,0,1.428-.59,1.99,1.99,0,0,0,.432-.793h1.124a2.366,2.366,0,0,1-.3.835,2.969,2.969,0,0,1-.562.752A2.663,2.663,0,0,1,62.228.14a3.914,3.914,0,0,1-.933.1,2.863,2.863,0,0,1-2.152-.924,3.594,3.594,0,0,1-.882-2.587,3.907,3.907,0,0,1,.889-2.66A2.932,2.932,0,0,1,61.473-6.951Zm1.822,3.009a2.96,2.96,0,0,0-.324-1.187A1.659,1.659,0,0,0,61.4-5.954a1.738,1.738,0,0,0-1.32.568,2.146,2.146,0,0,0-.565,1.444ZM65.839-6.8h1.085v1.174a2.594,2.594,0,0,1,.654-.835,1.7,1.7,0,0,1,1.2-.492q.032,0,.108.006l.26.025v1.206a1.707,1.707,0,0,0-.187-.025q-.086-.006-.187-.006a1.63,1.63,0,0,0-1.327.555,1.939,1.939,0,0,0-.463,1.279V0H65.839Z" transform="translate(87.975 192.898)"/>
  <path id="패스_28220" data-name="패스 28220" class="cls-4" d="M7.776-9.325v1.111H4.634V0H3.352V-8.214H.209V-9.325Zm2.6,2.374a3.1,3.1,0,0,1,1.4.34,2.587,2.587,0,0,1,1.035.879,3.033,3.033,0,0,1,.457,1.2,7.849,7.849,0,0,1,.1,1.5H8.388a2.908,2.908,0,0,0,.489,1.66,1.637,1.637,0,0,0,1.416.625,1.83,1.83,0,0,0,1.428-.59,1.99,1.99,0,0,0,.432-.793h1.124a2.366,2.366,0,0,1-.3.835,2.969,2.969,0,0,1-.562.752A2.663,2.663,0,0,1,11.13.14a3.914,3.914,0,0,1-.933.1A2.863,2.863,0,0,1,8.045-.682a3.594,3.594,0,0,1-.882-2.587,3.907,3.907,0,0,1,.889-2.66A2.932,2.932,0,0,1,10.375-6.951ZM12.2-3.942a2.96,2.96,0,0,0-.324-1.187,1.659,1.659,0,0,0-1.568-.825,1.738,1.738,0,0,0-1.32.568A2.146,2.146,0,0,0,8.42-3.942ZM17.473-7a2.964,2.964,0,0,1,1.869.559,2.676,2.676,0,0,1,.866,1.923H19.1a2.051,2.051,0,0,0-.463-1.044,1.464,1.464,0,0,0-1.162-.416,1.605,1.605,0,0,0-1.562,1.066,4.236,4.236,0,0,0-.3,1.708,3.213,3.213,0,0,0,.432,1.72,1.481,1.481,0,0,0,1.358.7,1.485,1.485,0,0,0,1.127-.435,2.391,2.391,0,0,0,.574-1.19h1.111a2.982,2.982,0,0,1-.952,1.977A2.971,2.971,0,0,1,17.308.2a2.6,2.6,0,0,1-2.126-.974,3.729,3.729,0,0,1-.793-2.434A4.1,4.1,0,0,1,15.258-6,2.81,2.81,0,0,1,17.473-7Zm3.761-2.361h1.143v3.479a3.3,3.3,0,0,1,.73-.724,2.463,2.463,0,0,1,1.377-.362,2.037,2.037,0,0,1,2.006,1.035,3.528,3.528,0,0,1,.286,1.568V0H25.6V-4.285a2.4,2.4,0,0,0-.19-1.1,1.217,1.217,0,0,0-1.168-.559,1.946,1.946,0,0,0-1.289.489,2.35,2.35,0,0,0-.578,1.847V0H21.235ZM28.283-6.8h1.085v.965A3.044,3.044,0,0,1,30.39-6.69a2.725,2.725,0,0,1,1.2-.26,1.978,1.978,0,0,1,1.955,1.009,3.584,3.584,0,0,1,.279,1.581V0H32.663V-4.285a2.32,2.32,0,0,0-.184-1,1.116,1.116,0,0,0-1.1-.635,2.249,2.249,0,0,0-.667.083,1.716,1.716,0,0,0-.825.559,1.682,1.682,0,0,0-.371.7,4.679,4.679,0,0,0-.086,1.025V0H28.283ZM38.107-.736a1.576,1.576,0,0,0,1.558-.86,4.285,4.285,0,0,0,.422-1.914,3.408,3.408,0,0,0-.3-1.549A1.714,1.714,0,0,0,38.119-6a1.64,1.64,0,0,0-1.523.8,3.707,3.707,0,0,0-.476,1.93A3.225,3.225,0,0,0,36.6-1.46,1.677,1.677,0,0,0,38.107-.736ZM38.151-7a3.078,3.078,0,0,1,2.222.876,3.421,3.421,0,0,1,.908,2.577,4.422,4.422,0,0,1-.8,2.717A2.893,2.893,0,0,1,38,.248,2.8,2.8,0,0,1,35.771-.7a3.748,3.748,0,0,1-.825-2.549,4.055,4.055,0,0,1,.87-2.729A2.919,2.919,0,0,1,38.151-7Zm4.377-2.33H43.67V0H42.527ZM47.874-.736a1.576,1.576,0,0,0,1.558-.86,4.285,4.285,0,0,0,.422-1.914,3.408,3.408,0,0,0-.3-1.549A1.714,1.714,0,0,0,47.886-6a1.64,1.64,0,0,0-1.523.8,3.707,3.707,0,0,0-.476,1.93,3.225,3.225,0,0,0,.476,1.809A1.677,1.677,0,0,0,47.874-.736ZM47.918-7a3.078,3.078,0,0,1,2.222.876,3.421,3.421,0,0,1,.908,2.577,4.422,4.422,0,0,1-.8,2.717A2.893,2.893,0,0,1,47.766.248,2.8,2.8,0,0,1,45.538-.7a3.748,3.748,0,0,1-.825-2.549,4.055,4.055,0,0,1,.87-2.729A2.919,2.919,0,0,1,47.918-7Zm6.731.076a2.478,2.478,0,0,1,1.4.394,3.137,3.137,0,0,1,.66.647v-.857H57.76V-.552a4.559,4.559,0,0,1-.381,2.044,2.735,2.735,0,0,1-2.685,1.384,3.294,3.294,0,0,1-1.847-.492A1.918,1.918,0,0,1,52.009.844H53.17a1.293,1.293,0,0,0,.33.7,1.683,1.683,0,0,0,1.219.381A1.677,1.677,0,0,0,56.439,1a5.219,5.219,0,0,0,.222-1.949,2.242,2.242,0,0,1-.825.774A2.745,2.745,0,0,1,54.56.083,2.724,2.724,0,0,1,52.628-.7,3.448,3.448,0,0,1,51.8-3.294a3.927,3.927,0,0,1,.835-2.666A2.581,2.581,0,0,1,54.649-6.919Zm2.057,3.491A2.834,2.834,0,0,0,56.185-5.3a1.668,1.668,0,0,0-1.327-.609,1.638,1.638,0,0,0-1.65,1.13A4.43,4.43,0,0,0,52.974-3.2,2.806,2.806,0,0,0,53.44-1.45a1.506,1.506,0,0,0,1.254.6,1.76,1.76,0,0,0,1.733-1.111A3.583,3.583,0,0,0,56.706-3.428ZM64.22-6.8h1.263q-.241.654-1.073,2.983Q63.789-2.063,63.37-.958a19.311,19.311,0,0,1-1.4,3.174,1.6,1.6,0,0,1-1.4.571,2.74,2.74,0,0,1-.371-.019,2.933,2.933,0,0,1-.321-.07V1.657a3.942,3.942,0,0,0,.432.1,1.685,1.685,0,0,0,.235.019.822.822,0,0,0,.467-.1.966.966,0,0,0,.251-.257Q61.3,1.365,61.5.9t.286-.7l-2.514-7h1.295l1.822,5.535Z" transform="translate(87.845 209.902)"/>
  <path id="패스_28221" data-name="패스 28221" class="cls-4" d="M1.111-9.325h4.2a2.844,2.844,0,0,1,2.006.7,2.545,2.545,0,0,1,.762,1.971,2.865,2.865,0,0,1-.679,1.9,2.573,2.573,0,0,1-2.088.809H2.374V0H1.111ZM6.8-6.646a1.4,1.4,0,0,0-.762-1.4,2.75,2.75,0,0,0-1.149-.2H2.374v3.231H4.888A2.4,2.4,0,0,0,6.268-5.37,1.434,1.434,0,0,0,6.8-6.646ZM9.307-9.325h1.143V0H9.307Zm3.472,7.516a.941.941,0,0,0,.362.781A1.341,1.341,0,0,0,14-.743a2.605,2.605,0,0,0,1.168-.279,1.572,1.572,0,0,0,.952-1.517v-.92a1.955,1.955,0,0,1-.54.222,4.6,4.6,0,0,1-.647.127l-.692.089a2.646,2.646,0,0,0-.933.26A1.014,1.014,0,0,0,12.779-1.809ZM15.547-4.12a.621.621,0,0,0,.527-.33,1,1,0,0,0,.076-.438.928.928,0,0,0-.416-.847A2.231,2.231,0,0,0,14.544-6a1.512,1.512,0,0,0-1.27.482A1.587,1.587,0,0,0,13-4.723H11.935a1.963,1.963,0,0,1,.816-1.749,3.349,3.349,0,0,1,1.819-.492,3.7,3.7,0,0,1,1.949.457,1.551,1.551,0,0,1,.743,1.422v3.917a.5.5,0,0,0,.073.286.352.352,0,0,0,.308.108q.076,0,.171-.01t.2-.029V.032a3.182,3.182,0,0,1-.406.1,2.969,2.969,0,0,1-.381.019.94.94,0,0,1-.857-.419,1.617,1.617,0,0,1-.2-.628,2.907,2.907,0,0,1-1,.793,3.1,3.1,0,0,1-1.441.336,2.143,2.143,0,0,1-1.546-.574,1.908,1.908,0,0,1-.6-1.438,1.852,1.852,0,0,1,.59-1.466,2.809,2.809,0,0,1,1.549-.641Zm3.4-2.679h1.085v.965a3.044,3.044,0,0,1,1.022-.857,2.725,2.725,0,0,1,1.2-.26,1.978,1.978,0,0,1,1.955,1.009,3.584,3.584,0,0,1,.279,1.581V0H23.331V-4.285a2.32,2.32,0,0,0-.184-1,1.116,1.116,0,0,0-1.1-.635,2.249,2.249,0,0,0-.667.083,1.716,1.716,0,0,0-.825.559,1.682,1.682,0,0,0-.371.7,4.679,4.679,0,0,0-.086,1.025V0H18.951Zm7.022,0h1.085v.965A3.044,3.044,0,0,1,28.08-6.69a2.725,2.725,0,0,1,1.2-.26,1.978,1.978,0,0,1,1.955,1.009,3.584,3.584,0,0,1,.279,1.581V0H30.353V-4.285a2.32,2.32,0,0,0-.184-1,1.116,1.116,0,0,0-1.1-.635,2.249,2.249,0,0,0-.667.083,1.716,1.716,0,0,0-.825.559,1.682,1.682,0,0,0-.371.7,4.679,4.679,0,0,0-.086,1.025V0H25.973Zm7.009.032h1.162V0H32.982Zm0-2.558h1.162V-8.03H32.982ZM35.623-6.8h1.085v.965a3.044,3.044,0,0,1,1.022-.857,2.725,2.725,0,0,1,1.2-.26,1.978,1.978,0,0,1,1.955,1.009,3.584,3.584,0,0,1,.279,1.581V0H40V-4.285a2.32,2.32,0,0,0-.184-1,1.116,1.116,0,0,0-1.1-.635,2.249,2.249,0,0,0-.667.083,1.716,1.716,0,0,0-.825.559,1.682,1.682,0,0,0-.371.7,4.679,4.679,0,0,0-.086,1.025V0H35.623Zm9.408-.121a2.478,2.478,0,0,1,1.4.394,3.137,3.137,0,0,1,.66.647v-.857h1.054V-.552a4.559,4.559,0,0,1-.381,2.044,2.735,2.735,0,0,1-2.685,1.384,3.294,3.294,0,0,1-1.847-.492A1.918,1.918,0,0,1,42.391.844h1.162a1.293,1.293,0,0,0,.33.7A1.683,1.683,0,0,0,45.1,1.93,1.677,1.677,0,0,0,46.822,1a5.219,5.219,0,0,0,.222-1.949,2.242,2.242,0,0,1-.825.774,2.745,2.745,0,0,1-1.276.254A2.724,2.724,0,0,1,43.01-.7a3.448,3.448,0,0,1-.828-2.593,3.927,3.927,0,0,1,.835-2.666A2.581,2.581,0,0,1,45.031-6.919Zm2.057,3.491A2.834,2.834,0,0,0,46.568-5.3a1.668,1.668,0,0,0-1.327-.609,1.638,1.638,0,0,0-1.65,1.13A4.43,4.43,0,0,0,43.356-3.2a2.806,2.806,0,0,0,.467,1.749,1.506,1.506,0,0,0,1.254.6,1.76,1.76,0,0,0,1.733-1.111A3.583,3.583,0,0,0,47.088-3.428Zm13.1-5.9v1.111H57.041V0H55.759V-8.214H52.617V-9.325Zm1.158,2.374a3.1,3.1,0,0,1,1.4.34,2.587,2.587,0,0,1,1.035.879,3.033,3.033,0,0,1,.457,1.2,7.849,7.849,0,0,1,.1,1.5H59.355a2.908,2.908,0,0,0,.489,1.66,1.637,1.637,0,0,0,1.416.625,1.83,1.83,0,0,0,1.428-.59,1.99,1.99,0,0,0,.432-.793h1.124a2.366,2.366,0,0,1-.3.835,2.969,2.969,0,0,1-.562.752A2.663,2.663,0,0,1,62.1.14a3.914,3.914,0,0,1-.933.1,2.863,2.863,0,0,1-2.152-.924,3.594,3.594,0,0,1-.882-2.587,3.907,3.907,0,0,1,.889-2.66A2.932,2.932,0,0,1,61.341-6.951Zm1.822,3.009a2.96,2.96,0,0,0-.324-1.187,1.659,1.659,0,0,0-1.568-.825,1.738,1.738,0,0,0-1.32.568,2.146,2.146,0,0,0-.565,1.444Zm3.245,2.133a.941.941,0,0,0,.362.781,1.341,1.341,0,0,0,.857.286A2.605,2.605,0,0,0,68.8-1.022a1.572,1.572,0,0,0,.952-1.517v-.92a1.955,1.955,0,0,1-.54.222,4.6,4.6,0,0,1-.647.127l-.692.089a2.646,2.646,0,0,0-.933.26A1.014,1.014,0,0,0,66.408-1.809ZM69.176-4.12a.621.621,0,0,0,.527-.33,1,1,0,0,0,.076-.438.928.928,0,0,0-.416-.847A2.231,2.231,0,0,0,68.173-6a1.512,1.512,0,0,0-1.27.482,1.587,1.587,0,0,0-.273.793H65.564a1.963,1.963,0,0,1,.816-1.749A3.349,3.349,0,0,1,68.2-6.963a3.7,3.7,0,0,1,1.949.457,1.551,1.551,0,0,1,.743,1.422v3.917a.5.5,0,0,0,.073.286.352.352,0,0,0,.308.108q.076,0,.171-.01t.2-.029V.032a3.182,3.182,0,0,1-.406.1,2.969,2.969,0,0,1-.381.019A.94.94,0,0,1,70-.273,1.617,1.617,0,0,1,69.8-.9a2.907,2.907,0,0,1-1,.793A3.1,3.1,0,0,1,67.36.229a2.143,2.143,0,0,1-1.546-.574,1.908,1.908,0,0,1-.6-1.438,1.852,1.852,0,0,1,.59-1.466,2.809,2.809,0,0,1,1.549-.641ZM72.58-6.8h1.13v.965a3.8,3.8,0,0,1,.736-.73,2.214,2.214,0,0,1,1.282-.387,2.018,2.018,0,0,1,1.308.4,2.09,2.09,0,0,1,.508.673,2.47,2.47,0,0,1,.9-.809,2.5,2.5,0,0,1,1.155-.263,1.889,1.889,0,0,1,1.866.99,3.237,3.237,0,0,1,.267,1.435V0H80.54V-4.723a1.1,1.1,0,0,0-.34-.933,1.344,1.344,0,0,0-.828-.254,1.644,1.644,0,0,0-1.158.451,1.979,1.979,0,0,0-.486,1.5V0H76.567V-4.437A2.305,2.305,0,0,0,76.4-5.446a1.006,1.006,0,0,0-.971-.476,1.676,1.676,0,0,0-1.177.5,2.458,2.458,0,0,0-.53,1.815V0H72.58Z" transform="translate(78.498 226.906)"/>
  <path id="패스_28215" data-name="패스 28215" class="cls-4" d="M1.111-9.325H7.579v1.143H2.374v2.831H6.951V-4.24H2.374V0H1.111ZM9-1.809a.941.941,0,0,0,.362.781,1.341,1.341,0,0,0,.857.286,2.605,2.605,0,0,0,1.168-.279,1.572,1.572,0,0,0,.952-1.517v-.92a1.955,1.955,0,0,1-.54.222,4.6,4.6,0,0,1-.647.127l-.692.089a2.646,2.646,0,0,0-.933.26A1.014,1.014,0,0,0,9-1.809ZM11.772-4.12a.621.621,0,0,0,.527-.33,1,1,0,0,0,.076-.438.928.928,0,0,0-.416-.847A2.231,2.231,0,0,0,10.769-6a1.512,1.512,0,0,0-1.27.482,1.587,1.587,0,0,0-.273.793H8.161a1.963,1.963,0,0,1,.816-1.749,3.349,3.349,0,0,1,1.819-.492,3.7,3.7,0,0,1,1.949.457,1.551,1.551,0,0,1,.743,1.422v3.917a.5.5,0,0,0,.073.286.352.352,0,0,0,.308.108q.076,0,.171-.01t.2-.029V.032a3.182,3.182,0,0,1-.406.1,2.969,2.969,0,0,1-.381.019A.94.94,0,0,1,12.6-.273,1.617,1.617,0,0,1,12.4-.9a2.907,2.907,0,0,1-1,.793A3.1,3.1,0,0,1,9.957.229,2.143,2.143,0,0,1,8.411-.346a1.908,1.908,0,0,1-.6-1.438A1.852,1.852,0,0,1,8.4-3.25a2.809,2.809,0,0,1,1.549-.641ZM17.915-7a2.964,2.964,0,0,1,1.869.559,2.676,2.676,0,0,1,.866,1.923H19.54a2.051,2.051,0,0,0-.463-1.044,1.464,1.464,0,0,0-1.162-.416,1.605,1.605,0,0,0-1.562,1.066,4.236,4.236,0,0,0-.3,1.708,3.213,3.213,0,0,0,.432,1.72,1.481,1.481,0,0,0,1.358.7,1.485,1.485,0,0,0,1.127-.435,2.391,2.391,0,0,0,.574-1.19h1.111A2.982,2.982,0,0,1,19.7-.428,2.971,2.971,0,0,1,17.75.2a2.6,2.6,0,0,1-2.126-.974,3.729,3.729,0,0,1-.793-2.434A4.1,4.1,0,0,1,15.7-6,2.81,2.81,0,0,1,17.915-7Zm4.367-1.7h1.155v1.9h1.085v.933H23.438v4.437a.48.48,0,0,0,.241.476,1.025,1.025,0,0,0,.444.07l.178,0q.1,0,.222-.016V0a2.551,2.551,0,0,1-.409.083,3.893,3.893,0,0,1-.46.025A1.24,1.24,0,0,1,22.568-.3a1.819,1.819,0,0,1-.286-1.063v-4.5h-.92V-6.8h.92Zm5.86,7.96A1.576,1.576,0,0,0,29.7-1.6a4.285,4.285,0,0,0,.422-1.914,3.408,3.408,0,0,0-.3-1.549A1.714,1.714,0,0,0,28.155-6a1.64,1.64,0,0,0-1.523.8,3.707,3.707,0,0,0-.476,1.93,3.225,3.225,0,0,0,.476,1.809A1.677,1.677,0,0,0,28.142-.736ZM28.187-7a3.078,3.078,0,0,1,2.222.876,3.421,3.421,0,0,1,.908,2.577,4.422,4.422,0,0,1-.8,2.717A2.893,2.893,0,0,1,28.034.248,2.8,2.8,0,0,1,25.806-.7a3.748,3.748,0,0,1-.825-2.549,4.055,4.055,0,0,1,.87-2.729A2.919,2.919,0,0,1,28.187-7Zm4.377.2h1.085v1.174a2.6,2.6,0,0,1,.654-.835,1.7,1.7,0,0,1,1.2-.492q.032,0,.108.006l.26.025v1.206a1.707,1.707,0,0,0-.187-.025q-.086-.006-.187-.006a1.63,1.63,0,0,0-1.327.555,1.939,1.939,0,0,0-.463,1.279V0H32.563Zm9.194,0H43.02q-.241.654-1.073,2.983-.622,1.752-1.041,2.856a19.311,19.311,0,0,1-1.4,3.174,1.6,1.6,0,0,1-1.4.571,2.74,2.74,0,0,1-.371-.019,2.933,2.933,0,0,1-.321-.07V1.657a3.942,3.942,0,0,0,.432.1,1.685,1.685,0,0,0,.235.019.822.822,0,0,0,.467-.1.966.966,0,0,0,.251-.257q.032-.051.229-.521T39.32.2l-2.514-7H38.1l1.822,5.535Z" transform="translate(395.295 192.911)"/>
  <path id="패스_28216" data-name="패스 28216" class="cls-4" d="M.958-9.325H2.768L5.446-1.441l2.66-7.884H9.9V0H8.7V-5.5q0-.286.013-.946t.013-1.416L6.062,0H4.812L2.133-7.865v.286q0,.343.016,1.044T2.165-5.5V0H.958ZM12.3-1.809a.941.941,0,0,0,.362.781,1.341,1.341,0,0,0,.857.286,2.605,2.605,0,0,0,1.168-.279,1.572,1.572,0,0,0,.952-1.517v-.92a1.955,1.955,0,0,1-.54.222,4.6,4.6,0,0,1-.647.127l-.692.089a2.646,2.646,0,0,0-.933.26A1.014,1.014,0,0,0,12.3-1.809ZM15.064-4.12a.621.621,0,0,0,.527-.33,1,1,0,0,0,.076-.438.928.928,0,0,0-.416-.847A2.231,2.231,0,0,0,14.061-6a1.512,1.512,0,0,0-1.27.482,1.587,1.587,0,0,0-.273.793H11.452a1.963,1.963,0,0,1,.816-1.749,3.349,3.349,0,0,1,1.819-.492,3.7,3.7,0,0,1,1.949.457,1.551,1.551,0,0,1,.743,1.422v3.917a.5.5,0,0,0,.073.286.352.352,0,0,0,.308.108q.076,0,.171-.01t.2-.029V.032a3.182,3.182,0,0,1-.406.1,2.969,2.969,0,0,1-.381.019.94.94,0,0,1-.857-.419,1.617,1.617,0,0,1-.2-.628,2.907,2.907,0,0,1-1,.793,3.1,3.1,0,0,1-1.441.336A2.143,2.143,0,0,1,11.7-.346a1.908,1.908,0,0,1-.6-1.438,1.852,1.852,0,0,1,.59-1.466,2.809,2.809,0,0,1,1.549-.641Zm3.4-2.679h1.085v.965a3.044,3.044,0,0,1,1.022-.857,2.725,2.725,0,0,1,1.2-.26A1.978,1.978,0,0,1,23.73-5.941a3.584,3.584,0,0,1,.279,1.581V0H22.848V-4.285a2.32,2.32,0,0,0-.184-1,1.116,1.116,0,0,0-1.1-.635,2.249,2.249,0,0,0-.667.083,1.716,1.716,0,0,0-.825.559,1.682,1.682,0,0,0-.371.7,4.679,4.679,0,0,0-.086,1.025V0H18.468Zm7.859,4.989a.941.941,0,0,0,.362.781,1.341,1.341,0,0,0,.857.286,2.605,2.605,0,0,0,1.168-.279,1.572,1.572,0,0,0,.952-1.517v-.92a1.955,1.955,0,0,1-.54.222,4.6,4.6,0,0,1-.647.127l-.692.089a2.646,2.646,0,0,0-.933.26A1.014,1.014,0,0,0,26.327-1.809ZM29.095-4.12a.621.621,0,0,0,.527-.33,1,1,0,0,0,.076-.438.928.928,0,0,0-.416-.847A2.231,2.231,0,0,0,28.092-6a1.512,1.512,0,0,0-1.27.482,1.587,1.587,0,0,0-.273.793H25.483A1.963,1.963,0,0,1,26.3-6.471a3.349,3.349,0,0,1,1.819-.492,3.7,3.7,0,0,1,1.949.457,1.551,1.551,0,0,1,.743,1.422v3.917a.5.5,0,0,0,.073.286.352.352,0,0,0,.308.108q.076,0,.171-.01t.2-.029V.032a3.182,3.182,0,0,1-.406.1,2.969,2.969,0,0,1-.381.019.94.94,0,0,1-.857-.419,1.617,1.617,0,0,1-.2-.628,2.907,2.907,0,0,1-1,.793,3.1,3.1,0,0,1-1.441.336,2.143,2.143,0,0,1-1.546-.574,1.908,1.908,0,0,1-.6-1.438,1.852,1.852,0,0,1,.59-1.466,2.809,2.809,0,0,1,1.549-.641Zm5.8-2.8a2.478,2.478,0,0,1,1.4.394,3.137,3.137,0,0,1,.66.647v-.857h1.054V-.552a4.559,4.559,0,0,1-.381,2.044,2.735,2.735,0,0,1-2.685,1.384A3.294,3.294,0,0,1,33.1,2.384,1.918,1.918,0,0,1,32.258.844h1.162a1.293,1.293,0,0,0,.33.7,1.683,1.683,0,0,0,1.219.381A1.677,1.677,0,0,0,36.688,1a5.219,5.219,0,0,0,.222-1.949,2.242,2.242,0,0,1-.825.774,2.745,2.745,0,0,1-1.276.254A2.724,2.724,0,0,1,32.877-.7a3.448,3.448,0,0,1-.828-2.593,3.927,3.927,0,0,1,.835-2.666A2.581,2.581,0,0,1,34.9-6.919Zm2.057,3.491A2.834,2.834,0,0,0,36.434-5.3a1.668,1.668,0,0,0-1.327-.609,1.638,1.638,0,0,0-1.65,1.13A4.43,4.43,0,0,0,33.223-3.2a2.806,2.806,0,0,0,.467,1.749,1.506,1.506,0,0,0,1.254.6,1.76,1.76,0,0,0,1.733-1.111A3.583,3.583,0,0,0,36.955-3.428Zm5.4-3.523a3.1,3.1,0,0,1,1.4.34,2.587,2.587,0,0,1,1.035.879,3.033,3.033,0,0,1,.457,1.2,7.849,7.849,0,0,1,.1,1.5H40.365a2.908,2.908,0,0,0,.489,1.66,1.637,1.637,0,0,0,1.416.625,1.83,1.83,0,0,0,1.428-.59,1.99,1.99,0,0,0,.432-.793h1.124a2.366,2.366,0,0,1-.3.835,2.969,2.969,0,0,1-.562.752A2.663,2.663,0,0,1,43.107.14a3.914,3.914,0,0,1-.933.1,2.863,2.863,0,0,1-2.152-.924,3.594,3.594,0,0,1-.882-2.587,3.907,3.907,0,0,1,.889-2.66A2.932,2.932,0,0,1,42.352-6.951Zm1.822,3.009a2.96,2.96,0,0,0-.324-1.187,1.659,1.659,0,0,0-1.568-.825,1.738,1.738,0,0,0-1.32.568A2.146,2.146,0,0,0,40.4-3.942ZM46.686-6.8h1.13v.965a3.8,3.8,0,0,1,.736-.73,2.214,2.214,0,0,1,1.282-.387,2.018,2.018,0,0,1,1.308.4,2.09,2.09,0,0,1,.508.673,2.47,2.47,0,0,1,.9-.809A2.5,2.5,0,0,1,53.7-6.951a1.889,1.889,0,0,1,1.866.99,3.237,3.237,0,0,1,.267,1.435V0H54.646V-4.723a1.1,1.1,0,0,0-.34-.933,1.344,1.344,0,0,0-.828-.254,1.644,1.644,0,0,0-1.158.451,1.979,1.979,0,0,0-.486,1.5V0H50.672V-4.437a2.305,2.305,0,0,0-.165-1.009,1.006,1.006,0,0,0-.971-.476,1.676,1.676,0,0,0-1.177.5,2.458,2.458,0,0,0-.53,1.815V0H46.686Zm13.569-.152a3.1,3.1,0,0,1,1.4.34,2.587,2.587,0,0,1,1.035.879,3.033,3.033,0,0,1,.457,1.2,7.849,7.849,0,0,1,.1,1.5H58.268a2.908,2.908,0,0,0,.489,1.66,1.637,1.637,0,0,0,1.416.625,1.83,1.83,0,0,0,1.428-.59,1.99,1.99,0,0,0,.432-.793h1.124a2.366,2.366,0,0,1-.3.835,2.969,2.969,0,0,1-.562.752A2.663,2.663,0,0,1,61.01.14a3.914,3.914,0,0,1-.933.1,2.863,2.863,0,0,1-2.152-.924,3.594,3.594,0,0,1-.882-2.587,3.907,3.907,0,0,1,.889-2.66A2.932,2.932,0,0,1,60.255-6.951Zm1.822,3.009a2.96,2.96,0,0,0-.324-1.187,1.659,1.659,0,0,0-1.568-.825,1.738,1.738,0,0,0-1.32.568A2.146,2.146,0,0,0,58.3-3.942ZM64.589-6.8h1.085v.965A3.044,3.044,0,0,1,66.7-6.69a2.725,2.725,0,0,1,1.2-.26,1.978,1.978,0,0,1,1.955,1.009,3.584,3.584,0,0,1,.279,1.581V0H68.969V-4.285a2.32,2.32,0,0,0-.184-1,1.116,1.116,0,0,0-1.1-.635,2.249,2.249,0,0,0-.667.083,1.716,1.716,0,0,0-.825.559,1.682,1.682,0,0,0-.371.7,4.679,4.679,0,0,0-.086,1.025V0H64.589Zm7.25-1.9h1.155v1.9H74.08v.933H72.995v4.437a.48.48,0,0,0,.241.476,1.025,1.025,0,0,0,.444.07l.178,0q.1,0,.222-.016V0a2.551,2.551,0,0,1-.409.083,3.892,3.892,0,0,1-.46.025A1.24,1.24,0,0,1,72.125-.3a1.819,1.819,0,0,1-.286-1.063v-4.5h-.92V-6.8h.92ZM85.3-9.325v1.111H82.155V0H80.873V-8.214H77.731V-9.325Zm1.158,2.374a3.1,3.1,0,0,1,1.4.34,2.587,2.587,0,0,1,1.035.879,3.033,3.033,0,0,1,.457,1.2,7.849,7.849,0,0,1,.1,1.5H84.468a2.908,2.908,0,0,0,.489,1.66,1.637,1.637,0,0,0,1.416.625,1.83,1.83,0,0,0,1.428-.59,1.99,1.99,0,0,0,.432-.793h1.124a2.366,2.366,0,0,1-.3.835,2.969,2.969,0,0,1-.562.752A2.663,2.663,0,0,1,87.211.14a3.914,3.914,0,0,1-.933.1,2.863,2.863,0,0,1-2.152-.924,3.594,3.594,0,0,1-.882-2.587,3.907,3.907,0,0,1,.889-2.66A2.932,2.932,0,0,1,86.455-6.951Zm1.822,3.009a2.96,2.96,0,0,0-.324-1.187,1.659,1.659,0,0,0-1.568-.825,1.738,1.738,0,0,0-1.32.568A2.146,2.146,0,0,0,84.5-3.942Zm3.245,2.133a.941.941,0,0,0,.362.781,1.341,1.341,0,0,0,.857.286,2.605,2.605,0,0,0,1.168-.279,1.572,1.572,0,0,0,.952-1.517v-.92a1.955,1.955,0,0,1-.54.222,4.6,4.6,0,0,1-.647.127l-.692.089a2.646,2.646,0,0,0-.933.26A1.014,1.014,0,0,0,91.522-1.809ZM94.29-4.12a.621.621,0,0,0,.527-.33,1,1,0,0,0,.076-.438.928.928,0,0,0-.416-.847A2.231,2.231,0,0,0,93.287-6a1.512,1.512,0,0,0-1.27.482,1.587,1.587,0,0,0-.273.793H90.678a1.963,1.963,0,0,1,.816-1.749,3.349,3.349,0,0,1,1.819-.492,3.7,3.7,0,0,1,1.949.457A1.551,1.551,0,0,1,96-5.084v3.917a.5.5,0,0,0,.073.286.352.352,0,0,0,.308.108q.076,0,.171-.01t.2-.029V.032a3.182,3.182,0,0,1-.406.1,2.969,2.969,0,0,1-.381.019.94.94,0,0,1-.857-.419,1.617,1.617,0,0,1-.2-.628,2.907,2.907,0,0,1-1,.793,3.1,3.1,0,0,1-1.441.336,2.143,2.143,0,0,1-1.546-.574,1.908,1.908,0,0,1-.6-1.438,1.852,1.852,0,0,1,.59-1.466,2.809,2.809,0,0,1,1.549-.641Zm3.4-2.679h1.13v.965a3.8,3.8,0,0,1,.736-.73,2.214,2.214,0,0,1,1.282-.387,2.018,2.018,0,0,1,1.308.4,2.09,2.09,0,0,1,.508.673,2.47,2.47,0,0,1,.9-.809,2.5,2.5,0,0,1,1.155-.263,1.889,1.889,0,0,1,1.866.99,3.237,3.237,0,0,1,.267,1.435V0h-1.187V-4.723a1.1,1.1,0,0,0-.34-.933,1.344,1.344,0,0,0-.828-.254,1.644,1.644,0,0,0-1.158.451,1.979,1.979,0,0,0-.486,1.5V0H101.68V-4.437a2.305,2.305,0,0,0-.165-1.009,1.006,1.006,0,0,0-.971-.476,1.676,1.676,0,0,0-1.177.5,2.458,2.458,0,0,0-.53,1.815V0H97.694Z" transform="translate(361.689 209.915)"/>
  <path id="패스_28217" data-name="패스 28217" class="cls-4" d="M1.714-1.809a.941.941,0,0,0,.362.781,1.341,1.341,0,0,0,.857.286A2.605,2.605,0,0,0,4.1-1.022a1.572,1.572,0,0,0,.952-1.517v-.92a1.955,1.955,0,0,1-.54.222,4.6,4.6,0,0,1-.647.127l-.692.089a2.646,2.646,0,0,0-.933.26A1.014,1.014,0,0,0,1.714-1.809ZM4.481-4.12a.621.621,0,0,0,.527-.33,1,1,0,0,0,.076-.438.928.928,0,0,0-.416-.847A2.231,2.231,0,0,0,3.479-6a1.512,1.512,0,0,0-1.27.482,1.587,1.587,0,0,0-.273.793H.87a1.963,1.963,0,0,1,.816-1.749A3.349,3.349,0,0,1,3.5-6.963a3.7,3.7,0,0,1,1.949.457A1.551,1.551,0,0,1,6.2-5.084v3.917a.5.5,0,0,0,.073.286.352.352,0,0,0,.308.108q.076,0,.171-.01t.2-.029V.032a3.182,3.182,0,0,1-.406.1,2.969,2.969,0,0,1-.381.019.94.94,0,0,1-.857-.419A1.617,1.617,0,0,1,5.11-.9a2.907,2.907,0,0,1-1,.793A3.1,3.1,0,0,1,2.666.229,2.143,2.143,0,0,1,1.12-.346a1.908,1.908,0,0,1-.6-1.438,1.852,1.852,0,0,1,.59-1.466A2.809,2.809,0,0,1,2.66-3.891ZM8.1-8.7H9.257v1.9h1.085v.933H9.257v4.437A.48.48,0,0,0,9.5-.952a1.025,1.025,0,0,0,.444.07l.178,0q.1,0,.222-.016V0a2.551,2.551,0,0,1-.409.083,3.893,3.893,0,0,1-.46.025A1.24,1.24,0,0,1,8.387-.3,1.819,1.819,0,0,1,8.1-1.365v-4.5h-.92V-6.8H8.1Zm6.2-.628h1.473l2.679,4.481,2.679-4.481h1.479L19.083-3.758V0H17.82V-3.758ZM23.49-6.8v4.513a1.9,1.9,0,0,0,.165.851,1.152,1.152,0,0,0,1.136.609,1.606,1.606,0,0,0,1.625-1.066,4.231,4.231,0,0,0,.235-1.568V-6.8h1.143V0H26.714l.013-1a2.3,2.3,0,0,1-.552.654,2.43,2.43,0,0,1-1.587.533,2.047,2.047,0,0,1-1.98-.971,2.892,2.892,0,0,1-.286-1.39V-6.8Zm8.24-.121a2.478,2.478,0,0,1,1.4.394,3.137,3.137,0,0,1,.66.647v-.857H34.84V-.552a4.559,4.559,0,0,1-.381,2.044,2.735,2.735,0,0,1-2.685,1.384,3.294,3.294,0,0,1-1.847-.492A1.918,1.918,0,0,1,29.089.844H30.25a1.293,1.293,0,0,0,.33.7A1.683,1.683,0,0,0,31.8,1.93,1.677,1.677,0,0,0,33.519,1a5.219,5.219,0,0,0,.222-1.949,2.242,2.242,0,0,1-.825.774A2.745,2.745,0,0,1,31.64.083,2.724,2.724,0,0,1,29.708-.7a3.448,3.448,0,0,1-.828-2.593,3.927,3.927,0,0,1,.835-2.666A2.581,2.581,0,0,1,31.729-6.919Zm2.057,3.491A2.834,2.834,0,0,0,33.265-5.3a1.668,1.668,0,0,0-1.327-.609,1.638,1.638,0,0,0-1.65,1.13A4.43,4.43,0,0,0,30.054-3.2,2.806,2.806,0,0,0,30.52-1.45a1.506,1.506,0,0,0,1.254.6,1.76,1.76,0,0,0,1.733-1.111A3.583,3.583,0,0,0,33.786-3.428ZM37.7-6.8v4.513a1.9,1.9,0,0,0,.165.851A1.152,1.152,0,0,0,39-.825a1.606,1.606,0,0,0,1.625-1.066,4.231,4.231,0,0,0,.235-1.568V-6.8h1.143V0H40.927l.013-1a2.3,2.3,0,0,1-.552.654A2.43,2.43,0,0,1,38.8.184a2.047,2.047,0,0,1-1.98-.971,2.892,2.892,0,0,1-.286-1.39V-6.8Zm9.972-2.526h6.468v1.143H48.938v2.831h4.577V-4.24H48.938V0H47.675Zm7.894,7.516a.941.941,0,0,0,.362.781,1.341,1.341,0,0,0,.857.286,2.605,2.605,0,0,0,1.168-.279,1.572,1.572,0,0,0,.952-1.517v-.92a1.955,1.955,0,0,1-.54.222,4.6,4.6,0,0,1-.647.127l-.692.089a2.646,2.646,0,0,0-.933.26A1.014,1.014,0,0,0,55.569-1.809ZM58.336-4.12a.621.621,0,0,0,.527-.33,1,1,0,0,0,.076-.438.928.928,0,0,0-.416-.847A2.231,2.231,0,0,0,57.333-6a1.512,1.512,0,0,0-1.27.482,1.587,1.587,0,0,0-.273.793H54.724a1.963,1.963,0,0,1,.816-1.749,3.349,3.349,0,0,1,1.819-.492,3.7,3.7,0,0,1,1.949.457,1.551,1.551,0,0,1,.743,1.422v3.917a.5.5,0,0,0,.073.286.352.352,0,0,0,.308.108q.076,0,.171-.01t.2-.029V.032a3.182,3.182,0,0,1-.406.1,2.969,2.969,0,0,1-.381.019.94.94,0,0,1-.857-.419,1.617,1.617,0,0,1-.2-.628,2.907,2.907,0,0,1-1,.793,3.1,3.1,0,0,1-1.441.336,2.143,2.143,0,0,1-1.546-.574,1.908,1.908,0,0,1-.6-1.438,1.852,1.852,0,0,1,.59-1.466,2.809,2.809,0,0,1,1.549-.641ZM64.479-7a2.964,2.964,0,0,1,1.869.559,2.676,2.676,0,0,1,.866,1.923H66.1a2.051,2.051,0,0,0-.463-1.044,1.464,1.464,0,0,0-1.162-.416,1.605,1.605,0,0,0-1.562,1.066,4.236,4.236,0,0,0-.3,1.708,3.213,3.213,0,0,0,.432,1.72,1.481,1.481,0,0,0,1.358.7,1.485,1.485,0,0,0,1.127-.435,2.391,2.391,0,0,0,.574-1.19h1.111a2.982,2.982,0,0,1-.952,1.977A2.971,2.971,0,0,1,64.314.2a2.6,2.6,0,0,1-2.126-.974,3.729,3.729,0,0,1-.793-2.434A4.1,4.1,0,0,1,62.264-6,2.81,2.81,0,0,1,64.479-7Zm4.367-1.7H70v1.9h1.085v.933H70v4.437a.48.48,0,0,0,.241.476,1.025,1.025,0,0,0,.444.07l.178,0q.1,0,.222-.016V0a2.551,2.551,0,0,1-.409.083,3.892,3.892,0,0,1-.46.025A1.24,1.24,0,0,1,69.132-.3a1.819,1.819,0,0,1-.286-1.063v-4.5h-.92V-6.8h.92Zm5.86,7.96a1.576,1.576,0,0,0,1.558-.86,4.285,4.285,0,0,0,.422-1.914,3.408,3.408,0,0,0-.3-1.549A1.714,1.714,0,0,0,74.719-6a1.64,1.64,0,0,0-1.523.8,3.707,3.707,0,0,0-.476,1.93A3.225,3.225,0,0,0,73.2-1.46,1.677,1.677,0,0,0,74.706-.736ZM74.751-7a3.078,3.078,0,0,1,2.222.876,3.421,3.421,0,0,1,.908,2.577,4.422,4.422,0,0,1-.8,2.717A2.893,2.893,0,0,1,74.6.248,2.8,2.8,0,0,1,72.37-.7a3.748,3.748,0,0,1-.825-2.549,4.055,4.055,0,0,1,.87-2.729A2.919,2.919,0,0,1,74.751-7Zm4.377.2h1.085v1.174a2.594,2.594,0,0,1,.654-.835,1.7,1.7,0,0,1,1.2-.492q.032,0,.108.006l.26.025v1.206a1.707,1.707,0,0,0-.187-.025q-.086-.006-.187-.006a1.63,1.63,0,0,0-1.327.555A1.939,1.939,0,0,0,80.27-3.91V0H79.127Zm9.194,0h1.263q-.241.654-1.073,2.983Q87.889-2.063,87.47-.958a19.311,19.311,0,0,1-1.4,3.174,1.6,1.6,0,0,1-1.4.571,2.74,2.74,0,0,1-.371-.019,2.933,2.933,0,0,1-.321-.07V1.657a3.942,3.942,0,0,0,.432.1,1.685,1.685,0,0,0,.235.019.822.822,0,0,0,.467-.1.966.966,0,0,0,.251-.257Q85.4,1.365,85.6.9t.286-.7l-2.514-7h1.295l1.822,5.535Z" transform="translate(371.83 226.919)"/>
  <path id="패스_28211" data-name="패스 28211" class="cls-4" d="M1.111-9.325h4.2a2.844,2.844,0,0,1,2.006.7,2.545,2.545,0,0,1,.762,1.971,2.865,2.865,0,0,1-.679,1.9,2.573,2.573,0,0,1-2.088.809H2.374V0H1.111ZM6.8-6.646a1.4,1.4,0,0,0-.762-1.4,2.75,2.75,0,0,0-1.149-.2H2.374v3.231H4.888A2.4,2.4,0,0,0,6.268-5.37,1.434,1.434,0,0,0,6.8-6.646ZM11.96-.736a1.576,1.576,0,0,0,1.558-.86A4.285,4.285,0,0,0,13.94-3.51a3.408,3.408,0,0,0-.3-1.549A1.714,1.714,0,0,0,11.972-6a1.64,1.64,0,0,0-1.523.8,3.707,3.707,0,0,0-.476,1.93,3.225,3.225,0,0,0,.476,1.809A1.677,1.677,0,0,0,11.96-.736ZM12-7a3.078,3.078,0,0,1,2.222.876,3.421,3.421,0,0,1,.908,2.577,4.422,4.422,0,0,1-.8,2.717A2.893,2.893,0,0,1,11.852.248,2.8,2.8,0,0,1,9.624-.7,3.748,3.748,0,0,1,8.8-3.25a4.055,4.055,0,0,1,.87-2.729A2.919,2.919,0,0,1,12-7Zm7.109,0a2.964,2.964,0,0,1,1.869.559,2.676,2.676,0,0,1,.866,1.923H20.738a2.051,2.051,0,0,0-.463-1.044,1.464,1.464,0,0,0-1.162-.416,1.605,1.605,0,0,0-1.562,1.066,4.236,4.236,0,0,0-.3,1.708,3.213,3.213,0,0,0,.432,1.72,1.481,1.481,0,0,0,1.358.7,1.485,1.485,0,0,0,1.127-.435,2.391,2.391,0,0,0,.574-1.19h1.111A2.982,2.982,0,0,1,20.9-.428,2.971,2.971,0,0,1,18.948.2a2.6,2.6,0,0,1-2.126-.974,3.729,3.729,0,0,1-.793-2.434A4.1,4.1,0,0,1,16.9-6,2.81,2.81,0,0,1,19.113-7Zm3.774-2.361H24.03v3.479a3.3,3.3,0,0,1,.73-.724,2.463,2.463,0,0,1,1.377-.362,2.037,2.037,0,0,1,2.006,1.035,3.528,3.528,0,0,1,.286,1.568V0H27.255V-4.285a2.4,2.4,0,0,0-.19-1.1A1.217,1.217,0,0,0,25.9-5.941a1.946,1.946,0,0,0-1.289.489,2.35,2.35,0,0,0-.578,1.847V0H22.888Zm9.983,2.406a3.1,3.1,0,0,1,1.4.34,2.587,2.587,0,0,1,1.035.879,3.033,3.033,0,0,1,.457,1.2,7.849,7.849,0,0,1,.1,1.5H30.884a2.908,2.908,0,0,0,.489,1.66,1.637,1.637,0,0,0,1.416.625,1.83,1.83,0,0,0,1.428-.59,1.99,1.99,0,0,0,.432-.793h1.124a2.366,2.366,0,0,1-.3.835,2.969,2.969,0,0,1-.562.752A2.663,2.663,0,0,1,33.626.14a3.914,3.914,0,0,1-.933.1,2.863,2.863,0,0,1-2.152-.924,3.594,3.594,0,0,1-.882-2.587,3.907,3.907,0,0,1,.889-2.66A2.932,2.932,0,0,1,32.871-6.951Zm1.822,3.009a2.96,2.96,0,0,0-.324-1.187A1.659,1.659,0,0,0,32.8-5.954a1.738,1.738,0,0,0-1.32.568,2.146,2.146,0,0,0-.565,1.444ZM40.045-.736A1.576,1.576,0,0,0,41.6-1.6a4.285,4.285,0,0,0,.422-1.914,3.408,3.408,0,0,0-.3-1.549A1.714,1.714,0,0,0,40.058-6a1.64,1.64,0,0,0-1.523.8,3.707,3.707,0,0,0-.476,1.93,3.225,3.225,0,0,0,.476,1.809A1.677,1.677,0,0,0,40.045-.736ZM40.09-7a3.078,3.078,0,0,1,2.222.876,3.421,3.421,0,0,1,.908,2.577,4.422,4.422,0,0,1-.8,2.717A2.893,2.893,0,0,1,39.938.248,2.8,2.8,0,0,1,37.71-.7a3.748,3.748,0,0,1-.825-2.549,4.055,4.055,0,0,1,.87-2.729A2.919,2.919,0,0,1,40.09-7Zm4.345.2H45.52v.965a3.044,3.044,0,0,1,1.022-.857,2.725,2.725,0,0,1,1.2-.26A1.978,1.978,0,0,1,49.7-5.941a3.584,3.584,0,0,1,.279,1.581V0H48.815V-4.285a2.32,2.32,0,0,0-.184-1,1.116,1.116,0,0,0-1.1-.635,2.249,2.249,0,0,0-.667.083,1.716,1.716,0,0,0-.825.559,1.682,1.682,0,0,0-.371.7,4.679,4.679,0,0,0-.086,1.025V0H44.435ZM55.549-9.325h6.468v1.143H56.813v2.831h4.577V-4.24H56.813V0H55.549Zm7.894,7.516a.941.941,0,0,0,.362.781,1.341,1.341,0,0,0,.857.286,2.605,2.605,0,0,0,1.168-.279,1.572,1.572,0,0,0,.952-1.517v-.92a1.955,1.955,0,0,1-.54.222,4.6,4.6,0,0,1-.647.127l-.692.089a2.646,2.646,0,0,0-.933.26A1.014,1.014,0,0,0,63.443-1.809ZM66.211-4.12a.621.621,0,0,0,.527-.33,1,1,0,0,0,.076-.438.928.928,0,0,0-.416-.847A2.231,2.231,0,0,0,65.208-6a1.512,1.512,0,0,0-1.27.482,1.587,1.587,0,0,0-.273.793H62.6a1.963,1.963,0,0,1,.816-1.749,3.349,3.349,0,0,1,1.819-.492,3.7,3.7,0,0,1,1.949.457,1.551,1.551,0,0,1,.743,1.422v3.917A.5.5,0,0,0,68-.882a.352.352,0,0,0,.308.108q.076,0,.171-.01t.2-.029V.032a3.182,3.182,0,0,1-.406.1,2.969,2.969,0,0,1-.381.019.94.94,0,0,1-.857-.419,1.617,1.617,0,0,1-.2-.628,2.907,2.907,0,0,1-1,.793A3.1,3.1,0,0,1,64.4.229,2.143,2.143,0,0,1,62.85-.346a1.908,1.908,0,0,1-.6-1.438,1.852,1.852,0,0,1,.59-1.466,2.809,2.809,0,0,1,1.549-.641ZM72.354-7a2.964,2.964,0,0,1,1.869.559,2.676,2.676,0,0,1,.866,1.923H73.979a2.051,2.051,0,0,0-.463-1.044,1.464,1.464,0,0,0-1.162-.416,1.605,1.605,0,0,0-1.562,1.066,4.236,4.236,0,0,0-.3,1.708,3.213,3.213,0,0,0,.432,1.72,1.481,1.481,0,0,0,1.358.7A1.485,1.485,0,0,0,73.4-1.216a2.391,2.391,0,0,0,.574-1.19H75.09a2.982,2.982,0,0,1-.952,1.977A2.971,2.971,0,0,1,72.189.2a2.6,2.6,0,0,1-2.126-.974,3.729,3.729,0,0,1-.793-2.434A4.1,4.1,0,0,1,70.139-6,2.81,2.81,0,0,1,72.354-7Zm4.367-1.7h1.155v1.9h1.085v.933H77.876v4.437a.48.48,0,0,0,.241.476,1.025,1.025,0,0,0,.444.07l.178,0q.1,0,.222-.016V0a2.551,2.551,0,0,1-.409.083,3.892,3.892,0,0,1-.46.025A1.24,1.24,0,0,1,77.007-.3a1.819,1.819,0,0,1-.286-1.063v-4.5H75.8V-6.8h.92Zm5.86,7.96a1.576,1.576,0,0,0,1.558-.86,4.285,4.285,0,0,0,.422-1.914,3.408,3.408,0,0,0-.3-1.549A1.714,1.714,0,0,0,82.594-6a1.64,1.64,0,0,0-1.523.8,3.707,3.707,0,0,0-.476,1.93A3.225,3.225,0,0,0,81.07-1.46,1.677,1.677,0,0,0,82.581-.736ZM82.625-7a3.078,3.078,0,0,1,2.222.876,3.421,3.421,0,0,1,.908,2.577,4.422,4.422,0,0,1-.8,2.717A2.893,2.893,0,0,1,82.473.248,2.8,2.8,0,0,1,80.245-.7,3.748,3.748,0,0,1,79.42-3.25a4.055,4.055,0,0,1,.87-2.729A2.919,2.919,0,0,1,82.625-7ZM87-6.8h1.085v1.174a2.594,2.594,0,0,1,.654-.835,1.7,1.7,0,0,1,1.2-.492q.032,0,.108.006l.26.025v1.206a1.707,1.707,0,0,0-.187-.025q-.086-.006-.187-.006a1.63,1.63,0,0,0-1.327.555,1.939,1.939,0,0,0-.463,1.279V0H87Zm9.194,0h1.263q-.241.654-1.073,2.983-.622,1.752-1.041,2.856a19.311,19.311,0,0,1-1.4,3.174,1.6,1.6,0,0,1-1.4.571,2.74,2.74,0,0,1-.371-.019,2.933,2.933,0,0,1-.321-.07V1.657a3.942,3.942,0,0,0,.432.1,1.685,1.685,0,0,0,.235.019.822.822,0,0,0,.467-.1.966.966,0,0,0,.251-.257q.032-.051.229-.521t.286-.7l-2.514-7H92.54l1.822,5.535Z" transform="translate(663.511 209.915)"/>
  <rect id="사각형_346" data-name="사각형 346" class="cls-5" width="153.333" height="30" transform="translate(340.454 90.331)"/>
  <rect id="사각형_347" data-name="사각형 347" class="cls-6" width="122" height="30" transform="translate(159.601 90.331)"/>
  <path id="패스_28222" data-name="패스 28222" class="cls-3" d="M5.109-9.947a3.968,3.968,0,0,1,2.854.969,3.422,3.422,0,0,1,1.127,2.2H7.811A2.661,2.661,0,0,0,6.944-8.26a2.747,2.747,0,0,0-1.823-.547A2.923,2.923,0,0,0,2.811-7.8a4.582,4.582,0,0,0-.88,3.082,4.476,4.476,0,0,0,.794,2.759A2.775,2.775,0,0,0,5.1-.9,2.5,2.5,0,0,0,7.3-2.017,4.237,4.237,0,0,0,7.9-3.56H9.182A4.37,4.37,0,0,1,8.049-1,4.034,4.034,0,0,1,4.937.25,4.106,4.106,0,0,1,2.1-.771,5.324,5.324,0,0,1,.593-4.944,5.33,5.33,0,0,1,1.727-8.457,4.141,4.141,0,0,1,5.109-9.947Zm5.368.264h1.187V0H10.477ZM14.414-7.06v4.687a1.976,1.976,0,0,0,.171.883,1.2,1.2,0,0,0,1.18.633,1.668,1.668,0,0,0,1.687-1.107A4.394,4.394,0,0,0,17.7-3.593V-7.06h1.187V0H17.762l.013-1.042a2.393,2.393,0,0,1-.573.679,2.524,2.524,0,0,1-1.648.554A2.126,2.126,0,0,1,13.5-.817a3,3,0,0,1-.3-1.444v-4.8ZM20.44-9.716h1.154V-6.2a2.631,2.631,0,0,1,.929-.775A2.613,2.613,0,0,1,23.7-7.244a2.751,2.751,0,0,1,2.139.906,3.861,3.861,0,0,1,.821,2.673,4.584,4.584,0,0,1-.811,2.782A2.63,2.63,0,0,1,23.6.224,2.3,2.3,0,0,1,22.24-.165,3.279,3.279,0,0,1,21.535-.9V0H20.44ZM23.525-.824a1.585,1.585,0,0,0,1.44-.765,3.765,3.765,0,0,0,.478-2.017,3.311,3.311,0,0,0-.478-1.846,1.574,1.574,0,0,0-1.407-.732,1.963,1.963,0,0,0-1.421.6,2.694,2.694,0,0,0-.61,1.978,4.37,4.37,0,0,0,.25,1.615A1.731,1.731,0,0,0,23.525-.824Zm9.054-8.859,2.782,8.246L38.11-9.683h1.47L36.047,0H34.656L31.129-9.683ZM42.265-.765a1.636,1.636,0,0,0,1.618-.893,4.45,4.45,0,0,0,.438-1.987,3.539,3.539,0,0,0-.316-1.608,1.78,1.78,0,0,0-1.727-.976A1.7,1.7,0,0,0,40.7-5.4a3.85,3.85,0,0,0-.494,2A3.349,3.349,0,0,0,40.7-1.516,1.741,1.741,0,0,0,42.265-.765Zm.046-6.5a3.2,3.2,0,0,1,2.307.91,3.552,3.552,0,0,1,.943,2.676A4.592,4.592,0,0,1,44.73-.857,3,3,0,0,1,42.153.257a2.91,2.91,0,0,1-2.314-.985,3.893,3.893,0,0,1-.857-2.647,4.211,4.211,0,0,1,.9-2.834A3.031,3.031,0,0,1,42.311-7.264ZM46.87-9.683h1.187V0H46.87ZM50.806-7.06v4.687a1.976,1.976,0,0,0,.171.883,1.2,1.2,0,0,0,1.18.633,1.668,1.668,0,0,0,1.688-1.107,4.394,4.394,0,0,0,.244-1.628V-7.06h1.187V0H54.155l.013-1.042a2.393,2.393,0,0,1-.573.679,2.524,2.524,0,0,1-1.648.554A2.126,2.126,0,0,1,49.89-.817a3,3,0,0,1-.3-1.444v-4.8Zm6.119,0h1.127v1a3.162,3.162,0,0,1,1.061-.89,2.83,2.83,0,0,1,1.246-.27A2.054,2.054,0,0,1,62.39-6.17a3.722,3.722,0,0,1,.29,1.641V0H61.474V-4.449a2.409,2.409,0,0,0-.191-1.042,1.159,1.159,0,0,0-1.147-.659,2.335,2.335,0,0,0-.692.086,1.782,1.782,0,0,0-.857.58,1.746,1.746,0,0,0-.386.722A4.859,4.859,0,0,0,58.112-3.7V0H56.925Zm7.529-1.971h1.2V-7.06h1.127v.969H65.655v4.608a.5.5,0,0,0,.25.494,1.065,1.065,0,0,0,.461.073q.086,0,.185,0t.231-.016V0a2.649,2.649,0,0,1-.425.086,4.042,4.042,0,0,1-.478.026,1.288,1.288,0,0,1-1.127-.425,1.889,1.889,0,0,1-.3-1.1V-6.091H63.5V-7.06h.956Zm6.17,1.813a3.22,3.22,0,0,1,1.457.353,2.686,2.686,0,0,1,1.074.913,3.15,3.15,0,0,1,.475,1.246,8.151,8.151,0,0,1,.105,1.556H68.561a3.019,3.019,0,0,0,.508,1.724,1.7,1.7,0,0,0,1.47.649,1.9,1.9,0,0,0,1.483-.613,2.067,2.067,0,0,0,.448-.824h1.167a2.457,2.457,0,0,1-.307.867,3.083,3.083,0,0,1-.583.781,2.765,2.765,0,0,1-1.338.712A4.065,4.065,0,0,1,70.44.25a2.973,2.973,0,0,1-2.235-.959,3.732,3.732,0,0,1-.916-2.686,4.058,4.058,0,0,1,.923-2.762A3.044,3.044,0,0,1,70.625-7.218Zm1.892,3.125a3.074,3.074,0,0,0-.336-1.233,1.723,1.723,0,0,0-1.628-.857,1.8,1.8,0,0,0-1.371.59,2.229,2.229,0,0,0-.587,1.5Zm5.576-3.125a3.22,3.22,0,0,1,1.457.353,2.686,2.686,0,0,1,1.074.913A3.15,3.15,0,0,1,81.1-4.707,8.151,8.151,0,0,1,81.2-3.151H76.029a3.019,3.019,0,0,0,.508,1.724,1.7,1.7,0,0,0,1.47.649,1.9,1.9,0,0,0,1.483-.613,2.067,2.067,0,0,0,.448-.824H81.1a2.457,2.457,0,0,1-.307.867,3.083,3.083,0,0,1-.583.781,2.765,2.765,0,0,1-1.338.712,4.065,4.065,0,0,1-.969.105,2.973,2.973,0,0,1-2.235-.959,3.732,3.732,0,0,1-.916-2.686,4.058,4.058,0,0,1,.923-2.762A3.044,3.044,0,0,1,78.092-7.218Zm1.892,3.125a3.074,3.074,0,0,0-.336-1.233,1.723,1.723,0,0,0-1.628-.857,1.8,1.8,0,0,0-1.371.59,2.229,2.229,0,0,0-.587,1.5ZM82.612-7.06H83.74V-5.84a2.694,2.694,0,0,1,.679-.867,1.76,1.76,0,0,1,1.246-.511q.033,0,.112.007l.27.026v1.252a1.772,1.772,0,0,0-.194-.026q-.089-.007-.194-.007a1.693,1.693,0,0,0-1.378.577A2.013,2.013,0,0,0,83.8-4.061V0H82.612Zm4.449.033h1.206V0H87.062Zm0-2.656h1.206v1.345H87.062ZM89.845-7.06h1.127v1a3.162,3.162,0,0,1,1.061-.89,2.83,2.83,0,0,1,1.246-.27,2.054,2.054,0,0,1,2.03,1.048,3.722,3.722,0,0,1,.29,1.641V0H94.393V-4.449A2.409,2.409,0,0,0,94.2-5.491a1.159,1.159,0,0,0-1.147-.659,2.335,2.335,0,0,0-.692.086,1.782,1.782,0,0,0-.857.58,1.746,1.746,0,0,0-.386.722A4.859,4.859,0,0,0,91.031-3.7V0H89.845Zm9.811-.125a2.573,2.573,0,0,1,1.45.409,3.257,3.257,0,0,1,.686.672v-.89h1.094v6.42a4.735,4.735,0,0,1-.4,2.123A2.84,2.84,0,0,1,99.7,2.986a3.42,3.42,0,0,1-1.918-.511,1.992,1.992,0,0,1-.87-1.6H98.12a1.343,1.343,0,0,0,.343.732,1.748,1.748,0,0,0,1.266.4,1.741,1.741,0,0,0,1.786-.962,5.42,5.42,0,0,0,.231-2.024,2.328,2.328,0,0,1-.857.8,2.851,2.851,0,0,1-1.325.264,2.828,2.828,0,0,1-2.007-.814,3.58,3.58,0,0,1-.86-2.693,4.078,4.078,0,0,1,.867-2.769A2.68,2.68,0,0,1,99.656-7.185Zm2.136,3.625a2.943,2.943,0,0,0-.541-1.945,1.732,1.732,0,0,0-1.378-.633,1.7,1.7,0,0,0-1.714,1.173,4.6,4.6,0,0,0-.244,1.641A2.914,2.914,0,0,0,98.4-1.506a1.564,1.564,0,0,0,1.3.623,1.828,1.828,0,0,0,1.8-1.154A3.721,3.721,0,0,0,101.791-3.56Z" transform="translate(168.689 110.611)"/>
  <path id="패스_28223" data-name="패스 28223" class="cls-3" d="M1.154-9.683H5.511a2.954,2.954,0,0,1,2.083.728,2.643,2.643,0,0,1,.791,2.047,2.976,2.976,0,0,1-.705,1.974,2.672,2.672,0,0,1-2.169.84H2.465V0H1.154ZM7.06-6.9a1.457,1.457,0,0,0-.791-1.45,2.856,2.856,0,0,0-1.193-.2H2.465V-5.2h2.61a2.5,2.5,0,0,0,1.434-.376A1.489,1.489,0,0,0,7.06-6.9Zm3.853-.158v4.687a1.976,1.976,0,0,0,.171.883,1.2,1.2,0,0,0,1.18.633,1.668,1.668,0,0,0,1.688-1.107A4.394,4.394,0,0,0,14.2-3.593V-7.06h1.187V0H14.261l.013-1.042a2.393,2.393,0,0,1-.573.679,2.524,2.524,0,0,1-1.648.554A2.126,2.126,0,0,1,10-.817a3,3,0,0,1-.3-1.444v-4.8Zm6.094-2.656H18.16V-6.2a2.631,2.631,0,0,1,.929-.775,2.613,2.613,0,0,1,1.173-.267,2.751,2.751,0,0,1,2.139.906,3.861,3.861,0,0,1,.821,2.673,4.584,4.584,0,0,1-.811,2.782A2.63,2.63,0,0,1,20.164.224a2.3,2.3,0,0,1-1.358-.389A3.279,3.279,0,0,1,18.1-.9V0H17.007ZM20.092-.824a1.585,1.585,0,0,0,1.44-.765,3.765,3.765,0,0,0,.478-2.017,3.311,3.311,0,0,0-.478-1.846,1.574,1.574,0,0,0-1.407-.732,1.963,1.963,0,0,0-1.421.6,2.694,2.694,0,0,0-.61,1.978,4.37,4.37,0,0,0,.25,1.615A1.731,1.731,0,0,0,20.092-.824Zm4.494-8.859h1.187V0H24.586Zm2.845,2.656h1.206V0H27.431Zm0-2.656h1.206v1.345H27.431Zm5.614,2.419a3.078,3.078,0,0,1,1.941.58,2.779,2.779,0,0,1,.9,2H34.732a2.13,2.13,0,0,0-.481-1.084A1.52,1.52,0,0,0,33.045-6.2,1.667,1.667,0,0,0,31.423-5.1a4.4,4.4,0,0,0-.316,1.773,3.337,3.337,0,0,0,.448,1.786,1.538,1.538,0,0,0,1.411.725,1.543,1.543,0,0,0,1.17-.452,2.483,2.483,0,0,0,.6-1.236h1.154A3.1,3.1,0,0,1,34.9-.445,3.085,3.085,0,0,1,32.873.2,2.7,2.7,0,0,1,30.665-.807a3.873,3.873,0,0,1-.824-2.528,4.259,4.259,0,0,1,.9-2.894A2.918,2.918,0,0,1,33.045-7.264ZM45.483-5.247a2.542,2.542,0,0,0,1.46-.369,1.5,1.5,0,0,0,.537-1.332,1.429,1.429,0,0,0-.751-1.411,2.456,2.456,0,0,0-1.074-.2h-3.2v3.309ZM41.139-9.683h4.482a4.47,4.47,0,0,1,1.826.323,2.287,2.287,0,0,1,1.365,2.287,2.572,2.572,0,0,1-.359,1.424,2.6,2.6,0,0,1-1.005.89,1.981,1.981,0,0,1,.854.606,2.178,2.178,0,0,1,.32,1.219l.046,1.3a3.992,3.992,0,0,0,.092.824.81.81,0,0,0,.422.593V0H47.573a1.21,1.21,0,0,1-.105-.323,6.2,6.2,0,0,1-.066-.765L47.322-2.7a1.357,1.357,0,0,0-.705-1.272,2.917,2.917,0,0,0-1.18-.178H42.451V0H41.139ZM53.391-7.218a3.22,3.22,0,0,1,1.457.353,2.686,2.686,0,0,1,1.074.913A3.15,3.15,0,0,1,56.4-4.707,8.151,8.151,0,0,1,56.5-3.151H51.327a3.019,3.019,0,0,0,.508,1.724,1.7,1.7,0,0,0,1.47.649,1.9,1.9,0,0,0,1.483-.613,2.067,2.067,0,0,0,.448-.824H56.4a2.457,2.457,0,0,1-.307.867,3.083,3.083,0,0,1-.583.781,2.765,2.765,0,0,1-1.338.712,4.065,4.065,0,0,1-.969.105,2.973,2.973,0,0,1-2.235-.959,3.732,3.732,0,0,1-.916-2.686,4.058,4.058,0,0,1,.923-2.762A3.044,3.044,0,0,1,53.391-7.218Zm1.892,3.125a3.074,3.074,0,0,0-.336-1.233,1.723,1.723,0,0,0-1.628-.857,1.8,1.8,0,0,0-1.371.59,2.229,2.229,0,0,0-.587,1.5Zm2.7-5.59h1.187V0H57.978Zm3.754,7.8a.977.977,0,0,0,.376.811,1.393,1.393,0,0,0,.89.3,2.706,2.706,0,0,0,1.213-.29A1.632,1.632,0,0,0,65.2-2.637v-.956a2.03,2.03,0,0,1-.56.231,4.774,4.774,0,0,1-.672.132l-.719.092a2.748,2.748,0,0,0-.969.27A1.053,1.053,0,0,0,61.733-1.879Zm2.874-2.4a.645.645,0,0,0,.547-.343,1.043,1.043,0,0,0,.079-.455.964.964,0,0,0-.432-.88,2.316,2.316,0,0,0-1.236-.274,1.571,1.571,0,0,0-1.318.5,1.648,1.648,0,0,0-.283.824H60.856A2.038,2.038,0,0,1,61.7-6.72a3.478,3.478,0,0,1,1.889-.511,3.843,3.843,0,0,1,2.024.475,1.61,1.61,0,0,1,.771,1.477v4.067a.521.521,0,0,0,.076.3.366.366,0,0,0,.32.112q.079,0,.178-.01t.211-.03V.033a3.3,3.3,0,0,1-.422.1,3.083,3.083,0,0,1-.4.02.976.976,0,0,1-.89-.435,1.679,1.679,0,0,1-.2-.653,3.019,3.019,0,0,1-1.042.824,3.222,3.222,0,0,1-1.5.349,2.225,2.225,0,0,1-1.605-.6,1.982,1.982,0,0,1-.623-1.493,1.923,1.923,0,0,1,.613-1.523,2.917,2.917,0,0,1,1.608-.666Zm3.8-4.753h1.2V-7.06h1.127v.969H69.606v4.608a.5.5,0,0,0,.25.494,1.065,1.065,0,0,0,.461.073q.086,0,.185,0t.231-.016V0a2.649,2.649,0,0,1-.425.086,4.042,4.042,0,0,1-.478.026A1.288,1.288,0,0,1,68.7-.313a1.889,1.889,0,0,1-.3-1.1V-6.091h-.956V-7.06h.956Zm3.446,2h1.206V0H71.852Zm0-2.656h1.206v1.345H71.852ZM77.545-.765a1.636,1.636,0,0,0,1.618-.893A4.45,4.45,0,0,0,79.6-3.645a3.539,3.539,0,0,0-.316-1.608,1.78,1.78,0,0,0-1.727-.976,1.7,1.7,0,0,0-1.582.831,3.85,3.85,0,0,0-.494,2,3.349,3.349,0,0,0,.494,1.879A1.741,1.741,0,0,0,77.545-.765Zm.046-6.5a3.2,3.2,0,0,1,2.307.91,3.552,3.552,0,0,1,.943,2.676A4.592,4.592,0,0,1,80.01-.857,3,3,0,0,1,77.433.257a2.91,2.91,0,0,1-2.314-.985,3.893,3.893,0,0,1-.857-2.647,4.211,4.211,0,0,1,.9-2.834A3.031,3.031,0,0,1,77.591-7.264Zm4.593.2h1.127v1a3.162,3.162,0,0,1,1.061-.89,2.83,2.83,0,0,1,1.246-.27,2.054,2.054,0,0,1,2.03,1.048,3.722,3.722,0,0,1,.29,1.641V0H86.732V-4.449a2.409,2.409,0,0,0-.191-1.042,1.159,1.159,0,0,0-1.147-.659,2.335,2.335,0,0,0-.692.086,1.782,1.782,0,0,0-.857.58,1.746,1.746,0,0,0-.386.722A4.859,4.859,0,0,0,83.371-3.7V0H82.184ZM90.33-2.215a1.725,1.725,0,0,0,.3.91,1.864,1.864,0,0,0,1.556.573,2.294,2.294,0,0,0,1.16-.287.952.952,0,0,0,.5-.887.758.758,0,0,0-.4-.692,4.781,4.781,0,0,0-1.015-.336l-.943-.237a4.6,4.6,0,0,1-1.332-.5A1.5,1.5,0,0,1,89.387-5a2.035,2.035,0,0,1,.722-1.622,2.879,2.879,0,0,1,1.941-.62,2.7,2.7,0,0,1,2.3.936,2.031,2.031,0,0,1,.428,1.279H93.659a1.373,1.373,0,0,0-.283-.732,1.808,1.808,0,0,0-1.417-.468,1.694,1.694,0,0,0-1.018.257.806.806,0,0,0-.346.679.836.836,0,0,0,.455.738,2.733,2.733,0,0,0,.778.29l.784.191a6.065,6.065,0,0,1,1.714.6,1.588,1.588,0,0,1,.692,1.43A2.18,2.18,0,0,1,94.3-.415,3.045,3.045,0,0,1,92.123.27a2.923,2.923,0,0,1-2.231-.715,2.7,2.7,0,0,1-.7-1.77Zm16.763-7.469V-8.53H103.83V0H102.5V-8.53H99.235V-9.683ZM108.4-7.218a3.22,3.22,0,0,1,1.457.353,2.686,2.686,0,0,1,1.074.913,3.15,3.15,0,0,1,.475,1.246,8.151,8.151,0,0,1,.105,1.556H106.34a3.019,3.019,0,0,0,.508,1.724,1.7,1.7,0,0,0,1.47.649,1.9,1.9,0,0,0,1.483-.613,2.067,2.067,0,0,0,.448-.824h1.167a2.457,2.457,0,0,1-.307.867,3.083,3.083,0,0,1-.583.781,2.765,2.765,0,0,1-1.338.712,4.065,4.065,0,0,1-.969.105,2.973,2.973,0,0,1-2.235-.959,3.732,3.732,0,0,1-.916-2.686,4.058,4.058,0,0,1,.923-2.762A3.044,3.044,0,0,1,108.4-7.218ZM110.3-4.094a3.074,3.074,0,0,0-.336-1.233,1.723,1.723,0,0,0-1.628-.857,1.8,1.8,0,0,0-1.371.59,2.229,2.229,0,0,0-.587,1.5Zm3.464,2.215a.977.977,0,0,0,.376.811,1.393,1.393,0,0,0,.89.3,2.706,2.706,0,0,0,1.213-.29,1.632,1.632,0,0,0,.989-1.575v-.956a2.03,2.03,0,0,1-.56.231,4.774,4.774,0,0,1-.672.132l-.719.092a2.748,2.748,0,0,0-.969.27A1.053,1.053,0,0,0,113.76-1.879Zm2.874-2.4a.645.645,0,0,0,.547-.343,1.043,1.043,0,0,0,.079-.455.964.964,0,0,0-.432-.88,2.316,2.316,0,0,0-1.236-.274,1.571,1.571,0,0,0-1.318.5,1.648,1.648,0,0,0-.283.824h-1.107a2.038,2.038,0,0,1,.847-1.816,3.478,3.478,0,0,1,1.889-.511,3.843,3.843,0,0,1,2.024.475,1.61,1.61,0,0,1,.771,1.477v4.067a.521.521,0,0,0,.076.3.366.366,0,0,0,.32.112q.079,0,.178-.01t.211-.03V.033a3.3,3.3,0,0,1-.422.1,3.083,3.083,0,0,1-.4.02.976.976,0,0,1-.89-.435,1.679,1.679,0,0,1-.2-.653,3.019,3.019,0,0,1-1.042.824,3.222,3.222,0,0,1-1.5.349,2.225,2.225,0,0,1-1.605-.6,1.982,1.982,0,0,1-.623-1.493,1.923,1.923,0,0,1,.613-1.523,2.917,2.917,0,0,1,1.608-.666Zm3.63-2.782h1.173v1a3.944,3.944,0,0,1,.765-.758,2.3,2.3,0,0,1,1.332-.4,2.1,2.1,0,0,1,1.358.415,2.171,2.171,0,0,1,.527.7,2.565,2.565,0,0,1,.929-.84,2.593,2.593,0,0,1,1.2-.274,1.962,1.962,0,0,1,1.938,1.028,3.361,3.361,0,0,1,.277,1.49V0H128.53V-4.9a1.142,1.142,0,0,0-.353-.969,1.4,1.4,0,0,0-.86-.264,1.708,1.708,0,0,0-1.2.468,2.055,2.055,0,0,0-.5,1.562V0H124.4V-4.608a2.394,2.394,0,0,0-.171-1.048,1.045,1.045,0,0,0-1.009-.494A1.74,1.74,0,0,0,122-5.629a2.552,2.552,0,0,0-.55,1.885V0h-1.187Z" transform="translate(351.994 110.611)"/>
  <line id="선_1069" data-name="선 1069" class="cls-2" y1="21.708" transform="translate(564.949 151.47)"/>
  <line id="선_1070" data-name="선 1070" class="cls-2" y1="22.708" transform="translate(269.289 151.47)"/>
  <path id="패스_28218" data-name="패스 28218" class="cls-4" d="M1.022-9.325H2.3v3.853h4.85V-9.325H8.423V0H7.147V-4.361H2.3V0H1.022ZM12.94-6.951a3.1,3.1,0,0,1,1.4.34,2.587,2.587,0,0,1,1.035.879,3.033,3.033,0,0,1,.457,1.2,7.849,7.849,0,0,1,.1,1.5H10.953a2.908,2.908,0,0,0,.489,1.66,1.637,1.637,0,0,0,1.416.625,1.83,1.83,0,0,0,1.428-.59,1.99,1.99,0,0,0,.432-.793h1.124a2.366,2.366,0,0,1-.3.835,2.969,2.969,0,0,1-.562.752A2.663,2.663,0,0,1,13.7.14a3.914,3.914,0,0,1-.933.1,2.863,2.863,0,0,1-2.152-.924,3.594,3.594,0,0,1-.882-2.587,3.907,3.907,0,0,1,.889-2.66A2.932,2.932,0,0,1,12.94-6.951Zm1.822,3.009a2.96,2.96,0,0,0-.324-1.187,1.659,1.659,0,0,0-1.568-.825,1.738,1.738,0,0,0-1.32.568,2.146,2.146,0,0,0-.565,1.444Zm3.245,2.133a.941.941,0,0,0,.362.781,1.341,1.341,0,0,0,.857.286,2.605,2.605,0,0,0,1.168-.279,1.572,1.572,0,0,0,.952-1.517v-.92a1.955,1.955,0,0,1-.54.222,4.6,4.6,0,0,1-.647.127l-.692.089a2.646,2.646,0,0,0-.933.26A1.014,1.014,0,0,0,18.007-1.809ZM20.775-4.12a.621.621,0,0,0,.527-.33,1,1,0,0,0,.076-.438.928.928,0,0,0-.416-.847A2.231,2.231,0,0,0,19.772-6a1.512,1.512,0,0,0-1.27.482,1.587,1.587,0,0,0-.273.793H17.163a1.963,1.963,0,0,1,.816-1.749A3.349,3.349,0,0,1,19.8-6.963a3.7,3.7,0,0,1,1.949.457,1.551,1.551,0,0,1,.743,1.422v3.917a.5.5,0,0,0,.073.286.352.352,0,0,0,.308.108q.076,0,.171-.01t.2-.029V.032a3.182,3.182,0,0,1-.406.1,2.969,2.969,0,0,1-.381.019A.94.94,0,0,1,21.6-.273,1.617,1.617,0,0,1,21.4-.9a2.907,2.907,0,0,1-1,.793,3.1,3.1,0,0,1-1.441.336,2.143,2.143,0,0,1-1.546-.574,1.908,1.908,0,0,1-.6-1.438A1.852,1.852,0,0,1,17.4-3.25a2.809,2.809,0,0,1,1.549-.641Zm4.258.8A3.37,3.37,0,0,0,25.5-1.492a1.624,1.624,0,0,0,1.485.736,1.564,1.564,0,0,0,1.3-.682A3.223,3.223,0,0,0,28.8-3.4,2.9,2.9,0,0,0,28.27-5.3a1.643,1.643,0,0,0-1.3-.619,1.718,1.718,0,0,0-1.4.66A3.024,3.024,0,0,0,25.033-3.32Zm1.72-3.6a2.419,2.419,0,0,1,1.308.33,3.072,3.072,0,0,1,.692.667V-9.356h1.1V0H28.822V-.946a2.472,2.472,0,0,1-.946.908,2.707,2.707,0,0,1-1.25.279,2.532,2.532,0,0,1-1.968-.955,3.735,3.735,0,0,1-.832-2.542,4.388,4.388,0,0,1,.759-2.574A2.483,2.483,0,0,1,26.753-6.919Zm5.405,3.612a3.872,3.872,0,0,0,.248,1.479,1.573,1.573,0,0,0,1.568,1.06,1.64,1.64,0,0,0,1.644-1.117,4.264,4.264,0,0,0,.248-1.574,3.507,3.507,0,0,0-.273-1.473,1.65,1.65,0,0,0-1.631-1.009,1.6,1.6,0,0,0-1.273.644A3.1,3.1,0,0,0,32.158-3.307Zm1.688-3.644a2.332,2.332,0,0,1,1.422.425,2.522,2.522,0,0,1,.609.673V-6.8h1.085V2.71H35.815V-.781a2.05,2.05,0,0,1-.79.727,2.651,2.651,0,0,1-1.26.27,2.688,2.688,0,0,1-1.942-.851,3.507,3.507,0,0,1-.857-2.59,4.277,4.277,0,0,1,.8-2.679A2.5,2.5,0,0,1,33.847-6.951Zm5.74.152v4.513a1.9,1.9,0,0,0,.165.851,1.152,1.152,0,0,0,1.136.609,1.606,1.606,0,0,0,1.625-1.066,4.231,4.231,0,0,0,.235-1.568V-6.8H43.89V0H42.811l.013-1a2.3,2.3,0,0,1-.552.654,2.43,2.43,0,0,1-1.587.533A2.047,2.047,0,0,1,38.7-.787a2.892,2.892,0,0,1-.286-1.39V-6.8Zm6.69,4.989a.941.941,0,0,0,.362.781,1.341,1.341,0,0,0,.857.286,2.605,2.605,0,0,0,1.168-.279,1.572,1.572,0,0,0,.952-1.517v-.92a1.955,1.955,0,0,1-.54.222,4.6,4.6,0,0,1-.647.127l-.692.089a2.646,2.646,0,0,0-.933.26A1.014,1.014,0,0,0,46.277-1.809ZM49.045-4.12a.621.621,0,0,0,.527-.33,1,1,0,0,0,.076-.438.928.928,0,0,0-.416-.847A2.231,2.231,0,0,0,48.042-6a1.512,1.512,0,0,0-1.27.482,1.587,1.587,0,0,0-.273.793H45.433a1.963,1.963,0,0,1,.816-1.749,3.349,3.349,0,0,1,1.819-.492,3.7,3.7,0,0,1,1.949.457,1.551,1.551,0,0,1,.743,1.422v3.917a.5.5,0,0,0,.073.286.352.352,0,0,0,.308.108q.076,0,.171-.01t.2-.029V.032a3.182,3.182,0,0,1-.406.1,2.969,2.969,0,0,1-.381.019.94.94,0,0,1-.857-.419,1.617,1.617,0,0,1-.2-.628,2.907,2.907,0,0,1-1,.793,3.1,3.1,0,0,1-1.441.336,2.143,2.143,0,0,1-1.546-.574,1.908,1.908,0,0,1-.6-1.438,1.852,1.852,0,0,1,.59-1.466,2.809,2.809,0,0,1,1.549-.641ZM52.481-6.8h1.085v1.174a2.6,2.6,0,0,1,.654-.835,1.7,1.7,0,0,1,1.2-.492q.032,0,.108.006l.26.025v1.206a1.707,1.707,0,0,0-.187-.025q-.086-.006-.187-.006a1.63,1.63,0,0,0-1.327.555,1.939,1.939,0,0,0-.463,1.279V0H52.481ZM57.54-8.7h1.155v1.9H59.78v.933H58.695v4.437a.48.48,0,0,0,.241.476,1.025,1.025,0,0,0,.444.07l.178,0q.1,0,.222-.016V0a2.551,2.551,0,0,1-.409.083,3.893,3.893,0,0,1-.46.025A1.24,1.24,0,0,1,57.825-.3a1.819,1.819,0,0,1-.286-1.063v-4.5h-.92V-6.8h.92Zm5.98,1.746a3.1,3.1,0,0,1,1.4.34,2.587,2.587,0,0,1,1.035.879,3.033,3.033,0,0,1,.457,1.2,7.849,7.849,0,0,1,.1,1.5H61.533a2.908,2.908,0,0,0,.489,1.66,1.637,1.637,0,0,0,1.416.625,1.83,1.83,0,0,0,1.428-.59,1.99,1.99,0,0,0,.432-.793h1.124a2.366,2.366,0,0,1-.3.835,2.969,2.969,0,0,1-.562.752A2.663,2.663,0,0,1,64.275.14a3.914,3.914,0,0,1-.933.1A2.863,2.863,0,0,1,61.19-.682a3.594,3.594,0,0,1-.882-2.587,3.907,3.907,0,0,1,.889-2.66A2.932,2.932,0,0,1,63.52-6.951Zm1.822,3.009a2.96,2.96,0,0,0-.324-1.187,1.659,1.659,0,0,0-1.568-.825,1.738,1.738,0,0,0-1.32.568,2.146,2.146,0,0,0-.565,1.444ZM67.886-6.8h1.085v1.174a2.594,2.594,0,0,1,.654-.835,1.7,1.7,0,0,1,1.2-.492q.032,0,.108.006l.26.025v1.206a1.707,1.707,0,0,0-.187-.025q-.086-.006-.187-.006a1.63,1.63,0,0,0-1.327.555,1.939,1.939,0,0,0-.463,1.279V0H67.886Z" transform="translate(232.389 209.898)"/>
  <path id="패스_28212" data-name="패스 28212" class="cls-4" d="M1.111-9.325H7.579v1.143H2.374v2.831H6.951V-4.24H2.374V0H1.111ZM9-1.809a.941.941,0,0,0,.362.781,1.341,1.341,0,0,0,.857.286,2.605,2.605,0,0,0,1.168-.279,1.572,1.572,0,0,0,.952-1.517v-.92a1.955,1.955,0,0,1-.54.222,4.6,4.6,0,0,1-.647.127l-.692.089a2.646,2.646,0,0,0-.933.26A1.014,1.014,0,0,0,9-1.809ZM11.772-4.12a.621.621,0,0,0,.527-.33,1,1,0,0,0,.076-.438.928.928,0,0,0-.416-.847A2.231,2.231,0,0,0,10.769-6a1.512,1.512,0,0,0-1.27.482,1.587,1.587,0,0,0-.273.793H8.161a1.963,1.963,0,0,1,.816-1.749,3.349,3.349,0,0,1,1.819-.492,3.7,3.7,0,0,1,1.949.457,1.551,1.551,0,0,1,.743,1.422v3.917a.5.5,0,0,0,.073.286.352.352,0,0,0,.308.108q.076,0,.171-.01t.2-.029V.032a3.182,3.182,0,0,1-.406.1,2.969,2.969,0,0,1-.381.019A.94.94,0,0,1,12.6-.273,1.617,1.617,0,0,1,12.4-.9a2.907,2.907,0,0,1-1,.793A3.1,3.1,0,0,1,9.957.229,2.143,2.143,0,0,1,8.411-.346a1.908,1.908,0,0,1-.6-1.438A1.852,1.852,0,0,1,8.4-3.25a2.809,2.809,0,0,1,1.549-.641ZM17.915-7a2.964,2.964,0,0,1,1.869.559,2.676,2.676,0,0,1,.866,1.923H19.54a2.051,2.051,0,0,0-.463-1.044,1.464,1.464,0,0,0-1.162-.416,1.605,1.605,0,0,0-1.562,1.066,4.236,4.236,0,0,0-.3,1.708,3.213,3.213,0,0,0,.432,1.72,1.481,1.481,0,0,0,1.358.7,1.485,1.485,0,0,0,1.127-.435,2.391,2.391,0,0,0,.574-1.19h1.111A2.982,2.982,0,0,1,19.7-.428,2.971,2.971,0,0,1,17.75.2a2.6,2.6,0,0,1-2.126-.974,3.729,3.729,0,0,1-.793-2.434A4.1,4.1,0,0,1,15.7-6,2.81,2.81,0,0,1,17.915-7Zm4.367-1.7h1.155v1.9h1.085v.933H23.438v4.437a.48.48,0,0,0,.241.476,1.025,1.025,0,0,0,.444.07l.178,0q.1,0,.222-.016V0a2.551,2.551,0,0,1-.409.083,3.893,3.893,0,0,1-.46.025A1.24,1.24,0,0,1,22.568-.3a1.819,1.819,0,0,1-.286-1.063v-4.5h-.92V-6.8h.92Zm5.86,7.96A1.576,1.576,0,0,0,29.7-1.6a4.285,4.285,0,0,0,.422-1.914,3.408,3.408,0,0,0-.3-1.549A1.714,1.714,0,0,0,28.155-6a1.64,1.64,0,0,0-1.523.8,3.707,3.707,0,0,0-.476,1.93,3.225,3.225,0,0,0,.476,1.809A1.677,1.677,0,0,0,28.142-.736ZM28.187-7a3.078,3.078,0,0,1,2.222.876,3.421,3.421,0,0,1,.908,2.577,4.422,4.422,0,0,1-.8,2.717A2.893,2.893,0,0,1,28.034.248,2.8,2.8,0,0,1,25.806-.7a3.748,3.748,0,0,1-.825-2.549,4.055,4.055,0,0,1,.87-2.729A2.919,2.919,0,0,1,28.187-7Zm4.377.2h1.085v1.174a2.6,2.6,0,0,1,.654-.835,1.7,1.7,0,0,1,1.2-.492q.032,0,.108.006l.26.025v1.206a1.707,1.707,0,0,0-.187-.025q-.086-.006-.187-.006a1.63,1.63,0,0,0-1.327.555,1.939,1.939,0,0,0-.463,1.279V0H32.563Zm9.194,0H43.02q-.241.654-1.073,2.983-.622,1.752-1.041,2.856a19.311,19.311,0,0,1-1.4,3.174,1.6,1.6,0,0,1-1.4.571,2.74,2.74,0,0,1-.371-.019,2.933,2.933,0,0,1-.321-.07V1.657a3.942,3.942,0,0,0,.432.1,1.685,1.685,0,0,0,.235.019.822.822,0,0,0,.467-.1.966.966,0,0,0,.251-.257q.032-.051.229-.521T39.32.2l-2.514-7H38.1l1.822,5.535Z" transform="translate(542.686 192.895)"/>
  <path id="패스_28213" data-name="패스 28213" class="cls-4" d="M.958-9.325H2.768L5.446-1.441l2.66-7.884H9.9V0H8.7V-5.5q0-.286.013-.946t.013-1.416L6.062,0H4.812L2.133-7.865v.286q0,.343.016,1.044T2.165-5.5V0H.958ZM12.3-1.809a.941.941,0,0,0,.362.781,1.341,1.341,0,0,0,.857.286,2.605,2.605,0,0,0,1.168-.279,1.572,1.572,0,0,0,.952-1.517v-.92a1.955,1.955,0,0,1-.54.222,4.6,4.6,0,0,1-.647.127l-.692.089a2.646,2.646,0,0,0-.933.26A1.014,1.014,0,0,0,12.3-1.809ZM15.064-4.12a.621.621,0,0,0,.527-.33,1,1,0,0,0,.076-.438.928.928,0,0,0-.416-.847A2.231,2.231,0,0,0,14.061-6a1.512,1.512,0,0,0-1.27.482,1.587,1.587,0,0,0-.273.793H11.452a1.963,1.963,0,0,1,.816-1.749,3.349,3.349,0,0,1,1.819-.492,3.7,3.7,0,0,1,1.949.457,1.551,1.551,0,0,1,.743,1.422v3.917a.5.5,0,0,0,.073.286.352.352,0,0,0,.308.108q.076,0,.171-.01t.2-.029V.032a3.182,3.182,0,0,1-.406.1,2.969,2.969,0,0,1-.381.019.94.94,0,0,1-.857-.419,1.617,1.617,0,0,1-.2-.628,2.907,2.907,0,0,1-1,.793,3.1,3.1,0,0,1-1.441.336A2.143,2.143,0,0,1,11.7-.346a1.908,1.908,0,0,1-.6-1.438,1.852,1.852,0,0,1,.59-1.466,2.809,2.809,0,0,1,1.549-.641Zm3.4-2.679h1.085v.965a3.044,3.044,0,0,1,1.022-.857,2.725,2.725,0,0,1,1.2-.26A1.978,1.978,0,0,1,23.73-5.941a3.584,3.584,0,0,1,.279,1.581V0H22.848V-4.285a2.32,2.32,0,0,0-.184-1,1.116,1.116,0,0,0-1.1-.635,2.249,2.249,0,0,0-.667.083,1.716,1.716,0,0,0-.825.559,1.682,1.682,0,0,0-.371.7,4.679,4.679,0,0,0-.086,1.025V0H18.468Zm7.859,4.989a.941.941,0,0,0,.362.781,1.341,1.341,0,0,0,.857.286,2.605,2.605,0,0,0,1.168-.279,1.572,1.572,0,0,0,.952-1.517v-.92a1.955,1.955,0,0,1-.54.222,4.6,4.6,0,0,1-.647.127l-.692.089a2.646,2.646,0,0,0-.933.26A1.014,1.014,0,0,0,26.327-1.809ZM29.095-4.12a.621.621,0,0,0,.527-.33,1,1,0,0,0,.076-.438.928.928,0,0,0-.416-.847A2.231,2.231,0,0,0,28.092-6a1.512,1.512,0,0,0-1.27.482,1.587,1.587,0,0,0-.273.793H25.483A1.963,1.963,0,0,1,26.3-6.471a3.349,3.349,0,0,1,1.819-.492,3.7,3.7,0,0,1,1.949.457,1.551,1.551,0,0,1,.743,1.422v3.917a.5.5,0,0,0,.073.286.352.352,0,0,0,.308.108q.076,0,.171-.01t.2-.029V.032a3.182,3.182,0,0,1-.406.1,2.969,2.969,0,0,1-.381.019.94.94,0,0,1-.857-.419,1.617,1.617,0,0,1-.2-.628,2.907,2.907,0,0,1-1,.793,3.1,3.1,0,0,1-1.441.336,2.143,2.143,0,0,1-1.546-.574,1.908,1.908,0,0,1-.6-1.438,1.852,1.852,0,0,1,.59-1.466,2.809,2.809,0,0,1,1.549-.641Zm5.8-2.8a2.478,2.478,0,0,1,1.4.394,3.137,3.137,0,0,1,.66.647v-.857h1.054V-.552a4.559,4.559,0,0,1-.381,2.044,2.735,2.735,0,0,1-2.685,1.384A3.294,3.294,0,0,1,33.1,2.384,1.918,1.918,0,0,1,32.258.844h1.162a1.293,1.293,0,0,0,.33.7,1.683,1.683,0,0,0,1.219.381A1.677,1.677,0,0,0,36.688,1a5.219,5.219,0,0,0,.222-1.949,2.242,2.242,0,0,1-.825.774,2.745,2.745,0,0,1-1.276.254A2.724,2.724,0,0,1,32.877-.7a3.448,3.448,0,0,1-.828-2.593,3.927,3.927,0,0,1,.835-2.666A2.581,2.581,0,0,1,34.9-6.919Zm2.057,3.491A2.834,2.834,0,0,0,36.434-5.3a1.668,1.668,0,0,0-1.327-.609,1.638,1.638,0,0,0-1.65,1.13A4.43,4.43,0,0,0,33.223-3.2a2.806,2.806,0,0,0,.467,1.749,1.506,1.506,0,0,0,1.254.6,1.76,1.76,0,0,0,1.733-1.111A3.583,3.583,0,0,0,36.955-3.428Zm5.4-3.523a3.1,3.1,0,0,1,1.4.34,2.587,2.587,0,0,1,1.035.879,3.033,3.033,0,0,1,.457,1.2,7.849,7.849,0,0,1,.1,1.5H40.365a2.908,2.908,0,0,0,.489,1.66,1.637,1.637,0,0,0,1.416.625,1.83,1.83,0,0,0,1.428-.59,1.99,1.99,0,0,0,.432-.793h1.124a2.366,2.366,0,0,1-.3.835,2.969,2.969,0,0,1-.562.752A2.663,2.663,0,0,1,43.107.14a3.914,3.914,0,0,1-.933.1,2.863,2.863,0,0,1-2.152-.924,3.594,3.594,0,0,1-.882-2.587,3.907,3.907,0,0,1,.889-2.66A2.932,2.932,0,0,1,42.352-6.951Zm1.822,3.009a2.96,2.96,0,0,0-.324-1.187,1.659,1.659,0,0,0-1.568-.825,1.738,1.738,0,0,0-1.32.568A2.146,2.146,0,0,0,40.4-3.942ZM46.686-6.8h1.13v.965a3.8,3.8,0,0,1,.736-.73,2.214,2.214,0,0,1,1.282-.387,2.018,2.018,0,0,1,1.308.4,2.09,2.09,0,0,1,.508.673,2.47,2.47,0,0,1,.9-.809A2.5,2.5,0,0,1,53.7-6.951a1.889,1.889,0,0,1,1.866.99,3.237,3.237,0,0,1,.267,1.435V0H54.646V-4.723a1.1,1.1,0,0,0-.34-.933,1.344,1.344,0,0,0-.828-.254,1.644,1.644,0,0,0-1.158.451,1.979,1.979,0,0,0-.486,1.5V0H50.672V-4.437a2.305,2.305,0,0,0-.165-1.009,1.006,1.006,0,0,0-.971-.476,1.676,1.676,0,0,0-1.177.5,2.458,2.458,0,0,0-.53,1.815V0H46.686Zm13.569-.152a3.1,3.1,0,0,1,1.4.34,2.587,2.587,0,0,1,1.035.879,3.033,3.033,0,0,1,.457,1.2,7.849,7.849,0,0,1,.1,1.5H58.268a2.908,2.908,0,0,0,.489,1.66,1.637,1.637,0,0,0,1.416.625,1.83,1.83,0,0,0,1.428-.59,1.99,1.99,0,0,0,.432-.793h1.124a2.366,2.366,0,0,1-.3.835,2.969,2.969,0,0,1-.562.752A2.663,2.663,0,0,1,61.01.14a3.914,3.914,0,0,1-.933.1,2.863,2.863,0,0,1-2.152-.924,3.594,3.594,0,0,1-.882-2.587,3.907,3.907,0,0,1,.889-2.66A2.932,2.932,0,0,1,60.255-6.951Zm1.822,3.009a2.96,2.96,0,0,0-.324-1.187,1.659,1.659,0,0,0-1.568-.825,1.738,1.738,0,0,0-1.32.568A2.146,2.146,0,0,0,58.3-3.942ZM64.589-6.8h1.085v.965A3.044,3.044,0,0,1,66.7-6.69a2.725,2.725,0,0,1,1.2-.26,1.978,1.978,0,0,1,1.955,1.009,3.584,3.584,0,0,1,.279,1.581V0H68.969V-4.285a2.32,2.32,0,0,0-.184-1,1.116,1.116,0,0,0-1.1-.635,2.249,2.249,0,0,0-.667.083,1.716,1.716,0,0,0-.825.559,1.682,1.682,0,0,0-.371.7,4.679,4.679,0,0,0-.086,1.025V0H64.589Zm7.25-1.9h1.155v1.9H74.08v.933H72.995v4.437a.48.48,0,0,0,.241.476,1.025,1.025,0,0,0,.444.07l.178,0q.1,0,.222-.016V0a2.551,2.551,0,0,1-.409.083,3.892,3.892,0,0,1-.46.025A1.24,1.24,0,0,1,72.125-.3a1.819,1.819,0,0,1-.286-1.063v-4.5h-.92V-6.8h.92ZM85.3-9.325v1.111H82.155V0H80.873V-8.214H77.731V-9.325Zm1.158,2.374a3.1,3.1,0,0,1,1.4.34,2.587,2.587,0,0,1,1.035.879,3.033,3.033,0,0,1,.457,1.2,7.849,7.849,0,0,1,.1,1.5H84.468a2.908,2.908,0,0,0,.489,1.66,1.637,1.637,0,0,0,1.416.625,1.83,1.83,0,0,0,1.428-.59,1.99,1.99,0,0,0,.432-.793h1.124a2.366,2.366,0,0,1-.3.835,2.969,2.969,0,0,1-.562.752A2.663,2.663,0,0,1,87.211.14a3.914,3.914,0,0,1-.933.1,2.863,2.863,0,0,1-2.152-.924,3.594,3.594,0,0,1-.882-2.587,3.907,3.907,0,0,1,.889-2.66A2.932,2.932,0,0,1,86.455-6.951Zm1.822,3.009a2.96,2.96,0,0,0-.324-1.187,1.659,1.659,0,0,0-1.568-.825,1.738,1.738,0,0,0-1.32.568A2.146,2.146,0,0,0,84.5-3.942Zm3.245,2.133a.941.941,0,0,0,.362.781,1.341,1.341,0,0,0,.857.286,2.605,2.605,0,0,0,1.168-.279,1.572,1.572,0,0,0,.952-1.517v-.92a1.955,1.955,0,0,1-.54.222,4.6,4.6,0,0,1-.647.127l-.692.089a2.646,2.646,0,0,0-.933.26A1.014,1.014,0,0,0,91.522-1.809ZM94.29-4.12a.621.621,0,0,0,.527-.33,1,1,0,0,0,.076-.438.928.928,0,0,0-.416-.847A2.231,2.231,0,0,0,93.287-6a1.512,1.512,0,0,0-1.27.482,1.587,1.587,0,0,0-.273.793H90.678a1.963,1.963,0,0,1,.816-1.749,3.349,3.349,0,0,1,1.819-.492,3.7,3.7,0,0,1,1.949.457A1.551,1.551,0,0,1,96-5.084v3.917a.5.5,0,0,0,.073.286.352.352,0,0,0,.308.108q.076,0,.171-.01t.2-.029V.032a3.182,3.182,0,0,1-.406.1,2.969,2.969,0,0,1-.381.019.94.94,0,0,1-.857-.419,1.617,1.617,0,0,1-.2-.628,2.907,2.907,0,0,1-1,.793,3.1,3.1,0,0,1-1.441.336,2.143,2.143,0,0,1-1.546-.574,1.908,1.908,0,0,1-.6-1.438,1.852,1.852,0,0,1,.59-1.466,2.809,2.809,0,0,1,1.549-.641Zm3.4-2.679h1.13v.965a3.8,3.8,0,0,1,.736-.73,2.214,2.214,0,0,1,1.282-.387,2.018,2.018,0,0,1,1.308.4,2.09,2.09,0,0,1,.508.673,2.47,2.47,0,0,1,.9-.809,2.5,2.5,0,0,1,1.155-.263,1.889,1.889,0,0,1,1.866.99,3.237,3.237,0,0,1,.267,1.435V0h-1.187V-4.723a1.1,1.1,0,0,0-.34-.933,1.344,1.344,0,0,0-.828-.254,1.644,1.644,0,0,0-1.158.451,1.979,1.979,0,0,0-.486,1.5V0H101.68V-4.437a2.305,2.305,0,0,0-.165-1.009,1.006,1.006,0,0,0-.971-.476,1.676,1.676,0,0,0-1.177.5,2.458,2.458,0,0,0-.53,1.815V0H97.694Z" transform="translate(509.081 209.898)"/>
  <path id="패스_28214" data-name="패스 28214" class="cls-4" d="M1.714-1.809a.941.941,0,0,0,.362.781,1.341,1.341,0,0,0,.857.286A2.605,2.605,0,0,0,4.1-1.022a1.572,1.572,0,0,0,.952-1.517v-.92a1.955,1.955,0,0,1-.54.222,4.6,4.6,0,0,1-.647.127l-.692.089a2.646,2.646,0,0,0-.933.26A1.014,1.014,0,0,0,1.714-1.809ZM4.481-4.12a.621.621,0,0,0,.527-.33,1,1,0,0,0,.076-.438.928.928,0,0,0-.416-.847A2.231,2.231,0,0,0,3.479-6a1.512,1.512,0,0,0-1.27.482,1.587,1.587,0,0,0-.273.793H.87a1.963,1.963,0,0,1,.816-1.749A3.349,3.349,0,0,1,3.5-6.963a3.7,3.7,0,0,1,1.949.457A1.551,1.551,0,0,1,6.2-5.084v3.917a.5.5,0,0,0,.073.286.352.352,0,0,0,.308.108q.076,0,.171-.01t.2-.029V.032a3.182,3.182,0,0,1-.406.1,2.969,2.969,0,0,1-.381.019.94.94,0,0,1-.857-.419A1.617,1.617,0,0,1,5.11-.9a2.907,2.907,0,0,1-1,.793A3.1,3.1,0,0,1,2.666.229,2.143,2.143,0,0,1,1.12-.346a1.908,1.908,0,0,1-.6-1.438,1.852,1.852,0,0,1,.59-1.466A2.809,2.809,0,0,1,2.66-3.891ZM8.1-8.7H9.257v1.9h1.085v.933H9.257v4.437A.48.48,0,0,0,9.5-.952a1.025,1.025,0,0,0,.444.07l.178,0q.1,0,.222-.016V0a2.551,2.551,0,0,1-.409.083,3.893,3.893,0,0,1-.46.025A1.24,1.24,0,0,1,8.387-.3,1.819,1.819,0,0,1,8.1-1.365v-4.5h-.92V-6.8H8.1Zm7.433-.628H16.81V0H15.534ZM18.448-6.8h1.085v.965a3.044,3.044,0,0,1,1.022-.857,2.725,2.725,0,0,1,1.2-.26,1.978,1.978,0,0,1,1.955,1.009,3.584,3.584,0,0,1,.279,1.581V0H22.828V-4.285a2.32,2.32,0,0,0-.184-1,1.116,1.116,0,0,0-1.1-.635,2.249,2.249,0,0,0-.667.083,1.716,1.716,0,0,0-.825.559,1.682,1.682,0,0,0-.371.7,4.679,4.679,0,0,0-.086,1.025V0H18.448ZM28.222-7a2.964,2.964,0,0,1,1.869.559,2.676,2.676,0,0,1,.866,1.923H29.847a2.051,2.051,0,0,0-.463-1.044,1.464,1.464,0,0,0-1.162-.416A1.605,1.605,0,0,0,26.66-4.907a4.236,4.236,0,0,0-.3,1.708,3.213,3.213,0,0,0,.432,1.72,1.481,1.481,0,0,0,1.358.7,1.485,1.485,0,0,0,1.127-.435,2.391,2.391,0,0,0,.574-1.19h1.111a2.982,2.982,0,0,1-.952,1.977A2.971,2.971,0,0,1,28.057.2,2.6,2.6,0,0,1,25.93-.778a3.729,3.729,0,0,1-.793-2.434A4.1,4.1,0,0,1,26.007-6,2.81,2.81,0,0,1,28.222-7Zm3.761-2.361h1.143v3.479a3.3,3.3,0,0,1,.73-.724,2.463,2.463,0,0,1,1.377-.362,2.037,2.037,0,0,1,2.006,1.035,3.528,3.528,0,0,1,.286,1.568V0H36.35V-4.285a2.4,2.4,0,0,0-.19-1.1,1.217,1.217,0,0,0-1.168-.559,1.946,1.946,0,0,0-1.289.489,2.35,2.35,0,0,0-.578,1.847V0H31.983Zm9.983,2.406a3.1,3.1,0,0,1,1.4.34,2.587,2.587,0,0,1,1.035.879,3.033,3.033,0,0,1,.457,1.2,7.849,7.849,0,0,1,.1,1.5H39.98a2.908,2.908,0,0,0,.489,1.66,1.637,1.637,0,0,0,1.416.625,1.83,1.83,0,0,0,1.428-.59,1.99,1.99,0,0,0,.432-.793h1.124a2.366,2.366,0,0,1-.3.835,2.969,2.969,0,0,1-.562.752A2.663,2.663,0,0,1,42.722.14a3.914,3.914,0,0,1-.933.1,2.863,2.863,0,0,1-2.152-.924,3.594,3.594,0,0,1-.882-2.587,3.907,3.907,0,0,1,.889-2.66A2.932,2.932,0,0,1,41.966-6.951Zm1.822,3.009a2.96,2.96,0,0,0-.324-1.187A1.659,1.659,0,0,0,41.9-5.954a1.738,1.738,0,0,0-1.32.568,2.146,2.146,0,0,0-.565,1.444ZM49.141-.736A1.576,1.576,0,0,0,50.7-1.6a4.285,4.285,0,0,0,.422-1.914,3.408,3.408,0,0,0-.3-1.549A1.714,1.714,0,0,0,49.154-6a1.64,1.64,0,0,0-1.523.8,3.707,3.707,0,0,0-.476,1.93A3.225,3.225,0,0,0,47.63-1.46,1.677,1.677,0,0,0,49.141-.736ZM49.185-7a3.078,3.078,0,0,1,2.222.876,3.421,3.421,0,0,1,.908,2.577,4.422,4.422,0,0,1-.8,2.717A2.893,2.893,0,0,1,49.033.248,2.8,2.8,0,0,1,46.805-.7,3.748,3.748,0,0,1,45.98-3.25a4.055,4.055,0,0,1,.87-2.729A2.919,2.919,0,0,1,49.185-7Zm4.345.2h1.085v.965a3.044,3.044,0,0,1,1.022-.857,2.725,2.725,0,0,1,1.2-.26,1.978,1.978,0,0,1,1.955,1.009,3.584,3.584,0,0,1,.279,1.581V0H57.91V-4.285a2.32,2.32,0,0,0-.184-1,1.116,1.116,0,0,0-1.1-.635,2.249,2.249,0,0,0-.667.083,1.716,1.716,0,0,0-.825.559,1.682,1.682,0,0,0-.371.7,4.679,4.679,0,0,0-.086,1.025V0H53.53ZM64.645-9.325h6.468v1.143H65.908v2.831h4.577V-4.24H65.908V0H64.645Zm7.894,7.516a.941.941,0,0,0,.362.781,1.341,1.341,0,0,0,.857.286,2.605,2.605,0,0,0,1.168-.279,1.572,1.572,0,0,0,.952-1.517v-.92a1.955,1.955,0,0,1-.54.222,4.6,4.6,0,0,1-.647.127L74-3.021a2.646,2.646,0,0,0-.933.26A1.014,1.014,0,0,0,72.539-1.809ZM75.307-4.12a.621.621,0,0,0,.527-.33,1,1,0,0,0,.076-.438.928.928,0,0,0-.416-.847A2.231,2.231,0,0,0,74.3-6a1.512,1.512,0,0,0-1.27.482,1.587,1.587,0,0,0-.273.793H71.695a1.963,1.963,0,0,1,.816-1.749,3.349,3.349,0,0,1,1.819-.492,3.7,3.7,0,0,1,1.949.457,1.551,1.551,0,0,1,.743,1.422v3.917a.5.5,0,0,0,.073.286.352.352,0,0,0,.308.108q.076,0,.171-.01t.2-.029V.032a3.182,3.182,0,0,1-.406.1,2.969,2.969,0,0,1-.381.019.94.94,0,0,1-.857-.419,1.617,1.617,0,0,1-.2-.628,2.907,2.907,0,0,1-1,.793,3.1,3.1,0,0,1-1.441.336,2.143,2.143,0,0,1-1.546-.574,1.908,1.908,0,0,1-.6-1.438,1.852,1.852,0,0,1,.59-1.466,2.809,2.809,0,0,1,1.549-.641ZM81.45-7a2.964,2.964,0,0,1,1.869.559,2.676,2.676,0,0,1,.866,1.923H83.075a2.051,2.051,0,0,0-.463-1.044,1.464,1.464,0,0,0-1.162-.416,1.605,1.605,0,0,0-1.562,1.066,4.236,4.236,0,0,0-.3,1.708,3.213,3.213,0,0,0,.432,1.72,1.481,1.481,0,0,0,1.358.7A1.485,1.485,0,0,0,82.5-1.216a2.391,2.391,0,0,0,.574-1.19h1.111a2.982,2.982,0,0,1-.952,1.977A2.971,2.971,0,0,1,81.284.2a2.6,2.6,0,0,1-2.126-.974,3.729,3.729,0,0,1-.793-2.434A4.1,4.1,0,0,1,79.234-6,2.81,2.81,0,0,1,81.45-7Zm4.367-1.7h1.155v1.9h1.085v.933H86.972v4.437a.48.48,0,0,0,.241.476,1.025,1.025,0,0,0,.444.07l.178,0q.1,0,.222-.016V0a2.551,2.551,0,0,1-.409.083,3.892,3.892,0,0,1-.46.025A1.24,1.24,0,0,1,86.1-.3a1.819,1.819,0,0,1-.286-1.063v-4.5H84.9V-6.8h.92Zm5.86,7.96a1.576,1.576,0,0,0,1.558-.86,4.285,4.285,0,0,0,.422-1.914,3.408,3.408,0,0,0-.3-1.549A1.714,1.714,0,0,0,91.689-6a1.64,1.64,0,0,0-1.523.8,3.707,3.707,0,0,0-.476,1.93,3.225,3.225,0,0,0,.476,1.809A1.677,1.677,0,0,0,91.677-.736ZM91.721-7a3.078,3.078,0,0,1,2.222.876,3.421,3.421,0,0,1,.908,2.577,4.422,4.422,0,0,1-.8,2.717A2.893,2.893,0,0,1,91.569.248,2.8,2.8,0,0,1,89.341-.7a3.748,3.748,0,0,1-.825-2.549,4.055,4.055,0,0,1,.87-2.729A2.919,2.919,0,0,1,91.721-7Zm4.377.2h1.085v1.174a2.594,2.594,0,0,1,.654-.835,1.7,1.7,0,0,1,1.2-.492q.032,0,.108.006l.26.025v1.206a1.707,1.707,0,0,0-.187-.025q-.086-.006-.187-.006a1.63,1.63,0,0,0-1.327.555A1.939,1.939,0,0,0,97.24-3.91V0H96.1Zm9.194,0h1.263q-.241.654-1.073,2.983-.622,1.752-1.041,2.856a19.311,19.311,0,0,1-1.4,3.174,1.6,1.6,0,0,1-1.4.571,2.74,2.74,0,0,1-.371-.019,2.933,2.933,0,0,1-.321-.07V1.657a3.942,3.942,0,0,0,.432.1,1.685,1.685,0,0,0,.235.019.822.822,0,0,0,.467-.1.966.966,0,0,0,.251-.257q.032-.051.229-.521t.286-.7l-2.514-7h1.295l1.822,5.535Z" transform="translate(509.705 226.902)"/>
  <rect id="사각형_348" data-name="사각형 348" class="cls-7" width="222.833" height="32.75" transform="translate(308.578 26.554)"/>
  <rect id="사각형_349" data-name="사각형 349" class="cls-3" width="222.833" height="29.5" transform="translate(302.578 26.804)"/>
  <rect id="사각형_350" data-name="사각형 350" class="cls-2" width="222.833" height="29.5" transform="translate(302.578 26.804)"/>
  <path id="패스_28224" data-name="패스 28224" class="cls-7" d="M5.109-9.947a3.968,3.968,0,0,1,2.854.969,3.422,3.422,0,0,1,1.127,2.2H7.811A2.661,2.661,0,0,0,6.944-8.26a2.747,2.747,0,0,0-1.823-.547A2.923,2.923,0,0,0,2.811-7.8a4.582,4.582,0,0,0-.88,3.082,4.476,4.476,0,0,0,.794,2.759A2.775,2.775,0,0,0,5.1-.9,2.5,2.5,0,0,0,7.3-2.017,4.237,4.237,0,0,0,7.9-3.56H9.182A4.37,4.37,0,0,1,8.049-1,4.034,4.034,0,0,1,4.937.25,4.106,4.106,0,0,1,2.1-.771,5.324,5.324,0,0,1,.593-4.944,5.33,5.33,0,0,1,1.727-8.457,4.141,4.141,0,0,1,5.109-9.947Zm5.605.264h7.06V-8.5H11.993v2.94h5.346v1.121H11.993v3.283h5.88V0H10.714Zm12.572-.264a4.433,4.433,0,0,1,3.8,1.648,5.34,5.34,0,0,1,.962,3.289,5.756,5.756,0,0,1-1.1,3.606A4.366,4.366,0,0,1,23.26.283a4.4,4.4,0,0,1-3.513-1.477,5.575,5.575,0,0,1-1.14-3.6,5.724,5.724,0,0,1,.976-3.362A4.227,4.227,0,0,1,23.286-9.947ZM23.418-.89a2.731,2.731,0,0,0,2.508-1.243A5.289,5.289,0,0,0,26.7-4.99a4.076,4.076,0,0,0-.893-2.749A3.049,3.049,0,0,0,23.365-8.78a3.18,3.18,0,0,0-2.452,1.032,4.348,4.348,0,0,0-.949,3.042,4.445,4.445,0,0,0,.814,2.713A3.062,3.062,0,0,0,23.418-.89ZM29.16,1.378A.831.831,0,0,0,29.8.738a1.81,1.81,0,0,0,.1-.573q0-.046,0-.082A.454.454,0,0,0,29.879,0H29.16V-1.437h1.411V-.105a2.884,2.884,0,0,1-.316,1.378A1.442,1.442,0,0,1,29.16,2ZM36.513-9.031h1.2V-7.06H38.84v.969H37.713v4.608a.5.5,0,0,0,.25.494,1.065,1.065,0,0,0,.461.073q.086,0,.185,0t.231-.016V0a2.649,2.649,0,0,1-.425.086,4.042,4.042,0,0,1-.478.026A1.288,1.288,0,0,1,36.81-.313a1.889,1.889,0,0,1-.3-1.1V-6.091h-.956V-7.06h.956Zm3.378-.686h1.187V-6.1a3.426,3.426,0,0,1,.758-.751,2.557,2.557,0,0,1,1.43-.376A2.116,2.116,0,0,1,45.35-6.157a3.664,3.664,0,0,1,.3,1.628V0H44.427V-4.449a2.489,2.489,0,0,0-.2-1.14,1.264,1.264,0,0,0-1.213-.58,2.021,2.021,0,0,0-1.338.508,2.441,2.441,0,0,0-.6,1.918V0H39.892Zm10.34,2.5a3.22,3.22,0,0,1,1.457.353,2.686,2.686,0,0,1,1.074.913,3.15,3.15,0,0,1,.475,1.246,8.151,8.151,0,0,1,.105,1.556H48.168a3.019,3.019,0,0,0,.508,1.724,1.7,1.7,0,0,0,1.47.649,1.9,1.9,0,0,0,1.483-.613,2.067,2.067,0,0,0,.448-.824h1.167a2.457,2.457,0,0,1-.307.867,3.083,3.083,0,0,1-.583.781,2.765,2.765,0,0,1-1.338.712,4.065,4.065,0,0,1-.969.105,2.973,2.973,0,0,1-2.235-.959A3.732,3.732,0,0,1,46.9-3.395a4.058,4.058,0,0,1,.923-2.762A3.044,3.044,0,0,1,50.232-7.218Zm1.892,3.125a3.074,3.074,0,0,0-.336-1.233,1.723,1.723,0,0,0-1.628-.857,1.8,1.8,0,0,0-1.371.59,2.229,2.229,0,0,0-.587,1.5Zm6.306-5.623h1.187V-6.1a3.426,3.426,0,0,1,.758-.751,2.557,2.557,0,0,1,1.43-.376,2.116,2.116,0,0,1,2.083,1.074,3.664,3.664,0,0,1,.3,1.628V0H62.964V-4.449a2.489,2.489,0,0,0-.2-1.14,1.264,1.264,0,0,0-1.213-.58,2.021,2.021,0,0,0-1.338.508,2.441,2.441,0,0,0-.6,1.918V0H58.429Zm10.34,2.5a3.22,3.22,0,0,1,1.457.353,2.686,2.686,0,0,1,1.074.913,3.15,3.15,0,0,1,.475,1.246,8.151,8.151,0,0,1,.105,1.556H66.706a3.019,3.019,0,0,0,.508,1.724,1.7,1.7,0,0,0,1.47.649,1.9,1.9,0,0,0,1.483-.613,2.067,2.067,0,0,0,.448-.824h1.167a2.457,2.457,0,0,1-.307.867,3.083,3.083,0,0,1-.583.781,2.765,2.765,0,0,1-1.338.712,4.065,4.065,0,0,1-.969.105A2.973,2.973,0,0,1,66.35-.709a3.732,3.732,0,0,1-.916-2.686,4.058,4.058,0,0,1,.923-2.762A3.044,3.044,0,0,1,68.769-7.218Zm1.892,3.125a3.074,3.074,0,0,0-.336-1.233A1.723,1.723,0,0,0,68.7-6.183a1.8,1.8,0,0,0-1.371.59,2.229,2.229,0,0,0-.587,1.5Zm3.4,2.215a.977.977,0,0,0,.376.811,1.393,1.393,0,0,0,.89.3,2.706,2.706,0,0,0,1.213-.29,1.632,1.632,0,0,0,.989-1.575v-.956a2.03,2.03,0,0,1-.56.231,4.774,4.774,0,0,1-.672.132l-.719.092a2.748,2.748,0,0,0-.969.27A1.053,1.053,0,0,0,74.058-1.879Zm2.874-2.4a.645.645,0,0,0,.547-.343,1.043,1.043,0,0,0,.079-.455.964.964,0,0,0-.432-.88,2.316,2.316,0,0,0-1.236-.274,1.571,1.571,0,0,0-1.318.5,1.648,1.648,0,0,0-.283.824H73.181a2.038,2.038,0,0,1,.847-1.816,3.478,3.478,0,0,1,1.889-.511,3.843,3.843,0,0,1,2.024.475,1.61,1.61,0,0,1,.771,1.477v4.067a.521.521,0,0,0,.076.3.366.366,0,0,0,.32.112q.079,0,.178-.01t.211-.03V.033a3.3,3.3,0,0,1-.422.1,3.083,3.083,0,0,1-.4.02.976.976,0,0,1-.89-.435,1.679,1.679,0,0,1-.2-.653,3.019,3.019,0,0,1-1.042.824,3.222,3.222,0,0,1-1.5.349,2.225,2.225,0,0,1-1.605-.6,1.982,1.982,0,0,1-.623-1.493,1.923,1.923,0,0,1,.613-1.523,2.917,2.917,0,0,1,1.608-.666Zm4.395.831a3.5,3.5,0,0,0,.481,1.9,1.686,1.686,0,0,0,1.542.765A1.625,1.625,0,0,0,84.7-1.493a3.347,3.347,0,0,0,.531-2.034,3.007,3.007,0,0,0-.547-1.981,1.707,1.707,0,0,0-1.351-.643,1.784,1.784,0,0,0-1.453.686A3.14,3.14,0,0,0,81.327-3.448Zm1.786-3.738a2.512,2.512,0,0,1,1.358.343,3.19,3.19,0,0,1,.719.692V-9.716h1.14V0H85.262V-.982a2.567,2.567,0,0,1-.982.943,2.811,2.811,0,0,1-1.3.29,2.63,2.63,0,0,1-2.043-.992,3.879,3.879,0,0,1-.864-2.64,4.557,4.557,0,0,1,.788-2.673A2.579,2.579,0,0,1,83.113-7.185Zm11.4,6.42a1.636,1.636,0,0,0,1.618-.893,4.45,4.45,0,0,0,.438-1.987,3.539,3.539,0,0,0-.316-1.608,1.78,1.78,0,0,0-1.727-.976,1.7,1.7,0,0,0-1.582.831,3.85,3.85,0,0,0-.494,2,3.349,3.349,0,0,0,.494,1.879A1.741,1.741,0,0,0,94.514-.765Zm.046-6.5a3.2,3.2,0,0,1,2.307.91,3.552,3.552,0,0,1,.943,2.676,4.592,4.592,0,0,1-.831,2.821A3,3,0,0,1,94.4.257a2.91,2.91,0,0,1-2.314-.985,3.893,3.893,0,0,1-.857-2.647,4.211,4.211,0,0,1,.9-2.834A3.031,3.031,0,0,1,94.56-7.264Zm4.741-.87a2.116,2.116,0,0,1,.257-1.081,1.817,1.817,0,0,1,1.6-.606q.112,0,.231.007t.27.02v1.081q-.185-.013-.267-.016t-.155,0q-.541,0-.646.28a5.539,5.539,0,0,0-.105,1.427h1.173v.936h-1.187V0H99.3V-6.091h-.982v-.936H99.3Zm7.663,1.074,1.885,5.748,1.971-5.748h1.3L109.456,0h-1.266l-2.6-7.06Zm8.688,6.3a1.636,1.636,0,0,0,1.618-.893,4.45,4.45,0,0,0,.438-1.987,3.539,3.539,0,0,0-.316-1.608,1.78,1.78,0,0,0-1.727-.976,1.7,1.7,0,0,0-1.582.831,3.85,3.85,0,0,0-.494,2,3.349,3.349,0,0,0,.494,1.879A1.741,1.741,0,0,0,115.653-.765Zm.046-6.5a3.2,3.2,0,0,1,2.307.91,3.552,3.552,0,0,1,.943,2.676,4.592,4.592,0,0,1-.831,2.821A3,3,0,0,1,115.54.257a2.91,2.91,0,0,1-2.314-.985,3.893,3.893,0,0,1-.857-2.647,4.211,4.211,0,0,1,.9-2.834A3.031,3.031,0,0,1,115.7-7.264Zm4.558-2.419h1.187V0h-1.187Zm3.937,2.624v4.687a1.976,1.976,0,0,0,.171.883,1.2,1.2,0,0,0,1.18.633,1.668,1.668,0,0,0,1.688-1.107,4.394,4.394,0,0,0,.244-1.628V-7.06h1.187V0h-1.121l.013-1.042a2.393,2.393,0,0,1-.573.679,2.524,2.524,0,0,1-1.648.554,2.126,2.126,0,0,1-2.057-1.009,3,3,0,0,1-.3-1.444v-4.8Zm6.119,0h1.127v1a3.162,3.162,0,0,1,1.061-.89,2.83,2.83,0,0,1,1.246-.27,2.054,2.054,0,0,1,2.03,1.048,3.722,3.722,0,0,1,.29,1.641V0h-1.206V-4.449a2.409,2.409,0,0,0-.191-1.042,1.159,1.159,0,0,0-1.147-.659,2.335,2.335,0,0,0-.692.086,1.782,1.782,0,0,0-.857.58,1.746,1.746,0,0,0-.386.722A4.859,4.859,0,0,0,131.5-3.7V0h-1.187Zm7.529-1.971h1.2V-7.06h1.127v.969h-1.127v4.608a.5.5,0,0,0,.25.494,1.065,1.065,0,0,0,.461.073q.086,0,.185,0t.231-.016V0a2.649,2.649,0,0,1-.425.086,4.042,4.042,0,0,1-.478.026,1.288,1.288,0,0,1-1.127-.425,1.889,1.889,0,0,1-.3-1.1V-6.091h-.956V-7.06h.956Zm6.17,1.813a3.22,3.22,0,0,1,1.457.353,2.686,2.686,0,0,1,1.074.913,3.15,3.15,0,0,1,.475,1.246,8.151,8.151,0,0,1,.105,1.556h-5.175a3.019,3.019,0,0,0,.508,1.724,1.7,1.7,0,0,0,1.47.649,1.9,1.9,0,0,0,1.483-.613,2.067,2.067,0,0,0,.448-.824h1.167a2.457,2.457,0,0,1-.307.867,3.083,3.083,0,0,1-.583.781A2.765,2.765,0,0,1,144.8.145a4.065,4.065,0,0,1-.969.105,2.973,2.973,0,0,1-2.235-.959,3.732,3.732,0,0,1-.916-2.686,4.058,4.058,0,0,1,.923-2.762A3.044,3.044,0,0,1,144.012-7.218ZM145.9-4.094a3.074,3.074,0,0,0-.336-1.233,1.723,1.723,0,0,0-1.628-.857,1.8,1.8,0,0,0-1.371.59,2.229,2.229,0,0,0-.587,1.5Zm5.576-3.125a3.22,3.22,0,0,1,1.457.353,2.686,2.686,0,0,1,1.074.913,3.15,3.15,0,0,1,.475,1.246,8.151,8.151,0,0,1,.105,1.556h-5.175a3.019,3.019,0,0,0,.508,1.724,1.7,1.7,0,0,0,1.47.649,1.9,1.9,0,0,0,1.483-.613,2.067,2.067,0,0,0,.448-.824h1.167a2.457,2.457,0,0,1-.307.867,3.083,3.083,0,0,1-.583.781,2.765,2.765,0,0,1-1.338.712A4.065,4.065,0,0,1,151.3.25a2.973,2.973,0,0,1-2.235-.959,3.732,3.732,0,0,1-.916-2.686,4.058,4.058,0,0,1,.923-2.762A3.044,3.044,0,0,1,151.48-7.218Zm1.892,3.125a3.074,3.074,0,0,0-.336-1.233,1.723,1.723,0,0,0-1.628-.857,1.8,1.8,0,0,0-1.371.59,2.229,2.229,0,0,0-.587,1.5ZM156-7.06h1.127V-5.84a2.694,2.694,0,0,1,.679-.867,1.76,1.76,0,0,1,1.246-.511q.033,0,.112.007l.27.026v1.252a1.772,1.772,0,0,0-.194-.026q-.089-.007-.194-.007a1.693,1.693,0,0,0-1.378.577,2.013,2.013,0,0,0-.481,1.328V0H156Zm10.57-.125a2.573,2.573,0,0,1,1.45.409,3.257,3.257,0,0,1,.686.672v-.89H169.8v6.42a4.735,4.735,0,0,1-.4,2.123,2.84,2.84,0,0,1-2.788,1.437,3.42,3.42,0,0,1-1.918-.511,1.992,1.992,0,0,1-.87-1.6h1.206a1.343,1.343,0,0,0,.343.732,1.748,1.748,0,0,0,1.266.4,1.741,1.741,0,0,0,1.786-.962,5.42,5.42,0,0,0,.231-2.024,2.328,2.328,0,0,1-.857.8,2.851,2.851,0,0,1-1.325.264,2.828,2.828,0,0,1-2.007-.814,3.58,3.58,0,0,1-.86-2.693,4.078,4.078,0,0,1,.867-2.769A2.68,2.68,0,0,1,166.57-7.185Zm2.136,3.625a2.943,2.943,0,0,0-.541-1.945,1.732,1.732,0,0,0-1.378-.633,1.7,1.7,0,0,0-1.714,1.173,4.6,4.6,0,0,0-.244,1.641,2.914,2.914,0,0,0,.484,1.816,1.564,1.564,0,0,0,1.3.623,1.828,1.828,0,0,0,1.8-1.154A3.721,3.721,0,0,0,168.706-3.56Zm2.752-3.5h1.127V-5.84a2.694,2.694,0,0,1,.679-.867,1.76,1.76,0,0,1,1.246-.511q.033,0,.112.007l.27.026v1.252a1.772,1.772,0,0,0-.194-.026q-.089-.007-.194-.007a1.693,1.693,0,0,0-1.378.577,2.013,2.013,0,0,0-.481,1.328V0h-1.187Zm7.116,6.3a1.636,1.636,0,0,0,1.618-.893,4.45,4.45,0,0,0,.438-1.987,3.539,3.539,0,0,0-.316-1.608,1.78,1.78,0,0,0-1.727-.976A1.7,1.7,0,0,0,177-5.4a3.85,3.85,0,0,0-.494,2A3.349,3.349,0,0,0,177-1.516,1.741,1.741,0,0,0,178.573-.765Zm.046-6.5a3.2,3.2,0,0,1,2.307.91,3.552,3.552,0,0,1,.943,2.676,4.592,4.592,0,0,1-.831,2.821A3,3,0,0,1,178.461.257a2.91,2.91,0,0,1-2.314-.985,3.893,3.893,0,0,1-.857-2.647,4.211,4.211,0,0,1,.9-2.834A3.031,3.031,0,0,1,178.619-7.264Zm5.725.2v4.687a1.976,1.976,0,0,0,.171.883,1.2,1.2,0,0,0,1.18.633,1.668,1.668,0,0,0,1.688-1.107,4.394,4.394,0,0,0,.244-1.628V-7.06h1.187V0h-1.121l.013-1.042a2.393,2.393,0,0,1-.573.679,2.524,2.524,0,0,1-1.648.554,2.126,2.126,0,0,1-2.057-1.009,3,3,0,0,1-.3-1.444v-4.8ZM193.429-.8a1.693,1.693,0,0,0,1.381-.7,3.309,3.309,0,0,0,.55-2.08,3.882,3.882,0,0,0-.244-1.45,1.683,1.683,0,0,0-1.687-1.167,1.683,1.683,0,0,0-1.687,1.233,4.885,4.885,0,0,0-.244,1.674,3.549,3.549,0,0,0,.244,1.391A1.683,1.683,0,0,0,193.429-.8Zm-3.072-6.229h1.154v.936a2.88,2.88,0,0,1,.778-.745,2.5,2.5,0,0,1,1.411-.4,2.653,2.653,0,0,1,2.037.92,3.768,3.768,0,0,1,.837,2.627,4.034,4.034,0,0,1-1.206,3.3,2.725,2.725,0,0,1-1.78.626,2.416,2.416,0,0,1-1.338-.349,3.083,3.083,0,0,1-.705-.679V2.815h-1.187Z" transform="translate(317.685 47.494)"/>
</svg>
