<svg id="구성_요소_135_1" data-name="구성 요소 135 – 1" xmlns="http://www.w3.org/2000/svg" width="816" height="349" viewBox="0 0 816 349">
  <defs>
    <style>
      .cls-1 {
        fill: #f5f6f7;
      }

      .cls-10, .cls-11, .cls-12, .cls-13, .cls-14, .cls-15, .cls-2, .cls-7, .cls-8, .cls-9 {
        fill: none;
        stroke: #665138;
      }

      .cls-10, .cls-11, .cls-13, .cls-14, .cls-15, .cls-2, .cls-7, .cls-8, .cls-9 {
        stroke-width: 0.5px;
      }

      .cls-3 {
        fill: #d6a803;
      }

      .cls-4 {
        fill: #fff;
      }

      .cls-5 {
        fill: #818484;
      }

      .cls-6 {
        fill: #665138;
      }

      .cls-10, .cls-11, .cls-13, .cls-14, .cls-15, .cls-7, .cls-8, .cls-9 {
        stroke-linecap: round;
        stroke-linejoin: round;
      }

      .cls-7 {
        stroke-dasharray: 0 1.515;
      }

      .cls-9 {
        stroke-dasharray: 0 1.474;
      }

      .cls-10 {
        stroke-dasharray: 0 1.518;
      }

      .cls-11 {
        stroke-dasharray: 0 1.511;
      }

      .cls-12 {
        stroke-miterlimit: 10;
        stroke-width: 0.3px;
      }

      .cls-13 {
        stroke-dasharray: 0 1.526;
      }

      .cls-14 {
        stroke-dasharray: 0 1.508;
      }

      .cls-15 {
        stroke-dasharray: 0 1.491;
      }
    </style>
  </defs>
  <rect id="사각형_374" data-name="사각형 374" class="cls-1" width="816" height="349"/>
  <rect id="사각형_375" data-name="사각형 375" class="cls-2" width="169.5" height="49.5" transform="translate(408.002 275.906)"/>
  <rect id="사각형_376" data-name="사각형 376" class="cls-2" width="169.5" height="65.699" transform="translate(209.754 131.156)"/>
  <rect id="사각형_377" data-name="사각형 377" class="cls-2" width="169.5" height="29.5" transform="translate(209.754 275.906)"/>
  <rect id="사각형_378" data-name="사각형 378" class="cls-2" width="169.5" height="49.5" transform="translate(606.25 56.906)"/>
  <rect id="사각형_379" data-name="사각형 379" class="cls-2" width="169.5" height="49.5" transform="translate(606.25 131.156)"/>
  <rect id="사각형_380" data-name="사각형 380" class="cls-2" width="169.5" height="49.5" transform="translate(606.25 275.906)"/>
  <path id="패스_29470" data-name="패스 29470" class="cls-3" d="M0,0H120V33.279H0Z" transform="translate(20 51.35)"/>
  <g id="그룹_24318" data-name="그룹 24318" transform="translate(-74.5 -6755.934)">
    <path id="패스_28814" data-name="패스 28814" class="cls-4" d="M102.988,6818.59h1.566v4.051h4.254v-4.051h1.567v9.939h-1.567V6824h-4.254v4.524h-1.566Z"/>
    <path id="패스_28815" data-name="패스 28815" class="cls-4" d="M112.275,6824.828a3.516,3.516,0,1,1,3.5,3.877A3.589,3.589,0,0,1,112.275,6824.828Zm5.4,0c0-1.58-.729-2.633-1.9-2.633s-1.89,1.053-1.89,2.633.729,2.608,1.89,2.608S117.677,6826.4,117.677,6824.828Z"/>
    <path id="패스_28816" data-name="패스 28816" class="cls-4" d="M121.023,6821.1h1.27l.122,1.04h.04a3.238,3.238,0,0,1,2.295-1.23,1.983,1.983,0,0,1,2.053,1.364,3.424,3.424,0,0,1,2.417-1.364c1.553,0,2.282,1.054,2.282,2.944v4.673H129.95v-4.484c0-1.282-.406-1.795-1.243-1.795a2.477,2.477,0,0,0-1.674,1.012v5.267H125.48v-4.484c0-1.282-.392-1.795-1.243-1.795a2.505,2.505,0,0,0-1.674,1.012v5.267h-1.54Z"/>
    <path id="패스_28817" data-name="패스 28817" class="cls-4" d="M133.187,6824.828a3.607,3.607,0,0,1,3.389-3.916c1.972,0,3.025,1.418,3.025,3.526a4.074,4.074,0,0,1-.067.783h-4.821a2.241,2.241,0,0,0,2.295,2.267,3.151,3.151,0,0,0,1.769-.552l.54.985a4.5,4.5,0,0,1-2.511.784A3.569,3.569,0,0,1,133.187,6824.828Zm5.077-.675c0-1.282-.58-2.025-1.66-2.025a2.015,2.015,0,0,0-1.9,2.025Z"/>
  </g>
  <g id="그룹_24319" data-name="그룹 24319" transform="translate(-50.5 -6770.934)">
    <path id="패스_28826" data-name="패스 28826" class="cls-4" d="M124.7,6841.69H121.24l-.851,2.836h-1.594l3.295-9.938h1.81l3.295,9.938h-1.661Zm-.379-1.229-.391-1.336c-.338-1.08-.635-2.187-.946-3.309h-.053c-.284,1.135-.6,2.229-.919,3.309l-.405,1.336Z"/>
    <path id="패스_28827" data-name="패스 28827" class="cls-4" d="M128.475,6837.1h1.27l.121.809h.041a3.764,3.764,0,0,1,2.282-1c1.89,0,2.944,1.5,2.944,3.781,0,2.553-1.527,4.011-3.2,4.011a3.073,3.073,0,0,1-1.958-.837l.041,1.27v2.4h-1.54Zm5.051,3.619c0-1.554-.5-2.512-1.742-2.512a2.609,2.609,0,0,0-1.769.9v3.633a2.512,2.512,0,0,0,1.62.675C132.715,6843.419,133.526,6842.461,133.526,6840.719Z"/>
    <path id="패스_28828" data-name="패스 28828" class="cls-4" d="M136.939,6837.1h1.27l.122.809h.04a3.767,3.767,0,0,1,2.282-1c1.89,0,2.944,1.5,2.944,3.781,0,2.553-1.526,4.011-3.2,4.011a3.073,3.073,0,0,1-1.958-.837l.041,1.27v2.4h-1.54Zm5.051,3.619c0-1.554-.5-2.512-1.742-2.512a2.611,2.611,0,0,0-1.769.9v3.633a2.514,2.514,0,0,0,1.621.675C141.18,6843.419,141.99,6842.461,141.99,6840.719Z"/>
    <path id="패스_28829" data-name="패스 28829" class="cls-4" d="M145.377,6842.784v-9.02h1.54v9.1c0,.419.188.568.377.568a1.067,1.067,0,0,0,.257-.027l.2,1.174a2.49,2.49,0,0,1-.837.122C145.795,6844.7,145.377,6843.986,145.377,6842.784Z"/>
    <path id="패스_28830" data-name="패스 28830" class="cls-4" d="M149.062,6834.79a.913.913,0,0,1,.986-.919.921.921,0,1,1-.986.919Zm.216,2.31h1.54v7.426h-1.54Z"/>
    <path id="패스_28831" data-name="패스 28831" class="cls-4" d="M152.545,6842.555c0-1.594,1.351-2.417,4.443-2.755-.014-.864-.324-1.62-1.418-1.62a4.084,4.084,0,0,0-2.147.756l-.581-1.053a5.682,5.682,0,0,1,3-.973c1.85,0,2.7,1.175,2.7,3.147v4.469h-1.27l-.135-.85h-.04a3.7,3.7,0,0,1-2.364,1.026A2.052,2.052,0,0,1,152.545,6842.555Zm4.443.054v-1.824c-2.2.271-2.944.824-2.944,1.662,0,.729.5,1.026,1.161,1.026A2.62,2.62,0,0,0,156.988,6842.609Z"/>
    <path id="패스_28832" data-name="패스 28832" class="cls-4" d="M160.645,6837.1h1.27l.121,1.025h.041a3.537,3.537,0,0,1,2.457-1.215c1.58,0,2.282,1.053,2.282,2.944v4.672h-1.552v-4.483c0-1.283-.379-1.8-1.256-1.8a2.534,2.534,0,0,0-1.823,1.013v5.266h-1.54Z"/>
    <path id="패스_28833" data-name="패스 28833" class="cls-4" d="M168.516,6840.826a3.649,3.649,0,0,1,3.672-3.916,3.189,3.189,0,0,1,2.175.851l-.77,1.012a1.949,1.949,0,0,0-1.337-.58c-1.242,0-2.133,1.053-2.133,2.633s.85,2.607,2.092,2.607a2.551,2.551,0,0,0,1.621-.675l.635,1.025a3.622,3.622,0,0,1-2.4.919C170.055,6844.7,168.516,6843.284,168.516,6840.826Z"/>
    <path id="패스_28834" data-name="패스 28834" class="cls-4" d="M175.278,6840.826a3.607,3.607,0,0,1,3.39-3.916c1.972,0,3.025,1.418,3.025,3.525a3.961,3.961,0,0,1-.068.783H176.8a2.241,2.241,0,0,0,2.3,2.268,3.158,3.158,0,0,0,1.769-.552l.54.984a4.5,4.5,0,0,1-2.512.784A3.568,3.568,0,0,1,175.278,6840.826Zm5.078-.676c0-1.282-.581-2.025-1.661-2.025a2.014,2.014,0,0,0-1.9,2.025Z"/>
  </g>
  <rect id="사각형_382" data-name="사각형 382" class="cls-5" width="170" height="25" transform="translate(209.504 21.655)"/>
  <g id="그룹_24320" data-name="그룹 24320" transform="translate(-70.5 -6758.934)">
    <path id="패스_28835" data-name="패스 28835" class="cls-4" d="M329.2,6799.029l-2.255-4.011h-1.607v4.011h-1.566v-9.939h3.254c2.053,0,3.592.728,3.592,2.877a2.766,2.766,0,0,1-2.08,2.848l2.431,4.214Zm-3.862-5.267h1.5c1.445,0,2.228-.594,2.228-1.8s-.783-1.621-2.228-1.621h-1.5Z"/>
    <path id="패스_28836" data-name="패스 28836" class="cls-4" d="M331.922,6797.057c0-1.593,1.351-2.416,4.443-2.754-.013-.865-.324-1.621-1.418-1.621a4.088,4.088,0,0,0-2.147.756l-.58-1.053a5.679,5.679,0,0,1,3-.973c1.85,0,2.7,1.176,2.7,3.147v4.47h-1.269l-.135-.851h-.041a3.693,3.693,0,0,1-2.363,1.027A2.053,2.053,0,0,1,331.922,6797.057Zm4.443.054v-1.823c-2.2.271-2.944.823-2.944,1.661,0,.729.5,1.027,1.162,1.027A2.617,2.617,0,0,0,336.365,6797.111Z"/>
    <path id="패스_28837" data-name="패스 28837" class="cls-4" d="M339.1,6791.6h1.566l.986,4.024c.149.716.27,1.4.4,2.106h.054c.162-.7.311-1.4.487-2.106l1.039-4.024h1.445l1.067,4.024c.176.716.324,1.4.5,2.106h.054c.148-.7.27-1.39.432-2.106l.959-4.024h1.458l-1.918,7.427h-1.863l-.945-3.674c-.176-.7-.311-1.376-.473-2.146h-.067c-.149.77-.284,1.458-.473,2.16l-.9,3.66h-1.8Z"/>
    <path id="패스_28838" data-name="패스 28838" class="cls-4" d="M354.129,6791.6h1.27l.122,1.04h.04a3.234,3.234,0,0,1,2.295-1.23,1.983,1.983,0,0,1,2.053,1.364,3.424,3.424,0,0,1,2.417-1.364c1.553,0,2.282,1.054,2.282,2.944v4.673h-1.552v-4.484c0-1.282-.406-1.795-1.243-1.795a2.477,2.477,0,0,0-1.674,1.012v5.267h-1.553v-4.484c0-1.282-.392-1.795-1.243-1.795a2.505,2.505,0,0,0-1.674,1.012v5.267h-1.54Z"/>
    <path id="패스_28839" data-name="패스 28839" class="cls-4" d="M366.32,6797.057c0-1.593,1.35-2.416,4.443-2.754-.014-.865-.325-1.621-1.418-1.621a4.088,4.088,0,0,0-2.147.756l-.581-1.053a5.682,5.682,0,0,1,3-.973c1.85,0,2.7,1.176,2.7,3.147v4.47h-1.269l-.135-.851h-.04a3.7,3.7,0,0,1-2.364,1.027A2.052,2.052,0,0,1,366.32,6797.057Zm4.443.054v-1.823c-2.2.271-2.944.823-2.944,1.661,0,.729.5,1.027,1.161,1.027A2.62,2.62,0,0,0,370.763,6797.111Z"/>
    <path id="패스_28840" data-name="패스 28840" class="cls-4" d="M374.6,6796.6v-3.754h-1.08v-1.161l1.148-.081.175-2.053h1.31v2.053h1.931v1.242h-1.931v3.767c0,.892.31,1.351,1.081,1.351a2.229,2.229,0,0,0,.8-.175l.284,1.147a4.76,4.76,0,0,1-1.458.271C375.176,6799.205,374.6,6798.164,374.6,6796.6Z"/>
    <path id="패스_28841" data-name="패스 28841" class="cls-4" d="M378.955,6795.328a3.608,3.608,0,0,1,3.39-3.916c1.971,0,3.025,1.418,3.025,3.526a3.986,3.986,0,0,1-.068.783h-4.821a2.242,2.242,0,0,0,2.3,2.267,3.153,3.153,0,0,0,1.769-.552l.54.985a4.5,4.5,0,0,1-2.512.784A3.569,3.569,0,0,1,378.955,6795.328Zm5.078-.675c0-1.282-.581-2.025-1.661-2.025a2.014,2.014,0,0,0-1.9,2.025Z"/>
    <path id="패스_28842" data-name="패스 28842" class="cls-4" d="M387.1,6791.6h1.27l.121,1.336h.041a2.565,2.565,0,0,1,2.106-1.526,1.859,1.859,0,0,1,.838.162l-.284,1.351a2.212,2.212,0,0,0-.743-.122c-.608,0-1.337.42-1.809,1.593v4.633H387.1Z"/>
    <path id="패스_28843" data-name="패스 28843" class="cls-4" d="M392.442,6789.293a.912.912,0,0,1,.986-.919.921.921,0,1,1-.986.919Zm.216,2.309H394.2v7.427h-1.539Z"/>
    <path id="패스_28844" data-name="패스 28844" class="cls-4" d="M395.925,6797.057c0-1.593,1.35-2.416,4.443-2.754-.014-.865-.325-1.621-1.418-1.621a4.085,4.085,0,0,0-2.147.756l-.581-1.053a5.683,5.683,0,0,1,3-.973c1.85,0,2.7,1.176,2.7,3.147v4.47h-1.269l-.135-.851h-.04a3.7,3.7,0,0,1-2.364,1.027A2.053,2.053,0,0,1,395.925,6797.057Zm4.443.054v-1.823c-2.2.271-2.944.823-2.944,1.661,0,.729.5,1.027,1.161,1.027A2.62,2.62,0,0,0,400.368,6797.111Z"/>
    <path id="패스_28845" data-name="패스 28845" class="cls-4" d="M404.025,6797.287v-9.021h1.539v9.1c0,.42.189.569.378.569a1.049,1.049,0,0,0,.257-.028l.2,1.175a2.518,2.518,0,0,1-.838.122C404.443,6799.205,404.025,6798.488,404.025,6797.287Z"/>
  </g>
  <rect id="사각형_383" data-name="사각형 383" class="cls-5" width="167.252" height="25" transform="translate(410.5 21.655)"/>
  <g id="그룹_24321" data-name="그룹 24321" transform="translate(-70.5 -6758.934)">
    <path id="패스_28846" data-name="패스 28846" class="cls-4" d="M519.059,6789.09h1.795l1.824,5.023c.229.662.432,1.337.661,2.012h.068c.229-.675.418-1.35.648-2.012l1.8-5.023h1.81v9.939H526.2v-4.916c0-.89.122-2.174.2-3.079h-.054l-.8,2.3-1.729,4.74h-.972l-1.742-4.74-.783-2.3h-.054c.067.9.189,2.189.189,3.079v4.916h-1.4Z"/>
    <path id="패스_28847" data-name="패스 28847" class="cls-4" d="M529.575,6797.057c0-1.593,1.35-2.416,4.443-2.754-.014-.865-.325-1.621-1.418-1.621a4.082,4.082,0,0,0-2.147.756l-.581-1.053a5.683,5.683,0,0,1,3-.973c1.85,0,2.7,1.176,2.7,3.147v4.47H534.3l-.135-.851h-.041a3.691,3.691,0,0,1-2.363,1.027A2.052,2.052,0,0,1,529.575,6797.057Zm4.443.054v-1.823c-2.2.271-2.944.823-2.944,1.661,0,.729.5,1.027,1.161,1.027A2.62,2.62,0,0,0,534.018,6797.111Z"/>
    <path id="패스_28848" data-name="패스 28848" class="cls-4" d="M537.675,6791.6h1.269l.122,1.026h.04a3.543,3.543,0,0,1,2.458-1.216c1.58,0,2.282,1.054,2.282,2.944v4.673h-1.553v-4.484c0-1.282-.378-1.795-1.256-1.795a2.539,2.539,0,0,0-1.823,1.012v5.267h-1.539Z"/>
    <path id="패스_28849" data-name="패스 28849" class="cls-4" d="M545.909,6796.273V6791.6h1.553v4.483c0,1.282.365,1.782,1.243,1.782.689,0,1.161-.324,1.782-1.107V6791.6h1.553v7.427h-1.269l-.122-1.121h-.04a3.115,3.115,0,0,1-2.431,1.3C546.6,6799.205,545.909,6798.164,545.909,6796.273Z"/>
    <path id="패스_28850" data-name="패스 28850" class="cls-4" d="M557.885,6789.508a2.037,2.037,0,0,0-.81-.189c-.662,0-.986.433-.986,1.337v.946h1.5v1.242h-1.5v6.185h-1.553v-6.185h-1.013v-1.161l1.013-.081v-.932c0-1.525.689-2.58,2.35-2.58a3.36,3.36,0,0,1,1.309.258Z"/>
    <path id="패스_28851" data-name="패스 28851" class="cls-4" d="M558.518,6797.057c0-1.593,1.351-2.416,4.443-2.754-.014-.865-.324-1.621-1.418-1.621a4.088,4.088,0,0,0-2.147.756l-.581-1.053a5.685,5.685,0,0,1,3-.973c1.85,0,2.7,1.176,2.7,3.147v4.47h-1.269l-.136-.851h-.04a3.693,3.693,0,0,1-2.363,1.027A2.053,2.053,0,0,1,558.518,6797.057Zm4.443.054v-1.823c-2.2.271-2.944.823-2.944,1.661,0,.729.5,1.027,1.161,1.027A2.617,2.617,0,0,0,562.961,6797.111Z"/>
    <path id="패스_28852" data-name="패스 28852" class="cls-4" d="M566.159,6795.328a3.65,3.65,0,0,1,3.673-3.916,3.187,3.187,0,0,1,2.174.852l-.77,1.011a1.95,1.95,0,0,0-1.337-.58c-1.242,0-2.133,1.053-2.133,2.633s.851,2.608,2.093,2.608a2.541,2.541,0,0,0,1.62-.676l.635,1.026a3.618,3.618,0,0,1-2.4.919C567.7,6799.205,566.159,6797.787,566.159,6795.328Z"/>
    <path id="패스_28853" data-name="패스 28853" class="cls-4" d="M574.125,6796.6v-3.754h-1.081v-1.161l1.148-.081.176-2.053h1.309v2.053h1.931v1.242h-1.931v3.767c0,.892.311,1.351,1.081,1.351a2.239,2.239,0,0,0,.8-.175l.283,1.147a4.76,4.76,0,0,1-1.458.271C574.705,6799.205,574.125,6798.164,574.125,6796.6Z"/>
    <path id="패스_28854" data-name="패스 28854" class="cls-4" d="M579.011,6796.273V6791.6h1.553v4.483c0,1.282.365,1.782,1.242,1.782.689,0,1.162-.324,1.783-1.107V6791.6h1.553v7.427h-1.269l-.122-1.121h-.041a3.115,3.115,0,0,1-2.43,1.3C579.7,6799.205,579.011,6798.164,579.011,6796.273Z"/>
    <path id="패스_28855" data-name="패스 28855" class="cls-4" d="M587.34,6791.6h1.27l.121,1.336h.041a2.566,2.566,0,0,1,2.106-1.526,1.859,1.859,0,0,1,.838.162l-.284,1.351a2.212,2.212,0,0,0-.743-.122c-.607,0-1.336.42-1.809,1.593v4.633h-1.54Z"/>
    <path id="패스_28856" data-name="패스 28856" class="cls-4" d="M592.687,6789.293a.911.911,0,0,1,.985-.919.921.921,0,1,1-.985.919Zm.215,2.309h1.54v7.427H592.9Z"/>
    <path id="패스_28857" data-name="패스 28857" class="cls-4" d="M596.628,6791.6h1.27l.122,1.026h.04a3.543,3.543,0,0,1,2.458-1.216c1.58,0,2.282,1.054,2.282,2.944v4.673h-1.553v-4.484c0-1.282-.378-1.795-1.256-1.795a2.537,2.537,0,0,0-1.823,1.012v5.267h-1.54Z"/>
    <path id="패스_28858" data-name="패스 28858" class="cls-4" d="M604.391,6800.406a1.964,1.964,0,0,1,1.08-1.621v-.066a1.369,1.369,0,0,1-.675-1.23,1.834,1.834,0,0,1,.824-1.378v-.052a2.546,2.546,0,0,1-.973-1.973,2.679,2.679,0,0,1,2.876-2.674,3.1,3.1,0,0,1,1.081.19h2.633v1.161h-1.418a2.007,2.007,0,0,1,.486,1.364,2.538,2.538,0,0,1-2.782,2.553,2.575,2.575,0,0,1-1.039-.231.986.986,0,0,0-.405.783c0,.446.3.73,1.242.73h1.364c1.755,0,2.673.54,2.673,1.809,0,1.432-1.512,2.593-3.889,2.593C605.687,6802.364,604.391,6801.7,604.391,6800.406Zm5.469-.391c0-.621-.486-.81-1.391-.81h-1.121a4.692,4.692,0,0,1-1-.109,1.335,1.335,0,0,0-.635,1.081c0,.729.756,1.161,1.985,1.161C609,6801.338,609.86,6800.7,609.86,6800.015Zm-.932-5.929a1.414,1.414,0,1,0-2.809,0,1.416,1.416,0,1,0,2.809,0Z"/>
  </g>
  <rect id="사각형_384" data-name="사각형 384" class="cls-5" width="170" height="25" transform="translate(606 21.655)"/>
  <g id="그룹_24322" data-name="그룹 24322" transform="translate(-70.5 -6758.934)">
    <path id="패스_28859" data-name="패스 28859" class="cls-4" d="M704.364,6797.746l.918-1.08a3.857,3.857,0,0,0,2.647,1.174c1.2,0,1.877-.567,1.877-1.4,0-.905-.675-1.188-1.593-1.593l-1.378-.595a2.856,2.856,0,0,1-2.025-2.6c0-1.567,1.377-2.743,3.268-2.743a4.261,4.261,0,0,1,3.011,1.256l-.824,1a3.167,3.167,0,0,0-2.187-.891c-1.013,0-1.675.486-1.675,1.282,0,.851.8,1.176,1.607,1.5l1.364.58a2.774,2.774,0,0,1,2.025,2.687c0,1.594-1.323,2.891-3.5,2.891A4.96,4.96,0,0,1,704.364,6797.746Z"/>
    <path id="패스_28860" data-name="패스 28860" class="cls-4" d="M712.734,6797.057c0-1.593,1.35-2.416,4.443-2.754-.014-.865-.324-1.621-1.418-1.621a4.088,4.088,0,0,0-2.147.756l-.581-1.053a5.683,5.683,0,0,1,3-.973c1.85,0,2.7,1.176,2.7,3.147v4.47H717.46l-.135-.851h-.04a3.7,3.7,0,0,1-2.364,1.027A2.052,2.052,0,0,1,712.734,6797.057Zm4.443.054v-1.823c-2.2.271-2.944.823-2.944,1.661,0,.729.5,1.027,1.161,1.027A2.62,2.62,0,0,0,717.177,6797.111Z"/>
    <path id="패스_28861" data-name="패스 28861" class="cls-4" d="M720.834,6797.287v-9.021h1.54v9.1c0,.42.188.569.377.569a1.049,1.049,0,0,0,.257-.028l.2,1.175a2.516,2.516,0,0,1-.837.122C721.252,6799.205,720.834,6798.488,720.834,6797.287Z"/>
    <path id="패스_28862" data-name="패스 28862" class="cls-4" d="M724.182,6795.328a3.607,3.607,0,0,1,3.389-3.916c1.972,0,3.025,1.418,3.025,3.526a4.076,4.076,0,0,1-.067.783h-4.821a2.241,2.241,0,0,0,2.295,2.267,3.151,3.151,0,0,0,1.769-.552l.54.985a4.5,4.5,0,0,1-2.511.784A3.569,3.569,0,0,1,724.182,6795.328Zm5.077-.675c0-1.282-.58-2.025-1.66-2.025a2.015,2.015,0,0,0-1.905,2.025Z"/>
    <path id="패스_28863" data-name="패스 28863" class="cls-4" d="M731.552,6798.178l.729-1a3.3,3.3,0,0,0,2.107.85c.891,0,1.31-.431,1.31-1,0-.675-.837-.971-1.648-1.282-.985-.379-2.12-.905-2.12-2.161s1-2.175,2.633-2.175a3.909,3.909,0,0,1,2.418.879l-.73.958a2.776,2.776,0,0,0-1.66-.647c-.811,0-1.189.4-1.189.918,0,.634.77.876,1.58,1.173,1.04.393,2.188.852,2.188,2.256,0,1.242-.986,2.256-2.822,2.256A4.573,4.573,0,0,1,731.552,6798.178Z"/>
    <path id="패스_28864" data-name="패스 28864" class="cls-4" d="M741.5,6788.252h1.08l-3.754,13.207h-1.08Z"/>
    <path id="패스_28865" data-name="패스 28865" class="cls-4" d="M743.865,6789.09h2.579c3.052,0,4.794,1.687,4.794,4.93,0,3.226-1.742,5.009-4.713,5.009h-2.66Zm2.471,8.656c2.133,0,3.281-1.256,3.281-3.726,0-2.486-1.148-3.661-3.281-3.661h-.9v7.387Z"/>
    <path id="패스_28866" data-name="패스 28866" class="cls-4" d="M752.91,6789.293a.912.912,0,0,1,.986-.919.921.921,0,1,1-.986.919Zm.215,2.309h1.54v7.427h-1.54Z"/>
    <path id="패스_28867" data-name="패스 28867" class="cls-4" d="M756.122,6798.178l.729-1a3.3,3.3,0,0,0,2.107.85c.891,0,1.31-.431,1.31-1,0-.675-.837-.971-1.648-1.282-.985-.379-2.12-.905-2.12-2.161s1-2.175,2.633-2.175a3.909,3.909,0,0,1,2.418.879l-.73.958a2.776,2.776,0,0,0-1.66-.647c-.811,0-1.189.4-1.189.918,0,.634.77.876,1.58,1.173,1.04.393,2.188.852,2.188,2.256,0,1.242-.986,2.256-2.823,2.256A4.572,4.572,0,0,1,756.122,6798.178Z"/>
    <path id="패스_28868" data-name="패스 28868" class="cls-4" d="M763.75,6796.6v-3.754h-1.081v-1.161l1.148-.081.176-2.053h1.31v2.053h1.931v1.242H765.3v3.767c0,.892.31,1.351,1.08,1.351a2.229,2.229,0,0,0,.8-.175l.283,1.147a4.754,4.754,0,0,1-1.458.271C764.331,6799.205,763.75,6798.164,763.75,6796.6Z"/>
    <path id="패스_28869" data-name="패스 28869" class="cls-4" d="M768.785,6791.6h1.27l.121,1.336h.041a2.565,2.565,0,0,1,2.106-1.526,1.859,1.859,0,0,1,.838.162l-.284,1.351a2.213,2.213,0,0,0-.743-.122c-.608,0-1.337.42-1.809,1.593v4.633h-1.54Z"/>
    <path id="패스_28870" data-name="패스 28870" class="cls-4" d="M774.131,6789.293a.912.912,0,0,1,.986-.919.921.921,0,1,1-.986.919Zm.216,2.309h1.54v7.427h-1.54Z"/>
    <path id="패스_28871" data-name="패스 28871" class="cls-4" d="M779.477,6798.26h-.04l-.149.769h-1.215v-10.763h1.539v2.849l-.04,1.27a3.545,3.545,0,0,1,2.215-.973c1.877,0,2.943,1.5,2.943,3.781,0,2.553-1.526,4.012-3.2,4.012A3.086,3.086,0,0,1,779.477,6798.26Zm3.647-3.039c0-1.553-.5-2.512-1.743-2.512a2.586,2.586,0,0,0-1.769.9v3.633a2.489,2.489,0,0,0,1.621.676C782.313,6797.922,783.124,6796.963,783.124,6795.221Z"/>
    <path id="패스_28872" data-name="패스 28872" class="cls-4" d="M786.442,6796.273V6791.6H788v4.483c0,1.282.364,1.782,1.242,1.782.689,0,1.161-.324,1.783-1.107V6791.6h1.552v7.427H791.3l-.121-1.121h-.041a3.115,3.115,0,0,1-2.431,1.3C787.131,6799.205,786.442,6798.164,786.442,6796.273Z"/>
    <path id="패스_28873" data-name="패스 28873" class="cls-4" d="M795.042,6796.6v-3.754h-1.08v-1.161l1.148-.081.176-2.053h1.309v2.053h1.931v1.242h-1.931v3.767c0,.892.311,1.351,1.081,1.351a2.239,2.239,0,0,0,.8-.175l.283,1.147a4.76,4.76,0,0,1-1.458.271C795.623,6799.205,795.042,6798.164,795.042,6796.6Z"/>
    <path id="패스_28874" data-name="패스 28874" class="cls-4" d="M799.862,6789.293a.912.912,0,0,1,.986-.919.921.921,0,1,1-.986.919Zm.216,2.309h1.539v7.427h-1.539Z"/>
    <path id="패스_28875" data-name="패스 28875" class="cls-4" d="M803.331,6795.328a3.516,3.516,0,1,1,3.5,3.877A3.589,3.589,0,0,1,803.331,6795.328Zm5.4,0c0-1.58-.729-2.633-1.9-2.633s-1.89,1.053-1.89,2.633.729,2.608,1.89,2.608S808.732,6796.9,808.732,6795.328Z"/>
    <path id="패스_28876" data-name="패스 28876" class="cls-4" d="M812.079,6791.6h1.27l.121,1.026h.041a3.54,3.54,0,0,1,2.457-1.216c1.58,0,2.282,1.054,2.282,2.944v4.673H816.7v-4.484c0-1.282-.379-1.795-1.257-1.795a2.535,2.535,0,0,0-1.822,1.012v5.267h-1.54Z"/>
  </g>
  <rect id="사각형_385" data-name="사각형 385" class="cls-3" width="120" height="30" transform="translate(20 275.656)"/>
  <g id="그룹_24323" data-name="그룹 24323" transform="translate(-70.5 -6758.934)">
    <path id="패스_28877" data-name="패스 28877" class="cls-4" d="M118.146,7050.366c0-3.241,1.972-5.185,4.484-5.185a3.822,3.822,0,0,1,2.822,1.256l-.85,1a2.645,2.645,0,0,0-1.945-.891c-1.715,0-2.9,1.431-2.9,3.768,0,2.363,1.107,3.807,2.863,3.807a2.9,2.9,0,0,0,2.2-1.053l.837.986a3.926,3.926,0,0,1-3.093,1.431C120.064,7055.484,118.146,7053.62,118.146,7050.366Z"/>
    <path id="패스_28878" data-name="패스 28878" class="cls-4" d="M126.611,7051.608a3.516,3.516,0,1,1,3.5,3.876A3.589,3.589,0,0,1,126.611,7051.608Zm5.4,0c0-1.58-.729-2.632-1.9-2.632s-1.89,1.052-1.89,2.632.729,2.607,1.89,2.607S132.013,7053.175,132.013,7051.608Z"/>
    <path id="패스_28879" data-name="패스 28879" class="cls-4" d="M134.549,7054.458l.729-1a3.3,3.3,0,0,0,2.107.851c.891,0,1.309-.433,1.309-1,0-.675-.837-.972-1.647-1.283-.985-.378-2.12-.9-2.12-2.161s1-2.174,2.633-2.174a3.917,3.917,0,0,1,2.418.878l-.73.959a2.774,2.774,0,0,0-1.661-.648c-.81,0-1.188.405-1.188.918,0,.635.769.878,1.58,1.175,1.04.391,2.188.85,2.188,2.255,0,1.243-.986,2.255-2.823,2.255A4.571,4.571,0,0,1,134.549,7054.458Z"/>
    <path id="패스_28880" data-name="패스 28880" class="cls-4" d="M141.771,7047.882h1.27l.122,1.039h.04a3.239,3.239,0,0,1,2.3-1.229,1.982,1.982,0,0,1,2.052,1.365,3.421,3.421,0,0,1,2.417-1.365c1.553,0,2.282,1.054,2.282,2.944v4.673H150.7v-4.484c0-1.283-.406-1.8-1.243-1.8a2.481,2.481,0,0,0-1.674,1.013v5.267h-1.553v-4.484c0-1.283-.392-1.8-1.243-1.8a2.509,2.509,0,0,0-1.674,1.013v5.267h-1.54Z"/>
    <path id="패스_28881" data-name="패스 28881" class="cls-4" d="M153.935,7051.608a3.607,3.607,0,0,1,3.389-3.916c1.972,0,3.025,1.418,3.025,3.525a4.059,4.059,0,0,1-.067.783h-4.821a2.243,2.243,0,0,0,2.295,2.269,3.153,3.153,0,0,0,1.769-.554l.54.986a4.5,4.5,0,0,1-2.511.783A3.567,3.567,0,0,1,153.935,7051.608Zm5.077-.674c0-1.284-.58-2.027-1.66-2.027a2.015,2.015,0,0,0-1.9,2.027Z"/>
    <path id="패스_28882" data-name="패스 28882" class="cls-4" d="M162.318,7052.878v-3.754h-1.08v-1.161l1.148-.081.176-2.053h1.309v2.053H165.8v1.242h-1.931v3.768c0,.89.311,1.35,1.081,1.35a2.209,2.209,0,0,0,.8-.176l.283,1.148a4.747,4.747,0,0,1-1.459.27C162.9,7055.484,162.318,7054.444,162.318,7052.878Z"/>
    <path id="패스_28883" data-name="패스 28883" class="cls-4" d="M167.138,7045.572a.912.912,0,0,1,.985-.918.92.92,0,1,1-.985.918Zm.216,2.31h1.539v7.427h-1.539Z"/>
    <path id="패스_28884" data-name="패스 28884" class="cls-4" d="M170.594,7051.608a3.65,3.65,0,0,1,3.673-3.916,3.189,3.189,0,0,1,2.174.851l-.77,1.013a1.943,1.943,0,0,0-1.337-.58c-1.242,0-2.133,1.052-2.133,2.632s.85,2.607,2.092,2.607a2.545,2.545,0,0,0,1.621-.675l.635,1.025a3.613,3.613,0,0,1-2.4.919C172.133,7055.484,170.594,7054.066,170.594,7051.608Z"/>
    <path id="패스_28885" data-name="패스 28885" class="cls-4" d="M177.559,7054.458l.729-1a3.3,3.3,0,0,0,2.107.851c.891,0,1.31-.433,1.31-1,0-.675-.837-.972-1.648-1.283-.985-.378-2.12-.9-2.12-2.161s1-2.174,2.633-2.174a3.917,3.917,0,0,1,2.418.878l-.73.959a2.771,2.771,0,0,0-1.66-.648c-.811,0-1.189.405-1.189.918,0,.635.77.878,1.58,1.175,1.04.391,2.188.85,2.188,2.255,0,1.243-.986,2.255-2.823,2.255A4.571,4.571,0,0,1,177.559,7054.458Z"/>
  </g>
  <rect id="사각형_386" data-name="사각형 386" class="cls-2" width="169.5" height="29.5" transform="translate(209.754 56.906)"/>
  <g id="그룹_24324" data-name="그룹 24324" transform="translate(-70.5 -6758.934)">
    <path id="패스_28886" data-name="패스 28886" class="cls-6" d="M300.318,6835.869,298,6831.826h-1.716v4.043h-1.209v-9.529h2.99c1.937,0,3.328.689,3.328,2.678a2.583,2.583,0,0,1-2.158,2.677l2.444,4.174Zm-4.03-5.017h1.6c1.495,0,2.314-.6,2.314-1.834,0-1.261-.819-1.7-2.314-1.7h-1.6Z"/>
    <path id="패스_28887" data-name="패스 28887" class="cls-6" d="M302.658,6834.036c0-1.534,1.339-2.3,4.342-2.64,0-.91-.3-1.781-1.456-1.781a3.89,3.89,0,0,0-2.119.755l-.468-.819a5.309,5.309,0,0,1,2.782-.923c1.716,0,2.444,1.157,2.444,2.9v4.342h-.975l-.1-.846h-.039a3.777,3.777,0,0,1-2.34,1.015A1.913,1.913,0,0,1,302.658,6834.036Zm4.342.117v-1.976c-2.379.286-3.185.871-3.185,1.781,0,.806.546,1.131,1.248,1.131A2.884,2.884,0,0,0,307,6834.153Z"/>
    <path id="패스_28888" data-name="패스 28888" class="cls-6" d="M309.379,6828.811h1.209l1.053,4.082c.143.675.286,1.312.416,1.975h.065c.156-.663.3-1.313.481-1.975l1.092-4.082h1.157l1.105,4.082c.169.675.325,1.312.494,1.975h.052c.156-.663.286-1.3.442-1.975l1.04-4.082H319.1l-1.9,7.058h-1.43l-1.027-3.808c-.182-.665-.312-1.314-.481-2.03H314.2c-.156.716-.3,1.379-.481,2.055l-.988,3.783h-1.391Z"/>
    <path id="패스_28889" data-name="패스 28889" class="cls-6" d="M323.562,6828.811h.975l.1,1.026h.039a3.1,3.1,0,0,1,2.2-1.209,1.862,1.862,0,0,1,1.95,1.352,3.341,3.341,0,0,1,2.327-1.352c1.456,0,2.145.962,2.145,2.768v4.473h-1.183v-4.316c0-1.326-.416-1.885-1.313-1.885a2.611,2.611,0,0,0-1.781,1.079v5.122h-1.183v-4.316c0-1.326-.416-1.885-1.313-1.885a2.611,2.611,0,0,0-1.781,1.079v5.122h-1.183Z"/>
    <path id="패스_28890" data-name="패스 28890" class="cls-6" d="M334.988,6834.036c0-1.534,1.34-2.3,4.343-2.64,0-.91-.3-1.781-1.456-1.781a3.894,3.894,0,0,0-2.12.755l-.467-.819a5.3,5.3,0,0,1,2.781-.923c1.717,0,2.445,1.157,2.445,2.9v4.342h-.975l-.1-.846H339.4a3.777,3.777,0,0,1-2.34,1.015A1.914,1.914,0,0,1,334.988,6834.036Zm4.343.117v-1.976c-2.379.286-3.185.871-3.185,1.781,0,.806.545,1.131,1.248,1.131A2.884,2.884,0,0,0,339.331,6834.153Z"/>
    <path id="패스_28891" data-name="패스 28891" class="cls-6" d="M342.788,6833.686v-3.915h-1.053v-.9l1.105-.064.143-1.977h.988v1.977h1.911v.96h-1.911v3.94c0,.871.273,1.365,1.092,1.365a2.536,2.536,0,0,0,.807-.181l.234.883a4.445,4.445,0,0,1-1.3.26C343.3,6836.038,342.788,6835.1,342.788,6833.686Z"/>
    <path id="패스_28892" data-name="패스 28892" class="cls-6" d="M346.728,6832.346a3.415,3.415,0,0,1,3.185-3.718c1.794,0,2.808,1.3,2.808,3.315a4.619,4.619,0,0,1-.052.676h-4.758a2.338,2.338,0,0,0,2.339,2.47,3.046,3.046,0,0,0,1.769-.559l.429.781a4.211,4.211,0,0,1-2.341.727A3.373,3.373,0,0,1,346.728,6832.346Zm4.953-.573c0-1.429-.65-2.2-1.755-2.2a2.172,2.172,0,0,0-2.029,2.2Z"/>
    <path id="패스_28893" data-name="패스 28893" class="cls-6" d="M354.437,6828.811h.974l.1,1.286h.039a2.436,2.436,0,0,1,2-1.469,1.518,1.518,0,0,1,.754.155l-.222,1.041a1.646,1.646,0,0,0-.689-.117c-.585,0-1.313.416-1.781,1.625v4.537h-1.182Z"/>
    <path id="패스_28894" data-name="패스 28894" class="cls-6" d="M359.324,6826.587a.821.821,0,0,1,1.638,0,.821.821,0,0,1-1.638,0Zm.221,2.224h1.183v7.058h-1.183Z"/>
    <path id="패스_28895" data-name="패스 28895" class="cls-6" d="M362.444,6834.036c0-1.534,1.339-2.3,4.342-2.64,0-.91-.3-1.781-1.456-1.781a3.89,3.89,0,0,0-2.119.755l-.468-.819a5.309,5.309,0,0,1,2.782-.923c1.716,0,2.444,1.157,2.444,2.9v4.342h-.975l-.1-.846h-.039a3.777,3.777,0,0,1-2.34,1.015A1.913,1.913,0,0,1,362.444,6834.036Zm4.342.117v-1.976c-2.379.286-3.185.871-3.185,1.781,0,.806.546,1.131,1.248,1.131A2.884,2.884,0,0,0,366.786,6834.153Z"/>
    <path id="패스_28896" data-name="패스 28896" class="cls-6" d="M370.075,6834.465v-8.944h1.183v9.022c0,.364.156.508.338.508a.972.972,0,0,0,.247-.028l.169.911a1.87,1.87,0,0,1-.689.1C370.439,6836.038,370.075,6835.467,370.075,6834.465Z"/>
    <path id="패스_28897" data-name="패스 28897" class="cls-6" d="M376.159,6832.346a3.437,3.437,0,0,1,3.406-3.718,3.019,3.019,0,0,1,2.067.832l-.611.793a2.05,2.05,0,0,0-1.417-.638c-1.274,0-2.21,1.106-2.21,2.731s.884,2.7,2.184,2.7a2.49,2.49,0,0,0,1.664-.7l.507.793a3.367,3.367,0,0,1-2.275.9C377.6,6836.038,376.159,6834.686,376.159,6832.346Z"/>
    <path id="패스_28898" data-name="패스 28898" class="cls-6" d="M382.529,6832.346c0-2.353,1.547-3.718,3.276-3.718s3.276,1.365,3.276,3.718a3.3,3.3,0,1,1-6.552,0Zm5.33,0c0-1.625-.832-2.731-2.054-2.731s-2.041,1.106-2.041,2.731.819,2.7,2.041,2.7S387.859,6833.971,387.859,6832.346Z"/>
    <path id="패스_28899" data-name="패스 28899" class="cls-6" d="M390.849,6834.465v-8.944h1.182v9.022c0,.364.156.508.339.508a.966.966,0,0,0,.246-.028l.17.911a1.878,1.878,0,0,1-.689.1C391.212,6836.038,390.849,6835.467,390.849,6834.465Z"/>
    <path id="패스_28900" data-name="패스 28900" class="cls-6" d="M394.346,6834.465v-8.944h1.182v9.022c0,.364.157.508.339.508a.966.966,0,0,0,.246-.028l.17.911a1.878,1.878,0,0,1-.689.1C394.709,6836.038,394.346,6835.467,394.346,6834.465Z"/>
    <path id="패스_28901" data-name="패스 28901" class="cls-6" d="M397.348,6832.346a3.415,3.415,0,0,1,3.185-3.718c1.794,0,2.808,1.3,2.808,3.315a4.619,4.619,0,0,1-.052.676h-4.758a2.339,2.339,0,0,0,2.34,2.47,3.043,3.043,0,0,0,1.768-.559l.429.781a4.21,4.21,0,0,1-2.34.727A3.374,3.374,0,0,1,397.348,6832.346Zm4.953-.573c0-1.429-.65-2.2-1.755-2.2a2.171,2.171,0,0,0-2.028,2.2Z"/>
    <path id="패스_28902" data-name="패스 28902" class="cls-6" d="M404.6,6832.346a3.437,3.437,0,0,1,3.406-3.718,3.019,3.019,0,0,1,2.067.832l-.611.793a2.05,2.05,0,0,0-1.417-.638c-1.274,0-2.21,1.106-2.21,2.731s.884,2.7,2.184,2.7a2.49,2.49,0,0,0,1.664-.7l.507.793a3.367,3.367,0,0,1-2.275.9C406.045,6836.038,404.6,6834.686,404.6,6832.346Z"/>
    <path id="패스_28903" data-name="패스 28903" class="cls-6" d="M412.193,6833.686v-3.915h-1.052v-.9l1.105-.064.143-1.977h.987v1.977h1.912v.96h-1.912v3.94c0,.871.273,1.365,1.093,1.365a2.53,2.53,0,0,0,.806-.181l.234.883a4.439,4.439,0,0,1-1.3.26C412.7,6836.038,412.193,6835.1,412.193,6833.686Z"/>
    <path id="패스_28904" data-name="패스 28904" class="cls-6" d="M416.64,6826.587a.821.821,0,0,1,1.638,0,.821.821,0,0,1-1.638,0Zm.22,2.224h1.183v7.058H416.86Z"/>
    <path id="패스_28905" data-name="패스 28905" class="cls-6" d="M419.772,6832.346c0-2.353,1.547-3.718,3.276-3.718s3.277,1.365,3.277,3.718a3.3,3.3,0,1,1-6.553,0Zm5.331,0c0-1.625-.832-2.731-2.055-2.731s-2.041,1.106-2.041,2.731.82,2.7,2.041,2.7S425.1,6833.971,425.1,6832.346Z"/>
    <path id="패스_28906" data-name="패스 28906" class="cls-6" d="M428.093,6828.811h.974l.1,1.013h.039a3.389,3.389,0,0,1,2.367-1.2c1.482,0,2.158.962,2.158,2.768v4.473h-1.183v-4.316c0-1.326-.4-1.885-1.339-1.885a2.682,2.682,0,0,0-1.938,1.079v5.122h-1.182Z"/>
  </g>
  <g id="그룹_24325" data-name="그룹 24325" transform="translate(-70.5 -6758.934)">
    <path id="패스_28907" data-name="패스 28907" class="cls-6" d="M300.318,7054.867,298,7050.824h-1.716v4.043h-1.209v-9.529h2.99c1.937,0,3.328.689,3.328,2.678a2.584,2.584,0,0,1-2.158,2.678l2.444,4.173Zm-4.03-5.018h1.6c1.495,0,2.314-.6,2.314-1.833,0-1.261-.819-1.7-2.314-1.7h-1.6Z"/>
    <path id="패스_28908" data-name="패스 28908" class="cls-6" d="M302.658,7053.034c0-1.534,1.339-2.3,4.342-2.639,0-.91-.3-1.781-1.456-1.781a3.89,3.89,0,0,0-2.119.754l-.468-.819a5.309,5.309,0,0,1,2.782-.923c1.716,0,2.444,1.157,2.444,2.9v4.342h-.975l-.1-.845h-.039a3.782,3.782,0,0,1-2.34,1.014A1.913,1.913,0,0,1,302.658,7053.034Zm4.342.117v-1.976c-2.379.286-3.185.871-3.185,1.781,0,.806.546,1.131,1.248,1.131A2.884,2.884,0,0,0,307,7053.151Z"/>
    <path id="패스_28909" data-name="패스 28909" class="cls-6" d="M309.379,7047.808h1.209l1.053,4.082c.143.676.286,1.313.416,1.976h.065c.156-.663.3-1.313.481-1.976l1.092-4.082h1.157l1.105,4.082c.169.676.325,1.313.494,1.976h.052c.156-.663.286-1.3.442-1.976l1.04-4.082H319.1l-1.9,7.059h-1.43l-1.027-3.809c-.182-.663-.312-1.313-.481-2.028H314.2c-.156.715-.3,1.378-.481,2.054l-.988,3.783h-1.391Z"/>
    <path id="패스_28910" data-name="패스 28910" class="cls-6" d="M323.562,7047.808h.975l.1,1.027h.039a3.1,3.1,0,0,1,2.2-1.209,1.862,1.862,0,0,1,1.95,1.352,3.337,3.337,0,0,1,2.327-1.352c1.456,0,2.145.962,2.145,2.769v4.472h-1.183v-4.316c0-1.326-.416-1.885-1.313-1.885a2.607,2.607,0,0,0-1.781,1.079v5.122h-1.183v-4.316c0-1.326-.416-1.885-1.313-1.885a2.607,2.607,0,0,0-1.781,1.079v5.122h-1.183Z"/>
    <path id="패스_28911" data-name="패스 28911" class="cls-6" d="M334.988,7053.034c0-1.534,1.34-2.3,4.343-2.639,0-.91-.3-1.781-1.456-1.781a3.893,3.893,0,0,0-2.12.754l-.467-.819a5.3,5.3,0,0,1,2.781-.923c1.717,0,2.445,1.157,2.445,2.9v4.342h-.975l-.1-.845H339.4a3.782,3.782,0,0,1-2.34,1.014A1.914,1.914,0,0,1,334.988,7053.034Zm4.343.117v-1.976c-2.379.286-3.185.871-3.185,1.781,0,.806.545,1.131,1.248,1.131A2.884,2.884,0,0,0,339.331,7053.151Z"/>
    <path id="패스_28912" data-name="패스 28912" class="cls-6" d="M342.788,7052.684v-3.914h-1.053v-.9l1.105-.065.143-1.976h.988v1.976h1.911v.962h-1.911v3.939c0,.871.273,1.365,1.092,1.365a2.536,2.536,0,0,0,.807-.181l.234.883a4.461,4.461,0,0,1-1.3.26C343.3,7055.036,342.788,7054.1,342.788,7052.684Z"/>
    <path id="패스_28913" data-name="패스 28913" class="cls-6" d="M346.728,7051.344a3.414,3.414,0,0,1,3.185-3.718c1.794,0,2.808,1.3,2.808,3.315a4.619,4.619,0,0,1-.052.676h-4.758a2.338,2.338,0,0,0,2.339,2.47,3.046,3.046,0,0,0,1.769-.559l.429.781a4.211,4.211,0,0,1-2.341.727A3.373,3.373,0,0,1,346.728,7051.344Zm4.953-.572c0-1.43-.65-2.2-1.755-2.2a2.173,2.173,0,0,0-2.029,2.2Z"/>
    <path id="패스_28914" data-name="패스 28914" class="cls-6" d="M354.437,7047.808h.974l.1,1.287h.039a2.438,2.438,0,0,1,2-1.469,1.508,1.508,0,0,1,.754.156l-.222,1.04a1.654,1.654,0,0,0-.689-.117c-.585,0-1.313.416-1.781,1.625v4.537h-1.182Z"/>
    <path id="패스_28915" data-name="패스 28915" class="cls-6" d="M359.324,7045.585a.821.821,0,0,1,1.638,0,.821.821,0,0,1-1.638,0Zm.221,2.223h1.183v7.059h-1.183Z"/>
    <path id="패스_28916" data-name="패스 28916" class="cls-6" d="M362.444,7053.034c0-1.534,1.339-2.3,4.342-2.639,0-.91-.3-1.781-1.456-1.781a3.89,3.89,0,0,0-2.119.754l-.468-.819a5.309,5.309,0,0,1,2.782-.923c1.716,0,2.444,1.157,2.444,2.9v4.342h-.975l-.1-.845h-.039a3.782,3.782,0,0,1-2.34,1.014A1.913,1.913,0,0,1,362.444,7053.034Zm4.342.117v-1.976c-2.379.286-3.185.871-3.185,1.781,0,.806.546,1.131,1.248,1.131A2.884,2.884,0,0,0,366.786,7053.151Z"/>
    <path id="패스_28917" data-name="패스 28917" class="cls-6" d="M370.075,7053.463v-8.944h1.183v9.022c0,.364.156.507.338.507a1.043,1.043,0,0,0,.247-.026l.169.911a1.894,1.894,0,0,1-.689.1C370.439,7055.036,370.075,7054.464,370.075,7053.463Z"/>
    <path id="패스_28918" data-name="패스 28918" class="cls-6" d="M376.159,7051.344a3.437,3.437,0,0,1,3.406-3.718,3.019,3.019,0,0,1,2.067.832l-.611.793a2.05,2.05,0,0,0-1.417-.637c-1.274,0-2.21,1.105-2.21,2.73s.884,2.7,2.184,2.7a2.489,2.489,0,0,0,1.664-.7l.507.793a3.367,3.367,0,0,1-2.275.9C377.6,7055.036,376.159,7053.685,376.159,7051.344Z"/>
    <path id="패스_28919" data-name="패스 28919" class="cls-6" d="M382.529,7051.344c0-2.353,1.547-3.718,3.276-3.718s3.276,1.365,3.276,3.718a3.3,3.3,0,1,1-6.552,0Zm5.33,0c0-1.625-.832-2.73-2.054-2.73s-2.041,1.105-2.041,2.73.819,2.7,2.041,2.7S387.859,7052.969,387.859,7051.344Z"/>
    <path id="패스_28920" data-name="패스 28920" class="cls-6" d="M390.849,7053.463v-8.944h1.182v9.022c0,.364.156.507.339.507a1.036,1.036,0,0,0,.246-.026l.17.911a1.9,1.9,0,0,1-.689.1C391.212,7055.036,390.849,7054.464,390.849,7053.463Z"/>
    <path id="패스_28921" data-name="패스 28921" class="cls-6" d="M394.346,7053.463v-8.944h1.182v9.022c0,.364.157.507.339.507a1.036,1.036,0,0,0,.246-.026l.17.911a1.9,1.9,0,0,1-.689.1C394.709,7055.036,394.346,7054.464,394.346,7053.463Z"/>
    <path id="패스_28922" data-name="패스 28922" class="cls-6" d="M397.348,7051.344a3.415,3.415,0,0,1,3.185-3.718c1.794,0,2.808,1.3,2.808,3.315a4.619,4.619,0,0,1-.052.676h-4.758a2.339,2.339,0,0,0,2.34,2.47,3.043,3.043,0,0,0,1.768-.559l.429.781a4.21,4.21,0,0,1-2.34.727A3.374,3.374,0,0,1,397.348,7051.344Zm4.953-.572c0-1.43-.65-2.2-1.755-2.2a2.171,2.171,0,0,0-2.028,2.2Z"/>
    <path id="패스_28923" data-name="패스 28923" class="cls-6" d="M404.6,7051.344a3.437,3.437,0,0,1,3.406-3.718,3.019,3.019,0,0,1,2.067.832l-.611.793a2.05,2.05,0,0,0-1.417-.637c-1.274,0-2.21,1.105-2.21,2.73s.884,2.7,2.184,2.7a2.489,2.489,0,0,0,1.664-.7l.507.793a3.367,3.367,0,0,1-2.275.9C406.045,7055.036,404.6,7053.685,404.6,7051.344Z"/>
    <path id="패스_28924" data-name="패스 28924" class="cls-6" d="M412.193,7052.684v-3.914h-1.052v-.9l1.105-.065.143-1.976h.987v1.976h1.912v.962h-1.912v3.939c0,.871.273,1.365,1.093,1.365a2.53,2.53,0,0,0,.806-.181l.234.883a4.455,4.455,0,0,1-1.3.26C412.7,7055.036,412.193,7054.1,412.193,7052.684Z"/>
    <path id="패스_28925" data-name="패스 28925" class="cls-6" d="M416.64,7045.585a.821.821,0,0,1,1.638,0,.821.821,0,0,1-1.638,0Zm.22,2.223h1.183v7.059H416.86Z"/>
    <path id="패스_28926" data-name="패스 28926" class="cls-6" d="M419.772,7051.344c0-2.353,1.547-3.718,3.276-3.718s3.277,1.365,3.277,3.718a3.3,3.3,0,1,1-6.553,0Zm5.331,0c0-1.625-.832-2.73-2.055-2.73s-2.041,1.105-2.041,2.73.82,2.7,2.041,2.7S425.1,7052.969,425.1,7051.344Z"/>
    <path id="패스_28927" data-name="패스 28927" class="cls-6" d="M428.093,7047.808h.974l.1,1.014h.039a3.391,3.391,0,0,1,2.367-1.2c1.482,0,2.158.962,2.158,2.769v4.472h-1.183v-4.316c0-1.326-.4-1.885-1.339-1.885a2.686,2.686,0,0,0-1.938,1.079v5.122h-1.182Z"/>
  </g>
  <line id="선_1075" data-name="선 1075" class="cls-7" y2="32.575" transform="translate(294.504 92.688)"/>
  <path id="패스_28928" data-name="패스 28928" class="cls-8" d="M365,6884.955h0m0-34.848h0" transform="translate(-70.5 -6758.934)"/>
  <path id="패스_28929" data-name="패스 28929" class="cls-2" d="M368.226,6881.487,365,6884.954l-3.222-3.467" transform="translate(-70.5 -6758.934)"/>
  <line id="선_1076" data-name="선 1076" class="cls-9" y2="18.422" transform="translate(691 109.754)"/>
  <path id="패스_28930" data-name="패스 28930" class="cls-8" d="M761.5,6887.847h0m0-20.633h0" transform="translate(-70.5 -6758.934)"/>
  <path id="패스_28931" data-name="패스 28931" class="cls-2" d="M764.722,6884.379l-3.223,3.467-3.222-3.467" transform="translate(-70.5 -6758.934)"/>
  <line id="선_1077" data-name="선 1077" class="cls-10" x2="50.859" transform="translate(147.518 290.656)"/>
  <path id="패스_28932" data-name="패스 28932" class="cls-8" d="M269.636,7049.59h0m-53.136,0h0" transform="translate(-70.5 -6758.934)"/>
  <path id="패스_28933" data-name="패스 28933" class="cls-2" d="M266.169,7046.367l3.467,3.223-3.467,3.222" transform="translate(-70.5 -6758.934)"/>
  <line id="선_1078" data-name="선 1078" class="cls-10" x2="50.859" transform="translate(147.518 71.656)"/>
  <path id="패스_28934" data-name="패스 28934" class="cls-8" d="M269.636,6830.59h0m-53.136,0h0" transform="translate(-70.5 -6758.934)"/>
  <path id="패스_28935" data-name="패스 28935" class="cls-2" d="M266.169,6827.367l3.467,3.223-3.467,3.222" transform="translate(-70.5 -6758.934)"/>
  <line id="선_1079" data-name="선 1079" class="cls-11" x2="15.866" transform="translate(584.137 81.656)"/>
  <path id="패스_28936" data-name="패스 28936" class="cls-8" d="M671.259,6840.59h0m-18.133,0h0" transform="translate(-70.5 -6758.934)"/>
  <path id="패스_28937" data-name="패스 28937" class="cls-2" d="M667.791,6837.367l3.467,3.223-3.467,3.222" transform="translate(-70.5 -6758.934)"/>
  <line id="선_1080" data-name="선 1080" class="cls-11" x2="15.866" transform="translate(584.137 300.656)"/>
  <path id="패스_28938" data-name="패스 28938" class="cls-8" d="M671.259,7059.59h0m-18.133,0h0" transform="translate(-70.5 -6758.934)"/>
  <path id="패스_28939" data-name="패스 28939" class="cls-2" d="M667.791,7056.367l3.467,3.223-3.467,3.222" transform="translate(-70.5 -6758.934)"/>
  <line id="선_1081" data-name="선 1081" class="cls-11" x2="15.866" transform="translate(385.889 290.656)"/>
  <path id="패스_28940" data-name="패스 28940" class="cls-8" d="M473.01,7049.59h0m-18.133,0h0" transform="translate(-70.5 -6758.934)"/>
  <path id="패스_28941" data-name="패스 28941" class="cls-2" d="M469.543,7046.367l3.467,3.223-3.467,3.222" transform="translate(-70.5 -6758.934)"/>
  <line id="선_1082" data-name="선 1082" class="cls-12" x2="165" transform="translate(212.004 171.335)"/>
  <g id="그룹_24326" data-name="그룹 24326" transform="translate(-70.5 -6758.934)">
    <path id="패스_28942" data-name="패스 28942" class="cls-6" d="M314.735,6898.59h2.717c2.145,0,3.575.715,3.575,2.795,0,2.015-1.43,2.951-3.51,2.951h-1.573v3.783h-1.209Zm2.626,4.771c1.677,0,2.47-.611,2.47-1.976s-.845-1.821-2.522-1.821h-1.365v3.8Z"/>
    <path id="패스_28943" data-name="패스 28943" class="cls-6" d="M322.275,6906.286c0-1.534,1.339-2.3,4.342-2.64,0-.91-.3-1.781-1.456-1.781a3.89,3.89,0,0,0-2.119.755l-.468-.819a5.309,5.309,0,0,1,2.782-.923c1.716,0,2.444,1.157,2.444,2.9v4.342h-.975l-.1-.846h-.039a3.777,3.777,0,0,1-2.34,1.015A1.913,1.913,0,0,1,322.275,6906.286Zm4.342.117v-1.976c-2.379.286-3.185.871-3.185,1.781,0,.806.546,1.131,1.248,1.131A2.884,2.884,0,0,0,326.617,6906.4Z"/>
    <path id="패스_28944" data-name="패스 28944" class="cls-6" d="M329.919,6901.061h.975l.1,1.286h.039a2.436,2.436,0,0,1,2-1.469,1.513,1.513,0,0,1,.754.155l-.221,1.041a1.649,1.649,0,0,0-.689-.117c-.585,0-1.313.416-1.781,1.625v4.537h-1.183Z"/>
    <path id="패스_28945" data-name="패스 28945" class="cls-6" d="M335.651,6905.936v-3.915H334.6v-.9l1.105-.064.143-1.977h.987v1.977h1.912v.96h-1.912v3.94c0,.871.273,1.365,1.093,1.365a2.53,2.53,0,0,0,.806-.181l.234.883a4.439,4.439,0,0,1-1.3.26C336.159,6908.288,335.651,6907.352,335.651,6905.936Z"/>
    <path id="패스_28946" data-name="패스 28946" class="cls-6" d="M339.837,6907.313l.586-.78a3.2,3.2,0,0,0,2.093.832c.936,0,1.391-.494,1.391-1.105,0-.715-.832-1.039-1.612-1.339-.988-.364-2.107-.845-2.107-2.041,0-1.118.9-2,2.432-2a3.659,3.659,0,0,1,2.2.793l-.572.767a2.657,2.657,0,0,0-1.625-.624c-.884,0-1.287.467-1.287,1.014,0,.676.767.923,1.56,1.222,1.027.389,2.158.805,2.158,2.145,0,1.144-.91,2.093-2.574,2.093A4.263,4.263,0,0,1,339.837,6907.313Z"/>
    <path id="패스_28947" data-name="패스 28947" class="cls-6" d="M349.627,6901.061h.975l.1.8h.039a3.769,3.769,0,0,1,2.249-.987c1.82,0,2.808,1.431,2.808,3.6,0,2.417-1.443,3.809-3.068,3.809a3.187,3.187,0,0,1-1.95-.819l.026,1.235v2.392h-1.183Zm4.94,3.431c0-1.56-.52-2.613-1.859-2.613a2.942,2.942,0,0,0-1.9.975v3.705a2.738,2.738,0,0,0,1.729.742C353.709,6907.3,354.567,6906.247,354.567,6904.492Z"/>
    <path id="패스_28948" data-name="패스 28948" class="cls-6" d="M357.608,6901.061h.975l.1,1.286h.04a2.436,2.436,0,0,1,2-1.469,1.513,1.513,0,0,1,.754.155l-.221,1.041a1.649,1.649,0,0,0-.689-.117c-.585,0-1.313.416-1.781,1.625v4.537h-1.184Z"/>
    <path id="패스_28949" data-name="패스 28949" class="cls-6" d="M362.042,6904.6c0-2.353,1.546-3.718,3.275-3.718s3.277,1.365,3.277,3.718a3.3,3.3,0,1,1-6.552,0Zm5.33,0c0-1.625-.832-2.731-2.055-2.731s-2.041,1.106-2.041,2.731.82,2.7,2.041,2.7S367.372,6906.221,367.372,6904.6Z"/>
    <path id="패스_28950" data-name="패스 28950" class="cls-6" d="M369.958,6904.6c0-2.287,1.443-3.718,3.055-3.718a2.868,2.868,0,0,1,1.989.832l-.065-1.222v-2.717h1.183v10.348h-.962l-.117-.832h-.026a3.149,3.149,0,0,1-2.145,1C371.1,6908.288,369.958,6906.949,369.958,6904.6Zm4.979,1.729v-3.705a2.478,2.478,0,0,0-1.716-.741c-1.144,0-2.041,1.092-2.041,2.7,0,1.7.7,2.718,1.95,2.718A2.427,2.427,0,0,0,374.937,6906.325Z"/>
    <path id="패스_28951" data-name="패스 28951" class="cls-6" d="M378.278,6905.532v-4.471h1.183v4.328c0,1.313.39,1.873,1.326,1.873.728,0,1.235-.352,1.911-1.2v-5h1.183v7.058h-.988l-.091-1.1h-.039a3.029,3.029,0,0,1-2.34,1.274C378.941,6908.288,378.278,6907.326,378.278,6905.532Z"/>
    <path id="패스_28952" data-name="패스 28952" class="cls-6" d="M385.636,6904.6a3.437,3.437,0,0,1,3.406-3.718,3.017,3.017,0,0,1,2.067.832l-.61.793a2.052,2.052,0,0,0-1.418-.638c-1.274,0-2.21,1.106-2.21,2.731s.884,2.7,2.184,2.7a2.49,2.49,0,0,0,1.664-.7l.508.793a3.369,3.369,0,0,1-2.276.9C387.079,6908.288,385.636,6906.936,385.636,6904.6Z"/>
    <path id="패스_28953" data-name="패스 28953" class="cls-6" d="M393.228,6905.936v-3.915h-1.053v-.9l1.105-.064.143-1.977h.988v1.977h1.911v.96h-1.911v3.94c0,.871.273,1.365,1.092,1.365a2.53,2.53,0,0,0,.806-.181l.234.883a4.432,4.432,0,0,1-1.3.26C393.735,6908.288,393.228,6907.352,393.228,6905.936Z"/>
    <path id="패스_28954" data-name="패스 28954" class="cls-6" d="M397.674,6898.837a.821.821,0,0,1,1.638,0,.821.821,0,0,1-1.638,0Zm.221,2.224h1.183v7.058h-1.183Z"/>
    <path id="패스_28955" data-name="패스 28955" class="cls-6" d="M400.807,6904.6c0-2.353,1.547-3.718,3.276-3.718s3.276,1.365,3.276,3.718a3.3,3.3,0,1,1-6.552,0Zm5.33,0c0-1.625-.832-2.731-2.054-2.731s-2.041,1.106-2.041,2.731.819,2.7,2.041,2.7S406.137,6906.221,406.137,6904.6Z"/>
    <path id="패스_28956" data-name="패스 28956" class="cls-6" d="M409.14,6901.061h.974l.1,1.013h.039a3.389,3.389,0,0,1,2.367-1.2c1.481,0,2.158.962,2.158,2.768v4.473H413.6V6903.8c0-1.326-.4-1.885-1.339-1.885a2.682,2.682,0,0,0-1.938,1.079v5.122H409.14Z"/>
  </g>
  <g id="그룹_24327" data-name="그룹 24327" transform="translate(-70.5 -6758.934)">
    <path id="패스_28957" data-name="패스 28957" class="cls-6" d="M324.654,6923.29c0-1.534,1.339-2.3,4.342-2.64,0-.91-.3-1.781-1.456-1.781a3.89,3.89,0,0,0-2.119.755l-.468-.819a5.31,5.31,0,0,1,2.782-.923c1.716,0,2.444,1.157,2.444,2.9v4.342H329.2l-.1-.846h-.039a3.777,3.777,0,0,1-2.34,1.015A1.914,1.914,0,0,1,324.654,6923.29Zm4.342.117v-1.976c-2.379.286-3.185.871-3.185,1.781,0,.806.546,1.131,1.248,1.131A2.885,2.885,0,0,0,329,6923.407Z"/>
    <path id="패스_28958" data-name="패스 28958" class="cls-6" d="M332.3,6918.064h.975l.1,1.014h.039a3.385,3.385,0,0,1,2.366-1.2c1.482,0,2.158.962,2.158,2.768v4.473h-1.183v-4.316c0-1.327-.4-1.885-1.339-1.885a2.682,2.682,0,0,0-1.937,1.079v5.122H332.3Z"/>
    <path id="패스_28959" data-name="패스 28959" class="cls-6" d="M339.669,6921.6c0-2.287,1.443-3.718,3.055-3.718a2.868,2.868,0,0,1,1.989.832l-.065-1.222v-2.718h1.183v10.349h-.962l-.117-.832h-.026a3.149,3.149,0,0,1-2.145,1C340.813,6925.292,339.669,6923.953,339.669,6921.6Zm4.979,1.729v-3.705a2.478,2.478,0,0,0-1.716-.741c-1.144,0-2.041,1.092-2.041,2.7,0,1.7.7,2.718,1.95,2.718A2.428,2.428,0,0,0,344.648,6923.329Z"/>
    <path id="패스_28960" data-name="패스 28960" class="cls-6" d="M351.147,6918.064h.976l.1.805h.039a3.769,3.769,0,0,1,2.249-.987c1.82,0,2.808,1.431,2.808,3.6,0,2.418-1.443,3.81-3.068,3.81a3.185,3.185,0,0,1-1.95-.819l.026,1.235v2.392h-1.184Zm4.941,3.432c0-1.56-.52-2.613-1.859-2.613a2.947,2.947,0,0,0-1.9.974v3.706a2.739,2.739,0,0,0,1.729.742C355.23,6924.305,356.088,6923.251,356.088,6921.5Z"/>
    <path id="패스_28961" data-name="패스 28961" class="cls-6" d="M359.052,6922.536v-4.472h1.183v4.329c0,1.313.39,1.873,1.326,1.873.728,0,1.235-.352,1.911-1.2v-5h1.183v7.059h-.988l-.091-1.1h-.039a3.028,3.028,0,0,1-2.34,1.274C359.715,6925.292,359.052,6924.33,359.052,6922.536Z"/>
    <path id="패스_28962" data-name="패스 28962" class="cls-6" d="M366.852,6918.064h.975l.1,1.287h.039a2.436,2.436,0,0,1,2-1.469,1.513,1.513,0,0,1,.754.155l-.221,1.041a1.65,1.65,0,0,0-.689-.117c-.585,0-1.313.416-1.781,1.625v4.537h-1.183Z"/>
    <path id="패스_28963" data-name="패스 28963" class="cls-6" d="M371.271,6921.6a3.438,3.438,0,0,1,3.407-3.718,3.014,3.014,0,0,1,2.067.832l-.611.793a2.05,2.05,0,0,0-1.417-.638c-1.275,0-2.211,1.106-2.211,2.731s.885,2.705,2.184,2.705a2.487,2.487,0,0,0,1.664-.7l.508.793a3.367,3.367,0,0,1-2.276.9C372.714,6925.292,371.271,6923.939,371.271,6921.6Z"/>
    <path id="패스_28964" data-name="패스 28964" class="cls-6" d="M378.3,6914.774h1.182v2.835l-.039,1.455a3.321,3.321,0,0,1,2.341-1.182c1.482,0,2.158.962,2.158,2.768v4.473h-1.183v-4.316c0-1.327-.4-1.885-1.339-1.885a2.684,2.684,0,0,0-1.938,1.079v5.122H378.3Z"/>
    <path id="패스_28965" data-name="패스 28965" class="cls-6" d="M385.6,6923.29c0-1.534,1.34-2.3,4.342-2.64,0-.91-.3-1.781-1.456-1.781a3.893,3.893,0,0,0-2.119.755l-.468-.819a5.31,5.31,0,0,1,2.782-.923c1.717,0,2.445,1.157,2.445,2.9v4.342h-.976l-.1-.846H390a3.775,3.775,0,0,1-2.339,1.015A1.914,1.914,0,0,1,385.6,6923.29Zm4.342.117v-1.976c-2.378.286-3.185.871-3.185,1.781,0,.806.546,1.131,1.248,1.131A2.885,2.885,0,0,0,389.939,6923.407Z"/>
    <path id="패스_28966" data-name="패스 28966" class="cls-6" d="M392.513,6924.316l.585-.779a3.2,3.2,0,0,0,2.093.832c.936,0,1.391-.494,1.391-1.1,0-.715-.832-1.039-1.612-1.339-.988-.364-2.106-.845-2.106-2.041,0-1.118.9-2,2.431-2a3.659,3.659,0,0,1,2.2.793l-.572.766a2.662,2.662,0,0,0-1.625-.623c-.884,0-1.287.467-1.287,1.014,0,.676.767.923,1.56,1.222,1.027.389,2.158.8,2.158,2.145,0,1.144-.91,2.093-2.574,2.093A4.252,4.252,0,0,1,392.513,6924.316Z"/>
    <path id="패스_28967" data-name="패스 28967" class="cls-6" d="M398.883,6921.6a3.415,3.415,0,0,1,3.185-3.718c1.794,0,2.808,1.3,2.808,3.315a4.619,4.619,0,0,1-.052.676h-4.758a2.339,2.339,0,0,0,2.34,2.47,3.046,3.046,0,0,0,1.768-.559l.429.78a4.2,4.2,0,0,1-2.34.728A3.374,3.374,0,0,1,398.883,6921.6Zm4.953-.573c0-1.429-.65-2.2-1.755-2.2a2.171,2.171,0,0,0-2.028,2.2Z"/>
  </g>
  <path id="패스_28968" data-name="패스 28968" class="cls-6" d="M346,6949.2a7,7,0,1,0-7-7,7,7,0,0,0,7,7" transform="translate(-70.5 -6758.934)"/>
  <g id="그룹_24328" data-name="그룹 24328" transform="translate(-70.5 -6758.934)">
    <path id="패스_28969" data-name="패스 28969" class="cls-4" d="M343.639,6938.02h2.211c1.617,0,2.673.593,2.673,1.947a1.722,1.722,0,0,1-1.231,1.748v.056a1.858,1.858,0,0,1,1.716,1.924c0,1.552-1.189,2.344-2.993,2.344h-2.376Zm2,3.5c1.585,0,2.222-.561,2.222-1.475,0-1.089-.737-1.484-2.156-1.484H344.3v2.959Zm.22,3.97c1.552,0,2.5-.549,2.5-1.793,0-1.121-.9-1.65-2.5-1.65H344.3v3.443Z"/>
  </g>
  <path id="패스_28970" data-name="패스 28970" class="cls-6" d="M365,6949.2a7,7,0,1,0-7-7,7,7,0,0,0,7,7" transform="translate(-70.5 -6758.934)"/>
  <g id="그룹_24329" data-name="그룹 24329" transform="translate(-70.5 -6758.934)">
    <path id="패스_28971" data-name="패스 28971" class="cls-4" d="M362.474,6938.02h1.892c2.465,0,3.675,1.529,3.675,3.982s-1.21,4.037-3.664,4.037h-1.9Zm1.826,7.459c2.112,0,3.048-1.4,3.048-3.477s-.936-3.434-3.048-3.434h-1.166v6.911Z"/>
  </g>
  <path id="패스_28972" data-name="패스 28972" class="cls-6" d="M384,6949.2a7,7,0,1,0-7-7,7,7,0,0,0,7,7" transform="translate(-70.5 -6758.934)"/>
  <g id="그룹_24330" data-name="그룹 24330" transform="translate(-70.5 -6758.934)">
    <path id="패스_28973" data-name="패스 28973" class="cls-4" d="M382.244,6938.02h4.423v.56H382.9v3.092h3.179v.56H382.9v3.807h-.66Z"/>
  </g>
  <rect id="사각형_387" data-name="사각형 387" class="cls-2" width="169.5" height="49.5" transform="translate(408.002 56.906)"/>
  <line id="선_1083" data-name="선 1083" class="cls-12" x2="160" transform="translate(412.752 80.085)"/>
  <g id="그룹_24331" data-name="그룹 24331" transform="translate(-70.5 -6758.934)">
    <path id="패스_28974" data-name="패스 28974" class="cls-6" d="M494.017,6824.34h2.717c2.145,0,3.575.715,3.575,2.795,0,2.015-1.43,2.951-3.51,2.951h-1.573v3.783h-1.209Zm2.626,4.771c1.677,0,2.47-.611,2.47-1.976s-.845-1.821-2.522-1.821h-1.365v3.8Z"/>
    <path id="패스_28975" data-name="패스 28975" class="cls-6" d="M501.934,6826.811h.975l.1,1.286h.039a2.436,2.436,0,0,1,2-1.469,1.513,1.513,0,0,1,.754.155l-.221,1.041a1.65,1.65,0,0,0-.689-.117c-.585,0-1.313.416-1.781,1.625v4.537h-1.183Z"/>
    <path id="패스_28976" data-name="패스 28976" class="cls-6" d="M506.367,6830.346c0-2.353,1.547-3.718,3.276-3.718s3.276,1.365,3.276,3.718a3.3,3.3,0,1,1-6.552,0Zm5.33,0c0-1.625-.832-2.731-2.054-2.731s-2.041,1.106-2.041,2.731.819,2.7,2.041,2.7S511.7,6831.971,511.7,6830.346Z"/>
    <path id="패스_28977" data-name="패스 28977" class="cls-6" d="M514.283,6830.346c0-2.287,1.444-3.718,3.055-3.718a2.87,2.87,0,0,1,1.99.832l-.065-1.222v-2.717h1.182v10.348h-.962l-.117-.832h-.026a3.147,3.147,0,0,1-2.145,1C515.427,6834.038,514.283,6832.7,514.283,6830.346Zm4.98,1.729v-3.705a2.48,2.48,0,0,0-1.717-.741c-1.144,0-2.041,1.092-2.041,2.7,0,1.7.7,2.718,1.951,2.718A2.43,2.43,0,0,0,519.263,6832.075Z"/>
    <path id="패스_28978" data-name="패스 28978" class="cls-6" d="M522.59,6831.282v-4.471h1.183v4.328c0,1.313.391,1.873,1.327,1.873.728,0,1.234-.352,1.911-1.2v-5h1.182v7.058h-.987l-.091-1.1h-.039a3.031,3.031,0,0,1-2.341,1.274C523.253,6834.038,522.59,6833.076,522.59,6831.282Z"/>
    <path id="패스_28979" data-name="패스 28979" class="cls-6" d="M529.961,6830.346a3.438,3.438,0,0,1,3.407-3.718,3.019,3.019,0,0,1,2.067.832l-.611.793a2.05,2.05,0,0,0-1.418-.638c-1.274,0-2.21,1.106-2.21,2.731s.885,2.7,2.184,2.7a2.488,2.488,0,0,0,1.664-.7l.508.793a3.367,3.367,0,0,1-2.276.9C531.4,6834.038,529.961,6832.686,529.961,6830.346Z"/>
    <path id="패스_28980" data-name="패스 28980" class="cls-6" d="M537.553,6831.686v-3.915H536.5v-.9l1.1-.064.143-1.977h.988v1.977h1.911v.96h-1.911v3.94c0,.871.273,1.365,1.092,1.365a2.53,2.53,0,0,0,.806-.181l.234.883a4.432,4.432,0,0,1-1.3.26C538.06,6834.038,537.553,6833.1,537.553,6831.686Z"/>
    <path id="패스_28981" data-name="패스 28981" class="cls-6" d="M545.158,6826.811h.975l.1,1.026h.039a3.1,3.1,0,0,1,2.2-1.209,1.862,1.862,0,0,1,1.95,1.352,3.341,3.341,0,0,1,2.327-1.352c1.456,0,2.146.962,2.146,2.768v4.473h-1.184v-4.316c0-1.326-.416-1.885-1.313-1.885a2.611,2.611,0,0,0-1.781,1.079v5.122h-1.183v-4.316c0-1.326-.416-1.885-1.313-1.885a2.611,2.611,0,0,0-1.781,1.079v5.122h-1.183Z"/>
    <path id="패스_28982" data-name="패스 28982" class="cls-6" d="M556.585,6832.036c0-1.534,1.339-2.3,4.342-2.64,0-.91-.3-1.781-1.456-1.781a3.89,3.89,0,0,0-2.119.755l-.468-.819a5.31,5.31,0,0,1,2.782-.923c1.716,0,2.444,1.157,2.444,2.9v4.342h-.975l-.1-.846h-.039a3.777,3.777,0,0,1-2.34,1.015A1.913,1.913,0,0,1,556.585,6832.036Zm4.342.117v-1.976c-2.379.286-3.185.871-3.185,1.781,0,.806.546,1.131,1.248,1.131A2.884,2.884,0,0,0,560.927,6832.153Z"/>
    <path id="패스_28983" data-name="패스 28983" class="cls-6" d="M564.229,6826.811h.975l.1,1.013h.039a3.385,3.385,0,0,1,2.366-1.2c1.482,0,2.158.962,2.158,2.768v4.473h-1.183v-4.316c0-1.326-.4-1.885-1.339-1.885a2.68,2.68,0,0,0-1.937,1.079v5.122h-1.183Z"/>
    <path id="패스_28984" data-name="패스 28984" class="cls-6" d="M571.937,6831.282v-4.471h1.184v4.328c0,1.313.39,1.873,1.326,1.873.728,0,1.235-.352,1.911-1.2v-5h1.183v7.058h-.988l-.091-1.1h-.039a3.029,3.029,0,0,1-2.34,1.274C572.6,6834.038,571.937,6833.076,571.937,6831.282Z"/>
    <path id="패스_28985" data-name="패스 28985" class="cls-6" d="M582.949,6824.482a2.011,2.011,0,0,0-.793-.181c-.677,0-1,.48-1,1.39v1.12h1.495v.96h-1.495v6.1h-1.183v-6.1h-.962v-.9l.962-.064v-1.132c0-1.43.65-2.327,2.054-2.327a3.093,3.093,0,0,1,1.183.234Z"/>
    <path id="패스_28986" data-name="패스 28986" class="cls-6" d="M583.6,6832.036c0-1.534,1.339-2.3,4.342-2.64,0-.91-.3-1.781-1.456-1.781a3.89,3.89,0,0,0-2.119.755l-.468-.819a5.309,5.309,0,0,1,2.782-.923c1.716,0,2.444,1.157,2.444,2.9v4.342h-.975l-.1-.846h-.039a3.777,3.777,0,0,1-2.34,1.015A1.913,1.913,0,0,1,583.6,6832.036Zm4.342.117v-1.976c-2.379.286-3.185.871-3.185,1.781,0,.806.546,1.131,1.248,1.131A2.883,2.883,0,0,0,587.941,6832.153Z"/>
    <path id="패스_28987" data-name="패스 28987" class="cls-6" d="M590.8,6830.346a3.437,3.437,0,0,1,3.406-3.718,3.018,3.018,0,0,1,2.067.832l-.611.793a2.05,2.05,0,0,0-1.417-.638c-1.274,0-2.21,1.106-2.21,2.731s.884,2.7,2.184,2.7a2.49,2.49,0,0,0,1.664-.7l.507.793a3.367,3.367,0,0,1-2.275.9C592.244,6834.038,590.8,6832.686,590.8,6830.346Z"/>
    <path id="패스_28988" data-name="패스 28988" class="cls-6" d="M598.393,6831.686v-3.915h-1.054v-.9l1.1-.064.143-1.977h.988v1.977h1.911v.96h-1.911v3.94c0,.871.274,1.365,1.092,1.365a2.536,2.536,0,0,0,.807-.181l.234.883a4.439,4.439,0,0,1-1.3.26C598.9,6834.038,598.393,6833.1,598.393,6831.686Z"/>
    <path id="패스_28989" data-name="패스 28989" class="cls-6" d="M602.9,6831.282v-4.471h1.183v4.328c0,1.313.391,1.873,1.327,1.873.728,0,1.234-.352,1.911-1.2v-5h1.183v7.058h-.988l-.091-1.1h-.039a3.031,3.031,0,0,1-2.341,1.274C603.566,6834.038,602.9,6833.076,602.9,6831.282Z"/>
    <path id="패스_28990" data-name="패스 28990" class="cls-6" d="M610.7,6826.811h.975l.1,1.286h.039a2.436,2.436,0,0,1,2-1.469,1.517,1.517,0,0,1,.755.155l-.222,1.041a1.644,1.644,0,0,0-.689-.117c-.584,0-1.313.416-1.781,1.625v4.537H610.7Z"/>
    <path id="패스_28991" data-name="패스 28991" class="cls-6" d="M615.591,6824.587a.821.821,0,0,1,1.638,0,.821.821,0,0,1-1.638,0Zm.221,2.224h1.183v7.058h-1.183Z"/>
    <path id="패스_28992" data-name="패스 28992" class="cls-6" d="M619.192,6826.811h.975l.1,1.013h.039a3.385,3.385,0,0,1,2.366-1.2c1.482,0,2.158.962,2.158,2.768v4.473h-1.183v-4.316c0-1.326-.4-1.885-1.339-1.885a2.68,2.68,0,0,0-1.937,1.079v5.122h-1.183Z"/>
    <path id="패스_28993" data-name="패스 28993" class="cls-6" d="M626.433,6835.221a2,2,0,0,1,1.053-1.6v-.052a1.273,1.273,0,0,1-.65-1.157,1.72,1.72,0,0,1,.793-1.313v-.052a2.478,2.478,0,0,1-.923-1.9,2.515,2.515,0,0,1,2.652-2.522,2.881,2.881,0,0,1,.988.183H632.8v.909H631.36a2.014,2.014,0,0,1,.573,1.456,2.421,2.421,0,0,1-2.575,2.457,2.472,2.472,0,0,1-1.053-.246,1.046,1.046,0,0,0-.455.843c0,.456.286.768,1.235.768h1.378c1.639,0,2.457.52,2.457,1.678,0,1.312-1.378,2.443-3.562,2.443C627.629,6837.119,626.433,6836.443,626.433,6835.221Zm5.343-.364c0-.65-.506-.871-1.443-.871h-1.222a4,4,0,0,1-.91-.117,1.488,1.488,0,0,0-.728,1.2c0,.754.767,1.248,2.054,1.248C630.879,6836.313,631.776,6835.6,631.776,6834.857Zm-.922-5.707a1.509,1.509,0,1,0-3,0,1.511,1.511,0,1,0,3,0Z"/>
  </g>
  <path id="패스_28994" data-name="패스 28994" class="cls-6" d="M544.252,6858.75a7,7,0,1,0-7-7,7,7,0,0,0,7,7" transform="translate(-70.5 -6758.934)"/>
  <g id="그룹_24332" data-name="그룹 24332" transform="translate(-70.5 -6758.934)">
    <path id="패스_28995" data-name="패스 28995" class="cls-4" d="M541.887,6847.568H544.1c1.617,0,2.673.594,2.673,1.948a1.725,1.725,0,0,1-1.231,1.75v.054a1.86,1.86,0,0,1,1.716,1.926c0,1.551-1.189,2.343-2.993,2.343h-2.376Zm2,3.5c1.585,0,2.222-.561,2.222-1.474,0-1.089-.736-1.486-2.156-1.486h-1.408v2.96Zm.22,3.972c1.552,0,2.5-.551,2.5-1.793,0-1.123-.9-1.65-2.5-1.65h-1.562v3.443Z"/>
  </g>
  <path id="패스_28996" data-name="패스 28996" class="cls-6" d="M563.252,6858.75a7,7,0,1,0-7-7,7,7,0,0,0,7,7" transform="translate(-70.5 -6758.934)"/>
  <g id="그룹_24333" data-name="그룹 24333" transform="translate(-70.5 -6758.934)">
    <path id="패스_28997" data-name="패스 28997" class="cls-4" d="M560.722,6847.568h1.892c2.465,0,3.675,1.53,3.675,3.983s-1.21,4.038-3.664,4.038h-1.9Zm1.826,7.459c2.112,0,3.048-1.4,3.048-3.476s-.936-3.432-3.048-3.432h-1.166v6.908Z"/>
  </g>
  <path id="패스_28998" data-name="패스 28998" class="cls-6" d="M582.252,6858.75a7,7,0,1,0-7-7,7,7,0,0,0,7,7" transform="translate(-70.5 -6758.934)"/>
  <g id="그룹_24334" data-name="그룹 24334" transform="translate(-70.5 -6758.934)">
    <path id="패스_28999" data-name="패스 28999" class="cls-4" d="M580.492,6847.568h4.423v.562h-3.763v3.091h3.18v.561h-3.18v3.807h-.66Z"/>
  </g>
  <line id="선_1084" data-name="선 1084" class="cls-12" x2="160" transform="translate(611 80.085)"/>
  <g id="그룹_24335" data-name="그룹 24335" transform="translate(-70.5 -6758.934)">
    <path id="패스_29000" data-name="패스 29000" class="cls-6" d="M717.486,6833.869l-2.314-4.043h-1.715v4.043h-1.21v-9.529h2.99c1.937,0,3.328.689,3.328,2.678a2.582,2.582,0,0,1-2.158,2.677l2.445,4.174Zm-4.029-5.017h1.6c1.494,0,2.314-.6,2.314-1.834,0-1.261-.82-1.7-2.314-1.7h-1.6Z"/>
    <path id="패스_29001" data-name="패스 29001" class="cls-6" d="M719.722,6830.346a3.415,3.415,0,0,1,3.185-3.718c1.794,0,2.808,1.3,2.808,3.315a4.619,4.619,0,0,1-.052.676h-4.758a2.339,2.339,0,0,0,2.34,2.47,3.043,3.043,0,0,0,1.768-.559l.429.781a4.21,4.21,0,0,1-2.34.727A3.374,3.374,0,0,1,719.722,6830.346Zm4.953-.573c0-1.429-.65-2.2-1.755-2.2a2.171,2.171,0,0,0-2.028,2.2Z"/>
    <path id="패스_29002" data-name="패스 29002" class="cls-6" d="M727.431,6826.811h.975l.1,1.013h.039a3.385,3.385,0,0,1,2.366-1.2c1.482,0,2.158.962,2.158,2.768v4.473H731.89v-4.316c0-1.326-.4-1.885-1.339-1.885a2.68,2.68,0,0,0-1.937,1.079v5.122h-1.183Z"/>
    <path id="패스_29003" data-name="패스 29003" class="cls-6" d="M735.413,6831.686v-3.915H734.36v-.9l1.105-.064.143-1.977h.988v1.977h1.911v.96H736.6v3.94c0,.871.273,1.365,1.092,1.365a2.53,2.53,0,0,0,.806-.181l.234.883a4.433,4.433,0,0,1-1.3.26C735.92,6834.038,735.413,6833.1,735.413,6831.686Z"/>
    <path id="패스_29004" data-name="패스 29004" class="cls-6" d="M739.69,6832.036c0-1.534,1.339-2.3,4.342-2.64,0-.91-.3-1.781-1.456-1.781a3.89,3.89,0,0,0-2.119.755l-.468-.819a5.309,5.309,0,0,1,2.782-.923c1.716,0,2.444,1.157,2.444,2.9v4.342h-.975l-.1-.846H744.1a3.777,3.777,0,0,1-2.34,1.015A1.913,1.913,0,0,1,739.69,6832.036Zm4.342.117v-1.976c-2.379.286-3.185.871-3.185,1.781,0,.806.546,1.131,1.248,1.131A2.883,2.883,0,0,0,744.032,6832.153Z"/>
    <path id="패스_29005" data-name="패스 29005" class="cls-6" d="M747.321,6832.465v-8.944H748.5v9.022c0,.364.156.508.338.508a.973.973,0,0,0,.247-.028l.169.911a1.87,1.87,0,0,1-.689.1C747.685,6834.038,747.321,6833.467,747.321,6832.465Z"/>
    <path id="패스_29006" data-name="패스 29006" class="cls-6" d="M753.5,6832.036c0-1.534,1.339-2.3,4.342-2.64,0-.91-.3-1.781-1.456-1.781a3.89,3.89,0,0,0-2.119.755l-.468-.819a5.31,5.31,0,0,1,2.782-.923c1.716,0,2.444,1.157,2.444,2.9v4.342h-.975l-.1-.846H757.9a3.777,3.777,0,0,1-2.34,1.015A1.913,1.913,0,0,1,753.5,6832.036Zm4.342.117v-1.976c-2.379.286-3.185.871-3.185,1.781,0,.806.546,1.131,1.248,1.131A2.884,2.884,0,0,0,757.838,6832.153Z"/>
    <path id="패스_29007" data-name="패스 29007" class="cls-6" d="M761.14,6826.811h.975l.1,1.013h.039a3.385,3.385,0,0,1,2.366-1.2c1.482,0,2.158.962,2.158,2.768v4.473H765.6v-4.316c0-1.326-.4-1.885-1.339-1.885a2.68,2.68,0,0,0-1.937,1.079v5.122H761.14Z"/>
    <path id="패스_29008" data-name="패스 29008" class="cls-6" d="M768.523,6830.346c0-2.287,1.444-3.718,3.056-3.718a2.868,2.868,0,0,1,1.989.832l-.065-1.222v-2.717h1.183v10.348h-.962l-.118-.832h-.025a3.151,3.151,0,0,1-2.145,1C769.667,6834.038,768.523,6832.7,768.523,6830.346Zm4.98,1.729v-3.705a2.478,2.478,0,0,0-1.716-.741c-1.144,0-2.041,1.092-2.041,2.7,0,1.7.7,2.718,1.95,2.718A2.429,2.429,0,0,0,773.5,6832.075Z"/>
    <path id="패스_29009" data-name="패스 29009" class="cls-6" d="M779.417,6832.621l.716-.818a3.743,3.743,0,0,0,2.639,1.182c1.248,0,2-.624,2-1.56,0-.975-.689-1.286-1.586-1.691l-1.378-.6a2.693,2.693,0,0,1-1.937-2.444c0-1.469,1.273-2.535,3-2.535a3.909,3.909,0,0,1,2.808,1.183l-.637.766a3.1,3.1,0,0,0-2.171-.9c-1.079,0-1.781.546-1.781,1.4,0,.923.832,1.274,1.573,1.586l1.365.585a2.655,2.655,0,0,1,1.963,2.548c0,1.508-1.248,2.7-3.237,2.7A4.557,4.557,0,0,1,779.417,6832.621Z"/>
    <path id="패스_29010" data-name="패스 29010" class="cls-6" d="M787.347,6832.036c0-1.534,1.34-2.3,4.342-2.64,0-.91-.3-1.781-1.456-1.781a3.893,3.893,0,0,0-2.119.755l-.468-.819a5.31,5.31,0,0,1,2.782-.923c1.717,0,2.445,1.157,2.445,2.9v4.342H791.9l-.1-.846h-.039a3.775,3.775,0,0,1-2.339,1.015A1.914,1.914,0,0,1,787.347,6832.036Zm4.342.117v-1.976c-2.378.286-3.185.871-3.185,1.781,0,.806.546,1.131,1.248,1.131A2.884,2.884,0,0,0,791.689,6832.153Z"/>
    <path id="패스_29011" data-name="패스 29011" class="cls-6" d="M794.979,6832.465v-8.944h1.182v9.022c0,.364.156.508.339.508a.969.969,0,0,0,.246-.028l.17.911a1.878,1.878,0,0,1-.689.1C795.342,6834.038,794.979,6833.467,794.979,6832.465Z"/>
    <path id="패스_29012" data-name="패스 29012" class="cls-6" d="M797.981,6830.346a3.415,3.415,0,0,1,3.185-3.718c1.794,0,2.808,1.3,2.808,3.315a4.619,4.619,0,0,1-.052.676h-4.758a2.339,2.339,0,0,0,2.34,2.47,3.042,3.042,0,0,0,1.768-.559l.429.781a4.21,4.21,0,0,1-2.34.727A3.374,3.374,0,0,1,797.981,6830.346Zm4.953-.573c0-1.429-.65-2.2-1.755-2.2a2.171,2.171,0,0,0-2.028,2.2Z"/>
    <path id="패스_29013" data-name="패스 29013" class="cls-6" d="M804.949,6833.063l.585-.78a3.2,3.2,0,0,0,2.093.832c.936,0,1.391-.494,1.391-1.105,0-.715-.832-1.039-1.612-1.339-.988-.364-2.106-.845-2.106-2.041,0-1.118.9-2,2.431-2a3.659,3.659,0,0,1,2.2.793l-.572.767a2.658,2.658,0,0,0-1.625-.624c-.884,0-1.287.467-1.287,1.014,0,.676.767.923,1.56,1.222,1.027.389,2.158.805,2.158,2.145,0,1.144-.91,2.093-2.574,2.093A4.258,4.258,0,0,1,804.949,6833.063Z"/>
  </g>
  <path id="패스_29014" data-name="패스 29014" class="cls-6" d="M733,6858.75a7,7,0,1,0-7-7,7,7,0,0,0,7,7" transform="translate(-70.5 -6758.934)"/>
  <g id="그룹_24336" data-name="그룹 24336" transform="translate(-70.5 -6758.934)">
    <path id="패스_29015" data-name="패스 29015" class="cls-4" d="M734.558,6852.894h-3.125l-.913,2.695h-.66l2.806-8.021h.682l2.8,8.021h-.7Zm-.176-.529-.485-1.452c-.33-.934-.593-1.782-.879-2.751h-.044c-.276.969-.551,1.817-.87,2.751l-.495,1.452Z"/>
  </g>
  <path id="패스_29016" data-name="패스 29016" class="cls-6" d="M752,6858.75a7,7,0,1,0-7-7,7,7,0,0,0,7,7" transform="translate(-70.5 -6758.934)"/>
  <g id="그룹_24337" data-name="그룹 24337" transform="translate(-70.5 -6758.934)">
    <path id="패스_29017" data-name="패스 29017" class="cls-4" d="M749.47,6847.568h1.893c2.464,0,3.674,1.53,3.674,3.983s-1.21,4.038-3.663,4.038h-1.9Zm1.827,7.459c2.112,0,3.047-1.4,3.047-3.476s-.935-3.432-3.047-3.432H750.13v6.908Z"/>
  </g>
  <path id="패스_29018" data-name="패스 29018" class="cls-6" d="M771,6858.75a7,7,0,1,0-7-7,7,7,0,0,0,7,7" transform="translate(-70.5 -6758.934)"/>
  <g id="그룹_24338" data-name="그룹 24338" transform="translate(-70.5 -6758.934)">
    <path id="패스_29019" data-name="패스 29019" class="cls-4" d="M769.015,6847.568h4.433v.562h-3.773v2.927h3.179v.56h-3.179v3.4h3.894v.572h-4.554Z"/>
  </g>
  <path id="패스_29020" data-name="패스 29020" class="cls-6" d="M790,6858.75a7,7,0,1,0-7-7,7,7,0,0,0,7,7" transform="translate(-70.5 -6758.934)"/>
  <g id="그룹_24339" data-name="그룹 24339" transform="translate(-70.5 -6758.934)">
    <path id="패스_29021" data-name="패스 29021" class="cls-4" d="M786.959,6851.573c0-2.563,1.463-4.147,3.576-4.147a2.951,2.951,0,0,1,2.222.969l-.385.427a2.349,2.349,0,0,0-1.827-.8c-1.782,0-2.893,1.364-2.893,3.531,0,2.189,1.045,3.587,2.849,3.587a2.489,2.489,0,0,0,1.706-.572v-2.41h-1.859v-.56h2.5v3.222a3.254,3.254,0,0,1-2.409.914C788.367,6855.732,786.959,6854.137,786.959,6851.573Z"/>
  </g>
  <line id="선_1085" data-name="선 1085" class="cls-12" x2="160" transform="translate(611 154.335)"/>
  <g id="그룹_24340" data-name="그룹 24340" transform="translate(-70.5 -6758.934)">
    <path id="패스_29022" data-name="패스 29022" class="cls-6" d="M728.947,6898.59h1.209v3.991H734.6v-3.991h1.2v9.529h-1.2v-4.5h-4.446v4.5h-1.209Z"/>
    <path id="패스_29023" data-name="패스 29023" class="cls-6" d="M737.683,6904.6c0-2.353,1.547-3.718,3.276-3.718s3.276,1.365,3.276,3.718a3.3,3.3,0,1,1-6.552,0Zm5.33,0c0-1.625-.832-2.731-2.054-2.731s-2.041,1.106-2.041,2.731.819,2.7,2.041,2.7S743.013,6906.221,743.013,6904.6Z"/>
    <path id="패스_29024" data-name="패스 29024" class="cls-6" d="M746.016,6901.061h.975l.1,1.026h.039a3.1,3.1,0,0,1,2.2-1.209,1.862,1.862,0,0,1,1.95,1.352,3.341,3.341,0,0,1,2.327-1.352c1.456,0,2.145.962,2.145,2.768v4.473H754.57V6903.8c0-1.326-.416-1.885-1.313-1.885a2.611,2.611,0,0,0-1.781,1.079v5.122h-1.183V6903.8c0-1.326-.416-1.885-1.313-1.885A2.611,2.611,0,0,0,747.2,6903v5.122h-1.183Z"/>
    <path id="패스_29025" data-name="패스 29025" class="cls-6" d="M757.469,6904.6a3.415,3.415,0,0,1,3.185-3.718c1.794,0,2.808,1.3,2.808,3.315a4.619,4.619,0,0,1-.052.676h-4.758a2.338,2.338,0,0,0,2.34,2.47,3.043,3.043,0,0,0,1.768-.559l.429.781a4.21,4.21,0,0,1-2.34.727A3.374,3.374,0,0,1,757.469,6904.6Zm4.953-.573c0-1.429-.65-2.2-1.755-2.2a2.171,2.171,0,0,0-2.028,2.2Z"/>
    <path id="패스_29026" data-name="패스 29026" class="cls-6" d="M767.673,6903.361c0-3.082,1.807-4.953,4.225-4.953a3.524,3.524,0,0,1,2.614,1.183l-.65.78a2.6,2.6,0,0,0-1.95-.91c-1.808,0-3,1.482-3,3.861,0,2.405,1.144,3.913,2.964,3.913a2.9,2.9,0,0,0,2.21-1.066l.663.754a3.684,3.684,0,0,1-2.925,1.365C769.455,6908.288,767.673,6906.455,767.673,6903.361Z"/>
    <path id="패스_29027" data-name="패스 29027" class="cls-6" d="M776.045,6906.286c0-1.534,1.34-2.3,4.343-2.64,0-.91-.3-1.781-1.456-1.781a3.9,3.9,0,0,0-2.12.755l-.467-.819a5.309,5.309,0,0,1,2.781-.923c1.717,0,2.445,1.157,2.445,2.9v4.342H780.6l-.1-.846h-.039a3.78,3.78,0,0,1-2.34,1.015A1.914,1.914,0,0,1,776.045,6906.286Zm4.343.117v-1.976c-2.379.286-3.185.871-3.185,1.781,0,.806.546,1.131,1.248,1.131A2.884,2.884,0,0,0,780.388,6906.4Z"/>
    <path id="패스_29028" data-name="패스 29028" class="cls-6" d="M783.689,6901.061h.975l.1,1.286h.039a2.436,2.436,0,0,1,2-1.469,1.512,1.512,0,0,1,.753.155l-.221,1.041a1.649,1.649,0,0,0-.689-.117c-.585,0-1.313.416-1.781,1.625v4.537h-1.183Z"/>
    <path id="패스_29029" data-name="패스 29029" class="cls-6" d="M788.122,6904.6a3.415,3.415,0,0,1,3.185-3.718c1.794,0,2.808,1.3,2.808,3.315a4.619,4.619,0,0,1-.052.676H789.3a2.339,2.339,0,0,0,2.34,2.47,3.043,3.043,0,0,0,1.768-.559l.429.781a4.21,4.21,0,0,1-2.34.727A3.374,3.374,0,0,1,788.122,6904.6Zm4.953-.573c0-1.429-.65-2.2-1.755-2.2a2.171,2.171,0,0,0-2.028,2.2Z"/>
  </g>
  <path id="패스_29030" data-name="패스 29030" class="cls-6" d="M752,6933a7,7,0,1,0-7-7,7,7,0,0,0,7,7" transform="translate(-70.5 -6758.934)"/>
  <g id="그룹_24341" data-name="그룹 24341" transform="translate(-70.5 -6758.934)">
    <path id="패스_29031" data-name="패스 29031" class="cls-4" d="M753.558,6927.144h-3.125l-.913,2.695h-.66l2.806-8.021h.682l2.8,8.021h-.7Zm-.176-.529-.485-1.452c-.33-.934-.593-1.782-.879-2.751h-.044c-.276.969-.551,1.817-.87,2.751l-.495,1.452Z"/>
  </g>
  <path id="패스_29032" data-name="패스 29032" class="cls-6" d="M771,6933a7,7,0,1,0-7-7,7,7,0,0,0,7,7" transform="translate(-70.5 -6758.934)"/>
  <g id="그룹_24342" data-name="그룹 24342" transform="translate(-70.5 -6758.934)">
    <path id="패스_29033" data-name="패스 29033" class="cls-4" d="M767.959,6925.823c0-2.563,1.463-4.147,3.576-4.147a2.951,2.951,0,0,1,2.222.969l-.385.427a2.349,2.349,0,0,0-1.827-.8c-1.782,0-2.893,1.364-2.893,3.531,0,2.189,1.045,3.587,2.849,3.587a2.489,2.489,0,0,0,1.706-.572v-2.41h-1.859v-.56h2.5v3.222a3.254,3.254,0,0,1-2.409.914C769.367,6929.982,767.959,6928.387,767.959,6925.823Z"/>
  </g>
  <rect id="사각형_388" data-name="사각형 388" class="cls-2" width="169.5" height="49.5" transform="translate(606.25 202.906)"/>
  <line id="선_1086" data-name="선 1086" class="cls-12" x2="160" transform="translate(611 226.085)"/>
  <g id="그룹_24343" data-name="그룹 24343" transform="translate(-70.5 -6758.934)">
    <path id="패스_29034" data-name="패스 29034" class="cls-6" d="M701.873,6975.111c0-3.082,1.807-4.953,4.225-4.953a3.522,3.522,0,0,1,2.613,1.183l-.649.78a2.606,2.606,0,0,0-1.951-.91c-1.807,0-3,1.482-3,3.861,0,2.405,1.144,3.913,2.964,3.913a2.9,2.9,0,0,0,2.21-1.066l.663.754a3.683,3.683,0,0,1-2.924,1.365C703.654,6980.038,701.873,6978.205,701.873,6975.111Z"/>
    <path id="패스_29035" data-name="패스 29035" class="cls-6" d="M710.375,6977.282v-4.471h1.183v4.328c0,1.313.39,1.873,1.326,1.873.728,0,1.235-.352,1.911-1.2v-5h1.184v7.058h-.989l-.091-1.1h-.039a3.029,3.029,0,0,1-2.34,1.274C711.038,6980.038,710.375,6979.076,710.375,6977.282Z"/>
    <path id="패스_29036" data-name="패스 29036" class="cls-6" d="M717.473,6979.063l.585-.78a3.2,3.2,0,0,0,2.093.832c.936,0,1.391-.494,1.391-1.105,0-.715-.832-1.039-1.612-1.339-.988-.364-2.106-.845-2.106-2.041,0-1.118.9-2,2.431-2a3.66,3.66,0,0,1,2.2.793l-.572.767a2.657,2.657,0,0,0-1.625-.624c-.884,0-1.287.467-1.287,1.014,0,.676.767.923,1.56,1.222,1.027.389,2.158.805,2.158,2.145,0,1.144-.91,2.093-2.574,2.093A4.257,4.257,0,0,1,717.473,6979.063Z"/>
    <path id="패스_29037" data-name="패스 29037" class="cls-6" d="M724.675,6977.686v-3.915h-1.053v-.9l1.1-.064.143-1.977h.987v1.977h1.912v.96h-1.912v3.94c0,.871.274,1.365,1.093,1.365a2.536,2.536,0,0,0,.806-.181l.234.883a4.432,4.432,0,0,1-1.3.26C725.182,6980.038,724.675,6979.1,724.675,6977.686Z"/>
    <path id="패스_29038" data-name="패스 29038" class="cls-6" d="M728.614,6976.346c0-2.353,1.547-3.718,3.276-3.718s3.276,1.365,3.276,3.718a3.3,3.3,0,1,1-6.552,0Zm5.33,0c0-1.625-.832-2.731-2.054-2.731s-2.041,1.106-2.041,2.731.819,2.7,2.041,2.7S733.944,6977.971,733.944,6976.346Z"/>
    <path id="패스_29039" data-name="패스 29039" class="cls-6" d="M736.946,6972.811h.975l.1,1.026h.039a3.106,3.106,0,0,1,2.2-1.209,1.862,1.862,0,0,1,1.95,1.352,3.341,3.341,0,0,1,2.327-1.352c1.456,0,2.145.962,2.145,2.768v4.473H745.5v-4.316c0-1.326-.416-1.885-1.313-1.885a2.611,2.611,0,0,0-1.781,1.079v5.122h-1.183v-4.316c0-1.326-.416-1.885-1.313-1.885a2.613,2.613,0,0,0-1.782,1.079v5.122h-1.183Z"/>
    <path id="패스_29040" data-name="패스 29040" class="cls-6" d="M748.4,6976.346a3.415,3.415,0,0,1,3.185-3.718c1.794,0,2.809,1.3,2.809,3.315a4.619,4.619,0,0,1-.052.676h-4.758a2.338,2.338,0,0,0,2.339,2.47,3.043,3.043,0,0,0,1.768-.559l.43.781a4.211,4.211,0,0,1-2.341.727A3.374,3.374,0,0,1,748.4,6976.346Zm4.954-.573c0-1.429-.65-2.2-1.755-2.2a2.172,2.172,0,0,0-2.029,2.2Z"/>
    <path id="패스_29041" data-name="패스 29041" class="cls-6" d="M756.108,6972.811h.975l.1,1.286h.039a2.436,2.436,0,0,1,2-1.469,1.512,1.512,0,0,1,.753.155l-.221,1.041a1.649,1.649,0,0,0-.689-.117c-.585,0-1.313.416-1.781,1.625v4.537h-1.183Z"/>
    <path id="패스_29042" data-name="패스 29042" class="cls-6" d="M769.407,6979.869l-2.314-4.043h-1.716v4.043h-1.209v-9.529h2.99c1.937,0,3.328.689,3.328,2.678a2.583,2.583,0,0,1-2.158,2.677l2.444,4.174Zm-4.03-5.017h1.6c1.494,0,2.314-.6,2.314-1.834,0-1.261-.82-1.7-2.314-1.7h-1.6Z"/>
    <path id="패스_29043" data-name="패스 29043" class="cls-6" d="M771.643,6976.346a3.415,3.415,0,0,1,3.185-3.718c1.794,0,2.808,1.3,2.808,3.315a4.619,4.619,0,0,1-.052.676h-4.758a2.339,2.339,0,0,0,2.34,2.47,3.043,3.043,0,0,0,1.768-.559l.429.781a4.21,4.21,0,0,1-2.34.727A3.374,3.374,0,0,1,771.643,6976.346Zm4.953-.573c0-1.429-.65-2.2-1.755-2.2a2.171,2.171,0,0,0-2.028,2.2Z"/>
    <path id="패스_29044" data-name="패스 29044" class="cls-6" d="M778.611,6979.063l.585-.78a3.2,3.2,0,0,0,2.093.832c.936,0,1.391-.494,1.391-1.105,0-.715-.832-1.039-1.612-1.339-.988-.364-2.106-.845-2.106-2.041,0-1.118.9-2,2.431-2a3.66,3.66,0,0,1,2.2.793l-.572.767a2.657,2.657,0,0,0-1.625-.624c-.884,0-1.287.467-1.287,1.014,0,.676.767.923,1.56,1.222,1.027.389,2.158.805,2.158,2.145,0,1.144-.91,2.093-2.574,2.093A4.257,4.257,0,0,1,778.611,6979.063Z"/>
    <path id="패스_29045" data-name="패스 29045" class="cls-6" d="M785.41,6972.811h.975l.1.8h.039a3.769,3.769,0,0,1,2.249-.987c1.82,0,2.808,1.431,2.808,3.6,0,2.417-1.443,3.809-3.068,3.809a3.187,3.187,0,0,1-1.95-.819l.026,1.235v2.392H785.41Zm4.94,3.431c0-1.56-.52-2.613-1.859-2.613a2.942,2.942,0,0,0-1.9.975v3.705a2.738,2.738,0,0,0,1.729.742C789.492,6979.051,790.35,6978,790.35,6976.242Z"/>
    <path id="패스_29046" data-name="패스 29046" class="cls-6" d="M792.937,6976.346c0-2.353,1.546-3.718,3.275-3.718s3.277,1.365,3.277,3.718a3.3,3.3,0,1,1-6.552,0Zm5.33,0c0-1.625-.832-2.731-2.055-2.731s-2.041,1.106-2.041,2.731.82,2.7,2.041,2.7S798.267,6977.971,798.267,6976.346Z"/>
    <path id="패스_29047" data-name="패스 29047" class="cls-6" d="M801.27,6972.811h.974l.1,1.013h.039a3.387,3.387,0,0,1,2.366-1.2c1.482,0,2.159.962,2.159,2.768v4.473h-1.183v-4.316c0-1.326-.4-1.885-1.339-1.885a2.68,2.68,0,0,0-1.938,1.079v5.122H801.27Z"/>
    <path id="패스_29048" data-name="패스 29048" class="cls-6" d="M808.328,6979.063l.585-.78a3.2,3.2,0,0,0,2.093.832c.936,0,1.391-.494,1.391-1.105,0-.715-.832-1.039-1.612-1.339-.988-.364-2.106-.845-2.106-2.041,0-1.118.9-2,2.431-2a3.662,3.662,0,0,1,2.2.793l-.573.767a2.655,2.655,0,0,0-1.625-.624c-.883,0-1.287.467-1.287,1.014,0,.676.767.923,1.56,1.222,1.028.389,2.159.805,2.159,2.145,0,1.144-.911,2.093-2.575,2.093A4.257,4.257,0,0,1,808.328,6979.063Z"/>
    <path id="패스_29049" data-name="패스 29049" class="cls-6" d="M814.7,6976.346a3.415,3.415,0,0,1,3.185-3.718c1.794,0,2.808,1.3,2.808,3.315a4.637,4.637,0,0,1-.051.676h-4.759a2.339,2.339,0,0,0,2.34,2.47,3.043,3.043,0,0,0,1.768-.559l.429.781a4.208,4.208,0,0,1-2.34.727A3.374,3.374,0,0,1,814.7,6976.346Zm4.953-.573c0-1.429-.65-2.2-1.755-2.2a2.172,2.172,0,0,0-2.028,2.2Z"/>
  </g>
  <path id="패스_29050" data-name="패스 29050" class="cls-6" d="M752,7004.75a7,7,0,1,0-7-7,7,7,0,0,0,7,7" transform="translate(-70.5 -6758.934)"/>
  <g id="그룹_24344" data-name="그룹 24344" transform="translate(-70.5 -6758.934)">
    <path id="패스_29051" data-name="패스 29051" class="cls-4" d="M749.212,6997.573c0-2.563,1.419-4.147,3.455-4.147a2.773,2.773,0,0,1,2.112.969l-.374.427a2.258,2.258,0,0,0-1.738-.8c-1.7,0-2.762,1.364-2.762,3.531,0,2.189,1.045,3.587,2.728,3.587a2.567,2.567,0,0,0,1.992-.968l.374.418a3.005,3.005,0,0,1-2.4,1.144C750.62,7001.732,749.212,7000.137,749.212,6997.573Z"/>
  </g>
  <path id="패스_29052" data-name="패스 29052" class="cls-6" d="M771,7004.75a7,7,0,1,0-7-7,7,7,0,0,0,7,7" transform="translate(-70.5 -6758.934)"/>
  <g id="그룹_24345" data-name="그룹 24345" transform="translate(-70.5 -6758.934)">
    <path id="패스_29053" data-name="패스 29053" class="cls-4" d="M767.959,6997.573c0-2.563,1.463-4.147,3.576-4.147a2.951,2.951,0,0,1,2.222.969l-.385.427a2.349,2.349,0,0,0-1.827-.8c-1.782,0-2.893,1.364-2.893,3.531,0,2.189,1.045,3.587,2.849,3.587a2.489,2.489,0,0,0,1.706-.572v-2.41h-1.859v-.56h2.5v3.222a3.254,3.254,0,0,1-2.409.914C769.367,7001.732,767.959,7000.137,767.959,6997.573Z"/>
  </g>
  <line id="선_1087" data-name="선 1087" class="cls-12" x2="160" transform="translate(412.752 299.085)"/>
  <g id="그룹_24346" data-name="그룹 24346" transform="translate(-70.5 -6758.934)">
    <path id="패스_29054" data-name="패스 29054" class="cls-6" d="M486.441,7048.111c0-3.081,1.807-4.953,4.225-4.953a3.52,3.52,0,0,1,2.613,1.183l-.65.78a2.6,2.6,0,0,0-1.95-.91c-1.807,0-3,1.482-3,3.861,0,2.405,1.144,3.913,2.964,3.913a2.9,2.9,0,0,0,2.21-1.066l.663.754a3.684,3.684,0,0,1-2.925,1.365C488.222,7053.038,486.441,7051.205,486.441,7048.111Z"/>
    <path id="패스_29055" data-name="패스 29055" class="cls-6" d="M494.527,7049.346c0-2.353,1.547-3.718,3.276-3.718s3.276,1.365,3.276,3.718a3.3,3.3,0,1,1-6.552,0Zm5.33,0c0-1.625-.832-2.73-2.054-2.73s-2.041,1.1-2.041,2.73.819,2.7,2.041,2.7S499.857,7050.971,499.857,7049.346Z"/>
    <path id="패스_29056" data-name="패스 29056" class="cls-6" d="M502.041,7052.063l.585-.78a3.2,3.2,0,0,0,2.093.832c.936,0,1.391-.494,1.391-1.105,0-.715-.832-1.04-1.612-1.339-.988-.364-2.106-.845-2.106-2.041,0-1.118.9-2,2.431-2a3.659,3.659,0,0,1,2.2.793l-.572.767a2.658,2.658,0,0,0-1.625-.625c-.884,0-1.287.469-1.287,1.015,0,.676.767.923,1.56,1.222,1.027.39,2.158.806,2.158,2.145,0,1.144-.91,2.093-2.574,2.093A4.258,4.258,0,0,1,502.041,7052.063Z"/>
    <path id="패스_29057" data-name="패스 29057" class="cls-6" d="M508.84,7045.81h.974l.1,1.027h.04a3.1,3.1,0,0,1,2.2-1.209,1.861,1.861,0,0,1,1.95,1.351,3.339,3.339,0,0,1,2.327-1.351c1.456,0,2.145.962,2.145,2.768v4.473h-1.183v-4.316c0-1.326-.416-1.885-1.313-1.885a2.607,2.607,0,0,0-1.781,1.079v5.122h-1.183v-4.316c0-1.326-.416-1.885-1.313-1.885a2.611,2.611,0,0,0-1.782,1.079v5.122H508.84Z"/>
    <path id="패스_29058" data-name="패스 29058" class="cls-6" d="M520.292,7049.346a3.415,3.415,0,0,1,3.186-3.718c1.793,0,2.808,1.3,2.808,3.315a4.462,4.462,0,0,1-.053.676h-4.757a2.339,2.339,0,0,0,2.339,2.47,3.043,3.043,0,0,0,1.768-.559l.43.781a4.211,4.211,0,0,1-2.341.727A3.374,3.374,0,0,1,520.292,7049.346Zm4.954-.572c0-1.43-.65-2.2-1.755-2.2a2.171,2.171,0,0,0-2.029,2.2Z"/>
    <path id="패스_29059" data-name="패스 29059" class="cls-6" d="M528.223,7050.686v-3.915h-1.054v-.9l1.1-.065.143-1.976h.988v1.976h1.911v.961h-1.911v3.94c0,.871.274,1.365,1.093,1.365a2.537,2.537,0,0,0,.806-.181l.234.883a4.433,4.433,0,0,1-1.3.26C528.729,7053.038,528.223,7052.1,528.223,7050.686Z"/>
    <path id="패스_29060" data-name="패스 29060" class="cls-6" d="M532.668,7043.587a.821.821,0,0,1,1.639,0,.821.821,0,0,1-1.639,0Zm.222,2.223h1.182v7.059H532.89Z"/>
    <path id="패스_29061" data-name="패스 29061" class="cls-6" d="M535.788,7049.346a3.437,3.437,0,0,1,3.406-3.718,3.018,3.018,0,0,1,2.067.832l-.611.793a2.049,2.049,0,0,0-1.417-.637c-1.274,0-2.21,1.1-2.21,2.73s.884,2.7,2.184,2.7a2.489,2.489,0,0,0,1.664-.7l.507.793a3.367,3.367,0,0,1-2.275.9C537.231,7053.038,535.788,7051.687,535.788,7049.346Z"/>
    <path id="패스_29062" data-name="패스 29062" class="cls-6" d="M542.418,7052.063l.585-.78a3.2,3.2,0,0,0,2.093.832c.936,0,1.391-.494,1.391-1.105,0-.715-.832-1.04-1.612-1.339-.988-.364-2.106-.845-2.106-2.041,0-1.118.9-2,2.431-2a3.659,3.659,0,0,1,2.2.793l-.572.767a2.659,2.659,0,0,0-1.625-.625c-.884,0-1.287.469-1.287,1.015,0,.676.767.923,1.56,1.222,1.027.39,2.158.806,2.158,2.145,0,1.144-.91,2.093-2.574,2.093A4.257,4.257,0,0,1,542.418,7052.063Z"/>
    <path id="패스_29063" data-name="패스 29063" class="cls-6" d="M552.207,7045.81h.975l.1,1.027h.039a3.1,3.1,0,0,1,2.2-1.209,1.861,1.861,0,0,1,1.95,1.351,3.339,3.339,0,0,1,2.327-1.351c1.456,0,2.145.962,2.145,2.768v4.473h-1.183v-4.316c0-1.326-.416-1.885-1.313-1.885a2.607,2.607,0,0,0-1.781,1.079v5.122h-1.183v-4.316c0-1.326-.416-1.885-1.313-1.885a2.607,2.607,0,0,0-1.781,1.079v5.122h-1.183Z"/>
    <path id="패스_29064" data-name="패스 29064" class="cls-6" d="M563.634,7051.036c0-1.534,1.339-2.3,4.342-2.64,0-.909-.3-1.78-1.456-1.78a3.89,3.89,0,0,0-2.119.754l-.468-.819a5.31,5.31,0,0,1,2.782-.923c1.716,0,2.444,1.157,2.444,2.9v4.342h-.975l-.1-.845h-.039a3.782,3.782,0,0,1-2.34,1.014A1.913,1.913,0,0,1,563.634,7051.036Zm4.342.117v-1.976c-2.379.286-3.185.871-3.185,1.781,0,.806.546,1.131,1.248,1.131A2.884,2.884,0,0,0,567.976,7051.153Z"/>
    <path id="패스_29065" data-name="패스 29065" class="cls-6" d="M571.277,7045.81h.975l.1,1.014h.04a3.385,3.385,0,0,1,2.366-1.2c1.482,0,2.158.962,2.158,2.768v4.473h-1.183v-4.316c0-1.326-.4-1.885-1.34-1.885a2.689,2.689,0,0,0-1.937,1.079v5.122h-1.183Z"/>
    <path id="패스_29066" data-name="패스 29066" class="cls-6" d="M578.986,7050.282v-4.472h1.183v4.329c0,1.313.391,1.872,1.327,1.872.728,0,1.234-.351,1.911-1.2v-5h1.183v7.059H583.6l-.091-1.1h-.039a3.031,3.031,0,0,1-2.341,1.274C579.649,7053.038,578.986,7052.076,578.986,7050.282Z"/>
    <path id="패스_29067" data-name="패스 29067" class="cls-6" d="M590,7043.482a2.028,2.028,0,0,0-.793-.181c-.677,0-1,.481-1,1.39v1.119H589.7v.961H588.2v6.1h-1.183v-6.1h-.962v-.9l.962-.065v-1.131c0-1.43.649-2.327,2.054-2.327a3.082,3.082,0,0,1,1.183.234Z"/>
    <path id="패스_29068" data-name="패스 29068" class="cls-6" d="M590.647,7051.036c0-1.534,1.34-2.3,4.343-2.64,0-.909-.3-1.78-1.456-1.78a3.89,3.89,0,0,0-2.119.754l-.468-.819a5.309,5.309,0,0,1,2.782-.923c1.716,0,2.444,1.157,2.444,2.9v4.342H595.2l-.1-.845h-.039a3.781,3.781,0,0,1-2.34,1.014A1.914,1.914,0,0,1,590.647,7051.036Zm4.343.117v-1.976c-2.379.286-3.185.871-3.185,1.781,0,.806.546,1.131,1.248,1.131A2.883,2.883,0,0,0,594.99,7051.153Z"/>
    <path id="패스_29069" data-name="패스 29069" class="cls-6" d="M597.85,7049.346a3.437,3.437,0,0,1,3.406-3.718,3.019,3.019,0,0,1,2.067.832l-.611.793a2.049,2.049,0,0,0-1.417-.637c-1.274,0-2.211,1.1-2.211,2.73s.885,2.7,2.185,2.7a2.489,2.489,0,0,0,1.664-.7l.507.793a3.367,3.367,0,0,1-2.275.9C599.292,7053.038,597.85,7051.687,597.85,7049.346Z"/>
    <path id="패스_29070" data-name="패스 29070" class="cls-6" d="M605.441,7050.686v-3.915h-1.053v-.9l1.1-.065.143-1.976h.988v1.976h1.911v.961h-1.911v3.94c0,.871.273,1.365,1.092,1.365a2.53,2.53,0,0,0,.806-.181l.234.883a4.426,4.426,0,0,1-1.3.26C605.948,7053.038,605.441,7052.1,605.441,7050.686Z"/>
    <path id="패스_29071" data-name="패스 29071" class="cls-6" d="M609.952,7050.282v-4.472h1.183v4.329c0,1.313.39,1.872,1.326,1.872.728,0,1.235-.351,1.912-1.2v-5h1.183v7.059h-.989l-.09-1.1h-.04a3.029,3.029,0,0,1-2.34,1.274C610.615,7053.038,609.952,7052.076,609.952,7050.282Z"/>
    <path id="패스_29072" data-name="패스 29072" class="cls-6" d="M617.752,7045.81h.975l.1,1.287h.039a2.438,2.438,0,0,1,2-1.469,1.5,1.5,0,0,1,.754.156l-.221,1.04a1.65,1.65,0,0,0-.689-.117c-.585,0-1.313.416-1.781,1.625v4.537h-1.183Z"/>
    <path id="패스_29073" data-name="패스 29073" class="cls-6" d="M622.64,7043.587a.821.821,0,0,1,1.638,0,.821.821,0,0,1-1.638,0Zm.221,2.223h1.183v7.059h-1.183Z"/>
    <path id="패스_29074" data-name="패스 29074" class="cls-6" d="M626.241,7045.81h.975l.1,1.014h.039a3.385,3.385,0,0,1,2.366-1.2c1.482,0,2.158.962,2.158,2.768v4.473H630.7v-4.316c0-1.326-.4-1.885-1.339-1.885a2.685,2.685,0,0,0-1.937,1.079v5.122h-1.183Z"/>
    <path id="패스_29075" data-name="패스 29075" class="cls-6" d="M633.482,7054.221a2,2,0,0,1,1.053-1.6v-.052a1.275,1.275,0,0,1-.65-1.157,1.722,1.722,0,0,1,.793-1.313v-.052a2.478,2.478,0,0,1-.923-1.9,2.514,2.514,0,0,1,2.652-2.522,2.917,2.917,0,0,1,.988.182h2.458v.91h-1.444a2.013,2.013,0,0,1,.572,1.456,2.421,2.421,0,0,1-2.574,2.457,2.459,2.459,0,0,1-1.053-.247,1.05,1.05,0,0,0-.455.845c0,.456.286.767,1.235.767h1.378c1.638,0,2.457.521,2.457,1.677,0,1.313-1.378,2.444-3.562,2.444C634.678,7056.119,633.482,7055.443,633.482,7054.221Zm5.343-.364c0-.65-.507-.871-1.443-.871H636.16a3.989,3.989,0,0,1-.91-.117,1.489,1.489,0,0,0-.728,1.2c0,.754.767,1.248,2.054,1.248C637.928,7055.313,638.825,7054.6,638.825,7053.857Zm-.923-5.707a1.508,1.508,0,1,0-3,0,1.511,1.511,0,1,0,3,0Z"/>
  </g>
  <line id="선_1088" data-name="선 1088" class="cls-13" x2="8.395" transform="translate(385.215 171.855)"/>
  <line id="선_1089" data-name="선 1089" class="cls-14" y1="88.191" transform="translate(394.373 82.157)"/>
  <line id="선_1090" data-name="선 1090" class="cls-15" x2="6.711" transform="translate(395.865 81.402)"/>
  <path id="패스_29076" data-name="패스 29076" class="cls-8" d="M473.822,6840.336h0m-8.948,0h0m0,90.453h0m-10.685,0h0" transform="translate(-70.5 -6758.934)"/>
  <path id="패스_29077" data-name="패스 29077" class="cls-2" d="M470.354,6837.113l3.467,3.223-3.467,3.226" transform="translate(-70.5 -6758.934)"/>
  <line id="선_1091" data-name="선 1091" class="cls-12" x2="160" transform="translate(611 299.085)"/>
  <g id="그룹_24347" data-name="그룹 24347" transform="translate(-70.5 -6758.934)">
    <path id="패스_29078" data-name="패스 29078" class="cls-6" d="M695.171,7051.621l.716-.819a3.738,3.738,0,0,0,2.639,1.183c1.248,0,2-.624,2-1.56,0-.975-.689-1.287-1.586-1.69l-1.379-.6a2.694,2.694,0,0,1-1.937-2.444c0-1.469,1.274-2.535,3-2.535a3.909,3.909,0,0,1,2.808,1.183l-.637.766a3.091,3.091,0,0,0-2.171-.9c-1.079,0-1.781.546-1.781,1.4,0,.923.832,1.274,1.573,1.586l1.365.585a2.654,2.654,0,0,1,1.963,2.548c0,1.508-1.248,2.7-3.237,2.7A4.556,4.556,0,0,1,695.171,7051.621Z"/>
    <path id="패스_29079" data-name="패스 29079" class="cls-6" d="M703.1,7051.036c0-1.534,1.339-2.3,4.342-2.64,0-.909-.3-1.78-1.456-1.78a3.89,3.89,0,0,0-2.119.754l-.468-.819a5.309,5.309,0,0,1,2.782-.923c1.716,0,2.444,1.157,2.444,2.9v4.342h-.975l-.1-.845h-.039a3.779,3.779,0,0,1-2.34,1.014A1.913,1.913,0,0,1,703.1,7051.036Zm4.342.117v-1.976c-2.379.286-3.185.871-3.185,1.781,0,.806.546,1.131,1.248,1.131A2.883,2.883,0,0,0,707.443,7051.153Z"/>
    <path id="패스_29080" data-name="패스 29080" class="cls-6" d="M710.732,7051.465v-8.944h1.183v9.022c0,.364.156.507.338.507a1.043,1.043,0,0,0,.247-.026l.169.911a1.9,1.9,0,0,1-.689.1C711.1,7053.038,710.732,7052.466,710.732,7051.465Z"/>
    <path id="패스_29081" data-name="패스 29081" class="cls-6" d="M713.735,7049.346a3.415,3.415,0,0,1,3.185-3.718c1.794,0,2.809,1.3,2.809,3.315a4.619,4.619,0,0,1-.052.676h-4.759a2.339,2.339,0,0,0,2.34,2.47,3.043,3.043,0,0,0,1.768-.559l.43.781a4.211,4.211,0,0,1-2.341.727A3.374,3.374,0,0,1,713.735,7049.346Zm4.953-.572c0-1.43-.649-2.2-1.754-2.2a2.172,2.172,0,0,0-2.029,2.2Z"/>
    <path id="패스_29082" data-name="패스 29082" class="cls-6" d="M720.7,7052.063l.585-.78a3.2,3.2,0,0,0,2.093.832c.936,0,1.391-.494,1.391-1.105,0-.715-.832-1.04-1.612-1.339-.988-.364-2.106-.845-2.106-2.041,0-1.118.9-2,2.431-2a3.659,3.659,0,0,1,2.2.793l-.572.767a2.658,2.658,0,0,0-1.625-.625c-.884,0-1.287.469-1.287,1.015,0,.676.767.923,1.56,1.222,1.027.39,2.158.806,2.158,2.145,0,1.144-.91,2.093-2.574,2.093A4.257,4.257,0,0,1,720.7,7052.063Z"/>
    <path id="패스_29083" data-name="패스 29083" class="cls-6" d="M730.05,7051.036c0-1.534,1.339-2.3,4.342-2.64,0-.909-.3-1.78-1.456-1.78a3.889,3.889,0,0,0-2.119.754l-.468-.819a5.31,5.31,0,0,1,2.782-.923c1.716,0,2.444,1.157,2.444,2.9v4.342H734.6l-.1-.845h-.039a3.781,3.781,0,0,1-2.34,1.014A1.913,1.913,0,0,1,730.05,7051.036Zm4.342.117v-1.976c-2.379.286-3.185.871-3.185,1.781,0,.806.546,1.131,1.248,1.131A2.884,2.884,0,0,0,734.392,7051.153Z"/>
    <path id="패스_29084" data-name="패스 29084" class="cls-6" d="M737.693,7045.81h.975l.1,1.014h.04a3.385,3.385,0,0,1,2.366-1.2c1.482,0,2.158.962,2.158,2.768v4.473h-1.183v-4.316c0-1.326-.4-1.885-1.34-1.885a2.689,2.689,0,0,0-1.937,1.079v5.122h-1.183Z"/>
    <path id="패스_29085" data-name="패스 29085" class="cls-6" d="M745.078,7049.346c0-2.288,1.443-3.718,3.055-3.718a2.868,2.868,0,0,1,1.989.832l-.065-1.222v-2.717h1.183v10.348h-.962l-.117-.832h-.026a3.149,3.149,0,0,1-2.145,1C746.222,7053.038,745.078,7051.7,745.078,7049.346Zm4.979,1.729v-3.705a2.478,2.478,0,0,0-1.716-.741c-1.144,0-2.041,1.092-2.041,2.7,0,1.7.7,2.717,1.95,2.717A2.426,2.426,0,0,0,750.057,7051.075Z"/>
    <path id="패스_29086" data-name="패스 29086" class="cls-6" d="M756.66,7043.34h2.393c2.925,0,4.5,1.7,4.5,4.732s-1.573,4.8-4.447,4.8H756.66Zm2.288,8.541c2.25,0,3.355-1.4,3.355-3.809s-1.1-3.758-3.355-3.758H757.87v7.567Z"/>
    <path id="패스_29087" data-name="패스 29087" class="cls-6" d="M765.188,7043.587a.821.821,0,0,1,1.639,0,.821.821,0,0,1-1.639,0Zm.221,2.223h1.183v7.059h-1.183Z"/>
    <path id="패스_29088" data-name="패스 29088" class="cls-6" d="M768.061,7052.063l.585-.78a3.206,3.206,0,0,0,2.093.832c.936,0,1.391-.494,1.391-1.105,0-.715-.832-1.04-1.611-1.339-.989-.364-2.107-.845-2.107-2.041,0-1.118.9-2,2.431-2a3.665,3.665,0,0,1,2.2.793l-.573.767a2.656,2.656,0,0,0-1.625-.625c-.884,0-1.287.469-1.287,1.015,0,.676.767.923,1.56,1.222,1.028.39,2.158.806,2.158,2.145,0,1.144-.91,2.093-2.574,2.093A4.258,4.258,0,0,1,768.061,7052.063Z"/>
    <path id="패스_29089" data-name="패스 29089" class="cls-6" d="M775.264,7050.686v-3.915H774.21v-.9l1.1-.065.143-1.976h.988v1.976h1.911v.961h-1.911v3.94c0,.871.274,1.365,1.093,1.365a2.536,2.536,0,0,0,.806-.181l.234.883a4.432,4.432,0,0,1-1.3.26C775.771,7053.038,775.264,7052.1,775.264,7050.686Z"/>
    <path id="패스_29090" data-name="패스 29090" class="cls-6" d="M779.931,7045.81h.974l.1,1.287h.039a2.438,2.438,0,0,1,2-1.469,1.507,1.507,0,0,1,.754.156l-.222,1.04a1.642,1.642,0,0,0-.688-.117c-.585,0-1.313.416-1.782,1.625v4.537h-1.182Z"/>
    <path id="패스_29091" data-name="패스 29091" class="cls-6" d="M784.818,7043.587a.821.821,0,0,1,1.639,0,.821.821,0,0,1-1.639,0Zm.221,2.223h1.183v7.059h-1.183Z"/>
    <path id="패스_29092" data-name="패스 29092" class="cls-6" d="M789.511,7052.141h-.039l-.1.728h-.949v-10.348H789.6v2.833l-.039,1.275a3.556,3.556,0,0,1,2.21-1c1.833,0,2.821,1.43,2.821,3.588,0,2.431-1.443,3.822-3.068,3.822A3.128,3.128,0,0,1,789.511,7052.141Zm3.848-2.9c0-1.56-.52-2.613-1.859-2.613a2.914,2.914,0,0,0-1.9.975v3.705a2.709,2.709,0,0,0,1.729.741C792.5,7052.05,793.359,7051,793.359,7049.242Z"/>
    <path id="패스_29093" data-name="패스 29093" class="cls-6" d="M796.31,7050.282v-4.472h1.183v4.329c0,1.313.39,1.872,1.326,1.872.728,0,1.235-.351,1.911-1.2v-5h1.183v7.059h-.988l-.091-1.1h-.039a3.029,3.029,0,0,1-2.34,1.274C796.973,7053.038,796.31,7052.076,796.31,7050.282Z"/>
    <path id="패스_29094" data-name="패스 29094" class="cls-6" d="M804.4,7050.686v-3.915h-1.053v-.9l1.1-.065.143-1.976h.988v1.976h1.911v.961h-1.911v3.94c0,.871.273,1.365,1.092,1.365a2.53,2.53,0,0,0,.806-.181l.234.883a4.432,4.432,0,0,1-1.3.26C804.9,7053.038,804.4,7052.1,804.4,7050.686Z"/>
    <path id="패스_29095" data-name="패스 29095" class="cls-6" d="M808.842,7043.587a.821.821,0,0,1,1.638,0,.821.821,0,0,1-1.638,0Zm.22,2.223h1.184v7.059h-1.184Z"/>
    <path id="패스_29096" data-name="패스 29096" class="cls-6" d="M811.975,7049.346c0-2.353,1.546-3.718,3.275-3.718s3.277,1.365,3.277,3.718a3.3,3.3,0,1,1-6.552,0Zm5.33,0c0-1.625-.832-2.73-2.055-2.73s-2.041,1.1-2.041,2.73.82,2.7,2.041,2.7S817.3,7050.971,817.3,7049.346Z"/>
    <path id="패스_29097" data-name="패스 29097" class="cls-6" d="M820.295,7045.81h.975l.1,1.014h.039a3.385,3.385,0,0,1,2.366-1.2c1.482,0,2.158.962,2.158,2.768v4.473h-1.183v-4.316c0-1.326-.4-1.885-1.339-1.885a2.685,2.685,0,0,0-1.937,1.079v5.122h-1.183Z"/>
  </g>
  <path id="패스_29098" data-name="패스 29098" class="cls-6" d="M761.5,7077.75a7,7,0,1,0-7-7,7,7,0,0,0,7,7" transform="translate(-70.5 -6758.934)"/>
  <g id="그룹_24348" data-name="그룹 24348" transform="translate(-70.5 -6758.934)">
    <path id="패스_29099" data-name="패스 29099" class="cls-4" d="M758.459,7070.573c0-2.563,1.463-4.147,3.576-4.147a2.954,2.954,0,0,1,2.222.968l-.385.429a2.345,2.345,0,0,0-1.827-.8c-1.782,0-2.893,1.364-2.893,3.532,0,2.188,1.045,3.586,2.849,3.586a2.484,2.484,0,0,0,1.706-.573v-2.409h-1.859v-.56h2.5v3.222a3.254,3.254,0,0,1-2.409.913C759.867,7074.731,758.459,7073.137,758.459,7070.573Z"/>
  </g>
  <path id="패스_29100" data-name="패스 29100" class="cls-6" d="M544.252,7077.75a7,7,0,1,0-7-7,7,7,0,0,0,7,7" transform="translate(-70.5 -6758.934)"/>
  <g id="그룹_24349" data-name="그룹 24349" transform="translate(-70.5 -6758.934)">
    <path id="패스_29101" data-name="패스 29101" class="cls-4" d="M541.887,7066.568H544.1c1.617,0,2.673.6,2.673,1.948a1.726,1.726,0,0,1-1.231,1.75v.054a1.86,1.86,0,0,1,1.716,1.925c0,1.552-1.189,2.344-2.993,2.344h-2.376Zm2,3.5c1.585,0,2.222-.561,2.222-1.474,0-1.089-.736-1.486-2.156-1.486h-1.408v2.96Zm.22,3.972c1.552,0,2.5-.551,2.5-1.794,0-1.122-.9-1.649-2.5-1.649h-1.562v3.443Z"/>
  </g>
  <path id="패스_29102" data-name="패스 29102" class="cls-6" d="M563.252,7077.75a7,7,0,1,0-7-7,7,7,0,0,0,7,7" transform="translate(-70.5 -6758.934)"/>
  <g id="그룹_24350" data-name="그룹 24350" transform="translate(-70.5 -6758.934)">
    <path id="패스_29103" data-name="패스 29103" class="cls-4" d="M560.722,7066.568h1.892c2.465,0,3.675,1.53,3.675,3.984s-1.21,4.037-3.664,4.037h-1.9Zm1.826,7.459c2.112,0,3.048-1.4,3.048-3.475s-.936-3.433-3.048-3.433h-1.166v6.908Z"/>
  </g>
  <path id="패스_29104" data-name="패스 29104" class="cls-6" d="M582.252,7077.75a7,7,0,1,0-7-7,7,7,0,0,0,7,7" transform="translate(-70.5 -6758.934)"/>
  <g id="그룹_24351" data-name="그룹 24351" transform="translate(-70.5 -6758.934)">
    <path id="패스_29105" data-name="패스 29105" class="cls-4" d="M580.492,7066.568h4.423v.562h-3.763v3.092h3.18v.56h-3.18v3.807h-.66Z"/>
  </g>
</svg>
