<svg id="구성_요소_79_1" data-name="구성 요소 79 – 1" xmlns="http://www.w3.org/2000/svg" xmlns:xlink="http://www.w3.org/1999/xlink" width="91.5" height="91.5" viewBox="0 0 91.5 91.5">
  <defs>
    <style>
      .cls-1, .cls-6 {
        fill: none;
      }

      .cls-2 {
        clip-path: url(#clip-path);
      }

      .cls-3 {
        fill: #92bb48;
      }

      .cls-4 {
        fill: #1e2323;
      }

      .cls-5, .cls-7 {
        fill: #fff;
      }

      .cls-6, .cls-7 {
        stroke: #1e2323;
      }
    </style>
    <clipPath id="clip-path">
      <path id="패스_5209" data-name="패스 5209" class="cls-1" d="M0,0H91.5V-91.5H0Z"/>
    </clipPath>
  </defs>
  <g id="그룹_4953" data-name="그룹 4953" class="cls-2" transform="translate(0 91.5)">
    <g id="그룹_4952" data-name="그룹 4952" transform="translate(91.5 -45.75)">
      <path id="패스_5208" data-name="패스 5208" class="cls-3" d="M0,0A45.75,45.75,0,0,1-45.75,45.75,45.75,45.75,0,0,1-91.5,0,45.75,45.75,0,0,1-45.75-45.75,45.75,45.75,0,0,1,0,0"/>
    </g>
  </g>
  <g id="그룹_4954" data-name="그룹 4954" transform="translate(58.634 57.36)">
    <path id="패스_5210" data-name="패스 5210" class="cls-4" d="M0,0V-21.729L-18.984-32.594-37.968-21.729V0l18.984,10.865Z"/>
  </g>
  <g id="그룹_4955" data-name="그룹 4955" transform="translate(51.057 31.95)">
    <path id="패스_5211" data-name="패스 5211" class="cls-4" d="M0,0-18.41,10.69v9.056l-5.622-3.061V7.324l18.41-10.69"/>
  </g>
  <g id="그룹_4957" data-name="그룹 4957" class="cls-2" transform="translate(0 91.5)">
    <g id="그룹_4956" data-name="그룹 4956" transform="translate(60.867 -19.14)">
      <path id="패스_5212" data-name="패스 5212" class="cls-4" d="M0,0A12.662,12.662,0,0,0,12.662-12.662,12.662,12.662,0,0,0,0-25.325,12.662,12.662,0,0,0-12.662-12.662,12.662,12.662,0,0,0,0,0"/>
    </g>
  </g>
  <g id="그룹_4958" data-name="그룹 4958" transform="translate(55.461 58.575)">
    <path id="패스_5214" data-name="패스 5214" class="cls-4" d="M0,0,4.614,4.6l7.055-7.175"/>
  </g>
  <g id="그룹_4961" data-name="그룹 4961" class="cls-2" transform="translate(0 91.5)">
    <g id="그룹_4959" data-name="그룹 4959" transform="translate(57.138 -36.556)">
      <path id="패스_5215" data-name="패스 5215" class="cls-5" d="M0,0V-21.149L-18.484-31.728-36.968-21.149V0l18.484,10.578L0,0"/>
    </g>
    <g id="그룹_4960" data-name="그룹 4960" transform="translate(57.138 -36.556)">
      <path id="패스_5216" data-name="패스 5216" class="cls-6" d="M0,0V-21.149L-18.484-31.728-36.968-21.149V0l18.484,10.578Z"/>
    </g>
  </g>
  <g id="그룹_4962" data-name="그룹 4962" transform="translate(20.089 33.811)">
    <path id="패스_5218" data-name="패스 5218" class="cls-6" d="M0,0,18.584,10.593"/>
  </g>
  <g id="그룹_4963" data-name="그룹 4963" transform="translate(57.314 33.893)">
    <path id="패스_5219" data-name="패스 5219" class="cls-6" d="M0,0-18.679,10.511"/>
  </g>
  <g id="그룹_4964" data-name="그룹 4964" transform="translate(38.694 44.371)">
    <path id="패스_5220" data-name="패스 5220" class="cls-6" d="M0,0-.094,21.444"/>
  </g>
  <g id="그룹_4968" data-name="그룹 4968" class="cls-2" transform="translate(0 91.5)">
    <g id="그룹_4965" data-name="그룹 4965" transform="translate(49.81 -62.11)">
      <path id="패스_5221" data-name="패스 5221" class="cls-6" d="M0,0-18.41,10.69l-.249.144v8.5l-4.622-2.517V8.044L-5.12-2.5"/>
    </g>
    <g id="그룹_4966" data-name="그룹 4966" transform="translate(59.871 -21.226)">
      <path id="패스_5222" data-name="패스 5222" class="cls-5" d="M0,0A12.7,12.7,0,0,0,12.7-12.7,12.7,12.7,0,0,0,0-25.405,12.7,12.7,0,0,0-12.7-12.7,12.7,12.7,0,0,0,0,0"/>
    </g>
    <g id="그룹_4967" data-name="그룹 4967" transform="translate(59.871 -21.226)">
      <path id="패스_5223" data-name="패스 5223" class="cls-6" d="M0,0A12.7,12.7,0,0,0,12.7-12.7,12.7,12.7,0,0,0,0-25.405,12.7,12.7,0,0,0-12.7-12.7,12.7,12.7,0,0,0,0,0Z"/>
    </g>
  </g>
  <g id="그룹_4969" data-name="그룹 4969" transform="translate(54.438 56.449)">
    <path id="패스_5225" data-name="패스 5225" class="cls-7" d="M0,0,4.635,4.656,11.724-2.6"/>
  </g>
</svg>
