<svg id="구성_요소_45_1" data-name="구성 요소 45 – 1" xmlns="http://www.w3.org/2000/svg" width="80" height="83.628" viewBox="0 0 80 83.628">
  <defs>
    <style>
      .cls-1, .cls-2 {
        fill: none;
      }

      .cls-2 {
        stroke: #808083;
      }

      .cls-3 {
        fill: #707070;
      }
    </style>
  </defs>
  <path id="패스_36454" data-name="패스 36454" class="cls-1" d="M0,0H80V82H0Z"/>
  <g id="구성_요소_37_2" data-name="구성 요소 37 – 2" transform="translate(8.134 8.997)">
    <g id="그룹_21508" data-name="그룹 21508" transform="translate(-1774.134 -2158.989)">
      <g id="그룹_43" data-name="그룹 43" transform="translate(1788 2158.989)">
        <path id="패스_43" data-name="패스 43" class="cls-2" d="M1886.366,2277.886v17.534a2.629,2.629,0,0,1-5.257,0v-17.534h-.192a.91.91,0,0,1-.913-.905v-1.9h7.467v1.9a.91.91,0,0,1-.914.905h-2.82m-7.772,0v17.534a2.629,2.629,0,0,1-5.258,0v-17.534h-.191a.91.91,0,0,1-.914-.905v-1.9h7.468v1.9a.91.91,0,0,1-.914.905h-2.821m-7.772,0v17.534a2.629,2.629,0,0,1-5.257,0v-17.534h-.191a.909.909,0,0,1-.914-.905v-1.9h7.467v1.9a.91.91,0,0,1-.913.905h-2.82m25.869,3.927h2.514V2298.5a2.7,2.7,0,0,1-2.708,2.683h-30.55a2.7,2.7,0,0,1-2.707-2.683v-16.684h2.514" transform="translate(-1855.354 -2275.082)"/>
      </g>
      <line id="선_19" data-name="선 19" class="cls-2" y1="10.14" transform="translate(1816.501 2168.593)"/>
      <line id="선_20" data-name="선 20" class="cls-2" y1="10.14" transform="translate(1805.996 2168.593)"/>
      <line id="선_21" data-name="선 21" class="cls-2" y1="10.14" transform="translate(1795.491 2168.593)"/>
    </g>
    <path id="패스_36689" data-name="패스 36689" class="cls-3" d="M7.5,10.5h.936l1.848-6.444h.024l1.8,6.444h.924l2-8.052h-.864L12.59,9.008h-.012L10.706,2.444H9.938L8.054,9.008H8.018L6.434,2.444H5.486Zm10.1.108A1.958,1.958,0,0,0,19.19,9.98h.06l.1.516h.744V6.188c0-1.212-.732-1.752-2.04-1.752a4.511,4.511,0,0,0-1.776.324v.66a5.04,5.04,0,0,1,1.416-.192c1.068,0,1.476.24,1.476,1.164v.624l-1.608.192c-1.14.132-1.812.684-1.812,1.728A1.631,1.631,0,0,0,17.606,10.6Zm.228-.72c-.684,0-1.128-.324-1.128-.972,0-.684.36-.984,1.092-1.056L19.166,7.7V9.452A2.007,2.007,0,0,1,17.834,9.884Zm5.76.684a2.086,2.086,0,0,0,1.008-.24V9.7a2.761,2.761,0,0,1-.768.108c-.684,0-.876-.228-.876-.8v-3.7h1.524V4.556H22.958V3.14h-.912V4.556h-.852v.756h.852v3.84C22.046,10.16,22.658,10.568,23.594,10.568Zm4.656.036a3.539,3.539,0,0,0,2-.552V9.368a4.051,4.051,0,0,1-1.86.444c-1.272,0-1.98-.576-2.028-2.064h4.056V7.232c0-1.848-.768-2.8-2.4-2.8-1.368,0-2.592.924-2.592,3V7.6C25.43,9.464,26.378,10.6,28.25,10.6ZM28,5.18c.972,0,1.464.54,1.464,1.836h-3.1C26.462,5.612,27.254,5.18,28,5.18Zm3.7,5.316h.924V5.816a2.812,2.812,0,0,1,1.6-.516,3.274,3.274,0,0,1,.432.036V4.508a2.536,2.536,0,0,0-.36-.024,2.327,2.327,0,0,0-1.656.732h-.06V4.544h-.876Zm9.012,0h.936V3.248H44.1v-.8H38.246v.8h2.46Zm5.952.108a1.958,1.958,0,0,0,1.584-.624h.06l.1.516h.744V6.188c0-1.212-.732-1.752-2.04-1.752a4.511,4.511,0,0,0-1.776.324v.66a5.04,5.04,0,0,1,1.416-.192c1.068,0,1.476.24,1.476,1.164v.624l-1.608.192c-1.14.132-1.812.684-1.812,1.728A1.631,1.631,0,0,0,46.658,10.6Zm.228-.72c-.684,0-1.128-.324-1.128-.972,0-.684.36-.984,1.092-1.056L48.218,7.7V9.452A2.007,2.007,0,0,1,46.886,9.884Zm5.388.708c1.308,0,2.1-.624,2.1-1.752,0-1.032-.468-1.416-1.608-1.716l-.6-.168c-.636-.18-.888-.4-.888-.912,0-.552.4-.828,1.2-.828a3.839,3.839,0,0,1,1.572.312V4.784a3.373,3.373,0,0,0-1.62-.348c-1.368,0-2.028.684-2.028,1.692s.588,1.4,1.452,1.644l.588.156c.756.216,1.032.456,1.032,1.008s-.384.876-1.332.876a4.369,4.369,0,0,1-1.788-.372v.732A3.923,3.923,0,0,0,52.274,10.592Zm5.244-.024a2.086,2.086,0,0,0,1.008-.24V9.7a2.761,2.761,0,0,1-.768.108c-.684,0-.876-.228-.876-.8v-3.7h1.524V4.556H56.882V3.14H55.97V4.556h-.852v.756h.852v3.84C55.97,10.16,56.582,10.568,57.518,10.568Zm4.656.036a3.539,3.539,0,0,0,2-.552V9.368a4.051,4.051,0,0,1-1.86.444c-1.272,0-1.98-.576-2.028-2.064h4.056V7.232c0-1.848-.768-2.8-2.4-2.8-1.368,0-2.592.924-2.592,3V7.6C59.354,9.464,60.3,10.6,62.174,10.6ZM61.922,5.18c.972,0,1.464.54,1.464,1.836h-3.1C60.386,5.612,61.178,5.18,61.922,5.18ZM4.97,25.5H9.782v-.8H5.918v-2.94H8.87v-.8H5.918v-2.7H9.746v-.8H4.97Zm7.944,0h.912l2.208-5.952h-.9l-1.716,4.788H13.37L11.7,19.544h-1Zm5.628.108a1.958,1.958,0,0,0,1.584-.624h.06l.1.516h.744V21.188c0-1.212-.732-1.752-2.04-1.752a4.511,4.511,0,0,0-1.776.324v.66a5.04,5.04,0,0,1,1.416-.192c1.068,0,1.476.24,1.476,1.164v.624l-1.608.192c-1.14.132-1.812.684-1.812,1.728A1.631,1.631,0,0,0,18.542,25.6Zm.228-.72c-.684,0-1.128-.324-1.128-.972,0-.684.36-.984,1.092-1.056L20.1,22.7v1.752A2.007,2.007,0,0,1,18.77,24.884Zm3.9.612h.924V16.9H22.67Zm4.38.108a3.338,3.338,0,0,0,1.9-.648h.048l.084.54h.792V19.544h-.912v4.8a3.7,3.7,0,0,1-1.656.468c-.876,0-1.152-.312-1.152-1.08V19.544h-.924v4.32A1.6,1.6,0,0,0,27.05,25.6Zm5.916,0a1.958,1.958,0,0,0,1.584-.624h.06l.1.516h.744V21.188c0-1.212-.732-1.752-2.04-1.752a4.511,4.511,0,0,0-1.776.324v.66a5.04,5.04,0,0,1,1.416-.192c1.068,0,1.476.24,1.476,1.164v.624l-1.608.192c-1.14.132-1.812.684-1.812,1.728A1.631,1.631,0,0,0,32.966,25.6Zm.228-.72c-.684,0-1.128-.324-1.128-.972,0-.684.36-.984,1.092-1.056l1.368-.156v1.752A2.007,2.007,0,0,1,33.194,24.884Zm5.76.684a2.086,2.086,0,0,0,1.008-.24V24.7a2.761,2.761,0,0,1-.768.108c-.684,0-.876-.228-.876-.8v-3.7h1.524v-.756H38.318V18.14h-.912v1.416h-.852v.756h.852v3.84C37.406,25.16,38.018,25.568,38.954,25.568ZM41.2,25.5h.912v-5.94H41.2Zm-.012-7.14h.936V17.4h-.936ZM46.094,25.6c1.608,0,2.712-1.128,2.712-3.024v-.168c0-1.884-1.02-2.976-2.7-2.976-1.608,0-2.7,1.128-2.7,3.012v.18C43.406,24.524,44.414,25.6,46.094,25.6Zm.024-.756c-1,0-1.776-.54-1.776-2.2v-.3c0-1.392.672-2.16,1.752-2.16.972,0,1.776.54,1.776,2.2v.3C47.87,24.092,47.2,24.848,46.118,24.848Zm3.96.648h.912V20.66a4.246,4.246,0,0,1,1.68-.432c.948,0,1.2.3,1.2,1.02V25.5h.912v-4.44c0-1.152-.564-1.62-1.728-1.62A3.937,3.937,0,0,0,51,20.06h-.048v-.516h-.876Zm11.76.132a3.06,3.06,0,0,0,2.208-.864c.228.252.42.492.636.732h1.14L64.634,24.08a5.458,5.458,0,0,0,.78-2.424h-.876a4.615,4.615,0,0,1-.444,1.788L62.21,21.176c.936-.456,1.8-1,1.8-2.124a1.736,1.736,0,0,0-1.908-1.74,1.866,1.866,0,0,0-2.04,1.872,2.814,2.814,0,0,0,.78,1.788,2.591,2.591,0,0,0-1.788,2.376C59.054,24.848,60.122,25.628,61.838,25.628Zm-.012-.756c-1.188,0-1.788-.648-1.788-1.62a1.883,1.883,0,0,1,1.26-1.728L63.566,24.2A2.388,2.388,0,0,1,61.826,24.872Zm-.792-5.736a.987.987,0,0,1,1.056-1.092.952.952,0,0,1,.984,1.032c0,.816-.672,1.224-1.32,1.56A2.318,2.318,0,0,1,61.034,19.136ZM3.134,40.5h.948V37.04H5.618l2,3.456H8.7L6.566,36.872v-.06A2.02,2.02,0,0,0,8.138,34.7c0-1.452-.888-2.256-2.664-2.256H3.134Zm.948-4.2V33.248H5.4c1.236,0,1.728.468,1.728,1.464,0,1.044-.456,1.584-1.716,1.584ZM12.254,40.6a3.539,3.539,0,0,0,2-.552v-.684a4.051,4.051,0,0,1-1.86.444c-1.272,0-1.98-.576-2.028-2.064h4.056v-.516c0-1.848-.768-2.8-2.4-2.8-1.368,0-2.592.924-2.592,3V37.6C9.434,39.464,10.382,40.6,12.254,40.6ZM12,35.18c.972,0,1.464.54,1.464,1.836h-3.1C10.466,35.612,11.258,35.18,12,35.18Zm5.208,5.412c1.308,0,2.1-.624,2.1-1.752,0-1.032-.468-1.416-1.608-1.716l-.6-.168c-.636-.18-.888-.4-.888-.912,0-.552.4-.828,1.2-.828a3.839,3.839,0,0,1,1.572.312v-.744a3.373,3.373,0,0,0-1.62-.348c-1.368,0-2.028.684-2.028,1.692s.588,1.4,1.452,1.644l.588.156c.756.216,1.032.456,1.032,1.008s-.384.876-1.332.876a4.369,4.369,0,0,1-1.788-.372v.732A3.923,3.923,0,0,0,17.21,40.592Zm5.808.012a3.539,3.539,0,0,0,2-.552v-.684a4.051,4.051,0,0,1-1.86.444c-1.272,0-1.98-.576-2.028-2.064H25.19v-.516c0-1.848-.768-2.8-2.4-2.8-1.368,0-2.592.924-2.592,3V37.6C20.2,39.464,21.146,40.6,23.018,40.6Zm-.252-5.424c.972,0,1.464.54,1.464,1.836h-3.1C21.23,35.612,22.022,35.18,22.766,35.18ZM27.914,40.6A1.958,1.958,0,0,0,29.5,39.98h.06l.1.516H30.4V36.188c0-1.212-.732-1.752-2.04-1.752a4.511,4.511,0,0,0-1.776.324v.66A5.04,5.04,0,0,1,28,35.228c1.068,0,1.476.24,1.476,1.164v.624l-1.608.192c-1.14.132-1.812.684-1.812,1.728A1.631,1.631,0,0,0,27.914,40.6Zm.228-.72c-.684,0-1.128-.324-1.128-.972,0-.684.36-.984,1.092-1.056l1.368-.156v1.752A2.007,2.007,0,0,1,28.142,39.884Zm3.876.612h.924v-4.68a2.812,2.812,0,0,1,1.6-.516,3.274,3.274,0,0,1,.432.036v-.828a2.536,2.536,0,0,0-.36-.024,2.327,2.327,0,0,0-1.656.732h-.06v-.672h-.876Zm6.42.108a3.215,3.215,0,0,0,1.74-.468v-.744a3.212,3.212,0,0,1-1.632.42c-1.272,0-1.908-.684-1.908-2.208v-.288c0-1.368.708-2.1,1.788-2.1a3.493,3.493,0,0,1,1.692.384v-.768a2.856,2.856,0,0,0-1.644-.4c-1.536,0-2.784.912-2.784,3.024v.18C35.69,39.6,36.734,40.6,38.438,40.6Zm2.916-.108h.912V35.672a4.066,4.066,0,0,1,1.68-.444c.948,0,1.2.3,1.2,1.02V40.5h.912V36.068c0-1.152-.564-1.632-1.728-1.632a3.576,3.576,0,0,0-2,.624h-.06V31.9h-.912Zm9.528,0h4.6v-.8H51.842V32.444h-.96Zm7.248.108a1.958,1.958,0,0,0,1.584-.624h.06l.1.516h.744V36.188c0-1.212-.732-1.752-2.04-1.752a4.511,4.511,0,0,0-1.776.324v.66a5.04,5.04,0,0,1,1.416-.192c1.068,0,1.476.24,1.476,1.164v.624l-1.608.192c-1.14.132-1.812.684-1.812,1.728A1.631,1.631,0,0,0,58.13,40.6Zm.228-.72c-.684,0-1.128-.324-1.128-.972,0-.684.36-.984,1.092-1.056L59.69,37.7v1.752A2.007,2.007,0,0,1,58.358,39.884Zm6.048.744c1.92,0,2.964-1.128,2.964-3.12v-.156c0-2.232-1.176-2.916-2.316-2.916a3.373,3.373,0,0,0-1.836.5h-.06V31.9h-.924v8.4A7.123,7.123,0,0,0,64.406,40.628Zm.048-.768a3.289,3.289,0,0,1-1.3-.216V35.6a3.593,3.593,0,0,1,1.476-.384c1.2,0,1.776.54,1.776,2.2v.24C66.41,39.356,65.522,39.86,64.454,39.86Z" transform="translate(-3.134 34.003)"/>
  </g>
</svg>
