<svg id="구성_요소_46_1" data-name="구성 요소 46 – 1" xmlns="http://www.w3.org/2000/svg" width="80" height="69.926" viewBox="0 0 80 69.926">
  <defs>
    <style>
      .cls-1, .cls-2 {
        fill: none;
      }

      .cls-2 {
        stroke: #808083;
        stroke-width: 1.259px;
      }

      .cls-3 {
        fill: #808083;
      }
    </style>
  </defs>
  <path id="패스_36456" data-name="패스 36456" class="cls-1" d="M0,0H80V69.926H0Z"/>
  <g id="구성_요소_35_2" data-name="구성 요소 35 – 2" transform="translate(12.774 9.714)">
    <g id="그룹_21509" data-name="그룹 21509" transform="translate(-1854.774 -2400.714)">
      <line id="선_23" data-name="선 23" class="cls-2" y2="21.076" transform="translate(1881.154 2400.714)"/>
      <path id="패스_44" data-name="패스 44" class="cls-2" d="M1879.38,2416.662l-4.181,4.5-4.181-4.5" transform="translate(5.956 1.671)"/>
      <path id="패스_45" data-name="패스 45" class="cls-2" d="M1858.6,2411.37v17.024h32.309V2411.37" transform="translate(6.396 0.896)"/>
    </g>
    <path id="패스_36688" data-name="패스 36688" class="cls-3" d="M-26.226,0h2.162c2.542,0,3.933-1.575,3.933-4.243s-1.392-4.186-3.979-4.186h-2.116Zm1.069-.874V-7.567h.955c1.99,0,2.967,1.184,2.967,3.324S-22.212-.874-24.2-.874ZM-15.991.149a2.982,2.982,0,0,0,2.9-3.266,3,3,0,0,0-2.9-3.289,3,3,0,0,0-2.9,3.289A2.982,2.982,0,0,0-15.991.149Zm0-.874c-1.081,0-1.805-.955-1.805-2.392s.724-2.415,1.805-2.415,1.817.977,1.817,2.415S-14.91-.725-15.991-.725ZM-10.505,0h1.231L-8.4-3.347c.161-.6.287-1.184.425-1.817h.057c.149.632.265,1.207.425,1.794L-6.584,0h1.265L-3.64-6.244h-.989l-.92,3.611c-.138.6-.253,1.161-.391,1.748h-.046c-.149-.587-.287-1.15-.437-1.748L-7.4-6.244H-8.424L-9.39-2.634c-.161.587-.288,1.161-.426,1.748h-.057c-.115-.587-.241-1.15-.368-1.748l-.932-3.611h-1.069Zm8.234,0h1.046V-4.531A2.375,2.375,0,0,1,.489-5.485c.828,0,1.185.495,1.185,1.668V0H2.72V-3.956c0-1.6-.6-2.449-1.909-2.449A3,3,0,0,0-1.282-5.347h-.034l-.092-.9h-.862ZM5.859.149A1.653,1.653,0,0,0,6.469.057l-.149-.8A.919.919,0,0,1,6.1-.725c-.161,0-.3-.127-.3-.448V-9.154H4.755v7.912C4.755-.356,5.077.149,5.859.149Zm4.6,0a2.982,2.982,0,0,0,2.9-3.266,3,3,0,0,0-2.9-3.289,3,3,0,0,0-2.9,3.289A2.982,2.982,0,0,0,10.459.149Zm0-.874c-1.081,0-1.806-.955-1.806-2.392s.724-2.415,1.806-2.415,1.817.977,1.817,2.415S11.54-.725,10.459-.725Zm5.8.874a3.345,3.345,0,0,0,2.07-.9h.035L18.452,0h.863V-3.841c0-1.541-.644-2.565-2.162-2.565a4.7,4.7,0,0,0-2.461.816l.414.725a3.44,3.44,0,0,1,1.874-.667c1.024,0,1.288.77,1.288,1.575-2.656.3-3.841.977-3.841,2.335A1.693,1.693,0,0,0,16.255.149Zm.3-.839c-.621,0-1.1-.288-1.1-1,0-.8.713-1.322,2.817-1.576v1.748A2.552,2.552,0,0,1,16.554-.69Zm6.877.839a2.785,2.785,0,0,0,1.9-.886h.023l.1.736h.851V-9.154H25.26v2.4l.058,1.081a2.541,2.541,0,0,0-1.76-.736c-1.426,0-2.7,1.265-2.7,3.289C20.855-1.035,21.867.149,23.431.149Zm.23-.874c-1.1,0-1.725-.9-1.725-2.4,0-1.426.793-2.392,1.806-2.392a2.192,2.192,0,0,1,1.518.655v3.278A2.146,2.146,0,0,1,23.661-.725Z" transform="translate(26.226 47.367)"/>
  </g>
</svg>
