<svg id="구성_요소_43_3" data-name="구성 요소 43 – 3" xmlns="http://www.w3.org/2000/svg" width="80" height="74.552" viewBox="0 0 80 74.552">
  <defs>
    <style>
      .cls-1, .cls-2 {
        fill: none;
      }

      .cls-2 {
        stroke: #212122;
        stroke-width: 1.2px;
      }

      .cls-3 {
        fill: #3e3a39;
        font-size: 12px;
        font-family: NotoSansKR-Regular, Noto Sans KR;
      }

      .cls-4 {
        fill: #212122;
      }
    </style>
  </defs>
  <path id="패스_36680" data-name="패스 36680" class="cls-1" d="M0,10H80V82H0Z" transform="translate(0 -10)"/>
  <g id="구성_요소_39_2" data-name="구성 요소 39 – 2" transform="translate(14.15 9.969)">
    <g id="그룹_21503" data-name="그룹 21503" transform="translate(-1846.998 -2033.859)">
      <path id="패스_46" data-name="패스 46" class="cls-2" d="M1889.587,2053.053l-15.37-13.13-15.369,13.13" transform="translate(-1 -6.064)"/>
      <path id="패스_47" data-name="패스 47" class="cls-2" d="M1864.828,2052.719v16H1885.5v-16" transform="translate(-1.949 -8.094)"/>
    </g>
    <text id="_" data-name="
" class="cls-3" transform="translate(26.85 43.583)"><tspan x="0" y="0"></tspan><tspan x="0" y="16.8"></tspan></text>
    <path id="패스_36681" data-name="패스 36681" class="cls-4" d="M1.15,0H2.22V-3.979H6.153V0H7.21V-8.429H6.153V-4.9H2.22v-3.53H1.15ZM11.856.149a2.982,2.982,0,0,0,2.9-3.266,3,3,0,0,0-2.9-3.289,3,3,0,0,0-2.9,3.289A2.982,2.982,0,0,0,11.856.149Zm0-.874c-1.081,0-1.806-.955-1.806-2.392s.724-2.415,1.806-2.415,1.817.977,1.817,2.415S12.938-.725,11.856-.725ZM16.4,0h1.046V-4.531a2.306,2.306,0,0,1,1.576-.954c.793,0,1.161.495,1.161,1.668V0h1.047V-4.531A2.306,2.306,0,0,1,22.8-5.485c.793,0,1.161.495,1.161,1.668V0h1.047V-3.956c0-1.6-.61-2.449-1.9-2.449a2.952,2.952,0,0,0-2.059,1.2,1.647,1.647,0,0,0-1.725-1.2,2.744,2.744,0,0,0-1.943,1.069h-.035l-.092-.908H16.4ZM29.566.149a3.717,3.717,0,0,0,2.07-.644l-.379-.69a2.692,2.692,0,0,1-1.564.494,2.069,2.069,0,0,1-2.07-2.185h4.209a4.086,4.086,0,0,0,.046-.6c0-1.783-.9-2.933-2.484-2.933a3.02,3.02,0,0,0-2.817,3.289A2.985,2.985,0,0,0,29.566.149ZM27.611-3.622a1.921,1.921,0,0,1,1.794-1.944c.977,0,1.552.678,1.552,1.944Zm5.807,6.256h1.047V.518L34.443-.575a2.818,2.818,0,0,0,1.725.724c1.438,0,2.714-1.23,2.714-3.37,0-1.921-.874-3.185-2.484-3.185a3.33,3.33,0,0,0-1.989.874h-.035l-.092-.713h-.863ZM35.995-.725a2.42,2.42,0,0,1-1.529-.655V-4.657a2.6,2.6,0,0,1,1.679-.863c1.184,0,1.645.931,1.645,2.311C37.789-1.656,37.03-.725,35.995-.725ZM41.8.149a3.345,3.345,0,0,0,2.07-.9h.035L44,0h.862V-3.841c0-1.541-.644-2.565-2.162-2.565a4.7,4.7,0,0,0-2.461.816l.414.725a3.44,3.44,0,0,1,1.875-.667c1.023,0,1.288.77,1.288,1.575-2.656.3-3.841.977-3.841,2.335A1.693,1.693,0,0,0,41.8.149Zm.3-.839c-.621,0-1.1-.288-1.1-1,0-.8.713-1.322,2.818-1.576v1.748A2.552,2.552,0,0,1,42.1-.69Zm6.854,3.565c1.932,0,3.151-1,3.151-2.162,0-1.023-.724-1.484-2.174-1.484H48.714c-.84,0-1.093-.276-1.093-.678a.93.93,0,0,1,.4-.748,2.172,2.172,0,0,0,.931.219,2.141,2.141,0,0,0,2.277-2.174,1.784,1.784,0,0,0-.506-1.288H52v-.8H49.829a2.576,2.576,0,0,0-.874-.161A2.224,2.224,0,0,0,46.61-4.174,2.192,2.192,0,0,0,47.426-2.5v.046a1.524,1.524,0,0,0-.7,1.162A1.129,1.129,0,0,0,47.3-.264v.046A1.767,1.767,0,0,0,46.368,1.2C46.368,2.277,47.426,2.875,48.955,2.875Zm0-5.566a1.368,1.368,0,0,1-1.334-1.484,1.335,1.335,0,0,1,1.334-1.461,1.333,1.333,0,0,1,1.323,1.461A1.367,1.367,0,0,1,48.955-2.691Zm.15,4.853c-1.139,0-1.817-.437-1.817-1.1A1.317,1.317,0,0,1,47.932,0a3.512,3.512,0,0,0,.805.1h1.081c.828,0,1.276.2,1.276.77C51.094,1.53,50.3,2.162,49.1,2.162ZM55.672.149a3.717,3.717,0,0,0,2.07-.644l-.38-.69A2.692,2.692,0,0,1,55.8-.69a2.069,2.069,0,0,1-2.07-2.185h4.209a4.086,4.086,0,0,0,.046-.6c0-1.783-.9-2.933-2.484-2.933a3.021,3.021,0,0,0-2.818,3.289A2.985,2.985,0,0,0,55.672.149ZM53.716-3.622a1.921,1.921,0,0,1,1.794-1.944c.978,0,1.552.678,1.552,1.944Z" transform="translate(-1.15 46.583)"/>
  </g>
</svg>
