<svg id="구성_요소_44_2" data-name="구성 요소 44 – 2" xmlns="http://www.w3.org/2000/svg" xmlns:xlink="http://www.w3.org/1999/xlink" width="80" height="82" viewBox="0 0 80 82">
  <defs>
    <style>
      .cls-1, .cls-4 {
        fill: none;
      }

      .cls-2 {
        fill: #3e3a39;
        font-size: 12px;
        font-family: NotoSansKR-Regular, Noto Sans KR;
      }

      .cls-3 {
        clip-path: url(#clip-path);
      }

      .cls-4 {
        stroke: #212122;
        stroke-width: 1.2px;
      }

      .cls-5 {
        fill: #212122;
      }
    </style>
    <clipPath id="clip-path">
      <path id="패스_36486" data-name="패스 36486" class="cls-1" d="M0,3.862H31.491V-29H0Z" transform="translate(0 29)"/>
    </clipPath>
  </defs>
  <path id="패스_36453" data-name="패스 36453" class="cls-1" d="M0,0H80V82H0Z"/>
  <g id="구성_요소_38_2" data-name="구성 요소 38 – 2" transform="translate(21.299 7.138)">
    <text id="_" data-name="
" class="cls-2" transform="translate(18.701 47.943)"><tspan x="0" y="0"></tspan><tspan x="0" y="16.8"></tspan></text>
    <g id="그룹_21529" data-name="그룹 21529" transform="translate(0 29)">
      <g id="그룹_21512" data-name="그룹 21512" class="cls-3" transform="translate(0 -29)">
        <g id="그룹_21510" data-name="그룹 21510" transform="translate(9.56 0.566)">
          <path id="패스_36484" data-name="패스 36484" class="cls-4" d="M2.076.379V-2.848H-15.586V6.8" transform="translate(15.586 2.848)"/>
        </g>
        <g id="그룹_21511" data-name="그룹 21511" transform="translate(13.263 3.496)">
          <path id="패스_36485" data-name="패스 36485" class="cls-4" d="M.524,2.672h13.2V-20.062H-3.934v8.515" transform="translate(3.934 20.062)"/>
        </g>
      </g>
      <g id="그룹_21513" data-name="그룹 21513" transform="translate(15.73 -22.338)">
        <path id="패스_36487" data-name="패스 36487" class="cls-4" d="M0,0H2.882"/>
      </g>
      <g id="그룹_21514" data-name="그룹 21514" transform="translate(15.73 -19.793)">
        <path id="패스_36488" data-name="패스 36488" class="cls-4" d="M0,0H2.882"/>
      </g>
      <g id="그룹_21515" data-name="그룹 21515" transform="translate(15.73 -17.001)">
        <path id="패스_36489" data-name="패스 36489" class="cls-4" d="M0,0H2.882"/>
      </g>
      <g id="그룹_21516" data-name="그룹 21516" transform="translate(20.627 -22.338)">
        <path id="패스_36490" data-name="패스 36490" class="cls-4" d="M0,0H2.882"/>
      </g>
      <g id="그룹_21517" data-name="그룹 21517" transform="translate(20.627 -19.793)">
        <path id="패스_36491" data-name="패스 36491" class="cls-4" d="M0,0H2.882"/>
      </g>
      <g id="그룹_21518" data-name="그룹 21518" transform="translate(20.627 -17.001)">
        <path id="패스_36492" data-name="패스 36492" class="cls-4" d="M0,0H2.882"/>
      </g>
      <g id="그룹_21519" data-name="그룹 21519" transform="translate(25.923 -22.338)">
        <path id="패스_36493" data-name="패스 36493" class="cls-4" d="M0,0H2.882"/>
      </g>
      <g id="그룹_21520" data-name="그룹 21520" transform="translate(25.923 -19.793)">
        <path id="패스_36494" data-name="패스 36494" class="cls-4" d="M0,0H2.882"/>
      </g>
      <g id="그룹_21521" data-name="그룹 21521" transform="translate(25.923 -17.001)">
        <path id="패스_36495" data-name="패스 36495" class="cls-4" d="M0,0H2.882"/>
      </g>
      <g id="그룹_21523" data-name="그룹 21523" class="cls-3" transform="translate(0 -29)">
        <g id="그룹_21522" data-name="그룹 21522" transform="translate(0.567 10.355)">
          <path id="패스_36496" data-name="패스 36496" class="cls-4" d="M.278.243a7.553,7.553,0,1,0,10.684.3A7.559,7.559,0,0,0,.278.243Z" transform="translate(2.091 1.824)"/>
        </g>
      </g>
      <g id="그룹_21524" data-name="그룹 21524" transform="translate(12.211 -4.781)">
        <path id="패스_36498" data-name="패스 36498" class="cls-4" d="M0,0,1.556,1.617"/>
      </g>
      <g id="그룹_21527" data-name="그룹 21527" class="cls-3" transform="translate(0 -29)">
        <g id="그룹_21525" data-name="그룹 21525" transform="translate(13.417 24.012)">
          <path id="패스_36499" data-name="패스 36499" class="cls-4" d="M.905.67a.491.491,0,0,1-.018.677L-.931,3.124a.452.452,0,0,1-.654-.018L-6.67-2.442a.49.49,0,0,1,.018-.677L-4.834-4.9a.45.45,0,0,1,.653.019Z" transform="translate(6.797 5.028)"/>
        </g>
        <g id="그룹_21526" data-name="그룹 21526" transform="translate(2.797 12.588)">
          <path id="패스_36500" data-name="패스 36500" class="cls-4" d="M1.081.2A5.323,5.323,0,0,1,.864,7.722a5.328,5.328,0,0,1-7.53-.209A5.323,5.323,0,0,1-6.449-.013,5.328,5.328,0,0,1,1.081.2Z" transform="translate(8.119 1.469)"/>
        </g>
      </g>
      <g id="그룹_21528" data-name="그룹 21528" transform="translate(13.733 -6.036)">
        <path id="패스_36502" data-name="패스 36502" class="cls-4" d="M0,0-1.556-1.617" transform="translate(1.556 1.617)"/>
      </g>
    </g>
  </g>
  <path id="패스_36682" data-name="패스 36682" class="cls-5" d="M-5.474,0H-4.4V-8.429H-5.474Zm4.439-7.567H.379c1.322,0,2.047.391,2.047,1.506,0,1.093-.724,1.622-2.047,1.622H-1.035ZM3.737,0,1.575-3.692A2.286,2.286,0,0,0,3.485-6.061c0-1.76-1.231-2.369-2.944-2.369H-2.1V0h1.07V-3.576H.483L2.53,0ZM-19.245,15h1.265l1.253-5.083c.138-.667.288-1.276.425-1.921h.046c.138.644.264,1.254.414,1.921L-14.565,15h1.276l1.748-8.429h-1.023l-.885,4.589q-.242,1.345-.483,2.726h-.058c-.2-.92-.391-1.829-.6-2.726l-1.184-4.589h-.966L-17.9,11.159c-.207.908-.414,1.817-.61,2.726h-.046c-.161-.909-.333-1.817-.494-2.726l-.885-4.589h-1.1Zm11.592.149a3.717,3.717,0,0,0,2.07-.644l-.379-.69a2.692,2.692,0,0,1-1.564.495A2.069,2.069,0,0,1-9.6,12.125h4.209a4.085,4.085,0,0,0,.046-.6c0-1.783-.9-2.933-2.484-2.933a3.02,3.02,0,0,0-2.818,3.289A2.985,2.985,0,0,0-7.653,15.149Zm-1.955-3.772A1.921,1.921,0,0,1-7.814,9.434c.978,0,1.553.678,1.553,1.944Zm8.556,3.772c1.437,0,2.714-1.231,2.714-3.381,0-1.909-.874-3.174-2.5-3.174a3.146,3.146,0,0,0-1.955.885l.034-1.127V5.846H-3.8V15h.839l.092-.644h.034A2.766,2.766,0,0,0-1.052,15.149Zm-.172-.874a2.4,2.4,0,0,1-1.53-.656V10.343A2.579,2.579,0,0,1-1.075,9.48c1.184,0,1.645.932,1.645,2.312C.569,13.344-.19,14.276-1.225,14.276Zm6.164.874c1.472,0,2.277-.839,2.277-1.851,0-1.184-1-1.552-1.909-1.9-.7-.265-1.38-.483-1.38-1.081,0-.483.357-.9,1.139-.9A2.35,2.35,0,0,1,6.5,9.974L7.009,9.3a3.236,3.236,0,0,0-1.944-.7c-1.357,0-2.151.782-2.151,1.771,0,1.058.989,1.484,1.863,1.806.69.265,1.426.552,1.426,1.185,0,.54-.4.977-1.231.977A2.832,2.832,0,0,1,3.122,13.6l-.518.69A3.767,3.767,0,0,0,4.939,15.149ZM8.688,15H9.735V8.756H8.688Zm.529-7.532a.684.684,0,0,0,.725-.678.665.665,0,0,0-.725-.679.665.665,0,0,0-.724.679A.684.684,0,0,0,9.217,7.468Zm4.6,7.682a3.931,3.931,0,0,0,1.15-.23l-.207-.782a2.212,2.212,0,0,1-.713.161c-.724,0-.966-.437-.966-1.208V9.606h1.691V8.756H13.081V7.008h-.874l-.127,1.748-.977.057v.793h.931v3.462C12.035,14.321,12.483,15.149,13.817,15.149Zm4.715,0a3.717,3.717,0,0,0,2.07-.644l-.379-.69a2.692,2.692,0,0,1-1.564.495,2.069,2.069,0,0,1-2.07-2.185H20.8a4.086,4.086,0,0,0,.046-.6c0-1.783-.9-2.933-2.484-2.933a3.02,3.02,0,0,0-2.817,3.289A2.985,2.985,0,0,0,18.532,15.149Zm-1.955-3.772a1.921,1.921,0,0,1,1.794-1.944c.977,0,1.552.678,1.552,1.944Z" transform="translate(40 57.081)"/>
</svg>
