<svg id="구성_요소_43_3" data-name="구성 요소 43 – 3" xmlns="http://www.w3.org/2000/svg" width="80" height="82" viewBox="0 0 80 82">
  <defs>
    <style>
      .cls-1, .cls-2 {
        fill: none;
      }

      .cls-2 {
        stroke: #212122;
        stroke-width: 1.2px;
      }

      .cls-3 {
        fill: #212122;
      }
    </style>
  </defs>
  <rect id="사각형_86" data-name="사각형 86" class="cls-1" width="80" height="82"/>
  <g id="구성_요소_39_2" data-name="구성 요소 39 – 2" transform="translate(18.636 8.969)">
    <g id="그룹_21503" data-name="그룹 21503" transform="translate(-1852.484 -2033.859)">
      <path id="패스_46" data-name="패스 46" class="cls-2" d="M1889.587,2053.053l-15.37-13.13-15.369,13.13" transform="translate(-1 -6.064)"/>
      <path id="패스_47" data-name="패스 47" class="cls-2" d="M1864.828,2052.719v16H1885.5v-16" transform="translate(-1.949 -8.094)"/>
    </g>
    <path id="패스_36458" data-name="패스 36458" class="cls-3" d="M1.512-5.964l.144.84,6.5-.348a22.365,22.365,0,0,1-.384,2.544l.972.12a22.173,22.173,0,0,0,.456-5V-8.82L8.64-8.832H1.8v.8H8.232v.216c0,.492,0,1.008-.024,1.572Zm3.9,4.584v-2.8H4.428v2.8H.636v.8h9.732v-.8ZM14.28-8.436A1.3,1.3,0,0,1,15.732-7.2,1.3,1.3,0,0,1,14.28-5.964,1.308,1.308,0,0,1,12.816-7.2,1.308,1.308,0,0,1,14.28-8.436Zm0,3.216A2.107,2.107,0,0,0,16.62-7.2a2.1,2.1,0,0,0-2.34-1.98A2.093,2.093,0,0,0,11.94-7.2,2.1,2.1,0,0,0,14.28-5.22Zm2.748.552a41.848,41.848,0,0,1-5.6.276l.12.828c.624,0,1.4,0,2.22-.036V.024H14.7V-3.66a17.046,17.046,0,0,0,2.4-.288Zm.684,1.86H15.7v.768h2.016V.336h.924V-9.612h-.924ZM19.74-9.864V.888h.948V-9.864Zm10.584-.012V.912h.984V-9.876Zm-4.692.828c-1.6,0-2.736,1.464-2.736,3.756s1.14,3.756,2.736,3.756S28.368-3,28.368-5.292,27.228-9.048,25.632-9.048Zm0,.888c1.044,0,1.788,1.128,1.788,2.868s-.744,2.88-1.788,2.88-1.8-1.128-1.8-2.88S24.576-8.16,25.632-8.16Z" transform="translate(4.364 43.583)"/>
    <path id="패스_36459" data-name="패스 36459" class="cls-3" d="M9.8-8.988H6V-10.02H5.016v1.032H1.14v.768H9.8ZM2.8-1.572H8.22V0H2.8ZM1.836.744H9.18v-3.06H1.836ZM3.06-6.276c0-.528.876-.828,2.448-.828,1.548,0,2.424.3,2.424.828s-.876.84-2.424.84C3.936-5.436,3.06-5.736,3.06-6.276ZM6-3.936v-.816c1.9-.072,2.976-.6,2.976-1.524,0-1-1.26-1.524-3.468-1.524-2.232,0-3.48.528-3.48,1.524,0,.924,1.068,1.452,2.988,1.524v.816H.636v.78h9.72v-.78Zm7.452-3.78H14.8v5.052c-.456.024-.9.036-1.344.048Zm2.244,0h.888v-.792h-4.92v.792h.888v5.124c-.408.012-.768.012-1.092.012l.1.816a32.392,32.392,0,0,0,5.328-.36l-.06-.72c-.348.048-.744.084-1.128.12Zm2.04,1.944H16.272v.864h1.464V.324h.924V-9.612h-.924Zm2.076-4.092V.888h.948V-9.864Zm10.512-.012V.912h.984V-9.876Zm-4.692.828c-1.6,0-2.736,1.464-2.736,3.756s1.14,3.756,2.736,3.756S28.368-3,28.368-5.292,27.228-9.048,25.632-9.048Zm0,.888c1.044,0,1.788,1.128,1.788,2.868s-.744,2.88-1.788,2.88-1.8-1.128-1.8-2.88S24.576-8.16,25.632-8.16Zm11.64.2H39.8v-.816H33.792v.816h2.5v1.368a5.505,5.505,0,0,1-2.856,4.62l.576.792A6.036,6.036,0,0,0,36.78-4.728,5.686,5.686,0,0,0,39.6-1.44l.552-.792a5.012,5.012,0,0,1-2.88-4.356Zm3.984-1.908V.888h.984V-9.864Z" transform="translate(-0.636 60.383)"/>
  </g>
</svg>
