<svg id="구성_요소_45_3" data-name="구성 요소 45 – 3" xmlns="http://www.w3.org/2000/svg" width="80" height="82" viewBox="0 0 80 82">
  <defs>
    <style>
      .cls-1, .cls-2 {
        fill: none;
      }

      .cls-2 {
        stroke: #212122;
        stroke-width: 1.2px;
      }

      .cls-3 {
        fill: #212122;
      }
    </style>
  </defs>
  <path id="패스_36454" data-name="패스 36454" class="cls-1" d="M0,0H80V82H0Z"/>
  <g id="구성_요소_37_2" data-name="구성 요소 37 – 2" transform="translate(13.624 8.997)">
    <g id="그룹_21508" data-name="그룹 21508" transform="translate(-1779.624 -2158.989)">
      <g id="그룹_43" data-name="그룹 43" transform="translate(1788 2158.989)">
        <path id="패스_43" data-name="패스 43" class="cls-2" d="M1886.366,2277.886v17.534a2.629,2.629,0,0,1-5.257,0v-17.534h-.192a.91.91,0,0,1-.913-.905v-1.9h7.467v1.9a.91.91,0,0,1-.914.905h-2.82m-7.772,0v17.534a2.629,2.629,0,0,1-5.258,0v-17.534h-.191a.91.91,0,0,1-.914-.905v-1.9h7.468v1.9a.91.91,0,0,1-.914.905h-2.821m-7.772,0v17.534a2.629,2.629,0,0,1-5.257,0v-17.534h-.191a.909.909,0,0,1-.914-.905v-1.9h7.467v1.9a.91.91,0,0,1-.913.905h-2.82m25.869,3.927h2.514V2298.5a2.7,2.7,0,0,1-2.708,2.683h-30.55a2.7,2.7,0,0,1-2.707-2.683v-16.684h2.514" transform="translate(-1855.354 -2275.082)"/>
      </g>
      <line id="선_19" data-name="선 19" class="cls-2" y1="10.14" transform="translate(1816.501 2168.593)"/>
      <line id="선_20" data-name="선 20" class="cls-2" y1="10.14" transform="translate(1805.996 2168.593)"/>
      <line id="선_21" data-name="선 21" class="cls-2" y1="10.14" transform="translate(1795.491 2168.593)"/>
    </g>
    <path id="패스_36462" data-name="패스 36462" class="cls-3" d="M1.512-5.964l.144.84,6.5-.348a22.365,22.365,0,0,1-.384,2.544l.972.12a22.173,22.173,0,0,0,.456-5V-8.82L8.64-8.832H1.8v.8H8.232v.216c0,.492,0,1.008-.024,1.572Zm3.9,4.584v-2.8H4.428v2.8H.636v.8h9.732v-.8ZM14.28-8.436A1.3,1.3,0,0,1,15.732-7.2,1.3,1.3,0,0,1,14.28-5.964,1.308,1.308,0,0,1,12.816-7.2,1.308,1.308,0,0,1,14.28-8.436Zm0,3.216A2.107,2.107,0,0,0,16.62-7.2a2.1,2.1,0,0,0-2.34-1.98A2.093,2.093,0,0,0,11.94-7.2,2.1,2.1,0,0,0,14.28-5.22Zm2.748.552a41.848,41.848,0,0,1-5.6.276l.12.828c.624,0,1.4,0,2.22-.036V.024H14.7V-3.66a17.046,17.046,0,0,0,2.4-.288Zm.684,1.86H15.7v.768h2.016V.336h.924V-9.612h-.924ZM19.74-9.864V.888h.948V-9.864Zm10.584-.012V.912h.984V-9.876Zm-4.692.828c-1.6,0-2.736,1.464-2.736,3.756s1.14,3.756,2.736,3.756S28.368-3,28.368-5.292,27.228-9.048,25.632-9.048Zm0,.888c1.044,0,1.788,1.128,1.788,2.868s-.744,2.88-1.788,2.88-1.8-1.128-1.8-2.88S24.576-8.16,25.632-8.16Z" transform="translate(9.376 45.418)"/>
    <path id="패스_36463" data-name="패스 36463" class="cls-3" d="M8.136-7.02H2.856V-8.736h5.28Zm.972-2.5H1.9V-6.24H9.108Zm1.26,4.968V-5.34H.624v.792H5v1.056H1.8v.744H8.148v.96H1.836V.768H9.444V0H2.8V-1.068H9.12V-3.492H5.988V-4.548Zm5.388-.528H12.84V-8.268h2.916Zm.972-3.972H11.88v4.764h4.848Zm.3,5.8h-.972v.336c0,1.524-1.68,2.664-3.6,2.988l.4.768a5.17,5.17,0,0,0,3.7-2.328A5.1,5.1,0,0,0,20.22.84l.4-.768c-1.92-.324-3.588-1.464-3.588-2.988Zm2.76-3.684v-2.94H18.8v7.152h.984v-3.4h1.6v-.816Zm3.552.444a1.778,1.778,0,0,1,1.836-1.836A1.775,1.775,0,0,1,27-6.492a1.775,1.775,0,0,1-1.824,1.836A1.778,1.778,0,0,1,23.34-6.492Zm6.768-.9V-5.6H27.792a2.7,2.7,0,0,0,.144-.888,2.722,2.722,0,0,0-.144-.9Zm0,2.58V-1.92h1V-9.864h-1v1.68H27.372a2.758,2.758,0,0,0-2.2-1.008,2.655,2.655,0,0,0-2.772,2.7,2.655,2.655,0,0,0,2.772,2.7,2.755,2.755,0,0,0,2.208-1.02Zm-4.9,4.656v-2.58h-1V.648H31.4v-.8ZM42.78-4.548h-1.6a17.768,17.768,0,0,0,.3-3.7V-9.18H34.26v.792h6.264v.144a15.911,15.911,0,0,1-.336,3.7h-7.14v.8h4.344V.9h1V-3.744H42.78ZM53.124-4.62c-1.884-.336-3.936-1.92-3.936-3.708v-.828H48.156v.828c0,1.788-2.04,3.372-3.924,3.708l.408.816a5.8,5.8,0,0,0,4.032-3,5.827,5.827,0,0,0,4.032,3Zm-3.96,3.3V-3.936H48.18V-1.32H43.836v.8H53.6v-.8Z" transform="translate(-0.624 62.218)"/>
  </g>
</svg>
