<svg id="구성_요소_61_1" data-name="구성 요소 61 – 1" xmlns="http://www.w3.org/2000/svg" xmlns:xlink="http://www.w3.org/1999/xlink" width="796" height="441.838" viewBox="0 0 796 441.838">
  <defs>
    <style>
      .cls-1, .cls-15, .cls-17, .cls-19, .cls-20, .cls-3, .cls-4 {
        fill: none;
      }

      .cls-2 {
        fill: #f4f7f7;
      }

      .cls-3, .cls-4 {
        stroke: #2b2e34;
      }

      .cls-4 {
        stroke-width: 3px;
      }

      .cls-5, .cls-7 {
        fill: #5a78b5;
      }

      .cls-14, .cls-18, .cls-21, .cls-6 {
        fill: #fff;
      }

      .cls-10, .cls-7, .cls-9 {
        font-size: 15px;
      }

      .cls-7 {
        font-family: NotoSansKR-Medium, Noto Sans KR;
        font-weight: 500;
      }

      .cls-10, .cls-8, .cls-9 {
        fill: #595b60;
      }

      .cls-10, .cls-9 {
        font-family: NotoSansKR-Regular, Noto Sans KR;
      }

      .cls-9 {
        letter-spacing: -0.02em;
      }

      .cls-11 {
        clip-path: url(#clip-path);
      }

      .cls-12 {
        fill: #78a4e1;
      }

      .cls-13, .cls-16 {
        fill: #393c41;
      }

      .cls-13, .cls-14, .cls-15, .cls-17, .cls-18, .cls-19, .cls-20, .cls-21 {
        stroke: #393c41;
      }

      .cls-13, .cls-14, .cls-15, .cls-19, .cls-21 {
        stroke-linecap: square;
      }

      .cls-19, .cls-20, .cls-21 {
        stroke-miterlimit: 10;
      }
    </style>
    <clipPath id="clip-path">
      <path id="패스_811" data-name="패스 811" class="cls-1" d="M0,0H756V-137.5H0Z"/>
    </clipPath>
  </defs>
  <path id="패스_578" data-name="패스 578" class="cls-2" d="M0,0H796V-441.838H0Z" transform="translate(0 441.838)"/>
  <g id="그룹_233" data-name="그룹 233" transform="translate(399.5 81.304)">
    <path id="패스_579" data-name="패스 579" class="cls-3" d="M0,0V42"/>
  </g>
  <g id="그룹_234" data-name="그룹 234" transform="translate(399.5 103.304)">
    <path id="패스_580" data-name="패스 580" class="cls-4" d="M0,0V20"/>
  </g>
  <path id="패스_584" data-name="패스 584" class="cls-5" d="M251-376.783H548v-29H251Z" transform="translate(0 441.838)"/>
  <g id="그룹" transform="translate(0 441.838)">
    <path id="패스_1353" data-name="패스 1353" class="cls-6" d="M7.935-8.625v1h2.7v5.145H11.88V-12.33H10.635v3.7Zm.8,3.165A4.619,4.619,0,0,1,5.46-9.585v-.66H8.415v-1H1.23v1h3v.675A4.9,4.9,0,0,1,.84-5.16l.645.96a5.742,5.742,0,0,0,3.39-3.345A5.551,5.551,0,0,0,8.115-4.5ZM4.515-.2v-3.15H3.27V.81h8.985V-.2Zm17.7-6.135a32.879,32.879,0,0,1-6.12.45V-7.815H20.91V-11.55H14.85v1h4.845V-8.76H14.88v3.885h1.065a35.6,35.6,0,0,0,6.39-.45ZM15.99-2.46h7.515V1.1h1.23V-3.45H15.99ZM26.73-9.18V-10.2H24.735v-2.13h-1.23v8.175h1.23v-2.2H26.73V-7.38H24.735v-1.8Z" transform="translate(385.85 -384.684)"/>
    <path id="패스_1354" data-name="패스 1354" class="cls-5" d="M1.53-10.965V-9.7H6.36C6.09-6.585,4.41-4.2.855-2.49L1.68-1.26c4.65-2.25,6.27-5.67,6.27-9.705ZM10.4-12.39V1.155H11.94V-12.39ZM23.955-.255H18.21v-1.5h5.745Zm0-2.7H18.21v-1.53H16.68V.99h8.805V-4.485h-1.53ZM17.985-6.72a1.893,1.893,0,0,1-2.055-1.9,1.874,1.874,0,0,1,2.055-1.89,1.877,1.877,0,0,1,2.04,1.89A1.9,1.9,0,0,1,17.985-6.72Zm5.955-5.67v3.12h-2.5a3.286,3.286,0,0,0-3.45-2.52,3.248,3.248,0,0,0-3.54,3.165,3.251,3.251,0,0,0,3.54,3.18,3.273,3.273,0,0,0,3.45-2.565h2.5v2.88h1.545v-7.26Zm9.945,1.545c1.905,0,3.15.555,3.15,1.5,0,.96-1.245,1.515-3.15,1.515S30.72-8.385,30.72-9.345C30.72-10.29,31.965-10.845,33.885-10.845Zm0,4.26c2.9,0,4.8-1.065,4.8-2.76,0-1.68-1.9-2.745-4.8-2.745s-4.8,1.065-4.8,2.745C29.085-7.65,30.975-6.585,33.885-6.585Zm-3.15,3.6H29.2V.9H38.79V-.36H30.735Zm-2.97-2.73V-4.47h4.23v2.64H33.54V-4.47h1.935v2.64H37.02V-4.47h3.015V-5.715Zm15.825-.45h4.725V-11.19H42v1.26h4.755v2.52H42.03v5.37h1.155a37.3,37.3,0,0,0,6.735-.48l-.165-1.26a38.781,38.781,0,0,1-6.165.465Zm7.29-6.255V1.185h1.56V-12.42Zm4.44.975v1.26h4.65c-.27,2.1-2.115,3.81-5.25,4.71l.63,1.23c3.96-1.14,6.3-3.66,6.3-7.2ZM61.02-.06c-1.8,0-2.94-.54-2.94-1.47,0-.945,1.14-1.485,2.94-1.485s2.94.54,2.94,1.485C63.96-.6,62.835-.06,61.02-.06Zm0-4.185c-2.7,0-4.47,1.035-4.47,2.715,0,1.665,1.77,2.685,4.47,2.685S65.49.135,65.49-1.53C65.49-3.21,63.735-4.245,61.02-4.245Zm4.32-4.8V-12.39H63.795v7.965H65.34V-7.77h1.92V-9.045Zm12.6,4.98h1.545v-8.31H77.94v1.965H75.51v1.26h2.43v1.515H75.51v1.26h2.43ZM75.3-6.24a28.234,28.234,0,0,1-4.965.315v-1.74h4.32v-3.99h-5.88v1.245h4.35v1.575h-4.32v4.17h.99a30.8,30.8,0,0,0,5.67-.33ZM74.97.045c-1.935,0-3.015-.48-3.015-1.35s1.08-1.35,3.015-1.35,3.045.48,3.045,1.35S76.9.045,74.97.045Zm0-3.885c-2.82,0-4.56.945-4.56,2.535S72.15,1.23,74.97,1.23c2.85,0,4.59-.93,4.59-2.535S77.82-3.84,74.97-3.84Z" transform="translate(128.78 -149.754)"/>
    <text id="_" data-name=" " class="cls-7" transform="translate(210.08 -149.754)"><tspan x="0" y="0"> </tspan></text>
  </g>
  <path id="패스_1355" data-name="패스 1355" class="cls-5" d="M4.992.169A3.778,3.778,0,0,0,7.969-1.209l-.806-.949A2.788,2.788,0,0,1,5.044-1.144c-1.69,0-2.756-1.391-2.756-3.666,0-2.249,1.144-3.627,2.8-3.627a2.545,2.545,0,0,1,1.872.858l.819-.962A3.687,3.687,0,0,0,5.057-9.75C2.639-9.75.741-7.878.741-4.758S2.587.169,4.992.169Zm7.137,0A3.434,3.434,0,0,0,15.5-3.562a3.454,3.454,0,0,0-3.367-3.77,3.454,3.454,0,0,0-3.367,3.77A3.434,3.434,0,0,0,12.129.169Zm0-1.222c-1.118,0-1.82-1-1.82-2.509s.7-2.535,1.82-2.535,1.833,1.014,1.833,2.535S13.26-1.053,12.129-1.053ZM19.461.169a3,3,0,0,0,2.08-.975h.039L21.71,0h1.222V-10.361H21.437v2.652L21.5-6.526a2.758,2.758,0,0,0-1.924-.806c-1.6,0-3.068,1.443-3.068,3.77C16.51-1.2,17.667.169,19.461.169Zm.351-1.235c-1.118,0-1.755-.9-1.755-2.522,0-1.547.806-2.5,1.807-2.5a2.242,2.242,0,0,1,1.573.65v3.5A2.1,2.1,0,0,1,19.812-1.066ZM27.9.169a4.338,4.338,0,0,0,2.418-.754l-.52-.949a3.036,3.036,0,0,1-1.7.533,2.159,2.159,0,0,1-2.21-2.184h4.641a3.864,3.864,0,0,0,.065-.754c0-2.028-1.014-3.393-2.912-3.393a3.472,3.472,0,0,0-3.263,3.77A3.435,3.435,0,0,0,27.9.169ZM25.87-4.212A1.939,1.939,0,0,1,27.7-6.162c1.04,0,1.6.715,1.6,1.95ZM37.531.169A3.434,3.434,0,0,0,40.9-3.562a3.454,3.454,0,0,0-3.367-3.77,3.454,3.454,0,0,0-3.367,3.77A3.434,3.434,0,0,0,37.531.169Zm0-1.222c-1.118,0-1.82-1-1.82-2.509s.7-2.535,1.82-2.535,1.833,1.014,1.833,2.535S38.662-1.053,37.531-1.053Zm8.593-9.23a3.246,3.246,0,0,0-1.261-.247c-1.6,0-2.262,1.014-2.262,2.483v.9l-.975.078v1.118H42.6V0h1.5V-5.954h1.443v-1.2H44.1v-.91c0-.871.312-1.287.949-1.287a1.945,1.945,0,0,1,.78.182ZM53.1.169a3.778,3.778,0,0,0,2.977-1.378l-.806-.949a2.788,2.788,0,0,1-2.119,1.014c-1.69,0-2.756-1.391-2.756-3.666,0-2.249,1.144-3.627,2.795-3.627a2.545,2.545,0,0,1,1.872.858l.819-.962A3.687,3.687,0,0,0,53.17-9.75c-2.418,0-4.316,1.872-4.316,4.992S50.7.169,53.1.169Zm7.137,0a3.434,3.434,0,0,0,3.367-3.731,3.454,3.454,0,0,0-3.367-3.77,3.454,3.454,0,0,0-3.367,3.77A3.434,3.434,0,0,0,60.242.169Zm0-1.222c-1.118,0-1.82-1-1.82-2.509s.7-2.535,1.82-2.535,1.833,1.014,1.833,2.535S61.373-1.053,60.242-1.053ZM65.1,0h1.482V-5.07a2.441,2.441,0,0,1,1.755-.975c.845,0,1.209.494,1.209,1.729V0h1.495V-4.5c0-1.82-.676-2.834-2.2-2.834a3.407,3.407,0,0,0-2.366,1.17h-.039l-.117-.988H65.1ZM75.426.169a3,3,0,0,0,2.08-.975h.039l.13.806H78.9V-10.361H77.4v2.652l.065,1.183a2.758,2.758,0,0,0-1.924-.806c-1.6,0-3.068,1.443-3.068,3.77C72.475-1.2,73.632.169,75.426.169Zm.351-1.235c-1.118,0-1.755-.9-1.755-2.522,0-1.547.806-2.5,1.807-2.5a2.242,2.242,0,0,1,1.573.65v3.5A2.1,2.1,0,0,1,75.777-1.066Zm7.2,1.235a3,3,0,0,0,2.34-1.248h.039L85.475,0H86.7V-7.15H85.2v4.966c-.6.754-1.053,1.066-1.716,1.066-.845,0-1.2-.481-1.2-1.716V-7.15H80.795v4.5C80.795-.832,81.458.169,82.979.169Zm8.619,0a3.484,3.484,0,0,0,2.314-.884L93.3-1.7a2.449,2.449,0,0,1-1.56.65c-1.2,0-2.015-1-2.015-2.509S90.584-6.1,91.78-6.1a1.873,1.873,0,0,1,1.287.559l.741-.975a3.07,3.07,0,0,0-2.093-.819,3.513,3.513,0,0,0-3.536,3.77C88.179-1.2,89.661.169,91.6.169Zm5.811,0a4.575,4.575,0,0,0,1.4-.26L98.54-1.2a2.132,2.132,0,0,1-.767.169c-.741,0-1.04-.442-1.04-1.3V-5.954h1.859v-1.2H96.733V-9.126H95.472L95.3-7.15,94.2-7.072v1.118h1.04V-2.34C95.238-.832,95.8.169,97.409.169Z" transform="translate(119.205 315.089)"/>
  <g id="그룹-2" data-name="그룹" transform="translate(0 441.838)">
    <path id="패스_1356" data-name="패스 1356" class="cls-8" d="M6.87-11.01c2.055,0,3.42.645,3.42,1.7S8.925-7.62,6.87-7.62c-2.04,0-3.42-.645-3.42-1.695S4.83-11.01,6.87-11.01Zm0,4.38c2.85,0,4.71-1.02,4.71-2.685S9.72-12,6.87-12c-2.835,0-4.71,1.02-4.71,2.685S4.035-6.63,6.87-6.63ZM3.51-2.955H2.28V.81h9.435V-.2H3.51ZM.8-5.61v1.005H5.04v2.79H6.27v-2.79H8.64v2.79H9.87v-2.79h3.09V-5.61Zm15.51-.675H21.27V-11.1H15.03v1.005h4.995v2.8h-4.95v5.16h1.11a39.044,39.044,0,0,0,6.78-.495l-.12-1a39.538,39.538,0,0,1-6.54.48Zm7.8-6.075V1.125h1.23V-12.36Zm13.53,3.495v1.8H34.11v1h3.525v1.77H38.88v-8.04H37.635v2.46H34.59a7.718,7.718,0,0,0,.15-1.455H28.665v.99H33.4c-.225,2.325-2.22,4.11-5.43,5.07l.495.975c2.9-.84,4.935-2.415,5.805-4.575ZM34.485.09c-1.98,0-3.24-.615-3.24-1.635s1.26-1.62,3.24-1.62,3.24.615,3.24,1.62S36.465.09,34.485.09Zm0-4.23c-2.715,0-4.455.975-4.455,2.595S31.77,1.05,34.485,1.05,38.94.075,38.94-1.545,37.2-4.14,34.485-4.14Zm8.19-4.215a2.164,2.164,0,0,1,2.3-2.145,2.142,2.142,0,0,1,2.28,2.145,2.145,2.145,0,0,1-2.28,2.16A2.166,2.166,0,0,1,42.675-8.355Zm8.46-1.05v2.1h-2.9a3.028,3.028,0,0,0,.18-1.05,3.28,3.28,0,0,0-.165-1.05Zm0,3.105v1.92H52.38v-7.965H51.135v1.935h-3.45a3.581,3.581,0,0,0-2.715-1.125,3.21,3.21,0,0,0-3.465,3.18,3.225,3.225,0,0,0,3.465,3.21A3.5,3.5,0,0,0,47.685-6.3ZM47.925.12C45.9.12,44.67-.48,44.67-1.485s1.23-1.62,3.255-1.62c2.055,0,3.285.6,3.285,1.62S49.98.12,47.925.12Zm0-4.185c-2.76,0-4.47.945-4.47,2.58s1.71,2.58,4.47,2.58c2.775,0,4.5-.945,4.5-2.58S50.7-4.065,47.925-4.065Zm11.82-6.645h-1.23v8.325h.855a24.893,24.893,0,0,0,4.815-.42l-.12-1.065a23.39,23.39,0,0,1-4.32.42Zm8.34-1.635V-6.87h-1.9v-5.175H65.025V.42H66.18V-5.85h1.9V1.1H69.27v-13.44Zm7.245,2.6h2.445v-1.005h-6.24V-9.75h2.61V-8.7c0,2.73-1,5.025-2.925,6.105l.75.93a6.281,6.281,0,0,0,2.79-4.1,6.019,6.019,0,0,0,2.73,3.63l.72-.945c-1.9-.99-2.88-3.165-2.88-5.625Zm6.315-2.61v5.445h-1.77v-5.13H78.72V.45h1.155V-5.895h1.77v7H82.83V-12.36ZM92.97-10.71H89.58v-1.62H88.35v1.62H84.93v.975h8.04ZM86.955-6.45c0-.93.81-1.545,2.01-1.545s2.01.615,2.01,1.545-.81,1.53-2.01,1.53S86.955-5.52,86.955-6.45ZM89.58-3.99a2.572,2.572,0,0,0,2.565-2.46c0-1.515-1.305-2.49-3.18-2.49s-3.18.975-3.18,2.49A2.572,2.572,0,0,0,88.35-3.99v1.47c-1.305.045-2.565.045-3.645.045L84.87-1.44a49.66,49.66,0,0,0,8.4-.54l-.075-.915a35.171,35.171,0,0,1-3.615.33Zm7.74-2.64h-2.1v-5.715H93.99V1.11h1.23v-6.7h2.1Zm10.455-3.36h-7.86v2.88h9.315v-.885h-8.1V-9.15h7.86v-2.8H99.885v.87h7.89Zm-6.72,8.79h7.98V-4.065H99.81v.885h8.01v1.125H99.84V.93h9.615V.045h-8.4Zm-2.7-4.89v.93H110.55v-.93Zm20.97-4.605c1.305,0,2.235.7,2.235,1.755s-.93,1.755-2.235,1.755-2.25-.705-2.25-1.755S118.005-10.695,119.325-10.695Zm0,4.515c1.995,0,3.42-1.125,3.42-2.76s-1.425-2.775-3.42-2.775c-2.01,0-3.435,1.125-3.435,2.775S117.315-6.18,119.325-6.18Zm4.425.66a61.8,61.8,0,0,1-8.865.48L115.05-4c1.11,0,2.385-.015,3.72-.075V.69H120V-4.155a33.729,33.729,0,0,0,3.855-.45Zm.975-6.81V1.125h1.23V-12.33Zm11.67,1.635h-3.36V-12.33h-1.23v1.635H128.46v.99H136.4Zm-6.015,4.23c0-.93.81-1.53,2.04-1.53s2.055.6,2.055,1.53c0,.945-.84,1.545-2.055,1.545S130.38-5.52,130.38-6.465Zm5.265,0c0-1.5-1.32-2.49-3.225-2.49s-3.21.99-3.21,2.49,1.3,2.505,3.21,2.505S135.645-4.95,135.645-6.465Zm-3.93,3.42h-1.23V.81h8.97V-.2h-7.74Zm7.14-4.86V-12.33h-1.23V-2.25h1.23V-6.87h1.995V-7.905Z" transform="translate(97.88 -99.749)"/>
    <text id="_2" data-name=" " class="cls-9" transform="translate(240.98 -99.749)"><tspan x="0" y="0"> </tspan></text>
    <path id="패스_1357" data-name="패스 1357" class="cls-8" d="M10.29-9.66a28.726,28.726,0,0,1-.51,6.09l1.23.135a30.33,30.33,0,0,0,.51-6.225v-1.335H2.085V-9.99h8.2ZM6.765-1.785V-6.6H5.535v4.815H.81V-.78H12.975V-1.785Zm13.59-9.03c2.055,0,3.45.75,3.45,1.935s-1.4,1.95-3.45,1.95c-2.04,0-3.435-.765-3.435-1.95S18.315-10.815,20.355-10.815Zm0,4.875c2.805,0,4.71-1.14,4.71-2.94s-1.905-2.925-4.71-2.925c-2.79,0-4.695,1.125-4.695,2.925S17.565-5.94,20.355-5.94Zm6.12,1.26H14.3v1.005H17.43V1.11h1.245V-3.675H22.05V1.11H23.3V-3.675h3.18Zm1.92-6.66v.99H33.27c-.225,2.325-2.25,4.155-5.445,5.1l.495.99c3.9-1.155,6.285-3.66,6.285-7.08ZM34.02.12c-1.935,0-3.165-.615-3.165-1.635s1.23-1.65,3.165-1.65,3.165.615,3.165,1.65S35.955.12,34.02.12Zm0-4.245c-2.655,0-4.38.975-4.38,2.61S31.365,1.1,34.02,1.1s4.38-.99,4.38-2.61S36.675-4.125,34.02-4.125Zm4.215-4.74v-3.48h-1.23V-4.3h1.23v-3.54H40.23v-1.02ZM51.15-4.02h1.215v-8.31H51.15v2.1H48.525v1H51.15v1.74H48.525v.99H51.15ZM48.4-6.105a27.166,27.166,0,0,1-5.325.345V-7.8h4.545v-3.78H41.82v.99h4.59v1.845H41.865v3.99h.96a31.06,31.06,0,0,0,5.7-.33ZM47.955.24c-2.04,0-3.27-.57-3.27-1.545,0-.96,1.23-1.53,3.27-1.53,2.025,0,3.24.57,3.24,1.53C51.195-.33,49.98.24,47.955.24Zm0-4.02c-2.775,0-4.485.9-4.485,2.475s1.71,2.49,4.485,2.49c2.76,0,4.47-.9,4.47-2.49S50.715-3.78,47.955-3.78ZM61.8-9.765h2.4v-1H58.065v1h2.55V-8.55A7.021,7.021,0,0,1,57.69-2.5l.75.915a6.965,6.965,0,0,0,2.775-4.26,6.433,6.433,0,0,0,2.7,3.93l.75-.9A6.518,6.518,0,0,1,61.8-8.55Zm3.6,2.25H63.18V-6.51H65.4V.405h1.17v-12.45H65.4Zm2.7-4.845V1.1h1.185V-12.36ZM78.54-8.85v1h2.655V-4.32H82.44v-8.01H81.195v3.48Zm.75,3.06A4.632,4.632,0,0,1,76.02-9.9v-.465h2.955v-.99H71.79v.99h3V-9.9A4.96,4.96,0,0,1,71.4-5.415l.645.975a5.823,5.823,0,0,0,3.39-3.42,5.527,5.527,0,0,0,3.24,3.03ZM78,.15c-2.025,0-3.255-.57-3.255-1.545s1.23-1.56,3.255-1.56,3.255.585,3.255,1.56S80.025.15,78,.15ZM78-3.9c-2.76,0-4.485.915-4.485,2.5S75.24,1.11,78,1.11s4.47-.915,4.47-2.5S80.76-3.9,78-3.9Z" transform="translate(126.83 -77.744)"/>
  </g>
  <g id="그룹-3" data-name="그룹" transform="translate(0 441.838)">
    <path id="패스_1505" data-name="패스 1505" class="cls-5" d="M6.885-10.845c1.905,0,3.15.555,3.15,1.5,0,.96-1.245,1.515-3.15,1.515S3.72-8.385,3.72-9.345C3.72-10.29,4.965-10.845,6.885-10.845Zm0,4.26c2.895,0,4.8-1.065,4.8-2.76,0-1.68-1.9-2.745-4.8-2.745s-4.8,1.065-4.8,2.745C2.085-7.65,3.975-6.585,6.885-6.585Zm-3.15,3.6H2.2V.9H11.79V-.36H3.735ZM.765-5.715V-4.47h4.23v2.64H6.54V-4.47H8.475v2.64H10.02V-4.47h3.015V-5.715Zm15.825-.45h4.725V-11.19H15v1.26h4.755v2.52H15.03v5.37h1.155a37.3,37.3,0,0,0,6.735-.48l-.165-1.26a38.781,38.781,0,0,1-6.165.465Zm7.29-6.255V1.185h1.56V-12.42ZM29-6.345c2.34-.3,4.155-1.38,4.875-2.88.735,1.5,2.565,2.58,4.92,2.88l.57-1.23c-2.535-.3-4.32-1.56-4.44-2.94H38.9V-11.76H28.89v1.245h3.945c-.12,1.38-1.875,2.64-4.425,2.94ZM30.8-2.97H29.25V.9h9.42V-.36H30.8ZM27.75-5.52v1.245h5.49v2.55h1.545v-2.55h5.25V-5.52ZM52.98-7.395c-2.73-.39-4.77-2.085-4.77-3.84v-.72H46.575v.72c0,1.785-2.01,3.45-4.77,3.84l.6,1.245a6.811,6.811,0,0,0,5-3.06,6.854,6.854,0,0,0,4.98,3.06Zm.525,2.52H41.265v1.26h5.31V1.17H48.12V-3.615h5.385Zm4.875-6.7v1.26h4.65c-.255,2.055-2.1,3.705-5.265,4.545l.6,1.23c4-1.065,6.33-3.525,6.33-7.035Zm2.91,8.64h5.6V-.255h-5.6ZM59.76.99h8.655V-4.17H59.76ZM70.335-9.255h-1.92v-3.15H66.87v7.65h1.545V-7.98h1.92ZM72.69-2.1h7.875V1.245H82.11v-4.59H72.69Zm5.55-3.63V-7.14h3.975V-8.385H74.4v-2.22h7.7V-11.85H72.87v4.71h3.81v1.41H71.34v1.245H83.58V-5.73ZM89.085-4.41a6.938,6.938,0,0,0,4.95-3.45,7.014,7.014,0,0,0,5.025,3.4l.63-1.23c-2.685-.42-4.845-2.25-4.845-4.29v-.03H99.15V-11.25H88.92v1.245h4.305v.03c0,2.04-2.145,3.915-4.785,4.335ZM94.83-1.77V-4.935H93.27V-1.77H87.915V-.51h12.27V-1.77Zm14.94-4.185a4.434,4.434,0,0,1-3.315-4.065v-.255h2.895V-11.52h-7.41v1.245h2.94v.255a4.62,4.62,0,0,1-3.36,4.3l.81,1.215a5.532,5.532,0,0,0,3.36-3.135,5.292,5.292,0,0,0,3.3,2.88ZM103.44-2.3h7.59v3.45h1.545V-3.54H103.44Zm7.59-10.11v8.19h1.545v-8.19Z" transform="translate(342.95 -149.749)"/>
    <text id="_3" data-name=" " class="cls-7" transform="translate(459.05 -149.749)"><tspan x="0" y="0"> </tspan></text>
  </g>
  <g id="그룹-4" data-name="그룹" transform="translate(0 441.838)">
    <path id="패스_1510" data-name="패스 1510" class="cls-5" d="M4.992.169A3.778,3.778,0,0,0,7.969-1.209l-.806-.949A2.788,2.788,0,0,1,5.044-1.144c-1.69,0-2.756-1.391-2.756-3.666,0-2.249,1.144-3.627,2.8-3.627a2.545,2.545,0,0,1,1.872.858l.819-.962A3.687,3.687,0,0,0,5.057-9.75C2.639-9.75.741-7.878.741-4.758S2.587.169,4.992.169Zm7.137,0A3.434,3.434,0,0,0,15.5-3.562a3.454,3.454,0,0,0-3.367-3.77,3.454,3.454,0,0,0-3.367,3.77A3.434,3.434,0,0,0,12.129.169Zm0-1.222c-1.118,0-1.82-1-1.82-2.509s.7-2.535,1.82-2.535,1.833,1.014,1.833,2.535S13.26-1.053,12.129-1.053ZM16.991,0h1.482V-5.07a2.413,2.413,0,0,1,1.612-.975c.819,0,1.2.494,1.2,1.729V0h1.495V-5.07a2.387,2.387,0,0,1,1.612-.975c.806,0,1.2.494,1.2,1.729V0h1.495V-4.5c0-1.82-.7-2.834-2.2-2.834a3.294,3.294,0,0,0-2.327,1.313,1.909,1.909,0,0,0-1.976-1.313,3.115,3.115,0,0,0-2.21,1.183H18.33l-.117-1H16.991ZM28.977,2.9h1.482V.585L30.42-.637a2.949,2.949,0,0,0,1.885.806c1.612,0,3.081-1.4,3.081-3.861,0-2.2-1.014-3.64-2.834-3.64a3.625,3.625,0,0,0-2.2.962h-.039L30.2-7.15H28.977Zm3.042-3.965a2.423,2.423,0,0,1-1.56-.65v-3.5a2.512,2.512,0,0,1,1.7-.871c1.2,0,1.677.923,1.677,2.418C33.839-1.989,33.059-1.066,32.019-1.066ZM38.389.169a2.4,2.4,0,0,0,.806-.117L39-1.079a1.038,1.038,0,0,1-.247.026c-.182,0-.364-.143-.364-.546v-8.762H36.907v8.684C36.907-.52,37.31.169,38.389.169ZM40.521,0H42V-7.15H40.521Zm.741-8.489a.9.9,0,0,0,.962-.884.889.889,0,0,0-.962-.884.878.878,0,0,0-.949.884A.886.886,0,0,0,41.262-8.489ZM45.682.169a3.554,3.554,0,0,0,2.275-.988H48l.13.819h1.222V-4.3c0-1.9-.819-3.029-2.6-3.029a5.477,5.477,0,0,0-2.886.936l.559,1.014a3.932,3.932,0,0,1,2.067-.728c1.053,0,1.352.728,1.365,1.56-2.977.325-4.277,1.118-4.277,2.652A1.975,1.975,0,0,0,45.682.169Zm.455-1.183c-.637,0-1.118-.286-1.118-.988,0-.806.715-1.339,2.834-1.6v1.755A2.521,2.521,0,0,1,46.137-1.014ZM51.207,0h1.482V-5.07a2.441,2.441,0,0,1,1.755-.975c.845,0,1.209.494,1.209,1.729V0h1.5V-4.5c0-1.82-.676-2.834-2.2-2.834a3.407,3.407,0,0,0-2.366,1.17h-.039l-.117-.988H51.207ZM61.971.169a3.484,3.484,0,0,0,2.314-.884L63.674-1.7a2.449,2.449,0,0,1-1.56.65c-1.2,0-2.015-1-2.015-2.509S60.957-6.1,62.153-6.1a1.873,1.873,0,0,1,1.287.559l.741-.975a3.07,3.07,0,0,0-2.093-.819,3.513,3.513,0,0,0-3.536,3.77C58.552-1.2,60.034.169,61.971.169Z" transform="translate(305.198 -127.749)"/>
    <path id="패스_1506" data-name="패스 1506" class="cls-5" d="M4.108.169A4.338,4.338,0,0,0,6.526-.585l-.52-.949A3.036,3.036,0,0,1,4.3-1a2.159,2.159,0,0,1-2.21-2.184H6.734A3.864,3.864,0,0,0,6.8-3.939c0-2.028-1.014-3.393-2.912-3.393A3.472,3.472,0,0,0,.624-3.562,3.435,3.435,0,0,0,4.108.169ZM2.08-4.212a1.939,1.939,0,0,1,1.833-1.95c1.04,0,1.6.715,1.6,1.95ZM14.742.169a3.778,3.778,0,0,0,2.977-1.378l-.806-.949a2.788,2.788,0,0,1-2.119,1.014c-1.69,0-2.756-1.391-2.756-3.666,0-2.249,1.144-3.627,2.8-3.627a2.545,2.545,0,0,1,1.872.858l.819-.962A3.687,3.687,0,0,0,14.807-9.75c-2.418,0-4.316,1.872-4.316,4.992S12.337.169,14.742.169ZM19.019,0H20.5V-5.07a2.441,2.441,0,0,1,1.755-.975c.845,0,1.209.494,1.209,1.729V0h1.5V-4.5c0-1.82-.676-2.834-2.2-2.834A3.327,3.327,0,0,0,20.449-6.2L20.5-7.618v-2.743H19.019Zm10.79.169a4.338,4.338,0,0,0,2.418-.754l-.52-.949A3.036,3.036,0,0,1,30-1a2.159,2.159,0,0,1-2.21-2.184h4.641a3.864,3.864,0,0,0,.065-.754c0-2.028-1.014-3.393-2.912-3.393a3.472,3.472,0,0,0-3.263,3.77A3.435,3.435,0,0,0,29.809.169ZM27.781-4.212a1.939,1.939,0,0,1,1.833-1.95c1.04,0,1.6.715,1.6,1.95ZM36.829.169a3.484,3.484,0,0,0,2.314-.884L38.532-1.7a2.449,2.449,0,0,1-1.56.65c-1.2,0-2.015-1-2.015-2.509S35.815-6.1,37.011-6.1a1.873,1.873,0,0,1,1.287.559l.741-.975a3.07,3.07,0,0,0-2.093-.819,3.513,3.513,0,0,0-3.536,3.77C33.41-1.2,34.892.169,36.829.169ZM40.378,0h1.456V-1.846l1.209-1.391L44.98,0h1.625L43.9-4.251l2.431-2.9H44.681L41.873-3.679h-.039v-6.682H40.378Zm13.65.169c2.457,0,4.173-1.911,4.173-4.992S56.485-9.75,54.028-9.75s-4.16,1.846-4.16,4.927S51.571.169,54.028.169Zm0-1.313c-1.586,0-2.613-1.43-2.613-3.679s1.027-3.614,2.613-3.614,2.626,1.365,2.626,3.614S55.614-1.144,54.028-1.144ZM59.8,0h1.482V-4.459c.455-1.131,1.157-1.534,1.742-1.534a2.115,2.115,0,0,1,.715.117l.273-1.3a1.779,1.779,0,0,0-.806-.156,2.472,2.472,0,0,0-2.028,1.469h-.039L61.022-7.15H59.8Zm7.358,3.211c2.288,0,3.744-1.118,3.744-2.5,0-1.222-.884-1.742-2.574-1.742H67.015c-.91,0-1.2-.273-1.2-.7a.948.948,0,0,1,.39-.754,2.485,2.485,0,0,0,1,.221,2.443,2.443,0,0,0,2.678-2.457,1.933,1.933,0,0,0-.468-1.313h1.365V-7.15H68.25a2.982,2.982,0,0,0-1.04-.182,2.579,2.579,0,0,0-2.769,2.574,2.447,2.447,0,0,0,.936,1.9v.052a1.764,1.764,0,0,0-.793,1.326A1.315,1.315,0,0,0,65.234-.3v.065a1.889,1.889,0,0,0-1.04,1.56C64.194,2.574,65.442,3.211,67.158,3.211Zm.052-6.435a1.394,1.394,0,0,1-1.352-1.534A1.361,1.361,0,0,1,67.21-6.279a1.368,1.368,0,0,1,1.352,1.521A1.394,1.394,0,0,1,67.21-3.224Zm.169,5.447c-1.183,0-1.911-.416-1.911-1.118a1.286,1.286,0,0,1,.611-1.04,4.545,4.545,0,0,0,.962.1H68.12c.871,0,1.339.182,1.339.78C69.459,1.612,68.627,2.223,67.379,2.223Z" transform="translate(369.249 -127.749)"/>
    <path id="패스_1507" data-name="패스 1507" class="cls-5" d="M2.821.169A3.554,3.554,0,0,0,5.1-.819h.039L5.265,0H6.487V-4.3c0-1.9-.819-3.029-2.6-3.029A5.477,5.477,0,0,0,1-6.4L1.56-5.382A3.932,3.932,0,0,1,3.627-6.11c1.053,0,1.352.728,1.365,1.56C2.015-4.225.715-3.432.715-1.9A1.975,1.975,0,0,0,2.821.169Zm.455-1.183C2.639-1.014,2.158-1.3,2.158-2c0-.806.715-1.339,2.834-1.6v1.755A2.521,2.521,0,0,1,3.276-1.014ZM8.346,0H9.828V-5.07a2.441,2.441,0,0,1,1.755-.975c.845,0,1.209.494,1.209,1.729V0h1.5V-4.5c0-1.82-.676-2.834-2.2-2.834a3.407,3.407,0,0,0-2.366,1.17H9.685L9.568-7.15H8.346ZM16.2,0H17.68V-7.15H16.2Zm.741-8.489a.9.9,0,0,0,.962-.884.889.889,0,0,0-.962-.884.878.878,0,0,0-.949.884A.886.886,0,0,0,16.939-8.489ZM19.019,0h5.525V-1.2H20.9l3.523-5.161V-7.15H19.409v1.2h3.133L19.019-.806Z" transform="translate(441.268 -127.749)"/>
    <path id="패스_1509" data-name="패스 1509" class="cls-5" d="M2.821.169A3.554,3.554,0,0,0,5.1-.819h.039L5.265,0H6.487V-4.3c0-1.9-.819-3.029-2.6-3.029A5.477,5.477,0,0,0,1-6.4L1.56-5.382A3.932,3.932,0,0,1,3.627-6.11c1.053,0,1.352.728,1.365,1.56C2.015-4.225.715-3.432.715-1.9A1.975,1.975,0,0,0,2.821.169Zm.455-1.183C2.639-1.014,2.158-1.3,2.158-2c0-.806.715-1.339,2.834-1.6v1.755A2.521,2.521,0,0,1,3.276-1.014Z" transform="translate(465.617 -127.749)"/>
    <path id="패스_1508" data-name="패스 1508" class="cls-5" d="M3.536.169a4.575,4.575,0,0,0,1.4-.26L4.667-1.2a2.132,2.132,0,0,1-.767.169c-.741,0-1.04-.442-1.04-1.3V-5.954H4.719v-1.2H2.86V-9.126H1.6L1.43-7.15l-1.1.078v1.118h1.04V-2.34C1.365-.832,1.924.169,3.536.169ZM6.019,0H7.5V-7.15H6.019ZM6.76-8.489a.9.9,0,0,0,.962-.884.889.889,0,0,0-.962-.884.878.878,0,0,0-.949.884A.886.886,0,0,0,6.76-8.489ZM12.35.169a3.434,3.434,0,0,0,3.367-3.731,3.454,3.454,0,0,0-3.367-3.77,3.454,3.454,0,0,0-3.367,3.77A3.434,3.434,0,0,0,12.35.169Zm0-1.222c-1.118,0-1.82-1-1.82-2.509s.7-2.535,1.82-2.535,1.833,1.014,1.833,2.535S13.481-1.053,12.35-1.053ZM17.212,0h1.482V-5.07a2.441,2.441,0,0,1,1.755-.975c.845,0,1.209.494,1.209,1.729V0h1.5V-4.5c0-1.82-.676-2.834-2.2-2.834a3.407,3.407,0,0,0-2.366,1.17h-.039l-.117-.988H17.212Z" transform="translate(472.612 -127.749)"/>
  </g>
  <g id="그룹-5" data-name="그룹" transform="translate(0 441.838)">
    <path id="패스_1358" data-name="패스 1358" class="cls-8" d="M1.905-4.41a7.249,7.249,0,0,0,5-3.63,7.153,7.153,0,0,0,5.04,3.57l.495-.99c-2.34-.375-4.9-2.22-4.9-4.365v-.285h4.455v-1H1.8v1H6.255v.285c0,2.145-2.55,4.02-4.875,4.41Zm5.61,2.775V-4.89H6.285v3.255H.8v1.02h12.21v-1.02Zm15-4.14a4.579,4.579,0,0,1-3.375-4.1v-.54h3.045v-.99h-7.38v.99H17.88v.54a4.817,4.817,0,0,1-3.405,4.365l.645.96a5.681,5.681,0,0,0,3.4-3.315,5.715,5.715,0,0,0,3.39,3.06ZM16.335-2.5H24.1V1.11h1.23v-4.6h-9Zm7.77-9.84V-4.2h1.23v-8.145ZM33.87-11.01c2.07,0,3.42.645,3.42,1.71s-1.35,1.695-3.42,1.695c-2.055,0-3.42-.645-3.42-1.695S31.815-11.01,33.87-11.01Zm0,4.41c2.85,0,4.71-1.035,4.71-2.7S36.72-12,33.87-12s-4.71,1.035-4.71,2.7S31.02-6.6,33.87-6.6Zm-3.3,3.48H29.34V.81h9.3V-.21H30.57Zm-2.79-2.4v1.005h5.58V-1.8H34.6V-4.515h5.37V-5.52ZM42.675-8.355a2.164,2.164,0,0,1,2.3-2.145,2.142,2.142,0,0,1,2.28,2.145,2.145,2.145,0,0,1-2.28,2.16A2.166,2.166,0,0,1,42.675-8.355Zm8.46-1.05v2.1h-2.9a3.028,3.028,0,0,0,.18-1.05,3.28,3.28,0,0,0-.165-1.05Zm0,3.105v1.92H52.38v-7.965H51.135v1.935h-3.45a3.581,3.581,0,0,0-2.715-1.125,3.21,3.21,0,0,0-3.465,3.18,3.225,3.225,0,0,0,3.465,3.21A3.5,3.5,0,0,0,47.685-6.3ZM47.925.12C45.9.12,44.67-.48,44.67-1.485s1.23-1.62,3.255-1.62c2.055,0,3.285.6,3.285,1.62S49.98.12,47.925.12Zm0-4.185c-2.76,0-4.47.945-4.47,2.58s1.71,2.58,4.47,2.58c2.775,0,4.5-.945,4.5-2.58S50.7-4.065,47.925-4.065Zm14.64-1.95A4.568,4.568,0,0,1,59.31-10.17v-1.485H58.08v1.38a4.923,4.923,0,0,1-3.345,4.62l.645.975a5.623,5.623,0,0,0,3.33-3.4,5.647,5.647,0,0,0,3.21,3.03ZM60.96.135c-1.995,0-3.21-.555-3.21-1.485,0-.945,1.215-1.5,3.21-1.5s3.195.555,3.195,1.5C64.155-.42,62.94.135,60.96.135Zm0-3.945c-2.745,0-4.44.885-4.44,2.46S58.215,1.1,60.96,1.1,65.385.21,65.385-1.35,63.69-3.81,60.96-3.81Zm4.275-5.055V-12.33H64v8.145h1.23v-3.66h2v-1.02ZM76.935-6.9h-3.81V-8.91h3.81Zm1.2-4.89h-1.2v1.935h-3.81V-11.79H71.91v5.88h6.225ZM74.49-1.485h7.305v-3.27h-8.55v.975H80.58V-2.4H73.29V.96h9V-.015h-7.8ZM81.795-9.45v-2.88h-1.23v6.945h1.23V-8.43h2V-9.45Zm11.52,1.725h1.71v3.69H96.21v-8.3H95.025v3.6h-1.71v-3.345h-1.17v7.6h1.17ZM91.59-6.03a4.045,4.045,0,0,1-2.73-3.66v-1.815H87.675V-9.69A4.659,4.659,0,0,1,84.87-5.67l.66.96A5.35,5.35,0,0,0,88.275-7.7a4.823,4.823,0,0,0,2.655,2.61ZM91.77.15c-2.01,0-3.27-.54-3.27-1.47s1.26-1.455,3.27-1.455c2.04,0,3.285.525,3.285,1.455S93.81.15,91.77.15Zm0-3.885c-2.76,0-4.485.885-4.485,2.415S89.01,1.1,91.77,1.1s4.5-.885,4.5-2.415S94.545-3.735,91.77-3.735Zm10.365-7.17v1.02h4.935c-.285,3.18-2.13,5.76-5.565,7.485l.675.96c4.35-2.175,6.105-5.64,6.105-9.465Zm11.79,4.02h-2.16v-5.46h-1.23V1.11h1.23V-5.865h2.16ZM125.7-8.6h-7.9V-12.06h-1.23v4.455H125.7Zm-4.71,8.7c-2.115,0-3.36-.555-3.36-1.485,0-.96,1.245-1.5,3.36-1.5s3.36.54,3.36,1.5C124.35-.45,123.09.105,120.99.105Zm0-3.945c-2.865,0-4.605.885-4.605,2.46s1.74,2.445,4.605,2.445,4.6-.885,4.6-2.445S123.855-3.84,120.99-3.84Zm-6.06-2.2V-5.04H127.1V-6.045Zm21.465-4.65h-3.36V-12.33h-1.23v1.635H128.46v.99H136.4Zm-6.015,4.23c0-.93.81-1.53,2.04-1.53s2.055.6,2.055,1.53c0,.945-.84,1.545-2.055,1.545S130.38-5.52,130.38-6.465Zm5.265,0c0-1.5-1.32-2.49-3.225-2.49s-3.21.99-3.21,2.49,1.3,2.505,3.21,2.505S135.645-4.95,135.645-6.465Zm-3.93,3.42h-1.23V.81h8.97V-.2h-7.74Zm7.14-4.86V-12.33h-1.23V-2.25h1.23V-6.87h1.995V-7.905Z" transform="translate(329.45 -100.749)"/>
    <text id="_4" data-name=" " class="cls-9" transform="translate(472.55 -100.749)"><tspan x="0" y="0"> </tspan></text>
    <text id="_5" data-name=" " class="cls-10" transform="translate(476.15 -100.749)"><tspan x="0" y="0"> </tspan></text>
    <path id="패스_1359" data-name="패스 1359" class="cls-8" d="M6.87-11.01c2.055,0,3.42.645,3.42,1.7S8.925-7.62,6.87-7.62c-2.04,0-3.42-.645-3.42-1.695S4.83-11.01,6.87-11.01Zm0,4.38c2.85,0,4.71-1.02,4.71-2.685S9.72-12,6.87-12c-2.835,0-4.71,1.02-4.71,2.685S4.035-6.63,6.87-6.63ZM3.51-2.955H2.28V.81h9.435V-.2H3.51ZM.8-5.61v1.005H5.04v2.79H6.27v-2.79H8.64v2.79H9.87v-2.79h3.09V-5.61Zm15.51-.675H21.27V-11.1H15.03v1.005h4.995v2.8h-4.95v5.16h1.11a39.044,39.044,0,0,0,6.78-.495l-.12-1a39.538,39.538,0,0,1-6.54.48Zm7.8-6.075V1.125h1.23V-12.36ZM35.73-5.775a4.632,4.632,0,0,1-3.27-4.11v-.54h2.955V-11.43H28.23v1.005h3v.54a4.888,4.888,0,0,1-3.39,4.41l.645.975A5.7,5.7,0,0,0,31.86-7.86a5.576,5.576,0,0,0,3.255,3.045Zm-5.85,3.21h7.755v3.69h1.23v-4.68H29.88Zm7.755-9.78v3.51H35.01v1h2.625v3.54h1.23v-8.055Zm8.73,6.06H51.33V-11.1H45.09v1.005h5v2.8h-4.95v5.16h1.11a39.044,39.044,0,0,0,6.78-.495l-.12-1a39.538,39.538,0,0,1-6.54.48Zm7.8-6.075V1.125H55.4V-12.36ZM69.45-5.58c-2.355-.45-4.9-2.49-4.9-4.785V-11.4h-1.29v1.035c0,2.3-2.535,4.32-4.89,4.785l.555,1.02A7.388,7.388,0,0,0,63.9-8.445a7.3,7.3,0,0,0,5,3.885ZM57.855-1.71V-.69h12.2V-1.71Zm14.61-5.175.18,1.02,8.115-.45a23.552,23.552,0,0,1-.51,3.435l1.2.12a28.025,28.025,0,0,0,.585-6.57v-1.65H72.81v1h8.025v.645c0,.69,0,1.38-.03,2.085ZM71.37-1.77v1H83.535v-1Zm17.85-9.585c-2.085,0-3.6,1.275-3.6,3.165s1.515,3.165,3.6,3.165,3.6-1.29,3.6-3.165S91.32-11.355,89.22-11.355Zm0,1.05a2.173,2.173,0,0,1,2.4,2.115,2.182,2.182,0,0,1-2.4,2.115,2.182,2.182,0,0,1-2.4-2.115A2.173,2.173,0,0,1,89.22-10.3Zm5.37-2.04V1.14h1.23V-12.345ZM85.1-1.815A48.072,48.072,0,0,0,93.81-2.4l-.1-.915a60.584,60.584,0,0,1-8.76.465Zm20.835-9.36h-1.215V-8.76a7.129,7.129,0,0,1-3.465,6.015l.735.99A7.452,7.452,0,0,0,105.33-6.21a7.421,7.421,0,0,0,3.255,4.185L109.35-3a6.794,6.794,0,0,1-3.42-5.76Zm8.055,4.29h-2.22V-12.33h-1.23V1.11h1.23V-5.865h2.22Zm8.07-1.74v1h2.7v5.145H126V-12.33h-1.245v3.7Zm.8,3.165a4.619,4.619,0,0,1-3.27-4.125v-.66h2.955v-1H115.35v1h3v.675a4.9,4.9,0,0,1-3.39,4.41l.645.96A5.742,5.742,0,0,0,119-7.545a5.551,5.551,0,0,0,3.24,3.045ZM118.635-.2v-3.15H117.39V.81h8.985V-.2Zm15.57-4.8a9.792,9.792,0,0,0,.12-1.545,9.792,9.792,0,0,0-.12-1.545h1.83v3.09Zm-2.76,2.01c-1.065,0-1.755-1.365-1.755-3.555,0-2.175.69-3.54,1.755-3.54S133.2-8.715,133.2-6.54C133.2-4.35,132.525-2.985,131.445-2.985Zm4.59-6.105H133.95a2.694,2.694,0,0,0-2.5-2.13c-1.74,0-2.865,1.8-2.865,4.68s1.125,4.695,2.865,4.695a2.707,2.707,0,0,0,2.5-2.13h2.085V.45h1.17v-12.5h-1.17Zm2.64-3.255V1.11h1.17V-12.345Zm8.82,6.06h-3.81V-8.5h3.81Zm1.2-5.2h-1.2v2.025h-3.81V-11.49H142.47v6.2h6.225ZM148.08.135c-2.01,0-3.21-.57-3.21-1.53s1.2-1.515,3.21-1.515c1.98,0,3.195.555,3.195,1.515S150.06.135,148.08.135Zm0-4.035c-2.745,0-4.44.915-4.44,2.5s1.695,2.5,4.44,2.5c2.73,0,4.425-.915,4.425-2.5S150.81-3.9,148.08-3.9Zm4.275-5.055v-3.39h-1.23v8.1h1.23v-3.69h1.995v-1.02Zm17.145-3.39h-1.23V-4.62h1.23ZM164.265-6.96H160.38V-10.5h3.885Zm1.2-4.515H159.18v5.5h6.285Zm4.35,8.715V-3.7H165.87v-1.3h-1.245v1.3H160.68v.945h3.93c-.015,1.335-2.16,2.61-4.455,2.88l.4.945a6.724,6.724,0,0,0,4.695-2.46,6.625,6.625,0,0,0,4.62,2.46l.42-.945c-2.31-.285-4.41-1.59-4.425-2.88Z" transform="translate(314 -78.744)"/>
    <text id="_6" data-name=" " class="cls-9" transform="translate(488 -78.744)"><tspan x="0" y="0"> </tspan></text>
    <text id="_7" data-name=" " class="cls-10" transform="translate(491.6 -78.744)"><tspan x="0" y="0"> </tspan></text>
    <path id="패스_1360" data-name="패스 1360" class="cls-8" d="M7.86-6.6A19.459,19.459,0,0,0,8.2-10.59V-11.3H1.515v1.005h5.49a17.1,17.1,0,0,1-.36,3.555Zm1.275.81c-1.365.2-2.895.3-4.365.36V-8.3H3.555v2.91c-1.02.015-2,.03-2.85.03L.825-4.35a53.915,53.915,0,0,0,8.4-.54ZM3.99-3.135H2.76V.81H11.7V-.2H3.99Zm7.275-4.83v-4.38h-1.23V-2.2h1.23v-4.74H13.2v-1.02Zm5.04,1.68H21.27V-11.1H15.03v1.005h4.995v2.8h-4.95v5.16h1.11a39.044,39.044,0,0,0,6.78-.495l-.12-1a39.538,39.538,0,0,1-6.54.48Zm7.8-6.075V1.125h1.23V-12.36Zm18.33,5.145c-2.445-.36-4.845-2.025-4.845-3.9v-.75H36.3v.75c0,1.92-2.37,3.54-4.815,3.9l.5.99a6.894,6.894,0,0,0,4.965-3.15,7.06,7.06,0,0,0,4.98,3.15ZM43.02-4.77H30.87v1.02H36.3V1.125h1.23V-3.75h5.505Zm9.8-2.91h1.71v3.855H55.71v-8.52H54.525v3.66h-1.71v-3.39h-1.17V-4.3h1.17ZM51.12-10.74H48.315v-1.5H47.1v1.5H44.28v.975h6.84ZM45.945-6.765c0-.825.705-1.38,1.77-1.38s1.77.555,1.77,1.38-.72,1.395-1.77,1.395S45.945-5.925,45.945-6.765Zm4.635,0c0-1.38-1.17-2.295-2.865-2.295s-2.88.915-2.88,2.295c0,1.41,1.185,2.31,2.88,2.31S50.58-5.355,50.58-6.765Zm.7,6.915C49.23.15,48-.36,48-1.245s1.23-1.41,3.285-1.41,3.27.51,3.27,1.41S53.325.15,51.285.15Zm0-3.75c-2.8,0-4.5.84-4.5,2.355s1.7,2.34,4.5,2.34,4.5-.84,4.5-2.34S54.09-3.6,51.285-3.6Z" transform="translate(371.9 -56.739)"/>
  </g>
  <g id="그룹-6" data-name="그룹" transform="translate(0 441.838)">
    <path id="패스_1511" data-name="패스 1511" class="cls-5" d="M10.185-9.7A28.608,28.608,0,0,1,9.7-3.75l1.545.18A30.74,30.74,0,0,0,11.73-9.7V-11.13H1.98v1.26h8.205ZM8.46-1.89V-6.27H6.93v4.38H5.115V-6.27H3.585v4.38H.765V-.615h12.24V-1.89Zm11.925-9c2.01,0,3.225.51,3.225,1.425s-1.215,1.41-3.225,1.41-3.24-.51-3.24-1.41S18.36-10.89,20.385-10.89Zm0,4.05c2.94,0,4.83-.99,4.83-2.625s-1.89-2.625-4.83-2.625-4.83.99-4.83,2.625S17.43-6.84,20.385-6.84ZM21.87-3.225h-3V-4.71h3ZM26.505-4.71V-5.955H14.235V-4.71h3.09v1.485h-1.71V-2H23.46v3.15h1.545v-4.38h-1.59V-4.71Zm4.3,1.53c-.93,0-1.5-1.215-1.5-3.36s.57-3.345,1.5-3.345,1.5,1.2,1.5,3.345S31.74-3.18,30.81-3.18Zm4.335-4.08H33.69c-.165-2.535-1.26-4.08-2.88-4.08-1.755,0-2.91,1.83-2.91,4.8s1.155,4.815,2.91,4.815c1.65,0,2.76-1.62,2.9-4.26h1.44V.51h1.44V-12.135h-1.44Zm2.715-5.13V1.14h1.47V-12.39Zm10.845.945c-2.115,0-3.675,1.335-3.675,3.255s1.56,3.255,3.675,3.255S52.4-6.27,52.4-8.19,50.82-11.445,48.705-11.445Zm0,1.32A1.961,1.961,0,0,1,50.88-8.19a1.969,1.969,0,0,1-2.175,1.935,1.964,1.964,0,0,1-2.16-1.935A1.956,1.956,0,0,1,48.705-10.125Zm5.22-2.28V1.17h1.56V-12.405ZM44.6-1.695a47.15,47.15,0,0,0,8.625-.6l-.1-1.125a61.925,61.925,0,0,1-8.715.45Zm21.255-9.15H62.625v-1.56H61.08v1.56H57.855v1.23H65.85Zm-5.8,4.425c0-.855.735-1.365,1.8-1.365s1.815.51,1.815,1.365-.735,1.365-1.815,1.365S60.045-5.565,60.045-6.42Zm5.085,0c0-1.53-1.335-2.565-3.285-2.565S58.56-7.95,58.56-6.42c0,1.545,1.35,2.565,3.285,2.565S65.13-4.875,65.13-6.42ZM61.4-3.015h-1.56V.9h9.12V-.36H61.4Zm7.02-5.055v-4.32H66.87V-2.235h1.545V-6.8h1.92V-8.07Zm16.35,1.065a12.827,12.827,0,0,0,.375-3.6v-1.14h-9.3V-10.5h7.77a12.081,12.081,0,0,1-.36,3.33ZM80.49-.03c-2.01,0-3.24-.495-3.24-1.35s1.23-1.335,3.24-1.335c1.995,0,3.195.495,3.195,1.335S82.485-.03,80.49-.03Zm0-3.87c-2.925,0-4.77.96-4.77,2.52,0,1.575,1.845,2.535,4.77,2.535,2.88,0,4.74-.96,4.74-2.535C85.23-2.94,83.37-3.9,80.49-3.9Zm.3-2.295v-2.49H79.23v2.49h-4.8V-4.95H86.64V-6.195Zm7.665-5.385v1.26h4.65c-.255,2.055-2.1,3.705-5.265,4.545l.6,1.23c4-1.065,6.33-3.525,6.33-7.035Zm2.91,8.64h5.6V-.255h-5.6ZM89.835.99H98.49V-4.17H89.835ZM100.41-9.255H98.49v-3.15H96.945v7.65H98.49V-7.98h1.92Zm2.97-.27h3.495v-1.26h-5.01V-2.07h.9a24.435,24.435,0,0,0,4.935-.375l-.135-1.275a20.788,20.788,0,0,1-4.185.375Zm8.115-2.88V-7.05H109.89v-5.07h-1.455V.48h1.455V-5.79H111.5V1.14h1.47V-12.405Zm16.17,8.715h1.545v-8.7h-1.545v3.12h-2.04v1.26h2.04v1.425H125.6V-5.34h2.07Zm-2.13-7.335H122.61V-12.51h-1.545v1.485H118.02V-9.8h7.515Zm-5.37,4.35c0-.825.675-1.35,1.68-1.35.99,0,1.665.525,1.665,1.35,0,.855-.675,1.365-1.665,1.365C120.84-5.31,120.165-5.82,120.165-6.675Zm4.785,0c0-1.5-1.275-2.52-3.1-2.52-1.845,0-3.12,1.02-3.12,2.52S120-4.14,121.845-4.14C123.675-4.14,124.95-5.16,124.95-6.675ZM124.725-.03c-1.86,0-2.955-.405-2.955-1.17s1.1-1.155,2.955-1.155c1.83,0,2.925.39,2.925,1.155S126.555-.03,124.725-.03Zm0-3.51c-2.835,0-4.575.87-4.575,2.34s1.74,2.355,4.575,2.355c2.805,0,4.56-.87,4.56-2.355S127.53-3.54,124.725-3.54Zm16.44-.87h1.545v-8h-1.545V-9.69H138.42v1.26h2.745ZM139.53-6.165a4.405,4.405,0,0,1-3.18-4.245v-1.26h-1.56v1.335a4.74,4.74,0,0,1-3.36,4.545l.81,1.245a5.6,5.6,0,0,0,3.375-3.27,5.258,5.258,0,0,0,3.09,2.865ZM138.2-.06c-1.92,0-3.015-.5-3.015-1.38s1.1-1.38,3.015-1.38,3.03.495,3.03,1.38S140.115-.06,138.2-.06Zm0-3.975c-2.82,0-4.56.96-4.56,2.595s1.74,2.6,4.56,2.6,4.575-.96,4.575-2.6S141.03-4.035,138.2-4.035Z" transform="translate(556.071 -149.749)"/>
    <text id="_8" data-name=" " class="cls-7" transform="translate(703.071 -149.749)"><tspan x="0" y="0"> </tspan></text>
  </g>
  <g id="그룹-7" data-name="그룹" transform="translate(0 441.838)">
    <path id="패스_1512" data-name="패스 1512" class="cls-5" d="M4.992.169A3.778,3.778,0,0,0,7.969-1.209l-.806-.949A2.788,2.788,0,0,1,5.044-1.144c-1.69,0-2.756-1.391-2.756-3.666,0-2.249,1.144-3.627,2.8-3.627a2.545,2.545,0,0,1,1.872.858l.819-.962A3.687,3.687,0,0,0,5.057-9.75C2.639-9.75.741-7.878.741-4.758S2.587.169,4.992.169Zm7.137,0A3.434,3.434,0,0,0,15.5-3.562a3.454,3.454,0,0,0-3.367-3.77,3.454,3.454,0,0,0-3.367,3.77A3.434,3.434,0,0,0,12.129.169Zm0-1.222c-1.118,0-1.82-1-1.82-2.509s.7-2.535,1.82-2.535,1.833,1.014,1.833,2.535S13.26-1.053,12.129-1.053ZM16.991,0h1.482V-5.07a2.441,2.441,0,0,1,1.755-.975c.845,0,1.209.494,1.209,1.729V0h1.495V-4.5c0-1.82-.676-2.834-2.2-2.834a3.407,3.407,0,0,0-2.366,1.17H18.33l-.117-.988H16.991ZM26.78.169C28.548.169,29.5-.806,29.5-2c0-1.352-1.1-1.794-2.106-2.171-.78-.286-1.521-.52-1.521-1.131,0-.494.364-.884,1.144-.884a2.676,2.676,0,0,1,1.6.624l.7-.923a3.764,3.764,0,0,0-2.327-.845c-1.573,0-2.535.9-2.535,2.093s1.092,1.716,2.041,2.08c.78.3,1.586.585,1.586,1.235,0,.546-.4.962-1.261.962a3.169,3.169,0,0,1-2.028-.819l-.7.962A4.4,4.4,0,0,0,26.78.169Zm7.02,0a4.338,4.338,0,0,0,2.418-.754l-.52-.949a3.036,3.036,0,0,1-1.7.533,2.159,2.159,0,0,1-2.21-2.184h4.641a3.864,3.864,0,0,0,.065-.754c0-2.028-1.014-3.393-2.912-3.393a3.472,3.472,0,0,0-3.263,3.77A3.435,3.435,0,0,0,33.8.169ZM31.772-4.212A1.939,1.939,0,0,1,33.6-6.162c1.04,0,1.6.715,1.6,1.95ZM37.908,0H39.39V-5.07a2.441,2.441,0,0,1,1.755-.975c.845,0,1.209.494,1.209,1.729V0h1.495V-4.5c0-1.82-.676-2.834-2.2-2.834a3.407,3.407,0,0,0-2.366,1.17h-.039L39.13-7.15H37.908ZM47.7.169c1.768,0,2.717-.975,2.717-2.171,0-1.352-1.1-1.794-2.106-2.171-.78-.286-1.521-.52-1.521-1.131,0-.494.364-.884,1.144-.884a2.676,2.676,0,0,1,1.6.624l.7-.923a3.764,3.764,0,0,0-2.327-.845c-1.573,0-2.535.9-2.535,2.093s1.092,1.716,2.041,2.08c.78.3,1.586.585,1.586,1.235,0,.546-.4.962-1.261.962a3.169,3.169,0,0,1-2.028-.819l-.7.962A4.4,4.4,0,0,0,47.7.169Zm6.136,0a3,3,0,0,0,2.34-1.248h.039L56.329,0h1.222V-7.15h-1.5v4.966c-.6.754-1.053,1.066-1.716,1.066-.845,0-1.2-.481-1.2-1.716V-7.15H51.649v4.5C51.649-.832,52.312.169,53.833.169Zm7.644,0c1.768,0,2.717-.975,2.717-2.171,0-1.352-1.1-1.794-2.106-2.171-.78-.286-1.521-.52-1.521-1.131,0-.494.364-.884,1.144-.884a2.676,2.676,0,0,1,1.6.624l.7-.923a3.764,3.764,0,0,0-2.327-.845c-1.573,0-2.535.9-2.535,2.093s1.092,1.716,2.041,2.08c.78.3,1.586.585,1.586,1.235,0,.546-.4.962-1.261.962a3.169,3.169,0,0,1-2.028-.819l-.7.962A4.4,4.4,0,0,0,61.477.169Zm10.036,0c1.612,0,3.081-1.4,3.081-3.861,0-2.2-1.027-3.64-2.834-3.64a3.413,3.413,0,0,0-2.132.936l.039-1.222v-2.743H68.185V0h1.17L69.5-.741h.039A2.969,2.969,0,0,0,71.513.169Zm-.286-1.235a2.4,2.4,0,0,1-1.56-.65v-3.5a2.487,2.487,0,0,1,1.7-.871c1.2,0,1.677.923,1.677,2.418C73.047-1.989,72.267-1.066,71.227-1.066ZM81.8-7.15H80.34L79.2-3.471l-.559,2.015h-.065c-.221-.663-.442-1.378-.65-2.015L76.6-7.15H75.062L77.9-.052l-.143.494c-.26.767-.715,1.339-1.5,1.339a1.937,1.937,0,0,1-.52-.1l-.286,1.17a2.543,2.543,0,0,0,.9.143c1.508,0,2.262-1.027,2.821-2.561ZM85.631,0h5.8V-1.274h-4.29V-4.368h3.51V-5.642h-3.51V-8.307h4.147V-9.568H85.631Z" transform="translate(539.761 -127.749)"/>
    <path id="패스_1513" data-name="패스 1513" class="cls-5" d="M3.536.169a4.575,4.575,0,0,0,1.4-.26L4.667-1.2a2.132,2.132,0,0,1-.767.169c-.741,0-1.04-.442-1.04-1.3V-5.954H4.719v-1.2H2.86V-9.126H1.6L1.43-7.15l-1.1.078v1.118h1.04V-2.34C1.365-.832,1.924.169,3.536.169ZM6.019,0H7.5V-5.07a2.441,2.441,0,0,1,1.755-.975c.845,0,1.209.494,1.209,1.729V0h1.5V-4.5c0-1.82-.676-2.834-2.2-2.834A3.327,3.327,0,0,0,7.449-6.2L7.5-7.618v-2.743H6.019Zm7.813,0h1.482V-7.15H13.832Zm.741-8.489a.9.9,0,0,0,.962-.884.889.889,0,0,0-.962-.884.878.878,0,0,0-.949.884A.886.886,0,0,0,14.573-8.489ZM20.215.169a3.484,3.484,0,0,0,2.314-.884L21.918-1.7a2.449,2.449,0,0,1-1.56.65c-1.2,0-2.015-1-2.015-2.509S19.2-6.1,20.4-6.1a1.873,1.873,0,0,1,1.287.559l.741-.975a3.07,3.07,0,0,0-2.093-.819A3.513,3.513,0,0,0,16.8-3.562C16.8-1.2,18.278.169,20.215.169ZM26.559,0h5.8V-1.274h-4.29V-4.368h3.51V-5.642h-3.51V-8.307h4.147V-9.568H26.559ZM36.3.169a3,3,0,0,0,2.08-.975h.039l.13.806h1.222V-10.361H38.272v2.652l.065,1.183a2.758,2.758,0,0,0-1.924-.806c-1.6,0-3.068,1.443-3.068,3.77C33.345-1.2,34.5.169,36.3.169Zm.351-1.235c-1.118,0-1.755-.9-1.755-2.522,0-1.547.806-2.5,1.807-2.5a2.242,2.242,0,0,1,1.573.65v3.5A2.1,2.1,0,0,1,36.647-1.066Zm7.2,1.235a3,3,0,0,0,2.34-1.248h.039L46.345,0h1.222V-7.15h-1.5v4.966c-.6.754-1.053,1.066-1.716,1.066-.845,0-1.2-.481-1.2-1.716V-7.15H41.665v4.5C41.665-.832,42.328.169,43.849.169Zm8.619,0a3.484,3.484,0,0,0,2.314-.884L54.171-1.7a2.449,2.449,0,0,1-1.56.65c-1.2,0-2.015-1-2.015-2.509S51.454-6.1,52.65-6.1a1.873,1.873,0,0,1,1.287.559l.741-.975a3.07,3.07,0,0,0-2.093-.819,3.513,3.513,0,0,0-3.536,3.77C49.049-1.2,50.531.169,52.468.169Zm5.1,0a3.554,3.554,0,0,0,2.275-.988h.039l.13.819H61.23V-4.3c0-1.9-.819-3.029-2.6-3.029a5.477,5.477,0,0,0-2.886.936L56.3-5.382A3.932,3.932,0,0,1,58.37-6.11c1.053,0,1.352.728,1.365,1.56-2.977.325-4.277,1.118-4.277,2.652A1.975,1.975,0,0,0,57.564.169Zm.455-1.183C57.382-1.014,56.9-1.3,56.9-2c0-.806.715-1.339,2.834-1.6v1.755A2.521,2.521,0,0,1,58.019-1.014Z" transform="translate(632.737 -127.749)"/>
    <path id="패스_1514" data-name="패스 1514" class="cls-5" d="M3.536.169a4.575,4.575,0,0,0,1.4-.26L4.667-1.2a2.132,2.132,0,0,1-.767.169c-.741,0-1.04-.442-1.04-1.3V-5.954H4.719v-1.2H2.86V-9.126H1.6L1.43-7.15l-1.1.078v1.118h1.04V-2.34C1.365-.832,1.924.169,3.536.169ZM6.019,0H7.5V-7.15H6.019ZM6.76-8.489a.9.9,0,0,0,.962-.884.889.889,0,0,0-.962-.884.878.878,0,0,0-.949.884A.886.886,0,0,0,6.76-8.489ZM12.35.169a3.434,3.434,0,0,0,3.367-3.731,3.454,3.454,0,0,0-3.367-3.77,3.454,3.454,0,0,0-3.367,3.77A3.434,3.434,0,0,0,12.35.169Zm0-1.222c-1.118,0-1.82-1-1.82-2.509s.7-2.535,1.82-2.535,1.833,1.014,1.833,2.535S13.481-1.053,12.35-1.053ZM17.212,0h1.482V-5.07a2.441,2.441,0,0,1,1.755-.975c.845,0,1.209.494,1.209,1.729V0h1.5V-4.5c0-1.82-.676-2.834-2.2-2.834a3.407,3.407,0,0,0-2.366,1.17h-.039l-.117-.988H17.212Z" transform="translate(695.189 -127.749)"/>
  </g>
  <g id="그룹-8" data-name="그룹" transform="translate(0 441.838)">
    <path id="패스_1361" data-name="패스 1361" class="cls-8" d="M3.48-1.44h8.025V-4.575H2.235v.96H10.3v1.26H2.265V.93h9.72V-.03H3.48Zm7.635-5.4a18.172,18.172,0,0,0,.315-3.84V-11.7H2.355v.975h7.86v.045c0,.39,0,.81-.015,1.26l-8.175.255.15.975,7.965-.36c-.06.51-.135,1.08-.27,1.71H.825v.99h12.12v-.99Zm14.2-5.49H24.09v9.9h1.23ZM22.485-5.79a34.213,34.213,0,0,1-6.285.45V-7.5h4.875v-3.885h-6.12v.99H19.86V-8.43H15v4.095h1.08a36.642,36.642,0,0,0,6.525-.45ZM17.775-.2v-3h-1.23v4h9.15V-.2ZM31.95-7.455l.18,1.05,8.13-.435a27.956,27.956,0,0,1-.48,3.18l1.215.15a27.717,27.717,0,0,0,.57-6.255v-1.26l-.7-.015H32.31v1h8.04v.27c0,.615,0,1.26-.03,1.965Zm4.875,5.73V-5.22H35.6v3.495h-4.74v1H43.02v-1Zm10.92-8.82A1.621,1.621,0,0,1,49.56-9a1.621,1.621,0,0,1-1.815,1.545A1.635,1.635,0,0,1,45.915-9,1.635,1.635,0,0,1,47.745-10.545Zm0,4.02c1.68,0,2.925-1.02,2.925-2.475,0-1.47-1.245-2.475-2.925-2.475S44.82-10.47,44.82-9C44.82-7.545,46.05-6.525,47.745-6.525Zm3.435.69a52.31,52.31,0,0,1-7,.345l.15,1.035c.78,0,1.755,0,2.775-.045V.03h1.17V-4.575a21.307,21.307,0,0,0,3-.36Zm.855,2.325h-2.52v.96h2.52V.42H53.19V-12.015H52.035Zm2.535-8.82V1.11h1.185V-12.33Zm13.065-.015V1.14h1.23V-12.345ZM61.77-11.31c-1.995,0-3.42,1.83-3.42,4.7s1.425,4.7,3.42,4.7,3.42-1.83,3.42-4.7S63.765-11.31,61.77-11.31Zm0,1.11c1.305,0,2.235,1.41,2.235,3.585,0,2.19-.93,3.6-2.235,3.6s-2.25-1.41-2.25-3.6C59.52-8.79,60.45-10.2,61.77-10.2ZM83.805-7.98h-6.63v-2.745h6.63Zm1.215-3.735H75.975V-6.99H85.02ZM77.175-3.03h-1.23V.81h9.3V-.2h-8.07Zm-2.79-2.43v.99h5.6v2.715h1.23V-4.47h5.4v-.99ZM96.03-10.71H92.64v-1.62H91.41v1.62H87.99v.975h8.04ZM90.015-6.45c0-.93.81-1.545,2.01-1.545s2.01.615,2.01,1.545-.81,1.53-2.01,1.53S90.015-5.52,90.015-6.45ZM92.64-3.99a2.572,2.572,0,0,0,2.565-2.46c0-1.515-1.305-2.49-3.18-2.49s-3.18.975-3.18,2.49A2.572,2.572,0,0,0,91.41-3.99v1.47c-1.305.045-2.565.045-3.645.045L87.93-1.44a49.66,49.66,0,0,0,8.4-.54l-.075-.915a35.171,35.171,0,0,1-3.615.33Zm7.74-2.64h-2.1v-5.715H97.05V1.11h1.23v-6.7h2.1Zm12.09-4.485h-3.24v-1.32H108v1.32h-3.255v.93h7.725ZM106.635-7.7c0-.7.765-1.14,1.98-1.14,1.185,0,1.965.435,1.965,1.14s-.78,1.155-1.965,1.155C107.4-6.54,106.635-6.99,106.635-7.7Zm6.24,2.58a35.762,35.762,0,0,1-3.645.33v-.93c1.545-.165,2.52-.885,2.52-1.98,0-1.23-1.26-2-3.135-2-1.9,0-3.15.765-3.15,2,0,1.11.975,1.83,2.535,1.98v.975c-1.29.045-2.52.045-3.585.045l.135.99a51.324,51.324,0,0,0,8.415-.525Zm-6.825,3.45h7.62V1.11h1.23V-2.64h-8.85Zm10.83-6.6H114.9V-12.33h-1.23v9.015h1.23v-3.93h1.98Zm8.94,2.685A4.71,4.71,0,0,1,122.5-9.84v-1.695h-1.23V-9.87a4.889,4.889,0,0,1-3.36,4.62l.645.975a5.581,5.581,0,0,0,3.36-3.42,5.659,5.659,0,0,0,3.285,3.09Zm-4.515,2.22h-1.23V.81H129V-.2h-7.695Zm7.11-4.86v-4.14h-1.23v9.945h1.23V-7.2h1.995V-8.22Zm9.135-2.97c2.205,0,3.465.51,3.465,1.41s-1.26,1.41-3.465,1.41-3.465-.51-3.465-1.41S135.345-11.19,137.55-11.19Zm0,3.735c2.955,0,4.725-.81,4.725-2.325s-1.77-2.34-4.725-2.34-4.725.825-4.725,2.34S134.595-7.455,137.55-7.455Zm-3.375,6.09h7.9v-3.03h-9.15v.93h7.935v1.2h-7.89V.96h9.51V0h-8.31ZM131.46-6.54v.99h12.18v-.99Z" transform="translate(556.071 -100.749)"/>
    <text id="_9" data-name=" " class="cls-9" transform="translate(703.071 -100.749)"><tspan x="0" y="0"> </tspan></text>
    <text id="_10" data-name=" " class="cls-10" transform="translate(706.671 -100.749)"><tspan x="0" y="0"> </tspan></text>
    <path id="패스_1362" data-name="패스 1362" class="cls-8" d="M5.2-10.695c1.3,0,2.235.7,2.235,1.755S6.51-7.185,5.2-7.185c-1.32,0-2.25-.705-2.25-1.755S3.885-10.695,5.2-10.695Zm0,4.515c1.995,0,3.42-1.125,3.42-2.76S7.2-11.715,5.2-11.715c-2.01,0-3.435,1.125-3.435,2.775S3.195-6.18,5.2-6.18Zm4.425.66a61.8,61.8,0,0,1-8.865.48L.93-4C2.04-4,3.315-4.02,4.65-4.08V.69H5.88V-4.155a33.729,33.729,0,0,0,3.855-.45Zm.975-6.81V1.125h1.23V-12.33Zm11.67,1.635h-3.36V-12.33h-1.23v1.635H14.34v.99h7.935ZM16.26-6.465c0-.93.81-1.53,2.04-1.53s2.055.6,2.055,1.53c0,.945-.84,1.545-2.055,1.545S16.26-5.52,16.26-6.465Zm5.265,0c0-1.5-1.32-2.49-3.225-2.49s-3.21.99-3.21,2.49S16.4-3.96,18.3-3.96,21.525-4.95,21.525-6.465ZM17.6-3.045h-1.23V.81h8.97V-.2H17.6Zm7.14-4.86V-12.33h-1.23V-2.25h1.23V-6.87H26.73V-7.905Zm15.93-4.425v7.7H41.9v-7.7Zm-7.47,8.415V.93h8.7V-3.915Zm7.5.975V-.06H34.4V-2.94Zm-6.03-8.685a3.2,3.2,0,0,0-3.5,3.135,3.2,3.2,0,0,0,3.5,3.135A3.213,3.213,0,0,0,38.19-8.49,3.213,3.213,0,0,0,34.665-11.625Zm0,1.02A2.15,2.15,0,0,1,36.99-8.49a2.141,2.141,0,0,1-2.325,2.115,2.124,2.124,0,0,1-2.3-2.115A2.132,2.132,0,0,1,34.665-10.605Zm17.91,4.83A4.579,4.579,0,0,1,49.2-9.87v-.54h3.045v-.99h-7.38v.99H47.94v.54a4.817,4.817,0,0,1-3.405,4.365l.645.96A5.681,5.681,0,0,0,48.585-7.86a5.715,5.715,0,0,0,3.39,3.06ZM46.4-2.5h7.77V1.11H55.4v-4.6h-9Zm7.77-9.84V-4.2H55.4v-8.145ZM64.9-4.395v.915h2.73V-2.1h1.23V-12.345h-1.23v7.95Zm-2.745-6.5c1.275,0,2.145.57,2.145,1.425s-.87,1.44-2.145,1.44-2.145-.57-2.145-1.44S60.885-10.89,62.16-10.89Zm0,3.78c1.965,0,3.315-.915,3.315-2.355,0-1.41-1.35-2.34-3.315-2.34s-3.315.93-3.315,2.34C58.845-8.025,60.195-7.11,62.16-7.11Zm-.48,4.53h1.23V-5.235c1.215-.075,2.46-.21,3.645-.39L66.45-6.51a73.088,73.088,0,0,1-8.67.39l.165,1.02c1.11,0,2.4-.015,3.735-.075ZM60.93-.2v-2.91H59.7V.81h9.51V-.2Zm24.51-12.15H84.21V-4.62h1.23ZM80.205-6.96H76.32V-10.5h3.885Zm1.2-4.515H75.12v5.5H81.4Zm4.35,8.715V-3.7H81.81v-1.3H80.565v1.3H76.62v.945h3.93C80.535-1.425,78.39-.15,76.1.12l.4.945a6.724,6.724,0,0,0,4.695-2.46,6.625,6.625,0,0,0,4.62,2.46l.42-.945c-2.31-.285-4.41-1.59-4.425-2.88Zm12.78-8.235h-3.09V-12.48h-1.23v1.485H91v.99h7.53Zm-5.61,4.08c0-.9.765-1.485,1.89-1.485s1.89.585,1.89,1.485S95.94-5.43,94.815-5.43,92.925-6.015,92.925-6.915Zm4.935,0c0-1.455-1.26-2.415-3.045-2.415-1.8,0-3.045.96-3.045,2.415S93.015-4.5,94.815-4.5C96.6-4.5,97.86-5.46,97.86-6.915Zm2.985,6.87H94.56V-1.47h6.285Zm0-2.37H94.56v-1.38H93.345V.93h8.715V-3.795h-1.215Zm-.03-9.915v3.135H98.55v.99h2.265v1.62h-2.28V-5.58h2.28v1.185h1.245V-12.33ZM111.585-6a30.39,30.39,0,0,1-5.34.315v-2.04h4.56v-3.81H105v1h4.605v1.86h-4.56v3.99H106a31.06,31.06,0,0,0,5.7-.33Zm-5.04,3.66h7.77V1.125h1.23v-4.47h-9Zm7.77-9.99v1.98H111.69v1.005h2.625v1.8H111.69v.99h2.625v2.49h1.23V-12.33Zm8.175,1.155h-1.215V-8.76a7.129,7.129,0,0,1-3.465,6.015l.735.99A7.452,7.452,0,0,0,121.89-6.21a7.421,7.421,0,0,0,3.255,4.185L125.91-3a6.794,6.794,0,0,1-3.42-5.76Zm8.055,4.29h-2.22V-12.33H127.1V1.11h1.23V-5.865h2.22ZM136.23-9.7h3.795V-10.71h-5.01V-2.2h.885a22.092,22.092,0,0,0,4.98-.4l-.1-1.02a21.163,21.163,0,0,1-4.545.4Zm8.55-2.64v5.4h-1.9v-5.1H141.72V.435h1.155V-5.94h1.9V1.11h1.185V-12.345Zm11.025,6.33a4.568,4.568,0,0,1-3.255-4.155v-1.485h-1.23v1.38a4.923,4.923,0,0,1-3.345,4.62l.645.975a5.623,5.623,0,0,0,3.33-3.4,5.647,5.647,0,0,0,3.21,3.03ZM154.2.135c-2,0-3.21-.555-3.21-1.485,0-.945,1.215-1.5,3.21-1.5,1.98,0,3.195.555,3.195,1.5C157.4-.42,156.18.135,154.2.135Zm0-3.945c-2.745,0-4.44.885-4.44,2.46S151.455,1.1,154.2,1.1c2.73,0,4.425-.885,4.425-2.445S156.93-3.81,154.2-3.81Zm4.275-5.055V-12.33h-1.23v8.145h1.23v-3.66h1.995v-1.02Z" transform="translate(547.371 -78.744)"/>
    <text id="_11" data-name=" " class="cls-9" transform="translate(711.771 -78.744)"><tspan x="0" y="0"> </tspan></text>
    <text id="_12" data-name=" " class="cls-10" transform="translate(715.371 -78.744)"><tspan x="0" y="0"> </tspan></text>
    <path id="패스_1363" data-name="패스 1363" class="cls-8" d="M10.3-9.51A27.994,27.994,0,0,1,9.84-3.675l1.215.15a28.8,28.8,0,0,0,.48-5.985v-1.485H2.055V-9.99H10.3ZM8.325-1.785V-6.24H7.11v4.455H4.995V-6.24H3.78v4.455H.8V-.78H12.96V-1.785Zm12.045-9.27c2.13,0,3.465.6,3.465,1.605s-1.335,1.6-3.465,1.6-3.465-.6-3.465-1.6S18.24-11.055,20.37-11.055Zm0,4.17c2.91,0,4.725-.945,4.725-2.565s-1.815-2.58-4.725-2.58c-2.895,0-4.725.96-4.725,2.58S17.475-6.885,20.37-6.885Zm1.65,3.72H18.735v-1.71H22.02Zm4.44-1.71v-.99H14.3v.99H17.5v1.71h-1.86v.99H23.73v3.3h1.23v-4.29H23.25v-1.71ZM41.88-12.33H40.65v6.96h1.23ZM39-6.72a4.652,4.652,0,0,1-3.4-4.2v-1.02h-1.23v1.02a4.886,4.886,0,0,1-3.42,4.455l.63.96a5.712,5.712,0,0,0,3.42-3.345,5.716,5.716,0,0,0,3.39,3.09ZM34.425-.015v-1.44H41.9v-3.24H33.18v.975h7.5v1.335H33.21V.96h9.135V-.015Zm14.7-11.16H47.91V-8.76A7.069,7.069,0,0,1,44.3-2.685l.75,1.005a7.477,7.477,0,0,0,3.48-4.515,7.307,7.307,0,0,0,3.465,4.26l.735-.99a6.692,6.692,0,0,1-3.6-5.835Zm5.01-1.17V1.14h1.23V-12.345Z" transform="translate(600.471 -56.739)"/>
  </g>
  <g id="그룹_519" data-name="그룹 519" transform="translate(22 260.162)">
    <path id="패스_805" data-name="패스 805" class="cls-6" d="M0-.5H756v-136H0Z"/>
    <g id="그룹_455" data-name="그룹 455" class="cls-11">
      <g id="그룹_450" data-name="그룹 450" transform="translate(0 -137)">
        <path id="패스_806" data-name="패스 806" class="cls-3" d="M0,0H756"/>
      </g>
      <g id="그룹_451" data-name="그룹 451" transform="translate(0 -0.5)">
        <path id="패스_807" data-name="패스 807" class="cls-3" d="M0,0H756"/>
      </g>
      <g id="그룹_452" data-name="그룹 452" transform="translate(188.565 -68.75)">
        <path id="패스_808" data-name="패스 808" class="cls-12" d="M0,0A40.635,40.635,0,0,1-40.635,40.635,40.635,40.635,0,0,1-81.27,0,40.635,40.635,0,0,1-40.635-40.635,40.635,40.635,0,0,1,0,0"/>
      </g>
      <g id="그룹_453" data-name="그룹 453" transform="translate(418.635 -68.75)">
        <path id="패스_809" data-name="패스 809" class="cls-12" d="M0,0A40.635,40.635,0,0,1-40.635,40.635,40.635,40.635,0,0,1-81.27,0,40.635,40.635,0,0,1-40.635-40.635,40.635,40.635,0,0,1,0,0"/>
      </g>
      <g id="그룹_454" data-name="그룹 454" transform="translate(648.706 -68.75)">
        <path id="패스_810" data-name="패스 810" class="cls-12" d="M0,0A40.635,40.635,0,0,1-40.635,40.635,40.635,40.635,0,0,1-81.27,0,40.635,40.635,0,0,1-40.635-40.635,40.635,40.635,0,0,1,0,0"/>
      </g>
    </g>
    <path id="패스_812" data-name="패스 812" class="cls-13" d="M397-52.076H371.483V-82.8H397Z"/>
    <g id="그룹_456" data-name="그룹 456" transform="translate(368.8 -71.505)">
      <path id="패스_813" data-name="패스 813" class="cls-14" d="M0,0V-13.367H25.517V17.357H2.083"/>
    </g>
    <g id="그룹_457" data-name="그룹 457" transform="translate(384.409 -79.518)">
      <path id="패스_814" data-name="패스 814" class="cls-15" d="M0,0H-12.005"/>
    </g>
    <g id="그룹_458" data-name="그룹 458" transform="translate(384.409 -71.622)">
      <path id="패스_815" data-name="패스 815" class="cls-15" d="M0,0H-12.005"/>
    </g>
    <g id="그룹_459" data-name="그룹 459" transform="translate(384.409 -75.57)">
      <path id="패스_816" data-name="패스 816" class="cls-15" d="M0,0H-12.005"/>
    </g>
    <g id="그룹_460" data-name="그룹 460" transform="translate(386.177 -78.395)">
      <path id="패스_817" data-name="패스 817" class="cls-14" d="M0,0,1.818,1.832,4.241-2.441"/>
    </g>
    <g id="그룹_461" data-name="그룹 461" transform="translate(386.177 -72.266)">
      <path id="패스_818" data-name="패스 818" class="cls-14" d="M0,0,1.818,1.832,4.241-2.441"/>
    </g>
    <path id="패스_819" data-name="패스 819" class="cls-14" d="M363.513-55.143H373.9v-2.874H363.513Z"/>
    <g id="그룹_464" data-name="그룹 464" class="cls-11">
      <g id="그룹_462" data-name="그룹 462" transform="translate(361.774 -52.076)">
        <path id="패스_820" data-name="패스 820" class="cls-6" d="M0,0H13.862V-1.668a1.411,1.411,0,0,0-1.3-1.5H1.3A1.411,1.411,0,0,0,0-1.668Z"/>
      </g>
      <g id="그룹_463" data-name="그룹 463" transform="translate(361.774 -52.076)">
        <path id="패스_821" data-name="패스 821" class="cls-15" d="M0,0H13.862V-1.668a1.411,1.411,0,0,0-1.3-1.5H1.3A1.411,1.411,0,0,0,0-1.668Z"/>
      </g>
    </g>
    <g id="그룹_465" data-name="그룹 465" transform="translate(371.007 -66.108)">
      <path id="패스_823" data-name="패스 823" class="cls-15" d="M0,0-6.156-6.156"/>
    </g>
    <g id="그룹_466" data-name="그룹 466" transform="translate(360.688 -68.102)">
      <path id="패스_824" data-name="패스 824" class="cls-15" d="M0,0,6.156,6.156"/>
    </g>
    <g id="그룹_467" data-name="그룹 467" transform="translate(362.839 -65.647)">
      <path id="패스_825" data-name="패스 825" class="cls-15" d="M0,0-5.625,5.508"/>
    </g>
    <g id="그룹_468" data-name="그룹 468" transform="translate(358.839 -58.546)">
      <path id="패스_826" data-name="패스 826" class="cls-15" d="M0,0,5.625-5.508"/>
    </g>
    <g id="그룹_469" data-name="그룹 469" transform="translate(360.68 -68.124)">
      <path id="패스_827" data-name="패스 827" class="cls-6" d="M0,0,6.114,6.114l4.2-4.2L4.2-4.2Z"/>
    </g>
    <g id="그룹_470" data-name="그룹 470" transform="translate(360.68 -68.124)">
      <path id="패스_828" data-name="패스 828" class="cls-15" d="M0,0,6.114,6.114l4.2-4.2L4.2-4.2Z"/>
    </g>
    <g id="그룹_475" data-name="그룹 475" class="cls-11">
      <g id="그룹_471" data-name="그룹 471" transform="translate(360.477 -67.719)">
        <path id="패스_829" data-name="패스 829" class="cls-6" d="M0,0,4.788-4.788A.817.817,0,0,0,4.73-5.941l-.266-.267a.819.819,0,0,0-1.153-.058L-1.478-1.478A.818.818,0,0,0-1.419-.325l.266.267A.819.819,0,0,0,0,0"/>
      </g>
      <g id="그룹_472" data-name="그룹 472" transform="translate(360.477 -67.719)">
        <path id="패스_830" data-name="패스 830" class="cls-15" d="M0,0,4.788-4.788A.817.817,0,0,0,4.73-5.941l-.266-.267a.819.819,0,0,0-1.153-.058L-1.478-1.478A.818.818,0,0,0-1.419-.325l.266.267A.819.819,0,0,0,0,0Z"/>
      </g>
      <g id="그룹_473" data-name="그룹 473" transform="translate(367.939 -60.257)">
        <path id="패스_831" data-name="패스 831" class="cls-6" d="M0,0,4.788-4.788A.817.817,0,0,0,4.73-5.941l-.266-.267a.819.819,0,0,0-1.153-.058L-1.478-1.478A.82.82,0,0,0-1.419-.324l.266.266A.819.819,0,0,0,0,0"/>
      </g>
      <g id="그룹_474" data-name="그룹 474" transform="translate(367.939 -60.257)">
        <path id="패스_832" data-name="패스 832" class="cls-15" d="M0,0,4.788-4.788A.817.817,0,0,0,4.73-5.941l-.266-.267a.819.819,0,0,0-1.153-.058L-1.478-1.478A.82.82,0,0,0-1.419-.324l.266.266A.819.819,0,0,0,0,0Z"/>
      </g>
    </g>
    <g id="그룹_476" data-name="그룹 476" transform="translate(358.97 -58.654)">
      <path id="패스_834" data-name="패스 834" class="cls-6" d="M0,0,5.6-5.483,3.954-7.1l-5.6,5.483Z"/>
    </g>
    <g id="그룹_477" data-name="그룹 477" transform="translate(358.97 -58.654)">
      <path id="패스_835" data-name="패스 835" class="cls-15" d="M0,0,5.6-5.483,3.954-7.1l-5.6,5.483Z"/>
    </g>
    <g id="그룹_482" data-name="그룹 482" class="cls-11">
      <g id="그룹_478" data-name="그룹 478" transform="translate(355.173 -53.477)">
        <path id="패스_836" data-name="패스 836" class="cls-6" d="M0,0,4.6-4.6a.753.753,0,0,0,0-1.063L2.709-7.55a.752.752,0,0,0-1.064,0l-4.6,4.6a.754.754,0,0,0,0,1.064L-1.064,0A.752.752,0,0,0,0,0"/>
      </g>
      <g id="그룹_479" data-name="그룹 479" transform="translate(355.173 -53.477)">
        <path id="패스_837" data-name="패스 837" class="cls-15" d="M0,0,4.6-4.6a.753.753,0,0,0,0-1.063L2.709-7.55a.752.752,0,0,0-1.064,0l-4.6,4.6a.754.754,0,0,0,0,1.064L-1.064,0A.752.752,0,0,0,0,0Z"/>
      </g>
      <g id="그룹_480" data-name="그룹 480" transform="translate(630.006 -57.749)">
        <path id="패스_838" data-name="패스 838" class="cls-16" d="M0,0V-24.854H-37.406V0h3.486a1.261,1.261,0,0,0,1.043.434c.883,0,1.176-.122,1.258-.434h.037V2.11h6.938V0Z"/>
      </g>
      <g id="그룹_481" data-name="그룹 481" transform="translate(630.006 -57.749)">
        <path id="패스_839" data-name="패스 839" class="cls-17" d="M0,0V-24.854H-37.406V0h3.486a1.261,1.261,0,0,0,1.043.434c.883,0,1.176-.122,1.258-.434h.037V2.11h6.938V0Z"/>
      </g>
    </g>
    <g id="그룹_483" data-name="그룹 483" transform="translate(603.23 -59.705)">
      <path id="패스_841" data-name="패스 841" class="cls-18" d="M0,0H24.676V-24.854H-12.73V0h3.6"/>
    </g>
    <g id="그룹_488" data-name="그룹 488" class="cls-11">
      <g id="그룹_484" data-name="그룹 484" transform="translate(598.903 -72.074)">
        <path id="패스_842" data-name="패스 842" class="cls-6" d="M0,0A3.15,3.15,0,0,0,3.15-3.15,3.15,3.15,0,0,0,0-6.3,3.15,3.15,0,0,0-3.15-3.15,3.15,3.15,0,0,0,0,0"/>
      </g>
      <g id="그룹_485" data-name="그룹 485" transform="translate(598.903 -72.074)">
        <path id="패스_843" data-name="패스 843" class="cls-17" d="M0,0A3.15,3.15,0,0,0,3.15-3.15,3.15,3.15,0,0,0,0-6.3,3.15,3.15,0,0,0-3.15-3.15,3.15,3.15,0,0,0,0,0Z"/>
      </g>
      <g id="그룹_486" data-name="그룹 486" transform="translate(603.262 -57.595)">
        <path id="패스_844" data-name="패스 844" class="cls-6" d="M0,0V-10.6H2.967s3.093-3.017,3.559-3.52a1.384,1.384,0,0,0,0-2.095c-.787-.922-1.845-.042-1.845-.042L1.463-13.283H-4.388s-5.1-.419-5.1,4.693v6.076a1.166,1.166,0,0,0,1.254.838c1.087,0,1.3-.168,1.3-.67V0Z"/>
      </g>
      <g id="그룹_487" data-name="그룹 487" transform="translate(603.262 -57.595)">
        <path id="패스_845" data-name="패스 845" class="cls-17" d="M0,0V-10.6H2.967s3.093-3.017,3.559-3.52a1.384,1.384,0,0,0,0-2.095c-.787-.922-1.845-.042-1.845-.042L1.463-13.283H-4.388s-5.1-.419-5.1,4.693v6.076a1.166,1.166,0,0,0,1.254.838c1.087,0,1.3-.168,1.3-.67V0Z"/>
      </g>
    </g>
    <g id="그룹_489" data-name="그룹 489" transform="translate(596.307 -66.451)">
      <path id="패스_847" data-name="패스 847" class="cls-17" d="M0,0V7.67"/>
    </g>
    <g id="그룹_504" data-name="그룹 504" class="cls-11">
      <g id="그룹_490" data-name="그룹 490" transform="translate(597.725 -55.219)">
        <path id="패스_848" data-name="패스 848" class="cls-6" d="M0,0A3.15,3.15,0,0,0,3.15-3.15,3.15,3.15,0,0,0,0-6.3,3.15,3.15,0,0,0-3.15-3.15,3.15,3.15,0,0,0,0,0"/>
      </g>
      <g id="그룹_491" data-name="그룹 491" transform="translate(597.725 -55.219)">
        <path id="패스_849" data-name="패스 849" class="cls-17" d="M0,0A3.15,3.15,0,0,0,3.15-3.15,3.15,3.15,0,0,0,0-6.3,3.15,3.15,0,0,0-3.15-3.15,3.15,3.15,0,0,0,0,0Z"/>
      </g>
      <g id="그룹_492" data-name="그룹 492" transform="translate(602.705 -49.614)">
        <path id="패스_850" data-name="패스 850" class="cls-6" d="M0,0V-2.356A1.681,1.681,0,0,0-1.782-4.04h-6.4s-1.783,0-1.783,1.684V0Z"/>
      </g>
      <g id="그룹_493" data-name="그룹 493" transform="translate(602.705 -49.614)">
        <path id="패스_851" data-name="패스 851" class="cls-17" d="M0,0V-2.356A1.681,1.681,0,0,0-1.782-4.04h-6.4s-1.783,0-1.783,1.684V0Z"/>
      </g>
      <g id="그룹_494" data-name="그룹 494" transform="translate(609.203 -55.219)">
        <path id="패스_852" data-name="패스 852" class="cls-6" d="M0,0A3.15,3.15,0,0,0,3.15-3.15,3.15,3.15,0,0,0,0-6.3,3.15,3.15,0,0,0-3.15-3.15,3.15,3.15,0,0,0,0,0"/>
      </g>
      <g id="그룹_495" data-name="그룹 495" transform="translate(609.203 -55.219)">
        <path id="패스_853" data-name="패스 853" class="cls-17" d="M0,0A3.15,3.15,0,0,0,3.15-3.15,3.15,3.15,0,0,0,0-6.3,3.15,3.15,0,0,0-3.15-3.15,3.15,3.15,0,0,0,0,0Z"/>
      </g>
      <g id="그룹_496" data-name="그룹 496" transform="translate(614.183 -49.614)">
        <path id="패스_854" data-name="패스 854" class="cls-6" d="M0,0V-2.356A1.681,1.681,0,0,0-1.782-4.04h-6.4s-1.783,0-1.783,1.684V0Z"/>
      </g>
      <g id="그룹_497" data-name="그룹 497" transform="translate(614.183 -49.614)">
        <path id="패스_855" data-name="패스 855" class="cls-17" d="M0,0V-2.356A1.681,1.681,0,0,0-1.782-4.04h-6.4s-1.783,0-1.783,1.684V0Z"/>
      </g>
      <g id="그룹_498" data-name="그룹 498" transform="translate(620.681 -55.219)">
        <path id="패스_856" data-name="패스 856" class="cls-6" d="M0,0A3.15,3.15,0,0,0,3.15-3.15,3.15,3.15,0,0,0,0-6.3,3.15,3.15,0,0,0-3.15-3.15,3.15,3.15,0,0,0,0,0"/>
      </g>
      <g id="그룹_499" data-name="그룹 499" transform="translate(620.681 -55.219)">
        <path id="패스_857" data-name="패스 857" class="cls-17" d="M0,0A3.15,3.15,0,0,0,3.15-3.15,3.15,3.15,0,0,0,0-6.3,3.15,3.15,0,0,0-3.15-3.15,3.15,3.15,0,0,0,0,0Z"/>
      </g>
      <g id="그룹_500" data-name="그룹 500" transform="translate(625.661 -49.614)">
        <path id="패스_858" data-name="패스 858" class="cls-6" d="M0,0V-2.356A1.681,1.681,0,0,0-1.782-4.04h-6.4s-1.783,0-1.783,1.684V0Z"/>
      </g>
      <g id="그룹_501" data-name="그룹 501" transform="translate(625.661 -49.614)">
        <path id="패스_859" data-name="패스 859" class="cls-17" d="M0,0V-2.356A1.681,1.681,0,0,0-1.782-4.04h-6.4s-1.783,0-1.783,1.684V0Z"/>
      </g>
      <g id="그룹_502" data-name="그룹 502" transform="translate(160.5 -50.348)">
        <path id="패스_860" data-name="패스 860" class="cls-16" d="M0,0V-2.133A2,2,0,0,0-2.062-4.051h-.652V-7.4H-19.286v3.353h-.652A2,2,0,0,0-22-2.133V0ZM-7.715-32.252A3.033,3.033,0,0,0-11-34.945a3.033,3.033,0,0,0-3.285,2.693,2.653,2.653,0,0,0,1.664,2.328v22.5h3.242v-22.5a2.653,2.653,0,0,0,1.664-2.328"/>
      </g>
      <g id="그룹_503" data-name="그룹 503" transform="translate(160.5 -50.348)">
        <path id="패스_861" data-name="패스 861" class="cls-19" d="M0,0V-2.133A2,2,0,0,0-2.062-4.051h-.652V-7.4H-19.286v3.353h-.652A2,2,0,0,0-22-2.133V0ZM-7.715-32.252A3.033,3.033,0,0,0-11-34.945a3.033,3.033,0,0,0-3.285,2.693,2.653,2.653,0,0,0,1.664,2.328v22.5h3.242v-22.5A2.653,2.653,0,0,0-7.715-32.252Z"/>
      </g>
    </g>
    <path id="패스_863" data-name="패스 863" class="cls-14" d="M141.257-54.765h13.884v-3.729H141.257Z"/>
    <g id="그룹_511" data-name="그룹 511" class="cls-11">
      <g id="그룹_505" data-name="그룹 505" transform="translate(136.699 -51.206)">
        <path id="패스_864" data-name="패스 864" class="cls-6" d="M0,0H23V-2.055A2.019,2.019,0,0,0,20.845-3.9H2.155A2.019,2.019,0,0,0,0-2.055Z"/>
      </g>
      <g id="그룹_506" data-name="그룹 506" transform="translate(136.699 -51.206)">
        <path id="패스_865" data-name="패스 865" class="cls-15" d="M0,0H23V-2.055A2.019,2.019,0,0,0,20.845-3.9H2.155A2.019,2.019,0,0,0,0-2.055Z"/>
      </g>
      <g id="그룹_507" data-name="그룹 507" transform="translate(128.5 -71.814)">
        <path id="패스_866" data-name="패스 866" class="cls-6" d="M0,0A6.944,6.944,0,0,0,7.065,6.818,6.944,6.944,0,0,0,14.129,0Z"/>
      </g>
      <g id="그룹_508" data-name="그룹 508" transform="translate(128.5 -71.814)">
        <path id="패스_867" data-name="패스 867" class="cls-19" d="M0,0A6.944,6.944,0,0,0,7.065,6.818,6.944,6.944,0,0,0,14.129,0Z"/>
      </g>
      <g id="그룹_509" data-name="그룹 509" transform="translate(153.768 -71.814)">
        <path id="패스_868" data-name="패스 868" class="cls-6" d="M0,0A6.944,6.944,0,0,0,7.065,6.818,6.944,6.944,0,0,0,14.129,0Z"/>
      </g>
      <g id="그룹_510" data-name="그룹 510" transform="translate(153.768 -71.814)">
        <path id="패스_869" data-name="패스 869" class="cls-19" d="M0,0A6.944,6.944,0,0,0,7.065,6.818,6.944,6.944,0,0,0,14.129,0Z"/>
      </g>
    </g>
    <g id="그룹_512" data-name="그룹 512" transform="translate(130.307 -71.836)">
      <path id="패스_871" data-name="패스 871" class="cls-20" d="M0,0,5.269-12.008H17.915"/>
    </g>
    <g id="그룹_513" data-name="그룹 513" transform="translate(135.588 -83.852)">
      <path id="패스_872" data-name="패스 872" class="cls-20" d="M0,0,5.3,12.014"/>
    </g>
    <g id="그룹_514" data-name="그룹 514" transform="translate(166.09 -71.836)">
      <path id="패스_873" data-name="패스 873" class="cls-20" d="M0,0-5.269-12.008H-17.915"/>
    </g>
    <g id="그룹_515" data-name="그룹 515" transform="translate(160.809 -83.852)">
      <path id="패스_874" data-name="패스 874" class="cls-20" d="M0,0-5.3,12.014"/>
    </g>
    <path id="패스_875" data-name="패스 875" class="cls-21" d="M146.84-58.512h2.717V-81.8H146.84Z"/>
    <g id="그룹_518" data-name="그룹 518" class="cls-11">
      <g id="그룹_516" data-name="그룹 516" transform="translate(148.199 -80.857)">
        <path id="패스_876" data-name="패스 876" class="cls-6" d="M0,0A2.735,2.735,0,0,0,2.752-2.717,2.735,2.735,0,0,0,0-5.436,2.735,2.735,0,0,0-2.752-2.717,2.735,2.735,0,0,0,0,0"/>
      </g>
      <g id="그룹_517" data-name="그룹 517" transform="translate(148.199 -80.857)">
        <path id="패스_877" data-name="패스 877" class="cls-19" d="M0,0A2.735,2.735,0,0,0,2.752-2.717,2.735,2.735,0,0,0,0-5.436,2.735,2.735,0,0,0-2.752-2.717,2.735,2.735,0,0,0,0,0Z"/>
      </g>
    </g>
  </g>
</svg>
