<svg id="구성_요소_61_1" data-name="구성 요소 61 – 1" xmlns="http://www.w3.org/2000/svg" xmlns:xlink="http://www.w3.org/1999/xlink" width="796" height="441.838" viewBox="0 0 796 441.838">
  <defs>
    <style>
      .cls-1, .cls-17, .cls-19, .cls-21, .cls-22, .cls-3, .cls-4 {
        fill: none;
      }

      .cls-2 {
        fill: #f4f7f7;
      }

      .cls-3, .cls-4 {
        stroke: #2b2e34;
      }

      .cls-4 {
        stroke-width: 3px;
      }

      .cls-5, .cls-7, .cls-8, .cls-9 {
        fill: #5a78b5;
      }

      .cls-12, .cls-16, .cls-20, .cls-23, .cls-6 {
        fill: #fff;
      }

      .cls-10, .cls-11, .cls-6, .cls-7, .cls-8 {
        font-size: 15px;
      }

      .cls-10, .cls-11, .cls-6 {
        font-family: NotoSansKR-Regular, Noto Sans KR;
      }

      .cls-10, .cls-6, .cls-7, .cls-9 {
        letter-spacing: -0.02em;
      }

      .cls-7, .cls-8, .cls-9 {
        font-family: NotoSansKR-Medium, Noto Sans KR;
        font-weight: 500;
      }

      .cls-9 {
        font-size: 13px;
      }

      .cls-10, .cls-11 {
        fill: #595b60;
      }

      .cls-13 {
        clip-path: url(#clip-path);
      }

      .cls-14 {
        fill: #78a4e1;
      }

      .cls-15, .cls-18 {
        fill: #393c41;
      }

      .cls-15, .cls-16, .cls-17, .cls-19, .cls-20, .cls-21, .cls-22, .cls-23 {
        stroke: #393c41;
      }

      .cls-15, .cls-16, .cls-17, .cls-21, .cls-23 {
        stroke-linecap: square;
      }

      .cls-21, .cls-22, .cls-23 {
        stroke-miterlimit: 10;
      }
    </style>
    <clipPath id="clip-path">
      <path id="패스_811" data-name="패스 811" class="cls-1" d="M0,0H756V-137.5H0Z"/>
    </clipPath>
  </defs>
  <path id="패스_578" data-name="패스 578" class="cls-2" d="M0,0H796V-441.838H0Z" transform="translate(0 441.838)"/>
  <g id="그룹_233" data-name="그룹 233" transform="translate(399.5 81.304)">
    <path id="패스_579" data-name="패스 579" class="cls-3" d="M0,0V42"/>
  </g>
  <g id="그룹_234" data-name="그룹 234" transform="translate(399.5 103.304)">
    <path id="패스_580" data-name="패스 580" class="cls-4" d="M0,0V20"/>
  </g>
  <path id="패스_584" data-name="패스 584" class="cls-5" d="M251-376.783H548v-29H251Z" transform="translate(0 441.838)"/>
  <g id="그룹" transform="translate(0 441.838)">
    <text id="전략" class="cls-6" transform="translate(385.85 -384.684)"><tspan x="0" y="0">전략</tspan></text>
    <text id="기업윤리강령" class="cls-7" transform="translate(128.78 -149.754)"><tspan x="0" y="0">기업윤리강령</tspan></text>
    <text id="_" data-name=" " class="cls-8" transform="translate(210.08 -149.754)"><tspan x="0" y="0"> </tspan></text>
  </g>
  <text id="Code_of_Conduct" data-name="Code of Conduct" class="cls-9" transform="translate(119.205 315.089)"><tspan x="0" y="0">Code of Conduct</tspan></text>
  <g id="그룹-2" data-name="그룹" transform="translate(0 441.838)">
    <text id="윤리경영_내재화를_위한" data-name="윤리경영 내재화를 위한" class="cls-10" transform="translate(97.88 -99.749)"><tspan x="0" y="0">윤리경영 내재화를 위한</tspan></text>
    <text id="_2" data-name=" " class="cls-10" transform="translate(240.98 -99.749)"><tspan x="0" y="0"> </tspan></text>
    <text id="고유강령_제정" data-name="고유강령 제정" class="cls-10" transform="translate(126.83 -77.744)"><tspan x="0" y="0">고유강령 제정</tspan></text>
  </g>
  <g id="그룹-3" data-name="그룹" transform="translate(0 441.838)">
    <text id="윤리준수_감독_조직" data-name="윤리준수 감독 조직" class="cls-7" transform="translate(342.95 -149.749)"><tspan x="0" y="0">윤리준수 감독 조직</tspan></text>
    <text id="_3" data-name=" " class="cls-8" transform="translate(459.05 -149.749)"><tspan x="0" y="0"> </tspan></text>
  </g>
  <g id="그룹-4" data-name="그룹" transform="translate(0 441.838)">
    <text id="Complianc" class="cls-9" transform="translate(305.198 -127.749)"><tspan x="0" y="0">Complianc</tspan></text>
    <text id="e_Check_Org" data-name="e Check Org" class="cls-9" transform="translate(369.249 -127.749)"><tspan x="0" y="0">e Check Org</tspan></text>
    <text id="aniz" class="cls-9" transform="translate(441.268 -127.749)"><tspan x="0" y="0">aniz</tspan></text>
    <text id="a" class="cls-9" transform="translate(465.617 -127.749)"><tspan x="0" y="0">a</tspan></text>
    <text id="tion" class="cls-9" transform="translate(472.612 -127.749)"><tspan x="0" y="0">tion</tspan></text>
  </g>
  <g id="그룹-5" data-name="그룹" transform="translate(0 441.838)">
    <text id="조직운영상_발생_가능한" data-name="조직운영상 발생 가능한" class="cls-10" transform="translate(329.45 -100.749)"><tspan x="0" y="0">조직운영상 발생 가능한</tspan></text>
    <text id="_4" data-name=" " class="cls-10" transform="translate(472.55 -100.749)"><tspan x="0" y="0"> </tspan></text>
    <text id="_5" data-name=" " class="cls-11" transform="translate(476.15 -100.749)"><tspan x="0" y="0"> </tspan></text>
    <text id="윤리적_리스크의_사전예방_및" data-name="윤리적 리스크의 사전예방 및" class="cls-10" transform="translate(314 -78.744)"><tspan x="0" y="0">윤리적 리스크의 사전예방 및</tspan></text>
    <text id="_6" data-name=" " class="cls-10" transform="translate(488 -78.744)"><tspan x="0" y="0"> </tspan></text>
    <text id="_7" data-name=" " class="cls-11" transform="translate(491.6 -78.744)"><tspan x="0" y="0"> </tspan></text>
    <text id="관리_수행" data-name="관리 수행" class="cls-10" transform="translate(371.9 -56.739)"><tspan x="0" y="0">관리 수행</tspan></text>
  </g>
  <g id="그룹-6" data-name="그룹" transform="translate(0 441.838)">
    <text id="교육에_의한_공감대_형성" data-name="교육에 의한 공감대 형성" class="cls-7" transform="translate(556.071 -149.749)"><tspan x="0" y="0">교육에 의한 공감대 형성</tspan></text>
    <text id="_8" data-name=" " class="cls-8" transform="translate(703.071 -149.749)"><tspan x="0" y="0"> </tspan></text>
  </g>
  <g id="그룹-7" data-name="그룹" transform="translate(0 441.838)">
    <text id="Consensus_by_E" data-name="Consensus by E" class="cls-9" transform="translate(539.761 -127.749)"><tspan x="0" y="0">Consensus by E</tspan></text>
    <text id="thic_Educa" data-name="thic Educa" class="cls-9" transform="translate(632.737 -127.749)"><tspan x="0" y="0">thic Educa</tspan></text>
    <text id="tion-2" data-name="tion" class="cls-9" transform="translate(695.189 -127.749)"><tspan x="0" y="0">tion</tspan></text>
  </g>
  <g id="그룹-8" data-name="그룹" transform="translate(0 441.838)">
    <text id="클린_코웨이_문화_확산을" data-name="클린 코웨이 문화 확산을" class="cls-10" transform="translate(556.071 -100.749)"><tspan x="0" y="0">클린 코웨이 문화 확산을</tspan></text>
    <text id="_9" data-name=" " class="cls-10" transform="translate(703.071 -100.749)"><tspan x="0" y="0"> </tspan></text>
    <text id="_10" data-name=" " class="cls-11" transform="translate(706.671 -100.749)"><tspan x="0" y="0"> </tspan></text>
    <text id="위한_임직원_및_협력사_대상" data-name="위한 임직원 및 협력사 대상" class="cls-10" transform="translate(547.371 -78.744)"><tspan x="0" y="0">위한 임직원 및 협력사 대상</tspan></text>
    <text id="_11" data-name=" " class="cls-10" transform="translate(711.771 -78.744)"><tspan x="0" y="0"> </tspan></text>
    <text id="_12" data-name=" " class="cls-11" transform="translate(715.371 -78.744)"><tspan x="0" y="0"> </tspan></text>
    <text id="교육_실시" data-name="교육 실시" class="cls-10" transform="translate(600.471 -56.739)"><tspan x="0" y="0">교육 실시</tspan></text>
  </g>
  <g id="그룹_519" data-name="그룹 519" transform="translate(22 260.162)">
    <path id="패스_805" data-name="패스 805" class="cls-12" d="M0-.5H756v-136H0Z"/>
    <g id="그룹_455" data-name="그룹 455" class="cls-13">
      <g id="그룹_450" data-name="그룹 450" transform="translate(0 -137)">
        <path id="패스_806" data-name="패스 806" class="cls-3" d="M0,0H756"/>
      </g>
      <g id="그룹_451" data-name="그룹 451" transform="translate(0 -0.5)">
        <path id="패스_807" data-name="패스 807" class="cls-3" d="M0,0H756"/>
      </g>
      <g id="그룹_452" data-name="그룹 452" transform="translate(188.565 -68.75)">
        <path id="패스_808" data-name="패스 808" class="cls-14" d="M0,0A40.635,40.635,0,0,1-40.635,40.635,40.635,40.635,0,0,1-81.27,0,40.635,40.635,0,0,1-40.635-40.635,40.635,40.635,0,0,1,0,0"/>
      </g>
      <g id="그룹_453" data-name="그룹 453" transform="translate(418.635 -68.75)">
        <path id="패스_809" data-name="패스 809" class="cls-14" d="M0,0A40.635,40.635,0,0,1-40.635,40.635,40.635,40.635,0,0,1-81.27,0,40.635,40.635,0,0,1-40.635-40.635,40.635,40.635,0,0,1,0,0"/>
      </g>
      <g id="그룹_454" data-name="그룹 454" transform="translate(648.706 -68.75)">
        <path id="패스_810" data-name="패스 810" class="cls-14" d="M0,0A40.635,40.635,0,0,1-40.635,40.635,40.635,40.635,0,0,1-81.27,0,40.635,40.635,0,0,1-40.635-40.635,40.635,40.635,0,0,1,0,0"/>
      </g>
    </g>
    <path id="패스_812" data-name="패스 812" class="cls-15" d="M397-52.076H371.483V-82.8H397Z"/>
    <g id="그룹_456" data-name="그룹 456" transform="translate(368.8 -71.505)">
      <path id="패스_813" data-name="패스 813" class="cls-16" d="M0,0V-13.367H25.517V17.357H2.083"/>
    </g>
    <g id="그룹_457" data-name="그룹 457" transform="translate(384.409 -79.518)">
      <path id="패스_814" data-name="패스 814" class="cls-17" d="M0,0H-12.005"/>
    </g>
    <g id="그룹_458" data-name="그룹 458" transform="translate(384.409 -71.622)">
      <path id="패스_815" data-name="패스 815" class="cls-17" d="M0,0H-12.005"/>
    </g>
    <g id="그룹_459" data-name="그룹 459" transform="translate(384.409 -75.57)">
      <path id="패스_816" data-name="패스 816" class="cls-17" d="M0,0H-12.005"/>
    </g>
    <g id="그룹_460" data-name="그룹 460" transform="translate(386.177 -78.395)">
      <path id="패스_817" data-name="패스 817" class="cls-16" d="M0,0,1.818,1.832,4.241-2.441"/>
    </g>
    <g id="그룹_461" data-name="그룹 461" transform="translate(386.177 -72.266)">
      <path id="패스_818" data-name="패스 818" class="cls-16" d="M0,0,1.818,1.832,4.241-2.441"/>
    </g>
    <path id="패스_819" data-name="패스 819" class="cls-16" d="M363.513-55.143H373.9v-2.874H363.513Z"/>
    <g id="그룹_464" data-name="그룹 464" class="cls-13">
      <g id="그룹_462" data-name="그룹 462" transform="translate(361.774 -52.076)">
        <path id="패스_820" data-name="패스 820" class="cls-12" d="M0,0H13.862V-1.668a1.411,1.411,0,0,0-1.3-1.5H1.3A1.411,1.411,0,0,0,0-1.668Z"/>
      </g>
      <g id="그룹_463" data-name="그룹 463" transform="translate(361.774 -52.076)">
        <path id="패스_821" data-name="패스 821" class="cls-17" d="M0,0H13.862V-1.668a1.411,1.411,0,0,0-1.3-1.5H1.3A1.411,1.411,0,0,0,0-1.668Z"/>
      </g>
    </g>
    <g id="그룹_465" data-name="그룹 465" transform="translate(371.007 -66.108)">
      <path id="패스_823" data-name="패스 823" class="cls-17" d="M0,0-6.156-6.156"/>
    </g>
    <g id="그룹_466" data-name="그룹 466" transform="translate(360.688 -68.102)">
      <path id="패스_824" data-name="패스 824" class="cls-17" d="M0,0,6.156,6.156"/>
    </g>
    <g id="그룹_467" data-name="그룹 467" transform="translate(362.839 -65.647)">
      <path id="패스_825" data-name="패스 825" class="cls-17" d="M0,0-5.625,5.508"/>
    </g>
    <g id="그룹_468" data-name="그룹 468" transform="translate(358.839 -58.546)">
      <path id="패스_826" data-name="패스 826" class="cls-17" d="M0,0,5.625-5.508"/>
    </g>
    <g id="그룹_469" data-name="그룹 469" transform="translate(360.68 -68.124)">
      <path id="패스_827" data-name="패스 827" class="cls-12" d="M0,0,6.114,6.114l4.2-4.2L4.2-4.2Z"/>
    </g>
    <g id="그룹_470" data-name="그룹 470" transform="translate(360.68 -68.124)">
      <path id="패스_828" data-name="패스 828" class="cls-17" d="M0,0,6.114,6.114l4.2-4.2L4.2-4.2Z"/>
    </g>
    <g id="그룹_475" data-name="그룹 475" class="cls-13">
      <g id="그룹_471" data-name="그룹 471" transform="translate(360.477 -67.719)">
        <path id="패스_829" data-name="패스 829" class="cls-12" d="M0,0,4.788-4.788A.817.817,0,0,0,4.73-5.941l-.266-.267a.819.819,0,0,0-1.153-.058L-1.478-1.478A.818.818,0,0,0-1.419-.325l.266.267A.819.819,0,0,0,0,0"/>
      </g>
      <g id="그룹_472" data-name="그룹 472" transform="translate(360.477 -67.719)">
        <path id="패스_830" data-name="패스 830" class="cls-17" d="M0,0,4.788-4.788A.817.817,0,0,0,4.73-5.941l-.266-.267a.819.819,0,0,0-1.153-.058L-1.478-1.478A.818.818,0,0,0-1.419-.325l.266.267A.819.819,0,0,0,0,0Z"/>
      </g>
      <g id="그룹_473" data-name="그룹 473" transform="translate(367.939 -60.257)">
        <path id="패스_831" data-name="패스 831" class="cls-12" d="M0,0,4.788-4.788A.817.817,0,0,0,4.73-5.941l-.266-.267a.819.819,0,0,0-1.153-.058L-1.478-1.478A.82.82,0,0,0-1.419-.324l.266.266A.819.819,0,0,0,0,0"/>
      </g>
      <g id="그룹_474" data-name="그룹 474" transform="translate(367.939 -60.257)">
        <path id="패스_832" data-name="패스 832" class="cls-17" d="M0,0,4.788-4.788A.817.817,0,0,0,4.73-5.941l-.266-.267a.819.819,0,0,0-1.153-.058L-1.478-1.478A.82.82,0,0,0-1.419-.324l.266.266A.819.819,0,0,0,0,0Z"/>
      </g>
    </g>
    <g id="그룹_476" data-name="그룹 476" transform="translate(358.97 -58.654)">
      <path id="패스_834" data-name="패스 834" class="cls-12" d="M0,0,5.6-5.483,3.954-7.1l-5.6,5.483Z"/>
    </g>
    <g id="그룹_477" data-name="그룹 477" transform="translate(358.97 -58.654)">
      <path id="패스_835" data-name="패스 835" class="cls-17" d="M0,0,5.6-5.483,3.954-7.1l-5.6,5.483Z"/>
    </g>
    <g id="그룹_482" data-name="그룹 482" class="cls-13">
      <g id="그룹_478" data-name="그룹 478" transform="translate(355.173 -53.477)">
        <path id="패스_836" data-name="패스 836" class="cls-12" d="M0,0,4.6-4.6a.753.753,0,0,0,0-1.063L2.709-7.55a.752.752,0,0,0-1.064,0l-4.6,4.6a.754.754,0,0,0,0,1.064L-1.064,0A.752.752,0,0,0,0,0"/>
      </g>
      <g id="그룹_479" data-name="그룹 479" transform="translate(355.173 -53.477)">
        <path id="패스_837" data-name="패스 837" class="cls-17" d="M0,0,4.6-4.6a.753.753,0,0,0,0-1.063L2.709-7.55a.752.752,0,0,0-1.064,0l-4.6,4.6a.754.754,0,0,0,0,1.064L-1.064,0A.752.752,0,0,0,0,0Z"/>
      </g>
      <g id="그룹_480" data-name="그룹 480" transform="translate(630.006 -57.749)">
        <path id="패스_838" data-name="패스 838" class="cls-18" d="M0,0V-24.854H-37.406V0h3.486a1.261,1.261,0,0,0,1.043.434c.883,0,1.176-.122,1.258-.434h.037V2.11h6.938V0Z"/>
      </g>
      <g id="그룹_481" data-name="그룹 481" transform="translate(630.006 -57.749)">
        <path id="패스_839" data-name="패스 839" class="cls-19" d="M0,0V-24.854H-37.406V0h3.486a1.261,1.261,0,0,0,1.043.434c.883,0,1.176-.122,1.258-.434h.037V2.11h6.938V0Z"/>
      </g>
    </g>
    <g id="그룹_483" data-name="그룹 483" transform="translate(603.23 -59.705)">
      <path id="패스_841" data-name="패스 841" class="cls-20" d="M0,0H24.676V-24.854H-12.73V0h3.6"/>
    </g>
    <g id="그룹_488" data-name="그룹 488" class="cls-13">
      <g id="그룹_484" data-name="그룹 484" transform="translate(598.903 -72.074)">
        <path id="패스_842" data-name="패스 842" class="cls-12" d="M0,0A3.15,3.15,0,0,0,3.15-3.15,3.15,3.15,0,0,0,0-6.3,3.15,3.15,0,0,0-3.15-3.15,3.15,3.15,0,0,0,0,0"/>
      </g>
      <g id="그룹_485" data-name="그룹 485" transform="translate(598.903 -72.074)">
        <path id="패스_843" data-name="패스 843" class="cls-19" d="M0,0A3.15,3.15,0,0,0,3.15-3.15,3.15,3.15,0,0,0,0-6.3,3.15,3.15,0,0,0-3.15-3.15,3.15,3.15,0,0,0,0,0Z"/>
      </g>
      <g id="그룹_486" data-name="그룹 486" transform="translate(603.262 -57.595)">
        <path id="패스_844" data-name="패스 844" class="cls-12" d="M0,0V-10.6H2.967s3.093-3.017,3.559-3.52a1.384,1.384,0,0,0,0-2.095c-.787-.922-1.845-.042-1.845-.042L1.463-13.283H-4.388s-5.1-.419-5.1,4.693v6.076a1.166,1.166,0,0,0,1.254.838c1.087,0,1.3-.168,1.3-.67V0Z"/>
      </g>
      <g id="그룹_487" data-name="그룹 487" transform="translate(603.262 -57.595)">
        <path id="패스_845" data-name="패스 845" class="cls-19" d="M0,0V-10.6H2.967s3.093-3.017,3.559-3.52a1.384,1.384,0,0,0,0-2.095c-.787-.922-1.845-.042-1.845-.042L1.463-13.283H-4.388s-5.1-.419-5.1,4.693v6.076a1.166,1.166,0,0,0,1.254.838c1.087,0,1.3-.168,1.3-.67V0Z"/>
      </g>
    </g>
    <g id="그룹_489" data-name="그룹 489" transform="translate(596.307 -66.451)">
      <path id="패스_847" data-name="패스 847" class="cls-19" d="M0,0V7.67"/>
    </g>
    <g id="그룹_504" data-name="그룹 504" class="cls-13">
      <g id="그룹_490" data-name="그룹 490" transform="translate(597.725 -55.219)">
        <path id="패스_848" data-name="패스 848" class="cls-12" d="M0,0A3.15,3.15,0,0,0,3.15-3.15,3.15,3.15,0,0,0,0-6.3,3.15,3.15,0,0,0-3.15-3.15,3.15,3.15,0,0,0,0,0"/>
      </g>
      <g id="그룹_491" data-name="그룹 491" transform="translate(597.725 -55.219)">
        <path id="패스_849" data-name="패스 849" class="cls-19" d="M0,0A3.15,3.15,0,0,0,3.15-3.15,3.15,3.15,0,0,0,0-6.3,3.15,3.15,0,0,0-3.15-3.15,3.15,3.15,0,0,0,0,0Z"/>
      </g>
      <g id="그룹_492" data-name="그룹 492" transform="translate(602.705 -49.614)">
        <path id="패스_850" data-name="패스 850" class="cls-12" d="M0,0V-2.356A1.681,1.681,0,0,0-1.782-4.04h-6.4s-1.783,0-1.783,1.684V0Z"/>
      </g>
      <g id="그룹_493" data-name="그룹 493" transform="translate(602.705 -49.614)">
        <path id="패스_851" data-name="패스 851" class="cls-19" d="M0,0V-2.356A1.681,1.681,0,0,0-1.782-4.04h-6.4s-1.783,0-1.783,1.684V0Z"/>
      </g>
      <g id="그룹_494" data-name="그룹 494" transform="translate(609.203 -55.219)">
        <path id="패스_852" data-name="패스 852" class="cls-12" d="M0,0A3.15,3.15,0,0,0,3.15-3.15,3.15,3.15,0,0,0,0-6.3,3.15,3.15,0,0,0-3.15-3.15,3.15,3.15,0,0,0,0,0"/>
      </g>
      <g id="그룹_495" data-name="그룹 495" transform="translate(609.203 -55.219)">
        <path id="패스_853" data-name="패스 853" class="cls-19" d="M0,0A3.15,3.15,0,0,0,3.15-3.15,3.15,3.15,0,0,0,0-6.3,3.15,3.15,0,0,0-3.15-3.15,3.15,3.15,0,0,0,0,0Z"/>
      </g>
      <g id="그룹_496" data-name="그룹 496" transform="translate(614.183 -49.614)">
        <path id="패스_854" data-name="패스 854" class="cls-12" d="M0,0V-2.356A1.681,1.681,0,0,0-1.782-4.04h-6.4s-1.783,0-1.783,1.684V0Z"/>
      </g>
      <g id="그룹_497" data-name="그룹 497" transform="translate(614.183 -49.614)">
        <path id="패스_855" data-name="패스 855" class="cls-19" d="M0,0V-2.356A1.681,1.681,0,0,0-1.782-4.04h-6.4s-1.783,0-1.783,1.684V0Z"/>
      </g>
      <g id="그룹_498" data-name="그룹 498" transform="translate(620.681 -55.219)">
        <path id="패스_856" data-name="패스 856" class="cls-12" d="M0,0A3.15,3.15,0,0,0,3.15-3.15,3.15,3.15,0,0,0,0-6.3,3.15,3.15,0,0,0-3.15-3.15,3.15,3.15,0,0,0,0,0"/>
      </g>
      <g id="그룹_499" data-name="그룹 499" transform="translate(620.681 -55.219)">
        <path id="패스_857" data-name="패스 857" class="cls-19" d="M0,0A3.15,3.15,0,0,0,3.15-3.15,3.15,3.15,0,0,0,0-6.3,3.15,3.15,0,0,0-3.15-3.15,3.15,3.15,0,0,0,0,0Z"/>
      </g>
      <g id="그룹_500" data-name="그룹 500" transform="translate(625.661 -49.614)">
        <path id="패스_858" data-name="패스 858" class="cls-12" d="M0,0V-2.356A1.681,1.681,0,0,0-1.782-4.04h-6.4s-1.783,0-1.783,1.684V0Z"/>
      </g>
      <g id="그룹_501" data-name="그룹 501" transform="translate(625.661 -49.614)">
        <path id="패스_859" data-name="패스 859" class="cls-19" d="M0,0V-2.356A1.681,1.681,0,0,0-1.782-4.04h-6.4s-1.783,0-1.783,1.684V0Z"/>
      </g>
      <g id="그룹_502" data-name="그룹 502" transform="translate(160.5 -50.348)">
        <path id="패스_860" data-name="패스 860" class="cls-18" d="M0,0V-2.133A2,2,0,0,0-2.062-4.051h-.652V-7.4H-19.286v3.353h-.652A2,2,0,0,0-22-2.133V0ZM-7.715-32.252A3.033,3.033,0,0,0-11-34.945a3.033,3.033,0,0,0-3.285,2.693,2.653,2.653,0,0,0,1.664,2.328v22.5h3.242v-22.5a2.653,2.653,0,0,0,1.664-2.328"/>
      </g>
      <g id="그룹_503" data-name="그룹 503" transform="translate(160.5 -50.348)">
        <path id="패스_861" data-name="패스 861" class="cls-21" d="M0,0V-2.133A2,2,0,0,0-2.062-4.051h-.652V-7.4H-19.286v3.353h-.652A2,2,0,0,0-22-2.133V0ZM-7.715-32.252A3.033,3.033,0,0,0-11-34.945a3.033,3.033,0,0,0-3.285,2.693,2.653,2.653,0,0,0,1.664,2.328v22.5h3.242v-22.5A2.653,2.653,0,0,0-7.715-32.252Z"/>
      </g>
    </g>
    <path id="패스_863" data-name="패스 863" class="cls-16" d="M141.257-54.765h13.884v-3.729H141.257Z"/>
    <g id="그룹_511" data-name="그룹 511" class="cls-13">
      <g id="그룹_505" data-name="그룹 505" transform="translate(136.699 -51.206)">
        <path id="패스_864" data-name="패스 864" class="cls-12" d="M0,0H23V-2.055A2.019,2.019,0,0,0,20.845-3.9H2.155A2.019,2.019,0,0,0,0-2.055Z"/>
      </g>
      <g id="그룹_506" data-name="그룹 506" transform="translate(136.699 -51.206)">
        <path id="패스_865" data-name="패스 865" class="cls-17" d="M0,0H23V-2.055A2.019,2.019,0,0,0,20.845-3.9H2.155A2.019,2.019,0,0,0,0-2.055Z"/>
      </g>
      <g id="그룹_507" data-name="그룹 507" transform="translate(128.5 -71.814)">
        <path id="패스_866" data-name="패스 866" class="cls-12" d="M0,0A6.944,6.944,0,0,0,7.065,6.818,6.944,6.944,0,0,0,14.129,0Z"/>
      </g>
      <g id="그룹_508" data-name="그룹 508" transform="translate(128.5 -71.814)">
        <path id="패스_867" data-name="패스 867" class="cls-21" d="M0,0A6.944,6.944,0,0,0,7.065,6.818,6.944,6.944,0,0,0,14.129,0Z"/>
      </g>
      <g id="그룹_509" data-name="그룹 509" transform="translate(153.768 -71.814)">
        <path id="패스_868" data-name="패스 868" class="cls-12" d="M0,0A6.944,6.944,0,0,0,7.065,6.818,6.944,6.944,0,0,0,14.129,0Z"/>
      </g>
      <g id="그룹_510" data-name="그룹 510" transform="translate(153.768 -71.814)">
        <path id="패스_869" data-name="패스 869" class="cls-21" d="M0,0A6.944,6.944,0,0,0,7.065,6.818,6.944,6.944,0,0,0,14.129,0Z"/>
      </g>
    </g>
    <g id="그룹_512" data-name="그룹 512" transform="translate(130.307 -71.836)">
      <path id="패스_871" data-name="패스 871" class="cls-22" d="M0,0,5.269-12.008H17.915"/>
    </g>
    <g id="그룹_513" data-name="그룹 513" transform="translate(135.588 -83.852)">
      <path id="패스_872" data-name="패스 872" class="cls-22" d="M0,0,5.3,12.014"/>
    </g>
    <g id="그룹_514" data-name="그룹 514" transform="translate(166.09 -71.836)">
      <path id="패스_873" data-name="패스 873" class="cls-22" d="M0,0-5.269-12.008H-17.915"/>
    </g>
    <g id="그룹_515" data-name="그룹 515" transform="translate(160.809 -83.852)">
      <path id="패스_874" data-name="패스 874" class="cls-22" d="M0,0-5.3,12.014"/>
    </g>
    <path id="패스_875" data-name="패스 875" class="cls-23" d="M146.84-58.512h2.717V-81.8H146.84Z"/>
    <g id="그룹_518" data-name="그룹 518" class="cls-13">
      <g id="그룹_516" data-name="그룹 516" transform="translate(148.199 -80.857)">
        <path id="패스_876" data-name="패스 876" class="cls-12" d="M0,0A2.735,2.735,0,0,0,2.752-2.717,2.735,2.735,0,0,0,0-5.436,2.735,2.735,0,0,0-2.752-2.717,2.735,2.735,0,0,0,0,0"/>
      </g>
      <g id="그룹_517" data-name="그룹 517" transform="translate(148.199 -80.857)">
        <path id="패스_877" data-name="패스 877" class="cls-21" d="M0,0A2.735,2.735,0,0,0,2.752-2.717,2.735,2.735,0,0,0,0-5.436,2.735,2.735,0,0,0-2.752-2.717,2.735,2.735,0,0,0,0,0Z"/>
      </g>
    </g>
  </g>
</svg>
