<svg id="구성_요소_71_1" data-name="구성 요소 71 – 1" xmlns="http://www.w3.org/2000/svg" xmlns:xlink="http://www.w3.org/1999/xlink" width="818.692" height="315.736" viewBox="0 0 818.692 315.736">
  <defs>
    <style>
      .cls-1, .cls-10, .cls-13, .cls-15, .cls-20, .cls-21, .cls-22, .cls-24, .cls-3, .cls-4, .cls-5 {
        fill: none;
      }

      .cls-2 {
        clip-path: url(#clip-path);
      }

      .cls-10, .cls-13, .cls-3, .cls-4, .cls-5 {
        stroke: #5e6366;
        stroke-width: 0.99px;
      }

      .cls-13, .cls-22, .cls-3, .cls-4, .cls-5 {
        stroke-linecap: round;
        stroke-linejoin: round;
      }

      .cls-3 {
        stroke-dasharray: 0 2.936;
      }

      .cls-4 {
        stroke-dasharray: 0 2.993;
      }

      .cls-6 {
        fill: #a0c0ea;
      }

      .cls-7, .cls-8 {
        fill: #595b60;
      }

      .cls-12, .cls-7, .cls-8 {
        font-size: 15px;
        font-family: NotoSansKR-Medium, Noto Sans KR;
        font-weight: 500;
      }

      .cls-7, .cls-9 {
        letter-spacing: -0.02em;
      }

      .cls-19, .cls-9 {
        fill: #1e2323;
      }

      .cls-9 {
        font-size: 16px;
        font-family: NotoSansKR-Light, Noto Sans KR;
        font-weight: 300;
      }

      .cls-11 {
        fill: #132d53;
      }

      .cls-12, .cls-16, .cls-17, .cls-25 {
        fill: #fff;
      }

      .cls-13 {
        stroke-dasharray: 0 2.923;
      }

      .cls-14, .cls-18, .cls-23 {
        fill: #393c41;
      }

      .cls-15, .cls-16, .cls-18, .cls-22, .cls-23, .cls-24, .cls-25 {
        stroke: #393c41;
      }

      .cls-20 {
        stroke: #1e2323;
      }

      .cls-21 {
        stroke: #2b2e34;
      }

      .cls-23, .cls-24, .cls-25 {
        stroke-miterlimit: 10;
      }
    </style>
    <clipPath id="clip-path">
      <path id="패스_971" data-name="패스 971" class="cls-1" d="M0,0H818.692V-315.736H0Z"/>
    </clipPath>
  </defs>
  <g id="그룹_602" data-name="그룹 602" class="cls-2" transform="translate(0 315.736)">
    <g id="그룹_594" data-name="그룹 594" transform="translate(37.329 -285.48)">
      <path id="패스_963" data-name="패스 963" class="cls-3" d="M0,0A85.428,85.428,0,0,0-23.187,57.183"/>
    </g>
    <g id="그룹_595" data-name="그룹 595" transform="translate(14.181 -223.836)">
      <path id="패스_964" data-name="패스 964" class="cls-4" d="M0,0A85.745,85.745,0,0,0,84.2,82.735"/>
    </g>
    <g id="그룹_596" data-name="그룹 596" transform="translate(102.867 -141.139)">
      <path id="패스_965" data-name="패스 965" class="cls-4" d="M0,0A85.745,85.745,0,0,0,82.739-84.193"/>
    </g>
    <g id="그룹_597" data-name="그룹 597" transform="translate(39.374 -287.587)">
      <path id="패스_966" data-name="패스 966" class="cls-5" d="M0,0H0M-25.244,60.758h0M60.5,146.5h0m85.745-85.741h0"/>
    </g>
    <g id="그룹_598" data-name="그룹 598" transform="translate(99.875 -158.667)">
      <path id="패스_967" data-name="패스 967" class="cls-6" d="M0,0A68.166,68.166,0,0,0,68.166-68.166,68.166,68.166,0,0,0,0-136.332,68.166,68.166,0,0,0-68.166-68.166,68.166,68.166,0,0,0,0,0"/>
    </g>
    <g id="그룹_599" data-name="그룹 599" transform="translate(503.501 -158.667)">
      <path id="패스_968" data-name="패스 968" class="cls-6" d="M0,0A68.166,68.166,0,0,0,68.166-68.166,68.166,68.166,0,0,0,0-136.332,68.166,68.166,0,0,0-68.166-68.166,68.166,68.166,0,0,0,0,0"/>
    </g>
    <g id="그룹_600" data-name="그룹 600" transform="translate(301.627 -158.667)">
      <path id="패스_969" data-name="패스 969" class="cls-6" d="M0,0A68.166,68.166,0,0,0,68.166-68.166,68.166,68.166,0,0,0,0-136.332,68.166,68.166,0,0,0-68.166-68.166,68.166,68.166,0,0,0,0,0"/>
    </g>
    <g id="그룹_601" data-name="그룹 601" transform="translate(705.253 -158.667)">
      <path id="패스_970" data-name="패스 970" class="cls-6" d="M0,0A68.166,68.166,0,0,0,68.166-68.166,68.166,68.166,0,0,0,0-136.332,68.166,68.166,0,0,0-68.166-68.166,68.166,68.166,0,0,0,0,0"/>
    </g>
  </g>
  <g id="그룹" transform="translate(0 315.736)">
    <text id="고객제보" class="cls-7" transform="translate(71.78 -201.212)"><tspan x="0" y="0">고객제보</tspan></text>
    <text id="제보_사항" data-name="제보 사항" class="cls-7" transform="translate(272.555 -201.212)"><tspan x="0" y="0">제보 사항</tspan></text>
    <text id="_" data-name=" " class="cls-7" transform="translate(330.755 -201.212)"><tspan x="0" y="0"> </tspan></text>
    <text id="_2" data-name=" " class="cls-8" transform="translate(334.355 -201.212)"><tspan x="0" y="0"> </tspan></text>
    <text id="확인" class="cls-7" transform="translate(288.005 -180.212)"><tspan x="0" y="0">확인</tspan></text>
    <text id="결과_안내" data-name="결과 안내" class="cls-7" transform="translate(476.405 -201.017)"><tspan x="0" y="0">결과 안내</tspan></text>
    <text id="사례_내부" data-name="사례 내부" class="cls-7" transform="translate(676.16 -201.212)"><tspan x="0" y="0">사례 내부</tspan></text>
    <text id="_3" data-name=" " class="cls-7" transform="translate(734.36 -201.212)"><tspan x="0" y="0"> </tspan></text>
    <text id="_4" data-name=" " class="cls-8" transform="translate(737.96 -201.212)"><tspan x="0" y="0"> </tspan></text>
    <text id="공유" class="cls-7" transform="translate(691.61 -180.212)"><tspan x="0" y="0">공유</tspan></text>
  </g>
  <g id="그룹-2" data-name="그룹" transform="translate(0 315.736)">
    <text id="윤리_제보센터로_고객" data-name="윤리 제보센터로 고객" class="cls-9" transform="translate(30.501 -91.866)"><tspan x="0" y="0">윤리 제보센터로 고객</tspan></text>
    <text id="_5" data-name=" " class="cls-9" transform="translate(167.359 -91.866)"><tspan x="0" y="0"> </tspan></text>
    <text id="제보를_접수_받습니다." data-name="제보를 접수 받습니다." class="cls-9" transform="translate(28.664 -67.124)"><tspan x="0" y="0">제보를 접수 받습니다.</tspan></text>
    <text id="_6" data-name=" " class="cls-9" transform="translate(169.18 -67.124)"><tspan x="0" y="0"> </tspan></text>
    <text id="_우편_또는_팩스_가능_" data-name="(우편 또는 팩스 가능)" class="cls-9" transform="translate(30.897 -42.382)"><tspan x="0" y="0">(우편 또는 팩스 가능)</tspan></text>
    <text id="처리결과에_대하여_제" data-name="처리결과에 대하여 제" class="cls-9" transform="translate(434.58 -91.882)"><tspan x="0" y="0">처리결과에 대하여 제</tspan></text>
    <text id="보자에게_안내_합니다." data-name="보자에게 안내 합니다." class="cls-9" transform="translate(432.758 -67.14)"><tspan x="0" y="0">보자에게 안내 합니다.</tspan></text>
    <text id="_7" data-name=" " class="cls-9" transform="translate(573.275 -67.14)"><tspan x="0" y="0"> </tspan></text>
    <text id="_우편_또는_이메일_등_" data-name="(우편 또는 이메일 등)" class="cls-9" transform="translate(434.992 -42.398)"><tspan x="0" y="0">(우편 또는 이메일 등)</tspan></text>
    <text id="접수내용에_대해_관련" data-name="접수내용에 대해 관련" class="cls-9" transform="translate(231.875 -91.898)"><tspan x="0" y="0">접수내용에 대해 관련</tspan></text>
    <text id="부서에서_확인_및_조치" data-name="부서에서 확인 및 조치" class="cls-9" transform="translate(229.816 -67.156)"><tspan x="0" y="0">부서에서 확인 및 조치</tspan></text>
    <text id="합니다." class="cls-9" transform="translate(276.924 -42.414)"><tspan x="0" y="0">합니다.</tspan></text>
    <text id="부정행위의_반복을_예방" data-name="부정행위의 반복을 예방" class="cls-9" transform="translate(630.616 -91.914)"><tspan x="0" y="0">부정행위의 반복을 예방</tspan></text>
    <text id="하고_모범사례를_전파하" data-name="하고 모범사례를 전파하" class="cls-9" transform="translate(630.616 -67.172)"><tspan x="0" y="0">하고 모범사례를 전파하</tspan></text>
    <text id="기_위해_관련_사례를_내부" data-name="기 위해 관련 사례를 내부" class="cls-9" transform="translate(626.497 -42.429)"><tspan x="0" y="0">기 위해 관련 사례를 내부</tspan></text>
  </g>
  <g id="그룹_612" data-name="그룹 612" class="cls-2" transform="translate(0 315.736)">
    <text id="에_공유합니다." data-name="에 공유합니다." class="cls-9" transform="translate(659.38 -17.616)"><tspan x="0" y="0">에 공유합니다.</tspan></text>
    <g id="그룹_603" data-name="그룹 603" transform="translate(417.807 -223.818)">
      <path id="패스_972" data-name="패스 972" class="cls-4" d="M0,0A85.736,85.736,0,0,0,84.2,82.717"/>
    </g>
    <g id="그룹_604" data-name="그룹 604" transform="translate(506.493 -141.139)">
      <path id="패스_973" data-name="패스 973" class="cls-4" d="M0,0A85.736,85.736,0,0,0,82.74-84.175"/>
    </g>
    <g id="그룹_605" data-name="그룹 605" transform="translate(417.756 -226.81)">
      <path id="패스_974" data-name="패스 974" class="cls-5" d="M0,0H0M85.745,85.722h0M171.49,0h0"/>
    </g>
    <g id="그룹_606" data-name="그룹 606" transform="translate(215.934 -228.731)">
      <path id="패스_975" data-name="패스 975" class="cls-4" d="M0,0A85.736,85.736,0,0,1,84.2-82.717"/>
    </g>
    <g id="그룹_607" data-name="그룹 607" transform="translate(304.62 -311.41)">
      <path id="패스_976" data-name="패스 976" class="cls-4" d="M0,0A85.736,85.736,0,0,1,82.74,84.175"/>
    </g>
    <g id="그룹_608" data-name="그룹 608" transform="translate(215.882 -225.739)">
      <path id="패스_977" data-name="패스 977" class="cls-5" d="M0,0H0M85.745-85.722h0M171.49,0h0"/>
    </g>
    <g id="그룹_609" data-name="그룹 609" transform="translate(619.56 -228.731)">
      <path id="패스_978" data-name="패스 978" class="cls-4" d="M0,0A85.736,85.736,0,0,1,84.2-82.717"/>
    </g>
    <g id="그룹_610" data-name="그룹 610" transform="translate(708.246 -311.41)">
      <path id="패스_979" data-name="패스 979" class="cls-4" d="M0,0A85.736,85.736,0,0,1,82.74,84.175"/>
    </g>
    <g id="그룹_611" data-name="그룹 611" transform="translate(619.508 -225.739)">
      <path id="패스_980" data-name="패스 980" class="cls-5" d="M0,0H0M85.745-85.722h0M171.49,0h0"/>
    </g>
  </g>
  <g id="그룹_613" data-name="그룹 613" transform="translate(99.419 187.253)">
    <path id="패스_982" data-name="패스 982" class="cls-10" d="M0,0V11.339"/>
  </g>
  <g id="그룹_614" data-name="그룹 614" transform="translate(503.022 187.253)">
    <path id="패스_983" data-name="패스 983" class="cls-10" d="M0,0V11.339"/>
  </g>
  <g id="그룹_615" data-name="그룹 615" transform="translate(301.16 187.253)">
    <path id="패스_984" data-name="패스 984" class="cls-10" d="M0,0V11.339"/>
  </g>
  <g id="그룹_616" data-name="그룹 616" transform="translate(704.764 187.253)">
    <path id="패스_985" data-name="패스 985" class="cls-10" d="M0,0V11.339"/>
  </g>
  <g id="그룹_618" data-name="그룹 618" class="cls-2" transform="translate(0 315.736)">
    <g id="그룹_617" data-name="그룹 617" transform="translate(14.099 -212.734)">
      <path id="패스_986" data-name="패스 986" class="cls-11" d="M0,0A14.1,14.1,0,0,0,14.1-14.1,14.1,14.1,0,0,0,0-28.2,14.1,14.1,0,0,0-14.1-14.1,14.1,14.1,0,0,0,0,0"/>
    </g>
  </g>
  <text id="_1" data-name="1" class="cls-12" transform="translate(9.866 94.903)"><tspan x="0" y="0">1</tspan></text>
  <g id="그룹_619" data-name="그룹 619" transform="translate(191.895 88.911)">
    <path id="패스_988" data-name="패스 988" class="cls-13" d="M0,0H24.843"/>
  </g>
  <g id="그룹_620" data-name="그룹 620" transform="translate(188.972 88.911)">
    <path id="패스_989" data-name="패스 989" class="cls-5" d="M0,0H0M29.228,0h0"/>
  </g>
  <g id="그룹_621" data-name="그룹 621" transform="translate(592.686 88.911)">
    <path id="패스_990" data-name="패스 990" class="cls-13" d="M0,0H24.843"/>
  </g>
  <g id="그룹_622" data-name="그룹 622" transform="translate(589.763 88.911)">
    <path id="패스_991" data-name="패스 991" class="cls-5" d="M0,0H0M29.228,0h0"/>
  </g>
  <g id="그룹_623" data-name="그룹 623" transform="translate(392.341 90.131)">
    <path id="패스_992" data-name="패스 992" class="cls-13" d="M0,0H24.843"/>
  </g>
  <g id="그룹_624" data-name="그룹 624" transform="translate(389.418 90.131)">
    <path id="패스_993" data-name="패스 993" class="cls-5" d="M0,0H0M29.228,0h0"/>
  </g>
  <g id="그룹_626" data-name="그룹 626" class="cls-2" transform="translate(0 315.736)">
    <g id="그룹_625" data-name="그룹 625" transform="translate(214.924 -214.412)">
      <path id="패스_994" data-name="패스 994" class="cls-11" d="M0,0A14.1,14.1,0,0,0,14.1-14.1,14.1,14.1,0,0,0,0-28.2,14.1,14.1,0,0,0-14.1-14.1,14.1,14.1,0,0,0,0,0"/>
    </g>
  </g>
  <text id="_2-2" data-name="2" class="cls-12" transform="translate(210.692 93.225)"><tspan x="0" y="0">2</tspan></text>
  <g id="그룹_628" data-name="그룹 628" class="cls-2" transform="translate(0 315.736)">
    <g id="그룹_627" data-name="그룹 627" transform="translate(410.423 -211.514)">
      <path id="패스_996" data-name="패스 996" class="cls-11" d="M0,0A14.1,14.1,0,0,0,14.1-14.1,14.1,14.1,0,0,0,0-28.2,14.1,14.1,0,0,0-14.1-14.1,14.1,14.1,0,0,0,0,0"/>
    </g>
  </g>
  <text id="_3-2" data-name="3" class="cls-12" transform="translate(406.191 96.124)"><tspan x="0" y="0">3</tspan></text>
  <g id="그룹_630" data-name="그룹 630" class="cls-2" transform="translate(0 315.736)">
    <g id="그룹_629" data-name="그룹 629" transform="translate(613.414 -211.514)">
      <path id="패스_998" data-name="패스 998" class="cls-11" d="M0,0A14.1,14.1,0,0,0,14.1-14.1,14.1,14.1,0,0,0,0-28.2,14.1,14.1,0,0,0-14.1-14.1,14.1,14.1,0,0,0,0,0"/>
    </g>
  </g>
  <text id="_4-2" data-name="4" class="cls-12" transform="translate(609.182 96.124)"><tspan x="0" y="0">4</tspan></text>
  <g id="그룹_632" data-name="그룹 632" class="cls-2" transform="translate(0 315.736)">
    <g id="그룹_631" data-name="그룹 631" transform="translate(300.68 -315.391)">
      <path id="패스_1000" data-name="패스 1000" class="cls-10" d="M0,0,4.065,4.184,0,8.368"/>
    </g>
  </g>
  <g id="그룹_633" data-name="그룹 633" transform="translate(501.984 170.959)">
    <path id="패스_1002" data-name="패스 1002" class="cls-10" d="M0,0,4.065,4.184,0,8.368"/>
  </g>
  <g id="그룹_634" data-name="그룹 634" transform="translate(795.655 90.12)">
    <path id="패스_1003" data-name="패스 1003" class="cls-10" d="M0,0-4.184,4.065-8.368,0"/>
  </g>
  <g id="그룹_635" data-name="그룹 635" transform="translate(36.767 25.058)">
    <path id="패스_1004" data-name="패스 1004" class="cls-10" d="M0,0,5.8.774,5.145,6.592"/>
  </g>
  <g id="그룹_636" data-name="그룹 636" transform="translate(316.749 56.869)">
    <path id="패스_1005" data-name="패스 1005" class="cls-14" d="M0,0H-8V-1.254h-12V0h-7.994V34.5H0Z"/>
  </g>
  <g id="그룹_637" data-name="그룹 637" transform="translate(316.749 56.869)">
    <path id="패스_1006" data-name="패스 1006" class="cls-15" d="M0,0H-8V-1.254h-12V0h-7.994V34.5H0Z"/>
  </g>
  <path id="패스_1007" data-name="패스 1007" class="cls-16" d="M315.649-225.373H287.662v-34.5h27.987Z" transform="translate(0 315.736)"/>
  <path id="패스_1008" data-name="패스 1008" class="cls-16" d="M312.892-227.959H290.418v-28.854h22.474Z" transform="translate(0 315.736)"/>
  <path id="패스_1009" data-name="패스 1009" class="cls-16" d="M307.653-254.6h-12v-6.522h12Z" transform="translate(0 315.736)"/>
  <g id="그룹_642" data-name="그룹 642" class="cls-2" transform="translate(0 315.736)">
    <g id="그룹_638" data-name="그룹 638" transform="translate(312.119 -221.707)">
      <path id="패스_1010" data-name="패스 1010" class="cls-14" d="M0,0A7.7,7.7,0,0,0,7.719-7.676,7.7,7.7,0,0,0,0-15.352,7.7,7.7,0,0,0-7.719-7.676,7.7,7.7,0,0,0,0,0"/>
    </g>
    <g id="그룹_639" data-name="그룹 639" transform="translate(312.119 -221.707)">
      <path id="패스_1011" data-name="패스 1011" class="cls-15" d="M0,0A7.7,7.7,0,0,0,7.719-7.676,7.7,7.7,0,0,0,0-15.352,7.7,7.7,0,0,0-7.719-7.676,7.7,7.7,0,0,0,0,0Z"/>
    </g>
    <g id="그룹_640" data-name="그룹 640" transform="translate(311.219 -222.508)">
      <path id="패스_1012" data-name="패스 1012" class="cls-17" d="M0,0A7.7,7.7,0,0,0,7.719-7.676,7.7,7.7,0,0,0,0-15.352,7.7,7.7,0,0,0-7.719-7.676,7.7,7.7,0,0,0,0,0"/>
    </g>
    <g id="그룹_641" data-name="그룹 641" transform="translate(311.219 -222.508)">
      <path id="패스_1013" data-name="패스 1013" class="cls-15" d="M0,0A7.7,7.7,0,0,0,7.719-7.676,7.7,7.7,0,0,0,0-15.352,7.7,7.7,0,0,0-7.719-7.676,7.7,7.7,0,0,0,0,0Z"/>
    </g>
  </g>
  <g id="그룹_643" data-name="그룹 643" transform="translate(306.957 84.809)">
    <path id="패스_1015" data-name="패스 1015" class="cls-16" d="M0,0,3.149,3.871,7.975-3.805"/>
  </g>
  <path id="패스_1016" data-name="패스 1016" class="cls-18" d="M682.441-224.445H729.7v-29.41H682.441Z" transform="translate(0 315.736)"/>
  <path id="패스_1017" data-name="패스 1017" class="cls-16" d="M680.641-225.445H727.9v-29.41H680.641Z" transform="translate(0 315.736)"/>
  <g id="그룹_644" data-name="그룹 644" transform="translate(700.174 64.998)">
    <path id="패스_1018" data-name="패스 1018" class="cls-15" d="M0,0H8.188"/>
  </g>
  <g id="그룹_645" data-name="그룹 645" transform="translate(695.576 67.349)">
    <path id="패스_1019" data-name="패스 1019" class="cls-15" d="M0,0H17.384"/>
  </g>
  <path id="패스_1020" data-name="패스 1020" class="cls-16" d="M685.949-231.707h9.615v-11.871h-9.615Z" transform="translate(0 315.736)"/>
  <path id="패스_1021" data-name="패스 1021" class="cls-16" d="M700.635-231.707h9.615v-11.871h-9.615Z" transform="translate(0 315.736)"/>
  <path id="패스_1022" data-name="패스 1022" class="cls-16" d="M713.393-231.707h9.615v-11.871h-9.615Z" transform="translate(0 315.736)"/>
  <g id="그룹_652" data-name="그룹 652" class="cls-2" transform="translate(0 315.736)">
    <g id="그룹_646" data-name="그룹 646" transform="translate(97.073 -244.59)">
      <path id="패스_1023" data-name="패스 1023" class="cls-19" d="M0,0A5.359,5.359,0,0,1-5.329-5.389,5.358,5.358,0,0,1,0-10.775,5.358,5.358,0,0,1,5.329-5.389,5.359,5.359,0,0,1,0,0"/>
    </g>
    <g id="그룹_647" data-name="그룹 647" transform="translate(109.229 -222.223)">
      <path id="패스_1024" data-name="패스 1024" class="cls-19" d="M0,0C-.013-2.621-.026-8.25-.026-12.59c0-6.027-6.906-5.3-6.906-5.3H-17.35s-6.935-.73-6.935,5.3c0,4.34-.013,9.969-.027,12.59Z"/>
    </g>
    <g id="그룹_648" data-name="그룹 648" transform="translate(95.558 -245.313)">
      <path id="패스_1025" data-name="패스 1025" class="cls-17" d="M0,0A5.394,5.394,0,0,1-5.364-5.422,5.394,5.394,0,0,1,0-10.844,5.394,5.394,0,0,1,5.364-5.422,5.394,5.394,0,0,1,0,0"/>
    </g>
    <g id="그룹_649" data-name="그룹 649" transform="translate(95.558 -245.313)">
      <path id="패스_1026" data-name="패스 1026" class="cls-20" d="M0,0A5.394,5.394,0,0,1-5.364-5.422,5.394,5.394,0,0,1,0-10.844,5.394,5.394,0,0,1,5.364-5.422,5.394,5.394,0,0,1,0,0Z"/>
    </g>
    <g id="그룹_650" data-name="그룹 650" transform="translate(107.749 -224.461)">
      <path id="패스_1027" data-name="패스 1027" class="cls-17" d="M0,0C-.013-2.629-.026-8.281-.026-12.637c0-6.05-6.926-5.316-6.926-5.316H-17.4s-6.955-.734-6.955,5.316c0,4.356-.014,10.008-.027,12.637Z"/>
    </g>
    <g id="그룹_651" data-name="그룹 651" transform="translate(107.749 -224.461)">
      <path id="패스_1028" data-name="패스 1028" class="cls-20" d="M0,0C-.013-2.629-.026-8.281-.026-12.637c0-6.05-6.926-5.316-6.926-5.316H-17.4s-6.955-.734-6.955,5.316c0,4.356-.014,10.008-.027,12.637Z"/>
    </g>
  </g>
  <g id="그룹_653" data-name="그룹 653" transform="translate(102.477 91.173)">
    <path id="패스_1030" data-name="패스 1030" class="cls-20" d="M0,0V-11.34"/>
  </g>
  <g id="그룹_654" data-name="그룹 654" transform="translate(88.823 79.861)">
    <path id="패스_1031" data-name="패스 1031" class="cls-20" d="M0,0,.15,11.285"/>
  </g>
  <g id="그룹_655" data-name="그룹 655" transform="translate(110.289 61.654)">
    <path id="패스_1032" data-name="패스 1032" class="cls-21" d="M0,0,8.45-2.641"/>
  </g>
  <g id="그룹_656" data-name="그룹 656" transform="translate(110.289 68.814)">
    <path id="패스_1033" data-name="패스 1033" class="cls-21" d="M0,0,8.45,2.641"/>
  </g>
  <g id="그룹_657" data-name="그룹 657" transform="translate(110.252 65.076)">
    <path id="패스_1034" data-name="패스 1034" class="cls-21" d="M0,0H8.748"/>
  </g>
  <g id="그룹_660" data-name="그룹 660" class="cls-2" transform="translate(0 315.736)">
    <g id="그룹_658" data-name="그룹 658" transform="translate(514.135 -224.063)">
      <path id="패스_1035" data-name="패스 1035" class="cls-14" d="M0,0A2.4,2.4,0,0,1-2.412,2.394H-19.488A2.4,2.4,0,0,1-21.9,0V-32.179a2.4,2.4,0,0,1,2.412-2.4H-2.412A2.4,2.4,0,0,1,0-32.179Z"/>
    </g>
    <g id="그룹_659" data-name="그룹 659" transform="translate(514.135 -224.063)">
      <path id="패스_1036" data-name="패스 1036" class="cls-22" d="M0,0A2.4,2.4,0,0,1-2.412,2.394H-19.488A2.4,2.4,0,0,1-21.9,0V-32.179a2.4,2.4,0,0,1,2.412-2.4H-2.412A2.4,2.4,0,0,1,0-32.179Z"/>
    </g>
  </g>
  <path id="패스_1038" data-name="패스 1038" class="cls-23" d="M512.012-227.267H494.359v-28.3h17.653Z" transform="translate(0 315.736)"/>
  <g id="그룹_661" data-name="그룹 661" transform="translate(523.193 79.279)">
    <path id="패스_1039" data-name="패스 1039" class="cls-14" d="M0,0V-13.094H-19.171V0h4.13V2.629L-12.467,0Z"/>
  </g>
  <g id="그룹_662" data-name="그룹 662" transform="translate(523.193 79.279)">
    <path id="패스_1040" data-name="패스 1040" class="cls-15" d="M0,0V-13.094H-19.171V0h4.13V2.629L-12.467,0Z"/>
  </g>
  <g id="그룹_663" data-name="그룹 663" transform="translate(519.683 70.345)">
    <path id="패스_1041" data-name="패스 1041" class="cls-15" d="M0,0H-12.544"/>
  </g>
  <g id="그룹_664" data-name="그룹 664" transform="translate(513.607 73.49)">
    <path id="패스_1042" data-name="패스 1042" class="cls-15" d="M0,0H-6.469"/>
  </g>
  <g id="그룹_669" data-name="그룹 669" class="cls-2" transform="translate(0 315.736)">
    <g id="그룹_665" data-name="그룹 665" transform="translate(502.712 -224.702)">
      <path id="패스_1043" data-name="패스 1043" class="cls-14" d="M0,0A.81.81,0,0,1,.81-.81.81.81,0,0,1,1.62,0,.81.81,0,0,1,.81.81.81.81,0,0,1,0,0"/>
    </g>
    <g id="그룹_666" data-name="그룹 666" transform="translate(502.712 -224.702)">
      <path id="패스_1044" data-name="패스 1044" class="cls-24" d="M0,0A.81.81,0,0,1,.81-.81.81.81,0,0,1,1.62,0,.81.81,0,0,1,.81.81.81.81,0,0,1,0,0Z"/>
    </g>
    <g id="그룹_667" data-name="그룹 667" transform="translate(513.316 -225.32)">
      <path id="패스_1045" data-name="패스 1045" class="cls-17" d="M0,0A2.4,2.4,0,0,1-2.412,2.394H-19.488A2.4,2.4,0,0,1-21.9,0V-32.179a2.4,2.4,0,0,1,2.412-2.4H-2.412A2.4,2.4,0,0,1,0-32.179Z"/>
    </g>
    <g id="그룹_668" data-name="그룹 668" transform="translate(513.316 -225.32)">
      <path id="패스_1046" data-name="패스 1046" class="cls-22" d="M0,0A2.4,2.4,0,0,1-2.412,2.394H-19.488A2.4,2.4,0,0,1-21.9,0V-32.179a2.4,2.4,0,0,1,2.412-2.4H-2.412A2.4,2.4,0,0,1,0-32.179Z"/>
    </g>
  </g>
  <path id="패스_1048" data-name="패스 1048" class="cls-25" d="M511.193-228.524H493.54v-28.3h17.653Z" transform="translate(0 315.736)"/>
  <g id="그룹_670" data-name="그룹 670" transform="translate(522.374 78.021)">
    <path id="패스_1049" data-name="패스 1049" class="cls-17" d="M0,0V-13.094H-19.171V0h4.13V2.629L-12.467,0Z"/>
  </g>
  <g id="그룹_671" data-name="그룹 671" transform="translate(522.374 78.021)">
    <path id="패스_1050" data-name="패스 1050" class="cls-15" d="M0,0V-13.094H-19.171V0h4.13V2.629L-12.467,0Z"/>
  </g>
  <g id="그룹_672" data-name="그룹 672" transform="translate(518.863 69.088)">
    <path id="패스_1051" data-name="패스 1051" class="cls-15" d="M0,0H-12.544"/>
  </g>
  <g id="그룹_673" data-name="그룹 673" transform="translate(512.788 72.232)">
    <path id="패스_1052" data-name="패스 1052" class="cls-15" d="M0,0H-6.469"/>
  </g>
  <g id="그룹_676" data-name="그룹 676" class="cls-2" transform="translate(0 315.736)">
    <g id="그룹_674" data-name="그룹 674" transform="translate(501.892 -225.959)">
      <path id="패스_1053" data-name="패스 1053" class="cls-17" d="M0,0A.81.81,0,0,1,.81-.81.81.81,0,0,1,1.62,0,.81.81,0,0,1,.81.81.81.81,0,0,1,0,0"/>
    </g>
    <g id="그룹_675" data-name="그룹 675" transform="translate(501.892 -225.959)">
      <path id="패스_1054" data-name="패스 1054" class="cls-24" d="M0,0A.81.81,0,0,1,.81-.81.81.81,0,0,1,1.62,0,.81.81,0,0,1,.81.81.81.81,0,0,1,0,0Z"/>
    </g>
  </g>
</svg>
