<svg id="구성_요소_60_1" data-name="구성 요소 60 – 1" xmlns="http://www.w3.org/2000/svg" xmlns:xlink="http://www.w3.org/1999/xlink" width="818.692" height="311.956" viewBox="0 0 818.692 311.956">
  <defs>
    <style>
      .cls-1, .cls-10, .cls-13, .cls-15, .cls-19, .cls-21, .cls-23, .cls-24, .cls-3, .cls-4, .cls-5 {
        fill: none;
      }

      .cls-2 {
        clip-path: url(#clip-path);
      }

      .cls-10, .cls-13, .cls-3, .cls-4, .cls-5 {
        stroke: #5e6366;
        stroke-width: 0.99px;
      }

      .cls-13, .cls-3, .cls-4, .cls-5 {
        stroke-linecap: round;
        stroke-linejoin: round;
      }

      .cls-3 {
        stroke-dasharray: 0 2.936;
      }

      .cls-4 {
        stroke-dasharray: 0 2.993;
      }

      .cls-6 {
        fill: #a0c0ea;
      }

      .cls-7, .cls-8 {
        fill: #595b60;
      }

      .cls-12, .cls-7, .cls-8 {
        font-size: 15px;
        font-family: NotoSansKR-Medium, Noto Sans KR;
        font-weight: 500;
      }

      .cls-7, .cls-9 {
        letter-spacing: -0.02em;
      }

      .cls-22, .cls-9 {
        fill: #1e2323;
      }

      .cls-9 {
        font-size: 16px;
        font-family: NotoSansKR-Light, Noto Sans KR;
        font-weight: 300;
      }

      .cls-11 {
        fill: #132d53;
      }

      .cls-12, .cls-16, .cls-17, .cls-20 {
        fill: #fff;
      }

      .cls-13 {
        stroke-dasharray: 0 2.923;
      }

      .cls-14, .cls-18 {
        fill: #393c41;
      }

      .cls-15, .cls-16, .cls-18, .cls-19, .cls-20, .cls-21 {
        stroke: #393c41;
      }

      .cls-19, .cls-20 {
        stroke-linejoin: bevel;
      }

      .cls-21 {
        stroke-width: 0.283px;
      }

      .cls-23 {
        stroke: #1e2323;
      }

      .cls-24 {
        stroke: #2b2e34;
      }
    </style>
    <clipPath id="clip-path">
      <path id="패스_887" data-name="패스 887" class="cls-1" d="M0,0H818.692V-311.956H0Z"/>
    </clipPath>
  </defs>
  <g id="그룹_528" data-name="그룹 528" class="cls-2" transform="translate(0 311.956)">
    <g id="그룹_520" data-name="그룹 520" transform="translate(37.329 -285.48)">
      <path id="패스_879" data-name="패스 879" class="cls-3" d="M0,0A85.428,85.428,0,0,0-23.187,57.183"/>
    </g>
    <g id="그룹_521" data-name="그룹 521" transform="translate(14.181 -223.836)">
      <path id="패스_880" data-name="패스 880" class="cls-4" d="M0,0A85.745,85.745,0,0,0,84.2,82.735"/>
    </g>
    <g id="그룹_522" data-name="그룹 522" transform="translate(102.867 -141.139)">
      <path id="패스_881" data-name="패스 881" class="cls-4" d="M0,0A85.745,85.745,0,0,0,82.739-84.193"/>
    </g>
    <g id="그룹_523" data-name="그룹 523" transform="translate(39.374 -287.587)">
      <path id="패스_882" data-name="패스 882" class="cls-5" d="M0,0H0M-25.244,60.758h0M60.5,146.5h0m85.745-85.741h0"/>
    </g>
    <g id="그룹_524" data-name="그룹 524" transform="translate(99.875 -158.667)">
      <path id="패스_883" data-name="패스 883" class="cls-6" d="M0,0A68.166,68.166,0,0,0,68.166-68.166,68.166,68.166,0,0,0,0-136.332,68.166,68.166,0,0,0-68.166-68.166,68.166,68.166,0,0,0,0,0"/>
    </g>
    <g id="그룹_525" data-name="그룹 525" transform="translate(503.501 -158.667)">
      <path id="패스_884" data-name="패스 884" class="cls-6" d="M0,0A68.166,68.166,0,0,0,68.166-68.166,68.166,68.166,0,0,0,0-136.332,68.166,68.166,0,0,0-68.166-68.166,68.166,68.166,0,0,0,0,0"/>
    </g>
    <g id="그룹_526" data-name="그룹 526" transform="translate(301.627 -158.667)">
      <path id="패스_885" data-name="패스 885" class="cls-6" d="M0,0A68.166,68.166,0,0,0,68.166-68.166,68.166,68.166,0,0,0,0-136.332,68.166,68.166,0,0,0-68.166-68.166,68.166,68.166,0,0,0,0,0"/>
    </g>
    <g id="그룹_527" data-name="그룹 527" transform="translate(705.253 -158.667)">
      <path id="패스_886" data-name="패스 886" class="cls-6" d="M0,0A68.166,68.166,0,0,0,68.166-68.166,68.166,68.166,0,0,0,0-136.332,68.166,68.166,0,0,0-68.166-68.166,68.166,68.166,0,0,0,0,0"/>
    </g>
  </g>
  <g id="그룹" transform="translate(0 311.956)">
    <text id="고객제보" class="cls-7" transform="translate(71.78 -201.212)"><tspan x="0" y="0">고객제보</tspan></text>
    <text id="제보_사항" data-name="제보 사항" class="cls-7" transform="translate(272.555 -201.212)"><tspan x="0" y="0">제보 사항</tspan></text>
    <text id="_" data-name=" " class="cls-7" transform="translate(330.755 -201.212)"><tspan x="0" y="0"> </tspan></text>
    <text id="_2" data-name=" " class="cls-8" transform="translate(334.355 -201.212)"><tspan x="0" y="0"> </tspan></text>
    <text id="확인" class="cls-7" transform="translate(288.005 -180.212)"><tspan x="0" y="0">확인</tspan></text>
    <text id="결과_안내" data-name="결과 안내" class="cls-7" transform="translate(476.405 -201.017)"><tspan x="0" y="0">결과 안내</tspan></text>
    <text id="사례_내부" data-name="사례 내부" class="cls-7" transform="translate(676.16 -201.212)"><tspan x="0" y="0">사례 내부</tspan></text>
    <text id="_3" data-name=" " class="cls-7" transform="translate(734.36 -201.212)"><tspan x="0" y="0"> </tspan></text>
    <text id="_4" data-name=" " class="cls-8" transform="translate(737.96 -201.212)"><tspan x="0" y="0"> </tspan></text>
    <text id="공유" class="cls-7" transform="translate(691.61 -180.212)"><tspan x="0" y="0">공유</tspan></text>
  </g>
  <g id="그룹-2" data-name="그룹" transform="translate(0 311.956)">
    <text id="윤리_제보센터로_고객" data-name="윤리 제보센터로 고객" class="cls-9" transform="translate(30.501 -91.866)"><tspan x="0" y="0">윤리 제보센터로 고객</tspan></text>
    <text id="_5" data-name=" " class="cls-9" transform="translate(167.359 -91.866)"><tspan x="0" y="0"> </tspan></text>
    <text id="제보를_접수_받습니다." data-name="제보를 접수 받습니다." class="cls-9" transform="translate(28.664 -67.124)"><tspan x="0" y="0">제보를 접수 받습니다.</tspan></text>
    <text id="_6" data-name=" " class="cls-9" transform="translate(169.18 -67.124)"><tspan x="0" y="0"> </tspan></text>
    <text id="_우편_또는_팩스_가능_" data-name="(우편 또는 팩스 가능)" class="cls-9" transform="translate(30.897 -42.382)"><tspan x="0" y="0">(우편 또는 팩스 가능)</tspan></text>
    <text id="처리결과에_대하여_제" data-name="처리결과에 대하여 제" class="cls-9" transform="translate(434.58 -91.882)"><tspan x="0" y="0">처리결과에 대하여 제</tspan></text>
    <text id="보자에게_안내_합니다." data-name="보자에게 안내 합니다." class="cls-9" transform="translate(432.758 -67.14)"><tspan x="0" y="0">보자에게 안내 합니다.</tspan></text>
    <text id="_7" data-name=" " class="cls-9" transform="translate(573.275 -67.14)"><tspan x="0" y="0"> </tspan></text>
    <text id="_우편_또는_이메일_등_" data-name="(우편 또는 이메일 등)" class="cls-9" transform="translate(434.992 -42.398)"><tspan x="0" y="0">(우편 또는 이메일 등)</tspan></text>
    <text id="접수내용에_대해_관련" data-name="접수내용에 대해 관련" class="cls-9" transform="translate(231.875 -91.898)"><tspan x="0" y="0">접수내용에 대해 관련</tspan></text>
    <text id="부서에서_확인_및_조치" data-name="부서에서 확인 및 조치" class="cls-9" transform="translate(229.816 -67.156)"><tspan x="0" y="0">부서에서 확인 및 조치</tspan></text>
    <text id="합니다." class="cls-9" transform="translate(276.924 -42.414)"><tspan x="0" y="0">합니다.</tspan></text>
    <text id="부정행위의_반복을_예방" data-name="부정행위의 반복을 예방" class="cls-9" transform="translate(630.616 -91.914)"><tspan x="0" y="0">부정행위의 반복을 예방</tspan></text>
    <text id="하고_모범사례를_전파하" data-name="하고 모범사례를 전파하" class="cls-9" transform="translate(630.616 -67.172)"><tspan x="0" y="0">하고 모범사례를 전파하</tspan></text>
    <text id="기_위해_관련_사례를_내부" data-name="기 위해 관련 사례를 내부" class="cls-9" transform="translate(626.497 -42.429)"><tspan x="0" y="0">기 위해 관련 사례를 내부</tspan></text>
  </g>
  <g id="그룹_538" data-name="그룹 538" class="cls-2" transform="translate(0 311.956)">
    <text id="에_공유합니다." data-name="에 공유합니다." class="cls-9" transform="translate(659.38 -17.616)"><tspan x="0" y="0">에 공유합니다.</tspan></text>
    <g id="그룹_529" data-name="그룹 529" transform="translate(417.807 -223.818)">
      <path id="패스_888" data-name="패스 888" class="cls-4" d="M0,0A85.736,85.736,0,0,0,84.2,82.717"/>
    </g>
    <g id="그룹_530" data-name="그룹 530" transform="translate(506.493 -141.139)">
      <path id="패스_889" data-name="패스 889" class="cls-4" d="M0,0A85.736,85.736,0,0,0,82.74-84.175"/>
    </g>
    <g id="그룹_531" data-name="그룹 531" transform="translate(417.756 -226.81)">
      <path id="패스_890" data-name="패스 890" class="cls-5" d="M0,0H0M85.745,85.722h0M171.49,0h0"/>
    </g>
    <g id="그룹_532" data-name="그룹 532" transform="translate(215.934 -228.731)">
      <path id="패스_891" data-name="패스 891" class="cls-4" d="M0,0A85.736,85.736,0,0,1,84.2-82.717"/>
    </g>
    <g id="그룹_533" data-name="그룹 533" transform="translate(304.62 -311.41)">
      <path id="패스_892" data-name="패스 892" class="cls-4" d="M0,0A85.736,85.736,0,0,1,82.74,84.175"/>
    </g>
    <g id="그룹_534" data-name="그룹 534" transform="translate(215.882 -225.739)">
      <path id="패스_893" data-name="패스 893" class="cls-5" d="M0,0H0M85.745-85.722h0M171.49,0h0"/>
    </g>
    <g id="그룹_535" data-name="그룹 535" transform="translate(619.56 -228.731)">
      <path id="패스_894" data-name="패스 894" class="cls-4" d="M0,0A85.736,85.736,0,0,1,84.2-82.717"/>
    </g>
    <g id="그룹_536" data-name="그룹 536" transform="translate(708.246 -311.41)">
      <path id="패스_895" data-name="패스 895" class="cls-4" d="M0,0A85.736,85.736,0,0,1,82.74,84.175"/>
    </g>
    <g id="그룹_537" data-name="그룹 537" transform="translate(619.508 -225.739)">
      <path id="패스_896" data-name="패스 896" class="cls-5" d="M0,0H0M85.745-85.722h0M171.49,0h0"/>
    </g>
  </g>
  <g id="그룹_539" data-name="그룹 539" transform="translate(99.419 183.473)">
    <path id="패스_898" data-name="패스 898" class="cls-10" d="M0,0V11.339"/>
  </g>
  <g id="그룹_540" data-name="그룹 540" transform="translate(503.022 183.473)">
    <path id="패스_899" data-name="패스 899" class="cls-10" d="M0,0V11.339"/>
  </g>
  <g id="그룹_541" data-name="그룹 541" transform="translate(301.16 183.473)">
    <path id="패스_900" data-name="패스 900" class="cls-10" d="M0,0V11.339"/>
  </g>
  <g id="그룹_542" data-name="그룹 542" transform="translate(704.764 183.473)">
    <path id="패스_901" data-name="패스 901" class="cls-10" d="M0,0V11.339"/>
  </g>
  <g id="그룹_544" data-name="그룹 544" class="cls-2" transform="translate(0 311.956)">
    <g id="그룹_543" data-name="그룹 543" transform="translate(14.099 -212.734)">
      <path id="패스_902" data-name="패스 902" class="cls-11" d="M0,0A14.1,14.1,0,0,0,14.1-14.1,14.1,14.1,0,0,0,0-28.2,14.1,14.1,0,0,0-14.1-14.1,14.1,14.1,0,0,0,0,0"/>
    </g>
  </g>
  <text id="_1" data-name="1" class="cls-12" transform="translate(9.866 91.124)"><tspan x="0" y="0">1</tspan></text>
  <g id="그룹_545" data-name="그룹 545" transform="translate(191.895 85.131)">
    <path id="패스_904" data-name="패스 904" class="cls-13" d="M0,0H24.843"/>
  </g>
  <g id="그룹_546" data-name="그룹 546" transform="translate(188.972 85.131)">
    <path id="패스_905" data-name="패스 905" class="cls-5" d="M0,0H0M29.228,0h0"/>
  </g>
  <g id="그룹_547" data-name="그룹 547" transform="translate(592.686 85.131)">
    <path id="패스_906" data-name="패스 906" class="cls-13" d="M0,0H24.843"/>
  </g>
  <g id="그룹_548" data-name="그룹 548" transform="translate(589.763 85.131)">
    <path id="패스_907" data-name="패스 907" class="cls-5" d="M0,0H0M29.228,0h0"/>
  </g>
  <g id="그룹_549" data-name="그룹 549" transform="translate(392.341 86.351)">
    <path id="패스_908" data-name="패스 908" class="cls-13" d="M0,0H24.843"/>
  </g>
  <g id="그룹_550" data-name="그룹 550" transform="translate(389.418 86.351)">
    <path id="패스_909" data-name="패스 909" class="cls-5" d="M0,0H0M29.228,0h0"/>
  </g>
  <g id="그룹_552" data-name="그룹 552" class="cls-2" transform="translate(0 311.956)">
    <g id="그룹_551" data-name="그룹 551" transform="translate(214.924 -214.412)">
      <path id="패스_910" data-name="패스 910" class="cls-11" d="M0,0A14.1,14.1,0,0,0,14.1-14.1,14.1,14.1,0,0,0,0-28.2,14.1,14.1,0,0,0-14.1-14.1,14.1,14.1,0,0,0,0,0"/>
    </g>
  </g>
  <text id="_2-2" data-name="2" class="cls-12" transform="translate(210.692 89.445)"><tspan x="0" y="0">2</tspan></text>
  <g id="그룹_554" data-name="그룹 554" class="cls-2" transform="translate(0 311.956)">
    <g id="그룹_553" data-name="그룹 553" transform="translate(410.423 -211.514)">
      <path id="패스_912" data-name="패스 912" class="cls-11" d="M0,0A14.1,14.1,0,0,0,14.1-14.1,14.1,14.1,0,0,0,0-28.2,14.1,14.1,0,0,0-14.1-14.1,14.1,14.1,0,0,0,0,0"/>
    </g>
  </g>
  <text id="_3-2" data-name="3" class="cls-12" transform="translate(406.191 92.344)"><tspan x="0" y="0">3</tspan></text>
  <g id="그룹_556" data-name="그룹 556" class="cls-2" transform="translate(0 311.956)">
    <g id="그룹_555" data-name="그룹 555" transform="translate(613.414 -211.514)">
      <path id="패스_914" data-name="패스 914" class="cls-11" d="M0,0A14.1,14.1,0,0,0,14.1-14.1,14.1,14.1,0,0,0,0-28.2,14.1,14.1,0,0,0-14.1-14.1,14.1,14.1,0,0,0,0,0"/>
    </g>
  </g>
  <text id="_4-2" data-name="4" class="cls-12" transform="translate(609.182 92.344)"><tspan x="0" y="0">4</tspan></text>
  <g id="그룹_557" data-name="그룹 557" transform="translate(501.984 167.179)">
    <path id="패스_916" data-name="패스 916" class="cls-10" d="M0,0,4.065,4.184,0,8.368"/>
  </g>
  <g id="그룹_558" data-name="그룹 558" transform="translate(795.655 86.34)">
    <path id="패스_917" data-name="패스 917" class="cls-10" d="M0,0-4.184,4.065-8.368,0"/>
  </g>
  <g id="그룹_559" data-name="그룹 559" transform="translate(36.767 21.278)">
    <path id="패스_918" data-name="패스 918" class="cls-10" d="M0,0,5.8.774,5.145,6.592"/>
  </g>
  <g id="그룹_560" data-name="그룹 560" transform="translate(316.749 53.089)">
    <path id="패스_919" data-name="패스 919" class="cls-14" d="M0,0H-8V-1.254h-12V0h-7.994V34.5H0Z"/>
  </g>
  <g id="그룹_561" data-name="그룹 561" transform="translate(316.749 53.089)">
    <path id="패스_920" data-name="패스 920" class="cls-15" d="M0,0H-8V-1.254h-12V0h-7.994V34.5H0Z"/>
  </g>
  <path id="패스_921" data-name="패스 921" class="cls-16" d="M315.649-225.373H287.662v-34.5h27.987Z" transform="translate(0 311.956)"/>
  <path id="패스_922" data-name="패스 922" class="cls-16" d="M312.892-227.959H290.418v-28.854h22.474Z" transform="translate(0 311.956)"/>
  <path id="패스_923" data-name="패스 923" class="cls-16" d="M307.653-254.6h-12v-6.522h12Z" transform="translate(0 311.956)"/>
  <g id="그룹_566" data-name="그룹 566" class="cls-2" transform="translate(0 311.956)">
    <g id="그룹_562" data-name="그룹 562" transform="translate(312.119 -221.707)">
      <path id="패스_924" data-name="패스 924" class="cls-14" d="M0,0A7.7,7.7,0,0,0,7.719-7.676,7.7,7.7,0,0,0,0-15.352,7.7,7.7,0,0,0-7.719-7.676,7.7,7.7,0,0,0,0,0"/>
    </g>
    <g id="그룹_563" data-name="그룹 563" transform="translate(312.119 -221.707)">
      <path id="패스_925" data-name="패스 925" class="cls-15" d="M0,0A7.7,7.7,0,0,0,7.719-7.676,7.7,7.7,0,0,0,0-15.352,7.7,7.7,0,0,0-7.719-7.676,7.7,7.7,0,0,0,0,0Z"/>
    </g>
    <g id="그룹_564" data-name="그룹 564" transform="translate(311.219 -222.508)">
      <path id="패스_926" data-name="패스 926" class="cls-17" d="M0,0A7.7,7.7,0,0,0,7.719-7.676,7.7,7.7,0,0,0,0-15.352,7.7,7.7,0,0,0-7.719-7.676,7.7,7.7,0,0,0,0,0"/>
    </g>
    <g id="그룹_565" data-name="그룹 565" transform="translate(311.219 -222.508)">
      <path id="패스_927" data-name="패스 927" class="cls-15" d="M0,0A7.7,7.7,0,0,0,7.719-7.676,7.7,7.7,0,0,0,0-15.352,7.7,7.7,0,0,0-7.719-7.676,7.7,7.7,0,0,0,0,0Z"/>
    </g>
  </g>
  <g id="그룹_567" data-name="그룹 567" transform="translate(306.957 81.029)">
    <path id="패스_929" data-name="패스 929" class="cls-16" d="M0,0,3.149,3.871,7.975-3.805"/>
  </g>
  <path id="패스_930" data-name="패스 930" class="cls-18" d="M481.719-227.82h38.046v-23.961H481.719Z" transform="translate(0 311.956)"/>
  <g id="그룹_570" data-name="그룹 570" class="cls-2" transform="translate(0 311.956)">
    <g id="그룹_568" data-name="그룹 568" transform="translate(518.485 -244.977)">
      <path id="패스_931" data-name="패스 931" class="cls-14" d="M0,0A7.258,7.258,0,0,0,7.211-7.3,7.258,7.258,0,0,0,0-14.609,7.257,7.257,0,0,0-7.211-7.3,7.258,7.258,0,0,0,0,0"/>
    </g>
    <g id="그룹_569" data-name="그룹 569" transform="translate(518.485 -244.977)">
      <path id="패스_932" data-name="패스 932" class="cls-19" d="M0,0A7.258,7.258,0,0,0,7.211-7.3,7.258,7.258,0,0,0,0-14.609,7.257,7.257,0,0,0-7.211-7.3,7.258,7.258,0,0,0,0,0Z"/>
    </g>
  </g>
  <path id="패스_934" data-name="패스 934" class="cls-16" d="M480.361-229.055h38.046v-23.961H480.361Z" transform="translate(0 311.956)"/>
  <g id="그룹_571" data-name="그룹 571" transform="translate(480.553 82.667)">
    <path id="패스_935" data-name="패스 935" class="cls-19" d="M0,0,18.831-15.5,37.662,0"/>
  </g>
  <g id="그룹_572" data-name="그룹 572" transform="translate(480.553 59.339)">
    <path id="패스_936" data-name="패스 936" class="cls-20" d="M0,0,18.831,15.5,37.662,0"/>
  </g>
  <g id="그룹_575" data-name="그룹 575" class="cls-2" transform="translate(0 311.956)">
    <g id="그룹_573" data-name="그룹 573" transform="translate(517.127 -246.207)">
      <path id="패스_937" data-name="패스 937" class="cls-17" d="M0,0A7.261,7.261,0,0,0,7.211-7.309,7.258,7.258,0,0,0,0-14.613a7.258,7.258,0,0,0-7.211,7.3A7.261,7.261,0,0,0,0,0"/>
    </g>
    <g id="그룹_574" data-name="그룹 574" transform="translate(517.127 -246.207)">
      <path id="패스_938" data-name="패스 938" class="cls-19" d="M0,0A7.261,7.261,0,0,0,7.211-7.309,7.258,7.258,0,0,0,0-14.613a7.258,7.258,0,0,0-7.211,7.3A7.261,7.261,0,0,0,0,0Z"/>
    </g>
  </g>
  <g id="그룹_576" data-name="그룹 576" transform="translate(514.705 62.915)">
    <path id="패스_940" data-name="패스 940" class="cls-14" d="M0,0,6.721-4.467.209-8.615,1.254-4.359Z"/>
  </g>
  <g id="그룹_577" data-name="그룹 577" transform="translate(514.705 62.915)">
    <path id="패스_941" data-name="패스 941" class="cls-21" d="M0,0,6.721-4.467.209-8.615,1.254-4.359Z"/>
  </g>
  <g id="그룹_578" data-name="그룹 578" transform="translate(510.9 55.597)">
    <path id="패스_942" data-name="패스 942" class="cls-19" d="M0,0H-18"/>
  </g>
  <g id="그룹_579" data-name="그룹 579" transform="translate(512.433 53.097)">
    <path id="패스_943" data-name="패스 943" class="cls-19" d="M0,0H-11.732"/>
  </g>
  <path id="패스_944" data-name="패스 944" class="cls-18" d="M682.441-224.449H729.7v-29.41H682.441Z" transform="translate(0 311.956)"/>
  <path id="패스_945" data-name="패스 945" class="cls-16" d="M680.641-225.449H727.9v-29.41H680.641Z" transform="translate(0 311.956)"/>
  <g id="그룹_580" data-name="그룹 580" transform="translate(700.174 61.214)">
    <path id="패스_946" data-name="패스 946" class="cls-15" d="M0,0H8.188"/>
  </g>
  <g id="그룹_581" data-name="그룹 581" transform="translate(695.576 63.565)">
    <path id="패스_947" data-name="패스 947" class="cls-15" d="M0,0H17.384"/>
  </g>
  <path id="패스_948" data-name="패스 948" class="cls-16" d="M685.949-231.711h9.615v-11.871h-9.615Z" transform="translate(0 311.956)"/>
  <path id="패스_949" data-name="패스 949" class="cls-16" d="M700.635-231.711h9.615v-11.871h-9.615Z" transform="translate(0 311.956)"/>
  <path id="패스_950" data-name="패스 950" class="cls-16" d="M713.393-231.711h9.615v-11.871h-9.615Z" transform="translate(0 311.956)"/>
  <g id="그룹_588" data-name="그룹 588" class="cls-2" transform="translate(0 311.956)">
    <g id="그룹_582" data-name="그룹 582" transform="translate(97.073 -244.59)">
      <path id="패스_951" data-name="패스 951" class="cls-22" d="M0,0A5.359,5.359,0,0,1-5.329-5.389,5.358,5.358,0,0,1,0-10.775,5.358,5.358,0,0,1,5.329-5.389,5.359,5.359,0,0,1,0,0"/>
    </g>
    <g id="그룹_583" data-name="그룹 583" transform="translate(109.229 -222.223)">
      <path id="패스_952" data-name="패스 952" class="cls-22" d="M0,0C-.013-2.621-.026-8.25-.026-12.59c0-6.027-6.906-5.3-6.906-5.3H-17.35s-6.935-.73-6.935,5.3c0,4.34-.013,9.969-.027,12.59Z"/>
    </g>
    <g id="그룹_584" data-name="그룹 584" transform="translate(95.558 -245.313)">
      <path id="패스_953" data-name="패스 953" class="cls-17" d="M0,0A5.394,5.394,0,0,1-5.364-5.422,5.394,5.394,0,0,1,0-10.844,5.394,5.394,0,0,1,5.364-5.422,5.394,5.394,0,0,1,0,0"/>
    </g>
    <g id="그룹_585" data-name="그룹 585" transform="translate(95.558 -245.313)">
      <path id="패스_954" data-name="패스 954" class="cls-23" d="M0,0A5.394,5.394,0,0,1-5.364-5.422,5.394,5.394,0,0,1,0-10.844,5.394,5.394,0,0,1,5.364-5.422,5.394,5.394,0,0,1,0,0Z"/>
    </g>
    <g id="그룹_586" data-name="그룹 586" transform="translate(107.749 -224.461)">
      <path id="패스_955" data-name="패스 955" class="cls-17" d="M0,0C-.013-2.629-.026-8.281-.026-12.637c0-6.05-6.926-5.316-6.926-5.316H-17.4s-6.955-.734-6.955,5.316c0,4.356-.014,10.008-.027,12.637Z"/>
    </g>
    <g id="그룹_587" data-name="그룹 587" transform="translate(107.749 -224.461)">
      <path id="패스_956" data-name="패스 956" class="cls-23" d="M0,0C-.013-2.629-.026-8.281-.026-12.637c0-6.05-6.926-5.316-6.926-5.316H-17.4s-6.955-.734-6.955,5.316c0,4.356-.014,10.008-.027,12.637Z"/>
    </g>
  </g>
  <g id="그룹_589" data-name="그룹 589" transform="translate(102.477 87.394)">
    <path id="패스_958" data-name="패스 958" class="cls-23" d="M0,0V-11.34"/>
  </g>
  <g id="그룹_590" data-name="그룹 590" transform="translate(88.823 76.081)">
    <path id="패스_959" data-name="패스 959" class="cls-23" d="M0,0,.15,11.285"/>
  </g>
  <g id="그룹_591" data-name="그룹 591" transform="translate(110.289 57.874)">
    <path id="패스_960" data-name="패스 960" class="cls-24" d="M0,0,8.45-2.641"/>
  </g>
  <g id="그룹_592" data-name="그룹 592" transform="translate(110.289 65.034)">
    <path id="패스_961" data-name="패스 961" class="cls-24" d="M0,0,8.45,2.641"/>
  </g>
  <g id="그룹_593" data-name="그룹 593" transform="translate(110.252 61.296)">
    <path id="패스_962" data-name="패스 962" class="cls-24" d="M0,0H8.748"/>
  </g>
</svg>
