<svg id="구성_요소_71_1" data-name="구성 요소 71 – 1" xmlns="http://www.w3.org/2000/svg" xmlns:xlink="http://www.w3.org/1999/xlink" width="818.692" height="315.736" viewBox="0 0 818.692 315.736">
  <defs>
    <style>
      .cls-1, .cls-11, .cls-14, .cls-16, .cls-19, .cls-20, .cls-21, .cls-23, .cls-3, .cls-4 {
        fill: none;
      }

      .cls-2 {
        clip-path: url(#clip-path);
      }

      .cls-11, .cls-14, .cls-3, .cls-4 {
        stroke: #5e6366;
        stroke-width: 0.99px;
      }

      .cls-14, .cls-21, .cls-3, .cls-4 {
        stroke-linecap: round;
        stroke-linejoin: round;
      }

      .cls-3 {
        stroke-dasharray: 0 2.993;
      }

      .cls-5 {
        fill: #a0c0ea;
      }

      .cls-6, .cls-7, .cls-8 {
        fill: #595b60;
      }

      .cls-7, .cls-8 {
        font-size: 15px;
        font-family: NotoSansKR-Medium, Noto Sans KR;
        font-weight: 500;
      }

      .cls-10, .cls-7 {
        letter-spacing: -0.02em;
      }

      .cls-10, .cls-9 {
        fill: #1e2323;
      }

      .cls-10 {
        font-size: 16px;
        font-family: NotoSansKR-Light, Noto Sans KR;
        font-weight: 300;
      }

      .cls-12 {
        fill: #132d53;
      }

      .cls-13, .cls-17, .cls-24 {
        fill: #fff;
      }

      .cls-14 {
        stroke-dasharray: 0 2.923;
      }

      .cls-15, .cls-18, .cls-22 {
        fill: #393c41;
      }

      .cls-16, .cls-17, .cls-18, .cls-21, .cls-22, .cls-23, .cls-24 {
        stroke: #393c41;
      }

      .cls-19 {
        stroke: #1e2323;
      }

      .cls-20 {
        stroke: #2b2e34;
      }

      .cls-22, .cls-23, .cls-24 {
        stroke-miterlimit: 10;
      }
    </style>
    <clipPath id="clip-path">
      <path id="패스_971" data-name="패스 971" class="cls-1" d="M0,0H818.692V-315.736H0Z"/>
    </clipPath>
  </defs>
  <g id="그룹_602" data-name="그룹 602" class="cls-2" transform="translate(0 315.736)">
    <g id="그룹_595" data-name="그룹 595" transform="translate(14.181 -223.836)">
      <path id="패스_964" data-name="패스 964" class="cls-3" d="M0,0A85.745,85.745,0,0,0,84.2,82.735"/>
    </g>
    <g id="그룹_596" data-name="그룹 596" transform="translate(102.867 -141.139)">
      <path id="패스_965" data-name="패스 965" class="cls-3" d="M0,0A85.745,85.745,0,0,0,82.739-84.193"/>
    </g>
    <g id="그룹_597" data-name="그룹 597" transform="translate(39.374 -287.587)">
      <path id="패스_966" data-name="패스 966" class="cls-4" d="M60.5,146.5h0m85.745-85.741h0"/>
    </g>
    <g id="그룹_598" data-name="그룹 598" transform="translate(99.875 -158.667)">
      <path id="패스_967" data-name="패스 967" class="cls-5" d="M0,0A68.166,68.166,0,0,0,68.166-68.166,68.166,68.166,0,0,0,0-136.332,68.166,68.166,0,0,0-68.166-68.166,68.166,68.166,0,0,0,0,0"/>
    </g>
    <g id="그룹_599" data-name="그룹 599" transform="translate(503.501 -158.667)">
      <path id="패스_968" data-name="패스 968" class="cls-5" d="M0,0A68.166,68.166,0,0,0,68.166-68.166,68.166,68.166,0,0,0,0-136.332,68.166,68.166,0,0,0-68.166-68.166,68.166,68.166,0,0,0,0,0"/>
    </g>
    <g id="그룹_600" data-name="그룹 600" transform="translate(301.627 -158.667)">
      <path id="패스_969" data-name="패스 969" class="cls-5" d="M0,0A68.166,68.166,0,0,0,68.166-68.166,68.166,68.166,0,0,0,0-136.332,68.166,68.166,0,0,0-68.166-68.166,68.166,68.166,0,0,0,0,0"/>
    </g>
    <g id="그룹_601" data-name="그룹 601" transform="translate(705.253 -158.667)">
      <path id="패스_970" data-name="패스 970" class="cls-5" d="M0,0A68.166,68.166,0,0,0,68.166-68.166,68.166,68.166,0,0,0,0-136.332,68.166,68.166,0,0,0-68.166-68.166,68.166,68.166,0,0,0,0,0"/>
    </g>
  </g>
  <g id="그룹" transform="translate(0 315.736)">
    <path id="패스_1365" data-name="패스 1365" class="cls-6" d="M10.125-9.8A29.157,29.157,0,0,1,9.6-3.6l1.56.165a31.014,31.014,0,0,0,.525-6.36V-11.13H2.04v1.26h8.085ZM6.885-1.89V-6.66H5.325v4.77H.765V-.615h12.24V-1.89Zm7.95-9.525v1.245h3.72c-.255,2.085-1.65,3.69-4.32,4.74l.735,1.11c3.48-1.4,5.175-3.765,5.175-7.1Zm1.68,8.835H24.18V1.17h1.545V-3.825h-9.21Zm7.74-9.81V-9.1h-1.5v-3.03H21.3V-4.5h1.455V-7.845h1.5V-4.44h1.47v-7.95Zm7.62,2.745H34.11V-10.92H27.99v1.275h2.385v.975c0,2.415-.9,4.86-2.82,6.06l.93,1.14A6.713,6.713,0,0,0,31.14-5.46a6.165,6.165,0,0,0,2.6,3.66l.9-1.125c-1.89-1.1-2.76-3.435-2.76-5.745Zm3.24,2.01H33.12v1.26h1.995V.5H36.57v-12.63H35.115Zm2.73-4.77V1.14h1.47V-12.405Zm6.33,4.44H50.6v2.22h-6.42Zm3.975,6.2V-4.5h3.975v-6.99H50.6v2.28h-6.42v-2.28h-1.53V-4.5H46.6v2.73h-5.34V-.5h12.27V-1.77Z" transform="translate(71.78 -201.212)"/>
    <path id="패스_1366" data-name="패스 1366" class="cls-6" d="M4.875-9.645H7.11V-10.92H.99v1.275H3.375v.975c0,2.415-.9,4.86-2.82,6.06l.93,1.14A6.713,6.713,0,0,0,4.14-5.46a6.165,6.165,0,0,0,2.6,3.66l.9-1.125c-1.89-1.1-2.76-3.435-2.76-5.745Zm3.24,2.01H6.12v1.26H8.115V.5H9.57v-12.63H8.115Zm2.73-4.77V1.14h1.47V-12.405Zm6.33,4.44h6.42v2.22h-6.42Zm3.975,6.2V-4.5h3.975v-6.99h-1.53v2.28h-6.42v-2.28h-1.53V-4.5H19.6v2.73h-5.34V-.5h12.27V-1.77Zm14.43-9.495H34.035v2.22A6.856,6.856,0,0,1,30.6-2.94l.945,1.245a7,7,0,0,0,3.27-4.245,6.747,6.747,0,0,0,3.12,3.99l.945-1.23a6.573,6.573,0,0,1-3.3-5.865ZM43.44-7.02H41.325v-5.37H39.78V1.155h1.545v-6.9H43.44Zm8.91-3.945H49.125v-1.53H47.58v1.53H44.355v1.23H52.35Zm-5.8,4.215c0-.8.72-1.275,1.8-1.275s1.815.48,1.815,1.275c0,.765-.735,1.26-1.815,1.26S46.545-5.985,46.545-6.75Zm5.085,0c0-1.47-1.32-2.415-3.285-2.415S45.06-8.22,45.06-6.75s1.335,2.4,3.285,2.4S51.63-5.295,51.63-6.75ZM50.6-.03c-1.86,0-2.94-.405-2.94-1.2,0-.78,1.08-1.185,2.94-1.185s2.94.4,2.94,1.185C53.535-.435,52.455-.03,50.6-.03Zm0-3.57c-2.76,0-4.47.885-4.47,2.37,0,1.5,1.71,2.385,4.47,2.385s4.47-.885,4.47-2.385C55.065-2.715,53.355-3.6,50.6-3.6Zm4.32-5.16v-3.63H53.37v8.655h1.545v-3.75h1.92V-8.76Z" transform="translate(272.555 -201.212)"/>
    <text id="_" data-name=" " class="cls-7" transform="translate(330.755 -201.212)"><tspan x="0" y="0"> </tspan></text>
    <text id="_2" data-name=" " class="cls-8" transform="translate(334.355 -201.212)"><tspan x="0" y="0"> </tspan></text>
    <path id="패스_1367" data-name="패스 1367" class="cls-6" d="M8.73-11.25H5.655v-1.26H4.1v1.26H.99v1.125H8.73ZM3.09-7.68c0-.615.69-.99,1.77-.99s1.77.375,1.77.99-.69.96-1.77.96S3.09-7.08,3.09-7.68ZM9.1-5.19c-1.1.165-2.28.24-3.45.3v-.84c1.5-.18,2.43-.885,2.43-1.95C8.085-8.94,6.81-9.7,4.86-9.7S1.635-8.94,1.635-7.68c0,1.065.93,1.785,2.46,1.95v.9c-1.245.03-2.43.03-3.45.03l.18,1.23a51.07,51.07,0,0,0,8.4-.54ZM2.325-1.395h7.5V1.17H11.37v-3.8H2.325ZM13.23-8.385H11.37v-3.99H9.825v9.15H11.37V-7.11h1.86Zm12.195-4H23.88v9.84h1.545ZM16.035-8.1a1.976,1.976,0,0,1,2.085-2.055A1.984,1.984,0,0,1,20.2-8.1,1.993,1.993,0,0,1,18.12-6.045,1.985,1.985,0,0,1,16.035-8.1Zm5.67,0a3.389,3.389,0,0,0-3.585-3.39,3.4,3.4,0,0,0-3.6,3.39,3.411,3.411,0,0,0,3.6,3.39A3.4,3.4,0,0,0,21.7-8.1ZM18.135-.36V-3.54h-1.56V.9h9.24V-.36Z" transform="translate(288.005 -180.212)"/>
    <path id="패스_1368" data-name="패스 1368" class="cls-6" d="M10.44-9.345v1.4H7.125v1.2H10.44v1.23h1.545v-6.87H10.44v1.845h-2.8a6.638,6.638,0,0,0,.1-1.245H1.68v1.245H6.03C5.82-8.655,4.155-7.17.945-6.48l.54,1.26C4.47-5.895,6.465-7.275,7.3-9.345ZM4.74-.21V-1.455h7.245v-3.51H3.165v1.23H10.44V-2.61H3.195V1.035H12.36V-.21ZM21.36-4.77a31.647,31.647,0,0,0,.375-5.3v-.9H14.85V-9.72h5.37A28.238,28.238,0,0,1,19.845-4.9ZM18.33-7.08H16.815V-3c-.945.015-1.86.03-2.685.03L14.3-1.695A52.259,52.259,0,0,0,22.56-2.22l-.075-1.14c-1.32.18-2.745.255-4.155.315Zm8.43.255h-2V-12.39H23.2V1.155h1.56V-5.52h2ZM32.52-8.1A1.981,1.981,0,0,1,34.6-10.14a1.993,1.993,0,0,1,2.1,2.04,2,2,0,0,1-2.1,2.055A1.984,1.984,0,0,1,32.52-8.1Zm5.7,0A3.394,3.394,0,0,0,34.6-11.475a3.39,3.39,0,0,0-3.6,3.375,3.4,3.4,0,0,0,3.6,3.39A3.406,3.406,0,0,0,38.22-8.1ZM34.4-3.48h-1.56V.9h9.12V-.36H34.4Zm7.02-4.89v-4.02H39.87v9.93h1.545V-7.095h1.92V-8.37Zm5.07-2.46H44.94v8.565h.9a26.024,26.024,0,0,0,4.785-.405L50.46-3.99a25.137,25.137,0,0,1-3.975.405Zm7.9-1.56v5.385h-1.6V-12.12H51.33V.48h1.455V-5.73h1.6V1.155h1.47V-12.39Z" transform="translate(476.405 -201.017)"/>
    <path id="패스_1369" data-name="패스 1369" class="cls-6" d="M5.505-11.265H3.96v2.22A6.856,6.856,0,0,1,.525-2.94L1.47-1.695A7,7,0,0,0,4.74-5.94,6.747,6.747,0,0,0,7.86-1.95l.945-1.23a6.573,6.573,0,0,1-3.3-5.865Zm7.86,4.245H11.25v-5.37H9.7V1.155H11.25v-6.9h2.115Zm2.805.975h3.12v-4.95H14.655v1.26H17.79v2.46H14.685v5.25h.87A27.048,27.048,0,0,0,20.22-2.37L20.1-3.63a24.937,24.937,0,0,1-3.93.33Zm5.445-2.91h-1.62V-7.7h1.62V-5.58h-1.62v1.26h1.62V.48H23.07V-12.15H21.615Zm2.73-3.435V1.14h1.47V-12.39Zm8.64,1.56H31.44v8.565h.9a26.024,26.024,0,0,0,4.785-.405L36.96-3.99a25.137,25.137,0,0,1-3.975.405Zm7.9-1.56v5.385h-1.6V-12.12H37.83V.48h1.455V-5.73h1.6V1.155h1.47V-12.39Zm12.66,5.2h-6.2V-8.91h6.2Zm1.545-4.68H53.55v1.71h-6.2v-1.71H45.81V-5.94H55.1ZM56.61-4.47H44.325v1.245H49.65v4.4h1.545v-4.4H56.61Z" transform="translate(676.16 -201.212)"/>
    <text id="_3" data-name=" " class="cls-7" transform="translate(734.36 -201.212)"><tspan x="0" y="0"> </tspan></text>
    <text id="_4" data-name=" " class="cls-8" transform="translate(737.96 -201.212)"><tspan x="0" y="0"> </tspan></text>
    <path id="패스_1370" data-name="패스 1370" class="cls-6" d="M11.115-7.005a12.827,12.827,0,0,0,.375-3.6v-1.14H2.19V-10.5H9.96A12.081,12.081,0,0,1,9.6-7.17ZM6.84-.03C4.83-.03,3.6-.525,3.6-1.38S4.83-2.715,6.84-2.715c1.995,0,3.2.495,3.2,1.335S8.835-.03,6.84-.03Zm0-3.87c-2.925,0-4.77.96-4.77,2.52C2.07.2,3.915,1.155,6.84,1.155c2.88,0,4.74-.96,4.74-2.535C11.58-2.94,9.72-3.9,6.84-3.9Zm.3-2.295v-2.49H5.58v2.49H.78V-4.95H12.99V-6.195ZM20.37-10.65c1.935,0,3.21.66,3.21,1.74s-1.275,1.755-3.21,1.755-3.225-.66-3.225-1.755S18.42-10.65,20.37-10.65Zm0,4.74c2.85,0,4.8-1.17,4.8-3,0-1.815-1.95-2.985-4.8-2.985s-4.815,1.17-4.815,2.985C15.555-7.08,17.5-5.91,20.37-5.91Zm6.165,1.155H14.25V-3.48h3V1.155h1.575V-3.48h3.09V1.155H23.49V-3.48h3.06Z" transform="translate(691.61 -180.212)"/>
  </g>
  <g id="그룹-2" data-name="그룹" transform="translate(0 315.736)">
    <path id="패스_1374" data-name="패스 1374" class="cls-9" d="M7.312-11.968c2.384,0,4.032.832,4.032,2.064,0,1.248-1.648,2.064-4.032,2.064s-4-.816-4-2.064C3.312-11.136,4.928-11.968,7.312-11.968Zm0,4.848c2.976,0,4.912-1.056,4.912-2.784s-1.936-2.768-4.912-2.768c-2.96,0-4.88,1.04-4.88,2.768S4.352-7.12,7.312-7.12ZM3.392-3.1H2.544V.768H12.4V.048H3.392ZM.912-5.84v.72H5.44V-1.9h.848V-5.12H9.456V-1.9H10.3V-5.12H13.76v-.72ZM17.008-3.1V-6.9h5.6v-4.816h-6.5v.736h5.664v3.36H16.16v5.232H17.3a43.683,43.683,0,0,0,7.248-.528l-.08-.72A44.652,44.652,0,0,1,17.3-3.1ZM26-13.088V1.136h.848V-13.088Zm10.9,2.512h2.832v-.72H33.136v.72H36.08v1.648A7.665,7.665,0,0,1,32.816-2.48l.56.64A7.79,7.79,0,0,0,36.5-6.672a7.345,7.345,0,0,0,3.04,4.5l.544-.64A7.232,7.232,0,0,1,36.9-8.928Zm4.352,2.72h-2.64v.736h2.64V.336h.816V-12.7h-.816ZM44.1-13.088V1.12h.832V-13.088Zm5.7,4.528H57.76v2.992H49.792ZM54.176-1.5V-4.848h4.416v-7.184H57.76V-9.28H49.792v-2.752h-.848v7.184h4.384V-1.5h-6v.72H60.24V-1.5ZM73.632-13.088h-.816V-2.416h.816ZM70.08-2.816H70.9v-9.952H70.08V-9.3H67.536v.72H70.08ZM68.736-5.632A4.791,4.791,0,0,1,65.76-9.808v-2.256h-.8v2.256A5.549,5.549,0,0,1,61.9-5.248l.48.672A6.135,6.135,0,0,0,65.36-8.16a5.506,5.506,0,0,0,2.912,3.2ZM65.392.048V-3.744h-.848V.768h9.568V.048ZM77.648-3.136V-6.992h5.024v-.72H77.648v-3.3H83.36v-.736H76.8v9.328h1.056a32.366,32.366,0,0,0,6.592-.48l-.08-.72a30.366,30.366,0,0,1-6.512.48ZM86.864-13.1v5.568H83.6V-6.8h3.264V1.136h.848V-13.1ZM97.376-1.472V-4.464h4.7v-.72H93.056V-7.92h8.688v-4.032H92.176v.7h8.736v2.624H92.224v4.16h4.3v2.992h-6v.736H103.44v-.736ZM118.448-10.1a30.4,30.4,0,0,1-.512,6.3l.864.128a33.1,33.1,0,0,0,.5-6.432V-11.52h-9.728v.7h8.88Zm-4.176,8.32v-5.2h-.832v5.2h-5.264v.72h12.848v-.72Zm9.008-10.208v.7H127.9c-.192,2.624-2.064,4.816-5.136,6.144l.464.624c3.52-1.552,5.536-4.208,5.536-7.472Zm1.84,8.752h8.5V1.12h.848V-3.952H125.12Zm8.528-9.84v3.728H131.36v-3.472h-.816v8.032h.816v-3.84h2.288v3.936h.816v-8.384Z" transform="translate(30.501 -91.866)"/>
    <text id="_5" data-name=" " class="cls-10" transform="translate(167.359 -91.866)"><tspan x="0" y="0"> </tspan></text>
    <path id="패스_1375" data-name="패스 1375" class="cls-9" d="M4.864-10.576H7.7v-.72H1.1v.72H4.048v1.648A7.665,7.665,0,0,1,.784-2.48l.56.64a7.79,7.79,0,0,0,3.12-4.832,7.345,7.345,0,0,0,3.04,4.5l.544-.64A7.232,7.232,0,0,1,4.864-8.928Zm4.352,2.72H6.576v.736h2.64V.336h.816V-12.7H9.216Zm2.848-5.232V1.12H12.9V-13.088Zm5.7,4.528h7.968v2.992H17.76ZM22.144-1.5V-4.848H26.56v-7.184h-.832V-9.28H17.76v-2.752h-.848v7.184H21.3V-1.5h-6v.72H28.208V-1.5Zm17.9-8.992H31.392V-7.68h9.744v-.656H32.224V-9.872H40.88v-2.72H31.36v.656h8.688Zm-7.9,9.056h8.784v-2.8H31.28v.656h8.832v1.5H31.328V.88h10.1V.208h-9.28ZM29.68-6.352v.672H42.592v-.672Zm25.9.144c-1.92-.72-3.568-2.512-3.568-4.464v-.736h3.328v-.72H47.792v.72h3.392v.752a5.528,5.528,0,0,1-3.712,4.8l.448.672a6.318,6.318,0,0,0,3.7-3.84,6.2,6.2,0,0,0,3.552,3.488ZM58.064.176h-7.2v-2.1h7.2Zm0-2.8h-7.2V-4.656h-.848V.9H58.9V-4.656h-.832ZM58.048-13.1v3.6H54.864v.72h3.184v3.392H58.9V-13.1ZM73.824-7.472c-2.128-.352-5.216-2.016-5.216-4.192v-.88h-.88v.88c0,2.24-3.056,3.84-5.232,4.192l.368.7c2-.384,4.464-1.616,5.312-3.5.848,1.856,3.328,3.12,5.3,3.5Zm.768,2.544H61.728v.72h5.984V1.1h.848V-4.208h6.016ZM85.664-6.5H80.912V-9.232h4.752Zm.832-5.84h-.832v2.4H80.912v-2.4h-.848v6.56H86.5Zm-4,9.152h7.968V-3.9H81.648V.9H90.72V.176H82.5ZM90.32-9.568V-13.1h-.848v8.336h.848V-8.832h2.224v-.736Zm15.5,1.184c-2.112-.288-5.2-1.84-5.2-3.792v-.768H99.76v.768c0,2.016-3.04,3.488-5.2,3.792L94.9-7.7c2-.336,4.464-1.472,5.3-3.232.848,1.728,3.312,2.9,5.3,3.232ZM104.064.192H96.3V-1.952h7.76Zm0-2.832H96.3V-4.592h-.832V.9H104.9V-4.592h-.832ZM93.76-6.464v.72h12.848v-.72ZM110-3.392v-8.3h-.832V-2.64h1.1a33.5,33.5,0,0,0,6.976-.7l-.128-.736a32.277,32.277,0,0,1-6.848.688Zm8.816-9.7V1.12h.848V-13.088Zm5.248,9.856V-10.96h5.728v-.72h-6.576V-2.5h1.072a33.97,33.97,0,0,0,6.816-.512l-.112-.736a33.7,33.7,0,0,1-6.7.512Zm11.808-4.032h-2.5v-5.824h-.848V1.136h.848v-7.68h2.5ZM138.064.208a.821.821,0,0,0,.816-.864.826.826,0,0,0-.816-.88.826.826,0,0,0-.816.88A.821.821,0,0,0,138.064.208Z" transform="translate(28.664 -67.124)"/>
    <text id="_6" data-name=" " class="cls-10" transform="translate(169.18 -67.124)"><tspan x="0" y="0"> </tspan></text>
    <path id="패스_1376" data-name="패스 1376" class="cls-9" d="M3.872,3.088,4.448,2.8A14.712,14.712,0,0,1,2.336-4.928a14.753,14.753,0,0,1,2.112-7.728l-.576-.3A14.754,14.754,0,0,0,1.536-4.928,14.7,14.7,0,0,0,3.872,3.088Zm8.16-14.864c2.368,0,4.016.96,4.016,2.352,0,1.408-1.648,2.384-4.016,2.384-2.352,0-4-.976-4-2.384C8.032-10.816,9.68-11.776,12.032-11.776Zm0,5.44c2.928,0,4.88-1.2,4.88-3.088,0-1.872-1.952-3.056-4.88-3.056-2.912,0-4.864,1.184-4.864,3.056C7.168-7.536,9.12-6.336,12.032-6.336Zm6.48,1.488H5.616v.72H11.6V1.1h.848V-4.128h6.064Zm12.24,2.4H31.6V-13.1h-.848v2.816H27.984v.72h2.768v1.936H27.984v.7h2.768Zm-7.856-8.7h2.64V-5.76c-.9.064-1.776.08-2.64.1ZM28.56-6c-.7.1-1.44.16-2.192.208v-5.36h1.6v-.72H20.5v.72h1.568v5.5c-.7.016-1.376.016-1.984.016l.128.752a57.991,57.991,0,0,0,8.4-.464ZM23.536.048V-3.376h-.848V.768h9.328V.048ZM49.488-6.224H45.216v-4.72H49.3v-.72H44.368V-5.5h5.12Zm-5.824-.432a16.617,16.617,0,0,1-3.984.432v-4.7H43.5v-.7H38.848V-5.5h.7a18.091,18.091,0,0,0,4.224-.432ZM44.5-1.52V-4.736h-.848V-1.52h-6V-.8h12.9v-.72ZM63.424-8.56h-8.7v-4.016h-.848V-7.84h9.552Zm-8.768,5.2h-.848V.752h9.7V.032H54.656ZM52.048-5.68v.72h12.9v-.72Zm20.064-5.392h2.272v4.7c-.768.048-1.536.08-2.272.1Zm4.848,4.5c-.56.08-1.152.128-1.776.16v-4.656h1.424v-.72H69.92v.72h1.392v4.8c-.592.016-1.168.016-1.664.016l.128.752a51.1,51.1,0,0,0,7.248-.416ZM72.112-3.04h8.64V1.12H81.6V-3.76H72.112Zm8.672-10.048V-9.28H78.56v-3.552h-.832V-4.64h.832v-3.9h2.224v4.016H81.6v-8.56ZM96.208-5.712c-2.016-.4-5.3-2.544-5.3-5.168v-1.136h-.88v1.136c0,2.64-3.232,4.752-5.264,5.168l.4.72c1.888-.5,4.432-2.064,5.312-4.288.88,2.224,3.456,3.808,5.328,4.288ZM84.08-1.632v.72h12.9v-.72Zm18.448-9.888v.72H108.1c-.224,3.456-2.32,6.5-6.16,8.4l.48.672c4.512-2.256,6.512-5.92,6.512-9.792Zm12.464,4.384h-2.464v-5.952h-.848V1.12h.848V-6.4h2.464Zm12.5-1.76H118.8v-3.872h-.848v4.592h9.536ZM122.544.352c-2.432,0-3.984-.7-3.984-1.856s1.552-1.856,3.984-1.856,3.984.7,3.984,1.856S124.976.352,122.544.352Zm0-4.416c-3.008,0-4.832.928-4.832,2.56,0,1.648,1.824,2.56,4.832,2.56s4.832-.912,4.832-2.56C127.376-3.136,125.568-4.064,122.544-4.064Zm-6.4-2.192v.72h12.832v-.72Zm14.64,9.344a14.7,14.7,0,0,0,2.336-8.016,14.754,14.754,0,0,0-2.336-8.032l-.576.3a14.753,14.753,0,0,1,2.112,7.728A14.712,14.712,0,0,1,130.208,2.8Z" transform="translate(30.897 -42.382)"/>
    <path id="패스_1380" data-name="패스 1380" class="cls-9" d="M5.568-9.824H8.912v-.72H5.584V-12.88H4.736v2.336H1.344v.72H4.752V-8.4A7.07,7.07,0,0,1,1.008-2.368L1.52-1.7A7.809,7.809,0,0,0,5.168-6.448a7.443,7.443,0,0,0,3.68,4.464L9.36-2.64A6.761,6.761,0,0,1,5.568-8.4Zm6.048-3.264v5.824H8.224v.736h3.392V1.12h.848V-13.088ZM17.008-3.1V-6.9h5.6v-4.816h-6.5v.736h5.664v3.36H16.16v5.232H17.3a43.683,43.683,0,0,0,7.248-.528l-.08-.72A44.652,44.652,0,0,1,17.3-3.1ZM26-13.088V1.136h.848V-13.088ZM40.432-10.16v1.984H36.368v.7h4.064V-5.76h.848v-7.328h-.848v2.224H36.816a5.883,5.883,0,0,0,.176-1.424H30.656v.72H36.08c-.192,2.608-2.528,4.512-6.1,5.408l.32.7c3.136-.8,5.44-2.416,6.3-4.7ZM33.152.272v-2.1H41.28V-5.04H32.272v.72h8.176v1.808H32.32V.976h9.536v-.7Zm18.272-5.44a35.552,35.552,0,0,0,.432-5.76v-.528h-7.1v.7h6.272a33.644,33.644,0,0,1-.448,5.5Zm-3.36-2.224h-.832v4.464c-1.168.032-2.288.032-3.3.032l.144.752a66.67,66.67,0,0,0,8.976-.528l-.064-.64a48.574,48.574,0,0,1-4.928.352Zm9.264.368h-2.5V-13.1h-.848V1.12h.848V-6.256h2.5Zm4.384,4.08C60.4-2.944,59.5-4.608,59.5-6.992c0-2.368.9-4.048,2.208-4.048,1.328,0,2.208,1.68,2.208,4.048C63.92-4.608,63.04-2.944,61.712-2.944Zm5.2-4.448H64.72c-.112-2.7-1.264-4.416-3.008-4.416-1.808,0-2.992,1.872-2.992,4.816S59.9-2.176,61.712-2.176c1.76,0,2.912-1.728,3.008-4.5h2.192V.352h.816v-13.1h-.816ZM69.7-13.1V1.12h.816V-13.1Zm7.856,9.792v-7.28h4.464v-.736h-5.3v8.752h.88a23.083,23.083,0,0,0,5.392-.448L82.88-3.76a21.126,21.126,0,0,1-5.3.448ZM87.3-13.088v5.84H84.848v-5.488h-.816V.336h.816V-6.528H87.3V1.1h.832V-13.088ZM94.768-2.944a2.453,2.453,0,0,1-2.576-2.464,2.444,2.444,0,0,1,2.576-2.464,2.453,2.453,0,0,1,2.576,2.464A2.463,2.463,0,0,1,94.768-2.944Zm0-5.664a3.167,3.167,0,0,0-3.376,3.2,3.145,3.145,0,0,0,3.376,3.184,3.145,3.145,0,0,0,3.376-3.184A3.167,3.167,0,0,0,94.768-8.608Zm.4-4.352H94.32v2.224H90.448v.72H98.9v-.72H95.168Zm8.672,5.888h-2.5V-13.1H100.5V1.1h.848V-6.352h2.5Zm8.08,1.856a8.191,8.191,0,0,0,.208-1.84,8.319,8.319,0,0,0-.24-1.984h3.776v3.824Zm-3.248,2.3c-1.568,0-2.656-1.728-2.656-4.144,0-2.432,1.088-4.128,2.656-4.128s2.656,1.7,2.656,4.128C111.328-4.64,110.24-2.912,108.672-2.912Zm6.992-10.176V-9.76h-4.032a3.2,3.2,0,0,0-2.96-2.176c-2.032,0-3.456,1.92-3.456,4.88,0,2.976,1.424,4.88,3.456,4.88A3.266,3.266,0,0,0,111.7-4.5h3.968V1.12h.848V-13.088Zm10.864,2.512h2.832v-.72h-6.592v.72h2.944v1.648a7.665,7.665,0,0,1-3.264,6.448l.56.64a7.79,7.79,0,0,0,3.12-4.832,7.345,7.345,0,0,0,3.04,4.5l.544-.64a7.232,7.232,0,0,1-3.184-6.112Zm4.352,2.72h-2.64v.736h2.64V.336h.816V-12.7h-.816Zm2.848-5.232V1.12h.832V-13.088Z" transform="translate(434.58 -91.882)"/>
    <path id="패스_1381" data-name="패스 1381" class="cls-9" d="M3.36-8.56h7.968v2.992H3.36ZM7.744-1.5V-4.848H12.16v-7.184h-.832V-9.28H3.36v-2.752H2.512v7.184H6.9V-1.5H.9v.72H13.808V-1.5Zm12.1-9.344h3.344v-.736H15.6v.736h3.408v2.384A7.8,7.8,0,0,1,15.12-2.352l.528.7a8.777,8.777,0,0,0,3.776-4.96A8.267,8.267,0,0,0,23.12-2l.5-.688A7.228,7.228,0,0,1,19.84-8.464Zm8.768,3.68h-2.5v-5.92h-.848V1.12h.848V-6.448h2.5Zm4.3,4.224C31.6-2.944,30.7-4.608,30.7-6.992c0-2.368.9-4.048,2.208-4.048,1.328,0,2.208,1.68,2.208,4.048C35.12-4.608,34.24-2.944,32.912-2.944Zm5.2-4.448H35.92c-.112-2.7-1.264-4.416-3.008-4.416-1.808,0-2.992,1.872-2.992,4.816S31.1-2.176,32.912-2.176c1.76,0,2.912-1.728,3.008-4.5h2.192V.352h.816v-13.1h-.816ZM40.9-13.1V1.12h.816V-13.1ZM52.32-7.072H49.3a10.329,10.329,0,0,0,.848-4.144H44.72v.72h4.592a9.829,9.829,0,0,1-5.1,7.84l.544.64A11.243,11.243,0,0,0,48.96-6.368h3.36v6.7h.816V-12.688H52.32Zm2.96-6.016V1.12H56.1V-13.088Zm7.648,4.48a2.681,2.681,0,0,1,2.8-2.688A2.673,2.673,0,0,1,68.5-8.608,2.673,2.673,0,0,1,65.728-5.92,2.681,2.681,0,0,1,62.928-8.608Zm6.4,0a3.4,3.4,0,0,0-3.6-3.44,3.393,3.393,0,0,0-3.616,3.44,3.4,3.4,0,0,0,3.616,3.44A3.406,3.406,0,0,0,69.328-8.608ZM64.864-3.632h-.848v4.4h9.376V.048H64.864ZM72.688-8.64V-13.1H71.84V-2.56h.848V-7.9h2.224V-8.64ZM77.776-11.3h-.848v8.608h.848a25.219,25.219,0,0,0,5.2-.5l-.112-.752a24.016,24.016,0,0,1-5.088.48ZM87.3-13.1v5.968H84.832v-5.616h-.816V.352h.816V-6.384H87.3v7.5h.816V-13.1Zm14.944,1.6H98.464v-1.744h-.848V-11.5H93.824v.7h8.416ZM95.472-7.488c0-1.056,1.024-1.792,2.56-1.792,1.52,0,2.544.736,2.544,1.808,0,1.056-1.024,1.792-2.544,1.792S95.472-6.416,95.472-7.488Zm5.9,0c0-1.52-1.328-2.464-3.344-2.464-2.032,0-3.36.944-3.36,2.48,0,1.52,1.328,2.464,3.36,2.464C100.048-5.008,101.376-5.952,101.376-7.488Zm2.5,7.68H96.8V-1.744h7.072Zm0-2.64H96.8v-1.76h-.848V.9h8.768v-5.1h-.848Zm3.072-6.9H104.72V-13.1h-.848v8.24h.848V-8.608h2.224ZM110-3.392v-8.3h-.832V-2.64h1.1a33.5,33.5,0,0,0,6.976-.7l-.128-.736a32.277,32.277,0,0,1-6.848.688Zm8.816-9.7V1.12h.848V-13.088Zm5.248,9.856V-10.96h5.728v-.72h-6.576V-2.5h1.072a33.97,33.97,0,0,0,6.816-.512l-.112-.736a33.7,33.7,0,0,1-6.7.512Zm11.808-4.032h-2.5v-5.824h-.848V1.136h.848v-7.68h2.5ZM138.064.208a.821.821,0,0,0,.816-.864.826.826,0,0,0-.816-.88.826.826,0,0,0-.816.88A.821.821,0,0,0,138.064.208Z" transform="translate(432.758 -67.14)"/>
    <text id="_7" data-name=" " class="cls-10" transform="translate(573.275 -67.14)"><tspan x="0" y="0"> </tspan></text>
    <path id="패스_1382" data-name="패스 1382" class="cls-9" d="M3.872,3.088,4.448,2.8A14.712,14.712,0,0,1,2.336-4.928a14.753,14.753,0,0,1,2.112-7.728l-.576-.3A14.754,14.754,0,0,0,1.536-4.928,14.7,14.7,0,0,0,3.872,3.088Zm8.16-14.864c2.368,0,4.016.96,4.016,2.352,0,1.408-1.648,2.384-4.016,2.384-2.352,0-4-.976-4-2.384C8.032-10.816,9.68-11.776,12.032-11.776Zm0,5.44c2.928,0,4.88-1.2,4.88-3.088,0-1.872-1.952-3.056-4.88-3.056-2.912,0-4.864,1.184-4.864,3.056C7.168-7.536,9.12-6.336,12.032-6.336Zm6.48,1.488H5.616v.72H11.6V1.1h.848V-4.128h6.064Zm12.24,2.4H31.6V-13.1h-.848v2.816H27.984v.72h2.768v1.936H27.984v.7h2.768Zm-7.856-8.7h2.64V-5.76c-.9.064-1.776.08-2.64.1ZM28.56-6c-.7.1-1.44.16-2.192.208v-5.36h1.6v-.72H20.5v.72h1.568v5.5c-.7.016-1.376.016-1.984.016l.128.752a57.991,57.991,0,0,0,8.4-.464ZM23.536.048V-3.376h-.848V.768h9.328V.048ZM49.488-6.224H45.216v-4.72H49.3v-.72H44.368V-5.5h5.12Zm-5.824-.432a16.617,16.617,0,0,1-3.984.432v-4.7H43.5v-.7H38.848V-5.5h.7a18.091,18.091,0,0,0,4.224-.432ZM44.5-1.52V-4.736h-.848V-1.52h-6V-.8h12.9v-.72ZM63.424-8.56h-8.7v-4.016h-.848V-7.84h9.552Zm-8.768,5.2h-.848V.752h9.7V.032H54.656ZM52.048-5.68v.72h12.9v-.72Zm28.32-7.408V1.12h.848V-13.088Zm-6.544,1.152c-2.08,0-3.536,1.92-3.536,4.88,0,2.976,1.456,4.88,3.536,4.88,2.064,0,3.52-1.9,3.52-4.88C77.344-10.016,75.888-11.936,73.824-11.936Zm0,.752c1.584,0,2.7,1.7,2.7,4.128s-1.12,4.144-2.7,4.144c-1.6,0-2.72-1.712-2.72-4.144S72.224-11.184,73.824-11.184ZM89.168-3.552h-3.7v-7.1h3.7ZM92.5-7.632H89.968v-3.712h-5.3v8.5h5.3V-6.912H92.5V.368h.816v-13.1H92.5Zm2.784-5.456V1.12H96.1V-13.088Zm14.768-.016H109.2V-5.7h.848Zm-10.32,3.68a2.521,2.521,0,0,1,2.752-2.384,2.521,2.521,0,0,1,2.752,2.384A2.511,2.511,0,0,1,102.48-7.04,2.511,2.511,0,0,1,99.728-9.424Zm6.336,0c0-1.84-1.488-3.1-3.584-3.1S98.9-11.264,98.9-9.424s1.488,3.088,3.584,3.088S106.064-7.584,106.064-9.424ZM101.9.192V-1.776h8.144V-4.928h-9.024v.7h8.192v1.776h-8.144V.9h9.536v-.7ZM127.44-8.464h-8.832V-11.7h8.72v-.72h-9.552v4.672h9.664Zm-4.9,8.848c-2.432,0-3.984-.688-3.984-1.84s1.552-1.84,3.984-1.84,3.984.688,3.984,1.84S124.976.384,122.544.384Zm0-4.368c-3.008,0-4.832.912-4.832,2.528,0,1.632,1.824,2.528,4.832,2.528s4.832-.9,4.832-2.528C127.376-3.072,125.552-3.984,122.544-3.984ZM116.128-6.16v.72h12.848v-.72Zm14.656,9.248a14.7,14.7,0,0,0,2.336-8.016,14.754,14.754,0,0,0-2.336-8.032l-.576.3a14.753,14.753,0,0,1,2.112,7.728A14.712,14.712,0,0,1,130.208,2.8Z" transform="translate(434.992 -42.398)"/>
    <path id="패스_1377" data-name="패스 1377" class="cls-9" d="M9.152-6.208c-1.92-.72-3.568-2.512-3.568-4.464v-.736H8.912v-.72H1.36v.72H4.752v.752a5.528,5.528,0,0,1-3.712,4.8l.448.672a6.318,6.318,0,0,0,3.7-3.84A6.2,6.2,0,0,0,8.736-5.536ZM11.632.176h-7.2v-2.1h7.2Zm0-2.8h-7.2V-4.656H3.584V.9h8.88V-4.656h-.832ZM11.616-13.1v3.6H8.432v.72h3.184v3.392h.848V-13.1ZM27.392-7.472c-2.128-.352-5.216-2.016-5.216-4.192v-.88H21.3v.88c0,2.24-3.056,3.84-5.232,4.192l.368.7c2-.384,4.464-1.616,5.312-3.5.848,1.856,3.328,3.12,5.3,3.5Zm.768,2.544H15.3v.72H21.28V1.1h.848V-4.208h6.016ZM31.344-11.3H30.5v8.608h.848a25.219,25.219,0,0,0,5.2-.5l-.112-.752a24.016,24.016,0,0,1-5.088.48Zm9.52-1.808v5.968H38.4v-5.616h-.816V.352H38.4V-6.384h2.464v7.5h.816V-13.1ZM50.528.4C48.1.4,46.544-.272,46.544-1.408c0-1.12,1.552-1.808,3.984-1.808s3.984.688,3.984,1.808C54.512-.272,52.96.4,50.528.4Zm0-4.288c-3.024,0-4.832.88-4.832,2.48s1.808,2.5,4.832,2.5,4.832-.9,4.832-2.5S53.552-3.888,50.528-3.888ZM48.288-7.84a11.43,11.43,0,0,0,2.224.208A12,12,0,0,0,52.8-7.84V-5.9H48.288ZM46.48-10.224c0-1.168,1.584-1.888,4.032-1.888,2.48,0,4.064.72,4.064,1.888s-1.584,1.9-4.064,1.9C48.064-8.32,46.48-9.056,46.48-10.224ZM53.632-5.9V-8.1a2.325,2.325,0,0,0,1.808-2.128c0-1.648-1.872-2.576-4.928-2.576-3.04,0-4.9.928-4.9,2.576A2.345,2.345,0,0,0,47.44-8.08V-5.9H44.112v.72H56.944V-5.9Zm8.08,2.96C60.4-2.944,59.5-4.608,59.5-6.992c0-2.368.9-4.048,2.208-4.048,1.328,0,2.208,1.68,2.208,4.048C63.92-4.608,63.04-2.944,61.712-2.944Zm5.2-4.448H64.72c-.112-2.7-1.264-4.416-3.008-4.416-1.808,0-2.992,1.872-2.992,4.816S59.9-2.176,61.712-2.176c1.76,0,2.912-1.728,3.008-4.5h2.192V.352h.816v-13.1h-.816ZM69.7-13.1V1.12h.816V-13.1Zm7.856,9.792v-7.28h4.464v-.736h-5.3v8.752h.88a23.083,23.083,0,0,0,5.392-.448L82.88-3.76a21.126,21.126,0,0,1-5.3.448ZM87.3-13.088v5.84H84.848v-5.488h-.816V.336h.816V-6.528H87.3V1.1h.832V-13.088ZM94.1-3.04a2.285,2.285,0,0,1-2.24-2.432A2.294,2.294,0,0,1,94.1-7.9a2.3,2.3,0,0,1,2.256,2.432A2.288,2.288,0,0,1,94.1-3.04Zm0-5.584a2.973,2.973,0,0,0-3.008,3.152A2.978,2.978,0,0,0,94.1-2.3,2.972,2.972,0,0,0,97.12-5.472,2.968,2.968,0,0,0,94.1-8.624Zm.432-4.032H93.68v2.176H90.512v.72h7.2v-.72H94.528Zm7.1-.432v6.112H99.376v-5.76h-.832V.368h.832V-6.256h2.256V1.12h.832V-13.088Zm13.9,6.032a19.332,19.332,0,0,0,.4-4.224v-.656h-6.912v.7h6.08a17.585,17.585,0,0,1-.416,4.1Zm1.616,1.008a48.426,48.426,0,0,1-4.912.4V-8.864h-.848v3.248c-1.168.032-2.272.032-3.248.032l.112.752a61.722,61.722,0,0,0,8.96-.56Zm-5.92,2.688h-.848V.768h9.136V.048h-8.288ZM119.056-8.3v-4.784h-.848V-2.352h.848V-7.568h2.24V-8.3ZM133.3-2.656h.848V-13.072H133.3v2.512H130.24v.72H133.3v2.464H130.24v.72H133.3Zm-3.04-3.088a32.992,32.992,0,0,1-6.08.368h-.144V-8.16H129.2v-3.9h-6.048v.7h5.2v2.5h-5.168v4.208h1.008a34.374,34.374,0,0,0,6.16-.368Zm-4.272,5.7V-3.376h-.832V.672h9.472v-.72Z" transform="translate(231.875 -91.898)"/>
    <path id="패스_1378" data-name="패스 1378" class="cls-9" d="M11.232-7.168H3.456v-2.48h7.776Zm.848-5.344h-.848v2.16H3.456v-2.16H2.608v6.064H12.08Zm1.712,7.984H.88v.72h6V1.12h.848V-3.808h6.064Zm6.256-7.248H19.2v2.832a7.911,7.911,0,0,1-3.808,6.3l.544.672a8.613,8.613,0,0,0,3.7-5.088,8.3,8.3,0,0,0,3.76,4.832l.5-.688a7.486,7.486,0,0,1-3.84-6.032Zm5.984-1.312v5.056H22.368v.7h3.664V1.136h.848V-13.088Zm6.88,10.144C31.6-2.944,30.7-4.608,30.7-6.992c0-2.368.9-4.048,2.208-4.048,1.328,0,2.208,1.68,2.208,4.048C35.12-4.608,34.24-2.944,32.912-2.944Zm5.2-4.448H35.92c-.112-2.7-1.264-4.416-3.008-4.416-1.808,0-2.992,1.872-2.992,4.816S31.1-2.176,32.912-2.176c1.76,0,2.912-1.728,3.008-4.5h2.192V.352h.816v-13.1h-.816ZM40.9-13.1V1.12h.816V-13.1Zm7.952,1.328H48v2.832a7.911,7.911,0,0,1-3.808,6.3l.544.672a8.613,8.613,0,0,0,3.7-5.088,8.3,8.3,0,0,0,3.76,4.832l.5-.688a7.486,7.486,0,0,1-3.84-6.032Zm5.984-1.312v5.056H51.168v.7h3.664V1.136h.848V-13.088ZM70.3-11.648h-3.7v-1.568H65.76v1.568H62.048v.672H70.3Zm-6.56,3.44c0-.88.976-1.472,2.432-1.472s2.432.592,2.432,1.472-.976,1.456-2.432,1.456S63.744-7.328,63.744-8.208ZM70.768-5.36a38.976,38.976,0,0,1-4.16.4V-6.144c1.7-.112,2.784-.848,2.784-2.064,0-1.3-1.28-2.1-3.216-2.1-1.952,0-3.232.8-3.232,2.1,0,1.216,1.088,1.952,2.816,2.064v1.216c-1.456.048-2.864.048-4.048.048l.128.72a51.87,51.87,0,0,0,8.992-.56ZM63.424-2.144h8.32V1.12h.848V-2.848H63.424ZM74.848-8.656H72.592v-4.416h-.848v9.424h.848V-7.92h2.256ZM87.7-13.072h-.848v10.48H87.7ZM77.36-8.624A2.674,2.674,0,0,1,80.144-11.3a2.674,2.674,0,0,1,2.784,2.672,2.69,2.69,0,0,1-2.784,2.7A2.69,2.69,0,0,1,77.36-8.624Zm6.384,0a3.385,3.385,0,0,0-3.6-3.424,3.385,3.385,0,0,0-3.6,3.424,3.4,3.4,0,0,0,3.6,3.456A3.4,3.4,0,0,0,83.744-8.624ZM79.616.048V-3.7h-.848V.768h9.408V.048Zm25.7-13.152h-.848V-4.88h.848Zm-5.136,5.952H95.36V-11.44h4.816Zm.816-4.992H94.528v5.7h6.464Zm.432,9.056h4.3v-.688h-4.3V-5.312h-.864v1.536H96.288v.688h4.272v.144c0,1.616-2.784,3.04-4.848,3.328l.3.672c1.936-.336,4.176-1.392,4.976-2.848.784,1.44,2.944,2.512,4.9,2.848l.3-.672c-2.08-.32-4.768-1.728-4.768-3.328ZM112.48-4.752c1.888-.432,4.5-1.92,5.36-4.032.88,2.1,3.5,3.568,5.408,4l.368-.688c-2.032-.352-5.344-2.32-5.344-4.768v-.7h4.944v-.72H112.464v.72h4.944v.7c0,2.448-3.3,4.448-5.312,4.816Zm5.792,3.216V-5.168h-.848v3.632h-6.016v.72h12.88v-.72Zm12.576-8.288H134.3v-.72h-3.44V-12.88h-.848v2.336h-3.488v.72h3.5V-8.4a7.051,7.051,0,0,1-3.824,6.048l.512.656a7.843,7.843,0,0,0,3.728-4.688,7.566,7.566,0,0,0,3.776,4.432l.512-.688a6.677,6.677,0,0,1-3.888-5.76Zm5.632-3.264V1.12h.864V-13.088Z" transform="translate(229.816 -67.156)"/>
    <path id="패스_1379" data-name="패스 1379" class="cls-9" d="M9.376-11.5H5.6v-1.744H4.752V-11.5H.96v.7H9.376ZM2.608-7.488c0-1.056,1.024-1.792,2.56-1.792,1.52,0,2.544.736,2.544,1.808,0,1.056-1.024,1.792-2.544,1.792S2.608-6.416,2.608-7.488Zm5.9,0c0-1.52-1.328-2.464-3.344-2.464-2.032,0-3.36.944-3.36,2.48,0,1.52,1.328,2.464,3.36,2.464C7.184-5.008,8.512-5.952,8.512-7.488Zm2.5,7.68H3.936V-1.744h7.072Zm0-2.64H3.936v-1.76H3.088V.9h8.768v-5.1h-.848Zm3.072-6.9H11.856V-13.1h-.848v8.24h.848V-8.608H14.08Zm3.056,5.952v-8.3H16.3V-2.64h1.1a33.5,33.5,0,0,0,6.976-.7l-.128-.736a32.277,32.277,0,0,1-6.848.688Zm8.816-9.7V1.12H26.8V-13.088ZM31.2-3.232V-10.96h5.728v-.72H30.352V-2.5h1.072a33.97,33.97,0,0,0,6.816-.512l-.112-.736a33.7,33.7,0,0,1-6.7.512ZM43.008-7.264h-2.5v-5.824h-.848V1.136h.848v-7.68h2.5ZM45.2.208a.821.821,0,0,0,.816-.864.826.826,0,0,0-.816-.88.826.826,0,0,0-.816.88A.821.821,0,0,0,45.2.208Z" transform="translate(276.924 -42.414)"/>
    <path id="패스_1383" data-name="패스 1383" class="cls-9" d="M11.232-7.168H3.456v-2.48h7.776Zm.848-5.344h-.848v2.16H3.456v-2.16H2.608v6.064H12.08Zm1.712,7.984H.88v.72h6V1.12h.848V-3.808h6.064Zm9.04-4.72v.72h3.2v3.9h.848v-8.464h-.848v3.84Zm.736,3.328c-1.936-.7-3.584-2.5-3.584-4.432v-.88h3.328v-.72H15.76v.72h3.392v.9a5.554,5.554,0,0,1-3.7,4.832l.432.688A6.422,6.422,0,0,0,19.6-8.7a6.074,6.074,0,0,0,3.536,3.456ZM22.288.4c-2.32,0-3.808-.72-3.808-1.9s1.488-1.9,3.808-1.9,3.824.72,3.824,1.9S24.608.4,22.288.4Zm0-4.5c-2.9,0-4.656.928-4.656,2.592s1.76,2.592,4.656,2.592c2.88,0,4.656-.928,4.656-2.592S25.168-4.1,22.288-4.1ZM38.5-8.3h2.288v4.256H41.6v-9.04h-.816v4.064H38.5v-3.792H37.68v8.24H38.5Zm-1.472-2.944H33.76v-1.744h-.848v1.744h-3.28v.7h7.392Zm-5.92,4c0-1.008.912-1.712,2.224-1.712,1.344,0,2.24.7,2.24,1.728s-.9,1.728-2.24,1.728C32-5.5,31.1-6.208,31.1-7.248Zm5.248,0c0-1.456-1.216-2.384-3.024-2.384-1.776,0-2.992.928-2.992,2.4s1.216,2.4,2.992,2.4C35.136-4.832,36.352-5.76,36.352-7.248ZM37.024.4C34.688.4,33.2-.256,33.2-1.328c0-1.088,1.488-1.728,3.824-1.728,2.352,0,3.824.64,3.824,1.728C40.848-.256,39.376.4,37.024.4Zm0-4.128c-2.912,0-4.656.864-4.656,2.4s1.744,2.4,4.656,2.4c2.928,0,4.656-.864,4.656-2.4S39.952-3.728,37.024-3.728Zm11.744-7.92c1.6,0,2.752.912,2.752,2.128,0,1.232-1.152,2.144-2.752,2.144-1.584,0-2.72-.912-2.72-2.144C46.048-10.736,47.184-11.648,48.768-11.648Zm0,4.992c2.1,0,3.568-1.152,3.568-2.864,0-1.7-1.472-2.848-3.568-2.848-2.08,0-3.536,1.152-3.536,2.848C45.232-7.808,46.688-6.656,48.768-6.656Zm4.864.88a67.887,67.887,0,0,1-9.6.528l.144.752c1.264,0,2.72-.016,4.256-.08V.672h.848v-5.3A41.379,41.379,0,0,0,53.7-5.1Zm1.12-7.3V1.136H55.6V-13.072ZM63.136-12c-2.208,0-3.744,1.312-3.744,3.248S60.928-5.5,63.136-5.5,66.88-6.816,66.88-8.752,65.344-12,63.136-12Zm0,.736a2.653,2.653,0,0,1,2.928,2.512A2.653,2.653,0,0,1,63.136-6.24a2.653,2.653,0,0,1-2.928-2.512A2.653,2.653,0,0,1,63.136-11.264Zm5.92-1.824V1.136H69.9V-13.088ZM58.736-2.144a53.747,53.747,0,0,0,9.392-.592l-.08-.656a63.9,63.9,0,0,1-9.456.512Zm23.7-3.712H77.68V-8.784h4.752Zm.832-6.208h-.832v2.576H77.68v-2.576h-.848v6.928h6.432Zm-4,8.416h-.848V.768h9.376V.048H79.264Zm7.824-4.96v-4.48H86.24V-2.672h.848V-7.888h2.224v-.72Zm4.88,6.1h8.96V1.12h.848V-3.216H91.968Zm1.152-7.744h7.712v1.968H93.12Zm4.272,4.672V-7.568h4.288v-5.216h-.848v1.84H93.12v-1.84h-.848v5.216h4.272v1.984H90.528v.72h12.848v-.72ZM111.36-12.16c2.48,0,4.048.688,4.048,1.808,0,1.136-1.568,1.824-4.048,1.824s-4.048-.688-4.048-1.824C107.312-11.472,108.88-12.16,111.36-12.16Zm0,4.3c3.088,0,4.912-.88,4.912-2.5,0-1.6-1.824-2.48-4.912-2.48s-4.912.88-4.912,2.48C106.448-8.736,108.272-7.856,111.36-7.856Zm-3.952,6.24h8.672V-4.544h-9.536v.688h8.7v1.584h-8.672V.912h9.968v-.7h-9.136Zm-2.48-5.12v.72h12.848v-.72ZM128.608-5.2a8.836,8.836,0,0,0,.176-1.792,8.675,8.675,0,0,0-.176-1.776h2.384V-5.2Zm-2.832,2.256c-1.328,0-2.208-1.664-2.208-4.048,0-2.368.88-4.048,2.208-4.048s2.208,1.68,2.208,4.048C127.984-4.608,127.1-2.944,125.776-2.944Zm5.216-6.544h-2.56a2.889,2.889,0,0,0-2.656-2.32c-1.808,0-2.992,1.872-2.992,4.816s1.184,4.816,2.992,4.816a2.9,2.9,0,0,0,2.656-2.3h2.56V.352h.816v-13.1h-.816ZM133.76-13.1V1.12h.816V-13.1Zm9.5,6.64h-4.752V-9.152h4.752Zm.832-5.744h-.832v2.352h-4.752v-2.352h-.848v6.464H144.1ZM143.44.384c-2.272,0-3.744-.7-3.744-1.872,0-1.136,1.472-1.856,3.744-1.856,2.288,0,3.76.72,3.76,1.856C147.2-.32,145.728.384,143.44.384Zm0-4.432c-2.848,0-4.576.928-4.576,2.56,0,1.648,1.728,2.576,4.576,2.576s4.592-.928,4.592-2.576C148.032-3.12,146.288-4.048,143.44-4.048Zm4.48-5.312v-3.728h-.848v8.624h.848v-4.16h2.224V-9.36Z" transform="translate(630.616 -91.914)"/>
    <path id="패스_1384" data-name="패스 1384" class="cls-9" d="M5.136-2.944A2.453,2.453,0,0,1,2.56-5.408,2.444,2.444,0,0,1,5.136-7.872,2.453,2.453,0,0,1,7.712-5.408,2.463,2.463,0,0,1,5.136-2.944Zm0-5.664a3.167,3.167,0,0,0-3.376,3.2A3.145,3.145,0,0,0,5.136-2.224,3.145,3.145,0,0,0,8.512-5.408,3.167,3.167,0,0,0,5.136-8.608Zm.4-4.352H4.688v2.224H.816v.72H9.264v-.72H5.536Zm8.672,5.888h-2.5V-13.1h-.848V1.1h.848V-6.352h2.5ZM25.584-10.1a30.4,30.4,0,0,1-.512,6.3l.864.128a33.1,33.1,0,0,0,.5-6.432V-11.52H16.7v.7h8.88Zm-4.176,8.32v-5.2h-.832v5.2H15.312v.72H28.16v-.72ZM35.36-11.152h8v5.136h-8ZM39.776-1.52V-5.328h4.4V-11.84H34.544v6.512h4.384V-1.52h-6V-.8H45.84v-.72Zm10.9-1.84H58.1V.176H50.672ZM49.84.9h9.072V-4.048H49.84ZM53.5-6.48H48.96V-9.12H53.5Zm4.56-6.624v3.76H54.336V-12.3H53.5V-9.84H48.96v-2.48h-.848v6.56h6.224V-8.624h3.728v3.776h.848v-8.24Zm8.144,1.312h-.816v2.848A7.863,7.863,0,0,1,61.6-2.672l.528.688a8.721,8.721,0,0,0,3.7-5.008,8.253,8.253,0,0,0,3.68,4.7l.528-.656a7.549,7.549,0,0,1-3.824-6ZM75.04-7.168h-2.5V-13.1H71.7V1.12h.848V-6.448h2.5Zm2.448,3.984V-6.8h4.1v-4.64h-4.96v.72h4.144v3.2H76.656v5.056h.9a31.4,31.4,0,0,0,5.392-.416l-.08-.72a29.089,29.089,0,0,1-5.328.416Zm7.04-6.064H82.464v.72h2.064v2.816H82.464v.72h2.064V.352h.816V-12.8h-.816ZM87.3-13.1V1.12h.832V-13.1ZM100.88-10.5H92.224V-7.68h9.744v-.656H93.056V-9.872h8.656v-2.72h-9.52v.656h8.688Zm-7.9,9.056h8.784v-2.8H92.112v.656h8.832v1.5H92.16V.88h10.1V.208h-9.28ZM90.512-6.352v.672h12.912v-.672ZM115.68-9.024v.72H118.9v5.68h.848V-13.088H118.9v4.064Zm.752,3.376c-1.936-.7-3.584-2.5-3.584-4.432V-11.1h3.328v-.72h-7.552v.72h3.392v1.04A5.507,5.507,0,0,1,108.3-5.28l.448.688a6.428,6.428,0,0,0,3.7-3.856A6.2,6.2,0,0,0,116-4.96Zm-4.72,5.7V-3.584h-.848V.768h9.312V.048Zm13.6-10.768h2.832v7.264c-.944.064-1.92.08-2.832.112Zm3.664,0H130.7v-.72h-7.952v.72h1.728v7.376c-.736.016-1.424.016-2.08.016l.128.752a62.5,62.5,0,0,0,9.04-.5l-.048-.656c-.816.112-1.68.176-2.544.224Zm6.9,3.472h-2.5V-13.1h-.848V1.1h.848V-6.512h2.5Zm5.328,4.3a2.453,2.453,0,0,1-2.576-2.464A2.444,2.444,0,0,1,141.2-7.872a2.453,2.453,0,0,1,2.576,2.464A2.463,2.463,0,0,1,141.2-2.944Zm0-5.664a3.167,3.167,0,0,0-3.376,3.2A3.145,3.145,0,0,0,141.2-2.224a3.145,3.145,0,0,0,3.376-3.184A3.167,3.167,0,0,0,141.2-8.608Zm.4-4.352h-.848v2.224H136.88v.72h8.448v-.72H141.6Zm8.672,5.888h-2.5V-13.1h-.848V1.1h.848V-6.352h2.5Z" transform="translate(630.616 -67.172)"/>
    <path id="패스_1385" data-name="패스 1385" class="cls-9" d="M1.776-11.52v.72h5.68C7.232-7.3,5.072-4.272,1.168-2.384l.464.7C6.208-3.936,8.3-7.552,8.3-11.52Zm9.84-1.568V1.12h.848V-13.088ZM23.2-11.648c1.6,0,2.752.912,2.752,2.128,0,1.232-1.152,2.144-2.752,2.144-1.584,0-2.72-.912-2.72-2.144C20.48-10.736,21.616-11.648,23.2-11.648Zm0,4.992c2.1,0,3.568-1.152,3.568-2.864,0-1.7-1.472-2.848-3.568-2.848-2.08,0-3.536,1.152-3.536,2.848C19.664-7.808,21.12-6.656,23.2-6.656Zm4.864.88a67.887,67.887,0,0,1-9.6.528l.144.752c1.264,0,2.72-.016,4.256-.08V.672h.848v-5.3a41.379,41.379,0,0,0,4.416-.48Zm1.12-7.3V1.136h.848V-13.072ZM36.5-3.04a2.285,2.285,0,0,1-2.24-2.432A2.294,2.294,0,0,1,36.5-7.9a2.3,2.3,0,0,1,2.256,2.432A2.288,2.288,0,0,1,36.5-3.04Zm0-5.584a2.973,2.973,0,0,0-3.008,3.152A2.978,2.978,0,0,0,36.5-2.3,2.972,2.972,0,0,0,39.52-5.472,2.968,2.968,0,0,0,36.5-8.624Zm.432-4.032H36.08v2.176H32.912v.72h7.2v-.72H36.928Zm7.1-.432v6.112H41.776v-5.76h-.832V.368h.832V-6.256h2.256V1.12h.832V-13.088Zm13.9,6.032a19.332,19.332,0,0,0,.4-4.224v-.656H51.424v.7H57.5a17.585,17.585,0,0,1-.416,4.1Zm1.616,1.008a48.426,48.426,0,0,1-4.912.4V-8.864h-.848v3.248c-1.168.032-2.272.032-3.248.032l.112.752a61.722,61.722,0,0,0,8.96-.56ZM53.632-3.36h-.848V.768H61.92V.048H53.632ZM61.456-8.3v-4.784h-.848V-2.352h.848V-7.568H63.7V-8.3ZM75.7-2.656h.848V-13.072H75.7v2.512H72.64v.72H75.7v2.464H72.64v.72H75.7Zm-3.04-3.088a32.992,32.992,0,0,1-6.08.368h-.144V-8.16H71.6v-3.9H65.552v.7h5.2v2.5H65.584v4.208h1.008a34.374,34.374,0,0,0,6.16-.368Zm-4.272,5.7V-3.376h-.832V.672h9.472v-.72ZM87.072-11.792h-.816v2.848a7.863,7.863,0,0,1-3.792,6.272l.528.688a8.721,8.721,0,0,0,3.7-5.008,8.253,8.253,0,0,0,3.68,4.7l.528-.656a7.549,7.549,0,0,1-3.824-6ZM95.9-7.168h-2.5V-13.1H92.56V1.12h.848V-6.448h2.5Zm2.448,3.984V-6.8h4.1v-4.64h-4.96v.72h4.144v3.2H97.52v5.056h.9a31.4,31.4,0,0,0,5.392-.416l-.08-.72a29.089,29.089,0,0,1-5.328.416Zm7.04-6.064h-2.064v.72h2.064v2.816h-2.064v.72h2.064V.352h.816V-12.8h-.816ZM108.16-13.1V1.12h.832V-13.1ZM121.744-10.5h-8.656V-7.68h9.744v-.656H113.92V-9.872h8.656v-2.72h-9.52v.656h8.688Zm-7.9,9.056h8.784v-2.8h-9.648v.656h8.832v1.5h-8.784V.88h10.1V.208h-9.28Zm-2.464-4.912v.672h12.912v-.672Zm19.3-4.944h-.848v8.608h.848a25.219,25.219,0,0,0,5.2-.5l-.112-.752a24.016,24.016,0,0,1-5.088.48Zm9.52-1.808v5.968h-2.464v-5.616h-.816V.352h.816V-6.384h2.464v7.5h.816V-13.1ZM153.76-7.168h-7.776v-2.48h7.776Zm.848-5.344h-.848v2.16h-7.776v-2.16h-.848v6.064h9.472Zm1.712,7.984H143.408v.72h6V1.12h.848V-3.808h6.064Z" transform="translate(626.497 -42.429)"/>
  </g>
  <g id="그룹_612" data-name="그룹 612" class="cls-2" transform="translate(0 315.736)">
    <path id="패스_1386" data-name="패스 1386" class="cls-9" d="M4.112-2.944C2.8-2.944,1.9-4.608,1.9-6.992c0-2.368.9-4.048,2.208-4.048,1.328,0,2.208,1.68,2.208,4.048C6.32-4.608,5.44-2.944,4.112-2.944Zm5.2-4.448H7.12c-.112-2.7-1.264-4.416-3.008-4.416C2.3-11.808,1.12-9.936,1.12-6.992S2.3-2.176,4.112-2.176c1.76,0,2.912-1.728,3.008-4.5H9.312V.352h.816v-13.1H9.312ZM12.1-13.1V1.12h.816V-13.1Zm16.768,2.016a12.66,12.66,0,0,1-.384,3.616l.816.112a13.349,13.349,0,0,0,.384-3.728V-12.32H20.112v.72h8.752ZM24.928.384c-2.416,0-4.048-.736-4.048-1.872s1.632-1.888,4.048-1.888,4.064.752,4.064,1.888S27.344.384,24.928.384Zm0-4.448c-3.008,0-4.9.96-4.9,2.576s1.888,2.56,4.9,2.56,4.9-.944,4.9-2.56S27.936-4.064,24.928-4.064Zm.048-2.256V-9.2h-.848v2.88H18.56v.72H31.376v-.72Zm14.368-5.456c2.368,0,4.016.944,4.016,2.336s-1.648,2.352-4.016,2.352c-2.352,0-4-.96-4-2.352S36.992-11.776,39.344-11.776Zm0,5.392c2.928,0,4.88-1.184,4.88-3.056s-1.952-3.04-4.88-3.04S34.48-11.312,34.48-9.44,36.416-6.384,39.344-6.384ZM45.824-4.9h-12.9v.72H36.48V1.1h.864v-5.28H41.36V1.1h.864v-5.28h3.6ZM55.808-11.5H52.032v-1.744h-.848V-11.5H47.392v.7h8.416ZM49.04-7.488c0-1.056,1.024-1.792,2.56-1.792,1.52,0,2.544.736,2.544,1.808,0,1.056-1.024,1.792-2.544,1.792S49.04-6.416,49.04-7.488Zm5.9,0c0-1.52-1.328-2.464-3.344-2.464-2.032,0-3.36.944-3.36,2.48,0,1.52,1.328,2.464,3.36,2.464C53.616-5.008,54.944-5.952,54.944-7.488Zm2.5,7.68H50.368V-1.744H57.44Zm0-2.64H50.368v-1.76H49.52V.9h8.768v-5.1H57.44Zm3.072-6.9H58.288V-13.1H57.44v8.24h.848V-8.608h2.224Zm3.056,5.952v-8.3h-.832V-2.64h1.1a33.5,33.5,0,0,0,6.976-.7l-.128-.736a32.277,32.277,0,0,1-6.848.688Zm8.816-9.7V1.12h.848V-13.088Zm5.248,9.856V-10.96H83.36v-.72H76.784V-2.5h1.072a33.97,33.97,0,0,0,6.816-.512l-.112-.736a33.7,33.7,0,0,1-6.7.512ZM89.44-7.264h-2.5v-5.824H86.1V1.136h.848v-7.68h2.5ZM91.632.208a.821.821,0,0,0,.816-.864.826.826,0,0,0-.816-.88.826.826,0,0,0-.816.88A.821.821,0,0,0,91.632.208Z" transform="translate(659.38 -17.616)"/>
    <g id="그룹_603" data-name="그룹 603" transform="translate(417.807 -223.818)">
      <path id="패스_972" data-name="패스 972" class="cls-3" d="M0,0A85.736,85.736,0,0,0,84.2,82.717"/>
    </g>
    <g id="그룹_604" data-name="그룹 604" transform="translate(506.493 -141.139)">
      <path id="패스_973" data-name="패스 973" class="cls-3" d="M0,0A85.736,85.736,0,0,0,82.74-84.175"/>
    </g>
    <g id="그룹_605" data-name="그룹 605" transform="translate(417.756 -226.81)">
      <path id="패스_974" data-name="패스 974" class="cls-4" d="M0,0H0M85.745,85.722h0M171.49,0h0"/>
    </g>
    <g id="그룹_606" data-name="그룹 606" transform="translate(215.934 -228.731)">
      <path id="패스_975" data-name="패스 975" class="cls-3" d="M0,0A85.736,85.736,0,0,1,84.2-82.717"/>
    </g>
    <g id="그룹_607" data-name="그룹 607" transform="translate(304.62 -311.41)">
      <path id="패스_976" data-name="패스 976" class="cls-3" d="M0,0A85.736,85.736,0,0,1,82.74,84.175"/>
    </g>
    <g id="그룹_608" data-name="그룹 608" transform="translate(215.882 -225.739)">
      <path id="패스_977" data-name="패스 977" class="cls-4" d="M0,0H0M85.745-85.722h0M171.49,0h0"/>
    </g>
    <g id="그룹_609" data-name="그룹 609" transform="translate(619.56 -228.731)">
      <path id="패스_978" data-name="패스 978" class="cls-3" d="M0,0A85.736,85.736,0,0,1,84.2-82.717"/>
    </g>
    <g id="그룹_610" data-name="그룹 610" transform="translate(708.246 -311.41)">
      <path id="패스_979" data-name="패스 979" class="cls-3" d="M0,0A85.736,85.736,0,0,1,82.74,84.175"/>
    </g>
    <g id="그룹_611" data-name="그룹 611" transform="translate(619.508 -225.739)">
      <path id="패스_980" data-name="패스 980" class="cls-4" d="M0,0H0M85.745-85.722h0M171.49,0h0"/>
    </g>
  </g>
  <g id="그룹_613" data-name="그룹 613" transform="translate(99.419 187.253)">
    <path id="패스_982" data-name="패스 982" class="cls-11" d="M0,0V11.339"/>
  </g>
  <g id="그룹_614" data-name="그룹 614" transform="translate(503.022 187.253)">
    <path id="패스_983" data-name="패스 983" class="cls-11" d="M0,0V11.339"/>
  </g>
  <g id="그룹_615" data-name="그룹 615" transform="translate(301.16 187.253)">
    <path id="패스_984" data-name="패스 984" class="cls-11" d="M0,0V11.339"/>
  </g>
  <g id="그룹_616" data-name="그룹 616" transform="translate(704.764 187.253)">
    <path id="패스_985" data-name="패스 985" class="cls-11" d="M0,0V11.339"/>
  </g>
  <g id="그룹_618" data-name="그룹 618" class="cls-2" transform="translate(0 315.736)">
    <g id="그룹_617" data-name="그룹 617" transform="translate(14.099 -212.734)">
      <path id="패스_986" data-name="패스 986" class="cls-12" d="M0,0A14.1,14.1,0,0,0,14.1-14.1,14.1,14.1,0,0,0,0-28.2,14.1,14.1,0,0,0-14.1-14.1,14.1,14.1,0,0,0,0,0"/>
    </g>
  </g>
  <path id="패스_1364" data-name="패스 1364" class="cls-13" d="M1.29,0h6.3V-1.425H5.43V-11.04h-1.3a6.782,6.782,0,0,1-2.4.84v1.1H3.7v7.68H1.29Z" transform="translate(9.866 94.903)"/>
  <g id="그룹_619" data-name="그룹 619" transform="translate(191.895 88.911)">
    <path id="패스_988" data-name="패스 988" class="cls-14" d="M0,0H24.843"/>
  </g>
  <g id="그룹_620" data-name="그룹 620" transform="translate(188.972 88.911)">
    <path id="패스_989" data-name="패스 989" class="cls-4" d="M0,0H0M29.228,0h0"/>
  </g>
  <g id="그룹_621" data-name="그룹 621" transform="translate(592.686 88.911)">
    <path id="패스_990" data-name="패스 990" class="cls-14" d="M0,0H24.843"/>
  </g>
  <g id="그룹_622" data-name="그룹 622" transform="translate(589.763 88.911)">
    <path id="패스_991" data-name="패스 991" class="cls-4" d="M0,0H0M29.228,0h0"/>
  </g>
  <g id="그룹_623" data-name="그룹 623" transform="translate(392.341 90.131)">
    <path id="패스_992" data-name="패스 992" class="cls-14" d="M0,0H24.843"/>
  </g>
  <g id="그룹_624" data-name="그룹 624" transform="translate(389.418 90.131)">
    <path id="패스_993" data-name="패스 993" class="cls-4" d="M0,0H0M29.228,0h0"/>
  </g>
  <g id="그룹_626" data-name="그룹 626" class="cls-2" transform="translate(0 315.736)">
    <g id="그룹_625" data-name="그룹 625" transform="translate(214.924 -214.412)">
      <path id="패스_994" data-name="패스 994" class="cls-12" d="M0,0A14.1,14.1,0,0,0,14.1-14.1,14.1,14.1,0,0,0,0-28.2,14.1,14.1,0,0,0-14.1-14.1,14.1,14.1,0,0,0,0,0"/>
    </g>
  </g>
  <path id="패스_1371" data-name="패스 1371" class="cls-13" d="M.66,0H7.785V-1.47H5.025c-.54,0-1.23.045-1.8.1C5.565-3.6,7.26-5.8,7.26-7.935A3.122,3.122,0,0,0,3.93-11.25,4.332,4.332,0,0,0,.57-9.6l.975.96A2.994,2.994,0,0,1,3.72-9.87,1.8,1.8,0,0,1,5.595-7.845C5.595-6.03,3.915-3.885.66-1Z" transform="translate(210.692 93.225)"/>
  <g id="그룹_628" data-name="그룹 628" class="cls-2" transform="translate(0 315.736)">
    <g id="그룹_627" data-name="그룹 627" transform="translate(410.423 -211.514)">
      <path id="패스_996" data-name="패스 996" class="cls-12" d="M0,0A14.1,14.1,0,0,0,14.1-14.1,14.1,14.1,0,0,0,0-28.2,14.1,14.1,0,0,0-14.1-14.1,14.1,14.1,0,0,0,0,0"/>
    </g>
  </g>
  <path id="패스_1372" data-name="패스 1372" class="cls-13" d="M4.02.2C6.045.2,7.71-.975,7.71-2.97A2.8,2.8,0,0,0,5.43-5.73V-5.8A2.668,2.668,0,0,0,7.335-8.4c0-1.83-1.395-2.85-3.375-2.85A4.653,4.653,0,0,0,.8-9.915l.9,1.08a3.233,3.233,0,0,1,2.2-1.05,1.545,1.545,0,0,1,1.695,1.6c0,1.11-.72,1.935-2.895,1.935V-5.07c2.49,0,3.27.8,3.27,2.025a1.854,1.854,0,0,1-2.1,1.83A3.568,3.568,0,0,1,1.26-2.43L.42-1.32A4.582,4.582,0,0,0,4.02.2Z" transform="translate(406.191 96.124)"/>
  <g id="그룹_630" data-name="그룹 630" class="cls-2" transform="translate(0 315.736)">
    <g id="그룹_629" data-name="그룹 629" transform="translate(613.414 -211.514)">
      <path id="패스_998" data-name="패스 998" class="cls-12" d="M0,0A14.1,14.1,0,0,0,14.1-14.1,14.1,14.1,0,0,0,0-28.2,14.1,14.1,0,0,0-14.1-14.1,14.1,14.1,0,0,0,0,0"/>
    </g>
  </g>
  <path id="패스_1373" data-name="패스 1373" class="cls-13" d="M2.04-4.3l2.175-3.33c.315-.57.615-1.14.885-1.695h.06c-.03.6-.09,1.53-.09,2.13V-4.3Zm6.06,0H6.69V-11.04h-2L.3-4.125V-2.97H5.07V0H6.69V-2.97H8.1Z" transform="translate(609.182 96.124)"/>
  <g id="그룹_632" data-name="그룹 632" class="cls-2" transform="translate(0 315.736)">
    <g id="그룹_631" data-name="그룹 631" transform="translate(300.68 -315.391)">
      <path id="패스_1000" data-name="패스 1000" class="cls-11" d="M0,0,4.065,4.184,0,8.368"/>
    </g>
    <g id="그룹_862" data-name="그룹 862" transform="translate(96.68 -144.391)">
      <path id="패스_1000-2" data-name="패스 1000" class="cls-11" d="M0,0,4.065,4.184,0,8.368"/>
    </g>
  </g>
  <g id="그룹_633" data-name="그룹 633" transform="translate(501.984 170.959)">
    <path id="패스_1002" data-name="패스 1002" class="cls-11" d="M0,0,4.065,4.184,0,8.368"/>
  </g>
  <g id="그룹_634" data-name="그룹 634" transform="translate(795.655 90.12)">
    <path id="패스_1003" data-name="패스 1003" class="cls-11" d="M0,0-4.184,4.065-8.368,0"/>
  </g>
  <g id="그룹_636" data-name="그룹 636" transform="translate(316.749 56.869)">
    <path id="패스_1005" data-name="패스 1005" class="cls-15" d="M0,0H-8V-1.254h-12V0h-7.994V34.5H0Z"/>
  </g>
  <g id="그룹_637" data-name="그룹 637" transform="translate(316.749 56.869)">
    <path id="패스_1006" data-name="패스 1006" class="cls-16" d="M0,0H-8V-1.254h-12V0h-7.994V34.5H0Z"/>
  </g>
  <path id="패스_1007" data-name="패스 1007" class="cls-17" d="M315.649-225.373H287.662v-34.5h27.987Z" transform="translate(0 315.736)"/>
  <path id="패스_1008" data-name="패스 1008" class="cls-17" d="M312.892-227.959H290.418v-28.854h22.474Z" transform="translate(0 315.736)"/>
  <path id="패스_1009" data-name="패스 1009" class="cls-17" d="M307.653-254.6h-12v-6.522h12Z" transform="translate(0 315.736)"/>
  <g id="그룹_642" data-name="그룹 642" class="cls-2" transform="translate(0 315.736)">
    <g id="그룹_638" data-name="그룹 638" transform="translate(312.119 -221.707)">
      <path id="패스_1010" data-name="패스 1010" class="cls-15" d="M0,0A7.7,7.7,0,0,0,7.719-7.676,7.7,7.7,0,0,0,0-15.352,7.7,7.7,0,0,0-7.719-7.676,7.7,7.7,0,0,0,0,0"/>
    </g>
    <g id="그룹_639" data-name="그룹 639" transform="translate(312.119 -221.707)">
      <path id="패스_1011" data-name="패스 1011" class="cls-16" d="M0,0A7.7,7.7,0,0,0,7.719-7.676,7.7,7.7,0,0,0,0-15.352,7.7,7.7,0,0,0-7.719-7.676,7.7,7.7,0,0,0,0,0Z"/>
    </g>
    <g id="그룹_640" data-name="그룹 640" transform="translate(311.219 -222.508)">
      <path id="패스_1012" data-name="패스 1012" class="cls-13" d="M0,0A7.7,7.7,0,0,0,7.719-7.676,7.7,7.7,0,0,0,0-15.352,7.7,7.7,0,0,0-7.719-7.676,7.7,7.7,0,0,0,0,0"/>
    </g>
    <g id="그룹_641" data-name="그룹 641" transform="translate(311.219 -222.508)">
      <path id="패스_1013" data-name="패스 1013" class="cls-16" d="M0,0A7.7,7.7,0,0,0,7.719-7.676,7.7,7.7,0,0,0,0-15.352,7.7,7.7,0,0,0-7.719-7.676,7.7,7.7,0,0,0,0,0Z"/>
    </g>
  </g>
  <g id="그룹_643" data-name="그룹 643" transform="translate(306.957 84.809)">
    <path id="패스_1015" data-name="패스 1015" class="cls-17" d="M0,0,3.149,3.871,7.975-3.805"/>
  </g>
  <path id="패스_1016" data-name="패스 1016" class="cls-18" d="M682.441-224.445H729.7v-29.41H682.441Z" transform="translate(0 315.736)"/>
  <path id="패스_1017" data-name="패스 1017" class="cls-17" d="M680.641-225.445H727.9v-29.41H680.641Z" transform="translate(0 315.736)"/>
  <g id="그룹_644" data-name="그룹 644" transform="translate(700.174 64.998)">
    <path id="패스_1018" data-name="패스 1018" class="cls-16" d="M0,0H8.188"/>
  </g>
  <g id="그룹_645" data-name="그룹 645" transform="translate(695.576 67.349)">
    <path id="패스_1019" data-name="패스 1019" class="cls-16" d="M0,0H17.384"/>
  </g>
  <path id="패스_1020" data-name="패스 1020" class="cls-17" d="M685.949-231.707h9.615v-11.871h-9.615Z" transform="translate(0 315.736)"/>
  <path id="패스_1021" data-name="패스 1021" class="cls-17" d="M700.635-231.707h9.615v-11.871h-9.615Z" transform="translate(0 315.736)"/>
  <path id="패스_1022" data-name="패스 1022" class="cls-17" d="M713.393-231.707h9.615v-11.871h-9.615Z" transform="translate(0 315.736)"/>
  <g id="그룹_652" data-name="그룹 652" class="cls-2" transform="translate(0 315.736)">
    <g id="그룹_646" data-name="그룹 646" transform="translate(97.073 -244.59)">
      <path id="패스_1023" data-name="패스 1023" class="cls-9" d="M0,0A5.359,5.359,0,0,1-5.329-5.389,5.358,5.358,0,0,1,0-10.775,5.358,5.358,0,0,1,5.329-5.389,5.359,5.359,0,0,1,0,0"/>
    </g>
    <g id="그룹_647" data-name="그룹 647" transform="translate(109.229 -222.223)">
      <path id="패스_1024" data-name="패스 1024" class="cls-9" d="M0,0C-.013-2.621-.026-8.25-.026-12.59c0-6.027-6.906-5.3-6.906-5.3H-17.35s-6.935-.73-6.935,5.3c0,4.34-.013,9.969-.027,12.59Z"/>
    </g>
    <g id="그룹_648" data-name="그룹 648" transform="translate(95.558 -245.313)">
      <path id="패스_1025" data-name="패스 1025" class="cls-13" d="M0,0A5.394,5.394,0,0,1-5.364-5.422,5.394,5.394,0,0,1,0-10.844,5.394,5.394,0,0,1,5.364-5.422,5.394,5.394,0,0,1,0,0"/>
    </g>
    <g id="그룹_649" data-name="그룹 649" transform="translate(95.558 -245.313)">
      <path id="패스_1026" data-name="패스 1026" class="cls-19" d="M0,0A5.394,5.394,0,0,1-5.364-5.422,5.394,5.394,0,0,1,0-10.844,5.394,5.394,0,0,1,5.364-5.422,5.394,5.394,0,0,1,0,0Z"/>
    </g>
    <g id="그룹_650" data-name="그룹 650" transform="translate(107.749 -224.461)">
      <path id="패스_1027" data-name="패스 1027" class="cls-13" d="M0,0C-.013-2.629-.026-8.281-.026-12.637c0-6.05-6.926-5.316-6.926-5.316H-17.4s-6.955-.734-6.955,5.316c0,4.356-.014,10.008-.027,12.637Z"/>
    </g>
    <g id="그룹_651" data-name="그룹 651" transform="translate(107.749 -224.461)">
      <path id="패스_1028" data-name="패스 1028" class="cls-19" d="M0,0C-.013-2.629-.026-8.281-.026-12.637c0-6.05-6.926-5.316-6.926-5.316H-17.4s-6.955-.734-6.955,5.316c0,4.356-.014,10.008-.027,12.637Z"/>
    </g>
  </g>
  <g id="그룹_653" data-name="그룹 653" transform="translate(102.477 91.173)">
    <path id="패스_1030" data-name="패스 1030" class="cls-19" d="M0,0V-11.34"/>
  </g>
  <g id="그룹_654" data-name="그룹 654" transform="translate(88.823 79.861)">
    <path id="패스_1031" data-name="패스 1031" class="cls-19" d="M0,0,.15,11.285"/>
  </g>
  <g id="그룹_655" data-name="그룹 655" transform="translate(110.289 61.654)">
    <path id="패스_1032" data-name="패스 1032" class="cls-20" d="M0,0,8.45-2.641"/>
  </g>
  <g id="그룹_656" data-name="그룹 656" transform="translate(110.289 68.814)">
    <path id="패스_1033" data-name="패스 1033" class="cls-20" d="M0,0,8.45,2.641"/>
  </g>
  <g id="그룹_657" data-name="그룹 657" transform="translate(110.252 65.076)">
    <path id="패스_1034" data-name="패스 1034" class="cls-20" d="M0,0H8.748"/>
  </g>
  <g id="그룹_660" data-name="그룹 660" class="cls-2" transform="translate(0 315.736)">
    <g id="그룹_658" data-name="그룹 658" transform="translate(514.135 -224.063)">
      <path id="패스_1035" data-name="패스 1035" class="cls-15" d="M0,0A2.4,2.4,0,0,1-2.412,2.394H-19.488A2.4,2.4,0,0,1-21.9,0V-32.179a2.4,2.4,0,0,1,2.412-2.4H-2.412A2.4,2.4,0,0,1,0-32.179Z"/>
    </g>
    <g id="그룹_659" data-name="그룹 659" transform="translate(514.135 -224.063)">
      <path id="패스_1036" data-name="패스 1036" class="cls-21" d="M0,0A2.4,2.4,0,0,1-2.412,2.394H-19.488A2.4,2.4,0,0,1-21.9,0V-32.179a2.4,2.4,0,0,1,2.412-2.4H-2.412A2.4,2.4,0,0,1,0-32.179Z"/>
    </g>
  </g>
  <path id="패스_1038" data-name="패스 1038" class="cls-22" d="M512.012-227.267H494.359v-28.3h17.653Z" transform="translate(0 315.736)"/>
  <g id="그룹_661" data-name="그룹 661" transform="translate(523.193 79.279)">
    <path id="패스_1039" data-name="패스 1039" class="cls-15" d="M0,0V-13.094H-19.171V0h4.13V2.629L-12.467,0Z"/>
  </g>
  <g id="그룹_662" data-name="그룹 662" transform="translate(523.193 79.279)">
    <path id="패스_1040" data-name="패스 1040" class="cls-16" d="M0,0V-13.094H-19.171V0h4.13V2.629L-12.467,0Z"/>
  </g>
  <g id="그룹_663" data-name="그룹 663" transform="translate(519.683 70.345)">
    <path id="패스_1041" data-name="패스 1041" class="cls-16" d="M0,0H-12.544"/>
  </g>
  <g id="그룹_664" data-name="그룹 664" transform="translate(513.607 73.49)">
    <path id="패스_1042" data-name="패스 1042" class="cls-16" d="M0,0H-6.469"/>
  </g>
  <g id="그룹_669" data-name="그룹 669" class="cls-2" transform="translate(0 315.736)">
    <g id="그룹_665" data-name="그룹 665" transform="translate(502.712 -224.702)">
      <path id="패스_1043" data-name="패스 1043" class="cls-15" d="M0,0A.81.81,0,0,1,.81-.81.81.81,0,0,1,1.62,0,.81.81,0,0,1,.81.81.81.81,0,0,1,0,0"/>
    </g>
    <g id="그룹_666" data-name="그룹 666" transform="translate(502.712 -224.702)">
      <path id="패스_1044" data-name="패스 1044" class="cls-23" d="M0,0A.81.81,0,0,1,.81-.81.81.81,0,0,1,1.62,0,.81.81,0,0,1,.81.81.81.81,0,0,1,0,0Z"/>
    </g>
    <g id="그룹_667" data-name="그룹 667" transform="translate(513.316 -225.32)">
      <path id="패스_1045" data-name="패스 1045" class="cls-13" d="M0,0A2.4,2.4,0,0,1-2.412,2.394H-19.488A2.4,2.4,0,0,1-21.9,0V-32.179a2.4,2.4,0,0,1,2.412-2.4H-2.412A2.4,2.4,0,0,1,0-32.179Z"/>
    </g>
    <g id="그룹_668" data-name="그룹 668" transform="translate(513.316 -225.32)">
      <path id="패스_1046" data-name="패스 1046" class="cls-21" d="M0,0A2.4,2.4,0,0,1-2.412,2.394H-19.488A2.4,2.4,0,0,1-21.9,0V-32.179a2.4,2.4,0,0,1,2.412-2.4H-2.412A2.4,2.4,0,0,1,0-32.179Z"/>
    </g>
  </g>
  <path id="패스_1048" data-name="패스 1048" class="cls-24" d="M511.193-228.524H493.54v-28.3h17.653Z" transform="translate(0 315.736)"/>
  <g id="그룹_670" data-name="그룹 670" transform="translate(522.374 78.021)">
    <path id="패스_1049" data-name="패스 1049" class="cls-13" d="M0,0V-13.094H-19.171V0h4.13V2.629L-12.467,0Z"/>
  </g>
  <g id="그룹_671" data-name="그룹 671" transform="translate(522.374 78.021)">
    <path id="패스_1050" data-name="패스 1050" class="cls-16" d="M0,0V-13.094H-19.171V0h4.13V2.629L-12.467,0Z"/>
  </g>
  <g id="그룹_672" data-name="그룹 672" transform="translate(518.863 69.088)">
    <path id="패스_1051" data-name="패스 1051" class="cls-16" d="M0,0H-12.544"/>
  </g>
  <g id="그룹_673" data-name="그룹 673" transform="translate(512.788 72.232)">
    <path id="패스_1052" data-name="패스 1052" class="cls-16" d="M0,0H-6.469"/>
  </g>
  <g id="그룹_676" data-name="그룹 676" class="cls-2" transform="translate(0 315.736)">
    <g id="그룹_674" data-name="그룹 674" transform="translate(501.892 -225.959)">
      <path id="패스_1053" data-name="패스 1053" class="cls-13" d="M0,0A.81.81,0,0,1,.81-.81.81.81,0,0,1,1.62,0,.81.81,0,0,1,.81.81.81.81,0,0,1,0,0"/>
    </g>
    <g id="그룹_675" data-name="그룹 675" transform="translate(501.892 -225.959)">
      <path id="패스_1054" data-name="패스 1054" class="cls-23" d="M0,0A.81.81,0,0,1,.81-.81.81.81,0,0,1,1.62,0,.81.81,0,0,1,.81.81.81.81,0,0,1,0,0Z"/>
    </g>
  </g>
</svg>
