<svg id="구성_요소_81_1" data-name="구성 요소 81 – 1" xmlns="http://www.w3.org/2000/svg" xmlns:xlink="http://www.w3.org/1999/xlink" width="341.759" height="331.315" viewBox="0 0 341.759 331.315">
  <defs>
    <style>
      .cls-1, .cls-12, .cls-14, .cls-16, .cls-18, .cls-3, .cls-5, .cls-7, .cls-9 {
        fill: none;
      }

      .cls-2 {
        fill: #f5f7f7;
      }

      .cls-3 {
        stroke: #666;
      }

      .cls-4 {
        fill: #0b504a;
      }

      .cls-12, .cls-5 {
        stroke: #216a5a;
      }

      .cls-18, .cls-5, .cls-7, .cls-9 {
        stroke-width: 0.283px;
      }

      .cls-6 {
        fill: #92bc49;
      }

      .cls-14, .cls-7 {
        stroke: #92bc49;
      }

      .cls-8 {
        fill: #c6da98;
      }

      .cls-16, .cls-9 {
        stroke: #c6da98;
      }

      .cls-10 {
        fill: #1e2323;
      }

      .cls-11 {
        clip-path: url(#clip-path);
      }

      .cls-13 {
        clip-path: url(#clip-path-2);
      }

      .cls-15 {
        clip-path: url(#clip-path-3);
      }

      .cls-17 {
        fill: #216a5a;
      }

      .cls-18 {
        stroke: #828585;
      }
    </style>
    <clipPath id="clip-path">
      <rect id="사각형_121" data-name="사각형 121" class="cls-1" width="40.001" height="87.718" transform="translate(3554.746 8202.005)"/>
    </clipPath>
    <clipPath id="clip-path-2">
      <rect id="사각형_122" data-name="사각형 122" class="cls-1" width="40.001" height="44.575" transform="translate(3554.746 8157.427)"/>
    </clipPath>
    <clipPath id="clip-path-3">
      <rect id="사각형_123" data-name="사각형 123" class="cls-1" width="40.001" height="33.603" transform="translate(3554.746 8123.827)"/>
    </clipPath>
  </defs>
  <rect id="사각형_113" data-name="사각형 113" class="cls-2" width="101.393" height="281.174" transform="translate(102.299 23.559)"/>
  <rect id="사각형_114" data-name="사각형 114" class="cls-2" width="101.393" height="281.674" transform="translate(224.72 23.059)"/>
  <line id="선_806" data-name="선 806" class="cls-3" x1="341.759" transform="translate(0 304.469)"/>
  <rect id="사각형_115" data-name="사각형 115" class="cls-4" width="40" height="60.052" transform="translate(223.692 244.777)"/>
  <rect id="사각형_116" data-name="사각형 116" class="cls-5" width="40" height="60.052" transform="translate(223.692 244.777)"/>
  <rect id="사각형_117" data-name="사각형 117" class="cls-6" width="40" height="58.075" transform="translate(223.692 186.701)"/>
  <rect id="사각형_118" data-name="사각형 118" class="cls-7" width="40" height="58.075" transform="translate(223.692 186.701)"/>
  <rect id="사각형_119" data-name="사각형 119" class="cls-8" width="40" height="163.642" transform="translate(223.692 23.059)"/>
  <rect id="사각형_120" data-name="사각형 120" class="cls-9" width="40" height="163.642" transform="translate(223.692 23.059)"/>
  <path id="패스_8913" data-name="패스 8913" class="cls-10" d="M3.289.169A3,3,0,0,0,6.253-3.042c0-2.106-1.248-3.042-2.808-3.042a2.922,2.922,0,0,0-1.586.455l.273-3.185H5.785v-.663H1.456L1.131-5.148l.494.3a2.747,2.747,0,0,1,1.677-.6A2.146,2.146,0,0,1,5.473-3.016,2.323,2.323,0,0,1,3.263-.481,3.191,3.191,0,0,1,.78-1.6l-.416.533A3.9,3.9,0,0,0,3.289.169ZM7.618,2.288A2.7,2.7,0,0,0,9.178-.13c0-.689-.312-1.118-.78-1.118a.652.652,0,0,0-.689.65.637.637,0,0,0,.676.663A.633.633,0,0,0,8.541.052,1.966,1.966,0,0,1,7.4,1.794ZM13.065.169a2.651,2.651,0,0,0,2.86-2.678,2.47,2.47,0,0,0-2.08-2.444v-.065a2.365,2.365,0,0,0,1.742-2.34,2.306,2.306,0,0,0-2.561-2.3,3.682,3.682,0,0,0-2.535,1.118l.442.52a2.973,2.973,0,0,1,2.08-1,1.659,1.659,0,0,1,1.794,1.716c0,1.131-.728,2.028-2.808,2.028v.637c2.262,0,3.146.858,3.146,2.132A1.973,1.973,0,0,1,13.039-.481a3.242,3.242,0,0,1-2.5-1.157l-.429.507A3.833,3.833,0,0,0,13.065.169Zm7.176-.637c-1.443,0-2.184-1.326-2.3-3.406a2.849,2.849,0,0,1,2.171-1.352c1.352,0,1.924.988,1.924,2.366S21.268-.468,20.241-.468Zm2.366-8.268a2.6,2.6,0,0,0-2.015-.91c-1.781,0-3.406,1.352-3.406,5.174,0,3.016,1.209,4.641,3.042,4.641A2.781,2.781,0,0,0,22.789-2.86c0-1.95-.962-2.977-2.574-2.977A3.05,3.05,0,0,0,17.927-4.6C17.966-7.865,19.175-9,20.6-9a1.982,1.982,0,0,1,1.547.754Zm3.77,4.485c-1.313,0-1.9-1-1.9-2.366s.767-2.405,1.794-2.405c1.482,0,2.236,1.313,2.314,3.38A2.838,2.838,0,0,1,26.377-4.251ZM23.92-.741a2.767,2.767,0,0,0,2.093.91c1.729,0,3.328-1.43,3.328-5.421,0-2.86-1.222-4.394-3.055-4.394a2.781,2.781,0,0,0-2.561,3.029c0,1.924.975,2.977,2.561,2.977A3.087,3.087,0,0,0,28.6-4.9c-.078,3.276-1.261,4.42-2.574,4.42a2.131,2.131,0,0,1-1.651-.754Z" transform="translate(296.071 43)"/>
  <path id="패스_8914" data-name="패스 8914" class="cls-10" d="M.66,0H7.575V-1.185H4.53c-.555,0-1.23.06-1.8.105C5.31-3.525,7.035-5.76,7.035-7.95A3.016,3.016,0,0,0,3.84-11.2,4.205,4.205,0,0,0,.6-9.585l.8.78a3.079,3.079,0,0,1,2.28-1.275A1.933,1.933,0,0,1,5.7-7.905c0,1.89-1.59,4.08-5.04,7.1ZM9.15,2.85A3.338,3.338,0,0,0,11.34-.285c0-1.005-.435-1.62-1.155-1.62a.975.975,0,0,0-1.035.96.94.94,0,0,0,1.005.96A.615.615,0,0,0,10.32,0a2.249,2.249,0,0,1-1.5,2.04ZM12.57,0h6.915V-1.185H16.44c-.555,0-1.23.06-1.8.105,2.58-2.445,4.305-4.68,4.305-6.87A3.016,3.016,0,0,0,15.75-11.2a4.205,4.205,0,0,0-3.24,1.62l.8.78a3.079,3.079,0,0,1,2.28-1.275A1.933,1.933,0,0,1,17.61-7.905c0,1.89-1.59,4.08-5.04,7.1Zm9.09-4.125,2.5-3.75c.315-.54.615-1.08.885-1.62h.06c-.03.57-.09,1.455-.09,1.995v3.375Zm6.12,0H26.325v-6.87H24.81L20.235-3.93v.9H25.02V0h1.3V-3.03H27.78ZM30.93,0h1.425C32.52-4.3,33-6.855,35.58-10.17v-.825H28.695v1.17H34.02C31.875-6.825,31.11-4.17,30.93,0Z" transform="translate(289.828 208.401)"/>
  <path id="패스_8915" data-name="패스 8915" class="cls-10" d="M.66,0H7.575V-1.185H4.53c-.555,0-1.23.06-1.8.105C5.31-3.525,7.035-5.76,7.035-7.95A3.016,3.016,0,0,0,3.84-11.2,4.205,4.205,0,0,0,.6-9.585l.8.78a3.079,3.079,0,0,1,2.28-1.275A1.933,1.933,0,0,1,5.7-7.905c0,1.89-1.59,4.08-5.04,7.1ZM9.15,2.85A3.338,3.338,0,0,0,11.34-.285c0-1.005-.435-1.62-1.155-1.62a.975.975,0,0,0-1.035.96.94.94,0,0,0,1.005.96A.615.615,0,0,0,10.32,0a2.249,2.249,0,0,1-1.5,2.04ZM15.825.2a3.571,3.571,0,0,0,3.6-3.78,3.138,3.138,0,0,0-3.315-3.5,3.157,3.157,0,0,0-1.635.435l.27-3.18H18.9v-1.17H13.545L13.2-5.85l.735.45a2.992,2.992,0,0,1,1.83-.645,2.225,2.225,0,0,1,2.28,2.505A2.376,2.376,0,0,1,15.7-.945a3.617,3.617,0,0,1-2.7-1.215l-.675.9A4.671,4.671,0,0,0,15.825.2ZM23.9.2c1.95,0,3.525-1.17,3.525-3.135a2.827,2.827,0,0,0-2.34-2.79v-.06a2.741,2.741,0,0,0,1.965-2.655c0-1.77-1.35-2.76-3.195-2.76a4.4,4.4,0,0,0-3.075,1.32l.735.87a3.431,3.431,0,0,1,2.28-1.1,1.718,1.718,0,0,1,1.86,1.77c0,1.185-.78,2.1-3.045,2.1v1.05c2.535,0,3.42.885,3.42,2.2A2.025,2.025,0,0,1,23.79-.945,3.635,3.635,0,0,1,21.06-2.2l-.69.9A4.552,4.552,0,0,0,23.9.2ZM30.93,0h1.425C32.52-4.3,33-6.855,35.58-10.17v-.825H28.695v1.17H34.02C31.875-6.825,31.11-4.17,30.93,0Z" transform="translate(289.828 266.481)"/>
  <path id="패스_8912" data-name="패스 8912" class="cls-4" d="M1.584,0H8.82V-1.368H6.174V-13.194H4.914a8.36,8.36,0,0,1-2.736.936v1.044h2.34v9.846H1.584Zm13.05.234c2.5,0,4.1-2.286,4.1-6.876,0-4.572-1.6-6.8-4.1-6.8-2.52,0-4.122,2.214-4.122,6.8S12.114.234,14.634.234Zm0-1.314c-1.512,0-2.52-1.674-2.52-5.562,0-3.852,1.008-5.472,2.52-5.472,1.494,0,2.5,1.62,2.5,5.472C17.136-2.754,16.128-1.08,14.634-1.08Zm5.976,4.5A4.006,4.006,0,0,0,23.238-.342c0-1.206-.522-1.944-1.386-1.944A1.17,1.17,0,0,0,20.61-1.134,1.128,1.128,0,0,0,21.816.018a.738.738,0,0,0,.2-.018,2.7,2.7,0,0,1-1.8,2.448ZM25.506,0h7.236V-1.368H30.1V-13.194h-1.26a8.36,8.36,0,0,1-2.736.936v1.044h2.34v9.846H25.506ZM38.25.234A4.285,4.285,0,0,0,42.57-4.3c0-2.9-1.782-4.194-3.978-4.194a3.789,3.789,0,0,0-1.962.522l.324-3.816H41.94v-1.4H35.514L35.1-7.02l.882.54a3.59,3.59,0,0,1,2.2-.774c1.656,0,2.736,1.116,2.736,3.006a2.852,2.852,0,0,1-2.808,3.114,4.341,4.341,0,0,1-3.24-1.458l-.81,1.08A5.605,5.605,0,0,0,38.25.234Zm9.684,0c2.34,0,4.23-1.4,4.23-3.762a3.393,3.393,0,0,0-2.808-3.348v-.072a3.289,3.289,0,0,0,2.358-3.186c0-2.124-1.62-3.312-3.834-3.312a5.282,5.282,0,0,0-3.69,1.584l.882,1.044a4.117,4.117,0,0,1,2.736-1.314,2.061,2.061,0,0,1,2.232,2.124c0,1.422-.936,2.52-3.654,2.52v1.26c3.042,0,4.1,1.062,4.1,2.646a2.429,2.429,0,0,1-2.682,2.448,4.362,4.362,0,0,1-3.276-1.512L43.7-1.566A5.462,5.462,0,0,0,47.934.234Z" transform="translate(274.298 13.446)"/>
  <g id="그룹_109" data-name="그룹 109" transform="translate(-3452.65 -7984.893)">
    <g id="그룹_108" data-name="그룹 108" class="cls-11">
      <line id="선_807" data-name="선 807" class="cls-12" x1="151.363" y2="102.33" transform="translate(3499.065 8099.68)"/>
      <line id="선_808" data-name="선 808" class="cls-12" x1="151.363" y2="102.33" transform="translate(3499.065 8107.767)"/>
      <line id="선_809" data-name="선 809" class="cls-12" x1="151.363" y2="102.33" transform="translate(3499.065 8115.853)"/>
      <line id="선_810" data-name="선 810" class="cls-12" x1="151.363" y2="102.33" transform="translate(3499.065 8103.723)"/>
      <line id="선_811" data-name="선 811" class="cls-12" x1="151.363" y2="102.33" transform="translate(3499.065 8123.939)"/>
      <line id="선_812" data-name="선 812" class="cls-12" x1="151.363" y2="102.33" transform="translate(3499.065 8111.81)"/>
      <line id="선_813" data-name="선 813" class="cls-12" x1="151.363" y2="102.33" transform="translate(3499.065 8140.113)"/>
      <line id="선_814" data-name="선 814" class="cls-12" x1="151.363" y2="102.33" transform="translate(3499.065 8119.896)"/>
      <line id="선_815" data-name="선 815" class="cls-12" x1="151.363" y2="102.33" transform="translate(3499.065 8156.286)"/>
      <line id="선_816" data-name="선 816" class="cls-12" x1="151.363" y2="102.33" transform="translate(3499.065 8132.026)"/>
      <line id="선_817" data-name="선 817" class="cls-12" x1="151.363" y2="102.33" transform="translate(3499.065 8172.46)"/>
      <line id="선_818" data-name="선 818" class="cls-12" x1="151.363" y2="102.33" transform="translate(3499.065 8148.2)"/>
      <line id="선_819" data-name="선 819" class="cls-12" x1="151.363" y2="102.33" transform="translate(3499.065 8188.633)"/>
      <line id="선_820" data-name="선 820" class="cls-12" x1="151.363" y2="102.33" transform="translate(3499.065 8164.373)"/>
      <line id="선_821" data-name="선 821" class="cls-12" x1="151.363" y2="102.33" transform="translate(3499.065 8204.807)"/>
      <line id="선_822" data-name="선 822" class="cls-12" x1="151.363" y2="102.33" transform="translate(3499.065 8180.546)"/>
      <line id="선_823" data-name="선 823" class="cls-12" x1="151.363" y2="102.33" transform="translate(3499.065 8220.979)"/>
      <line id="선_824" data-name="선 824" class="cls-12" x1="151.363" y2="102.33" transform="translate(3499.065 8196.72)"/>
      <line id="선_825" data-name="선 825" class="cls-12" x1="151.363" y2="102.33" transform="translate(3499.065 8237.153)"/>
      <line id="선_826" data-name="선 826" class="cls-12" x1="151.363" y2="102.33" transform="translate(3499.065 8212.893)"/>
      <line id="선_827" data-name="선 827" class="cls-12" x1="151.363" y2="102.33" transform="translate(3499.065 8253.326)"/>
      <line id="선_828" data-name="선 828" class="cls-12" x1="151.363" y2="102.33" transform="translate(3499.065 8229.066)"/>
      <line id="선_829" data-name="선 829" class="cls-12" x1="151.363" y2="102.33" transform="translate(3499.065 8265.457)"/>
      <line id="선_830" data-name="선 830" class="cls-12" x1="151.363" y2="102.33" transform="translate(3499.065 8245.24)"/>
      <line id="선_831" data-name="선 831" class="cls-12" x1="151.363" y2="102.33" transform="translate(3499.065 8144.156)"/>
      <line id="선_832" data-name="선 832" class="cls-12" x1="151.363" y2="102.33" transform="translate(3499.065 8127.983)"/>
      <line id="선_833" data-name="선 833" class="cls-12" x1="151.363" y2="102.33" transform="translate(3499.065 8160.33)"/>
      <line id="선_834" data-name="선 834" class="cls-12" x1="151.363" y2="102.33" transform="translate(3499.065 8136.069)"/>
      <line id="선_835" data-name="선 835" class="cls-12" x1="151.363" y2="102.33" transform="translate(3499.065 8176.503)"/>
      <line id="선_836" data-name="선 836" class="cls-12" x1="151.363" y2="102.33" transform="translate(3499.065 8152.243)"/>
      <line id="선_837" data-name="선 837" class="cls-12" x1="151.363" y2="102.33" transform="translate(3499.065 8192.677)"/>
      <line id="선_838" data-name="선 838" class="cls-12" x1="151.363" y2="102.33" transform="translate(3499.065 8168.417)"/>
      <line id="선_839" data-name="선 839" class="cls-12" x1="151.363" y2="102.33" transform="translate(3499.065 8208.85)"/>
      <line id="선_840" data-name="선 840" class="cls-12" x1="151.363" y2="102.33" transform="translate(3499.065 8184.59)"/>
      <line id="선_841" data-name="선 841" class="cls-12" x1="151.363" y2="102.33" transform="translate(3499.065 8225.023)"/>
      <line id="선_842" data-name="선 842" class="cls-12" x1="151.363" y2="102.33" transform="translate(3499.065 8200.764)"/>
      <line id="선_843" data-name="선 843" class="cls-12" x1="151.363" y2="102.33" transform="translate(3499.065 8241.196)"/>
      <line id="선_844" data-name="선 844" class="cls-12" x1="151.363" y2="102.33" transform="translate(3499.065 8216.937)"/>
      <line id="선_845" data-name="선 845" class="cls-12" x1="151.363" y2="102.33" transform="translate(3499.065 8257.37)"/>
      <line id="선_846" data-name="선 846" class="cls-12" x1="151.363" y2="102.33" transform="translate(3499.065 8233.109)"/>
      <line id="선_847" data-name="선 847" class="cls-12" x1="151.363" y2="102.33" transform="translate(3499.065 8269.5)"/>
      <line id="선_848" data-name="선 848" class="cls-12" x1="151.363" y2="102.33" transform="translate(3499.065 8249.283)"/>
      <line id="선_849" data-name="선 849" class="cls-12" x1="151.363" y2="102.33" transform="translate(3499.065 8277.587)"/>
      <line id="선_850" data-name="선 850" class="cls-12" x1="151.363" y2="102.33" transform="translate(3499.065 8261.413)"/>
      <line id="선_851" data-name="선 851" class="cls-12" x1="151.363" y2="102.33" transform="translate(3499.065 8285.674)"/>
      <line id="선_852" data-name="선 852" class="cls-12" x1="151.363" y2="102.33" transform="translate(3499.065 8273.543)"/>
      <line id="선_853" data-name="선 853" class="cls-12" x1="151.363" y2="102.33" transform="translate(3499.065 8281.63)"/>
      <line id="선_854" data-name="선 854" class="cls-12" x1="151.363" y2="102.33" transform="translate(3499.065 8289.717)"/>
    </g>
  </g>
  <g id="그룹_111" data-name="그룹 111" transform="translate(-3452.65 -7984.893)">
    <g id="그룹_110" data-name="그룹 110" class="cls-13">
      <line id="선_855" data-name="선 855" class="cls-14" x1="151.363" y2="102.33" transform="translate(3499.065 8057.792)"/>
      <line id="선_856" data-name="선 856" class="cls-14" x1="151.363" y2="102.33" transform="translate(3499.065 8073.966)"/>
      <line id="선_857" data-name="선 857" class="cls-14" x1="151.363" y2="102.33" transform="translate(3499.065 8053.749)"/>
      <line id="선_858" data-name="선 858" class="cls-14" x1="151.363" y2="102.33" transform="translate(3499.065 8090.139)"/>
      <line id="선_859" data-name="선 859" class="cls-14" x1="151.363" y2="102.33" transform="translate(3499.065 8065.879)"/>
      <line id="선_860" data-name="선 860" class="cls-14" x1="151.363" y2="102.33" transform="translate(3499.065 8106.313)"/>
      <line id="선_861" data-name="선 861" class="cls-14" x1="151.363" y2="102.33" transform="translate(3499.065 8082.052)"/>
      <line id="선_862" data-name="선 862" class="cls-14" x1="151.363" y2="102.33" transform="translate(3499.065 8122.485)"/>
      <line id="선_863" data-name="선 863" class="cls-14" x1="151.363" y2="102.33" transform="translate(3499.065 8098.226)"/>
      <line id="선_864" data-name="선 864" class="cls-14" x1="151.363" y2="102.33" transform="translate(3499.065 8138.659)"/>
      <line id="선_865" data-name="선 865" class="cls-14" x1="151.363" y2="102.33" transform="translate(3499.065 8114.399)"/>
      <line id="선_866" data-name="선 866" class="cls-14" x1="151.363" y2="102.33" transform="translate(3499.065 8154.832)"/>
      <line id="선_867" data-name="선 867" class="cls-14" x1="151.363" y2="102.33" transform="translate(3499.065 8130.572)"/>
      <line id="선_868" data-name="선 868" class="cls-14" x1="151.363" y2="102.33" transform="translate(3499.065 8171.006)"/>
      <line id="선_869" data-name="선 869" class="cls-14" x1="151.363" y2="102.33" transform="translate(3499.065 8146.746)"/>
      <line id="선_870" data-name="선 870" class="cls-14" x1="151.363" y2="102.33" transform="translate(3499.065 8187.179)"/>
      <line id="선_871" data-name="선 871" class="cls-14" x1="151.363" y2="102.33" transform="translate(3499.065 8162.919)"/>
      <line id="선_872" data-name="선 872" class="cls-14" x1="151.363" y2="102.33" transform="translate(3499.065 8199.309)"/>
      <line id="선_873" data-name="선 873" class="cls-14" x1="151.363" y2="102.33" transform="translate(3499.065 8179.092)"/>
      <line id="선_874" data-name="선 874" class="cls-14" x1="151.363" y2="102.33" transform="translate(3499.065 8078.009)"/>
      <line id="선_875" data-name="선 875" class="cls-14" x1="151.363" y2="102.33" transform="translate(3499.065 8061.835)"/>
      <line id="선_876" data-name="선 876" class="cls-14" x1="151.363" y2="102.33" transform="translate(3499.065 8094.182)"/>
      <line id="선_877" data-name="선 877" class="cls-14" x1="151.363" y2="102.33" transform="translate(3499.065 8069.922)"/>
      <line id="선_878" data-name="선 878" class="cls-14" x1="151.363" y2="102.33" transform="translate(3499.065 8110.355)"/>
      <line id="선_879" data-name="선 879" class="cls-14" x1="151.363" y2="102.33" transform="translate(3499.065 8086.096)"/>
      <line id="선_880" data-name="선 880" class="cls-14" x1="151.363" y2="102.33" transform="translate(3499.065 8126.529)"/>
      <line id="선_881" data-name="선 881" class="cls-14" x1="151.363" y2="102.33" transform="translate(3499.065 8102.269)"/>
      <line id="선_882" data-name="선 882" class="cls-14" x1="151.363" y2="102.33" transform="translate(3499.065 8142.702)"/>
      <line id="선_883" data-name="선 883" class="cls-14" x1="151.363" y2="102.33" transform="translate(3499.065 8118.442)"/>
      <line id="선_884" data-name="선 884" class="cls-14" x1="151.363" y2="102.33" transform="translate(3499.065 8158.876)"/>
      <line id="선_885" data-name="선 885" class="cls-14" x1="151.363" y2="102.33" transform="translate(3499.065 8134.616)"/>
      <line id="선_886" data-name="선 886" class="cls-14" x1="151.363" y2="102.33" transform="translate(3499.065 8175.049)"/>
      <line id="선_887" data-name="선 887" class="cls-14" x1="151.363" y2="102.33" transform="translate(3499.065 8150.789)"/>
      <line id="선_888" data-name="선 888" class="cls-14" x1="151.363" y2="102.33" transform="translate(3499.065 8191.223)"/>
      <line id="선_889" data-name="선 889" class="cls-14" x1="151.363" y2="102.33" transform="translate(3499.065 8166.962)"/>
      <line id="선_890" data-name="선 890" class="cls-14" x1="151.363" y2="102.33" transform="translate(3499.065 8203.353)"/>
      <line id="선_891" data-name="선 891" class="cls-14" x1="151.363" y2="102.33" transform="translate(3499.065 8183.136)"/>
      <line id="선_892" data-name="선 892" class="cls-14" x1="151.363" y2="102.33" transform="translate(3499.065 8195.266)"/>
    </g>
  </g>
  <g id="그룹_113" data-name="그룹 113" transform="translate(-3452.65 -7984.893)">
    <g id="그룹_112" data-name="그룹 112" class="cls-15">
      <line id="선_893" data-name="선 893" class="cls-16" x1="151.363" y2="102.33" transform="translate(3499.065 8018.704)"/>
      <line id="선_894" data-name="선 894" class="cls-16" x1="151.363" y2="102.33" transform="translate(3499.065 8034.878)"/>
      <line id="선_895" data-name="선 895" class="cls-16" x1="151.363" y2="102.33" transform="translate(3499.065 8051.051)"/>
      <line id="선_896" data-name="선 896" class="cls-16" x1="151.363" y2="102.33" transform="translate(3499.065 8026.791)"/>
      <line id="선_897" data-name="선 897" class="cls-16" x1="151.363" y2="102.33" transform="translate(3499.065 8067.225)"/>
      <line id="선_898" data-name="선 898" class="cls-16" x1="151.363" y2="102.33" transform="translate(3499.065 8042.964)"/>
      <line id="선_899" data-name="선 899" class="cls-16" x1="151.363" y2="102.33" transform="translate(3499.065 8083.397)"/>
      <line id="선_900" data-name="선 900" class="cls-16" x1="151.363" y2="102.33" transform="translate(3499.065 8059.138)"/>
      <line id="선_901" data-name="선 901" class="cls-16" x1="151.363" y2="102.33" transform="translate(3499.065 8099.571)"/>
      <line id="선_902" data-name="선 902" class="cls-16" x1="151.363" y2="102.33" transform="translate(3499.065 8075.311)"/>
      <line id="선_903" data-name="선 903" class="cls-16" x1="151.363" y2="102.33" transform="translate(3499.065 8115.744)"/>
      <line id="선_904" data-name="선 904" class="cls-16" x1="151.363" y2="102.33" transform="translate(3499.065 8091.484)"/>
      <line id="선_905" data-name="선 905" class="cls-16" x1="151.363" y2="102.33" transform="translate(3499.065 8131.918)"/>
      <line id="선_906" data-name="선 906" class="cls-16" x1="151.363" y2="102.33" transform="translate(3499.065 8107.658)"/>
      <line id="선_907" data-name="선 907" class="cls-16" x1="151.363" y2="102.33" transform="translate(3499.065 8148.091)"/>
      <line id="선_908" data-name="선 908" class="cls-16" x1="151.363" y2="102.33" transform="translate(3499.065 8123.831)"/>
      <line id="선_909" data-name="선 909" class="cls-16" x1="151.363" y2="102.33" transform="translate(3499.065 8140.004)"/>
      <line id="선_910" data-name="선 910" class="cls-16" x1="151.363" y2="102.33" transform="translate(3499.065 8038.921)"/>
      <line id="선_911" data-name="선 911" class="cls-16" x1="151.363" y2="102.33" transform="translate(3499.065 8022.748)"/>
      <line id="선_912" data-name="선 912" class="cls-16" x1="151.363" y2="102.33" transform="translate(3499.065 8055.094)"/>
      <line id="선_913" data-name="선 913" class="cls-16" x1="151.363" y2="102.33" transform="translate(3499.065 8030.834)"/>
      <line id="선_914" data-name="선 914" class="cls-16" x1="151.363" y2="102.33" transform="translate(3499.065 8071.268)"/>
      <line id="선_915" data-name="선 915" class="cls-16" x1="151.363" y2="102.33" transform="translate(3499.065 8047.008)"/>
      <line id="선_916" data-name="선 916" class="cls-16" x1="151.363" y2="102.33" transform="translate(3499.065 8087.441)"/>
      <line id="선_917" data-name="선 917" class="cls-16" x1="151.363" y2="102.33" transform="translate(3499.065 8063.181)"/>
      <line id="선_918" data-name="선 918" class="cls-16" x1="151.363" y2="102.33" transform="translate(3499.065 8103.614)"/>
      <line id="선_919" data-name="선 919" class="cls-16" x1="151.363" y2="102.33" transform="translate(3499.065 8079.354)"/>
      <line id="선_920" data-name="선 920" class="cls-16" x1="151.363" y2="102.33" transform="translate(3499.065 8119.788)"/>
      <line id="선_921" data-name="선 921" class="cls-16" x1="151.363" y2="102.33" transform="translate(3499.065 8095.528)"/>
      <line id="선_922" data-name="선 922" class="cls-16" x1="151.363" y2="102.33" transform="translate(3499.065 8135.961)"/>
      <line id="선_923" data-name="선 923" class="cls-16" x1="151.363" y2="102.33" transform="translate(3499.065 8111.701)"/>
      <line id="선_924" data-name="선 924" class="cls-16" x1="151.363" y2="102.33" transform="translate(3499.065 8152.135)"/>
      <line id="선_925" data-name="선 925" class="cls-16" x1="151.363" y2="102.33" transform="translate(3499.065 8127.875)"/>
      <line id="선_926" data-name="선 926" class="cls-16" x1="151.363" y2="102.33" transform="translate(3499.065 8144.048)"/>
      <line id="선_927" data-name="선 927" class="cls-16" x1="151.363" y2="102.33" transform="translate(3499.065 8156.178)"/>
    </g>
  </g>
  <path id="패스_8920" data-name="패스 8920" class="cls-10" d="M1.32,0H7.35V-1.14H5.145v-9.855H4.1a6.967,6.967,0,0,1-2.28.78v.87h1.95V-1.14H1.32ZM9.15,2.85A3.338,3.338,0,0,0,11.34-.285c0-1.005-.435-1.62-1.155-1.62a.975.975,0,0,0-1.035.96.94.94,0,0,0,1.005.96A.615.615,0,0,0,10.32,0a2.249,2.249,0,0,1-1.5,2.04ZM12.57,0h6.915V-1.185H16.44c-.555,0-1.23.06-1.8.105,2.58-2.445,4.305-4.68,4.305-6.87A3.016,3.016,0,0,0,15.75-11.2a4.205,4.205,0,0,0-3.24,1.62l.8.78a3.079,3.079,0,0,1,2.28-1.275A1.933,1.933,0,0,1,17.61-7.905c0,1.89-1.59,4.08-5.04,7.1ZM23.9.2c1.95,0,3.525-1.17,3.525-3.135a2.827,2.827,0,0,0-2.34-2.79v-.06a2.741,2.741,0,0,0,1.965-2.655c0-1.77-1.35-2.76-3.195-2.76a4.4,4.4,0,0,0-3.075,1.32l.735.87a3.431,3.431,0,0,1,2.28-1.1,1.718,1.718,0,0,1,1.86,1.77c0,1.185-.78,2.1-3.045,2.1v1.05c2.535,0,3.42.885,3.42,2.2A2.025,2.025,0,0,1,23.79-.945,3.635,3.635,0,0,1,21.06-2.2l-.69.9A4.552,4.552,0,0,0,23.9.2Zm7.98-5.385c-1.305,0-1.965-.96-1.965-2.445s.81-2.49,1.86-2.49c1.41,0,2.25,1.2,2.4,3.465A2.906,2.906,0,0,1,31.875-5.19ZM28.83-.93A3.5,3.5,0,0,0,31.47.2c2.07,0,3.99-1.71,3.99-6.165,0-3.495-1.575-5.235-3.69-5.235a3.3,3.3,0,0,0-3.15,3.57c0,2.28,1.2,3.465,3.03,3.465a3.39,3.39,0,0,0,2.535-1.365c-.1,3.42-1.335,4.59-2.76,4.59a2.481,2.481,0,0,1-1.845-.84Z" transform="translate(166.907 160.633)"/>
  <path id="패스_8921" data-name="패스 8921" class="cls-17" d="M5.418-1.044c-1.656,0-2.646-1.494-2.844-4.23a3.439,3.439,0,0,1,2.7-1.692c1.6,0,2.376,1.134,2.376,2.916C7.65-2.25,6.678-1.044,5.418-1.044ZM8.964-12.1a4.053,4.053,0,0,0-3.078-1.35c-2.556,0-4.878,1.98-4.878,7.146C1.008-1.944,2.88.234,5.418.234,7.47.234,9.2-1.494,9.2-4.05,9.2-6.8,7.776-8.19,5.544-8.19a4.1,4.1,0,0,0-3.006,1.6c.072-4.1,1.6-5.49,3.4-5.49A2.79,2.79,0,0,1,8.064-11.07ZM10.98,3.42A4.006,4.006,0,0,0,13.608-.342c0-1.206-.522-1.944-1.386-1.944A1.17,1.17,0,0,0,10.98-1.134,1.128,1.128,0,0,0,12.186.018a.738.738,0,0,0,.2-.018,2.7,2.7,0,0,1-1.8,2.448ZM15.876,0h7.236V-1.368H20.466V-13.194h-1.26a8.36,8.36,0,0,1-2.736.936v1.044h2.34v9.846H15.876Zm8.838,0h8.3V-1.422H29.358c-.666,0-1.476.072-2.16.126,3.1-2.934,5.166-5.616,5.166-8.244a3.62,3.62,0,0,0-3.834-3.906A5.046,5.046,0,0,0,24.642-11.5l.954.936a3.7,3.7,0,0,1,2.736-1.53,2.32,2.32,0,0,1,2.43,2.61c0,2.268-1.908,4.9-6.048,8.514ZM38.25.234A4.285,4.285,0,0,0,42.57-4.3c0-2.9-1.782-4.194-3.978-4.194a3.789,3.789,0,0,0-1.962.522l.324-3.816H41.94v-1.4H35.514L35.1-7.02l.882.54a3.59,3.59,0,0,1,2.2-.774c1.656,0,2.736,1.116,2.736,3.006a2.852,2.852,0,0,1-2.808,3.114,4.341,4.341,0,0,1-3.24-1.458l-.81,1.08A5.605,5.605,0,0,0,38.25.234Z" transform="translate(158.421 129.177)"/>
  <path id="패스_8919" data-name="패스 8919" class="cls-10" d="M1.32,0H7.35V-1.14H5.145v-9.855H4.1a6.967,6.967,0,0,1-2.28.78v.87h1.95V-1.14H1.32ZM9.15,2.85A3.338,3.338,0,0,0,11.34-.285c0-1.005-.435-1.62-1.155-1.62a.975.975,0,0,0-1.035.96.94.94,0,0,0,1.005.96A.615.615,0,0,0,10.32,0a2.249,2.249,0,0,1-1.5,2.04ZM16.1.2c2.07,0,3.45-1.245,3.45-2.85a3.209,3.209,0,0,0-1.86-2.88V-5.61a3.605,3.605,0,0,0,1.47-2.655A2.781,2.781,0,0,0,16.14-11.16a2.789,2.789,0,0,0-3.015,2.79A3.057,3.057,0,0,0,14.61-5.835v.075a3.522,3.522,0,0,0-2.025,3.03C12.585-1.035,14.07.2,16.1.2Zm.75-6.165c-1.29-.51-2.475-1.08-2.475-2.4a1.69,1.69,0,0,1,1.74-1.785A1.835,1.835,0,0,1,17.985-8.19,2.95,2.95,0,0,1,16.845-5.97Zm-.72,5.145a2.108,2.108,0,0,1-2.3-2.025,2.989,2.989,0,0,1,1.5-2.49c1.56.63,2.91,1.185,2.91,2.655A1.9,1.9,0,0,1,16.125-.825ZM23.9.2c1.95,0,3.525-1.17,3.525-3.135a2.827,2.827,0,0,0-2.34-2.79v-.06a2.741,2.741,0,0,0,1.965-2.655c0-1.77-1.35-2.76-3.195-2.76a4.4,4.4,0,0,0-3.075,1.32l.735.87a3.431,3.431,0,0,1,2.28-1.1,1.718,1.718,0,0,1,1.86,1.77c0,1.185-.78,2.1-3.045,2.1v1.05c2.535,0,3.42.885,3.42,2.2A2.025,2.025,0,0,1,23.79-.945,3.635,3.635,0,0,1,21.06-2.2l-.69.9A4.552,4.552,0,0,0,23.9.2Zm8.25,0c2.07,0,3.45-1.245,3.45-2.85a3.209,3.209,0,0,0-1.86-2.88V-5.61A3.605,3.605,0,0,0,35.2-8.265,2.781,2.781,0,0,0,32.19-11.16a2.789,2.789,0,0,0-3.015,2.79A3.057,3.057,0,0,0,30.66-5.835v.075a3.522,3.522,0,0,0-2.025,3.03C28.635-1.035,30.12.2,32.145.2ZM32.9-5.97c-1.29-.51-2.475-1.08-2.475-2.4a1.69,1.69,0,0,1,1.74-1.785A1.835,1.835,0,0,1,34.035-8.19,2.95,2.95,0,0,1,32.9-5.97Zm-.72,5.145a2.108,2.108,0,0,1-2.3-2.025,2.989,2.989,0,0,1,1.5-2.49c1.56.63,2.91,1.185,2.91,2.655A1.9,1.9,0,0,1,32.175-.825Z" transform="translate(166.907 194.236)"/>
  <path id="패스_8918" data-name="패스 8918" class="cls-10" d="M3.96.2C5.91.2,7.485-.975,7.485-2.94a2.827,2.827,0,0,0-2.34-2.79v-.06A2.741,2.741,0,0,0,7.11-8.445c0-1.77-1.35-2.76-3.195-2.76A4.4,4.4,0,0,0,.84-9.885l.735.87a3.431,3.431,0,0,1,2.28-1.1,1.718,1.718,0,0,1,1.86,1.77c0,1.185-.78,2.1-3.045,2.1v1.05c2.535,0,3.42.885,3.42,2.2A2.025,2.025,0,0,1,3.855-.945,3.635,3.635,0,0,1,1.125-2.2l-.69.9A4.552,4.552,0,0,0,3.96.2ZM9.15,2.85A3.338,3.338,0,0,0,11.34-.285c0-1.005-.435-1.62-1.155-1.62a.975.975,0,0,0-1.035.96.94.94,0,0,0,1.005.96A.615.615,0,0,0,10.32,0a2.249,2.249,0,0,1-1.5,2.04ZM16.08.2c2.085,0,3.42-1.905,3.42-5.73s-1.335-5.67-3.42-5.67-3.435,1.845-3.435,5.67S13.98.2,16.08.2Zm0-1.095c-1.26,0-2.1-1.4-2.1-4.635,0-3.21.84-4.56,2.1-4.56s2.085,1.35,2.085,4.56C18.165-2.3,17.325-.9,16.08-.9Zm5.58-3.225,2.5-3.75c.315-.54.615-1.08.885-1.62h.06c-.03.57-.09,1.455-.09,1.995v3.375Zm6.12,0H26.325v-6.87H24.81L20.235-3.93v.9H25.02V0h1.3V-3.03H27.78ZM32.145.2c2.07,0,3.45-1.245,3.45-2.85a3.209,3.209,0,0,0-1.86-2.88V-5.61A3.605,3.605,0,0,0,35.2-8.265,2.781,2.781,0,0,0,32.19-11.16a2.789,2.789,0,0,0-3.015,2.79A3.057,3.057,0,0,0,30.66-5.835v.075a3.522,3.522,0,0,0-2.025,3.03C28.635-1.035,30.12.2,32.145.2ZM32.9-5.97c-1.29-.51-2.475-1.08-2.475-2.4a1.69,1.69,0,0,1,1.74-1.785A1.835,1.835,0,0,1,34.035-8.19,2.95,2.95,0,0,1,32.9-5.97Zm-.72,5.145a2.108,2.108,0,0,1-2.3-2.025,2.989,2.989,0,0,1,1.5-2.49c1.56.63,2.91,1.185,2.91,2.655A1.9,1.9,0,0,1,32.175-.825Z" transform="translate(166.907 238.816)"/>
  <path id="패스_8917" data-name="패스 8917" class="cls-10" d="M.63,0H6.776V-.728H3.6c-.532,0-1.12.042-1.68.084C4.634-3.178,6.286-5.32,6.286-7.462a2.674,2.674,0,0,0-2.828-2.926,3.752,3.752,0,0,0-2.87,1.47l.518.49A3.04,3.04,0,0,1,3.374-9.7,2.006,2.006,0,0,1,5.46-7.434C5.46-5.586,4.088-3.486.63-.5ZM11.046.182c1.848,0,3-1.736,3-5.32,0-3.542-1.148-5.25-3-5.25s-3.01,1.708-3.01,5.25C8.036-1.554,9.184.182,11.046.182Zm0-.686c-1.33,0-2.2-1.54-2.2-4.634,0-3.038.868-4.564,2.2-4.564S13.23-8.176,13.23-5.138C13.23-2.044,12.362-.5,11.046-.5Zm4.83.5H21.14V-.714H19.012v-9.492h-.658a5.859,5.859,0,0,1-1.946.644v.546h1.778v8.3h-2.31Zm9.506-4.578c-1.414,0-2.044-1.078-2.044-2.548s.826-2.59,1.932-2.59c1.6,0,2.408,1.414,2.492,3.64A3.057,3.057,0,0,1,25.382-4.578ZM22.736-.8a2.98,2.98,0,0,0,2.254.98c1.862,0,3.584-1.54,3.584-5.838,0-3.08-1.316-4.732-3.29-4.732a3,3,0,0,0-2.758,3.262c0,2.072,1.05,3.206,2.758,3.206a3.324,3.324,0,0,0,2.492-1.358C27.692-1.75,26.418-.518,25-.518a2.3,2.3,0,0,1-1.778-.812Z" transform="translate(104.054 327.449)"/>
  <path id="패스_8916" data-name="패스 8916" class="cls-4" d="M.66,0H7.785V-1.47H5.025c-.54,0-1.23.045-1.8.1C5.565-3.6,7.26-5.8,7.26-7.935A3.122,3.122,0,0,0,3.93-11.25,4.332,4.332,0,0,0,.57-9.6l.975.96A2.994,2.994,0,0,1,3.72-9.87,1.8,1.8,0,0,1,5.595-7.845C5.595-6.03,3.915-3.885.66-1ZM12.54.2c2.16,0,3.57-1.92,3.57-5.76,0-3.81-1.41-5.685-3.57-5.685-2.175,0-3.57,1.86-3.57,5.685C8.97-1.725,10.365.2,12.54.2Zm0-1.365c-1.125,0-1.92-1.2-1.92-4.395,0-3.165.795-4.32,1.92-4.32s1.92,1.155,1.92,4.32C14.46-2.37,13.665-1.17,12.54-1.17ZM17.19,0h7.125V-1.47h-2.76c-.54,0-1.23.045-1.8.1C22.1-3.6,23.79-5.8,23.79-7.935a3.122,3.122,0,0,0-3.33-3.315A4.332,4.332,0,0,0,17.1-9.6l.975.96A2.994,2.994,0,0,1,20.25-9.87a1.8,1.8,0,0,1,1.875,2.025c0,1.815-1.68,3.96-4.935,6.84ZM29.07.2c2.16,0,3.57-1.92,3.57-5.76,0-3.81-1.41-5.685-3.57-5.685S25.5-9.39,25.5-5.565C25.5-1.725,26.9.2,29.07.2Zm0-1.365c-1.125,0-1.92-1.2-1.92-4.395,0-3.165.8-4.32,1.92-4.32s1.92,1.155,1.92,4.32C30.99-2.37,30.195-1.17,29.07-1.17Zm7.545,4.155,1.08-.48a14.006,14.006,0,0,1-1.89-7.2,14.083,14.083,0,0,1,1.89-7.2l-1.08-.465A14.135,14.135,0,0,0,34.4-4.695,14.148,14.148,0,0,0,36.615,2.985ZM39.555,0h1.74V-4.185H42.96c2.4,0,4.155-1.11,4.155-3.525,0-2.49-1.755-3.33-4.215-3.33H39.555Zm1.74-5.58V-9.645h1.44c1.755,0,2.67.48,2.67,1.935s-.84,2.13-2.61,2.13Zm8,8.565a14.033,14.033,0,0,0,2.235-7.68A14.019,14.019,0,0,0,49.29-12.36l-1.08.465a14.083,14.083,0,0,1,1.89,7.2,14.006,14.006,0,0,1-1.89,7.2Z" transform="translate(220.192 328.33)"/>
  <path id="패스_254" data-name="패스 254" class="cls-18" d="M3555.246,8157.93h100.6l20.358,14.164h102.563" transform="translate(-3452.65 -7984.893)"/>
  <path id="패스_255" data-name="패스 255" class="cls-18" d="M3555.246,8202.5h100.6l20.358,27.664h103" transform="translate(-3452.65 -7984.893)"/>
  <path id="패스_256" data-name="패스 256" class="cls-18" d="M3555.246,8124.326h100.6l20.358-115.874h103" transform="translate(-3452.65 -7984.893)"/>
</svg>
