<svg id="구성_요소_34_1" data-name="구성 요소 34 – 1" xmlns="http://www.w3.org/2000/svg" width="418" height="339" viewBox="0 0 418 339">
  <defs>
    <style>
      .cls-1 {
        fill: #f9fafa;
      }

      .cls-2, .cls-5 {
        fill: none;
        stroke: #5e6366;
      }

      .cls-3 {
        fill: #92bc49;
      }

      .cls-4 {
        fill: #fff;
      }

      .cls-5 {
        stroke-miterlimit: 10;
      }

      .cls-6, .cls-7 {
        fill: #1e2323;
      }

      .cls-7 {
        font-size: 15px;
        font-family: NotoSansKR-Medium, Noto Sans KR;
        font-weight: 500;
      }
    </style>
  </defs>
  <rect id="사각형_128" data-name="사각형 128" class="cls-1" width="418" height="339"/>
  <line id="선_928" data-name="선 928" class="cls-2" y2="57.5" transform="translate(37 91.5)"/>
  <line id="선_929" data-name="선 929" class="cls-2" x1="4.5" transform="translate(34.75 91.5)"/>
  <line id="선_930" data-name="선 930" class="cls-2" y2="57.5" transform="translate(37 211.5)"/>
  <line id="선_931" data-name="선 931" class="cls-2" x1="4.5" transform="translate(34.75 211.5)"/>
  <g id="그룹_114" data-name="그룹 114" transform="translate(-2959 -7951)">
    <path id="패스_257" data-name="패스 257" class="cls-3" d="M2996,8027.762A16.762,16.762,0,1,0,2979.238,8011,16.761,16.761,0,0,0,2996,8027.762"/>
  </g>
  <path id="패스_8907" data-name="패스 8907" class="cls-4" d="M1.2,0h5.88V-1.33H5.068V-10.3H3.85a6.33,6.33,0,0,1-2.24.784V-8.5H3.458V-1.33H1.2Z" transform="translate(33.01 66.16)"/>
  <g id="그룹_115" data-name="그룹 115" transform="translate(-2959 -7951)">
    <path id="패스_258" data-name="패스 258" class="cls-5" d="M2996,7990.5a20.493,20.493,0,1,0,11.066,3.24"/>
  </g>
  <path id="패스_259" data-name="패스 259" class="cls-5" d="M3005.907,7996.139l-1-3.923,3.957-.716" transform="translate(-2959 -7951)"/>
  <path id="패스_8905" data-name="패스 8905" class="cls-6" d="M3.09-6.165H7.815V-11.19H1.5v1.26H6.255v2.52H1.53v5.37H2.685A37.3,37.3,0,0,0,9.42-2.52L9.255-3.78a38.781,38.781,0,0,1-6.165.465Zm7.29-6.255V1.185h1.56V-12.42Zm6.945,2.6H19.14V-3.45c-.6.045-1.23.06-1.815.075Zm3.315,0h1.4V-11.07H14.55v1.245h1.275v6.48c-.57.015-1.14.015-1.65.015l.15,1.275a53.016,53.016,0,0,0,8.2-.51l-.1-1.14c-.57.075-1.185.135-1.785.18Zm3.315-2.565v5.025h-2.34v1.26h2.34V1.17h1.56V-12.39Zm3.81,10.575V-.54h12.27V-1.815Zm1.38-9.645v7.14h9.48v-7.14H37.1v2.37h-6.42v-2.37Zm1.53,3.6H37.1v2.295h-6.42Zm21.63-3.39H49.23v-1.26H47.67v1.26h-3.1v1.125h7.74Zm-5.64,3.57c0-.615.69-.99,1.77-.99s1.77.375,1.77.99-.69.96-1.77.96S46.665-7.08,46.665-7.68ZM52.68-5.19c-1.1.165-2.28.24-3.45.3v-.84c1.5-.18,2.43-.885,2.43-1.95,0-1.26-1.275-2.025-3.225-2.025S45.21-8.94,45.21-7.68c0,1.065.93,1.785,2.46,1.95v.9c-1.245.03-2.43.03-3.45.03l.18,1.23a51.07,51.07,0,0,0,8.4-.54ZM45.9-1.395h7.5V1.17h1.545v-3.8H45.9Zm10.9-6.99h-1.86v-3.99H53.4v9.15h1.545V-7.11h1.86Zm3-1.14H63.3v-1.26H58.29V-2.07h.9a24.435,24.435,0,0,0,4.935-.375L63.99-3.72a20.788,20.788,0,0,1-4.185.375Zm8.115-2.88V-7.05h-1.6v-5.07H64.86V.48h1.455V-5.79h1.6V1.14h1.47V-12.405ZM74.385-3.18c-.93,0-1.5-1.215-1.5-3.36s.57-3.345,1.5-3.345,1.5,1.2,1.5,3.345S75.315-3.18,74.385-3.18ZM78.72-7.26H77.265C77.1-9.8,76-11.34,74.385-11.34c-1.755,0-2.91,1.83-2.91,4.8s1.155,4.815,2.91,4.815c1.65,0,2.76-1.62,2.9-4.26h1.44V.51h1.44V-12.135H78.72Zm2.715-5.13V1.14H82.9V-12.39Zm8.34,2.64h1.92v-1.245H88.26V-2.28h.63a14.113,14.113,0,0,0,3.045-.255L91.8-3.795a15.17,15.17,0,0,1-2.025.225Zm4.185,0h2.085v-1.245H92.43V-2.28h.675a13.159,13.159,0,0,0,3.39-.285l-.15-1.26a11.346,11.346,0,0,1-2.385.27Zm6.5,2.565h-1.8v-5.22H97.1V1.17h1.56V-5.895h1.8Zm10.155-2.4h-7.65V-6.03h9.45V-7.215h-7.935v-1.26h7.665V-12h-9.21v1.185h7.68Zm-6.09,6.8h-1.545V.9h9.465V-.36h-7.92Zm-3.135-2.175V-3.72h12.3V-4.965Zm27.765-7.41H127.6v9.96h1.545ZM126.36-5.4a4.192,4.192,0,0,1-3.315-3.84v-.225h2.91v-1.23h-2.91V-12.33H121.5v1.635h-2.94v1.23h2.94v.225a4.377,4.377,0,0,1-3.315,4.08l.75,1.215a5.394,5.394,0,0,0,3.36-2.985,5.323,5.323,0,0,0,3.345,2.745Zm-4.5,5.04V-3.33H120.3V.9h9.24V-.36Zm17.6-10.815H136.38V-12.45h-1.56v1.275h-3.1v1.14h7.74Zm-5.64,3.705c0-.645.69-1.035,1.77-1.035s1.77.39,1.77,1.035c0,.63-.69,1-1.77,1S133.815-6.84,133.815-7.47Zm6.015,2.55c-1.1.165-2.28.255-3.45.33v-.855c1.5-.18,2.43-.93,2.43-2.025,0-1.29-1.275-2.085-3.225-2.085s-3.225.8-3.225,2.085c0,1.11.945,1.845,2.46,2.025v.93c-1.245.03-2.445.045-3.45.045l.18,1.23a48.492,48.492,0,0,0,8.4-.615Zm-4.95,2.445h-1.545V.9h9.225V-.36h-7.68ZM142.1-7.8v-4.605H140.55V-1.8H142.1V-6.525h1.86V-7.8Zm12.57-1.005v1.56H151.38v1.26h3.285v1.56h1.545V-12.39h-1.545v2.325h-2.79a7.659,7.659,0,0,0,.12-1.35h-6.15v1.245h4.5c-.27,2.115-2.025,3.78-5.205,4.665l.615,1.23c2.925-.855,4.92-2.37,5.76-4.53ZM151.77-.12c-1.83,0-2.985-.525-2.985-1.47,0-.93,1.155-1.455,2.985-1.455s3,.525,3,1.455C154.77-.645,153.615-.12,151.77-.12Zm0-4.14c-2.745,0-4.515,1.02-4.515,2.67,0,1.665,1.77,2.685,4.515,2.685S156.3.075,156.3-1.59C156.3-3.24,154.515-4.26,151.77-4.26Zm10.56-6.7V-9.7h4.83c-.27,3.12-1.95,5.505-5.505,7.215l.825,1.23c4.65-2.25,6.27-5.67,6.27-9.705ZM171.2-12.39V1.155h1.545V-12.39ZM184.755-.255H179.01v-1.5h5.745Zm0-2.7H179.01v-1.53h-1.53V.99h8.805V-4.485h-1.53Zm-5.97-3.765a1.893,1.893,0,0,1-2.055-1.9,1.874,1.874,0,0,1,2.055-1.89,1.877,1.877,0,0,1,2.04,1.89A1.9,1.9,0,0,1,178.785-6.72Zm5.955-5.67v3.12h-2.505a3.286,3.286,0,0,0-3.45-2.52,3.248,3.248,0,0,0-3.54,3.165,3.251,3.251,0,0,0,3.54,3.18,3.273,3.273,0,0,0,3.45-2.565h2.505v2.88h1.545v-7.26Zm16.485-.015V1.185h1.56v-13.59ZM195.57-11.4c-2.01,0-3.48,1.86-3.48,4.77,0,2.94,1.47,4.785,3.48,4.785s3.495-1.845,3.495-4.785C199.065-9.54,197.6-11.4,195.57-11.4Zm0,1.395c1.185,0,2.01,1.275,2.01,3.375,0,2.13-.825,3.4-2.01,3.4s-2-1.275-2-3.4C193.575-8.73,194.4-10.005,195.57-10.005Zm10.29-1.11V-2.16h6.36v-8.955Zm4.845,1.23V-3.4h-3.33v-6.48Zm4.02-2.52V1.185h1.56v-13.59Zm8.91,2.64h3.015V-11.04h-7.59v1.275h3.015v1.29a6.624,6.624,0,0,1-3.495,5.82l.885,1.23a6.987,6.987,0,0,0,3.4-4.26,6.639,6.639,0,0,0,3.42,3.915l.855-1.215a6.111,6.111,0,0,1-3.51-5.49Zm4.59-2.625V1.155h1.56V-12.39Zm7.545.945v1.26h4.65c-.27,2.1-2.115,3.81-5.25,4.71l.63,1.23c3.96-1.14,6.3-3.66,6.3-7.2ZM241.47-.06c-1.8,0-2.94-.54-2.94-1.47,0-.945,1.14-1.485,2.94-1.485s2.94.54,2.94,1.485C244.41-.6,243.285-.06,241.47-.06Zm0-4.185c-2.7,0-4.47,1.035-4.47,2.715,0,1.665,1.77,2.685,4.47,2.685s4.47-1.02,4.47-2.685C245.94-3.21,244.185-4.245,241.47-4.245Zm4.32-4.8V-12.39h-1.545v7.965h1.545V-7.77h1.92V-9.045Zm11.055-1.785H253.6v-1.53H252.06v1.53h-3.27v1.245h8.055ZM251.04-6.375c0-.84.735-1.35,1.8-1.35s1.785.51,1.785,1.35c0,.825-.72,1.335-1.785,1.335S251.04-5.55,251.04-6.375Zm2.565,2.46a2.582,2.582,0,0,0,2.475-2.46c0-1.53-1.32-2.535-3.24-2.535s-3.255,1-3.255,2.535a2.593,2.593,0,0,0,2.475,2.46v1.32c-1.26.045-2.475.045-3.51.045l.21,1.275a49.431,49.431,0,0,0,8.355-.54l-.12-1.14c-1.08.165-2.235.24-3.39.3Zm7.635-2.82H259.3v-5.67H257.76V1.155H259.3V-5.46h1.935Z" transform="translate(72.365 55.6)"/>
  <text id="_" data-name="
" class="cls-7" transform="translate(342.665 55.6)"><tspan x="0" y="0"></tspan><tspan x="0" y="18"></tspan></text>
  <path id="패스_8906" data-name="패스 8906" class="cls-6" d="M.6-5.07H11.745A11.146,11.146,0,0,0,9.51-2.79l1.1.615A16.564,16.564,0,0,1,14.475-5.7a16.564,16.564,0,0,1-3.87-3.525l-1.1.615a11.146,11.146,0,0,0,2.235,2.28H.6ZM27.9-9.8a29.157,29.157,0,0,1-.525,6.2l1.56.165A31.014,31.014,0,0,0,29.46-9.8V-11.13H19.815v1.26H27.9ZM24.66-1.89V-6.66H23.1v4.77H18.54V-.615H30.78V-1.89Zm7.95-9.525v1.245h3.72c-.255,2.085-1.65,3.69-4.32,4.74l.735,1.11c3.48-1.4,5.175-3.765,5.175-7.1ZM34.29-2.58h7.665V1.17H43.5V-3.825H34.29Zm7.74-9.81V-9.1h-1.5v-3.03H39.075V-4.5H40.53V-7.845h1.5V-4.44H43.5v-7.95Zm8.745.72a3.421,3.421,0,0,0-1.98,3.18c0,1.11.435,1.74,1.23,1.74a.989.989,0,0,0,1.02-1.065.968.968,0,0,0-1.02-.99.615.615,0,0,0-.165.015,2.359,2.359,0,0,1,1.365-2.1Zm3.3,0a3.421,3.421,0,0,0-1.98,3.18c0,1.11.435,1.74,1.215,1.74a.992.992,0,0,0,1.035-1.065.972.972,0,0,0-1.035-.99.51.51,0,0,0-.15.015,2.359,2.359,0,0,1,1.365-2.1Zm6.39.225c-2.115,0-3.675,1.335-3.675,3.255s1.56,3.255,3.675,3.255,3.69-1.335,3.69-3.255S62.58-11.445,60.465-11.445Zm0,1.32A1.961,1.961,0,0,1,62.64-8.19a1.969,1.969,0,0,1-2.175,1.935,1.964,1.964,0,0,1-2.16-1.935A1.956,1.956,0,0,1,60.465-10.125Zm5.22-2.28V1.17h1.56V-12.405Zm-9.33,10.71a47.15,47.15,0,0,0,8.625-.6l-.1-1.125a61.925,61.925,0,0,1-8.715.45ZM77.82-6.24a4.489,4.489,0,0,1-3.285-4.215v-1.32H72.96v1.32A4.743,4.743,0,0,1,69.63-6l.765,1.215a5.6,5.6,0,0,0,3.375-3.2,5.46,5.46,0,0,0,3.285,2.955ZM71.625-2.385h7.59v3.54H80.76V-3.63H71.625Zm7.59-10.02v8.13H80.76v-8.13Zm18.12.03H95.79V-4.68h1.545Zm-7.305,2.01a1.922,1.922,0,0,1,2.085,1.92,1.913,1.913,0,0,1-2.085,1.92,1.913,1.913,0,0,1-2.085-1.92A1.922,1.922,0,0,1,90.03-10.365Zm0,5.115a3.276,3.276,0,0,0,3.585-3.2A3.276,3.276,0,0,0,90.03-11.64c-2.07,0-3.6,1.305-3.6,3.195S87.96-5.25,90.03-5.25ZM95.9-4.1H94.38v.6a3.9,3.9,0,0,1-1.77,3.1,3.639,3.639,0,0,1-1.71-3.1v-.6H89.4v.6a3.659,3.659,0,0,1-2.625,3.33l.75,1.14a4.572,4.572,0,0,0,2.625-2.4A4.25,4.25,0,0,0,92.64,1.1a4.574,4.574,0,0,0,2.475-2.55A4.372,4.372,0,0,0,97.77.975l.765-1.14a3.509,3.509,0,0,1-2.64-3.33ZM110.55-8.5H102.8V-11.91H101.25v4.665h9.3Zm-7.845,5.37H101.16V.855h9.465V-.39h-7.92ZM99.66-5.625V-4.38h12.3V-5.625ZM128-5.985c-2.67-.45-4.845-2.46-4.845-4.56v-1.02h-1.635v1.02c0,2.085-2.175,4.11-4.86,4.56l.66,1.29A7.139,7.139,0,0,0,122.34-8.28a7.021,7.021,0,0,0,5.01,3.585ZM123.09-1.8V-4.965h-1.545V-1.8H116.25V-.525h12.27V-1.8Zm16.245-10.605V1.185h1.56v-13.59ZM130.47-11.28v9.24h6.51v-9.24h-1.545v3.45H132v-3.45ZM132-6.6h3.435v3.315H132Zm12.015-.255a3.425,3.425,0,0,0,1.995-3.18c0-1.11-.45-1.74-1.23-1.74a.97.97,0,0,0-1.005,1.065.953.953,0,0,0,1.005.975.51.51,0,0,0,.15-.015,2.365,2.365,0,0,1-1.35,2.115Zm3.3,0a3.425,3.425,0,0,0,1.995-3.18c0-1.11-.45-1.74-1.23-1.74a.981.981,0,0,0-1.02,1.065.965.965,0,0,0,1.02.975.51.51,0,0,0,.15-.015,2.365,2.365,0,0,1-1.35,2.115Zm12.6-3.795c1.935,0,3.21.66,3.21,1.74s-1.275,1.755-3.21,1.755-3.225-.66-3.225-1.755S157.965-10.65,159.915-10.65Zm0,4.74c2.85,0,4.8-1.17,4.8-3,0-1.815-1.95-2.985-4.8-2.985S155.1-10.725,155.1-8.91C155.1-7.08,157.05-5.91,159.915-5.91Zm6.165,1.155H153.795V-3.48h3V1.155h1.575V-3.48h3.09V1.155h1.575V-3.48h3.06Zm8.115,3.015V-4.935H178.2V-6.18h-7.845v-3.945h7.725V-11.37h-9.27v6.435h3.84V-1.74h-5.34V-.465h12.27V-1.74Z" transform="translate(72.365 78.596)"/>
  <g id="그룹_116" data-name="그룹 116" transform="translate(-2959 -7951)">
    <path id="패스_260" data-name="패스 260" class="cls-3" d="M2996,8147.762A16.762,16.762,0,1,0,2979.238,8131,16.761,16.761,0,0,0,2996,8147.762"/>
  </g>
  <path id="패스_8908" data-name="패스 8908" class="cls-4" d="M.616,0h6.65V-1.372H4.69c-.5,0-1.148.042-1.68.1C5.194-3.36,6.776-5.418,6.776-7.406A2.914,2.914,0,0,0,3.668-10.5,4.043,4.043,0,0,0,.532-8.96l.91.9a2.8,2.8,0,0,1,2.03-1.148,1.68,1.68,0,0,1,1.75,1.89c0,1.694-1.568,3.7-4.606,6.384Z" transform="translate(33.01 186.16)"/>
  <g id="그룹_117" data-name="그룹 117" transform="translate(-2959 -7951)">
    <path id="패스_261" data-name="패스 261" class="cls-5" d="M2996,8110.5a20.493,20.493,0,1,0,11.066,3.24"/>
  </g>
  <path id="패스_262" data-name="패스 262" class="cls-5" d="M3005.907,8116.139l-1-3.923,3.957-.716" transform="translate(-2959 -7951)"/>
  <path id="패스_8909" data-name="패스 8909" class="cls-6" d="M8.52-6.615a26.479,26.479,0,0,1-5.655.435v-3.84H7.35v-1.26H1.32V-4.9h1.1A28.107,28.107,0,0,0,8.67-5.37Zm-4.2,3.03H2.76V.9h9.12V-.36H4.32ZM11.34-8.52v-3.885H9.8v9.81H11.34v-4.65h1.92V-8.52Zm14.49.7c-2.655-.375-4.65-2.01-4.65-3.675v-.555H19.59v.555c0,1.71-1.98,3.33-4.65,3.7l.6,1.23A6.671,6.671,0,0,0,20.385-9.51a6.721,6.721,0,0,0,4.86,2.91ZM17.3-3.045H15.75V.9h9.42V-.36H17.3ZM14.25-5.595V-4.35h5.49v2.535h1.545V-4.35h5.25V-5.595Zm19.1-3.945h1.4v6.165l-1.4.045Zm2.775,0h1v-1.245H30.96V-9.54h.99V-3.3H30.69l.18,1.275a41.082,41.082,0,0,0,6.585-.435l-.1-1.125c-.39.045-.8.075-1.23.12Zm2.25.945H36.81v1.26h1.56V-5.79H36.81v1.26h1.56V.48h1.455V-12.09H38.37Zm2.64-3.81V1.155H42.5v-13.56Zm4.095,1.44V-9.7h4.83c-.27,3.12-1.95,5.505-5.505,7.215l.825,1.23c4.65-2.25,6.27-5.67,6.27-9.705ZM53.97-12.39V1.155h1.545V-12.39Zm4.53,1.425V-9.7h4.74c-.315,3.12-2.1,5.505-5.415,7.2L58.68-1.32a10.191,10.191,0,0,0,6.105-9.645ZM70.38-7.05H68.325v-5.355H66.78V1.14h1.545v-6.9H70.38Zm7.635,3.825c-1.185,0-1.995-1.275-1.995-3.39s.81-3.39,1.995-3.39,2,1.275,2,3.39S79.185-3.225,78.015-3.225Zm0-8.175c-2.025,0-3.48,1.86-3.48,4.785s1.455,4.77,3.48,4.77S81.5-3.69,81.5-6.615,80.04-11.4,78.015-11.4Zm9,4.3H84.9V-12.39H83.355V1.17H84.9V-5.82h2.115Zm12.06-5.295H97.53v9.84h1.545ZM96.24-6.9a29.2,29.2,0,0,1-5.97.585v-5.07H88.725V-5.04H89.85a31.689,31.689,0,0,0,6.57-.6ZM91.695-.36V-3.615H90.15V.9h9.315V-.36Zm16.9-9.285h2.235V-10.92h-6.12v1.275H107.1v.975c0,2.415-.9,4.86-2.82,6.06l.93,1.14a6.713,6.713,0,0,0,2.655-3.99,6.165,6.165,0,0,0,2.6,3.66l.9-1.125c-1.89-1.1-2.76-3.435-2.76-5.745Zm3.24,2.01h-1.995v1.26h1.995V.5h1.455v-12.63H111.84Zm2.73-4.77V1.14h1.47V-12.405Zm11.085,4.14h-3.12v-2.49h3.12Zm-4.665,0h-1.845V-7.02h9.885V-8.265H127.2v-2.49h1.9V-12H119.07v1.245h1.92ZM127.23-.24h-6.255V-2.085h6.255Zm3-4.455V-5.94H117.975v1.245h5.355v1.38h-3.885V.99h9.3V-3.315h-3.87v-1.38Zm8.46-4.935h2.265V-10.9h-6.21V-9.63h2.445v.75c0,2.685-.855,5.04-2.82,6.18l.945,1.155a6.212,6.212,0,0,0,2.67-3.9A5.8,5.8,0,0,0,140.61-2.01l.9-1.185c-1.965-1.02-2.82-3.24-2.82-5.685Zm6.03-2.775V-7.05h-1.485v-5.1H141.78V.525h1.455v-6.3h1.485v6.93h1.47v-13.56Zm8.085,1.14H151.26v2.22a6.856,6.856,0,0,1-3.435,6.105l.945,1.245a7,7,0,0,0,3.27-4.245,6.746,6.746,0,0,0,3.12,3.99l.945-1.23a6.573,6.573,0,0,1-3.3-5.865Zm7.86,4.245H158.55v-5.37h-1.545V1.155h1.545v-6.9h2.115Zm6.99,6.99c-1.98,0-3.09-.42-3.09-1.245s1.11-1.245,3.09-1.245,3.105.435,3.105,1.245S169.635-.03,167.655-.03Zm0-3.675c-2.91,0-4.665.885-4.665,2.43,0,1.56,1.755,2.43,4.665,2.43,2.925,0,4.665-.87,4.665-2.43C172.32-2.82,170.58-3.7,167.655-3.7Zm-1.65-3.48a11.484,11.484,0,0,0,1.68.12,11.062,11.062,0,0,0,1.65-.12V-5.8h-3.33Zm1.68-3.78c2.01,0,3.225.48,3.225,1.35S169.7-8.25,167.685-8.25s-3.24-.495-3.24-1.365S165.66-10.965,167.685-10.965Zm3.2,5.16V-7.59a2.282,2.282,0,0,0,1.635-2.025c0-1.59-1.875-2.55-4.83-2.55s-4.83.96-4.83,2.55a2.237,2.237,0,0,0,1.605,2.01v1.8h-2.91v1.23h12.255V-5.8ZM186.1-11.25H183.03v-1.26h-1.56v1.26h-3.1v1.125h7.74Zm-5.64,3.57c0-.615.69-.99,1.77-.99s1.77.375,1.77.99-.69.96-1.77.96S180.465-7.08,180.465-7.68Zm6.015,2.49c-1.1.165-2.28.24-3.45.3v-.84c1.5-.18,2.43-.885,2.43-1.95,0-1.26-1.275-2.025-3.225-2.025s-3.225.765-3.225,2.025c0,1.065.93,1.785,2.46,1.95v.9c-1.245.03-2.43.03-3.45.03l.18,1.23a51.07,51.07,0,0,0,8.4-.54ZM179.7-1.395h7.5V1.17h1.545v-3.8H179.7Zm10.9-6.99h-1.86v-3.99H187.2v9.15h1.545V-7.11h1.86Zm3-1.14h3.5v-1.26h-5.01V-2.07h.9a24.435,24.435,0,0,0,4.935-.375L197.79-3.72a20.788,20.788,0,0,1-4.185.375Zm8.115-2.88V-7.05h-1.6v-5.07H198.66V.48h1.455V-5.79h1.6V1.14h1.47V-12.405Z" transform="translate(72.365 186.6)"/>
  <g id="그룹_118" data-name="그룹 118" transform="translate(-2959 -7951)">
    <path id="패스_263" data-name="패스 263" class="cls-3" d="M2996,8267.762A16.761,16.761,0,1,0,2979.238,8251,16.761,16.761,0,0,0,2996,8267.762"/>
  </g>
  <path id="패스_8910" data-name="패스 8910" class="cls-4" d="M3.752.182C5.642.182,7.2-.91,7.2-2.772A2.609,2.609,0,0,0,5.068-5.348v-.07A2.491,2.491,0,0,0,6.846-7.84c0-1.708-1.3-2.66-3.15-2.66A4.343,4.343,0,0,0,.742-9.254l.84,1.008a3.017,3.017,0,0,1,2.058-.98,1.442,1.442,0,0,1,1.582,1.5c0,1.036-.672,1.806-2.7,1.806v1.19c2.324,0,3.052.742,3.052,1.89a1.73,1.73,0,0,1-1.96,1.708A3.33,3.33,0,0,1,1.176-2.268L.392-1.232A4.277,4.277,0,0,0,3.752.182Z" transform="translate(33.01 306.16)"/>
  <g id="그룹_119" data-name="그룹 119" transform="translate(-2959 -7951)">
    <path id="패스_264" data-name="패스 264" class="cls-5" d="M2996,8230.5a20.493,20.493,0,1,0,11.066,3.24"/>
  </g>
  <path id="패스_265" data-name="패스 265" class="cls-5" d="M3005.907,8236.139l-1-3.923,3.957-.716" transform="translate(-2959 -7951)"/>
  <path id="패스_8911" data-name="패스 8911" class="cls-6" d="M8.73-11.175H5.655V-12.45H4.1v1.275H.99v1.14H8.73ZM3.09-7.47c0-.645.69-1.035,1.77-1.035s1.77.39,1.77,1.035c0,.63-.69,1-1.77,1S3.09-6.84,3.09-7.47ZM9.1-4.92c-1.1.165-2.28.255-3.45.33v-.855c1.5-.18,2.43-.93,2.43-2.025,0-1.29-1.275-2.085-3.225-2.085s-3.225.8-3.225,2.085c0,1.11.945,1.845,2.46,2.025v.93c-1.245.03-2.445.045-3.45.045l.18,1.23a48.492,48.492,0,0,0,8.4-.615ZM4.155-2.475H2.61V.9h9.225V-.36H4.155ZM11.37-7.8v-4.605H9.825V-1.8H11.37V-6.525h1.86V-7.8ZM23.94-8.805v1.56H20.655v1.26H23.94v1.56h1.545V-12.39H23.94v2.325H21.15a7.66,7.66,0,0,0,.12-1.35H15.12v1.245h4.5c-.27,2.115-2.025,3.78-5.2,4.665l.615,1.23c2.925-.855,4.92-2.37,5.76-4.53ZM21.045-.12c-1.83,0-2.985-.525-2.985-1.47,0-.93,1.155-1.455,2.985-1.455s3,.525,3,1.455C24.045-.645,22.89-.12,21.045-.12Zm0-4.14c-2.745,0-4.515,1.02-4.515,2.67C16.53.075,18.3,1.1,21.045,1.1s4.53-1.02,4.53-2.685C25.575-3.24,23.79-4.26,21.045-4.26Zm12.7-3.7h6.42v2.22H33.75Zm3.975,6.2V-4.5H41.7v-6.99H40.17v2.28H33.75v-2.28H32.22V-4.5h3.96v2.73H30.84V-.5H43.11V-1.77ZM55.98-10.545H51.225V-12.21H49.68v1.665H44.9V-9.3H55.98Zm-8.475,4.62c0-.885,1.08-1.395,2.925-1.395s2.94.51,2.94,1.395c0,.9-1.08,1.41-2.94,1.41S47.505-5.025,47.505-5.925Zm3.72,4.335V-3.33c2.325-.18,3.72-1.095,3.72-2.6,0-1.635-1.74-2.6-4.515-2.6-2.76,0-4.5.96-4.5,2.6,0,1.5,1.425,2.43,3.75,2.6v1.74H44.325V-.315H56.61V-1.59Zm20.85-10.815h-1.56v7.74h1.56Zm-5.55,5.25h-3.4V-10.32h3.4Zm1.5-4.395h-6.42v5.625h6.42ZM72.33-2.64V-3.825H68.445V-5.04H66.87v1.215H62.985V-2.64H66.87C66.75-1.485,65-.3,62.46-.045l.51,1.17a6.593,6.593,0,0,0,4.695-2.3,6.57,6.57,0,0,0,4.65,2.3l.51-1.17C70.32-.315,68.58-1.53,68.46-2.64Zm16.9-3.345c-2.67-.45-4.845-2.46-4.845-4.56v-1.02H82.755v1.02c0,2.085-2.175,4.11-4.86,4.56l.66,1.29A7.139,7.139,0,0,0,83.58-8.28a7.021,7.021,0,0,0,5.01,3.585ZM84.33-1.8V-4.965H82.785V-1.8H77.49V-.525H89.76V-1.8Zm16.245-10.605V1.185h1.56v-13.59ZM91.71-11.28v9.24h6.51v-9.24H96.675v3.45H93.24v-3.45ZM93.24-6.6h3.435v3.315H93.24Zm15.99-3.165H112.1V-11.04H104.73v1.275h2.955V-8.46a6.727,6.727,0,0,1-3.45,5.805l.885,1.23A7.059,7.059,0,0,0,108.48-5.7a6.842,6.842,0,0,0,3.285,3.93l.855-1.215a6.346,6.346,0,0,1-3.39-5.475Zm7.86,2.715h-2.115v-5.34H113.43V1.155h1.545v-6.93h2.115Zm3.945,3.87c-.93,0-1.5-1.215-1.5-3.36s.57-3.345,1.5-3.345,1.5,1.2,1.5,3.345S121.965-3.18,121.035-3.18Zm4.335-4.08h-1.455c-.165-2.535-1.26-4.08-2.88-4.08-1.755,0-2.91,1.83-2.91,4.8s1.155,4.815,2.91,4.815c1.65,0,2.76-1.62,2.9-4.26h1.44V.51h1.44V-12.135h-1.44Zm2.715-5.13V1.14h1.47V-12.39Zm14.445,1.215h-3.075V-12.45H137.9v1.275h-3.1v1.14h7.74ZM136.89-7.47c0-.645.69-1.035,1.77-1.035s1.77.39,1.77,1.035c0,.63-.69,1-1.77,1S136.89-6.84,136.89-7.47ZM142.9-4.92c-1.1.165-2.28.255-3.45.33v-.855c1.5-.18,2.43-.93,2.43-2.025,0-1.29-1.275-2.085-3.225-2.085s-3.225.8-3.225,2.085c0,1.11.945,1.845,2.46,2.025v.93c-1.245.03-2.445.045-3.45.045l.18,1.23a48.492,48.492,0,0,0,8.4-.615Zm-4.95,2.445H136.41V.9h9.225V-.36h-7.68ZM145.17-7.8v-4.605h-1.545V-1.8h1.545V-6.525h1.86V-7.8Zm12.57-1.005v1.56h-3.285v1.26h3.285v1.56h1.545V-12.39H157.74v2.325h-2.79a7.659,7.659,0,0,0,.12-1.35h-6.15v1.245h4.5c-.27,2.115-2.025,3.78-5.205,4.665l.615,1.23c2.925-.855,4.92-2.37,5.76-4.53Zm-2.9,8.685c-1.83,0-2.985-.525-2.985-1.47,0-.93,1.155-1.455,2.985-1.455s3,.525,3,1.455C157.845-.645,156.69-.12,154.845-.12Zm0-4.14c-2.745,0-4.515,1.02-4.515,2.67,0,1.665,1.77,2.685,4.515,2.685s4.53-1.02,4.53-2.685C159.375-3.24,157.59-4.26,154.845-4.26ZM169.62-5.97a4.457,4.457,0,0,1-3.18-4.08V-10.3h2.82V-11.55h-7.245V-10.3h2.865v.27A4.682,4.682,0,0,1,161.55-5.7l.795,1.215a5.531,5.531,0,0,0,3.345-3.18,5.361,5.361,0,0,0,3.165,2.895Zm-5.97,3.585h7.59v3.54h1.545V-3.63H163.65Zm7.59-10.02V-9h-2.37v1.275h2.37V-4.3h1.545v-8.1Zm7.56,1.44V-9.7h4.74c-.315,3.12-2.1,5.505-5.415,7.2l.855,1.185a10.191,10.191,0,0,0,6.105-9.645ZM190.68-7.05h-2.055v-5.355H187.08V1.14h1.545v-6.9h2.055Zm6.075-1.815h2.94V-10.11h-2.94v-2.01H195.21v2.01h-3v1.245h3v.78a6.084,6.084,0,0,1-3.42,5.49l.855,1.185a6.558,6.558,0,0,0,3.36-3.99,6.414,6.414,0,0,0,3.345,3.765l.825-1.2a5.855,5.855,0,0,1-3.42-5.25Zm4.485-3.54V1.14h1.56V-12.405Zm18.135,0h-1.56v7.74h1.56Zm-5.55,5.25h-3.4V-10.32h3.4Zm1.5-4.395H208.9v5.625h6.42Zm4.3,8.91V-3.825h-3.885V-5.04H214.17v1.215h-3.885V-2.64h3.885c-.12,1.155-1.875,2.34-4.41,2.595l.51,1.17a6.593,6.593,0,0,0,4.695-2.3,6.57,6.57,0,0,0,4.65,2.3l.51-1.17c-2.505-.27-4.245-1.485-4.365-2.595Zm5.82-8.325V-9.7h4.74c-.315,3.12-2.1,5.505-5.415,7.2l.855,1.185a10.191,10.191,0,0,0,6.105-9.645ZM237.33-7.05h-2.055v-5.355H233.73V1.14h1.545v-6.9h2.055Zm10.635,2.64h1.545v-8h-1.545V-9.69H245.22v1.26h2.745ZM246.33-6.165a4.405,4.405,0,0,1-3.18-4.245v-1.26h-1.56v1.335a4.74,4.74,0,0,1-3.36,4.545l.81,1.245a5.6,5.6,0,0,0,3.375-3.27A5.258,5.258,0,0,0,245.5-4.95Zm-1.335,6.1c-1.92,0-3.015-.5-3.015-1.38s1.1-1.38,3.015-1.38,3.03.495,3.03,1.38S246.915-.06,244.995-.06Zm0-3.975c-2.82,0-4.56.96-4.56,2.595s1.74,2.6,4.56,2.6,4.575-.96,4.575-2.6S247.83-4.035,244.995-4.035Zm16.38-8.37V1.185h1.56v-13.59ZM252.51-11.28v9.24h6.51v-9.24h-1.545v3.45H254.04v-3.45Zm1.53,4.68h3.435v3.315H254.04Zm18.435-3.045h2.235V-10.92h-6.12v1.275h2.385v.975c0,2.415-.9,4.86-2.82,6.06l.93,1.14a6.713,6.713,0,0,0,2.655-3.99,6.165,6.165,0,0,0,2.595,3.66l.9-1.125c-1.89-1.1-2.76-3.435-2.76-5.745Zm3.24,2.01H273.72v1.26h1.995V.5h1.455v-12.63h-1.455Zm2.73-4.77V1.14h1.47V-12.405Zm13.785,5.4a12.827,12.827,0,0,0,.375-3.6v-1.14h-9.3V-10.5h7.77a12.08,12.08,0,0,1-.36,3.33ZM287.955-.03c-2.01,0-3.24-.495-3.24-1.35s1.23-1.335,3.24-1.335c1.995,0,3.2.495,3.2,1.335S289.95-.03,287.955-.03Zm0-3.87c-2.925,0-4.77.96-4.77,2.52,0,1.575,1.845,2.535,4.77,2.535,2.88,0,4.74-.96,4.74-2.535C292.695-2.94,290.835-3.9,287.955-3.9Zm.3-2.295v-2.49h-1.56v2.49h-4.8V-4.95H294.1V-6.195Z" transform="translate(72.365 306.6)"/>
</svg>
