<svg xmlns="http://www.w3.org/2000/svg" xmlns:xlink="http://www.w3.org/1999/xlink" width="834.993" height="400.122" viewBox="0 0 834.993 400.122">
  <defs>
    <style>
      .cls-1, .cls-11, .cls-12, .cls-14, .cls-19, .cls-3 {
        fill: none;
      }

      .cls-2 {
        fill: #f5f7f7;
      }

      .cls-3 {
        stroke: #0b504a;
      }

      .cls-4, .cls-7 {
        fill: #1e2323;
      }

      .cls-4 {
        font-size: 14px;
        font-family: NotoSansKR-Light, Noto Sans KR;
        font-weight: 300;
      }

      .cls-5 {
        letter-spacing: -0.014em;
      }

      .cls-6 {
        letter-spacing: -0.015em;
      }

      .cls-7 {
        font-size: 15px;
        font-family: NotoSansKR-Regular, Noto Sans KR;
      }

      .cls-8 {
        letter-spacing: -0.02em;
      }

      .cls-9 {
        letter-spacing: -0.019em;
      }

      .cls-10 {
        fill: #c6da98;
      }

      .cls-11 {
        stroke: #3e3a39;
      }

      .cls-11, .cls-12 {
        stroke-width: 3px;
      }

      .cls-12 {
        stroke: #92bc49;
      }

      .cls-13 {
        clip-path: url(#clip-path);
      }

      .cls-14 {
        stroke: #c1c2c2;
      }

      .cls-15 {
        clip-path: url(#clip-path-2);
      }

      .cls-16 {
        fill: #0b504a;
        font-size: 21px;
        font-family: NotoSansKR-Medium, Noto Sans KR;
        font-weight: 500;
      }

      .cls-17 {
        clip-path: url(#clip-path-3);
      }

      .cls-18 {
        fill: #92bc49;
      }

      .cls-19 {
        stroke: #828585;
        stroke-width: 0.283px;
      }
    </style>
    <clipPath id="clip-path">
      <rect id="사각형_20" data-name="사각형 20" class="cls-1" width="40" height="102.488" transform="translate(5707.892 2132.121)"/>
    </clipPath>
    <clipPath id="clip-path-2">
      <rect id="사각형_24" data-name="사각형 24" class="cls-1" width="40" height="122.821" transform="translate(5859.419 2111.788)"/>
    </clipPath>
    <clipPath id="clip-path-3">
      <rect id="사각형_28" data-name="사각형 28" class="cls-1" width="40" height="122.821" transform="translate(6010.948 2111.788)"/>
    </clipPath>
  </defs>
  <g id="구성_요소_82_1" data-name="구성 요소 82 – 1" transform="translate(0 1.13)">
    <rect id="사각형_14" data-name="사각형 14" class="cls-2" width="40" height="212.825" transform="translate(263.014 136.688)"/>
    <line id="선_291" data-name="선 291" class="cls-3" x2="834.993" transform="translate(0 350.178)"/>
    <text id="_2010" data-name="2010" class="cls-4" transform="translate(268.349 372.998)"><tspan class="cls-5" x="0" y="0">201</tspan><tspan y="0">0</tspan></text>
    <text id="_내부기준_" data-name="(내부기준)" class="cls-4" transform="translate(253.383 394.992)"><tspan class="cls-5" x="0" y="0">(</tspan><tspan class="cls-6" y="0">내</tspan><tspan class="cls-5" y="0">부</tspan><tspan class="cls-6" y="0">기</tspan><tspan class="cls-5" y="0">준</tspan><tspan y="0">)</tspan></text>
    <text id="_5_356" data-name="5,356" class="cls-7" transform="translate(264.871 156.771)"><tspan class="cls-8" x="0" y="0">5</tspan><tspan class="cls-9" y="0">,</tspan><tspan class="cls-8" y="0">35</tspan><tspan y="0">6</tspan></text>
    <rect id="사각형_15" data-name="사각형 15" class="cls-10" width="40" height="90.487" transform="translate(263.014 259.191)"/>
    <text id="_2017" data-name="2017" class="cls-4" transform="translate(455.172 372.998)"><tspan class="cls-5" x="0" y="0">201</tspan><tspan y="0">7</tspan></text>
    <text id="_2018" data-name="2018" class="cls-4" transform="translate(612.336 372.998)"><tspan class="cls-5" x="0" y="0">201</tspan><tspan y="0">8</tspan></text>
    <text id="_2019" data-name="2019" class="cls-4" transform="translate(760.33 372.998)"><tspan class="cls-5" x="0" y="0">201</tspan><tspan y="0">9</tspan></text>
    <path id="패스_63" data-name="패스 63" class="cls-11" d="M5578.327,1886.871l209.565,65.327,151.528,4.41,151.244,23.594" transform="translate(-5275.955 -1885.038)"/>
    <path id="패스_64" data-name="패스 64" class="cls-12" d="M5578.177,1885.4l209.715,20.207,151.244-1,151.812,29.264" transform="translate(-5275.955 -1885.038)"/>
    <rect id="사각형_18" data-name="사각형 18" class="cls-2" width="40" height="212.825" transform="translate(431.937 136.571)"/>
    <rect id="사각형_19" data-name="사각형 19" class="cls-2" width="40" height="212.825" transform="translate(471.937 136.571)"/>
    <text id="_5_392" data-name="5,392" class="cls-7" transform="translate(433.795 193.11)"><tspan class="cls-8" x="0" y="0">5</tspan><tspan class="cls-9" y="0">,</tspan><tspan class="cls-8" y="0">39</tspan><tspan y="0">2</tspan></text>
    <text id="_5_864" data-name="5,864" class="cls-7" transform="translate(473.8 156.765)"><tspan class="cls-8" x="0" y="0">5</tspan><tspan class="cls-9" y="0">,</tspan><tspan class="cls-8" y="0">86</tspan><tspan y="0">4</tspan></text>
    <g id="그룹_21" data-name="그룹 21" transform="translate(-5275.955 -1885.038)">
      <g id="그룹_20" data-name="그룹 20" class="cls-13">
        <line id="선_321" data-name="선 321" class="cls-14" x1="151.363" y2="102.33" transform="translate(5608.21 2029.094)"/>
        <line id="선_322" data-name="선 322" class="cls-14" x1="151.363" y2="102.33" transform="translate(5608.21 2037.181)"/>
        <line id="선_323" data-name="선 323" class="cls-14" x1="151.363" y2="102.33" transform="translate(5608.21 2045.268)"/>
        <line id="선_324" data-name="선 324" class="cls-14" x1="151.363" y2="102.33" transform="translate(5608.21 2033.138)"/>
        <line id="선_325" data-name="선 325" class="cls-14" x1="151.363" y2="102.33" transform="translate(5608.21 2053.354)"/>
        <line id="선_326" data-name="선 326" class="cls-14" x1="151.363" y2="102.33" transform="translate(5608.21 2041.225)"/>
        <line id="선_327" data-name="선 327" class="cls-14" x1="151.363" y2="102.33" transform="translate(5608.21 2061.441)"/>
        <line id="선_328" data-name="선 328" class="cls-14" x1="151.363" y2="102.33" transform="translate(5608.21 2049.311)"/>
        <line id="선_329" data-name="선 329" class="cls-14" x1="151.363" y2="102.33" transform="translate(5608.21 2077.614)"/>
        <line id="선_330" data-name="선 330" class="cls-14" x1="151.363" y2="102.33" transform="translate(5608.21 2057.398)"/>
        <line id="선_331" data-name="선 331" class="cls-14" x1="151.363" y2="102.33" transform="translate(5608.21 2093.788)"/>
        <line id="선_332" data-name="선 332" class="cls-14" x1="151.363" y2="102.33" transform="translate(5608.21 2069.528)"/>
        <line id="선_333" data-name="선 333" class="cls-14" x1="151.363" y2="102.33" transform="translate(5608.21 2109.961)"/>
        <line id="선_334" data-name="선 334" class="cls-14" x1="151.363" y2="102.33" transform="translate(5608.21 2085.701)"/>
        <line id="선_335" data-name="선 335" class="cls-14" x1="151.363" y2="102.33" transform="translate(5608.21 2126.135)"/>
        <line id="선_336" data-name="선 336" class="cls-14" x1="151.363" y2="102.33" transform="translate(5608.21 2101.875)"/>
        <line id="선_337" data-name="선 337" class="cls-14" x1="151.363" y2="102.33" transform="translate(5608.21 2142.308)"/>
        <line id="선_338" data-name="선 338" class="cls-14" x1="151.363" y2="102.33" transform="translate(5608.21 2118.048)"/>
        <line id="선_339" data-name="선 339" class="cls-14" x1="151.363" y2="102.33" transform="translate(5608.21 2158.481)"/>
        <line id="선_340" data-name="선 340" class="cls-14" x1="151.363" y2="102.33" transform="translate(5608.21 2134.221)"/>
        <line id="선_341" data-name="선 341" class="cls-14" x1="151.363" y2="102.33" transform="translate(5608.21 2174.655)"/>
        <line id="선_342" data-name="선 342" class="cls-14" x1="151.363" y2="102.33" transform="translate(5608.21 2150.395)"/>
        <line id="선_343" data-name="선 343" class="cls-14" x1="151.363" y2="102.33" transform="translate(5608.21 2190.828)"/>
        <line id="선_344" data-name="선 344" class="cls-14" x1="151.363" y2="102.33" transform="translate(5608.21 2166.568)"/>
        <line id="선_345" data-name="선 345" class="cls-14" x1="151.363" y2="102.33" transform="translate(5608.21 2202.958)"/>
        <line id="선_346" data-name="선 346" class="cls-14" x1="151.363" y2="102.33" transform="translate(5608.21 2182.741)"/>
        <line id="선_347" data-name="선 347" class="cls-14" x1="151.363" y2="102.33" transform="translate(5608.21 2081.658)"/>
        <line id="선_348" data-name="선 348" class="cls-14" x1="151.363" y2="102.33" transform="translate(5608.21 2065.484)"/>
        <line id="선_349" data-name="선 349" class="cls-14" x1="151.363" y2="102.33" transform="translate(5608.21 2097.831)"/>
        <line id="선_350" data-name="선 350" class="cls-14" x1="151.363" y2="102.33" transform="translate(5608.21 2073.571)"/>
        <line id="선_351" data-name="선 351" class="cls-14" x1="151.363" y2="102.33" transform="translate(5608.21 2114.004)"/>
        <line id="선_352" data-name="선 352" class="cls-14" x1="151.363" y2="102.33" transform="translate(5608.21 2089.745)"/>
        <line id="선_353" data-name="선 353" class="cls-14" x1="151.363" y2="102.33" transform="translate(5608.21 2130.178)"/>
        <line id="선_354" data-name="선 354" class="cls-14" x1="151.363" y2="102.33" transform="translate(5608.21 2105.918)"/>
        <line id="선_355" data-name="선 355" class="cls-14" x1="151.363" y2="102.33" transform="translate(5608.21 2146.351)"/>
        <line id="선_356" data-name="선 356" class="cls-14" x1="151.363" y2="102.33" transform="translate(5608.21 2122.091)"/>
        <line id="선_357" data-name="선 357" class="cls-14" x1="151.363" y2="102.33" transform="translate(5608.21 2162.524)"/>
        <line id="선_358" data-name="선 358" class="cls-14" x1="151.363" y2="102.33" transform="translate(5608.21 2138.265)"/>
        <line id="선_359" data-name="선 359" class="cls-14" x1="151.363" y2="102.33" transform="translate(5608.21 2178.698)"/>
        <line id="선_360" data-name="선 360" class="cls-14" x1="151.363" y2="102.33" transform="translate(5608.21 2154.438)"/>
        <line id="선_361" data-name="선 361" class="cls-14" x1="151.363" y2="102.33" transform="translate(5608.21 2194.872)"/>
        <line id="선_362" data-name="선 362" class="cls-14" x1="151.363" y2="102.33" transform="translate(5608.21 2170.611)"/>
        <line id="선_363" data-name="선 363" class="cls-14" x1="151.363" y2="102.33" transform="translate(5608.21 2207.001)"/>
        <line id="선_364" data-name="선 364" class="cls-14" x1="151.363" y2="102.33" transform="translate(5608.21 2186.785)"/>
        <line id="선_365" data-name="선 365" class="cls-14" x1="151.363" y2="102.33" transform="translate(5608.21 2215.088)"/>
        <line id="선_366" data-name="선 366" class="cls-14" x1="151.363" y2="102.33" transform="translate(5608.21 2198.915)"/>
        <line id="선_367" data-name="선 367" class="cls-14" x1="151.363" y2="102.33" transform="translate(5608.21 2223.175)"/>
        <line id="선_368" data-name="선 368" class="cls-14" x1="151.363" y2="102.33" transform="translate(5608.21 2211.045)"/>
        <line id="선_369" data-name="선 369" class="cls-14" x1="151.363" y2="102.33" transform="translate(5608.21 2231.261)"/>
        <line id="선_370" data-name="선 370" class="cls-14" x1="151.363" y2="102.33" transform="translate(5608.21 2219.131)"/>
        <line id="선_371" data-name="선 371" class="cls-14" x1="151.363" y2="102.33" transform="translate(5608.21 2227.218)"/>
        <line id="선_372" data-name="선 372" class="cls-14" x1="151.363" y2="102.33" transform="translate(5608.21 2235.305)"/>
      </g>
    </g>
    <rect id="사각형_21" data-name="사각형 21" class="cls-10" width="40" height="135.279" transform="translate(471.937 214.291)"/>
    <rect id="사각형_22" data-name="사각형 22" class="cls-2" width="40" height="212.825" transform="translate(583.465 136.571)"/>
    <rect id="사각형_23" data-name="사각형 23" class="cls-2" width="40" height="212.825" transform="translate(623.465 136.571)"/>
    <text id="_5_572" data-name="5,572" class="cls-7" transform="translate(585.322 193.11)"><tspan class="cls-8" x="0" y="0">5</tspan><tspan class="cls-9" y="0">,</tspan><tspan class="cls-8" y="0">57</tspan><tspan y="0">2</tspan></text>
    <text id="_6_094" data-name="6,094" class="cls-7" transform="translate(625.328 156.765)"><tspan class="cls-8" x="0" y="0">6</tspan><tspan class="cls-9" y="0">,</tspan><tspan class="cls-8" y="0">09</tspan><tspan y="0">4</tspan></text>
    <g id="그룹_23" data-name="그룹 23" transform="translate(-5275.955 -1885.038)">
      <g id="그룹_22" data-name="그룹 22" class="cls-15">
        <line id="선_373" data-name="선 373" class="cls-14" x1="151.363" y2="102.33" transform="translate(5759.738 2012.921)"/>
        <line id="선_374" data-name="선 374" class="cls-14" x1="151.363" y2="102.33" transform="translate(5759.738 2021.008)"/>
        <line id="선_375" data-name="선 375" class="cls-14" x1="151.363" y2="102.33" transform="translate(5759.738 2008.877)"/>
        <line id="선_376" data-name="선 376" class="cls-14" x1="151.363" y2="102.33" transform="translate(5759.738 2029.094)"/>
        <line id="선_377" data-name="선 377" class="cls-14" x1="151.363" y2="102.33" transform="translate(5759.738 2016.964)"/>
        <line id="선_378" data-name="선 378" class="cls-14" x1="151.363" y2="102.33" transform="translate(5759.738 2037.181)"/>
        <line id="선_379" data-name="선 379" class="cls-14" x1="151.363" y2="102.33" transform="translate(5759.738 2025.051)"/>
        <line id="선_380" data-name="선 380" class="cls-14" x1="151.363" y2="102.33" transform="translate(5759.738 2045.268)"/>
        <line id="선_381" data-name="선 381" class="cls-14" x1="151.363" y2="102.33" transform="translate(5759.738 2033.138)"/>
        <line id="선_382" data-name="선 382" class="cls-14" x1="151.363" y2="102.33" transform="translate(5759.738 2053.354)"/>
        <line id="선_383" data-name="선 383" class="cls-14" x1="151.363" y2="102.33" transform="translate(5759.738 2041.225)"/>
        <line id="선_384" data-name="선 384" class="cls-14" x1="151.363" y2="102.33" transform="translate(5759.738 2061.441)"/>
        <line id="선_385" data-name="선 385" class="cls-14" x1="151.363" y2="102.33" transform="translate(5759.738 2049.311)"/>
        <line id="선_386" data-name="선 386" class="cls-14" x1="151.363" y2="102.33" transform="translate(5759.738 2077.614)"/>
        <line id="선_387" data-name="선 387" class="cls-14" x1="151.363" y2="102.33" transform="translate(5759.738 2057.398)"/>
        <line id="선_388" data-name="선 388" class="cls-14" x1="151.363" y2="102.33" transform="translate(5759.738 2093.788)"/>
        <line id="선_389" data-name="선 389" class="cls-14" x1="151.363" y2="102.33" transform="translate(5759.738 2069.528)"/>
        <line id="선_390" data-name="선 390" class="cls-14" x1="151.363" y2="102.33" transform="translate(5759.738 2109.961)"/>
        <line id="선_391" data-name="선 391" class="cls-14" x1="151.363" y2="102.33" transform="translate(5759.738 2085.701)"/>
        <line id="선_392" data-name="선 392" class="cls-14" x1="151.363" y2="102.33" transform="translate(5759.738 2126.135)"/>
        <line id="선_393" data-name="선 393" class="cls-14" x1="151.363" y2="102.33" transform="translate(5759.738 2101.875)"/>
        <line id="선_394" data-name="선 394" class="cls-14" x1="151.363" y2="102.33" transform="translate(5759.738 2142.308)"/>
        <line id="선_395" data-name="선 395" class="cls-14" x1="151.363" y2="102.33" transform="translate(5759.738 2118.048)"/>
        <line id="선_396" data-name="선 396" class="cls-14" x1="151.363" y2="102.33" transform="translate(5759.738 2158.481)"/>
        <line id="선_397" data-name="선 397" class="cls-14" x1="151.363" y2="102.33" transform="translate(5759.738 2134.221)"/>
        <line id="선_398" data-name="선 398" class="cls-14" x1="151.363" y2="102.33" transform="translate(5759.738 2174.655)"/>
        <line id="선_399" data-name="선 399" class="cls-14" x1="151.363" y2="102.33" transform="translate(5759.738 2150.395)"/>
        <line id="선_400" data-name="선 400" class="cls-14" x1="151.363" y2="102.33" transform="translate(5759.738 2190.828)"/>
        <line id="선_401" data-name="선 401" class="cls-14" x1="151.363" y2="102.33" transform="translate(5759.738 2166.568)"/>
        <line id="선_402" data-name="선 402" class="cls-14" x1="151.363" y2="102.33" transform="translate(5759.738 2202.958)"/>
        <line id="선_403" data-name="선 403" class="cls-14" x1="151.363" y2="102.33" transform="translate(5759.738 2182.741)"/>
        <line id="선_404" data-name="선 404" class="cls-14" x1="151.363" y2="102.33" transform="translate(5759.738 2081.658)"/>
        <line id="선_405" data-name="선 405" class="cls-14" x1="151.363" y2="102.33" transform="translate(5759.738 2065.484)"/>
        <line id="선_406" data-name="선 406" class="cls-14" x1="151.363" y2="102.33" transform="translate(5759.738 2097.831)"/>
        <line id="선_407" data-name="선 407" class="cls-14" x1="151.363" y2="102.33" transform="translate(5759.738 2073.571)"/>
        <line id="선_408" data-name="선 408" class="cls-14" x1="151.363" y2="102.33" transform="translate(5759.738 2114.004)"/>
        <line id="선_409" data-name="선 409" class="cls-14" x1="151.363" y2="102.33" transform="translate(5759.738 2089.745)"/>
        <line id="선_410" data-name="선 410" class="cls-14" x1="151.363" y2="102.33" transform="translate(5759.738 2130.178)"/>
        <line id="선_411" data-name="선 411" class="cls-14" x1="151.363" y2="102.33" transform="translate(5759.738 2105.918)"/>
        <line id="선_412" data-name="선 412" class="cls-14" x1="151.363" y2="102.33" transform="translate(5759.738 2146.351)"/>
        <line id="선_413" data-name="선 413" class="cls-14" x1="151.363" y2="102.33" transform="translate(5759.738 2122.091)"/>
        <line id="선_414" data-name="선 414" class="cls-14" x1="151.363" y2="102.33" transform="translate(5759.738 2162.524)"/>
        <line id="선_415" data-name="선 415" class="cls-14" x1="151.363" y2="102.33" transform="translate(5759.738 2138.265)"/>
        <line id="선_416" data-name="선 416" class="cls-14" x1="151.363" y2="102.33" transform="translate(5759.738 2178.698)"/>
        <line id="선_417" data-name="선 417" class="cls-14" x1="151.363" y2="102.33" transform="translate(5759.738 2154.438)"/>
        <line id="선_418" data-name="선 418" class="cls-14" x1="151.363" y2="102.33" transform="translate(5759.738 2194.872)"/>
        <line id="선_419" data-name="선 419" class="cls-14" x1="151.363" y2="102.33" transform="translate(5759.738 2170.611)"/>
        <line id="선_420" data-name="선 420" class="cls-14" x1="151.363" y2="102.33" transform="translate(5759.738 2207.001)"/>
        <line id="선_421" data-name="선 421" class="cls-14" x1="151.363" y2="102.33" transform="translate(5759.738 2186.785)"/>
        <line id="선_422" data-name="선 422" class="cls-14" x1="151.363" y2="102.33" transform="translate(5759.738 2215.088)"/>
        <line id="선_423" data-name="선 423" class="cls-14" x1="151.363" y2="102.33" transform="translate(5759.738 2198.915)"/>
        <line id="선_424" data-name="선 424" class="cls-14" x1="151.363" y2="102.33" transform="translate(5759.738 2223.175)"/>
        <line id="선_425" data-name="선 425" class="cls-14" x1="151.363" y2="102.33" transform="translate(5759.738 2211.045)"/>
        <line id="선_426" data-name="선 426" class="cls-14" x1="151.363" y2="102.33" transform="translate(5759.738 2231.261)"/>
        <line id="선_427" data-name="선 427" class="cls-14" x1="151.363" y2="102.33" transform="translate(5759.738 2219.131)"/>
        <line id="선_428" data-name="선 428" class="cls-14" x1="151.363" y2="102.33" transform="translate(5759.738 2227.218)"/>
        <line id="선_429" data-name="선 429" class="cls-14" x1="151.363" y2="102.33" transform="translate(5759.738 2235.305)"/>
      </g>
    </g>
    <rect id="사각형_25" data-name="사각형 25" class="cls-10" width="40" height="169.369" transform="translate(623.465 180.201)"/>
    <rect id="사각형_26" data-name="사각형 26" class="cls-2" width="40" height="212.825" transform="translate(734.993 136.571)"/>
    <rect id="사각형_27" data-name="사각형 27" class="cls-2" width="40" height="212.717" transform="translate(774.993 136.688)"/>
    <text id="_5_572-2" data-name="5,572" class="cls-7" transform="translate(736.851 193.11)"><tspan class="cls-8" x="0" y="0">5</tspan><tspan class="cls-9" y="0">,</tspan><tspan class="cls-8" y="0">57</tspan><tspan y="0">2</tspan></text>
    <text id="_6_094-2" data-name="6,094" class="cls-16" transform="translate(762.515 162.05)"><tspan class="cls-9" x="0" y="0">6</tspan><tspan class="cls-8" y="0">,</tspan><tspan class="cls-9" y="0">09</tspan><tspan y="0">4</tspan></text>
    <g id="그룹_25" data-name="그룹 25" transform="translate(-5275.955 -1885.038)">
      <g id="그룹_24" data-name="그룹 24" class="cls-17">
        <line id="선_430" data-name="선 430" class="cls-14" x1="151.363" y2="102.33" transform="translate(5921.267 2012.921)"/>
        <line id="선_431" data-name="선 431" class="cls-14" x1="151.363" y2="102.33" transform="translate(5921.267 2021.008)"/>
        <line id="선_432" data-name="선 432" class="cls-14" x1="151.363" y2="102.33" transform="translate(5921.267 2008.877)"/>
        <line id="선_433" data-name="선 433" class="cls-14" x1="151.363" y2="102.33" transform="translate(5921.267 2029.094)"/>
        <line id="선_434" data-name="선 434" class="cls-14" x1="151.363" y2="102.33" transform="translate(5921.267 2016.964)"/>
        <line id="선_435" data-name="선 435" class="cls-14" x1="151.363" y2="102.33" transform="translate(5921.267 2037.181)"/>
        <line id="선_436" data-name="선 436" class="cls-14" x1="151.363" y2="102.33" transform="translate(5921.267 2025.051)"/>
        <line id="선_437" data-name="선 437" class="cls-14" x1="151.363" y2="102.33" transform="translate(5921.267 2045.268)"/>
        <line id="선_438" data-name="선 438" class="cls-14" x1="151.363" y2="102.33" transform="translate(5921.267 2033.138)"/>
        <line id="선_439" data-name="선 439" class="cls-14" x1="151.363" y2="102.33" transform="translate(5921.267 2053.354)"/>
        <line id="선_440" data-name="선 440" class="cls-14" x1="151.363" y2="102.33" transform="translate(5921.267 2041.225)"/>
        <line id="선_441" data-name="선 441" class="cls-14" x1="151.363" y2="102.33" transform="translate(5921.267 2061.441)"/>
        <line id="선_442" data-name="선 442" class="cls-14" x1="151.363" y2="102.33" transform="translate(5921.267 2049.311)"/>
        <line id="선_443" data-name="선 443" class="cls-14" x1="151.363" y2="102.33" transform="translate(5921.267 2077.614)"/>
        <line id="선_444" data-name="선 444" class="cls-14" x1="151.363" y2="102.33" transform="translate(5921.267 2057.398)"/>
        <line id="선_445" data-name="선 445" class="cls-14" x1="151.363" y2="102.33" transform="translate(5921.267 2093.788)"/>
        <line id="선_446" data-name="선 446" class="cls-14" x1="151.363" y2="102.33" transform="translate(5921.267 2069.528)"/>
        <line id="선_447" data-name="선 447" class="cls-14" x1="151.363" y2="102.33" transform="translate(5921.267 2109.961)"/>
        <line id="선_448" data-name="선 448" class="cls-14" x1="151.363" y2="102.33" transform="translate(5921.267 2085.701)"/>
        <line id="선_449" data-name="선 449" class="cls-14" x1="151.363" y2="102.33" transform="translate(5921.267 2126.135)"/>
        <line id="선_450" data-name="선 450" class="cls-14" x1="151.363" y2="102.33" transform="translate(5921.267 2101.875)"/>
        <line id="선_451" data-name="선 451" class="cls-14" x1="151.363" y2="102.33" transform="translate(5921.267 2142.308)"/>
        <line id="선_452" data-name="선 452" class="cls-14" x1="151.363" y2="102.33" transform="translate(5921.267 2118.048)"/>
        <line id="선_453" data-name="선 453" class="cls-14" x1="151.363" y2="102.33" transform="translate(5921.267 2158.481)"/>
        <line id="선_454" data-name="선 454" class="cls-14" x1="151.363" y2="102.33" transform="translate(5921.267 2134.221)"/>
        <line id="선_455" data-name="선 455" class="cls-14" x1="151.363" y2="102.33" transform="translate(5921.267 2174.655)"/>
        <line id="선_456" data-name="선 456" class="cls-14" x1="151.363" y2="102.33" transform="translate(5921.267 2150.395)"/>
        <line id="선_457" data-name="선 457" class="cls-14" x1="151.363" y2="102.33" transform="translate(5921.267 2190.828)"/>
        <line id="선_458" data-name="선 458" class="cls-14" x1="151.363" y2="102.33" transform="translate(5921.267 2166.568)"/>
        <line id="선_459" data-name="선 459" class="cls-14" x1="151.363" y2="102.33" transform="translate(5921.267 2202.958)"/>
        <line id="선_460" data-name="선 460" class="cls-14" x1="151.363" y2="102.33" transform="translate(5921.267 2182.741)"/>
        <line id="선_461" data-name="선 461" class="cls-14" x1="151.363" y2="102.33" transform="translate(5921.267 2081.658)"/>
        <line id="선_462" data-name="선 462" class="cls-14" x1="151.363" y2="102.33" transform="translate(5921.267 2065.484)"/>
        <line id="선_463" data-name="선 463" class="cls-14" x1="151.363" y2="102.33" transform="translate(5921.267 2097.831)"/>
        <line id="선_464" data-name="선 464" class="cls-14" x1="151.363" y2="102.33" transform="translate(5921.267 2073.571)"/>
        <line id="선_465" data-name="선 465" class="cls-14" x1="151.363" y2="102.33" transform="translate(5921.267 2114.004)"/>
        <line id="선_466" data-name="선 466" class="cls-14" x1="151.363" y2="102.33" transform="translate(5921.267 2089.745)"/>
        <line id="선_467" data-name="선 467" class="cls-14" x1="151.363" y2="102.33" transform="translate(5921.267 2130.178)"/>
        <line id="선_468" data-name="선 468" class="cls-14" x1="151.363" y2="102.33" transform="translate(5921.267 2105.918)"/>
        <line id="선_469" data-name="선 469" class="cls-14" x1="151.363" y2="102.33" transform="translate(5921.267 2146.351)"/>
        <line id="선_470" data-name="선 470" class="cls-14" x1="151.363" y2="102.33" transform="translate(5921.267 2122.091)"/>
        <line id="선_471" data-name="선 471" class="cls-14" x1="151.363" y2="102.33" transform="translate(5921.267 2162.524)"/>
        <line id="선_472" data-name="선 472" class="cls-14" x1="151.363" y2="102.33" transform="translate(5921.267 2138.265)"/>
        <line id="선_473" data-name="선 473" class="cls-14" x1="151.363" y2="102.33" transform="translate(5921.267 2178.698)"/>
        <line id="선_474" data-name="선 474" class="cls-14" x1="151.363" y2="102.33" transform="translate(5921.267 2154.438)"/>
        <line id="선_475" data-name="선 475" class="cls-14" x1="151.363" y2="102.33" transform="translate(5921.267 2194.872)"/>
        <line id="선_476" data-name="선 476" class="cls-14" x1="151.363" y2="102.33" transform="translate(5921.267 2170.611)"/>
        <line id="선_477" data-name="선 477" class="cls-14" x1="151.363" y2="102.33" transform="translate(5921.267 2207.001)"/>
        <line id="선_478" data-name="선 478" class="cls-14" x1="151.363" y2="102.33" transform="translate(5921.267 2186.785)"/>
        <line id="선_479" data-name="선 479" class="cls-14" x1="151.363" y2="102.33" transform="translate(5921.267 2215.088)"/>
        <line id="선_480" data-name="선 480" class="cls-14" x1="151.363" y2="102.33" transform="translate(5921.267 2198.915)"/>
        <line id="선_481" data-name="선 481" class="cls-14" x1="151.363" y2="102.33" transform="translate(5921.267 2223.175)"/>
        <line id="선_482" data-name="선 482" class="cls-14" x1="151.363" y2="102.33" transform="translate(5921.267 2211.045)"/>
        <line id="선_483" data-name="선 483" class="cls-14" x1="151.363" y2="102.33" transform="translate(5921.267 2231.261)"/>
        <line id="선_484" data-name="선 484" class="cls-14" x1="151.363" y2="102.33" transform="translate(5921.267 2219.131)"/>
        <line id="선_485" data-name="선 485" class="cls-14" x1="151.363" y2="102.33" transform="translate(5921.267 2227.218)"/>
        <line id="선_486" data-name="선 486" class="cls-14" x1="151.363" y2="102.33" transform="translate(5921.267 2235.305)"/>
      </g>
    </g>
    <rect id="사각형_29" data-name="사각형 29" class="cls-18" width="40" height="169.369" transform="translate(774.993 180.201)"/>
    <line id="선_487" data-name="선 487" class="cls-19" y1="328.622" transform="translate(512.079 22.056)"/>
    <line id="선_488" data-name="선 488" class="cls-19" y1="350.678" transform="translate(303.013)"/>
    <line id="선_489" data-name="선 489" class="cls-19" y1="328.622" transform="translate(663.323 22.056)"/>
    <line id="선_490" data-name="선 490" class="cls-19" y1="298.812" transform="translate(815.134 51.866)"/>
  </g>
</svg>
