<svg id="구성_요소_44_1" data-name="구성 요소 44 – 1" xmlns="http://www.w3.org/2000/svg" xmlns:xlink="http://www.w3.org/1999/xlink" width="834.993" height="498.62" viewBox="0 0 834.993 498.62">
  <defs>
    <style>
      .cls-1, .cls-15, .cls-19, .cls-20, .cls-26, .cls-27, .cls-28, .cls-9 {
        fill: none;
      }

      .cls-2 {
        fill: #f5f7f7;
      }

      .cls-10, .cls-11, .cls-18, .cls-3 {
        fill: #1e2323;
      }

      .cls-3 {
        font-size: 16px;
      }

      .cls-23, .cls-3 {
        font-family: NotoSansKR-Medium, Noto Sans KR;
        font-weight: 500;
      }

      .cls-4 {
        letter-spacing: -0.02em;
      }

      .cls-5 {
        fill: #656464;
        font-size: 12px;
      }

      .cls-10, .cls-18, .cls-5 {
        font-family: NotoSansKR-Light, Noto Sans KR;
        font-weight: 300;
      }

      .cls-6 {
        letter-spacing: -0.014em;
      }

      .cls-7 {
        letter-spacing: -0.027em;
      }

      .cls-8 {
        letter-spacing: -0.015em;
      }

      .cls-9 {
        stroke: #0b504a;
      }

      .cls-10 {
        font-size: 14px;
      }

      .cls-11 {
        font-size: 15px;
        font-family: NotoSansKR-Regular, Noto Sans KR;
      }

      .cls-12 {
        letter-spacing: -0.019em;
      }

      .cls-13 {
        fill: #c6da98;
      }

      .cls-14 {
        clip-path: url(#clip-path);
      }

      .cls-15 {
        stroke: #c1c2c2;
      }

      .cls-16 {
        fill: #e2eccb;
      }

      .cls-17 {
        letter-spacing: -0.042em;
      }

      .cls-18 {
        font-size: 8.162px;
      }

      .cls-19, .cls-28 {
        stroke: #3e3a39;
      }

      .cls-19, .cls-20 {
        stroke-width: 3px;
      }

      .cls-20, .cls-27 {
        stroke: #92bc49;
      }

      .cls-21 {
        clip-path: url(#clip-path-2);
      }

      .cls-22 {
        clip-path: url(#clip-path-3);
      }

      .cls-23 {
        fill: #0b504a;
        font-size: 21px;
      }

      .cls-24 {
        clip-path: url(#clip-path-4);
      }

      .cls-25 {
        fill: #92bc49;
      }

      .cls-26 {
        stroke: #828585;
        stroke-width: 0.283px;
      }

      .cls-27, .cls-28 {
        stroke-width: 2px;
      }
    </style>
    <clipPath id="clip-path">
      <rect id="사각형_16" data-name="사각형 16" class="cls-1" width="16.479" height="10" transform="translate(5276.954 1983.163)"/>
    </clipPath>
    <clipPath id="clip-path-2">
      <rect id="사각형_20" data-name="사각형 20" class="cls-1" width="40" height="102.488" transform="translate(5707.892 2132.121)"/>
    </clipPath>
    <clipPath id="clip-path-3">
      <rect id="사각형_24" data-name="사각형 24" class="cls-1" width="40" height="122.821" transform="translate(5859.419 2111.788)"/>
    </clipPath>
    <clipPath id="clip-path-4">
      <rect id="사각형_28" data-name="사각형 28" class="cls-1" width="40" height="122.821" transform="translate(6010.948 2111.788)"/>
    </clipPath>
  </defs>
  <rect id="사각형_14" data-name="사각형 14" class="cls-2" width="40" height="212.825" transform="translate(263.014 184.749)"/>
  <text id="온실가스_배출량_재산정_결과_비교표" data-name="온실가스 배출량 재산정 결과 비교표" class="cls-3" transform="translate(0 19)"><tspan class="cls-4" x="0" y="0">온실가스 배출량 재산정 결과 비교</tspan><tspan y="0">표</tspan></text>
  <text id="_자사_기준_vs_국가_기준_" data-name="(자사 기준 vs 국가 기준)" class="cls-5" transform="translate(0 40)"><tspan class="cls-6" x="0" y="0">(자사 기준 </tspan><tspan class="cls-6" y="0">vs </tspan><tspan class="cls-6" y="0">국가 기준</tspan><tspan y="0">)</tspan></text>
  <text id="_2019년_기존_5_577톤은_제이플라츠_및_ESS_누락분_반영_기준_17_18년과_동일_기준_" data-name="2019년 기존 5,577톤은 제이플라츠 및 ESS 누락분 반영 기준(17~18년과 동일 기준)" class="cls-5" transform="translate(0.024 473.62)"><tspan class="cls-6" x="0" y="0">2019년 기존 5,577톤은 제이플라츠 및 </tspan><tspan class="cls-6" y="0">E</tspan><tspan class="cls-7" y="0">S</tspan><tspan class="cls-6" y="0">S </tspan><tspan class="cls-6" y="0">누락분 반영 기준(17~18년과 </tspan><tspan class="cls-8" y="0">동</tspan><tspan class="cls-6" y="0">일</tspan><tspan class="cls-8" y="0"> </tspan><tspan class="cls-6" y="0">기준</tspan><tspan y="0">)</tspan></text>
  <text id="_2017_2018년은_당시_외부_검증_기준_ESS_누락_" data-name="2017~2018년은 당시 외부 검증 기준[ESS 누락]" class="cls-5" transform="translate(0.024 494.62)"><tspan class="cls-6" x="0" y="0">2017~2018년은 당시 외부 검증 기준[</tspan><tspan class="cls-6" y="0">E</tspan><tspan class="cls-7" y="0">S</tspan><tspan class="cls-6" y="0">S </tspan><tspan class="cls-6" y="0">누락</tspan><tspan y="0">]</tspan></text>
  <line id="선_291" data-name="선 291" class="cls-9" x2="834.993" transform="translate(0 398.239)"/>
  <text id="_2010" data-name="2010" class="cls-10" transform="translate(268.349 421.06)"><tspan class="cls-6" x="0" y="0">201</tspan><tspan y="0">0</tspan></text>
  <text id="_내부기준_" data-name="(내부기준)" class="cls-10" transform="translate(253.383 443.054)"><tspan class="cls-6" x="0" y="0">(</tspan><tspan class="cls-8" y="0">내</tspan><tspan class="cls-6" y="0">부</tspan><tspan class="cls-8" y="0">기</tspan><tspan class="cls-6" y="0">준</tspan><tspan y="0">)</tspan></text>
  <text id="_5_356" data-name="5,356" class="cls-11" transform="translate(264.871 204.833)"><tspan class="cls-4" x="0" y="0">5</tspan><tspan class="cls-12" y="0">,</tspan><tspan class="cls-4" y="0">35</tspan><tspan y="0">6</tspan></text>
  <rect id="사각형_15" data-name="사각형 15" class="cls-13" width="40" height="90.487" transform="translate(263.014 307.252)"/>
  <text id="_2017" data-name="2017" class="cls-10" transform="translate(455.172 421.06)"><tspan class="cls-6" x="0" y="0">201</tspan><tspan y="0">7</tspan></text>
  <text id="_2018" data-name="2018" class="cls-10" transform="translate(612.336 421.06)"><tspan class="cls-6" x="0" y="0">201</tspan><tspan y="0">8</tspan></text>
  <text id="_2019" data-name="2019" class="cls-10" transform="translate(760.33 421.06)"><tspan class="cls-6" x="0" y="0">201</tspan><tspan y="0">9</tspan></text>
  <g id="그룹_19" data-name="그룹 19" transform="translate(-5275.955 -1836.977)">
    <g id="그룹_18" data-name="그룹 18" class="cls-14">
      <line id="선_292" data-name="선 292" class="cls-15" x1="151.363" y2="102.33" transform="translate(5206.273 1882.412)"/>
      <line id="선_293" data-name="선 293" class="cls-15" x1="151.363" y2="102.33" transform="translate(5206.273 1898.585)"/>
      <line id="선_294" data-name="선 294" class="cls-15" x1="151.363" y2="102.33" transform="translate(5206.273 1914.759)"/>
      <line id="선_295" data-name="선 295" class="cls-15" x1="151.363" y2="102.33" transform="translate(5206.273 1890.499)"/>
      <line id="선_296" data-name="선 296" class="cls-15" x1="151.363" y2="102.33" transform="translate(5206.273 1930.932)"/>
      <line id="선_297" data-name="선 297" class="cls-15" x1="151.363" y2="102.33" transform="translate(5206.273 1906.672)"/>
      <line id="선_298" data-name="선 298" class="cls-15" x1="151.363" y2="102.33" transform="translate(5206.273 1947.105)"/>
      <line id="선_299" data-name="선 299" class="cls-15" x1="151.363" y2="102.33" transform="translate(5206.273 1922.845)"/>
      <line id="선_300" data-name="선 300" class="cls-15" x1="151.363" y2="102.33" transform="translate(5206.273 1963.279)"/>
      <line id="선_301" data-name="선 301" class="cls-15" x1="151.363" y2="102.33" transform="translate(5206.273 1939.019)"/>
      <line id="선_302" data-name="선 302" class="cls-15" x1="151.363" y2="102.33" transform="translate(5206.273 1979.452)"/>
      <line id="선_303" data-name="선 303" class="cls-15" x1="151.363" y2="102.33" transform="translate(5206.273 1955.192)"/>
      <line id="선_304" data-name="선 304" class="cls-15" x1="151.363" y2="102.33" transform="translate(5206.273 1995.625)"/>
      <line id="선_305" data-name="선 305" class="cls-15" x1="151.363" y2="102.33" transform="translate(5206.273 1971.365)"/>
      <line id="선_306" data-name="선 306" class="cls-15" x1="151.363" y2="102.33" transform="translate(5206.273 1987.539)"/>
      <line id="선_307" data-name="선 307" class="cls-15" x1="151.363" y2="102.33" transform="translate(5206.273 1886.455)"/>
      <line id="선_308" data-name="선 308" class="cls-15" x1="151.363" y2="102.33" transform="translate(5206.273 1902.628)"/>
      <line id="선_309" data-name="선 309" class="cls-15" x1="151.363" y2="102.33" transform="translate(5206.273 1918.802)"/>
      <line id="선_310" data-name="선 310" class="cls-15" x1="151.363" y2="102.33" transform="translate(5206.273 1894.542)"/>
      <line id="선_311" data-name="선 311" class="cls-15" x1="151.363" y2="102.33" transform="translate(5206.273 1934.975)"/>
      <line id="선_312" data-name="선 312" class="cls-15" x1="151.363" y2="102.33" transform="translate(5206.273 1910.715)"/>
      <line id="선_313" data-name="선 313" class="cls-15" x1="151.363" y2="102.33" transform="translate(5206.273 1951.148)"/>
      <line id="선_314" data-name="선 314" class="cls-15" x1="151.363" y2="102.33" transform="translate(5206.273 1926.889)"/>
      <line id="선_315" data-name="선 315" class="cls-15" x1="151.363" y2="102.33" transform="translate(5206.273 1967.322)"/>
      <line id="선_316" data-name="선 316" class="cls-15" x1="151.363" y2="102.33" transform="translate(5206.273 1943.062)"/>
      <line id="선_317" data-name="선 317" class="cls-15" x1="151.363" y2="102.33" transform="translate(5206.273 1983.495)"/>
      <line id="선_318" data-name="선 318" class="cls-15" x1="151.363" y2="102.33" transform="translate(5206.273 1959.235)"/>
      <line id="선_319" data-name="선 319" class="cls-15" x1="151.363" y2="102.33" transform="translate(5206.273 1975.409)"/>
      <line id="선_320" data-name="선 320" class="cls-15" x1="151.363" y2="102.33" transform="translate(5206.273 1991.582)"/>
    </g>
  </g>
  <rect id="사각형_17" data-name="사각형 17" class="cls-16" width="16.478" height="10" transform="translate(1 122.793)"/>
  <text id="국가_기준" data-name="국가 기준" class="cls-10" transform="translate(22.896 156.185)"><tspan class="cls-6" x="0" y="0">국가 </tspan><tspan class="cls-8" y="0">기</tspan><tspan y="0">준</tspan></text>
  <text id="내부_기준" data-name="내부 기준" class="cls-10" transform="translate(22.896 132.791)"><tspan class="cls-6" x="0" y="0">내부 </tspan><tspan class="cls-8" y="0">기</tspan><tspan y="0">준</tspan></text>
  <text id="원단위_톤_CO" data-name="원단위 톤 CO" class="cls-10" transform="translate(22.896 100.059)"><tspan class="cls-6" x="0" y="0">원단위</tspan><tspan class="cls-8" y="0"> </tspan><tspan class="cls-6" y="0">톤</tspan><tspan class="cls-8" y="0"> </tspan><tspan class="cls-17" y="0">C</tspan><tspan y="0">O</tspan></text>
  <text id="_2" data-name="2" class="cls-18" transform="translate(99.133 101.723)"><tspan x="0" y="0">2</tspan></text>
  <text id="e_억원" data-name="e/억원" class="cls-10" transform="translate(103.377 100.061)"><tspan class="cls-8" x="0" y="0">e</tspan><tspan class="cls-6" y="0">/억</tspan><tspan y="0">원</tspan></text>
  <text id="배출량_톤_CO" data-name="배출량 톤 CO" class="cls-10" transform="translate(22.891 76.667)"><tspan class="cls-6" x="0" y="0">배출량</tspan><tspan class="cls-8" y="0"> </tspan><tspan class="cls-6" y="0">톤</tspan><tspan class="cls-8" y="0"> </tspan><tspan class="cls-17" y="0">C</tspan><tspan y="0">O</tspan></text>
  <text id="_2-2" data-name="2" class="cls-18" transform="translate(99.135 78.33)"><tspan x="0" y="0">2</tspan></text>
  <text id="e" class="cls-10" transform="translate(103.379 76.668)"><tspan x="0" y="0">e</tspan></text>
  <path id="패스_63" data-name="패스 63" class="cls-19" d="M5578.327,1886.871l209.565,65.327,151.528,4.41,151.244,23.594" transform="translate(-5275.955 -1836.977)"/>
  <path id="패스_64" data-name="패스 64" class="cls-20" d="M5578.177,1885.4l209.715,20.207,151.244-1,151.812,29.264" transform="translate(-5275.955 -1836.977)"/>
  <rect id="사각형_18" data-name="사각형 18" class="cls-2" width="40" height="212.825" transform="translate(431.937 184.632)"/>
  <rect id="사각형_19" data-name="사각형 19" class="cls-2" width="40" height="212.825" transform="translate(471.937 184.632)"/>
  <text id="_5_392" data-name="5,392" class="cls-11" transform="translate(433.795 241.172)"><tspan class="cls-4" x="0" y="0">5</tspan><tspan class="cls-12" y="0">,</tspan><tspan class="cls-4" y="0">39</tspan><tspan y="0">2</tspan></text>
  <text id="_5_864" data-name="5,864" class="cls-11" transform="translate(473.8 204.827)"><tspan class="cls-4" x="0" y="0">5</tspan><tspan class="cls-12" y="0">,</tspan><tspan class="cls-4" y="0">86</tspan><tspan y="0">4</tspan></text>
  <g id="그룹_21" data-name="그룹 21" transform="translate(-5275.955 -1836.977)">
    <g id="그룹_20" data-name="그룹 20" class="cls-21">
      <line id="선_321" data-name="선 321" class="cls-15" x1="151.363" y2="102.33" transform="translate(5608.21 2029.094)"/>
      <line id="선_322" data-name="선 322" class="cls-15" x1="151.363" y2="102.33" transform="translate(5608.21 2037.181)"/>
      <line id="선_323" data-name="선 323" class="cls-15" x1="151.363" y2="102.33" transform="translate(5608.21 2045.268)"/>
      <line id="선_324" data-name="선 324" class="cls-15" x1="151.363" y2="102.33" transform="translate(5608.21 2033.138)"/>
      <line id="선_325" data-name="선 325" class="cls-15" x1="151.363" y2="102.33" transform="translate(5608.21 2053.354)"/>
      <line id="선_326" data-name="선 326" class="cls-15" x1="151.363" y2="102.33" transform="translate(5608.21 2041.225)"/>
      <line id="선_327" data-name="선 327" class="cls-15" x1="151.363" y2="102.33" transform="translate(5608.21 2061.441)"/>
      <line id="선_328" data-name="선 328" class="cls-15" x1="151.363" y2="102.33" transform="translate(5608.21 2049.311)"/>
      <line id="선_329" data-name="선 329" class="cls-15" x1="151.363" y2="102.33" transform="translate(5608.21 2077.614)"/>
      <line id="선_330" data-name="선 330" class="cls-15" x1="151.363" y2="102.33" transform="translate(5608.21 2057.398)"/>
      <line id="선_331" data-name="선 331" class="cls-15" x1="151.363" y2="102.33" transform="translate(5608.21 2093.788)"/>
      <line id="선_332" data-name="선 332" class="cls-15" x1="151.363" y2="102.33" transform="translate(5608.21 2069.528)"/>
      <line id="선_333" data-name="선 333" class="cls-15" x1="151.363" y2="102.33" transform="translate(5608.21 2109.961)"/>
      <line id="선_334" data-name="선 334" class="cls-15" x1="151.363" y2="102.33" transform="translate(5608.21 2085.701)"/>
      <line id="선_335" data-name="선 335" class="cls-15" x1="151.363" y2="102.33" transform="translate(5608.21 2126.135)"/>
      <line id="선_336" data-name="선 336" class="cls-15" x1="151.363" y2="102.33" transform="translate(5608.21 2101.875)"/>
      <line id="선_337" data-name="선 337" class="cls-15" x1="151.363" y2="102.33" transform="translate(5608.21 2142.308)"/>
      <line id="선_338" data-name="선 338" class="cls-15" x1="151.363" y2="102.33" transform="translate(5608.21 2118.048)"/>
      <line id="선_339" data-name="선 339" class="cls-15" x1="151.363" y2="102.33" transform="translate(5608.21 2158.481)"/>
      <line id="선_340" data-name="선 340" class="cls-15" x1="151.363" y2="102.33" transform="translate(5608.21 2134.221)"/>
      <line id="선_341" data-name="선 341" class="cls-15" x1="151.363" y2="102.33" transform="translate(5608.21 2174.655)"/>
      <line id="선_342" data-name="선 342" class="cls-15" x1="151.363" y2="102.33" transform="translate(5608.21 2150.395)"/>
      <line id="선_343" data-name="선 343" class="cls-15" x1="151.363" y2="102.33" transform="translate(5608.21 2190.828)"/>
      <line id="선_344" data-name="선 344" class="cls-15" x1="151.363" y2="102.33" transform="translate(5608.21 2166.568)"/>
      <line id="선_345" data-name="선 345" class="cls-15" x1="151.363" y2="102.33" transform="translate(5608.21 2202.958)"/>
      <line id="선_346" data-name="선 346" class="cls-15" x1="151.363" y2="102.33" transform="translate(5608.21 2182.741)"/>
      <line id="선_347" data-name="선 347" class="cls-15" x1="151.363" y2="102.33" transform="translate(5608.21 2081.658)"/>
      <line id="선_348" data-name="선 348" class="cls-15" x1="151.363" y2="102.33" transform="translate(5608.21 2065.484)"/>
      <line id="선_349" data-name="선 349" class="cls-15" x1="151.363" y2="102.33" transform="translate(5608.21 2097.831)"/>
      <line id="선_350" data-name="선 350" class="cls-15" x1="151.363" y2="102.33" transform="translate(5608.21 2073.571)"/>
      <line id="선_351" data-name="선 351" class="cls-15" x1="151.363" y2="102.33" transform="translate(5608.21 2114.004)"/>
      <line id="선_352" data-name="선 352" class="cls-15" x1="151.363" y2="102.33" transform="translate(5608.21 2089.745)"/>
      <line id="선_353" data-name="선 353" class="cls-15" x1="151.363" y2="102.33" transform="translate(5608.21 2130.178)"/>
      <line id="선_354" data-name="선 354" class="cls-15" x1="151.363" y2="102.33" transform="translate(5608.21 2105.918)"/>
      <line id="선_355" data-name="선 355" class="cls-15" x1="151.363" y2="102.33" transform="translate(5608.21 2146.351)"/>
      <line id="선_356" data-name="선 356" class="cls-15" x1="151.363" y2="102.33" transform="translate(5608.21 2122.091)"/>
      <line id="선_357" data-name="선 357" class="cls-15" x1="151.363" y2="102.33" transform="translate(5608.21 2162.524)"/>
      <line id="선_358" data-name="선 358" class="cls-15" x1="151.363" y2="102.33" transform="translate(5608.21 2138.265)"/>
      <line id="선_359" data-name="선 359" class="cls-15" x1="151.363" y2="102.33" transform="translate(5608.21 2178.698)"/>
      <line id="선_360" data-name="선 360" class="cls-15" x1="151.363" y2="102.33" transform="translate(5608.21 2154.438)"/>
      <line id="선_361" data-name="선 361" class="cls-15" x1="151.363" y2="102.33" transform="translate(5608.21 2194.872)"/>
      <line id="선_362" data-name="선 362" class="cls-15" x1="151.363" y2="102.33" transform="translate(5608.21 2170.611)"/>
      <line id="선_363" data-name="선 363" class="cls-15" x1="151.363" y2="102.33" transform="translate(5608.21 2207.001)"/>
      <line id="선_364" data-name="선 364" class="cls-15" x1="151.363" y2="102.33" transform="translate(5608.21 2186.785)"/>
      <line id="선_365" data-name="선 365" class="cls-15" x1="151.363" y2="102.33" transform="translate(5608.21 2215.088)"/>
      <line id="선_366" data-name="선 366" class="cls-15" x1="151.363" y2="102.33" transform="translate(5608.21 2198.915)"/>
      <line id="선_367" data-name="선 367" class="cls-15" x1="151.363" y2="102.33" transform="translate(5608.21 2223.175)"/>
      <line id="선_368" data-name="선 368" class="cls-15" x1="151.363" y2="102.33" transform="translate(5608.21 2211.045)"/>
      <line id="선_369" data-name="선 369" class="cls-15" x1="151.363" y2="102.33" transform="translate(5608.21 2231.261)"/>
      <line id="선_370" data-name="선 370" class="cls-15" x1="151.363" y2="102.33" transform="translate(5608.21 2219.131)"/>
      <line id="선_371" data-name="선 371" class="cls-15" x1="151.363" y2="102.33" transform="translate(5608.21 2227.218)"/>
      <line id="선_372" data-name="선 372" class="cls-15" x1="151.363" y2="102.33" transform="translate(5608.21 2235.305)"/>
    </g>
  </g>
  <rect id="사각형_21" data-name="사각형 21" class="cls-13" width="40" height="135.279" transform="translate(471.937 262.353)"/>
  <rect id="사각형_22" data-name="사각형 22" class="cls-2" width="40" height="212.825" transform="translate(583.465 184.632)"/>
  <rect id="사각형_23" data-name="사각형 23" class="cls-2" width="40" height="212.825" transform="translate(623.465 184.632)"/>
  <text id="_5_572" data-name="5,572" class="cls-11" transform="translate(585.322 241.172)"><tspan class="cls-4" x="0" y="0">5</tspan><tspan class="cls-12" y="0">,</tspan><tspan class="cls-4" y="0">57</tspan><tspan y="0">2</tspan></text>
  <text id="_6_094" data-name="6,094" class="cls-11" transform="translate(625.328 204.827)"><tspan class="cls-4" x="0" y="0">6</tspan><tspan class="cls-12" y="0">,</tspan><tspan class="cls-4" y="0">09</tspan><tspan y="0">4</tspan></text>
  <g id="그룹_23" data-name="그룹 23" transform="translate(-5275.955 -1836.977)">
    <g id="그룹_22" data-name="그룹 22" class="cls-22">
      <line id="선_373" data-name="선 373" class="cls-15" x1="151.363" y2="102.33" transform="translate(5759.738 2012.921)"/>
      <line id="선_374" data-name="선 374" class="cls-15" x1="151.363" y2="102.33" transform="translate(5759.738 2021.008)"/>
      <line id="선_375" data-name="선 375" class="cls-15" x1="151.363" y2="102.33" transform="translate(5759.738 2008.877)"/>
      <line id="선_376" data-name="선 376" class="cls-15" x1="151.363" y2="102.33" transform="translate(5759.738 2029.094)"/>
      <line id="선_377" data-name="선 377" class="cls-15" x1="151.363" y2="102.33" transform="translate(5759.738 2016.964)"/>
      <line id="선_378" data-name="선 378" class="cls-15" x1="151.363" y2="102.33" transform="translate(5759.738 2037.181)"/>
      <line id="선_379" data-name="선 379" class="cls-15" x1="151.363" y2="102.33" transform="translate(5759.738 2025.051)"/>
      <line id="선_380" data-name="선 380" class="cls-15" x1="151.363" y2="102.33" transform="translate(5759.738 2045.268)"/>
      <line id="선_381" data-name="선 381" class="cls-15" x1="151.363" y2="102.33" transform="translate(5759.738 2033.138)"/>
      <line id="선_382" data-name="선 382" class="cls-15" x1="151.363" y2="102.33" transform="translate(5759.738 2053.354)"/>
      <line id="선_383" data-name="선 383" class="cls-15" x1="151.363" y2="102.33" transform="translate(5759.738 2041.225)"/>
      <line id="선_384" data-name="선 384" class="cls-15" x1="151.363" y2="102.33" transform="translate(5759.738 2061.441)"/>
      <line id="선_385" data-name="선 385" class="cls-15" x1="151.363" y2="102.33" transform="translate(5759.738 2049.311)"/>
      <line id="선_386" data-name="선 386" class="cls-15" x1="151.363" y2="102.33" transform="translate(5759.738 2077.614)"/>
      <line id="선_387" data-name="선 387" class="cls-15" x1="151.363" y2="102.33" transform="translate(5759.738 2057.398)"/>
      <line id="선_388" data-name="선 388" class="cls-15" x1="151.363" y2="102.33" transform="translate(5759.738 2093.788)"/>
      <line id="선_389" data-name="선 389" class="cls-15" x1="151.363" y2="102.33" transform="translate(5759.738 2069.528)"/>
      <line id="선_390" data-name="선 390" class="cls-15" x1="151.363" y2="102.33" transform="translate(5759.738 2109.961)"/>
      <line id="선_391" data-name="선 391" class="cls-15" x1="151.363" y2="102.33" transform="translate(5759.738 2085.701)"/>
      <line id="선_392" data-name="선 392" class="cls-15" x1="151.363" y2="102.33" transform="translate(5759.738 2126.135)"/>
      <line id="선_393" data-name="선 393" class="cls-15" x1="151.363" y2="102.33" transform="translate(5759.738 2101.875)"/>
      <line id="선_394" data-name="선 394" class="cls-15" x1="151.363" y2="102.33" transform="translate(5759.738 2142.308)"/>
      <line id="선_395" data-name="선 395" class="cls-15" x1="151.363" y2="102.33" transform="translate(5759.738 2118.048)"/>
      <line id="선_396" data-name="선 396" class="cls-15" x1="151.363" y2="102.33" transform="translate(5759.738 2158.481)"/>
      <line id="선_397" data-name="선 397" class="cls-15" x1="151.363" y2="102.33" transform="translate(5759.738 2134.221)"/>
      <line id="선_398" data-name="선 398" class="cls-15" x1="151.363" y2="102.33" transform="translate(5759.738 2174.655)"/>
      <line id="선_399" data-name="선 399" class="cls-15" x1="151.363" y2="102.33" transform="translate(5759.738 2150.395)"/>
      <line id="선_400" data-name="선 400" class="cls-15" x1="151.363" y2="102.33" transform="translate(5759.738 2190.828)"/>
      <line id="선_401" data-name="선 401" class="cls-15" x1="151.363" y2="102.33" transform="translate(5759.738 2166.568)"/>
      <line id="선_402" data-name="선 402" class="cls-15" x1="151.363" y2="102.33" transform="translate(5759.738 2202.958)"/>
      <line id="선_403" data-name="선 403" class="cls-15" x1="151.363" y2="102.33" transform="translate(5759.738 2182.741)"/>
      <line id="선_404" data-name="선 404" class="cls-15" x1="151.363" y2="102.33" transform="translate(5759.738 2081.658)"/>
      <line id="선_405" data-name="선 405" class="cls-15" x1="151.363" y2="102.33" transform="translate(5759.738 2065.484)"/>
      <line id="선_406" data-name="선 406" class="cls-15" x1="151.363" y2="102.33" transform="translate(5759.738 2097.831)"/>
      <line id="선_407" data-name="선 407" class="cls-15" x1="151.363" y2="102.33" transform="translate(5759.738 2073.571)"/>
      <line id="선_408" data-name="선 408" class="cls-15" x1="151.363" y2="102.33" transform="translate(5759.738 2114.004)"/>
      <line id="선_409" data-name="선 409" class="cls-15" x1="151.363" y2="102.33" transform="translate(5759.738 2089.745)"/>
      <line id="선_410" data-name="선 410" class="cls-15" x1="151.363" y2="102.33" transform="translate(5759.738 2130.178)"/>
      <line id="선_411" data-name="선 411" class="cls-15" x1="151.363" y2="102.33" transform="translate(5759.738 2105.918)"/>
      <line id="선_412" data-name="선 412" class="cls-15" x1="151.363" y2="102.33" transform="translate(5759.738 2146.351)"/>
      <line id="선_413" data-name="선 413" class="cls-15" x1="151.363" y2="102.33" transform="translate(5759.738 2122.091)"/>
      <line id="선_414" data-name="선 414" class="cls-15" x1="151.363" y2="102.33" transform="translate(5759.738 2162.524)"/>
      <line id="선_415" data-name="선 415" class="cls-15" x1="151.363" y2="102.33" transform="translate(5759.738 2138.265)"/>
      <line id="선_416" data-name="선 416" class="cls-15" x1="151.363" y2="102.33" transform="translate(5759.738 2178.698)"/>
      <line id="선_417" data-name="선 417" class="cls-15" x1="151.363" y2="102.33" transform="translate(5759.738 2154.438)"/>
      <line id="선_418" data-name="선 418" class="cls-15" x1="151.363" y2="102.33" transform="translate(5759.738 2194.872)"/>
      <line id="선_419" data-name="선 419" class="cls-15" x1="151.363" y2="102.33" transform="translate(5759.738 2170.611)"/>
      <line id="선_420" data-name="선 420" class="cls-15" x1="151.363" y2="102.33" transform="translate(5759.738 2207.001)"/>
      <line id="선_421" data-name="선 421" class="cls-15" x1="151.363" y2="102.33" transform="translate(5759.738 2186.785)"/>
      <line id="선_422" data-name="선 422" class="cls-15" x1="151.363" y2="102.33" transform="translate(5759.738 2215.088)"/>
      <line id="선_423" data-name="선 423" class="cls-15" x1="151.363" y2="102.33" transform="translate(5759.738 2198.915)"/>
      <line id="선_424" data-name="선 424" class="cls-15" x1="151.363" y2="102.33" transform="translate(5759.738 2223.175)"/>
      <line id="선_425" data-name="선 425" class="cls-15" x1="151.363" y2="102.33" transform="translate(5759.738 2211.045)"/>
      <line id="선_426" data-name="선 426" class="cls-15" x1="151.363" y2="102.33" transform="translate(5759.738 2231.261)"/>
      <line id="선_427" data-name="선 427" class="cls-15" x1="151.363" y2="102.33" transform="translate(5759.738 2219.131)"/>
      <line id="선_428" data-name="선 428" class="cls-15" x1="151.363" y2="102.33" transform="translate(5759.738 2227.218)"/>
      <line id="선_429" data-name="선 429" class="cls-15" x1="151.363" y2="102.33" transform="translate(5759.738 2235.305)"/>
    </g>
  </g>
  <rect id="사각형_25" data-name="사각형 25" class="cls-13" width="40" height="169.369" transform="translate(623.465 228.262)"/>
  <rect id="사각형_26" data-name="사각형 26" class="cls-2" width="40" height="212.825" transform="translate(734.993 184.632)"/>
  <rect id="사각형_27" data-name="사각형 27" class="cls-2" width="40" height="212.717" transform="translate(774.993 184.75)"/>
  <text id="_5_572-2" data-name="5,572" class="cls-11" transform="translate(736.851 241.172)"><tspan class="cls-4" x="0" y="0">5</tspan><tspan class="cls-12" y="0">,</tspan><tspan class="cls-4" y="0">57</tspan><tspan y="0">2</tspan></text>
  <text id="_6_094-2" data-name="6,094" class="cls-23" transform="translate(762.515 210.112)"><tspan class="cls-12" x="0" y="0">6</tspan><tspan class="cls-4" y="0">,</tspan><tspan class="cls-12" y="0">09</tspan><tspan y="0">4</tspan></text>
  <g id="그룹_25" data-name="그룹 25" transform="translate(-5275.955 -1836.977)">
    <g id="그룹_24" data-name="그룹 24" class="cls-24">
      <line id="선_430" data-name="선 430" class="cls-15" x1="151.363" y2="102.33" transform="translate(5921.267 2012.921)"/>
      <line id="선_431" data-name="선 431" class="cls-15" x1="151.363" y2="102.33" transform="translate(5921.267 2021.008)"/>
      <line id="선_432" data-name="선 432" class="cls-15" x1="151.363" y2="102.33" transform="translate(5921.267 2008.877)"/>
      <line id="선_433" data-name="선 433" class="cls-15" x1="151.363" y2="102.33" transform="translate(5921.267 2029.094)"/>
      <line id="선_434" data-name="선 434" class="cls-15" x1="151.363" y2="102.33" transform="translate(5921.267 2016.964)"/>
      <line id="선_435" data-name="선 435" class="cls-15" x1="151.363" y2="102.33" transform="translate(5921.267 2037.181)"/>
      <line id="선_436" data-name="선 436" class="cls-15" x1="151.363" y2="102.33" transform="translate(5921.267 2025.051)"/>
      <line id="선_437" data-name="선 437" class="cls-15" x1="151.363" y2="102.33" transform="translate(5921.267 2045.268)"/>
      <line id="선_438" data-name="선 438" class="cls-15" x1="151.363" y2="102.33" transform="translate(5921.267 2033.138)"/>
      <line id="선_439" data-name="선 439" class="cls-15" x1="151.363" y2="102.33" transform="translate(5921.267 2053.354)"/>
      <line id="선_440" data-name="선 440" class="cls-15" x1="151.363" y2="102.33" transform="translate(5921.267 2041.225)"/>
      <line id="선_441" data-name="선 441" class="cls-15" x1="151.363" y2="102.33" transform="translate(5921.267 2061.441)"/>
      <line id="선_442" data-name="선 442" class="cls-15" x1="151.363" y2="102.33" transform="translate(5921.267 2049.311)"/>
      <line id="선_443" data-name="선 443" class="cls-15" x1="151.363" y2="102.33" transform="translate(5921.267 2077.614)"/>
      <line id="선_444" data-name="선 444" class="cls-15" x1="151.363" y2="102.33" transform="translate(5921.267 2057.398)"/>
      <line id="선_445" data-name="선 445" class="cls-15" x1="151.363" y2="102.33" transform="translate(5921.267 2093.788)"/>
      <line id="선_446" data-name="선 446" class="cls-15" x1="151.363" y2="102.33" transform="translate(5921.267 2069.528)"/>
      <line id="선_447" data-name="선 447" class="cls-15" x1="151.363" y2="102.33" transform="translate(5921.267 2109.961)"/>
      <line id="선_448" data-name="선 448" class="cls-15" x1="151.363" y2="102.33" transform="translate(5921.267 2085.701)"/>
      <line id="선_449" data-name="선 449" class="cls-15" x1="151.363" y2="102.33" transform="translate(5921.267 2126.135)"/>
      <line id="선_450" data-name="선 450" class="cls-15" x1="151.363" y2="102.33" transform="translate(5921.267 2101.875)"/>
      <line id="선_451" data-name="선 451" class="cls-15" x1="151.363" y2="102.33" transform="translate(5921.267 2142.308)"/>
      <line id="선_452" data-name="선 452" class="cls-15" x1="151.363" y2="102.33" transform="translate(5921.267 2118.048)"/>
      <line id="선_453" data-name="선 453" class="cls-15" x1="151.363" y2="102.33" transform="translate(5921.267 2158.481)"/>
      <line id="선_454" data-name="선 454" class="cls-15" x1="151.363" y2="102.33" transform="translate(5921.267 2134.221)"/>
      <line id="선_455" data-name="선 455" class="cls-15" x1="151.363" y2="102.33" transform="translate(5921.267 2174.655)"/>
      <line id="선_456" data-name="선 456" class="cls-15" x1="151.363" y2="102.33" transform="translate(5921.267 2150.395)"/>
      <line id="선_457" data-name="선 457" class="cls-15" x1="151.363" y2="102.33" transform="translate(5921.267 2190.828)"/>
      <line id="선_458" data-name="선 458" class="cls-15" x1="151.363" y2="102.33" transform="translate(5921.267 2166.568)"/>
      <line id="선_459" data-name="선 459" class="cls-15" x1="151.363" y2="102.33" transform="translate(5921.267 2202.958)"/>
      <line id="선_460" data-name="선 460" class="cls-15" x1="151.363" y2="102.33" transform="translate(5921.267 2182.741)"/>
      <line id="선_461" data-name="선 461" class="cls-15" x1="151.363" y2="102.33" transform="translate(5921.267 2081.658)"/>
      <line id="선_462" data-name="선 462" class="cls-15" x1="151.363" y2="102.33" transform="translate(5921.267 2065.484)"/>
      <line id="선_463" data-name="선 463" class="cls-15" x1="151.363" y2="102.33" transform="translate(5921.267 2097.831)"/>
      <line id="선_464" data-name="선 464" class="cls-15" x1="151.363" y2="102.33" transform="translate(5921.267 2073.571)"/>
      <line id="선_465" data-name="선 465" class="cls-15" x1="151.363" y2="102.33" transform="translate(5921.267 2114.004)"/>
      <line id="선_466" data-name="선 466" class="cls-15" x1="151.363" y2="102.33" transform="translate(5921.267 2089.745)"/>
      <line id="선_467" data-name="선 467" class="cls-15" x1="151.363" y2="102.33" transform="translate(5921.267 2130.178)"/>
      <line id="선_468" data-name="선 468" class="cls-15" x1="151.363" y2="102.33" transform="translate(5921.267 2105.918)"/>
      <line id="선_469" data-name="선 469" class="cls-15" x1="151.363" y2="102.33" transform="translate(5921.267 2146.351)"/>
      <line id="선_470" data-name="선 470" class="cls-15" x1="151.363" y2="102.33" transform="translate(5921.267 2122.091)"/>
      <line id="선_471" data-name="선 471" class="cls-15" x1="151.363" y2="102.33" transform="translate(5921.267 2162.524)"/>
      <line id="선_472" data-name="선 472" class="cls-15" x1="151.363" y2="102.33" transform="translate(5921.267 2138.265)"/>
      <line id="선_473" data-name="선 473" class="cls-15" x1="151.363" y2="102.33" transform="translate(5921.267 2178.698)"/>
      <line id="선_474" data-name="선 474" class="cls-15" x1="151.363" y2="102.33" transform="translate(5921.267 2154.438)"/>
      <line id="선_475" data-name="선 475" class="cls-15" x1="151.363" y2="102.33" transform="translate(5921.267 2194.872)"/>
      <line id="선_476" data-name="선 476" class="cls-15" x1="151.363" y2="102.33" transform="translate(5921.267 2170.611)"/>
      <line id="선_477" data-name="선 477" class="cls-15" x1="151.363" y2="102.33" transform="translate(5921.267 2207.001)"/>
      <line id="선_478" data-name="선 478" class="cls-15" x1="151.363" y2="102.33" transform="translate(5921.267 2186.785)"/>
      <line id="선_479" data-name="선 479" class="cls-15" x1="151.363" y2="102.33" transform="translate(5921.267 2215.088)"/>
      <line id="선_480" data-name="선 480" class="cls-15" x1="151.363" y2="102.33" transform="translate(5921.267 2198.915)"/>
      <line id="선_481" data-name="선 481" class="cls-15" x1="151.363" y2="102.33" transform="translate(5921.267 2223.175)"/>
      <line id="선_482" data-name="선 482" class="cls-15" x1="151.363" y2="102.33" transform="translate(5921.267 2211.045)"/>
      <line id="선_483" data-name="선 483" class="cls-15" x1="151.363" y2="102.33" transform="translate(5921.267 2231.261)"/>
      <line id="선_484" data-name="선 484" class="cls-15" x1="151.363" y2="102.33" transform="translate(5921.267 2219.131)"/>
      <line id="선_485" data-name="선 485" class="cls-15" x1="151.363" y2="102.33" transform="translate(5921.267 2227.218)"/>
      <line id="선_486" data-name="선 486" class="cls-15" x1="151.363" y2="102.33" transform="translate(5921.267 2235.305)"/>
    </g>
  </g>
  <rect id="사각형_29" data-name="사각형 29" class="cls-25" width="40" height="169.369" transform="translate(774.993 228.262)"/>
  <line id="선_487" data-name="선 487" class="cls-26" y1="328.622" transform="translate(512.079 70.118)"/>
  <line id="선_488" data-name="선 488" class="cls-26" y1="350.678" transform="translate(303.013 48.062)"/>
  <line id="선_489" data-name="선 489" class="cls-26" y1="328.622" transform="translate(663.323 70.118)"/>
  <line id="선_490" data-name="선 490" class="cls-26" y1="298.812" transform="translate(815.134 99.927)"/>
  <line id="선_491" data-name="선 491" class="cls-27" x2="16.478" transform="translate(1 70.118)"/>
  <line id="선_492" data-name="선 492" class="cls-28" x2="16.478" transform="translate(1 93.9)"/>
</svg>
