<svg id="구성_요소_45_1" data-name="구성 요소 45 – 1" xmlns="http://www.w3.org/2000/svg" xmlns:xlink="http://www.w3.org/1999/xlink" width="330.8" height="122.14" viewBox="0 0 330.8 122.14">
  <defs>
    <style>
      .cls-1, .cls-10, .cls-6 {
        fill: none;
      }

      .cls-2 {
        fill: #1e2323;
      }

      .cls-3 {
        fill: #132e54;
      }

      .cls-4 {
        fill: #f5f7f7;
      }

      .cls-5 {
        clip-path: url(#clip-path);
      }

      .cls-6 {
        stroke: #78a5e2;
      }

      .cls-7 {
        fill: #4b4f50;
      }

      .cls-8 {
        clip-path: url(#clip-path-2);
      }

      .cls-9 {
        fill: #fff;
      }

      .cls-10 {
        stroke: #3e3a39;
      }
    </style>
    <clipPath id="clip-path">
      <rect id="사각형_145" data-name="사각형 145" class="cls-1" width="288.547" height="20.001"/>
    </clipPath>
    <clipPath id="clip-path-2">
      <rect id="사각형_147" data-name="사각형 147" class="cls-1" width="256.555" height="19.999"/>
    </clipPath>
  </defs>
  <path id="패스_1314" data-name="패스 1314" class="cls-2" d="M.63,0H6.776V-.728H3.6c-.532,0-1.12.042-1.68.084C4.634-3.178,6.286-5.32,6.286-7.462a2.674,2.674,0,0,0-2.828-2.926,3.752,3.752,0,0,0-2.87,1.47l.518.49A3.04,3.04,0,0,1,3.374-9.7,2.006,2.006,0,0,1,5.46-7.434C5.46-5.586,4.088-3.486.63-.5ZM11.046.182c1.848,0,3-1.736,3-5.32,0-3.542-1.148-5.25-3-5.25s-3.01,1.708-3.01,5.25C8.036-1.554,9.184.182,11.046.182Zm0-.686c-1.33,0-2.2-1.54-2.2-4.634,0-3.038.868-4.564,2.2-4.564S13.23-8.176,13.23-5.138C13.23-2.044,12.362-.5,11.046-.5Zm4.83.5H21.14V-.714H19.012v-9.492h-.658a5.859,5.859,0,0,1-1.946.644v.546h1.778v8.3h-2.31Zm8.876,0h.882c.154-3.99.658-6.538,3.08-9.716v-.49h-6.16v.714H27.72C25.69-6.664,24.92-4.074,24.752,0Z" transform="translate(3.399 16.16)"/>
  <path id="패스_1315" data-name="패스 1315" class="cls-2" d="M.63,0H6.776V-.728H3.6c-.532,0-1.12.042-1.68.084C4.634-3.178,6.286-5.32,6.286-7.462a2.674,2.674,0,0,0-2.828-2.926,3.752,3.752,0,0,0-2.87,1.47l.518.49A3.04,3.04,0,0,1,3.374-9.7,2.006,2.006,0,0,1,5.46-7.434C5.46-5.586,4.088-3.486.63-.5ZM11.046.182c1.848,0,3-1.736,3-5.32,0-3.542-1.148-5.25-3-5.25s-3.01,1.708-3.01,5.25C8.036-1.554,9.184.182,11.046.182Zm0-.686c-1.33,0-2.2-1.54-2.2-4.634,0-3.038.868-4.564,2.2-4.564S13.23-8.176,13.23-5.138C13.23-2.044,12.362-.5,11.046-.5Zm4.83.5H21.14V-.714H19.012v-9.492h-.658a5.859,5.859,0,0,1-1.946.644v.546h1.778v8.3h-2.31Zm9.8.182a2.761,2.761,0,0,0,3.052-2.59,3,3,0,0,0-1.736-2.66v-.07a3.568,3.568,0,0,0,1.4-2.534,2.535,2.535,0,0,0-2.7-2.674,2.5,2.5,0,0,0-2.632,2.52,2.818,2.818,0,0,0,1.4,2.324v.056a3.452,3.452,0,0,0-1.946,2.912A2.879,2.879,0,0,0,25.676.182Zm.714-5.544c-1.274-.5-2.548-1.078-2.548-2.464a1.787,1.787,0,0,1,1.834-1.862,1.918,1.918,0,0,1,1.96,2.044A2.977,2.977,0,0,1,26.39-5.362ZM25.676-.476a2.2,2.2,0,0,1-2.394-2.1,3.036,3.036,0,0,1,1.666-2.562c1.54.6,2.968,1.162,2.968,2.716A2.026,2.026,0,0,1,25.676-.476Z" transform="translate(3.399 54.156)"/>
  <path id="패스_1316" data-name="패스 1316" class="cls-3" d="M.66,0H7.785V-1.47H5.025c-.54,0-1.23.045-1.8.1C5.565-3.6,7.26-5.8,7.26-7.935A3.122,3.122,0,0,0,3.93-11.25,4.332,4.332,0,0,0,.57-9.6l.975.96A2.994,2.994,0,0,1,3.72-9.87,1.8,1.8,0,0,1,5.595-7.845C5.595-6.03,3.915-3.885.66-1ZM12.54.2c2.16,0,3.57-1.92,3.57-5.76,0-3.81-1.41-5.685-3.57-5.685-2.175,0-3.57,1.86-3.57,5.685C8.97-1.725,10.365.2,12.54.2Zm0-1.365c-1.125,0-1.92-1.2-1.92-4.395,0-3.165.795-4.32,1.92-4.32s1.92,1.155,1.92,4.32C14.46-2.37,13.665-1.17,12.54-1.17ZM17.82,0h6.3V-1.425H21.96V-11.04H20.655a6.782,6.782,0,0,1-2.4.84v1.1h1.98v7.68H17.82ZM28.83-5.4c-1.155,0-1.785-.81-1.785-2.22,0-1.44.75-2.295,1.695-2.295,1.2,0,2.025.99,2.19,3.165A2.648,2.648,0,0,1,28.83-5.4ZM25.62-.975A3.789,3.789,0,0,0,28.44.2c2.13,0,4.11-1.74,4.11-6.09,0-3.645-1.71-5.355-3.825-5.355A3.376,3.376,0,0,0,25.44-7.62c0,2.31,1.245,3.465,3.09,3.465a3.319,3.319,0,0,0,2.43-1.29c-.1,3.15-1.26,4.23-2.595,4.23A2.461,2.461,0,0,1,26.55-2.04Z" transform="translate(-0.57 92.6)"/>
  <rect id="사각형_144" data-name="사각형 144" class="cls-4" width="288.548" height="20" transform="translate(42.252 38)"/>
  <g id="그룹_108" data-name="그룹 108" transform="translate(42.252 37.999)">
    <g id="그룹_107" data-name="그룹 107" class="cls-5">
      <line id="선_824" data-name="선 824" class="cls-6" x1="121.252" y1="151.363" transform="translate(225.789 -68.855)"/>
      <line id="선_825" data-name="선 825" class="cls-6" x1="121.252" y1="151.363" transform="translate(235.371 -68.855)"/>
      <line id="선_826" data-name="선 826" class="cls-6" x1="121.252" y1="151.363" transform="translate(216.207 -68.855)"/>
      <line id="선_827" data-name="선 827" class="cls-6" x1="121.252" y1="151.363" transform="translate(230.58 -68.855)"/>
      <line id="선_828" data-name="선 828" class="cls-6" x1="121.252" y1="151.363" transform="translate(206.625 -68.855)"/>
      <line id="선_829" data-name="선 829" class="cls-6" x1="121.252" y1="151.363" transform="translate(220.998 -68.855)"/>
      <line id="선_830" data-name="선 830" class="cls-6" x1="121.252" y1="151.363" transform="translate(197.043 -68.855)"/>
      <line id="선_831" data-name="선 831" class="cls-6" x1="121.252" y1="151.363" transform="translate(211.416 -68.855)"/>
      <line id="선_832" data-name="선 832" class="cls-6" x1="121.252" y1="151.363" transform="translate(187.461 -68.855)"/>
      <line id="선_833" data-name="선 833" class="cls-6" x1="121.252" y1="151.363" transform="translate(201.834 -68.855)"/>
      <line id="선_834" data-name="선 834" class="cls-6" x1="121.252" y1="151.363" transform="translate(177.879 -68.855)"/>
      <line id="선_835" data-name="선 835" class="cls-6" x1="121.252" y1="151.363" transform="translate(192.252 -68.855)"/>
      <line id="선_836" data-name="선 836" class="cls-6" x1="121.252" y1="151.363" transform="translate(168.297 -68.855)"/>
      <line id="선_837" data-name="선 837" class="cls-6" x1="121.252" y1="151.363" transform="translate(182.67 -68.855)"/>
      <line id="선_838" data-name="선 838" class="cls-6" x1="121.252" y1="151.363" transform="translate(149.133 -68.855)"/>
      <line id="선_839" data-name="선 839" class="cls-6" x1="121.252" y1="151.363" transform="translate(173.088 -68.855)"/>
      <line id="선_840" data-name="선 840" class="cls-6" x1="121.252" y1="151.363" transform="translate(129.969 -68.855)"/>
      <line id="선_841" data-name="선 841" class="cls-6" x1="121.252" y1="151.363" transform="translate(158.715 -68.855)"/>
      <line id="선_842" data-name="선 842" class="cls-6" x1="121.252" y1="151.363" transform="translate(110.805 -68.855)"/>
      <line id="선_843" data-name="선 843" class="cls-6" x1="121.252" y1="151.363" transform="translate(139.551 -68.855)"/>
      <line id="선_844" data-name="선 844" class="cls-6" x1="121.252" y1="151.363" transform="translate(91.641 -68.855)"/>
      <line id="선_845" data-name="선 845" class="cls-6" x1="121.252" y1="151.363" transform="translate(120.387 -68.855)"/>
      <line id="선_846" data-name="선 846" class="cls-6" x1="121.252" y1="151.363" transform="translate(72.477 -68.855)"/>
      <line id="선_847" data-name="선 847" class="cls-6" x1="121.252" y1="151.363" transform="translate(101.223 -68.855)"/>
      <line id="선_848" data-name="선 848" class="cls-6" x1="121.252" y1="151.363" transform="translate(53.313 -68.855)"/>
      <line id="선_849" data-name="선 849" class="cls-6" x1="121.252" y1="151.363" transform="translate(82.059 -68.855)"/>
      <line id="선_850" data-name="선 850" class="cls-6" x1="121.252" y1="151.363" transform="translate(34.149 -68.855)"/>
      <line id="선_851" data-name="선 851" class="cls-6" x1="121.252" y1="151.363" transform="translate(62.895 -68.855)"/>
      <line id="선_852" data-name="선 852" class="cls-6" x1="121.252" y1="151.363" transform="translate(14.985 -68.855)"/>
      <line id="선_853" data-name="선 853" class="cls-6" x1="121.252" y1="151.363" transform="translate(43.731 -68.855)"/>
      <line id="선_854" data-name="선 854" class="cls-6" x1="121.252" y1="151.363" transform="translate(0.612 -68.855)"/>
      <line id="선_855" data-name="선 855" class="cls-6" x1="121.252" y1="151.363" transform="translate(24.567 -68.855)"/>
      <line id="선_856" data-name="선 856" class="cls-6" x1="121.252" y1="151.363" transform="translate(144.342 -68.855)"/>
      <line id="선_857" data-name="선 857" class="cls-6" x1="121.252" y1="151.363" transform="translate(163.506 -68.855)"/>
      <line id="선_858" data-name="선 858" class="cls-6" x1="121.252" y1="151.363" transform="translate(125.178 -68.855)"/>
      <line id="선_859" data-name="선 859" class="cls-6" x1="121.252" y1="151.363" transform="translate(153.924 -68.855)"/>
      <line id="선_860" data-name="선 860" class="cls-6" x1="121.252" y1="151.363" transform="translate(106.014 -68.855)"/>
      <line id="선_861" data-name="선 861" class="cls-6" x1="121.252" y1="151.363" transform="translate(134.76 -68.855)"/>
      <line id="선_862" data-name="선 862" class="cls-6" x1="121.252" y1="151.363" transform="translate(86.85 -68.855)"/>
      <line id="선_863" data-name="선 863" class="cls-6" x1="121.252" y1="151.363" transform="translate(115.596 -68.855)"/>
      <line id="선_864" data-name="선 864" class="cls-6" x1="121.252" y1="151.363" transform="translate(67.686 -68.855)"/>
      <line id="선_865" data-name="선 865" class="cls-6" x1="121.252" y1="151.363" transform="translate(96.432 -68.855)"/>
      <line id="선_866" data-name="선 866" class="cls-6" x1="121.252" y1="151.363" transform="translate(48.522 -68.855)"/>
      <line id="선_867" data-name="선 867" class="cls-6" x1="121.252" y1="151.363" transform="translate(77.268 -68.855)"/>
      <line id="선_868" data-name="선 868" class="cls-6" x1="121.252" y1="151.363" transform="translate(29.358 -68.855)"/>
      <line id="선_869" data-name="선 869" class="cls-6" x1="121.252" y1="151.363" transform="translate(58.104 -68.855)"/>
      <line id="선_870" data-name="선 870" class="cls-6" x1="121.252" y1="151.363" transform="translate(10.194 -68.855)"/>
      <line id="선_871" data-name="선 871" class="cls-6" x1="121.252" y1="151.363" transform="translate(38.94 -68.855)"/>
      <line id="선_872" data-name="선 872" class="cls-6" x1="121.252" y1="151.363" transform="translate(-4.179 -68.855)"/>
      <line id="선_873" data-name="선 873" class="cls-6" x1="121.252" y1="151.363" transform="translate(19.776 -68.855)"/>
      <line id="선_874" data-name="선 874" class="cls-6" x1="121.252" y1="151.363" transform="translate(-13.761 -68.855)"/>
      <line id="선_875" data-name="선 875" class="cls-6" x1="121.252" y1="151.363" transform="translate(5.403 -68.855)"/>
      <line id="선_876" data-name="선 876" class="cls-6" x1="121.252" y1="151.363" transform="translate(-23.343 -68.855)"/>
      <line id="선_877" data-name="선 877" class="cls-6" x1="121.252" y1="151.363" transform="translate(-8.97 -68.855)"/>
      <line id="선_878" data-name="선 878" class="cls-6" x1="121.252" y1="151.363" transform="translate(-32.925 -68.855)"/>
      <line id="선_879" data-name="선 879" class="cls-6" x1="121.252" y1="151.363" transform="translate(-18.552 -68.855)"/>
      <line id="선_880" data-name="선 880" class="cls-6" x1="121.252" y1="151.363" transform="translate(-42.507 -68.855)"/>
      <line id="선_881" data-name="선 881" class="cls-6" x1="121.252" y1="151.363" transform="translate(-28.134 -68.855)"/>
      <line id="선_882" data-name="선 882" class="cls-6" x1="121.252" y1="151.363" transform="translate(-52.089 -68.855)"/>
      <line id="선_883" data-name="선 883" class="cls-6" x1="121.252" y1="151.363" transform="translate(-37.716 -68.855)"/>
      <line id="선_884" data-name="선 884" class="cls-6" x1="121.252" y1="151.363" transform="translate(-61.671 -68.855)"/>
      <line id="선_885" data-name="선 885" class="cls-6" x1="121.252" y1="151.363" transform="translate(-47.298 -68.855)"/>
      <line id="선_886" data-name="선 886" class="cls-6" x1="121.252" y1="151.363" transform="translate(-66.462 -68.855)"/>
      <line id="선_887" data-name="선 887" class="cls-6" x1="121.252" y1="151.363" transform="translate(-56.88 -68.855)"/>
    </g>
  </g>
  <path id="패스_1318" data-name="패스 1318" class="cls-2" d="M1.32,0H7.35V-1.14H5.145v-9.855H4.1a6.967,6.967,0,0,1-2.28.78v.87h1.95V-1.14H1.32ZM12.195.2c2.085,0,3.42-1.905,3.42-5.73s-1.335-5.67-3.42-5.67c-2.1,0-3.435,1.845-3.435,5.67S10.095.2,12.195.2Zm0-1.095c-1.26,0-2.1-1.4-2.1-4.635,0-3.21.84-4.56,2.1-4.56,1.245,0,2.085,1.35,2.085,4.56C14.28-2.3,13.44-.9,12.195-.9ZM20.235.2c2.085,0,3.42-1.905,3.42-5.73s-1.335-5.67-3.42-5.67c-2.1,0-3.435,1.845-3.435,5.67S18.135.2,20.235.2Zm0-1.095c-1.26,0-2.1-1.4-2.1-4.635,0-3.21.84-4.56,2.1-4.56,1.245,0,2.085,1.35,2.085,4.56C22.32-2.3,21.48-.9,20.235-.9Z" transform="translate(297.001 54.6)"/>
  <rect id="사각형_146" data-name="사각형 146" class="cls-4" width="288.548" height="20" transform="translate(42.252)"/>
  <path id="패스_1317" data-name="패스 1317" class="cls-7" d="M3.915-5.19C2.61-5.19,1.95-6.15,1.95-7.635s.81-2.49,1.86-2.49c1.41,0,2.25,1.2,2.4,3.465A2.906,2.906,0,0,1,3.915-5.19ZM.87-.93A3.5,3.5,0,0,0,3.51.2C5.58.2,7.5-1.515,7.5-5.97,7.5-9.465,5.925-11.2,3.81-11.2A3.3,3.3,0,0,0,.66-7.635c0,2.28,1.2,3.465,3.03,3.465A3.39,3.39,0,0,0,6.225-5.535C6.12-2.115,4.89-.945,3.465-.945a2.481,2.481,0,0,1-1.845-.84ZM12.195.2c2.085,0,3.42-1.905,3.42-5.73s-1.335-5.67-3.42-5.67c-2.1,0-3.435,1.845-3.435,5.67S10.095.2,12.195.2Zm0-1.095c-1.26,0-2.1-1.4-2.1-4.635,0-3.21.84-4.56,2.1-4.56,1.245,0,2.085,1.35,2.085,4.56C14.28-2.3,13.44-.9,12.195-.9Z" transform="translate(305.025 16.6)"/>
  <g id="그룹_110" data-name="그룹 110" transform="translate(42.252)">
    <g id="그룹_109" data-name="그룹 109" class="cls-8">
      <line id="선_888" data-name="선 888" class="cls-6" x1="124.114" y1="151.363" transform="translate(223.841 -60.681)"/>
      <line id="선_889" data-name="선 889" class="cls-6" x1="124.114" y1="151.363" transform="translate(233.649 -60.681)"/>
      <line id="선_890" data-name="선 890" class="cls-6" x1="124.114" y1="151.363" transform="translate(214.033 -60.681)"/>
      <line id="선_891" data-name="선 891" class="cls-6" x1="124.114" y1="151.363" transform="translate(228.745 -60.681)"/>
      <line id="선_892" data-name="선 892" class="cls-6" x1="124.114" y1="151.363" transform="translate(204.224 -60.681)"/>
      <line id="선_893" data-name="선 893" class="cls-6" x1="124.114" y1="151.363" transform="translate(218.937 -60.681)"/>
      <line id="선_894" data-name="선 894" class="cls-6" x1="124.114" y1="151.363" transform="translate(194.416 -60.681)"/>
      <line id="선_895" data-name="선 895" class="cls-6" x1="124.114" y1="151.363" transform="translate(209.128 -60.681)"/>
      <line id="선_896" data-name="선 896" class="cls-6" x1="124.114" y1="151.363" transform="translate(184.608 -60.681)"/>
      <line id="선_897" data-name="선 897" class="cls-6" x1="124.114" y1="151.363" transform="translate(199.321 -60.681)"/>
      <line id="선_898" data-name="선 898" class="cls-6" x1="124.114" y1="151.363" transform="translate(174.8 -60.681)"/>
      <line id="선_899" data-name="선 899" class="cls-6" x1="124.114" y1="151.363" transform="translate(189.512 -60.681)"/>
      <line id="선_900" data-name="선 900" class="cls-6" x1="124.114" y1="151.363" transform="translate(164.992 -60.681)"/>
      <line id="선_901" data-name="선 901" class="cls-6" x1="124.114" y1="151.363" transform="translate(179.704 -60.681)"/>
      <line id="선_902" data-name="선 902" class="cls-6" x1="124.114" y1="151.363" transform="translate(145.375 -60.681)"/>
      <line id="선_903" data-name="선 903" class="cls-6" x1="124.114" y1="151.363" transform="translate(169.896 -60.681)"/>
      <line id="선_904" data-name="선 904" class="cls-6" x1="124.114" y1="151.363" transform="translate(125.759 -60.681)"/>
      <line id="선_905" data-name="선 905" class="cls-6" x1="124.114" y1="151.363" transform="translate(155.184 -60.681)"/>
      <line id="선_906" data-name="선 906" class="cls-6" x1="124.114" y1="151.363" transform="translate(106.143 -60.681)"/>
      <line id="선_907" data-name="선 907" class="cls-6" x1="124.114" y1="151.363" transform="translate(135.567 -60.681)"/>
      <line id="선_908" data-name="선 908" class="cls-6" x1="124.114" y1="151.363" transform="translate(86.526 -60.681)"/>
      <line id="선_909" data-name="선 909" class="cls-6" x1="124.114" y1="151.363" transform="translate(115.951 -60.681)"/>
      <line id="선_910" data-name="선 910" class="cls-6" x1="124.114" y1="151.363" transform="translate(66.91 -60.681)"/>
      <line id="선_911" data-name="선 911" class="cls-6" x1="124.114" y1="151.363" transform="translate(96.335 -60.681)"/>
      <line id="선_912" data-name="선 912" class="cls-6" x1="124.114" y1="151.363" transform="translate(47.294 -60.681)"/>
      <line id="선_913" data-name="선 913" class="cls-6" x1="124.114" y1="151.363" transform="translate(76.719 -60.681)"/>
      <line id="선_914" data-name="선 914" class="cls-6" x1="124.114" y1="151.363" transform="translate(27.678 -60.681)"/>
      <line id="선_915" data-name="선 915" class="cls-6" x1="124.114" y1="151.363" transform="translate(57.102 -60.681)"/>
      <line id="선_916" data-name="선 916" class="cls-6" x1="124.114" y1="151.363" transform="translate(8.061 -60.681)"/>
      <line id="선_917" data-name="선 917" class="cls-6" x1="124.114" y1="151.363" transform="translate(37.486 -60.681)"/>
      <line id="선_918" data-name="선 918" class="cls-6" x1="124.114" y1="151.363" transform="translate(-6.651 -60.681)"/>
      <line id="선_919" data-name="선 919" class="cls-6" x1="124.114" y1="151.363" transform="translate(17.87 -60.681)"/>
      <line id="선_920" data-name="선 920" class="cls-6" x1="124.114" y1="151.363" transform="translate(140.471 -60.681)"/>
      <line id="선_921" data-name="선 921" class="cls-6" x1="124.114" y1="151.363" transform="translate(160.088 -60.681)"/>
      <line id="선_922" data-name="선 922" class="cls-6" x1="124.114" y1="151.363" transform="translate(120.855 -60.681)"/>
      <line id="선_923" data-name="선 923" class="cls-6" x1="124.114" y1="151.363" transform="translate(150.28 -60.681)"/>
      <line id="선_924" data-name="선 924" class="cls-6" x1="124.114" y1="151.363" transform="translate(101.239 -60.681)"/>
      <line id="선_925" data-name="선 925" class="cls-6" x1="124.114" y1="151.363" transform="translate(130.663 -60.681)"/>
      <line id="선_926" data-name="선 926" class="cls-6" x1="124.114" y1="151.363" transform="translate(81.623 -60.681)"/>
      <line id="선_927" data-name="선 927" class="cls-6" x1="124.114" y1="151.363" transform="translate(111.047 -60.681)"/>
      <line id="선_928" data-name="선 928" class="cls-6" x1="124.114" y1="151.363" transform="translate(62.006 -60.681)"/>
      <line id="선_929" data-name="선 929" class="cls-6" x1="124.114" y1="151.363" transform="translate(91.431 -60.681)"/>
      <line id="선_930" data-name="선 930" class="cls-6" x1="124.114" y1="151.363" transform="translate(42.39 -60.681)"/>
      <line id="선_931" data-name="선 931" class="cls-6" x1="124.114" y1="151.363" transform="translate(71.814 -60.681)"/>
      <line id="선_932" data-name="선 932" class="cls-6" x1="124.114" y1="151.363" transform="translate(22.774 -60.681)"/>
      <line id="선_933" data-name="선 933" class="cls-6" x1="124.114" y1="151.363" transform="translate(52.198 -60.681)"/>
      <line id="선_934" data-name="선 934" class="cls-6" x1="124.114" y1="151.363" transform="translate(3.157 -60.681)"/>
      <line id="선_935" data-name="선 935" class="cls-6" x1="124.114" y1="151.363" transform="translate(32.582 -60.681)"/>
      <line id="선_936" data-name="선 936" class="cls-6" x1="124.114" y1="151.363" transform="translate(-11.555 -60.681)"/>
      <line id="선_937" data-name="선 937" class="cls-6" x1="124.114" y1="151.363" transform="translate(12.966 -60.681)"/>
      <line id="선_938" data-name="선 938" class="cls-6" x1="124.114" y1="151.363" transform="translate(-21.363 -60.681)"/>
      <line id="선_939" data-name="선 939" class="cls-6" x1="124.114" y1="151.363" transform="translate(-1.747 -60.681)"/>
      <line id="선_940" data-name="선 940" class="cls-6" x1="124.114" y1="151.363" transform="translate(-31.171 -60.681)"/>
      <line id="선_941" data-name="선 941" class="cls-6" x1="124.114" y1="151.363" transform="translate(-16.459 -60.681)"/>
      <line id="선_942" data-name="선 942" class="cls-6" x1="124.114" y1="151.363" transform="translate(-40.979 -60.681)"/>
      <line id="선_943" data-name="선 943" class="cls-6" x1="124.114" y1="151.363" transform="translate(-26.267 -60.681)"/>
      <line id="선_944" data-name="선 944" class="cls-6" x1="124.114" y1="151.363" transform="translate(-50.787 -60.681)"/>
      <line id="선_945" data-name="선 945" class="cls-6" x1="124.114" y1="151.363" transform="translate(-36.075 -60.681)"/>
      <line id="선_946" data-name="선 946" class="cls-6" x1="124.114" y1="151.363" transform="translate(-60.596 -60.681)"/>
      <line id="선_947" data-name="선 947" class="cls-6" x1="124.114" y1="151.363" transform="translate(-45.884 -60.681)"/>
      <line id="선_948" data-name="선 948" class="cls-6" x1="124.114" y1="151.363" transform="translate(-70.404 -60.681)"/>
      <line id="선_949" data-name="선 949" class="cls-6" x1="124.114" y1="151.363" transform="translate(-55.692 -60.681)"/>
      <line id="선_950" data-name="선 950" class="cls-6" x1="124.114" y1="151.363" transform="translate(-75.308 -60.681)"/>
      <line id="선_951" data-name="선 951" class="cls-6" x1="124.114" y1="151.363" transform="translate(-65.5 -60.681)"/>
    </g>
  </g>
  <rect id="사각형_148" data-name="사각형 148" class="cls-4" width="288.548" height="20" transform="translate(42.252 76)"/>
  <rect id="사각형_149" data-name="사각형 149" class="cls-3" width="288.548" height="20" transform="translate(42.252 76)"/>
  <path id="패스_1319" data-name="패스 1319" class="cls-9" d="M1.462,0H8.6V-1.615H6.154v-10.9H4.675a7.686,7.686,0,0,1-2.72.952v1.241H4.2v8.7H1.462Zm12.75.221c2.448,0,4.046-2.176,4.046-6.528,0-4.318-1.6-6.443-4.046-6.443-2.465,0-4.046,2.108-4.046,6.443C10.166-1.955,11.747.221,14.212.221Zm0-1.547c-1.275,0-2.176-1.36-2.176-4.981,0-3.587.9-4.9,2.176-4.9s2.176,1.309,2.176,4.9C16.388-2.686,15.487-1.326,14.212-1.326ZM23.579.221c2.448,0,4.046-2.176,4.046-6.528,0-4.318-1.6-6.443-4.046-6.443-2.465,0-4.046,2.108-4.046,6.443C19.533-1.955,21.114.221,23.579.221Zm0-1.547c-1.275,0-2.176-1.36-2.176-4.981,0-3.587.9-4.9,2.176-4.9s2.176,1.309,2.176,4.9C25.755-2.686,24.854-1.326,23.579-1.326Z" transform="translate(296.99 93.48)"/>
  <line id="선_952" data-name="선 952" class="cls-10" y2="122.14" transform="translate(42.752)"/>
</svg>
