<svg id="구성_요소_47_1" data-name="구성 요소 47 – 1" xmlns="http://www.w3.org/2000/svg" xmlns:xlink="http://www.w3.org/1999/xlink" width="796" height="267.557" viewBox="0 0 796 267.557">
  <defs>
    <style>
      .cls-1, .cls-5, .cls-6, .cls-7, .cls-8 {
        fill: none;
      }

      .cls-2 {
        clip-path: url(#clip-path);
      }

      .cls-3 {
        fill: #132d53;
      }

      .cls-13, .cls-14, .cls-4 {
        fill: #5a78b5;
      }

      .cls-5, .cls-6, .cls-7, .cls-8 {
        stroke: #42454a;
        stroke-linecap: round;
        stroke-linejoin: round;
      }

      .cls-5 {
        stroke-dasharray: 0 2.99;
      }

      .cls-7 {
        stroke-dasharray: 0 2.999;
      }

      .cls-8 {
        stroke-dasharray: 0 2.984;
      }

      .cls-9 {
        fill: #a6c4ec;
      }

      .cls-10 {
        fill: #fff;
      }

      .cls-11, .cls-12 {
        fill: #1e2323;
      }

      .cls-12 {
        font-size: 17px;
      }

      .cls-12, .cls-13, .cls-14 {
        font-family: NotoSansKR-Medium, Noto Sans KR;
        font-weight: 500;
      }

      .cls-13, .cls-14 {
        font-size: 18px;
      }

      .cls-13 {
        letter-spacing: -0.02em;
      }

      .cls-15 {
        fill: #2b2e34;
      }
    </style>
    <clipPath id="clip-path">
      <path id="패스_496" data-name="패스 496" class="cls-1" d="M0,0H796V-267.557H0Z"/>
    </clipPath>
  </defs>
  <g id="그룹_143" data-name="그룹 143" class="cls-2" transform="translate(0 267.557)">
    <g id="그룹_141" data-name="그룹 141" transform="translate(394.535 -137.367)">
      <path id="패스_494" data-name="패스 494" class="cls-3" d="M0,0-89.466-92.644C-117.1-65.956-130.314-34.831-130.314,3.588A133.779,133.779,0,0,0,3.465,137.367a133.174,133.174,0,0,0,79.664-26.308Z"/>
    </g>
    <g id="그룹_142" data-name="그룹 142" transform="translate(400.032 -129.208)">
      <path id="패스_495" data-name="패스 495" class="cls-4" d="M0,0,53.409,117.194c34.96-15.932,57.8-40.861,70.628-77.077A133.778,133.778,0,0,0,42.588-130.644a133.171,133.171,0,0,0-83.876-1.794Z"/>
    </g>
  </g>
  <g id="그룹_144" data-name="그룹 144" transform="translate(3.49 21.026)">
    <path id="패스_497" data-name="패스 497" class="cls-5" d="M0,0H336.365"/>
  </g>
  <g id="그룹_148" data-name="그룹 148" class="cls-2" transform="translate(0 267.557)">
    <g id="그룹_145" data-name="그룹 145" transform="translate(0.5 -246.531)">
      <path id="패스_498" data-name="패스 498" class="cls-6" d="M0,0H0M340.85,0h0"/>
    </g>
    <g id="그룹_146" data-name="그룹 146" transform="translate(457.64 -182.75)">
      <path id="패스_499" data-name="패스 499" class="cls-5" d="M0,0H336.365"/>
    </g>
    <g id="그룹_147" data-name="그룹 147" transform="translate(454.651 -182.75)">
      <path id="패스_500" data-name="패스 500" class="cls-6" d="M0,0H0M340.85,0h0"/>
    </g>
  </g>
  <g id="그룹_149" data-name="그룹 149" transform="translate(3.5 189.842)">
    <path id="패스_502" data-name="패스 502" class="cls-7" d="M0,0H181.459"/>
  </g>
  <g id="그룹_150" data-name="그룹 150" transform="translate(188.564 187.729)">
    <path id="패스_503" data-name="패스 503" class="cls-8" d="M0,0,85.268-85.658"/>
  </g>
  <g id="그룹_155" data-name="그룹 155" class="cls-2" transform="translate(0 267.557)">
    <g id="그룹_151" data-name="그룹 151" transform="translate(0.5 -77.715)">
      <path id="패스_504" data-name="패스 504" class="cls-6" d="M0,0H0M185.958,0h0m88.427-88.83h0"/>
    </g>
    <g id="그룹_152" data-name="그룹 152" transform="translate(398 -133.779)">
      <path id="패스_505" data-name="패스 505" class="cls-4" d="M0,0V-133.779A133.779,133.779,0,0,1,133.779,0Z"/>
    </g>
    <g id="그룹_153" data-name="그룹 153" transform="translate(398 -133.779)">
      <path id="패스_506" data-name="패스 506" class="cls-9" d="M0,0-92.931-96.232C-67.42-120.868-35.464-133.779,0-133.779Z"/>
    </g>
    <g id="그룹_154" data-name="그룹 154" transform="translate(398 -34.846)">
      <path id="패스_507" data-name="패스 507" class="cls-10" d="M0,0A98.933,98.933,0,0,0,98.934-98.934,98.933,98.933,0,0,0,0-197.867,98.933,98.933,0,0,0-98.934-98.934,98.933,98.933,0,0,0,0,0"/>
    </g>
    <path id="패스_1325" data-name="패스 1325" class="cls-11" d="M11.832-.306H5.338V-1.921h6.494Zm0-2.992H5.338V-4.93H3.6V1.105h9.979V-4.93H11.832ZM6.919-7.582H3.3V-9.741H6.919Zm4.913-6.477v3.672h-3.2V-13.26H6.919V-11.1H3.3v-2.176H1.564v7.123H8.636V-8.959h3.2v3.332h1.751v-8.415Zm14.756,2.6H17.935v3.417H28.594V-9.248H19.652v-1.071h8.67v-3.366H17.9v1.207h8.687Zm-1.87,6.8H21.505V-5.831h3.213Zm5.355-1.173V-7.123H16.15v1.292h3.6v1.173H17.765v1.207h8.874v1.088H17.8V1.173H28.832V-.051h-9.3V-1.224h8.84V-4.658h-1.9V-5.831Z" transform="translate(0.158 -205.291)"/>
  </g>
  <path id="패스_1324" data-name="패스 1324" class="cls-3" d="M11.172,0H8.641V-16.281q0-2.031.125-3.844-.328.328-.734.688T4.313-16.391L2.938-18.172l6.047-4.672h2.188Zm24.3-5.25H32.083V0H29.6V-5.25H18.489V-7.516L29.333-22.969h2.75V-7.609h3.391ZM29.6-7.609V-15.2q0-2.234.156-5.047h-.125a23.479,23.479,0,0,1-1.406,2.484L21.083-7.609Zm9.817-8.422a10.476,10.476,0,0,0,.578,3.984,1.946,1.946,0,0,0,1.875,1.328q2.562,0,2.563-5.312,0-5.281-2.562-5.281A1.945,1.945,0,0,0,39.993-20,10.349,10.349,0,0,0,39.415-16.031Zm7.156,0a9.874,9.874,0,0,1-1.2,5.383,3.931,3.931,0,0,1-3.508,1.82,3.836,3.836,0,0,1-3.4-1.859,9.8,9.8,0,0,1-1.211-5.344,9.924,9.924,0,0,1,1.164-5.344,3.841,3.841,0,0,1,3.445-1.8,3.922,3.922,0,0,1,3.484,1.859A9.616,9.616,0,0,1,46.571-16.031Zm6.594,9.156a10.467,10.467,0,0,0,.578,3.992,1.955,1.955,0,0,0,1.891,1.32,2.042,2.042,0,0,0,1.938-1.3A9.737,9.737,0,0,0,58.2-6.875a9.521,9.521,0,0,0-.625-3.961,2.043,2.043,0,0,0-1.937-1.289,1.954,1.954,0,0,0-1.891,1.289A10.215,10.215,0,0,0,53.165-6.875Zm7.172,0a9.838,9.838,0,0,1-1.2,5.367A3.931,3.931,0,0,1,55.634.313,3.826,3.826,0,0,1,52.22-1.547a9.872,9.872,0,0,1-1.2-5.328,9.924,9.924,0,0,1,1.164-5.344,3.841,3.841,0,0,1,3.445-1.8,3.95,3.95,0,0,1,3.461,1.836A9.451,9.451,0,0,1,60.337-6.875ZM56.306-22.844,43.634,0h-2.3L54.009-22.844Z" transform="translate(39.598 62.266)"/>
  <g id="그룹_156" data-name="그룹 156" class="cls-2" transform="translate(0 267.557)">
    <g id="그룹">
      <path id="패스_1515" data-name="패스 1515" class="cls-11" d="M14.178-6.783c-3.026-.51-5.491-2.788-5.491-5.168v-1.156H6.834v1.156c0,2.363-2.465,4.658-5.508,5.168l.748,1.462A8.091,8.091,0,0,0,7.769-9.384a7.957,7.957,0,0,0,5.678,4.063ZM8.619-2.04V-5.627H6.868V-2.04h-6V-.6H14.773V-2.04ZM27.03-14.059v15.4H28.8v-15.4ZM16.983-12.784V-2.312h7.378V-12.784H22.61v3.91H18.717v-3.91Zm1.734,5.3H22.61v3.757H18.717Zm17.425-3.434h2.567v-1.445H31.671v1.445h2.771v.85c0,3.043-.969,5.712-3.2,7l1.071,1.309a7.04,7.04,0,0,0,3.026-4.42,6.569,6.569,0,0,0,2.975,3.893l1.02-1.343c-2.227-1.156-3.2-3.672-3.2-6.443Zm6.834-3.145V-7.99H41.293v-5.78H39.644V.6h1.649v-7.14h1.683V1.309h1.666V-14.059Zm19.924,0H61.132v8.772H62.9Zm-6.29,5.95H52.751V-11.7H56.61Zm1.7-4.981H51.034v6.375H58.31Zm4.879,10.1V-4.335h-4.4V-5.712H57v1.377H52.6v1.343H57C56.865-1.683,54.876-.34,52-.051l.578,1.326C55.029.986,56.967.017,57.9-1.326a7.446,7.446,0,0,0,5.27,2.6L63.75-.051C60.911-.357,58.939-1.734,58.8-2.992ZM78.744-8.67h1.615v4.063h1.666v-9.418H80.359V-10.1H78.744v-3.655H77.1V-5.1h1.649ZM76.738-7a4.467,4.467,0,0,1-2.992-4.165v-1.938h-1.7v1.938a5.136,5.136,0,0,1-3.094,4.607l.918,1.343a5.756,5.756,0,0,0,3.043-3.247A5.311,5.311,0,0,0,75.8-5.7Zm.17,6.97c-2.159,0-3.451-.527-3.451-1.462,0-.952,1.292-1.479,3.451-1.479s3.451.527,3.451,1.479C80.359-.561,79.067-.034,76.908-.034Zm0-4.284c-3.2,0-5.2,1.054-5.2,2.822,0,1.751,2.006,2.805,5.2,2.805S82.11.255,82.11-1.5C82.11-3.264,80.1-4.318,76.908-4.318Zm16.456-8.653H89.879v-1.224H88.111v1.224h-3.5v1.207h8.755Zm-6.392,3.6c0-.578.782-.9,2.006-.9,1.241,0,2.006.323,2.006.9,0,.6-.765.918-2.006.918C87.754-8.449,86.972-8.772,86.972-9.367Zm6.817,2.431c-1.241.17-2.584.272-3.91.34v-.8c1.717-.17,2.754-.867,2.754-1.972,0-1.258-1.428-2.006-3.655-2.006s-3.655.748-3.655,2.006c0,1.1,1.054,1.8,2.788,1.972v.867c-1.411.034-2.754.034-3.91.034l.187,1.241a56.368,56.368,0,0,0,9.537-.612Zm-5.78,5.831h8.347V-4.369H86.241v1.19h8.381v.969H86.275V1.173H96.917V-.034H88.009Zm8.347-9.146v-3.791H94.605v9.027h1.751V-8.806h2.108v-1.445Zm4.029-2.176V-11h5.372c-.357,3.536-2.38,6.239-6.137,8.16l.969,1.343c5.015-2.533,6.919-6.477,6.919-10.931ZM113.849-7.99H111.52v-6.069h-1.751V1.292h1.751v-7.82h2.329Zm9.265-1.938v1.445H125.9v5.678h1.751v-11.22H125.9v4.1Zm.952,3.587a5.048,5.048,0,0,1-3.6-4.607v-.527h3.2v-1.411h-8.211v1.411h3.247v.527a5.343,5.343,0,0,1-3.774,4.93l.9,1.377a6.275,6.275,0,0,0,3.791-3.638,5.907,5.907,0,0,0,3.587,3.3ZM119.459-.408V-3.774h-1.751V1.02h10.336V-.408Zm23.307-6.12a5.109,5.109,0,0,1-3.655-4.777v-1.8h-1.768v1.785a5.34,5.34,0,0,1-3.774,5.151l.952,1.36a6.189,6.189,0,0,0,3.74-3.638,6.187,6.187,0,0,0,3.621,3.315Zm-5,2.7h-1.751V1.02h10.3V-.408h-8.551Zm7.939-5.627v-4.607h-1.751V-2.737h1.751v-5.27h2.176V-9.452ZM160-.289h-6.511v-1.7H160Zm0-3.06h-6.511V-5.083h-1.734v6.2h9.979v-6.2H160Zm-6.766-4.267a2.146,2.146,0,0,1-2.329-2.159,2.124,2.124,0,0,1,2.329-2.142,2.127,2.127,0,0,1,2.312,2.142A2.15,2.15,0,0,1,153.238-7.616Zm6.749-6.426v3.536h-2.839a3.724,3.724,0,0,0-3.91-2.856c-2.312,0-4.012,1.479-4.012,3.587,0,2.125,1.7,3.6,4.012,3.6a3.709,3.709,0,0,0,3.91-2.907h2.839v3.264h1.751v-8.228ZM172.5-9.928v1.445h2.788v5.678h1.751v-11.22h-1.751v4.1Zm.952,3.587a5.048,5.048,0,0,1-3.6-4.607v-.527h3.2v-1.411h-8.211v1.411h3.247v.527a5.343,5.343,0,0,1-3.774,4.93l.9,1.377A6.275,6.275,0,0,0,169-8.279a5.907,5.907,0,0,0,3.587,3.3ZM168.844-.408V-3.774h-1.751V1.02h10.336V-.408Zm21.165-8.806H183.09v-2.754h6.919Zm1.717-4.148H181.373V-7.82h10.353Zm-8.67,9.945h-1.751V1.02h10.676V-.408h-8.925Zm-3.451-2.89V-4.9h6.222v2.873h1.751V-4.9h5.95V-6.307Zm16.065-6.12V-11h5.372c-.357,3.536-2.38,6.239-6.137,8.16l.969,1.343c5.015-2.533,6.919-6.477,6.919-10.931ZM209.134-7.99H206.8v-6.069h-1.751V1.292H206.8v-7.82h2.329Z" transform="translate(583.343 -154.005)"/>
      <text id="_" data-name=" " class="cls-12" transform="translate(795.843 -154.005)"><tspan x="0" y="0"> </tspan></text>
    </g>
    <path id="패스_1323" data-name="패스 1323" class="cls-3" d="M17.656-5.25H14.266V0H11.781V-5.25H.672V-7.516L11.516-22.969h2.75V-7.609h3.391ZM11.781-7.609V-15.2q0-2.234.156-5.047h-.125a23.479,23.479,0,0,1-1.406,2.484L3.266-7.609Zm21.754-9.859a5.209,5.209,0,0,1-1.227,3.578,6.141,6.141,0,0,1-3.477,1.859v.125a6.538,6.538,0,0,1,4.078,1.75,5.151,5.151,0,0,1,1.328,3.688,5.982,5.982,0,0,1-2.266,5.023A10.3,10.3,0,0,1,25.536.313a18.657,18.657,0,0,1-3.32-.273,11.363,11.363,0,0,1-2.93-.961V-3.391A14.245,14.245,0,0,0,22.45-2.273a14.329,14.329,0,0,0,3.18.383q5.922,0,5.922-4.641,0-4.156-6.531-4.156H22.77v-2.234h2.281a6.869,6.869,0,0,0,4.234-1.18,3.871,3.871,0,0,0,1.563-3.273A3.227,3.227,0,0,0,29.7-20a4.732,4.732,0,0,0-3.117-.953,9.618,9.618,0,0,0-2.828.406,12.656,12.656,0,0,0-3.031,1.5L19.411-20.8a10.942,10.942,0,0,1,3.242-1.742,11.784,11.784,0,0,1,3.867-.633,7.9,7.9,0,0,1,5.172,1.523A5.13,5.13,0,0,1,33.536-17.469Zm5.879,1.438a10.476,10.476,0,0,0,.578,3.984,1.946,1.946,0,0,0,1.875,1.328q2.562,0,2.563-5.312,0-5.281-2.562-5.281A1.945,1.945,0,0,0,39.993-20,10.349,10.349,0,0,0,39.415-16.031Zm7.156,0a9.874,9.874,0,0,1-1.2,5.383,3.931,3.931,0,0,1-3.508,1.82,3.836,3.836,0,0,1-3.4-1.859,9.8,9.8,0,0,1-1.211-5.344,9.924,9.924,0,0,1,1.164-5.344,3.841,3.841,0,0,1,3.445-1.8,3.922,3.922,0,0,1,3.484,1.859A9.616,9.616,0,0,1,46.571-16.031Zm6.594,9.156a10.467,10.467,0,0,0,.578,3.992,1.955,1.955,0,0,0,1.891,1.32,2.042,2.042,0,0,0,1.938-1.3A9.737,9.737,0,0,0,58.2-6.875a9.521,9.521,0,0,0-.625-3.961,2.043,2.043,0,0,0-1.937-1.289,1.954,1.954,0,0,0-1.891,1.289A10.215,10.215,0,0,0,53.165-6.875Zm7.172,0a9.838,9.838,0,0,1-1.2,5.367A3.931,3.931,0,0,1,55.634.313,3.826,3.826,0,0,1,52.22-1.547a9.872,9.872,0,0,1-1.2-5.328,9.924,9.924,0,0,1,1.164-5.344,3.841,3.841,0,0,1,3.445-1.8,3.95,3.95,0,0,1,3.461,1.836A9.451,9.451,0,0,1,60.337-6.875ZM56.306-22.844,43.634,0h-2.3L54.009-22.844Z" transform="translate(733.865 -117.005)"/>
    <path id="패스_1326" data-name="패스 1326" class="cls-11" d="M11.832-9.979v1.768H8.109v1.428h3.723v1.768h1.751v-9.027H11.832v2.635H8.67a8.682,8.682,0,0,0,.136-1.53H1.836v1.411h5.1c-.306,2.4-2.3,4.284-5.9,5.287l.7,1.394C5.049-5.814,7.31-7.531,8.262-9.979ZM8.551-.136C6.477-.136,5.168-.731,5.168-1.8c0-1.054,1.309-1.649,3.383-1.649,2.091,0,3.4.6,3.4,1.649C11.951-.731,10.642-.136,8.551-.136Zm0-4.692C5.44-4.828,3.434-3.672,3.434-1.8c0,1.887,2.006,3.043,5.117,3.043S13.685.085,13.685-1.8C13.685-3.672,11.662-4.828,8.551-4.828Zm12.274-6.1h2.533v-1.445H16.422v1.445h2.7v1.1c0,2.737-1.02,5.508-3.2,6.868l1.054,1.292a7.609,7.609,0,0,0,3.009-4.522A6.987,6.987,0,0,0,22.933-2.04l1.02-1.275c-2.142-1.241-3.128-3.893-3.128-6.511ZM24.5-8.653H22.236v1.428H24.5V.561h1.649V-13.753H24.5Zm3.094-5.406V1.292h1.666V-14.059Zm18.326,4.08v1.768H42.194v1.428h3.723v1.768h1.751v-9.027H45.917v2.635H42.755a8.682,8.682,0,0,0,.136-1.53h-6.97v1.411h5.1c-.306,2.4-2.3,4.284-5.9,5.287l.7,1.394c3.315-.969,5.576-2.686,6.528-5.134ZM42.636-.136c-2.074,0-3.383-.595-3.383-1.666,0-1.054,1.309-1.649,3.383-1.649,2.091,0,3.4.6,3.4,1.649C46.036-.731,44.727-.136,42.636-.136Zm0-4.692c-3.111,0-5.117,1.156-5.117,3.026,0,1.887,2.006,3.043,5.117,3.043S47.77.085,47.77-1.8C47.77-3.672,45.747-4.828,42.636-4.828Zm9.486-4.641A2.184,2.184,0,0,1,54.468-11.7,2.174,2.174,0,0,1,56.78-9.469a2.17,2.17,0,0,1-2.312,2.21A2.18,2.18,0,0,1,52.122-9.469Zm9.1-1.037v2.074H58.293a3.4,3.4,0,0,0,.153-1.037,4.025,4.025,0,0,0-.136-1.037Zm0,3.485V-5h1.751v-9.061H61.217v2.125H57.511a4.1,4.1,0,0,0-3.043-1.241,3.741,3.741,0,0,0-4.012,3.706A3.738,3.738,0,0,0,54.468-5.78a4.066,4.066,0,0,0,3.043-1.241ZM57.851-.068c-2.176,0-3.451-.561-3.451-1.615,0-1.02,1.275-1.6,3.451-1.6,2.193,0,3.451.578,3.451,1.6C61.3-.629,60.044-.068,57.851-.068Zm0-4.59c-3.2,0-5.168,1.1-5.168,2.975,0,1.887,1.972,2.992,5.168,2.992S63.036.2,63.036-1.683C63.036-3.553,61.047-4.658,57.851-4.658Zm23.834-9.4H79.917v8.772h1.768Zm-6.29,5.95H71.536V-11.7h3.859Zm1.7-4.981H69.819v6.375H77.1Zm4.879,10.1V-4.335h-4.4V-5.712H75.786v1.377h-4.4v1.343h4.4c-.136,1.309-2.125,2.652-5,2.941l.578,1.326c2.448-.289,4.386-1.258,5.321-2.6a7.446,7.446,0,0,0,5.27,2.6l.578-1.326C79.7-.357,77.724-1.734,77.588-2.992ZM97.5-12.257H93.738v-1.768H91.987v1.768H88.213v1.411H97.5ZM90.78-7.242c0-.935.85-1.513,2.091-1.513,1.224,0,2.074.578,2.074,1.513,0,.952-.85,1.53-2.074,1.53C91.63-5.712,90.78-6.29,90.78-7.242Zm2.958,2.8c1.734-.272,2.873-1.309,2.873-2.8,0-1.717-1.53-2.856-3.74-2.856-2.227,0-3.757,1.139-3.757,2.856,0,1.479,1.139,2.533,2.873,2.8v1.5c-1.445.051-2.856.051-4.08.051l.221,1.445a59.74,59.74,0,0,0,9.809-.629l-.119-1.275c-1.309.187-2.7.272-4.08.357Zm4.947-9.622V1.309h1.768V-14.059Zm12.784,4.165h-1.938a13.865,13.865,0,0,0,.17-2.261h-5.933v1.411h4.2a9.342,9.342,0,0,1-4.947,7.565l1,1.241a10.8,10.8,0,0,0,5.2-6.528h2.244v2.431h-2.516v1.428h2.516V.561H113.1V-13.668h-1.632Zm3.094-4.148V1.309h1.683V-14.042Z" transform="translate(0.158 -36.524)"/>
  </g>
  <path id="패스_1327" data-name="패스 1327" class="cls-3" d="M17.656-5.25H14.266V0H11.781V-5.25H.672V-7.516L11.516-22.969h2.75V-7.609h3.391ZM11.781-7.609V-15.2q0-2.234.156-5.047h-.125a23.479,23.479,0,0,1-1.406,2.484L3.266-7.609Zm21.754-9.859a5.209,5.209,0,0,1-1.227,3.578,6.141,6.141,0,0,1-3.477,1.859v.125a6.538,6.538,0,0,1,4.078,1.75,5.151,5.151,0,0,1,1.328,3.688,5.982,5.982,0,0,1-2.266,5.023A10.3,10.3,0,0,1,25.536.313a18.657,18.657,0,0,1-3.32-.273,11.363,11.363,0,0,1-2.93-.961V-3.391A14.245,14.245,0,0,0,22.45-2.273a14.329,14.329,0,0,0,3.18.383q5.922,0,5.922-4.641,0-4.156-6.531-4.156H22.77v-2.234h2.281a6.869,6.869,0,0,0,4.234-1.18,3.871,3.871,0,0,0,1.563-3.273A3.227,3.227,0,0,0,29.7-20a4.732,4.732,0,0,0-3.117-.953,9.618,9.618,0,0,0-2.828.406,12.656,12.656,0,0,0-3.031,1.5L19.411-20.8a10.942,10.942,0,0,1,3.242-1.742,11.784,11.784,0,0,1,3.867-.633,7.9,7.9,0,0,1,5.172,1.523A5.13,5.13,0,0,1,33.536-17.469Zm5.879,1.438a10.476,10.476,0,0,0,.578,3.984,1.946,1.946,0,0,0,1.875,1.328q2.562,0,2.563-5.312,0-5.281-2.562-5.281A1.945,1.945,0,0,0,39.993-20,10.349,10.349,0,0,0,39.415-16.031Zm7.156,0a9.874,9.874,0,0,1-1.2,5.383,3.931,3.931,0,0,1-3.508,1.82,3.836,3.836,0,0,1-3.4-1.859,9.8,9.8,0,0,1-1.211-5.344,9.924,9.924,0,0,1,1.164-5.344,3.841,3.841,0,0,1,3.445-1.8,3.922,3.922,0,0,1,3.484,1.859A9.616,9.616,0,0,1,46.571-16.031Zm6.594,9.156a10.467,10.467,0,0,0,.578,3.992,1.955,1.955,0,0,0,1.891,1.32,2.042,2.042,0,0,0,1.938-1.3A9.737,9.737,0,0,0,58.2-6.875a9.521,9.521,0,0,0-.625-3.961,2.043,2.043,0,0,0-1.937-1.289,1.954,1.954,0,0,0-1.891,1.289A10.215,10.215,0,0,0,53.165-6.875Zm7.172,0a9.838,9.838,0,0,1-1.2,5.367A3.931,3.931,0,0,1,55.634.313,3.826,3.826,0,0,1,52.22-1.547a9.872,9.872,0,0,1-1.2-5.328,9.924,9.924,0,0,1,1.164-5.344,3.841,3.841,0,0,1,3.445-1.8,3.95,3.95,0,0,1,3.461,1.836A9.451,9.451,0,0,1,60.337-6.875ZM56.306-22.844,43.634,0h-2.3L54.009-22.844Z" transform="translate(129.357 231.033)"/>
  <g id="그룹-2" data-name="그룹" transform="translate(0 267.557)">
    <path id="패스_1320" data-name="패스 1320" class="cls-4" d="M12.42-14.886V1.422h1.872V-14.886ZM5.634-13.68c-2.412,0-4.176,2.232-4.176,5.724,0,3.528,1.764,5.742,4.176,5.742,2.43,0,4.194-2.214,4.194-5.742C9.828-11.448,8.064-13.68,5.634-13.68Zm0,1.674c1.422,0,2.412,1.53,2.412,4.05,0,2.556-.99,4.086-2.412,4.086C4.23-3.87,3.24-5.4,3.24-7.956,3.24-10.476,4.23-12.006,5.634-12.006Zm17.172-1.512H20.952v2.664c0,3.006-1.584,6.084-4.122,7.326l1.134,1.494a8.4,8.4,0,0,0,3.924-5.094A8.1,8.1,0,0,0,25.632-2.34l1.134-1.476a7.888,7.888,0,0,1-3.96-7.038Zm9.432,5.094H29.7v-6.444H27.846V1.386H29.7v-8.28h2.538ZM43.56-12.978H39.582V-14.85H37.728v1.872h-4v1.494H43.56Zm-7.11,5.31c0-.99.9-1.6,2.214-1.6,1.3,0,2.2.612,2.2,1.6,0,1.008-.9,1.62-2.2,1.62C37.35-6.048,36.45-6.66,36.45-7.668ZM39.582-4.7c1.836-.288,3.042-1.386,3.042-2.97,0-1.818-1.62-3.024-3.96-3.024-2.358,0-3.978,1.206-3.978,3.024,0,1.566,1.206,2.682,3.042,2.97v1.584c-1.53.054-3.024.054-4.32.054l.234,1.53A63.254,63.254,0,0,0,44.028-2.2L43.9-3.546c-1.386.2-2.862.288-4.32.378ZM44.82-14.886V1.386h1.872V-14.886Zm17.046,4.374v1.53h2.952V-2.97h1.854V-14.85H64.818v4.338Zm1.008,3.8a5.345,5.345,0,0,1-3.816-4.878v-.558h3.384v-1.494H53.748v1.494h3.438v.558a5.657,5.657,0,0,1-4,5.22l.954,1.458a6.644,6.644,0,0,0,4.014-3.852,6.254,6.254,0,0,0,3.8,3.492ZM58-.432V-4H56.142V1.08H67.086V-.432Zm22.41-9.324H73.08v-2.916h7.326Zm1.818-4.392H71.262V-8.28H82.224Zm-9.18,10.53H71.19v4.7h11.3V-.432h-9.45ZM69.39-6.678v1.494h6.588v3.042h1.854V-5.184h6.3V-6.678Z" transform="translate(354.98 -156.359)"/>
    <text id="_2" data-name=" " class="cls-13" transform="translate(441.02 -156.359)"><tspan x="0" y="0"> </tspan></text>
    <text id="_3" data-name=" " class="cls-14" transform="translate(445.34 -156.359)"><tspan x="0" y="0"> </tspan></text>
    <path id="패스_1321" data-name="패스 1321" class="cls-4" d="M11.88-9.234H4.644v-1.818H11.88Zm1.836-5.13H11.88v1.89H4.644v-1.89H2.808v6.588H13.716Zm-9.162,11H2.7V1.08H14V-.432H4.554ZM.9-6.408v1.494H7.488v2.9H9.342v-2.9h6.3V-6.408ZM21.438-3.87c-1.422,0-2.394-1.53-2.394-4.086,0-2.52.972-4.05,2.394-4.05,1.4,0,2.394,1.53,2.394,4.05C23.832-5.4,22.842-3.87,21.438-3.87Zm0-9.81c-2.43,0-4.176,2.232-4.176,5.724,0,3.528,1.746,5.742,4.176,5.742s4.176-2.214,4.176-5.742C25.614-11.448,23.868-13.68,21.438-13.68Zm10.71,4.3v-1.53H29.7v-3.96H27.846V1.4H29.7V-4.572h2.448V-6.1H29.7V-9.378ZM44.91-11.25v1.53H41.544v-1.53ZM39.726-8.478H35.892V-10.6h3.834Zm1.818.2H44.91v1.836h1.872v-8.424H44.91v2.2H41.544v-1.476H39.726v2.124H35.892v-2.124H34.056V-7h7.488ZM38.052-.27V-1.656h8.73V-5.724H36.2v1.458h8.748v1.242h-8.73V1.188H47.322V-.27ZM67.914-6.93H65.646a28.561,28.561,0,0,0,.414-5.526v-1.422H54.972v1.494h9.27a24.732,24.732,0,0,1-.468,5.454H53.208V-5.4h6.354V1.386h1.872V-5.4h6.48Zm13.1,1.638h1.854v-9.594H81.018v3.258H77.724v1.512h3.294ZM79.056-7.4a5.286,5.286,0,0,1-3.816-5.094V-14H73.368v1.6a5.688,5.688,0,0,1-4.032,5.454l.972,1.494a6.722,6.722,0,0,0,4.05-3.924A6.31,6.31,0,0,0,78.066-5.94Zm-1.6,7.326c-2.3,0-3.618-.594-3.618-1.656s1.314-1.656,3.618-1.656,3.636.594,3.636,1.656S79.758-.072,77.454-.072Zm0-4.77c-3.384,0-5.472,1.152-5.472,3.114s2.088,3.114,5.472,3.114c3.4,0,5.49-1.152,5.49-3.114S80.856-4.842,77.454-4.842Z" transform="translate(354.98 -127.361)"/>
  </g>
  <path id="패스_1322" data-name="패스 1322" class="cls-15" d="M3.388,2.7l.5-.252A12.873,12.873,0,0,1,2.044-4.312a12.909,12.909,0,0,1,1.848-6.762l-.5-.266A12.91,12.91,0,0,0,1.344-4.312,12.862,12.862,0,0,0,3.388,2.7Zm8.918-8.526a27.5,27.5,0,0,1-5.754.434H6.37V-9.716h4.718v-.63H5.628v5.6h.924a28.173,28.173,0,0,0,5.838-.448ZM7.728-3.318H6.986V.672h8.2V.042H7.728ZM14.574-7.6V-11.48h-.742v9.03h.742V-6.958H16.52V-7.6Zm7.168-2.59c1.4,0,2.408.8,2.408,1.862s-1.008,1.876-2.408,1.876-2.38-.8-2.38-1.876S20.356-10.192,21.742-10.192Zm0,4.368c1.834,0,3.122-1.008,3.122-2.506s-1.288-2.492-3.122-2.492S18.648-9.814,18.648-8.33,19.922-5.824,21.742-5.824ZM26-5.054a59.4,59.4,0,0,1-8.4.462l.126.658c1.106,0,2.38-.014,3.724-.07V.588h.742V-4.046a36.206,36.206,0,0,0,3.864-.42Zm.98-6.384V.994h.742V-11.438Zm8.274,7.462c1.372,0,2.212-1.162,2.212-3.234,0-2.03-.84-3.178-2.212-3.178S33.04-9.24,33.04-7.21C33.04-5.138,33.894-3.976,35.252-3.976Zm0-.56c-.924,0-1.526-.966-1.526-2.674s.6-2.618,1.526-2.618,1.54.924,1.54,2.618S36.176-4.536,35.252-4.536Zm.28,4.718h.644l5.684-10.57h-.644Zm6.65,0c1.344,0,2.212-1.148,2.212-3.22,0-2.044-.868-3.192-2.212-3.192-1.372,0-2.226,1.148-2.226,3.192C39.956-.966,40.81.182,42.182.182Zm0-.56c-.938,0-1.54-.952-1.54-2.66s.6-2.632,1.54-2.632c.91,0,1.526.924,1.526,2.632S43.092-.378,42.182-.378ZM45.808,2.7a12.862,12.862,0,0,0,2.044-7.014,12.91,12.91,0,0,0-2.044-7.028l-.5.266a12.909,12.909,0,0,1,1.848,6.762A12.873,12.873,0,0,1,45.3,2.45Z" transform="translate(373.01 172.198)"/>
</svg>
