<svg id="구성_요소_65_1" data-name="구성 요소 65 – 1" xmlns="http://www.w3.org/2000/svg" width="836" height="324.125" viewBox="0 0 836 324.125">
  <defs>
    <style>
      .cls-1 {
        fill: #f5f6f7;
      }

      .cls-2, .cls-3, .cls-4 {
        fill: #1e2323;
      }

      .cls-3 {
        font-size: 15px;
        font-family: NotoSansKR-Regular, Noto Sans KR;
      }

      .cls-4 {
        font-size: 14px;
        font-family: NotoSansKR-Light, Noto Sans KR;
        font-weight: 300;
      }

      .cls-5 {
        fill: #d6a803;
      }

      .cls-6 {
        fill: #fff;
      }

      .cls-7, .cls-8, .cls-9 {
        fill: none;
        stroke: #3e3a39;
      }

      .cls-7 {
        stroke-width: 0.5px;
      }

      .cls-8, .cls-9 {
        stroke-linecap: round;
        stroke-linejoin: round;
      }

      .cls-8 {
        stroke-dasharray: 0 3;
      }
    </style>
  </defs>
  <rect id="사각형_210" data-name="사각형 210" class="cls-1" width="836" height="324.125"/>
  <path id="패스_23643" data-name="패스 23643" class="cls-2" d="M4.016-10.432H5.984V-3.7c-.656.032-1.328.064-1.968.08Zm3.568,0H8.992V-11.76H1.008v1.328H2.416v6.848H.64l.176,1.36a56.241,56.241,0,0,0,8.848-.544l-.1-1.216c-.64.08-1.312.144-1.984.208Zm6.672,2.864H12v-5.648H10.352V1.248H12V-6.208h2.256ZM26.848-5.584H18.512V-7.568h7.9v-1.3h-7.9V-10.72h8.224v-1.328h-9.9v7.792H26.848Zm-11.632,3.7V-.544h13.1V-1.888Zm16.8-9.744H30.384v9.44h1.152a33.81,33.81,0,0,0,6.64-.592l-.192-1.36a31.674,31.674,0,0,1-5.968.576Zm7.952-1.584v4.64H35.776v1.344h4.192v8.5h1.648v-14.48Zm20.4,7.056H58.352a25.387,25.387,0,0,0,.368-4.912v-1.264H48.864v1.328H57.1a21.984,21.984,0,0,1-.416,4.848H47.3V-4.8h5.648V1.232h1.664V-4.8h5.76ZM72.016-4.7h1.648v-8.528H72.016v2.9H69.088v1.344h2.928ZM70.272-6.576A4.7,4.7,0,0,1,66.88-11.1v-1.344H65.216v1.424a5.056,5.056,0,0,1-3.584,4.848L62.5-4.848a5.975,5.975,0,0,0,3.6-3.488,5.609,5.609,0,0,0,3.3,3.056ZM68.848-.064c-2.048,0-3.216-.528-3.216-1.472S66.8-3.008,68.848-3.008s3.232.528,3.232,1.472S70.9-.064,68.848-.064Zm0-4.24c-3.008,0-4.864,1.024-4.864,2.768s1.856,2.768,4.864,2.768c3.024,0,4.88-1.024,4.88-2.768S71.872-4.3,68.848-4.3Z" transform="translate(379.76 40.652)"/>
  <path id="패스_23634" data-name="패스 23634" class="cls-2" d="M4.256-9.254H6.734v-.63H.966v.63H3.542v1.442A6.707,6.707,0,0,1,.686-2.17l.49.56a6.816,6.816,0,0,0,2.73-4.228A6.427,6.427,0,0,0,6.566-1.9l.476-.56A6.328,6.328,0,0,1,4.256-7.812Zm3.808,2.38H5.754v.644h2.31V.294h.714v-11.41H8.064Zm2.492-4.578V.98h.728V-11.452ZM20.79-7.35H17.332v-3.066H20.79Zm-4.186,0H14.56v.616h9V-7.35h-2.03v-3.066H23.59v-.616H14.546v.616H16.6Zm5.978,7.5H15.6V-2.38h6.986ZM24.7-4.7v-.63H13.454v.63h5.264V-3H14.882V.784H23.31V-3H19.446V-4.7Zm13.734-.28h.742v-6.482H38.43v2.52H35.462V-8.3H38.43Zm-2.212-.91c-1.694-.6-3.206-2.142-3.206-3.864v-1.33h-.7v1.33a4.645,4.645,0,0,1-3.206,4.172L29.5-5A5.4,5.4,0,0,0,32.69-8.232,5.365,5.365,0,0,0,35.826-5.32ZM32.06.168v-1.68h7.112V-4.27H31.29v.616h7.154v1.54H31.332v2.9H39.7V.168ZM46.144-8.6h3.024v-.63h-3.01V-11.27h-.742v2.044H42.364v.63H45.43V-7.35a6.17,6.17,0,0,1-3.346,5.292l.448.574a6.863,6.863,0,0,0,3.262-4.1,6.62,6.62,0,0,0,3.3,3.878l.448-.6a5.842,5.842,0,0,1-3.4-5.04Zm4.928-2.856V.98h.756V-11.452ZM54.586,2.464a2.909,2.909,0,0,0,1.68-2.6c0-.742-.336-1.2-.84-1.2a.7.7,0,0,0-.742.7.686.686,0,0,0,.728.714A.682.682,0,0,0,55.58.056a2.118,2.118,0,0,1-1.232,1.876ZM69.944-11.452V.98h.742V-11.452Zm-5.726,1.008c-1.82,0-3.094,1.68-3.094,4.27S62.4-1.9,64.218-1.9,67.3-3.57,67.3-6.174,66.024-10.444,64.218-10.444Zm0,.658c1.386,0,2.366,1.484,2.366,3.612s-.98,3.626-2.366,3.626-2.38-1.5-2.38-3.626S62.818-9.786,64.218-9.786ZM79.842-7.9v.63h2.814V-2.3H83.4v-9.156h-.742V-7.9ZM80.5-4.942A4.526,4.526,0,0,1,77.364-8.82v-.9h2.912v-.63H73.668v.63h2.968v.91A4.819,4.819,0,0,1,73.388-4.62l.392.6a5.625,5.625,0,0,0,3.234-3.374A5.424,5.424,0,0,0,80.122-4.34ZM76.37.042V-3.136h-.742V.672h8.148V.042Zm9.772,2.422a2.909,2.909,0,0,0,1.68-2.6c0-.742-.336-1.2-.84-1.2a.7.7,0,0,0-.742.7.686.686,0,0,0,.728.714.682.682,0,0,0,.168-.014A2.118,2.118,0,0,1,85.9,1.932ZM95.27-2.66a2,2,0,0,1-1.96-2.128,2.008,2.008,0,0,1,1.96-2.128,2.01,2.01,0,0,1,1.974,2.128A2,2,0,0,1,95.27-2.66Zm0-4.886a2.6,2.6,0,0,0-2.632,2.758A2.605,2.605,0,0,0,95.27-2.016a2.6,2.6,0,0,0,2.646-2.772A2.6,2.6,0,0,0,95.27-7.546Zm.378-3.528h-.742v1.9H92.134v.63h6.3v-.63H95.648Zm6.216-.378V-6.1H99.89v-5.04h-.728V.322h.728v-5.8h1.974V.98h.728V-11.452Zm6.454,3.038h2.52v-.63h-2.506V-11H107.6v1.96H105.07v.63H107.6V-7.6a6.526,6.526,0,0,1-2.8,5.348l.476.56a6.669,6.669,0,0,0,2.688-4.088,6.465,6.465,0,0,0,2.716,3.836l.462-.588A6.026,6.026,0,0,1,108.318-7.6Zm3.794,1.988h-2.2v.63h2.2V.294h.714V-11.13h-.714Zm2.492-5.04V.98h.728V-11.466Zm9.968,1.162h-.742v2.478A6.922,6.922,0,0,1,120.5-2.31l.476.588a7.536,7.536,0,0,0,3.234-4.452,7.264,7.264,0,0,0,3.29,4.228l.434-.6a6.551,6.551,0,0,1-3.36-5.278Zm5.236-1.148v4.424H126.6v.616h3.206V.994h.742V-11.452Zm12.628-.014V.994h.742v-12.46Zm-8.582,1.092v8.3h5.712v-8.3h-.742V-6.93H134.6v-3.444Zm.742,4.06h4.228V-2.7H134.6ZM156.366-5c-1.764-.35-4.634-2.226-4.634-4.522v-.994h-.77v.994c0,2.31-2.828,4.158-4.606,4.522l.35.63a7.191,7.191,0,0,0,4.648-3.752,7.205,7.205,0,0,0,4.662,3.752Zm-10.612,3.57V-.8h11.284v-.63Z" transform="translate(419.006 215.826)"/>
  <path id="패스_23635" data-name="패스 23635" class="cls-2" d="M10.892-11.466H10.15v7.2h.742ZM6.4-6.258H2.184V-10.01H6.4Zm.714-4.368H1.456v4.984H7.112ZM7.49-2.7h3.766v-.6H7.49V-4.648H6.734V-3.3H3v.6H6.734v.126C6.734-1.162,4.3.084,2.492.336l.266.588C4.452.63,6.412-.294,7.112-1.568,7.8-.308,9.688.63,11.4.924l.266-.588C9.842.056,7.49-1.176,7.49-2.576ZM17.92-4.1l.63-1.848c.406-1.19.756-2.268,1.106-3.5h.056c.364,1.232.7,2.31,1.12,3.5L21.448-4.1ZM22.806,0h.9l-3.57-10.206h-.868L15.694,0h.84L17.7-3.43h3.976Zm.938,2.478H24.4L29.022-11H28.35ZM33.11.182c2,0,3.3-1.2,3.3-2.772s-.98-2.2-2.142-2.716l-1.526-.672C32-6.3,31.01-6.734,31.01-7.9c0-1.05.868-1.736,2.17-1.736A3.275,3.275,0,0,1,35.588-8.61l.476-.546a3.9,3.9,0,0,0-2.884-1.232c-1.736,0-3.024,1.05-3.024,2.562a2.831,2.831,0,0,0,2.072,2.548l1.526.672c1.008.448,1.806.84,1.806,2.072,0,1.162-.938,1.96-2.45,1.96a3.93,3.93,0,0,1-2.954-1.358l-.518.588A4.542,4.542,0,0,0,33.11.182ZM46.69-9.184H39.116V-6.72h8.526v-.574h-7.8V-8.638h7.574v-2.38h-8.33v.574h7.6ZM39.774-1.26H47.46V-3.71H39.018v.574h7.728V-1.82H39.06V.77h8.834V.182h-8.12Zm-2.156-4.3v.588h11.3v-.588Zm19.068-3.7h2.478v-.63H53.4v.63h2.576v1.442A6.707,6.707,0,0,1,53.116-2.17l.49.56a6.816,6.816,0,0,0,2.73-4.228A6.427,6.427,0,0,0,59-1.9l.476-.56a6.328,6.328,0,0,1-2.786-5.348Zm3.808,2.38h-2.31v.644h2.31V.294h.714v-11.41h-.714Zm2.492-4.578V.98h.728V-11.452ZM74.928-9.7a11.077,11.077,0,0,1-.336,3.164l.714.1A11.68,11.68,0,0,0,75.642-9.7V-10.78H67.27v.63h7.658ZM71.484.336c-2.114,0-3.542-.644-3.542-1.638s1.428-1.652,3.542-1.652S75.04-2.3,75.04-1.3,73.6.336,71.484.336Zm0-3.892c-2.632,0-4.284.84-4.284,2.254S68.852.938,71.484.938,75.768.112,75.768-1.3,74.116-3.556,71.484-3.556Zm.042-1.974V-8.05h-.742v2.52H65.912v.63H77.126v-.63ZM82.278-2.576a2.147,2.147,0,0,1-2.254-2.156,2.138,2.138,0,0,1,2.254-2.156,2.147,2.147,0,0,1,2.254,2.156A2.155,2.155,0,0,1,82.278-2.576Zm0-4.956a2.771,2.771,0,0,0-2.954,2.8,2.752,2.752,0,0,0,2.954,2.786,2.752,2.752,0,0,0,2.954-2.786A2.771,2.771,0,0,0,82.278-7.532Zm.35-3.808h-.742v1.946H78.5v.63H85.89v-.63H82.628Zm7.588,5.152H88.032v-5.278H87.29V.966h.742V-5.558h2.184Zm7.14,1.624a7.167,7.167,0,0,0,.182-1.61,7.279,7.279,0,0,0-.21-1.736h3.3v3.346ZM94.514-2.548c-1.372,0-2.324-1.512-2.324-3.626s.952-3.612,2.324-3.612S96.838-8.3,96.838-6.174,95.886-2.548,94.514-2.548Zm6.118-8.9V-8.54H97.1a2.8,2.8,0,0,0-2.59-1.9c-1.778,0-3.024,1.68-3.024,4.27S92.736-1.9,94.514-1.9a2.858,2.858,0,0,0,2.646-2.03h3.472V.98h.742V-11.452Zm15.19,2.618a26.6,26.6,0,0,1-.448,5.516l.756.112a28.964,28.964,0,0,0,.434-5.628V-10.08h-8.512v.616h7.77Zm-3.654,7.28V-6.1h-.728v4.55h-4.606v.63h11.242v-.63Zm7.966-8.932v.616h4.046c-.168,2.3-1.806,4.214-4.494,5.376l.406.546c3.08-1.358,4.844-3.682,4.844-6.538Zm1.61,7.658h7.434V.98h.742V-3.458h-8.176Zm7.462-8.61v3.262h-2v-3.038h-.714v7.028h.714v-3.36h2V-4.1h.714v-7.336Zm8.456,6.132h-4.144V-9.674h4.144Zm.714-4.984H132.79v5.6h5.586Zm-3.458,7.112h-.742V.672h8.2V.042h-7.462Zm6.846-4.382v-3.92h-.742v9.156h.742V-6.93h1.946v-.63Zm4.088,1.078c1.82-.28,3.948-1.19,4.62-2.674.672,1.484,2.814,2.394,4.634,2.674l.28-.6c-1.932-.252-4.466-1.386-4.466-3.066V-10.3h4.158v-.616h-9.17v.616h4.144v.154c0,1.694-2.548,2.814-4.466,3.066Zm.266,4.074h7.826V.98h.742V-3.038h-8.568ZM150.836-5.1V-7.14h-.742V-5.1h-5.25v.63h11.312V-5.1Z" transform="translate(419.006 237.82)"/>
  <path id="패스_23636" data-name="패스 23636" class="cls-2" d="M2-2.758h7.91V1.036h.742V-3.388H2ZM10.178-6.1A17.511,17.511,0,0,0,10.528-10v-.826H2.254v.616h7.56V-10A15.747,15.747,0,0,1,9.422-6.1H.8v.63h11.27V-6.1ZM14.7-2.9v-6.37h3.906v-.644H13.972v7.658h.77a20.2,20.2,0,0,0,4.718-.392l-.1-.644a18.485,18.485,0,0,1-4.634.392Zm8.526-8.554v5.11H21.084v-4.8H20.37V.294h.714V-5.712h2.142V.966h.728V-11.452ZM33.7-9.87H30.324v-1.6h-.742v1.6H26.208v.63H33.7ZM27.79-6.09c0-.994.868-1.68,2.17-1.68s2.17.686,2.17,1.68-.882,1.68-2.17,1.68S27.79-5.11,27.79-6.09Zm2.534,2.254C31.836-3.962,32.83-4.8,32.83-6.09c0-1.4-1.162-2.282-2.87-2.282S27.1-7.49,27.1-6.09c0,1.288.98,2.128,2.478,2.254v1.554c-1.288.056-2.52.056-3.584.056l.14.644a48.743,48.743,0,0,0,7.91-.49l-.056-.574c-1.162.182-2.422.266-3.668.336Zm7.392-2.2H35.56v-5.418h-.742V.966h.742V-5.39h2.156Z" transform="translate(419.006 259.813)"/>
  <path id="패스_23632" data-name="패스 23632" class="cls-2" d="M5.655.2A4.251,4.251,0,0,0,9.03-1.38l-.765-.87a3.342,3.342,0,0,1-2.55,1.23c-2.1,0-3.42-1.74-3.42-4.515C2.3-8.28,3.675-9.99,5.76-9.99A3,3,0,0,1,8.01-8.94l.75-.9A4.066,4.066,0,0,0,5.745-11.2C2.955-11.2.87-9.045.87-5.49S2.925.2,5.655.2Zm7.38,0c2.3,0,3.735-1.38,3.735-3.12,0-1.635-.99-2.385-2.265-2.94L12.93-6.54c-.855-.36-1.815-.765-1.815-1.83,0-.99.81-1.62,2.055-1.62a3.562,3.562,0,0,1,2.505,1.035l.735-.885A4.509,4.509,0,0,0,13.17-11.2C11.175-11.2,9.7-9.975,9.7-8.28A3.106,3.106,0,0,0,11.94-5.46l1.59.69c1.035.465,1.83.825,1.83,1.95,0,1.08-.87,1.8-2.31,1.8a4.32,4.32,0,0,1-3.045-1.365L9.18-1.44A5.254,5.254,0,0,0,13.035.2Zm15.75-7.1a27.454,27.454,0,0,1-5.94.45V-10.4H27.57v-.99H21.615V-5.43h1.05a28.036,28.036,0,0,0,6.255-.48Zm-6.09,4.215H30.21v3.81h1.23V-3.69H22.695Zm10.74-6.27h-2v-3.39H30.21v7.92h1.23v-3.51h2Zm2.91,2.61h4.41v-.99h-4.41V-10.11h5v-1.02H35.115v9.015H36.15a32.71,32.71,0,0,0,6.15-.42l-.135-1a30.387,30.387,0,0,1-5.82.42Zm8.01-6.015v5.085H41.58v1.02h2.775v7.38h1.23V-12.36Z" transform="translate(419.006 151.86)"/>
  <text id="_" data-name=" " class="cls-3" transform="translate(467.726 151.86)"><tspan x="0" y="0"> </tspan></text>
  <path id="패스_23633" data-name="패스 23633" class="cls-2" d="M2.608-8.912a2.056,2.056,0,0,1,2.224-2.08,2.061,2.061,0,0,1,2.24,2.08,2.061,2.061,0,0,1-2.24,2.08A2.056,2.056,0,0,1,2.608-8.912Zm6.08,0a3.551,3.551,0,0,0-3.856-3.472A3.546,3.546,0,0,0,.992-8.912,3.546,3.546,0,0,0,4.832-5.44,3.551,3.551,0,0,0,8.688-8.912Zm-6.1,6.224h7.856V1.248H12.1V-4.016h-9.5Zm11.5-7.1v-1.36h-2v-2.064H10.448v8.56H12.1V-6.688h2v-1.36h-2V-9.792ZM19.056,0h6.72V-1.52h-2.3V-11.776H22.08a7.234,7.234,0,0,1-2.56.9v1.168h2.112V-1.52H19.056Zm8.7,3.2A3.751,3.751,0,0,0,30.384-.4c0-1.232-.528-1.984-1.424-1.984A1.2,1.2,0,0,0,27.68-1.2,1.154,1.154,0,0,0,28.912-.016a.656.656,0,0,0,.176-.016A2.484,2.484,0,0,1,27.344,2.16Zm8.08-4.4c-1.264,0-2.112-1.1-2.3-3.44a2.741,2.741,0,0,1,2.192-1.376c1.264,0,1.936.848,1.936,2.368S36.864-1.2,35.84-1.2Zm3.344-9.536A3.955,3.955,0,0,0,36.24-12c-2.32,0-4.448,1.808-4.448,6.336,0,4,1.824,5.872,4.064,5.872a3.589,3.589,0,0,0,3.52-3.856c0-2.5-1.328-3.712-3.312-3.712A3.54,3.54,0,0,0,33.5-6c.08-3.36,1.328-4.5,2.832-4.5a2.53,2.53,0,0,1,1.84.88ZM44.32.208c2.3,0,3.808-2.048,3.808-6.144C48.128-10,46.624-12,44.32-12c-2.32,0-3.808,1.984-3.808,6.064C40.512-1.84,42,.208,44.32.208Zm0-1.456c-1.2,0-2.048-1.28-2.048-4.688,0-3.376.848-4.608,2.048-4.608s2.048,1.232,2.048,4.608C46.368-2.528,45.52-1.248,44.32-1.248ZM53.136.208c2.3,0,3.808-2.048,3.808-6.144C56.944-10,55.44-12,53.136-12c-2.32,0-3.808,1.984-3.808,6.064C49.328-1.84,50.816.208,53.136.208Zm0-1.456c-1.2,0-2.048-1.28-2.048-4.688,0-3.376.848-4.608,2.048-4.608s2.048,1.232,2.048,4.608C55.184-2.528,54.336-1.248,53.136-1.248Zm10.784-5.7H60.448v-3.888H63.92Zm4.608-2.7v1.52H65.52v-1.52ZM65.52-6.784h3.008V-4.7h1.648v-8.512H68.528v2.224H65.52v-1.152H58.832v6.512H65.52ZM65.36-.048c-2.048,0-3.216-.528-3.216-1.488,0-.944,1.168-1.472,3.216-1.472s3.232.528,3.232,1.472C68.592-.576,67.408-.048,65.36-.048Zm0-4.256C62.352-4.3,60.5-3.28,60.5-1.536s1.856,2.768,4.864,2.768c3.024,0,4.88-1.024,4.88-2.768S68.384-4.3,65.36-4.3Z" transform="translate(419.006 174.86)"/>
  <path id="패스_23621" data-name="패스 23621" class="cls-2" d="M1.89-7.455,2.07-6.4,10.2-6.84a27.956,27.956,0,0,1-.48,3.18l1.215.15a27.717,27.717,0,0,0,.57-6.255v-1.26l-.7-.015H2.25v1h8.04v.27c0,.615,0,1.26-.03,1.965Zm4.875,5.73V-5.22H5.535v3.495H.8v1H12.96v-1Zm9.615-8.31h5.145V-11.07h-6.36V-2.2h1.08a34.043,34.043,0,0,0,6.54-.465L22.65-3.7a31.432,31.432,0,0,1-6.27.45Zm7.695-2.31V1.14h1.23V-12.345Z" transform="translate(20.802 151.86)"/>
  <text id="_2" data-name=" " class="cls-3" transform="translate(48.102 151.86)"><tspan x="0" y="0"> </tspan></text>
  <path id="패스_23622" data-name="패스 23622" class="cls-2" d="M2.608-8.912a2.056,2.056,0,0,1,2.224-2.08,2.061,2.061,0,0,1,2.24,2.08,2.061,2.061,0,0,1-2.24,2.08A2.056,2.056,0,0,1,2.608-8.912Zm6.08,0a3.551,3.551,0,0,0-3.856-3.472A3.546,3.546,0,0,0,.992-8.912,3.546,3.546,0,0,0,4.832-5.44,3.551,3.551,0,0,0,8.688-8.912Zm-6.1,6.224h7.856V1.248H12.1V-4.016h-9.5Zm11.5-7.1v-1.36h-2v-2.064H10.448v8.56H12.1V-6.688h2v-1.36h-2V-9.792ZM19.056,0h6.72V-1.52h-2.3V-11.776H22.08a7.234,7.234,0,0,1-2.56.9v1.168h2.112V-1.52H19.056ZM27.2,0h7.6V-1.568H31.856c-.576,0-1.312.048-1.92.112,2.5-2.384,4.3-4.736,4.3-7.008A3.33,3.33,0,0,0,30.688-12,4.621,4.621,0,0,0,27.1-10.24l1.04,1.024a3.194,3.194,0,0,1,2.32-1.312,1.92,1.92,0,0,1,2,2.16c0,1.936-1.792,4.224-5.264,7.3Zm9.376,3.2A3.751,3.751,0,0,0,39.2-.4c0-1.232-.528-1.984-1.424-1.984A1.2,1.2,0,0,0,36.5-1.2,1.154,1.154,0,0,0,37.728-.016.656.656,0,0,0,37.9-.032,2.484,2.484,0,0,1,36.16,2.16ZM40.464,0h7.6V-1.568H45.12c-.576,0-1.312.048-1.92.112,2.5-2.384,4.3-4.736,4.3-7.008A3.33,3.33,0,0,0,43.952-12a4.621,4.621,0,0,0-3.584,1.76l1.04,1.024a3.194,3.194,0,0,1,2.32-1.312,1.92,1.92,0,0,1,2,2.16c0,1.936-1.792,4.224-5.264,7.3ZM53.136.208c2.3,0,3.808-2.048,3.808-6.144C56.944-10,55.44-12,53.136-12c-2.32,0-3.808,1.984-3.808,6.064C49.328-1.84,50.816.208,53.136.208Zm0-1.456c-1.2,0-2.048-1.28-2.048-4.688,0-3.376.848-4.608,2.048-4.608s2.048,1.232,2.048,4.608C55.184-2.528,54.336-1.248,53.136-1.248ZM61.952.208c2.3,0,3.808-2.048,3.808-6.144C65.76-10,64.256-12,61.952-12c-2.32,0-3.808,1.984-3.808,6.064C58.144-1.84,59.632.208,61.952.208Zm0-1.456c-1.2,0-2.048-1.28-2.048-4.688,0-3.376.848-4.608,2.048-4.608S64-9.312,64-5.936C64-2.528,63.152-1.248,61.952-1.248Zm10.784-5.7H69.264v-3.888h3.472Zm4.608-2.7v1.52H74.336v-1.52ZM74.336-6.784h3.008V-4.7h1.648v-8.512H77.344v2.224H74.336v-1.152H67.648v6.512h6.688Zm-.16,6.736c-2.048,0-3.216-.528-3.216-1.488,0-.944,1.168-1.472,3.216-1.472s3.232.528,3.232,1.472C77.408-.576,76.224-.048,74.176-.048Zm0-4.256c-3.008,0-4.864,1.024-4.864,2.768s1.856,2.768,4.864,2.768c3.024,0,4.88-1.024,4.88-2.768S77.2-4.3,74.176-4.3Z" transform="translate(20.802 174.86)"/>
  <path id="패스_23623" data-name="패스 23623" class="cls-2" d="M9.786-8.834a26.6,26.6,0,0,1-.448,5.516l.756.112a28.964,28.964,0,0,0,.434-5.628V-10.08H2.016v.616h7.77ZM6.132-1.554V-6.1H5.4v4.55H.8v.63H12.04v-.63ZM14.1-10.486v.616h4.046c-.168,2.3-1.806,4.214-4.494,5.376l.406.546C17.136-5.306,18.9-7.63,18.9-10.486Zm1.61,7.658h7.434V.98h.742V-3.458H15.708Zm7.462-8.61v3.262h-2v-3.038h-.714v7.028h.714v-3.36h2V-4.1h.714v-7.336Zm7.042.938c-1.932,0-3.276,1.148-3.276,2.842s1.344,2.842,3.276,2.842,3.276-1.148,3.276-2.842S32.144-10.5,30.212-10.5Zm0,.644a2.321,2.321,0,0,1,2.562,2.2,2.321,2.321,0,0,1-2.562,2.2,2.321,2.321,0,0,1-2.562-2.2A2.321,2.321,0,0,1,30.212-9.856Zm5.18-1.6V.994h.742V-11.452Zm-9.03,9.576a47.028,47.028,0,0,0,8.218-.518l-.07-.574a55.913,55.913,0,0,1-8.274.448Zm16.086-8.2v.63H47.32c-.2,3.024-2.03,5.684-5.39,7.35l.42.588c3.948-1.974,5.7-5.18,5.7-8.568ZM53.354-6.244H51.2v-5.208h-.742V.98H51.2V-5.6h2.156Zm7.658-1.848v.63h2.8v3.416h.742v-7.406h-.742v3.36Zm.644,2.912A4.526,4.526,0,0,1,58.52-9.058v-.77h2.912v-.63H54.824v.63h2.968v.784a4.859,4.859,0,0,1-3.234,4.228l.378.6a5.619,5.619,0,0,0,3.248-3.4,5.315,5.315,0,0,0,3.094,3.024ZM60.536.35C58.506.35,57.2-.28,57.2-1.316s1.3-1.666,3.332-1.666,3.346.63,3.346,1.666S62.566.35,60.536.35Zm0-3.934c-2.534,0-4.074.812-4.074,2.268S58,.952,60.536.952,64.61.14,64.61-1.316,63.056-3.584,60.536-3.584ZM69.9-2.576c-1.148,0-1.932-1.456-1.932-3.542S68.754-9.66,69.9-9.66s1.932,1.47,1.932,3.542S71.064-2.576,69.9-2.576Zm4.55-3.892H72.534c-.1-2.366-1.106-3.864-2.632-3.864-1.582,0-2.618,1.638-2.618,4.214S68.32-1.9,69.9-1.9c1.54,0,2.548-1.512,2.632-3.934h1.918V.308h.714V-11.158h-.714Zm2.436-5V.98H77.6V-11.466Zm11.3,5.81H84.028V-8.008h4.158Zm.728-5.026h-.728v2.058H84.028v-2.058h-.742v5.656h5.628ZM88.34.336c-1.988,0-3.276-.616-3.276-1.638,0-.994,1.288-1.624,3.276-1.624s3.29.63,3.29,1.624C91.63-.28,90.342.336,88.34.336Zm0-3.878c-2.492,0-4,.812-4,2.24s1.512,2.254,4,2.254S92.358.14,92.358-1.3,90.832-3.542,88.34-3.542ZM92.26-8.19v-3.262h-.742v7.546h.742v-3.64h1.946V-8.19Zm12.166.938h-6.86V-10.22h6.86Zm.714-3.584h-8.3v4.2h8.3ZM97.594-2.87h-.742V.672h8.526V.042H97.594ZM95.34-4.984v.63h5.32v2.772h.742V-4.354h5.236v-.63Zm16.408,2.408a2.147,2.147,0,0,1-2.254-2.156,2.138,2.138,0,0,1,2.254-2.156A2.147,2.147,0,0,1,114-4.732,2.155,2.155,0,0,1,111.748-2.576Zm0-4.956a2.771,2.771,0,0,0-2.954,2.8,2.752,2.752,0,0,0,2.954,2.786A2.752,2.752,0,0,0,114.7-4.732,2.771,2.771,0,0,0,111.748-7.532Zm.35-3.808h-.742v1.946h-3.388v.63h7.392v-.63H112.1Zm7.588,5.152H117.5v-5.278h-.742V.966h.742V-5.558h2.184Zm7.154,1.624a7.167,7.167,0,0,0,.182-1.61,7.279,7.279,0,0,0-.21-1.736h3.3v3.346ZM124-2.548c-1.372,0-2.324-1.512-2.324-3.626s.952-3.612,2.324-3.612,2.324,1.484,2.324,3.612S125.37-2.548,124-2.548Zm6.118-8.9V-8.54h-3.528a2.8,2.8,0,0,0-2.59-1.9c-1.778,0-3.024,1.68-3.024,4.27S122.22-1.9,124-1.9a2.858,2.858,0,0,0,2.646-2.03h3.472V.98h.742V-11.452Z" transform="translate(20.25 215.826)"/>
  <text id="_3" data-name="" class="cls-4" transform="translate(158.081 215.826)"><tspan x="0" y="0"></tspan></text>
  <path id="패스_23624" data-name="패스 23624" class="cls-2" d="M7.378-8.092v.63h2.8v3.416h.742v-7.406h-.742v3.36ZM8.022-5.18A4.526,4.526,0,0,1,4.886-9.058v-.77H7.8v-.63H1.19v.63H4.158v.784A4.859,4.859,0,0,1,.924-4.816l.378.6a5.619,5.619,0,0,0,3.248-3.4A5.315,5.315,0,0,0,7.644-4.592ZM6.9.35C4.872.35,3.57-.28,3.57-1.316S4.872-2.982,6.9-2.982s3.346.63,3.346,1.666S8.932.35,6.9.35Zm0-3.934c-2.534,0-4.074.812-4.074,2.268S4.368.952,6.9.952,10.976.14,10.976-1.316,9.422-3.584,6.9-3.584Zm17.15-2.954c-1.862-.308-4.564-1.764-4.564-3.668v-.77h-.77v.77c0,1.96-2.674,3.36-4.578,3.668l.322.616c1.75-.336,3.906-1.414,4.648-3.066.742,1.624,2.912,2.73,4.634,3.066Zm.672,2.226H13.468v.63H18.7V.966h.742V-3.682H24.71Zm2.2-5.768v.63h4.97c-.2,3.066-2.086,5.712-5.5,7.364l.406.616c4-1.974,5.838-5.138,5.838-8.61Zm8.61-1.372V.98h.742V-11.452Zm3.5,13.916a2.909,2.909,0,0,0,1.68-2.6c0-.742-.336-1.2-.84-1.2a.7.7,0,0,0-.742.7.686.686,0,0,0,.728.714.682.682,0,0,0,.168-.014,2.118,2.118,0,0,1-1.232,1.876ZM54.1-9.7a11.078,11.078,0,0,1-.336,3.164l.714.1A11.68,11.68,0,0,0,54.81-9.7V-10.78H46.438v.63H54.1ZM50.652.336C48.538.336,47.11-.308,47.11-1.3s1.428-1.652,3.542-1.652S54.208-2.3,54.208-1.3,52.766.336,50.652.336Zm0-3.892c-2.632,0-4.284.84-4.284,2.254S48.02.938,50.652.938,54.936.112,54.936-1.3,53.284-3.556,50.652-3.556Zm.042-1.974V-8.05h-.742v2.52H45.08v.63H56.294v-.63Zm7.812-4.55v.63h4.97c-.2,3.066-2.086,5.712-5.5,7.364l.406.616c4-1.974,5.838-5.138,5.838-8.61Zm8.61-1.372V.98h.742V-11.452ZM77-7.77v.63h2.814v3.22h.742v-7.532h-.742V-7.77Zm.714,2.688c-1.722-.574-3.248-2-3.248-3.71V-9.2h2.926v-.63H74.48v-1.708h-.742v1.708H70.784v.63h2.954v.406A4.579,4.579,0,0,1,70.546-4.76l.378.574A5.369,5.369,0,0,0,74.13-7.364a5.221,5.221,0,0,0,3.234,2.856ZM76.538.336c-2.03,0-3.332-.63-3.332-1.624s1.3-1.624,3.332-1.624,3.346.616,3.346,1.624S78.568.336,76.538.336Zm0-3.864c-2.548,0-4.074.812-4.074,2.24S73.99.938,76.538.938s4.074-.812,4.074-2.226S79.072-3.528,76.538-3.528ZM89.7-8.092v.63h2.8v3.416h.742v-7.406H92.5v3.36Zm.644,2.912a4.526,4.526,0,0,1-3.136-3.878v-.77h2.912v-.63H83.51v.63h2.968v.784a4.859,4.859,0,0,1-3.234,4.228l.378.6a5.619,5.619,0,0,0,3.248-3.4,5.315,5.315,0,0,0,3.094,3.024ZM89.222.35c-2.03,0-3.332-.63-3.332-1.666s1.3-1.666,3.332-1.666,3.346.63,3.346,1.666S91.252.35,89.222.35Zm0-3.934c-2.534,0-4.074.812-4.074,2.268S86.688.952,89.222.952,93.3.14,93.3-1.316,91.742-3.584,89.222-3.584Zm7.336-6.5v.63h4.97c-.2,3.066-2.086,5.712-5.5,7.364l.406.616c4-1.974,5.838-5.138,5.838-8.61Zm8.61-1.372V.98h.742V-11.452Zm16.114,4.046h-7.728v-2.828h7.63v-.63h-8.358v4.088h8.456ZM117,.336c-2.128,0-3.486-.6-3.486-1.61s1.358-1.61,3.486-1.61,3.486.6,3.486,1.61S119.126.336,117,.336Zm0-3.822c-2.632,0-4.228.8-4.228,2.212S114.366.938,117,.938s4.228-.784,4.228-2.212S119.63-3.486,117-3.486Zm-5.614-1.9v.63h11.242v-.63Z" transform="translate(20.25 237.82)"/>
  <text id="_4" data-name="" class="cls-4" transform="translate(148.715 237.82)"><tspan x="0" y="0"></tspan></text>
  <path id="패스_23625" data-name="패스 23625" class="cls-2" d="M8.2-9.8H4.9v-1.638H4.158V-9.8H.84v.616H8.2ZM2.282-6.076c0-.994.91-1.68,2.24-1.68s2.226.686,2.226,1.68c0,.966-.9,1.666-2.226,1.666S2.282-5.11,2.282-6.076Zm5.166,0c0-1.386-1.162-2.282-2.926-2.282s-2.94.9-2.94,2.282,1.176,2.268,2.94,2.268S7.448-4.7,7.448-6.076ZM3.528-2.87H2.786V.672h8.2V.042H3.528Zm6.846-4.312v-4.256H9.632V-2.1h.742V-6.552H12.32v-.63ZM22.862-8.344V-6.37H19.278v.63h3.584v1.9H23.6v-7.6h-.742v2.464H19.656a5.67,5.67,0,0,0,.2-1.484H14.294v.616h4.76c-.2,2.436-2.338,4.284-5.376,5.236l.336.616c2.6-.826,4.592-2.324,5.418-4.354ZM19.614.322c-2.03,0-3.346-.672-3.346-1.722s1.316-1.694,3.346-1.694c2,0,3.332.658,3.332,1.694S21.616.322,19.614.322Zm0-4.018c-2.52,0-4.074.854-4.074,2.3C15.54.07,17.094.924,19.614.924,22.106.924,23.66.07,23.66-1.4,23.66-2.842,22.106-3.7,19.614-3.7Zm7.252-6.384v.63h4.872c-.2,3.024-2.03,5.684-5.39,7.35l.42.588c3.948-1.974,5.7-5.18,5.7-8.568ZM37.772-6.244H35.616v-5.208h-.742V.98h.742V-5.6h2.156ZM45.416-7.9v.63H48.23V-2.3h.742v-9.156H48.23V-7.9Zm.658,2.954A4.526,4.526,0,0,1,42.938-8.82v-.9H45.85v-.63H39.242v.63H42.21v.91A4.819,4.819,0,0,1,38.962-4.62l.392.6a5.625,5.625,0,0,0,3.234-3.374A5.424,5.424,0,0,0,45.7-4.34ZM41.944.042V-3.136H41.2V.672H49.35V.042Zm15.96-9.3h2.478v-.63H54.614v.63H57.19v1.442A6.707,6.707,0,0,1,54.334-2.17l.49.56a6.816,6.816,0,0,0,2.73-4.228A6.427,6.427,0,0,0,60.214-1.9l.476-.56A6.328,6.328,0,0,1,57.9-7.812Zm3.808,2.38H59.4v.644h2.31V.294h.714v-11.41h-.714ZM64.2-11.452V.98h.728V-11.452Zm10.234,4.1H70.98v-3.066h3.458Zm-4.186,0H68.208v.616h9V-7.35H75.18v-3.066h2.058v-.616H68.194v.616h2.058ZM76.23.154H69.244V-2.38H76.23ZM78.344-4.7v-.63H67.1v.63h5.264V-3H68.53V.784h8.428V-3H73.094V-4.7ZM82.6-2.576c-1.148,0-1.932-1.456-1.932-3.542S81.452-9.66,82.6-9.66s1.932,1.47,1.932,3.542S83.762-2.576,82.6-2.576Zm4.55-3.892H85.232c-.1-2.366-1.106-3.864-2.632-3.864-1.582,0-2.618,1.638-2.618,4.214S81.018-1.9,82.6-1.9c1.54,0,2.548-1.512,2.632-3.934H87.15V.308h.714V-11.158H87.15Zm2.436-5V.98H90.3V-11.466ZM96.614-2.9v-6.37h3.906v-.644H95.886v7.658h.77a20.2,20.2,0,0,0,4.718-.392l-.1-.644a18.485,18.485,0,0,1-4.634.392Zm8.526-8.554v5.11H103v-4.8h-.714V.294H103V-5.712h2.142V.966h.728V-11.452ZM115.472-9.8h-3.3v-1.638h-.742V-9.8h-3.318v.616h7.364ZM109.55-6.076c0-.994.91-1.68,2.24-1.68s2.226.686,2.226,1.68c0,.966-.9,1.666-2.226,1.666S109.55-5.11,109.55-6.076Zm5.166,0c0-1.386-1.162-2.282-2.926-2.282s-2.94.9-2.94,2.282,1.176,2.268,2.94,2.268S114.716-4.7,114.716-6.076ZM110.8-2.87h-.742V.672h8.2V.042H110.8Zm6.846-4.312v-4.256H116.9V-2.1h.742V-6.552h1.946v-.63Zm13.244,1.946a4.56,4.56,0,0,1-3.136-3.892v-.8h2.912v-.63H124.04v.63h2.982v.812a4.834,4.834,0,0,1-3.262,4.186l.406.6A5.551,5.551,0,0,0,127.4-7.7a5.424,5.424,0,0,0,3.108,3.052Zm-4.312,2.394h6.5v3h-6.5ZM125.846.784h7.938V-3.458h-7.938Zm7.2-12.236V-8.19h-2.8v.63h2.8v3.43h.742v-7.322Zm4.074.84v.63h4.774c-.182,2.394-2.282,4.186-5.376,5.068l.322.616c3.528-1.022,5.852-3.262,5.852-6.314Zm2.142,7.49h6.468V.154h-6.468ZM138.544.77h7.91V-3.724h-7.91Zm7.168-12.222v3.36h-3.038v.63h3.038V-4.27h.742v-7.182Z" transform="translate(20.25 259.813)"/>
  <text id="_5" data-name="" class="cls-4" transform="translate(174.461 259.813)"><tspan x="0" y="0"></tspan></text>
  <path id="패스_23626" data-name="패스 23626" class="cls-2" d="M10.892-11.466H10.15v7.2h.742ZM6.4-6.258H2.184V-10.01H6.4Zm.714-4.368H1.456v4.984H7.112ZM7.49-2.7h3.766v-.6H7.49V-4.648H6.734V-3.3H3v.6H6.734v.126C6.734-1.162,4.3.084,2.492.336l.266.588C4.452.63,6.412-.294,7.112-1.568,7.8-.308,9.688.63,11.4.924l.266-.588C9.842.056,7.49-1.176,7.49-2.576Zm12.964-7.49c1.4,0,2.408.8,2.408,1.862s-1.008,1.876-2.408,1.876-2.38-.8-2.38-1.876S19.068-10.192,20.454-10.192Zm0,4.368c1.834,0,3.122-1.008,3.122-2.506s-1.288-2.492-3.122-2.492S17.36-9.814,17.36-8.33,18.634-5.824,20.454-5.824Zm4.256.77a59.4,59.4,0,0,1-8.4.462l.126.658c1.106,0,2.38-.014,3.724-.07V.588H20.9V-4.046a36.206,36.206,0,0,0,3.864-.42Zm.98-6.384V.994h.742V-11.438Zm11.1,4.13h1.96v3.57h.714v-7.714h-.714v3.514h-1.96v-3.276h-.714v7.07h.714Zm-1.54,1.89a4,4,0,0,1-2.66-3.444v-1.82h-.714v1.82A4.558,4.558,0,0,1,29.162-5.11l.42.574a5.247,5.247,0,0,0,2.66-2.954A4.651,4.651,0,0,0,34.86-4.858ZM35.462.35c-2.03,0-3.346-.6-3.346-1.568s1.316-1.568,3.346-1.568,3.346.588,3.346,1.568S37.506.35,35.462.35Zm0-3.738c-2.534,0-4.074.784-4.074,2.17S32.928.938,35.462.938s4.074-.77,4.074-2.156S38-3.388,35.462-3.388ZM48.174-6.174a16.916,16.916,0,0,0,.35-3.7v-.574H42.476v.616H47.8a15.387,15.387,0,0,1-.364,3.584Zm1.414.882a42.372,42.372,0,0,1-4.3.35V-7.756h-.742v2.842c-1.022.028-1.988.028-2.842.028l.1.658a54.006,54.006,0,0,0,7.84-.49ZM44.408-2.94h-.742V.672H51.66V.042H44.408Zm6.846-4.326v-4.186h-.742v9.394h.742V-6.622h1.96v-.644ZM55.9-2.716V-6.034h4.9v-4.214H55.118V-9.6h4.956v2.94H55.16v4.578h.994A38.223,38.223,0,0,0,62.5-2.548l-.07-.63a39.071,39.071,0,0,1-6.272.462Zm7.868-8.736V.994h.742V-11.452ZM74.144-10.3H73.4v2.478A6.922,6.922,0,0,1,70.07-2.31l.476.588A7.536,7.536,0,0,0,73.78-6.174a7.264,7.264,0,0,0,3.29,4.228l.434-.6a6.551,6.551,0,0,1-3.36-5.278Zm5.236-1.148v4.424H76.174v.616H79.38V.994h.742V-11.452Zm12.642-.014V.994h.742v-12.46ZM83.44-10.374v8.3h5.712v-8.3H88.41V-6.93H84.182v-3.444Zm.742,4.06H88.41V-2.7H84.182ZM105.966-5c-1.764-.35-4.634-2.226-4.634-4.522v-.994h-.77v.994c0,2.31-2.828,4.158-4.606,4.522l.35.63a7.191,7.191,0,0,0,4.648-3.752,7.205,7.205,0,0,0,4.662,3.752ZM95.354-1.428V-.8h11.284v-.63Zm19.054-7.826h2.478v-.63h-5.768v.63h2.576v1.442a6.707,6.707,0,0,1-2.856,5.642l.49.56a6.816,6.816,0,0,0,2.73-4.228,6.427,6.427,0,0,0,2.66,3.934l.476-.56a6.328,6.328,0,0,1-2.786-5.348Zm3.808,2.38h-2.31v.644h2.31V.294h.714v-11.41h-.714Zm2.492-4.578V.98h.728V-11.452ZM132.664-9.7a11.078,11.078,0,0,1-.336,3.164l.714.1a11.68,11.68,0,0,0,.336-3.262V-10.78h-8.372v.63h7.658ZM129.22.336c-2.114,0-3.542-.644-3.542-1.638s1.428-1.652,3.542-1.652,3.556.658,3.556,1.652S131.334.336,129.22.336Zm0-3.892c-2.632,0-4.284.84-4.284,2.254s1.652,2.24,4.284,2.24S133.5.112,133.5-1.3,131.852-3.556,129.22-3.556Zm.042-1.974V-8.05h-.742v2.52h-4.872v.63h11.214v-.63Z" transform="translate(20.25 281.807)"/>
  <path id="패스_23639" data-name="패스 23639" class="cls-2" d="M8.736-9.842H5.32V-11.48H4.578v1.638H1.162v.616H8.736ZM2.73-6.09c0-.994.9-1.68,2.212-1.68s2.226.686,2.226,1.68-.91,1.68-2.226,1.68S2.73-5.11,2.73-6.09Zm2.6,2.254C6.874-3.962,7.868-4.8,7.868-6.09c0-1.4-1.176-2.282-2.926-2.282S2.03-7.49,2.03-6.09c0,1.3.994,2.142,2.548,2.254V-2.3c-1.316.056-2.59.07-3.71.07l.126.644a53.8,53.8,0,0,0,8.218-.49l-.056-.56c-1.218.168-2.534.252-3.822.308Zm4.69-7.616V.966h.742V-11.452Zm7.35,1.134H16.66v2.492a6.88,6.88,0,0,1-3.318,5.488l.462.6a7.63,7.63,0,0,0,3.234-4.382A7.221,7.221,0,0,0,20.258-2l.462-.574a6.606,6.606,0,0,1-3.346-5.25ZM25.1-6.272H22.918v-5.194h-.742V.98h.742V-5.642H25.1ZM35.2-9.184H27.622V-6.72h8.526v-.574h-7.8V-8.638h7.574v-2.38h-8.33v.574h7.6ZM28.28-1.26h7.686V-3.71H27.524v.574h7.728V-1.82H27.566V.77H36.4V.182H28.28Zm-2.156-4.3v.588h11.3v-.588ZM42.966-2.9v-6.37h3.906v-.644H42.238v7.658h.77a20.2,20.2,0,0,0,4.718-.392l-.1-.644a18.485,18.485,0,0,1-4.634.392Zm8.526-8.554v5.11H49.35v-4.8h-.714V.294h.714V-5.712h2.142V.966h.728V-11.452Zm13.02.014H63.77V-2.3h.742ZM61.8-5a5.068,5.068,0,0,1-3.234-4.466v-1.288h-.728v1.288a5.3,5.3,0,0,1-3.206,4.7l.42.6a5.937,5.937,0,0,0,3.164-3.668A5.673,5.673,0,0,0,61.4-4.41ZM57.442.042V-3.122H56.7V.672h8.232V.042ZM70.784-2.576A2.147,2.147,0,0,1,68.53-4.732a2.138,2.138,0,0,1,2.254-2.156,2.147,2.147,0,0,1,2.254,2.156A2.155,2.155,0,0,1,70.784-2.576Zm0-4.956a2.771,2.771,0,0,0-2.954,2.8,2.752,2.752,0,0,0,2.954,2.786,2.752,2.752,0,0,0,2.954-2.786A2.771,2.771,0,0,0,70.784-7.532Zm.35-3.808h-.742v1.946H67v.63H74.4v-.63H71.134Zm7.588,5.152H76.538v-5.278H75.8V.966h.742V-5.558h2.184Zm7.14,1.624a7.167,7.167,0,0,0,.182-1.61,7.279,7.279,0,0,0-.21-1.736h3.3v3.346ZM83.02-2.548c-1.372,0-2.324-1.512-2.324-3.626s.952-3.612,2.324-3.612S85.344-8.3,85.344-6.174,84.392-2.548,83.02-2.548Zm6.118-8.9V-8.54H85.61a2.8,2.8,0,0,0-2.59-1.9c-1.778,0-3.024,1.68-3.024,4.27S81.242-1.9,83.02-1.9a2.858,2.858,0,0,0,2.646-2.03h3.472V.98h.742V-11.452ZM102.55-5.74c-1.666-.574-3.122-2.044-3.122-3.654v-.63h2.926v-.616H95.746v.616h2.94v.616A4.644,4.644,0,0,1,95.48-5.432l.378.588a5.467,5.467,0,0,0,3.22-3.178,5.256,5.256,0,0,0,3.108,2.87ZM97.608-1.526h3.164V-4.214h-3.92v.6h3.206v1.5H96.894V.854h.6a19.253,19.253,0,0,0,3.682-.238l-.084-.6a18.514,18.514,0,0,1-3.486.224Zm4.69-2.1h2.478V.308H102.3ZM101.626.9h3.822v-5.11h-3.822Zm3.08-12.362v3.038H101.92v.616h2.786v2.926h.742v-6.58Zm8.918,1.064c2.128,0,3.542.714,3.542,1.82s-1.414,1.82-3.542,1.82-3.542-.7-3.542-1.82S111.5-10.4,113.624-10.4Zm0,4.256c2.646,0,4.3-.9,4.3-2.436S116.27-11,113.624-11s-4.3.882-4.3,2.422S110.978-6.146,113.624-6.146Zm-3.374,3.22h-.742v3.6h8.512V.042h-7.77ZM108-4.8v.63h11.242V-4.8ZM126.14-9.576h2.436v4.522c-.826.042-1.638.07-2.436.1Zm5.236,4.312c-.658.084-1.358.14-2.072.168v-4.48h1.4v-.63H124.04v.63h1.386v4.634c-.616,0-1.2.014-1.75.014l.112.658a56.736,56.736,0,0,0,7.644-.434Zm-5.054,2.086h-.742V.672h8.2V.042h-7.462ZM133.168-7.5v-3.934h-.742V-2.3h.742V-6.86h1.946V-7.5Zm4.312-1.82h3.234v6.216H137.48Zm-.7,6.832h4.634V-9.926H136.78Zm9.282-8.96v5.04H143.99v-4.732h-.714V.322h.714v-6.1h2.072V.98h.714V-11.452Z" transform="translate(642.005 215.811)"/>
  <text id="_6" data-name="" class="cls-4" transform="translate(796.215 215.811)"><tspan x="0" y="0"></tspan></text>
  <path id="패스_23640" data-name="패스 23640" class="cls-2" d="M1.736-4.158c1.652-.378,3.934-1.68,4.69-3.528.77,1.834,3.066,3.122,4.732,3.5l.322-.6C9.7-5.1,6.8-6.818,6.8-8.96v-.616H11.13v-.63H1.722v.63H6.048v.616c0,2.142-2.884,3.892-4.648,4.214ZM6.8-1.344V-4.522H6.062v3.178H.8v.63h11.27v-.63ZM20.972-5.138A4.509,4.509,0,0,1,17.7-9.044V-9.87h3.038v-.63H13.9v.63h3.052v.826A4.728,4.728,0,0,1,13.706-4.9l.378.588a5.445,5.445,0,0,0,3.262-3.3A5.359,5.359,0,0,0,20.608-4.55Zm-5.6,2.562h7.462V.98h.742V-3.192h-8.2Zm7.462-8.876V-3.92h.742v-7.532Zm13.426.014h-.742v9.17h.742ZM27.216-7.546a2.339,2.339,0,0,1,2.436-2.338,2.339,2.339,0,0,1,2.436,2.338A2.354,2.354,0,0,1,29.652-5.18,2.354,2.354,0,0,1,27.216-7.546Zm5.586,0a2.962,2.962,0,0,0-3.15-3,2.962,2.962,0,0,0-3.15,3,2.976,2.976,0,0,0,3.15,3.024A2.976,2.976,0,0,0,32.8-7.546ZM29.19.042V-3.234h-.742V.672H36.68V.042ZM50.736-7.784H43.988v-1.47h6.748Zm.742-3.458h-.742v1.386H43.988v-1.386h-.742v4.074h8.232Zm-7.588,9.9h7.588V-3.892H43.134V-3.3H50.75v1.386H43.162V.8h8.722V.182H43.89Zm-2.17-4.55v.616H52.962v-.616ZM63.532-8.54H55.8v3.164h8.722v-.63h-7.98V-7.924H64.26v-2.982h-8.5v.616h7.77Zm2.142,4.69h-11.3v.616H59.64V.994h.742V-3.234h5.292Zm6.762.938H68.348V-6.5h4.088Zm4.032-8.54v4.76h-3.3v-3.78h-.728V-7.1H68.348v-3.374h-.742v8.19h5.558v-3.78h3.3V.98h.742V-11.452Zm13.188,6.1H81.984V-9.6H89.53v-.63H81.256v5.516h8.4ZM79.744-1.456v.63H91.028v-.63Zm25.494-5.95H97.51v-2.828h7.63v-.63H96.782v4.088h8.456ZM100.954.336c-2.128,0-3.486-.6-3.486-1.61s1.358-1.61,3.486-1.61,3.486.6,3.486,1.61S103.082.336,100.954.336Zm0-3.822c-2.632,0-4.228.8-4.228,2.212s1.6,2.212,4.228,2.212,4.228-.784,4.228-2.212S103.586-3.486,100.954-3.486ZM95.34-5.39v.63h11.242v-.63Zm22.008-6.062V.98h.742V-11.452Zm-5.726,1.008c-1.82,0-3.094,1.68-3.094,4.27S109.8-1.9,111.622-1.9s3.08-1.666,3.08-4.27S113.428-10.444,111.622-10.444Zm0,.658c1.386,0,2.366,1.484,2.366,3.612s-.98,3.626-2.366,3.626-2.38-1.5-2.38-3.626S110.222-9.786,111.622-9.786Z" transform="translate(642.005 237.805)"/>
  <text id="_7" data-name="" class="cls-4" transform="translate(767.165 237.805)"><tspan x="0" y="0"></tspan></text>
  <path id="패스_23641" data-name="패스 23641" class="cls-2" d="M9.786-8.834a26.6,26.6,0,0,1-.448,5.516l.756.112a28.964,28.964,0,0,0,.434-5.628V-10.08H2.016v.616h7.77ZM6.132-1.554V-6.1H5.4v4.55H.8v.63H12.04v-.63Zm7.952-8.932v.616H18.13c-.168,2.3-1.806,4.214-4.494,5.376l.406.546c3.08-1.358,4.844-3.682,4.844-6.538Zm1.61,7.658h7.434V.98h.742V-3.458H15.694Zm7.462-8.61v3.262h-2v-3.038H20.44v7.028h.714v-3.36h2V-4.1h.714v-7.336Zm5.8,8.862c-1.148,0-1.932-1.456-1.932-3.542S27.8-9.66,28.952-9.66s1.932,1.47,1.932,3.542S30.114-2.576,28.952-2.576ZM33.5-6.468H31.584c-.1-2.366-1.106-3.864-2.632-3.864-1.582,0-2.618,1.638-2.618,4.214S27.37-1.9,28.952-1.9c1.54,0,2.548-1.512,2.632-3.934H33.5V.308h.714V-11.158H33.5Zm2.436-5V.98h.714V-11.466Zm10.08,5.278H43.372a9.038,9.038,0,0,0,.742-3.626H39.368v.63h4.018a8.6,8.6,0,0,1-4.466,6.86l.476.56a9.837,9.837,0,0,0,3.682-3.808h2.94V.294h.714V-11.1h-.714Zm2.59-5.264V.98h.714V-11.452Zm9.254,2.2H60.34v-.63H54.572v.63h2.576v1.442A6.707,6.707,0,0,1,54.292-2.17l.49.56a6.816,6.816,0,0,0,2.73-4.228A6.427,6.427,0,0,0,60.172-1.9l.476-.56a6.328,6.328,0,0,1-2.786-5.348Zm3.808,2.38H59.36v.644h2.31V.294h.714v-11.41H61.67Zm2.492-4.578V.98h.728V-11.452ZM74.41-7.35H70.952v-3.066H74.41Zm-4.186,0H68.18v.616h9V-7.35h-2.03v-3.066H77.21v-.616H68.166v.616h2.058ZM76.2.154H69.216V-2.38H76.2ZM78.316-4.7v-.63H67.074v.63h5.264V-3H68.5V.784H76.93V-3H73.066V-4.7ZM89.25-8.092v.63h2.8v3.416h.742v-7.406H92.05v3.36Zm.644,2.912a4.526,4.526,0,0,1-3.136-3.878v-.77H89.67v-.63H83.062v.63H86.03v.784A4.859,4.859,0,0,1,82.8-4.816l.378.6a5.619,5.619,0,0,0,3.248-3.4,5.315,5.315,0,0,0,3.094,3.024ZM88.774.35c-2.03,0-3.332-.63-3.332-1.666s1.3-1.666,3.332-1.666,3.346.63,3.346,1.666S90.8.35,88.774.35Zm0-3.934c-2.534,0-4.074.812-4.074,2.268S86.24.952,88.774.952,92.848.14,92.848-1.316,91.294-3.584,88.774-3.584ZM97.482-7.49h6.972v2.618H97.482Zm3.836,6.174V-4.242h3.864v-6.286h-.728V-8.12H97.482v-2.408H96.74v6.286h3.836v2.926h-5.25v.63h11.3v-.63Zm16.17-6.58v.63H120.3V-2.3h.742v-9.156H120.3V-7.9Zm.658,2.954A4.526,4.526,0,0,1,115.01-8.82v-.9h2.912v-.63h-6.608v.63h2.968v.91a4.819,4.819,0,0,1-3.248,4.186l.392.6a5.625,5.625,0,0,0,3.234-3.374,5.424,5.424,0,0,0,3.108,3.052ZM114.016.042V-3.136h-.742V.672h8.148V.042ZM130.886-6.8a26.643,26.643,0,0,1-5.754.448h-.168V-10.08h4.7v-.63h-5.446v4.984h.91A27.91,27.91,0,0,0,131-6.174ZM126.21-1.61h6.958V-4.452h-7.714v.63h6.986v1.61h-6.958v3h8.19V.154H126.21Zm6.958-7.07v-2.786h-.742v6.314h.742v-2.9h1.946v-.63Z" transform="translate(642.005 259.799)"/>
  <text id="_8" data-name="" class="cls-4" transform="translate(783.545 259.799)"><tspan x="0" y="0"></tspan></text>
  <path id="패스_23642" data-name="패스 23642" class="cls-2" d="M10.892-11.466H10.15v7.2h.742ZM6.4-6.258H2.184V-10.01H6.4Zm.714-4.368H1.456v4.984H7.112ZM7.49-2.7h3.766v-.6H7.49V-4.648H6.734V-3.3H3v.6H6.734v.126C6.734-1.162,4.3.084,2.492.336l.266.588C4.452.63,6.412-.294,7.112-1.568,7.8-.308,9.688.63,11.4.924l.266-.588C9.842.056,7.49-1.176,7.49-2.576ZM18.928-9.576h2.436v4.522c-.826.042-1.638.07-2.436.1Zm5.236,4.312c-.658.084-1.358.14-2.072.168v-4.48h1.4v-.63H16.828v.63h1.386v4.634c-.616,0-1.2.014-1.75.014l.112.658A56.736,56.736,0,0,0,24.22-4.7ZM19.11-3.178h-.742V.672h8.2V.042H19.11ZM25.956-7.5v-3.934h-.742V-2.3h.742V-6.86H27.9V-7.5Zm4.3-1.82h3.234v6.216H30.254Zm-.7,6.832h4.634V-9.926H29.554Zm9.282-8.96v5.04H36.764v-4.732H36.05V.322h.714v-6.1h2.072V.98h.714V-11.452ZM49.224-10.4H45.99v-1.19h-.742v1.19H42.014v.574h7.21Zm-5.74,2.716c0-.686.854-1.12,2.128-1.12s2.128.434,2.128,1.12c0,.644-.854,1.092-2.128,1.092S43.484-7.042,43.484-7.686Zm6.146,2.2c-1.162.154-2.422.266-3.64.322v-.91c1.5-.084,2.436-.672,2.436-1.61,0-1.036-1.106-1.652-2.814-1.652s-2.828.616-2.828,1.652c0,.938.952,1.526,2.464,1.61v.938c-1.274.042-2.506.042-3.542.042l.1.6a48.031,48.031,0,0,0,7.882-.476Zm-5.5,4.34h7.1V-3.486H43.372v.574h7.14v1.218H43.4V.8h8.33V.224h-7.6Zm7.1-6.972v-3.332h-.742V-4.1h.742V-7.49H53.2v-.63ZM60.018.35c-2.128,0-3.486-.6-3.486-1.61s1.358-1.61,3.486-1.61,3.486.6,3.486,1.61S62.146.35,60.018.35Zm0-3.822c-2.632,0-4.228.8-4.228,2.212S57.386.952,60.018.952,64.246.168,64.246-1.26,62.65-3.472,60.018-3.472Zm.35-1.694V-6.832H64.3v-.63H56.574v-2.786H64.2v-.63H55.846v4.046H59.64v1.666H54.4v.63H65.646v-.63ZM80.556-6.538c-1.862-.308-4.564-1.764-4.564-3.668v-.77h-.77v.77c0,1.96-2.674,3.36-4.578,3.668l.322.616c1.75-.336,3.906-1.414,4.648-3.066.742,1.624,2.912,2.73,4.634,3.066Zm.672,2.226H69.972v.63h5.236V.966h.742V-3.682h5.264Zm9.128-2.954h2v3.724h.714v-7.91h-.714V-7.9h-2v-3.318h-.714V-4h.714ZM89.068-9.842H86.212v-1.526H85.47v1.526H82.6v.616h6.468Zm-5.18,3.5c0-.882.8-1.5,1.946-1.5,1.176,0,1.96.616,1.96,1.512s-.784,1.512-1.96,1.512S83.888-5.432,83.888-6.342Zm4.592,0c0-1.274-1.064-2.086-2.646-2.086-1.554,0-2.618.812-2.618,2.1s1.064,2.1,2.618,2.1C87.416-4.228,88.48-5.04,88.48-6.342ZM89.068.35c-2.044,0-3.346-.574-3.346-1.512s1.3-1.512,3.346-1.512,3.346.56,3.346,1.512S91.126.35,89.068.35Zm0-3.612c-2.548,0-4.074.756-4.074,2.1s1.526,2.1,4.074,2.1,4.074-.756,4.074-2.1S91.63-3.262,89.068-3.262Z" transform="translate(642.005 281.793)"/>
  <path id="패스_23637" data-name="패스 23637" class="cls-2" d="M6.375-6.285H2.565V-8.5h3.81Zm1.2-5.2h-1.2v2.025H2.565V-11.49H1.35v6.2H7.575ZM6.96.135c-2.01,0-3.21-.57-3.21-1.53S4.95-2.91,6.96-2.91c1.98,0,3.195.555,3.195,1.515S8.94.135,6.96.135Zm0-4.035c-2.745,0-4.44.915-4.44,2.5s1.695,2.5,4.44,2.5,4.425-.915,4.425-2.5S9.69-3.9,6.96-3.9Zm4.275-5.055v-3.39h-1.23v8.1h1.23v-3.69H13.23v-1.02Zm12.45.975h-6.63v-2.745h6.63ZM24.9-11.715H15.855V-6.99H24.9ZM17.055-3.03h-1.23V.81h9.3V-.2h-8.07Zm-2.79-2.43v.99h5.6v2.715h1.23V-4.47h5.4v-.99Zm16.47-4.635H32.88V-5.58c-.72.045-1.44.06-2.145.075Zm5.295,4.26c-.63.09-1.29.15-1.965.18v-4.44H35.4v-.99H28.215v.99h1.32v4.62c-.6.015-1.17.015-1.695.015l.135,1.02a55.747,55.747,0,0,0,8.145-.48ZM31.1-3.36h-1.23V.81h8.97V-.2H31.1Zm7.14-4.89v-4.1h-1.23V-2.43h1.23v-4.8H40.23V-8.25Zm4.71-1.56h2.82v6.33h-2.82ZM41.79-2.5H46.9v-8.28H41.79Zm9.78-9.84V-7.02H49.755v-5.025H48.6V.435h1.155v-6.45H51.57V1.1h1.17v-13.44Zm10.29,7.95v.915h2.73V-2.1h1.23V-12.345H64.59v7.95Zm-2.745-6.5c1.275,0,2.145.57,2.145,1.425s-.87,1.44-2.145,1.44S56.97-8.6,56.97-9.465,57.84-10.89,59.115-10.89Zm0,3.78c1.965,0,3.315-.915,3.315-2.355,0-1.41-1.35-2.34-3.315-2.34s-3.315.93-3.315,2.34C55.8-8.025,57.15-7.11,59.115-7.11Zm-.48,4.53h1.23V-5.235c1.215-.075,2.46-.21,3.645-.39l-.1-.885a73.088,73.088,0,0,1-8.67.39L54.9-5.1c1.11,0,2.4-.015,3.735-.075ZM57.885-.2v-2.91h-1.23V.81h9.51V-.2Z" transform="translate(642 151.86)"/>
  <text id="_9" data-name=" " class="cls-3" transform="translate(709.8 151.86)"><tspan x="0" y="0"> </tspan></text>
  <path id="패스_23638" data-name="패스 23638" class="cls-2" d="M2.608-8.912a2.056,2.056,0,0,1,2.224-2.08,2.061,2.061,0,0,1,2.24,2.08,2.061,2.061,0,0,1-2.24,2.08A2.056,2.056,0,0,1,2.608-8.912Zm6.08,0a3.551,3.551,0,0,0-3.856-3.472A3.546,3.546,0,0,0,.992-8.912,3.546,3.546,0,0,0,4.832-5.44,3.551,3.551,0,0,0,8.688-8.912Zm-6.1,6.224h7.856V1.248H12.1V-4.016h-9.5Zm11.5-7.1v-1.36h-2v-2.064H10.448v8.56H12.1V-6.688h2v-1.36h-2V-9.792ZM18.384,0h7.6V-1.568H23.04c-.576,0-1.312.048-1.92.112,2.5-2.384,4.3-4.736,4.3-7.008A3.33,3.33,0,0,0,21.872-12a4.621,4.621,0,0,0-3.584,1.76l1.04,1.024a3.194,3.194,0,0,1,2.32-1.312,1.92,1.92,0,0,1,2,2.16c0,1.936-1.792,4.224-5.264,7.3ZM27.76,3.2A3.751,3.751,0,0,0,30.384-.4c0-1.232-.528-1.984-1.424-1.984A1.2,1.2,0,0,0,27.68-1.2,1.154,1.154,0,0,0,28.912-.016a.656.656,0,0,0,.176-.016A2.484,2.484,0,0,1,27.344,2.16ZM31.648,0h7.6V-1.568H36.3c-.576,0-1.312.048-1.92.112,2.5-2.384,4.3-4.736,4.3-7.008A3.33,3.33,0,0,0,35.136-12a4.621,4.621,0,0,0-3.584,1.76l1.04,1.024a3.194,3.194,0,0,1,2.32-1.312,1.92,1.92,0,0,1,2,2.16c0,1.936-1.792,4.224-5.264,7.3ZM44.32.208c2.3,0,3.808-2.048,3.808-6.144C48.128-10,46.624-12,44.32-12c-2.32,0-3.808,1.984-3.808,6.064C40.512-1.84,42,.208,44.32.208Zm0-1.456c-1.2,0-2.048-1.28-2.048-4.688,0-3.376.848-4.608,2.048-4.608s2.048,1.232,2.048,4.608C46.368-2.528,45.52-1.248,44.32-1.248ZM53.136.208c2.3,0,3.808-2.048,3.808-6.144C56.944-10,55.44-12,53.136-12c-2.32,0-3.808,1.984-3.808,6.064C49.328-1.84,50.816.208,53.136.208Zm0-1.456c-1.2,0-2.048-1.28-2.048-4.688,0-3.376.848-4.608,2.048-4.608s2.048,1.232,2.048,4.608C55.184-2.528,54.336-1.248,53.136-1.248Zm10.784-5.7H60.448v-3.888H63.92Zm4.608-2.7v1.52H65.52v-1.52ZM65.52-6.784h3.008V-4.7h1.648v-8.512H68.528v2.224H65.52v-1.152H58.832v6.512H65.52ZM65.36-.048c-2.048,0-3.216-.528-3.216-1.488,0-.944,1.168-1.472,3.216-1.472s3.232.528,3.232,1.472C68.592-.576,67.408-.048,65.36-.048Zm0-4.256C62.352-4.3,60.5-3.28,60.5-1.536s1.856,2.768,4.864,2.768c3.024,0,4.88-1.024,4.88-2.768S68.384-4.3,65.36-4.3Z" transform="translate(642 174.86)"/>
  <path id="패스_23629" data-name="패스 23629" class="cls-2" d="M7.994-6.412H5.628A10.724,10.724,0,0,0,6.2-9.954H1.484v.63h3.99a9.283,9.283,0,0,1-.392,2.31l-4.2.294.14.672,3.864-.378A8.176,8.176,0,0,1,.938-2.24l.434.56a8.933,8.933,0,0,0,4-4.116H7.994V.294h.714v-11.41H7.994Zm2.576-5.054V.98h.714V-11.466Zm12.25.014V.98h.742V-11.452Zm-5.726,1.008c-1.82,0-3.094,1.68-3.094,4.27S15.274-1.9,17.094-1.9s3.08-1.666,3.08-4.27S18.9-10.444,17.094-10.444Zm0,.658c1.386,0,2.366,1.484,2.366,3.612s-.98,3.626-2.366,3.626-2.38-1.5-2.38-3.626S15.694-9.786,17.094-9.786ZM33.208-10.3h-.742v2.478A6.922,6.922,0,0,1,29.134-2.31l.476.588a7.536,7.536,0,0,0,3.234-4.452,7.264,7.264,0,0,0,3.29,4.228l.434-.6a6.551,6.551,0,0,1-3.36-5.278Zm5.236-1.148v4.424H35.238v.616h3.206V.994h.742V-11.452Zm12.642-.014V.994h.742v-12.46ZM42.5-10.374v8.3h5.712v-8.3h-.742V-6.93H43.246v-3.444Zm.742,4.06h4.228V-2.7H43.246ZM65.016-5c-1.764-.35-4.634-2.226-4.634-4.522v-.994h-.77v.994c0,2.31-2.828,4.158-4.606,4.522l.35.63A7.191,7.191,0,0,0,60-8.12a7.205,7.205,0,0,0,4.662,3.752ZM54.4-1.428V-.8H65.688v-.63ZM78.988-8.834a26.6,26.6,0,0,1-.448,5.516l.756.112a28.964,28.964,0,0,0,.434-5.628V-10.08H71.218v.616h7.77Zm-3.654,7.28V-6.1h-.728v4.55H70v.63H81.242v-.63ZM83.3-10.486v.616h4.046c-.168,2.3-1.806,4.214-4.494,5.376l.406.546C86.338-5.306,88.1-7.63,88.1-10.486Zm1.61,7.658h7.434V.98h.742V-3.458H84.91Zm7.462-8.61v3.262h-2v-3.038h-.714v7.028h.714v-3.36h2V-4.1h.714v-7.336Zm8.61.8c2.17,0,3.542.6,3.542,1.582s-1.372,1.6-3.542,1.6-3.542-.6-3.542-1.6S98.812-10.64,100.982-10.64Zm0,3.766c2.7,0,4.3-.77,4.3-2.184s-1.6-2.17-4.3-2.17-4.3.77-4.3,2.17S98.28-6.874,100.982-6.874Zm-3.458,5.46h7.588V-3.976H96.768v.6h7.616v1.386H96.8V.8h8.722V.182H97.524Zm-2.17-4.48v.63H106.6v-.63Zm16.842,3v-6.37H116.1v-.644h-4.634v7.658h.77a20.2,20.2,0,0,0,4.718-.392l-.1-.644a18.485,18.485,0,0,1-4.634.392Zm8.526-8.554v5.11H118.58v-4.8h-.714V.294h.714V-5.712h2.142V.966h.728V-11.452Zm10.01,6.062a4.687,4.687,0,0,1-3.178-4.046V-10.85h-.714v1.386a4.894,4.894,0,0,1-3.178,4.41l.392.6A5.585,5.585,0,0,0,127.232-7.9,5.429,5.429,0,0,0,130.326-4.8ZM129.29.336c-1.988,0-3.276-.6-3.276-1.568s1.288-1.582,3.276-1.582,3.29.6,3.29,1.582S131.292.336,129.29.336Zm0-3.752c-2.506,0-4,.784-4,2.184s1.5,2.17,4,2.17,4.018-.784,4.018-2.17S131.8-3.416,129.29-3.416Zm3.92-4.634v-3.416h-.742v7.672h.742V-7.406h1.946V-8.05Zm8.708-2.52c-2.562,0-4.438,1.33-4.438,3.332s1.876,3.332,4.438,3.332,4.452-1.316,4.452-3.332S144.48-10.57,141.918-10.57Zm0,.616c2.142,0,3.766,1.134,3.766,2.716s-1.624,2.73-3.766,2.73-3.752-1.134-3.752-2.73S139.79-9.954,141.918-9.954ZM136.3-1.386v.63h11.284v-.63Zm18.662.1V-3.906h4.116v-.63h-7.9V-6.93h7.6v-3.528h-8.372v.616h7.644v2.3h-7.6v3.64h3.766v2.618h-5.25v.644h11.3v-.644Z" transform="translate(204 215.826)"/>
  <path id="패스_23630" data-name="패스 23630" class="cls-2" d="M7.378-8.092v.63h2.8v3.416h.742v-7.406h-.742v3.36ZM8.022-5.18A4.526,4.526,0,0,1,4.886-9.058v-.77H7.8v-.63H1.19v.63H4.158v.784A4.859,4.859,0,0,1,.924-4.816l.378.6a5.619,5.619,0,0,0,3.248-3.4A5.315,5.315,0,0,0,7.644-4.592ZM6.9.35C4.872.35,3.57-.28,3.57-1.316S4.872-2.982,6.9-2.982s3.346.63,3.346,1.666S8.932.35,6.9.35Zm0-3.934c-2.534,0-4.074.812-4.074,2.268S4.368.952,6.9.952,10.976.14,10.976-1.316,9.422-3.584,6.9-3.584Zm7.336-6.5v.63h4.97c-.2,3.066-2.086,5.712-5.5,7.364l.406.616c4-1.974,5.838-5.138,5.838-8.61Zm8.61-1.372V.98h.742V-11.452Zm10.542,6.3a4.527,4.527,0,0,1-3.136-3.892V-9.87h2.912v-.63H26.558v.63h2.968v.84a4.819,4.819,0,0,1-3.248,4.186l.392.588A5.5,5.5,0,0,0,29.9-7.6a5.442,5.442,0,0,0,3.108,3.038Zm-5.306,2.52h7.462v3.6h.742V-3.262h-8.2Zm7.462-8.82v3.4h-2.8v.63h2.8V-4h.742v-7.448Zm13.412.014h-.742v9.17h.742ZM39.914-7.546A2.339,2.339,0,0,1,42.35-9.884a2.339,2.339,0,0,1,2.436,2.338A2.354,2.354,0,0,1,42.35-5.18,2.354,2.354,0,0,1,39.914-7.546Zm5.586,0a2.962,2.962,0,0,0-3.15-3,2.962,2.962,0,0,0-3.15,3,2.976,2.976,0,0,0,3.15,3.024A2.976,2.976,0,0,0,45.5-7.546ZM41.888.042V-3.234h-.742V.672h8.232V.042ZM55.636-9.324H58.87v6.216H55.636Zm-.7,6.832H59.57V-9.926H54.936Zm9.282-8.96v5.04H62.146v-4.732h-.714V.322h.714v-6.1h2.072V.98h.714V-11.452ZM77.042-4.578H69.384v-2.3H76.65V-7.49H69.384V-9.674h7.532v-.63H68.628v6.356h8.414ZM67.1-1.358v.63H78.386v-.63ZM81.27-2.716V-6.034h4.9v-4.214H80.486V-9.6h4.956v2.94H80.528v4.578h.994a38.223,38.223,0,0,0,6.342-.462l-.07-.63a39.071,39.071,0,0,1-6.272.462Zm7.868-8.736V.994h.742V-11.452ZM103.068-5c-1.764-.35-4.634-2.226-4.634-4.522v-.994h-.77v.994c0,2.31-2.828,4.158-4.606,4.522l.35.63A7.191,7.191,0,0,0,98.056-8.12a7.205,7.205,0,0,0,4.662,3.752ZM92.456-1.428V-.8H103.74v-.63Zm19.67-8.764c1.4,0,2.408.8,2.408,1.862s-1.008,1.876-2.408,1.876-2.38-.8-2.38-1.876S110.74-10.192,112.126-10.192Zm0,4.368c1.834,0,3.122-1.008,3.122-2.506s-1.288-2.492-3.122-2.492-3.094,1.008-3.094,2.492S110.306-5.824,112.126-5.824Zm4.256.77a59.4,59.4,0,0,1-8.4.462l.126.658c1.106,0,2.38-.014,3.724-.07V.588h.742V-4.046a36.206,36.206,0,0,0,3.864-.42Zm.98-6.384V.994h.742V-11.438Zm11.1,4.13h1.96v3.57h.714v-7.714h-.714v3.514h-1.96v-3.276h-.714v7.07h.714Zm-1.54,1.89a4,4,0,0,1-2.66-3.444v-1.82h-.714v1.82a4.558,4.558,0,0,1-2.716,3.752l.42.574a5.247,5.247,0,0,0,2.66-2.954,4.651,4.651,0,0,0,2.618,2.632Zm.21,5.768c-2.03,0-3.346-.6-3.346-1.568s1.316-1.568,3.346-1.568,3.346.588,3.346,1.568S129.178.35,127.134.35Zm0-3.738c-2.534,0-4.074.784-4.074,2.17S124.6.938,127.134.938s4.074-.77,4.074-2.156S129.668-3.388,127.134-3.388Zm15.638-2.786a16.916,16.916,0,0,0,.35-3.7v-.574h-6.048v.616h5.32a15.387,15.387,0,0,1-.364,3.584Zm1.414.882a42.372,42.372,0,0,1-4.3.35V-7.756h-.742v2.842c-1.022.028-1.988.028-2.842.028l.1.658a54.007,54.007,0,0,0,7.84-.49Zm-5.18,2.352h-.742V.672h7.994V.042h-7.252Zm6.846-4.326v-4.186h-.742v9.394h.742V-6.622h1.96v-.644Zm4.634,4.55V-6.034h4.9v-4.214H149.7V-9.6h4.956v2.94h-4.914v4.578h.994a38.223,38.223,0,0,0,6.342-.462l-.07-.63a39.071,39.071,0,0,1-6.272.462Zm7.868-8.736V.994h.742V-11.452Z" transform="translate(204 237.82)"/>
  <path id="패스_23631" data-name="패스 23631" class="cls-2" d="M4.942-10.3H4.2v2.478A6.922,6.922,0,0,1,.868-2.31l.476.588A7.536,7.536,0,0,0,4.578-6.174a7.264,7.264,0,0,0,3.29,4.228l.434-.6a6.551,6.551,0,0,1-3.36-5.278Zm5.236-1.148v4.424H6.972v.616h3.206V.994h.742V-11.452Zm12.642-.014V.994h.742v-12.46Zm-8.582,1.092v8.3H19.95v-8.3h-.742V-6.93H14.98v-3.444Zm.742,4.06h4.228V-2.7H14.98ZM36.764-5C35-5.348,32.13-7.224,32.13-9.52v-.994h-.77v.994c0,2.31-2.828,4.158-4.606,4.522l.35.63A7.191,7.191,0,0,0,31.752-8.12a7.205,7.205,0,0,0,4.662,3.752ZM26.152-1.428V-.8H37.436v-.63ZM45.22-9.254H47.7v-.63H41.93v.63h2.576v1.442A6.707,6.707,0,0,1,41.65-2.17l.49.56a6.816,6.816,0,0,0,2.73-4.228A6.427,6.427,0,0,0,47.53-1.9l.476-.56A6.328,6.328,0,0,1,45.22-7.812Zm3.808,2.38h-2.31v.644h2.31V.294h.714v-11.41h-.714Zm2.492-4.578V.98h.728V-11.452ZM63.462-9.7a11.078,11.078,0,0,1-.336,3.164l.714.1A11.68,11.68,0,0,0,64.176-9.7V-10.78H55.8v.63h7.658ZM60.018.336C57.9.336,56.476-.308,56.476-1.3S57.9-2.954,60.018-2.954,63.574-2.3,63.574-1.3,62.132.336,60.018.336Zm0-3.892c-2.632,0-4.284.84-4.284,2.254S57.386.938,60.018.938,64.3.112,64.3-1.3,62.65-3.556,60.018-3.556ZM60.06-5.53V-8.05h-.742v2.52H54.446v.63H65.66v-.63Z" transform="translate(204 259.814)"/>
  <path id="패스_23627" data-name="패스 23627" class="cls-2" d="M12.255-11.235H7.5v-1.29H6.27v1.29H1.425v.96h10.83Zm-8.76,9.27h6.78V0H3.495ZM2.3.93h9.18V-2.895H2.3Zm1.53-8.775c0-.66,1.1-1.035,3.06-1.035,1.935,0,3.03.375,3.03,1.035,0,.675-1.1,1.05-3.03,1.05C4.92-6.8,3.825-7.17,3.825-7.845ZM7.5-4.92V-5.94c2.37-.09,3.72-.75,3.72-1.905,0-1.245-1.575-1.9-4.335-1.9-2.79,0-4.35.66-4.35,1.9C2.535-6.69,3.87-6.03,6.27-5.94v1.02H.8v.975h12.15V-4.92ZM21.765-7.035H19.65a12.394,12.394,0,0,0,.525-3.72H15.03v.99h3.96a10.321,10.321,0,0,1-.345,2.145l-4.275.285.165,1.05,3.78-.375A8.316,8.316,0,0,1,14.37-2.565l.7.885a9.451,9.451,0,0,0,4.2-4.35h2.49V.42H22.92V-12H21.765Zm2.79-5.325V1.1h1.17V-12.36ZM31.4-3.015c-1.29,0-2.19-1.41-2.19-3.6,0-2.175.9-3.585,2.19-3.585,1.275,0,2.175,1.41,2.175,3.585C33.57-4.425,32.67-3.015,31.4-3.015Zm6.255-9.33v5.13H34.725c-.195-2.52-1.515-4.1-3.33-4.1-1.965,0-3.36,1.83-3.36,4.7s1.4,4.7,3.36,4.7c1.875,0,3.21-1.65,3.33-4.29H37.65V1.14h1.23V-12.345ZM52.14-6.9a27.454,27.454,0,0,1-5.94.45V-10.4h4.725v-.99H44.97V-5.43h1.05a28.036,28.036,0,0,0,6.255-.48ZM46.05-2.685h7.515v3.81H54.8V-3.69H46.05Zm10.74-6.27H54.8v-3.39h-1.23v7.92H54.8v-3.51H56.79Zm2.91,2.61h4.41v-.99H59.7V-10.11h4.995v-1.02H58.47v9.015h1.035a32.71,32.71,0,0,0,6.15-.42l-.135-1a30.387,30.387,0,0,1-5.82.42Zm8.01-6.015v5.085H64.935v1.02H67.71v7.38h1.23V-12.36Z" transform="translate(204 151.86)"/>
  <text id="_10" data-name=" " class="cls-3" transform="translate(275.7 151.86)"><tspan x="0" y="0"> </tspan></text>
  <path id="패스_23628" data-name="패스 23628" class="cls-2" d="M2.608-8.912a2.056,2.056,0,0,1,2.224-2.08,2.061,2.061,0,0,1,2.24,2.08,2.061,2.061,0,0,1-2.24,2.08A2.056,2.056,0,0,1,2.608-8.912Zm6.08,0a3.551,3.551,0,0,0-3.856-3.472A3.546,3.546,0,0,0,.992-8.912,3.546,3.546,0,0,0,4.832-5.44,3.551,3.551,0,0,0,8.688-8.912Zm-6.1,6.224h7.856V1.248H12.1V-4.016h-9.5Zm11.5-7.1v-1.36h-2v-2.064H10.448v8.56H12.1V-6.688h2v-1.36h-2V-9.792ZM19.056,0h6.72V-1.52h-2.3V-11.776H22.08a7.234,7.234,0,0,1-2.56.9v1.168h2.112V-1.52H19.056Zm8.7,3.2A3.751,3.751,0,0,0,30.384-.4c0-1.232-.528-1.984-1.424-1.984A1.2,1.2,0,0,0,27.68-1.2,1.154,1.154,0,0,0,28.912-.016a.656.656,0,0,0,.176-.016A2.484,2.484,0,0,1,27.344,2.16ZM31.648,0h7.6V-1.568H36.3c-.576,0-1.312.048-1.92.112,2.5-2.384,4.3-4.736,4.3-7.008A3.33,3.33,0,0,0,35.136-12a4.621,4.621,0,0,0-3.584,1.76l1.04,1.024a3.194,3.194,0,0,1,2.32-1.312,1.92,1.92,0,0,1,2,2.16c0,1.936-1.792,4.224-5.264,7.3ZM44.32.208c2.3,0,3.808-2.048,3.808-6.144C48.128-10,46.624-12,44.32-12c-2.32,0-3.808,1.984-3.808,6.064C40.512-1.84,42,.208,44.32.208Zm0-1.456c-1.2,0-2.048-1.28-2.048-4.688,0-3.376.848-4.608,2.048-4.608s2.048,1.232,2.048,4.608C46.368-2.528,45.52-1.248,44.32-1.248ZM53.136.208c2.3,0,3.808-2.048,3.808-6.144C56.944-10,55.44-12,53.136-12c-2.32,0-3.808,1.984-3.808,6.064C49.328-1.84,50.816.208,53.136.208Zm0-1.456c-1.2,0-2.048-1.28-2.048-4.688,0-3.376.848-4.608,2.048-4.608s2.048,1.232,2.048,4.608C55.184-2.528,54.336-1.248,53.136-1.248Zm10.784-5.7H60.448v-3.888H63.92Zm4.608-2.7v1.52H65.52v-1.52ZM65.52-6.784h3.008V-4.7h1.648v-8.512H68.528v2.224H65.52v-1.152H58.832v6.512H65.52ZM65.36-.048c-2.048,0-3.216-.528-3.216-1.488,0-.944,1.168-1.472,3.216-1.472s3.232.528,3.232,1.472C68.592-.576,67.408-.048,65.36-.048Zm0-4.256C62.352-4.3,60.5-3.28,60.5-1.536s1.856,2.768,4.864,2.768c3.024,0,4.88-1.024,4.88-2.768S68.384-4.3,65.36-4.3Z" transform="translate(204 174.86)"/>
  <rect id="사각형_211" data-name="사각형 211" class="cls-5" width="348" height="30" transform="translate(20 76.323)"/>
  <path id="패스_23618" data-name="패스 23618" class="cls-6" d="M5.31-11.175H4.1V-8.76A7.129,7.129,0,0,1,.63-2.745l.735.99A7.452,7.452,0,0,0,4.71-6.21,7.421,7.421,0,0,0,7.965-2.025L8.73-3A6.794,6.794,0,0,1,5.31-8.76Zm8.055,4.29h-2.22V-12.33H9.915V1.11h1.23V-5.865h2.22Zm8.07-1.74v1h2.7v5.145H25.38V-12.33H24.135v3.7Zm.8,3.165a4.619,4.619,0,0,1-3.27-4.125v-.66h2.955v-1H14.73v1h3v.675a4.9,4.9,0,0,1-3.39,4.41l.645.96a5.742,5.742,0,0,0,3.39-3.345A5.551,5.551,0,0,0,21.615-4.5ZM18.015-.2v-3.15H16.77V.81h8.985V-.2ZM32.505-11.19h-1.23v2.415a7.107,7.107,0,0,1-3.48,6.06l.75.975a7.465,7.465,0,0,0,3.345-4.5,7.208,7.208,0,0,0,3.375,4.26l.72-.975a6.707,6.707,0,0,1-3.48-5.82Zm5.145-1.155v4.56H34.53V-6.78h3.12v7.9h1.23v-13.47Zm13.425,0V1.125h1.23v-13.47ZM42.06-11.2V-2.13h6.33V-11.2H47.175V-7.65h-3.9V-11.2Zm1.215,4.53h3.9v3.54h-3.9ZM66.39-5.58c-2.355-.45-4.9-2.49-4.9-4.785V-11.4h-1.29v1.035c0,2.3-2.535,4.32-4.89,4.785l.555,1.02a7.388,7.388,0,0,0,4.98-3.885A7.3,7.3,0,0,0,65.835-4.56Zm-11.6,3.87V-.69H66.99V-1.71Z" transform="translate(159.909 97.922)"/>
  <rect id="사각형_212" data-name="사각형 212" class="cls-5" width="174" height="30" transform="translate(419.005 76.323)"/>
  <path id="패스_23619" data-name="패스 23619" class="cls-6" d="M5.31-11.175H4.1V-8.76A7.129,7.129,0,0,1,.63-2.745l.735.99A7.452,7.452,0,0,0,4.71-6.21,7.421,7.421,0,0,0,7.965-2.025L8.73-3A6.794,6.794,0,0,1,5.31-8.76Zm8.055,4.29h-2.22V-12.33H9.915V1.11h1.23V-5.865h2.22ZM25.74-10.8H21v-1.62H19.755v1.62h-4.83v.99H25.74ZM23.46-6.8c0,.825-1.11,1.305-3.075,1.305s-3.1-.48-3.1-1.305S18.42-8.1,20.385-8.1,23.46-7.62,23.46-6.8ZM16-6.8c0,1.44,1.635,2.235,4.38,2.235,2.715,0,4.35-.8,4.35-2.235s-1.635-2.25-4.35-2.25C17.64-9.045,16-8.235,16-6.8ZM26.49-3.615H14.3V-2.61h5.46V1.125H21V-2.61h5.49Zm6.03-7.575H31.29v2.415a7.107,7.107,0,0,1-3.48,6.06l.75.975A7.465,7.465,0,0,0,31.9-6.24,7.208,7.208,0,0,0,35.28-1.98L36-2.955a6.707,6.707,0,0,1-3.48-5.82Zm5.145-1.155v4.56h-3.12V-6.78h3.12v7.9H38.9v-13.47Zm13.425,0V1.125h1.23v-13.47ZM42.075-11.2V-2.13H48.4V-11.2H47.19V-7.65h-3.9V-11.2Zm1.215,4.53h3.9v3.54h-3.9ZM66.4-5.58c-2.355-.45-4.9-2.49-4.9-4.785V-11.4H60.21v1.035c0,2.3-2.535,4.32-4.89,4.785l.555,1.02a7.388,7.388,0,0,0,4.98-3.885A7.3,7.3,0,0,0,65.85-4.56ZM54.81-1.71V-.69H67V-1.71Z" transform="translate(471.911 97.922)"/>
  <rect id="사각형_213" data-name="사각형 213" class="cls-5" width="174" height="30" transform="translate(642 76.324)"/>
  <path id="패스_23620" data-name="패스 23620" class="cls-6" d="M3.735-10.095H5.88V-5.58c-.72.045-1.44.06-2.145.075ZM9.03-5.835c-.63.09-1.29.15-1.965.18v-4.44H8.4v-.99H1.215v.99h1.32v4.62c-.6.015-1.17.015-1.7.015L.975-4.44A55.747,55.747,0,0,0,9.12-4.92ZM4.1-3.36H2.865V.81h8.97V-.2H4.1Zm7.14-4.89v-4.1h-1.23V-2.43h1.23v-4.8H13.23V-8.25ZM15.93-9.81h2.82v6.33H15.93ZM14.775-2.5H19.89v-8.28H14.775Zm9.78-9.84V-7.02H22.74v-5.025H21.585V.435H22.74v-6.45h1.815V1.1h1.17v-13.44Z" transform="translate(715.445 97.922)"/>
  <line id="선_463" data-name="선 463" class="cls-7" x2="348" transform="translate(20 123.94)"/>
  <line id="선_464" data-name="선 464" class="cls-7" y1="17.377" transform="translate(194 106.421)"/>
  <line id="선_465" data-name="선 465" class="cls-7" x2="174" transform="translate(419.006 123.94)"/>
  <line id="선_466" data-name="선 466" class="cls-7" y1="17.377" transform="translate(506.006 106.421)"/>
  <line id="선_467" data-name="선 467" class="cls-7" x2="174" transform="translate(642 123.94)"/>
  <line id="선_468" data-name="선 468" class="cls-7" y1="17.377" transform="translate(729 106.421)"/>
  <line id="선_469" data-name="선 469" class="cls-7" x2="796" transform="translate(20 301.721)"/>
  <line id="선_470" data-name="선 470" class="cls-8" y1="148.5" transform="translate(390.081 126.19)"/>
  <path id="패스_452" data-name="패스 452" class="cls-9" d="M3672.521,1845.79h0m0,153h0" transform="translate(-3282.44 -1721.1)"/>
  <line id="선_471" data-name="선 471" class="cls-8" y1="148.5" transform="translate(621.931 126.19)"/>
  <path id="패스_453" data-name="패스 453" class="cls-9" d="M3904.371,1845.79h0m0,153h0" transform="translate(-3282.44 -1721.1)"/>
</svg>
