<svg id="구성_요소_65_1" data-name="구성 요소 65 – 1" xmlns="http://www.w3.org/2000/svg" width="836" height="324.125" viewBox="0 0 836 324.125">
  <defs>
    <style>
      .cls-1 {
        fill: #f5f6f7;
      }

      .cls-2, .cls-4, .cls-7 {
        fill: #1e2323;
      }

      .cls-2 {
        font-size: 16px;
        font-family: NotoSansKR-Medium, Noto Sans KR;
        font-weight: 500;
      }

      .cls-3 {
        letter-spacing: -0.02em;
      }

      .cls-4 {
        font-size: 14px;
        font-family: NotoSansKR-Light, Noto Sans KR;
        font-weight: 300;
      }

      .cls-5 {
        letter-spacing: -0.015em;
      }

      .cls-6 {
        letter-spacing: -0.014em;
      }

      .cls-11, .cls-7 {
        font-size: 15px;
        font-family: NotoSansKR-Regular, Noto Sans KR;
      }

      .cls-8 {
        letter-spacing: -0.046em;
      }

      .cls-9 {
        letter-spacing: -0.019em;
      }

      .cls-10 {
        fill: #d6a803;
      }

      .cls-11 {
        fill: #fff;
      }

      .cls-12, .cls-13, .cls-14 {
        fill: none;
        stroke: #3e3a39;
      }

      .cls-12 {
        stroke-width: 0.5px;
      }

      .cls-13, .cls-14 {
        stroke-linecap: round;
        stroke-linejoin: round;
      }

      .cls-13 {
        stroke-dasharray: 0 3;
      }
    </style>
  </defs>
  <rect id="사각형_210" data-name="사각형 210" class="cls-1" width="836" height="324.125"/>
  <text id="파트너_구성" data-name="파트너 구성" class="cls-2" transform="translate(379.76 40.652)"><tspan class="cls-3" x="0" y="0">파트너 구</tspan><tspan y="0">성</tspan></text>
  <text id="제품_설치_이전_해체_서비스_" data-name="제품 설치, 이전, 해체 서비스 " class="cls-4" transform="translate(419.006 215.826)"><tspan class="cls-5" x="0" y="0">제</tspan><tspan class="cls-6" y="0">품</tspan><tspan class="cls-5" y="0"> </tspan><tspan class="cls-6" y="0">설</tspan><tspan class="cls-5" y="0">치</tspan><tspan class="cls-6" y="0">,</tspan><tspan class="cls-5" y="0" xml:space="preserve"> 이</tspan><tspan class="cls-6" y="0">전,</tspan><tspan class="cls-5" y="0"> </tspan><tspan class="cls-6" y="0">해</tspan><tspan class="cls-5" y="0">체</tspan><tspan class="cls-6" y="0"> </tspan><tspan class="cls-5" y="0">서비</tspan><tspan y="0">스 </tspan></text>
  <text id="및_A_S를_제공하여_고객만족_" data-name="및 A/S를 제공하여 고객만족 " class="cls-4" transform="translate(419.006 237.82)"><tspan class="cls-5" x="0" y="0">및</tspan><tspan class="cls-6" y="0" xml:space="preserve"> A/S</tspan><tspan class="cls-5" y="0">를</tspan><tspan class="cls-6" y="0"> </tspan><tspan class="cls-5" y="0">제</tspan><tspan class="cls-6" y="0">공</tspan><tspan class="cls-5" y="0">하</tspan><tspan class="cls-6" y="0">여</tspan><tspan class="cls-5" y="0"> </tspan><tspan class="cls-6" y="0">고</tspan><tspan class="cls-5" y="0">객만</tspan><tspan y="0">족 </tspan></text>
  <text id="극대화" class="cls-4" transform="translate(419.006 259.813)"><tspan class="cls-5" x="0" y="0">극</tspan><tspan class="cls-6" y="0">대</tspan><tspan y="0">화</tspan></text>
  <text id="CS_닥터" data-name="CS 닥터" class="cls-7" transform="translate(419.006 151.86)"><tspan class="cls-8" x="0" y="0">C</tspan><tspan class="cls-9" y="0">S</tspan><tspan class="cls-3" y="0" xml:space="preserve"> 닥</tspan><tspan y="0">터</tspan></text>
  <text id="_" data-name=" " class="cls-7" transform="translate(467.726 151.86)"><tspan x="0" y="0"> </tspan></text>
  <text id="약_1_600명" data-name="약 1,600명" class="cls-2" transform="translate(419.006 174.86)"><tspan class="cls-3" x="0" y="0">약 </tspan><tspan class="cls-9" y="0">1</tspan><tspan class="cls-3" y="0">,</tspan><tspan class="cls-9" y="0">600</tspan><tspan y="0">명</tspan></text>
  <text id="코디" class="cls-7" transform="translate(20.802 151.86)"><tspan class="cls-3" x="0" y="0">코</tspan><tspan y="0">디</tspan></text>
  <text id="_2" data-name=" " class="cls-7" transform="translate(48.102 151.86)"><tspan x="0" y="0"> </tspan></text>
  <text id="약_12_200명" data-name="약 12,200명" class="cls-2" transform="translate(20.802 174.86)"><tspan class="cls-3" x="0" y="0">약 </tspan><tspan class="cls-9" y="0">12</tspan><tspan class="cls-3" y="0">,</tspan><tspan class="cls-9" y="0">200</tspan><tspan y="0">명</tspan></text>
  <text id="고객의_가정에_방문하여_" data-name="고객의 가정에 방문하여 " class="cls-4" transform="translate(20.25 215.826)"><tspan class="cls-6" x="0" y="0">고객의</tspan><tspan class="cls-5" y="0"> </tspan><tspan class="cls-6" y="0">가</tspan><tspan class="cls-5" y="0">정</tspan><tspan class="cls-6" y="0">에</tspan><tspan class="cls-5" y="0"> </tspan><tspan class="cls-6" y="0">방문하</tspan><tspan y="0">여 </tspan></text>
  <text id="_3" data-name="" class="cls-4" transform="translate(158.081 215.826)"><tspan x="0" y="0"></tspan></text>
  <text id="정수기_공기청정기_등_" data-name="정수기, 공기청정기 등 " class="cls-4" transform="translate(20.25 237.82)"><tspan class="cls-6" x="0" y="0">정수기, 공기청정기</tspan><tspan class="cls-5" y="0"> </tspan><tspan y="0">등 </tspan></text>
  <text id="_4" data-name="" class="cls-4" transform="translate(148.715 237.82)"><tspan x="0" y="0"></tspan></text>
  <text id="한경가전_제품에_대한_점검_" data-name="한경가전 제품에 대한 점검 " class="cls-4" transform="translate(20.25 259.813)"><tspan class="cls-6" x="0" y="0">한경가전 </tspan><tspan class="cls-5" y="0">제</tspan><tspan class="cls-6" y="0">품</tspan><tspan class="cls-5" y="0">에</tspan><tspan class="cls-6" y="0" xml:space="preserve"> 대한 </tspan><tspan class="cls-5" y="0">점</tspan><tspan y="0">검 </tspan></text>
  <text id="_5" data-name="" class="cls-4" transform="translate(174.461 259.813)"><tspan x="0" y="0"></tspan></text>
  <text id="및_위생관리_서비스_제공" data-name="및 위생관리 서비스 제공" class="cls-4" transform="translate(20.25 281.807)"><tspan class="cls-6" x="0" y="0">및</tspan><tspan class="cls-5" y="0"> </tspan><tspan class="cls-6" y="0">위</tspan><tspan class="cls-5" y="0">생</tspan><tspan class="cls-6" y="0">관</tspan><tspan class="cls-5" y="0">리</tspan><tspan class="cls-6" y="0" xml:space="preserve"> 서비스</tspan><tspan class="cls-5" y="0"> </tspan><tspan class="cls-6" y="0">제</tspan><tspan y="0">공</tspan></text>
  <text id="회사를_대신하여_젊은_판매_" data-name="회사를 대신하여 젊은 판매 " class="cls-4" transform="translate(642.005 215.811)"><tspan class="cls-5" x="0" y="0">회</tspan><tspan class="cls-6" y="0">사를</tspan><tspan class="cls-5" y="0" xml:space="preserve"> 대</tspan><tspan class="cls-6" y="0">신</tspan><tspan class="cls-5" y="0">하</tspan><tspan class="cls-6" y="0">여</tspan><tspan class="cls-5" y="0" xml:space="preserve"> 젊</tspan><tspan class="cls-6" y="0">은</tspan><tspan class="cls-5" y="0"> </tspan><tspan class="cls-6" y="0">판</tspan><tspan y="0">매 </tspan></text>
  <text id="_6" data-name="" class="cls-4" transform="translate(796.215 215.811)"><tspan x="0" y="0"></tspan></text>
  <text id="조직인_블루버드_등이_" data-name="조직인 블루버드 등이 " class="cls-4" transform="translate(642.005 237.805)"><tspan class="cls-5" x="0" y="0">조</tspan><tspan class="cls-6" y="0">직인</tspan><tspan class="cls-5" y="0" xml:space="preserve"> 블</tspan><tspan class="cls-6" y="0">루</tspan><tspan class="cls-5" y="0">버</tspan><tspan class="cls-6" y="0">드</tspan><tspan class="cls-5" y="0" xml:space="preserve"> 등</tspan><tspan y="0">이 </tspan></text>
  <text id="_7" data-name="" class="cls-4" transform="translate(767.165 237.805)"><tspan x="0" y="0"></tspan></text>
  <text id="고객에게_제품_정보_전달_" data-name="고객에게 제품 정보 전달 " class="cls-4" transform="translate(642.005 259.799)"><tspan class="cls-5" x="0" y="0">고</tspan><tspan class="cls-6" y="0">객에</tspan><tspan class="cls-5" y="0">게 </tspan><tspan class="cls-6" y="0">제</tspan><tspan class="cls-5" y="0">품</tspan><tspan class="cls-6" y="0"> </tspan><tspan class="cls-5" y="0">정보</tspan><tspan class="cls-6" y="0"> </tspan><tspan class="cls-5" y="0">전</tspan><tspan y="0">달 </tspan></text>
  <text id="_8" data-name="" class="cls-4" transform="translate(783.545 259.799)"><tspan x="0" y="0"></tspan></text>
  <text id="및_판매활동_수행" data-name="및 판매활동 수행" class="cls-4" transform="translate(642.005 281.793)"><tspan class="cls-5" x="0" y="0">및</tspan><tspan class="cls-6" y="0"> </tspan><tspan class="cls-5" y="0">판</tspan><tspan class="cls-6" y="0">매</tspan><tspan class="cls-5" y="0">활</tspan><tspan class="cls-6" y="0">동</tspan><tspan class="cls-5" y="0"> </tspan><tspan class="cls-6" y="0">수</tspan><tspan y="0">행</tspan></text>
  <text id="방문판매원" class="cls-7" transform="translate(642 151.86)"><tspan class="cls-3" x="0" y="0">방문</tspan><tspan class="cls-9" y="0">판</tspan><tspan class="cls-3" y="0">매</tspan><tspan y="0">원</tspan></text>
  <text id="_9" data-name=" " class="cls-7" transform="translate(709.8 151.86)"><tspan x="0" y="0"> </tspan></text>
  <text id="약_2_200명" data-name="약 2,200명" class="cls-2" transform="translate(642 174.86)"><tspan class="cls-3" x="0" y="0">약 </tspan><tspan class="cls-9" y="0">2</tspan><tspan class="cls-3" y="0">,</tspan><tspan class="cls-9" y="0">200</tspan><tspan y="0">명</tspan></text>
  <text id="케이_서비스_고객을_대상으로_" data-name="케이 서비스 고객을 대상으로 " class="cls-4" transform="translate(204 215.826)"><tspan class="cls-6" x="0" y="0">케이</tspan><tspan class="cls-5" y="0"> </tspan><tspan class="cls-6" y="0">서</tspan><tspan class="cls-5" y="0">비</tspan><tspan class="cls-6" y="0">스</tspan><tspan class="cls-5" y="0"> </tspan><tspan class="cls-6" y="0">고객을 </tspan><tspan class="cls-5" y="0">대</tspan><tspan class="cls-6" y="0">상</tspan><tspan class="cls-5" y="0">으</tspan><tspan y="0">로 </tspan></text>
  <text id="정기적인_매트리스_위생_관리" data-name="정기적인 매트리스 위생 관리" class="cls-4" transform="translate(204 237.82)"><tspan class="cls-6" x="0" y="0">정기적인</tspan><tspan class="cls-5" y="0"> </tspan><tspan class="cls-6" y="0">매</tspan><tspan class="cls-5" y="0">트</tspan><tspan class="cls-6" y="0">리</tspan><tspan class="cls-5" y="0">스</tspan><tspan class="cls-6" y="0" xml:space="preserve"> 위생 </tspan><tspan class="cls-5" y="0">관</tspan><tspan y="0">리</tspan></text>
  <text id="서비스_제공" data-name="서비스 제공" class="cls-4" transform="translate(204 259.814)"><tspan class="cls-6" x="0" y="0">서비스 </tspan><tspan class="cls-5" y="0">제</tspan><tspan y="0">공</tspan></text>
  <text id="홈케어_닥터" data-name="홈케어 닥터" class="cls-7" transform="translate(204 151.86)"><tspan class="cls-3" x="0" y="0">홈케어 닥</tspan><tspan y="0">터</tspan></text>
  <text id="_10" data-name=" " class="cls-7" transform="translate(275.7 151.86)"><tspan x="0" y="0"> </tspan></text>
  <text id="약_1_200명" data-name="약 1,200명" class="cls-2" transform="translate(204 174.86)"><tspan class="cls-3" x="0" y="0">약 </tspan><tspan class="cls-9" y="0">1</tspan><tspan class="cls-3" y="0">,</tspan><tspan class="cls-9" y="0">200</tspan><tspan y="0">명</tspan></text>
  <rect id="사각형_211" data-name="사각형 211" class="cls-10" width="348" height="30" transform="translate(20 76.323)"/>
  <text id="사전서비스" class="cls-11" transform="translate(159.909 97.922)"><tspan class="cls-3" x="0" y="0">사전서비</tspan><tspan y="0">스</tspan></text>
  <rect id="사각형_212" data-name="사각형 212" class="cls-10" width="174" height="30" transform="translate(419.005 76.323)"/>
  <text id="사후서비스" class="cls-11" transform="translate(471.911 97.922)"><tspan class="cls-3" x="0" y="0">사</tspan><tspan class="cls-9" y="0">후</tspan><tspan class="cls-3" y="0">서비</tspan><tspan y="0">스</tspan></text>
  <rect id="사각형_213" data-name="사각형 213" class="cls-10" width="174" height="30" transform="translate(642 76.324)"/>
  <text id="판매" class="cls-11" transform="translate(715.445 97.922)"><tspan class="cls-3" x="0" y="0">판</tspan><tspan y="0">매</tspan></text>
  <line id="선_463" data-name="선 463" class="cls-12" x2="348" transform="translate(20 123.94)"/>
  <line id="선_464" data-name="선 464" class="cls-12" y1="17.377" transform="translate(194 106.421)"/>
  <line id="선_465" data-name="선 465" class="cls-12" x2="174" transform="translate(419.006 123.94)"/>
  <line id="선_466" data-name="선 466" class="cls-12" y1="17.377" transform="translate(506.006 106.421)"/>
  <line id="선_467" data-name="선 467" class="cls-12" x2="174" transform="translate(642 123.94)"/>
  <line id="선_468" data-name="선 468" class="cls-12" y1="17.377" transform="translate(729 106.421)"/>
  <line id="선_469" data-name="선 469" class="cls-12" x2="796" transform="translate(20 301.721)"/>
  <line id="선_470" data-name="선 470" class="cls-13" y1="148.5" transform="translate(390.081 126.19)"/>
  <path id="패스_452" data-name="패스 452" class="cls-14" d="M3672.521,1845.79h0m0,153h0" transform="translate(-3282.44 -1721.1)"/>
  <line id="선_471" data-name="선 471" class="cls-13" y1="148.5" transform="translate(621.931 126.19)"/>
  <path id="패스_453" data-name="패스 453" class="cls-14" d="M3904.371,1845.79h0m0,153h0" transform="translate(-3282.44 -1721.1)"/>
</svg>
