<svg id="구성_요소_126_1" data-name="구성 요소 126 – 1" xmlns="http://www.w3.org/2000/svg" width="836" height="349.125" viewBox="0 0 836 349.125">
  <defs>
    <style>
      .cls-1, .cls-2, .cls-3, .cls-8, .cls-9 {
        fill: none;
      }

      .cls-1 {
        stroke: #969697;
      }

      .cls-2, .cls-3 {
        stroke: #3e3a39;
        stroke-linecap: round;
        stroke-linejoin: round;
      }

      .cls-2 {
        stroke-dasharray: 0 2.989;
      }

      .cls-4 {
        fill: #d6a803;
      }

      .cls-5 {
        fill: #fff;
      }

      .cls-6 {
        fill: #1e2323;
      }

      .cls-7 {
        fill: #685239;
      }

      .cls-8 {
        stroke: #685239;
        stroke-width: 0.5px;
      }

      .cls-9 {
        stroke: #5e6366;
      }

      .cls-10 {
        fill: #333;
      }
    </style>
  </defs>
  <line id="선_459" data-name="선 459" class="cls-1" x2="836" transform="translate(0 348.625)"/>
  <line id="선_460" data-name="선 460" class="cls-2" y1="270.516" transform="translate(284.593 51.479)"/>
  <path id="패스_450" data-name="패스 450" class="cls-3" d="M3567.033,2330.171h0m0,275h0" transform="translate(-3282.44 -2280.186)"/>
  <line id="선_461" data-name="선 461" class="cls-2" y1="270.516" transform="translate(578.051 51.479)"/>
  <path id="패스_451" data-name="패스 451" class="cls-3" d="M3860.491,2330.171h0m0,275h0" transform="translate(-3282.44 -2280.186)"/>
  <rect id="사각형_197" data-name="사각형 197" class="cls-4" width="253.375" height="27" transform="translate(293.458 49.485)"/>
  <path id="패스_23881" data-name="패스 23881" class="cls-5" d="M11.835-12.345h-1.23v9.87h1.23ZM8.895-5.64a4.991,4.991,0,0,1-3.36-4.59V-11.6H4.3v1.365A5.243,5.243,0,0,1,.93-5.4l.645,1.005a6.036,6.036,0,0,0,3.36-3.6A5.8,5.8,0,0,0,8.25-4.665ZM4.41-.2V-3.39H3.18V.81h9.06V-.2ZM26.46-5.61H24.39a23.882,23.882,0,0,0,.405-4.875V-11.49H15.84v1.02h7.74a23,23,0,0,1-.42,4.86H14.31v1.005h3.12V1.1h1.23v-5.7h3.375V1.1H23.25v-5.7h3.21Zm5.49-1.845.18,1.05,8.13-.435a27.956,27.956,0,0,1-.48,3.18l1.215.15a27.717,27.717,0,0,0,.57-6.255v-1.26l-.7-.015H32.31v1h8.04v.27c0,.615,0,1.26-.03,1.965Zm4.875,5.73V-5.22H35.6v3.495h-4.74v1H43.02v-1Zm9.615-8.31h5.145V-11.07h-6.36V-2.2h1.08a34.043,34.043,0,0,0,6.54-.465L52.71-3.7a31.432,31.432,0,0,1-6.27.45Zm7.695-2.31V1.14h1.23V-12.345ZM69.15-6.21a4.428,4.428,0,0,1-3.39-3.96v-.3h3.045v-1h-7.38v1H64.5v.3A4.576,4.576,0,0,1,61.08-6l.63.975a5.611,5.611,0,0,0,3.435-3.21,5.517,5.517,0,0,0,3.4,2.97ZM70.74-.075H64.5v-1.74h6.24Zm0-2.7H64.5V-4.41H63.285V.93h8.67V-4.41H70.74Zm-.015-9.57v7.29h1.23v-7.29Zm4.83,5.49c2.205-.27,4.23-1.26,4.965-2.745.75,1.485,2.76,2.475,4.965,2.745l.435-.975c-2.355-.27-4.5-1.425-4.6-2.91H85.5v-.99H75.555v.99h4.17c-.1,1.485-2.25,2.64-4.6,2.91Zm8.31,5.58c0,.9-1.26,1.425-3.36,1.425-2.115,0-3.36-.525-3.36-1.425s1.245-1.41,3.36-1.41C82.605-2.685,83.865-2.175,83.865-1.275Zm2.73-3.78v-.99H74.43v.99h5.46v1.44c-2.5.12-3.99.945-3.99,2.34,0,1.53,1.74,2.37,4.62,2.37,2.865,0,4.59-.84,4.59-2.37,0-1.4-1.47-2.22-3.975-2.34v-1.44ZM98.01-4.8a33.452,33.452,0,0,0,.375-5.34v-.735h-6.8V-9.87h5.6a28.53,28.53,0,0,1-.4,4.95ZM94.92-7.035H93.705v4.14c-1.005.03-2,.045-2.85.045l.135,1.02a54.827,54.827,0,0,0,8.34-.51l-.075-.9c-1.365.18-2.865.255-4.335.315Zm8.535.315H101.31v-5.625h-1.23V1.11h1.23V-5.685h2.145Zm8.22-2.13v1h2.655V-4.32h1.245v-8.01H114.33v3.48Zm.75,3.06a4.632,4.632,0,0,1-3.27-4.11v-.465h2.955v-.99h-7.185v.99h3V-9.9a4.96,4.96,0,0,1-3.39,4.485l.645.975a5.823,5.823,0,0,0,3.39-3.42,5.527,5.527,0,0,0,3.24,3.03ZM111.135.15c-2.025,0-3.255-.57-3.255-1.545s1.23-1.56,3.255-1.56,3.255.585,3.255,1.56S113.16.15,111.135.15Zm0-4.05c-2.76,0-4.485.915-4.485,2.5s1.725,2.5,4.485,2.5,4.47-.915,4.47-2.5S113.895-3.9,111.135-3.9Z" transform="translate(303.458 69.584)"/>
  <path id="패스_23882" data-name="패스 23882" class="cls-6" d="M7.98-8.76v1.275h2.46v5.01h1.545v-9.9H10.44V-8.76Zm.84,3.165A4.454,4.454,0,0,1,5.64-9.66v-.465H8.46V-11.37H1.215v1.245H4.08v.465A4.714,4.714,0,0,1,.75-5.31L1.545-4.1A5.536,5.536,0,0,0,4.89-7.3a5.212,5.212,0,0,0,3.165,2.91ZM4.755-.36V-3.33H3.21V.9h9.12V-.36Zm21.78-5.4V-7.005H24.7a18.041,18.041,0,0,0,.3-3.735v-1.035H15.8v1.245H23.49a16.312,16.312,0,0,1-.33,3.525H14.265V-5.76H19.6v2.22H15.51V-2.3h8.01v3.45h1.545V-3.54h-3.9V-5.76ZM31.365,0h6.3V-1.425h-2.16V-11.04H34.2a6.782,6.782,0,0,1-2.4.84v1.1h1.98v7.68H31.365ZM42.63.2c2.13,0,3.57-1.26,3.57-2.9a3.244,3.244,0,0,0-1.86-2.925V-5.7a3.43,3.43,0,0,0,1.455-2.6,2.851,2.851,0,0,0-3.12-2.925,2.875,2.875,0,0,0-3.15,2.85A3.121,3.121,0,0,0,41.01-5.79v.075a3.381,3.381,0,0,0-1.98,2.97C39.03-1.035,40.56.2,42.63.2Zm.72-6.33c-1.23-.48-2.28-1.035-2.28-2.235a1.512,1.512,0,0,1,1.575-1.6A1.638,1.638,0,0,1,44.34-8.19,2.8,2.8,0,0,1,43.35-6.135ZM42.66-1.05a1.933,1.933,0,0,1-2.1-1.86,2.817,2.817,0,0,1,1.29-2.31c1.5.615,2.715,1.125,2.715,2.475A1.708,1.708,0,0,1,42.66-1.05Zm5.2-9.63v1.26h3.8a7.935,7.935,0,0,1-4.365,6.645l.9,1.1c3.81-2.19,4.995-5.385,4.995-9Zm9.555-1.71v5.295H55.875V-12.03H54.42V.525h1.455v-6.36H57.42v6.99h1.47V-12.39ZM71.175-8.76v1.275h2.46v5.01H75.18v-9.9H73.635V-8.76Zm.84,3.165a4.454,4.454,0,0,1-3.18-4.065v-.465h2.82V-11.37H64.41v1.245h2.865v.465a4.714,4.714,0,0,1-3.33,4.35L64.74-4.1A5.536,5.536,0,0,0,68.085-7.3a5.212,5.212,0,0,0,3.165,2.91ZM67.95-.36V-3.33H66.4V.9h9.12V-.36ZM86.625-8.13H80.52v-2.43h6.105Zm1.515-3.66H79V-6.9H88.14ZM80.49-3.015H78.945V.9h9.42V-.36H80.49Zm-3.045-2.55V-4.32h5.49v2.535H84.48V-4.32h5.25V-5.565Zm26.01-4.14a28.608,28.608,0,0,1-.48,5.955l1.545.18A30.739,30.739,0,0,0,105-9.7V-11.13H95.25v1.26h8.2ZM101.73-1.89V-6.27H100.2v4.38H98.385V-6.27h-1.53v4.38h-2.82V-.615h12.24V-1.89Zm11.94-9c2.01,0,3.225.51,3.225,1.425s-1.215,1.41-3.225,1.41c-2.025,0-3.24-.51-3.24-1.41S111.645-10.89,113.67-10.89Zm0,4.05c2.94,0,4.83-.99,4.83-2.625s-1.89-2.625-4.83-2.625c-2.955,0-4.83.99-4.83,2.625S110.715-6.84,113.67-6.84Zm1.485,3.615h-3V-4.71h3ZM119.79-4.71V-5.955H107.52V-4.71h3.09v1.485H108.9V-2h7.845v3.15h1.545v-4.38H116.7V-4.71Zm2.025-6.255V-9.7h4.83c-.27,3.12-1.95,5.505-5.5,7.215l.825,1.23c4.65-2.25,6.27-5.67,6.27-9.705Zm8.865-1.425V1.155h1.545V-12.39Zm11.025,5.8a20.224,20.224,0,0,0,.33-4v-.78h-6.81v1.26h5.295a19.263,19.263,0,0,1-.33,3.36Zm1.125.675a38.028,38.028,0,0,1-4.2.36V-8.28H137.1v2.775c-.96.03-1.89.03-2.7.03l.165,1.26a50.738,50.738,0,0,0,8.37-.57ZM138-3.12h-1.56V.9h9.21V-.36H138Zm7.215-4.98v-4.29h-1.56V-2.22h1.56V-6.825h1.8V-8.1Zm8.955-2.925c2.1,0,3.225.405,3.225,1.185,0,.765-1.125,1.17-3.225,1.17s-3.225-.405-3.225-1.17C150.945-10.62,152.07-11.025,154.17-11.025Zm0,3.51c3.03,0,4.83-.825,4.83-2.325,0-1.515-1.8-2.34-4.83-2.34s-4.83.825-4.83,2.34C149.34-8.34,151.125-7.515,154.17-7.515Zm-3.12,6.24h7.71v-3.24h-9.27v1.17h7.755v.975H149.52V1.035h9.63V-.15h-8.1ZM148.035-6.72v1.23h12.27V-6.72ZM170.73,0c-2.04,0-3.1-.33-3.1-1.05,0-.69,1.065-1.035,3.1-1.035,2.055,0,3.12.345,3.12,1.035C173.85-.33,172.785,0,170.73,0Zm0-3.225c-2.94,0-4.665.75-4.665,2.175s1.725,2.2,4.665,2.2S175.4.39,175.4-1.05,173.685-3.225,170.73-3.225Zm.795-2.085V-6.42H175.5V-7.605h-7.77v-1.05h7.35V-9.81h-7.35v-1.02h7.68v-1.185h-9.225v5.6h3.78v1.11H164.61v1.245h12.255V-5.31Zm14.625-5.535h-3.225v-1.56H181.38v1.56h-3.225v1.23h7.995Zm-5.8,4.425c0-.855.735-1.365,1.8-1.365s1.815.51,1.815,1.365-.735,1.365-1.815,1.365S180.345-5.565,180.345-6.42Zm5.085,0c0-1.53-1.335-2.565-3.285-2.565S178.86-7.95,178.86-6.42c0,1.545,1.35,2.565,3.285,2.565S185.43-4.875,185.43-6.42Zm-3.735,3.4h-1.56V.9h9.12V-.36H181.7Zm7.02-5.055v-4.32H187.17V-2.235h1.545V-6.8h1.92V-8.07Z" transform="translate(303.458 101.685)"/>
  <path id="패스_23883" data-name="패스 23883" class="cls-6" d="M9.12-6.435A4.219,4.219,0,0,1,5.8-10.275v-.06H8.7V-11.58H1.29v1.245H4.23v.06A4.4,4.4,0,0,1,.87-6.21l.78,1.215a5.469,5.469,0,0,0,3.39-3,5.353,5.353,0,0,0,3.33,2.76ZM10.4-.255H4.605v-1.5H10.4Zm0-2.715H4.605V-4.425H3.075V.99h8.85V-4.425H10.4Zm-.015-9.435V-5.04h1.545v-7.365Zm5.04,5.58c2.37-.255,4.23-1.23,4.965-2.625.72,1.395,2.58,2.37,4.965,2.625l.54-1.215c-2.505-.255-4.245-1.305-4.455-2.52H25.4v-1.245H15.39v1.245h3.93c-.21,1.215-1.95,2.265-4.455,2.52Zm8.04,5.58c0,.78-1.125,1.215-3.1,1.215s-3.09-.435-3.09-1.215c0-.81,1.11-1.23,3.09-1.23S23.46-2.055,23.46-1.245ZM26.505-4.9v-1.23H14.25V-4.9H19.6V-3.66c-2.46.15-3.915,1.005-3.915,2.415,0,1.53,1.755,2.4,4.665,2.4s4.665-.87,4.665-2.4c0-1.41-1.425-2.25-3.87-2.4V-4.9Zm15.24-.33H33.93v-1.86h7.41V-8.31H33.93v-1.74h7.71V-11.3H32.355V-3.99h9.39ZM30.84-1.77V-.51H43.125V-1.77ZM46.245-6.045h3.3v-4.92H44.73V-9.72h3.33v2.43h-3.3V-2.1h.93a27.983,27.983,0,0,0,5.04-.36L50.6-3.735a26.422,26.422,0,0,1-4.35.36Zm5.43-1.6h-1.53v1.275h1.53V.48h1.44V-12.09h-1.44Zm2.745-4.74V1.155h1.47V-12.39Zm13.005-.015V1.185h1.56v-13.59ZM61.77-11.4c-2.01,0-3.48,1.86-3.48,4.77,0,2.94,1.47,4.785,3.48,4.785,2.025,0,3.495-1.845,3.495-4.785C65.265-9.54,63.8-11.4,61.77-11.4Zm0,1.395c1.185,0,2.01,1.275,2.01,3.375,0,2.13-.825,3.4-2.01,3.4-1.17,0-1.995-1.275-1.995-3.4C59.775-8.73,60.6-10.005,61.77-10.005Zm20.7-2.385H80.925v7.965H82.47ZM79.665-7.26a29.3,29.3,0,0,1-5.97.585v-4.86H72.15V-5.4h1.125a31.783,31.783,0,0,0,6.57-.6ZM77.94-.09c-1.9,0-3.045-.525-3.045-1.47,0-.93,1.14-1.455,3.045-1.455,1.92,0,3.045.525,3.045,1.455C80.985-.615,79.86-.09,77.94-.09Zm0-4.17c-2.82,0-4.59,1.02-4.59,2.7,0,1.7,1.77,2.715,4.59,2.715S82.53.135,82.53-1.56C82.53-3.24,80.76-4.26,77.94-4.26Z" transform="translate(303.458 121.679)"/>
  <path id="패스_23884" data-name="패스 23884" class="cls-6" d="M3.71-4.256a.738.738,0,0,0,.728-.756.725.725,0,0,0-.728-.77A.722.722,0,0,0,3-5.012.736.736,0,0,0,3.71-4.256Zm10.836-5h2.478v-.63H11.256v.63h2.576v1.442A6.707,6.707,0,0,1,10.976-2.17l.49.56A6.816,6.816,0,0,0,14.2-5.838,6.427,6.427,0,0,0,16.856-1.9l.476-.56a6.328,6.328,0,0,1-2.786-5.348Zm3.808,2.38h-2.31v.644h2.31V.294h.714v-11.41h-.714Zm2.492-4.578V.98h.728V-11.452Zm10.248,4.1H27.636v-3.066h3.458Zm-4.186,0H24.864v.616h9V-7.35h-2.03v-3.066h2.058v-.616H24.85v.616h2.058Zm5.978,7.5H25.9V-2.38h6.986ZM35-4.7v-.63H23.758v.63h5.264V-3H25.186V.784h8.428V-3H29.75V-4.7ZM48.356-8.638a23.22,23.22,0,0,1-.448,5.292l.742.1a24.919,24.919,0,0,0,.434-5.39V-10.08H40.558v.616h7.8Zm-2.2,7.084V-5.768H45.43v4.214H43.092V-5.768h-.728v4.214h-3.01v.63H50.6v-.63Zm11.48-8.974c2.156,0,3.556.658,3.556,1.722s-1.4,1.736-3.556,1.736S54.11-7.742,54.11-8.806,55.5-10.528,57.638-10.528Zm0,4.06c2.674,0,4.312-.854,4.312-2.338s-1.638-2.324-4.312-2.324c-2.646,0-4.284.84-4.284,2.324S54.992-6.468,57.638-6.468Zm1.75,3.542H55.93V-4.718h3.458Zm3.878-1.792v-.63H52.038v.63h3.15v1.792h-1.9v.63h7.84V.966h.742V-2.926H60.13V-4.718Z" transform="translate(303.458 146.685)"/>
  <path id="패스_23885" data-name="패스 23885" class="cls-6" d="M3.71-4.256a.738.738,0,0,0,.728-.756.725.725,0,0,0-.728-.77A.722.722,0,0,0,3-5.012.736.736,0,0,0,3.71-4.256Zm11.466-.322h3.038v3.332H15.176Zm-.224-5H18.41v4.368H14.952Zm4,8.33V-4.578h2.268v-.63H19.152V-9.576h2.072v-.63H12.138v.63h2.086v4.368H12.152v.63h2.282v3.332H11.088v.63H22.372v-.63Zm5.894-4.8c1.792-.308,3.878-1.3,4.536-2.856.672,1.54,2.758,2.548,4.536,2.856l.294-.6c-1.876-.294-4.382-1.54-4.382-3.3v-.21h4.158v-.616H24.808v.616h4.158v.21c0,1.778-2.506,3.01-4.41,3.3ZM26-2.828h-.742v3.5h8.526V.042H26ZM23.744-4.942v.616h5.32V-1.54h.742V-4.326h5.236v-.616ZM43.5-10.3h-.742v2.478A6.922,6.922,0,0,1,39.424-2.31l.476.588a7.536,7.536,0,0,0,3.234-4.452,7.264,7.264,0,0,0,3.29,4.228l.434-.6A6.551,6.551,0,0,1,43.5-7.826Zm5.236-1.148v4.424H45.528v.616h3.206V.994h.742V-11.452Zm12.642-.014V.994h.742v-12.46Zm-8.582,1.092v8.3h5.712v-8.3h-.742V-6.93H53.536v-3.444Zm.742,4.06h4.228V-2.7H53.536ZM75.306-5c-1.764-.35-4.634-2.226-4.634-4.522v-.994H69.9v.994C69.9-7.21,67.074-5.362,65.3-5l.35.63A7.191,7.191,0,0,0,70.294-8.12a7.205,7.205,0,0,0,4.662,3.752ZM64.694-1.428V-.8H75.978v-.63ZM81.046-10.08v.63h4.97c-.2,3.066-2.086,5.712-5.5,7.364l.406.616c4-1.974,5.838-5.138,5.838-8.61Zm8.61-1.372V.98H90.4V-11.452Zm13.9,3.794c-1.918-.238-4.592-1.414-4.592-3.15V-11.4H98.21v.588c0,1.736-2.674,2.912-4.592,3.15l.266.588c1.778-.266,3.962-1.176,4.7-2.646.728,1.47,2.9,2.38,4.69,2.646Zm.644,2.2v-.616H92.96v.616h5.25v1.5H94.374v.6h7.616v1.414H94.4V.8h8.722V.182H95.13V-1.372h7.588v-2.59H98.952v-1.5Zm13.342-3.178a23.22,23.22,0,0,1-.448,5.292l.742.1a24.919,24.919,0,0,0,.434-5.39V-10.08h-8.526v.616h7.8Zm-2.2,7.084V-5.768h-.728v4.214H112.28V-5.768h-.728v4.214h-3.01v.63h11.242v-.63Zm11.48-8.974c2.156,0,3.556.658,3.556,1.722s-1.4,1.736-3.556,1.736S123.3-7.742,123.3-8.806,124.684-10.528,126.826-10.528Zm0,4.06c2.674,0,4.312-.854,4.312-2.338s-1.638-2.324-4.312-2.324c-2.646,0-4.284.84-4.284,2.324S124.18-6.468,126.826-6.468Zm1.75,3.542h-3.458V-4.718h3.458Zm3.878-1.792v-.63H121.226v.63h3.15v1.792h-1.9v.63h7.84V.966h.742V-2.926h-1.736V-4.718Z" transform="translate(303.458 171.689)"/>
  <path id="패스_23886" data-name="패스 23886" class="cls-6" d="M3.71-4.256a.738.738,0,0,0,.728-.756.725.725,0,0,0-.728-.77A.722.722,0,0,0,3-5.012.736.736,0,0,0,3.71-4.256Zm10.864-5.978h-.7v2.548A6.407,6.407,0,0,1,10.99-2.38l.49.56a6.755,6.755,0,0,0,2.758-4.074A6.574,6.574,0,0,0,16.9-2.086l.476-.574a6.176,6.176,0,0,1-2.8-5.04Zm3.752,3.4H15.988v.63h2.338V.322h.714V-11.144h-.714Zm2.548-4.62V.98h.714V-11.452Zm13.006-.014h-.742v6.482h.742Zm-9.03,3.22a2.206,2.206,0,0,1,2.408-2.086,2.206,2.206,0,0,1,2.408,2.086A2.2,2.2,0,0,1,27.258-6.16,2.2,2.2,0,0,1,24.85-8.246Zm5.544,0c0-1.61-1.3-2.716-3.136-2.716s-3.136,1.106-3.136,2.716,1.3,2.7,3.136,2.7S30.394-6.636,30.394-8.246ZM26.754.168V-1.554H33.88V-4.312h-7.9V-3.7h7.168v1.554H26.026V.784H34.37V.168ZM37.394-3.78c1.652-.378,3.934-1.68,4.69-3.528.77,1.834,3.066,3.122,4.732,3.5l.322-.6c-1.778-.308-4.676-2.03-4.676-4.172v-.882h4.326v-.63H37.38v.63h4.326v.882c0,2.142-2.884,3.892-4.648,4.214ZM36.442-1.4v.63H47.726V-1.4Zm24.6-7.238a23.22,23.22,0,0,1-.448,5.292l.742.1a24.918,24.918,0,0,0,.434-5.39V-10.08H53.242v.616h7.8Zm-2.2,7.084V-5.768h-.728v4.214H55.776V-5.768h-.728v4.214h-3.01v.63H63.28v-.63Zm11.466-8.974c2.156,0,3.556.658,3.556,1.722s-1.4,1.736-3.556,1.736S66.78-7.742,66.78-8.806,68.166-10.528,70.308-10.528Zm0,4.06c2.674,0,4.312-.854,4.312-2.338s-1.638-2.324-4.312-2.324c-2.646,0-4.284.84-4.284,2.324S67.662-6.468,70.308-6.468Zm1.75,3.542H68.6V-4.718h3.458Zm3.878-1.792v-.63H64.708v.63h3.15v1.792h-1.9v.63h7.84V.966h.742V-2.926H72.8V-4.718Z" transform="translate(303.458 196.693)"/>
  <rect id="사각형_198" data-name="사각형 198" class="cls-4" width="253.375" height="30" transform="translate(293.458 216.805)"/>
  <path id="패스_23887" data-name="패스 23887" class="cls-5" d="M1.89-7.455,2.07-6.4,10.2-6.84a27.956,27.956,0,0,1-.48,3.18l1.215.15a27.717,27.717,0,0,0,.57-6.255v-1.26l-.7-.015H2.25v1h8.04v.27c0,.615,0,1.26-.03,1.965Zm4.875,5.73V-5.22H5.535v3.495H.8v1H12.96v-1Zm9.615-8.31h5.145V-11.07h-6.36V-2.2h1.08a34.043,34.043,0,0,0,6.54-.465L22.65-3.7a31.432,31.432,0,0,1-6.27.45Zm7.695-2.31V1.14h1.23V-12.345Zm18.135.015H41.025V-2.28H42.21Zm-6.7,6.465h-2.9v-4.23h2.9Zm1.14-1.68h1.83V-2.67H39.63v-9.4H38.475V-8.55h-1.83v-2.505h-5.19V-4.9h5.19ZM34.665-.2v-3.33h-1.23V.81H42.6V-.2Zm16.4-1.38V-4.35h4.11V-5.355H47.16V-7.38h7.575v-.975H47.16v-1.89h7.875v-1h-9.12v6.9H49.83v2.775H44.34v1.02H56.565v-1.02ZM68.9-12.345h-1.23v8.28H68.9ZM66.03-6.315a36.475,36.475,0,0,1-6.27.42v-1.89h4.875v-3.72h-6.12V-10.5h4.9v1.77H58.56v3.84h1.08a37.733,37.733,0,0,0,6.525-.435ZM64.44.12c-2.04,0-3.27-.54-3.27-1.47,0-.915,1.23-1.455,3.27-1.455,2.07,0,3.3.54,3.3,1.455C67.74-.42,66.51.12,64.44.12Zm0-3.9c-2.79,0-4.5.885-4.5,2.43,0,1.56,1.71,2.445,4.5,2.445S68.97.21,68.97-1.35C68.97-2.895,67.245-3.78,64.44-3.78ZM78.375-9.765h2.4v-1H74.64v1h2.55V-8.55A7.021,7.021,0,0,1,74.265-2.5l.75.915A6.965,6.965,0,0,0,77.79-5.85a6.433,6.433,0,0,0,2.7,3.93l.75-.9a6.518,6.518,0,0,1-2.865-5.73Zm3.6,2.25h-2.22V-6.51h2.22V.405h1.17v-12.45h-1.17Zm2.7-4.845V1.1H85.86V-12.36Zm9.96,10.755v-3.45h4.1v-.99H90.705V-10.26H98.6v-1h-9.12v6.21H93.39v3.45H87.915v1.02H100.14v-1.02Z" transform="translate(303.458 238.405)"/>
  <path id="패스_23888" data-name="패스 23888" class="cls-6" d="M10.44-2.31h1.545V-12.39H10.44v3.045H7.7V-8.07H10.44ZM8.76-5.64A4.613,4.613,0,0,1,5.595-9.96v-1.605H4.02V-9.99A4.879,4.879,0,0,1,.735-5.325l.825,1.2A5.724,5.724,0,0,0,4.845-7.44a5.343,5.343,0,0,0,3.09,3ZM4.725-.36V-3.375H3.165V.9H12.3V-.36ZM18.51-3.4H16.17v-3.33h2.34Zm0-4.56H16.17v-3.18H14.715v9H19.95v-9H18.51Zm5.85-4.44v5.3H22.815v-5.025H21.36V.525h1.455V-5.85H24.36v7h1.47V-12.39Zm6.285,2.325H37.1v4.02h-6.45ZM34.65-1.77V-4.83h3.96v-6.48H29.13v6.48H33.1v3.06h-5.34V-.51h12.27V-1.77ZM45.1-2.685H50.97V-.24H45.1ZM43.59.99h8.9V-3.915h-8.9ZM46.6-6.465H43.41V-8.43H46.6ZM50.94-12.39v3.315H48.12V-11.64H46.6v2.01H43.41v-1.995H41.88V-5.22h6.24v-2.6h2.82v3.27h1.545v-7.86ZM55.8-7.575l.21,1.3L64-6.7a24.247,24.247,0,0,1-.465,3l1.53.18a27.677,27.677,0,0,0,.585-6.39V-11.16H56.19v1.245h7.935c0,.615,0,1.29-.03,2.025Zm5.085,5.76v-3.4h-1.56v3.4H54.75V-.54H67V-1.815Zm9.75-8.055h4.92v-1.275h-6.45V-2.13H70.23a34.122,34.122,0,0,0,6.525-.435l-.165-1.29a31.078,31.078,0,0,1-5.955.435Zm7.215-2.535V1.185h1.56v-13.59ZM83.655-8.3a1.938,1.938,0,0,1,2.13-1.935A1.926,1.926,0,0,1,87.9-8.3a1.915,1.915,0,0,1-2.115,1.92A1.927,1.927,0,0,1,83.655-8.3Zm2.91,3.18A3.2,3.2,0,0,0,89.4-8.3a3.321,3.321,0,0,0-3.615-3.255A3.334,3.334,0,0,0,82.155-8.3,3.244,3.244,0,0,0,85.02-5.1v2.13c-1.215.03-2.385.03-3.4.03l.21,1.275a49.373,49.373,0,0,0,8.265-.51l-.135-1.14c-1.08.15-2.235.24-3.39.285ZM94.29-6.93h-2v-5.46H90.75V1.14h1.545V-5.64h2ZM98.88,0h6.3V-1.425h-2.16V-11.04h-1.305a6.782,6.782,0,0,1-2.4.84v1.1h1.98v7.68H98.88Zm9.21-5.7a1.157,1.157,0,0,0,1.155-1.2,1.174,1.174,0,0,0-1.155-1.23,1.174,1.174,0,0,0-1.155,1.23A1.157,1.157,0,0,0,108.09-5.7Zm0,5.895A1.148,1.148,0,0,0,109.245-1a1.174,1.174,0,0,0-1.155-1.23A1.174,1.174,0,0,0,106.935-1,1.148,1.148,0,0,0,108.09.2Zm3.225-.2h6.3V-1.425h-2.16V-11.04H114.15a6.782,6.782,0,0,1-2.4.84v1.1h1.98v7.68h-2.415Zm12.7-9.675h2.34V-3.6h-2.34Zm-1.44,7.3h5.22V-10.9h-5.22Zm9.645-10.02v5.28H130.68v-5.025h-1.455V.51h1.455V-5.85h1.545V1.14h1.47V-12.39Zm14.565,0h-1.545v8.25h1.545Zm-2.775,6.465c-2.1-.585-3.33-2.085-3.33-3.675v-.015h2.91v-1.23h-2.91V-12.39H139.14v1.545H136.2v1.23h2.94V-9.6a4.317,4.317,0,0,1-3.33,3.99l.735,1.185a5.271,5.271,0,0,0,3.39-2.94,5.282,5.282,0,0,0,3.375,2.64ZM142.26-.045c-1.935,0-3.045-.465-3.045-1.32s1.11-1.32,3.045-1.32,3.045.465,3.045,1.32S144.2-.045,142.26-.045Zm0-3.84c-2.85,0-4.59.93-4.59,2.52s1.74,2.52,4.59,2.52,4.59-.93,4.59-2.52S145.11-3.885,142.26-3.885Z" transform="translate(303.458 272.004)"/>
  <path id="패스_23889" data-name="패스 23889" class="cls-6" d="M3.71-4.256a.738.738,0,0,0,.728-.756.725.725,0,0,0-.728-.77A.722.722,0,0,0,3-5.012.736.736,0,0,0,3.71-4.256ZM13.832.182a3.233,3.233,0,0,0,3.192-3.458c0-2.268-1.344-3.276-3.024-3.276a3.147,3.147,0,0,0-1.708.49l.294-3.43H16.52v-.714H11.858l-.35,4.662.532.322a2.959,2.959,0,0,1,1.806-.644,2.312,2.312,0,0,1,2.338,2.618A2.5,2.5,0,0,1,13.8-.518a3.436,3.436,0,0,1-2.674-1.2l-.448.574A4.2,4.2,0,0,0,13.832.182ZM18.858-9.8v.63h4.074a7.989,7.989,0,0,1-4.466,6.86l.448.546A8.7,8.7,0,0,0,23.66-9.8Zm9.282-1.652v5.18H26.082v-4.844h-.714V.308h.714v-5.95H28.14V.98h.714V-11.452Zm9.534,6.006V-4.9H40.32v.84h.742v-7.378H40.32v5.992Zm-2.618-5.18c1.4,0,2.324.532,2.324,1.316s-.924,1.316-2.324,1.316-2.338-.532-2.338-1.316S33.642-10.626,35.056-10.626Zm0,3.178c1.834,0,3.038-.7,3.038-1.862s-1.2-1.862-3.038-1.862-3.038.7-3.038,1.862S33.208-7.448,35.056-7.448ZM34.608-4h.742V-6.062c1.288-.07,2.618-.168,3.864-.364l-.042-.518A72.079,72.079,0,0,1,31-6.594l.112.616c1.064,0,2.254-.014,3.5-.056ZM33.712.21V-1.176h7.35v-2.38H32.956V-3h7.378v1.274H33V.8h8.568V.21Zm18.55.14c-2.128,0-3.486-.6-3.486-1.61s1.358-1.61,3.486-1.61,3.486.6,3.486,1.61S54.39.35,52.262.35Zm0-3.822c-2.632,0-4.228.8-4.228,2.212S49.63.952,52.262.952,56.49.168,56.49-1.26,54.894-3.472,52.262-3.472Zm.35-1.694V-6.832h3.934v-.63H48.818v-2.786h7.63v-.63H48.09v4.046h3.794v1.666H46.648v.63H57.89v-.63Zm7.742-2.366A2.346,2.346,0,0,1,62.8-9.884a2.339,2.339,0,0,1,2.422,2.352A2.339,2.339,0,0,1,62.8-5.18,2.346,2.346,0,0,1,60.354-7.532Zm5.6,0a2.973,2.973,0,0,0-3.15-3.01,2.969,2.969,0,0,0-3.164,3.01A2.977,2.977,0,0,0,62.8-4.522,2.981,2.981,0,0,0,65.954-7.532ZM62.048-3.178h-.742V.672h8.2V.042H62.048ZM68.894-7.56v-3.906h-.742V-2.24h.742V-6.916H70.84V-7.56ZM85.3-11.452h-.714v9.324H85.3ZM79.548-5.306H76.23V-9.66h3.318Zm.7-1.918h2.058v4.746h.714v-8.694h-.714v3.318H80.248v-2.408H75.53V-4.7h4.718ZM78.092.042V-3.3H77.35V.672h8.372V.042ZM93.548-1.3V-4.2H97.5v-.616H89.838V-7.042H97.1v-.616H89.838V-9.73H97.37v-.63H89.082V-4.2h3.724v2.9h-5.25v.63H98.84V-1.3Zm16.814-10.15h-.742v7.714h.742Zm-2.534,5.726a34.161,34.161,0,0,1-5.978.42h-.224V-7.42h4.83v-3.22h-5.6v.63h4.872v1.974H100.9v3.36h.952a35.218,35.218,0,0,0,6.062-.42ZM106.3.336c-2.044,0-3.374-.616-3.374-1.6s1.33-1.582,3.374-1.582c2.086,0,3.4.6,3.4,1.582S108.388.336,106.3.336Zm0-3.794c-2.562,0-4.1.8-4.1,2.2s1.54,2.2,4.1,2.2c2.59,0,4.144-.784,4.144-2.2S108.892-3.458,106.3-3.458Zm19.628-7.994h-.742v9.184h.742Zm-2.6,6.664c-1.736-.6-3.276-2.114-3.276-3.92V-9.716h3.038v-.63h-6.832v.63h3.052v1.008A4.71,4.71,0,0,1,116.06-4.55l.392.588a5.423,5.423,0,0,0,3.248-3.3,5.3,5.3,0,0,0,3.262,3.052ZM118.86.042V-3.15h-.742V.672h8.232V.042Zm17.332-7.308h2v3.724h.714v-7.91h-.714V-7.9h-2v-3.318h-.714V-4h.714ZM134.9-9.842h-2.856v-1.526h-.742v1.526h-2.87v.616H134.9Zm-5.18,3.5c0-.882.8-1.5,1.946-1.5,1.176,0,1.96.616,1.96,1.512s-.784,1.512-1.96,1.512S129.724-5.432,129.724-6.342Zm4.592,0c0-1.274-1.064-2.086-2.646-2.086-1.554,0-2.618.812-2.618,2.1s1.064,2.1,2.618,2.1C133.252-4.228,134.316-5.04,134.316-6.342ZM134.9.35c-2.044,0-3.346-.574-3.346-1.512s1.3-1.512,3.346-1.512,3.346.56,3.346,1.512S136.962.35,134.9.35Zm0-3.612c-2.548,0-4.074.756-4.074,2.1s1.526,2.1,4.074,2.1,4.074-.756,4.074-2.1S137.466-3.262,134.9-3.262Z" transform="translate(303.458 297.004)"/>
  <path id="패스_23890" data-name="패스 23890" class="cls-6" d="M3.71-4.256a.738.738,0,0,0,.728-.756.725.725,0,0,0-.728-.77A.722.722,0,0,0,3-5.012.736.736,0,0,0,3.71-4.256ZM20.468.168H14.182V-1.708h6.286Zm0-2.492H14.182V-4.13H13.44V.784h7.77V-4.13h-.742Zm-6.02-3.5a2.264,2.264,0,0,1-2.436-2.2,2.248,2.248,0,0,1,2.436-2.2,2.248,2.248,0,0,1,2.436,2.2A2.264,2.264,0,0,1,14.448-5.824Zm6.02-5.628v3.08H17.584a2.9,2.9,0,0,0-3.136-2.478A2.859,2.859,0,0,0,11.3-8.022a2.867,2.867,0,0,0,3.15,2.828,2.889,2.889,0,0,0,3.136-2.534h2.884v2.94h.742v-6.664ZM32.8-6.594H26v-3.514h6.8Zm.728-4.13H25.27v4.746h8.26Zm1.512,6.65h-11.3v.63h5.25V.966h.742v-4.41h5.306Zm14.714-7.378h-.714v9.324h.714ZM44-5.306H40.684V-9.66H44Zm.7-1.918H46.76v4.746h.714v-8.694H46.76v3.318H44.7v-2.408H39.984V-4.7H44.7ZM42.546.042V-3.3H41.8V.672h8.372V.042ZM58.016-1.3V-4.2h3.948v-.616H54.306V-7.042h7.266v-.616H54.306V-9.73h7.532v-.63H53.55V-4.2h3.724v2.9h-5.25v.63H63.308V-1.3Zm16.8-10.15h-.742v7.714h.742ZM72.282-5.726a34.161,34.161,0,0,1-5.978.42H66.08V-7.42h4.83v-3.22h-5.6v.63h4.872v1.974h-4.83v3.36H66.3a35.218,35.218,0,0,0,6.062-.42ZM70.756.336c-2.044,0-3.374-.616-3.374-1.6s1.33-1.582,3.374-1.582c2.086,0,3.4.6,3.4,1.582S72.842.336,70.756.336Zm0-3.794c-2.562,0-4.1.8-4.1,2.2s1.54,2.2,4.1,2.2c2.59,0,4.144-.784,4.144-2.2S73.346-3.458,70.756-3.458ZM79.982,2.7l.5-.252a12.873,12.873,0,0,1-1.848-6.762,12.909,12.909,0,0,1,1.848-6.762l-.5-.266a12.91,12.91,0,0,0-2.044,7.028A12.862,12.862,0,0,0,79.982,2.7ZM84.406.182A2.854,2.854,0,0,0,87.486-2.7a2.66,2.66,0,0,0-2.24-2.632V-5.4a2.547,2.547,0,0,0,1.876-2.52A2.484,2.484,0,0,0,84.364-10.4a3.965,3.965,0,0,0-2.73,1.2l.476.56a3.2,3.2,0,0,1,2.24-1.078,1.787,1.787,0,0,1,1.932,1.848c0,1.218-.784,2.184-3.024,2.184V-5c2.436,0,3.388.924,3.388,2.3A2.125,2.125,0,0,1,84.378-.518,3.491,3.491,0,0,1,81.69-1.764l-.462.546A4.127,4.127,0,0,0,84.406.182ZM89.362-9.8v.63h4.074A7.989,7.989,0,0,1,88.97-2.31l.448.546A8.7,8.7,0,0,0,94.164-9.8Zm9.282-1.652v5.18H96.586v-4.844h-.714V.308h.714v-5.95h2.058V.98h.714V-11.452Zm9.534,6.006V-4.9h2.646v.84h.742v-7.378h-.742v5.992Zm-2.618-5.18c1.4,0,2.324.532,2.324,1.316s-.924,1.316-2.324,1.316-2.338-.532-2.338-1.316S104.146-10.626,105.56-10.626Zm0,3.178c1.834,0,3.038-.7,3.038-1.862s-1.2-1.862-3.038-1.862-3.038.7-3.038,1.862S103.712-7.448,105.56-7.448ZM105.112-4h.742V-6.062c1.288-.07,2.618-.168,3.864-.364l-.042-.518a72.079,72.079,0,0,1-8.176.35l.112.616c1.064,0,2.254-.014,3.5-.056Zm-.9,4.214V-1.176h7.35v-2.38H103.46V-3h7.378v1.274H103.5V.8h8.568V.21ZM114.464,2.7a12.862,12.862,0,0,0,2.044-7.014,12.91,12.91,0,0,0-2.044-7.028l-.5.266a12.909,12.909,0,0,1,1.848,6.762A12.873,12.873,0,0,1,113.96,2.45ZM121.03-1.68h.714V-4.788H124.6v-.658h-2.856V-8.554h-.714v3.108h-2.87v.658h2.87Zm5.278-8.932v.63h4.858C131-7.616,128.982-5.8,125.79-4.914l.294.63c3.64-1.022,5.88-3.29,5.88-6.328Zm2.044,7.546h6.216V.154h-6.216ZM127.61.77h7.7V-3.7h-7.7Zm9.646-9.016H135.31v-3.22h-.742v7.14h.742V-7.6h1.946ZM147.784-4.06h.742v-7.406h-.742V-8.6h-2.968v.63h2.968ZM145.6-5.32a4.628,4.628,0,0,1-3.192-4.046v-1.358h-.728v1.372a4.807,4.807,0,0,1-3.22,4.368l.392.6a5.527,5.527,0,0,0,3.22-3.416,5.4,5.4,0,0,0,3.094,3.052ZM144.508.336c-2.03,0-3.332-.658-3.332-1.694s1.3-1.694,3.332-1.694,3.346.658,3.346,1.694S146.538.336,144.508.336Zm0-3.99c-2.534,0-4.074.826-4.074,2.3s1.54,2.3,4.074,2.3,4.074-.826,4.074-2.3S147.028-3.654,144.508-3.654Zm19.88-7.8h-.714v9.324h.714Zm-5.754,6.146h-3.318V-9.66h3.318Zm.7-1.918h2.058v4.746h.714v-8.694h-.714v3.318h-2.058v-2.408h-4.718V-4.7h4.718ZM157.178.042V-3.3h-.742V.672h8.372V.042ZM172.634-1.3V-4.2h3.948v-.616h-7.658V-7.042h7.266v-.616h-7.266V-9.73h7.532v-.63h-8.288V-4.2h3.724v2.9h-5.25v.63h11.284V-1.3Zm16.814-10.15h-.742v7.714h.742Zm-2.534,5.726a34.161,34.161,0,0,1-5.978.42h-.224V-7.42h4.83v-3.22h-5.6v.63h4.872v1.974h-4.83v3.36h.952A35.218,35.218,0,0,0,187-5.1ZM185.388.336c-2.044,0-3.374-.616-3.374-1.6s1.33-1.582,3.374-1.582c2.086,0,3.4.6,3.4,1.582S187.474.336,185.388.336Zm0-3.794c-2.562,0-4.1.8-4.1,2.2s1.54,2.2,4.1,2.2c2.59,0,4.144-.784,4.144-2.2S187.978-3.458,185.388-3.458Zm9.226,6.16.5-.252a12.873,12.873,0,0,1-1.848-6.762,12.909,12.909,0,0,1,1.848-6.762l-.5-.266a12.91,12.91,0,0,0-2.044,7.028A12.862,12.862,0,0,0,194.614,2.7ZM196.056,0H202.2V-.728h-3.178c-.532,0-1.12.042-1.68.084,2.716-2.534,4.368-4.676,4.368-6.818a2.674,2.674,0,0,0-2.828-2.926,3.752,3.752,0,0,0-2.87,1.47l.518.49A3.04,3.04,0,0,1,198.8-9.7a2.006,2.006,0,0,1,2.086,2.268c0,1.848-1.372,3.948-4.83,6.93Zm7.938-9.8v.63h4.074A7.989,7.989,0,0,1,203.6-2.31l.448.546A8.7,8.7,0,0,0,208.8-9.8Zm9.282-1.652v5.18h-2.058v-4.844H210.5V.308h.714v-5.95h2.058V.98h.714V-11.452Zm9.534,6.006V-4.9h2.646v.84h.742v-7.378h-.742v5.992Zm-2.618-5.18c1.4,0,2.324.532,2.324,1.316s-.924,1.316-2.324,1.316-2.338-.532-2.338-1.316S218.778-10.626,220.192-10.626Zm0,3.178c1.834,0,3.038-.7,3.038-1.862s-1.2-1.862-3.038-1.862-3.038.7-3.038,1.862S218.344-7.448,220.192-7.448ZM219.744-4h.742V-6.062c1.288-.07,2.618-.168,3.864-.364l-.042-.518a72.079,72.079,0,0,1-8.176.35l.112.616c1.064,0,2.254-.014,3.5-.056Zm-.9,4.214V-1.176h7.35v-2.38h-8.106V-3h7.378v1.274h-7.336V.8H226.7V.21ZM229.1,2.7a12.862,12.862,0,0,0,2.044-7.014A12.91,12.91,0,0,0,229.1-11.34l-.5.266a12.909,12.909,0,0,1,1.848,6.762,12.873,12.873,0,0,1-1.848,6.762Z" transform="translate(303.458 322.009)"/>
  <g id="구성_요소_35_1" data-name="구성 요소 35 – 1" transform="translate(293.708)">
    <rect id="사각형_199" data-name="사각형 199" class="cls-7" width="182.833" height="36.75" transform="translate(6)"/>
    <rect id="사각형_200" data-name="사각형 200" class="cls-5" width="182.833" height="33.5" transform="translate(0 0.25)"/>
    <rect id="사각형_201" data-name="사각형 201" class="cls-8" width="182.833" height="33.5" transform="translate(0 0.25)"/>
    <path id="패스_23645" data-name="패스 23645" class="cls-7" d="M4.275.2c2.16,0,3.57-1.92,3.57-5.76,0-3.81-1.41-5.685-3.57-5.685C2.1-11.25.7-9.39.7-5.565.7-1.725,2.1.2,4.275.2Zm0-1.365c-1.125,0-1.92-1.2-1.92-4.395,0-3.165.795-4.32,1.92-4.32s1.92,1.155,1.92,4.32C6.195-2.37,5.4-1.17,4.275-1.17ZM14.01-4.245A2.762,2.762,0,0,0,16.245-5.82L15.3-6.51c-.375.69-.78,1-1.26,1-.945,0-1.62-1.38-2.97-1.38a2.683,2.683,0,0,0-2.235,1.59l.93.675c.375-.69.8-1.005,1.275-1.005C11.985-5.625,12.645-4.245,14.01-4.245ZM20.55.2c2.025,0,3.69-1.17,3.69-3.165a2.8,2.8,0,0,0-2.28-2.76V-5.8A2.668,2.668,0,0,0,23.865-8.4c0-1.83-1.4-2.85-3.375-2.85a4.653,4.653,0,0,0-3.165,1.335l.9,1.08a3.233,3.233,0,0,1,2.2-1.05,1.545,1.545,0,0,1,1.695,1.6c0,1.11-.72,1.935-2.895,1.935V-5.07c2.49,0,3.27.8,3.27,2.025a1.854,1.854,0,0,1-2.1,1.83A3.568,3.568,0,0,1,17.79-2.43l-.84,1.11A4.582,4.582,0,0,0,20.55.2Zm5.5-10.875v1.26h3.8a7.935,7.935,0,0,1-4.365,6.645l.9,1.1c3.81-2.19,5-5.385,5-9Zm9.555-1.71v5.295H34.065V-12.03H32.61V.525h1.455v-6.36H35.61v6.99h1.47V-12.39ZM46.185-6.03v.96h2.55v.585H50.28v-7.9H48.735v6.36ZM43.38-11.115c1.155,0,1.9.36,1.9.99s-.75.99-1.9.99-1.92-.36-1.92-.99S42.21-11.115,43.38-11.115Zm0,3.015c2.01,0,3.36-.78,3.36-2.025s-1.35-2.025-3.36-2.025S40-11.37,40-10.125,41.355-8.1,43.38-8.1Zm-.855,3.66h1.56V-6.435c1.26-.06,2.55-.165,3.795-.345l-.1-.975c-2.865.3-6.135.315-8.745.315l.18,1.11c1.02,0,2.145,0,3.315-.045Zm.06,4.38v-.99H50.28V-4H41.025V-2.94H48.75v.9h-7.7V1.035H50.67V-.06Zm17.73-8.805H63.18V-10.11H60.315v-2.01H58.77v2.01H55.86v1.245h2.91v.78a6.159,6.159,0,0,1-3.33,5.49l.855,1.185a6.591,6.591,0,0,0,3.27-3.96,6.3,6.3,0,0,0,3.09,3.72l.855-1.185a5.935,5.935,0,0,1-3.195-5.25Zm7.92,1.905H66.12v-5.445H64.575V1.155H66.12v-6.84h2.115Z" transform="translate(57.836 23.599)"/>
  </g>
  <rect id="사각형_202" data-name="사각형 202" class="cls-4" width="249.083" height="30" transform="translate(586.917 49.485)"/>
  <path id="패스_23891" data-name="패스 23891" class="cls-5" d="M8.355-8.76v1.005h2.28V-5.94H8.355v1.005h2.28v2.85H11.88V-12.33H10.635v3.57Zm0-1.935H5.265v-1.65H4.035v1.65H.825v.99h7.53ZM2.76-6.4a1.665,1.665,0,0,1,1.875-1.59A1.665,1.665,0,0,1,6.51-6.4a1.678,1.678,0,0,1-1.875,1.62A1.678,1.678,0,0,1,2.76-6.4Zm4.92,0c0-1.53-1.26-2.55-3.045-2.55S1.59-7.935,1.59-6.4s1.26,2.58,3.045,2.58S7.68-4.86,7.68-6.4ZM4.455-.2v-2.76H3.225V.81H12.2V-.2ZM22.1-5.835a4.376,4.376,0,0,1-3.255-3.99v-.525h2.97v-.99H14.6v.99H17.61v.525a4.765,4.765,0,0,1-3.375,4.38l.63.975a5.556,5.556,0,0,0,3.39-3.3A5.232,5.232,0,0,0,21.51-4.875ZM20.46.12c-2.01,0-3.21-.555-3.21-1.515s1.2-1.5,3.21-1.5c1.98,0,3.195.555,3.195,1.5S22.44.12,20.46.12Zm0-3.99c-2.76,0-4.44.915-4.44,2.475C16.02.18,17.7,1.1,20.46,1.1c2.73,0,4.425-.915,4.425-2.49C24.885-2.955,23.19-3.87,20.46-3.87Zm4.275-5.07v-3.39h-1.23v8.115h1.23v-3.69H26.73V-8.94ZM41.9-12.33h-1.23v6.915H41.9ZM36.66-7.08H32.775v-3.54H36.66Zm1.2-4.515H31.575v5.49H37.86ZM34.425-.015V-1.5H41.9V-4.74H33.18v.96h7.5v1.365H33.225V.96H42.36V-.015ZM52.23-5.625a4.226,4.226,0,0,1-3.27-3.81V-9.7h2.97v-.99H48.96v-1.71H47.73v1.71H44.745v.99H47.73v.27a4.419,4.419,0,0,1-3.345,4.05L45-4.41a5.5,5.5,0,0,0,3.36-3.06,5.25,5.25,0,0,0,3.27,2.8ZM46.065-2.43H53.58V1.11h1.23V-3.435H46.065Zm10.74-6.33H54.81v-3.57H53.58v8.19h1.23V-7.725h1.995ZM70.44-9.51a27.994,27.994,0,0,1-.465,5.835l1.215.15a28.8,28.8,0,0,0,.48-5.985v-1.485H62.19V-9.99h8.25ZM68.46-1.785V-6.24H67.245v4.455H65.13V-6.24H63.915v4.455H60.93V-.78H73.1V-1.785Zm12.045-9.27c2.13,0,3.465.6,3.465,1.605s-1.335,1.6-3.465,1.6-3.465-.6-3.465-1.6S78.375-11.055,80.505-11.055Zm0,4.17c2.91,0,4.725-.945,4.725-2.565s-1.815-2.58-4.725-2.58-4.725.96-4.725,2.58S77.61-6.885,80.505-6.885Zm1.65,3.72H78.87v-1.71h3.285Zm4.44-1.71v-.99H74.43v.99h3.21v1.71H75.78v.99h8.085v3.3H85.1v-4.29h-1.71v-1.71Z" transform="translate(596.917 71.084)"/>
  <path id="패스_23892" data-name="패스 23892" class="cls-6" d="M3.71-4.256a.738.738,0,0,0,.728-.756.725.725,0,0,0-.728-.77A.722.722,0,0,0,3-5.012.736.736,0,0,0,3.71-4.256ZM18.06-8.022v.63h2.408v1.96H18.06v.63h2.408v2.828h.742v-9.464h-.742v3.416ZM18.144-9.8H15.008v-1.652h-.742V-9.8H11.088v.616h7.056ZM12.586-6.02A1.826,1.826,0,0,1,14.63-7.756,1.826,1.826,0,0,1,16.674-6.02,1.808,1.808,0,0,1,14.63-4.3,1.808,1.808,0,0,1,12.586-6.02Zm4.8,0c0-1.428-1.12-2.338-2.758-2.338s-2.758.91-2.758,2.338,1.12,2.338,2.758,2.338S17.388-4.606,17.388-6.02ZM14.112.042V-2.8H13.37V.672h8.148V.042ZM30.856-5.222a4.325,4.325,0,0,1-3.108-3.794v-.84h2.94v-.616H24.066v.616H27.02V-9A4.628,4.628,0,0,1,23.8-4.886l.392.588a5.432,5.432,0,0,0,3.22-3.248,5.078,5.078,0,0,0,3.08,2.912ZM29.428.336c-1.988,0-3.276-.616-3.276-1.61s1.288-1.61,3.276-1.61,3.29.616,3.29,1.61S31.43.336,29.428.336Zm0-3.822c-2.492,0-4,.8-4,2.212s1.512,2.212,4,2.212,4.018-.8,4.018-2.212S31.92-3.486,29.428-3.486Zm3.92-4.634v-3.332h-.742v7.56h.742V-7.476h1.946V-8.12Zm15.344-3.332V.98h.742V-11.452Zm-5.726,1.008c-1.82,0-3.094,1.68-3.094,4.27S41.146-1.9,42.966-1.9s3.08-1.666,3.08-4.27S44.772-10.444,42.966-10.444Zm0,.658c1.386,0,2.366,1.484,2.366,3.612s-.98,3.626-2.366,3.626-2.38-1.5-2.38-3.626S41.566-9.786,42.966-9.786ZM62.594-6.5c-1.862-.294-4.564-1.778-4.564-3.7v-.784h-.77v.784c0,1.96-2.66,3.388-4.55,3.7L53-5.88c1.764-.35,3.906-1.442,4.648-3.108.742,1.652,2.9,2.758,4.634,3.108Zm.7,2.3H52.01v.616h3.052V1.092H55.8V-3.584h3.7V1.092h.742V-3.584h3.052ZM76.608-8.638a23.22,23.22,0,0,1-.448,5.292l.742.1a24.919,24.919,0,0,0,.434-5.39V-10.08H68.81v.616h7.8Zm-2.2,7.084V-5.768h-.728v4.214H71.344V-5.768h-.728v4.214h-3.01v.63H78.848v-.63Zm11.48-8.974c2.156,0,3.556.658,3.556,1.722S88.046-7.07,85.89-7.07s-3.528-.672-3.528-1.736S83.748-10.528,85.89-10.528Zm0,4.06c2.674,0,4.312-.854,4.312-2.338S88.564-11.13,85.89-11.13c-2.646,0-4.284.84-4.284,2.324S83.244-6.468,85.89-6.468Zm1.75,3.542H84.182V-4.718H87.64Zm3.878-1.792v-.63H80.29v.63h3.15v1.792h-1.9v.63h7.84V.966h.742V-2.926H88.382V-4.718Z" transform="translate(596.917 103.804)"/>
  <path id="패스_23893" data-name="패스 23893" class="cls-6" d="M3.71-4.256a.738.738,0,0,0,.728-.756.725.725,0,0,0-.728-.77A.722.722,0,0,0,3-5.012.736.736,0,0,0,3.71-4.256Zm8.372-1.778c1.862-.252,3.906-1.022,4.62-2.436.714,1.414,2.758,2.184,4.62,2.436l.238-.588c-2.044-.238-4.466-1.232-4.466-2.94H21.14v-.616H17.08V-11.55h-.742v1.372H12.292v.616H16.31c0,1.708-2.422,2.7-4.466,2.94ZM16.7.35C14.56.35,13.216-.2,13.216-1.092S14.56-2.548,16.7-2.548,20.188-2,20.188-1.092,18.844.35,16.7.35Zm0-3.472c-2.66,0-4.228.714-4.228,2.03S14.042.938,16.7.938,20.93.224,20.93-1.092,19.362-3.122,16.7-3.122ZM17.08-4.9V-6.65h-.742V-4.9H11.074v.616H22.316V-4.9Zm6.034,7.378h.658L28.392-11H27.72ZM36.19-9.492h3.136v-.644H32.382v.644h3.08v2.1a6.829,6.829,0,0,1-3.43,5.348l.462.6a7.639,7.639,0,0,0,3.332-4.312,7.04,7.04,0,0,0,3.4,4l.448-.588A6.175,6.175,0,0,1,36.19-7.392Zm5.138-1.96V.98h.742V-11.452ZM55.958-5.67V-6.3h-1.89A16.19,16.19,0,0,0,54.4-9.982v-.854H46.13v.63h7.56v.224A14.556,14.556,0,0,1,53.312-6.3H44.66v.63h5.264v2.59h-4.06v.63h7.924V.98h.742V-3.08H50.666V-5.67ZM66.71-8.96v1.652H63.462V-8.96ZM62.734-6.118H58.758V-8.26h3.976Zm.728-.588H66.71v1.792h.742v-6.538H66.71v1.876H63.462V-10.85h-.728v1.988H58.758V-10.85h-.742V-5.5h5.446ZM60.34.168v-1.68h7.112V-4.228H59.584v.616h7.14V-2.1H59.612V.784h8.372V.168ZM78.4-5.978H74.256v-3.99H78.4Zm.714-4.606H73.528v5.222h5.586ZM79.1-2.828l3.64-.014v-.63H74.718v.63h3.626v.014C78.344-1.246,76.118,0,74.256.35l.294.574C76.23.6,78.064-.336,78.722-1.708,79.408-.35,81.242.6,82.894.938L83.188.35C81.34,0,79.1-1.26,79.1-2.828Zm3.4-5.488v-3.136H81.76V-4.3H82.5V-7.672h1.946v-.644ZM86.6-6.1c1.862-.266,3.906-1.022,4.62-2.436.714,1.414,2.758,2.17,4.634,2.436l.224-.6c-2.044-.224-4.452-1.2-4.466-2.912h4.046v-.616H91.6v-1.358H90.86v1.358H86.814v.616h4.018C90.818-7.91,88.41-6.93,86.366-6.706ZM94.724.154H87.738v-2.52h6.986Zm2.114-4.746v-.63H85.6v.63H90.86v1.61H87.024V.784h8.428V-2.982H91.6v-1.61ZM110.18-8.638a23.22,23.22,0,0,1-.448,5.292l.742.1a24.919,24.919,0,0,0,.434-5.39V-10.08h-8.526v.616h7.8Zm-2.2,7.084V-5.768h-.728v4.214h-2.338V-5.768h-.728v4.214h-3.01v.63H112.42v-.63Zm11.48-8.974c2.156,0,3.556.658,3.556,1.722s-1.4,1.736-3.556,1.736-3.528-.672-3.528-1.736S117.32-10.528,119.462-10.528Zm0,4.06c2.674,0,4.312-.854,4.312-2.338s-1.638-2.324-4.312-2.324c-2.646,0-4.284.84-4.284,2.324S116.816-6.468,119.462-6.468Zm1.75,3.542h-3.458V-4.718h3.458Zm3.878-1.792v-.63H113.862v.63h3.15v1.792h-1.9v.63h7.84V.966h.742V-2.926h-1.736V-4.718Z" transform="translate(596.917 128.809)"/>
  <path id="패스_23894" data-name="패스 23894" class="cls-6" d="M3.71-4.256a.738.738,0,0,0,.728-.756.725.725,0,0,0-.728-.77A.722.722,0,0,0,3-5.012.736.736,0,0,0,3.71-4.256ZM12.334-2.8V-5.894h3.248V-6.51H12.334V-9.268h3.878v-.616H11.606V-2.17h.77a20.155,20.155,0,0,0,4.634-.364l-.084-.616a20.327,20.327,0,0,1-4.564.35Zm6.048-3.85H16.324v.644h2.058v6.3H19.1v-11.41h-.714Zm2.464-4.8V.98h.728V-11.452Zm4.214,1.9h4.116v6.664H25.06Zm-.728,7.28H29.89v-7.9H24.332Zm11.074-4.06H33.222v-5.124H32.48V.966h.742V-5.7h2.184ZM45.822-8.96v1.652H42.574V-8.96ZM41.846-6.118H37.87V-8.26h3.976Zm.728-.588h3.248v1.792h.742v-6.538h-.742v1.876H42.574V-10.85h-.728v1.988H37.87V-10.85h-.742V-5.5h5.446ZM39.452.168v-1.68h7.112V-4.228H38.7v.616h7.14V-2.1H38.724V.784H47.1V.168ZM52.948-7.8a2.3,2.3,0,0,1,2.436-2.254A2.3,2.3,0,0,1,57.82-7.8,2.293,2.293,0,0,1,55.384-5.53,2.293,2.293,0,0,1,52.948-7.8ZM61.4-8.946v2.31H58.31A3.123,3.123,0,0,0,58.534-7.8a3.105,3.105,0,0,0-.224-1.148Zm0,2.94V-4.06h.742v-7.406H61.4v1.9H57.932a3.192,3.192,0,0,0-2.548-1.12A2.916,2.916,0,0,0,52.234-7.8a2.932,2.932,0,0,0,3.15,2.926,3.2,3.2,0,0,0,2.548-1.134ZM58.114.336C56.1.336,54.782-.336,54.782-1.4S56.1-3.136,58.114-3.136c2.044,0,3.36.686,3.36,1.736S60.158.336,58.114.336Zm0-4.074c-2.52,0-4.06.854-4.06,2.338S55.594.938,58.114.938,62.2.084,62.2-1.4,60.648-3.738,58.114-3.738ZM71.806-5.39a4.687,4.687,0,0,1-3.178-4.046V-10.85h-.714v1.386a4.894,4.894,0,0,1-3.178,4.41l.392.6A5.585,5.585,0,0,0,68.306-7.9,5.429,5.429,0,0,0,71.4-4.8ZM70.364.336c-1.988,0-3.276-.6-3.276-1.568s1.288-1.582,3.276-1.582,3.29.6,3.29,1.582S72.366.336,70.364.336Zm0-3.752c-2.506,0-4,.784-4,2.184s1.5,2.17,4,2.17,4.018-.784,4.018-2.17S72.87-3.416,70.364-3.416Zm3.92-4.634v-3.416h-.742v7.672h.742V-7.406H76.23V-8.05Zm12.1-.588a23.22,23.22,0,0,1-.448,5.292l.742.1a24.919,24.919,0,0,0,.434-5.39V-10.08H78.582v.616h7.8Zm-2.2,7.084V-5.768h-.728v4.214H81.116V-5.768h-.728v4.214h-3.01v.63H88.62v-.63Zm11.48-8.974c2.156,0,3.556.658,3.556,1.722s-1.4,1.736-3.556,1.736-3.528-.672-3.528-1.736S93.52-10.528,95.662-10.528Zm0,4.06c2.674,0,4.312-.854,4.312-2.338s-1.638-2.324-4.312-2.324c-2.646,0-4.284.84-4.284,2.324S93.016-6.468,95.662-6.468Zm1.75,3.542H93.954V-4.718h3.458Zm3.878-1.792v-.63H90.062v.63h3.15v1.792h-1.9v.63h7.84V.966h.742V-2.926H98.154V-4.718Z" transform="translate(596.917 153.813)"/>
  <g id="구성_요소_36_1" data-name="구성 요소 36 – 1" transform="translate(587.167)">
    <rect id="사각형_203" data-name="사각형 203" class="cls-7" width="182.833" height="36.75" transform="translate(6)"/>
    <rect id="사각형_204" data-name="사각형 204" class="cls-5" width="182.833" height="33.5" transform="translate(0 0.25)"/>
    <rect id="사각형_205" data-name="사각형 205" class="cls-8" width="182.833" height="33.5" transform="translate(0 0.25)"/>
    <path id="패스_23646" data-name="패스 23646" class="cls-7" d="M2.04-4.3l2.175-3.33c.315-.57.615-1.14.885-1.695h.06c-.03.6-.09,1.53-.09,2.13V-4.3Zm6.06,0H6.69V-11.04h-2L.3-4.125V-2.97H5.07V0H6.69V-2.97H8.1ZM9.525-10.68v1.26h3.8A7.935,7.935,0,0,1,8.955-2.775l.9,1.1c3.81-2.19,4.995-5.385,4.995-9Zm9.555-1.71v5.295H17.535V-12.03H16.08V.525h1.455v-6.36H19.08v6.99h1.47V-12.39ZM29.67-6.03v.96h2.55v.585h1.545v-7.9H32.22v6.36Zm-2.805-5.085c1.155,0,1.9.36,1.9.99s-.75.99-1.9.99c-1.17,0-1.92-.36-1.92-.99S25.7-11.115,26.865-11.115Zm0,3.015c2.01,0,3.36-.78,3.36-2.025s-1.35-2.025-3.36-2.025c-2.025,0-3.375.78-3.375,2.025S24.84-8.1,26.865-8.1ZM26.01-4.44h1.56V-6.435c1.26-.06,2.55-.165,3.8-.345l-.1-.975c-2.865.3-6.135.315-8.745.315l.18,1.11c1.02,0,2.145,0,3.315-.045Zm.06,4.38v-.99h7.695V-4H24.51V-2.94h7.725v.9H24.54V1.035h9.615V-.06ZM43.8-8.865h2.865V-10.11H43.8v-2.01H42.255v2.01h-2.91v1.245h2.91v.78a6.159,6.159,0,0,1-3.33,5.49L39.78-1.41a6.591,6.591,0,0,0,3.27-3.96,6.3,6.3,0,0,0,3.09,3.72l.855-1.185A5.935,5.935,0,0,1,43.8-8.085ZM51.72-6.96H49.6v-5.445H48.06V1.155H49.6v-6.84H51.72Zm8.955,2.715A2.762,2.762,0,0,0,62.91-5.82l-.945-.69c-.375.69-.78,1-1.26,1-.945,0-1.62-1.38-2.97-1.38A2.683,2.683,0,0,0,55.5-5.295l.93.675c.375-.69.795-1.005,1.275-1.005C58.65-5.625,59.31-4.245,60.675-4.245Z" transform="translate(60.01 23.599)"/>
    <line id="선_462" data-name="선 462" class="cls-9" x1="182.833" transform="translate(6 36.985)"/>
  </g>
  <rect id="사각형_206" data-name="사각형 206" class="cls-4" width="253.375" height="28" transform="translate(0 49.485)"/>
  <path id="패스_23872" data-name="패스 23872" class="cls-5" d="M10.605-12.33v7.215h1.23V-12.33ZM3.165-4.455V.93h8.67V-4.455H10.62v1.65H4.38v-1.65ZM4.38-1.845h6.24V-.06H4.38ZM4.605-11.7c-2.025,0-3.5,1.26-3.5,3.09,0,1.86,1.47,3.1,3.5,3.1,2.04,0,3.525-1.245,3.525-3.1C8.13-10.44,6.645-11.7,4.605-11.7Zm0,1.02A2.117,2.117,0,0,1,6.93-8.61,2.119,2.119,0,0,1,4.605-6.525,2.11,2.11,0,0,1,2.31-8.61,2.107,2.107,0,0,1,4.605-10.68Zm19.08,2.7h-6.63v-2.745h6.63ZM24.9-11.715H15.855V-6.99H24.9ZM17.055-3.03h-1.23V.81h9.3V-.2h-8.07Zm-2.79-2.43v.99h5.6v2.715h1.23V-4.47h5.4v-.99Zm26.1-4.05A27.994,27.994,0,0,1,39.9-3.675l1.215.15A28.8,28.8,0,0,0,41.6-9.51v-1.485h-9.48V-9.99h8.25Zm-1.98,7.725V-6.24H37.17v4.455H35.055V-6.24H33.84v4.455H30.855V-.78H43.02V-1.785Zm12.045-9.27c2.13,0,3.465.6,3.465,1.605s-1.335,1.6-3.465,1.6-3.465-.6-3.465-1.6S48.3-11.055,50.43-11.055Zm0,4.17c2.91,0,4.725-.945,4.725-2.565s-1.815-2.58-4.725-2.58-4.725.96-4.725,2.58S47.535-6.885,50.43-6.885Zm1.65,3.72H48.8v-1.71H52.08Zm4.44-1.71v-.99H44.355v.99h3.21v1.71h-1.86v.99H53.79v3.3h1.23v-4.29H53.31v-1.71Z" transform="translate(10 70.084)"/>
  <path id="패스_23873" data-name="패스 23873" class="cls-10" d="M7.5,1.32A7.029,7.029,0,0,0,14.52-5.7,7.029,7.029,0,0,0,7.5-12.72,7.029,7.029,0,0,0,.48-5.7,7.029,7.029,0,0,0,7.5,1.32Zm0-.495A6.53,6.53,0,0,1,.975-5.7,6.53,6.53,0,0,1,7.5-12.225,6.53,6.53,0,0,1,14.025-5.7,6.53,6.53,0,0,1,7.5.825Zm-.435-2.7H8.6V-9.69H7.425a6.123,6.123,0,0,1-1.98.66v.975h1.62Zm12.24-9.09V-9.7h4.83c-.27,3.12-1.95,5.505-5.505,7.215l.825,1.23c4.65-2.25,6.27-5.67,6.27-9.705ZM28.17-12.39V1.155h1.545V-12.39ZM43.65-8.82c-2.715-.27-4.695-1.605-4.695-3.12v-.39h-1.59v.39c0,1.515-1.98,2.85-4.695,3.12l.525,1.185a6.767,6.767,0,0,0,4.965-2.55,6.767,6.767,0,0,0,4.965,2.55Zm.645,3.15V-6.9H32.025v1.23h5.34v1.14H33.48v1.17h7.755v1.005H33.51v3.39h9.63V-.15h-8.1V-1.26h7.71V-4.53H38.925V-5.67ZM58.035-9.7a28.608,28.608,0,0,1-.48,5.955l1.545.18A30.74,30.74,0,0,0,59.58-9.7V-11.13H49.83v1.26h8.205ZM56.31-1.89V-6.27H54.78v4.38H52.965V-6.27h-1.53v4.38h-2.82V-.615h12.24V-1.89Zm11.925-9c2.01,0,3.225.51,3.225,1.425s-1.215,1.41-3.225,1.41c-2.025,0-3.24-.51-3.24-1.41S66.21-10.89,68.235-10.89Zm0,4.05c2.94,0,4.83-.99,4.83-2.625s-1.89-2.625-4.83-2.625c-2.955,0-4.83.99-4.83,2.625S65.28-6.84,68.235-6.84ZM69.72-3.225h-3V-4.71h3ZM74.355-4.71V-5.955H62.085V-4.71h3.09v1.485h-1.71V-2H71.31v3.15h1.545v-4.38h-1.59V-4.71Z" transform="translate(10 104.089)"/>
  <path id="패스_23874" data-name="패스 23874" class="cls-6" d="M3.71-4.256a.738.738,0,0,0,.728-.756.725.725,0,0,0-.728-.77A.722.722,0,0,0,3-5.012.736.736,0,0,0,3.71-4.256ZM12.166-6.79l.126.658,7.742-.448a21.342,21.342,0,0,1-.448,3.234l.742.084a25.842,25.842,0,0,0,.49-5.642v-1.232h-8.33v.63h7.6v.6c0,.56,0,1.12-.028,1.75Zm4.27,5.278V-4.886h-.728v3.374H11.1v.63H22.33v-.63ZM26.95-10.024a1.786,1.786,0,0,1,1.974,1.68,1.786,1.786,0,0,1-1.974,1.68,1.812,1.812,0,0,1-2-1.68A1.812,1.812,0,0,1,26.95-10.024Zm0,3.934c1.554,0,2.66-.9,2.66-2.254a2.372,2.372,0,0,0-2.66-2.268,2.385,2.385,0,0,0-2.674,2.268C24.276-6.986,25.4-6.09,26.95-6.09Zm3.262.784a47.526,47.526,0,0,1-6.58.35l.112.644c.77,0,1.75,0,2.772-.042v4.3h.714V-4.4a21.217,21.217,0,0,0,3.038-.35Zm.9,2.086H28.574V-2.6h2.534V.28h.714V-11.13h-.714Zm2.254-8.246V.966h.728V-11.466Zm12.446.014V.98h.742V-11.452Zm-5.726,1.008c-1.82,0-3.094,1.68-3.094,4.27S38.262-1.9,40.082-1.9s3.08-1.666,3.08-4.27S41.888-10.444,40.082-10.444Zm0,.658c1.386,0,2.366,1.484,2.366,3.612s-.98,3.626-2.366,3.626-2.38-1.5-2.38-3.626S38.682-9.786,40.082-9.786ZM56.2-10.3h-.742v2.478A6.922,6.922,0,0,1,52.122-2.31l.476.588a7.536,7.536,0,0,0,3.234-4.452,7.264,7.264,0,0,0,3.29,4.228l.434-.6A6.551,6.551,0,0,1,56.2-7.826Zm5.236-1.148v4.424H58.226v.616h3.206V.994h.742V-11.452Zm12.642-.014V.994h.742v-12.46Zm-8.582,1.092v8.3H71.2v-8.3h-.742V-6.93H66.234v-3.444Zm.742,4.06h4.228V-2.7H66.234ZM88-5C86.24-5.348,83.37-7.224,83.37-9.52v-.994H82.6v.994c0,2.31-2.828,4.158-4.606,4.522l.35.63A7.191,7.191,0,0,0,82.992-8.12a7.205,7.205,0,0,0,4.662,3.752ZM77.392-1.428V-.8H88.676v-.63ZM96.922-8.6h2.926v-.63H96.922V-11.27H96.18v2.044H93.226v.63h2.968V-7.35a6.215,6.215,0,0,1-3.262,5.292l.434.574a6.871,6.871,0,0,0,3.206-4.144,6.483,6.483,0,0,0,3.052,3.906l.448-.588a5.943,5.943,0,0,1-3.15-5.04Zm7.7,2.408h-2.184v-5.264H101.7V.98h.742V-5.544h2.184ZM115.038-8.96v1.652H111.79V-8.96Zm-3.976,2.842h-3.976V-8.26h3.976Zm.728-.588h3.248v1.792h.742v-6.538h-.742v1.876H111.79V-10.85h-.728v1.988h-3.976V-10.85h-.742V-5.5h5.446ZM108.668.168v-1.68h7.112V-4.228h-7.868v.616h7.14V-2.1H107.94V.784h8.372V.168Zm16.912-5.4a4.56,4.56,0,0,1-3.136-3.892v-.8h2.912v-.63h-6.622v.63h2.982v.812a4.834,4.834,0,0,1-3.262,4.186l.406.6A5.551,5.551,0,0,0,122.094-7.7,5.424,5.424,0,0,0,125.2-4.648Zm-4.312,2.394h6.5v3h-6.5ZM120.54.784h7.938V-3.458H120.54Zm7.2-12.236V-8.19h-2.8v.63h2.8v3.43h.742v-7.322Zm15.554,0V.98h.742V-11.452Zm-5.726,1.008c-1.82,0-3.094,1.68-3.094,4.27s1.274,4.27,3.094,4.27,3.08-1.666,3.08-4.27S139.37-10.444,137.564-10.444Zm0,.658c1.386,0,2.366,1.484,2.366,3.612s-.98,3.626-2.366,3.626-2.38-1.5-2.38-3.626S136.164-9.786,137.564-9.786ZM149.73-2.66a2,2,0,0,1-1.96-2.128,2.008,2.008,0,0,1,1.96-2.128A2.01,2.01,0,0,1,151.7-4.788,2,2,0,0,1,149.73-2.66Zm0-4.886A2.6,2.6,0,0,0,147.1-4.788a2.605,2.605,0,0,0,2.632,2.772,2.6,2.6,0,0,0,2.646-2.772A2.6,2.6,0,0,0,149.73-7.546Zm.378-3.528h-.742v1.9h-2.772v.63h6.3v-.63h-2.786Zm6.216-.378V-6.1H154.35v-5.04h-.728V.322h.728v-5.8h1.974V.98h.728V-11.452Z" transform="translate(10 132.905)"/>
  <path id="패스_23875" data-name="패스 23875" class="cls-6" d="M3.71-4.256a.738.738,0,0,0,.728-.756.725.725,0,0,0-.728-.77A.722.722,0,0,0,3-5.012.736.736,0,0,0,3.71-4.256ZM14.8-2.576a2.147,2.147,0,0,1-2.254-2.156A2.138,2.138,0,0,1,14.8-6.888a2.147,2.147,0,0,1,2.254,2.156A2.155,2.155,0,0,1,14.8-2.576Zm0-4.956a2.771,2.771,0,0,0-2.954,2.8A2.752,2.752,0,0,0,14.8-1.946a2.752,2.752,0,0,0,2.954-2.786A2.771,2.771,0,0,0,14.8-7.532Zm.35-3.808h-.742v1.946H11.018v.63H18.41v-.63H15.148Zm7.588,5.152H20.552v-5.278H19.81V.966h.742V-5.558h2.184Zm10.976,1.61H26.054v-2.3H33.32V-7.49H26.054V-9.674h7.532v-.63H25.3v6.356h8.414Zm-9.94,3.22v.63H35.056v-.63ZM40.614-10.3h-.742v2.478A6.922,6.922,0,0,1,36.54-2.31l.476.588A7.536,7.536,0,0,0,40.25-6.174a7.264,7.264,0,0,0,3.29,4.228l.434-.6a6.551,6.551,0,0,1-3.36-5.278Zm5.236-1.148v4.424H42.644v.616H45.85V.994h.742V-11.452Zm12.642-.014V.994h.742v-12.46ZM49.91-10.374v8.3h5.712v-8.3H54.88V-6.93H50.652v-3.444Zm.742,4.06H54.88V-2.7H50.652ZM72.436-5C70.672-5.348,67.8-7.224,67.8-9.52v-.994h-.77v.994c0,2.31-2.828,4.158-4.606,4.522l.35.63A7.191,7.191,0,0,0,67.424-8.12a7.205,7.205,0,0,0,4.662,3.752ZM61.824-1.428V-.8H73.108v-.63ZM84-8.092v.63h2.8v3.416h.742v-7.406H86.8v3.36Zm.644,2.912a4.526,4.526,0,0,1-3.136-3.878v-.77H84.42v-.63H77.812v.63H80.78v.784a4.859,4.859,0,0,1-3.234,4.228l.378.6a5.619,5.619,0,0,0,3.248-3.4,5.315,5.315,0,0,0,3.094,3.024ZM83.524.35c-2.03,0-3.332-.63-3.332-1.666s1.3-1.666,3.332-1.666,3.346.63,3.346,1.666S85.554.35,83.524.35Zm0-3.934c-2.534,0-4.074.812-4.074,2.268S80.99.952,83.524.952,87.6.14,87.6-1.316,86.044-3.584,83.524-3.584ZM91.35-2.2h7.84V.98h.742V-2.814H91.35Zm1.008-6.776h6.748v1.722H92.358ZM96.1-4.886V-6.622h3.752v-4.564h-.742v1.61H92.358v-1.61h-.742v4.564h3.738v1.736H90.09v.63h11.242v-.63Z" transform="translate(10 157.909)"/>
  <path id="패스_23876" data-name="패스 23876" class="cls-6" d="M3.71-4.256a.738.738,0,0,0,.728-.756.725.725,0,0,0-.728-.77A.722.722,0,0,0,3-5.012.736.736,0,0,0,3.71-4.256ZM11.788,0h.84V-10.206h-.84Zm6.286.182c1.806,0,3.374-1.428,3.374-3.906S19.88-7.658,18.074-7.658,14.7-6.216,14.7-3.724,16.268.182,18.074.182Zm0-.7c-1.456,0-2.52-1.3-2.52-3.206s1.064-3.22,2.52-3.22,2.534,1.316,2.534,3.22S19.53-.518,18.074-.518Zm9.1.7a3.824,3.824,0,0,0,3.052-1.456l-.476-.532A3.264,3.264,0,0,1,27.216-.574c-2.142,0-3.472-1.778-3.472-4.564,0-2.758,1.358-4.494,3.514-4.494A2.869,2.869,0,0,1,29.47-8.61l.476-.546a3.53,3.53,0,0,0-2.688-1.232c-2.59,0-4.4,2.016-4.4,5.278S24.654.182,27.174.182Zm6.482,0a4.3,4.3,0,0,0,2.6-1.134h.028L36.372,0h.686V-4.732c0-1.652-.63-2.926-2.408-2.926a5.175,5.175,0,0,0-2.828.98l.364.588a4.035,4.035,0,0,1,2.352-.854c1.414,0,1.736,1.148,1.708,2.254-3.29.378-4.76,1.162-4.76,2.814A1.969,1.969,0,0,0,33.656.182ZM33.824-.5A1.346,1.346,0,0,1,32.3-1.918c0-1.148,1.008-1.834,3.948-2.17v2.422A3.677,3.677,0,0,1,33.824-.5Zm5.628.5h.812V-5.012c.546-1.386,1.344-1.876,2-1.876a1.578,1.578,0,0,1,.686.126l.168-.728a1.5,1.5,0,0,0-.756-.168A2.568,2.568,0,0,0,40.25-6.076h-.028l-.1-1.386h-.672ZM46.83.182a4.175,4.175,0,0,0,2.38-.728l-.308-.6A3.341,3.341,0,0,1,46.914-.5c-1.61,0-2.688-1.274-2.73-3.094h5.292a3.872,3.872,0,0,0,.042-.588c0-2.184-1.078-3.472-2.884-3.472-1.694,0-3.276,1.512-3.276,3.934C43.358-1.274,44.912.182,46.83.182ZM44.184-4.242a2.657,2.657,0,0,1,2.464-2.716c1.3,0,2.128.91,2.128,2.716Zm18.76-7.21V.98h.742V-11.452Zm-5.726,1.008c-1.82,0-3.094,1.68-3.094,4.27S55.4-1.9,57.218-1.9,60.3-3.57,60.3-6.174,59.024-10.444,57.218-10.444Zm0,.658c1.386,0,2.366,1.484,2.366,3.612s-.98,3.626-2.366,3.626-2.38-1.5-2.38-3.626S55.818-9.786,57.218-9.786ZM69.4-2.66a2,2,0,0,1-1.96-2.128A2.008,2.008,0,0,1,69.4-6.916a2.01,2.01,0,0,1,1.974,2.128A2,2,0,0,1,69.4-2.66Zm0-4.886a2.6,2.6,0,0,0-2.632,2.758A2.605,2.605,0,0,0,69.4-2.016a2.6,2.6,0,0,0,2.646-2.772A2.6,2.6,0,0,0,69.4-7.546Zm.378-3.528h-.742v1.9H66.262v.63h6.3v-.63H69.776Zm6.216-.378V-6.1H74.018v-5.04H73.29V.322h.728v-5.8h1.974V.98h.728V-11.452Zm15.974-.014h-.742v7.2h.742ZM87.472-6.258H83.258V-10.01h4.214Zm.714-4.368H82.53v4.984h5.656ZM88.564-2.7H92.33v-.6H88.564V-4.648h-.756V-3.3H84.07v.6h3.738v.126c0,1.414-2.436,2.66-4.242,2.912l.266.588C85.526.63,87.486-.294,88.186-1.568,88.872-.308,90.762.63,92.47.924l.266-.588c-1.82-.28-4.172-1.512-4.172-2.912Zm18.984-8.764h-.742v6.524h.742ZM104.9-5.992a4.72,4.72,0,0,1-3.29-4.116v-.952h-.728v.952a4.937,4.937,0,0,1-3.262,4.354l.392.6a5.681,5.681,0,0,0,3.248-3.416A5.551,5.551,0,0,0,104.524-5.4ZM100.436.182V-1.5h7.126V-4.256h-7.9v.616h7.168v1.554H99.708V.8h8.344V.182ZM120.68-7.336c-1.848-.252-4.55-1.61-4.55-3.318v-.672h-.756v.672c0,1.764-2.66,3.052-4.55,3.318l.294.6c1.75-.294,3.906-1.288,4.634-2.828.742,1.512,2.9,2.534,4.634,2.828Zm-1.54,7.5h-6.79V-1.708h6.79Zm0-2.478h-6.79V-4.018h-.728v4.8h8.246v-4.8h-.728Zm-9.016-3.346v.63h11.242v-.63Z" transform="translate(10 182.913)"/>
  <g id="구성_요소_34_1" data-name="구성 요소 34 – 1" transform="translate(0.25)">
    <rect id="사각형_207" data-name="사각형 207" class="cls-7" width="192.833" height="36.75" transform="translate(6)"/>
    <rect id="사각형_208" data-name="사각형 208" class="cls-5" width="192.833" height="33.5" transform="translate(0 0.25)"/>
    <rect id="사각형_209" data-name="사각형 209" class="cls-8" width="192.833" height="33.5" transform="translate(0 0.25)"/>
    <path id="패스_23644" data-name="패스 23644" class="cls-7" d="M4.275.2c2.16,0,3.57-1.92,3.57-5.76,0-3.81-1.41-5.685-3.57-5.685C2.1-11.25.7-9.39.7-5.565.7-1.725,2.1.2,4.275.2Zm0-1.365c-1.125,0-1.92-1.2-1.92-4.395,0-3.165.795-4.32,1.92-4.32s1.92,1.155,1.92,4.32C6.195-2.37,5.4-1.17,4.275-1.17ZM14.01-4.245A2.762,2.762,0,0,0,16.245-5.82L15.3-6.51c-.375.69-.78,1-1.26,1-.945,0-1.62-1.38-2.97-1.38a2.683,2.683,0,0,0-2.235,1.59l.93.675c.375-.69.8-1.005,1.275-1.005C11.985-5.625,12.645-4.245,14.01-4.245ZM17.19,0h7.125V-1.47h-2.76c-.54,0-1.23.045-1.8.1C22.1-3.6,23.79-5.8,23.79-7.935a3.122,3.122,0,0,0-3.33-3.315A4.332,4.332,0,0,0,17.1-9.6l.975.96A2.994,2.994,0,0,1,20.25-9.87a1.8,1.8,0,0,1,1.875,2.025c0,1.815-1.68,3.96-4.935,6.84ZM29.07.2c2.16,0,3.57-1.92,3.57-5.76,0-3.81-1.41-5.685-3.57-5.685S25.5-9.39,25.5-5.565C25.5-1.725,26.9.2,29.07.2Zm0-1.365c-1.125,0-1.92-1.2-1.92-4.395,0-3.165.8-4.32,1.92-4.32s1.92,1.155,1.92,4.32C30.99-2.37,30.195-1.17,29.07-1.17ZM44.985-12.405H43.44V-5.52h1.545Zm-9.4,3.51a1.842,1.842,0,0,1,2.04-1.785,1.86,1.86,0,0,1,2.07,1.785A1.86,1.86,0,0,1,37.62-7.11,1.842,1.842,0,0,1,35.58-8.895Zm5.61,0c0-1.785-1.515-3.06-3.57-3.06s-3.54,1.275-3.54,3.06,1.5,3.045,3.54,3.045S41.19-7.11,41.19-8.895ZM37.65-.225v-1.2h7.335V-4.9H36.1V-3.69h7.35v1.125h-7.32V.99H45.39V-.225Zm17.43-8.64h2.865V-10.11H55.08v-2.01H53.535v2.01h-2.91v1.245h2.91v.78a6.159,6.159,0,0,1-3.33,5.49L51.06-1.41a6.591,6.591,0,0,0,3.27-3.96,6.3,6.3,0,0,0,3.09,3.72l.855-1.185a5.935,5.935,0,0,1-3.195-5.25ZM63-6.96H60.885v-5.445H59.34V1.155h1.545v-6.84H63Z" transform="translate(64.135 23.599)"/>
  </g>
  <path id="패스_23877" data-name="패스 23877" class="cls-6" d="M7.5,1.32A7.029,7.029,0,0,0,14.52-5.7,7.029,7.029,0,0,0,7.5-12.72,7.029,7.029,0,0,0,.48-5.7,7.029,7.029,0,0,0,7.5,1.32Zm0-.495A6.53,6.53,0,0,1,.975-5.7,6.53,6.53,0,0,1,7.5-12.225,6.53,6.53,0,0,1,14.025-5.7,6.53,6.53,0,0,1,7.5.825Zm-2.655-2.7H10.5v-1.29H8.55c-.495,0-1.065.03-1.515.075,1.7-1.545,3.135-2.985,3.135-4.4A2.41,2.41,0,0,0,7.47-9.87,3.692,3.692,0,0,0,4.71-8.64l.855.825A2.618,2.618,0,0,1,7.3-8.67a1.219,1.219,0,0,1,1.38,1.32c0,1.17-1.47,2.535-3.84,4.59Zm18.6-9.42h-1.56V-9.06A6.944,6.944,0,0,1,18.45-2.88l.975,1.23A7,7,0,0,0,22.68-5.94a6.677,6.677,0,0,0,3.21,4.065l.915-1.245a6.516,6.516,0,0,1-3.36-5.94ZM28.23-12.42v4.455h-2.9V-6.7h2.9V1.17h1.56V-12.42Zm13.4.015V1.185h1.56v-13.59ZM32.76-11.28v9.24h6.51v-9.24H37.725v3.45H34.29v-3.45ZM34.29-6.6h3.435v3.315H34.29Zm23,.825c-2.67-.48-4.845-2.565-4.845-4.725v-1.02H50.805v1.02c0,2.145-2.175,4.23-4.845,4.725L46.62-4.5a7.092,7.092,0,0,0,4.995-3.72A7.092,7.092,0,0,0,56.61-4.5ZM45.54-1.86V-.585H57.81V-1.86ZM71.535-9.7a28.608,28.608,0,0,1-.48,5.955l1.545.18A30.739,30.739,0,0,0,73.08-9.7V-11.13H63.33v1.26h8.2ZM69.81-1.89V-6.27H68.28v4.38H66.465V-6.27h-1.53v4.38h-2.82V-.615h12.24V-1.89Zm11.925-9c2.01,0,3.225.51,3.225,1.425s-1.215,1.41-3.225,1.41c-2.025,0-3.24-.51-3.24-1.41S79.71-10.89,81.735-10.89Zm0,4.05c2.94,0,4.83-.99,4.83-2.625s-1.89-2.625-4.83-2.625c-2.955,0-4.83.99-4.83,2.625S78.78-6.84,81.735-6.84ZM83.22-3.225h-3V-4.71h3ZM87.855-4.71V-5.955H75.585V-4.71h3.09v1.485h-1.71V-2H84.81v3.15h1.545v-4.38h-1.59V-4.71Z" transform="translate(9.995 230)"/>
  <path id="패스_23878" data-name="패스 23878" class="cls-6" d="M3.71-4.256a.738.738,0,0,0,.728-.756.725.725,0,0,0-.728-.77A.722.722,0,0,0,3-5.012.736.736,0,0,0,3.71-4.256ZM12.166-6.79l.126.658,7.742-.448a21.342,21.342,0,0,1-.448,3.234l.742.084a25.842,25.842,0,0,0,.49-5.642v-1.232h-8.33v.63h7.6v.6c0,.56,0,1.12-.028,1.75Zm4.27,5.278V-4.886h-.728v3.374H11.1v.63H22.33v-.63Zm8.918-1.316V-9.576h5.054v-.658h-5.8V-2.17h.966a31.861,31.861,0,0,0,6.09-.462l-.1-.644a30.7,30.7,0,0,1-5.992.448Zm7.77-8.624V.994h.742V-11.452ZM48.762.168H42.476V-1.708h6.286Zm0-2.492H42.476V-4.13h-.742V.784H49.5V-4.13h-.742Zm-6.02-3.5a2.264,2.264,0,0,1-2.436-2.2,2.248,2.248,0,0,1,2.436-2.2,2.248,2.248,0,0,1,2.436,2.2A2.264,2.264,0,0,1,42.742-5.824Zm6.02-5.628v3.08H45.878a2.9,2.9,0,0,0-3.136-2.478,2.859,2.859,0,0,0-3.15,2.828,2.867,2.867,0,0,0,3.15,2.828,2.889,2.889,0,0,0,3.136-2.534h2.884v2.94H49.5v-6.664Zm12.32,4.858h-6.8v-3.514h6.8Zm.728-4.13H53.55v4.746h8.26Zm1.512,6.65h-11.3v.63h5.25V.966h.742v-4.41h5.306Zm13.65-7.378V.98h.742V-11.452Zm-5.726,1.008c-1.82,0-3.094,1.68-3.094,4.27S69.426-1.9,71.246-1.9s3.08-1.666,3.08-4.27S73.052-10.444,71.246-10.444Zm0,.658c1.386,0,2.366,1.484,2.366,3.612s-.98,3.626-2.366,3.626-2.38-1.5-2.38-3.626S69.846-9.786,71.246-9.786ZM83.426-2.66a2,2,0,0,1-1.96-2.128,2.008,2.008,0,0,1,1.96-2.128A2.01,2.01,0,0,1,85.4-4.788,2,2,0,0,1,83.426-2.66Zm0-4.886a2.6,2.6,0,0,0-2.632,2.758,2.605,2.605,0,0,0,2.632,2.772,2.6,2.6,0,0,0,2.646-2.772A2.6,2.6,0,0,0,83.426-7.546Zm.378-3.528h-.742v1.9H80.29v.63h6.3v-.63H83.8Zm6.216-.378V-6.1H88.046v-5.04h-.728V.322h.728v-5.8H90.02V.98h.728V-11.452Z" transform="translate(10 258.825)"/>
  <path id="패스_23879" data-name="패스 23879" class="cls-6" d="M3.71-4.256a.738.738,0,0,0,.728-.756.725.725,0,0,0-.728-.77A.722.722,0,0,0,3-5.012.736.736,0,0,0,3.71-4.256Zm16.73-7.21V.994h.742v-12.46Zm-8.582,1.092v8.3H17.57v-8.3h-.742V-6.93H12.6v-3.444Zm.742,4.06h4.228V-2.7H12.6ZM24.724-3.78c1.652-.378,3.934-1.68,4.69-3.528.77,1.834,3.066,3.122,4.732,3.5l.322-.6c-1.778-.308-4.676-2.03-4.676-4.172v-.882h4.326v-.63H24.71v.63h4.326v.882c0,2.142-2.884,3.892-4.648,4.214ZM23.772-1.4v.63H35.056V-1.4ZM38.066-2.968v-7.266h-.728V-2.31H38.3a29.315,29.315,0,0,0,6.1-.616L44.3-3.57a28.243,28.243,0,0,1-5.992.6Zm7.714-8.484V.98h.742V-11.452ZM59.752-5c-1.764-.35-4.634-2.226-4.634-4.522v-.994h-.77v.994c0,2.31-2.828,4.158-4.606,4.522l.35.63A7.191,7.191,0,0,0,54.74-8.12,7.205,7.205,0,0,0,59.4-4.368ZM49.14-1.428V-.8H60.424v-.63Zm16.814-7.9h3.234v6.216H65.954Zm-.7,6.832h4.634V-9.926H65.254Zm9.282-8.96v5.04H72.464v-4.732H71.75V.322h.714v-6.1h2.072V.98h.714V-11.452Zm4.312,8.736v-7.322h-.742v7.966h.91a28.158,28.158,0,0,0,5.684-.5l-.126-.644a25.748,25.748,0,0,1-5.558.5Zm7.966-8.736V-7.21H82.7v.63h4.116V.994h.742V-11.452Z" transform="translate(10 283.829)"/>
  <path id="패스_23880" data-name="패스 23880" class="cls-6" d="M3.71-4.256a.738.738,0,0,0,.728-.756.725.725,0,0,0-.728-.77A.722.722,0,0,0,3-5.012.736.736,0,0,0,3.71-4.256ZM15.246-10.3H14.5v2.478A6.922,6.922,0,0,1,11.172-2.31l.476.588a7.536,7.536,0,0,0,3.234-4.452,7.264,7.264,0,0,0,3.29,4.228l.434-.6a6.551,6.551,0,0,1-3.36-5.278Zm5.236-1.148v4.424H17.276v.616h3.206V.994h.742V-11.452Zm12.642-.014V.994h.742v-12.46Zm-8.582,1.092v8.3h5.712v-8.3h-.742V-6.93H25.284v-3.444Zm.742,4.06h4.228V-2.7H25.284ZM47.068-5c-1.764-.35-4.634-2.226-4.634-4.522v-.994h-.77v.994c0,2.31-2.828,4.158-4.606,4.522l.35.63A7.191,7.191,0,0,0,42.056-8.12a7.205,7.205,0,0,0,4.662,3.752ZM36.456-1.428V-.8H47.74v-.63ZM53.34-9.548h4.116v6.664H53.34Zm-.728,7.28H58.17v-7.9H52.612Zm11.074-4.06H61.5v-5.124H60.76V.966H61.5V-5.7h2.184Zm11.158-5.11H74.1v9.17h.742ZM65.8-7.546a2.339,2.339,0,0,1,2.436-2.338,2.339,2.339,0,0,1,2.436,2.338A2.354,2.354,0,0,1,68.236-5.18,2.354,2.354,0,0,1,65.8-7.546Zm5.586,0a2.962,2.962,0,0,0-3.15-3,2.962,2.962,0,0,0-3.15,3,2.976,2.976,0,0,0,3.15,3.024A2.976,2.976,0,0,0,71.386-7.546ZM67.774.042V-3.234h-.742V.672h8.232V.042ZM87.3-5.348H79.632V-9.6h7.546v-.63H78.9v5.516h8.4ZM77.392-1.456v.63H88.676v-.63Z" transform="translate(10 308.833)"/>
</svg>
