<svg id="구성_요소_98_1" data-name="구성 요소 98 – 1" xmlns="http://www.w3.org/2000/svg" xmlns:xlink="http://www.w3.org/1999/xlink" width="836" height="727.114" viewBox="0 0 836 727.114">
  <defs>
    <style>
      .cls-1, .cls-5, .cls-6, .cls-7, .cls-8 {
        fill: none;
      }

      .cls-2 {
        fill: #f5f6f7;
      }

      .cls-3 {
        fill: #fff;
      }

      .cls-13, .cls-4 {
        fill: #1e2323;
      }

      .cls-5, .cls-6, .cls-7 {
        stroke: #3e3a39;
      }

      .cls-6, .cls-7 {
        stroke-linecap: round;
        stroke-linejoin: round;
      }

      .cls-6 {
        stroke-dasharray: 0 3.036;
      }

      .cls-8 {
        stroke: #d38f02;
        stroke-miterlimit: 10;
        stroke-width: 0.8px;
      }

      .cls-9 {
        fill: #d38f02;
      }

      .cls-10 {
        fill: #d6a803;
      }

      .cls-11 {
        fill: #333;
      }

      .cls-12 {
        fill: #685239;
      }

      .cls-13 {
        font-size: 14px;
        font-family: NotoSansKR-Light, Noto Sans KR;
        font-weight: 300;
      }

      .cls-14 {
        clip-path: url(#clip-path);
      }

      .cls-15 {
        fill: #2b2e34;
      }
    </style>
    <clipPath id="clip-path">
      <path id="패스_23509" data-name="패스 23509" class="cls-1" d="M0,0H48.931V-47.769H0Z"/>
    </clipPath>
  </defs>
  <rect id="사각형_151" data-name="사각형 151" class="cls-2" width="836" height="727.114"/>
  <rect id="사각형_152" data-name="사각형 152" class="cls-3" width="796" height="154.863" transform="translate(20 522.251)"/>
  <rect id="사각형_153" data-name="사각형 153" class="cls-3" width="796" height="154.863" transform="translate(20 288.39)"/>
  <rect id="사각형_154" data-name="사각형 154" class="cls-3" width="796" height="76.699" transform="translate(20 137.691)"/>
  <path id="패스_23763" data-name="패스 23763" class="cls-4" d="M3.792,3.184l1.152-.512a14.939,14.939,0,0,1-2.016-7.68,15.022,15.022,0,0,1,2.016-7.68l-1.152-.5A15.077,15.077,0,0,0,1.424-5.008,15.092,15.092,0,0,0,3.792,3.184ZM6.08,0h7.6V-1.568H10.736c-.576,0-1.312.048-1.92.112,2.5-2.384,4.3-4.736,4.3-7.008A3.33,3.33,0,0,0,9.568-12a4.621,4.621,0,0,0-3.584,1.76l1.04,1.024a3.194,3.194,0,0,1,2.32-1.312,1.92,1.92,0,0,1,2,2.16c0,1.936-1.792,4.224-5.264,7.3ZM18.752.208c2.3,0,3.808-2.048,3.808-6.144C22.56-10,21.056-12,18.752-12c-2.32,0-3.808,1.984-3.808,6.064C14.944-1.84,16.432.208,18.752.208Zm0-1.456c-1.2,0-2.048-1.28-2.048-4.688,0-3.376.848-4.608,2.048-4.608S20.8-9.312,20.8-5.936C20.8-2.528,19.952-1.248,18.752-1.248ZM24.384,0H31.1V-1.52H28.8V-11.776H27.408a7.234,7.234,0,0,1-2.56.9v1.168H26.96V-1.52H24.384ZM36.128-5.76c-1.232,0-1.9-.864-1.9-2.368,0-1.536.8-2.448,1.808-2.448,1.28,0,2.16,1.056,2.336,3.376A2.824,2.824,0,0,1,36.128-5.76ZM32.7-1.04A4.041,4.041,0,0,0,35.712.208c2.272,0,4.384-1.856,4.384-6.5,0-3.888-1.824-5.712-4.08-5.712a3.6,3.6,0,0,0-3.5,3.872c0,2.464,1.328,3.7,3.3,3.7A3.541,3.541,0,0,0,38.4-5.808C38.288-2.448,37.056-1.3,35.632-1.3a2.625,2.625,0,0,1-1.936-.88ZM55.056-4.7H56.7v-8.528H55.056v2.9H52.128v1.344h2.928ZM53.312-6.576A4.7,4.7,0,0,1,49.92-11.1v-1.344H48.256v1.424a5.056,5.056,0,0,1-3.584,4.848l.864,1.328a5.975,5.975,0,0,0,3.6-3.488,5.609,5.609,0,0,0,3.3,3.056ZM51.888-.064c-2.048,0-3.216-.528-3.216-1.472s1.168-1.472,3.216-1.472,3.232.528,3.232,1.472S53.936-.064,51.888-.064Zm0-4.24c-3.008,0-4.864,1.024-4.864,2.768s1.856,2.768,4.864,2.768c3.024,0,4.88-1.024,4.88-2.768S54.912-4.3,51.888-4.3ZM66.7-5.088a33.756,33.756,0,0,0,.4-5.648v-.96H59.76v1.328h5.728a30.12,30.12,0,0,1-.4,5.136ZM63.472-7.552H61.856V-3.2c-1.008.016-1.984.032-2.864.032l.176,1.36a55.743,55.743,0,0,0,8.816-.56L67.9-3.584c-1.408.192-2.928.272-4.432.336Zm8.992.272H70.336v-5.936H68.672V1.232h1.664v-7.12h2.128ZM74.608,3.184a14.968,14.968,0,0,0,2.384-8.192,14.954,14.954,0,0,0-2.384-8.176l-1.152.5a15.022,15.022,0,0,1,2.016,7.68,14.939,14.939,0,0,1-2.016,7.68Z" transform="translate(20 263.47)"/>
  <line id="선_341" data-name="선 341" class="cls-5" x2="796" transform="translate(20 442.556)"/>
  <line id="선_342" data-name="선 342" class="cls-5" x2="796" transform="translate(20 288.89)"/>
  <line id="선_343" data-name="선 343" class="cls-5" x2="796" transform="translate(20 214.89)"/>
  <line id="선_344" data-name="선 344" class="cls-6" y1="80.447" transform="translate(283.25 324.838)"/>
  <path id="패스_291" data-name="패스 291" class="cls-7" d="M8573.69,4483.968h0m0,85h0" transform="translate(-8290.44 -4160.647)"/>
  <line id="선_345" data-name="선 345" class="cls-6" y1="80.447" transform="translate(552.75 324.838)"/>
  <path id="패스_292" data-name="패스 292" class="cls-7" d="M8843.19,4483.968h0m0,85h0" transform="translate(-8290.44 -4160.647)"/>
  <path id="패스_23781" data-name="패스 23781" class="cls-4" d="M3.792,3.184l1.152-.512a14.939,14.939,0,0,1-2.016-7.68,15.022,15.022,0,0,1,2.016-7.68l-1.152-.5A15.077,15.077,0,0,0,1.424-5.008,15.092,15.092,0,0,0,3.792,3.184ZM7.424-7.28c2.528-.272,4.512-1.312,5.3-2.8.768,1.488,2.752,2.528,5.3,2.8l.576-1.3c-2.672-.272-4.528-1.392-4.752-2.688h4.224v-1.328H7.392v1.328h4.192c-.224,1.3-2.08,2.416-4.752,2.688ZM16-1.328c0,.832-1.2,1.3-3.312,1.3s-3.3-.464-3.3-1.3c0-.864,1.184-1.312,3.3-1.312S16-2.192,16-1.328Zm3.248-3.9V-6.544H6.176v1.312h5.712V-3.9c-2.624.16-4.176,1.072-4.176,2.576,0,1.632,1.872,2.56,4.976,2.56,3.12,0,4.976-.928,4.976-2.56,0-1.5-1.52-2.4-4.128-2.56V-5.232Zm9.824-1.184a4.468,4.468,0,0,1-3.408-4.176v-.272h3.024v-1.328h-7.76v1.328H24v.288a4.918,4.918,0,0,1-3.536,4.608l.832,1.3a5.881,5.881,0,0,0,3.584-3.36,5.426,5.426,0,0,0,3.392,2.9ZM27.216-.064c-2.016,0-3.184-.512-3.184-1.44,0-.944,1.168-1.44,3.184-1.44s3.184.5,3.184,1.44C30.4-.576,29.232-.064,27.216-.064Zm0-4.176C24.24-4.24,22.4-3.232,22.4-1.5c0,1.712,1.84,2.736,4.816,2.736S32.032.208,32.032-1.5C32.032-3.232,30.192-4.24,27.216-4.24ZM31.872-9.7v-3.52H30.224v8.64h1.648v-3.76H33.92V-9.7Zm3.936-2v1.344H40.96c-.288,3.328-2.08,5.872-5.872,7.7l.88,1.312c4.96-2.4,6.688-6.048,6.688-10.352Zm9.456-1.52V1.232h1.648V-13.216ZM54.128-2.08H62.48V1.232h1.648v-4.64h-10Zm1.808-9.248h6.512v2.384H55.936Zm4.08,5.312V-7.632h4.048V-12.64H54.32v5.008h4.032v1.616h-5.7v1.328H65.744V-6.016ZM72.16-4.9h2.848v3.1H72.16Zm-.24-5.744h3.328v4.416H71.92Zm4.72,8.848V-4.9h2.32V-6.224H76.88V-10.64h2.128v-1.328H68.144v1.328h2.128v4.416h-2.08V-4.9h2.32v3.1h-3.44v1.36h13.1v-1.36Zm5.9,4.976a14.968,14.968,0,0,0,2.384-8.192,14.954,14.954,0,0,0-2.384-8.176l-1.152.5a15.022,15.022,0,0,1,2.016,7.68,14.939,14.939,0,0,1-2.016,7.68Z" transform="translate(20 497.333)"/>
  <line id="선_346" data-name="선 346" class="cls-5" x2="796" transform="translate(20 522.752)"/>
  <line id="선_347" data-name="선 347" class="cls-6" y1="80.447" transform="translate(283.25 558.701)"/>
  <path id="패스_293" data-name="패스 293" class="cls-7" d="M8573.69,4717.83h0m0,85h0" transform="translate(-8290.44 -4160.647)"/>
  <line id="선_348" data-name="선 348" class="cls-6" y1="80.447" transform="translate(552.75 558.701)"/>
  <path id="패스_294" data-name="패스 294" class="cls-7" d="M8843.19,4717.83h0m0,85h0" transform="translate(-8290.44 -4160.647)"/>
  <line id="선_349" data-name="선 349" class="cls-8" x2="154.88" transform="translate(340.56 184.79)"/>
  <path id="패스_23759" data-name="패스 23759" class="cls-9" d="M11.856-7.472a13.682,13.682,0,0,0,.4-3.84v-1.216H2.336V-11.2h8.288a12.886,12.886,0,0,1-.384,3.552ZM7.3-.032C5.152-.032,3.84-.56,3.84-1.472,3.84-2.368,5.152-2.9,7.3-2.9c2.128,0,3.408.528,3.408,1.424C10.7-.56,9.424-.032,7.3-.032Zm0-4.128c-3.12,0-5.088,1.024-5.088,2.688,0,1.68,1.968,2.7,5.088,2.7,3.072,0,5.056-1.024,5.056-2.7C12.352-3.136,10.368-4.16,7.3-4.16Zm.32-2.448V-9.264H5.952v2.656H.832V-5.28H13.856V-6.608ZM16.032-11.7v1.344h5.152c-.288,3.328-2.08,5.872-5.872,7.7l.88,1.312c4.96-2.4,6.688-6.048,6.688-10.352Zm9.456-1.52V1.232h1.648V-13.216Zm7.344,9.3h7.12V-5.152h-7.12ZM52.208-9.232v1.36h2.608V-4.48h1.648v-8.752H54.816v4Zm.9,2.944c-2.208-.64-3.52-2.208-3.52-3.856v-.128h3.04v-1.312H49.6V-13.3H47.936v1.712H44.9v1.312h3.04v.128a4.522,4.522,0,0,1-3.472,4.208l.8,1.28a5.623,5.623,0,0,0,3.552-3.1,5.562,5.562,0,0,0,3.52,2.736ZM51.648-.048c-2.048,0-3.216-.512-3.216-1.424S49.6-2.88,51.648-2.88c2.064,0,3.232.5,3.232,1.408S53.712-.048,51.648-.048Zm0-4.112c-3.024,0-4.864.992-4.864,2.688s1.84,2.7,4.864,2.7,4.88-1.008,4.88-2.7S54.672-4.16,51.648-4.16ZM66.656-9.584V-8.24h2.56v3.632h1.648v-8.608H69.216v3.632Zm.832,3.216A4.739,4.739,0,0,1,64.1-10.72v-.192H67.1V-12.24H59.376v1.328h3.056v.208A5.073,5.073,0,0,1,58.9-6l.848,1.312A5.98,5.98,0,0,0,63.312-8.16a5.644,5.644,0,0,0,3.36,3.088ZM66.064-.032c-2.064,0-3.232-.512-3.232-1.456S64-2.944,66.064-2.944c2.032,0,3.216.512,3.216,1.456S68.1-.032,66.064-.032Zm0-4.192c-3.024,0-4.88,1.024-4.88,2.736,0,1.728,1.856,2.736,4.88,2.736,3.008,0,4.864-1.008,4.864-2.736C70.928-3.2,69.072-4.224,66.064-4.224ZM81.84-11.568H78.4v-1.664H76.752v1.664h-3.44v1.312H81.84Zm-6.192,4.72c0-.912.784-1.456,1.92-1.456,1.152,0,1.936.544,1.936,1.456s-.784,1.456-1.936,1.456C76.432-5.392,75.648-5.936,75.648-6.848Zm5.424,0c0-1.632-1.424-2.736-3.5-2.736-2.064,0-3.5,1.1-3.5,2.736,0,1.648,1.44,2.736,3.5,2.736C79.648-4.112,81.072-5.2,81.072-6.848ZM77.088-3.216H75.424V.96h9.728V-.384H77.088Zm7.488-5.392v-4.608H82.928V-2.384h1.648V-7.248h2.048v-1.36Zm17.44,1.136a13.682,13.682,0,0,0,.4-3.84v-1.216H92.5V-11.2h8.288a12.886,12.886,0,0,1-.384,3.552Zm-4.56,7.44C95.312-.032,94-.56,94-1.472c0-.9,1.312-1.424,3.456-1.424,2.128,0,3.408.528,3.408,1.424C100.864-.56,99.584-.032,97.456-.032Zm0-4.128c-3.12,0-5.088,1.024-5.088,2.688,0,1.68,1.968,2.7,5.088,2.7,3.072,0,5.056-1.024,5.056-2.7C102.512-3.136,100.528-4.16,97.456-4.16Zm.32-2.448V-9.264H96.112v2.656h-5.12V-5.28h13.024V-6.608Zm8.416-5.088v1.344h5.152c-.288,3.328-2.08,5.872-5.872,7.7l.88,1.312c4.96-2.4,6.688-6.048,6.688-10.352Zm9.456-1.52V1.232H117.3V-13.216Zm9.552,1.408h-1.648v9.44h1.2a35.039,35.039,0,0,0,6.864-.64l-.192-1.36a32.172,32.172,0,0,1-6.224.624Zm11.232,4.224H134.24v-5.632h-1.648V1.232h1.648V-6.224h2.192ZM149.04-9.456h-8.224v-3.52h-1.648v4.848h9.872ZM147.28-.272h-6.56V-2.608h6.56Zm3.248-5.2V-6.816H137.472v1.344h5.648V-3.92H139.1V1.056H148.9V-3.92h-4.128V-5.472Z" transform="translate(340.561 182.39)"/>
  <path id="패스_23760" data-name="패스 23760" class="cls-4" d="M4.186.182c2,0,3.3-1.2,3.3-2.772s-.98-2.2-2.142-2.716L3.822-5.978C3.08-6.3,2.086-6.734,2.086-7.9c0-1.05.868-1.736,2.17-1.736A3.275,3.275,0,0,1,6.664-8.61l.476-.546a3.9,3.9,0,0,0-2.884-1.232c-1.736,0-3.024,1.05-3.024,2.562A2.831,2.831,0,0,0,3.3-5.278l1.526.672c1.008.448,1.806.84,1.806,2.072,0,1.162-.938,1.96-2.45,1.96A3.93,3.93,0,0,1,1.232-1.932l-.518.588A4.542,4.542,0,0,0,4.186.182ZM9.408,0H11.83c3.122,0,4.662-2.016,4.662-5.138s-1.54-5.068-4.676-5.068H9.408Zm.84-.714V-9.506h1.484c2.688,0,3.878,1.722,3.878,4.368S14.42-.714,11.732-.714ZM22.4.182A4.139,4.139,0,0,0,25.466-.98v-4.1H22.288v.714h2.366V-1.3a3.168,3.168,0,0,1-2.17.728c-2.3,0-3.626-1.778-3.626-4.564,0-2.758,1.414-4.494,3.682-4.494A2.986,2.986,0,0,1,24.864-8.61l.49-.546a3.759,3.759,0,0,0-2.828-1.232c-2.688,0-4.55,2.016-4.55,5.278S19.768.182,22.4.182Zm7.2,0c1.652,0,2.562-.98,2.562-2.128,0-1.442-1.26-1.848-2.408-2.282-.868-.322-1.736-.63-1.736-1.456,0-.672.5-1.288,1.61-1.288A2.861,2.861,0,0,1,31.4-6.3l.42-.56a3.6,3.6,0,0,0-2.17-.8c-1.568,0-2.45.924-2.45,2.016,0,1.288,1.232,1.75,2.338,2.142.868.308,1.806.714,1.806,1.6,0,.77-.574,1.414-1.708,1.414a3.418,3.418,0,0,1-2.352-.938l-.434.588A4.373,4.373,0,0,0,29.6.182ZM39,.182A2.854,2.854,0,0,0,42.084-2.7a2.66,2.66,0,0,0-2.24-2.632V-5.4a2.547,2.547,0,0,0,1.876-2.52A2.484,2.484,0,0,0,38.962-10.4a3.965,3.965,0,0,0-2.73,1.2l.476.56a3.2,3.2,0,0,1,2.24-1.078A1.787,1.787,0,0,1,40.88-7.868c0,1.218-.784,2.184-3.024,2.184V-5c2.436,0,3.388.924,3.388,2.3A2.125,2.125,0,0,1,38.976-.518a3.491,3.491,0,0,1-2.688-1.246l-.462.546A4.127,4.127,0,0,0,39,.182Zm5.432,0a.719.719,0,0,0,.714-.756.723.723,0,0,0-.714-.77.723.723,0,0,0-.714.77A.719.719,0,0,0,44.436.182Zm5.054-4.76c-1.414,0-2.044-1.078-2.044-2.548s.826-2.59,1.932-2.59c1.6,0,2.408,1.414,2.492,3.64A3.057,3.057,0,0,1,49.49-4.578ZM46.844-.8A2.98,2.98,0,0,0,49.1.182c1.862,0,3.584-1.54,3.584-5.838,0-3.08-1.316-4.732-3.29-4.732a3,3,0,0,0-2.758,3.262c0,2.072,1.05,3.206,2.758,3.206a3.324,3.324,0,0,0,2.492-1.358C51.8-1.75,50.526-.518,49.112-.518a2.3,2.3,0,0,1-1.778-.812Z" transform="translate(390.89 204.39)"/>
  <line id="선_350" data-name="선 350" class="cls-8" x2="140.479" transform="translate(596.903 184.79)"/>
  <path id="패스_23761" data-name="패스 23761" class="cls-9" d="M5.872-12.016H4.224v2.368A7.313,7.313,0,0,1,.56-3.136L1.568-1.808A7.466,7.466,0,0,0,5.056-6.336,7.2,7.2,0,0,0,8.384-2.08L9.392-3.392a7.011,7.011,0,0,1-3.52-6.256Zm8.384,4.528H12v-5.728H10.352V1.232H12v-7.36h2.256Zm9.36.432a33.262,33.262,0,0,1-6.208.464V-8.3H22.32v-4.16H15.76v1.344h4.928v1.552h-4.9v4.32H16.96a36.87,36.87,0,0,0,6.832-.464ZM18.88-2.64h6V-.256h-6Zm-1.616,3.7H26.5V-3.936H17.264ZM28.544-9.632H26.5V-13.2H24.848v8.592H26.5V-8.272h2.048ZM32.832-3.92h7.12V-5.152h-7.12ZM54.3-.272H47.728V-2.816H54.3ZM57.6-6.3V-7.632H55.616a18.134,18.134,0,0,0,.416-4.208v-.72H51.376v1.328h3.056a16.488,16.488,0,0,1-.464,3.6h-4.08a16.181,16.181,0,0,0,.512-4.336v-.592H45.712v1.328h3.072a15.336,15.336,0,0,1-.528,3.6H44.48V-6.3h5.7v2.176H46.112V1.056H55.92V-4.128h-4.1V-6.3Zm8.864,1.216a33.757,33.757,0,0,0,.4-5.648v-.96H59.52v1.328h5.728a30.12,30.12,0,0,1-.4,5.136ZM63.232-7.552H61.616V-3.2c-1.008.016-1.984.032-2.864.032l.176,1.36a55.743,55.743,0,0,0,8.816-.56l-.08-1.216c-1.408.192-2.928.272-4.432.336Zm8.992.272H70.1v-5.936H68.432V1.232H70.1v-7.12h2.128ZM86.8-13.232v14.5h1.664v-14.5Zm-9.456,1.2v9.856h6.944v-9.856H82.64v3.68H78.976v-3.68ZM78.976-7.04H82.64V-3.5H78.976Zm19.7-2.3v1.36H101.3V-2.64h1.648V-13.2H101.3v3.856Zm.9,3.376A4.751,4.751,0,0,1,96.176-10.3v-.5h3.008v-1.328H91.456V-10.8h3.056v.5a5.029,5.029,0,0,1-3.552,4.64l.848,1.3a5.906,5.906,0,0,0,3.568-3.424,5.559,5.559,0,0,0,3.376,3.1ZM95.232-.384V-3.552H93.584V.96h9.728V-.384ZM110.8-11.808h-1.648v9.44h1.2a35.039,35.039,0,0,0,6.864-.64l-.192-1.36a32.172,32.172,0,0,1-6.224.624Zm11.232,4.224H119.84v-5.632h-1.648V1.232h1.648V-6.224h2.192ZM134.64-9.456h-8.224v-3.52h-1.648v4.848h9.872ZM132.88-.272h-6.56V-2.608h6.56Zm3.248-5.2V-6.816H123.072v1.344h5.648V-3.92H124.7V1.056H134.5V-3.92h-4.128V-5.472Z" transform="translate(596.903 182.39)"/>
  <path id="패스_23762" data-name="패스 23762" class="cls-4" d="M4.186.182c2,0,3.3-1.2,3.3-2.772s-.98-2.2-2.142-2.716L3.822-5.978C3.08-6.3,2.086-6.734,2.086-7.9c0-1.05.868-1.736,2.17-1.736A3.275,3.275,0,0,1,6.664-8.61l.476-.546a3.9,3.9,0,0,0-2.884-1.232c-1.736,0-3.024,1.05-3.024,2.562A2.831,2.831,0,0,0,3.3-5.278l1.526.672c1.008.448,1.806.84,1.806,2.072,0,1.162-.938,1.96-2.45,1.96A3.93,3.93,0,0,1,1.232-1.932l-.518.588A4.542,4.542,0,0,0,4.186.182ZM9.408,0H11.83c3.122,0,4.662-2.016,4.662-5.138s-1.54-5.068-4.676-5.068H9.408Zm.84-.714V-9.506h1.484c2.688,0,3.878,1.722,3.878,4.368S14.42-.714,11.732-.714ZM22.4.182A4.139,4.139,0,0,0,25.466-.98v-4.1H22.288v.714h2.366V-1.3a3.168,3.168,0,0,1-2.17.728c-2.3,0-3.626-1.778-3.626-4.564,0-2.758,1.414-4.494,3.682-4.494A2.986,2.986,0,0,1,24.864-8.61l.49-.546a3.759,3.759,0,0,0-2.828-1.232c-2.688,0-4.55,2.016-4.55,5.278S19.768.182,22.4.182Zm7.2,0c1.652,0,2.562-.98,2.562-2.128,0-1.442-1.26-1.848-2.408-2.282-.868-.322-1.736-.63-1.736-1.456,0-.672.5-1.288,1.61-1.288A2.861,2.861,0,0,1,31.4-6.3l.42-.56a3.6,3.6,0,0,0-2.17-.8c-1.568,0-2.45.924-2.45,2.016,0,1.288,1.232,1.75,2.338,2.142.868.308,1.806.714,1.806,1.6,0,.77-.574,1.414-1.708,1.414a3.418,3.418,0,0,1-2.352-.938l-.434.588A4.373,4.373,0,0,0,29.6.182Zm9.59,0a2.761,2.761,0,0,0,3.052-2.59A3,3,0,0,0,40.5-5.068v-.07a3.568,3.568,0,0,0,1.4-2.534,2.535,2.535,0,0,0-2.7-2.674,2.5,2.5,0,0,0-2.632,2.52,2.818,2.818,0,0,0,1.4,2.324v.056a3.452,3.452,0,0,0-1.946,2.912A2.879,2.879,0,0,0,39.186.182ZM39.9-5.362c-1.274-.5-2.548-1.078-2.548-2.464a1.787,1.787,0,0,1,1.834-1.862,1.918,1.918,0,0,1,1.96,2.044A2.977,2.977,0,0,1,39.9-5.362ZM39.186-.476a2.2,2.2,0,0,1-2.394-2.1,3.036,3.036,0,0,1,1.666-2.562c1.54.6,2.968,1.162,2.968,2.716A2.026,2.026,0,0,1,39.186-.476Zm5.25.658a.719.719,0,0,0,.714-.756.723.723,0,0,0-.714-.77.723.723,0,0,0-.714.77A.719.719,0,0,0,44.436.182Zm5.166,0A2.854,2.854,0,0,0,52.682-2.7a2.66,2.66,0,0,0-2.24-2.632V-5.4a2.547,2.547,0,0,0,1.876-2.52A2.484,2.484,0,0,0,49.56-10.4a3.965,3.965,0,0,0-2.73,1.2l.476.56a3.2,3.2,0,0,1,2.24-1.078,1.787,1.787,0,0,1,1.932,1.848c0,1.218-.784,2.184-3.024,2.184V-5c2.436,0,3.388.924,3.388,2.3A2.125,2.125,0,0,1,49.574-.518a3.491,3.491,0,0,1-2.688-1.246l-.462.546A4.127,4.127,0,0,0,49.6.182Zm4.662,2.282a2.909,2.909,0,0,0,1.68-2.6c0-.742-.336-1.2-.84-1.2a.7.7,0,0,0-.742.7A.686.686,0,0,0,55.09.07a.682.682,0,0,0,.168-.014,2.118,2.118,0,0,1-1.232,1.876ZM63.294.182a2.761,2.761,0,0,0,3.052-2.59,3,3,0,0,0-1.736-2.66v-.07a3.568,3.568,0,0,0,1.4-2.534,2.535,2.535,0,0,0-2.7-2.674,2.5,2.5,0,0,0-2.632,2.52,2.818,2.818,0,0,0,1.4,2.324v.056A3.452,3.452,0,0,0,60.13-2.534,2.879,2.879,0,0,0,63.294.182Zm.714-5.544c-1.274-.5-2.548-1.078-2.548-2.464a1.787,1.787,0,0,1,1.834-1.862,1.918,1.918,0,0,1,1.96,2.044A2.977,2.977,0,0,1,64.008-5.362ZM63.294-.476a2.2,2.2,0,0,1-2.394-2.1,3.036,3.036,0,0,1,1.666-2.562c1.54.6,2.968,1.162,2.968,2.716A2.026,2.026,0,0,1,63.294-.476Zm5.25.658a.719.719,0,0,0,.714-.756.723.723,0,0,0-.714-.77.723.723,0,0,0-.714.77A.719.719,0,0,0,68.544.182Zm5.1,0a3.233,3.233,0,0,0,3.192-3.458c0-2.268-1.344-3.276-3.024-3.276a3.147,3.147,0,0,0-1.708.49l.294-3.43h3.934v-.714H71.666l-.35,4.662.532.322a2.959,2.959,0,0,1,1.806-.644,2.312,2.312,0,0,1,2.338,2.618,2.5,2.5,0,0,1-2.38,2.73,3.436,3.436,0,0,1-2.674-1.2l-.448.574A4.2,4.2,0,0,0,73.64.182Zm4.732,2.282a2.909,2.909,0,0,0,1.68-2.6c0-.742-.336-1.2-.84-1.2a.7.7,0,0,0-.742.7A.686.686,0,0,0,79.2.07a.682.682,0,0,0,.168-.014,2.118,2.118,0,0,1-1.232,1.876ZM87.388.182a2.761,2.761,0,0,0,3.052-2.59A3,3,0,0,0,88.7-5.068v-.07a3.568,3.568,0,0,0,1.4-2.534,2.535,2.535,0,0,0-2.7-2.674,2.5,2.5,0,0,0-2.632,2.52A2.818,2.818,0,0,0,86.17-5.5v.056a3.452,3.452,0,0,0-1.946,2.912A2.879,2.879,0,0,0,87.388.182ZM88.1-5.362c-1.274-.5-2.548-1.078-2.548-2.464a1.787,1.787,0,0,1,1.834-1.862,1.918,1.918,0,0,1,1.96,2.044A2.977,2.977,0,0,1,88.1-5.362ZM87.388-.476a2.2,2.2,0,0,1-2.394-2.1A3.036,3.036,0,0,1,86.66-5.138c1.54.6,2.968,1.162,2.968,2.716A2.026,2.026,0,0,1,87.388-.476Zm5.25.658a.719.719,0,0,0,.714-.756.723.723,0,0,0-.714-.77.723.723,0,0,0-.714.77A.719.719,0,0,0,92.638.182ZM98.308-.5c-1.554,0-2.352-1.428-2.478-3.668a3.068,3.068,0,0,1,2.338-1.456c1.456,0,2.072,1.064,2.072,2.548S99.414-.5,98.308-.5Zm2.548-8.9a2.794,2.794,0,0,0-2.17-.98c-1.918,0-3.668,1.456-3.668,5.572,0,3.248,1.3,5,3.276,5a3,3,0,0,0,2.758-3.262c0-2.1-1.036-3.206-2.772-3.206a3.285,3.285,0,0,0-2.464,1.33C95.858-8.47,97.16-9.688,98.7-9.688a2.135,2.135,0,0,1,1.666.812Z" transform="translate(615.155 204.39)"/>
  <line id="선_351" data-name="선 351" class="cls-8" x2="126.08" transform="translate(105.816 184.79)"/>
  <path id="패스_23757" data-name="패스 23757" class="cls-9" d="M10.576-9.6H4.1v-1.888h6.48Zm1.616-3.168H2.464V-8.3h9.728Zm1.7,6.784V-7.3H.8v1.312H6.5v1.2H2.352v1.248h8.272v1.024H2.384V1.1H12.656V-.16H4.016V-1.344H12.24v-3.44H8.16v-1.2ZM18.432-3.92h7.12V-5.152h-7.12Zm20.8-4.24h1.52v3.824H42.32V-13.2H40.752v3.7h-1.52v-3.44H37.68V-4.8h1.552ZM37.344-6.592a4.2,4.2,0,0,1-2.816-3.92v-1.824h-1.6v1.824a4.834,4.834,0,0,1-2.912,4.336l.864,1.264a5.418,5.418,0,0,0,2.864-3.056,5,5,0,0,0,2.72,2.608Zm.16,6.56c-2.032,0-3.248-.5-3.248-1.376,0-.9,1.216-1.392,3.248-1.392s3.248.5,3.248,1.392C40.752-.528,39.536-.032,37.5-.032Zm0-4.032c-3.008,0-4.9.992-4.9,2.656,0,1.648,1.888,2.64,4.9,2.64s4.9-.992,4.9-2.64C42.4-3.072,40.512-4.064,37.5-4.064Zm12.7-2.88H46.736v-3.888h3.472Zm4.608-2.7v1.52H51.808v-1.52ZM51.808-6.784h3.008V-4.7h1.648v-8.512H54.816v2.224H51.808v-1.152H45.12v6.512h6.688Zm-.16,6.736c-2.048,0-3.216-.528-3.216-1.488,0-.944,1.168-1.472,3.216-1.472s3.232.528,3.232,1.472C54.88-.576,53.7-.048,51.648-.048Zm0-4.256c-3.008,0-4.864,1.024-4.864,2.768s1.856,2.768,4.864,2.768c3.024,0,4.88-1.024,4.88-2.768S54.672-4.3,51.648-4.3Zm11.9-7.9c-2.256,0-3.92,1.424-3.92,3.472s1.664,3.472,3.92,3.472,3.936-1.424,3.936-3.472S65.808-12.208,63.552-12.208Zm0,1.408a2.092,2.092,0,0,1,2.32,2.064,2.1,2.1,0,0,1-2.32,2.064,2.1,2.1,0,0,1-2.3-2.064A2.086,2.086,0,0,1,63.552-10.8Zm5.568-2.432V1.248h1.664v-14.48ZM59.168-1.808a50.294,50.294,0,0,0,9.2-.64l-.112-1.2a66.054,66.054,0,0,1-9.3.48ZM86.336-9.6h-6.48v-1.888h6.48Zm1.616-3.168H78.224V-8.3h9.728Zm1.7,6.784V-7.3H76.56v1.312h5.7v1.2H78.112v1.248h8.272v1.024h-8.24V1.1H88.416V-.16h-8.64V-1.344H88v-3.44H83.92v-1.2ZM96.4-11.808H94.752v9.44h1.2a35.039,35.039,0,0,0,6.864-.64l-.192-1.36a32.172,32.172,0,0,1-6.224.624Zm11.232,4.224H105.44v-5.632h-1.648V1.232h1.648V-6.224h2.192ZM120.24-9.456h-8.224v-3.52h-1.648v4.848h9.872ZM118.48-.272h-6.56V-2.608h6.56Zm3.248-5.2V-6.816H108.672v1.344h5.648V-3.92H110.3V1.056H120.1V-3.92h-4.128V-5.472Z" transform="translate(105.816 182.39)"/>
  <path id="패스_23758" data-name="패스 23758" class="cls-4" d="M4.186.182c2,0,3.3-1.2,3.3-2.772s-.98-2.2-2.142-2.716L3.822-5.978C3.08-6.3,2.086-6.734,2.086-7.9c0-1.05.868-1.736,2.17-1.736A3.275,3.275,0,0,1,6.664-8.61l.476-.546a3.9,3.9,0,0,0-2.884-1.232c-1.736,0-3.024,1.05-3.024,2.562A2.831,2.831,0,0,0,3.3-5.278l1.526.672c1.008.448,1.806.84,1.806,2.072,0,1.162-.938,1.96-2.45,1.96A3.93,3.93,0,0,1,1.232-1.932l-.518.588A4.542,4.542,0,0,0,4.186.182ZM9.408,0H11.83c3.122,0,4.662-2.016,4.662-5.138s-1.54-5.068-4.676-5.068H9.408Zm.84-.714V-9.506h1.484c2.688,0,3.878,1.722,3.878,4.368S14.42-.714,11.732-.714ZM22.4.182A4.139,4.139,0,0,0,25.466-.98v-4.1H22.288v.714h2.366V-1.3a3.168,3.168,0,0,1-2.17.728c-2.3,0-3.626-1.778-3.626-4.564,0-2.758,1.414-4.494,3.682-4.494A2.986,2.986,0,0,1,24.864-8.61l.49-.546a3.759,3.759,0,0,0-2.828-1.232c-2.688,0-4.55,2.016-4.55,5.278S19.768.182,22.4.182Zm7.2,0c1.652,0,2.562-.98,2.562-2.128,0-1.442-1.26-1.848-2.408-2.282-.868-.322-1.736-.63-1.736-1.456,0-.672.5-1.288,1.61-1.288A2.861,2.861,0,0,1,31.4-6.3l.42-.56a3.6,3.6,0,0,0-2.17-.8c-1.568,0-2.45.924-2.45,2.016,0,1.288,1.232,1.75,2.338,2.142.868.308,1.806.714,1.806,1.6,0,.77-.574,1.414-1.708,1.414a3.418,3.418,0,0,1-2.352-.938l-.434.588A4.373,4.373,0,0,0,29.6.182ZM39.508-.5c-1.554,0-2.352-1.428-2.478-3.668a3.068,3.068,0,0,1,2.338-1.456c1.456,0,2.072,1.064,2.072,2.548S40.614-.5,39.508-.5Zm2.548-8.9a2.794,2.794,0,0,0-2.17-.98c-1.918,0-3.668,1.456-3.668,5.572,0,3.248,1.3,5,3.276,5A3,3,0,0,0,42.252-3.08c0-2.1-1.036-3.206-2.772-3.206a3.285,3.285,0,0,0-2.464,1.33C37.058-8.47,38.36-9.688,39.9-9.688a2.135,2.135,0,0,1,1.666.812Zm2.38,9.59a.719.719,0,0,0,.714-.756.723.723,0,0,0-.714-.77.723.723,0,0,0-.714.77A.719.719,0,0,0,44.436.182ZM47.278,0h5.264V-.714H50.414v-9.492h-.658a5.859,5.859,0,0,1-1.946.644v.546h1.778v8.3h-2.31Z" transform="translate(141.746 204.39)"/>
  <line id="선_352" data-name="선 352" class="cls-5" x2="115" transform="translate(20 127.191)"/>
  <g id="구성_요소_56_1" data-name="구성 요소 56 – 1" transform="translate(642.678 102.807)">
    <path id="패스_295" data-name="패스 295" d="M8982.049,4288.543a22.68,22.68,0,1,1-22.68-22.68,22.68,22.68,0,0,1,22.68,22.68" transform="translate(-8933.118 -4263.454)"/>
    <path id="패스_296" data-name="패스 296" class="cls-10" d="M8978.478,4286.134a22.68,22.68,0,1,1-22.68-22.68,22.679,22.679,0,0,1,22.68,22.68" transform="translate(-8933.118 -4263.454)"/>
    <path id="패스_23756" data-name="패스 23756" class="cls-3" d="M4.56.208c2.3,0,3.808-2.048,3.808-6.144C8.368-10,6.864-12,4.56-12,2.24-12,.752-10.016.752-5.936.752-1.84,2.24.208,4.56.208Zm0-1.456c-1.2,0-2.048-1.28-2.048-4.688,0-3.376.848-4.608,2.048-4.608S6.608-9.312,6.608-5.936C6.608-2.528,5.76-1.248,4.56-1.248ZM13.1.208c2.16,0,3.936-1.248,3.936-3.376a2.982,2.982,0,0,0-2.432-2.944v-.08A2.846,2.846,0,0,0,16.64-8.96c0-1.952-1.488-3.04-3.6-3.04a4.963,4.963,0,0,0-3.376,1.424l.96,1.152a3.448,3.448,0,0,1,2.352-1.12,1.648,1.648,0,0,1,1.808,1.712c0,1.184-.768,2.064-3.088,2.064v1.36c2.656,0,3.488.848,3.488,2.16A1.977,1.977,0,0,1,12.944-1.3a3.806,3.806,0,0,1-2.784-1.3l-.9,1.184A4.888,4.888,0,0,0,13.1.208Z" transform="translate(13.721 28.428)"/>
  </g>
  <g id="구성_요소_55_1" data-name="구성 요소 55 – 1" transform="translate(144.391 102.807)">
    <path id="패스_299" data-name="패스 299" d="M8483.762,4288.543a22.68,22.68,0,1,1-22.68-22.68,22.679,22.679,0,0,1,22.68,22.68" transform="translate(-8434.831 -4263.454)"/>
    <path id="패스_300" data-name="패스 300" class="cls-10" d="M8480.191,4286.134a22.68,22.68,0,1,1-22.681-22.68,22.68,22.68,0,0,1,22.681,22.68" transform="translate(-8434.831 -4263.454)"/>
    <path id="패스_23754" data-name="패스 23754" class="cls-3" d="M4.56.208c2.3,0,3.808-2.048,3.808-6.144C8.368-10,6.864-12,4.56-12,2.24-12,.752-10.016.752-5.936.752-1.84,2.24.208,4.56.208Zm0-1.456c-1.2,0-2.048-1.28-2.048-4.688,0-3.376.848-4.608,2.048-4.608S6.608-9.312,6.608-5.936C6.608-2.528,5.76-1.248,4.56-1.248ZM10.192,0h6.72V-1.52h-2.3V-11.776H13.216a7.234,7.234,0,0,1-2.56.9v1.168h2.112V-1.52H10.192Z" transform="translate(13.721 28.428)"/>
  </g>
  <line id="선_353" data-name="선 353" class="cls-5" x2="180" transform="translate(203.428 127.191)"/>
  <line id="선_354" data-name="선 354" class="cls-5" x2="180" transform="translate(452.571 127.191)"/>
  <line id="선_355" data-name="선 355" class="cls-5" x2="115" transform="translate(700.999 127.191)"/>
  <path id="패스_23775" data-name="패스 23775" class="cls-11" d="M8.76-5.925C6.7-6.51,5.535-7.95,5.535-9.495V-9.63h2.85v-1.23H5.55v-1.6H3.99v1.6H1.14v1.23H3.99v.135a4.165,4.165,0,0,1-3.255,3.9L1.47-4.38A5.276,5.276,0,0,0,4.8-7.26,5.132,5.132,0,0,0,8.055-4.725ZM6.975-.045C5.085-.045,3.99-.51,3.99-1.35s1.1-1.3,2.985-1.3S9.96-2.19,9.96-1.35,8.865-.045,6.975-.045Zm0-3.81c-2.8,0-4.515.93-4.515,2.5s1.71,2.5,4.515,2.5,4.515-.93,4.515-2.5S9.78-3.855,6.975-3.855ZM11.34-9.03v-3.375H9.8v8.25H11.34v-3.6h1.92V-9.03ZM23.955-.255H18.21v-1.5h5.745Zm0-2.7H18.21v-1.53H16.68V.99h8.805V-4.485h-1.53ZM17.985-6.72a1.893,1.893,0,0,1-2.055-1.9,1.874,1.874,0,0,1,2.055-1.89,1.877,1.877,0,0,1,2.04,1.89A1.9,1.9,0,0,1,17.985-6.72Zm5.955-5.67v3.12h-2.5a3.286,3.286,0,0,0-3.45-2.52,3.248,3.248,0,0,0-3.54,3.165,3.251,3.251,0,0,0,3.54,3.18,3.273,3.273,0,0,0,3.45-2.565h2.5v2.88h1.545v-7.26Zm8.82,2.625h3.015V-11.04h-7.59v1.275H31.2v1.29a6.624,6.624,0,0,1-3.5,5.82l.885,1.23a6.987,6.987,0,0,0,3.4-4.26,6.639,6.639,0,0,0,3.42,3.915l.855-1.215a6.111,6.111,0,0,1-3.51-5.49Zm4.59-2.625V1.155h1.56V-12.39ZM48.3-4.44v1.08h2.655V-2.1H52.5V-12.405H50.955V-4.44Zm-2.7-6.3c1.11,0,1.875.48,1.875,1.245S46.71-8.25,45.6-8.25s-1.89-.48-1.89-1.245S44.475-10.74,45.6-10.74Zm0,3.63c1.98,0,3.345-.945,3.345-2.385S47.58-11.88,45.6-11.88s-3.36.945-3.36,2.385S43.6-7.11,45.6-7.11Zm-.615,4.575H46.53v-2.61a30.118,30.118,0,0,0,3.48-.39l-.12-1.11a76.994,76.994,0,0,1-8.685.4L41.4-4.98c1.065,0,2.3-.015,3.585-.075ZM44.58-.36V-3.105H43.035v4h9.78V-.36Zm14.94-10.9H57.975v2.22A6.856,6.856,0,0,1,54.54-2.94l.945,1.245a7,7,0,0,0,3.27-4.245,6.747,6.747,0,0,0,3.12,3.99l.945-1.23a6.573,6.573,0,0,1-3.3-5.865ZM67.38-7.02H65.265v-5.37H63.72V1.155h1.545v-6.9H67.38ZM77.97-.255H72.225v-1.5H77.97Zm0-2.7H72.225v-1.53h-1.53V.99H79.5V-4.485H77.97ZM72-6.72a1.893,1.893,0,0,1-2.055-1.9A1.874,1.874,0,0,1,72-10.515a1.877,1.877,0,0,1,2.04,1.89A1.9,1.9,0,0,1,72-6.72Zm5.955-5.67v3.12H75.45A3.286,3.286,0,0,0,72-11.79a3.248,3.248,0,0,0-3.54,3.165A3.251,3.251,0,0,0,72-5.445,3.273,3.273,0,0,0,75.45-8.01h2.505v2.88H79.5v-7.26Zm14.91,6.345C90.81-6.615,89.64-8.07,89.64-9.6v-.075h2.85V-10.9H89.655V-12.45H88.1V-10.9h-2.85v1.23H88.1V-9.6A4.11,4.11,0,0,1,84.825-5.8L85.56-4.59a5.341,5.341,0,0,0,3.345-2.82A5.067,5.067,0,0,0,92.16-4.83ZM88.32-2.58h5.61V-.24H88.32ZM86.79.99h8.655v-4.8H86.79ZM97.365-9.075h-1.92V-12.39H93.9v7.98h1.545V-7.8h1.92Zm7.965,3.84a8.057,8.057,0,0,0,.12-1.395,7.462,7.462,0,0,0-.165-1.575h2.775v2.97Zm-3.315,2.01c-1.155,0-1.965-1.275-1.965-3.4,0-2.1.81-3.375,1.965-3.375,1.17,0,1.965,1.275,1.965,3.375C103.98-4.5,103.185-3.225,102.015-3.225Zm6.045-9.18V-9.48h-3.195a3.163,3.163,0,0,0-2.85-1.92c-1.995,0-3.42,1.86-3.42,4.77,0,2.94,1.425,4.785,3.42,4.785A3.166,3.166,0,0,0,104.94-3.96h3.12V1.185h1.56v-13.59Zm8.55,2.64h2.865V-11.04H112.11v1.275h2.955V-8.46a6.727,6.727,0,0,1-3.45,5.805l.885,1.23A7.059,7.059,0,0,0,115.86-5.7a6.842,6.842,0,0,0,3.285,3.93L120-2.985a6.346,6.346,0,0,1-3.39-5.475Zm7.86,2.715h-2.115v-5.34H120.81V1.155h1.545v-6.93h2.115Zm15.705-.345c-2.73-.39-4.77-2.085-4.77-3.84v-.72H133.77v.72c0,1.785-2.01,3.45-4.77,3.84l.6,1.245A6.811,6.811,0,0,0,134.6-9.21a6.854,6.854,0,0,0,4.98,3.06Zm.525,2.52H128.46v1.26h5.31V1.17h1.545V-3.615H140.7Z" transform="translate(600.5 335.921)"/>
  <path id="패스_23776" data-name="패스 23776" class="cls-12" d="M11.6-7.83h-8v-3.825H2.355v4.83H11.6Zm1.41,3.03H.78v1H6.24v4.9H7.47v-4.9h5.535Zm9.225-.975a4.632,4.632,0,0,1-3.27-4.11v-.54h2.955V-11.43H14.73v1.005h3v.54a4.888,4.888,0,0,1-3.39,4.41l.645.975A5.7,5.7,0,0,0,18.36-7.86a5.576,5.576,0,0,0,3.255,3.045Zm-5.85,3.21h7.755v3.69h1.23v-4.68H16.38Zm7.755-9.78v3.51H21.51v1h2.625v3.54h1.23v-8.055Z" transform="translate(600.5 382.916)"/>
  <path id="패스_23777" data-name="패스 23777" class="cls-12" d="M1.892,0H21.715V-3.4H12.986c-1.591,0-3.526.172-5.16.3,7.4-7.009,12.341-13.416,12.341-19.694,0-5.633-3.526-9.331-9.159-9.331-4,0-6.708,1.849-9.288,4.644L4-25.241c1.72-2.064,3.956-3.655,6.536-3.655,3.913,0,5.805,2.623,5.805,6.235,0,5.418-4.558,11.7-14.448,20.339ZM26.23,8.17A9.569,9.569,0,0,0,32.508-.817c0-2.881-1.247-4.644-3.311-4.644A2.8,2.8,0,0,0,26.23-2.709,2.694,2.694,0,0,0,29.111.043,1.764,1.764,0,0,0,29.584,0c-.043,2.623-1.634,4.687-4.3,5.848ZM45.494.559c5.59,0,10.1-3.354,10.1-8.987,0-4.3-2.967-7.138-6.708-8V-16.6c3.354-1.247,5.633-3.784,5.633-7.611,0-5.074-3.87-7.912-9.159-7.912a12.619,12.619,0,0,0-8.815,3.784l2.107,2.494a9.835,9.835,0,0,1,6.536-3.139c3.268.086,5.332,2.021,5.332,5.074,0,3.4-2.236,6.02-8.729,6.02v3.01c7.267,0,9.8,2.537,9.8,6.321,0,3.612-2.666,5.848-6.407,5.848a10.421,10.421,0,0,1-7.826-3.612l-1.978,2.58A13.048,13.048,0,0,0,45.494.559ZM69.1.559c5.977,0,9.8-5.461,9.8-16.426,0-10.922-3.827-16.254-9.8-16.254-6.02,0-9.847,5.289-9.847,16.254S63.081.559,69.1.559Zm0-3.139c-3.612,0-6.02-4-6.02-13.287,0-9.2,2.408-13.072,6.02-13.072,3.569,0,5.977,3.87,5.977,13.072C75.078-6.579,72.67-2.58,69.1-2.58ZM92.106.559c5.977,0,9.8-5.461,9.8-16.426,0-10.922-3.827-16.254-9.8-16.254-6.02,0-9.847,5.289-9.847,16.254S86.086.559,92.106.559Zm0-3.139c-3.612,0-6.02-4-6.02-13.287,0-9.2,2.408-13.072,6.02-13.072,3.569,0,5.977,3.87,5.977,13.072C98.083-6.579,95.675-2.58,92.106-2.58Z" transform="translate(631.4 382.921)"/>
  <path id="패스_23778" data-name="패스 23778" class="cls-12" d="M9.405-6.33H5.685v-4.005h3.72Zm4.29-2.835V-7.5H10.6V-9.165ZM10.6-6.51h3.09v2.13H14.94v-7.95H13.695v2.175H10.6v-1.17H4.47v5.97H10.6ZM10.485.135c-2.01,0-3.24-.585-3.24-1.575s1.23-1.575,3.24-1.575c2.04,0,3.27.585,3.27,1.575S12.525.135,10.485.135Zm0-4.11c-2.76,0-4.47.915-4.47,2.535S7.725,1.1,10.485,1.1,14.97.165,14.97-1.44,13.26-3.975,10.485-3.975Z" transform="translate(734.556 382.921)"/>
  <path id="패스_23780" data-name="패스 23780" class="cls-4" d="M.63,0H6.776V-.728H3.6c-.532,0-1.12.042-1.68.084C4.634-3.178,6.286-5.32,6.286-7.462a2.674,2.674,0,0,0-2.828-2.926,3.752,3.752,0,0,0-2.87,1.47l.518.49A3.04,3.04,0,0,1,3.374-9.7,2.006,2.006,0,0,1,5.46-7.434C5.46-5.586,4.088-3.486.63-.5ZM11.046.182c1.848,0,3-1.736,3-5.32,0-3.542-1.148-5.25-3-5.25s-3.01,1.708-3.01,5.25C8.036-1.554,9.184.182,11.046.182Zm0-.686c-1.33,0-2.2-1.54-2.2-4.634,0-3.038.868-4.564,2.2-4.564S13.23-8.176,13.23-5.138C13.23-2.044,12.362-.5,11.046-.5Zm4.83.5H21.14V-.714H19.012v-9.492h-.658a5.859,5.859,0,0,1-1.946.644v.546h1.778v8.3h-2.31ZM26-.5c-1.554,0-2.352-1.428-2.478-3.668a3.068,3.068,0,0,1,2.338-1.456c1.456,0,2.072,1.064,2.072,2.548S27.1-.5,26-.5Zm2.548-8.9a2.794,2.794,0,0,0-2.17-.98c-1.918,0-3.668,1.456-3.668,5.572,0,3.248,1.3,5,3.276,5A3,3,0,0,0,28.742-3.08c0-2.1-1.036-3.206-2.772-3.206a3.285,3.285,0,0,0-2.464,1.33c.042-3.514,1.344-4.732,2.884-4.732a2.135,2.135,0,0,1,1.666.812ZM39.354-2.2H40.1v-9.254h-.742V-9.7H35.532v.63h3.822V-7.28H35.532v.616h3.822ZM37.128-5.334a28.952,28.952,0,0,1-5.5.476h-.168v-5.628h-.742v6.272h.91a29.8,29.8,0,0,0,5.586-.476ZM33.04.042v-3.01H32.3V.672H40.46V.042ZM46.046,0H51.31V-.714H49.182v-9.492h-.658a5.859,5.859,0,0,1-1.946.644v.546h1.778v8.3h-2.31Zm6.636,0h6.146V-.728H55.65c-.532,0-1.12.042-1.68.084,2.716-2.534,4.368-4.676,4.368-6.818a2.674,2.674,0,0,0-2.828-2.926,3.752,3.752,0,0,0-2.87,1.47l.518.49A3.04,3.04,0,0,1,55.426-9.7a2.006,2.006,0,0,1,2.086,2.268c0,1.848-1.372,3.948-4.83,6.93Zm14.07-5.446V-4.9H69.4v.84h.742v-7.378H69.4v5.992Zm-2.618-5.18c1.4,0,2.324.532,2.324,1.316s-.924,1.316-2.324,1.316S61.8-8.526,61.8-9.31,62.72-10.626,64.134-10.626Zm0,3.178c1.834,0,3.038-.7,3.038-1.862s-1.2-1.862-3.038-1.862-3.038.7-3.038,1.862S62.286-7.448,64.134-7.448ZM63.686-4h.742V-6.062c1.288-.07,2.618-.168,3.864-.364l-.042-.518a72.079,72.079,0,0,1-8.176.35l.112.616c1.064,0,2.254-.014,3.5-.056ZM62.79.21V-1.176h7.35v-2.38H62.034V-3h7.378v1.274H62.076V.8h8.568V.21Z" transform="translate(600.5 408.921)"/>
  <path id="패스_23779" data-name="패스 23779" class="cls-4" d="M8.022-4.1A2.1,2.1,0,0,0,9.772-5.39l-.5-.336c-.364.714-.756.966-1.218.966-.882,0-1.6-1.372-2.786-1.372a2.075,2.075,0,0,0-1.75,1.3L4-4.508c.378-.714.77-.966,1.218-.966C6.118-5.474,6.818-4.1,8.022-4.1ZM13.734,0H19.88V-.728H16.7c-.532,0-1.12.042-1.68.084C17.738-3.178,19.39-5.32,19.39-7.462a2.674,2.674,0,0,0-2.828-2.926,3.752,3.752,0,0,0-2.87,1.47l.518.49A3.04,3.04,0,0,1,16.478-9.7a2.006,2.006,0,0,1,2.086,2.268c0,1.848-1.372,3.948-4.83,6.93ZM24.15.182c1.848,0,3-1.736,3-5.32,0-3.542-1.148-5.25-3-5.25s-3.01,1.708-3.01,5.25C21.14-1.554,22.288.182,24.15.182Zm0-.686c-1.33,0-2.2-1.54-2.2-4.634,0-3.038.868-4.564,2.2-4.564s2.184,1.526,2.184,4.564C26.334-2.044,25.466-.5,24.15-.5Zm4.83.5h5.264V-.714H32.116v-9.492h-.658a5.859,5.859,0,0,1-1.946.644v.546H31.29v8.3H28.98Zm9.506-4.578c-1.414,0-2.044-1.078-2.044-2.548s.826-2.59,1.932-2.59c1.6,0,2.408,1.414,2.492,3.64A3.057,3.057,0,0,1,38.486-4.578ZM35.84-.8a2.98,2.98,0,0,0,2.254.98c1.862,0,3.584-1.54,3.584-5.838,0-3.08-1.316-4.732-3.29-4.732A3,3,0,0,0,35.63-7.126c0,2.072,1.05,3.206,2.758,3.206A3.324,3.324,0,0,0,40.88-5.278C40.8-1.75,39.522-.518,38.108-.518A2.3,2.3,0,0,1,36.33-1.33ZM52.458-2.2H53.2v-9.254h-.742V-9.7H48.636v.63h3.822V-7.28H48.636v.616h3.822ZM50.232-5.334a28.952,28.952,0,0,1-5.5.476h-.168v-5.628H43.82v6.272h.91a29.8,29.8,0,0,0,5.586-.476ZM46.144.042v-3.01H45.4V.672h8.162V.042ZM59.136,0H64.4V-.714H62.272v-9.492h-.658a5.859,5.859,0,0,1-1.946.644v.546h1.778v8.3h-2.31Zm6.636,0h6.146V-.728H68.74c-.532,0-1.12.042-1.68.084,2.716-2.534,4.368-4.676,4.368-6.818A2.674,2.674,0,0,0,68.6-10.388a3.752,3.752,0,0,0-2.87,1.47l.518.49A3.04,3.04,0,0,1,68.516-9.7,2.006,2.006,0,0,1,70.6-7.434c0,1.848-1.372,3.948-4.83,6.93Zm14.07-5.446V-4.9h2.646v.84h.742v-7.378h-.742v5.992Zm-2.618-5.18c1.4,0,2.324.532,2.324,1.316s-.924,1.316-2.324,1.316-2.338-.532-2.338-1.316S75.81-10.626,77.224-10.626Zm0,3.178c1.834,0,3.038-.7,3.038-1.862s-1.2-1.862-3.038-1.862-3.038.7-3.038,1.862S75.376-7.448,77.224-7.448ZM76.776-4h.742V-6.062c1.288-.07,2.618-.168,3.864-.364l-.042-.518a72.079,72.079,0,0,1-8.176.35l.112.616c1.064,0,2.254-.014,3.5-.056ZM75.88.21V-1.176h7.35v-2.38H75.124V-3H82.5v1.274H75.166V.8h8.568V.21Z" transform="translate(673.23 408.921)"/>
  <path id="패스_23792" data-name="패스 23792" class="cls-11" d="M8.76-5.925C6.7-6.51,5.535-7.95,5.535-9.495V-9.63h2.85v-1.23H5.55v-1.6H3.99v1.6H1.14v1.23H3.99v.135a4.165,4.165,0,0,1-3.255,3.9L1.47-4.38A5.276,5.276,0,0,0,4.8-7.26,5.132,5.132,0,0,0,8.055-4.725ZM6.975-.045C5.085-.045,3.99-.51,3.99-1.35s1.1-1.3,2.985-1.3S9.96-2.19,9.96-1.35,8.865-.045,6.975-.045Zm0-3.81c-2.8,0-4.515.93-4.515,2.5s1.71,2.5,4.515,2.5,4.515-.93,4.515-2.5S9.78-3.855,6.975-3.855ZM11.34-9.03v-3.375H9.8v8.25H11.34v-3.6h1.92V-9.03ZM23.955-.255H18.21v-1.5h5.745Zm0-2.7H18.21v-1.53H16.68V.99h8.805V-4.485h-1.53ZM17.985-6.72a1.893,1.893,0,0,1-2.055-1.9,1.874,1.874,0,0,1,2.055-1.89,1.877,1.877,0,0,1,2.04,1.89A1.9,1.9,0,0,1,17.985-6.72Zm5.955-5.67v3.12h-2.5a3.286,3.286,0,0,0-3.45-2.52,3.248,3.248,0,0,0-3.54,3.165,3.251,3.251,0,0,0,3.54,3.18,3.273,3.273,0,0,0,3.45-2.565h2.5v2.88h1.545v-7.26Zm8.82,2.625h3.015V-11.04h-7.59v1.275H31.2v1.29a6.624,6.624,0,0,1-3.5,5.82l.885,1.23a6.987,6.987,0,0,0,3.4-4.26,6.639,6.639,0,0,0,3.42,3.915l.855-1.215a6.111,6.111,0,0,1-3.51-5.49Zm4.59-2.625V1.155h1.56V-12.39ZM48.3-4.44v1.08h2.655V-2.1H52.5V-12.405H50.955V-4.44Zm-2.7-6.3c1.11,0,1.875.48,1.875,1.245S46.71-8.25,45.6-8.25s-1.89-.48-1.89-1.245S44.475-10.74,45.6-10.74Zm0,3.63c1.98,0,3.345-.945,3.345-2.385S47.58-11.88,45.6-11.88s-3.36.945-3.36,2.385S43.6-7.11,45.6-7.11Zm-.615,4.575H46.53v-2.61a30.118,30.118,0,0,0,3.48-.39l-.12-1.11a76.994,76.994,0,0,1-8.685.4L41.4-4.98c1.065,0,2.3-.015,3.585-.075ZM44.58-.36V-3.105H43.035v4h9.78V-.36Zm14.94-10.9H57.975v2.22A6.856,6.856,0,0,1,54.54-2.94l.945,1.245a7,7,0,0,0,3.27-4.245,6.747,6.747,0,0,0,3.12,3.99l.945-1.23a6.573,6.573,0,0,1-3.3-5.865ZM67.38-7.02H65.265v-5.37H63.72V1.155h1.545v-6.9H67.38ZM77.97-.255H72.225v-1.5H77.97Zm0-2.7H72.225v-1.53h-1.53V.99H79.5V-4.485H77.97ZM72-6.72a1.893,1.893,0,0,1-2.055-1.9A1.874,1.874,0,0,1,72-10.515a1.877,1.877,0,0,1,2.04,1.89A1.9,1.9,0,0,1,72-6.72Zm5.955-5.67v3.12H75.45A3.286,3.286,0,0,0,72-11.79a3.248,3.248,0,0,0-3.54,3.165A3.251,3.251,0,0,0,72-5.445,3.273,3.273,0,0,0,75.45-8.01h2.505v2.88H79.5v-7.26Zm14.91,6.345C90.81-6.615,89.64-8.07,89.64-9.6v-.075h2.85V-10.9H89.655V-12.45H88.1V-10.9h-2.85v1.23H88.1V-9.6A4.11,4.11,0,0,1,84.825-5.8L85.56-4.59a5.341,5.341,0,0,0,3.345-2.82A5.067,5.067,0,0,0,92.16-4.83ZM88.32-2.58h5.61V-.24H88.32ZM86.79.99h8.655v-4.8H86.79ZM97.365-9.075h-1.92V-12.39H93.9v7.98h1.545V-7.8h1.92Zm7.965,3.84a8.057,8.057,0,0,0,.12-1.395,7.462,7.462,0,0,0-.165-1.575h2.775v2.97Zm-3.315,2.01c-1.155,0-1.965-1.275-1.965-3.4,0-2.1.81-3.375,1.965-3.375,1.17,0,1.965,1.275,1.965,3.375C103.98-4.5,103.185-3.225,102.015-3.225Zm6.045-9.18V-9.48h-3.195a3.163,3.163,0,0,0-2.85-1.92c-1.995,0-3.42,1.86-3.42,4.77,0,2.94,1.425,4.785,3.42,4.785A3.166,3.166,0,0,0,104.94-3.96h3.12V1.185h1.56v-13.59Zm8.55,2.64h2.865V-11.04H112.11v1.275h2.955V-8.46a6.727,6.727,0,0,1-3.45,5.805l.885,1.23A7.059,7.059,0,0,0,115.86-5.7a6.842,6.842,0,0,0,3.285,3.93L120-2.985a6.346,6.346,0,0,1-3.39-5.475Zm7.86,2.715h-2.115v-5.34H120.81V1.155h1.545v-6.93h2.115Zm15.705-.345c-2.73-.39-4.77-2.085-4.77-3.84v-.72H133.77v.72c0,1.785-2.01,3.45-4.77,3.84l.6,1.245A6.811,6.811,0,0,0,134.6-9.21a6.854,6.854,0,0,0,4.98,3.06Zm.525,2.52H128.46v1.26h5.31V1.17h1.545V-3.615H140.7Z" transform="translate(600.5 569.783)"/>
  <path id="패스_23793" data-name="패스 23793" class="cls-12" d="M11.6-7.83h-8v-3.825H2.355v4.83H11.6Zm1.41,3.03H.78v1H6.24v4.9H7.47v-4.9h5.535Zm9.225-.975a4.632,4.632,0,0,1-3.27-4.11v-.54h2.955V-11.43H14.73v1.005h3v.54a4.888,4.888,0,0,1-3.39,4.41l.645.975A5.7,5.7,0,0,0,18.36-7.86a5.576,5.576,0,0,0,3.255,3.045Zm-5.85,3.21h7.755v3.69h1.23v-4.68H16.38Zm7.755-9.78v3.51H21.51v1h2.625v3.54h1.23v-8.055Z" transform="translate(600.5 616.778)"/>
  <path id="패스_23794" data-name="패스 23794" class="cls-12" d="M11.223.559c5.332,0,10.32-3.913,10.32-10.836S17.286-20.3,12.04-20.3a9.05,9.05,0,0,0-4.687,1.247l.774-9.116H20.038v-3.354H4.687L3.7-16.77l2.107,1.29a8.576,8.576,0,0,1,5.246-1.849c3.956,0,6.536,2.666,6.536,7.181,0,4.6-3.01,7.439-6.708,7.439a10.369,10.369,0,0,1-7.74-3.483L1.2-3.612A13.39,13.39,0,0,0,11.223.559ZM26.23,8.17A9.569,9.569,0,0,0,32.508-.817c0-2.881-1.247-4.644-3.311-4.644A2.8,2.8,0,0,0,26.23-2.709,2.694,2.694,0,0,0,29.111.043,1.764,1.764,0,0,0,29.584,0c-.043,2.623-1.634,4.687-4.3,5.848ZM45.494.559c5.59,0,10.1-3.354,10.1-8.987,0-4.3-2.967-7.138-6.708-8V-16.6c3.354-1.247,5.633-3.784,5.633-7.611,0-5.074-3.87-7.912-9.159-7.912a12.619,12.619,0,0,0-8.815,3.784l2.107,2.494a9.835,9.835,0,0,1,6.536-3.139c3.268.086,5.332,2.021,5.332,5.074,0,3.4-2.236,6.02-8.729,6.02v3.01c7.267,0,9.8,2.537,9.8,6.321,0,3.612-2.666,5.848-6.407,5.848a10.421,10.421,0,0,1-7.826-3.612l-1.978,2.58A13.048,13.048,0,0,0,45.494.559ZM69.1.559c5.977,0,9.8-5.461,9.8-16.426,0-10.922-3.827-16.254-9.8-16.254-6.02,0-9.847,5.289-9.847,16.254S63.081.559,69.1.559Zm0-3.139c-3.612,0-6.02-4-6.02-13.287,0-9.2,2.408-13.072,6.02-13.072,3.569,0,5.977,3.87,5.977,13.072C75.078-6.579,72.67-2.58,69.1-2.58ZM92.106.559c5.977,0,9.8-5.461,9.8-16.426,0-10.922-3.827-16.254-9.8-16.254-6.02,0-9.847,5.289-9.847,16.254S86.086.559,92.106.559Zm0-3.139c-3.612,0-6.02-4-6.02-13.287,0-9.2,2.408-13.072,6.02-13.072,3.569,0,5.977,3.87,5.977,13.072C98.083-6.579,95.675-2.58,92.106-2.58Z" transform="translate(631.4 616.783)"/>
  <path id="패스_23795" data-name="패스 23795" class="cls-12" d="M9.405-6.33H5.685v-4.005h3.72Zm4.29-2.835V-7.5H10.6V-9.165ZM10.6-6.51h3.09v2.13H14.94v-7.95H13.695v2.175H10.6v-1.17H4.47v5.97H10.6ZM10.485.135c-2.01,0-3.24-.585-3.24-1.575s1.23-1.575,3.24-1.575c2.04,0,3.27.585,3.27,1.575S12.525.135,10.485.135Zm0-4.11c-2.76,0-4.47.915-4.47,2.535S7.725,1.1,10.485,1.1,14.97.165,14.97-1.44,13.26-3.975,10.485-3.975Z" transform="translate(734.556 616.783)"/>
  <path id="패스_23796" data-name="패스 23796" class="cls-4" d="M4.4.182c1.75,0,3.29-1.484,3.29-4.032,0-2.3-1.008-3.808-3-3.808A4.127,4.127,0,0,0,2.17-6.51l.042-1.428V-11.13H1.4V0h.658l.1-.756h.028A3.689,3.689,0,0,0,4.4.182Zm-.07-.714a3.365,3.365,0,0,1-2.114-.91V-5.754a3.677,3.677,0,0,1,2.324-1.19c1.666,0,2.282,1.3,2.282,3.094C6.818-1.848,5.782-.532,4.326-.532Zm5.1,3.892c1.372,0,2.128-1.2,2.576-2.492l2.912-8.33h-.826L12.558-2.9c-.21.644-.448,1.428-.672,2.1h-.07c-.266-.672-.546-1.456-.784-2.1L9.3-7.462H8.414L11.466.112l-.2.63c-.364,1.078-.966,1.89-1.862,1.89a1.921,1.921,0,0,1-.6-.112l-.182.686A1.978,1.978,0,0,0,9.422,3.36Zm9-3.36H24.57V-.728H21.392c-.532,0-1.12.042-1.68.084C22.428-3.178,24.08-5.32,24.08-7.462a2.674,2.674,0,0,0-2.828-2.926,3.752,3.752,0,0,0-2.87,1.47l.518.49A3.04,3.04,0,0,1,21.168-9.7a2.006,2.006,0,0,1,2.086,2.268c0,1.848-1.372,3.948-4.83,6.93ZM28.84.182c1.848,0,3-1.736,3-5.32,0-3.542-1.148-5.25-3-5.25s-3.01,1.708-3.01,5.25C25.83-1.554,26.978.182,28.84.182Zm0-.686c-1.33,0-2.2-1.54-2.2-4.634,0-3.038.868-4.564,2.2-4.564s2.184,1.526,2.184,4.564C31.024-2.044,30.156-.5,28.84-.5Zm4.172.5h6.146V-.728H35.98c-.532,0-1.12.042-1.68.084,2.716-2.534,4.368-4.676,4.368-6.818a2.674,2.674,0,0,0-2.828-2.926,3.752,3.752,0,0,0-2.87,1.47l.518.49A3.04,3.04,0,0,1,35.756-9.7a2.006,2.006,0,0,1,2.086,2.268c0,1.848-1.372,3.948-4.83,6.93ZM43.218.182A3.233,3.233,0,0,0,46.41-3.276c0-2.268-1.344-3.276-3.024-3.276a3.147,3.147,0,0,0-1.708.49l.294-3.43h3.934v-.714H41.244l-.35,4.662.532.322a2.959,2.959,0,0,1,1.806-.644A2.312,2.312,0,0,1,45.57-3.248a2.5,2.5,0,0,1-2.38,2.73,3.436,3.436,0,0,1-2.674-1.2l-.448.574A4.2,4.2,0,0,0,43.218.182Z" transform="translate(600.5 642.783)"/>
  <path id="패스_23787" data-name="패스 23787" class="cls-11" d="M11.115-7.005a12.827,12.827,0,0,0,.375-3.6v-1.14H2.19V-10.5H9.96A12.081,12.081,0,0,1,9.6-7.17ZM6.84-.03C4.83-.03,3.6-.525,3.6-1.38S4.83-2.715,6.84-2.715c1.995,0,3.2.495,3.2,1.335S8.835-.03,6.84-.03Zm0-3.87c-2.925,0-4.77.96-4.77,2.52C2.07.2,3.915,1.155,6.84,1.155c2.88,0,4.74-.96,4.74-2.535C11.58-2.94,9.72-3.9,6.84-3.9Zm.3-2.295v-2.49H5.58v2.49H.78V-4.95H12.99V-6.195Zm7.89-4.77V-9.7h4.83c-.27,3.12-1.95,5.505-5.505,7.215l.825,1.23c4.65-2.25,6.27-5.67,6.27-9.705ZM23.9-12.39V1.155H25.44V-12.39Zm11.1,3.735V-7.38H37.44V-4.2h1.545v-8.205H37.44v3.75Zm.84,2.76c-2.07-.6-3.3-2.07-3.3-3.615v-.12h2.85v-1.23H32.55v-1.6H30.99v1.6H28.14v1.23h2.85v.12a4.239,4.239,0,0,1-3.255,3.945l.75,1.2a5.271,5.271,0,0,0,3.33-2.91,5.214,5.214,0,0,0,3.3,2.565ZM34.47-.045c-1.92,0-3.015-.48-3.015-1.335S32.55-2.7,34.47-2.7s3.03.465,3.03,1.32S36.4-.045,34.47-.045Zm0-3.855c-2.835,0-4.56.93-4.56,2.52s1.725,2.535,4.56,2.535S39.045.21,39.045-1.38,37.305-3.9,34.47-3.9ZM48.555-8.985v1.26h2.4V-4.32H52.5v-8.07H50.955v3.4Zm.78,3.015a4.442,4.442,0,0,1-3.18-4.08v-.18h2.82v-1.245H41.73v1.245H44.6v.195a4.756,4.756,0,0,1-3.315,4.41l.8,1.23A5.606,5.606,0,0,0,45.42-7.65a5.291,5.291,0,0,0,3.15,2.895ZM48-.03c-1.935,0-3.03-.48-3.03-1.365S46.065-2.76,48-2.76c1.9,0,3.015.48,3.015,1.365S49.9-.03,48-.03Zm0-3.93c-2.835,0-4.575.96-4.575,2.565S45.165,1.17,48,1.17s4.56-.945,4.56-2.565S50.82-3.96,48-3.96Zm7.545-7.005V-9.7h4.83C60.1-6.585,58.425-4.2,54.87-2.49l.825,1.23c4.65-2.25,6.27-5.67,6.27-9.705ZM64.41-12.39V1.155h1.545V-12.39ZM76.35-9.765h3.015V-11.04h-7.59v1.275H74.79v1.29a6.624,6.624,0,0,1-3.495,5.82l.885,1.23a6.987,6.987,0,0,0,3.405-4.26A6.639,6.639,0,0,0,79-1.77l.855-1.215a6.111,6.111,0,0,1-3.51-5.49Zm4.59-2.625V1.155H82.5V-12.39ZM91.89-4.44v1.08h2.655V-2.1H96.09V-12.405H94.545V-4.44Zm-2.7-6.3c1.11,0,1.875.48,1.875,1.245S90.3-8.25,89.19-8.25,87.3-8.73,87.3-9.495,88.065-10.74,89.19-10.74Zm0,3.63c1.98,0,3.345-.945,3.345-2.385S91.17-11.88,89.19-11.88s-3.36.945-3.36,2.385S87.195-7.11,89.19-7.11Zm-.615,4.575H90.12v-2.61a30.118,30.118,0,0,0,3.48-.39l-.12-1.11a76.994,76.994,0,0,1-8.685.4l.195,1.26c1.065,0,2.295-.015,3.585-.075ZM88.17-.36V-3.105H86.625v4h9.78V-.36Zm15.24-9.165H106.9v-1.26h-5.01V-2.07h.9a24.435,24.435,0,0,0,4.935-.375L107.6-3.72a20.788,20.788,0,0,1-4.185.375Zm8.115-2.88V-7.05H109.92v-5.07h-1.455V.48h1.455V-5.79h1.605V1.14H113V-12.405Zm15.135,5.01c-2.73-.39-4.77-2.085-4.77-3.84v-.72h-1.635v.72c0,1.785-2.01,3.45-4.77,3.84l.6,1.245a6.811,6.811,0,0,0,5-3.06,6.854,6.854,0,0,0,4.98,3.06Zm.525,2.52h-12.24v1.26h5.31V1.17H121.8V-3.615h5.385Z" transform="translate(326 569.783)"/>
  <path id="패스_23788" data-name="패스 23788" class="cls-12" d="M11.6-7.83h-8v-3.825H2.355v4.83H11.6Zm1.41,3.03H.78v1H6.24v4.9H7.47v-4.9h5.535Zm9.225-.975a4.632,4.632,0,0,1-3.27-4.11v-.54h2.955V-11.43H14.73v1.005h3v.54a4.888,4.888,0,0,1-3.39,4.41l.645.975A5.7,5.7,0,0,0,18.36-7.86a5.576,5.576,0,0,0,3.255,3.045Zm-5.85,3.21h7.755v3.69h1.23v-4.68H16.38Zm7.755-9.78v3.51H21.51v1h2.625v3.54h1.23v-8.055Z" transform="translate(326 616.778)"/>
  <path id="패스_23789" data-name="패스 23789" class="cls-12" d="M3.784,0H21.07V-3.268H14.749V-31.519h-3.01A19.971,19.971,0,0,1,5.2-29.283v2.494h5.59V-3.268H3.784ZM26.23,8.17A9.569,9.569,0,0,0,32.508-.817c0-2.881-1.247-4.644-3.311-4.644A2.8,2.8,0,0,0,26.23-2.709,2.694,2.694,0,0,0,29.111.043,1.764,1.764,0,0,0,29.584,0c-.043,2.623-1.634,4.687-4.3,5.848ZM42.656,0h4.085c.473-12.341,1.849-19.651,9.245-29.154v-2.365H36.249v3.354H51.514C45.365-19.565,43.172-11.954,42.656,0ZM69.1.559c5.977,0,9.8-5.461,9.8-16.426,0-10.922-3.827-16.254-9.8-16.254-6.02,0-9.847,5.289-9.847,16.254S63.081.559,69.1.559Zm0-3.139c-3.612,0-6.02-4-6.02-13.287,0-9.2,2.408-13.072,6.02-13.072,3.569,0,5.977,3.87,5.977,13.072C75.078-6.579,72.67-2.58,69.1-2.58ZM92.106.559c5.977,0,9.8-5.461,9.8-16.426,0-10.922-3.827-16.254-9.8-16.254-6.02,0-9.847,5.289-9.847,16.254S86.086.559,92.106.559Zm0-3.139c-3.612,0-6.02-4-6.02-13.287,0-9.2,2.408-13.072,6.02-13.072,3.569,0,5.977,3.87,5.977,13.072C98.083-6.579,95.675-2.58,92.106-2.58Z" transform="translate(358.7 616.783)"/>
  <path id="패스_23790" data-name="패스 23790" class="cls-12" d="M5.55-9.7H9.345V-10.71H4.335V-2.2H5.22a22.092,22.092,0,0,0,4.98-.4L10.1-3.63a21.162,21.162,0,0,1-4.545.4Zm8.55-2.64v5.4H12.195v-5.1H11.04V.435h1.155V-5.94H14.1V1.11h1.185V-12.345Z" transform="translate(461.855 616.783)"/>
  <path id="패스_23791" data-name="패스 23791" class="cls-4" d="M4.4.182c1.75,0,3.29-1.484,3.29-4.032,0-2.3-1.008-3.808-3-3.808A4.127,4.127,0,0,0,2.17-6.51l.042-1.428V-11.13H1.4V0h.658l.1-.756h.028A3.689,3.689,0,0,0,4.4.182Zm-.07-.714a3.365,3.365,0,0,1-2.114-.91V-5.754a3.677,3.677,0,0,1,2.324-1.19c1.666,0,2.282,1.3,2.282,3.094C6.818-1.848,5.782-.532,4.326-.532Zm5.1,3.892c1.372,0,2.128-1.2,2.576-2.492l2.912-8.33h-.826L12.558-2.9c-.21.644-.448,1.428-.672,2.1h-.07c-.266-.672-.546-1.456-.784-2.1L9.3-7.462H8.414L11.466.112l-.2.63c-.364,1.078-.966,1.89-1.862,1.89a1.921,1.921,0,0,1-.6-.112l-.182.686A1.978,1.978,0,0,0,9.422,3.36Zm9-3.36H24.57V-.728H21.392c-.532,0-1.12.042-1.68.084C22.428-3.178,24.08-5.32,24.08-7.462a2.674,2.674,0,0,0-2.828-2.926,3.752,3.752,0,0,0-2.87,1.47l.518.49A3.04,3.04,0,0,1,21.168-9.7a2.006,2.006,0,0,1,2.086,2.268c0,1.848-1.372,3.948-4.83,6.93ZM28.84.182c1.848,0,3-1.736,3-5.32,0-3.542-1.148-5.25-3-5.25s-3.01,1.708-3.01,5.25C25.83-1.554,26.978.182,28.84.182Zm0-.686c-1.33,0-2.2-1.54-2.2-4.634,0-3.038.868-4.564,2.2-4.564s2.184,1.526,2.184,4.564C31.024-2.044,30.156-.5,28.84-.5Zm4.172.5h6.146V-.728H35.98c-.532,0-1.12.042-1.68.084,2.716-2.534,4.368-4.676,4.368-6.818a2.674,2.674,0,0,0-2.828-2.926,3.752,3.752,0,0,0-2.87,1.47l.518.49A3.04,3.04,0,0,1,35.756-9.7a2.006,2.006,0,0,1,2.086,2.268c0,1.848-1.372,3.948-4.83,6.93ZM43.218.182A3.233,3.233,0,0,0,46.41-3.276c0-2.268-1.344-3.276-3.024-3.276a3.147,3.147,0,0,0-1.708.49l.294-3.43h3.934v-.714H41.244l-.35,4.662.532.322a2.959,2.959,0,0,1,1.806-.644A2.312,2.312,0,0,1,45.57-3.248a2.5,2.5,0,0,1-2.38,2.73,3.436,3.436,0,0,1-2.674-1.2l-.448.574A4.2,4.2,0,0,0,43.218.182Z" transform="translate(326 642.783)"/>
  <text id="_" data-name=" " class="cls-13" transform="translate(373.922 642.783)"><tspan x="0" y="0"> </tspan></text>
  <path id="패스_23782" data-name="패스 23782" class="cls-11" d="M8.04-8.985v1.26h2.4V-4.32h1.545v-8.07H10.44v3.4ZM8.82-5.97a4.442,4.442,0,0,1-3.18-4.08v-.18H8.46v-1.245H1.215v1.245H4.08v.195A4.756,4.756,0,0,1,.765-5.625l.8,1.23A5.606,5.606,0,0,0,4.9-7.65a5.291,5.291,0,0,0,3.15,2.895ZM7.485-.03c-1.935,0-3.03-.48-3.03-1.365S5.55-2.76,7.485-2.76c1.9,0,3.015.48,3.015,1.365S9.39-.03,7.485-.03Zm0-3.93C4.65-3.96,2.91-3,2.91-1.395S4.65,1.17,7.485,1.17c2.82,0,4.56-.945,4.56-2.565S10.3-3.96,7.485-3.96ZM25.98-7.395c-2.73-.39-4.77-2.085-4.77-3.84v-.72H19.575v.72c0,1.785-2.01,3.45-4.77,3.84l.6,1.245A6.811,6.811,0,0,0,20.4-9.21a6.854,6.854,0,0,0,4.98,3.06Zm.525,2.52H14.265v1.26h5.31V1.17H21.12V-3.615h5.385Zm2.025-6.09V-9.7h4.83c-.27,3.12-1.95,5.505-5.505,7.215l.825,1.23c4.65-2.25,6.27-5.67,6.27-9.705ZM37.4-12.39V1.155H38.94V-12.39Zm11.94,2.625H52.35V-11.04H44.76v1.275h3.015v1.29a6.624,6.624,0,0,1-3.495,5.82l.885,1.23a6.987,6.987,0,0,0,3.4-4.26A6.639,6.639,0,0,0,51.99-1.77l.855-1.215a6.111,6.111,0,0,1-3.51-5.49Zm4.59-2.625V1.155h1.56V-12.39ZM64.86-4.44v1.08h2.655V-2.1H69.06V-12.405H67.515V-4.44Zm-2.7-6.3c1.11,0,1.875.48,1.875,1.245S63.27-8.25,62.16-8.25s-1.89-.48-1.89-1.245S61.035-10.74,62.16-10.74Zm0,3.63c1.98,0,3.345-.945,3.345-2.385S64.14-11.88,62.16-11.88s-3.36.945-3.36,2.385S60.165-7.11,62.16-7.11Zm-.615,4.575H63.09v-2.61a30.118,30.118,0,0,0,3.48-.39l-.12-1.11a76.994,76.994,0,0,1-8.685.4l.195,1.26c1.065,0,2.3-.015,3.585-.075ZM61.14-.36V-3.105H59.6v4h9.78V-.36Z" transform="translate(50 569.783)"/>
  <path id="패스_23783" data-name="패스 23783" class="cls-12" d="M11.6-7.83h-8v-3.825H2.355v4.83H11.6Zm1.41,3.03H.78v1H6.24v4.9H7.47v-4.9h5.535Zm9.225-.975a4.632,4.632,0,0,1-3.27-4.11v-.54h2.955V-11.43H14.73v1.005h3v.54a4.888,4.888,0,0,1-3.39,4.41l.645.975A5.7,5.7,0,0,0,18.36-7.86a5.576,5.576,0,0,0,3.255,3.045Zm-5.85,3.21h7.755v3.69h1.23v-4.68H16.38Zm7.755-9.78v3.51H21.51v1h2.625v3.54h1.23v-8.055Z" transform="translate(50 616.778)"/>
  <path id="패스_23785" data-name="패스 23785" class="cls-12" d="M3.784,0H21.07V-3.268H14.749V-31.519h-3.01A19.971,19.971,0,0,1,5.2-29.283v2.494h5.59V-3.268H3.784ZM26.23,8.17A9.569,9.569,0,0,0,32.508-.817c0-2.881-1.247-4.644-3.311-4.644A2.8,2.8,0,0,0,26.23-2.709,2.694,2.694,0,0,0,29.111.043,1.764,1.764,0,0,0,29.584,0c-.043,2.623-1.634,4.687-4.3,5.848ZM45.451.559c5.59,0,10.1-3.354,10.1-8.987,0-4.3-2.967-7.138-6.708-8V-16.6c3.354-1.247,5.633-3.784,5.633-7.611,0-5.074-3.87-7.912-9.159-7.912a12.619,12.619,0,0,0-8.815,3.784l2.107,2.494a9.835,9.835,0,0,1,6.536-3.139c3.268.086,5.332,2.021,5.332,5.074,0,3.4-2.236,6.02-8.729,6.02v3.01c7.267,0,9.8,2.537,9.8,6.321,0,3.612-2.666,5.848-6.407,5.848a10.421,10.421,0,0,1-7.826-3.612l-1.978,2.58A13.048,13.048,0,0,0,45.451.559Zm23.607,0c5.977,0,9.8-5.461,9.8-16.426,0-10.922-3.827-16.254-9.8-16.254-6.02,0-9.847,5.289-9.847,16.254S63.038.559,69.058.559Zm0-3.139c-3.612,0-6.02-4-6.02-13.287,0-9.2,2.408-13.072,6.02-13.072,3.569,0,5.977,3.87,5.977,13.072C75.035-6.579,72.627-2.58,69.058-2.58ZM92.063.559c5.977,0,9.8-5.461,9.8-16.426,0-10.922-3.827-16.254-9.8-16.254-6.02,0-9.847,5.289-9.847,16.254S86.043.559,92.063.559Zm0-3.139c-3.612,0-6.02-4-6.02-13.287,0-9.2,2.408-13.072,6.02-13.072,3.569,0,5.977,3.87,5.977,13.072C98.04-6.579,95.632-2.58,92.063-2.58Z" transform="translate(80.9 616.783)"/>
  <path id="패스_23786" data-name="패스 23786" class="cls-12" d="M5.55-9.7H9.345V-10.71H4.335V-2.2H5.22a22.092,22.092,0,0,0,4.98-.4L10.1-3.63a21.162,21.162,0,0,1-4.545.4Zm8.55-2.64v5.4H12.195v-5.1H11.04V.435h1.155V-5.94H14.1V1.11h1.185V-12.345Z" transform="translate(182.914 616.783)"/>
  <path id="패스_23784" data-name="패스 23784" class="cls-4" d="M4.4.182c1.75,0,3.29-1.484,3.29-4.032,0-2.3-1.008-3.808-3-3.808A4.127,4.127,0,0,0,2.17-6.51l.042-1.428V-11.13H1.4V0h.658l.1-.756h.028A3.689,3.689,0,0,0,4.4.182Zm-.07-.714a3.365,3.365,0,0,1-2.114-.91V-5.754a3.677,3.677,0,0,1,2.324-1.19c1.666,0,2.282,1.3,2.282,3.094C6.818-1.848,5.782-.532,4.326-.532Zm5.1,3.892c1.372,0,2.128-1.2,2.576-2.492l2.912-8.33h-.826L12.558-2.9c-.21.644-.448,1.428-.672,2.1h-.07c-.266-.672-.546-1.456-.784-2.1L9.3-7.462H8.414L11.466.112l-.2.63c-.364,1.078-.966,1.89-1.862,1.89a1.921,1.921,0,0,1-.6-.112l-.182.686A1.978,1.978,0,0,0,9.422,3.36Zm9-3.36H24.57V-.728H21.392c-.532,0-1.12.042-1.68.084C22.428-3.178,24.08-5.32,24.08-7.462a2.674,2.674,0,0,0-2.828-2.926,3.752,3.752,0,0,0-2.87,1.47l.518.49A3.04,3.04,0,0,1,21.168-9.7a2.006,2.006,0,0,1,2.086,2.268c0,1.848-1.372,3.948-4.83,6.93ZM28.84.182c1.848,0,3-1.736,3-5.32,0-3.542-1.148-5.25-3-5.25s-3.01,1.708-3.01,5.25C25.83-1.554,26.978.182,28.84.182Zm0-.686c-1.33,0-2.2-1.54-2.2-4.634,0-3.038.868-4.564,2.2-4.564s2.184,1.526,2.184,4.564C31.024-2.044,30.156-.5,28.84-.5Zm4.172.5h6.146V-.728H35.98c-.532,0-1.12.042-1.68.084,2.716-2.534,4.368-4.676,4.368-6.818a2.674,2.674,0,0,0-2.828-2.926,3.752,3.752,0,0,0-2.87,1.47l.518.49A3.04,3.04,0,0,1,35.756-9.7a2.006,2.006,0,0,1,2.086,2.268c0,1.848-1.372,3.948-4.83,6.93ZM43.218.182A3.233,3.233,0,0,0,46.41-3.276c0-2.268-1.344-3.276-3.024-3.276a3.147,3.147,0,0,0-1.708.49l.294-3.43h3.934v-.714H41.244l-.35,4.662.532.322a2.959,2.959,0,0,1,1.806-.644A2.312,2.312,0,0,1,45.57-3.248a2.5,2.5,0,0,1-2.38,2.73,3.436,3.436,0,0,1-2.674-1.2l-.448.574A4.2,4.2,0,0,0,43.218.182Z" transform="translate(50 642.783)"/>
  <path id="패스_23765" data-name="패스 23765" class="cls-11" d="M8.04-8.985v1.26h2.4V-4.32h1.545v-8.07H10.44v3.4ZM8.82-5.97a4.442,4.442,0,0,1-3.18-4.08v-.18H8.46v-1.245H1.215v1.245H4.08v.195A4.756,4.756,0,0,1,.765-5.625l.8,1.23A5.606,5.606,0,0,0,4.9-7.65a5.291,5.291,0,0,0,3.15,2.895ZM7.485-.03c-1.935,0-3.03-.48-3.03-1.365S5.55-2.76,7.485-2.76c1.9,0,3.015.48,3.015,1.365S9.39-.03,7.485-.03Zm0-3.93C4.65-3.96,2.91-3,2.91-1.395S4.65,1.17,7.485,1.17c2.82,0,4.56-.945,4.56-2.565S10.3-3.96,7.485-3.96ZM25.98-7.395c-2.73-.39-4.77-2.085-4.77-3.84v-.72H19.575v.72c0,1.785-2.01,3.45-4.77,3.84l.6,1.245A6.811,6.811,0,0,0,20.4-9.21a6.854,6.854,0,0,0,4.98,3.06Zm.525,2.52H14.265v1.26h5.31V1.17H21.12V-3.615h5.385Zm2.025-6.09V-9.7h4.83c-.27,3.12-1.95,5.505-5.505,7.215l.825,1.23c4.65-2.25,6.27-5.67,6.27-9.705ZM37.4-12.39V1.155H38.94V-12.39Zm11.94,2.625H52.35V-11.04H44.76v1.275h3.015v1.29a6.624,6.624,0,0,1-3.495,5.82l.885,1.23a6.987,6.987,0,0,0,3.4-4.26A6.639,6.639,0,0,0,51.99-1.77l.855-1.215a6.111,6.111,0,0,1-3.51-5.49Zm4.59-2.625V1.155h1.56V-12.39ZM64.86-4.44v1.08h2.655V-2.1H69.06V-12.405H67.515V-4.44Zm-2.7-6.3c1.11,0,1.875.48,1.875,1.245S63.27-8.25,62.16-8.25s-1.89-.48-1.89-1.245S61.035-10.74,62.16-10.74Zm0,3.63c1.98,0,3.345-.945,3.345-2.385S64.14-11.88,62.16-11.88s-3.36.945-3.36,2.385S60.165-7.11,62.16-7.11Zm-.615,4.575H63.09v-2.61a30.118,30.118,0,0,0,3.48-.39l-.12-1.11a76.994,76.994,0,0,1-8.685.4l.195,1.26c1.065,0,2.3-.015,3.585-.075ZM61.14-.36V-3.105H59.6v4h9.78V-.36ZM76.38-9.525h3.495v-1.26h-5.01V-2.07h.9A24.435,24.435,0,0,0,80.7-2.445L80.565-3.72a20.788,20.788,0,0,1-4.185.375Zm8.115-2.88V-7.05H82.89v-5.07H81.435V.48H82.89V-5.79H84.5V1.14h1.47V-12.405ZM99.63-7.395c-2.73-.39-4.77-2.085-4.77-3.84v-.72H93.225v.72c0,1.785-2.01,3.45-4.77,3.84l.6,1.245a6.811,6.811,0,0,0,5-3.06,6.854,6.854,0,0,0,4.98,3.06Zm.525,2.52H87.915v1.26h5.31V1.17H94.77V-3.615h5.385Z" transform="translate(50 335.921)"/>
  <path id="패스_23766" data-name="패스 23766" class="cls-12" d="M11.6-7.83h-8v-3.825H2.355v4.83H11.6Zm1.41,3.03H.78v1H6.24v4.9H7.47v-4.9h5.535Zm9.225-.975a4.632,4.632,0,0,1-3.27-4.11v-.54h2.955V-11.43H14.73v1.005h3v.54a4.888,4.888,0,0,1-3.39,4.41l.645.975A5.7,5.7,0,0,0,18.36-7.86a5.576,5.576,0,0,0,3.255,3.045Zm-5.85,3.21h7.755v3.69h1.23v-4.68H16.38Zm7.755-9.78v3.51H21.51v1h2.625v3.54h1.23v-8.055Z" transform="translate(50 382.916)"/>
  <path id="패스_23764" data-name="패스 23764" class="cls-12" d="M12,.559c5.934,0,9.89-3.569,9.89-8.17,0-4.3-2.58-6.665-5.332-8.256v-.215c1.892-1.462,4.214-4.3,4.214-7.611,0-4.859-3.268-8.3-8.643-8.3-4.945,0-8.643,3.182-8.643,8,0,3.311,1.935,5.676,4.257,7.267v.215C4.859-14.964,1.935-12.04,1.935-7.826,1.935-2.967,6.192.559,12,.559Zm2.15-17.673c-3.7-1.462-7.095-3.1-7.095-6.88a4.844,4.844,0,0,1,4.988-5.117c3.4,0,5.375,2.537,5.375,5.633A8.456,8.456,0,0,1,14.147-17.114ZM12.083-2.365C8.3-2.365,5.5-4.816,5.5-8.17a8.568,8.568,0,0,1,4.3-7.138c4.472,1.806,8.342,3.4,8.342,7.611C18.146-4.558,15.7-2.365,12.083-2.365ZM24.9,0H44.72V-3.4H35.991c-1.591,0-3.526.172-5.16.3,7.4-7.009,12.341-13.416,12.341-19.694,0-5.633-3.526-9.331-9.159-9.331-4,0-6.708,1.849-9.288,4.644L27-25.241c1.72-2.064,3.956-3.655,6.536-3.655,3.913,0,5.805,2.623,5.805,6.235,0,5.418-4.558,11.7-14.448,20.339ZM57.233.559c5.332,0,10.32-3.913,10.32-10.836S63.3-20.3,58.05-20.3a9.05,9.05,0,0,0-4.687,1.247l.774-9.116H66.048v-3.354H50.7L49.708-16.77l2.107,1.29a8.576,8.576,0,0,1,5.246-1.849c3.956,0,6.536,2.666,6.536,7.181,0,4.6-3.01,7.439-6.708,7.439a10.369,10.369,0,0,1-7.74-3.483l-1.935,2.58A13.39,13.39,0,0,0,57.233.559Z" transform="translate(80.9 382.921)"/>
  <path id="패스_23767" data-name="패스 23767" class="cls-12" d="M5.55-9.7H9.345V-10.71H4.335V-2.2H5.22a22.092,22.092,0,0,0,4.98-.4L10.1-3.63a21.162,21.162,0,0,1-4.545.4Zm8.55-2.64v5.4H12.195v-5.1H11.04V.435h1.155V-5.94H14.1V1.11h1.185V-12.345Z" transform="translate(149.914 382.921)"/>
  <path id="패스_23768" data-name="패스 23768" class="cls-4" d="M.63,0H6.776V-.728H3.6c-.532,0-1.12.042-1.68.084C4.634-3.178,6.286-5.32,6.286-7.462a2.674,2.674,0,0,0-2.828-2.926,3.752,3.752,0,0,0-2.87,1.47l.518.49A3.04,3.04,0,0,1,3.374-9.7,2.006,2.006,0,0,1,5.46-7.434C5.46-5.586,4.088-3.486.63-.5ZM11.046.182c1.848,0,3-1.736,3-5.32,0-3.542-1.148-5.25-3-5.25s-3.01,1.708-3.01,5.25C8.036-1.554,9.184.182,11.046.182Zm0-.686c-1.33,0-2.2-1.54-2.2-4.634,0-3.038.868-4.564,2.2-4.564S13.23-8.176,13.23-5.138C13.23-2.044,12.362-.5,11.046-.5Zm4.83.5H21.14V-.714H19.012v-9.492h-.658a5.859,5.859,0,0,1-1.946.644v.546h1.778v8.3h-2.31Zm9.548.182a3.233,3.233,0,0,0,3.192-3.458c0-2.268-1.344-3.276-3.024-3.276a3.147,3.147,0,0,0-1.708.49l.294-3.43h3.934v-.714H23.45L23.1-5.544l.532.322a2.959,2.959,0,0,1,1.806-.644,2.312,2.312,0,0,1,2.338,2.618A2.5,2.5,0,0,1,25.4-.518a3.436,3.436,0,0,1-2.674-1.2l-.448.574A4.2,4.2,0,0,0,25.424.182ZM39.354-2.2H40.1v-9.254h-.742V-9.7H35.532v.63h3.822V-7.28H35.532v.616h3.822ZM37.128-5.334a28.952,28.952,0,0,1-5.5.476h-.168v-5.628h-.742v6.272h.91a29.8,29.8,0,0,0,5.586-.476ZM33.04.042v-3.01H32.3V.672H40.46V.042ZM46.06,0h5.264V-.714H49.2v-9.492h-.658a5.859,5.859,0,0,1-1.946.644v.546H48.37v8.3H46.06ZM59.472-5.446V-4.9h2.646v.84h.742v-7.378h-.742v5.992Zm-2.618-5.18c1.4,0,2.324.532,2.324,1.316s-.924,1.316-2.324,1.316-2.338-.532-2.338-1.316S55.44-10.626,56.854-10.626Zm0,3.178c1.834,0,3.038-.7,3.038-1.862s-1.2-1.862-3.038-1.862-3.038.7-3.038,1.862S55.006-7.448,56.854-7.448ZM56.406-4h.742V-6.062c1.288-.07,2.618-.168,3.864-.364l-.042-.518a72.079,72.079,0,0,1-8.176.35l.112.616c1.064,0,2.254-.014,3.5-.056ZM55.51.21V-1.176h7.35v-2.38H54.754V-3h7.378v1.274H54.8V.8h8.568V.21ZM72.786-4.1a2.1,2.1,0,0,0,1.75-1.288l-.5-.336c-.364.714-.756.966-1.218.966-.882,0-1.6-1.372-2.786-1.372a2.075,2.075,0,0,0-1.75,1.3l.49.322c.378-.714.77-.966,1.218-.966C70.882-5.474,71.582-4.1,72.786-4.1Zm5.7,4.1H84.63V-.728H81.452c-.532,0-1.12.042-1.68.084C82.488-3.178,84.14-5.32,84.14-7.462a2.674,2.674,0,0,0-2.828-2.926,3.752,3.752,0,0,0-2.87,1.47l.518.49A3.04,3.04,0,0,1,81.228-9.7a2.006,2.006,0,0,1,2.086,2.268c0,1.848-1.372,3.948-4.83,6.93ZM88.9.182c1.848,0,3-1.736,3-5.32,0-3.542-1.148-5.25-3-5.25s-3.01,1.708-3.01,5.25C85.89-1.554,87.038.182,88.9.182Zm0-.686c-1.33,0-2.2-1.54-2.2-4.634,0-3.038.868-4.564,2.2-4.564s2.184,1.526,2.184,4.564C91.084-2.044,90.216-.5,88.9-.5Zm4.83.5h5.264V-.714H96.866v-9.492h-.658a5.859,5.859,0,0,1-1.946.644v.546H96.04v8.3H93.73Zm9.506-4.578c-1.414,0-2.044-1.078-2.044-2.548s.826-2.59,1.932-2.59c1.6,0,2.408,1.414,2.492,3.64A3.057,3.057,0,0,1,103.236-4.578ZM100.59-.8a2.98,2.98,0,0,0,2.254.98c1.862,0,3.584-1.54,3.584-5.838,0-3.08-1.316-4.732-3.29-4.732a3,3,0,0,0-2.758,3.262c0,2.072,1.05,3.206,2.758,3.206a3.324,3.324,0,0,0,2.492-1.358c-.084,3.528-1.358,4.76-2.772,4.76a2.294,2.294,0,0,1-1.778-.812Zm16.618-1.4h.742v-9.254h-.742V-9.7h-3.822v.63h3.822V-7.28h-3.822v.616h3.822Zm-2.226-3.136a28.952,28.952,0,0,1-5.5.476h-.168v-5.628h-.742v6.272h.91a29.8,29.8,0,0,0,5.586-.476ZM110.894.042v-3.01h-.742V.672h8.162V.042ZM123.9,0h5.264V-.714h-2.128v-9.492h-.658a5.859,5.859,0,0,1-1.946.644v.546h1.778v8.3H123.9Zm6.636,0h6.146V-.728H133.5c-.532,0-1.12.042-1.68.084,2.716-2.534,4.368-4.676,4.368-6.818a2.674,2.674,0,0,0-2.828-2.926,3.752,3.752,0,0,0-2.87,1.47l.518.49A3.04,3.04,0,0,1,133.28-9.7a2.006,2.006,0,0,1,2.086,2.268c0,1.848-1.372,3.948-4.83,6.93Zm14.07-5.446V-4.9h2.646v.84h.742v-7.378h-.742v5.992Zm-2.618-5.18c1.4,0,2.324.532,2.324,1.316s-.924,1.316-2.324,1.316-2.338-.532-2.338-1.316S140.574-10.626,141.988-10.626Zm0,3.178c1.834,0,3.038-.7,3.038-1.862s-1.2-1.862-3.038-1.862-3.038.7-3.038,1.862S140.14-7.448,141.988-7.448ZM141.54-4h.742V-6.062c1.288-.07,2.618-.168,3.864-.364l-.042-.518a72.079,72.079,0,0,1-8.176.35l.112.616c1.064,0,2.254-.014,3.5-.056Zm-.9,4.214V-1.176h7.35v-2.38h-8.106V-3h7.378v1.274H139.93V.8H148.5V.21Z" transform="translate(50 408.921)"/>
  <path id="패스_23769" data-name="패스 23769" class="cls-11" d="M11.115-7.005a12.827,12.827,0,0,0,.375-3.6v-1.14H2.19V-10.5H9.96A12.081,12.081,0,0,1,9.6-7.17ZM6.84-.03C4.83-.03,3.6-.525,3.6-1.38S4.83-2.715,6.84-2.715c1.995,0,3.2.495,3.2,1.335S8.835-.03,6.84-.03Zm0-3.87c-2.925,0-4.77.96-4.77,2.52C2.07.2,3.915,1.155,6.84,1.155c2.88,0,4.74-.96,4.74-2.535C11.58-2.94,9.72-3.9,6.84-3.9Zm.3-2.295v-2.49H5.58v2.49H.78V-4.95H12.99V-6.195Zm7.89-4.77V-9.7h4.83c-.27,3.12-1.95,5.505-5.505,7.215l.825,1.23c4.65-2.25,6.27-5.67,6.27-9.705ZM23.9-12.39V1.155H25.44V-12.39Zm11.1,3.735V-7.38H37.44V-4.2h1.545v-8.205H37.44v3.75Zm.84,2.76c-2.07-.6-3.3-2.07-3.3-3.615v-.12h2.85v-1.23H32.55v-1.6H30.99v1.6H28.14v1.23h2.85v.12a4.239,4.239,0,0,1-3.255,3.945l.75,1.2a5.271,5.271,0,0,0,3.33-2.91,5.214,5.214,0,0,0,3.3,2.565ZM34.47-.045c-1.92,0-3.015-.48-3.015-1.335S32.55-2.7,34.47-2.7s3.03.465,3.03,1.32S36.4-.045,34.47-.045Zm0-3.855c-2.835,0-4.56.93-4.56,2.52s1.725,2.535,4.56,2.535S39.045.21,39.045-1.38,37.305-3.9,34.47-3.9ZM48.555-8.985v1.26h2.4V-4.32H52.5v-8.07H50.955v3.4Zm.78,3.015a4.442,4.442,0,0,1-3.18-4.08v-.18h2.82v-1.245H41.73v1.245H44.6v.195a4.756,4.756,0,0,1-3.315,4.41l.8,1.23A5.606,5.606,0,0,0,45.42-7.65a5.291,5.291,0,0,0,3.15,2.895ZM48-.03c-1.935,0-3.03-.48-3.03-1.365S46.065-2.76,48-2.76c1.9,0,3.015.48,3.015,1.365S49.9-.03,48-.03Zm0-3.93c-2.835,0-4.575.96-4.575,2.565S45.165,1.17,48,1.17s4.56-.945,4.56-2.565S50.82-3.96,48-3.96Zm7.545-7.005V-9.7h4.83C60.1-6.585,58.425-4.2,54.87-2.49l.825,1.23c4.65-2.25,6.27-5.67,6.27-9.705ZM64.41-12.39V1.155h1.545V-12.39ZM76.35-9.765h3.015V-11.04h-7.59v1.275H74.79v1.29a6.624,6.624,0,0,1-3.495,5.82l.885,1.23a6.987,6.987,0,0,0,3.405-4.26A6.639,6.639,0,0,0,79-1.77l.855-1.215a6.111,6.111,0,0,1-3.51-5.49Zm4.59-2.625V1.155H82.5V-12.39ZM91.89-4.44v1.08h2.655V-2.1H96.09V-12.405H94.545V-4.44Zm-2.7-6.3c1.11,0,1.875.48,1.875,1.245S90.3-8.25,89.19-8.25,87.3-8.73,87.3-9.495,88.065-10.74,89.19-10.74Zm0,3.63c1.98,0,3.345-.945,3.345-2.385S91.17-11.88,89.19-11.88s-3.36.945-3.36,2.385S87.195-7.11,89.19-7.11Zm-.615,4.575H90.12v-2.61a30.118,30.118,0,0,0,3.48-.39l-.12-1.11a76.994,76.994,0,0,1-8.685.4l.195,1.26c1.065,0,2.295-.015,3.585-.075ZM88.17-.36V-3.105H86.625v4h9.78V-.36Zm15.24-9.165H106.9v-1.26h-5.01V-2.07h.9a24.435,24.435,0,0,0,4.935-.375L107.6-3.72a20.788,20.788,0,0,1-4.185.375Zm8.115-2.88V-7.05H109.92v-5.07h-1.455V.48h1.455V-5.79h1.605V1.14H113V-12.405Zm15.135,5.01c-2.73-.39-4.77-2.085-4.77-3.84v-.72h-1.635v.72c0,1.785-2.01,3.45-4.77,3.84l.6,1.245a6.811,6.811,0,0,0,5-3.06,6.854,6.854,0,0,0,4.98,3.06Zm.525,2.52h-12.24v1.26h5.31V1.17H121.8V-3.615h5.385Z" transform="translate(326 335.921)"/>
  <path id="패스_23770" data-name="패스 23770" class="cls-12" d="M11.6-7.83h-8v-3.825H2.355v4.83H11.6Zm1.41,3.03H.78v1H6.24v4.9H7.47v-4.9h5.535Zm9.225-.975a4.632,4.632,0,0,1-3.27-4.11v-.54h2.955V-11.43H14.73v1.005h3v.54a4.888,4.888,0,0,1-3.39,4.41l.645.975A5.7,5.7,0,0,0,18.36-7.86a5.576,5.576,0,0,0,3.255,3.045Zm-5.85,3.21h7.755v3.69h1.23v-4.68H16.38Zm7.755-9.78v3.51H21.51v1h2.625v3.54h1.23v-8.055Z" transform="translate(326 382.916)"/>
  <path id="패스_23771" data-name="패스 23771" class="cls-12" d="M4.945-11.825l7.181-10.75c.9-1.548,1.763-3.1,2.537-4.644h.172c-.086,1.634-.258,4.171-.258,5.719v9.675Zm17.544,0H18.318V-31.519H13.975L.86-11.266v2.58H14.577V0h3.741V-8.686h4.171ZM34.228.559c5.332,0,10.32-3.913,10.32-10.836S40.291-20.3,35.045-20.3a9.05,9.05,0,0,0-4.687,1.247l.774-9.116H43.043v-3.354H27.692L26.7-16.77l2.107,1.29a8.576,8.576,0,0,1,5.246-1.849c3.956,0,6.536,2.666,6.536,7.181,0,4.6-3.01,7.439-6.708,7.439a10.369,10.369,0,0,1-7.74-3.483l-1.935,2.58A13.39,13.39,0,0,0,34.228.559Zm23.736,0c5.977,0,9.8-5.461,9.8-16.426,0-10.922-3.827-16.254-9.8-16.254-6.02,0-9.847,5.289-9.847,16.254S51.944.559,57.964.559Zm0-3.139c-3.612,0-6.02-4-6.02-13.287,0-9.2,2.408-13.072,6.02-13.072,3.569,0,5.977,3.87,5.977,13.072C63.941-6.579,61.533-2.58,57.964-2.58Z" transform="translate(358.7 382.921)"/>
  <path id="패스_23772" data-name="패스 23772" class="cls-12" d="M5.55-9.7H9.345V-10.71H4.335V-2.2H5.22a22.092,22.092,0,0,0,4.98-.4L10.1-3.63a21.162,21.162,0,0,1-4.545.4Zm8.55-2.64v5.4H12.195v-5.1H11.04V.435h1.155V-5.94H14.1V1.11h1.185V-12.345Z" transform="translate(427.714 382.921)"/>
  <path id="패스_23774" data-name="패스 23774" class="cls-4" d="M.63,0H6.776V-.728H3.6c-.532,0-1.12.042-1.68.084C4.634-3.178,6.286-5.32,6.286-7.462a2.674,2.674,0,0,0-2.828-2.926,3.752,3.752,0,0,0-2.87,1.47l.518.49A3.04,3.04,0,0,1,3.374-9.7,2.006,2.006,0,0,1,5.46-7.434C5.46-5.586,4.088-3.486.63-.5ZM11.046.182c1.848,0,3-1.736,3-5.32,0-3.542-1.148-5.25-3-5.25s-3.01,1.708-3.01,5.25C8.036-1.554,9.184.182,11.046.182Zm0-.686c-1.33,0-2.2-1.54-2.2-4.634,0-3.038.868-4.564,2.2-4.564S13.23-8.176,13.23-5.138C13.23-2.044,12.362-.5,11.046-.5Zm4.83.5H21.14V-.714H19.012v-9.492h-.658a5.859,5.859,0,0,1-1.946.644v.546h1.778v8.3h-2.31Zm9.8.182a2.761,2.761,0,0,0,3.052-2.59,3,3,0,0,0-1.736-2.66v-.07a3.568,3.568,0,0,0,1.4-2.534,2.535,2.535,0,0,0-2.7-2.674,2.5,2.5,0,0,0-2.632,2.52,2.818,2.818,0,0,0,1.4,2.324v.056a3.452,3.452,0,0,0-1.946,2.912A2.879,2.879,0,0,0,25.676.182Zm.714-5.544c-1.274-.5-2.548-1.078-2.548-2.464a1.787,1.787,0,0,1,1.834-1.862,1.918,1.918,0,0,1,1.96,2.044A2.977,2.977,0,0,1,26.39-5.362ZM25.676-.476a2.2,2.2,0,0,1-2.394-2.1,3.036,3.036,0,0,1,1.666-2.562c1.54.6,2.968,1.162,2.968,2.716A2.026,2.026,0,0,1,25.676-.476ZM39.354-2.2H40.1v-9.254h-.742V-9.7H35.532v.63h3.822V-7.28H35.532v.616h3.822ZM37.128-5.334a28.952,28.952,0,0,1-5.5.476h-.168v-5.628h-.742v6.272h.91a29.8,29.8,0,0,0,5.586-.476ZM33.04.042v-3.01H32.3V.672H40.46V.042ZM48.3.182a3.233,3.233,0,0,0,3.192-3.458c0-2.268-1.344-3.276-3.024-3.276a3.147,3.147,0,0,0-1.708.49l.294-3.43h3.934v-.714H46.326l-.35,4.662.532.322a2.959,2.959,0,0,1,1.806-.644,2.312,2.312,0,0,1,2.338,2.618,2.5,2.5,0,0,1-2.38,2.73,3.436,3.436,0,0,1-2.674-1.2l-.448.574A4.2,4.2,0,0,0,48.3.182Z" transform="translate(326 408.921)"/>
  <path id="패스_23773" data-name="패스 23773" class="cls-4" d="M7.406-5.446V-4.9h2.646v.84h.742v-7.378h-.742v5.992Zm-2.618-5.18c1.4,0,2.324.532,2.324,1.316S6.188-7.994,4.788-7.994,2.45-8.526,2.45-9.31,3.374-10.626,4.788-10.626Zm0,3.178c1.834,0,3.038-.7,3.038-1.862s-1.2-1.862-3.038-1.862-3.038.7-3.038,1.862S2.94-7.448,4.788-7.448ZM4.34-4h.742V-6.062C6.37-6.132,7.7-6.23,8.946-6.426L8.9-6.944a72.079,72.079,0,0,1-8.176.35l.112.616c1.064,0,2.254-.014,3.5-.056ZM3.444.21V-1.176h7.35v-2.38H2.688V-3h7.378v1.274H2.73V.8H11.3V.21ZM20.706-4.1a2.1,2.1,0,0,0,1.75-1.288l-.5-.336c-.364.714-.756.966-1.218.966-.882,0-1.6-1.372-2.786-1.372a2.075,2.075,0,0,0-1.75,1.3l.49.322c.378-.714.77-.966,1.218-.966C18.8-5.474,19.5-4.1,20.706-4.1ZM26.4,0H32.55V-.728H29.372c-.532,0-1.12.042-1.68.084C30.408-3.178,32.06-5.32,32.06-7.462a2.674,2.674,0,0,0-2.828-2.926,3.752,3.752,0,0,0-2.87,1.47l.518.49A3.04,3.04,0,0,1,29.148-9.7a2.006,2.006,0,0,1,2.086,2.268c0,1.848-1.372,3.948-4.83,6.93ZM36.82.182c1.848,0,3-1.736,3-5.32,0-3.542-1.148-5.25-3-5.25s-3.01,1.708-3.01,5.25C33.81-1.554,34.958.182,36.82.182Zm0-.686c-1.33,0-2.2-1.54-2.2-4.634,0-3.038.868-4.564,2.2-4.564S39-8.176,39-5.138C39-2.044,38.136-.5,36.82-.5Zm4.83.5h5.264V-.714H44.786v-9.492h-.658a5.859,5.859,0,0,1-1.946.644v.546H43.96v8.3H41.65Zm9.506-4.578c-1.414,0-2.044-1.078-2.044-2.548s.826-2.59,1.932-2.59c1.6,0,2.408,1.414,2.492,3.64A3.057,3.057,0,0,1,51.156-4.578ZM48.51-.8a2.98,2.98,0,0,0,2.254.98c1.862,0,3.584-1.54,3.584-5.838,0-3.08-1.316-4.732-3.29-4.732A3,3,0,0,0,48.3-7.126c0,2.072,1.05,3.206,2.758,3.206A3.324,3.324,0,0,0,53.55-5.278c-.084,3.528-1.358,4.76-2.772,4.76A2.3,2.3,0,0,1,49-1.33ZM65.128-2.2h.742v-9.254h-.742V-9.7H61.306v.63h3.822V-7.28H61.306v.616h3.822ZM62.9-5.334a28.952,28.952,0,0,1-5.5.476h-.168v-5.628H56.49v6.272h.91a29.8,29.8,0,0,0,5.586-.476ZM58.814.042v-3.01h-.742V.672h8.162V.042ZM71.82,0h5.264V-.714H74.956v-9.492H74.3a5.859,5.859,0,0,1-1.946.644v.546H74.13v8.3H71.82Zm6.636,0H84.6V-.728H81.424c-.532,0-1.12.042-1.68.084,2.716-2.534,4.368-4.676,4.368-6.818a2.674,2.674,0,0,0-2.828-2.926,3.752,3.752,0,0,0-2.87,1.47l.518.49A3.04,3.04,0,0,1,81.2-9.7a2.006,2.006,0,0,1,2.086,2.268c0,1.848-1.372,3.948-4.83,6.93Zm14.07-5.446V-4.9h2.646v.84h.742v-7.378h-.742v5.992Zm-2.618-5.18c1.4,0,2.324.532,2.324,1.316s-.924,1.316-2.324,1.316S87.57-8.526,87.57-9.31,88.494-10.626,89.908-10.626Zm0,3.178c1.834,0,3.038-.7,3.038-1.862s-1.2-1.862-3.038-1.862-3.038.7-3.038,1.862S88.06-7.448,89.908-7.448ZM89.46-4H90.2V-6.062c1.288-.07,2.618-.168,3.864-.364l-.042-.518a72.079,72.079,0,0,1-8.176.35l.112.616c1.064,0,2.254-.014,3.5-.056ZM88.564.21V-1.176h7.35v-2.38H87.808V-3h7.378v1.274H87.85V.8h8.568V.21Z" transform="translate(378.78 408.921)"/>
  <line id="선_356" data-name="선 356" class="cls-5" x2="796" transform="translate(20 676.418)"/>
  <g id="그룹_23040" data-name="그룹 23040" transform="translate(394.56 150.891)">
    <g id="그룹_23039" data-name="그룹 23039" class="cls-14">
      <g id="그룹_23037" data-name="그룹 23037" transform="translate(48.931 -22.68)">
        <path id="패스_23507" data-name="패스 23507" class="cls-15" d="M0,0A22.68,22.68,0,0,1-22.68,22.68,22.68,22.68,0,0,1-45.36,0,22.68,22.68,0,0,1-22.68-22.68,22.68,22.68,0,0,1,0,0"/>
      </g>
      <g id="그룹_23038" data-name="그룹 23038" transform="translate(45.36 -25.089)">
        <path id="패스_23508" data-name="패스 23508" class="cls-10" d="M0,0A22.68,22.68,0,0,1-22.68,22.68,22.68,22.68,0,0,1-45.36,0,22.68,22.68,0,0,1-22.68-22.68,22.68,22.68,0,0,1,0,0"/>
      </g>
      <path id="패스_23755" data-name="패스 23755" class="cls-3" d="M4.56.208c2.3,0,3.808-2.048,3.808-6.144C8.368-10,6.864-12,4.56-12,2.24-12,.752-10.016.752-5.936.752-1.84,2.24.208,4.56.208Zm0-1.456c-1.2,0-2.048-1.28-2.048-4.688,0-3.376.848-4.608,2.048-4.608S6.608-9.312,6.608-5.936C6.608-2.528,5.76-1.248,4.56-1.248ZM9.5,0h7.6V-1.568H14.16c-.576,0-1.312.048-1.92.112,2.5-2.384,4.3-4.736,4.3-7.008A3.33,3.33,0,0,0,12.992-12a4.621,4.621,0,0,0-3.584,1.76l1.04,1.024a3.194,3.194,0,0,1,2.32-1.312,1.92,1.92,0,0,1,2,2.16c0,1.936-1.792,4.224-5.264,7.3Z" transform="translate(13.72 -19.341)"/>
    </g>
  </g>
</svg>
