<svg id="구성_요소_60_1" data-name="구성 요소 60 – 1" xmlns="http://www.w3.org/2000/svg" width="816" height="349" viewBox="0 0 816 349">
  <defs>
    <style>
      .cls-1 {
        fill: #f5f6f7;
      }

      .cls-10, .cls-11, .cls-12, .cls-13, .cls-14, .cls-2, .cls-7, .cls-8, .cls-9 {
        fill: none;
        stroke: #685239;
      }

      .cls-10, .cls-11, .cls-13, .cls-14, .cls-2, .cls-7, .cls-8, .cls-9 {
        stroke-width: 0.5px;
      }

      .cls-3 {
        fill: #d6a803;
      }

      .cls-4 {
        fill: #fff;
      }

      .cls-5 {
        fill: #828585;
      }

      .cls-6 {
        fill: #685239;
      }

      .cls-10, .cls-11, .cls-13, .cls-14, .cls-7, .cls-8, .cls-9 {
        stroke-linecap: round;
        stroke-linejoin: round;
      }

      .cls-7 {
        stroke-dasharray: 0 1.515;
      }

      .cls-9 {
        stroke-dasharray: 0 1.474;
      }

      .cls-10 {
        stroke-dasharray: 0 1.518;
      }

      .cls-11 {
        stroke-dasharray: 0 1.511;
      }

      .cls-12 {
        stroke-miterlimit: 10;
        stroke-width: 0.3px;
      }

      .cls-13 {
        stroke-dasharray: 0 1.526;
      }

      .cls-14 {
        stroke-dasharray: 0 1.491;
      }
    </style>
  </defs>
  <rect id="사각형_31" data-name="사각형 31" class="cls-1" width="816" height="349"/>
  <rect id="사각형_32" data-name="사각형 32" class="cls-2" width="169.5" height="49.5" transform="translate(408.002 275.906)"/>
  <rect id="사각형_33" data-name="사각형 33" class="cls-2" width="169.5" height="49.5" transform="translate(209.753 131.156)"/>
  <rect id="사각형_34" data-name="사각형 34" class="cls-2" width="169.5" height="29.5" transform="translate(209.753 275.906)"/>
  <rect id="사각형_35" data-name="사각형 35" class="cls-2" width="169.5" height="49.5" transform="translate(606.25 56.906)"/>
  <rect id="사각형_36" data-name="사각형 36" class="cls-2" width="169.5" height="49.5" transform="translate(606.25 131.156)"/>
  <rect id="사각형_37" data-name="사각형 37" class="cls-2" width="169.5" height="49.5" transform="translate(606.25 275.906)"/>
  <rect id="사각형_38" data-name="사각형 38" class="cls-3" width="120" height="30" transform="translate(20 56.656)"/>
  <path id="패스_23840" data-name="패스 23840" class="cls-4" d="M8.708-7.14h1.33v3.346H11.41V-11.55H10.038v3.234H8.708v-3.01H7.35V-4.2H8.708ZM7.056-5.768A3.678,3.678,0,0,1,4.592-9.2v-1.6h-1.4v1.6A4.23,4.23,0,0,1,.644-5.4L1.4-4.3A4.74,4.74,0,0,0,3.906-6.972,4.374,4.374,0,0,0,6.286-4.69ZM7.2-.028c-1.778,0-2.842-.434-2.842-1.2S5.418-2.45,7.2-2.45s2.842.434,2.842,1.218S8.974-.028,7.2-.028Zm0-3.528c-2.632,0-4.284.868-4.284,2.324S4.564,1.078,7.2,1.078,11.48.21,11.48-1.232,9.828-3.556,7.2-3.556Zm13.636-7.126h-2.87V-11.69H16.506v1.008H13.622v.994h7.21ZM15.568-7.714c0-.476.644-.742,1.652-.742s1.652.266,1.652.742-.63.756-1.652.756S15.568-7.224,15.568-7.714Zm5.614,2c-1.022.14-2.128.224-3.22.28V-6.09c1.414-.14,2.268-.714,2.268-1.624,0-1.036-1.176-1.652-3.01-1.652s-3.01.616-3.01,1.652c0,.91.868,1.484,2.3,1.624v.714c-1.162.028-2.268.028-3.22.028l.154,1.022a46.42,46.42,0,0,0,7.854-.5Zm-4.76,4.8H23.3V-3.6h-8.33v.98h6.9v.8H14.994V.966h8.764V-.028H16.422ZM23.3-8.442v-3.122H21.854V-4.13H23.3V-7.252h1.736v-1.19Zm10.22-1.988h-2.87v-1.19H29.19v1.19h-2.9v1.064h7.224ZM28.252-6.972c0-.6.644-.966,1.652-.966s1.652.364,1.652.966-.644.938-1.652.938S28.252-6.384,28.252-6.972Zm5.614,2.38c-1.022.154-2.128.238-3.22.308v-.8c1.4-.168,2.268-.868,2.268-1.89,0-1.2-1.19-1.946-3.01-1.946s-3.01.742-3.01,1.946c0,1.036.882,1.722,2.3,1.89v.868c-1.162.028-2.282.042-3.22.042l.168,1.148a45.259,45.259,0,0,0,7.84-.574ZM29.246-2.31H27.8V.84h8.61V-.336H29.246ZM35.98-7.28v-4.3H34.538v9.9H35.98V-6.09h1.736V-7.28ZM47.8-8.218v1.456H44.73v1.176H47.8V-4.13h1.442v-7.434H47.8v2.17h-2.6a7.15,7.15,0,0,0,.112-1.26h-5.74v1.162h4.2c-.252,1.974-1.89,3.528-4.858,4.354L39.48-3.99c2.73-.8,4.592-2.212,5.376-4.228Zm-2.7,8.106c-1.708,0-2.786-.49-2.786-1.372s1.078-1.358,2.786-1.358,2.8.49,2.8,1.358S46.816-.112,45.094-.112Zm0-3.864c-2.562,0-4.214.952-4.214,2.492s1.652,2.506,4.214,2.506S49.322.07,49.322-1.484,47.656-3.976,45.094-3.976Zm6.972-6.258v1.176H56.49c-.294,2.912-1.96,5.138-5.054,6.72l.8,1.106a9.512,9.512,0,0,0,5.7-9ZM63.154-6.58H61.236v-5H59.794V1.064h1.442v-6.44h1.918Zm7.714-1.6v1.19h2.3V-2.31h1.442v-9.24H73.164v3.374Zm.784,2.954a4.157,4.157,0,0,1-2.968-3.794V-9.45h2.632v-1.162H64.554V-9.45h2.674v.434a4.4,4.4,0,0,1-3.108,4.06l.742,1.134a5.167,5.167,0,0,0,3.122-3A4.864,4.864,0,0,0,70.938-4.1ZM67.858-.336V-3.108H66.416V.84h8.512V-.336Z" transform="translate(41.885 77.815)"/>
  <rect id="사각형_39" data-name="사각형 39" class="cls-5" width="170" height="25" transform="translate(209.503 21.655)"/>
  <path id="패스_23842" data-name="패스 23842" class="cls-4" d="M7.845-4.395v.915h2.73V-2.1h1.23V-12.345h-1.23v7.95ZM5.1-10.89c1.275,0,2.145.57,2.145,1.425s-.87,1.44-2.145,1.44S2.955-8.6,2.955-9.465,3.825-10.89,5.1-10.89Zm0,3.78c1.965,0,3.315-.915,3.315-2.355,0-1.41-1.35-2.34-3.315-2.34s-3.315.93-3.315,2.34C1.785-8.025,3.135-7.11,5.1-7.11ZM4.62-2.58H5.85V-5.235c1.215-.075,2.46-.21,3.645-.39L9.39-6.51a73.088,73.088,0,0,1-8.67.39L.885-5.1c1.11,0,2.4-.015,3.735-.075ZM3.87-.2v-2.91H2.64V.81h9.51V-.2ZM18.915-4.11H21.99v2.55H18.915ZM23.2-1.56V-4.11h2.1V-5.115h-8.28v-2.16H24.99v-4.08H15.78v1.005h8.01v2.085H15.81V-4.11H17.7v2.55H14.28V-.555H26.505V-1.56Z" transform="translate(280.854 40.756)"/>
  <rect id="사각형_40" data-name="사각형 40" class="cls-5" width="167.252" height="25" transform="translate(410.5 21.655)"/>
  <path id="패스_23849" data-name="패스 23849" class="cls-4" d="M4.74-9.765h2.4v-1H1v1h2.55V-8.55A7.021,7.021,0,0,1,.63-2.5l.75.915A6.965,6.965,0,0,0,4.155-5.85a6.433,6.433,0,0,0,2.7,3.93l.75-.9A6.518,6.518,0,0,1,4.74-8.55Zm3.6,2.25H6.12V-6.51H8.34V.405H9.51v-12.45H8.34Zm2.7-4.845V1.1h1.185V-12.36ZM15.4-4.41A7.249,7.249,0,0,0,20.4-8.04a7.153,7.153,0,0,0,5.04,3.57l.495-.99c-2.34-.375-4.905-2.22-4.905-4.365v-.285h4.455v-1H15.3v1h4.455v.285c0,2.145-2.55,4.02-4.875,4.41Zm5.61,2.775V-4.89h-1.23v3.255H14.3v1.02h12.21v-1.02Z" transform="translate(480.476 40.756)"/>
  <rect id="사각형_41" data-name="사각형 41" class="cls-5" width="170" height="25" transform="translate(606 21.655)"/>
  <path id="패스_23858" data-name="패스 23858" class="cls-4" d="M3.735-10.095H5.88V-5.58c-.72.045-1.44.06-2.145.075ZM9.03-5.835c-.63.09-1.29.15-1.965.18v-4.44H8.4v-.99H1.215v.99h1.32v4.62c-.6.015-1.17.015-1.7.015L.975-4.44A55.747,55.747,0,0,0,9.12-4.92ZM4.1-3.36H2.865V.81h8.97V-.2H4.1Zm7.14-4.89v-4.1h-1.23V-2.43h1.23v-4.8H13.23V-8.25ZM15.93-9.81h2.82v6.33H15.93ZM14.775-2.5H19.89v-8.28H14.775Zm9.78-9.84V-7.02H22.74v-5.025H21.585V.435H22.74v-6.45h1.815V1.1h1.17v-13.44ZM27.18,2.685h1l4.485-14.58h-.99Zm12.285-13.5c2.055,0,3.45.75,3.45,1.935s-1.4,1.95-3.45,1.95S36.03-7.7,36.03-8.88,37.425-10.815,39.465-10.815Zm0,4.875c2.805,0,4.71-1.14,4.71-2.94s-1.905-2.925-4.71-2.925S34.77-10.68,34.77-8.88,36.675-5.94,39.465-5.94Zm6.12,1.26H33.4v1.005H36.54V1.11h1.245V-3.675H41.16V1.11H42.4V-3.675h3.18ZM52.98.165c-2.16,0-3.375-.42-3.375-1.23,0-.795,1.215-1.23,3.375-1.23s3.375.435,3.375,1.23C56.355-.255,55.155.165,52.98.165Zm0-3.375c-2.925,0-4.6.75-4.6,2.145,0,1.41,1.68,2.16,4.6,2.16s4.6-.75,4.6-2.16C57.585-2.46,55.9-3.21,52.98-3.21ZM53.6-5.22V-6.54h4.05V-7.5h-7.92V-8.82H57.21v-.93H49.725v-1.245H57.57v-.96H48.495V-6.54h3.87v1.32H46.89v.99H59.07v-.99Z" transform="translate(661.053 40.756)"/>
  <rect id="사각형_42" data-name="사각형 42" class="cls-3" width="120" height="30" transform="translate(20 275.656)"/>
  <path id="패스_23841" data-name="패스 23841" class="cls-4" d="M8.3-10.108H5.278v-1.428H3.836v1.428H.784v1.162H8.3ZM2.884-5.95c0-.784.686-1.26,1.68-1.26S6.23-6.734,6.23-5.95,5.558-4.7,4.564-4.7,2.884-5.18,2.884-5.95Zm2.394,2.3a2.41,2.41,0,0,0,2.31-2.3c0-1.428-1.232-2.366-3.024-2.366S1.526-7.378,1.526-5.95a2.42,2.42,0,0,0,2.31,2.3v1.232C2.66-2.38,1.526-2.38.56-2.38l.2,1.19a46.136,46.136,0,0,0,7.8-.5L8.442-2.758c-1.008.154-2.086.224-3.164.28ZM12.4-6.286H10.6v-5.292H9.156V1.078H10.6V-5.1H12.4Zm8.414.672a3.91,3.91,0,0,1-2.982-3.654v-.238h2.646v-1.162h-6.79v1.162H16.38v.252a4.3,4.3,0,0,1-3.094,4.032l.728,1.134a5.146,5.146,0,0,0,3.136-2.94,4.748,4.748,0,0,0,2.968,2.534ZM19.194-.056c-1.764,0-2.786-.448-2.786-1.26s1.022-1.26,2.786-1.26,2.786.434,2.786,1.26S20.958-.056,19.194-.056Zm0-3.654c-2.6,0-4.214.882-4.214,2.394s1.61,2.394,4.214,2.394,4.214-.9,4.214-2.394S21.8-3.71,19.194-3.71Zm4.074-4.774v-3.08H21.826V-4h1.442v-3.29H25.06v-1.19Zm9.968.77H30.324v-2.324h2.912Zm-4.354,0H27.16v1.162h9.226V-7.714H34.678v-2.324h1.778V-11.2H27.09v1.162h1.792Zm5.824,7.49H28.868V-1.946h5.838Zm2.8-4.158V-5.544H26.068v1.162h5v1.288H27.44V.924h8.68V-3.094H32.508V-4.382Z" transform="translate(60.89 296.815)"/>
  <rect id="사각형_43" data-name="사각형 43" class="cls-2" width="169.5" height="29.5" transform="translate(209.753 56.906)"/>
  <path id="패스_23843" data-name="패스 23843" class="cls-6" d="M7.322-4.1v.854H9.87V-1.96h1.148v-9.562H9.87V-4.1ZM4.76-10.164c1.19,0,2,.532,2,1.33S5.95-7.49,4.76-7.49s-2-.532-2-1.344S3.57-10.164,4.76-10.164Zm0,3.528c1.834,0,3.094-.854,3.094-2.2,0-1.316-1.26-2.184-3.094-2.184s-3.094.868-3.094,2.184C1.666-7.49,2.926-6.636,4.76-6.636ZM4.312-2.408H5.46V-4.886c1.134-.07,2.3-.2,3.4-.364l-.1-.826a68.215,68.215,0,0,1-8.092.364l.154.952c1.036,0,2.24-.014,3.486-.07Zm-.7,2.226V-2.9H2.464V.756H11.34V-.182ZM17.738-3.836h2.87v2.38h-2.87Zm4,2.38v-2.38H23.7v-.938H15.974V-6.79h7.434V-10.6h-8.6v.938h7.476v1.946H14.84v3.878H16.6v2.38H13.412v.938h11.41v-.938Zm8.022-6.79H32.13v-.938H29.778V-11.06H28.672v1.876H26.306v.938h2.366v.574A6.153,6.153,0,0,1,26-2.436l.686.868a6.113,6.113,0,0,0,2.548-3.724,5.791,5.791,0,0,0,2.576,3.444l.658-.854a5.73,5.73,0,0,1-2.7-4.97Zm5.95-3.276v5.068H34.062v-4.788H32.984V.42h1.078V-5.5h1.652V1.036H36.82V-11.522Zm4.13,6.188a4.557,4.557,0,0,0,3.122-2.31,4.577,4.577,0,0,0,3.08,2.128l.462-.9c-1.778-.406-3-1.484-3-2.744v-.028h2.772v-.91H43.512v-1.4H42.364v1.4H39.606v.91h2.772v.028c0,1.344-1.218,2.492-3.024,2.912Zm7.21.462a61.3,61.3,0,0,1-8.288.406l.154.966c1.05,0,2.24-.014,3.472-.056V.672H43.54v-4.3a34.466,34.466,0,0,0,3.6-.392Zm.9-6.636V1.05H49.1V-11.508Z" transform="translate(269.059 77.815)"/>
  <path id="패스_23845" data-name="패스 23845" class="cls-6" d="M7.322-4.1v.854H9.87V-1.96h1.148v-9.562H9.87V-4.1ZM4.76-10.164c1.19,0,2,.532,2,1.33S5.95-7.49,4.76-7.49s-2-.532-2-1.344S3.57-10.164,4.76-10.164Zm0,3.528c1.834,0,3.094-.854,3.094-2.2,0-1.316-1.26-2.184-3.094-2.184s-3.094.868-3.094,2.184C1.666-7.49,2.926-6.636,4.76-6.636ZM4.312-2.408H5.46V-4.886c1.134-.07,2.3-.2,3.4-.364l-.1-.826a68.215,68.215,0,0,1-8.092.364l.154.952c1.036,0,2.24-.014,3.486-.07Zm-.7,2.226V-2.9H2.464V.756H11.34V-.182ZM17.738-3.836h2.87v2.38h-2.87Zm4,2.38v-2.38H23.7v-.938H15.974V-6.79h7.434V-10.6h-8.6v.938h7.476v1.946H14.84v3.878H16.6v2.38H13.412v.938h11.41v-.938Zm8.022-6.79H32.13v-.938H29.778V-11.06H28.672v1.876H26.306v.938h2.366v.574A6.153,6.153,0,0,1,26-2.436l.686.868a6.113,6.113,0,0,0,2.548-3.724,5.791,5.791,0,0,0,2.576,3.444l.658-.854a5.73,5.73,0,0,1-2.7-4.97Zm5.95-3.276v5.068H34.062v-4.788H32.984V.42h1.078V-5.5h1.652V1.036H36.82V-11.522Zm4.13,6.188a4.557,4.557,0,0,0,3.122-2.31,4.577,4.577,0,0,0,3.08,2.128l.462-.9c-1.778-.406-3-1.484-3-2.744v-.028h2.772v-.91H43.512v-1.4H42.364v1.4H39.606v.91h2.772v.028c0,1.344-1.218,2.492-3.024,2.912Zm7.21.462a61.3,61.3,0,0,1-8.288.406l.154.966c1.05,0,2.24-.014,3.472-.056V.672H43.54v-4.3a34.466,34.466,0,0,0,3.6-.392Zm.9-6.636V1.05H49.1V-11.508Z" transform="translate(269.059 296.817)"/>
  <line id="선_50" data-name="선 50" class="cls-7" y2="32.575" transform="translate(294.504 92.688)"/>
  <path id="패스_56" data-name="패스 56" class="cls-8" d="M13748.944,2354.021h0m0-34.848h0" transform="translate(-13454.44 -2228)"/>
  <path id="패스_57" data-name="패스 57" class="cls-2" d="M13752.167,2350.553l-3.224,3.467-3.222-3.467" transform="translate(-13454.44 -2228)"/>
  <line id="선_51" data-name="선 51" class="cls-9" y2="18.422" transform="translate(691 109.754)"/>
  <path id="패스_58" data-name="패스 58" class="cls-8" d="M14145.44,2356.913h0m0-20.633h0" transform="translate(-13454.44 -2228)"/>
  <path id="패스_59" data-name="패스 59" class="cls-2" d="M14148.663,2353.446l-3.224,3.467-3.222-3.467" transform="translate(-13454.44 -2228)"/>
  <line id="선_52" data-name="선 52" class="cls-10" x2="50.859" transform="translate(147.518 290.656)"/>
  <path id="패스_60" data-name="패스 60" class="cls-8" d="M13653.576,2518.656h0m-53.136,0h0" transform="translate(-13454.44 -2228)"/>
  <path id="패스_61" data-name="패스 61" class="cls-2" d="M13650.108,2515.434l3.468,3.223-3.468,3.222" transform="translate(-13454.44 -2228)"/>
  <line id="선_53" data-name="선 53" class="cls-10" x2="50.859" transform="translate(147.518 71.656)"/>
  <path id="패스_62" data-name="패스 62" class="cls-8" d="M13653.576,2299.656h0m-53.136,0h0" transform="translate(-13454.44 -2228)"/>
  <path id="패스_63" data-name="패스 63" class="cls-2" d="M13650.108,2296.434l3.468,3.223-3.468,3.222" transform="translate(-13454.44 -2228)"/>
  <line id="선_54" data-name="선 54" class="cls-11" x2="15.866" transform="translate(584.137 81.656)"/>
  <path id="패스_64" data-name="패스 64" class="cls-8" d="M14055.2,2309.656h0m-18.133,0h0" transform="translate(-13454.44 -2228)"/>
  <path id="패스_65" data-name="패스 65" class="cls-2" d="M14051.731,2306.434l3.467,3.223-3.467,3.222" transform="translate(-13454.44 -2228)"/>
  <line id="선_55" data-name="선 55" class="cls-11" x2="15.866" transform="translate(584.137 300.656)"/>
  <path id="패스_66" data-name="패스 66" class="cls-8" d="M14055.2,2528.656h0m-18.133,0h0" transform="translate(-13454.44 -2228)"/>
  <path id="패스_67" data-name="패스 67" class="cls-2" d="M14051.731,2525.434l3.467,3.223-3.467,3.222" transform="translate(-13454.44 -2228)"/>
  <line id="선_56" data-name="선 56" class="cls-11" x2="15.866" transform="translate(385.888 290.656)"/>
  <path id="패스_68" data-name="패스 68" class="cls-8" d="M13856.95,2518.656h0m-18.133,0h0" transform="translate(-13454.44 -2228)"/>
  <path id="패스_69" data-name="패스 69" class="cls-2" d="M13853.482,2515.434l3.468,3.223-3.468,3.222" transform="translate(-13454.44 -2228)"/>
  <line id="선_57" data-name="선 57" class="cls-12" x2="150" transform="translate(219.503 155.215)"/>
  <path id="패스_23844" data-name="패스 23844" class="cls-6" d="M9.534-6.524H3.3V-8.372h6.23Zm1.148-4.494H9.534V-9.3H3.3v-1.722H2.17v5.432h8.512Zm1.442,6.944H.728v.924h5.1v4.2H6.972v-4.2h5.152ZM20.65-7.56H17.528v-2.632H20.65Zm-4.27,0H14.532v.924h9.114V-7.56H21.8v-2.632h1.9v-.924H14.49v.924h1.89Zm5.894,7.5H15.946V-2.142h6.328ZM24.78-4.522v-.924H13.426v.924h5.11v1.47h-3.71V.868h8.568v-3.92h-3.71v-1.47ZM36.932-7.21h1.6v3.444h1.106v-7.742H38.528v3.36h-1.6V-11.27H35.84v7.1h1.092Zm-1.61,1.582a3.775,3.775,0,0,1-2.548-3.416v-1.694H31.668v1.694A4.348,4.348,0,0,1,29.05-5.292l.616.9a4.993,4.993,0,0,0,2.562-2.786,4.5,4.5,0,0,0,2.478,2.436ZM35.49.14c-1.876,0-3.052-.5-3.052-1.372S33.614-2.59,35.49-2.59c1.9,0,3.066.49,3.066,1.358S37.394.14,35.49.14Zm0-3.626c-2.576,0-4.186.826-4.186,2.254s1.61,2.254,4.186,2.254,4.2-.826,4.2-2.254S38.08-3.486,35.49-3.486ZM49.042-5.208a4.4,4.4,0,0,1-3.094-3.976v-1.582H44.8v1.554A4.563,4.563,0,0,1,41.664-4.9l.6.91A5.209,5.209,0,0,0,45.4-7.182,5.281,5.281,0,0,0,48.468-4.3ZM44.828-3.136H43.68V.756h8.33V-.182H44.828Zm6.636-4.536v-3.864H50.316v9.282h1.148V-6.72h1.862v-.952Zm16.156-3.85H66.472v7.21H67.62ZM62.734-6.5H59.108V-9.8h3.626Zm1.12-4.214H57.988v5.138h5.866Zm4.06,8.134v-.882H64.232V-4.676H63.07v1.218H59.388v.882h3.668C63.042-1.33,61.04-.14,58.9.112l.378.882a6.276,6.276,0,0,0,4.382-2.3A6.183,6.183,0,0,0,67.97.994l.392-.882c-2.156-.266-4.116-1.484-4.13-2.688Zm16.394-2.73H82.446a20.729,20.729,0,0,0,.35-4.312V-10.71H74.368v.924h7.308v.168a18.563,18.563,0,0,1-.392,4.312h-8.33v.938h5.068V1.05h1.162V-4.368h5.124Zm2.842-3.85h2.632v5.908H87.15ZM86.072-2.338h4.774v-7.728H86.072ZM95.2-11.522v4.97H93.506v-4.69H92.428V.406h1.078v-6.02H95.2V1.022h1.092V-11.522Z" transform="translate(244.488 150.065)"/>
  <path id="패스_70" data-name="패스 70" class="cls-6" d="M13729.943,2402.063a7,7,0,1,0-7-7,7,7,0,0,0,7,7" transform="translate(-13454.44 -2228)"/>
  <path id="패스_23846" data-name="패스 23846" class="cls-4" d="M1.166,0H3.542c1.8,0,2.992-.792,2.992-2.343A1.859,1.859,0,0,0,4.818-4.268v-.055A1.724,1.724,0,0,0,6.05-6.072c0-1.353-1.056-1.947-2.673-1.947H1.166Zm.66-4.521V-7.48H3.234c1.419,0,2.156.4,2.156,1.485,0,.913-.638,1.474-2.222,1.474Zm0,3.971V-3.993H3.388c1.6,0,2.5.528,2.5,1.65,0,1.243-.946,1.793-2.5,1.793Z" transform="translate(271.973 170.905)"/>
  <path id="패스_71" data-name="패스 71" class="cls-6" d="M13748.943,2402.063a7,7,0,1,0-7-7,7,7,0,0,0,7,7" transform="translate(-13454.44 -2228)"/>
  <path id="패스_23847" data-name="패스 23847" class="cls-4" d="M1.166,0h1.9C5.522,0,6.732-1.584,6.732-4.037S5.522-8.019,3.058-8.019H1.166Zm.66-.561V-7.469H2.992c2.112,0,3.047,1.353,3.047,3.432S5.1-.561,2.992-.561Z" transform="translate(290.807 170.905)"/>
  <path id="패스_72" data-name="패스 72" class="cls-6" d="M13767.943,2402.063a7,7,0,1,0-7-7,7,7,0,0,0,7,7" transform="translate(-13454.44 -2228)"/>
  <path id="패스_23848" data-name="패스 23848" class="cls-4" d="M1.166,0h.66V-3.806H5.005v-.561H1.826V-7.458H5.588v-.561H1.166Z" transform="translate(310.577 170.905)"/>
  <rect id="사각형_47" data-name="사각형 47" class="cls-2" width="169.5" height="49.5" transform="translate(408.002 56.906)"/>
  <line id="선_58" data-name="선 58" class="cls-12" x2="150" transform="translate(417.751 80.965)"/>
  <path id="패스_23850" data-name="패스 23850" class="cls-6" d="M4.424-9.114h2.24v-.938H.938v.938h2.38V-7.98A6.553,6.553,0,0,1,.588-2.338l.7.854A6.5,6.5,0,0,0,3.878-5.46,6,6,0,0,0,6.4-1.792l.7-.84A6.084,6.084,0,0,1,4.424-7.98Zm3.36,2.1H5.712v.938H7.784V.378H8.876v-11.62H7.784Zm2.52-4.522V1.022H11.41V-11.536ZM20.636-7.56H17.514v-2.632h3.122Zm-4.27,0H14.518v.924h9.114V-7.56H21.784v-2.632h1.9v-.924H14.476v.924h1.89Zm5.894,7.5H15.932V-2.142H22.26Zm2.506-4.466v-.924H13.412v.924h5.11v1.47h-3.71V.868H23.38v-3.92H19.67v-1.47Zm5.012-4.592h2.24v-.938H26.292v.938h2.38V-7.98a6.553,6.553,0,0,1-2.73,5.642l.7.854a6.5,6.5,0,0,0,2.59-3.976,6,6,0,0,0,2.52,3.668l.7-.84A6.084,6.084,0,0,1,29.778-7.98Zm3.36,2.1H31.066v.938h2.072V.378H34.23v-11.62H33.138Zm2.52-4.522V1.022h1.106V-11.536Zm4.158,7.42A6.766,6.766,0,0,0,44.478-7.5a6.676,6.676,0,0,0,4.7,3.332l.462-.924c-2.184-.35-4.578-2.072-4.578-4.074v-.266h4.158v-.938H39.718v.938h4.158v.266c0,2-2.38,3.752-4.55,4.116Zm5.236,2.59V-4.564H43.9v3.038H38.78v.952h11.4v-.952Z" transform="translate(467.307 75.815)"/>
  <path id="패스_73" data-name="패스 73" class="cls-6" d="M13928.192,2327.813a7,7,0,1,0-7-7,7,7,0,0,0,7,7" transform="translate(-13454.44 -2228)"/>
  <path id="패스_23851" data-name="패스 23851" class="cls-4" d="M1.166,0H3.542c1.8,0,2.992-.792,2.992-2.343A1.859,1.859,0,0,0,4.818-4.268v-.055A1.724,1.724,0,0,0,6.05-6.072c0-1.353-1.056-1.947-2.673-1.947H1.166Zm.66-4.521V-7.48H3.234c1.419,0,2.156.4,2.156,1.485,0,.913-.638,1.474-2.222,1.474Zm0,3.971V-3.993H3.388c1.6,0,2.5.528,2.5,1.65,0,1.243-.946,1.793-2.5,1.793Z" transform="translate(470.221 96.655)"/>
  <path id="패스_74" data-name="패스 74" class="cls-6" d="M13947.192,2327.813a7,7,0,1,0-7-7,7,7,0,0,0,7,7" transform="translate(-13454.44 -2228)"/>
  <path id="패스_23852" data-name="패스 23852" class="cls-4" d="M1.166,0h1.9C5.522,0,6.732-1.584,6.732-4.037S5.522-8.019,3.058-8.019H1.166Zm.66-.561V-7.469H2.992c2.112,0,3.047,1.353,3.047,3.432S5.1-.561,2.992-.561Z" transform="translate(489.056 96.655)"/>
  <path id="패스_75" data-name="패스 75" class="cls-6" d="M13966.192,2327.813a7,7,0,1,0-7-7,7,7,0,0,0,7,7" transform="translate(-13454.44 -2228)"/>
  <path id="패스_23853" data-name="패스 23853" class="cls-4" d="M1.166,0h.66V-3.806H5.005v-.561H1.826V-7.458H5.588v-.561H1.166Z" transform="translate(508.825 96.655)"/>
  <line id="선_59" data-name="선 59" class="cls-12" x2="150" transform="translate(616 80.965)"/>
  <path id="패스_23859" data-name="패스 23859" class="cls-6" d="M11.34-11.508H10.234v9.422H11.34Zm-3.57,9.1H8.862v-8.876H7.77v3.248H6.23V-7.1H7.77Zm-1.078-2.9a20.606,20.606,0,0,1-4.256.364V-6.888h3.3v-3.6H1.288v.9H4.62v1.834h-3.3v3.738h.812A22.745,22.745,0,0,0,6.818-4.4ZM4.3-.182V-3.024H3.15V.756H11.7V-.182ZM20.58-6.636a31.158,31.158,0,0,1-5.432.322V-7.756h4.368v-.882H15.148V-9.982H19.74v-.91H14V-5.4h.952a33.3,33.3,0,0,0,5.754-.322ZM16.352-1.4H23.17V-4.354H15.19v.9h6.846v1.2h-6.8V.9h8.4V0h-7.28ZM23.17-8.778v-2.73H22.022v6.552H23.17V-7.84h1.862v-.938Zm16.142-2.744H38.164v7.21h1.148ZM34.426-6.5H30.8V-9.8h3.626Zm1.12-4.214H29.68v5.138h5.866Zm4.06,8.134v-.882H35.924V-4.676H34.762v1.218H31.08v.882h3.668C34.734-1.33,32.732-.14,30.59.112l.378.882A6.276,6.276,0,0,0,35.35-1.3a6.183,6.183,0,0,0,4.312,2.3l.392-.882c-2.156-.266-4.116-1.484-4.13-2.688Zm7.77-6.846h2v4.214c-.672.042-1.344.056-2,.07Zm4.942,3.976c-.588.084-1.2.14-1.834.168V-9.422H51.73v-.924H45.024v.924h1.232V-5.11c-.56.014-1.092.014-1.582.014l.126.952a52.031,52.031,0,0,0,7.6-.448Zm-4.606,2.31H46.564V.756h8.372V-.182H47.712ZM54.376-7.7v-3.822H53.228v9.254h1.148v-4.48h1.862V-7.7Zm4.466-1.456h2.632v5.908H58.842ZM57.764-2.338h4.774v-7.728H57.764Zm9.128-9.184v4.97H65.2v-4.69H64.12V.406H65.2v-6.02h1.694V1.022h1.092V-11.522Z" transform="translate(655.51 75.815)"/>
  <path id="패스_76" data-name="패스 76" class="cls-6" d="M14116.94,2327.813a7,7,0,1,0-7-7,7,7,0,0,0,7,7" transform="translate(-13454.44 -2228)"/>
  <path id="패스_23860" data-name="패스 23860" class="cls-4" d="M1.837-3.223l.5-1.452c.319-.935.594-1.782.869-2.75h.044c.286.968.55,1.815.88,2.75l.484,1.452ZM5.676,0h.7l-2.8-8.019H2.893L.088,0h.66l.913-2.7H4.785Z" transform="translate(659.271 96.655)"/>
  <path id="패스_77" data-name="패스 77" class="cls-6" d="M14135.94,2327.813a7,7,0,1,0-7-7,7,7,0,0,0,7,7" transform="translate(-13454.44 -2228)"/>
  <path id="패스_23861" data-name="패스 23861" class="cls-4" d="M1.166,0h1.9C5.522,0,6.732-1.584,6.732-4.037S5.522-8.019,3.058-8.019H1.166Zm.66-.561V-7.469H2.992c2.112,0,3.047,1.353,3.047,3.432S5.1-.561,2.992-.561Z" transform="translate(677.804 96.655)"/>
  <path id="패스_78" data-name="패스 78" class="cls-6" d="M14154.94,2327.813a7,7,0,1,0-7-7,7,7,0,0,0,7,7" transform="translate(-13454.44 -2228)"/>
  <path id="패스_23862" data-name="패스 23862" class="cls-4" d="M1.166,0H5.72V-.572H1.826v-3.4H5.005v-.561H1.826V-7.458H5.6v-.561H1.166Z" transform="translate(697.349 96.655)"/>
  <path id="패스_79" data-name="패스 79" class="cls-6" d="M14173.94,2327.813a7,7,0,1,0-7-7,7,7,0,0,0,7,7" transform="translate(-13454.44 -2228)"/>
  <path id="패스_23863" data-name="패스 23863" class="cls-4" d="M4.136.143A3.252,3.252,0,0,0,6.545-.77V-3.993h-2.5v.561H5.907v2.409a2.489,2.489,0,0,1-1.7.572c-1.8,0-2.849-1.4-2.849-3.586,0-2.167,1.111-3.531,2.893-3.531a2.346,2.346,0,0,1,1.826.8l.385-.429a2.954,2.954,0,0,0-2.222-.968C2.123-8.162.66-6.578.66-4.015S2.068.143,4.136.143Z" transform="translate(715.799 96.655)"/>
  <line id="선_60" data-name="선 60" class="cls-12" x2="150" transform="translate(616 155.215)"/>
  <path id="패스_23864" data-name="패스 23864" class="cls-6" d="M11.438-10.486H7v-1.2H5.852v1.2H1.33v.9H11.438ZM3.262-1.834H9.59V0H3.262ZM2.142.868H10.71V-2.7H2.142ZM3.57-7.322c0-.616,1.022-.966,2.856-.966,1.806,0,2.828.35,2.828.966s-1.022.98-2.828.98C4.592-6.342,3.57-6.692,3.57-7.322ZM7-4.592v-.952c2.212-.084,3.472-.7,3.472-1.778C10.472-8.484,9-9.1,6.426-9.1c-2.6,0-4.06.616-4.06,1.778,0,1.078,1.246,1.694,3.486,1.778v.952H.742v.91h11.34v-.91ZM20.4-6.566H18.424a11.567,11.567,0,0,0,.49-3.472h-4.8v.924h3.7a9.633,9.633,0,0,1-.322,2l-3.99.266.154.98,3.528-.35A7.761,7.761,0,0,1,13.5-2.394l.658.826a8.821,8.821,0,0,0,3.92-4.06H20.4V.392h1.078V-11.2H20.4Zm2.6-4.97V1.022h1.092V-11.536Zm6.454,8.722c-1.2,0-2.044-1.316-2.044-3.36s.84-3.346,2.044-3.346,2.03,1.316,2.03,3.346S30.646-2.814,29.456-2.814Zm5.838-8.708v4.788h-2.73c-.182-2.352-1.414-3.822-3.108-3.822-1.834,0-3.136,1.708-3.136,4.382s1.3,4.382,3.136,4.382c1.75,0,3-1.54,3.108-4h2.73v6.86h1.148V-11.522Z" transform="translate(671.89 150.065)"/>
  <path id="패스_80" data-name="패스 80" class="cls-6" d="M14135.94,2402.063a7,7,0,1,0-7-7,7,7,0,0,0,7,7" transform="translate(-13454.44 -2228)"/>
  <path id="패스_23865" data-name="패스 23865" class="cls-4" d="M1.837-3.223l.5-1.452c.319-.935.594-1.782.869-2.75h.044c.286.968.55,1.815.88,2.75l.484,1.452ZM5.676,0h.7l-2.8-8.019H2.893L.088,0h.66l.913-2.7H4.785Z" transform="translate(678.271 170.905)"/>
  <path id="패스_81" data-name="패스 81" class="cls-6" d="M14154.94,2402.063a7,7,0,1,0-7-7,7,7,0,0,0,7,7" transform="translate(-13454.44 -2228)"/>
  <path id="패스_23866" data-name="패스 23866" class="cls-4" d="M4.136.143A3.252,3.252,0,0,0,6.545-.77V-3.993h-2.5v.561H5.907v2.409a2.489,2.489,0,0,1-1.7.572c-1.8,0-2.849-1.4-2.849-3.586,0-2.167,1.111-3.531,2.893-3.531a2.346,2.346,0,0,1,1.826.8l.385-.429a2.954,2.954,0,0,0-2.222-.968C2.123-8.162.66-6.578.66-4.015S2.068.143,4.136.143Z" transform="translate(696.799 170.905)"/>
  <rect id="사각형_57" data-name="사각형 57" class="cls-2" width="169.5" height="49.5" transform="translate(606.25 202.906)"/>
  <line id="선_61" data-name="선 61" class="cls-12" x2="150" transform="translate(616 226.965)"/>
  <path id="패스_23867" data-name="패스 23867" class="cls-6" d="M9.6-9.016a26.81,26.81,0,0,1-.476,5.684l1.148.126a28.308,28.308,0,0,0,.476-5.81v-1.246H1.946v.938H9.6Zm-3.29,7.35V-6.16H5.166v4.494H.756v.938H12.11v-.938Zm7.672-8.918v.924H17.71C17.5-7.574,16.058-5.88,13.5-4.83l.56.84c3.178-1.344,4.83-3.6,4.83-6.594Zm1.6,7.994h7.294V1.036h1.148V-3.528H15.582Zm7.336-8.918v3.15H21.266v-2.926H20.174v7.1h1.092V-7.42h1.652v3.29h1.106v-7.378Zm4.76,2.45H31.22V-10H26.544v7.938h.826a20.619,20.619,0,0,0,4.648-.378l-.1-.952a19.752,19.752,0,0,1-4.242.378Zm7.98-2.464v5.04H33.88v-4.76H32.8V.406H33.88v-5.95h1.778v6.58h1.106V-11.522Zm3.108,6.1v.924h11.34v-.924Zm5.67,1.974c-2.674,0-4.3.8-4.3,2.24s1.624,2.24,4.3,2.24,4.3-.812,4.3-2.24S47.124-3.444,44.436-3.444Zm0,.882c1.974,0,3.136.5,3.136,1.358S46.41.14,44.436.14,41.3-.35,41.3-1.2,42.462-2.562,44.436-2.562Zm0-8.638c-2.7,0-4.41.882-4.41,2.394s1.708,2.38,4.41,2.38,4.41-.882,4.41-2.38S47.152-11.2,44.436-11.2Zm0,.9c1.988,0,3.234.56,3.234,1.5s-1.246,1.484-3.234,1.484S41.2-7.882,41.2-8.806,42.448-10.3,44.436-10.3Z" transform="translate(665.555 221.815)"/>
  <path id="패스_82" data-name="패스 82" class="cls-6" d="M14135.94,2473.813a7,7,0,1,0-7-7,7,7,0,0,0,7,7" transform="translate(-13454.44 -2228)"/>
  <path id="패스_23868" data-name="패스 23868" class="cls-4" d="M4.048.143A3,3,0,0,0,6.446-1l-.374-.418a2.564,2.564,0,0,1-1.991.968c-1.683,0-2.728-1.4-2.728-3.586,0-2.167,1.067-3.531,2.761-3.531a2.254,2.254,0,0,1,1.738.8l.374-.429a2.774,2.774,0,0,0-2.112-.968C2.079-8.162.66-6.578.66-4.015S2.068.143,4.048.143Z" transform="translate(678.052 242.655)"/>
  <path id="패스_83" data-name="패스 83" class="cls-6" d="M14154.94,2473.813a7,7,0,1,0-7-7,7,7,0,0,0,7,7" transform="translate(-13454.44 -2228)"/>
  <path id="패스_23869" data-name="패스 23869" class="cls-4" d="M4.136.143A3.252,3.252,0,0,0,6.545-.77V-3.993h-2.5v.561H5.907v2.409a2.489,2.489,0,0,1-1.7.572c-1.8,0-2.849-1.4-2.849-3.586,0-2.167,1.111-3.531,2.893-3.531a2.346,2.346,0,0,1,1.826.8l.385-.429a2.954,2.954,0,0,0-2.222-.968C2.123-8.162.66-6.578.66-4.015S2.068.143,4.136.143Z" transform="translate(696.799 242.655)"/>
  <line id="선_62" data-name="선 62" class="cls-12" x2="150" transform="translate(417.751 299.965)"/>
  <path id="패스_23854" data-name="패스 23854" class="cls-6" d="M8.316-10H5.152v-1.512H4V-10H.812v.91h7.5ZM2.7-6.02c0-.868.756-1.442,1.876-1.442s1.876.574,1.876,1.442S5.7-4.592,4.578-4.592,2.7-5.152,2.7-6.02Zm2.45,2.3a2.4,2.4,0,0,0,2.394-2.3c0-1.414-1.218-2.324-2.968-2.324S1.61-7.434,1.61-6.02A2.4,2.4,0,0,0,4-3.724v1.372C2.786-2.31,1.61-2.31.6-2.31l.154.966a46.349,46.349,0,0,0,7.84-.5L8.526-2.7a32.826,32.826,0,0,1-3.374.308Zm7.224-2.464h-1.96v-5.334H9.268V1.036h1.148V-5.222h1.96Zm8.316.742A4.084,4.084,0,0,1,17.654-9.17v-.49h2.772v-.924H13.692v.924h2.814v.49a4.447,4.447,0,0,1-3.15,4.088l.588.91a5.185,5.185,0,0,0,3.164-3.08,4.883,4.883,0,0,0,3.038,2.7ZM19.166.112c-1.876,0-3-.518-3-1.414s1.12-1.4,3-1.4c1.848,0,2.982.518,2.982,1.4S21.014.112,19.166.112Zm0-3.724c-2.576,0-4.144.854-4.144,2.31s1.568,2.324,4.144,2.324c2.548,0,4.13-.854,4.13-2.324S21.714-3.612,19.166-3.612Zm3.99-4.732v-3.164H22.008v7.574h1.148V-7.378h1.862v-.966ZM33.32-7.56H30.2v-2.632H33.32Zm-4.27,0H27.2v.924h9.114V-7.56H34.468v-2.632h1.9v-.924H27.16v.924h1.89Zm5.894,7.5H28.616V-2.142h6.328ZM37.45-4.522v-.924H26.1v.924h5.11v1.47H27.5V.868h8.568v-3.92h-3.71v-1.47Zm7.938-4.592h2.24v-.938H41.9v.938h2.38V-7.98a6.553,6.553,0,0,1-2.73,5.642l.7.854a6.5,6.5,0,0,0,2.59-3.976,6,6,0,0,0,2.52,3.668l.7-.84A6.084,6.084,0,0,1,45.388-7.98Zm3.36,2.1H46.676v.938h2.072V.378H49.84v-11.62H48.748Zm2.52-4.522V1.022h1.106V-11.536Zm4.144,7.42A6.766,6.766,0,0,0,60.074-7.5a6.676,6.676,0,0,0,4.7,3.332L65.24-5.1c-2.184-.35-4.578-2.072-4.578-4.074v-.266H64.82v-.938H55.314v.938h4.158v.266c0,2-2.38,3.752-4.55,4.116Zm5.236,2.59V-4.564H59.5v3.038H54.376v.952h11.4v-.952Z" transform="translate(459.117 294.815)"/>
  <line id="선_63" data-name="선 63" class="cls-13" x2="8.395" transform="translate(385.215 155.652)"/>
  <line id="선_64" data-name="선 64" class="cls-7" y1="71.977" transform="translate(394.373 82.16)"/>
  <line id="선_65" data-name="선 65" class="cls-14" x2="6.711" transform="translate(395.864 81.402)"/>
  <path id="패스_84" data-name="패스 84" class="cls-8" d="M13857.762,2309.4h0m-8.947,0h0m0,74.25h0m-10.686,0h0" transform="translate(-13454.44 -2228)"/>
  <path id="패스_85" data-name="패스 85" class="cls-2" d="M13854.294,2306.18l3.467,3.223-3.467,3.226" transform="translate(-13454.44 -2228)"/>
  <line id="선_66" data-name="선 66" class="cls-12" x2="150" transform="translate(616 299.965)"/>
  <path id="패스_23870" data-name="패스 23870" class="cls-6" d="M3.486-9.422h2v4.214c-.672.042-1.344.056-2,.07ZM8.428-5.446c-.588.084-1.2.14-1.834.168V-9.422H7.84v-.924H1.134v.924H2.366V-5.11C1.806-5.1,1.274-5.1.784-5.1l.126.952a52.031,52.031,0,0,0,7.6-.448ZM3.822-3.136H2.674V.756h8.372V-.182H3.822ZM10.486-7.7v-3.822H9.338v9.254h1.148v-4.48h1.862V-7.7Zm4.466-1.456h2.632v5.908H14.952ZM13.874-2.338h4.774v-7.728H13.874ZM23-11.522v4.97H21.308v-4.69H20.23V.406h1.078v-6.02H23V1.022h1.092V-11.522Zm16.31,0H38.164v7.21h1.148ZM34.426-6.5H30.8V-9.8h3.626Zm1.12-4.214H29.68v5.138h5.866Zm4.06,8.134v-.882H35.924V-4.676H34.762v1.218H31.08v.882h3.668C34.734-1.33,32.732-.14,30.59.112l.378.882A6.276,6.276,0,0,0,35.35-1.3a6.183,6.183,0,0,0,4.312,2.3l.392-.882c-2.156-.266-4.116-1.484-4.13-2.688Zm10.682-7.518c1.918,0,3.22.7,3.22,1.806s-1.3,1.82-3.22,1.82-3.206-.714-3.206-1.82S48.384-10.094,50.288-10.094Zm0,4.55c2.618,0,4.4-1.064,4.4-2.744s-1.778-2.73-4.4-2.73-4.382,1.05-4.382,2.73S47.684-5.544,50.288-5.544ZM56-4.368H44.632v.938h2.926V1.036H48.72V-3.43h3.15V1.036h1.162V-3.43H56ZM62.986.154c-2.016,0-3.15-.392-3.15-1.148s1.134-1.148,3.15-1.148,3.15.406,3.15,1.148S65.016.154,62.986.154Zm0-3.15c-2.73,0-4.3.7-4.3,2s1.568,2.016,4.3,2.016,4.3-.7,4.3-2.016S65.716-3,62.986-3Zm.574-1.876V-6.1h3.78V-7H59.948V-8.232h6.986V-9.1H59.948v-1.162H67.27v-.9H58.8V-6.1h3.612v1.232H57.3v.924H68.67v-.924Z" transform="translate(655.51 294.815)"/>
  <path id="패스_86" data-name="패스 86" class="cls-6" d="M14145.44,2546.813a7,7,0,1,0-7-7,7,7,0,0,0,7,7" transform="translate(-13454.44 -2228)"/>
  <path id="패스_23871" data-name="패스 23871" class="cls-4" d="M4.136.143A3.252,3.252,0,0,0,6.545-.77V-3.993h-2.5v.561H5.907v2.409a2.489,2.489,0,0,1-1.7.572c-1.8,0-2.849-1.4-2.849-3.586,0-2.167,1.111-3.531,2.893-3.531a2.346,2.346,0,0,1,1.826.8l.385-.429a2.954,2.954,0,0,0-2.222-.968C2.123-8.162.66-6.578.66-4.015S2.068.143,4.136.143Z" transform="translate(687.299 315.655)"/>
  <path id="패스_87" data-name="패스 87" class="cls-6" d="M13928.192,2546.813a7,7,0,1,0-7-7,7,7,0,0,0,7,7" transform="translate(-13454.44 -2228)"/>
  <path id="패스_23855" data-name="패스 23855" class="cls-4" d="M1.166,0H3.542c1.8,0,2.992-.792,2.992-2.343A1.859,1.859,0,0,0,4.818-4.268v-.055A1.724,1.724,0,0,0,6.05-6.072c0-1.353-1.056-1.947-2.673-1.947H1.166Zm.66-4.521V-7.48H3.234c1.419,0,2.156.4,2.156,1.485,0,.913-.638,1.474-2.222,1.474Zm0,3.971V-3.993H3.388c1.6,0,2.5.528,2.5,1.65,0,1.243-.946,1.793-2.5,1.793Z" transform="translate(470.221 315.655)"/>
  <path id="패스_88" data-name="패스 88" class="cls-6" d="M13947.192,2546.813a7,7,0,1,0-7-7,7,7,0,0,0,7,7" transform="translate(-13454.44 -2228)"/>
  <path id="패스_23856" data-name="패스 23856" class="cls-4" d="M1.166,0h1.9C5.522,0,6.732-1.584,6.732-4.037S5.522-8.019,3.058-8.019H1.166Zm.66-.561V-7.469H2.992c2.112,0,3.047,1.353,3.047,3.432S5.1-.561,2.992-.561Z" transform="translate(489.056 315.655)"/>
  <path id="패스_89" data-name="패스 89" class="cls-6" d="M13966.192,2546.813a7,7,0,1,0-7-7,7,7,0,0,0,7,7" transform="translate(-13454.44 -2228)"/>
  <path id="패스_23857" data-name="패스 23857" class="cls-4" d="M1.166,0h.66V-3.806H5.005v-.561H1.826V-7.458H5.588v-.561H1.166Z" transform="translate(508.825 315.655)"/>
</svg>
