<svg id="구성_요소_87_1" data-name="구성 요소 87 – 1" xmlns="http://www.w3.org/2000/svg" xmlns:xlink="http://www.w3.org/1999/xlink" width="836" height="571" viewBox="0 0 836 571">
  <defs>
    <style>
      .cls-1, .cls-10, .cls-14, .cls-15, .cls-4 {
        fill: none;
      }

      .cls-2 {
        fill: #f5f6f7;
      }

      .cls-3 {
        fill: #99691d;
      }

      .cls-10, .cls-4 {
        stroke: #3e3a39;
      }

      .cls-12, .cls-16, .cls-5 {
        fill: #fff;
      }

      .cls-6 {
        fill: #1e2323;
      }

      .cls-7 {
        fill: #ad874a;
      }

      .cls-8 {
        font-size: 13px;
        font-family: NotoSansKR-Light, Noto Sans KR;
        font-weight: 300;
      }

      .cls-9 {
        fill: #f0c560;
      }

      .cls-10 {
        stroke-width: 3px;
      }

      .cls-11 {
        fill: #2b2e34;
      }

      .cls-12, .cls-14 {
        stroke: #2b2e34;
      }

      .cls-13 {
        clip-path: url(#clip-path);
      }

      .cls-15, .cls-16 {
        stroke: #1e2323;
      }

      .cls-17 {
        clip-path: url(#clip-path-7);
      }

      .cls-18 {
        clip-path: url(#clip-path-10);
      }

      .cls-19 {
        clip-path: url(#clip-path-11);
      }
    </style>
    <clipPath id="clip-path">
      <path id="패스_18718" data-name="패스 18718" class="cls-1" d="M0,0H39.454V-31.448H0Z"/>
    </clipPath>
    <clipPath id="clip-path-7">
      <path id="패스_18752" data-name="패스 18752" class="cls-1" d="M0,0H33.874V-35.247H0Z"/>
    </clipPath>
    <clipPath id="clip-path-10">
      <path id="패스_18785" data-name="패스 18785" class="cls-1" d="M0,0H40.573V-35.784H0Z"/>
    </clipPath>
    <clipPath id="clip-path-11">
      <path id="패스_18789" data-name="패스 18789" class="cls-1" d="M0,0H40V-32.873H0Z"/>
    </clipPath>
  </defs>
  <rect id="사각형_186" data-name="사각형 186" class="cls-2" width="836" height="571"/>
  <path id="패스_23647" data-name="패스 23647" class="cls-3" d="M1.853-8.806l.289,1.887,8.976-.476a22.66,22.66,0,0,1-.527,3.128l2.21.272a31.943,31.943,0,0,0,.714-7.514v-1.377H2.329V-11.1h8.976c0,.612,0,1.275-.051,1.989ZM7.99-2.159V-5.9H5.746v3.74H.731V-.34H14.892V-2.159Zm11.934-9.486a1.294,1.294,0,0,1,1.462,1.309,1.3,1.3,0,0,1-1.462,1.292,1.32,1.32,0,0,1-1.5-1.292C18.428-11.186,19.057-11.645,19.924-11.645Zm0,4.267c1.989,0,3.451-1.241,3.451-2.958,0-1.751-1.462-2.975-3.451-2.975-2.006,0-3.485,1.224-3.485,2.975C16.439-8.619,17.918-7.378,19.924-7.378Zm3.774.442a64.816,64.816,0,0,1-7.9.374l.238,1.819c.8,0,1.751,0,2.788-.051V.238h2.142V-4.913c.986-.085,2.006-.221,2.907-.391Zm.765,2.822H22.015v1.683h2.448V.748h2.091V-13.923H24.463Zm3.128-10.064V1.462h2.125v-15.64Zm14.467-.034V1.5H44.3V-14.212Zm-6.171,1.105c-2.363,0-4.114,2.142-4.114,5.576,0,3.451,1.751,5.61,4.114,5.61S40-4.08,40-7.531C40-10.965,38.25-13.107,35.887-13.107Zm0,2.023c1.156,0,1.955,1.241,1.955,3.553,0,2.329-.8,3.57-1.955,3.57S33.932-5.2,33.932-7.531C33.932-9.843,34.731-11.084,35.887-11.084ZM49.164-9.435a1.894,1.894,0,0,1,2.074-1.938,1.907,1.907,0,0,1,2.091,1.938A1.92,1.92,0,0,1,51.238-7.48,1.906,1.906,0,0,1,49.164-9.435Zm3.213,3.723a3.786,3.786,0,0,0,3.128-3.723,3.963,3.963,0,0,0-4.267-3.859,3.958,3.958,0,0,0-4.25,3.859A3.791,3.791,0,0,0,50.15-5.7v2.21c-1.309.017-2.584.017-3.689.017l.272,1.819a50.1,50.1,0,0,0,9.384-.595L55.93-3.859c-1.139.136-2.329.238-3.553.289Zm8.67-2.346H58.99v-6.154H56.746V1.445H58.99V-6.2h2.057Zm13.617-4.726H71.179V-14.3H68.918v1.513H65.433v1.768h9.231ZM68.357-7.735c0-.765.7-1.156,1.7-1.156s1.7.391,1.7,1.156c0,.782-.7,1.173-1.7,1.173S68.357-6.953,68.357-7.735Zm5.542,0c0-1.666-1.581-2.8-3.842-2.8s-3.842,1.139-3.842,2.8c0,1.7,1.581,2.822,3.842,2.822S73.9-6.035,73.9-7.735ZM69.8-2.312h5.78V-.476H69.8Zm-2.21,3.587H77.775V-4.08H67.592ZM79.849-10.336H77.775v-3.842H75.531V-4.76h2.244V-8.5h2.074Zm1.173-2.091v1.819h1.615a14.317,14.317,0,0,1-2.125,7.837l1.717.952c1.955-3.128,2.329-6.63,2.329-10.608Zm8.16,4.114H87.89c.119-1.343.153-2.7.153-4.114H85.017v1.819h1.122c-.068,3.2-.425,5.916-2.142,8.585l1.717.952a14.779,14.779,0,0,0,1.972-5.44h1.5V.782h2.074V-13.855H89.182Zm3.009-5.882V1.479h2.142V-14.195Zm13.09,7.072h-3.06v-4.012h3.06Zm2.21-5.78h-7.463v7.548h7.463Zm-3.451,9.01H101.8V1.19h10.659V-.6H104.04Zm7.854-5.78v-4.522H109.65V-2.771h2.244V-7.837h2.074V-9.673Zm15.64,2.7h-8.772v-4.114h8.653V-12.9h-10.9v7.718h11.016ZM114.869-2.244V-.408h14.178V-2.244Zm27.914-7.718h-8.619v-3.672H131.92v5.457h10.863Zm-8.755,6.426h-2.261V1.139h11.1v-1.8h-8.84Zm-3.859-3.043v1.8h14.178v-1.8Zm20.145-.663h1.394L152.2-10.9l.085-2.363h-2.55l.085,2.363Zm4.25,0h1.394l.493-3.655.085-2.363h-2.55l.085,2.363Zm9.911-3.6h3.23V-12.7h-8.772v1.853H162.2v.867A7.226,7.226,0,0,1,158.3-3.264l1.275,1.785a7.478,7.478,0,0,0,3.791-4.59,7.022,7.022,0,0,0,3.757,4.2l1.224-1.768a6.706,6.706,0,0,1-3.876-6.341Zm4.675-3.349V1.462h2.244V-14.195ZM187.1-9.486c-3.536-.425-5.185-2.159-5.185-3.978v-.459h-2.295v.459c0,1.768-1.683,3.553-5.2,3.978l.833,1.751c2.618-.374,4.522-1.479,5.508-3.026.986,1.564,2.89,2.652,5.525,3.026ZM175.287-1.955h8.636V1.479h2.244v-5.2h-10.88ZM181.9-6.613V-8.636h-2.244v2.023h-5.933v1.785h14.161V-6.613Zm7.837-5.984v1.819h5.117c-.408,3.468-2.346,5.95-5.984,7.82l1.258,1.717A11.764,11.764,0,0,0,197.115-12.6Zm13.736,4.369H201.28v-5.984h-2.244V1.428h2.244v-7.8h2.193ZM216.92-10.3h-8.568v-3.621h-2.244v5.406H216.92ZM211.361-.289c-2.091,0-3.162-.374-3.162-1.19s1.071-1.19,3.162-1.19,3.162.374,3.162,1.19S213.452-.289,211.361-.289Zm0-4.1c-3.383,0-5.423,1.071-5.423,2.907s2.04,2.907,5.423,2.907S216.8.357,216.8-1.479,214.744-4.386,211.361-4.386ZM204.34-7.191v1.785H218.5V-7.191Zm25.84,6.97c-2.091,0-3.162-.357-3.162-1.173s1.071-1.19,3.162-1.19,3.162.374,3.162,1.19S232.271-.221,230.18-.221Zm0-4.063c-3.383,0-5.423,1.037-5.423,2.89,0,1.836,2.04,2.873,5.423,2.873s5.44-1.037,5.44-2.873C235.62-3.247,233.563-4.284,230.18-4.284Zm1.173-2.55V-8.126h4.352V-9.911h-8.6v-1.836h8.517v-1.785H224.876v5.406h4.233v1.292h-5.95v1.785H237.32V-6.834Zm12.835-.051h-3.077V-9.112h3.077Zm2.21-6.188h-2.21v2.227h-3.077v-2.227H238.9v7.956h7.5Zm-3.485,9.265h-2.244v5h10.659V-.6h-8.415Zm7.854-5.967v-4.42h-2.244V-2.669h2.244v-5.27h2.074V-9.775Zm13.821,4.76h2.244v-9.18h-2.244v2.856h-2.856V-9.52h2.856ZM263.16-7.276a4.762,4.762,0,0,1-3.5-4.811v-1.292H257.38v1.394a5.16,5.16,0,0,1-3.774,5.134l1.173,1.8a6.186,6.186,0,0,0,3.791-3.485,5.671,5.671,0,0,0,3.417,3.026ZM261.545-.255c-2.057,0-3.128-.425-3.128-1.309,0-.9,1.071-1.326,3.128-1.326,2.04,0,3.111.425,3.111,1.326C264.656-.68,263.585-.255,261.545-.255Zm0-4.369c-3.332,0-5.372,1.122-5.372,3.06,0,1.9,2.04,3.026,5.372,3.026,3.315,0,5.355-1.122,5.355-3.026C266.9-3.5,264.86-4.624,261.545-4.624Zm16.83-2.465a4.5,4.5,0,0,1-3.57-4.267h3.06v-1.8H269.4v1.8h3.111a5.069,5.069,0,0,1-3.689,4.794l1.122,1.751a6.1,6.1,0,0,0,3.774-3.383A5.771,5.771,0,0,0,277.3-5.355ZM276.25-.255c-2.006,0-3.077-.425-3.077-1.309,0-.9,1.071-1.326,3.077-1.326,1.989,0,3.06.425,3.06,1.326C279.31-.68,278.239-.255,276.25-.255Zm0-4.369c-3.264,0-5.3,1.139-5.3,3.06,0,1.9,2.04,3.026,5.3,3.026,3.247,0,5.287-1.122,5.287-3.026C281.537-3.485,279.5-4.624,276.25-4.624Zm5.117-5.967v-3.6h-2.244v9.3h2.244V-8.755h2.074v-1.836Zm4.3,3.349h1.394l.493-3.655.085-2.363h-2.55l.085,2.363Zm4.25,0h1.394L291.8-10.9l.085-2.363h-2.55l.085,2.363Zm21.539.612H309.4a27.3,27.3,0,0,0,.391-5.253v-1.411H298.928v1.8h8.67a23.631,23.631,0,0,1-.425,4.862h-9.86v1.8h5.848v6.29h2.278v-6.29h6.018Zm2.4-.425c2.873-.2,4.828-1.02,5.814-2.261.969,1.241,2.907,2.057,5.78,2.261l.663-1.666c-3.4-.221-4.913-1.224-5.168-2.312h4.437v-1.734h-4.607v-1.411h-2.244v1.411h-4.59v1.734h4.437c-.255,1.088-1.785,2.091-5.185,2.312ZM326.74-4.709V-6.494H312.6v1.785h5.933v1.343H314.16V-1.6H322.8v3.06h2.244V-3.366h-4.267V-4.709Z" transform="translate(251.961 52.13)"/>
  <line id="선_433" data-name="선 433" class="cls-4" y2="44" transform="translate(418 245.55)"/>
  <rect id="사각형_187" data-name="사각형 187" class="cls-5" width="796" height="136" transform="translate(20 290.55)"/>
  <line id="선_434" data-name="선 434" class="cls-4" x2="796" transform="translate(20 290.05)"/>
  <rect id="사각형_188" data-name="사각형 188" class="cls-5" width="180" height="100" transform="translate(327.5 130.396)"/>
  <path id="패스_23649" data-name="패스 23649" class="cls-6" d="M4.14-4.41a1,1,0,0,0,.99-1.035A1.008,1.008,0,0,0,4.14-6.51a1.008,1.008,0,0,0-.99,1.065A1,1,0,0,0,4.14-4.41Zm15.4-6.585h-3.09V-12.48h-1.23v1.485h-3.21v.99h7.53Zm-5.61,4.08c0-.9.765-1.485,1.89-1.485s1.89.585,1.89,1.485S16.95-5.43,15.825-5.43,13.935-6.015,13.935-6.915Zm4.935,0c0-1.455-1.26-2.415-3.045-2.415s-3.045.96-3.045,2.415S14.025-4.5,15.825-4.5,18.87-5.46,18.87-6.915Zm2.985,6.87H15.57V-1.47h6.285Zm0-2.37H15.57v-1.38H14.355V.93H23.07V-3.795H21.855Zm-.03-9.915v3.135H19.56v.99h2.265v1.62h-2.28V-5.58h2.28v1.185H23.07V-12.33ZM32.61-6a30.39,30.39,0,0,1-5.34.315v-2.04h4.56v-3.81H26.025v1H30.63v1.86H26.07v3.99h.96a31.06,31.06,0,0,0,5.7-.33ZM27.57-2.34h7.77V1.125h1.23v-4.47h-9Zm7.77-9.99v1.98H32.715v1.005H35.34v1.8H32.715v.99H35.34v2.49h1.23V-12.33Zm8.175,1.155H42.3V-8.76a7.129,7.129,0,0,1-3.465,6.015l.735.99A7.452,7.452,0,0,0,42.915-6.21,7.421,7.421,0,0,0,46.17-2.025L46.935-3a6.794,6.794,0,0,1-3.42-5.76Zm8.055,4.29H49.35V-12.33H48.12V1.11h1.23V-5.865h2.22Zm11.55-4.11H60.03V-12.48H58.8v1.485H55.59v.99h7.53Zm-5.61,4.08c0-.9.765-1.485,1.89-1.485s1.89.585,1.89,1.485S60.525-5.43,59.4-5.43,57.51-6.015,57.51-6.915Zm4.935,0c0-1.455-1.26-2.415-3.045-2.415s-3.045.96-3.045,2.415S57.6-4.5,59.4-4.5,62.445-5.46,62.445-6.915ZM65.43-.045H59.145V-1.47H65.43Zm0-2.37H59.145v-1.38H57.93V.93h8.715V-3.795H65.43ZM65.4-12.33v3.135H63.135v.99H65.4v1.62H63.12V-5.58H65.4v1.185h1.245V-12.33Zm8.04.975c-2.085,0-3.6,1.275-3.6,3.165s1.515,3.165,3.6,3.165,3.6-1.29,3.6-3.165S75.54-11.355,73.44-11.355Zm0,1.05a2.173,2.173,0,0,1,2.4,2.115,2.182,2.182,0,0,1-2.4,2.115,2.182,2.182,0,0,1-2.4-2.115A2.173,2.173,0,0,1,73.44-10.3Zm5.37-2.04V1.14h1.23V-12.345ZM69.315-1.815A48.072,48.072,0,0,0,78.03-2.4l-.1-.915a60.584,60.584,0,0,1-8.76.465ZM86.49-8.85h2.49V-9.87H86.5v-1.995H85.32V-9.87H82.83v1.02h2.49V-8.2a6.653,6.653,0,0,1-2.85,5.64l.72.915a6.627,6.627,0,0,0,2.73-4.005,6.285,6.285,0,0,0,2.76,3.72l.705-.93a6.114,6.114,0,0,1-2.9-5.34Zm3.63,1.815H88.065v1.02H90.12V.405h1.17V-12.03H90.12Zm2.7-5.31V1.1H94v-13.44Z" transform="translate(361.57 189.397)"/>
  <path id="패스_23650" data-name="패스 23650" class="cls-6" d="M4.14-4.41a1,1,0,0,0,.99-1.035A1.008,1.008,0,0,0,4.14-6.51a1.008,1.008,0,0,0-.99,1.065A1,1,0,0,0,4.14-4.41ZM19.755-6.015A4.568,4.568,0,0,1,16.5-10.17v-1.485H15.27v1.38a4.923,4.923,0,0,1-3.345,4.62l.645.975a5.623,5.623,0,0,0,3.33-3.4,5.647,5.647,0,0,0,3.21,3.03ZM18.15.135c-2,0-3.21-.555-3.21-1.485,0-.945,1.215-1.5,3.21-1.5s3.195.555,3.195,1.5C21.345-.42,20.13.135,18.15.135Zm0-3.945c-2.745,0-4.44.885-4.44,2.46S15.4,1.1,18.15,1.1,22.575.21,22.575-1.35,20.88-3.81,18.15-3.81Zm4.275-5.055V-12.33h-1.23v8.145h1.23v-3.66h2v-1.02ZM33.96-7.725h1.71v3.69h1.185v-8.3H35.67v3.6H33.96v-3.345H32.79v7.6h1.17ZM32.235-6.03A4.045,4.045,0,0,1,29.5-9.69v-1.815H28.32V-9.69a4.659,4.659,0,0,1-2.805,4.02l.66.96A5.35,5.35,0,0,0,28.92-7.7a4.823,4.823,0,0,0,2.655,2.61Zm.18,6.18c-2.01,0-3.27-.54-3.27-1.47s1.26-1.455,3.27-1.455c2.04,0,3.285.525,3.285,1.455S34.455.15,32.415.15Zm0-3.885c-2.76,0-4.485.885-4.485,2.415S29.655,1.1,32.415,1.1s4.5-.885,4.5-2.415S35.19-3.735,32.415-3.735Zm10.98-6.33H46.74v4.41H43.4Zm2.3,8.49v-3.09h4.335v-.99H47.97v-4.41h2.085v-.99H40.08v.99h2.085v4.41H40.11v.99h4.335v3.09H39v1H51.195v-1Zm16.65-3.51h1.23v-7.26H62.34v3.09H59.82v.99h2.52ZM59.955-6.93a31.268,31.268,0,0,1-5.55.33V-8.16H58.89v-.93H54.405v-1.44h4.83v-.975h-6.06V-5.61h1a32.978,32.978,0,0,0,5.865-.345ZM56.145,0V-1.35H63.57V-4.47H54.9v.96h7.455v1.245H54.93V.96h9.15V0Z" transform="translate(361.57 214.402)"/>
  <path id="패스_23648" data-name="패스 23648" class="cls-7" d="M8.864-11.872H5.744V-13.36H4.1v1.488H.848v1.312H8.864ZM3.136-7.36c0-.848.72-1.376,1.776-1.376,1.072,0,1.792.528,1.792,1.376s-.72,1.376-1.792,1.376C3.856-5.984,3.136-6.512,3.136-7.36Zm5.1,0c0-1.568-1.36-2.608-3.328-2.608C2.96-9.968,1.6-8.928,1.6-7.36S2.96-4.752,4.912-4.752C6.88-4.752,8.24-5.792,8.24-7.36ZM11.152-.24H4.928V-1.5h6.224Zm0-2.512H4.928V-4.064H3.3v5.12h9.488v-5.12H11.152Zm-.016-10.48v3.248H8.96V-8.64h2.176v1.488H8.928v1.344h2.208V-4.64h1.648v-8.592Zm11.584,6.7a28.724,28.724,0,0,1-5.312.336V-8.064h4.624v-4.32H15.76v1.328H20.4v1.728H15.792v4.48h1.056A32.85,32.85,0,0,0,22.9-5.2ZM17.408-2.256h8.128v3.52h1.648V-3.6H17.408Zm8.128-10.96v2.08H22.944v1.328h2.592v1.7H22.944v1.328h2.592V-4.32h1.648v-8.9Zm9.136,1.2H33.024v2.368A7.313,7.313,0,0,1,29.36-3.136l1.008,1.328a7.466,7.466,0,0,0,3.488-4.528A7.2,7.2,0,0,0,37.184-2.08l1.008-1.312a7.011,7.011,0,0,1-3.52-6.256Zm8.384,4.528H40.8v-5.728H39.152V1.232H40.8v-7.36h2.256Zm2.976-1.36A2.068,2.068,0,0,1,48.3-10.912,2.054,2.054,0,0,1,50.56-8.848,2.042,2.042,0,0,1,48.3-6.8,2.056,2.056,0,0,1,46.032-8.848Zm3.1,3.392A3.416,3.416,0,0,0,52.16-8.848,3.542,3.542,0,0,0,48.3-12.32c-2.224,0-3.872,1.424-3.872,3.472A3.46,3.46,0,0,0,47.488-5.44v2.272c-1.3.032-2.544.032-3.632.032l.224,1.36A52.665,52.665,0,0,0,52.9-2.32l-.144-1.216c-1.152.16-2.384.256-3.616.3Zm8.24-1.936H55.248v-5.824H53.6V1.216h1.648V-6.016h2.128Zm5.7-4.816c-2.256,0-3.92,1.424-3.92,3.472s1.664,3.472,3.92,3.472,3.936-1.424,3.936-3.472S65.328-12.208,63.072-12.208Zm0,1.408a2.092,2.092,0,0,1,2.32,2.064,2.1,2.1,0,0,1-2.32,2.064,2.1,2.1,0,0,1-2.3-2.064A2.086,2.086,0,0,1,63.072-10.8Zm5.568-2.432V1.248H70.3v-14.48ZM58.688-1.808a50.294,50.294,0,0,0,9.2-.64l-.112-1.2a66.054,66.054,0,0,1-9.3.48ZM88.624-6.384c-2.848-.48-5.168-2.624-5.168-4.864v-1.088H81.712v1.088c0,2.224-2.32,4.384-5.184,4.864l.7,1.376a7.615,7.615,0,0,0,5.36-3.824,7.489,7.489,0,0,0,5.344,3.824ZM83.392-1.92V-5.3H81.744V-1.92H76.1V-.56H89.184V-1.92ZM96.992,0C94.816,0,93.68-.352,93.68-1.12c0-.736,1.136-1.1,3.312-1.1,2.192,0,3.328.368,3.328,1.1C100.32-.352,99.184,0,96.992,0Zm0-3.44c-3.136,0-4.976.8-4.976,2.32,0,1.536,1.84,2.352,4.976,2.352,3.152,0,4.976-.816,4.976-2.352C101.968-2.64,100.144-3.44,96.992-3.44Zm.848-2.224V-6.848h4.24V-8.112H93.792v-1.12h7.84v-1.232h-7.84v-1.088h8.192v-1.264h-9.84v5.968h4.032v1.184H90.464v1.328h13.072V-5.664Z" transform="translate(364.86 160.477)"/>
  <line id="선_435" data-name="선 435" class="cls-4" x2="180" transform="translate(327.5 130.897)"/>
  <line id="선_436" data-name="선 436" class="cls-4" x2="180" transform="translate(327.5 229.897)"/>
  <line id="선_437" data-name="선 437" class="cls-4" x2="796" transform="translate(20 426.55)"/>
  <path id="패스_23655" data-name="패스 23655" class="cls-7" d="M1.376,0H8.1V-1.52h-2.3V-11.776H4.4a7.234,7.234,0,0,1-2.56.9v1.168H3.952V-1.52H1.376ZM9.568-3.84h4.224V-5.2H9.568ZM14.928,0h7.6V-1.568H19.584c-.576,0-1.312.048-1.92.112,2.5-2.384,4.3-4.736,4.3-7.008A3.33,3.33,0,0,0,18.416-12a4.621,4.621,0,0,0-3.584,1.76l1.04,1.024a3.194,3.194,0,0,1,2.32-1.312,1.92,1.92,0,0,1,2,2.16c0,1.936-1.792,4.224-5.264,7.3Zm13.92-9.456H31.9v-1.328H28.848v-2.144H27.2v2.144H24.1v1.328h3.1v.832a6.57,6.57,0,0,1-3.552,5.856L24.56-1.5a7.03,7.03,0,0,0,3.488-4.224,6.718,6.718,0,0,0,3.3,3.968l.912-1.264a6.33,6.33,0,0,1-3.408-5.6ZM37.3-7.424H35.04v-5.808H33.392V1.232H35.04v-7.3H37.3Zm12.288-4.448h-3.12V-13.36H44.816v1.488H41.568v1.312h8.016ZM43.856-7.36c0-.848.72-1.376,1.776-1.376,1.072,0,1.792.528,1.792,1.376s-.72,1.376-1.792,1.376C44.576-5.984,43.856-6.512,43.856-7.36Zm5.1,0c0-1.568-1.36-2.608-3.328-2.608-1.952,0-3.312,1.04-3.312,2.608s1.36,2.608,3.312,2.608C47.6-4.752,48.96-5.792,48.96-7.36ZM51.872-.24H45.648V-1.5h6.224Zm0-2.512H45.648V-4.064H44.016v5.12H53.5v-5.12H51.872Zm-.016-10.48v3.248H49.68V-8.64h2.176v1.488H49.648v1.344h2.208V-4.64H53.5v-8.592Zm11.584,6.7a28.724,28.724,0,0,1-5.312.336V-8.064h4.624v-4.32H56.48v1.328h4.64v1.728H56.512v4.48h1.056A32.85,32.85,0,0,0,63.616-5.2ZM58.128-2.256h8.128v3.52H67.9V-3.6H58.128Zm8.128-10.96v2.08H63.664v1.328h2.592v1.7H63.664v1.328h2.592V-4.32H67.9v-8.9Zm9.136,1.2H73.744v2.368A7.313,7.313,0,0,1,70.08-3.136l1.008,1.328a7.466,7.466,0,0,0,3.488-4.528A7.2,7.2,0,0,0,77.9-2.08l1.008-1.312a7.011,7.011,0,0,1-3.52-6.256Zm8.384,4.528H81.52v-5.728H79.872V1.232H81.52v-7.36h2.256Zm1.52-4.624v1.344h5.04C90.048-8.48,88-6.608,84.688-5.6l.688,1.312c4.208-1.28,6.752-4,6.752-7.824Zm3.216,8.3H86.848V.96h9.728V-.384H88.512ZM96-8.992v-4.224H94.352V-2.752H96v-4.88h2.064v-1.36Zm14.816,2.384a4.616,4.616,0,0,1-3.376-4.32V-12.48h-1.664v1.424a5.05,5.05,0,0,1-3.5,4.832l.88,1.312a5.941,5.941,0,0,0,3.488-3.424,5.69,5.69,0,0,0,3.312,3.024ZM109.04-.064c-2.016,0-3.184-.5-3.184-1.424,0-.9,1.168-1.408,3.184-1.408s3.184.512,3.184,1.408C112.224-.56,111.056-.064,109.04-.064Zm0-4.128c-2.976,0-4.816,1.008-4.816,2.7,0,1.712,1.84,2.72,4.816,2.72,2.992,0,4.816-1.008,4.816-2.72C113.856-3.184,112.032-4.192,109.04-4.192ZM113.7-9.648v-3.584h-1.648v8.688H113.7V-8.288h2.048v-1.36ZM125.952-8.16h1.52v3.824h1.568V-13.2h-1.568v3.7h-1.52v-3.44H124.4V-4.8h1.552Zm-1.888,1.568a4.2,4.2,0,0,1-2.816-3.92v-1.824h-1.6v1.824a4.834,4.834,0,0,1-2.912,4.336l.864,1.264a5.418,5.418,0,0,0,2.864-3.056,5,5,0,0,0,2.72,2.608Zm.16,6.56c-2.032,0-3.248-.5-3.248-1.376,0-.9,1.216-1.392,3.248-1.392s3.248.5,3.248,1.392C127.472-.528,126.256-.032,124.224-.032Zm0-4.032c-3.008,0-4.9.992-4.9,2.656,0,1.648,1.888,2.64,4.9,2.64s4.9-.992,4.9-2.64C129.12-3.072,127.232-4.064,124.224-4.064Z" transform="translate(56.426 459.831)"/>
  <path id="패스_23656" data-name="패스 23656" d="M1.118,0h5.46V-1.235H4.706V-9.568H3.575A5.877,5.877,0,0,1,1.5-8.84v.949H3.211v6.656H1.118ZM7.709-3.12h3.432V-4.225H7.709ZM12,0h6.175V-1.274H15.782c-.468,0-1.066.039-1.56.091,2.028-1.937,3.5-3.848,3.5-5.694A2.706,2.706,0,0,0,14.833-9.75a3.755,3.755,0,0,0-2.912,1.43l.845.832a2.6,2.6,0,0,1,1.885-1.066A1.56,1.56,0,0,1,16.276-6.8c0,1.573-1.456,3.432-4.277,5.928ZM23.244-7.683h2.483V-8.762H23.244V-10.5H21.9v1.742H19.383v1.079H21.9v.676a5.338,5.338,0,0,1-2.886,4.758l.741,1.027a5.712,5.712,0,0,0,2.834-3.432A5.458,5.458,0,0,0,25.272-1.43l.741-1.027a5.143,5.143,0,0,1-2.769-4.55Zm6.864,1.651H28.275v-4.719H26.936V1h1.339V-4.927h1.833Zm9.88-3.614H37.453v-1.209H36.114v1.209H33.475V-8.58h6.513ZM35.334-5.98c0-.689.585-1.118,1.443-1.118s1.456.429,1.456,1.118-.585,1.118-1.456,1.118S35.334-5.291,35.334-5.98Zm4.147,0c0-1.274-1.1-2.119-2.7-2.119s-2.691.845-2.691,2.119,1.1,2.119,2.691,2.119S39.481-4.706,39.481-5.98ZM41.847-.195H36.79V-1.222h5.057Zm0-2.041H36.79V-3.3H35.464V.858h7.709V-3.3H41.847Zm-.013-8.515v2.639H40.066V-7.02h1.768v1.209H40.04v1.092h1.794v.949h1.339v-6.981ZM51.194-5.3a23.338,23.338,0,0,1-4.316.273V-6.552h3.757v-3.51h-5.1v1.079h3.77v1.4H45.565v3.64h.858a26.691,26.691,0,0,0,4.914-.286ZM46.878-1.833h6.6v2.86h1.339V-2.925H46.878Zm6.6-8.9v1.69H51.376v1.079h2.106v1.378H51.376v1.079h2.106v2h1.339v-7.228Zm7.371.975H59.514v1.924a5.942,5.942,0,0,1-2.977,5.291l.819,1.079A6.066,6.066,0,0,0,60.19-5.148a5.847,5.847,0,0,0,2.7,3.458l.819-1.066a5.7,5.7,0,0,1-2.86-5.083Zm6.812,3.679H65.832v-4.654H64.493V1h1.339v-5.98h1.833Zm3.8-3.757v1.092h4.1c-.234,1.859-1.9,3.38-4.589,4.2l.559,1.066c3.419-1.04,5.486-3.25,5.486-6.357Zm2.613,6.747H72.722V.78h7.9V-.312H74.074Zm6.084-4.212v-3.432H78.819v8.5h1.339V-6.2h1.677v-1.1Zm14.781-3.419H93.6v6.968h1.339ZM92.391-5.46a3.846,3.846,0,0,1-2.847-3.614v-1.144H88.179v1.144a4.185,4.185,0,0,1-2.886,3.913l.676,1.066a4.923,4.923,0,0,0,2.925-2.834,4.709,4.709,0,0,0,2.847,2.522ZM91.039-.078c-1.664,0-2.639-.416-2.639-1.2s.975-1.2,2.639-1.2,2.639.429,2.639,1.2S92.7-.078,91.039-.078Zm0-3.432c-2.457,0-3.978.832-3.978,2.236S88.582.975,91.039.975s3.978-.832,3.978-2.249S93.5-3.51,91.039-3.51Zm13.3-3.12h1.235v3.107h1.274v-7.2h-1.274v3h-1.235v-2.8h-1.261V-3.9h1.261ZM102.8-5.356a3.416,3.416,0,0,1-2.288-3.185v-1.482h-1.3v1.482A3.928,3.928,0,0,1,96.85-5.018l.7,1.027a4.4,4.4,0,0,0,2.327-2.483,4.062,4.062,0,0,0,2.21,2.119Zm.13,5.33c-1.651,0-2.639-.4-2.639-1.118s.988-1.131,2.639-1.131,2.639.4,2.639,1.131S104.585-.026,102.934-.026Zm0-3.276c-2.444,0-3.978.806-3.978,2.158S100.49,1,102.934,1s3.978-.806,3.978-2.145S105.378-3.3,102.934-3.3Zm13.572-3.744h-5.291V-9.152h5.291Zm1.313-3.172H109.9V-5.98h7.917Zm-6.63,7.605H109.85V.78h8.164V-.312h-6.825Zm-2.639-2.21v1.079h4.758v2.2h1.339v-2.2h4.55V-4.823Zm18.707-4.563h-2.808v-1.326H123.11v1.326h-2.834v1.079h6.981Zm-5.031,3.861c0-.728.637-1.17,1.56-1.17s1.547.442,1.547,1.17-.624,1.157-1.547,1.157S122.226-4.81,122.226-5.525Zm2.223,2.132a2.238,2.238,0,0,0,2.145-2.132c0-1.326-1.144-2.2-2.808-2.2s-2.821.871-2.821,2.2a2.247,2.247,0,0,0,2.145,2.132v1.144c-1.092.039-2.145.039-3.042.039l.182,1.105a42.84,42.84,0,0,0,7.241-.468l-.1-.988c-.936.143-1.937.208-2.938.26Zm6.617-2.444h-1.677v-4.914H128.05V1h1.339V-4.732h1.677Zm8.7-3.393c1.677,0,2.782.572,2.782,1.508S141.44-6.2,139.763-6.2s-2.795-.572-2.795-1.521S138.073-9.23,139.763-9.23Zm0,4.108c2.47,0,4.16-1.014,4.16-2.6s-1.69-2.587-4.16-2.587S135.59-9.3,135.59-7.722,137.28-5.122,139.763-5.122Zm5.343,1H134.459v1.105h2.6V1h1.365V-3.016H141.1V1h1.365V-3.016h2.652Zm6.981,2.613V-4.277h3.471V-5.356h-6.8V-8.775h6.695V-9.854H147.42v5.577h3.328v2.769H146.12V-.4h10.634v-1.1Z" transform="translate(42.616 481.831)"/>
  <g id="그룹_164" data-name="그룹 164" transform="translate(-5826.44 -1779.1)">
    <path id="패스_23673" data-name="패스 23673" d="M9.451-1.924h.689v-8.71H9.451v2.86H6.682v.6H9.451ZM7.4-4.537A4.44,4.44,0,0,1,4.459-8.372V-9.945H3.783v1.508A4.7,4.7,0,0,1,.806-4.29l.364.559a5.3,5.3,0,0,0,2.964-3.25A5.166,5.166,0,0,0,7.02-4ZM3.549.039v-2.99H2.86V.624h7.566V.039Z" transform="translate(6012.927 2285.93)"/>
    <path id="패스_23672" data-name="패스 23672" d="M1.183-9.1v.585H4.966A7.418,7.418,0,0,1,.819-2.145l.416.507A8.081,8.081,0,0,0,5.642-9.1ZM9.8-10.634v4.81H7.891v-4.5H7.228V.286h.663V-5.239H9.8V.91h.663V-10.634Z" transform="translate(6001.356 2285.93)"/>
    <path id="패스_23674" data-name="패스 23674" transform="translate(5998.106 2285.93)"/>
    <path id="패스_23671" data-name="패스 23671" d="M10.114-10.647H9.425v6.682h.689ZM5.941-5.811H2.028V-9.3H5.941ZM6.6-9.867H1.352v4.628H6.6Zm.351,7.358h3.5v-.559h-3.5V-4.316h-.7v1.248H2.782v.559H6.253v.117c0,1.313-2.262,2.47-3.939,2.7l.247.546C4.134.585,5.954-.273,6.6-1.456A5.852,5.852,0,0,0,10.582.858l.247-.546c-1.69-.26-3.874-1.4-3.874-2.7Z" transform="translate(5986.537 2285.93)"/>
    <text id="_" data-name=" " class="cls-8" transform="translate(5983.287 2285.93)"><tspan x="0" y="0"> </tspan></text>
    <path id="패스_23670" data-name="패스 23670" d="M1.612-5.083A4.369,4.369,0,0,0,4.563-7.436a4.338,4.338,0,0,0,2.912,2.2L7.787-5.8C6.227-6.2,4.9-7.267,4.9-8.567v-.1H7.6v-.572H4.9v-1.378H4.212v1.378H1.521v.572h2.7v.1C4.225-7.2,2.9-6.058,1.313-5.642Zm6.864.611a56.433,56.433,0,0,1-7.8.39l.117.611c1.027,0,2.21-.013,3.458-.065V.585H4.94v-4.16a30.5,30.5,0,0,0,3.588-.364Zm.91-6.162V.923h.689V-10.634Z" transform="translate(5971.717 2285.93)"/>
    <path id="패스_23669" data-name="패스 23669" d="M9.451-3.77h.689v-6.877H9.451v2.665H6.695V-7.4H9.451ZM7.423-4.94A4.3,4.3,0,0,1,4.459-8.7V-9.958H3.783v1.274A4.464,4.464,0,0,1,.793-4.628l.364.559a5.133,5.133,0,0,0,2.99-3.172A5.013,5.013,0,0,0,7.02-4.407ZM6.409.312C4.524.312,3.315-.3,3.315-1.261S4.524-2.834,6.409-2.834s3.107.611,3.107,1.573S8.294.312,6.409.312Zm0-3.705c-2.353,0-3.783.767-3.783,2.132S4.056.871,6.409.871,10.192.1,10.192-1.261,8.749-3.393,6.409-3.393Z" transform="translate(5960.146 2285.93)"/>
    <text id="_2" data-name=" " class="cls-8" transform="translate(5956.896 2285.93)"><tspan x="0" y="0"> </tspan></text>
    <path id="패스_23668" data-name="패스 23668" d="M3.9.169a3.353,3.353,0,0,0,2.21-.9l-.364-.52a2.768,2.768,0,0,1-1.807.767c-1.456,0-2.418-1.209-2.418-2.977s1.053-2.99,2.431-2.99a2.275,2.275,0,0,1,1.586.7l.429-.52a2.931,2.931,0,0,0-2.028-.845C2.223-7.111.728-5.772.728-3.458S2.093.169,3.9.169Z" transform="translate(5950.8 2285.93)"/>
    <path id="패스_23657" data-name="패스 23657" d="M3.861.169c1.677,0,3.133-1.326,3.133-3.627S5.538-7.111,3.861-7.111.728-5.772.728-3.458,2.184.169,3.861.169Zm0-.65c-1.352,0-2.34-1.209-2.34-2.977s.988-2.99,2.34-2.99,2.353,1.222,2.353,2.99S5.213-.481,3.861-.481Z" transform="translate(5943.468 2285.93)"/>
    <path id="패스_23667" data-name="패스 23667" d="M2.743,0h.9L6.188-6.929H5.421L3.913-2.678c-.221.676-.468,1.378-.689,2H3.172C2.938-1.3,2.7-2,2.483-2.678L.988-6.929H.169Z" transform="translate(5937.501 2285.93)"/>
    <text id="_3" data-name=" " class="cls-8" transform="translate(5934.251 2285.93)"><tspan x="0" y="0"> </tspan></text>
    <path id="패스_23666" data-name="패스 23666" d="M1.261-9.724v.585H5.8C5.616-6.838,3.64-5.044.819-4.108l.3.572C4.342-4.615,6.539-6.825,6.539-9.724Zm2.015,6.76H2.587V.624H10.2V.039H3.276Zm6.344-4v-3.666H8.931V-2.08H9.62V-6.37h1.82v-.6Z" transform="translate(5922.681 2285.93)"/>
    <text id="_4" data-name=" " class="cls-8" transform="translate(5919.431 2285.93)"><tspan x="0" y="0"> </tspan></text>
    <path id="패스_23665" data-name="패스 23665" d="M4.368-9.581H3.7v2.314a6.388,6.388,0,0,1-3.081,5.1l.429.559a7.085,7.085,0,0,0,3-4.069,6.705,6.705,0,0,0,2.99,3.822l.429-.533A6.134,6.134,0,0,1,4.368-7.267Zm7.176,3.757H9.516v-4.823H8.827V.91h.689V-5.239h2.028Z" transform="translate(5907.861 2285.93)"/>
    <path id="패스_23664" data-name="패스 23664" d="M6.942-5.07a26.06,26.06,0,0,1-4.888.286h-.13V-6.89H6.136V-9.932H1.209v.585H5.46v1.9H1.248V-4.2h.806A27.231,27.231,0,0,0,7.02-4.485ZM2.522-2.288H9.451V.936h.689V-2.873H2.522Zm6.929-8.346v1.781h-2.5v.585h2.5v1.755h-2.5v.585h2.5v2.379h.689v-7.085Z" transform="translate(5896.291 2285.93)"/>
    <path id="패스_23663" data-name="패스 23663" d="M7.293-9.373H4.381v-1.391H3.692v1.391H.741v.585H7.293ZM2.119-6.019c0-.884.78-1.508,1.911-1.508s1.9.624,1.9,1.508-.767,1.508-1.9,1.508S2.119-5.135,2.119-6.019Zm4.472,0c0-1.261-1.04-2.054-2.561-2.054S1.469-7.28,1.469-6.019,2.509-3.965,4.03-3.965,6.591-4.758,6.591-6.019ZM9.464.156H3.523V-1.339H9.464Zm0-2.054H3.523V-3.3H2.834V.728H10.14V-3.3H9.464Zm-.013-8.736V-7.8H7.215v.585H9.451v1.651H7.2v.572H9.451v1.144h.689v-6.786Z" transform="translate(5884.721 2285.93)"/>
    <text id="_5" data-name=" " class="cls-8" transform="translate(5881.471 2285.93)"><tspan x="0" y="0"> </tspan></text>
    <path id="패스_23662" data-name="패스 23662" d="M4.394-7.982H7.111v-.585H4.394v-1.9H3.7v1.9H.962v.585H3.718v1.157A5.771,5.771,0,0,1,.689-1.911l.4.533A6.38,6.38,0,0,0,4.069-5.226,6.02,6.02,0,0,0,6.9-1.6l.416-.546a5.518,5.518,0,0,1-2.925-4.68Zm7.15,2.236H9.516v-4.888H8.827V.91h.689V-5.148h2.028Z" transform="translate(5869.901 2285.93)"/>
    <path id="패스_23659" data-name="패스 23659" d="M.585,0H6.292V-.676H3.341c-.494,0-1.04.039-1.56.078C4.3-2.951,5.837-4.94,5.837-6.929A2.483,2.483,0,0,0,3.211-9.646,3.484,3.484,0,0,0,.546-8.281l.481.455A2.823,2.823,0,0,1,3.133-9.009,1.863,1.863,0,0,1,5.07-6.9C5.07-5.187,3.8-3.237.585-.468Z" transform="translate(5863.336 2285.93)"/>
    <path id="패스_23661" data-name="패스 23661" d="M.585-3.276h3.2v-.637H.585Z" transform="translate(5859.384 2285.93)"/>
    <path id="패스_23658" data-name="패스 23658" d="M1.2,0H6.084V-.663H4.108V-9.477H3.5a5.441,5.441,0,0,1-1.807.6v.507H3.341V-.663H1.2Z" transform="translate(5852.819 2285.93)"/>
    <text id="_6" data-name="" class="cls-8" transform="translate(5852.819 2285.93)"><tspan x="0" y="0"></tspan></text>
    <text id="_7" data-name=" " class="cls-8" transform="translate(5849.439 2285.93)"><tspan x="0" y="0"> </tspan></text>
    <path id="패스_23660" data-name="패스 23660" d="M3.445-3.952a.686.686,0,0,0,.676-.7.673.673,0,0,0-.676-.715.671.671,0,0,0-.663.715A.683.683,0,0,0,3.445-3.952Z" transform="translate(5846.436 2285.93)"/>
  </g>
  <g id="그룹_165" data-name="그룹 165" transform="translate(-5826.44 -1779.1)">
    <path id="패스_23692" data-name="패스 23692" d="M6.292-1.222V-4.511h3.64V-5.1H2.821V-9.061H9.815v-.585H2.132v5.135H5.6v3.289H.728v.585H11.206v-.585Z" transform="translate(6039.791 2307.926)"/>
    <path id="패스_23691" data-name="패스 23691" d="M5.941-9.568c1.924,0,3.263.767,3.263,1.9S7.865-5.759,5.941-5.759s-3.25-.78-3.25-1.911S4.03-9.568,5.941-9.568Zm0,4.381c2.379,0,3.965-.962,3.965-2.483S8.32-10.14,5.941-10.14s-3.952.949-3.952,2.47S3.562-5.187,5.941-5.187Zm5.265,1.209H.728v.585H3.614V.9h.7v-4.29H7.579V.9h.7v-4.29h2.925Z" transform="translate(6028.221 2307.926)"/>
    <text id="_8" data-name=" " class="cls-8" transform="translate(6024.971 2307.926)"><tspan x="0" y="0"> </tspan></text>
    <path id="패스_23690" data-name="패스 23690" d="M7.748-9.165H4.615v-1.482H3.926v1.482H.793v.585H7.748ZM2.262-5.655c0-.923.806-1.56,2.015-1.56s2.015.637,2.015,1.56-.819,1.56-2.015,1.56S2.262-4.745,2.262-5.655ZM4.615-3.562c1.4-.117,2.327-.9,2.327-2.093,0-1.3-1.079-2.119-2.665-2.119s-2.652.819-2.652,2.119c0,1.2.91,1.976,2.3,2.093v1.443c-1.2.052-2.34.052-3.328.052l.13.6a45.261,45.261,0,0,0,7.345-.455l-.052-.533c-1.079.169-2.249.247-3.406.312ZM11.479-5.6h-2v-5.031H8.788V.9h.689v-5.9h2Z" transform="translate(6013.401 2307.926)"/>
    <path id="패스_23689" data-name="패스 23689" d="M9.152-6.734H2.782V-9.49h6.37Zm.663-3.328H2.106v3.9H9.815Zm-7.007,7.4H2.119V.624h7.917V.039H2.808ZM.715-4.628v.585h4.94v2.574h.689V-4.043h4.862v-.585Z" transform="translate(6001.831 2307.926)"/>
    <text id="_9" data-name=" " class="cls-8" transform="translate(5998.587 2307.926)"><tspan x="0" y="0"> </tspan></text>
    <path id="패스_23688" data-name="패스 23688" d="M9.932-6.877H2.756V-9.5H9.841v-.585H2.08v3.8H9.932ZM5.954.312c-1.976,0-3.237-.559-3.237-1.495s1.261-1.5,3.237-1.5,3.237.559,3.237,1.5S7.93.312,5.954.312Zm0-3.549c-2.444,0-3.926.741-3.926,2.054S3.51.871,5.954.871,9.88.143,9.88-1.183,8.4-3.237,5.954-3.237ZM.741-5.005v.585H11.18v-.585Z" transform="translate(5987.018 2307.926)"/>
    <text id="_10" data-name=" " class="cls-8" transform="translate(5983.768 2307.926)"><tspan x="0" y="0"> </tspan></text>
    <path id="패스_23687" data-name="패스 23687" d="M9.113.156H2.847V-1.729H9.113Zm0-2.457H2.847V-4.017H2.158V.741H9.789V-4.017H9.113Zm.338-3.51a14.959,14.959,0,0,0,.325-3.471v-.793H2.093v.585h7.02v.208a13.458,13.458,0,0,1-.364,3.471H.741v.585H11.206v-.585Z" transform="translate(5972.198 2307.926)"/>
    <path id="패스_23686" data-name="패스 23686" d="M4.641-8.814H7.553v-.6H1.105v.6h2.86v1.95A6.341,6.341,0,0,1,.78-1.9l.429.559a7.093,7.093,0,0,0,3.094-4A6.537,6.537,0,0,0,7.462-1.625l.416-.546A5.734,5.734,0,0,1,4.641-6.864Zm4.771-1.82V.91H10.1V-10.634Z" transform="translate(5960.627 2307.926)"/>
    <path id="패스_23685" data-name="패스 23685" d="M2.73-2.717H9.2V.143H2.73ZM2.054.728H9.88V-3.289H2.054ZM9.438-5.655a14.737,14.737,0,0,0,.338-3.523v-.806H2.093V-9.4h7.02v.221a13.82,13.82,0,0,1-.364,3.523H.728v.585H11.206v-.585Z" transform="translate(5949.058 2307.926)"/>
    <path id="패스_23684" data-name="패스 23684" d="M1.885-2.691V-8.606H5.512v-.6h-4.3v7.111h.715a18.755,18.755,0,0,0,4.381-.364l-.091-.6a17.165,17.165,0,0,1-4.3.364ZM9.8-10.634v4.745H7.813v-4.459H7.15V.273h.663V-5.3H9.8V.9h.676V-10.634Z" transform="translate(5937.488 2307.926)"/>
    <text id="_11" data-name=" " class="cls-8" transform="translate(5934.244 2307.926)"><tspan x="0" y="0"> </tspan></text>
    <path id="패스_23683" data-name="패스 23683" d="M1.261-9.724v.585H5.8C5.616-6.838,3.64-5.044.819-4.108l.3.572C4.342-4.615,6.539-6.825,6.539-9.724Zm2.015,6.76H2.587V.624H10.2V.039H3.276Zm6.344-4v-3.666H8.931V-2.08H9.62V-6.37h1.82v-.6Z" transform="translate(5922.674 2307.926)"/>
    <text id="_12" data-name=" " class="cls-8" transform="translate(5919.424 2307.926)"><tspan x="0" y="0"> </tspan></text>
    <path id="패스_23682" data-name="패스 23682" d="M4.368-9.581H3.7v2.314a6.388,6.388,0,0,1-3.081,5.1l.429.559a7.085,7.085,0,0,0,3-4.069,6.705,6.705,0,0,0,2.99,3.822l.429-.533A6.134,6.134,0,0,1,4.368-7.267Zm7.176,3.757H9.516v-4.823H8.827V.91h.689V-5.239h2.028Z" transform="translate(5907.854 2307.926)"/>
    <path id="패스_23681" data-name="패스 23681" d="M6.942-5.07a26.06,26.06,0,0,1-4.888.286h-.13V-6.89H6.136V-9.932H1.209v.585H5.46v1.9H1.248V-4.2h.806A27.231,27.231,0,0,0,7.02-4.485ZM2.522-2.288H9.451V.936h.689V-2.873H2.522Zm6.929-8.346v1.781h-2.5v.585h2.5v1.755h-2.5v.585h2.5v2.379h.689v-7.085Z" transform="translate(5896.284 2307.926)"/>
    <path id="패스_23680" data-name="패스 23680" d="M7.293-9.373H4.381v-1.391H3.692v1.391H.741v.585H7.293ZM2.119-6.019c0-.884.78-1.508,1.911-1.508s1.9.624,1.9,1.508-.767,1.508-1.9,1.508S2.119-5.135,2.119-6.019Zm4.472,0c0-1.261-1.04-2.054-2.561-2.054S1.469-7.28,1.469-6.019,2.509-3.965,4.03-3.965,6.591-4.758,6.591-6.019ZM9.464.156H3.523V-1.339H9.464Zm0-2.054H3.523V-3.3H2.834V.728H10.14V-3.3H9.464Zm-.013-8.736V-7.8H7.215v.585H9.451v1.651H7.2v.572H9.451v1.144h.689v-6.786Z" transform="translate(5884.714 2307.926)"/>
    <text id="_13" data-name=" " class="cls-8" transform="translate(5881.471 2307.926)"><tspan x="0" y="0"> </tspan></text>
    <path id="패스_23679" data-name="패스 23679" d="M4.394-7.982H7.111v-.585H4.394v-1.9H3.7v1.9H.962v.585H3.718v1.157A5.771,5.771,0,0,1,.689-1.911l.4.533A6.38,6.38,0,0,0,4.069-5.226,6.02,6.02,0,0,0,6.9-1.6l.416-.546a5.518,5.518,0,0,1-2.925-4.68Zm7.15,2.236H9.516v-4.888H8.827V.91h.689V-5.148h2.028Z" transform="translate(5869.901 2307.926)"/>
    <path id="패스_23678" data-name="패스 23678" d="M.585,0H6.292V-.676H3.341c-.494,0-1.04.039-1.56.078C4.3-2.951,5.837-4.94,5.837-6.929A2.483,2.483,0,0,0,3.211-9.646,3.484,3.484,0,0,0,.546-8.281l.481.455A2.823,2.823,0,0,1,3.133-9.009,1.863,1.863,0,0,1,5.07-6.9C5.07-5.187,3.8-3.237.585-.468Z" transform="translate(5863.336 2307.926)"/>
    <path id="패스_23677" data-name="패스 23677" d="M.585-3.276h3.2v-.637H.585Z" transform="translate(5859.384 2307.926)"/>
    <path id="패스_23676" data-name="패스 23676" d="M1.2,0H6.084V-.663H4.108V-9.477H3.5a5.441,5.441,0,0,1-1.807.6v.507H3.341V-.663H1.2Z" transform="translate(5852.819 2307.926)"/>
    <text id="_14" data-name="" class="cls-8" transform="translate(5852.819 2307.926)"><tspan x="0" y="0"></tspan></text>
    <text id="_15" data-name=" " class="cls-8" transform="translate(5849.439 2307.926)"><tspan x="0" y="0"> </tspan></text>
    <path id="패스_23675" data-name="패스 23675" d="M3.445-3.952a.686.686,0,0,0,.676-.7.673.673,0,0,0-.676-.715.671.671,0,0,0-.663.715A.683.683,0,0,0,3.445-3.952Z" transform="translate(5846.436 2307.926)"/>
  </g>
  <g id="그룹_166" data-name="그룹 166" transform="translate(-5826.44 -1779.1)">
    <path id="패스_364" data-name="패스 364" class="cls-9" d="M5989.725,2137.4a40.635,40.635,0,1,1-40.635-40.634,40.634,40.634,0,0,1,40.635,40.634"/>
  </g>
  <path id="패스_23651" data-name="패스 23651" d="M1.382,0H8.129V-1.526H5.816v-10.3h-1.4a7.263,7.263,0,0,1-2.57.9v1.173H3.968v8.225H1.382Z" transform="translate(118.071 344.087)"/>
  <path id="패스_23693" data-name="패스 23693" class="cls-7" d="M7.312-.032c-2.112,0-3.3-.464-3.3-1.36,0-.88,1.184-1.36,3.3-1.36s3.312.48,3.312,1.36C10.624-.5,9.424-.032,7.312-.032Zm0-3.984c-3.088,0-4.976.96-4.976,2.624,0,1.68,1.888,2.64,4.976,2.64,3.1,0,4.976-.96,4.976-2.64C12.288-3.056,10.416-4.016,7.312-4.016ZM8.176-6.24V-7.68h4.208V-9.008H4.08v-2.256h8.208v-1.312H2.448v4.9h4.08v1.44H.832V-4.9H13.888V-6.24ZM20.9-6.256H17.36V-8.64H20.9Zm1.632-5.92H20.9V-9.92H17.36v-2.256H15.712v7.248h6.816Zm-3.52,8.56H17.344V.96h9.728V-.384H19.008ZM26.5-8.96V-13.2H24.848V-2.592H26.5V-7.6h2.048V-8.96ZM39.936-4.7h1.648v-8.528H39.936v2.9H37.008v1.344h2.928ZM38.192-6.576A4.7,4.7,0,0,1,34.8-11.1v-1.344H33.136v1.424a5.056,5.056,0,0,1-3.584,4.848l.864,1.328a5.975,5.975,0,0,0,3.6-3.488,5.609,5.609,0,0,0,3.3,3.056ZM36.768-.064c-2.048,0-3.216-.528-3.216-1.472s1.168-1.472,3.216-1.472S40-2.48,40-1.536,38.816-.064,36.768-.064Zm0-4.24C33.76-4.3,31.9-3.28,31.9-1.536s1.856,2.768,4.864,2.768c3.024,0,4.88-1.024,4.88-2.768S39.792-4.3,36.768-4.3ZM52.5-6.416a4.468,4.468,0,0,1-3.408-4.176v-.272h3.024v-1.328h-7.76v1.328h3.072v.288a4.918,4.918,0,0,1-3.536,4.608l.832,1.3A5.881,5.881,0,0,0,48.3-8.032a5.426,5.426,0,0,0,3.392,2.9ZM50.64-.064c-2.016,0-3.184-.512-3.184-1.44,0-.944,1.168-1.44,3.184-1.44s3.184.5,3.184,1.44C53.824-.576,52.656-.064,50.64-.064Zm0-4.176c-2.976,0-4.816,1.008-4.816,2.736,0,1.712,1.84,2.736,4.816,2.736S55.456.208,55.456-1.5C55.456-3.232,53.616-4.24,50.64-4.24ZM55.3-9.7v-3.52H53.648v8.64H55.3v-3.76h2.048V-9.7Zm11.728-.72H70.24v-1.36h-8.1v1.36H65.36V-9.04a7.066,7.066,0,0,1-3.728,6.208l.944,1.312a7.452,7.452,0,0,0,3.632-4.544,7.081,7.081,0,0,0,3.648,4.176l.912-1.3A6.519,6.519,0,0,1,67.024-9.04Zm4.9-2.8V1.232h1.664V-13.216Zm11.664,8.48v1.152h2.832V-2.24h1.648V-13.232H86.416v8.5Zm-2.88-6.72c1.184,0,2,.512,2,1.328S81.888-8.8,80.7-8.8c-1.2,0-2.016-.512-2.016-1.328S79.5-11.456,80.7-11.456Zm0,3.872c2.112,0,3.568-1.008,3.568-2.544s-1.456-2.544-3.568-2.544c-2.128,0-3.584,1.008-3.584,2.544S78.576-7.584,80.7-7.584ZM80.048-2.7H81.7V-5.488A32.126,32.126,0,0,0,85.408-5.9L85.28-7.088a82.127,82.127,0,0,1-9.264.432l.208,1.344c1.136,0,2.448-.016,3.824-.08Zm-.432,2.32V-3.312H77.968V.96H88.4V-.384Z" transform="translate(289.894 459.831)"/>
  <path id="패스_23694" data-name="패스 23694" d="M5.941-.026c-1.716,0-2.678-.377-2.678-1.1s.962-1.105,2.678-1.105,2.691.39,2.691,1.105S7.657-.026,5.941-.026Zm0-3.237c-2.509,0-4.043.78-4.043,2.132S3.432,1.014,5.941,1.014,9.984.234,9.984-1.131,8.463-3.263,5.941-3.263Zm.7-1.807V-6.24h3.419V-7.319H3.315V-9.152H9.984v-1.066h-8V-6.24H5.3v1.17H.676v1.092H11.284V-5.07Zm10.283-.013H14.053V-7.02h2.873Zm1.326-4.81H16.926V-8.06H14.053V-9.893H12.714V-4h5.538Zm-2.86,6.955H14.04V.78h7.9V-.312H15.392ZM21.476-7.28v-3.445H20.137v8.619h1.339V-6.175H23.14V-7.28ZM32.344-3.822h1.339v-6.929H32.344V-8.4H29.965v1.092h2.379ZM30.927-5.343a3.818,3.818,0,0,1-2.756-3.679v-1.092H26.819v1.157a4.108,4.108,0,0,1-2.912,3.939l.7,1.079a4.854,4.854,0,0,0,2.925-2.834A4.557,4.557,0,0,0,30.212-4.29ZM29.77-.052c-1.664,0-2.613-.429-2.613-1.2s.949-1.2,2.613-1.2,2.626.429,2.626,1.2S31.434-.052,29.77-.052Zm0-3.445c-2.444,0-3.952.832-3.952,2.249S27.326,1,29.77,1s3.965-.832,3.965-2.249S32.227-3.5,29.77-3.5ZM42.5-5.213a3.63,3.63,0,0,1-2.769-3.393v-.221h2.457V-9.906H35.88v1.079h2.5v.234A4,4,0,0,1,35.5-4.849L36.179-3.8a4.778,4.778,0,0,0,2.912-2.73,4.409,4.409,0,0,0,2.756,2.353ZM40.989-.052c-1.638,0-2.587-.416-2.587-1.17s.949-1.17,2.587-1.17,2.587.4,2.587,1.17S42.627-.052,40.989-.052Zm0-3.393c-2.418,0-3.913.819-3.913,2.223S38.571,1,40.989,1,44.9.169,44.9-1.222,43.407-3.445,40.989-3.445Zm3.783-4.433v-2.86H43.433v7.02h1.339V-6.773h1.664V-7.878ZM54.2-8.463H56.81v-1.1H50.232v1.1h2.613v1.118A5.741,5.741,0,0,1,49.816-2.3l.767,1.066a6.055,6.055,0,0,0,2.951-3.692A5.754,5.754,0,0,0,56.5-1.534l.741-1.053A5.3,5.3,0,0,1,54.2-7.345Zm3.978-2.275V1h1.352V-10.738ZM67.6-3.848v.936h2.3V-1.82H71.24v-8.931H69.9v6.9Zm-2.34-5.46c.962,0,1.625.416,1.625,1.079S66.222-7.15,65.26-7.15s-1.638-.416-1.638-1.079S64.285-9.308,65.26-9.308Zm0,3.146c1.716,0,2.9-.819,2.9-2.067S66.976-10.3,65.26-10.3s-2.912.819-2.912,2.067S63.531-6.162,65.26-6.162ZM64.727-2.2h1.339V-4.459A26.1,26.1,0,0,0,69.082-4.8l-.1-.962a66.728,66.728,0,0,1-7.527.351l.169,1.092c.923,0,1.989-.013,3.107-.065ZM64.376-.312V-2.691H63.037V.78h8.476V-.312ZM82.42-4.719h-2.7V-8.554h2.7Zm-4.043,0h-1.69v1.092h8.762V-4.719h-1.7V-8.554h1.729V-9.633H76.648v1.079h1.729ZM75.764-1.547V-.442h10.66V-1.547Zm17.628.065v-2h3.666V-4.563H90.025V-6.2H96.8V-9.919H88.686V-8.84h6.786v1.573h-6.76v3.783h3.341v2H87.425V-.377H98.059V-1.482Zm13.6-6.825a26.46,26.46,0,0,1-.455,5.564l1.352.143a29.108,29.108,0,0,0,.442-5.707V-9.568H100.2v1.079h6.786ZM99.073-1.742V-.637h10.621V-1.742ZM116.207-5.6a19.451,19.451,0,0,1-3.692.312V-6.669h3.12V-10h-4.446v1.053h3.146V-7.67h-3.12v3.445h.793a21.319,21.319,0,0,0,4.316-.312Zm-2.041,3.432h5.187V-.208h-5.187ZM112.84.858h7.813V-3.237H112.84Zm6.539-11.609v2.9h-1.3v-2.665h-1.248V-3.9h1.248V-6.773h1.3v3.016h1.274v-6.994Z" transform="translate(273.681 481.831)"/>
  <path id="패스_23695" data-name="패스 23695" d="M3.445-3.952a.686.686,0,0,0,.676-.7.673.673,0,0,0-.676-.715.671.671,0,0,0-.663.715A.683.683,0,0,0,3.445-3.952Zm7.839-4.706h3v5.772h-3Zm-.65,6.344h4.3v-6.9h-4.3Zm8.619-8.32v4.68H17.329v-4.394h-.663V.3h.663V-5.369h1.924V.91h.663V-10.634Zm3.471,4.6c1.755-.182,3.692-.832,4.355-2.093.663,1.261,2.6,1.911,4.355,2.093l.221-.546c-1.885-.169-4.134-.949-4.212-2.431H31.2v-.559H27.43v-1.183h-.689v1.183H22.984v.559h3.731c-.078,1.482-2.327,2.262-4.212,2.431ZM32.292-4.81v-.559H21.866v.559h4.862v1.274H23.166V-3h7.072v1.261H23.192V.741h8.1V.182H23.868V-1.209h7.046V-3.536h-3.5V-4.81Zm8.229-4.654h-3v-1.274h-.689v1.274H33.813v.546h6.708Zm-5.33,2.795c0-.715.793-1.2,1.976-1.2s1.976.481,1.976,1.2-.793,1.183-1.976,1.183S35.191-5.954,35.191-6.669ZM40.9-4.355a31.668,31.668,0,0,1-3.38.325v-.962c1.378-.091,2.262-.689,2.262-1.677,0-1.053-1.04-1.7-2.613-1.7s-2.626.65-2.626,1.7c0,.988.884,1.586,2.288,1.677V-4c-1.183.039-2.327.039-3.289.039l.1.585a42.144,42.144,0,0,0,7.306-.455ZM34.931-1.742h6.76V.91h.689V-2.314H34.931Zm9.282-5.291H42.38v-3.588h-.689v7.657h.689V-6.435h1.833Zm2.2,4.342V-8.606h3.627v-.6h-4.3v7.111h.715a18.755,18.755,0,0,0,4.381-.364l-.091-.6a17.165,17.165,0,0,1-4.3.364Zm7.917-7.943v4.745H52.338v-4.459h-.663V.273h.663V-5.3h1.989V.9H55V-10.634Zm14.638-.013h-.689v6.682h.689ZM64.792-5.811H60.879V-9.3h3.913Zm.663-4.056H60.2v4.628h5.252Zm.351,7.358h3.5v-.559h-3.5V-4.316h-.7v1.248H61.633v.559H65.1v.117c0,1.313-2.262,2.47-3.939,2.7l.247.546c1.573-.273,3.393-1.131,4.043-2.314A5.852,5.852,0,0,0,69.433.858L69.68.312c-1.69-.26-3.874-1.4-3.874-2.7Zm10.1-.208h6.474V.143H75.907ZM75.231.728h7.826V-3.289H75.231Zm7.384-6.383a14.737,14.737,0,0,0,.338-3.523v-.806H75.27V-9.4h7.02v.221a13.82,13.82,0,0,1-.364,3.523H73.9v.585H84.383v-.585Zm8.2-4.16c1.989,0,3.3.585,3.3,1.547s-1.313,1.56-3.3,1.56-3.276-.6-3.276-1.56S88.842-9.815,90.818-9.815Zm0,3.666c2.483,0,4-.767,4-2.119s-1.521-2.106-4-2.106S86.84-9.62,86.84-8.268,88.348-6.149,90.818-6.149ZM92.573-3a9.716,9.716,0,0,0-1.742-.143A9.517,9.517,0,0,0,89.115-3V-4.524h3.458Zm1.5,1.872c0,.923-1.274,1.456-3.237,1.456s-3.237-.533-3.237-1.456c0-.9,1.274-1.456,3.237-1.456S94.068-2.028,94.068-1.131Zm1.976-3.393v-.585H85.6v.585h2.821v1.7c-.988.338-1.521.91-1.521,1.69,0,1.3,1.469,2.015,3.926,2.015s3.926-.715,3.926-2.015c0-.767-.52-1.339-1.495-1.677V-4.524Zm5.174-4.29h2.912v-.6H97.682v.6h2.86v1.95A6.341,6.341,0,0,1,97.357-1.9l.429.559a7.093,7.093,0,0,0,3.094-4,6.537,6.537,0,0,0,3.159,3.718l.416-.546a5.734,5.734,0,0,1-3.237-4.693Zm4.771-1.82V.91h.689V-10.634Zm9.165,6.89V-3.2h2.457v1.365h.689v-8.788h-.689v6.877Zm-2.431-5.85c1.274,0,2.158.6,2.158,1.443,0,.871-.884,1.456-2.158,1.456s-2.158-.585-2.158-1.456C110.565-9,111.449-9.594,112.723-9.594Zm0,3.432c1.69,0,2.808-.767,2.808-1.989s-1.118-1.976-2.808-1.976S109.9-9.36,109.9-8.151,111.033-6.162,112.723-6.162Zm-.26,3.861h.689V-4.654a32.094,32.094,0,0,0,3.367-.338l-.065-.507a63.581,63.581,0,0,1-7.514.338l.1.6c1.014,0,2.171,0,3.419-.052ZM111.371.039V-2.7h-.676V.624h7.9V.039Z" transform="translate(265.673 506.83)"/>
  <path id="패스_23696" data-name="패스 23696" d="M3.445-3.952a.686.686,0,0,0,.676-.7.673.673,0,0,0-.676-.715.671.671,0,0,0-.663.715A.683.683,0,0,0,3.445-3.952ZM10.868-9.36v.585h4.615c-.182,2.847-1.937,5.3-5.109,6.838l.377.572c3.718-1.833,5.421-4.771,5.421-8Zm7.995-1.274V.91h.689V-10.634ZM31.694-7.111c-1.781-.221-4.264-1.313-4.264-2.925v-.546h-.7v.546c0,1.612-2.483,2.7-4.264,2.925l.247.546c1.651-.247,3.679-1.092,4.368-2.457.676,1.365,2.691,2.21,4.355,2.457Zm.6,2.041v-.572H21.853v.572h4.875v1.391H23.166v.559h7.072v1.313H23.192V.741h8.1V.169H23.868V-1.274h7.046v-2.4h-3.5V-5.07Zm3.263-1.885h6.474v2.431H35.555Zm3.562,5.733V-3.939h3.588V-9.776h-.676V-7.54H35.555V-9.776h-.689v5.837h3.562v2.717H33.553v.585H44.044v-.585ZM55.094-8.788H50.83v-1.625h-.689v1.625H45.825V-8.2h9.269ZM47.476-5.109c0-.975,1.183-1.586,3-1.586s3,.611,3,1.586S52.3-3.5,50.479-3.5,47.476-4.121,47.476-5.109ZM50.83-1.144V-2.951c2.067-.078,3.341-.858,3.341-2.158,0-1.365-1.417-2.158-3.692-2.158s-3.692.793-3.692,2.158c0,1.3,1.274,2.08,3.354,2.171v1.794H45.266v.585H55.731v-.585Zm18.135-9.5h-.689v6.682h.689ZM64.792-5.811H60.879V-9.3h3.913Zm.663-4.056H60.2v4.628h5.252Zm.351,7.358h3.5v-.559h-3.5V-4.316h-.7v1.248H61.633v.559H65.1v.117c0,1.313-2.262,2.47-3.939,2.7l.247.546c1.573-.273,3.393-1.131,4.043-2.314A5.852,5.852,0,0,0,69.433.858L69.68.312c-1.69-.26-3.874-1.4-3.874-2.7Zm17.5-8.112h-.689v8.515H83.3Zm-8.4,3.614a2.172,2.172,0,0,1,2.262-2.171A2.172,2.172,0,0,1,79.43-7.007a2.185,2.185,0,0,1-2.262,2.2A2.185,2.185,0,0,1,74.906-7.007Zm5.187,0a2.75,2.75,0,0,0-2.925-2.782,2.75,2.75,0,0,0-2.925,2.782A2.763,2.763,0,0,0,77.168-4.2,2.763,2.763,0,0,0,80.093-7.007ZM76.739.039V-3H76.05V.624h7.644V.039ZM91.819-5.07a26.06,26.06,0,0,1-4.888.286H86.8V-6.89h4.212V-9.932H86.086v.585h4.251v1.9H86.125V-4.2h.806A27.231,27.231,0,0,0,91.9-4.485ZM87.4-2.288h6.929V.936h.689V-2.873H87.4Zm6.929-8.346v1.781h-2.5v.585h2.5v1.755h-2.5v.585h2.5v2.379h.689v-7.085Zm9.516,1.82h2.912v-.6h-6.448v.6h2.86v1.95A6.341,6.341,0,0,1,99.983-1.9l.429.559a7.093,7.093,0,0,0,3.094-4,6.537,6.537,0,0,0,3.159,3.718l.416-.546a5.734,5.734,0,0,1-3.237-4.693Zm4.771-1.82V.91h.689V-10.634Zm9.165,6.89V-3.2h2.457v1.365h.689v-8.788h-.689v6.877Zm-2.431-5.85c1.274,0,2.158.6,2.158,1.443,0,.871-.884,1.456-2.158,1.456s-2.158-.585-2.158-1.456C113.191-9,114.075-9.594,115.349-9.594Zm0,3.432c1.69,0,2.808-.767,2.808-1.989s-1.118-1.976-2.808-1.976-2.821.767-2.821,1.976S113.659-6.162,115.349-6.162Zm-.26,3.861h.689V-4.654a32.094,32.094,0,0,0,3.367-.338L119.08-5.5a63.581,63.581,0,0,1-7.514.338l.1.6c1.014,0,2.171,0,3.419-.052ZM114,.039V-2.7h-.676V.624h7.9V.039Zm21.164-6.916h-7.176V-9.5h7.085v-.585h-7.761v3.8h7.852ZM131.183.312c-1.976,0-3.237-.559-3.237-1.495s1.261-1.5,3.237-1.5,3.237.559,3.237,1.5S133.159.312,131.183.312Zm0-3.549c-2.444,0-3.926.741-3.926,2.054S128.739.871,131.183.871s3.926-.728,3.926-2.054S133.627-3.237,131.183-3.237ZM125.97-5.005v.585h10.439v-.585Z" transform="translate(265.673 528.826)"/>
  <g id="그룹_167" data-name="그룹 167" transform="translate(-5826.44 -1779.1)">
    <path id="패스_369" data-name="패스 369" class="cls-9" d="M6202.409,2137.4a40.635,40.635,0,1,1-40.636-40.634,40.636,40.636,0,0,1,40.636,40.634"/>
  </g>
  <path id="패스_23652" data-name="패스 23652" d="M.707,0H8.338V-1.574H5.382c-.578,0-1.317.048-1.928.112C5.96-3.856,7.775-6.217,7.775-8.5a3.344,3.344,0,0,0-3.566-3.55,4.64,4.64,0,0,0-3.6,1.767L1.655-9.253a3.207,3.207,0,0,1,2.329-1.317A1.928,1.928,0,0,1,5.992-8.4c0,1.944-1.8,4.241-5.285,7.326Z" transform="translate(330.755 344.087)"/>
  <path id="패스_23697" data-name="패스 23697" class="cls-7" d="M5.2-10.288H7.584v-1.36H1.056v1.36H3.6v1.04c0,2.576-.96,5.184-3.008,6.464l.992,1.216A7.161,7.161,0,0,0,4.416-5.824a6.576,6.576,0,0,0,2.768,3.9l.96-1.2C6.128-4.288,5.2-6.784,5.2-9.248ZM8.656-8.144H6.528V-6.8H8.656V.528h1.552V-12.944H8.656Zm2.912-5.088V1.216h1.568V-13.232Zm4.9,8.528a7.4,7.4,0,0,0,5.28-3.68A7.482,7.482,0,0,0,27.1-4.752l.672-1.312c-2.864-.448-5.168-2.4-5.168-4.576v-.032H27.2V-12H16.288v1.328H20.88v.032c0,2.176-2.288,4.176-5.1,4.624Zm6.128,2.816V-5.264H20.928v3.376H15.216V-.544H28.3V-1.888ZM44.8-13.232H43.136v8.256H44.8Zm-5.92,5.6H35.248v-3.376H38.88Zm1.6-4.688H33.632v6H40.48Zm4.592,9.5V-4.08H40.928v-1.3h-1.68v1.3H35.1v1.264h4.144c-.128,1.232-2,2.5-4.7,2.768L35.088,1.2A7.033,7.033,0,0,0,40.1-1.248,7.008,7.008,0,0,0,45.056,1.2L45.6-.048c-2.672-.288-4.528-1.584-4.656-2.768Zm6.32-8.88v1.344h5.152c-.288,3.328-2.08,5.872-5.872,7.7l.88,1.312c4.96-2.4,6.688-6.048,6.688-10.352Zm9.456-1.52V1.232H62.5V-13.216ZM77.36-9.408c-2.9-.288-5.008-1.712-5.008-3.328v-.416h-1.7v.416c0,1.616-2.112,3.04-5.008,3.328l.56,1.264a7.218,7.218,0,0,0,5.3-2.72,7.218,7.218,0,0,0,5.3,2.72Zm.688,3.36V-7.36H64.96v1.312h5.7v1.216H66.512v1.248h8.272v1.072h-8.24V1.1H76.816V-.16h-8.64V-1.344H76.4V-4.832H72.32V-6.048ZM92.976-9.392v1.664h-3.5v1.344h3.5V-4.72h1.648v-8.5H92.976v2.48H90a8.172,8.172,0,0,0,.128-1.44h-6.56v1.328h4.8c-.288,2.256-2.16,4.032-5.552,4.976l.656,1.312c3.12-.912,5.248-2.528,6.144-4.832ZM89.888-.128C87.936-.128,86.7-.688,86.7-1.7c0-.992,1.232-1.552,3.184-1.552,1.968,0,3.2.56,3.2,1.552C93.088-.688,91.856-.128,89.888-.128Zm0-4.416c-2.928,0-4.816,1.088-4.816,2.848,0,1.776,1.888,2.864,4.816,2.864S94.72.08,94.72-1.7C94.72-3.456,92.816-4.544,89.888-4.544Zm16.336-3.648h1.488V-4.4h1.568v-8.8h-1.568v3.664h-1.488v-3.408h-1.552v8.08h1.552ZM104.1-6.448a4.018,4.018,0,0,1-2.656-3.888v-.4h2.352V-12.08H97.36v1.344h2.48v.4A4.537,4.537,0,0,1,97.008-6.08l.864,1.28a5.174,5.174,0,0,0,2.784-2.912,4.628,4.628,0,0,0,2.592,2.528Zm.384,6.4c-2.048,0-3.264-.5-3.264-1.392,0-.912,1.216-1.408,3.264-1.408,2.016,0,3.232.5,3.232,1.408C107.712-.544,106.5-.048,104.48-.048Zm0-4.08c-3.024,0-4.912,1.008-4.912,2.688,0,1.664,1.888,2.672,4.912,2.672,2.992,0,4.88-1.008,4.88-2.672C109.36-3.12,107.472-4.128,104.48-4.128Zm14.48-2.4a28.724,28.724,0,0,1-5.312.336V-8.064h4.624v-4.32H112v1.328h4.64v1.728h-4.608v4.48h1.056a32.85,32.85,0,0,0,6.048-.352Zm-5.312,4.272h8.128v3.52h1.648V-3.6h-9.776Zm8.128-10.96v2.08h-2.592v1.328h2.592v1.7h-2.592v1.328h2.592V-4.32h1.648v-8.9Z" transform="translate(466.667 459.831)"/>
  <path id="패스_23698" data-name="패스 23698" d="M7.2-9.646H4.667v-1.209H3.328v1.209H.689V-8.58H7.2ZM2.548-5.98c0-.689.585-1.118,1.443-1.118s1.456.429,1.456,1.118S4.862-4.862,3.991-4.862,2.548-5.291,2.548-5.98Zm4.147,0c0-1.274-1.1-2.119-2.7-2.119S1.3-7.254,1.3-5.98,2.4-3.861,3.991-3.861,6.695-4.706,6.695-5.98ZM9.061-.195H4V-1.222H9.061Zm0-2.041H4V-3.3H2.678V.858h7.709V-3.3H9.061Zm-.013-8.515v2.639H7.28V-7.02H9.048v1.209H7.254v1.092H9.048v.949h1.339v-6.981ZM18.408-5.3a23.338,23.338,0,0,1-4.316.273V-6.552h3.757v-3.51h-5.1v1.079h3.77v1.4H12.779v3.64h.858a26.691,26.691,0,0,0,4.914-.286ZM14.092-1.833h6.6v2.86h1.339V-2.925H14.092Zm6.6-8.9v1.69H18.59v1.079H20.7v1.378H18.59v1.079H20.7v2h1.339v-7.228Zm7.371.975H26.728v1.924a5.942,5.942,0,0,1-2.977,5.291l.819,1.079A6.066,6.066,0,0,0,27.4-5.148a5.847,5.847,0,0,0,2.7,3.458l.819-1.066a5.7,5.7,0,0,1-2.86-5.083Zm6.812,3.679H33.046v-4.654H31.707V1h1.339v-5.98h1.833ZM46.6-7.631v1.352H43.758v1.092H46.6v1.352h1.339v-6.9H46.6v2.015H44.187a6.639,6.639,0,0,0,.1-1.17h-5.33v1.079h3.9c-.234,1.833-1.755,3.276-4.511,4.043L38.883-3.7c2.535-.741,4.264-2.054,4.992-3.926ZM44.1-.1c-1.586,0-2.587-.455-2.587-1.274s1-1.261,2.587-1.261,2.6.455,2.6,1.261S45.695-.1,44.1-.1Zm0-3.588c-2.379,0-3.913.884-3.913,2.314S41.717.949,44.1.949s3.926-.884,3.926-2.327S46.475-3.692,44.1-3.692ZM57.317-6.656h1.209v3.081H59.8v-7.15H58.526v2.977H57.317v-2.769H56.056v6.565h1.261ZM55.588-5.239A3.264,3.264,0,0,1,53.43-8.4v-.325h1.911V-9.815H50.115v1.092H52.13V-8.4a3.687,3.687,0,0,1-2.3,3.458l.7,1.04a4.2,4.2,0,0,0,2.262-2.366A3.76,3.76,0,0,0,54.9-4.212Zm.312,5.2c-1.664,0-2.652-.4-2.652-1.131s.988-1.144,2.652-1.144c1.638,0,2.626.4,2.626,1.144S57.538-.039,55.9-.039Zm0-3.315c-2.457,0-3.991.819-3.991,2.184S53.443,1,55.9,1c2.431,0,3.965-.819,3.965-2.171S58.331-3.354,55.9-3.354ZM67.613-5.3a23.338,23.338,0,0,1-4.316.273V-6.552h3.757v-3.51h-5.1v1.079h3.77v1.4H61.984v3.64h.858a26.691,26.691,0,0,0,4.914-.286ZM63.3-1.833h6.6v2.86H71.24V-2.925H63.3Zm6.6-8.9v1.69H67.795v1.079H69.9v1.378H67.795v1.079H69.9v2H71.24v-7.228Zm6.357.819v1.092h4.03c-.234,1.82-1.833,3.3-4.55,4.082l.546,1.066c3.432-.988,5.46-3.172,5.46-6.24ZM81.2-.052c-1.56,0-2.548-.468-2.548-1.274s.988-1.287,2.548-1.287,2.548.468,2.548,1.287S82.771-.052,81.2-.052Zm0-3.627c-2.34,0-3.874.9-3.874,2.353S78.858,1,81.2,1s3.874-.884,3.874-2.327S83.551-3.679,81.2-3.679Zm3.744-4.16v-2.9H83.6v6.9h1.339v-2.9h1.664v-1.1Zm9.529-1.547H91.663v-1.326H90.324v1.326H87.49v1.079h6.981ZM89.44-5.525c0-.728.637-1.17,1.56-1.17s1.547.442,1.547,1.17S91.923-4.368,91-4.368,89.44-4.81,89.44-5.525Zm2.223,2.132a2.238,2.238,0,0,0,2.145-2.132c0-1.326-1.144-2.2-2.808-2.2s-2.821.871-2.821,2.2a2.247,2.247,0,0,0,2.145,2.132v1.144c-1.092.039-2.145.039-3.042.039l.182,1.105a42.84,42.84,0,0,0,7.241-.468l-.1-.988c-.936.143-1.937.208-2.938.26ZM98.28-5.837H96.6v-4.914H95.264V1H96.6V-4.732H98.28Z" transform="translate(480.649 481.831)"/>
  <path id="패스_23699" data-name="패스 23699" d="M3.445-3.952a.686.686,0,0,0,.676-.7.673.673,0,0,0-.676-.715.671.671,0,0,0-.663.715A.683.683,0,0,0,3.445-3.952Zm9.932-4.641h2.3v-.585H10.322v.585h2.392v1.339a6.228,6.228,0,0,1-2.652,5.239l.455.52a6.33,6.33,0,0,0,2.535-3.926,5.968,5.968,0,0,0,2.47,3.653l.442-.52a5.876,5.876,0,0,1-2.587-4.966Zm3.536,2.21H14.768v.6h2.145V.273h.663v-10.6h-.663Zm2.314-4.251V.91H19.9V-10.634Zm3.51,6.773a6.518,6.518,0,0,0,4.355-3.276c.715,1.7,2.847,2.9,4.394,3.25l.3-.559c-1.651-.286-4.342-1.885-4.342-3.874v-.572H31.46v-.585H22.724v.585h4.017v.572c0,1.989-2.678,3.614-4.316,3.913Zm4.706,2.613V-4.2h-.689v2.951H21.866v.585H32.331v-.585ZM44.9-7.748v1.833H41.574v.585H44.9v1.768h.689v-7.059H44.9v2.288H41.925a5.265,5.265,0,0,0,.182-1.378H36.946v.572h4.42c-.182,2.262-2.171,3.978-4.992,4.862l.312.572a7.613,7.613,0,0,0,5.031-4.043ZM41.886.3C40,.3,38.779-.325,38.779-1.3S40-2.873,41.886-2.873c1.859,0,3.094.611,3.094,1.573S43.745.3,41.886.3Zm0-3.731c-2.34,0-3.783.793-3.783,2.132C38.1.065,39.546.858,41.886.858,44.2.858,45.643.065,45.643-1.3,45.643-2.639,44.2-3.432,41.886-3.432Zm13.182-3.38h1.82v3.289h.663v-7.111h-.663V-7.4h-1.82v-3.016h-.663V-3.9h.663ZM53.547-4.875a3.642,3.642,0,0,1-2.379-3.38v-.78h2.223V-9.62H48.178v.585h2.314v.78a4.165,4.165,0,0,1-2.444,3.692l.39.559A4.67,4.67,0,0,0,50.83-6.838a4.107,4.107,0,0,0,2.34,2.5ZM53.833.312c-1.885,0-3.107-.559-3.107-1.469s1.222-1.469,3.107-1.469,3.107.559,3.107,1.469S55.731.312,53.833.312Zm0-3.5c-2.353,0-3.783.728-3.783,2.028S51.48.871,53.833.871s3.783-.728,3.783-2.028S56.186-3.185,53.833-3.185ZM65.793-5.07a26.06,26.06,0,0,1-4.888.286h-.13V-6.89h4.212V-9.932H60.06v.585h4.251v1.9H60.1V-4.2h.806a27.231,27.231,0,0,0,4.966-.286Zm-4.42,2.782H68.3V.936h.689V-2.873H61.373ZM68.3-10.634v1.781h-2.5v.585h2.5v1.755h-2.5v.585h2.5v2.379h.689v-7.085Zm6.162.91v.585h4.511C78.806-6.89,76.9-5.161,74-4.264l.286.572c3.315-1.014,5.447-3.172,5.447-6.032ZM79.248.3c-1.807,0-3-.624-3-1.586s1.2-1.6,3-1.6c1.833,0,3.029.624,3.029,1.6S81.081.3,79.248.3Zm0-3.757c-2.249,0-3.679.806-3.679,2.171S77,.858,79.248.858c2.275,0,3.705-.793,3.705-2.145S81.523-3.458,79.248-3.458Zm3.575-4.017v-3.159h-.689V-3.6h.689V-6.89H84.63v-.585Zm9.815-1.69H89.5v-1.482h-.689v1.482H85.683v.585h6.955Zm-5.486,3.51c0-.923.806-1.56,2.015-1.56s2.015.637,2.015,1.56-.819,1.56-2.015,1.56S87.152-4.745,87.152-5.655ZM89.5-3.562c1.4-.117,2.327-.9,2.327-2.093,0-1.3-1.079-2.119-2.665-2.119s-2.652.819-2.652,2.119c0,1.2.91,1.976,2.3,2.093v1.443c-1.2.052-2.34.052-3.328.052l.13.6a45.261,45.261,0,0,0,7.345-.455l-.052-.533c-1.079.169-2.249.247-3.406.312ZM96.369-5.6h-2v-5.031h-.689V.9h.689v-5.9h2Zm10.556-4.056h-3v-1.105h-.689v1.105h-3v.533h6.695ZM101.6-7.137c0-.637.793-1.04,1.976-1.04s1.976.4,1.976,1.04c0,.6-.793,1.014-1.976,1.014S101.6-6.539,101.6-7.137ZM107.3-5.1c-1.079.143-2.249.247-3.38.3v-.845c1.391-.078,2.262-.624,2.262-1.5,0-.962-1.027-1.534-2.613-1.534s-2.626.572-2.626,1.534c0,.871.884,1.417,2.288,1.5v.871c-1.183.039-2.327.039-3.289.039l.091.559a44.6,44.6,0,0,0,7.319-.442Zm-5.109,4.03h6.591V-3.237h-7.293V-2.7h6.63v1.131h-6.6V.741h7.735V.208h-7.059Zm6.591-6.474v-3.094H108.1v6.825h.689V-6.955h1.833V-7.54Zm8.1,7.865c-1.976,0-3.237-.559-3.237-1.5s1.261-1.495,3.237-1.495,3.237.559,3.237,1.495S118.859.325,116.883.325Zm0-3.549c-2.444,0-3.926.741-3.926,2.054S114.439.884,116.883.884s3.926-.728,3.926-2.054S119.327-3.224,116.883-3.224Zm.325-1.573V-6.344h3.653v-.585h-7.176V-9.516h7.085V-10.1h-7.761v3.757h3.523V-4.8H111.67v.585h10.439V-4.8Z" transform="translate(466.336 506.83)"/>
  <path id="패스_23700" data-name="패스 23700" d="M3.445-3.952a.686.686,0,0,0,.676-.7.673.673,0,0,0-.676-.715.671.671,0,0,0-.663.715A.683.683,0,0,0,3.445-3.952ZM18.551-9.009a10.286,10.286,0,0,1-.312,2.938l.663.091a10.846,10.846,0,0,0,.312-3.029v-1H11.44v.585h7.111ZM15.353.312c-1.963,0-3.289-.6-3.289-1.521s1.326-1.534,3.289-1.534,3.3.611,3.3,1.534S17.316.312,15.353.312Zm0-3.614c-2.444,0-3.978.78-3.978,2.093S12.909.871,15.353.871,19.331.1,19.331-1.209,17.8-3.3,15.353-3.3Zm.039-1.833v-2.34H14.7v2.34H10.179v.585H20.592v-.585ZM27.079.325c-1.976,0-3.237-.559-3.237-1.5S25.1-2.665,27.079-2.665s3.237.559,3.237,1.495S29.055.325,27.079.325Zm0-3.549c-2.444,0-3.926.741-3.926,2.054S24.635.884,27.079.884,31.005.156,31.005-1.17,29.523-3.224,27.079-3.224ZM27.4-4.8V-6.344h3.653v-.585H23.881V-9.516h7.085V-10.1H23.2v3.757h3.523V-4.8H21.866v.585H32.305V-4.8Zm9.23-4.3v.585h3.783a7.418,7.418,0,0,1-4.147,6.37l.416.507A8.081,8.081,0,0,0,41.093-9.1Zm8.619-1.534v4.81H43.342v-4.5h-.663V.286h.663V-5.239h1.911V.91h.663V-10.634ZM53-5.733H49.14V-7.787H53Zm.676-4.459H53v1.833H49.14v-1.833h-.689v5.031h5.226ZM50.323-1.4h6.461V-3.991H49.621v.559h6.487v1.469H49.647v2.7h7.6V.169H50.323Zm6.461-6.6v-2.639H56.1v6.032h.689v-2.8h1.794v-.6ZM71.409-6.877H64.233V-9.5h7.085v-.585H63.557v3.8h7.852ZM67.431.312c-1.976,0-3.237-.559-3.237-1.495s1.261-1.5,3.237-1.5,3.237.559,3.237,1.5S69.407.312,67.431.312Zm0-3.549c-2.444,0-3.926.741-3.926,2.054S64.987.871,67.431.871s3.926-.728,3.926-2.054S69.875-3.237,67.431-3.237ZM62.218-5.005v.585H72.657v-.585Zm20.995.13a3.874,3.874,0,0,1-2.925-3.354V-8.58h2.717v-.572H80.3v-1.56h-.689v1.56H76.869v.572h2.743v.351a4.114,4.114,0,0,1-3.016,3.6l.351.546a4.9,4.9,0,0,0,3.016-2.834,4.791,4.791,0,0,0,2.912,2.6ZM79-2.626h5.746V.143H79ZM78.325.728h7.111V-3.185H78.325Zm8.918-8.307H85.436v-3.055h-.689V-3.77h.689V-6.994h1.807Zm6.669,3.341a6.655,6.655,0,0,0,.169-1.5,6.76,6.76,0,0,0-.195-1.612h3.068v3.107ZM91.273-2.366c-1.274,0-2.158-1.4-2.158-3.367S90-9.087,91.273-9.087s2.158,1.378,2.158,3.354S92.547-2.366,91.273-2.366Zm5.681-8.268v2.7H93.678A2.6,2.6,0,0,0,91.273-9.7c-1.651,0-2.808,1.56-2.808,3.965s1.157,3.965,2.808,3.965A2.654,2.654,0,0,0,93.73-3.653h3.224V.91h.689V-10.634Zm12.571,1.17h-3v-1.274h-.689v1.274h-3.016v.546h6.708Zm-5.33,2.795c0-.715.793-1.2,1.976-1.2s1.976.481,1.976,1.2-.793,1.183-1.976,1.183S104.195-5.954,104.195-6.669ZM109.9-4.355a31.668,31.668,0,0,1-3.38.325v-.962c1.378-.091,2.262-.689,2.262-1.677,0-1.053-1.04-1.7-2.613-1.7s-2.626.65-2.626,1.7c0,.988.884,1.586,2.288,1.677V-4c-1.183.039-2.327.039-3.289.039l.1.585a42.144,42.144,0,0,0,7.306-.455Zm-5.967,2.613h6.76V.91h.689V-2.314h-7.449Zm9.282-5.291h-1.833v-3.588h-.689v7.657h.689V-6.435h1.833Zm2.2,4.342V-8.606h3.627v-.6h-4.3v7.111h.715a18.755,18.755,0,0,0,4.381-.364l-.091-.6a17.165,17.165,0,0,1-4.3.364Zm7.917-7.943v4.745h-1.989v-4.459h-.663V.273h.663V-5.3h1.989V.9h.676V-10.634Z" transform="translate(466.336 528.826)"/>
  <g id="그룹_168" data-name="그룹 168" transform="translate(-5826.44 -1779.1)">
    <path id="패스_374" data-name="패스 374" class="cls-9" d="M6397.742,2137.4a40.635,40.635,0,1,1-40.635-40.634,40.635,40.635,0,0,1,40.635,40.634"/>
    <path id="패스_377" data-name="패스 377" class="cls-5" d="M6356.262,2134.916"/>
  </g>
  <path id="패스_23653" data-name="패스 23653" d="M4.305.209c2.169,0,3.952-1.253,3.952-3.39A2.994,2.994,0,0,0,5.816-6.137v-.08A2.858,2.858,0,0,0,7.856-9c0-1.96-1.494-3.052-3.615-3.052a4.983,4.983,0,0,0-3.39,1.43l.964,1.157a3.462,3.462,0,0,1,2.362-1.125A1.655,1.655,0,0,1,5.992-8.868c0,1.189-.771,2.072-3.1,2.072V-5.43c2.667,0,3.5.851,3.5,2.169A1.985,1.985,0,0,1,4.145-1.3a3.821,3.821,0,0,1-2.8-1.3L.45-1.414A4.908,4.908,0,0,0,4.305.209Z" transform="translate(526.088 344.087)"/>
  <path id="패스_23701" data-name="패스 23701" class="cls-7" d="M11.856-7.472a13.682,13.682,0,0,0,.4-3.84v-1.216H2.336V-11.2h8.288a12.886,12.886,0,0,1-.384,3.552ZM7.3-.032C5.152-.032,3.84-.56,3.84-1.472,3.84-2.368,5.152-2.9,7.3-2.9c2.128,0,3.408.528,3.408,1.424C10.7-.56,9.424-.032,7.3-.032Zm0-4.128c-3.12,0-5.088,1.024-5.088,2.688,0,1.68,1.968,2.7,5.088,2.7,3.072,0,5.056-1.024,5.056-2.7C12.352-3.136,10.368-4.16,7.3-4.16Zm.32-2.448V-9.264H5.952v2.656H.832V-5.28H13.856V-6.608Zm15.36-2.976V-8.24h2.56v3.632h1.648v-8.608H25.536v3.632Zm.832,3.216a4.739,4.739,0,0,1-3.392-4.352v-.192h3.008V-12.24H15.7v1.328h3.056v.208A5.073,5.073,0,0,1,15.216-6l.848,1.312A5.98,5.98,0,0,0,19.632-8.16a5.644,5.644,0,0,0,3.36,3.088ZM22.384-.032c-2.064,0-3.232-.512-3.232-1.456s1.168-1.456,3.232-1.456c2.032,0,3.216.512,3.216,1.456S24.416-.032,22.384-.032Zm0-4.192c-3.024,0-4.88,1.024-4.88,2.736,0,1.728,1.856,2.736,4.88,2.736,3.008,0,4.864-1.008,4.864-2.736C27.248-3.2,25.392-4.224,22.384-4.224ZM30.176-11.7v1.344H35.2c-.272,3.28-1.9,5.824-5.664,7.68l.88,1.28c4.9-2.432,6.464-6.064,6.464-10.3Zm9.744-1.52v5.68h-3.1v1.36h3.1V1.248h1.664V-13.216Zm6.128,6.8h3.808v-5.312H44.432v1.344h3.84v2.64H44.464v5.632h.976A29.26,29.26,0,0,0,50.752-2.5L50.608-3.84a28.665,28.665,0,0,1-4.56.368Zm8.72-6.8v5.584H53.056v-5.3H51.5V.512h1.552v-6.8h1.712v7.5h1.568V-13.216Z" transform="translate(697.04 459.831)"/>
  <path id="패스_23702" data-name="패스 23702" d="M9.633-6.071a11.117,11.117,0,0,0,.325-3.12v-.988H1.9V-9.1H8.632A10.47,10.47,0,0,1,8.32-6.214ZM5.928-.026C4.186-.026,3.12-.455,3.12-1.2S4.186-2.353,5.928-2.353,8.7-1.924,8.7-1.2,7.657-.026,5.928-.026Zm0-3.354c-2.535,0-4.134.832-4.134,2.184S3.393,1,5.928,1c2.5,0,4.108-.832,4.108-2.2S8.424-3.38,5.928-3.38Zm.26-1.989V-7.527H4.836v2.158H.676V-4.29H11.258V-5.369ZM18.616-7.787v1.092H20.7v2.951h1.339v-6.994H20.7v2.951Zm.676,2.613A3.85,3.85,0,0,1,16.536-8.71v-.156H18.98V-9.945H12.7v1.079h2.483V-8.7a4.122,4.122,0,0,1-2.873,3.822L13-3.809A4.858,4.858,0,0,0,15.9-6.63a4.586,4.586,0,0,0,2.73,2.509ZM18.135-.026c-1.677,0-2.626-.416-2.626-1.183s.949-1.183,2.626-1.183c1.651,0,2.613.416,2.613,1.183S19.786-.026,18.135-.026Zm0-3.406c-2.457,0-3.965.832-3.965,2.223s1.508,2.223,3.965,2.223,3.952-.819,3.952-2.223S20.579-3.432,18.135-3.432ZM24.414-9.5v1.092H28.5c-.221,2.665-1.547,4.732-4.6,6.24l.715,1.04A8.6,8.6,0,0,0,29.861-9.5Zm7.917-1.235v4.615H29.809v1.1h2.522V1.014h1.352V-10.738Zm4.927,5.525h3.094V-9.529H35.945v1.092h3.12v2.145H35.971v4.576h.793a23.774,23.774,0,0,0,4.316-.312L40.963-3.12a23.29,23.29,0,0,1-3.705.3Zm7.085-5.525V-6.2H42.952v-4.3H41.691V.416h1.261V-5.109h1.391v6.1h1.274V-10.738ZM57.8-7.046H52.507V-9.152H57.8Zm1.313-3.172H51.194V-5.98h7.917Zm-6.63,7.605H51.142V.78h8.164V-.312H52.481Zm-2.639-2.21v1.079H54.6v2.2h1.339v-2.2h4.55V-4.823ZM68.549-9.386H65.741v-1.326H64.4v1.326H61.568v1.079h6.981ZM63.518-5.525c0-.728.637-1.17,1.56-1.17s1.547.442,1.547,1.17S66-4.368,65.078-4.368,63.518-4.81,63.518-5.525Zm2.223,2.132a2.238,2.238,0,0,0,2.145-2.132c0-1.326-1.144-2.2-2.808-2.2s-2.821.871-2.821,2.2A2.247,2.247,0,0,0,64.4-3.393v1.144c-1.092.039-2.145.039-3.042.039l.182,1.105a42.84,42.84,0,0,0,7.241-.468l-.1-.988c-.936.143-1.937.208-2.938.26Zm6.617-2.444H70.681v-4.914H69.342V1h1.339V-4.732h1.677ZM82.667-9.75H80v-1.092H78.65V-9.75H75.959v.975h6.708ZM77.779-6.656c0-.533.6-.858,1.534-.858s1.534.325,1.534.858-.6.832-1.534.832S77.779-6.136,77.779-6.656ZM82.992-4.5c-.949.143-1.976.208-2.99.26v-.728c1.3-.156,2.106-.767,2.106-1.69,0-1.092-1.1-1.755-2.795-1.755s-2.795.663-2.795,1.755c0,.923.806,1.547,2.132,1.69v.78c-1.079.026-2.106.026-2.99.026l.156,1.066a44.26,44.26,0,0,0,7.28-.468ZM77.116-1.209h6.5V1.014h1.339V-2.275H77.116Zm9.451-6.058H84.955v-3.458H83.616V-2.8h1.339V-6.162h1.612Zm7.956,1.352a29.408,29.408,0,0,1-5.187.351v-1.3h4.017v-3.328H87.984V-9.1H92.04v1.222H88.01v3.406H89a33.38,33.38,0,0,0,5.681-.351ZM95.758-.221H90.727V-1.443h5.031Zm0-2.275H90.727V-3.7H89.388V.858h7.7V-3.7H95.758Zm-.013-8.242v6.487h1.339v-6.487Z" transform="translate(675.982 481.831)"/>
  <path id="패스_23703" data-name="패스 23703" d="M3.445-3.952a.686.686,0,0,0,.676-.7.673.673,0,0,0-.676-.715.671.671,0,0,0-.663.715A.683.683,0,0,0,3.445-3.952Zm7.1.611L13.117-7.1c.273-.429.533-.884.754-1.313h.065c-.039.442-.078,1.144-.078,1.573v3.5Zm5.395,0H14.6V-9.477h-.741L9.672-3.185V-2.7h4.186V0H14.6V-2.7h1.339Zm2.08.65V-8.606h3.627v-.6h-4.3v7.111h.715a18.755,18.755,0,0,0,4.381-.364l-.091-.6a17.165,17.165,0,0,1-4.3.364Zm7.917-7.943v4.745H23.946v-4.459h-.663V.273h.663V-5.3h1.989V.9h.676V-10.634ZM31.863-9.36v.585h4.524C36.205-5.967,34.5-3.5,31.382-1.95l.39.546c3.666-1.833,5.291-4.81,5.291-7.956ZM41.99-5.8h-2v-4.836H39.3V.91h.689V-5.2h2Zm9.594-4.836V.91h.689V-10.634ZM46.267-9.7c-1.69,0-2.873,1.56-2.873,3.965s1.183,3.965,2.873,3.965,2.86-1.547,2.86-3.965S47.944-9.7,46.267-9.7Zm0,.611c1.287,0,2.2,1.378,2.2,3.354s-.91,3.367-2.2,3.367-2.21-1.391-2.21-3.367S44.967-9.087,46.267-9.087ZM63.8-4.966H56.68V-8.918h7.007V-9.5H56v5.122h7.8ZM54.6-1.352v.585H65.078v-.585Zm12.857-1.17V-5.577H71.9V-9.516H66.742v.6h4.485v2.743H66.781v4.238h.884a28.6,28.6,0,0,0,5.655-.429l-.065-.6a26.924,26.924,0,0,1-5.59.442ZM77.116-5.9H75.088v-4.732H74.4V.923h.689v-6.24h2.028ZM87.4-10.621H86.71v8.515H87.4ZM79-7.007a2.172,2.172,0,0,1,2.262-2.171,2.172,2.172,0,0,1,2.262,2.171,2.185,2.185,0,0,1-2.262,2.2A2.185,2.185,0,0,1,79-7.007Zm5.187,0a2.75,2.75,0,0,0-2.925-2.782,2.75,2.75,0,0,0-2.925,2.782A2.763,2.763,0,0,0,81.263-4.2,2.763,2.763,0,0,0,84.188-7.007ZM80.834.039V-3h-.689V.624h7.644V.039ZM97.539-9.724c1.95,0,3.276.676,3.276,1.69s-1.326,1.69-3.276,1.69c-1.924,0-3.25-.676-3.25-1.69S95.615-9.724,97.539-9.724Zm0,3.965c2.431,0,3.991-.871,3.991-2.275S99.97-10.3,97.539-10.3c-2.4,0-3.965.858-3.965,2.262S95.134-5.759,97.539-5.759ZM94.406-2.691H93.73V.624h7.917v-.6H94.406ZM92.313-4.628v.585h4.992v2.561h.689V-4.043h4.81v-.585ZM109.252.325c-1.976,0-3.237-.546-3.237-1.469s1.261-1.469,3.237-1.469,3.237.559,3.237,1.469S111.228.325,109.252.325Zm0-3.484c-2.457,0-3.926.715-3.926,2.015S106.795.884,109.252.884s3.926-.728,3.926-2.028S111.709-3.159,109.252-3.159Zm-1.82-3.211a9.287,9.287,0,0,0,1.807.169A9.753,9.753,0,0,0,111.1-6.37V-4.8h-3.666Zm-1.469-1.937c0-.949,1.287-1.534,3.276-1.534,2.015,0,3.3.585,3.3,1.534s-1.287,1.547-3.3,1.547C107.25-6.76,105.963-7.358,105.963-8.307Zm5.811,3.51V-6.578a1.889,1.889,0,0,0,1.469-1.729c0-1.339-1.521-2.093-4-2.093s-3.978.754-3.978,2.093a1.905,1.905,0,0,0,1.482,1.742V-4.8h-2.7v.585h10.426V-4.8Z" transform="translate(661.994 506.83)"/>
  <path id="패스_23704" data-name="패스 23704" d="M3.445-3.952a.686.686,0,0,0,.676-.7.673.673,0,0,0-.676-.715.671.671,0,0,0-.663.715A.683.683,0,0,0,3.445-3.952Zm10.517-.3h2.821v3.094H13.962Zm-.208-4.641h3.211v4.056H13.754Zm3.718,7.735V-4.251h2.106v-.585H17.654V-8.892h1.924v-.585H11.141v.585h1.937v4.056H11.154v.585h2.119v3.094H10.166v.585H20.644v-.585Zm5.4-4.459c1.664-.286,3.6-1.209,4.212-2.652C27.7-6.838,29.64-5.9,31.291-5.616l.273-.559c-1.742-.273-4.069-1.43-4.069-3.068v-.195h3.861v-.572H22.828v.572h3.861v.195c0,1.651-2.327,2.8-4.095,3.068Zm1.066,2.99h-.689V.624h7.917V.039H23.933ZM21.84-4.589v.572h4.94V-1.43h.689V-4.017h4.862v-.572Zm17.784,2.2a1.993,1.993,0,0,1-2.093-2,1.986,1.986,0,0,1,2.093-2,1.993,1.993,0,0,1,2.093,2A2,2,0,0,1,39.624-2.392Zm0-4.6a2.573,2.573,0,0,0-2.743,2.6,2.556,2.556,0,0,0,2.743,2.587,2.556,2.556,0,0,0,2.743-2.587A2.573,2.573,0,0,0,39.624-6.994Zm.325-3.536H39.26v1.807H36.114v.585h6.864v-.585H39.949ZM47-5.746H44.967v-4.9h-.689V.9h.689V-5.161H47Zm6.448,4.524V-4.511h3.64V-5.1H49.972V-9.061h6.994v-.585H49.283v5.135h3.471v3.289H47.879v.585H58.357v-.585ZM67.964.156H61.7V-1.729h6.266Zm0-2.457H61.7V-4.017h-.689V.741H68.64V-4.017h-.676Zm.338-3.51a14.959,14.959,0,0,0,.325-3.471v-.793H60.944v.585h7.02v.208A13.457,13.457,0,0,1,67.6-5.811H59.592v.585H70.057v-.585ZM80.717-7.345H78.663a10.056,10.056,0,0,0,.169-1.768H74.425v.585h3.731a8.037,8.037,0,0,1-4.147,6.383l.429.507A8.757,8.757,0,0,0,78.507-6.76h2.21v2.327H78.325v.585h2.392V.273h.663V-10.309h-.663Zm2.288-3.289V.91h.663V-10.634Zm3.588,3.393a2.119,2.119,0,0,1,2.262-2.093,2.112,2.112,0,0,1,2.262,2.093,2.109,2.109,0,0,1-2.262,2.08A2.117,2.117,0,0,1,86.593-7.241Zm5.2,0a2.692,2.692,0,0,0-2.938-2.691A2.681,2.681,0,0,0,85.93-7.241a2.669,2.669,0,0,0,2.925,2.665A2.68,2.68,0,0,0,91.793-7.241ZM87.139-2.574h6.695V.91h.689V-3.159H87.139Zm9.178-5.564v-.6H94.523v-1.911h-.689v6.89h.689V-5.681h1.794v-.585H94.523V-8.138Zm8.853-1.586c1.95,0,3.276.676,3.276,1.69s-1.326,1.69-3.276,1.69c-1.924,0-3.25-.676-3.25-1.69S103.246-9.724,105.17-9.724Zm0,3.965c2.431,0,3.991-.871,3.991-2.275S107.6-10.3,105.17-10.3c-2.4,0-3.965.858-3.965,2.262S102.765-5.759,105.17-5.759Zm-3.133,3.068h-.676V.624h7.917v-.6h-7.241ZM99.944-4.628v.585h4.992v2.561h.689V-4.043h4.81v-.585ZM116.883.325c-1.976,0-3.237-.546-3.237-1.469s1.261-1.469,3.237-1.469,3.237.559,3.237,1.469S118.859.325,116.883.325Zm0-3.484c-2.457,0-3.926.715-3.926,2.015S114.426.884,116.883.884s3.926-.728,3.926-2.028S119.34-3.159,116.883-3.159Zm-1.82-3.211a9.287,9.287,0,0,0,1.807.169,9.753,9.753,0,0,0,1.859-.169V-4.8h-3.666Zm-1.469-1.937c0-.949,1.287-1.534,3.276-1.534,2.015,0,3.3.585,3.3,1.534s-1.287,1.547-3.3,1.547C114.881-6.76,113.594-7.358,113.594-8.307ZM119.4-4.8V-6.578a1.889,1.889,0,0,0,1.469-1.729c0-1.339-1.521-2.093-4-2.093s-3.978.754-3.978,2.093a1.905,1.905,0,0,0,1.482,1.742V-4.8h-2.7v.585H122.1V-4.8Z" transform="translate(661.994 528.826)"/>
  <g id="그룹_169" data-name="그룹 169" transform="translate(-5826.44 -1779.1)">
    <path id="패스_379" data-name="패스 379" class="cls-9" d="M6593.075,2137.4a40.635,40.635,0,1,1-40.635-40.634,40.635,40.635,0,0,1,40.635,40.634"/>
    <path id="패스_381" data-name="패스 381" class="cls-5" d="M6553.028,2161.542"/>
  </g>
  <path id="패스_23654" data-name="패스 23654" d="M2.185-4.611,4.514-8.177c.337-.61.659-1.221.948-1.815h.064c-.032.643-.1,1.639-.1,2.281v3.1Zm6.49,0H7.165v-7.213H5.028L.321-4.418v1.237H5.43V0H7.165V-3.181h1.51Z" transform="translate(721.422 344.087)"/>
  <line id="선_438" data-name="선 438" class="cls-4" y2="42" transform="translate(418 88.397)"/>
  <line id="선_439" data-name="선 439" class="cls-10" y2="20" transform="translate(418 269.55)"/>
  <line id="선_440" data-name="선 440" class="cls-10" y2="20" transform="translate(418 110.397)"/>
  <g id="그룹_18307" data-name="그룹 18307" transform="translate(102.56 385.348)">
    <path id="패스_18711" data-name="패스 18711" class="cls-11" d="M21.99-25.3h8.559v13.763H21.99Z"/>
    <g id="그룹_18280" data-name="그룹 18280" transform="translate(11.739 -11.539)">
      <path id="패스_18712" data-name="패스 18712" class="cls-11" d="M0,0V-18.7H10.644V0Z"/>
    </g>
    <g id="그룹_18281" data-name="그룹 18281" transform="translate(14.79 -24.299)">
      <path id="패스_18713" data-name="패스 18713" class="cls-11" d="M0,0V-2.464H2.474"/>
    </g>
    <g id="그룹_18282" data-name="그룹 18282" transform="translate(14.79 -19.407)">
      <path id="패스_18714" data-name="패스 18714" class="cls-11" d="M0,0V-2.464H2.474"/>
    </g>
    <path id="패스_18715" data-name="패스 18715" class="cls-12" d="M20.573-26.01h8.559v13.763H20.573Z"/>
    <g id="그룹_18283" data-name="그룹 18283" transform="translate(10.321 -12.247)">
      <path id="패스_18716" data-name="패스 18716" class="cls-5" d="M0,0V-18.7H10.644V0Z"/>
    </g>
    <g id="그룹_18285" data-name="그룹 18285" class="cls-13">
      <g id="그룹_18284" data-name="그룹 18284" transform="translate(10.321 -12.247)">
        <path id="패스_18717" data-name="패스 18717" class="cls-14" d="M0,0V-18.7H10.644V0Z"/>
      </g>
    </g>
    <g id="그룹_18286" data-name="그룹 18286" transform="translate(12.873 -25.007)">
      <path id="패스_18719" data-name="패스 18719" class="cls-12" d="M0,0V-2.964H2.974"/>
    </g>
    <g id="그룹_18287" data-name="그룹 18287" transform="translate(12.873 -20.116)">
      <path id="패스_18720" data-name="패스 18720" class="cls-12" d="M0,0V-2.964H2.974"/>
    </g>
    <g id="그룹_18291" data-name="그룹 18291" class="cls-13">
      <g id="그룹_18288" data-name="그룹 18288" transform="translate(35.73 -16.773)">
        <path id="패스_18721" data-name="패스 18721" class="cls-6" d="M0,0-.44,7.079S-4.1,11.5-3.738,12.757l-7.328.052L-7.7,4.572Z"/>
      </g>
      <g id="그룹_18289" data-name="그룹 18289" transform="translate(35.129 -17.759)">
        <path id="패스_18722" data-name="패스 18722" class="cls-6" d="M0,0V-7.268S0-9.982,1.88-9.982,4.325-8.535,4.325-6.906v7.6A9.617,9.617,0,0,1,2.444,6.123c-2.209,2.6-5.829,5.066-6.017,7.962"/>
      </g>
      <g id="그룹_18290" data-name="그룹 18290" transform="translate(30.989 -11.742)">
        <path id="패스_18723" data-name="패스 18723" class="cls-6" d="M0,0,3.5-3.475s2.212-1.83.369-3.476S-.184-5.488-.184-5.488L-3.5-2.012S-6.452.366-6.452,2.927V8.6"/>
      </g>
    </g>
    <path id="패스_18725" data-name="패스 18725" class="cls-6" d="M22.473,0h11.58V-4.412H22.473Z"/>
    <g id="그룹_18295" data-name="그룹 18295" class="cls-13">
      <g id="그룹_18292" data-name="그룹 18292" transform="translate(5.589 -16.773)">
        <path id="패스_18726" data-name="패스 18726" class="cls-6" d="M0,0,.44,7.079S4.1,11.5,3.738,12.757l7.328.052L7.7,4.572Z"/>
      </g>
      <g id="그룹_18293" data-name="그룹 18293" transform="translate(6.189 -17.759)">
        <path id="패스_18727" data-name="패스 18727" class="cls-6" d="M0,0V-7.268S0-9.982-1.88-9.982-4.325-8.535-4.325-6.906v7.6A9.617,9.617,0,0,0-2.444,6.123c2.209,2.6,5.829,5.066,6.017,7.962"/>
      </g>
      <g id="그룹_18294" data-name="그룹 18294" transform="translate(10.329 -11.742)">
        <path id="패스_18728" data-name="패스 18728" class="cls-6" d="M0,0-3.5-3.475S-5.714-5.3-3.871-6.951.184-5.488.184-5.488L3.5-2.012S6.452.366,6.452,2.927V8.6"/>
      </g>
    </g>
    <path id="패스_18730" data-name="패스 18730" class="cls-6" d="M7.265,0h11.58V-4.412H7.265Z"/>
    <g id="그룹_18300" data-name="그룹 18300" class="cls-13">
      <g id="그룹_18296" data-name="그룹 18296" transform="translate(34.058 -17.308)">
        <path id="패스_18731" data-name="패스 18731" class="cls-5" d="M0,0-.425,6.851s-3.539,4.282-3.185,5.495l-7.079.05,3.257-7.971Z"/>
      </g>
      <g id="그룹_18297" data-name="그룹 18297" transform="translate(34.058 -17.308)">
        <path id="패스_18732" data-name="패스 18732" class="cls-15" d="M0,0-.425,6.851s-3.539,4.282-3.185,5.495l-7.079.05,3.257-7.971Z"/>
      </g>
      <g id="그룹_18298" data-name="그룹 18298" transform="translate(33.633 -18.478)">
        <path id="패스_18733" data-name="패스 18733" class="cls-16" d="M0,0V-7.222s0-2.7,1.811-2.7S4.166-8.48,4.166-6.862V.69A9.765,9.765,0,0,1,2.355,6.084c-2.129,2.588-5.615,5.034-5.8,7.911"/>
      </g>
      <g id="그룹_18299" data-name="그룹 18299" transform="translate(29.456 -12.465)">
        <path id="패스_18734" data-name="패스 18734" class="cls-16" d="M0,0,3.41-3.444s2.154-1.813.359-3.444S-.18-5.438-.18-5.438L-3.41-1.994S-6.282.363-6.282,2.9V8.519"/>
      </g>
    </g>
    <path id="패스_18736" data-name="패스 18736" class="cls-5" d="M21.109-.946H32.4V-5.067H21.109Z"/>
    <g id="그룹_18305" data-name="그룹 18305" class="cls-13">
      <path id="패스_18737" data-name="패스 18737" class="cls-15" d="M32.4-.946H21.109V-5.068H32.4Z"/>
      <g id="그룹_18301" data-name="그룹 18301" transform="translate(4.241 -17.308)">
        <path id="패스_18738" data-name="패스 18738" class="cls-5" d="M0,0,.425,6.851s3.539,4.282,3.185,5.495l7.079.05L7.432,4.425Z"/>
      </g>
      <g id="그룹_18302" data-name="그룹 18302" transform="translate(4.241 -17.308)">
        <path id="패스_18739" data-name="패스 18739" class="cls-15" d="M0,0,.425,6.851s3.539,4.282,3.185,5.495l7.079.05L7.432,4.425Z"/>
      </g>
      <g id="그룹_18303" data-name="그룹 18303" transform="translate(4.666 -18.478)">
        <path id="패스_18740" data-name="패스 18740" class="cls-16" d="M0,0V-7.222s0-2.7-1.811-2.7S-4.166-8.48-4.166-6.862V.69A9.765,9.765,0,0,0-2.355,6.084c2.129,2.588,5.616,5.034,5.8,7.911"/>
      </g>
      <g id="그룹_18304" data-name="그룹 18304" transform="translate(8.843 -12.465)">
        <path id="패스_18741" data-name="패스 18741" class="cls-16" d="M0,0-3.41-3.444s-2.154-1.813-.359-3.444S.18-5.438.18-5.438L3.41-1.994S6.282.363,6.282,2.9V8.519"/>
      </g>
    </g>
    <path id="패스_18743" data-name="패스 18743" class="cls-5" d="M5.9-.946H17.19V-5.067H5.9Z"/>
    <g id="그룹_18306" data-name="그룹 18306" class="cls-13">
      <path id="패스_18744" data-name="패스 18744" class="cls-15" d="M5.9-.946h11.29V-5.068H5.9Z"/>
    </g>
  </g>
  <g id="그룹_18323" data-name="그룹 18323" transform="translate(318.56 387.147)">
    <path id="패스_18746" data-name="패스 18746" class="cls-6" d="M1.417,0H18.142V-10.346H1.417Z"/>
    <path id="패스_18747" data-name="패스 18747" class="cls-6" d="M17.15,0H33.875V-16.255H17.15Z"/>
    <g id="그룹_18312" data-name="그룹 18312" class="cls-17">
      <g id="그룹_18308" data-name="그룹 18308" transform="translate(27.465 -31.343)">
        <path id="패스_18748" data-name="패스 18748" class="cls-6" d="M0,0A2.7,2.7,0,0,1-2.693,2.7,2.7,2.7,0,0,1-5.387,0,2.694,2.694,0,0,1-2.693-2.695,2.694,2.694,0,0,1,0,0"/>
      </g>
      <g id="그룹_18309" data-name="그룹 18309" transform="translate(19.239 -18.007)">
        <path id="패스_18749" data-name="패스 18749" class="cls-6" d="M0,0V-4.329A4.887,4.887,0,0,1,4.9-9.2H7.644a4.887,4.887,0,0,1,4.9,4.871V0Z"/>
      </g>
      <g id="그룹_18310" data-name="그룹 18310" transform="translate(10.995 -25.532)">
        <path id="패스_18750" data-name="패스 18750" class="cls-6" d="M0,0A2.694,2.694,0,0,1-2.693,2.695,2.694,2.694,0,0,1-5.387,0,2.7,2.7,0,0,1-2.693-2.7,2.7,2.7,0,0,1,0,0"/>
      </g>
      <g id="그룹_18311" data-name="그룹 18311" transform="translate(2.768 -12.196)">
        <path id="패스_18751" data-name="패스 18751" class="cls-6" d="M0,0V-4.329A4.887,4.887,0,0,1,4.9-9.2H7.644a4.887,4.887,0,0,1,4.9,4.871V0Z"/>
      </g>
    </g>
    <path id="패스_18753" data-name="패스 18753" class="cls-5" d="M.5-1.209H16.224v-9.346H.5Z"/>
    <g id="그룹_18313" data-name="그룹 18313" class="cls-17">
      <path id="패스_18754" data-name="패스 18754" class="cls-15" d="M.5-1.209H16.224v-9.346H.5Z"/>
    </g>
    <path id="패스_18756" data-name="패스 18756" class="cls-5" d="M16.232-1.209H31.956V-16.464H16.232Z"/>
    <g id="그룹_18322" data-name="그룹 18322" class="cls-17">
      <path id="패스_18757" data-name="패스 18757" class="cls-15" d="M16.232-1.209H31.956V-16.464H16.232Z"/>
      <g id="그룹_18314" data-name="그룹 18314" transform="translate(26.757 -32.052)">
        <path id="패스_18758" data-name="패스 18758" class="cls-5" d="M0,0A2.7,2.7,0,0,1-2.693,2.7,2.7,2.7,0,0,1-5.387,0,2.694,2.694,0,0,1-2.693-2.695,2.694,2.694,0,0,1,0,0"/>
      </g>
      <g id="그룹_18315" data-name="그룹 18315" transform="translate(26.757 -32.052)">
        <path id="패스_18759" data-name="패스 18759" class="cls-15" d="M0,0A2.7,2.7,0,0,1-2.693,2.7,2.7,2.7,0,0,1-5.387,0,2.694,2.694,0,0,1-2.693-2.695,2.694,2.694,0,0,1,0,0Z"/>
      </g>
      <g id="그룹_18316" data-name="그룹 18316" transform="translate(17.821 -18.715)">
        <path id="패스_18760" data-name="패스 18760" class="cls-5" d="M0,0V-4.329A4.887,4.887,0,0,1,4.9-9.2H7.644a4.887,4.887,0,0,1,4.9,4.871V0Z"/>
      </g>
      <g id="그룹_18317" data-name="그룹 18317" transform="translate(17.821 -18.715)">
        <path id="패스_18761" data-name="패스 18761" class="cls-15" d="M0,0V-4.329A4.887,4.887,0,0,1,4.9-9.2H7.644a4.887,4.887,0,0,1,4.9,4.871V0Z"/>
      </g>
      <g id="그룹_18318" data-name="그룹 18318" transform="translate(10.286 -26.241)">
        <path id="패스_18762" data-name="패스 18762" class="cls-5" d="M0,0A2.694,2.694,0,0,1-2.693,2.695,2.694,2.694,0,0,1-5.387,0,2.7,2.7,0,0,1-2.693-2.7,2.7,2.7,0,0,1,0,0"/>
      </g>
      <g id="그룹_18319" data-name="그룹 18319" transform="translate(10.286 -26.241)">
        <path id="패스_18763" data-name="패스 18763" class="cls-15" d="M0,0A2.694,2.694,0,0,1-2.693,2.695,2.694,2.694,0,0,1-5.387,0,2.7,2.7,0,0,1-2.693-2.7,2.7,2.7,0,0,1,0,0Z"/>
      </g>
      <g id="그룹_18320" data-name="그룹 18320" transform="translate(1.35 -12.904)">
        <path id="패스_18764" data-name="패스 18764" class="cls-5" d="M0,0V-4.329A4.887,4.887,0,0,1,4.9-9.2H7.644a4.887,4.887,0,0,1,4.9,4.871V0Z"/>
      </g>
      <g id="그룹_18321" data-name="그룹 18321" transform="translate(1.35 -12.904)">
        <path id="패스_18765" data-name="패스 18765" class="cls-15" d="M0,0V-4.329A4.887,4.887,0,0,1,4.9-9.2H7.644a4.887,4.887,0,0,1,4.9,4.871V0Z"/>
      </g>
    </g>
  </g>
  <g id="그룹_18343" data-name="그룹 18343" transform="translate(511.56 387.684)">
    <g id="그룹_18342" data-name="그룹 18342" class="cls-18">
      <g id="그룹_18324" data-name="그룹 18324" transform="translate(19.387 -18.672)">
        <path id="패스_18767" data-name="패스 18767" class="cls-6" d="M0,0C1.1,2.57.46,4.152-2.111,5.248c-.275.116-.536.209-.788.287a12.011,12.011,0,0,0,.046,2.559A7.872,7.872,0,0,1-2,8.383C.593,9.426,1.26,10.994.217,13.586a7.954,7.954,0,0,1-.353.76,11.979,11.979,0,0,0,1.842,1.778,7.781,7.781,0,0,1,.807-.4c2.57-1.1,4.152-.459,5.247,2.111a7.406,7.406,0,0,1,.287.787,11.9,11.9,0,0,0,2.561-.044,7.66,7.66,0,0,1,.288-.853c1.043-2.592,2.611-3.261,5.2-2.219a7.735,7.735,0,0,1,.761.355,12.066,12.066,0,0,0,1.777-1.842,7.782,7.782,0,0,1-.4-.807c-1.1-2.57-.46-4.152,2.11-5.248a7.888,7.888,0,0,1,.788-.287,11.947,11.947,0,0,0-.045-2.559,7.886,7.886,0,0,1-.853-.289c-2.592-1.043-3.26-2.612-2.217-5.2a7.717,7.717,0,0,1,.353-.76,11.972,11.972,0,0,0-1.841-1.778,8.008,8.008,0,0,1-.808.4c-2.57,1.1-4.151.459-5.247-2.112a7.727,7.727,0,0,1-.288-.788,12.145,12.145,0,0,0-2.559.045,7.538,7.538,0,0,1-.289.853C6.3-1.921,4.731-1.253,2.14-2.3a8.084,8.084,0,0,1-.76-.354A12.034,12.034,0,0,0-.4-.807,7.493,7.493,0,0,1,0,0"/>
      </g>
      <g id="그룹_18325" data-name="그룹 18325" transform="translate(33.236 -12.065)">
        <path id="패스_18768" data-name="패스 18768" class="cls-6" d="M0,0A4.674,4.674,0,0,0-4.73-4.615,4.673,4.673,0,0,0-9.459,0,4.673,4.673,0,0,0-4.73,4.615,4.674,4.674,0,0,0,0,0"/>
      </g>
      <g id="그룹_18326" data-name="그룹 18326" transform="translate(15.263 -33)">
        <path id="패스_18769" data-name="패스 18769" class="cls-6" d="M0,0C-1.811.773-2.926.324-3.7-1.488a5.5,5.5,0,0,1-.2-.555,8.488,8.488,0,0,0-1.8.032,5.758,5.758,0,0,1-.2.6C-6.643.418-7.748.888-9.576.153A5.707,5.707,0,0,1-10.111-.1a8.519,8.519,0,0,0-1.254,1.3,5.485,5.485,0,0,1,.282.569c.772,1.812.323,2.927-1.488,3.7a5.564,5.564,0,0,1-.554.2,8.3,8.3,0,0,0,.031,1.805,5.533,5.533,0,0,1,.6.2c1.826.735,2.3,1.84,1.564,3.667a5.5,5.5,0,0,1-.251.537,8.514,8.514,0,0,0,1.3,1.252,5.806,5.806,0,0,1,.569-.281c1.811-.772,2.926-.324,3.7,1.488a5.422,5.422,0,0,1,.2.555,8.487,8.487,0,0,0,1.8-.031,5.489,5.489,0,0,1,.2-.6c.735-1.827,1.841-2.3,3.667-1.563a5.729,5.729,0,0,1,.536.249,8.413,8.413,0,0,0,1.253-1.3,5.608,5.608,0,0,1-.282-.57C1,9.273,1.447,8.159,3.259,7.386a5.5,5.5,0,0,1,.555-.2,8.488,8.488,0,0,0-.032-1.8,5.461,5.461,0,0,1-.6-.2C1.354,4.441.883,3.335,1.618,1.508A5.464,5.464,0,0,1,1.867.973,8.472,8.472,0,0,0,.569-.281,5.2,5.2,0,0,1,0,0"/>
      </g>
      <g id="그룹_18327" data-name="그룹 18327" transform="translate(10.607 -23.239)">
        <path id="패스_18770" data-name="패스 18770" class="cls-6" d="M0,0A3.294,3.294,0,0,0,3.253-3.333,3.3,3.3,0,0,0,0-6.667,3.3,3.3,0,0,0-3.253-3.333,3.294,3.294,0,0,0,0,0"/>
      </g>
      <g id="그룹_18328" data-name="그룹 18328" transform="translate(11.412 -12.635)">
        <path id="패스_18771" data-name="패스 18771" class="cls-6" d="M0,0C-1.473.629-2.38.264-3.008-1.21a4.76,4.76,0,0,1-.165-.452,6.851,6.851,0,0,0-1.468.027,4.257,4.257,0,0,1-.165.488C-5.4.34-6.3.722-7.789.124a4.564,4.564,0,0,1-.436-.2A6.89,6.89,0,0,0-9.244.978a4.441,4.441,0,0,1,.228.463c.629,1.473.264,2.38-1.209,3.008a4.573,4.573,0,0,1-.452.164,6.787,6.787,0,0,0,.026,1.468,4.474,4.474,0,0,1,.489.165c1.486.6,1.869,1.5,1.272,2.983a4.228,4.228,0,0,1-.2.436,6.934,6.934,0,0,0,1.056,1.019,4.541,4.541,0,0,1,.463-.228c1.473-.629,2.38-.264,3.008,1.21a4.253,4.253,0,0,1,.165.451,6.853,6.853,0,0,0,1.468-.025,4.206,4.206,0,0,1,.165-.489c.6-1.487,1.5-1.869,2.983-1.272a4.679,4.679,0,0,1,.436.2A6.881,6.881,0,0,0,1.669,9.479a4.668,4.668,0,0,1-.229-.464C.812,7.542,1.177,6.636,2.651,6.007A4.662,4.662,0,0,1,3.1,5.842a6.975,6.975,0,0,0-.026-1.467,4.335,4.335,0,0,1-.489-.165c-1.487-.6-1.87-1.5-1.272-2.983a4.562,4.562,0,0,1,.2-.436A6.942,6.942,0,0,0,.463-.229,4.25,4.25,0,0,1,0,0"/>
      </g>
      <g id="그룹_18329" data-name="그룹 18329" transform="translate(7.625 -4.695)">
        <path id="패스_18772" data-name="패스 18772" class="cls-6" d="M0,0A2.679,2.679,0,0,0,2.646-2.711,2.68,2.68,0,0,0,0-5.423,2.68,2.68,0,0,0-2.646-2.711,2.679,2.679,0,0,0,0,0"/>
      </g>
      <g id="그룹_18330" data-name="그룹 18330" transform="translate(19.138 -19.577)">
        <path id="패스_18773" data-name="패스 18773" class="cls-5" d="M0,0A4.594,4.594,0,0,1,.324,3.559,4.6,4.6,0,0,1-2.375,5.9c-.175.074-.345.139-.51.2a11.336,11.336,0,0,0,.033,1.805q.281.09.579.21A4.591,4.591,0,0,1,.472,10.4a4.6,4.6,0,0,1-.251,3.565c-.071.177-.144.343-.22.5a11.506,11.506,0,0,0,1.3,1.253c.175-.09.36-.177.558-.261a4.59,4.59,0,0,1,3.558-.323,4.591,4.591,0,0,1,2.344,2.7q.112.262.2.51a11.45,11.45,0,0,0,1.8-.031c.06-.188.129-.38.208-.579,1.147-2.848,3.007-3.641,5.854-2.5.178.072.345.146.5.222a11.666,11.666,0,0,0,1.252-1.3c-.09-.174-.176-.359-.261-.556A4.6,4.6,0,0,1,17,10.046a4.594,4.594,0,0,1,2.7-2.344c.176-.075.345-.14.511-.2a11.453,11.453,0,0,0-.032-1.8c-.188-.06-.38-.13-.579-.21-2.848-1.146-3.64-3.006-2.5-5.854.071-.176.145-.342.22-.5a11.488,11.488,0,0,0-1.3-1.253c-.175.09-.36.177-.557.261-2.824,1.2-4.7.449-5.9-2.375-.075-.175-.14-.345-.2-.511a11.677,11.677,0,0,0-1.8.032q-.09.282-.21.58C6.2-1.283,4.342-.49,1.493-1.635q-.264-.106-.5-.221A11.5,11.5,0,0,0-.261-.557C-.171-.382-.083-.2,0,0Z"/>
      </g>
      <g id="그룹_18331" data-name="그룹 18331" transform="translate(19.138 -19.577)">
        <path id="패스_18774" data-name="패스 18774" class="cls-15" d="M0,0A4.594,4.594,0,0,1,.324,3.559,4.6,4.6,0,0,1-2.375,5.9c-.175.074-.345.139-.51.2a11.336,11.336,0,0,0,.033,1.805q.281.09.579.21A4.591,4.591,0,0,1,.472,10.4a4.6,4.6,0,0,1-.251,3.565c-.071.177-.144.343-.22.5a11.506,11.506,0,0,0,1.3,1.253c.175-.09.36-.177.558-.261a4.59,4.59,0,0,1,3.558-.323,4.591,4.591,0,0,1,2.344,2.7q.112.262.2.51a11.45,11.45,0,0,0,1.8-.031c.06-.188.129-.38.208-.579,1.147-2.848,3.007-3.641,5.854-2.5.178.072.345.146.5.222a11.666,11.666,0,0,0,1.252-1.3c-.09-.174-.176-.359-.261-.556A4.6,4.6,0,0,1,17,10.046a4.594,4.594,0,0,1,2.7-2.344c.176-.075.345-.14.511-.2a11.453,11.453,0,0,0-.032-1.8c-.188-.06-.38-.13-.579-.21-2.848-1.146-3.64-3.006-2.5-5.854.071-.176.145-.342.22-.5a11.488,11.488,0,0,0-1.3-1.253c-.175.09-.36.177-.557.261-2.824,1.2-4.7.449-5.9-2.375-.075-.175-.14-.345-.2-.511a11.677,11.677,0,0,0-1.8.032q-.09.282-.21.58C6.2-1.283,4.342-.49,1.493-1.635q-.264-.106-.5-.221A11.5,11.5,0,0,0-.261-.557C-.171-.382-.083-.2,0,0Z"/>
      </g>
      <g id="그룹_18332" data-name="그룹 18332" transform="translate(32.028 -12.774)">
        <path id="패스_18775" data-name="패스 18775" class="cls-5" d="M0,0A4.178,4.178,0,0,0-4.23-4.115,4.178,4.178,0,0,0-8.459,0,4.178,4.178,0,0,0-4.23,4.115,4.178,4.178,0,0,0,0,0"/>
      </g>
      <g id="그룹_18333" data-name="그룹 18333" transform="translate(32.028 -12.774)">
        <path id="패스_18776" data-name="패스 18776" class="cls-15" d="M0,0A4.178,4.178,0,0,0-4.23-4.115,4.178,4.178,0,0,0-8.459,0,4.178,4.178,0,0,0-4.23,4.115,4.178,4.178,0,0,0,0,0Z"/>
      </g>
      <g id="그룹_18334" data-name="그룹 18334" transform="translate(14.751 -33.249)">
        <path id="패스_18777" data-name="패스 18777" class="cls-5" d="M0,0A3.37,3.37,0,0,1-2.622.229a3.379,3.379,0,0,1-1.733-1.98c-.04-.094-.076-.186-.109-.276a7.921,7.921,0,0,0-1.056.019c-.036.106-.076.214-.121.325A3.376,3.376,0,0,1-7.333.333,3.374,3.374,0,0,1-9.958.157c-.1-.038-.186-.077-.272-.117A8.012,8.012,0,0,0-10.964.8c.05.1.1.205.145.315a3.376,3.376,0,0,1,.228,2.621,3.372,3.372,0,0,1-1.98,1.733c-.094.04-.185.076-.275.11a7.765,7.765,0,0,0,.018,1.056c.106.035.213.075.324.119,2.073.835,2.675,2.247,1.843,4.319-.039.095-.078.186-.119.273a8,8,0,0,0,.761.733c.1-.049.2-.1.313-.144a3.378,3.378,0,0,1,2.623-.23A3.384,3.384,0,0,1-5.35,13.687c.04.094.076.186.109.276a7.931,7.931,0,0,0,1.056-.019c.036-.106.076-.214.12-.325.834-2.072,2.247-2.674,4.318-1.84.095.038.185.077.273.117a7.986,7.986,0,0,0,.733-.76c-.049-.1-.1-.2-.144-.314-.876-2.055-.3-3.48,1.751-4.356.094-.04.186-.077.276-.11A7.924,7.924,0,0,0,3.123,5.3c-.106-.036-.214-.076-.325-.12C.726,4.347.124,2.934.957.862,1,.767,1.035.676,1.075.589a7.986,7.986,0,0,0-.76-.733C.214-.094.109-.046,0,0Z"/>
      </g>
      <g id="그룹_18335" data-name="그룹 18335" transform="translate(14.751 -33.249)">
        <path id="패스_18778" data-name="패스 18778" class="cls-15" d="M0,0A3.37,3.37,0,0,1-2.622.229a3.379,3.379,0,0,1-1.733-1.98c-.04-.094-.076-.186-.109-.276a7.921,7.921,0,0,0-1.056.019c-.036.106-.076.214-.121.325A3.376,3.376,0,0,1-7.333.333,3.374,3.374,0,0,1-9.958.157c-.1-.038-.186-.077-.272-.117A8.012,8.012,0,0,0-10.964.8c.05.1.1.205.145.315a3.376,3.376,0,0,1,.228,2.621,3.372,3.372,0,0,1-1.98,1.733c-.094.04-.185.076-.275.11a7.765,7.765,0,0,0,.018,1.056c.106.035.213.075.324.119,2.073.835,2.675,2.247,1.843,4.319-.039.095-.078.186-.119.273a8,8,0,0,0,.761.733c.1-.049.2-.1.313-.144a3.378,3.378,0,0,1,2.623-.23A3.384,3.384,0,0,1-5.35,13.687c.04.094.076.186.109.276a7.931,7.931,0,0,0,1.056-.019c.036-.106.076-.214.12-.325.834-2.072,2.247-2.674,4.318-1.84.095.038.185.077.273.117a7.986,7.986,0,0,0,.733-.76c-.049-.1-.1-.2-.144-.314-.876-2.055-.3-3.48,1.751-4.356.094-.04.186-.077.276-.11A7.924,7.924,0,0,0,3.123,5.3c-.106-.036-.214-.076-.325-.12C.726,4.347.124,2.934.957.862,1,.767,1.035.676,1.075.589a7.986,7.986,0,0,0-.76-.733C.214-.094.109-.046,0,0Z"/>
      </g>
      <g id="그룹_18336" data-name="그룹 18336" transform="translate(9.898 -24.447)">
        <path id="패스_18779" data-name="패스 18779" class="cls-5" d="M0,0A2.8,2.8,0,0,0,2.753-2.833,2.8,2.8,0,0,0,0-5.667,2.8,2.8,0,0,0-2.753-2.833,2.8,2.8,0,0,0,0,0"/>
      </g>
      <g id="그룹_18337" data-name="그룹 18337" transform="translate(9.898 -24.447)">
        <path id="패스_18780" data-name="패스 18780" class="cls-15" d="M0,0A2.8,2.8,0,0,0,2.753-2.833,2.8,2.8,0,0,0,0-5.667,2.8,2.8,0,0,0-2.753-2.833,2.8,2.8,0,0,0,0,0Z"/>
      </g>
      <g id="그룹_18338" data-name="그룹 18338" transform="translate(10.899 -12.883)">
        <path id="패스_18781" data-name="패스 18781" class="cls-5" d="M0,0A2.827,2.827,0,0,1-2.2.187,2.834,2.834,0,0,1-3.664-1.474c-.024-.058-.047-.115-.069-.17a6.27,6.27,0,0,0-.725.013c-.024.069-.051.139-.08.211A2.828,2.828,0,0,1-5.964.27,2.831,2.831,0,0,1-8.171.128C-8.229.1-8.285.081-8.34.057a6.555,6.555,0,0,0-.5.522c.032.066.063.135.093.206a2.827,2.827,0,0,1,.187,2.2,2.83,2.83,0,0,1-1.661,1.46c-.057.025-.114.048-.17.069a6.266,6.266,0,0,0,.013.725c.069.025.139.051.21.08a2.455,2.455,0,0,1,1.55,3.633c-.023.059-.047.115-.072.17a6.538,6.538,0,0,0,.522.5c.066-.031.134-.062.2-.092a2.838,2.838,0,0,1,2.2-.188A2.831,2.831,0,0,1-4.3,11.009q.038.087.069.171a6.506,6.506,0,0,0,.725-.013c.024-.069.051-.139.079-.211A2.456,2.456,0,0,1,.2,9.407c.058.024.114.047.169.072a6.379,6.379,0,0,0,.5-.522c-.032-.066-.063-.134-.093-.2A2.455,2.455,0,0,1,2.259,5.087c.058-.025.115-.048.17-.069a6.266,6.266,0,0,0-.013-.725c-.069-.024-.139-.051-.21-.08A2.455,2.455,0,0,1,.656.58C.68.522.7.465.728.411a6.379,6.379,0,0,0-.522-.5C.14-.061.071-.03,0,0"/>
      </g>
      <g id="그룹_18339" data-name="그룹 18339" transform="translate(10.899 -12.883)">
        <path id="패스_18782" data-name="패스 18782" class="cls-15" d="M0,0A2.827,2.827,0,0,1-2.2.187,2.834,2.834,0,0,1-3.664-1.474c-.024-.058-.047-.115-.069-.17a6.27,6.27,0,0,0-.725.013c-.024.069-.051.139-.08.211A2.828,2.828,0,0,1-5.964.27,2.831,2.831,0,0,1-8.171.128C-8.229.1-8.285.081-8.34.057a6.555,6.555,0,0,0-.5.522c.032.066.063.135.093.206a2.827,2.827,0,0,1,.187,2.2,2.83,2.83,0,0,1-1.661,1.46c-.057.025-.114.048-.17.069a6.266,6.266,0,0,0,.013.725c.069.025.139.051.21.08a2.455,2.455,0,0,1,1.55,3.633c-.023.059-.047.115-.072.17a6.538,6.538,0,0,0,.522.5c.066-.031.134-.062.2-.092a2.838,2.838,0,0,1,2.2-.188A2.831,2.831,0,0,1-4.3,11.009q.038.087.069.171a6.506,6.506,0,0,0,.725-.013c.024-.069.051-.139.079-.211A2.456,2.456,0,0,1,.2,9.407c.058.024.114.047.169.072a6.379,6.379,0,0,0,.5-.522c-.032-.066-.063-.134-.093-.2A2.455,2.455,0,0,1,2.259,5.087c.058-.025.115-.048.17-.069a6.266,6.266,0,0,0-.013-.725c-.069-.024-.139-.051-.21-.08A2.455,2.455,0,0,1,.656.58C.68.522.7.465.728.411a6.379,6.379,0,0,0-.522-.5C.14-.061.071-.03,0,0Z"/>
      </g>
      <g id="그룹_18340" data-name="그룹 18340" transform="translate(6.917 -5.904)">
        <path id="패스_18783" data-name="패스 18783" class="cls-5" d="M0,0A2.182,2.182,0,0,0,2.146-2.211,2.182,2.182,0,0,0,0-4.423,2.182,2.182,0,0,0-2.146-2.211,2.182,2.182,0,0,0,0,0"/>
      </g>
      <g id="그룹_18341" data-name="그룹 18341" transform="translate(6.917 -5.904)">
        <path id="패스_18784" data-name="패스 18784" class="cls-15" d="M0,0A2.182,2.182,0,0,0,2.146-2.211,2.182,2.182,0,0,0,0-4.423,2.182,2.182,0,0,0-2.146-2.211,2.182,2.182,0,0,0,0,0Z"/>
      </g>
    </g>
  </g>
  <g id="그룹_18362" data-name="그룹 18362" transform="translate(706.56 385.773)">
    <g id="그룹_18347" data-name="그룹 18347" class="cls-19">
      <g id="그룹_18344" data-name="그룹 18344" transform="translate(1.547 -16.732)">
        <path id="패스_18786" data-name="패스 18786" class="cls-6" d="M0,0A6.976,6.976,0,0,0,6.936,7.016,6.976,6.976,0,0,0,13.872,0Z"/>
      </g>
      <g id="그룹_18345" data-name="그룹 18345" transform="translate(26.128 -16.732)">
        <path id="패스_18787" data-name="패스 18787" class="cls-6" d="M0,0A6.976,6.976,0,0,0,6.936,7.016,6.976,6.976,0,0,0,13.872,0Z"/>
      </g>
      <g id="그룹_18346" data-name="그룹 18346" transform="translate(20.671 -25.703)">
        <path id="패스_18788" data-name="패스 18788" class="cls-6" d="M0,0A2.776,2.776,0,0,0,2.741-2.811,2.778,2.778,0,0,0,0-5.623,2.778,2.778,0,0,0-2.741-2.811,2.776,2.776,0,0,0,0,0"/>
      </g>
    </g>
    <path id="패스_18790" data-name="패스 18790" class="cls-6" d="M13.519,0H28.074V-4.11H13.519Z"/>
    <g id="그룹_18348" data-name="그룹 18348" transform="translate(19.527 -29.879)">
      <path id="패스_18791" data-name="패스 18791" class="cls-15" d="M0,0V24.533"/>
    </g>
    <g id="그룹_18353" data-name="그룹 18353" class="cls-19">
      <g id="그룹_18349" data-name="그룹 18349" transform="translate(0.5 -17.781)">
        <path id="패스_18792" data-name="패스 18792" class="cls-5" d="M0,0A6.831,6.831,0,0,0,6.839,6.824,6.831,6.831,0,0,0,13.679,0Z"/>
      </g>
      <g id="그룹_18350" data-name="그룹 18350" transform="translate(0.5 -17.781)">
        <path id="패스_18793" data-name="패스 18793" class="cls-15" d="M0,0A6.831,6.831,0,0,0,6.839,6.824,6.831,6.831,0,0,0,13.679,0Z"/>
      </g>
      <g id="그룹_18351" data-name="그룹 18351" transform="translate(25.081 -17.781)">
        <path id="패스_18794" data-name="패스 18794" class="cls-5" d="M0,0A6.831,6.831,0,0,0,6.839,6.824,6.831,6.831,0,0,0,13.679,0Z"/>
      </g>
      <g id="그룹_18352" data-name="그룹 18352" transform="translate(25.081 -17.781)">
        <path id="패스_18795" data-name="패스 18795" class="cls-15" d="M0,0A6.831,6.831,0,0,0,6.839,6.824,6.831,6.831,0,0,0,13.679,0Z"/>
      </g>
    </g>
    <g id="그룹_18354" data-name="그룹 18354" transform="translate(2.256 -17.834)">
      <path id="패스_18797" data-name="패스 18797" class="cls-15" d="M0,0,5.116-12.07H17.4"/>
    </g>
    <g id="그룹_18355" data-name="그룹 18355" transform="translate(7.395 -29.932)">
      <path id="패스_18798" data-name="패스 18798" class="cls-15" d="M0,0,5.089,12.1"/>
    </g>
    <g id="그룹_18356" data-name="그룹 18356" transform="translate(37.004 -17.834)">
      <path id="패스_18799" data-name="패스 18799" class="cls-15" d="M0,0-5.116-12.07H-17.4"/>
    </g>
    <g id="그룹_18357" data-name="그룹 18357" transform="translate(31.865 -29.932)">
      <path id="패스_18800" data-name="패스 18800" class="cls-15" d="M0,0-5.089,12.1"/>
    </g>
    <g id="그룹_18360" data-name="그룹 18360" class="cls-19">
      <g id="그룹_18358" data-name="그룹 18358" transform="translate(19.528 -26.943)">
        <path id="패스_18801" data-name="패스 18801" class="cls-5" d="M0,0A2.681,2.681,0,0,0,2.644-2.715,2.68,2.68,0,0,0,0-5.43,2.68,2.68,0,0,0-2.644-2.715,2.681,2.681,0,0,0,0,0"/>
      </g>
      <g id="그룹_18359" data-name="그룹 18359" transform="translate(19.528 -26.943)">
        <path id="패스_18802" data-name="패스 18802" class="cls-15" d="M0,0A2.681,2.681,0,0,0,2.644-2.715,2.68,2.68,0,0,0,0-5.43,2.68,2.68,0,0,0-2.644-2.715,2.681,2.681,0,0,0,0,0Z"/>
      </g>
    </g>
    <path id="패스_18804" data-name="패스 18804" class="cls-5" d="M12.472-1.24H26.834V-5.157H12.472Z"/>
    <g id="그룹_18361" data-name="그룹 18361" class="cls-19">
      <path id="패스_18805" data-name="패스 18805" class="cls-15" d="M12.472-1.24H26.834V-5.157H12.472Z"/>
    </g>
  </g>
</svg>
