<svg xmlns="http://www.w3.org/2000/svg" xmlns:xlink="http://www.w3.org/1999/xlink" width="510.65" height="286.21" viewBox="0 0 510.65 286.21">
  <defs>
    <style>
      .cls-1, .cls-10, .cls-11, .cls-12, .cls-13, .cls-15, .cls-21, .cls-23, .cls-5, .cls-6, .cls-7, .cls-9 {
        fill: none;
      }

      .cls-2, .cls-3, .cls-4 {
        fill: #1e2323;
      }

      .cls-3 {
        font-size: 17px;
        font-family: NotoSansKR-Medium, Noto Sans KR;
        font-weight: 500;
      }

      .cls-4 {
        font-size: 14px;
        font-family: NotoSansKR-Light, Noto Sans KR;
        font-weight: 300;
      }

      .cls-10, .cls-11, .cls-12, .cls-13, .cls-5, .cls-6, .cls-7, .cls-9 {
        stroke: #5e6366;
      }

      .cls-10, .cls-12, .cls-23, .cls-24, .cls-5, .cls-6, .cls-7, .cls-9 {
        stroke-linecap: round;
        stroke-linejoin: round;
      }

      .cls-5 {
        stroke-dasharray: 0 2.99;
      }

      .cls-6 {
        stroke-dasharray: 0 2.98;
      }

      .cls-7 {
        stroke-dasharray: 0 3.017;
      }

      .cls-8 {
        fill: #f0c560;
      }

      .cls-9 {
        stroke-dasharray: 0 3.026;
      }

      .cls-11 {
        stroke-miterlimit: 10;
      }

      .cls-12 {
        stroke-dasharray: 0 2.981;
      }

      .cls-14 {
        clip-path: url(#clip-path);
      }

      .cls-15, .cls-20, .cls-23, .cls-24 {
        stroke: #1e2323;
      }

      .cls-16 {
        mix-blend-mode: multiply;
        isolation: isolate;
      }

      .cls-17 {
        clip-path: url(#clip-path-2);
      }

      .cls-18 {
        clip-path: url(#clip-path-3);
      }

      .cls-19, .cls-20, .cls-24 {
        fill: #fff;
      }

      .cls-21 {
        stroke: #2b2e34;
      }

      .cls-22 {
        clip-path: url(#clip-path-6);
      }

      .cls-25 {
        clip-path: url(#clip-path-9);
      }

      .cls-26 {
        clip-path: url(#clip-path-10);
      }

      .cls-27 {
        clip-path: url(#clip-path-11);
      }

      .cls-28 {
        clip-path: url(#clip-path-12);
      }

      .cls-29 {
        clip-path: url(#clip-path-13);
      }

      .cls-30 {
        clip-path: url(#clip-path-14);
      }
    </style>
    <clipPath id="clip-path">
      <path id="패스_5101" data-name="패스 5101" class="cls-1" d="M0,0H59.783V-63.615H0Z"/>
    </clipPath>
    <clipPath id="clip-path-2">
      <rect id="사각형_232" data-name="사각형 232" class="cls-1" width="19" height="16.669" transform="translate(16.614 -39.486)"/>
    </clipPath>
    <clipPath id="clip-path-3">
      <rect id="사각형_233" data-name="사각형 233" class="cls-1" width="19" height="16.319" transform="translate(32.251 -39.486)"/>
    </clipPath>
    <clipPath id="clip-path-6">
      <path id="패스_5112" data-name="패스 5112" class="cls-1" d="M0,0H60.942V-81.2H0Z"/>
    </clipPath>
    <clipPath id="clip-path-9">
      <rect id="사각형_234" data-name="사각형 234" class="cls-1" width="18" height="16.669" transform="translate(32.468 -20.276)"/>
    </clipPath>
    <clipPath id="clip-path-10">
      <rect id="사각형_235" data-name="사각형 235" class="cls-1" width="18" height="16.32" transform="translate(48.105 -20.276)"/>
    </clipPath>
    <clipPath id="clip-path-11">
      <rect id="사각형_236" data-name="사각형 236" class="cls-1" width="19" height="16.669" transform="translate(29.133 -22.402)"/>
    </clipPath>
    <clipPath id="clip-path-12">
      <rect id="사각형_237" data-name="사각형 237" class="cls-1" width="19" height="16.32" transform="translate(44.771 -22.402)"/>
    </clipPath>
    <clipPath id="clip-path-13">
      <rect id="사각형_238" data-name="사각형 238" class="cls-1" width="18" height="16.669" transform="translate(-0.848 -15.668)"/>
    </clipPath>
    <clipPath id="clip-path-14">
      <rect id="사각형_239" data-name="사각형 239" class="cls-1" width="18" height="16.32" transform="translate(14.789 -15.669)"/>
    </clipPath>
  </defs>
  <g id="구성_요소_72_1" data-name="구성 요소 72 – 1" transform="translate(0.361 0.5)">
    <path id="패스_23588" data-name="패스 23588" class="cls-2" d="M1.955-7.786H3.094l.391-3.383.051-2.006H1.513l.051,2.006Zm12.7,1.207C12.308-7.259,11-8.959,11-10.727v-.17h3.23v-1.394H11.016v-1.836H9.248v1.836H6.018V-10.9h3.23v.17a4.75,4.75,0,0,1-3.689,4.42L6.392-4.93a5.993,5.993,0,0,0,3.774-3.247,5.661,5.661,0,0,0,3.655,2.958ZM7.48-2.516h8.347V1.343h1.751v-5.27H7.48Zm12.274-7.565H17.578v-3.978H15.827v9.4h1.751V-8.636h2.176Zm10.217-2.21H26.316v-1.768H24.565v1.768H20.91V-10.9h9.061ZM23.392-7.276c0-.969.833-1.547,2.04-1.547,1.224,0,2.057.578,2.057,1.547s-.833,1.547-2.057,1.547C24.225-5.729,23.392-6.307,23.392-7.276Zm5.763,0c0-1.734-1.513-2.907-3.723-2.907-2.193,0-3.723,1.173-3.723,2.907,0,1.751,1.53,2.907,3.723,2.907C27.642-4.369,29.155-5.525,29.155-7.276ZM24.922-3.417H23.154V1.02H33.49V-.408H24.922Zm7.956-5.729v-4.9H31.127V-2.533h1.751V-7.7h2.176V-9.146ZM47.158-5h1.751v-9.061H47.158v3.077H44.047v1.428h3.111ZM45.305-6.987A4.992,4.992,0,0,1,41.7-11.8v-1.428H39.933v1.513a5.372,5.372,0,0,1-3.808,5.151l.918,1.411a6.348,6.348,0,0,0,3.825-3.706,5.959,5.959,0,0,0,3.5,3.247ZM43.792-.068c-2.176,0-3.417-.561-3.417-1.564S41.616-3.2,43.792-3.2s3.434.561,3.434,1.564S45.968-.068,43.792-.068Zm0-4.5c-3.2,0-5.168,1.088-5.168,2.941S40.6,1.309,43.792,1.309c3.213,0,5.185-1.088,5.185-2.941S47.005-4.573,43.792-4.573ZM60.5-6.817a4.748,4.748,0,0,1-3.621-4.437v-.289H60.1v-1.411H51.85v1.411h3.264v.306a5.225,5.225,0,0,1-3.757,4.9l.884,1.377a6.248,6.248,0,0,0,3.808-3.57,5.765,5.765,0,0,0,3.6,3.077ZM58.531-.068c-2.142,0-3.383-.544-3.383-1.53,0-1,1.241-1.53,3.383-1.53s3.383.527,3.383,1.53C61.914-.612,60.673-.068,58.531-.068Zm0-4.437c-3.162,0-5.117,1.071-5.117,2.907,0,1.819,1.955,2.907,5.117,2.907S63.648.221,63.648-1.6C63.648-3.434,61.693-4.5,58.531-4.5Zm4.947-5.8v-3.74H61.727v9.18h1.751V-8.857h2.176V-10.3Zm4.4,2.516H69.02l.391-3.383.051-2.006H67.439l.051,2.006Zm10.574-4.709c2.38,0,3.655.459,3.655,1.343,0,.867-1.275,1.326-3.655,1.326S74.8-10.285,74.8-11.152C74.8-12.036,76.075-12.495,78.455-12.495Zm0,3.978c3.434,0,5.474-.935,5.474-2.635,0-1.717-2.04-2.652-5.474-2.652-3.451,0-5.474.935-5.474,2.652C72.981-9.452,75-8.517,78.455-8.517ZM74.919-1.445h8.738V-5.117H73.151v1.326H81.94v1.105H73.185V1.173H84.1V-.17h-9.18ZM71.5-7.616v1.394H85.408V-7.616ZM91.851-2.21h8.874V1.309h1.751v-4.93H91.851Zm1.921-9.826h6.919V-9.5H93.772Zm4.335,5.644V-8.109h4.3V-13.43H92.055v5.321h4.284v1.717H90.287v1.411h13.906V-6.392Zm12.9,1.19h3.026v3.3H111.01Zm-.255-6.1h3.536v4.692h-3.536Zm5.015,9.4V-5.2h2.465V-6.613h-2.21v-4.692h2.261v-1.411H106.743v1.411H109v4.692h-2.21V-5.2h2.465v3.3H105.6V-.459h13.923V-1.9Zm12.937-.034V-4.556H133.5V-5.967h-9.2V-8.109h8.857v-4.862H122.553v1.411h8.874V-9.5h-8.84v4.947h4.369v2.618H120.9V-.493H134.81V-1.938Zm16.575-10.353h-3.655v-1.768h-1.751v1.768h-3.655V-10.9h9.061ZM138.7-7.276c0-.969.833-1.547,2.04-1.547,1.224,0,2.057.578,2.057,1.547s-.833,1.547-2.057,1.547C139.536-5.729,138.7-6.307,138.7-7.276Zm5.763,0c0-1.734-1.513-2.907-3.723-2.907-2.193,0-3.723,1.173-3.723,2.907,0,1.751,1.53,2.907,3.723,2.907C142.953-4.369,144.466-5.525,144.466-7.276Zm-4.233,3.859h-1.768V1.02H148.8V-.408h-8.568Zm7.956-5.729v-4.9h-1.751V-2.533h1.751V-7.7h2.176V-9.146Z" transform="translate(10.931 201.001)"/>
    <text id="_" data-name=" " class="cls-3" transform="translate(166.957 201.001)"><tspan x="0" y="0"> </tspan></text>
    <path id="패스_23589" data-name="패스 23589" class="cls-2" d="M13.515-14.042H11.764V-2.89h1.751ZM2.873-9.18a2.24,2.24,0,0,1,2.363-2.329A2.249,2.249,0,0,1,7.6-9.18,2.259,2.259,0,0,1,5.236-6.851,2.249,2.249,0,0,1,2.873-9.18Zm6.426,0a3.841,3.841,0,0,0-4.063-3.842A3.855,3.855,0,0,0,1.156-9.18a3.865,3.865,0,0,0,4.08,3.842A3.851,3.851,0,0,0,9.3-9.18ZM5.253-.408v-3.6H3.485V1.02H13.957V-.408ZM20.842-10.914h2.567v-1.445H16.371v1.445h2.771v.85c0,3.043-.969,5.712-3.2,7l1.071,1.309a7.04,7.04,0,0,0,3.026-4.42,6.569,6.569,0,0,0,2.975,3.893l1.02-1.343c-2.227-1.156-3.2-3.672-3.2-6.443Zm6.834-3.145V-7.99H25.993v-5.78H24.344V.6h1.649v-7.14h1.683V1.309h1.666V-14.059ZM38.4-12.342c2.278,0,3.655.578,3.655,1.615,0,1.02-1.377,1.6-3.655,1.6-2.295,0-3.672-.578-3.672-1.6C34.731-11.764,36.108-12.342,38.4-12.342Zm0,4.59c3.332,0,5.474-1.122,5.474-2.975S41.735-13.7,38.4-13.7c-3.349,0-5.474,1.122-5.474,2.975S35.054-7.752,38.4-7.752Zm1.683,4.1h-3.4V-5.338h3.4Zm5.253-1.683V-6.749H31.433v1.411h3.5v1.683H33v1.394h8.891v3.57h1.751V-3.655h-1.8V-5.338ZM57.732-5h1.751v-9.061H57.732v3.077H54.621v1.428h3.111ZM55.879-6.987a4.992,4.992,0,0,1-3.6-4.811v-1.428H50.507v1.513A5.372,5.372,0,0,1,46.7-6.562l.918,1.411a6.348,6.348,0,0,0,3.825-3.706,5.959,5.959,0,0,0,3.5,3.247ZM54.366-.068c-2.176,0-3.417-.561-3.417-1.564S52.19-3.2,54.366-3.2,57.8-2.635,57.8-1.632,56.542-.068,54.366-.068Zm0-4.5c-3.2,0-5.168,1.088-5.168,2.941s1.972,2.941,5.168,2.941c3.213,0,5.185-1.088,5.185-2.941S57.579-4.573,54.366-4.573Zm19.873-1.6H70.7v-5.015h3.536Zm-5.287,0h-2.21v1.428H78.2V-6.171H75.973v-5.015h2.261V-12.6H66.691v1.411h2.261ZM65.535-2.023V-.578h13.94V-2.023Zm23.12.085V-4.556h4.794V-5.967h-9.2V-8.109h8.857v-4.862H82.5v1.411h8.874V-9.5h-8.84v4.947H86.9v2.618H80.852V-.493H94.758V-1.938Zm17.85-8.925a34.6,34.6,0,0,1-.6,7.276l1.768.187a38.065,38.065,0,0,0,.578-7.463v-1.649H97.631V-11.1h8.874ZM96.152-2.278V-.833h13.889V-2.278Zm22.474-5.049a25.436,25.436,0,0,1-4.828.408v-1.8h4.08v-4.352h-5.814V-11.7h4.114v1.666H112.1v4.505h1.037a27.879,27.879,0,0,0,5.644-.408Zm-2.669,4.488h6.783V-.272h-6.783Zm-1.734,3.961H124.44V-4.233H114.223Zm8.551-15.181v3.791h-1.7v-3.485h-1.632V-5.1h1.632V-8.857h1.7v3.944h1.666v-9.146Zm12.121,3.128h2.533v-1.445h-6.936v1.445h2.7v1.1c0,2.737-1.02,5.508-3.2,6.868l1.054,1.292a7.609,7.609,0,0,0,3.009-4.522A6.987,6.987,0,0,0,137-2.04l1.02-1.275c-2.142-1.241-3.128-3.893-3.128-6.511Zm3.672,2.278h-2.261v1.428h2.261V.561h1.649V-13.753h-1.649Zm3.094-5.406V1.292h1.666V-14.059Zm15.606,6.12a14.537,14.537,0,0,0,.425-4.08v-1.292h-10.54V-11.9h8.806a13.692,13.692,0,0,1-.408,3.774ZM152.422-.034c-2.278,0-3.672-.561-3.672-1.53,0-.952,1.394-1.513,3.672-1.513,2.261,0,3.621.561,3.621,1.513C156.043-.6,154.683-.034,152.422-.034Zm0-4.386c-3.315,0-5.406,1.088-5.406,2.856,0,1.785,2.091,2.873,5.406,2.873,3.264,0,5.372-1.088,5.372-2.873C157.794-3.332,155.686-4.42,152.422-4.42Zm.34-2.6V-9.843h-1.768v2.822h-5.44V-5.61h13.838V-7.021Z" transform="translate(5.815 224.002)"/>
    <path id="패스_23592" data-name="패스 23592" class="cls-2" d="M1.683-12.512v1.428h5.2A12.134,12.134,0,0,1,6.477-8.67L.884-8.33l.255,1.5,4.794-.442A10.665,10.665,0,0,1,.816-2.465l.952,1.36C7.225-3.893,8.636-7.939,8.636-12.512Zm10.132-1.53v6.035H8.585v1.445h3.23V1.326h1.768V-14.042ZM26.6-8.585H19.584v-3.281H26.6Zm1.734-4.675H17.85v6.069H28.339ZM30.073-5.3H16.15v1.411h3.4V1.394H21.3V-3.893h3.672V1.394h1.734V-3.893h3.366ZM34.1-12.546H32.368v9.979h1.309a36.668,36.668,0,0,0,7.5-.731L40.987-4.76a35.555,35.555,0,0,1-6.885.7Zm8.3-1.5V1.309h1.751V-14.042ZM55.029-8.109h-2.04a15.123,15.123,0,0,0,.51-4.165H47.566v1.411h4.25a12.513,12.513,0,0,1-.34,2.142l-4.658.272.238,1.513L51-7.361a9.264,9.264,0,0,1-4.216,4.335L47.77-1.8a10.7,10.7,0,0,0,4.692-4.879h2.567V.561h1.632V-13.685H55.029Zm3.179-5.95V1.309h1.683V-14.059Zm14.722,0v15.4H74.7v-15.4ZM66.521-12.92c-2.278,0-3.944,2.108-3.944,5.406,0,3.332,1.666,5.423,3.944,5.423,2.295,0,3.961-2.091,3.961-5.423C70.482-10.812,68.816-12.92,66.521-12.92Zm0,1.581c1.343,0,2.278,1.445,2.278,3.825,0,2.414-.935,3.859-2.278,3.859-1.326,0-2.261-1.445-2.261-3.859C64.26-9.894,65.195-11.339,66.521-11.339ZM88.332-2.618h1.751V-14.042H88.332V-11.9H85.476v1.428h2.856v1.649H85.476v1.411h2.856ZM86.411-6.1a5.525,5.525,0,0,1-3.57-5.185v-1.9H81.056v1.9A5.657,5.657,0,0,1,77.333-5.9l.952,1.377a6.487,6.487,0,0,0,3.689-3.791,6.467,6.467,0,0,0,3.468,3.587Zm-4.556,5.7V-3.723H80.087V1.02H90.44V-.408ZM99.6-12.495c2.38,0,3.655.459,3.655,1.343,0,.867-1.275,1.326-3.655,1.326s-3.655-.459-3.655-1.326C95.948-12.036,97.223-12.495,99.6-12.495Zm0,3.978c3.434,0,5.474-.935,5.474-2.635,0-1.717-2.04-2.652-5.474-2.652-3.451,0-5.474.935-5.474,2.652C94.129-9.452,96.152-8.517,99.6-8.517ZM96.067-1.445h8.738V-5.117H94.3v1.326h8.789v1.105H94.333V1.173h10.914V-.17h-9.18ZM92.65-7.616v1.394h13.906V-7.616ZM118.354,0c-2.312,0-3.519-.374-3.519-1.19,0-.782,1.207-1.173,3.519-1.173,2.329,0,3.536.391,3.536,1.173C121.89-.374,120.683,0,118.354,0Zm0-3.655c-3.332,0-5.287.85-5.287,2.465,0,1.632,1.955,2.5,5.287,2.5,3.349,0,5.287-.867,5.287-2.5C123.641-2.805,121.7-3.655,118.354-3.655Zm.9-2.363V-7.276h4.5V-8.619h-8.806v-1.19h8.33v-1.309h-8.33v-1.156h8.7v-1.343H113.2v6.341h4.284v1.258h-6.069v1.411h13.889V-6.018Zm16.575-6.273h-3.655v-1.768h-1.751v1.768h-3.655V-10.9h9.061Zm-6.579,5.015c0-.969.833-1.547,2.04-1.547,1.224,0,2.057.578,2.057,1.547s-.833,1.547-2.057,1.547C130.084-5.729,129.251-6.307,129.251-7.276Zm5.763,0c0-1.734-1.513-2.907-3.723-2.907-2.193,0-3.723,1.173-3.723,2.907,0,1.751,1.53,2.907,3.723,2.907C133.5-4.369,135.014-5.525,135.014-7.276Zm-4.233,3.859h-1.768V1.02h10.336V-.408h-8.568Zm7.956-5.729v-4.9h-1.751V-2.533h1.751V-7.7h2.176V-9.146Z" transform="translate(354.179 201.001)"/>
    <path id="패스_23593" data-name="패스 23593" class="cls-2" d="M6.239-12.767H4.488v2.516A7.77,7.77,0,0,1,.6-3.332L1.666-1.921A7.933,7.933,0,0,0,5.372-6.732,7.646,7.646,0,0,0,8.908-2.21L9.979-3.6a7.449,7.449,0,0,1-3.74-6.647Zm8.908,4.811h-2.4v-6.086H11V1.309H12.75v-7.82h2.4Zm9.945.459A35.341,35.341,0,0,1,18.5-7V-8.823h5.219v-4.42h-6.97v1.428h5.236v1.649h-5.2v4.59H18.02a39.175,39.175,0,0,0,7.259-.493ZM20.06-2.805h6.375V-.272H20.06ZM18.343,1.122h9.809v-5.3H18.343ZM30.328-10.234H28.152v-3.791H26.4V-4.9h1.751V-8.789h2.176Zm2.448,2.5c2.686-.289,4.794-1.394,5.627-2.975.816,1.581,2.924,2.686,5.627,2.975l.612-1.377c-2.839-.289-4.811-1.479-5.049-2.856h4.488v-1.411H32.742v1.411H37.2c-.238,1.377-2.21,2.567-5.049,2.856Zm9.112,6.324c0,.884-1.275,1.377-3.519,1.377s-3.5-.493-3.5-1.377c0-.918,1.258-1.394,3.5-1.394S41.888-2.329,41.888-1.411Zm3.451-4.148V-6.953H31.45v1.394h6.069v1.411c-2.788.17-4.437,1.139-4.437,2.737,0,1.734,1.989,2.72,5.287,2.72,3.315,0,5.287-.986,5.287-2.72,0-1.6-1.615-2.55-4.386-2.72V-5.559ZM56.1-7.31a4.986,4.986,0,0,1-3.74-4.658v-1.479H50.575v1.479a5.284,5.284,0,0,1-3.791,4.93l.85,1.377a6.36,6.36,0,0,0,3.859-3.587,6.029,6.029,0,0,0,3.757,3.3ZM51.085-3.128H57.7V-.272H51.085Zm-1.717,4.25H59.415V-4.522H49.368Zm8.3-15.147v8.7h1.751v-8.7Zm9.35,1.054c-2.4,0-4.165,1.513-4.165,3.689s1.768,3.689,4.165,3.689S71.2-7.106,71.2-9.282,69.411-12.971,67.014-12.971Zm0,1.5a2.222,2.222,0,0,1,2.465,2.193,2.232,2.232,0,0,1-2.465,2.193,2.226,2.226,0,0,1-2.448-2.193A2.217,2.217,0,0,1,67.014-11.475Zm5.916-2.584V1.326H74.7V-14.059ZM62.356-1.921a53.437,53.437,0,0,0,9.775-.68l-.119-1.275a70.182,70.182,0,0,1-9.877.51ZM81.719-12.427V-11h5.474c-.306,3.536-2.21,6.239-6.239,8.177l.935,1.394c5.27-2.55,7.106-6.426,7.106-11Zm10.047-1.615V1.309h1.751V-14.042ZM107.134-.289h-6.511v-1.7h6.511Zm0-3.06h-6.511V-5.083H98.889v6.2h9.979v-6.2h-1.734Zm-6.766-4.267a2.146,2.146,0,0,1-2.329-2.159,2.124,2.124,0,0,1,2.329-2.142,2.127,2.127,0,0,1,2.312,2.142A2.15,2.15,0,0,1,100.368-7.616Zm6.749-6.426v3.536h-2.839a3.724,3.724,0,0,0-3.91-2.856c-2.312,0-4.012,1.479-4.012,3.587,0,2.125,1.7,3.6,4.012,3.6a3.709,3.709,0,0,0,3.91-2.907h2.839v3.264h1.751v-8.228Zm14.722,4.828H114.92v-2.754h6.919Zm1.717-4.148H113.2V-7.82h10.353Zm-8.67,9.945h-1.751V1.02h10.676V-.408h-8.925Zm-3.451-2.89V-4.9h6.222v2.873h1.751V-4.9h5.95V-6.307Zm24.531-5.967h-3.672v-1.734h-1.751v1.734h-3.706v1.411h9.129Zm-6.579,5.049c0-.952.833-1.53,2.04-1.53s2.023.578,2.023,1.53c0,.935-.816,1.513-2.023,1.513S129.387-6.29,129.387-7.225Zm2.907,2.788c1.7-.272,2.8-1.326,2.8-2.788,0-1.734-1.5-2.873-3.672-2.873-2.193,0-3.689,1.139-3.689,2.873,0,1.462,1.105,2.5,2.805,2.788v1.5c-1.428.051-2.805.051-3.978.051l.238,1.445a56.022,56.022,0,0,0,9.469-.612l-.136-1.292c-1.224.187-2.533.272-3.842.34Zm8.653-3.2h-2.193v-6.426H137V1.309h1.751v-7.5h2.193ZM146.863-5a7.863,7.863,0,0,0,5.61-3.91,7.949,7.949,0,0,0,5.7,3.859l.714-1.394c-3.043-.476-5.491-2.55-5.491-4.862v-.034h4.879V-12.75H146.676v1.411h4.879v.034c0,2.312-2.431,4.437-5.423,4.913Zm6.511,2.992V-5.593h-1.768v3.587h-6.069V-.578h13.906V-2.006ZM171.8-5h1.751v-9.061H171.8v3.077h-3.111v1.428H171.8Zm-1.853-1.989a4.992,4.992,0,0,1-3.6-4.811v-1.428h-1.768v1.513a5.372,5.372,0,0,1-3.808,5.151l.918,1.411a6.348,6.348,0,0,0,3.825-3.706,5.959,5.959,0,0,0,3.5,3.247ZM168.436-.068c-2.176,0-3.417-.561-3.417-1.564S166.26-3.2,168.436-3.2s3.434.561,3.434,1.564S170.612-.068,168.436-.068Zm0-4.5c-3.2,0-5.168,1.088-5.168,2.941s1.972,2.941,5.168,2.941c3.213,0,5.185-1.088,5.185-2.941S171.649-4.573,168.436-4.573Z" transform="translate(336.668 224.002)"/>
    <path id="패스_23590" data-name="패스 23590" class="cls-2" d="M10.164-11.452V-4.3h.742v-7.154ZM3.01-3.57V.784h7.9V-3.57Zm7.168.616V.154H3.738V-2.954Zm-5.894-7.8A2.867,2.867,0,0,0,1.148-7.9,2.867,2.867,0,0,0,4.284-5.04,2.876,2.876,0,0,0,7.448-7.9,2.876,2.876,0,0,0,4.284-10.752Zm0,.63A2.265,2.265,0,0,1,6.734-7.9,2.265,2.265,0,0,1,4.284-5.67,2.249,2.249,0,0,1,1.862-7.9,2.249,2.249,0,0,1,4.284-10.122Zm16.7,4.984A4.509,4.509,0,0,1,17.71-9.044V-9.87h3.038v-.63H13.916v.63h3.052v.826A4.728,4.728,0,0,1,13.72-4.9l.378.588a5.445,5.445,0,0,0,3.262-3.3A5.359,5.359,0,0,0,20.622-4.55Zm-5.6,2.562h7.462V.98h.742V-3.192h-8.2Zm7.462-8.876V-3.92h.742v-7.532Zm9.926,7.42v.588H35.42v1.47h.742v-9.464H35.42v7.406Zm-2.618-6.3c1.372,0,2.324.644,2.324,1.554,0,.938-.952,1.568-2.324,1.568s-2.324-.63-2.324-1.568C27.832-9.688,28.784-10.332,30.156-10.332Zm0,3.7c1.82,0,3.024-.826,3.024-2.142s-1.2-2.128-3.024-2.128-3.038.826-3.038,2.128S28.336-6.636,30.156-6.636Zm-.28,4.158h.742V-5.012a34.563,34.563,0,0,0,3.626-.364l-.07-.546a68.472,68.472,0,0,1-8.092.364l.112.644c1.092,0,2.338,0,3.682-.056ZM28.7.042V-2.912h-.728V.672h8.512V.042ZM48.328-7.9v.63h2.814V-2.3h.742v-9.156h-.742V-7.9Zm.658,2.954A4.526,4.526,0,0,1,45.85-8.82v-.9h2.912v-.63H42.154v.63h2.968v.91A4.819,4.819,0,0,1,41.874-4.62l.392.6A5.625,5.625,0,0,0,45.5-7.392,5.424,5.424,0,0,0,48.608-4.34ZM44.856.042V-3.136h-.742V.672h8.148V.042ZM63.49-7.252H56.63V-10.22h6.86Zm.714-3.584H55.9v4.2h8.3ZM56.658-2.87h-.742V.672h8.526V.042H56.658ZM54.4-4.984v.63h5.32v2.772h.742V-4.354H65.7v-.63ZM76.5-4.06h.742v-7.406H76.5V-8.6H73.528v.63H76.5ZM74.312-5.32A4.628,4.628,0,0,1,71.12-9.366v-1.358h-.728v1.372a4.807,4.807,0,0,1-3.22,4.368l.392.6A5.527,5.527,0,0,0,70.784-7.8a5.4,5.4,0,0,0,3.094,3.052ZM73.22.336c-2.03,0-3.332-.658-3.332-1.694s1.3-1.694,3.332-1.694,3.346.658,3.346,1.694S75.25.336,73.22.336Zm0-3.99c-2.534,0-4.074.826-4.074,2.3s1.54,2.3,4.074,2.3,4.074-.826,4.074-2.3S75.74-3.654,73.22-3.654Zm10.052-6.818v.63H88.13c-.182,2.422-2.24,4.284-5.362,5.25l.308.616c3.57-1.092,5.866-3.416,5.866-6.5ZM88.424.322c-1.946,0-3.234-.672-3.234-1.708s1.288-1.722,3.234-1.722c1.974,0,3.262.672,3.262,1.722S90.4.322,88.424.322Zm0-4.046c-2.422,0-3.962.868-3.962,2.338S86,.924,88.424.924c2.45,0,3.99-.854,3.99-2.31S90.874-3.724,88.424-3.724Zm3.85-4.326v-3.4h-.742v7.574h.742V-7.42H94.22v-.63Zm10.654-1.82H99.554v-1.6h-.742v1.6H95.438v.63h7.49ZM97.02-6.09c0-.994.868-1.68,2.17-1.68s2.17.686,2.17,1.68-.882,1.68-2.17,1.68S97.02-5.11,97.02-6.09Zm2.534,2.254c1.512-.126,2.506-.966,2.506-2.254,0-1.4-1.162-2.282-2.87-2.282s-2.856.882-2.856,2.282c0,1.288.98,2.128,2.478,2.254v1.554c-1.288.056-2.52.056-3.584.056l.14.644a48.743,48.743,0,0,0,7.91-.49l-.056-.574c-1.162.182-2.422.266-3.668.336Zm7.392-2.2H104.79v-5.418h-.742V.966h.742V-5.39h2.156Zm10.164-3.15h-7.574V-6.72h8.526v-.574h-7.8V-8.638h7.574v-2.38h-8.33v.574h7.6ZM110.194-1.26h7.686V-3.71h-8.442v.574h7.728V-1.82H109.48V.77h8.834V.182h-8.12Zm-2.156-4.3v.588h11.3v-.588Zm19.684-4.634c1.4,0,2.408.8,2.408,1.862s-1.008,1.876-2.408,1.876-2.38-.8-2.38-1.876S126.336-10.192,127.722-10.192Zm0,4.368c1.834,0,3.122-1.008,3.122-2.506s-1.288-2.492-3.122-2.492-3.094,1.008-3.094,2.492S125.9-5.824,127.722-5.824Zm4.256.77a59.4,59.4,0,0,1-8.4.462l.126.658c1.106,0,2.38-.014,3.724-.07V.588h.742V-4.046a36.206,36.206,0,0,0,3.864-.42Zm.98-6.384V.994h.742V-11.438ZM143.738-9.8h-3.3v-1.638h-.742V-9.8h-3.318v.616h7.364Zm-5.922,3.724c0-.994.91-1.68,2.24-1.68s2.226.686,2.226,1.68c0,.966-.9,1.666-2.226,1.666S137.816-5.11,137.816-6.076Zm5.166,0c0-1.386-1.162-2.282-2.926-2.282s-2.94.9-2.94,2.282,1.176,2.268,2.94,2.268S142.982-4.7,142.982-6.076Zm-3.92,3.206h-.742V.672h8.2V.042h-7.462Zm6.846-4.312v-4.256h-.742V-2.1h.742V-6.552h1.946v-.63Z" transform="translate(11.549 262.722)"/>
    <text id="_2" data-name="" class="cls-4" transform="translate(165.759 262.722)"><tspan x="0" y="0"></tspan></text>
    <path id="패스_23591" data-name="패스 23591" class="cls-2" d="M4.27-8.414H6.79v-.63H4.284V-11H3.556v1.96H1.022v.63H3.556V-7.6a6.526,6.526,0,0,1-2.8,5.348l.476.56A6.669,6.669,0,0,0,3.92-5.782,6.465,6.465,0,0,0,6.636-1.946L7.1-2.534A6.026,6.026,0,0,1,4.27-7.6ZM8.064-6.426h-2.2v.63h2.2V.294h.714V-11.13H8.064Zm2.492-5.04V.98h.728V-11.466ZM20.79-7.91H18.578a10.829,10.829,0,0,0,.182-1.9H14.014v.63h4.018A8.656,8.656,0,0,1,13.566-2.31l.462.546A9.431,9.431,0,0,0,18.41-7.28h2.38v2.506H18.214v.63H20.79V.294H21.5V-11.1H20.79Zm2.464-3.542V.98h.714V-11.452Zm10.136,6.3a4.527,4.527,0,0,1-3.136-3.892V-9.87h2.912v-.63H26.558v.63h2.968v.84a4.819,4.819,0,0,1-3.248,4.186l.392.588A5.5,5.5,0,0,0,29.9-7.6a5.442,5.442,0,0,0,3.108,3.038Zm-5.306,2.52h7.462v3.6h.742V-3.262h-8.2Zm7.462-8.82v3.4h-2.8v.63h2.8V-4h.742v-7.448ZM50.764-8.638a23.22,23.22,0,0,1-.448,5.292l.742.1a24.918,24.918,0,0,0,.434-5.39V-10.08H42.966v.616h7.8Zm-2.2,7.084V-5.768h-.728v4.214H45.5V-5.768h-.728v4.214h-3.01v.63H53v-.63Zm11.466-8.974c2.156,0,3.556.658,3.556,1.722s-1.4,1.736-3.556,1.736S56.5-7.742,56.5-8.806,57.89-10.528,60.032-10.528Zm0,4.06c2.674,0,4.312-.854,4.312-2.338s-1.638-2.324-4.312-2.324c-2.646,0-4.284.84-4.284,2.324S57.386-6.468,60.032-6.468Zm1.75,3.542H58.324V-4.718h3.458ZM65.66-4.718v-.63H54.432v.63h3.15v1.792h-1.9v.63h7.84V.966h.742V-2.926H62.524V-4.718ZM77.336-4.8H73.878V-9.478h3.458Zm-4.186,0H71.078v.63H80.15V-4.8H78.078V-9.478H80.15v-.63H71.064v.63H73.15ZM70-1.344v.63H81.3v-.63Zm18.676.056V-3.906h4.116v-.63H84.9V-6.93h7.6v-3.528H84.126v.616H91.77v2.3h-7.6v3.64h3.766v2.618h-5.25v.644h11.3v-.644ZM104.3-8.932a29.322,29.322,0,0,1-.5,5.992l.742.1a30.676,30.676,0,0,0,.5-6.09v-1.106h-8.4v.63H104.3ZM95.368-1.6v.63H106.61V-1.6Zm18.788-4.06a21.634,21.634,0,0,1-4.7.42H109.4v-2.17h3.892v-3.178H108.64v.616h3.934v1.96h-3.892V-4.62h.77a22.707,22.707,0,0,0,4.8-.42Zm-2.968,2.94h6.566V.154h-6.566Zm-.728,3.5h8.008V-3.332H110.46Zm7.294-12.222v3.29h-2.086v-3.066h-.714v7.028h.714V-7.518h2.086V-3.99h.714v-7.448Zm11.494.966c2.1,0,3.528.728,3.528,1.82s-1.428,1.82-3.528,1.82c-2.072,0-3.5-.728-3.5-1.82S127.176-10.472,129.248-10.472Zm0,4.27c2.618,0,4.3-.938,4.3-2.45s-1.68-2.436-4.3-2.436c-2.59,0-4.27.924-4.27,2.436S126.658-6.2,129.248-6.2Zm-3.374,3.3h-.728V.672h8.526V.028h-7.8ZM123.62-4.984v.63H129V-1.6h.742V-4.354h5.18v-.63ZM137.256-7.8a2.3,2.3,0,0,1,2.436-2.254A2.3,2.3,0,0,1,142.128-7.8a2.293,2.293,0,0,1-2.436,2.268A2.293,2.293,0,0,1,137.256-7.8Zm8.456-1.148v2.31h-3.094a3.123,3.123,0,0,0,.224-1.162,3.105,3.105,0,0,0-.224-1.148Zm0,2.94V-4.06h.742v-7.406h-.742v1.9H142.24a3.192,3.192,0,0,0-2.548-1.12,2.916,2.916,0,0,0-3.15,2.884,2.932,2.932,0,0,0,3.15,2.926,3.2,3.2,0,0,0,2.548-1.134ZM142.422.336c-2.016,0-3.332-.672-3.332-1.736s1.316-1.736,3.332-1.736c2.044,0,3.36.686,3.36,1.736S144.466.336,142.422.336Zm0-4.074c-2.52,0-4.06.854-4.06,2.338S139.9.938,142.422.938,146.51.084,146.51-1.4,144.956-3.738,142.422-3.738Z" transform="translate(11.549 284.716)"/>
    <path id="패스_23594" data-name="패스 23594" class="cls-2" d="M10.164-11.452V-4.3h.742v-7.154ZM3.01-3.57V.784h7.9V-3.57Zm7.168.616V.154H3.738V-2.954Zm-5.894-7.8A2.867,2.867,0,0,0,1.148-7.9,2.867,2.867,0,0,0,4.284-5.04,2.876,2.876,0,0,0,7.448-7.9,2.876,2.876,0,0,0,4.284-10.752Zm0,.63A2.265,2.265,0,0,1,6.734-7.9,2.265,2.265,0,0,1,4.284-5.67,2.249,2.249,0,0,1,1.862-7.9,2.249,2.249,0,0,1,4.284-10.122Zm16.7,4.984A4.509,4.509,0,0,1,17.71-9.044V-9.87h3.038v-.63H13.916v.63h3.052v.826A4.728,4.728,0,0,1,13.72-4.9l.378.588a5.445,5.445,0,0,0,3.262-3.3A5.359,5.359,0,0,0,20.622-4.55Zm-5.6,2.562h7.462V.98h.742V-3.192h-8.2Zm7.462-8.876V-3.92h.742v-7.532Zm9.912,7.42v.588h2.646v1.47h.742v-9.464h-.742v7.406Zm-2.618-6.3c1.372,0,2.324.644,2.324,1.554,0,.938-.952,1.568-2.324,1.568s-2.324-.63-2.324-1.568C27.818-9.688,28.77-10.332,30.142-10.332Zm0,3.7c1.82,0,3.024-.826,3.024-2.142s-1.2-2.128-3.024-2.128S27.1-10.08,27.1-8.778,28.322-6.636,30.142-6.636Zm-.28,4.158H30.6V-5.012a34.563,34.563,0,0,0,3.626-.364l-.07-.546a68.472,68.472,0,0,1-8.092.364l.112.644c1.092,0,2.338,0,3.682-.056ZM28.686.042V-2.912h-.728V.672H36.47V.042Zm23.688-5.18C50.582-5.5,47.7-7.294,47.7-9.548v-.994h-.77v.994c0,2.268-2.856,4.046-4.648,4.41l.336.6a7.043,7.043,0,0,0,4.7-3.64,7.1,7.1,0,0,0,4.718,3.64Zm-4.69,3.78V-4.536h-.742v3.178H41.72v.63H53v-.63ZM60.018.35c-2.17,0-3.486-.49-3.486-1.372,0-.854,1.316-1.372,3.486-1.372S63.5-1.876,63.5-1.022C63.5-.14,62.188.35,60.018.35Zm0-3.318c-2.7,0-4.228.672-4.228,1.946S57.316.938,60.018.938s4.228-.672,4.228-1.96S62.72-2.968,60.018-2.968Zm.364-1.792V-6.272h3.864v-.6H56.672v-1.54H63.84v-.6H56.672v-1.456H64.19v-.6H55.93v4.8h3.71V-4.76H54.4v.63H65.632v-.63ZM77.308-4.8H73.85V-9.478h3.458Zm-4.186,0H71.05v.63h9.072V-4.8H78.05V-9.478h2.072v-.63H71.036v.63h2.086Zm-3.15,3.458v.63h11.3v-.63Zm18.662.056V-3.906H92.75v-.63h-7.9V-6.93h7.6v-3.528H84.084v.616h7.644v2.3h-7.6v3.64h3.766v2.618h-5.25v.644h11.3v-.644Zm15.624-7.644a29.322,29.322,0,0,1-.5,5.992l.742.1a30.676,30.676,0,0,0,.5-6.09v-1.106H96.6v.63h7.658ZM95.326-1.6v.63h11.242V-1.6Zm18.788-4.06a21.634,21.634,0,0,1-4.7.42h-.056v-2.17h3.892v-3.178H108.6v.616h3.934v1.96H108.64V-4.62h.77a22.707,22.707,0,0,0,4.8-.42Zm-2.968,2.94h6.566V.154h-6.566Zm-.728,3.5h8.008V-3.332h-8.008Zm7.294-12.222v3.29h-2.086v-3.066h-.714v7.028h.714V-7.518h2.086V-3.99h.714v-7.448Zm11.48.966c2.1,0,3.528.728,3.528,1.82s-1.428,1.82-3.528,1.82c-2.072,0-3.5-.728-3.5-1.82S127.12-10.472,129.192-10.472Zm0,4.27c2.618,0,4.3-.938,4.3-2.45s-1.68-2.436-4.3-2.436c-2.59,0-4.27.924-4.27,2.436S126.6-6.2,129.192-6.2Zm-3.374,3.3h-.728V.672h8.526V.028h-7.8Zm-2.254-2.086v.63h5.376V-1.6h.742V-4.354h5.18v-.63ZM137.2-7.8a2.3,2.3,0,0,1,2.436-2.254A2.3,2.3,0,0,1,142.072-7.8a2.293,2.293,0,0,1-2.436,2.268A2.293,2.293,0,0,1,137.2-7.8Zm8.456-1.148v2.31h-3.094a3.123,3.123,0,0,0,.224-1.162,3.105,3.105,0,0,0-.224-1.148Zm0,2.94V-4.06h.742v-7.406h-.742v1.9h-3.472a3.192,3.192,0,0,0-2.548-1.12,2.916,2.916,0,0,0-3.15,2.884,2.932,2.932,0,0,0,3.15,2.926,3.2,3.2,0,0,0,2.548-1.134ZM142.366.336c-2.016,0-3.332-.672-3.332-1.736s1.316-1.736,3.332-1.736c2.044,0,3.36.686,3.36,1.736S144.41.336,142.366.336Zm0-4.074c-2.52,0-4.06.854-4.06,2.338s1.54,2.338,4.06,2.338,4.088-.854,4.088-2.338S144.9-3.738,142.366-3.738Z" transform="translate(356.02 262.722)"/>
    <text id="_3" data-name="" class="cls-4" transform="translate(510.23 262.722)"><tspan x="0" y="0"></tspan></text>
    <path id="패스_23595" data-name="패스 23595" class="cls-2" d="M10.892-11.466H10.15v7.2h.742ZM6.4-6.258H2.184V-10.01H6.4Zm.714-4.368H1.456v4.984H7.112ZM7.49-2.7h3.766v-.6H7.49V-4.648H6.734V-3.3H3v.6H6.734v.126C6.734-1.162,4.3.084,2.492.336l.266.588C4.452.63,6.412-.294,7.112-1.568,7.8-.308,9.688.63,11.4.924l.266-.588C9.842.056,7.49-1.176,7.49-2.576Zm12.8-7.616h-.714v2.492a6.88,6.88,0,0,1-3.318,5.488l.462.6A7.63,7.63,0,0,0,19.95-6.118,7.221,7.221,0,0,0,23.17-2l.462-.574a6.606,6.606,0,0,1-3.346-5.25Zm7.728,4.046H25.83v-5.194h-.742V.98h.742V-5.642h2.184Zm8.456.42a32.936,32.936,0,0,1-5.894.434h-.2V-7.56h4.774v-3.192H29.61v.616h4.83v1.96H29.652v3.388h.924a35.263,35.263,0,0,0,5.978-.42ZM31.654-2.758H37.9V.154H31.654ZM30.94.784h7.686V-3.36H30.94Zm9.632-8.89H38.626v-3.346h-.742v7.434h.742V-7.476h1.946Zm5.054,1.652c1.82-.28,3.948-1.19,4.62-2.66.672,1.47,2.814,2.38,4.634,2.66l.28-.6c-1.932-.252-4.466-1.386-4.466-3.052v-.126h4.158v-.616H45.668v.616h4.158v.126c0,1.68-2.548,2.8-4.48,3.052ZM53.732-1.2C53.732-.238,52.374.35,50.26.35c-2.142,0-3.5-.588-3.5-1.554s1.358-1.54,3.5-1.54C52.374-2.744,53.732-2.17,53.732-1.2ZM55.86-4.928v-.616H44.618v.616h5.25v1.582c-2.422.084-3.85.826-3.85,2.142C46.018.182,47.6.938,50.246.938S54.474.182,54.474-1.2c0-1.316-1.428-2.072-3.864-2.142V-4.928Zm8.89-.644a4.76,4.76,0,0,1-3.29-4.172v-1.218h-.728v1.218a5.015,5.015,0,0,1-3.248,4.41l.378.588A5.69,5.69,0,0,0,61.11-8.19a5.636,5.636,0,0,0,3.248,3.206ZM60.242-2.954h6.44V.154h-6.44ZM59.514.784h7.9V-3.57h-7.9Zm7.154-12.236v7.084h.742v-7.084Zm7.364.952c-1.932,0-3.276,1.148-3.276,2.842S72.1-4.816,74.032-4.816s3.276-1.148,3.276-2.842S75.964-10.5,74.032-10.5Zm0,.644a2.321,2.321,0,0,1,2.562,2.2,2.321,2.321,0,0,1-2.562,2.2,2.321,2.321,0,0,1-2.562-2.2A2.321,2.321,0,0,1,74.032-9.856Zm5.18-1.6V.994h.742V-11.452Zm-9.03,9.576A47.028,47.028,0,0,0,78.4-2.394l-.07-.574a55.913,55.913,0,0,1-8.274.448Zm16.142-8.2v.63h4.97c-.2,3.066-2.086,5.712-5.5,7.364l.406.616c4-1.974,5.838-5.138,5.838-8.61Zm8.61-1.372V.98h.742V-11.452ZM107.618.168h-6.286V-1.708h6.286Zm0-2.492h-6.286V-4.13h-.742V.784h7.77V-4.13h-.742Zm-6.02-3.5a2.264,2.264,0,0,1-2.436-2.2,2.248,2.248,0,0,1,2.436-2.2,2.248,2.248,0,0,1,2.436,2.2A2.264,2.264,0,0,1,101.6-5.824Zm6.02-5.628v3.08h-2.884A2.9,2.9,0,0,0,101.6-10.85a2.859,2.859,0,0,0-3.15,2.828,2.867,2.867,0,0,0,3.15,2.828,2.889,2.889,0,0,0,3.136-2.534h2.884v2.94h.742v-6.664Zm12.362,4.2h-6.86V-10.22h6.86Zm.714-3.584h-8.3v4.2h8.3ZM113.148-2.87h-.742V.672h8.526V.042h-7.784Zm-2.254-2.114v.63h5.32v2.772h.742V-4.354h5.236v-.63ZM131.138-9.87h-3.374v-1.6h-.742v1.6h-3.374v.63h7.49ZM125.23-6.09c0-.994.868-1.68,2.17-1.68s2.17.686,2.17,1.68-.882,1.68-2.17,1.68S125.23-5.11,125.23-6.09Zm2.534,2.254c1.512-.126,2.506-.966,2.506-2.254,0-1.4-1.162-2.282-2.87-2.282s-2.856.882-2.856,2.282c0,1.288.98,2.128,2.478,2.254v1.554c-1.288.056-2.52.056-3.584.056l.14.644a48.743,48.743,0,0,0,7.91-.49l-.056-.574c-1.162.182-2.422.266-3.668.336Zm7.392-2.2H133v-5.418h-.742V.966H133V-5.39h2.156Zm4.956,1.876c1.652-.378,3.934-1.68,4.69-3.528.77,1.834,3.066,3.122,4.732,3.5l.322-.6c-1.778-.308-4.676-2.03-4.676-4.172v-.616h4.326v-.63H140.1v.63h4.326v.616c0,2.142-2.884,3.892-4.648,4.214Zm5.068,2.814V-4.522h-.742v3.178h-5.264v.63h11.27v-.63ZM161.224-4.06h.742v-7.406h-.742V-8.6h-2.968v.63h2.968ZM159.04-5.32a4.628,4.628,0,0,1-3.192-4.046v-1.358h-.728v1.372a4.807,4.807,0,0,1-3.22,4.368l.392.6a5.527,5.527,0,0,0,3.22-3.416,5.4,5.4,0,0,0,3.094,3.052ZM157.948.336c-2.03,0-3.332-.658-3.332-1.694s1.3-1.694,3.332-1.694,3.346.658,3.346,1.694S159.978.336,157.948.336Zm0-3.99c-2.534,0-4.074.826-4.074,2.3s1.54,2.3,4.074,2.3,4.074-.826,4.074-2.3S160.468-3.654,157.948-3.654Z" transform="translate(347.829 284.716)"/>
    <path id="패스_504" data-name="패스 504" class="cls-5" d="M1321.308,1676.3a79.571,79.571,0,0,1,21.334,52.874" transform="translate(-837.678 -1655.08)"/>
    <path id="패스_505" data-name="패스 505" class="cls-6" d="M1342.6,1733.651a79.662,79.662,0,0,1-78.019,76.77" transform="translate(-837.678 -1655.08)"/>
    <path id="패스_506" data-name="패스 506" class="cls-7" d="M1260.076,1810.377a79.654,79.654,0,0,1-75.155-64.774" transform="translate(-837.678 -1655.08)"/>
    <path id="패스_508" data-name="패스 508" class="cls-8" d="M1263.092,1797.665a65,65,0,1,0-65-65,65,65,0,0,0,65,65" transform="translate(-837.678 -1655.08)"/>
    <path id="패스_509" data-name="패스 509" class="cls-8" d="M924.582,1797.665a65,65,0,1,0-65-65,65,65,0,0,0,65,65" transform="translate(-837.678 -1655.08)"/>
    <path id="패스_518" data-name="패스 518" class="cls-9" d="M845.639,1730.99a78.972,78.972,0,0,1,77.43-75.9" transform="translate(-837.678 -1655.08)"/>
    <path id="패스_519" data-name="패스 519" class="cls-9" d="M927.607,1655.137a78.969,78.969,0,0,1,75.961,77.365" transform="translate(-837.678 -1655.08)"/>
    <path id="패스_520" data-name="패스 520" class="cls-10" d="M1003.582,1734.016h0m-79-78.936h0m-79,78.936h0" transform="translate(-837.678 -1655.08)"/>
    <line id="선_805" data-name="선 805" class="cls-11" y2="12" transform="translate(87.404 153.855)"/>
    <line id="선_806" data-name="선 806" class="cls-11" y2="12" transform="translate(426.478 159.855)"/>
    <line id="선_807" data-name="선 807" class="cls-12" x2="174.376" transform="translate(169.885 84.089)"/>
    <path id="패스_521" data-name="패스 521" class="cls-10" d="M1183.43,1739.169h0m-178.848,0h0" transform="translate(-837.678 -1655.08)"/>
    <path id="패스_522" data-name="패스 522" class="cls-13" d="M852.909,1733.131l-7.615,7.933-7.616-7.933" transform="translate(-837.678 -1655.08)"/>
    <path id="패스_523" data-name="패스 523" class="cls-13" d="M1089.965,1731.555l7.932,7.614-7.932,7.616" transform="translate(-837.678 -1655.08)"/>
    <path id="패스_524" data-name="패스 524" class="cls-13" d="M1313.935,1679.387l-.416-10.986,11,.031" transform="translate(-837.678 -1655.08)"/>
    <g id="그룹_4714" data-name="그룹 4714" transform="translate(56.322 111.15)">
      <g id="그룹_4705" data-name="그룹 4705" class="cls-14">
        <g id="그룹_4686" data-name="그룹 4686" transform="translate(41.862 -49.991)">
          <path id="패스_5088" data-name="패스 5088" class="cls-2" d="M0,0A6.33,6.33,0,0,1-6.256,6.4,6.33,6.33,0,0,1-12.511,0,6.33,6.33,0,0,1-6.256-6.4,6.33,6.33,0,0,1,0,0"/>
        </g>
        <g id="그룹_4687" data-name="그룹 4687" transform="translate(41.862 -49.991)">
          <path id="패스_5089" data-name="패스 5089" class="cls-15" d="M0,0A6.33,6.33,0,0,1-6.256,6.4,6.33,6.33,0,0,1-12.511,0,6.33,6.33,0,0,1-6.256-6.4,6.33,6.33,0,0,1,0,0Z"/>
        </g>
        <g id="그룹_4688" data-name="그룹 4688" transform="translate(59.209 -28.767)">
          <path id="패스_5090" data-name="패스 5090" class="cls-2" d="M0,0C-.7-.938-4.658-2.271-7.637.775A7.985,7.985,0,0,0-8.778,2.192L-11.1,3.666V-2.685a9.977,9.977,0,0,0-9.769-10.173l-.914-.014L-23.6-10.954l-1.839-1.9h-.892A9.976,9.976,0,0,0-36.1-2.685V2.159h-.984c-2.636,0-5.217,2.016-6.544,3.24-.973.962-2.359,2.359-3.615,3.616l-2.634-2.6-6.808,6.722,15.122,14.928,6.807-6.723-2.026-2a2.817,2.817,0,0,1,2.012-.985h16.229c1.521-.84,10.908-8.638,10.908-8.638S-1.263,2.924,0,0M-15.347,6.357l-.135.085a.043.043,0,0,0,0,.005l-.045.029s0,0,0,0"/>
        </g>
        <g id="그룹_4689" data-name="그룹 4689" transform="translate(59.209 -28.767)">
          <path id="패스_5091" data-name="패스 5091" class="cls-15" d="M0,0C-.7-.938-4.658-2.271-7.637.775A7.985,7.985,0,0,0-8.778,2.192L-11.1,3.666V-2.685a9.977,9.977,0,0,0-9.769-10.173l-.914-.014L-23.6-10.954l-1.839-1.9h-.892A9.976,9.976,0,0,0-36.1-2.685V2.159h-.984c-2.636,0-5.217,2.016-6.544,3.24-.973.962-2.359,2.359-3.615,3.616l-2.634-2.6-6.808,6.722,15.122,14.928,6.807-6.723-2.026-2a2.817,2.817,0,0,1,2.012-.985h16.229c1.521-.84,10.908-8.638,10.908-8.638S-1.263,2.924,0,0ZM-15.347,6.357l-.135.085a.043.043,0,0,0,0,.005l-.045.029s0,0,0,0"/>
        </g>
        <g id="그룹_4693" data-name="그룹 4693" class="cls-16">
          <g id="그룹_4692" data-name="그룹 4692">
            <g id="그룹_4691" data-name="그룹 4691" class="cls-17">
              <g id="그룹_4690" data-name="그룹 4690" transform="translate(26.114 -32.486)">
                <path id="패스_5092" data-name="패스 5092" class="cls-15" d="M0,0V8.669"/>
              </g>
            </g>
          </g>
        </g>
        <g id="그룹_4697" data-name="그룹 4697" class="cls-16">
          <g id="그룹_4696" data-name="그룹 4696">
            <g id="그룹_4695" data-name="그룹 4695" class="cls-18">
              <g id="그룹_4694" data-name="그룹 4694" transform="translate(41.751 -32.486)">
                <path id="패스_5093" data-name="패스 5093" class="cls-15" d="M0,0V8.32"/>
              </g>
            </g>
          </g>
        </g>
        <g id="그룹_4698" data-name="그룹 4698" transform="translate(40.052 -50.991)">
          <path id="패스_5094" data-name="패스 5094" class="cls-19" d="M0,0A6.33,6.33,0,0,1-6.256,6.4,6.33,6.33,0,0,1-12.511,0,6.33,6.33,0,0,1-6.256-6.4,6.33,6.33,0,0,1,0,0"/>
        </g>
        <g id="그룹_4699" data-name="그룹 4699" transform="translate(40.052 -50.991)">
          <path id="패스_5095" data-name="패스 5095" class="cls-15" d="M0,0A6.33,6.33,0,0,1-6.256,6.4,6.33,6.33,0,0,1-12.511,0,6.33,6.33,0,0,1-6.256-6.4,6.33,6.33,0,0,1,0,0Z"/>
        </g>
        <g id="그룹_4700" data-name="그룹 4700" transform="translate(33.796 -40.722)">
          <path id="패스_5096" data-name="패스 5096" class="cls-19" d="M0,0-1.839-1.9h-.892A9.978,9.978,0,0,0-12.5,8.269v9.042h25V8.269A9.978,9.978,0,0,0,2.731-1.9l-.914-.014Z"/>
        </g>
        <g id="그룹_4701" data-name="그룹 4701" transform="translate(33.796 -40.722)">
          <path id="패스_5097" data-name="패스 5097" class="cls-15" d="M0,0-1.839-1.9h-.892A9.978,9.978,0,0,0-12.5,8.269v9.042h25V8.269A9.978,9.978,0,0,0,2.731-1.9l-.914-.014Z"/>
        </g>
        <g id="그룹_4702" data-name="그룹 4702" transform="translate(48.577 -27.513)">
          <path id="패스_5098" data-name="패스 5098" class="cls-19" d="M0,0-6.7,4.222A3.236,3.236,0,0,0-9.741,2.129h-6.493C-17.722,2.129-19.985,0-21.778,0h-6.361c-2.616,0-5.177,1.987-6.494,3.193-2.035,2-5.913,5.922-6.494,6.386,3.236,2.752,9.336,8.708,10.823,10,2.012-1.978,2.8-3.613,4.461-3.613h16.1C-8.232,15.136,1.082,7.45,1.082,7.45S7.405.754,8.658-2.129C7.871-3.171,2.976-4.723,0,0"/>
        </g>
        <g id="그룹_4703" data-name="그룹 4703" transform="translate(48.577 -27.513)">
          <path id="패스_5099" data-name="패스 5099" class="cls-15" d="M0,0-6.7,4.222A3.236,3.236,0,0,0-9.741,2.129h-6.493C-17.722,2.129-19.985,0-21.778,0h-6.361c-2.616,0-5.177,1.987-6.494,3.193-2.035,2-5.913,5.922-6.494,6.386,3.236,2.752,9.336,8.708,10.823,10,2.012-1.978,2.8-3.613,4.461-3.613h16.1C-8.232,15.136,1.082,7.45,1.082,7.45S7.405.754,8.658-2.129C7.871-3.171,2.976-4.723,0,0Z"/>
        </g>
        <g id="그룹_4704" data-name="그룹 4704" transform="translate(27.948 -18.97)">
          <path id="패스_5100" data-name="패스 5100" class="cls-20" d="M0,0H10.908A3.256,3.256,0,0,0,14.18-3.239a3.256,3.256,0,0,0-3.272-3.239H4.363c-1.5,0-3.78-2.16-5.587-2.16H-7.635c-2.636,0-5.218,2.016-6.545,3.239-2.05,2.03-5.959,6.008-6.544,6.479,3.261,2.792,9.409,8.834,10.907,10.143C-7.789,9.216-7,7.558-5.321,7.558H10.908c1.52-.84,10.907-8.638,10.907-8.638s6.373-6.793,7.636-9.717c-.794-1.058-5.727-2.632-8.727,2.159L13.911-4.319"/>
        </g>
      </g>
      <g id="그룹_4706" data-name="그룹 4706" transform="translate(0.712 -16.63)">
        <path id="패스_5102" data-name="패스 5102" class="cls-19" d="M0,0,15.122,14.927,21.929,8.2,6.808-6.722Z"/>
      </g>
      <g id="그룹_4708" data-name="그룹 4708" class="cls-14">
        <g id="그룹_4707" data-name="그룹 4707" transform="translate(15.833 -1.703)">
          <path id="패스_5103" data-name="패스 5103" class="cls-15" d="M0,0,6.808-6.723-8.314-21.65l-6.808,6.723Z"/>
        </g>
      </g>
      <g id="그룹_4709" data-name="그룹 4709" transform="translate(6.309 -17.565)">
        <path id="패스_5105" data-name="패스 5105" class="cls-15" d="M0,0,2.708,2.666"/>
      </g>
      <g id="그룹_4711" data-name="그룹 4711" class="cls-14">
        <g id="그룹_4710" data-name="그룹 4710" transform="translate(21.065 -56.615)">
          <path id="패스_5106" data-name="패스 5106" class="cls-21" d="M0,0V-3.328M0-5.164V-7"/>
        </g>
      </g>
      <g id="그룹_4712" data-name="그룹 4712" transform="translate(48.31 -44.615)">
        <path id="패스_5108" data-name="패스 5108" class="cls-21" d="M0,0V-3.328M0-5.164V-7"/>
      </g>
      <g id="그룹_4713" data-name="그룹 4713" transform="translate(14.779 -48.116)">
        <path id="패스_5109" data-name="패스 5109" class="cls-21" d="M0,0V1.485M-2.969,2.97h1.484m2.97,0H2.969M0,4.454V5.939"/>
      </g>
    </g>
    <g id="그룹_4761" data-name="그룹 4761" transform="translate(395.322 119.321)">
      <g id="그룹_4717" data-name="그룹 4717" class="cls-22">
        <g id="그룹_4715" data-name="그룹 4715" transform="translate(28.403 -74.497)">
          <path id="패스_5110" data-name="패스 5110" class="cls-2" d="M0,0V-3.631A1.166,1.166,0,0,1,1.2-4.819H29.9a1.17,1.17,0,0,1,1.2,1.188V14.192a1.166,1.166,0,0,1-1.2,1.188H25.652l.892,6.714L20.26,15.38H10.4"/>
        </g>
        <g id="그룹_4716" data-name="그룹 4716" transform="translate(39.975 -46.807)">
          <path id="패스_5111" data-name="패스 5111" class="cls-2" d="M0,0V-21.2A1.383,1.383,0,0,0-1.411-22.61H-35.272A1.383,1.383,0,0,0-36.683-21.2V0a1.383,1.383,0,0,0,1.411,1.413h5.016L-31.309,9.4-23.9,1.413H-1.411A1.383,1.383,0,0,0,0,0"/>
        </g>
      </g>
      <g id="그룹_4718" data-name="그룹 4718" transform="translate(8.874 -63.126)">
        <path id="패스_5113" data-name="패스 5113" class="cls-23" d="M0,0H25.518"/>
      </g>
      <g id="그룹_4719" data-name="그룹 4719" transform="translate(8.874 -57.346)">
        <path id="패스_5114" data-name="패스 5114" class="cls-23" d="M0,0H25.518"/>
      </g>
      <g id="그룹_4720" data-name="그룹 4720" transform="translate(8.874 -51.565)">
        <path id="패스_5115" data-name="패스 5115" class="cls-23" d="M0,0H12.259"/>
      </g>
      <g id="그룹_4724" data-name="그룹 4724" class="cls-22">
        <g id="그룹_4721" data-name="그룹 4721" transform="translate(26.32 -70.564)">
          <path id="패스_5116" data-name="패스 5116" class="cls-24" d="M0,0V-8.948a1.167,1.167,0,0,1,1.2-1.189H29.9a1.17,1.17,0,0,1,1.2,1.189V8.875a1.166,1.166,0,0,1-1.2,1.188H25.652l.892,6.714L20.26,10.063H10.4"/>
        </g>
        <g id="그룹_4722" data-name="그룹 4722" transform="translate(37.183 -48.192)">
          <path id="패스_5117" data-name="패스 5117" class="cls-19" d="M0,0V-21.2A1.383,1.383,0,0,0-1.411-22.61H-35.272A1.383,1.383,0,0,0-36.683-21.2V0a1.383,1.383,0,0,0,1.411,1.413h5.016L-31.309,9.4-23.9,1.413H-1.411A1.383,1.383,0,0,0,0,0"/>
        </g>
        <g id="그룹_4723" data-name="그룹 4723" transform="translate(37.183 -48.192)">
          <path id="패스_5118" data-name="패스 5118" class="cls-23" d="M0,0V-21.2A1.383,1.383,0,0,0-1.411-22.61H-35.272A1.383,1.383,0,0,0-36.683-21.2V0a1.383,1.383,0,0,0,1.411,1.413h5.016L-31.309,9.4-23.9,1.413H-1.411A1.383,1.383,0,0,0,0,0Z"/>
        </g>
      </g>
      <g id="그룹_4725" data-name="그룹 4725" transform="translate(6.083 -65.219)">
        <path id="패스_5120" data-name="패스 5120" class="cls-23" d="M0,0H25.518"/>
      </g>
      <g id="그룹_4726" data-name="그룹 4726" transform="translate(6.083 -59.438)">
        <path id="패스_5121" data-name="패스 5121" class="cls-23" d="M0,0H25.518"/>
      </g>
      <g id="그룹_4727" data-name="그룹 4727" transform="translate(6.083 -53.658)">
        <path id="패스_5122" data-name="패스 5122" class="cls-23" d="M0,0H12.259"/>
      </g>
      <g id="그룹_4760" data-name="그룹 4760" class="cls-22">
        <g id="그룹_4734" data-name="그룹 4734" transform="translate(53.989 -33.199)">
          <path id="패스_5123" data-name="패스 5123" class="cls-2" d="M0,0A6.33,6.33,0,0,1-6.256,6.4,6.33,6.33,0,0,1-12.511,0,6.33,6.33,0,0,1-6.256-6.4,6.33,6.33,0,0,1,0,0"/>
        </g>
        <g id="그룹_4735" data-name="그룹 4735" transform="translate(48.442 -22.221)">
          <path id="패스_5124" data-name="패스 5124" class="cls-2" d="M0,0-1.839-1.9h-.892A9.978,9.978,0,0,0-12.5,8.269v9.042h25V8.269A9.978,9.978,0,0,0,2.731-1.9l-.914-.014Z"/>
        </g>
        <g id="그룹_4739" data-name="그룹 4739" class="cls-16">
          <g id="그룹_4738" data-name="그룹 4738">
            <g id="그룹_4737" data-name="그룹 4737" class="cls-27">
              <g id="그룹_4736" data-name="그룹 4736" transform="translate(38.633 -15.402)">
                <path id="패스_5125" data-name="패스 5125" class="cls-15" d="M0,0V8.669"/>
              </g>
            </g>
          </g>
        </g>
        <g id="그룹_4743" data-name="그룹 4743" class="cls-16">
          <g id="그룹_4742" data-name="그룹 4742">
            <g id="그룹_4741" data-name="그룹 4741" class="cls-28">
              <g id="그룹_4740" data-name="그룹 4740" transform="translate(54.271 -15.402)">
                <path id="패스_5126" data-name="패스 5126" class="cls-15" d="M0,0V8.32"/>
              </g>
            </g>
          </g>
        </g>
        <g id="그룹_4744" data-name="그룹 4744" transform="translate(52.571 -33.908)">
          <path id="패스_5127" data-name="패스 5127" class="cls-19" d="M0,0A6.33,6.33,0,0,1-6.256,6.4,6.33,6.33,0,0,1-12.511,0,6.33,6.33,0,0,1-6.256-6.4,6.33,6.33,0,0,1,0,0"/>
        </g>
        <g id="그룹_4745" data-name="그룹 4745" transform="translate(52.571 -33.908)">
          <path id="패스_5128" data-name="패스 5128" class="cls-15" d="M0,0A6.33,6.33,0,0,1-6.256,6.4,6.33,6.33,0,0,1-12.511,0,6.33,6.33,0,0,1-6.256-6.4,6.33,6.33,0,0,1,0,0Z"/>
        </g>
        <g id="그룹_4746" data-name="그룹 4746" transform="translate(46.316 -23.638)">
          <path id="패스_5129" data-name="패스 5129" class="cls-19" d="M0,0-1.839-1.9h-.892A9.978,9.978,0,0,0-12.5,8.269v9.042h25V8.269A9.978,9.978,0,0,0,2.731-1.9l-.914-.014Z"/>
        </g>
        <g id="그룹_4747" data-name="그룹 4747" transform="translate(46.316 -23.638)">
          <path id="패스_5130" data-name="패스 5130" class="cls-15" d="M0,0-1.839-1.9h-.892A9.978,9.978,0,0,0-12.5,8.269v9.042h25V8.269A9.978,9.978,0,0,0,2.731-1.9l-.914-.014Z"/>
        </g>
        <g id="그룹_4754" data-name="그룹 4754" transform="translate(20.673 -27.591)">
          <path id="패스_5131" data-name="패스 5131" class="cls-2" d="M0,0A6.33,6.33,0,0,1-6.256,6.4,6.33,6.33,0,0,1-12.511,0,6.33,6.33,0,0,1-6.256-6.4,6.33,6.33,0,0,1,0,0"/>
        </g>
        <g id="그룹_4755" data-name="그룹 4755" transform="translate(15.126 -16.613)">
          <path id="패스_5132" data-name="패스 5132" class="cls-2" d="M0,0-1.839-1.9h-.892A9.978,9.978,0,0,0-12.5,8.269v3.042h25V8.269A9.978,9.978,0,0,0,2.731-1.9l-.914-.014Z"/>
        </g>
        <g id="그룹_4756" data-name="그룹 4756" transform="translate(19.256 -28.3)">
          <path id="패스_5133" data-name="패스 5133" class="cls-19" d="M0,0A6.33,6.33,0,0,1-6.256,6.4,6.33,6.33,0,0,1-12.511,0,6.33,6.33,0,0,1-6.256-6.4,6.33,6.33,0,0,1,0,0"/>
        </g>
        <g id="그룹_4757" data-name="그룹 4757" transform="translate(19.256 -28.3)">
          <path id="패스_5134" data-name="패스 5134" class="cls-15" d="M0,0A6.33,6.33,0,0,1-6.256,6.4,6.33,6.33,0,0,1-12.511,0,6.33,6.33,0,0,1-6.256-6.4,6.33,6.33,0,0,1,0,0Z"/>
        </g>
        <g id="그룹_4758" data-name="그룹 4758" transform="translate(13 -18.03)">
          <path id="패스_5135" data-name="패스 5135" class="cls-19" d="M0,0-1.839-1.9h-.892A9.978,9.978,0,0,0-12.5,8.269v3.042h25V8.269A9.978,9.978,0,0,0,2.731-1.9l-.914-.014Z"/>
        </g>
        <g id="그룹_4759" data-name="그룹 4759" transform="translate(13 -18.03)">
          <path id="패스_5136" data-name="패스 5136" class="cls-15" d="M0,0-1.839-1.9h-.892A9.978,9.978,0,0,0-12.5,8.269v3.042h25V8.269A9.978,9.978,0,0,0,2.731-1.9l-.914-.014Z"/>
        </g>
      </g>
    </g>
  </g>
</svg>
