<svg id="구성_요소_42_1" data-name="구성 요소 42 – 1" xmlns="http://www.w3.org/2000/svg" width="796" height="442.651" viewBox="0 0 796 442.651">
  <defs>
    <style>
      .cls-1 {
        fill: #f9fafa;
      }

      .cls-2 {
        fill: #132e54;
      }

      .cls-12, .cls-3, .cls-5, .cls-6, .cls-8, .cls-9 {
        fill: none;
      }

      .cls-3 {
        stroke: #132e54;
        stroke-width: 0.5px;
      }

      .cls-4 {
        fill: #fff;
      }

      .cls-12, .cls-5, .cls-6, .cls-8, .cls-9 {
        stroke: #3e3a39;
        stroke-linecap: round;
        stroke-linejoin: round;
      }

      .cls-5 {
        stroke-dasharray: 0 3.008;
      }

      .cls-7 {
        fill: #78a5e2;
      }

      .cls-8 {
        stroke-dasharray: 0 3;
      }

      .cls-9 {
        stroke-dasharray: 0 3.006;
      }

      .cls-10 {
        fill: #828585;
      }

      .cls-11 {
        fill: #5171b1;
      }

      .cls-12 {
        stroke-dasharray: 0 2.977;
      }
    </style>
  </defs>
  <rect id="사각형_19" data-name="사각형 19" class="cls-1" width="796" height="442.651"/>
  <rect id="사각형_20" data-name="사각형 20" class="cls-2" width="144.469" height="36.5" transform="translate(629.503 30.25)"/>
  <rect id="사각형_21" data-name="사각형 21" class="cls-3" width="144.469" height="36.5" transform="translate(629.503 30.25)"/>
  <rect id="사각형_22" data-name="사각형 22" class="cls-2" width="500.272" height="37" transform="translate(26.5 30)"/>
  <rect id="사각형_23" data-name="사각형 23" class="cls-4" width="144.469" height="33.5" transform="translate(623.503 30.25)"/>
  <rect id="사각형_24" data-name="사각형 24" class="cls-3" width="144.469" height="33.5" transform="translate(623.503 30.25)"/>
  <path id="패스_1404" data-name="패스 1404" class="cls-2" d="M3.09-6.165H7.815V-11.19H1.5v1.26H6.255v2.52H1.53v5.37H2.685A37.3,37.3,0,0,0,9.42-2.52L9.255-3.78a38.781,38.781,0,0,1-6.165.465Zm7.29-6.255V1.185h1.56V-12.42ZM26.01-5.775c-2.67-.48-4.845-2.565-4.845-4.725v-1.02H19.53v1.02c0,2.145-2.175,4.23-4.845,4.725l.66,1.275A7.092,7.092,0,0,0,20.34-8.22,7.092,7.092,0,0,0,25.335-4.5ZM14.265-1.86V-.585h12.27V-1.86Zm14.55-5.19.195,1.26,8-.4a21.089,21.089,0,0,1-.51,3.27l1.53.135a28.666,28.666,0,0,0,.6-6.675V-11.1H29.19v1.245h7.92v.39c0,.69,0,1.38-.03,2.1Zm-1.05,5.175V-.6h12.24V-1.875Zm19.47-8.2h6.45v4.02h-6.45Zm4,8.31V-4.83H55.2v-6.48H45.72v6.48h3.975v3.06h-5.34V-.51h12.27V-1.77Zm8.94-9.3H58.65v8.8h1.155A32.354,32.354,0,0,0,66.42-2.91L66.255-4.2a31.372,31.372,0,0,1-6.075.615Zm7.32-1.32V1.155h1.545V-12.39Zm6,6.21h4.185V-7.41H73.5V-9.945h4.74V-11.22H71.955V-2H73.02a32.7,32.7,0,0,0,6.09-.4l-.135-1.245a32.166,32.166,0,0,1-5.475.39Zm7.545-6.24v4.98h-2.6v1.275h2.6V1.17H82.6V-12.42Zm14.985.03H94.485V-4.1H96.03ZM93.075-6.48a33.933,33.933,0,0,1-5.985.405V-7.65h4.635v-3.915H85.53v1.245h4.68v1.5H85.56v4H86.7a38.515,38.515,0,0,0,6.555-.4ZM91.53-.06c-1.935,0-3.045-.45-3.045-1.275s1.11-1.29,3.045-1.29,3.045.45,3.045,1.29S93.48-.06,91.53-.06Zm0-3.78c-2.85,0-4.575.93-4.575,2.505S88.68,1.17,91.53,1.17s4.59-.93,4.59-2.505S94.38-3.84,91.53-3.84Z" transform="translate(646.723 53.046)"/>
  <rect id="사각형_25" data-name="사각형 25" class="cls-4" width="500.272" height="33.5" transform="translate(20.5 30.5)"/>
  <rect id="사각형_26" data-name="사각형 26" class="cls-3" width="500.272" height="33.5" transform="translate(20.5 30.5)"/>
  <path id="패스_1387" data-name="패스 1387" class="cls-2" d="M3.09-6.165H7.815V-11.19H1.5v1.26H6.255v2.52H1.53v5.37H2.685A37.3,37.3,0,0,0,9.42-2.52L9.255-3.78a38.781,38.781,0,0,1-6.165.465Zm7.29-6.255V1.185h1.56V-12.42ZM26.01-5.775c-2.67-.48-4.845-2.565-4.845-4.725v-1.02H19.53v1.02c0,2.145-2.175,4.23-4.845,4.725l.66,1.275A7.092,7.092,0,0,0,20.34-8.22,7.092,7.092,0,0,0,25.335-4.5ZM14.265-1.86V-.585h12.27V-1.86Zm14.55-5.19.195,1.26,8-.4a21.089,21.089,0,0,1-.51,3.27l1.53.135a28.666,28.666,0,0,0,.6-6.675V-11.1H29.19v1.245h7.92v.39c0,.69,0,1.38-.03,2.1Zm-1.05,5.175V-.6h12.24V-1.875ZM51.5-6.585a20.224,20.224,0,0,0,.33-4v-.78h-6.81v1.26h5.3a19.264,19.264,0,0,1-.33,3.36Zm1.125.675a38.029,38.029,0,0,1-4.2.36V-8.28H46.89v2.775c-.96.03-1.89.03-2.7.03l.165,1.26a50.738,50.738,0,0,0,8.37-.57ZM47.79-3.12H46.23V.9h9.21V-.36H47.79ZM55.005-8.1v-4.29h-1.56V-2.22h1.56V-6.825h1.8V-8.1Zm5.16,1.935H64.89V-11.19H58.575v1.26H63.33v2.52H58.6v5.37H59.76A37.3,37.3,0,0,0,66.5-2.52L66.33-3.78a38.781,38.781,0,0,1-6.165.465Zm7.29-6.255V1.185h1.56V-12.42Z" transform="translate(229.786 53.046)"/>
  <line id="선_122" data-name="선 122" class="cls-5" y1="386.488" transform="translate(571.343 28.405)"/>
  <path id="패스_106" data-name="패스 106" class="cls-6" d="M10625.263,1090.493h0m0,391h0" transform="translate(-10053.92 -1063.592)"/>
  <rect id="사각형_27" data-name="사각형 27" class="cls-7" width="152.023" height="30" transform="translate(623.003 88.219)"/>
  <path id="패스_1403" data-name="패스 1403" class="cls-4" d="M1.38-11.49v1.005H6.27C6.03-8.2,4.065-6.435.78-5.55l.48.975C5.22-5.655,7.59-8.07,7.59-11.49Zm2.595,8.4H10.02V-.075H3.975ZM2.76.915h8.475v-5H2.76ZM13.23-9.06H11.235v-3.3h-1.23v7.65h1.23V-8.04H13.23Zm5.58-2.115H17.6V-8.76A7.129,7.129,0,0,1,14.13-2.745l.735.99A7.452,7.452,0,0,0,18.21-6.21a7.421,7.421,0,0,0,3.255,4.185L22.23-3a6.794,6.794,0,0,1-3.42-5.76Zm8.055,4.29h-2.22V-12.33h-1.23V1.11h1.23V-5.865h2.22Zm5.355-3.81c1.3,0,2.235.7,2.235,1.755s-.93,1.755-2.235,1.755c-1.32,0-2.25-.705-2.25-1.755S30.9-10.695,32.22-10.695Zm0,4.515c1.995,0,3.42-1.125,3.42-2.76s-1.425-2.775-3.42-2.775c-2.01,0-3.435,1.125-3.435,2.775S30.21-6.18,32.22-6.18Zm4.425.66a61.8,61.8,0,0,1-8.865.48L27.945-4c1.11,0,2.385-.015,3.72-.075V.69H32.9V-4.155a33.729,33.729,0,0,0,3.855-.45Zm.975-6.81V1.125h1.23V-12.33ZM48.36-4.395v.915h2.73V-2.1h1.23V-12.345H51.09v7.95Zm-2.745-6.5c1.275,0,2.145.57,2.145,1.425s-.87,1.44-2.145,1.44S43.47-8.6,43.47-9.465,44.34-10.89,45.615-10.89Zm0,3.78c1.965,0,3.315-.915,3.315-2.355,0-1.41-1.35-2.34-3.315-2.34s-3.315.93-3.315,2.34C42.3-8.025,43.65-7.11,45.615-7.11Zm-.48,4.53h1.23V-5.235c1.215-.075,2.46-.21,3.645-.39l-.1-.885a73.088,73.088,0,0,1-8.67.39L41.4-5.1c1.11,0,2.4-.015,3.735-.075ZM44.385-.2v-2.91h-1.23V.81h9.51V-.2Zm18.96-10.5H59.88V-12.33H58.65v1.635H55.17v.99h8.175ZM57.195-6.45c0-.945.84-1.545,2.07-1.545s2.055.6,2.055,1.545-.84,1.53-2.055,1.53S57.195-5.52,57.195-6.45ZM59.88-3.99c1.59-.2,2.61-1.125,2.61-2.46,0-1.515-1.305-2.49-3.225-2.49s-3.24.975-3.24,2.49c0,1.35,1.035,2.28,2.625,2.475v1.44c-1.335.045-2.625.06-3.765.06l.18,1.035a55.021,55.021,0,0,0,8.715-.54l-.09-.915c-1.23.165-2.535.255-3.81.315Zm4.665-8.34V1.11h1.23V-12.33Z" transform="translate(665.115 109.719)"/>
  <rect id="사각형_28" data-name="사각형 28" class="cls-7" width="152.023" height="30" transform="translate(623.003 237.252)"/>
  <path id="패스_1402" data-name="패스 1402" class="cls-4" d="M2-6.39C4.17-6.72,6.15-7.8,6.885-9.36c.72,1.56,2.7,2.64,4.89,2.97l.45-.99C9.855-7.7,7.68-9.03,7.68-10.665v-.015h4.185v-.99H1.905v.99H6.09v.015C6.09-9.03,3.915-7.7,1.53-7.38ZM3.555-3H2.325V.81h9.3V-.2H3.555ZM.765-5.415v.99h5.6v2.73H7.59v-2.73h5.385v-.99ZM24.15-.075H17.97v-1.68h6.18Zm0-2.64H17.97v-1.62H16.755V.915h8.61v-5.25H24.15Zm-4.335-3.78h-3.63v-2.13h3.63Zm4.32-5.835v3.3H21.03v-2.61H19.815v2.055h-3.63V-11.64H14.97v6.15h6.06V-8.025h3.105V-4.98H25.38v-7.35ZM37.65-8.865v1.8H34.125v1H37.65v1.77H38.9v-8.04H37.65v2.46H34.6a7.718,7.718,0,0,0,.15-1.455H28.68v.99h4.74c-.225,2.325-2.22,4.11-5.43,5.07l.495.975c2.9-.84,4.935-2.415,5.805-4.575ZM34.5.09c-1.98,0-3.24-.615-3.24-1.635s1.26-1.62,3.24-1.62,3.24.615,3.24,1.62S36.48.09,34.5.09Zm0-4.23c-2.715,0-4.455.975-4.455,2.595S31.785,1.05,34.5,1.05s4.455-.975,4.455-2.595S37.215-4.14,34.5-4.14Zm8.19-4.215a2.164,2.164,0,0,1,2.3-2.145,2.142,2.142,0,0,1,2.28,2.145,2.145,2.145,0,0,1-2.28,2.16A2.166,2.166,0,0,1,42.69-8.355ZM51.15-9.4v2.1h-2.9a3.028,3.028,0,0,0,.18-1.05A3.28,3.28,0,0,0,48.27-9.4Zm0,3.105v1.92H52.4v-7.965H51.15v1.935H47.7a3.581,3.581,0,0,0-2.715-1.125,3.21,3.21,0,0,0-3.465,3.18,3.225,3.225,0,0,0,3.465,3.21A3.5,3.5,0,0,0,47.7-6.3ZM47.94.12c-2.025,0-3.255-.6-3.255-1.605s1.23-1.62,3.255-1.62c2.055,0,3.285.6,3.285,1.62S49.995.12,47.94.12Zm0-4.185c-2.76,0-4.47.945-4.47,2.58S45.18,1.1,47.94,1.1c2.775,0,4.5-.945,4.5-2.58S50.715-4.065,47.94-4.065Zm15.135-2.43a35.2,35.2,0,0,1-6.27.375V-7.89H61.62v-.975H56.805V-10.53h5.19v-.99h-6.42v6.39H56.67a36.562,36.562,0,0,0,6.54-.39ZM58.35-2.655h6.3V-.06h-6.3ZM57.15.93h8.7V-3.645h-8.7Zm7.47-13.26V-4.3h1.23V-12.33Z" transform="translate(665.115 257.852)"/>
  <path id="패스_107" data-name="패스 107" class="cls-3" d="M10205.527,1436.743H10095.35v24h110.178Z" transform="translate(-10053.92 -1063.592)"/>
  <path id="패스_1398" data-name="패스 1398" d="M7.77-8.022v.63h2.408v1.96H7.77v.63h2.408v2.828h.742v-9.464h-.742v3.416ZM7.854-9.8H4.718v-1.652H3.976V-9.8H.8v.616H7.854ZM2.3-6.02A1.826,1.826,0,0,1,4.34-7.756,1.826,1.826,0,0,1,6.384-6.02,1.808,1.808,0,0,1,4.34-4.3,1.808,1.808,0,0,1,2.3-6.02Zm4.8,0c0-1.428-1.12-2.338-2.758-2.338s-2.758.91-2.758,2.338S2.7-3.682,4.34-3.682,7.1-4.606,7.1-6.02ZM3.822.042V-2.8H3.08V.672h8.148V.042Zm19.04.126H16.576V-1.708h6.286Zm0-2.492H16.576V-4.13h-.742V.784H23.6V-4.13h-.742Zm-6.02-3.5a2.264,2.264,0,0,1-2.436-2.2,2.248,2.248,0,0,1,2.436-2.2,2.248,2.248,0,0,1,2.436,2.2A2.264,2.264,0,0,1,16.842-5.824Zm6.02-5.628v3.08H19.978a2.9,2.9,0,0,0-3.136-2.478,2.859,2.859,0,0,0-3.15,2.828,2.867,2.867,0,0,0,3.15,2.828,2.889,2.889,0,0,0,3.136-2.534h2.884v2.94H23.6v-6.664ZM35.2-6.272h-6.8v-2.17h6.8Zm.742-4.676H35.2v1.89h-6.8v-1.89H27.65v5.306h8.288Zm1.5,6.986h-11.3v.63h5.25V.98h.742V-3.332h5.306ZM42.994-10.3h-.742v2.478A6.922,6.922,0,0,1,38.92-2.31l.476.588A7.536,7.536,0,0,0,42.63-6.174a7.264,7.264,0,0,0,3.29,4.228l.434-.6a6.551,6.551,0,0,1-3.36-5.278Zm5.236-1.148v4.424H45.024v.616H48.23V.994h.742V-11.452Z" transform="translate(71.074 391.311)"/>
  <path id="패스_108" data-name="패스 108" class="cls-3" d="M10321.159,1436.743h-110.178v24h110.178Z" transform="translate(-10053.92 -1063.592)"/>
  <path id="패스_1399" data-name="패스 1399" d="M7.77-8.022v.63h2.408v1.96H7.77v.63h2.408v2.828h.742v-9.464h-.742v3.416ZM7.854-9.8H4.718v-1.652H3.976V-9.8H.8v.616H7.854ZM2.3-6.02A1.826,1.826,0,0,1,4.34-7.756,1.826,1.826,0,0,1,6.384-6.02,1.808,1.808,0,0,1,4.34-4.3,1.808,1.808,0,0,1,2.3-6.02Zm4.8,0c0-1.428-1.12-2.338-2.758-2.338s-2.758.91-2.758,2.338S2.7-3.682,4.34-3.682,7.1-4.606,7.1-6.02ZM3.822.042V-2.8H3.08V.672h8.148V.042Zm19.04.126H16.576V-1.708h6.286Zm0-2.492H16.576V-4.13h-.742V.784H23.6V-4.13h-.742Zm-6.02-3.5a2.264,2.264,0,0,1-2.436-2.2,2.248,2.248,0,0,1,2.436-2.2,2.248,2.248,0,0,1,2.436,2.2A2.264,2.264,0,0,1,16.842-5.824Zm6.02-5.628v3.08H19.978a2.9,2.9,0,0,0-3.136-2.478,2.859,2.859,0,0,0-3.15,2.828,2.867,2.867,0,0,0,3.15,2.828,2.889,2.889,0,0,0,3.136-2.534h2.884v2.94H23.6v-6.664ZM35.2-6.272h-6.8v-2.17h6.8Zm.742-4.676H35.2v1.89h-6.8v-1.89H27.65v5.306h8.288Zm1.5,6.986h-11.3v.63h5.25V.98h.742V-3.332h5.306ZM42.994-10.3h-.742v2.478A6.922,6.922,0,0,1,38.92-2.31l.476.588A7.536,7.536,0,0,0,42.63-6.174a7.264,7.264,0,0,0,3.29,4.228l.434-.6a6.551,6.551,0,0,1-3.36-5.278Zm5.236-1.148v4.424H45.024v.616H48.23V.994h.742V-11.452Z" transform="translate(186.705 391.311)"/>
  <path id="패스_109" data-name="패스 109" class="cls-3" d="M10436.79,1436.743h-110.178v24h110.178Z" transform="translate(-10053.92 -1063.592)"/>
  <path id="패스_1400" data-name="패스 1400" d="M7.77-8.022v.63h2.408v1.96H7.77v.63h2.408v2.828h.742v-9.464h-.742v3.416ZM7.854-9.8H4.718v-1.652H3.976V-9.8H.8v.616H7.854ZM2.3-6.02A1.826,1.826,0,0,1,4.34-7.756,1.826,1.826,0,0,1,6.384-6.02,1.808,1.808,0,0,1,4.34-4.3,1.808,1.808,0,0,1,2.3-6.02Zm4.8,0c0-1.428-1.12-2.338-2.758-2.338s-2.758.91-2.758,2.338S2.7-3.682,4.34-3.682,7.1-4.606,7.1-6.02ZM3.822.042V-2.8H3.08V.672h8.148V.042Zm19.04.126H16.576V-1.708h6.286Zm0-2.492H16.576V-4.13h-.742V.784H23.6V-4.13h-.742Zm-6.02-3.5a2.264,2.264,0,0,1-2.436-2.2,2.248,2.248,0,0,1,2.436-2.2,2.248,2.248,0,0,1,2.436,2.2A2.264,2.264,0,0,1,16.842-5.824Zm6.02-5.628v3.08H19.978a2.9,2.9,0,0,0-3.136-2.478,2.859,2.859,0,0,0-3.15,2.828,2.867,2.867,0,0,0,3.15,2.828,2.889,2.889,0,0,0,3.136-2.534h2.884v2.94H23.6v-6.664ZM35.2-6.272h-6.8v-2.17h6.8Zm.742-4.676H35.2v1.89h-6.8v-1.89H27.65v5.306h8.288Zm1.5,6.986h-11.3v.63h5.25V.98h.742V-3.332h5.306ZM42.98-10.3h-.742v2.478A6.922,6.922,0,0,1,38.906-2.31l.476.588a7.536,7.536,0,0,0,3.234-4.452,7.264,7.264,0,0,0,3.29,4.228l.434-.6a6.551,6.551,0,0,1-3.36-5.278Zm5.236-1.148v4.424H45.01v.616h3.206V.994h.742V-11.452Z" transform="translate(302.337 391.311)"/>
  <path id="패스_110" data-name="패스 110" class="cls-3" d="M10552.423,1436.743h-110.179v24h110.179Z" transform="translate(-10053.92 -1063.592)"/>
  <path id="패스_1401" data-name="패스 1401" d="M7.77-8.022v.63h2.408v1.96H7.77v.63h2.408v2.828h.742v-9.464h-.742v3.416ZM7.854-9.8H4.718v-1.652H3.976V-9.8H.8v.616H7.854ZM2.3-6.02A1.826,1.826,0,0,1,4.34-7.756,1.826,1.826,0,0,1,6.384-6.02,1.808,1.808,0,0,1,4.34-4.3,1.808,1.808,0,0,1,2.3-6.02Zm4.8,0c0-1.428-1.12-2.338-2.758-2.338s-2.758.91-2.758,2.338S2.7-3.682,4.34-3.682,7.1-4.606,7.1-6.02ZM3.822.042V-2.8H3.08V.672h8.148V.042Zm19.04.126H16.576V-1.708h6.286Zm0-2.492H16.576V-4.13h-.742V.784H23.6V-4.13h-.742Zm-6.02-3.5a2.264,2.264,0,0,1-2.436-2.2,2.248,2.248,0,0,1,2.436-2.2,2.248,2.248,0,0,1,2.436,2.2A2.264,2.264,0,0,1,16.842-5.824Zm6.02-5.628v3.08H19.978a2.9,2.9,0,0,0-3.136-2.478,2.859,2.859,0,0,0-3.15,2.828,2.867,2.867,0,0,0,3.15,2.828,2.889,2.889,0,0,0,3.136-2.534h2.884v2.94H23.6v-6.664Zm12.32,5.18h-6.8v-2.17h6.8Zm.742-4.676h-.742v1.89h-6.8v-1.89h-.742v5.306h8.288Zm1.5,6.986h-11.3v.63h5.25V.98h.742V-3.332h5.306ZM42.966-10.3h-.742v2.478A6.922,6.922,0,0,1,38.892-2.31l.476.588A7.536,7.536,0,0,0,42.6-6.174a7.264,7.264,0,0,0,3.29,4.228l.434-.6a6.551,6.551,0,0,1-3.36-5.278ZM48.2-11.452v4.424H45v.616H48.2V.994h.742V-11.452Z" transform="translate(417.968 391.311)"/>
  <line id="선_123" data-name="선 123" class="cls-3" y2="99.492" transform="translate(699.015 128.601)"/>
  <path id="패스_111" data-name="패스 111" class="cls-3" d="M10749.288,1195.736l3.647-3.665,3.647,3.665" transform="translate(-10053.92 -1063.592)"/>
  <path id="패스_112" data-name="패스 112" class="cls-3" d="M10749.288,1288.366l3.647,3.665,3.647-3.665" transform="translate(-10053.92 -1063.592)"/>
  <line id="선_124" data-name="선 124" class="cls-3" x2="92.003" transform="translate(531 252.252)"/>
  <path id="패스_113" data-name="패스 113" class="cls-3" d="M10585.834,1319.491l-3.664-3.647,3.664-3.648" transform="translate(-10053.92 -1063.592)"/>
  <line id="선_125" data-name="선 125" class="cls-8" y2="91.5" transform="translate(20.25 206.9)"/>
  <line id="선_126" data-name="선 126" class="cls-9" x2="494.424" transform="translate(23.256 299.9)"/>
  <line id="선_127" data-name="선 127" class="cls-8" y1="91.5" transform="translate(519.183 205.4)"/>
  <line id="선_128" data-name="선 128" class="cls-9" x1="494.424" transform="translate(21.753 203.9)"/>
  <path id="패스_114" data-name="패스 114" class="cls-6" d="M10074.17,1267.493h0m498.932,0h0m0,96h0m-498.932,0h0" transform="translate(-10053.92 -1063.592)"/>
  <rect id="사각형_29" data-name="사각형 29" class="cls-10" width="211.904" height="30" transform="translate(286.849 88.219)"/>
  <path id="패스_1388" data-name="패스 1388" class="cls-4" d="M1.38-11.49v1.005H6.27C6.03-8.2,4.065-6.435.78-5.55l.48.975C5.22-5.655,7.59-8.07,7.59-11.49Zm2.595,8.4H10.02V-.075H3.975ZM2.76.915h8.475v-5H2.76ZM13.23-9.06H11.235v-3.3h-1.23v7.65h1.23V-8.04H13.23Zm5.58-2.115H17.6V-8.76A7.129,7.129,0,0,1,14.13-2.745l.735.99A7.452,7.452,0,0,0,18.21-6.21a7.421,7.421,0,0,0,3.255,4.185L22.23-3a6.794,6.794,0,0,1-3.42-5.76Zm8.055,4.29h-2.22V-12.33h-1.23V1.11h1.23V-5.865h2.22Zm5.34-3.81c1.3,0,2.235.7,2.235,1.755s-.93,1.755-2.235,1.755c-1.32,0-2.25-.705-2.25-1.755S30.885-10.695,32.205-10.695Zm0,4.515c1.995,0,3.42-1.125,3.42-2.76s-1.425-2.775-3.42-2.775c-2.01,0-3.435,1.125-3.435,2.775S30.195-6.18,32.205-6.18Zm4.425.66a61.8,61.8,0,0,1-8.865.48L27.93-4c1.11,0,2.385-.015,3.72-.075V.69h1.23V-4.155a33.729,33.729,0,0,0,3.855-.45Zm.975-6.81V1.125h1.23V-12.33ZM48.36-4.395v.915h2.73V-2.1h1.23V-12.345H51.09v7.95Zm-2.745-6.5c1.275,0,2.145.57,2.145,1.425s-.87,1.44-2.145,1.44S43.47-8.6,43.47-9.465,44.34-10.89,45.615-10.89Zm0,3.78c1.965,0,3.315-.915,3.315-2.355,0-1.41-1.35-2.34-3.315-2.34s-3.315.93-3.315,2.34C42.3-8.025,43.65-7.11,45.615-7.11Zm-.48,4.53h1.23V-5.235c1.215-.075,2.46-.21,3.645-.39l-.1-.885a73.088,73.088,0,0,1-8.67.39L41.4-5.1c1.11,0,2.4-.015,3.735-.075ZM44.385-.2v-2.91h-1.23V.81h9.51V-.2Zm18.96-10.5H59.88V-12.33H58.65v1.635H55.17v.99h8.175ZM57.195-6.45c0-.945.84-1.545,2.07-1.545s2.055.6,2.055,1.545-.84,1.53-2.055,1.53S57.195-5.52,57.195-6.45ZM59.88-3.99c1.59-.2,2.61-1.125,2.61-2.46,0-1.515-1.305-2.49-3.225-2.49s-3.24.975-3.24,2.49c0,1.35,1.035,2.28,2.625,2.475v1.44c-1.335.045-2.625.06-3.765.06l.18,1.035a55.021,55.021,0,0,0,8.715-.54l-.09-.915c-1.23.165-2.535.255-3.81.315Zm4.665-8.34V1.11h1.23V-12.33Z" transform="translate(358.9 109.719)"/>
  <rect id="사각형_30" data-name="사각형 30" class="cls-10" width="211.904" height="30" transform="translate(286.849 128.125)"/>
  <path id="패스_1389" data-name="패스 1389" class="cls-4" d="M5.655.2A4.251,4.251,0,0,0,9.03-1.38l-.765-.87a3.342,3.342,0,0,1-2.55,1.23c-2.1,0-3.42-1.74-3.42-4.515C2.3-8.28,3.675-9.99,5.76-9.99A3,3,0,0,1,8.01-8.94l.75-.9A4.066,4.066,0,0,0,5.745-11.2C2.955-11.2.87-9.045.87-5.49S2.925.2,5.655.2Zm5.13-.2h6.51V-1.185H12.18v-4h4.17V-6.375H12.18v-3.45h4.95v-1.17H10.785ZM23.37.2c2.76,0,4.695-2.2,4.695-5.73S26.13-11.2,23.37-11.2s-4.695,2.145-4.695,5.67S20.61.2,23.37.2Zm0-1.215c-1.98,0-3.27-1.77-3.27-4.515,0-2.76,1.29-4.455,3.27-4.455,1.965,0,3.27,1.695,3.27,4.455C26.64-2.79,25.335-1.02,23.37-1.02Z" transform="translate(378.341 149.625)"/>
  <rect id="사각형_31" data-name="사각형 31" class="cls-11" width="152.023" height="30" transform="translate(41.18 219.752)"/>
  <path id="패스_1394" data-name="패스 1394" class="cls-4" d="M5.2-10.695c1.3,0,2.235.7,2.235,1.755S6.51-7.185,5.2-7.185c-1.32,0-2.25-.705-2.25-1.755S3.885-10.695,5.2-10.695Zm0,4.515c1.995,0,3.42-1.125,3.42-2.76S7.2-11.715,5.2-11.715c-2.01,0-3.435,1.125-3.435,2.775S3.195-6.18,5.2-6.18Zm4.425.66a61.8,61.8,0,0,1-8.865.48L.93-4C2.04-4,3.315-4.02,4.65-4.08V.69H5.88V-4.155a33.729,33.729,0,0,0,3.855-.45Zm.975-6.81V1.125h1.23V-12.33Zm4.485,1.44v.99h5.055c-.255,3.2-2.055,5.775-5.67,7.5l.66,1c4.47-2.19,6.255-5.61,6.255-9.5ZM24.1-12.345V1.11h1.23V-12.345ZM34.86-6.6a19.459,19.459,0,0,0,.345-3.99V-11.3h-6.69v1.005h5.49a17.1,17.1,0,0,1-.36,3.555Zm1.275.81c-1.365.2-2.9.3-4.365.36V-8.3H30.555v2.91c-1.02.015-2,.03-2.85.03l.12,1.005a53.915,53.915,0,0,0,8.4-.54ZM30.99-3.135H29.76V.81H38.7V-.2H30.99Zm7.275-4.83v-4.38h-1.23V-2.2h1.23v-4.74H40.2v-1.02Zm5.04,1.68H48.27V-11.1H42.03v1.005h5v2.8h-4.95v5.16h1.11a39.044,39.044,0,0,0,6.78-.495l-.12-1a39.538,39.538,0,0,1-6.54.48Zm7.8-6.075V1.125h1.23V-12.36ZM63.06-6.495a35.2,35.2,0,0,1-6.27.375V-7.89H61.6v-.975H56.79V-10.53h5.19v-.99H55.56v6.39h1.095a36.562,36.562,0,0,0,6.54-.39Zm-4.725,3.84h6.3V-.06h-6.3ZM57.135.93h8.7V-3.645h-8.7Zm7.47-13.26V-4.3h1.23V-12.33Z" transform="translate(83.292 241.252)"/>
  <rect id="사각형_32" data-name="사각형 32" class="cls-2" width="211.904" height="65" transform="translate(286.849 219.752)"/>
  <path id="패스_1393" data-name="패스 1393" class="cls-4" d="M5.2-10.695c1.3,0,2.235.7,2.235,1.755S6.51-7.185,5.2-7.185c-1.32,0-2.25-.705-2.25-1.755S3.885-10.695,5.2-10.695Zm0,4.515c1.995,0,3.42-1.125,3.42-2.76S7.2-11.715,5.2-11.715c-2.01,0-3.435,1.125-3.435,2.775S3.195-6.18,5.2-6.18Zm4.425.66a61.8,61.8,0,0,1-8.865.48L.93-4C2.04-4,3.315-4.02,4.65-4.08V.69H5.88V-4.155a33.729,33.729,0,0,0,3.855-.45Zm.975-6.81V1.125h1.23V-12.33Zm4.485,1.44v.99h5.055c-.255,3.2-2.055,5.775-5.67,7.5l.66,1c4.47-2.19,6.255-5.61,6.255-9.5ZM24.1-12.345V1.11h1.23V-12.345ZM34.86-6.6a19.459,19.459,0,0,0,.345-3.99V-11.3h-6.69v1.005h5.49a17.1,17.1,0,0,1-.36,3.555Zm1.275.81c-1.365.2-2.9.3-4.365.36V-8.3H30.555v2.91c-1.02.015-2,.03-2.85.03l.12,1.005a53.915,53.915,0,0,0,8.4-.54ZM30.99-3.135H29.76V.81H38.7V-.2H30.99Zm7.275-4.83v-4.38h-1.23V-2.2h1.23v-4.74H40.2v-1.02Zm5.055,1.68h4.965V-11.1h-6.24v1.005h5v2.8H42.09v5.16H43.2a39.044,39.044,0,0,0,6.78-.495l-.12-1a39.538,39.538,0,0,1-6.54.48Zm7.8-6.075V1.125h1.23V-12.36ZM63.075-6.495a35.2,35.2,0,0,1-6.27.375V-7.89H61.62v-.975H56.805V-10.53h5.19v-.99h-6.42v6.39H56.67a36.562,36.562,0,0,0,6.54-.39ZM58.35-2.655h6.3V-.06h-6.3ZM57.15.93h8.7V-3.645h-8.7Zm7.47-13.26V-4.3h1.23V-12.33Z" transform="translate(358.9 258.852)"/>
  <rect id="사각형_33" data-name="사각형 33" class="cls-11" width="152.023" height="30" transform="translate(41.18 254.752)"/>
  <path id="패스_1395" data-name="패스 1395" class="cls-4" d="M5.2-10.695c1.3,0,2.235.7,2.235,1.755S6.51-7.185,5.2-7.185c-1.32,0-2.25-.705-2.25-1.755S3.885-10.695,5.2-10.695Zm0,4.515c1.995,0,3.42-1.125,3.42-2.76S7.2-11.715,5.2-11.715c-2.01,0-3.435,1.125-3.435,2.775S3.195-6.18,5.2-6.18Zm4.425.66a61.8,61.8,0,0,1-8.865.48L.93-4C2.04-4,3.315-4.02,4.65-4.08V.69H5.88V-4.155a33.729,33.729,0,0,0,3.855-.45Zm.975-6.81V1.125h1.23V-12.33Zm4.485,1.44v.99h5.055c-.255,3.2-2.055,5.775-5.67,7.5l.66,1c4.47-2.19,6.255-5.61,6.255-9.5ZM24.1-12.345V1.11h1.23V-12.345Zm8.49,2.4H35.76v-1.02H28.245v1.02h3.12v1.71A6.882,6.882,0,0,1,27.8-2.46l.72.99A7.545,7.545,0,0,0,31.98-5.91,7.108,7.108,0,0,0,35.5-1.8l.69-.99a6.265,6.265,0,0,1-3.6-5.445Zm4.98-2.385V1.11h1.23V-12.33Zm10.77,7.935v.915h2.73V-2.1h1.23V-12.345h-1.23v7.95ZM45.6-10.89c1.275,0,2.145.57,2.145,1.425s-.87,1.44-2.145,1.44-2.145-.57-2.145-1.44S44.325-10.89,45.6-10.89Zm0,3.78c1.965,0,3.315-.915,3.315-2.355,0-1.41-1.35-2.34-3.315-2.34s-3.315.93-3.315,2.34C42.285-8.025,43.635-7.11,45.6-7.11Zm-.48,4.53h1.23V-5.235c1.215-.075,2.46-.21,3.645-.39l-.1-.885a73.088,73.088,0,0,1-8.67.39l.165,1.02c1.11,0,2.4-.015,3.735-.075ZM44.37-.2v-2.91H43.14V.81h9.51V-.2Zm18.69-6.3a35.2,35.2,0,0,1-6.27.375V-7.89H61.6v-.975H56.79V-10.53h5.19v-.99H55.56v6.39h1.095a36.562,36.562,0,0,0,6.54-.39Zm-4.725,3.84h6.3V-.06h-6.3ZM57.135.93h8.7V-3.645h-8.7Zm7.47-13.26V-4.3h1.23V-12.33Z" transform="translate(83.292 276.252)"/>
  <line id="선_129" data-name="선 129" class="cls-3" y2="24.966" transform="translate(392.8 168.398)"/>
  <path id="패스_115" data-name="패스 115" class="cls-3" d="M10443.073,1235.515l3.647-3.665,3.647,3.665" transform="translate(-10053.92 -1063.592)"/>
  <line id="선_130" data-name="선 130" class="cls-3" x2="69.069" transform="translate(205.521 234.68)"/>
  <path id="패스_116" data-name="패스 116" class="cls-3" d="M10262.965,1301.919l-3.665-3.647,3.665-3.648" transform="translate(-10053.92 -1063.592)"/>
  <path id="패스_117" data-name="패스 117" class="cls-3" d="M10324.927,1301.918l3.665-3.647-3.665-3.648" transform="translate(-10053.92 -1063.592)"/>
  <line id="선_131" data-name="선 131" class="cls-3" x2="69.069" transform="translate(205.521 269.752)"/>
  <path id="패스_118" data-name="패스 118" class="cls-3" d="M10262.965,1336.992l-3.665-3.647,3.665-3.648" transform="translate(-10053.92 -1063.592)"/>
  <path id="패스_119" data-name="패스 119" class="cls-3" d="M10324.927,1336.991l3.665-3.647-3.665-3.648" transform="translate(-10053.92 -1063.592)"/>
  <line id="선_132" data-name="선 132" class="cls-12" y2="61.035" transform="translate(20.25 355.377)"/>
  <line id="선_133" data-name="선 133" class="cls-9" x2="494.424" transform="translate(23.256 417.9)"/>
  <line id="선_134" data-name="선 134" class="cls-12" y1="61.035" transform="translate(519.183 353.889)"/>
  <line id="선_135" data-name="선 135" class="cls-9" x1="494.424" transform="translate(21.753 352.4)"/>
  <path id="패스_120" data-name="패스 120" class="cls-6" d="M10074.17,1415.993h0m498.932,0h0m0,65.5h0m-498.932,0h0" transform="translate(-10053.92 -1063.592)"/>
  <line id="선_136" data-name="선 136" class="cls-3" y2="37" transform="translate(364.09 307.681)"/>
  <path id="패스_121" data-name="패스 121" class="cls-3" d="M10414.362,1374.8l3.647-3.665,3.647,3.665" transform="translate(-10053.92 -1063.592)"/>
  <line id="선_137" data-name="선 137" class="cls-3" y2="37" transform="translate(421.511 307.681)"/>
  <path id="패스_122" data-name="패스 122" class="cls-3" d="M10471.783,1404.69l3.646,3.665,3.648-3.665" transform="translate(-10053.92 -1063.592)"/>
  <g id="그룹_18" data-name="그룹 18" transform="translate(-10053.92 -1063.592)">
    <path id="패스_123" data-name="패스 123" class="cls-11" d="M10651.343,1302.786a10.4,10.4,0,1,0-10.4-10.4,10.4,10.4,0,0,0,10.4,10.4"/>
  </g>
  <path id="패스_1405" data-name="패스 1405" class="cls-4" d="M3.43.166A3.108,3.108,0,0,0,6.6-3.1a2.709,2.709,0,0,0-2.867-3,2.656,2.656,0,0,0-1.293.333l.218-2.419H6.157V-9.421H1.382L1.1-4.954l.717.474a2.479,2.479,0,0,1,1.51-.538A1.747,1.747,0,0,1,5.12-3.046a1.841,1.841,0,0,1-1.869,2.01,3.014,3.014,0,0,1-2.2-1.011l-.7.96A4.169,4.169,0,0,0,3.43.166Z" transform="translate(593.775 233.821)"/>
  <g id="그룹_19" data-name="그룹 19" transform="translate(-10053.92 -1063.592)">
    <path id="패스_124" data-name="패스 124" class="cls-11" d="M10479.255,1254.626a10.4,10.4,0,1,0-10.4-10.4,10.4,10.4,0,0,0,10.4,10.4"/>
  </g>
  <path id="패스_1392" data-name="패스 1392" class="cls-4" d="M3.43.166c1.728,0,3.149-1,3.149-2.7A2.385,2.385,0,0,0,4.634-4.89v-.064A2.277,2.277,0,0,0,6.259-7.168c0-1.562-1.19-2.432-2.88-2.432a3.97,3.97,0,0,0-2.7,1.139l.768.922a2.759,2.759,0,0,1,1.882-.9,1.319,1.319,0,0,1,1.446,1.37c0,.947-.614,1.651-2.47,1.651v1.088c2.125,0,2.79.678,2.79,1.728A1.582,1.582,0,0,1,3.3-1.037,3.044,3.044,0,0,1,1.075-2.074l-.717.947A3.91,3.91,0,0,0,3.43.166Z" transform="translate(421.688 185.662)"/>
  <g id="그룹_20" data-name="그룹 20" transform="translate(-10053.92 -1063.592)">
    <path id="패스_125" data-name="패스 125" class="cls-11" d="M10390.924,1400.143a10.4,10.4,0,1,0-10.4-10.4,10.4,10.4,0,0,0,10.4,10.4"/>
  </g>
  <path id="패스_1396" data-name="패스 1396" class="cls-4" d="M1.1,0H6.477V-1.216H4.634v-8.2H3.52A5.787,5.787,0,0,1,1.472-8.7v.934h1.69v6.554H1.1Z" transform="translate(333.356 331.179)"/>
  <g id="그룹_21" data-name="그룹 21" transform="translate(-10053.92 -1063.592)">
    <path id="패스_126" data-name="패스 126" class="cls-11" d="M10508.279,1400.143a10.4,10.4,0,1,0-10.4-10.4,10.4,10.4,0,0,0,10.4,10.4"/>
  </g>
  <path id="패스_1397" data-name="패스 1397" class="cls-4" d="M1.741-3.674,3.6-6.515c.269-.486.525-.973.755-1.446H4.4c-.026.512-.077,1.306-.077,1.818v2.47Zm5.171,0h-1.2V-9.421h-1.7L.256-3.52v.986h4.07V0H5.709V-2.534h1.2Z" transform="translate(450.711 331.179)"/>
  <g id="그룹_22" data-name="그룹 22" transform="translate(-10053.92 -1063.592)">
    <path id="패스_127" data-name="패스 127" class="cls-11" d="M10272.88,1254.626a10.4,10.4,0,1,0-10.4-10.4,10.4,10.4,0,0,0,10.4,10.4"/>
  </g>
  <path id="패스_1390" data-name="패스 1390" class="cls-4" d="M.563,0h6.08V-1.254H4.288c-.461,0-1.05.038-1.536.09C4.749-3.072,6.2-4.954,6.2-6.771A2.664,2.664,0,0,0,3.354-9.6,3.7,3.7,0,0,0,.486-8.192l.832.819a2.555,2.555,0,0,1,1.856-1.05,1.536,1.536,0,0,1,1.6,1.728c0,1.549-1.434,3.379-4.211,5.837Z" transform="translate(215.313 185.662)"/>
  <g id="그룹_23" data-name="그룹 23" transform="translate(-10053.92 -1063.592)">
    <path id="패스_128" data-name="패스 128" class="cls-11" d="M10315.012,1254.626a10.4,10.4,0,1,0-10.4-10.4,10.4,10.4,0,0,0,10.4,10.4"/>
  </g>
  <path id="패스_1391" data-name="패스 1391" class="cls-4" d="M1.741-3.674,3.6-6.515c.269-.486.525-.973.755-1.446H4.4c-.026.512-.077,1.306-.077,1.818v2.47Zm5.171,0h-1.2V-9.421h-1.7L.256-3.52v.986h4.07V0H5.709V-2.534h1.2Z" transform="translate(257.443 185.662)"/>
</svg>
