<svg id="구성_요소_87_1" data-name="구성 요소 87 – 1" xmlns="http://www.w3.org/2000/svg" width="836.001" height="307.253" viewBox="0 0 836.001 307.253">
  <defs>
    <style>
      .cls-1 {
        fill: #0a5049;
      }

      .cls-14, .cls-19, .cls-2, .cls-7 {
        fill: #fff;
      }

      .cls-2 {
        stroke: #0a5049;
        stroke-width: 0.5px;
      }

      .cls-15, .cls-16, .cls-17, .cls-18, .cls-21, .cls-3 {
        fill: #1e2323;
      }

      .cls-3, .cls-7 {
        font-size: 15px;
      }

      .cls-3 {
        font-family: NotoSansKR-Regular, Noto Sans KR;
      }

      .cls-15, .cls-18, .cls-3, .cls-4, .cls-7 {
        letter-spacing: -0.02em;
      }

      .cls-4 {
        fill: #bbbcbd;
        font-family: NotoSansKR-Bold, Noto Sans KR;
        font-weight: 700;
      }

      .cls-15, .cls-16, .cls-17, .cls-21, .cls-4 {
        font-size: 13px;
      }

      .cls-5 {
        fill: #d9dada;
      }

      .cls-6 {
        fill: #92bb48;
      }

      .cls-7 {
        font-family: NotoSansKR-Medium, Noto Sans KR;
        font-weight: 500;
      }

      .cls-10, .cls-11, .cls-13, .cls-20, .cls-8, .cls-9 {
        fill: none;
      }

      .cls-10, .cls-13, .cls-8, .cls-9 {
        stroke: #42454a;
      }

      .cls-13, .cls-8, .cls-9 {
        stroke-linecap: round;
        stroke-linejoin: round;
      }

      .cls-8 {
        stroke-dasharray: 0 1.955;
      }

      .cls-11 {
        stroke: #1e2323;
        stroke-width: 0.7px;
      }

      .cls-12 {
        fill: #c6da97;
      }

      .cls-13 {
        stroke-dasharray: 0 2.9;
      }

      .cls-14, .cls-20 {
        stroke: #92bb48;
      }

      .cls-15, .cls-16, .cls-17, .cls-18, .cls-21 {
        font-family: NotoSansKR-Light, Noto Sans KR;
        font-weight: 300;
      }

      .cls-17 {
        letter-spacing: -0.047em;
      }

      .cls-18 {
        font-size: 8px;
      }

      .cls-21 {
        letter-spacing: 0.02em;
      }
    </style>
  </defs>
  <path id="패스_5040" data-name="패스 5040" class="cls-1" d="M149.73-282.441H753.34v-37.25H149.73Z" transform="translate(-5.132 319.691)"/>
  <path id="패스_5041" data-name="패스 5041" class="cls-2" d="M144.7-285.941h603.11v-33.5H144.7Z" transform="translate(-5.132 319.691)"/>
  <text id="친환경_제품과_서비스_비즈니스를_설계" data-name="친환경 제품과 서비스, 비즈니스를 설계" class="cls-3" transform="translate(323.229 23.046)"><tspan x="0" y="0">친환경 제품과 서비스, 비즈니스를 설계</tspan></text>
  <g id="그룹" transform="translate(-5.132 309.691)">
    <text id="PRODUC" class="cls-4" transform="translate(379.282 -223.641)"><tspan x="0" y="0">PRODUC</tspan></text>
    <text id="T_SERVICE" data-name="T &amp; SERVICE" class="cls-4" transform="translate(432.608 -223.641)"><tspan x="0" y="0">T &amp; SERVICE</tspan></text>
  </g>
  <path id="패스_5042" data-name="패스 5042" class="cls-5" d="M203.845-182.678H841.133v-30H203.845Z" transform="translate(-5.132 309.691)"/>
  <path id="패스_5043" data-name="패스 5043" class="cls-6" d="M5.132-182.678h158v-30h-158Z" transform="translate(-5.132 309.691)"/>
  <text id="최종_검증" data-name="최종 검증" class="cls-7" transform="translate(10.973 118.613)"><tspan x="0" y="0">최종 검증</tspan></text>
  <g id="그룹_4810" data-name="그룹 4810" transform="translate(167.279 111.573)">
    <path id="패스_5044" data-name="패스 5044" class="cls-8" d="M0,0H24.44"/>
  </g>
  <g id="그룹_4811" data-name="그룹 4811" transform="translate(165.324 111.573)">
    <path id="패스_5045" data-name="패스 5045" class="cls-9" d="M0,0H0M27.373,0h0"/>
  </g>
  <g id="그룹_4812" data-name="그룹 4812" transform="translate(188.692 107.849)">
    <path id="패스_5046" data-name="패스 5046" class="cls-10" d="M0,0,4.005,3.724,0,7.447"/>
  </g>
  <text id="_01_개발_서비스_회수_재활용_실행_구현_" data-name="01       개발/서비스/회수‧재활용 실행(구현)" class="cls-3" transform="translate(225.542 118.613)"><tspan x="0" y="0" xml:space="preserve">01       개발/서비스/회수‧재활용 실행(구현)</tspan></text>
  <g id="그룹_4813" data-name="그룹 4813" transform="translate(242.558 111.573)">
    <path id="패스_5047" data-name="패스 5047" class="cls-11" d="M0,0H11.443"/>
  </g>
  <path id="패스_5048" data-name="패스 5048" class="cls-5" d="M203.845-108.178H841.133v-30H203.845Z" transform="translate(-5.132 309.691)"/>
  <path id="패스_5049" data-name="패스 5049" class="cls-6" d="M5.132-108.178h158v-30h-158Z" transform="translate(-5.132 309.691)"/>
  <text id="친환경_목표_설정" data-name="친환경 목표 설정" class="cls-7" transform="translate(10.973 193.113)"><tspan x="0" y="0">친환경 목표 설정</tspan></text>
  <g id="그룹_4814" data-name="그룹 4814" transform="translate(167.279 186.073)">
    <path id="패스_5050" data-name="패스 5050" class="cls-8" d="M0,0H24.44"/>
  </g>
  <g id="그룹_4815" data-name="그룹 4815" transform="translate(165.324 186.073)">
    <path id="패스_5051" data-name="패스 5051" class="cls-9" d="M0,0H0M27.373,0h0"/>
  </g>
  <g id="그룹_4816" data-name="그룹 4816" transform="translate(188.692 182.349)">
    <path id="패스_5052" data-name="패스 5052" class="cls-10" d="M0,0,4.005,3.724,0,7.447"/>
  </g>
  <text id="_03_개발_서비스_회수_재활용_기획_" data-name="03       개발/서비스/회수‧재활용 (기획)" class="cls-3" transform="translate(225.542 193.113)"><tspan x="0" y="0" xml:space="preserve">03       개발/서비스/회수‧재활용 (기획)</tspan></text>
  <g id="그룹_4817" data-name="그룹 4817" transform="translate(242.558 186.073)">
    <path id="패스_5053" data-name="패스 5053" class="cls-11" d="M0,0H11.443"/>
  </g>
  <path id="패스_5054" data-name="패스 5054" class="cls-5" d="M203.845-145.178H841.133v-30H203.845Z" transform="translate(-5.132 309.691)"/>
  <path id="패스_5055" data-name="패스 5055" class="cls-6" d="M5.132-145.178h158v-30h-158Z" transform="translate(-5.132 309.691)"/>
  <text id="평가_및_개선" data-name="평가 및 개선" class="cls-7" transform="translate(10.973 156.113)"><tspan x="0" y="0">평가 및 개선</tspan></text>
  <g id="그룹_4818" data-name="그룹 4818" transform="translate(167.279 149.073)">
    <path id="패스_5056" data-name="패스 5056" class="cls-8" d="M0,0H24.44"/>
  </g>
  <g id="그룹_4819" data-name="그룹 4819" transform="translate(165.324 149.073)">
    <path id="패스_5057" data-name="패스 5057" class="cls-9" d="M0,0H0M27.373,0h0"/>
  </g>
  <g id="그룹_4820" data-name="그룹 4820" transform="translate(188.692 145.349)">
    <path id="패스_5058" data-name="패스 5058" class="cls-10" d="M0,0,4.005,3.724,0,7.447"/>
  </g>
  <text id="_02_개발_서비스_회수_재활용_계획_" data-name="02       개발/서비스/회수‧재활용 (계획)" class="cls-3" transform="translate(225.542 156.113)"><tspan x="0" y="0" xml:space="preserve">02       개발/서비스/회수‧재활용 (계획)</tspan></text>
  <g id="그룹_4821" data-name="그룹 4821" transform="translate(242.558 149.073)">
    <path id="패스_5059" data-name="패스 5059" class="cls-11" d="M0,0H11.443"/>
  </g>
  <path id="패스_5060" data-name="패스 5060" class="cls-6" d="M5.132-70.678h158v-30h-158Z" transform="translate(-5.132 309.691)"/>
  <text id="친환경_프로세스" data-name="친환경 프로세스" class="cls-7" transform="translate(10.973 230.613)"><tspan x="0" y="0">친환경 프로세스</tspan></text>
  <g id="그룹_4822" data-name="그룹 4822" transform="translate(167.279 223.573)">
    <path id="패스_5061" data-name="패스 5061" class="cls-8" d="M0,0H24.44"/>
  </g>
  <g id="그룹_4823" data-name="그룹 4823" transform="translate(165.324 223.573)">
    <path id="패스_5062" data-name="패스 5062" class="cls-9" d="M0,0H0M27.373,0h0"/>
  </g>
  <g id="그룹_4824" data-name="그룹 4824" transform="translate(188.692 219.849)">
    <path id="패스_5063" data-name="패스 5063" class="cls-10" d="M0,0,4.005,3.724,0,7.447"/>
  </g>
  <path id="패스_5068" data-name="패스 5068" class="cls-12" d="M203.845-70.678H352.6v-30H203.845Z" transform="translate(-5.132 309.691)"/>
  <text id="제품개발_프로세스" data-name="제품개발 프로세스" class="cls-3" transform="translate(216.992 230.613)"><tspan x="0" y="0">제품개발 프로세스</tspan></text>
  <path id="패스_5069" data-name="패스 5069" class="cls-12" d="M529.53-70.678H678.289v-30H529.53Z" transform="translate(-5.132 309.691)"/>
  <text id="렌탈_서비스" data-name="렌탈 서비스" class="cls-3" transform="translate(563.998 230.613)"><tspan x="0" y="0">렌탈 서비스</tspan></text>
  <path id="패스_5070" data-name="패스 5070" class="cls-12" d="M366.688-70.678H515.447v-30H366.688Z" transform="translate(-5.132 309.691)"/>
  <g id="그룹-2" data-name="그룹" transform="translate(-5.132 309.691)">
    <text id="청정_생산" data-name="청정 생산" class="cls-3" transform="translate(413.037 -79.078)"><tspan x="0" y="0">청정 생산</tspan></text>
    <text id="_" data-name=" " class="cls-3" transform="translate(471.237 -79.078)"><tspan x="0" y="0"> </tspan></text>
  </g>
  <path id="패스_5071" data-name="패스 5071" class="cls-12" d="M692.373-70.678H841.132v-30H692.373Z" transform="translate(-5.132 309.691)"/>
  <g id="그룹-3" data-name="그룹" transform="translate(-5.132 309.691)">
    <text id="회수" class="cls-3" transform="translate(702.123 -79.078)"><tspan x="0" y="0">회수</tspan></text>
    <text id="_2" data-name="‧" class="cls-3" transform="translate(724.623 -79.078)"><tspan x="0" y="0">‧</tspan></text>
    <text id="재활용_프로세스" data-name="재활용 프로세스" class="cls-3" transform="translate(734.823 -79.078)"><tspan x="0" y="0">재활용 프로세스</tspan></text>
  </g>
  <g id="그룹_4829" data-name="그룹 4829" transform="translate(354.544 235.613)">
    <path id="패스_5072" data-name="패스 5072" class="cls-13" d="M0,0V-24.65"/>
  </g>
  <g id="그룹_4830" data-name="그룹 4830" transform="translate(354.544 238.513)">
    <path id="패스_5073" data-name="패스 5073" class="cls-9" d="M0,0H0M0-29H0"/>
  </g>
  <g id="그룹_4831" data-name="그룹 4831" transform="translate(517.357 235.613)">
    <path id="패스_5074" data-name="패스 5074" class="cls-13" d="M0,0V-24.65"/>
  </g>
  <g id="그룹_4832" data-name="그룹 4832" transform="translate(517.357 238.513)">
    <path id="패스_5075" data-name="패스 5075" class="cls-9" d="M0,0H0M0-29H0"/>
  </g>
  <g id="그룹_4833" data-name="그룹 4833" transform="translate(680.171 235.613)">
    <path id="패스_5076" data-name="패스 5076" class="cls-13" d="M0,0V-24.65"/>
  </g>
  <g id="그룹_4834" data-name="그룹 4834" transform="translate(680.171 238.513)">
    <path id="패스_5077" data-name="패스 5077" class="cls-9" d="M0,0H0M0-29H0"/>
  </g>
  <path id="패스_5078" data-name="패스 5078" class="cls-6" d="M697.906-2.438H841.132V-53.329H697.906Z" transform="translate(-5.132 309.691)"/>
  <path id="패스_5079" data-name="패스 5079" class="cls-14" d="M692.873-4.937H835.6v-47.5H692.873Z" transform="translate(-5.132 309.691)"/>
  <g id="그룹-4" data-name="그룹" transform="translate(-5.132 309.691)">
    <text id="자원사용_저감" data-name="자원사용 저감" class="cls-15" transform="translate(727.318 -32.248)"><tspan x="0" y="0">자원사용 저감</tspan></text>
    <text id="재활용성_증가" data-name="재활용성 증가" class="cls-15" transform="translate(727.318 -15.244)"><tspan x="0" y="0">재활용성 증가</tspan></text>
    <text id="_3" data-name=" " class="cls-15" transform="translate(801.158 -15.244)"><tspan x="0" y="0"> </tspan></text>
  </g>
  <path id="패스_5080" data-name="패스 5080" class="cls-6" d="M535.063-2.438H678.289V-53.329H535.063Z" transform="translate(-5.132 309.691)"/>
  <path id="패스_5081" data-name="패스 5081" class="cls-14" d="M530.03-4.937H672.759v-47.5H530.03Z" transform="translate(-5.132 309.691)"/>
  <text id="생활환경_개선" data-name="생활환경 개선" class="cls-15" transform="translate(559.343 285.253)"><tspan x="0" y="0">생활환경 개선</tspan></text>
  <path id="패스_5082" data-name="패스 5082" class="cls-6" d="M372.57-2.438H515.447V-53.329H372.57Z" transform="translate(-5.132 309.691)"/>
  <path id="패스_5083" data-name="패스 5083" class="cls-14" d="M367.188-4.937H509.6v-47.5H367.188Z" transform="translate(-5.132 309.691)"/>
  <g id="그룹-5" data-name="그룹" transform="translate(-5.132 309.691)">
    <text id="에너지효율율" class="cls-15" transform="translate(399.384 -32.248)"><tspan x="0" y="0">에너지효율율</tspan></text>
    <text id="_4" data-name=" " class="cls-16" transform="translate(469.844 -32.248)"><tspan x="0" y="0"> </tspan></text>
    <text id="CO" class="cls-17" transform="translate(405.637 -15.244)"><tspan x="0" y="0">CO</tspan></text>
  </g>
  <text id="_2_" data-name="2 " class="cls-18" transform="translate(417.224 294.772)"><tspan x="0" y="0">2 </tspan></text>
  <text id="배출량" class="cls-15" transform="translate(423.097 294.443)"><tspan x="0" y="0">배출량</tspan></text>
  <g id="그룹_4835" data-name="그룹 4835" transform="translate(204.769 256.772)">
    <path id="패스_5084" data-name="패스 5084" class="cls-6" d="M0,0V50.481l142.7-.409V-.409Z"/>
  </g>
  <g id="그룹_4836" data-name="그룹 4836" transform="translate(199.213 257.254)">
    <path id="패스_5085" data-name="패스 5085" class="cls-19" d="M0,0V47.5l142.253-.39V-.39Z"/>
  </g>
  <g id="그룹_4837" data-name="그룹 4837" transform="translate(199.213 257.254)">
    <path id="패스_5086" data-name="패스 5086" class="cls-20" d="M0,0V47.5l142.253-.39V-.39Z"/>
  </g>
  <g id="그룹-6" data-name="그룹" transform="translate(-5.132 309.691)">
    <text id="제·부품" class="cls-21" transform="translate(255.704 -31.637)"><tspan x="0" y="0">제·부품</tspan></text>
    <text id="_5" data-name=" " class="cls-16" transform="translate(295.107 -31.637)"><tspan x="0" y="0"> </tspan></text>
  </g>
  <text id="화학물질안전성" class="cls-15" transform="translate(229.193 295.054)"><tspan x="0" y="0">화학물질안전성</tspan></text>
  <g id="그룹_4839" data-name="그룹 4839" transform="translate(273.091 239.013)">
    <path id="패스_5088" data-name="패스 5088" class="cls-20" d="M0,0V17.74"/>
  </g>
  <g id="그룹_4840" data-name="그룹 4840" transform="translate(435.935 239.013)">
    <path id="패스_5089" data-name="패스 5089" class="cls-20" d="M0,0V17.74"/>
  </g>
  <g id="그룹_4841" data-name="그룹 4841" transform="translate(598.779 239.013)">
    <path id="패스_5090" data-name="패스 5090" class="cls-20" d="M0,0V17.74"/>
  </g>
  <g id="그룹_4842" data-name="그룹 4842" transform="translate(761.623 239.013)">
    <path id="패스_5091" data-name="패스 5091" class="cls-20" d="M0,0V17.74"/>
  </g>
</svg>
