<svg id="구성_요소_88_1" data-name="구성 요소 88 – 1" xmlns="http://www.w3.org/2000/svg" width="836.001" height="307.253" viewBox="0 0 836.001 307.253">
  <defs>
    <style>
      .cls-1 {
        fill: #0a5049;
      }

      .cls-15, .cls-2, .cls-6 {
        fill: #fff;
      }

      .cls-2 {
        stroke: #0a5049;
        stroke-width: 0.5px;
      }

      .cls-3 {
        fill: #bbbcbd;
      }

      .cls-4 {
        fill: #d9dada;
      }

      .cls-5 {
        fill: #92bb48;
      }

      .cls-11, .cls-14, .cls-18, .cls-7, .cls-8, .cls-9 {
        fill: none;
      }

      .cls-14, .cls-7, .cls-8, .cls-9 {
        stroke: #42454a;
      }

      .cls-14, .cls-7, .cls-8 {
        stroke-linecap: round;
        stroke-linejoin: round;
      }

      .cls-7 {
        stroke-dasharray: 0 1.955;
      }

      .cls-10, .cls-13, .cls-16, .cls-17 {
        fill: #1e2323;
      }

      .cls-11 {
        stroke: #1e2323;
        stroke-width: 0.7px;
      }

      .cls-12 {
        fill: #c6da97;
      }

      .cls-13 {
        font-size: 15px;
        font-family: NotoSansKR-Regular, Noto Sans KR;
      }

      .cls-13, .cls-16 {
        letter-spacing: -0.02em;
      }

      .cls-14 {
        stroke-dasharray: 0 2.9;
      }

      .cls-15, .cls-18 {
        stroke: #92bb48;
      }

      .cls-16, .cls-17 {
        font-size: 13px;
        font-family: NotoSansKR-Light, Noto Sans KR;
        font-weight: 300;
      }
    </style>
  </defs>
  <path id="패스_5040" data-name="패스 5040" class="cls-1" d="M149.73-282.441H753.34v-37.25H149.73Z" transform="translate(-5.132 319.691)"/>
  <path id="패스_5041" data-name="패스 5041" class="cls-2" d="M144.7-285.941h603.11v-33.5H144.7Z" transform="translate(-5.132 319.691)"/>
  <g id="그룹" transform="translate(-5.132 309.691)">
    <path id="패스_8780" data-name="패스 8780" class="cls-3" d="M1.183,0H3.107V-3.419H4.394c2.067,0,3.718-.988,3.718-3.185,0-2.275-1.638-3.016-3.77-3.016H1.183ZM3.107-4.94V-8.1H4.2c1.326,0,2.028.377,2.028,1.495S5.59-4.94,4.264-4.94ZM11.518-8.1h1.248c1.235,0,1.911.351,1.911,1.391S14-5.161,12.766-5.161H11.518ZM16.978,0,14.729-3.939a2.754,2.754,0,0,0,1.833-2.769c0-2.21-1.6-2.912-3.614-2.912H9.594V0h1.924V-3.64h1.339L14.833,0Zm5.044.182c2.548,0,4.3-1.911,4.3-5.031S24.57-9.8,22.022-9.8s-4.3,1.82-4.3,4.953S19.474.182,22.022.182Zm0-1.664c-1.43,0-2.34-1.313-2.34-3.367s.91-3.3,2.34-3.3,2.34,1.235,2.34,3.3S23.452-1.482,22.022-1.482ZM27.95,0h2.743c2.834,0,4.654-1.612,4.654-4.849S33.527-9.62,30.589-9.62H27.95Zm1.924-1.547V-8.086h.6c1.794,0,2.912.884,2.912,3.237s-1.118,3.3-2.912,3.3ZM40.664.182c2.353,0,3.718-1.313,3.718-4.511V-9.62H42.536v5.46c0,2-.728,2.678-1.872,2.678s-1.82-.676-1.82-2.678V-9.62H36.92v5.291C36.92-1.131,38.324.182,40.664.182Zm9.7,0A3.893,3.893,0,0,0,53.43-1.235l-1.014-1.2a2.675,2.675,0,0,1-1.989.949c-1.521,0-2.509-1.261-2.509-3.354,0-2.067,1.092-3.315,2.548-3.315a2.481,2.481,0,0,1,1.768.806l1.014-1.222A3.924,3.924,0,0,0,50.427-9.8C48-9.8,45.955-7.943,45.955-4.771,45.955-1.56,47.931.182,50.362.182Z" transform="translate(379.282 -223.641)"/>
    <path id="패스_8781" data-name="패스 8781" class="cls-3" d="M3.094,0H5.018V-8.021h2.73v-1.6H.39v1.6h2.7Zm9.672-2.665a1.849,1.849,0,0,1,.793-1.352A13.618,13.618,0,0,0,15.73-1.768a2.607,2.607,0,0,1-1.4.481A1.406,1.406,0,0,1,12.766-2.665Zm.962-4.693c0-.715.4-1.17.962-1.17.507,0,.728.351.728.832,0,.7-.585,1.17-1.339,1.625A3,3,0,0,1,13.728-7.358ZM19.9-1.378a5.841,5.841,0,0,1-1.7-.689,10.573,10.573,0,0,0,1.625-3.3H18.1a7.255,7.255,0,0,1-1.183,2.444,12.178,12.178,0,0,1-2.08-2C15.86-5.642,16.9-6.435,16.9-7.709A2.033,2.033,0,0,0,14.664-9.8a2.4,2.4,0,0,0-2.522,2.444,4.54,4.54,0,0,0,.611,2.08,3.192,3.192,0,0,0-1.807,2.73c0,1.495,1.131,2.73,3.146,2.73A4.655,4.655,0,0,0,17.043-.832,7.768,7.768,0,0,0,19.435.182ZM26.65.182c2.223,0,3.536-1.339,3.536-2.912a2.658,2.658,0,0,0-1.937-2.613l-1.261-.533c-.819-.325-1.508-.572-1.508-1.261,0-.637.546-1.014,1.391-1.014a3.069,3.069,0,0,1,2.041.793l.975-1.209A4.269,4.269,0,0,0,26.871-9.8c-1.95,0-3.328,1.209-3.328,2.782a2.787,2.787,0,0,0,1.95,2.587l1.287.546c.858.364,1.443.585,1.443,1.3,0,.676-.533,1.1-1.534,1.1a3.785,3.785,0,0,1-2.444-1.066l-1.1,1.326A5.126,5.126,0,0,0,26.65.182ZM31.629,0h6.045V-1.612H33.553V-4.186h3.38V-5.8h-3.38V-8.021h3.978v-1.6h-5.9Zm9.659-8.1h1.248c1.235,0,1.911.351,1.911,1.391s-.676,1.547-1.911,1.547H41.288ZM46.748,0,44.5-3.939a2.754,2.754,0,0,0,1.833-2.769c0-2.21-1.6-2.912-3.614-2.912H39.364V0h1.924V-3.64h1.339L44.6,0Zm2.795,0h2.288l2.951-9.62h-1.95L51.584-4.94c-.3,1.066-.52,2.028-.819,3.107H50.7c-.312-1.079-.507-2.041-.806-3.107L48.62-9.62H46.6Zm6.084,0h1.924V-9.62H55.627Zm7.956.182a3.893,3.893,0,0,0,3.068-1.417l-1.014-1.2a2.675,2.675,0,0,1-1.989.949c-1.521,0-2.509-1.261-2.509-3.354,0-2.067,1.092-3.315,2.548-3.315a2.481,2.481,0,0,1,1.768.806l1.014-1.222A3.924,3.924,0,0,0,63.648-9.8c-2.431,0-4.472,1.859-4.472,5.031C59.176-1.56,61.152.182,63.583.182ZM67.938,0h6.045V-1.612H69.862V-4.186h3.38V-5.8h-3.38V-8.021H73.84v-1.6h-5.9Z" transform="translate(432.608 -223.641)"/>
  </g>
  <path id="패스_5042" data-name="패스 5042" class="cls-4" d="M203.845-182.678H841.133v-30H203.845Z" transform="translate(-5.132 309.691)"/>
  <path id="패스_5043" data-name="패스 5043" class="cls-5" d="M5.132-182.678h158v-30h-158Z" transform="translate(-5.132 309.691)"/>
  <path id="패스_8800" data-name="패스 8800" class="cls-6" d="M1.89-4.71A5.175,5.175,0,0,0,5.25-7.5,5.16,5.16,0,0,0,8.61-4.845l.69-1.2c-2-.54-3.2-1.89-3.285-3.42H8.97V-10.71H6.015v-1.575H4.47v1.575H1.53v1.245H4.455A4.037,4.037,0,0,1,1.185-5.91Zm4.125-.435H4.47V-2.82c-1.305.045-2.58.045-3.645.045L1.02-1.5a44.728,44.728,0,0,0,8.625-.615L9.525-3.24a33.113,33.113,0,0,1-3.51.345Zm4.335-7.26V1.185h1.56v-13.59ZM15.4-6.855c2.385-.255,4.245-1.215,4.98-2.61.72,1.4,2.58,2.355,4.965,2.61l.555-1.2c-2.52-.255-4.26-1.305-4.47-2.5H25.4v-1.245H15.39v1.245h3.93c-.225,1.2-1.95,2.25-4.455,2.5ZM20.355-.03c-1.995,0-3.09-.39-3.09-1.185,0-.78,1.1-1.185,3.09-1.185s3.1.4,3.1,1.185C23.46-.42,22.35-.03,20.355-.03Zm0-3.555c-2.91,0-4.665.855-4.665,2.37s1.755,2.37,4.665,2.37S25.02.3,25.02-1.215,23.28-3.585,20.355-3.585Zm.78-2.175V-7.575H19.59V-5.76H14.25v1.245H26.505V-5.76ZM31.65-11.58v1.26h4.485c-.27,2.085-2.1,3.72-5.205,4.56l.63,1.23c3.915-1.11,6.24-3.54,6.24-7.05Zm3.1,8.64h5.79V-.255h-5.79ZM33.24.99h8.82V-4.17H33.24Zm7.275-13.4V-9.03H37.83v1.275h2.685v3.03H42.06v-7.68ZM45.5-6.72c2.37-.255,4.23-1.23,4.965-2.625.72,1.4,2.565,2.37,4.965,2.625l.54-1.2c-2.52-.255-4.275-1.335-4.47-2.565H55.47V-11.73H45.465v1.245H49.41c-.195,1.23-1.95,2.31-4.47,2.565ZM50.43-.06c-1.98,0-3.09-.435-3.09-1.26s1.11-1.275,3.09-1.275,3.1.435,3.1,1.275S52.41-.06,50.43-.06Zm0-3.75c-2.9,0-4.665.915-4.665,2.49s1.77,2.475,4.665,2.475S55.1.255,55.1-1.32,53.34-3.81,50.43-3.81Zm-6.1-2.22v1.245H56.58V-6.03Z" transform="translate(10.973 118.613)"/>
  <g id="그룹_4810" data-name="그룹 4810" transform="translate(167.279 111.573)">
    <path id="패스_5044" data-name="패스 5044" class="cls-7" d="M0,0H24.44"/>
  </g>
  <g id="그룹_4811" data-name="그룹 4811" transform="translate(165.324 111.573)">
    <path id="패스_5045" data-name="패스 5045" class="cls-8" d="M0,0H0M27.373,0h0"/>
  </g>
  <g id="그룹_4812" data-name="그룹 4812" transform="translate(188.692 107.849)">
    <path id="패스_5046" data-name="패스 5046" class="cls-9" d="M0,0,4.005,3.724,0,7.447"/>
  </g>
  <path id="패스_8782" data-name="패스 8782" class="cls-10" d="M4.17.2C6.255.2,7.59-1.71,7.59-5.535S6.255-11.2,4.17-11.2C2.07-11.2.735-9.36.735-5.535S2.07.2,4.17.2ZM4.17-.9c-1.26,0-2.1-1.4-2.1-4.635,0-3.21.84-4.56,2.1-4.56,1.245,0,2.085,1.35,2.085,4.56C6.255-2.3,5.415-.9,4.17-.9ZM9.345,0h6.03V-1.14h-2.2v-9.855H12.12a6.967,6.967,0,0,1-2.28.78v.87h1.95V-1.14H9.345Zm29.43-10.605V-9.6H42.81a8.148,8.148,0,0,1-4.545,6.945l.72.885a9.41,9.41,0,0,0,5.04-8.835Zm9.72-1.74V-6.93h-1.83v-5.055H45.51V.435h1.155v-6.36H48.5V1.11H49.68V-12.345ZM57.345-6.9h-3.81V-8.91h3.81Zm1.2-4.89h-1.2v1.935h-3.81V-11.79H52.32v5.88h6.225ZM54.9-1.485h7.305v-3.27h-8.55v.975H60.99V-2.4H53.7V.96h9V-.015H54.9ZM62.205-9.45v-2.88h-1.23v6.945h1.23V-8.43h2V-9.45Zm2.43,12.135h1l4.485-14.58h-.99ZM75.555-11.19h-1.23v2.415a7.107,7.107,0,0,1-3.48,6.06l.75.975a7.465,7.465,0,0,0,3.345-4.5,7.208,7.208,0,0,0,3.375,4.26l.72-.975a6.707,6.707,0,0,1-3.48-5.82ZM80.7-12.345v4.56H77.58V-6.78H80.7v7.9h1.23v-13.47Zm13.425,0V1.125h1.23v-13.47ZM85.11-11.2V-2.13h6.33V-11.2H90.225V-7.65h-3.9V-11.2Zm1.215,4.53h3.9v3.54h-3.9ZM109.44-5.58c-2.355-.45-4.9-2.49-4.9-4.785V-11.4h-1.29v1.035c0,2.3-2.535,4.32-4.89,4.785l.555,1.02a7.388,7.388,0,0,0,4.98-3.885,7.3,7.3,0,0,0,5,3.885Zm-11.6,3.87V-.69H110.04V-1.71Zm12.87,4.4h1l4.485-14.58h-.99Zm14.745-13.38h-3.465V-12.33h-1.23v1.635h-3.48v.99h8.175ZM119.31-6.45c0-.945.84-1.545,2.07-1.545s2.055.6,2.055,1.545-.84,1.53-2.055,1.53S119.31-5.52,119.31-6.45Zm2.685,2.46c1.59-.2,2.61-1.125,2.61-2.46,0-1.515-1.305-2.49-3.225-2.49s-3.24.975-3.24,2.49c0,1.35,1.035,2.28,2.625,2.475v1.44c-1.335.045-2.625.06-3.765.06l.18,1.035a55.021,55.021,0,0,0,8.715-.54l-.09-.915c-1.23.165-2.535.255-3.81.315Zm4.665-8.34V1.11h1.23V-12.33Zm15.345,5.115c-2.445-.36-4.845-2.025-4.845-3.9v-.75h-1.29v.75c0,1.92-2.37,3.54-4.815,3.9l.495.99a6.894,6.894,0,0,0,4.965-3.15,7.06,7.06,0,0,0,4.98,3.15Zm.585,2.445H130.44v1.02h5.43V1.125h1.23V-3.75h5.505Zm7.05-.93a.98.98,0,0,0,.99.99.98.98,0,0,0,.99-.99.98.98,0,0,0-.99-.99A.98.98,0,0,0,149.64-5.7ZM162.6-9.75h2.445v-1.005h-6.24V-9.75h2.61V-8.7c0,2.73-1.005,5.025-2.925,6.105l.75.93a6.281,6.281,0,0,0,2.79-4.1,6.019,6.019,0,0,0,2.73,3.63l.72-.945c-1.9-.99-2.88-3.165-2.88-5.625Zm6.315-2.61v5.445h-1.77v-5.13H165.99V.45h1.155V-5.895h1.77v7H170.1V-12.36Zm11.2,1.035h-3.24V-12.48h-1.23v1.155H172.4v.885h7.725ZM174.285-8.25c0-.6.765-.96,1.98-.96s1.965.36,1.965.96-.765.975-1.965.975S174.285-7.65,174.285-8.25Zm6.24,2.22c-1.155.165-2.415.255-3.645.315v-.78c1.545-.135,2.52-.765,2.52-1.755,0-1.11-1.245-1.77-3.135-1.77-1.92,0-3.15.66-3.15,1.77,0,1,.975,1.635,2.535,1.755v.825c-1.29.045-2.535.045-3.585.045l.135.915a49.456,49.456,0,0,0,8.4-.525ZM175.08-1.065h7.47V-3.81h-8.715v.87h7.5v1.05H173.88V.96h9.18V.075h-7.98Zm7.47-7.845v-3.435h-1.23v7.95h1.23v-3.48h1.98V-8.91ZM191.7.15c-2.115,0-3.36-.525-3.36-1.44s1.245-1.44,3.36-1.44,3.36.525,3.36,1.44S193.8.15,191.7.15Zm0-3.84c-2.88,0-4.6.855-4.6,2.4S188.82,1.1,191.7,1.1c2.9,0,4.605-.84,4.605-2.385S194.6-3.69,191.7-3.69Zm-1.86-3.57a11.677,11.677,0,0,0,1.86.15,11.726,11.726,0,0,0,1.875-.15v1.575H189.84Zm-1.6-2.34c0-.975,1.32-1.545,3.465-1.545s3.465.57,3.465,1.545c0,.96-1.32,1.545-3.465,1.545S188.235-8.64,188.235-9.6Zm6.555,3.915v-1.9a2.22,2.22,0,0,0,1.635-2.01c0-1.575-1.8-2.505-4.725-2.505-2.91,0-4.725.93-4.725,2.505a2.214,2.214,0,0,0,1.65,2.025v1.89H185.61v.99h12.18v-.99Zm18.42-6.645h-1.23v6.96h1.23Zm-2.88,5.61a4.652,4.652,0,0,1-3.4-4.2v-1.02h-1.23v1.02a4.886,4.886,0,0,1-3.42,4.455l.63.96a5.712,5.712,0,0,0,3.42-3.345,5.716,5.716,0,0,0,3.39,3.09ZM205.755-.015v-1.44h7.47v-3.24H204.51v.975h7.5v1.335h-7.47V.96h9.135V-.015Zm18.39-7.665h1.71v3.855h1.185v-8.52h-1.185v3.66h-1.71v-3.39h-1.17V-4.3h1.17Zm-1.7-3.06h-2.8v-1.5H218.43v1.5h-2.82v.975h6.84Zm-5.175,3.975c0-.825.705-1.38,1.77-1.38s1.77.555,1.77,1.38-.72,1.395-1.77,1.395S217.275-5.925,217.275-6.765Zm4.635,0c0-1.38-1.17-2.295-2.865-2.295s-2.88.915-2.88,2.295c0,1.41,1.185,2.31,2.88,2.31S221.91-5.355,221.91-6.765ZM222.615.15c-2.055,0-3.285-.51-3.285-1.395s1.23-1.41,3.285-1.41c2.04,0,3.27.51,3.27,1.41S224.655.15,222.615.15Zm0-3.75c-2.805,0-4.5.84-4.5,2.355s1.695,2.34,4.5,2.34,4.5-.84,4.5-2.34S225.42-3.6,222.615-3.6Zm9.36,6.555.855-.4a13.827,13.827,0,0,1-1.92-7.215,13.865,13.865,0,0,1,1.92-7.215l-.855-.39a14.009,14.009,0,0,0-2.205,7.605A14.06,14.06,0,0,0,231.975,2.955Zm14.16-8.64h-2a22.21,22.21,0,0,0,.375-4.62v-1.17h-9.03v.99h7.83v.18a19.889,19.889,0,0,1-.42,4.62H233.97v1h5.43V1.125h1.245V-4.68h5.49Zm8.88-3.075v1.005h2.28V-5.94h-2.28v1.005h2.28v2.85h1.245V-12.33H257.3v3.57Zm0-1.935h-3.09v-1.65H250.7v1.65h-3.21v.99h7.53Zm-5.6,4.29a1.665,1.665,0,0,1,1.875-1.59A1.665,1.665,0,0,1,253.17-6.4a1.678,1.678,0,0,1-1.875,1.62A1.678,1.678,0,0,1,249.42-6.4Zm4.92,0c0-1.53-1.26-2.55-3.045-2.55s-3.045,1.02-3.045,2.55,1.26,2.58,3.045,2.58S254.34-4.86,254.34-6.4ZM251.115-.2v-2.76h-1.23V.81h8.97V-.2Zm10.53,3.15a13.944,13.944,0,0,0,2.22-7.62,13.893,13.893,0,0,0-2.22-7.605l-.84.39a14.009,14.009,0,0,1,1.92,7.215A13.97,13.97,0,0,1,260.8,2.55Z" transform="translate(225.542 118.613)"/>
  <g id="그룹_4813" data-name="그룹 4813" transform="translate(242.558 111.573)">
    <path id="패스_5047" data-name="패스 5047" class="cls-11" d="M0,0H11.443"/>
  </g>
  <path id="패스_5048" data-name="패스 5048" class="cls-4" d="M203.845-108.178H841.133v-30H203.845Z" transform="translate(-5.132 309.691)"/>
  <path id="패스_5049" data-name="패스 5049" class="cls-5" d="M5.132-108.178h158v-30h-158Z" transform="translate(-5.132 309.691)"/>
  <path id="패스_8802" data-name="패스 8802" class="cls-6" d="M11.925-12.375H10.38v9.96h1.545ZM9.135-5.4A4.192,4.192,0,0,1,5.82-9.24v-.225H8.73v-1.23H5.82V-12.33H4.275v1.635H1.335v1.23h2.94v.225A4.377,4.377,0,0,1,.96-5.16l.75,1.215A5.394,5.394,0,0,0,5.07-6.93,5.322,5.322,0,0,0,8.415-4.185ZM4.635-.36V-3.33H3.075V.9h9.24V-.36ZM22.23-11.175H19.155V-12.45H17.6v1.275H14.49v1.14h7.74ZM16.59-7.47c0-.645.69-1.035,1.77-1.035s1.77.39,1.77,1.035c0,.63-.69,1-1.77,1S16.59-6.84,16.59-7.47ZM22.6-4.92c-1.1.165-2.28.255-3.45.33v-.855c1.5-.18,2.43-.93,2.43-2.025,0-1.29-1.275-2.085-3.225-2.085s-3.225.8-3.225,2.085c0,1.11.945,1.845,2.46,2.025v.93c-1.245.03-2.445.045-3.45.045l.18,1.23a48.492,48.492,0,0,0,8.4-.615Zm-4.95,2.445H16.11V.9h9.225V-.36h-7.68ZM24.87-7.8v-4.605H23.325V-1.8H24.87V-6.525h1.86V-7.8ZM37.44-8.805v1.56H34.155v1.26H37.44v1.56h1.545V-12.39H37.44v2.325H34.65a7.661,7.661,0,0,0,.12-1.35H28.62v1.245h4.5c-.27,2.115-2.025,3.78-5.2,4.665l.615,1.23c2.925-.855,4.92-2.37,5.76-4.53ZM34.545-.12c-1.83,0-2.985-.525-2.985-1.47,0-.93,1.155-1.455,2.985-1.455,1.845,0,3,.525,3,1.455C37.545-.645,36.39-.12,34.545-.12Zm0-4.14c-2.745,0-4.515,1.02-4.515,2.67C30.03.075,31.8,1.1,34.545,1.1s4.53-1.02,4.53-2.685C39.075-3.24,37.29-4.26,34.545-4.26Zm11.16,2.31h7.83v3.1H55.08v-4.35H45.705ZM47.4-10.62h6.1v2.235H47.4Zm3.825,4.98V-7.155h3.8v-4.7H45.885v4.7h3.78V-5.64h-5.34v1.245H56.6V-5.64ZM62.61-4.59h2.67v2.91H62.61Zm-.225-5.385H65.5v4.14h-3.12Zm4.425,8.3V-4.59h2.175V-5.835h-1.95v-4.14H69.03V-11.22H58.845v1.245H60.84v4.14H58.89V-4.59h2.175v2.91H57.84V-.405H70.125V-1.68ZM84.09-5.445h1.545v-6.96H84.09v2.265H81.345v1.245H84.09ZM82.41-6.87a4.266,4.266,0,0,1-3.195-3.96v-1.14H77.67v1.14a4.475,4.475,0,0,1-3.3,4.245l.795,1.215A5.46,5.46,0,0,0,78.48-8.43,5.162,5.162,0,0,0,81.6-5.67ZM78.375-.225V-1.38h7.26V-4.8h-8.82v1.2h7.29v1.08h-7.26V.99H86.1V-.225ZM95.19-8.985v1.26h2.4V-4.32h1.545v-8.07H97.59v3.4Zm.78,3.015a4.442,4.442,0,0,1-3.18-4.08v-.18h2.82v-1.245H88.365v1.245H91.23v.195a4.756,4.756,0,0,1-3.315,4.41l.795,1.23A5.606,5.606,0,0,0,92.055-7.65a5.291,5.291,0,0,0,3.15,2.895ZM94.635-.03c-1.935,0-3.03-.48-3.03-1.365s1.1-1.365,3.03-1.365c1.9,0,3.015.48,3.015,1.365S96.54-.03,94.635-.03Zm0-3.93C91.8-3.96,90.06-3,90.06-1.395S91.8,1.17,94.635,1.17s4.56-.945,4.56-2.565S97.455-3.96,94.635-3.96Z" transform="translate(10.973 193.113)"/>
  <g id="그룹_4814" data-name="그룹 4814" transform="translate(167.279 186.073)">
    <path id="패스_5050" data-name="패스 5050" class="cls-7" d="M0,0H24.44"/>
  </g>
  <g id="그룹_4815" data-name="그룹 4815" transform="translate(165.324 186.073)">
    <path id="패스_5051" data-name="패스 5051" class="cls-8" d="M0,0H0M27.373,0h0"/>
  </g>
  <g id="그룹_4816" data-name="그룹 4816" transform="translate(188.692 182.349)">
    <path id="패스_5052" data-name="패스 5052" class="cls-9" d="M0,0,4.005,3.724,0,7.447"/>
  </g>
  <path id="패스_8784" data-name="패스 8784" class="cls-10" d="M4.17.2C6.255.2,7.59-1.71,7.59-5.535S6.255-11.2,4.17-11.2C2.07-11.2.735-9.36.735-5.535S2.07.2,4.17.2ZM4.17-.9c-1.26,0-2.1-1.4-2.1-4.635,0-3.21.84-4.56,2.1-4.56,1.245,0,2.085,1.35,2.085,4.56C6.255-2.3,5.415-.9,4.17-.9ZM11.985.2c1.95,0,3.525-1.17,3.525-3.135a2.827,2.827,0,0,0-2.34-2.79v-.06a2.741,2.741,0,0,0,1.965-2.655c0-1.77-1.35-2.76-3.2-2.76a4.4,4.4,0,0,0-3.075,1.32l.735.87a3.431,3.431,0,0,1,2.28-1.1,1.718,1.718,0,0,1,1.86,1.77c0,1.185-.78,2.1-3.045,2.1v1.05c2.535,0,3.42.885,3.42,2.2A2.025,2.025,0,0,1,11.88-.945,3.635,3.635,0,0,1,9.15-2.2l-.69.9A4.552,4.552,0,0,0,11.985.2Zm26.79-10.8V-9.6H42.81a8.148,8.148,0,0,1-4.545,6.945l.72.885a9.41,9.41,0,0,0,5.04-8.835Zm9.72-1.74V-6.93h-1.83v-5.055H45.51V.435h1.155v-6.36H48.5V1.11H49.68V-12.345ZM57.345-6.9h-3.81V-8.91h3.81Zm1.2-4.89h-1.2v1.935h-3.81V-11.79H52.32v5.88h6.225ZM54.9-1.485h7.305v-3.27h-8.55v.975H60.99V-2.4H53.7V.96h9V-.015H54.9ZM62.205-9.45v-2.88h-1.23v6.945h1.23V-8.43h2V-9.45Zm2.43,12.135h1l4.485-14.58h-.99ZM75.555-11.19h-1.23v2.415a7.107,7.107,0,0,1-3.48,6.06l.75.975a7.465,7.465,0,0,0,3.345-4.5,7.208,7.208,0,0,0,3.375,4.26l.72-.975a6.707,6.707,0,0,1-3.48-5.82ZM80.7-12.345v4.56H77.58V-6.78H80.7v7.9h1.23v-13.47Zm13.425,0V1.125h1.23v-13.47ZM85.11-11.2V-2.13h6.33V-11.2H90.225V-7.65h-3.9V-11.2Zm1.215,4.53h3.9v3.54h-3.9ZM109.44-5.58c-2.355-.45-4.9-2.49-4.9-4.785V-11.4h-1.29v1.035c0,2.3-2.535,4.32-4.89,4.785l.555,1.02a7.388,7.388,0,0,0,4.98-3.885,7.3,7.3,0,0,0,5,3.885Zm-11.6,3.87V-.69H110.04V-1.71Zm12.87,4.4h1l4.485-14.58h-.99Zm14.745-13.38h-3.465V-12.33h-1.23v1.635h-3.48v.99h8.175ZM119.31-6.45c0-.945.84-1.545,2.07-1.545s2.055.6,2.055,1.545-.84,1.53-2.055,1.53S119.31-5.52,119.31-6.45Zm2.685,2.46c1.59-.2,2.61-1.125,2.61-2.46,0-1.515-1.305-2.49-3.225-2.49s-3.24.975-3.24,2.49c0,1.35,1.035,2.28,2.625,2.475v1.44c-1.335.045-2.625.06-3.765.06l.18,1.035a55.021,55.021,0,0,0,8.715-.54l-.09-.915c-1.23.165-2.535.255-3.81.315Zm4.665-8.34V1.11h1.23V-12.33Zm15.345,5.115c-2.445-.36-4.845-2.025-4.845-3.9v-.75h-1.29v.75c0,1.92-2.37,3.54-4.815,3.9l.495.99a6.894,6.894,0,0,0,4.965-3.15,7.06,7.06,0,0,0,4.98,3.15Zm.585,2.445H130.44v1.02h5.43V1.125h1.23V-3.75h5.505Zm7.05-.93a.98.98,0,0,0,.99.99.98.98,0,0,0,.99-.99.98.98,0,0,0-.99-.99A.98.98,0,0,0,149.64-5.7ZM162.6-9.75h2.445v-1.005h-6.24V-9.75h2.61V-8.7c0,2.73-1.005,5.025-2.925,6.105l.75.93a6.281,6.281,0,0,0,2.79-4.1,6.019,6.019,0,0,0,2.73,3.63l.72-.945c-1.9-.99-2.88-3.165-2.88-5.625Zm6.315-2.61v5.445h-1.77v-5.13H165.99V.45h1.155V-5.895h1.77v7H170.1V-12.36Zm11.2,1.035h-3.24V-12.48h-1.23v1.155H172.4v.885h7.725ZM174.285-8.25c0-.6.765-.96,1.98-.96s1.965.36,1.965.96-.765.975-1.965.975S174.285-7.65,174.285-8.25Zm6.24,2.22c-1.155.165-2.415.255-3.645.315v-.78c1.545-.135,2.52-.765,2.52-1.755,0-1.11-1.245-1.77-3.135-1.77-1.92,0-3.15.66-3.15,1.77,0,1,.975,1.635,2.535,1.755v.825c-1.29.045-2.535.045-3.585.045l.135.915a49.456,49.456,0,0,0,8.4-.525ZM175.08-1.065h7.47V-3.81h-8.715v.87h7.5v1.05H173.88V.96h9.18V.075h-7.98Zm7.47-7.845v-3.435h-1.23v7.95h1.23v-3.48h1.98V-8.91ZM191.7.15c-2.115,0-3.36-.525-3.36-1.44s1.245-1.44,3.36-1.44,3.36.525,3.36,1.44S193.8.15,191.7.15Zm0-3.84c-2.88,0-4.6.855-4.6,2.4S188.82,1.1,191.7,1.1c2.9,0,4.605-.84,4.605-2.385S194.6-3.69,191.7-3.69Zm-1.86-3.57a11.677,11.677,0,0,0,1.86.15,11.726,11.726,0,0,0,1.875-.15v1.575H189.84Zm-1.6-2.34c0-.975,1.32-1.545,3.465-1.545s3.465.57,3.465,1.545c0,.96-1.32,1.545-3.465,1.545S188.235-8.64,188.235-9.6Zm6.555,3.915v-1.9a2.22,2.22,0,0,0,1.635-2.01c0-1.575-1.8-2.505-4.725-2.505-2.91,0-4.725.93-4.725,2.505a2.214,2.214,0,0,0,1.65,2.025v1.89H185.61v.99h12.18v-.99Zm10.185,8.64.855-.4a13.827,13.827,0,0,1-1.92-7.215,13.865,13.865,0,0,1,1.92-7.215l-.855-.39a14.009,14.009,0,0,0-2.205,7.605A14.06,14.06,0,0,0,204.975,2.955ZM207.75-10.89v.99h5.055c-.255,3.2-2.055,5.775-5.67,7.5l.66,1c4.47-2.19,6.255-5.61,6.255-9.5Zm9.015-1.455V1.11H218V-12.345Zm12.075,1.23h-3.33V-12.42h-1.23v1.305h-3.315v.93h7.875ZM222.87-7.68c0-.7.81-1.14,2.025-1.14,1.245,0,2.04.435,2.04,1.14s-.795,1.14-2.04,1.14C223.68-6.54,222.87-6.99,222.87-7.68Zm6.3,2.535c-1.17.165-2.415.255-3.66.315V-5.7c1.59-.15,2.6-.885,2.6-1.98,0-1.23-1.275-2.01-3.21-2.01-1.9,0-3.18.78-3.18,2.01,0,1.08.99,1.815,2.565,1.98v.93c-1.335.045-2.64.045-3.765.045l.18.975a54.579,54.579,0,0,0,8.55-.525Zm-6.72,3.42h7.785V1.11h1.23V-2.7H222.45Zm7.785-10.59V-3.33h1.23v-8.985Zm4.41,15.27a13.944,13.944,0,0,0,2.22-7.62,13.893,13.893,0,0,0-2.22-7.605l-.84.39a14.009,14.009,0,0,1,1.92,7.215,13.97,13.97,0,0,1-1.92,7.215Z" transform="translate(225.542 193.113)"/>
  <g id="그룹_4817" data-name="그룹 4817" transform="translate(242.558 186.073)">
    <path id="패스_5053" data-name="패스 5053" class="cls-11" d="M0,0H11.443"/>
  </g>
  <path id="패스_5054" data-name="패스 5054" class="cls-4" d="M203.845-145.178H841.133v-30H203.845Z" transform="translate(-5.132 309.691)"/>
  <path id="패스_5055" data-name="패스 5055" class="cls-5" d="M5.132-145.178h158v-30h-158Z" transform="translate(-5.132 309.691)"/>
  <path id="패스_8801" data-name="패스 8801" class="cls-6" d="M10.44-4.065h1.545V-12.39H10.44v2.31H8.475v1.245H10.44v1.23H8.475V-6.36H10.44ZM3.84-10.17H5.565v4.08c-.585.03-1.155.045-1.725.06ZM8.58-6.33c-.495.06-1.005.12-1.53.135V-10.17H8.265v-1.26H1.125v1.26h1.23V-6H.765l.18,1.275A48.6,48.6,0,0,0,8.67-5.2ZM7.47-.03C5.535-.03,4.455-.5,4.455-1.32c0-.855,1.08-1.305,3.015-1.305s3.03.45,3.03,1.305C10.5-.5,9.4-.03,7.47-.03Zm0-3.795c-2.835,0-4.56.915-4.56,2.5,0,1.56,1.725,2.475,4.56,2.475S12.045.24,12.045-1.32C12.045-2.91,10.3-3.825,7.47-3.825Zm7.455-7.14V-9.7h4.74c-.315,3.12-2.1,5.505-5.415,7.2L15.1-1.32a10.191,10.191,0,0,0,6.1-9.645ZM26.805-7.05H24.75v-5.355H23.2V1.14H24.75v-6.9h2.055ZM42-12.405H40.44v7.74H42Zm-5.55,5.25h-3.4V-10.32h3.4Zm1.5-4.395H31.53v5.625h6.42Zm4.305,8.91V-3.825H38.37V-5.04H36.8v1.215H32.91V-2.64H36.8c-.12,1.155-1.875,2.34-4.41,2.595l.51,1.17a6.593,6.593,0,0,0,4.695-2.3,6.57,6.57,0,0,0,4.65,2.3l.51-1.17c-2.5-.27-4.245-1.485-4.365-2.595Zm5.655-8.04v1.26h3.8A7.935,7.935,0,0,1,47.34-2.775l.9,1.1c3.81-2.19,4.995-5.385,4.995-9Zm9.555-1.71v5.295H55.92V-12.03H54.465V.525H55.92v-6.36h1.545v6.99h1.47V-12.39ZM70.59-2.31h1.545V-12.39H70.59v3.045H67.845V-8.07H70.59ZM68.91-5.64a4.613,4.613,0,0,1-3.165-4.32v-1.605H64.17V-9.99a4.879,4.879,0,0,1-3.285,4.665l.825,1.2A5.724,5.724,0,0,0,65-7.44a5.343,5.343,0,0,0,3.09,3ZM64.875-.36V-3.375h-1.56V.9H72.45V-.36Z" transform="translate(10.973 156.113)"/>
  <g id="그룹_4818" data-name="그룹 4818" transform="translate(167.279 149.073)">
    <path id="패스_5056" data-name="패스 5056" class="cls-7" d="M0,0H24.44"/>
  </g>
  <g id="그룹_4819" data-name="그룹 4819" transform="translate(165.324 149.073)">
    <path id="패스_5057" data-name="패스 5057" class="cls-8" d="M0,0H0M27.373,0h0"/>
  </g>
  <g id="그룹_4820" data-name="그룹 4820" transform="translate(188.692 145.349)">
    <path id="패스_5058" data-name="패스 5058" class="cls-9" d="M0,0,4.005,3.724,0,7.447"/>
  </g>
  <path id="패스_8783" data-name="패스 8783" class="cls-10" d="M4.17.2C6.255.2,7.59-1.71,7.59-5.535S6.255-11.2,4.17-11.2C2.07-11.2.735-9.36.735-5.535S2.07.2,4.17.2ZM4.17-.9c-1.26,0-2.1-1.4-2.1-4.635,0-3.21.84-4.56,2.1-4.56,1.245,0,2.085,1.35,2.085,4.56C6.255-2.3,5.415-.9,4.17-.9ZM8.685,0H15.6V-1.185H12.555c-.555,0-1.23.06-1.8.105,2.58-2.445,4.305-4.68,4.305-6.87A3.016,3.016,0,0,0,11.865-11.2a4.205,4.205,0,0,0-3.24,1.62l.8.78A3.079,3.079,0,0,1,11.7-10.08a1.933,1.933,0,0,1,2.025,2.175c0,1.89-1.59,4.08-5.04,7.1Zm30.09-10.605V-9.6H42.81a8.148,8.148,0,0,1-4.545,6.945l.72.885a9.41,9.41,0,0,0,5.04-8.835Zm9.72-1.74V-6.93h-1.83v-5.055H45.51V.435h1.155v-6.36H48.5V1.11H49.68V-12.345ZM57.345-6.9h-3.81V-8.91h3.81Zm1.2-4.89h-1.2v1.935h-3.81V-11.79H52.32v5.88h6.225ZM54.9-1.485h7.305v-3.27h-8.55v.975H60.99V-2.4H53.7V.96h9V-.015H54.9ZM62.205-9.45v-2.88h-1.23v6.945h1.23V-8.43h2V-9.45Zm2.43,12.135h1l4.485-14.58h-.99ZM75.555-11.19h-1.23v2.415a7.107,7.107,0,0,1-3.48,6.06l.75.975a7.465,7.465,0,0,0,3.345-4.5,7.208,7.208,0,0,0,3.375,4.26l.72-.975a6.707,6.707,0,0,1-3.48-5.82ZM80.7-12.345v4.56H77.58V-6.78H80.7v7.9h1.23v-13.47Zm13.425,0V1.125h1.23v-13.47ZM85.11-11.2V-2.13h6.33V-11.2H90.225V-7.65h-3.9V-11.2Zm1.215,4.53h3.9v3.54h-3.9ZM109.44-5.58c-2.355-.45-4.9-2.49-4.9-4.785V-11.4h-1.29v1.035c0,2.3-2.535,4.32-4.89,4.785l.555,1.02a7.388,7.388,0,0,0,4.98-3.885,7.3,7.3,0,0,0,5,3.885Zm-11.6,3.87V-.69H110.04V-1.71Zm12.87,4.4h1l4.485-14.58h-.99Zm14.745-13.38h-3.465V-12.33h-1.23v1.635h-3.48v.99h8.175ZM119.31-6.45c0-.945.84-1.545,2.07-1.545s2.055.6,2.055,1.545-.84,1.53-2.055,1.53S119.31-5.52,119.31-6.45Zm2.685,2.46c1.59-.2,2.61-1.125,2.61-2.46,0-1.515-1.305-2.49-3.225-2.49s-3.24.975-3.24,2.49c0,1.35,1.035,2.28,2.625,2.475v1.44c-1.335.045-2.625.06-3.765.06l.18,1.035a55.021,55.021,0,0,0,8.715-.54l-.09-.915c-1.23.165-2.535.255-3.81.315Zm4.665-8.34V1.11h1.23V-12.33Zm15.345,5.115c-2.445-.36-4.845-2.025-4.845-3.9v-.75h-1.29v.75c0,1.92-2.37,3.54-4.815,3.9l.495.99a6.894,6.894,0,0,0,4.965-3.15,7.06,7.06,0,0,0,4.98,3.15Zm.585,2.445H130.44v1.02h5.43V1.125h1.23V-3.75h5.505Zm7.05-.93a.98.98,0,0,0,.99.99.98.98,0,0,0,.99-.99.98.98,0,0,0-.99-.99A.98.98,0,0,0,149.64-5.7ZM162.6-9.75h2.445v-1.005h-6.24V-9.75h2.61V-8.7c0,2.73-1.005,5.025-2.925,6.105l.75.93a6.281,6.281,0,0,0,2.79-4.1,6.019,6.019,0,0,0,2.73,3.63l.72-.945c-1.9-.99-2.88-3.165-2.88-5.625Zm6.315-2.61v5.445h-1.77v-5.13H165.99V.45h1.155V-5.895h1.77v7H170.1V-12.36Zm11.2,1.035h-3.24V-12.48h-1.23v1.155H172.4v.885h7.725ZM174.285-8.25c0-.6.765-.96,1.98-.96s1.965.36,1.965.96-.765.975-1.965.975S174.285-7.65,174.285-8.25Zm6.24,2.22c-1.155.165-2.415.255-3.645.315v-.78c1.545-.135,2.52-.765,2.52-1.755,0-1.11-1.245-1.77-3.135-1.77-1.92,0-3.15.66-3.15,1.77,0,1,.975,1.635,2.535,1.755v.825c-1.29.045-2.535.045-3.585.045l.135.915a49.456,49.456,0,0,0,8.4-.525ZM175.08-1.065h7.47V-3.81h-8.715v.87h7.5v1.05H173.88V.96h9.18V.075h-7.98Zm7.47-7.845v-3.435h-1.23v7.95h1.23v-3.48h1.98V-8.91ZM191.7.15c-2.115,0-3.36-.525-3.36-1.44s1.245-1.44,3.36-1.44,3.36.525,3.36,1.44S193.8.15,191.7.15Zm0-3.84c-2.88,0-4.6.855-4.6,2.4S188.82,1.1,191.7,1.1c2.9,0,4.605-.84,4.605-2.385S194.6-3.69,191.7-3.69Zm-1.86-3.57a11.677,11.677,0,0,0,1.86.15,11.726,11.726,0,0,0,1.875-.15v1.575H189.84Zm-1.6-2.34c0-.975,1.32-1.545,3.465-1.545s3.465.57,3.465,1.545c0,.96-1.32,1.545-3.465,1.545S188.235-8.64,188.235-9.6Zm6.555,3.915v-1.9a2.22,2.22,0,0,0,1.635-2.01c0-1.575-1.8-2.505-4.725-2.505-2.91,0-4.725.93-4.725,2.505a2.214,2.214,0,0,0,1.65,2.025v1.89H185.61v.99h12.18v-.99Zm10.185,8.64.855-.4a13.827,13.827,0,0,1-1.92-7.215,13.865,13.865,0,0,1,1.92-7.215l-.855-.39a14.009,14.009,0,0,0-2.205,7.605A14.06,14.06,0,0,0,204.975,2.955Zm9.54-11.55H212.52a11.591,11.591,0,0,0,.18-2.04h-5.16V-9.63h3.945a8.607,8.607,0,0,1-4.545,6.96l.72.87a9.681,9.681,0,0,0,4.635-5.805h2.22v2.37h-2.43V-4.23h2.43V.42h1.17V-11.985h-1.17Zm2.7-3.75V1.1h1.17v-13.44Zm11.625,1.23h-3.33V-12.42h-1.23v1.305h-3.315v.93h7.875ZM222.87-7.68c0-.7.81-1.14,2.025-1.14,1.245,0,2.04.435,2.04,1.14s-.795,1.14-2.04,1.14C223.68-6.54,222.87-6.99,222.87-7.68Zm6.3,2.535c-1.17.165-2.415.255-3.66.315V-5.7c1.59-.15,2.6-.885,2.6-1.98,0-1.23-1.275-2.01-3.21-2.01-1.9,0-3.18.78-3.18,2.01,0,1.08.99,1.815,2.565,1.98v.93c-1.335.045-2.64.045-3.765.045l.18.975a54.579,54.579,0,0,0,8.55-.525Zm-6.72,3.42h7.785V1.11h1.23V-2.7H222.45Zm7.785-10.59V-3.33h1.23v-8.985Zm4.41,15.27a13.944,13.944,0,0,0,2.22-7.62,13.893,13.893,0,0,0-2.22-7.605l-.84.39a14.009,14.009,0,0,1,1.92,7.215,13.97,13.97,0,0,1-1.92,7.215Z" transform="translate(225.542 156.113)"/>
  <g id="그룹_4821" data-name="그룹 4821" transform="translate(242.558 149.073)">
    <path id="패스_5059" data-name="패스 5059" class="cls-11" d="M0,0H11.443"/>
  </g>
  <path id="패스_5060" data-name="패스 5060" class="cls-5" d="M5.132-70.678h158v-30h-158Z" transform="translate(-5.132 309.691)"/>
  <path id="패스_8803" data-name="패스 8803" class="cls-6" d="M11.925-12.375H10.38v9.96h1.545ZM9.135-5.4A4.192,4.192,0,0,1,5.82-9.24v-.225H8.73v-1.23H5.82V-12.33H4.275v1.635H1.335v1.23h2.94v.225A4.377,4.377,0,0,1,.96-5.16l.75,1.215A5.394,5.394,0,0,0,5.07-6.93,5.322,5.322,0,0,0,8.415-4.185ZM4.635-.36V-3.33H3.075V.9h9.24V-.36ZM22.23-11.175H19.155V-12.45H17.6v1.275H14.49v1.14h7.74ZM16.59-7.47c0-.645.69-1.035,1.77-1.035s1.77.39,1.77,1.035c0,.63-.69,1-1.77,1S16.59-6.84,16.59-7.47ZM22.6-4.92c-1.1.165-2.28.255-3.45.33v-.855c1.5-.18,2.43-.93,2.43-2.025,0-1.29-1.275-2.085-3.225-2.085s-3.225.8-3.225,2.085c0,1.11.945,1.845,2.46,2.025v.93c-1.245.03-2.445.045-3.45.045l.18,1.23a48.492,48.492,0,0,0,8.4-.615Zm-4.95,2.445H16.11V.9h9.225V-.36h-7.68ZM24.87-7.8v-4.605H23.325V-1.8H24.87V-6.525h1.86V-7.8ZM37.44-8.805v1.56H34.155v1.26H37.44v1.56h1.545V-12.39H37.44v2.325H34.65a7.661,7.661,0,0,0,.12-1.35H28.62v1.245h4.5c-.27,2.115-2.025,3.78-5.2,4.665l.615,1.23c2.925-.855,4.92-2.37,5.76-4.53ZM34.545-.12c-1.83,0-2.985-.525-2.985-1.47,0-.93,1.155-1.455,2.985-1.455,1.845,0,3,.525,3,1.455C37.545-.645,36.39-.12,34.545-.12Zm0-4.14c-2.745,0-4.515,1.02-4.515,2.67C30.03.075,31.8,1.1,34.545,1.1s4.53-1.02,4.53-2.685C39.075-3.24,37.29-4.26,34.545-4.26Zm17.46-1.185h-3.12V-9.87h3.12Zm-4.665,0H45.39v1.26H55.5v-1.26H53.535V-9.87H55.53v-1.245H45.345V-9.87H47.34Zm-3.015,3.66V-.51h12.3V-1.785Zm20.4.075V-4.02h4.23V-5.265H60.84v-1.89h7.815v-4.29H59.3V-10.2h7.83v1.815h-7.8V-4.02H63.18v2.31H57.84V-.435H70.11V-1.71Zm10.77-9.435h-1.5V-8.7c0,2.31-.93,4.74-2.85,5.88l.945,1.17a6.527,6.527,0,0,0,2.67-3.885A6.179,6.179,0,0,0,77.265-1.95l.87-1.2a6.55,6.55,0,0,1-2.64-5.625Zm3.18,3.495H76.68v1.26h1.995V.525H80.13v-12.66H78.675Zm2.76-4.74V1.155H82.9V-12.39Zm15.15,6.615c-2.67-.48-4.845-2.565-4.845-4.725v-1.02H90.1v1.02c0,2.145-2.175,4.23-4.845,4.725L85.92-4.5a7.092,7.092,0,0,0,4.995-3.72,7.092,7.092,0,0,0,5,3.72ZM84.84-1.86V-.585H97.11V-1.86Z" transform="translate(10.973 230.613)"/>
  <g id="그룹_4822" data-name="그룹 4822" transform="translate(167.279 223.573)">
    <path id="패스_5061" data-name="패스 5061" class="cls-7" d="M0,0H24.44"/>
  </g>
  <g id="그룹_4823" data-name="그룹 4823" transform="translate(165.324 223.573)">
    <path id="패스_5062" data-name="패스 5062" class="cls-8" d="M0,0H0M27.373,0h0"/>
  </g>
  <g id="그룹_4824" data-name="그룹 4824" transform="translate(188.692 219.849)">
    <path id="패스_5063" data-name="패스 5063" class="cls-9" d="M0,0,4.005,3.724,0,7.447"/>
  </g>
  <path id="패스_5068" data-name="패스 5068" class="cls-12" d="M203.845-70.678H352.6v-30H203.845Z" transform="translate(-5.132 309.691)"/>
  <path id="패스_8785" data-name="패스 8785" class="cls-10" d="M4.74-9.765h2.4v-1H1v1h2.55V-8.55A7.021,7.021,0,0,1,.63-2.5l.75.915A6.965,6.965,0,0,0,4.155-5.85a6.433,6.433,0,0,0,2.7,3.93l.75-.9A6.518,6.518,0,0,1,4.74-8.55Zm3.6,2.25H6.12V-6.51H8.34V.405H9.51v-12.45H8.34Zm2.7-4.845V1.1h1.185V-12.36ZM22.035-8.1H18.69v-2.82h3.345Zm-4.575,0H15.48v.99h9.765V-8.1h-1.98v-2.82h2.04v-.99h-9.87v.99H17.46ZM23.775-.06h-6.78V-2.3h6.78ZM26.46-4.845v-.99H14.3v.99H19.77V-3.27H15.8V.93h9.18v-4.2H21V-4.845Zm1.845-5.76V-9.6H32.34A8.148,8.148,0,0,1,27.8-2.655l.72.885a9.41,9.41,0,0,0,5.04-8.835Zm9.72-1.74V-6.93h-1.83v-5.055H35.04V.435h1.155v-6.36h1.83V1.11H39.21V-12.345ZM46.875-6.9h-3.81V-8.91h3.81Zm1.2-4.89h-1.2v1.935h-3.81V-11.79H41.85v5.88h6.225ZM44.43-1.485h7.305v-3.27h-8.55v.975H50.52V-2.4H43.23V.96h9V-.015h-7.8ZM51.735-9.45v-2.88h-1.23v6.945h1.23V-8.43H53.73V-9.45ZM65.6-5.325H62.25v-4.68H65.6Zm-4.575,0H58.965V-4.32H68.88V-5.325H66.825v-4.68H68.91v-.99H58.935v.99H61.02Zm-3.165,3.69v1.02h12.2v-1.02Zm20.2.075V-4.1h4.305v-.99h-8.28V-7.26H82.05v-4.1H72.84v1.005h8.01v2.1H72.87V-4.1h3.945V-1.56H71.34V-.555H83.565V-1.56Zm10.785-9.51H87.66V-8.5A6.83,6.83,0,0,1,84.7-2.7l.765.93a6.89,6.89,0,0,0,2.79-4.14,6.576,6.576,0,0,0,2.655,3.84l.7-.96a6.542,6.542,0,0,1-2.775-5.52Zm3.54,3.555h-2.22v1.02h2.22V.45H93.54v-12.5H92.385Zm2.73-4.83V1.11h1.17V-12.345ZM109.95-5.58c-2.355-.45-4.9-2.49-4.9-4.785V-11.4h-1.29v1.035c0,2.3-2.535,4.32-4.89,4.785l.555,1.02a7.388,7.388,0,0,0,4.98-3.885,7.3,7.3,0,0,0,5,3.885Zm-11.6,3.87V-.69H110.55V-1.71Z" transform="translate(216.993 230.613)"/>
  <path id="패스_5069" data-name="패스 5069" class="cls-12" d="M529.53-70.678H678.289v-30H529.53Z" transform="translate(-5.132 309.691)"/>
  <path id="패스_8787" data-name="패스 8787" class="cls-10" d="M12.15-12.33H10.965V-2.235H12.15ZM8.325-2.58h1.17v-9.51H8.325v3.48H6.675v1h1.65ZM7.17-5.685a22.078,22.078,0,0,1-4.56.39V-7.38H6.15v-3.855H1.38v.96H4.95V-8.31H1.41V-4.3h.87A24.37,24.37,0,0,0,7.3-4.71ZM4.605-.2V-3.24H3.375V.81H12.54V-.2ZM21.96-7.11a33.383,33.383,0,0,1-5.82.345V-8.31h4.68v-.945H16.14v-1.44h4.92v-.975H14.91v5.88h1.02A35.681,35.681,0,0,0,22.1-6.135ZM17.43-1.5h7.305V-4.665h-8.55v.96H23.52v1.29H16.23V.96h9V0h-7.8Zm7.305-7.9V-12.33h-1.23v7.02h1.23V-8.4H26.73V-9.4Zm10.83-1.785h-1.23v2.415a7.107,7.107,0,0,1-3.48,6.06l.75.975a7.465,7.465,0,0,0,3.345-4.5,7.208,7.208,0,0,0,3.375,4.26l.72-.975a6.707,6.707,0,0,1-3.48-5.82Zm5.145-1.155v4.56H37.59V-6.78h3.12v7.9h1.23v-13.47Zm13.425,0V1.125h1.23v-13.47ZM45.12-11.2V-2.13h6.33V-11.2H50.235V-7.65h-3.9V-11.2Zm1.215,4.53h3.9v3.54h-3.9ZM69.45-5.58c-2.355-.45-4.9-2.49-4.9-4.785V-11.4h-1.29v1.035c0,2.3-2.535,4.32-4.89,4.785l.555,1.02A7.388,7.388,0,0,0,63.9-8.445a7.3,7.3,0,0,0,5,3.885ZM57.855-1.71V-.69h12.2V-1.71Z" transform="translate(563.998 230.613)"/>
  <path id="패스_5070" data-name="패스 5070" class="cls-12" d="M366.688-70.678H515.447v-30H366.688Z" transform="translate(-5.132 309.691)"/>
  <g id="그룹-2" data-name="그룹" transform="translate(-5.132 309.691)">
    <path id="패스_8786" data-name="패스 8786" class="cls-10" d="M7.95-8.52V-7.5h2.685v3.315H11.88v-8.16H10.635V-8.52ZM8.76-5.7C6.78-6.3,5.385-7.8,5.385-9.48v-.255h2.97v-.99H5.385v-1.68H4.155v1.68H1.17v.99H4.155v.255A4.566,4.566,0,0,1,.825-5.355l.6.945A5.36,5.36,0,0,0,4.8-7.545a5.457,5.457,0,0,0,3.39,2.79ZM7.425.135c-2.025,0-3.24-.57-3.24-1.515,0-.93,1.215-1.5,3.24-1.5,2.055,0,3.27.57,3.27,1.5C10.695-.435,9.48.135,7.425.135Zm0-3.975c-2.76,0-4.47.9-4.47,2.46C2.955.2,4.665,1.1,7.425,1.1c2.79,0,4.5-.9,4.5-2.475C11.925-2.94,10.215-3.84,7.425-3.84ZM21.48-8.85v1h2.655V-4.32H25.38v-8.01H24.135v3.48Zm.75,3.06A4.632,4.632,0,0,1,18.96-9.9v-.465h2.955v-.99H14.73v.99h3V-9.9a4.96,4.96,0,0,1-3.39,4.485l.645.975a5.823,5.823,0,0,0,3.39-3.42,5.527,5.527,0,0,0,3.24,3.03ZM20.94.15c-2.025,0-3.255-.57-3.255-1.545s1.23-1.56,3.255-1.56,3.255.585,3.255,1.56S22.965.15,20.94.15Zm0-4.05c-2.76,0-4.485.915-4.485,2.5s1.725,2.5,4.485,2.5,4.47-.915,4.47-2.5S23.7-3.9,20.94-3.9ZM39.315-7.725h1.71v3.69H42.21v-8.3H41.025v3.6h-1.71v-3.345h-1.17v7.6h1.17ZM37.59-6.03a4.045,4.045,0,0,1-2.73-3.66v-1.815H33.675V-9.69A4.659,4.659,0,0,1,30.87-5.67l.66.96A5.35,5.35,0,0,0,34.275-7.7a4.823,4.823,0,0,0,2.655,2.61ZM37.77.15c-2.01,0-3.27-.54-3.27-1.47s1.26-1.455,3.27-1.455c2.04,0,3.285.525,3.285,1.455S39.81.15,37.77.15Zm0-3.885c-2.76,0-4.485.885-4.485,2.415S35.01,1.1,37.77,1.1s4.5-.885,4.5-2.415S40.545-3.735,37.77-3.735ZM52.2-5.58a4.71,4.71,0,0,1-3.315-4.26v-1.695h-1.23V-9.87A4.889,4.889,0,0,1,44.3-5.25l.645.975A5.581,5.581,0,0,0,48.3-7.7a5.659,5.659,0,0,0,3.285,3.09ZM47.685-3.36h-1.23V.81H55.38V-.2H47.685ZM54.8-8.22v-4.14h-1.23v9.945H54.8V-7.2H56.79V-8.22Z" transform="translate(413.037 -79.078)"/>
    <text id="_" data-name=" " class="cls-13" transform="translate(471.237 -79.078)"><tspan x="0" y="0"> </tspan></text>
  </g>
  <path id="패스_5071" data-name="패스 5071" class="cls-12" d="M692.373-70.678H841.132v-30H692.373Z" transform="translate(-5.132 309.691)"/>
  <g id="그룹-3" data-name="그룹" transform="translate(-5.132 309.691)">
    <path id="패스_8788" data-name="패스 8788" class="cls-10" d="M9.33-10.695H5.865V-12.33H4.635v1.635H1.155v.99H9.33ZM3.18-6.45c0-.945.84-1.545,2.07-1.545S7.3-7.395,7.3-6.45,6.465-4.92,5.25-4.92,3.18-5.52,3.18-6.45ZM5.865-3.99c1.59-.2,2.61-1.125,2.61-2.46,0-1.515-1.305-2.49-3.225-2.49s-3.24.975-3.24,2.49c0,1.35,1.035,2.28,2.625,2.475v1.44C3.3-2.49,2.01-2.475.87-2.475L1.05-1.44a55.021,55.021,0,0,0,8.715-.54l-.09-.915c-1.23.165-2.535.255-3.81.315Zm4.665-8.34V1.11h1.23V-12.33ZM25.875-7.215c-2.445-.36-4.845-2.025-4.845-3.9v-.75H19.74v.75c0,1.92-2.37,3.54-4.815,3.9l.495.99a6.894,6.894,0,0,0,4.965-3.15,7.06,7.06,0,0,0,4.98,3.15ZM26.46-4.77H14.31v1.02h5.43V1.125h1.23V-3.75h5.505Z" transform="translate(702.123 -79.078)"/>
    <path id="패스_8789" data-name="패스 8789" class="cls-10" d="M6.51-5.7a.98.98,0,0,0,.99.99.98.98,0,0,0,.99-.99.98.98,0,0,0-.99-.99A.98.98,0,0,0,6.51-5.7Z" transform="translate(724.623 -79.078)"/>
    <path id="패스_8790" data-name="패스 8790" class="cls-10" d="M4.77-9.75H7.215v-1.005H.975V-9.75h2.61V-8.7c0,2.73-1,5.025-2.925,6.105l.75.93A6.281,6.281,0,0,0,4.2-5.76,6.019,6.019,0,0,0,6.93-2.13l.72-.945C5.745-4.065,4.77-6.24,4.77-8.7Zm6.315-2.61v5.445H9.315v-5.13H8.16V.45H9.315V-5.895h1.77v7H12.27V-12.36ZM22.29-11.325H19.05V-12.48H17.82v1.155H14.565v.885H22.29ZM16.455-8.25c0-.6.765-.96,1.98-.96s1.965.36,1.965.96-.765.975-1.965.975S16.455-7.65,16.455-8.25Zm6.24,2.22c-1.155.165-2.415.255-3.645.315v-.78c1.545-.135,2.52-.765,2.52-1.755,0-1.11-1.245-1.77-3.135-1.77-1.92,0-3.15.66-3.15,1.77,0,1,.975,1.635,2.535,1.755v.825c-1.29.045-2.535.045-3.585.045l.135.915a49.456,49.456,0,0,0,8.4-.525ZM17.25-1.065h7.47V-3.81H16v.87h7.5v1.05H16.05V.96h9.18V.075H17.25ZM24.72-8.91v-3.435H23.49v7.95h1.23v-3.48H26.7V-8.91ZM33.87.15c-2.115,0-3.36-.525-3.36-1.44s1.245-1.44,3.36-1.44,3.36.525,3.36,1.44S35.97.15,33.87.15Zm0-3.84c-2.88,0-4.6.855-4.6,2.4S30.99,1.1,33.87,1.1c2.9,0,4.6-.84,4.6-2.385S36.765-3.69,33.87-3.69ZM32.01-7.26a11.677,11.677,0,0,0,1.86.15,11.726,11.726,0,0,0,1.875-.15v1.575H32.01Zm-1.6-2.34c0-.975,1.32-1.545,3.465-1.545s3.465.57,3.465,1.545c0,.96-1.32,1.545-3.465,1.545S30.405-8.64,30.405-9.6ZM36.96-5.685v-1.9A2.22,2.22,0,0,0,38.6-9.6c0-1.575-1.8-2.505-4.725-2.505s-4.725.93-4.725,2.505A2.214,2.214,0,0,0,30.8-7.575v1.89H27.78v.99H39.96v-.99Zm15.135.36H48.75v-4.68H52.1Zm-4.575,0H45.465V-4.32H55.38V-5.325H53.325v-4.68H55.41v-.99H45.435v.99H47.52Zm-3.165,3.69v1.02h12.2v-1.02Zm20.2.075V-4.1h4.305v-.99h-8.28V-7.26H68.55v-4.1H59.34v1.005h8.01v2.1H59.37V-4.1h3.945V-1.56H57.84V-.555H70.065V-1.56Zm10.785-9.51H74.16V-8.5A6.83,6.83,0,0,1,71.2-2.7l.765.93a6.89,6.89,0,0,0,2.79-4.14,6.576,6.576,0,0,0,2.655,3.84l.7-.96a6.542,6.542,0,0,1-2.775-5.52Zm3.54,3.555h-2.22v1.02h2.22V.45H80.04v-12.5H78.885Zm2.73-4.83V1.11h1.17V-12.345ZM96.45-5.58c-2.355-.45-4.9-2.49-4.9-4.785V-11.4h-1.29v1.035c0,2.3-2.535,4.32-4.89,4.785l.555,1.02A7.388,7.388,0,0,0,90.9-8.445a7.3,7.3,0,0,0,5,3.885Zm-11.6,3.87V-.69H97.05V-1.71Z" transform="translate(734.823 -79.078)"/>
  </g>
  <g id="그룹_4829" data-name="그룹 4829" transform="translate(354.544 235.613)">
    <path id="패스_5072" data-name="패스 5072" class="cls-14" d="M0,0V-24.65"/>
  </g>
  <g id="그룹_4830" data-name="그룹 4830" transform="translate(354.544 238.513)">
    <path id="패스_5073" data-name="패스 5073" class="cls-8" d="M0,0H0M0-29H0"/>
  </g>
  <g id="그룹_4831" data-name="그룹 4831" transform="translate(517.357 235.613)">
    <path id="패스_5074" data-name="패스 5074" class="cls-14" d="M0,0V-24.65"/>
  </g>
  <g id="그룹_4832" data-name="그룹 4832" transform="translate(517.357 238.513)">
    <path id="패스_5075" data-name="패스 5075" class="cls-8" d="M0,0H0M0-29H0"/>
  </g>
  <g id="그룹_4833" data-name="그룹 4833" transform="translate(680.171 235.613)">
    <path id="패스_5076" data-name="패스 5076" class="cls-14" d="M0,0V-24.65"/>
  </g>
  <g id="그룹_4834" data-name="그룹 4834" transform="translate(680.171 238.513)">
    <path id="패스_5077" data-name="패스 5077" class="cls-8" d="M0,0H0M0-29H0"/>
  </g>
  <path id="패스_5078" data-name="패스 5078" class="cls-5" d="M697.906-2.438H841.132V-53.329H697.906Z" transform="translate(-5.132 309.691)"/>
  <path id="패스_5079" data-name="패스 5079" class="cls-15" d="M692.873-4.937H835.6v-47.5H692.873Z" transform="translate(-5.132 309.691)"/>
  <g id="그룹-4" data-name="그룹" transform="translate(-5.132 309.691)">
    <path id="패스_8792" data-name="패스 8792" class="cls-10" d="M4.42-8.814H7.137v-.6H.975v.6H3.744v1.937A6.336,6.336,0,0,1,.585-1.911l.429.572a7.131,7.131,0,0,0,3.068-4.03,6.717,6.717,0,0,0,3,3.744l.4-.559A5.873,5.873,0,0,1,4.42-6.877Zm7.124,2.99H9.516v-4.81H8.827V.91h.689V-5.239h2.028Zm7.033,2.08V-3.2h2.457v1.365h.689v-8.788h-.689v6.877Zm-2.431-5.85c1.274,0,2.158.6,2.158,1.443,0,.871-.884,1.456-2.158,1.456s-2.158-.585-2.158-1.456C13.988-9,14.872-9.594,16.146-9.594Zm0,3.432c1.69,0,2.808-.767,2.808-1.989s-1.118-1.976-2.808-1.976-2.821.767-2.821,1.976S14.456-6.162,16.146-6.162ZM15.886-2.3h.689V-4.654a32.094,32.094,0,0,0,3.367-.338L19.877-5.5a63.581,63.581,0,0,1-7.514.338l.1.6c1.014,0,2.171,0,3.419-.052ZM14.794.039V-2.7h-.676V.624h7.9V.039Zm12.974-9.62H27.1v2.314a6.388,6.388,0,0,1-3.081,5.1l.429.559a7.085,7.085,0,0,0,3-4.069,6.705,6.705,0,0,0,2.99,3.822l.429-.533a6.134,6.134,0,0,1-3.107-4.875Zm7.176,3.757H32.916v-4.823h-.689V.91h.689V-5.239h2.028ZM41.054.325c-1.976,0-3.237-.546-3.237-1.469s1.261-1.469,3.237-1.469,3.237.559,3.237,1.469S43.03.325,41.054.325Zm0-3.484c-2.457,0-3.926.715-3.926,2.015S38.6.884,41.054.884,44.98.156,44.98-1.144,43.511-3.159,41.054-3.159ZM39.234-6.37a9.287,9.287,0,0,0,1.807.169A9.753,9.753,0,0,0,42.9-6.37V-4.8H39.234ZM37.765-8.307c0-.949,1.287-1.534,3.276-1.534,2.015,0,3.3.585,3.3,1.534s-1.287,1.547-3.3,1.547C39.052-6.76,37.765-7.358,37.765-8.307ZM43.576-4.8V-6.578a1.889,1.889,0,0,0,1.469-1.729c0-1.339-1.521-2.093-4-2.093s-3.978.754-3.978,2.093a1.905,1.905,0,0,0,1.482,1.742V-4.8h-2.7v.585H46.267V-4.8ZM53.95-8.827h2.756v-.585H50.518v.585h2.743v1.9A6.243,6.243,0,0,1,50.115-2l.429.546a7.117,7.117,0,0,0,3.081-4.017A6.7,6.7,0,0,0,56.654-1.69l.416-.546a6.018,6.018,0,0,1-3.12-4.693Zm4.914-1.807v4.29H56.095v.6h2.769V.923h.689V-10.634Zm3.536.78v.585h4.511c-.156,2.2-2.028,3.887-4.992,4.706l.273.585c3.38-.949,5.46-3.055,5.46-5.876Zm1.9,7.007H70.07V.143H64.3ZM63.609.715h7.15V-3.432h-7.15Zm8.957-8.372H70.759v-2.99H70.07v6.63h.689V-7.059h1.807Z" transform="translate(727.318 -32.248)"/>
    <path id="패스_8791" data-name="패스 8791" class="cls-10" d="M3.978-8.58h2.34v-.585H.884v.585H3.328v1.248A5.725,5.725,0,0,1,.663-2.119l.455.533a5.647,5.647,0,0,0,2.561-3.8A5.319,5.319,0,0,0,6.136-1.976l.429-.546a5.272,5.272,0,0,1-2.587-4.81Zm5.837-2.054V-5.85H7.943v-4.5H7.28V.286h.663V-5.239H9.815V.91h.676V-10.634Zm9.581.975h-3v-1.105H15.7v1.105h-3v.533H19.4Zm-5.33,2.522c0-.637.793-1.04,1.976-1.04s1.976.4,1.976,1.04c0,.6-.793,1.014-1.976,1.014S14.066-6.539,14.066-7.137ZM19.773-5.1c-1.079.143-2.249.247-3.38.3v-.845c1.391-.078,2.262-.624,2.262-1.5,0-.962-1.027-1.534-2.613-1.534s-2.626.572-2.626,1.534c0,.871.884,1.417,2.288,1.5v.871c-1.183.039-2.327.039-3.289.039l.091.559a44.6,44.6,0,0,0,7.319-.442Zm-5.109,4.03h6.591V-3.237H13.962V-2.7h6.63v1.131h-6.6V.741h7.735V.208H14.664ZM21.255-7.54v-3.094h-.689v6.825h.689V-6.955h1.833V-7.54Zm8.1,7.865c-1.976,0-3.237-.546-3.237-1.469s1.261-1.469,3.237-1.469,3.237.559,3.237,1.469S31.33.325,29.354.325Zm0-3.484c-2.457,0-3.926.715-3.926,2.015S26.9.884,29.354.884,33.28.156,33.28-1.144,31.811-3.159,29.354-3.159ZM27.534-6.37a9.287,9.287,0,0,0,1.807.169A9.753,9.753,0,0,0,31.2-6.37V-4.8H27.534ZM26.065-8.307c0-.949,1.287-1.534,3.276-1.534,2.015,0,3.3.585,3.3,1.534s-1.287,1.547-3.3,1.547C27.352-6.76,26.065-7.358,26.065-8.307ZM31.876-4.8V-6.578a1.889,1.889,0,0,0,1.469-1.729c0-1.339-1.521-2.093-4-2.093s-3.978.754-3.978,2.093a1.905,1.905,0,0,0,1.482,1.742V-4.8h-2.7v.585H34.567V-4.8ZM44.551-3.77h.689v-6.877h-.689v2.665H41.795V-7.4h2.756ZM42.523-4.94A4.3,4.3,0,0,1,39.559-8.7V-9.958h-.676v1.274a4.464,4.464,0,0,1-2.99,4.056l.364.559a5.133,5.133,0,0,0,2.99-3.172A5.013,5.013,0,0,0,42.12-4.407ZM41.509.312c-1.885,0-3.094-.611-3.094-1.573s1.209-1.573,3.094-1.573,3.107.611,3.107,1.573S43.394.312,41.509.312Zm0-3.705c-2.353,0-3.783.767-3.783,2.132S39.156.871,41.509.871,45.292.1,45.292-1.261,43.849-3.393,41.509-3.393ZM51.09-5.9c1.69-.26,3.679-1.1,4.3-2.47.611,1.365,2.6,2.21,4.29,2.47l.26-.559C58.149-6.695,55.8-7.735,55.8-9.3v-.143h3.861v-.572H51.129v.572H54.99V-9.3c0,1.56-2.366,2.6-4.16,2.834Zm4.3,6.214c-1.989,0-3.25-.559-3.25-1.495s1.261-1.5,3.25-1.5c1.963,0,3.224.559,3.224,1.5S57.356.312,55.393.312Zm0-3.562c-2.457,0-3.939.741-3.939,2.067S52.936.871,55.393.871s3.913-.728,3.913-2.054S57.837-3.25,55.393-3.25ZM50.154-5.044v.585H60.593v-.585ZM62.517-9.36v.585h4.524C66.859-5.967,65.156-3.5,62.036-1.95l.39.546c3.666-1.833,5.291-4.81,5.291-7.956ZM72.644-5.8h-2v-4.836h-.689V.91h.689V-5.2h2Z" transform="translate(727.318 -15.244)"/>
    <text id="_2" data-name=" " class="cls-16" transform="translate(801.158 -15.244)"><tspan x="0" y="0"> </tspan></text>
  </g>
  <path id="패스_5080" data-name="패스 5080" class="cls-5" d="M535.063-2.438H678.289V-53.329H535.063Z" transform="translate(-5.132 309.691)"/>
  <path id="패스_5081" data-name="패스 5081" class="cls-15" d="M530.03-4.937H672.759v-47.5H530.03Z" transform="translate(-5.132 309.691)"/>
  <path id="패스_8793" data-name="패스 8793" class="cls-10" d="M7.917-6.786h1.82v3.315H10.4v-7.163H9.737v3.263H7.917v-3.042H7.254v6.565h.663ZM6.487-5.031a3.718,3.718,0,0,1-2.47-3.2v-1.69H3.354v1.69A4.233,4.233,0,0,1,.832-4.745l.39.533a4.872,4.872,0,0,0,2.47-2.743A4.319,4.319,0,0,0,6.123-4.511Zm.2,5.356C4.8.325,3.575-.234,3.575-1.131S4.8-2.587,6.682-2.587s3.107.546,3.107,1.456S8.58.325,6.682.325Zm0-3.471c-2.353,0-3.783.728-3.783,2.015s1.43,2,3.783,2,3.783-.715,3.783-2S9.035-3.146,6.682-3.146ZM19.4-9.659h-3v-1.105H15.7v1.105h-3v.533H19.4Zm-5.33,2.522c0-.637.793-1.04,1.976-1.04s1.976.4,1.976,1.04c0,.6-.793,1.014-1.976,1.014S14.066-6.539,14.066-7.137ZM19.773-5.1c-1.079.143-2.249.247-3.38.3v-.845c1.391-.078,2.262-.624,2.262-1.5,0-.962-1.027-1.534-2.613-1.534s-2.626.572-2.626,1.534c0,.871.884,1.417,2.288,1.5v.871c-1.183.039-2.327.039-3.289.039l.091.559a44.6,44.6,0,0,0,7.319-.442Zm-5.109,4.03h6.591V-3.237H13.962V-2.7h6.63v1.131h-6.6V.741h7.735V.208H14.664ZM21.255-7.54v-3.094h-.689v6.825h.689V-6.955h1.833V-7.54ZM31.1-9.386h-3v-1.287H27.4v1.287h-3v.546h6.7Zm-5.33,2.9c0-.741.793-1.235,1.976-1.235s1.976.494,1.976,1.235-.793,1.261-1.976,1.261S25.766-5.733,25.766-6.487Zm5.707,2.431c-1.066.156-2.236.26-3.38.312v-.975c1.378-.091,2.262-.741,2.262-1.768,0-1.092-1.04-1.755-2.613-1.755s-2.626.663-2.626,1.755c0,1.04.9,1.677,2.288,1.768V-3.7c-1.183.039-2.327.052-3.289.052l.1.6a44.857,44.857,0,0,0,7.306-.494ZM26.585-2.2H25.9V.624h7.488V.039h-6.8Zm6.37-4.264v-4.173h-.689V-1.6h.689V-5.876h1.833v-.585Zm11.6-1.287v1.833H41.223v.585h3.328v1.768h.689v-7.059h-.689v2.288H41.574a5.265,5.265,0,0,0,.182-1.378H36.595v.572h4.42c-.182,2.262-2.171,3.978-4.992,4.862l.312.572a7.613,7.613,0,0,0,5.031-4.043ZM41.535.3c-1.885,0-3.107-.624-3.107-1.6s1.222-1.573,3.107-1.573c1.859,0,3.094.611,3.094,1.573S43.394.3,41.535.3Zm0-3.731c-2.34,0-3.783.793-3.783,2.132,0,1.365,1.443,2.158,3.783,2.158,2.314,0,3.757-.793,3.757-2.158C45.292-2.639,43.849-3.432,41.535-3.432ZM50.609-9.1v.585h3.783a7.418,7.418,0,0,1-4.147,6.37l.416.507A8.081,8.081,0,0,0,55.068-9.1Zm8.619-1.534v4.81H57.317v-4.5h-.663V.286h.663V-5.239h1.911V.91h.663V-10.634Zm11.349,8.71h.689v-8.71h-.689v2.86H67.808v.6h2.769ZM68.523-4.537a4.44,4.44,0,0,1-2.938-3.835V-9.945h-.676v1.508A4.7,4.7,0,0,1,61.932-4.29l.364.559a5.3,5.3,0,0,0,2.964-3.25A5.166,5.166,0,0,0,68.146-4ZM64.675.039v-2.99h-.689V.624h7.566V.039Z" transform="translate(559.343 285.253)"/>
  <path id="패스_5082" data-name="패스 5082" class="cls-5" d="M372.57-2.438H515.447V-53.329H372.57Z" transform="translate(-5.132 309.691)"/>
  <path id="패스_5083" data-name="패스 5083" class="cls-15" d="M367.188-4.937H509.6v-47.5H367.188Z" transform="translate(-5.132 309.691)"/>
  <g id="그룹-5" data-name="그룹" transform="translate(-5.132 309.691)">
    <text id="_3" data-name=" " class="cls-17" transform="translate(469.844 -32.248)"><tspan x="0" y="0"> </tspan></text>
  </g>
  <g id="그룹_4835" data-name="그룹 4835" transform="translate(204.769 256.772)">
    <path id="패스_5084" data-name="패스 5084" class="cls-5" d="M0,0V50.481l142.7-.409V-.409Z"/>
  </g>
  <g id="그룹_4836" data-name="그룹 4836" transform="translate(199.213 257.254)">
    <path id="패스_5085" data-name="패스 5085" class="cls-6" d="M0,0V47.5l142.253-.39V-.39Z"/>
  </g>
  <g id="그룹_4837" data-name="그룹 4837" transform="translate(199.213 257.254)">
    <path id="패스_5086" data-name="패스 5086" class="cls-18" d="M0,0V47.5l142.253-.39V-.39Z"/>
  </g>
  <g id="그룹-6" data-name="그룹" transform="translate(-5.132 309.691)">
    <path id="패스_8798" data-name="패스 8798" class="cls-10" d="M3.952-8.593h2.3v-.585H.9v.585H3.289v1.339A6.228,6.228,0,0,1,.637-2.015l.455.52A6.33,6.33,0,0,0,3.627-5.421,5.968,5.968,0,0,0,6.1-1.768l.442-.52A5.876,5.876,0,0,1,3.952-7.254Zm3.536,2.21H5.343v.6H7.488V.273h.663v-10.6H7.488ZM9.8-10.634V.91h.676V-10.634Zm5.863,6.682a.686.686,0,0,0,.676-.7.673.673,0,0,0-.676-.715A.671.671,0,0,0,15-4.654.683.683,0,0,0,15.665-3.952ZM28.652-5.824H22.334V-7.839h6.318Zm.689-4.342h-.689v1.755H22.334v-1.755h-.689v4.927h7.7Zm1.391,6.487H20.241v.585h4.875v4h.689v-4h4.927Zm8.554-3.146H36.075V-9.672h3.211Zm-3.887,0H33.5v.572H41.86v-.572H39.975V-9.672h1.911v-.572h-8.4v.572H35.4ZM40.95.143H34.463V-2.21H40.95Zm1.963-4.511v-.585H32.474v.585h4.888v1.586H33.8V.728h7.826v-3.51H38.038V-4.368Z" transform="translate(255.704 -31.637)"/>
    <text id="_4" data-name=" " class="cls-17" transform="translate(295.107 -31.637)"><tspan x="0" y="0"> </tspan></text>
  </g>
  <path id="패스_8799" data-name="패스 8799" class="cls-10" d="M7.748-9.165H4.615v-1.482H3.926v1.482H.793v.585H7.748ZM2.262-5.655c0-.923.806-1.56,2.015-1.56s2.015.637,2.015,1.56-.819,1.56-2.015,1.56S2.262-4.745,2.262-5.655ZM4.615-3.562c1.4-.117,2.327-.9,2.327-2.093,0-1.3-1.079-2.119-2.665-2.119s-2.652.819-2.652,2.119c0,1.2.91,1.976,2.3,2.093v1.443c-1.2.052-2.34.052-3.328.052l.13.6a45.261,45.261,0,0,0,7.345-.455l-.052-.533c-1.079.169-2.249.247-3.406.312ZM11.479-5.6h-2v-5.031H8.788V.9h.689v-5.9h2ZM19.318-9.3H16.25v-1.417h-.689V-9.3H12.48v.572h6.838Zm-5.5,3.38c0-.9.845-1.508,2.08-1.508s2.067.611,2.067,1.508S17.134-4.42,15.9-4.42,13.819-5.031,13.819-5.915Zm4.8,0c0-1.274-1.079-2.054-2.717-2.054s-2.73.78-2.73,2.054,1.092,2.054,2.73,2.054S18.616-4.654,18.616-5.915ZM13.949-2.132h6.7V.9h.689V-2.717H13.949Zm9.191-5.2H21.333v-3.315h-.689v7.215h.689v-3.3H23.14Zm9.386-.026H26.195V-9.672h6.331Zm.676-2.873h-7.67v3.445H33.2Zm1.365,5.213V-5.59H24.128v.572H29v1.365H25.441v.559h7.072v1.287H25.467V.741h8.1V.169H26.143V-1.274h7.046V-3.653h-3.5V-5.018Zm10.647-5.629h-.689v6.032h.689Zm-2.392,5.2C41.2-5.98,39.767-7.332,39.767-8.97v-.364h2.821v-.585H36.244v.585h2.834v.364a4.29,4.29,0,0,1-3.016,3.757l.338.546a5.039,5.039,0,0,0,3.042-3,4.9,4.9,0,0,0,3.042,2.756ZM38.61.169v-1.6h6.617V-3.991H37.895v.559h6.656v1.469H37.934v2.7h7.748V.169ZM48.5-6.994a2.178,2.178,0,0,1,2.275-2.184,2.172,2.172,0,0,1,2.249,2.184A2.172,2.172,0,0,1,50.778-4.81,2.178,2.178,0,0,1,48.5-6.994Zm5.2,0a2.76,2.76,0,0,0-2.925-2.8,2.757,2.757,0,0,0-2.938,2.8A2.764,2.764,0,0,0,50.778-4.2,2.768,2.768,0,0,0,53.7-6.994ZM50.076-2.951h-.689V.624H57V.039H50.076ZM56.433-7.02v-3.627h-.689V-2.08h.689V-6.422H58.24v-.6Zm8.9-.312v.585h2.613v4.615h.689v-8.5h-.689v3.3Zm.611,2.743a4.2,4.2,0,0,1-2.912-3.6v-.832h2.7v-.585H59.6v.585h2.756v.845A4.475,4.475,0,0,1,59.345-4.29l.364.559a5.223,5.223,0,0,0,3-3.133A5.036,5.036,0,0,0,65.6-4.03ZM62.114.039V-2.912h-.689V.624h7.566V.039ZM79.651-3.77h.689v-6.877h-.689v2.665H76.895V-7.4h2.756ZM77.623-4.94A4.3,4.3,0,0,1,74.659-8.7V-9.958h-.676v1.274a4.464,4.464,0,0,1-2.99,4.056l.364.559a5.133,5.133,0,0,0,2.99-3.172A5.013,5.013,0,0,0,77.22-4.407ZM76.609.312c-1.885,0-3.094-.611-3.094-1.573s1.209-1.573,3.094-1.573,3.107.611,3.107,1.573S78.494.312,76.609.312Zm0-3.705c-2.353,0-3.783.767-3.783,2.132S74.256.871,76.609.871,80.392.1,80.392-1.261,78.949-3.393,76.609-3.393Z" transform="translate(229.193 295.054)"/>
  <g id="그룹_4839" data-name="그룹 4839" transform="translate(273.091 239.013)">
    <path id="패스_5088" data-name="패스 5088" class="cls-18" d="M0,0V17.74"/>
  </g>
  <g id="그룹_4840" data-name="그룹 4840" transform="translate(435.935 239.013)">
    <path id="패스_5089" data-name="패스 5089" class="cls-18" d="M0,0V17.74"/>
  </g>
  <g id="그룹_4841" data-name="그룹 4841" transform="translate(598.779 239.013)">
    <path id="패스_5090" data-name="패스 5090" class="cls-18" d="M0,0V17.74"/>
  </g>
  <g id="그룹_4842" data-name="그룹 4842" transform="translate(761.623 239.013)">
    <path id="패스_5091" data-name="패스 5091" class="cls-18" d="M0,0V17.74"/>
  </g>
  <path id="패스_8975" data-name="패스 8975" class="cls-10" d="M6.941,12.608c-1.066,0-1.794-1.352-1.794-3.289S5.875,6.03,6.941,6.03,8.735,7.4,8.735,9.319,8.02,12.608,6.941,12.608Zm4.225-3.614H9.385C9.294,6.8,8.358,5.406,6.941,5.406c-1.469,0-2.431,1.521-2.431,3.913s.962,3.913,2.431,3.913c1.43,0,2.366-1.4,2.444-3.653h1.781v5.707h.663V4.639h-.663Zm2.262-4.641V15.91h.663V4.353Zm4.2,8.125v-6.8h-.689v7.4h.845a26.147,26.147,0,0,0,5.278-.468l-.117-.6a23.908,23.908,0,0,1-5.161.468Zm7.4-8.112V8.305H21.2V8.89h3.822v7.033h.689V4.366Zm7.137,1.82h2.912v-.6H28.625v.6h2.86v1.95A6.341,6.341,0,0,1,28.3,13.1l.429.559a7.093,7.093,0,0,0,3.094-4,6.537,6.537,0,0,0,3.159,3.718l.416-.546a5.734,5.734,0,0,1-3.237-4.693Zm4.771-1.82V15.91h.689V4.366ZM50.049,6.225H45.785V4.574H45.1V6.225H40.78V6.81h9.269Zm-6.24,5.59a8.542,8.542,0,0,0,3.25,0v2.067h-3.25ZM42.431,9.852c0-.962,1.183-1.573,3-1.573s3,.611,3,1.573-1.183,1.56-3,1.56S42.431,10.8,42.431,9.852Zm5.317,4.03V11.594a1.879,1.879,0,0,0,1.378-1.742c0-1.352-1.4-2.132-3.692-2.132s-3.692.78-3.692,2.132a1.879,1.879,0,0,0,1.378,1.742v2.288h-2.9v.585H50.686v-.585Zm9.633-8.827c2.015,0,3.3.559,3.3,1.469s-1.287,1.482-3.3,1.482-3.276-.559-3.276-1.482S55.366,5.055,57.381,5.055Zm0,3.5c2.509,0,4-.715,4-2.028s-1.495-2.015-4-2.015S53.4,5.224,53.4,6.524,54.885,8.552,57.381,8.552Zm1.456,2.756H55.808V9.982h3.029Zm3.77-1.326V9.4H52.181v.585h2.951v1.326H53.494v.559h7.059v1.287H53.507v2.587h8.1v-.572H54.183V13.687h7.046V11.308h-1.7V9.982ZM6.8,34.169a3.551,3.551,0,0,0,2.834-1.352L9.2,32.323a3.03,3.03,0,0,1-2.353,1.144c-1.989,0-3.224-1.651-3.224-4.238,0-2.561,1.261-4.173,3.263-4.173a2.664,2.664,0,0,1,2.054.949l.442-.507a3.278,3.278,0,0,0-2.5-1.144c-2.405,0-4.082,1.872-4.082,4.9S4.465,34.169,6.8,34.169Zm7.722,0c2.314,0,3.939-1.924,3.939-4.94s-1.625-4.875-3.939-4.875c-2.288,0-3.926,1.872-3.926,4.875S12.239,34.169,14.527,34.169Zm0-.7c-1.872,0-3.107-1.664-3.107-4.238s1.235-4.173,3.107-4.173,3.133,1.6,3.133,4.173S16.412,33.467,14.527,33.467ZM19.844,34h5.707v-.676H22.6c-.494,0-1.04.039-1.56.078,2.522-2.353,4.056-4.342,4.056-6.331a2.483,2.483,0,0,0-2.626-2.717A3.484,3.484,0,0,0,19.8,25.719l.481.455a2.823,2.823,0,0,1,2.106-1.183A1.863,1.863,0,0,1,24.329,27.1c0,1.716-1.274,3.666-4.485,6.435Zm14.131-2.665h-3v-3.3h3Zm0-3.887h-3V24.484h-.663V31.92h4.316V24.484h-.65Zm4.953-4.082v4.68H37V23.652H36.34V34.286H37V28.631h1.924V34.91h.663V23.366Zm3.731,4.6c1.755-.182,3.692-.832,4.355-2.093.663,1.261,2.6,1.911,4.355,2.093l.221-.546c-1.885-.169-4.134-.949-4.212-2.431h3.757v-.559h-3.77V23.249h-.689v1.183H42.919v.559H46.65c-.078,1.482-2.327,2.262-4.212,2.431Zm9.568,1.222v-.559H41.8v.559h4.862v1.274H43.1V31h7.072v1.261H43.127v2.483h8.1v-.559H43.8V32.791h7.046V30.464h-3.5V29.19Zm8.424-.6a30.583,30.583,0,0,1-5.473.4H55V27.032h4.433V24.094H54.281v.585h4.485v1.794H54.319V29.58h.858a32.744,32.744,0,0,0,5.551-.39Zm-1.638,5.733c-1.859,0-3.055-.572-3.055-1.495s1.2-1.482,3.055-1.482,3.055.572,3.055,1.482S60.872,34.325,59.013,34.325Zm0-3.536c-2.314,0-3.731.741-3.731,2.041s1.417,2.054,3.731,2.054,3.731-.741,3.731-2.054S61.34,30.789,59.013,30.789ZM64.46,25.9v-.6H62.653V23.366h-.689v7.007h.689V28.332H64.46v-.585H62.653V25.9Z" transform="translate(400.868 264.163)"/>
  <g id="그룹_8418" data-name="그룹 8418" transform="translate(314.654 39.723)">
    <path id="패스_9040" data-name="패스 9040" class="cls-10" d="M11.835-12.33h-1.23V-2.4h1.23ZM9.075-5.235A4.442,4.442,0,0,1,5.67-9.21v-.345H8.715v-.99H5.685V-12.27H4.455v1.725H1.395v.99h3.06v.345A4.622,4.622,0,0,1,1.08-4.98l.6.96a5.536,5.536,0,0,0,3.4-3.2,5.479,5.479,0,0,0,3.4,2.94ZM4.41-.2v-3.12H3.18V.81h9.06V-.2Zm17.88-10.83H19.05V-12.39H17.82v1.365H14.565v.915H22.29Zm-5.835,3.54c0-.72.765-1.185,1.98-1.185,1.185,0,1.965.465,1.965,1.185,0,.75-.78,1.2-1.965,1.2C17.22-6.285,16.455-6.735,16.455-7.485Zm6.24,2.655a31.576,31.576,0,0,1-3.645.36v-.96c1.545-.165,2.52-.9,2.52-2.055,0-1.275-1.26-2.055-3.135-2.055s-3.15.78-3.15,2.055c0,1.155.99,1.905,2.535,2.055v1.02c-1.29.045-2.535.06-3.585.06l.135.99a50.073,50.073,0,0,0,8.415-.585ZM17.445-2.5h-1.23V.81H25.2V-.2H17.445ZM24.72-7.65v-4.7H23.49v10.53h1.23V-6.63H26.7V-7.65ZM37.635-8.865v1.8H34.11v1h3.525v1.77H38.88v-8.04H37.635v2.46H34.59a7.718,7.718,0,0,0,.15-1.455H28.665v.99H33.4c-.225,2.325-2.22,4.11-5.43,5.07l.495.975c2.9-.84,4.935-2.415,5.805-4.575ZM34.485.09c-1.98,0-3.24-.615-3.24-1.635s1.26-1.62,3.24-1.62,3.24.615,3.24,1.62S36.465.09,34.485.09Zm0-4.23c-2.715,0-4.455.975-4.455,2.595S31.77,1.05,34.485,1.05,38.94.075,38.94-1.545,37.2-4.14,34.485-4.14ZM48.3-9.765h2.4v-1H44.565v1h2.55V-8.55A7.021,7.021,0,0,1,44.19-2.5l.75.915a6.965,6.965,0,0,0,2.775-4.26,6.433,6.433,0,0,0,2.7,3.93l.75-.9A6.518,6.518,0,0,1,48.3-8.55Zm3.6,2.25H49.68V-6.51H51.9V.405h1.17v-12.45H51.9Zm2.7-4.845V1.1h1.185V-12.36ZM65.6-8.1H62.25v-2.82H65.6Zm-4.575,0H59.04v.99h9.765V-8.1h-1.98v-2.82h2.04v-.99H59v.99H61.02ZM67.335-.06h-6.78V-2.3h6.78ZM70.02-4.845v-.99H57.855v.99H63.33V-3.27H59.355V.93h9.18v-4.2H64.56V-4.845Zm8.355.045a33.452,33.452,0,0,0,.375-5.34v-.735h-6.8V-9.87h5.6a28.53,28.53,0,0,1-.4,4.95Zm-3.09-2.235H74.07v4.14c-1.005.03-2,.045-2.85.045l.135,1.02a54.827,54.827,0,0,0,8.34-.51l-.075-.9c-1.365.18-2.865.255-4.335.315Zm8.535.315H81.675v-5.625h-1.23V1.11h1.23V-5.685H83.82Zm8.805-4.47H91.4v2.415a7.107,7.107,0,0,1-3.48,6.06l.75.975a7.465,7.465,0,0,0,3.345-4.5,7.208,7.208,0,0,0,3.375,4.26l.72-.975a6.707,6.707,0,0,1-3.48-5.82Zm5.145-1.155v4.56H94.65V-6.78h3.12v7.9H99v-13.47Zm13.425,0V1.125h1.23v-13.47ZM102.18-11.2V-2.13h6.33V-11.2H107.3V-7.65h-3.9V-11.2Zm1.215,4.53h3.9v3.54h-3.9ZM126.51-5.58c-2.355-.45-4.9-2.49-4.9-4.785V-11.4h-1.29v1.035c0,2.3-2.535,4.32-4.89,4.785l.555,1.02a7.388,7.388,0,0,0,4.98-3.885,7.3,7.3,0,0,0,4.995,3.885Zm-11.6,3.87V-.69H127.11V-1.71Zm13.83,4.56a3.338,3.338,0,0,0,2.19-3.135c0-1.005-.435-1.62-1.155-1.62a.975.975,0,0,0-1.035.96.94.94,0,0,0,1.005.96A.615.615,0,0,0,129.915,0a2.249,2.249,0,0,1-1.5,2.04Zm16.38-15.2V1.125h1.23v-13.47ZM136.11-11.2V-2.13h6.33V-11.2h-1.215V-7.65h-3.9V-11.2Zm1.215,4.53h3.9v3.54h-3.9Zm12.63,2.64A7.145,7.145,0,0,0,154.95-7.65a7.245,7.245,0,0,0,5.04,3.585l.495-.99c-2.34-.39-4.9-2.235-4.9-4.365v-.585h4.455V-11.01H149.85v1.005h4.455v.585c0,2.13-2.55,4.005-4.875,4.41Zm-1.11,2.34v1.02h12.21v-1.02Zm15.57-9.345h-1.23v8.67h1.11A31.964,31.964,0,0,0,170.9-3l-.135-1.05a31.786,31.786,0,0,1-6.345.63Zm7.725-1.305V1.1h1.23v-13.44Zm15.3,6.765c-2.355-.45-4.9-2.49-4.9-4.785V-11.4h-1.29v1.035c0,2.3-2.535,4.32-4.89,4.785l.555,1.02a7.388,7.388,0,0,0,4.98-3.885,7.3,7.3,0,0,0,5,3.885Zm-11.6,3.87V-.69h12.2V-1.71Zm26.4-3.675h1.245V-12.33h-1.245V-9.9H199.32v1.005h2.925Zm-1.98-1.245a4.519,4.519,0,0,1-3.3-4.035V-11.91H195.75v1.245a4.668,4.668,0,0,1-3.36,4.335l.645.975a5.614,5.614,0,0,0,3.36-3.27,5.452,5.452,0,0,0,3.24,2.955Zm-4.2,6.585v-1.44h7.425V-4.71h-8.67v.975h7.455v1.32H194.85V.93H204V-.045Zm17.4-8.55H211.47a11.591,11.591,0,0,0,.18-2.04h-5.16V-9.63h3.945a8.607,8.607,0,0,1-4.545,6.96l.72.87a9.681,9.681,0,0,0,4.635-5.805h2.22v2.37h-2.43V-4.23h2.43V.42h1.17V-11.985h-1.17Zm2.7-3.75V1.1h1.17v-13.44Z" transform="translate(17.214 -16.72)"/>
  </g>
</svg>
