<svg id="구성_요소_113_1" data-name="구성 요소 113 – 1" xmlns="http://www.w3.org/2000/svg" width="796" height="376" viewBox="0 0 796 376">
  <defs>
    <style>
      .cls-1 {
        fill: #f9fafa;
      }

      .cls-2 {
        fill: #132d53;
      }

      .cls-3, .cls-6, .cls-7 {
        fill: none;
      }

      .cls-11, .cls-3 {
        stroke: #132d53;
        stroke-width: 0.5px;
      }

      .cls-4 {
        fill: #78a4e1;
      }

      .cls-11, .cls-5 {
        fill: #fff;
      }

      .cls-6 {
        stroke: #0a468b;
      }

      .cls-7 {
        stroke: #78a4e1;
      }

      .cls-8 {
        fill: #f8fafa;
      }

      .cls-9 {
        fill: #64666b;
      }

      .cls-10 {
        fill: #2b2e34;
      }
    </style>
  </defs>
  <path id="패스_1529" data-name="패스 1529" class="cls-1" d="M0,0H796V-376H0Z" transform="translate(0 376)"/>
  <path id="패스_1530" data-name="패스 1530" class="cls-2" d="M268.563-309.5H533.75v-36.842H268.563Z" transform="translate(0 376)"/>
  <g id="그룹_863" data-name="그룹 863" transform="translate(116.143 257)">
    <path id="패스_1531" data-name="패스 1531" class="cls-3" d="M0,0V80"/>
  </g>
  <path id="패스_1532" data-name="패스 1532" class="cls-4" d="M20.143-103.925h192v-30.534h-192Z" transform="translate(0 376)"/>
  <path id="패스_1557" data-name="패스 1557" class="cls-5" d="M1.38-11.49v1.005H6.27C6.03-8.2,4.065-6.435.78-5.55l.48.975C5.22-5.655,7.59-8.07,7.59-11.49Zm2.595,8.4H10.02V-.075H3.975ZM2.76.915h8.475v-5H2.76ZM13.23-9.06H11.235v-3.3h-1.23v7.65h1.23V-8.04H13.23Zm5.58-2.115H17.6V-8.76A7.129,7.129,0,0,1,14.13-2.745l.735.99A7.452,7.452,0,0,0,18.21-6.21a7.421,7.421,0,0,0,3.255,4.185L22.23-3a6.794,6.794,0,0,1-3.42-5.76Zm8.055,4.29h-2.22V-12.33h-1.23V1.11h1.23V-5.865h2.22Zm5.34-3.81c1.3,0,2.235.7,2.235,1.755s-.93,1.755-2.235,1.755c-1.32,0-2.25-.705-2.25-1.755S30.885-10.695,32.205-10.695Zm0,4.515c1.995,0,3.42-1.125,3.42-2.76s-1.425-2.775-3.42-2.775c-2.01,0-3.435,1.125-3.435,2.775S30.195-6.18,32.205-6.18Zm4.425.66a61.8,61.8,0,0,1-8.865.48L27.93-4c1.11,0,2.385-.015,3.72-.075V.69h1.23V-4.155a33.729,33.729,0,0,0,3.855-.45Zm.975-6.81V1.125h1.23V-12.33Zm10.74,7.935v.915h2.73V-2.1h1.23V-12.345h-1.23v7.95ZM45.6-10.89c1.275,0,2.145.57,2.145,1.425s-.87,1.44-2.145,1.44-2.145-.57-2.145-1.44S44.325-10.89,45.6-10.89Zm0,3.78c1.965,0,3.315-.915,3.315-2.355,0-1.41-1.35-2.34-3.315-2.34s-3.315.93-3.315,2.34C42.285-8.025,43.635-7.11,45.6-7.11Zm-.48,4.53h1.23V-5.235c1.215-.075,2.46-.21,3.645-.39l-.1-.885a73.088,73.088,0,0,1-8.67.39l.165,1.02c1.11,0,2.4-.015,3.735-.075ZM44.37-.2v-2.91H43.14V.81h9.51V-.2Zm18.96-10.5H59.865V-12.33h-1.23v1.635h-3.48v.99H63.33ZM57.18-6.45c0-.945.84-1.545,2.07-1.545s2.055.6,2.055,1.545-.84,1.53-2.055,1.53S57.18-5.52,57.18-6.45Zm2.685,2.46c1.59-.2,2.61-1.125,2.61-2.46,0-1.515-1.305-2.49-3.225-2.49s-3.24.975-3.24,2.49c0,1.35,1.035,2.28,2.625,2.475v1.44c-1.335.045-2.625.06-3.765.06l.18,1.035a55.021,55.021,0,0,0,8.715-.54l-.09-.915c-1.23.165-2.535.255-3.81.315Zm4.665-8.34V1.11h1.23V-12.33Z" transform="translate(82.243 261.2)"/>
  <g id="그룹_864" data-name="그룹 864" transform="translate(20.143 271.575)">
    <path id="패스_1533" data-name="패스 1533" class="cls-6" d="M0,0H192"/>
  </g>
  <g id="그룹_865" data-name="그룹 865" transform="translate(211.643 322.692)">
    <path id="패스_1534" data-name="패스 1534" class="cls-5" d="M0,0H-191V29H0Z"/>
  </g>
  <g id="그룹_866" data-name="그룹 866" transform="translate(211.643 322.692)">
    <path id="패스_1535" data-name="패스 1535" class="cls-7" d="M0,0H-191V29H0Z"/>
  </g>
  <path id="패스_1536" data-name="패스 1536" class="cls-8" d="M20-76.591H212.285v-27H20Z" transform="translate(0 376)"/>
  <path id="패스_1558" data-name="패스 1558" class="cls-9" d="M3.146,2.509l.468-.234A11.953,11.953,0,0,1,1.9-4a11.987,11.987,0,0,1,1.716-6.279l-.468-.247A11.987,11.987,0,0,0,1.248-4,11.943,11.943,0,0,0,3.146,2.509ZM8.2-9.581H7.54v2.314a6.388,6.388,0,0,1-3.081,5.1l.429.559a7.085,7.085,0,0,0,3-4.069,6.705,6.705,0,0,0,2.99,3.822l.429-.533A6.134,6.134,0,0,1,8.2-7.267Zm7.176,3.757H13.351v-4.823h-.689V.91h.689V-5.239h2.028Zm2.275-1.391a2.156,2.156,0,0,1,2.379-2.041,2.156,2.156,0,0,1,2.379,2.041,2.156,2.156,0,0,1-2.379,2.041A2.156,2.156,0,0,1,17.654-7.215Zm2.73,2.626a2.649,2.649,0,0,0,2.691-2.626c0-1.573-1.248-2.639-3.042-2.639s-3.042,1.066-3.042,2.639a2.661,2.661,0,0,0,2.7,2.626v2.236c-1.209.039-2.366.039-3.354.039l.117.6A43.669,43.669,0,0,0,24.089-2.2l-.065-.533a30.289,30.289,0,0,1-3.64.338Zm4.459-6.058V.923h.689v-11.57Zm11.8.013V.91h.689V-10.634ZM31.33-9.7c-1.69,0-2.873,1.56-2.873,3.965S29.64-1.768,31.33-1.768s2.86-1.547,2.86-3.965S33.007-9.7,31.33-9.7Zm0,.611c1.287,0,2.2,1.378,2.2,3.354s-.91,3.367-2.2,3.367-2.21-1.391-2.21-3.367S30.03-9.087,31.33-9.087ZM43.3-9.581H42.64v2.314a6.388,6.388,0,0,1-3.081,5.1l.429.559a7.085,7.085,0,0,0,3-4.069,6.705,6.705,0,0,0,2.99,3.822l.429-.533A6.134,6.134,0,0,1,43.3-7.267Zm7.176,3.757H48.451v-4.823h-.689V.91h.689V-5.239h2.028ZM56.615.169a2.651,2.651,0,0,0,2.86-2.678A2.47,2.47,0,0,0,57.4-4.953v-.065a2.365,2.365,0,0,0,1.742-2.34,2.306,2.306,0,0,0-2.561-2.3,3.682,3.682,0,0,0-2.535,1.118l.442.52a2.973,2.973,0,0,1,2.08-1,1.659,1.659,0,0,1,1.794,1.716c0,1.131-.728,2.028-2.808,2.028v.637c2.262,0,3.146.858,3.146,2.132A1.973,1.973,0,0,1,56.589-.481a3.242,3.242,0,0,1-2.5-1.157l-.429.507A3.833,3.833,0,0,0,56.615.169Zm13.468-10.79h-.689v8.515h.689Zm-8.4,3.614a2.172,2.172,0,0,1,2.262-2.171,2.172,2.172,0,0,1,2.262,2.171,2.185,2.185,0,0,1-2.262,2.2A2.185,2.185,0,0,1,61.685-7.007Zm5.187,0a2.75,2.75,0,0,0-2.925-2.782,2.75,2.75,0,0,0-2.925,2.782A2.763,2.763,0,0,0,63.947-4.2,2.763,2.763,0,0,0,66.872-7.007ZM63.518.039V-3h-.689V.624h7.644V.039ZM72.6,2.509A11.943,11.943,0,0,0,74.5-4a11.987,11.987,0,0,0-1.9-6.526l-.468.247A11.987,11.987,0,0,1,73.853-4a11.953,11.953,0,0,1-1.716,6.279Z" transform="translate(77.903 291.629)"/>
  <path id="패스_1559" data-name="패스 1559" class="cls-10" d="M4.284-9.24H6.8v-.63H.952v.63H3.584V-7.9A6.165,6.165,0,0,1,.714-2.282l.49.574A6.081,6.081,0,0,0,3.962-5.8,5.728,5.728,0,0,0,6.608-2.128l.462-.588A5.678,5.678,0,0,1,4.284-7.9Zm6.286-2.212V-6.3H8.554v-4.844H7.84V.308h.714v-5.95H10.57V.98H11.3V-11.452ZM22.848-8.344V-6.37H19.264v.63h3.584v1.9h.742v-7.6h-.742v2.464H19.642a5.67,5.67,0,0,0,.2-1.484H14.28v.616h4.76c-.2,2.436-2.338,4.284-5.376,5.236L14-3.99c2.6-.826,4.592-2.324,5.418-4.354ZM19.6.322c-2.03,0-3.346-.672-3.346-1.722S17.57-3.094,19.6-3.094c2,0,3.332.658,3.332,1.694S21.6.322,19.6.322Zm0-4.018c-2.52,0-4.074.854-4.074,2.3C15.526.07,17.08.924,19.6.924c2.492,0,4.046-.854,4.046-2.324C23.646-2.842,22.092-3.7,19.6-3.7Zm16.632-7.77H35.49v6.524h.742ZM33.586-5.992a4.72,4.72,0,0,1-3.29-4.116v-.952h-.728v.952a4.937,4.937,0,0,1-3.262,4.354l.392.6a5.681,5.681,0,0,0,3.248-3.416A5.551,5.551,0,0,0,33.208-5.4ZM29.12.182V-1.5h7.126V-4.256h-7.9v.616h7.168v1.554H28.392V.8h8.344V.182ZM42.2,0H47.46V-.714H45.332v-9.492h-.658a5.859,5.859,0,0,1-1.946.644v.546h1.778v8.3H42.2Zm9.6.182A2.854,2.854,0,0,0,54.88-2.7a2.66,2.66,0,0,0-2.24-2.632V-5.4a2.547,2.547,0,0,0,1.876-2.52A2.484,2.484,0,0,0,51.758-10.4a3.965,3.965,0,0,0-2.73,1.2l.476.56a3.2,3.2,0,0,1,2.24-1.078,1.787,1.787,0,0,1,1.932,1.848c0,1.218-.784,2.184-3.024,2.184V-5c2.436,0,3.388.924,3.388,2.3A2.125,2.125,0,0,1,51.772-.518a3.491,3.491,0,0,1-2.688-1.246l-.462.546A4.127,4.127,0,0,0,51.8.182Zm9.9-5.866H57.6V-9.87h4.1Zm3.948-3.01V-6.86h-3.22V-8.694ZM62.426-6.23h3.22v2.17h.742v-7.392h-.742v2.128h-3.22v-1.162H56.882v5.418h5.544ZM62.37.336c-2.03,0-3.332-.644-3.332-1.694s1.3-1.694,3.332-1.694,3.346.658,3.346,1.694S64.4.336,62.37.336Zm0-3.99c-2.52,0-4.074.826-4.074,2.3S59.85.938,62.37.938s4.074-.826,4.074-2.3S64.89-3.654,62.37-3.654Zm6.748,6.118A2.909,2.909,0,0,0,70.8-.14c0-.742-.336-1.2-.84-1.2a.7.7,0,0,0-.742.7.686.686,0,0,0,.728.714.682.682,0,0,0,.168-.014A2.118,2.118,0,0,1,68.88,1.932ZM85.232-11.452H84.49v9.184h.742Zm-2.6,6.664c-1.736-.6-3.276-2.114-3.276-3.92V-9.716H82.39v-.63H75.558v.63H78.61v1.008A4.71,4.71,0,0,1,75.362-4.55l.392.588A5.423,5.423,0,0,0,79-7.266a5.3,5.3,0,0,0,3.262,3.052ZM78.162.042V-3.15H77.42V.672h8.232V.042ZM95.1-5.824a27.5,27.5,0,0,1-5.754.434h-.182V-9.716h4.718v-.63h-5.46v5.6h.924a28.173,28.173,0,0,0,5.838-.448ZM90.524-3.318h-.742V.672h8.2V.042H90.524ZM97.37-7.6V-11.48h-.742v9.03h.742V-6.958h1.946V-7.6Zm10.794,1.708a32.143,32.143,0,0,1-6.006.378h-.224V-7.532h4.816v-.616h-4.816v-1.9h5.152v-.63h-5.894V-4.9h.966a32.435,32.435,0,0,0,6.1-.378ZM103.4-2.716h6.44V.154H103.4Zm-.728,3.5h7.9V-3.332h-7.9Zm7.154-12.236v7.434h.742v-7.434ZM119.35-.5C117.8-.5,117-1.932,116.872-4.172a3.068,3.068,0,0,1,2.338-1.456c1.456,0,2.072,1.064,2.072,2.548S120.456-.5,119.35-.5Zm2.548-8.9a2.794,2.794,0,0,0-2.17-.98c-1.918,0-3.668,1.456-3.668,5.572,0,3.248,1.3,5,3.276,5a3,3,0,0,0,2.758-3.262c0-2.1-1.036-3.206-2.772-3.206a3.285,3.285,0,0,0-2.464,1.33c.042-3.514,1.344-4.732,2.884-4.732a2.135,2.135,0,0,1,1.666.812Zm6.846,3.724h-4.1V-9.87h4.1Zm3.948-3.01V-6.86h-3.22V-8.694Zm-3.22,2.464h3.22v2.17h.742v-7.392h-.742v2.128h-3.22v-1.162h-5.544v5.418h5.544ZM129.416.336c-2.03,0-3.332-.644-3.332-1.694s1.3-1.694,3.332-1.694,3.346.658,3.346,1.694S131.446.336,129.416.336Zm0-3.99c-2.52,0-4.074.826-4.074,2.3s1.554,2.3,4.074,2.3,4.074-.826,4.074-2.3S131.936-3.654,129.416-3.654Z" transform="translate(47.221 343.352)"/>
  <g id="그룹_867" data-name="그룹 867" transform="translate(679.857 257)">
    <path id="패스_1537" data-name="패스 1537" class="cls-3" d="M0,0V80"/>
  </g>
  <path id="패스_1538" data-name="패스 1538" class="cls-4" d="M583.857-104h192v-30h-192Z" transform="translate(0 376)"/>
  <path id="패스_1563" data-name="패스 1563" class="cls-5" d="M10.635-8.865v1.8H7.11v1h3.525v1.77H11.88v-8.04H10.635v2.46H7.59a7.718,7.718,0,0,0,.15-1.455H1.665v.99H6.4C6.18-8.01,4.185-6.225.975-5.265l.495.975C4.365-5.13,6.4-6.7,7.275-8.865ZM7.485.09c-1.98,0-3.24-.615-3.24-1.635s1.26-1.62,3.24-1.62,3.24.615,3.24,1.62S9.465.09,7.485.09Zm0-4.23c-2.715,0-4.455.975-4.455,2.595S4.77,1.05,7.485,1.05,11.94.075,11.94-1.545,10.2-4.14,7.485-4.14Zm8.19-4.215a2.164,2.164,0,0,1,2.3-2.145,2.142,2.142,0,0,1,2.28,2.145,2.145,2.145,0,0,1-2.28,2.16A2.166,2.166,0,0,1,15.675-8.355Zm8.46-1.05v2.1h-2.9a3.028,3.028,0,0,0,.18-1.05,3.28,3.28,0,0,0-.165-1.05Zm0,3.105v1.92H25.38v-7.965H24.135v1.935h-3.45a3.581,3.581,0,0,0-2.715-1.125,3.21,3.21,0,0,0-3.465,3.18,3.225,3.225,0,0,0,3.465,3.21A3.5,3.5,0,0,0,20.685-6.3ZM20.925.12C18.9.12,17.67-.48,17.67-1.485s1.23-1.62,3.255-1.62c2.055,0,3.285.6,3.285,1.62S22.98.12,20.925.12Zm0-4.185c-2.76,0-4.47.945-4.47,2.58s1.71,2.58,4.47,2.58c2.775,0,4.5-.945,4.5-2.58S23.7-4.065,20.925-4.065Zm11.28-6.63c1.3,0,2.235.7,2.235,1.755s-.93,1.755-2.235,1.755c-1.32,0-2.25-.705-2.25-1.755S30.885-10.695,32.205-10.695Zm0,4.515c1.995,0,3.42-1.125,3.42-2.76s-1.425-2.775-3.42-2.775c-2.01,0-3.435,1.125-3.435,2.775S30.195-6.18,32.205-6.18Zm4.425.66a61.8,61.8,0,0,1-8.865.48L27.93-4c1.11,0,2.385-.015,3.72-.075V.69h1.23V-4.155a33.729,33.729,0,0,0,3.855-.45Zm.975-6.81V1.125h1.23V-12.33Zm10.74,7.935v.915h2.73V-2.1h1.23V-12.345h-1.23v7.95ZM45.6-10.89c1.275,0,2.145.57,2.145,1.425s-.87,1.44-2.145,1.44-2.145-.57-2.145-1.44S44.325-10.89,45.6-10.89Zm0,3.78c1.965,0,3.315-.915,3.315-2.355,0-1.41-1.35-2.34-3.315-2.34s-3.315.93-3.315,2.34C42.285-8.025,43.635-7.11,45.6-7.11Zm-.48,4.53h1.23V-5.235c1.215-.075,2.46-.21,3.645-.39l-.1-.885a73.088,73.088,0,0,1-8.67.39l.165,1.02c1.11,0,2.4-.015,3.735-.075ZM44.37-.2v-2.91H43.14V.81h9.51V-.2Zm18.96-10.5H59.865V-12.33h-1.23v1.635h-3.48v.99H63.33ZM57.18-6.45c0-.945.84-1.545,2.07-1.545s2.055.6,2.055,1.545-.84,1.53-2.055,1.53S57.18-5.52,57.18-6.45Zm2.685,2.46c1.59-.2,2.61-1.125,2.61-2.46,0-1.515-1.305-2.49-3.225-2.49s-3.24.975-3.24,2.49c0,1.35,1.035,2.28,2.625,2.475v1.44c-1.335.045-2.625.06-3.765.06l.18,1.035a55.021,55.021,0,0,0,8.715-.54l-.09-.915c-1.23.165-2.535.255-3.81.315Zm4.665-8.34V1.11h1.23V-12.33Z" transform="translate(645.958 261.527)"/>
  <g id="그룹_868" data-name="그룹 868" transform="translate(583.858 271.5)">
    <path id="패스_1539" data-name="패스 1539" class="cls-6" d="M0,0H192"/>
  </g>
  <g id="그룹_869" data-name="그룹 869" transform="translate(775.358 322.5)">
    <path id="패스_1540" data-name="패스 1540" class="cls-5" d="M0,0H-191V29H0Z"/>
  </g>
  <g id="그룹_870" data-name="그룹 870" transform="translate(775.358 322.5)">
    <path id="패스_1541" data-name="패스 1541" class="cls-7" d="M0,0H-191V29H0Z"/>
  </g>
  <path id="패스_1542" data-name="패스 1542" class="cls-8" d="M583.715-76.591H776v-27H583.715Z" transform="translate(0 376)"/>
  <path id="패스_1564" data-name="패스 1564" class="cls-9" d="M3.146,2.509l.468-.234A11.953,11.953,0,0,1,1.9-4a11.987,11.987,0,0,1,1.716-6.279l-.468-.247A11.987,11.987,0,0,0,1.248-4,11.943,11.943,0,0,0,3.146,2.509ZM8.2-9.581H7.54v2.314a6.388,6.388,0,0,1-3.081,5.1l.429.559a7.085,7.085,0,0,0,3-4.069,6.705,6.705,0,0,0,2.99,3.822l.429-.533A6.134,6.134,0,0,1,8.2-7.267Zm7.176,3.757H13.351v-4.823h-.689V.91h.689V-5.239h2.028ZM17.6-9.178h-.689v6.994H17.6a20.49,20.49,0,0,0,4.225-.4L21.736-3.2a19.513,19.513,0,0,1-4.134.39Zm7.735-1.469V-5.8h-2v-4.563h-.663V.286h.663V-5.187h2V.91H26V-10.647Zm11.31.013V.91h.689V-10.634ZM31.33-9.7c-1.69,0-2.873,1.56-2.873,3.965S29.64-1.768,31.33-1.768s2.86-1.547,2.86-3.965S33.007-9.7,31.33-9.7Zm0,.611c1.287,0,2.2,1.378,2.2,3.354s-.91,3.367-2.2,3.367-2.21-1.391-2.21-3.367S30.03-9.087,31.33-9.087ZM43.3-9.581H42.64v2.314a6.388,6.388,0,0,1-3.081,5.1l.429.559a7.085,7.085,0,0,0,3-4.069,6.705,6.705,0,0,0,2.99,3.822l.429-.533A6.134,6.134,0,0,1,43.3-7.267Zm7.176,3.757H48.451v-4.823h-.689V.91h.689V-5.239h2.028ZM56.615.169a2.651,2.651,0,0,0,2.86-2.678A2.47,2.47,0,0,0,57.4-4.953v-.065a2.365,2.365,0,0,0,1.742-2.34,2.306,2.306,0,0,0-2.561-2.3,3.682,3.682,0,0,0-2.535,1.118l.442.52a2.973,2.973,0,0,1,2.08-1,1.659,1.659,0,0,1,1.794,1.716c0,1.131-.728,2.028-2.808,2.028v.637c2.262,0,3.146.858,3.146,2.132A1.973,1.973,0,0,1,56.589-.481a3.242,3.242,0,0,1-2.5-1.157l-.429.507A3.833,3.833,0,0,0,56.615.169Zm13.468-10.79h-.689v8.515h.689Zm-8.4,3.614a2.172,2.172,0,0,1,2.262-2.171,2.172,2.172,0,0,1,2.262,2.171,2.185,2.185,0,0,1-2.262,2.2A2.185,2.185,0,0,1,61.685-7.007Zm5.187,0a2.75,2.75,0,0,0-2.925-2.782,2.75,2.75,0,0,0-2.925,2.782A2.763,2.763,0,0,0,63.947-4.2,2.763,2.763,0,0,0,66.872-7.007ZM63.518.039V-3h-.689V.624h7.644V.039ZM72.6,2.509A11.943,11.943,0,0,0,74.5-4a11.987,11.987,0,0,0-1.9-6.526l-.468.247A11.987,11.987,0,0,1,73.853-4a11.953,11.953,0,0,1-1.716,6.279Z" transform="translate(641.618 291.629)"/>
  <path id="패스_1565" data-name="패스 1565" class="cls-10" d="M10.178-8.344V-6.37H6.594v.63h3.584v1.9h.742v-7.6h-.742v2.464H6.972a5.67,5.67,0,0,0,.2-1.484H1.61v.616H6.37C6.174-7.406,4.032-5.558.994-4.606l.336.616c2.6-.826,4.592-2.324,5.418-4.354ZM6.93.322C4.9.322,3.584-.35,3.584-1.4S4.9-3.094,6.93-3.094c2,0,3.332.658,3.332,1.694S8.932.322,6.93.322Zm0-4.018c-2.52,0-4.074.854-4.074,2.3C2.856.07,4.41.924,6.93.924,9.422.924,10.976.07,10.976-1.4,10.976-2.842,9.422-3.7,6.93-3.7Zm7.462-4.1a2.3,2.3,0,0,1,2.436-2.254A2.3,2.3,0,0,1,19.264-7.8,2.293,2.293,0,0,1,16.828-5.53,2.293,2.293,0,0,1,14.392-7.8Zm8.456-1.148v2.31H19.754A3.123,3.123,0,0,0,19.978-7.8a3.105,3.105,0,0,0-.224-1.148Zm0,2.94V-4.06h.742v-7.406h-.742v1.9H19.376a3.192,3.192,0,0,0-2.548-1.12A2.916,2.916,0,0,0,13.678-7.8a2.932,2.932,0,0,0,3.15,2.926,3.2,3.2,0,0,0,2.548-1.134ZM19.558.336c-2.016,0-3.332-.672-3.332-1.736s1.316-1.736,3.332-1.736c2.044,0,3.36.686,3.36,1.736S21.6.336,19.558.336Zm0-4.074c-2.52,0-4.06.854-4.06,2.338S17.038.938,19.558.938,23.646.084,23.646-1.4,22.092-3.738,19.558-3.738Zm13.02-2.436a16.916,16.916,0,0,0,.35-3.7v-.574H26.88v.616H32.2a15.387,15.387,0,0,1-.364,3.584Zm1.414.882a42.373,42.373,0,0,1-4.3.35V-7.756h-.742v2.842c-1.022.028-1.988.028-2.842.028l.1.658a54.006,54.006,0,0,0,7.84-.49ZM28.812-2.94H28.07V.672h7.994V.042H28.812Zm6.846-4.326v-4.186h-.742v9.394h.742V-6.622h1.96v-.644Zm4.634,4.55V-6.034h4.9v-4.214H39.508V-9.6h4.956v2.94H39.55v4.578h.994a38.223,38.223,0,0,0,6.342-.462l-.07-.63a39.071,39.071,0,0,1-6.272.462Zm7.868-8.736V.994H48.9V-11.452ZM59.178-5.894a32.143,32.143,0,0,1-6.006.378h-.224V-7.532h4.816v-.616H52.948v-1.9H58.1v-.63H52.206V-4.9h.966a32.435,32.435,0,0,0,6.1-.378Zm-4.76,3.178h6.44V.154h-6.44ZM53.69.784h7.9V-3.332h-7.9Zm7.154-12.236v7.434h.742v-7.434ZM66.738,2.7l.5-.252a12.873,12.873,0,0,1-1.848-6.762,12.909,12.909,0,0,1,1.848-6.762l-.5-.266a12.91,12.91,0,0,0-2.044,7.028A12.862,12.862,0,0,0,66.738,2.7Zm2.1-2.7H74.1V-.714H71.974v-9.492h-.658a5.859,5.859,0,0,1-1.946.644v.546h1.778v8.3h-2.31ZM75.46,0h6.146V-.728H78.428c-.532,0-1.12.042-1.68.084,2.716-2.534,4.368-4.676,4.368-6.818a2.674,2.674,0,0,0-2.828-2.926,3.752,3.752,0,0,0-2.87,1.47l.518.49A3.04,3.04,0,0,1,78.2-9.7,2.006,2.006,0,0,1,80.29-7.434c0,1.848-1.372,3.948-4.83,6.93ZM88.34-5.684h-4.1V-9.87h4.1Zm3.948-3.01V-6.86h-3.22V-8.694ZM89.068-6.23h3.22v2.17h.742v-7.392h-.742v2.128h-3.22v-1.162H83.524v5.418h5.544ZM89.012.336c-2.03,0-3.332-.644-3.332-1.694s1.3-1.694,3.332-1.694,3.346.658,3.346,1.694S91.042.336,89.012.336Zm0-3.99c-2.52,0-4.074.826-4.074,2.3s1.554,2.3,4.074,2.3,4.074-.826,4.074-2.3S91.532-3.654,89.012-3.654ZM95.8,2.7a12.862,12.862,0,0,0,2.044-7.014A12.91,12.91,0,0,0,95.8-11.34l-.5.266a12.909,12.909,0,0,1,1.848,6.762A12.873,12.873,0,0,1,95.3,2.45Z" transform="translate(630.277 343.16)"/>
  <g id="그룹_871" data-name="그룹 871" transform="translate(679 241.541)">
    <path id="패스_1543" data-name="패스 1543" class="cls-3" d="M0,0V-25.34H-563.038V0"/>
  </g>
  <g id="그룹_872" data-name="그룹 872" transform="translate(397.13 64)">
    <path id="패스_1544" data-name="패스 1544" class="cls-3" d="M0,0V177.5"/>
  </g>
  <g id="그룹_873" data-name="그룹 873" transform="translate(396.88 257)">
    <path id="패스_1545" data-name="패스 1545" class="cls-3" d="M0,0V80"/>
  </g>
  <path id="패스_1546" data-name="패스 1546" class="cls-4" d="M305.031-104h192v-30h-192Z" transform="translate(0 376)"/>
  <path id="패스_1560" data-name="패스 1560" class="cls-5" d="M5.31-11.175H4.1V-8.76A7.129,7.129,0,0,1,.63-2.745l.735.99A7.452,7.452,0,0,0,4.71-6.21,7.421,7.421,0,0,0,7.965-2.025L8.73-3A6.794,6.794,0,0,1,5.31-8.76Zm8.055,4.29h-2.22V-12.33H9.915V1.11h1.23V-5.865h2.22Zm2.9-1.44a2.166,2.166,0,0,1,2.385-2.1,2.176,2.176,0,0,1,2.415,2.1,2.189,2.189,0,0,1-2.415,2.13A2.18,2.18,0,0,1,16.26-8.325Zm3,3.135a3.142,3.142,0,0,0,3-3.135c0-1.875-1.5-3.15-3.615-3.15-2.07,0-3.585,1.275-3.585,3.15A3.159,3.159,0,0,0,18.03-5.19v2.325c-1.32.045-2.565.045-3.645.045l.15,1.035A48.072,48.072,0,0,0,23.25-2.37l-.1-.915c-1.245.195-2.58.3-3.885.375Zm4.77-7.17V1.14h1.23v-13.5Zm13.545.015V1.14h1.23V-12.345ZM31.71-11.31c-1.995,0-3.42,1.83-3.42,4.7s1.425,4.7,3.42,4.7,3.42-1.83,3.42-4.7S33.705-11.31,31.71-11.31Zm0,1.11c1.305,0,2.235,1.41,2.235,3.585,0,2.19-.93,3.6-2.235,3.6s-2.25-1.41-2.25-3.6C29.46-8.79,30.39-10.2,31.71-10.2Zm14.1-.975H44.6V-8.76A7.129,7.129,0,0,1,41.13-2.745l.735.99A7.452,7.452,0,0,0,45.21-6.21a7.421,7.421,0,0,0,3.255,4.185L49.23-3a6.794,6.794,0,0,1-3.42-5.76Zm8.055,4.29h-2.22V-12.33h-1.23V1.11h1.23V-5.865h2.22ZM66.24-10.8H61.5v-1.62H60.255v1.62h-4.83v.99H66.24ZM63.96-6.8c0,.825-1.11,1.305-3.075,1.305s-3.1-.48-3.1-1.305S58.92-8.1,60.885-8.1,63.96-7.62,63.96-6.8Zm-7.455,0c0,1.44,1.635,2.235,4.38,2.235,2.715,0,4.35-.8,4.35-2.235s-1.635-2.25-4.35-2.25C58.14-9.045,56.505-8.235,56.505-6.8ZM66.99-3.615H54.795V-2.61h5.46V1.125H61.5V-2.61h5.49ZM70.95-7.98h6.87v2.475H70.95ZM75-1.62V-4.515h4.02v-6.87h-1.2v2.4H70.95v-2.4H69.735v6.87h4.02V-1.62h-5.46v1H80.49v-1Zm8.01-3.615a6.858,6.858,0,0,0,4.875-2.8,6.825,6.825,0,0,0,4.86,2.8l.435-.99c-2.4-.33-4.68-1.815-4.68-3.465h4.29v-.99H88.5v-1.65H87.27v1.65H82.98v.99h4.275c0,1.665-2.265,3.135-4.695,3.465Zm10.965,1.02H81.81v1h5.46V1.125H88.5V-3.21h5.475ZM102.42-8.2v1.02h2.715V-2.3h1.245V-12.33h-1.245V-8.2Zm.825,3.045a4.394,4.394,0,0,1-3.36-3.975v-.42h2.97v-.99h-2.97v-1.71h-1.23v1.71H95.67v.99h2.985v.42a4.61,4.61,0,0,1-3.33,4.23l.615.96a5.451,5.451,0,0,0,3.345-3.18,5.524,5.524,0,0,0,3.36,2.94ZM99.015-.2v-3H97.77v4h8.985V-.2Zm14.19-10.5c1.305,0,2.235.7,2.235,1.755s-.93,1.755-2.235,1.755-2.25-.705-2.25-1.755S111.885-10.695,113.205-10.695Zm0,4.515c1.995,0,3.42-1.125,3.42-2.76s-1.425-2.775-3.42-2.775c-2.01,0-3.435,1.125-3.435,2.775S111.195-6.18,113.205-6.18Zm4.425.66a61.8,61.8,0,0,1-8.865.48L108.93-4c1.11,0,2.385-.015,3.72-.075V.69h1.23V-4.155a33.729,33.729,0,0,0,3.855-.45Zm.975-6.81V1.125h1.23V-12.33Zm10.74,7.935v.915h2.73V-2.1h1.23V-12.345h-1.23v7.95Zm-2.745-6.5c1.275,0,2.145.57,2.145,1.425s-.87,1.44-2.145,1.44-2.145-.57-2.145-1.44S125.325-10.89,126.6-10.89Zm0,3.78c1.965,0,3.315-.915,3.315-2.355,0-1.41-1.35-2.34-3.315-2.34s-3.315.93-3.315,2.34C123.285-8.025,124.635-7.11,126.6-7.11Zm-.48,4.53h1.23V-5.235c1.215-.075,2.46-.21,3.645-.39l-.1-.885a73.088,73.088,0,0,1-8.67.39l.165,1.02c1.11,0,2.4-.015,3.735-.075ZM125.37-.2v-2.91h-1.23V.81h9.51V-.2Zm18.96-10.5h-3.465V-12.33h-1.23v1.635h-3.48v.99h8.175ZM138.18-6.45c0-.945.84-1.545,2.07-1.545s2.055.6,2.055,1.545-.84,1.53-2.055,1.53S138.18-5.52,138.18-6.45Zm2.685,2.46c1.59-.2,2.61-1.125,2.61-2.46,0-1.515-1.305-2.49-3.225-2.49s-3.24.975-3.24,2.49c0,1.35,1.035,2.28,2.625,2.475v1.44c-1.335.045-2.625.06-3.765.06l.18,1.035a55.021,55.021,0,0,0,8.715-.54l-.09-.915c-1.23.165-2.535.255-3.81.315Zm4.665-8.34V1.11h1.23V-12.33Z" transform="translate(326.631 261.527)"/>
  <g id="그룹_874" data-name="그룹 874" transform="translate(305.031 271.5)">
    <path id="패스_1547" data-name="패스 1547" class="cls-6" d="M0,0H192"/>
  </g>
  <g id="그룹_875" data-name="그룹 875" transform="translate(496.531 322.5)">
    <path id="패스_1548" data-name="패스 1548" class="cls-5" d="M0,0H-191V29H0Z"/>
  </g>
  <g id="그룹_876" data-name="그룹 876" transform="translate(496.531 322.5)">
    <path id="패스_1549" data-name="패스 1549" class="cls-7" d="M0,0H-191V29H0Z"/>
  </g>
  <path id="패스_1550" data-name="패스 1550" class="cls-8" d="M296.857-76.591H499.142v-27H296.857Z" transform="translate(0 376)"/>
  <path id="패스_1561" data-name="패스 1561" class="cls-9" d="M3.146,2.509l.468-.234A11.953,11.953,0,0,1,1.9-4a11.987,11.987,0,0,1,1.716-6.279l-.468-.247A11.987,11.987,0,0,0,1.248-4,11.943,11.943,0,0,0,3.146,2.509ZM8.2-9.581H7.54v2.314a6.388,6.388,0,0,1-3.081,5.1l.429.559a7.085,7.085,0,0,0,3-4.069,6.705,6.705,0,0,0,2.99,3.822l.429-.533A6.134,6.134,0,0,1,8.2-7.267Zm7.176,3.757H13.351v-4.823h-.689V.91h.689V-5.239h2.028ZM17.6-9.178h-.689v6.994H17.6a20.49,20.49,0,0,0,4.225-.4L21.736-3.2a19.513,19.513,0,0,1-4.134.39Zm7.735-1.469V-5.8h-2v-4.563h-.663V.286h.663V-5.187h2V.91H26V-10.647Zm11.31.013V.91h.689V-10.634ZM31.33-9.7c-1.69,0-2.873,1.56-2.873,3.965S29.64-1.768,31.33-1.768s2.86-1.547,2.86-3.965S33.007-9.7,31.33-9.7Zm0,.611c1.287,0,2.2,1.378,2.2,3.354s-.91,3.367-2.2,3.367-2.21-1.391-2.21-3.367S30.03-9.087,31.33-9.087ZM43.3-9.581H42.64v2.314a6.388,6.388,0,0,1-3.081,5.1l.429.559a7.085,7.085,0,0,0,3-4.069,6.705,6.705,0,0,0,2.99,3.822l.429-.533A6.134,6.134,0,0,1,43.3-7.267Zm7.176,3.757H48.451v-4.823h-.689V.91h.689V-5.239h2.028ZM54.457,0h4.888V-.663H57.369V-9.477h-.611a5.441,5.441,0,0,1-1.807.6v.507H56.6V-.663H54.457ZM70.083-10.621h-.689v8.515h.689Zm-8.4,3.614a2.172,2.172,0,0,1,2.262-2.171,2.172,2.172,0,0,1,2.262,2.171,2.185,2.185,0,0,1-2.262,2.2A2.185,2.185,0,0,1,61.685-7.007Zm5.187,0a2.75,2.75,0,0,0-2.925-2.782,2.75,2.75,0,0,0-2.925,2.782A2.763,2.763,0,0,0,63.947-4.2,2.763,2.763,0,0,0,66.872-7.007ZM63.518.039V-3h-.689V.624h7.644V.039Zm9.048,2.249A2.7,2.7,0,0,0,74.126-.13c0-.689-.312-1.118-.78-1.118a.652.652,0,0,0-.689.65.637.637,0,0,0,.676.663.633.633,0,0,0,.156-.013,1.966,1.966,0,0,1-1.144,1.742ZM81.64-9.581h-.663v2.314a6.388,6.388,0,0,1-3.081,5.1l.429.559a7.085,7.085,0,0,0,3-4.069,6.705,6.705,0,0,0,2.99,3.822l.429-.533A6.134,6.134,0,0,1,81.64-7.267Zm7.176,3.757H86.788v-4.823H86.1V.91h.689V-5.239h2.028Zm2.275-1.391A2.156,2.156,0,0,1,93.47-9.256a2.156,2.156,0,0,1,2.379,2.041A2.156,2.156,0,0,1,93.47-5.174,2.156,2.156,0,0,1,91.091-7.215Zm2.73,2.626a2.649,2.649,0,0,0,2.691-2.626c0-1.573-1.248-2.639-3.042-2.639s-3.042,1.066-3.042,2.639a2.661,2.661,0,0,0,2.7,2.626v2.236c-1.209.039-2.366.039-3.354.039l.117.6A43.669,43.669,0,0,0,97.526-2.2l-.065-.533a30.289,30.289,0,0,1-3.64.338Zm4.459-6.058V.923h.689v-11.57Zm11.8.013V.91h.689V-10.634Zm-5.317.936c-1.69,0-2.873,1.56-2.873,3.965s1.183,3.965,2.873,3.965,2.86-1.547,2.86-3.965S106.444-9.7,104.767-9.7Zm0,.611c1.287,0,2.2,1.378,2.2,3.354s-.91,3.367-2.2,3.367-2.21-1.391-2.21-3.367S103.467-9.087,104.767-9.087Zm11.973-.494h-.663v2.314A6.388,6.388,0,0,1,113-2.171l.429.559a7.085,7.085,0,0,0,3-4.069,6.705,6.705,0,0,0,2.99,3.822l.429-.533a6.134,6.134,0,0,1-3.107-4.875Zm7.176,3.757h-2.028v-4.823H121.2V.91h.689V-5.239h2.028ZM127.283,0h5.707V-.676h-2.951c-.494,0-1.04.039-1.56.078,2.522-2.353,4.056-4.342,4.056-6.331a2.483,2.483,0,0,0-2.626-2.717,3.484,3.484,0,0,0-2.665,1.365l.481.455a2.823,2.823,0,0,1,2.106-1.183A1.863,1.863,0,0,1,131.768-6.9c0,1.716-1.274,3.666-4.485,6.435ZM143.52-10.621h-.689v8.515h.689Zm-8.4,3.614a2.172,2.172,0,0,1,2.262-2.171,2.172,2.172,0,0,1,2.262,2.171,2.185,2.185,0,0,1-2.262,2.2A2.185,2.185,0,0,1,135.122-7.007Zm5.187,0a2.75,2.75,0,0,0-2.925-2.782,2.75,2.75,0,0,0-2.925,2.782A2.763,2.763,0,0,0,137.384-4.2,2.763,2.763,0,0,0,140.309-7.007ZM136.955.039V-3h-.689V.624h7.644V.039Zm9.087,2.47A11.943,11.943,0,0,0,147.94-4a11.987,11.987,0,0,0-1.9-6.526l-.468.247A11.987,11.987,0,0,1,147.29-4a11.953,11.953,0,0,1-1.716,6.279Z" transform="translate(322.282 291.629)"/>
  <path id="패스_1562" data-name="패스 1562" class="cls-10" d="M1.484,0h.84V-10.206h-.84ZM5.922-9.506H7.868c1.764,0,2.744.546,2.744,2.03s-.98,2.17-2.744,2.17H5.922ZM11.676,0,8.918-4.676a2.685,2.685,0,0,0,2.548-2.8c0-1.988-1.372-2.73-3.4-2.73H5.082V0h.84V-4.606H8.008L10.724,0ZM20.4-5.894a32.143,32.143,0,0,1-6.006.378h-.224V-7.532h4.816v-.616H14.168v-1.9H19.32v-.63H13.426V-4.9h.966a32.435,32.435,0,0,0,6.1-.378Zm-4.76,3.178h6.44V.154h-6.44ZM14.91.784h7.9V-3.332h-7.9Zm7.154-12.236v7.434h.742v-7.434ZM27.958,2.7l.5-.252a12.873,12.873,0,0,1-1.848-6.762,12.909,12.909,0,0,1,1.848-6.762l-.5-.266a12.91,12.91,0,0,0-2.044,7.028A12.862,12.862,0,0,0,27.958,2.7Zm2.016-6.3,2.772-4.046c.294-.462.574-.952.812-1.414h.07c-.042.476-.084,1.232-.084,1.694V-3.6Zm5.81,0H34.342v-6.608h-.8L29.036-3.43v.518h4.508V0h.8V-2.912h1.442Zm6.5-2.086h-4.1V-9.87h4.1Zm3.948-3.01V-6.86h-3.22V-8.694ZM43.008-6.23h3.22v2.17h.742v-7.392h-.742v2.128h-3.22v-1.162H37.464v5.418h5.544ZM42.952.336c-2.03,0-3.332-.644-3.332-1.694s1.3-1.694,3.332-1.694S46.3-2.394,46.3-1.358,44.982.336,42.952.336Zm0-3.99c-2.52,0-4.074.826-4.074,2.3s1.554,2.3,4.074,2.3,4.074-.826,4.074-2.3S45.472-3.654,42.952-3.654ZM49.742,2.7a12.862,12.862,0,0,0,2.044-7.014,12.91,12.91,0,0,0-2.044-7.028l-.5.266a12.909,12.909,0,0,1,1.848,6.762A12.873,12.873,0,0,1,49.238,2.45Z" transform="translate(374.48 343.16)"/>
  <path id="패스_1551" data-name="패스 1551" class="cls-11" d="M262.563-312.5H527.75V-346H262.563Z" transform="translate(0 376)"/>
  <path id="패스_1554" data-name="패스 1554" class="cls-2" d="M2-5.76A6.564,6.564,0,0,0,6.885-8.7,6.6,6.6,0,0,0,11.79-5.76l.555-1.215c-2.58-.345-4.485-1.83-4.575-3.4h4.095v-1.245H1.89v1.245H6.015c-.09,1.575-1.995,3.06-4.575,3.4Zm11.025.99H.765v1.245h5.31v4.7H7.62v-4.7h5.385Zm2.475-.99a6.564,6.564,0,0,0,4.89-2.94A6.6,6.6,0,0,0,25.29-5.76l.555-1.215c-2.58-.345-4.485-1.83-4.575-3.4h4.095v-1.245H15.39v1.245h4.125c-.09,1.575-1.995,3.06-4.575,3.4Zm11.025.99H14.265v1.245h5.31v4.7H21.12v-4.7h5.385Zm2.325-1.575c2.37-.195,4.185-.96,5.025-2.16.855,1.2,2.67,1.965,5.025,2.16l.48-1.17c-2.745-.2-4.44-1.17-4.62-2.385h4.02v-1.215H34.65v-1.29H33.1v1.29H28.98V-9.9H33c-.18,1.215-1.875,2.19-4.62,2.385Zm5.01,6.33c-1.995,0-3.09-.375-3.09-1.11s1.1-1.125,3.09-1.125c2.01,0,3.1.39,3.1,1.125S35.865-.015,33.855-.015Zm0-3.375c-2.925,0-4.665.8-4.665,2.265s1.74,2.28,4.665,2.28,4.665-.81,4.665-2.28S36.795-3.39,33.855-3.39Zm.8-2.085V-6.96H33.1v1.485H27.75v1.23H40.005v-1.23Zm15.15-5.34H46.485v-1.56H44.94v1.56H41.61V-9.57H49.8ZM43.875-6.39c0-.825.75-1.335,1.845-1.335,1.08,0,1.83.51,1.83,1.335s-.75,1.35-1.83,1.35C44.625-5.04,43.875-5.55,43.875-6.39Zm2.61,2.475c1.53-.24,2.535-1.155,2.535-2.475,0-1.515-1.35-2.52-3.3-2.52-1.965,0-3.315,1-3.315,2.52,0,1.3,1.005,2.235,2.535,2.475v1.32c-1.275.045-2.52.045-3.6.045l.195,1.275A52.712,52.712,0,0,0,50.19-1.83l-.105-1.125c-1.155.165-2.385.24-3.6.315Zm4.365-8.49V1.155h1.56v-13.56Z" transform="translate(366.396 52.593)"/>
  <path id="패스_1552" data-name="패스 1552" class="cls-2" d="M262.383-238H533.616v-30H262.383Z" transform="translate(0 376)"/>
  <path id="패스_1555" data-name="패스 1555" class="cls-5" d="M10.575-12.345V1.14h1.23V-12.345ZM4.71-11.31c-2,0-3.42,1.83-3.42,4.7s1.425,4.7,3.42,4.7,3.42-1.83,3.42-4.7S6.7-11.31,4.71-11.31Zm0,1.11c1.3,0,2.235,1.41,2.235,3.585,0,2.19-.93,3.6-2.235,3.6-1.32,0-2.25-1.41-2.25-3.6C2.46-8.79,3.39-10.2,4.71-10.2Zm14.1-.975H17.6V-8.76A7.129,7.129,0,0,1,14.13-2.745l.735.99A7.452,7.452,0,0,0,18.21-6.21a7.421,7.421,0,0,0,3.255,4.185L22.23-3a6.794,6.794,0,0,1-3.42-5.76Zm8.055,4.29h-2.22V-12.33h-1.23V1.11h1.23V-5.865h2.22Zm9.465-3.81H32.865V-12.33h-1.23v1.635h-3.48v.99H36.33ZM30.18-6.45c0-.945.84-1.545,2.07-1.545s2.055.6,2.055,1.545-.84,1.53-2.055,1.53S30.18-5.52,30.18-6.45Zm2.685,2.46c1.59-.2,2.61-1.125,2.61-2.46,0-1.515-1.305-2.49-3.225-2.49s-3.24.975-3.24,2.49c0,1.35,1.035,2.28,2.625,2.475v1.44c-1.335.045-2.625.06-3.765.06l.18,1.035a55.021,55.021,0,0,0,8.715-.54l-.09-.915c-1.23.165-2.535.255-3.81.315Zm4.665-8.34V1.11h1.23V-12.33Z" transform="translate(377.6 129.5)"/>
  <path id="패스_1553" data-name="패스 1553" class="cls-8" d="M227.12-208.25H568.879v-30H227.12Z" transform="translate(0 376)"/>
  <path id="패스_1556" data-name="패스 1556" class="cls-9" d="M3.146,2.509l.468-.234A11.953,11.953,0,0,1,1.9-4a11.987,11.987,0,0,1,1.716-6.279l-.468-.247A11.987,11.987,0,0,0,1.248-4,11.943,11.943,0,0,0,3.146,2.509ZM8.2-9.581H7.54v2.314a6.388,6.388,0,0,1-3.081,5.1l.429.559a7.085,7.085,0,0,0,3-4.069,6.705,6.705,0,0,0,2.99,3.822l.429-.533A6.134,6.134,0,0,1,8.2-7.267Zm7.176,3.757H13.351v-4.823h-.689V.91h.689V-5.239h2.028ZM17.6-9.178h-.689v6.994H17.6a20.49,20.49,0,0,0,4.225-.4L21.736-3.2a19.513,19.513,0,0,1-4.134.39Zm7.735-1.469V-5.8h-2v-4.563h-.663V.286h.663V-5.187h2V.91H26V-10.647Zm11.31.013V.91h.689V-10.634ZM31.33-9.7c-1.69,0-2.873,1.56-2.873,3.965S29.64-1.768,31.33-1.768s2.86-1.547,2.86-3.965S33.007-9.7,31.33-9.7Zm0,.611c1.287,0,2.2,1.378,2.2,3.354s-.91,3.367-2.2,3.367-2.21-1.391-2.21-3.367S30.03-9.087,31.33-9.087ZM43.3-9.581H42.64v2.314a6.388,6.388,0,0,1-3.081,5.1l.429.559a7.085,7.085,0,0,0,3-4.069,6.705,6.705,0,0,0,2.99,3.822l.429-.533A6.134,6.134,0,0,1,43.3-7.267Zm7.176,3.757H48.451v-4.823h-.689V.91h.689V-5.239h2.028ZM56.615.169a2.651,2.651,0,0,0,2.86-2.678A2.47,2.47,0,0,0,57.4-4.953v-.065a2.365,2.365,0,0,0,1.742-2.34,2.306,2.306,0,0,0-2.561-2.3,3.682,3.682,0,0,0-2.535,1.118l.442.52a2.973,2.973,0,0,1,2.08-1,1.659,1.659,0,0,1,1.794,1.716c0,1.131-.728,2.028-2.808,2.028v.637c2.262,0,3.146.858,3.146,2.132A1.973,1.973,0,0,1,56.589-.481a3.242,3.242,0,0,1-2.5-1.157l-.429.507A3.833,3.833,0,0,0,56.615.169Zm13.468-10.79h-.689v8.515h.689Zm-8.4,3.614a2.172,2.172,0,0,1,2.262-2.171,2.172,2.172,0,0,1,2.262,2.171,2.185,2.185,0,0,1-2.262,2.2A2.185,2.185,0,0,1,61.685-7.007Zm5.187,0a2.75,2.75,0,0,0-2.925-2.782,2.75,2.75,0,0,0-2.925,2.782A2.763,2.763,0,0,0,63.947-4.2,2.763,2.763,0,0,0,66.872-7.007ZM63.518.039V-3h-.689V.624h7.644V.039Zm9.048,2.249A2.7,2.7,0,0,0,74.126-.13c0-.689-.312-1.118-.78-1.118a.652.652,0,0,0-.689.65.637.637,0,0,0,.676.663.633.633,0,0,0,.156-.013,1.966,1.966,0,0,1-1.144,1.742ZM81.64-9.581h-.663v2.314a6.388,6.388,0,0,1-3.081,5.1l.429.559a7.085,7.085,0,0,0,3-4.069,6.705,6.705,0,0,0,2.99,3.822l.429-.533A6.134,6.134,0,0,1,81.64-7.267Zm7.176,3.757H86.788v-4.823H86.1V.91h.689V-5.239h2.028Zm2.275-1.391A2.156,2.156,0,0,1,93.47-9.256a2.156,2.156,0,0,1,2.379,2.041A2.156,2.156,0,0,1,93.47-5.174,2.156,2.156,0,0,1,91.091-7.215Zm2.73,2.626a2.649,2.649,0,0,0,2.691-2.626c0-1.573-1.248-2.639-3.042-2.639s-3.042,1.066-3.042,2.639a2.661,2.661,0,0,0,2.7,2.626v2.236c-1.209.039-2.366.039-3.354.039l.117.6A43.669,43.669,0,0,0,97.526-2.2l-.065-.533a30.289,30.289,0,0,1-3.64.338Zm4.459-6.058V.923h.689v-11.57Zm11.8.013V.91h.689V-10.634Zm-5.317.936c-1.69,0-2.873,1.56-2.873,3.965s1.183,3.965,2.873,3.965,2.86-1.547,2.86-3.965S106.444-9.7,104.767-9.7Zm0,.611c1.287,0,2.2,1.378,2.2,3.354s-.91,3.367-2.2,3.367-2.21-1.391-2.21-3.367S103.467-9.087,104.767-9.087Zm11.973-.494h-.663v2.314A6.388,6.388,0,0,1,113-2.171l.429.559a7.085,7.085,0,0,0,3-4.069,6.705,6.705,0,0,0,2.99,3.822l.429-.533a6.134,6.134,0,0,1-3.107-4.875Zm7.176,3.757h-2.028v-4.823H121.2V.91h.689V-5.239h2.028Zm3.9,2.483L130.39-7.1c.273-.429.533-.884.754-1.313h.065c-.039.442-.078,1.144-.078,1.573v3.5Zm5.4,0h-1.339V-9.477h-.741l-4.186,6.292V-2.7h4.186V0h.741V-2.7h1.339Zm10.309-7.28h-.689v8.515h.689Zm-8.4,3.614a2.172,2.172,0,0,1,2.262-2.171,2.172,2.172,0,0,1,2.262,2.171,2.185,2.185,0,0,1-2.262,2.2A2.185,2.185,0,0,1,135.122-7.007Zm5.187,0a2.75,2.75,0,0,0-2.925-2.782,2.75,2.75,0,0,0-2.925,2.782A2.763,2.763,0,0,0,137.384-4.2,2.763,2.763,0,0,0,140.309-7.007ZM136.955.039V-3h-.689V.624h7.644V.039Zm9.087,2.47A11.943,11.943,0,0,0,147.94-4a11.987,11.987,0,0,0-1.9-6.526l-.468.247A11.987,11.987,0,0,1,147.29-4a11.953,11.953,0,0,1-1.716,6.279Z" transform="translate(322.282 158.47)"/>
</svg>
