<svg id="구성_요소_31_1" data-name="구성 요소 31 – 1" xmlns="http://www.w3.org/2000/svg" width="796" height="376" viewBox="0 0 796 376">
  <defs>
    <style>
      .cls-1 {
        fill: #f9fafa;
      }

      .cls-2 {
        fill: #132e54;
      }

      .cls-3, .cls-6, .cls-7 {
        fill: none;
      }

      .cls-3 {
        stroke: #132e54;
        stroke-width: 0.5px;
      }

      .cls-4 {
        fill: #78a5e2;
      }

      .cls-5 {
        fill: #fff;
      }

      .cls-6 {
        stroke: #0b468c;
      }

      .cls-7 {
        stroke: #78a5e2;
      }

      .cls-8 {
        fill: #656464;
      }
    </style>
  </defs>
  <rect id="사각형_62" data-name="사각형 62" class="cls-1" width="796" height="376"/>
  <rect id="사각형_63" data-name="사각형 63" class="cls-2" width="265.187" height="36.842" transform="translate(268.563 29.658)"/>
  <line id="선_273" data-name="선 273" class="cls-3" y2="80" transform="translate(116.143 257)"/>
  <rect id="사각형_64" data-name="사각형 64" class="cls-4" width="192" height="30.534" transform="translate(20.143 241.542)"/>
  <path id="패스_1331" data-name="패스 1331" class="cls-5" d="M1.38-11.49v1.005H6.27C6.03-8.2,4.065-6.435.78-5.55l.48.975C5.22-5.655,7.59-8.07,7.59-11.49Zm2.595,8.4H10.02V-.075H3.975ZM2.76.915h8.475v-5H2.76ZM13.23-9.06H11.235v-3.3h-1.23v7.65h1.23V-8.04H13.23Zm5.58-2.115H17.6V-8.76A7.129,7.129,0,0,1,14.13-2.745l.735.99A7.452,7.452,0,0,0,18.21-6.21a7.421,7.421,0,0,0,3.255,4.185L22.23-3a6.794,6.794,0,0,1-3.42-5.76Zm8.055,4.29h-2.22V-12.33h-1.23V1.11h1.23V-5.865h2.22Zm5.34-3.81c1.3,0,2.235.7,2.235,1.755s-.93,1.755-2.235,1.755c-1.32,0-2.25-.705-2.25-1.755S30.885-10.695,32.205-10.695Zm0,4.515c1.995,0,3.42-1.125,3.42-2.76s-1.425-2.775-3.42-2.775c-2.01,0-3.435,1.125-3.435,2.775S30.195-6.18,32.205-6.18Zm4.425.66a61.8,61.8,0,0,1-8.865.48L27.93-4c1.11,0,2.385-.015,3.72-.075V.69h1.23V-4.155a33.729,33.729,0,0,0,3.855-.45Zm.975-6.81V1.125h1.23V-12.33Zm10.74,7.935v.915h2.73V-2.1h1.23V-12.345h-1.23v7.95ZM45.6-10.89c1.275,0,2.145.57,2.145,1.425s-.87,1.44-2.145,1.44-2.145-.57-2.145-1.44S44.325-10.89,45.6-10.89Zm0,3.78c1.965,0,3.315-.915,3.315-2.355,0-1.41-1.35-2.34-3.315-2.34s-3.315.93-3.315,2.34C42.285-8.025,43.635-7.11,45.6-7.11Zm-.48,4.53h1.23V-5.235c1.215-.075,2.46-.21,3.645-.39l-.1-.885a73.088,73.088,0,0,1-8.67.39l.165,1.02c1.11,0,2.4-.015,3.735-.075ZM44.37-.2v-2.91H43.14V.81h9.51V-.2Zm18.96-10.5H59.865V-12.33h-1.23v1.635h-3.48v.99H63.33ZM57.18-6.45c0-.945.84-1.545,2.07-1.545s2.055.6,2.055,1.545-.84,1.53-2.055,1.53S57.18-5.52,57.18-6.45Zm2.685,2.46c1.59-.2,2.61-1.125,2.61-2.46,0-1.515-1.305-2.49-3.225-2.49s-3.24.975-3.24,2.49c0,1.35,1.035,2.28,2.625,2.475v1.44c-1.335.045-2.625.06-3.765.06l.18,1.035a55.021,55.021,0,0,0,8.715-.54l-.09-.915c-1.23.165-2.535.255-3.81.315Zm4.665-8.34V1.11h1.23V-12.33Z" transform="translate(82.243 261.201)"/>
  <line id="선_274" data-name="선 274" class="cls-6" x2="192" transform="translate(20.143 271.575)"/>
  <path id="패스_279" data-name="패스 279" class="cls-5" d="M5198.563,3345.713h-191v29h191Z" transform="translate(-4986.92 -3023.021)"/>
  <path id="패스_280" data-name="패스 280" class="cls-7" d="M5198.563,3345.713h-191v29h191Z" transform="translate(-4986.92 -3023.021)"/>
  <rect id="사각형_65" data-name="사각형 65" class="cls-1" width="192.285" height="27" transform="translate(20 272.41)"/>
  <path id="패스_1332" data-name="패스 1332" class="cls-8" d="M3.146,2.509l.468-.234A11.953,11.953,0,0,1,1.9-4a11.987,11.987,0,0,1,1.716-6.279l-.468-.247A11.987,11.987,0,0,0,1.248-4,11.943,11.943,0,0,0,3.146,2.509ZM5.278-9.36v.585H9.893c-.182,2.847-1.937,5.3-5.109,6.838l.377.572c3.718-1.833,5.421-4.771,5.421-8Zm7.995-1.274V.91h.689V-10.634Zm4.212,8.073V-5.694H21.84v-.585H17.485V-8.957h4.667v-.585H16.8v7.566h.871a28.745,28.745,0,0,0,5.538-.4l-.091-.585a27.533,27.533,0,0,1-5.447.4ZM27.079-5.85H25.051v-4.8h-.689V.91h.689V-5.265h2.028Zm9.568-4.8V.923h.689v-11.57ZM28.678-9.633v7.709h5.3V-9.633h-.689v3.2H29.367v-3.2Zm.689,3.77h3.926v3.354H29.367Zm16.9.858a4.352,4.352,0,0,1-2.951-3.757v-1.313h-.663v1.287a4.545,4.545,0,0,1-2.951,4.1l.364.559a5.186,5.186,0,0,0,2.951-3.2A5.041,5.041,0,0,0,45.89-4.459ZM44.928.312c-1.846,0-3.042-.559-3.042-1.456s1.2-1.469,3.042-1.469,3.055.559,3.055,1.469S46.787.312,44.928.312Zm0-3.484c-2.327,0-3.718.728-3.718,2.028S42.6.871,44.928.871s3.731-.728,3.731-2.015S47.255-3.172,44.928-3.172Zm3.64-4.3v-3.172h-.689v7.124h.689V-6.877h1.807v-.6ZM59.761-6.123H53.443V-9.386h6.318Zm.676-3.835h-7.67v4.407h7.67Zm1.4,6.175H51.35V-3.2h4.875V.9h.689V-3.2h4.927Zm9.906-6.851V.91h.689V-10.634ZM66.43-9.7c-1.69,0-2.873,1.56-2.873,3.965S64.74-1.768,66.43-1.768s2.86-1.547,2.86-3.965S68.107-9.7,66.43-9.7Zm0,.611c1.287,0,2.2,1.378,2.2,3.354s-.91,3.367-2.2,3.367-2.21-1.391-2.21-3.367S65.13-9.087,66.43-9.087ZM78.4-9.581H77.74v2.314a6.388,6.388,0,0,1-3.081,5.1l.429.559a7.085,7.085,0,0,0,3-4.069,6.705,6.705,0,0,0,2.99,3.822l.429-.533A6.134,6.134,0,0,1,78.4-7.267Zm7.176,3.757H83.551v-4.823h-.689V.91h.689V-5.239h2.028ZM89.557,0h4.888V-.663H92.469V-9.477h-.611a5.441,5.441,0,0,1-1.807.6v.507H91.7V-.663H89.557ZM105.2-10.621h-.689v8.515h.689ZM96.8-7.007A2.172,2.172,0,0,1,99.06-9.178a2.172,2.172,0,0,1,2.262,2.171,2.185,2.185,0,0,1-2.262,2.2A2.185,2.185,0,0,1,96.8-7.007Zm5.187,0A2.75,2.75,0,0,0,99.06-9.789a2.75,2.75,0,0,0-2.925,2.782A2.763,2.763,0,0,0,99.06-4.2,2.763,2.763,0,0,0,101.985-7.007ZM98.631.039V-3h-.689V.624h7.644V.039Zm9.048,2.249a2.7,2.7,0,0,0,1.56-2.418c0-.689-.312-1.118-.78-1.118a.652.652,0,0,0-.689.65.637.637,0,0,0,.676.663A.633.633,0,0,0,108.6.052a1.966,1.966,0,0,1-1.144,1.742Zm9.087-11.869H116.1v2.314a6.388,6.388,0,0,1-3.081,5.1l.429.559a7.085,7.085,0,0,0,3-4.069,6.705,6.705,0,0,0,2.99,3.822l.429-.533a6.134,6.134,0,0,1-3.107-4.875Zm7.176,3.757h-2.028v-4.823h-.689V.91h.689V-5.239h2.028Zm2.275-1.391A2.156,2.156,0,0,1,128.6-9.256a2.156,2.156,0,0,1,2.379,2.041A2.156,2.156,0,0,1,128.6-5.174,2.156,2.156,0,0,1,126.217-7.215Zm2.73,2.626a2.649,2.649,0,0,0,2.691-2.626c0-1.573-1.248-2.639-3.042-2.639s-3.042,1.066-3.042,2.639a2.661,2.661,0,0,0,2.7,2.626v2.236c-1.209.039-2.366.039-3.354.039l.117.6a43.669,43.669,0,0,0,7.631-.481l-.065-.533a30.289,30.289,0,0,1-3.64.338Zm4.459-6.058V.923h.689v-11.57Zm11.8.013V.91h.689V-10.634Zm-5.317.936c-1.69,0-2.873,1.56-2.873,3.965s1.183,3.965,2.873,3.965,2.86-1.547,2.86-3.965S141.57-9.7,139.893-9.7Zm0,.611c1.287,0,2.2,1.378,2.2,3.354s-.91,3.367-2.2,3.367-2.21-1.391-2.21-3.367S138.593-9.087,139.893-9.087Zm11.973-.494H151.2v2.314a6.388,6.388,0,0,1-3.081,5.1l.429.559a7.085,7.085,0,0,0,3-4.069,6.705,6.705,0,0,0,2.99,3.822l.429-.533a6.134,6.134,0,0,1-3.107-4.875Zm7.176,3.757h-2.028v-4.823h-.689V.91h.689V-5.239h2.028ZM162.409,0h5.707V-.676h-2.951c-.494,0-1.04.039-1.56.078,2.522-2.353,4.056-4.342,4.056-6.331a2.483,2.483,0,0,0-2.626-2.717,3.484,3.484,0,0,0-2.665,1.365l.481.455a2.823,2.823,0,0,1,2.106-1.183A1.863,1.863,0,0,1,166.894-6.9c0,1.716-1.274,3.666-4.485,6.435Zm16.25-10.621h-.689v8.515h.689Zm-8.4,3.614a2.172,2.172,0,0,1,2.262-2.171,2.172,2.172,0,0,1,2.262,2.171,2.185,2.185,0,0,1-2.262,2.2A2.185,2.185,0,0,1,170.261-7.007Zm5.187,0a2.75,2.75,0,0,0-2.925-2.782A2.75,2.75,0,0,0,169.6-7.007,2.763,2.763,0,0,0,172.523-4.2,2.763,2.763,0,0,0,175.448-7.007ZM172.094.039V-3H171.4V.624h7.644V.039Zm9.087,2.47A11.943,11.943,0,0,0,183.079-4a11.987,11.987,0,0,0-1.9-6.526l-.468.247A11.987,11.987,0,0,1,182.429-4a11.953,11.953,0,0,1-1.716,6.279Z" transform="translate(22.875 291.629)"/>
  <path id="패스_1333" data-name="패스 1333" d="M4.284-9.24H6.8v-.63H.952v.63H3.584V-7.9A6.165,6.165,0,0,1,.714-2.282l.49.574A6.081,6.081,0,0,0,3.962-5.8,5.728,5.728,0,0,0,6.608-2.128l.462-.588A5.678,5.678,0,0,1,4.284-7.9Zm6.286-2.212V-6.3H8.554v-4.844H7.84V.308h.714v-5.95H10.57V.98H11.3V-11.452ZM22.512-6.594h-6.8v-3.514h6.8Zm.728-4.13H14.98v4.746h8.26Zm1.512,6.65h-11.3v.63H18.7V.966h.742v-4.41h5.306Zm9.114-1.82a32.143,32.143,0,0,1-6.006.378h-.224V-7.532h4.816v-.616H27.636v-1.9h5.152v-.63H26.894V-4.9h.966a32.435,32.435,0,0,0,6.1-.378Zm-4.76,3.178h6.44V.154h-6.44Zm-.728,3.5h7.9V-3.332h-7.9Zm7.154-12.236v7.434h.742v-7.434ZM41.44,2.7l.5-.252A12.873,12.873,0,0,1,40.1-4.312a12.909,12.909,0,0,1,1.848-6.762l-.5-.266A12.91,12.91,0,0,0,39.4-4.312,12.862,12.862,0,0,0,41.44,2.7ZM43.554,0h5.264V-.714H46.69v-9.492h-.658a5.859,5.859,0,0,1-1.946.644v.546h1.778v8.3h-2.31ZM50.19,0h6.146V-.728H53.158c-.532,0-1.12.042-1.68.084,2.716-2.534,4.368-4.676,4.368-6.818a2.674,2.674,0,0,0-2.828-2.926,3.752,3.752,0,0,0-2.87,1.47l.518.49A3.04,3.04,0,0,1,52.934-9.7,2.006,2.006,0,0,1,55.02-7.434c0,1.848-1.372,3.948-4.83,6.93ZM63.084-5.684h-4.1V-9.87h4.1Zm3.948-3.01V-6.86h-3.22V-8.694ZM63.812-6.23h3.22v2.17h.742v-7.392h-.742v2.128h-3.22v-1.162H58.268v5.418h5.544ZM63.756.336c-2.03,0-3.332-.644-3.332-1.694s1.3-1.694,3.332-1.694S67.1-2.394,67.1-1.358,65.786.336,63.756.336Zm0-3.99c-2.52,0-4.074.826-4.074,2.3s1.554,2.3,4.074,2.3,4.074-.826,4.074-2.3S66.276-3.654,63.756-3.654ZM70.56,2.7A12.862,12.862,0,0,0,72.6-4.312,12.91,12.91,0,0,0,70.56-11.34l-.5.266A12.909,12.909,0,0,1,71.9-4.312,12.873,12.873,0,0,1,70.056,2.45Zm4.158-.238A2.909,2.909,0,0,0,76.4-.14c0-.742-.336-1.2-.84-1.2a.7.7,0,0,0-.742.7.686.686,0,0,0,.728.714.682.682,0,0,0,.168-.014A2.118,2.118,0,0,1,74.48,1.932ZM90.86-11.452h-.742v9.184h.742Zm-2.6,6.664C86.52-5.39,84.98-6.9,84.98-8.708V-9.716h3.038v-.63H81.186v.63h3.052v1.008A4.71,4.71,0,0,1,80.99-4.55l.392.588a5.423,5.423,0,0,0,3.248-3.3,5.3,5.3,0,0,0,3.262,3.052ZM83.79.042V-3.15h-.742V.672H91.28V.042Zm16.954-5.866a27.5,27.5,0,0,1-5.754.434h-.182V-9.716h4.718v-.63h-5.46v5.6h.924a28.173,28.173,0,0,0,5.838-.448ZM96.166-3.318h-.742V.672h8.2V.042H96.166ZM103.012-7.6V-11.48h-.742v9.03h.742V-6.958h1.946V-7.6ZM113.82-5.894a32.143,32.143,0,0,1-6.006.378h-.224V-7.532h4.816v-.616H107.59v-1.9h5.152v-.63h-5.894V-4.9h.966a32.435,32.435,0,0,0,6.1-.378Zm-4.76,3.178h6.44V.154h-6.44Zm-.728,3.5h7.9V-3.332h-7.9Zm7.154-12.236v7.434h.742v-7.434ZM121.394,2.7l.5-.252a12.873,12.873,0,0,1-1.848-6.762,12.909,12.909,0,0,1,1.848-6.762l-.5-.266a12.91,12.91,0,0,0-2.044,7.028A12.862,12.862,0,0,0,121.394,2.7Zm2.016-6.3,2.772-4.046c.294-.462.574-.952.812-1.414h.07c-.042.476-.084,1.232-.084,1.694V-3.6Zm5.81,0h-1.442v-6.608h-.8L122.472-3.43v.518h4.508V0h.8V-2.912h1.442Zm6.51-2.086h-4.1V-9.87h4.1Zm3.948-3.01V-6.86h-3.22V-8.694Zm-3.22,2.464h3.22v2.17h.742v-7.392h-.742v2.128h-3.22v-1.162h-5.544v5.418h5.544ZM136.4.336c-2.03,0-3.332-.644-3.332-1.694s1.3-1.694,3.332-1.694,3.346.658,3.346,1.694S138.432.336,136.4.336Zm0-3.99c-2.52,0-4.074.826-4.074,2.3s1.554,2.3,4.074,2.3,4.074-.826,4.074-2.3S138.922-3.654,136.4-3.654Zm6.8,6.356a12.862,12.862,0,0,0,2.044-7.014,12.91,12.91,0,0,0-2.044-7.028l-.5.266a12.909,12.909,0,0,1,1.848,6.762A12.873,12.873,0,0,1,142.7,2.45Z" transform="translate(42.559 343.352)"/>
  <line id="선_275" data-name="선 275" class="cls-3" y2="80" transform="translate(679.857 257)"/>
  <rect id="사각형_66" data-name="사각형 66" class="cls-4" width="192" height="30" transform="translate(583.857 242)"/>
  <path id="패스_1337" data-name="패스 1337" class="cls-5" d="M10.635-8.865v1.8H7.11v1h3.525v1.77H11.88v-8.04H10.635v2.46H7.59a7.718,7.718,0,0,0,.15-1.455H1.665v.99H6.4C6.18-8.01,4.185-6.225.975-5.265l.495.975C4.365-5.13,6.4-6.7,7.275-8.865ZM7.485.09c-1.98,0-3.24-.615-3.24-1.635s1.26-1.62,3.24-1.62,3.24.615,3.24,1.62S9.465.09,7.485.09Zm0-4.23c-2.715,0-4.455.975-4.455,2.595S4.77,1.05,7.485,1.05,11.94.075,11.94-1.545,10.2-4.14,7.485-4.14Zm8.19-4.215a2.164,2.164,0,0,1,2.3-2.145,2.142,2.142,0,0,1,2.28,2.145,2.145,2.145,0,0,1-2.28,2.16A2.166,2.166,0,0,1,15.675-8.355Zm8.46-1.05v2.1h-2.9a3.028,3.028,0,0,0,.18-1.05,3.28,3.28,0,0,0-.165-1.05Zm0,3.105v1.92H25.38v-7.965H24.135v1.935h-3.45a3.581,3.581,0,0,0-2.715-1.125,3.21,3.21,0,0,0-3.465,3.18,3.225,3.225,0,0,0,3.465,3.21A3.5,3.5,0,0,0,20.685-6.3ZM20.925.12C18.9.12,17.67-.48,17.67-1.485s1.23-1.62,3.255-1.62c2.055,0,3.285.6,3.285,1.62S22.98.12,20.925.12Zm0-4.185c-2.76,0-4.47.945-4.47,2.58s1.71,2.58,4.47,2.58c2.775,0,4.5-.945,4.5-2.58S23.7-4.065,20.925-4.065Zm11.28-6.63c1.3,0,2.235.7,2.235,1.755s-.93,1.755-2.235,1.755c-1.32,0-2.25-.705-2.25-1.755S30.885-10.695,32.205-10.695Zm0,4.515c1.995,0,3.42-1.125,3.42-2.76s-1.425-2.775-3.42-2.775c-2.01,0-3.435,1.125-3.435,2.775S30.195-6.18,32.205-6.18Zm4.425.66a61.8,61.8,0,0,1-8.865.48L27.93-4c1.11,0,2.385-.015,3.72-.075V.69h1.23V-4.155a33.729,33.729,0,0,0,3.855-.45Zm.975-6.81V1.125h1.23V-12.33ZM48.36-4.395v.915h2.73V-2.1h1.23V-12.345H51.09v7.95Zm-2.745-6.5c1.275,0,2.145.57,2.145,1.425s-.87,1.44-2.145,1.44S43.47-8.6,43.47-9.465,44.34-10.89,45.615-10.89Zm0,3.78c1.965,0,3.315-.915,3.315-2.355,0-1.41-1.35-2.34-3.315-2.34s-3.315.93-3.315,2.34C42.3-8.025,43.65-7.11,45.615-7.11Zm-.48,4.53h1.23V-5.235c1.215-.075,2.46-.21,3.645-.39l-.1-.885a73.088,73.088,0,0,1-8.67.39L41.4-5.1c1.11,0,2.4-.015,3.735-.075ZM44.385-.2v-2.91h-1.23V.81h9.51V-.2Zm18.96-10.5H59.88V-12.33H58.65v1.635H55.17v.99h8.175ZM57.195-6.45c0-.945.84-1.545,2.07-1.545s2.055.6,2.055,1.545-.84,1.53-2.055,1.53S57.195-5.52,57.195-6.45ZM59.88-3.99c1.59-.2,2.61-1.125,2.61-2.46,0-1.515-1.305-2.49-3.225-2.49s-3.24.975-3.24,2.49c0,1.35,1.035,2.28,2.625,2.475v1.44c-1.335.045-2.625.06-3.765.06l.18,1.035a55.021,55.021,0,0,0,8.715-.54l-.09-.915c-1.23.165-2.535.255-3.81.315Zm4.665-8.34V1.11h1.23V-12.33Z" transform="translate(645.957 261.528)"/>
  <line id="선_276" data-name="선 276" class="cls-6" x2="192" transform="translate(583.858 271.5)"/>
  <path id="패스_281" data-name="패스 281" class="cls-5" d="M5762.278,3345.521h-191v29h191Z" transform="translate(-4986.92 -3023.021)"/>
  <path id="패스_282" data-name="패스 282" class="cls-7" d="M5762.278,3345.521h-191v29h191Z" transform="translate(-4986.92 -3023.021)"/>
  <rect id="사각형_67" data-name="사각형 67" class="cls-1" width="192.285" height="27" transform="translate(583.715 272.41)"/>
  <path id="패스_1338" data-name="패스 1338" class="cls-8" d="M3.146,2.509l.468-.234A11.953,11.953,0,0,1,1.9-4a11.987,11.987,0,0,1,1.716-6.279l-.468-.247A11.987,11.987,0,0,0,1.248-4,11.943,11.943,0,0,0,3.146,2.509ZM8.2-9.581H7.54v2.314a6.388,6.388,0,0,1-3.081,5.1l.429.559a7.085,7.085,0,0,0,3-4.069,6.705,6.705,0,0,0,2.99,3.822l.429-.533A6.134,6.134,0,0,1,8.2-7.267Zm7.176,3.757H13.351v-4.823h-.689V.91h.689V-5.239h2.028ZM17.6-9.178h-.689v6.994H17.6a20.49,20.49,0,0,0,4.225-.4L21.736-3.2a19.513,19.513,0,0,1-4.134.39Zm7.735-1.469V-5.8h-2v-4.563h-.663V.286h.663V-5.187h2V.91H26V-10.647Zm11.31.013V.91h.689V-10.634ZM31.33-9.7c-1.69,0-2.873,1.56-2.873,3.965S29.64-1.768,31.33-1.768s2.86-1.547,2.86-3.965S33.007-9.7,31.33-9.7Zm0,.611c1.287,0,2.2,1.378,2.2,3.354s-.91,3.367-2.2,3.367-2.21-1.391-2.21-3.367S30.03-9.087,31.33-9.087ZM43.3-9.581H42.64v2.314a6.388,6.388,0,0,1-3.081,5.1l.429.559a7.085,7.085,0,0,0,3-4.069,6.705,6.705,0,0,0,2.99,3.822l.429-.533A6.134,6.134,0,0,1,43.3-7.267Zm7.176,3.757H48.451v-4.823h-.689V.91h.689V-5.239h2.028ZM53.846,0h5.707V-.676H56.6c-.494,0-1.04.039-1.56.078C57.564-2.951,59.1-4.94,59.1-6.929a2.483,2.483,0,0,0-2.626-2.717,3.484,3.484,0,0,0-2.665,1.365l.481.455a2.823,2.823,0,0,1,2.106-1.183A1.863,1.863,0,0,1,58.331-6.9c0,1.716-1.274,3.666-4.485,6.435ZM70.1-10.621h-.689v8.515H70.1ZM61.7-7.007A2.172,2.172,0,0,1,63.96-9.178a2.172,2.172,0,0,1,2.262,2.171,2.185,2.185,0,0,1-2.262,2.2A2.185,2.185,0,0,1,61.7-7.007Zm5.187,0A2.75,2.75,0,0,0,63.96-9.789a2.75,2.75,0,0,0-2.925,2.782A2.763,2.763,0,0,0,63.96-4.2,2.763,2.763,0,0,0,66.885-7.007ZM63.531.039V-3h-.689V.624h7.644V.039Zm9.048,2.249A2.7,2.7,0,0,0,74.139-.13c0-.689-.312-1.118-.78-1.118a.652.652,0,0,0-.689.65.637.637,0,0,0,.676.663A.633.633,0,0,0,73.5.052a1.966,1.966,0,0,1-1.144,1.742ZM78.754-9.36v.585h4.615c-.182,2.847-1.937,5.3-5.109,6.838l.377.572c3.718-1.833,5.421-4.771,5.421-8Zm7.995-1.274V.91h.689V-10.634Zm4.212,8.073V-5.694h4.355v-.585H90.961V-8.957h4.667v-.585H90.272v7.566h.871a28.745,28.745,0,0,0,5.538-.4l-.091-.585a27.533,27.533,0,0,1-5.447.4Zm9.594-3.289H98.527v-4.8h-.689V.91h.689V-5.265h2.028Zm9.568-4.8V.923h.689v-11.57Zm-7.969,1.014v7.709h5.3V-9.633h-.689v3.2h-3.926v-3.2Zm.689,3.77h3.926v3.354h-3.926Zm16.9.858a4.352,4.352,0,0,1-2.951-3.757v-1.313h-.663v1.287a4.545,4.545,0,0,1-2.951,4.1l.364.559a5.186,5.186,0,0,0,2.951-3.2,5.041,5.041,0,0,0,2.873,2.873ZM118.4.312c-1.846,0-3.042-.559-3.042-1.456s1.2-1.469,3.042-1.469,3.055.559,3.055,1.469S120.263.312,118.4.312Zm0-3.484c-2.327,0-3.718.728-3.718,2.028S116.077.871,118.4.871s3.731-.728,3.731-2.015S120.731-3.172,118.4-3.172Zm3.64-4.3v-3.172h-.689v7.124h.689V-6.877h1.807v-.6Zm11.193,1.352h-6.318V-9.386h6.318Zm.676-3.835h-7.67v4.407h7.67Zm1.4,6.175H124.826V-3.2H129.7V.9h.689V-3.2h4.927Zm9.906-6.851V.91h.689V-10.634Zm-5.317.936c-1.69,0-2.873,1.56-2.873,3.965s1.183,3.965,2.873,3.965,2.86-1.547,2.86-3.965S141.583-9.7,139.906-9.7Zm0,.611c1.287,0,2.2,1.378,2.2,3.354s-.91,3.367-2.2,3.367-2.21-1.391-2.21-3.367S138.606-9.087,139.906-9.087Zm11.973-.494h-.663v2.314a6.388,6.388,0,0,1-3.081,5.1l.429.559a7.085,7.085,0,0,0,3-4.069,6.705,6.705,0,0,0,2.99,3.822l.429-.533a6.134,6.134,0,0,1-3.107-4.875Zm7.176,3.757h-2.028v-4.823h-.689V.91h.689V-5.239h2.028ZM163.033,0h4.888V-.663h-1.976V-9.477h-.611a5.44,5.44,0,0,1-1.807.6v.507h1.651V-.663h-2.145Zm15.639-10.621h-.689v8.515h.689Zm-8.4,3.614a2.172,2.172,0,0,1,2.262-2.171A2.172,2.172,0,0,1,174.8-7.007a2.185,2.185,0,0,1-2.262,2.2A2.185,2.185,0,0,1,170.274-7.007Zm5.187,0a2.75,2.75,0,0,0-2.925-2.782,2.75,2.75,0,0,0-2.925,2.782A2.763,2.763,0,0,0,172.536-4.2,2.763,2.763,0,0,0,175.461-7.007ZM172.107.039V-3h-.689V.624h7.644V.039Zm9.087,2.47A11.943,11.943,0,0,0,183.092-4a11.987,11.987,0,0,0-1.9-6.526l-.468.247A11.987,11.987,0,0,1,182.442-4a11.953,11.953,0,0,1-1.716,6.279Z" transform="translate(586.59 291.629)"/>
  <path id="패스_1339" data-name="패스 1339" d="M10.178-8.344V-6.37H6.594v.63h3.584v1.9h.742v-7.6h-.742v2.464H6.972a5.67,5.67,0,0,0,.2-1.484H1.61v.616H6.37C6.174-7.406,4.032-5.558.994-4.606l.336.616c2.6-.826,4.592-2.324,5.418-4.354ZM6.93.322C4.9.322,3.584-.35,3.584-1.4S4.9-3.094,6.93-3.094c2,0,3.332.658,3.332,1.694S8.932.322,6.93.322Zm0-4.018c-2.52,0-4.074.854-4.074,2.3C2.856.07,4.41.924,6.93.924,9.422.924,10.976.07,10.976-1.4,10.976-2.842,9.422-3.7,6.93-3.7Zm7.462-4.1a2.3,2.3,0,0,1,2.436-2.254A2.3,2.3,0,0,1,19.264-7.8,2.293,2.293,0,0,1,16.828-5.53,2.293,2.293,0,0,1,14.392-7.8Zm8.456-1.148v2.31H19.754A3.123,3.123,0,0,0,19.978-7.8a3.105,3.105,0,0,0-.224-1.148Zm0,2.94V-4.06h.742v-7.406h-.742v1.9H19.376a3.192,3.192,0,0,0-2.548-1.12A2.916,2.916,0,0,0,13.678-7.8a2.932,2.932,0,0,0,3.15,2.926,3.2,3.2,0,0,0,2.548-1.134ZM19.558.336c-2.016,0-3.332-.672-3.332-1.736s1.316-1.736,3.332-1.736c2.044,0,3.36.686,3.36,1.736S21.6.336,19.558.336Zm0-4.074c-2.52,0-4.06.854-4.06,2.338S17.038.938,19.558.938,23.646.084,23.646-1.4,22.092-3.738,19.558-3.738Zm7.35-6.342v.63h4.97c-.2,3.066-2.086,5.712-5.5,7.364l.406.616c4-1.974,5.838-5.138,5.838-8.61Zm8.61-1.372V.98h.742V-11.452Zm11.074,1.26H43.33V-11.55h-.742v1.358H39.326V-9.6h7.266Zm-5.8,3c0-.756.868-1.274,2.17-1.274S45.15-7.952,45.15-7.2s-.868,1.288-2.184,1.288S40.8-6.426,40.8-7.2ZM47-4.718c-1.162.168-2.422.266-3.668.322v-.966c1.54-.1,2.52-.756,2.52-1.834,0-1.12-1.148-1.82-2.884-1.82s-2.87.7-2.87,1.82c0,1.078.98,1.736,2.492,1.834v.994c-1.33.056-2.6.056-3.682.056l.112.63a53.208,53.208,0,0,0,8.022-.476ZM40.712-1.932h7.434v2.9h.742V-2.548H40.712Zm7.434-9.492v8.232h.742v-8.232Zm11.06,5.53a32.143,32.143,0,0,1-6.006.378h-.224V-7.532h4.816v-.616H52.976v-1.9h5.152v-.63H52.234V-4.9H53.2a32.435,32.435,0,0,0,6.1-.378Zm-4.76,3.178h6.44V.154h-6.44Zm-.728,3.5h7.9V-3.332h-7.9Zm7.154-12.236v7.434h.742v-7.434ZM66.766,2.7l.5-.252a12.873,12.873,0,0,1-1.848-6.762,12.909,12.909,0,0,1,1.848-6.762l-.5-.266a12.91,12.91,0,0,0-2.044,7.028A12.862,12.862,0,0,0,66.766,2.7ZM68.88,0h5.264V-.714H72.016v-9.492h-.658a5.859,5.859,0,0,1-1.946.644v.546H71.19v8.3H68.88Zm7.294,0h5.264V-.714H79.31v-9.492h-.658a5.859,5.859,0,0,1-1.946.644v.546h1.778v8.3h-2.31ZM88.41-5.684h-4.1V-9.87h4.1Zm3.948-3.01V-6.86h-3.22V-8.694ZM89.138-6.23h3.22v2.17H93.1v-7.392h-.742v2.128h-3.22v-1.162H83.594v5.418h5.544ZM89.082.336c-2.03,0-3.332-.644-3.332-1.694s1.3-1.694,3.332-1.694,3.346.658,3.346,1.694S91.112.336,89.082.336Zm0-3.99c-2.52,0-4.074.826-4.074,2.3s1.554,2.3,4.074,2.3,4.074-.826,4.074-2.3S91.6-3.654,89.082-3.654Zm6.8,6.356A12.862,12.862,0,0,0,97.93-4.312a12.91,12.91,0,0,0-2.044-7.028l-.5.266A12.909,12.909,0,0,1,97.23-4.312,12.873,12.873,0,0,1,95.382,2.45Z" transform="translate(630.277 343.161)"/>
  <path id="패스_283" data-name="패스 283" class="cls-3" d="M5665.92,3264.563v-25.34H5102.882v25.34" transform="translate(-4986.92 -3023.021)"/>
  <line id="선_277" data-name="선 277" class="cls-3" y2="177.5" transform="translate(397.129 64)"/>
  <line id="선_278" data-name="선 278" class="cls-3" y2="80" transform="translate(396.879 257)"/>
  <rect id="사각형_68" data-name="사각형 68" class="cls-4" width="192" height="30" transform="translate(305.031 242)"/>
  <path id="패스_1334" data-name="패스 1334" class="cls-5" d="M5.31-11.175H4.1V-8.76A7.129,7.129,0,0,1,.63-2.745l.735.99A7.452,7.452,0,0,0,4.71-6.21,7.421,7.421,0,0,0,7.965-2.025L8.73-3A6.794,6.794,0,0,1,5.31-8.76Zm8.055,4.29h-2.22V-12.33H9.915V1.11h1.23V-5.865h2.22Zm2.9-1.44a2.166,2.166,0,0,1,2.385-2.1,2.176,2.176,0,0,1,2.415,2.1,2.189,2.189,0,0,1-2.415,2.13A2.18,2.18,0,0,1,16.26-8.325Zm3,3.135a3.142,3.142,0,0,0,3-3.135c0-1.875-1.5-3.15-3.615-3.15-2.07,0-3.585,1.275-3.585,3.15A3.159,3.159,0,0,0,18.03-5.19v2.325c-1.32.045-2.565.045-3.645.045l.15,1.035A48.072,48.072,0,0,0,23.25-2.37l-.1-.915c-1.245.195-2.58.3-3.885.375Zm4.77-7.17V1.14h1.23v-13.5Zm13.56.015V1.14h1.23V-12.345ZM31.725-11.31c-1.995,0-3.42,1.83-3.42,4.7s1.425,4.7,3.42,4.7,3.42-1.83,3.42-4.7S33.72-11.31,31.725-11.31Zm0,1.11c1.305,0,2.235,1.41,2.235,3.585,0,2.19-.93,3.6-2.235,3.6s-2.25-1.41-2.25-3.6C29.475-8.79,30.4-10.2,31.725-10.2Zm14.1-.975H44.61V-8.76a7.129,7.129,0,0,1-3.465,6.015l.735.99A7.452,7.452,0,0,0,45.225-6.21,7.421,7.421,0,0,0,48.48-2.025L49.245-3a6.794,6.794,0,0,1-3.42-5.76Zm8.055,4.29H51.66V-12.33H50.43V1.11h1.23V-5.865h2.22ZM66.255-10.8h-4.74v-1.62H60.27v1.62H55.44v.99H66.255ZM63.975-6.8c0,.825-1.11,1.305-3.075,1.305s-3.1-.48-3.1-1.305S58.935-8.1,60.9-8.1,63.975-7.62,63.975-6.8Zm-7.455,0c0,1.44,1.635,2.235,4.38,2.235,2.715,0,4.35-.8,4.35-2.235s-1.635-2.25-4.35-2.25C58.155-9.045,56.52-8.235,56.52-6.8ZM67-3.615H54.81V-2.61h5.46V1.125h1.245V-2.61H67Zm3.96-4.365h6.87v2.475h-6.87Zm4.05,6.36V-4.515h4.02v-6.87h-1.2v2.4h-6.87v-2.4H69.75v6.87h4.02V-1.62H68.31v1H80.5v-1Zm8.01-3.615A6.858,6.858,0,0,0,87.9-8.04a6.825,6.825,0,0,0,4.86,2.8l.435-.99c-2.4-.33-4.68-1.815-4.68-3.465h4.29v-.99h-4.29v-1.65h-1.23v1.65H83v.99H87.27c0,1.665-2.265,3.135-4.695,3.465ZM93.99-4.215H81.825v1h5.46V1.125h1.23V-3.21H93.99Zm8.46-3.99v1.02h2.715V-2.3h1.245V-12.33h-1.245V-8.2Zm.825,3.045a4.394,4.394,0,0,1-3.36-3.975v-.42h2.97v-.99h-2.97v-1.71h-1.23v1.71H95.7v.99h2.985v.42a4.61,4.61,0,0,1-3.33,4.23l.615.96a5.451,5.451,0,0,0,3.345-3.18,5.524,5.524,0,0,0,3.36,2.94ZM99.045-.2v-3H97.8v4h8.985V-.2Zm14.19-10.5c1.305,0,2.235.7,2.235,1.755s-.93,1.755-2.235,1.755-2.25-.705-2.25-1.755S111.915-10.695,113.235-10.695Zm0,4.515c1.995,0,3.42-1.125,3.42-2.76s-1.425-2.775-3.42-2.775c-2.01,0-3.435,1.125-3.435,2.775S111.225-6.18,113.235-6.18Zm4.425.66a61.8,61.8,0,0,1-8.865.48L108.96-4c1.11,0,2.385-.015,3.72-.075V.69h1.23V-4.155a33.729,33.729,0,0,0,3.855-.45Zm.975-6.81V1.125h1.23V-12.33Zm10.74,7.935v.915h2.73V-2.1h1.23V-12.345H132.1v7.95Zm-2.745-6.5c1.275,0,2.145.57,2.145,1.425s-.87,1.44-2.145,1.44-2.145-.57-2.145-1.44S125.355-10.89,126.63-10.89Zm0,3.78c1.965,0,3.315-.915,3.315-2.355,0-1.41-1.35-2.34-3.315-2.34s-3.315.93-3.315,2.34C123.315-8.025,124.665-7.11,126.63-7.11Zm-.48,4.53h1.23V-5.235c1.215-.075,2.46-.21,3.645-.39l-.1-.885a73.088,73.088,0,0,1-8.67.39l.165,1.02c1.11,0,2.4-.015,3.735-.075ZM125.4-.2v-2.91h-1.23V.81h9.51V-.2Zm18.975-10.5H140.91V-12.33h-1.23v1.635H136.2v.99h8.175Zm-6.15,4.245c0-.945.84-1.545,2.07-1.545s2.055.6,2.055,1.545-.84,1.53-2.055,1.53S138.225-5.52,138.225-6.45Zm2.685,2.46c1.59-.2,2.61-1.125,2.61-2.46,0-1.515-1.305-2.49-3.225-2.49s-3.24.975-3.24,2.49c0,1.35,1.035,2.28,2.625,2.475v1.44c-1.335.045-2.625.06-3.765.06l.18,1.035a55.021,55.021,0,0,0,8.715-.54l-.09-.915c-1.23.165-2.535.255-3.81.315Zm4.665-8.34V1.11h1.23V-12.33Z" transform="translate(326.632 261.528)"/>
  <line id="선_279" data-name="선 279" class="cls-6" x2="192" transform="translate(305.032 271.5)"/>
  <path id="패스_284" data-name="패스 284" class="cls-5" d="M5483.451,3345.521h-191v29h191Z" transform="translate(-4986.92 -3023.021)"/>
  <path id="패스_285" data-name="패스 285" class="cls-7" d="M5483.451,3345.521h-191v29h191Z" transform="translate(-4986.92 -3023.021)"/>
  <rect id="사각형_69" data-name="사각형 69" class="cls-1" width="202.285" height="27" transform="translate(296.857 272.41)"/>
  <path id="패스_1335" data-name="패스 1335" class="cls-8" d="M3.146,2.509l.468-.234A11.953,11.953,0,0,1,1.9-4a11.987,11.987,0,0,1,1.716-6.279l-.468-.247A11.987,11.987,0,0,0,1.248-4,11.943,11.943,0,0,0,3.146,2.509ZM8.2-9.581H7.54v2.314a6.388,6.388,0,0,1-3.081,5.1l.429.559a7.085,7.085,0,0,0,3-4.069,6.705,6.705,0,0,0,2.99,3.822l.429-.533A6.134,6.134,0,0,1,8.2-7.267Zm7.176,3.757H13.351v-4.823h-.689V.91h.689V-5.239h2.028ZM17.6-9.178h-.689v6.994H17.6a20.49,20.49,0,0,0,4.225-.4L21.736-3.2a19.513,19.513,0,0,1-4.134.39Zm7.735-1.469V-5.8h-2v-4.563h-.663V.286h.663V-5.187h2V.91H26V-10.647Zm11.31.013V.91h.689V-10.634ZM31.33-9.7c-1.69,0-2.873,1.56-2.873,3.965S29.64-1.768,31.33-1.768s2.86-1.547,2.86-3.965S33.007-9.7,31.33-9.7Zm0,.611c1.287,0,2.2,1.378,2.2,3.354s-.91,3.367-2.2,3.367-2.21-1.391-2.21-3.367S30.03-9.087,31.33-9.087ZM43.3-9.581H42.64v2.314a6.388,6.388,0,0,1-3.081,5.1l.429.559a7.085,7.085,0,0,0,3-4.069,6.705,6.705,0,0,0,2.99,3.822l.429-.533A6.134,6.134,0,0,1,43.3-7.267Zm7.176,3.757H48.451v-4.823h-.689V.91h.689V-5.239h2.028ZM54.47,0h4.888V-.663H57.382V-9.477h-.611a5.441,5.441,0,0,1-1.807.6v.507h1.651V-.663H54.47ZM70.109-10.621H69.42v8.515h.689Zm-8.4,3.614a2.172,2.172,0,0,1,2.262-2.171,2.172,2.172,0,0,1,2.262,2.171,2.185,2.185,0,0,1-2.262,2.2A2.185,2.185,0,0,1,61.711-7.007Zm5.187,0a2.75,2.75,0,0,0-2.925-2.782,2.75,2.75,0,0,0-2.925,2.782A2.763,2.763,0,0,0,63.973-4.2,2.763,2.763,0,0,0,66.9-7.007ZM63.544.039V-3h-.689V.624H70.5V.039Zm9.048,2.249A2.7,2.7,0,0,0,74.152-.13c0-.689-.312-1.118-.78-1.118a.652.652,0,0,0-.689.65.637.637,0,0,0,.676.663.633.633,0,0,0,.156-.013,1.966,1.966,0,0,1-1.144,1.742ZM81.679-9.581h-.663v2.314a6.388,6.388,0,0,1-3.081,5.1l.429.559a7.085,7.085,0,0,0,3-4.069,6.705,6.705,0,0,0,2.99,3.822l.429-.533a6.134,6.134,0,0,1-3.107-4.875Zm7.176,3.757H86.827v-4.823h-.689V.91h.689V-5.239h2.028ZM91.13-7.215a2.156,2.156,0,0,1,2.379-2.041,2.156,2.156,0,0,1,2.379,2.041,2.156,2.156,0,0,1-2.379,2.041A2.156,2.156,0,0,1,91.13-7.215Zm2.73,2.626a2.649,2.649,0,0,0,2.691-2.626c0-1.573-1.248-2.639-3.042-2.639s-3.042,1.066-3.042,2.639a2.661,2.661,0,0,0,2.7,2.626v2.236c-1.209.039-2.366.039-3.354.039l.117.6A43.669,43.669,0,0,0,97.565-2.2L97.5-2.73a30.289,30.289,0,0,1-3.64.338Zm4.459-6.058V.923h.689v-11.57Zm11.8.013V.91h.689V-10.634Zm-5.317.936c-1.69,0-2.873,1.56-2.873,3.965s1.183,3.965,2.873,3.965,2.86-1.547,2.86-3.965S106.483-9.7,104.806-9.7Zm0,.611c1.287,0,2.2,1.378,2.2,3.354s-.91,3.367-2.2,3.367-2.21-1.391-2.21-3.367S103.506-9.087,104.806-9.087Zm11.973-.494h-.663v2.314a6.388,6.388,0,0,1-3.081,5.1l.429.559a7.085,7.085,0,0,0,3-4.069,6.705,6.705,0,0,0,2.99,3.822l.429-.533a6.134,6.134,0,0,1-3.107-4.875Zm7.176,3.757h-2.028v-4.823h-.689V.91h.689V-5.239h2.028ZM127.335,0h5.707V-.676h-2.951c-.494,0-1.04.039-1.56.078,2.522-2.353,4.056-4.342,4.056-6.331a2.483,2.483,0,0,0-2.626-2.717A3.484,3.484,0,0,0,127.3-8.281l.481.455a2.823,2.823,0,0,1,2.106-1.183A1.863,1.863,0,0,1,131.82-6.9c0,1.716-1.274,3.666-4.485,6.435Zm16.25-10.621H142.9v8.515h.689Zm-8.4,3.614a2.172,2.172,0,0,1,2.262-2.171,2.172,2.172,0,0,1,2.262,2.171,2.185,2.185,0,0,1-2.262,2.2A2.185,2.185,0,0,1,135.187-7.007Zm5.187,0a2.75,2.75,0,0,0-2.925-2.782,2.75,2.75,0,0,0-2.925,2.782A2.763,2.763,0,0,0,137.449-4.2,2.763,2.763,0,0,0,140.374-7.007ZM137.02.039V-3h-.689V.624h7.644V.039Zm9.087,2.47A11.943,11.943,0,0,0,148.005-4a11.987,11.987,0,0,0-1.9-6.526l-.468.247A11.987,11.987,0,0,1,147.355-4a11.953,11.953,0,0,1-1.716,6.279Z" transform="translate(322.282 291.629)"/>
  <path id="패스_1336" data-name="패스 1336" d="M1.484,0h.84V-10.206h-.84ZM5.936-9.506H7.882c1.764,0,2.744.546,2.744,2.03s-.98,2.17-2.744,2.17H5.936ZM11.69,0,8.932-4.676a2.685,2.685,0,0,0,2.548-2.8c0-1.988-1.372-2.73-3.4-2.73H5.1V0h.84V-4.606H8.022L10.738,0Zm8.736-5.894a32.143,32.143,0,0,1-6.006.378H14.2V-7.532h4.816v-.616H14.2v-1.9h5.152v-.63H13.454V-4.9h.966a32.435,32.435,0,0,0,6.1-.378Zm-4.76,3.178h6.44V.154h-6.44Zm-.728,3.5h7.9V-3.332h-7.9Zm7.154-12.236v7.434h.742v-7.434ZM27.986,2.7l.5-.252a12.873,12.873,0,0,1-1.848-6.762,12.909,12.909,0,0,1,1.848-6.762l-.5-.266a12.91,12.91,0,0,0-2.044,7.028A12.862,12.862,0,0,0,27.986,2.7ZM30-3.6l2.772-4.046c.294-.462.574-.952.812-1.414h.07c-.042.476-.084,1.232-.084,1.694V-3.6Zm5.81,0H34.37v-6.608h-.8L29.064-3.43v.518h4.508V0h.8V-2.912h1.442Zm6.51-2.086h-4.1V-9.87h4.1Zm3.948-3.01V-6.86H43.05V-8.694ZM43.05-6.23h3.22v2.17h.742v-7.392H46.27v2.128H43.05v-1.162H37.506v5.418H43.05ZM42.994.336c-2.03,0-3.332-.644-3.332-1.694s1.3-1.694,3.332-1.694,3.346.658,3.346,1.694S45.024.336,42.994.336Zm0-3.99c-2.52,0-4.074.826-4.074,2.3s1.554,2.3,4.074,2.3,4.074-.826,4.074-2.3S45.514-3.654,42.994-3.654ZM49.784,2.7a12.862,12.862,0,0,0,2.044-7.014,12.91,12.91,0,0,0-2.044-7.028l-.5.266a12.909,12.909,0,0,1,1.848,6.762A12.873,12.873,0,0,1,49.28,2.45Z" transform="translate(374.48 343.161)"/>
  <rect id="사각형_70" data-name="사각형 70" class="cls-5" width="265.187" height="33.5" transform="translate(262.563 30)"/>
  <rect id="사각형_71" data-name="사각형 71" class="cls-3" width="265.187" height="33.5" transform="translate(262.563 30)"/>
  <path id="패스_1328" data-name="패스 1328" class="cls-2" d="M2-5.76A6.564,6.564,0,0,0,6.885-8.7,6.6,6.6,0,0,0,11.79-5.76l.555-1.215c-2.58-.345-4.485-1.83-4.575-3.4h4.095v-1.245H1.89v1.245H6.015c-.09,1.575-1.995,3.06-4.575,3.4Zm11.025.99H.765v1.245h5.31v4.7H7.62v-4.7h5.385Zm2.475-.99a6.564,6.564,0,0,0,4.89-2.94A6.6,6.6,0,0,0,25.29-5.76l.555-1.215c-2.58-.345-4.485-1.83-4.575-3.4h4.095v-1.245H15.39v1.245h4.125c-.09,1.575-1.995,3.06-4.575,3.4Zm11.025.99H14.265v1.245h5.31v4.7H21.12v-4.7h5.385Zm2.34-1.575c2.37-.195,4.185-.96,5.025-2.16.855,1.2,2.67,1.965,5.025,2.16l.48-1.17c-2.745-.2-4.44-1.17-4.62-2.385h4.02v-1.215H34.665v-1.29H33.12v1.29H28.995V-9.9h4.02c-.18,1.215-1.875,2.19-4.62,2.385Zm5.01,6.33c-1.995,0-3.09-.375-3.09-1.11s1.1-1.125,3.09-1.125c2.01,0,3.1.39,3.1,1.125S35.88-.015,33.87-.015Zm0-3.375c-2.925,0-4.665.8-4.665,2.265s1.74,2.28,4.665,2.28,4.665-.81,4.665-2.28S36.81-3.39,33.87-3.39Zm.8-2.085V-6.96H33.12v1.485H27.765v1.23H40.02v-1.23Zm15.15-5.34H46.5v-1.56H44.955v1.56h-3.33V-9.57h8.19ZM43.89-6.39c0-.825.75-1.335,1.845-1.335,1.08,0,1.83.51,1.83,1.335s-.75,1.35-1.83,1.35C44.64-5.04,43.89-5.55,43.89-6.39ZM46.5-3.915c1.53-.24,2.535-1.155,2.535-2.475,0-1.515-1.35-2.52-3.3-2.52-1.965,0-3.315,1-3.315,2.52,0,1.3,1.005,2.235,2.535,2.475v1.32c-1.275.045-2.52.045-3.6.045l.195,1.275a52.712,52.712,0,0,0,8.655-.555L50.1-2.955c-1.155.165-2.385.24-3.6.315Zm4.365-8.49V1.155h1.56v-13.56Z" transform="translate(366.396 52.594)"/>
  <rect id="사각형_72" data-name="사각형 72" class="cls-2" width="271.233" height="30" transform="translate(262.383 108)"/>
  <path id="패스_1329" data-name="패스 1329" class="cls-5" d="M10.575-12.345V1.14h1.23V-12.345ZM4.71-11.31c-2,0-3.42,1.83-3.42,4.7s1.425,4.7,3.42,4.7,3.42-1.83,3.42-4.7S6.7-11.31,4.71-11.31Zm0,1.11c1.3,0,2.235,1.41,2.235,3.585,0,2.19-.93,3.6-2.235,3.6-1.32,0-2.25-1.41-2.25-3.6C2.46-8.79,3.39-10.2,4.71-10.2Zm14.1-.975H17.6V-8.76A7.129,7.129,0,0,1,14.13-2.745l.735.99A7.452,7.452,0,0,0,18.21-6.21a7.421,7.421,0,0,0,3.255,4.185L22.23-3a6.794,6.794,0,0,1-3.42-5.76Zm8.055,4.29h-2.22V-12.33h-1.23V1.11h1.23V-5.865h2.22Zm9.465-3.81H32.865V-12.33h-1.23v1.635h-3.48v.99H36.33ZM30.18-6.45c0-.945.84-1.545,2.07-1.545s2.055.6,2.055,1.545-.84,1.53-2.055,1.53S30.18-5.52,30.18-6.45Zm2.685,2.46c1.59-.2,2.61-1.125,2.61-2.46,0-1.515-1.305-2.49-3.225-2.49s-3.24.975-3.24,2.49c0,1.35,1.035,2.28,2.625,2.475v1.44c-1.335.045-2.625.06-3.765.06l.18,1.035a55.021,55.021,0,0,0,8.715-.54l-.09-.915c-1.23.165-2.535.255-3.81.315Zm4.665-8.34V1.11h1.23V-12.33Z" transform="translate(377.6 129.5)"/>
  <rect id="사각형_73" data-name="사각형 73" class="cls-1" width="341.759" height="30" transform="translate(227.12 137.75)"/>
  <path id="패스_1330" data-name="패스 1330" class="cls-8" d="M3.146,2.509l.468-.234A11.953,11.953,0,0,1,1.9-4a11.987,11.987,0,0,1,1.716-6.279l-.468-.247A11.987,11.987,0,0,0,1.248-4,11.943,11.943,0,0,0,3.146,2.509ZM8.2-9.581H7.54v2.314a6.388,6.388,0,0,1-3.081,5.1l.429.559a7.085,7.085,0,0,0,3-4.069,6.705,6.705,0,0,0,2.99,3.822l.429-.533A6.134,6.134,0,0,1,8.2-7.267Zm7.176,3.757H13.351v-4.823h-.689V.91h.689V-5.239h2.028ZM17.6-9.178h-.689v6.994H17.6a20.49,20.49,0,0,0,4.225-.4L21.736-3.2a19.513,19.513,0,0,1-4.134.39Zm7.735-1.469V-5.8h-2v-4.563h-.663V.286h.663V-5.187h2V.91H26V-10.647Zm11.31.013V.91h.689V-10.634ZM31.33-9.7c-1.69,0-2.873,1.56-2.873,3.965S29.64-1.768,31.33-1.768s2.86-1.547,2.86-3.965S33.007-9.7,31.33-9.7Zm0,.611c1.287,0,2.2,1.378,2.2,3.354s-.91,3.367-2.2,3.367-2.21-1.391-2.21-3.367S30.03-9.087,31.33-9.087ZM43.3-9.581H42.64v2.314a6.388,6.388,0,0,1-3.081,5.1l.429.559a7.085,7.085,0,0,0,3-4.069,6.705,6.705,0,0,0,2.99,3.822l.429-.533A6.134,6.134,0,0,1,43.3-7.267Zm7.176,3.757H48.451v-4.823h-.689V.91h.689V-5.239h2.028ZM53.846,0h5.707V-.676H56.6c-.494,0-1.04.039-1.56.078C57.564-2.951,59.1-4.94,59.1-6.929a2.483,2.483,0,0,0-2.626-2.717,3.484,3.484,0,0,0-2.665,1.365l.481.455a2.823,2.823,0,0,1,2.106-1.183A1.863,1.863,0,0,1,58.331-6.9c0,1.716-1.274,3.666-4.485,6.435ZM70.1-10.621h-.689v8.515H70.1ZM61.7-7.007A2.172,2.172,0,0,1,63.96-9.178a2.172,2.172,0,0,1,2.262,2.171,2.185,2.185,0,0,1-2.262,2.2A2.185,2.185,0,0,1,61.7-7.007Zm5.187,0A2.75,2.75,0,0,0,63.96-9.789a2.75,2.75,0,0,0-2.925,2.782A2.763,2.763,0,0,0,63.96-4.2,2.763,2.763,0,0,0,66.885-7.007ZM63.531.039V-3h-.689V.624h7.644V.039Zm9.048,2.249A2.7,2.7,0,0,0,74.139-.13c0-.689-.312-1.118-.78-1.118a.652.652,0,0,0-.689.65.637.637,0,0,0,.676.663A.633.633,0,0,0,73.5.052a1.966,1.966,0,0,1-1.144,1.742ZM78.754-9.36v.585h4.615c-.182,2.847-1.937,5.3-5.109,6.838l.377.572c3.718-1.833,5.421-4.771,5.421-8Zm7.995-1.274V.91h.689V-10.634Zm4.212,8.073V-5.694h4.355v-.585H90.961V-8.957h4.667v-.585H90.272v7.566h.871a28.745,28.745,0,0,0,5.538-.4l-.091-.585a27.533,27.533,0,0,1-5.447.4Zm9.594-3.289H98.527v-4.8h-.689V.91h.689V-5.265h2.028Zm9.568-4.8V.923h.689v-11.57Zm-7.969,1.014v7.709h5.3V-9.633h-.689v3.2h-3.926v-3.2Zm.689,3.77h3.926v3.354h-3.926Zm16.9.858a4.352,4.352,0,0,1-2.951-3.757v-1.313h-.663v1.287a4.545,4.545,0,0,1-2.951,4.1l.364.559a5.186,5.186,0,0,0,2.951-3.2,5.041,5.041,0,0,0,2.873,2.873ZM118.4.312c-1.846,0-3.042-.559-3.042-1.456s1.2-1.469,3.042-1.469,3.055.559,3.055,1.469S120.263.312,118.4.312Zm0-3.484c-2.327,0-3.718.728-3.718,2.028S116.077.871,118.4.871s3.731-.728,3.731-2.015S120.731-3.172,118.4-3.172Zm3.64-4.3v-3.172h-.689v7.124h.689V-6.877h1.807v-.6Zm11.193,1.352h-6.318V-9.386h6.318Zm.676-3.835h-7.67v4.407h7.67Zm1.4,6.175H124.826V-3.2H129.7V.9h.689V-3.2h4.927Zm9.906-6.851V.91h.689V-10.634Zm-5.317.936c-1.69,0-2.873,1.56-2.873,3.965s1.183,3.965,2.873,3.965,2.86-1.547,2.86-3.965S141.583-9.7,139.906-9.7Zm0,.611c1.287,0,2.2,1.378,2.2,3.354s-.91,3.367-2.2,3.367-2.21-1.391-2.21-3.367S138.606-9.087,139.906-9.087Zm11.973-.494h-.663v2.314a6.388,6.388,0,0,1-3.081,5.1l.429.559a7.085,7.085,0,0,0,3-4.069,6.705,6.705,0,0,0,2.99,3.822l.429-.533a6.134,6.134,0,0,1-3.107-4.875Zm7.176,3.757h-2.028v-4.823h-.689V.91h.689V-5.239h2.028ZM163.033,0h4.888V-.663h-1.976V-9.477h-.611a5.44,5.44,0,0,1-1.807.6v.507h1.651V-.663h-2.145Zm15.639-10.621h-.689v8.515h.689Zm-8.4,3.614a2.172,2.172,0,0,1,2.262-2.171A2.172,2.172,0,0,1,174.8-7.007a2.185,2.185,0,0,1-2.262,2.2A2.185,2.185,0,0,1,170.274-7.007Zm5.187,0a2.75,2.75,0,0,0-2.925-2.782,2.75,2.75,0,0,0-2.925,2.782A2.763,2.763,0,0,0,172.536-4.2,2.763,2.763,0,0,0,175.461-7.007ZM172.107.039V-3h-.689V.624h7.644V.039Zm9.048,2.249a2.7,2.7,0,0,0,1.56-2.418c0-.689-.312-1.118-.78-1.118a.652.652,0,0,0-.689.65.637.637,0,0,0,.676.663.633.633,0,0,0,.156-.013,1.966,1.966,0,0,1-1.144,1.742Zm9.1-11.869h-.663v2.314a6.388,6.388,0,0,1-3.081,5.1l.429.559a7.085,7.085,0,0,0,3-4.069,6.705,6.705,0,0,0,2.99,3.822l.429-.533a6.134,6.134,0,0,1-3.107-4.875Zm7.176,3.757H195.4v-4.823h-.689V.91h.689V-5.239h2.028Zm2.275-1.391a2.156,2.156,0,0,1,2.379-2.041,2.156,2.156,0,0,1,2.379,2.041,2.156,2.156,0,0,1-2.379,2.041A2.156,2.156,0,0,1,199.706-7.215Zm2.73,2.626a2.649,2.649,0,0,0,2.691-2.626c0-1.573-1.248-2.639-3.042-2.639s-3.042,1.066-3.042,2.639a2.661,2.661,0,0,0,2.7,2.626v2.236c-1.209.039-2.366.039-3.354.039l.117.6a43.669,43.669,0,0,0,7.631-.481l-.065-.533a30.289,30.289,0,0,1-3.64.338Zm4.459-6.058V.923h.689v-11.57Zm11.8.013V.91h.689V-10.634Zm-5.317.936c-1.69,0-2.873,1.56-2.873,3.965s1.183,3.965,2.873,3.965,2.86-1.547,2.86-3.965S215.059-9.7,213.382-9.7Zm0,.611c1.287,0,2.2,1.378,2.2,3.354s-.91,3.367-2.2,3.367-2.21-1.391-2.21-3.367S212.082-9.087,213.382-9.087Zm11.973-.494h-.663v2.314a6.388,6.388,0,0,1-3.081,5.1l.429.559a7.085,7.085,0,0,0,3-4.069,6.705,6.705,0,0,0,2.99,3.822l.429-.533a6.134,6.134,0,0,1-3.107-4.875Zm7.176,3.757H230.5v-4.823h-.689V.91h.689V-5.239h2.028ZM238.6.169a3,3,0,0,0,2.964-3.211c0-2.106-1.248-3.042-2.808-3.042a2.922,2.922,0,0,0-1.586.455l.273-3.185H241.1v-.663h-4.329l-.325,4.329.494.3a2.747,2.747,0,0,1,1.677-.6,2.146,2.146,0,0,1,2.171,2.431,2.323,2.323,0,0,1-2.21,2.535A3.191,3.191,0,0,1,236.093-1.6l-.416.533A3.9,3.9,0,0,0,238.6.169Zm13.546-10.79h-.689v8.515h.689Zm-8.4,3.614a2.172,2.172,0,0,1,2.262-2.171,2.172,2.172,0,0,1,2.262,2.171,2.185,2.185,0,0,1-2.262,2.2A2.185,2.185,0,0,1,243.75-7.007Zm5.187,0a2.75,2.75,0,0,0-2.925-2.782,2.75,2.75,0,0,0-2.925,2.782A2.763,2.763,0,0,0,246.012-4.2,2.763,2.763,0,0,0,248.937-7.007ZM245.583.039V-3h-.689V.624h7.644V.039Zm9.087,2.47A11.943,11.943,0,0,0,256.568-4a11.987,11.987,0,0,0-1.9-6.526l-.468.247A11.987,11.987,0,0,1,255.918-4,11.953,11.953,0,0,1,254.2,2.275Z" transform="translate(267.253 158.47)"/>
</svg>
