<svg xmlns="http://www.w3.org/2000/svg" width="796.5" height="299.76" viewBox="0 0 796.5 299.76">
  <defs>
    <style>
      .cls-1, .cls-2, .cls-9 {
        fill: #1e2323;
      }

      .cls-2 {
        font-size: 17px;
        font-family: NotoSansKR-Medium, Noto Sans KR;
        font-weight: 500;
      }

      .cls-3 {
        letter-spacing: -0.02em;
      }

      .cls-4 {
        fill: #132e54;
      }

      .cls-5, .cls-6, .cls-7, .cls-8 {
        fill: none;
        stroke: #3e3a39;
        stroke-linecap: round;
        stroke-linejoin: round;
      }

      .cls-5 {
        stroke-dasharray: 0 3.027;
      }

      .cls-6 {
        stroke-dasharray: 0 3.018;
      }

      .cls-8 {
        stroke-dasharray: 0 2.99;
      }

      .cls-9 {
        font-size: 16px;
        font-family: NotoSansKR-Light, Noto Sans KR;
        font-weight: 300;
      }

      .cls-10 {
        fill: #5171b1;
      }

      .cls-11 {
        fill: #a0c0eb;
      }

      .cls-12 {
        fill: #d0eaf6;
      }

      .cls-13 {
        fill: #f5f7f7;
      }

      .cls-14 {
        fill: #fff;
      }

      .cls-15 {
        fill: #656464;
      }
    </style>
  </defs>
  <g id="구성_요소_32_1" data-name="구성 요소 32 – 1" transform="translate(0.5)">
    <path id="패스_1344" data-name="패스 1344" class="cls-1" d="M5.68-10.608H8.864V-11.7H1.1v1.088h3.28v1.824A7.5,7.5,0,0,1,.608-2.608l.768,1.04A8.1,8.1,0,0,0,5.04-6.32a7.744,7.744,0,0,0,3.6,4.4l.752-1.056A6.9,6.9,0,0,1,5.68-8.784Zm8.576,3.232H11.888v-5.776H10.576V1.184h1.312V-6.272h2.368Zm1.84-4.24v1.056h5.392c-.272,3.408-2.192,6.16-6.048,8l.7,1.072c4.768-2.336,6.672-5.984,6.672-10.128Zm9.616-1.552V1.184h1.312V-13.168Zm5.216,6.976a7.254,7.254,0,0,0,5.216-3.28c.864,1.7,2.992,2.9,5.216,3.28l.512-1.04c-2.528-.368-5.008-2.016-5.008-3.9v-.08h4.5v-1.056H30.88v1.056h4.528v.08c0,1.888-2.48,3.536-4.976,3.9Zm11.7,1.2H29.664V-3.92h5.792v5.1h1.312v-5.1H42.64ZM52.7-6.416a5.11,5.11,0,0,1-3.6-4.672V-12.5H47.792v1.408A5.367,5.367,0,0,1,44.176-6.16l.672,1.04a6.2,6.2,0,0,0,3.616-3.664,6.033,6.033,0,0,0,3.584,3.408Zm-6.48,3.68h8.288V1.2h1.312V-3.792h-9.6Zm8.288-10.416v8.624h1.312v-8.624Z" transform="translate(0.158 183.39)"/>
    <text id="_" data-name="  " class="cls-2" transform="translate(57.758 184.39)"><tspan class="cls-3" x="0" y="0"> </tspan><tspan y="0"> </tspan></text>
    <path id="패스_1345" data-name="패스 1345" class="cls-4" d="M16.578,0H1.563V-2.234L7.578-8.281A44.3,44.3,0,0,0,11.2-12.25a10.129,10.129,0,0,0,1.313-2.312,6.623,6.623,0,0,0,.438-2.422,3.84,3.84,0,0,0-1.109-2.9,4.249,4.249,0,0,0-3.078-1.07,7.74,7.74,0,0,0-2.7.469,10.744,10.744,0,0,0-2.836,1.7L1.859-20.547a10.531,10.531,0,0,1,6.875-2.625,7.263,7.263,0,0,1,5.047,1.648,5.67,5.67,0,0,1,1.828,4.43,8.555,8.555,0,0,1-1.219,4.3A27.28,27.28,0,0,1,9.828-7.422l-5,4.891v.125h11.75ZM21.63-16.031a10.476,10.476,0,0,0,.578,3.984,1.946,1.946,0,0,0,1.875,1.328q2.563,0,2.563-5.312,0-5.281-2.562-5.281A1.945,1.945,0,0,0,22.208-20,10.349,10.349,0,0,0,21.63-16.031Zm7.156,0a9.874,9.874,0,0,1-1.2,5.383,3.931,3.931,0,0,1-3.508,1.82,3.836,3.836,0,0,1-3.4-1.859,9.8,9.8,0,0,1-1.211-5.344,9.924,9.924,0,0,1,1.164-5.344,3.841,3.841,0,0,1,3.445-1.8,3.922,3.922,0,0,1,3.484,1.859A9.616,9.616,0,0,1,28.786-16.031ZM35.38-6.875a10.467,10.467,0,0,0,.578,3.992,1.955,1.955,0,0,0,1.891,1.32,2.042,2.042,0,0,0,1.938-1.3,9.737,9.737,0,0,0,.625-4.008,9.521,9.521,0,0,0-.625-3.961,2.043,2.043,0,0,0-1.937-1.289,1.954,1.954,0,0,0-1.891,1.289A10.215,10.215,0,0,0,35.38-6.875Zm7.172,0a9.838,9.838,0,0,1-1.2,5.367A3.931,3.931,0,0,1,37.849.313a3.826,3.826,0,0,1-3.414-1.859,9.872,9.872,0,0,1-1.2-5.328A9.924,9.924,0,0,1,34.4-12.219a3.841,3.841,0,0,1,3.445-1.8A3.95,3.95,0,0,1,41.31-12.18,9.451,9.451,0,0,1,42.552-6.875ZM38.521-22.844,25.849,0h-2.3L36.224-22.844Z" transform="translate(66.598 184.39)"/>
    <line id="선_386" data-name="선 386" class="cls-5" x1="114.234" y2="76.916" transform="translate(167.255 67.657)"/>
    <line id="선_387" data-name="선 387" class="cls-6" x1="161.473" transform="translate(1.509 145.417)"/>
    <path id="패스_286" data-name="패스 286" class="cls-7" d="M4986.92,5473.726h0m166,0h0m118-79.449h0" transform="translate(-4986.92 -5328.31)"/>
    <line id="선_388" data-name="선 388" class="cls-8" x2="336.365" transform="translate(3.49 28.177)"/>
    <path id="패스_287" data-name="패스 287" class="cls-7" d="M5328.269,5356.486h0m-340.849,0h0" transform="translate(-4986.92 -5328.31)"/>
    <line id="선_389" data-name="선 389" class="cls-8" x2="336.365" transform="translate(457.64 17.315)"/>
    <path id="패스_288" data-name="패스 288" class="cls-7" d="M5782.42,5345.625h0m-340.85,0h0" transform="translate(-4986.92 -5328.31)"/>
    <path id="패스_1346" data-name="패스 1346" class="cls-1" d="M3.824,3.152l.912-.432a14.749,14.749,0,0,1-2.048-7.7,14.79,14.79,0,0,1,2.048-7.7l-.912-.416A14.943,14.943,0,0,0,1.472-4.976,15,15,0,0,0,3.824,3.152ZM7.216-6.192a7.254,7.254,0,0,0,5.216-3.28c.864,1.7,2.992,2.9,5.216,3.28l.512-1.04c-2.528-.368-5.008-2.016-5.008-3.9v-.08h4.5v-1.056H7.168v1.056H11.7v.08c0,1.888-2.48,3.536-4.976,3.9Zm11.7,1.2H5.952V-3.92h5.792v5.1h1.312v-5.1h5.872Zm2.16,8.144A14.874,14.874,0,0,0,23.44-4.976a14.82,14.82,0,0,0-2.368-8.112l-.9.416a14.943,14.943,0,0,1,2.048,7.7,14.9,14.9,0,0,1-2.048,7.7Zm16.512-16.32H36.336v9.712h1.248ZM33.456-4.736H34.7v-8.128H33.456v2.976H30.4v1.056h3.056ZM32.1-6.8a22.908,22.908,0,0,1-4.608.48v-5.552h-1.3v6.64H27.1a23.37,23.37,0,0,0,5.12-.5Zm1.328,2.624H32.112v.512c0,1.856-2.32,3.392-4.832,3.776l.48,1.024A7.078,7.078,0,0,0,32.768-1.9a7.112,7.112,0,0,0,5.024,3.04l.5-1.024c-2.528-.384-4.864-1.92-4.864-3.776Zm8.256-6.5H45.7V-3.52H41.68ZM40.4-2.464h6.576v-9.264H40.4ZM53.232-7.44H50.864v-5.712H49.552V1.184h1.312v-7.52h2.368ZM64.208-9.184H57.232V-10.56h6.976Zm1.3-3.728h-1.3v1.36H57.232v-1.36h-1.3v4.736H65.5Zm-8.4,11.5h8.432v-3.2h-9.76v.992H64.24v1.264H55.824V1.024H65.968V.016H57.1Zm-2.9-5.552v1.04H67.2V-6.96Z" transform="translate(657.249 57.554)"/>
    <text id="_2" data-name="  " class="cls-2" transform="translate(725.024 58.554)"><tspan class="cls-3" x="0" y="0"> </tspan><tspan y="0"> </tspan></text>
    <path id="패스_1347" data-name="패스 1347" class="cls-4" d="M16.578,0H1.563V-2.234L7.578-8.281A44.3,44.3,0,0,0,11.2-12.25a10.129,10.129,0,0,0,1.313-2.312,6.623,6.623,0,0,0,.438-2.422,3.84,3.84,0,0,0-1.109-2.9,4.249,4.249,0,0,0-3.078-1.07,7.74,7.74,0,0,0-2.7.469,10.744,10.744,0,0,0-2.836,1.7L1.859-20.547a10.531,10.531,0,0,1,6.875-2.625,7.263,7.263,0,0,1,5.047,1.648,5.67,5.67,0,0,1,1.828,4.43,8.555,8.555,0,0,1-1.219,4.3A27.28,27.28,0,0,1,9.828-7.422l-5,4.891v.125h11.75Zm9.974-13.953a8.4,8.4,0,0,1,5.68,1.789,6.136,6.136,0,0,1,2.07,4.9A7.074,7.074,0,0,1,32.044-1.7,9.018,9.018,0,0,1,25.818.313,11.459,11.459,0,0,1,19.927-.922v-2.5a8.952,8.952,0,0,0,2.719,1.1,13.417,13.417,0,0,0,3.2.4,6.4,6.4,0,0,0,4.273-1.3,4.652,4.652,0,0,0,1.523-3.75q0-4.781-5.859-4.781a23.329,23.329,0,0,0-3.969.453l-1.344-.859.859-10.687H32.693v2.391H23.552l-.578,6.859A18.206,18.206,0,0,1,26.552-13.953Zm12.927-2.078a10.476,10.476,0,0,0,.578,3.984,1.946,1.946,0,0,0,1.875,1.328q2.562,0,2.563-5.312,0-5.281-2.562-5.281A1.945,1.945,0,0,0,40.057-20,10.349,10.349,0,0,0,39.479-16.031Zm7.156,0a9.874,9.874,0,0,1-1.2,5.383,3.931,3.931,0,0,1-3.508,1.82,3.836,3.836,0,0,1-3.4-1.859,9.8,9.8,0,0,1-1.211-5.344,9.924,9.924,0,0,1,1.164-5.344,3.841,3.841,0,0,1,3.445-1.8,3.922,3.922,0,0,1,3.484,1.859A9.616,9.616,0,0,1,46.635-16.031Zm6.594,9.156a10.467,10.467,0,0,0,.578,3.992A1.955,1.955,0,0,0,55.7-1.562a2.042,2.042,0,0,0,1.938-1.3,9.737,9.737,0,0,0,.625-4.008,9.521,9.521,0,0,0-.625-3.961A2.043,2.043,0,0,0,55.7-12.125a1.954,1.954,0,0,0-1.891,1.289A10.215,10.215,0,0,0,53.229-6.875Zm7.172,0a9.838,9.838,0,0,1-1.2,5.367A3.931,3.931,0,0,1,55.7.313a3.826,3.826,0,0,1-3.414-1.859,9.872,9.872,0,0,1-1.2-5.328,9.924,9.924,0,0,1,1.164-5.344,3.841,3.841,0,0,1,3.445-1.8,3.95,3.95,0,0,1,3.461,1.836A9.451,9.451,0,0,1,60.4-6.875ZM56.37-22.844,43.7,0H41.4L54.073-22.844Z" transform="translate(733.864 58.554)"/>
    <path id="패스_1343" data-name="패스 1343" class="cls-1" d="M1.7-11.616v1.056H7.088C6.816-7.152,4.9-4.4,1.04-2.56l.7,1.072C6.512-3.824,8.416-7.472,8.416-11.616Zm9.616-1.552V1.184h1.312V-13.168Zm5.872,6.384H22.24V-7.84H17.184V-10.8H22.56v-1.072H15.872v9.6h1.12a36.681,36.681,0,0,0,6.768-.48l-.128-1.056a36.449,36.449,0,0,1-6.448.464Zm11.472-.624H26.288v-5.76H24.976V1.168h1.312V-6.3h2.368Z" transform="translate(0.158 68.415)"/>
    <text id="_3" data-name="  " class="cls-2" transform="translate(28.958 69.415)"><tspan class="cls-3" x="0" y="0"> </tspan><tspan y="0"> </tspan></text>
    <path id="패스_1342" data-name="패스 1342" class="cls-4" d="M1.828-9.766q0-6.734,2.617-10.07t7.742-3.336a10.315,10.315,0,0,1,2.781.3v2.234a8.9,8.9,0,0,0-2.75-.391,6.939,6.939,0,0,0-5.609,2.289q-1.938,2.289-2.125,7.2h.188a5.982,5.982,0,0,1,5.438-2.687,6.386,6.386,0,0,1,4.852,1.859,7.01,7.01,0,0,1,1.773,5.047,7.782,7.782,0,0,1-1.945,5.6A6.924,6.924,0,0,1,9.531.313,6.757,6.757,0,0,1,3.906-2.352Q1.828-5.016,1.828-9.766ZM9.5-1.891a4.34,4.34,0,0,0,3.445-1.4,5.945,5.945,0,0,0,1.227-4.039,5.208,5.208,0,0,0-1.141-3.562,4.3,4.3,0,0,0-3.406-1.3,5.747,5.747,0,0,0-2.578.578A4.771,4.771,0,0,0,5.18-10.016a3.684,3.684,0,0,0-.7,2.109,7.233,7.233,0,0,0,.625,3A5.286,5.286,0,0,0,6.883-2.7,4.42,4.42,0,0,0,9.5-1.891ZM21.63-16.031a10.476,10.476,0,0,0,.578,3.984,1.946,1.946,0,0,0,1.875,1.328q2.563,0,2.563-5.312,0-5.281-2.562-5.281A1.945,1.945,0,0,0,22.208-20,10.349,10.349,0,0,0,21.63-16.031Zm7.156,0a9.874,9.874,0,0,1-1.2,5.383,3.931,3.931,0,0,1-3.508,1.82,3.836,3.836,0,0,1-3.4-1.859,9.8,9.8,0,0,1-1.211-5.344,9.924,9.924,0,0,1,1.164-5.344,3.841,3.841,0,0,1,3.445-1.8,3.922,3.922,0,0,1,3.484,1.859A9.616,9.616,0,0,1,28.786-16.031ZM35.38-6.875a10.467,10.467,0,0,0,.578,3.992,1.955,1.955,0,0,0,1.891,1.32,2.042,2.042,0,0,0,1.938-1.3,9.737,9.737,0,0,0,.625-4.008,9.521,9.521,0,0,0-.625-3.961,2.043,2.043,0,0,0-1.937-1.289,1.954,1.954,0,0,0-1.891,1.289A10.215,10.215,0,0,0,35.38-6.875Zm7.172,0a9.838,9.838,0,0,1-1.2,5.367A3.931,3.931,0,0,1,37.849.313a3.826,3.826,0,0,1-3.414-1.859,9.872,9.872,0,0,1-1.2-5.328A9.924,9.924,0,0,1,34.4-12.219a3.841,3.841,0,0,1,3.445-1.8A3.95,3.95,0,0,1,41.31-12.18,9.451,9.451,0,0,1,42.552-6.875ZM38.521-22.844,25.849,0h-2.3L36.224-22.844Z" transform="translate(37.798 69.415)"/>
    <line id="선_390" data-name="선 390" class="cls-8" x2="336.365" transform="translate(457.64 110.249)"/>
    <path id="패스_289" data-name="패스 289" class="cls-7" d="M5782.42,5438.559h0m-340.85,0h0" transform="translate(-4986.92 -5328.31)"/>
    <path id="패스_1348" data-name="패스 1348" class="cls-1" d="M13.872-6.288V-7.36H11.84a18.607,18.607,0,0,0,.352-4.08v-1.04H2.512v1.056H10.9a17.11,17.11,0,0,1-.384,4.064H.848v1.072h5.84v2.624H2.224v1.056H10.96V1.168h1.312V-3.664H8V-6.288Zm13.152-6.864H25.712v10.3h1.312ZM21.424-6.3H17.28v-4.56h4.144ZM22.7-11.92H16v6.672h6.7ZM19.1-.352V-3.824H17.792V.7h9.664V-.352Zm12.016-8.3A2.371,2.371,0,0,1,33.568-11.1,2.367,2.367,0,0,1,36-8.656a2.367,2.367,0,0,1-2.432,2.448A2.371,2.371,0,0,1,31.12-8.656Zm9.024-1.2v2.384H37.056a3.6,3.6,0,0,0,.192-1.184,3.63,3.63,0,0,0-.192-1.2Zm0,3.44V-2.56h1.328V-13.152H40.144v2.24H36.5a3.677,3.677,0,0,0-2.928-1.344,3.54,3.54,0,0,0-3.7,3.6,3.54,3.54,0,0,0,3.7,3.6,3.674,3.674,0,0,0,2.944-1.36ZM33.616-.208v-3.44H32.288V.864h9.584V-.208ZM46.928-3.056h7.216V-.064H46.928ZM45.648.992H55.44v-5.1H45.648Zm9.36-8.112a18.42,18.42,0,0,0,.384-4.224V-12.4H45.7v1.056h8.4A17.046,17.046,0,0,1,53.68-7.12H44.032v1.056h13.04V-7.12Z" transform="translate(685.502 150.453)"/>
    <text id="_4" data-name=" " class="cls-9" transform="translate(743.102 151.445)"><tspan x="0" y="0"> </tspan></text>
    <text id="_5" data-name=" " class="cls-2" transform="translate(747.262 151.453)"><tspan x="0" y="0"> </tspan></text>
    <path id="패스_1349" data-name="패스 1349" class="cls-4" d="M9.125-23.172a7.745,7.745,0,0,1,4.953,1.453A4.846,4.846,0,0,1,15.906-17.7a5,5,0,0,1-1.047,3.078,9.248,9.248,0,0,1-3.344,2.531A11.242,11.242,0,0,1,15.469-9.3a5.25,5.25,0,0,1,1.172,3.383,5.667,5.667,0,0,1-1.984,4.539A8.1,8.1,0,0,1,9.219.313a8.709,8.709,0,0,1-5.625-1.6A5.518,5.518,0,0,1,1.625-5.828q0-3.922,4.781-6.109A8.825,8.825,0,0,1,3.313-14.57a5.6,5.6,0,0,1-.937-3.164A4.821,4.821,0,0,1,4.211-21.7,7.613,7.613,0,0,1,9.125-23.172ZM4.188-5.766a3.536,3.536,0,0,0,1.3,2.922A5.715,5.715,0,0,0,9.156-1.8a5.458,5.458,0,0,0,3.625-1.094,3.716,3.716,0,0,0,1.3-3,3.656,3.656,0,0,0-1.219-2.7,12.435,12.435,0,0,0-4.25-2.289A9.247,9.247,0,0,0,5.234-8.664,4.284,4.284,0,0,0,4.188-5.766Zm4.906-15.3a4.6,4.6,0,0,0-3.062.938,3.108,3.108,0,0,0-1.109,2.5,3.578,3.578,0,0,0,.922,2.469A9.627,9.627,0,0,0,9.25-13.094a8.532,8.532,0,0,0,3.164-2.016,3.733,3.733,0,0,0,.93-2.516,3.075,3.075,0,0,0-1.133-2.508A4.775,4.775,0,0,0,9.094-21.062ZM21.63-16.031a10.476,10.476,0,0,0,.578,3.984,1.946,1.946,0,0,0,1.875,1.328q2.563,0,2.563-5.312,0-5.281-2.562-5.281A1.945,1.945,0,0,0,22.208-20,10.349,10.349,0,0,0,21.63-16.031Zm7.156,0a9.874,9.874,0,0,1-1.2,5.383,3.931,3.931,0,0,1-3.508,1.82,3.836,3.836,0,0,1-3.4-1.859,9.8,9.8,0,0,1-1.211-5.344,9.924,9.924,0,0,1,1.164-5.344,3.841,3.841,0,0,1,3.445-1.8,3.922,3.922,0,0,1,3.484,1.859A9.616,9.616,0,0,1,28.786-16.031ZM35.38-6.875a10.467,10.467,0,0,0,.578,3.992,1.955,1.955,0,0,0,1.891,1.32,2.042,2.042,0,0,0,1.938-1.3,9.737,9.737,0,0,0,.625-4.008,9.521,9.521,0,0,0-.625-3.961,2.043,2.043,0,0,0-1.937-1.289,1.954,1.954,0,0,0-1.891,1.289A10.215,10.215,0,0,0,35.38-6.875Zm7.172,0a9.838,9.838,0,0,1-1.2,5.367A3.931,3.931,0,0,1,37.849.313a3.826,3.826,0,0,1-3.414-1.859,9.872,9.872,0,0,1-1.2-5.328A9.924,9.924,0,0,1,34.4-12.219a3.841,3.841,0,0,1,3.445-1.8A3.95,3.95,0,0,1,41.31-12.18,9.451,9.451,0,0,1,42.552-6.875ZM38.521-22.844,25.849,0h-2.3L36.224-22.844Z" transform="translate(751.682 151.453)"/>
    <line id="선_391" data-name="선 391" class="cls-8" x2="336.365" transform="translate(457.64 203.147)"/>
    <path id="패스_290" data-name="패스 290" class="cls-7" d="M5782.42,5531.457h0m-340.85,0h0" transform="translate(-4986.92 -5328.31)"/>
    <path id="패스_1350" data-name="패스 1350" class="cls-1" d="M2.944-8.88a2.311,2.311,0,0,1,2.544-2.24A2.321,2.321,0,0,1,8.064-8.88,2.335,2.335,0,0,1,5.488-6.608,2.325,2.325,0,0,1,2.944-8.88Zm3.2,3.344a3.352,3.352,0,0,0,3.2-3.344c0-2-1.6-3.36-3.856-3.36-2.208,0-3.824,1.36-3.824,3.36A3.369,3.369,0,0,0,4.832-5.536v2.48c-1.408.048-2.736.048-3.888.048L1.1-1.9a51.277,51.277,0,0,0,9.3-.624L10.288-3.5c-1.328.208-2.752.32-4.144.4Zm5.088-7.648v14.4h1.312v-14.4Zm17.04,6.9V-7.36H26.24a18.607,18.607,0,0,0,.352-4.08v-1.04h-9.68v1.056H25.3a17.11,17.11,0,0,1-.384,4.064H15.248v1.072h5.84v2.624H16.624v1.056H25.36V1.168h1.312V-3.664H22.4V-6.288Zm13.152-6.864H40.112v10.48h1.312ZM31.264-8.64a2.346,2.346,0,0,1,2.448-2.384,2.355,2.355,0,0,1,2.48,2.384,2.362,2.362,0,0,1-2.48,2.416A2.354,2.354,0,0,1,31.264-8.64Zm6.208,0a3.532,3.532,0,0,0-3.76-3.52,3.513,3.513,0,0,0-3.728,3.52,3.529,3.529,0,0,0,3.728,3.552A3.547,3.547,0,0,0,37.472-8.64ZM33.5-.208V-3.744H32.192V.864h9.664V-.208Z" transform="translate(682.085 243.353)"/>
    <text id="_6" data-name=" " class="cls-9" transform="translate(725.285 244.345)"><tspan x="0" y="0"> </tspan></text>
    <text id="_7" data-name=" " class="cls-2" transform="translate(729.444 244.353)"><tspan x="0" y="0"> </tspan></text>
    <path id="패스_1351" data-name="패스 1351" class="cls-4" d="M8.7-13.953a8.4,8.4,0,0,1,5.68,1.789,6.136,6.136,0,0,1,2.07,4.9A7.074,7.074,0,0,1,14.2-1.7,9.018,9.018,0,0,1,7.969.313,11.459,11.459,0,0,1,2.078-.922v-2.5A8.952,8.952,0,0,0,4.8-2.32a13.417,13.417,0,0,0,3.2.4,6.4,6.4,0,0,0,4.273-1.3A4.652,4.652,0,0,0,13.8-6.969q0-4.781-5.859-4.781a23.329,23.329,0,0,0-3.969.453l-1.344-.859.859-10.687H14.844v2.391H5.7l-.578,6.859A18.206,18.206,0,0,1,8.7-13.953Zm25.724.859Q34.427.313,24.052.313A10.564,10.564,0,0,1,21.177,0V-2.234a9.187,9.187,0,0,0,2.844.406,6.918,6.918,0,0,0,5.664-2.32q1.914-2.32,2.086-7.117h-.187A5.561,5.561,0,0,1,29.3-9.289a7.335,7.335,0,0,1-3.2.68,6.44,6.44,0,0,1-4.812-1.812,6.914,6.914,0,0,1-1.781-5.062A7.755,7.755,0,0,1,21.5-21.109a6.957,6.957,0,0,1,5.242-2.062,7.018,7.018,0,0,1,4.07,1.2,7.555,7.555,0,0,1,2.68,3.484A14.192,14.192,0,0,1,34.427-13.094ZM26.74-20.953a4.278,4.278,0,0,0-3.453,1.438,6,6,0,0,0-1.219,4,5.2,5.2,0,0,0,1.125,3.539,4.3,4.3,0,0,0,3.422,1.289,5.931,5.931,0,0,0,2.617-.578,4.725,4.725,0,0,0,1.883-1.578,3.641,3.641,0,0,0,.688-2.094,7.156,7.156,0,0,0-.641-3.031,5.286,5.286,0,0,0-1.789-2.187A4.505,4.505,0,0,0,26.74-20.953Zm12.74,4.922a10.476,10.476,0,0,0,.578,3.984,1.946,1.946,0,0,0,1.875,1.328q2.562,0,2.563-5.312,0-5.281-2.562-5.281A1.945,1.945,0,0,0,40.057-20,10.349,10.349,0,0,0,39.479-16.031Zm7.156,0a9.874,9.874,0,0,1-1.2,5.383,3.931,3.931,0,0,1-3.508,1.82,3.836,3.836,0,0,1-3.4-1.859,9.8,9.8,0,0,1-1.211-5.344,9.924,9.924,0,0,1,1.164-5.344,3.841,3.841,0,0,1,3.445-1.8,3.922,3.922,0,0,1,3.484,1.859A9.616,9.616,0,0,1,46.635-16.031Zm6.594,9.156a10.467,10.467,0,0,0,.578,3.992A1.955,1.955,0,0,0,55.7-1.562a2.042,2.042,0,0,0,1.938-1.3,9.737,9.737,0,0,0,.625-4.008,9.521,9.521,0,0,0-.625-3.961A2.043,2.043,0,0,0,55.7-12.125a1.954,1.954,0,0,0-1.891,1.289A10.215,10.215,0,0,0,53.229-6.875Zm7.172,0a9.838,9.838,0,0,1-1.2,5.367A3.931,3.931,0,0,1,55.7.313a3.826,3.826,0,0,1-3.414-1.859,9.872,9.872,0,0,1-1.2-5.328,9.924,9.924,0,0,1,1.164-5.344,3.841,3.841,0,0,1,3.445-1.8,3.95,3.95,0,0,1,3.461,1.836A9.451,9.451,0,0,1,60.4-6.875ZM56.37-22.844,43.7,0H41.4L54.073-22.844Z" transform="translate(733.864 244.353)"/>
    <path id="패스_291" data-name="패스 291" class="cls-10" d="M5384.921,5462.09l111.546-73.83a128.557,128.557,0,0,1,21.808,63.335Z" transform="translate(-4986.92 -5328.31)"/>
    <path id="패스_292" data-name="패스 292" class="cls-11" d="M5384.921,5462.09l-73.831-111.545a133.767,133.767,0,0,1,185.377,37.715Z" transform="translate(-4986.92 -5328.31)"/>
    <path id="패스_293" data-name="패스 293" class="cls-12" d="M5384.921,5462.09l-110.24-75.766a129.635,129.635,0,0,1,36.409-35.779Z" transform="translate(-4986.92 -5328.31)"/>
    <path id="패스_294" data-name="패스 294" class="cls-13" d="M5384.921,5462.09l-118.652-61.766a123.2,123.2,0,0,1,8.412-14Z" transform="translate(-4986.92 -5328.31)"/>
    <path id="패스_295" data-name="패스 295" class="cls-4" d="M5384.921,5462.09l133.354-10.495a133.766,133.766,0,0,1-266.708,20.99c-2.087-26.513,2.422-48.671,14.7-72.261Z" transform="translate(-4986.92 -5328.31)"/>
    <path id="패스_296" data-name="패스 296" class="cls-14" d="M5384.92,5565.959a103.881,103.881,0,1,0-103.881-103.881,103.88,103.88,0,0,0,103.881,103.881" transform="translate(-4986.92 -5328.31)"/>
    <path id="패스_1352" data-name="패스 1352" class="cls-15" d="M1.776-6.024l.888-1.1.876,1.1.4-.276L3.192-7.5l1.224-.48-.144-.456L2.988-8.1,2.9-9.468h-.48l-.108,1.38L1.032-8.436.888-7.98l1.224.48L1.38-6.3ZM7.824,0h5.268V-.624H10.368c-.456,0-.96.036-1.44.072C11.256-2.724,12.672-4.56,12.672-6.4A2.292,2.292,0,0,0,10.248-8.9a3.216,3.216,0,0,0-2.46,1.26l.444.42a2.606,2.606,0,0,1,1.944-1.092,1.719,1.719,0,0,1,1.788,1.944c0,1.584-1.176,3.384-4.14,5.94Zm8.928.156c1.584,0,2.568-1.488,2.568-4.56,0-3.036-.984-4.5-2.568-4.5s-2.58,1.464-2.58,4.5C14.172-1.332,15.156.156,16.752.156Zm0-.588c-1.14,0-1.884-1.32-1.884-3.972,0-2.6.744-3.912,1.884-3.912S18.624-7.008,18.624-4.4C18.624-1.752,17.88-.432,16.752-.432ZM20.328,0H25.6V-.624H22.872c-.456,0-.96.036-1.44.072C23.76-2.724,25.176-4.56,25.176-6.4A2.292,2.292,0,0,0,22.752-8.9a3.216,3.216,0,0,0-2.46,1.26l.444.42A2.606,2.606,0,0,1,22.68-8.316a1.719,1.719,0,0,1,1.788,1.944c0,1.584-1.176,3.384-4.14,5.94Zm8.928.156c1.584,0,2.568-1.488,2.568-4.56,0-3.036-.984-4.5-2.568-4.5s-2.58,1.464-2.58,4.5C26.676-1.332,27.66.156,29.256.156Zm0-.588c-1.14,0-1.884-1.32-1.884-3.972,0-2.6.744-3.912,1.884-3.912S31.128-7.008,31.128-4.4C31.128-1.752,30.384-.432,29.256-.432Zm11.76-1.452h.636V-9.816h-.636v1.5H37.74v.54h3.276V-6.24H37.74v.528h3.276ZM39.108-4.572a24.816,24.816,0,0,1-4.716.408h-.144V-8.988h-.636v5.376h.78A25.544,25.544,0,0,0,39.18-4.02ZM35.6.036v-2.58h-.636V.576h7V.036ZM45.84,0h5.268V-.624H48.384c-.456,0-.96.036-1.44.072C49.272-2.724,50.688-4.56,50.688-6.4A2.292,2.292,0,0,0,48.264-8.9a3.216,3.216,0,0,0-2.46,1.26l.444.42a2.606,2.606,0,0,1,1.944-1.092A1.719,1.719,0,0,1,49.98-6.372c0,1.584-1.176,3.384-4.14,5.94ZM57.9-4.668V-4.2h2.268v.72H60.8V-9.8h-.636v5.136Zm-2.244-4.44c1.2,0,1.992.456,1.992,1.128s-.792,1.128-1.992,1.128-2-.456-2-1.128S54.444-9.108,55.656-9.108Zm0,2.724c1.572,0,2.6-.6,2.6-1.6s-1.032-1.6-2.6-1.6-2.6.6-2.6,1.6S54.072-6.384,55.656-6.384Zm-.384,2.952h.636V-5.2c1.1-.06,2.244-.144,3.312-.312l-.036-.444a61.782,61.782,0,0,1-7.008.3l.1.528c.912,0,1.932-.012,3-.048ZM54.5.18V-1.008h6.3v-2.04H53.856v.48H60.18v1.092H53.892V.684h7.344V.18ZM65.664,0h4.512V-.612H68.352V-8.748h-.564A5.022,5.022,0,0,1,66.12-8.2v.468h1.524V-.612h-1.98Zm6.252,0h4.512V-.612H74.6V-8.748H74.04a5.022,5.022,0,0,1-1.668.552v.468H73.9V-.612h-1.98Zm14.5-9.828h-.636v5.556h.636Zm-7.74,2.76a1.891,1.891,0,0,1,2.064-1.788A1.891,1.891,0,0,1,82.8-7.068,1.884,1.884,0,0,1,80.736-5.28,1.884,1.884,0,0,1,78.672-7.068Zm4.752,0A2.418,2.418,0,0,0,80.736-9.4a2.418,2.418,0,0,0-2.688,2.328,2.409,2.409,0,0,0,2.688,2.316A2.409,2.409,0,0,0,83.424-7.068ZM80.3.144V-1.332h6.108V-3.7H79.644v.528h6.144v1.332H79.68V.672h7.152V.144Zm15.252-9.2c1.848,0,3.048.552,3.048,1.452s-1.2,1.452-3.048,1.452c-1.824,0-3.024-.564-3.024-1.452S93.732-9.06,95.556-9.06Zm0,3.42c2.292,0,3.7-.72,3.7-1.968s-1.4-1.968-3.7-1.968c-2.268,0-3.672.708-3.672,1.968S93.288-5.64,95.556-5.64Zm3,4.584C98.556-.2,97.392.3,95.568.3S92.58-.2,92.58-1.056s1.164-1.356,2.988-1.356S98.556-1.908,98.556-1.056ZM100.38-4.1v-.54H90.744v.54h4.5v1.176c-2.076.072-3.3.72-3.3,1.872,0,1.2,1.356,1.872,3.624,1.872s3.624-.672,3.624-1.872c0-1.152-1.224-1.8-3.312-1.872V-4.1Zm9.912-5.712h-.636v7.872h.636ZM108.06-4.1a3.88,3.88,0,0,1-2.808-3.36v-.864h2.6v-.54H102v.54h2.616v.864A4.037,4.037,0,0,1,101.832-3.9l.336.5a4.648,4.648,0,0,0,2.784-2.832,4.543,4.543,0,0,0,2.8,2.616ZM104.232.036V-2.7H103.6V.576h7.056V.036Zm16.98-9.864h-.636V-3.2h.636ZM119.592-4.7a3.626,3.626,0,0,1-1.74-3.18V-9.168h-.612v1.284a4.21,4.21,0,0,1-1.188,3,4.31,4.31,0,0,1-1.212-3V-9.168h-.612v1.284a3.934,3.934,0,0,1-1.74,3.18l.36.468a3.925,3.925,0,0,0,1.668-2.3,3.937,3.937,0,0,0,1.524,2.412,3.706,3.706,0,0,0,1.524-2.328,3.6,3.6,0,0,0,1.668,2.22ZM117.7.276c-1.788,0-2.928-.54-2.928-1.428s1.14-1.428,2.928-1.428,2.928.54,2.928,1.428S119.484.276,117.7.276Zm0-3.384c-2.22,0-3.576.708-3.576,1.956S115.476.8,117.7.8s3.576-.708,3.576-1.956S119.916-3.108,117.7-3.108Zm6.588-2.256.12.552,6.624-.36a17.87,17.87,0,0,1-.4,2.916l.624.072a22.548,22.548,0,0,0,.432-5.1V-8.64H124.56v.54h6.516v.816c0,.54,0,1.068-.024,1.608Zm-.924,4.032v.54H133v-.54Zm11.448-7.836v4.956h4.872V-9.168h-.636v1.824h-3.6V-9.168Zm.636,2.352h3.6V-4.74h-3.6Zm.432,4.14v.54h6.4V.84h.636V-2.676Zm6.4-7.14v6.492h.636V-9.816Zm8.58,1.68h2.688v-.552h-5.952v.552h2.64v1.8a5.853,5.853,0,0,1-2.94,4.584l.4.516a6.548,6.548,0,0,0,2.856-3.7A6.034,6.034,0,0,0,153.456-1.5l.384-.5a5.293,5.293,0,0,1-2.988-4.332Zm4.4-1.68V.84h.636V-9.816ZM165.84-5.832h-5.784v-1.62h5.784Zm.636-3.66h-.636V-7.98h-5.784V-9.492h-.636v4.2h7.056Zm-6.456,7.2H159.4V.576H166.7V.036H160.02ZM158.1-4.08v.528h4.56V-1.26h.636V-3.552h4.488V-4.08ZM170.988,0h5.268V-.624h-2.724c-.456,0-.96.036-1.44.072,2.328-2.172,3.744-4.008,3.744-5.844A2.292,2.292,0,0,0,173.412-8.9a3.216,3.216,0,0,0-2.46,1.26l.444.42a2.606,2.606,0,0,1,1.944-1.092,1.719,1.719,0,0,1,1.788,1.944c0,1.584-1.176,3.384-4.14,5.94Zm8.748.156a2.771,2.771,0,0,0,2.736-2.964,2.483,2.483,0,0,0-2.592-2.808,2.7,2.7,0,0,0-1.464.42l.252-2.94h3.372v-.612h-4l-.3,4,.456.276a2.536,2.536,0,0,1,1.548-.552,1.981,1.981,0,0,1,2,2.244,2.144,2.144,0,0,1-2.04,2.34,2.945,2.945,0,0,1-2.292-1.032l-.384.492A3.6,3.6,0,0,0,179.736.156Zm4.716,0a.616.616,0,0,0,.612-.648.619.619,0,0,0-.612-.66.619.619,0,0,0-.612.66A.616.616,0,0,0,184.452.156Zm4.548,0c1.584,0,2.568-1.488,2.568-4.56,0-3.036-.984-4.5-2.568-4.5s-2.58,1.464-2.58,4.5C186.42-1.332,187.4.156,189,.156Zm0-.588c-1.14,0-1.884-1.32-1.884-3.972,0-2.6.744-3.912,1.884-3.912s1.872,1.308,1.872,3.912C190.872-1.752,190.128-.432,189-.432Zm6.288.588a2.366,2.366,0,0,0,2.616-2.22,2.571,2.571,0,0,0-1.488-2.28V-4.4a3.058,3.058,0,0,0,1.2-2.172A2.173,2.173,0,0,0,195.3-8.868a2.145,2.145,0,0,0-2.256,2.16,2.415,2.415,0,0,0,1.2,1.992v.048a2.959,2.959,0,0,0-1.668,2.5A2.468,2.468,0,0,0,195.288.156ZM195.9-4.6c-1.092-.432-2.184-.924-2.184-2.112a1.532,1.532,0,0,1,1.572-1.6,1.644,1.644,0,0,1,1.68,1.752A2.552,2.552,0,0,1,195.9-4.6Zm-.612,4.188a1.889,1.889,0,0,1-2.052-1.8,2.6,2.6,0,0,1,1.428-2.2c1.32.516,2.544,1,2.544,2.328A1.736,1.736,0,0,1,195.288-.408Zm5.412-3c1.176,0,1.9-1,1.9-2.772,0-1.74-.72-2.724-1.9-2.724s-1.9.984-1.9,2.724C198.8-4.4,199.536-3.408,200.7-3.408Zm0-.48c-.792,0-1.308-.828-1.308-2.292s.516-2.244,1.308-2.244,1.32.792,1.32,2.244S201.492-3.888,200.7-3.888Zm.24,4.044h.552l4.872-9.06h-.552Zm5.7,0c1.152,0,1.9-.984,1.9-2.76,0-1.752-.744-2.736-1.9-2.736-1.176,0-1.908.984-1.908,2.736C204.732-.828,205.464.156,206.64.156Zm0-.48c-.8,0-1.32-.816-1.32-2.28s.516-2.256,1.32-2.256c.78,0,1.308.792,1.308,2.256S207.42-.324,206.64-.324Zm10.68-7.548h-6.492V-5.76h7.308v-.492h-6.684V-7.4h6.492v-2.04H210.8v.492h6.516ZM211.392-1.08h6.588v-2.1h-7.236v.492h6.624V-1.56H210.78V.66h7.572v-.5h-6.96Zm-1.848-3.684v.5h9.684v-.5Zm18.12-3.348c0,1.308-2.1,2.376-3.636,2.64l.252.516A5.511,5.511,0,0,0,228-7.212a5.511,5.511,0,0,0,3.72,2.256l.252-.516c-1.536-.264-3.636-1.332-3.636-2.64V-8.2h3.012V-8.76H224.64V-8.2h3.024Zm-3.84-1.8a9.15,9.15,0,0,0-1.512,5.352A9.125,9.125,0,0,0,223.824.792l.384-.144a9.219,9.219,0,0,1-1.38-5.208,9.245,9.245,0,0,1,1.38-5.208Zm8.4,6.36v-.564h-8.46v.564h3.912v3.9h.648v-3.9Zm-.648-6.216a9.245,9.245,0,0,1,1.38,5.208,9.323,9.323,0,0,1-1.38,5.208l.384.144a9.125,9.125,0,0,0,1.512-5.352,9.15,9.15,0,0,0-1.512-5.352ZM243.348-9.8h-.624v7.236h.624ZM240.624-3.54h.612V-9.576h-.612v2.3h-2.5v.54h2.5Zm-1.152-1.392a18.8,18.8,0,0,1-3.828.36V-8.844h-.636v4.812h.636a19.579,19.579,0,0,0,3.912-.348Zm.72,1.8h-.636V-2.7c0,1.572-2.136,2.712-3.744,3l.264.492a5.382,5.382,0,0,0,3.8-2.472c.6,1.32,2.316,2.184,3.8,2.472L243.936.3c-1.62-.288-3.744-1.428-3.744-3Zm6.192-5.052h3.528v5.712h-3.528Zm-.624,6.24h4.764V-8.712H245.76Zm9.492-3.48H253.38V-9.816h-.636V.828h.636V-4.884h1.872Zm8.616-1.248h-5.784v-1.26h5.784Zm.636-2.964h-.636v1.188h-5.784V-9.636h-.636v3.492H264.5ZM258-1.152h6.5V-3.336h-7.152v.5h6.528v1.188h-6.5V.684h7.476V.156H258Zm-1.86-3.9v.528h9.636v-.528Zm18.888-4.764V.84h.636V-9.816Zm-4.908.864c-1.56,0-2.652,1.44-2.652,3.66s1.092,3.66,2.652,3.66,2.64-1.428,2.64-3.66S271.668-8.952,270.12-8.952Zm0,.564c1.188,0,2.028,1.272,2.028,3.1s-.84,3.108-2.028,3.108-2.04-1.284-2.04-3.108S268.92-8.388,270.12-8.388Zm15.54,1.62v.54h2.412v4.26h.636V-9.816h-.636v3.048Zm.564,2.532a3.879,3.879,0,0,1-2.688-3.324v-.768h2.5v-.54h-5.664v.54h2.544v.78a4.131,4.131,0,0,1-2.784,3.588l.336.516a4.821,4.821,0,0,0,2.772-2.892A4.649,4.649,0,0,0,285.9-3.72ZM282.684.036V-2.688h-.636V.576h6.984V.036Zm8.94-6.708a1.834,1.834,0,0,1,1.836-1.92,1.825,1.825,0,0,1,1.824,1.92,1.828,1.828,0,0,1-1.824,1.908A1.838,1.838,0,0,1,291.624-6.672Zm4.248,0a2.348,2.348,0,0,0-2.412-2.472,2.348,2.348,0,0,0-2.412,2.472,2.335,2.335,0,0,0,2.412,2.448A2.335,2.335,0,0,0,295.872-6.672ZM292.788-2.28h6.4V.84h.636V-2.82h-7.032Zm6.42-7.536v2.844h-1.68v-2.64h-.612v6.048h.612V-6.432h1.68v2.94h.612V-9.816Zm13.368.012h-.636v7.86h.636Zm-7.752,3.336a2.005,2.005,0,0,1,2.088-2,2.005,2.005,0,0,1,2.088,2,2.017,2.017,0,0,1-2.088,2.028A2.017,2.017,0,0,1,304.824-6.468Zm4.788,0a2.539,2.539,0,0,0-2.7-2.568,2.539,2.539,0,0,0-2.7,2.568,2.551,2.551,0,0,0,2.7,2.592A2.551,2.551,0,0,0,309.612-6.468Zm-3.1,6.5V-2.772h-.636V.576h7.056V.036ZM323.844-5.6c-1.6-.264-3.912-1.512-3.912-3.144v-.66h-.66v.66c0,1.68-2.292,2.88-3.924,3.144l.276.528c1.5-.288,3.348-1.212,3.984-2.628.636,1.392,2.5,2.34,3.972,2.628ZM324.42-3.7h-9.648v.54h4.488V.828h.636V-3.156h4.512ZM331.992-8.6H329.16v-1.32h-.636V-8.6H325.68v.54h6.312ZM326.916-5.52c0-.8.768-1.368,1.92-1.368s1.908.564,1.908,1.38-.768,1.38-1.908,1.38S326.916-4.692,326.916-5.52Zm4.428,0c0-1.152-1-1.872-2.508-1.872s-2.52.72-2.52,1.884,1,1.884,2.52,1.884S331.344-4.344,331.344-5.52ZM327.912-2.2h5.3V.132h-5.3ZM327.288.672h6.564v-3.4h-6.564Zm8.232-7.548h-1.668V-9.828h-.636v6.42h.636V-6.324h1.668Z" transform="translate(0 298.92)"/>
    <path id="패스_1340" data-name="패스 1340" class="cls-10" d="M2.394-6.912A7.877,7.877,0,0,0,8.262-10.44a7.914,7.914,0,0,0,5.886,3.528l.666-1.458c-3.1-.414-5.382-2.2-5.49-4.086h4.914V-13.95H2.268v1.494h4.95c-.108,1.89-2.394,3.672-5.49,4.086Zm13.23,1.188H.918V-4.23H7.29V1.4H9.144V-4.23h6.462Zm2.97-1.188a7.877,7.877,0,0,0,5.868-3.528,7.914,7.914,0,0,0,5.886,3.528l.666-1.458c-3.1-.414-5.382-2.2-5.49-4.086h4.914V-13.95H18.468v1.494h4.95c-.108,1.89-2.394,3.672-5.49,4.086Zm13.23,1.188H17.118V-4.23H23.49V1.4h1.854V-4.23h6.462Zm13.1,3.258h1.854v-12.4H44.928v4.194H42.444v1.512h2.484v1.944H42.444v1.494h2.484ZM42.372-13.014h-3.51V-14.9H37.008v1.89H33.354v1.476h9.018ZM35.946-7.632a1.756,1.756,0,0,1,1.98-1.71,1.762,1.762,0,0,1,2,1.71c0,1.062-.81,1.692-2,1.692C36.756-5.94,35.946-6.57,35.946-7.632Zm5.724,0c0-1.89-1.53-3.15-3.744-3.15-2.2,0-3.726,1.26-3.726,3.15,0,1.872,1.53,3.15,3.726,3.15C40.14-4.482,41.67-5.76,41.67-7.632Zm-3.6,7.2V-3.51H36.2V1.08H47.16V-.432Zm21.006-13.14h-3.69v-1.422H53.514v1.422H49.788V-12.2h9.288Zm-6.768,4.23c0-.684.828-1.08,2.124-1.08,1.314,0,2.124.4,2.124,1.08,0,.7-.81,1.1-2.124,1.1C53.136-8.244,52.308-8.64,52.308-9.342Zm7.218,2.97c-1.314.18-2.736.288-4.14.36V-7.074c1.8-.216,2.916-1.044,2.916-2.268,0-1.44-1.53-2.3-3.87-2.3s-3.87.864-3.87,2.3c0,1.242,1.116,2.052,2.952,2.268V-5.94c-1.494.054-2.916.054-4.14.054l.216,1.44a59.382,59.382,0,0,0,10.08-.666ZM56.934.036c-2.358,0-3.564-.4-3.564-1.17,0-.792,1.206-1.188,3.564-1.188,2.34,0,3.546.4,3.546,1.188C60.48-.36,59.274.036,56.934.036Zm0-3.708c-3.438,0-5.436.882-5.436,2.538C51.5.5,53.5,1.4,56.934,1.4c3.42,0,5.418-.9,5.418-2.538C62.352-2.79,60.354-3.672,56.934-3.672Zm5.31-6.426V-14.85H60.39V-3.888h1.854v-4.68h2.232V-10.1Z" transform="translate(365.17 126.37)"/>
    <path id="패스_1341" data-name="패스 1341" d="M3.388,2.7l.5-.252A12.873,12.873,0,0,1,2.044-4.312a12.909,12.909,0,0,1,1.848-6.762l-.5-.266A12.91,12.91,0,0,0,1.344-4.312,12.862,12.862,0,0,0,3.388,2.7Zm8.918-8.526a27.5,27.5,0,0,1-5.754.434H6.37V-9.716h4.718v-.63H5.628v5.6h.924a28.173,28.173,0,0,0,5.838-.448ZM7.728-3.318H6.986V.672h8.2V.042H7.728ZM14.574-7.6V-11.48h-.742v9.03h.742V-6.958H16.52V-7.6Zm7.182-2.59c1.4,0,2.408.8,2.408,1.862s-1.008,1.876-2.408,1.876-2.38-.8-2.38-1.876S20.37-10.192,21.756-10.192Zm0,4.368c1.834,0,3.122-1.008,3.122-2.506s-1.288-2.492-3.122-2.492S18.662-9.814,18.662-8.33,19.936-5.824,21.756-5.824Zm4.256.77a59.4,59.4,0,0,1-8.4.462l.126.658c1.106,0,2.38-.014,3.724-.07V.588H22.2V-4.046a36.206,36.206,0,0,0,3.864-.42Zm.98-6.384V.994h.742V-11.438Zm8.274,7.462c1.372,0,2.212-1.162,2.212-3.234,0-2.03-.84-3.178-2.212-3.178S33.054-9.24,33.054-7.21C33.054-5.138,33.908-3.976,35.266-3.976Zm0-.56c-.924,0-1.526-.966-1.526-2.674s.6-2.618,1.526-2.618,1.54.924,1.54,2.618S36.19-4.536,35.266-4.536Zm.28,4.718h.644l5.684-10.57H41.23Zm6.65,0c1.344,0,2.212-1.148,2.212-3.22,0-2.044-.868-3.192-2.212-3.192-1.372,0-2.226,1.148-2.226,3.192C39.97-.966,40.824.182,42.2.182Zm0-.56c-.938,0-1.54-.952-1.54-2.66s.6-2.632,1.54-2.632c.91,0,1.526.924,1.526,2.632S43.106-.378,42.2-.378Zm3.64,3.08A12.862,12.862,0,0,0,47.88-4.312a12.91,12.91,0,0,0-2.044-7.028l-.5.266A12.909,12.909,0,0,1,47.18-4.312,12.873,12.873,0,0,1,45.332,2.45Z" transform="translate(372.76 158.37)"/>
  </g>
</svg>
