<svg id="구성_요소_65_1" data-name="구성 요소 65 – 1" xmlns="http://www.w3.org/2000/svg" width="836" height="322.56" viewBox="0 0 836 322.56">
  <defs>
    <style>
      .cls-1 {
        fill: #f9fafa;
      }

      .cls-2 {
        fill: #1f4a8c;
      }

      .cls-10, .cls-3, .cls-5, .cls-6 {
        fill: none;
      }

      .cls-10, .cls-3 {
        stroke: #1f4a8c;
      }

      .cls-3 {
        stroke-width: 0.5px;
      }

      .cls-4 {
        fill: #fff;
      }

      .cls-5, .cls-6 {
        stroke: #3e3a39;
        stroke-linecap: round;
        stroke-linejoin: round;
      }

      .cls-5 {
        stroke-dasharray: 0 3.014;
      }

      .cls-7, .cls-8 {
        fill: #4e89c8;
        font-size: 15px;
      }

      .cls-7 {
        font-family: NotoSansKR-Light, Noto Sans KR;
        font-weight: 300;
      }

      .cls-8 {
        font-family: NotoSansKR-Regular, Noto Sans KR;
      }

      .cls-9 {
        fill: #1e2323;
      }

      .cls-11 {
        fill: #91c9e0;
      }
    </style>
  </defs>
  <rect id="사각형_85" data-name="사각형 85" class="cls-1" width="836" height="321.189"/>
  <rect id="사각형_86" data-name="사각형 86" class="cls-2" width="612.221" height="36" transform="translate(202.5 35.75)"/>
  <rect id="사각형_87" data-name="사각형 87" class="cls-2" width="137.221" height="36.5" transform="translate(20.078 36)"/>
  <line id="선_195" data-name="선 195" class="cls-3" x2="402.715" transform="translate(274.614 198.16)"/>
  <rect id="사각형_88" data-name="사각형 88" class="cls-4" width="137.221" height="33.5" transform="translate(15.078 36)"/>
  <rect id="사각형_89" data-name="사각형 89" class="cls-3" width="137.221" height="33.5" transform="translate(15.078 36)"/>
  <rect id="사각형_90" data-name="사각형 90" class="cls-4" width="612.221" height="33.25" transform="translate(197.5 36.25)"/>
  <rect id="사각형_91" data-name="사각형 91" class="cls-3" width="612.221" height="33.25" transform="translate(197.5 36.25)"/>
  <path id="패스_760" data-name="패스 760" class="cls-2" d="M4.875-9.645H7.11V-10.92H.99v1.275H3.375v.975c0,2.415-.9,4.86-2.82,6.06l.93,1.14A6.713,6.713,0,0,0,4.14-5.46a6.165,6.165,0,0,0,2.6,3.66l.9-1.125c-1.89-1.1-2.76-3.435-2.76-5.745Zm3.24,2.01H6.12v1.26H8.115V.5H9.57v-12.63H8.115Zm2.73-4.77V1.14h1.47V-12.405ZM21.93-8.265H18.81v-2.49h3.12Zm-4.665,0H15.42V-7.02h9.885V-8.265h-1.83v-2.49H25.38V-12H15.345v1.245h1.92ZM23.505-.24H17.25V-2.085h6.255Zm3-4.455V-5.94H14.25v1.245H19.6v1.38H15.72V.99h9.3V-3.315H21.15v-1.38Zm7.965-1.14A3.735,3.735,0,0,1,31.89-9.39v-.105h2.22v-1.23H31.89v-1.53H30.405v1.53h-2.28v1.23h2.28v.105a3.991,3.991,0,0,1-2.6,3.795l.735,1.155a4.649,4.649,0,0,0,2.625-2.7,4.56,4.56,0,0,0,2.595,2.46Zm-4.425,3.66H37.68V1.17h1.545V-3.42h-9.18Zm7.71-10.2v3.51h-1.4V-12.15H34.9v7.995H36.36v-3.45h1.4V-4.08h1.47v-8.295Zm13.125,0v7.71h1.545v-7.71ZM43.56-3.99V.99h8.865V-3.99Zm7.35,1.23V-.24H45.075V-2.76Zm-5.79-8.955c-2.07,0-3.6,1.305-3.6,3.195s1.53,3.2,3.6,3.2a3.276,3.276,0,0,0,3.585-3.2A3.276,3.276,0,0,0,45.12-11.715Zm0,1.275a1.922,1.922,0,0,1,2.085,1.92A1.913,1.913,0,0,1,45.12-6.6a1.905,1.905,0,0,1-2.085-1.92A1.914,1.914,0,0,1,45.12-10.44Zm13.245-.525V-9.7h4.71c-.255,3.075-1.785,5.46-5.31,7.2l.825,1.2c4.59-2.28,6.06-5.685,6.06-9.66ZM67.5-12.39v5.325H64.59V-5.79H67.5V1.17h1.56V-12.39Zm9.18,9h-3.3V-6.7h3.3Zm4.35-9.03v4.935H78.195v-3.84H76.68v3.4h-3.3v-3.42H71.85v9.21h6.345V-6.24H81.03V1.185h1.56v-13.59Zm13.485,9.8H96.06V-12.39H94.515v2.82h-3.6v1.26h3.6ZM92.625-6.51A29.286,29.286,0,0,1,87.15-6v-5.415H85.6v6.72h1.08a30.5,30.5,0,0,0,6.165-.54ZM88.815-.36V-3.42H87.27V.9H96.4V-.36Zm21.27-5.415c-2.67-.48-4.845-2.565-4.845-4.725v-1.02H103.6v1.02c0,2.145-2.175,4.23-4.845,4.725L99.42-4.5a7.092,7.092,0,0,0,4.995-3.72,7.092,7.092,0,0,0,5,3.72ZM98.34-1.86V-.585h12.27V-1.86Z" transform="translate(27.906 58.797)"/>
  <path id="패스_768" data-name="패스 768" class="cls-2" d="M8.43-8.265H5.31v-2.49H8.43Zm-4.665,0H1.92V-7.02h9.885V-8.265H9.975v-2.49h1.9V-12H1.845v1.245h1.92ZM10.005-.24H3.75V-2.085h6.255Zm3-4.455V-5.94H.75v1.245H6.105v1.38H2.22V.99h9.3V-3.315H7.65v-1.38Zm12.42-7.695h-1.56V-5.4h1.56ZM22.6-6.8a4.118,4.118,0,0,1-3.3-3.645h2.9v-1.245H14.79v1.245h2.94a4.338,4.338,0,0,1-3.36,3.915L15.1-5.31a5.438,5.438,0,0,0,3.435-3,5.247,5.247,0,0,0,3.375,2.7ZM18.09-.165v-1.2h7.335v-3.42h-8.88v1.17H23.9v1.14h-7.32v3.51H25.83v-1.2Zm19.35-8.64v1.56H34.155v1.26H37.44v1.56h1.545V-12.39H37.44v2.325H34.65a7.661,7.661,0,0,0,.12-1.35H28.62v1.245h4.5c-.27,2.115-2.025,3.78-5.2,4.665l.615,1.23c2.925-.855,4.92-2.37,5.76-4.53ZM34.545-.12c-1.83,0-2.985-.525-2.985-1.47,0-.93,1.155-1.455,2.985-1.455,1.845,0,3,.525,3,1.455C37.545-.645,36.39-.12,34.545-.12Zm0-4.14c-2.745,0-4.515,1.02-4.515,2.67C30.03.075,31.8,1.1,34.545,1.1s4.53-1.02,4.53-2.685C39.075-3.24,37.29-4.26,34.545-4.26ZM42.93-8.355A1.927,1.927,0,0,1,45-10.32a1.918,1.918,0,0,1,2.04,1.965A1.915,1.915,0,0,1,45-6.4,1.924,1.924,0,0,1,42.93-8.355Zm8.025-.915v1.83h-2.58a3,3,0,0,0,.135-.915,3.551,3.551,0,0,0-.12-.915Zm0,3.075V-4.41H52.5v-8H50.955v1.875h-3.27A3.62,3.62,0,0,0,45-11.625a3.3,3.3,0,0,0-3.54,3.27A3.3,3.3,0,0,0,45-5.1a3.588,3.588,0,0,0,2.685-1.095ZM47.985-.06c-1.92,0-3.045-.5-3.045-1.425,0-.9,1.125-1.41,3.045-1.41s3.045.51,3.045,1.41C51.03-.555,49.92-.06,47.985-.06Zm0-4.05c-2.82,0-4.56.975-4.56,2.625,0,1.665,1.74,2.64,4.56,2.64S52.56.18,52.56-1.485C52.56-3.135,50.805-4.11,47.985-4.11Zm10.4-6.855V-9.7h4.71c-.255,3.075-1.785,5.46-5.31,7.2L58.6-1.3c4.59-2.28,6.06-5.685,6.06-9.66Zm9.135-1.425v5.325h-2.91V-5.79h2.91V1.17h1.56V-12.39Zm9.18,9h-3.3V-6.7h3.3Zm4.35-9.03v4.935H78.21v-3.84H76.695v3.4h-3.3v-3.42h-1.53v9.21H78.21V-6.24h2.835V1.185H82.6v-13.59Zm13.5,9.8H96.09V-12.39H94.545v2.82h-3.6v1.26h3.6ZM92.655-6.51A29.286,29.286,0,0,1,87.18-6v-5.415H85.635v6.72h1.08a30.5,30.5,0,0,0,6.165-.54ZM88.845-.36V-3.42H87.3V.9h9.135V-.36Zm21.27-5.415c-2.67-.48-4.845-2.565-4.845-4.725v-1.02h-1.635v1.02c0,2.145-2.175,4.23-4.845,4.725L99.45-4.5a7.092,7.092,0,0,0,5-3.72A7.092,7.092,0,0,0,109.44-4.5ZM98.37-1.86V-.585h12.27V-1.86Z" transform="translate(447.516 58.797)"/>
  <line id="선_196" data-name="선 196" class="cls-5" y1="281.835" transform="translate(178.502 37.21)"/>
  <path id="패스_137" data-name="패스 137" class="cls-6" d="M3137,2005.644h0M3137,2292h0" transform="translate(-2958.5 -1969.94)"/>
  <rect id="사각형_92" data-name="사각형 92" class="cls-2" width="144.422" height="30" transform="translate(14.59 100.25)"/>
  <path id="패스_761" data-name="패스 761" class="cls-4" d="M5.655.2A4.251,4.251,0,0,0,9.03-1.38l-.765-.87a3.342,3.342,0,0,1-2.55,1.23c-2.1,0-3.42-1.74-3.42-4.515C2.3-8.28,3.675-9.99,5.76-9.99A3,3,0,0,1,8.01-8.94l.75-.9A4.066,4.066,0,0,0,5.745-11.2C2.955-11.2.87-9.045.87-5.49S2.925.2,5.655.2Zm5.13-.2h6.51V-1.185H12.18v-4h4.17V-6.375H12.18v-3.45h4.95v-1.17H10.785ZM23.37.2c2.76,0,4.695-2.2,4.695-5.73S26.13-11.2,23.37-11.2s-4.695,2.145-4.695,5.67S20.61.2,23.37.2Zm0-1.215c-1.98,0-3.27-1.77-3.27-4.515,0-2.76,1.29-4.455,3.27-4.455,1.965,0,3.27,1.695,3.27,4.455C26.64-2.79,25.335-1.02,23.37-1.02Z" transform="translate(71.865 121.75)"/>
  <text id="_" data-name="•" class="cls-7" transform="translate(354.045 234.01)"><tspan x="0" y="0">•</tspan></text>
  <text id="_2" data-name=" " class="cls-8" transform="translate(358.5 234.01)"><tspan x="0" y="0"> </tspan></text>
  <path id="패스_766" data-name="패스 766" class="cls-9" d="M10.164-11.452V-4.3h.742v-7.154ZM3.01-3.57V.784h7.9V-3.57Zm7.168.616V.154H3.738V-2.954Zm-5.894-7.8A2.867,2.867,0,0,0,1.148-7.9,2.867,2.867,0,0,0,4.284-5.04,2.876,2.876,0,0,0,7.448-7.9,2.876,2.876,0,0,0,4.284-10.752Zm0,.63A2.265,2.265,0,0,1,6.734-7.9,2.265,2.265,0,0,1,4.284-5.67,2.249,2.249,0,0,1,1.862-7.9,2.249,2.249,0,0,1,4.284-10.122ZM20.09-4.032v.588h2.646v1.47h.742v-9.464h-.742v7.406Zm-2.618-6.3c1.372,0,2.324.644,2.324,1.554,0,.938-.952,1.568-2.324,1.568s-2.324-.63-2.324-1.568C15.148-9.688,16.1-10.332,17.472-10.332Zm0,3.7c1.82,0,3.024-.826,3.024-2.142s-1.2-2.128-3.024-2.128-3.038.826-3.038,2.128S15.652-6.636,17.472-6.636Zm-.28,4.158h.742V-5.012a34.563,34.563,0,0,0,3.626-.364l-.07-.546a68.472,68.472,0,0,1-8.092.364l.112.644c1.092,0,2.338,0,3.682-.056ZM16.016.042V-2.912h-.728V.672H23.8V.042Z" transform="translate(362.368 234.01)"/>
  <text id="_3" data-name="•" class="cls-7" transform="translate(406.79 234.01)"><tspan x="0" y="0">•</tspan></text>
  <text id="_4" data-name=" " class="cls-8" transform="translate(411.245 234.01)"><tspan x="0" y="0"> </tspan></text>
  <path id="패스_767" data-name="패스 767" class="cls-9" d="M10.892-11.466H10.15v6.524h.742ZM8.246-5.992a4.72,4.72,0,0,1-3.29-4.116v-.952H4.228v.952A4.937,4.937,0,0,1,.966-5.754l.392.6A5.681,5.681,0,0,0,4.606-8.568,5.551,5.551,0,0,0,7.868-5.4ZM3.78.182V-1.5h7.126V-4.256H3.01v.616h7.168v1.554H3.052V.8H11.4V.182ZM22.5-6.594h-6.8v-3.514h6.8Zm.728-4.13h-8.26v4.746h8.26Zm1.512,6.65H13.44v.63h5.25V.966h.742v-4.41h5.306Zm9.114-1.82a32.143,32.143,0,0,1-6.006.378h-.224V-7.532h4.816v-.616H27.622v-1.9h5.152v-.63H26.88V-4.9h.966a32.435,32.435,0,0,0,6.1-.378Zm-4.76,3.178h6.44V.154h-6.44Zm-.728,3.5h7.9V-3.332h-7.9Zm7.154-12.236v7.434h.742v-7.434Zm10.4,6.23a4.325,4.325,0,0,1-3.108-3.794v-.84h2.94v-.616H39.13v.616h2.954V-9a4.628,4.628,0,0,1-3.22,4.116l.392.588a5.432,5.432,0,0,0,3.22-3.248,5.078,5.078,0,0,0,3.08,2.912ZM44.492.336c-1.988,0-3.276-.616-3.276-1.61s1.288-1.61,3.276-1.61,3.29.616,3.29,1.61S46.494.336,44.492.336Zm0-3.822c-2.492,0-4,.8-4,2.212S42,.938,44.492.938,48.51.14,48.51-1.274,46.984-3.486,44.492-3.486Zm3.92-4.634v-3.332H47.67v7.56h.742V-7.476h1.946V-8.12Z" transform="translate(415.145 234.01)"/>
  <line id="선_197" data-name="선 197" class="cls-3" y2="139.42" transform="translate(86.805 130.25)"/>
  <line id="선_198" data-name="선 198" class="cls-10" x2="127.073" transform="translate(347.471 214.375)"/>
  <text id="_5" data-name="•" class="cls-7" transform="translate(43.692 309.17)"><tspan x="0" y="0">•</tspan></text>
  <text id="_6" data-name=" " class="cls-8" transform="translate(48.147 309.17)"><tspan x="0" y="0"> </tspan></text>
  <path id="패스_763" data-name="패스 763" class="cls-9" d="M3.038-2.744H2.3V.672h8.5V.042H3.038Zm.014-5.81H9.8v1.9H3.052Zm3.738,4v-1.5h3.752v-4.9H9.8V-9.17H3.052v-1.778H2.31v4.9H6.048v1.5H.784v.63H12.026v-.63ZM22.512-6.272h-6.8v-2.17h6.8Zm.742-4.676h-.742v1.89h-6.8v-1.89h-.742v5.306h8.288Zm1.5,6.986h-11.3v.63H18.7V.98h.742V-3.332h5.306Zm8.5-1.26a4.325,4.325,0,0,1-3.108-3.794v-.84h2.94v-.616H26.46v.616h2.954V-9a4.628,4.628,0,0,1-3.22,4.116l.392.588a5.432,5.432,0,0,0,3.22-3.248,5.078,5.078,0,0,0,3.08,2.912ZM31.822.336c-1.988,0-3.276-.616-3.276-1.61s1.288-1.61,3.276-1.61,3.29.616,3.29,1.61S33.824.336,31.822.336Zm0-3.822c-2.492,0-4,.8-4,2.212s1.512,2.212,4,2.212S35.84.14,35.84-1.274,34.314-3.486,31.822-3.486Zm3.92-4.634v-3.332H35v7.56h.742V-7.476h1.946V-8.12ZM47.866.168H41.118v-2.03h6.748Zm0-2.646H41.118V-4.326h-.742V.8h8.218V-4.326h-.728Zm.364-3.78A16.11,16.11,0,0,0,48.58-10v-.854H40.306v.63h7.56V-10a14.493,14.493,0,0,1-.392,3.738H38.85v.63H50.12v-.63Zm15.582-5.194V-4.3h.742v-7.154ZM56.658-3.57V.784h7.9V-3.57Zm7.168.616V.154h-6.44V-2.954Zm-5.894-7.8A2.867,2.867,0,0,0,54.8-7.9,2.867,2.867,0,0,0,57.932-5.04,2.876,2.876,0,0,0,61.1-7.9,2.876,2.876,0,0,0,57.932-10.752Zm0,.63A2.265,2.265,0,0,1,60.382-7.9a2.265,2.265,0,0,1-2.45,2.226A2.249,2.249,0,0,1,55.51-7.9,2.249,2.249,0,0,1,57.932-10.122Zm15.792,6.09v.588H76.37v1.47h.742v-9.464H76.37v7.406Zm-2.618-6.3c1.372,0,2.324.644,2.324,1.554,0,.938-.952,1.568-2.324,1.568s-2.324-.63-2.324-1.568C68.782-9.688,69.734-10.332,71.106-10.332Zm0,3.7c1.82,0,3.024-.826,3.024-2.142s-1.2-2.128-3.024-2.128-3.038.826-3.038,2.128S69.286-6.636,71.106-6.636Zm-.28,4.158h.742V-5.012a34.563,34.563,0,0,0,3.626-.364l-.07-.546a68.472,68.472,0,0,1-8.092.364l.112.644c1.092,0,2.338,0,3.682-.056ZM69.65.042V-2.912h-.728V.672h8.512V.042Z" transform="translate(52.047 309.17)"/>
  <rect id="사각형_93" data-name="사각형 93" class="cls-11" width="144.422" height="30" transform="translate(14.59 257.47)"/>
  <path id="패스_762" data-name="패스 762" class="cls-4" d="M10.215-7.335H3.54v-3.27h6.675ZM11.43-11.6H2.34V-6.36h9.09ZM12.99-4.53H.78v1H6.24V1.1H7.47v-4.62h5.52Zm9.285-6.165h-3.36V-12.33h-1.23v1.635H14.34v.99h7.935ZM16.26-6.465c0-.93.81-1.53,2.04-1.53s2.055.6,2.055,1.53c0,.945-.84,1.545-2.055,1.545S16.26-5.52,16.26-6.465Zm5.265,0c0-1.5-1.32-2.49-3.225-2.49s-3.21.99-3.21,2.49S16.4-3.96,18.3-3.96,21.525-4.95,21.525-6.465ZM17.6-3.045h-1.23V.81h8.97V-.2H17.6Zm7.14-4.86V-12.33h-1.23V-2.25h1.23V-6.87H26.73V-7.905ZM34.5-5.67a4.077,4.077,0,0,1-2.73-3.765v-.15h2.4v-.99h-2.4V-12.2H30.6v1.62H28.17v.99H30.6v.15A4.353,4.353,0,0,1,27.9-5.4l.6.9a4.745,4.745,0,0,0,2.7-2.955,4.811,4.811,0,0,0,2.715,2.73Zm-4.4,3.3H37.92V1.11h1.23V-3.375H30.1Zm7.86-9.96v3.585H36.27V-12.1H35.115V-4.17H36.27V-7.74h1.695v3.66H39.15v-8.25Zm13.14,0v7.7h1.23v-7.7Zm-7.47,8.415V.93h8.7V-3.915Zm7.5.975V-.06h-6.3V-2.94ZM45.1-11.625A3.2,3.2,0,0,0,41.61-8.49,3.2,3.2,0,0,0,45.1-5.355,3.213,3.213,0,0,0,48.63-8.49,3.213,3.213,0,0,0,45.1-11.625Zm0,1.02A2.15,2.15,0,0,1,47.43-8.49,2.141,2.141,0,0,1,45.1-6.375,2.124,2.124,0,0,1,42.81-8.49,2.132,2.132,0,0,1,45.1-10.605Zm14.1-.09c1.3,0,2.235.7,2.235,1.755s-.93,1.755-2.235,1.755c-1.32,0-2.25-.705-2.25-1.755S57.885-10.695,59.205-10.695Zm0,4.515c1.995,0,3.42-1.125,3.42-2.76s-1.425-2.775-3.42-2.775c-2.01,0-3.435,1.125-3.435,2.775S57.195-6.18,59.205-6.18Zm4.425.66a61.8,61.8,0,0,1-8.865.48L54.93-4c1.11,0,2.385-.015,3.72-.075V.69h1.23V-4.155a33.729,33.729,0,0,0,3.855-.45Zm.975-6.81V1.125h1.23V-12.33Zm10.74,7.935v.915h2.73V-2.1h1.23V-12.345h-1.23v7.95ZM72.6-10.89c1.275,0,2.145.57,2.145,1.425s-.87,1.44-2.145,1.44-2.145-.57-2.145-1.44S71.325-10.89,72.6-10.89Zm0,3.78c1.965,0,3.315-.915,3.315-2.355,0-1.41-1.35-2.34-3.315-2.34s-3.315.93-3.315,2.34C69.285-8.025,70.635-7.11,72.6-7.11Zm-.48,4.53h1.23V-5.235c1.215-.075,2.46-.21,3.645-.39L76.89-6.51a73.088,73.088,0,0,1-8.67.39l.165,1.02c1.11,0,2.4-.015,3.735-.075ZM71.37-.2v-2.91H70.14V.81h9.51V-.2Zm18.96-10.5H86.865V-12.33h-1.23v1.635h-3.48v.99H90.33ZM84.18-6.45c0-.945.84-1.545,2.07-1.545,1.215,0,2.055.6,2.055,1.545s-.84,1.53-2.055,1.53C85.02-4.92,84.18-5.52,84.18-6.45Zm2.685,2.46c1.59-.2,2.61-1.125,2.61-2.46,0-1.515-1.305-2.49-3.225-2.49s-3.24.975-3.24,2.49c0,1.35,1.035,2.28,2.625,2.475v1.44c-1.335.045-2.625.06-3.765.06l.18,1.035a55.021,55.021,0,0,0,8.715-.54l-.09-.915c-1.23.165-2.535.255-3.81.315Zm4.665-8.34V1.11h1.23V-12.33Z" transform="translate(40.44 278.07)"/>
  <line id="선_199" data-name="선 199" class="cls-10" x2="144.422" transform="translate(14.59 286.97)"/>
  <rect id="사각형_94" data-name="사각형 94" class="cls-2" width="127.074" height="30" transform="translate(197.012 183.874)"/>
  <path id="패스_764" data-name="패스 764" class="cls-4" d="M5.655.2A4.251,4.251,0,0,0,9.03-1.38l-.765-.87a3.342,3.342,0,0,1-2.55,1.23c-2.1,0-3.42-1.74-3.42-4.515C2.3-8.28,3.675-9.99,5.76-9.99A3,3,0,0,1,8.01-8.94l.75-.9A4.066,4.066,0,0,0,5.745-11.2C2.955-11.2.87-9.045.87-5.49S2.925.2,5.655.2Zm5.13-.2h6.51V-1.185H12.18v-4h4.17V-6.375H12.18v-3.45h4.95v-1.17H10.785ZM23.37.2c2.76,0,4.695-2.2,4.695-5.73S26.13-11.2,23.37-11.2s-4.695,2.145-4.695,5.67S20.61.2,23.37.2Zm0-1.215c-1.98,0-3.27-1.77-3.27-4.515,0-2.76,1.29-4.455,3.27-4.455,1.965,0,3.27,1.695,3.27,4.455C26.64-2.79,25.335-1.02,23.37-1.02Z" transform="translate(246.09 204.475)"/>
  <path id="패스_138" data-name="패스 138" class="cls-3" d="M3776.448,2057.36H3658.8v24h117.645Z" transform="translate(-2958.5 -1969.94)"/>
  <path id="패스_139" data-name="패스 139" class="cls-3" d="M3776.448,2096.86H3658.8v24h117.645Z" transform="translate(-2958.5 -1969.94)"/>
  <path id="패스_140" data-name="패스 140" class="cls-3" d="M3776.448,2136.36H3658.8v24h117.645Z" transform="translate(-2958.5 -1969.94)"/>
  <path id="패스_141" data-name="패스 141" class="cls-3" d="M3776.448,2175.86H3658.8v24h117.645Z" transform="translate(-2958.5 -1969.94)"/>
  <path id="패스_142" data-name="패스 142" class="cls-3" d="M3776.448,2215.36H3658.8v24h117.645Z" transform="translate(-2958.5 -1969.94)"/>
  <path id="패스_143" data-name="패스 143" class="cls-3" d="M3776.448,2254.86H3658.8v24h117.645Z" transform="translate(-2958.5 -1969.94)"/>
  <path id="패스_770" data-name="패스 770" class="cls-9" d="M10.906-11.438h-.742V-2.3h.742ZM8.19-5A5.068,5.068,0,0,1,4.956-9.464v-1.288H4.228v1.288a5.3,5.3,0,0,1-3.206,4.7l.42.6A5.937,5.937,0,0,0,4.606-7.826,5.673,5.673,0,0,0,7.8-4.41ZM3.836.042V-3.122H3.094V.672h8.232V.042Zm14.14-4.774h3.038v-.616H15.232V-7.224h5.39v-3.052H14.476v.63h5.432v1.82H14.5v3.094h2.73V-2.31c-1.288.042-2.548.056-3.682.056l.112.658a56.712,56.712,0,0,0,8.218-.49l-.07-.546c-1.218.154-2.52.224-3.836.28Zm4.718-6.734V.98h.742V-11.466ZM35.532-4.06h.742v-7.406h-.742V-8.6H32.564v.63h2.968ZM33.348-5.32a4.628,4.628,0,0,1-3.192-4.046v-1.358h-.728v1.372a4.807,4.807,0,0,1-3.22,4.368l.392.6A5.527,5.527,0,0,0,29.82-7.8a5.4,5.4,0,0,0,3.094,3.052ZM32.256.336c-2.03,0-3.332-.658-3.332-1.694s1.3-1.694,3.332-1.694S35.6-2.394,35.6-1.358,34.286.336,32.256.336Zm0-3.99c-2.534,0-4.074.826-4.074,2.3s1.54,2.3,4.074,2.3,4.074-.826,4.074-2.3S34.776-3.654,32.256-3.654Zm14.28-2.24a32.143,32.143,0,0,1-6.006.378h-.224V-7.532h4.816v-.616H40.306v-1.9h5.152v-.63H39.564V-4.9h.966a32.435,32.435,0,0,0,6.1-.378Zm-4.76,3.178h6.44V.154h-6.44Zm-.728,3.5h7.9V-3.332h-7.9ZM48.2-11.452v7.434h.742v-7.434Z" transform="translate(733.681 105.581)"/>
  <path id="패스_771" data-name="패스 771" class="cls-9" d="M8.12-7.35H4.662v-3.066H8.12Zm-4.186,0H1.89v.616h9V-7.35H8.862v-3.066H10.92v-.616H1.876v.616H3.934ZM9.912.154H2.926V-2.38H9.912ZM12.026-4.7v-.63H.784v.63H6.048V-3H2.212V.784H10.64V-3H6.776V-4.7Zm11.536-6.762H22.82v6.5h.742Zm-2.576,5.6C19.236-6.44,17.7-7.9,17.7-9.66v-.392h3.038v-.63H13.9v.63h3.052v.392a4.62,4.62,0,0,1-3.248,4.046l.364.588A5.427,5.427,0,0,0,17.346-8.26a5.276,5.276,0,0,0,3.276,2.968ZM16.45.182V-1.54h7.126V-4.3h-7.9v.6h7.168v1.582H15.722V.8h8.344V.182ZM35.532-8.344V-6.37H31.948v.63h3.584v1.9h.742v-7.6h-.742v2.464H32.326a5.67,5.67,0,0,0,.2-1.484H26.964v.616h4.76c-.2,2.436-2.338,4.284-5.376,5.236l.336.616c2.6-.826,4.592-2.324,5.418-4.354ZM32.284.322c-2.03,0-3.346-.672-3.346-1.722s1.316-1.694,3.346-1.694c2,0,3.332.658,3.332,1.694S34.286.322,32.284.322Zm0-4.018c-2.52,0-4.074.854-4.074,2.3C28.21.07,29.764.924,32.284.924,34.776.924,36.33.07,36.33-1.4,36.33-2.842,34.776-3.7,32.284-3.7ZM39.76-7.8A2.3,2.3,0,0,1,42.2-10.052,2.3,2.3,0,0,1,44.632-7.8,2.293,2.293,0,0,1,42.2-5.53,2.293,2.293,0,0,1,39.76-7.8Zm8.456-1.148v2.31H45.122A3.123,3.123,0,0,0,45.346-7.8a3.105,3.105,0,0,0-.224-1.148Zm0,2.94V-4.06h.742v-7.406h-.742v1.9H44.744a3.192,3.192,0,0,0-2.548-1.12A2.916,2.916,0,0,0,39.046-7.8,2.932,2.932,0,0,0,42.2-4.872a3.2,3.2,0,0,0,2.548-1.134ZM44.926.336c-2.016,0-3.332-.672-3.332-1.736s1.316-1.736,3.332-1.736c2.044,0,3.36.686,3.36,1.736S46.97.336,44.926.336Zm0-4.074c-2.52,0-4.06.854-4.06,2.338S42.406.938,44.926.938,49.014.084,49.014-1.4,47.46-3.738,44.926-3.738Zm14.28-2.156a32.143,32.143,0,0,1-6.006.378h-.224V-7.532h4.816v-.616H52.976v-1.9h5.152v-.63H52.234V-4.9H53.2a32.435,32.435,0,0,0,6.1-.378Zm-4.76,3.178h6.44V.154h-6.44Zm-.728,3.5h7.9V-3.332h-7.9Zm7.154-12.236v7.434h.742v-7.434Z" transform="translate(727.339 145.075)"/>
  <path id="패스_772" data-name="패스 772" class="cls-9" d="M2.282-7.77a2.321,2.321,0,0,1,2.562-2.2,2.321,2.321,0,0,1,2.562,2.2,2.321,2.321,0,0,1-2.562,2.2A2.321,2.321,0,0,1,2.282-7.77Zm2.94,2.828A2.853,2.853,0,0,0,8.12-7.77c0-1.694-1.344-2.842-3.276-2.842S1.568-9.464,1.568-7.77A2.865,2.865,0,0,0,4.48-4.942v2.408c-1.3.042-2.548.042-3.612.042l.126.644a47.028,47.028,0,0,0,8.218-.518l-.07-.574a32.619,32.619,0,0,1-3.92.364Zm4.8-6.524V.994h.742v-12.46ZM14.49-5.488c1.722-.35,3.864-1.456,4.592-3.066.714,1.61,2.856,2.716,4.578,3.066l.294-.616c-1.848-.308-4.48-1.736-4.48-3.6v-.28H23.59v-.63H14.546v.63h4.13v.28c0,1.862-2.632,3.29-4.48,3.6ZM24.71-4.242H13.454v.616H18.69V.952h.742V-3.626H24.7ZM33.474-7.35H30.016v-3.066h3.458Zm-4.186,0H27.244v.616h9V-7.35h-2.03v-3.066h2.058v-.616H27.23v.616h2.058Zm5.978,7.5H28.28V-2.38h6.986ZM37.38-4.7v-.63H26.138v.63H31.4V-3H27.566V.784h8.428V-3H32.13V-4.7Zm11.55-6.762h-.742v6.5h.742Zm-2.576,5.6c-1.75-.574-3.29-2.03-3.29-3.794v-.392H46.1v-.63H39.27v.63h3.052v.392a4.62,4.62,0,0,1-3.248,4.046l.364.588A5.427,5.427,0,0,0,42.714-8.26,5.276,5.276,0,0,0,45.99-5.292ZM41.818.182V-1.54h7.126V-4.3h-7.9v.6h7.168v1.582H41.09V.8h8.344V.182ZM59.206-5.894a32.143,32.143,0,0,1-6.006.378h-.224V-7.532h4.816v-.616H52.976v-1.9h5.152v-.63H52.234V-4.9H53.2a32.435,32.435,0,0,0,6.1-.378Zm-4.76,3.178h6.44V.154h-6.44Zm-.728,3.5h7.9V-3.332h-7.9Zm7.154-12.236v7.434h.742v-7.434Z" transform="translate(727.339 186.305)"/>
  <path id="패스_773" data-name="패스 773" class="cls-9" d="M6.4-10.3c2.072,0,3.514.826,3.514,2.044S8.47-6.2,6.4-6.2,2.9-7.042,2.9-8.26,4.34-10.3,6.4-10.3Zm0,4.718c2.562,0,4.27-1.036,4.27-2.674S8.96-10.92,6.4-10.92,2.142-9.9,2.142-8.26,3.836-5.586,6.4-5.586Zm5.67,1.3H.784v.63H3.892V.966h.756v-4.62H8.162V.966h.756v-4.62h3.15ZM24.71-5.236H22.764a19.961,19.961,0,0,0,.364-4.3V-10.6H14.952v.616H22.4v.448a17.893,17.893,0,0,1-.406,4.3H13.468v.63h5.25v5.6h.742v-5.6h5.25ZM33.474-7.35H30.016v-3.066h3.458Zm-4.186,0H27.244v.616h9V-7.35h-2.03v-3.066h2.058v-.616H27.23v.616h2.058Zm5.978,7.5H28.28V-2.38h6.986ZM37.38-4.7v-.63H26.138v.63H31.4V-3H27.566V.784h8.428V-3H32.13V-4.7Zm11.536-6.762h-.742v6.5h.742Zm-2.576,5.6C44.59-6.44,43.05-7.9,43.05-9.66v-.392h3.038v-.63H39.256v.63h3.052v.392A4.62,4.62,0,0,1,39.06-5.614l.364.588A5.427,5.427,0,0,0,42.7-8.26a5.276,5.276,0,0,0,3.276,2.968ZM41.8.182V-1.54H48.93V-4.3h-7.9v.6H48.2v1.582H41.076V.8H49.42V.182ZM57.946-6.174a16.916,16.916,0,0,0,.35-3.7v-.574H52.248v.616h5.32A15.387,15.387,0,0,1,57.2-6.244Zm1.414.882a42.373,42.373,0,0,1-4.3.35V-7.756H54.32v2.842c-1.022.028-1.988.028-2.842.028l.1.658a54.006,54.006,0,0,0,7.84-.49ZM54.18-2.94h-.742V.672h7.994V.042H54.18Zm6.846-4.326v-4.186h-.742v9.394h.742V-6.622h1.96v-.644Zm4.648,4.55V-6.034h4.9v-4.214H64.89V-9.6h4.956v2.94H64.932v4.578h.994a38.223,38.223,0,0,0,6.342-.462l-.07-.63a39.071,39.071,0,0,1-6.272.462Zm7.868-8.736V.994h.742V-11.452ZM84.56-5.894a32.143,32.143,0,0,1-6.006.378H78.33V-7.532h4.816v-.616H78.33v-1.9h5.152v-.63H77.588V-4.9h.966a32.435,32.435,0,0,0,6.1-.378ZM79.8-2.716h6.44V.154H79.8Zm-.728,3.5h7.9V-3.332h-7.9Zm7.154-12.236v7.434h.742v-7.434Z" transform="translate(714.669 222.649)"/>
  <path id="패스_774" data-name="패스 774" class="cls-9" d="M10.906-11.438h-.742v9.17h.742ZM1.862-7.546A2.339,2.339,0,0,1,4.3-9.884,2.339,2.339,0,0,1,6.734-7.546,2.354,2.354,0,0,1,4.3-5.18,2.354,2.354,0,0,1,1.862-7.546Zm5.586,0a2.962,2.962,0,0,0-3.15-3,2.962,2.962,0,0,0-3.15,3A2.976,2.976,0,0,0,4.3-4.522,2.976,2.976,0,0,0,7.448-7.546ZM3.836.042V-3.234H3.094V.672h8.232V.042ZM20.02-7.5v.63h2.842v4.746H23.6v-9.324h-.742V-7.5Zm.742,2.884a4.413,4.413,0,0,1-3.248-3.85v-.588H20.44v-.616H17.528V-11.4h-.742v1.722H13.832v.616h2.954v.588a4.569,4.569,0,0,1-3.192,4.088l.378.588a5.263,5.263,0,0,0,3.192-3.192A5.357,5.357,0,0,0,20.37-4.032ZM16.576.042V-2.982h-.742V.672h8.148V.042Zm16.9-7.392H30.016v-3.066h3.458Zm-4.186,0H27.244v.616h9V-7.35h-2.03v-3.066h2.058v-.616H27.23v.616h2.058Zm5.978,7.5H28.28V-2.38h6.986ZM37.38-4.7v-.63H26.138v.63H31.4V-3H27.566V.784h8.428V-3H32.13V-4.7Zm11.536-6.762h-.742v6.5h.742Zm-2.576,5.6C44.59-6.44,43.05-7.9,43.05-9.66v-.392h3.038v-.63H39.256v.63h3.052v.392A4.62,4.62,0,0,1,39.06-5.614l.364.588A5.427,5.427,0,0,0,42.7-8.26a5.276,5.276,0,0,0,3.276,2.968ZM41.8.182V-1.54H48.93V-4.3h-7.9v.6H48.2v1.582H41.076V.8H49.42V.182ZM57.946-6.174a16.916,16.916,0,0,0,.35-3.7v-.574H52.248v.616h5.32A15.387,15.387,0,0,1,57.2-6.244Zm1.414.882a42.373,42.373,0,0,1-4.3.35V-7.756H54.32v2.842c-1.022.028-1.988.028-2.842.028l.1.658a54.006,54.006,0,0,0,7.84-.49ZM54.18-2.94h-.742V.672h7.994V.042H54.18Zm6.846-4.326v-4.186h-.742v9.394h.742V-6.622h1.96v-.644Zm4.648,4.55V-6.034h4.9v-4.214H64.89V-9.6h4.956v2.94H64.932v4.578h.994a38.223,38.223,0,0,0,6.342-.462l-.07-.63a39.071,39.071,0,0,1-6.272.462Zm7.868-8.736V.994h.742V-11.452ZM84.56-5.894a32.143,32.143,0,0,1-6.006.378H78.33V-7.532h4.816v-.616H78.33v-1.9h5.152v-.63H77.588V-4.9h.966a32.435,32.435,0,0,0,6.1-.378ZM79.8-2.716h6.44V.154H79.8Zm-.728,3.5h7.9V-3.332h-7.9Zm7.154-12.236v7.434h.742v-7.434Z" transform="translate(714.669 262.829)"/>
  <path id="패스_775" data-name="패스 775" class="cls-9" d="M8.288-10.108H5.054v-1.386H4.312v1.386H1.078v.588h7.21ZM2.548-6.986c0-.8.854-1.33,2.128-1.33S6.8-7.784,6.8-6.986,5.95-5.628,4.676-5.628,2.548-6.174,2.548-6.986ZM8.694-4.368c-1.148.168-2.408.28-3.64.336v-1.05c1.484-.1,2.436-.8,2.436-1.9,0-1.176-1.12-1.89-2.814-1.89s-2.828.714-2.828,1.89c0,1.12.966,1.806,2.464,1.9V-3.99c-1.274.042-2.506.056-3.542.056l.112.644A48.308,48.308,0,0,0,8.75-3.822Zm-5.264,2H2.688V.672h8.064V.042H3.43Zm6.86-4.592v-4.494H9.548v9.73h.742V-6.328h1.974v-.63ZM22.848-8.344V-6.37H19.264v.63h3.584v1.9h.742v-7.6h-.742v2.464H19.642a5.67,5.67,0,0,0,.2-1.484H14.28v.616h4.76c-.2,2.436-2.338,4.284-5.376,5.236L14-3.99c2.6-.826,4.592-2.324,5.418-4.354ZM19.6.322c-2.03,0-3.346-.672-3.346-1.722S17.57-3.094,19.6-3.094c2,0,3.332.658,3.332,1.694S21.6.322,19.6.322Zm0-4.018c-2.52,0-4.074.854-4.074,2.3C15.526.07,17.08.924,19.6.924c2.492,0,4.046-.854,4.046-2.324C23.646-2.842,22.092-3.7,19.6-3.7ZM35.532-8.344V-6.37H31.948v.63h3.584v1.9h.742v-7.6h-.742v2.464H32.326a5.67,5.67,0,0,0,.2-1.484H26.964v.616h4.76c-.2,2.436-2.338,4.284-5.376,5.236l.336.616c2.6-.826,4.592-2.324,5.418-4.354ZM32.284.322c-2.03,0-3.346-.672-3.346-1.722s1.316-1.694,3.346-1.694c2,0,3.332.658,3.332,1.694S34.286.322,32.284.322Zm0-4.018c-2.52,0-4.074.854-4.074,2.3C28.21.07,29.764.924,32.284.924,34.776.924,36.33.07,36.33-1.4,36.33-2.842,34.776-3.7,32.284-3.7ZM39.76-7.8A2.3,2.3,0,0,1,42.2-10.052,2.3,2.3,0,0,1,44.632-7.8,2.293,2.293,0,0,1,42.2-5.53,2.293,2.293,0,0,1,39.76-7.8Zm8.456-1.148v2.31H45.122A3.123,3.123,0,0,0,45.346-7.8a3.105,3.105,0,0,0-.224-1.148Zm0,2.94V-4.06h.742v-7.406h-.742v1.9H44.744a3.192,3.192,0,0,0-2.548-1.12A2.916,2.916,0,0,0,39.046-7.8,2.932,2.932,0,0,0,42.2-4.872a3.2,3.2,0,0,0,2.548-1.134ZM44.926.336c-2.016,0-3.332-.672-3.332-1.736s1.316-1.736,3.332-1.736c2.044,0,3.36.686,3.36,1.736S46.97.336,44.926.336Zm0-4.074c-2.52,0-4.06.854-4.06,2.338S42.406.938,44.926.938,49.014.084,49.014-1.4,47.46-3.738,44.926-3.738Zm14.28-2.156a32.143,32.143,0,0,1-6.006.378h-.224V-7.532h4.816v-.616H52.976v-1.9h5.152v-.63H52.234V-4.9H53.2a32.435,32.435,0,0,0,6.1-.378Zm-4.76,3.178h6.44V.154h-6.44Zm-.728,3.5h7.9V-3.332h-7.9Zm7.154-12.236v7.434h.742v-7.434Z" transform="translate(727.339 303.065)"/>
  <rect id="사각형_95" data-name="사각형 95" class="cls-11" width="127.074" height="30" transform="translate(347.471 183.975)"/>
  <path id="패스_765" data-name="패스 765" class="cls-4" d="M1.5,0H2.895V-4.365H4.71c2.4,0,4.05-1.08,4.05-3.4,0-2.4-1.65-3.225-4.125-3.225H1.5ZM2.895-5.49V-9.87H4.47c1.935,0,2.91.51,2.91,2.1,0,1.575-.915,2.28-2.85,2.28ZM10.695,0h1.4V-10.995h-1.4Zm8.25.2A4.251,4.251,0,0,0,22.32-1.38l-.765-.87a3.342,3.342,0,0,1-2.55,1.23c-2.1,0-3.42-1.74-3.42-4.515,0-2.745,1.38-4.455,3.465-4.455A3,3,0,0,1,21.3-8.94l.75-.9A4.066,4.066,0,0,0,19.035-11.2c-2.79,0-4.875,2.16-4.875,5.715S16.215.2,18.945.2ZM29.61.2c1.95,0,3.525-1.17,3.525-3.135A2.827,2.827,0,0,0,30.8-5.73v-.06A2.741,2.741,0,0,0,32.76-8.445c0-1.77-1.35-2.76-3.195-2.76a4.4,4.4,0,0,0-3.075,1.32l.735.87a3.431,3.431,0,0,1,2.28-1.1,1.718,1.718,0,0,1,1.86,1.77c0,1.185-.78,2.1-3.045,2.1v1.05c2.535,0,3.42.885,3.42,2.2A2.025,2.025,0,0,1,29.5-.945a3.635,3.635,0,0,1-2.73-1.26l-.69.9A4.552,4.552,0,0,0,29.61.2ZM38.19-.87c-1.38,0-2.2-1.245-2.37-3.525A2.866,2.866,0,0,1,38.07-5.8c1.335,0,1.98.945,1.98,2.43S39.24-.87,38.19-.87Zm2.955-9.21A3.378,3.378,0,0,0,38.58-11.2c-2.13,0-4.065,1.65-4.065,5.955C34.515-1.62,36.075.2,38.19.2a3.3,3.3,0,0,0,3.15-3.57c0-2.3-1.185-3.45-3.045-3.45a3.42,3.42,0,0,0-2.5,1.335c.06-3.42,1.335-4.575,2.835-4.575a2.325,2.325,0,0,1,1.77.84ZM45.87.2c2.085,0,3.42-1.905,3.42-5.73s-1.335-5.67-3.42-5.67c-2.1,0-3.435,1.845-3.435,5.67S43.77.2,45.87.2Zm0-1.095c-1.26,0-2.1-1.4-2.1-4.635,0-3.21.84-4.56,2.1-4.56,1.245,0,2.085,1.35,2.085,4.56C47.955-2.3,47.115-.9,45.87-.9Z" transform="translate(385.599 204.575)"/>
  <rect id="사각형_96" data-name="사각형 96" class="cls-11" width="127.074" height="30" transform="translate(497.929 182.874)"/>
  <path id="패스_769" data-name="패스 769" class="cls-4" d="M3.795,0H5.19V-9.825H8.52v-1.17H.465v1.17h3.33Zm6.39-5.535c0-2.76,1.29-4.455,3.27-4.455,1.965,0,3.27,1.695,3.27,4.455,0,2.8-1.305,4.59-3.27,4.59C11.475-.945,10.185-2.73,10.185-5.535ZM18.12,1.44a3.783,3.783,0,0,1-1.155.165,2.86,2.86,0,0,1-2.7-1.47c2.325-.4,3.885-2.505,3.885-5.67,0-3.525-1.935-5.67-4.695-5.67S8.76-9.06,8.76-5.535C8.76-2.31,10.38-.18,12.78.15a4.15,4.15,0,0,0,4.035,2.61,4.953,4.953,0,0,0,1.575-.24Zm3.15-5.91.54-1.68c.39-1.245.75-2.43,1.095-3.72h.06c.36,1.275.705,2.475,1.11,3.72L24.6-4.47ZM26,0h1.47L23.73-10.995H22.185L18.45,0h1.41l1.065-3.36h4.02Zm16.44-12.345H41.25v10.1h1.185ZM38.625-2.64H39.78v-9.435H38.625v3.12h-2.1V-7.95h2.1Zm-.93-2.835a4.391,4.391,0,0,1-2.64-3.945V-11.4H33.87v1.98a4.965,4.965,0,0,1-2.76,4.29l.69.945A5.594,5.594,0,0,0,34.47-7.3,5.021,5.021,0,0,0,37.02-4.53ZM34.89-.2V-3.48H33.66V.81h9.165V-.2Zm11.535-6.15h4.41v-.99h-4.41V-10.11H51.42v-1.02H45.195v9.015H46.23a32.71,32.71,0,0,0,6.15-.42l-.135-1a30.387,30.387,0,0,1-5.82.42Zm8.01-6.015v5.085H51.66v1.02h2.775v7.38h1.23V-12.36Z" transform="translate(531.991 203.475)"/>
  <line id="선_200" data-name="선 200" class="cls-3" x2="14.063" transform="translate(678.333 256.681)"/>
  <line id="선_201" data-name="선 201" class="cls-3" x2="14.063" transform="translate(678.333 217.667)"/>
  <line id="선_202" data-name="선 202" class="cls-3" x2="14.063" transform="translate(678.333 178.653)"/>
  <line id="선_203" data-name="선 203" class="cls-3" x2="14.063" transform="translate(678.333 139.64)"/>
  <path id="패스_144" data-name="패스 144" class="cls-3" d="M3650.953,2069.591h-14.391v197.02h14.391" transform="translate(-2958.5 -1969.94)"/>
</svg>
