<svg id="구성_요소_28_1" data-name="구성 요소 28 – 1" xmlns="http://www.w3.org/2000/svg" xmlns:xlink="http://www.w3.org/1999/xlink" width="402.43" height="139.715" viewBox="0 0 402.43 139.715">
  <defs>
    <style>
      .cls-1, .cls-7, .cls-9 {
        fill: none;
      }

      .cls-2 {
        fill: #1e2323;
      }

      .cls-3 {
        fill: #1f4a8c;
      }

      .cls-4 {
        fill: #f5f6f7;
      }

      .cls-5 {
        fill: #4b4f50;
      }

      .cls-6 {
        clip-path: url(#clip-path);
      }

      .cls-7 {
        stroke: #1394d1;
      }

      .cls-8 {
        clip-path: url(#clip-path-2);
      }

      .cls-9 {
        stroke: #3e3a39;
      }
    </style>
    <clipPath id="clip-path">
      <rect id="사각형_104" data-name="사각형 104" class="cls-1" width="185.391" height="30" transform="translate(3021.998 3356.132)"/>
    </clipPath>
    <clipPath id="clip-path-2">
      <rect id="사각형_104-2" data-name="사각형 104" class="cls-1" width="306.391" height="30" transform="translate(3021.998 3356.132)"/>
    </clipPath>
  </defs>
  <path id="패스_778" data-name="패스 778" class="cls-2" d="M.63,0H6.776V-.728H3.6c-.532,0-1.12.042-1.68.084C4.634-3.178,6.286-5.32,6.286-7.462a2.674,2.674,0,0,0-2.828-2.926,3.752,3.752,0,0,0-2.87,1.47l.518.49A3.04,3.04,0,0,1,3.374-9.7,2.006,2.006,0,0,1,5.46-7.434C5.46-5.586,4.088-3.486.63-.5ZM11.046.182c1.848,0,3-1.736,3-5.32,0-3.542-1.148-5.25-3-5.25s-3.01,1.708-3.01,5.25C8.036-1.554,9.184.182,11.046.182Zm0-.686c-1.33,0-2.2-1.54-2.2-4.634,0-3.038.868-4.564,2.2-4.564S13.23-8.176,13.23-5.138C13.23-2.044,12.362-.5,11.046-.5Zm4.83.5H21.14V-.714H19.012v-9.492h-.658a5.859,5.859,0,0,1-1.946.644v.546h1.778v8.3h-2.31Zm8.876,0h.882c.154-3.99.658-6.538,3.08-9.716v-.49h-6.16v.714H27.72C25.69-6.664,24.92-4.074,24.752,0Z" transform="translate(3.4 21.16)"/>
  <path id="패스_777" data-name="패스 777" class="cls-2" d="M.63,0H6.776V-.728H3.6c-.532,0-1.12.042-1.68.084C4.634-3.178,6.286-5.32,6.286-7.462a2.674,2.674,0,0,0-2.828-2.926,3.752,3.752,0,0,0-2.87,1.47l.518.49A3.04,3.04,0,0,1,3.374-9.7,2.006,2.006,0,0,1,5.46-7.434C5.46-5.586,4.088-3.486.63-.5ZM11.046.182c1.848,0,3-1.736,3-5.32,0-3.542-1.148-5.25-3-5.25s-3.01,1.708-3.01,5.25C8.036-1.554,9.184.182,11.046.182Zm0-.686c-1.33,0-2.2-1.54-2.2-4.634,0-3.038.868-4.564,2.2-4.564S13.23-8.176,13.23-5.138C13.23-2.044,12.362-.5,11.046-.5Zm4.83.5H21.14V-.714H19.012v-9.492h-.658a5.859,5.859,0,0,1-1.946.644v.546h1.778v8.3h-2.31Zm9.8.182a2.761,2.761,0,0,0,3.052-2.59,3,3,0,0,0-1.736-2.66v-.07a3.568,3.568,0,0,0,1.4-2.534,2.535,2.535,0,0,0-2.7-2.674,2.5,2.5,0,0,0-2.632,2.52,2.818,2.818,0,0,0,1.4,2.324v.056a3.452,3.452,0,0,0-1.946,2.912A2.879,2.879,0,0,0,25.676.182Zm.714-5.544c-1.274-.5-2.548-1.078-2.548-2.464a1.787,1.787,0,0,1,1.834-1.862,1.918,1.918,0,0,1,1.96,2.044A2.977,2.977,0,0,1,26.39-5.362ZM25.676-.476a2.2,2.2,0,0,1-2.394-2.1,3.036,3.036,0,0,1,1.666-2.562c1.54.6,2.968,1.162,2.968,2.716A2.026,2.026,0,0,1,25.676-.476Z" transform="translate(3.4 64.518)"/>
  <path id="패스_776" data-name="패스 776" class="cls-3" d="M.66,0H7.785V-1.47H5.025c-.54,0-1.23.045-1.8.1C5.565-3.6,7.26-5.8,7.26-7.935A3.122,3.122,0,0,0,3.93-11.25,4.332,4.332,0,0,0,.57-9.6l.975.96A2.994,2.994,0,0,1,3.72-9.87,1.8,1.8,0,0,1,5.595-7.845C5.595-6.03,3.915-3.885.66-1ZM12.54.2c2.16,0,3.57-1.92,3.57-5.76,0-3.81-1.41-5.685-3.57-5.685-2.175,0-3.57,1.86-3.57,5.685C8.97-1.725,10.365.2,12.54.2Zm0-1.365c-1.125,0-1.92-1.2-1.92-4.395,0-3.165.795-4.32,1.92-4.32s1.92,1.155,1.92,4.32C14.46-2.37,13.665-1.17,12.54-1.17ZM17.82,0h6.3V-1.425H21.96V-11.04H20.655a6.782,6.782,0,0,1-2.4.84v1.1h1.98v7.68H17.82ZM28.83-5.4c-1.155,0-1.785-.81-1.785-2.22,0-1.44.75-2.295,1.695-2.295,1.2,0,2.025.99,2.19,3.165A2.648,2.648,0,0,1,28.83-5.4ZM25.62-.975A3.789,3.789,0,0,0,28.44.2c2.13,0,4.11-1.74,4.11-6.09,0-3.645-1.71-5.355-3.825-5.355A3.376,3.376,0,0,0,25.44-7.62c0,2.31,1.245,3.465,3.09,3.465a3.319,3.319,0,0,0,2.43-1.29c-.1,3.15-1.26,4.23-2.595,4.23A2.461,2.461,0,0,1,26.55-2.04Z" transform="translate(-0.57 108.323)"/>
  <rect id="사각형_101" data-name="사각형 101" class="cls-4" width="360.178" height="30" transform="translate(42.252 43.362)"/>
  <path id="패스_780" data-name="패스 780" class="cls-5" d="M3.915-5.19C2.61-5.19,1.95-6.15,1.95-7.635s.81-2.49,1.86-2.49c1.41,0,2.25,1.2,2.4,3.465A2.906,2.906,0,0,1,3.915-5.19ZM.87-.93A3.5,3.5,0,0,0,3.51.2C5.58.2,7.5-1.515,7.5-5.97,7.5-9.465,5.925-11.2,3.81-11.2A3.3,3.3,0,0,0,.66-7.635c0,2.28,1.2,3.465,3.03,3.465A3.39,3.39,0,0,0,6.225-5.535C6.12-2.115,4.89-.945,3.465-.945a2.481,2.481,0,0,1-1.845-.84ZM11.94.2a3.571,3.571,0,0,0,3.6-3.78,3.138,3.138,0,0,0-3.315-3.5,3.157,3.157,0,0,0-1.635.435l.27-3.18h4.155v-1.17H9.66L9.315-5.85l.735.45a2.992,2.992,0,0,1,1.83-.645A2.225,2.225,0,0,1,14.16-3.54,2.376,2.376,0,0,1,11.82-.945,3.617,3.617,0,0,1,9.12-2.16l-.675.9A4.671,4.671,0,0,0,11.94.2Zm8.085,0c1.95,0,3.525-1.17,3.525-3.135a2.827,2.827,0,0,0-2.34-2.79v-.06a2.741,2.741,0,0,0,1.965-2.655c0-1.77-1.35-2.76-3.195-2.76a4.4,4.4,0,0,0-3.075,1.32l.735.87a3.431,3.431,0,0,1,2.28-1.1,1.718,1.718,0,0,1,1.86,1.77c0,1.185-.78,2.1-3.045,2.1v1.05c2.535,0,3.42.885,3.42,2.2A2.025,2.025,0,0,1,19.92-.945,3.635,3.635,0,0,1,17.19-2.2l-.69.9A4.552,4.552,0,0,0,20.025.2Z" transform="translate(368.63 64.962)"/>
  <rect id="사각형_103" data-name="사각형 103" class="cls-4" width="360.178" height="30" transform="translate(42.252)"/>
  <path id="패스_779" data-name="패스 779" class="cls-5" d="M3.915.2a3.571,3.571,0,0,0,3.6-3.78A3.138,3.138,0,0,0,4.2-7.08a3.157,3.157,0,0,0-1.635.435l.27-3.18H6.99v-1.17H1.635L1.29-5.85l.735.45a2.992,2.992,0,0,1,1.83-.645A2.225,2.225,0,0,1,6.135-3.54,2.376,2.376,0,0,1,3.795-.945,3.617,3.617,0,0,1,1.1-2.16l-.675.9A4.671,4.671,0,0,0,3.915.2ZM8.685,0H15.6V-1.185H12.555c-.555,0-1.23.06-1.8.105,2.58-2.445,4.305-4.68,4.305-6.87A3.016,3.016,0,0,0,11.865-11.2a4.205,4.205,0,0,0-3.24,1.62l.8.78A3.079,3.079,0,0,1,11.7-10.08a1.933,1.933,0,0,1,2.025,2.175c0,1.89-1.59,4.08-5.04,7.1Zm11.55.2c2.085,0,3.42-1.905,3.42-5.73s-1.335-5.67-3.42-5.67c-2.1,0-3.435,1.845-3.435,5.67S18.135.2,20.235.2Zm0-1.095c-1.26,0-2.1-1.4-2.1-4.635,0-3.21.84-4.56,2.1-4.56,1.245,0,2.085,1.35,2.085,4.56C22.32-2.3,21.48-.9,20.235-.9Z" transform="translate(368.63 21.25)"/>
  <g id="그룹_52" data-name="그룹 52" transform="translate(-2979.07 -3356.131)">
    <g id="그룹_51" data-name="그룹 51" class="cls-6">
      <line id="선_313" data-name="선 313" class="cls-7" x1="122.486" y1="151.363" transform="translate(3094.777 3295.45)"/>
      <line id="선_314" data-name="선 314" class="cls-7" x1="122.486" y1="151.363" transform="translate(3104.457 3295.45)"/>
      <line id="선_315" data-name="선 315" class="cls-7" x1="122.486" y1="151.363" transform="translate(3085.098 3295.45)"/>
      <line id="선_316" data-name="선 316" class="cls-7" x1="122.486" y1="151.363" transform="translate(3099.617 3295.45)"/>
      <line id="선_317" data-name="선 317" class="cls-7" x1="122.486" y1="151.363" transform="translate(3075.418 3295.45)"/>
      <line id="선_318" data-name="선 318" class="cls-7" x1="122.486" y1="151.363" transform="translate(3089.938 3295.45)"/>
      <line id="선_319" data-name="선 319" class="cls-7" x1="122.486" y1="151.363" transform="translate(3065.739 3295.45)"/>
      <line id="선_320" data-name="선 320" class="cls-7" x1="122.486" y1="151.363" transform="translate(3080.258 3295.45)"/>
      <line id="선_321" data-name="선 321" class="cls-7" x1="122.486" y1="151.363" transform="translate(3056.06 3295.45)"/>
      <line id="선_322" data-name="선 322" class="cls-7" x1="122.486" y1="151.363" transform="translate(3070.579 3295.45)"/>
      <line id="선_323" data-name="선 323" class="cls-7" x1="122.486" y1="151.363" transform="translate(3046.381 3295.45)"/>
      <line id="선_324" data-name="선 324" class="cls-7" x1="122.486" y1="151.363" transform="translate(3060.9 3295.45)"/>
      <line id="선_325" data-name="선 325" class="cls-7" x1="122.486" y1="151.363" transform="translate(3036.701 3295.45)"/>
      <line id="선_326" data-name="선 326" class="cls-7" x1="122.486" y1="151.363" transform="translate(3051.22 3295.45)"/>
      <line id="선_327" data-name="선 327" class="cls-7" x1="122.486" y1="151.363" transform="translate(3017.343 3295.45)"/>
      <line id="선_328" data-name="선 328" class="cls-7" x1="122.486" y1="151.363" transform="translate(3041.541 3295.45)"/>
      <line id="선_329" data-name="선 329" class="cls-7" x1="122.486" y1="151.363" transform="translate(2997.984 3295.45)"/>
      <line id="선_330" data-name="선 330" class="cls-7" x1="122.486" y1="151.363" transform="translate(3307.723 3295.45)"/>
      <line id="선_331" data-name="선 331" class="cls-7" x1="122.486" y1="151.363" transform="translate(3027.022 3295.45)"/>
      <line id="선_332" data-name="선 332" class="cls-7" x1="122.486" y1="151.363" transform="translate(2978.626 3295.45)"/>
      <line id="선_333" data-name="선 333" class="cls-7" x1="122.486" y1="151.363" transform="translate(3288.364 3295.45)"/>
      <line id="선_334" data-name="선 334" class="cls-7" x1="122.486" y1="151.363" transform="translate(3007.664 3295.45)"/>
      <line id="선_335" data-name="선 335" class="cls-7" x1="122.486" y1="151.363" transform="translate(2959.267 3295.45)"/>
      <line id="선_336" data-name="선 336" class="cls-7" x1="122.486" y1="151.363" transform="translate(3269.005 3295.45)"/>
      <line id="선_337" data-name="선 337" class="cls-7" x1="122.486" y1="151.363" transform="translate(2988.305 3295.45)"/>
      <line id="선_338" data-name="선 338" class="cls-7" x1="122.486" y1="151.363" transform="translate(3298.043 3295.45)"/>
      <line id="선_339" data-name="선 339" class="cls-7" x1="122.486" y1="151.363" transform="translate(2939.908 3295.45)"/>
      <line id="선_340" data-name="선 340" class="cls-7" x1="122.486" y1="151.363" transform="translate(3249.647 3295.45)"/>
      <line id="선_341" data-name="선 341" class="cls-7" x1="122.486" y1="151.363" transform="translate(2968.946 3295.45)"/>
      <line id="선_342" data-name="선 342" class="cls-7" x1="122.486" y1="151.363" transform="translate(3278.685 3295.45)"/>
      <line id="선_343" data-name="선 343" class="cls-7" x1="122.486" y1="151.363" transform="translate(2920.55 3295.45)"/>
      <line id="선_344" data-name="선 344" class="cls-7" x1="122.486" y1="151.363" transform="translate(3230.288 3295.45)"/>
      <line id="선_345" data-name="선 345" class="cls-7" x1="122.486" y1="151.363" transform="translate(2949.587 3295.45)"/>
      <line id="선_346" data-name="선 346" class="cls-7" x1="122.486" y1="151.363" transform="translate(3259.326 3295.45)"/>
      <line id="선_347" data-name="선 347" class="cls-7" x1="122.486" y1="151.363" transform="translate(2901.191 3295.45)"/>
      <line id="선_348" data-name="선 348" class="cls-7" x1="122.486" y1="151.363" transform="translate(3210.929 3295.45)"/>
      <line id="선_349" data-name="선 349" class="cls-7" x1="122.486" y1="151.363" transform="translate(2930.229 3295.45)"/>
      <line id="선_350" data-name="선 350" class="cls-7" x1="122.486" y1="151.363" transform="translate(3239.968 3295.45)"/>
      <line id="선_351" data-name="선 351" class="cls-7" x1="122.486" y1="151.363" transform="translate(3191.571 3295.45)"/>
      <line id="선_352" data-name="선 352" class="cls-7" x1="122.486" y1="151.363" transform="translate(2910.87 3295.45)"/>
      <line id="선_353" data-name="선 353" class="cls-7" x1="122.486" y1="151.363" transform="translate(3220.609 3295.45)"/>
      <line id="선_354" data-name="선 354" class="cls-7" x1="122.486" y1="151.363" transform="translate(3177.052 3295.45)"/>
      <line id="선_355" data-name="선 355" class="cls-7" x1="122.486" y1="151.363" transform="translate(3201.25 3295.45)"/>
      <line id="선_356" data-name="선 356" class="cls-7" x1="122.486" y1="151.363" transform="translate(3012.503 3295.45)"/>
      <line id="선_357" data-name="선 357" class="cls-7" x1="122.486" y1="151.363" transform="translate(3031.862 3295.45)"/>
      <line id="선_358" data-name="선 358" class="cls-7" x1="122.486" y1="151.363" transform="translate(2993.145 3295.45)"/>
      <line id="선_359" data-name="선 359" class="cls-7" x1="122.486" y1="151.363" transform="translate(3302.883 3295.45)"/>
      <line id="선_360" data-name="선 360" class="cls-7" x1="122.486" y1="151.363" transform="translate(3022.182 3295.45)"/>
      <line id="선_361" data-name="선 361" class="cls-7" x1="122.486" y1="151.363" transform="translate(2973.786 3295.45)"/>
      <line id="선_362" data-name="선 362" class="cls-7" x1="122.486" y1="151.363" transform="translate(3283.524 3295.45)"/>
      <line id="선_363" data-name="선 363" class="cls-7" x1="122.486" y1="151.363" transform="translate(3002.824 3295.45)"/>
      <line id="선_364" data-name="선 364" class="cls-7" x1="122.486" y1="151.363" transform="translate(2954.427 3295.45)"/>
      <line id="선_365" data-name="선 365" class="cls-7" x1="122.486" y1="151.363" transform="translate(3264.166 3295.45)"/>
      <line id="선_366" data-name="선 366" class="cls-7" x1="122.486" y1="151.363" transform="translate(2983.465 3295.45)"/>
      <line id="선_367" data-name="선 367" class="cls-7" x1="122.486" y1="151.363" transform="translate(3293.204 3295.45)"/>
      <line id="선_368" data-name="선 368" class="cls-7" x1="122.486" y1="151.363" transform="translate(2935.069 3295.45)"/>
      <line id="선_369" data-name="선 369" class="cls-7" x1="122.486" y1="151.363" transform="translate(3244.807 3295.45)"/>
      <line id="선_370" data-name="선 370" class="cls-7" x1="122.486" y1="151.363" transform="translate(2964.107 3295.45)"/>
      <line id="선_371" data-name="선 371" class="cls-7" x1="122.486" y1="151.363" transform="translate(3273.845 3295.45)"/>
      <line id="선_372" data-name="선 372" class="cls-7" x1="122.486" y1="151.363" transform="translate(2915.71 3295.45)"/>
      <line id="선_373" data-name="선 373" class="cls-7" x1="122.486" y1="151.363" transform="translate(3225.448 3295.45)"/>
      <line id="선_374" data-name="선 374" class="cls-7" x1="122.486" y1="151.363" transform="translate(2944.748 3295.45)"/>
      <line id="선_375" data-name="선 375" class="cls-7" x1="122.486" y1="151.363" transform="translate(3254.486 3295.45)"/>
      <line id="선_376" data-name="선 376" class="cls-7" x1="122.486" y1="151.363" transform="translate(2896.351 3295.45)"/>
      <line id="선_377" data-name="선 377" class="cls-7" x1="122.486" y1="151.363" transform="translate(3206.09 3295.45)"/>
      <line id="선_378" data-name="선 378" class="cls-7" x1="122.486" y1="151.363" transform="translate(2925.389 3295.45)"/>
      <line id="선_379" data-name="선 379" class="cls-7" x1="122.486" y1="151.363" transform="translate(3235.127 3295.45)"/>
      <line id="선_380" data-name="선 380" class="cls-7" x1="122.486" y1="151.363" transform="translate(3186.731 3295.45)"/>
      <line id="선_381" data-name="선 381" class="cls-7" x1="122.486" y1="151.363" transform="translate(2906.031 3295.45)"/>
      <line id="선_382" data-name="선 382" class="cls-7" x1="122.486" y1="151.363" transform="translate(3215.769 3295.45)"/>
      <line id="선_383" data-name="선 383" class="cls-7" x1="122.486" y1="151.363" transform="translate(3172.212 3295.45)"/>
      <line id="선_384" data-name="선 384" class="cls-7" x1="122.486" y1="151.363" transform="translate(3196.41 3295.45)"/>
      <line id="선_385" data-name="선 385" class="cls-7" x1="122.486" y1="151.363" transform="translate(3162.533 3295.45)"/>
      <line id="선_386" data-name="선 386" class="cls-7" x1="122.486" y1="151.363" transform="translate(3181.891 3295.45)"/>
      <line id="선_387" data-name="선 387" class="cls-7" x1="122.486" y1="151.363" transform="translate(3152.853 3295.45)"/>
      <line id="선_388" data-name="선 388" class="cls-7" x1="122.486" y1="151.363" transform="translate(3167.373 3295.45)"/>
      <line id="선_389" data-name="선 389" class="cls-7" x1="122.486" y1="151.363" transform="translate(3143.174 3295.45)"/>
      <line id="선_390" data-name="선 390" class="cls-7" x1="122.486" y1="151.363" transform="translate(3157.693 3295.45)"/>
      <line id="선_391" data-name="선 391" class="cls-7" x1="122.486" y1="151.363" transform="translate(3133.495 3295.45)"/>
      <line id="선_392" data-name="선 392" class="cls-7" x1="122.486" y1="151.363" transform="translate(3148.014 3295.45)"/>
      <line id="선_393" data-name="선 393" class="cls-7" x1="122.486" y1="151.363" transform="translate(3123.815 3295.45)"/>
      <line id="선_394" data-name="선 394" class="cls-7" x1="122.486" y1="151.363" transform="translate(3138.334 3295.45)"/>
      <line id="선_395" data-name="선 395" class="cls-7" x1="122.486" y1="151.363" transform="translate(3114.136 3295.45)"/>
      <line id="선_396" data-name="선 396" class="cls-7" x1="122.486" y1="151.363" transform="translate(3128.655 3295.45)"/>
      <line id="선_397" data-name="선 397" class="cls-7" x1="122.486" y1="151.363" transform="translate(3109.297 3295.45)"/>
      <line id="선_398" data-name="선 398" class="cls-7" x1="122.486" y1="151.363" transform="translate(3118.976 3295.45)"/>
    </g>
  </g>
  <g id="그룹_533" data-name="그룹 533" transform="translate(-2979.07 -3312.131)">
    <g id="그룹_51-2" data-name="그룹 51" class="cls-8">
      <line id="선_313-2" data-name="선 313" class="cls-7" x1="122.486" y1="151.363" transform="translate(3094.777 3295.45)"/>
      <line id="선_314-2" data-name="선 314" class="cls-7" x1="122.486" y1="151.363" transform="translate(3104.457 3295.45)"/>
      <line id="선_315-2" data-name="선 315" class="cls-7" x1="122.486" y1="151.363" transform="translate(3085.098 3295.45)"/>
      <line id="선_316-2" data-name="선 316" class="cls-7" x1="122.486" y1="151.363" transform="translate(3099.617 3295.45)"/>
      <line id="선_317-2" data-name="선 317" class="cls-7" x1="122.486" y1="151.363" transform="translate(3075.418 3295.45)"/>
      <line id="선_318-2" data-name="선 318" class="cls-7" x1="122.486" y1="151.363" transform="translate(3089.938 3295.45)"/>
      <line id="선_319-2" data-name="선 319" class="cls-7" x1="122.486" y1="151.363" transform="translate(3065.739 3295.45)"/>
      <line id="선_320-2" data-name="선 320" class="cls-7" x1="122.486" y1="151.363" transform="translate(3080.258 3295.45)"/>
      <line id="선_321-2" data-name="선 321" class="cls-7" x1="122.486" y1="151.363" transform="translate(3056.06 3295.45)"/>
      <line id="선_322-2" data-name="선 322" class="cls-7" x1="122.486" y1="151.363" transform="translate(3070.579 3295.45)"/>
      <line id="선_323-2" data-name="선 323" class="cls-7" x1="122.486" y1="151.363" transform="translate(3046.381 3295.45)"/>
      <line id="선_324-2" data-name="선 324" class="cls-7" x1="122.486" y1="151.363" transform="translate(3060.9 3295.45)"/>
      <line id="선_325-2" data-name="선 325" class="cls-7" x1="122.486" y1="151.363" transform="translate(3036.701 3295.45)"/>
      <line id="선_326-2" data-name="선 326" class="cls-7" x1="122.486" y1="151.363" transform="translate(3051.22 3295.45)"/>
      <line id="선_327-2" data-name="선 327" class="cls-7" x1="122.486" y1="151.363" transform="translate(3017.343 3295.45)"/>
      <line id="선_328-2" data-name="선 328" class="cls-7" x1="122.486" y1="151.363" transform="translate(3041.541 3295.45)"/>
      <line id="선_329-2" data-name="선 329" class="cls-7" x1="122.486" y1="151.363" transform="translate(2997.984 3295.45)"/>
      <line id="선_330-2" data-name="선 330" class="cls-7" x1="122.486" y1="151.363" transform="translate(3307.723 3295.45)"/>
      <line id="선_331-2" data-name="선 331" class="cls-7" x1="122.486" y1="151.363" transform="translate(3027.022 3295.45)"/>
      <line id="선_332-2" data-name="선 332" class="cls-7" x1="122.486" y1="151.363" transform="translate(2978.626 3295.45)"/>
      <line id="선_333-2" data-name="선 333" class="cls-7" x1="122.486" y1="151.363" transform="translate(3288.364 3295.45)"/>
      <line id="선_334-2" data-name="선 334" class="cls-7" x1="122.486" y1="151.363" transform="translate(3007.664 3295.45)"/>
      <line id="선_335-2" data-name="선 335" class="cls-7" x1="122.486" y1="151.363" transform="translate(2959.267 3295.45)"/>
      <line id="선_336-2" data-name="선 336" class="cls-7" x1="122.486" y1="151.363" transform="translate(3269.005 3295.45)"/>
      <line id="선_337-2" data-name="선 337" class="cls-7" x1="122.486" y1="151.363" transform="translate(2988.305 3295.45)"/>
      <line id="선_338-2" data-name="선 338" class="cls-7" x1="122.486" y1="151.363" transform="translate(3298.043 3295.45)"/>
      <line id="선_339-2" data-name="선 339" class="cls-7" x1="122.486" y1="151.363" transform="translate(2939.908 3295.45)"/>
      <line id="선_340-2" data-name="선 340" class="cls-7" x1="122.486" y1="151.363" transform="translate(3249.647 3295.45)"/>
      <line id="선_341-2" data-name="선 341" class="cls-7" x1="122.486" y1="151.363" transform="translate(2968.946 3295.45)"/>
      <line id="선_342-2" data-name="선 342" class="cls-7" x1="122.486" y1="151.363" transform="translate(3278.685 3295.45)"/>
      <line id="선_343-2" data-name="선 343" class="cls-7" x1="122.486" y1="151.363" transform="translate(2920.55 3295.45)"/>
      <line id="선_344-2" data-name="선 344" class="cls-7" x1="122.486" y1="151.363" transform="translate(3230.288 3295.45)"/>
      <line id="선_345-2" data-name="선 345" class="cls-7" x1="122.486" y1="151.363" transform="translate(2949.587 3295.45)"/>
      <line id="선_346-2" data-name="선 346" class="cls-7" x1="122.486" y1="151.363" transform="translate(3259.326 3295.45)"/>
      <line id="선_347-2" data-name="선 347" class="cls-7" x1="122.486" y1="151.363" transform="translate(2901.191 3295.45)"/>
      <line id="선_348-2" data-name="선 348" class="cls-7" x1="122.486" y1="151.363" transform="translate(3210.929 3295.45)"/>
      <line id="선_349-2" data-name="선 349" class="cls-7" x1="122.486" y1="151.363" transform="translate(2930.229 3295.45)"/>
      <line id="선_350-2" data-name="선 350" class="cls-7" x1="122.486" y1="151.363" transform="translate(3239.968 3295.45)"/>
      <line id="선_351-2" data-name="선 351" class="cls-7" x1="122.486" y1="151.363" transform="translate(3191.571 3295.45)"/>
      <line id="선_352-2" data-name="선 352" class="cls-7" x1="122.486" y1="151.363" transform="translate(2910.87 3295.45)"/>
      <line id="선_353-2" data-name="선 353" class="cls-7" x1="122.486" y1="151.363" transform="translate(3220.609 3295.45)"/>
      <line id="선_354-2" data-name="선 354" class="cls-7" x1="122.486" y1="151.363" transform="translate(3177.052 3295.45)"/>
      <line id="선_355-2" data-name="선 355" class="cls-7" x1="122.486" y1="151.363" transform="translate(3201.25 3295.45)"/>
      <line id="선_356-2" data-name="선 356" class="cls-7" x1="122.486" y1="151.363" transform="translate(3012.503 3295.45)"/>
      <line id="선_357-2" data-name="선 357" class="cls-7" x1="122.486" y1="151.363" transform="translate(3031.862 3295.45)"/>
      <line id="선_358-2" data-name="선 358" class="cls-7" x1="122.486" y1="151.363" transform="translate(2993.145 3295.45)"/>
      <line id="선_359-2" data-name="선 359" class="cls-7" x1="122.486" y1="151.363" transform="translate(3302.883 3295.45)"/>
      <line id="선_360-2" data-name="선 360" class="cls-7" x1="122.486" y1="151.363" transform="translate(3022.182 3295.45)"/>
      <line id="선_361-2" data-name="선 361" class="cls-7" x1="122.486" y1="151.363" transform="translate(2973.786 3295.45)"/>
      <line id="선_362-2" data-name="선 362" class="cls-7" x1="122.486" y1="151.363" transform="translate(3283.524 3295.45)"/>
      <line id="선_363-2" data-name="선 363" class="cls-7" x1="122.486" y1="151.363" transform="translate(3002.824 3295.45)"/>
      <line id="선_364-2" data-name="선 364" class="cls-7" x1="122.486" y1="151.363" transform="translate(2954.427 3295.45)"/>
      <line id="선_365-2" data-name="선 365" class="cls-7" x1="122.486" y1="151.363" transform="translate(3264.166 3295.45)"/>
      <line id="선_366-2" data-name="선 366" class="cls-7" x1="122.486" y1="151.363" transform="translate(2983.465 3295.45)"/>
      <line id="선_367-2" data-name="선 367" class="cls-7" x1="122.486" y1="151.363" transform="translate(3293.204 3295.45)"/>
      <line id="선_368-2" data-name="선 368" class="cls-7" x1="122.486" y1="151.363" transform="translate(2935.069 3295.45)"/>
      <line id="선_369-2" data-name="선 369" class="cls-7" x1="122.486" y1="151.363" transform="translate(3244.807 3295.45)"/>
      <line id="선_370-2" data-name="선 370" class="cls-7" x1="122.486" y1="151.363" transform="translate(2964.107 3295.45)"/>
      <line id="선_371-2" data-name="선 371" class="cls-7" x1="122.486" y1="151.363" transform="translate(3273.845 3295.45)"/>
      <line id="선_372-2" data-name="선 372" class="cls-7" x1="122.486" y1="151.363" transform="translate(2915.71 3295.45)"/>
      <line id="선_373-2" data-name="선 373" class="cls-7" x1="122.486" y1="151.363" transform="translate(3225.448 3295.45)"/>
      <line id="선_374-2" data-name="선 374" class="cls-7" x1="122.486" y1="151.363" transform="translate(2944.748 3295.45)"/>
      <line id="선_375-2" data-name="선 375" class="cls-7" x1="122.486" y1="151.363" transform="translate(3254.486 3295.45)"/>
      <line id="선_376-2" data-name="선 376" class="cls-7" x1="122.486" y1="151.363" transform="translate(2896.351 3295.45)"/>
      <line id="선_377-2" data-name="선 377" class="cls-7" x1="122.486" y1="151.363" transform="translate(3206.09 3295.45)"/>
      <line id="선_378-2" data-name="선 378" class="cls-7" x1="122.486" y1="151.363" transform="translate(2925.389 3295.45)"/>
      <line id="선_379-2" data-name="선 379" class="cls-7" x1="122.486" y1="151.363" transform="translate(3235.127 3295.45)"/>
      <line id="선_380-2" data-name="선 380" class="cls-7" x1="122.486" y1="151.363" transform="translate(3186.731 3295.45)"/>
      <line id="선_381-2" data-name="선 381" class="cls-7" x1="122.486" y1="151.363" transform="translate(2906.031 3295.45)"/>
      <line id="선_382-2" data-name="선 382" class="cls-7" x1="122.486" y1="151.363" transform="translate(3215.769 3295.45)"/>
      <line id="선_383-2" data-name="선 383" class="cls-7" x1="122.486" y1="151.363" transform="translate(3172.212 3295.45)"/>
      <line id="선_384-2" data-name="선 384" class="cls-7" x1="122.486" y1="151.363" transform="translate(3196.41 3295.45)"/>
      <line id="선_385-2" data-name="선 385" class="cls-7" x1="122.486" y1="151.363" transform="translate(3162.533 3295.45)"/>
      <line id="선_386-2" data-name="선 386" class="cls-7" x1="122.486" y1="151.363" transform="translate(3181.891 3295.45)"/>
      <line id="선_387-2" data-name="선 387" class="cls-7" x1="122.486" y1="151.363" transform="translate(3152.853 3295.45)"/>
      <line id="선_388-2" data-name="선 388" class="cls-7" x1="122.486" y1="151.363" transform="translate(3167.373 3295.45)"/>
      <line id="선_389-2" data-name="선 389" class="cls-7" x1="122.486" y1="151.363" transform="translate(3143.174 3295.45)"/>
      <line id="선_390-2" data-name="선 390" class="cls-7" x1="122.486" y1="151.363" transform="translate(3157.693 3295.45)"/>
      <line id="선_391-2" data-name="선 391" class="cls-7" x1="122.486" y1="151.363" transform="translate(3133.495 3295.45)"/>
      <line id="선_392-2" data-name="선 392" class="cls-7" x1="122.486" y1="151.363" transform="translate(3148.014 3295.45)"/>
      <line id="선_393-2" data-name="선 393" class="cls-7" x1="122.486" y1="151.363" transform="translate(3123.815 3295.45)"/>
      <line id="선_394-2" data-name="선 394" class="cls-7" x1="122.486" y1="151.363" transform="translate(3138.334 3295.45)"/>
      <line id="선_395-2" data-name="선 395" class="cls-7" x1="122.486" y1="151.363" transform="translate(3114.136 3295.45)"/>
      <line id="선_396-2" data-name="선 396" class="cls-7" x1="122.486" y1="151.363" transform="translate(3128.655 3295.45)"/>
      <line id="선_397-2" data-name="선 397" class="cls-7" x1="122.486" y1="151.363" transform="translate(3109.297 3295.45)"/>
      <line id="선_398-2" data-name="선 398" class="cls-7" x1="122.486" y1="151.363" transform="translate(3118.976 3295.45)"/>
    </g>
  </g>
  <rect id="사각형_105" data-name="사각형 105" class="cls-4" width="360.178" height="30" transform="translate(42.252 86.723)"/>
  <path id="패스_781" data-name="패스 781" class="cls-3" d="M6.426-1.575C4.767-1.575,3.654-3.024,3.4-6.09A3.6,3.6,0,0,1,6.279-7.9C7.938-7.9,8.82-6.783,8.82-4.788S7.77-1.575,6.426-1.575Zm4.389-12.516A5.19,5.19,0,0,0,6.951-15.75c-3.045,0-5.838,2.373-5.838,8.316,0,5.25,2.394,7.707,5.334,7.707,2.52,0,4.62-2,4.62-5.061,0-3.276-1.743-4.872-4.347-4.872A4.647,4.647,0,0,0,3.36-7.875c.105-4.41,1.743-5.9,3.717-5.9a3.321,3.321,0,0,1,2.415,1.155ZM17.556.273c3.024,0,5-2.688,5-8.064,0-5.334-1.974-7.959-5-7.959-3.045,0-5,2.6-5,7.959C12.558-2.415,14.511.273,17.556.273Zm0-1.911c-1.575,0-2.688-1.68-2.688-6.153,0-4.431,1.113-6.048,2.688-6.048s2.688,1.617,2.688,6.048C20.244-3.318,19.131-1.638,17.556-1.638ZM28.791-7.56c-1.617,0-2.5-1.134-2.5-3.108,0-2.016,1.05-3.213,2.373-3.213,1.68,0,2.835,1.386,3.066,4.431A3.707,3.707,0,0,1,28.791-7.56ZM24.3-1.365A5.3,5.3,0,0,0,28.245.273C31.227.273,34-2.163,34-8.253c0-5.1-2.394-7.5-5.355-7.5-2.5,0-4.6,2.016-4.6,5.082,0,3.234,1.743,4.851,4.326,4.851a4.647,4.647,0,0,0,3.4-1.806C31.626-3.213,30.009-1.7,28.14-1.7A3.445,3.445,0,0,1,25.6-2.856Z" transform="translate(361.941 110.137)"/>
  <rect id="사각형_106" data-name="사각형 106" class="cls-3" width="218.797" height="30" transform="translate(42.253 86.723)"/>
  <line id="선_399" data-name="선 399" class="cls-9" y2="139.714" transform="translate(42.752 0)"/>
</svg>
