<svg id="구성_요소_28_1" data-name="구성 요소 28 – 1" xmlns="http://www.w3.org/2000/svg" xmlns:xlink="http://www.w3.org/1999/xlink" width="402.43" height="139.715" viewBox="0 0 402.43 139.715">
  <defs>
    <style>
      .cls-1, .cls-10, .cls-7, .cls-9 {
        fill: none;
      }

      .cls-2 {
        fill: #1e2323;
      }

      .cls-3 {
        fill: #1f4a8c;
      }

      .cls-4 {
        fill: #f5f6f7;
      }

      .cls-5 {
        fill: #4b4f50;
      }

      .cls-6 {
        clip-path: url(#clip-path);
      }

      .cls-7 {
        stroke: #1394d1;
      }

      .cls-8 {
        clip-path: url(#clip-path-2);
      }

      .cls-9 {
        stroke: #1f4a8c;
        stroke-width: 0.283px;
      }

      .cls-10 {
        stroke: #3e3a39;
      }
    </style>
    <clipPath id="clip-path">
      <rect id="사각형_102" data-name="사각형 102" class="cls-1" width="296.673" height="30" transform="translate(3001.322 3399.493)"/>
    </clipPath>
    <clipPath id="clip-path-2">
      <rect id="사각형_104" data-name="사각형 104" class="cls-1" width="239.672" height="30" transform="translate(3001.322 3356.132)"/>
    </clipPath>
  </defs>
  <path id="패스_778" data-name="패스 778" class="cls-2" d="M.63,0H6.776V-.728H3.6c-.532,0-1.12.042-1.68.084C4.634-3.178,6.286-5.32,6.286-7.462a2.674,2.674,0,0,0-2.828-2.926,3.752,3.752,0,0,0-2.87,1.47l.518.49A3.04,3.04,0,0,1,3.374-9.7,2.006,2.006,0,0,1,5.46-7.434C5.46-5.586,4.088-3.486.63-.5ZM11.046.182c1.848,0,3-1.736,3-5.32,0-3.542-1.148-5.25-3-5.25s-3.01,1.708-3.01,5.25C8.036-1.554,9.184.182,11.046.182Zm0-.686c-1.33,0-2.2-1.54-2.2-4.634,0-3.038.868-4.564,2.2-4.564S13.23-8.176,13.23-5.138C13.23-2.044,12.362-.5,11.046-.5Zm4.83.5H21.14V-.714H19.012v-9.492h-.658a5.859,5.859,0,0,1-1.946.644v.546h1.778v8.3h-2.31Zm8.876,0h.882c.154-3.99.658-6.538,3.08-9.716v-.49h-6.16v.714H27.72C25.69-6.664,24.92-4.074,24.752,0Z" transform="translate(3.4 21.16)"/>
  <path id="패스_777" data-name="패스 777" class="cls-2" d="M.63,0H6.776V-.728H3.6c-.532,0-1.12.042-1.68.084C4.634-3.178,6.286-5.32,6.286-7.462a2.674,2.674,0,0,0-2.828-2.926,3.752,3.752,0,0,0-2.87,1.47l.518.49A3.04,3.04,0,0,1,3.374-9.7,2.006,2.006,0,0,1,5.46-7.434C5.46-5.586,4.088-3.486.63-.5ZM11.046.182c1.848,0,3-1.736,3-5.32,0-3.542-1.148-5.25-3-5.25s-3.01,1.708-3.01,5.25C8.036-1.554,9.184.182,11.046.182Zm0-.686c-1.33,0-2.2-1.54-2.2-4.634,0-3.038.868-4.564,2.2-4.564S13.23-8.176,13.23-5.138C13.23-2.044,12.362-.5,11.046-.5Zm4.83.5H21.14V-.714H19.012v-9.492h-.658a5.859,5.859,0,0,1-1.946.644v.546h1.778v8.3h-2.31Zm9.8.182a2.761,2.761,0,0,0,3.052-2.59,3,3,0,0,0-1.736-2.66v-.07a3.568,3.568,0,0,0,1.4-2.534,2.535,2.535,0,0,0-2.7-2.674,2.5,2.5,0,0,0-2.632,2.52,2.818,2.818,0,0,0,1.4,2.324v.056a3.452,3.452,0,0,0-1.946,2.912A2.879,2.879,0,0,0,25.676.182Zm.714-5.544c-1.274-.5-2.548-1.078-2.548-2.464a1.787,1.787,0,0,1,1.834-1.862,1.918,1.918,0,0,1,1.96,2.044A2.977,2.977,0,0,1,26.39-5.362ZM25.676-.476a2.2,2.2,0,0,1-2.394-2.1,3.036,3.036,0,0,1,1.666-2.562c1.54.6,2.968,1.162,2.968,2.716A2.026,2.026,0,0,1,25.676-.476Z" transform="translate(3.4 64.518)"/>
  <path id="패스_776" data-name="패스 776" class="cls-3" d="M.66,0H7.785V-1.47H5.025c-.54,0-1.23.045-1.8.1C5.565-3.6,7.26-5.8,7.26-7.935A3.122,3.122,0,0,0,3.93-11.25,4.332,4.332,0,0,0,.57-9.6l.975.96A2.994,2.994,0,0,1,3.72-9.87,1.8,1.8,0,0,1,5.595-7.845C5.595-6.03,3.915-3.885.66-1ZM12.54.2c2.16,0,3.57-1.92,3.57-5.76,0-3.81-1.41-5.685-3.57-5.685-2.175,0-3.57,1.86-3.57,5.685C8.97-1.725,10.365.2,12.54.2Zm0-1.365c-1.125,0-1.92-1.2-1.92-4.395,0-3.165.795-4.32,1.92-4.32s1.92,1.155,1.92,4.32C14.46-2.37,13.665-1.17,12.54-1.17ZM17.82,0h6.3V-1.425H21.96V-11.04H20.655a6.782,6.782,0,0,1-2.4.84v1.1h1.98v7.68H17.82ZM28.83-5.4c-1.155,0-1.785-.81-1.785-2.22,0-1.44.75-2.295,1.695-2.295,1.2,0,2.025.99,2.19,3.165A2.648,2.648,0,0,1,28.83-5.4ZM25.62-.975A3.789,3.789,0,0,0,28.44.2c2.13,0,4.11-1.74,4.11-6.09,0-3.645-1.71-5.355-3.825-5.355A3.376,3.376,0,0,0,25.44-7.62c0,2.31,1.245,3.465,3.09,3.465a3.319,3.319,0,0,0,2.43-1.29c-.1,3.15-1.26,4.23-2.595,4.23A2.461,2.461,0,0,1,26.55-2.04Z" transform="translate(-0.57 108.323)"/>
  <rect id="사각형_101" data-name="사각형 101" class="cls-4" width="360.178" height="30" transform="translate(42.252 43.362)"/>
  <path id="패스_780" data-name="패스 780" class="cls-5" d="M3.915-5.19C2.61-5.19,1.95-6.15,1.95-7.635s.81-2.49,1.86-2.49c1.41,0,2.25,1.2,2.4,3.465A2.906,2.906,0,0,1,3.915-5.19ZM.87-.93A3.5,3.5,0,0,0,3.51.2C5.58.2,7.5-1.515,7.5-5.97,7.5-9.465,5.925-11.2,3.81-11.2A3.3,3.3,0,0,0,.66-7.635c0,2.28,1.2,3.465,3.03,3.465A3.39,3.39,0,0,0,6.225-5.535C6.12-2.115,4.89-.945,3.465-.945a2.481,2.481,0,0,1-1.845-.84ZM11.94.2a3.571,3.571,0,0,0,3.6-3.78,3.138,3.138,0,0,0-3.315-3.5,3.157,3.157,0,0,0-1.635.435l.27-3.18h4.155v-1.17H9.66L9.315-5.85l.735.45a2.992,2.992,0,0,1,1.83-.645A2.225,2.225,0,0,1,14.16-3.54,2.376,2.376,0,0,1,11.82-.945,3.617,3.617,0,0,1,9.12-2.16l-.675.9A4.671,4.671,0,0,0,11.94.2Zm8.085,0c1.95,0,3.525-1.17,3.525-3.135a2.827,2.827,0,0,0-2.34-2.79v-.06a2.741,2.741,0,0,0,1.965-2.655c0-1.77-1.35-2.76-3.195-2.76a4.4,4.4,0,0,0-3.075,1.32l.735.87a3.431,3.431,0,0,1,2.28-1.1,1.718,1.718,0,0,1,1.86,1.77c0,1.185-.78,2.1-3.045,2.1v1.05c2.535,0,3.42.885,3.42,2.2A2.025,2.025,0,0,1,19.92-.945,3.635,3.635,0,0,1,17.19-2.2l-.69.9A4.552,4.552,0,0,0,20.025.2Z" transform="translate(368.63 64.962)"/>
  <g id="그룹_50" data-name="그룹 50" transform="translate(-2959.07 -3356.131)">
    <g id="그룹_49" data-name="그룹 49" class="cls-6">
      <line id="선_213" data-name="선 213" class="cls-7" x1="102.33" y1="151.363" transform="translate(3090.625 3338.812)"/>
      <line id="선_214" data-name="선 214" class="cls-7" x1="102.33" y1="151.363" transform="translate(3098.712 3338.812)"/>
      <line id="선_215" data-name="선 215" class="cls-7" x1="102.33" y1="151.363" transform="translate(3082.539 3338.812)"/>
      <line id="선_216" data-name="선 216" class="cls-7" x1="102.33" y1="151.363" transform="translate(3094.669 3338.812)"/>
      <line id="선_217" data-name="선 217" class="cls-7" x1="102.33" y1="151.363" transform="translate(3074.452 3338.812)"/>
      <line id="선_218" data-name="선 218" class="cls-7" x1="102.33" y1="151.363" transform="translate(3086.582 3338.812)"/>
      <line id="선_219" data-name="선 219" class="cls-7" x1="102.33" y1="151.363" transform="translate(3066.366 3338.812)"/>
      <line id="선_220" data-name="선 220" class="cls-7" x1="102.33" y1="151.363" transform="translate(3078.496 3338.812)"/>
      <line id="선_221" data-name="선 221" class="cls-7" x1="102.33" y1="151.363" transform="translate(3058.279 3338.812)"/>
      <line id="선_222" data-name="선 222" class="cls-7" x1="102.33" y1="151.363" transform="translate(3070.409 3338.812)"/>
      <line id="선_223" data-name="선 223" class="cls-7" x1="102.33" y1="151.363" transform="translate(3050.193 3338.812)"/>
      <line id="선_224" data-name="선 224" class="cls-7" x1="102.33" y1="151.363" transform="translate(3062.323 3338.812)"/>
      <line id="선_225" data-name="선 225" class="cls-7" x1="102.33" y1="151.363" transform="translate(3042.106 3338.812)"/>
      <line id="선_226" data-name="선 226" class="cls-7" x1="102.33" y1="151.363" transform="translate(3054.236 3338.812)"/>
      <line id="선_227" data-name="선 227" class="cls-7" x1="102.33" y1="151.363" transform="translate(3025.933 3338.812)"/>
      <line id="선_228" data-name="선 228" class="cls-7" x1="102.33" y1="151.363" transform="translate(3284.703 3338.812)"/>
      <line id="선_229" data-name="선 229" class="cls-7" x1="102.33" y1="151.363" transform="translate(3046.149 3338.812)"/>
      <line id="선_230" data-name="선 230" class="cls-7" x1="102.33" y1="151.363" transform="translate(3009.76 3338.812)"/>
      <line id="선_231" data-name="선 231" class="cls-7" x1="102.33" y1="151.363" transform="translate(3268.53 3338.812)"/>
      <line id="선_232" data-name="선 232" class="cls-7" x1="102.33" y1="151.363" transform="translate(3034.02 3338.812)"/>
      <line id="선_233" data-name="선 233" class="cls-7" x1="102.33" y1="151.363" transform="translate(3292.789 3338.812)"/>
      <line id="선_234" data-name="선 234" class="cls-7" x1="102.33" y1="151.363" transform="translate(2993.587 3338.812)"/>
      <line id="선_235" data-name="선 235" class="cls-7" x1="102.33" y1="151.363" transform="translate(3252.356 3338.812)"/>
      <line id="선_236" data-name="선 236" class="cls-7" x1="102.33" y1="151.363" transform="translate(3017.846 3338.812)"/>
      <line id="선_237" data-name="선 237" class="cls-7" x1="102.33" y1="151.363" transform="translate(3276.616 3338.812)"/>
      <line id="선_238" data-name="선 238" class="cls-7" x1="102.33" y1="151.363" transform="translate(2977.414 3338.812)"/>
      <line id="선_239" data-name="선 239" class="cls-7" x1="102.33" y1="151.363" transform="translate(3236.183 3338.812)"/>
      <line id="선_240" data-name="선 240" class="cls-7" x1="102.33" y1="151.363" transform="translate(3001.673 3338.812)"/>
      <line id="선_241" data-name="선 241" class="cls-7" x1="102.33" y1="151.363" transform="translate(3260.443 3338.812)"/>
      <line id="선_242" data-name="선 242" class="cls-7" x1="102.33" y1="151.363" transform="translate(2961.241 3338.812)"/>
      <line id="선_243" data-name="선 243" class="cls-7" x1="102.33" y1="151.363" transform="translate(3220.01 3338.812)"/>
      <line id="선_244" data-name="선 244" class="cls-7" x1="102.33" y1="151.363" transform="translate(2985.5 3338.812)"/>
      <line id="선_245" data-name="선 245" class="cls-7" x1="102.33" y1="151.363" transform="translate(3244.27 3338.812)"/>
      <line id="선_246" data-name="선 246" class="cls-7" x1="102.33" y1="151.363" transform="translate(2945.068 3338.812)"/>
      <line id="선_247" data-name="선 247" class="cls-7" x1="102.33" y1="151.363" transform="translate(3203.837 3338.812)"/>
      <line id="선_248" data-name="선 248" class="cls-7" x1="102.33" y1="151.363" transform="translate(2969.327 3338.812)"/>
      <line id="선_249" data-name="선 249" class="cls-7" x1="102.33" y1="151.363" transform="translate(3228.097 3338.812)"/>
      <line id="선_250" data-name="선 250" class="cls-7" x1="102.33" y1="151.363" transform="translate(2928.895 3338.812)"/>
      <line id="선_251" data-name="선 251" class="cls-7" x1="102.33" y1="151.363" transform="translate(3187.664 3338.812)"/>
      <line id="선_252" data-name="선 252" class="cls-7" x1="102.33" y1="151.363" transform="translate(2953.154 3338.812)"/>
      <line id="선_253" data-name="선 253" class="cls-7" x1="102.33" y1="151.363" transform="translate(3211.924 3338.812)"/>
      <line id="선_254" data-name="선 254" class="cls-7" x1="102.33" y1="151.363" transform="translate(2912.721 3338.812)"/>
      <line id="선_255" data-name="선 255" class="cls-7" x1="102.33" y1="151.363" transform="translate(3171.491 3338.812)"/>
      <line id="선_256" data-name="선 256" class="cls-7" x1="102.33" y1="151.363" transform="translate(2936.981 3338.812)"/>
      <line id="선_257" data-name="선 257" class="cls-7" x1="102.33" y1="151.363" transform="translate(3195.75 3338.812)"/>
      <line id="선_258" data-name="선 258" class="cls-7" x1="102.33" y1="151.363" transform="translate(2900.592 3338.812)"/>
      <line id="선_259" data-name="선 259" class="cls-7" x1="102.33" y1="151.363" transform="translate(3159.361 3338.812)"/>
      <line id="선_260" data-name="선 260" class="cls-7" x1="102.33" y1="151.363" transform="translate(2920.808 3338.812)"/>
      <line id="선_261" data-name="선 261" class="cls-7" x1="102.33" y1="151.363" transform="translate(3179.577 3338.812)"/>
      <line id="선_262" data-name="선 262" class="cls-7" x1="102.33" y1="151.363" transform="translate(3021.89 3338.812)"/>
      <line id="선_263" data-name="선 263" class="cls-7" x1="102.33" y1="151.363" transform="translate(3280.659 3338.812)"/>
      <line id="선_264" data-name="선 264" class="cls-7" x1="102.33" y1="151.363" transform="translate(3038.063 3338.812)"/>
      <line id="선_265" data-name="선 265" class="cls-7" x1="102.33" y1="151.363" transform="translate(3296.833 3338.812)"/>
      <line id="선_266" data-name="선 266" class="cls-7" x1="102.33" y1="151.363" transform="translate(3005.717 3338.812)"/>
      <line id="선_267" data-name="선 267" class="cls-7" x1="102.33" y1="151.363" transform="translate(3264.486 3338.812)"/>
      <line id="선_268" data-name="선 268" class="cls-7" x1="102.33" y1="151.363" transform="translate(3029.976 3338.812)"/>
      <line id="선_269" data-name="선 269" class="cls-7" x1="102.33" y1="151.363" transform="translate(3288.746 3338.812)"/>
      <line id="선_270" data-name="선 270" class="cls-7" x1="102.33" y1="151.363" transform="translate(2989.544 3338.812)"/>
      <line id="선_271" data-name="선 271" class="cls-7" x1="102.33" y1="151.363" transform="translate(3248.313 3338.812)"/>
      <line id="선_272" data-name="선 272" class="cls-7" x1="102.33" y1="151.363" transform="translate(3013.803 3338.812)"/>
      <line id="선_273" data-name="선 273" class="cls-7" x1="102.33" y1="151.363" transform="translate(3272.573 3338.812)"/>
      <line id="선_274" data-name="선 274" class="cls-7" x1="102.33" y1="151.363" transform="translate(2973.371 3338.812)"/>
      <line id="선_275" data-name="선 275" class="cls-7" x1="102.33" y1="151.363" transform="translate(3232.14 3338.812)"/>
      <line id="선_276" data-name="선 276" class="cls-7" x1="102.33" y1="151.363" transform="translate(2997.63 3338.812)"/>
      <line id="선_277" data-name="선 277" class="cls-7" x1="102.33" y1="151.363" transform="translate(3256.4 3338.812)"/>
      <line id="선_278" data-name="선 278" class="cls-7" x1="102.33" y1="151.363" transform="translate(2957.198 3338.812)"/>
      <line id="선_279" data-name="선 279" class="cls-7" x1="102.33" y1="151.363" transform="translate(3215.967 3338.812)"/>
      <line id="선_280" data-name="선 280" class="cls-7" x1="102.33" y1="151.363" transform="translate(2981.457 3338.812)"/>
      <line id="선_281" data-name="선 281" class="cls-7" x1="102.33" y1="151.363" transform="translate(3240.227 3338.812)"/>
      <line id="선_282" data-name="선 282" class="cls-7" x1="102.33" y1="151.363" transform="translate(2941.024 3338.812)"/>
      <line id="선_283" data-name="선 283" class="cls-7" x1="102.33" y1="151.363" transform="translate(3199.794 3338.812)"/>
      <line id="선_284" data-name="선 284" class="cls-7" x1="102.33" y1="151.363" transform="translate(2965.284 3338.812)"/>
      <line id="선_285" data-name="선 285" class="cls-7" x1="102.33" y1="151.363" transform="translate(3224.053 3338.812)"/>
      <line id="선_286" data-name="선 286" class="cls-7" x1="102.33" y1="151.363" transform="translate(2924.851 3338.812)"/>
      <line id="선_287" data-name="선 287" class="cls-7" x1="102.33" y1="151.363" transform="translate(3183.621 3338.812)"/>
      <line id="선_288" data-name="선 288" class="cls-7" x1="102.33" y1="151.363" transform="translate(2949.111 3338.812)"/>
      <line id="선_289" data-name="선 289" class="cls-7" x1="102.33" y1="151.363" transform="translate(3207.88 3338.812)"/>
      <line id="선_290" data-name="선 290" class="cls-7" x1="102.33" y1="151.363" transform="translate(2908.678 3338.812)"/>
      <line id="선_291" data-name="선 291" class="cls-7" x1="102.33" y1="151.363" transform="translate(3167.448 3338.812)"/>
      <line id="선_292" data-name="선 292" class="cls-7" x1="102.33" y1="151.363" transform="translate(2932.938 3338.812)"/>
      <line id="선_293" data-name="선 293" class="cls-7" x1="102.33" y1="151.363" transform="translate(3191.707 3338.812)"/>
      <line id="선_294" data-name="선 294" class="cls-7" x1="102.33" y1="151.363" transform="translate(2896.548 3338.812)"/>
      <line id="선_295" data-name="선 295" class="cls-7" x1="102.33" y1="151.363" transform="translate(3155.318 3338.812)"/>
      <line id="선_296" data-name="선 296" class="cls-7" x1="102.33" y1="151.363" transform="translate(2916.765 3338.812)"/>
      <line id="선_297" data-name="선 297" class="cls-7" x1="102.33" y1="151.363" transform="translate(3175.534 3338.812)"/>
      <line id="선_298" data-name="선 298" class="cls-7" x1="102.33" y1="151.363" transform="translate(3147.231 3338.812)"/>
      <line id="선_299" data-name="선 299" class="cls-7" x1="102.33" y1="151.363" transform="translate(2904.635 3338.812)"/>
      <line id="선_300" data-name="선 300" class="cls-7" x1="102.33" y1="151.363" transform="translate(3163.404 3338.812)"/>
      <line id="선_301" data-name="선 301" class="cls-7" x1="102.33" y1="151.363" transform="translate(3139.145 3338.812)"/>
      <line id="선_302" data-name="선 302" class="cls-7" x1="102.33" y1="151.363" transform="translate(3151.275 3338.812)"/>
      <line id="선_303" data-name="선 303" class="cls-7" x1="102.33" y1="151.363" transform="translate(3131.058 3338.812)"/>
      <line id="선_304" data-name="선 304" class="cls-7" x1="102.33" y1="151.363" transform="translate(3143.188 3338.812)"/>
      <line id="선_305" data-name="선 305" class="cls-7" x1="102.33" y1="151.363" transform="translate(3122.972 3338.812)"/>
      <line id="선_306" data-name="선 306" class="cls-7" x1="102.33" y1="151.363" transform="translate(3135.102 3338.812)"/>
      <line id="선_307" data-name="선 307" class="cls-7" x1="102.33" y1="151.363" transform="translate(3114.885 3338.812)"/>
      <line id="선_308" data-name="선 308" class="cls-7" x1="102.33" y1="151.363" transform="translate(3127.015 3338.812)"/>
      <line id="선_309" data-name="선 309" class="cls-7" x1="102.33" y1="151.363" transform="translate(3106.798 3338.812)"/>
      <line id="선_310" data-name="선 310" class="cls-7" x1="102.33" y1="151.363" transform="translate(3118.928 3338.812)"/>
      <line id="선_311" data-name="선 311" class="cls-7" x1="102.33" y1="151.363" transform="translate(3102.755 3338.812)"/>
      <line id="선_312" data-name="선 312" class="cls-7" x1="102.33" y1="151.363" transform="translate(3110.842 3338.812)"/>
    </g>
  </g>
  <rect id="사각형_103" data-name="사각형 103" class="cls-4" width="360.178" height="30" transform="translate(42.252)"/>
  <path id="패스_779" data-name="패스 779" class="cls-5" d="M3.915.2a3.571,3.571,0,0,0,3.6-3.78A3.138,3.138,0,0,0,4.2-7.08a3.157,3.157,0,0,0-1.635.435l.27-3.18H6.99v-1.17H1.635L1.29-5.85l.735.45a2.992,2.992,0,0,1,1.83-.645A2.225,2.225,0,0,1,6.135-3.54,2.376,2.376,0,0,1,3.795-.945,3.617,3.617,0,0,1,1.1-2.16l-.675.9A4.671,4.671,0,0,0,3.915.2ZM8.685,0H15.6V-1.185H12.555c-.555,0-1.23.06-1.8.105,2.58-2.445,4.305-4.68,4.305-6.87A3.016,3.016,0,0,0,11.865-11.2a4.205,4.205,0,0,0-3.24,1.62l.8.78A3.079,3.079,0,0,1,11.7-10.08a1.933,1.933,0,0,1,2.025,2.175c0,1.89-1.59,4.08-5.04,7.1Zm11.55.2c2.085,0,3.42-1.905,3.42-5.73s-1.335-5.67-3.42-5.67c-2.1,0-3.435,1.845-3.435,5.67S18.135.2,20.235.2Zm0-1.095c-1.26,0-2.1-1.4-2.1-4.635,0-3.21.84-4.56,2.1-4.56,1.245,0,2.085,1.35,2.085,4.56C22.32-2.3,21.48-.9,20.235-.9Z" transform="translate(368.63 23.25)"/>
  <g id="그룹_52" data-name="그룹 52" transform="translate(-2959.07 -3356.131)">
    <g id="그룹_51" data-name="그룹 51" class="cls-8">
      <line id="선_313" data-name="선 313" class="cls-7" x1="102.33" y1="151.363" transform="translate(3062.125 3295.45)"/>
      <line id="선_314" data-name="선 314" class="cls-7" x1="102.33" y1="151.363" transform="translate(3070.212 3295.45)"/>
      <line id="선_315" data-name="선 315" class="cls-7" x1="102.33" y1="151.363" transform="translate(3054.039 3295.45)"/>
      <line id="선_316" data-name="선 316" class="cls-7" x1="102.33" y1="151.363" transform="translate(3066.169 3295.45)"/>
      <line id="선_317" data-name="선 317" class="cls-7" x1="102.33" y1="151.363" transform="translate(3045.952 3295.45)"/>
      <line id="선_318" data-name="선 318" class="cls-7" x1="102.33" y1="151.363" transform="translate(3058.082 3295.45)"/>
      <line id="선_319" data-name="선 319" class="cls-7" x1="102.33" y1="151.363" transform="translate(3037.866 3295.45)"/>
      <line id="선_320" data-name="선 320" class="cls-7" x1="102.33" y1="151.363" transform="translate(3049.996 3295.45)"/>
      <line id="선_321" data-name="선 321" class="cls-7" x1="102.33" y1="151.363" transform="translate(3029.779 3295.45)"/>
      <line id="선_322" data-name="선 322" class="cls-7" x1="102.33" y1="151.363" transform="translate(3041.909 3295.45)"/>
      <line id="선_323" data-name="선 323" class="cls-7" x1="102.33" y1="151.363" transform="translate(3021.693 3295.45)"/>
      <line id="선_324" data-name="선 324" class="cls-7" x1="102.33" y1="151.363" transform="translate(3033.823 3295.45)"/>
      <line id="선_325" data-name="선 325" class="cls-7" x1="102.33" y1="151.363" transform="translate(3013.606 3295.45)"/>
      <line id="선_326" data-name="선 326" class="cls-7" x1="102.33" y1="151.363" transform="translate(3025.736 3295.45)"/>
      <line id="선_327" data-name="선 327" class="cls-7" x1="102.33" y1="151.363" transform="translate(2997.433 3295.45)"/>
      <line id="선_328" data-name="선 328" class="cls-7" x1="102.33" y1="151.363" transform="translate(3017.649 3295.45)"/>
      <line id="선_329" data-name="선 329" class="cls-7" x1="102.33" y1="151.363" transform="translate(2981.26 3295.45)"/>
      <line id="선_330" data-name="선 330" class="cls-7" x1="102.33" y1="151.363" transform="translate(3240.03 3295.45)"/>
      <line id="선_331" data-name="선 331" class="cls-7" x1="102.33" y1="151.363" transform="translate(3005.52 3295.45)"/>
      <line id="선_332" data-name="선 332" class="cls-7" x1="102.33" y1="151.363" transform="translate(2965.087 3295.45)"/>
      <line id="선_333" data-name="선 333" class="cls-7" x1="102.33" y1="151.363" transform="translate(3223.856 3295.45)"/>
      <line id="선_334" data-name="선 334" class="cls-7" x1="102.33" y1="151.363" transform="translate(2989.346 3295.45)"/>
      <line id="선_335" data-name="선 335" class="cls-7" x1="102.33" y1="151.363" transform="translate(2948.914 3295.45)"/>
      <line id="선_336" data-name="선 336" class="cls-7" x1="102.33" y1="151.363" transform="translate(3207.683 3295.45)"/>
      <line id="선_337" data-name="선 337" class="cls-7" x1="102.33" y1="151.363" transform="translate(2973.173 3295.45)"/>
      <line id="선_338" data-name="선 338" class="cls-7" x1="102.33" y1="151.363" transform="translate(3231.943 3295.45)"/>
      <line id="선_339" data-name="선 339" class="cls-7" x1="102.33" y1="151.363" transform="translate(2932.741 3295.45)"/>
      <line id="선_340" data-name="선 340" class="cls-7" x1="102.33" y1="151.363" transform="translate(3191.51 3295.45)"/>
      <line id="선_341" data-name="선 341" class="cls-7" x1="102.33" y1="151.363" transform="translate(2957 3295.45)"/>
      <line id="선_342" data-name="선 342" class="cls-7" x1="102.33" y1="151.363" transform="translate(3215.77 3295.45)"/>
      <line id="선_343" data-name="선 343" class="cls-7" x1="102.33" y1="151.363" transform="translate(2916.568 3295.45)"/>
      <line id="선_344" data-name="선 344" class="cls-7" x1="102.33" y1="151.363" transform="translate(3175.337 3295.45)"/>
      <line id="선_345" data-name="선 345" class="cls-7" x1="102.33" y1="151.363" transform="translate(2940.827 3295.45)"/>
      <line id="선_346" data-name="선 346" class="cls-7" x1="102.33" y1="151.363" transform="translate(3199.597 3295.45)"/>
      <line id="선_347" data-name="선 347" class="cls-7" x1="102.33" y1="151.363" transform="translate(2900.395 3295.45)"/>
      <line id="선_348" data-name="선 348" class="cls-7" x1="102.33" y1="151.363" transform="translate(3159.164 3295.45)"/>
      <line id="선_349" data-name="선 349" class="cls-7" x1="102.33" y1="151.363" transform="translate(2924.654 3295.45)"/>
      <line id="선_350" data-name="선 350" class="cls-7" x1="102.33" y1="151.363" transform="translate(3183.424 3295.45)"/>
      <line id="선_351" data-name="선 351" class="cls-7" x1="102.33" y1="151.363" transform="translate(3142.991 3295.45)"/>
      <line id="선_352" data-name="선 352" class="cls-7" x1="102.33" y1="151.363" transform="translate(2908.481 3295.45)"/>
      <line id="선_353" data-name="선 353" class="cls-7" x1="102.33" y1="151.363" transform="translate(3167.25 3295.45)"/>
      <line id="선_354" data-name="선 354" class="cls-7" x1="102.33" y1="151.363" transform="translate(3130.861 3295.45)"/>
      <line id="선_355" data-name="선 355" class="cls-7" x1="102.33" y1="151.363" transform="translate(3151.077 3295.45)"/>
      <line id="선_356" data-name="선 356" class="cls-7" x1="102.33" y1="151.363" transform="translate(2993.39 3295.45)"/>
      <line id="선_357" data-name="선 357" class="cls-7" x1="102.33" y1="151.363" transform="translate(3009.563 3295.45)"/>
      <line id="선_358" data-name="선 358" class="cls-7" x1="102.33" y1="151.363" transform="translate(2977.217 3295.45)"/>
      <line id="선_359" data-name="선 359" class="cls-7" x1="102.33" y1="151.363" transform="translate(3235.986 3295.45)"/>
      <line id="선_360" data-name="선 360" class="cls-7" x1="102.33" y1="151.363" transform="translate(3001.476 3295.45)"/>
      <line id="선_361" data-name="선 361" class="cls-7" x1="102.33" y1="151.363" transform="translate(2961.044 3295.45)"/>
      <line id="선_362" data-name="선 362" class="cls-7" x1="102.33" y1="151.363" transform="translate(3219.813 3295.45)"/>
      <line id="선_363" data-name="선 363" class="cls-7" x1="102.33" y1="151.363" transform="translate(2985.303 3295.45)"/>
      <line id="선_364" data-name="선 364" class="cls-7" x1="102.33" y1="151.363" transform="translate(2944.871 3295.45)"/>
      <line id="선_365" data-name="선 365" class="cls-7" x1="102.33" y1="151.363" transform="translate(3203.64 3295.45)"/>
      <line id="선_366" data-name="선 366" class="cls-7" x1="102.33" y1="151.363" transform="translate(2969.13 3295.45)"/>
      <line id="선_367" data-name="선 367" class="cls-7" x1="102.33" y1="151.363" transform="translate(3227.9 3295.45)"/>
      <line id="선_368" data-name="선 368" class="cls-7" x1="102.33" y1="151.363" transform="translate(2928.698 3295.45)"/>
      <line id="선_369" data-name="선 369" class="cls-7" x1="102.33" y1="151.363" transform="translate(3187.467 3295.45)"/>
      <line id="선_370" data-name="선 370" class="cls-7" x1="102.33" y1="151.363" transform="translate(2952.957 3295.45)"/>
      <line id="선_371" data-name="선 371" class="cls-7" x1="102.33" y1="151.363" transform="translate(3211.727 3295.45)"/>
      <line id="선_372" data-name="선 372" class="cls-7" x1="102.33" y1="151.363" transform="translate(2912.524 3295.45)"/>
      <line id="선_373" data-name="선 373" class="cls-7" x1="102.33" y1="151.363" transform="translate(3171.294 3295.45)"/>
      <line id="선_374" data-name="선 374" class="cls-7" x1="102.33" y1="151.363" transform="translate(2936.784 3295.45)"/>
      <line id="선_375" data-name="선 375" class="cls-7" x1="102.33" y1="151.363" transform="translate(3195.553 3295.45)"/>
      <line id="선_376" data-name="선 376" class="cls-7" x1="102.33" y1="151.363" transform="translate(2896.351 3295.45)"/>
      <line id="선_377" data-name="선 377" class="cls-7" x1="102.33" y1="151.363" transform="translate(3155.121 3295.45)"/>
      <line id="선_378" data-name="선 378" class="cls-7" x1="102.33" y1="151.363" transform="translate(2920.611 3295.45)"/>
      <line id="선_379" data-name="선 379" class="cls-7" x1="102.33" y1="151.363" transform="translate(3179.38 3295.45)"/>
      <line id="선_380" data-name="선 380" class="cls-7" x1="102.33" y1="151.363" transform="translate(3138.948 3295.45)"/>
      <line id="선_381" data-name="선 381" class="cls-7" x1="102.33" y1="151.363" transform="translate(2904.438 3295.45)"/>
      <line id="선_382" data-name="선 382" class="cls-7" x1="102.33" y1="151.363" transform="translate(3163.207 3295.45)"/>
      <line id="선_383" data-name="선 383" class="cls-7" x1="102.33" y1="151.363" transform="translate(3126.818 3295.45)"/>
      <line id="선_384" data-name="선 384" class="cls-7" x1="102.33" y1="151.363" transform="translate(3147.034 3295.45)"/>
      <line id="선_385" data-name="선 385" class="cls-7" x1="102.33" y1="151.363" transform="translate(3118.731 3295.45)"/>
      <line id="선_386" data-name="선 386" class="cls-7" x1="102.33" y1="151.363" transform="translate(3134.904 3295.45)"/>
      <line id="선_387" data-name="선 387" class="cls-7" x1="102.33" y1="151.363" transform="translate(3110.645 3295.45)"/>
      <line id="선_388" data-name="선 388" class="cls-7" x1="102.33" y1="151.363" transform="translate(3122.775 3295.45)"/>
      <line id="선_389" data-name="선 389" class="cls-7" x1="102.33" y1="151.363" transform="translate(3102.558 3295.45)"/>
      <line id="선_390" data-name="선 390" class="cls-7" x1="102.33" y1="151.363" transform="translate(3114.688 3295.45)"/>
      <line id="선_391" data-name="선 391" class="cls-7" x1="102.33" y1="151.363" transform="translate(3094.472 3295.45)"/>
      <line id="선_392" data-name="선 392" class="cls-7" x1="102.33" y1="151.363" transform="translate(3106.602 3295.45)"/>
      <line id="선_393" data-name="선 393" class="cls-7" x1="102.33" y1="151.363" transform="translate(3086.385 3295.45)"/>
      <line id="선_394" data-name="선 394" class="cls-7" x1="102.33" y1="151.363" transform="translate(3098.515 3295.45)"/>
      <line id="선_395" data-name="선 395" class="cls-7" x1="102.33" y1="151.363" transform="translate(3078.298 3295.45)"/>
      <line id="선_396" data-name="선 396" class="cls-7" x1="102.33" y1="151.363" transform="translate(3090.428 3295.45)"/>
      <line id="선_397" data-name="선 397" class="cls-7" x1="102.33" y1="151.363" transform="translate(3074.255 3295.45)"/>
      <line id="선_398" data-name="선 398" class="cls-7" x1="102.33" y1="151.363" transform="translate(3082.342 3295.45)"/>
    </g>
  </g>
  <rect id="사각형_105" data-name="사각형 105" class="cls-4" width="360.178" height="30" transform="translate(42.252 86.723)"/>
  <path id="패스_781" data-name="패스 781" class="cls-3" d="M6.426-1.575C4.767-1.575,3.654-3.024,3.4-6.09A3.6,3.6,0,0,1,6.279-7.9C7.938-7.9,8.82-6.783,8.82-4.788S7.77-1.575,6.426-1.575Zm4.389-12.516A5.19,5.19,0,0,0,6.951-15.75c-3.045,0-5.838,2.373-5.838,8.316,0,5.25,2.394,7.707,5.334,7.707,2.52,0,4.62-2,4.62-5.061,0-3.276-1.743-4.872-4.347-4.872A4.647,4.647,0,0,0,3.36-7.875c.105-4.41,1.743-5.9,3.717-5.9a3.321,3.321,0,0,1,2.415,1.155ZM17.556.273c3.024,0,5-2.688,5-8.064,0-5.334-1.974-7.959-5-7.959-3.045,0-5,2.6-5,7.959C12.558-2.415,14.511.273,17.556.273Zm0-1.911c-1.575,0-2.688-1.68-2.688-6.153,0-4.431,1.113-6.048,2.688-6.048s2.688,1.617,2.688,6.048C20.244-3.318,19.131-1.638,17.556-1.638ZM28.791-7.56c-1.617,0-2.5-1.134-2.5-3.108,0-2.016,1.05-3.213,2.373-3.213,1.68,0,2.835,1.386,3.066,4.431A3.707,3.707,0,0,1,28.791-7.56ZM24.3-1.365A5.3,5.3,0,0,0,28.245.273C31.227.273,34-2.163,34-8.253c0-5.1-2.394-7.5-5.355-7.5-2.5,0-4.6,2.016-4.6,5.082,0,3.234,1.743,4.851,4.326,4.851a4.647,4.647,0,0,0,3.4-1.806C31.626-3.213,30.009-1.7,28.14-1.7A3.445,3.445,0,0,1,25.6-2.856Z" transform="translate(361.941 110.137)"/>
  <rect id="사각형_106" data-name="사각형 106" class="cls-3" width="268.797" height="30" transform="translate(42.253 86.723)"/>
  <rect id="사각형_107" data-name="사각형 107" class="cls-9" width="268.797" height="30" transform="translate(42.253 86.723)"/>
  <line id="선_399" data-name="선 399" class="cls-10" y2="139.714" transform="translate(42.752 0)"/>
</svg>
