<svg id="구성_요소_61_1" data-name="구성 요소 61 – 1" xmlns="http://www.w3.org/2000/svg" xmlns:xlink="http://www.w3.org/1999/xlink" width="836.506" height="281.388" viewBox="0 0 836.506 281.388">
  <defs>
    <style>
      .cls-1, .cls-14, .cls-17, .cls-18, .cls-19, .cls-20, .cls-3, .cls-8, .cls-9 {
        fill: none;
      }

      .cls-2 {
        clip-path: url(#clip-path);
      }

      .cls-3 {
        stroke: #1e498b;
      }

      .cls-14, .cls-15, .cls-17, .cls-18, .cls-19, .cls-20, .cls-3, .cls-9 {
        stroke-width: 0.5px;
      }

      .cls-4, .cls-5, .cls-6, .cls-7 {
        fill: #1e2323;
      }

      .cls-4, .cls-5, .cls-6 {
        font-size: 14px;
        font-family: NotoSansKR-Light, Noto Sans KR;
        font-weight: 300;
      }

      .cls-4 {
        letter-spacing: -0.015em;
      }

      .cls-6 {
        letter-spacing: -0.042em;
      }

      .cls-16, .cls-7 {
        font-size: 15px;
        letter-spacing: -0.02em;
      }

      .cls-7 {
        font-family: NotoSansKR-Regular, Noto Sans KR;
      }

      .cls-19, .cls-20, .cls-8, .cls-9 {
        stroke: #2b2e34;
      }

      .cls-8 {
        stroke-width: 0.283px;
      }

      .cls-10 {
        fill: #1e498b;
      }

      .cls-11 {
        fill: #1393d1;
      }

      .cls-12 {
        fill: #a7d2e6;
      }

      .cls-13, .cls-15 {
        fill: #fff;
      }

      .cls-14, .cls-15 {
        stroke: #303c72;
      }

      .cls-16 {
        fill: #303c72;
        font-family: NotoSansKR-Medium, Noto Sans KR;
        font-weight: 500;
      }

      .cls-17, .cls-18 {
        stroke: #42454a;
      }

      .cls-17, .cls-18, .cls-19, .cls-20 {
        stroke-linecap: round;
        stroke-linejoin: round;
      }

      .cls-17 {
        stroke-dasharray: 0 1.501;
      }

      .cls-19 {
        stroke-dasharray: 0 1.495;
      }
    </style>
    <clipPath id="clip-path">
      <path id="패스_677" data-name="패스 677" class="cls-1" d="M0,0H836.506V-281.388H0Z"/>
    </clipPath>
  </defs>
  <g id="그룹_473" data-name="그룹 473" class="cls-2" transform="translate(0 281.388)">
    <path id="패스_676" data-name="패스 676" class="cls-3" d="M130.523-138.223H836.256V-281.139H130.523Z"/>
  </g>
  <g id="그룹" transform="translate(0 281.388)">
    <text id="K" class="cls-4" transform="translate(142.758 -237.871)"><tspan x="0" y="0">K</tspan></text>
    <text id="OLAS" class="cls-4" transform="translate(151.018 -237.871)"><tspan x="0" y="0">OLAS</tspan></text>
    <text id="K-2" data-name="K" class="cls-4" transform="translate(206.64 -247.867)"><tspan x="0" y="0">K</tspan></text>
    <text id="C제조자" class="cls-4" transform="translate(214.9 -247.867)"><tspan x="0" y="0">C</tspan><tspan y="0">제조자</tspan></text>
    <text id="시험소" class="cls-4" transform="translate(215.054 -227.861)"><tspan x="0" y="0">시험소</tspan></text>
    <text id="K-3" data-name="K" class="cls-4" transform="translate(281.456 -247.867)"><tspan x="0" y="0">K</tspan></text>
    <text id="TL_CIF" data-name="TL CIF" class="cls-4" transform="translate(289.758 -247.867)"><tspan x="0" y="0">TL CIF</tspan></text>
    <text id="_" data-name=" " class="cls-4" transform="translate(328.146 -247.867)"><tspan x="0" y="0"> </tspan></text>
    <text id="tv3" class="cls-4" transform="translate(295.372 -227.861)"><tspan x="0" y="0">tv3</tspan></text>
    <text id="_2" data-name=" " class="cls-4" transform="translate(314.216 -227.861)"><tspan x="0" y="0"> </tspan></text>
    <text id="UL" class="cls-4" transform="translate(366.94 -247.867)"><tspan x="0" y="0">UL</tspan></text>
    <text id="_3" data-name=" " class="cls-4" transform="translate(383.908 -247.867)"><tspan x="0" y="0"> </tspan></text>
    <text id="WLIDP" class="cls-4" transform="translate(355.292 -227.861)"><tspan x="0" y="0">WLIDP</tspan></text>
    <text id="I" class="cls-5" transform="translate(415.212 -247.867)"><tspan x="0" y="0">I</tspan></text>
    <text id="NTERTEK" class="cls-4" transform="translate(418.81 -247.867)"><tspan x="0" y="0">NTERTEK</tspan></text>
    <text id="_4" data-name=" " class="cls-4" transform="translate(476.896 -247.867)"><tspan x="0" y="0"> </tspan></text>
    <text id="_5" data-name=" " class="cls-5" transform="translate(480.396 -247.867)"><tspan x="0" y="0"> </tspan></text>
    <text id="satellite_2" data-name="satellite 2" class="cls-4" transform="translate(416.682 -227.861)"><tspan x="0" y="0">satellite 2</tspan></text>
    <text id="_6" data-name=" " class="cls-4" transform="translate(475.426 -227.861)"><tspan x="0" y="0"> </tspan></text>
    <text id="NEMK" class="cls-4" transform="translate(493.318 -247.867)"><tspan x="0" y="0">NEMK</tspan></text>
    <text id="O" class="cls-4" transform="translate(529.886 -247.867)"><tspan x="0" y="0">O</tspan></text>
    <text id="_7" data-name=" " class="cls-4" transform="translate(540.05 -247.867)"><tspan x="0" y="0"> </tspan></text>
    <text id="C" class="cls-4" transform="translate(499.352 -227.861)"><tspan x="0" y="0">C</tspan></text>
    <text id="TF_2" data-name="TF 2" class="cls-4" transform="translate(507.612 -227.861)"><tspan x="0" y="0">TF 2</tspan></text>
    <text id="_8" data-name=" " class="cls-4" transform="translate(534.016 -227.861)"><tspan x="0" y="0"> </tspan></text>
    <text id="IEC_" data-name="IEC " class="cls-4" transform="translate(557.354 -237.857)"><tspan x="0" y="0">IEC </tspan></text>
    <text id="_61770" data-name="61770" class="cls-4" transform="translate(580.656 -237.857)"><tspan x="0" y="0">61770</tspan></text>
    <text id="_9" data-name=" " class="cls-4" transform="translate(617.266 -237.857)"><tspan x="0" y="0"> </tspan></text>
    <text id="CQ" class="cls-6" transform="translate(644.476 -247.853)"><tspan x="0" y="0">CQ</tspan></text>
    <text id="C-2" data-name="C" class="cls-6" transform="translate(662.62 -247.853)"><tspan x="0" y="0">C</tspan></text>
    <text id="_10" data-name=" " class="cls-6" transform="translate(671.398 -247.853)"><tspan x="0" y="0"> </tspan></text>
    <text id="WMT" class="cls-4" transform="translate(642.558 -227.847)"><tspan x="0" y="0">WMT</tspan></text>
    <text id="CVC_WMT" data-name="CVC WMT" class="cls-4" transform="translate(699.104 -237.843)"><tspan x="0" y="0">CVC WMT</tspan></text>
    <text id="N" class="cls-5" transform="translate(775.852 -247.839)"><tspan x="0" y="0">N</tspan></text>
    <text id="EMK" class="cls-4" transform="translate(785.54 -247.839)"><tspan x="0" y="0">EMK</tspan></text>
    <text id="O-2" data-name="O" class="cls-4" transform="translate(812.42 -247.839)"><tspan x="0" y="0">O</tspan></text>
    <text id="_11" data-name=" " class="cls-4" transform="translate(822.584 -247.839)"><tspan x="0" y="0"> </tspan></text>
    <text id="EMC_TBM" data-name="EMC TBM" class="cls-4" transform="translate(769.888 -227.833)"><tspan x="0" y="0">EMC TBM</tspan></text>
    <text id="국제" class="cls-4" transform="translate(150.752 -168.081)"><tspan x="0" y="0">국제</tspan></text>
    <text id="국내" class="cls-4" transform="translate(221.382 -168.081)"><tspan x="0" y="0">국내</tspan></text>
    <text id="국제_CB_" data-name="국제(CB)" class="cls-4" transform="translate(279.16 -168.081)"><tspan x="0" y="0">국제(</tspan><tspan y="0">CB)</tspan></text>
    <text id="북미" class="cls-4" transform="translate(362.656 -168.081)"><tspan x="0" y="0">북미</tspan></text>
    <text id="북미-2" data-name="북미" class="cls-4" transform="translate(433.286 -168.081)"><tspan x="0" y="0">북미</tspan></text>
    <text id="유럽" class="cls-4" transform="translate(503.916 -168.081)"><tspan x="0" y="0">유럽</tspan></text>
    <text id="국제-2" data-name="국제" class="cls-4" transform="translate(574.546 -178.077)"><tspan x="0" y="0">국제</tspan></text>
    <text id="_12" data-name=" " class="cls-4" transform="translate(600.096 -178.077)"><tspan x="0" y="0"> </tspan></text>
    <text id="_13" data-name=" " class="cls-5" transform="translate(603.596 -178.077)"><tspan x="0" y="0"> </tspan></text>
    <text id="_수배관_" data-name="(수배관)" class="cls-4" transform="translate(564.032 -158.071)"><tspan x="0" y="0">(수배관)</tspan></text>
    <text id="중국" class="cls-4" transform="translate(645.19 -168.067)"><tspan x="0" y="0">중국</tspan></text>
    <text id="중국-2" data-name="중국" class="cls-4" transform="translate(715.82 -168.067)"><tspan x="0" y="0">중국</tspan></text>
    <text id="유럽-2" data-name="유럽" class="cls-4" transform="translate(786.45 -168.067)"><tspan x="0" y="0">유럽</tspan></text>
  </g>
  <g id="그룹_474" data-name="그룹 474" transform="translate(130.381 23.121)">
    <path id="패스_678" data-name="패스 678" class="cls-3" d="M0,0H-10V82.713H0"/>
  </g>
  <g id="그룹_475" data-name="그룹 475" class="cls-2" transform="translate(0 281.388)">
    <text id="_10개_시험소_운영" data-name="10개 시험소 운영" class="cls-7" transform="translate(0.256 -168.005)"><tspan x="0" y="0">10개 시험소 운영</tspan></text>
  </g>
  <path id="패스_680" data-name="패스 680" class="cls-3" d="M128.679-35.627H403.256v-65H128.679Z" transform="translate(0 281.388)"/>
  <g id="그룹-2" data-name="그룹" transform="translate(0 281.388)">
    <text id="대기전력" class="cls-4" transform="translate(135.734 -61.965)"><tspan x="0" y="0">대기전력</tspan></text>
    <text id="ERP" class="cls-4" transform="translate(218.838 -61.965)"><tspan x="0" y="0">ERP</tspan></text>
    <text id="_14" data-name=" " class="cls-5" transform="translate(243.52 -61.965)"><tspan x="0" y="0"> </tspan></text>
    <text id="국내-2" data-name="국내" class="cls-4" transform="translate(287.984 -61.503)"><tspan x="0" y="0">국내</tspan></text>
    <text id="유럽-3" data-name="유럽" class="cls-4" transform="translate(357.984 -61.503)"><tspan x="0" y="0">유럽</tspan></text>
  </g>
  <g id="그룹-3" data-name="그룹" transform="translate(0 281.388)">
    <text id="_2개_시험소_운영" data-name="2개 시험소 운영" class="cls-7" transform="translate(4.438 -20.599)"><tspan x="0" y="0">2개 시험소 운영</tspan></text>
    <text id="_1개_시험소_운영" data-name="1개 시험소 운영" class="cls-7" transform="translate(439.198 -22.129)"><tspan x="0" y="0">1개 시험소 운영</tspan></text>
    <text id="전기안전_172건" data-name="전기안전 172건" class="cls-7" transform="translate(3.448 -147.409)"><tspan x="0" y="0">전기안전 172건</tspan></text>
  </g>
  <g id="그룹_476" data-name="그룹 476" class="cls-2" transform="translate(0 281.388)">
    <g id="그룹-4" data-name="그룹">
      <text id="환경_40건" data-name="환경 40건" class="cls-7" transform="translate(21.198)"><tspan x="0" y="0">환경 40건</tspan></text>
      <text id="에너지_92건" data-name="에너지 92건" class="cls-7" transform="translate(453.678 -3.135)"><tspan x="0" y="0">에너지 92건</tspan></text>
    </g>
  </g>
  <g id="그룹_477" data-name="그룹 477" transform="translate(105.256 64.263)">
    <path id="패스_682" data-name="패스 682" class="cls-8" d="M0,0H14.875"/>
  </g>
  <g id="그룹_478" data-name="그룹 478" transform="translate(105.256 213.497)">
    <path id="패스_683" data-name="패스 683" class="cls-8" d="M0,0H23.423"/>
  </g>
  <g id="그룹_479" data-name="그룹 479" transform="translate(542.266 211.115)">
    <path id="패스_684" data-name="패스 684" class="cls-9" d="M0,0H23.423"/>
  </g>
  <path id="패스_685" data-name="패스 685" class="cls-10" d="M6.5-194.531H109.513v-40.353H6.5Z" transform="translate(0 281.388)"/>
  <path id="패스_686" data-name="패스 686" class="cls-11" d="M6.5-46.323H109.513V-86.8H6.5Z" transform="translate(0 281.388)"/>
  <path id="패스_687" data-name="패스 687" class="cls-12" d="M441.251-46.323H544.266V-86.8H441.251Z" transform="translate(0 281.388)"/>
  <path id="패스_688" data-name="패스 688" class="cls-13" d="M.25-197.591H102.895v-37.042H.25Z" transform="translate(0 281.388)"/>
  <g id="그룹_480" data-name="그룹 480" class="cls-2" transform="translate(0 281.388)">
    <path id="패스_689" data-name="패스 689" class="cls-14" d="M.25-197.592H102.895v-37.042H.25Z"/>
  </g>
  <path id="패스_691" data-name="패스 691" class="cls-13" d="M.25-49.512H102.895V-86.554H.25Z" transform="translate(0 281.388)"/>
  <g id="그룹_481" data-name="그룹 481" class="cls-2" transform="translate(0 281.388)">
    <path id="패스_692" data-name="패스 692" class="cls-14" d="M.25-49.512H102.895V-86.554H.25Z"/>
  </g>
  <path id="패스_694" data-name="패스 694" class="cls-15" d="M435-49.512H537.649V-86.554H435Z" transform="translate(0 281.388)"/>
  <g id="그룹-5" data-name="그룹" transform="translate(0 281.388)">
    <text id="안정성" class="cls-16" transform="translate(31.173 -210.667)"><tspan x="0" y="0">안정성</tspan></text>
    <text id="환경" class="cls-16" transform="translate(37.923 -62.587)"><tspan x="0" y="0">환경</tspan></text>
    <text id="에너지" class="cls-16" transform="translate(465.933 -62.587)"><tspan x="0" y="0">에너지</tspan></text>
  </g>
  <path id="패스_695" data-name="패스 695" class="cls-3" d="M565.939-35.535H698.624v-65H565.939Z" transform="translate(0 281.388)"/>
  <g id="그룹-6" data-name="그룹" transform="translate(0 281.388)">
    <text id="에너지-2" data-name="에너지" class="cls-4" transform="translate(579.329 -71.873)"><tspan x="0" y="0">에너지</tspan></text>
    <text id="_15" data-name=" " class="cls-4" transform="translate(617.549 -71.873)"><tspan x="0" y="0"> </tspan></text>
    <text id="_16" data-name=" " class="cls-5" transform="translate(621.049 -71.873)"><tspan x="0" y="0"> </tspan></text>
    <text id="효율" class="cls-4" transform="translate(585.671 -51.867)"><tspan x="0" y="0">효율</tspan></text>
    <text id="국내-3" data-name="국내" class="cls-4" transform="translate(655.853 -61.863)"><tspan x="0" y="0">국내</tspan></text>
  </g>
  <g id="그룹_482" data-name="그룹 482" transform="translate(141.882 71.708)">
    <path id="패스_696" data-name="패스 696" class="cls-17" d="M0,0H683.624"/>
  </g>
  <g id="그룹_483" data-name="그룹 483" transform="translate(140.381 71.708)">
    <path id="패스_697" data-name="패스 697" class="cls-18" d="M0,0H0M685.875,0h0"/>
  </g>
  <g id="그룹_484" data-name="그룹 484" transform="translate(198.843 17.174)">
    <path id="패스_698" data-name="패스 698" class="cls-19" d="M0,0V41.114"/>
  </g>
  <g id="그룹_485" data-name="그룹 485" transform="translate(198.843 15.679)">
    <path id="패스_699" data-name="패스 699" class="cls-20" d="M0,0H0M0,43.356H0"/>
  </g>
  <g id="그룹_486" data-name="그룹 486" transform="translate(198.843 86.932)">
    <path id="패스_700" data-name="패스 700" class="cls-19" d="M0,0V41.114"/>
  </g>
  <g id="그룹_487" data-name="그룹 487" transform="translate(198.843 85.437)">
    <path id="패스_701" data-name="패스 701" class="cls-20" d="M0,0H0M0,43.356H0"/>
  </g>
  <g id="그룹_488" data-name="그룹 488" transform="translate(198.843 193.08)">
    <path id="패스_702" data-name="패스 702" class="cls-19" d="M0,0V41.114"/>
  </g>
  <g id="그룹_489" data-name="그룹 489" transform="translate(198.843 191.584)">
    <path id="패스_703" data-name="패스 703" class="cls-20" d="M0,0H0M0,43.356H0"/>
  </g>
  <g id="그룹_490" data-name="그룹 490" transform="translate(269.474 86.932)">
    <path id="패스_704" data-name="패스 704" class="cls-19" d="M0,0V41.114"/>
  </g>
  <g id="그룹_491" data-name="그룹 491" transform="translate(269.474 85.437)">
    <path id="패스_705" data-name="패스 705" class="cls-20" d="M0,0H0M0,43.356H0"/>
  </g>
  <g id="그룹_492" data-name="그룹 492" transform="translate(269.474 193.08)">
    <path id="패스_706" data-name="패스 706" class="cls-19" d="M0,0V41.114"/>
  </g>
  <g id="그룹_493" data-name="그룹 493" transform="translate(269.474 191.584)">
    <path id="패스_707" data-name="패스 707" class="cls-20" d="M0,0H0M0,43.356H0"/>
  </g>
  <g id="그룹_494" data-name="그룹 494" transform="translate(340.106 86.932)">
    <path id="패스_708" data-name="패스 708" class="cls-19" d="M0,0V41.114"/>
  </g>
  <g id="그룹_495" data-name="그룹 495" transform="translate(340.106 85.437)">
    <path id="패스_709" data-name="패스 709" class="cls-20" d="M0,0H0M0,43.356H0"/>
  </g>
  <g id="그룹_496" data-name="그룹 496" transform="translate(340.106 193.08)">
    <path id="패스_710" data-name="패스 710" class="cls-19" d="M0,0V41.114"/>
  </g>
  <g id="그룹_497" data-name="그룹 497" transform="translate(340.106 191.584)">
    <path id="패스_711" data-name="패스 711" class="cls-20" d="M0,0H0M0,43.356H0"/>
  </g>
  <g id="그룹_498" data-name="그룹 498" transform="translate(410.738 86.932)">
    <path id="패스_712" data-name="패스 712" class="cls-19" d="M0,0V41.114"/>
  </g>
  <g id="그룹_499" data-name="그룹 499" transform="translate(410.738 85.437)">
    <path id="패스_713" data-name="패스 713" class="cls-20" d="M0,0H0M0,43.356H0"/>
  </g>
  <g id="그룹_500" data-name="그룹 500" transform="translate(481.369 86.932)">
    <path id="패스_714" data-name="패스 714" class="cls-19" d="M0,0V41.114"/>
  </g>
  <g id="그룹_501" data-name="그룹 501" transform="translate(481.369 85.437)">
    <path id="패스_715" data-name="패스 715" class="cls-20" d="M0,0H0M0,43.356H0"/>
  </g>
  <g id="그룹_502" data-name="그룹 502" transform="translate(552.001 86.932)">
    <path id="패스_716" data-name="패스 716" class="cls-19" d="M0,0V41.114"/>
  </g>
  <g id="그룹_503" data-name="그룹 503" transform="translate(552.001 85.437)">
    <path id="패스_717" data-name="패스 717" class="cls-20" d="M0,0H0M0,43.356H0"/>
  </g>
  <g id="그룹_504" data-name="그룹 504" transform="translate(622.632 86.932)">
    <path id="패스_718" data-name="패스 718" class="cls-19" d="M0,0V41.114"/>
  </g>
  <g id="그룹_505" data-name="그룹 505" transform="translate(622.632 85.437)">
    <path id="패스_719" data-name="패스 719" class="cls-20" d="M0,0H0M0,43.356H0"/>
  </g>
  <g id="그룹_506" data-name="그룹 506" transform="translate(632.547 193.547)">
    <path id="패스_720" data-name="패스 720" class="cls-19" d="M0,0V41.114"/>
  </g>
  <g id="그룹_507" data-name="그룹 507" transform="translate(632.547 192.052)">
    <path id="패스_721" data-name="패스 721" class="cls-20" d="M0,0H0M0,43.356H0"/>
  </g>
  <g id="그룹_508" data-name="그룹 508" transform="translate(693.264 86.932)">
    <path id="패스_722" data-name="패스 722" class="cls-19" d="M0,0V41.114"/>
  </g>
  <g id="그룹_509" data-name="그룹 509" transform="translate(693.264 85.437)">
    <path id="패스_723" data-name="패스 723" class="cls-20" d="M0,0H0M0,43.356H0"/>
  </g>
  <g id="그룹_510" data-name="그룹 510" transform="translate(763.896 86.932)">
    <path id="패스_724" data-name="패스 724" class="cls-19" d="M0,0V41.114"/>
  </g>
  <g id="그룹_511" data-name="그룹 511" transform="translate(763.896 85.437)">
    <path id="패스_725" data-name="패스 725" class="cls-20" d="M0,0H0M0,43.356H0"/>
  </g>
  <g id="그룹_512" data-name="그룹 512" transform="translate(269.474 17.174)">
    <path id="패스_726" data-name="패스 726" class="cls-19" d="M0,0V41.114"/>
  </g>
  <g id="그룹_513" data-name="그룹 513" transform="translate(269.474 15.679)">
    <path id="패스_727" data-name="패스 727" class="cls-20" d="M0,0H0M0,43.356H0"/>
  </g>
  <g id="그룹_514" data-name="그룹 514" transform="translate(340.106 17.174)">
    <path id="패스_728" data-name="패스 728" class="cls-19" d="M0,0V41.114"/>
  </g>
  <g id="그룹_515" data-name="그룹 515" transform="translate(340.106 15.679)">
    <path id="패스_729" data-name="패스 729" class="cls-20" d="M0,0H0M0,43.356H0"/>
  </g>
  <g id="그룹_516" data-name="그룹 516" transform="translate(410.738 17.174)">
    <path id="패스_730" data-name="패스 730" class="cls-19" d="M0,0V41.114"/>
  </g>
  <g id="그룹_517" data-name="그룹 517" transform="translate(410.738 15.679)">
    <path id="패스_731" data-name="패스 731" class="cls-20" d="M0,0H0M0,43.356H0"/>
  </g>
  <g id="그룹_518" data-name="그룹 518" transform="translate(481.369 17.174)">
    <path id="패스_732" data-name="패스 732" class="cls-19" d="M0,0V41.114"/>
  </g>
  <g id="그룹_519" data-name="그룹 519" transform="translate(481.369 15.679)">
    <path id="패스_733" data-name="패스 733" class="cls-20" d="M0,0H0M0,43.356H0"/>
  </g>
  <g id="그룹_520" data-name="그룹 520" transform="translate(552.001 17.174)">
    <path id="패스_734" data-name="패스 734" class="cls-19" d="M0,0V41.114"/>
  </g>
  <g id="그룹_521" data-name="그룹 521" transform="translate(552.001 15.679)">
    <path id="패스_735" data-name="패스 735" class="cls-20" d="M0,0H0M0,43.356H0"/>
  </g>
  <g id="그룹_522" data-name="그룹 522" transform="translate(622.632 17.174)">
    <path id="패스_736" data-name="패스 736" class="cls-19" d="M0,0V41.114"/>
  </g>
  <g id="그룹_523" data-name="그룹 523" transform="translate(622.632 15.679)">
    <path id="패스_737" data-name="패스 737" class="cls-20" d="M0,0H0M0,43.356H0"/>
  </g>
  <g id="그룹_524" data-name="그룹 524" transform="translate(693.264 17.174)">
    <path id="패스_738" data-name="패스 738" class="cls-19" d="M0,0V41.114"/>
  </g>
  <g id="그룹_525" data-name="그룹 525" transform="translate(693.264 15.679)">
    <path id="패스_739" data-name="패스 739" class="cls-20" d="M0,0H0M0,43.356H0"/>
  </g>
  <g id="그룹_526" data-name="그룹 526" transform="translate(763.896 17.174)">
    <path id="패스_740" data-name="패스 740" class="cls-19" d="M0,0V41.114"/>
  </g>
  <g id="그룹_527" data-name="그룹 527" transform="translate(763.896 15.679)">
    <path id="패스_741" data-name="패스 741" class="cls-20" d="M0,0H0M0,43.356H0"/>
  </g>
</svg>
