<svg id="구성_요소_66_1" data-name="구성 요소 66 – 1" xmlns="http://www.w3.org/2000/svg" xmlns:xlink="http://www.w3.org/1999/xlink" width="836.506" height="281.388" viewBox="0 0 836.506 281.388">
  <defs>
    <style>
      .cls-1, .cls-14, .cls-17, .cls-18, .cls-19, .cls-20, .cls-3, .cls-8, .cls-9 {
        fill: none;
      }

      .cls-2 {
        clip-path: url(#clip-path);
      }

      .cls-3 {
        stroke: #1e498b;
      }

      .cls-14, .cls-15, .cls-17, .cls-18, .cls-19, .cls-20, .cls-3, .cls-9 {
        stroke-width: 0.5px;
      }

      .cls-4, .cls-5, .cls-6, .cls-7 {
        fill: #1e2323;
      }

      .cls-5, .cls-6 {
        font-size: 14px;
        font-family: NotoSansKR-Light, Noto Sans KR;
        font-weight: 300;
      }

      .cls-5 {
        letter-spacing: -0.015em;
      }

      .cls-7 {
        font-size: 15px;
        font-family: NotoSansKR-Regular, Noto Sans KR;
        letter-spacing: -0.02em;
      }

      .cls-19, .cls-20, .cls-8, .cls-9 {
        stroke: #2b2e34;
      }

      .cls-8 {
        stroke-width: 0.283px;
      }

      .cls-10 {
        fill: #1e498b;
      }

      .cls-11 {
        fill: #1393d1;
      }

      .cls-12 {
        fill: #a7d2e6;
      }

      .cls-13, .cls-15 {
        fill: #fff;
      }

      .cls-14, .cls-15 {
        stroke: #303c72;
      }

      .cls-16 {
        fill: #303c72;
      }

      .cls-17, .cls-18 {
        stroke: #42454a;
      }

      .cls-17, .cls-18, .cls-19, .cls-20 {
        stroke-linecap: round;
        stroke-linejoin: round;
      }

      .cls-17 {
        stroke-dasharray: 0 1.501;
      }

      .cls-19 {
        stroke-dasharray: 0 1.495;
      }
    </style>
    <clipPath id="clip-path">
      <path id="패스_677" data-name="패스 677" class="cls-1" d="M0,0H836.506V-281.388H0Z"/>
    </clipPath>
  </defs>
  <g id="그룹_473" data-name="그룹 473" class="cls-2" transform="translate(0 281.388)">
    <path id="패스_676" data-name="패스 676" class="cls-3" d="M130.523-138.223H836.256V-281.139H130.523Z"/>
  </g>
  <path id="패스_789" data-name="패스 789" class="cls-4" d="M1.484,0h.84V-3.444l2-2.31L7.63,0H8.6L4.886-6.412l3.248-3.794H7.14L2.352-4.662H2.324v-5.544h-.84Z" transform="translate(142.758 43.517)"/>
  <path id="패스_790" data-name="패스 790" class="cls-4" d="M5.068.182C7.56.182,9.31-1.89,9.31-5.138s-1.75-5.25-4.242-5.25C2.6-10.388.84-8.372.84-5.138S2.6.182,5.068.182Zm0-.756c-2.016,0-3.346-1.792-3.346-4.564s1.33-4.494,3.346-4.494S8.442-7.91,8.442-5.138,7.1-.574,5.068-.574ZM11.438,0h5.488V-.728H12.278v-9.478h-.84Zm8.05-4.1.63-1.848c.406-1.19.756-2.268,1.106-3.5h.056c.364,1.232.7,2.31,1.12,3.5L23.016-4.1ZM24.374,0h.9L21.7-10.206h-.868L17.262,0h.84l1.162-3.43H23.24Zm4.97.182c2,0,3.3-1.2,3.3-2.772s-.98-2.2-2.142-2.716L28.98-5.978c-.742-.322-1.736-.756-1.736-1.918,0-1.05.868-1.736,2.17-1.736A3.275,3.275,0,0,1,31.822-8.61l.476-.546a3.9,3.9,0,0,0-2.884-1.232c-1.736,0-3.024,1.05-3.024,2.562a2.831,2.831,0,0,0,2.072,2.548l1.526.672c1.008.448,1.806.84,1.806,2.072,0,1.162-.938,1.96-2.45,1.96A3.93,3.93,0,0,1,26.39-1.932l-.518.588A4.542,4.542,0,0,0,29.344.182Z" transform="translate(151.018 43.517)"/>
  <path id="패스_791" data-name="패스 791" class="cls-4" d="M1.484,0h.84V-3.444l2-2.31L7.63,0H8.6L4.886-6.412l3.248-3.794H7.14L2.352-4.662H2.324v-5.544h-.84Z" transform="translate(206.64 33.521)"/>
  <path id="패스_792" data-name="패스 792" class="cls-4" d="M5.152.182A3.824,3.824,0,0,0,8.2-1.274l-.476-.532A3.264,3.264,0,0,1,5.194-.574c-2.142,0-3.472-1.778-3.472-4.564,0-2.758,1.358-4.494,3.514-4.494A2.869,2.869,0,0,1,7.448-8.61l.476-.546a3.53,3.53,0,0,0-2.688-1.232c-2.59,0-4.4,2.016-4.4,5.278S2.632.182,5.152.182Zm7.672-9.436H15.3v-.63H9.534v.63H12.11v1.442A6.707,6.707,0,0,1,9.254-2.17l.49.56a6.816,6.816,0,0,0,2.73-4.228A6.427,6.427,0,0,0,15.134-1.9l.476-.56a6.328,6.328,0,0,1-2.786-5.348Zm3.808,2.38h-2.31v.644h2.31V.294h.714v-11.41h-.714Zm2.492-4.578V.98h.728V-11.452Zm3.85,7.294c1.652-.378,3.934-1.68,4.69-3.528.77,1.834,3.066,3.122,4.732,3.5l.322-.6C30.94-5.1,28.042-6.818,28.042-8.96v-.616h4.326v-.63H22.96v.63h4.326v.616c0,2.142-2.884,3.892-4.648,4.214Zm5.068,2.814V-4.522H27.3v3.178H22.036v.63h11.27v-.63ZM38.668-9.492h2.926v-.644H34.958v.644H37.94v2.086a6.823,6.823,0,0,1-3.4,5.348L35-1.442a7.68,7.68,0,0,0,3.3-4.34A7.233,7.233,0,0,0,41.538-1.75l.434-.6a6.324,6.324,0,0,1-3.3-5.054Zm7.672,3.22H44.156v-5.18h-.742V.98h.742V-5.642H46.34Z" transform="translate(214.9 33.521)"/>
  <path id="패스_793" data-name="패스 793" class="cls-4" d="M4.942-10.3H4.214v2.478A6.888,6.888,0,0,1,.784-2.3l.462.6A7.55,7.55,0,0,0,4.592-6.062,7.4,7.4,0,0,0,7.938-1.89l.462-.6A6.543,6.543,0,0,1,4.942-7.826Zm5.194-1.148V.994h.742V-11.452Zm10.486,1.414H17.416v-1.554h-.742v1.554H13.468v.616h7.154Zm-5.7,3.612c0-.938.882-1.61,2.114-1.61s2.114.672,2.114,1.61-.882,1.61-2.114,1.61S14.924-5.5,14.924-6.426Zm4.928,0c0-1.33-1.162-2.2-2.814-2.2s-2.814.868-2.814,2.2,1.176,2.2,2.814,2.2S19.852-5.1,19.852-6.426ZM16.38-2.562h6.5V.154h-6.5ZM15.652.784H23.59V-3.178H15.652Zm7.2-12.25V-7.6h-2.38v.63h2.38V-3.92h.742v-7.546Zm13.93,6.328C34.986-5.5,32.1-7.294,32.1-9.548v-.994h-.77v.994c0,2.268-2.856,4.046-4.648,4.41l.336.6a7.043,7.043,0,0,0,4.7-3.64,7.1,7.1,0,0,0,4.718,3.64Zm-4.69,3.78V-4.536h-.742v3.178H26.124v.63H37.408v-.63Z" transform="translate(215.054 53.527)"/>
  <path id="패스_794" data-name="패스 794" class="cls-4" d="M1.484,0h.84V-3.444l2-2.31L7.63,0H8.6L4.886-6.412l3.248-3.794H7.14L2.352-4.662H2.324v-5.544h-.84Z" transform="translate(281.456 33.521)"/>
  <path id="패스_795" data-name="패스 795" class="cls-4" d="M3.654,0h.854V-9.492h3.22v-.714H.448v.714H3.654Zm5.8,0h5.488V-.728H10.29v-9.478H9.45ZM23.114.182a3.824,3.824,0,0,0,3.052-1.456l-.476-.532A3.264,3.264,0,0,1,23.156-.574c-2.142,0-3.472-1.778-3.472-4.564,0-2.758,1.358-4.494,3.514-4.494A2.869,2.869,0,0,1,25.41-8.61l.476-.546A3.53,3.53,0,0,0,23.2-10.388c-2.59,0-4.4,2.016-4.4,5.278S20.594.182,23.114.182ZM28.014,0h.84V-10.206h-.84Zm3.6,0h.84V-4.844H36.5v-.714H32.452V-9.492H37.24v-.714H31.612Z" transform="translate(289.758 33.521)"/>
  <path id="패스_797" data-name="패스 797" class="cls-4" transform="translate(328.146 33.521)"/>
  <path id="패스_796" data-name="패스 796" class="cls-4" d="M3.5.182A4.222,4.222,0,0,0,4.746-.1l-.2-.63a2.61,2.61,0,0,1-.91.21c-.994,0-1.246-.616-1.246-1.554v-4.7H4.536v-.686H2.394V-9.618H1.708l-.1,2.156-1.19.07v.616H1.582v4.648C1.582-.742,2.03.182,3.5.182ZM7.672,0h.966l2.744-7.462h-.826L8.932-2.884c-.238.728-.5,1.484-.742,2.156H8.134c-.252-.672-.5-1.428-.742-2.156L5.782-7.462H4.9Zm7.294.182A2.854,2.854,0,0,0,18.046-2.7a2.66,2.66,0,0,0-2.24-2.632V-5.4a2.547,2.547,0,0,0,1.876-2.52A2.484,2.484,0,0,0,14.924-10.4a3.965,3.965,0,0,0-2.73,1.2l.476.56a3.2,3.2,0,0,1,2.24-1.078,1.787,1.787,0,0,1,1.932,1.848c0,1.218-.784,2.184-3.024,2.184V-5c2.436,0,3.388.924,3.388,2.3A2.125,2.125,0,0,1,14.938-.518,3.491,3.491,0,0,1,12.25-1.764l-.462.546A4.127,4.127,0,0,0,14.966.182Z" transform="translate(295.372 53.527)"/>
  <path id="패스_798" data-name="패스 798" class="cls-4" transform="translate(314.216 53.527)"/>
  <path id="패스_799" data-name="패스 799" class="cls-4" d="M4.928.182c1.834,0,3.5-.952,3.5-4.172v-6.216h-.8v6.174c0,2.66-1.26,3.458-2.7,3.458-1.414,0-2.646-.8-2.646-3.458v-6.174h-.84V-3.99C1.442-.77,3.094.182,4.928.182ZM11.144,0h5.488V-.728H11.984v-9.478h-.84Z" transform="translate(366.94 33.521)"/>
  <path id="패스_801" data-name="패스 801" class="cls-4" transform="translate(383.908 33.521)"/>
  <path id="패스_800" data-name="패스 800" class="cls-4" d="M2.7,0h.952L5.4-6.818c.182-.812.392-1.512.56-2.3H6.02c.182.784.364,1.484.532,2.3L8.358,0H9.31l2.24-10.206h-.826L9.492-4.3c-.224,1.106-.434,2.212-.644,3.332h-.07C8.512-2.086,8.26-3.192,7.994-4.3L6.426-10.206H5.6L4.046-4.3C3.78-3.192,3.514-2.086,3.262-.966H3.206C2.982-2.086,2.758-3.192,2.52-4.3L1.288-10.206H.42Zm10.57,0H18.76V-.728H14.112v-9.478h-.84Zm7.1,0h.84V-10.206h-.84Zm3.6,0H26.39c3.122,0,4.662-2.016,4.662-5.138s-1.54-5.068-4.676-5.068H23.968Zm.84-.714V-9.506h1.484c2.688,0,3.878,1.722,3.878,4.368S28.98-.714,26.292-.714ZM33.166,0h.84V-4.312h1.862c2.268,0,3.668-.98,3.668-3.024,0-2.114-1.414-2.87-3.724-2.87H33.166Zm.84-5.012V-9.506h1.638c2.03,0,3.038.518,3.038,2.17S37.716-5.012,35.7-5.012Z" transform="translate(355.292 53.527)"/>
  <path id="패스_802" data-name="패스 802" class="cls-4" d="M1.484,0h.84V-10.206h-.84Z" transform="translate(415.212 33.521)"/>
  <path id="패스_803" data-name="패스 803" class="cls-4" d="M1.484,0h.8V-6.118c0-1.022-.07-1.974-.112-2.954h.07L3.388-7.028,7.546,0h.868V-10.206h-.8v6.048c0,.994.056,2.016.112,3.024h-.07L6.524-3.192,2.352-10.206H1.484ZM13.342,0H14.2V-9.492h3.22v-.714h-7.28v.714h3.206Zm5.8,0h5.8V-.728H19.978V-5.054h4.046v-.714H19.978V-9.492h4.8v-.714H19.138ZM27.79-9.506h1.946c1.764,0,2.744.546,2.744,2.03s-.98,2.17-2.744,2.17H27.79ZM33.544,0,30.786-4.676a2.685,2.685,0,0,0,2.548-2.8c0-1.988-1.372-2.73-3.4-2.73H26.95V0h.84V-4.606h2.086L32.592,0Zm3.7,0h.854V-9.492h3.22v-.714h-7.28v.714H37.24Zm5.8,0h5.8V-.728H43.876V-5.054h4.046v-.714H43.876V-9.492h4.8v-.714H43.036Zm7.812,0h.84V-3.444l2-2.31L56.994,0h.966L54.25-6.412,57.5-10.206H56.5L51.716-4.662h-.028v-5.544h-.84Z" transform="translate(418.81 33.521)"/>
  <path id="패스_810" data-name="패스 810" class="cls-4" transform="translate(476.896 33.521)"/>
  <path id="패스_811" data-name="패스 811" class="cls-4" transform="translate(480.396 33.521)"/>
  <path id="패스_804" data-name="패스 804" class="cls-4" d="M3.234.182C4.886.182,5.8-.8,5.8-1.946c0-1.442-1.26-1.848-2.408-2.282-.868-.322-1.736-.63-1.736-1.456,0-.672.5-1.288,1.61-1.288A2.861,2.861,0,0,1,5.04-6.3l.42-.56a3.6,3.6,0,0,0-2.17-.8c-1.568,0-2.45.924-2.45,2.016,0,1.288,1.232,1.75,2.338,2.142.868.308,1.806.714,1.806,1.6,0,.77-.574,1.414-1.708,1.414A3.418,3.418,0,0,1,.924-1.428L.49-.84A4.372,4.372,0,0,0,3.234.182Zm5.936,0a4.3,4.3,0,0,0,2.6-1.134H11.8L11.886,0h.686V-4.732c0-1.652-.63-2.926-2.408-2.926a5.175,5.175,0,0,0-2.828.98L7.7-6.09a4.035,4.035,0,0,1,2.352-.854c1.414,0,1.736,1.148,1.708,2.254C8.47-4.312,7-3.528,7-1.876A1.969,1.969,0,0,0,9.17.182ZM9.338-.5A1.346,1.346,0,0,1,7.812-1.918c0-1.148,1.008-1.834,3.948-2.17v2.422A3.677,3.677,0,0,1,9.338-.5Zm7.546.686A4.222,4.222,0,0,0,18.13-.1l-.2-.63a2.61,2.61,0,0,1-.91.21c-.994,0-1.246-.616-1.246-1.554v-4.7H17.92v-.686H15.778V-9.618h-.686l-.1,2.156-1.19.07v.616h1.162v4.648C14.966-.742,15.414.182,16.884.182Zm5.292,0a4.175,4.175,0,0,0,2.38-.728l-.308-.6A3.341,3.341,0,0,1,22.26-.5c-1.61,0-2.688-1.274-2.73-3.094h5.292a3.872,3.872,0,0,0,.042-.588c0-2.184-1.078-3.472-2.884-3.472-1.694,0-3.276,1.512-3.276,3.934C18.7-1.274,20.258.182,22.176.182ZM19.53-4.242a2.657,2.657,0,0,1,2.464-2.716c1.3,0,2.128.91,2.128,2.716ZM27.636.182A1.645,1.645,0,0,0,28.182.1l-.126-.644a1.252,1.252,0,0,1-.266.028c-.2,0-.336-.154-.336-.5V-11.13h-.812V-1.106C26.642-.238,26.964.182,27.636.182Zm3.528,0A1.645,1.645,0,0,0,31.71.1l-.126-.644a1.252,1.252,0,0,1-.266.028c-.2,0-.336-.154-.336-.5V-11.13H30.17V-1.106C30.17-.238,30.492.182,31.164.182ZM33.7,0h.812V-7.462H33.7Zm.42-9.212a.661.661,0,0,0,.686-.644.658.658,0,0,0-.686-.672.65.65,0,0,0-.686.672A.652.652,0,0,0,34.118-9.212ZM39.186.182A4.222,4.222,0,0,0,40.432-.1l-.2-.63a2.61,2.61,0,0,1-.91.21c-.994,0-1.246-.616-1.246-1.554v-4.7h2.142v-.686H38.08V-9.618h-.686l-.1,2.156-1.19.07v.616h1.162v4.648C37.268-.742,37.716.182,39.186.182Zm5.292,0a4.175,4.175,0,0,0,2.38-.728l-.308-.6A3.341,3.341,0,0,1,44.562-.5c-1.61,0-2.688-1.274-2.73-3.094h5.292a3.872,3.872,0,0,0,.042-.588c0-2.184-1.078-3.472-2.884-3.472-1.694,0-3.276,1.512-3.276,3.934C41.006-1.274,42.56.182,44.478.182ZM41.832-4.242A2.657,2.657,0,0,1,44.3-6.958c1.3,0,2.128.91,2.128,2.716ZM51.072,0h6.146V-.728H54.04c-.532,0-1.12.042-1.68.084,2.716-2.534,4.368-4.676,4.368-6.818A2.674,2.674,0,0,0,53.9-10.388a3.752,3.752,0,0,0-2.87,1.47l.518.49A3.04,3.04,0,0,1,53.816-9.7,2.006,2.006,0,0,1,55.9-7.434c0,1.848-1.372,3.948-4.83,6.93Z" transform="translate(416.682 53.527)"/>
  <path id="패스_812" data-name="패스 812" class="cls-4" transform="translate(475.426 53.527)"/>
  <path id="패스_813" data-name="패스 813" class="cls-4" d="M1.484,0h.8V-6.118c0-1.022-.07-1.974-.112-2.954h.07L3.388-7.028,7.546,0h.868V-10.206h-.8v6.048c0,.994.056,2.016.112,3.024h-.07L6.524-3.192,2.352-10.206H1.484Zm9.688,0h5.8V-.728H12.012V-5.054h4.046v-.714H12.012V-9.492h4.8v-.714H11.172Zm7.812,0h.77V-6.468c0-.84-.056-1.96-.1-2.814h.056L20.51-7l2.156,5.908h.672L25.48-7l.8-2.282h.056c-.042.854-.1,1.974-.1,2.814V0h.8V-10.206h-1.12l-2.1,5.866c-.252.742-.49,1.5-.756,2.24H23l-.8-2.24-2.1-5.866h-1.12ZM29.792,0h.84V-3.444l2-2.31L35.938,0H36.9l-3.71-6.412,3.248-3.794h-.994L30.66-4.662h-.028v-5.544h-.84Z" transform="translate(493.318 33.521)"/>
  <path id="패스_817" data-name="패스 817" class="cls-4" d="M5.068.182C7.56.182,9.31-1.89,9.31-5.138s-1.75-5.25-4.242-5.25C2.6-10.388.84-8.372.84-5.138S2.6.182,5.068.182Zm0-.756c-2.016,0-3.346-1.792-3.346-4.564s1.33-4.494,3.346-4.494S8.442-7.91,8.442-5.138,7.1-.574,5.068-.574Z" transform="translate(529.886 33.521)"/>
  <path id="패스_818" data-name="패스 818" class="cls-4" transform="translate(540.05 33.521)"/>
  <path id="패스_814" data-name="패스 814" class="cls-4" d="M5.152.182A3.824,3.824,0,0,0,8.2-1.274l-.476-.532A3.264,3.264,0,0,1,5.194-.574c-2.142,0-3.472-1.778-3.472-4.564,0-2.758,1.358-4.494,3.514-4.494A2.869,2.869,0,0,1,7.448-8.61l.476-.546a3.53,3.53,0,0,0-2.688-1.232c-2.59,0-4.4,2.016-4.4,5.278S2.632.182,5.152.182Z" transform="translate(499.352 53.527)"/>
  <path id="패스_815" data-name="패스 815" class="cls-4" d="M3.654,0h.854V-9.492h3.22v-.714H.448v.714H3.654Zm5.8,0h.84V-4.844h4.046v-.714H10.29V-9.492h4.788v-.714H9.45Zm9.282,0h6.146V-.728H21.7c-.532,0-1.12.042-1.68.084,2.716-2.534,4.368-4.676,4.368-6.818a2.674,2.674,0,0,0-2.828-2.926,3.752,3.752,0,0,0-2.87,1.47l.518.49A3.04,3.04,0,0,1,21.476-9.7a2.006,2.006,0,0,1,2.086,2.268c0,1.848-1.372,3.948-4.83,6.93Z" transform="translate(507.612 53.527)"/>
  <path id="패스_819" data-name="패스 819" class="cls-4" transform="translate(534.016 53.527)"/>
  <path id="패스_820" data-name="패스 820" class="cls-4" d="M1.484,0h.84V-10.206h-.84Zm3.6,0h5.8V-.728H5.922V-5.054H9.968v-.714H5.922V-9.492h4.8v-.714H5.082Zm11.48.182a3.824,3.824,0,0,0,3.052-1.456l-.476-.532A3.264,3.264,0,0,1,16.6-.574c-2.142,0-3.472-1.778-3.472-4.564,0-2.758,1.358-4.494,3.514-4.494A2.869,2.869,0,0,1,18.858-8.61l.476-.546a3.53,3.53,0,0,0-2.688-1.232c-2.59,0-4.4,2.016-4.4,5.278S14.042.182,16.562.182Z" transform="translate(557.354 43.531)"/>
  <path id="패스_822" data-name="패스 822" class="cls-4" d="M4.116-.5C2.562-.5,1.764-1.932,1.638-4.172A3.068,3.068,0,0,1,3.976-5.628c1.456,0,2.072,1.064,2.072,2.548S5.222-.5,4.116-.5Zm2.548-8.9a2.794,2.794,0,0,0-2.17-.98C2.576-10.388.826-8.932.826-4.816c0,3.248,1.3,5,3.276,5A3,3,0,0,0,6.86-3.08c0-2.1-1.036-3.206-2.772-3.206a3.285,3.285,0,0,0-2.464,1.33C1.666-8.47,2.968-9.688,4.508-9.688a2.135,2.135,0,0,1,1.666.812ZM8.568,0h5.264V-.714H11.7v-9.492h-.658A5.859,5.859,0,0,1,9.1-9.562v.546h1.778v8.3H8.568ZM17.43,0h.882c.154-3.99.658-6.538,3.08-9.716v-.49h-6.16v.714H20.4C18.368-6.664,17.6-4.074,17.43,0Zm7.28,0h.882c.154-3.99.658-6.538,3.08-9.716v-.49h-6.16v.714h5.166C25.648-6.664,24.878-4.074,24.71,0Zm8.162.182c1.848,0,3-1.736,3-5.32,0-3.542-1.148-5.25-3-5.25s-3.01,1.708-3.01,5.25C29.862-1.554,31.01.182,32.872.182Zm0-.686c-1.33,0-2.2-1.54-2.2-4.634,0-3.038.868-4.564,2.2-4.564s2.184,1.526,2.184,4.564C35.056-2.044,34.188-.5,32.872-.5Z" transform="translate(580.656 43.531)"/>
  <path id="패스_826" data-name="패스 826" class="cls-4" transform="translate(617.266 43.531)"/>
  <path id="패스_827" data-name="패스 827" class="cls-4" d="M5.152.182A3.824,3.824,0,0,0,8.2-1.274l-.476-.532A3.264,3.264,0,0,1,5.194-.574c-2.142,0-3.472-1.778-3.472-4.564,0-2.758,1.358-4.494,3.514-4.494A2.869,2.869,0,0,1,7.448-8.61l.476-.546a3.53,3.53,0,0,0-2.688-1.232c-2.59,0-4.4,2.016-4.4,5.278S2.632.182,5.152.182Zm4.382-5.32c0-2.772,1.33-4.494,3.346-4.494s3.374,1.722,3.374,4.494c0,2.8-1.344,4.606-3.374,4.606S9.534-2.338,9.534-5.138Zm7.49,6.692a3.228,3.228,0,0,1-1.036.14A2.683,2.683,0,0,1,13.37.154C15.6-.1,17.122-2.114,17.122-5.138c0-3.234-1.75-5.25-4.242-5.25-2.464,0-4.228,2.016-4.228,5.25,0,3.052,1.554,5.068,3.794,5.292A3.545,3.545,0,0,0,15.9,2.436a4.313,4.313,0,0,0,1.3-.182Z" transform="translate(644.476 33.535)"/>
  <path id="패스_830" data-name="패스 830" class="cls-4" d="M5.152.182A3.824,3.824,0,0,0,8.2-1.274l-.476-.532A3.264,3.264,0,0,1,5.194-.574c-2.142,0-3.472-1.778-3.472-4.564,0-2.758,1.358-4.494,3.514-4.494A2.869,2.869,0,0,1,7.448-8.61l.476-.546a3.53,3.53,0,0,0-2.688-1.232c-2.59,0-4.4,2.016-4.4,5.278S2.632.182,5.152.182Z" transform="translate(662.62 33.535)"/>
  <path id="패스_831" data-name="패스 831" class="cls-4" transform="translate(671.398 33.535)"/>
  <path id="패스_828" data-name="패스 828" class="cls-4" d="M2.7,0h.952L5.4-6.818c.182-.812.392-1.512.56-2.3H6.02c.182.784.364,1.484.532,2.3L8.358,0H9.31l2.24-10.206h-.826L9.492-4.3c-.224,1.106-.434,2.212-.644,3.332h-.07C8.512-2.086,8.26-3.192,7.994-4.3L6.426-10.206H5.6L4.046-4.3C3.78-3.192,3.514-2.086,3.262-.966H3.206C2.982-2.086,2.758-3.192,2.52-4.3L1.288-10.206H.42Zm10.57,0h.77V-6.468c0-.84-.056-1.96-.1-2.814H14L14.8-7l2.156,5.908h.672L19.768-7l.8-2.282h.056c-.042.854-.1,1.974-.1,2.814V0h.8V-10.206H20.2L18.1-4.34c-.252.742-.49,1.5-.756,2.24H17.29l-.8-2.24-2.1-5.866h-1.12ZM26.25,0H27.1V-9.492h3.22v-.714h-7.28v.714H26.25Z" transform="translate(642.558 53.542)"/>
  <path id="패스_832" data-name="패스 832" class="cls-4" d="M5.152.182A3.824,3.824,0,0,0,8.2-1.274l-.476-.532A3.264,3.264,0,0,1,5.194-.574c-2.142,0-3.472-1.778-3.472-4.564,0-2.758,1.358-4.494,3.514-4.494A2.869,2.869,0,0,1,7.448-8.61l.476-.546a3.53,3.53,0,0,0-2.688-1.232c-2.59,0-4.4,2.016-4.4,5.278S2.632.182,5.152.182ZM11.97,0h.924l3.318-10.206h-.854L13.538-4.34c-.392,1.232-.658,2.184-1.078,3.416H12.4C12-2.156,11.732-3.108,11.354-4.34L9.52-10.206h-.9Zm9.086.182a3.824,3.824,0,0,0,3.052-1.456l-.476-.532A3.264,3.264,0,0,1,21.1-.574c-2.142,0-3.472-1.778-3.472-4.564,0-2.758,1.358-4.494,3.514-4.494A2.869,2.869,0,0,1,23.352-8.61l.476-.546a3.53,3.53,0,0,0-2.688-1.232c-2.59,0-4.4,2.016-4.4,5.278S18.536.182,21.056.182ZM30.072,0h.952l1.75-6.818c.182-.812.392-1.512.56-2.3h.056c.182.784.364,1.484.532,2.3L35.728,0h.952l2.24-10.206h-.826L36.862-4.3c-.224,1.106-.434,2.212-.644,3.332h-.07c-.266-1.12-.518-2.226-.784-3.332L33.8-10.206H32.97L31.416-4.3c-.266,1.106-.532,2.212-.784,3.332h-.056c-.224-1.12-.448-2.226-.686-3.332l-1.232-5.908H27.79Zm10.57,0h.77V-6.468c0-.84-.056-1.96-.1-2.814h.056L42.168-7l2.156,5.908H45L47.138-7l.8-2.282h.056c-.042.854-.1,1.974-.1,2.814V0h.8V-10.206h-1.12l-2.1,5.866c-.252.742-.49,1.5-.756,2.24H44.66l-.8-2.24-2.1-5.866h-1.12ZM53.62,0h.854V-9.492h3.22v-.714h-7.28v.714H53.62Z" transform="translate(699.104 43.545)"/>
  <path id="패스_835" data-name="패스 835" class="cls-4" d="M1.484,0h.8V-6.118c0-1.022-.07-1.974-.112-2.954h.07L3.388-7.028,7.546,0h.868V-10.206h-.8v6.048c0,.994.056,2.016.112,3.024h-.07L6.524-3.192,2.352-10.206H1.484Z" transform="translate(775.852 33.549)"/>
  <path id="패스_836" data-name="패스 836" class="cls-4" d="M1.484,0h5.8V-.728H2.324V-5.054H6.37v-.714H2.324V-9.492h4.8v-.714H1.484ZM9.3,0h.77V-6.468c0-.84-.056-1.96-.1-2.814h.056L10.822-7l2.156,5.908h.672L15.792-7l.8-2.282h.056c-.042.854-.1,1.974-.1,2.814V0h.8V-10.206h-1.12l-2.1,5.866c-.252.742-.49,1.5-.756,2.24h-.056l-.8-2.24-2.1-5.866H9.3ZM20.1,0h.84V-3.444l2-2.31L26.25,0h.966l-3.71-6.412,3.248-3.794H25.76L20.972-4.662h-.028v-5.544H20.1Z" transform="translate(785.54 33.549)"/>
  <path id="패스_838" data-name="패스 838" class="cls-4" d="M5.068.182C7.56.182,9.31-1.89,9.31-5.138s-1.75-5.25-4.242-5.25C2.6-10.388.84-8.372.84-5.138S2.6.182,5.068.182Zm0-.756c-2.016,0-3.346-1.792-3.346-4.564s1.33-4.494,3.346-4.494S8.442-7.91,8.442-5.138,7.1-.574,5.068-.574Z" transform="translate(812.42 33.549)"/>
  <text id="_" data-name=" " class="cls-5" transform="translate(822.584 33.549)"><tspan x="0" y="0"> </tspan></text>
  <path id="패스_834" data-name="패스 834" class="cls-4" d="M1.484,0h5.8V-.728H2.324V-5.054H6.37v-.714H2.324V-9.492h4.8v-.714H1.484ZM9.3,0h.77V-6.468c0-.84-.056-1.96-.1-2.814h.056L10.822-7l2.156,5.908h.672L15.792-7l.8-2.282h.056c-.042.854-.1,1.974-.1,2.814V0h.8V-10.206h-1.12l-2.1,5.866c-.252.742-.49,1.5-.756,2.24h-.056l-.8-2.24-2.1-5.866H9.3ZM23.772.182a3.824,3.824,0,0,0,3.052-1.456l-.476-.532A3.264,3.264,0,0,1,23.814-.574c-2.142,0-3.472-1.778-3.472-4.564,0-2.758,1.358-4.494,3.514-4.494A2.869,2.869,0,0,1,26.068-8.61l.476-.546a3.53,3.53,0,0,0-2.688-1.232c-2.59,0-4.4,2.016-4.4,5.278S21.252.182,23.772.182ZM33.74,0h.854V-9.492h3.22v-.714h-7.28v.714H33.74Zm5.8,0H42.56c2.3,0,3.808-1.008,3.808-2.982a2.365,2.365,0,0,0-2.184-2.45V-5.5a2.194,2.194,0,0,0,1.568-2.226c0-1.722-1.344-2.478-3.4-2.478H39.536Zm.84-5.754V-9.52h1.792c1.806,0,2.744.5,2.744,1.89,0,1.162-.812,1.876-2.828,1.876Zm0,5.054V-5.082h1.988c2.03,0,3.178.672,3.178,2.1,0,1.582-1.2,2.282-3.178,2.282Zm7.938.7h.77V-6.468c0-.84-.056-1.96-.1-2.814h.056L49.84-7,52-1.092h.672L54.81-7l.8-2.282h.056c-.042.854-.1,1.974-.1,2.814V0h.8V-10.206h-1.12l-2.1,5.866c-.252.742-.49,1.5-.756,2.24h-.056l-.8-2.24-2.1-5.866h-1.12Z" transform="translate(769.888 53.555)"/>
  <path id="패스_805" data-name="패스 805" class="cls-4" d="M12.082-5.67V-6.3h-1.89a16.19,16.19,0,0,0,.336-3.682v-.854H2.254v.63h7.56v.224A14.556,14.556,0,0,1,9.436-6.3H.784v.63H6.048v2.59H1.988v.63H9.912V.98h.742V-3.08H6.79V-5.67Zm4.844-3.584H19.4v-.63H13.636v.63h2.576v1.442A6.707,6.707,0,0,1,13.356-2.17l.49.56a6.816,6.816,0,0,0,2.73-4.228A6.427,6.427,0,0,0,19.236-1.9l.476-.56a6.328,6.328,0,0,1-2.786-5.348Zm3.808,2.38h-2.31v.644h2.31V.294h.714v-11.41h-.714Zm2.492-4.578V.98h.728V-11.452Z" transform="translate(150.752 113.307)"/>
  <path id="패스_806" data-name="패스 806" class="cls-4" d="M12.082-5.67V-6.3h-1.89a16.19,16.19,0,0,0,.336-3.682v-.854H2.254v.63h7.56v.224A14.556,14.556,0,0,1,9.436-6.3H.784v.63H6.048v2.59H1.988v.63H9.912V.98h.742V-3.08H6.79V-5.67ZM14.9-9.884h-.742v7.532H14.9a22.067,22.067,0,0,0,4.55-.434l-.1-.658a21.014,21.014,0,0,1-4.452.42Zm8.33-1.582v5.222H21.07v-4.914h-.714V.308h.714V-5.586h2.156V.98h.714V-11.466Z" transform="translate(221.382 113.307)"/>
  <path id="패스_807" data-name="패스 807" class="cls-4" d="M12.082-5.67V-6.3h-1.89a16.19,16.19,0,0,0,.336-3.682v-.854H2.254v.63h7.56v.224A14.556,14.556,0,0,1,9.436-6.3H.784v.63H6.048v2.59H1.988v.63H9.912V.98h.742V-3.08H6.79V-5.67Zm4.844-3.584H19.4v-.63H13.636v.63h2.576v1.442A6.707,6.707,0,0,1,13.356-2.17l.49.56a6.816,6.816,0,0,0,2.73-4.228A6.427,6.427,0,0,0,19.236-1.9l.476-.56a6.328,6.328,0,0,1-2.786-5.348Zm3.808,2.38h-2.31v.644h2.31V.294h.714v-11.41h-.714Zm2.492-4.578V.98h.728V-11.452ZM28.728,2.7l.5-.252a12.873,12.873,0,0,1-1.848-6.762,12.909,12.909,0,0,1,1.848-6.762l-.5-.266a12.91,12.91,0,0,0-2.044,7.028A12.862,12.862,0,0,0,28.728,2.7ZM34.692.182a3.824,3.824,0,0,0,3.052-1.456l-.476-.532A3.264,3.264,0,0,1,34.734-.574c-2.142,0-3.472-1.778-3.472-4.564,0-2.758,1.358-4.494,3.514-4.494A2.869,2.869,0,0,1,36.988-8.61l.476-.546a3.53,3.53,0,0,0-2.688-1.232c-2.59,0-4.4,2.016-4.4,5.278S32.172.182,34.692.182ZM39.592,0h3.024c2.3,0,3.808-1.008,3.808-2.982a2.365,2.365,0,0,0-2.184-2.45V-5.5a2.194,2.194,0,0,0,1.568-2.226c0-1.722-1.344-2.478-3.4-2.478H39.592Zm.84-5.754V-9.52h1.792c1.806,0,2.744.5,2.744,1.89,0,1.162-.812,1.876-2.828,1.876Zm0,5.054V-5.082H42.42c2.03,0,3.178.672,3.178,2.1C45.6-1.4,44.394-.7,42.42-.7Zm7.476,3.4a12.862,12.862,0,0,0,2.044-7.014,12.91,12.91,0,0,0-2.044-7.028l-.5.266a12.909,12.909,0,0,1,1.848,6.762A12.873,12.873,0,0,1,47.4,2.45Z" transform="translate(279.16 113.307)"/>
  <path id="패스_808" data-name="패스 808" class="cls-4" d="M9.8-7.252H3.052V-8.974H9.8Zm.742-3.934H9.8v1.61H3.052v-1.61H2.31v4.564h8.232Zm1.484,6.538v-.63H.784v.63h5.25V-2.94H2.044v.616h7.84V.98h.742V-2.94H6.776V-4.648Zm2.2-5.53v7.924H19.8v-7.924Zm4.844.616V-2.87H14.952V-9.562Zm3.738-1.89V.98h.742V-11.452Z" transform="translate(362.656 113.307)"/>
  <path id="패스_809" data-name="패스 809" class="cls-4" d="M9.8-7.252H3.052V-8.974H9.8Zm.742-3.934H9.8v1.61H3.052v-1.61H2.31v4.564h8.232Zm1.484,6.538v-.63H.784v.63h5.25V-2.94H2.044v.616h7.84V.98h.742V-2.94H6.776V-4.648Zm2.2-5.53v7.924H19.8v-7.924Zm4.844.616V-2.87H14.952V-9.562Zm3.738-1.89V.98h.742V-11.452Z" transform="translate(433.286 113.307)"/>
  <path id="패스_816" data-name="패스 816" class="cls-4" d="M6.4-10.3c2.072,0,3.514.826,3.514,2.044S8.47-6.2,6.4-6.2,2.9-7.042,2.9-8.26,4.34-10.3,6.4-10.3Zm0,4.718c2.562,0,4.27-1.036,4.27-2.674S8.96-10.92,6.4-10.92,2.142-9.9,2.142-8.26,3.836-5.586,6.4-5.586Zm5.67,1.3H.784v.63H3.892V.966h.756v-4.62H8.162V.966h.756v-4.62h3.15Zm8.47-1.778a31.623,31.623,0,0,1-5.628.392h-.168V-7.756h4.69v-3.15h-5.46v.616H18.7v1.932h-4.69V-5.04h.9a32.594,32.594,0,0,0,5.7-.392ZM22.862.154h-6.5V-1.652h6.5Zm0-2.422h-6.5V-4h-.728V.784H23.59V-4h-.728Zm-.014-9.17V-8.75H20.3v.63h2.548v3.486h.742v-6.8Z" transform="translate(503.916 113.307)"/>
  <path id="패스_823" data-name="패스 823" class="cls-4" d="M12.082-5.67V-6.3h-1.89a16.19,16.19,0,0,0,.336-3.682v-.854H2.254v.63h7.56v.224A14.556,14.556,0,0,1,9.436-6.3H.784v.63H6.048v2.59H1.988v.63H9.912V.98h.742V-3.08H6.79V-5.67Zm4.844-3.584H19.4v-.63H13.636v.63h2.576v1.442A6.707,6.707,0,0,1,13.356-2.17l.49.56a6.816,6.816,0,0,0,2.73-4.228A6.427,6.427,0,0,0,19.236-1.9l.476-.56a6.328,6.328,0,0,1-2.786-5.348Zm3.808,2.38h-2.31v.644h2.31V.294h.714v-11.41h-.714Zm2.492-4.578V.98h.728V-11.452Z" transform="translate(574.546 103.312)"/>
  <path id="패스_824" data-name="패스 824" class="cls-4" transform="translate(600.096 103.312)"/>
  <path id="패스_825" data-name="패스 825" class="cls-4" transform="translate(603.596 103.312)"/>
  <path id="패스_821" data-name="패스 821" class="cls-4" d="M3.388,2.7l.5-.252A12.873,12.873,0,0,1,2.044-4.312a12.909,12.909,0,0,1,1.848-6.762l-.5-.266A12.91,12.91,0,0,0,1.344-4.312,12.862,12.862,0,0,0,3.388,2.7Zm12.18-9.24C13.706-6.846,11-8.3,11-10.206v-.77h-.77v.77c0,1.96-2.674,3.36-4.578,3.668l.322.616c1.75-.336,3.906-1.414,4.648-3.066.742,1.624,2.912,2.73,4.634,3.066Zm.672,2.226H4.984v.63H10.22V.966h.742V-3.682h5.264ZM22.12-2.87H18.886V-6.426H22.12Zm0-4.186H18.886v-3.192h-.714V-2.24H22.82v-8.008h-.7Zm5.334-4.4v5.04H25.382v-4.732h-.714V.308h.714v-6.09h2.072V.98h.714V-11.452Zm9.324,5.278a16.916,16.916,0,0,0,.35-3.7v-.574H31.08v.616H36.4a15.387,15.387,0,0,1-.364,3.584Zm1.414.882a42.373,42.373,0,0,1-4.3.35V-7.756h-.742v2.842c-1.022.028-1.988.028-2.842.028l.1.658a54.006,54.006,0,0,0,7.84-.49ZM33.012-2.94H32.27V.672h7.994V.042H33.012Zm6.846-4.326v-4.186h-.742v9.394h.742V-6.622h1.96v-.644ZM43.232,2.7a12.862,12.862,0,0,0,2.044-7.014,12.91,12.91,0,0,0-2.044-7.028l-.5.266a12.909,12.909,0,0,1,1.848,6.762A12.873,12.873,0,0,1,42.728,2.45Z" transform="translate(564.032 123.317)"/>
  <path id="패스_829" data-name="패스 829" class="cls-4" d="M1.792-6.454c1.82-.28,3.948-1.19,4.62-2.66.672,1.47,2.814,2.38,4.634,2.66l.28-.6C9.394-7.308,6.86-8.442,6.86-10.108v-.126h4.158v-.616H1.834v.616H5.992v.126c0,1.68-2.548,2.8-4.48,3.052ZM9.9-1.2C9.9-.238,8.54.35,6.426.35c-2.142,0-3.5-.588-3.5-1.554s1.358-1.54,3.5-1.54C8.54-2.744,9.9-2.17,9.9-1.2Zm2.128-3.724v-.616H.784v.616h5.25v1.582c-2.422.084-3.85.826-3.85,2.142C2.184.182,3.766.938,6.412.938S10.64.182,10.64-1.2c0-1.316-1.428-2.072-3.864-2.142V-4.928ZM24.752-5.67V-6.3h-1.89A16.19,16.19,0,0,0,23.2-9.982v-.854H14.924v.63h7.56v.224A14.556,14.556,0,0,1,22.106-6.3H13.454v.63h5.264v2.59h-4.06v.63h7.924V.98h.742V-3.08H19.46V-5.67Z" transform="translate(645.19 113.321)"/>
  <path id="패스_833" data-name="패스 833" class="cls-4" d="M1.792-6.454c1.82-.28,3.948-1.19,4.62-2.66.672,1.47,2.814,2.38,4.634,2.66l.28-.6C9.394-7.308,6.86-8.442,6.86-10.108v-.126h4.158v-.616H1.834v.616H5.992v.126c0,1.68-2.548,2.8-4.48,3.052ZM9.9-1.2C9.9-.238,8.54.35,6.426.35c-2.142,0-3.5-.588-3.5-1.554s1.358-1.54,3.5-1.54C8.54-2.744,9.9-2.17,9.9-1.2Zm2.128-3.724v-.616H.784v.616h5.25v1.582c-2.422.084-3.85.826-3.85,2.142C2.184.182,3.766.938,6.412.938S10.64.182,10.64-1.2c0-1.316-1.428-2.072-3.864-2.142V-4.928ZM24.752-5.67V-6.3h-1.89A16.19,16.19,0,0,0,23.2-9.982v-.854H14.924v.63h7.56v.224A14.556,14.556,0,0,1,22.106-6.3H13.454v.63h5.264v2.59h-4.06v.63h7.924V.98h.742V-3.08H19.46V-5.67Z" transform="translate(715.82 113.321)"/>
  <path id="패스_837" data-name="패스 837" class="cls-4" d="M6.4-10.3c2.072,0,3.514.826,3.514,2.044S8.47-6.2,6.4-6.2,2.9-7.042,2.9-8.26,4.34-10.3,6.4-10.3Zm0,4.718c2.562,0,4.27-1.036,4.27-2.674S8.96-10.92,6.4-10.92,2.142-9.9,2.142-8.26,3.836-5.586,6.4-5.586Zm5.67,1.3H.784v.63H3.892V.966h.756v-4.62H8.162V.966h.756v-4.62h3.15Zm8.47-1.778a31.623,31.623,0,0,1-5.628.392h-.168V-7.756h4.69v-3.15h-5.46v.616H18.7v1.932h-4.69V-5.04h.9a32.594,32.594,0,0,0,5.7-.392ZM22.862.154h-6.5V-1.652h6.5Zm0-2.422h-6.5V-4h-.728V.784H23.59V-4h-.728Zm-.014-9.17V-8.75H20.3v.63h2.548v3.486h.742v-6.8Z" transform="translate(786.45 113.321)"/>
  <g id="그룹_474" data-name="그룹 474" transform="translate(130.381 23.121)">
    <path id="패스_678" data-name="패스 678" class="cls-3" d="M0,0H-10V82.713H0"/>
  </g>
  <g id="그룹_475" data-name="그룹 475" class="cls-2" transform="translate(0 281.388)">
    <path id="패스_783" data-name="패스 783" class="cls-4" d="M1.32,0H7.35V-1.14H5.145v-9.855H4.1a6.967,6.967,0,0,1-2.28.78v.87h1.95V-1.14H1.32ZM12.195.2c2.085,0,3.42-1.905,3.42-5.73s-1.335-5.67-3.42-5.67c-2.1,0-3.435,1.845-3.435,5.67S10.095.2,12.195.2Zm0-1.095c-1.26,0-2.1-1.4-2.1-4.635,0-3.21.84-4.56,2.1-4.56,1.245,0,2.085,1.35,2.085,4.56C14.28-2.3,13.44-.9,12.195-.9Zm5.16-9.705V-9.6H21.39a8.148,8.148,0,0,1-4.545,6.945l.72.885a9.41,9.41,0,0,0,5.04-8.835Zm9.72-1.74V-6.93h-1.83v-5.055H24.09V.435h1.155v-6.36h1.83V1.11H28.26V-12.345Zm11.1,1.17H36.96V-8.76a7.069,7.069,0,0,1-3.615,6.075L34.1-1.68a7.477,7.477,0,0,0,3.48-4.515,7.307,7.307,0,0,0,3.465,4.26l.735-.99a6.692,6.692,0,0,1-3.6-5.835Zm5.01-1.17V1.14h1.23V-12.345Zm11.535,1.41H51.435V-12.48h-1.23v1.545H46.92v.99h7.8Zm-5.85,4.08c0-.87.81-1.47,1.95-1.47s1.95.6,1.95,1.47-.81,1.47-1.95,1.47S48.87-5.985,48.87-6.855Zm5.055,0c0-1.44-1.29-2.4-3.105-2.4s-3.12.96-3.12,2.4S48.99-4.47,50.82-4.47,53.925-5.415,53.925-6.855ZM50.445-2.5H56.79V-.06H50.445ZM49.245.93H57.99V-3.48H49.245Zm7.5-13.26v4.08H54.51v1h2.235V-4.2H57.99v-8.13Zm15.27,6.555c-2.355-.42-4.92-2.4-4.92-4.635v-1.035h-1.29v1.035c0,2.235-2.55,4.215-4.9,4.635l.51,1.02A7.253,7.253,0,0,0,66.45-8.5a7.284,7.284,0,0,0,5.04,3.75ZM67.065-1.65V-4.92h-1.23v3.27H60.4v1h12.21v-1ZM83.04-11.01c2.07,0,3.42.645,3.42,1.71s-1.35,1.695-3.42,1.695S79.62-8.25,79.62-9.3,80.985-11.01,83.04-11.01Zm0,4.41c2.85,0,4.71-1.035,4.71-2.7S85.89-12,83.04-12s-4.71,1.035-4.71,2.7S80.19-6.6,83.04-6.6Zm-3.3,3.48H78.51V.81h9.3V-.21H79.74Zm-2.79-2.4v1.005h5.58V-1.8h1.245V-4.515h5.37V-5.52Zm14.9-2.835A2.164,2.164,0,0,1,94.14-10.5a2.142,2.142,0,0,1,2.28,2.145,2.145,2.145,0,0,1-2.28,2.16A2.166,2.166,0,0,1,91.845-8.355Zm8.46-1.05v2.1h-2.9a3.028,3.028,0,0,0,.18-1.05,3.28,3.28,0,0,0-.165-1.05Zm0,3.105v1.92h1.245v-7.965h-1.245v1.935h-3.45a3.581,3.581,0,0,0-2.715-1.125,3.21,3.21,0,0,0-3.465,3.18,3.225,3.225,0,0,0,3.465,3.21A3.5,3.5,0,0,0,96.855-6.3ZM97.1.12c-2.025,0-3.255-.6-3.255-1.605s1.23-1.62,3.255-1.62c2.055,0,3.285.6,3.285,1.62S99.15.12,97.1.12Zm0-4.185c-2.76,0-4.47.945-4.47,2.58S94.335,1.1,97.1,1.1s4.5-.945,4.5-2.58S99.87-4.065,97.1-4.065Z" transform="translate(0.256 -168.005)"/>
  </g>
  <path id="패스_680" data-name="패스 680" class="cls-3" d="M128.679-35.627H403.256v-65H128.679Z" transform="translate(0 281.388)"/>
  <g id="그룹" transform="translate(0 281.388)">
    <path id="패스_839" data-name="패스 839" class="cls-4" d="M2.03-2.9v-6.37H5.936v-.644H1.3v7.658h.77A20.2,20.2,0,0,0,6.79-2.646l-.1-.644A18.485,18.485,0,0,1,2.058-2.9Zm8.526-8.554v5.11H8.414v-4.8H7.7V.294h.714V-5.712h2.142V.966h.728V-11.452Zm3.668,1.372v.63h4.97c-.2,3.066-2.086,5.712-5.5,7.364l.406.616c4-1.974,5.838-5.138,5.838-8.61Zm8.61-1.372V.98h.742V-11.452ZM32.7-7.9v.63h2.814V-2.3h.742v-9.156h-.742V-7.9Zm.658,2.954A4.526,4.526,0,0,1,30.226-8.82v-.9h2.912v-.63H26.53v.63H29.5v.91A4.819,4.819,0,0,1,26.25-4.62l.392.6a5.625,5.625,0,0,0,3.234-3.374A5.424,5.424,0,0,0,32.984-4.34ZM29.232.042V-3.136H28.49V.672h8.148V.042Zm16.254-5.5a28.064,28.064,0,0,1-5.264.308h-.14V-7.42h4.536V-10.7H39.312v.63H43.89v2.044H39.354v3.5h.868A29.326,29.326,0,0,0,45.57-4.83Zm-4.76,3h7.462V1.008h.742v-4.1h-8.2Zm7.462-8.988v1.918H45.5v.63h2.688v1.89H45.5v.63h2.688v2.562h.742v-7.63Z" transform="translate(135.734 -61.965)"/>
    <path id="패스_840" data-name="패스 840" class="cls-4" d="M1.484,0h5.8V-.728H2.324V-5.054H6.37v-.714H2.324V-9.492h4.8v-.714H1.484Zm8.652-9.506h1.946c1.764,0,2.744.546,2.744,2.03s-.98,2.17-2.744,2.17H10.136ZM15.89,0,13.132-4.676a2.685,2.685,0,0,0,2.548-2.8c0-1.988-1.372-2.73-3.4-2.73H9.3V0h.84V-4.606h2.086L14.938,0ZM17.6,0h.84V-4.312H20.3c2.268,0,3.668-.98,3.668-3.024,0-2.114-1.414-2.87-3.724-2.87H17.6Zm.84-5.012V-9.506h1.638c2.03,0,3.038.518,3.038,2.17s-.966,2.324-2.982,2.324Z" transform="translate(218.838 -61.965)"/>
    <text id="_2" data-name=" " class="cls-6" transform="translate(243.52 -61.965)"><tspan x="0" y="0"> </tspan></text>
    <path id="패스_841" data-name="패스 841" class="cls-4" d="M12.082-5.67V-6.3h-1.89a16.19,16.19,0,0,0,.336-3.682v-.854H2.254v.63h7.56v.224A14.556,14.556,0,0,1,9.436-6.3H.784v.63H6.048v2.59H1.988v.63H9.912V.98h.742V-3.08H6.79V-5.67ZM14.9-9.884h-.742v7.532H14.9a22.067,22.067,0,0,0,4.55-.434l-.1-.658a21.014,21.014,0,0,1-4.452.42Zm8.33-1.582v5.222H21.07v-4.914h-.714V.308h.714V-5.586h2.156V.98h.714V-11.466Z" transform="translate(287.984 -61.503)"/>
    <path id="패스_842" data-name="패스 842" class="cls-4" d="M6.4-10.3c2.072,0,3.514.826,3.514,2.044S8.47-6.2,6.4-6.2,2.9-7.042,2.9-8.26,4.34-10.3,6.4-10.3Zm0,4.718c2.562,0,4.27-1.036,4.27-2.674S8.96-10.92,6.4-10.92,2.142-9.9,2.142-8.26,3.836-5.586,6.4-5.586Zm5.67,1.3H.784v.63H3.892V.966h.756v-4.62H8.162V.966h.756v-4.62h3.15Zm8.47-1.778a31.623,31.623,0,0,1-5.628.392h-.168V-7.756h4.69v-3.15h-5.46v.616H18.7v1.932h-4.69V-5.04h.9a32.594,32.594,0,0,0,5.7-.392ZM22.862.154h-6.5V-1.652h6.5Zm0-2.422h-6.5V-4h-.728V.784H23.59V-4h-.728Zm-.014-9.17V-8.75H20.3v.63h2.548v3.486h.742v-6.8Z" transform="translate(357.984 -61.503)"/>
  </g>
  <g id="그룹-2" data-name="그룹" transform="translate(0 281.388)">
    <path id="패스_786" data-name="패스 786" class="cls-4" d="M.66,0H7.575V-1.185H4.53c-.555,0-1.23.06-1.8.105C5.31-3.525,7.035-5.76,7.035-7.95A3.016,3.016,0,0,0,3.84-11.2,4.205,4.205,0,0,0,.6-9.585l.8.78a3.079,3.079,0,0,1,2.28-1.275A1.933,1.933,0,0,1,5.7-7.905c0,1.89-1.59,4.08-5.04,7.1ZM9.33-10.605V-9.6h4.035A8.148,8.148,0,0,1,8.82-2.655l.72.885a9.41,9.41,0,0,0,5.04-8.835Zm9.72-1.74V-6.93H17.22v-5.055H16.065V.435H17.22v-6.36h1.83V1.11h1.185V-12.345Zm11.1,1.17H28.935V-8.76A7.069,7.069,0,0,1,25.32-2.685l.75,1.005a7.477,7.477,0,0,0,3.48-4.515,7.307,7.307,0,0,0,3.465,4.26l.735-.99a6.692,6.692,0,0,1-3.6-5.835Zm5.01-1.17V1.14h1.23V-12.345Zm11.535,1.41H43.41V-12.48H42.18v1.545H38.9v.99h7.8Zm-5.85,4.08c0-.87.81-1.47,1.95-1.47s1.95.6,1.95,1.47-.81,1.47-1.95,1.47S40.845-5.985,40.845-6.855Zm5.055,0c0-1.44-1.29-2.4-3.105-2.4s-3.12.96-3.12,2.4,1.29,2.385,3.12,2.385S45.9-5.415,45.9-6.855ZM42.42-2.5h6.345V-.06H42.42ZM41.22.93h8.745V-3.48H41.22Zm7.5-13.26v4.08H46.485v1H48.72V-4.2h1.245v-8.13ZM63.99-5.775c-2.355-.42-4.92-2.4-4.92-4.635v-1.035H57.78v1.035c0,2.235-2.55,4.215-4.9,4.635l.51,1.02a7.253,7.253,0,0,0,5.04-3.75,7.284,7.284,0,0,0,5.04,3.75ZM59.04-1.65V-4.92H57.81v3.27H52.38v1H64.59v-1Zm15.975-9.36c2.07,0,3.42.645,3.42,1.71s-1.35,1.695-3.42,1.695-3.42-.645-3.42-1.695S72.96-11.01,75.015-11.01Zm0,4.41c2.85,0,4.71-1.035,4.71-2.7s-1.86-2.7-4.71-2.7S70.3-10.965,70.3-9.3,72.165-6.6,75.015-6.6Zm-3.3,3.48h-1.23V.81h9.3V-.21h-8.07Zm-2.79-2.4v1.005H74.5V-1.8H75.75V-4.515h5.37V-5.52Zm14.9-2.835A2.164,2.164,0,0,1,86.115-10.5a2.142,2.142,0,0,1,2.28,2.145,2.145,2.145,0,0,1-2.28,2.16A2.166,2.166,0,0,1,83.82-8.355ZM92.28-9.4v2.1h-2.9a3.028,3.028,0,0,0,.18-1.05A3.28,3.28,0,0,0,89.4-9.4Zm0,3.105v1.92h1.245v-7.965H92.28v1.935H88.83a3.581,3.581,0,0,0-2.715-1.125,3.21,3.21,0,0,0-3.465,3.18,3.225,3.225,0,0,0,3.465,3.21A3.5,3.5,0,0,0,88.83-6.3ZM89.07.12c-2.025,0-3.255-.6-3.255-1.605s1.23-1.62,3.255-1.62c2.055,0,3.285.6,3.285,1.62S91.125.12,89.07.12Zm0-4.185c-2.76,0-4.47.945-4.47,2.58S86.31,1.1,89.07,1.1s4.5-.945,4.5-2.58S91.845-4.065,89.07-4.065Z" transform="translate(4.438 -20.599)"/>
    <path id="패스_788" data-name="패스 788" class="cls-4" d="M1.32,0H7.35V-1.14H5.145v-9.855H4.1a6.967,6.967,0,0,1-2.28.78v.87h1.95V-1.14H1.32ZM9.33-10.605V-9.6h4.035A8.148,8.148,0,0,1,8.82-2.655l.72.885a9.41,9.41,0,0,0,5.04-8.835Zm9.72-1.74V-6.93H17.22v-5.055H16.065V.435H17.22v-6.36h1.83V1.11h1.185V-12.345Zm11.1,1.17H28.935V-8.76A7.069,7.069,0,0,1,25.32-2.685l.75,1.005a7.477,7.477,0,0,0,3.48-4.515,7.307,7.307,0,0,0,3.465,4.26l.735-.99a6.692,6.692,0,0,1-3.6-5.835Zm5.01-1.17V1.14h1.23V-12.345Zm11.535,1.41H43.41V-12.48H42.18v1.545H38.9v.99h7.8Zm-5.85,4.08c0-.87.81-1.47,1.95-1.47s1.95.6,1.95,1.47-.81,1.47-1.95,1.47S40.845-5.985,40.845-6.855Zm5.055,0c0-1.44-1.29-2.4-3.105-2.4s-3.12.96-3.12,2.4,1.29,2.385,3.12,2.385S45.9-5.415,45.9-6.855ZM42.42-2.5h6.345V-.06H42.42ZM41.22.93h8.745V-3.48H41.22Zm7.5-13.26v4.08H46.485v1H48.72V-4.2h1.245v-8.13ZM63.99-5.775c-2.355-.42-4.92-2.4-4.92-4.635v-1.035H57.78v1.035c0,2.235-2.55,4.215-4.9,4.635l.51,1.02a7.253,7.253,0,0,0,5.04-3.75,7.284,7.284,0,0,0,5.04,3.75ZM59.04-1.65V-4.92H57.81v3.27H52.38v1H64.59v-1Zm15.975-9.36c2.07,0,3.42.645,3.42,1.71s-1.35,1.695-3.42,1.695-3.42-.645-3.42-1.695S72.96-11.01,75.015-11.01Zm0,4.41c2.85,0,4.71-1.035,4.71-2.7s-1.86-2.7-4.71-2.7S70.3-10.965,70.3-9.3,72.165-6.6,75.015-6.6Zm-3.3,3.48h-1.23V.81h9.3V-.21h-8.07Zm-2.79-2.4v1.005H74.5V-1.8H75.75V-4.515h5.37V-5.52Zm14.9-2.835A2.164,2.164,0,0,1,86.115-10.5a2.142,2.142,0,0,1,2.28,2.145,2.145,2.145,0,0,1-2.28,2.16A2.166,2.166,0,0,1,83.82-8.355ZM92.28-9.4v2.1h-2.9a3.028,3.028,0,0,0,.18-1.05A3.28,3.28,0,0,0,89.4-9.4Zm0,3.105v1.92h1.245v-7.965H92.28v1.935H88.83a3.581,3.581,0,0,0-2.715-1.125,3.21,3.21,0,0,0-3.465,3.18,3.225,3.225,0,0,0,3.465,3.21A3.5,3.5,0,0,0,88.83-6.3ZM89.07.12c-2.025,0-3.255-.6-3.255-1.605s1.23-1.62,3.255-1.62c2.055,0,3.285.6,3.285,1.62S91.125.12,89.07.12Zm0-4.185c-2.76,0-4.47.945-4.47,2.58S86.31,1.1,89.07,1.1s4.5-.945,4.5-2.58S91.845-4.065,89.07-4.065Z" transform="translate(439.198 -22.129)"/>
    <path id="패스_784" data-name="패스 784" class="cls-4" d="M7.935-8.625v1h2.7v5.145H11.88V-12.33H10.635v3.7Zm.8,3.165A4.619,4.619,0,0,1,5.46-9.585v-.66H8.415v-1H1.23v1h3v.675A4.9,4.9,0,0,1,.84-5.16l.645.96a5.742,5.742,0,0,0,3.39-3.345A5.551,5.551,0,0,0,8.115-4.5ZM4.515-.2v-3.15H3.27V.81h8.985V-.2ZM15.09-10.89v.99h5.055c-.255,3.2-2.055,5.775-5.67,7.5l.66,1c4.47-2.19,6.255-5.61,6.255-9.5ZM24.1-12.345V1.11h1.23V-12.345Zm5.145,4.26a2.207,2.207,0,0,1,2.31-2.25,2.207,2.207,0,0,1,2.31,2.25,2.207,2.207,0,0,1-2.31,2.25A2.207,2.207,0,0,1,29.25-8.085Zm5.82,0A3.3,3.3,0,0,0,31.56-11.4a3.3,3.3,0,0,0-3.51,3.315A3.3,3.3,0,0,0,31.56-4.77,3.3,3.3,0,0,0,35.07-8.085ZM31.1-3.45h-1.23V.81h8.97V-.2H31.1Zm7.14-4.8v-4.1h-1.23v9.9h1.23V-7.23H40.23V-8.25Zm10.2-.375v1h2.7v5.145H52.38V-12.33H51.135v3.7ZM49.23-5.46a4.619,4.619,0,0,1-3.27-4.125v-.66h2.955v-1H41.73v1h3v.675a4.9,4.9,0,0,1-3.39,4.41l.645.96a5.742,5.742,0,0,0,3.39-3.345A5.551,5.551,0,0,0,48.615-4.5ZM45.015-.2v-3.15H43.77V.81h8.985V-.2ZM58.38,0h6.03V-1.14H62.205v-9.855h-1.05a6.967,6.967,0,0,1-2.28.78v.87h1.95V-1.14H58.38Zm9.675,0H69.48c.165-4.3.645-6.855,3.225-10.17v-.825H65.82v1.17h5.325C69-6.825,68.235-4.17,68.055,0ZM73.77,0h6.915V-1.185H77.64c-.555,0-1.23.06-1.8.105,2.58-2.445,4.305-4.68,4.305-6.87a3.016,3.016,0,0,0-3.2-3.255,4.205,4.205,0,0,0-3.24,1.62l.795.78a3.079,3.079,0,0,1,2.28-1.275A1.933,1.933,0,0,1,78.81-7.905c0,1.89-1.59,4.08-5.04,7.1ZM88.86-8.19v1.005h2.91V-2.4h1.245v-9.93H91.77v4.14Zm-6.045-3.1v1.005H87.6c-.27,2.415-2.385,4.335-5.46,5.355l.525.99C86.475-5.2,88.92-7.83,88.92-11.3ZM85.74-.2V-3.4H84.51V.81h8.85V-.2Z" transform="translate(3.448 -147.409)"/>
  </g>
  <g id="그룹_476" data-name="그룹 476" class="cls-2" transform="translate(0 281.388)">
    <g id="그룹-3" data-name="그룹">
      <path id="패스_787" data-name="패스 787" class="cls-4" d="M8.79-11.025H5.55V-12.39H4.32v1.365H1.065v.915H8.79ZM2.955-7.485c0-.72.765-1.185,1.98-1.185C6.12-8.67,6.9-8.2,6.9-7.485c0,.75-.78,1.2-1.965,1.2C3.72-6.285,2.955-6.735,2.955-7.485ZM9.195-4.83a31.576,31.576,0,0,1-3.645.36v-.96c1.545-.165,2.52-.9,2.52-2.055C8.07-8.76,6.81-9.54,4.935-9.54c-1.89,0-3.15.78-3.15,2.055,0,1.155.99,1.905,2.535,2.055v1.02c-1.29.045-2.535.06-3.585.06l.135.99a50.073,50.073,0,0,0,8.415-.585ZM3.945-2.5H2.715V.81H11.7V-.2H3.945ZM11.22-7.65v-4.7H9.99v10.53h1.23V-6.63H13.2V-7.65ZM24.135-8.865v1.8H20.61v1h3.525v1.77H25.38v-8.04H24.135v2.46H21.09a7.718,7.718,0,0,0,.15-1.455H15.165v.99H19.9c-.225,2.325-2.22,4.11-5.43,5.07l.495.975c2.895-.84,4.935-2.415,5.8-4.575ZM20.985.09c-1.98,0-3.24-.615-3.24-1.635s1.26-1.62,3.24-1.62,3.24.615,3.24,1.62S22.965.09,20.985.09Zm0-4.23c-2.715,0-4.455.975-4.455,2.595S18.27,1.05,20.985,1.05,25.44.075,25.44-1.545,23.7-4.14,20.985-4.14Zm10.8.015,2.505-3.75c.315-.54.615-1.08.885-1.62h.06c-.03.57-.09,1.455-.09,1.995v3.375Zm6.12,0H36.45v-6.87H34.935L30.36-3.93v.9h4.785V0H36.45V-3.03H37.9ZM42.255.2c2.085,0,3.42-1.905,3.42-5.73s-1.335-5.67-3.42-5.67S38.82-9.36,38.82-5.535,40.155.2,42.255.2Zm0-1.095c-1.26,0-2.1-1.4-2.1-4.635,0-3.21.84-4.56,2.1-4.56s2.085,1.35,2.085,4.56C44.34-2.3,43.5-.9,42.255-.9Zm11.58-7.29v1.005h2.91V-2.4H57.99v-9.93H56.745v4.14ZM47.79-11.3v1.005h4.785c-.27,2.415-2.385,4.335-5.46,5.355l.525.99C51.45-5.2,53.9-7.83,53.9-11.3ZM50.715-.2V-3.4h-1.23V.81h8.85V-.2Z" transform="translate(21.198)"/>
      <text id="에너지_92건" data-name="에너지 92건" class="cls-7" transform="translate(453.678 -3.135)"><tspan x="0" y="0">에너지 92건</tspan></text>
    </g>
  </g>
  <g id="그룹_477" data-name="그룹 477" transform="translate(105.256 64.263)">
    <path id="패스_682" data-name="패스 682" class="cls-8" d="M0,0H14.875"/>
  </g>
  <g id="그룹_478" data-name="그룹 478" transform="translate(105.256 213.497)">
    <path id="패스_683" data-name="패스 683" class="cls-8" d="M0,0H23.423"/>
  </g>
  <g id="그룹_479" data-name="그룹 479" transform="translate(542.266 211.115)">
    <path id="패스_684" data-name="패스 684" class="cls-9" d="M0,0H23.423"/>
  </g>
  <path id="패스_685" data-name="패스 685" class="cls-10" d="M6.5-194.531H109.513v-40.353H6.5Z" transform="translate(0 281.388)"/>
  <path id="패스_686" data-name="패스 686" class="cls-11" d="M6.5-46.323H109.513V-86.8H6.5Z" transform="translate(0 281.388)"/>
  <path id="패스_687" data-name="패스 687" class="cls-12" d="M441.251-46.323H544.266V-86.8H441.251Z" transform="translate(0 281.388)"/>
  <path id="패스_688" data-name="패스 688" class="cls-13" d="M.25-197.591H102.895v-37.042H.25Z" transform="translate(0 281.388)"/>
  <g id="그룹_480" data-name="그룹 480" class="cls-2" transform="translate(0 281.388)">
    <path id="패스_689" data-name="패스 689" class="cls-14" d="M.25-197.592H102.895v-37.042H.25Z"/>
  </g>
  <path id="패스_691" data-name="패스 691" class="cls-13" d="M.25-49.512H102.895V-86.554H.25Z" transform="translate(0 281.388)"/>
  <g id="그룹_481" data-name="그룹 481" class="cls-2" transform="translate(0 281.388)">
    <path id="패스_692" data-name="패스 692" class="cls-14" d="M.25-49.512H102.895V-86.554H.25Z"/>
  </g>
  <path id="패스_694" data-name="패스 694" class="cls-15" d="M435-49.512H537.649V-86.554H435Z" transform="translate(0 281.388)"/>
  <g id="그룹-4" data-name="그룹" transform="translate(0 281.388)">
    <path id="패스_782" data-name="패스 782" class="cls-16" d="M2.445-8.1A1.981,1.981,0,0,1,4.53-10.14,1.993,1.993,0,0,1,6.63-8.1a2,2,0,0,1-2.1,2.055A1.984,1.984,0,0,1,2.445-8.1Zm5.7,0A3.394,3.394,0,0,0,4.53-11.475,3.39,3.39,0,0,0,.93-8.1a3.4,3.4,0,0,0,3.6,3.39A3.406,3.406,0,0,0,8.145-8.1ZM4.32-3.48H2.76V.9h9.12V-.36H4.32Zm7.02-4.89v-4.02H9.8v9.93H11.34V-7.095h1.92V-8.37Zm10.2-.615v1.26h2.4V-4.32h1.545v-8.07H23.94v3.4Zm.78,3.015a4.442,4.442,0,0,1-3.18-4.08v-.18h2.82v-1.245H14.715v1.245H17.58v.195a4.756,4.756,0,0,1-3.315,4.41l.8,1.23A5.606,5.606,0,0,0,18.4-7.65a5.291,5.291,0,0,0,3.15,2.895ZM20.985-.03c-1.935,0-3.03-.48-3.03-1.365S19.05-2.76,20.985-2.76c1.9,0,3.015.48,3.015,1.365S22.89-.03,20.985-.03Zm0-3.93c-2.835,0-4.575.96-4.575,2.565S18.15,1.17,20.985,1.17c2.82,0,4.56-.945,4.56-2.565S23.805-3.96,20.985-3.96ZM37.44-4.41h1.545v-8H37.44V-9.69H34.695v1.26H37.44ZM35.805-6.165a4.405,4.405,0,0,1-3.18-4.245v-1.26h-1.56v1.335A4.74,4.74,0,0,1,27.7-5.79l.81,1.245a5.6,5.6,0,0,0,3.375-3.27A5.258,5.258,0,0,0,34.98-4.95ZM34.47-.06c-1.92,0-3.015-.5-3.015-1.38S32.55-2.82,34.47-2.82s3.03.495,3.03,1.38S36.39-.06,34.47-.06Zm0-3.975c-2.82,0-4.56.96-4.56,2.595s1.74,2.6,4.56,2.6,4.575-.96,4.575-2.6S37.305-4.035,34.47-4.035Z" transform="translate(31.173 -210.667)"/>
    <path id="패스_785" data-name="패스 785" class="cls-16" d="M8.73-11.175H5.655V-12.45H4.1v1.275H.99v1.14H8.73ZM3.09-7.47c0-.645.69-1.035,1.77-1.035s1.77.39,1.77,1.035c0,.63-.69,1-1.77,1S3.09-6.84,3.09-7.47ZM9.1-4.92c-1.1.165-2.28.255-3.45.33v-.855c1.5-.18,2.43-.93,2.43-2.025,0-1.29-1.275-2.085-3.225-2.085s-3.225.8-3.225,2.085c0,1.11.945,1.845,2.46,2.025v.93c-1.245.03-2.445.045-3.45.045l.18,1.23a48.492,48.492,0,0,0,8.4-.615ZM4.155-2.475H2.61V.9h9.225V-.36H4.155ZM11.37-7.8v-4.605H9.825V-1.8H11.37V-6.525h1.86V-7.8ZM23.94-8.805v1.56H20.655v1.26H23.94v1.56h1.545V-12.39H23.94v2.325H21.15a7.66,7.66,0,0,0,.12-1.35H15.12v1.245h4.5c-.27,2.115-2.025,3.78-5.2,4.665l.615,1.23c2.925-.855,4.92-2.37,5.76-4.53ZM21.045-.12c-1.83,0-2.985-.525-2.985-1.47,0-.93,1.155-1.455,2.985-1.455s3,.525,3,1.455C24.045-.645,22.89-.12,21.045-.12Zm0-4.14c-2.745,0-4.515,1.02-4.515,2.67C16.53.075,18.3,1.1,21.045,1.1s4.53-1.02,4.53-2.685C25.575-3.24,23.79-4.26,21.045-4.26Z" transform="translate(37.923 -62.587)"/>
    <path id="패스_843" data-name="패스 843" class="cls-16" d="M3.81-3.18c-.93,0-1.5-1.215-1.5-3.36s.57-3.345,1.5-3.345,1.5,1.2,1.5,3.345S4.74-3.18,3.81-3.18ZM8.145-7.26H6.69C6.525-9.8,5.43-11.34,3.81-11.34,2.055-11.34.9-9.51.9-6.54S2.055-1.725,3.81-1.725c1.65,0,2.76-1.62,2.895-4.26h1.44V.51h1.44V-12.135H8.145Zm2.715-5.13V1.14h1.47V-12.39ZM16.515-10.9h-1.53v8.85h1.08A31.7,31.7,0,0,0,22.29-2.61l-.18-1.275a29.694,29.694,0,0,1-5.6.54ZM23.97-12.39v4.35H20.04v1.26h3.93V1.185h1.545V-12.39Zm8.79,2.625h3.015V-11.04h-7.59v1.275H31.2v1.29a6.624,6.624,0,0,1-3.5,5.82l.885,1.23a6.987,6.987,0,0,0,3.4-4.26,6.639,6.639,0,0,0,3.42,3.915l.855-1.215a6.111,6.111,0,0,1-3.51-5.49Zm4.59-2.625V1.155h1.56V-12.39Z" transform="translate(465.933 -62.587)"/>
  </g>
  <path id="패스_695" data-name="패스 695" class="cls-3" d="M565.939-35.535H698.624v-65H565.939Z" transform="translate(0 281.388)"/>
  <path id="패스_844" data-name="패스 844" class="cls-4" d="M3.6-2.576c-1.148,0-1.932-1.456-1.932-3.542S2.45-9.66,3.6-9.66,5.53-8.19,5.53-6.118,4.76-2.576,3.6-2.576Zm4.55-3.892H6.23c-.1-2.366-1.106-3.864-2.632-3.864C2.016-10.332.98-8.694.98-6.118S2.016-1.9,3.6-1.9c1.54,0,2.548-1.512,2.632-3.934H8.148V.308h.714V-11.158H8.148Zm2.436-5V.98H11.3V-11.466ZM14.9-2.716v-7.322h-.742v7.966h.91a28.158,28.158,0,0,0,5.684-.5l-.126-.644a25.747,25.747,0,0,1-5.558.5Zm7.966-8.736V-7.21H18.746v.63h4.116V.994H23.6V-11.452Zm7.476,1.96h3.136v-.644H26.53v.644h3.08v2.1a6.829,6.829,0,0,1-3.43,5.348l.462.6a7.639,7.639,0,0,0,3.332-4.312,7.04,7.04,0,0,0,3.4,4l.448-.588a6.175,6.175,0,0,1-3.486-5.054Zm5.138-1.96V.98h.742V-11.452Z" transform="translate(579.329 209.515)"/>
  <path id="패스_845" data-name="패스 845" class="cls-4" transform="translate(617.549 209.515)"/>
  <path id="패스_846" data-name="패스 846" class="cls-4" transform="translate(621.049 209.515)"/>
  <path id="패스_847" data-name="패스 847" class="cls-4" d="M11.382-9.45H6.79v-1.778H6.048V-9.45H1.4v.63h9.982ZM4.662-3.43a8.249,8.249,0,0,0,1.75.168,8.249,8.249,0,0,0,1.75-.168V-1.2h-3.5ZM3.178-5.544c0-1.036,1.274-1.694,3.234-1.694s3.234.658,3.234,1.694-1.274,1.68-3.234,1.68S3.178-4.522,3.178-5.544ZM8.9-1.2V-3.668a2.024,2.024,0,0,0,1.484-1.876c0-1.456-1.512-2.3-3.976-2.3S2.436-7,2.436-5.544A2.024,2.024,0,0,0,3.92-3.668V-1.2H.8v.63h11.27V-1.2ZM19.068-10.71c2.17,0,3.556.6,3.556,1.582s-1.386,1.6-3.556,1.6-3.528-.6-3.528-1.6S16.9-10.71,19.068-10.71Zm0,3.766c2.7,0,4.312-.77,4.312-2.184s-1.61-2.17-4.312-2.17-4.284.77-4.284,2.17S16.38-6.944,19.068-6.944Zm1.568,2.968H17.374V-5.4h3.262ZM24.7-5.4v-.63H13.468v.63h3.178v1.428H14.882v.6h7.6v1.386H14.9V.8h8.722V.182H15.624v-1.6h7.588V-3.976H21.378V-5.4Z" transform="translate(585.671 229.521)"/>
  <path id="패스_848" data-name="패스 848" class="cls-4" d="M12.082-5.67V-6.3h-1.89a16.19,16.19,0,0,0,.336-3.682v-.854H2.254v.63h7.56v.224A14.556,14.556,0,0,1,9.436-6.3H.784v.63H6.048v2.59H1.988v.63H9.912V.98h.742V-3.08H6.79V-5.67ZM14.9-9.884h-.742v7.532H14.9a22.067,22.067,0,0,0,4.55-.434l-.1-.658a21.014,21.014,0,0,1-4.452.42Zm8.33-1.582v5.222H21.07v-4.914h-.714V.308h.714V-5.586h2.156V.98h.714V-11.466Z" transform="translate(655.853 219.525)"/>
  <g id="그룹_482" data-name="그룹 482" transform="translate(141.882 71.708)">
    <path id="패스_696" data-name="패스 696" class="cls-17" d="M0,0H683.624"/>
  </g>
  <g id="그룹_483" data-name="그룹 483" transform="translate(140.381 71.708)">
    <path id="패스_697" data-name="패스 697" class="cls-18" d="M0,0H0M685.875,0h0"/>
  </g>
  <g id="그룹_484" data-name="그룹 484" transform="translate(198.843 17.174)">
    <path id="패스_698" data-name="패스 698" class="cls-19" d="M0,0V41.114"/>
  </g>
  <g id="그룹_485" data-name="그룹 485" transform="translate(198.843 15.679)">
    <path id="패스_699" data-name="패스 699" class="cls-20" d="M0,0H0M0,43.356H0"/>
  </g>
  <g id="그룹_486" data-name="그룹 486" transform="translate(198.843 86.932)">
    <path id="패스_700" data-name="패스 700" class="cls-19" d="M0,0V41.114"/>
  </g>
  <g id="그룹_487" data-name="그룹 487" transform="translate(198.843 85.437)">
    <path id="패스_701" data-name="패스 701" class="cls-20" d="M0,0H0M0,43.356H0"/>
  </g>
  <g id="그룹_488" data-name="그룹 488" transform="translate(198.843 193.08)">
    <path id="패스_702" data-name="패스 702" class="cls-19" d="M0,0V41.114"/>
  </g>
  <g id="그룹_489" data-name="그룹 489" transform="translate(198.843 191.584)">
    <path id="패스_703" data-name="패스 703" class="cls-20" d="M0,0H0M0,43.356H0"/>
  </g>
  <g id="그룹_490" data-name="그룹 490" transform="translate(269.474 86.932)">
    <path id="패스_704" data-name="패스 704" class="cls-19" d="M0,0V41.114"/>
  </g>
  <g id="그룹_491" data-name="그룹 491" transform="translate(269.474 85.437)">
    <path id="패스_705" data-name="패스 705" class="cls-20" d="M0,0H0M0,43.356H0"/>
  </g>
  <g id="그룹_492" data-name="그룹 492" transform="translate(269.474 193.08)">
    <path id="패스_706" data-name="패스 706" class="cls-19" d="M0,0V41.114"/>
  </g>
  <g id="그룹_493" data-name="그룹 493" transform="translate(269.474 191.584)">
    <path id="패스_707" data-name="패스 707" class="cls-20" d="M0,0H0M0,43.356H0"/>
  </g>
  <g id="그룹_494" data-name="그룹 494" transform="translate(340.106 86.932)">
    <path id="패스_708" data-name="패스 708" class="cls-19" d="M0,0V41.114"/>
  </g>
  <g id="그룹_495" data-name="그룹 495" transform="translate(340.106 85.437)">
    <path id="패스_709" data-name="패스 709" class="cls-20" d="M0,0H0M0,43.356H0"/>
  </g>
  <g id="그룹_496" data-name="그룹 496" transform="translate(340.106 193.08)">
    <path id="패스_710" data-name="패스 710" class="cls-19" d="M0,0V41.114"/>
  </g>
  <g id="그룹_497" data-name="그룹 497" transform="translate(340.106 191.584)">
    <path id="패스_711" data-name="패스 711" class="cls-20" d="M0,0H0M0,43.356H0"/>
  </g>
  <g id="그룹_498" data-name="그룹 498" transform="translate(410.738 86.932)">
    <path id="패스_712" data-name="패스 712" class="cls-19" d="M0,0V41.114"/>
  </g>
  <g id="그룹_499" data-name="그룹 499" transform="translate(410.738 85.437)">
    <path id="패스_713" data-name="패스 713" class="cls-20" d="M0,0H0M0,43.356H0"/>
  </g>
  <g id="그룹_500" data-name="그룹 500" transform="translate(481.369 86.932)">
    <path id="패스_714" data-name="패스 714" class="cls-19" d="M0,0V41.114"/>
  </g>
  <g id="그룹_501" data-name="그룹 501" transform="translate(481.369 85.437)">
    <path id="패스_715" data-name="패스 715" class="cls-20" d="M0,0H0M0,43.356H0"/>
  </g>
  <g id="그룹_502" data-name="그룹 502" transform="translate(552.001 86.932)">
    <path id="패스_716" data-name="패스 716" class="cls-19" d="M0,0V41.114"/>
  </g>
  <g id="그룹_503" data-name="그룹 503" transform="translate(552.001 85.437)">
    <path id="패스_717" data-name="패스 717" class="cls-20" d="M0,0H0M0,43.356H0"/>
  </g>
  <g id="그룹_504" data-name="그룹 504" transform="translate(622.632 86.932)">
    <path id="패스_718" data-name="패스 718" class="cls-19" d="M0,0V41.114"/>
  </g>
  <g id="그룹_505" data-name="그룹 505" transform="translate(622.632 85.437)">
    <path id="패스_719" data-name="패스 719" class="cls-20" d="M0,0H0M0,43.356H0"/>
  </g>
  <g id="그룹_506" data-name="그룹 506" transform="translate(632.547 193.547)">
    <path id="패스_720" data-name="패스 720" class="cls-19" d="M0,0V41.114"/>
  </g>
  <g id="그룹_507" data-name="그룹 507" transform="translate(632.547 192.052)">
    <path id="패스_721" data-name="패스 721" class="cls-20" d="M0,0H0M0,43.356H0"/>
  </g>
  <g id="그룹_508" data-name="그룹 508" transform="translate(693.264 86.932)">
    <path id="패스_722" data-name="패스 722" class="cls-19" d="M0,0V41.114"/>
  </g>
  <g id="그룹_509" data-name="그룹 509" transform="translate(693.264 85.437)">
    <path id="패스_723" data-name="패스 723" class="cls-20" d="M0,0H0M0,43.356H0"/>
  </g>
  <g id="그룹_510" data-name="그룹 510" transform="translate(763.896 86.932)">
    <path id="패스_724" data-name="패스 724" class="cls-19" d="M0,0V41.114"/>
  </g>
  <g id="그룹_511" data-name="그룹 511" transform="translate(763.896 85.437)">
    <path id="패스_725" data-name="패스 725" class="cls-20" d="M0,0H0M0,43.356H0"/>
  </g>
  <g id="그룹_512" data-name="그룹 512" transform="translate(269.474 17.174)">
    <path id="패스_726" data-name="패스 726" class="cls-19" d="M0,0V41.114"/>
  </g>
  <g id="그룹_513" data-name="그룹 513" transform="translate(269.474 15.679)">
    <path id="패스_727" data-name="패스 727" class="cls-20" d="M0,0H0M0,43.356H0"/>
  </g>
  <g id="그룹_514" data-name="그룹 514" transform="translate(340.106 17.174)">
    <path id="패스_728" data-name="패스 728" class="cls-19" d="M0,0V41.114"/>
  </g>
  <g id="그룹_515" data-name="그룹 515" transform="translate(340.106 15.679)">
    <path id="패스_729" data-name="패스 729" class="cls-20" d="M0,0H0M0,43.356H0"/>
  </g>
  <g id="그룹_516" data-name="그룹 516" transform="translate(410.738 17.174)">
    <path id="패스_730" data-name="패스 730" class="cls-19" d="M0,0V41.114"/>
  </g>
  <g id="그룹_517" data-name="그룹 517" transform="translate(410.738 15.679)">
    <path id="패스_731" data-name="패스 731" class="cls-20" d="M0,0H0M0,43.356H0"/>
  </g>
  <g id="그룹_518" data-name="그룹 518" transform="translate(481.369 17.174)">
    <path id="패스_732" data-name="패스 732" class="cls-19" d="M0,0V41.114"/>
  </g>
  <g id="그룹_519" data-name="그룹 519" transform="translate(481.369 15.679)">
    <path id="패스_733" data-name="패스 733" class="cls-20" d="M0,0H0M0,43.356H0"/>
  </g>
  <g id="그룹_520" data-name="그룹 520" transform="translate(552.001 17.174)">
    <path id="패스_734" data-name="패스 734" class="cls-19" d="M0,0V41.114"/>
  </g>
  <g id="그룹_521" data-name="그룹 521" transform="translate(552.001 15.679)">
    <path id="패스_735" data-name="패스 735" class="cls-20" d="M0,0H0M0,43.356H0"/>
  </g>
  <g id="그룹_522" data-name="그룹 522" transform="translate(622.632 17.174)">
    <path id="패스_736" data-name="패스 736" class="cls-19" d="M0,0V41.114"/>
  </g>
  <g id="그룹_523" data-name="그룹 523" transform="translate(622.632 15.679)">
    <path id="패스_737" data-name="패스 737" class="cls-20" d="M0,0H0M0,43.356H0"/>
  </g>
  <g id="그룹_524" data-name="그룹 524" transform="translate(693.264 17.174)">
    <path id="패스_738" data-name="패스 738" class="cls-19" d="M0,0V41.114"/>
  </g>
  <g id="그룹_525" data-name="그룹 525" transform="translate(693.264 15.679)">
    <path id="패스_739" data-name="패스 739" class="cls-20" d="M0,0H0M0,43.356H0"/>
  </g>
  <g id="그룹_526" data-name="그룹 526" transform="translate(763.896 17.174)">
    <path id="패스_740" data-name="패스 740" class="cls-19" d="M0,0V41.114"/>
  </g>
  <g id="그룹_527" data-name="그룹 527" transform="translate(763.896 15.679)">
    <path id="패스_741" data-name="패스 741" class="cls-20" d="M0,0H0M0,43.356H0"/>
  </g>
</svg>
