<svg id="구성_요소_51_1" data-name="구성 요소 51 – 1" xmlns="http://www.w3.org/2000/svg" xmlns:xlink="http://www.w3.org/1999/xlink" width="836" height="355.5" viewBox="0 0 836 355.5">
  <defs>
    <style>
      .cls-1, .cls-12, .cls-15, .cls-17, .cls-21, .cls-7, .cls-8 {
        fill: none;
      }

      .cls-2 {
        fill: #f4f6f7;
      }

      .cls-3 {
        fill: #e3e3e3;
      }

      .cls-13, .cls-4, .cls-5 {
        fill: #1e498b;
      }

      .cls-4, .cls-5, .cls-9 {
        font-size: 15px;
        font-family: NotoSansKR-Medium, Noto Sans KR;
        font-weight: 500;
      }

      .cls-10, .cls-4, .cls-9 {
        letter-spacing: -0.02em;
      }

      .cls-6 {
        clip-path: url(#clip-path);
      }

      .cls-7, .cls-8 {
        stroke: #7e8084;
        stroke-linecap: round;
        stroke-linejoin: round;
        stroke-width: 2px;
      }

      .cls-7 {
        stroke-dasharray: 0 6.012;
      }

      .cls-10, .cls-11, .cls-23, .cls-9 {
        fill: #1e2323;
      }

      .cls-10, .cls-11 {
        font-size: 13px;
        font-family: NotoSansKR-Regular, Noto Sans KR;
      }

      .cls-12 {
        stroke: #1e498b;
        stroke-width: 0.5px;
      }

      .cls-14 {
        fill: #2b2e34;
      }

      .cls-15, .cls-16 {
        stroke: #1e2323;
      }

      .cls-15, .cls-16, .cls-17 {
        stroke-miterlimit: 10;
      }

      .cls-16, .cls-18 {
        fill: #fff;
      }

      .cls-17, .cls-21 {
        stroke: #2b2e34;
      }

      .cls-19 {
        fill: #1393d1;
      }

      .cls-20 {
        fill: #90c8df;
      }

      .cls-22 {
        fill: #28669e;
      }
    </style>
    <clipPath id="clip-path">
      <path id="패스_469" data-name="패스 469" class="cls-1" d="M0,0H836V-355.5H0Z"/>
    </clipPath>
  </defs>
  <path id="패스_462" data-name="패스 462" class="cls-2" d="M0,0H836V-355.5H0Z" transform="translate(0 355.5)"/>
  <path id="패스_463" data-name="패스 463" class="cls-3" d="M73.092-82.36H191.564v-77.1H73.092Z" transform="translate(0 355.5)"/>
  <path id="패스_464" data-name="패스 464" class="cls-3" d="M637.114-88.157H755.586v-77.1H637.114Z" transform="translate(0 355.5)"/>
  <path id="패스_465" data-name="패스 465" class="cls-3" d="M334.2-26.44H500.672V-86.666H334.2Z" transform="translate(0 355.5)"/>
  <g id="그룹" transform="translate(0 355.5)">
    <text id="차별화된" class="cls-4" transform="translate(389.526 -245.111)"><tspan x="0" y="0">차별화된</tspan></text>
    <text id="_" data-name=" " class="cls-4" transform="translate(443.826 -245.111)"><tspan x="0" y="0"> </tspan></text>
    <text id="_2" data-name=" " class="cls-5" transform="translate(447.426 -245.111)"><tspan x="0" y="0"> </tspan></text>
    <text id="제품_위생_관리" data-name="제품 위생 관리" class="cls-4" transform="translate(372.126 -222.116)"><tspan x="0" y="0">제품 위생 관리</tspan></text>
    <text id="_3" data-name=" " class="cls-4" transform="translate(461.226 -222.116)"><tspan x="0" y="0"> </tspan></text>
    <text id="_4" data-name=" " class="cls-5" transform="translate(464.826 -222.116)"><tspan x="0" y="0"> </tspan></text>
    <text id="강화" class="cls-4" transform="translate(403.026 -199.121)"><tspan x="0" y="0">강화</tspan></text>
  </g>
  <g id="그룹_311" data-name="그룹 311" class="cls-6" transform="translate(0 355.5)">
    <g id="그룹_308" data-name="그룹 308" transform="translate(257.067 -303.35)">
      <path id="패스_466" data-name="패스 466" class="cls-7" d="M0,0C3.086,85.539,71.759,154.125,156.6,155.711"/>
    </g>
    <g id="그룹_309" data-name="그룹 309" transform="translate(422.687 -147.723)">
      <path id="패스_467" data-name="패스 467" class="cls-7" d="M0,0C84.441-3.164,152.133-72.716,153.679-158.632"/>
    </g>
    <g id="그룹_310" data-name="그룹 310" transform="translate(256.959 -309.36)">
      <path id="패스_468" data-name="패스 468" class="cls-8" d="M0,0H0M159.717,161.75h0M319.434,0h0"/>
    </g>
  </g>
  <text id="제품설계" class="cls-9" transform="translate(105.235 215.926)"><tspan x="0" y="0">제품설계</tspan></text>
  <g id="그룹-2" data-name="그룹" transform="translate(0 355.5)">
    <text id="제품_모듈_설계_및" data-name="제품 모듈 설계 및" class="cls-10" transform="translate(86.235 -107.574)"><tspan x="0" y="0">제품 모듈 설계 및</tspan></text>
    <text id="_5" data-name=" " class="cls-10" transform="translate(178.535 -107.574)"><tspan x="0" y="0"> </tspan></text>
    <text id="_6" data-name=" " class="cls-11" transform="translate(181.655 -107.574)"><tspan x="0" y="0"> </tspan></text>
    <text id="위생_기능_적용" data-name="위생 기능 적용" class="cls-10" transform="translate(93.775 -90.57)"><tspan x="0" y="0">위생 기능 적용</tspan></text>
  </g>
  <text id="제품소재" class="cls-9" transform="translate(390.286 287.783)"><tspan x="0" y="0">제품소재</tspan></text>
  <text id="안전성_강화_신소재_개발" data-name="안전성 강화 신소재 개발" class="cls-10" transform="translate(353.736 314.783)"><tspan x="0" y="0">안전성 강화 신소재 개발</tspan></text>
  <text id="관리서비스" class="cls-9" transform="translate(662.429 210.893)"><tspan x="0" y="0">관리서비스</tspan></text>
  <g id="그룹-3" data-name="그룹" transform="translate(0 355.5)">
    <text id="안전_및_위생" data-name="안전 및 위생" class="cls-10" transform="translate(663.569 -117.607)"><tspan x="0" y="0">안전 및 위생</tspan></text>
    <text id="_7" data-name=" " class="cls-10" transform="translate(729.089 -117.607)"><tspan x="0" y="0"> </tspan></text>
    <text id="_8" data-name=" " class="cls-11" transform="translate(732.209 -117.607)"><tspan x="0" y="0"> </tspan></text>
    <text id="강화_서비스" data-name="강화 서비스" class="cls-10" transform="translate(665.259 -100.603)"><tspan x="0" y="0">강화 서비스</tspan></text>
  </g>
  <g id="그룹_312" data-name="그룹 312" transform="translate(251.398 155.677)">
    <path id="패스_470" data-name="패스 470" class="cls-12" d="M0,0-53.585,35.3"/>
  </g>
  <g id="그룹_314" data-name="그룹 314" class="cls-6" transform="translate(0 355.5)">
    <g id="그룹_313" data-name="그룹 313" transform="translate(197.882 -162.524)">
      <path id="패스_471" data-name="패스 471" class="cls-13" d="M0,0A2,2,0,0,0,1.929-2.067,2,2,0,0,0-.14-4,2,2,0,0,0-2.069-1.929,2,2,0,0,0,0,0"/>
    </g>
  </g>
  <g id="그룹_315" data-name="그룹 315" transform="translate(416.676 241.39)">
    <path id="패스_473" data-name="패스 473" class="cls-12" d="M0,0V20"/>
  </g>
  <g id="그룹_317" data-name="그룹 317" class="cls-6" transform="translate(0 355.5)">
    <g id="그룹_316" data-name="그룹 316" transform="translate(416.676 -92.11)">
      <path id="패스_474" data-name="패스 474" class="cls-13" d="M0,0A2,2,0,0,0,2-2,2,2,0,0,0,0-4,2,2,0,0,0-2-2,2,2,0,0,0,0,0"/>
    </g>
  </g>
  <g id="그룹_318" data-name="그룹 318" transform="translate(577.53 148.943)">
    <path id="패스_476" data-name="패스 476" class="cls-12" d="M0,0,53.585,35.3"/>
  </g>
  <g id="그룹_320" data-name="그룹 320" class="cls-6" transform="translate(0 355.5)">
    <g id="그룹_319" data-name="그룹 319" transform="translate(631.046 -169.258)">
      <path id="패스_477" data-name="패스 477" class="cls-13" d="M0,0A2,2,0,0,1-1.929-2.067,2,2,0,0,1,.14-4,2,2,0,0,1,2.069-1.929,2,2,0,0,1,0,0"/>
    </g>
  </g>
  <g id="그룹_321" data-name="그룹 321" transform="translate(191.564 196.138)">
    <path id="패스_479" data-name="패스 479" class="cls-12" d="M0,0V76.695"/>
  </g>
  <g id="그룹_322" data-name="그룹 322" transform="translate(500.75 268.583)">
    <path id="패스_480" data-name="패스 480" class="cls-12" d="M0,0H-166.549"/>
  </g>
  <g id="그룹_323" data-name="그룹 323" transform="translate(637.364 267.344)">
    <path id="패스_481" data-name="패스 481" class="cls-12" d="M0,0V-77.1"/>
  </g>
  <g id="그룹_326" data-name="그룹 326" class="cls-6" transform="translate(0 355.5)">
    <g id="그룹_324" data-name="그룹 324" transform="translate(395.616 -278.341)">
      <path id="패스_482" data-name="패스 482" class="cls-14" d="M0,0-2.467-2.438V-20.977L0-23.415"/>
    </g>
    <g id="그룹_325" data-name="그룹 325" transform="translate(395.616 -278.341)">
      <path id="패스_483" data-name="패스 483" class="cls-15" d="M0,0-2.467-2.438V-20.977L0-23.415"/>
    </g>
  </g>
  <path id="패스_485" data-name="패스 485" class="cls-14" d="M392.545-276.347h31.473V-322.27H392.545Z" transform="translate(0 355.5)"/>
  <path id="패스_486" data-name="패스 486" class="cls-15" d="M392.545-276.347h31.473V-322.27H392.545Z" transform="translate(0 355.5)"/>
  <g id="그룹_327" data-name="그룹 327" transform="translate(419.912 63.257)">
    <path id="패스_487" data-name="패스 487" class="cls-14" d="M0,0V-18.723H-23.26V0"/>
  </g>
  <g id="그룹_328" data-name="그룹 328" transform="translate(419.912 63.257)">
    <path id="패스_488" data-name="패스 488" class="cls-15" d="M0,0V-18.723H-23.26V0"/>
  </g>
  <g id="그룹_329" data-name="그룹 329" transform="translate(392.28 63.778)">
    <path id="패스_489" data-name="패스 489" class="cls-15" d="M0,0H32"/>
  </g>
  <g id="그룹_330" data-name="그룹 330" transform="translate(402.857 45.362)">
    <path id="패스_490" data-name="패스 490" class="cls-15" d="M0,0V7.451"/>
  </g>
  <g id="그룹_331" data-name="그룹 331" transform="translate(412.705 45.362)">
    <path id="패스_491" data-name="패스 491" class="cls-15" d="M0,0V7.451"/>
  </g>
  <g id="그룹_333" data-name="그룹 333" class="cls-6" transform="translate(0 355.5)">
    <g id="그룹_332" data-name="그룹 332" transform="translate(393.552 -281.617)">
      <path id="패스_492" data-name="패스 492" class="cls-16" d="M0,0-2.467-2.438V-20.977L0-23.415"/>
    </g>
  </g>
  <path id="패스_494" data-name="패스 494" class="cls-16" d="M390.481-279.623h31.473v-45.923H390.481Z" transform="translate(0 355.5)"/>
  <g id="그룹_334" data-name="그룹 334" transform="translate(417.848 59.98)">
    <path id="패스_495" data-name="패스 495" class="cls-16" d="M0,0V-18.723H-23.26V0"/>
  </g>
  <g id="그룹_335" data-name="그룹 335" transform="translate(390.216 60.502)">
    <path id="패스_496" data-name="패스 496" class="cls-15" d="M0,0H32"/>
  </g>
  <g id="그룹_336" data-name="그룹 336" transform="translate(400.793 42.086)">
    <path id="패스_497" data-name="패스 497" class="cls-15" d="M0,0V7.451"/>
  </g>
  <g id="그룹_337" data-name="그룹 337" transform="translate(410.641 42.086)">
    <path id="패스_498" data-name="패스 498" class="cls-15" d="M0,0V7.451"/>
  </g>
  <g id="그룹_340" data-name="그룹 340" class="cls-6" transform="translate(0 355.5)">
    <g id="그룹_338" data-name="그룹 338" transform="translate(442.871 -282.197)">
      <path id="패스_499" data-name="패스 499" class="cls-14" d="M0,0V-19.093l-13.118-3.65-13.118,3.65V0l13.118,11.387L0,0"/>
    </g>
    <g id="그룹_339" data-name="그룹 339" transform="translate(442.871 -282.197)">
      <path id="패스_500" data-name="패스 500" class="cls-17" d="M0,0V-19.093l-13.118-3.65-13.118,3.65V0l13.118,11.387Z"/>
    </g>
  </g>
  <g id="그룹_341" data-name="그룹 341" transform="translate(435.377 64.691)">
    <path id="패스_502" data-name="패스 502" class="cls-14" d="M0,0H-4.078V-4.078H-7.169V0h-4.079V3.091h4.079V7.169h3.091V3.091H0Z"/>
  </g>
  <g id="그룹_342" data-name="그룹 342" transform="translate(435.377 64.691)">
    <path id="패스_503" data-name="패스 503" class="cls-17" d="M0,0H-4.078V-4.078H-7.169V0h-4.079V3.091h4.079V7.169h3.091V3.091H0Z"/>
  </g>
  <g id="그룹_343" data-name="그룹 343" transform="translate(429.238 52.485)">
    <path id="패스_504" data-name="패스 504" class="cls-14" d="M0,0-10.166,2.876l-.364.1V18.494"/>
  </g>
  <g id="그룹_344" data-name="그룹 344" transform="translate(429.238 52.485)">
    <path id="패스_505" data-name="패스 505" class="cls-17" d="M0,0-10.166,2.876l-.364.1V18.494"/>
  </g>
  <g id="그룹_347" data-name="그룹 347" class="cls-6" transform="translate(0 355.5)">
    <g id="그룹_345" data-name="그룹 345" transform="translate(441.851 -285.582)">
      <path id="패스_506" data-name="패스 506" class="cls-18" d="M0,0V-19.093l-13.118-3.65-13.118,3.65V0l13.118,11.387L0,0"/>
    </g>
    <g id="그룹_346" data-name="그룹 346" transform="translate(441.851 -285.582)">
      <path id="패스_507" data-name="패스 507" class="cls-15" d="M0,0V-19.093l-13.118-3.65-13.118,3.65V0l13.118,11.387Z"/>
    </g>
  </g>
  <g id="그룹_348" data-name="그룹 348" transform="translate(434.356 61.306)">
    <path id="패스_509" data-name="패스 509" class="cls-14" d="M0,0H-4.078V-4.078H-7.169V0h-4.079V3.091h4.079V7.169h3.091V3.091H0Z"/>
  </g>
  <g id="그룹_349" data-name="그룹 349" transform="translate(434.356 61.306)">
    <path id="패스_510" data-name="패스 510" class="cls-15" d="M0,0H-4.078V-4.078H-7.169V0h-4.079V3.091h4.079V7.169h3.091V3.091H0Z"/>
  </g>
  <g id="그룹_350" data-name="그룹 350" transform="translate(428.218 49.1)">
    <path id="패스_511" data-name="패스 511" class="cls-16" d="M0,0-10.166,2.876l-.364.1V18.494"/>
  </g>
  <g id="그룹_361" data-name="그룹 361" class="cls-6" transform="translate(0 355.5)">
    <g id="그룹_351" data-name="그룹 351" transform="translate(544.106 -218.481)">
      <path id="패스_512" data-name="패스 512" class="cls-14" d="M0,0,7.017-7.017,10.65-8.174q1.493-3.282,2.984-6.565l-.771-.772q-.387-.385-.772-.772L5.529-13.3,4.494-9.874-2.65-2.65Z"/>
    </g>
    <g id="그룹_352" data-name="그룹 352" transform="translate(544.106 -218.481)">
      <path id="패스_513" data-name="패스 513" class="cls-15" d="M0,0,7.017-7.017,10.65-8.174q1.493-3.282,2.984-6.565l-.771-.772q-.387-.385-.772-.772L5.529-13.3,4.494-9.874-2.65-2.65Z"/>
    </g>
    <g id="그룹_353" data-name="그룹 353" transform="translate(549.544 -192.736)">
      <path id="패스_514" data-name="패스 514" class="cls-19" d="M0,0A27.75,27.75,0,0,0,27.75-27.75,27.75,27.75,0,0,0,0-55.5,27.75,27.75,0,0,0-27.75-27.75,27.75,27.75,0,0,0,0,0"/>
    </g>
    <g id="그룹_354" data-name="그룹 354" transform="translate(551.819 -220.481)">
      <path id="패스_515" data-name="패스 515" class="cls-18" d="M0,0,7.017-7.017,10.65-8.174q1.493-3.282,2.984-6.565l-.771-.772q-.387-.385-.772-.772L5.529-13.3,4.494-9.874-2.65-2.65Z"/>
    </g>
    <g id="그룹_355" data-name="그룹 355" transform="translate(551.819 -220.481)">
      <path id="패스_516" data-name="패스 516" class="cls-15" d="M0,0,7.017-7.017,10.65-8.174q1.493-3.282,2.984-6.565l-.771-.772q-.387-.385-.772-.772L5.529-13.3,4.494-9.874-2.65-2.65Z"/>
    </g>
    <g id="그룹_356" data-name="그룹 356" transform="translate(548.908 -217.71)">
      <path id="패스_517" data-name="패스 517" class="cls-14" d="M0,0-2.1-2.1l-.353-.353L-2.81-2.1-5.385.473-6.857.607l-.18.016-.128.128-4.806,4.806-2.388,2.388-.3.3.249.345,2.358,3.274,3.387,2.471.345.249.3-.3L-5.632,11.9-.826,7.09-.7,6.962l.016-.18q.067-.737.134-1.472L2.027,2.735l.354-.354-.354-.354-2.1-2.1"/>
    </g>
    <g id="그룹_357" data-name="그룹 357" transform="translate(548.908 -217.71)">
      <path id="패스_518" data-name="패스 518" class="cls-15" d="M0,0-2.1-2.1l-.353-.353L-2.81-2.1-5.385.473-6.857.607l-.18.016-.128.128-4.806,4.806-2.388,2.388-.3.3.249.345,2.358,3.274,3.387,2.471.345.249.3-.3L-5.632,11.9-.826,7.09-.7,6.962l.016-.18q.067-.737.134-1.472L2.027,2.735l.354-.354-.354-.354-2.1-2.1"/>
    </g>
    <g id="그룹_358" data-name="그룹 358" transform="translate(551.268 -220.591)">
      <path id="패스_519" data-name="패스 519" class="cls-14" d="M0,0,3.778,3.778c.86.86,2.142.885,3.5.912,1.717.033,3.664.071,5.322,1.73a5.9,5.9,0,0,1,1.815,5.293L10.925,8.224l-.191-.192-.265.056-3.63.764L6.52,8.92l-.068.319-.764,3.63-.056.265.192.191,3.489,3.489A5.9,5.9,0,0,1,4.02,15c-1.659-1.658-1.7-3.6-1.73-5.322-.027-1.357-.052-2.639-.912-3.5L-2.339,2.461-6.055-1.255c-.861-.861-2.143-.886-3.5-.912-1.717-.034-3.663-.072-5.322-1.73A5.9,5.9,0,0,1-16.692-9.19L-13.2-5.7l.192.191.265-.056,3.63-.764L-8.8-6.4l.067-.319.764-3.63.056-.265L-8.1-10.8l-3.489-3.489A5.9,5.9,0,0,1-6.3-12.477c1.658,1.659,1.7,3.605,1.73,5.322.026,1.357.051,2.639.912,3.5L.123.123"/>
    </g>
    <g id="그룹_359" data-name="그룹 359" transform="translate(551.268 -220.591)">
      <path id="패스_520" data-name="패스 520" class="cls-15" d="M0,0,3.778,3.778c.86.86,2.142.885,3.5.912,1.717.033,3.664.071,5.322,1.73a5.9,5.9,0,0,1,1.815,5.293L10.925,8.224l-.191-.192-.265.056-3.63.764L6.52,8.92l-.068.319-.764,3.63-.056.265.192.191,3.489,3.489A5.9,5.9,0,0,1,4.02,15c-1.659-1.658-1.7-3.6-1.73-5.322-.027-1.357-.052-2.639-.912-3.5L-2.339,2.461-6.055-1.255c-.861-.861-2.143-.886-3.5-.912-1.717-.034-3.663-.072-5.322-1.73A5.9,5.9,0,0,1-16.692-9.19L-13.2-5.7l.192.191.265-.056,3.63-.764L-8.8-6.4l.067-.319.764-3.63.056-.265L-8.1-10.8l-3.489-3.489A5.9,5.9,0,0,1-6.3-12.477c1.658,1.659,1.7,3.605,1.73,5.322.026,1.357.051,2.639.912,3.5L.123.123"/>
    </g>
    <g id="그룹_360" data-name="그룹 360" transform="translate(550.012 -221.905)">
      <path id="패스_521" data-name="패스 521" class="cls-16" d="M0,0,3.778,3.778c.86.86,2.142.885,3.5.912,1.717.033,3.664.071,5.322,1.73a5.9,5.9,0,0,1,1.815,5.293L10.925,8.224l-.191-.192-.265.056-3.63.764L6.52,8.92l-.068.319-.764,3.63-.056.265.192.191,3.489,3.489A5.9,5.9,0,0,1,4.02,15c-1.659-1.658-1.7-3.6-1.73-5.322-.027-1.357-.052-2.639-.912-3.5L-2.339,2.461-6.055-1.255c-.861-.861-2.143-.886-3.5-.912-1.717-.034-3.663-.072-5.322-1.73A5.9,5.9,0,0,1-16.692-9.19L-13.2-5.7l.192.191.265-.056,3.63-.764L-8.8-6.4l.067-.319.764-3.63.056-.265L-8.1-10.8l-3.489-3.489A5.9,5.9,0,0,1-6.3-12.477c1.658,1.659,1.7,3.605,1.73,5.322.026,1.357.051,2.639.912,3.5L.123.123"/>
    </g>
  </g>
  <g id="그룹_362" data-name="그룹 362" transform="translate(547.978 137.994)">
    <path id="패스_523" data-name="패스 523" class="cls-15" d="M0,0-8.9,8.9"/>
  </g>
  <g id="그룹_364" data-name="그룹 364" class="cls-6" transform="translate(0 355.5)">
    <g id="그룹_363" data-name="그룹 363" transform="translate(547.652 -219.024)">
      <path id="패스_524" data-name="패스 524" class="cls-16" d="M0,0-2.1-2.1l-.353-.353L-2.81-2.1-5.385.473-6.857.607l-.18.016-.128.128-4.806,4.806-2.388,2.388-.3.3.248.345,2.359,3.274,3.387,2.471.345.249.3-.3L-5.632,11.9-.826,7.09-.7,6.962l.016-.18q.067-.737.134-1.472L2.027,2.735l.354-.354-.354-.354-2.1-2.1"/>
    </g>
  </g>
  <g id="그룹_365" data-name="그룹 365" transform="translate(545.722 137.68)">
    <path id="패스_526" data-name="패스 526" class="cls-15" d="M0,0-8.9,8.9"/>
  </g>
  <g id="그룹_375" data-name="그룹 375" class="cls-6" transform="translate(0 355.5)">
    <g id="그룹_366" data-name="그룹 366" transform="translate(414.313 -124.28)">
      <path id="패스_527" data-name="패스 527" class="cls-20" d="M0,0A27.75,27.75,0,0,0,27.75-27.75,27.75,27.75,0,0,0,0-55.5,27.75,27.75,0,0,0-27.75-27.75,27.75,27.75,0,0,0,0,0"/>
    </g>
    <g id="그룹_367" data-name="그룹 367" transform="translate(404.332 -166.476)">
      <path id="패스_528" data-name="패스 528" class="cls-14" d="M0,0,0,21.127v.894c0,.831,2,2.063,4.461,2.063s4.46-1.232,4.46-2.063V0"/>
    </g>
    <g id="그룹_368" data-name="그룹 368" transform="translate(404.332 -166.476)">
      <path id="패스_529" data-name="패스 529" class="cls-21" d="M0,0,0,21.127v.894c0,.831,2,2.063,4.461,2.063s4.46-1.232,4.46-2.063V0"/>
    </g>
    <g id="그룹_369" data-name="그룹 369" transform="translate(413.25 -164.66)">
      <path id="패스_530" data-name="패스 530" class="cls-14" d="M0,0C0-.655-2-1.187-4.461-1.187S-8.922-.655-8.922,0s2,1.187,4.461,1.187S0,.655,0,0"/>
    </g>
    <g id="그룹_370" data-name="그룹 370" transform="translate(413.25 -164.66)">
      <path id="패스_531" data-name="패스 531" class="cls-21" d="M0,0C0-.655-2-1.187-4.461-1.187S-8.922-.655-8.922,0s2,1.187,4.461,1.187S0,.655,0,0Z"/>
    </g>
    <g id="그룹_371" data-name="그룹 371" transform="translate(411.405 -160.934)">
      <path id="패스_532" data-name="패스 532" class="cls-14" d="M0,0,0,23l0,.973c0,.9,3.4,2.246,7.6,2.246s7.6-1.342,7.6-2.246V0"/>
    </g>
    <g id="그룹_372" data-name="그룹 372" transform="translate(411.405 -160.934)">
      <path id="패스_533" data-name="패스 533" class="cls-21" d="M0,0,0,23l0,.973c0,.9,3.4,2.246,7.6,2.246s7.6-1.342,7.6-2.246V0"/>
    </g>
    <g id="그룹_373" data-name="그룹 373" transform="translate(426.594 -161.134)">
      <path id="패스_534" data-name="패스 534" class="cls-14" d="M0,0C0-.735-3.4-1.331-7.6-1.331s-7.6.6-7.6,1.331,3.4,1.331,7.6,1.331S0,.735,0,0"/>
    </g>
    <g id="그룹_374" data-name="그룹 374" transform="translate(426.594 -161.134)">
      <path id="패스_535" data-name="패스 535" class="cls-21" d="M0,0C0-.735-3.4-1.331-7.6-1.331s-7.6.6-7.6,1.331,3.4,1.331,7.6,1.331S0,.735,0,0Z"/>
    </g>
  </g>
  <g id="그룹_376" data-name="그룹 376" transform="translate(424.757 197.587)">
    <path id="패스_537" data-name="패스 537" class="cls-21" d="M0,0V9.081"/>
  </g>
  <g id="그룹_377" data-name="그룹 377" transform="translate(415.574 197.587)">
    <path id="패스_538" data-name="패스 538" class="cls-21" d="M0,0V4.821"/>
  </g>
  <g id="그룹_378" data-name="그룹 378" transform="translate(415.574 204.313)">
    <path id="패스_539" data-name="패스 539" class="cls-21" d="M0,0V3.139"/>
  </g>
  <g id="그룹_379" data-name="그룹 379" transform="translate(420.14 197.587)">
    <path id="패스_540" data-name="패스 540" class="cls-21" d="M0,0V18.946"/>
  </g>
  <g id="그룹_380" data-name="그룹 380" transform="translate(424.757 208.91)">
    <path id="패스_541" data-name="패스 541" class="cls-21" d="M0,0V4.709"/>
  </g>
  <g id="그룹_389" data-name="그룹 389" class="cls-6" transform="translate(0 355.5)">
    <g id="그룹_381" data-name="그룹 381" transform="translate(402.651 -166.718)">
      <path id="패스_542" data-name="패스 542" class="cls-18" d="M0,0,0,21.127l0,.894c0,.831,2.384,2.062,5.325,2.062s5.325-1.231,5.325-2.062V0"/>
    </g>
    <g id="그룹_382" data-name="그룹 382" transform="translate(402.651 -166.718)">
      <path id="패스_543" data-name="패스 543" class="cls-21" d="M0,0,0,21.127l0,.894c0,.831,2.384,2.062,5.325,2.062s5.325-1.231,5.325-2.062V0"/>
    </g>
    <g id="그룹_383" data-name="그룹 383" transform="translate(413.297 -166.902)">
      <path id="패스_544" data-name="패스 544" class="cls-18" d="M0,0C0-.655-2.384-1.187-5.325-1.187S-10.65-.655-10.65,0s2.384,1.187,5.325,1.187S0,.655,0,0"/>
    </g>
    <g id="그룹_384" data-name="그룹 384" transform="translate(413.297 -166.902)">
      <path id="패스_545" data-name="패스 545" class="cls-21" d="M0,0C0-.655-2.384-1.187-5.325-1.187S-10.65-.655-10.65,0s2.384,1.187,5.325,1.187S0,.655,0,0Z"/>
    </g>
    <g id="그룹_385" data-name="그룹 385" transform="translate(410.724 -161.176)">
      <path id="패스_546" data-name="패스 546" class="cls-18" d="M0,0,0,23l0,.973c0,.9,3.4,2.246,7.6,2.246s7.6-1.342,7.6-2.246V0"/>
    </g>
    <g id="그룹_386" data-name="그룹 386" transform="translate(410.724 -161.176)">
      <path id="패스_547" data-name="패스 547" class="cls-21" d="M0,0,0,23l0,.973c0,.9,3.4,2.246,7.6,2.246s7.6-1.342,7.6-2.246V0"/>
    </g>
    <g id="그룹_387" data-name="그룹 387" transform="translate(425.912 -161.376)">
      <path id="패스_548" data-name="패스 548" class="cls-18" d="M0,0C0-.735-3.4-1.331-7.6-1.331s-7.6.6-7.6,1.331,3.4,1.331,7.6,1.331S0,.735,0,0"/>
    </g>
    <g id="그룹_388" data-name="그룹 388" transform="translate(425.912 -161.376)">
      <path id="패스_549" data-name="패스 549" class="cls-21" d="M0,0C0-.735-3.4-1.331-7.6-1.331s-7.6.6-7.6,1.331,3.4,1.331,7.6,1.331S0,.735,0,0Z"/>
    </g>
  </g>
  <g id="그룹_390" data-name="그룹 390" transform="translate(423.076 195.345)">
    <path id="패스_551" data-name="패스 551" class="cls-21" d="M0,0V9.081"/>
  </g>
  <g id="그룹_391" data-name="그룹 391" transform="translate(413.893 195.345)">
    <path id="패스_552" data-name="패스 552" class="cls-21" d="M0,0V4.821"/>
  </g>
  <g id="그룹_392" data-name="그룹 392" transform="translate(413.893 202.071)">
    <path id="패스_553" data-name="패스 553" class="cls-21" d="M0,0V3.139"/>
  </g>
  <g id="그룹_393" data-name="그룹 393" transform="translate(418.458 195.345)">
    <path id="패스_554" data-name="패스 554" class="cls-21" d="M0,0V18.946"/>
  </g>
  <g id="그룹_394" data-name="그룹 394" transform="translate(423.076 206.667)">
    <path id="패스_555" data-name="패스 555" class="cls-21" d="M0,0V4.708"/>
  </g>
  <g id="그룹_402" data-name="그룹 402" class="cls-6" transform="translate(0 355.5)">
    <g id="그룹_395" data-name="그룹 395" transform="translate(279.286 -195.862)">
      <path id="패스_556" data-name="패스 556" class="cls-22" d="M0,0A27.75,27.75,0,0,0,27.75-27.75,27.75,27.75,0,0,0,0-55.5,27.75,27.75,0,0,0-27.75-27.75,27.75,27.75,0,0,0,0,0"/>
    </g>
    <g id="그룹_396" data-name="그룹 396" transform="translate(293.896 -214.929)">
      <path id="패스_557" data-name="패스 557" class="cls-23" d="M0,0V-16.5l-14.293-8.251L-28.585-16.5V0l14.292,8.252L0,0"/>
    </g>
    <g id="그룹_397" data-name="그룹 397" transform="translate(293.896 -214.929)">
      <path id="패스_558" data-name="패스 558" class="cls-17" d="M0,0V-16.5l-14.293-8.251L-28.585-16.5V0l14.292,8.252Z"/>
    </g>
    <g id="그룹_398" data-name="그룹 398" transform="translate(293.26 -215.792)">
      <path id="패스_559" data-name="패스 559" class="cls-18" d="M0,0V-16.5l-14.292-8.251L-28.585-16.5V0l14.293,8.252L0,0"/>
    </g>
    <g id="그룹_399" data-name="그룹 399" transform="translate(293.26 -215.792)">
      <path id="패스_560" data-name="패스 560" class="cls-15" d="M0,0V-16.5l-14.292-8.251L-28.585-16.5V0l14.293,8.252Z"/>
    </g>
    <g id="그룹_400" data-name="그룹 400" transform="translate(287.453 -219.145)">
      <path id="패스_561" data-name="패스 561" class="cls-18" d="M0,0V-9.8l-8.486-4.9-8.486,4.9V0l8.486,4.9L0,0"/>
    </g>
    <g id="그룹_401" data-name="그룹 401" transform="translate(287.453 -219.145)">
      <path id="패스_562" data-name="패스 562" class="cls-15" d="M0,0V-9.8l-8.486-4.9-8.486,4.9V0l8.486,4.9Z"/>
    </g>
  </g>
  <g id="그룹_403" data-name="그룹 403" transform="translate(264.551 123.253)">
    <path id="패스_564" data-name="패스 564" class="cls-15" d="M0,0,5.539,3.054"/>
  </g>
  <g id="그룹_404" data-name="그룹 404" transform="translate(293.462 123.318)">
    <path id="패스_565" data-name="패스 565" class="cls-15" d="M0,0-5.717,2.917"/>
  </g>
  <g id="그룹_405" data-name="그룹 405" transform="translate(278.957 141.445)">
    <path id="패스_566" data-name="패스 566" class="cls-15" d="M0,0V6.87"/>
  </g>
  <g id="그룹_406" data-name="그룹 406" transform="translate(278.745 121.325)">
    <path id="패스_567" data-name="패스 567" class="cls-16" d="M0,0V10.02l-8.184,4.849"/>
  </g>
  <g id="그룹_407" data-name="그룹 407" transform="translate(287.614 136.185)">
    <path id="패스_568" data-name="패스 568" class="cls-15" d="M0,0-8.563-4.61"/>
  </g>
</svg>
