<svg id="구성_요소_67_1" data-name="구성 요소 67 – 1" xmlns="http://www.w3.org/2000/svg" xmlns:xlink="http://www.w3.org/1999/xlink" width="836" height="355.5" viewBox="0 0 836 355.5">
  <defs>
    <style>
      .cls-1, .cls-13, .cls-15, .cls-17, .cls-21, .cls-8, .cls-9 {
        fill: none;
      }

      .cls-2 {
        fill: #f4f6f7;
      }

      .cls-3 {
        fill: #e3e3e3;
      }

      .cls-4, .cls-5, .cls-6 {
        fill: #1e498b;
      }

      .cls-5, .cls-6 {
        font-size: 15px;
        font-family: NotoSansKR-Medium, Noto Sans KR;
        font-weight: 500;
      }

      .cls-11, .cls-5 {
        letter-spacing: -0.02em;
      }

      .cls-7 {
        clip-path: url(#clip-path);
      }

      .cls-8, .cls-9 {
        stroke: #7e8084;
        stroke-linecap: round;
        stroke-linejoin: round;
        stroke-width: 2px;
      }

      .cls-8 {
        stroke-dasharray: 0 6.012;
      }

      .cls-10, .cls-11, .cls-12 {
        fill: #1e2323;
      }

      .cls-11, .cls-12 {
        font-size: 13px;
        font-family: NotoSansKR-Regular, Noto Sans KR;
      }

      .cls-13 {
        stroke: #1e498b;
        stroke-width: 0.5px;
      }

      .cls-14 {
        fill: #2b2e34;
      }

      .cls-15, .cls-16 {
        stroke: #1e2323;
      }

      .cls-15, .cls-16, .cls-17 {
        stroke-miterlimit: 10;
      }

      .cls-16, .cls-18 {
        fill: #fff;
      }

      .cls-17, .cls-21 {
        stroke: #2b2e34;
      }

      .cls-19 {
        fill: #1393d1;
      }

      .cls-20 {
        fill: #90c8df;
      }

      .cls-22 {
        fill: #28669e;
      }
    </style>
    <clipPath id="clip-path">
      <path id="패스_469" data-name="패스 469" class="cls-1" d="M0,0H836V-355.5H0Z"/>
    </clipPath>
  </defs>
  <path id="패스_462" data-name="패스 462" class="cls-2" d="M0,0H836V-355.5H0Z" transform="translate(0 355.5)"/>
  <path id="패스_463" data-name="패스 463" class="cls-3" d="M73.092-82.36H191.564v-77.1H73.092Z" transform="translate(0 355.5)"/>
  <path id="패스_464" data-name="패스 464" class="cls-3" d="M637.114-88.157H755.586v-77.1H637.114Z" transform="translate(0 355.5)"/>
  <path id="패스_465" data-name="패스 465" class="cls-3" d="M334.2-26.44H500.672V-86.666H334.2Z" transform="translate(0 355.5)"/>
  <path id="패스_849" data-name="패스 849" class="cls-4" d="M5.445-8.865H8.31V-10.11H5.445v-2.01H3.9v2.01H.99v1.245H3.9v.78A6.159,6.159,0,0,1,.57-2.595L1.425-1.41a6.591,6.591,0,0,0,3.27-3.96,6.3,6.3,0,0,0,3.09,3.72L8.64-2.835a5.935,5.935,0,0,1-3.195-5.25Zm7.92,1.905H11.25v-5.445H9.7V1.155H11.25v-6.84h2.115Zm10.56-2.415V-8.1h-2.8V-9.375ZM19.6-7.065H16.41v-1.77H19.6ZM21.12-6.9h2.8v1.53h1.56v-7.02h-1.56v1.83h-2.8v-1.23H19.6v1.77H16.41v-1.77H14.88v5.955h6.24ZM18.21-.225V-1.38h7.275V-4.77h-8.82v1.215h7.29V-2.52H16.68V.99h9.255V-.225ZM35.9-10.83h-3.24v-1.53H31.11v1.53H27.84v1.245H35.9ZM30.09-6.375c0-.84.735-1.35,1.8-1.35s1.785.51,1.785,1.35c0,.825-.72,1.335-1.785,1.335S30.09-5.55,30.09-6.375Zm2.565,2.46a2.582,2.582,0,0,0,2.475-2.46c0-1.53-1.32-2.535-3.24-2.535s-3.255,1-3.255,2.535a2.593,2.593,0,0,0,2.475,2.46v1.32c-1.26.045-2.475.045-3.51.045l.21,1.275a49.431,49.431,0,0,0,8.355-.54l-.12-1.14c-1.08.165-2.235.24-3.39.3Zm7.635-2.82H38.355v-5.67H36.81V1.155h1.545V-5.46H40.29Zm12.135-5.67H50.88V-2.22h1.545ZM49.92-5.46c-1.08.12-2.22.195-3.39.24V-6.825h2.535v-1.26h-5.04v-2.2H48.99v-1.26H42.48v4.725h2.505V-5.16c-1.29.045-2.55.06-3.675.06l.21,1.245a62.715,62.715,0,0,0,8.505-.48ZM45.045-.36V-2.925H43.5V.9h9.345V-.36Z" transform="translate(389.526 110.39)"/>
  <text id="_" data-name=" " class="cls-5" transform="translate(443.826 110.39)"><tspan x="0" y="0"> </tspan></text>
  <text id="_2" data-name=" " class="cls-6" transform="translate(447.426 110.39)"><tspan x="0" y="0"> </tspan></text>
  <path id="패스_850" data-name="패스 850" class="cls-4" d="M4.875-9.645H7.11V-10.92H.99v1.275H3.375v.975c0,2.415-.9,4.86-2.82,6.06l.93,1.14A6.713,6.713,0,0,0,4.14-5.46a6.165,6.165,0,0,0,2.6,3.66l.9-1.125c-1.89-1.1-2.76-3.435-2.76-5.745Zm3.24,2.01H6.12v1.26H8.115V.5H9.57v-12.63H8.115Zm2.73-4.77V1.14h1.47V-12.405ZM21.93-8.265H18.81v-2.49h3.12Zm-4.665,0H15.42V-7.02h9.885V-8.265h-1.83v-2.49H25.38V-12H15.345v1.245h1.92ZM23.505-.24H17.25V-2.085h6.255Zm3-4.455V-5.94H14.25v1.245H19.6v1.38H15.72V.99h9.3V-3.315H21.15v-1.38ZM35.25-10.53c1.185,0,2.01.615,2.01,1.56,0,.96-.825,1.575-2.01,1.575-1.17,0-2.01-.615-2.01-1.575C33.24-9.915,34.08-10.53,35.25-10.53Zm0,4.41c2.025,0,3.5-1.17,3.5-2.85,0-1.665-1.47-2.835-3.5-2.835s-3.495,1.17-3.495,2.835C31.755-7.29,33.225-6.12,35.25-6.12Zm4.365.51a63.037,63.037,0,0,1-8.775.48l.18,1.275c1.05,0,2.25-.015,3.525-.06V.75H36.09V-4a29.655,29.655,0,0,0,3.63-.465Zm.885-6.78V1.17h1.545V-12.39ZM52.9-7.65H54.33v3.585H55.8v-8.31H54.33V-8.91H52.9v-3.225H51.45V-4.5H52.9Zm-1.77,1.47A3.941,3.941,0,0,1,48.5-9.855v-1.71H47v1.71a4.532,4.532,0,0,1-2.73,4.065l.81,1.185A5.079,5.079,0,0,0,47.76-7.47a4.687,4.687,0,0,0,2.55,2.445Zm.15,6.15c-1.9,0-3.045-.465-3.045-1.29s1.14-1.305,3.045-1.305S54.33-2.16,54.33-1.32,53.19-.03,51.285-.03Zm0-3.78c-2.82,0-4.59.93-4.59,2.49,0,1.545,1.77,2.475,4.59,2.475s4.59-.93,4.59-2.475C55.875-2.88,54.105-3.81,51.285-3.81ZM68.07-6.585a20.224,20.224,0,0,0,.33-4v-.78H61.59v1.26h5.3a19.263,19.263,0,0,1-.33,3.36Zm1.125.675a38.029,38.029,0,0,1-4.2.36V-8.28h-1.53v2.775c-.96.03-1.89.03-2.7.03l.165,1.26a50.738,50.738,0,0,0,8.37-.57Zm-4.83,2.79h-1.56V.9h9.21V-.36h-7.65ZM71.58-8.1v-4.29H70.02V-2.22h1.56V-6.825h1.8V-8.1Zm5.16,1.935h4.725V-11.19H75.15v1.26H79.9v2.52H75.18v5.37h1.155a37.3,37.3,0,0,0,6.735-.48L82.9-3.78a38.78,38.78,0,0,1-6.165.465Zm7.29-6.255V1.185h1.56V-12.42Z" transform="translate(372.126 133.384)"/>
  <text id="_3" data-name=" " class="cls-5" transform="translate(461.226 133.384)"><tspan x="0" y="0"> </tspan></text>
  <text id="_4" data-name=" " class="cls-6" transform="translate(464.826 133.384)"><tspan x="0" y="0"> </tspan></text>
  <path id="패스_851" data-name="패스 851" class="cls-4" d="M1.32-11.445v1.26H5.97c-.27,2.1-2.115,3.81-5.25,4.71l.63,1.23c3.96-1.14,6.3-3.66,6.3-7.2ZM7.02-.06c-1.8,0-2.94-.54-2.94-1.47,0-.945,1.14-1.485,2.94-1.485s2.94.54,2.94,1.485C9.96-.6,8.835-.06,7.02-.06Zm0-4.185c-2.7,0-4.47,1.035-4.47,2.715,0,1.665,1.77,2.685,4.47,2.685S11.49.135,11.49-1.53C11.49-3.21,9.735-4.245,7.02-4.245Zm4.32-4.8V-12.39H9.8v7.965H11.34V-7.77h1.92V-9.045ZM22.4-10.83h-3.24v-1.53H17.61v1.53H14.34v1.245H22.4ZM16.59-6.375c0-.84.735-1.35,1.8-1.35s1.785.51,1.785,1.35c0,.825-.72,1.335-1.785,1.335S16.59-5.55,16.59-6.375Zm2.565,2.46a2.582,2.582,0,0,0,2.475-2.46c0-1.53-1.32-2.535-3.24-2.535s-3.255,1-3.255,2.535a2.593,2.593,0,0,0,2.475,2.46v1.32c-1.26.045-2.475.045-3.51.045l.21,1.275a49.431,49.431,0,0,0,8.355-.54l-.12-1.14c-1.08.165-2.235.24-3.39.3Zm7.635-2.82H24.855v-5.67H23.31V1.155h1.545V-5.46H26.79Z" transform="translate(403.026 156.379)"/>
  <g id="그룹_311" data-name="그룹 311" class="cls-7" transform="translate(0 355.5)">
    <g id="그룹_308" data-name="그룹 308" transform="translate(257.067 -303.35)">
      <path id="패스_466" data-name="패스 466" class="cls-8" d="M0,0C3.086,85.539,71.759,154.125,156.6,155.711"/>
    </g>
    <g id="그룹_309" data-name="그룹 309" transform="translate(422.687 -147.723)">
      <path id="패스_467" data-name="패스 467" class="cls-8" d="M0,0C84.441-3.164,152.133-72.716,153.679-158.632"/>
    </g>
    <g id="그룹_310" data-name="그룹 310" transform="translate(256.959 -309.36)">
      <path id="패스_468" data-name="패스 468" class="cls-9" d="M0,0H0M159.717,161.75h0M319.434,0h0"/>
    </g>
  </g>
  <path id="패스_852" data-name="패스 852" class="cls-10" d="M4.875-9.645H7.11V-10.92H.99v1.275H3.375v.975c0,2.415-.9,4.86-2.82,6.06l.93,1.14A6.713,6.713,0,0,0,4.14-5.46a6.165,6.165,0,0,0,2.6,3.66l.9-1.125c-1.89-1.1-2.76-3.435-2.76-5.745Zm3.24,2.01H6.12v1.26H8.115V.5H9.57v-12.63H8.115Zm2.73-4.77V1.14h1.47V-12.405ZM21.93-8.265H18.81v-2.49h3.12Zm-4.665,0H15.42V-7.02h9.885V-8.265h-1.83v-2.49H25.38V-12H15.345v1.245h1.92ZM23.505-.24H17.25V-2.085h6.255Zm3-4.455V-5.94H14.25v1.245H19.6v1.38H15.72V.99h9.3V-3.315H21.15v-1.38Zm10.935-.75h1.545v-6.96H37.44v2.265H34.695v1.245H37.44ZM35.76-6.87a4.266,4.266,0,0,1-3.2-3.96v-1.14H31.02v1.14a4.475,4.475,0,0,1-3.3,4.245l.8,1.215A5.461,5.461,0,0,0,31.83-8.43a5.162,5.162,0,0,0,3.12,2.76ZM31.725-.225V-1.38h7.26V-4.8h-8.82v1.2h7.29v1.08h-7.26V.99H39.45V-.225ZM48.63-8.73H46.92a12.233,12.233,0,0,0,.15-1.995H41.835V-9.48H45.54a8.243,8.243,0,0,1-4.365,6.675l.885,1.1a9.533,9.533,0,0,0,4.59-5.76h1.98v2.145H46.41v1.26h2.22V.5h1.44V-12.06H48.63Zm2.73-3.66V1.155h1.485V-12.39Z" transform="translate(105.235 215.926)"/>
  <g id="그룹" transform="translate(0 355.5)">
    <path id="패스_853" data-name="패스 853" class="cls-10" d="M4.108-8.463h2.08v-.871H.871v.871h2.21V-7.41A6.085,6.085,0,0,1,.546-2.171l.65.793A6.037,6.037,0,0,0,3.6-5.07a5.576,5.576,0,0,0,2.34,3.406l.65-.78A5.649,5.649,0,0,1,4.108-7.41Zm3.12,1.95H5.3v.871H7.228V.351H8.242v-10.79H7.228Zm2.34-4.2V.949H10.6V-10.712ZM19.1-7.02H16.2V-9.464h2.9Zm-3.965,0H13.416v.858h8.463V-7.02H20.163V-9.464h1.768v-.858H13.377v.858h1.755ZM20.6-.052H14.729V-1.989H20.6ZM22.932-4.2v-.858H12.389V-4.2h4.745v1.365H13.689V.806h7.956v-3.64H18.2V-4.2Zm6.084-4.68h5.967V-5.1H29.016Zm3.536,7.462V-4.251h3.471V-9.724H27.989v5.473h3.484v2.834H26.741v.884H37.31v-.884ZM47.736-7.644H40.911V-9.425h6.708v-.858H39.845v3.5h7.891ZM45.123-3.783H42.367v-1.2h2.756Zm3.861-1.2v-.858H38.428v.858h2.886v1.2H39.7v.806h6.877V-1.95H39.741V.819h8.242V0h-7.2V-1.17h6.851V-3.783H46.189v-1.2Zm12.337.312H62.4v-6.019H61.321V-8.58H58.786v.871h2.535ZM59.6-5.746a3.917,3.917,0,0,1-2.86-3.5v-1.079H55.692v1.079A4.045,4.045,0,0,1,52.78-5.486l.559.845a4.866,4.866,0,0,0,2.912-2.834,4.725,4.725,0,0,0,2.808,2.561ZM55.965-.039V-1.287H62.4v-2.8H54.886v.845h6.461v1.144H54.912v2.9h7.93V-.039Zm15.08-7.41H69.316a10.045,10.045,0,0,0,.156-1.768H65v.871h3.419A7.459,7.459,0,0,1,64.48-2.314l.624.754a8.39,8.39,0,0,0,4.017-5.031h1.924v2.054H68.939v.871h2.106V.364h1.014V-10.387H71.045Zm2.34-3.25V.949H74.4V-10.7Zm15.015,0H87.334V-4H88.4ZM83.863-6.032H80.5V-9.1h3.367ZM84.9-9.945H79.456v4.771H84.9Zm3.77,7.553v-.819H85.254V-4.342H84.175v1.131H80.756v.819h3.406C84.149-1.235,82.29-.13,80.3.1l.351.819a5.828,5.828,0,0,0,4.069-2.132,5.742,5.742,0,0,0,4,2.132L89.089.1c-2-.247-3.822-1.378-3.835-2.5Z" transform="translate(86.235 -107.574)"/>
    <text id="_5" data-name=" " class="cls-11" transform="translate(178.535 -107.574)"><tspan x="0" y="0"> </tspan></text>
    <text id="_6" data-name=" " class="cls-12" transform="translate(181.655 -107.574)"><tspan x="0" y="0"> </tspan></text>
    <path id="패스_854" data-name="패스 854" class="cls-10" d="M4.511-9.269c1.131,0,1.937.611,1.937,1.521S5.642-6.227,4.511-6.227s-1.95-.611-1.95-1.521S3.367-9.269,4.511-9.269Zm0,3.913c1.729,0,2.964-.975,2.964-2.392s-1.235-2.4-2.964-2.4-2.977.975-2.977,2.4S2.769-5.356,4.511-5.356Zm3.835.572a53.558,53.558,0,0,1-7.683.416l.143.9c.962,0,2.067-.013,3.224-.065V.6H5.1V-3.6a29.232,29.232,0,0,0,3.341-.39Zm.845-5.9V.975h1.066V-10.686Zm10.53,3.991H21.2v3.2H22.23v-7.189H21.2v3.12H19.721v-2.9H18.707v6.591h1.014Zm-1.5,1.469A3.506,3.506,0,0,1,15.86-8.4V-9.971H14.833V-8.4A4.038,4.038,0,0,1,12.4-4.914l.572.832a4.637,4.637,0,0,0,2.379-2.587,4.18,4.18,0,0,0,2.3,2.262ZM18.382.13c-1.742,0-2.834-.468-2.834-1.274S16.64-2.4,18.382-2.4c1.768,0,2.847.455,2.847,1.261S20.15.13,18.382.13Zm0-3.367c-2.392,0-3.887.767-3.887,2.093S15.99.949,18.382.949s3.9-.767,3.9-2.093S20.787-3.237,18.382-3.237Zm9.048-6.2v.858h4.381c-.221,2.769-1.781,5-4.914,6.5l.572.871c3.874-1.9,5.421-4.862,5.421-8.229ZM35.243-10.7V.962h1.066V-10.7Zm12.545,3.25H40.937v-3H39.871v3.861h7.917ZM43.706.091c-1.833,0-2.912-.481-2.912-1.287,0-.832,1.079-1.3,2.912-1.3s2.912.468,2.912,1.3C46.618-.39,45.526.091,43.706.091Zm0-3.419c-2.483,0-3.991.767-3.991,2.132S41.223.923,43.706.923,47.7.156,47.7-1.2,46.189-3.328,43.706-3.328ZM38.454-5.239v.871H49v-.871Zm21.216.234a4.014,4.014,0,0,1-2.834-3.562v-.468H59.4v-.871H53.17v.871h2.6v.468a4.236,4.236,0,0,1-2.938,3.822l.559.845a4.941,4.941,0,0,0,2.925-2.912,4.832,4.832,0,0,0,2.821,2.639ZM54.6-2.223h6.721v3.2h1.066V-3.081H54.6ZM61.321-10.7v3.042H59.046v.871h2.275v3.068h1.066V-10.7ZM69.758.13c-1.833,0-2.912-.455-2.912-1.248s1.079-1.248,2.912-1.248,2.912.455,2.912,1.248S71.578.13,69.758.13Zm0-3.328c-2.5,0-3.991.741-3.991,2.08S67.262.949,69.758.949s3.991-.728,3.991-2.067S72.267-3.2,69.758-3.2ZM68.146-6.292a10.12,10.12,0,0,0,1.612.13,10.163,10.163,0,0,0,1.625-.13v1.365H68.146ZM66.755-8.32c0-.845,1.144-1.339,3-1.339s3,.494,3,1.339-1.144,1.339-3,1.339S66.755-7.488,66.755-8.32Zm5.681,3.393V-6.578A1.924,1.924,0,0,0,73.853-8.32c0-1.365-1.56-2.171-4.095-2.171s-4.1.806-4.1,2.171a1.919,1.919,0,0,0,1.43,1.755v1.638H64.48v.858H75.036v-.858Z" transform="translate(93.775 -90.57)"/>
  </g>
  <path id="패스_855" data-name="패스 855" class="cls-10" d="M4.875-9.645H7.11V-10.92H.99v1.275H3.375v.975c0,2.415-.9,4.86-2.82,6.06l.93,1.14A6.713,6.713,0,0,0,4.14-5.46a6.165,6.165,0,0,0,2.6,3.66l.9-1.125c-1.89-1.1-2.76-3.435-2.76-5.745Zm3.24,2.01H6.12v1.26H8.115V.5H9.57v-12.63H8.115Zm2.73-4.77V1.14h1.47V-12.405ZM21.93-8.265H18.81v-2.49h3.12Zm-4.665,0H15.42V-7.02h9.885V-8.265h-1.83v-2.49H25.38V-12H15.345v1.245h1.92ZM23.505-.24H17.25V-2.085h6.255Zm3-4.455V-5.94H14.25v1.245H19.6v1.38H15.72V.99h9.3V-3.315H21.15v-1.38ZM39.51-5.985c-2.67-.45-4.845-2.46-4.845-4.56v-1.02H33.03v1.02c0,2.085-2.175,4.11-4.86,4.56l.66,1.29A7.139,7.139,0,0,0,33.855-8.28a7.021,7.021,0,0,0,5.01,3.585ZM34.6-1.8V-4.965H33.06V-1.8h-5.3V-.525h12.27V-1.8ZM45.39-9.63h2.265V-10.9h-6.21V-9.63H43.89v.75c0,2.685-.855,5.04-2.82,6.18l.945,1.155a6.212,6.212,0,0,0,2.67-3.9A5.8,5.8,0,0,0,47.31-2.01l.9-1.185c-1.965-1.02-2.82-3.24-2.82-5.685Zm6.03-2.775V-7.05H49.935v-5.1H48.48V.525h1.455v-6.3H51.42v6.93h1.47v-13.56Z" transform="translate(390.286 287.783)"/>
  <path id="패스_856" data-name="패스 856" class="cls-10" d="M1.95-7.007a1.913,1.913,0,0,1,2-1.95,1.913,1.913,0,0,1,2,1.95,1.913,1.913,0,0,1-2,1.95A1.913,1.913,0,0,1,1.95-7.007Zm5.044,0A2.861,2.861,0,0,0,3.952-9.88,2.861,2.861,0,0,0,.91-7.007,2.861,2.861,0,0,0,3.952-4.134,2.861,2.861,0,0,0,6.994-7.007ZM3.549-2.99H2.483V.7h7.774V-.169H3.549ZM9.737-7.15V-10.7H8.671v8.58H9.737V-6.266h1.729V-7.15Zm8.84-.325V-6.6h2.34v4.459H22v-8.541H20.917v3.211Zm.689,2.743a4,4,0,0,1-2.834-3.575v-.572h2.561V-9.75H12.766v.871h2.6v.585a4.25,4.25,0,0,1-2.938,3.822l.559.832a4.977,4.977,0,0,0,2.938-2.9A4.811,4.811,0,0,0,18.733-3.9ZM15.613-.169V-2.9H14.534V.7h7.787V-.169Zm17-3.627H33.7v-6.89H32.617v2.47H30.082v.871h2.535Zm-1.69-1.378a4,4,0,0,1-2.834-3.705v-1.157H27.027v1.2a4.249,4.249,0,0,1-2.951,3.978l.559.871a4.931,4.931,0,0,0,2.951-2.964,4.773,4.773,0,0,0,2.769,2.613ZM29.848.1C28.093.1,27.027-.4,27.027-1.248s1.066-1.365,2.821-1.365,2.821.507,2.821,1.365S31.6.1,29.848.1Zm0-3.549c-2.392,0-3.887.793-3.887,2.2s1.5,2.2,3.887,2.2,3.874-.806,3.874-2.2S32.24-3.445,29.848-3.445Zm9.113-6.383v.858h4.225c-.195,2.015-1.95,3.6-4.719,4.42l.429.858c3.38-1,5.447-3.172,5.447-6.136ZM43.836.1c-1.677,0-2.743-.533-2.743-1.417s1.066-1.43,2.743-1.43,2.743.533,2.743,1.43S45.513.1,43.836.1Zm0-3.679c-2.3,0-3.8.845-3.8,2.262S41.535.949,43.836.949s3.8-.858,3.8-2.262S46.137-3.575,43.836-3.575Zm3.653-4.108V-10.7H46.423v6.968h1.066V-6.8h1.729v-.884Zm9.685-1.6H54.236v-1.4H53.17v1.4H50.206v.845h6.968ZM51.961-5.59c0-.806.7-1.339,1.742-1.339s1.742.533,1.742,1.339-.7,1.326-1.742,1.326S51.961-4.784,51.961-5.59Zm2.275,2.132A2.229,2.229,0,0,0,56.459-5.59c0-1.313-1.131-2.158-2.756-2.158S50.947-6.9,50.947-5.59A2.229,2.229,0,0,0,53.17-3.458v1.274c-1.131.039-2.223.039-3.159.039l.143.9a43.038,43.038,0,0,0,7.28-.468l-.065-.793a30.481,30.481,0,0,1-3.133.286Zm6.708-2.288h-1.82V-10.7H58.058V.962h1.066V-4.849h1.82ZM74.061-10.7H73v8.554h1.066ZM71.513-4.888A4.326,4.326,0,0,1,68.6-8.866v-1.183H67.535v1.183A4.544,4.544,0,0,1,64.61-4.68l.559.871a5.231,5.231,0,0,0,2.912-3.12,5.026,5.026,0,0,0,2.873,2.886ZM67.626-.169V-2.938H66.56V.7h7.852V-.169ZM86.255-5.005c-2.041-.364-4.264-2.08-4.264-4.017v-.9H80.873v.9c0,1.937-2.21,3.653-4.251,4.017l.442.884a6.286,6.286,0,0,0,4.368-3.25A6.313,6.313,0,0,0,85.8-4.121ZM81.965-1.43V-4.264H80.9V-1.43H76.193v.871H86.775V-1.43Zm9.373-7.02h2.119v-.871H88.049v.871h2.262v.91c0,2.366-.871,4.355-2.535,5.291l.65.806a5.443,5.443,0,0,0,2.418-3.549A5.217,5.217,0,0,0,93.21-1.846l.624-.819a5.25,5.25,0,0,1-2.5-4.875Zm5.473-2.262v4.719H95.277v-4.446h-1V.39h1v-5.5h1.534V.962h1.027V-10.712Zm5.876,1.521v.871h3.5A7.062,7.062,0,0,1,102.245-2.3l.624.767a8.155,8.155,0,0,0,4.368-7.657Zm8.424-1.508v4.693h-1.586v-4.381h-1V.377h1V-5.135h1.586v6.1h1.027V-10.7Zm7.67,4.719h-3.3V-7.722h3.3Zm1.04-4.238h-1.04v1.677h-3.3v-1.677h-1.053v5.1h5.4Zm-3.159,8.931h6.331V-4.121h-7.41v.845h6.357v1.2h-6.318V.832h7.8V-.013h-6.76Zm6.331-6.9v-2.5h-1.066v6.019h1.066V-7.306h1.729V-8.19Z" transform="translate(353.736 314.783)"/>
  <path id="패스_857" data-name="패스 857" class="cls-10" d="M7.92-6.585a20.224,20.224,0,0,0,.33-4v-.78H1.44v1.26h5.3A19.264,19.264,0,0,1,6.4-6.75Zm1.125.675a38.029,38.029,0,0,1-4.2.36V-8.28H3.315v2.775c-.96.03-1.89.03-2.7.03L.78-4.215a50.738,50.738,0,0,0,8.37-.57ZM4.215-3.12H2.655V.9h9.21V-.36H4.215ZM11.43-8.1v-4.29H9.87V-2.22h1.56V-6.825h1.8V-8.1Zm5.16,1.935h4.725V-11.19H15v1.26h4.755v2.52H15.03v5.37h1.155a37.3,37.3,0,0,0,6.735-.48l-.165-1.26a38.781,38.781,0,0,1-6.165.465Zm7.29-6.255V1.185h1.56V-12.42ZM32.67-11.3H31.11V-9.06a6.944,6.944,0,0,1-3.435,6.18l.975,1.23A7,7,0,0,0,31.9-5.94a6.677,6.677,0,0,0,3.21,4.065L36.03-3.12a6.516,6.516,0,0,1-3.36-5.94Zm4.785-1.125v4.455h-2.9V-6.7h2.9V1.17h1.56V-12.42Zm13.395.015V1.185h1.56v-13.59ZM41.985-11.28v9.24h6.51v-9.24H46.95v3.45H43.515v-3.45Zm1.53,4.68H46.95v3.315H43.515Zm23,.825c-2.67-.48-4.845-2.565-4.845-4.725v-1.02H60.03v1.02c0,2.145-2.175,4.23-4.845,4.725l.66,1.275A7.092,7.092,0,0,0,60.84-8.22,7.092,7.092,0,0,0,65.835-4.5ZM54.765-1.86V-.585h12.27V-1.86Z" transform="translate(662.429 210.893)"/>
  <g id="그룹-2" data-name="그룹" transform="translate(0 355.5)">
    <path id="패스_858" data-name="패스 858" class="cls-10" d="M1.95-7.007a1.913,1.913,0,0,1,2-1.95,1.913,1.913,0,0,1,2,1.95,1.913,1.913,0,0,1-2,1.95A1.913,1.913,0,0,1,1.95-7.007Zm5.044,0A2.861,2.861,0,0,0,3.952-9.88,2.861,2.861,0,0,0,.91-7.007,2.861,2.861,0,0,0,3.952-4.134,2.861,2.861,0,0,0,6.994-7.007ZM3.549-2.99H2.483V.7h7.774V-.169H3.549ZM9.737-7.15V-10.7H8.671v8.58H9.737V-6.266h1.729V-7.15Zm8.84-.325V-6.6h2.34v4.459H22v-8.541H20.917v3.211Zm.689,2.743a4,4,0,0,1-2.834-3.575v-.572h2.561V-9.75H12.766v.871h2.6v.585a4.25,4.25,0,0,1-2.938,3.822l.559.832a4.977,4.977,0,0,0,2.938-2.9A4.811,4.811,0,0,0,18.733-3.9ZM15.613-.169V-2.9H14.534V.7h7.787V-.169ZM36.3-10.7H35.23V-4H36.3ZM31.759-6.032H28.392V-9.1h3.367ZM32.8-9.945H27.352v4.771H32.8Zm3.77,7.553v-.819H33.15V-4.342H32.071v1.131H28.652v.819h3.406C32.045-1.235,30.186-.13,28.2.1l.351.819a5.828,5.828,0,0,0,4.069-2.132,5.742,5.742,0,0,0,4,2.132L36.985.1c-2-.247-3.822-1.378-3.835-2.5Zm8.346-6.877c1.131,0,1.937.611,1.937,1.521s-.806,1.521-1.937,1.521-1.95-.611-1.95-1.521S43.771-9.269,44.915-9.269Zm0,3.913c1.729,0,2.964-.975,2.964-2.392s-1.235-2.4-2.964-2.4-2.977.975-2.977,2.4S43.173-5.356,44.915-5.356Zm3.835.572a53.558,53.558,0,0,1-7.683.416l.143.9c.962,0,2.067-.013,3.224-.065V.6H45.5V-3.6a29.232,29.232,0,0,0,3.341-.39Zm.845-5.9V.975h1.066V-10.686Zm10.53,3.991h1.482v3.2h1.027v-7.189H61.607v3.12H60.125v-2.9H59.111v6.591h1.014ZM58.63-5.226A3.506,3.506,0,0,1,56.264-8.4V-9.971H55.237V-8.4a4.038,4.038,0,0,1-2.431,3.484l.572.832a4.637,4.637,0,0,0,2.379-2.587,4.18,4.18,0,0,0,2.3,2.262ZM58.786.13c-1.742,0-2.834-.468-2.834-1.274S57.044-2.4,58.786-2.4c1.768,0,2.847.455,2.847,1.261S60.554.13,58.786.13Zm0-3.367c-2.392,0-3.887.767-3.887,2.093S56.394.949,58.786.949s3.9-.767,3.9-2.093S61.191-3.237,58.786-3.237Z" transform="translate(663.569 -117.607)"/>
    <text id="_7" data-name=" " class="cls-11" transform="translate(729.089 -117.607)"><tspan x="0" y="0"> </tspan></text>
    <text id="_8" data-name=" " class="cls-12" transform="translate(732.209 -117.607)"><tspan x="0" y="0"> </tspan></text>
    <path id="패스_859" data-name="패스 859" class="cls-10" d="M1.209-9.828v.858H5.434c-.2,2.015-1.95,3.6-4.719,4.42l.429.858c3.38-1,5.447-3.172,5.447-6.136ZM6.084.1C4.407.1,3.341-.429,3.341-1.313s1.066-1.43,2.743-1.43,2.743.533,2.743,1.43S7.761.1,6.084.1Zm0-3.679c-2.3,0-3.8.845-3.8,2.262S3.783.949,6.084.949s3.8-.858,3.8-2.262S8.385-3.575,6.084-3.575ZM9.737-7.683V-10.7H8.671v6.968H9.737V-6.8h1.729v-.884Zm9.685-1.6H16.484v-1.4H15.418v1.4H12.454v.845h6.968ZM14.209-5.59c0-.806.7-1.339,1.742-1.339s1.742.533,1.742,1.339-.7,1.326-1.742,1.326S14.209-4.784,14.209-5.59Zm2.275,2.132A2.229,2.229,0,0,0,18.707-5.59c0-1.313-1.131-2.158-2.756-2.158S13.195-6.9,13.195-5.59a2.229,2.229,0,0,0,2.223,2.132v1.274c-1.131.039-2.223.039-3.159.039l.143.9a43.038,43.038,0,0,0,7.28-.468l-.065-.793a30.481,30.481,0,0,1-3.133.286Zm6.708-2.288h-1.82V-10.7H20.306V.962h1.066V-4.849h1.82ZM30.823-9.7H29.757V-7.6a6.159,6.159,0,0,1-3.016,5.252l.65.845a6.469,6.469,0,0,0,2.9-3.9,6.247,6.247,0,0,0,2.925,3.692l.624-.845A5.813,5.813,0,0,1,30.823-7.6Zm4.459-1v3.952h-2.7v.871h2.7V.975h1.066V-10.7Zm11.635,0V.975h1.066V-10.7ZM39.1-9.711v7.865H44.59V-9.711H43.537V-6.63h-3.38V-9.711Zm1.053,3.926h3.38v3.068h-3.38Zm20.033.949c-2.041-.39-4.251-2.158-4.251-4.147v-.9H54.821v.9c0,1.989-2.2,3.744-4.238,4.147l.481.884A6.4,6.4,0,0,0,55.38-7.319a6.327,6.327,0,0,0,4.329,3.367ZM50.141-1.482V-.6H60.71v-.884Z" transform="translate(665.259 -100.603)"/>
  </g>
  <g id="그룹_312" data-name="그룹 312" transform="translate(251.398 155.677)">
    <path id="패스_470" data-name="패스 470" class="cls-13" d="M0,0-53.585,35.3"/>
  </g>
  <g id="그룹_314" data-name="그룹 314" class="cls-7" transform="translate(0 355.5)">
    <g id="그룹_313" data-name="그룹 313" transform="translate(197.882 -162.524)">
      <path id="패스_471" data-name="패스 471" class="cls-4" d="M0,0A2,2,0,0,0,1.929-2.067,2,2,0,0,0-.14-4,2,2,0,0,0-2.069-1.929,2,2,0,0,0,0,0"/>
    </g>
  </g>
  <g id="그룹_315" data-name="그룹 315" transform="translate(416.676 241.39)">
    <path id="패스_473" data-name="패스 473" class="cls-13" d="M0,0V20"/>
  </g>
  <g id="그룹_317" data-name="그룹 317" class="cls-7" transform="translate(0 355.5)">
    <g id="그룹_316" data-name="그룹 316" transform="translate(416.676 -92.11)">
      <path id="패스_474" data-name="패스 474" class="cls-4" d="M0,0A2,2,0,0,0,2-2,2,2,0,0,0,0-4,2,2,0,0,0-2-2,2,2,0,0,0,0,0"/>
    </g>
  </g>
  <g id="그룹_318" data-name="그룹 318" transform="translate(577.53 148.943)">
    <path id="패스_476" data-name="패스 476" class="cls-13" d="M0,0,53.585,35.3"/>
  </g>
  <g id="그룹_320" data-name="그룹 320" class="cls-7" transform="translate(0 355.5)">
    <g id="그룹_319" data-name="그룹 319" transform="translate(631.046 -169.258)">
      <path id="패스_477" data-name="패스 477" class="cls-4" d="M0,0A2,2,0,0,1-1.929-2.067,2,2,0,0,1,.14-4,2,2,0,0,1,2.069-1.929,2,2,0,0,1,0,0"/>
    </g>
  </g>
  <g id="그룹_321" data-name="그룹 321" transform="translate(191.564 196.138)">
    <path id="패스_479" data-name="패스 479" class="cls-13" d="M0,0V76.695"/>
  </g>
  <g id="그룹_322" data-name="그룹 322" transform="translate(500.75 268.583)">
    <path id="패스_480" data-name="패스 480" class="cls-13" d="M0,0H-166.549"/>
  </g>
  <g id="그룹_323" data-name="그룹 323" transform="translate(637.364 267.344)">
    <path id="패스_481" data-name="패스 481" class="cls-13" d="M0,0V-77.1"/>
  </g>
  <g id="그룹_326" data-name="그룹 326" class="cls-7" transform="translate(0 355.5)">
    <g id="그룹_324" data-name="그룹 324" transform="translate(395.616 -278.341)">
      <path id="패스_482" data-name="패스 482" class="cls-14" d="M0,0-2.467-2.438V-20.977L0-23.415"/>
    </g>
    <g id="그룹_325" data-name="그룹 325" transform="translate(395.616 -278.341)">
      <path id="패스_483" data-name="패스 483" class="cls-15" d="M0,0-2.467-2.438V-20.977L0-23.415"/>
    </g>
  </g>
  <path id="패스_485" data-name="패스 485" class="cls-14" d="M392.545-276.347h31.473V-322.27H392.545Z" transform="translate(0 355.5)"/>
  <path id="패스_486" data-name="패스 486" class="cls-15" d="M392.545-276.347h31.473V-322.27H392.545Z" transform="translate(0 355.5)"/>
  <g id="그룹_327" data-name="그룹 327" transform="translate(419.912 63.257)">
    <path id="패스_487" data-name="패스 487" class="cls-14" d="M0,0V-18.723H-23.26V0"/>
  </g>
  <g id="그룹_328" data-name="그룹 328" transform="translate(419.912 63.257)">
    <path id="패스_488" data-name="패스 488" class="cls-15" d="M0,0V-18.723H-23.26V0"/>
  </g>
  <g id="그룹_329" data-name="그룹 329" transform="translate(392.28 63.778)">
    <path id="패스_489" data-name="패스 489" class="cls-15" d="M0,0H32"/>
  </g>
  <g id="그룹_330" data-name="그룹 330" transform="translate(402.857 45.362)">
    <path id="패스_490" data-name="패스 490" class="cls-15" d="M0,0V7.451"/>
  </g>
  <g id="그룹_331" data-name="그룹 331" transform="translate(412.705 45.362)">
    <path id="패스_491" data-name="패스 491" class="cls-15" d="M0,0V7.451"/>
  </g>
  <g id="그룹_333" data-name="그룹 333" class="cls-7" transform="translate(0 355.5)">
    <g id="그룹_332" data-name="그룹 332" transform="translate(393.552 -281.617)">
      <path id="패스_492" data-name="패스 492" class="cls-16" d="M0,0-2.467-2.438V-20.977L0-23.415"/>
    </g>
  </g>
  <path id="패스_494" data-name="패스 494" class="cls-16" d="M390.481-279.623h31.473v-45.923H390.481Z" transform="translate(0 355.5)"/>
  <g id="그룹_334" data-name="그룹 334" transform="translate(417.848 59.98)">
    <path id="패스_495" data-name="패스 495" class="cls-16" d="M0,0V-18.723H-23.26V0"/>
  </g>
  <g id="그룹_335" data-name="그룹 335" transform="translate(390.216 60.502)">
    <path id="패스_496" data-name="패스 496" class="cls-15" d="M0,0H32"/>
  </g>
  <g id="그룹_336" data-name="그룹 336" transform="translate(400.793 42.086)">
    <path id="패스_497" data-name="패스 497" class="cls-15" d="M0,0V7.451"/>
  </g>
  <g id="그룹_337" data-name="그룹 337" transform="translate(410.641 42.086)">
    <path id="패스_498" data-name="패스 498" class="cls-15" d="M0,0V7.451"/>
  </g>
  <g id="그룹_340" data-name="그룹 340" class="cls-7" transform="translate(0 355.5)">
    <g id="그룹_338" data-name="그룹 338" transform="translate(442.871 -282.197)">
      <path id="패스_499" data-name="패스 499" class="cls-14" d="M0,0V-19.093l-13.118-3.65-13.118,3.65V0l13.118,11.387L0,0"/>
    </g>
    <g id="그룹_339" data-name="그룹 339" transform="translate(442.871 -282.197)">
      <path id="패스_500" data-name="패스 500" class="cls-17" d="M0,0V-19.093l-13.118-3.65-13.118,3.65V0l13.118,11.387Z"/>
    </g>
  </g>
  <g id="그룹_341" data-name="그룹 341" transform="translate(435.377 64.691)">
    <path id="패스_502" data-name="패스 502" class="cls-14" d="M0,0H-4.078V-4.078H-7.169V0h-4.079V3.091h4.079V7.169h3.091V3.091H0Z"/>
  </g>
  <g id="그룹_342" data-name="그룹 342" transform="translate(435.377 64.691)">
    <path id="패스_503" data-name="패스 503" class="cls-17" d="M0,0H-4.078V-4.078H-7.169V0h-4.079V3.091h4.079V7.169h3.091V3.091H0Z"/>
  </g>
  <g id="그룹_343" data-name="그룹 343" transform="translate(429.238 52.485)">
    <path id="패스_504" data-name="패스 504" class="cls-14" d="M0,0-10.166,2.876l-.364.1V18.494"/>
  </g>
  <g id="그룹_344" data-name="그룹 344" transform="translate(429.238 52.485)">
    <path id="패스_505" data-name="패스 505" class="cls-17" d="M0,0-10.166,2.876l-.364.1V18.494"/>
  </g>
  <g id="그룹_347" data-name="그룹 347" class="cls-7" transform="translate(0 355.5)">
    <g id="그룹_345" data-name="그룹 345" transform="translate(441.851 -285.582)">
      <path id="패스_506" data-name="패스 506" class="cls-18" d="M0,0V-19.093l-13.118-3.65-13.118,3.65V0l13.118,11.387L0,0"/>
    </g>
    <g id="그룹_346" data-name="그룹 346" transform="translate(441.851 -285.582)">
      <path id="패스_507" data-name="패스 507" class="cls-15" d="M0,0V-19.093l-13.118-3.65-13.118,3.65V0l13.118,11.387Z"/>
    </g>
  </g>
  <g id="그룹_348" data-name="그룹 348" transform="translate(434.356 61.306)">
    <path id="패스_509" data-name="패스 509" class="cls-14" d="M0,0H-4.078V-4.078H-7.169V0h-4.079V3.091h4.079V7.169h3.091V3.091H0Z"/>
  </g>
  <g id="그룹_349" data-name="그룹 349" transform="translate(434.356 61.306)">
    <path id="패스_510" data-name="패스 510" class="cls-15" d="M0,0H-4.078V-4.078H-7.169V0h-4.079V3.091h4.079V7.169h3.091V3.091H0Z"/>
  </g>
  <g id="그룹_350" data-name="그룹 350" transform="translate(428.218 49.1)">
    <path id="패스_511" data-name="패스 511" class="cls-16" d="M0,0-10.166,2.876l-.364.1V18.494"/>
  </g>
  <g id="그룹_361" data-name="그룹 361" class="cls-7" transform="translate(0 355.5)">
    <g id="그룹_351" data-name="그룹 351" transform="translate(544.106 -218.481)">
      <path id="패스_512" data-name="패스 512" class="cls-14" d="M0,0,7.017-7.017,10.65-8.174q1.493-3.282,2.984-6.565l-.771-.772q-.387-.385-.772-.772L5.529-13.3,4.494-9.874-2.65-2.65Z"/>
    </g>
    <g id="그룹_352" data-name="그룹 352" transform="translate(544.106 -218.481)">
      <path id="패스_513" data-name="패스 513" class="cls-15" d="M0,0,7.017-7.017,10.65-8.174q1.493-3.282,2.984-6.565l-.771-.772q-.387-.385-.772-.772L5.529-13.3,4.494-9.874-2.65-2.65Z"/>
    </g>
    <g id="그룹_353" data-name="그룹 353" transform="translate(549.544 -192.736)">
      <path id="패스_514" data-name="패스 514" class="cls-19" d="M0,0A27.75,27.75,0,0,0,27.75-27.75,27.75,27.75,0,0,0,0-55.5,27.75,27.75,0,0,0-27.75-27.75,27.75,27.75,0,0,0,0,0"/>
    </g>
    <g id="그룹_354" data-name="그룹 354" transform="translate(551.819 -220.481)">
      <path id="패스_515" data-name="패스 515" class="cls-18" d="M0,0,7.017-7.017,10.65-8.174q1.493-3.282,2.984-6.565l-.771-.772q-.387-.385-.772-.772L5.529-13.3,4.494-9.874-2.65-2.65Z"/>
    </g>
    <g id="그룹_355" data-name="그룹 355" transform="translate(551.819 -220.481)">
      <path id="패스_516" data-name="패스 516" class="cls-15" d="M0,0,7.017-7.017,10.65-8.174q1.493-3.282,2.984-6.565l-.771-.772q-.387-.385-.772-.772L5.529-13.3,4.494-9.874-2.65-2.65Z"/>
    </g>
    <g id="그룹_356" data-name="그룹 356" transform="translate(548.908 -217.71)">
      <path id="패스_517" data-name="패스 517" class="cls-14" d="M0,0-2.1-2.1l-.353-.353L-2.81-2.1-5.385.473-6.857.607l-.18.016-.128.128-4.806,4.806-2.388,2.388-.3.3.249.345,2.358,3.274,3.387,2.471.345.249.3-.3L-5.632,11.9-.826,7.09-.7,6.962l.016-.18q.067-.737.134-1.472L2.027,2.735l.354-.354-.354-.354-2.1-2.1"/>
    </g>
    <g id="그룹_357" data-name="그룹 357" transform="translate(548.908 -217.71)">
      <path id="패스_518" data-name="패스 518" class="cls-15" d="M0,0-2.1-2.1l-.353-.353L-2.81-2.1-5.385.473-6.857.607l-.18.016-.128.128-4.806,4.806-2.388,2.388-.3.3.249.345,2.358,3.274,3.387,2.471.345.249.3-.3L-5.632,11.9-.826,7.09-.7,6.962l.016-.18q.067-.737.134-1.472L2.027,2.735l.354-.354-.354-.354-2.1-2.1"/>
    </g>
    <g id="그룹_358" data-name="그룹 358" transform="translate(551.268 -220.591)">
      <path id="패스_519" data-name="패스 519" class="cls-14" d="M0,0,3.778,3.778c.86.86,2.142.885,3.5.912,1.717.033,3.664.071,5.322,1.73a5.9,5.9,0,0,1,1.815,5.293L10.925,8.224l-.191-.192-.265.056-3.63.764L6.52,8.92l-.068.319-.764,3.63-.056.265.192.191,3.489,3.489A5.9,5.9,0,0,1,4.02,15c-1.659-1.658-1.7-3.6-1.73-5.322-.027-1.357-.052-2.639-.912-3.5L-2.339,2.461-6.055-1.255c-.861-.861-2.143-.886-3.5-.912-1.717-.034-3.663-.072-5.322-1.73A5.9,5.9,0,0,1-16.692-9.19L-13.2-5.7l.192.191.265-.056,3.63-.764L-8.8-6.4l.067-.319.764-3.63.056-.265L-8.1-10.8l-3.489-3.489A5.9,5.9,0,0,1-6.3-12.477c1.658,1.659,1.7,3.605,1.73,5.322.026,1.357.051,2.639.912,3.5L.123.123"/>
    </g>
    <g id="그룹_359" data-name="그룹 359" transform="translate(551.268 -220.591)">
      <path id="패스_520" data-name="패스 520" class="cls-15" d="M0,0,3.778,3.778c.86.86,2.142.885,3.5.912,1.717.033,3.664.071,5.322,1.73a5.9,5.9,0,0,1,1.815,5.293L10.925,8.224l-.191-.192-.265.056-3.63.764L6.52,8.92l-.068.319-.764,3.63-.056.265.192.191,3.489,3.489A5.9,5.9,0,0,1,4.02,15c-1.659-1.658-1.7-3.6-1.73-5.322-.027-1.357-.052-2.639-.912-3.5L-2.339,2.461-6.055-1.255c-.861-.861-2.143-.886-3.5-.912-1.717-.034-3.663-.072-5.322-1.73A5.9,5.9,0,0,1-16.692-9.19L-13.2-5.7l.192.191.265-.056,3.63-.764L-8.8-6.4l.067-.319.764-3.63.056-.265L-8.1-10.8l-3.489-3.489A5.9,5.9,0,0,1-6.3-12.477c1.658,1.659,1.7,3.605,1.73,5.322.026,1.357.051,2.639.912,3.5L.123.123"/>
    </g>
    <g id="그룹_360" data-name="그룹 360" transform="translate(550.012 -221.905)">
      <path id="패스_521" data-name="패스 521" class="cls-16" d="M0,0,3.778,3.778c.86.86,2.142.885,3.5.912,1.717.033,3.664.071,5.322,1.73a5.9,5.9,0,0,1,1.815,5.293L10.925,8.224l-.191-.192-.265.056-3.63.764L6.52,8.92l-.068.319-.764,3.63-.056.265.192.191,3.489,3.489A5.9,5.9,0,0,1,4.02,15c-1.659-1.658-1.7-3.6-1.73-5.322-.027-1.357-.052-2.639-.912-3.5L-2.339,2.461-6.055-1.255c-.861-.861-2.143-.886-3.5-.912-1.717-.034-3.663-.072-5.322-1.73A5.9,5.9,0,0,1-16.692-9.19L-13.2-5.7l.192.191.265-.056,3.63-.764L-8.8-6.4l.067-.319.764-3.63.056-.265L-8.1-10.8l-3.489-3.489A5.9,5.9,0,0,1-6.3-12.477c1.658,1.659,1.7,3.605,1.73,5.322.026,1.357.051,2.639.912,3.5L.123.123"/>
    </g>
  </g>
  <g id="그룹_362" data-name="그룹 362" transform="translate(547.978 137.994)">
    <path id="패스_523" data-name="패스 523" class="cls-15" d="M0,0-8.9,8.9"/>
  </g>
  <g id="그룹_364" data-name="그룹 364" class="cls-7" transform="translate(0 355.5)">
    <g id="그룹_363" data-name="그룹 363" transform="translate(547.652 -219.024)">
      <path id="패스_524" data-name="패스 524" class="cls-16" d="M0,0-2.1-2.1l-.353-.353L-2.81-2.1-5.385.473-6.857.607l-.18.016-.128.128-4.806,4.806-2.388,2.388-.3.3.248.345,2.359,3.274,3.387,2.471.345.249.3-.3L-5.632,11.9-.826,7.09-.7,6.962l.016-.18q.067-.737.134-1.472L2.027,2.735l.354-.354-.354-.354-2.1-2.1"/>
    </g>
  </g>
  <g id="그룹_365" data-name="그룹 365" transform="translate(545.722 137.68)">
    <path id="패스_526" data-name="패스 526" class="cls-15" d="M0,0-8.9,8.9"/>
  </g>
  <g id="그룹_375" data-name="그룹 375" class="cls-7" transform="translate(0 355.5)">
    <g id="그룹_366" data-name="그룹 366" transform="translate(414.313 -124.28)">
      <path id="패스_527" data-name="패스 527" class="cls-20" d="M0,0A27.75,27.75,0,0,0,27.75-27.75,27.75,27.75,0,0,0,0-55.5,27.75,27.75,0,0,0-27.75-27.75,27.75,27.75,0,0,0,0,0"/>
    </g>
    <g id="그룹_367" data-name="그룹 367" transform="translate(404.332 -166.476)">
      <path id="패스_528" data-name="패스 528" class="cls-14" d="M0,0,0,21.127v.894c0,.831,2,2.063,4.461,2.063s4.46-1.232,4.46-2.063V0"/>
    </g>
    <g id="그룹_368" data-name="그룹 368" transform="translate(404.332 -166.476)">
      <path id="패스_529" data-name="패스 529" class="cls-21" d="M0,0,0,21.127v.894c0,.831,2,2.063,4.461,2.063s4.46-1.232,4.46-2.063V0"/>
    </g>
    <g id="그룹_369" data-name="그룹 369" transform="translate(413.25 -164.66)">
      <path id="패스_530" data-name="패스 530" class="cls-14" d="M0,0C0-.655-2-1.187-4.461-1.187S-8.922-.655-8.922,0s2,1.187,4.461,1.187S0,.655,0,0"/>
    </g>
    <g id="그룹_370" data-name="그룹 370" transform="translate(413.25 -164.66)">
      <path id="패스_531" data-name="패스 531" class="cls-21" d="M0,0C0-.655-2-1.187-4.461-1.187S-8.922-.655-8.922,0s2,1.187,4.461,1.187S0,.655,0,0Z"/>
    </g>
    <g id="그룹_371" data-name="그룹 371" transform="translate(411.405 -160.934)">
      <path id="패스_532" data-name="패스 532" class="cls-14" d="M0,0,0,23l0,.973c0,.9,3.4,2.246,7.6,2.246s7.6-1.342,7.6-2.246V0"/>
    </g>
    <g id="그룹_372" data-name="그룹 372" transform="translate(411.405 -160.934)">
      <path id="패스_533" data-name="패스 533" class="cls-21" d="M0,0,0,23l0,.973c0,.9,3.4,2.246,7.6,2.246s7.6-1.342,7.6-2.246V0"/>
    </g>
    <g id="그룹_373" data-name="그룹 373" transform="translate(426.594 -161.134)">
      <path id="패스_534" data-name="패스 534" class="cls-14" d="M0,0C0-.735-3.4-1.331-7.6-1.331s-7.6.6-7.6,1.331,3.4,1.331,7.6,1.331S0,.735,0,0"/>
    </g>
    <g id="그룹_374" data-name="그룹 374" transform="translate(426.594 -161.134)">
      <path id="패스_535" data-name="패스 535" class="cls-21" d="M0,0C0-.735-3.4-1.331-7.6-1.331s-7.6.6-7.6,1.331,3.4,1.331,7.6,1.331S0,.735,0,0Z"/>
    </g>
  </g>
  <g id="그룹_376" data-name="그룹 376" transform="translate(424.757 197.587)">
    <path id="패스_537" data-name="패스 537" class="cls-21" d="M0,0V9.081"/>
  </g>
  <g id="그룹_377" data-name="그룹 377" transform="translate(415.574 197.587)">
    <path id="패스_538" data-name="패스 538" class="cls-21" d="M0,0V4.821"/>
  </g>
  <g id="그룹_378" data-name="그룹 378" transform="translate(415.574 204.313)">
    <path id="패스_539" data-name="패스 539" class="cls-21" d="M0,0V3.139"/>
  </g>
  <g id="그룹_379" data-name="그룹 379" transform="translate(420.14 197.587)">
    <path id="패스_540" data-name="패스 540" class="cls-21" d="M0,0V18.946"/>
  </g>
  <g id="그룹_380" data-name="그룹 380" transform="translate(424.757 208.91)">
    <path id="패스_541" data-name="패스 541" class="cls-21" d="M0,0V4.709"/>
  </g>
  <g id="그룹_389" data-name="그룹 389" class="cls-7" transform="translate(0 355.5)">
    <g id="그룹_381" data-name="그룹 381" transform="translate(402.651 -166.718)">
      <path id="패스_542" data-name="패스 542" class="cls-18" d="M0,0,0,21.127l0,.894c0,.831,2.384,2.062,5.325,2.062s5.325-1.231,5.325-2.062V0"/>
    </g>
    <g id="그룹_382" data-name="그룹 382" transform="translate(402.651 -166.718)">
      <path id="패스_543" data-name="패스 543" class="cls-21" d="M0,0,0,21.127l0,.894c0,.831,2.384,2.062,5.325,2.062s5.325-1.231,5.325-2.062V0"/>
    </g>
    <g id="그룹_383" data-name="그룹 383" transform="translate(413.297 -166.902)">
      <path id="패스_544" data-name="패스 544" class="cls-18" d="M0,0C0-.655-2.384-1.187-5.325-1.187S-10.65-.655-10.65,0s2.384,1.187,5.325,1.187S0,.655,0,0"/>
    </g>
    <g id="그룹_384" data-name="그룹 384" transform="translate(413.297 -166.902)">
      <path id="패스_545" data-name="패스 545" class="cls-21" d="M0,0C0-.655-2.384-1.187-5.325-1.187S-10.65-.655-10.65,0s2.384,1.187,5.325,1.187S0,.655,0,0Z"/>
    </g>
    <g id="그룹_385" data-name="그룹 385" transform="translate(410.724 -161.176)">
      <path id="패스_546" data-name="패스 546" class="cls-18" d="M0,0,0,23l0,.973c0,.9,3.4,2.246,7.6,2.246s7.6-1.342,7.6-2.246V0"/>
    </g>
    <g id="그룹_386" data-name="그룹 386" transform="translate(410.724 -161.176)">
      <path id="패스_547" data-name="패스 547" class="cls-21" d="M0,0,0,23l0,.973c0,.9,3.4,2.246,7.6,2.246s7.6-1.342,7.6-2.246V0"/>
    </g>
    <g id="그룹_387" data-name="그룹 387" transform="translate(425.912 -161.376)">
      <path id="패스_548" data-name="패스 548" class="cls-18" d="M0,0C0-.735-3.4-1.331-7.6-1.331s-7.6.6-7.6,1.331,3.4,1.331,7.6,1.331S0,.735,0,0"/>
    </g>
    <g id="그룹_388" data-name="그룹 388" transform="translate(425.912 -161.376)">
      <path id="패스_549" data-name="패스 549" class="cls-21" d="M0,0C0-.735-3.4-1.331-7.6-1.331s-7.6.6-7.6,1.331,3.4,1.331,7.6,1.331S0,.735,0,0Z"/>
    </g>
  </g>
  <g id="그룹_390" data-name="그룹 390" transform="translate(423.076 195.345)">
    <path id="패스_551" data-name="패스 551" class="cls-21" d="M0,0V9.081"/>
  </g>
  <g id="그룹_391" data-name="그룹 391" transform="translate(413.893 195.345)">
    <path id="패스_552" data-name="패스 552" class="cls-21" d="M0,0V4.821"/>
  </g>
  <g id="그룹_392" data-name="그룹 392" transform="translate(413.893 202.071)">
    <path id="패스_553" data-name="패스 553" class="cls-21" d="M0,0V3.139"/>
  </g>
  <g id="그룹_393" data-name="그룹 393" transform="translate(418.458 195.345)">
    <path id="패스_554" data-name="패스 554" class="cls-21" d="M0,0V18.946"/>
  </g>
  <g id="그룹_394" data-name="그룹 394" transform="translate(423.076 206.667)">
    <path id="패스_555" data-name="패스 555" class="cls-21" d="M0,0V4.708"/>
  </g>
  <g id="그룹_402" data-name="그룹 402" class="cls-7" transform="translate(0 355.5)">
    <g id="그룹_395" data-name="그룹 395" transform="translate(279.286 -195.862)">
      <path id="패스_556" data-name="패스 556" class="cls-22" d="M0,0A27.75,27.75,0,0,0,27.75-27.75,27.75,27.75,0,0,0,0-55.5,27.75,27.75,0,0,0-27.75-27.75,27.75,27.75,0,0,0,0,0"/>
    </g>
    <g id="그룹_396" data-name="그룹 396" transform="translate(293.896 -214.929)">
      <path id="패스_557" data-name="패스 557" class="cls-10" d="M0,0V-16.5l-14.293-8.251L-28.585-16.5V0l14.292,8.252L0,0"/>
    </g>
    <g id="그룹_397" data-name="그룹 397" transform="translate(293.896 -214.929)">
      <path id="패스_558" data-name="패스 558" class="cls-17" d="M0,0V-16.5l-14.293-8.251L-28.585-16.5V0l14.292,8.252Z"/>
    </g>
    <g id="그룹_398" data-name="그룹 398" transform="translate(293.26 -215.792)">
      <path id="패스_559" data-name="패스 559" class="cls-18" d="M0,0V-16.5l-14.292-8.251L-28.585-16.5V0l14.293,8.252L0,0"/>
    </g>
    <g id="그룹_399" data-name="그룹 399" transform="translate(293.26 -215.792)">
      <path id="패스_560" data-name="패스 560" class="cls-15" d="M0,0V-16.5l-14.292-8.251L-28.585-16.5V0l14.293,8.252Z"/>
    </g>
    <g id="그룹_400" data-name="그룹 400" transform="translate(287.453 -219.145)">
      <path id="패스_561" data-name="패스 561" class="cls-18" d="M0,0V-9.8l-8.486-4.9-8.486,4.9V0l8.486,4.9L0,0"/>
    </g>
    <g id="그룹_401" data-name="그룹 401" transform="translate(287.453 -219.145)">
      <path id="패스_562" data-name="패스 562" class="cls-15" d="M0,0V-9.8l-8.486-4.9-8.486,4.9V0l8.486,4.9Z"/>
    </g>
  </g>
  <g id="그룹_403" data-name="그룹 403" transform="translate(264.551 123.253)">
    <path id="패스_564" data-name="패스 564" class="cls-15" d="M0,0,5.539,3.054"/>
  </g>
  <g id="그룹_404" data-name="그룹 404" transform="translate(293.462 123.318)">
    <path id="패스_565" data-name="패스 565" class="cls-15" d="M0,0-5.717,2.917"/>
  </g>
  <g id="그룹_405" data-name="그룹 405" transform="translate(278.957 141.445)">
    <path id="패스_566" data-name="패스 566" class="cls-15" d="M0,0V6.87"/>
  </g>
  <g id="그룹_406" data-name="그룹 406" transform="translate(278.745 121.325)">
    <path id="패스_567" data-name="패스 567" class="cls-16" d="M0,0V10.02l-8.184,4.849"/>
  </g>
  <g id="그룹_407" data-name="그룹 407" transform="translate(287.614 136.185)">
    <path id="패스_568" data-name="패스 568" class="cls-15" d="M0,0-8.563-4.61"/>
  </g>
</svg>
