<svg id="구성_요소_57_1" data-name="구성 요소 57 – 1" xmlns="http://www.w3.org/2000/svg" width="835.902" height="546.586" viewBox="0 0 835.902 546.586">
  <defs>
    <style>
      .cls-1 {
        fill: #f4f6f7;
      }

      .cls-2, .cls-8 {
        fill: #1e498b;
      }

      .cls-3 {
        fill: none;
      }

      .cls-3, .cls-7 {
        stroke: #1e498b;
        stroke-width: 0.5px;
      }

      .cls-4, .cls-7 {
        fill: #fff;
      }

      .cls-4, .cls-8 {
        font-size: 15px;
      }

      .cls-11, .cls-4, .cls-8 {
        font-family: NotoSansKR-Regular, Noto Sans KR;
      }

      .cls-11, .cls-15, .cls-4, .cls-8 {
        letter-spacing: -0.02em;
      }

      .cls-5 {
        fill: #1393d1;
      }

      .cls-6 {
        fill: #90c8df;
      }

      .cls-10, .cls-9 {
        fill: #1e2323;
        font-size: 12px;
      }

      .cls-10, .cls-14, .cls-9 {
        font-family: NotoSansKR-Light, Noto Sans KR;
        font-weight: 300;
      }

      .cls-14, .cls-9 {
        letter-spacing: -0.015em;
      }

      .cls-11 {
        fill: #4b4f4f;
        font-size: 13px;
      }

      .cls-12 {
        fill: #5e6366;
      }

      .cls-13 {
        fill: #828484;
      }

      .cls-14 {
        fill: #64666b;
        font-size: 11px;
      }

      .cls-15 {
        fill: #6f7175;
        font-size: 16px;
        font-family: NotoSansKR-Medium, Noto Sans KR;
        font-weight: 500;
      }
    </style>
  </defs>
  <path id="패스_591" data-name="패스 591" class="cls-1" d="M0,0H835.9V-546.586H0Z" transform="translate(0 546.586)"/>
  <path id="패스_592" data-name="패스 592" class="cls-2" d="M568.858-443.722H816.236v-36.75H568.858Z" transform="translate(0 546.586)"/>
  <path id="패스_593" data-name="패스 593" class="cls-2" d="M26.108-443.722H540.1v-36.75H26.108Z" transform="translate(0 546.586)"/>
  <g id="그룹_425" data-name="그룹 425" transform="translate(278.705 161.818)">
    <path id="패스_594" data-name="패스 594" class="cls-3" d="M0,0V143.795"/>
  </g>
  <path id="패스_595" data-name="패스 595" class="cls-2" d="M151.892-384.766H405.51v-30H151.892Z" transform="translate(0 546.586)"/>
  <text id="CEO" class="cls-4" transform="translate(264.241 152.541)"><tspan x="0" y="0">CEO</tspan></text>
  <path id="패스_596" data-name="패스 596" class="cls-5" d="M151.892-326.311H405.51v-30H151.892Z" transform="translate(0 546.586)"/>
  <text id="IT센터장" class="cls-4" transform="translate(251.911 210.996)"><tspan x="0" y="0">IT</tspan><tspan y="0">센터장</tspan></text>
  <path id="패스_597" data-name="패스 597" class="cls-6" d="M151.892-267.855H405.51v-30H151.892Z" transform="translate(0 546.586)"/>
  <text id="정보보호관리자" class="cls-4" transform="translate(231.301 269.452)"><tspan x="0" y="0">정보보호관리자</tspan></text>
  <path id="패스_598" data-name="패스 598" class="cls-7" d="M20.108-446.722H534.1v-33.5H20.108Z" transform="translate(0 546.586)"/>
  <text id="_01._책임_및_담당자" data-name="01. 책임 및 담당자" class="cls-8" transform="translate(220.637 89.161)"><tspan x="0" y="0">01. 책임 및 담당자</tspan></text>
  <g id="그룹_426" data-name="그룹 426" transform="translate(278.463 175.113)">
    <path id="패스_599" data-name="패스 599" class="cls-3" d="M0,0H286.626"/>
  </g>
  <path id="패스_600" data-name="패스 600" class="cls-6" d="M174.006-210.844H524.8v-30h-350.8Z" transform="translate(0 546.586)"/>
  <text id="보안팀" class="cls-4" transform="translate(329.003 327.451)"><tspan x="0" y="0">보안팀</tspan></text>
  <g id="그룹" transform="translate(0 546.586)">
    <text id="정보보호_기획_및_" data-name="정보보호 기획 및 " class="cls-9" transform="translate(189.608 -178.563)"><tspan x="0" y="0">정보보호 기획 및 </tspan></text>
    <text id="계획_수립" data-name="계획 수립" class="cls-9" transform="translate(207.488 -162.567)"><tspan x="0" y="0">계획 수립</tspan></text>
  </g>
  <path id="패스_601" data-name="패스 601" class="cls-3" d="M174.256-151.094H287.522v-49.5H174.256Z" transform="translate(0 546.586)"/>
  <g id="그룹-2" data-name="그룹" transform="translate(0 546.586)">
    <text id="정보보호_사업_" data-name="정보보호 사업 " class="cls-9" transform="translate(315.143 -178.563)"><tspan x="0" y="0">정보보호 사업 </tspan></text>
    <text id="_" data-name=" " class="cls-10" transform="translate(386.663 -178.563)"><tspan x="0" y="0"> </tspan></text>
    <text id="관리_개선_구축_등_" data-name="관리(개선, 구축 등)" class="cls-9" transform="translate(303.119 -162.567)"><tspan x="0" y="0">관리(개선, 구축 등)</tspan></text>
  </g>
  <path id="패스_602" data-name="패스 602" class="cls-3" d="M292.77-151.094H406.036v-49.5H292.77Z" transform="translate(0 546.586)"/>
  <g id="그룹-3" data-name="그룹" transform="translate(0 546.586)">
    <text id="ISMS_ISO27001인" data-name="ISMS/ISO27001인" class="cls-9" transform="translate(422.367 -178.563)"><tspan x="0" y="0">ISMS/ISO27001</tspan><tspan y="0">인</tspan></text>
    <text id="증_위험평가" data-name="증, 위험평가" class="cls-9" transform="translate(437.667 -162.567)"><tspan x="0" y="0">증, 위험평가</tspan></text>
  </g>
  <path id="패스_603" data-name="패스 603" class="cls-3" d="M411.285-151.094H524.551v-49.5H411.285Z" transform="translate(0 546.586)"/>
  <text id="정보보호진단" class="cls-9" transform="translate(316.733 436.023)"><tspan x="0" y="0">정보보호진단</tspan></text>
  <path id="패스_604" data-name="패스 604" class="cls-3" d="M292.77-91.1H406.036v-49.5H292.77Z" transform="translate(0 546.586)"/>
  <text id="CERT_모의해킹" data-name="CERT, 모의해킹" class="cls-9" transform="translate(192.158 436.023)"><tspan x="0" y="0">CERT, </tspan><tspan y="0">모의해킹</tspan></text>
  <path id="패스_605" data-name="패스 605" class="cls-3" d="M174.256-91.1H287.522v-49.5H174.256Z" transform="translate(0 546.586)"/>
  <g id="그룹-4" data-name="그룹" transform="translate(0 546.586)">
    <text id="정보보호_" data-name="정보보호 " class="cls-9" transform="translate(446.108 -118.563)"><tspan x="0" y="0">정보보호 </tspan></text>
    <text id="_2" data-name=" " class="cls-10" transform="translate(492.728 -118.563)"><tspan x="0" y="0"> </tspan></text>
    <text id="시스템_운영" data-name="시스템 운영" class="cls-9" transform="translate(439.088 -102.567)"><tspan x="0" y="0">시스템 운영</tspan></text>
  </g>
  <path id="패스_606" data-name="패스 606" class="cls-3" d="M411.285-91.1H524.551v-49.5H411.285Z" transform="translate(0 546.586)"/>
  <g id="그룹-5" data-name="그룹" transform="translate(0 546.586)">
    <text id="정보보호_라이플_" data-name="정보보호 라이플 " class="cls-9" transform="translate(191.198 -58.563)"><tspan x="0" y="0">정보보호 라이플 </tspan></text>
    <text id="사이클_관리" data-name="사이클 관리" class="cls-9" transform="translate(202.058 -42.567)"><tspan x="0" y="0">사이클 관리</tspan></text>
  </g>
  <path id="패스_607" data-name="패스 607" class="cls-3" d="M174.256-31.094H287.522v-49.5H174.256Z" transform="translate(0 546.586)"/>
  <g id="그룹-6" data-name="그룹" transform="translate(0 546.586)">
    <text id="공용업무_:_Complianc" data-name="공용업무 : Complianc" class="cls-9" transform="translate(336.829 -58.563)"><tspan x="0" y="0">공용업무 : </tspan><tspan y="0">Complianc</tspan></text>
    <text id="e_검토_" data-name="e 검토, " class="cls-9" transform="translate(446.305 -58.563)"><tspan x="0" y="0">e </tspan><tspan y="0">검토, </tspan></text>
    <text id="_3" data-name=" " class="cls-10" transform="translate(483.493 -58.563)"><tspan x="0" y="0"> </tspan></text>
    <text id="부서_커뮤니케이션" data-name="부서 커뮤니케이션" class="cls-9" transform="translate(363.541 -42.567)"><tspan x="0" y="0">부서 커뮤니케이션</tspan></text>
  </g>
  <path id="패스_608" data-name="패스 608" class="cls-3" d="M292.77-31.094H524.551v-49.5H292.77Z" transform="translate(0 546.586)"/>
  <path id="패스_609" data-name="패스 609" class="cls-6" d="M19.858-210.844H145.129v-30H19.858Z" transform="translate(0 546.586)"/>
  <text id="현업_부서" data-name="현업 부서" class="cls-4" transform="translate(53.394 327.451)"><tspan x="0" y="0">현업 부서</tspan></text>
  <text id="법무_검토" data-name="법무 검토" class="cls-11" transform="translate(57.274 368.463)"><tspan x="0" y="0">법무 검토</tspan></text>
  <text id="법무팀" class="cls-9" transform="translate(66.114 384.463)"><tspan x="0" y="0">법무팀</tspan></text>
  <path id="패스_610" data-name="패스 610" class="cls-3" d="M20.108-151.094H144.879v-49.5H20.108Z" transform="translate(0 546.586)"/>
  <text id="영업현장_진단" data-name="영업현장 진단" class="cls-11" transform="translate(45.574 428.463)"><tspan x="0" y="0">영업현장 진단</tspan></text>
  <text id="준법경영팀_진단팀" data-name="준법경영팀, 진단팀" class="cls-9" transform="translate(35.958 444.463)"><tspan x="0" y="0">준법경영팀, 진단팀</tspan></text>
  <path id="패스_611" data-name="패스 611" class="cls-3" d="M20.108-91.094H144.879v-49.5H20.108Z" transform="translate(0 546.586)"/>
  <text id="민원_관리" data-name="민원 관리" class="cls-11" transform="translate(57.274 488.463)"><tspan x="0" y="0">민원 관리</tspan></text>
  <g id="그룹-7" data-name="그룹" transform="translate(0 546.586)">
    <text id="C" class="cls-9" transform="translate(38.946 -42.123)"><tspan x="0" y="0">C</tspan></text>
    <text id="CM팀_C" data-name="CM팀, C" class="cls-9" transform="translate(45.966 -42.123)"><tspan x="0" y="0">CM</tspan><tspan y="0">팀, </tspan><tspan y="0">C</tspan></text>
    <text id="S전략팀" class="cls-9" transform="translate(86.502 -42.123)"><tspan x="0" y="0">S</tspan><tspan y="0">전략팀</tspan></text>
  </g>
  <path id="패스_612" data-name="패스 612" class="cls-3" d="M20.108-31.094H144.879v-49.5H20.108Z" transform="translate(0 546.586)"/>
  <path id="패스_613" data-name="패스 613" class="cls-7" d="M562.858-446.722H810.236v-33.5H562.858Z" transform="translate(0 546.586)"/>
  <text id="_02._정보보호_위원회" data-name="02. 정보보호 위원회" class="cls-8" transform="translate(620.473 89.161)"><tspan x="0" y="0">02. 정보보호 위원회</tspan></text>
  <g id="그룹_427" data-name="그룹 427" transform="translate(689.516 161.82)">
    <path id="패스_614" data-name="패스 614" class="cls-3" d="M0,0V86.912"/>
  </g>
  <path id="패스_615" data-name="패스 615" class="cls-12" d="M565.09-356.721H813.959v-30H565.09Z" transform="translate(0 546.586)"/>
  <text id="정보보호위원장_IT센터장" data-name="정보보호위원장 IT센터장" class="cls-4" transform="translate(613.534 180.584)"><tspan x="0" y="0">정보보호위원장 </tspan><tspan y="0">IT</tspan><tspan y="0">센터장</tspan></text>
  <path id="패스_616" data-name="패스 616" class="cls-13" d="M565.09-267.855H813.959v-30H565.09Z" transform="translate(0 546.586)"/>
  <text id="정보보호_위원" data-name="정보보호 위원" class="cls-4" transform="translate(646.924 268.732)"><tspan x="0" y="0">정보보호 위원</tspan></text>
  <text id="관련_본부장_및_팀장" data-name="관련 본부장 및 팀장" class="cls-9" transform="translate(641.225 468.692)"><tspan x="0" y="0">관련 본부장 및 팀장</tspan></text>
  <path id="패스_617" data-name="패스 617" class="cls-3" d="M565.34-61.963H813.709v-42.424H565.34Z" transform="translate(0 546.586)"/>
  <g id="그룹-8" data-name="그룹" transform="translate(0 546.586)">
    <text id="환경가전사업" class="cls-9" transform="translate(593.252 -181.279)"><tspan x="0" y="0">환경가전사업</tspan></text>
    <text id="_4" data-name=" " class="cls-10" transform="translate(658.592 -181.279)"><tspan x="0" y="0"> </tspan></text>
    <text id="본부장" class="cls-9" transform="translate(609.548 -165.283)"><tspan x="0" y="0">본부장</tspan></text>
  </g>
  <path id="패스_618" data-name="패스 618" class="cls-3" d="M565.34-157.348H686.5v-42.424H565.34Z" transform="translate(0 546.586)"/>
  <g id="그룹-9" data-name="그룹" transform="translate(0 546.586)">
    <text id="코스메틱사업" class="cls-9" transform="translate(720.457 -181.279)"><tspan x="0" y="0">코스메틱사업</tspan></text>
    <text id="_5" data-name=" " class="cls-10" transform="translate(785.797 -181.279)"><tspan x="0" y="0"> </tspan></text>
    <text id="본부장-2" data-name="본부장" class="cls-9" transform="translate(736.753 -165.283)"><tspan x="0" y="0">본부장</tspan></text>
  </g>
  <path id="패스_619" data-name="패스 619" class="cls-3" d="M692.545-157.348H813.709v-42.424H692.545Z" transform="translate(0 546.586)"/>
  <text id="윤리경영실장" class="cls-9" transform="translate(593.252 325.615)"><tspan x="0" y="0">윤리경영실장</tspan></text>
  <path id="패스_620" data-name="패스 620" class="cls-3" d="M565.34-205.041H686.5v-42.422H565.34Z" transform="translate(0 546.586)"/>
  <text id="상품개발센터" class="cls-9" transform="translate(720.457 325.615)"><tspan x="0" y="0">상품개발센터</tspan></text>
  <path id="패스_621" data-name="패스 621" class="cls-3" d="M692.545-205.041H813.709v-42.422H692.545Z" transform="translate(0 546.586)"/>
  <text id="경영관리본부" class="cls-9" transform="translate(593.252 420.999)"><tspan x="0" y="0">경영관리본부</tspan></text>
  <path id="패스_622" data-name="패스 622" class="cls-3" d="M565.34-109.656H686.5v-42.422H565.34Z" transform="translate(0 546.586)"/>
  <text id="정보보호_관리자" data-name="정보보호 관리자" class="cls-9" transform="translate(713.437 420.999)"><tspan x="0" y="0">정보보호 관리자</tspan></text>
  <path id="패스_623" data-name="패스 623" class="cls-3" d="M692.545-110.133H813.709V-151.6H692.545Z" transform="translate(0 546.586)"/>
  <text id="_관련_본부장_및_팀장은_위원회_안건에_따라_유동적_구성" data-name="*관련 본부장 및 팀장은 위원회 안건에 따라 유동적 구성" class="cls-14" transform="translate(565.09 510.21)"><tspan x="0" y="0">*관련 본부장 및 팀장은 위원회 안건에 따라 유동적 구성</tspan></text>
  <text id="정보보호_조직도" data-name="정보보호 조직도" class="cls-15" transform="translate(19.858 40.194)"><tspan x="0" y="0">정보보호 조직도</tspan></text>
</svg>
