<svg id="구성_요소_57_1" data-name="구성 요소 57 – 1" xmlns="http://www.w3.org/2000/svg" width="835.902" height="546.586" viewBox="0 0 835.902 546.586">
  <defs>
    <style>
      .cls-1 {
        fill: #f4f6f7;
      }

      .cls-2 {
        fill: #1e498b;
      }

      .cls-3 {
        fill: none;
      }

      .cls-3, .cls-7 {
        stroke: #1e498b;
        stroke-width: 0.5px;
      }

      .cls-4, .cls-7 {
        fill: #fff;
      }

      .cls-5 {
        fill: #1393d1;
      }

      .cls-6 {
        fill: #90c8df;
      }

      .cls-11, .cls-8, .cls-9 {
        fill: #1e2323;
      }

      .cls-11, .cls-9 {
        font-size: 12px;
      }

      .cls-11, .cls-14, .cls-9 {
        font-family: NotoSansKR-Light, Noto Sans KR;
        font-weight: 300;
      }

      .cls-10 {
        fill: #4b4f4f;
      }

      .cls-11, .cls-14 {
        letter-spacing: -0.015em;
      }

      .cls-12 {
        fill: #5e6366;
      }

      .cls-13 {
        fill: #828484;
      }

      .cls-14 {
        fill: #64666b;
        font-size: 11px;
      }

      .cls-15 {
        fill: #6f7175;
      }
    </style>
  </defs>
  <path id="패스_591" data-name="패스 591" class="cls-1" d="M0,0H835.9V-546.586H0Z" transform="translate(0 546.586)"/>
  <path id="패스_592" data-name="패스 592" class="cls-2" d="M568.858-443.722H816.236v-36.75H568.858Z" transform="translate(0 546.586)"/>
  <path id="패스_593" data-name="패스 593" class="cls-2" d="M26.108-443.722H540.1v-36.75H26.108Z" transform="translate(0 546.586)"/>
  <g id="그룹_425" data-name="그룹 425" transform="translate(278.705 161.818)">
    <path id="패스_594" data-name="패스 594" class="cls-3" d="M0,0V143.795"/>
  </g>
  <path id="패스_595" data-name="패스 595" class="cls-2" d="M151.892-384.766H405.51v-30H151.892Z" transform="translate(0 546.586)"/>
  <path id="패스_862" data-name="패스 862" class="cls-4" d="M5.655.2A4.251,4.251,0,0,0,9.03-1.38l-.765-.87a3.342,3.342,0,0,1-2.55,1.23c-2.1,0-3.42-1.74-3.42-4.515C2.3-8.28,3.675-9.99,5.76-9.99A3,3,0,0,1,8.01-8.94l.75-.9A4.066,4.066,0,0,0,5.745-11.2C2.955-11.2.87-9.045.87-5.49S2.925.2,5.655.2ZM10.77,0h6.51V-1.185H12.165v-4h4.17V-6.375h-4.17v-3.45h4.95v-1.17H10.77ZM23.355.2c2.76,0,4.695-2.2,4.695-5.73s-1.935-5.67-4.695-5.67S18.66-9.06,18.66-5.535,20.6.2,23.355.2Zm0-1.215c-1.98,0-3.27-1.77-3.27-4.515,0-2.76,1.29-4.455,3.27-4.455,1.965,0,3.27,1.695,3.27,4.455C26.625-2.79,25.32-1.02,23.355-1.02Z" transform="translate(264.241 152.541)"/>
  <path id="패스_596" data-name="패스 596" class="cls-5" d="M151.892-326.311H405.51v-30H151.892Z" transform="translate(0 546.586)"/>
  <path id="패스_863" data-name="패스 863" class="cls-4" d="M1.5,0H2.895V-10.995H1.5ZM7.89,0h1.4V-9.825h3.33v-1.17H4.56v1.17H7.89ZM24.93-12.345H23.745v10.1H24.93ZM21.12-2.64h1.155v-9.435H21.12v3.12h-2.1V-7.95h2.1Zm-.93-2.835A4.391,4.391,0,0,1,17.55-9.42V-11.4H16.365v1.98A4.965,4.965,0,0,1,13.6-5.13l.69.945a5.594,5.594,0,0,0,2.67-3.12,5.021,5.021,0,0,0,2.55,2.775ZM17.385-.2V-3.48h-1.23V.81H25.32V-.2ZM28.92-6.345h4.41v-.99H28.92V-10.11h5v-1.02H27.69v9.015h1.035a32.71,32.71,0,0,0,6.15-.42l-.135-1a30.387,30.387,0,0,1-5.82.42Zm8.01-6.015v5.085H34.155v1.02H36.93v7.38h1.23V-12.36ZM48.375-5.835a4.376,4.376,0,0,1-3.255-3.99v-.525h2.97v-.99H40.875v.99H43.89v.525a4.765,4.765,0,0,1-3.375,4.38l.63.975a5.556,5.556,0,0,0,3.39-3.3A5.232,5.232,0,0,0,47.79-4.875ZM46.74.12c-2.01,0-3.21-.555-3.21-1.515s1.2-1.5,3.21-1.5c1.98,0,3.195.555,3.195,1.5S48.72.12,46.74.12Zm0-3.99c-2.76,0-4.44.915-4.44,2.475C42.3.18,43.98,1.1,46.74,1.1c2.73,0,4.425-.915,4.425-2.49C51.165-2.955,49.47-3.87,46.74-3.87Zm4.275-5.07v-3.39h-1.23v8.115h1.23v-3.69H53.01V-8.94Z" transform="translate(251.911 210.996)"/>
  <path id="패스_597" data-name="패스 597" class="cls-6" d="M151.892-267.855H405.51v-30H151.892Z" transform="translate(0 546.586)"/>
  <path id="패스_864" data-name="패스 864" class="cls-4" d="M7.98-8.85v1h2.655V-4.32H11.88v-8.01H10.635v3.48Zm.75,3.06A4.632,4.632,0,0,1,5.46-9.9v-.465H8.415v-.99H1.23v.99h3V-9.9A4.96,4.96,0,0,1,.84-5.415l.645.975a5.823,5.823,0,0,0,3.39-3.42,5.527,5.527,0,0,0,3.24,3.03ZM7.44.15C5.415.15,4.185-.42,4.185-1.395s1.23-1.56,3.255-1.56,3.255.585,3.255,1.56S9.465.15,7.44.15Zm0-4.05c-2.76,0-4.485.915-4.485,2.5S4.68,1.11,7.44,1.11s4.47-.915,4.47-2.5S10.2-3.9,7.44-3.9Zm9.51-4.08h6.87v2.475H16.95ZM21-1.62V-4.515h4.02v-6.87h-1.2v2.4H16.95v-2.4H15.735v6.87h4.02V-1.62H14.3v1H26.49v-1Zm9.45-6.36h6.87v2.475H30.45ZM34.5-1.62V-4.515h4.02v-6.87h-1.2v2.4H30.45v-2.4H29.235v6.87h4.02V-1.62H27.8v1H39.99v-1Zm18.315-8.76H48v-1.755H46.77v1.755H41.9v1h10.92Zm-8.61,4.47c0-.99,1.215-1.59,3.18-1.59,1.935,0,3.135.6,3.135,1.59S49.32-4.3,47.385-4.3C45.42-4.3,44.205-4.9,44.205-5.91ZM48-1.47V-3.36c2.34-.15,3.765-1.05,3.765-2.55,0-1.62-1.695-2.55-4.38-2.55-2.73,0-4.425.93-4.425,2.55,0,1.5,1.44,2.415,3.81,2.55v1.89H41.295v1H53.49v-1ZM61.86-6.6a19.459,19.459,0,0,0,.345-3.99V-11.3h-6.69v1.005h5.49a17.1,17.1,0,0,1-.36,3.555Zm1.275.81c-1.365.2-2.9.3-4.365.36V-8.3H57.555v2.91c-1.02.015-1.995.03-2.85.03l.12,1.005a53.915,53.915,0,0,0,8.4-.54ZM57.99-3.135H56.76V.81H65.7V-.2H57.99Zm7.275-4.83v-4.38h-1.23V-2.2h1.23v-4.74H67.2v-1.02Zm5.04,1.68H75.27V-11.1H69.03v1.005h5v2.8h-4.95v5.16h1.11a39.044,39.044,0,0,0,6.78-.495l-.12-1a39.538,39.538,0,0,1-6.54.48Zm7.8-6.075V1.125h1.23V-12.36Zm8.22,2.415H89.31v-1.02H82.035v1.02H85.11v1.71a7.033,7.033,0,0,1-3.54,5.79l.72.975a7.6,7.6,0,0,0,3.435-4.455A7.26,7.26,0,0,0,89.1-1.8l.705-.99a6.47,6.47,0,0,1-3.48-5.445Zm8.04,3.03h-2.22V-12.33h-1.23V1.11h1.23V-5.88h2.22Z" transform="translate(231.301 269.452)"/>
  <path id="패스_598" data-name="패스 598" class="cls-7" d="M20.108-446.722H534.1v-33.5H20.108Z" transform="translate(0 546.586)"/>
  <path id="패스_861" data-name="패스 861" class="cls-2" d="M4.17.2C6.255.2,7.59-1.71,7.59-5.535S6.255-11.2,4.17-11.2C2.07-11.2.735-9.36.735-5.535S2.07.2,4.17.2ZM4.17-.9c-1.26,0-2.1-1.4-2.1-4.635,0-3.21.84-4.56,2.1-4.56,1.245,0,2.085,1.35,2.085,4.56C6.255-2.3,5.415-.9,4.17-.9ZM9.345,0h6.03V-1.14h-2.2v-9.855H12.12a6.967,6.967,0,0,1-2.28.78v.87h1.95V-1.14H9.345Zm8.79.2a.991.991,0,0,0,.99-1.035,1.017,1.017,0,0,0-.99-1.065,1.017,1.017,0,0,0-.99,1.065A.991.991,0,0,0,18.135.2ZM30.48-5.67a4.077,4.077,0,0,1-2.73-3.765v-.15h2.4v-.99h-2.4V-12.2H26.58v1.62H24.15v.99h2.43v.15A4.353,4.353,0,0,1,23.88-5.4l.6.9a4.745,4.745,0,0,0,2.7-2.955A4.811,4.811,0,0,0,29.9-4.725Zm-4.4,3.3H33.9V1.11h1.23V-3.375H26.085Zm7.86-9.96v3.585H32.25V-12.1H31.095V-4.17H32.25V-7.74h1.695v3.66H35.13v-8.25Zm13.14,0v7.7h1.23v-7.7Zm-7.47,8.415V.93h8.7V-3.915Zm7.5.975V-.06h-6.3V-2.94Zm-6.03-8.685A3.2,3.2,0,0,0,37.59-8.49a3.2,3.2,0,0,0,3.495,3.135A3.213,3.213,0,0,0,44.61-8.49,3.213,3.213,0,0,0,41.085-11.625Zm0,1.02A2.15,2.15,0,0,1,43.41-8.49a2.141,2.141,0,0,1-2.325,2.115A2.124,2.124,0,0,1,38.79-8.49,2.132,2.132,0,0,1,41.085-10.605Zm23.775-1.74H63.63V-4.62h1.23ZM59.625-6.96H55.74V-10.5h3.885Zm1.2-4.515H54.54v5.5h6.285Zm4.35,8.715V-3.7H61.23v-1.3H59.985v1.3H56.04v.945h3.93C59.955-1.425,57.81-.15,55.515.12l.405.945a6.724,6.724,0,0,0,4.695-2.46,6.625,6.625,0,0,0,4.62,2.46l.42-.945c-2.31-.285-4.41-1.59-4.425-2.88Zm13-4.185a28.444,28.444,0,0,1-5.94.45v-3.96h4.695v-.99H71.01v5.97h1.05a28.964,28.964,0,0,0,6.255-.48ZM73.59-3.03h6.03V-.075H73.59ZM72.39.915h8.445V-4H72.39ZM82.83-9.06h-2v-3.3H79.6v7.635h1.23V-8.04h2Zm8.865,2.175a26.846,26.846,0,0,1-5.985.465v-3.9h4.725v-.99h-5.94v5.9h1.05A29.316,29.316,0,0,0,91.83-5.88ZM90.06.105c-1.995,0-3.225-.6-3.225-1.59s1.23-1.59,3.225-1.59,3.21.6,3.21,1.59S92.04.105,90.06.105Zm0-4.17c-2.73,0-4.44.96-4.44,2.58S87.33,1.1,90.06,1.1s4.425-.96,4.425-2.58S92.775-4.065,90.06-4.065ZM94.35-8.85v-3.5H93.1v8.01H94.35v-3.5h1.98V-8.85Zm7.575-1.1h2.985v-1.02H97.635v1.02h3.075v1.71a7.033,7.033,0,0,1-3.54,5.79l.72.975a7.6,7.6,0,0,0,3.435-4.455A7.26,7.26,0,0,0,104.7-1.8l.705-.99a6.47,6.47,0,0,1-3.48-5.445Zm8.04,3.03h-2.22V-12.33h-1.23V1.11h1.23V-5.88h2.22Z" transform="translate(220.637 89.161)"/>
  <g id="그룹_426" data-name="그룹 426" transform="translate(278.463 175.113)">
    <path id="패스_599" data-name="패스 599" class="cls-3" d="M0,0H286.626"/>
  </g>
  <path id="패스_600" data-name="패스 600" class="cls-6" d="M174.006-210.844H524.8v-30h-350.8Z" transform="translate(0 546.586)"/>
  <path id="패스_866" data-name="패스 866" class="cls-4" d="M3.45-7.98h6.87v2.475H3.45ZM7.5-1.62V-4.515h4.02v-6.87h-1.2v2.4H3.45v-2.4H2.235v6.87h4.02V-1.62H.8v1H12.99v-1Zm8.25-6.465a2.207,2.207,0,0,1,2.31-2.25,2.207,2.207,0,0,1,2.31,2.25,2.207,2.207,0,0,1-2.31,2.25A2.207,2.207,0,0,1,15.75-8.085Zm5.82,0A3.3,3.3,0,0,0,18.06-11.4a3.3,3.3,0,0,0-3.51,3.315A3.3,3.3,0,0,0,18.06-4.77,3.3,3.3,0,0,0,21.57-8.085ZM17.6-3.45h-1.23V.81h8.97V-.2H17.6Zm7.14-4.8v-4.1h-1.23v9.9h1.23V-7.23H26.73V-8.25ZM36.06-6.495a35.2,35.2,0,0,1-6.27.375V-7.89H34.6v-.975H29.79V-10.53h5.19v-.99H28.56v6.39h1.1a36.562,36.562,0,0,0,6.54-.39Zm-4.725,3.84h6.3V-.06h-6.3ZM30.135.93h8.7V-3.645h-8.7ZM37.6-12.33V-4.3h1.23V-12.33Z" transform="translate(329.003 327.451)"/>
  <g id="그룹" transform="translate(0 546.586)">
    <path id="패스_872" data-name="패스 872" class="cls-8" d="M6.324-6.936v.54h2.4v2.928H9.36V-9.816H8.724v2.88Zm.552,2.5A3.879,3.879,0,0,1,4.188-7.764v-.66h2.5v-.54H1.02v.54H3.564v.672A4.165,4.165,0,0,1,.792-4.128l.324.516A4.816,4.816,0,0,0,3.9-6.528,4.555,4.555,0,0,0,6.552-3.936ZM5.916.3C4.176.3,3.06-.24,3.06-1.128S4.176-2.556,5.916-2.556s2.868.54,2.868,1.428S7.656.3,5.916.3Zm0-3.372c-2.172,0-3.492.7-3.492,1.944S3.744.816,5.916.816,9.408.12,9.408-1.128,8.076-3.072,5.916-3.072ZM13.38-6.42h5.976v2.244H13.38Zm3.288,5.292V-3.636H19.98V-9.024h-.624V-6.96H13.38V-9.024h-.636v5.388h3.288v2.508h-4.5v.54h9.684v-.54ZM24.24-6.42h5.976v2.244H24.24Zm3.288,5.292V-3.636H30.84V-9.024h-.624V-6.96H24.24V-9.024H23.6v5.388h3.288v2.508h-4.5v.54h9.684v-.54ZM42.336-8.112H38.4v-1.5h-.636v1.5H33.78v.54h8.556ZM35.3-4.716c0-.9,1.092-1.464,2.772-1.464s2.772.564,2.772,1.464-1.092,1.488-2.772,1.488S35.3-3.8,35.3-4.716Zm3.1,3.66V-2.724c1.908-.072,3.084-.792,3.084-1.992,0-1.26-1.308-1.992-3.408-1.992s-3.408.732-3.408,1.992c0,1.2,1.176,1.92,3.1,2v1.656h-4.5v.54h9.66v-.54ZM47.256-8.64v.54h4.26c-.168,2.628-1.788,4.9-4.716,6.312l.348.528c3.432-1.692,5-4.4,5-7.38Zm7.38-1.176V.84h.636V-9.816Zm9.48,1.08h-2.8V-9.9h-.636v1.164h-2.8v.5h6.228ZM59.148-6.168c0-.648.744-1.092,1.86-1.092s1.872.444,1.872,1.092-.744,1.1-1.872,1.1S59.148-5.508,59.148-6.168Zm5.316,2.124c-1,.144-2.076.228-3.144.276V-4.6c1.32-.084,2.16-.648,2.16-1.572,0-.96-.984-1.56-2.472-1.56s-2.46.6-2.46,1.56c0,.924.84,1.488,2.136,1.572v.852c-1.14.048-2.232.048-3.156.048l.1.54A45.607,45.607,0,0,0,64.5-3.564ZM59.076-1.656h6.372V.828h.636V-2.184H59.076Zm6.372-8.136v7.056h.636V-9.792Zm14.016-.036h-.636V-3.66h.636ZM75.612-5.364H72V-8.58h3.612Zm.612-3.744H71.376v4.272h4.848Zm.324,6.792h3.228v-.516H76.548V-3.984H75.9v1.152H72.7v.516h3.2v.108C75.9-1,73.812.072,72.264.288l.228.5a5.549,5.549,0,0,0,3.732-2.136A5.4,5.4,0,0,0,79.9.792l.228-.5c-1.56-.24-3.576-1.3-3.576-2.5Z" transform="translate(189.608 -178.563)"/>
    <path id="패스_873" data-name="패스 873" class="cls-8" d="M6.948-6.78h-1.9a9.282,9.282,0,0,0,.156-1.632H1.14v.54H4.584A7.419,7.419,0,0,1,.756-1.98l.4.468A8.084,8.084,0,0,0,4.908-6.24h2.04v2.148H4.74v.54H6.948v3.8H7.56V-9.516H6.948ZM9.06-9.816V.84h.612V-9.816Zm9.132,1.08H15.4V-9.9H14.76v1.164h-2.8v.5h6.228ZM13.224-6.168c0-.648.744-1.092,1.86-1.092s1.872.444,1.872,1.092-.744,1.1-1.872,1.1S13.224-5.508,13.224-6.168ZM18.54-4.044c-1,.144-2.076.228-3.144.276V-4.6c1.32-.084,2.16-.648,2.16-1.572,0-.96-.984-1.56-2.472-1.56s-2.46.6-2.46,1.56c0,.924.84,1.488,2.136,1.572v.852C13.62-3.7,12.528-3.7,11.6-3.7l.1.54a45.607,45.607,0,0,0,6.876-.408ZM13.152-1.656h6.372V.828h.636V-2.184H13.152Zm6.372-8.136v7.056h.636V-9.792ZM33.948-5.6c-1.6-.264-3.912-1.512-3.912-3.144v-.66h-.66v.66c0,1.68-2.292,2.88-3.924,3.144l.276.528c1.5-.288,3.348-1.212,3.984-2.628.636,1.392,2.5,2.34,3.972,2.628ZM34.524-3.7H24.876v.54h4.488V.828H30V-3.156h4.512ZM42.24-5.172a30.578,30.578,0,0,1-5.124.36h-.192V-6.576h4.14v-2.7h-4.8v.54H40.44v1.644H36.3v2.82h.816a31.437,31.437,0,0,0,5.2-.36Zm1.548,5.3h-5.52v-1.56h5.52Zm0-2.088h-5.52V-3.432h-.624v4.1h6.768v-4.1h-.624ZM43.776-9.8V-4.02h.636V-9.8Z" transform="translate(207.488 -162.567)"/>
  </g>
  <path id="패스_601" data-name="패스 601" class="cls-3" d="M174.256-151.094H287.522v-49.5H174.256Z" transform="translate(0 546.586)"/>
  <g id="그룹-2" data-name="그룹" transform="translate(0 546.586)">
    <path id="패스_878" data-name="패스 878" class="cls-8" d="M6.324-6.936v.54h2.4v2.928H9.36V-9.816H8.724v2.88Zm.552,2.5A3.879,3.879,0,0,1,4.188-7.764v-.66h2.5v-.54H1.02v.54H3.564v.672A4.165,4.165,0,0,1,.792-4.128l.324.516A4.816,4.816,0,0,0,3.9-6.528,4.555,4.555,0,0,0,6.552-3.936ZM5.916.3C4.176.3,3.06-.24,3.06-1.128S4.176-2.556,5.916-2.556s2.868.54,2.868,1.428S7.656.3,5.916.3Zm0-3.372c-2.172,0-3.492.7-3.492,1.944S3.744.816,5.916.816,9.408.12,9.408-1.128,8.076-3.072,5.916-3.072ZM13.38-6.42h5.976v2.244H13.38Zm3.288,5.292V-3.636H19.98V-9.024h-.624V-6.96H13.38V-9.024h-.636v5.388h3.288v2.508h-4.5v.54h9.684v-.54ZM24.24-6.42h5.976v2.244H24.24Zm3.288,5.292V-3.636H30.84V-9.024h-.624V-6.96H24.24V-9.024H23.6v5.388h3.288v2.508h-4.5v.54h9.684v-.54ZM42.336-8.112H38.4v-1.5h-.636v1.5H33.78v.54h8.556ZM35.3-4.716c0-.9,1.092-1.464,2.772-1.464s2.772.564,2.772,1.464-1.092,1.488-2.772,1.488S35.3-3.8,35.3-4.716Zm3.1,3.66V-2.724c1.908-.072,3.084-.792,3.084-1.992,0-1.26-1.308-1.992-3.408-1.992s-3.408.732-3.408,1.992c0,1.2,1.176,1.92,3.1,2v1.656h-4.5v.54h9.66v-.54ZM49.956-8.844h-.612v2.136A5.9,5.9,0,0,1,46.5-2l.4.516a6.54,6.54,0,0,0,2.772-3.756,6.189,6.189,0,0,0,2.76,3.528l.4-.492a5.662,5.662,0,0,1-2.868-4.5ZM56.58-5.376H54.708V-9.828h-.636V.84h.636V-4.836H56.58ZM65.508.144H60.12V-1.464h5.388Zm0-2.136H60.12V-3.54h-.636V.672h6.66V-3.54h-.636Zm-5.16-3A1.941,1.941,0,0,1,58.26-6.876,1.927,1.927,0,0,1,60.348-8.76a1.927,1.927,0,0,1,2.088,1.884A1.941,1.941,0,0,1,60.348-4.992Zm5.16-4.824v2.64H63.036A2.488,2.488,0,0,0,60.348-9.3a2.45,2.45,0,0,0-2.7,2.424,2.457,2.457,0,0,0,2.7,2.424,2.476,2.476,0,0,0,2.688-2.172h2.472V-4.1h.636V-9.816Z" transform="translate(315.143 -178.563)"/>
    <text id="_" data-name=" " class="cls-9" transform="translate(386.663 -178.563)"><tspan x="0" y="0"> </tspan></text>
    <path id="패스_877" data-name="패스 877" class="cls-8" d="M6.2-5.292A14.5,14.5,0,0,0,6.5-8.46v-.492H1.32v.528H5.88a13.189,13.189,0,0,1-.312,3.072Zm1.212.756a36.319,36.319,0,0,1-3.684.3V-6.648H3.1v2.436c-.876.024-1.7.024-2.436.024l.084.564a46.291,46.291,0,0,0,6.72-.42ZM2.976-2.52H2.34v3.1H9.192V.036H2.976ZM8.844-6.228V-9.816H8.208v8.052h.636V-5.676h1.68v-.552Zm3.972,3.9V-5.172h4.2V-8.784H12.144v.552h4.248v2.52H12.18v3.924h.852a32.762,32.762,0,0,0,5.436-.4l-.06-.54a33.489,33.489,0,0,1-5.376.4ZM19.56-9.816V.852H20.2V-9.816ZM24.624,2.316l.432-.216a11.034,11.034,0,0,1-1.584-5.8,11.065,11.065,0,0,1,1.584-5.8l-.432-.228A11.065,11.065,0,0,0,22.872-3.7,11.024,11.024,0,0,0,24.624,2.316ZM26.412-8.4v.54H29.9a6.847,6.847,0,0,1-3.828,5.88l.384.468A7.46,7.46,0,0,0,30.528-8.4Zm7.956-1.416v4.44H32.6V-9.528h-.612V.264H32.6v-5.1h1.764V.84h.612V-9.816ZM44.9-1.776h.636v-8.04H44.9v2.64H42.348v.552H44.9Zm-1.9-2.412A4.1,4.1,0,0,1,40.3-7.728V-9.18h-.624v1.392A4.334,4.334,0,0,1,36.924-3.96l.336.516a4.888,4.888,0,0,0,2.736-3A4.769,4.769,0,0,0,42.66-3.7ZM39.456.036v-2.76H38.82v3.3H45.8V.036ZM47.88,2.112A2.493,2.493,0,0,0,49.32-.12c0-.636-.288-1.032-.72-1.032a.6.6,0,0,0-.636.6.588.588,0,0,0,.624.612.584.584,0,0,0,.144-.012,1.815,1.815,0,0,1-1.056,1.608Zm14.772-6.6H60.984A17.11,17.11,0,0,0,61.3-8.172v-.912H54.288v.528h6.384v.384a15.337,15.337,0,0,1-.348,3.684H53.016v.54h4.5v4.8h.636v-4.8h4.5Zm2.112-.636c1.6-.216,3.336-.888,3.936-2.124.6,1.236,2.34,1.908,3.936,2.124l.2-.5c-1.74-.2-3.792-1.08-3.8-2.568H72.5v-.528h-3.48v-1.2h-.636v1.2H64.92V-8.2h3.444c-.012,1.488-2.064,2.364-3.8,2.568Zm8.748,1.272v-.54H63.876v.54h4.512v1.38H64.956v.54h6.72V.792h.636V-2.472H69.024v-1.38Zm12.2-2.5H79.092V-8.772h6.54v-.54H78.468v3.5h7.248ZM82.044.288c-1.824,0-2.988-.516-2.988-1.38s1.164-1.38,2.988-1.38,2.988.516,2.988,1.38S83.868.288,82.044.288Zm0-3.276c-2.256,0-3.624.684-3.624,1.9S79.788.8,82.044.8s3.624-.672,3.624-1.9S84.3-2.988,82.044-2.988ZM77.232-4.62v.54h9.636v-.54ZM88.284,2.316A11.024,11.024,0,0,0,90.036-3.7,11.065,11.065,0,0,0,88.284-9.72l-.432.228a11.065,11.065,0,0,1,1.584,5.8,11.034,11.034,0,0,1-1.584,5.8Z" transform="translate(303.119 -162.567)"/>
  </g>
  <path id="패스_602" data-name="패스 602" class="cls-3" d="M292.77-151.094H406.036v-49.5H292.77Z" transform="translate(0 546.586)"/>
  <g id="그룹-3" data-name="그룹" transform="translate(0 546.586)">
    <path id="패스_885" data-name="패스 885" class="cls-8" d="M1.272,0h.72V-8.748h-.72Zm5.4.156C8.388.156,9.5-.876,9.5-2.22S8.664-4.1,7.668-4.548L6.36-5.124C5.724-5.4,4.872-5.772,4.872-6.768c0-.9.744-1.488,1.86-1.488A2.807,2.807,0,0,1,8.8-7.38L9.2-7.848A3.341,3.341,0,0,0,6.732-8.9a2.332,2.332,0,0,0-2.592,2.2A2.426,2.426,0,0,0,5.916-4.524l1.308.576c.864.384,1.548.72,1.548,1.776,0,1-.8,1.68-2.1,1.68A3.368,3.368,0,0,1,4.14-1.656l-.444.5A3.893,3.893,0,0,0,6.672.156ZM11.136,0h.66V-5.544c0-.72-.048-1.68-.084-2.412h.048L12.444-6,14.292-.936h.576L16.7-6l.684-1.956h.048c-.036.732-.084,1.692-.084,2.412V0h.684V-8.748h-.96l-1.8,5.028c-.216.636-.42,1.284-.648,1.92H14.58L13.9-3.72,12.1-8.748h-.96Zm11.58.156c1.716,0,2.832-1.032,2.832-2.376s-.84-1.884-1.836-2.328L22.4-5.124c-.636-.276-1.488-.648-1.488-1.644,0-.9.744-1.488,1.86-1.488a2.807,2.807,0,0,1,2.064.876l.408-.468A3.341,3.341,0,0,0,22.776-8.9a2.332,2.332,0,0,0-2.592,2.2A2.426,2.426,0,0,0,21.96-4.524l1.308.576c.864.384,1.548.72,1.548,1.776,0,1-.8,1.68-2.1,1.68a3.368,3.368,0,0,1-2.532-1.164l-.444.5A3.893,3.893,0,0,0,22.716.156Zm3.312,1.968h.564l3.96-11.556h-.576ZM31.728,0h.72V-8.748h-.72Zm5.4.156c1.716,0,2.832-1.032,2.832-2.376S39.12-4.1,38.124-4.548l-1.308-.576c-.636-.276-1.488-.648-1.488-1.644,0-.9.744-1.488,1.86-1.488a2.807,2.807,0,0,1,2.064.876l.408-.468A3.341,3.341,0,0,0,37.188-8.9a2.332,2.332,0,0,0-2.592,2.2,2.426,2.426,0,0,0,1.776,2.184l1.308.576c.864.384,1.548.72,1.548,1.776,0,1-.8,1.68-2.1,1.68A3.368,3.368,0,0,1,34.6-1.656l-.444.5A3.893,3.893,0,0,0,37.128.156Zm7.536,0C46.8.156,48.3-1.62,48.3-4.4s-1.5-4.5-3.636-4.5c-2.112,0-3.624,1.728-3.624,4.5S42.552.156,44.664.156Zm0-.648C42.936-.492,41.8-2.028,41.8-4.4s1.14-3.852,2.868-3.852S47.556-6.78,47.556-4.4,46.4-.492,44.664-.492ZM49.392,0H54.66V-.624H51.936c-.456,0-.96.036-1.44.072C52.824-2.724,54.24-4.56,54.24-6.4A2.292,2.292,0,0,0,51.816-8.9a3.216,3.216,0,0,0-2.46,1.26l.444.42a2.606,2.606,0,0,1,1.944-1.092,1.719,1.719,0,0,1,1.788,1.944c0,1.584-1.176,3.384-4.14,5.94Zm8.16,0h.756c.132-3.42.564-5.6,2.64-8.328v-.42h-5.28v.612H60.1A13.467,13.467,0,0,0,57.552,0Zm7,.156c1.584,0,2.568-1.488,2.568-4.56,0-3.036-.984-4.5-2.568-4.5s-2.58,1.464-2.58,4.5C61.968-1.332,62.952.156,64.548.156Zm0-.588c-1.14,0-1.884-1.32-1.884-3.972,0-2.6.744-3.912,1.884-3.912S66.42-7.008,66.42-4.4C66.42-1.752,65.676-.432,64.548-.432Zm6.24.588c1.584,0,2.568-1.488,2.568-4.56,0-3.036-.984-4.5-2.568-4.5s-2.58,1.464-2.58,4.5C68.208-1.332,69.192.156,70.788.156Zm0-.588c-1.14,0-1.884-1.32-1.884-3.972,0-2.6.744-3.912,1.884-3.912S72.66-7.008,72.66-4.4C72.66-1.752,71.916-.432,70.788-.432ZM74.916,0h4.512V-.612H77.6V-8.748H77.04a5.022,5.022,0,0,1-1.668.552v.468H76.9V-.612h-1.98ZM89.4-9.8h-.636v7.86H89.4ZM81.648-6.468a2.005,2.005,0,0,1,2.088-2,2.005,2.005,0,0,1,2.088,2A2.017,2.017,0,0,1,83.736-4.44,2.017,2.017,0,0,1,81.648-6.468Zm4.788,0a2.539,2.539,0,0,0-2.7-2.568,2.539,2.539,0,0,0-2.7,2.568,2.551,2.551,0,0,0,2.7,2.592A2.551,2.551,0,0,0,86.436-6.468Zm-3.1,6.5V-2.772H82.7V.576H89.76V.036Z" transform="translate(422.367 -178.563)"/>
    <path id="패스_886" data-name="패스 886" class="cls-8" d="M1.536-5.448c1.56-.24,3.4-1.02,3.972-2.28.564,1.26,2.4,2.04,3.96,2.28l.24-.516C8.052-6.18,5.88-7.14,5.88-8.58v-.132H9.444V-9.24H1.572v.528H5.136v.132c0,1.44-2.184,2.4-3.84,2.616ZM5.508.288c-1.836,0-3-.516-3-1.38s1.164-1.38,3-1.38c1.812,0,2.976.516,2.976,1.38S7.32.288,5.508.288ZM5.508-3C3.24-3,1.872-2.316,1.872-1.092S3.24.8,5.508.8,9.12.132,9.12-1.092,7.764-3,5.508-3ZM.672-4.656v.54h9.636v-.54ZM11.7,2.112A2.493,2.493,0,0,0,13.14-.12c0-.636-.288-1.032-.72-1.032a.6.6,0,0,0-.636.6.588.588,0,0,0,.624.612.584.584,0,0,0,.144-.012A1.815,1.815,0,0,1,11.5,1.656ZM20.34-8.736c1.2,0,2.064.684,2.064,1.6S21.54-5.532,20.34-5.532,18.3-6.216,18.3-7.14,19.152-8.736,20.34-8.736Zm0,3.744c1.572,0,2.676-.864,2.676-2.148s-1.1-2.136-2.676-2.136-2.652.864-2.652,2.136S18.78-4.992,20.34-4.992Zm3.648.66a50.915,50.915,0,0,1-7.2.4l.108.564c.948,0,2.04-.012,3.192-.06V.5h.636V-3.468a31.034,31.034,0,0,0,3.312-.36Zm.84-5.472V.852h.636V-9.8ZM33.84-8.6H31.092V-9.936h-.636V-8.6H27.708v.528H33.84Zm-4.884,3.1c0-.8.756-1.38,1.812-1.38s1.812.576,1.812,1.38-.756,1.38-1.812,1.38S28.956-4.716,28.956-5.508Zm4.224,0c0-1.14-1-1.884-2.412-1.884s-2.412.744-2.412,1.884,1.008,1.884,2.412,1.884S33.18-4.368,33.18-5.508ZM30.2-2.2h5.568V.132H30.2ZM29.58.672h6.8v-3.4h-6.8Zm6.168-10.5v3.312h-2.04v.54h2.04V-3.36h.636V-9.828ZM46.608-3.2h.636V-9.816h-.636V-7.8H44.544v.54h2.064v1.308H44.544v.54h2.064ZM40.716-8.412H42.7v3.756c-.672.048-1.332.06-1.98.072Zm4.248,3.576c-.528.072-1.08.12-1.644.144v-3.72h1.2v-.54h-5.6v.54h1.176v3.84c-.528.012-1.032.012-1.488.012L38.7-4a42.037,42.037,0,0,0,6.3-.36ZM43.788.288c-1.74,0-2.844-.516-2.844-1.368s1.1-1.356,2.844-1.356,2.88.516,2.88,1.356S45.54.288,43.788.288Zm0-3.24c-2.172,0-3.48.672-3.48,1.872S41.616.8,43.788.8s3.5-.672,3.5-1.884S45.972-2.952,43.788-2.952Zm6.24-5.688v.54H54.2c-.168,2.592-1.74,4.872-4.62,6.3l.36.5A8.052,8.052,0,0,0,54.828-8.64Zm9.348,3.288H57.528V-9.816h-.636V.84h.636V-4.8h1.848Z" transform="translate(437.667 -162.567)"/>
  </g>
  <path id="패스_603" data-name="패스 603" class="cls-3" d="M411.285-151.094H524.551v-49.5H411.285Z" transform="translate(0 546.586)"/>
  <path id="패스_879" data-name="패스 879" class="cls-8" d="M6.324-6.936v.54h2.4v2.928H9.36V-9.816H8.724v2.88Zm.552,2.5A3.879,3.879,0,0,1,4.188-7.764v-.66h2.5v-.54H1.02v.54H3.564v.672A4.165,4.165,0,0,1,.792-4.128l.324.516A4.816,4.816,0,0,0,3.9-6.528,4.555,4.555,0,0,0,6.552-3.936ZM5.916.3C4.176.3,3.06-.24,3.06-1.128S4.176-2.556,5.916-2.556s2.868.54,2.868,1.428S7.656.3,5.916.3Zm0-3.372c-2.172,0-3.492.7-3.492,1.944S3.744.816,5.916.816,9.408.12,9.408-1.128,8.076-3.072,5.916-3.072ZM13.38-6.42h5.976v2.244H13.38Zm3.288,5.292V-3.636H19.98V-9.024h-.624V-6.96H13.38V-9.024h-.636v5.388h3.288v2.508h-4.5v.54h9.684v-.54ZM24.24-6.42h5.976v2.244H24.24Zm3.288,5.292V-3.636H30.84V-9.024h-.624V-6.96H24.24V-9.024H23.6v5.388h3.288v2.508h-4.5v.54h9.684v-.54ZM42.336-8.112H38.4v-1.5h-.636v1.5H33.78v.54h8.556ZM35.3-4.716c0-.9,1.092-1.464,2.772-1.464s2.772.564,2.772,1.464-1.092,1.488-2.772,1.488S35.3-3.8,35.3-4.716Zm3.1,3.66V-2.724c1.908-.072,3.084-.792,3.084-1.992,0-1.26-1.308-1.992-3.408-1.992s-3.408.732-3.408,1.992c0,1.2,1.176,1.92,3.1,2v1.656h-4.5v.54h9.66v-.54Zm14.388-8.76h-.636v7.872h.636ZM50.556-4.1a3.88,3.88,0,0,1-2.808-3.36v-.864h2.6v-.54H44.5v.54h2.616v.864A4.037,4.037,0,0,1,44.328-3.9l.336.5a4.648,4.648,0,0,0,2.784-2.832,4.543,4.543,0,0,0,2.8,2.616ZM46.728.036V-2.7h-.636V.576h7.056V.036Zm14.52-5.028a23.57,23.57,0,0,1-4.932.372H56.16V-8.328H60.2v-.54h-4.68v4.8h.792a24.148,24.148,0,0,0,5-.384ZM57.324-2.844h-.636V.576H63.72V.036h-6.4Zm5.868-3.672V-9.84h-.636V-2.1h.636V-5.964H64.86v-.552Z" transform="translate(316.733 436.023)"/>
  <path id="패스_604" data-name="패스 604" class="cls-3" d="M292.77-91.1H406.036v-49.5H292.77Z" transform="translate(0 546.586)"/>
  <path id="패스_876" data-name="패스 876" class="cls-8" d="M4.416.156A3.278,3.278,0,0,0,7.032-1.092l-.408-.456A2.8,2.8,0,0,1,4.452-.492C2.616-.492,1.476-2.016,1.476-4.4c0-2.364,1.164-3.852,3.012-3.852a2.459,2.459,0,0,1,1.9.876l.408-.468A3.026,3.026,0,0,0,4.488-8.9C2.268-8.9.72-7.176.72-4.38S2.256.156,4.416.156ZM8.616,0h4.968V-.624H9.336V-4.332H12.8v-.612H9.336V-8.136h4.116v-.612H8.616Zm7.416-8.148H17.7c1.512,0,2.352.468,2.352,1.74s-.84,1.86-2.352,1.86H16.032ZM20.964,0,18.6-4.008a2.3,2.3,0,0,0,2.184-2.4c0-1.7-1.176-2.34-2.916-2.34H15.312V0h.72V-3.948H17.82L20.148,0Zm3.168,0h.732V-8.136h2.76v-.612h-6.24v.612h2.748Zm3.18,2.112A2.493,2.493,0,0,0,28.752-.12c0-.636-.288-1.032-.72-1.032a.6.6,0,0,0-.636.6A.588.588,0,0,0,28.02.06a.584.584,0,0,0,.144-.012,1.815,1.815,0,0,1-1.056,1.608Zm6.96-10.476h6v3.852h-6ZM37.584-1.14V-4h3.3V-8.88H33.66V-4h3.288V-1.14h-4.5V-.6h9.684v-.54ZM46.788-9A2.515,2.515,0,0,0,43.98-6.564a2.515,2.515,0,0,0,2.808,2.436A2.515,2.515,0,0,0,49.6-6.564,2.515,2.515,0,0,0,46.788-9Zm0,.552a1.99,1.99,0,0,1,2.2,1.884,1.99,1.99,0,0,1-2.2,1.884,1.99,1.99,0,0,1-2.2-1.884A1.99,1.99,0,0,1,46.788-8.448Zm4.44-1.368V.852h.636V-9.816Zm-7.74,8.208a40.31,40.31,0,0,0,7.044-.444l-.06-.492a47.926,47.926,0,0,1-7.092.384ZM56.844-2.28A1.714,1.714,0,0,1,55.164-4.1a1.721,1.721,0,0,1,1.68-1.824A1.723,1.723,0,0,1,58.536-4.1,1.716,1.716,0,0,1,56.844-2.28Zm0-4.188A2.23,2.23,0,0,0,54.588-4.1a2.233,2.233,0,0,0,2.256,2.376A2.229,2.229,0,0,0,59.112-4.1,2.226,2.226,0,0,0,56.844-6.468Zm.324-3.024h-.636V-7.86H54.156v.54h5.4v-.54H57.168ZM62.5-9.816v4.584H60.8v-4.32H60.18V.276H60.8V-4.692H62.5V.84h.624V-9.816ZM73.7-9.8h-.636v6.468H73.7Zm-7.884.768v.54h4.1a4.224,4.224,0,0,1-.336,1.4L65.3-6.864l.12.576L69.336-6.6a6.49,6.49,0,0,1-3.924,2.652l.264.528c3.3-1.008,4.932-3,4.932-5.616ZM70.236.288c-1.764,0-2.9-.576-2.9-1.488s1.14-1.476,2.9-1.476,2.9.576,2.9,1.476S71.988.288,70.236.288Zm0-3.48c-2.184,0-3.54.732-3.54,1.992C66.7.084,68.052.816,70.236.816s3.54-.732,3.54-2.016C73.776-2.46,72.42-3.192,70.236-3.192Z" transform="translate(192.158 436.023)"/>
  <path id="패스_605" data-name="패스 605" class="cls-3" d="M174.256-91.1H287.522v-49.5H174.256Z" transform="translate(0 546.586)"/>
  <g id="그룹-4" data-name="그룹" transform="translate(0 546.586)">
    <path id="패스_883" data-name="패스 883" class="cls-8" d="M6.324-6.936v.54h2.4v2.928H9.36V-9.816H8.724v2.88Zm.552,2.5A3.879,3.879,0,0,1,4.188-7.764v-.66h2.5v-.54H1.02v.54H3.564v.672A4.165,4.165,0,0,1,.792-4.128l.324.516A4.816,4.816,0,0,0,3.9-6.528,4.555,4.555,0,0,0,6.552-3.936ZM5.916.3C4.176.3,3.06-.24,3.06-1.128S4.176-2.556,5.916-2.556s2.868.54,2.868,1.428S7.656.3,5.916.3Zm0-3.372c-2.172,0-3.492.7-3.492,1.944S3.744.816,5.916.816,9.408.12,9.408-1.128,8.076-3.072,5.916-3.072ZM13.38-6.42h5.976v2.244H13.38Zm3.288,5.292V-3.636H19.98V-9.024h-.624V-6.96H13.38V-9.024h-.636v5.388h3.288v2.508h-4.5v.54h9.684v-.54ZM24.24-6.42h5.976v2.244H24.24Zm3.288,5.292V-3.636H30.84V-9.024h-.624V-6.96H24.24V-9.024H23.6v5.388h3.288v2.508h-4.5v.54h9.684v-.54ZM42.336-8.112H38.4v-1.5h-.636v1.5H33.78v.54h8.556ZM35.3-4.716c0-.9,1.092-1.464,2.772-1.464s2.772.564,2.772,1.464-1.092,1.488-2.772,1.488S35.3-3.8,35.3-4.716Zm3.1,3.66V-2.724c1.908-.072,3.084-.792,3.084-1.992,0-1.26-1.308-1.992-3.408-1.992s-3.408.732-3.408,1.992c0,1.2,1.176,1.92,3.1,2v1.656h-4.5v.54h9.66v-.54Z" transform="translate(446.108 -118.563)"/>
    <text id="_2" data-name=" " class="cls-9" transform="translate(492.728 -118.563)"><tspan x="0" y="0"> </tspan></text>
    <path id="패스_884" data-name="패스 884" class="cls-8" d="M4.236-8.832H3.612v2.124a5.9,5.9,0,0,1-2.94,4.74l.4.516A6.471,6.471,0,0,0,3.936-5.2,6.34,6.34,0,0,0,6.8-1.62l.4-.516A5.608,5.608,0,0,1,4.236-6.708Zm4.452-.984V.852h.636V-9.816Zm11.94,5.532c-1.512-.3-3.972-1.908-3.972-3.876v-.852H16v.852c0,1.98-2.424,3.564-3.948,3.876l.3.54A6.163,6.163,0,0,0,16.332-6.96a6.176,6.176,0,0,0,4,3.216Zm-9.1,3.06v.54H21.2v-.54ZM28.668-3.492h.624V-9.636h-.624V-7.08H27.024v.528h1.644ZM27.5-5.016A16.716,16.716,0,0,1,23.58-4.7h-.024v-1.74H26.52V-6.96H23.556v-1.6h3.408V-9.1H22.932v4.932h.648a16.82,16.82,0,0,0,4.008-.324ZM25.08-2.28h5.628V.132H25.08ZM24.456.672H31.32v-3.48H24.456Zm6.252-10.5V-3.36h.612V-9.828Zm9.84.852c1.8,0,3.024.624,3.024,1.56s-1.224,1.56-3.024,1.56c-1.776,0-3-.624-3-1.56S38.772-8.976,40.548-8.976Zm0,3.66c2.244,0,3.684-.8,3.684-2.1S42.792-9.5,40.548-9.5c-2.22,0-3.66.792-3.66,2.088S38.328-5.316,40.548-5.316ZM37.656-2.484h-.624V.576H44.34V.024H37.656ZM35.724-4.272v.54h4.608v2.364h.636V-3.732h4.44v-.54ZM47.4-6.684a1.97,1.97,0,0,1,2.088-1.932,1.97,1.97,0,0,1,2.088,1.932A1.965,1.965,0,0,1,49.488-4.74,1.965,1.965,0,0,1,47.4-6.684Zm7.248-.984v1.98H52a2.677,2.677,0,0,0,.192-1A2.662,2.662,0,0,0,52-7.668Zm0,2.52V-3.48h.636V-9.828h-.636V-8.2H51.672a2.736,2.736,0,0,0-2.184-.96,2.5,2.5,0,0,0-2.7,2.472,2.513,2.513,0,0,0,2.7,2.508,2.745,2.745,0,0,0,2.184-.972ZM51.828.288C50.1.288,48.972-.288,48.972-1.2S50.1-2.688,51.828-2.688c1.752,0,2.88.588,2.88,1.488S53.58.288,51.828.288Zm0-3.492c-2.16,0-3.48.732-3.48,2s1.32,2,3.48,2,3.5-.732,3.5-2S54-3.2,51.828-3.2Z" transform="translate(439.088 -102.567)"/>
  </g>
  <path id="패스_606" data-name="패스 606" class="cls-3" d="M411.285-91.1H524.551v-49.5H411.285Z" transform="translate(0 546.586)"/>
  <g id="그룹-5" data-name="그룹" transform="translate(0 546.586)">
    <path id="패스_874" data-name="패스 874" class="cls-8" d="M6.324-6.936v.54h2.4v2.928H9.36V-9.816H8.724v2.88Zm.552,2.5A3.879,3.879,0,0,1,4.188-7.764v-.66h2.5v-.54H1.02v.54H3.564v.672A4.165,4.165,0,0,1,.792-4.128l.324.516A4.816,4.816,0,0,0,3.9-6.528,4.555,4.555,0,0,0,6.552-3.936ZM5.916.3C4.176.3,3.06-.24,3.06-1.128S4.176-2.556,5.916-2.556s2.868.54,2.868,1.428S7.656.3,5.916.3Zm0-3.372c-2.172,0-3.492.7-3.492,1.944S3.744.816,5.916.816,9.408.12,9.408-1.128,8.076-3.072,5.916-3.072ZM13.38-6.42h5.976v2.244H13.38Zm3.288,5.292V-3.636H19.98V-9.024h-.624V-6.96H13.38V-9.024h-.636v5.388h3.288v2.508h-4.5v.54h9.684v-.54ZM24.24-6.42h5.976v2.244H24.24Zm3.288,5.292V-3.636H30.84V-9.024h-.624V-6.96H24.24V-9.024H23.6v5.388h3.288v2.508h-4.5v.54h9.684v-.54ZM42.336-8.112H38.4v-1.5h-.636v1.5H33.78v.54h8.556ZM35.3-4.716c0-.9,1.092-1.464,2.772-1.464s2.772.564,2.772,1.464-1.092,1.488-2.772,1.488S35.3-3.8,35.3-4.716Zm3.1,3.66V-2.724c1.908-.072,3.084-.792,3.084-1.992,0-1.26-1.308-1.992-3.408-1.992s-3.408.732-3.408,1.992c0,1.2,1.176,1.92,3.1,2v1.656h-4.5v.54h9.66v-.54Zm9.264-1.272v-2.82h4.1V-8.784H47v.552h4.14V-5.7h-4.1v3.912h.816a26.4,26.4,0,0,0,5.22-.4l-.06-.552a24.853,24.853,0,0,1-5.16.408Zm8.916-3.12H54.708V-9.816h-.636V.852h.636v-5.76H56.58Zm8.892-4.368V.84h.636V-9.816Zm-4.908.864c-1.56,0-2.652,1.44-2.652,3.66S59-1.632,60.564-1.632,63.2-3.06,63.2-5.292,62.112-8.952,60.564-8.952Zm0,.564c1.188,0,2.028,1.272,2.028,3.1s-.84,3.108-2.028,3.108-2.04-1.284-2.04-3.108S59.364-8.388,60.564-8.388ZM74.6-6.516H71.64V-8.964H74.6Zm-3.588,0H69.264V-6H76.98v-.516H75.24V-8.964H77V-9.48H69.252v.516h1.764Zm-.84,5.436h6.5V-3.216H69.528v.5h6.528v1.128h-6.5V.684h7.476V.168H70.176ZM68.316-4.9v.528h9.636V-4.9Z" transform="translate(191.198 -58.563)"/>
    <path id="패스_875" data-name="패스 875" class="cls-8" d="M4.032-8.844H3.42v2.136A5.9,5.9,0,0,1,.576-2l.4.516A6.54,6.54,0,0,0,3.744-5.244,6.189,6.189,0,0,0,6.5-1.716l.4-.492a5.662,5.662,0,0,1-2.868-4.5Zm6.624,3.468H8.784V-9.828H8.148V.84h.636V-4.836h1.872Zm8.892-4.44V.84h.636V-9.816Zm-4.908.864c-1.56,0-2.652,1.44-2.652,3.66s1.092,3.66,2.652,3.66,2.64-1.428,2.64-3.66S16.188-8.952,14.64-8.952Zm0,.564c1.188,0,2.028,1.272,2.028,3.1s-.84,3.108-2.028,3.108S12.6-3.468,12.6-5.292,13.44-8.388,14.64-8.388Zm9.588,7.14H30.84V-3.54H23.568v.528h6.648v1.248H23.6V.672h7.62V.144h-7ZM30.48-5.316a15.417,15.417,0,0,0,.264-3.192V-9.24H23.652v.54h6.48v.192c0,.324,0,.684-.024,1.068l-6.7.264.1.516,6.576-.288a12.642,12.642,0,0,1-.264,1.632H22.4v.54h9.624v-.54Zm10.788.024a14.5,14.5,0,0,0,.3-3.168v-.492H36.384v.528h4.56a13.189,13.189,0,0,1-.312,3.072Zm1.212.756a36.319,36.319,0,0,1-3.684.3V-6.648H38.16v2.436c-.876.024-1.7.024-2.436.024l.084.564a46.291,46.291,0,0,0,6.72-.42ZM38.04-2.52H37.4v3.1h6.852V.036H38.04Zm5.868-3.708V-9.816h-.636v8.052h.636V-5.676h1.68v-.552Zm3.972,3.9V-5.172h4.2V-8.784H47.208v.552h4.248v2.52H47.244v3.924H48.1a32.762,32.762,0,0,0,5.436-.4l-.06-.54a33.489,33.489,0,0,1-5.376.4Zm6.744-7.488V.852h.636V-9.816Z" transform="translate(202.058 -42.567)"/>
  </g>
  <path id="패스_607" data-name="패스 607" class="cls-3" d="M174.256-31.094H287.522v-49.5H174.256Z" transform="translate(0 546.586)"/>
  <g id="그룹-6" data-name="그룹" transform="translate(0 546.586)">
    <path id="패스_880" data-name="패스 880" class="cls-8" d="M8.424-8.316A9.5,9.5,0,0,1,8.136-5.6l.612.084a10.012,10.012,0,0,0,.288-2.8V-9.24H1.86v.54H8.424ZM5.472.288c-1.812,0-3.036-.552-3.036-1.4S3.66-2.532,5.472-2.532,8.52-1.968,8.52-1.116,7.284.288,5.472.288Zm0-3.336c-2.256,0-3.672.72-3.672,1.932S3.216.8,5.472.8,9.144.1,9.144-1.116,7.728-3.048,5.472-3.048ZM5.508-4.74V-6.9H4.872v2.16H.7v.54h9.612v-.54ZM16.356.3c-1.824,0-2.988-.5-2.988-1.356s1.164-1.356,2.988-1.356,2.988.516,2.988,1.356S18.18.3,16.356.3Zm0-3.216c-2.268,0-3.624.66-3.624,1.86S14.088.816,16.356.816,19.98.144,19.98-1.056,18.624-2.916,16.356-2.916ZM14.676-5.88a8.573,8.573,0,0,0,1.668.156A9,9,0,0,0,18.06-5.88v1.452H14.676ZM13.32-7.668c0-.876,1.188-1.416,3.024-1.416,1.86,0,3.048.54,3.048,1.416S18.2-6.24,16.344-6.24C14.508-6.24,13.32-6.792,13.32-7.668Zm5.364,3.24V-6.072a1.744,1.744,0,0,0,1.356-1.6c0-1.236-1.4-1.932-3.7-1.932s-3.672.7-3.672,1.932A1.759,1.759,0,0,0,14.04-6.06v1.632h-2.5v.54h9.624v-.54ZM30.444.144H25.056V-1.464h5.388Zm0-2.136H25.056V-3.54H24.42V.672h6.66V-3.54h-.636Zm-5.16-3A1.941,1.941,0,0,1,23.2-6.876,1.927,1.927,0,0,1,25.284-8.76a1.927,1.927,0,0,1,2.088,1.884A1.941,1.941,0,0,1,25.284-4.992Zm5.16-4.824v2.64H27.972A2.488,2.488,0,0,0,25.284-9.3a2.45,2.45,0,0,0-2.7,2.424,2.457,2.457,0,0,0,2.7,2.424,2.476,2.476,0,0,0,2.688-2.172h2.472V-4.1h.636V-9.816ZM41-5.652H35.172V-8.664H41Zm.624-3.54h-7.08v4.068h7.08Zm1.3,5.7H33.24v.54h4.5V.828h.636v-3.78h4.548Zm4.5-1.368a.616.616,0,0,0,.612-.648.619.619,0,0,0-.612-.66.619.619,0,0,0-.612.66A.616.616,0,0,0,47.424-4.86Zm0,5.016a.616.616,0,0,0,.612-.648.619.619,0,0,0-.612-.66.619.619,0,0,0-.612.66A.616.616,0,0,0,47.424.156Zm8.22,0A3.278,3.278,0,0,0,58.26-1.092l-.408-.456A2.8,2.8,0,0,1,55.68-.492C53.844-.492,52.7-2.016,52.7-4.4c0-2.364,1.164-3.852,3.012-3.852a2.459,2.459,0,0,1,1.9.876l.408-.468a3.026,3.026,0,0,0-2.3-1.056c-2.22,0-3.768,1.728-3.768,4.524S53.484.156,55.644.156Zm6.492,0c1.548,0,2.892-1.224,2.892-3.348s-1.344-3.372-2.892-3.372-2.892,1.236-2.892,3.372S60.588.156,62.136.156Zm0-.6c-1.248,0-2.16-1.116-2.16-2.748s.912-2.76,2.16-2.76,2.172,1.128,2.172,2.76S63.384-.444,62.136-.444ZM66.72,0h.7V-4.788A2.7,2.7,0,0,1,69.264-5.94c.948,0,1.38.612,1.38,1.944V0h.7V-4.788A2.7,2.7,0,0,1,73.188-5.94c.936,0,1.38.612,1.38,1.944V0h.7V-4.092c0-1.644-.636-2.472-1.92-2.472a3.2,3.2,0,0,0-2.16,1.3,1.657,1.657,0,0,0-1.764-1.3A2.97,2.97,0,0,0,67.4-5.424H67.38L67.3-6.4H66.72ZM77.388,2.856h.7V.552L78.072-.624a3.16,3.16,0,0,0,1.884.78c1.5,0,2.82-1.272,2.82-3.456,0-1.968-.864-3.264-2.568-3.264a3.719,3.719,0,0,0-2.136.948h-.024l-.084-.78h-.576ZM79.9-.456a2.935,2.935,0,0,1-1.812-.78v-3.7a3.207,3.207,0,0,1,1.992-1.02c1.428,0,1.956,1.116,1.956,2.652C82.032-1.584,81.144-.456,79.9-.456ZM85.32.156a1.41,1.41,0,0,0,.468-.072L85.68-.468a1.073,1.073,0,0,1-.228.024c-.168,0-.288-.132-.288-.432V-9.54h-.7V-.948C84.468-.2,84.744.156,85.32.156ZM87.492,0h.7V-6.4h-.7Zm.36-7.9a.566.566,0,0,0,.588-.552.564.564,0,0,0-.588-.576.557.557,0,0,0-.588.576A.559.559,0,0,0,87.852-7.9ZM91.812.156a3.687,3.687,0,0,0,2.232-.972h.024L94.14,0h.588V-4.056c0-1.416-.54-2.508-2.064-2.508a4.436,4.436,0,0,0-2.424.84l.312.5a3.458,3.458,0,0,1,2.016-.732c1.212,0,1.488.984,1.464,1.932-2.82.324-4.08,1-4.08,2.412A1.688,1.688,0,0,0,91.812.156Zm.144-.588a1.153,1.153,0,0,1-1.308-1.212c0-.984.864-1.572,3.384-1.86v2.076A3.152,3.152,0,0,1,91.956-.432ZM96.78,0h.7V-4.788c.744-.768,1.272-1.152,2.016-1.152.984,0,1.4.612,1.4,1.944V0h.7V-4.092c0-1.644-.612-2.472-1.944-2.472a3.146,3.146,0,0,0-2.184,1.14H97.44L97.356-6.4H96.78Zm9.336.156a3.1,3.1,0,0,0,2.04-.828l-.336-.48a2.555,2.555,0,0,1-1.668.708c-1.344,0-2.232-1.116-2.232-2.748s.972-2.76,2.244-2.76a2.1,2.1,0,0,1,1.464.648l.4-.48a2.705,2.705,0,0,0-1.872-.78,3.056,3.056,0,0,0-2.964,3.372C103.188-1.068,104.448.156,106.116.156Z" transform="translate(336.829 -58.563)"/>
    <path id="패스_881" data-name="패스 881" class="cls-8" d="M3.648.156a3.579,3.579,0,0,0,2.04-.624L5.424-.984a2.864,2.864,0,0,1-1.7.552A2.422,2.422,0,0,1,1.38-3.084H5.916a3.319,3.319,0,0,0,.036-.5c0-1.872-.924-2.976-2.472-2.976-1.452,0-2.808,1.3-2.808,3.372A3.03,3.03,0,0,0,3.648.156ZM1.38-3.636A2.278,2.278,0,0,1,3.492-5.964c1.116,0,1.824.78,1.824,2.328ZM10.116-9.1v.54h4.092C14.052-6.5,12.252-4.968,9.6-4.212l.276.528C12.9-4.56,14.892-6.48,14.892-9.1Zm1.836,6.42H17.5V.132H11.952ZM11.34.66h6.78V-3.192H11.34ZM17.484-9.816v2.88h-2.6v.54h2.6V-3.66h.636V-9.816Zm7.944,8.7V-3.6h3.384v-.528H22.248V-6.036h6.228v-.528H22.248V-8.34H28.7v-.54H21.6V-3.6h3.192v2.484h-4.5v.54h9.672v-.54ZM31.32,2.112A2.493,2.493,0,0,0,32.76-.12c0-.636-.288-1.032-.72-1.032a.6.6,0,0,0-.636.6.588.588,0,0,0,.624.612.584.584,0,0,0,.144-.012,1.815,1.815,0,0,1-1.056,1.608Z" transform="translate(446.305 -58.563)"/>
    <text id="_3" data-name=" " class="cls-9" transform="translate(483.493 -58.563)"><tspan x="0" y="0"> </tspan></text>
    <path id="패스_882" data-name="패스 882" class="cls-8" d="M8.424-5.376H2.592v-1.86H8.424ZM9.06-9.384H8.424v1.62H2.592v-1.62H1.956v4.548h7.1ZM10.344-3.4H.66v.54h4.5V.84H5.8v-3.7h4.548ZM15.1-8.832H14.46v2.124A5.933,5.933,0,0,1,11.6-1.98l.408.5a6.46,6.46,0,0,0,2.772-3.816A6.226,6.226,0,0,0,17.6-1.668l.372-.516A5.615,5.615,0,0,1,15.1-6.708Zm4.488-.984v3.792H16.836V-5.5h2.748V.852h.636V-9.816Zm5.9,1.152v.54H29.6A7.406,7.406,0,0,1,29.2-6l-4.236.312.144.576L29-5.484A8,8,0,0,1,24.96-1.536l.372.528a8.05,8.05,0,0,0,4.9-7.656Zm7.428-1.152v4.38H30.18v.54h2.736V.828h.636V-9.816ZM43.488-5.664H37.656V-8.688h5.832Zm.624-3.54h-7.08v4.068h7.08Zm1.3,5.688H35.724v.54h2.628V.948h.636V-2.976h3.168V.948h.636V-2.976h2.616Zm2.568.972V-8.772h-.624V-1.98h.828a25.127,25.127,0,0,0,5.232-.528l-.1-.552a24.208,24.208,0,0,1-5.136.516Zm6.612-7.272V.84h.636V-9.816ZM63.636-5.5H61.608A9.192,9.192,0,0,0,62.1-8.532H58.056v.54h3.42a7.957,7.957,0,0,1-.336,1.98l-3.6.252.12.576,3.312-.324A7.008,7.008,0,0,1,57.588-1.92l.372.48a7.657,7.657,0,0,0,3.432-3.528h2.244V.252h.612v-9.78h-.612Zm2.208-4.332V.84h.612V-9.828Zm10.488.012V.84h.636V-9.816Zm-4.908.864c-1.56,0-2.652,1.44-2.652,3.66s1.092,3.66,2.652,3.66,2.64-1.428,2.64-3.66S72.972-8.952,71.424-8.952Zm0,.564c1.188,0,2.028,1.272,2.028,3.1s-.84,3.108-2.028,3.108-2.04-1.284-2.04-3.108S70.224-8.388,71.424-8.388Zm15.8,6.564h.636V-9.8h-.636v1.68H84.852v.54h2.376v1.716H84.852v.54h2.376ZM85.32-4.092a4.233,4.233,0,0,1-2.7-3.684V-9.228H82v1.452a4.4,4.4,0,0,1-2.748,3.888l.348.5a4.942,4.942,0,0,0,2.736-3.048,4.865,4.865,0,0,0,2.616,2.844ZM81.78.036V-2.676h-.636V.576h6.984V.036Z" transform="translate(363.541 -42.567)"/>
  </g>
  <path id="패스_608" data-name="패스 608" class="cls-3" d="M292.77-31.094H524.551v-49.5H292.77Z" transform="translate(0 546.586)"/>
  <path id="패스_609" data-name="패스 609" class="cls-6" d="M19.858-210.844H145.129v-30H19.858Z" transform="translate(0 546.586)"/>
  <path id="패스_865" data-name="패스 865" class="cls-4" d="M8.355-8.76v1.005h2.28V-5.94H8.355v1.005h2.28v2.85H11.88V-12.33H10.635v3.57Zm0-1.935H5.265v-1.65H4.035v1.65H.825v.99h7.53ZM2.76-6.4a1.665,1.665,0,0,1,1.875-1.59A1.665,1.665,0,0,1,6.51-6.4a1.678,1.678,0,0,1-1.875,1.62A1.678,1.678,0,0,1,2.76-6.4Zm4.92,0c0-1.53-1.26-2.55-3.045-2.55S1.59-7.935,1.59-6.4s1.26,2.58,3.045,2.58S7.68-4.86,7.68-6.4ZM4.455-.2v-2.76H3.225V.81H12.2V-.2ZM24.15-.06H17.985V-1.8H24.15Zm0-2.7H17.985V-4.455H16.77V.93h8.61V-4.455H24.15ZM17.97-6.51a2.121,2.121,0,0,1-2.3-2.1,2.11,2.11,0,0,1,2.3-2.085A2.11,2.11,0,0,1,20.265-8.61,2.121,2.121,0,0,1,17.97-6.51Zm6.165-5.82v3.195H21.39a3.2,3.2,0,0,0-3.42-2.58A3.163,3.163,0,0,0,14.505-8.61,3.166,3.166,0,0,0,17.97-5.49a3.209,3.209,0,0,0,3.435-2.64h2.73v3.015H25.38V-12.33Zm16.14,5.34H33.6V-8.97h6.675Zm1.23-4.815h-1.23V-9.96H33.6v-1.845H32.385v5.82H41.5Zm1.545,7.44H30.84v.99H36.3v4.5h1.23v-4.5h5.52Zm6.015-6.825h-1.23v2.415a7.107,7.107,0,0,1-3.48,6.06l.75.975a7.465,7.465,0,0,0,3.345-4.5,7.208,7.208,0,0,0,3.375,4.26l.72-.975a6.707,6.707,0,0,1-3.48-5.82Zm5.145-1.155v4.56H51.09V-6.78h3.12v7.9h1.23v-13.47Z" transform="translate(53.394 327.451)"/>
  <path id="패스_867" data-name="패스 867" class="cls-10" d="M9.23-.065H3.874V-1.521H9.23Zm0-2.288H3.874v-1.4H2.821V.793h7.462v-4.55H9.23ZM5.473-5.629H2.327V-7.475H5.473Zm3.744-5.057v2.86H6.526v-2.262H5.473v1.781H2.327v-1.781H1.274v5.33H6.526v-2.2H9.217v2.639H10.3v-6.37ZM20.553-6.357H14.768V-9.191h5.785Zm1.053-3.692H13.728v4.537h7.878Zm1.352,6.123H12.376v.871h4.732v4h1.066v-4h4.784Zm4.5-6.032v.871H31.59c-.221,1.976-1.95,3.5-4.719,4.29l.442.832c3.341-.949,5.408-3.042,5.408-5.993ZM29.861-2.7h5.434V-.065H29.861ZM28.808.793h7.527V-3.549H28.808ZM35.269-10.7v3H32.734v.871h2.535v2.782h1.066V-10.7Zm8.983,9.334v-2.4h3.562v-.871H40.872V-6.4h6.565v-.845H40.872V-8.879H47.7V-9.75h-7.9v5.98h3.393v2.4H38.428v.884h10.6v-.884Z" transform="translate(57.274 368.463)"/>
  <path id="패스_868" data-name="패스 868" class="cls-8" d="M8.724.132h-5.4v-1.56h5.4Zm0-2.088h-5.4V-3.444H2.688V.672h6.66V-3.444H8.724ZM5.3-4.992H1.9V-6.948H5.3Zm3.42-4.836v2.736h-2.8V-9.276H5.3v1.812H1.9V-9.276H1.26v4.824H5.928v-2.1h2.8V-4H9.36V-9.828Zm10.56,4.176H13.452V-8.664h5.832Zm.624-3.54h-7.08v4.068h7.08Zm1.3,5.7H11.52v.54h4.5V.828h.636v-3.78H21.2ZM29-5.052a27.551,27.551,0,0,1-5.148.324h-.192V-6.456h4.128v-.528H23.664V-8.616H28.08v-.54H23.028V-4.2h.828a27.8,27.8,0,0,0,5.232-.324Zm-4.08,2.724h5.52V.132h-5.52Zm-.624,3h6.768V-2.856H24.3ZM30.432-9.816v6.372h.636V-9.816Z" transform="translate(66.114 384.463)"/>
  <path id="패스_610" data-name="패스 610" class="cls-3" d="M20.108-151.094H144.879v-49.5H20.108Z" transform="translate(0 546.586)"/>
  <path id="패스_869" data-name="패스 869" class="cls-10" d="M1.885-7.241A1.875,1.875,0,0,1,3.874-9.1,1.857,1.857,0,0,1,5.85-7.241,1.859,1.859,0,0,1,3.874-5.369,1.878,1.878,0,0,1,1.885-7.241Zm7.332-.91v1.82H6.708a2.624,2.624,0,0,0,.156-.91,2.843,2.843,0,0,0-.143-.91Zm0,2.691V-3.8H10.3v-6.9H9.217v1.677H6.227A3.1,3.1,0,0,0,3.874-10a2.782,2.782,0,0,0-3,2.756,2.8,2.8,0,0,0,3,2.782,3.031,3.031,0,0,0,2.353-1ZM6.435.1C4.68.1,3.614-.416,3.614-1.287s1.066-1.4,2.821-1.4c1.781,0,2.847.52,2.847,1.4S8.216.1,6.435.1Zm0-3.627c-2.392,0-3.874.819-3.874,2.236S4.043.949,6.435.949s3.9-.819,3.9-2.236S8.84-3.523,6.435-3.523ZM20.93-.052H15.587V-1.56H20.93Zm0-2.34H15.587V-3.861H14.534V.806H22V-3.861H20.93Zm-5.356-3.25a1.838,1.838,0,0,1-1.989-1.82,1.828,1.828,0,0,1,1.989-1.807,1.828,1.828,0,0,1,1.989,1.807A1.838,1.838,0,0,1,15.574-5.642Zm5.343-5.044v2.769H18.538a2.777,2.777,0,0,0-2.964-2.236,2.741,2.741,0,0,0-3,2.691,2.744,2.744,0,0,0,3,2.7,2.781,2.781,0,0,0,2.977-2.288h2.366v2.613H22v-6.253Zm9.724,3.094v.871h1.976v1.573H30.641v.871h1.976v2.47H33.7v-8.879H32.617v3.094Zm0-1.677H27.963V-10.7H26.9v1.43H24.115v.858h6.526ZM25.792-5.551a1.443,1.443,0,0,1,1.625-1.378,1.443,1.443,0,0,1,1.625,1.378,1.454,1.454,0,0,1-1.625,1.4A1.454,1.454,0,0,1,25.792-5.551Zm4.264,0c0-1.326-1.092-2.21-2.639-2.21s-2.639.884-2.639,2.21a2.345,2.345,0,0,0,2.639,2.236A2.345,2.345,0,0,0,30.056-5.551Zm-2.8,5.382V-2.561H26.195V.7h7.774V-.169ZM42.549-5.057a3.793,3.793,0,0,1-2.821-3.458V-8.97H42.3v-.858H36.049v.858h2.613v.455a4.13,4.13,0,0,1-2.925,3.8l.546.845a4.815,4.815,0,0,0,2.938-2.86,4.534,4.534,0,0,0,2.821,2.509ZM41.132.1C39.39.1,38.35-.377,38.35-1.209s1.04-1.3,2.782-1.3c1.716,0,2.769.481,2.769,1.3S42.848.1,41.132.1Zm0-3.458c-2.392,0-3.848.793-3.848,2.145S38.74.949,41.132.949c2.366,0,3.835-.793,3.835-2.158S43.5-3.354,41.132-3.354Zm3.705-4.394v-2.938H43.771v7.033h1.066v-3.2h1.729v-.9Zm14.872-2.938H58.643v8.528h1.066ZM57.265-4.667A3.97,3.97,0,0,1,54.34-8.229v-.637h2.639v-.858h-6.4v.858h2.665v.637a4.152,4.152,0,0,1-2.951,3.8l.559.832a4.889,4.889,0,0,0,2.951-2.873,4.953,4.953,0,0,0,2.938,2.652Zm-3.991,4.5V-2.964H52.208V.7H60.06V-.169ZM68.588-5.59a24.651,24.651,0,0,1-5.148.39V-8.827h4.1v-.858H62.374v5.356h.91a25.218,25.218,0,0,0,5.421-.4ZM64.7-3.107H63.635V.7h7.774V-.169H64.7Zm6.188-4.134V-10.7H69.823v8.437h1.066v-4.1h1.729v-.884Z" transform="translate(45.574 428.463)"/>
  <path id="패스_870" data-name="패스 870" class="cls-8" d="M1.608-5.184C3.144-5.448,4.932-6.3,5.5-7.632c.576,1.32,2.364,2.184,3.888,2.448L9.636-5.7C8.028-5.952,5.88-7.02,5.88-8.532v-.18H9.444V-9.24H1.572v.528H5.136v.18c0,1.524-2.148,2.58-3.78,2.832Zm.984,2.76H1.956v3H9.264V.036H2.592ZM.66-4.236v.528H5.22V-1.32h.636V-3.708h4.488v-.528ZM19.584.132h-5.4v-1.56h5.4Zm0-2.088h-5.4V-3.444h-.636V.672h6.66V-3.444h-.624Zm-3.42-3.036H12.756V-6.948h3.408Zm3.42-4.836v2.736h-2.8V-9.276h-.624v1.812H12.756V-9.276H12.12v4.824h4.668v-2.1h2.8V-4h.636V-9.828Zm10.86,2.676V-5.46H27.372v.54h3.072v1.632h.636V-9.8h-.636v2.112H27.7a4.86,4.86,0,0,0,.168-1.272H23.1v.528h4.08c-.168,2.088-2,3.672-4.608,4.488l.288.528A7.027,7.027,0,0,0,27.5-7.152ZM27.66.276C25.92.276,24.792-.3,24.792-1.2S25.92-2.652,27.66-2.652c1.716,0,2.856.564,2.856,1.452S29.376.276,27.66.276Zm0-3.444c-2.16,0-3.492.732-3.492,1.968C24.168.06,25.5.792,27.66.792,29.8.792,31.128.06,31.128-1.2,31.128-2.436,29.8-3.168,27.66-3.168Zm6.4-3.516a1.97,1.97,0,0,1,2.088-1.932,1.97,1.97,0,0,1,2.088,1.932A1.965,1.965,0,0,1,36.144-4.74,1.965,1.965,0,0,1,34.056-6.684ZM41.3-7.668v1.98H38.652a2.677,2.677,0,0,0,.192-1,2.662,2.662,0,0,0-.192-.984Zm0,2.52V-3.48h.636V-9.828H41.3V-8.2H38.328a2.736,2.736,0,0,0-2.184-.96,2.5,2.5,0,0,0-2.7,2.472,2.513,2.513,0,0,0,2.7,2.508,2.745,2.745,0,0,0,2.184-.972ZM38.484.288c-1.728,0-2.856-.576-2.856-1.488s1.128-1.488,2.856-1.488c1.752,0,2.88.588,2.88,1.488S40.236.288,38.484.288Zm0-3.492c-2.16,0-3.48.732-3.48,2s1.32,2,3.48,2,3.5-.732,3.5-2S40.656-3.2,38.484-3.2Zm12.24-1.848a27.551,27.551,0,0,1-5.148.324h-.192V-6.456h4.128v-.528H45.384V-8.616H49.8v-.54H44.748V-4.2h.828a27.8,27.8,0,0,0,5.232-.324Zm-4.08,2.724h5.52V.132h-5.52Zm-.624,3h6.768V-2.856H46.02ZM52.152-9.816v6.372h.636V-9.816ZM55.14,2.112A2.493,2.493,0,0,0,56.58-.12c0-.636-.288-1.032-.72-1.032a.6.6,0,0,0-.636.6.588.588,0,0,0,.624.612.584.584,0,0,0,.144-.012,1.815,1.815,0,0,1-1.056,1.608ZM68.952-9.816h-.636v7.872h.636ZM66.72-4.1a3.88,3.88,0,0,1-2.808-3.36v-.864h2.6v-.54H60.66v.54h2.616v.864A4.037,4.037,0,0,1,60.492-3.9l.336.5a4.648,4.648,0,0,0,2.784-2.832,4.543,4.543,0,0,0,2.8,2.616ZM62.892.036V-2.7h-.636V.576h7.056V.036Zm14.52-5.028a23.57,23.57,0,0,1-4.932.372h-.156V-8.328h4.044v-.54h-4.68v4.8h.792a24.148,24.148,0,0,0,5-.384ZM73.488-2.844h-.636V.576h7.032V.036h-6.4Zm5.868-3.672V-9.84H78.72V-2.1h.636V-5.964h1.668v-.552Zm9.252,1.464a27.551,27.551,0,0,1-5.148.324h-.192V-6.456H87.4v-.528H83.268V-8.616h4.416v-.54H82.632V-4.2h.828a27.8,27.8,0,0,0,5.232-.324Zm-4.08,2.724h5.52V.132h-5.52Zm-.624,3h6.768V-2.856H83.9ZM90.036-9.816v6.372h.636V-9.816Z" transform="translate(35.958 444.463)"/>
  <path id="패스_611" data-name="패스 611" class="cls-3" d="M20.108-91.094H144.879v-49.5H20.108Z" transform="translate(0 546.586)"/>
  <path id="패스_871" data-name="패스 871" class="cls-10" d="M10.257-10.686H9.191v8.372h1.066ZM5.707-5.122H2.34V-8.827H5.707Zm1.04-4.563H1.3v5.421H6.747ZM3.822-.286V-3.107H2.756V.572h7.852V-.286ZM18.5-3.809v.793h2.366v1.2h1.066V-10.7H20.865v6.89ZM16.12-9.438c1.105,0,1.859.494,1.859,1.235s-.754,1.248-1.859,1.248S14.261-7.449,14.261-8.2,15.015-9.438,16.12-9.438Zm0,3.276c1.7,0,2.873-.793,2.873-2.041,0-1.222-1.17-2.028-2.873-2.028s-2.873.806-2.873,2.028C13.247-6.955,14.417-6.162,16.12-6.162ZM15.7-2.236H16.77v-2.3c1.053-.065,2.132-.182,3.159-.338l-.091-.767a63.343,63.343,0,0,1-7.514.338l.143.884c.962,0,2.08-.013,3.237-.065Zm-.65,2.067V-2.691H13.988V.7H22.23V-.169ZM32.864-5.72a16.864,16.864,0,0,0,.3-3.458v-.611h-5.8v.871h4.758a14.822,14.822,0,0,1-.312,3.081Zm1.105.7c-1.183.169-2.509.26-3.783.312V-7.189H29.133v2.522c-.884.013-1.729.026-2.47.026l.1.871a46.726,46.726,0,0,0,7.28-.468Zm-4.459,2.3H28.444V.7h7.748V-.169H29.51Zm6.3-4.186v-3.8H34.749v8.788h1.066V-6.019h1.677V-6.9Zm4.368,1.456h4.3V-9.62H39.078v.871h4.329v2.431h-4.29v4.472h.962a33.838,33.838,0,0,0,5.876-.429l-.1-.871a34.266,34.266,0,0,1-5.668.416Zm6.76-5.265V.975h1.066V-10.712Z" transform="translate(57.274 488.463)"/>
  <g id="그룹-7" data-name="그룹" transform="translate(0 546.586)">
    <text id="C" class="cls-11" transform="translate(38.946 -42.123)"><tspan x="0" y="0">C</tspan></text>
    <text id="CM팀_C" data-name="CM팀, C" class="cls-11" transform="translate(45.966 -42.123)"><tspan x="0" y="0">CM</tspan><tspan y="0">팀, </tspan><tspan y="0">C</tspan></text>
    <text id="S전략팀" class="cls-11" transform="translate(86.502 -42.123)"><tspan x="0" y="0">S</tspan><tspan y="0">전략팀</tspan></text>
  </g>
  <path id="패스_612" data-name="패스 612" class="cls-3" d="M20.108-31.094H144.879v-49.5H20.108Z" transform="translate(0 546.586)"/>
  <path id="패스_613" data-name="패스 613" class="cls-7" d="M562.858-446.722H810.236v-33.5H562.858Z" transform="translate(0 546.586)"/>
  <path id="패스_887" data-name="패스 887" class="cls-2" d="M4.17.2C6.255.2,7.59-1.71,7.59-5.535S6.255-11.2,4.17-11.2C2.07-11.2.735-9.36.735-5.535S2.07.2,4.17.2ZM4.17-.9c-1.26,0-2.1-1.4-2.1-4.635,0-3.21.84-4.56,2.1-4.56,1.245,0,2.085,1.35,2.085,4.56C6.255-2.3,5.415-.9,4.17-.9ZM8.685,0H15.6V-1.185H12.555c-.555,0-1.23.06-1.8.105,2.58-2.445,4.305-4.68,4.305-6.87A3.016,3.016,0,0,0,11.865-11.2a4.205,4.205,0,0,0-3.24,1.62l.8.78A3.079,3.079,0,0,1,11.7-10.08a1.933,1.933,0,0,1,2.025,2.175c0,1.89-1.59,4.08-5.04,7.1Zm9.45.2a.991.991,0,0,0,.99-1.035,1.017,1.017,0,0,0-.99-1.065,1.017,1.017,0,0,0-.99,1.065A.991.991,0,0,0,18.135.2ZM30.96-8.85v1h2.655V-4.32H34.86v-8.01H33.615v3.48Zm.75,3.06A4.632,4.632,0,0,1,28.44-9.9v-.465H31.4v-.99H24.21v.99h3V-9.9a4.96,4.96,0,0,1-3.39,4.485l.645.975a5.823,5.823,0,0,0,3.39-3.42,5.527,5.527,0,0,0,3.24,3.03ZM30.42.15c-2.025,0-3.255-.57-3.255-1.545s1.23-1.56,3.255-1.56,3.255.585,3.255,1.56S32.445.15,30.42.15Zm0-4.05c-2.76,0-4.485.915-4.485,2.5s1.725,2.5,4.485,2.5,4.47-.915,4.47-2.5S33.18-3.9,30.42-3.9Zm9.51-4.08H46.8v2.475H39.93Zm4.05,6.36V-4.515H48v-6.87H46.8v2.4H39.93v-2.4H38.715v6.87h4.02V-1.62h-5.46v1h12.2v-1Zm9.45-6.36H60.3v2.475H53.43Zm4.05,6.36V-4.515H61.5v-6.87H60.3v2.4H53.43v-2.4H52.215v6.87h4.02V-1.62h-5.46v1h12.2v-1Zm18.315-8.76H70.98v-1.755H69.75v1.755H64.875v1h10.92Zm-8.61,4.47c0-.99,1.215-1.59,3.18-1.59,1.935,0,3.135.6,3.135,1.59S72.3-4.3,70.365-4.3C68.4-4.3,67.185-4.9,67.185-5.91ZM70.98-1.47V-3.36c2.34-.15,3.765-1.05,3.765-2.55,0-1.62-1.695-2.55-4.38-2.55-2.73,0-4.425.93-4.425,2.55,0,1.5,1.44,2.415,3.81,2.55v1.89H64.275v1H76.47v-1Zm14.265-9.225c1.305,0,2.235.7,2.235,1.755s-.93,1.755-2.235,1.755S83-7.89,83-8.94,83.925-10.695,85.245-10.695Zm0,4.515c1.995,0,3.42-1.125,3.42-2.76s-1.425-2.775-3.42-2.775c-2.01,0-3.435,1.125-3.435,2.775S83.235-6.18,85.245-6.18Zm4.425.66a61.8,61.8,0,0,1-8.865.48L80.97-4c1.11,0,2.385-.015,3.72-.075V.69h1.23V-4.155a33.729,33.729,0,0,0,3.855-.45Zm.975-6.81V1.125h1.23V-12.33Zm10.74,7.935v.915h2.73V-2.1h1.23V-12.345h-1.23v7.95Zm-2.745-6.5c1.275,0,2.145.57,2.145,1.425s-.87,1.44-2.145,1.44S96.5-8.6,96.5-9.465,97.365-10.89,98.64-10.89Zm0,3.78c1.965,0,3.315-.915,3.315-2.355,0-1.41-1.35-2.34-3.315-2.34s-3.315.93-3.315,2.34C95.325-8.025,96.675-7.11,98.64-7.11Zm-.48,4.53h1.23V-5.235c1.215-.075,2.46-.21,3.645-.39l-.105-.885a73.088,73.088,0,0,1-8.67.39l.165,1.02c1.11,0,2.4-.015,3.735-.075ZM97.41-.2v-2.91H96.18V.81h9.51V-.2Zm18.96-10.5H112.9V-12.33h-1.23v1.635h-3.48v.99h8.175ZM110.22-6.45c0-.945.84-1.545,2.07-1.545s2.055.6,2.055,1.545-.84,1.53-2.055,1.53S110.22-5.52,110.22-6.45ZM112.9-3.99c1.59-.2,2.61-1.125,2.61-2.46,0-1.515-1.305-2.49-3.225-2.49s-3.24.975-3.24,2.49c0,1.35,1.035,2.28,2.625,2.475v1.44c-1.335.045-2.625.06-3.765.06l.18,1.035a55.021,55.021,0,0,0,8.715-.54l-.09-.915c-1.23.165-2.535.255-3.81.315Zm4.665-8.34V1.11h1.23V-12.33Z" transform="translate(620.473 89.161)"/>
  <g id="그룹_427" data-name="그룹 427" transform="translate(689.516 161.82)">
    <path id="패스_614" data-name="패스 614" class="cls-3" d="M0,0V86.912"/>
  </g>
  <path id="패스_615" data-name="패스 615" class="cls-12" d="M565.09-356.721H813.959v-30H565.09Z" transform="translate(0 546.586)"/>
  <path id="패스_888" data-name="패스 888" class="cls-4" d="M7.98-8.85v1h2.655V-4.32H11.88v-8.01H10.635v3.48Zm.75,3.06A4.632,4.632,0,0,1,5.46-9.9v-.465H8.415v-.99H1.23v.99h3V-9.9A4.96,4.96,0,0,1,.84-5.415l.645.975a5.823,5.823,0,0,0,3.39-3.42,5.527,5.527,0,0,0,3.24,3.03ZM7.44.15C5.415.15,4.185-.42,4.185-1.395s1.23-1.56,3.255-1.56,3.255.585,3.255,1.56S9.465.15,7.44.15Zm0-4.05c-2.76,0-4.485.915-4.485,2.5S4.68,1.11,7.44,1.11s4.47-.915,4.47-2.5S10.2-3.9,7.44-3.9Zm9.51-4.08h6.87v2.475H16.95ZM21-1.62V-4.515h4.02v-6.87h-1.2v2.4H16.95v-2.4H15.735v6.87h4.02V-1.62H14.3v1H26.49v-1Zm9.45-6.36h6.87v2.475H30.45ZM34.5-1.62V-4.515h4.02v-6.87h-1.2v2.4H30.45v-2.4H29.235v6.87h4.02V-1.62H27.8v1H39.99v-1Zm18.315-8.76H48v-1.755H46.77v1.755H41.9v1h10.92Zm-8.61,4.47c0-.99,1.215-1.59,3.18-1.59,1.935,0,3.135.6,3.135,1.59S49.32-4.3,47.385-4.3C45.42-4.3,44.205-4.9,44.205-5.91ZM48-1.47V-3.36c2.34-.15,3.765-1.05,3.765-2.55,0-1.62-1.695-2.55-4.38-2.55-2.73,0-4.425.93-4.425,2.55,0,1.5,1.44,2.415,3.81,2.55v1.89H41.295v1H53.49v-1Zm11.205-9.225c1.3,0,2.235.7,2.235,1.755s-.93,1.755-2.235,1.755c-1.32,0-2.25-.705-2.25-1.755S57.885-10.695,59.205-10.695Zm0,4.515c1.995,0,3.42-1.125,3.42-2.76s-1.425-2.775-3.42-2.775c-2.01,0-3.435,1.125-3.435,2.775S57.195-6.18,59.205-6.18Zm4.425.66a61.8,61.8,0,0,1-8.865.48L54.93-4c1.11,0,2.385-.015,3.72-.075V.69h1.23V-4.155a33.729,33.729,0,0,0,3.855-.45Zm.975-6.81V1.125h1.23V-12.33Zm10.74,7.935v.915h2.73V-2.1h1.23V-12.345h-1.23v7.95ZM72.6-10.89c1.275,0,2.145.57,2.145,1.425s-.87,1.44-2.145,1.44-2.145-.57-2.145-1.44S71.325-10.89,72.6-10.89Zm0,3.78c1.965,0,3.315-.915,3.315-2.355,0-1.41-1.35-2.34-3.315-2.34s-3.315.93-3.315,2.34C69.285-8.025,70.635-7.11,72.6-7.11Zm-.48,4.53h1.23V-5.235c1.215-.075,2.46-.21,3.645-.39L76.89-6.51a73.088,73.088,0,0,1-8.67.39l.165,1.02c1.11,0,2.4-.015,3.735-.075ZM71.37-.2v-2.91H70.14V.81h9.51V-.2ZM89.6-5.835a4.376,4.376,0,0,1-3.255-3.99v-.525h2.97v-.99H82.1v.99H85.11v.525a4.765,4.765,0,0,1-3.375,4.38l.63.975a5.556,5.556,0,0,0,3.39-3.3A5.232,5.232,0,0,0,89.01-4.875ZM87.96.12c-2.01,0-3.21-.555-3.21-1.515s1.2-1.5,3.21-1.5c1.98,0,3.195.555,3.195,1.5S89.94.12,87.96.12Zm0-3.99c-2.76,0-4.44.915-4.44,2.475C83.52.18,85.2,1.1,87.96,1.1c2.73,0,4.425-.915,4.425-2.49C92.385-2.955,90.69-3.87,87.96-3.87Zm4.275-5.07v-3.39H91v8.115h1.23v-3.69h2V-8.94ZM99.06,0h1.395V-10.995H99.06Zm6.39,0h1.4V-9.825h3.33v-1.17H102.12v1.17h3.33Zm17.04-12.345H121.3v10.1h1.185ZM118.68-2.64h1.155v-9.435H118.68v3.12h-2.1V-7.95h2.1Zm-.93-2.835a4.391,4.391,0,0,1-2.64-3.945V-11.4h-1.185v1.98a4.965,4.965,0,0,1-2.76,4.29l.69.945a5.594,5.594,0,0,0,2.67-3.12,5.021,5.021,0,0,0,2.55,2.775ZM114.945-.2V-3.48h-1.23V.81h9.165V-.2Zm11.535-6.15h4.41v-.99h-4.41V-10.11h4.995v-1.02H125.25v9.015h1.035a32.71,32.71,0,0,0,6.15-.42l-.135-1a30.387,30.387,0,0,1-5.82.42Zm8.01-6.015v5.085h-2.775v1.02h2.775v7.38h1.23V-12.36Zm11.445,6.525a4.376,4.376,0,0,1-3.255-3.99v-.525h2.97v-.99h-7.215v.99h3.015v.525a4.765,4.765,0,0,1-3.375,4.38l.63.975a5.556,5.556,0,0,0,3.39-3.3,5.232,5.232,0,0,0,3.255,2.895ZM144.3.12c-2.01,0-3.21-.555-3.21-1.515s1.2-1.5,3.21-1.5c1.98,0,3.195.555,3.195,1.5S146.28.12,144.3.12Zm0-3.99c-2.76,0-4.44.915-4.44,2.475,0,1.575,1.68,2.49,4.44,2.49,2.73,0,4.425-.915,4.425-2.49C148.725-2.955,147.03-3.87,144.3-3.87Zm4.275-5.07v-3.39h-1.23v8.115h1.23v-3.69h1.995V-8.94Z" transform="translate(613.534 180.585)"/>
  <path id="패스_616" data-name="패스 616" class="cls-13" d="M565.09-267.855H813.959v-30H565.09Z" transform="translate(0 546.586)"/>
  <path id="패스_889" data-name="패스 889" class="cls-4" d="M7.98-8.85v1h2.655V-4.32H11.88v-8.01H10.635v3.48Zm.75,3.06A4.632,4.632,0,0,1,5.46-9.9v-.465H8.415v-.99H1.23v.99h3V-9.9A4.96,4.96,0,0,1,.84-5.415l.645.975a5.823,5.823,0,0,0,3.39-3.42,5.527,5.527,0,0,0,3.24,3.03ZM7.44.15C5.415.15,4.185-.42,4.185-1.395s1.23-1.56,3.255-1.56,3.255.585,3.255,1.56S9.465.15,7.44.15Zm0-4.05c-2.76,0-4.485.915-4.485,2.5S4.68,1.11,7.44,1.11s4.47-.915,4.47-2.5S10.2-3.9,7.44-3.9Zm9.51-4.08h6.87v2.475H16.95ZM21-1.62V-4.515h4.02v-6.87h-1.2v2.4H16.95v-2.4H15.735v6.87h4.02V-1.62H14.3v1H26.49v-1Zm9.45-6.36h6.87v2.475H30.45ZM34.5-1.62V-4.515h4.02v-6.87h-1.2v2.4H30.45v-2.4H29.235v6.87h4.02V-1.62H27.8v1H39.99v-1Zm18.315-8.76H48v-1.755H46.77v1.755H41.9v1h10.92Zm-8.61,4.47c0-.99,1.215-1.59,3.18-1.59,1.935,0,3.135.6,3.135,1.59S49.32-4.3,47.385-4.3C45.42-4.3,44.205-4.9,44.205-5.91ZM48-1.47V-3.36c2.34-.15,3.765-1.05,3.765-2.55,0-1.62-1.695-2.55-4.38-2.55-2.73,0-4.425.93-4.425,2.55,0,1.5,1.44,2.415,3.81,2.55v1.89H41.295v1H53.49v-1Zm14.265-9.225c1.305,0,2.235.7,2.235,1.755s-.93,1.755-2.235,1.755-2.25-.705-2.25-1.755S60.945-10.695,62.265-10.695Zm0,4.515c2,0,3.42-1.125,3.42-2.76s-1.425-2.775-3.42-2.775S58.83-10.59,58.83-8.94,60.255-6.18,62.265-6.18Zm4.425.66a61.8,61.8,0,0,1-8.865.48L57.99-4c1.11,0,2.385-.015,3.72-.075V.69h1.23V-4.155a33.729,33.729,0,0,0,3.855-.45Zm.975-6.81V1.125H68.9V-12.33ZM78.4-4.395v.915h2.73V-2.1h1.23V-12.345h-1.23v7.95Zm-2.745-6.5c1.275,0,2.145.57,2.145,1.425s-.87,1.44-2.145,1.44-2.145-.57-2.145-1.44S74.385-10.89,75.66-10.89Zm0,3.78c1.965,0,3.315-.915,3.315-2.355,0-1.41-1.35-2.34-3.315-2.34s-3.315.93-3.315,2.34C72.345-8.025,73.695-7.11,75.66-7.11Zm-.48,4.53h1.23V-5.235c1.215-.075,2.46-.21,3.645-.39L79.95-6.51a73.088,73.088,0,0,1-8.67.39l.165,1.02c1.11,0,2.4-.015,3.735-.075ZM74.43-.2v-2.91H73.2V.81h9.51V-.2Z" transform="translate(646.924 268.732)"/>
  <path id="패스_894" data-name="패스 894" class="cls-8" d="M6.2-5.292A14.5,14.5,0,0,0,6.5-8.46v-.492H1.32v.528H5.88a13.189,13.189,0,0,1-.312,3.072Zm1.212.756a36.319,36.319,0,0,1-3.684.3V-6.648H3.1v2.436c-.876.024-1.7.024-2.436.024l.084.564a46.291,46.291,0,0,0,6.72-.42ZM2.976-2.52H2.34v3.1H9.192V.036H2.976ZM8.844-6.228V-9.816H8.208v8.052h.636V-5.676h1.68v-.552Zm10.74,4.236h.636V-9.8h-.636V-7.92H17.292v.54h2.292v1.848H17.292v.54h2.292ZM17.3-4.308a24.744,24.744,0,0,1-4.56.276h-.108V-6.12h3.876V-9.048H11.976v.528h3.9v1.872H12v3.156h.756a25.781,25.781,0,0,0,4.62-.276ZM14.1-.036v-2.5h-.624V.5h7.1v-.54ZM26.808-2.352h-.636V.576h7.284V.036H26.808Zm.012-4.98H32.6V-5.7H26.82Zm3.2,3.432V-5.184H33.24v-4.2H32.6V-7.86H26.82V-9.384h-.636v4.2h3.2V-3.9H24.876v.54h9.636V-3.9ZM43.488-5.376H37.656v-1.86h5.832Zm.636-4.008h-.636v1.62H37.656v-1.62H37.02v4.548h7.1ZM45.408-3.4H35.724v.54h4.5V.84h.636v-3.7h4.548Zm7.272-1.08a3.707,3.707,0,0,1-2.664-3.252v-.72h2.52v-.528H46.86v.528h2.532v.732a3.967,3.967,0,0,1-2.76,3.528l.336.5a4.656,4.656,0,0,0,2.76-2.784,4.352,4.352,0,0,0,2.64,2.5ZM51.456.288c-1.7,0-2.808-.528-2.808-1.38s1.1-1.38,2.808-1.38,2.82.528,2.82,1.38S53.172.288,51.456.288Zm0-3.276c-2.136,0-3.432.684-3.432,1.9S49.32.8,51.456.8,54.9.12,54.9-1.092,53.592-2.988,51.456-2.988Zm3.36-3.972V-9.816H54.18v6.48h.636V-6.408h1.668V-6.96ZM68.6-9.828h-.636V-3.66H68.6ZM64.752-5.364H61.14V-8.58h3.612Zm.612-3.744H60.516v4.272h4.848Zm.324,6.792h3.228v-.516H65.688V-3.984H65.04v1.152h-3.2v.516h3.2v.108C65.04-1,62.952.072,61.4.288l.228.5a5.549,5.549,0,0,0,3.732-2.136A5.4,5.4,0,0,0,69.036.792l.228-.5c-1.56-.24-3.576-1.3-3.576-2.5ZM79.9-5.052a27.551,27.551,0,0,1-5.148.324h-.192V-6.456h4.128v-.528H74.556V-8.616h4.416v-.54H73.92V-4.2h.828a27.8,27.8,0,0,0,5.232-.324Zm-4.08,2.724h5.52V.132h-5.52Zm-.624,3H81.96V-2.856H75.192ZM81.324-9.816v6.372h.636V-9.816Zm8.9,5.34a3.707,3.707,0,0,1-2.664-3.252v-.72h2.52v-.528H84.408v.528H86.94v.732a3.967,3.967,0,0,1-2.76,3.528l.336.5a4.656,4.656,0,0,0,2.76-2.784,4.352,4.352,0,0,0,2.64,2.5ZM89,.288C87.3.288,86.2-.24,86.2-1.092S87.3-2.472,89-2.472s2.82.528,2.82,1.38S90.72.288,89,.288Zm0-3.276c-2.136,0-3.432.684-3.432,1.9S86.868.8,89,.8s3.444-.684,3.444-1.9S91.14-2.988,89-2.988Zm3.36-3.972V-9.816h-.636v6.48h.636V-6.408h1.668V-6.96Z" transform="translate(641.225 468.692)"/>
  <path id="패스_617" data-name="패스 617" class="cls-3" d="M565.34-61.963H813.709v-42.424H565.34Z" transform="translate(0 546.586)"/>
  <g id="그룹-8" data-name="그룹" transform="translate(0 546.586)">
    <path id="패스_891" data-name="패스 891" class="cls-8" d="M7.1-8.664H4.332V-9.852H3.7v1.188H.924v.5H7.1ZM2.184-5.988c0-.684.732-1.14,1.824-1.14s1.824.456,1.824,1.14S5.1-4.824,4.008-4.824,2.184-5.292,2.184-5.988ZM7.452-3.744c-.984.144-2.064.24-3.12.288v-.9C5.6-4.44,6.42-5.04,6.42-5.988c0-1.008-.96-1.62-2.412-1.62S1.584-7,1.584-5.988c0,.96.828,1.548,2.112,1.632v.936C2.6-3.384,1.548-3.372.66-3.372l.1.552A41.407,41.407,0,0,0,7.5-3.276ZM2.94-2.028H2.3v2.6H9.216V.036H2.94ZM8.82-5.964V-9.816H8.184v8.34H8.82V-5.424h1.692v-.54ZM19.584-7.152V-5.46H16.512v.54h3.072v1.632h.636V-9.8h-.636v2.112H16.836A4.86,4.86,0,0,0,17-8.964H12.24v.528h4.08c-.168,2.088-2,3.672-4.608,4.488L12-3.42a7.027,7.027,0,0,0,4.644-3.732ZM16.8.276C15.06.276,13.932-.3,13.932-1.2S15.06-2.652,16.8-2.652c1.716,0,2.856.564,2.856,1.452S18.516.276,16.8.276Zm0-3.444c-2.16,0-3.492.732-3.492,1.968C13.308.06,14.64.792,16.8.792c2.136,0,3.468-.732,3.468-1.992C20.268-2.436,18.936-3.168,16.8-3.168ZM23-8.64v.54H27.18c-.168,2.592-1.74,4.872-4.62,6.3l.36.5A8.052,8.052,0,0,0,27.8-8.64Zm9.348,3.288H30.5V-9.816h-.636V.84H30.5V-4.8h1.848Zm6.54-1.416v.54H41.3v4.26h.636V-9.816H41.3v3.048Zm.564,2.532A3.879,3.879,0,0,1,36.768-7.56v-.768h2.5v-.54H33.6v.54h2.544v.78A4.131,4.131,0,0,1,33.36-3.96l.336.516a4.821,4.821,0,0,0,2.772-2.892A4.649,4.649,0,0,0,39.132-3.72ZM35.916.036V-2.688H35.28V.576h6.984V.036Zm11.556-8.88H46.86v2.136A5.9,5.9,0,0,1,44.016-2l.4.516a6.54,6.54,0,0,0,2.772-3.756,6.189,6.189,0,0,0,2.76,3.528l.4-.492a5.662,5.662,0,0,1-2.868-4.5ZM54.1-5.376H52.224V-9.828h-.636V.84h.636V-4.836H54.1ZM63.024.144H57.636V-1.464h5.388Zm0-2.136H57.636V-3.54H57V.672h6.66V-3.54h-.636Zm-5.16-3a1.941,1.941,0,0,1-2.088-1.884A1.927,1.927,0,0,1,57.864-8.76a1.927,1.927,0,0,1,2.088,1.884A1.941,1.941,0,0,1,57.864-4.992Zm5.16-4.824v2.64H60.552A2.488,2.488,0,0,0,57.864-9.3a2.45,2.45,0,0,0-2.7,2.424,2.457,2.457,0,0,0,2.7,2.424,2.476,2.476,0,0,0,2.688-2.172h2.472V-4.1h.636V-9.816Z" transform="translate(593.252 -181.279)"/>
    <text id="_4" data-name=" " class="cls-9" transform="translate(658.592 -181.279)"><tspan x="0" y="0"> </tspan></text>
    <path id="패스_892" data-name="패스 892" class="cls-8" d="M2.6-2.352H1.968V.576H9.252V.036H2.6Zm.012-4.98H8.4V-5.7H2.616ZM5.82-3.9V-5.184H9.036v-4.2H8.4V-7.86H2.616V-9.384H1.98v4.2h3.2V-3.9H.672v.54h9.636V-3.9ZM19.284-5.376H13.452v-1.86h5.832Zm.636-4.008h-.636v1.62H13.452v-1.62h-.636v4.548h7.1ZM21.2-3.4H11.52v.54h4.5V.84h.636v-3.7H21.2Zm7.272-1.08a3.707,3.707,0,0,1-2.664-3.252v-.72h2.52v-.528H22.656v.528h2.532v.732a3.967,3.967,0,0,1-2.76,3.528l.336.5a4.656,4.656,0,0,0,2.76-2.784,4.352,4.352,0,0,0,2.64,2.5ZM27.252.288c-1.7,0-2.808-.528-2.808-1.38s1.1-1.38,2.808-1.38,2.82.528,2.82,1.38S28.968.288,27.252.288Zm0-3.276c-2.136,0-3.432.684-3.432,1.9S25.116.8,27.252.8,30.7.12,30.7-1.092,29.388-2.988,27.252-2.988Zm3.36-3.972V-9.816h-.636v6.48h.636V-6.408H32.28V-6.96Z" transform="translate(609.548 -165.283)"/>
  </g>
  <path id="패스_618" data-name="패스 618" class="cls-3" d="M565.34-157.348H686.5v-42.424H565.34Z" transform="translate(0 546.586)"/>
  <g id="그룹-9" data-name="그룹" transform="translate(0 546.586)">
    <path id="패스_897" data-name="패스 897" class="cls-8" d="M1.6-5.82l.108.564L8.34-5.64a18.293,18.293,0,0,1-.384,2.772l.636.072a22.15,22.15,0,0,0,.42-4.836V-8.688H1.872v.54H8.388v.516c0,.48,0,.96-.024,1.5ZM5.256-1.3V-4.188H4.632V-1.3H.684v.54h9.624V-1.3ZM20.628-4.284c-1.512-.3-3.972-1.908-3.972-3.876v-.852H16v.852c0,1.98-2.424,3.564-3.948,3.876l.3.54A6.163,6.163,0,0,0,16.332-6.96a6.176,6.176,0,0,0,4,3.216Zm-9.1,3.06v.54H21.2v-.54Zm14.676-1.44H23.436V-7.992h2.772Zm2.5-3.06h-1.9V-8.508H22.836v6.372h3.972V-5.184h1.9V.276h.612V-9.552H28.7Zm2.088-4.092V.84H31.4V-9.816Zm9.072,4.932a26.628,26.628,0,0,1-5.148.324h-.192V-6.348h4.128v-.528H34.524V-8.544H38.94v-.54H33.888V-4.02h.828a28.857,28.857,0,0,0,5.232-.324ZM34.9-2.208h6.4V.84h.636V-2.736H34.9Zm6.4-7.608v6.5h.636v-6.5Zm6.18.972H46.86v2.136A5.9,5.9,0,0,1,44.016-2l.4.516a6.54,6.54,0,0,0,2.772-3.756,6.189,6.189,0,0,0,2.76,3.528l.4-.492a5.662,5.662,0,0,1-2.868-4.5ZM54.1-5.376H52.224V-9.828h-.636V.84h.636V-4.836H54.1ZM63.024.144H57.636V-1.464h5.388Zm0-2.136H57.636V-3.54H57V.672h6.66V-3.54h-.636Zm-5.16-3a1.941,1.941,0,0,1-2.088-1.884A1.927,1.927,0,0,1,57.864-8.76a1.927,1.927,0,0,1,2.088,1.884A1.941,1.941,0,0,1,57.864-4.992Zm5.16-4.824v2.64H60.552A2.488,2.488,0,0,0,57.864-9.3a2.45,2.45,0,0,0-2.7,2.424,2.457,2.457,0,0,0,2.7,2.424,2.476,2.476,0,0,0,2.688-2.172h2.472V-4.1h.636V-9.816Z" transform="translate(720.457 -181.279)"/>
    <text id="_5" data-name=" " class="cls-9" transform="translate(785.797 -181.279)"><tspan x="0" y="0"> </tspan></text>
    <path id="패스_896" data-name="패스 896" class="cls-8" d="M2.6-2.352H1.968V.576H9.252V.036H2.6Zm.012-4.98H8.4V-5.7H2.616ZM5.82-3.9V-5.184H9.036v-4.2H8.4V-7.86H2.616V-9.384H1.98v4.2h3.2V-3.9H.672v.54h9.636V-3.9ZM19.284-5.376H13.452v-1.86h5.832Zm.636-4.008h-.636v1.62H13.452v-1.62h-.636v4.548h7.1ZM21.2-3.4H11.52v.54h4.5V.84h.636v-3.7H21.2Zm7.272-1.08a3.707,3.707,0,0,1-2.664-3.252v-.72h2.52v-.528H22.656v.528h2.532v.732a3.967,3.967,0,0,1-2.76,3.528l.336.5a4.656,4.656,0,0,0,2.76-2.784,4.352,4.352,0,0,0,2.64,2.5ZM27.252.288c-1.7,0-2.808-.528-2.808-1.38s1.1-1.38,2.808-1.38,2.82.528,2.82,1.38S28.968.288,27.252.288Zm0-3.276c-2.136,0-3.432.684-3.432,1.9S25.116.8,27.252.8,30.7.12,30.7-1.092,29.388-2.988,27.252-2.988Zm3.36-3.972V-9.816h-.636v6.48h.636V-6.408H32.28V-6.96Z" transform="translate(736.753 -165.283)"/>
  </g>
  <path id="패스_619" data-name="패스 619" class="cls-3" d="M692.545-157.348H813.709v-42.424H692.545Z" transform="translate(0 546.586)"/>
  <path id="패스_890" data-name="패스 890" class="cls-8" d="M5.484-8.976c1.788,0,3.024.624,3.024,1.548S7.272-5.88,5.484-5.88s-3-.612-3-1.548S3.7-8.976,5.484-8.976Zm0,3.636c2.232,0,3.684-.792,3.684-2.088S7.716-9.5,5.484-9.5s-3.66.78-3.66,2.076S3.264-5.34,5.484-5.34ZM2.544-2.328H1.908v2.9H9.3V.036H2.544ZM.684-4.38v.54h3.4v2.412h.636V-3.84H7.092v2.412h.636V-3.84H10.32v-.54ZM12.816-2.328V-5.172h4.2V-8.784H12.144v.552h4.248v2.52H12.18v3.924h.852a32.762,32.762,0,0,0,5.436-.4l-.06-.54a33.489,33.489,0,0,1-5.376.4ZM19.56-9.816V.852H20.2V-9.816ZM30.444-7.152V-5.46H27.372v.54h3.072v1.632h.636V-9.8h-.636v2.112H27.7a4.86,4.86,0,0,0,.168-1.272H23.1v.528h4.08c-.168,2.088-2,3.672-4.608,4.488l.288.528A7.027,7.027,0,0,0,27.5-7.152ZM27.66.276C25.92.276,24.792-.3,24.792-1.2S25.92-2.652,27.66-2.652c1.716,0,2.856.564,2.856,1.452S29.376.276,27.66.276Zm0-3.444c-2.16,0-3.492.732-3.492,1.968C24.168.06,25.5.792,27.66.792,29.8.792,31.128.06,31.128-1.2,31.128-2.436,29.8-3.168,27.66-3.168Zm6.4-3.516a1.97,1.97,0,0,1,2.088-1.932,1.97,1.97,0,0,1,2.088,1.932A1.965,1.965,0,0,1,36.144-4.74,1.965,1.965,0,0,1,34.056-6.684ZM41.3-7.668v1.98H38.652a2.677,2.677,0,0,0,.192-1,2.662,2.662,0,0,0-.192-.984Zm0,2.52V-3.48h.636V-9.828H41.3V-8.2H38.328a2.736,2.736,0,0,0-2.184-.96,2.5,2.5,0,0,0-2.7,2.472,2.513,2.513,0,0,0,2.7,2.508,2.745,2.745,0,0,0,2.184-.972ZM38.484.288c-1.728,0-2.856-.576-2.856-1.488s1.128-1.488,2.856-1.488c1.752,0,2.88.588,2.88,1.488S40.236.288,38.484.288Zm0-3.492c-2.16,0-3.48.732-3.48,2s1.32,2,3.48,2,3.5-.732,3.5-2S40.656-3.2,38.484-3.2ZM52.776-9.828H52.14v5.592h.636ZM50.508-5.136a4.046,4.046,0,0,1-2.82-3.528V-9.48h-.624v.816a4.232,4.232,0,0,1-2.8,3.732l.336.516a4.869,4.869,0,0,0,2.784-2.928,4.758,4.758,0,0,0,2.8,2.712ZM46.68.156v-1.44h6.108V-3.648H46.02v.528h6.144v1.332H46.056V.684h7.152V.156ZM61.056-4.476a3.707,3.707,0,0,1-2.664-3.252v-.72h2.52v-.528H55.236v.528h2.532v.732a3.967,3.967,0,0,1-2.76,3.528l.336.5A4.656,4.656,0,0,0,58.1-6.468a4.352,4.352,0,0,0,2.64,2.5ZM59.832.288c-1.7,0-2.808-.528-2.808-1.38s1.1-1.38,2.808-1.38,2.82.528,2.82,1.38S61.548.288,59.832.288Zm0-3.276c-2.136,0-3.432.684-3.432,1.9S57.7.8,59.832.8s3.444-.684,3.444-1.9S61.968-2.988,59.832-2.988Zm3.36-3.972V-9.816h-.636v6.48h.636V-6.408H64.86V-6.96Z" transform="translate(593.252 325.615)"/>
  <path id="패스_620" data-name="패스 620" class="cls-3" d="M565.34-205.041H686.5v-42.422H565.34Z" transform="translate(0 546.586)"/>
  <path id="패스_898" data-name="패스 898" class="cls-8" d="M6.768-4.62A4.018,4.018,0,0,1,4.044-8.088V-9.3H3.432v1.188A4.2,4.2,0,0,1,.708-4.332l.336.516A4.788,4.788,0,0,0,3.768-6.768,4.654,4.654,0,0,0,6.42-4.116ZM5.532.288c-1.7,0-2.808-.516-2.808-1.344s1.1-1.356,2.808-1.356,2.82.516,2.82,1.356S7.248.288,5.532.288Zm0-3.216c-2.148,0-3.432.672-3.432,1.872S3.384.8,5.532.8,8.976.132,8.976-1.056,7.68-2.928,5.532-2.928ZM8.892-6.9V-9.828H8.256v6.576h.636v-3.1H10.56V-6.9Zm8.928.6H14.856V-8.928H17.82Zm-3.588,0H12.48v.528H20.2V-6.3h-1.74V-8.928H20.22v-.528H12.468v.528h1.764ZM19.356.132H13.368V-2.04h5.988Zm1.812-4.164v-.54H11.532v.54h4.512v1.464H12.756V.672H19.98v-3.24H16.668V-4.032ZM22.812-8.4v.54H26.3a6.847,6.847,0,0,1-3.828,5.88l.384.468A7.46,7.46,0,0,0,26.928-8.4Zm7.956-1.416v4.44H29V-9.528h-.612V.264H29v-5.1h1.764V.84h.612V-9.816ZM37.98-5.292H34.416v-1.9H37.98ZM38.6-9.408H37.98v1.692H34.416V-9.408H33.78v4.644H38.6ZM35.508-1.3h5.964V-3.684H34.86v.516h5.988v1.356H34.884v2.5H41.9V.156h-6.4Zm5.964-6.1V-9.828h-.636V-4.26h.636V-6.84h1.656v-.552ZM53.04-9.816h-.612v8h.612Zm-2.664,7.7h.612V-9.576h-.612v2.6H48.468v.54h1.908ZM49.368-4.224a3.593,3.593,0,0,1-2.232-3.132V-9.048h-.6v1.692a4.162,4.162,0,0,1-2.292,3.42l.36.5A4.6,4.6,0,0,0,46.836-6.12a4.13,4.13,0,0,0,2.184,2.4ZM46.86.036V-2.808h-.636V.576H53.4V.036Zm9.252-2.388V-5.244H59.88v-.54H56.112V-8.256H60.4v-.552h-4.92v7h.792a24.275,24.275,0,0,0,4.944-.36l-.06-.54a22.774,22.774,0,0,1-4.884.36Zm6.912-7.476v4.176H60.576V-5.1h2.448V.852h.636V-9.828Z" transform="translate(720.457 325.615)"/>
  <path id="패스_621" data-name="패스 621" class="cls-3" d="M692.545-205.041H813.709v-42.422H692.545Z" transform="translate(0 546.586)"/>
  <path id="패스_893" data-name="패스 893" class="cls-8" d="M8.724-7.152V-5.46H5.652v.54H8.724v1.632H9.36V-9.8H8.724v2.112H5.976a4.86,4.86,0,0,0,.168-1.272H1.38v.528H5.46c-.168,2.088-2,3.672-4.608,4.488l.288.528A7.027,7.027,0,0,0,5.784-7.152ZM5.94.276C4.2.276,3.072-.3,3.072-1.2S4.2-2.652,5.94-2.652C7.656-2.652,8.8-2.088,8.8-1.2S7.656.276,5.94.276Zm0-3.444c-2.16,0-3.492.732-3.492,1.968C2.448.06,3.78.792,5.94.792,8.076.792,9.408.06,9.408-1.2,9.408-2.436,8.076-3.168,5.94-3.168Zm6.4-3.516a1.97,1.97,0,0,1,2.088-1.932,1.97,1.97,0,0,1,2.088,1.932A1.965,1.965,0,0,1,14.424-4.74,1.965,1.965,0,0,1,12.336-6.684Zm7.248-.984v1.98H16.932a2.677,2.677,0,0,0,.192-1,2.662,2.662,0,0,0-.192-.984Zm0,2.52V-3.48h.636V-9.828h-.636V-8.2H16.608a2.736,2.736,0,0,0-2.184-.96,2.5,2.5,0,0,0-2.7,2.472,2.513,2.513,0,0,0,2.7,2.508,2.745,2.745,0,0,0,2.184-.972ZM16.764.288c-1.728,0-2.856-.576-2.856-1.488s1.128-1.488,2.856-1.488c1.752,0,2.88.588,2.88,1.488S18.516.288,16.764.288Zm0-3.492c-2.16,0-3.48.732-3.48,2s1.32,2,3.48,2,3.5-.732,3.5-2S18.936-3.2,16.764-3.2Zm11.16-2.088a14.5,14.5,0,0,0,.3-3.168v-.492H23.04v.528H27.6a13.189,13.189,0,0,1-.312,3.072Zm1.212.756a36.319,36.319,0,0,1-3.684.3V-6.648h-.636v2.436c-.876.024-1.7.024-2.436.024l.084.564a46.291,46.291,0,0,0,6.72-.42ZM24.7-2.52H24.06v3.1h6.852V.036H24.7Zm5.868-3.708V-9.816h-.636v8.052h.636V-5.676h1.68v-.552Zm3.972,3.9V-5.172h4.2V-8.784H33.864v.552h4.248v2.52H33.9v3.924h.852a32.762,32.762,0,0,0,5.436-.4l-.06-.54a33.489,33.489,0,0,1-5.376.4ZM41.28-9.816V.852h.636V-9.816Zm4.764,7.464h-.636V.576h7.284V.036H46.044Zm.012-4.98H51.84V-5.7H46.056ZM49.26-3.9V-5.184h3.216v-4.2H51.84V-7.86H46.056V-9.384H45.42v4.2h3.2V-3.9H44.112v.54h9.636V-3.9ZM62.724-5.376H56.892v-1.86h5.832Zm.636-4.008h-.636v1.62H56.892v-1.62h-.636v4.548h7.1ZM64.644-3.4H54.96v.54h4.5V.84H60.1v-3.7h4.548Z" transform="translate(593.252 420.999)"/>
  <path id="패스_622" data-name="패스 622" class="cls-3" d="M565.34-109.656H686.5v-42.422H565.34Z" transform="translate(0 546.586)"/>
  <path id="패스_895" data-name="패스 895" class="cls-8" d="M6.324-6.936v.54h2.4v2.928H9.36V-9.816H8.724v2.88Zm.552,2.5A3.879,3.879,0,0,1,4.188-7.764v-.66h2.5v-.54H1.02v.54H3.564v.672A4.165,4.165,0,0,1,.792-4.128l.324.516A4.816,4.816,0,0,0,3.9-6.528,4.555,4.555,0,0,0,6.552-3.936ZM5.916.3C4.176.3,3.06-.24,3.06-1.128S4.176-2.556,5.916-2.556s2.868.54,2.868,1.428S7.656.3,5.916.3Zm0-3.372c-2.172,0-3.492.7-3.492,1.944S3.744.816,5.916.816,9.408.12,9.408-1.128,8.076-3.072,5.916-3.072ZM13.38-6.42h5.976v2.244H13.38Zm3.288,5.292V-3.636H19.98V-9.024h-.624V-6.96H13.38V-9.024h-.636v5.388h3.288v2.508h-4.5v.54h9.684v-.54ZM24.24-6.42h5.976v2.244H24.24Zm3.288,5.292V-3.636H30.84V-9.024h-.624V-6.96H24.24V-9.024H23.6v5.388h3.288v2.508h-4.5v.54h9.684v-.54ZM42.336-8.112H38.4v-1.5h-.636v1.5H33.78v.54h8.556ZM35.3-4.716c0-.9,1.092-1.464,2.772-1.464s2.772.564,2.772,1.464-1.092,1.488-2.772,1.488S35.3-3.8,35.3-4.716Zm3.1,3.66V-2.724c1.908-.072,3.084-.792,3.084-1.992,0-1.26-1.308-1.992-3.408-1.992s-3.408.732-3.408,1.992c0,1.2,1.176,1.92,3.1,2v1.656h-4.5v.54h9.66v-.54ZM52.128-5.292a14.5,14.5,0,0,0,.3-3.168v-.492H47.244v.528H51.8a13.189,13.189,0,0,1-.312,3.072Zm1.212.756a36.319,36.319,0,0,1-3.684.3V-6.648H49.02v2.436c-.876.024-1.7.024-2.436.024l.084.564a46.291,46.291,0,0,0,6.72-.42ZM48.9-2.52h-.636v3.1h6.852V.036H48.9Zm5.868-3.708V-9.816h-.636v8.052h.636V-5.676h1.68v-.552Zm3.972,3.9V-5.172h4.2V-8.784H58.068v.552h4.248v2.52H58.1v3.924h.852a32.762,32.762,0,0,0,5.436-.4l-.06-.54a33.489,33.489,0,0,1-5.376.4Zm6.744-7.488V.852h.636V-9.816Zm6.24,1.68h2.508v-.552H68.544v.552H71.1v1.788a5.848,5.848,0,0,1-2.916,4.584l.4.528a6.583,6.583,0,0,0,2.832-3.72A6.2,6.2,0,0,0,74.184-1.5l.372-.516a5.421,5.421,0,0,1-2.832-4.332ZM78.3-5.376H76.428v-4.44h-.636V.84h.636V-4.836H78.3Z" transform="translate(713.437 420.999)"/>
  <path id="패스_623" data-name="패스 623" class="cls-3" d="M692.545-110.133H813.709V-151.6H692.545Z" transform="translate(0 546.586)"/>
  <text id="_관련_본부장_및_팀장은_위원회_안건에_따라_유동적_구성" data-name="*관련 본부장 및 팀장은 위원회 안건에 따라 유동적 구성" class="cls-14" transform="translate(565.09 510.211)"><tspan x="0" y="0">*관련 본부장 및 팀장은 위원회 안건에 따라 유동적 구성</tspan></text>
  <path id="패스_860" data-name="패스 860" class="cls-15" d="M8.576-9.584V-8.24h2.56v3.632h1.648v-8.608H11.136v3.632Zm.832,3.216A4.739,4.739,0,0,1,6.016-10.72v-.192H9.024V-12.24H1.3v1.328H4.352v.208A5.073,5.073,0,0,1,.816-6l.848,1.312A5.98,5.98,0,0,0,5.232-8.16a5.644,5.644,0,0,0,3.36,3.088ZM7.984-.032c-2.064,0-3.232-.512-3.232-1.456S5.92-2.944,7.984-2.944c2.032,0,3.216.512,3.216,1.456S10.016-.032,7.984-.032Zm0-4.192C4.96-4.224,3.1-3.2,3.1-1.488,3.1.24,4.96,1.248,7.984,1.248c3.008,0,4.864-1.008,4.864-2.736C12.848-3.2,10.992-4.224,7.984-4.224ZM18.32-8.5h6.848v2.368H18.32Zm4.24,6.608V-4.8H26.8v-7.456H25.168v2.432H18.32v-2.432H16.688V-4.8h4.224v2.912h-5.7v1.36H28.3v-1.36ZM32.72-8.5h6.848v2.368H32.72Zm4.24,6.608V-4.8H41.2v-7.456H39.568v2.432H32.72v-2.432H31.088V-4.8h4.224v2.912h-5.7v1.36H42.7v-1.36Zm19.472-9.36H51.36v-1.776H49.712v1.776h-5.1V-9.92H56.432ZM47.392-6.32c0-.944,1.152-1.488,3.12-1.488,1.984,0,3.136.544,3.136,1.488,0,.96-1.152,1.5-3.136,1.5C48.544-4.816,47.392-5.36,47.392-6.32ZM51.36-1.7V-3.552c2.48-.192,3.968-1.168,3.968-2.768,0-1.744-1.856-2.768-4.816-2.768-2.944,0-4.8,1.024-4.8,2.768,0,1.6,1.52,2.592,4,2.768V-1.7H44v1.36H57.1V-1.7ZM62.944-4.7a7.4,7.4,0,0,0,5.28-3.68,7.482,7.482,0,0,0,5.36,3.632l.672-1.312c-2.864-.448-5.168-2.4-5.168-4.576v-.032H73.68V-12H62.768v1.328H67.36v.032c0,2.176-2.288,4.176-5.1,4.624Zm6.128,2.816V-5.264H67.408v3.376H61.7V-.544H74.784V-1.888ZM85.008-6.352a4.73,4.73,0,0,1-3.536-4.336v-.272H84.56v-1.328h-7.9v1.328h3.136v.272A4.928,4.928,0,0,1,76.208-6.1l.864,1.3a5.9,5.9,0,0,0,3.584-3.344,5.645,5.645,0,0,0,3.52,3.072Zm-6.752,3.9h8.1v3.68H88V-3.776H78.256Zm8.1-10.784V-4.5H88v-8.736ZM97.84-1.856V-5.264h4.272V-6.592H93.744V-10.8h8.24v-1.328H92.1v6.864h4.1v3.408H90.5V-.5h13.088v-1.36Z" transform="translate(19.858 40.194)"/>
</svg>
