<svg xmlns="http://www.w3.org/2000/svg" width="472.186" height="239.808" viewBox="0 0 472.186 239.808">
  <defs>
    <style>
      .cls-1, .cls-11, .cls-12, .cls-13, .cls-14, .cls-17, .cls-18, .cls-19, .cls-2 {
        fill: none;
      }

      .cls-1, .cls-11, .cls-17, .cls-19, .cls-2 {
        stroke: #3e3a39;
      }

      .cls-1, .cls-12, .cls-13, .cls-14, .cls-18, .cls-19, .cls-2 {
        stroke-linecap: round;
        stroke-linejoin: round;
      }

      .cls-1 {
        stroke-dasharray: 0 2;
      }

      .cls-20, .cls-3, .cls-7 {
        fill: #91c9e0;
      }

      .cls-3, .cls-5, .cls-7 {
        font-size: 14px;
        font-family: NotoSansKR-Light, Noto Sans KR;
        font-weight: 300;
      }

      .cls-4, .cls-7 {
        letter-spacing: -0.014em;
      }

      .cls-10, .cls-5, .cls-6 {
        fill: #1e2323;
      }

      .cls-8 {
        letter-spacing: -0.015em;
      }

      .cls-9 {
        fill: #a7d3e6;
      }

      .cls-10 {
        font-size: 15px;
        font-family: NotoSansKR-Regular, Noto Sans KR;
      }

      .cls-11 {
        stroke-width: 0.99px;
      }

      .cls-12, .cls-13, .cls-14, .cls-18 {
        stroke: #5e6366;
      }

      .cls-12 {
        stroke-dasharray: 0 2.982;
      }

      .cls-13 {
        stroke-dasharray: 0 3.003;
      }

      .cls-15 {
        fill: #1f4a8c;
      }

      .cls-16 {
        fill: #fff;
        font-size: 11.88px;
        font-family: NotoSansKR-Medium, Noto Sans KR;
        font-weight: 500;
      }

      .cls-17 {
        stroke-miterlimit: 10;
      }

      .cls-18 {
        stroke-dasharray: 0 3.004;
      }

      .cls-19 {
        stroke-dasharray: 0 2.04;
      }
    </style>
  </defs>
  <g id="구성_요소_58_1" data-name="구성 요소 58 – 1" transform="translate(0 0.348)">
    <line id="선_125" data-name="선 125" class="cls-1" x2="35" transform="translate(133.818 63.973)"/>
    <path id="패스_62" data-name="패스 62" class="cls-2" d="M5508.318,3148.915h0m-38,0h0" transform="translate(-5338.5 -3084.942)"/>
    <text id="_" data-name="• " class="cls-3" transform="translate(4.318 162.137)"><tspan class="cls-4" x="0" y="0">•</tspan><tspan y="0"> </tspan></text>
    <text id="_2" data-name="" class="cls-5" transform="translate(12.256 162.137)"><tspan x="0" y="0"></tspan></text>
    <path id="패스_901" data-name="패스 901" class="cls-6" d="M3.038-2.744H2.3V.672h8.5V.042H3.038Zm.014-5.81H9.8v1.9H3.052Zm3.738,4v-1.5h3.752v-4.9H9.8V-9.17H3.052v-1.778H2.31v4.9H6.048v1.5H.784v.63H12.026v-.63Zm16.8-6.888h-.742v9.17h.742ZM14.546-7.546a2.339,2.339,0,0,1,2.436-2.338,2.339,2.339,0,0,1,2.436,2.338A2.354,2.354,0,0,1,16.982-5.18,2.354,2.354,0,0,1,14.546-7.546Zm5.586,0a2.962,2.962,0,0,0-3.15-3,2.962,2.962,0,0,0-3.15,3,2.976,2.976,0,0,0,3.15,3.024A2.976,2.976,0,0,0,20.132-7.546ZM16.52.042V-3.234h-.742V.672H24.01V.042Zm19.754-11.48h-.742v9.17h.742ZM27.23-7.546a2.339,2.339,0,0,1,2.436-2.338A2.339,2.339,0,0,1,32.1-7.546,2.354,2.354,0,0,1,29.666-5.18,2.354,2.354,0,0,1,27.23-7.546Zm5.586,0a2.962,2.962,0,0,0-3.15-3,2.962,2.962,0,0,0-3.15,3,2.976,2.976,0,0,0,3.15,3.024A2.976,2.976,0,0,0,32.816-7.546ZM29.2.042V-3.234h-.742V.672h8.232V.042Zm10.64-6.4c1.82-.28,3.962-1.19,4.634-2.66.658,1.47,2.8,2.38,4.62,2.66l.28-.6c-1.932-.252-4.466-1.372-4.466-3.052v-.154H49.07v-.616H39.886v.616h4.158v.154c0,1.68-2.548,2.8-4.48,3.052ZM44.478.336c-2.142,0-3.5-.6-3.5-1.61s1.358-1.61,3.5-1.61c2.114,0,3.472.6,3.472,1.61S46.592.336,44.478.336Zm0-3.836c-2.646,0-4.242.8-4.242,2.226S41.832.938,44.478.938s4.214-.784,4.214-2.212S47.11-3.5,44.478-3.5ZM38.836-5.432v.63H50.078v-.63ZM61.026-8.54v.63h2.786v2.926h.742v-6.482h-.742V-8.54Zm.63,2.73c-1.666-.574-3.122-2.044-3.122-3.654v-.63H61.46v-.616H54.852v.616h2.94v.616A4.661,4.661,0,0,1,54.586-5.5l.378.588a5.467,5.467,0,0,0,3.22-3.178,5.282,5.282,0,0,0,3.122,2.87ZM57.442.21V-1.526h7.112V-4.284H56.686v.616h7.14v1.554H56.714V.826h8.372V.21ZM71.05-8.6h2.926v-.63H71.05V-11.27h-.742v2.044H67.354v.63h2.968V-7.35A6.215,6.215,0,0,1,67.06-2.058l.434.574A6.871,6.871,0,0,0,70.7-5.628a6.483,6.483,0,0,0,3.052,3.906L74.2-2.31a5.943,5.943,0,0,1-3.15-5.04Zm7.7,2.408H76.566v-5.264h-.742V.98h.742V-5.544H78.75Zm4.522-4.284v.63H88.13c-.182,2.422-2.24,4.284-5.362,5.25l.308.616c3.57-1.092,5.866-3.416,5.866-6.5ZM88.424.322c-1.946,0-3.234-.672-3.234-1.708s1.288-1.722,3.234-1.722c1.974,0,3.262.672,3.262,1.722S90.4.322,88.424.322Zm0-4.046c-2.422,0-3.962.868-3.962,2.338S86,.924,88.424.924c2.45,0,3.99-.854,3.99-2.31S90.874-3.724,88.424-3.724Zm3.85-4.326v-3.4h-.742v7.574h.742V-7.42H94.22v-.63Zm10.654-1.82H99.554v-1.6h-.742v1.6H95.438v.63h7.49ZM97.02-6.09c0-.994.868-1.68,2.17-1.68s2.17.686,2.17,1.68-.882,1.68-2.17,1.68S97.02-5.11,97.02-6.09Zm2.534,2.254c1.512-.126,2.506-.966,2.506-2.254,0-1.4-1.162-2.282-2.87-2.282s-2.856.882-2.856,2.282c0,1.288.98,2.128,2.478,2.254v1.554c-1.288.056-2.52.056-3.584.056l.14.644a48.743,48.743,0,0,0,7.91-.49l-.056-.574c-1.162.182-2.422.266-3.668.336Zm7.392-2.2H104.79v-5.418h-.742V.966h.742V-5.39h2.156Z" transform="translate(12.256 162.137)"/>
    <text id="_3" data-name="• " class="cls-7" transform="translate(4.318 189.143)"><tspan x="0" y="0">• </tspan></text>
    <path id="패스_902" data-name="패스 902" class="cls-6" d="M2.086-9.548H6.2v6.664H2.086Zm-.728,7.28H6.916v-7.9H1.358Zm11.074-4.06H10.248v-5.124H9.506V.966h.742V-5.7h2.184Zm8.246-.084H18.312a10.724,10.724,0,0,0,.574-3.542H14.168v.63h3.99a9.283,9.283,0,0,1-.392,2.31l-4.2.294.14.672,3.864-.378A8.176,8.176,0,0,1,13.622-2.24l.434.56a8.933,8.933,0,0,0,4-4.116h2.618V.294h.714v-11.41h-.714Zm2.576-5.054V.98h.714V-11.466Zm13.02.028h-.742v7.8h.742ZM33.866-5.726a32.143,32.143,0,0,1-6.006.378h-.224v-2.03h4.816v-.616H27.636v-1.89h5.152v-.63H26.894v5.782h.966a32.349,32.349,0,0,0,6.1-.378ZM32.214.336c-2.058,0-3.388-.616-3.388-1.6s1.33-1.6,3.388-1.6,3.388.6,3.388,1.6S34.272.336,32.214.336Zm0-3.808c-2.562,0-4.13.8-4.13,2.212s1.568,2.2,4.13,2.2,4.13-.8,4.13-2.2S34.776-3.472,32.214-3.472ZM49.238-10.4H46v-1.19h-.742v1.19H42.028v.574h7.21ZM43.5-7.686c0-.686.854-1.12,2.128-1.12s2.128.434,2.128,1.12c0,.644-.854,1.092-2.128,1.092S43.5-7.042,43.5-7.686Zm6.146,2.2c-1.162.154-2.422.266-3.64.322v-.91c1.5-.084,2.436-.672,2.436-1.61,0-1.036-1.106-1.652-2.814-1.652S42.8-8.722,42.8-7.686c0,.938.952,1.526,2.464,1.61v.938c-1.274.042-2.506.042-3.542.042l.1.6A48.031,48.031,0,0,0,49.7-4.97Zm-5.5,4.34h7.1V-3.486H43.386v.574h7.14v1.218H43.414V.8h8.33V.224h-7.6Zm7.1-6.972v-3.332H50.5V-4.1h.742V-7.49h1.974v-.63ZM60.046.35c-2.128,0-3.486-.588-3.486-1.582s1.358-1.582,3.486-1.582,3.486.6,3.486,1.582S62.174.35,60.046.35Zm0-3.752c-2.646,0-4.228.77-4.228,2.17S57.4.952,60.046.952s4.228-.784,4.228-2.184S62.692-3.4,60.046-3.4ZM58.086-6.86a10,10,0,0,0,1.946.182,10.5,10.5,0,0,0,2-.182v1.694H58.086ZM56.5-8.946c0-1.022,1.386-1.652,3.528-1.652,2.17,0,3.556.63,3.556,1.652S62.2-7.28,60.032-7.28C57.89-7.28,56.5-7.924,56.5-8.946Zm6.258,3.78V-7.084a2.035,2.035,0,0,0,1.582-1.862c0-1.442-1.638-2.254-4.312-2.254s-4.284.812-4.284,2.254a2.052,2.052,0,0,0,1.6,1.876v1.9H54.432v.63H65.66v-.63Zm8.5,2.912H79.1V.966h.742V-2.87H71.26Zm.952-8.064h6.86v2.884h-6.86Zm3.794,5.306V-6.8h3.78v-4.13h-8.3V-6.8h3.78v1.792H70v.63H81.242v-.63Zm13.916-.14a4.527,4.527,0,0,1-3.136-3.892V-9.87H89.7v-.63H83.09v.63h2.968v.84A4.819,4.819,0,0,1,82.81-4.844l.392.588A5.5,5.5,0,0,0,86.436-7.6a5.442,5.442,0,0,0,3.108,3.038Zm-5.306,2.52h7.462v3.6h.742V-3.262h-8.2Zm7.462-8.82v3.4h-2.8v.63h2.8V-4h.742v-7.448Zm7.35.952c-1.932,0-3.276,1.148-3.276,2.842S97.5-4.816,99.428-4.816,102.7-5.964,102.7-7.658,101.36-10.5,99.428-10.5Zm0,.644a2.321,2.321,0,0,1,2.562,2.2,2.321,2.321,0,0,1-2.562,2.2,2.321,2.321,0,0,1-2.562-2.2A2.321,2.321,0,0,1,99.428-9.856Zm5.18-1.6V.994h.742V-11.452Zm-9.03,9.576a47.028,47.028,0,0,0,8.218-.518l-.07-.574a55.913,55.913,0,0,1-8.274.448Z" transform="translate(12.256 189.143)"/>
    <path id="패스_903" data-name="패스 903" class="cls-6" d="M1.274-9.8v.63H5.348A7.989,7.989,0,0,1,.882-2.31l.448.546A8.7,8.7,0,0,0,6.076-9.8Zm9.282-1.652v5.18H8.5v-4.844H7.784V.308H8.5v-5.95h2.058V.98h.714V-11.452Zm13.034.014h-.742v9.17h.742ZM14.546-7.546a2.339,2.339,0,0,1,2.436-2.338,2.339,2.339,0,0,1,2.436,2.338A2.354,2.354,0,0,1,16.982-5.18,2.354,2.354,0,0,1,14.546-7.546Zm5.586,0a2.962,2.962,0,0,0-3.15-3,2.962,2.962,0,0,0-3.15,3,2.976,2.976,0,0,0,3.15,3.024A2.976,2.976,0,0,0,20.132-7.546ZM16.52.042V-3.234h-.742V.672H24.01V.042ZM32.746-8.092v.63h2.8v3.416h.742v-7.406h-.742v3.36ZM33.39-5.18a4.526,4.526,0,0,1-3.136-3.878v-.77h2.912v-.63H26.558v.63h2.968v.784a4.859,4.859,0,0,1-3.234,4.228l.378.6a5.619,5.619,0,0,0,3.248-3.4,5.315,5.315,0,0,0,3.094,3.024ZM32.27.35c-2.03,0-3.332-.63-3.332-1.666s1.3-1.666,3.332-1.666,3.346.63,3.346,1.666S34.3.35,32.27.35Zm0-3.934c-2.534,0-4.074.812-4.074,2.268S29.736.952,32.27.952,36.344.14,36.344-1.316,34.79-3.584,32.27-3.584ZM40.992-7.49h6.972v2.618H40.992Zm3.836,6.174V-4.242h3.864v-6.286h-.728V-8.12H40.992v-2.408H40.25v6.286h3.836v2.926h-5.25v.63h11.3v-.63ZM65.016-6.538c-1.862-.308-4.564-1.764-4.564-3.668v-.77h-.77v.77c0,1.96-2.674,3.36-4.578,3.668l.322.616c1.75-.336,3.906-1.414,4.648-3.066.742,1.624,2.912,2.73,4.634,3.066Zm.672,2.226H54.432v.63h5.236V.966h.742V-3.682h5.264ZM74.634-5.53c-1.736-.574-3.29-2.03-3.29-3.794V-9.94h3.038v-.616H67.55v.616H70.6v.616a4.583,4.583,0,0,1-3.262,4l.378.6a5.455,5.455,0,0,0,3.276-3.206A5.259,5.259,0,0,0,74.27-4.942ZM76.5.154H70.112V-1.764H76.5Zm0-2.534H70.112V-4.074H69.37V.784h7.854V-4.074H76.5Zm-.014-9.072v6.72h.742v-6.72ZM83.944-10.3h-.728v2.478a6.888,6.888,0,0,1-3.43,5.53l.462.6a7.55,7.55,0,0,0,3.346-4.368A7.4,7.4,0,0,0,86.94-1.89l.462-.6a6.543,6.543,0,0,1-3.458-5.334Zm5.194-1.148V.994h.742V-11.452ZM101,.35c-2.128,0-3.486-.6-3.486-1.61S98.868-2.87,101-2.87s3.486.6,3.486,1.61S103.124.35,101,.35Zm0-3.822c-2.632,0-4.228.8-4.228,2.212S98.364.952,101,.952s4.228-.784,4.228-2.212S103.628-3.472,101-3.472Zm.35-1.694V-6.832h3.934v-.63H97.552v-2.786h7.63v-.63H96.824v4.046h3.794v1.666H95.382v.63h11.242v-.63ZM112.112-10.5c-1.932,0-3.276,1.148-3.276,2.842s1.344,2.842,3.276,2.842,3.276-1.148,3.276-2.842S114.044-10.5,112.112-10.5Zm0,.644a2.321,2.321,0,0,1,2.562,2.2,2.321,2.321,0,0,1-2.562,2.2,2.321,2.321,0,0,1-2.562-2.2A2.321,2.321,0,0,1,112.112-9.856Zm5.18-1.6V.994h.742V-11.452Zm-9.03,9.576a47.028,47.028,0,0,0,8.218-.518l-.07-.574a55.913,55.913,0,0,1-8.274.448Z" transform="translate(12.256 211.137)"/>
    <text id="_4" data-name="" class="cls-5" transform="translate(137.416 211.137)"><tspan x="0" y="0"></tspan></text>
    <path id="패스_904" data-name="패스 904" class="cls-6" d="M6.9-4.564a7.167,7.167,0,0,0,.182-1.61,7.279,7.279,0,0,0-.21-1.736h3.3v3.346ZM4.06-2.548c-1.372,0-2.324-1.512-2.324-3.626S2.688-9.786,4.06-9.786,6.384-8.3,6.384-6.174,5.432-2.548,4.06-2.548Zm6.118-8.9V-8.54H6.65a2.8,2.8,0,0,0-2.59-1.9c-1.778,0-3.024,1.68-3.024,4.27S2.282-1.9,4.06-1.9a2.858,2.858,0,0,0,2.646-2.03h3.472V.98h.742V-11.452Zm12.334,5.18h-6.8v-2.17h6.8Zm.742-4.676h-.742v1.89h-6.8v-1.89h-.742v5.306h8.288Zm1.5,6.986h-11.3v.63H18.7V.98h.742V-3.332h5.306Zm13.706,1.89H39.2v-9.38h-.742v3.08H35.476v.644h2.982ZM36.246-4.886a4.782,4.782,0,0,1-3.164-4.13V-10.71h-.728v1.624A5.056,5.056,0,0,1,29.148-4.62l.392.6a5.7,5.7,0,0,0,3.192-3.5A5.564,5.564,0,0,0,35.84-4.312ZM32.1.042v-3.22H31.36V.672h8.148V.042ZM47.7-5.7a19.492,19.492,0,0,1-4.592.364h-.028V-7.392h3.878v-.616H43.078V-9.87H47.1v-.63H42.35v5.8h.756a20.534,20.534,0,0,0,4.69-.364ZM43.946-2.59h7.462V.98h.742v-4.2h-8.2Zm7.49-8.848v3.346H49.35v-3.122h-.714v7.2h.714V-7.462h2.086v3.514h.714v-7.49Z" transform="translate(12.256 233.131)"/>
    <text id="_5" data-name="• " class="cls-3" transform="translate(178.324 164.476)"><tspan class="cls-4" x="0" y="0">•</tspan><tspan y="0"> </tspan></text>
    <text id="_6" data-name="" class="cls-5" transform="translate(186.262 164.476)"><tspan x="0" y="0"></tspan></text>
    <path id="패스_905" data-name="패스 905" class="cls-6" d="M1.484,0H3.906C7.028,0,8.568-2.016,8.568-5.138s-1.54-5.068-4.676-5.068H1.484Zm.84-.714V-9.506H3.808c2.688,0,3.878,1.722,3.878,4.368S6.5-.714,3.808-.714ZM10.682,0h3.024c2.3,0,3.808-1.008,3.808-2.982a2.365,2.365,0,0,0-2.184-2.45V-5.5A2.194,2.194,0,0,0,16.9-7.728c0-1.722-1.344-2.478-3.4-2.478H10.682Zm.84-5.754V-9.52h1.792c1.806,0,2.744.5,2.744,1.89,0,1.162-.812,1.876-2.828,1.876Zm0,5.054V-5.082H13.51c2.03,0,3.178.672,3.178,2.1C16.688-1.4,15.484-.7,13.51-.7ZM23.128-9.884h-.742v7.532h.742a22.067,22.067,0,0,0,4.55-.434l-.1-.658a21.014,21.014,0,0,1-4.452.42Zm8.33-1.582v5.222H29.3v-4.914h-.714V.308H29.3V-5.586h2.156V.98h.714V-11.466Zm6.3,1.666v.63h4.074a7.989,7.989,0,0,1-4.466,6.86l.448.546A8.7,8.7,0,0,0,42.56-9.8Zm9.282-1.652v5.18H44.982v-4.844h-.714V.308h.714v-5.95H47.04V.98h.714V-11.452Zm13.034.014h-.742v9.17h.742ZM51.03-7.546a2.339,2.339,0,0,1,2.436-2.338A2.339,2.339,0,0,1,55.9-7.546,2.354,2.354,0,0,1,53.466-5.18,2.354,2.354,0,0,1,51.03-7.546Zm5.586,0a2.962,2.962,0,0,0-3.15-3,2.962,2.962,0,0,0-3.15,3,2.976,2.976,0,0,0,3.15,3.024A2.976,2.976,0,0,0,56.616-7.546ZM53,.042V-3.234h-.742V.672h8.232V.042ZM69.23-8.092v.63h2.8v3.416h.742v-7.406H72.03v3.36Zm.644,2.912a4.526,4.526,0,0,1-3.136-3.878v-.77H69.65v-.63H63.042v.63H66.01v.784a4.859,4.859,0,0,1-3.234,4.228l.378.6a5.619,5.619,0,0,0,3.248-3.4A5.315,5.315,0,0,0,69.5-4.592ZM68.754.35c-2.03,0-3.332-.63-3.332-1.666s1.3-1.666,3.332-1.666,3.346.63,3.346,1.666S70.784.35,68.754.35Zm0-3.934c-2.534,0-4.074.812-4.074,2.268S66.22.952,68.754.952,72.828.14,72.828-1.316,71.274-3.584,68.754-3.584ZM77.476-7.49h6.972v2.618H77.476Zm3.836,6.174V-4.242h3.864v-6.286h-.728V-8.12H77.476v-2.408h-.742v6.286H80.57v2.926H75.32v.63h11.3v-.63ZM91.966-7.8A2.284,2.284,0,0,1,94.4-10.066,2.277,2.277,0,0,1,96.838-7.8,2.261,2.261,0,0,1,94.4-5.572,2.269,2.269,0,0,1,91.966-7.8Zm5.6,0A2.907,2.907,0,0,0,94.4-10.7a2.9,2.9,0,0,0-3.15,2.9,2.882,2.882,0,0,0,3.15,2.87A2.894,2.894,0,0,0,97.566-7.8Zm-3.99,4.844h6.188V.154H93.576ZM92.848.784h7.658V-3.57H92.848Zm9.6-9.03h-1.946v-3.22h-.742v7.252h.742V-7.6h1.946Zm11.732-1.218h-4.592v-1.75h-.742v1.75H104.2v.63h9.982ZM105.98-5.5c0-1.05,1.274-1.708,3.234-1.708s3.234.658,3.234,1.708-1.274,1.736-3.234,1.736S105.98-4.438,105.98-5.5Zm3.612,4.27V-3.178c2.226-.084,3.6-.924,3.6-2.324,0-1.47-1.526-2.324-3.976-2.324s-3.976.854-3.976,2.324c0,1.4,1.372,2.24,3.612,2.338v1.932H103.6V-.6h11.27v-.63Z" transform="translate(186.262 164.476)"/>
    <path id="패스_906" data-name="패스 906" class="cls-6" d="M8.344-9.87H4.97v-1.6H4.228v1.6H.854v.63h7.49ZM2.436-6.09c0-.994.868-1.68,2.17-1.68s2.17.686,2.17,1.68-.882,1.68-2.17,1.68S2.436-5.11,2.436-6.09ZM4.97-3.836C6.482-3.962,7.476-4.8,7.476-6.09c0-1.4-1.162-2.282-2.87-2.282S1.75-7.49,1.75-6.09c0,1.288.98,2.128,2.478,2.254v1.554c-1.288.056-2.52.056-3.584.056l.14.644a48.743,48.743,0,0,0,7.91-.49l-.056-.574c-1.162.182-2.422.266-3.668.336Zm7.392-2.2H10.206v-5.418H9.464V.966h.742V-5.39h2.156Zm6.16-1.456h6.972v2.618H18.522Zm3.836,6.174V-4.242h3.864v-6.286h-.728V-8.12H18.522v-2.408H17.78v6.286h3.836v2.926h-5.25v.63h11.3v-.63ZM35.5-6.174a16.916,16.916,0,0,0,.35-3.7v-.574H29.806v.616h5.32a15.387,15.387,0,0,1-.364,3.584Zm1.414.882a42.373,42.373,0,0,1-4.3.35V-7.756h-.742v2.842c-1.022.028-1.988.028-2.842.028l.1.658a54.006,54.006,0,0,0,7.84-.49ZM31.738-2.94H31V.672H38.99V.042H31.738Zm6.846-4.326v-4.186h-.742v9.394h.742V-6.622h1.96v-.644Z" transform="translate(186.262 186.47)"/>
    <text id="_7" data-name="• " class="cls-3" transform="translate(178.324 213.476)"><tspan class="cls-4" x="0" y="0">•</tspan><tspan y="0"> </tspan></text>
    <text id="_8" data-name="" class="cls-5" transform="translate(186.262 213.476)"><tspan x="0" y="0"></tspan></text>
    <path id="패스_907" data-name="패스 907" class="cls-6" d="M10.164-11.452V-4.3h.742v-7.154ZM3.01-3.57V.784h7.9V-3.57Zm7.168.616V.154H3.738V-2.954Zm-5.894-7.8A2.867,2.867,0,0,0,1.148-7.9,2.867,2.867,0,0,0,4.284-5.04,2.876,2.876,0,0,0,7.448-7.9,2.876,2.876,0,0,0,4.284-10.752Zm0,.63A2.265,2.265,0,0,1,6.734-7.9,2.265,2.265,0,0,1,4.284-5.67,2.249,2.249,0,0,1,1.862-7.9,2.249,2.249,0,0,1,4.284-10.122Zm16.7,4.984A4.509,4.509,0,0,1,17.71-9.044V-9.87h3.038v-.63H13.916v.63h3.052v.826A4.728,4.728,0,0,1,13.72-4.9l.378.588a5.445,5.445,0,0,0,3.262-3.3A5.359,5.359,0,0,0,20.622-4.55Zm-5.6,2.562h7.462V.98h.742V-3.192h-8.2Zm7.462-8.876V-3.92h.742v-7.532Zm9.926,7.42v.588H35.42v1.47h.742v-9.464H35.42v7.406Zm-2.618-6.3c1.372,0,2.324.644,2.324,1.554,0,.938-.952,1.568-2.324,1.568s-2.324-.63-2.324-1.568C27.832-9.688,28.784-10.332,30.156-10.332Zm0,3.7c1.82,0,3.024-.826,3.024-2.142s-1.2-2.128-3.024-2.128-3.038.826-3.038,2.128S28.336-6.636,30.156-6.636Zm-.28,4.158h.742V-5.012a34.563,34.563,0,0,0,3.626-.364l-.07-.546a68.472,68.472,0,0,1-8.092.364l.112.644c1.092,0,2.338,0,3.682-.056ZM28.7.042V-2.912h-.728V.672h8.512V.042ZM42.434,0h.84V-4.312h1.862c2.268,0,3.668-.98,3.668-3.024,0-2.114-1.414-2.87-3.724-2.87H42.434Zm.84-5.012V-9.506h1.638c2.03,0,3.038.518,3.038,2.17s-.966,2.324-2.982,2.324ZM54.474.182a3.824,3.824,0,0,0,3.052-1.456l-.476-.532A3.264,3.264,0,0,1,54.516-.574c-2.142,0-3.472-1.778-3.472-4.564,0-2.758,1.358-4.494,3.514-4.494A2.869,2.869,0,0,1,56.77-8.61l.476-.546a3.53,3.53,0,0,0-2.688-1.232c-2.59,0-4.4,2.016-4.4,5.278S51.954.182,54.474.182ZM63.028-9.884h-.742v7.532h.742a22.067,22.067,0,0,0,4.55-.434l-.1-.658a21.014,21.014,0,0,1-4.452.42Zm8.33-1.582v5.222H69.2v-4.914h-.714V.308H69.2V-5.586h2.156V.98h.714V-11.466Zm6.818,5.012c1.82-.28,3.948-1.19,4.62-2.66.672,1.47,2.814,2.38,4.634,2.66l.28-.6c-1.932-.252-4.466-1.386-4.466-3.052v-.126H87.4v-.616H78.218v.616h4.158v.126c0,1.68-2.548,2.8-4.48,3.052ZM86.282-1.2C86.282-.238,84.924.35,82.81.35c-2.142,0-3.5-.588-3.5-1.554s1.358-1.54,3.5-1.54C84.924-2.744,86.282-2.17,86.282-1.2ZM88.41-4.928v-.616H77.168v.616h5.25v1.582c-2.422.084-3.85.826-3.85,2.142C78.568.182,80.15.938,82.8.938S87.024.182,87.024-1.2c0-1.316-1.428-2.072-3.864-2.142V-4.928Zm5.124.308a6.855,6.855,0,0,0,1.932.266A7.088,7.088,0,0,0,97.44-4.62v3.29H93.534ZM91.728-7.448c0-1.484,1.6-2.506,3.738-2.506s3.752,1.022,3.752,2.506-1.6,2.492-3.752,2.492S91.728-5.978,91.728-7.448ZM98.182-1.33V-4.914a2.831,2.831,0,0,0,1.736-2.534c0-1.9-1.848-3.108-4.452-3.108s-4.438,1.2-4.438,3.108A2.826,2.826,0,0,0,92.792-4.9v3.57h-2.94V-.7h11.284v-.63Zm16.324-5.922h-6.86V-10.22h6.86Zm.714-3.584h-8.3v4.2h8.3ZM107.674-2.87h-.742V.672h8.526V.042h-7.784ZM105.42-4.984v.63h5.32v2.772h.742V-4.354h5.236v-.63Z" transform="translate(186.262 213.476)"/>
    <path id="패스_908" data-name="패스 908" class="cls-6" d="M4.942-10.3H4.2v2.478A6.922,6.922,0,0,1,.868-2.31l.476.588A7.536,7.536,0,0,0,4.578-6.174a7.264,7.264,0,0,0,3.29,4.228l.434-.6a6.551,6.551,0,0,1-3.36-5.278Zm5.236-1.148v4.424H6.972v.616h3.206V.994h.742V-11.452ZM17.416-7.8a2.284,2.284,0,0,1,2.436-2.268A2.277,2.277,0,0,1,22.288-7.8a2.261,2.261,0,0,1-2.436,2.226A2.269,2.269,0,0,1,17.416-7.8Zm5.6,0a2.907,2.907,0,0,0-3.164-2.9A2.9,2.9,0,0,0,16.7-7.8a2.882,2.882,0,0,0,3.15,2.87A2.894,2.894,0,0,0,23.016-7.8Zm-3.99,4.844h6.188V.154H19.026ZM18.3.784h7.658V-3.57H18.3Zm9.6-9.03H25.956v-3.22h-.742v7.252h.742V-7.6H27.9ZM39.648-9.464H35.056v-1.75h-.742v1.75H29.666v.63h9.982ZM31.444-5.5c0-1.05,1.274-1.708,3.234-1.708s3.234.658,3.234,1.708-1.274,1.736-3.234,1.736S31.444-4.438,31.444-5.5Zm3.612,4.27V-3.178c2.226-.084,3.6-.924,3.6-2.324,0-1.47-1.526-2.324-3.976-2.324S30.7-6.972,30.7-5.5c0,1.4,1.372,2.24,3.612,2.338v1.932h-5.25V-.6h11.27v-.63ZM49.28-9.87H45.906v-1.6h-.742v1.6H41.79v.63h7.49ZM43.372-6.09c0-.994.868-1.68,2.17-1.68s2.17.686,2.17,1.68-.882,1.68-2.17,1.68S43.372-5.11,43.372-6.09Zm2.534,2.254c1.512-.126,2.506-.966,2.506-2.254,0-1.4-1.162-2.282-2.87-2.282s-2.856.882-2.856,2.282c0,1.288.98,2.128,2.478,2.254v1.554c-1.288.056-2.52.056-3.584.056l.14.644a48.743,48.743,0,0,0,7.91-.49l-.056-.574c-1.162.182-2.422.266-3.668.336Zm7.392-2.2H51.142v-5.418H50.4V.966h.742V-5.39H53.3Zm6.16-1.456H66.43v2.618H59.458Zm3.836,6.174V-4.242h3.864v-6.286H66.43V-8.12H59.458v-2.408h-.742v6.286h3.836v2.926H57.3v.63H68.6v-.63ZM76.44-6.174a16.916,16.916,0,0,0,.35-3.7v-.574H70.742v.616h5.32A15.387,15.387,0,0,1,75.7-6.244Zm1.414.882a42.373,42.373,0,0,1-4.3.35V-7.756h-.742v2.842c-1.022.028-1.988.028-2.842.028l.1.658a54.006,54.006,0,0,0,7.84-.49ZM72.674-2.94h-.742V.672h7.994V.042H72.674ZM79.52-7.266v-4.186h-.742v9.394h.742V-6.622h1.96v-.644Z" transform="translate(186.262 235.47)"/>
    <text id="_9" data-name="• " class="cls-7" transform="translate(342.642 167.472)"><tspan x="0" y="0">• </tspan></text>
    <path id="패스_913" data-name="패스 913" class="cls-6" d="M7.364-7.9v.63h2.814V-2.3h.742v-9.156h-.742V-7.9Zm.658,2.954A4.526,4.526,0,0,1,4.886-8.82v-.9H7.8v-.63H1.19v.63H4.158v.91A4.819,4.819,0,0,1,.91-4.62l.392.6A5.625,5.625,0,0,0,4.536-7.392,5.424,5.424,0,0,0,7.644-4.34ZM3.892.042V-3.136H3.15V.672H11.3V.042ZM22.54-7.252H15.68V-10.22h6.86Zm.714-3.584h-8.3v4.2h8.3ZM15.708-2.87h-.742V.672h8.526V.042H15.708ZM13.454-4.984v.63h5.32v2.772h.742V-4.354h5.236v-.63ZM35.532.168H29.246V-1.708h6.286Zm0-2.492H29.246V-4.13H28.5V.784h7.77V-4.13h-.742Zm-6.02-3.5a2.264,2.264,0,0,1-2.436-2.2,2.248,2.248,0,0,1,2.436-2.2,2.248,2.248,0,0,1,2.436,2.2A2.264,2.264,0,0,1,29.512-5.824Zm6.02-5.628v3.08H32.648a2.9,2.9,0,0,0-3.136-2.478,2.859,2.859,0,0,0-3.15,2.828,2.867,2.867,0,0,0,3.15,2.828,2.889,2.889,0,0,0,3.136-2.534h2.884v2.94h.742v-6.664Zm6.762,3.038h2.52v-.63H42.308V-11H41.58v1.96H39.046v.63H41.58V-7.6a6.526,6.526,0,0,1-2.8,5.348l.476.56a6.669,6.669,0,0,0,2.688-4.088A6.465,6.465,0,0,0,44.66-1.946l.462-.588A6.026,6.026,0,0,1,42.294-7.6Zm3.794,1.988h-2.2v.63h2.2V.294H46.8V-11.13h-.714Zm2.492-5.04V.98h.728V-11.466ZM60.55-9.184H52.976V-6.72H61.5v-.574H53.7V-8.638h7.574v-2.38h-8.33v.574h7.6ZM53.634-1.26H61.32V-3.71H52.878v.574h7.728V-1.82H52.92V.77h8.834V.182h-8.12Zm-2.156-4.3v.588h11.3v-.588ZM72.7.35c-2.17,0-3.486-.49-3.486-1.372,0-.854,1.316-1.372,3.486-1.372s3.486.518,3.486,1.372C76.188-.14,74.872.35,72.7.35Zm0-3.318c-2.7,0-4.228.672-4.228,1.946S70,.938,72.7.938,76.93.266,76.93-1.022,75.4-2.968,72.7-2.968Zm.364-1.792V-6.272H76.93v-.6H69.356v-1.54h7.168v-.6H69.356v-1.456h7.518v-.6h-8.26v4.8h3.71V-4.76H67.088v.63H78.316v-.63Zm14.1-5.04h-3.3v-1.638h-.742V-9.8H79.8v.616h7.364ZM81.242-6.076c0-.994.91-1.68,2.24-1.68s2.226.686,2.226,1.68c0,.966-.9,1.666-2.226,1.666S81.242-5.11,81.242-6.076Zm5.166,0c0-1.386-1.162-2.282-2.926-2.282s-2.94.9-2.94,2.282,1.176,2.268,2.94,2.268S86.408-4.7,86.408-6.076ZM82.488-2.87h-.742V.672h8.2V.042H82.488Zm6.846-4.312v-4.256h-.742V-2.1h.742V-6.552H91.28v-.63Zm15.064-.07h-6.86V-10.22h6.86Zm.714-3.584h-8.3v4.2h8.3ZM97.566-2.87h-.742V.672h8.526V.042H97.566ZM95.312-4.984v.63h5.32v2.772h.742V-4.354h5.236v-.63Zm16.856-5.32h-.742v2.478a6.922,6.922,0,0,1-3.332,5.516l.476.588A7.536,7.536,0,0,0,111.8-6.174a7.264,7.264,0,0,0,3.29,4.228l.434-.6a6.551,6.551,0,0,1-3.36-5.278Zm5.236-1.148v4.424H114.2v.616H117.4V.994h.742V-11.452Z" transform="translate(350.58 167.472)"/>
    <path id="패스_914" data-name="패스 914" class="cls-6" d="M3.192-9.38H5.67v6.356c-.826.056-1.68.07-2.478.1Zm3.206,0H7.91v-.63H.952v.63H2.464v6.454c-.644.014-1.246.014-1.82.014l.112.658a54.683,54.683,0,0,0,7.91-.434l-.042-.574c-.714.1-1.47.154-2.226.2Zm6.034,3.038H10.248v-5.124H9.506V.966h.742V-5.7h2.184Zm1.806-3.738v.63h4.97c-.2,3.066-2.086,5.712-5.5,7.364l.406.616c4-1.974,5.838-5.138,5.838-8.61Zm8.61-1.372V.98h.742V-11.452ZM36.372-4.8H32.914V-9.478h3.458Zm-4.186,0H30.114v.63h9.072V-4.8H37.114V-9.478h2.072v-.63H30.1v.63h2.086Zm-3.15,3.458v.63h11.3v-.63Zm18.676.056V-3.906h4.116v-.63h-7.9V-6.93h7.6v-3.528H43.162v.616h7.644v2.3H43.2v3.64H46.97v2.618H41.72v.644h11.3v-.644ZM57.89-10.234h-.7v2.548A6.407,6.407,0,0,1,54.306-2.38l.49.56a6.755,6.755,0,0,0,2.758-4.074,6.574,6.574,0,0,0,2.66,3.808l.476-.574a6.176,6.176,0,0,1-2.8-5.04Zm3.752,3.4H59.3v.63h2.338V.322h.714V-11.144h-.714Zm2.548-4.62V.98H64.9V-11.452ZM77.686-5c-1.764-.35-4.634-2.226-4.634-4.522v-.994h-.77v.994c0,2.31-2.828,4.158-4.606,4.522l.35.63A7.191,7.191,0,0,0,72.674-8.12a7.205,7.205,0,0,0,4.662,3.752ZM67.074-1.428V-.8H78.358v-.63Zm25.69-10.024h-.742v9.184h.742Zm-2.6,6.664c-1.736-.6-3.276-2.114-3.276-3.92V-9.716h3.038v-.63H83.09v.63h3.052v1.008A4.71,4.71,0,0,1,82.894-4.55l.392.588a5.423,5.423,0,0,0,3.248-3.3A5.3,5.3,0,0,0,89.8-4.214ZM85.694.042V-3.15h-.742V.672h8.232V.042Zm17.332-7.308h2v3.724h.714v-7.91h-.714V-7.9h-2v-3.318h-.714V-4h.714Zm-1.288-2.576H98.882v-1.526H98.14v1.526H95.27v.616h6.468Zm-5.18,3.5c0-.882.8-1.5,1.946-1.5,1.176,0,1.96.616,1.96,1.512S99.68-4.816,98.5-4.816,96.558-5.432,96.558-6.342Zm4.592,0c0-1.274-1.064-2.086-2.646-2.086-1.554,0-2.618.812-2.618,2.1s1.064,2.1,2.618,2.1C100.086-4.228,101.15-5.04,101.15-6.342ZM101.738.35c-2.044,0-3.346-.574-3.346-1.512s1.3-1.512,3.346-1.512,3.346.56,3.346,1.512S103.8.35,101.738.35Zm0-3.612c-2.548,0-4.074.756-4.074,2.1s1.526,2.1,4.074,2.1,4.074-.756,4.074-2.1S104.3-3.262,101.738-3.262Z" transform="translate(350.58 189.466)"/>
    <text id="_10" data-name="• " class="cls-7" transform="translate(342.642 216.472)"><tspan x="0" y="0">•</tspan><tspan class="cls-8" y="0" xml:space="preserve"> </tspan></text>
    <path id="패스_915" data-name="패스 915" class="cls-6" d="M7.854-10.094H4.718v-1.5H3.976v1.5H.8v.63H7.854ZM2.282-6.482c0-.952.84-1.624,2.058-1.624s2.044.672,2.044,1.624S5.558-4.858,4.34-4.858,2.282-5.53,2.282-6.482Zm4.816,0c0-1.358-1.12-2.212-2.758-2.212S1.582-7.84,1.582-6.482,2.7-4.27,4.34-4.27,7.1-5.124,7.1-6.482ZM10.192.168h-6.4v-1.61h6.4Zm0-2.212h-6.4V-3.556H3.052V.784H10.92v-4.34h-.728Zm-.014-9.408V-8.4H7.77v.63h2.408v1.778H7.756v.616h2.422v1.232h.742v-7.308ZM20.16-5.46a28.064,28.064,0,0,1-5.264.308h-.14V-7.42h4.536V-10.7H13.986v.63h4.578v2.044H14.028v3.5H14.9a29.325,29.325,0,0,0,5.348-.308Zm-4.76,3h7.462V1.008H23.6v-4.1H15.4Zm7.462-8.988v1.918H20.174v.63h2.688v1.89H20.174v.63h2.688v2.562H23.6v-7.63ZM35.532.168H29.246V-1.708h6.286Zm0-2.492H29.246V-4.13H28.5V.784h7.77V-4.13h-.742Zm-6.02-3.5a2.264,2.264,0,0,1-2.436-2.2,2.248,2.248,0,0,1,2.436-2.2,2.248,2.248,0,0,1,2.436,2.2A2.264,2.264,0,0,1,29.512-5.824Zm6.02-5.628v3.08H32.648a2.9,2.9,0,0,0-3.136-2.478,2.859,2.859,0,0,0-3.15,2.828,2.867,2.867,0,0,0,3.15,2.828,2.889,2.889,0,0,0,3.136-2.534h2.884v2.94h.742v-6.664Zm6.762,3.038h2.52v-.63H42.308V-11H41.58v1.96H39.046v.63H41.58V-7.6a6.526,6.526,0,0,1-2.8,5.348l.476.56a6.669,6.669,0,0,0,2.688-4.088A6.465,6.465,0,0,0,44.66-1.946l.462-.588A6.026,6.026,0,0,1,42.294-7.6Zm3.794,1.988h-2.2v.63h2.2V.294H46.8V-11.13h-.714Zm2.492-5.04V.98h.728V-11.466Zm9.282,2.212H60.34v-.63H54.572v.63h2.576v1.442A6.707,6.707,0,0,1,54.292-2.17l.49.56a6.816,6.816,0,0,0,2.73-4.228A6.427,6.427,0,0,0,60.172-1.9l.476-.56a6.328,6.328,0,0,1-2.786-5.348Zm3.808,2.38H59.36v.644h2.31V.294h.714v-11.41H61.67Zm2.492-4.578V.98h.728V-11.452ZM76.118-9.7a11.077,11.077,0,0,1-.336,3.164l.714.1A11.68,11.68,0,0,0,76.832-9.7V-10.78H68.46v.63h7.658ZM72.674.336c-2.114,0-3.542-.644-3.542-1.638s1.428-1.652,3.542-1.652S76.23-2.3,76.23-1.3,74.788.336,72.674.336Zm0-3.892c-2.632,0-4.284.84-4.284,2.254S70.042.938,72.674.938,76.958.112,76.958-1.3,75.306-3.556,72.674-3.556Zm.042-1.974V-8.05h-.742v2.52H67.1v.63H78.316v-.63ZM83.9-10.3h-.728v2.478a6.888,6.888,0,0,1-3.43,5.53l.462.6a7.55,7.55,0,0,0,3.346-4.368A7.4,7.4,0,0,0,86.9-1.89l.462-.6A6.543,6.543,0,0,1,83.9-7.826ZM89.1-11.452V.994h.742V-11.452ZM92.624,2.464A2.909,2.909,0,0,0,94.3-.14c0-.742-.336-1.2-.84-1.2a.7.7,0,0,0-.742.7A.686.686,0,0,0,93.45.07a.682.682,0,0,0,.168-.014,2.118,2.118,0,0,1-1.232,1.876ZM99.89-2.254h7.84V.966h.742V-2.87H99.89Zm.952-8.064h6.86v2.884h-6.86Zm3.794,5.306V-6.8h3.78v-4.13h-8.3V-6.8h3.78v1.792H98.63v.63h11.242v-.63Zm13.916-.14a4.527,4.527,0,0,1-3.136-3.892V-9.87h2.912v-.63H111.72v.63h2.968v.84a4.819,4.819,0,0,1-3.248,4.186l.392.588A5.5,5.5,0,0,0,115.066-7.6a5.442,5.442,0,0,0,3.108,3.038Zm-5.306,2.52h7.462v3.6h.742V-3.262h-8.2Zm7.462-8.82v3.4h-2.8v.63h2.8V-4h.742v-7.448Z" transform="translate(350.58 216.472)"/>
    <path id="패스_916" data-name="패스 916" class="cls-6" d="M8.092-6.8a26.643,26.643,0,0,1-5.754.448H2.17V-10.08h4.7v-.63H1.428v4.984h.91A27.91,27.91,0,0,0,8.2-6.174ZM3.416-1.61h6.958V-4.452H2.66v.63H9.646v1.61H2.688v3h8.19V.154H3.416Zm6.958-7.07v-2.786H9.632v6.314h.742v-2.9H12.32v-.63ZM22.862-4.06H23.6v-7.406h-.742V-8.6H19.894v.63h2.968ZM20.678-5.32a4.628,4.628,0,0,1-3.192-4.046v-1.358h-.728v1.372a4.807,4.807,0,0,1-3.22,4.368l.392.6A5.527,5.527,0,0,0,17.15-7.8a5.4,5.4,0,0,0,3.094,3.052ZM19.586.336c-2.03,0-3.332-.658-3.332-1.694s1.3-1.694,3.332-1.694,3.346.658,3.346,1.694S21.616.336,19.586.336Zm0-3.99c-2.534,0-4.074.826-4.074,2.3s1.54,2.3,4.074,2.3,4.074-.826,4.074-2.3S22.106-3.654,19.586-3.654ZM39.592-9.968H35.028v-1.6h-.742v1.6H29.652v.616h9.94ZM37.8-6.44c0,.9-1.218,1.456-3.15,1.456s-3.136-.56-3.136-1.456S32.732-7.9,34.65-7.9,37.8-7.35,37.8-6.44Zm-7.056,0c0,1.288,1.47,2.03,3.906,2.03s3.92-.742,3.92-2.03S37.1-8.484,34.65-8.484,30.744-7.742,30.744-6.44Zm9.59,3.052h-11.3v.63h5.25V.994h.742V-2.758h5.306ZM47.026-9.38H49.5v6.356c-.826.056-1.68.07-2.478.1Zm3.206,0h1.512v-.63H44.786v.63H46.3v6.454c-.644.014-1.246.014-1.82.014l.112.658a54.683,54.683,0,0,0,7.91-.434l-.042-.574c-.714.1-1.47.154-2.226.2Zm6.034,3.038H54.082v-5.124H53.34V.966h.742V-5.7h2.184Zm1.806-3.738v.63h4.97c-.2,3.066-2.086,5.712-5.5,7.364l.406.616c4-1.974,5.838-5.138,5.838-8.61Zm8.61-1.372V.98h.742V-11.452Zm13.692,1.26H77.14v-1.372H76.4v1.372H73.15V-9.6h7.224Zm-5.74,3.01c0-.77.854-1.288,2.128-1.288s2.128.518,2.128,1.288-.854,1.274-2.128,1.274S74.634-6.412,74.634-7.182ZM80.78-4.69a34.1,34.1,0,0,1-3.64.35V-5.376c1.484-.1,2.436-.742,2.436-1.806,0-1.134-1.12-1.834-2.814-1.834s-2.828.7-2.828,1.834c0,1.064.952,1.708,2.464,1.806v1.064c-1.274.042-2.506.042-3.542.042l.112.63a45.386,45.386,0,0,0,7.868-.49ZM74.354-1.876h7.28V.98h.742V-2.492H74.354Zm10-5.7H82.376v-3.864h-.742v8.246h.742V-6.93H84.35Zm11.326-3.864h-.742v9.17h.742ZM86.632-7.546a2.339,2.339,0,0,1,2.436-2.338A2.339,2.339,0,0,1,91.5-7.546,2.354,2.354,0,0,1,89.068-5.18,2.354,2.354,0,0,1,86.632-7.546Zm5.586,0a2.962,2.962,0,0,0-3.15-3,2.962,2.962,0,0,0-3.15,3,2.976,2.976,0,0,0,3.15,3.024A2.976,2.976,0,0,0,92.218-7.546ZM88.606.042V-3.234h-.742V.672H96.1V.042Z" transform="translate(350.58 238.466)"/>
    <g id="그룹_21" data-name="그룹 21" transform="translate(-5338.5 -3084.942)">
      <path id="패스_63" data-name="패스 63" class="cls-9" d="M5457.759,3148.881a47.691,47.691,0,1,0-47.691,47.691,47.69,47.69,0,0,0,47.691-47.691"/>
    </g>
    <path id="패스_899" data-name="패스 899" class="cls-6" d="M1.3-10.605V-9.6H5.34A8.148,8.148,0,0,1,.8-2.655l.72.885a9.41,9.41,0,0,0,5.04-8.835Zm9.72-1.74V-6.93H9.195v-5.055H8.04V.435H9.195v-6.36h1.83V1.11H12.21V-12.345Zm14.31.015H24.1V-2.5h1.23ZM15.81-8.1a2.2,2.2,0,0,1,2.3-2.235A2.208,2.208,0,0,1,20.43-8.1,2.214,2.214,0,0,1,18.1-5.835,2.206,2.206,0,0,1,15.81-8.1Zm5.82,0A3.311,3.311,0,0,0,18.1-11.4,3.294,3.294,0,0,0,14.61-8.1,3.309,3.309,0,0,0,18.1-4.77,3.325,3.325,0,0,0,21.63-8.1ZM17.91-.2V-3.51H16.68V.81h9.06V-.2ZM34.98-8.85v1h2.655V-4.32H38.88v-8.01H37.635v3.48Zm.75,3.06A4.632,4.632,0,0,1,32.46-9.9v-.465h2.955v-.99H28.23v.99h3V-9.9a4.96,4.96,0,0,1-3.39,4.485l.645.975a5.823,5.823,0,0,0,3.39-3.42,5.527,5.527,0,0,0,3.24,3.03ZM34.44.15c-2.025,0-3.255-.57-3.255-1.545s1.23-1.56,3.255-1.56,3.255.585,3.255,1.56S36.465.15,34.44.15Zm0-4.05c-2.76,0-4.485.915-4.485,2.5s1.725,2.5,4.485,2.5,4.47-.915,4.47-2.5S37.2-3.9,34.44-3.9Zm9.51-4.08h6.87v2.475H43.95ZM48-1.62V-4.515h4.02v-6.87h-1.2v2.4H43.95v-2.4H42.735v6.87h4.02V-1.62h-5.46v1H53.49v-1Z" transform="translate(44.417 60.574)"/>
    <text id="_11" data-name=" " class="cls-10" transform="translate(102.317 60.574)"><tspan x="0" y="0"> </tspan></text>
    <path id="패스_900" data-name="패스 900" class="cls-6" d="M12.375-7.215C9.93-7.575,7.53-9.24,7.53-11.115v-.75H6.24v.75c0,1.92-2.37,3.54-4.815,3.9l.5.99a6.894,6.894,0,0,0,4.965-3.15,7.06,7.06,0,0,0,4.98,3.15ZM12.96-4.77H.81v1.02H6.24V1.125H7.47V-3.75h5.505Zm9.57-1.44a4.428,4.428,0,0,1-3.39-3.96v-.3h3.045v-1h-7.38v1H17.88v.3A4.576,4.576,0,0,1,14.46-6l.63.975a5.611,5.611,0,0,0,3.435-3.21,5.517,5.517,0,0,0,3.405,2.97ZM24.12-.075H17.88v-1.74h6.24Zm0-2.7H17.88V-4.41H16.665V.93h8.67V-4.41H24.12Zm-.015-9.57v7.29h1.23v-7.29Z" transform="translate(57.917 80.569)"/>
    <path id="패스_64" data-name="패스 64" class="cls-11" d="M5362.32,3106.832l6.645.035.035,6.645" transform="translate(-5338.5 -3084.942)"/>
    <g id="그룹_22" data-name="그룹 22" transform="translate(-5338.5 -3084.942)">
      <path id="패스_65" data-name="패스 65" class="cls-12" d="M5364.917,3110.512a59,59,0,0,0-14.081,36.879"/>
      <path id="패스_66" data-name="패스 66" class="cls-13" d="M5350.892,3151.882a59.254,59.254,0,0,0,57.674,56.231"/>
      <path id="패스_67" data-name="패스 67" class="cls-13" d="M5413.069,3208.057a59.252,59.252,0,0,0,56.23-57.674"/>
      <path id="패스_68" data-name="패스 68" class="cls-14" d="M5469.318,3148.881h0m-59.25,59.251h0m-59.25-59.251h0m16.087-40.591h0"/>
      <path id="패스_69" data-name="패스 69" class="cls-15" d="M5350.317,3162.975a11.818,11.818,0,1,0-11.817-11.817,11.817,11.817,0,0,0,11.817,11.817"/>
    </g>
    <text id="_1" data-name="1" class="cls-16" transform="translate(8.432 70.746)"><tspan x="0" y="0">1</tspan></text>
    <line id="선_126" data-name="선 126" class="cls-17" y2="12" transform="translate(70.033 127.817)"/>
    <g id="그룹_23" data-name="그룹 23" transform="translate(-5338.5 -3084.942)">
      <path id="패스_70" data-name="패스 70" class="cls-9" d="M5578.386,3195.572a47.691,47.691,0,1,0-47.691-47.691,47.69,47.69,0,0,0,47.691,47.691"/>
    </g>
    <path id="패스_909" data-name="패스 909" class="cls-6" d="M1.3-10.605V-9.6H5.34A8.148,8.148,0,0,1,.8-2.655l.72.885a9.41,9.41,0,0,0,5.04-8.835Zm9.72-1.74V-6.93H9.195v-5.055H8.04V.435H9.195v-6.36h1.83V1.11H12.21V-12.345Zm14.31.015H24.1V-2.5h1.23ZM15.81-8.1a2.2,2.2,0,0,1,2.3-2.235A2.208,2.208,0,0,1,20.43-8.1,2.214,2.214,0,0,1,18.1-5.835,2.206,2.206,0,0,1,15.81-8.1Zm5.82,0A3.311,3.311,0,0,0,18.1-11.4,3.294,3.294,0,0,0,14.61-8.1,3.309,3.309,0,0,0,18.1-4.77,3.325,3.325,0,0,0,21.63-8.1ZM17.91-.2V-3.51H16.68V.81h9.06V-.2ZM34.98-8.85v1h2.655V-4.32H38.88v-8.01H37.635v3.48Zm.75,3.06A4.632,4.632,0,0,1,32.46-9.9v-.465h2.955v-.99H28.23v.99h3V-9.9a4.96,4.96,0,0,1-3.39,4.485l.645.975a5.823,5.823,0,0,0,3.39-3.42,5.527,5.527,0,0,0,3.24,3.03ZM34.44.15c-2.025,0-3.255-.57-3.255-1.545s1.23-1.56,3.255-1.56,3.255.585,3.255,1.56S36.465.15,34.44.15Zm0-4.05c-2.76,0-4.485.915-4.485,2.5s1.725,2.5,4.485,2.5,4.47-.915,4.47-2.5S37.2-3.9,34.44-3.9Zm9.51-4.08h6.87v2.475H43.95ZM48-1.62V-4.515h4.02v-6.87h-1.2v2.4H43.95v-2.4H42.735v6.87h4.02V-1.62h-5.46v1H53.49v-1Z" transform="translate(212.736 59.54)"/>
    <path id="패스_910" data-name="패스 910" class="cls-6" d="M3.45-7.98h6.87v2.475H3.45ZM7.5-1.62V-4.515h4.02v-6.87h-1.2v2.4H3.45v-2.4H2.235v6.87h4.02V-1.62H.8v1H12.99v-1ZM21.36-6.6a19.459,19.459,0,0,0,.345-3.99V-11.3h-6.69v1.005h5.49a17.1,17.1,0,0,1-.36,3.555Zm1.275.81c-1.365.2-2.9.3-4.365.36V-8.3H17.055v2.91c-1.02.015-1.995.03-2.85.03l.12,1.005a53.915,53.915,0,0,0,8.4-.54ZM17.49-3.135H16.26V.81H25.2V-.2H17.49Zm7.275-4.83v-4.38h-1.23V-2.2h1.23v-4.74H26.7v-1.02Zm17.115-4.38H40.65V-4.62h1.23ZM36.645-6.96H32.76V-10.5h3.885Zm1.2-4.515H31.56v5.5h6.285Zm4.35,8.715V-3.7H38.25v-1.3H37.005v1.3H33.06v.945h3.93C36.975-1.425,34.83-.15,32.535.12l.4.945a6.724,6.724,0,0,0,4.695-2.46,6.625,6.625,0,0,0,4.62,2.46l.42-.945c-2.31-.285-4.41-1.59-4.425-2.88ZM55.41-11.325H52.17V-12.48H50.94v1.155H47.685v.885H55.41ZM49.575-8.25c0-.6.765-.96,1.98-.96,1.2,0,1.965.36,1.965.96s-.765.975-1.965.975C50.34-7.275,49.575-7.65,49.575-8.25Zm6.24,2.22c-1.155.165-2.415.255-3.645.315v-.78c1.545-.135,2.52-.765,2.52-1.755,0-1.11-1.245-1.77-3.135-1.77-1.92,0-3.15.66-3.15,1.77,0,1,.975,1.635,2.535,1.755v.825c-1.29.045-2.535.045-3.585.045l.135.915a49.456,49.456,0,0,0,8.4-.525ZM50.37-1.065h7.47V-3.81H49.125v.87h7.5v1.05H49.17V.96h9.18V.075H50.37ZM57.84-8.91v-3.435H56.61v7.95h1.23v-3.48h1.98V-8.91ZM66.99.15c-2.115,0-3.36-.525-3.36-1.44s1.245-1.44,3.36-1.44,3.36.525,3.36,1.44S69.09.15,66.99.15Zm0-3.84c-2.88,0-4.6.855-4.6,2.4S64.11,1.1,66.99,1.1c2.9,0,4.605-.84,4.605-2.385S69.885-3.69,66.99-3.69ZM65.13-7.26a11.677,11.677,0,0,0,1.86.15,11.726,11.726,0,0,0,1.875-.15v1.575H65.13Zm-1.6-2.34c0-.975,1.32-1.545,3.465-1.545s3.465.57,3.465,1.545c0,.96-1.32,1.545-3.465,1.545S63.525-8.64,63.525-9.6ZM70.08-5.685v-1.9A2.22,2.22,0,0,0,71.715-9.6c0-1.575-1.8-2.505-4.725-2.505-2.91,0-4.725.93-4.725,2.505a2.214,2.214,0,0,0,1.65,2.025v1.89H60.9v.99H73.08v-.99Z" transform="translate(202.086 79.535)"/>
    <g id="그룹_24" data-name="그룹 24" transform="translate(-5338.5 -3084.942)">
      <path id="패스_71" data-name="패스 71" class="cls-18" d="M5519.211,3145.913a59.271,59.271,0,0,1,57.674-56.264"/>
      <path id="패스_72" data-name="패스 72" class="cls-18" d="M5581.389,3089.706a59.271,59.271,0,0,1,56.229,57.708"/>
      <path id="패스_73" data-name="패스 73" class="cls-14" d="M5637.636,3148.915h0m-59.25-59.284h0m-59.25,59.284h0"/>
      <path id="패스_74" data-name="패스 74" class="cls-15" d="M5516.636,3161.233a11.818,11.818,0,1,0-11.817-11.817,11.817,11.817,0,0,0,11.817,11.817"/>
    </g>
    <text id="_2-2" data-name="2" class="cls-16" transform="translate(174.75 69.003)"><tspan x="0" y="0">2</tspan></text>
    <line id="선_127" data-name="선 127" class="cls-17" y2="12" transform="translate(244.023 127.817)"/>
    <line id="선_128" data-name="선 128" class="cls-19" x2="47.94" transform="translate(304.177 63.973)"/>
    <path id="패스_75" data-name="패스 75" class="cls-2" d="M5691.637,3148.915h0m-51,0h0" transform="translate(-5338.5 -3084.942)"/>
    <g id="그룹_25" data-name="그룹 25" transform="translate(-5338.5 -3084.942)">
      <path id="패스_76" data-name="패스 76" class="cls-20" d="M5750.936,3197.106a47.69,47.69,0,1,0-47.691-47.69,47.69,47.69,0,0,0,47.691,47.69"/>
    </g>
    <path id="패스_911" data-name="패스 911" class="cls-6" d="M1.3-10.605V-9.6H5.34A8.148,8.148,0,0,1,.8-2.655l.72.885a9.41,9.41,0,0,0,5.04-8.835Zm9.72-1.74V-6.93H9.195v-5.055H8.04V.435H9.195v-6.36h1.83V1.11H12.21V-12.345Zm14.31.015H24.1V-2.5h1.23ZM15.81-8.1a2.2,2.2,0,0,1,2.3-2.235A2.208,2.208,0,0,1,20.43-8.1,2.214,2.214,0,0,1,18.1-5.835,2.206,2.206,0,0,1,15.81-8.1Zm5.82,0A3.311,3.311,0,0,0,18.1-11.4,3.294,3.294,0,0,0,14.61-8.1,3.309,3.309,0,0,0,18.1-4.77,3.325,3.325,0,0,0,21.63-8.1ZM17.91-.2V-3.51H16.68V.81h9.06V-.2ZM34.995-8.85v1H37.65V-4.32H38.9v-8.01H37.65v3.48Zm.75,3.06a4.632,4.632,0,0,1-3.27-4.11v-.465H35.43v-.99H28.245v.99h3V-9.9a4.96,4.96,0,0,1-3.39,4.485l.645.975a5.823,5.823,0,0,0,3.39-3.42,5.527,5.527,0,0,0,3.24,3.03ZM34.455.15C32.43.15,31.2-.42,31.2-1.395s1.23-1.56,3.255-1.56,3.255.585,3.255,1.56S36.48.15,34.455.15Zm0-4.05c-2.76,0-4.485.915-4.485,2.5s1.725,2.5,4.485,2.5,4.47-.915,4.47-2.5S37.215-3.9,34.455-3.9Zm9.51-4.08h6.87v2.475h-6.87Zm4.05,6.36V-4.515h4.02v-6.87h-1.2v2.4h-6.87v-2.4H42.75v6.87h4.02V-1.62H41.31v1H53.5v-1Z" transform="translate(385.286 65.178)"/>
    <path id="패스_912" data-name="패스 912" class="cls-6" d="M3.615-9.9H5.82v6.54c-.735.03-1.485.06-2.205.075Zm3.4,0H8.46v-.99H.975v.99h1.44v6.63c-.63.015-1.23.015-1.785.015L.78-2.22a55.616,55.616,0,0,0,8.385-.495l-.09-.915c-.66.09-1.35.15-2.055.195Zm6.345,2.94h-2.22v-5.37H9.915V1.11h1.23V-5.94h2.22Zm1.725-3.93v.99h5.055c-.255,3.2-2.055,5.775-5.67,7.5l.66,1c4.47-2.19,6.255-5.61,6.255-9.5ZM24.1-12.345V1.11h1.23V-12.345Z" transform="translate(398.786 85.173)"/>
    <path id="패스_77" data-name="패스 77" class="cls-11" d="M5750.584,3084.942l-4.674,4.723,4.674,4.723" transform="translate(-5338.5 -3084.942)"/>
    <g id="그룹_26" data-name="그룹 26" transform="translate(-5338.5 -3084.942)">
      <path id="패스_78" data-name="패스 78" class="cls-13" d="M5753.937,3090.24a59.251,59.251,0,0,1,56.23,57.675"/>
      <path id="패스_79" data-name="패스 79" class="cls-13" d="M5810.111,3152.417a59.253,59.253,0,0,1-57.674,56.23"/>
      <path id="패스_80" data-name="패스 80" class="cls-13" d="M5747.934,3208.591a59.253,59.253,0,0,1-56.23-57.674"/>
      <path id="패스_81" data-name="패스 81" class="cls-14" d="M5691.686,3149.415h0m59.25,59.25h0m59.25-59.25h0m-59.25-59.25h0"/>
      <path id="패스_82" data-name="패스 82" class="cls-15" d="M5689.954,3161.233a11.818,11.818,0,1,0-11.817-11.817,11.817,11.817,0,0,0,11.817,11.817"/>
    </g>
    <text id="_3-2" data-name="3" class="cls-16" transform="translate(348.068 69.003)"><tspan x="0" y="0">3</tspan></text>
    <line id="선_129" data-name="선 129" class="cls-17" y2="12" transform="translate(411.936 127.817)"/>
  </g>
</svg>
