<svg xmlns="http://www.w3.org/2000/svg" width="472.135" height="246.808" viewBox="0 0 472.135 246.808">
    <defs>
        <style>
            .prefix__cls-11,.prefix__cls-12,.prefix__cls-15,.prefix__cls-16,.prefix__cls-19,.prefix__cls-2{fill:none}.prefix__cls-15,.prefix__cls-19,.prefix__cls-2{stroke:#3e3a39}.prefix__cls-11,.prefix__cls-12,.prefix__cls-16,.prefix__cls-2{stroke-linecap:round;stroke-linejoin:round}.prefix__cls-3,.prefix__cls-7{fill:#91c9e0}.prefix__cls-3,.prefix__cls-5,.prefix__cls-7{font-size:14px;font-family:NotoSansKR-Light,Noto Sans KR;font-weight:300}.prefix__cls-4,.prefix__cls-7{letter-spacing:-.014em}.prefix__cls-5,.prefix__cls-6{fill:#1e2323}.prefix__cls-9{fill:#a7d3e6}.prefix__cls-11,.prefix__cls-12,.prefix__cls-16{stroke:#5e6366}.prefix__cls-11{stroke-dasharray:0 3.003}.prefix__cls-13{fill:#1f4a8c}.prefix__cls-14{fill:#fff;font-size:11.88px;font-family:NotoSansKR-Medium,Noto Sans KR;font-weight:500}.prefix__cls-15{stroke-miterlimit:10}.prefix__cls-16{stroke-dasharray:0 3.004}.prefix__cls-19{stroke-width:.99px}
        </style>
    </defs>
    <g id="prefix__구성_요소_70_1" data-name="구성 요소 70 – 1" transform="translate(0 .348)">
        <path id="prefix__선_125" fill="none" stroke="#3e3a39" stroke-dasharray="0 2" stroke-linecap="round" stroke-linejoin="round" d="M0 0L35 0" data-name="선 125" transform="translate(133.818 64.973)"/>
        <text id="prefix___" class="prefix__cls-3" data-name="•" transform="translate(4.318 169.137)">
            <tspan x="0" y="0" class="prefix__cls-4">•</tspan><tspan y="0"></tspan>
        </text>
        <text id="prefix___2" class="prefix__cls-5" transform="translate(12.256 169.137)"/>
        <path id="prefix__패스_901" d="M3.038-2.744H2.3V.672h8.5v-.63H3.038zm.014-5.81H9.8v1.9H3.052zm3.738 4v-1.5h3.752v-4.9H9.8v1.784H3.052v-1.778H2.31v4.9h3.738v1.5H.784v.63h11.242v-.63zm16.8-6.888h-.742v9.17h.742zm-9.044 3.896a2.339 2.339 0 0 1 2.436-2.338 2.339 2.339 0 0 1 2.436 2.338 2.354 2.354 0 0 1-2.436 2.366 2.354 2.354 0 0 1-2.436-2.366zm5.586 0a2.962 2.962 0 0 0-3.15-3 2.962 2.962 0 0 0-3.15 3 2.976 2.976 0 0 0 3.15 3.024 2.976 2.976 0 0 0 3.15-3.024zM16.52.042v-3.276h-.742V.672h8.232v-.63zm19.754-11.48h-.742v9.17h.742zM27.23-7.546a2.339 2.339 0 0 1 2.436-2.338A2.339 2.339 0 0 1 32.1-7.546a2.354 2.354 0 0 1-2.434 2.366 2.354 2.354 0 0 1-2.436-2.366zm5.586 0a2.962 2.962 0 0 0-3.15-3 2.962 2.962 0 0 0-3.15 3 2.976 2.976 0 0 0 3.15 3.024 2.976 2.976 0 0 0 3.15-3.024zM29.2.042v-3.276h-.742V.672h8.232v-.63zm10.64-6.4c1.82-.28 3.962-1.19 4.634-2.66.658 1.47 2.8 2.38 4.62 2.66l.28-.6c-1.932-.252-4.466-1.372-4.466-3.052v-.154h4.162v-.616h-9.184v.616h4.158v.154c0 1.68-2.548 2.8-4.48 3.052zM44.478.336c-2.142 0-3.5-.6-3.5-1.61s1.358-1.61 3.5-1.61c2.114 0 3.472.6 3.472 1.61S46.592.336 44.478.336zm0-3.836c-2.646 0-4.242.8-4.242 2.226S41.832.938 44.478.938s4.214-.784 4.214-2.212S47.11-3.5 44.478-3.5zm-5.642-1.932v.63h11.242v-.63zm22.19-3.108v.63h2.786v2.926h.742v-6.482h-.742v2.926zm.63 2.73c-1.666-.574-3.122-2.044-3.122-3.654v-.63h2.926v-.616h-6.608v.616h2.94v.616A4.661 4.661 0 0 1 54.586-5.5l.378.588a5.467 5.467 0 0 0 3.22-3.178 5.282 5.282 0 0 0 3.122 2.87zM57.442.21v-1.736h7.112v-2.758h-7.868v.616h7.14v1.554h-7.112v2.94h8.372V.21zM71.05-8.6h2.926v-.63H71.05v-2.04h-.742v2.044h-2.954v.63h2.968v1.246a6.215 6.215 0 0 1-3.262 5.292l.434.574A6.871 6.871 0 0 0 70.7-5.628a6.483 6.483 0 0 0 3.052 3.906l.448-.588a5.943 5.943 0 0 1-3.15-5.04zm7.7 2.408h-2.184v-5.264h-.742V.98h.742v-6.524h2.184zm4.522-4.284v.63h4.858c-.182 2.422-2.24 4.284-5.362 5.25l.308.616c3.57-1.092 5.866-3.416 5.866-6.5zM88.424.322c-1.946 0-3.234-.672-3.234-1.708s1.288-1.722 3.234-1.722c1.974 0 3.262.672 3.262 1.722S90.4.322 88.424.322zm0-4.046c-2.422 0-3.962.868-3.962 2.338S86 .924 88.424.924c2.45 0 3.99-.854 3.99-2.31s-1.54-2.338-3.99-2.338zm3.85-4.326v-3.4h-.742v7.574h.742V-7.42h1.946v-.63zm10.654-1.82h-3.374v-1.6h-.742v1.6h-3.374v.63h7.49zM97.02-6.09c0-.994.868-1.68 2.17-1.68s2.17.686 2.17 1.68-.882 1.68-2.17 1.68-2.17-.7-2.17-1.68zm2.534 2.254c1.512-.126 2.506-.966 2.506-2.254 0-1.4-1.162-2.282-2.87-2.282s-2.856.882-2.856 2.282c0 1.288.98 2.128 2.478 2.254v1.554c-1.288.056-2.52.056-3.584.056l.14.644a48.743 48.743 0 0 0 7.91-.49l-.056-.574c-1.162.182-2.422.266-3.668.336zm7.392-2.2h-2.156v-5.418h-.742V.966h.742V-5.39h2.156z" class="prefix__cls-6" data-name="패스 901" transform="translate(12.256 169.137)"/>
        <text id="prefix___3" class="prefix__cls-7" data-name="•" transform="translate(4.318 196.143)">
            <tspan x="0" y="0">•</tspan>
        </text>
        <path id="prefix__패스_902" d="M2.086-9.548H6.2v6.664H2.086zm-.728 7.28h5.558v-7.9H1.358zm11.074-4.06h-2.184v-5.124h-.742V.966h.742V-5.7h2.184zm8.246-.084h-2.366a10.724 10.724 0 0 0 .574-3.542h-4.718v.63h3.99a9.283 9.283 0 0 1-.392 2.31l-4.2.294.14.672 3.864-.378a8.176 8.176 0 0 1-3.948 4.186l.434.56a8.933 8.933 0 0 0 4-4.116h2.618v6.09h.714v-11.41h-.714zm2.576-5.054V.98h.714v-12.446zm13.02.028h-.742v7.8h.742zm-2.408 5.712a32.143 32.143 0 0 1-6.006.378h-.224v-2.03h4.816v-.616h-4.816v-1.89h5.152v-.63h-5.894v5.782h.966a32.349 32.349 0 0 0 6.1-.378zM32.214.336c-2.058 0-3.388-.616-3.388-1.6s1.33-1.6 3.388-1.6 3.388.6 3.388 1.6-1.33 1.6-3.388 1.6zm0-3.808c-2.562 0-4.13.8-4.13 2.212s1.568 2.2 4.13 2.2 4.13-.8 4.13-2.2-1.568-2.212-4.13-2.212zM49.238-10.4H46v-1.19h-.742v1.19h-3.23v.574h7.21zM43.5-7.686c0-.686.854-1.12 2.128-1.12s2.128.434 2.128 1.12c0 .644-.854 1.092-2.128 1.092S43.5-7.042 43.5-7.686zm6.146 2.2c-1.162.154-2.422.266-3.64.322v-.91c1.5-.084 2.436-.672 2.436-1.61 0-1.036-1.106-1.652-2.814-1.652s-2.828.614-2.828 1.65c0 .938.952 1.526 2.464 1.61v.938c-1.274.042-2.506.042-3.542.042l.1.6A48.031 48.031 0 0 0 49.7-4.97zm-5.5 4.34h7.1v-2.34h-7.86v.574h7.14v1.218h-7.112V.8h8.33V.224h-7.6zm7.1-6.972v-3.332H50.5v7.35h.742v-3.39h1.974v-.63zm8.8 8.468c-2.128 0-3.486-.588-3.486-1.582s1.358-1.582 3.486-1.582 3.486.6 3.486 1.582S62.174.35 60.046.35zm0-3.752c-2.646 0-4.228.77-4.228 2.17S57.4.952 60.046.952s4.228-.784 4.228-2.184S62.692-3.4 60.046-3.4zm-1.96-3.458a10 10 0 0 0 1.946.182 10.5 10.5 0 0 0 2-.182v1.694h-3.946zM56.5-8.946c0-1.022 1.386-1.652 3.528-1.652 2.17 0 3.556.63 3.556 1.652S62.2-7.28 60.032-7.28c-2.142 0-3.532-.644-3.532-1.666zm6.258 3.78v-1.918a2.035 2.035 0 0 0 1.582-1.862c0-1.442-1.638-2.254-4.312-2.254s-4.284.812-4.284 2.254a2.052 2.052 0 0 0 1.6 1.876v1.9h-2.912v.63H65.66v-.63zm8.5 2.912H79.1v3.22h.742V-2.87H71.26zm.952-8.064h6.86v2.884h-6.86zm3.794 5.306V-6.8h3.78v-4.13h-8.3v4.13h3.78v1.792H70v.63h11.242v-.63zm13.916-.14a4.527 4.527 0 0 1-3.136-3.892v-.826H89.7v-.63h-6.61v.63h2.968v.84a4.819 4.819 0 0 1-3.248 4.186l.392.588A5.5 5.5 0 0 0 86.436-7.6a5.442 5.442 0 0 0 3.108 3.038zm-5.306 2.52h7.462v3.6h.742v-4.23h-8.2zm7.462-8.82v3.4h-2.8v.63h2.8V-4h.742v-7.448zm7.35.952c-1.932 0-3.276 1.148-3.276 2.842s1.35 2.842 3.278 2.842 3.272-1.148 3.272-2.842-1.34-2.842-3.272-2.842zm0 .644a2.321 2.321 0 0 1 2.562 2.2 2.321 2.321 0 0 1-2.562 2.2 2.321 2.321 0 0 1-2.562-2.2 2.321 2.321 0 0 1 2.564-2.2zm5.18-1.6V.994h.742v-12.446zm-9.03 9.576a47.028 47.028 0 0 0 8.218-.518l-.07-.574a55.913 55.913 0 0 1-8.274.448z" class="prefix__cls-6" data-name="패스 902" transform="translate(12.256 196.143)"/>
        <path id="prefix__패스_903" d="M1.274-9.8v.63h4.074A7.989 7.989 0 0 1 .882-2.31l.448.546A8.7 8.7 0 0 0 6.076-9.8zm9.282-1.652v5.18H8.5v-4.844h-.716V.308H8.5v-5.95h2.058V.98h.714v-12.432zm13.034.014h-.742v9.17h.742zm-9.044 3.892a2.339 2.339 0 0 1 2.436-2.338 2.339 2.339 0 0 1 2.436 2.338 2.354 2.354 0 0 1-2.436 2.366 2.354 2.354 0 0 1-2.436-2.366zm5.586 0a2.962 2.962 0 0 0-3.15-3 2.962 2.962 0 0 0-3.15 3 2.976 2.976 0 0 0 3.15 3.024 2.976 2.976 0 0 0 3.15-3.024zM16.52.042v-3.276h-.742V.672h8.232v-.63zm16.226-8.134v.63h2.8v3.416h.742v-7.406h-.742v3.36zm.644 2.912a4.526 4.526 0 0 1-3.136-3.878v-.77h2.912v-.63h-6.608v.63h2.968v.784a4.859 4.859 0 0 1-3.234 4.228l.378.6a5.619 5.619 0 0 0 3.248-3.4 5.315 5.315 0 0 0 3.094 3.024zM32.27.35c-2.03 0-3.332-.63-3.332-1.666s1.3-1.666 3.332-1.666 3.346.63 3.346 1.666S34.3.35 32.27.35zm0-3.934c-2.534 0-4.074.812-4.074 2.268S29.736.952 32.27.952s4.074-.812 4.074-2.268-1.554-2.268-4.074-2.268zm8.722-3.906h6.972v2.618h-6.972zm3.836 6.174v-2.926h3.864v-6.286h-.728v2.408h-6.972v-2.408h-.742v6.286h3.836v2.926h-5.25v.63h11.3v-.63zm20.188-5.222c-1.862-.308-4.564-1.764-4.564-3.668v-.77h-.77v.77c0 1.96-2.674 3.36-4.578 3.668l.322.616c1.75-.336 3.906-1.414 4.648-3.066.742 1.624 2.912 2.73 4.634 3.066zm.672 2.226H54.432v.63h5.236V.966h.742v-4.648h5.264zm8.946-1.218c-1.736-.574-3.29-2.03-3.29-3.794v-.616h3.038v-.616H67.55v.616h3.05v.616a4.583 4.583 0 0 1-3.262 4l.378.6a5.455 5.455 0 0 0 3.276-3.206 5.259 5.259 0 0 0 3.278 2.988zM76.5.154h-6.388v-1.918H76.5zm0-2.534h-6.388v-1.694h-.742V.784h7.854v-4.858H76.5zm-.014-9.072v6.72h.742v-6.72zm7.458 1.152h-.728v2.478a6.888 6.888 0 0 1-3.43 5.53l.462.6a7.55 7.55 0 0 0 3.346-4.368 7.4 7.4 0 0 0 3.346 4.17l.462-.6a6.543 6.543 0 0 1-3.458-5.334zm5.194-1.148V.994h.742v-12.446zM101 .35c-2.128 0-3.486-.6-3.486-1.61S98.868-2.87 101-2.87s3.486.6 3.486 1.61S103.124.35 101 .35zm0-3.822c-2.632 0-4.228.8-4.228 2.212S98.364.952 101 .952s4.228-.784 4.228-2.212-1.6-2.212-4.228-2.212zm.35-1.694v-1.666h3.934v-.63h-7.732v-2.786h7.63v-.63h-8.358v4.046h3.794v1.666h-5.236v.63h11.242v-.63zm10.762-5.334c-1.932 0-3.276 1.148-3.276 2.842s1.344 2.842 3.276 2.842 3.276-1.148 3.276-2.842-1.344-2.842-3.276-2.842zm0 .644a2.321 2.321 0 0 1 2.562 2.2 2.321 2.321 0 0 1-2.562 2.2 2.321 2.321 0 0 1-2.562-2.2 2.321 2.321 0 0 1 2.562-2.2zm5.18-1.6V.994h.742v-12.446zm-9.03 9.576a47.028 47.028 0 0 0 8.218-.518l-.07-.574a55.913 55.913 0 0 1-8.274.448z" class="prefix__cls-6" data-name="패스 903" transform="translate(12.256 218.137)"/>
        <text id="prefix___4" class="prefix__cls-5" transform="translate(137.416 218.137)"/>
        <path id="prefix__패스_904" d="M6.9-4.564a7.167 7.167 0 0 0 .182-1.61 7.279 7.279 0 0 0-.21-1.736h3.3v3.346zM4.06-2.548c-1.372 0-2.324-1.512-2.324-3.626s.952-3.612 2.324-3.612S6.384-8.3 6.384-6.174 5.432-2.548 4.06-2.548zm6.118-8.9v2.908H6.65a2.8 2.8 0 0 0-2.59-1.9c-1.778 0-3.024 1.68-3.024 4.27S2.282-1.9 4.06-1.9a2.858 2.858 0 0 0 2.646-2.03h3.472V.98h.742v-12.432zm12.334 5.18h-6.8v-2.17h6.8zm.742-4.676h-.742v1.89h-6.8v-1.89h-.742v5.306h8.288zm1.5 6.986h-11.3v.63H18.7V.98h.742v-4.312h5.306zm13.706 1.89h.74v-9.38h-.742v3.08h-2.982v.644h2.982zm-2.214-2.818a4.782 4.782 0 0 1-3.164-4.13v-1.694h-.728v1.624a5.056 5.056 0 0 1-3.206 4.466l.392.6a5.7 5.7 0 0 0 3.192-3.5 5.564 5.564 0 0 0 3.108 3.208zM32.1.042v-3.22h-.74v3.85h8.148v-.63zM47.7-5.7a19.492 19.492 0 0 1-4.592.364h-.028v-2.056h3.878v-.616h-3.88V-9.87H47.1v-.63h-4.75v5.8h.756a20.534 20.534 0 0 0 4.69-.364zm-3.754 3.11h7.462V.98h.742v-4.2h-8.2zm7.49-8.848v3.346H49.35v-3.122h-.714v7.2h.714v-3.448h2.086v3.514h.714v-7.49z" class="prefix__cls-6" data-name="패스 904" transform="translate(12.256 240.131)"/>
        <text id="prefix___5" class="prefix__cls-3" data-name="•" transform="translate(178.324 171.476)">
            <tspan x="0" y="0" class="prefix__cls-4">•</tspan><tspan y="0"></tspan>
        </text>
        <text id="prefix___6" class="prefix__cls-5" transform="translate(186.262 171.476)"/>
        <path id="prefix__패스_905" d="M1.484 0h2.422c3.122 0 4.662-2.016 4.662-5.138s-1.54-5.068-4.676-5.068H1.484zm.84-.714v-8.792h1.484c2.688 0 3.878 1.722 3.878 4.368S6.5-.714 3.808-.714zM10.682 0h3.024c2.3 0 3.808-1.008 3.808-2.982a2.365 2.365 0 0 0-2.184-2.45V-5.5a2.194 2.194 0 0 0 1.57-2.228c0-1.722-1.344-2.478-3.4-2.478h-2.818zm.84-5.754V-9.52h1.792c1.806 0 2.744.5 2.744 1.89 0 1.162-.812 1.876-2.828 1.876zm0 5.054v-4.382h1.988c2.03 0 3.178.672 3.178 2.1C16.688-1.4 15.484-.7 13.51-.7zm11.606-9.184h-.742v7.532h.742a22.067 22.067 0 0 0 4.55-.434l-.1-.658a21.014 21.014 0 0 1-4.452.42zm8.33-1.582v5.222H29.3v-4.914h-.714V.308h.714v-5.894h2.156V.98h.714v-12.446zm6.3 1.666v.63h4.074a7.989 7.989 0 0 1-4.466 6.86l.448.546A8.7 8.7 0 0 0 42.56-9.8zm9.282-1.652v5.18h-2.058v-4.844h-.714V.308h.714v-5.95h2.058V.98h.714v-12.432zm13.034.014h-.742v9.17h.742zM51.03-7.546a2.339 2.339 0 0 1 2.436-2.338A2.339 2.339 0 0 1 55.9-7.546a2.354 2.354 0 0 1-2.434 2.366 2.354 2.354 0 0 1-2.436-2.366zm5.586 0a2.962 2.962 0 0 0-3.15-3 2.962 2.962 0 0 0-3.15 3 2.976 2.976 0 0 0 3.15 3.024 2.976 2.976 0 0 0 3.15-3.024zM53 .042v-3.276h-.742V.672h8.232v-.63zm16.23-8.134v.63h2.8v3.416h.742v-7.406h-.742v3.36zm.644 2.912a4.526 4.526 0 0 1-3.136-3.878v-.77h2.912v-.63h-6.608v.63h2.968v.784a4.859 4.859 0 0 1-3.234 4.228l.378.6a5.619 5.619 0 0 0 3.248-3.4A5.315 5.315 0 0 0 69.5-4.592zM68.754.35c-2.03 0-3.332-.63-3.332-1.666s1.3-1.666 3.332-1.666 3.346.63 3.346 1.666S70.784.35 68.754.35zm0-3.934c-2.534 0-4.074.812-4.074 2.268S66.22.952 68.754.952s4.074-.812 4.074-2.268-1.554-2.268-4.074-2.268zm8.722-3.906h6.972v2.618h-6.972zm3.836 6.174v-2.926h3.864v-6.286h-.728v2.408h-6.972v-2.408h-.742v6.286h3.836v2.926h-5.25v.63h11.3v-.63zM91.966-7.8a2.284 2.284 0 0 1 2.434-2.266A2.277 2.277 0 0 1 96.838-7.8 2.261 2.261 0 0 1 94.4-5.572 2.269 2.269 0 0 1 91.966-7.8zm5.6 0a2.907 2.907 0 0 0-3.166-2.9 2.9 2.9 0 0 0-3.15 2.9 2.882 2.882 0 0 0 3.15 2.87 2.894 2.894 0 0 0 3.166-2.87zm-3.99 4.844h6.188v3.11h-6.188zm-.728 3.74h7.658V-3.57h-7.658zm9.6-9.03h-1.946v-3.22h-.742v7.252h.742V-7.6h1.946zm11.732-1.218h-4.592v-1.75h-.742v1.75H104.2v.63h9.982zm-8.2 3.964c0-1.05 1.274-1.708 3.234-1.708s3.234.658 3.234 1.708-1.274 1.736-3.234 1.736-3.234-.674-3.234-1.736zm3.612 4.27v-1.948c2.226-.084 3.6-.924 3.6-2.324 0-1.47-1.526-2.324-3.976-2.324s-3.976.854-3.976 2.324c0 1.4 1.372 2.24 3.612 2.338v1.932H103.6V-.6h11.27v-.63z" class="prefix__cls-6" data-name="패스 905" transform="translate(186.262 171.476)"/>
        <path id="prefix__패스_906" d="M8.344-9.87H4.97v-1.6h-.742v1.6H.854v.63h7.49zM2.436-6.09c0-.994.868-1.68 2.17-1.68s2.17.686 2.17 1.68-.882 1.68-2.17 1.68-2.17-.7-2.17-1.68zM4.97-3.836C6.482-3.962 7.476-4.8 7.476-6.09c0-1.4-1.162-2.282-2.87-2.282S1.75-7.49 1.75-6.09c0 1.288.98 2.128 2.478 2.254v1.554c-1.288.056-2.52.056-3.584.056l.14.644a48.743 48.743 0 0 0 7.91-.49l-.056-.574c-1.162.182-2.422.266-3.668.336zm7.392-2.2h-2.156v-5.418h-.742V.966h.742V-5.39h2.156zm6.16-1.456h6.972v2.618h-6.972zm3.836 6.174v-2.924h3.864v-6.286h-.728v2.408h-6.972v-2.408h-.742v6.286h3.836v2.926h-5.25v.63h11.3v-.63zM35.5-6.174a16.916 16.916 0 0 0 .35-3.7v-.574h-6.044v.616h5.32a15.387 15.387 0 0 1-.364 3.584zm1.414.882a42.373 42.373 0 0 1-4.3.35v-2.814h-.742v2.842c-1.022.028-1.988.028-2.842.028l.1.658a54.006 54.006 0 0 0 7.84-.49zM31.738-2.94H31V.672h7.99v-.63h-7.252zm6.846-4.326v-4.186h-.742v9.394h.742v-4.564h1.96v-.644z" class="prefix__cls-6" data-name="패스 906" transform="translate(186.262 193.47)"/>
        <text id="prefix___7" class="prefix__cls-3" data-name="•" transform="translate(178.324 220.476)">
            <tspan x="0" y="0" class="prefix__cls-4">•</tspan><tspan y="0"></tspan>
        </text>
        <text id="prefix___8" class="prefix__cls-5" transform="translate(186.262 220.476)"/>
        <path id="prefix__패스_907" d="M10.164-11.452V-4.3h.742v-7.154zM3.01-3.57V.784h7.9V-3.57zm7.168.616V.154h-6.44v-3.108zm-5.894-7.8A2.867 2.867 0 0 0 1.148-7.9a2.867 2.867 0 0 0 3.136 2.86A2.876 2.876 0 0 0 7.448-7.9a2.876 2.876 0 0 0-3.164-2.852zm0 .63A2.265 2.265 0 0 1 6.734-7.9a2.265 2.265 0 0 1-2.45 2.23A2.249 2.249 0 0 1 1.862-7.9a2.249 2.249 0 0 1 2.422-2.222zm16.7 4.984a4.509 4.509 0 0 1-3.274-3.904v-.826h3.038v-.63h-6.832v.63h3.052v.826A4.728 4.728 0 0 1 13.72-4.9l.378.588a5.445 5.445 0 0 0 3.262-3.3 5.359 5.359 0 0 0 3.262 3.062zm-5.6 2.562h7.462V.98h.742v-4.172h-8.2zm7.462-8.876v7.534h.742v-7.532zm9.926 7.42v.588h2.648v1.47h.742v-9.464h-.742v7.406zm-2.618-6.3c1.372 0 2.324.644 2.324 1.554 0 .938-.952 1.568-2.324 1.568s-2.324-.63-2.324-1.568c.002-.908.954-1.552 2.326-1.552zm0 3.7c1.82 0 3.024-.826 3.024-2.142s-1.2-2.128-3.024-2.128-3.038.826-3.038 2.128 1.22 2.14 3.04 2.14zm-.28 4.158h.742v-2.536a34.563 34.563 0 0 0 3.626-.364l-.07-.546a68.472 68.472 0 0 1-8.092.364l.112.644c1.092 0 2.338 0 3.682-.056zM28.7.042v-2.954h-.728V.672h8.512v-.63zM42.434 0h.84v-4.312h1.862c2.268 0 3.668-.98 3.668-3.024 0-2.114-1.414-2.87-3.724-2.87h-2.646zm.84-5.012v-4.494h1.638c2.03 0 3.038.518 3.038 2.17s-.966 2.324-2.982 2.324zm11.2 5.194a3.824 3.824 0 0 0 3.052-1.456l-.476-.532a3.264 3.264 0 0 1-2.534 1.232c-2.142 0-3.472-1.778-3.472-4.564 0-2.758 1.358-4.494 3.514-4.494A2.869 2.869 0 0 1 56.77-8.61l.476-.546a3.53 3.53 0 0 0-2.688-1.232c-2.59 0-4.4 2.016-4.4 5.278S51.954.182 54.474.182zm8.554-10.066h-.742v7.532h.742a22.067 22.067 0 0 0 4.55-.434l-.1-.658a21.014 21.014 0 0 1-4.452.42zm8.33-1.582v5.222H69.2v-4.914h-.714V.308h.714v-5.894h2.156V.98h.714v-12.446zm6.818 5.012c1.82-.28 3.948-1.19 4.62-2.66.672 1.47 2.814 2.38 4.634 2.66l.28-.6c-1.932-.252-4.466-1.386-4.466-3.052v-.126H87.4v-.616h-9.182v.616h4.158v.126c0 1.68-2.548 2.8-4.48 3.052zM86.282-1.2c0 .962-1.358 1.55-3.472 1.55-2.142 0-3.5-.588-3.5-1.554s1.358-1.54 3.5-1.54c2.114 0 3.472.574 3.472 1.544zm2.128-3.728v-.616H77.168v.616h5.25v1.582c-2.422.084-3.85.826-3.85 2.142C78.568.182 80.15.938 82.8.938S87.024.182 87.024-1.2c0-1.316-1.428-2.072-3.864-2.142v-1.586zm5.124.308a6.855 6.855 0 0 0 1.932.266 7.088 7.088 0 0 0 1.974-.266v3.29h-3.906zm-1.806-2.828c0-1.484 1.6-2.506 3.738-2.506s3.752 1.022 3.752 2.506-1.6 2.492-3.752 2.492-3.738-1.022-3.738-2.492zm6.454 6.118v-3.584a2.831 2.831 0 0 0 1.736-2.534c0-1.9-1.848-3.108-4.452-3.108s-4.438 1.2-4.438 3.108A2.826 2.826 0 0 0 92.792-4.9v3.57h-2.94v.63h11.284v-.63zm16.324-5.922h-6.86v-2.968h6.86zm.714-3.584h-8.3v4.2h8.3zm-7.546 7.966h-.742V.672h8.526v-.63h-7.784zm-2.254-2.114v.63h5.32v2.772h.742v-2.772h5.236v-.63z" class="prefix__cls-6" data-name="패스 907" transform="translate(186.262 220.476)"/>
        <path id="prefix__패스_908" d="M4.942-10.3H4.2v2.478A6.922 6.922 0 0 1 .868-2.31l.476.588a7.536 7.536 0 0 0 3.234-4.452 7.264 7.264 0 0 0 3.29 4.228l.434-.6a6.551 6.551 0 0 1-3.36-5.278zm5.236-1.148v4.424H6.972v.616h3.206V.994h.742v-12.446zM17.416-7.8a2.284 2.284 0 0 1 2.436-2.268A2.277 2.277 0 0 1 22.288-7.8a2.261 2.261 0 0 1-2.436 2.226A2.269 2.269 0 0 1 17.416-7.8zm5.6 0a2.907 2.907 0 0 0-3.164-2.9A2.9 2.9 0 0 0 16.7-7.8a2.882 2.882 0 0 0 3.15 2.87 2.894 2.894 0 0 0 3.166-2.87zm-3.99 4.844h6.188v3.11h-6.188zM18.3.784h7.658V-3.57H18.3zm9.6-9.03h-1.944v-3.22h-.742v7.252h.742V-7.6H27.9zm11.748-1.218h-4.592v-1.75h-.742v1.75h-4.648v.63h9.982zM31.444-5.5c0-1.05 1.274-1.708 3.234-1.708s3.234.658 3.234 1.708-1.274 1.736-3.234 1.736-3.234-.674-3.234-1.736zm3.612 4.27v-1.948c2.226-.084 3.6-.924 3.6-2.324 0-1.47-1.526-2.324-3.976-2.324S30.7-6.972 30.7-5.5c0 1.4 1.372 2.24 3.612 2.338v1.932h-5.25v.63h11.27v-.63zM49.28-9.87h-3.374v-1.6h-.742v1.6H41.79v.63h7.49zm-5.908 3.78c0-.994.868-1.68 2.17-1.68s2.17.686 2.17 1.68-.882 1.68-2.17 1.68-2.17-.7-2.17-1.68zm2.534 2.254c1.512-.126 2.506-.966 2.506-2.254 0-1.4-1.162-2.282-2.87-2.282s-2.856.882-2.856 2.282c0 1.288.98 2.128 2.478 2.254v1.554c-1.288.056-2.52.056-3.584.056l.14.644a48.743 48.743 0 0 0 7.91-.49l-.056-.574c-1.162.182-2.422.266-3.668.336zm7.392-2.2h-2.156v-5.418H50.4V.966h.742V-5.39H53.3zm6.16-1.456h6.972v2.618h-6.972zm3.836 6.174v-2.924h3.864v-6.286h-.728v2.408h-6.972v-2.408h-.742v6.286h3.836v2.926H57.3v.63h11.3v-.63zM76.44-6.174a16.916 16.916 0 0 0 .35-3.7v-.574h-6.048v.616h5.32a15.387 15.387 0 0 1-.362 3.588zm1.414.882a42.373 42.373 0 0 1-4.3.35v-2.814h-.742v2.842c-1.022.028-1.988.028-2.842.028l.1.658a54.006 54.006 0 0 0 7.84-.49zm-5.18 2.352h-.742V.672h7.994v-.63h-7.252zm6.846-4.326v-4.186h-.742v9.394h.742v-4.564h1.96v-.644z" class="prefix__cls-6" data-name="패스 908" transform="translate(186.262 242.47)"/>
        <text id="prefix___9" class="prefix__cls-7" data-name="•" transform="translate(342.642 174.472)">
            <tspan x="0" y="0">•</tspan>
        </text>
        <path id="prefix__패스_913" d="M7.364-7.9v.63h2.814v4.97h.742v-9.156h-.742V-7.9zm.658 2.954A4.526 4.526 0 0 1 4.886-8.82v-.9H7.8v-.63H1.19v.63h2.968v.91A4.819 4.819 0 0 1 .91-4.62l.392.6a5.625 5.625 0 0 0 3.234-3.372A5.424 5.424 0 0 0 7.644-4.34zM3.892.042v-3.178H3.15V.672h8.15v-.63zM22.54-7.252h-6.86v-2.968h6.86zm.714-3.584h-8.3v4.2h8.3zM15.708-2.87h-.742V.672h8.526v-.63h-7.784zm-2.254-2.114v.63h5.32v2.772h.742v-2.772h5.236v-.63zM35.532.168h-6.286v-1.876h6.286zm0-2.492h-6.286V-4.13H28.5V.784h7.77V-4.13h-.742zm-6.02-3.5a2.264 2.264 0 0 1-2.436-2.2 2.248 2.248 0 0 1 2.436-2.2 2.248 2.248 0 0 1 2.436 2.2 2.264 2.264 0 0 1-2.436 2.2zm6.02-5.628v3.08h-2.884a2.9 2.9 0 0 0-3.136-2.478 2.859 2.859 0 0 0-3.15 2.828 2.867 2.867 0 0 0 3.15 2.828 2.889 2.889 0 0 0 3.136-2.534h2.884v2.94h.742v-6.664zm6.762 3.038h2.52v-.63h-2.506V-11h-.728v1.96h-2.534v.63h2.534v.81a6.526 6.526 0 0 1-2.8 5.348l.476.56a6.669 6.669 0 0 0 2.688-4.088 6.465 6.465 0 0 0 2.716 3.834l.462-.588A6.026 6.026 0 0 1 42.294-7.6zm3.794 1.988h-2.2v.63h2.2v6.09h.712V-11.13h-.714zm2.492-5.04V.98h.728v-12.446zm11.97 2.282h-7.574v2.464H61.5v-.574h-7.8v-1.344h7.574v-2.38h-8.33v.574h7.6zM53.634-1.26h7.686v-2.45h-8.442v.574h7.728v1.316H52.92V.77h8.834V.182h-8.12zm-2.156-4.3v.588h11.3v-.588zM72.7.35c-2.17 0-3.486-.49-3.486-1.372 0-.854 1.316-1.372 3.486-1.372s3.486.518 3.486 1.372C76.188-.14 74.872.35 72.7.35zm0-3.318c-2.7 0-4.228.672-4.228 1.946S70 .938 72.7.938s4.23-.672 4.23-1.96-1.53-1.946-4.23-1.946zm.364-1.792v-1.512h3.866v-.6h-7.574v-1.54h7.168v-.6h-7.168v-1.456h7.518v-.6h-8.26v4.8h3.71v1.508h-5.236v.63h11.228v-.63zm14.1-5.04h-3.3v-1.638h-.742V-9.8H79.8v.616h7.364zm-5.922 3.724c0-.994.91-1.68 2.24-1.68s2.226.686 2.226 1.68c0 .966-.9 1.666-2.226 1.666s-2.24-.7-2.24-1.666zm5.166 0c0-1.386-1.162-2.282-2.926-2.282s-2.94.9-2.94 2.282 1.176 2.268 2.94 2.268 2.926-.892 2.926-2.268zm-3.92 3.206h-.742V.672h8.2v-.63h-7.458zm6.846-4.312v-4.256h-.742V-2.1h.742v-4.452h1.946v-.63zm15.064-.07h-6.86v-2.968h6.86zm.714-3.584h-8.3v4.2h8.3zM97.566-2.87h-.742V.672h8.526v-.63h-7.784zm-2.254-2.114v.63h5.32v2.772h.742v-2.772h5.236v-.63zm16.856-5.32h-.742v2.478a6.922 6.922 0 0 1-3.332 5.516l.476.588a7.536 7.536 0 0 0 3.23-4.452 7.264 7.264 0 0 0 3.29 4.228l.434-.6a6.551 6.551 0 0 1-3.36-5.278zm5.236-1.148v4.424H114.2v.616h3.2V.994h.742v-12.446z" class="prefix__cls-6" data-name="패스 913" transform="translate(350.58 174.472)"/>
        <path id="prefix__패스_914" d="M3.192-9.38H5.67v6.356c-.826.056-1.68.07-2.478.1zm3.206 0H7.91v-.63H.952v.63h1.512v6.454c-.644.014-1.246.014-1.82.014l.112.658a54.683 54.683 0 0 0 7.91-.434l-.042-.574c-.714.1-1.47.154-2.226.2zm6.034 3.038h-2.184v-5.124h-.742V.966h.742V-5.7h2.184zm1.806-3.738v.63h4.97c-.2 3.066-2.086 5.712-5.5 7.364l.406.616c4-1.974 5.838-5.138 5.838-8.61zm8.61-1.372V.98h.742v-12.432zM36.372-4.8h-3.458v-4.678h3.458zm-4.186 0h-2.072v.63h9.072v-.63h-2.072v-4.678h2.072v-.63H30.1v.63h2.086zm-3.15 3.458v.63h11.3v-.63zm18.676.056v-2.62h4.116v-.63h-7.9V-6.93h7.6v-3.528h-8.366v.616h7.644v2.3H43.2v3.64h3.77v2.618h-5.25v.644h11.3v-.644zm10.178-8.948h-.7v2.548a6.407 6.407 0 0 1-2.884 5.306l.49.56a6.755 6.755 0 0 0 2.758-4.074 6.574 6.574 0 0 0 2.66 3.808l.476-.574a6.176 6.176 0 0 1-2.8-5.04zm3.752 3.4H59.3v.63h2.338V.322h.714v-11.466h-.714zm2.548-4.62V.98h.71v-12.432zM77.686-5c-1.764-.35-4.634-2.226-4.634-4.522v-.994h-.77v.994c0 2.31-2.828 4.158-4.606 4.522l.35.63a7.191 7.191 0 0 0 4.648-3.75 7.205 7.205 0 0 0 4.662 3.752zM67.074-1.428V-.8h11.284v-.63zm25.69-10.024h-.742v9.184h.742zm-2.6 6.664c-1.736-.6-3.276-2.114-3.276-3.92v-1.008h3.038v-.63H83.09v.63h3.052v1.008a4.71 4.71 0 0 1-3.248 4.158l.392.588a5.423 5.423 0 0 0 3.248-3.3A5.3 5.3 0 0 0 89.8-4.214zm-4.47 4.83V-3.15h-.742V.672h8.232v-.63zm17.332-7.308h2v3.724h.714v-7.91h-.714V-7.9h-2v-3.318h-.714V-4h.714zm-1.288-2.576h-2.856v-1.526h-.742v1.526h-2.87v.616h6.468zm-5.18 3.5c0-.882.8-1.5 1.946-1.5 1.176 0 1.96.616 1.96 1.512S99.68-4.816 98.5-4.816s-1.942-.616-1.942-1.526zm4.592 0c0-1.274-1.064-2.086-2.646-2.086-1.554 0-2.618.812-2.618 2.1s1.064 2.1 2.618 2.1c1.582 0 2.646-.812 2.646-2.114zm.588 6.692c-2.044 0-3.346-.574-3.346-1.512s1.3-1.512 3.346-1.512 3.346.56 3.346 1.512S103.8.35 101.738.35zm0-3.612c-2.548 0-4.074.756-4.074 2.1s1.526 2.1 4.074 2.1 4.074-.756 4.074-2.1-1.512-2.1-4.074-2.1z" class="prefix__cls-6" data-name="패스 914" transform="translate(350.58 196.466)"/>
        <text id="prefix___10" class="prefix__cls-7" data-name="•" transform="translate(342.642 223.472)">
            <tspan x="0" y="0">•</tspan><tspan y="0" letter-spacing="-0.015em"></tspan>
        </text>
        <path id="prefix__패스_915" d="M7.854-10.094H4.718v-1.5h-.742v1.5H.8v.63h7.054zM2.282-6.482c0-.952.84-1.624 2.058-1.624s2.044.672 2.044 1.624-.826 1.624-2.044 1.624-2.058-.672-2.058-1.624zm4.816 0c0-1.358-1.12-2.212-2.758-2.212s-2.758.854-2.758 2.212S2.7-4.27 4.34-4.27 7.1-5.124 7.1-6.482zm3.094 6.65h-6.4v-1.61h6.4zm0-2.212h-6.4v-1.512h-.74v4.34h7.868v-4.34h-.728zm-.014-9.408V-8.4H7.77v.63h2.408v1.778H7.756v.616h2.422v1.232h.742v-7.308zM20.16-5.46a28.064 28.064 0 0 1-5.264.308h-.14V-7.42h4.536v-3.28h-5.306v.63h4.578v2.044h-4.536v3.5h.872a29.325 29.325 0 0 0 5.348-.308zm-4.76 3h7.462v3.468h.738v-4.1h-8.2zm7.462-8.988v1.918h-2.688v.63h2.688v1.89h-2.688v.63h2.688v2.562h.738v-7.63zM35.532.168h-6.286v-1.876h6.286zm0-2.492h-6.286V-4.13H28.5V.784h7.77V-4.13h-.742zm-6.02-3.5a2.264 2.264 0 0 1-2.436-2.2 2.248 2.248 0 0 1 2.436-2.2 2.248 2.248 0 0 1 2.436 2.2 2.264 2.264 0 0 1-2.436 2.2zm6.02-5.628v3.08h-2.884a2.9 2.9 0 0 0-3.136-2.478 2.859 2.859 0 0 0-3.15 2.828 2.867 2.867 0 0 0 3.15 2.828 2.889 2.889 0 0 0 3.136-2.534h2.884v2.94h.742v-6.664zm6.762 3.038h2.52v-.63h-2.506V-11h-.728v1.96h-2.534v.63h2.534v.81a6.526 6.526 0 0 1-2.8 5.348l.476.56a6.669 6.669 0 0 0 2.688-4.088 6.465 6.465 0 0 0 2.716 3.834l.462-.588A6.026 6.026 0 0 1 42.294-7.6zm3.794 1.988h-2.2v.63h2.2v6.09h.712V-11.13h-.714zm2.492-5.04V.98h.728v-12.446zm9.282 2.212h2.478v-.63h-5.768v.63h2.576v1.442a6.707 6.707 0 0 1-2.856 5.642l.49.56a6.816 6.816 0 0 0 2.73-4.228 6.427 6.427 0 0 0 2.66 3.938l.476-.56a6.328 6.328 0 0 1-2.786-5.348zm3.808 2.38h-2.31v.644h2.31V.294h.714v-11.41h-.714zm2.492-4.578V.98h.728v-12.432zM76.118-9.7a11.077 11.077 0 0 1-.336 3.164l.714.1a11.68 11.68 0 0 0 .336-3.264v-1.08H68.46v.63h7.658zM72.674.336c-2.114 0-3.542-.644-3.542-1.638s1.428-1.652 3.542-1.652S76.23-2.3 76.23-1.3 74.788.336 72.674.336zm0-3.892c-2.632 0-4.284.84-4.284 2.254s1.652 2.24 4.284 2.24S76.958.112 76.958-1.3s-1.652-2.256-4.284-2.256zm.042-1.974v-2.52h-.742v2.52H67.1v.63h11.216v-.63zM83.9-10.3h-.728v2.478a6.888 6.888 0 0 1-3.43 5.53l.462.6A7.55 7.55 0 0 0 83.55-6.06a7.4 7.4 0 0 0 3.35 4.17l.462-.6A6.543 6.543 0 0 1 83.9-7.826zm5.2-1.152V.994h.742v-12.446zm3.524 13.916A2.909 2.909 0 0 0 94.3-.14c0-.742-.336-1.2-.84-1.2a.7.7 0 0 0-.742.7.686.686 0 0 0 .732.71.682.682 0 0 0 .168-.014 2.118 2.118 0 0 1-1.232 1.876zm7.266-4.718h7.84v3.22h.742V-2.87H99.89zm.952-8.064h6.86v2.884h-6.86zm3.794 5.306V-6.8h3.78v-4.13h-8.3v4.13h3.78v1.792H98.63v.63h11.242v-.63zm13.916-.14a4.527 4.527 0 0 1-3.136-3.892v-.826h2.912v-.63h-6.608v.63h2.968v.84a4.819 4.819 0 0 1-3.248 4.186l.392.588a5.5 5.5 0 0 0 3.234-3.344 5.442 5.442 0 0 0 3.108 3.038zm-5.306 2.52h7.462v3.6h.742v-4.23h-8.2zm7.462-8.82v3.4h-2.8v.63h2.8V-4h.742v-7.448z" class="prefix__cls-6" data-name="패스 915" transform="translate(350.58 223.472)"/>
        <path id="prefix__패스_916" d="M8.092-6.8a26.643 26.643 0 0 1-5.754.448H2.17v-3.728h4.7v-.63H1.428v4.984h.91A27.91 27.91 0 0 0 8.2-6.174zM3.416-1.61h6.958v-2.842H2.66v.63h6.986v1.61H2.688v3h8.19V.154H3.416zm6.958-7.07v-2.786h-.742v6.314h.742v-2.9h1.946v-.63zm12.488 4.62h.738v-7.406h-.742V-8.6h-2.964v.63h2.968zm-2.184-1.26a4.628 4.628 0 0 1-3.192-4.046v-1.358h-.728v1.372a4.807 4.807 0 0 1-3.22 4.368l.392.6A5.527 5.527 0 0 0 17.15-7.8a5.4 5.4 0 0 0 3.094 3.052zM19.586.336c-2.03 0-3.332-.658-3.332-1.694s1.3-1.694 3.332-1.694 3.346.658 3.346 1.694S21.616.336 19.586.336zm0-3.99c-2.534 0-4.074.826-4.074 2.3s1.54 2.3 4.074 2.3 4.074-.826 4.074-2.3-1.554-2.3-4.074-2.3zm20.006-6.314h-4.564v-1.6h-.742v1.6h-4.634v.616h9.94zM37.8-6.44c0 .9-1.218 1.456-3.15 1.456s-3.136-.56-3.136-1.456S32.732-7.9 34.65-7.9s3.15.55 3.15 1.46zm-7.056 0c0 1.288 1.47 2.03 3.906 2.03s3.92-.742 3.92-2.03-1.47-2.044-3.92-2.044-3.906.742-3.906 2.044zm9.59 3.052h-11.3v.63h5.25V.994h.742v-3.752h5.306zm6.692-5.992H49.5v6.356c-.826.056-1.68.07-2.478.1zm3.206 0h1.512v-.63h-6.958v.63H46.3v6.454c-.644.014-1.246.014-1.82.014l.112.658a54.683 54.683 0 0 0 7.91-.434l-.042-.574c-.714.1-1.47.154-2.226.2zm6.034 3.038h-2.184v-5.124h-.742V.966h.742V-5.7h2.184zm1.806-3.738v.63h4.97c-.2 3.066-2.086 5.712-5.5 7.364l.406.616c4-1.974 5.838-5.138 5.838-8.61zm8.61-1.372V.98h.742v-12.432zm13.692 1.26H77.14v-1.372h-.74v1.372h-3.25v.592h7.224zm-5.74 3.01c0-.77.854-1.288 2.128-1.288s2.128.518 2.128 1.288-.854 1.274-2.128 1.274-2.128-.504-2.128-1.274zM80.78-4.69a34.1 34.1 0 0 1-3.64.35v-1.036c1.484-.1 2.436-.742 2.436-1.806 0-1.134-1.12-1.834-2.814-1.834s-2.828.7-2.828 1.834c0 1.064.952 1.708 2.464 1.806v1.064c-1.274.042-2.506.042-3.542.042l.112.63a45.386 45.386 0 0 0 7.868-.49zm-6.426 2.814h7.28V.98h.742v-3.472h-8.022zm10-5.7h-1.978v-3.864h-.742v8.246h.742V-6.93h1.974zM95.68-11.44h-.742v9.17h.742zm-9.048 3.894a2.339 2.339 0 0 1 2.436-2.338A2.339 2.339 0 0 1 91.5-7.546a2.354 2.354 0 0 1-2.432 2.366 2.354 2.354 0 0 1-2.436-2.366zm5.586 0a2.962 2.962 0 0 0-3.15-3 2.962 2.962 0 0 0-3.15 3 2.976 2.976 0 0 0 3.15 3.024 2.976 2.976 0 0 0 3.15-3.024zM88.606.042v-3.276h-.742V.672H96.1v-.63z" class="prefix__cls-6" data-name="패스 916" transform="translate(350.58 245.466)"/>
        <g id="prefix__그룹_21" data-name="그룹 21" transform="translate(-5338.5 -3083.942)">
            <path id="prefix__패스_63" d="M5457.759 3148.881a47.691 47.691 0 1 0-47.691 47.691 47.69 47.69 0 0 0 47.691-47.691" class="prefix__cls-9" data-name="패스 63"/>
        </g>
        <path id="prefix__패스_899" d="M1.3-10.605V-9.6h4.04A8.148 8.148 0 0 1 .8-2.655l.72.885a9.41 9.41 0 0 0 5.04-8.835zm9.72-1.74v5.415H9.195v-5.055H8.04V.435h1.155v-6.36h1.83V1.11h1.185v-13.455zm14.31.015H24.1v9.83h1.23zM15.81-8.1a2.2 2.2 0 0 1 2.3-2.235A2.208 2.208 0 0 1 20.43-8.1a2.214 2.214 0 0 1-2.33 2.265A2.206 2.206 0 0 1 15.81-8.1zm5.82 0a3.311 3.311 0 0 0-3.53-3.3 3.294 3.294 0 0 0-3.49 3.3 3.309 3.309 0 0 0 3.49 3.33 3.325 3.325 0 0 0 3.53-3.33zM17.91-.2v-3.31h-1.23V.81h9.06V-.2zm17.07-8.65v1h2.655v3.53h1.245v-8.01h-1.245v3.48zm.75 3.06a4.632 4.632 0 0 1-3.27-4.11v-.465h2.955v-.99H28.23v.99h3v.465a4.96 4.96 0 0 1-3.39 4.485l.645.975a5.823 5.823 0 0 0 3.39-3.42 5.527 5.527 0 0 0 3.24 3.03zM34.44.15c-2.025 0-3.255-.57-3.255-1.545s1.23-1.56 3.255-1.56 3.255.585 3.255 1.56S36.465.15 34.44.15zm0-4.05c-2.76 0-4.485.915-4.485 2.5s1.725 2.5 4.485 2.5 4.47-.915 4.47-2.5-1.71-2.5-4.47-2.5zm9.51-4.08h6.87v2.475h-6.87zM48-1.62v-2.895h4.02v-6.87h-1.2v2.4h-6.87v-2.4h-1.215v6.87h4.02v2.895h-5.46v1H53.49v-1z" class="prefix__cls-6" data-name="패스 899" transform="translate(44.417 61.574)"/>
        <text id="prefix___11" fill="#1e2323" font-family="NotoSansKR-Regular, Noto Sans KR" font-size="15px" transform="translate(102.317 61.574)">
            <tspan x="0" y="0"></tspan>
        </text>
        <path id="prefix__패스_900" d="M12.375-7.215c-2.445-.36-4.845-2.025-4.845-3.9v-.75H6.24v.75c0 1.92-2.37 3.54-4.815 3.9l.5.99a6.894 6.894 0 0 0 4.965-3.15 7.06 7.06 0 0 0 4.98 3.15zm.585 2.445H.81v1.02h5.43v4.875h1.23V-3.75h5.505zm9.57-1.44a4.428 4.428 0 0 1-3.39-3.96v-.3h3.045v-1h-7.38v1h3.075v.3A4.576 4.576 0 0 1 14.46-6l.63.975a5.611 5.611 0 0 0 3.435-3.21 5.517 5.517 0 0 0 3.405 2.97zm1.59 6.135h-6.24v-1.74h6.24zm0-2.7h-6.24V-4.41h-1.215V.93h8.67v-5.34H24.12zm-.015-9.57v7.29h1.23v-7.29z" class="prefix__cls-6" data-name="패스 900" transform="translate(57.917 81.569)"/>
        <g id="prefix__그룹_22" data-name="그룹 22" transform="translate(-5338.5 -3083.942)">
            <path id="prefix__패스_66" d="M5350.892 3151.882a59.254 59.254 0 0 0 57.674 56.231" class="prefix__cls-11" data-name="패스 66"/>
            <path id="prefix__패스_67" d="M5413.069 3208.057a59.252 59.252 0 0 0 56.23-57.674" class="prefix__cls-11" data-name="패스 67"/>
            <path id="prefix__패스_69" d="M5350.317 3162.975a11.818 11.818 0 1 0-11.817-11.817 11.817 11.817 0 0 0 11.817 11.817" class="prefix__cls-13" data-name="패스 69"/>
        </g>
        <text id="prefix___1" class="prefix__cls-14" data-name="1" transform="translate(8.432 71.746)">
            <tspan x="0" y="0">1</tspan>
        </text>
        <path id="prefix__선_126" d="M0 0L0 12" class="prefix__cls-15" data-name="선 126" transform="translate(70.033 134.817)"/>
        <g id="prefix__그룹_23" data-name="그룹 23" transform="translate(-5338.5 -3083.942)">
            <path id="prefix__패스_70" d="M5578.386 3195.572a47.691 47.691 0 1 0-47.691-47.691 47.69 47.69 0 0 0 47.691 47.691" class="prefix__cls-9" data-name="패스 70"/>
        </g>
        <path id="prefix__패스_909" d="M1.3-10.605V-9.6h4.04A8.148 8.148 0 0 1 .8-2.655l.72.885a9.41 9.41 0 0 0 5.04-8.835zm9.72-1.74v5.415H9.195v-5.055H8.04V.435h1.155v-6.36h1.83V1.11h1.185v-13.455zm14.31.015H24.1v9.83h1.23zM15.81-8.1a2.2 2.2 0 0 1 2.3-2.235A2.208 2.208 0 0 1 20.43-8.1a2.214 2.214 0 0 1-2.33 2.265A2.206 2.206 0 0 1 15.81-8.1zm5.82 0a3.311 3.311 0 0 0-3.53-3.3 3.294 3.294 0 0 0-3.49 3.3 3.309 3.309 0 0 0 3.49 3.33 3.325 3.325 0 0 0 3.53-3.33zM17.91-.2v-3.31h-1.23V.81h9.06V-.2zm17.07-8.65v1h2.655v3.53h1.245v-8.01h-1.245v3.48zm.75 3.06a4.632 4.632 0 0 1-3.27-4.11v-.465h2.955v-.99H28.23v.99h3v.465a4.96 4.96 0 0 1-3.39 4.485l.645.975a5.823 5.823 0 0 0 3.39-3.42 5.527 5.527 0 0 0 3.24 3.03zM34.44.15c-2.025 0-3.255-.57-3.255-1.545s1.23-1.56 3.255-1.56 3.255.585 3.255 1.56S36.465.15 34.44.15zm0-4.05c-2.76 0-4.485.915-4.485 2.5s1.725 2.5 4.485 2.5 4.47-.915 4.47-2.5-1.71-2.5-4.47-2.5zm9.51-4.08h6.87v2.475h-6.87zM48-1.62v-2.895h4.02v-6.87h-1.2v2.4h-6.87v-2.4h-1.215v6.87h4.02v2.895h-5.46v1H53.49v-1z" class="prefix__cls-6" data-name="패스 909" transform="translate(212.736 60.54)"/>
        <path id="prefix__패스_910" d="M3.45-7.98h6.87v2.475H3.45zM7.5-1.62v-2.895h4.02v-6.87h-1.2v2.4H3.45v-2.4H2.235v6.87h4.02v2.895H.8v1h12.19v-1zM21.36-6.6a19.459 19.459 0 0 0 .345-3.99v-.71h-6.69v1.005h5.49a17.1 17.1 0 0 1-.36 3.555zm1.275.81c-1.365.2-2.9.3-4.365.36V-8.3h-1.215v2.91c-1.02.015-1.995.03-2.85.03l.12 1.005a53.915 53.915 0 0 0 8.4-.54zM17.49-3.135h-1.23V.81h8.94V-.2h-7.71zm7.275-4.83v-4.38h-1.23V-2.2h1.23v-4.74H26.7v-1.02zm17.115-4.38h-1.23v7.725h1.23zM36.645-6.96H32.76v-3.54h3.885zm1.2-4.515H31.56v5.5h6.285zm4.35 8.715v-.94H38.25V-5h-1.245v1.3H33.06v.945h3.93C36.975-1.425 34.83-.15 32.535.12l.4.945a6.724 6.724 0 0 0 4.695-2.46 6.625 6.625 0 0 0 4.62 2.46l.42-.945c-2.31-.285-4.41-1.59-4.425-2.88zm13.215-8.565h-3.24v-1.155h-1.23v1.155h-3.255v.885h7.725zM49.575-8.25c0-.6.765-.96 1.98-.96 1.2 0 1.965.36 1.965.96s-.765.975-1.965.975c-1.215 0-1.98-.375-1.98-.975zm6.24 2.22c-1.155.165-2.415.255-3.645.315v-.78c1.545-.135 2.52-.765 2.52-1.755 0-1.11-1.245-1.77-3.135-1.77-1.92 0-3.15.66-3.15 1.77 0 1 .975 1.635 2.535 1.755v.825c-1.29.045-2.535.045-3.585.045l.135.915a49.456 49.456 0 0 0 8.4-.525zM50.37-1.065h7.47V-3.81h-8.715v.87h7.5v1.05H49.17V.96h9.18V.075h-7.98zm7.47-7.845v-3.435h-1.23v7.95h1.23v-3.48h1.98V-8.91zM66.99.15c-2.115 0-3.36-.525-3.36-1.44s1.245-1.44 3.36-1.44 3.36.525 3.36 1.44S69.09.15 66.99.15zm0-3.84c-2.88 0-4.6.855-4.6 2.4s1.72 2.39 4.6 2.39c2.9 0 4.605-.84 4.605-2.385S69.885-3.69 66.99-3.69zm-1.86-3.57a11.677 11.677 0 0 0 1.86.15 11.726 11.726 0 0 0 1.875-.15v1.575H65.13zm-1.6-2.34c0-.975 1.32-1.545 3.465-1.545s3.465.57 3.465 1.545c0 .96-1.32 1.545-3.465 1.545s-3.47-.585-3.47-1.545zm6.55 3.915v-1.9A2.22 2.22 0 0 0 71.715-9.6c0-1.575-1.8-2.505-4.725-2.505-2.91 0-4.725.93-4.725 2.505a2.214 2.214 0 0 0 1.65 2.025v1.89H60.9v.99h12.18v-.99z" class="prefix__cls-6" data-name="패스 910" transform="translate(202.086 80.535)"/>
        <g id="prefix__그룹_24" data-name="그룹 24" transform="translate(-5338.5 -3083.942)">
            <path id="prefix__패스_71" d="M5519.211 3145.913a59.271 59.271 0 0 1 57.674-56.264" class="prefix__cls-16" data-name="패스 71"/>
            <path id="prefix__패스_72" d="M5581.389 3089.706a59.271 59.271 0 0 1 56.229 57.708" class="prefix__cls-16" data-name="패스 72"/>
            <path id="prefix__패스_74" d="M5516.636 3161.233a11.818 11.818 0 1 0-11.817-11.817 11.817 11.817 0 0 0 11.817 11.817" class="prefix__cls-13" data-name="패스 74"/>
        </g>
        <text id="prefix___2-2" class="prefix__cls-14" data-name="2" transform="translate(174.75 70.003)">
            <tspan x="0" y="0">2</tspan>
        </text>
        <path id="prefix__선_127" d="M0 0L0 12" class="prefix__cls-15" data-name="선 127" transform="translate(244.023 134.817)"/>
        <path id="prefix__선_128" fill="none" stroke="#3e3a39" stroke-dasharray="0 2.04" stroke-linecap="round" stroke-linejoin="round" d="M0 0L47.94 0" data-name="선 128" transform="translate(304.177 64.973)"/>
        <g id="prefix__그룹_25" data-name="그룹 25" transform="translate(-5338.5 -3083.942)">
            <path id="prefix__패스_76" fill="#91c9e0" d="M5750.936 3197.106a47.69 47.69 0 1 0-47.691-47.69 47.69 47.69 0 0 0 47.691 47.69" data-name="패스 76"/>
        </g>
        <path id="prefix__패스_911" d="M1.3-10.605V-9.6h4.04A8.148 8.148 0 0 1 .8-2.655l.72.885a9.41 9.41 0 0 0 5.04-8.835zm9.72-1.74v5.415H9.195v-5.055H8.04V.435h1.155v-6.36h1.83V1.11h1.185v-13.455zm14.31.015H24.1v9.83h1.23zM15.81-8.1a2.2 2.2 0 0 1 2.3-2.235A2.208 2.208 0 0 1 20.43-8.1a2.214 2.214 0 0 1-2.33 2.265A2.206 2.206 0 0 1 15.81-8.1zm5.82 0a3.311 3.311 0 0 0-3.53-3.3 3.294 3.294 0 0 0-3.49 3.3 3.309 3.309 0 0 0 3.49 3.33 3.325 3.325 0 0 0 3.53-3.33zM17.91-.2v-3.31h-1.23V.81h9.06V-.2zm17.085-8.65v1h2.655v3.53h1.25v-8.01h-1.25v3.48zm.75 3.06a4.632 4.632 0 0 1-3.27-4.11v-.465h2.955v-.99h-7.185v.99h3v.465a4.96 4.96 0 0 1-3.39 4.485l.645.975a5.823 5.823 0 0 0 3.39-3.42 5.527 5.527 0 0 0 3.24 3.03zM34.455.15C32.43.15 31.2-.42 31.2-1.395s1.23-1.56 3.255-1.56 3.255.585 3.255 1.56S36.48.15 34.455.15zm0-4.05c-2.76 0-4.485.915-4.485 2.5s1.725 2.5 4.485 2.5 4.47-.915 4.47-2.5-1.71-2.5-4.47-2.5zm9.51-4.08h6.87v2.475h-6.87zm4.05 6.36v-2.895h4.02v-6.87h-1.2v2.4h-6.87v-2.4H42.75v6.87h4.02v2.895h-5.46v1H53.5v-1z" class="prefix__cls-6" data-name="패스 911" transform="translate(385.286 66.178)"/>
        <path id="prefix__패스_912" d="M3.615-9.9H5.82v6.54c-.735.03-1.485.06-2.205.075zm3.4 0H8.46v-.99H.975v.99h1.44v6.63c-.63.015-1.23.015-1.785.015L.78-2.22a55.616 55.616 0 0 0 8.385-.495l-.09-.915c-.66.09-1.35.15-2.055.195zm6.345 2.94h-2.22v-5.37H9.915V1.11h1.23v-7.05h2.22zm1.725-3.93v.99h5.055c-.255 3.2-2.055 5.775-5.67 7.5l.66 1c4.47-2.19 6.255-5.61 6.255-9.5zm9.015-1.455V1.11h1.23v-13.455z" class="prefix__cls-6" data-name="패스 912" transform="translate(398.786 86.173)"/>
        <path id="prefix__패스_77" d="M5750.584 3084.942l-4.674 4.723 4.674 4.723" class="prefix__cls-19" data-name="패스 77" transform="rotate(180 3079.997 1607.194)"/>
        <path id="prefix__패스_951" d="M5750.584 3084.942l-4.674 4.723 4.674 4.723" class="prefix__cls-19" data-name="패스 951" transform="rotate(180 2908.997 1606.694)"/>
        <path id="prefix__패스_952" d="M5750.584 3084.942l-4.674 4.723 4.674 4.723" class="prefix__cls-19" data-name="패스 952" transform="rotate(180 2994.997 1547.194)"/>
        <g id="prefix__그룹_26" data-name="그룹 26" transform="translate(-5338.5 -3083.942)">
            <path id="prefix__패스_79" d="M5810.111 3152.417a59.253 59.253 0 0 1-57.674 56.23" class="prefix__cls-11" data-name="패스 79"/>
            <path id="prefix__패스_80" d="M5747.934 3208.591a59.253 59.253 0 0 1-56.23-57.674" class="prefix__cls-11" data-name="패스 80"/>
            <path id="prefix__패스_82" d="M5689.954 3161.233a11.818 11.818 0 1 0-11.817-11.817 11.817 11.817 0 0 0 11.817 11.817" class="prefix__cls-13" data-name="패스 82"/>
        </g>
        <text id="prefix___3-2" class="prefix__cls-14" data-name="3" transform="translate(348.068 70.003)">
            <tspan x="0" y="0">3</tspan>
        </text>
        <path id="prefix__선_129" d="M0 0L0 12" class="prefix__cls-15" data-name="선 129" transform="translate(411.936 134.817)"/>
    </g>
</svg>
