<svg id="구성_요소_59_1" data-name="구성 요소 59 – 1" xmlns="http://www.w3.org/2000/svg" xmlns:xlink="http://www.w3.org/1999/xlink" width="323.672" height="260.307" viewBox="0 0 323.672 260.307">
  <defs>
    <style>
      .cls-1, .cls-10, .cls-7, .cls-8, .cls-9 {
        fill: none;
      }

      .cls-2 {
        fill: #f4f6f7;
      }

      .cls-3 {
        fill: #1e2323;
      }

      .cls-4 {
        fill: #828484;
      }

      .cls-5 {
        fill: #fff;
      }

      .cls-6 {
        clip-path: url(#clip-path);
      }

      .cls-10, .cls-7, .cls-8, .cls-9 {
        stroke: #64666b;
        stroke-linecap: round;
        stroke-linejoin: round;
        stroke-width: 0.5px;
      }

      .cls-7 {
        stroke-dasharray: 0 1.497;
      }

      .cls-9 {
        stroke-dasharray: 0 1.516;
      }

      .cls-10 {
        stroke-dasharray: 0 1.511;
      }
    </style>
    <clipPath id="clip-path">
      <path id="패스_628" data-name="패스 628" class="cls-1" d="M0,0H323.672V-260.307H0Z"/>
    </clipPath>
  </defs>
  <path id="패스_624" data-name="패스 624" class="cls-2" d="M0-.661H323.672V-260.306H0Z" transform="translate(0 260.307)"/>
  <path id="패스_918" data-name="패스 918" class="cls-3" d="M2.119-7.215A2.156,2.156,0,0,1,4.5-9.256,2.156,2.156,0,0,1,6.877-7.215,2.156,2.156,0,0,1,4.5-5.174,2.156,2.156,0,0,1,2.119-7.215Zm2.73,2.626A2.649,2.649,0,0,0,7.54-7.215c0-1.573-1.248-2.639-3.042-2.639S1.456-8.788,1.456-7.215a2.661,2.661,0,0,0,2.7,2.626v2.236c-1.209.039-2.366.039-3.354.039l.117.6A43.669,43.669,0,0,0,8.554-2.2L8.489-2.73a30.289,30.289,0,0,1-3.64.338Zm4.459-6.058V.923H10v-11.57ZM20.826-5.824H14.508V-7.839h6.318Zm.689-4.342h-.689v1.755H14.508v-1.755h-.689v4.927h7.7Zm1.391,6.487H12.415v.585H17.29v4h.689v-4h4.927ZM27.82-8.814h2.717v-.6H24.375v.6h2.769v1.937a6.336,6.336,0,0,1-3.159,4.966l.429.572a7.131,7.131,0,0,0,3.068-4.03,6.717,6.717,0,0,0,3,3.744l.4-.559A5.873,5.873,0,0,1,27.82-6.877Zm7.124,2.99H32.916v-4.81h-.689V.91h.689V-5.239h2.028Zm7.514,1.2a4.345,4.345,0,0,1-2.964-3.744V-9.945h-.663v1.521A4.5,4.5,0,0,1,35.88-4.3l.364.559a5.088,5.088,0,0,0,2.951-3.2A5.092,5.092,0,0,0,42.12-4.069ZM38.415-2.886h-.689V.624h7.566V.039H38.415Zm6.318-4.108v-3.653h-.689v8.593h.689V-6.4H46.54v-.6Zm7.423.039H58.63v2.431H52.156Zm3.562,5.733V-3.939h3.588V-9.776H58.63V-7.54H52.156V-9.776h-.689v5.837h3.562v2.717H50.154v.585H60.645v-.585Zm7.111-5.772A2.178,2.178,0,0,1,65.1-9.178a2.172,2.172,0,0,1,2.249,2.184A2.172,2.172,0,0,1,65.1-4.81,2.178,2.178,0,0,1,62.829-6.994Zm5.2,0a2.76,2.76,0,0,0-2.925-2.8,2.757,2.757,0,0,0-2.938,2.8A2.764,2.764,0,0,0,65.1-4.2,2.768,2.768,0,0,0,68.029-6.994ZM64.4-2.951h-.689V.624h7.618V.039H64.4ZM70.759-7.02v-3.627H70.07V-2.08h.689V-6.422h1.807v-.6Z" transform="translate(47.353 54.61)"/>
  <path id="패스_625" data-name="패스 625" class="cls-4" d="M11.064-228.917H313.422v-20.5H11.064Z" transform="translate(0 260.307)"/>
  <path id="패스_917" data-name="패스 917" class="cls-5" d="M6.812-5.72a16.864,16.864,0,0,0,.3-3.458v-.611h-5.8v.871H6.071a14.822,14.822,0,0,1-.312,3.081Zm1.105.7c-1.183.169-2.509.26-3.783.312V-7.189H3.081v2.522c-.884.013-1.729.026-2.47.026l.1.871a46.726,46.726,0,0,0,7.28-.468Zm-4.459,2.3H2.392V.7H10.14V-.169H3.458ZM9.763-6.9v-3.8H8.7v8.788H9.763V-6.019H11.44V-6.9Zm4.368,1.456h4.3V-9.62H13.026v.871h4.329v2.431h-4.29v4.472h.962A33.838,33.838,0,0,0,19.9-2.275l-.1-.871a34.266,34.266,0,0,1-5.668.416Zm6.76-5.265V.975h1.066V-10.712Zm4.394,3.471A1.875,1.875,0,0,1,27.274-9.1,1.857,1.857,0,0,1,29.25-7.241a1.859,1.859,0,0,1-1.976,1.872A1.878,1.878,0,0,1,25.285-7.241Zm7.332-.91v1.82H30.108a2.624,2.624,0,0,0,.156-.91,2.843,2.843,0,0,0-.143-.91Zm0,2.691V-3.8H33.7v-6.9H32.617v1.677h-2.99A3.1,3.1,0,0,0,27.274-10a2.782,2.782,0,0,0-3,2.756,2.8,2.8,0,0,0,3,2.782,3.031,3.031,0,0,0,2.353-1ZM29.835.1c-1.755,0-2.821-.52-2.821-1.391s1.066-1.4,2.821-1.4c1.781,0,2.847.52,2.847,1.4S31.616.1,29.835.1Zm0-3.627c-2.392,0-3.874.819-3.874,2.236S27.443.949,29.835.949s3.9-.819,3.9-2.236S32.24-3.523,29.835-3.523ZM37.6-2.314h6.721V.975H45.4v-4.16H37.6ZM41.834-6.37a3.153,3.153,0,0,0,.13-.884,3.132,3.132,0,0,0-.13-.871h2.483V-6.37ZM38.961-5.343a1.882,1.882,0,0,1-1.976-1.911,1.877,1.877,0,0,1,1.976-1.885A1.88,1.88,0,0,1,40.95-7.254,1.886,1.886,0,0,1,38.961-5.343Zm5.356-5.343v1.7H41.379a3.07,3.07,0,0,0-2.418-1.066,2.8,2.8,0,0,0-2.99,2.795,2.813,2.813,0,0,0,2.99,2.821,3.043,3.043,0,0,0,2.4-1.066h2.951v1.677H45.4V-10.7Z" transform="translate(138.713 26.86)"/>
  <path id="패스_626" data-name="패스 626" class="cls-4" d="M11.064-147.132H313.422v-20.5H11.064Z" transform="translate(0 260.307)"/>
  <path id="패스_922" data-name="패스 922" class="cls-5" d="M8.814-7.6H3.094V-9.464h5.72Zm1.053-2.7H2.054V-6.76H9.867Zm1.365,5.382v-.858H.676v.858H5.421v1.144H1.95v.806H8.827v1.04H1.989V.832h8.242V0h-7.2V-1.157H9.88V-3.783H6.487V-4.927Zm2.9-.52h4.3V-9.62H13.026v.871h4.329v2.431h-4.29v4.472h.962A33.838,33.838,0,0,0,19.9-2.275l-.1-.871a34.266,34.266,0,0,1-5.668.416Zm6.76-5.265V.975h1.066V-10.712Zm4.394,3.471A1.875,1.875,0,0,1,27.274-9.1,1.857,1.857,0,0,1,29.25-7.241a1.859,1.859,0,0,1-1.976,1.872A1.878,1.878,0,0,1,25.285-7.241Zm7.332-.91v1.82H30.108a2.624,2.624,0,0,0,.156-.91,2.843,2.843,0,0,0-.143-.91Zm0,2.691V-3.8H33.7v-6.9H32.617v1.677h-2.99A3.1,3.1,0,0,0,27.274-10a2.782,2.782,0,0,0-3,2.756,2.8,2.8,0,0,0,3,2.782,3.031,3.031,0,0,0,2.353-1ZM29.835.1c-1.755,0-2.821-.52-2.821-1.391s1.066-1.4,2.821-1.4c1.781,0,2.847.52,2.847,1.4S31.616.1,29.835.1Zm0-3.627c-2.392,0-3.874.819-3.874,2.236S27.443.949,29.835.949s3.9-.819,3.9-2.236S32.24-3.523,29.835-3.523ZM37.6-2.314h6.721V.975H45.4v-4.16H37.6ZM41.834-6.37a3.153,3.153,0,0,0,.13-.884,3.132,3.132,0,0,0-.13-.871h2.483V-6.37ZM38.961-5.343a1.882,1.882,0,0,1-1.976-1.911,1.877,1.877,0,0,1,1.976-1.885A1.88,1.88,0,0,1,40.95-7.254,1.886,1.886,0,0,1,38.961-5.343Zm5.356-5.343v1.7H41.379a3.07,3.07,0,0,0-2.418-1.066,2.8,2.8,0,0,0-2.99,2.795,2.813,2.813,0,0,0,2.99,2.821,3.043,3.043,0,0,0,2.4-1.066h2.951v1.677H45.4V-10.7Z" transform="translate(138.713 108.645)"/>
  <path id="패스_627" data-name="패스 627" class="cls-4" d="M11.064-86.857H313.422v-20.5H11.064Z" transform="translate(0 260.307)"/>
  <g id="그룹" transform="translate(0 260.307)">
    <path id="패스_924" data-name="패스 924" class="cls-5" d="M8.814-7.6H3.094V-9.464h5.72Zm1.053-2.7H2.054V-6.76H9.867Zm1.365,5.382v-.858H.676v.858H5.421v1.144H1.95v.806H8.827v1.04H1.989V.832h8.242V0h-7.2V-1.157H9.88V-3.783H6.487V-4.927Zm2.9-.52h4.3V-9.62H13.026v.871h4.329v2.431h-4.29v4.472h.962A33.838,33.838,0,0,0,19.9-2.275l-.1-.871a34.266,34.266,0,0,1-5.668.416Zm6.76-5.265V.975h1.066V-10.712Zm4.394,3.471A1.875,1.875,0,0,1,27.274-9.1,1.857,1.857,0,0,1,29.25-7.241a1.859,1.859,0,0,1-1.976,1.872A1.878,1.878,0,0,1,25.285-7.241Zm7.332-.91v1.82H30.108a2.624,2.624,0,0,0,.156-.91,2.843,2.843,0,0,0-.143-.91Zm0,2.691V-3.8H33.7v-6.9H32.617v1.677h-2.99A3.1,3.1,0,0,0,27.274-10a2.782,2.782,0,0,0-3,2.756,2.8,2.8,0,0,0,3,2.782,3.031,3.031,0,0,0,2.353-1ZM29.835.1c-1.755,0-2.821-.52-2.821-1.391s1.066-1.4,2.821-1.4c1.781,0,2.847.52,2.847,1.4S31.616.1,29.835.1Zm0-3.627c-2.392,0-3.874.819-3.874,2.236S27.443.949,29.835.949s3.9-.819,3.9-2.236S32.24-3.523,29.835-3.523ZM37.6-2.314h6.721V.975H45.4v-4.16H37.6ZM41.834-6.37a3.153,3.153,0,0,0,.13-.884,3.132,3.132,0,0,0-.13-.871h2.483V-6.37ZM38.961-5.343a1.882,1.882,0,0,1-1.976-1.911,1.877,1.877,0,0,1,1.976-1.885A1.88,1.88,0,0,1,40.95-7.254,1.886,1.886,0,0,1,38.961-5.343Zm5.356-5.343v1.7H41.379a3.07,3.07,0,0,0-2.418-1.066,2.8,2.8,0,0,0-2.99,2.795,2.813,2.813,0,0,0,2.99,2.821,3.043,3.043,0,0,0,2.4-1.066h2.951v1.677H45.4V-10.7Z" transform="translate(138.713 -91.387)"/>
    <path id="패스_919" data-name="패스 919" class="cls-3" d="M6.851-7.514v.585h2.6v3.172h.689v-6.877H9.451v3.12Zm.6,2.7a4.2,4.2,0,0,1-2.912-3.6v-.715h2.7v-.585H1.105v.585H3.861V-8.4a4.512,4.512,0,0,1-3,3.926l.351.559A5.218,5.218,0,0,0,4.225-7.072,4.935,4.935,0,0,0,7.1-4.264ZM6.409.325C4.524.325,3.315-.26,3.315-1.222S4.524-2.769,6.409-2.769s3.107.585,3.107,1.547S8.294.325,6.409.325Zm0-3.653c-2.353,0-3.783.754-3.783,2.106S4.056.884,6.409.884,10.192.13,10.192-1.222,8.749-3.328,6.409-3.328ZM14.43-6.955H20.9v2.431H14.43Zm3.562,5.733V-3.939H21.58V-9.776H20.9V-7.54H14.43V-9.776h-.689v5.837H17.3v2.717H12.428v.585H22.919v-.585ZM26.13-6.955H32.6v2.431H26.13Zm3.562,5.733V-3.939H33.28V-9.776H32.6V-7.54H26.13V-9.776h-.689v5.837H29v2.717H24.128v.585H34.619v-.585ZM45.669-8.788H41.4v-1.625h-.689v1.625H36.4V-8.2h9.269ZM38.051-5.109c0-.975,1.183-1.586,3-1.586s3,.611,3,1.586-1.183,1.612-3,1.612S38.051-4.121,38.051-5.109ZM41.4-1.144V-2.951c2.067-.078,3.341-.858,3.341-2.158,0-1.365-1.417-2.158-3.692-2.158s-3.692.793-3.692,2.158c0,1.3,1.274,2.08,3.354,2.171v1.794H35.841v.585H46.306v-.585ZM58.526-8.021a21.562,21.562,0,0,1-.416,4.914l.689.091a23.139,23.139,0,0,0,.4-5.005V-9.36H51.285v.572h7.241ZM56.485-1.443V-5.356h-.676v3.913H53.638V-5.356h-.676v3.913H50.167v.585H60.606v-.585ZM67.067-9.776c2,0,3.3.611,3.3,1.6s-1.3,1.612-3.3,1.612-3.276-.624-3.276-1.612S65.078-9.776,67.067-9.776Zm0,3.77c2.483,0,4-.793,4-2.171s-1.521-2.158-4-2.158c-2.457,0-3.978.78-3.978,2.158S64.61-6.006,67.067-6.006Zm1.625,3.289H65.481V-4.381h3.211Zm3.6-1.664v-.585H61.867v.585h2.925v1.664H63.024v.585H70.3V.9h.689V-2.717H69.381V-4.381Z" transform="translate(47.349 -181.477)"/>
    <path id="패스_920" data-name="패스 920" class="cls-3" d="M6.851-7.514v.585h2.6v3.172h.689v-6.877H9.451v3.12Zm.6,2.7a4.2,4.2,0,0,1-2.912-3.6v-.715h2.7v-.585H1.105v.585H3.861V-8.4a4.512,4.512,0,0,1-3,3.926l.351.559A5.218,5.218,0,0,0,4.225-7.072,4.935,4.935,0,0,0,7.1-4.264ZM6.409.325C4.524.325,3.315-.26,3.315-1.222S4.524-2.769,6.409-2.769s3.107.585,3.107,1.547S8.294.325,6.409.325Zm0-3.653c-2.353,0-3.783.754-3.783,2.106S4.056.884,6.409.884,10.192.13,10.192-1.222,8.749-3.328,6.409-3.328ZM14.43-6.955H20.9v2.431H14.43Zm3.562,5.733V-3.939H21.58V-9.776H20.9V-7.54H14.43V-9.776h-.689v5.837H17.3v2.717H12.428v.585H22.919v-.585ZM27.82-8.814h2.717v-.6H24.375v.6h2.769v1.937a6.336,6.336,0,0,1-3.159,4.966l.429.572a7.131,7.131,0,0,0,3.068-4.03,6.717,6.717,0,0,0,3,3.744l.4-.559A5.873,5.873,0,0,1,27.82-6.877Zm7.124,2.99H32.916v-4.81h-.689V.91h.689V-5.239h2.028Zm7.514,1.2a4.345,4.345,0,0,1-2.964-3.744V-9.945h-.663v1.521A4.5,4.5,0,0,1,35.88-4.3l.364.559a5.088,5.088,0,0,0,2.951-3.2A5.092,5.092,0,0,0,42.12-4.069ZM38.415-2.886h-.689V.624h7.566V.039H38.415Zm6.318-4.108v-3.653h-.689v8.593h.689V-6.4H46.54v-.6Zm13.793.676H52.26V-8.073h6.266Zm.689-3.965h-.689v1.638H52.26v-1.638h-.689v4.55h7.644Zm-6.994,7.8h-.676V.624h7.917V.039H52.221ZM50.141-4.42v.572h4.94v2.483h.689V-3.848h4.862V-4.42Zm20.2-3.549H63.167V-5.1h8.1v-.572h-7.41V-7.423h7.163V-10.14H63.128v.585h7.215Zm1.989,4.277H61.841v.585h2.912V.91h.689V-3.107h3.276V.91h.689V-3.107h2.925Z" transform="translate(203.284 -205.696)"/>
    <path id="패스_921" data-name="패스 921" class="cls-3" d="M10.127-10.621H9.438v8.515h.689Zm-8.4,3.614A2.172,2.172,0,0,1,3.991-9.178,2.172,2.172,0,0,1,6.253-7.007a2.185,2.185,0,0,1-2.262,2.2A2.185,2.185,0,0,1,1.729-7.007Zm5.187,0A2.75,2.75,0,0,0,3.991-9.789,2.75,2.75,0,0,0,1.066-7.007,2.763,2.763,0,0,0,3.991-4.2,2.763,2.763,0,0,0,6.916-7.007ZM3.562.039V-3H2.873V.624h7.644V.039ZM19.149-4.784A4.2,4.2,0,0,1,16.237-8.4v-.767h2.7V-9.75H12.805v.585h2.756v.78A4.475,4.475,0,0,1,12.545-4.5l.364.546a5.112,5.112,0,0,0,3-3.107A5.053,5.053,0,0,0,18.8-4.238Zm-4.927,2.34h6.929V.9h.689V-3.029H14.222Zm6.929-8.19v3.159h-2.6v.585h2.6v3.172h.689v-6.916ZM26.13-6.955H32.6v2.431H26.13Zm3.562,5.733V-3.939H33.28V-9.776H32.6V-7.54H26.13V-9.776h-.689v5.837H29v2.717H24.128v.585H34.619v-.585ZM36.8-6.994a2.178,2.178,0,0,1,2.275-2.184,2.172,2.172,0,0,1,2.249,2.184A2.172,2.172,0,0,1,39.078-4.81,2.178,2.178,0,0,1,36.8-6.994Zm5.2,0a2.76,2.76,0,0,0-2.925-2.8,2.757,2.757,0,0,0-2.938,2.8A2.764,2.764,0,0,0,39.078-4.2,2.768,2.768,0,0,0,42-6.994ZM38.376-2.951h-.689V.624h7.618V.039H38.376ZM44.733-7.02v-3.627h-.689V-2.08h.689V-6.422H46.54v-.6Z" transform="translate(216.674 -181.477)"/>
    <path id="패스_923" data-name="패스 923" class="cls-3" d="M9.126-7.358H2.8V-9.672H9.126ZM9.8-10.231H2.132v3.445H9.8Zm1.365,5.213V-5.59H.728v.572H5.6v1.365H2.041v.559H9.113v1.287H2.067V.741h8.1V.169H2.743V-1.274H9.789V-3.653h-3.5V-5.018Zm2.652,2.5V-5.6h4.55V-9.516H13.091v.6h4.6v2.73H13.13v4.251h.923a35.492,35.492,0,0,0,5.889-.429l-.065-.585a36.28,36.28,0,0,1-5.824.429Zm7.306-8.112V.923h.689V-10.634Zm9.724,5.85A4.2,4.2,0,0,1,27.937-8.4v-.767h2.7V-9.75H24.5v.585h2.756v.78A4.475,4.475,0,0,1,24.245-4.5l.364.546a5.112,5.112,0,0,0,3-3.107A5.053,5.053,0,0,0,30.5-4.238Zm-4.927,2.34h6.929V.9h.689V-3.029H25.922Zm6.929-8.19v3.159h-2.6v.585h2.6v3.172h.689v-6.916Zm7.605,3.679H46.93v2.431H40.456Zm3.562,5.733V-3.939h3.588V-9.776H46.93V-7.54H40.456V-9.776h-.689v5.837h3.562v2.717H38.454v.585H48.945v-.585Zm7.111-5.772A2.178,2.178,0,0,1,53.4-9.178a2.172,2.172,0,0,1,2.249,2.184A2.172,2.172,0,0,1,53.4-4.81,2.178,2.178,0,0,1,51.129-6.994Zm5.2,0a2.76,2.76,0,0,0-2.925-2.8,2.757,2.757,0,0,0-2.938,2.8A2.764,2.764,0,0,0,53.4-4.2,2.768,2.768,0,0,0,56.329-6.994ZM52.7-2.951h-.689V.624h7.618V.039H52.7ZM59.059-7.02v-3.627H58.37V-2.08h.689V-6.422h1.807v-.6Z" transform="translate(130.913 -124.173)"/>
    <path id="패스_925" data-name="패스 925" class="cls-3" d="M4.589-9.568H3.913v2.3A6.4,6.4,0,0,1,.728-2.132l.429.559A7.011,7.011,0,0,0,4.264-5.629,6.868,6.868,0,0,0,7.371-1.755L7.8-2.314A6.076,6.076,0,0,1,4.589-7.267Zm4.823-1.066V.923H10.1V-10.634Zm12.87,5.993c-1.638-.325-4.3-2.067-4.3-4.2v-.923h-.715v.923c0,2.145-2.626,3.861-4.277,4.2l.325.585A6.677,6.677,0,0,0,17.628-7.54a6.691,6.691,0,0,0,4.329,3.484ZM12.428-1.326v.585H22.906v-.585Zm18.5-2.457H31.6v-6.656h-.676V-7.67H29.146V-7.1h1.781ZM29.666-5.434a18.109,18.109,0,0,1-4.251.338h-.026V-6.981H28.6V-7.54H25.389V-9.269h3.692v-.585H24.713v5.343h.7a18.222,18.222,0,0,0,4.342-.351ZM27.04-2.47h6.1V.143h-6.1Zm-.676,3.2H33.8v-3.77H26.364Zm6.773-11.375V-3.64H33.8v-7.007ZM38.909-9.1v.585h3.783a7.418,7.418,0,0,1-4.147,6.37l.416.507A8.081,8.081,0,0,0,43.368-9.1Zm8.619-1.534v4.81H45.617v-4.5h-.663V.286h.663V-5.239h1.911V.91h.663V-10.634Zm7.748,4.9H51.415V-7.787h3.861Zm.676-4.459h-.676v1.833H51.415v-1.833h-.689v5.031h5.226ZM52.6-1.4h6.461V-3.991H51.9v.559h6.487v1.469H51.922v2.7h7.605V.169H52.6Zm6.461-6.6v-2.639H58.37v6.032h.689v-2.8h1.794v-.6Zm4.8,1.053H70.33v2.431H63.856Zm3.562,5.733V-3.939h3.588V-9.776H70.33V-7.54H63.856V-9.776h-.689v5.837h3.562v2.717H61.854v.585H72.345v-.585Zm7.111-5.772A2.178,2.178,0,0,1,76.8-9.178a2.172,2.172,0,0,1,2.249,2.184A2.172,2.172,0,0,1,76.8-4.81,2.178,2.178,0,0,1,74.529-6.994Zm5.2,0a2.76,2.76,0,0,0-2.925-2.8,2.757,2.757,0,0,0-2.938,2.8A2.764,2.764,0,0,0,76.8-4.2,2.768,2.768,0,0,0,79.729-6.994ZM76.1-2.951h-.689V.624h7.618V.039H76.1ZM82.459-7.02v-3.627H81.77V-2.08h.689V-6.422h1.807v-.6Z" transform="translate(41.239 -64.152)"/>
    <path id="패스_930" data-name="패스 930" class="cls-3" d="M1.7-7.241A2.121,2.121,0,0,1,3.965-9.347,2.114,2.114,0,0,1,6.227-7.241,2.1,2.1,0,0,1,3.965-5.174,2.107,2.107,0,0,1,1.7-7.241Zm5.2,0A2.7,2.7,0,0,0,3.965-9.932,2.688,2.688,0,0,0,1.04-7.241,2.676,2.676,0,0,0,3.965-4.576,2.687,2.687,0,0,0,6.9-7.241ZM3.2-2.743H8.944V.143H3.2ZM2.522.728H9.633V-3.315H2.522ZM11.44-7.657H9.633v-2.99H8.944v6.734h.689V-7.059H11.44ZM22.269-8.788H18.005v-1.625h-.689v1.625H13V-8.2h9.269ZM14.651-5.109c0-.975,1.183-1.586,3-1.586s3,.611,3,1.586-1.183,1.612-3,1.612S14.651-4.121,14.651-5.109Zm3.354,3.965V-2.951c2.067-.078,3.341-.858,3.341-2.158,0-1.365-1.417-2.158-3.692-2.158s-3.692.793-3.692,2.158c0,1.3,1.274,2.08,3.354,2.171v1.794H12.441v.585H22.906v-.585ZM29.354.325c-2.015,0-3.237-.455-3.237-1.274,0-.793,1.222-1.274,3.237-1.274s3.237.481,3.237,1.274C32.591-.13,31.369.325,29.354.325Zm0-3.081c-2.509,0-3.926.624-3.926,1.807S26.845.871,29.354.871,33.28.247,33.28-.949,31.863-2.756,29.354-2.756Zm.338-1.664v-1.4H33.28v-.559H26.247v-1.43H32.9v-.559H26.247V-9.724h6.981v-.559h-7.67v4.459H29v1.4H24.141v.585H34.567V-4.42Zm9.36-4.173h2.3v-.585H36v.585h2.392v1.339a6.228,6.228,0,0,1-2.652,5.239l.455.52a6.33,6.33,0,0,0,2.535-3.926A5.968,5.968,0,0,0,41.2-1.768l.442-.52a5.876,5.876,0,0,1-2.587-4.966Zm3.536,2.21H40.443v.6h2.145V.273h.663v-10.6h-.663ZM44.9-10.634V.91h.676V-10.634Z" transform="translate(216.934 -64.152)"/>
    <path id="패스_926" data-name="패스 926" class="cls-3" d="M7.436-5.044a4.241,4.241,0,0,1-2.9-3.627v-.6h2.7v-.585H1.105v.585H3.861v.611a4.492,4.492,0,0,1-3.016,3.9l.364.546a5.133,5.133,0,0,0,3-3.12A5.036,5.036,0,0,0,7.1-4.5ZM9.451.143H3.6v-1.7h5.85Zm0-2.275H3.6V-3.783H2.912V.728h7.215V-3.783H9.451Zm-.013-8.515v2.925H6.851v.585H9.438v2.756h.689v-6.266Zm5.1,7.5h-.689V.611h8V.026H14.534Zm6.63-2.067A18.789,18.789,0,0,0,21.489-9.1v-.832h-7.7v.585h7.02V-9.1a17.432,17.432,0,0,1-.351,3.887H12.428v.585H22.906v-.585ZM29.354.325c-2.015,0-3.237-.455-3.237-1.274,0-.793,1.222-1.274,3.237-1.274s3.237.481,3.237,1.274C32.591-.13,31.369.325,29.354.325Zm0-3.081c-2.509,0-3.926.624-3.926,1.807S26.845.871,29.354.871,33.28.247,33.28-.949,31.863-2.756,29.354-2.756Zm.338-1.664v-1.4H33.28v-.559H26.247v-1.43H32.9v-.559H26.247V-9.724h6.981v-.559h-7.67v4.459H29v1.4H24.141v.585H34.567V-4.42Zm9.36-4.173h2.3v-.585H36v.585h2.392v1.339a6.228,6.228,0,0,1-2.652,5.239l.455.52a6.33,6.33,0,0,0,2.535-3.926A5.968,5.968,0,0,0,41.2-1.768l.442-.52a5.876,5.876,0,0,1-2.587-4.966Zm3.536,2.21H40.443v.6h2.145V.273h.663v-10.6h-.663ZM44.9-10.634V.91h.676V-10.634Z" transform="translate(60.479 -39.153)"/>
    <path id="패스_929" data-name="패스 929" class="cls-3" d="M5.941-9.724c1.95,0,3.276.676,3.276,1.69s-1.326,1.69-3.276,1.69c-1.924,0-3.25-.676-3.25-1.69S4.017-9.724,5.941-9.724Zm0,3.965c2.431,0,3.991-.871,3.991-2.275S8.372-10.3,5.941-10.3c-2.4,0-3.965.858-3.965,2.262S3.536-5.759,5.941-5.759ZM2.808-2.691H2.132V.624h7.917v-.6H2.808ZM.715-4.628v.585H5.707v2.561H6.4V-4.043h4.81v-.585ZM13.3-7.241a2.134,2.134,0,0,1,2.262-2.093,2.134,2.134,0,0,1,2.262,2.093,2.129,2.129,0,0,1-2.262,2.106A2.129,2.129,0,0,1,13.3-7.241Zm7.852-1.066v2.145H18.278a2.9,2.9,0,0,0,.208-1.079,2.883,2.883,0,0,0-.208-1.066Zm0,2.73V-3.77h.689v-6.877h-.689v1.768H17.927a2.964,2.964,0,0,0-2.366-1.04,2.708,2.708,0,0,0-2.925,2.678,2.722,2.722,0,0,0,2.925,2.717,2.973,2.973,0,0,0,2.366-1.053ZM18.1.312C16.224.312,15-.312,15-1.3S16.224-2.912,18.1-2.912c1.9,0,3.12.637,3.12,1.612S19.994.312,18.1.312Zm0-3.783c-2.34,0-3.77.793-3.77,2.171S15.756.871,18.1.871s3.8-.793,3.8-2.171S20.449-3.471,18.1-3.471ZM26.13-6.955H32.6v2.431H26.13Zm3.562,5.733V-3.939H33.28V-9.776H32.6V-7.54H26.13V-9.776h-.689v5.837H29v2.717H24.128v.585H34.619v-.585ZM36.8-6.994a2.178,2.178,0,0,1,2.275-2.184,2.172,2.172,0,0,1,2.249,2.184A2.172,2.172,0,0,1,39.078-4.81,2.178,2.178,0,0,1,36.8-6.994Zm5.2,0a2.76,2.76,0,0,0-2.925-2.8,2.757,2.757,0,0,0-2.938,2.8A2.764,2.764,0,0,0,39.078-4.2,2.768,2.768,0,0,0,42-6.994ZM38.376-2.951h-.689V.624h7.618V.039H38.376ZM44.733-7.02v-3.627h-.689V-2.08h.689V-6.422H46.54v-.6Z" transform="translate(216.934 -39.153)"/>
  </g>
  <g id="그룹_428" data-name="그룹 428" class="cls-6" transform="translate(0 260.307)">
    <g id="그룹-2" data-name="그룹">
      <path id="패스_927" data-name="패스 927" class="cls-3" d="M7.813-4.836C6.188-5.343,4.745-6.669,4.745-8.281v-.3H7.514v-.572H4.745v-1.56H4.056v1.56h-2.8v.572h2.8v.3A4.27,4.27,0,0,1,1.027-4.563l.351.533A4.99,4.99,0,0,0,4.42-6.981,4.9,4.9,0,0,0,7.475-4.29Zm-4.342,2.3h5.98V.143H3.471ZM2.8.728h7.332V-3.107H2.8ZM9.438-10.621v6.864h.689v-6.864ZM15.327-2.47a1.857,1.857,0,0,1-1.82-1.976,1.864,1.864,0,0,1,1.82-1.976A1.866,1.866,0,0,1,17.16-4.446,1.859,1.859,0,0,1,15.327-2.47Zm0-4.537a2.416,2.416,0,0,0-2.444,2.561,2.419,2.419,0,0,0,2.444,2.574,2.415,2.415,0,0,0,2.457-2.574A2.411,2.411,0,0,0,15.327-7.007Zm.351-3.276h-.689v1.768H12.415v.585h5.85v-.585H15.678Zm5.772-.351v4.966H19.617v-4.68h-.676V.3h.676V-5.083H21.45V.91h.676V-10.634Zm6.318,1.053H27.1v2.314a6.388,6.388,0,0,1-3.081,5.1l.429.559a7.085,7.085,0,0,0,3-4.069,6.705,6.705,0,0,0,2.99,3.822l.429-.533a6.134,6.134,0,0,1-3.107-4.875Zm7.176,3.757H32.916v-4.823h-.689V.91h.689V-5.239h2.028ZM44.187-8.2a24.7,24.7,0,0,1-.416,5.122l.7.1a26.9,26.9,0,0,0,.4-5.226V-9.36h-7.9v.572h7.215Zm-3.393,6.76V-5.668h-.676v4.225H35.841v.585H46.28v-.585Zm15.353-4.29a15.707,15.707,0,0,0,.325-3.432V-9.7H50.856v.572H55.8A14.288,14.288,0,0,1,55.458-5.8Zm1.313.819a39.346,39.346,0,0,1-3.991.325V-7.2H52.78v2.639c-.949.026-1.846.026-2.639.026l.091.611a50.149,50.149,0,0,0,7.28-.455ZM52.65-2.73h-.689V.624h7.423V.039H52.65Zm6.357-4.017v-3.887h-.689v8.723h.689V-6.149h1.82v-.6Zm4.238,4.225V-5.6h4.55V-9.516H62.517v.6h4.6v2.73H62.556v4.251h.923a35.492,35.492,0,0,0,5.889-.429L69.3-2.951a36.28,36.28,0,0,1-5.824.429Zm7.306-8.112V.923h.689V-10.634Z" transform="translate(47.095 -14.637)"/>
      <path id="패스_928" data-name="패스 928" class="cls-3" d="M1.378,0h.78V-9.477h-.78ZM6.669,0h.793V-8.814h2.99v-.663H3.692v.663H6.669ZM17.212-8.58h2.34v-.585H14.118v.585h2.444v1.248A5.725,5.725,0,0,1,13.9-2.119l.455.533a5.647,5.647,0,0,0,2.561-3.8A5.319,5.319,0,0,0,19.37-1.976l.429-.546a5.272,5.272,0,0,1-2.587-4.81Zm5.837-2.054V-5.85H21.177v-4.5h-.663V.286h.663V-5.239h1.872V.91h.676V-10.634ZM28.561-2.47a1.857,1.857,0,0,1-1.82-1.976,1.864,1.864,0,0,1,1.82-1.976,1.866,1.866,0,0,1,1.833,1.976A1.859,1.859,0,0,1,28.561-2.47Zm0-4.537a2.416,2.416,0,0,0-2.444,2.561,2.419,2.419,0,0,0,2.444,2.574,2.415,2.415,0,0,0,2.457-2.574A2.411,2.411,0,0,0,28.561-7.007Zm.351-3.276h-.689v1.768H25.649v.585H31.5v-.585H28.912Zm5.772-.351v4.966H32.851v-4.68h-.676V.3h.676V-5.083h1.833V.91h.676V-10.634Zm3.848,8.593h7.28V.91H46.5V-2.613H38.532Zm.936-6.292h6.266v1.6H39.468Zm3.471,3.8V-6.149h3.484v-4.238h-.689v1.495H39.468v-1.495h-.689v4.238H42.25v1.612H37.362v.585H47.8v-.585ZM59.5-4.862H57.694a18.536,18.536,0,0,0,.338-3.991v-.988H50.44v.572h6.916v.416a16.615,16.615,0,0,1-.377,3.991H49.062v.585h4.875v5.2h.689v-5.2H59.5Z" transform="translate(209.945 -14.637)"/>
    </g>
  </g>
  <g id="그룹_429" data-name="그룹 429" transform="translate(13.061 61.45)">
    <path id="패스_629" data-name="패스 629" class="cls-7" d="M0,0H142.922"/>
  </g>
  <g id="그룹_430" data-name="그룹 430" transform="translate(11.564 61.45)">
    <path id="패스_630" data-name="패스 630" class="cls-8" d="M0,0H0M145.167,0h0"/>
  </g>
  <g id="그룹_431" data-name="그룹 431" transform="translate(13.061 202.95)">
    <path id="패스_631" data-name="패스 631" class="cls-7" d="M0,0H142.922"/>
  </g>
  <g id="그룹_432" data-name="그룹 432" transform="translate(11.564 202.95)">
    <path id="패스_632" data-name="패스 632" class="cls-8" d="M0,0H0M145.167,0h0"/>
  </g>
  <g id="그룹_433" data-name="그룹 433" transform="translate(13.061 227.95)">
    <path id="패스_633" data-name="패스 633" class="cls-7" d="M0,0H142.922"/>
  </g>
  <g id="그룹_434" data-name="그룹 434" transform="translate(11.564 227.95)">
    <path id="패스_634" data-name="패스 634" class="cls-8" d="M0,0H0M145.167,0h0"/>
  </g>
  <g id="그룹_435" data-name="그룹 435" transform="translate(169.001 61.45)">
    <path id="패스_635" data-name="패스 635" class="cls-7" d="M0,0H142.922"/>
  </g>
  <g id="그룹_436" data-name="그룹 436" transform="translate(167.505 61.45)">
    <path id="패스_636" data-name="패스 636" class="cls-8" d="M0,0H0M145.167,0h0"/>
  </g>
  <g id="그룹_437" data-name="그룹 437" transform="translate(169.001 202.95)">
    <path id="패스_637" data-name="패스 637" class="cls-7" d="M0,0H142.922"/>
  </g>
  <g id="그룹_438" data-name="그룹 438" transform="translate(167.505 202.95)">
    <path id="패스_638" data-name="패스 638" class="cls-8" d="M0,0H0M145.167,0h0"/>
  </g>
  <g id="그룹_439" data-name="그룹 439" transform="translate(169.001 227.95)">
    <path id="패스_639" data-name="패스 639" class="cls-7" d="M0,0H142.922"/>
  </g>
  <g id="그룹_440" data-name="그룹 440" transform="translate(167.505 227.95)">
    <path id="패스_640" data-name="패스 640" class="cls-8" d="M0,0H0M145.167,0h0"/>
  </g>
  <g id="그룹_441" data-name="그룹 441" transform="translate(161.587 38.406)">
    <path id="패스_641" data-name="패스 641" class="cls-9" d="M0,0V44.713"/>
  </g>
  <g id="그룹_442" data-name="그룹 442" transform="translate(161.587 36.89)">
    <path id="패스_642" data-name="패스 642" class="cls-8" d="M0,0H0M0,46.987H0"/>
  </g>
  <g id="그룹_443" data-name="그룹 443" transform="translate(161.587 185.486)">
    <path id="패스_643" data-name="패스 643" class="cls-10" d="M0,0V65.709"/>
  </g>
  <g id="그룹_444" data-name="그룹 444" transform="translate(161.587 183.975)">
    <path id="패스_644" data-name="패스 644" class="cls-8" d="M0,0H0M0,67.975H0"/>
  </g>
</svg>
