<svg xmlns="http://www.w3.org/2000/svg" width="836.377" height="202.25" viewBox="0 0 836.377 202.25">
  <defs>
    <style>
      .cls-1 {
        fill: #1f4a8c;
      }

      .cls-10, .cls-11, .cls-12, .cls-13, .cls-15, .cls-18, .cls-2, .cls-3, .cls-4, .cls-5, .cls-6, .cls-7, .cls-8, .cls-9 {
        fill: none;
      }

      .cls-2, .cls-3, .cls-4 {
        stroke: #4d4d4d;
      }

      .cls-11, .cls-12, .cls-13, .cls-2, .cls-3, .cls-5, .cls-6, .cls-8, .cls-9 {
        stroke-linecap: round;
        stroke-linejoin: round;
      }

      .cls-10, .cls-11, .cls-12, .cls-13, .cls-2, .cls-3, .cls-4, .cls-5, .cls-6, .cls-7, .cls-8, .cls-9 {
        stroke-width: 0.7px;
      }

      .cls-2, .cls-5, .cls-8 {
        stroke-dasharray: 0 2.142;
      }

      .cls-11, .cls-12, .cls-13, .cls-5, .cls-6, .cls-7 {
        stroke: #6280ae;
      }

      .cls-10, .cls-8, .cls-9 {
        stroke: #6e779d;
      }

      .cls-11 {
        stroke-dasharray: 0 2.092;
      }

      .cls-12 {
        stroke-dasharray: 0 2.115;
      }

      .cls-13 {
        stroke-dasharray: 0 2.098;
      }

      .cls-14 {
        fill: #fff;
      }

      .cls-15 {
        stroke: #1f4a8c;
      }

      .cls-15, .cls-18 {
        stroke-width: 0.5px;
      }

      .cls-16 {
        fill: #1e2323;
      }

      .cls-17 {
        fill: #29669e;
      }

      .cls-18 {
        stroke: #313d72;
      }

      .cls-19 {
        fill: #1394d1;
      }
    </style>
  </defs>
  <g id="구성_요소_31_1" data-name="구성 요소 31 – 1" transform="translate(0.25)">
    <rect id="사각형_14" data-name="사각형 14" class="cls-1" width="253.53" height="36.75" transform="translate(582.597)"/>
    <rect id="사각형_15" data-name="사각형 15" class="cls-1" width="544.176" height="36.75" transform="translate(6)"/>
    <line id="선_113" data-name="선 113" class="cls-2" y2="13.92" transform="translate(129.452 94.392)"/>
    <path id="패스_49" data-name="패스 49" class="cls-3" d="M5468.2,5959.067h0m0-17.133h0" transform="translate(-5338.75 -5849.684)"/>
    <path id="패스_50" data-name="패스 50" class="cls-4" d="M5471.625,5955.385l-3.424,3.682-3.423-3.682" transform="translate(-5338.75 -5849.684)"/>
    <line id="선_114" data-name="선 114" class="cls-5" y2="13.92" transform="translate(417.75 94.392)"/>
    <path id="패스_51" data-name="패스 51" class="cls-6" d="M5756.5,5959.067h0m0-17.133h0" transform="translate(-5338.75 -5849.684)"/>
    <path id="패스_52" data-name="패스 52" class="cls-7" d="M5759.924,5955.385l-3.424,3.682-3.423-3.682" transform="translate(-5338.75 -5849.684)"/>
    <line id="선_115" data-name="선 115" class="cls-5" y2="13.92" transform="translate(706.048 94.392)"/>
    <path id="패스_53" data-name="패스 53" class="cls-6" d="M6044.8,5959.067h0m0-17.133h0" transform="translate(-5338.75 -5849.684)"/>
    <path id="패스_54" data-name="패스 54" class="cls-7" d="M6048.222,5955.385l-3.424,3.682-3.423-3.682" transform="translate(-5338.75 -5849.684)"/>
    <line id="선_116" data-name="선 116" class="cls-8" y2="13.92" transform="translate(706.048 149.742)"/>
    <path id="패스_55" data-name="패스 55" class="cls-9" d="M6044.8,6014.416h0m0-17.133h0" transform="translate(-5338.75 -5849.684)"/>
    <path id="패스_56" data-name="패스 56" class="cls-10" d="M6048.222,6010.734l-3.424,3.682-3.423-3.682" transform="translate(-5338.75 -5849.684)"/>
    <line id="선_117" data-name="선 117" class="cls-2" y2="13.92" transform="translate(129.452 149.742)"/>
    <path id="패스_57" data-name="패스 57" class="cls-3" d="M5468.2,6014.416h0m0-17.133h0" transform="translate(-5338.75 -5849.684)"/>
    <path id="패스_58" data-name="패스 58" class="cls-4" d="M5471.625,6010.734l-3.424,3.682-3.423-3.682" transform="translate(-5338.75 -5849.684)"/>
    <line id="선_118" data-name="선 118" class="cls-11" x2="11.51" transform="translate(261.191 184.75)"/>
    <line id="선_119" data-name="선 119" class="cls-12" y1="106.827" transform="translate(273.746 75.808)"/>
    <line id="선_120" data-name="선 120" class="cls-13" x2="7.344" transform="translate(275.844 74.75)"/>
    <path id="패스_59" data-name="패스 59" class="cls-6" d="M5622.987,5924.434h0m-10.491,0h0m0,110h0m-14.646,0h0" transform="translate(-5338.75 -5849.684)"/>
    <path id="패스_60" data-name="패스 60" class="cls-7" d="M5619.3,5921.01l3.684,3.424-3.684,3.423" transform="translate(-5338.75 -5849.684)"/>
    <rect id="사각형_16" data-name="사각형 16" class="cls-14" width="544.176" height="33.5" transform="translate(0 0.25)"/>
    <rect id="사각형_17" data-name="사각형 17" class="cls-15" width="544.176" height="33.5" transform="translate(0 0.25)"/>
    <path id="패스_935" data-name="패스 935" class="cls-16" d="M1.3-10.605V-9.6H5.34A8.148,8.148,0,0,1,.8-2.655l.72.885a9.41,9.41,0,0,0,5.04-8.835Zm9.72-1.74V-6.93H9.195v-5.055H8.04V.435H9.195v-6.36h1.83V1.11H12.21V-12.345Zm14.31.015H24.1V-2.5h1.23ZM15.81-8.1a2.2,2.2,0,0,1,2.3-2.235A2.208,2.208,0,0,1,20.43-8.1,2.214,2.214,0,0,1,18.1-5.835,2.206,2.206,0,0,1,15.81-8.1Zm5.82,0A3.311,3.311,0,0,0,18.1-11.4,3.294,3.294,0,0,0,14.61-8.1,3.309,3.309,0,0,0,18.1-4.77,3.325,3.325,0,0,0,21.63-8.1ZM17.91-.2V-3.51H16.68V.81h9.06V-.2ZM34.98-8.85v1h2.655V-4.32H38.88v-8.01H37.635v3.48Zm.75,3.06A4.632,4.632,0,0,1,32.46-9.9v-.465h2.955v-.99H28.23v.99h3V-9.9a4.96,4.96,0,0,1-3.39,4.485l.645.975a5.823,5.823,0,0,0,3.39-3.42,5.527,5.527,0,0,0,3.24,3.03ZM34.44.15c-2.025,0-3.255-.57-3.255-1.545s1.23-1.56,3.255-1.56,3.255.585,3.255,1.56S36.465.15,34.44.15Zm0-4.05c-2.76,0-4.485.915-4.485,2.5s1.725,2.5,4.485,2.5,4.47-.915,4.47-2.5S37.2-3.9,34.44-3.9Zm9.51-4.08h6.87v2.475H43.95ZM48-1.62V-4.515h4.02v-6.87h-1.2v2.4H43.95v-2.4H42.735v6.87h4.02V-1.62h-5.46v1H53.49v-1ZM67.635-12.345V1.14h1.23V-12.345ZM61.77-11.31c-1.995,0-3.42,1.83-3.42,4.7s1.425,4.7,3.42,4.7,3.42-1.83,3.42-4.7S63.765-11.31,61.77-11.31Zm0,1.11c1.305,0,2.235,1.41,2.235,3.585,0,2.19-.93,3.6-2.235,3.6s-2.25-1.41-2.25-3.6C59.52-8.79,60.45-10.2,61.77-10.2ZM79.125-6.015A4.568,4.568,0,0,1,75.87-10.17v-1.485H74.64v1.38a4.923,4.923,0,0,1-3.345,4.62l.645.975a5.623,5.623,0,0,0,3.33-3.4,5.647,5.647,0,0,0,3.21,3.03ZM77.52.135c-2,0-3.21-.555-3.21-1.485,0-.945,1.215-1.5,3.21-1.5s3.195.555,3.195,1.5C80.715-.42,79.5.135,77.52.135Zm0-3.945c-2.745,0-4.44.885-4.44,2.46S74.775,1.1,77.52,1.1,81.945.21,81.945-1.35,80.25-3.81,77.52-3.81Zm4.275-5.055V-12.33h-1.23v8.145h1.23v-3.66h2v-1.02Zm14.1-3.465h-1.23v8.115h1.23Zm-2.82,6.51A4.547,4.547,0,0,1,89.7-9.9v-.39h3.045V-11.3h-7.38v1.005H88.44v.39a4.82,4.82,0,0,1-3.39,4.425l.645.975a5.792,5.792,0,0,0,3.4-3.36,5.66,5.66,0,0,0,3.375,3.015ZM91.425.2c-2.04,0-3.3-.57-3.3-1.56,0-1.005,1.26-1.56,3.3-1.56s3.285.555,3.285,1.56C94.71-.375,93.465.2,91.425.2Zm0-4.095c-2.79,0-4.515.93-4.515,2.535s1.725,2.52,4.515,2.52S95.94.24,95.94-1.365,94.215-3.9,91.425-3.9ZM109.8-10.8h-4.74v-1.62h-1.245v1.62h-4.83v.99H109.8ZM107.52-6.8c0,.825-1.11,1.305-3.075,1.305S101.34-5.97,101.34-6.8,102.48-8.1,104.445-8.1,107.52-7.62,107.52-6.8Zm-7.455,0c0,1.44,1.635,2.235,4.38,2.235,2.715,0,4.35-.8,4.35-2.235s-1.635-2.25-4.35-2.25C101.7-9.045,100.065-8.235,100.065-6.8Zm10.485,3.18H98.355V-2.61h5.46V1.125h1.245V-2.61h5.49Zm12-2.835a31.442,31.442,0,0,1-5.79.375V-7.86h4.68v-.975h-4.68v-1.68h4.92v-.99h-6.15v6.42h1.02a32.115,32.115,0,0,0,6.135-.39Zm-4.44,3.705h6.03V-.06h-6.03ZM116.91.93h8.445V-3.72H116.91ZM127.35-9h-2v-3.33h-1.23v7.905h1.23V-7.98h2Zm5.865-.945h3.165v-1.02h-7.515v1.02h3.12v1.71a6.882,6.882,0,0,1-3.57,5.775l.72.99A7.545,7.545,0,0,0,132.6-5.91a7.108,7.108,0,0,0,3.525,4.11l.69-.99a6.265,6.265,0,0,1-3.6-5.445Zm4.98-2.385V1.11h1.23V-12.33Zm8.49,1.155H145.47V-8.76a7.069,7.069,0,0,1-3.615,6.075l.75,1.005a7.477,7.477,0,0,0,3.48-4.515,7.307,7.307,0,0,0,3.465,4.26l.735-.99a6.692,6.692,0,0,1-3.6-5.835Zm5.01-1.17V1.14h1.23V-12.345ZM167.01-5.58c-2.355-.45-4.9-2.49-4.9-4.785V-11.4h-1.29v1.035c0,2.3-2.535,4.32-4.89,4.785l.555,1.02a7.388,7.388,0,0,0,4.98-3.885,7.3,7.3,0,0,0,5,3.885Zm-11.6,3.87V-.69h12.2V-1.71ZM176.49-4.38h1.17v-7.74h-1.17v3.165h-1.785v.99h1.785ZM175.23-6.4a20.99,20.99,0,0,1-4.515.36V-7.86h3.375v-.96h-3.375v-1.665h3.9v-.99H169.53v6.42h.855a23.755,23.755,0,0,0,4.95-.36Zm-2.6,3.78h6.435V-.06h-6.435ZM171.435.93h8.835V-3.6h-8.835Zm7.65-13.275v8.1h1.185v-8.1Zm7.185,1.455v.99h5.055c-.255,3.2-2.055,5.775-5.67,7.5l.66,1c4.47-2.19,6.255-5.61,6.255-9.5Zm9.015-1.455V1.11h1.23V-12.345Zm9.27,6.645h-3.81V-8.16h3.81Zm1.2-5.67h-1.2v2.25h-3.81v-2.25H199.53v6.66h6.225ZM202.275-3.4h-1.23V.81h8.97V-.2h-7.74Zm7.14-4.86V-12.33h-1.23v9.87h1.23V-7.23h1.995V-8.265Zm10.53-2.43c1.3,0,2.235.7,2.235,1.755s-.93,1.755-2.235,1.755c-1.32,0-2.25-.705-2.25-1.755S218.625-10.695,219.945-10.695Zm0,4.515c1.995,0,3.42-1.125,3.42-2.76s-1.425-2.775-3.42-2.775S216.51-10.59,216.51-8.94,217.935-6.18,219.945-6.18Zm4.425.66a61.8,61.8,0,0,1-8.865.48L215.67-4c1.11,0,2.385-.015,3.72-.075V.69h1.23V-4.155a33.729,33.729,0,0,0,3.855-.45Zm.975-6.81V1.125h1.23V-12.33Zm11.505,1.4h-3.285V-12.48h-1.23v1.545H229.05v.99h7.8ZM231-6.855c0-.87.81-1.47,1.95-1.47s1.95.6,1.95,1.47-.81,1.47-1.95,1.47S231-5.985,231-6.855Zm5.055,0c0-1.44-1.29-2.4-3.1-2.4-1.83,0-3.12.96-3.12,2.4s1.29,2.385,3.12,2.385C234.765-4.47,236.055-5.415,236.055-6.855Zm-3.48,4.35h6.345V-.06h-6.345ZM231.375.93h8.745V-3.48h-8.745Zm7.5-13.26v4.08H236.64v1h2.235V-4.2h1.245v-8.13Zm17.76,0H255.4v9.84h1.23Zm-2.82,6.945a4.581,4.581,0,0,1-3.375-4.11v-.735h3.045v-.99H246.1v.99h3.075v.735a4.79,4.79,0,0,1-3.4,4.38l.645.96a5.641,5.641,0,0,0,3.4-3.315,5.715,5.715,0,0,0,3.39,3.06ZM249.21-.2V-3.42h-1.23V.81h9.06V-.2ZM266.895-6.45a28.443,28.443,0,0,1-5.94.45v-4.185h4.725v-.99h-5.955v6.18h1.05a29.1,29.1,0,0,0,6.255-.465ZM262.41-3.585h-1.23V.81h8.97V-.2h-7.74Zm7.14-4.77v-3.99h-1.23V-2.61h1.23V-7.335h2v-1.02Z" transform="translate(133.938 23.6)"/>
    <rect id="사각형_18" data-name="사각형 18" class="cls-14" width="253.53" height="33.5" transform="translate(576.597 0.25)"/>
    <rect id="사각형_19" data-name="사각형 19" class="cls-15" width="253.53" height="33.5" transform="translate(576.597 0.25)"/>
    <path id="패스_941" data-name="패스 941" class="cls-16" d="M11.82-12.33H10.59v6.96h1.23ZM8.94-6.72a4.652,4.652,0,0,1-3.405-4.2v-1.02H4.3v1.02A4.886,4.886,0,0,1,.885-6.465l.63.96A5.712,5.712,0,0,0,4.935-8.85a5.716,5.716,0,0,0,3.39,3.09ZM4.365-.015v-1.44h7.47v-3.24H3.12v.975h7.5v1.335H3.15V.96h9.135V-.015ZM18.81-11.175H17.6V-8.76A7.129,7.129,0,0,1,14.13-2.745l.735.99A7.452,7.452,0,0,0,18.21-6.21a7.421,7.421,0,0,0,3.255,4.185L22.23-3a6.794,6.794,0,0,1-3.42-5.76Zm8.055,4.29h-2.22V-12.33h-1.23V1.11h1.23V-5.865h2.22Z" transform="translate(691.237 23.128)"/>
    <rect id="사각형_20" data-name="사각형 20" class="cls-1" width="258.903" height="34.5" transform="translate(0 57.5)"/>
    <path id="패스_936" data-name="패스 936" class="cls-14" d="M2.5-9.7h3.84v-.99H1.29V-2.13h.87a21.962,21.962,0,0,0,4.98-.39L7.02-3.525A20.987,20.987,0,0,1,2.5-3.15ZM8.34-7.215H5.445v1.02H8.34V.435H9.495v-12.45H8.34Zm2.7-5.13V1.11h1.17V-12.345Zm13.035,0V1.14h1.23V-12.345ZM18.21-11.31c-1.995,0-3.42,1.83-3.42,4.7s1.425,4.7,3.42,4.7,3.42-1.83,3.42-4.7S20.2-11.31,18.21-11.31Zm0,1.11c1.305,0,2.235,1.41,2.235,3.585,0,2.19-.93,3.6-2.235,3.6s-2.25-1.41-2.25-3.6C15.96-8.79,16.89-10.2,18.21-10.2ZM29.64-6.345h4.41v-.99H29.64V-10.11h5v-1.02H28.41v9.015h1.035a32.71,32.71,0,0,0,6.15-.42l-.135-1a30.387,30.387,0,0,1-5.82.42Zm8.01-6.015v5.085H34.875v1.02H37.65v7.38h1.23V-12.36ZM53.715-7.515h-6.54v-1.74h6.54Zm1.215-4.4H53.715v1.71h-6.54v-1.71H45.96v5.37h8.97ZM47.1-2.85H45.885V.81h9.3V-.2H47.1ZM44.325-5.235v.99h5.6v2.61h1.23v-2.61h5.4v-.99Zm21.39-.7A4.7,4.7,0,0,1,62.43-10.2v-1.47H61.2v1.425a4.886,4.886,0,0,1-3.33,4.59l.645.99a5.74,5.74,0,0,0,3.33-3.4,5.682,5.682,0,0,0,3.21,3.1Zm-5.79,3.285h7.77v3.78H68.94v-4.77H59.925Zm7.77-9.675v2.805H64.77v1h2.925v4.125H68.94V-12.33Z" transform="translate(93.602 81.35)"/>
    <path id="패스_939" data-name="패스 939" class="cls-16" d="M10.575-12.345V1.14h1.23V-12.345ZM4.71-11.31c-2,0-3.42,1.83-3.42,4.7s1.425,4.7,3.42,4.7,3.42-1.83,3.42-4.7S6.7-11.31,4.71-11.31Zm0,1.11c1.3,0,2.235,1.41,2.235,3.585,0,2.19-.93,3.6-2.235,3.6-1.32,0-2.25-1.41-2.25-3.6C2.46-8.79,3.39-10.2,4.71-10.2ZM22.065-6.015A4.568,4.568,0,0,1,18.81-10.17v-1.485H17.58v1.38a4.923,4.923,0,0,1-3.345,4.62l.645.975a5.623,5.623,0,0,0,3.33-3.4,5.647,5.647,0,0,0,3.21,3.03ZM20.46.135c-1.995,0-3.21-.555-3.21-1.485,0-.945,1.215-1.5,3.21-1.5s3.195.555,3.195,1.5C23.655-.42,22.44.135,20.46.135Zm0-3.945c-2.745,0-4.44.885-4.44,2.46S17.715,1.1,20.46,1.1,24.885.21,24.885-1.35,23.19-3.81,20.46-3.81Zm4.275-5.055V-12.33h-1.23v8.145h1.23v-3.66H26.73v-1.02Zm14.1-3.465H37.6v8.115h1.23Zm-2.82,6.51A4.547,4.547,0,0,1,32.64-9.9v-.39h3.045V-11.3h-7.38v1.005H31.38v.39a4.82,4.82,0,0,1-3.39,4.425l.645.975A5.792,5.792,0,0,0,32.04-7.86a5.66,5.66,0,0,0,3.375,3.015ZM34.365.2c-2.04,0-3.3-.57-3.3-1.56,0-1.005,1.26-1.56,3.3-1.56s3.285.555,3.285,1.56C37.65-.375,36.4.2,34.365.2Zm0-4.095c-2.79,0-4.515.93-4.515,2.535s1.725,2.52,4.515,2.52S38.88.24,38.88-1.365,37.155-3.9,34.365-3.9Zm18.39-6.9h-4.74v-1.62H46.77v1.62H41.94v.99H52.755ZM50.475-6.8c0,.825-1.11,1.305-3.075,1.305s-3.1-.48-3.1-1.305S45.435-8.1,47.4-8.1,50.475-7.62,50.475-6.8Zm-7.455,0c0,1.44,1.635,2.235,4.38,2.235,2.715,0,4.35-.8,4.35-2.235s-1.635-2.25-4.35-2.25C44.655-9.045,43.02-8.235,43.02-6.8ZM53.5-3.615H41.31V-2.61h5.46V1.125h1.245V-2.61H53.5Zm4.35.63c-1.08,0-1.755-1.365-1.755-3.57,0-2.16.675-3.525,1.755-3.525,1.05,0,1.74,1.365,1.74,3.525C59.6-4.35,58.9-2.985,57.855-2.985ZM62.4-7.11H60.7c-.15-2.535-1.23-4.11-2.85-4.11-1.755,0-2.88,1.8-2.88,4.665,0,2.91,1.125,4.71,2.88,4.71,1.65,0,2.745-1.62,2.85-4.26h1.7V.45h1.17v-12.5H62.4Zm2.67-5.235V1.11h1.17V-12.345ZM73.065-9.7h3.8V-10.71H71.85V-2.2h.885a22.092,22.092,0,0,0,4.98-.4l-.1-1.02a21.163,21.163,0,0,1-4.545.4Zm8.55-2.64v5.4h-1.9v-5.1H78.555V.435H79.71V-5.94h1.9V1.11H82.8V-12.345Zm11.25,1.65H89.5V-12.33h-1.23v1.635H84.93v.99h7.935ZM86.85-6.465c0-.93.81-1.53,2.04-1.53,1.215,0,2.055.6,2.055,1.53,0,.945-.84,1.545-2.055,1.545C87.66-4.92,86.85-5.52,86.85-6.465Zm5.265,0c0-1.5-1.32-2.49-3.225-2.49s-3.21.99-3.21,2.49S86.985-3.96,88.89-3.96,92.115-4.95,92.115-6.465Zm-3.93,3.42h-1.23V.81h8.97V-.2h-7.74Zm7.14-4.86V-12.33h-1.23V-2.25h1.23V-6.87h2V-7.905Zm17.73,2.13c-2.355-.42-4.92-2.4-4.92-4.635v-1.035h-1.29v1.035c0,2.235-2.55,4.215-4.9,4.635l.51,1.02a7.253,7.253,0,0,0,5.04-3.75,7.284,7.284,0,0,0,5.04,3.75Zm-4.95,4.125V-4.92h-1.23v3.27h-5.43v1h12.21v-1ZM120.5-6.33h-3.72v-4.005h3.72Zm4.29-2.835V-7.5h-3.09V-9.165Zm-3.09,2.655h3.09v2.13h1.245v-7.95h-1.245v2.175h-3.09v-1.17H115.56v5.97h6.135Zm-.12,6.645c-2.01,0-3.24-.585-3.24-1.575s1.23-1.575,3.24-1.575c2.04,0,3.27.585,3.27,1.575S123.615.135,121.575.135Zm0-4.11c-2.76,0-4.47.915-4.47,2.535s1.71,2.535,4.47,2.535,4.485-.93,4.485-2.535S124.35-3.975,121.575-3.975Zm14.16-.825a8.021,8.021,0,0,0,1.86.21,8.286,8.286,0,0,0,1.89-.21v3.165h-3.75Zm1.86-5.73c2.16,0,3.72.99,3.72,2.49s-1.56,2.49-3.72,2.49-3.705-.99-3.705-2.49S135.435-10.53,137.6-10.53Zm3.12,8.9V-5.28a3.05,3.05,0,0,0,1.77-2.76c0-2.1-2.025-3.45-4.89-3.45-2.85,0-4.89,1.35-4.89,3.45a3.075,3.075,0,0,0,1.8,2.775v3.63h-3v1.02H143.73v-1.02ZM157.2-5.685h-2a22.21,22.21,0,0,0,.375-4.62v-1.17h-9.03v.99h7.83v.18a19.889,19.889,0,0,1-.42,4.62h-8.925v1h5.43V1.125h1.245V-4.68h5.49Z" transform="translate(337.502 81.35)"/>
    <rect id="사각형_21" data-name="사각형 21" class="cls-15" width="258.903" height="34.5" transform="translate(288.298 57.5)"/>
    <path id="패스_942" data-name="패스 942" class="cls-16" d="M8.355-8.76v1.005h2.28V-5.94H8.355v1.005h2.28v2.85H11.88V-12.33H10.635v3.57Zm0-1.935H5.265v-1.65H4.035v1.65H.825v.99h7.53ZM2.76-6.4a1.665,1.665,0,0,1,1.875-1.59A1.665,1.665,0,0,1,6.51-6.4a1.678,1.678,0,0,1-1.875,1.62A1.678,1.678,0,0,1,2.76-6.4Zm4.92,0c0-1.53-1.26-2.55-3.045-2.55S1.59-7.935,1.59-6.4s1.26,2.58,3.045,2.58S7.68-4.86,7.68-6.4ZM4.455-.2v-2.76H3.225V.81H12.2V-.2ZM22.1-5.835a4.376,4.376,0,0,1-3.255-3.99v-.525h2.97v-.99H14.6v.99H17.61v.525a4.765,4.765,0,0,1-3.375,4.38l.63.975a5.556,5.556,0,0,0,3.39-3.3A5.232,5.232,0,0,0,21.51-4.875ZM20.46.12c-2.01,0-3.21-.555-3.21-1.515s1.2-1.5,3.21-1.5c1.98,0,3.195.555,3.195,1.5S22.44.12,20.46.12Zm0-3.99c-2.76,0-4.44.915-4.44,2.475C16.02.18,17.7,1.1,20.46,1.1c2.73,0,4.425-.915,4.425-2.49C24.885-2.955,23.19-3.87,20.46-3.87Zm4.275-5.07v-3.39h-1.23v8.115h1.23v-3.69H26.73V-8.94ZM41.9-12.33h-1.23v6.96H41.9Zm-2.88,5.61a4.652,4.652,0,0,1-3.4-4.2v-1.02H34.38v1.02a4.886,4.886,0,0,1-3.42,4.455l.63.96A5.712,5.712,0,0,0,35.01-8.85,5.716,5.716,0,0,0,38.4-5.76ZM34.44-.015v-1.44h7.47v-3.24H33.195v.975h7.5v1.335h-7.47V.96H42.36V-.015Zm14.445-11.16H47.67V-8.76a7.129,7.129,0,0,1-3.465,6.015l.735.99A7.452,7.452,0,0,0,48.285-6.21,7.421,7.421,0,0,0,51.54-2.025L52.305-3a6.794,6.794,0,0,1-3.42-5.76Zm8.055,4.29H54.72V-12.33H53.49V1.11h1.23V-5.865h2.22Z" transform="translate(676.948 81.35)"/>
    <rect id="사각형_22" data-name="사각형 22" class="cls-15" width="258.903" height="34.5" transform="translate(576.597 57.5)"/>
    <path id="패스_943" data-name="패스 943" class="cls-16" d="M1.92-5.715A4.883,4.883,0,0,0,5.265-8.19a4.9,4.9,0,0,0,3.3,2.28l.495-.96C7.155-7.3,5.85-8.46,5.85-9.81v-.03H8.82v-.975H5.85v-1.5H4.62v1.5H1.665v.975h2.97v.03c0,1.44-1.3,2.67-3.24,3.12Zm7.725.5a65.683,65.683,0,0,1-8.88.435L.93-3.75c1.125,0,2.4-.015,3.72-.06V.72H5.88V-3.885A36.928,36.928,0,0,0,9.735-4.3Zm.96-7.11V1.125h1.23V-12.33ZM15.75-8.355A2.134,2.134,0,0,1,18.06-10.5a2.142,2.142,0,0,1,2.31,2.145A2.151,2.151,0,0,1,18.06-6.21,2.142,2.142,0,0,1,15.75-8.355Zm5.82,0a3.224,3.224,0,0,0-3.51-3.18,3.216,3.216,0,0,0-3.51,3.18,3.224,3.224,0,0,0,3.51,3.18A3.233,3.233,0,0,0,21.57-8.355Zm-5.58,5.64h7.515V1.11h1.23V-3.72H15.99ZM26.7-9.27v-1.02H24.735v-2.04h-1.23v7.98h1.23V-6.4H26.7V-7.41H24.735V-9.27Zm9.03,3.4A4.619,4.619,0,0,1,32.46-9.99v-.495h2.955V-11.49H28.23v1.005h3v.51a4.9,4.9,0,0,1-3.39,4.41l.645.96a5.7,5.7,0,0,0,3.39-3.345A5.551,5.551,0,0,0,35.115-4.9Zm-4.4,3.03H37.68V-.06H31.335ZM30.135.93H38.88V-3.81H30.135Zm7.5-13.275V-8.97H34.98v1.02h2.655v3.48H38.88v-7.875Zm13.44,10.74v-3.45h4.1v-.99H47.145V-10.26h7.89v-1h-9.12v6.21H49.83v3.45H44.355v1.02H56.58v-1.02Zm7.8-5.37c2.265-.18,4.26-.87,5.085-2.115.825,1.245,2.805,1.935,5.055,2.115l.375-.93c-2.5-.165-4.53-.99-4.74-2.325h4.14v-.93H64.575v-1.275h-1.23v1.275h-4.23v.93H63.27c-.21,1.335-2.265,2.16-4.755,2.325ZM70.02-5.43v-.945H57.885v.945H63.33v1.245H59.325v.915H67.26v1.14H59.37V.96h9.51V.03H60.57V-1.245h7.9v-2.94h-3.9V-5.43Zm15.435-6.915h-1.23V-4.62h1.23ZM80.22-6.96H76.335V-10.5H80.22Zm1.2-4.515H75.135v5.5H81.42ZM85.77-2.76V-3.7H81.825v-1.3H80.58v1.3H76.635v.945h3.93C80.55-1.425,78.4-.15,76.11.12l.4.945a6.724,6.724,0,0,0,4.695-2.46,6.625,6.625,0,0,0,4.62,2.46L86.25.12c-2.31-.285-4.41-1.59-4.425-2.88Zm7.89-5.22h6.87v2.475H93.66Zm4.05,6.36V-4.515h4.02v-6.87h-1.2v2.4H93.66v-2.4H92.445v6.87h4.02V-1.62H91v1H103.2v-1Zm18.315-8.76H111.21v-1.755h-1.23v1.755H105.1v1h10.92Zm-8.61,4.47c0-.99,1.215-1.59,3.18-1.59,1.935,0,3.135.6,3.135,1.59S112.53-4.3,110.6-4.3C108.63-4.3,107.415-4.9,107.415-5.91Zm3.795,4.44V-3.36c2.34-.15,3.765-1.05,3.765-2.55,0-1.62-1.695-2.55-4.38-2.55-2.73,0-4.425.93-4.425,2.55,0,1.5,1.44,2.415,3.81,2.55v1.89H104.5v1H116.7v-1ZM122.76-9.7h3.795V-10.71h-5.01V-2.2h.885a22.092,22.092,0,0,0,4.98-.4l-.1-1.02a21.163,21.163,0,0,1-4.545.4Zm8.55-2.64v5.4h-1.9v-5.1H128.25V.435H129.4V-5.94h1.9V1.11h1.185V-12.345Zm9.975,6.675a4.077,4.077,0,0,1-2.73-3.765v-.15h2.4v-.99h-2.4V-12.2h-1.17v1.62h-2.43v.99h2.43v.15a4.353,4.353,0,0,1-2.7,4.035l.6.9a4.745,4.745,0,0,0,2.7-2.955,4.811,4.811,0,0,0,2.715,2.73Zm-4.4,3.3h7.815V1.11h1.23V-3.375H136.89Zm7.86-9.96v3.585h-1.695V-12.1H141.9V-4.17h1.155V-7.74h1.695v3.66h1.185v-8.25Zm17.97,5.115c-2.445-.36-4.845-2.025-4.845-3.9v-.75h-1.29v.75c0,1.92-2.37,3.54-4.815,3.9l.495.99a6.894,6.894,0,0,0,4.965-3.15,7.06,7.06,0,0,0,4.98,3.15Zm.585,2.445h-12.15v1.02h5.43V1.125h1.23V-3.75h5.505Zm9.51-1.89a36.476,36.476,0,0,1-6.27.42V-8.055h4.875v-3.63H165.3v.99h4.9V-9h-4.86v3.765h1.08a37.733,37.733,0,0,0,6.525-.435Zm1.65,6.585H168.18v-1.65h6.285Zm0-2.61H168.18v-1.59h-1.215V.93h8.715V-4.275h-1.215Zm-.015-9.645v7.38h1.23v-7.38Z" transform="translate(615.148 136.35)"/>
    <rect id="사각형_23" data-name="사각형 23" class="cls-15" width="258.903" height="34.5" transform="translate(576.597 112.5)"/>
    <path id="패스_940" data-name="패스 940" class="cls-16" d="M7.98-8.85v1h2.655V-4.32H11.88v-8.01H10.635v3.48Zm.75,3.06A4.632,4.632,0,0,1,5.46-9.9v-.465H8.415v-.99H1.23v.99h3V-9.9A4.96,4.96,0,0,1,.84-5.415l.645.975a5.823,5.823,0,0,0,3.39-3.42,5.527,5.527,0,0,0,3.24,3.03ZM7.44.15C5.415.15,4.185-.42,4.185-1.395s1.23-1.56,3.255-1.56,3.255.585,3.255,1.56S9.465.15,7.44.15Zm0-4.05c-2.76,0-4.485.915-4.485,2.5S4.68,1.11,7.44,1.11s4.47-.915,4.47-2.5S10.2-3.9,7.44-3.9Zm9.51-4.08h6.87v2.475H16.95ZM21-1.62V-4.515h4.02v-6.87h-1.2v2.4H16.95v-2.4H15.735v6.87h4.02V-1.62H14.3v1H26.49v-1Zm9.465-6.36h6.87v2.475h-6.87Zm4.05,6.36V-4.515h4.02v-6.87h-1.2v2.4h-6.87v-2.4H29.25v6.87h4.02V-1.62H27.81v1H40v-1ZM52.83-10.38H48.015v-1.755h-1.23v1.755H41.91v1H52.83ZM44.22-5.91c0-.99,1.215-1.59,3.18-1.59,1.935,0,3.135.6,3.135,1.59S49.335-4.3,47.4-4.3C45.435-4.3,44.22-4.9,44.22-5.91Zm3.795,4.44V-3.36c2.34-.15,3.765-1.05,3.765-2.55,0-1.62-1.695-2.55-4.38-2.55-2.73,0-4.425.93-4.425,2.55,0,1.5,1.44,2.415,3.81,2.55v1.89H41.31v1H53.5v-1ZM64.32-9.51a27.994,27.994,0,0,1-.465,5.835l1.215.15a28.8,28.8,0,0,0,.48-5.985v-1.485H56.07V-9.99h8.25ZM62.34-1.785V-6.24H61.125v4.455H59.01V-6.24H57.795v4.455H54.81V-.78H66.975V-1.785Zm12.045-9.27c2.13,0,3.465.6,3.465,1.605s-1.335,1.6-3.465,1.6-3.465-.6-3.465-1.6S72.255-11.055,74.385-11.055Zm0,4.17c2.91,0,4.725-.945,4.725-2.565s-1.815-2.58-4.725-2.58-4.725.96-4.725,2.58S71.49-6.885,74.385-6.885Zm1.65,3.72H72.75v-1.71h3.285Zm4.44-1.71v-.99H68.31v.99h3.21v1.71H69.66v.99h8.085v3.3h1.23v-4.29h-1.71v-1.71Zm14.19-7.47V1.14h1.23V-12.345ZM88.8-11.31c-2,0-3.42,1.83-3.42,4.7s1.425,4.7,3.42,4.7,3.42-1.83,3.42-4.7S90.795-11.31,88.8-11.31Zm0,1.11c1.305,0,2.235,1.41,2.235,3.585,0,2.19-.93,3.6-2.235,3.6s-2.25-1.41-2.25-3.6C86.55-8.79,87.48-10.2,88.8-10.2Zm21.165,2.985c-2.445-.36-4.845-2.025-4.845-3.9v-.75h-1.29v.75c0,1.92-2.37,3.54-4.815,3.9l.495.99a6.894,6.894,0,0,0,4.965-3.15,7.06,7.06,0,0,0,4.98,3.15Zm.585,2.445H98.4v1.02h5.43V1.125h1.23V-3.75h5.5ZM125.7-8.22h-7.995v-2.6h7.9v-.99h-9.135V-7.23H125.7ZM121.02.135c-2.115,0-3.36-.525-3.36-1.47s1.245-1.47,3.36-1.47,3.36.525,3.36,1.47S123.12.135,121.02.135Zm0-3.9c-2.865,0-4.605.87-4.605,2.43s1.74,2.43,4.605,2.43,4.6-.87,4.6-2.43S123.885-3.765,121.02-3.765ZM114.945-5.94v1.02h12.18V-5.94Zm17.085-4.665V-9.6h4.035a8.148,8.148,0,0,1-4.545,6.945l.72.885a9.41,9.41,0,0,0,5.04-8.835Zm9.72-1.74V-6.93h-1.83v-5.055h-1.155V.435h1.155v-6.36h1.83V1.11h1.185V-12.345ZM154.86-2.28h1.245V-12.33H154.86v3.15h-2.94v1.02h2.94Zm-1.98-3.18a4.825,4.825,0,0,1-3.255-4.365v-1.71H148.4V-9.87a5.074,5.074,0,0,1-3.36,4.695l.645.975a5.859,5.859,0,0,0,3.345-3.51,5.654,5.654,0,0,0,3.21,3.2ZM148.68-.2V-3.39h-1.23V.81h8.97V-.2ZM162.69-4.41a7.249,7.249,0,0,0,4.995-3.63,7.153,7.153,0,0,0,5.04,3.57l.495-.99c-2.34-.375-4.9-2.22-4.9-4.365v-.285h4.455v-1H162.585v1h4.455v.285c0,2.145-2.55,4.02-4.875,4.41Zm5.61,2.775V-4.89h-1.23v3.255h-5.49v1.02h12.21v-1.02ZM180.03-9.03h3.075v-.99h-3.06V-12.1H178.8v2.085h-3.1v.99h3.12v1.035a6.343,6.343,0,0,1-3.48,5.565l.69.93a6.945,6.945,0,0,0,3.42-4.155,6.74,6.74,0,0,0,3.435,3.93l.69-.96a6.026,6.026,0,0,1-3.54-5.31Zm4.83-3.33V1.1h1.245V-12.36Z" transform="translate(322.05 136.35)"/>
    <rect id="사각형_24" data-name="사각형 24" class="cls-15" width="258.903" height="34.5" transform="translate(288.298 112.5)"/>
    <rect id="사각형_25" data-name="사각형 25" class="cls-17" width="258.903" height="34.5" transform="translate(0 112.5)"/>
    <path id="패스_937" data-name="패스 937" class="cls-14" d="M5.565-11.175H4.35V-8.76A7.069,7.069,0,0,1,.735-2.685l.75,1.005a7.477,7.477,0,0,0,3.48-4.515A7.307,7.307,0,0,0,8.43-1.935l.735-.99a6.692,6.692,0,0,1-3.6-5.835Zm5.01-1.17V1.14h1.23V-12.345ZM16.05-11.04H14.835V-2.3H15.9a31.419,31.419,0,0,0,6.405-.615l-.15-1.02a30.677,30.677,0,0,1-6.105.6ZM26.805-6.975h-2.16v-5.37h-1.23V1.11h1.23V-5.955h2.16Zm3,.69H34.77V-11.1H28.53v1.005h5v2.8h-4.95v5.16h1.11a39.044,39.044,0,0,0,6.78-.495l-.12-1a39.538,39.538,0,0,1-6.54.48Zm7.8-6.075V1.125h1.23V-12.36Zm6.06,4.425c0-1.545,1.575-2.55,3.72-2.55s3.705,1,3.705,2.55-1.56,2.55-3.705,2.55S43.665-6.39,43.665-7.935ZM48-1.635V-4.44c2.505-.18,4.26-1.515,4.26-3.495,0-2.145-2.04-3.525-4.875-3.525s-4.9,1.38-4.9,3.525c0,1.98,1.77,3.315,4.275,3.495v2.805H41.28v1.02H53.505v-1.02Zm22.035-4.05h-2a22.21,22.21,0,0,0,.375-4.62v-1.17h-9.03v.99h7.83v.18a19.889,19.889,0,0,1-.42,4.62H57.87v1H63.3V1.125h1.245V-4.68h5.49Zm8.88-3.075v1.005h2.28V-5.94h-2.28v1.005h2.28v2.85H82.44V-12.33H81.195v3.57Zm0-1.935h-3.09v-1.65H74.6v1.65h-3.21v.99h7.53ZM73.32-6.4a1.665,1.665,0,0,1,1.875-1.59A1.665,1.665,0,0,1,77.07-6.4a1.678,1.678,0,0,1-1.875,1.62A1.678,1.678,0,0,1,73.32-6.4Zm4.92,0c0-1.53-1.26-2.55-3.045-2.55S72.15-7.935,72.15-6.4s1.26,2.58,3.045,2.58S78.24-4.86,78.24-6.4ZM75.015-.2v-2.76h-1.23V.81h8.97V-.2Z" transform="translate(86.852 136.35)"/>
    <path id="패스_944" data-name="패스 944" class="cls-16" d="M1.3-10.605V-9.6H5.34A8.148,8.148,0,0,1,.8-2.655l.72.885a9.41,9.41,0,0,0,5.04-8.835Zm9.72-1.74V-6.93H9.195v-5.055H8.04V.435H9.195v-6.36h1.83V1.11H12.21V-12.345ZM24.135-2.28H25.38V-12.33H24.135v3.15h-2.94v1.02h2.94Zm-1.98-3.18A4.825,4.825,0,0,1,18.9-9.825v-1.71H17.67V-9.87a5.074,5.074,0,0,1-3.36,4.695l.645.975A5.859,5.859,0,0,0,18.3-7.71a5.654,5.654,0,0,0,3.21,3.2ZM17.955-.2V-3.39h-1.23V.81h8.97V-.2ZM31.98-4.41a7.249,7.249,0,0,0,5-3.63,7.153,7.153,0,0,0,5.04,3.57l.5-.99C40.17-5.835,37.6-7.68,37.6-9.825v-.285H42.06v-1H31.875v1H36.33v.285c0,2.145-2.55,4.02-4.875,4.41Zm5.61,2.775V-4.89H36.36v3.255H30.87v1.02H43.08v-1.02ZM49.32-9.03H52.4v-.99h-3.06V-12.1H48.09v2.085h-3.1v.99H48.1v1.035a6.343,6.343,0,0,1-3.48,5.565l.69.93a6.945,6.945,0,0,0,3.42-4.155,6.74,6.74,0,0,0,3.435,3.93l.69-.96a6.026,6.026,0,0,1-3.54-5.31Zm4.83-3.33V1.1H55.4V-12.36Zm16.56.015V1.14h1.23V-12.345ZM64.845-11.31c-2,0-3.42,1.83-3.42,4.7s1.425,4.7,3.42,4.7,3.42-1.83,3.42-4.7S66.84-11.31,64.845-11.31Zm0,1.11c1.305,0,2.235,1.41,2.235,3.585,0,2.19-.93,3.6-2.235,3.6-1.32,0-2.25-1.41-2.25-3.6C62.595-8.79,63.525-10.2,64.845-10.2ZM82.89-7.68H84.6v3.855h1.185v-8.52H84.6v3.66H82.89v-3.39H81.72V-4.3h1.17Zm-1.695-3.06H78.39v-1.5H77.175v1.5h-2.82v.975h6.84ZM76.02-6.765c0-.825.7-1.38,1.77-1.38s1.77.555,1.77,1.38S78.84-5.37,77.79-5.37,76.02-5.925,76.02-6.765Zm4.635,0c0-1.38-1.17-2.295-2.865-2.295s-2.88.915-2.88,2.295c0,1.41,1.185,2.31,2.88,2.31S80.655-5.355,80.655-6.765ZM81.36.15c-2.055,0-3.285-.51-3.285-1.395s1.23-1.41,3.285-1.41,3.27.51,3.27,1.41S83.4.15,81.36.15Zm0-3.75c-2.805,0-4.5.84-4.5,2.355s1.695,2.34,4.5,2.34,4.5-.84,4.5-2.34S84.165-3.6,81.36-3.6Z" transform="translate(661.502 191.355)"/>
    <rect id="사각형_26" data-name="사각형 26" class="cls-18" width="258.903" height="34.5" transform="translate(576.597 167.5)"/>
    <rect id="사각형_27" data-name="사각형 27" class="cls-19" width="258.903" height="34.5" transform="translate(0 167.5)"/>
    <path id="패스_938" data-name="패스 938" class="cls-14" d="M10.575-12.345V1.14h1.23V-12.345ZM4.71-11.31c-2,0-3.42,1.83-3.42,4.7s1.425,4.7,3.42,4.7,3.42-1.83,3.42-4.7S6.7-11.31,4.71-11.31Zm0,1.11c1.3,0,2.235,1.41,2.235,3.585,0,2.19-.93,3.6-2.235,3.6-1.32,0-2.25-1.41-2.25-3.6C2.46-8.79,3.39-10.2,4.71-10.2ZM22.065-6.015A4.568,4.568,0,0,1,18.81-10.17v-1.485H17.58v1.38a4.923,4.923,0,0,1-3.345,4.62l.645.975a5.623,5.623,0,0,0,3.33-3.4,5.647,5.647,0,0,0,3.21,3.03ZM20.46.135c-1.995,0-3.21-.555-3.21-1.485,0-.945,1.215-1.5,3.21-1.5s3.195.555,3.195,1.5C23.655-.42,22.44.135,20.46.135Zm0-3.945c-2.745,0-4.44.885-4.44,2.46S17.715,1.1,20.46,1.1,24.885.21,24.885-1.35,23.19-3.81,20.46-3.81Zm4.275-5.055V-12.33h-1.23v8.145h1.23v-3.66H26.73v-1.02Zm14.1-3.465H37.6v8.115h1.23Zm-2.82,6.51A4.547,4.547,0,0,1,32.64-9.9v-.39h3.045V-11.3h-7.38v1.005H31.38v.39a4.82,4.82,0,0,1-3.39,4.425l.645.975A5.792,5.792,0,0,0,32.04-7.86a5.66,5.66,0,0,0,3.375,3.015ZM34.365.2c-2.04,0-3.3-.57-3.3-1.56,0-1.005,1.26-1.56,3.3-1.56s3.285.555,3.285,1.56C37.65-.375,36.4.2,34.365.2Zm0-4.095c-2.79,0-4.515.93-4.515,2.535s1.725,2.52,4.515,2.52S38.88.24,38.88-1.365,37.155-3.9,34.365-3.9ZM52.74-10.8H48v-1.62H46.755v1.62h-4.83v.99H52.74ZM50.46-6.8c0,.825-1.11,1.305-3.075,1.305s-3.1-.48-3.1-1.305S45.42-8.1,47.385-8.1,50.46-7.62,50.46-6.8Zm-7.455,0c0,1.44,1.635,2.235,4.38,2.235,2.715,0,4.35-.8,4.35-2.235s-1.635-2.25-4.35-2.25C44.64-9.045,43.005-8.235,43.005-6.8ZM53.49-3.615H41.295V-2.61h5.46V1.125H48V-2.61h5.49Zm12-2.835a31.442,31.442,0,0,1-5.79.375V-7.86h4.68v-.975H59.7v-1.68h4.92v-.99H58.47v6.42h1.02a32.115,32.115,0,0,0,6.135-.39ZM61.05-2.745h6.03V-.06H61.05ZM59.85.93h8.445V-3.72H59.85ZM70.29-9h-2v-3.33h-1.23v7.905h1.23V-7.98h2Zm5.865-.945H79.32v-1.02H71.805v1.02h3.12v1.71a6.882,6.882,0,0,1-3.57,5.775l.72.99A7.545,7.545,0,0,0,75.54-5.91,7.108,7.108,0,0,0,79.065-1.8l.69-.99a6.265,6.265,0,0,1-3.6-5.445Zm4.98-2.385V1.11h1.23V-12.33Z" transform="translate(86.852 191.35)"/>
  </g>
</svg>
