<svg id="구성_요소_82_1" data-name="구성 요소 82 – 1" xmlns="http://www.w3.org/2000/svg" width="796" height="467" viewBox="0 0 796 467">
  <defs>
    <style>
      .cls-1 {
        fill: #f5f7f7;
      }

      .cls-2, .cls-5, .cls-6, .cls-7, .cls-8 {
        fill: none;
      }

      .cls-2 {
        stroke: #5171b1;
        stroke-width: 0.5px;
      }

      .cls-3 {
        fill: #1e2323;
      }

      .cls-4 {
        fill: #132e54;
      }

      .cls-5, .cls-8 {
        stroke: #3e3a39;
      }

      .cls-6 {
        stroke: #828585;
        stroke-width: 0.283px;
      }

      .cls-7 {
        stroke: #78a5e2;
      }

      .cls-7, .cls-8 {
        stroke-width: 3px;
      }

      .cls-9 {
        fill: #5171b1;
      }
    </style>
  </defs>
  <rect id="사각형_8" data-name="사각형 8" class="cls-1" width="796" height="467"/>
  <line id="선_59" data-name="선 59" class="cls-2" y1="305.509" transform="translate(739.563 111.84)"/>
  <path id="패스_1440" data-name="패스 1440" class="cls-3" d="M.63,0H6.776V-.728H3.6c-.532,0-1.12.042-1.68.084C4.634-3.178,6.286-5.32,6.286-7.462a2.674,2.674,0,0,0-2.828-2.926,3.752,3.752,0,0,0-2.87,1.47l.518.49A3.04,3.04,0,0,1,3.374-9.7,2.006,2.006,0,0,1,5.46-7.434C5.46-5.586,4.088-3.486.63-.5ZM11.046.182c1.848,0,3-1.736,3-5.32,0-3.542-1.148-5.25-3-5.25s-3.01,1.708-3.01,5.25C8.036-1.554,9.184.182,11.046.182Zm0-.686c-1.33,0-2.2-1.54-2.2-4.634,0-3.038.868-4.564,2.2-4.564S13.23-8.176,13.23-5.138C13.23-2.044,12.362-.5,11.046-.5Zm4.83.5H21.14V-.714H19.012v-9.492h-.658a5.859,5.859,0,0,1-1.946.644v.546h1.778v8.3h-2.31Zm9.758.182c1.848,0,3-1.736,3-5.32,0-3.542-1.148-5.25-3-5.25s-3.01,1.708-3.01,5.25C22.624-1.554,23.772.182,25.634.182Zm0-.686c-1.33,0-2.2-1.54-2.2-4.634,0-3.038.868-4.564,2.2-4.564s2.184,1.526,2.184,4.564C27.818-2.044,26.95-.5,25.634-.5Z" transform="translate(41.426 440.026)"/>
  <path id="패스_1439" data-name="패스 1439" class="cls-3" d="M.63,0H6.776V-.728H3.6c-.532,0-1.12.042-1.68.084C4.634-3.178,6.286-5.32,6.286-7.462a2.674,2.674,0,0,0-2.828-2.926,3.752,3.752,0,0,0-2.87,1.47l.518.49A3.04,3.04,0,0,1,3.374-9.7,2.006,2.006,0,0,1,5.46-7.434C5.46-5.586,4.088-3.486.63-.5ZM11.046.182c1.848,0,3-1.736,3-5.32,0-3.542-1.148-5.25-3-5.25s-3.01,1.708-3.01,5.25C8.036-1.554,9.184.182,11.046.182Zm0-.686c-1.33,0-2.2-1.54-2.2-4.634,0-3.038.868-4.564,2.2-4.564S13.23-8.176,13.23-5.138C13.23-2.044,12.362-.5,11.046-.5Zm4.83.5H21.14V-.714H19.012v-9.492h-.658a5.859,5.859,0,0,1-1.946.644v.546h1.778v8.3h-2.31ZM23.17,0h5.264V-.714H26.306v-9.492h-.658a5.859,5.859,0,0,1-1.946.644v.546H25.48v8.3H23.17Z" transform="translate(117.361 440.026)"/>
  <path id="패스_1431" data-name="패스 1431" class="cls-4" d="M.66,0H7.785V-1.47H5.025c-.54,0-1.23.045-1.8.1C5.565-3.6,7.26-5.8,7.26-7.935A3.122,3.122,0,0,0,3.93-11.25,4.332,4.332,0,0,0,.57-9.6l.975.96A2.994,2.994,0,0,1,3.72-9.87,1.8,1.8,0,0,1,5.595-7.845C5.595-6.03,3.915-3.885.66-1ZM12.54.2c2.16,0,3.57-1.92,3.57-5.76,0-3.81-1.41-5.685-3.57-5.685-2.175,0-3.57,1.86-3.57,5.685C8.97-1.725,10.365.2,12.54.2Zm0-1.365c-1.125,0-1.92-1.2-1.92-4.395,0-3.165.795-4.32,1.92-4.32s1.92,1.155,1.92,4.32C14.46-2.37,13.665-1.17,12.54-1.17ZM17.82,0h6.3V-1.425H21.96V-11.04H20.655a6.782,6.782,0,0,1-2.4.84v1.1h1.98v7.68H17.82ZM28.83-5.4c-1.155,0-1.785-.81-1.785-2.22,0-1.44.75-2.295,1.695-2.295,1.2,0,2.025.99,2.19,3.165A2.648,2.648,0,0,1,28.83-5.4ZM25.62-.975A3.789,3.789,0,0,0,28.44.2c2.13,0,4.11-1.74,4.11-6.09,0-3.645-1.71-5.355-3.825-5.355A3.376,3.376,0,0,0,25.44-7.62c0,2.31,1.245,3.465,3.09,3.465a3.319,3.319,0,0,0,2.43-1.29c-.1,3.15-1.26,4.23-2.595,4.23A2.461,2.461,0,0,1,26.55-2.04Z" transform="translate(719.559 440.907)"/>
  <path id="패스_1432" data-name="패스 1432" class="cls-3" d="M.63,0H6.776V-.728H3.6c-.532,0-1.12.042-1.68.084C4.634-3.178,6.286-5.32,6.286-7.462a2.674,2.674,0,0,0-2.828-2.926,3.752,3.752,0,0,0-2.87,1.47l.518.49A3.04,3.04,0,0,1,3.374-9.7,2.006,2.006,0,0,1,5.46-7.434C5.46-5.586,4.088-3.486.63-.5ZM11.046.182c1.848,0,3-1.736,3-5.32,0-3.542-1.148-5.25-3-5.25s-3.01,1.708-3.01,5.25C8.036-1.554,9.184.182,11.046.182Zm0-.686c-1.33,0-2.2-1.54-2.2-4.634,0-3.038.868-4.564,2.2-4.564S13.23-8.176,13.23-5.138C13.23-2.044,12.362-.5,11.046-.5Zm4.83.5H21.14V-.714H19.012v-9.492h-.658a5.859,5.859,0,0,1-1.946.644v.546h1.778v8.3h-2.31Zm9.8.182a2.761,2.761,0,0,0,3.052-2.59,3,3,0,0,0-1.736-2.66v-.07a3.568,3.568,0,0,0,1.4-2.534,2.535,2.535,0,0,0-2.7-2.674,2.5,2.5,0,0,0-2.632,2.52,2.818,2.818,0,0,0,1.4,2.324v.056a3.452,3.452,0,0,0-1.946,2.912A2.879,2.879,0,0,0,25.676.182Zm.714-5.544c-1.274-.5-2.548-1.078-2.548-2.464a1.787,1.787,0,0,1,1.834-1.862,1.918,1.918,0,0,1,1.96,2.044A2.977,2.977,0,0,1,26.39-5.362ZM25.676-.476a2.2,2.2,0,0,1-2.394-2.1,3.036,3.036,0,0,1,1.666-2.562c1.54.6,2.968,1.162,2.968,2.716A2.026,2.026,0,0,1,25.676-.476Z" transform="translate(648.963 440.026)"/>
  <path id="패스_1433" data-name="패스 1433" class="cls-3" d="M.63,0H6.776V-.728H3.6c-.532,0-1.12.042-1.68.084C4.634-3.178,6.286-5.32,6.286-7.462a2.674,2.674,0,0,0-2.828-2.926,3.752,3.752,0,0,0-2.87,1.47l.518.49A3.04,3.04,0,0,1,3.374-9.7,2.006,2.006,0,0,1,5.46-7.434C5.46-5.586,4.088-3.486.63-.5ZM11.046.182c1.848,0,3-1.736,3-5.32,0-3.542-1.148-5.25-3-5.25s-3.01,1.708-3.01,5.25C8.036-1.554,9.184.182,11.046.182Zm0-.686c-1.33,0-2.2-1.54-2.2-4.634,0-3.038.868-4.564,2.2-4.564S13.23-8.176,13.23-5.138C13.23-2.044,12.362-.5,11.046-.5Zm4.83.5H21.14V-.714H19.012v-9.492h-.658a5.859,5.859,0,0,1-1.946.644v.546h1.778v8.3h-2.31Zm8.876,0h.882c.154-3.99.658-6.538,3.08-9.716v-.49h-6.16v.714H27.72C25.69-6.664,24.92-4.074,24.752,0Z" transform="translate(573.026 440.026)"/>
  <path id="패스_1434" data-name="패스 1434" class="cls-3" d="M.63,0H6.776V-.728H3.6c-.532,0-1.12.042-1.68.084C4.634-3.178,6.286-5.32,6.286-7.462a2.674,2.674,0,0,0-2.828-2.926,3.752,3.752,0,0,0-2.87,1.47l.518.49A3.04,3.04,0,0,1,3.374-9.7,2.006,2.006,0,0,1,5.46-7.434C5.46-5.586,4.088-3.486.63-.5ZM11.046.182c1.848,0,3-1.736,3-5.32,0-3.542-1.148-5.25-3-5.25s-3.01,1.708-3.01,5.25C8.036-1.554,9.184.182,11.046.182Zm0-.686c-1.33,0-2.2-1.54-2.2-4.634,0-3.038.868-4.564,2.2-4.564S13.23-8.176,13.23-5.138C13.23-2.044,12.362-.5,11.046-.5Zm4.83.5H21.14V-.714H19.012v-9.492h-.658a5.859,5.859,0,0,1-1.946.644v.546h1.778v8.3h-2.31ZM26-.5c-1.554,0-2.352-1.428-2.478-3.668a3.068,3.068,0,0,1,2.338-1.456c1.456,0,2.072,1.064,2.072,2.548S27.1-.5,26-.5Zm2.548-8.9a2.794,2.794,0,0,0-2.17-.98c-1.918,0-3.668,1.456-3.668,5.572,0,3.248,1.3,5,3.276,5A3,3,0,0,0,28.742-3.08c0-2.1-1.036-3.206-2.772-3.206a3.285,3.285,0,0,0-2.464,1.33c.042-3.514,1.344-4.732,2.884-4.732a2.135,2.135,0,0,1,1.666.812Z" transform="translate(497.091 440.026)"/>
  <path id="패스_1435" data-name="패스 1435" class="cls-3" d="M.63,0H6.776V-.728H3.6c-.532,0-1.12.042-1.68.084C4.634-3.178,6.286-5.32,6.286-7.462a2.674,2.674,0,0,0-2.828-2.926,3.752,3.752,0,0,0-2.87,1.47l.518.49A3.04,3.04,0,0,1,3.374-9.7,2.006,2.006,0,0,1,5.46-7.434C5.46-5.586,4.088-3.486.63-.5ZM11.046.182c1.848,0,3-1.736,3-5.32,0-3.542-1.148-5.25-3-5.25s-3.01,1.708-3.01,5.25C8.036-1.554,9.184.182,11.046.182Zm0-.686c-1.33,0-2.2-1.54-2.2-4.634,0-3.038.868-4.564,2.2-4.564S13.23-8.176,13.23-5.138C13.23-2.044,12.362-.5,11.046-.5Zm4.83.5H21.14V-.714H19.012v-9.492h-.658a5.859,5.859,0,0,1-1.946.644v.546h1.778v8.3h-2.31Zm9.548.182a3.233,3.233,0,0,0,3.192-3.458c0-2.268-1.344-3.276-3.024-3.276a3.147,3.147,0,0,0-1.708.49l.294-3.43h3.934v-.714H23.45L23.1-5.544l.532.322a2.959,2.959,0,0,1,1.806-.644,2.312,2.312,0,0,1,2.338,2.618A2.5,2.5,0,0,1,25.4-.518a3.436,3.436,0,0,1-2.674-1.2l-.448.574A4.2,4.2,0,0,0,25.424.182Z" transform="translate(421.154 440.026)"/>
  <path id="패스_1436" data-name="패스 1436" class="cls-3" d="M.63,0H6.776V-.728H3.6c-.532,0-1.12.042-1.68.084C4.634-3.178,6.286-5.32,6.286-7.462a2.674,2.674,0,0,0-2.828-2.926,3.752,3.752,0,0,0-2.87,1.47l.518.49A3.04,3.04,0,0,1,3.374-9.7,2.006,2.006,0,0,1,5.46-7.434C5.46-5.586,4.088-3.486.63-.5ZM11.046.182c1.848,0,3-1.736,3-5.32,0-3.542-1.148-5.25-3-5.25s-3.01,1.708-3.01,5.25C8.036-1.554,9.184.182,11.046.182Zm0-.686c-1.33,0-2.2-1.54-2.2-4.634,0-3.038.868-4.564,2.2-4.564S13.23-8.176,13.23-5.138C13.23-2.044,12.362-.5,11.046-.5Zm4.83.5H21.14V-.714H19.012v-9.492h-.658a5.859,5.859,0,0,1-1.946.644v.546h1.778v8.3h-2.31Zm7.21-3.6,2.772-4.046c.294-.462.574-.952.812-1.414h.07c-.042.476-.084,1.232-.084,1.694V-3.6Zm5.81,0H27.454v-6.608h-.8L22.148-3.43v.518h4.508V0h.8V-2.912H28.9Z" transform="translate(345.219 440.026)"/>
  <path id="패스_1437" data-name="패스 1437" class="cls-3" d="M.63,0H6.776V-.728H3.6c-.532,0-1.12.042-1.68.084C4.634-3.178,6.286-5.32,6.286-7.462a2.674,2.674,0,0,0-2.828-2.926,3.752,3.752,0,0,0-2.87,1.47l.518.49A3.04,3.04,0,0,1,3.374-9.7,2.006,2.006,0,0,1,5.46-7.434C5.46-5.586,4.088-3.486.63-.5ZM11.046.182c1.848,0,3-1.736,3-5.32,0-3.542-1.148-5.25-3-5.25s-3.01,1.708-3.01,5.25C8.036-1.554,9.184.182,11.046.182Zm0-.686c-1.33,0-2.2-1.54-2.2-4.634,0-3.038.868-4.564,2.2-4.564S13.23-8.176,13.23-5.138C13.23-2.044,12.362-.5,11.046-.5Zm4.83.5H21.14V-.714H19.012v-9.492h-.658a5.859,5.859,0,0,1-1.946.644v.546h1.778v8.3h-2.31Zm9.618.182A2.854,2.854,0,0,0,28.574-2.7a2.66,2.66,0,0,0-2.24-2.632V-5.4a2.547,2.547,0,0,0,1.876-2.52A2.484,2.484,0,0,0,25.452-10.4a3.965,3.965,0,0,0-2.73,1.2l.476.56a3.2,3.2,0,0,1,2.24-1.078A1.787,1.787,0,0,1,27.37-7.868c0,1.218-.784,2.184-3.024,2.184V-5c2.436,0,3.388.924,3.388,2.3A2.125,2.125,0,0,1,25.466-.518a3.491,3.491,0,0,1-2.688-1.246l-.462.546A4.127,4.127,0,0,0,25.494.182Z" transform="translate(269.282 440.026)"/>
  <path id="패스_1438" data-name="패스 1438" class="cls-3" d="M.63,0H6.776V-.728H3.6c-.532,0-1.12.042-1.68.084C4.634-3.178,6.286-5.32,6.286-7.462a2.674,2.674,0,0,0-2.828-2.926,3.752,3.752,0,0,0-2.87,1.47l.518.49A3.04,3.04,0,0,1,3.374-9.7,2.006,2.006,0,0,1,5.46-7.434C5.46-5.586,4.088-3.486.63-.5ZM11.046.182c1.848,0,3-1.736,3-5.32,0-3.542-1.148-5.25-3-5.25s-3.01,1.708-3.01,5.25C8.036-1.554,9.184.182,11.046.182Zm0-.686c-1.33,0-2.2-1.54-2.2-4.634,0-3.038.868-4.564,2.2-4.564S13.23-8.176,13.23-5.138C13.23-2.044,12.362-.5,11.046-.5Zm4.83.5H21.14V-.714H19.012v-9.492h-.658a5.859,5.859,0,0,1-1.946.644v.546h1.778v8.3h-2.31Zm6.636,0h6.146V-.728H25.48c-.532,0-1.12.042-1.68.084,2.716-2.534,4.368-4.676,4.368-6.818a2.674,2.674,0,0,0-2.828-2.926,3.752,3.752,0,0,0-2.87,1.47l.518.49A3.04,3.04,0,0,1,25.256-9.7a2.006,2.006,0,0,1,2.086,2.268c0,1.848-1.372,3.948-4.83,6.93Z" transform="translate(193.347 440.026)"/>
  <line id="선_60" data-name="선 60" class="cls-5" x2="756" transform="translate(20 417.207)"/>
  <path id="패스_1415" data-name="패스 1415" class="cls-3" d="M.63,0H6.776V-.728H3.6c-.532,0-1.12.042-1.68.084C4.634-3.178,6.286-5.32,6.286-7.462a2.674,2.674,0,0,0-2.828-2.926,3.752,3.752,0,0,0-2.87,1.47l.518.49A3.04,3.04,0,0,1,3.374-9.7,2.006,2.006,0,0,1,5.46-7.434C5.46-5.586,4.088-3.486.63-.5ZM8.582,0h5.264V-.714H11.718v-9.492H11.06a5.859,5.859,0,0,1-1.946.644v.546h1.778v8.3H8.582Zm6.986,2.464a2.909,2.909,0,0,0,1.68-2.6c0-.742-.336-1.2-.84-1.2a.7.7,0,0,0-.742.7.686.686,0,0,0,.728.714.682.682,0,0,0,.168-.014A2.118,2.118,0,0,1,15.33,1.932ZM22.008-.5c-1.554,0-2.352-1.428-2.478-3.668a3.068,3.068,0,0,1,2.338-1.456c1.456,0,2.072,1.064,2.072,2.548S23.114-.5,22.008-.5Zm2.548-8.9a2.794,2.794,0,0,0-2.17-.98c-1.918,0-3.668,1.456-3.668,5.572,0,3.248,1.3,5,3.276,5A3,3,0,0,0,24.752-3.08c0-2.1-1.036-3.206-2.772-3.206a3.285,3.285,0,0,0-2.464,1.33C19.558-8.47,20.86-9.688,22.4-9.688a2.135,2.135,0,0,1,1.666.812ZM26.474,0h5.264V-.714H29.61v-9.492h-.658a5.859,5.859,0,0,1-1.946.644v.546h1.778v8.3h-2.31Zm9.618.182A2.854,2.854,0,0,0,39.172-2.7a2.66,2.66,0,0,0-2.24-2.632V-5.4a2.547,2.547,0,0,0,1.876-2.52A2.484,2.484,0,0,0,36.05-10.4a3.965,3.965,0,0,0-2.73,1.2l.476.56a3.2,3.2,0,0,1,2.24-1.078,1.787,1.787,0,0,1,1.932,1.848c0,1.218-.784,2.184-3.024,2.184V-5c2.436,0,3.388.924,3.388,2.3A2.125,2.125,0,0,1,36.064-.518a3.491,3.491,0,0,1-2.688-1.246l-.462.546A4.127,4.127,0,0,0,36.092.182Z" transform="translate(435.99 219.011)"/>
  <path id="패스_1426" data-name="패스 1426" class="cls-3" d="M1.2-3.6,3.976-7.644c.294-.462.574-.952.812-1.414h.07c-.042.476-.084,1.232-.084,1.694V-3.6Zm5.81,0H5.572v-6.608h-.8L.266-3.43v.518H4.774V0h.8V-2.912H7.014Zm1.26,6.062a2.909,2.909,0,0,0,1.68-2.6c0-.742-.336-1.2-.84-1.2a.7.7,0,0,0-.742.7A.686.686,0,0,0,9.1.07.682.682,0,0,0,9.268.056,2.118,2.118,0,0,1,8.036,1.932ZM14.714-.5c-1.554,0-2.352-1.428-2.478-3.668a3.068,3.068,0,0,1,2.338-1.456c1.456,0,2.072,1.064,2.072,2.548S15.82-.5,14.714-.5Zm2.548-8.9a2.794,2.794,0,0,0-2.17-.98c-1.918,0-3.668,1.456-3.668,5.572,0,3.248,1.3,5,3.276,5A3,3,0,0,0,17.458-3.08c0-2.1-1.036-3.206-2.772-3.206a3.285,3.285,0,0,0-2.464,1.33c.042-3.514,1.344-4.732,2.884-4.732a2.135,2.135,0,0,1,1.666.812ZM21.5.182A2.854,2.854,0,0,0,24.584-2.7a2.66,2.66,0,0,0-2.24-2.632V-5.4a2.547,2.547,0,0,0,1.876-2.52A2.484,2.484,0,0,0,21.462-10.4a3.965,3.965,0,0,0-2.73,1.2l.476.56a3.2,3.2,0,0,1,2.24-1.078A1.787,1.787,0,0,1,23.38-7.868c0,1.218-.784,2.184-3.024,2.184V-5c2.436,0,3.388.924,3.388,2.3A2.125,2.125,0,0,1,21.476-.518a3.491,3.491,0,0,1-2.688-1.246l-.462.546A4.127,4.127,0,0,0,21.5.182Zm7.434,0c1.848,0,3-1.736,3-5.32,0-3.542-1.148-5.25-3-5.25s-3.01,1.708-3.01,5.25C25.928-1.554,27.076.182,28.938.182Zm0-.686c-1.33,0-2.2-1.54-2.2-4.634,0-3.038.868-4.564,2.2-4.564s2.184,1.526,2.184,4.564C31.122-2.044,30.254-.5,28.938-.5Z" transform="translate(435.99 359.011)"/>
  <path id="패스_1414" data-name="패스 1414" class="cls-3" d="M.63,0H6.776V-.728H3.6c-.532,0-1.12.042-1.68.084C4.634-3.178,6.286-5.32,6.286-7.462a2.674,2.674,0,0,0-2.828-2.926,3.752,3.752,0,0,0-2.87,1.47l.518.49A3.04,3.04,0,0,1,3.374-9.7,2.006,2.006,0,0,1,5.46-7.434C5.46-5.586,4.088-3.486.63-.5ZM7.924,0H14.07V-.728H10.892c-.532,0-1.12.042-1.68.084C11.928-3.178,13.58-5.32,13.58-7.462a2.674,2.674,0,0,0-2.828-2.926,3.752,3.752,0,0,0-2.87,1.47l.518.49A3.04,3.04,0,0,1,10.668-9.7a2.006,2.006,0,0,1,2.086,2.268c0,1.848-1.372,3.948-4.83,6.93Zm7.644,2.464a2.909,2.909,0,0,0,1.68-2.6c0-.742-.336-1.2-.84-1.2a.7.7,0,0,0-.742.7.686.686,0,0,0,.728.714.682.682,0,0,0,.168-.014A2.118,2.118,0,0,1,15.33,1.932ZM21.644.182c1.848,0,3-1.736,3-5.32,0-3.542-1.148-5.25-3-5.25s-3.01,1.708-3.01,5.25C18.634-1.554,19.782.182,21.644.182Zm0-.686c-1.33,0-2.2-1.54-2.2-4.634,0-3.038.868-4.564,2.2-4.564s2.184,1.526,2.184,4.564C23.828-2.044,22.96-.5,21.644-.5ZM26.39-3.6l2.772-4.046c.294-.462.574-.952.812-1.414h.07c-.042.476-.084,1.232-.084,1.694V-3.6Zm5.81,0H30.758v-6.608h-.8L25.452-3.43v.518H29.96V0h.8V-2.912H32.2ZM36.022.182a3.233,3.233,0,0,0,3.192-3.458c0-2.268-1.344-3.276-3.024-3.276a3.147,3.147,0,0,0-1.708.49l.294-3.43H38.71v-.714H34.048L33.7-5.544l.532.322a2.959,2.959,0,0,1,1.806-.644,2.312,2.312,0,0,1,2.338,2.618,2.5,2.5,0,0,1-2.38,2.73,3.436,3.436,0,0,1-2.674-1.2l-.448.574A4.2,4.2,0,0,0,36.022.182Z" transform="translate(511.968 212.011)"/>
  <path id="패스_1427" data-name="패스 1427" class="cls-3" d="M3.612.182A2.854,2.854,0,0,0,6.692-2.7a2.66,2.66,0,0,0-2.24-2.632V-5.4a2.547,2.547,0,0,0,1.876-2.52A2.484,2.484,0,0,0,3.57-10.4,3.965,3.965,0,0,0,.84-9.2l.476.56a3.2,3.2,0,0,1,2.24-1.078A1.787,1.787,0,0,1,5.488-7.868c0,1.218-.784,2.184-3.024,2.184V-5C4.9-5,5.852-4.074,5.852-2.7A2.125,2.125,0,0,1,3.584-.518,3.491,3.491,0,0,1,.9-1.764l-.462.546A4.127,4.127,0,0,0,3.612.182ZM8.274,2.464a2.909,2.909,0,0,0,1.68-2.6c0-.742-.336-1.2-.84-1.2a.7.7,0,0,0-.742.7A.686.686,0,0,0,9.1.07.682.682,0,0,0,9.268.056,2.118,2.118,0,0,1,8.036,1.932ZM14.714-.5c-1.554,0-2.352-1.428-2.478-3.668a3.068,3.068,0,0,1,2.338-1.456c1.456,0,2.072,1.064,2.072,2.548S15.82-.5,14.714-.5Zm2.548-8.9a2.794,2.794,0,0,0-2.17-.98c-1.918,0-3.668,1.456-3.668,5.572,0,3.248,1.3,5,3.276,5A3,3,0,0,0,17.458-3.08c0-2.1-1.036-3.206-2.772-3.206a3.285,3.285,0,0,0-2.464,1.33c.042-3.514,1.344-4.732,2.884-4.732a2.135,2.135,0,0,1,1.666.812ZM21.686.182a2.761,2.761,0,0,0,3.052-2.59A3,3,0,0,0,23-5.068v-.07a3.568,3.568,0,0,0,1.4-2.534,2.535,2.535,0,0,0-2.7-2.674,2.5,2.5,0,0,0-2.632,2.52,2.818,2.818,0,0,0,1.4,2.324v.056a3.452,3.452,0,0,0-1.946,2.912A2.879,2.879,0,0,0,21.686.182ZM22.4-5.362c-1.274-.5-2.548-1.078-2.548-2.464a1.787,1.787,0,0,1,1.834-1.862,1.918,1.918,0,0,1,1.96,2.044A2.977,2.977,0,0,1,22.4-5.362ZM21.686-.476a2.2,2.2,0,0,1-2.394-2.1,3.036,3.036,0,0,1,1.666-2.562c1.54.6,2.968,1.162,2.968,2.716A2.026,2.026,0,0,1,21.686-.476ZM28.056,0h.882c.154-3.99.658-6.538,3.08-9.716v-.49h-6.16v.714h5.166C28.994-6.664,28.224-4.074,28.056,0Z" transform="translate(511.968 367.439)"/>
  <path id="패스_1413" data-name="패스 1413" class="cls-3" d="M.63,0H6.776V-.728H3.6c-.532,0-1.12.042-1.68.084C4.634-3.178,6.286-5.32,6.286-7.462a2.674,2.674,0,0,0-2.828-2.926,3.752,3.752,0,0,0-2.87,1.47l.518.49A3.04,3.04,0,0,1,3.374-9.7,2.006,2.006,0,0,1,5.46-7.434C5.46-5.586,4.088-3.486.63-.5ZM10.906.182A2.854,2.854,0,0,0,13.986-2.7a2.66,2.66,0,0,0-2.24-2.632V-5.4a2.547,2.547,0,0,0,1.876-2.52A2.484,2.484,0,0,0,10.864-10.4a3.965,3.965,0,0,0-2.73,1.2l.476.56a3.2,3.2,0,0,1,2.24-1.078,1.787,1.787,0,0,1,1.932,1.848c0,1.218-.784,2.184-3.024,2.184V-5c2.436,0,3.388.924,3.388,2.3A2.125,2.125,0,0,1,10.878-.518,3.491,3.491,0,0,1,8.19-1.764l-.462.546A4.127,4.127,0,0,0,10.906.182Zm4.662,2.282a2.909,2.909,0,0,0,1.68-2.6c0-.742-.336-1.2-.84-1.2a.7.7,0,0,0-.742.7.686.686,0,0,0,.728.714.682.682,0,0,0,.168-.014A2.118,2.118,0,0,1,15.33,1.932ZM18.522,0h6.146V-.728H21.49c-.532,0-1.12.042-1.68.084,2.716-2.534,4.368-4.676,4.368-6.818a2.674,2.674,0,0,0-2.828-2.926,3.752,3.752,0,0,0-2.87,1.47l.518.49A3.04,3.04,0,0,1,21.266-9.7a2.006,2.006,0,0,1,2.086,2.268c0,1.848-1.372,3.948-4.83,6.93ZM28.938.182c1.848,0,3-1.736,3-5.32,0-3.542-1.148-5.25-3-5.25s-3.01,1.708-3.01,5.25C25.928-1.554,27.076.182,28.938.182Zm0-.686c-1.33,0-2.2-1.54-2.2-4.634,0-3.038.868-4.564,2.2-4.564s2.184,1.526,2.184,4.564C31.122-2.044,30.254-.5,28.938-.5Zm7.084.686a3.233,3.233,0,0,0,3.192-3.458c0-2.268-1.344-3.276-3.024-3.276a3.147,3.147,0,0,0-1.708.49l.294-3.43H38.71v-.714H34.048L33.7-5.544l.532.322a2.959,2.959,0,0,1,1.806-.644,2.312,2.312,0,0,1,2.338,2.618,2.5,2.5,0,0,1-2.38,2.73,3.436,3.436,0,0,1-2.674-1.2l-.448.574A4.2,4.2,0,0,0,36.022.182Z" transform="translate(587.946 188.015)"/>
  <path id="패스_1428" data-name="패스 1428" class="cls-3" d="M1.2-3.6,3.976-7.644c.294-.462.574-.952.812-1.414h.07c-.042.476-.084,1.232-.084,1.694V-3.6Zm5.81,0H5.572v-6.608h-.8L.266-3.43v.518H4.774V0h.8V-2.912H7.014Zm1.26,6.062a2.909,2.909,0,0,0,1.68-2.6c0-.742-.336-1.2-.84-1.2a.7.7,0,0,0-.742.7A.686.686,0,0,0,9.1.07.682.682,0,0,0,9.268.056,2.118,2.118,0,0,1,8.036,1.932ZM13.468,0h.882c.154-3.99.658-6.538,3.08-9.716v-.49H11.27v.714h5.166C14.406-6.664,13.636-4.074,13.468,0Zm8.218.182a2.761,2.761,0,0,0,3.052-2.59A3,3,0,0,0,23-5.068v-.07a3.568,3.568,0,0,0,1.4-2.534,2.535,2.535,0,0,0-2.7-2.674,2.5,2.5,0,0,0-2.632,2.52,2.818,2.818,0,0,0,1.4,2.324v.056a3.452,3.452,0,0,0-1.946,2.912A2.879,2.879,0,0,0,21.686.182ZM22.4-5.362c-1.274-.5-2.548-1.078-2.548-2.464a1.787,1.787,0,0,1,1.834-1.862,1.918,1.918,0,0,1,1.96,2.044A2.977,2.977,0,0,1,22.4-5.362ZM21.686-.476a2.2,2.2,0,0,1-2.394-2.1,3.036,3.036,0,0,1,1.666-2.562c1.54.6,2.968,1.162,2.968,2.716A2.026,2.026,0,0,1,21.686-.476ZM26.39-3.6l2.772-4.046c.294-.462.574-.952.812-1.414h.07c-.042.476-.084,1.232-.084,1.694V-3.6Zm5.81,0H30.758v-6.608h-.8L25.452-3.43v.518H29.96V0h.8V-2.912H32.2Z" transform="translate(587.946 357.009)"/>
  <path id="패스_1412" data-name="패스 1412" class="cls-3" d="M.63,0H6.776V-.728H3.6c-.532,0-1.12.042-1.68.084C4.634-3.178,6.286-5.32,6.286-7.462a2.674,2.674,0,0,0-2.828-2.926,3.752,3.752,0,0,0-2.87,1.47l.518.49A3.04,3.04,0,0,1,3.374-9.7,2.006,2.006,0,0,1,5.46-7.434C5.46-5.586,4.088-3.486.63-.5Zm9.534,0h.882c.154-3.99.658-6.538,3.08-9.716v-.49H7.966v.714h5.166C11.1-6.664,10.332-4.074,10.164,0Zm5.4,2.464a2.909,2.909,0,0,0,1.68-2.6c0-.742-.336-1.2-.84-1.2a.7.7,0,0,0-.742.7.686.686,0,0,0,.728.714.682.682,0,0,0,.168-.014A2.118,2.118,0,0,1,15.33,1.932ZM21.644.182c1.848,0,3-1.736,3-5.32,0-3.542-1.148-5.25-3-5.25s-3.01,1.708-3.01,5.25C18.634-1.554,19.782.182,21.644.182Zm0-.686c-1.33,0-2.2-1.54-2.2-4.634,0-3.038.868-4.564,2.2-4.564s2.184,1.526,2.184,4.564C23.828-2.044,22.96-.5,21.644-.5Zm6.412.5h.882c.154-3.99.658-6.538,3.08-9.716v-.49h-6.16v.714h5.166C28.994-6.664,28.224-4.074,28.056,0Zm8.036.182A2.854,2.854,0,0,0,39.172-2.7a2.66,2.66,0,0,0-2.24-2.632V-5.4a2.547,2.547,0,0,0,1.876-2.52A2.484,2.484,0,0,0,36.05-10.4a3.965,3.965,0,0,0-2.73,1.2l.476.56a3.2,3.2,0,0,1,2.24-1.078,1.787,1.787,0,0,1,1.932,1.848c0,1.218-.784,2.184-3.024,2.184V-5c2.436,0,3.388.924,3.388,2.3A2.125,2.125,0,0,1,36.064-.518a3.491,3.491,0,0,1-2.688-1.246l-.462.546A4.127,4.127,0,0,0,36.092.182Z" transform="translate(663.924 153.015)"/>
  <path id="패스_1429" data-name="패스 1429" class="cls-3" d="M3.542.182A3.233,3.233,0,0,0,6.734-3.276c0-2.268-1.344-3.276-3.024-3.276A3.147,3.147,0,0,0,2-6.062L2.3-9.492H6.23v-.714H1.568l-.35,4.662.532.322a2.959,2.959,0,0,1,1.806-.644A2.312,2.312,0,0,1,5.894-3.248a2.5,2.5,0,0,1-2.38,2.73A3.436,3.436,0,0,1,.84-1.722l-.448.574A4.2,4.2,0,0,0,3.542.182ZM8.274,2.464a2.909,2.909,0,0,0,1.68-2.6c0-.742-.336-1.2-.84-1.2a.7.7,0,0,0-.742.7A.686.686,0,0,0,9.1.07.682.682,0,0,0,9.268.056,2.118,2.118,0,0,1,8.036,1.932ZM11.886,0H17.15V-.714H15.022v-9.492h-.658a5.859,5.859,0,0,1-1.946.644v.546H14.2v8.3h-2.31Zm9.506-4.578c-1.414,0-2.044-1.078-2.044-2.548s.826-2.59,1.932-2.59c1.6,0,2.408,1.414,2.492,3.64A3.057,3.057,0,0,1,21.392-4.578ZM18.746-.8A2.98,2.98,0,0,0,21,.182c1.862,0,3.584-1.54,3.584-5.838,0-3.08-1.316-4.732-3.29-4.732a3,3,0,0,0-2.758,3.262c0,2.072,1.05,3.206,2.758,3.206a3.324,3.324,0,0,0,2.492-1.358C23.7-1.75,22.428-.518,21.014-.518a2.3,2.3,0,0,1-1.778-.812ZM28.98.182a2.761,2.761,0,0,0,3.052-2.59A3,3,0,0,0,30.3-5.068v-.07a3.568,3.568,0,0,0,1.4-2.534,2.535,2.535,0,0,0-2.7-2.674,2.5,2.5,0,0,0-2.632,2.52,2.818,2.818,0,0,0,1.4,2.324v.056a3.452,3.452,0,0,0-1.946,2.912A2.879,2.879,0,0,0,28.98.182Zm.714-5.544c-1.274-.5-2.548-1.078-2.548-2.464A1.787,1.787,0,0,1,28.98-9.688a1.918,1.918,0,0,1,1.96,2.044A2.977,2.977,0,0,1,29.694-5.362ZM28.98-.476a2.2,2.2,0,0,1-2.394-2.1,3.036,3.036,0,0,1,1.666-2.562c1.54.6,2.968,1.162,2.968,2.716A2.026,2.026,0,0,1,28.98-.476Z" transform="translate(663.924 350.009)"/>
  <path id="패스_1418" data-name="패스 1418" class="cls-3" d="M1.288,0H6.552V-.714H4.424v-9.492H3.766a5.859,5.859,0,0,1-1.946.644v.546H3.6v8.3H1.288Zm9.8.182a2.761,2.761,0,0,0,3.052-2.59A3,3,0,0,0,12.4-5.068v-.07a3.568,3.568,0,0,0,1.4-2.534,2.535,2.535,0,0,0-2.7-2.674A2.5,2.5,0,0,0,8.47-7.826,2.818,2.818,0,0,0,9.87-5.5v.056A3.452,3.452,0,0,0,7.924-2.534,2.879,2.879,0,0,0,11.088.182ZM11.8-5.362c-1.274-.5-2.548-1.078-2.548-2.464a1.787,1.787,0,0,1,1.834-1.862,1.918,1.918,0,0,1,1.96,2.044A2.977,2.977,0,0,1,11.8-5.362ZM11.088-.476a2.2,2.2,0,0,1-2.394-2.1A3.036,3.036,0,0,1,10.36-5.138c1.54.6,2.968,1.162,2.968,2.716A2.026,2.026,0,0,1,11.088-.476Zm4.48,2.94a2.909,2.909,0,0,0,1.68-2.6c0-.742-.336-1.2-.84-1.2a.7.7,0,0,0-.742.7.686.686,0,0,0,.728.714.682.682,0,0,0,.168-.014A2.118,2.118,0,0,1,15.33,1.932ZM21.644.182c1.848,0,3-1.736,3-5.32,0-3.542-1.148-5.25-3-5.25s-3.01,1.708-3.01,5.25C18.634-1.554,19.782.182,21.644.182Zm0-.686c-1.33,0-2.2-1.54-2.2-4.634,0-3.038.868-4.564,2.2-4.564s2.184,1.526,2.184,4.564C23.828-2.044,22.96-.5,21.644-.5ZM29.3-.5c-1.554,0-2.352-1.428-2.478-3.668a3.068,3.068,0,0,1,2.338-1.456c1.456,0,2.072,1.064,2.072,2.548S30.408-.5,29.3-.5Zm2.548-8.9a2.794,2.794,0,0,0-2.17-.98c-1.918,0-3.668,1.456-3.668,5.572,0,3.248,1.3,5,3.276,5A3,3,0,0,0,32.046-3.08c0-2.1-1.036-3.206-2.772-3.206a3.285,3.285,0,0,0-2.464,1.33c.042-3.514,1.344-4.732,2.884-4.732a2.135,2.135,0,0,1,1.666.812ZM36.274.182a2.761,2.761,0,0,0,3.052-2.59,3,3,0,0,0-1.736-2.66v-.07a3.568,3.568,0,0,0,1.4-2.534,2.535,2.535,0,0,0-2.7-2.674,2.5,2.5,0,0,0-2.632,2.52,2.818,2.818,0,0,0,1.4,2.324v.056A3.452,3.452,0,0,0,33.11-2.534,2.879,2.879,0,0,0,36.274.182Zm.714-5.544c-1.274-.5-2.548-1.078-2.548-2.464a1.787,1.787,0,0,1,1.834-1.862,1.918,1.918,0,0,1,1.96,2.044A2.977,2.977,0,0,1,36.988-5.362ZM36.274-.476a2.2,2.2,0,0,1-2.394-2.1,3.036,3.036,0,0,1,1.666-2.562c1.54.6,2.968,1.162,2.968,2.716A2.026,2.026,0,0,1,36.274-.476Z" transform="translate(206.432 251.015)"/>
  <path id="패스_1423" data-name="패스 1423" class="cls-3" d="M.63,0H6.776V-.728H3.6c-.532,0-1.12.042-1.68.084C4.634-3.178,6.286-5.32,6.286-7.462a2.674,2.674,0,0,0-2.828-2.926,3.752,3.752,0,0,0-2.87,1.47l.518.49A3.04,3.04,0,0,1,3.374-9.7,2.006,2.006,0,0,1,5.46-7.434C5.46-5.586,4.088-3.486.63-.5ZM8.274,2.464a2.909,2.909,0,0,0,1.68-2.6c0-.742-.336-1.2-.84-1.2a.7.7,0,0,0-.742.7A.686.686,0,0,0,9.1.07.682.682,0,0,0,9.268.056,2.118,2.118,0,0,1,8.036,1.932ZM14.14.182a3.233,3.233,0,0,0,3.192-3.458c0-2.268-1.344-3.276-3.024-3.276a3.147,3.147,0,0,0-1.708.49l.294-3.43h3.934v-.714H12.166l-.35,4.662.532.322a2.959,2.959,0,0,1,1.806-.644,2.312,2.312,0,0,1,2.338,2.618,2.5,2.5,0,0,1-2.38,2.73,3.436,3.436,0,0,1-2.674-1.2l-.448.574A4.2,4.2,0,0,0,14.14.182Zm7.294,0a3.233,3.233,0,0,0,3.192-3.458c0-2.268-1.344-3.276-3.024-3.276a3.147,3.147,0,0,0-1.708.49l.294-3.43h3.934v-.714H19.46l-.35,4.662.532.322a2.959,2.959,0,0,1,1.806-.644,2.312,2.312,0,0,1,2.338,2.618,2.5,2.5,0,0,1-2.38,2.73,3.436,3.436,0,0,1-2.674-1.2l-.448.574A4.2,4.2,0,0,0,21.434.182ZM25.816,0h6.146V-.728H28.784c-.532,0-1.12.042-1.68.084,2.716-2.534,4.368-4.676,4.368-6.818a2.674,2.674,0,0,0-2.828-2.926,3.752,3.752,0,0,0-2.87,1.47l.518.49A3.04,3.04,0,0,1,28.56-9.7a2.006,2.006,0,0,1,2.086,2.268c0,1.848-1.372,3.948-4.83,6.93Z" transform="translate(206.895 381.019)"/>
  <path id="패스_1417" data-name="패스 1417" class="cls-3" d="M1.288,0H6.552V-.714H4.424v-9.492H3.766a5.859,5.859,0,0,1-1.946.644v.546H3.6v8.3H1.288Zm9.506-4.578C9.38-4.578,8.75-5.656,8.75-7.126s.826-2.59,1.932-2.59c1.6,0,2.408,1.414,2.492,3.64A3.057,3.057,0,0,1,10.794-4.578ZM8.148-.8A2.98,2.98,0,0,0,10.4.182c1.862,0,3.584-1.54,3.584-5.838,0-3.08-1.316-4.732-3.29-4.732A3,3,0,0,0,7.938-7.126c0,2.072,1.05,3.206,2.758,3.206a3.324,3.324,0,0,0,2.492-1.358C13.1-1.75,11.83-.518,10.416-.518A2.3,2.3,0,0,1,8.638-1.33Zm7.42,3.262a2.909,2.909,0,0,0,1.68-2.6c0-.742-.336-1.2-.84-1.2a.7.7,0,0,0-.742.7.686.686,0,0,0,.728.714.682.682,0,0,0,.168-.014A2.118,2.118,0,0,1,15.33,1.932ZM21.5.182A2.854,2.854,0,0,0,24.584-2.7a2.66,2.66,0,0,0-2.24-2.632V-5.4a2.547,2.547,0,0,0,1.876-2.52A2.484,2.484,0,0,0,21.462-10.4a3.965,3.965,0,0,0-2.73,1.2l.476.56a3.2,3.2,0,0,1,2.24-1.078A1.787,1.787,0,0,1,23.38-7.868c0,1.218-.784,2.184-3.024,2.184V-5c2.436,0,3.388.924,3.388,2.3A2.125,2.125,0,0,1,21.476-.518a3.491,3.491,0,0,1-2.688-1.246l-.462.546A4.127,4.127,0,0,0,21.5.182Zm7.294,0A2.854,2.854,0,0,0,31.878-2.7a2.66,2.66,0,0,0-2.24-2.632V-5.4a2.547,2.547,0,0,0,1.876-2.52A2.484,2.484,0,0,0,28.756-10.4a3.965,3.965,0,0,0-2.73,1.2l.476.56a3.2,3.2,0,0,1,2.24-1.078,1.787,1.787,0,0,1,1.932,1.848c0,1.218-.784,2.184-3.024,2.184V-5c2.436,0,3.388.924,3.388,2.3A2.125,2.125,0,0,1,28.77-.518a3.491,3.491,0,0,1-2.688-1.246l-.462.546A4.127,4.127,0,0,0,28.8.182ZM35.35,0h.882c.154-3.99.658-6.538,3.08-9.716v-.49h-6.16v.714h5.166C36.288-6.664,35.518-4.074,35.35,0Z" transform="translate(284.02 238.247)"/>
  <path id="패스_1424" data-name="패스 1424" class="cls-3" d="M3.612.182A2.854,2.854,0,0,0,6.692-2.7a2.66,2.66,0,0,0-2.24-2.632V-5.4a2.547,2.547,0,0,0,1.876-2.52A2.484,2.484,0,0,0,3.57-10.4,3.965,3.965,0,0,0,.84-9.2l.476.56a3.2,3.2,0,0,1,2.24-1.078A1.787,1.787,0,0,1,5.488-7.868c0,1.218-.784,2.184-3.024,2.184V-5C4.9-5,5.852-4.074,5.852-2.7A2.125,2.125,0,0,1,3.584-.518,3.491,3.491,0,0,1,.9-1.764l-.462.546A4.127,4.127,0,0,0,3.612.182ZM8.274,2.464a2.909,2.909,0,0,0,1.68-2.6c0-.742-.336-1.2-.84-1.2a.7.7,0,0,0-.742.7A.686.686,0,0,0,9.1.07.682.682,0,0,0,9.268.056,2.118,2.118,0,0,1,8.036,1.932ZM14.21.182A2.854,2.854,0,0,0,17.29-2.7a2.66,2.66,0,0,0-2.24-2.632V-5.4a2.547,2.547,0,0,0,1.876-2.52A2.484,2.484,0,0,0,14.168-10.4a3.965,3.965,0,0,0-2.73,1.2l.476.56a3.2,3.2,0,0,1,2.24-1.078,1.787,1.787,0,0,1,1.932,1.848c0,1.218-.784,2.184-3.024,2.184V-5c2.436,0,3.388.924,3.388,2.3A2.125,2.125,0,0,1,14.182-.518a3.491,3.491,0,0,1-2.688-1.246l-.462.546A4.127,4.127,0,0,0,14.21.182Zm7.294,0A2.854,2.854,0,0,0,24.584-2.7a2.66,2.66,0,0,0-2.24-2.632V-5.4a2.547,2.547,0,0,0,1.876-2.52A2.484,2.484,0,0,0,21.462-10.4a3.965,3.965,0,0,0-2.73,1.2l.476.56a3.2,3.2,0,0,1,2.24-1.078A1.787,1.787,0,0,1,23.38-7.868c0,1.218-.784,2.184-3.024,2.184V-5c2.436,0,3.388.924,3.388,2.3A2.125,2.125,0,0,1,21.476-.518a3.491,3.491,0,0,1-2.688-1.246l-.462.546A4.127,4.127,0,0,0,21.5.182ZM25.816,0h6.146V-.728H28.784c-.532,0-1.12.042-1.68.084,2.716-2.534,4.368-4.676,4.368-6.818a2.674,2.674,0,0,0-2.828-2.926,3.752,3.752,0,0,0-2.87,1.47l.518.49A3.04,3.04,0,0,1,28.56-9.7a2.006,2.006,0,0,1,2.086,2.268c0,1.848-1.372,3.948-4.83,6.93Z" transform="translate(284.02 372.003)"/>
  <path id="패스_1416" data-name="패스 1416" class="cls-3" d="M.63,0H6.776V-.728H3.6c-.532,0-1.12.042-1.68.084C4.634-3.178,6.286-5.32,6.286-7.462a2.674,2.674,0,0,0-2.828-2.926,3.752,3.752,0,0,0-2.87,1.47l.518.49A3.04,3.04,0,0,1,3.374-9.7,2.006,2.006,0,0,1,5.46-7.434C5.46-5.586,4.088-3.486.63-.5ZM11.046.182c1.848,0,3-1.736,3-5.32,0-3.542-1.148-5.25-3-5.25s-3.01,1.708-3.01,5.25C8.036-1.554,9.184.182,11.046.182Zm0-.686c-1.33,0-2.2-1.54-2.2-4.634,0-3.038.868-4.564,2.2-4.564S13.23-8.176,13.23-5.138C13.23-2.044,12.362-.5,11.046-.5Zm4.522,2.968a2.909,2.909,0,0,0,1.68-2.6c0-.742-.336-1.2-.84-1.2a.7.7,0,0,0-.742.7.686.686,0,0,0,.728.714.682.682,0,0,0,.168-.014A2.118,2.118,0,0,1,15.33,1.932ZM19.18,0h5.264V-.714H22.316v-9.492h-.658a5.859,5.859,0,0,1-1.946.644v.546H21.49v8.3H19.18ZM28.8.182A2.854,2.854,0,0,0,31.878-2.7a2.66,2.66,0,0,0-2.24-2.632V-5.4a2.547,2.547,0,0,0,1.876-2.52A2.484,2.484,0,0,0,28.756-10.4a3.965,3.965,0,0,0-2.73,1.2l.476.56a3.2,3.2,0,0,1,2.24-1.078,1.787,1.787,0,0,1,1.932,1.848c0,1.218-.784,2.184-3.024,2.184V-5c2.436,0,3.388.924,3.388,2.3A2.125,2.125,0,0,1,28.77-.518a3.491,3.491,0,0,1-2.688-1.246l-.462.546A4.127,4.127,0,0,0,28.8.182ZM36.6-.5c-1.554,0-2.352-1.428-2.478-3.668a3.068,3.068,0,0,1,2.338-1.456c1.456,0,2.072,1.064,2.072,2.548S37.7-.5,36.6-.5Zm2.548-8.9a2.794,2.794,0,0,0-2.17-.98c-1.918,0-3.668,1.456-3.668,5.572,0,3.248,1.3,5,3.276,5A3,3,0,0,0,39.34-3.08c0-2.1-1.036-3.206-2.772-3.206A3.285,3.285,0,0,0,34.1-4.956c.042-3.514,1.344-4.732,2.884-4.732a2.135,2.135,0,0,1,1.666.812Z" transform="translate(359.998 225.997)"/>
  <path id="패스_1425" data-name="패스 1425" class="cls-3" d="M3.612.182A2.854,2.854,0,0,0,6.692-2.7a2.66,2.66,0,0,0-2.24-2.632V-5.4a2.547,2.547,0,0,0,1.876-2.52A2.484,2.484,0,0,0,3.57-10.4,3.965,3.965,0,0,0,.84-9.2l.476.56a3.2,3.2,0,0,1,2.24-1.078A1.787,1.787,0,0,1,5.488-7.868c0,1.218-.784,2.184-3.024,2.184V-5C4.9-5,5.852-4.074,5.852-2.7A2.125,2.125,0,0,1,3.584-.518,3.491,3.491,0,0,1,.9-1.764l-.462.546A4.127,4.127,0,0,0,3.612.182ZM8.274,2.464a2.909,2.909,0,0,0,1.68-2.6c0-.742-.336-1.2-.84-1.2a.7.7,0,0,0-.742.7A.686.686,0,0,0,9.1.07.682.682,0,0,0,9.268.056,2.118,2.118,0,0,1,8.036,1.932ZM13.468,0h.882c.154-3.99.658-6.538,3.08-9.716v-.49H11.27v.714h5.166C14.406-6.664,13.636-4.074,13.468,0Zm7.294,0h.882c.154-3.99.658-6.538,3.08-9.716v-.49h-6.16v.714H23.73C21.7-6.664,20.93-4.074,20.762,0Zm7.966.182A3.233,3.233,0,0,0,31.92-3.276c0-2.268-1.344-3.276-3.024-3.276a3.147,3.147,0,0,0-1.708.49l.294-3.43h3.934v-.714H26.754L26.4-5.544l.532.322a2.959,2.959,0,0,1,1.806-.644A2.312,2.312,0,0,1,31.08-3.248,2.5,2.5,0,0,1,28.7-.518a3.436,3.436,0,0,1-2.674-1.2l-.448.574A4.2,4.2,0,0,0,28.728.182Z" transform="translate(359.998 365.871)"/>
  <path id="패스_1420" data-name="패스 1420" class="cls-3" d="M1.288,0H6.552V-.714H4.424v-9.492H3.766a5.859,5.859,0,0,1-1.946.644v.546H3.6v8.3H1.288Zm9.548.182a3.233,3.233,0,0,0,3.192-3.458c0-2.268-1.344-3.276-3.024-3.276a3.147,3.147,0,0,0-1.708.49l.294-3.43h3.934v-.714H8.862l-.35,4.662.532.322a2.959,2.959,0,0,1,1.806-.644,2.312,2.312,0,0,1,2.338,2.618,2.5,2.5,0,0,1-2.38,2.73,3.436,3.436,0,0,1-2.674-1.2l-.448.574A4.2,4.2,0,0,0,10.836.182Zm4.732,2.282a2.909,2.909,0,0,0,1.68-2.6c0-.742-.336-1.2-.84-1.2a.7.7,0,0,0-.742.7.686.686,0,0,0,.728.714.682.682,0,0,0,.168-.014A2.118,2.118,0,0,1,15.33,1.932ZM19.18,0h5.264V-.714H22.316v-9.492h-.658a5.859,5.859,0,0,1-1.946.644v.546H21.49v8.3H19.18Zm9.506-4.578c-1.414,0-2.044-1.078-2.044-2.548s.826-2.59,1.932-2.59c1.6,0,2.408,1.414,2.492,3.64A3.057,3.057,0,0,1,28.686-4.578ZM26.04-.8a2.98,2.98,0,0,0,2.254.98c1.862,0,3.584-1.54,3.584-5.838,0-3.08-1.316-4.732-3.29-4.732A3,3,0,0,0,25.83-7.126c0,2.072,1.05,3.206,2.758,3.206A3.324,3.324,0,0,0,31.08-5.278C31-1.75,29.722-.518,28.308-.518A2.3,2.3,0,0,1,26.53-1.33Zm7.728.8h5.264V-.714H36.9v-9.492h-.658a5.859,5.859,0,0,1-1.946.644v.546h1.778v8.3h-2.31Z" transform="translate(57.023 276.005)"/>
  <path id="패스_1421" data-name="패스 1421" class="cls-3" d="M.63,0H6.776V-.728H3.6c-.532,0-1.12.042-1.68.084C4.634-3.178,6.286-5.32,6.286-7.462a2.674,2.674,0,0,0-2.828-2.926,3.752,3.752,0,0,0-2.87,1.47l.518.49A3.04,3.04,0,0,1,3.374-9.7,2.006,2.006,0,0,1,5.46-7.434C5.46-5.586,4.088-3.486.63-.5ZM8.274,2.464a2.909,2.909,0,0,0,1.68-2.6c0-.742-.336-1.2-.84-1.2a.7.7,0,0,0-.742.7A.686.686,0,0,0,9.1.07.682.682,0,0,0,9.268.056,2.118,2.118,0,0,1,8.036,1.932ZM11.228,0h6.146V-.728H14.2c-.532,0-1.12.042-1.68.084,2.716-2.534,4.368-4.676,4.368-6.818a2.674,2.674,0,0,0-2.828-2.926,3.752,3.752,0,0,0-2.87,1.47l.518.49A3.04,3.04,0,0,1,13.972-9.7a2.006,2.006,0,0,1,2.086,2.268c0,1.848-1.372,3.948-4.83,6.93ZM21.686.182a2.761,2.761,0,0,0,3.052-2.59A3,3,0,0,0,23-5.068v-.07a3.568,3.568,0,0,0,1.4-2.534,2.535,2.535,0,0,0-2.7-2.674,2.5,2.5,0,0,0-2.632,2.52,2.818,2.818,0,0,0,1.4,2.324v.056a3.452,3.452,0,0,0-1.946,2.912A2.879,2.879,0,0,0,21.686.182ZM22.4-5.362c-1.274-.5-2.548-1.078-2.548-2.464a1.787,1.787,0,0,1,1.834-1.862,1.918,1.918,0,0,1,1.96,2.044A2.977,2.977,0,0,1,22.4-5.362ZM21.686-.476a2.2,2.2,0,0,1-2.394-2.1,3.036,3.036,0,0,1,1.666-2.562c1.54.6,2.968,1.162,2.968,2.716A2.026,2.026,0,0,1,21.686-.476ZM28.98.182a2.761,2.761,0,0,0,3.052-2.59A3,3,0,0,0,30.3-5.068v-.07a3.568,3.568,0,0,0,1.4-2.534,2.535,2.535,0,0,0-2.7-2.674,2.5,2.5,0,0,0-2.632,2.52,2.818,2.818,0,0,0,1.4,2.324v.056a3.452,3.452,0,0,0-1.946,2.912A2.879,2.879,0,0,0,28.98.182Zm.714-5.544c-1.274-.5-2.548-1.078-2.548-2.464A1.787,1.787,0,0,1,28.98-9.688a1.918,1.918,0,0,1,1.96,2.044A2.977,2.977,0,0,1,29.694-5.362ZM28.98-.476a2.2,2.2,0,0,1-2.394-2.1,3.036,3.036,0,0,1,1.666-2.562c1.54.6,2.968,1.162,2.968,2.716A2.026,2.026,0,0,1,28.98-.476Z" transform="translate(57.023 384.001)"/>
  <path id="패스_1419" data-name="패스 1419" class="cls-3" d="M1.288,0H6.552V-.714H4.424v-9.492H3.766a5.859,5.859,0,0,1-1.946.644v.546H3.6v8.3H1.288Zm8.876,0h.882c.154-3.99.658-6.538,3.08-9.716v-.49H7.966v.714h5.166C11.1-6.664,10.332-4.074,10.164,0Zm5.4,2.464a2.909,2.909,0,0,0,1.68-2.6c0-.742-.336-1.2-.84-1.2a.7.7,0,0,0-.742.7.686.686,0,0,0,.728.714.682.682,0,0,0,.168-.014A2.118,2.118,0,0,1,15.33,1.932ZM21.644.182c1.848,0,3-1.736,3-5.32,0-3.542-1.148-5.25-3-5.25s-3.01,1.708-3.01,5.25C18.634-1.554,19.782.182,21.644.182Zm0-.686c-1.33,0-2.2-1.54-2.2-4.634,0-3.038.868-4.564,2.2-4.564s2.184,1.526,2.184,4.564C23.828-2.044,22.96-.5,21.644-.5Zm7.042-4.074c-1.414,0-2.044-1.078-2.044-2.548s.826-2.59,1.932-2.59c1.6,0,2.408,1.414,2.492,3.64A3.057,3.057,0,0,1,28.686-4.578ZM26.04-.8a2.98,2.98,0,0,0,2.254.98c1.862,0,3.584-1.54,3.584-5.838,0-3.08-1.316-4.732-3.29-4.732A3,3,0,0,0,25.83-7.126c0,2.072,1.05,3.206,2.758,3.206A3.324,3.324,0,0,0,31.08-5.278C31-1.75,29.722-.518,28.308-.518A2.3,2.3,0,0,1,26.53-1.33Zm9.94-3.78c-1.414,0-2.044-1.078-2.044-2.548s.826-2.59,1.932-2.59c1.6,0,2.408,1.414,2.492,3.64A3.057,3.057,0,0,1,35.98-4.578ZM33.334-.8a2.98,2.98,0,0,0,2.254.98c1.862,0,3.584-1.54,3.584-5.838,0-3.08-1.316-4.732-3.29-4.732a3,3,0,0,0-2.758,3.262c0,2.072,1.05,3.206,2.758,3.206a3.324,3.324,0,0,0,2.492-1.358C38.29-1.75,37.016-.518,35.6-.518a2.3,2.3,0,0,1-1.778-.812Z" transform="translate(132.05 261.277)"/>
  <path id="패스_1422" data-name="패스 1422" class="cls-3" d="M.63,0H6.776V-.728H3.6c-.532,0-1.12.042-1.68.084C4.634-3.178,6.286-5.32,6.286-7.462a2.674,2.674,0,0,0-2.828-2.926,3.752,3.752,0,0,0-2.87,1.47l.518.49A3.04,3.04,0,0,1,3.374-9.7,2.006,2.006,0,0,1,5.46-7.434C5.46-5.586,4.088-3.486.63-.5ZM8.274,2.464a2.909,2.909,0,0,0,1.68-2.6c0-.742-.336-1.2-.84-1.2a.7.7,0,0,0-.742.7A.686.686,0,0,0,9.1.07.682.682,0,0,0,9.268.056,2.118,2.118,0,0,1,8.036,1.932ZM11.8-3.6l2.772-4.046c.294-.462.574-.952.812-1.414h.07c-.042.476-.084,1.232-.084,1.694V-3.6Zm5.81,0H16.17v-6.608h-.8L10.864-3.43v.518h4.508V0h.8V-2.912h1.442Zm.91,3.6h6.146V-.728H21.49c-.532,0-1.12.042-1.68.084,2.716-2.534,4.368-4.676,4.368-6.818a2.674,2.674,0,0,0-2.828-2.926,3.752,3.752,0,0,0-2.87,1.47l.518.49A3.04,3.04,0,0,1,21.266-9.7a2.006,2.006,0,0,1,2.086,2.268c0,1.848-1.372,3.948-4.83,6.93ZM28.728.182A3.233,3.233,0,0,0,31.92-3.276c0-2.268-1.344-3.276-3.024-3.276a3.147,3.147,0,0,0-1.708.49l.294-3.43h3.934v-.714H26.754L26.4-5.544l.532.322a2.959,2.959,0,0,1,1.806-.644A2.312,2.312,0,0,1,31.08-3.248,2.5,2.5,0,0,1,28.7-.518a3.436,3.436,0,0,1-2.674-1.2l-.448.574A4.2,4.2,0,0,0,28.728.182Z" transform="translate(132.05 381.999)"/>
  <line id="선_61" data-name="선 61" class="cls-6" y1="121.92" transform="translate(56.438 295.429)"/>
  <line id="선_62" data-name="선 62" class="cls-6" y1="141" transform="translate(132.311 276.349)"/>
  <line id="선_63" data-name="선 63" class="cls-6" y1="150.1" transform="translate(208.317 266.659)"/>
  <line id="선_64" data-name="선 64" class="cls-6" y1="163.38" transform="translate(284.19 253.969)"/>
  <line id="선_65" data-name="선 65" class="cls-6" y1="171.37" transform="translate(359.929 245.979)"/>
  <line id="선_66" data-name="선 66" class="cls-6" y1="186.14" transform="translate(435.802 231.209)"/>
  <line id="선_67" data-name="선 67" class="cls-6" y1="190.46" transform="translate(511.944 226.889)"/>
  <line id="선_68" data-name="선 68" class="cls-6" y1="202.06" transform="translate(587.816 215.289)"/>
  <line id="선_69" data-name="선 69" class="cls-6" y1="242.658" transform="translate(663.556 174.691)"/>
  <path id="패스_36" data-name="패스 36" class="cls-7" d="M12686.046,1300.576l76.205-19.492,76.134-9.692,75.865-12.691,75.73-9.277,75.865-15,76.134-4,75.6-10.407,76-40.6,76.2-28.852" transform="translate(-12629.92 -1004.732)"/>
  <path id="패스_37" data-name="패스 37" class="cls-8" d="M12686.011,1399.424h76.348l76.007-5.23,75.873-5.282,75.738-5.16,75.873-5.281,76.141,7.8,75.6-13.231,75.873-6.269,76.347,7.8" transform="translate(-12629.92 -1004.732)"/>
  <path id="패스_1411" data-name="패스 1411" class="cls-9" d="M5.628.273c2.835,0,5.166-1.638,5.166-4.431A3.914,3.914,0,0,0,7.6-8.022v-.1a3.736,3.736,0,0,0,2.667-3.633c0-2.562-1.953-3.99-4.725-3.99a6.514,6.514,0,0,0-4.431,1.869l1.26,1.512a4.526,4.526,0,0,1,3.087-1.47,2.163,2.163,0,0,1,2.373,2.247c0,1.554-1.008,2.709-4.053,2.709V-7.1c3.486,0,4.578,1.113,4.578,2.835,0,1.6-1.2,2.562-2.94,2.562A5,5,0,0,1,1.764-3.4L.588-1.848A6.415,6.415,0,0,0,5.628.273Zm11.928,0c3.024,0,5-2.688,5-8.064,0-5.334-1.974-7.959-5-7.959-3.045,0-5,2.6-5,7.959C12.558-2.415,14.511.273,17.556.273Zm0-1.911c-1.575,0-2.688-1.68-2.688-6.153,0-4.431,1.113-6.048,2.688-6.048s2.688,1.617,2.688,6.048C20.244-3.318,19.131-1.638,17.556-1.638ZM24.8,4.2A4.923,4.923,0,0,0,28.245-.525c0-1.617-.693-2.6-1.869-2.6A1.569,1.569,0,0,0,24.7-1.575,1.514,1.514,0,0,0,26.313-.021a.861.861,0,0,0,.231-.021,3.26,3.26,0,0,1-2.289,2.877ZM30.786,0h8.82V-2H36.582V-15.456H34.755A9.494,9.494,0,0,1,31.4-14.28v1.533h2.772V-2H30.786ZM46.557.273c2.982,0,5-1.764,5-4.053a4.541,4.541,0,0,0-2.6-4.095V-7.98a4.8,4.8,0,0,0,2.037-3.633c0-2.415-1.68-4.1-4.368-4.1-2.541,0-4.41,1.575-4.41,3.99a4.37,4.37,0,0,0,2.079,3.612V-8a4.734,4.734,0,0,0-2.772,4.158C41.517-1.449,43.659.273,46.557.273Zm1.008-8.862c-1.722-.672-3.192-1.449-3.192-3.129a2.116,2.116,0,0,1,2.205-2.247,2.293,2.293,0,0,1,2.373,2.5A3.913,3.913,0,0,1,47.565-8.589ZM46.6-1.47a2.706,2.706,0,0,1-2.94-2.6,3.943,3.943,0,0,1,1.806-3.234c2.1.861,3.8,1.575,3.8,3.465A2.391,2.391,0,0,1,46.6-1.47ZM57.771-7.56c-1.617,0-2.5-1.134-2.5-3.108,0-2.016,1.05-3.213,2.373-3.213,1.68,0,2.835,1.386,3.066,4.431A3.707,3.707,0,0,1,57.771-7.56Zm-4.494,6.2A5.3,5.3,0,0,0,57.225.273c2.982,0,5.754-2.436,5.754-8.526,0-5.1-2.394-7.5-5.355-7.5-2.5,0-4.6,2.016-4.6,5.082,0,3.234,1.743,4.851,4.326,4.851a4.647,4.647,0,0,0,3.4-1.806C60.606-3.213,58.989-1.7,57.12-1.7a3.445,3.445,0,0,1-2.541-1.155Z" transform="translate(675.205 106.32)"/>
  <path id="패스_1430" data-name="패스 1430" class="cls-3" d="M2.856-6.027,5.9-10.689c.441-.8.861-1.6,1.239-2.373h.084c-.042.84-.126,2.142-.126,2.982v4.053Zm8.484,0H9.366v-9.429H6.573L.42-5.775v1.617H7.1V0H9.366V-4.158H11.34ZM13.23,4.2A4.923,4.923,0,0,0,16.674-.525c0-1.617-.693-2.6-1.869-2.6a1.569,1.569,0,0,0-1.68,1.554A1.514,1.514,0,0,0,14.742-.021a.861.861,0,0,0,.231-.021,3.26,3.26,0,0,1-2.289,2.877ZM23.037.273a5.1,5.1,0,0,0,5.208-5.355c0-3.381-2.121-4.914-4.7-4.914a4.357,4.357,0,0,0-2.121.546l.357-3.969H27.51v-2.037H19.677l-.462,7.329,1.176.777a4.066,4.066,0,0,1,2.478-.882c1.764,0,2.94,1.176,2.94,3.234a3.021,3.021,0,0,1-3.066,3.3A4.946,4.946,0,0,1,19.131-3.36L17.976-1.785A6.84,6.84,0,0,0,23.037.273Zm11.949,0c2.982,0,5-1.764,5-4.053a4.541,4.541,0,0,0-2.6-4.095V-7.98a4.8,4.8,0,0,0,2.037-3.633c0-2.415-1.68-4.1-4.368-4.1-2.541,0-4.41,1.575-4.41,3.99a4.37,4.37,0,0,0,2.079,3.612V-8a4.734,4.734,0,0,0-2.772,4.158C29.946-1.449,32.088.273,34.986.273Zm1.008-8.862c-1.722-.672-3.192-1.449-3.192-3.129a2.116,2.116,0,0,1,2.205-2.247,2.293,2.293,0,0,1,2.373,2.5A3.913,3.913,0,0,1,35.994-8.589ZM35.028-1.47a2.706,2.706,0,0,1-2.94-2.6,3.943,3.943,0,0,1,1.806-3.234c2.1.861,3.8,1.575,3.8,3.465A2.391,2.391,0,0,1,35.028-1.47ZM46.179.273c2.835,0,5.166-1.638,5.166-4.431a3.914,3.914,0,0,0-3.192-3.864v-.1A3.736,3.736,0,0,0,50.82-11.76c0-2.562-1.953-3.99-4.725-3.99a6.514,6.514,0,0,0-4.431,1.869l1.26,1.512a4.526,4.526,0,0,1,3.087-1.47,2.163,2.163,0,0,1,2.373,2.247c0,1.554-1.008,2.709-4.053,2.709V-7.1c3.486,0,4.578,1.113,4.578,2.835,0,1.6-1.2,2.562-2.94,2.562a5,5,0,0,1-3.654-1.7L41.139-1.848A6.415,6.415,0,0,0,46.179.273Z" transform="translate(683.773 314.22)"/>
</svg>
