<svg id="구성_요소_83_1" data-name="구성 요소 83 – 1" xmlns="http://www.w3.org/2000/svg" width="796" height="370" viewBox="0 0 796 370">
  <defs>
    <style>
      .cls-1 {
        fill: #f5f7f7;
      }

      .cls-2, .cls-4, .cls-5, .cls-7 {
        fill: none;
      }

      .cls-2 {
        stroke: #3e3a39;
      }

      .cls-3 {
        fill: #1e2323;
      }

      .cls-4 {
        stroke: #828585;
        stroke-width: 0.283px;
      }

      .cls-5 {
        stroke: #5171b1;
        stroke-width: 0.5px;
      }

      .cls-6 {
        fill: #132e54;
      }

      .cls-7 {
        stroke: #78a5e2;
        stroke-width: 3px;
      }

      .cls-8 {
        fill: #5171b1;
      }
    </style>
  </defs>
  <rect id="사각형_9" data-name="사각형 9" class="cls-1" width="796" height="370"/>
  <line id="선_72" data-name="선 72" class="cls-2" x2="756" transform="translate(20 312.01)"/>
  <path id="패스_1447" data-name="패스 1447" class="cls-3" d="M1.2-3.6,3.976-7.644c.294-.462.574-.952.812-1.414h.07c-.042.476-.084,1.232-.084,1.694V-3.6Zm5.81,0H5.572v-6.608h-.8L.266-3.43v.518H4.774V0h.8V-2.912H7.014Zm1.26,6.062a2.909,2.909,0,0,0,1.68-2.6c0-.742-.336-1.2-.84-1.2a.7.7,0,0,0-.742.7A.686.686,0,0,0,9.1.07.682.682,0,0,0,9.268.056,2.118,2.118,0,0,1,8.036,1.932ZM11.8-3.6l2.772-4.046c.294-.462.574-.952.812-1.414h.07c-.042.476-.084,1.232-.084,1.694V-3.6Zm5.81,0H16.17v-6.608h-.8L10.864-3.43v.518h4.508V0h.8V-2.912h1.442ZM21.5.182A2.854,2.854,0,0,0,24.584-2.7a2.66,2.66,0,0,0-2.24-2.632V-5.4a2.547,2.547,0,0,0,1.876-2.52A2.484,2.484,0,0,0,21.462-10.4a3.965,3.965,0,0,0-2.73,1.2l.476.56a3.2,3.2,0,0,1,2.24-1.078A1.787,1.787,0,0,1,23.38-7.868c0,1.218-.784,2.184-3.024,2.184V-5c2.436,0,3.388.924,3.388,2.3A2.125,2.125,0,0,1,21.476-.518a3.491,3.491,0,0,1-2.688-1.246l-.462.546A4.127,4.127,0,0,0,21.5.182Zm7.224,0A3.233,3.233,0,0,0,31.92-3.276c0-2.268-1.344-3.276-3.024-3.276a3.147,3.147,0,0,0-1.708.49l.294-3.43h3.934v-.714H26.754L26.4-5.544l.532.322a2.959,2.959,0,0,1,1.806-.644A2.312,2.312,0,0,1,31.08-3.248,2.5,2.5,0,0,1,28.7-.518a3.436,3.436,0,0,1-2.674-1.2l-.448.574A4.2,4.2,0,0,0,28.728.182Z" transform="translate(117.818 186.894)"/>
  <path id="패스_1446" data-name="패스 1446" class="cls-3" d="M1.2-3.6,3.976-7.644c.294-.462.574-.952.812-1.414h.07c-.042.476-.084,1.232-.084,1.694V-3.6Zm5.81,0H5.572v-6.608h-.8L.266-3.43v.518H4.774V0h.8V-2.912H7.014Zm1.26,6.062a2.909,2.909,0,0,0,1.68-2.6c0-.742-.336-1.2-.84-1.2a.7.7,0,0,0-.742.7A.686.686,0,0,0,9.1.07.682.682,0,0,0,9.268.056,2.118,2.118,0,0,1,8.036,1.932ZM14.714-.5c-1.554,0-2.352-1.428-2.478-3.668a3.068,3.068,0,0,1,2.338-1.456c1.456,0,2.072,1.064,2.072,2.548S15.82-.5,14.714-.5Zm2.548-8.9a2.794,2.794,0,0,0-2.17-.98c-1.918,0-3.668,1.456-3.668,5.572,0,3.248,1.3,5,3.276,5A3,3,0,0,0,17.458-3.08c0-2.1-1.036-3.206-2.772-3.206a3.285,3.285,0,0,0-2.464,1.33c.042-3.514,1.344-4.732,2.884-4.732a2.135,2.135,0,0,1,1.666.812ZM19.18,0h5.264V-.714H22.316v-9.492h-.658a5.859,5.859,0,0,1-1.946.644v.546H21.49v8.3H19.18Zm9.758.182c1.848,0,3-1.736,3-5.32,0-3.542-1.148-5.25-3-5.25s-3.01,1.708-3.01,5.25C25.928-1.554,27.076.182,28.938.182Zm0-.686c-1.33,0-2.2-1.54-2.2-4.634,0-3.038.868-4.564,2.2-4.564s2.184,1.526,2.184,4.564C31.122-2.044,30.254-.5,28.938-.5Z" transform="translate(210.961 177.583)"/>
  <path id="패스_1445" data-name="패스 1445" class="cls-3" d="M1.2-3.6,3.976-7.644c.294-.462.574-.952.812-1.414h.07c-.042.476-.084,1.232-.084,1.694V-3.6Zm5.81,0H5.572v-6.608h-.8L.266-3.43v.518H4.774V0h.8V-2.912H7.014Zm1.26,6.062a2.909,2.909,0,0,0,1.68-2.6c0-.742-.336-1.2-.84-1.2a.7.7,0,0,0-.742.7A.686.686,0,0,0,9.1.07.682.682,0,0,0,9.268.056,2.118,2.118,0,0,1,8.036,1.932ZM14.392.182a2.761,2.761,0,0,0,3.052-2.59,3,3,0,0,0-1.736-2.66v-.07a3.568,3.568,0,0,0,1.4-2.534,2.535,2.535,0,0,0-2.7-2.674,2.5,2.5,0,0,0-2.632,2.52,2.818,2.818,0,0,0,1.4,2.324v.056a3.452,3.452,0,0,0-1.946,2.912A2.879,2.879,0,0,0,14.392.182Zm.714-5.544c-1.274-.5-2.548-1.078-2.548-2.464a1.787,1.787,0,0,1,1.834-1.862,1.918,1.918,0,0,1,1.96,2.044A2.977,2.977,0,0,1,15.106-5.362ZM14.392-.476A2.2,2.2,0,0,1,12-2.576a3.036,3.036,0,0,1,1.666-2.562c1.54.6,2.968,1.162,2.968,2.716A2.026,2.026,0,0,1,14.392-.476ZM21.5.182A2.854,2.854,0,0,0,24.584-2.7a2.66,2.66,0,0,0-2.24-2.632V-5.4a2.547,2.547,0,0,0,1.876-2.52A2.484,2.484,0,0,0,21.462-10.4a3.965,3.965,0,0,0-2.73,1.2l.476.56a3.2,3.2,0,0,1,2.24-1.078A1.787,1.787,0,0,1,23.38-7.868c0,1.218-.784,2.184-3.024,2.184V-5c2.436,0,3.388.924,3.388,2.3A2.125,2.125,0,0,1,21.476-.518a3.491,3.491,0,0,1-2.688-1.246l-.462.546A4.127,4.127,0,0,0,21.5.182ZM25.816,0h6.146V-.728H28.784c-.532,0-1.12.042-1.68.084,2.716-2.534,4.368-4.676,4.368-6.818a2.674,2.674,0,0,0-2.828-2.926,3.752,3.752,0,0,0-2.87,1.47l.518.49A3.04,3.04,0,0,1,28.56-9.7a2.006,2.006,0,0,1,2.086,2.268c0,1.848-1.372,3.948-4.83,6.93Z" transform="translate(304.383 165.264)"/>
  <path id="패스_1444" data-name="패스 1444" class="cls-3" d="M1.2-3.6,3.976-7.644c.294-.462.574-.952.812-1.414h.07c-.042.476-.084,1.232-.084,1.694V-3.6Zm5.81,0H5.572v-6.608h-.8L.266-3.43v.518H4.774V0h.8V-2.912H7.014Zm1.26,6.062a2.909,2.909,0,0,0,1.68-2.6c0-.742-.336-1.2-.84-1.2a.7.7,0,0,0-.742.7A.686.686,0,0,0,9.1.07.682.682,0,0,0,9.268.056,2.118,2.118,0,0,1,8.036,1.932ZM14.392.182a2.761,2.761,0,0,0,3.052-2.59,3,3,0,0,0-1.736-2.66v-.07a3.568,3.568,0,0,0,1.4-2.534,2.535,2.535,0,0,0-2.7-2.674,2.5,2.5,0,0,0-2.632,2.52,2.818,2.818,0,0,0,1.4,2.324v.056a3.452,3.452,0,0,0-1.946,2.912A2.879,2.879,0,0,0,14.392.182Zm.714-5.544c-1.274-.5-2.548-1.078-2.548-2.464a1.787,1.787,0,0,1,1.834-1.862,1.918,1.918,0,0,1,1.96,2.044A2.977,2.977,0,0,1,15.106-5.362ZM14.392-.476A2.2,2.2,0,0,1,12-2.576a3.036,3.036,0,0,1,1.666-2.562c1.54.6,2.968,1.162,2.968,2.716A2.026,2.026,0,0,1,14.392-.476ZM19.1-3.6l2.772-4.046c.294-.462.574-.952.812-1.414h.07c-.042.476-.084,1.232-.084,1.694V-3.6Zm5.81,0H23.464v-6.608h-.8L18.158-3.43v.518h4.508V0h.8V-2.912h1.442Zm3.78-.98c-1.414,0-2.044-1.078-2.044-2.548s.826-2.59,1.932-2.59c1.6,0,2.408,1.414,2.492,3.64A3.057,3.057,0,0,1,28.686-4.578ZM26.04-.8a2.98,2.98,0,0,0,2.254.98c1.862,0,3.584-1.54,3.584-5.838,0-3.08-1.316-4.732-3.29-4.732A3,3,0,0,0,25.83-7.126c0,2.072,1.05,3.206,2.758,3.206A3.324,3.324,0,0,0,31.08-5.278C31-1.75,29.722-.518,28.308-.518A2.3,2.3,0,0,1,26.53-1.33Z" transform="translate(397.847 156.85)"/>
  <path id="패스_1443" data-name="패스 1443" class="cls-3" d="M1.2-3.6,3.976-7.644c.294-.462.574-.952.812-1.414h.07c-.042.476-.084,1.232-.084,1.694V-3.6Zm5.81,0H5.572v-6.608h-.8L.266-3.43v.518H4.774V0h.8V-2.912H7.014Zm1.26,6.062a2.909,2.909,0,0,0,1.68-2.6c0-.742-.336-1.2-.84-1.2a.7.7,0,0,0-.742.7A.686.686,0,0,0,9.1.07.682.682,0,0,0,9.268.056,2.118,2.118,0,0,1,8.036,1.932ZM14.1-4.578c-1.414,0-2.044-1.078-2.044-2.548s.826-2.59,1.932-2.59c1.6,0,2.408,1.414,2.492,3.64A3.057,3.057,0,0,1,14.1-4.578ZM11.452-.8a2.98,2.98,0,0,0,2.254.98c1.862,0,3.584-1.54,3.584-5.838,0-3.08-1.316-4.732-3.29-4.732a3,3,0,0,0-2.758,3.262c0,2.072,1.05,3.206,2.758,3.206a3.324,3.324,0,0,0,2.492-1.358c-.084,3.528-1.358,4.76-2.772,4.76a2.3,2.3,0,0,1-1.778-.812Zm9.31.8h.882c.154-3.99.658-6.538,3.08-9.716v-.49h-6.16v.714H23.73C21.7-6.664,20.93-4.074,20.762,0Zm8.176.182c1.848,0,3-1.736,3-5.32,0-3.542-1.148-5.25-3-5.25s-3.01,1.708-3.01,5.25C25.928-1.554,27.076.182,28.938.182Zm0-.686c-1.33,0-2.2-1.54-2.2-4.634,0-3.038.868-4.564,2.2-4.564s2.184,1.526,2.184,4.564C31.122-2.044,30.254-.5,28.938-.5Z" transform="translate(490.961 140.554)"/>
  <path id="패스_1442" data-name="패스 1442" class="cls-3" d="M3.542.182A3.233,3.233,0,0,0,6.734-3.276c0-2.268-1.344-3.276-3.024-3.276A3.147,3.147,0,0,0,2-6.062L2.3-9.492H6.23v-.714H1.568l-.35,4.662.532.322a2.959,2.959,0,0,1,1.806-.644A2.312,2.312,0,0,1,5.894-3.248a2.5,2.5,0,0,1-2.38,2.73A3.436,3.436,0,0,1,.84-1.722l-.448.574A4.2,4.2,0,0,0,3.542.182ZM8.274,2.464a2.909,2.909,0,0,0,1.68-2.6c0-.742-.336-1.2-.84-1.2a.7.7,0,0,0-.742.7A.686.686,0,0,0,9.1.07.682.682,0,0,0,9.268.056,2.118,2.118,0,0,1,8.036,1.932ZM11.228,0h6.146V-.728H14.2c-.532,0-1.12.042-1.68.084,2.716-2.534,4.368-4.676,4.368-6.818a2.674,2.674,0,0,0-2.828-2.926,3.752,3.752,0,0,0-2.87,1.47l.518.49A3.04,3.04,0,0,1,13.972-9.7a2.006,2.006,0,0,1,2.086,2.268c0,1.848-1.372,3.948-4.83,6.93ZM21.5.182A2.854,2.854,0,0,0,24.584-2.7a2.66,2.66,0,0,0-2.24-2.632V-5.4a2.547,2.547,0,0,0,1.876-2.52A2.484,2.484,0,0,0,21.462-10.4a3.965,3.965,0,0,0-2.73,1.2l.476.56a3.2,3.2,0,0,1,2.24-1.078A1.787,1.787,0,0,1,23.38-7.868c0,1.218-.784,2.184-3.024,2.184V-5c2.436,0,3.388.924,3.388,2.3A2.125,2.125,0,0,1,21.476-.518a3.491,3.491,0,0,1-2.688-1.246l-.462.546A4.127,4.127,0,0,0,21.5.182Zm7.434,0c1.848,0,3-1.736,3-5.32,0-3.542-1.148-5.25-3-5.25s-3.01,1.708-3.01,5.25C25.928-1.554,27.076.182,28.938.182Zm0-.686c-1.33,0-2.2-1.54-2.2-4.634,0-3.038.868-4.564,2.2-4.564s2.184,1.526,2.184,4.564C31.122-2.044,30.254-.5,28.938-.5Z" transform="translate(584.074 138.384)"/>
  <line id="선_73" data-name="선 73" class="cls-4" y1="107.541" transform="translate(117.96 204.469)"/>
  <line id="선_74" data-name="선 74" class="cls-4" y1="118.716" transform="translate(211.105 193.294)"/>
  <line id="선_75" data-name="선 75" class="cls-4" y1="126.102" transform="translate(304.534 185.908)"/>
  <line id="선_76" data-name="선 76" class="cls-4" y1="130.021" transform="translate(398 181.989)"/>
  <line id="선_77" data-name="선 77" class="cls-4" y1="137.421" transform="translate(491.107 174.589)"/>
  <line id="선_78" data-name="선 78" class="cls-4" y1="154.997" transform="translate(584.216 157.013)"/>
  <line id="선_79" data-name="선 79" class="cls-5" y1="215.17" transform="translate(678.142 96.84)"/>
  <path id="패스_1448" data-name="패스 1448" class="cls-3" d="M.63,0H6.776V-.728H3.6c-.532,0-1.12.042-1.68.084C4.634-3.178,6.286-5.32,6.286-7.462a2.674,2.674,0,0,0-2.828-2.926,3.752,3.752,0,0,0-2.87,1.47l.518.49A3.04,3.04,0,0,1,3.374-9.7,2.006,2.006,0,0,1,5.46-7.434C5.46-5.586,4.088-3.486.63-.5ZM11.046.182c1.848,0,3-1.736,3-5.32,0-3.542-1.148-5.25-3-5.25s-3.01,1.708-3.01,5.25C8.036-1.554,9.184.182,11.046.182Zm0-.686c-1.33,0-2.2-1.54-2.2-4.634,0-3.038.868-4.564,2.2-4.564S13.23-8.176,13.23-5.138C13.23-2.044,12.362-.5,11.046-.5Zm4.83.5H21.14V-.714H19.012v-9.492h-.658a5.859,5.859,0,0,1-1.946.644v.546h1.778v8.3h-2.31Zm9.618.182A2.854,2.854,0,0,0,28.574-2.7a2.66,2.66,0,0,0-2.24-2.632V-5.4a2.547,2.547,0,0,0,1.876-2.52A2.484,2.484,0,0,0,25.452-10.4a3.965,3.965,0,0,0-2.73,1.2l.476.56a3.2,3.2,0,0,1,2.24-1.078A1.787,1.787,0,0,1,27.37-7.868c0,1.218-.784,2.184-3.024,2.184V-5c2.436,0,3.388.924,3.388,2.3A2.125,2.125,0,0,1,25.466-.518a3.491,3.491,0,0,1-2.688-1.246l-.462.546A4.127,4.127,0,0,0,25.494.182Z" transform="translate(103.295 334.829)"/>
  <path id="패스_1454" data-name="패스 1454" class="cls-6" d="M.66,0H7.785V-1.47H5.025c-.54,0-1.23.045-1.8.1C5.565-3.6,7.26-5.8,7.26-7.935A3.122,3.122,0,0,0,3.93-11.25,4.332,4.332,0,0,0,.57-9.6l.975.96A2.994,2.994,0,0,1,3.72-9.87,1.8,1.8,0,0,1,5.595-7.845C5.595-6.03,3.915-3.885.66-1ZM12.54.2c2.16,0,3.57-1.92,3.57-5.76,0-3.81-1.41-5.685-3.57-5.685-2.175,0-3.57,1.86-3.57,5.685C8.97-1.725,10.365.2,12.54.2Zm0-1.365c-1.125,0-1.92-1.2-1.92-4.395,0-3.165.795-4.32,1.92-4.32s1.92,1.155,1.92,4.32C14.46-2.37,13.665-1.17,12.54-1.17ZM17.82,0h6.3V-1.425H21.96V-11.04H20.655a6.782,6.782,0,0,1-2.4.84v1.1h1.98v7.68H17.82ZM28.83-5.4c-1.155,0-1.785-.81-1.785-2.22,0-1.44.75-2.295,1.695-2.295,1.2,0,2.025.99,2.19,3.165A2.648,2.648,0,0,1,28.83-5.4ZM25.62-.975A3.789,3.789,0,0,0,28.44.2c2.13,0,4.11-1.74,4.11-6.09,0-3.645-1.71-5.355-3.825-5.355A3.376,3.376,0,0,0,25.44-7.62c0,2.31,1.245,3.465,3.09,3.465a3.319,3.319,0,0,0,2.43-1.29c-.1,3.15-1.26,4.23-2.595,4.23A2.461,2.461,0,0,1,26.55-2.04Z" transform="translate(661.492 335.709)"/>
  <path id="패스_1453" data-name="패스 1453" class="cls-3" d="M.63,0H6.776V-.728H3.6c-.532,0-1.12.042-1.68.084C4.634-3.178,6.286-5.32,6.286-7.462a2.674,2.674,0,0,0-2.828-2.926,3.752,3.752,0,0,0-2.87,1.47l.518.49A3.04,3.04,0,0,1,3.374-9.7,2.006,2.006,0,0,1,5.46-7.434C5.46-5.586,4.088-3.486.63-.5ZM11.046.182c1.848,0,3-1.736,3-5.32,0-3.542-1.148-5.25-3-5.25s-3.01,1.708-3.01,5.25C8.036-1.554,9.184.182,11.046.182Zm0-.686c-1.33,0-2.2-1.54-2.2-4.634,0-3.038.868-4.564,2.2-4.564S13.23-8.176,13.23-5.138C13.23-2.044,12.362-.5,11.046-.5Zm4.83.5H21.14V-.714H19.012v-9.492h-.658a5.859,5.859,0,0,1-1.946.644v.546h1.778v8.3h-2.31Zm9.8.182a2.761,2.761,0,0,0,3.052-2.59,3,3,0,0,0-1.736-2.66v-.07a3.568,3.568,0,0,0,1.4-2.534,2.535,2.535,0,0,0-2.7-2.674,2.5,2.5,0,0,0-2.632,2.52,2.818,2.818,0,0,0,1.4,2.324v.056a3.452,3.452,0,0,0-1.946,2.912A2.879,2.879,0,0,0,25.676.182Zm.714-5.544c-1.274-.5-2.548-1.078-2.548-2.464a1.787,1.787,0,0,1,1.834-1.862,1.918,1.918,0,0,1,1.96,2.044A2.977,2.977,0,0,1,26.39-5.362ZM25.676-.476a2.2,2.2,0,0,1-2.394-2.1,3.036,3.036,0,0,1,1.666-2.562c1.54.6,2.968,1.162,2.968,2.716A2.026,2.026,0,0,1,25.676-.476Z" transform="translate(569.73 334.829)"/>
  <path id="패스_1452" data-name="패스 1452" class="cls-3" d="M.63,0H6.776V-.728H3.6c-.532,0-1.12.042-1.68.084C4.634-3.178,6.286-5.32,6.286-7.462a2.674,2.674,0,0,0-2.828-2.926,3.752,3.752,0,0,0-2.87,1.47l.518.49A3.04,3.04,0,0,1,3.374-9.7,2.006,2.006,0,0,1,5.46-7.434C5.46-5.586,4.088-3.486.63-.5ZM11.046.182c1.848,0,3-1.736,3-5.32,0-3.542-1.148-5.25-3-5.25s-3.01,1.708-3.01,5.25C8.036-1.554,9.184.182,11.046.182Zm0-.686c-1.33,0-2.2-1.54-2.2-4.634,0-3.038.868-4.564,2.2-4.564S13.23-8.176,13.23-5.138C13.23-2.044,12.362-.5,11.046-.5Zm4.83.5H21.14V-.714H19.012v-9.492h-.658a5.859,5.859,0,0,1-1.946.644v.546h1.778v8.3h-2.31Zm8.876,0h.882c.154-3.99.658-6.538,3.08-9.716v-.49h-6.16v.714H27.72C25.69-6.664,24.92-4.074,24.752,0Z" transform="translate(476.448 334.829)"/>
  <path id="패스_1451" data-name="패스 1451" class="cls-3" d="M.63,0H6.776V-.728H3.6c-.532,0-1.12.042-1.68.084C4.634-3.178,6.286-5.32,6.286-7.462a2.674,2.674,0,0,0-2.828-2.926,3.752,3.752,0,0,0-2.87,1.47l.518.49A3.04,3.04,0,0,1,3.374-9.7,2.006,2.006,0,0,1,5.46-7.434C5.46-5.586,4.088-3.486.63-.5ZM11.046.182c1.848,0,3-1.736,3-5.32,0-3.542-1.148-5.25-3-5.25s-3.01,1.708-3.01,5.25C8.036-1.554,9.184.182,11.046.182Zm0-.686c-1.33,0-2.2-1.54-2.2-4.634,0-3.038.868-4.564,2.2-4.564S13.23-8.176,13.23-5.138C13.23-2.044,12.362-.5,11.046-.5Zm4.83.5H21.14V-.714H19.012v-9.492h-.658a5.859,5.859,0,0,1-1.946.644v.546h1.778v8.3h-2.31ZM26-.5c-1.554,0-2.352-1.428-2.478-3.668a3.068,3.068,0,0,1,2.338-1.456c1.456,0,2.072,1.064,2.072,2.548S27.1-.5,26-.5Zm2.548-8.9a2.794,2.794,0,0,0-2.17-.98c-1.918,0-3.668,1.456-3.668,5.572,0,3.248,1.3,5,3.276,5A3,3,0,0,0,28.742-3.08c0-2.1-1.036-3.206-2.772-3.206a3.285,3.285,0,0,0-2.464,1.33c.042-3.514,1.344-4.732,2.884-4.732a2.135,2.135,0,0,1,1.666.812Z" transform="translate(383.166 334.829)"/>
  <path id="패스_1450" data-name="패스 1450" class="cls-3" d="M.63,0H6.776V-.728H3.6c-.532,0-1.12.042-1.68.084C4.634-3.178,6.286-5.32,6.286-7.462a2.674,2.674,0,0,0-2.828-2.926,3.752,3.752,0,0,0-2.87,1.47l.518.49A3.04,3.04,0,0,1,3.374-9.7,2.006,2.006,0,0,1,5.46-7.434C5.46-5.586,4.088-3.486.63-.5ZM11.046.182c1.848,0,3-1.736,3-5.32,0-3.542-1.148-5.25-3-5.25s-3.01,1.708-3.01,5.25C8.036-1.554,9.184.182,11.046.182Zm0-.686c-1.33,0-2.2-1.54-2.2-4.634,0-3.038.868-4.564,2.2-4.564S13.23-8.176,13.23-5.138C13.23-2.044,12.362-.5,11.046-.5Zm4.83.5H21.14V-.714H19.012v-9.492h-.658a5.859,5.859,0,0,1-1.946.644v.546h1.778v8.3h-2.31Zm9.548.182a3.233,3.233,0,0,0,3.192-3.458c0-2.268-1.344-3.276-3.024-3.276a3.147,3.147,0,0,0-1.708.49l.294-3.43h3.934v-.714H23.45L23.1-5.544l.532.322a2.959,2.959,0,0,1,1.806-.644,2.312,2.312,0,0,1,2.338,2.618A2.5,2.5,0,0,1,25.4-.518a3.436,3.436,0,0,1-2.674-1.2l-.448.574A4.2,4.2,0,0,0,25.424.182Z" transform="translate(289.884 334.829)"/>
  <path id="패스_1449" data-name="패스 1449" class="cls-3" d="M.63,0H6.776V-.728H3.6c-.532,0-1.12.042-1.68.084C4.634-3.178,6.286-5.32,6.286-7.462a2.674,2.674,0,0,0-2.828-2.926,3.752,3.752,0,0,0-2.87,1.47l.518.49A3.04,3.04,0,0,1,3.374-9.7,2.006,2.006,0,0,1,5.46-7.434C5.46-5.586,4.088-3.486.63-.5ZM11.046.182c1.848,0,3-1.736,3-5.32,0-3.542-1.148-5.25-3-5.25s-3.01,1.708-3.01,5.25C8.036-1.554,9.184.182,11.046.182Zm0-.686c-1.33,0-2.2-1.54-2.2-4.634,0-3.038.868-4.564,2.2-4.564S13.23-8.176,13.23-5.138C13.23-2.044,12.362-.5,11.046-.5Zm4.83.5H21.14V-.714H19.012v-9.492h-.658a5.859,5.859,0,0,1-1.946.644v.546h1.778v8.3h-2.31Zm7.21-3.6,2.772-4.046c.294-.462.574-.952.812-1.414h.07c-.042.476-.084,1.232-.084,1.694V-3.6Zm5.81,0H27.454v-6.608h-.8L22.148-3.43v.518h4.508V0h.8V-2.912H28.9Z" transform="translate(196.602 334.829)"/>
  <path id="패스_38" data-name="패스 38" class="cls-7" d="M12746.92,1745.736l95.472-10.711,91.92-7.383,93.75-3.918,93.108-7.4,93.145-17.731,94.605-20.855" transform="translate(-12629.92 -1541.732)"/>
  <path id="패스_1441" data-name="패스 1441" class="cls-8" d="M5.628.273a5.1,5.1,0,0,0,5.208-5.355c0-3.381-2.121-4.914-4.7-4.914a4.357,4.357,0,0,0-2.121.546l.357-3.969H10.1v-2.037H2.268L1.806-8.127l1.176.777A4.066,4.066,0,0,1,5.46-8.232C7.224-8.232,8.4-7.056,8.4-5A3.021,3.021,0,0,1,5.334-1.7,4.946,4.946,0,0,1,1.722-3.36L.567-1.785A6.84,6.84,0,0,0,5.628.273ZM13.23,4.2A4.923,4.923,0,0,0,16.674-.525c0-1.617-.693-2.6-1.869-2.6a1.569,1.569,0,0,0-1.68,1.554A1.514,1.514,0,0,0,14.742-.021a.861.861,0,0,0,.231-.021,3.26,3.26,0,0,1-2.289,2.877Zm10.6-5.775c-1.659,0-2.772-1.449-3.024-4.515A3.6,3.6,0,0,1,23.688-7.9c1.659,0,2.541,1.113,2.541,3.108S25.179-1.575,23.835-1.575Zm4.389-12.516A5.19,5.19,0,0,0,24.36-15.75c-3.045,0-5.838,2.373-5.838,8.316,0,5.25,2.394,7.707,5.334,7.707,2.52,0,4.62-2,4.62-5.061,0-3.276-1.743-4.872-4.347-4.872a4.647,4.647,0,0,0-3.36,1.785c.1-4.41,1.743-5.9,3.717-5.9A3.321,3.321,0,0,1,26.9-12.621ZM34.986.273c2.982,0,5-1.764,5-4.053a4.541,4.541,0,0,0-2.6-4.095V-7.98a4.8,4.8,0,0,0,2.037-3.633c0-2.415-1.68-4.1-4.368-4.1-2.541,0-4.41,1.575-4.41,3.99a4.37,4.37,0,0,0,2.079,3.612V-8a4.734,4.734,0,0,0-2.772,4.158C29.946-1.449,32.088.273,34.986.273Zm1.008-8.862c-1.722-.672-3.192-1.449-3.192-3.129a2.116,2.116,0,0,1,2.205-2.247,2.293,2.293,0,0,1,2.373,2.5A3.913,3.913,0,0,1,35.994-8.589ZM35.028-1.47a2.706,2.706,0,0,1-2.94-2.6,3.943,3.943,0,0,1,1.806-3.234c2.1.861,3.8,1.575,3.8,3.465A2.391,2.391,0,0,1,35.028-1.47ZM46.557.273c2.982,0,5-1.764,5-4.053a4.541,4.541,0,0,0-2.6-4.095V-7.98a4.8,4.8,0,0,0,2.037-3.633c0-2.415-1.68-4.1-4.368-4.1-2.541,0-4.41,1.575-4.41,3.99a4.37,4.37,0,0,0,2.079,3.612V-8a4.734,4.734,0,0,0-2.772,4.158C41.517-1.449,43.659.273,46.557.273Zm1.008-8.862c-1.722-.672-3.192-1.449-3.192-3.129a2.116,2.116,0,0,1,2.205-2.247,2.293,2.293,0,0,1,2.373,2.5A3.913,3.913,0,0,1,47.565-8.589ZM46.6-1.47a2.706,2.706,0,0,1-2.94-2.6,3.943,3.943,0,0,1,1.806-3.234c2.1.861,3.8,1.575,3.8,3.465A2.391,2.391,0,0,1,46.6-1.47Z" transform="translate(627.36 89.839)"/>
</svg>
