<svg xmlns="http://www.w3.org/2000/svg" width="796.864" height="267.557" viewBox="0 0 796.864 267.557">
  <defs>
    <style>
      .cls-1 {
        fill: #656464;
      }

      .cls-13, .cls-2, .cls-3 {
        fill: none;
        stroke: #3e3a39;
        stroke-linecap: round;
        stroke-linejoin: round;
      }

      .cls-2 {
        stroke-dasharray: 0 2.99;
      }

      .cls-4, .cls-5 {
        fill: #1e2323;
      }

      .cls-5 {
        font-size: 17px;
      }

      .cls-15, .cls-5 {
        font-family: NotoSansKR-Medium, Noto Sans KR;
        font-weight: 500;
      }

      .cls-6 {
        letter-spacing: -0.02em;
      }

      .cls-7, .cls-9 {
        fill: #132e54;
      }

      .cls-7 {
        font-size: 32px;
        font-family: OpenSans, Open Sans;
      }

      .cls-8 {
        letter-spacing: -0.014em;
      }

      .cls-10, .cls-15 {
        fill: #5171b1;
      }

      .cls-11 {
        fill: #d0eaf6;
      }

      .cls-12 {
        fill: #a0c0eb;
      }

      .cls-13 {
        stroke-dasharray: 0 3.005;
      }

      .cls-14 {
        fill: #fff;
      }

      .cls-15 {
        font-size: 18px;
      }
    </style>
  </defs>
  <g id="구성_요소_102_1" data-name="구성 요소 102 – 1" transform="translate(0.5)">
    <g id="구성_요소_85_1" data-name="구성 요소 85 – 1">
      <path id="패스_1461" data-name="패스 1461" class="cls-1" d="M1.776-6.024l.888-1.1.876,1.1.4-.276L3.192-7.5l1.224-.48-.144-.456L2.988-8.1,2.9-9.468h-.48l-.108,1.38L1.032-8.436.888-7.98l1.224.48L1.38-6.3ZM8.172,0H13.44V-.624H10.716c-.456,0-.96.036-1.44.072C11.6-2.724,13.02-4.56,13.02-6.4A2.292,2.292,0,0,0,10.6-8.9a3.216,3.216,0,0,0-2.46,1.26l.444.42a2.606,2.606,0,0,1,1.944-1.092,1.719,1.719,0,0,1,1.788,1.944c0,1.584-1.176,3.384-4.14,5.94ZM17.1.156c1.584,0,2.568-1.488,2.568-4.56,0-3.036-.984-4.5-2.568-4.5S14.52-7.44,14.52-4.4C14.52-1.332,15.5.156,17.1.156Zm0-.588c-1.14,0-1.884-1.32-1.884-3.972,0-2.6.744-3.912,1.884-3.912S18.972-7.008,18.972-4.4C18.972-1.752,18.228-.432,17.1-.432ZM21.24,0h4.512V-.612H23.928V-8.748h-.564A5.022,5.022,0,0,1,21.7-8.2v.468H23.22V-.612H21.24Zm8.148-3.924c-1.212,0-1.752-.924-1.752-2.184s.708-2.22,1.656-2.22c1.368,0,2.064,1.212,2.136,3.12A2.62,2.62,0,0,1,29.388-3.924ZM27.12-.684a2.555,2.555,0,0,0,1.932.84c1.6,0,3.072-1.32,3.072-5C32.124-7.488,31-8.9,29.3-8.9a2.567,2.567,0,0,0-2.364,2.8c0,1.776.9,2.748,2.364,2.748A2.85,2.85,0,0,0,31.44-4.524c-.072,3.024-1.164,4.08-2.376,4.08a1.967,1.967,0,0,1-1.524-.7ZM36.456-8.64v.54h4.26C40.548-5.472,38.928-3.2,36-1.788l.348.528c3.432-1.692,5-4.4,5-7.38Zm7.38-1.176V.84h.636V-9.816ZM47.6-5.184c1.536-.264,3.324-1.116,3.888-2.448.576,1.32,2.364,2.184,3.888,2.448l.252-.516c-1.608-.252-3.756-1.32-3.756-2.832v-.18H55.44V-9.24H47.568v.528h3.564v.18c0,1.524-2.148,2.58-3.78,2.832Zm.984,2.76h-.636v3H55.26V.036H48.588ZM46.656-4.236v.528h4.56V-1.32h.636V-3.708H56.34v-.528Z" transform="translate(737.145 245.23)"/>
      <line id="선_90" data-name="선 90" class="cls-2" x2="336.365" transform="translate(457.141 39.088)"/>
      <path id="패스_41" data-name="패스 41" class="cls-3" d="M13425.42,2216.943h0m-340.85,0h0" transform="translate(-12630.42 -2177.855)"/>
      <path id="패스_42" data-name="패스 42" class="cls-4" d="M13285.413,2253.562h-4.29l-1.136,3.586h-1.5l3.985-11.733h1.648l3.985,11.733h-1.568Zm-.368-1.184-.561-1.793c-.433-1.328-.8-2.609-1.185-3.97h-.063c-.368,1.377-.752,2.642-1.168,3.97l-.577,1.793Zm3.981-6.659a1.01,1.01,0,0,1,2.017,0,1.01,1.01,0,0,1-2.017,0Zm.272,2.737h1.456v8.692h-1.456Zm4.079,0h1.2l.128,1.585h.048a3,3,0,0,1,2.465-1.809,1.856,1.856,0,0,1,.929.192l-.272,1.281a2.054,2.054,0,0,0-.848-.144c-.722,0-1.617.512-2.193,2v5.586h-1.457Zm10.048,0h1.2l.128.992h.048a4.636,4.636,0,0,1,2.77-1.216c2.241,0,3.457,1.761,3.457,4.434,0,2.977-1.776,4.69-3.777,4.69a3.916,3.916,0,0,1-2.4-1.009l.032,1.521v2.945h-1.457Zm6.083,4.226c0-1.921-.641-3.217-2.289-3.217a3.625,3.625,0,0,0-2.337,1.2v4.562a3.368,3.368,0,0,0,2.129.912C13308.452,2256.139,13309.509,2254.843,13309.509,2252.682Zm3.405,1.28v-5.506h1.457v5.33c0,1.617.479,2.305,1.632,2.305.9,0,1.521-.432,2.354-1.472v-6.163h1.457v8.692h-1.218l-.111-1.361h-.049a3.727,3.727,0,0,1-2.881,1.569C13313.73,2257.356,13312.914,2256.171,13312.914,2253.962Zm9.5-5.506h1.2l.128,1.585h.048a3,3,0,0,1,2.466-1.809,1.856,1.856,0,0,1,.929.192l-.272,1.281a2.056,2.056,0,0,0-.849-.144c-.721,0-1.616.512-2.192,2v5.586h-1.457Zm5.616-2.737a1.01,1.01,0,0,1,2.017,0,1.01,1.01,0,0,1-2.017,0Zm.271,2.737h1.456v8.692h-1.456Zm4.32-1.392c0-1.761.8-2.866,2.529-2.866a3.811,3.811,0,0,1,1.456.289l-.32,1.1a2.466,2.466,0,0,0-.976-.224c-.832,0-1.233.592-1.233,1.713v1.376h1.841v1.185h-1.841v7.507h-1.456v-7.507h-1.185v-1.105l1.185-.08Zm7.043-1.345a.968.968,0,0,1-1.025.945.948.948,0,0,1-.991-.945.919.919,0,0,1,.991-.944A.939.939,0,0,1,13339.669,2245.719Zm-1.761,2.737h1.472v8.692h-1.472Zm3.421,4.354c0-2.817,1.905-4.578,3.922-4.578,2.209,0,3.457,1.6,3.457,4.082a5.645,5.645,0,0,1-.064.832h-5.857a2.879,2.879,0,0,0,2.881,3.041,3.748,3.748,0,0,0,2.177-.688l.528.96a5.168,5.168,0,0,1-2.881.9C13343.186,2257.356,13341.329,2255.675,13341.329,2252.81Zm6.1-.7c0-1.761-.8-2.705-2.161-2.705a2.674,2.674,0,0,0-2.5,2.705Zm3.1-3.65h1.2l.128,1.585h.048a3,3,0,0,1,2.465-1.809,1.85,1.85,0,0,1,.928.192l-.271,1.281a2.056,2.056,0,0,0-.849-.144c-.72,0-1.617.512-2.192,2v5.586h-1.456Z" transform="translate(-12630.42 -2177.855)"/>
      <text id="_" data-name="  " class="cls-5" transform="translate(724.524 80.292)"><tspan class="cls-6" x="0" y="0"> </tspan><tspan y="0"> </tspan></text>
      <text id="_36_" data-name="36%" class="cls-7" transform="translate(733.364 80.292)"><tspan class="cls-8" x="0" y="0">36</tspan><tspan y="0">%</tspan></text>
      <line id="선_91" data-name="선 91" class="cls-2" x2="336.365" transform="translate(2.99 78.733)"/>
      <path id="패스_43" data-name="패스 43" class="cls-3" d="M12971.269,2256.588h0m-340.849,0h0" transform="translate(-12630.42 -2177.855)"/>
      <path id="패스_1458" data-name="패스 1458" class="cls-4" d="M1.6,0H5.344C7.968,0,9.792-1.136,9.792-3.44a2.707,2.707,0,0,0-2.4-2.8v-.08A2.555,2.555,0,0,0,9.12-8.864c0-2.064-1.648-2.864-4.032-2.864H1.6ZM3.088-6.736V-10.56H4.9c1.824,0,2.768.512,2.768,1.888,0,1.184-.816,1.936-2.832,1.936Zm0,5.552V-5.6H5.136c2.048,0,3.2.656,3.2,2.112,0,1.584-1.184,2.3-3.2,2.3ZM11.664,0H13.12V-8.688H11.664ZM12.4-10.48a.952.952,0,0,0,1.008-.944.925.925,0,0,0-1.008-.944.925.925,0,0,0-1.008.944A.952.952,0,0,0,12.4-10.48ZM18.7.208a3.875,3.875,0,0,0,2.64-1.232h.032L21.52,0H22.7V-12.736H21.248v3.344l.08,1.5A3.535,3.535,0,0,0,18.88-8.912c-1.984,0-3.76,1.76-3.76,4.576C15.12-1.44,16.528.208,18.7.208Zm.32-1.216c-1.536,0-2.4-1.248-2.4-3.344,0-1.984,1.1-3.328,2.512-3.328a3.05,3.05,0,0,1,2.112.912v4.56A2.986,2.986,0,0,1,19.024-1.008ZM28.848.208a5.171,5.171,0,0,0,2.88-.9l-.528-.96a3.745,3.745,0,0,1-2.176.688A2.879,2.879,0,0,1,26.144-4H32a5.684,5.684,0,0,0,.064-.832c0-2.48-1.248-4.08-3.456-4.08-2.016,0-3.92,1.76-3.92,4.576C24.688-1.472,26.544.208,28.848.208ZM26.128-5.04a2.673,2.673,0,0,1,2.5-2.7c1.36,0,2.16.944,2.16,2.7ZM36.288.208a5.47,5.47,0,0,0,1.6-.32L37.6-1.2a3.078,3.078,0,0,1-.992.224c-1.008,0-1.344-.608-1.344-1.68V-7.5h2.352V-8.688H35.264V-11.12H34.048l-.176,2.432-1.36.08v1.1h1.3v4.816C33.808-.944,34.432.208,36.288.208Z" transform="translate(-0.342 118.972)"/>
      <text id="_2" data-name=" " class="cls-5" transform="translate(41.77 119.972)"><tspan x="0" y="0"> </tspan></text>
      <path id="패스_1459" data-name="패스 1459" class="cls-9" d="M17.656-5.25H14.266V0H11.781V-5.25H.672V-7.516L11.516-22.969h2.75V-7.609h3.391ZM11.781-7.609V-15.2q0-2.234.156-5.047h-.125a23.479,23.479,0,0,1-1.406,2.484L3.266-7.609Zm9.849-8.422a10.476,10.476,0,0,0,.578,3.984,1.946,1.946,0,0,0,1.875,1.328q2.563,0,2.563-5.312,0-5.281-2.562-5.281A1.945,1.945,0,0,0,22.208-20,10.349,10.349,0,0,0,21.63-16.031Zm7.156,0a9.874,9.874,0,0,1-1.2,5.383,3.931,3.931,0,0,1-3.508,1.82,3.836,3.836,0,0,1-3.4-1.859,9.8,9.8,0,0,1-1.211-5.344,9.924,9.924,0,0,1,1.164-5.344,3.841,3.841,0,0,1,3.445-1.8,3.922,3.922,0,0,1,3.484,1.859A9.616,9.616,0,0,1,28.786-16.031ZM35.38-6.875a10.467,10.467,0,0,0,.578,3.992,1.955,1.955,0,0,0,1.891,1.32,2.042,2.042,0,0,0,1.938-1.3,9.737,9.737,0,0,0,.625-4.008,9.521,9.521,0,0,0-.625-3.961,2.043,2.043,0,0,0-1.937-1.289,1.954,1.954,0,0,0-1.891,1.289A10.215,10.215,0,0,0,35.38-6.875Zm7.172,0a9.838,9.838,0,0,1-1.2,5.367A3.931,3.931,0,0,1,37.849.313a3.826,3.826,0,0,1-3.414-1.859,9.872,9.872,0,0,1-1.2-5.328A9.924,9.924,0,0,1,34.4-12.219a3.841,3.841,0,0,1,3.445-1.8A3.95,3.95,0,0,1,41.31-12.18,9.451,9.451,0,0,1,42.552-6.875ZM38.521-22.844,25.849,0h-2.3L36.224-22.844Z" transform="translate(46.189 119.972)"/>
      <g id="그룹_8" data-name="그룹 8" transform="translate(-12630.42 -2177.855)">
        <path id="패스_44" data-name="패스 44" class="cls-10" d="M13027.977,2311.623,12898.847,2277a129.762,129.762,0,0,1,17.013-38.229Z"/>
        <path id="패스_45" data-name="패스 45" class="cls-11" d="M13027.977,2311.623l-132.384-18.615a126.874,126.874,0,0,1,3.254-16Z"/>
        <path id="패스_46" data-name="패스 46" class="cls-9" d="M13027.977,2311.623l125.623-45.746a133.693,133.693,0,1,1-251.246,91.492c-7.9-21.727-9.977-41.465-6.761-64.361Z"/>
        <path id="패스_47" data-name="패스 47" class="cls-12" d="M13027.977,2311.623l-112.117-72.847a133.645,133.645,0,0,1,184.928-39.327c25.449,16.535,42.434,37.9,52.813,66.428Z"/>
      </g>
      <line id="선_92" data-name="선 92" class="cls-13" x2="301.993" transform="translate(3.005 205.112)"/>
      <path id="패스_48" data-name="패스 48" class="cls-3" d="M12936.92,2382.967h0m-306.5,0h0" transform="translate(-12630.42 -2177.855)"/>
      <path id="패스_49" data-name="패스 49" class="cls-4" d="M12630.478,2411.426h1.536l1.233,6.386c.224,1.265.464,2.529.688,3.793h.064c.272-1.264.561-2.528.849-3.793l1.616-6.386h1.345l1.649,6.386c.288,1.249.56,2.513.832,3.793h.08q.335-1.92.672-3.793l1.233-6.386h1.424l-2.434,11.732h-1.775l-1.777-7.075c-.208-.928-.384-1.776-.576-2.673h-.063c-.193.9-.4,1.745-.593,2.673l-1.744,7.075h-1.762Zm13.969,9.475c0-1.889,1.648-2.833,5.346-3.249,0-1.121-.368-2.193-1.792-2.193a4.791,4.791,0,0,0-2.609.928l-.576-1.008a6.539,6.539,0,0,1,3.426-1.136c2.112,0,3.009,1.424,3.009,3.569v5.346h-1.2l-.129-1.04h-.048a4.654,4.654,0,0,1-2.881,1.248A2.356,2.356,0,0,1,12644.446,2420.9Zm5.346.144v-2.433c-2.929.353-3.921,1.073-3.921,2.193,0,.993.672,1.393,1.536,1.393A3.547,3.547,0,0,0,12649.792,2421.045Zm3.918-.576v-4.818h-1.3v-1.1l1.36-.08.177-2.433h1.216v2.433h2.353v1.184h-2.353v4.85c0,1.072.336,1.681,1.345,1.681a3.074,3.074,0,0,0,.992-.224l.288,1.088a5.467,5.467,0,0,1-1.6.32C12654.335,2423.366,12653.71,2422.214,12653.71,2420.469Zm4.56-1.648c0-2.818,1.905-4.578,3.923-4.578,2.209,0,3.457,1.6,3.457,4.081a5.645,5.645,0,0,1-.064.832h-5.858a2.881,2.881,0,0,0,2.882,3.042,3.753,3.753,0,0,0,2.177-.688l.528.96a5.177,5.177,0,0,1-2.882.9C12660.127,2423.366,12658.27,2421.686,12658.27,2418.821Zm6.1-.705c0-1.761-.8-2.705-2.16-2.705a2.674,2.674,0,0,0-2.5,2.705Zm3.1-3.649h1.2l.128,1.584h.048a3,3,0,0,1,2.465-1.808,1.854,1.854,0,0,1,.929.192l-.272,1.28a2.054,2.054,0,0,0-.848-.144c-.721,0-1.617.512-2.193,2v5.586h-1.457Zm10.048,0h1.2l.128.992h.048a4.636,4.636,0,0,1,2.77-1.216c2.241,0,3.457,1.76,3.457,4.433,0,2.978-1.777,4.69-3.777,4.69a3.916,3.916,0,0,1-2.4-1.008l.031,1.52v2.946h-1.457Zm6.083,4.225c0-1.92-.641-3.217-2.289-3.217a3.622,3.622,0,0,0-2.337,1.2v4.561a3.366,3.366,0,0,0,2.129.913C12682.544,2422.15,12683.6,2420.853,12683.6,2418.692Zm3.405,1.281v-5.506h1.456v5.33c0,1.617.481,2.3,1.633,2.3.9,0,1.521-.432,2.354-1.473v-6.162h1.457v8.691h-1.217l-.112-1.36h-.048a3.731,3.731,0,0,1-2.881,1.568C12687.822,2423.366,12687.006,2422.182,12687.006,2419.973Zm9.5-5.506h1.2l.128,1.584h.048a3,3,0,0,1,2.465-1.808,1.858,1.858,0,0,1,.93.192l-.272,1.28a2.062,2.062,0,0,0-.849-.144c-.72,0-1.616.512-2.193,2v5.586h-1.456Zm5.616-2.738a1.01,1.01,0,0,1,2.016,0,1.01,1.01,0,0,1-2.016,0Zm.272,2.738h1.455v8.691h-1.455Zm4.319-1.393c0-1.761.8-2.865,2.529-2.865a3.807,3.807,0,0,1,1.456.288l-.32,1.1a2.464,2.464,0,0,0-.976-.225c-.833,0-1.233.593-1.233,1.713v1.377h1.841v1.184h-1.841v7.507h-1.456v-7.507h-1.185v-1.1l1.185-.08Zm7.042-1.345a.966.966,0,0,1-1.023.945.947.947,0,0,1-.992-.945.92.92,0,0,1,.992-.944A.938.938,0,0,1,12713.76,2411.729Zm-1.76,2.738h1.472v8.691H12712Zm3.421,4.354c0-2.818,1.905-4.578,3.922-4.578,2.209,0,3.457,1.6,3.457,4.081a5.8,5.8,0,0,1-.063.832h-5.858a2.88,2.88,0,0,0,2.881,3.042,3.746,3.746,0,0,0,2.177-.688l.528.96a5.173,5.173,0,0,1-2.881.9C12717.278,2423.366,12715.421,2421.686,12715.421,2418.821Zm6.1-.705c0-1.761-.8-2.705-2.16-2.705a2.674,2.674,0,0,0-2.5,2.705Zm3.1-3.649h1.2l.128,1.584h.048a3,3,0,0,1,2.465-1.808,1.85,1.85,0,0,1,.928.192l-.271,1.28a2.054,2.054,0,0,0-.848-.144c-.721,0-1.617.512-2.193,2v5.586h-1.457Z" transform="translate(-12630.42 -2177.855)"/>
      <text id="_3" data-name="  " class="cls-5" transform="translate(98.616 246.303)"><tspan class="cls-6" x="0" y="0"> </tspan><tspan y="0"> </tspan></text>
      <path id="패스_1460" data-name="패스 1460" class="cls-9" d="M8.7-13.953a8.4,8.4,0,0,1,5.68,1.789,6.136,6.136,0,0,1,2.07,4.9A7.074,7.074,0,0,1,14.2-1.7,9.018,9.018,0,0,1,7.969.313,11.459,11.459,0,0,1,2.078-.922v-2.5A8.952,8.952,0,0,0,4.8-2.32a13.417,13.417,0,0,0,3.2.4,6.4,6.4,0,0,0,4.273-1.3A4.652,4.652,0,0,0,13.8-6.969q0-4.781-5.859-4.781a23.329,23.329,0,0,0-3.969.453l-1.344-.859.859-10.687H14.844v2.391H5.7l-.578,6.859A18.206,18.206,0,0,1,8.7-13.953Zm25.724.859Q34.427.313,24.052.313A10.564,10.564,0,0,1,21.177,0V-2.234a9.187,9.187,0,0,0,2.844.406,6.918,6.918,0,0,0,5.664-2.32q1.914-2.32,2.086-7.117h-.187A5.561,5.561,0,0,1,29.3-9.289a7.335,7.335,0,0,1-3.2.68,6.44,6.44,0,0,1-4.812-1.812,6.914,6.914,0,0,1-1.781-5.062A7.755,7.755,0,0,1,21.5-21.109a6.957,6.957,0,0,1,5.242-2.062,7.018,7.018,0,0,1,4.07,1.2,7.555,7.555,0,0,1,2.68,3.484A14.192,14.192,0,0,1,34.427-13.094ZM26.74-20.953a4.278,4.278,0,0,0-3.453,1.438,6,6,0,0,0-1.219,4,5.2,5.2,0,0,0,1.125,3.539,4.3,4.3,0,0,0,3.422,1.289,5.931,5.931,0,0,0,2.617-.578,4.725,4.725,0,0,0,1.883-1.578,3.641,3.641,0,0,0,.688-2.094,7.156,7.156,0,0,0-.641-3.031,5.286,5.286,0,0,0-1.789-2.187A4.505,4.505,0,0,0,26.74-20.953Zm12.74,4.922a10.476,10.476,0,0,0,.578,3.984,1.946,1.946,0,0,0,1.875,1.328q2.562,0,2.563-5.312,0-5.281-2.562-5.281A1.945,1.945,0,0,0,40.057-20,10.349,10.349,0,0,0,39.479-16.031Zm7.156,0a9.874,9.874,0,0,1-1.2,5.383,3.931,3.931,0,0,1-3.508,1.82,3.836,3.836,0,0,1-3.4-1.859,9.8,9.8,0,0,1-1.211-5.344,9.924,9.924,0,0,1,1.164-5.344,3.841,3.841,0,0,1,3.445-1.8,3.922,3.922,0,0,1,3.484,1.859A9.616,9.616,0,0,1,46.635-16.031Zm6.594,9.156a10.467,10.467,0,0,0,.578,3.992A1.955,1.955,0,0,0,55.7-1.562a2.042,2.042,0,0,0,1.938-1.3,9.737,9.737,0,0,0,.625-4.008,9.521,9.521,0,0,0-.625-3.961A2.043,2.043,0,0,0,55.7-12.125a1.954,1.954,0,0,0-1.891,1.289A10.215,10.215,0,0,0,53.229-6.875Zm7.172,0a9.838,9.838,0,0,1-1.2,5.367A3.931,3.931,0,0,1,55.7.313a3.826,3.826,0,0,1-3.414-1.859,9.872,9.872,0,0,1-1.2-5.328,9.924,9.924,0,0,1,1.164-5.344,3.841,3.841,0,0,1,3.445-1.8,3.95,3.95,0,0,1,3.461,1.836A9.451,9.451,0,0,1,60.4-6.875ZM56.37-22.844,43.7,0H41.4L54.073-22.844Z" transform="translate(107.456 246.303)"/>
      <g id="그룹_9" data-name="그룹 9" transform="translate(-12630.42 -2177.855)">
        <path id="패스_50" data-name="패스 50" class="cls-14" d="M13027.92,2415.514a103.881,103.881,0,1,0-103.881-103.881,103.88,103.88,0,0,0,103.881,103.881"/>
        <path id="패스_51" data-name="패스 51" class="cls-14" d="M13029.5,2339.694c12.442,0,22.527-9.151,22.527-20.439s-10.085-20.437-22.527-20.437-22.527,9.15-22.527,20.437,10.086,20.439,22.527,20.439"/>
      </g>
    </g>
    <path id="패스_1455" data-name="패스 1455" class="cls-10" d="M5.85-11.574H8.532V-13.1H1.188v1.53H4.05v1.17c0,2.9-1.08,5.832-3.384,7.272L1.782-1.764A8.056,8.056,0,0,0,4.968-6.552,7.4,7.4,0,0,0,8.082-2.16l1.08-1.35C6.894-4.824,5.85-7.632,5.85-10.4ZM9.738-9.162H7.344V-7.65H9.738V.594h1.746V-14.562H9.738Zm3.276-5.724V1.368h1.764V-14.886Zm13.3,4.968H22.572v-2.988h3.744Zm-5.6,0H18.5v1.494H30.366V-9.918h-2.2v-2.988h2.286V-14.4H18.414v1.494h2.3Zm7.488,9.63H20.7V-2.5h7.506Zm3.6-5.346V-7.128H17.1v1.494h6.426v1.656H18.864V1.188h11.16V-3.978H25.38V-5.634Zm13.1-5.616v1.53H41.544v-1.53ZM39.726-8.478H35.892V-10.6h3.834Zm1.818.2H44.91v1.836h1.872v-8.424H44.91v2.2H41.544v-1.476H39.726v2.124H35.892v-2.124H34.056V-7h7.488ZM38.052-.27V-1.656h8.73V-5.724H36.2v1.458h8.748v1.242h-8.73V1.188H47.322V-.27Z" transform="translate(373.021 112.958)"/>
    <text id="_4" data-name=" " class="cls-15" transform="translate(426.3 112.958)"><tspan x="0" y="0"> </tspan></text>
    <path id="패스_1456" data-name="패스 1456" class="cls-10" d="M14.976-8.874c-3.276-.468-5.724-2.5-5.724-4.608v-.864H7.29v.864c0,2.142-2.412,4.14-5.724,4.608l.72,1.494A8.173,8.173,0,0,0,8.28-11.052,8.225,8.225,0,0,0,14.256-7.38Zm.63,3.024H.918v1.512H7.29V1.4H9.144V-4.338h6.462Zm2.736-2.538c2.88-.2,5.076-.99,6.1-2.358,1.026,1.368,3.258,2.16,6.138,2.358l.5-1.386c-3.168-.18-5.184-1.08-5.544-2.358h4.806v-1.386H25.38V-14.94H23.526v1.422h-4.95v1.386h4.788C23-10.854,21.006-9.954,17.8-9.774Zm13.464,1.98V-7.794H17.136v1.386h6.39v1.26h-4.68V-3.78h9.306v1.134h-9.27V1.242H30.438V-.144h-9.72V-1.368H29.97v-3.78H25.38v-1.26ZM44.82-14.886V1.422h1.872V-14.886Zm-10.638,1.35V-2.448h7.812V-13.536H40.14V-9.4H36.018v-4.14ZM36.018-7.92H40.14v3.978H36.018ZM50.9-8.19c2.844-.306,5.076-1.476,5.958-3.15.864,1.674,3.1,2.844,5.958,3.15l.648-1.458c-3.006-.306-5.094-1.566-5.346-3.024h4.752v-1.494H50.868v1.494h4.716c-.252,1.458-2.34,2.718-5.346,3.024Zm9.648,6.7c0,.936-1.35,1.458-3.726,1.458s-3.708-.522-3.708-1.458c0-.972,1.332-1.476,3.708-1.476S60.552-2.466,60.552-1.494Zm3.654-4.392V-7.362H49.5v1.476h6.426v1.494c-2.952.18-4.7,1.206-4.7,2.9,0,1.836,2.106,2.88,5.6,2.88,3.51,0,5.6-1.044,5.6-2.88,0-1.692-1.71-2.7-4.644-2.88V-5.886Z" transform="translate(364.92 141.956)"/>
    <path id="패스_1457" data-name="패스 1457" d="M3.388,2.7l.5-.252A12.873,12.873,0,0,1,2.044-4.312a12.909,12.909,0,0,1,1.848-6.762l-.5-.266A12.91,12.91,0,0,0,1.344-4.312,12.862,12.862,0,0,0,3.388,2.7Zm8.918-8.526a27.5,27.5,0,0,1-5.754.434H6.37V-9.716h4.718v-.63H5.628v5.6h.924a28.173,28.173,0,0,0,5.838-.448ZM7.728-3.318H6.986V.672h8.2V.042H7.728ZM14.574-7.6V-11.48h-.742v9.03h.742V-6.958H16.52V-7.6Zm7.182-2.59c1.4,0,2.408.8,2.408,1.862s-1.008,1.876-2.408,1.876-2.38-.8-2.38-1.876S20.37-10.192,21.756-10.192Zm0,4.368c1.834,0,3.122-1.008,3.122-2.506s-1.288-2.492-3.122-2.492S18.662-9.814,18.662-8.33,19.936-5.824,21.756-5.824Zm4.256.77a59.4,59.4,0,0,1-8.4.462l.126.658c1.106,0,2.38-.014,3.724-.07V.588H22.2V-4.046a36.206,36.206,0,0,0,3.864-.42Zm.98-6.384V.994h.742V-11.438Zm8.274,7.462c1.372,0,2.212-1.162,2.212-3.234,0-2.03-.84-3.178-2.212-3.178S33.054-9.24,33.054-7.21C33.054-5.138,33.908-3.976,35.266-3.976Zm0-.56c-.924,0-1.526-.966-1.526-2.674s.6-2.618,1.526-2.618,1.54.924,1.54,2.618S36.19-4.536,35.266-4.536Zm.28,4.718h.644l5.684-10.57H41.23Zm6.65,0c1.344,0,2.212-1.148,2.212-3.22,0-2.044-.868-3.192-2.212-3.192-1.372,0-2.226,1.148-2.226,3.192C39.97-.966,40.824.182,42.2.182Zm0-.56c-.938,0-1.54-.952-1.54-2.66s.6-2.632,1.54-2.632c.91,0,1.526.924,1.526,2.632S43.106-.378,42.2-.378Zm3.64,3.08A12.862,12.862,0,0,0,47.88-4.312a12.91,12.91,0,0,0-2.044-7.028l-.5.266A12.909,12.909,0,0,1,47.18-4.312,12.873,12.873,0,0,1,45.332,2.45Z" transform="translate(372.51 173.958)"/>
  </g>
</svg>
