<svg xmlns="http://www.w3.org/2000/svg" width="796.864" height="267.557" viewBox="0 0 796.864 267.557">
  <defs>
    <style>
      .cls-1 {
        fill: #656464;
        font-size: 12px;
        font-family: NotoSansKR-Light, Noto Sans KR;
        font-weight: 300;
      }

      .cls-2 {
        letter-spacing: -0.014em;
      }

      .cls-3 {
        letter-spacing: -0.015em;
      }

      .cls-16, .cls-4, .cls-5 {
        fill: none;
        stroke: #3e3a39;
        stroke-linecap: round;
        stroke-linejoin: round;
      }

      .cls-4 {
        stroke-dasharray: 0 2.99;
      }

      .cls-10, .cls-6, .cls-7 {
        fill: #1e2323;
      }

      .cls-7 {
        font-size: 17px;
        font-family: NotoSansKR-Medium, Noto Sans KR;
        font-weight: 500;
      }

      .cls-8 {
        letter-spacing: -0.02em;
      }

      .cls-14, .cls-9 {
        fill: #132e54;
      }

      .cls-9 {
        font-size: 32px;
        font-family: OpenSans, Open Sans;
      }

      .cls-10 {
        font-size: 16px;
        font-family: NotoSansKR-Regular, Noto Sans KR;
      }

      .cls-11 {
        letter-spacing: -0.03em;
      }

      .cls-12 {
        fill: #5171b1;
      }

      .cls-13 {
        fill: #d0eaf6;
      }

      .cls-15 {
        fill: #a0c0eb;
      }

      .cls-16 {
        stroke-dasharray: 0 3.005;
      }

      .cls-17 {
        fill: #fff;
      }
    </style>
  </defs>
  <g id="구성_요소_85_1" data-name="구성 요소 85 – 1" transform="translate(0.158)">
    <text id="_2019_기준" data-name="* 2019 기준" class="cls-1" transform="translate(737.486 245.23)"><tspan class="cls-2" x="0" y="0">*</tspan><tspan class="cls-3" y="0"> </tspan><tspan class="cls-2" y="0">2019</tspan><tspan class="cls-3" y="0"> </tspan><tspan class="cls-2" y="0">기</tspan><tspan y="0">준</tspan></text>
    <line id="선_90" data-name="선 90" class="cls-4" x2="336.365" transform="translate(457.482 39.088)"/>
    <path id="패스_41" data-name="패스 41" class="cls-5" d="M13425.42,2216.943h0m-340.85,0h0" transform="translate(-12630.078 -2177.855)"/>
    <path id="패스_42" data-name="패스 42" class="cls-6" d="M13285.413,2253.562h-4.29l-1.136,3.586h-1.5l3.985-11.733h1.648l3.985,11.733h-1.568Zm-.368-1.184-.561-1.793c-.433-1.328-.8-2.609-1.185-3.97h-.063c-.368,1.377-.752,2.642-1.168,3.97l-.577,1.793Zm3.981-6.659a1.01,1.01,0,0,1,2.017,0,1.01,1.01,0,0,1-2.017,0Zm.272,2.737h1.456v8.692h-1.456Zm4.079,0h1.2l.128,1.585h.048a3,3,0,0,1,2.465-1.809,1.856,1.856,0,0,1,.929.192l-.272,1.281a2.054,2.054,0,0,0-.848-.144c-.722,0-1.617.512-2.193,2v5.586h-1.457Zm10.048,0h1.2l.128.992h.048a4.636,4.636,0,0,1,2.77-1.216c2.241,0,3.457,1.761,3.457,4.434,0,2.977-1.776,4.69-3.777,4.69a3.916,3.916,0,0,1-2.4-1.009l.032,1.521v2.945h-1.457Zm6.083,4.226c0-1.921-.641-3.217-2.289-3.217a3.625,3.625,0,0,0-2.337,1.2v4.562a3.368,3.368,0,0,0,2.129.912C13308.452,2256.139,13309.509,2254.843,13309.509,2252.682Zm3.405,1.28v-5.506h1.457v5.33c0,1.617.479,2.305,1.632,2.305.9,0,1.521-.432,2.354-1.472v-6.163h1.457v8.692h-1.218l-.111-1.361h-.049a3.727,3.727,0,0,1-2.881,1.569C13313.73,2257.356,13312.914,2256.171,13312.914,2253.962Zm9.5-5.506h1.2l.128,1.585h.048a3,3,0,0,1,2.466-1.809,1.856,1.856,0,0,1,.929.192l-.272,1.281a2.056,2.056,0,0,0-.849-.144c-.721,0-1.616.512-2.192,2v5.586h-1.457Zm5.616-2.737a1.01,1.01,0,0,1,2.017,0,1.01,1.01,0,0,1-2.017,0Zm.271,2.737h1.456v8.692h-1.456Zm4.32-1.392c0-1.761.8-2.866,2.529-2.866a3.811,3.811,0,0,1,1.456.289l-.32,1.1a2.466,2.466,0,0,0-.976-.224c-.832,0-1.233.592-1.233,1.713v1.376h1.841v1.185h-1.841v7.507h-1.456v-7.507h-1.185v-1.105l1.185-.08Zm7.043-1.345a.968.968,0,0,1-1.025.945.948.948,0,0,1-.991-.945.919.919,0,0,1,.991-.944A.939.939,0,0,1,13339.669,2245.719Zm-1.761,2.737h1.472v8.692h-1.472Zm3.421,4.354c0-2.817,1.905-4.578,3.922-4.578,2.209,0,3.457,1.6,3.457,4.082a5.645,5.645,0,0,1-.064.832h-5.857a2.879,2.879,0,0,0,2.881,3.041,3.748,3.748,0,0,0,2.177-.688l.528.96a5.168,5.168,0,0,1-2.881.9C13343.186,2257.356,13341.329,2255.675,13341.329,2252.81Zm6.1-.7c0-1.761-.8-2.705-2.161-2.705a2.674,2.674,0,0,0-2.5,2.705Zm3.1-3.65h1.2l.128,1.585h.048a3,3,0,0,1,2.465-1.809,1.85,1.85,0,0,1,.928.192l-.271,1.281a2.056,2.056,0,0,0-.849-.144c-.72,0-1.617.512-2.192,2v5.586h-1.456Z" transform="translate(-12630.078 -2177.855)"/>
    <text id="_" data-name="  " class="cls-7" transform="translate(724.866 80.292)"><tspan class="cls-8" x="0" y="0"> </tspan><tspan y="0"> </tspan></text>
    <text id="_36_" data-name="36%" class="cls-9" transform="translate(733.706 80.292)"><tspan class="cls-2" x="0" y="0">36</tspan><tspan y="0">%</tspan></text>
    <line id="선_91" data-name="선 91" class="cls-4" x2="336.365" transform="translate(3.332 78.733)"/>
    <path id="패스_43" data-name="패스 43" class="cls-5" d="M12971.269,2256.588h0m-340.849,0h0" transform="translate(-12630.078 -2177.855)"/>
    <text id="Bidet_" data-name="Bidet " class="cls-10" transform="translate(0 118.972)"><tspan class="cls-8" x="0" y="0">Bid</tspan><tspan class="cls-11" y="0">e</tspan><tspan class="cls-8" y="0">t</tspan><tspan y="0"> </tspan></text>
    <text id="_2" data-name=" " class="cls-7" transform="translate(42.111 119.972)"><tspan x="0" y="0"> </tspan></text>
    <text id="_4_" data-name="4%" class="cls-9" transform="translate(46.531 119.972)"><tspan class="cls-2" x="0" y="0">4</tspan><tspan y="0">%</tspan></text>
    <g id="그룹_8" data-name="그룹 8" transform="translate(-12630.078 -2177.855)">
      <path id="패스_44" data-name="패스 44" class="cls-12" d="M13027.977,2311.623,12898.847,2277a129.762,129.762,0,0,1,17.013-38.229Z"/>
      <path id="패스_45" data-name="패스 45" class="cls-13" d="M13027.977,2311.623l-132.384-18.615a126.874,126.874,0,0,1,3.254-16Z"/>
      <path id="패스_46" data-name="패스 46" class="cls-14" d="M13027.977,2311.623l125.623-45.746a133.693,133.693,0,1,1-251.246,91.492c-7.9-21.727-9.977-41.465-6.761-64.361Z"/>
      <path id="패스_47" data-name="패스 47" class="cls-15" d="M13027.977,2311.623l-112.117-72.847a133.645,133.645,0,0,1,184.928-39.327c25.449,16.535,42.434,37.9,52.813,66.428Z"/>
    </g>
    <line id="선_92" data-name="선 92" class="cls-16" x2="301.993" transform="translate(3.347 205.112)"/>
    <path id="패스_48" data-name="패스 48" class="cls-5" d="M12936.92,2382.967h0m-306.5,0h0" transform="translate(-12630.078 -2177.855)"/>
    <path id="패스_49" data-name="패스 49" class="cls-6" d="M12630.478,2411.426h1.536l1.233,6.386c.224,1.265.464,2.529.688,3.793h.064c.272-1.264.561-2.528.849-3.793l1.616-6.386h1.345l1.649,6.386c.288,1.249.56,2.513.832,3.793h.08q.335-1.92.672-3.793l1.233-6.386h1.424l-2.434,11.732h-1.775l-1.777-7.075c-.208-.928-.384-1.776-.576-2.673h-.063c-.193.9-.4,1.745-.593,2.673l-1.744,7.075h-1.762Zm13.969,9.475c0-1.889,1.648-2.833,5.346-3.249,0-1.121-.368-2.193-1.792-2.193a4.791,4.791,0,0,0-2.609.928l-.576-1.008a6.539,6.539,0,0,1,3.426-1.136c2.112,0,3.009,1.424,3.009,3.569v5.346h-1.2l-.129-1.04h-.048a4.654,4.654,0,0,1-2.881,1.248A2.356,2.356,0,0,1,12644.446,2420.9Zm5.346.144v-2.433c-2.929.353-3.921,1.073-3.921,2.193,0,.993.672,1.393,1.536,1.393A3.547,3.547,0,0,0,12649.792,2421.045Zm3.918-.576v-4.818h-1.3v-1.1l1.36-.08.177-2.433h1.216v2.433h2.353v1.184h-2.353v4.85c0,1.072.336,1.681,1.345,1.681a3.074,3.074,0,0,0,.992-.224l.288,1.088a5.467,5.467,0,0,1-1.6.32C12654.335,2423.366,12653.71,2422.214,12653.71,2420.469Zm4.56-1.648c0-2.818,1.905-4.578,3.923-4.578,2.209,0,3.457,1.6,3.457,4.081a5.645,5.645,0,0,1-.064.832h-5.858a2.881,2.881,0,0,0,2.882,3.042,3.753,3.753,0,0,0,2.177-.688l.528.96a5.177,5.177,0,0,1-2.882.9C12660.127,2423.366,12658.27,2421.686,12658.27,2418.821Zm6.1-.705c0-1.761-.8-2.705-2.16-2.705a2.674,2.674,0,0,0-2.5,2.705Zm3.1-3.649h1.2l.128,1.584h.048a3,3,0,0,1,2.465-1.808,1.854,1.854,0,0,1,.929.192l-.272,1.28a2.054,2.054,0,0,0-.848-.144c-.721,0-1.617.512-2.193,2v5.586h-1.457Zm10.048,0h1.2l.128.992h.048a4.636,4.636,0,0,1,2.77-1.216c2.241,0,3.457,1.76,3.457,4.433,0,2.978-1.777,4.69-3.777,4.69a3.916,3.916,0,0,1-2.4-1.008l.031,1.52v2.946h-1.457Zm6.083,4.225c0-1.92-.641-3.217-2.289-3.217a3.622,3.622,0,0,0-2.337,1.2v4.561a3.366,3.366,0,0,0,2.129.913C12682.544,2422.15,12683.6,2420.853,12683.6,2418.692Zm3.405,1.281v-5.506h1.456v5.33c0,1.617.481,2.3,1.633,2.3.9,0,1.521-.432,2.354-1.473v-6.162h1.457v8.691h-1.217l-.112-1.36h-.048a3.731,3.731,0,0,1-2.881,1.568C12687.822,2423.366,12687.006,2422.182,12687.006,2419.973Zm9.5-5.506h1.2l.128,1.584h.048a3,3,0,0,1,2.465-1.808,1.858,1.858,0,0,1,.93.192l-.272,1.28a2.062,2.062,0,0,0-.849-.144c-.72,0-1.616.512-2.193,2v5.586h-1.456Zm5.616-2.738a1.01,1.01,0,0,1,2.016,0,1.01,1.01,0,0,1-2.016,0Zm.272,2.738h1.455v8.691h-1.455Zm4.319-1.393c0-1.761.8-2.865,2.529-2.865a3.807,3.807,0,0,1,1.456.288l-.32,1.1a2.464,2.464,0,0,0-.976-.225c-.833,0-1.233.593-1.233,1.713v1.377h1.841v1.184h-1.841v7.507h-1.456v-7.507h-1.185v-1.1l1.185-.08Zm7.042-1.345a.966.966,0,0,1-1.023.945.947.947,0,0,1-.992-.945.92.92,0,0,1,.992-.944A.938.938,0,0,1,12713.76,2411.729Zm-1.76,2.738h1.472v8.691H12712Zm3.421,4.354c0-2.818,1.905-4.578,3.922-4.578,2.209,0,3.457,1.6,3.457,4.081a5.8,5.8,0,0,1-.063.832h-5.858a2.88,2.88,0,0,0,2.881,3.042,3.746,3.746,0,0,0,2.177-.688l.528.96a5.173,5.173,0,0,1-2.881.9C12717.278,2423.366,12715.421,2421.686,12715.421,2418.821Zm6.1-.705c0-1.761-.8-2.705-2.16-2.705a2.674,2.674,0,0,0-2.5,2.705Zm3.1-3.649h1.2l.128,1.584h.048a3,3,0,0,1,2.465-1.808,1.85,1.85,0,0,1,.928.192l-.271,1.28a2.054,2.054,0,0,0-.848-.144c-.721,0-1.617.512-2.193,2v5.586h-1.457Z" transform="translate(-12630.078 -2177.855)"/>
    <text id="_3" data-name="  " class="cls-7" transform="translate(98.958 246.303)"><tspan class="cls-8" x="0" y="0"> </tspan><tspan y="0"> </tspan></text>
    <text id="_59_" data-name="59%" class="cls-9" transform="translate(107.798 246.303)"><tspan class="cls-2" x="0" y="0">59</tspan><tspan y="0">%</tspan></text>
    <g id="그룹_9" data-name="그룹 9" transform="translate(-12630.078 -2177.855)">
      <path id="패스_50" data-name="패스 50" class="cls-17" d="M13027.92,2415.514a103.881,103.881,0,1,0-103.881-103.881,103.88,103.88,0,0,0,103.881,103.881"/>
      <path id="패스_51" data-name="패스 51" class="cls-17" d="M13029.5,2339.694c12.442,0,22.527-9.151,22.527-20.439s-10.085-20.437-22.527-20.437-22.527,9.15-22.527,20.437,10.086,20.439,22.527,20.439"/>
    </g>
  </g>
</svg>
