<svg id="구성_요소_112_1" data-name="구성 요소 112 – 1" xmlns="http://www.w3.org/2000/svg" width="796" height="483" viewBox="0 0 796 483">
  <defs>
    <style>
      .cls-1 {
        fill: #f5f7f7;
      }

      .cls-2 {
        fill: #1e2323;
      }

      .cls-3 {
        fill: #3e3a39;
      }

      .cls-4 {
        fill: #5171b1;
      }

      .cls-5, .cls-6, .cls-7, .cls-8 {
        fill: none;
      }

      .cls-5 {
        stroke: #78a5e2;
      }

      .cls-5, .cls-6 {
        stroke-width: 3px;
      }

      .cls-6, .cls-7 {
        stroke: #3e3a39;
      }

      .cls-8 {
        stroke: #828585;
        stroke-width: 0.283px;
      }

      .cls-9 {
        fill: #132e54;
      }

      .cls-10 {
        fill: #656464;
        font-size: 12px;
        font-family: NotoSansKR-Light, Noto Sans KR;
        font-weight: 300;
      }

      .cls-11 {
        letter-spacing: -0.014em;
      }
    </style>
  </defs>
  <rect id="사각형_176" data-name="사각형 176" class="cls-1" width="796" height="483"/>
  <g id="구성_요소_104_1" data-name="구성 요소 104 – 1" transform="translate(20 55.792)">
    <path id="패스_1469" data-name="패스 1469" class="cls-2" d="M2.87,0h.882c.154-3.99.658-6.538,3.08-9.716v-.49H.672v.714H5.838C3.808-6.664,3.038-4.074,2.87,0ZM8.5-3.6,11.27-7.644c.294-.462.574-.952.812-1.414h.07c-.042.476-.084,1.232-.084,1.694V-3.6Zm5.81,0H12.866v-6.608h-.8L7.56-3.43v.518h4.508V0h.8V-2.912h1.442Z" transform="translate(97.706 305.167)"/>
    <path id="패스_1468" data-name="패스 1468" class="cls-2" d="M1.288,0H6.552V-.714H4.424v-9.492H3.766a5.859,5.859,0,0,1-1.946.644v.546H3.6v8.3H1.288ZM11.41-.5C9.856-.5,9.058-1.932,8.932-4.172A3.068,3.068,0,0,1,11.27-5.628c1.456,0,2.072,1.064,2.072,2.548S12.516-.5,11.41-.5Zm2.548-8.9a2.794,2.794,0,0,0-2.17-.98c-1.918,0-3.668,1.456-3.668,5.572,0,3.248,1.3,5,3.276,5A3,3,0,0,0,14.154-3.08c0-2.1-1.036-3.206-2.772-3.206a3.285,3.285,0,0,0-2.464,1.33C8.96-8.47,10.262-9.688,11.8-9.688a2.135,2.135,0,0,1,1.666.812ZM15.876,0H21.14V-.714H19.012v-9.492h-.658a5.859,5.859,0,0,1-1.946.644v.546h1.778v8.3h-2.31Z" transform="translate(97.706 243.146)"/>
    <path id="패스_1470" data-name="패스 1470" class="cls-2" d="M3.794.182a2.761,2.761,0,0,0,3.052-2.59A3,3,0,0,0,5.11-5.068v-.07a3.568,3.568,0,0,0,1.4-2.534,2.535,2.535,0,0,0-2.7-2.674,2.5,2.5,0,0,0-2.632,2.52A2.818,2.818,0,0,0,2.576-5.5v.056A3.452,3.452,0,0,0,.63-2.534,2.879,2.879,0,0,0,3.794.182Zm.714-5.544C3.234-5.866,1.96-6.44,1.96-7.826A1.787,1.787,0,0,1,3.794-9.688a1.918,1.918,0,0,1,1.96,2.044A2.977,2.977,0,0,1,4.508-5.362ZM3.794-.476A2.2,2.2,0,0,1,1.4-2.576,3.036,3.036,0,0,1,3.066-5.138c1.54.6,2.968,1.162,2.968,2.716A2.026,2.026,0,0,1,3.794-.476ZM7.924,0H14.07V-.728H10.892c-.532,0-1.12.042-1.68.084C11.928-3.178,13.58-5.32,13.58-7.462a2.674,2.674,0,0,0-2.828-2.926,3.752,3.752,0,0,0-2.87,1.47l.518.49A3.04,3.04,0,0,1,10.668-9.7a2.006,2.006,0,0,1,2.086,2.268c0,1.848-1.372,3.948-4.83,6.93Z" transform="translate(193.172 298.167)"/>
    <path id="패스_1467" data-name="패스 1467" class="cls-2" d="M1.288,0H6.552V-.714H4.424v-9.492H3.766a5.859,5.859,0,0,1-1.946.644v.546H3.6v8.3H1.288Zm9.8.182a2.761,2.761,0,0,0,3.052-2.59A3,3,0,0,0,12.4-5.068v-.07a3.568,3.568,0,0,0,1.4-2.534,2.535,2.535,0,0,0-2.7-2.674A2.5,2.5,0,0,0,8.47-7.826,2.818,2.818,0,0,0,9.87-5.5v.056A3.452,3.452,0,0,0,7.924-2.534,2.879,2.879,0,0,0,11.088.182ZM11.8-5.362c-1.274-.5-2.548-1.078-2.548-2.464a1.787,1.787,0,0,1,1.834-1.862,1.918,1.918,0,0,1,1.96,2.044A2.977,2.977,0,0,1,11.8-5.362ZM11.088-.476a2.2,2.2,0,0,1-2.394-2.1A3.036,3.036,0,0,1,10.36-5.138c1.54.6,2.968,1.162,2.968,2.716A2.026,2.026,0,0,1,11.088-.476ZM18.13.182a3.233,3.233,0,0,0,3.192-3.458c0-2.268-1.344-3.276-3.024-3.276a3.147,3.147,0,0,0-1.708.49l.294-3.43h3.934v-.714H16.156l-.35,4.662.532.322a2.959,2.959,0,0,1,1.806-.644,2.312,2.312,0,0,1,2.338,2.618A2.5,2.5,0,0,1,18.1-.518a3.436,3.436,0,0,1-2.674-1.2l-.448.574A4.2,4.2,0,0,0,18.13.182Z" transform="translate(193.172 225.45)"/>
    <path id="패스_1471" data-name="패스 1471" class="cls-2" d="M3.5-4.578c-1.414,0-2.044-1.078-2.044-2.548s.826-2.59,1.932-2.59c1.6,0,2.408,1.414,2.492,3.64A3.057,3.057,0,0,1,3.5-4.578ZM.854-.8a2.98,2.98,0,0,0,2.254.98c1.862,0,3.584-1.54,3.584-5.838,0-3.08-1.316-4.732-3.29-4.732A3,3,0,0,0,.644-7.126C.644-5.054,1.694-3.92,3.4-3.92A3.324,3.324,0,0,0,5.894-5.278C5.81-1.75,4.536-.518,3.122-.518A2.3,2.3,0,0,1,1.344-1.33Zm10.052.98A2.854,2.854,0,0,0,13.986-2.7a2.66,2.66,0,0,0-2.24-2.632V-5.4a2.547,2.547,0,0,0,1.876-2.52A2.484,2.484,0,0,0,10.864-10.4a3.965,3.965,0,0,0-2.73,1.2l.476.56a3.2,3.2,0,0,1,2.24-1.078,1.787,1.787,0,0,1,1.932,1.848c0,1.218-.784,2.184-3.024,2.184V-5c2.436,0,3.388.924,3.388,2.3A2.125,2.125,0,0,1,10.878-.518,3.491,3.491,0,0,1,8.19-1.764l-.462.546A4.127,4.127,0,0,0,10.906.182Z" transform="translate(284.396 290.172)"/>
    <path id="패스_1466" data-name="패스 1466" class="cls-2" d="M.63,0H6.776V-.728H3.6c-.532,0-1.12.042-1.68.084C4.634-3.178,6.286-5.32,6.286-7.462a2.674,2.674,0,0,0-2.828-2.926,3.752,3.752,0,0,0-2.87,1.47l.518.49A3.04,3.04,0,0,1,3.374-9.7,2.006,2.006,0,0,1,5.46-7.434C5.46-5.586,4.088-3.486.63-.5Zm9.534,0h.882c.154-3.99.658-6.538,3.08-9.716v-.49H7.966v.714h5.166C11.1-6.664,10.332-4.074,10.164,0Zm5.054,0h6.146V-.728H18.186c-.532,0-1.12.042-1.68.084,2.716-2.534,4.368-4.676,4.368-6.818a2.674,2.674,0,0,0-2.828-2.926,3.752,3.752,0,0,0-2.87,1.47l.518.49A3.04,3.04,0,0,1,17.962-9.7a2.006,2.006,0,0,1,2.086,2.268c0,1.848-1.372,3.948-4.83,6.93Z" transform="translate(284.396 204.45)"/>
    <path id="패스_1472" data-name="패스 1472" class="cls-2" d="M1.288,0H6.552V-.714H4.424v-9.492H3.766a5.859,5.859,0,0,1-1.946.644v.546H3.6v8.3H1.288Zm9.758.182c1.848,0,3-1.736,3-5.32,0-3.542-1.148-5.25-3-5.25s-3.01,1.708-3.01,5.25C8.036-1.554,9.184.182,11.046.182Zm0-.686c-1.33,0-2.2-1.54-2.2-4.634,0-3.038.868-4.564,2.2-4.564S13.23-8.176,13.23-5.138C13.23-2.044,12.362-.5,11.046-.5Zm4.172.5h6.146V-.728H18.186c-.532,0-1.12.042-1.68.084,2.716-2.534,4.368-4.676,4.368-6.818a2.674,2.674,0,0,0-2.828-2.926,3.752,3.752,0,0,0-2.87,1.47l.518.49A3.04,3.04,0,0,1,17.962-9.7a2.006,2.006,0,0,1,2.086,2.268c0,1.848-1.372,3.948-4.83,6.93Z" transform="translate(378.518 282.165)"/>
    <path id="패스_1465" data-name="패스 1465" class="cls-2" d="M1.2-3.6,3.976-7.644c.294-.462.574-.952.812-1.414h.07c-.042.476-.084,1.232-.084,1.694V-3.6Zm5.81,0H5.572v-6.608h-.8L.266-3.43v.518H4.774V0h.8V-2.912H7.014ZM10.906.182A2.854,2.854,0,0,0,13.986-2.7a2.66,2.66,0,0,0-2.24-2.632V-5.4a2.547,2.547,0,0,0,1.876-2.52A2.484,2.484,0,0,0,10.864-10.4a3.965,3.965,0,0,0-2.73,1.2l.476.56a3.2,3.2,0,0,1,2.24-1.078,1.787,1.787,0,0,1,1.932,1.848c0,1.218-.784,2.184-3.024,2.184V-5c2.436,0,3.388.924,3.388,2.3A2.125,2.125,0,0,1,10.878-.518,3.491,3.491,0,0,1,8.19-1.764l-.462.546A4.127,4.127,0,0,0,10.906.182ZM15.876,0H21.14V-.714H19.012v-9.492h-.658a5.859,5.859,0,0,1-1.946.644v.546h1.778v8.3h-2.31Z" transform="translate(378.518 173.413)"/>
    <path id="패스_1473" data-name="패스 1473" class="cls-2" d="M1.288,0H6.552V-.714H4.424v-9.492H3.766a5.859,5.859,0,0,1-1.946.644v.546H3.6v8.3H1.288ZM8.582,0h5.264V-.714H11.718v-9.492H11.06a5.859,5.859,0,0,1-1.946.644v.546h1.778v8.3H8.582Zm7.294,0H21.14V-.714H19.012v-9.492h-.658a5.859,5.859,0,0,1-1.946.644v.546h1.778v8.3h-2.31Z" transform="translate(470.975 273.163)"/>
    <path id="패스_1464" data-name="패스 1464" class="cls-2" d="M4.116-.5C2.562-.5,1.764-1.932,1.638-4.172A3.068,3.068,0,0,1,3.976-5.628c1.456,0,2.072,1.064,2.072,2.548S5.222-.5,4.116-.5Zm2.548-8.9a2.794,2.794,0,0,0-2.17-.98C2.576-10.388.826-8.932.826-4.816c0,3.248,1.3,5,3.276,5A3,3,0,0,0,6.86-3.08c0-2.1-1.036-3.206-2.772-3.206a3.285,3.285,0,0,0-2.464,1.33C1.666-8.47,2.968-9.688,4.508-9.688a2.135,2.135,0,0,1,1.666.812ZM10.836.182a3.233,3.233,0,0,0,3.192-3.458c0-2.268-1.344-3.276-3.024-3.276a3.147,3.147,0,0,0-1.708.49l.294-3.43h3.934v-.714H8.862l-.35,4.662.532.322a2.959,2.959,0,0,1,1.806-.644,2.312,2.312,0,0,1,2.338,2.618,2.5,2.5,0,0,1-2.38,2.73,3.436,3.436,0,0,1-2.674-1.2l-.448.574A4.2,4.2,0,0,0,10.836.182Zm7.364,0A2.854,2.854,0,0,0,21.28-2.7a2.66,2.66,0,0,0-2.24-2.632V-5.4a2.547,2.547,0,0,0,1.876-2.52A2.484,2.484,0,0,0,18.158-10.4a3.965,3.965,0,0,0-2.73,1.2l.476.56a3.2,3.2,0,0,1,2.24-1.078,1.787,1.787,0,0,1,1.932,1.848c0,1.218-.784,2.184-3.024,2.184V-5c2.436,0,3.388.924,3.388,2.3A2.125,2.125,0,0,1,18.172-.518a3.491,3.491,0,0,1-2.688-1.246l-.462.546A4.127,4.127,0,0,0,18.2.182Z" transform="translate(469.975 137.661)"/>
    <path id="패스_1475" data-name="패스 1475" class="cls-2" d="M1.288,0H6.552V-.714H4.424v-9.492H3.766a5.859,5.859,0,0,1-1.946.644v.546H3.6v8.3H1.288Z" transform="translate(566.97 266.163)"/>
    <path id="패스_1474" data-name="패스 1474" class="cls-2" d="M1.2.733H6.462V.019H4.333v-9.5H3.675a5.861,5.861,0,0,1-1.947.644v.546H3.507V.019H1.2Zm7.143-3.6,2.773-4.048c.294-.462.574-.952.812-1.415h.07c-.042.476-.084,1.232-.084,1.695v3.767Zm5.812,0H12.708V-9.477h-.8L7.4-2.7v.518h4.51V.733h.8V-2.18h1.443Z" transform="translate(574.24 265.434)"/>
    <path id="패스_1463" data-name="패스 1463" class="cls-2" d="M4.116-.5C2.562-.5,1.764-1.932,1.638-4.172A3.068,3.068,0,0,1,3.976-5.628c1.456,0,2.072,1.064,2.072,2.548S5.222-.5,4.116-.5Zm2.548-8.9a2.794,2.794,0,0,0-2.17-.98C2.576-10.388.826-8.932.826-4.816c0,3.248,1.3,5,3.276,5A3,3,0,0,0,6.86-3.08c0-2.1-1.036-3.206-2.772-3.206a3.285,3.285,0,0,0-2.464,1.33C1.666-8.47,2.968-9.688,4.508-9.688a2.135,2.135,0,0,1,1.666.812ZM10.836.182a3.233,3.233,0,0,0,3.192-3.458c0-2.268-1.344-3.276-3.024-3.276a3.147,3.147,0,0,0-1.708.49l.294-3.43h3.934v-.714H8.862l-.35,4.662.532.322a2.959,2.959,0,0,1,1.806-.644,2.312,2.312,0,0,1,2.338,2.618,2.5,2.5,0,0,1-2.38,2.73,3.436,3.436,0,0,1-2.674-1.2l-.448.574A4.2,4.2,0,0,0,10.836.182Zm7.364,0A2.854,2.854,0,0,0,21.28-2.7a2.66,2.66,0,0,0-2.24-2.632V-5.4a2.547,2.547,0,0,0,1.876-2.52A2.484,2.484,0,0,0,18.158-10.4a3.965,3.965,0,0,0-2.73,1.2l.476.56a3.2,3.2,0,0,1,2.24-1.078,1.787,1.787,0,0,1,1.932,1.848c0,1.218-.784,2.184-3.024,2.184V-5c2.436,0,3.388.924,3.388,2.3A2.125,2.125,0,0,1,18.172-.518a3.491,3.491,0,0,1-2.688-1.246l-.462.546A4.127,4.127,0,0,0,18.2.182Z" transform="translate(563.815 91.171)"/>
    <path id="패스_1476" data-name="패스 1476" class="cls-3" d="M1.806,0h8.82V-2H7.6V-15.456H5.775a9.494,9.494,0,0,1-3.36,1.176v1.533H5.187V-2H1.806ZM12.495,0H22.47V-2.058H18.606c-.756,0-1.722.063-2.52.147,3.276-3.129,5.649-6.216,5.649-9.2a4.371,4.371,0,0,0-4.662-4.641,6.065,6.065,0,0,0-4.7,2.31L13.734-12.1a4.192,4.192,0,0,1,3.045-1.722A2.52,2.52,0,0,1,19.4-10.983c0,2.541-2.352,5.544-6.909,9.576ZM29.127.273c3.024,0,5-2.688,5-8.064,0-5.334-1.974-7.959-5-7.959-3.045,0-5,2.6-5,7.959C24.129-2.415,26.082.273,29.127.273Zm0-1.911c-1.575,0-2.688-1.68-2.688-6.153,0-4.431,1.113-6.048,2.688-6.048s2.688,1.617,2.688,6.048C31.815-3.318,30.7-1.638,29.127-1.638Z" transform="translate(621.428 218.337)"/>
    <path id="패스_1462" data-name="패스 1462" class="cls-4" d="M1.806,0h8.82V-2H7.6V-15.456H5.775a9.494,9.494,0,0,1-3.36,1.176v1.533H5.187V-2H1.806ZM13.23,4.2A4.923,4.923,0,0,0,16.674-.525c0-1.617-.693-2.6-1.869-2.6a1.569,1.569,0,0,0-1.68,1.554A1.514,1.514,0,0,0,14.742-.021a.861.861,0,0,0,.231-.021,3.26,3.26,0,0,1-2.289,2.877ZM23.037.273c2.835,0,5.166-1.638,5.166-4.431a3.914,3.914,0,0,0-3.192-3.864v-.1a3.736,3.736,0,0,0,2.667-3.633c0-2.562-1.953-3.99-4.725-3.99a6.514,6.514,0,0,0-4.431,1.869l1.26,1.512a4.526,4.526,0,0,1,3.087-1.47,2.163,2.163,0,0,1,2.373,2.247c0,1.554-1.008,2.709-4.053,2.709V-7.1c3.486,0,4.578,1.113,4.578,2.835,0,1.6-1.2,2.562-2.94,2.562a5,5,0,0,1-3.654-1.7L18-1.848A6.415,6.415,0,0,0,23.037.273Zm11.571,0a5.1,5.1,0,0,0,5.208-5.355c0-3.381-2.121-4.914-4.7-4.914a4.357,4.357,0,0,0-2.121.546l.357-3.969h5.733v-2.037H31.248l-.462,7.329,1.176.777a4.066,4.066,0,0,1,2.478-.882c1.764,0,2.94,1.176,2.94,3.234a3.021,3.021,0,0,1-3.066,3.3A4.946,4.946,0,0,1,30.7-3.36L29.547-1.785A6.84,6.84,0,0,0,34.608.273Zm8.8-6.3,3.045-4.662c.441-.8.861-1.6,1.239-2.373h.084c-.042.84-.126,2.142-.126,2.982v4.053Zm8.484,0H49.917v-9.429H47.124L40.971-5.775v1.617h6.678V0h2.268V-4.158h1.974Z" transform="translate(608.111 15.75)"/>
    <path id="패스_39" data-name="패스 39" class="cls-5" d="M12747.738,2836.873l93.287-17.195,93.57-23.024,93.183-25.277,93.108-36.156,93.248-44.844,94.068-70.645" transform="translate(-12649.92 -2578.524)"/>
    <path id="패스_40" data-name="패스 40" class="cls-6" d="M12747.738,2898.377l93.145-7,93.713-7.5,93.183-4.84,93.391-9.351,93.146-5.309,94.79-8" transform="translate(-12649.92 -2578.524)"/>
    <line id="선_82" data-name="선 82" class="cls-7" x2="756" transform="translate(0 349.867)"/>
    <line id="선_83" data-name="선 83" class="cls-8" y1="91.521" transform="translate(97.96 258.346)"/>
    <line id="선_84" data-name="선 84" class="cls-8" y1="108.717" transform="translate(191.105 241.15)"/>
    <line id="선_85" data-name="선 85" class="cls-8" y1="131.737" transform="translate(284.534 218.13)"/>
    <line id="선_86" data-name="선 86" class="cls-8" y1="157.016" transform="translate(378 192.851)"/>
    <line id="선_87" data-name="선 87" class="cls-8" y1="192.016" transform="translate(471.107 157.851)"/>
    <line id="선_88" data-name="선 88" class="cls-8" y1="239.016" transform="translate(564.216 110.851)"/>
    <line id="선_89" data-name="선 89" class="cls-8" y1="330.12" transform="translate(658.142 19.747)"/>
    <path id="패스_1483" data-name="패스 1483" class="cls-2" d="M.63,0H6.776V-.728H3.6c-.532,0-1.12.042-1.68.084C4.634-3.178,6.286-5.32,6.286-7.462a2.674,2.674,0,0,0-2.828-2.926,3.752,3.752,0,0,0-2.87,1.47l.518.49A3.04,3.04,0,0,1,3.374-9.7,2.006,2.006,0,0,1,5.46-7.434C5.46-5.586,4.088-3.486.63-.5ZM11.046.182c1.848,0,3-1.736,3-5.32,0-3.542-1.148-5.25-3-5.25s-3.01,1.708-3.01,5.25C8.036-1.554,9.184.182,11.046.182Zm0-.686c-1.33,0-2.2-1.54-2.2-4.634,0-3.038.868-4.564,2.2-4.564S13.23-8.176,13.23-5.138C13.23-2.044,12.362-.5,11.046-.5Zm4.83.5H21.14V-.714H19.012v-9.492h-.658a5.859,5.859,0,0,1-1.946.644v.546h1.778v8.3h-2.31Zm9.618.182A2.854,2.854,0,0,0,28.574-2.7a2.66,2.66,0,0,0-2.24-2.632V-5.4a2.547,2.547,0,0,0,1.876-2.52A2.484,2.484,0,0,0,25.452-10.4a3.965,3.965,0,0,0-2.73,1.2l.476.56a3.2,3.2,0,0,1,2.24-1.078A1.787,1.787,0,0,1,27.37-7.868c0,1.218-.784,2.184-3.024,2.184V-5c2.436,0,3.388.924,3.388,2.3A2.125,2.125,0,0,1,25.466-.518a3.491,3.491,0,0,1-2.688-1.246l-.462.546A4.127,4.127,0,0,0,25.494.182Z" transform="translate(83.295 372.687)"/>
    <path id="패스_1477" data-name="패스 1477" class="cls-9" d="M.66,0H7.785V-1.47H5.025c-.54,0-1.23.045-1.8.1C5.565-3.6,7.26-5.8,7.26-7.935A3.122,3.122,0,0,0,3.93-11.25,4.332,4.332,0,0,0,.57-9.6l.975.96A2.994,2.994,0,0,1,3.72-9.87,1.8,1.8,0,0,1,5.595-7.845C5.595-6.03,3.915-3.885.66-1ZM12.54.2c2.16,0,3.57-1.92,3.57-5.76,0-3.81-1.41-5.685-3.57-5.685-2.175,0-3.57,1.86-3.57,5.685C8.97-1.725,10.365.2,12.54.2Zm0-1.365c-1.125,0-1.92-1.2-1.92-4.395,0-3.165.795-4.32,1.92-4.32s1.92,1.155,1.92,4.32C14.46-2.37,13.665-1.17,12.54-1.17ZM17.82,0h6.3V-1.425H21.96V-11.04H20.655a6.782,6.782,0,0,1-2.4.84v1.1h1.98v7.68H17.82ZM28.83-5.4c-1.155,0-1.785-.81-1.785-2.22,0-1.44.75-2.295,1.695-2.295,1.2,0,2.025.99,2.19,3.165A2.648,2.648,0,0,1,28.83-5.4ZM25.62-.975A3.789,3.789,0,0,0,28.44.2c2.13,0,4.11-1.74,4.11-6.09,0-3.645-1.71-5.355-3.825-5.355A3.376,3.376,0,0,0,25.44-7.62c0,2.31,1.245,3.465,3.09,3.465a3.319,3.319,0,0,0,2.43-1.29c-.1,3.15-1.26,4.23-2.595,4.23A2.461,2.461,0,0,1,26.55-2.04Z" transform="translate(641.492 373.567)"/>
    <path id="패스_1478" data-name="패스 1478" class="cls-2" d="M.63,0H6.776V-.728H3.6c-.532,0-1.12.042-1.68.084C4.634-3.178,6.286-5.32,6.286-7.462a2.674,2.674,0,0,0-2.828-2.926,3.752,3.752,0,0,0-2.87,1.47l.518.49A3.04,3.04,0,0,1,3.374-9.7,2.006,2.006,0,0,1,5.46-7.434C5.46-5.586,4.088-3.486.63-.5ZM11.046.182c1.848,0,3-1.736,3-5.32,0-3.542-1.148-5.25-3-5.25s-3.01,1.708-3.01,5.25C8.036-1.554,9.184.182,11.046.182Zm0-.686c-1.33,0-2.2-1.54-2.2-4.634,0-3.038.868-4.564,2.2-4.564S13.23-8.176,13.23-5.138C13.23-2.044,12.362-.5,11.046-.5Zm4.83.5H21.14V-.714H19.012v-9.492h-.658a5.859,5.859,0,0,1-1.946.644v.546h1.778v8.3h-2.31Zm9.8.182a2.761,2.761,0,0,0,3.052-2.59,3,3,0,0,0-1.736-2.66v-.07a3.568,3.568,0,0,0,1.4-2.534,2.535,2.535,0,0,0-2.7-2.674,2.5,2.5,0,0,0-2.632,2.52,2.818,2.818,0,0,0,1.4,2.324v.056a3.452,3.452,0,0,0-1.946,2.912A2.879,2.879,0,0,0,25.676.182Zm.714-5.544c-1.274-.5-2.548-1.078-2.548-2.464a1.787,1.787,0,0,1,1.834-1.862,1.918,1.918,0,0,1,1.96,2.044A2.977,2.977,0,0,1,26.39-5.362ZM25.676-.476a2.2,2.2,0,0,1-2.394-2.1,3.036,3.036,0,0,1,1.666-2.562c1.54.6,2.968,1.162,2.968,2.716A2.026,2.026,0,0,1,25.676-.476Z" transform="translate(549.73 372.687)"/>
    <path id="패스_1479" data-name="패스 1479" class="cls-2" d="M.63,0H6.776V-.728H3.6c-.532,0-1.12.042-1.68.084C4.634-3.178,6.286-5.32,6.286-7.462a2.674,2.674,0,0,0-2.828-2.926,3.752,3.752,0,0,0-2.87,1.47l.518.49A3.04,3.04,0,0,1,3.374-9.7,2.006,2.006,0,0,1,5.46-7.434C5.46-5.586,4.088-3.486.63-.5ZM11.046.182c1.848,0,3-1.736,3-5.32,0-3.542-1.148-5.25-3-5.25s-3.01,1.708-3.01,5.25C8.036-1.554,9.184.182,11.046.182Zm0-.686c-1.33,0-2.2-1.54-2.2-4.634,0-3.038.868-4.564,2.2-4.564S13.23-8.176,13.23-5.138C13.23-2.044,12.362-.5,11.046-.5Zm4.83.5H21.14V-.714H19.012v-9.492h-.658a5.859,5.859,0,0,1-1.946.644v.546h1.778v8.3h-2.31Zm8.876,0h.882c.154-3.99.658-6.538,3.08-9.716v-.49h-6.16v.714H27.72C25.69-6.664,24.92-4.074,24.752,0Z" transform="translate(456.448 372.687)"/>
    <path id="패스_1480" data-name="패스 1480" class="cls-2" d="M.63,0H6.776V-.728H3.6c-.532,0-1.12.042-1.68.084C4.634-3.178,6.286-5.32,6.286-7.462a2.674,2.674,0,0,0-2.828-2.926,3.752,3.752,0,0,0-2.87,1.47l.518.49A3.04,3.04,0,0,1,3.374-9.7,2.006,2.006,0,0,1,5.46-7.434C5.46-5.586,4.088-3.486.63-.5ZM11.046.182c1.848,0,3-1.736,3-5.32,0-3.542-1.148-5.25-3-5.25s-3.01,1.708-3.01,5.25C8.036-1.554,9.184.182,11.046.182Zm0-.686c-1.33,0-2.2-1.54-2.2-4.634,0-3.038.868-4.564,2.2-4.564S13.23-8.176,13.23-5.138C13.23-2.044,12.362-.5,11.046-.5Zm4.83.5H21.14V-.714H19.012v-9.492h-.658a5.859,5.859,0,0,1-1.946.644v.546h1.778v8.3h-2.31ZM26-.5c-1.554,0-2.352-1.428-2.478-3.668a3.068,3.068,0,0,1,2.338-1.456c1.456,0,2.072,1.064,2.072,2.548S27.1-.5,26-.5Zm2.548-8.9a2.794,2.794,0,0,0-2.17-.98c-1.918,0-3.668,1.456-3.668,5.572,0,3.248,1.3,5,3.276,5A3,3,0,0,0,28.742-3.08c0-2.1-1.036-3.206-2.772-3.206a3.285,3.285,0,0,0-2.464,1.33c.042-3.514,1.344-4.732,2.884-4.732a2.135,2.135,0,0,1,1.666.812Z" transform="translate(363.166 372.687)"/>
    <path id="패스_1481" data-name="패스 1481" class="cls-2" d="M.63,0H6.776V-.728H3.6c-.532,0-1.12.042-1.68.084C4.634-3.178,6.286-5.32,6.286-7.462a2.674,2.674,0,0,0-2.828-2.926,3.752,3.752,0,0,0-2.87,1.47l.518.49A3.04,3.04,0,0,1,3.374-9.7,2.006,2.006,0,0,1,5.46-7.434C5.46-5.586,4.088-3.486.63-.5ZM11.046.182c1.848,0,3-1.736,3-5.32,0-3.542-1.148-5.25-3-5.25s-3.01,1.708-3.01,5.25C8.036-1.554,9.184.182,11.046.182Zm0-.686c-1.33,0-2.2-1.54-2.2-4.634,0-3.038.868-4.564,2.2-4.564S13.23-8.176,13.23-5.138C13.23-2.044,12.362-.5,11.046-.5Zm4.83.5H21.14V-.714H19.012v-9.492h-.658a5.859,5.859,0,0,1-1.946.644v.546h1.778v8.3h-2.31Zm9.548.182a3.233,3.233,0,0,0,3.192-3.458c0-2.268-1.344-3.276-3.024-3.276a3.147,3.147,0,0,0-1.708.49l.294-3.43h3.934v-.714H23.45L23.1-5.544l.532.322a2.959,2.959,0,0,1,1.806-.644,2.312,2.312,0,0,1,2.338,2.618A2.5,2.5,0,0,1,25.4-.518a3.436,3.436,0,0,1-2.674-1.2l-.448.574A4.2,4.2,0,0,0,25.424.182Z" transform="translate(269.884 372.687)"/>
    <path id="패스_1482" data-name="패스 1482" class="cls-2" d="M.63,0H6.776V-.728H3.6c-.532,0-1.12.042-1.68.084C4.634-3.178,6.286-5.32,6.286-7.462a2.674,2.674,0,0,0-2.828-2.926,3.752,3.752,0,0,0-2.87,1.47l.518.49A3.04,3.04,0,0,1,3.374-9.7,2.006,2.006,0,0,1,5.46-7.434C5.46-5.586,4.088-3.486.63-.5ZM11.046.182c1.848,0,3-1.736,3-5.32,0-3.542-1.148-5.25-3-5.25s-3.01,1.708-3.01,5.25C8.036-1.554,9.184.182,11.046.182Zm0-.686c-1.33,0-2.2-1.54-2.2-4.634,0-3.038.868-4.564,2.2-4.564S13.23-8.176,13.23-5.138C13.23-2.044,12.362-.5,11.046-.5Zm4.83.5H21.14V-.714H19.012v-9.492h-.658a5.859,5.859,0,0,1-1.946.644v.546h1.778v8.3h-2.31Zm7.21-3.6,2.772-4.046c.294-.462.574-.952.812-1.414h.07c-.042.476-.084,1.232-.084,1.694V-3.6Zm5.81,0H27.454v-6.608h-.8L22.148-3.43v.518h4.508V0h.8V-2.912H28.9Z" transform="translate(176.602 372.687)"/>
  </g>
  <text id="_2014년_및_그_이후_수치는_무상_멤버쉽_계정_제외_기준" data-name="* 2014년 및 그 이후 수치는 무상 멤버쉽 계정 제외 기준" class="cls-10" transform="translate(20 455.4)"><tspan class="cls-11" x="0" y="0">* 2014년 및 그 이후 수치는 무상 멤버쉽 계정 제외 기</tspan><tspan y="0">준</tspan></text>
</svg>
