<svg xmlns="http://www.w3.org/2000/svg" width="796" height="344.478" viewBox="0 0 796 344.478">
  <defs>
    <style>
      .cls-1, .cls-2, .cls-3, .cls-4, .cls-5, .cls-6 {
        fill: none;
        stroke: #3e3a39;
        stroke-linecap: round;
        stroke-linejoin: round;
      }

      .cls-1 {
        stroke-dasharray: 0 2.962;
      }

      .cls-2 {
        stroke-dasharray: 0 2.997;
      }

      .cls-4 {
        stroke-dasharray: 0 2.995;
      }

      .cls-5 {
        stroke-dasharray: 0 3.006;
      }

      .cls-6 {
        stroke-dasharray: 0 2.998;
      }

      .cls-7, .cls-8 {
        fill: #1e2323;
      }

      .cls-8 {
        font-size: 17px;
        font-family: NotoSansKR-Medium, Noto Sans KR;
        font-weight: 500;
      }

      .cls-9 {
        letter-spacing: -0.02em;
      }

      .cls-10 {
        fill: #132e54;
      }

      .cls-11 {
        fill: #828585;
      }

      .cls-12 {
        fill: #cbd0d3;
      }

      .cls-13 {
        fill: #d0eaf6;
      }

      .cls-14 {
        fill: #5171b1;
      }

      .cls-15 {
        fill: #a0c0eb;
      }

      .cls-16 {
        fill: #fff;
      }
    </style>
  </defs>
  <g id="구성_요소_103_1" data-name="구성 요소 103 – 1" transform="translate(0.5 0.021)">
    <g id="구성_요소_86_1" data-name="구성 요소 86 – 1">
      <line id="선_93" data-name="선 93" class="cls-1" y1="46.289" x2="43.728" transform="translate(486.534 1.555)"/>
      <line id="선_94" data-name="선 94" class="cls-2" x2="259.226" transform="translate(534.275 0.479)"/>
      <path id="패스_52" data-name="패스 52" class="cls-3" d="M13425.42,3448.912h0m-263.722,0h0m-46.778,49.518h0" transform="translate(-12630.42 -3448.433)"/>
      <line id="선_95" data-name="선 95" class="cls-4" x2="286.008" transform="translate(507.495 93.03)"/>
      <path id="패스_53" data-name="패스 53" class="cls-3" d="M13425.42,3541.463h0m-290.5,0h0" transform="translate(-12630.42 -3448.433)"/>
      <line id="선_96" data-name="선 96" class="cls-4" x2="286.008" transform="translate(2.995 72.323)"/>
      <path id="패스_54" data-name="패스 54" class="cls-3" d="M12920.92,3520.756h0m-290.5,0h0" transform="translate(-12630.42 -3448.433)"/>
      <line id="선_97" data-name="선 97" class="cls-4" x2="286.008" transform="translate(2.995 204.295)"/>
      <path id="패스_55" data-name="패스 55" class="cls-3" d="M12920.92,3652.729h0m-290.5,0h0" transform="translate(-12630.42 -3448.433)"/>
      <line id="선_98" data-name="선 98" class="cls-4" x2="286.008" transform="translate(507.495 185.008)"/>
      <path id="패스_56" data-name="패스 56" class="cls-3" d="M13425.42,3633.441h0m-290.5,0h0" transform="translate(-12630.42 -3448.433)"/>
      <line id="선_99" data-name="선 99" class="cls-5" x2="62.981" y2="43.701" transform="translate(466.97 234.405)"/>
      <line id="선_100" data-name="선 100" class="cls-6" x2="259.317" transform="translate(534.184 278.963)"/>
      <path id="패스_57" data-name="패스 57" class="cls-3" d="M13425.42,3727.4h0m-263.813,0h0m-66.687-46.271h0" transform="translate(-12630.42 -3448.433)"/>
      <path id="패스_1495" data-name="패스 1495" class="cls-7" d="M9.044-10.03v1.139h3.009V-4.9h1.411v-9.078H12.053v3.944Zm.85,3.468A5.25,5.25,0,0,1,6.188-11.22v-.527H9.537v-1.122H1.394v1.122h3.4v.527A5.621,5.621,0,0,1,.952-6.137l.731,1.105A6.6,6.6,0,0,0,5.525-8.908,6.264,6.264,0,0,0,9.2-5.474ZM8.432.17c-2.3,0-3.689-.646-3.689-1.751S6.137-3.349,8.432-3.349s3.689.663,3.689,1.768S10.727.17,8.432.17Zm0-4.59C5.3-4.42,3.349-3.383,3.349-1.581S5.3,1.258,8.432,1.258,13.5.221,13.5-1.581,11.56-4.42,8.432-4.42Zm18.445-3.5H19.312v-2.244h7.565Zm1.394-5.457H26.877v2.091H19.312v-2.091H17.935v6.6H28.271Zm1.751,8.432H16.184v1.122h6.188v5.1h1.394v-5.1h6.256Z" transform="translate(711.742 36.684)"/>
      <text id="_" data-name="  " class="cls-8" transform="translate(742.342 36.684)"><tspan class="cls-9" x="0" y="0"> </tspan><tspan y="0"> </tspan></text>
      <path id="패스_1494" data-name="패스 1494" class="cls-10" d="M17.656-5.25H14.266V0H11.781V-5.25H.672V-7.516L11.516-22.969h2.75V-7.609h3.391ZM11.781-7.609V-15.2q0-2.234.156-5.047h-.125a23.479,23.479,0,0,1-1.406,2.484L3.266-7.609Zm9.849-8.422a10.476,10.476,0,0,0,.578,3.984,1.946,1.946,0,0,0,1.875,1.328q2.563,0,2.563-5.312,0-5.281-2.562-5.281A1.945,1.945,0,0,0,22.208-20,10.349,10.349,0,0,0,21.63-16.031Zm7.156,0a9.874,9.874,0,0,1-1.2,5.383,3.931,3.931,0,0,1-3.508,1.82,3.836,3.836,0,0,1-3.4-1.859,9.8,9.8,0,0,1-1.211-5.344,9.924,9.924,0,0,1,1.164-5.344,3.841,3.841,0,0,1,3.445-1.8,3.922,3.922,0,0,1,3.484,1.859A9.616,9.616,0,0,1,28.786-16.031ZM35.38-6.875a10.467,10.467,0,0,0,.578,3.992,1.955,1.955,0,0,0,1.891,1.32,2.042,2.042,0,0,0,1.938-1.3,9.737,9.737,0,0,0,.625-4.008,9.521,9.521,0,0,0-.625-3.961,2.043,2.043,0,0,0-1.937-1.289,1.954,1.954,0,0,0-1.891,1.289A10.215,10.215,0,0,0,35.38-6.875Zm7.172,0a9.838,9.838,0,0,1-1.2,5.367A3.931,3.931,0,0,1,37.849.313a3.826,3.826,0,0,1-3.414-1.859,9.872,9.872,0,0,1-1.2-5.328A9.924,9.924,0,0,1,34.4-12.219a3.841,3.841,0,0,1,3.445-1.8A3.95,3.95,0,0,1,41.31-12.18,9.451,9.451,0,0,1,42.552-6.875ZM38.521-22.844,25.849,0h-2.3L36.224-22.844Z" transform="translate(751.182 36.684)"/>
      <path id="패스_1493" data-name="패스 1493" class="cls-7" d="M1.2,0H6.084V-.663H4.108V-9.477H3.5a5.441,5.441,0,0,1-1.807.6v.507H3.341V-.663H1.2ZM7.9,0h4.888V-.663H10.816V-9.477H10.2a5.441,5.441,0,0,1-1.807.6v.507h1.651V-.663H7.9Zm8.762-4.251c-1.313,0-1.9-1-1.9-2.366s.767-2.405,1.794-2.405c1.482,0,2.236,1.313,2.314,3.38A2.838,2.838,0,0,1,16.666-4.251ZM14.209-.741A2.767,2.767,0,0,0,16.3.169c1.729,0,3.328-1.43,3.328-5.421,0-2.86-1.222-4.394-3.055-4.394a2.781,2.781,0,0,0-2.561,3.029c0,1.924.975,2.977,2.561,2.977A3.087,3.087,0,0,0,18.889-4.9c-.078,3.276-1.261,4.42-2.574,4.42a2.131,2.131,0,0,1-1.651-.754Zm6.825,3.029A2.7,2.7,0,0,0,22.594-.13c0-.689-.312-1.118-.78-1.118a.652.652,0,0,0-.689.65A.637.637,0,0,0,21.8.065a.633.633,0,0,0,.156-.013,1.966,1.966,0,0,1-1.144,1.742ZM23.712,0h5.707V-.676H26.468c-.494,0-1.04.039-1.56.078,2.522-2.353,4.056-4.342,4.056-6.331a2.483,2.483,0,0,0-2.626-2.717,3.484,3.484,0,0,0-2.665,1.365l.481.455A2.823,2.823,0,0,1,26.26-9.009,1.863,1.863,0,0,1,28.2-6.9c0,1.716-1.274,3.666-4.485,6.435Zm7.319,0h4.888V-.663H33.943V-9.477h-.611a5.441,5.441,0,0,1-1.807.6v.507h1.651V-.663H31.031Zm9,.169c1.716,0,2.782-1.612,2.782-4.94,0-3.289-1.066-4.875-2.782-4.875s-2.8,1.586-2.8,4.875C37.232-1.443,38.3.169,40.027.169Zm0-.637c-1.235,0-2.041-1.43-2.041-4.3,0-2.821.806-4.238,2.041-4.238s2.028,1.417,2.028,4.238C42.055-1.9,41.249-.468,40.027-.468Zm4.134,2.756A2.7,2.7,0,0,0,45.721-.13c0-.689-.312-1.118-.78-1.118a.652.652,0,0,0-.689.65.637.637,0,0,0,.676.663.633.633,0,0,0,.156-.013A1.966,1.966,0,0,1,43.94,1.794ZM49.777.169a2.564,2.564,0,0,0,2.834-2.405A2.785,2.785,0,0,0,51-4.706v-.065a3.313,3.313,0,0,0,1.3-2.353A2.354,2.354,0,0,0,49.79-9.607a2.324,2.324,0,0,0-2.444,2.34,2.617,2.617,0,0,0,1.3,2.158v.052a3.206,3.206,0,0,0-1.807,2.7A2.673,2.673,0,0,0,49.777.169Zm.663-5.148c-1.183-.468-2.366-1-2.366-2.288A1.66,1.66,0,0,1,49.777-9,1.781,1.781,0,0,1,51.6-7.1,2.764,2.764,0,0,1,50.44-4.979ZM49.777-.442a2.046,2.046,0,0,1-2.223-1.95A2.819,2.819,0,0,1,49.1-4.771c1.43.559,2.756,1.079,2.756,2.522A1.881,1.881,0,0,1,49.777-.442Zm6.708.611a2.564,2.564,0,0,0,2.834-2.405,2.785,2.785,0,0,0-1.612-2.47v-.065a3.313,3.313,0,0,0,1.3-2.353A2.354,2.354,0,0,0,56.5-9.607a2.324,2.324,0,0,0-2.444,2.34,2.617,2.617,0,0,0,1.3,2.158v.052a3.206,3.206,0,0,0-1.807,2.7A2.673,2.673,0,0,0,56.485.169Zm.663-5.148c-1.183-.468-2.366-1-2.366-2.288A1.66,1.66,0,0,1,56.485-9a1.781,1.781,0,0,1,1.82,1.9A2.764,2.764,0,0,1,57.148-4.979ZM56.485-.442a2.046,2.046,0,0,1-2.223-1.95,2.819,2.819,0,0,1,1.547-2.379c1.43.559,2.756,1.079,2.756,2.522A1.881,1.881,0,0,1,56.485-.442ZM60.255,0h5.707V-.676H63.011c-.494,0-1.04.039-1.56.078,2.522-2.353,4.056-4.342,4.056-6.331a2.483,2.483,0,0,0-2.626-2.717,3.484,3.484,0,0,0-2.665,1.365l.481.455A2.823,2.823,0,0,1,62.8-9.009,1.863,1.863,0,0,1,64.74-6.9c0,1.716-1.274,3.666-4.485,6.435Z" transform="translate(728.823 63.684)"/>
      <path id="패스_1496" data-name="패스 1496" class="cls-7" d="M1.8-12.342v1.122H7.531C7.242-7.6,5.2-4.675,1.105-2.72l.748,1.139C6.919-4.063,8.942-7.939,8.942-12.342Zm10.217-1.649V1.258h1.394V-13.991Zm6.239,6.783H23.63V-8.33H18.258v-3.145H23.97v-1.139H16.864v10.2h1.19a38.974,38.974,0,0,0,7.191-.51l-.136-1.122a38.728,38.728,0,0,1-6.851.493Zm12.189-.663H27.931v-6.12H26.537V1.241h1.394V-6.7h2.516Z" transform="translate(711.742 129.234)"/>
      <text id="_2" data-name="  " class="cls-8" transform="translate(742.342 129.234)"><tspan class="cls-9" x="0" y="0"> </tspan><tspan y="0"> </tspan></text>
      <path id="패스_1497" data-name="패스 1497" class="cls-10" d="M9.125-23.172a7.745,7.745,0,0,1,4.953,1.453A4.846,4.846,0,0,1,15.906-17.7a5,5,0,0,1-1.047,3.078,9.248,9.248,0,0,1-3.344,2.531A11.242,11.242,0,0,1,15.469-9.3a5.25,5.25,0,0,1,1.172,3.383,5.667,5.667,0,0,1-1.984,4.539A8.1,8.1,0,0,1,9.219.313a8.709,8.709,0,0,1-5.625-1.6A5.518,5.518,0,0,1,1.625-5.828q0-3.922,4.781-6.109A8.825,8.825,0,0,1,3.313-14.57a5.6,5.6,0,0,1-.937-3.164A4.821,4.821,0,0,1,4.211-21.7,7.613,7.613,0,0,1,9.125-23.172ZM4.188-5.766a3.536,3.536,0,0,0,1.3,2.922A5.715,5.715,0,0,0,9.156-1.8a5.458,5.458,0,0,0,3.625-1.094,3.716,3.716,0,0,0,1.3-3,3.656,3.656,0,0,0-1.219-2.7,12.435,12.435,0,0,0-4.25-2.289A9.247,9.247,0,0,0,5.234-8.664,4.284,4.284,0,0,0,4.188-5.766Zm4.906-15.3a4.6,4.6,0,0,0-3.062.938,3.108,3.108,0,0,0-1.109,2.5,3.578,3.578,0,0,0,.922,2.469A9.627,9.627,0,0,0,9.25-13.094a8.532,8.532,0,0,0,3.164-2.016,3.733,3.733,0,0,0,.93-2.516,3.075,3.075,0,0,0-1.133-2.508A4.775,4.775,0,0,0,9.094-21.062ZM21.63-16.031a10.476,10.476,0,0,0,.578,3.984,1.946,1.946,0,0,0,1.875,1.328q2.563,0,2.563-5.312,0-5.281-2.562-5.281A1.945,1.945,0,0,0,22.208-20,10.349,10.349,0,0,0,21.63-16.031Zm7.156,0a9.874,9.874,0,0,1-1.2,5.383,3.931,3.931,0,0,1-3.508,1.82,3.836,3.836,0,0,1-3.4-1.859,9.8,9.8,0,0,1-1.211-5.344,9.924,9.924,0,0,1,1.164-5.344,3.841,3.841,0,0,1,3.445-1.8,3.922,3.922,0,0,1,3.484,1.859A9.616,9.616,0,0,1,28.786-16.031ZM35.38-6.875a10.467,10.467,0,0,0,.578,3.992,1.955,1.955,0,0,0,1.891,1.32,2.042,2.042,0,0,0,1.938-1.3,9.737,9.737,0,0,0,.625-4.008,9.521,9.521,0,0,0-.625-3.961,2.043,2.043,0,0,0-1.937-1.289,1.954,1.954,0,0,0-1.891,1.289A10.215,10.215,0,0,0,35.38-6.875Zm7.172,0a9.838,9.838,0,0,1-1.2,5.367A3.931,3.931,0,0,1,37.849.313a3.826,3.826,0,0,1-3.414-1.859,9.872,9.872,0,0,1-1.2-5.328A9.924,9.924,0,0,1,34.4-12.219a3.841,3.841,0,0,1,3.445-1.8A3.95,3.95,0,0,1,41.31-12.18,9.451,9.451,0,0,1,42.552-6.875ZM38.521-22.844,25.849,0h-2.3L36.224-22.844Z" transform="translate(751.182 129.234)"/>
      <path id="패스_1498" data-name="패스 1498" class="cls-7" d="M.585,0H6.292V-.676H3.341c-.494,0-1.04.039-1.56.078C4.3-2.951,5.837-4.94,5.837-6.929A2.483,2.483,0,0,0,3.211-9.646,3.484,3.484,0,0,0,.546-8.281l.481.455A2.823,2.823,0,0,1,3.133-9.009,1.863,1.863,0,0,1,5.07-6.9C5.07-5.187,3.8-3.237.585-.468ZM7.826-3.341,10.4-7.1c.273-.429.533-.884.754-1.313h.065c-.039.442-.078,1.144-.078,1.573v3.5Zm5.4,0H11.882V-9.477h-.741L6.955-3.185V-2.7h4.186V0h.741V-2.7h1.339ZM14,0h5.707V-.676H16.757c-.494,0-1.04.039-1.56.078,2.522-2.353,4.056-4.342,4.056-6.331a2.483,2.483,0,0,0-2.626-2.717,3.484,3.484,0,0,0-2.665,1.365l.481.455a2.823,2.823,0,0,1,2.106-1.183A1.863,1.863,0,0,1,18.486-6.9c0,1.716-1.274,3.666-4.485,6.435Zm7.033,2.288A2.7,2.7,0,0,0,22.594-.13c0-.689-.312-1.118-.78-1.118a.652.652,0,0,0-.689.65A.637.637,0,0,0,21.8.065a.633.633,0,0,0,.156-.013,1.966,1.966,0,0,1-1.144,1.742ZM24.323,0h4.888V-.663H27.235V-9.477h-.611a5.441,5.441,0,0,1-1.807.6v.507h1.651V-.663H24.323Zm8.762-4.251c-1.313,0-1.9-1-1.9-2.366s.767-2.405,1.794-2.405c1.482,0,2.236,1.313,2.314,3.38A2.838,2.838,0,0,1,33.085-4.251ZM30.628-.741a2.767,2.767,0,0,0,2.093.91c1.729,0,3.328-1.43,3.328-5.421,0-2.86-1.222-4.394-3.055-4.394a2.781,2.781,0,0,0-2.561,3.029c0,1.924.975,2.977,2.561,2.977A3.087,3.087,0,0,0,35.308-4.9c-.078,3.276-1.261,4.42-2.574,4.42a2.131,2.131,0,0,1-1.651-.754Zm7.033-2.6L40.235-7.1c.273-.429.533-.884.754-1.313h.065c-.039.442-.078,1.144-.078,1.573v3.5Zm5.4,0H41.717V-9.477h-.741L36.79-3.185V-2.7h4.186V0h.741V-2.7h1.339Zm1.1,5.629A2.7,2.7,0,0,0,45.721-.13c0-.689-.312-1.118-.78-1.118a.652.652,0,0,0-.689.65.637.637,0,0,0,.676.663.633.633,0,0,0,.156-.013A1.966,1.966,0,0,1,43.94,1.794ZM50.076-.468c-1.443,0-2.184-1.326-2.3-3.406a2.849,2.849,0,0,1,2.171-1.352c1.352,0,1.924.988,1.924,2.366S51.1-.468,50.076-.468Zm2.366-8.268a2.6,2.6,0,0,0-2.015-.91c-1.781,0-3.406,1.352-3.406,5.174,0,3.016,1.209,4.641,3.042,4.641A2.781,2.781,0,0,0,52.624-2.86c0-1.95-.962-2.977-2.574-2.977A3.05,3.05,0,0,0,47.762-4.6C47.8-7.865,49.01-9,50.44-9a1.982,1.982,0,0,1,1.547.754Zm4,8.905c1.716,0,2.782-1.612,2.782-4.94,0-3.289-1.066-4.875-2.782-4.875s-2.8,1.586-2.8,4.875C53.651-1.443,54.717.169,56.446.169Zm0-.637c-1.235,0-2.041-1.43-2.041-4.3,0-2.821.806-4.238,2.041-4.238s2.028,1.417,2.028,4.238C58.474-1.9,57.668-.468,56.446-.468Zm6.513.637a3,3,0,0,0,2.964-3.211c0-2.106-1.248-3.042-2.808-3.042a2.922,2.922,0,0,0-1.586.455L61.8-8.814h3.653v-.663H61.126L60.8-5.148l.494.3a2.747,2.747,0,0,1,1.677-.6,2.146,2.146,0,0,1,2.171,2.431,2.323,2.323,0,0,1-2.21,2.535A3.191,3.191,0,0,1,60.45-1.6l-.416.533A3.9,3.9,0,0,0,62.959.169Z" transform="translate(728.823 156.234)"/>
      <path id="패스_1487" data-name="패스 1487" class="cls-7" d="M8.912-11.728h-3.3v-1.584H4.3v1.584H.88v1.056H8.912ZM2.928-7.376c0-.96.816-1.584,2.016-1.584S6.96-8.336,6.96-7.376,6.144-5.792,4.944-5.792,2.928-6.416,2.928-7.376Zm5.264,0c0-1.552-1.344-2.576-3.248-2.576C3.024-9.952,1.7-8.928,1.7-7.376S3.024-4.8,4.944-4.8C6.848-4.8,8.192-5.824,8.192-7.376ZM11.376-.048h-6.7v-1.52h6.7Zm0-2.528h-6.7V-4.048h-1.3V.992h9.3v-5.04h-1.3Zm-.032-10.576v3.344H8.928v1.056h2.416v1.728H8.912v1.072h2.432v1.264h1.328v-8.464ZM22.832-6.4a32.416,32.416,0,0,1-5.7.336V-8.24H22V-12.3H15.808v1.072H20.72v1.984H15.856v4.256H16.88a33.131,33.131,0,0,0,6.08-.352ZM17.456-2.5h8.288V1.2h1.312V-3.568h-9.6Zm8.288-10.656v2.112h-2.8v1.072h2.8v1.92h-2.8v1.056h2.8v2.656h1.312v-8.816Zm13.008,1.744h-3.7v-1.744H33.744v1.744H30.032v1.056h8.72ZM32.192-6.88c0-1.008.9-1.648,2.208-1.648,1.3,0,2.192.64,2.192,1.648,0,.992-.9,1.632-2.192,1.632C33.088-5.248,32.192-5.888,32.192-6.88Zm2.864,2.624c1.7-.208,2.784-1.2,2.784-2.624,0-1.616-1.392-2.656-3.44-2.656S30.944-8.5,30.944-6.88c0,1.44,1.1,2.432,2.8,2.64V-2.7c-1.424.048-2.8.064-4.016.064l.192,1.1a58.689,58.689,0,0,0,9.3-.576l-.1-.976c-1.312.176-2.7.272-4.064.336Zm4.976-8.9V1.184h1.312V-13.152Zm8.832,1.232h-1.3v2.576a7.6,7.6,0,0,1-3.7,6.416l.784,1.056a7.948,7.948,0,0,0,3.568-4.752A7.916,7.916,0,0,0,51.7-2.16l.816-1.04a7.247,7.247,0,0,1-3.648-6.144Zm8.592,4.576H55.088v-5.808H53.776V1.184h1.312v-7.44h2.368Z" transform="translate(-0.5 107.528)"/>
      <text id="_3" data-name="  " class="cls-8" transform="translate(57.1 108.528)"><tspan class="cls-9" x="0" y="0"> </tspan><tspan y="0"> </tspan></text>
      <path id="패스_1489" data-name="패스 1489" class="cls-10" d="M17.656-5.25H14.266V0H11.781V-5.25H.672V-7.516L11.516-22.969h2.75V-7.609h3.391ZM11.781-7.609V-15.2q0-2.234.156-5.047h-.125a23.479,23.479,0,0,1-1.406,2.484L3.266-7.609Zm21.786-9.859a5.209,5.209,0,0,1-1.227,3.578,6.141,6.141,0,0,1-3.477,1.859v.125a6.538,6.538,0,0,1,4.078,1.75,5.151,5.151,0,0,1,1.328,3.688,5.982,5.982,0,0,1-2.266,5.023A10.3,10.3,0,0,1,25.568.313a18.657,18.657,0,0,1-3.32-.273,11.363,11.363,0,0,1-2.93-.961V-3.391a14.245,14.245,0,0,0,3.164,1.117,14.329,14.329,0,0,0,3.18.383q5.922,0,5.922-4.641,0-4.156-6.531-4.156H22.8v-2.234h2.281a6.869,6.869,0,0,0,4.234-1.18,3.871,3.871,0,0,0,1.563-3.273A3.227,3.227,0,0,0,29.732-20a4.732,4.732,0,0,0-3.117-.953,9.618,9.618,0,0,0-2.828.406,12.656,12.656,0,0,0-3.031,1.5L19.443-20.8a10.942,10.942,0,0,1,3.242-1.742,11.784,11.784,0,0,1,3.867-.633,7.9,7.9,0,0,1,5.172,1.523A5.13,5.13,0,0,1,33.568-17.469Zm5.911,1.438a10.476,10.476,0,0,0,.578,3.984,1.946,1.946,0,0,0,1.875,1.328q2.562,0,2.563-5.312,0-5.281-2.562-5.281A1.945,1.945,0,0,0,40.057-20,10.349,10.349,0,0,0,39.479-16.031Zm7.156,0a9.874,9.874,0,0,1-1.2,5.383,3.931,3.931,0,0,1-3.508,1.82,3.836,3.836,0,0,1-3.4-1.859,9.8,9.8,0,0,1-1.211-5.344,9.924,9.924,0,0,1,1.164-5.344,3.841,3.841,0,0,1,3.445-1.8,3.922,3.922,0,0,1,3.484,1.859A9.616,9.616,0,0,1,46.635-16.031Zm6.594,9.156a10.467,10.467,0,0,0,.578,3.992A1.955,1.955,0,0,0,55.7-1.562a2.042,2.042,0,0,0,1.938-1.3,9.737,9.737,0,0,0,.625-4.008,9.521,9.521,0,0,0-.625-3.961A2.043,2.043,0,0,0,55.7-12.125a1.954,1.954,0,0,0-1.891,1.289A10.215,10.215,0,0,0,53.229-6.875Zm7.172,0a9.838,9.838,0,0,1-1.2,5.367A3.931,3.931,0,0,1,55.7.313a3.826,3.826,0,0,1-3.414-1.859,9.872,9.872,0,0,1-1.2-5.328,9.924,9.924,0,0,1,1.164-5.344,3.841,3.841,0,0,1,3.445-1.8,3.95,3.95,0,0,1,3.461,1.836A9.451,9.451,0,0,1,60.4-6.875ZM56.37-22.844,43.7,0H41.4L54.073-22.844Z" transform="translate(65.939 108.528)"/>
      <path id="패스_1488" data-name="패스 1488" class="cls-7" d="M1.2,0H6.084V-.663H4.108V-9.477H3.5a5.441,5.441,0,0,1-1.807.6v.507H3.341V-.663H1.2ZM7.618,2.288A2.7,2.7,0,0,0,9.178-.13c0-.689-.312-1.118-.78-1.118a.652.652,0,0,0-.689.65.637.637,0,0,0,.676.663A.633.633,0,0,0,8.541.052,1.966,1.966,0,0,1,7.4,1.794ZM13.065.169a2.651,2.651,0,0,0,2.86-2.678,2.47,2.47,0,0,0-2.08-2.444v-.065a2.365,2.365,0,0,0,1.742-2.34,2.306,2.306,0,0,0-2.561-2.3,3.682,3.682,0,0,0-2.535,1.118l.442.52a2.973,2.973,0,0,1,2.08-1,1.659,1.659,0,0,1,1.794,1.716c0,1.131-.728,2.028-2.808,2.028v.637c2.262,0,3.146.858,3.146,2.132A1.973,1.973,0,0,1,13.039-.481a3.242,3.242,0,0,1-2.5-1.157l-.429.507A3.833,3.833,0,0,0,13.065.169Zm6.838,0c1.716,0,2.782-1.612,2.782-4.94,0-3.289-1.066-4.875-2.782-4.875s-2.8,1.586-2.8,4.875C17.108-1.443,18.174.169,19.9.169Zm0-.637c-1.235,0-2.041-1.43-2.041-4.3,0-2.821.806-4.238,2.041-4.238s2.028,1.417,2.028,4.238C21.931-1.9,21.125-.468,19.9-.468ZM24.323,0h4.888V-.663H27.235V-9.477h-.611a5.441,5.441,0,0,1-1.807.6v.507h1.651V-.663H24.323Zm6.422,2.288A2.7,2.7,0,0,0,32.305-.13c0-.689-.312-1.118-.78-1.118a.652.652,0,0,0-.689.65.637.637,0,0,0,.676.663.633.633,0,0,0,.156-.013,1.966,1.966,0,0,1-1.144,1.742ZM35.5,0h.819c.143-3.7.611-6.071,2.86-9.022v-.455h-5.72v.663h4.8C36.374-6.188,35.659-3.783,35.5,0Zm6.708,0h.819c.143-3.7.611-6.071,2.86-9.022v-.455H40.17v.663h4.8C43.082-6.188,42.367-3.783,42.211,0Zm7.566.169a2.564,2.564,0,0,0,2.834-2.405A2.785,2.785,0,0,0,51-4.706v-.065a3.313,3.313,0,0,0,1.3-2.353A2.354,2.354,0,0,0,49.79-9.607a2.324,2.324,0,0,0-2.444,2.34,2.617,2.617,0,0,0,1.3,2.158v.052a3.206,3.206,0,0,0-1.807,2.7A2.673,2.673,0,0,0,49.777.169Zm.663-5.148c-1.183-.468-2.366-1-2.366-2.288A1.66,1.66,0,0,1,49.777-9,1.781,1.781,0,0,1,51.6-7.1,2.764,2.764,0,0,1,50.44-4.979ZM49.777-.442a2.046,2.046,0,0,1-2.223-1.95A2.819,2.819,0,0,1,49.1-4.771c1.43.559,2.756,1.079,2.756,2.522A1.881,1.881,0,0,1,49.777-.442Zm4.1,2.73A2.7,2.7,0,0,0,55.432-.13c0-.689-.312-1.118-.78-1.118a.652.652,0,0,0-.689.65.637.637,0,0,0,.676.663A.633.633,0,0,0,54.8.052a1.966,1.966,0,0,1-1.144,1.742ZM59.488.169a2.564,2.564,0,0,0,2.834-2.405,2.785,2.785,0,0,0-1.612-2.47v-.065a3.313,3.313,0,0,0,1.3-2.353A2.354,2.354,0,0,0,59.5-9.607a2.324,2.324,0,0,0-2.444,2.34,2.617,2.617,0,0,0,1.3,2.158v.052a3.206,3.206,0,0,0-1.807,2.7A2.673,2.673,0,0,0,59.488.169Zm.663-5.148c-1.183-.468-2.366-1-2.366-2.288A1.66,1.66,0,0,1,59.488-9a1.781,1.781,0,0,1,1.82,1.9A2.764,2.764,0,0,1,60.151-4.979ZM59.488-.442a2.046,2.046,0,0,1-2.223-1.95,2.819,2.819,0,0,1,1.547-2.379c1.43.559,2.756,1.079,2.756,2.522A1.881,1.881,0,0,1,59.488-.442Zm6.539.611a2.651,2.651,0,0,0,2.86-2.678,2.47,2.47,0,0,0-2.08-2.444v-.065a2.365,2.365,0,0,0,1.742-2.34,2.306,2.306,0,0,0-2.561-2.3,3.682,3.682,0,0,0-2.535,1.118l.442.52a2.973,2.973,0,0,1,2.08-1,1.659,1.659,0,0,1,1.794,1.716c0,1.131-.728,2.028-2.808,2.028v.637c2.262,0,3.146.858,3.146,2.132A1.973,1.973,0,0,1,66-.481a3.242,3.242,0,0,1-2.5-1.157l-.429.507A3.833,3.833,0,0,0,66.027.169ZM70.5-3.341,73.073-7.1c.273-.429.533-.884.754-1.313h.065c-.039.442-.078,1.144-.078,1.573v3.5Zm5.4,0H74.555V-9.477h-.741L69.628-3.185V-2.7h4.186V0h.741V-2.7h1.339Z" transform="translate(-0.5 130.528)"/>
      <path id="패스_1484" data-name="패스 1484" class="cls-7" d="M3.856-10.56H6.208v6.976c-.784.032-1.584.064-2.352.08Zm3.632,0H9.024v-1.056H1.04v1.056H2.576v7.072c-.672.016-1.312.016-1.9.016l.16,1.1A59.324,59.324,0,0,0,9.776-2.9l-.1-.976c-.7.1-1.44.16-2.192.208Zm6.768,3.136H11.888v-5.728H10.576V1.184h1.312v-7.52h2.368Zm12.512,2H18.24V-7.7H26.3v-1.04H18.24v-2.128h8.384V-11.92H16.912v7.552h9.856ZM15.232-1.744V-.672H28.256V-1.744Zm16.512-9.824H30.432v9.312h1.12a33.67,33.67,0,0,0,6.56-.576l-.176-1.12a31.108,31.108,0,0,1-6.192.592Zm8.416-1.6v4.736h-4.4v1.088h4.4v8.56h1.312V-13.168Z" transform="translate(-0.5 239.5)"/>
      <text id="_4" data-name="  " class="cls-8" transform="translate(42.699 240.5)"><tspan class="cls-9" x="0" y="0"> </tspan><tspan y="0"> </tspan></text>
      <path id="패스_1485" data-name="패스 1485" class="cls-10" d="M16.578,0H1.563V-2.234L7.578-8.281A44.3,44.3,0,0,0,11.2-12.25a10.129,10.129,0,0,0,1.313-2.312,6.623,6.623,0,0,0,.438-2.422,3.84,3.84,0,0,0-1.109-2.9,4.249,4.249,0,0,0-3.078-1.07,7.74,7.74,0,0,0-2.7.469,10.744,10.744,0,0,0-2.836,1.7L1.859-20.547a10.531,10.531,0,0,1,6.875-2.625,7.263,7.263,0,0,1,5.047,1.648,5.67,5.67,0,0,1,1.828,4.43,8.555,8.555,0,0,1-1.219,4.3A27.28,27.28,0,0,1,9.828-7.422l-5,4.891v.125h11.75ZM34.427,0H19.411V-2.234l6.016-6.047a44.3,44.3,0,0,0,3.625-3.969,10.129,10.129,0,0,0,1.313-2.312,6.623,6.623,0,0,0,.438-2.422,3.84,3.84,0,0,0-1.109-2.9,4.249,4.249,0,0,0-3.078-1.07,7.74,7.74,0,0,0-2.7.469,10.744,10.744,0,0,0-2.836,1.7l-1.375-1.766a10.531,10.531,0,0,1,6.875-2.625,7.263,7.263,0,0,1,5.047,1.648,5.67,5.67,0,0,1,1.828,4.43,8.555,8.555,0,0,1-1.219,4.3,27.281,27.281,0,0,1-4.563,5.375l-5,4.891v.125h11.75Zm5.052-16.031a10.476,10.476,0,0,0,.578,3.984,1.946,1.946,0,0,0,1.875,1.328q2.562,0,2.563-5.312,0-5.281-2.562-5.281A1.945,1.945,0,0,0,40.057-20,10.349,10.349,0,0,0,39.479-16.031Zm7.156,0a9.874,9.874,0,0,1-1.2,5.383,3.931,3.931,0,0,1-3.508,1.82,3.836,3.836,0,0,1-3.4-1.859,9.8,9.8,0,0,1-1.211-5.344,9.924,9.924,0,0,1,1.164-5.344,3.841,3.841,0,0,1,3.445-1.8,3.922,3.922,0,0,1,3.484,1.859A9.616,9.616,0,0,1,46.635-16.031Zm6.594,9.156a10.467,10.467,0,0,0,.578,3.992A1.955,1.955,0,0,0,55.7-1.562a2.042,2.042,0,0,0,1.938-1.3,9.737,9.737,0,0,0,.625-4.008,9.521,9.521,0,0,0-.625-3.961A2.043,2.043,0,0,0,55.7-12.125a1.954,1.954,0,0,0-1.891,1.289A10.215,10.215,0,0,0,53.229-6.875Zm7.172,0a9.838,9.838,0,0,1-1.2,5.367A3.931,3.931,0,0,1,55.7.313a3.826,3.826,0,0,1-3.414-1.859,9.872,9.872,0,0,1-1.2-5.328,9.924,9.924,0,0,1,1.164-5.344,3.841,3.841,0,0,1,3.445-1.8,3.95,3.95,0,0,1,3.461,1.836A9.451,9.451,0,0,1,60.4-6.875ZM56.37-22.844,43.7,0H41.4L54.073-22.844Z" transform="translate(51.54 240.5)"/>
      <path id="패스_1486" data-name="패스 1486" class="cls-7" d="M3.822-.468c-1.443,0-2.184-1.326-2.3-3.406A2.849,2.849,0,0,1,3.692-5.226c1.352,0,1.924.988,1.924,2.366S4.849-.468,3.822-.468ZM6.188-8.736a2.6,2.6,0,0,0-2.015-.91C2.392-9.646.767-8.294.767-4.472.767-1.456,1.976.169,3.809.169A2.781,2.781,0,0,0,6.37-2.86c0-1.95-.962-2.977-2.574-2.977A3.05,3.05,0,0,0,1.508-4.6C1.547-7.865,2.756-9,4.186-9a1.982,1.982,0,0,1,1.547.754ZM10,.169a3,3,0,0,0,2.964-3.211c0-2.106-1.248-3.042-2.808-3.042a2.922,2.922,0,0,0-1.586.455L8.84-8.814h3.653v-.663H8.164L7.839-5.148l.494.3a2.747,2.747,0,0,1,1.677-.6,2.146,2.146,0,0,1,2.171,2.431A2.323,2.323,0,0,1,9.971-.481,3.191,3.191,0,0,1,7.488-1.6l-.416.533A3.9,3.9,0,0,0,10,.169ZM14,0h5.707V-.676H16.757c-.494,0-1.04.039-1.56.078,2.522-2.353,4.056-4.342,4.056-6.331a2.483,2.483,0,0,0-2.626-2.717,3.484,3.484,0,0,0-2.665,1.365l.481.455a2.823,2.823,0,0,1,2.106-1.183A1.863,1.863,0,0,1,18.486-6.9c0,1.716-1.274,3.666-4.485,6.435Zm7.033,2.288A2.7,2.7,0,0,0,22.594-.13c0-.689-.312-1.118-.78-1.118a.652.652,0,0,0-.689.65A.637.637,0,0,0,21.8.065a.633.633,0,0,0,.156-.013,1.966,1.966,0,0,1-1.144,1.742ZM26.949-.468c-1.443,0-2.184-1.326-2.3-3.406a2.849,2.849,0,0,1,2.171-1.352c1.352,0,1.924.988,1.924,2.366S27.976-.468,26.949-.468Zm2.366-8.268a2.6,2.6,0,0,0-2.015-.91c-1.781,0-3.406,1.352-3.406,5.174,0,3.016,1.209,4.641,3.042,4.641A2.781,2.781,0,0,0,29.5-2.86c0-1.95-.962-2.977-2.574-2.977A3.05,3.05,0,0,0,24.635-4.6C24.674-7.865,25.883-9,27.313-9a1.982,1.982,0,0,1,1.547.754ZM33.358.169a2.564,2.564,0,0,0,2.834-2.405,2.785,2.785,0,0,0-1.612-2.47v-.065a3.313,3.313,0,0,0,1.3-2.353,2.354,2.354,0,0,0-2.509-2.483,2.324,2.324,0,0,0-2.444,2.34,2.617,2.617,0,0,0,1.3,2.158v.052a3.206,3.206,0,0,0-1.807,2.7A2.673,2.673,0,0,0,33.358.169Zm.663-5.148c-1.183-.468-2.366-1-2.366-2.288A1.66,1.66,0,0,1,33.358-9a1.781,1.781,0,0,1,1.82,1.9A2.765,2.765,0,0,1,34.021-4.979ZM33.358-.442a2.046,2.046,0,0,1-2.223-1.95,2.819,2.819,0,0,1,1.547-2.379c1.43.559,2.756,1.079,2.756,2.522A1.881,1.881,0,0,1,33.358-.442ZM37.739,0h4.888V-.663H40.651V-9.477H40.04a5.441,5.441,0,0,1-1.807.6v.507h1.651V-.663H37.739Zm6.422,2.288A2.7,2.7,0,0,0,45.721-.13c0-.689-.312-1.118-.78-1.118a.652.652,0,0,0-.689.65.637.637,0,0,0,.676.663.633.633,0,0,0,.156-.013A1.966,1.966,0,0,1,43.94,1.794ZM47.45,0h4.888V-.663H50.362V-9.477h-.611a5.441,5.441,0,0,1-1.807.6v.507H49.6V-.663H47.45Zm6.63-3.341L56.654-7.1c.273-.429.533-.884.754-1.313h.065c-.039.442-.078,1.144-.078,1.573v3.5Zm5.4,0H58.136V-9.477H57.4L53.209-3.185V-2.7H57.4V0h.741V-2.7h1.339Zm1.313,0L63.362-7.1c.273-.429.533-.884.754-1.313h.065c-.039.442-.078,1.144-.078,1.573v3.5Zm5.4,0H64.844V-9.477H64.1L59.917-3.185V-2.7H64.1V0h.741V-2.7h1.339Z" transform="translate(-0.5 262.5)"/>
      <path id="패스_1499" data-name="패스 1499" class="cls-7" d="M2.261-6.579C4.624-6.987,6.868-8.262,7.8-10.064c.918,1.8,3.179,3.077,5.542,3.485l.544-1.105C11.2-8.075,8.568-9.826,8.568-11.832v-.085h4.777v-1.122H2.21v1.122H7.021v.085c0,2.006-2.635,3.757-5.287,4.148ZM14.688-5.3H.918v1.139H7.072V1.258H8.466V-4.165H14.7Zm2.873-1.275c2.363-.408,4.607-1.683,5.542-3.485.918,1.8,3.179,3.077,5.542,3.485l.544-1.105c-2.686-.391-5.321-2.142-5.321-4.148v-.085h4.777v-1.122H17.51v1.122h4.811v.085c0,2.006-2.635,3.757-5.287,4.148ZM29.988-5.3H16.218v1.139h6.154V1.258h1.394V-4.165h6.239Zm17.476-8.687H46.07v8.755h1.394Zm-5.933,6.1h-4.4V-11.9h4.4Zm1.36-5.117H35.768v6.239h7.123Zm4.93,9.877V-4.2H43.35V-5.678H41.939V-4.2H37.468v1.071h4.454C41.9-1.615,39.474-.17,36.873.136l.459,1.071c2.295-.323,4.4-1.343,5.321-2.788.9,1.411,2.941,2.465,5.236,2.788L48.365.136c-2.618-.323-5-1.8-5.015-3.264ZM66.028-7.446H56.95v-1.87h8.534v-1.071H56.95v-1.768h8.891v-1.122H55.573v6.953H66.028Zm1.53,2.686H53.72v1.139h6.222V1.258h1.394V-3.621h6.222Zm6.613-6.511h3.383v-1.156H69.309v1.156h3.485v1.938a7.971,7.971,0,0,1-4.012,6.562L69.6-1.666a8.608,8.608,0,0,0,3.893-5.049A8.227,8.227,0,0,0,77.316-2.04l.8-1.122a7.332,7.332,0,0,1-3.944-6.171Zm9.112,3.434H80.767v-6.137H79.373V1.258h1.394V-6.664h2.516Zm6.188-3.434h3.383v-1.156H84.609v1.156h3.485v1.938a7.971,7.971,0,0,1-4.012,6.562L84.9-1.666a8.608,8.608,0,0,0,3.893-5.049A8.227,8.227,0,0,0,92.616-2.04l.8-1.122a7.332,7.332,0,0,1-3.944-6.171Zm9.112,3.434H96.067v-6.137H94.673V1.258h1.394V-6.664h2.516Z" transform="translate(641.702 221.213)"/>
      <text id="_5" data-name="  " class="cls-8" transform="translate(742.342 221.213)"><tspan class="cls-9" x="0" y="0"> </tspan><tspan y="0"> </tspan></text>
      <path id="패스_1500" data-name="패스 1500" class="cls-10" d="M16.578-13.094Q16.578.313,6.2.313A10.564,10.564,0,0,1,3.328,0V-2.234a9.187,9.187,0,0,0,2.844.406,6.918,6.918,0,0,0,5.664-2.32q1.914-2.32,2.086-7.117h-.187a5.561,5.561,0,0,1-2.281,1.977,7.335,7.335,0,0,1-3.2.68,6.44,6.44,0,0,1-4.812-1.812,6.914,6.914,0,0,1-1.781-5.062,7.755,7.755,0,0,1,1.992-5.625,6.957,6.957,0,0,1,5.242-2.062,7.018,7.018,0,0,1,4.07,1.2,7.555,7.555,0,0,1,2.68,3.484A14.192,14.192,0,0,1,16.578-13.094ZM8.891-20.953a4.278,4.278,0,0,0-3.453,1.438,6,6,0,0,0-1.219,4,5.2,5.2,0,0,0,1.125,3.539,4.3,4.3,0,0,0,3.422,1.289,5.931,5.931,0,0,0,2.617-.578,4.725,4.725,0,0,0,1.883-1.578,3.641,3.641,0,0,0,.688-2.094,7.156,7.156,0,0,0-.641-3.031,5.286,5.286,0,0,0-1.789-2.187A4.505,4.505,0,0,0,8.891-20.953Zm12.74,4.922a10.476,10.476,0,0,0,.578,3.984,1.946,1.946,0,0,0,1.875,1.328q2.563,0,2.563-5.312,0-5.281-2.562-5.281A1.945,1.945,0,0,0,22.208-20,10.349,10.349,0,0,0,21.63-16.031Zm7.156,0a9.874,9.874,0,0,1-1.2,5.383,3.931,3.931,0,0,1-3.508,1.82,3.836,3.836,0,0,1-3.4-1.859,9.8,9.8,0,0,1-1.211-5.344,9.924,9.924,0,0,1,1.164-5.344,3.841,3.841,0,0,1,3.445-1.8,3.922,3.922,0,0,1,3.484,1.859A9.616,9.616,0,0,1,28.786-16.031ZM35.38-6.875a10.467,10.467,0,0,0,.578,3.992,1.955,1.955,0,0,0,1.891,1.32,2.042,2.042,0,0,0,1.938-1.3,9.737,9.737,0,0,0,.625-4.008,9.521,9.521,0,0,0-.625-3.961,2.043,2.043,0,0,0-1.937-1.289,1.954,1.954,0,0,0-1.891,1.289A10.215,10.215,0,0,0,35.38-6.875Zm7.172,0a9.838,9.838,0,0,1-1.2,5.367A3.931,3.931,0,0,1,37.849.313a3.826,3.826,0,0,1-3.414-1.859,9.872,9.872,0,0,1-1.2-5.328A9.924,9.924,0,0,1,34.4-12.219a3.841,3.841,0,0,1,3.445-1.8A3.95,3.95,0,0,1,41.31-12.18,9.451,9.451,0,0,1,42.552-6.875ZM38.521-22.844,25.849,0h-2.3L36.224-22.844Z" transform="translate(751.182 221.213)"/>
      <path id="패스_1501" data-name="패스 1501" class="cls-7" d="M.585,0H6.292V-.676H3.341c-.494,0-1.04.039-1.56.078C4.3-2.951,5.837-4.94,5.837-6.929A2.483,2.483,0,0,0,3.211-9.646,3.484,3.484,0,0,0,.546-8.281l.481.455A2.823,2.823,0,0,1,3.133-9.009,1.863,1.863,0,0,1,5.07-6.9C5.07-5.187,3.8-3.237.585-.468ZM9.373,0h.819c.143-3.7.611-6.071,2.86-9.022v-.455H7.332v.663h4.8C10.244-6.188,9.529-3.783,9.373,0Zm7.293-4.251c-1.313,0-1.9-1-1.9-2.366s.767-2.405,1.794-2.405c1.482,0,2.236,1.313,2.314,3.38A2.838,2.838,0,0,1,16.666-4.251ZM14.209-.741A2.767,2.767,0,0,0,16.3.169c1.729,0,3.328-1.43,3.328-5.421,0-2.86-1.222-4.394-3.055-4.394a2.781,2.781,0,0,0-2.561,3.029c0,1.924.975,2.977,2.561,2.977A3.087,3.087,0,0,0,18.889-4.9c-.078,3.276-1.261,4.42-2.574,4.42a2.131,2.131,0,0,1-1.651-.754Zm6.825,3.029A2.7,2.7,0,0,0,22.594-.13c0-.689-.312-1.118-.78-1.118a.652.652,0,0,0-.689.65A.637.637,0,0,0,21.8.065a.633.633,0,0,0,.156-.013,1.966,1.966,0,0,1-1.144,1.742Zm3.211-5.629L26.819-7.1c.273-.429.533-.884.754-1.313h.065c-.039.442-.078,1.144-.078,1.573v3.5Zm5.4,0H28.3V-9.477H27.56L23.374-3.185V-2.7H27.56V0H28.3V-2.7H29.64ZM33.124.169a3,3,0,0,0,2.964-3.211c0-2.106-1.248-3.042-2.808-3.042a2.922,2.922,0,0,0-1.586.455l.273-3.185H35.62v-.663H31.291l-.325,4.329.494.3a2.747,2.747,0,0,1,1.677-.6,2.146,2.146,0,0,1,2.171,2.431A2.323,2.323,0,0,1,33.1-.481,3.191,3.191,0,0,1,30.615-1.6l-.416.533A3.9,3.9,0,0,0,33.124.169Zm4.537-3.51L40.235-7.1c.273-.429.533-.884.754-1.313h.065c-.039.442-.078,1.144-.078,1.573v3.5Zm5.4,0H41.717V-9.477h-.741L36.79-3.185V-2.7h4.186V0h.741V-2.7h1.339Zm1.1,5.629A2.7,2.7,0,0,0,45.721-.13c0-.689-.312-1.118-.78-1.118a.652.652,0,0,0-.689.65.637.637,0,0,0,.676.663.633.633,0,0,0,.156-.013A1.966,1.966,0,0,1,43.94,1.794ZM49.738.169c1.716,0,2.782-1.612,2.782-4.94,0-3.289-1.066-4.875-2.782-4.875s-2.8,1.586-2.8,4.875C46.943-1.443,48.009.169,49.738.169Zm0-.637C48.5-.468,47.7-1.9,47.7-4.771c0-2.821.806-4.238,2.041-4.238s2.028,1.417,2.028,4.238C51.766-1.9,50.96-.468,49.738-.468Zm7.046,0c-1.443,0-2.184-1.326-2.3-3.406a2.849,2.849,0,0,1,2.171-1.352c1.352,0,1.924.988,1.924,2.366S57.811-.468,56.784-.468ZM59.15-8.736a2.6,2.6,0,0,0-2.015-.91c-1.781,0-3.406,1.352-3.406,5.174,0,3.016,1.209,4.641,3.042,4.641A2.781,2.781,0,0,0,59.332-2.86c0-1.95-.962-2.977-2.574-2.977A3.05,3.05,0,0,0,54.47-4.6C54.509-7.865,55.718-9,57.148-9a1.982,1.982,0,0,1,1.547.754Zm1.638,5.395L63.362-7.1c.273-.429.533-.884.754-1.313h.065c-.039.442-.078,1.144-.078,1.573v3.5Zm5.4,0H64.844V-9.477H64.1L59.917-3.185V-2.7H64.1V0h.741V-2.7h1.339Z" transform="translate(728.822 248.213)"/>
      <path id="패스_1502" data-name="패스 1502" class="cls-7" d="M12.019-13.974v8.721h1.394v-8.721ZM3.553-4.437V1.054h9.86V-4.437Zm8.5,1.105V-.068H4.913V-3.332ZM5.219-13.175c-2.3,0-3.961,1.445-3.961,3.553S2.924-6.069,5.219-6.069c2.312,0,3.995-1.445,3.995-3.553S7.531-13.175,5.219-13.175Zm0,1.156a2.437,2.437,0,0,1,2.635,2.4,2.427,2.427,0,0,1-2.635,2.4,2.407,2.407,0,0,1-2.6-2.4A2.417,2.417,0,0,1,5.219-12.019Zm20.3,5.474a5.189,5.189,0,0,1-3.825-4.641V-11.8h3.451V-12.92H16.779V-11.8h3.485v.612a5.46,5.46,0,0,1-3.859,4.947l.731,1.088A6.438,6.438,0,0,0,21-8.908,6.477,6.477,0,0,0,24.837-5.44Zm-7,3.706h8.806v4.1h1.394V-3.961h-10.2Zm8.806-11.152V-4.76h1.394v-9.231Zm12.172,9.01v1.037h3.094V-2.38h1.394V-13.991H42.585v9.01ZM36.38-12.342c1.445,0,2.431.646,2.431,1.615,0,.986-.986,1.632-2.431,1.632s-2.431-.646-2.431-1.632C33.949-11.7,34.935-12.342,36.38-12.342Zm0,4.284c2.227,0,3.757-1.037,3.757-2.669,0-1.6-1.53-2.652-3.757-2.652s-3.757,1.054-3.757,2.652C32.623-9.1,34.153-8.058,36.38-8.058Zm-.544,5.134H37.23V-5.933c1.377-.085,2.788-.238,4.131-.442l-.119-1a82.833,82.833,0,0,1-9.826.442L31.6-5.78c1.258,0,2.72-.017,4.233-.085Zm-.85,2.7v-3.3H33.592V.918H44.37V-.221Z" transform="translate(678.625 315.168)"/>
      <text id="_6" data-name="  " class="cls-8" transform="translate(724.524 315.168)"><tspan class="cls-9" x="0" y="0"> </tspan><tspan y="0"> </tspan></text>
      <path id="패스_1503" data-name="패스 1503" class="cls-10" d="M11.172,0H8.641V-16.281q0-2.031.125-3.844-.328.328-.734.688T4.313-16.391L2.938-18.172l6.047-4.672h2.188ZM35.505-5.25H32.115V0H29.63V-5.25H18.521V-7.516L29.365-22.969h2.75V-7.609h3.391ZM29.63-7.609V-15.2q0-2.234.156-5.047h-.125a23.479,23.479,0,0,1-1.406,2.484L21.115-7.609Zm9.849-8.422a10.476,10.476,0,0,0,.578,3.984,1.946,1.946,0,0,0,1.875,1.328q2.562,0,2.563-5.312,0-5.281-2.562-5.281A1.945,1.945,0,0,0,40.057-20,10.349,10.349,0,0,0,39.479-16.031Zm7.156,0a9.874,9.874,0,0,1-1.2,5.383,3.931,3.931,0,0,1-3.508,1.82,3.836,3.836,0,0,1-3.4-1.859,9.8,9.8,0,0,1-1.211-5.344,9.924,9.924,0,0,1,1.164-5.344,3.841,3.841,0,0,1,3.445-1.8,3.922,3.922,0,0,1,3.484,1.859A9.616,9.616,0,0,1,46.635-16.031Zm6.594,9.156a10.467,10.467,0,0,0,.578,3.992A1.955,1.955,0,0,0,55.7-1.562a2.042,2.042,0,0,0,1.938-1.3,9.737,9.737,0,0,0,.625-4.008,9.521,9.521,0,0,0-.625-3.961A2.043,2.043,0,0,0,55.7-12.125a1.954,1.954,0,0,0-1.891,1.289A10.215,10.215,0,0,0,53.229-6.875Zm7.172,0a9.838,9.838,0,0,1-1.2,5.367A3.931,3.931,0,0,1,55.7.313a3.826,3.826,0,0,1-3.414-1.859,9.872,9.872,0,0,1-1.2-5.328,9.924,9.924,0,0,1,1.164-5.344,3.841,3.841,0,0,1,3.445-1.8,3.95,3.95,0,0,1,3.461,1.836A9.451,9.451,0,0,1,60.4-6.875ZM56.37-22.844,43.7,0H41.4L54.073-22.844Z" transform="translate(733.364 315.168)"/>
      <path id="패스_1504" data-name="패스 1504" class="cls-7" d="M1.118-3.341,3.692-7.1c.273-.429.533-.884.754-1.313h.065c-.039.442-.078,1.144-.078,1.573v3.5Zm5.395,0H5.174V-9.477H4.433L.247-3.185V-2.7H4.433V0h.741V-2.7H6.513ZM7.293,0H13V-.676H10.049c-.494,0-1.04.039-1.56.078,2.522-2.353,4.056-4.342,4.056-6.331A2.483,2.483,0,0,0,9.919-9.646,3.484,3.484,0,0,0,7.254-8.281l.481.455A2.823,2.823,0,0,1,9.841-9.009,1.863,1.863,0,0,1,11.778-6.9c0,1.716-1.274,3.666-4.485,6.435ZM16.77.169a2.651,2.651,0,0,0,2.86-2.678,2.47,2.47,0,0,0-2.08-2.444v-.065a2.365,2.365,0,0,0,1.742-2.34,2.306,2.306,0,0,0-2.561-2.3A3.682,3.682,0,0,0,14.2-8.541l.442.52a2.973,2.973,0,0,1,2.08-1,1.659,1.659,0,0,1,1.794,1.716c0,1.131-.728,2.028-2.808,2.028v.637c2.262,0,3.146.858,3.146,2.132A1.973,1.973,0,0,1,16.744-.481a3.242,3.242,0,0,1-2.5-1.157l-.429.507A3.833,3.833,0,0,0,16.77.169Zm4.264,2.119A2.7,2.7,0,0,0,22.594-.13c0-.689-.312-1.118-.78-1.118a.652.652,0,0,0-.689.65A.637.637,0,0,0,21.8.065a.633.633,0,0,0,.156-.013,1.966,1.966,0,0,1-1.144,1.742ZM26.481.169a2.651,2.651,0,0,0,2.86-2.678,2.47,2.47,0,0,0-2.08-2.444v-.065A2.365,2.365,0,0,0,29-7.358a2.306,2.306,0,0,0-2.561-2.3,3.682,3.682,0,0,0-2.535,1.118l.442.52a2.973,2.973,0,0,1,2.08-1,1.659,1.659,0,0,1,1.794,1.716c0,1.131-.728,2.028-2.808,2.028v.637c2.262,0,3.146.858,3.146,2.132A1.973,1.973,0,0,1,26.455-.481a3.242,3.242,0,0,1-2.5-1.157l-.429.507A3.833,3.833,0,0,0,26.481.169ZM31.031,0h4.888V-.663H33.943V-9.477h-.611a5.441,5.441,0,0,1-1.807.6v.507h1.651V-.663H31.031Zm9,.169c1.716,0,2.782-1.612,2.782-4.94,0-3.289-1.066-4.875-2.782-4.875s-2.8,1.586-2.8,4.875C37.232-1.443,38.3.169,40.027.169Zm0-.637c-1.235,0-2.041-1.43-2.041-4.3,0-2.821.806-4.238,2.041-4.238s2.028,1.417,2.028,4.238C42.055-1.9,41.249-.468,40.027-.468Zm4.134,2.756A2.7,2.7,0,0,0,45.721-.13c0-.689-.312-1.118-.78-1.118a.652.652,0,0,0-.689.65.637.637,0,0,0,.676.663.633.633,0,0,0,.156-.013A1.966,1.966,0,0,1,43.94,1.794ZM49.5-4.251c-1.313,0-1.9-1-1.9-2.366s.767-2.405,1.794-2.405c1.482,0,2.236,1.313,2.314,3.38A2.838,2.838,0,0,1,49.5-4.251ZM47.047-.741a2.767,2.767,0,0,0,2.093.91c1.729,0,3.328-1.43,3.328-5.421,0-2.86-1.222-4.394-3.055-4.394a2.781,2.781,0,0,0-2.561,3.029c0,1.924.975,2.977,2.561,2.977A3.087,3.087,0,0,0,51.727-4.9c-.078,3.276-1.261,4.42-2.574,4.42A2.131,2.131,0,0,1,47.5-1.235Zm9.269.91a2.651,2.651,0,0,0,2.86-2.678A2.47,2.47,0,0,0,57.1-4.953v-.065a2.365,2.365,0,0,0,1.742-2.34,2.306,2.306,0,0,0-2.561-2.3,3.682,3.682,0,0,0-2.535,1.118l.442.52a2.973,2.973,0,0,1,2.08-1,1.659,1.659,0,0,1,1.794,1.716c0,1.131-.728,2.028-2.808,2.028v.637c2.262,0,3.146.858,3.146,2.132A1.973,1.973,0,0,1,56.29-.481a3.242,3.242,0,0,1-2.5-1.157l-.429.507A3.833,3.833,0,0,0,56.316.169ZM60.255,0h5.707V-.676H63.011c-.494,0-1.04.039-1.56.078,2.522-2.353,4.056-4.342,4.056-6.331a2.483,2.483,0,0,0-2.626-2.717,3.484,3.484,0,0,0-2.665,1.365l.481.455A2.823,2.823,0,0,1,62.8-9.009,1.863,1.863,0,0,1,64.74-6.9c0,1.716-1.274,3.666-4.485,6.435Z" transform="translate(728.822 342.168)"/>
      <g id="그룹_10" data-name="그룹 10" transform="translate(-12630.42 -3448.433)">
        <path id="패스_58" data-name="패스 58" class="cls-11" d="M13028.121,3582.139l111.272-73.832a134.5,134.5,0,0,0-22.84-26.335Z"/>
        <path id="패스_59" data-name="패스 59" class="cls-12" d="M13028.121,3582.139l133-10.533a128.591,128.591,0,0,0-21.73-63.3Z"/>
        <path id="패스_60" data-name="패스 60" class="cls-13" d="M13028.121,3582.139l117.224,63.761c13.017-24.015,17.91-47.057,15.779-74.294Z"/>
        <path id="패스_61" data-name="패스 61" class="cls-14" d="M13028.121,3582.139l26.556,131.012c40.437-8.257,70.968-30.9,90.668-67.251Z"/>
        <path id="패스_62" data-name="패스 62" class="cls-15" d="M13028.121,3582.139l-122.363,53.354c25.366,58.5,86.533,90.4,148.919,77.658Z"/>
        <path id="패스_63" data-name="패스 63" class="cls-10" d="M13028.121,3582.139l88.433-100.167a133.219,133.219,0,0,0-188.323,11.6c-35.36,40.052-43.729,92.9-22.473,141.917Z"/>
        <path id="패스_64" data-name="패스 64" class="cls-16" d="M13027.92,3686.07a103.881,103.881,0,1,0-103.881-103.881,103.879,103.879,0,0,0,103.881,103.881"/>
      </g>
    </g>
    <path id="패스_1490" data-name="패스 1490" class="cls-14" d="M12.528-10.566v1.872H8.586v1.512h3.942V-5.31h1.854v-9.558H12.528v2.79H9.18a9.193,9.193,0,0,0,.144-1.62H1.944V-12.2h5.4C7.02-9.666,4.914-7.668,1.1-6.606L1.836-5.13c3.51-1.026,5.9-2.844,6.912-5.436ZM9.054-.144c-2.2,0-3.582-.63-3.582-1.764,0-1.116,1.386-1.746,3.582-1.746,2.214,0,3.6.63,3.6,1.746C12.654-.774,11.268-.144,9.054-.144Zm0-4.968c-3.294,0-5.418,1.224-5.418,3.2,0,2,2.124,3.222,5.418,3.222S14.49.09,14.49-1.908C14.49-3.888,12.348-5.112,9.054-5.112Zm13-6.462h2.682V-13.1H17.388v1.53H20.25v1.17c0,2.9-1.08,5.832-3.384,7.272l1.116,1.368a8.056,8.056,0,0,0,3.186-4.788A7.4,7.4,0,0,0,24.282-2.16l1.08-1.35C23.094-4.824,22.05-7.632,22.05-10.4Zm3.888,2.412H23.544V-7.65h2.394V.594h1.746V-14.562H25.938Zm3.276-5.724V1.368h1.764V-14.886Zm13.77,7.722a5.348,5.348,0,0,1-3.816-4.9v-.306h3.384V-13.86H33.858v1.494H37.3v.324a5.619,5.619,0,0,1-4,5.2l.954,1.458A6.637,6.637,0,0,0,38.268-9.2a6.433,6.433,0,0,0,3.8,3.474Zm-7.164,4.3h9.108V1.386h1.854V-4.356H35.82Zm9.108-12.024V-10.8H42.084v1.53h2.844v4.1h1.854v-9.72ZM54-13.158v1.512h5.688c-.378,3.744-2.52,6.606-6.5,8.64l1.026,1.422c5.31-2.682,7.326-6.858,7.326-11.574Zm14.256,4.7H65.79v-6.426H63.936V1.368H65.79v-8.28h2.466Zm7.29-2.178h3.528v-1.494H75.546v-2.412H73.692v2.412h-3.6v1.494h3.6V-9.7a7.3,7.3,0,0,1-4.1,6.588l1.026,1.422A7.869,7.869,0,0,0,74.646-6.48,7.7,7.7,0,0,0,78.66-1.962l.99-1.44a7.026,7.026,0,0,1-4.1-6.3Zm5.382-4.248V1.368H82.8V-14.886ZM100.26-9.234H93.024v-1.818h7.236Zm1.836-5.13H100.26v1.89H93.024v-1.89H91.188v6.588H102.1Zm-9.162,11H91.08V1.08h11.3V-.432h-9.45ZM89.28-6.408v1.494h6.588v2.9h1.854v-2.9h6.3V-6.408Zm21.312,2.322h-2.808v-4h2.808Zm0-5.472h-2.808v-3.816h-1.746v10.8h6.282v-10.8h-1.728Zm7.02-5.328v6.354h-1.854v-6.03h-1.746V.63h1.746V-7.02h1.854V1.386h1.764V-14.868Z" transform="translate(335.94 114.958)"/>
    <path id="패스_1491" data-name="패스 1491" d="M-38.64,2.7l.5-.252a12.873,12.873,0,0,1-1.848-6.762,12.909,12.909,0,0,1,1.848-6.762l-.5-.266a12.91,12.91,0,0,0-2.044,7.028A12.862,12.862,0,0,0-38.64,2.7Zm8.918-8.526a27.5,27.5,0,0,1-5.754.434h-.182V-9.716h4.718v-.63H-36.4v5.6h.924a28.173,28.173,0,0,0,5.838-.448ZM-34.3-3.318h-.742V.672h8.2V.042H-34.3ZM-27.454-7.6V-11.48H-28.2v9.03h.742V-6.958h1.946V-7.6Zm7.182-2.59c1.4,0,2.408.8,2.408,1.862s-1.008,1.876-2.408,1.876-2.38-.8-2.38-1.876S-21.658-10.192-20.272-10.192Zm0,4.368c1.834,0,3.122-1.008,3.122-2.506s-1.288-2.492-3.122-2.492-3.094,1.008-3.094,2.492S-22.092-5.824-20.272-5.824Zm4.256.77a59.4,59.4,0,0,1-8.4.462l.126.658c1.106,0,2.38-.014,3.724-.07V.588h.742V-4.046a36.206,36.206,0,0,0,3.864-.42Zm.98-6.384V.994h.742V-11.438Zm4.312,5.768a.719.719,0,0,0,.714-.756.723.723,0,0,0-.714-.77.723.723,0,0,0-.714.77A.719.719,0,0,0-10.724-5.67Zm0,5.852a.719.719,0,0,0,.714-.756.723.723,0,0,0-.714-.77.723.723,0,0,0-.714.77A.719.719,0,0,0-10.724.182Zm7.266-4.158c1.372,0,2.212-1.162,2.212-3.234,0-2.03-.84-3.178-2.212-3.178S-5.67-9.24-5.67-7.21C-5.67-5.138-4.816-3.976-3.458-3.976Zm0-.56c-.924,0-1.526-.966-1.526-2.674s.6-2.618,1.526-2.618,1.54.924,1.54,2.618S-2.534-4.536-3.458-4.536Zm.28,4.718h.644L3.15-10.388H2.506Zm6.65,0c1.344,0,2.212-1.148,2.212-3.22,0-2.044-.868-3.192-2.212-3.192C2.1-6.23,1.246-5.082,1.246-3.038,1.246-.966,2.1.182,3.472.182Zm0-.56c-.938,0-1.54-.952-1.54-2.66s.6-2.632,1.54-2.632C4.382-5.67,5-4.746,5-3.038S4.382-.378,3.472-.378ZM7.056,2.464a2.909,2.909,0,0,0,1.68-2.6c0-.742-.336-1.2-.84-1.2a.7.7,0,0,0-.742.7A.686.686,0,0,0,7.882.07.682.682,0,0,0,8.05.056,2.118,2.118,0,0,1,6.818,1.932ZM19.6-7.5v.63h2.842v4.746h.742v-9.324h-.742V-7.5Zm.742,2.884a4.413,4.413,0,0,1-3.248-3.85v-.588H20.02v-.616H17.108V-11.4h-.742v1.722H13.412v.616h2.954v.588a4.569,4.569,0,0,1-3.192,4.088l.378.588a5.263,5.263,0,0,0,3.192-3.192A5.357,5.357,0,0,0,19.95-4.032ZM16.156.042V-2.982h-.742V.672h8.148V.042ZM32.34-4.032v.588h2.646v1.47h.742v-9.464h-.742v7.406Zm-2.618-6.3c1.372,0,2.324.644,2.324,1.554,0,.938-.952,1.568-2.324,1.568S27.4-7.84,27.4-8.778C27.4-9.688,28.35-10.332,29.722-10.332Zm0,3.7c1.82,0,3.024-.826,3.024-2.142s-1.2-2.128-3.024-2.128-3.038.826-3.038,2.128S27.9-6.636,29.722-6.636Zm-.28,4.158h.742V-5.012a34.563,34.563,0,0,0,3.626-.364l-.07-.546a68.472,68.472,0,0,1-8.092.364l.112.644c1.092,0,2.338,0,3.682-.056ZM28.266.042V-2.912h-.728V.672H36.05V.042ZM38.64,2.7a12.862,12.862,0,0,0,2.044-7.014A12.91,12.91,0,0,0,38.64-11.34l-.5.266a12.909,12.909,0,0,1,1.848,6.762A12.873,12.873,0,0,1,38.136,2.45Z" transform="translate(396.362 146.958)"/>
    <path id="패스_1492" data-name="패스 1492" class="cls-10" d="M5.36.26c2.7,0,4.92-1.56,4.92-4.22A3.727,3.727,0,0,0,7.24-7.64v-.1A3.558,3.558,0,0,0,9.78-11.2c0-2.44-1.86-3.8-4.5-3.8a6.2,6.2,0,0,0-4.22,1.78l1.2,1.44a4.311,4.311,0,0,1,2.94-1.4,2.06,2.06,0,0,1,2.26,2.14c0,1.48-.96,2.58-3.86,2.58v1.7c3.32,0,4.36,1.06,4.36,2.7,0,1.52-1.14,2.44-2.8,2.44A4.757,4.757,0,0,1,1.68-3.24L.56-1.76A6.11,6.11,0,0,0,5.36.26ZM13.6-5.88a9.251,9.251,0,0,0,6.6-4.6,9.352,9.352,0,0,0,6.7,4.54l.84-1.64c-3.58-.56-6.46-3-6.46-5.72v-.04h5.74V-15H13.38v1.66h5.74v.04c0,2.72-2.86,5.22-6.38,5.78Zm7.66,3.52V-6.58H19.18v4.22H12.04V-.68H28.4V-2.36ZM37,0h2.36c.24-5.76.78-9,4.24-13.32v-1.4H34.12v1.94h6.92C38.2-8.82,37.26-5.38,37,0ZM47.96-3.26H58.08V1.58h2.06v-6.5H47.96ZM50.12-8.5a2.589,2.589,0,0,1-2.72-2.66,2.6,2.6,0,0,1,2.72-2.64,2.6,2.6,0,0,1,2.74,2.64A2.594,2.594,0,0,1,50.12-8.5Zm7.96-8.02V-12H54.74a4.452,4.452,0,0,0-4.62-3.54,4.411,4.411,0,0,0-4.7,4.38,4.43,4.43,0,0,0,4.7,4.42,4.465,4.465,0,0,0,4.62-3.58h3.34v4.48h2.06V-16.52ZM76.64-5.92v1.44h3.54V-2.8h2.06V-16.54H80.18V-5.92Zm-3.6-8.4c1.48,0,2.5.64,2.5,1.66S74.52-11,73.04-11c-1.5,0-2.52-.64-2.52-1.66S71.54-14.32,73.04-14.32Zm0,4.84c2.64,0,4.46-1.26,4.46-3.18s-1.82-3.18-4.46-3.18c-2.66,0-4.48,1.26-4.48,3.18S70.38-9.48,73.04-9.48Zm-.82,6.1h2.06V-6.86a40.157,40.157,0,0,0,4.64-.52l-.16-1.48a102.659,102.659,0,0,1-11.58.54l.26,1.68c1.42,0,3.06-.02,4.78-.1Zm-.54,2.9V-4.14H69.62V1.2H82.66V-.48Z" transform="translate(354.081 182.244)"/>
  </g>
</svg>
