<svg id="구성_요소_123_1" data-name="구성 요소 123 – 1" xmlns="http://www.w3.org/2000/svg" width="385.771" height="214.397" viewBox="0 0 385.771 214.397">
  <defs>
    <style>
      .cls-1, .cls-2, .cls-3 {
        fill: none;
        stroke: #42454a;
      }

      .cls-2, .cls-3 {
        stroke-linecap: round;
        stroke-linejoin: round;
      }

      .cls-2 {
        stroke-dasharray: 0 2.983;
      }

      .cls-4 {
        fill: #f4f6f7;
      }

      .cls-5 {
        fill: #f0c560;
      }

      .cls-6 {
        fill: #fff;
      }

      .cls-10, .cls-7 {
        fill: #1e2323;
      }

      .cls-7 {
        font-size: 17px;
        font-family: NotoSansKR-Medium, Noto Sans KR;
        font-weight: 500;
      }

      .cls-8, .cls-9 {
        fill: #132d53;
      }

      .cls-9 {
        font-size: 32px;
        font-family: OpenSans, Open Sans;
      }

      .cls-11 {
        fill: #99691d;
      }
    </style>
  </defs>
  <g id="그룹_235" data-name="그룹 235" transform="translate(0 213.897)">
    <path id="패스_608" data-name="패스 608" class="cls-1" d="M0,0H385.771" transform="translate(0 0)"/>
  </g>
  <g id="그룹_224" data-name="그룹 224" transform="translate(157.933 48.213)">
    <path id="패스_588" data-name="패스 588" class="cls-2" d="M0,0H129.747"/>
  </g>
  <g id="그룹_225" data-name="그룹 225" transform="translate(154.95 48.213)">
    <path id="패스_589" data-name="패스 589" class="cls-3" d="M0,0H0M134.221,0h0"/>
  </g>
  <g id="그룹_226" data-name="그룹 226" transform="translate(94.453 90)">
    <path id="패스_590" data-name="패스 590" class="cls-4" d="M0,0-52.9,72.811A90,90,0,0,1-72.809-52.9C-55.28-77.028-29.822-90,0-90Z"/>
  </g>
  <g id="그룹_227" data-name="그룹 227" transform="translate(94.453 90)">
    <path id="패스_591" data-name="패스 591" class="cls-5" d="M0,0V-90A90,90,0,0,1,90,0,90,90,0,0,1,0,90,86.228,86.228,0,0,1-52.9,72.811Z"/>
  </g>
  <g id="그룹_228" data-name="그룹 228" transform="translate(94.45 158.93)">
    <path id="패스_592" data-name="패스 592" class="cls-6" d="M0,0A68.933,68.933,0,0,0,68.931-68.934,68.933,68.933,0,0,0,0-137.867,68.933,68.933,0,0,0-68.931-68.934,68.933,68.933,0,0,0,0,0"/>
  </g>
  <text id="_" data-name=" " class="cls-7" transform="translate(217.52 95.713)"><tspan x="0" y="0"> </tspan></text>
  <g id="그룹" transform="translate(-13.669 237.157)">
    <path id="패스_23798" data-name="패스 23798" class="cls-8" d="M8.7-13.953a8.4,8.4,0,0,1,5.68,1.789,6.136,6.136,0,0,1,2.07,4.9A7.074,7.074,0,0,1,14.2-1.7,9.018,9.018,0,0,1,7.969.313,11.459,11.459,0,0,1,2.078-.922v-2.5A8.952,8.952,0,0,0,4.8-2.32a13.417,13.417,0,0,0,3.2.4,6.4,6.4,0,0,0,4.273-1.3A4.652,4.652,0,0,0,13.8-6.969q0-4.781-5.859-4.781a23.329,23.329,0,0,0-3.969.453l-1.344-.859.859-10.687H14.844v2.391H5.7l-.578,6.859A18.206,18.206,0,0,1,8.7-13.953ZM22.27,0l9.469-20.453H19.286v-2.391h15.2v2.078L25.145,0ZM39.415-16.031a10.476,10.476,0,0,0,.578,3.984,1.946,1.946,0,0,0,1.875,1.328q2.562,0,2.563-5.312,0-5.281-2.562-5.281A1.945,1.945,0,0,0,39.993-20,10.349,10.349,0,0,0,39.415-16.031Zm7.156,0a9.874,9.874,0,0,1-1.2,5.383,3.931,3.931,0,0,1-3.508,1.82,3.836,3.836,0,0,1-3.4-1.859,9.8,9.8,0,0,1-1.211-5.344,9.924,9.924,0,0,1,1.164-5.344,3.841,3.841,0,0,1,3.445-1.8,3.922,3.922,0,0,1,3.484,1.859A9.616,9.616,0,0,1,46.571-16.031Zm6.594,9.156a10.467,10.467,0,0,0,.578,3.992,1.955,1.955,0,0,0,1.891,1.32,2.042,2.042,0,0,0,1.938-1.3A9.737,9.737,0,0,0,58.2-6.875a9.521,9.521,0,0,0-.625-3.961,2.043,2.043,0,0,0-1.937-1.289,1.954,1.954,0,0,0-1.891,1.289A10.215,10.215,0,0,0,53.165-6.875Zm7.172,0a9.838,9.838,0,0,1-1.2,5.367A3.931,3.931,0,0,1,55.634.313,3.826,3.826,0,0,1,52.22-1.547a9.872,9.872,0,0,1-1.2-5.328,9.924,9.924,0,0,1,1.164-5.344,3.841,3.841,0,0,1,3.445-1.8,3.95,3.95,0,0,1,3.461,1.836A9.451,9.451,0,0,1,60.337-6.875ZM56.306-22.844,43.634,0h-2.3L54.009-22.844Z" transform="translate(235.608 -141.444)"/>
    <text id="_2" data-name=" " class="cls-9" transform="translate(297.592 -141.444)"><tspan x="0" y="0"> </tspan></text>
  </g>
  <path id="패스_23799" data-name="패스 23799" class="cls-10" d="M3.824,3.152l.912-.432a14.749,14.749,0,0,1-2.048-7.7,14.79,14.79,0,0,1,2.048-7.7l-.912-.416A14.943,14.943,0,0,0,1.472-4.976,15,15,0,0,0,3.824,3.152ZM9.264.208A3.809,3.809,0,0,0,13.1-3.824c0-2.576-1.584-3.728-3.536-3.728a3.368,3.368,0,0,0-1.744.464l.288-3.392h4.432v-1.248H6.832L6.464-6.24l.784.48A3.191,3.191,0,0,1,9.2-6.448a2.373,2.373,0,0,1,2.432,2.672,2.535,2.535,0,0,1-2.5,2.768,3.858,3.858,0,0,1-2.88-1.3l-.72.96A4.982,4.982,0,0,0,9.264.208Zm9.2-1.136c-1.472,0-2.352-1.328-2.528-3.76a3.057,3.057,0,0,1,2.4-1.5c1.424,0,2.112,1.008,2.112,2.592C20.448-2,19.584-.928,18.464-.928Zm3.152-9.824a3.6,3.6,0,0,0-2.736-1.2c-2.272,0-4.336,1.76-4.336,6.352,0,3.872,1.664,5.808,3.92,5.808A3.522,3.522,0,0,0,21.824-3.6c0-2.448-1.264-3.68-3.248-3.68A3.648,3.648,0,0,0,15.9-5.856c.064-3.648,1.424-4.88,3.024-4.88a2.48,2.48,0,0,1,1.888.9ZM24.432.208A1.057,1.057,0,0,0,25.488-.9a1.085,1.085,0,0,0-1.056-1.136A1.085,1.085,0,0,0,23.376-.9,1.057,1.057,0,0,0,24.432.208ZM29.5,0h1.52c.176-4.592.688-7.312,3.44-10.848v-.88H27.12v1.248H32.8C30.512-7.28,29.7-4.448,29.5,0Zm14.7-6.256a4.926,4.926,0,0,1-3.488-4.4v-.528h3.152v-1.072H36.208v1.072h3.2v.544a5.23,5.23,0,0,1-3.616,4.7l.688,1.024A6.082,6.082,0,0,0,40.1-8.48a5.921,5.921,0,0,0,3.456,3.248ZM39.52-3.024h6.768v2.96H39.52ZM38.24.992h9.328V-4.064H38.24Zm8-14.16v3.6H43.408V-8.48H46.24v3.712h1.328v-8.4Zm4.64,16.32a14.874,14.874,0,0,0,2.368-8.128,14.82,14.82,0,0,0-2.368-8.112l-.9.416a14.943,14.943,0,0,1,2.048,7.7,14.9,14.9,0,0,1-2.048,7.7Z" transform="translate(229.197 118.713)"/>
  <path id="패스_23797" data-name="패스 23797" class="cls-11" d="M1.734-12.427V-11H7.208C6.9-7.463,5-4.76.969-2.822L1.9-1.428c5.27-2.55,7.106-6.426,7.106-11Zm10.047-1.615V1.309h1.751V-14.042Zm5.78,6.851c2.652-.34,4.709-1.564,5.525-3.264.833,1.7,2.907,2.924,5.576,3.264l.646-1.394c-2.873-.34-4.9-1.768-5.032-3.332h4.5v-1.411H17.442v1.411h4.471c-.136,1.564-2.125,2.992-5.015,3.332ZM19.6-3.366H17.85V1.02H28.526V-.408H19.6ZM16.15-6.256v1.411h6.222v2.89h1.751v-2.89h5.95V-6.256Zm20.026-.969c2.686-.221,4.743-1.1,5.695-2.465.969,1.36,3.026,2.244,5.695,2.465l.544-1.343c-3.077-.221-5-1.292-5.219-2.652H47.43V-12.6H42.755v-1.462H41V-12.6H36.329v1.377h4.539c-.221,1.36-2.142,2.431-5.219,2.652Zm9.2,5.95c0,.833-1.241,1.258-3.519,1.258-2.261,0-3.5-.425-3.5-1.258s1.241-1.275,3.5-1.275C44.132-2.55,45.373-2.108,45.373-1.275Zm3.451-3.893V-6.562H34.935v1.394H41v1.343c-2.788.153-4.437,1.037-4.437,2.55,0,1.666,1.972,2.584,5.287,2.584,3.332,0,5.287-.918,5.287-2.584,0-1.5-1.615-2.38-4.386-2.55V-5.168ZM51.544-7.7c2.7-.306,4.811-1.428,5.644-3.026C58-9.129,60.112-8.007,62.8-7.7l.629-1.377c-2.839-.289-4.828-1.547-5.066-2.958h4.5v-1.411H51.527v1.411H56c-.255,1.411-2.227,2.652-5.066,2.958Zm.238,5.423h8.891v3.6h1.751V-3.689H51.782Zm6.256-4.165V-8.619H56.287v2.176H50.235v1.411H64.158V-6.443Zm17.935-5.015H67.32v3.417H77.979V-9.248H69.037v-1.071h8.67v-3.366H67.286v1.207h8.687Zm-1.87,6.8H70.89V-5.831H74.1Zm5.355-1.173V-7.123H65.535v1.292h3.6v1.173H67.15v1.207h8.874v1.088h-8.84V1.173H78.217V-.051h-9.3V-1.224h8.84V-4.658h-1.9V-5.831Z" transform="translate(54.45 97.193)"/>
</svg>
