<svg id="구성_요소_125_1" data-name="구성 요소 125 – 1" xmlns="http://www.w3.org/2000/svg" width="800.45" height="278.438" viewBox="0 0 800.45 278.438">
  <defs>
    <style>
      .cls-1, .cls-9 {
        fill: #1e2323;
      }

      .cls-2 {
        fill: #f4f6f7;
      }

      .cls-3 {
        fill: #685239;
      }

      .cls-4 {
        fill: #f0c560;
      }

      .cls-5, .cls-6, .cls-7 {
        fill: none;
        stroke: #42454a;
      }

      .cls-6, .cls-7 {
        stroke-linecap: round;
        stroke-linejoin: round;
      }

      .cls-6 {
        stroke-dasharray: 0 2.983;
      }

      .cls-8 {
        fill: #fff;
      }

      .cls-9 {
        font-size: 17px;
        font-family: NotoSansKR-Medium, Noto Sans KR;
        font-weight: 500;
      }

      .cls-10, .cls-11 {
        fill: #132d53;
      }

      .cls-11 {
        font-size: 32px;
        font-family: OpenSans, Open Sans;
      }

      .cls-12 {
        fill: #99691d;
      }
    </style>
  </defs>
  <path id="패스_23803" data-name="패스 23803" class="cls-1" d="M8.288-10.108H5.054v-1.386H4.312v1.386H1.078v.588h7.21ZM2.548-6.986c0-.8.854-1.33,2.128-1.33S6.8-7.784,6.8-6.986,5.95-5.628,4.676-5.628,2.548-6.174,2.548-6.986ZM8.694-4.368c-1.148.168-2.408.28-3.64.336v-1.05c1.484-.1,2.436-.8,2.436-1.9,0-1.176-1.12-1.89-2.814-1.89s-2.828.714-2.828,1.89c0,1.12.966,1.806,2.464,1.9V-3.99c-1.274.042-2.506.056-3.542.056l.112.644A48.308,48.308,0,0,0,8.75-3.822Zm-5.264,2H2.688V.672h8.064V.042H3.43Zm6.86-4.592v-4.494H9.548v9.73h.742V-6.328h1.974v-.63ZM22.848-8.344V-6.37H19.264v.63h3.584v1.9h.742v-7.6h-.742v2.464H19.642a5.67,5.67,0,0,0,.2-1.484H14.28v.616h4.76c-.2,2.436-2.338,4.284-5.376,5.236L14-3.99c2.6-.826,4.592-2.324,5.418-4.354ZM19.6.322c-2.03,0-3.346-.672-3.346-1.722S17.57-3.094,19.6-3.094c2,0,3.332.658,3.332,1.694S21.6.322,19.6.322Zm0-4.018c-2.52,0-4.074.854-4.074,2.3C15.526.07,17.08.924,19.6.924c2.492,0,4.046-.854,4.046-2.324C23.646-2.842,22.092-3.7,19.6-3.7Z" transform="translate(569.675 277.444)"/>
  <path id="패스_594" data-name="패스 594" class="cls-2" d="M576.044-23.76h40V-277.444h-40Z" transform="translate(-13.669 277.444)"/>
  <path id="패스_23808" data-name="패스 23808" class="cls-3" d="M1.84-4.4l2.672-4c.336-.576.656-1.152.944-1.728H5.52c-.032.608-.1,1.552-.1,2.128v3.6Zm6.528,0H6.816v-7.328H5.2L.32-4.192v.96h5.1V0H6.816V-3.232H8.368Zm2.032,0,2.672-4c.336-.576.656-1.152.944-1.728h.064c-.032.608-.1,1.552-.1,2.128v3.6Zm6.528,0H15.376v-7.328H13.76L8.88-4.192v.96h5.1V0h1.392V-3.232h1.552ZM19.344.208A1.057,1.057,0,0,0,20.4-.9a1.085,1.085,0,0,0-1.056-1.136A1.085,1.085,0,0,0,18.288-.9,1.057,1.057,0,0,0,19.344.208ZM24.416,0h1.52c.176-4.592.688-7.312,3.44-10.848v-.88H22.032v1.248h5.68C25.424-7.28,24.608-4.448,24.416,0Z" transform="translate(567.303 24.08)"/>
  <path id="패스_595" data-name="패스 595" class="cls-4" d="M576.119-23.76h40v-115h-40Z" transform="translate(-13.669 277.444)"/>
  <path id="패스_23804" data-name="패스 23804" class="cls-1" d="M6.4-10.472c2.086,0,3.528.728,3.528,1.806S8.484-6.86,6.4-6.86,2.9-7.574,2.9-8.666,4.312-10.472,6.4-10.472Zm0,4.242c2.6,0,4.3-.924,4.3-2.436S9-11.088,6.4-11.088s-4.27.91-4.27,2.422S3.808-6.23,6.4-6.23ZM2.968-2.716H2.226V.672H10.85V.042H2.968ZM.8-5.11v.63H4.76v2.814H5.5V-4.48H8.274v2.814h.742V-4.48H12.04v-.63ZM14.952-2.716V-6.034h4.9v-4.214H14.168V-9.6h4.956v2.94H14.21v4.578H15.2a38.223,38.223,0,0,0,6.342-.462l-.07-.63a39.071,39.071,0,0,1-6.272.462Zm7.868-8.736V.994h.742V-11.452Z" transform="translate(647.4 277.444)"/>
  <path id="패스_597" data-name="패스 597" class="cls-2" d="M653.769-23.76h40V-277.444h-40Z" transform="translate(-13.669 277.444)"/>
  <path id="패스_23807" data-name="패스 23807" class="cls-3" d="M4.176.208a3.809,3.809,0,0,0,3.84-4.032c0-2.576-1.584-3.728-3.536-3.728a3.368,3.368,0,0,0-1.744.464l.288-3.392H7.456v-1.248H1.744L1.376-6.24l.784.48a3.191,3.191,0,0,1,1.952-.688A2.373,2.373,0,0,1,6.544-3.776a2.535,2.535,0,0,1-2.5,2.768,3.858,3.858,0,0,1-2.88-1.3l-.72.96A4.982,4.982,0,0,0,4.176.208Zm8.56,0a3.809,3.809,0,0,0,3.84-4.032c0-2.576-1.584-3.728-3.536-3.728a3.368,3.368,0,0,0-1.744.464l.288-3.392h4.432v-1.248H10.3L9.936-6.24l.784.48a3.191,3.191,0,0,1,1.952-.688A2.373,2.373,0,0,1,15.1-3.776a2.535,2.535,0,0,1-2.5,2.768,3.858,3.858,0,0,1-2.88-1.3l-.72.96A4.982,4.982,0,0,0,12.736.208Zm6.608,0A1.057,1.057,0,0,0,20.4-.9a1.085,1.085,0,0,0-1.056-1.136A1.085,1.085,0,0,0,18.288-.9,1.057,1.057,0,0,0,19.344.208ZM22.656,0h6.432V-1.216H26.736V-11.728h-1.12a7.431,7.431,0,0,1-2.432.832v.928h2.08v8.752H22.656Z" transform="translate(645.104 24.08)"/>
  <path id="패스_598" data-name="패스 598" class="cls-4" d="M653.844-23.76h40V-173.865h-40Z" transform="translate(-13.669 277.444)"/>
  <path id="패스_23805" data-name="패스 23805" class="cls-1" d="M9.8-6.8H3.052v-1.89H9.8Zm.742-4.27H9.8V-9.31H3.052v-1.764H2.31v4.9h8.232ZM3.01-2.674H2.282V.672h8.526V.042H3.01ZM.77-4.76v.616H6.09V-1.47h.742V-4.144h5.236V-4.76ZM21.2-7.336h1.96v3.542h.714v-7.658h-.714v3.486H21.2v-3.248h-.714V-4.2H21.2ZM19.558-5.25A3.922,3.922,0,0,1,17-8.89v-.84H19.39v-.63H13.776v.63h2.492v.84a4.485,4.485,0,0,1-2.632,3.976l.42.6a5.029,5.029,0,0,0,2.576-3.052,4.422,4.422,0,0,0,2.52,2.688ZM19.866.336c-2.03,0-3.346-.6-3.346-1.582s1.316-1.582,3.346-1.582,3.346.6,3.346,1.582S21.91.336,19.866.336Zm0-3.766c-2.534,0-4.074.784-4.074,2.184S17.332.938,19.866.938,23.94.154,23.94-1.246,22.4-3.43,19.866-3.43Zm12.7-3.178a14.3,14.3,0,0,0,.35-3.416v-.6h-6.02V-10h5.292a13.386,13.386,0,0,1-.35,3.3Zm1.428.9a41.789,41.789,0,0,1-4.3.336v-2.6h-.742v2.632c-1.022.028-1.988.028-2.842.028l.112.658a51.811,51.811,0,0,0,7.826-.49ZM31.752.322c-1.988,0-3.276-.588-3.276-1.568s1.288-1.582,3.276-1.582,3.276.6,3.276,1.582S33.754.322,31.752.322Zm0-3.752c-2.506,0-4,.784-4,2.184s1.5,2.184,4,2.184S35.77.154,35.77-1.246,34.258-3.43,31.752-3.43Zm3.906-4.438v-3.6h-.742V-3.6h.742V-7.224H37.6v-.644Zm12.18-.056H41.02v-2.492h6.818Zm.728-3.094h-8.26v3.71h8.26ZM50.036-5.4V-6.02H38.794V-5.4h5.25v1.47H40.208v.6h7.616v1.386H40.236V.8h8.722V.182H40.964V-1.372h7.588V-3.934H44.786V-5.4Z" transform="translate(712.455 277.444)"/>
  <path id="패스_600" data-name="패스 600" class="cls-2" d="M731.494-23.76h40V-277.444h-40Z" transform="translate(-13.669 277.444)"/>
  <path id="패스_23806" data-name="패스 23806" class="cls-3" d="M4.816-.928c-1.472,0-2.352-1.328-2.528-3.76a3.057,3.057,0,0,1,2.4-1.5C6.112-6.192,6.8-5.184,6.8-3.6,6.8-2,5.936-.928,4.816-.928Zm3.152-9.824a3.6,3.6,0,0,0-2.736-1.2C2.96-11.952.9-10.192.9-5.6.9-1.728,2.56.208,4.816.208A3.522,3.522,0,0,0,8.176-3.6c0-2.448-1.264-3.68-3.248-3.68A3.648,3.648,0,0,0,2.256-5.856C2.32-9.5,3.68-10.736,5.28-10.736a2.48,2.48,0,0,1,1.888.9ZM9.968,0H16.4V-1.216H14.048V-11.728h-1.12A7.431,7.431,0,0,1,10.5-10.9v.928h2.08v8.752H9.968Zm9.376.208A1.057,1.057,0,0,0,20.4-.9a1.085,1.085,0,0,0-1.056-1.136A1.085,1.085,0,0,0,18.288-.9,1.057,1.057,0,0,0,19.344.208ZM21.952,0h7.376V-1.264H26.08c-.592,0-1.312.064-1.92.112,2.752-2.608,4.592-4.992,4.592-7.328a3.218,3.218,0,0,0-3.408-3.472,4.486,4.486,0,0,0-3.456,1.728l.848.832a3.284,3.284,0,0,1,2.432-1.36,2.062,2.062,0,0,1,2.16,2.32c0,2.016-1.7,4.352-5.376,7.568Z" transform="translate(722.828 24.08)"/>
  <path id="패스_601" data-name="패스 601" class="cls-4" d="M731.569-23.76h40V-210.866h-40Z" transform="translate(-13.669 277.444)"/>
  <path id="패스_23802" data-name="패스 23802" class="cls-1" d="M1.834-7.532a2.346,2.346,0,0,1,2.45-2.352A2.339,2.339,0,0,1,6.706-7.532,2.339,2.339,0,0,1,4.284-5.18,2.346,2.346,0,0,1,1.834-7.532Zm5.6,0a2.973,2.973,0,0,0-3.15-3.01A2.969,2.969,0,0,0,1.12-7.532a2.977,2.977,0,0,0,3.164,3.01A2.981,2.981,0,0,0,7.434-7.532ZM3.528-3.178H2.786V.672h8.2V.042H3.528ZM10.374-7.56v-3.906H9.632V-2.24h.742V-6.916H12.32V-7.56Zm9.66-.336v.63h2.814V-2.3h.742v-9.156h-.742V-7.9Zm.658,2.954A4.526,4.526,0,0,1,17.556-8.82v-.9h2.912v-.63H13.86v.63h2.968v.91A4.819,4.819,0,0,1,13.58-4.62l.392.6a5.625,5.625,0,0,0,3.234-3.374A5.424,5.424,0,0,0,20.314-4.34ZM16.562.042V-3.136H15.82V.672h8.148V.042ZM31.178-7.49H38.15v2.618H31.178Zm3.836,6.174V-4.242h3.864v-6.286H38.15V-8.12H31.178v-2.408h-.742v6.286h3.836v2.926h-5.25v.63h11.3v-.63Zm13.048-6.16v.63h3.024V-2.2h.742v-9.24h-.742v3.962Zm-5.544-3v.63h4.76c-.2,2.492-2.366,4.452-5.362,5.474l.336.6c3.458-1.176,5.824-3.584,5.824-6.706ZM44.884.042V-3.15h-.742V.672H52.15V.042Z" transform="translate(477.425 277.444)"/>
  <path id="패스_603" data-name="패스 603" class="cls-2" d="M498.394-23.76h40V-277.444h-40Z" transform="translate(-13.669 277.444)"/>
  <path id="패스_23809" data-name="패스 23809" class="cls-3" d="M4.176.208a3.809,3.809,0,0,0,3.84-4.032c0-2.576-1.584-3.728-3.536-3.728a3.368,3.368,0,0,0-1.744.464l.288-3.392H7.456v-1.248H1.744L1.376-6.24l.784.48a3.191,3.191,0,0,1,1.952-.688A2.373,2.373,0,0,1,6.544-3.776a2.535,2.535,0,0,1-2.5,2.768,3.858,3.858,0,0,1-2.88-1.3l-.72.96A4.982,4.982,0,0,0,4.176.208Zm8.56-5.744c-1.392,0-2.1-1.024-2.1-2.608,0-1.6.864-2.656,1.984-2.656,1.5,0,2.4,1.28,2.56,3.7A3.1,3.1,0,0,1,12.736-5.536ZM9.488-.992A3.732,3.732,0,0,0,12.3.208c2.208,0,4.256-1.824,4.256-6.576,0-3.728-1.68-5.584-3.936-5.584a3.522,3.522,0,0,0-3.36,3.808c0,2.432,1.28,3.7,3.232,3.7A3.616,3.616,0,0,0,15.2-5.9c-.112,3.648-1.424,4.9-2.944,4.9a2.647,2.647,0,0,1-1.968-.9Zm9.856,1.2A1.057,1.057,0,0,0,20.4-.9a1.085,1.085,0,0,0-1.056-1.136A1.085,1.085,0,0,0,18.288-.9,1.057,1.057,0,0,0,19.344.208Zm6.08-5.744c-1.392,0-2.1-1.024-2.1-2.608,0-1.6.864-2.656,1.984-2.656,1.5,0,2.4,1.28,2.56,3.7A3.1,3.1,0,0,1,25.424-5.536ZM22.176-.992a3.732,3.732,0,0,0,2.816,1.2c2.208,0,4.256-1.824,4.256-6.576,0-3.728-1.68-5.584-3.936-5.584a3.522,3.522,0,0,0-3.36,3.808c0,2.432,1.28,3.7,3.232,3.7a3.616,3.616,0,0,0,2.7-1.456c-.112,3.648-1.424,4.9-2.944,4.9a2.647,2.647,0,0,1-1.968-.9Z" transform="translate(489.653 24.08)"/>
  <path id="패스_604" data-name="패스 604" class="cls-4" d="M498.394-23.76h40V-209.016h-40Z" transform="translate(-13.669 277.444)"/>
  <path id="패스_23801" data-name="패스 23801" class="cls-1" d="M6.776-1.372v-3.64h3.948v-.63H2.982v-4.7H2.24v5.334H6.034v3.64H.784v.63H12.068v-.63ZM19.082.35c-2.128,0-3.486-.6-3.486-1.61s1.358-1.61,3.486-1.61,3.486.6,3.486,1.61S21.21.35,19.082.35Zm0-3.822c-2.632,0-4.228.8-4.228,2.212S16.45.952,19.082.952,23.31.168,23.31-1.26,21.714-3.472,19.082-3.472Zm.35-1.694V-6.832h3.934v-.63H15.638v-2.786h7.63v-.63H14.91v4.046H18.7v1.666H13.468v.63H24.71v-.63Z" transform="translate(414.226 277.444)"/>
  <path id="패스_606" data-name="패스 606" class="cls-2" d="M420.669-23.76h40V-277.444h-40Z" transform="translate(-13.669 277.444)"/>
  <path id="패스_23800" data-name="패스 23800" class="cls-3" d="M4.816-.928c-1.472,0-2.352-1.328-2.528-3.76a3.057,3.057,0,0,1,2.4-1.5C6.112-6.192,6.8-5.184,6.8-3.6,6.8-2,5.936-.928,4.816-.928Zm3.152-9.824a3.6,3.6,0,0,0-2.736-1.2C2.96-11.952.9-10.192.9-5.6.9-1.728,2.56.208,4.816.208A3.522,3.522,0,0,0,8.176-3.6c0-2.448-1.264-3.68-3.248-3.68A3.648,3.648,0,0,0,2.256-5.856C2.32-9.5,3.68-10.736,5.28-10.736a2.48,2.48,0,0,1,1.888.9ZM9.264,0H16.64V-1.264H13.392c-.592,0-1.312.064-1.92.112,2.752-2.608,4.592-4.992,4.592-7.328a3.218,3.218,0,0,0-3.408-3.472A4.486,4.486,0,0,0,9.2-10.224l.848.832a3.284,3.284,0,0,1,2.432-1.36,2.062,2.062,0,0,1,2.16,2.32c0,2.016-1.7,4.352-5.376,7.568Zm10.08.208A1.057,1.057,0,0,0,20.4-.9a1.085,1.085,0,0,0-1.056-1.136A1.085,1.085,0,0,0,18.288-.9,1.057,1.057,0,0,0,19.344.208ZM23.088-4.4l2.672-4c.336-.576.656-1.152.944-1.728h.064c-.032.608-.1,1.552-.1,2.128v3.6Zm6.528,0H28.064v-7.328H26.448l-4.88,7.536v.96h5.1V0h1.392V-3.232h1.552Z" transform="translate(411.929 24.08)"/>
  <path id="패스_607" data-name="패스 607" class="cls-4" d="M420.669-23.76h40V-218.266h-40Z" transform="translate(-13.669 277.444)"/>
  <g id="그룹_234" data-name="그룹 234" transform="translate(385.771 254.184)">
    <path id="패스_608" data-name="패스 608" class="cls-5" d="M0,0H414.679" transform="translate(0 0)"/>
  </g>
  <g id="그룹_235" data-name="그룹 235" transform="translate(0 254.184)">
    <path id="패스_608-2" data-name="패스 608" class="cls-5" d="M0,0H385.771" transform="translate(0 0)"/>
  </g>
  <g id="그룹_224" data-name="그룹 224" transform="translate(157.933 88.501)">
    <path id="패스_588" data-name="패스 588" class="cls-6" d="M0,0H129.747"/>
  </g>
  <g id="그룹_225" data-name="그룹 225" transform="translate(154.95 88.501)">
    <path id="패스_589" data-name="패스 589" class="cls-7" d="M0,0H0M134.221,0h0"/>
  </g>
  <g id="그룹_226" data-name="그룹 226" transform="translate(94.453 130.287)">
    <path id="패스_590" data-name="패스 590" class="cls-2" d="M0,0-52.9,72.811A90,90,0,0,1-72.809-52.9C-55.28-77.028-29.822-90,0-90Z"/>
  </g>
  <g id="그룹_227" data-name="그룹 227" transform="translate(94.453 130.287)">
    <path id="패스_591" data-name="패스 591" class="cls-4" d="M0,0V-90A90,90,0,0,1,90,0,90,90,0,0,1,0,90,86.228,86.228,0,0,1-52.9,72.811Z"/>
  </g>
  <g id="그룹_228" data-name="그룹 228" transform="translate(94.45 199.217)">
    <path id="패스_592" data-name="패스 592" class="cls-8" d="M0,0A68.933,68.933,0,0,0,68.931-68.934,68.933,68.933,0,0,0,0-137.867,68.933,68.933,0,0,0-68.931-68.934,68.933,68.933,0,0,0,0,0"/>
  </g>
  <text id="_" data-name=" " class="cls-9" transform="translate(217.52 136)"><tspan x="0" y="0"> </tspan></text>
  <g id="그룹" transform="translate(-13.669 277.444)">
    <path id="패스_23798" data-name="패스 23798" class="cls-10" d="M8.7-13.953a8.4,8.4,0,0,1,5.68,1.789,6.136,6.136,0,0,1,2.07,4.9A7.074,7.074,0,0,1,14.2-1.7,9.018,9.018,0,0,1,7.969.313,11.459,11.459,0,0,1,2.078-.922v-2.5A8.952,8.952,0,0,0,4.8-2.32a13.417,13.417,0,0,0,3.2.4,6.4,6.4,0,0,0,4.273-1.3A4.652,4.652,0,0,0,13.8-6.969q0-4.781-5.859-4.781a23.329,23.329,0,0,0-3.969.453l-1.344-.859.859-10.687H14.844v2.391H5.7l-.578,6.859A18.206,18.206,0,0,1,8.7-13.953ZM22.27,0l9.469-20.453H19.286v-2.391h15.2v2.078L25.145,0ZM39.415-16.031a10.476,10.476,0,0,0,.578,3.984,1.946,1.946,0,0,0,1.875,1.328q2.562,0,2.563-5.312,0-5.281-2.562-5.281A1.945,1.945,0,0,0,39.993-20,10.349,10.349,0,0,0,39.415-16.031Zm7.156,0a9.874,9.874,0,0,1-1.2,5.383,3.931,3.931,0,0,1-3.508,1.82,3.836,3.836,0,0,1-3.4-1.859,9.8,9.8,0,0,1-1.211-5.344,9.924,9.924,0,0,1,1.164-5.344,3.841,3.841,0,0,1,3.445-1.8,3.922,3.922,0,0,1,3.484,1.859A9.616,9.616,0,0,1,46.571-16.031Zm6.594,9.156a10.467,10.467,0,0,0,.578,3.992,1.955,1.955,0,0,0,1.891,1.32,2.042,2.042,0,0,0,1.938-1.3A9.737,9.737,0,0,0,58.2-6.875a9.521,9.521,0,0,0-.625-3.961,2.043,2.043,0,0,0-1.937-1.289,1.954,1.954,0,0,0-1.891,1.289A10.215,10.215,0,0,0,53.165-6.875Zm7.172,0a9.838,9.838,0,0,1-1.2,5.367A3.931,3.931,0,0,1,55.634.313,3.826,3.826,0,0,1,52.22-1.547a9.872,9.872,0,0,1-1.2-5.328,9.924,9.924,0,0,1,1.164-5.344,3.841,3.841,0,0,1,3.445-1.8,3.95,3.95,0,0,1,3.461,1.836A9.451,9.451,0,0,1,60.337-6.875ZM56.306-22.844,43.634,0h-2.3L54.009-22.844Z" transform="translate(235.608 -141.444)"/>
    <text id="_2" data-name=" " class="cls-11" transform="translate(297.592 -141.444)"><tspan x="0" y="0"> </tspan></text>
  </g>
  <path id="패스_23799" data-name="패스 23799" class="cls-1" d="M3.824,3.152l.912-.432a14.749,14.749,0,0,1-2.048-7.7,14.79,14.79,0,0,1,2.048-7.7l-.912-.416A14.943,14.943,0,0,0,1.472-4.976,15,15,0,0,0,3.824,3.152ZM9.264.208A3.809,3.809,0,0,0,13.1-3.824c0-2.576-1.584-3.728-3.536-3.728a3.368,3.368,0,0,0-1.744.464l.288-3.392h4.432v-1.248H6.832L6.464-6.24l.784.48A3.191,3.191,0,0,1,9.2-6.448a2.373,2.373,0,0,1,2.432,2.672,2.535,2.535,0,0,1-2.5,2.768,3.858,3.858,0,0,1-2.88-1.3l-.72.96A4.982,4.982,0,0,0,9.264.208Zm9.2-1.136c-1.472,0-2.352-1.328-2.528-3.76a3.057,3.057,0,0,1,2.4-1.5c1.424,0,2.112,1.008,2.112,2.592C20.448-2,19.584-.928,18.464-.928Zm3.152-9.824a3.6,3.6,0,0,0-2.736-1.2c-2.272,0-4.336,1.76-4.336,6.352,0,3.872,1.664,5.808,3.92,5.808A3.522,3.522,0,0,0,21.824-3.6c0-2.448-1.264-3.68-3.248-3.68A3.648,3.648,0,0,0,15.9-5.856c.064-3.648,1.424-4.88,3.024-4.88a2.48,2.48,0,0,1,1.888.9ZM24.432.208A1.057,1.057,0,0,0,25.488-.9a1.085,1.085,0,0,0-1.056-1.136A1.085,1.085,0,0,0,23.376-.9,1.057,1.057,0,0,0,24.432.208ZM29.5,0h1.52c.176-4.592.688-7.312,3.44-10.848v-.88H27.12v1.248H32.8C30.512-7.28,29.7-4.448,29.5,0Zm14.7-6.256a4.926,4.926,0,0,1-3.488-4.4v-.528h3.152v-1.072H36.208v1.072h3.2v.544a5.23,5.23,0,0,1-3.616,4.7l.688,1.024A6.082,6.082,0,0,0,40.1-8.48a5.921,5.921,0,0,0,3.456,3.248ZM39.52-3.024h6.768v2.96H39.52ZM38.24.992h9.328V-4.064H38.24Zm8-14.16v3.6H43.408V-8.48H46.24v3.712h1.328v-8.4Zm4.64,16.32a14.874,14.874,0,0,0,2.368-8.128,14.82,14.82,0,0,0-2.368-8.112l-.9.416a14.943,14.943,0,0,1,2.048,7.7,14.9,14.9,0,0,1-2.048,7.7Z" transform="translate(229.197 159)"/>
  <path id="패스_23797" data-name="패스 23797" class="cls-12" d="M1.734-12.427V-11H7.208C6.9-7.463,5-4.76.969-2.822L1.9-1.428c5.27-2.55,7.106-6.426,7.106-11Zm10.047-1.615V1.309h1.751V-14.042Zm5.78,6.851c2.652-.34,4.709-1.564,5.525-3.264.833,1.7,2.907,2.924,5.576,3.264l.646-1.394c-2.873-.34-4.9-1.768-5.032-3.332h4.5v-1.411H17.442v1.411h4.471c-.136,1.564-2.125,2.992-5.015,3.332ZM19.6-3.366H17.85V1.02H28.526V-.408H19.6ZM16.15-6.256v1.411h6.222v2.89h1.751v-2.89h5.95V-6.256Zm20.026-.969c2.686-.221,4.743-1.1,5.695-2.465.969,1.36,3.026,2.244,5.695,2.465l.544-1.343c-3.077-.221-5-1.292-5.219-2.652H47.43V-12.6H42.755v-1.462H41V-12.6H36.329v1.377h4.539c-.221,1.36-2.142,2.431-5.219,2.652Zm9.2,5.95c0,.833-1.241,1.258-3.519,1.258-2.261,0-3.5-.425-3.5-1.258s1.241-1.275,3.5-1.275C44.132-2.55,45.373-2.108,45.373-1.275Zm3.451-3.893V-6.562H34.935v1.394H41v1.343c-2.788.153-4.437,1.037-4.437,2.55,0,1.666,1.972,2.584,5.287,2.584,3.332,0,5.287-.918,5.287-2.584,0-1.5-1.615-2.38-4.386-2.55V-5.168ZM51.544-7.7c2.7-.306,4.811-1.428,5.644-3.026C58-9.129,60.112-8.007,62.8-7.7l.629-1.377c-2.839-.289-4.828-1.547-5.066-2.958h4.5v-1.411H51.527v1.411H56c-.255,1.411-2.227,2.652-5.066,2.958Zm.238,5.423h8.891v3.6h1.751V-3.689H51.782Zm6.256-4.165V-8.619H56.287v2.176H50.235v1.411H64.158V-6.443Zm17.935-5.015H67.32v3.417H77.979V-9.248H69.037v-1.071h8.67v-3.366H67.286v1.207h8.687Zm-1.87,6.8H70.89V-5.831H74.1Zm5.355-1.173V-7.123H65.535v1.292h3.6v1.173H67.15v1.207h8.874v1.088h-8.84V1.173H78.217V-.051h-9.3V-1.224h8.84V-4.658h-1.9V-5.831Z" transform="translate(54.45 137.48)"/>
</svg>
