<svg id="구성_요소_64_1" data-name="구성 요소 64 – 1" xmlns="http://www.w3.org/2000/svg" width="414.679" height="278.438" viewBox="0 0 414.679 278.438">
  <defs>
    <style>
      .cls-1 {
        fill: #1e2323;
      }

      .cls-2 {
        fill: #f4f6f7;
      }

      .cls-3 {
        fill: #685239;
      }

      .cls-4 {
        fill: #f0c560;
      }

      .cls-5 {
        fill: none;
        stroke: #42454a;
      }
    </style>
  </defs>
  <path id="패스_23803" data-name="패스 23803" class="cls-1" d="M8.288-10.108H5.054v-1.386H4.312v1.386H1.078v.588h7.21ZM2.548-6.986c0-.8.854-1.33,2.128-1.33S6.8-7.784,6.8-6.986,5.95-5.628,4.676-5.628,2.548-6.174,2.548-6.986ZM8.694-4.368c-1.148.168-2.408.28-3.64.336v-1.05c1.484-.1,2.436-.8,2.436-1.9,0-1.176-1.12-1.89-2.814-1.89s-2.828.714-2.828,1.89c0,1.12.966,1.806,2.464,1.9V-3.99c-1.274.042-2.506.056-3.542.056l.112.644A48.308,48.308,0,0,0,8.75-3.822Zm-5.264,2H2.688V.672h8.064V.042H3.43Zm6.86-4.592v-4.494H9.548v9.73h.742V-6.328h1.974v-.63ZM22.848-8.344V-6.37H19.264v.63h3.584v1.9h.742v-7.6h-.742v2.464H19.642a5.67,5.67,0,0,0,.2-1.484H14.28v.616h4.76c-.2,2.436-2.338,4.284-5.376,5.236L14-3.99c2.6-.826,4.592-2.324,5.418-4.354ZM19.6.322c-2.03,0-3.346-.672-3.346-1.722S17.57-3.094,19.6-3.094c2,0,3.332.658,3.332,1.694S21.6.322,19.6.322Zm0-4.018c-2.52,0-4.074.854-4.074,2.3C15.526.07,17.08.924,19.6.924c2.492,0,4.046-.854,4.046-2.324C23.646-2.842,22.092-3.7,19.6-3.7Z" transform="translate(183.903 277.444)"/>
  <path id="패스_594" data-name="패스 594" class="cls-2" d="M576.044-23.76h40V-277.444h-40Z" transform="translate(-399.44 277.444)"/>
  <path id="패스_23808" data-name="패스 23808" class="cls-3" d="M1.84-4.4l2.672-4c.336-.576.656-1.152.944-1.728H5.52c-.032.608-.1,1.552-.1,2.128v3.6Zm6.528,0H6.816v-7.328H5.2L.32-4.192v.96h5.1V0H6.816V-3.232H8.368Zm2.032,0,2.672-4c.336-.576.656-1.152.944-1.728h.064c-.032.608-.1,1.552-.1,2.128v3.6Zm6.528,0H15.376v-7.328H13.76L8.88-4.192v.96h5.1V0h1.392V-3.232h1.552ZM19.344.208A1.057,1.057,0,0,0,20.4-.9a1.085,1.085,0,0,0-1.056-1.136A1.085,1.085,0,0,0,18.288-.9,1.057,1.057,0,0,0,19.344.208ZM24.416,0h1.52c.176-4.592.688-7.312,3.44-10.848v-.88H22.032v1.248h5.68C25.424-7.28,24.608-4.448,24.416,0Z" transform="translate(181.531 24.08)"/>
  <path id="패스_595" data-name="패스 595" class="cls-4" d="M576.119-23.76h40v-115h-40Z" transform="translate(-399.44 277.444)"/>
  <path id="패스_23804" data-name="패스 23804" class="cls-1" d="M6.4-10.472c2.086,0,3.528.728,3.528,1.806S8.484-6.86,6.4-6.86,2.9-7.574,2.9-8.666,4.312-10.472,6.4-10.472Zm0,4.242c2.6,0,4.3-.924,4.3-2.436S9-11.088,6.4-11.088s-4.27.91-4.27,2.422S3.808-6.23,6.4-6.23ZM2.968-2.716H2.226V.672H10.85V.042H2.968ZM.8-5.11v.63H4.76v2.814H5.5V-4.48H8.274v2.814h.742V-4.48H12.04v-.63ZM14.952-2.716V-6.034h4.9v-4.214H14.168V-9.6h4.956v2.94H14.21v4.578H15.2a38.223,38.223,0,0,0,6.342-.462l-.07-.63a39.071,39.071,0,0,1-6.272.462Zm7.868-8.736V.994h.742V-11.452Z" transform="translate(261.629 277.444)"/>
  <path id="패스_597" data-name="패스 597" class="cls-2" d="M653.769-23.76h40V-277.444h-40Z" transform="translate(-399.44 277.444)"/>
  <path id="패스_23807" data-name="패스 23807" class="cls-3" d="M4.176.208a3.809,3.809,0,0,0,3.84-4.032c0-2.576-1.584-3.728-3.536-3.728a3.368,3.368,0,0,0-1.744.464l.288-3.392H7.456v-1.248H1.744L1.376-6.24l.784.48a3.191,3.191,0,0,1,1.952-.688A2.373,2.373,0,0,1,6.544-3.776a2.535,2.535,0,0,1-2.5,2.768,3.858,3.858,0,0,1-2.88-1.3l-.72.96A4.982,4.982,0,0,0,4.176.208Zm8.56,0a3.809,3.809,0,0,0,3.84-4.032c0-2.576-1.584-3.728-3.536-3.728a3.368,3.368,0,0,0-1.744.464l.288-3.392h4.432v-1.248H10.3L9.936-6.24l.784.48a3.191,3.191,0,0,1,1.952-.688A2.373,2.373,0,0,1,15.1-3.776a2.535,2.535,0,0,1-2.5,2.768,3.858,3.858,0,0,1-2.88-1.3l-.72.96A4.982,4.982,0,0,0,12.736.208Zm6.608,0A1.057,1.057,0,0,0,20.4-.9a1.085,1.085,0,0,0-1.056-1.136A1.085,1.085,0,0,0,18.288-.9,1.057,1.057,0,0,0,19.344.208ZM22.656,0h6.432V-1.216H26.736V-11.728h-1.12a7.431,7.431,0,0,1-2.432.832v.928h2.08v8.752H22.656Z" transform="translate(259.332 24.08)"/>
  <path id="패스_598" data-name="패스 598" class="cls-4" d="M653.844-23.76h40V-173.865h-40Z" transform="translate(-399.44 277.444)"/>
  <path id="패스_23805" data-name="패스 23805" class="cls-1" d="M9.8-6.8H3.052v-1.89H9.8Zm.742-4.27H9.8V-9.31H3.052v-1.764H2.31v4.9h8.232ZM3.01-2.674H2.282V.672h8.526V.042H3.01ZM.77-4.76v.616H6.09V-1.47h.742V-4.144h5.236V-4.76ZM21.2-7.336h1.96v3.542h.714v-7.658h-.714v3.486H21.2v-3.248h-.714V-4.2H21.2ZM19.558-5.25A3.922,3.922,0,0,1,17-8.89v-.84H19.39v-.63H13.776v.63h2.492v.84a4.485,4.485,0,0,1-2.632,3.976l.42.6a5.029,5.029,0,0,0,2.576-3.052,4.422,4.422,0,0,0,2.52,2.688ZM19.866.336c-2.03,0-3.346-.6-3.346-1.582s1.316-1.582,3.346-1.582,3.346.6,3.346,1.582S21.91.336,19.866.336Zm0-3.766c-2.534,0-4.074.784-4.074,2.184S17.332.938,19.866.938,23.94.154,23.94-1.246,22.4-3.43,19.866-3.43Zm12.7-3.178a14.3,14.3,0,0,0,.35-3.416v-.6h-6.02V-10h5.292a13.386,13.386,0,0,1-.35,3.3Zm1.428.9a41.789,41.789,0,0,1-4.3.336v-2.6h-.742v2.632c-1.022.028-1.988.028-2.842.028l.112.658a51.811,51.811,0,0,0,7.826-.49ZM31.752.322c-1.988,0-3.276-.588-3.276-1.568s1.288-1.582,3.276-1.582,3.276.6,3.276,1.582S33.754.322,31.752.322Zm0-3.752c-2.506,0-4,.784-4,2.184s1.5,2.184,4,2.184S35.77.154,35.77-1.246,34.258-3.43,31.752-3.43Zm3.906-4.438v-3.6h-.742V-3.6h.742V-7.224H37.6v-.644Zm12.18-.056H41.02v-2.492h6.818Zm.728-3.094h-8.26v3.71h8.26ZM50.036-5.4V-6.02H38.794V-5.4h5.25v1.47H40.208v.6h7.616v1.386H40.236V.8h8.722V.182H40.964V-1.372h7.588V-3.934H44.786V-5.4Z" transform="translate(326.684 277.444)"/>
  <path id="패스_600" data-name="패스 600" class="cls-2" d="M731.494-23.76h40V-277.444h-40Z" transform="translate(-399.44 277.444)"/>
  <path id="패스_23806" data-name="패스 23806" class="cls-3" d="M4.816-.928c-1.472,0-2.352-1.328-2.528-3.76a3.057,3.057,0,0,1,2.4-1.5C6.112-6.192,6.8-5.184,6.8-3.6,6.8-2,5.936-.928,4.816-.928Zm3.152-9.824a3.6,3.6,0,0,0-2.736-1.2C2.96-11.952.9-10.192.9-5.6.9-1.728,2.56.208,4.816.208A3.522,3.522,0,0,0,8.176-3.6c0-2.448-1.264-3.68-3.248-3.68A3.648,3.648,0,0,0,2.256-5.856C2.32-9.5,3.68-10.736,5.28-10.736a2.48,2.48,0,0,1,1.888.9ZM9.968,0H16.4V-1.216H14.048V-11.728h-1.12A7.431,7.431,0,0,1,10.5-10.9v.928h2.08v8.752H9.968Zm9.376.208A1.057,1.057,0,0,0,20.4-.9a1.085,1.085,0,0,0-1.056-1.136A1.085,1.085,0,0,0,18.288-.9,1.057,1.057,0,0,0,19.344.208ZM21.952,0h7.376V-1.264H26.08c-.592,0-1.312.064-1.92.112,2.752-2.608,4.592-4.992,4.592-7.328a3.218,3.218,0,0,0-3.408-3.472,4.486,4.486,0,0,0-3.456,1.728l.848.832a3.284,3.284,0,0,1,2.432-1.36,2.062,2.062,0,0,1,2.16,2.32c0,2.016-1.7,4.352-5.376,7.568Z" transform="translate(337.057 24.08)"/>
  <path id="패스_601" data-name="패스 601" class="cls-4" d="M731.569-23.76h40V-210.866h-40Z" transform="translate(-399.44 277.444)"/>
  <path id="패스_23802" data-name="패스 23802" class="cls-1" d="M1.834-7.532a2.346,2.346,0,0,1,2.45-2.352A2.339,2.339,0,0,1,6.706-7.532,2.339,2.339,0,0,1,4.284-5.18,2.346,2.346,0,0,1,1.834-7.532Zm5.6,0a2.973,2.973,0,0,0-3.15-3.01A2.969,2.969,0,0,0,1.12-7.532a2.977,2.977,0,0,0,3.164,3.01A2.981,2.981,0,0,0,7.434-7.532ZM3.528-3.178H2.786V.672h8.2V.042H3.528ZM10.374-7.56v-3.906H9.632V-2.24h.742V-6.916H12.32V-7.56Zm9.66-.336v.63h2.814V-2.3h.742v-9.156h-.742V-7.9Zm.658,2.954A4.526,4.526,0,0,1,17.556-8.82v-.9h2.912v-.63H13.86v.63h2.968v.91A4.819,4.819,0,0,1,13.58-4.62l.392.6a5.625,5.625,0,0,0,3.234-3.374A5.424,5.424,0,0,0,20.314-4.34ZM16.562.042V-3.136H15.82V.672h8.148V.042ZM31.178-7.49H38.15v2.618H31.178Zm3.836,6.174V-4.242h3.864v-6.286H38.15V-8.12H31.178v-2.408h-.742v6.286h3.836v2.926h-5.25v.63h11.3v-.63Zm13.048-6.16v.63h3.024V-2.2h.742v-9.24h-.742v3.962Zm-5.544-3v.63h4.76c-.2,2.492-2.366,4.452-5.362,5.474l.336.6c3.458-1.176,5.824-3.584,5.824-6.706ZM44.884.042V-3.15h-.742V.672H52.15V.042Z" transform="translate(91.653 277.444)"/>
  <path id="패스_603" data-name="패스 603" class="cls-2" d="M498.394-23.76h40V-277.444h-40Z" transform="translate(-399.44 277.444)"/>
  <path id="패스_23809" data-name="패스 23809" class="cls-3" d="M4.176.208a3.809,3.809,0,0,0,3.84-4.032c0-2.576-1.584-3.728-3.536-3.728a3.368,3.368,0,0,0-1.744.464l.288-3.392H7.456v-1.248H1.744L1.376-6.24l.784.48a3.191,3.191,0,0,1,1.952-.688A2.373,2.373,0,0,1,6.544-3.776a2.535,2.535,0,0,1-2.5,2.768,3.858,3.858,0,0,1-2.88-1.3l-.72.96A4.982,4.982,0,0,0,4.176.208Zm8.56-5.744c-1.392,0-2.1-1.024-2.1-2.608,0-1.6.864-2.656,1.984-2.656,1.5,0,2.4,1.28,2.56,3.7A3.1,3.1,0,0,1,12.736-5.536ZM9.488-.992A3.732,3.732,0,0,0,12.3.208c2.208,0,4.256-1.824,4.256-6.576,0-3.728-1.68-5.584-3.936-5.584a3.522,3.522,0,0,0-3.36,3.808c0,2.432,1.28,3.7,3.232,3.7A3.616,3.616,0,0,0,15.2-5.9c-.112,3.648-1.424,4.9-2.944,4.9a2.647,2.647,0,0,1-1.968-.9Zm9.856,1.2A1.057,1.057,0,0,0,20.4-.9a1.085,1.085,0,0,0-1.056-1.136A1.085,1.085,0,0,0,18.288-.9,1.057,1.057,0,0,0,19.344.208Zm6.08-5.744c-1.392,0-2.1-1.024-2.1-2.608,0-1.6.864-2.656,1.984-2.656,1.5,0,2.4,1.28,2.56,3.7A3.1,3.1,0,0,1,25.424-5.536ZM22.176-.992a3.732,3.732,0,0,0,2.816,1.2c2.208,0,4.256-1.824,4.256-6.576,0-3.728-1.68-5.584-3.936-5.584a3.522,3.522,0,0,0-3.36,3.808c0,2.432,1.28,3.7,3.232,3.7a3.616,3.616,0,0,0,2.7-1.456c-.112,3.648-1.424,4.9-2.944,4.9a2.647,2.647,0,0,1-1.968-.9Z" transform="translate(103.882 24.08)"/>
  <path id="패스_604" data-name="패스 604" class="cls-4" d="M498.394-23.76h40V-209.016h-40Z" transform="translate(-399.44 277.444)"/>
  <path id="패스_23801" data-name="패스 23801" class="cls-1" d="M6.776-1.372v-3.64h3.948v-.63H2.982v-4.7H2.24v5.334H6.034v3.64H.784v.63H12.068v-.63ZM19.082.35c-2.128,0-3.486-.6-3.486-1.61s1.358-1.61,3.486-1.61,3.486.6,3.486,1.61S21.21.35,19.082.35Zm0-3.822c-2.632,0-4.228.8-4.228,2.212S16.45.952,19.082.952,23.31.168,23.31-1.26,21.714-3.472,19.082-3.472Zm.35-1.694V-6.832h3.934v-.63H15.638v-2.786h7.63v-.63H14.91v4.046H18.7v1.666H13.468v.63H24.71v-.63Z" transform="translate(28.454 277.444)"/>
  <path id="패스_606" data-name="패스 606" class="cls-2" d="M420.669-23.76h40V-277.444h-40Z" transform="translate(-399.44 277.444)"/>
  <path id="패스_23800" data-name="패스 23800" class="cls-3" d="M4.816-.928c-1.472,0-2.352-1.328-2.528-3.76a3.057,3.057,0,0,1,2.4-1.5C6.112-6.192,6.8-5.184,6.8-3.6,6.8-2,5.936-.928,4.816-.928Zm3.152-9.824a3.6,3.6,0,0,0-2.736-1.2C2.96-11.952.9-10.192.9-5.6.9-1.728,2.56.208,4.816.208A3.522,3.522,0,0,0,8.176-3.6c0-2.448-1.264-3.68-3.248-3.68A3.648,3.648,0,0,0,2.256-5.856C2.32-9.5,3.68-10.736,5.28-10.736a2.48,2.48,0,0,1,1.888.9ZM9.264,0H16.64V-1.264H13.392c-.592,0-1.312.064-1.92.112,2.752-2.608,4.592-4.992,4.592-7.328a3.218,3.218,0,0,0-3.408-3.472A4.486,4.486,0,0,0,9.2-10.224l.848.832a3.284,3.284,0,0,1,2.432-1.36,2.062,2.062,0,0,1,2.16,2.32c0,2.016-1.7,4.352-5.376,7.568Zm10.08.208A1.057,1.057,0,0,0,20.4-.9a1.085,1.085,0,0,0-1.056-1.136A1.085,1.085,0,0,0,18.288-.9,1.057,1.057,0,0,0,19.344.208ZM23.088-4.4l2.672-4c.336-.576.656-1.152.944-1.728h.064c-.032.608-.1,1.552-.1,2.128v3.6Zm6.528,0H28.064v-7.328H26.448l-4.88,7.536v.96h5.1V0h1.392V-3.232h1.552Z" transform="translate(26.157 24.08)"/>
  <path id="패스_607" data-name="패스 607" class="cls-4" d="M420.669-23.76h40V-218.266h-40Z" transform="translate(-399.44 277.444)"/>
  <g id="그룹_234" data-name="그룹 234" transform="translate(0 254.184)">
    <path id="패스_608" data-name="패스 608" class="cls-5" d="M0,0H414.679" transform="translate(0 0)"/>
  </g>
</svg>
