<svg id="구성_요소_124_1" data-name="구성 요소 124 – 1" xmlns="http://www.w3.org/2000/svg" width="796" height="495.222" viewBox="0 0 796 495.222">
  <defs>
    <style>
      .cls-1 {
        fill: #f5f7f7;
      }

      .cls-11, .cls-2, .cls-3, .cls-4, .cls-5 {
        fill: none;
      }

      .cls-2, .cls-3, .cls-4 {
        stroke: #1e2323;
        stroke-linecap: round;
        stroke-linejoin: round;
      }

      .cls-2, .cls-3, .cls-4, .cls-5 {
        stroke-width: 0.95px;
      }

      .cls-2 {
        stroke-dasharray: 0 2.837;
      }

      .cls-4 {
        stroke-dasharray: 0 2.856;
      }

      .cls-5 {
        stroke: #000;
        stroke-miterlimit: 10;
      }

      .cls-6 {
        fill: #d6a803;
      }

      .cls-6, .cls-8 {
        font-size: 14px;
        font-family: NotoSansKR-Light, Noto Sans KR;
        font-weight: 300;
      }

      .cls-7, .cls-8 {
        fill: #1e2323;
      }

      .cls-12, .cls-9 {
        fill: #685239;
      }

      .cls-10 {
        fill: #fff;
      }

      .cls-11 {
        stroke: #685239;
        stroke-width: 0.5px;
      }

      .cls-12 {
        font-size: 15px;
        font-family: NotoSansKR-Medium, Noto Sans KR;
        font-weight: 500;
      }
    </style>
  </defs>
  <rect id="사각형_17" data-name="사각형 17" class="cls-1" width="796" height="495.222"/>
  <path id="패스_43" data-name="패스 43" class="cls-2" d="M14107.368,1941.051c67.5-1.522,121.851-57.213,122.589-125.973" transform="translate(-13454.44 -1555.72)"/>
  <path id="패스_44" data-name="패스 44" class="cls-2" d="M14229.935,1810.822c-1.476-68.585-56.295-123.815-123.985-124.578" transform="translate(-13454.44 -1555.72)"/>
  <path id="패스_45" data-name="패스 45" class="cls-3" d="M14104.531,1686.236h0m125.434,127.423h0m-125.434,127.424h0" transform="translate(-13454.44 -1555.72)"/>
  <path id="패스_46" data-name="패스 46" class="cls-2" d="M13597.512,1941.051c-67.5-1.522-121.851-57.213-122.589-125.973" transform="translate(-13454.44 -1555.72)"/>
  <path id="패스_47" data-name="패스 47" class="cls-2" d="M13474.945,1810.822c1.475-68.585,56.294-123.815,123.984-124.578" transform="translate(-13454.44 -1555.72)"/>
  <path id="패스_48" data-name="패스 48" class="cls-3" d="M13600.349,1686.236h0m-125.434,127.423h0m125.434,127.424h0" transform="translate(-13454.44 -1555.72)"/>
  <line id="선_48" data-name="선 48" class="cls-4" x1="469.766" transform="translate(162.403 130.501)"/>
  <path id="패스_49" data-name="패스 49" class="cls-3" d="M13615.415,1686.221h0m474.05,0h0" transform="translate(-13454.44 -1555.72)"/>
  <line id="선_49" data-name="선 49" class="cls-4" x1="469.766" transform="translate(162.403 385.402)"/>
  <path id="패스_50" data-name="패스 50" class="cls-3" d="M13615.415,1941.122h0m474.05,0h0" transform="translate(-13454.44 -1555.72)"/>
  <path id="패스_51" data-name="패스 51" class="cls-5" d="M13841.778,1683.21l2.991,3.01-2.991,3.011" transform="translate(-13454.44 -1555.72)"/>
  <path id="패스_52" data-name="패스 52" class="cls-5" d="M13845.1,1938.112l-2.991,3.01,2.991,3.011" transform="translate(-13454.44 -1555.72)"/>
  <path id="패스_53" data-name="패스 53" class="cls-5" d="M14232.876,1808.653l-3.012,2.991-3.01-2.991" transform="translate(-13454.44 -1555.72)"/>
  <path id="패스_54" data-name="패스 54" class="cls-5" d="M13477.8,1808.653l-3.012,2.991-3.01-2.991" transform="translate(-13454.44 -1555.72)"/>
  <text id="_" data-name="•" class="cls-6" transform="translate(111.073 188.6)"><tspan x="0" y="0">•</tspan></text>
  <path id="패스_23811" data-name="패스 23811" class="cls-7" d="M13.8-11.438h-.742v9.17H13.8ZM4.76-7.546A2.339,2.339,0,0,1,7.2-9.884,2.339,2.339,0,0,1,9.632-7.546,2.354,2.354,0,0,1,7.2-5.18,2.354,2.354,0,0,1,4.76-7.546Zm5.586,0a2.962,2.962,0,0,0-3.15-3,2.962,2.962,0,0,0-3.15,3A2.976,2.976,0,0,0,7.2-4.522,2.976,2.976,0,0,0,10.346-7.546ZM6.734.042V-3.234H5.992V.672h8.232V.042ZM22.764-4.62V-4h2.884v1.96h.742v-9.408h-.742V-4.62ZM19.95-2.87h.728v-3a37.293,37.293,0,0,0,3.766-.392l-.056-.574c-.49.07-1.022.14-1.54.2a18.945,18.945,0,0,0,.28-3.486v-.5H17.4V-10h5a17.319,17.319,0,0,1-.308,3.4c-2.044.168-4.144.182-5.81.182l.112.658c1.05,0,2.282-.014,3.556-.07ZM18.942.042V-3.122H18.2V.672h8.512V.042ZM33.124-10.192c1.4,0,2.408.8,2.408,1.862s-1.008,1.876-2.408,1.876-2.38-.8-2.38-1.876S31.738-10.192,33.124-10.192Zm0,4.368c1.834,0,3.122-1.008,3.122-2.506s-1.288-2.492-3.122-2.492S30.03-9.814,30.03-8.33,31.3-5.824,33.124-5.824Zm4.256.77a59.4,59.4,0,0,1-8.4.462l.126.658c1.106,0,2.38-.014,3.724-.07V.588h.742V-4.046a36.206,36.206,0,0,0,3.864-.42Zm.98-6.384V.994H39.1V-11.438Zm10.528,1.4H45.682v-1.554H44.94v1.554H41.734v.616h7.154Zm-5.7,3.612c0-.938.882-1.61,2.114-1.61s2.114.672,2.114,1.61-.882,1.61-2.114,1.61S43.19-5.5,43.19-6.426Zm4.928,0c0-1.33-1.162-2.2-2.814-2.2s-2.814.868-2.814,2.2,1.176,2.2,2.814,2.2S48.118-5.1,48.118-6.426ZM44.646-2.562h6.5V.154h-6.5ZM43.918.784h7.938V-3.178H43.918Zm7.2-12.25V-7.6h-2.38v.63h2.38V-3.92h.742v-7.546ZM60.8-4.522a31.108,31.108,0,0,0,.378-5.04v-.462H54.964v.616h5.488a29.438,29.438,0,0,1-.392,4.816Zm-2.94-1.946h-.728v3.906c-1.022.028-2,.028-2.884.028l.126.658a58.336,58.336,0,0,0,7.854-.462l-.056-.56a42.5,42.5,0,0,1-4.312.308Zm8.106.322H63.784v-5.32h-.742V.98h.742V-5.474h2.184ZM70.91-7.8a2.3,2.3,0,0,1,2.436-2.254A2.3,2.3,0,0,1,75.782-7.8,2.293,2.293,0,0,1,73.346-5.53,2.293,2.293,0,0,1,70.91-7.8Zm8.456-1.148v2.31H76.272A3.123,3.123,0,0,0,76.5-7.8a3.105,3.105,0,0,0-.224-1.148Zm0,2.94V-4.06h.742v-7.406h-.742v1.9H75.894a3.192,3.192,0,0,0-2.548-1.12A2.916,2.916,0,0,0,70.2-7.8a2.932,2.932,0,0,0,3.15,2.926,3.2,3.2,0,0,0,2.548-1.134ZM76.076.336c-2.016,0-3.332-.672-3.332-1.736s1.316-1.736,3.332-1.736c2.044,0,3.36.686,3.36,1.736S78.12.336,76.076.336Zm0-4.074c-2.52,0-4.06.854-4.06,2.338S73.556.938,76.076.938,80.164.084,80.164-1.4,78.61-3.738,76.076-3.738Zm14-6.188h-3.3v-1.652H86.03v1.652H82.712v.616h7.364ZM84.154-6.37c0-.938.91-1.582,2.24-1.582s2.226.644,2.226,1.582-.9,1.582-2.226,1.582S84.154-5.432,84.154-6.37Zm5.166,0c0-1.344-1.162-2.17-2.926-2.17s-2.94.826-2.94,2.17,1.162,2.17,2.94,2.17S89.32-5.026,89.32-6.37ZM88.41.336c-1.988,0-3.248-.56-3.248-1.512s1.26-1.5,3.248-1.5,3.234.56,3.234,1.5S90.384.336,88.41.336Zm0-3.612c-2.478,0-3.976.77-3.976,2.1S85.932.938,88.41.938s3.962-.77,3.962-2.114S90.874-3.276,88.41-3.276Zm5.768-5.18v-.63H92.246v-2.366H91.5v8.078h.742v-2.45h1.932v-.644H92.246V-8.456Zm11.564-1.736h-3.234v-1.372h-.742v1.372H98.518V-9.6h7.224ZM100-7.182c0-.77.854-1.288,2.128-1.288s2.128.518,2.128,1.288-.854,1.274-2.128,1.274S100-6.412,100-7.182Zm6.146,2.492a34.1,34.1,0,0,1-3.64.35V-5.376c1.484-.1,2.436-.742,2.436-1.806,0-1.134-1.12-1.834-2.814-1.834s-2.828.7-2.828,1.834c0,1.064.952,1.708,2.464,1.806v1.064c-1.274.042-2.506.042-3.542.042l.112.63a45.386,45.386,0,0,0,7.868-.49ZM99.722-1.876H107V.98h.742V-2.492H99.722Zm10-5.7h-1.974v-3.864H107v8.246h.742V-6.93h1.974Zm11.326-3.864H120.3v9.17h.742ZM112-7.546a2.339,2.339,0,0,1,2.436-2.338,2.339,2.339,0,0,1,2.436,2.338,2.354,2.354,0,0,1-2.436,2.366A2.354,2.354,0,0,1,112-7.546Zm5.586,0a2.962,2.962,0,0,0-3.15-3,2.962,2.962,0,0,0-3.15,3,2.976,2.976,0,0,0,3.15,3.024A2.976,2.976,0,0,0,117.586-7.546ZM113.974.042V-3.234h-.742V.672h8.232V.042ZM130.48-9.492h2.926v-.644H126.77v.644h2.982v2.086a6.823,6.823,0,0,1-3.4,5.348l.462.616a7.68,7.68,0,0,0,3.3-4.34A7.233,7.233,0,0,0,133.35-1.75l.434-.6a6.324,6.324,0,0,1-3.3-5.054Zm7.672,3.22h-2.184v-5.18h-.742V.98h.742V-5.642h2.184Zm5.11,2.352h3.262v2.632h-3.262Zm3.99,2.632V-3.92H149.3v-.63h-7.9V-6.93H149v-3.528H140.63v.616h7.644v2.3h-7.6V-3.92h1.862v2.632h-3.346v.644h11.3v-.644Zm8.484-2.87c1.652-.378,3.934-1.68,4.69-3.528.77,1.834,3.066,3.122,4.732,3.5l.322-.6C163.7-5.1,160.8-6.818,160.8-8.96v-.616h4.326v-.63h-9.408v.63h4.326v.616c0,2.142-2.884,3.892-4.648,4.214ZM160.8-1.344V-4.522h-.742v3.178H154.8v.63h11.27v-.63Zm10.57-8.974h-.714v2.492a6.88,6.88,0,0,1-3.318,5.488l.462.6a7.63,7.63,0,0,0,3.234-4.382A7.221,7.221,0,0,0,174.258-2l.462-.574a6.606,6.606,0,0,1-3.346-5.25ZM179.1-6.272h-2.184v-5.194h-.742V.98h.742V-5.642H179.1Z" transform="translate(115.302 188.6)"/>
  <text id="_2" data-name="•" class="cls-6" transform="translate(111.073 210.594)"><tspan x="0" y="0">•</tspan></text>
  <g id="그룹_27" data-name="그룹 27" transform="translate(-13454.44 -1555.72)">
    <text id="_3" data-name=" " class="cls-8" transform="translate(13773.302 1766.314)"><tspan x="0" y="0"> </tspan></text>
    <path id="패스_23825" data-name="패스 23825" class="cls-7" d="M8.2-9.8H4.9v-1.638H4.158V-9.8H.84v.616H8.2ZM2.282-6.076c0-.994.91-1.68,2.24-1.68s2.226.686,2.226,1.68c0,.966-.9,1.666-2.226,1.666S2.282-5.11,2.282-6.076Zm5.166,0c0-1.386-1.162-2.282-2.926-2.282s-2.94.9-2.94,2.282,1.176,2.268,2.94,2.268S7.448-4.7,7.448-6.076ZM3.528-2.87H2.786V.672h8.2V.042H3.528Zm6.846-4.312v-4.256H9.632V-2.1h.742V-6.552H12.32v-.63Z" transform="translate(13760.422 1766.314)"/>
    <path id="패스_23824" data-name="패스 23824" class="cls-7" d="M4.872-10.192c1.4,0,2.408.8,2.408,1.862S6.272-6.454,4.872-6.454s-2.38-.8-2.38-1.876S3.486-10.192,4.872-10.192Zm0,4.368c1.834,0,3.122-1.008,3.122-2.506s-1.288-2.492-3.122-2.492S1.778-9.814,1.778-8.33,3.052-5.824,4.872-5.824Zm4.256.77a59.4,59.4,0,0,1-8.4.462l.126.658c1.106,0,2.38-.014,3.724-.07V.588H5.32V-4.046a36.206,36.206,0,0,0,3.864-.42Zm.98-6.384V.994h.742V-11.438Z" transform="translate(13747.752 1766.314)"/>
    <text id="_4" data-name=" " class="cls-8" transform="translate(13744.042 1766.314)"><tspan x="0" y="0"> </tspan></text>
    <path id="패스_23823" data-name="패스 23823" class="cls-7" d="M6.412-10.64c2.17,0,3.542.6,3.542,1.582s-1.372,1.6-3.542,1.6-3.542-.6-3.542-1.6S4.242-10.64,6.412-10.64Zm0,3.766c2.7,0,4.3-.77,4.3-2.184s-1.6-2.17-4.3-2.17-4.3.77-4.3,2.17S3.71-6.874,6.412-6.874ZM2.954-1.414h7.588V-3.976H2.2v.6H9.814v1.386H2.226V.8h8.722V.182H2.954ZM.784-5.894v.63H12.026v-.63Z" transform="translate(13731.372 1766.314)"/>
    <path id="패스_23822" data-name="패스 23822" class="cls-7" d="M1.792-6.356c1.82-.28,3.962-1.19,4.634-2.66.658,1.47,2.8,2.38,4.62,2.66l.28-.6C9.394-7.21,6.86-8.33,6.86-10.01v-.154h4.158v-.616H1.834v.616H5.992v.154c0,1.68-2.548,2.8-4.48,3.052ZM6.426.336c-2.142,0-3.5-.6-3.5-1.61s1.358-1.61,3.5-1.61c2.114,0,3.472.6,3.472,1.61S8.54.336,6.426.336Zm0-3.836c-2.646,0-4.242.8-4.242,2.226S3.78.938,6.426.938,10.64.154,10.64-1.274,9.058-3.5,6.426-3.5ZM.784-5.432v.63H12.026v-.63Z" transform="translate(13718.702 1766.314)"/>
    <path id="패스_23821" data-name="패스 23821" class="cls-7" d="M1.582-10.612v.63H6.356C6.174-7.588,4.074-5.8.98-4.914L1.3-4.3C4.83-5.32,7.154-7.56,7.154-10.612Zm2.142,7.49h6.468V.154H3.724ZM3.01.77h7.91V-3.724H3.01Zm7.168-12.222v3.36H7.14v.63h3.038V-4.27h.742v-7.182Z" transform="translate(13706.032 1766.314)"/>
    <text id="_5" data-name=" " class="cls-8" transform="translate(13702.322 1766.314)"><tspan x="0" y="0"> </tspan></text>
    <path id="패스_23820" data-name="패스 23820" class="cls-7" d="M8.2-9.926H4.9v-1.652H4.158v1.652H.84v.616H8.2ZM2.282-6.37c0-.938.91-1.582,2.24-1.582s2.226.644,2.226,1.582-.9,1.582-2.226,1.582S2.282-5.432,2.282-6.37Zm5.166,0c0-1.344-1.162-2.17-2.926-2.17s-2.94.826-2.94,2.17S2.744-4.2,4.522-4.2,7.448-5.026,7.448-6.37ZM6.538.336C4.55.336,3.29-.224,3.29-1.176s1.26-1.5,3.248-1.5,3.234.56,3.234,1.5S8.512.336,6.538.336Zm0-3.612c-2.478,0-3.976.77-3.976,2.1S4.06.938,6.538.938,10.5.168,10.5-1.176,9-3.276,6.538-3.276Zm5.768-5.18v-.63H10.374v-2.366H9.632v8.078h.742v-2.45h1.932v-.644H10.374V-8.456Z" transform="translate(13689.651 1766.314)"/>
    <path id="패스_23819" data-name="패스 23819" class="cls-7" d="M1.722-7.8a2.3,2.3,0,0,1,2.436-2.254A2.3,2.3,0,0,1,6.594-7.8,2.293,2.293,0,0,1,4.158-5.53,2.293,2.293,0,0,1,1.722-7.8Zm8.456-1.148v2.31H7.084A3.123,3.123,0,0,0,7.308-7.8a3.105,3.105,0,0,0-.224-1.148Zm0,2.94V-4.06h.742v-7.406h-.742v1.9H6.706a3.192,3.192,0,0,0-2.548-1.12A2.916,2.916,0,0,0,1.008-7.8a2.932,2.932,0,0,0,3.15,2.926A3.2,3.2,0,0,0,6.706-6.006ZM6.888.336C4.872.336,3.556-.336,3.556-1.4S4.872-3.136,6.888-3.136c2.044,0,3.36.686,3.36,1.736S8.932.336,6.888.336Zm0-4.074c-2.52,0-4.06.854-4.06,2.338S4.368.938,6.888.938,10.976.084,10.976-1.4,9.422-3.738,6.888-3.738Z" transform="translate(13676.981 1766.314)"/>
    <text id="_6" data-name=" " class="cls-8" transform="translate(13673.271 1766.314)"><tspan x="0" y="0"> </tspan></text>
    <path id="패스_23818" data-name="패스 23818" class="cls-7" d="M10.892-11.466H10.15v7.2h.742ZM6.4-6.258H2.184V-10.01H6.4Zm.714-4.368H1.456v4.984H7.112ZM7.49-2.7h3.766v-.6H7.49V-4.648H6.734V-3.3H3v.6H6.734v.126C6.734-1.162,4.3.084,2.492.336l.266.588C4.452.63,6.412-.294,7.112-1.568,7.8-.308,9.688.63,11.4.924l.266-.588C9.842.056,7.49-1.176,7.49-2.576Z" transform="translate(13660.602 1766.314)"/>
    <text id="_7" data-name=" " class="cls-8" transform="translate(13656.892 1766.314)"><tspan x="0" y="0"> </tspan></text>
    <path id="패스_23817" data-name="패스 23817" class="cls-7" d="M7.952-10.038H4.746v-1.554H4v1.554H.8v.616H7.952Zm-5.7,3.612c0-.938.882-1.61,2.114-1.61s2.114.672,2.114,1.61S5.6-4.816,4.368-4.816,2.254-5.5,2.254-6.426Zm4.928,0c0-1.33-1.162-2.2-2.814-2.2s-2.814.868-2.814,2.2,1.176,2.2,2.814,2.2S7.182-5.1,7.182-6.426ZM3.71-2.562h6.5V.154H3.71ZM2.982.784H10.92V-3.178H2.982Zm7.2-12.25V-7.6H7.8v.63h2.38V-3.92h.742v-7.546Z" transform="translate(13644.222 1766.314)"/>
    <path id="패스_23816" data-name="패스 23816" class="cls-7" d="M4.872-10.192c1.4,0,2.408.8,2.408,1.862S6.272-6.454,4.872-6.454s-2.38-.8-2.38-1.876S3.486-10.192,4.872-10.192Zm0,4.368c1.834,0,3.122-1.008,3.122-2.506s-1.288-2.492-3.122-2.492S1.778-9.814,1.778-8.33,3.052-5.824,4.872-5.824Zm4.256.77a59.4,59.4,0,0,1-8.4.462l.126.658c1.106,0,2.38-.014,3.724-.07V.588H5.32V-4.046a36.206,36.206,0,0,0,3.864-.42Zm.98-6.384V.994h.742V-11.438Z" transform="translate(13631.552 1766.314)"/>
    <text id="_8" data-name=" " class="cls-8" transform="translate(13627.842 1766.314)"><tspan x="0" y="0"> </tspan></text>
    <path id="패스_23815" data-name="패스 23815" class="cls-7" d="M7.182-4.62V-4h2.884v1.96h.742v-9.408h-.742V-4.62ZM4.368-2.87H5.1v-3a37.293,37.293,0,0,0,3.766-.392l-.056-.574c-.49.07-1.022.14-1.54.2a18.944,18.944,0,0,0,.28-3.486v-.5H1.82V-10h5a17.319,17.319,0,0,1-.308,3.4c-2.044.168-4.144.182-5.81.182l.112.658c1.05,0,2.282-.014,3.556-.07ZM3.36.042V-3.122H2.618V.672H11.13V.042Z" transform="translate(13615.172 1766.314)"/>
    <path id="패스_23814" data-name="패스 23814" class="cls-7" d="M10.906-11.438h-.742v9.17h.742ZM1.862-7.546A2.339,2.339,0,0,1,4.3-9.884,2.339,2.339,0,0,1,6.734-7.546,2.354,2.354,0,0,1,4.3-5.18,2.354,2.354,0,0,1,1.862-7.546Zm5.586,0a2.962,2.962,0,0,0-3.15-3,2.962,2.962,0,0,0-3.15,3A2.976,2.976,0,0,0,4.3-4.522,2.976,2.976,0,0,0,7.448-7.546ZM3.836.042V-3.234H3.094V.672h8.232V.042Z" transform="translate(13602.502 1766.314)"/>
    <text id="_9" data-name=" " class="cls-8" transform="translate(13598.792 1766.314)"><tspan x="0" y="0"> </tspan></text>
    <path id="패스_23813" data-name="패스 23813" class="cls-7" d="M4.466-4.62A6.855,6.855,0,0,0,6.4-4.354,7.088,7.088,0,0,0,8.372-4.62v3.29H4.466ZM2.66-7.448c0-1.484,1.6-2.506,3.738-2.506S10.15-8.932,10.15-7.448,8.554-4.956,6.4-4.956,2.66-5.978,2.66-7.448ZM9.114-1.33V-4.914A2.831,2.831,0,0,0,10.85-7.448c0-1.9-1.848-3.108-4.452-3.108S1.96-9.352,1.96-7.448A2.826,2.826,0,0,0,3.724-4.9v3.57H.784V-.7H12.068v-.63Z" transform="translate(13586.122 1766.314)"/>
    <path id="패스_23812" data-name="패스 23812" class="cls-7" d="M1.82-5.488c1.722-.35,3.864-1.456,4.592-3.066.714,1.61,2.856,2.716,4.578,3.066l.294-.616C9.436-6.412,6.8-7.84,6.8-9.7v-.28H10.92v-.63H1.876v.63h4.13v.28c0,1.862-2.632,3.29-4.48,3.6ZM12.04-4.242H.784v.616H6.02V.952h.742V-3.626h5.264Z" transform="translate(13573.452 1766.314)"/>
    <text id="_10" data-name="" class="cls-8" transform="translate(13573.452 1766.314)"><tspan x="0" y="0"></tspan></text>
    <text id="_11" data-name=" " class="cls-8" transform="translate(13569.742 1766.314)"><tspan x="0" y="0"> </tspan></text>
  </g>
  <text id="_12" data-name="" class="cls-8" transform="translate(322.361 210.594)"><tspan x="0" y="0"></tspan></text>
  <path id="패스_23826" data-name="패스 23826" class="cls-7" d="M10.136-11.452V.98h.742V-11.452ZM4.41-10.444c-1.82,0-3.094,1.68-3.094,4.27S2.59-1.9,4.41-1.9,7.49-3.57,7.49-6.174,6.216-10.444,4.41-10.444Zm0,.658C5.8-9.786,6.776-8.3,6.776-6.174S5.8-2.548,4.41-2.548s-2.38-1.5-2.38-3.626S3.01-9.786,4.41-9.786ZM16.59-2.66a2,2,0,0,1-1.96-2.128,2.008,2.008,0,0,1,1.96-2.128,2.01,2.01,0,0,1,1.974,2.128A2,2,0,0,1,16.59-2.66Zm0-4.886a2.6,2.6,0,0,0-2.632,2.758A2.605,2.605,0,0,0,16.59-2.016a2.6,2.6,0,0,0,2.646-2.772A2.6,2.6,0,0,0,16.59-7.546Zm.378-3.528h-.742v1.9H13.454v.63h6.3v-.63H16.968Zm6.216-.378V-6.1H21.21v-5.04h-.728V.322h.728v-5.8h1.974V.98h.728V-11.452Zm9.422,5.278a16.916,16.916,0,0,0,.35-3.7v-.574H26.908v.616h5.32a15.387,15.387,0,0,1-.364,3.584Zm1.414.882a42.373,42.373,0,0,1-4.3.35V-7.756H28.98v2.842c-1.022.028-1.988.028-2.842.028l.1.658a54.006,54.006,0,0,0,7.84-.49ZM28.84-2.94H28.1V.672h7.994V.042H28.84Zm6.846-4.326v-4.186h-.742v9.394h.742V-6.622h1.96v-.644ZM46.158-7.91H43.946a10.83,10.83,0,0,0,.182-1.9H39.382v.63H43.4A8.656,8.656,0,0,1,38.934-2.31l.462.546A9.431,9.431,0,0,0,43.778-7.28h2.38v2.506H43.582v.63h2.576V.294h.714V-11.1h-.714Zm2.464-3.542V.98h.714V-11.452ZM55.5-9.492h2.926v-.644H51.786v.644h2.982v2.086a6.823,6.823,0,0,1-3.4,5.348l.462.616a7.68,7.68,0,0,0,3.3-4.34A7.233,7.233,0,0,0,58.366-1.75l.434-.6a6.324,6.324,0,0,1-3.3-5.054Zm7.672,3.22H60.984v-5.18h-.742V.98h.742V-5.642h2.184ZM74.3-5.25c-1.708-.546-3.15-1.96-3.15-3.612V-9.24h2.926v-.616H71.162v-1.68H70.42v1.68H67.466v.616H70.42v.378a4.431,4.431,0,0,1-3.248,3.878l.378.588A5.281,5.281,0,0,0,70.8-7.448a5.16,5.16,0,0,0,3.136,2.8ZM69.762-2.828H75.95V.154H69.762ZM69.034.784h7.658V-3.43H69.034Zm9.6-8.946H76.692v-3.29H75.95V-4.06h.742V-7.532h1.946Zm7.266,3.6a7.167,7.167,0,0,0,.182-1.61,7.279,7.279,0,0,0-.21-1.736h3.3v3.346ZM83.062-2.548c-1.372,0-2.324-1.512-2.324-3.626s.952-3.612,2.324-3.612S85.386-8.3,85.386-6.174,84.434-2.548,83.062-2.548Zm6.118-8.9V-8.54H85.652a2.8,2.8,0,0,0-2.59-1.9c-1.778,0-3.024,1.68-3.024,4.27S81.284-1.9,83.062-1.9a2.858,2.858,0,0,0,2.646-2.03H89.18V.98h.742V-11.452Z" transform="translate(119.012 232.588)"/>
  <text id="_13" data-name="•" class="cls-6" transform="translate(111.073 254.582)"><tspan x="0" y="0">•</tspan></text>
  <path id="패스_23827" data-name="패스 23827" class="cls-7" d="M13.818-11.438h-.742v9.17h.742ZM4.774-7.546A2.339,2.339,0,0,1,7.21-9.884,2.339,2.339,0,0,1,9.646-7.546,2.354,2.354,0,0,1,7.21-5.18,2.354,2.354,0,0,1,4.774-7.546Zm5.586,0a2.962,2.962,0,0,0-3.15-3,2.962,2.962,0,0,0-3.15,3A2.976,2.976,0,0,0,7.21-4.522,2.976,2.976,0,0,0,10.36-7.546ZM6.748.042V-3.234H6.006V.672h8.232V.042ZM22.764-4.62V-4h2.884v1.96h.742v-9.408h-.742V-4.62ZM19.95-2.87h.728v-3a37.293,37.293,0,0,0,3.766-.392l-.056-.574c-.49.07-1.022.14-1.54.2a18.945,18.945,0,0,0,.28-3.486v-.5H17.4V-10h5a17.319,17.319,0,0,1-.308,3.4c-2.044.168-4.144.182-5.81.182l.112.658c1.05,0,2.282-.014,3.556-.07ZM18.942.042V-3.122H18.2V.672h8.512V.042ZM36.036-10.192c1.4,0,2.408.8,2.408,1.862s-1.008,1.876-2.408,1.876-2.38-.8-2.38-1.876S34.65-10.192,36.036-10.192Zm0,4.368c1.834,0,3.122-1.008,3.122-2.506s-1.288-2.492-3.122-2.492S32.942-9.814,32.942-8.33,34.216-5.824,36.036-5.824Zm4.256.77a59.4,59.4,0,0,1-8.4.462l.126.658c1.106,0,2.38-.014,3.724-.07V.588h.742V-4.046a36.207,36.207,0,0,0,3.864-.42Zm.98-6.384V.994h.742V-11.438Zm10.528,1.4H48.594v-1.554h-.742v1.554H44.646v.616H51.8ZM46.1-6.426c0-.938.882-1.61,2.114-1.61s2.114.672,2.114,1.61-.882,1.61-2.114,1.61S46.1-5.5,46.1-6.426Zm4.928,0c0-1.33-1.162-2.2-2.814-2.2s-2.814.868-2.814,2.2,1.176,2.2,2.814,2.2S51.03-5.1,51.03-6.426ZM47.558-2.562h6.5V.154h-6.5ZM46.83.784h7.938V-3.178H46.83Zm7.2-12.25V-7.6h-2.38v.63h2.38V-3.92h.742v-7.546Zm9.7,6.944a31.108,31.108,0,0,0,.378-5.04v-.462H57.89v.616h5.488a29.438,29.438,0,0,1-.392,4.816Zm-2.94-1.946H60.06v3.906c-1.022.028-2,.028-2.884.028l.126.658a58.336,58.336,0,0,0,7.854-.462L65.1-2.9a42.5,42.5,0,0,1-4.312.308Zm8.106.322H66.71v-5.32h-.742V.98h.742V-5.474h2.184ZM73.85-7.8a2.3,2.3,0,0,1,2.436-2.254A2.3,2.3,0,0,1,78.722-7.8,2.293,2.293,0,0,1,76.286-5.53,2.293,2.293,0,0,1,73.85-7.8Zm8.456-1.148v2.31H79.212A3.123,3.123,0,0,0,79.436-7.8a3.105,3.105,0,0,0-.224-1.148Zm0,2.94V-4.06h.742v-7.406h-.742v1.9H78.834a3.192,3.192,0,0,0-2.548-1.12A2.916,2.916,0,0,0,73.136-7.8a2.932,2.932,0,0,0,3.15,2.926,3.2,3.2,0,0,0,2.548-1.134ZM79.016.336C77,.336,75.684-.336,75.684-1.4S77-3.136,79.016-3.136c2.044,0,3.36.686,3.36,1.736S81.06.336,79.016.336Zm0-4.074c-2.52,0-4.06.854-4.06,2.338S76.5.938,79.016.938,83.1.084,83.1-1.4,81.55-3.738,79.016-3.738ZM93-9.926H89.7v-1.652h-.742v1.652H85.638v.616H93ZM87.08-6.37c0-.938.91-1.582,2.24-1.582s2.226.644,2.226,1.582-.9,1.582-2.226,1.582S87.08-5.432,87.08-6.37Zm5.166,0c0-1.344-1.162-2.17-2.926-2.17s-2.94.826-2.94,2.17S87.542-4.2,89.32-4.2,92.246-5.026,92.246-6.37ZM91.336.336c-1.988,0-3.248-.56-3.248-1.512s1.26-1.5,3.248-1.5,3.234.56,3.234,1.5S93.31.336,91.336.336Zm0-3.612c-2.478,0-3.976.77-3.976,2.1S88.858.938,91.336.938,95.3.168,95.3-1.176,93.8-3.276,91.336-3.276ZM97.1-8.456v-.63H95.172v-2.366H94.43v8.078h.742v-2.45H97.1v-.644H95.172V-8.456Zm7.98-1.862h-.714v2.492a6.88,6.88,0,0,1-3.318,5.488l.462.6a7.631,7.631,0,0,0,3.234-4.382A7.221,7.221,0,0,0,107.968-2l.462-.574a6.606,6.606,0,0,1-3.346-5.25Zm7.728,4.046h-2.184v-5.194h-.742V.98h.742V-5.642h2.184ZM120.428-7.9v.63h2.814V-2.3h.742v-9.156h-.742V-7.9Zm.658,2.954A4.526,4.526,0,0,1,117.95-8.82v-.9h2.912v-.63h-6.608v.63h2.968v.91a4.819,4.819,0,0,1-3.248,4.186l.392.6A5.625,5.625,0,0,0,117.6-7.392a5.424,5.424,0,0,0,3.108,3.052ZM116.956.042V-3.136h-.742V.672h8.148V.042Zm21.868-3.78h.742v-7.714h-.742V-9.1h-2.408v.63h2.408v1.526h-2.408v.63h2.408ZM131.95-9.814h2.31v4.382c-.784.056-1.554.07-2.31.084Zm4.956,4.172c-.616.084-1.26.14-1.918.168v-4.34h1.4v-.63H129.85v.63h1.372v4.48c-.616.014-1.2.014-1.736.014l.112.658a49.043,49.043,0,0,0,7.35-.42ZM135.534.336c-2.03,0-3.318-.6-3.318-1.6s1.288-1.582,3.318-1.582,3.36.6,3.36,1.582S137.578.336,135.534.336Zm0-3.78c-2.534,0-4.06.784-4.06,2.184s1.526,2.2,4.06,2.2,4.088-.784,4.088-2.2S138.082-3.444,135.534-3.444Zm7.294-6.636v.63H147.7c-.2,3.024-2.03,5.684-5.39,7.35l.42.588c3.948-1.974,5.7-5.18,5.7-8.568Zm10.906,3.836h-2.156v-5.208h-.742V.98h.742V-5.6h2.156Z" transform="translate(115.302 254.582)"/>
  <text id="_14" data-name="•" class="cls-6" transform="translate(111.073 276.576)"><tspan x="0" y="0">•</tspan></text>
  <path id="패스_23828" data-name="패스 23828" class="cls-7" d="M4.732-5.488C6.454-5.838,8.6-6.944,9.324-8.554c.714,1.61,2.856,2.716,4.578,3.066L14.2-6.1c-1.848-.308-4.48-1.736-4.48-3.6v-.28h4.116v-.63H4.788v.63h4.13v.28c0,1.862-2.632,3.29-4.48,3.6Zm10.22,1.246H3.7v.616H8.932V.952h.742V-3.626h5.264Zm5.1-.378a6.855,6.855,0,0,0,1.932.266,7.088,7.088,0,0,0,1.974-.266v3.29H20.048ZM18.242-7.448c0-1.484,1.6-2.506,3.738-2.506s3.752,1.022,3.752,2.506-1.6,2.492-3.752,2.492S18.242-5.978,18.242-7.448ZM24.7-1.33V-4.914a2.831,2.831,0,0,0,1.736-2.534c0-1.9-1.848-3.108-4.452-3.108s-4.438,1.2-4.438,3.108A2.826,2.826,0,0,0,19.306-4.9v3.57h-2.94V-.7H27.65v-.63Zm11.172-8.988h-.714v2.492a6.88,6.88,0,0,1-3.318,5.488l.462.6a7.63,7.63,0,0,0,3.234-4.382A7.221,7.221,0,0,0,38.752-2l.462-.574a6.606,6.606,0,0,1-3.346-5.25ZM43.6-6.272H41.412v-5.194H40.67V.98h.742V-5.642H43.6ZM54.026.168H47.74V-1.708h6.286Zm0-2.492H47.74V-4.13H47V.784h7.77V-4.13h-.742Zm-6.02-3.5a2.264,2.264,0,0,1-2.436-2.2,2.248,2.248,0,0,1,2.436-2.2,2.248,2.248,0,0,1,2.436,2.2A2.264,2.264,0,0,1,48.006-5.824Zm6.02-5.628v3.08H51.142a2.9,2.9,0,0,0-3.136-2.478,2.859,2.859,0,0,0-3.15,2.828,2.867,2.867,0,0,0,3.15,2.828,2.889,2.889,0,0,0,3.136-2.534h2.884v2.94h.742v-6.664Zm10.388,6.23a4.325,4.325,0,0,1-3.108-3.794v-.84h2.94v-.616H57.624v.616h2.954V-9a4.628,4.628,0,0,1-3.22,4.116l.392.588a5.432,5.432,0,0,0,3.22-3.248,5.078,5.078,0,0,0,3.08,2.912ZM62.986.336C61,.336,59.71-.28,59.71-1.274S61-2.884,62.986-2.884s3.29.616,3.29,1.61S64.988.336,62.986.336Zm0-3.822c-2.492,0-4,.8-4,2.212s1.512,2.212,4,2.212S67,.14,67-1.274,65.478-3.486,62.986-3.486Zm3.92-4.634v-3.332h-.742v7.56h.742V-7.476h1.946V-8.12ZM83.02-11.466h-.742v6.524h.742ZM80.374-5.992a4.72,4.72,0,0,1-3.29-4.116v-.952h-.728v.952a4.937,4.937,0,0,1-3.262,4.354l.392.6a5.681,5.681,0,0,0,3.248-3.416A5.551,5.551,0,0,0,80-5.4ZM75.908.182V-1.5h7.126V-4.256h-7.9v.616h7.168v1.554H75.18V.8h8.344V.182ZM89.5-10.318h-.714v2.492A6.88,6.88,0,0,1,85.47-2.338l.462.6a7.631,7.631,0,0,0,3.234-4.382A7.221,7.221,0,0,0,92.386-2l.462-.574A6.606,6.606,0,0,1,89.5-7.826ZM97.23-6.272H95.046v-5.194H94.3V.98h.742V-5.642H97.23Zm13.328,2.534h.742v-7.714h-.742V-9.1H108.15v.63h2.408v1.526H108.15v.63h2.408Zm-6.874-6.076h2.31v4.382c-.784.056-1.554.07-2.31.084Zm4.956,4.172c-.616.084-1.26.14-1.918.168v-4.34h1.4v-.63h-6.538v.63h1.372v4.48c-.616.014-1.2.014-1.736.014l.112.658a49.043,49.043,0,0,0,7.35-.42ZM107.268.336c-2.03,0-3.318-.6-3.318-1.6s1.288-1.582,3.318-1.582,3.36.6,3.36,1.582S109.312.336,107.268.336Zm0-3.78c-2.534,0-4.06.784-4.06,2.184s1.526,2.2,4.06,2.2,4.088-.784,4.088-2.2S109.816-3.444,107.268-3.444Zm7.294-6.636v.63h4.872c-.2,3.024-2.03,5.684-5.39,7.35l.42.588c3.948-1.974,5.7-5.18,5.7-8.568Zm10.906,3.836h-2.156v-5.208h-.742V.98h.742V-5.6h2.156Z" transform="translate(115.302 276.576)"/>
  <text id="_15" data-name="•" class="cls-6" transform="translate(456.93 188.292)"><tspan x="0" y="0">•</tspan></text>
  <path id="패스_23837" data-name="패스 23837" class="cls-7" d="M13.8-11.438h-.742v9.17H13.8ZM4.76-7.546A2.339,2.339,0,0,1,7.2-9.884,2.339,2.339,0,0,1,9.632-7.546,2.354,2.354,0,0,1,7.2-5.18,2.354,2.354,0,0,1,4.76-7.546Zm5.586,0a2.962,2.962,0,0,0-3.15-3,2.962,2.962,0,0,0-3.15,3A2.976,2.976,0,0,0,7.2-4.522,2.976,2.976,0,0,0,10.346-7.546ZM6.734.042V-3.234H5.992V.672h8.232V.042ZM22.764-4.62V-4h2.884v1.96h.742v-9.408h-.742V-4.62ZM19.95-2.87h.728v-3a37.293,37.293,0,0,0,3.766-.392l-.056-.574c-.49.07-1.022.14-1.54.2a18.945,18.945,0,0,0,.28-3.486v-.5H17.4V-10h5a17.319,17.319,0,0,1-.308,3.4c-2.044.168-4.144.182-5.81.182l.112.658c1.05,0,2.282-.014,3.556-.07ZM18.942.042V-3.122H18.2V.672h8.512V.042ZM32.872-7.8a2.3,2.3,0,0,1,2.436-2.254A2.3,2.3,0,0,1,37.744-7.8,2.293,2.293,0,0,1,35.308-5.53,2.293,2.293,0,0,1,32.872-7.8Zm8.456-1.148v2.31H38.234A3.123,3.123,0,0,0,38.458-7.8a3.105,3.105,0,0,0-.224-1.148Zm0,2.94V-4.06h.742v-7.406h-.742v1.9H37.856a3.192,3.192,0,0,0-2.548-1.12A2.916,2.916,0,0,0,32.158-7.8a2.932,2.932,0,0,0,3.15,2.926,3.2,3.2,0,0,0,2.548-1.134ZM38.038.336c-2.016,0-3.332-.672-3.332-1.736s1.316-1.736,3.332-1.736c2.044,0,3.36.686,3.36,1.736S40.082.336,38.038.336Zm0-4.074c-2.52,0-4.06.854-4.06,2.338S35.518.938,38.038.938,42.126.084,42.126-1.4,40.572-3.738,38.038-3.738Zm14-6.188h-3.3v-1.652h-.742v1.652H44.674v.616h7.364ZM46.116-6.37c0-.938.91-1.582,2.24-1.582s2.226.644,2.226,1.582-.9,1.582-2.226,1.582S46.116-5.432,46.116-6.37Zm5.166,0c0-1.344-1.162-2.17-2.926-2.17s-2.94.826-2.94,2.17,1.162,2.17,2.94,2.17S51.282-5.026,51.282-6.37ZM50.372.336c-1.988,0-3.248-.56-3.248-1.512s1.26-1.5,3.248-1.5,3.234.56,3.234,1.5S52.346.336,50.372.336Zm0-3.612c-2.478,0-3.976.77-3.976,2.1S47.894.938,50.372.938s3.962-.77,3.962-2.114S52.836-3.276,50.372-3.276Zm5.768-5.18v-.63H54.208v-2.366h-.742v8.078h.742v-2.45H56.14v-.644H54.208V-8.456ZM66.7-3.738h.742v-7.714H66.7V-9.1H64.288v.63H66.7v1.526H64.288v.63H66.7ZM59.822-9.814h2.31v4.382c-.784.056-1.554.07-2.31.084Zm4.956,4.172c-.616.084-1.26.14-1.918.168v-4.34h1.4v-.63H57.722v.63h1.372v4.48c-.616.014-1.2.014-1.736.014l.112.658a49.043,49.043,0,0,0,7.35-.42ZM63.406.336c-2.03,0-3.318-.6-3.318-1.6s1.288-1.582,3.318-1.582,3.36.6,3.36,1.582S65.45.336,63.406.336Zm0-3.78c-2.534,0-4.06.784-4.06,2.184s1.526,2.2,4.06,2.2,4.088-.784,4.088-2.2S65.954-3.444,63.406-3.444Zm7.28-6.636v.63h4.872c-.2,3.024-2.03,5.684-5.39,7.35l.42.588c3.948-1.974,5.7-5.18,5.7-8.568ZM81.592-6.244H79.436v-5.208h-.742V.98h.742V-5.6h2.156Zm13.356-2.1V-6.37H91.364v.63h3.584v1.9h.742v-7.6h-.742v2.464H91.742a5.67,5.67,0,0,0,.2-1.484H86.38v.616h4.76c-.2,2.436-2.338,4.284-5.376,5.236l.336.616c2.6-.826,4.592-2.324,5.418-4.354ZM91.7.322c-2.03,0-3.346-.672-3.346-1.722S89.67-3.094,91.7-3.094c2,0,3.332.658,3.332,1.694S93.7.322,91.7.322Zm0-4.018c-2.52,0-4.074.854-4.074,2.3C87.626.07,89.18.924,91.7.924c2.492,0,4.046-.854,4.046-2.324C95.746-2.842,94.192-3.7,91.7-3.7Zm12.936-.826a31.109,31.109,0,0,0,.378-5.04v-.462H98.8v.616h5.488a29.438,29.438,0,0,1-.392,4.816ZM101.7-6.468h-.728v3.906c-1.022.028-2,.028-2.884.028l.126.658a58.336,58.336,0,0,0,7.854-.462l-.056-.56a42.5,42.5,0,0,1-4.312.308Zm8.106.322h-2.184v-5.32h-.742V.98h.742V-5.474H109.8Zm13.02-.658h-6.748v-1.89h6.748Zm.742-4.27h-.742V-9.31h-6.748v-1.764h-.742v4.9h8.232Zm-7.532,8.4H115.3V.672h8.526V.042h-7.8Zm-2.24-2.086v.616h5.32V-1.47h.742V-4.144h5.236V-4.76Zm19.852-.6a4.723,4.723,0,0,1-3.178-4.074V-10.85h-.714v1.386a4.892,4.892,0,0,1-3.192,4.41l.392.6A5.569,5.569,0,0,0,130.144-7.9a5.541,5.541,0,0,0,3.094,3.136Zm-5.236,2.6h7.462V.98h.742V-3.374h-8.2Zm7.462-8.708v2.772H132.9v.63h2.968v3.92h.742v-7.322Z" transform="translate(461.158 188.292)"/>
  <text id="_16" data-name="•" class="cls-6" transform="translate(456.93 210.286)"><tspan x="0" y="0">•</tspan></text>
  <path id="패스_23838" data-name="패스 23838" class="cls-7" d="M7.77-10.192c1.4,0,2.408.8,2.408,1.862S9.17-6.454,7.77-6.454s-2.38-.8-2.38-1.876S6.384-10.192,7.77-10.192Zm0,4.368c1.834,0,3.122-1.008,3.122-2.506S9.6-10.822,7.77-10.822,4.676-9.814,4.676-8.33,5.95-5.824,7.77-5.824Zm4.256.77a59.4,59.4,0,0,1-8.4.462l.126.658c1.106,0,2.38-.014,3.724-.07V.588h.742V-4.046a36.206,36.206,0,0,0,3.864-.42Zm.98-6.384V.994h.742V-11.438Zm10.528,1.4H20.328v-1.554h-.742v1.554H16.38v.616h7.154Zm-5.7,3.612c0-.938.882-1.61,2.114-1.61s2.114.672,2.114,1.61-.882,1.61-2.114,1.61S17.836-5.5,17.836-6.426Zm4.928,0c0-1.33-1.162-2.2-2.814-2.2s-2.814.868-2.814,2.2,1.176,2.2,2.814,2.2S22.764-5.1,22.764-6.426ZM19.292-2.562h6.5V.154h-6.5ZM18.564.784H26.5V-3.178H18.564Zm7.2-12.25V-7.6H23.38v.63h2.38V-3.92H26.5v-7.546Zm10.094,1.148H35.14v2.492a6.88,6.88,0,0,1-3.318,5.488l.462.6a7.63,7.63,0,0,0,3.234-4.382A7.221,7.221,0,0,0,38.738-2l.462-.574a6.606,6.606,0,0,1-3.346-5.25Zm7.728,4.046H41.4v-5.194h-.742V.98H41.4V-5.642h2.184ZM54.012.168H47.726V-1.708h6.286Zm0-2.492H47.726V-4.13h-.742V.784h7.77V-4.13h-.742Zm-6.02-3.5a2.264,2.264,0,0,1-2.436-2.2,2.248,2.248,0,0,1,2.436-2.2,2.248,2.248,0,0,1,2.436,2.2A2.264,2.264,0,0,1,47.992-5.824Zm6.02-5.628v3.08H51.128a2.9,2.9,0,0,0-3.136-2.478,2.859,2.859,0,0,0-3.15,2.828,2.867,2.867,0,0,0,3.15,2.828,2.889,2.889,0,0,0,3.136-2.534h2.884v2.94h.742v-6.664ZM64.4-5.222a4.325,4.325,0,0,1-3.108-3.794v-.84h2.94v-.616H57.61v.616h2.954V-9a4.628,4.628,0,0,1-3.22,4.116l.392.588a5.432,5.432,0,0,0,3.22-3.248,5.078,5.078,0,0,0,3.08,2.912ZM62.972.336C60.984.336,59.7-.28,59.7-1.274s1.288-1.61,3.276-1.61,3.29.616,3.29,1.61S64.974.336,62.972.336Zm0-3.822c-2.492,0-4,.8-4,2.212s1.512,2.212,4,2.212S66.99.14,66.99-1.274,65.464-3.486,62.972-3.486Zm3.92-4.634v-3.332H66.15v7.56h.742V-7.476h1.946V-8.12ZM74.116-2.9v-6.37h3.906v-.644H73.388v7.658h.77a20.2,20.2,0,0,0,4.718-.392l-.1-.644a18.485,18.485,0,0,1-4.634.392Zm8.526-8.554v5.11H80.5v-4.8h-.714V.294H80.5V-5.712h2.142V.966h.728V-11.452ZM92.666-5.39a4.687,4.687,0,0,1-3.178-4.046V-10.85h-.714v1.386A4.894,4.894,0,0,1,85.6-5.054l.392.6A5.585,5.585,0,0,0,89.166-7.9,5.429,5.429,0,0,0,92.26-4.8ZM91.224.336c-1.988,0-3.276-.6-3.276-1.568s1.288-1.582,3.276-1.582,3.29.6,3.29,1.582S93.226.336,91.224.336Zm0-3.752c-2.506,0-4,.784-4,2.184s1.5,2.17,4,2.17,4.018-.784,4.018-2.17S93.73-3.416,91.224-3.416Zm3.92-4.634v-3.416H94.4v7.672h.742V-7.406H97.09V-8.05Zm7.448-.378c0-1.05.966-1.82,2.338-1.82s2.338.77,2.338,1.82-.966,1.806-2.338,1.806S102.592-7.378,102.592-8.428ZM109.06-5a31.693,31.693,0,0,1-3.724.35V-6.034c1.6-.14,2.646-1.05,2.646-2.394,0-1.456-1.246-2.408-3.052-2.408s-3.038.952-3.038,2.408c0,1.358,1.092,2.282,2.7,2.394v1.428c-1.246.042-2.45.056-3.458.056l.126.644a46.366,46.366,0,0,0,7.84-.518ZM103.782-2.73h-.742V.658H111.1V.028h-7.322Zm6.86-4.326v-4.382H109.9v9.52h.742V-6.426h1.974v-.63ZM121.366-9.87h-3.374v-1.6h-.742v1.6h-3.374v.63h7.49Zm-5.908,3.78c0-.994.868-1.68,2.17-1.68s2.17.686,2.17,1.68-.882,1.68-2.17,1.68S115.458-5.11,115.458-6.09Zm2.534,2.254C119.5-3.962,120.5-4.8,120.5-6.09c0-1.4-1.162-2.282-2.87-2.282s-2.856.882-2.856,2.282c0,1.288.98,2.128,2.478,2.254v1.554c-1.288.056-2.52.056-3.584.056l.14.644a48.743,48.743,0,0,0,7.91-.49l-.056-.574c-1.162.182-2.422.266-3.668.336Zm7.392-2.2h-2.156v-5.418h-.742V.966h.742V-5.39h2.156Zm11.7-1.232h2v3.724h.714v-7.91h-.714V-7.9h-2v-3.318h-.714V-4h.714ZM135.8-9.842h-2.856v-1.526H132.2v1.526h-2.87v.616H135.8Zm-5.18,3.5c0-.882.8-1.5,1.946-1.5,1.176,0,1.96.616,1.96,1.512s-.784,1.512-1.96,1.512S130.62-5.432,130.62-6.342Zm4.592,0c0-1.274-1.064-2.086-2.646-2.086-1.554,0-2.618.812-2.618,2.1s1.064,2.1,2.618,2.1C134.148-4.228,135.212-5.04,135.212-6.342ZM135.8.35c-2.044,0-3.346-.574-3.346-1.512s1.3-1.512,3.346-1.512,3.346.56,3.346,1.512S137.858.35,135.8.35Zm0-3.612c-2.548,0-4.074.756-4.074,2.1s1.526,2.1,4.074,2.1,4.074-.756,4.074-2.1S138.362-3.262,135.8-3.262ZM147.686.35c-2.128,0-3.486-.6-3.486-1.61s1.358-1.61,3.486-1.61,3.486.6,3.486,1.61S149.814.35,147.686.35Zm0-3.822c-2.632,0-4.228.8-4.228,2.212s1.6,2.212,4.228,2.212,4.228-.784,4.228-2.212S150.318-3.472,147.686-3.472Zm.35-1.694V-6.832h3.934v-.63h-7.728v-2.786h7.63v-.63h-8.358v4.046h3.794v1.666h-5.236v.63h11.242v-.63ZM162.064-7.91h-2.212a10.83,10.83,0,0,0,.182-1.9h-4.746v.63h4.018A8.656,8.656,0,0,1,154.84-2.31l.462.546a9.431,9.431,0,0,0,4.382-5.516h2.38v2.506h-2.576v.63h2.576V.294h.714V-11.1h-.714Zm2.464-3.542V.98h.714V-11.452Zm10.654,1.26H171.92V-11.55h-.742v1.358h-3.262V-9.6h7.266Zm-5.8,3c0-.756.868-1.274,2.17-1.274s2.184.518,2.184,1.274-.868,1.288-2.184,1.288S169.386-6.426,169.386-7.2Zm6.2,2.478c-1.162.168-2.422.266-3.668.322v-.966c1.54-.1,2.52-.756,2.52-1.834,0-1.12-1.148-1.82-2.884-1.82s-2.87.7-2.87,1.82c0,1.078.98,1.736,2.492,1.834v.994c-1.33.056-2.6.056-3.682.056l.112.63a53.208,53.208,0,0,0,8.022-.476ZM169.3-1.932h7.434v2.9h.742V-2.548H169.3Zm7.434-9.492v8.232h.742v-8.232Zm16.842,4.886c-1.862-.308-4.564-1.764-4.564-3.668v-.77h-.77v.77c0,1.96-2.674,3.36-4.578,3.668l.322.616c1.75-.336,3.906-1.414,4.648-3.066.742,1.624,2.912,2.73,4.634,3.066Zm.672,2.226H182.994v.63h5.236V.966h.742V-3.682h5.264Zm9.016-1.722a35.674,35.674,0,0,1-5.978.42h-.224V-7.672h4.83v-3.15h-5.6v.63h4.872v1.918h-4.83v3.29h.952a36.676,36.676,0,0,0,6.062-.42ZM205.072.154h-6.44v-1.82h6.44Zm0-2.436h-6.44V-4H197.9V.784h7.9V-4h-.728Zm-.014-9.156V-4.69h.742v-6.748Z" transform="translate(461.158 210.286)"/>
  <text id="_17" data-name="•" class="cls-6" transform="translate(456.93 232.28)"><tspan x="0" y="0">•</tspan></text>
  <path id="패스_23839" data-name="패스 23839" class="cls-7" d="M4.718-5.488C6.44-5.838,8.582-6.944,9.31-8.554c.714,1.61,2.856,2.716,4.578,3.066l.294-.616C12.334-6.412,9.7-7.84,9.7-9.7v-.28h4.116v-.63H4.774v.63H8.9v.28c0,1.862-2.632,3.29-4.48,3.6Zm10.22,1.246H3.682v.616H8.918V.952H9.66V-3.626h5.264Zm5.11-.378a6.855,6.855,0,0,0,1.932.266,7.088,7.088,0,0,0,1.974-.266v3.29H20.048ZM18.242-7.448c0-1.484,1.6-2.506,3.738-2.506s3.752,1.022,3.752,2.506-1.6,2.492-3.752,2.492S18.242-5.978,18.242-7.448ZM24.7-1.33V-4.914a2.831,2.831,0,0,0,1.736-2.534c0-1.9-1.848-3.108-4.452-3.108s-4.438,1.2-4.438,3.108A2.826,2.826,0,0,0,19.306-4.9v3.57h-2.94V-.7H27.65v-.63ZM39-10.094H35.868v-1.5h-.742v1.5H31.948v.63H39ZM33.432-6.482c0-.952.84-1.624,2.058-1.624s2.044.672,2.044,1.624-.826,1.624-2.044,1.624S33.432-5.53,33.432-6.482Zm4.816,0c0-1.358-1.12-2.212-2.758-2.212s-2.758.854-2.758,2.212S33.852-4.27,35.49-4.27,38.248-5.124,38.248-6.482ZM41.342.168h-6.4v-1.61h6.4Zm0-2.212h-6.4V-3.556H34.2V.784H42.07v-4.34h-.728Zm-.014-9.408V-8.4H38.92v.63h2.408v1.778H38.906v.616h2.422v1.232h.742v-7.308ZM51.31-5.46a28.064,28.064,0,0,1-5.264.308h-.14V-7.42h4.536V-10.7H45.136v.63h4.578v2.044H45.178v3.5h.868a29.326,29.326,0,0,0,5.348-.308Zm-4.76,3h7.462V1.008h.742v-4.1h-8.2Zm7.462-8.988v1.918H51.324v.63h2.688v1.89H51.324v.63h2.688v2.562h.742v-7.63Zm7.21,1.134h-.714v2.492A6.88,6.88,0,0,1,57.19-2.338l.462.6a7.63,7.63,0,0,0,3.234-4.382A7.221,7.221,0,0,0,64.106-2l.462-.574a6.606,6.606,0,0,1-3.346-5.25ZM68.95-6.272H66.766v-5.194h-.742V.98h.742V-5.642H68.95ZM74.116-2.9v-6.37h3.906v-.644H73.388v7.658h.77a20.2,20.2,0,0,0,4.718-.392l-.1-.644a18.485,18.485,0,0,1-4.634.392Zm8.526-8.554v5.11H80.5v-4.8h-.714V.294H80.5V-5.712h2.142V.966h.728V-11.452ZM92.666-5.39a4.687,4.687,0,0,1-3.178-4.046V-10.85h-.714v1.386A4.894,4.894,0,0,1,85.6-5.054l.392.6A5.585,5.585,0,0,0,89.166-7.9,5.429,5.429,0,0,0,92.26-4.8ZM91.224.336c-1.988,0-3.276-.6-3.276-1.568s1.288-1.582,3.276-1.582,3.29.6,3.29,1.582S93.226.336,91.224.336Zm0-3.752c-2.506,0-4,.784-4,2.184s1.5,2.17,4,2.17,4.018-.784,4.018-2.17S93.73-3.416,91.224-3.416Zm3.92-4.634v-3.416H94.4v7.672h.742V-7.406H97.09V-8.05Zm7.448-.378c0-1.05.966-1.82,2.338-1.82s2.338.77,2.338,1.82-.966,1.806-2.338,1.806S102.592-7.378,102.592-8.428ZM109.06-5a31.693,31.693,0,0,1-3.724.35V-6.034c1.6-.14,2.646-1.05,2.646-2.394,0-1.456-1.246-2.408-3.052-2.408s-3.038.952-3.038,2.408c0,1.358,1.092,2.282,2.7,2.394v1.428c-1.246.042-2.45.056-3.458.056l.126.644a46.366,46.366,0,0,0,7.84-.518ZM103.782-2.73h-.742V.658H111.1V.028h-7.322Zm6.86-4.326v-4.382H109.9v9.52h.742V-6.426h1.974v-.63ZM121.366-9.87h-3.374v-1.6h-.742v1.6h-3.374v.63h7.49Zm-5.908,3.78c0-.994.868-1.68,2.17-1.68s2.17.686,2.17,1.68-.882,1.68-2.17,1.68S115.458-5.11,115.458-6.09Zm2.534,2.254C119.5-3.962,120.5-4.8,120.5-6.09c0-1.4-1.162-2.282-2.87-2.282s-2.856.882-2.856,2.282c0,1.288.98,2.128,2.478,2.254v1.554c-1.288.056-2.52.056-3.584.056l.14.644a48.743,48.743,0,0,0,7.91-.49l-.056-.574c-1.162.182-2.422.266-3.668.336Zm7.392-2.2h-2.156v-5.418h-.742V.966h.742V-5.39h2.156Zm11.7-1.232h2v3.724h.714v-7.91h-.714V-7.9h-2v-3.318h-.714V-4h.714ZM135.8-9.842h-2.856v-1.526H132.2v1.526h-2.87v.616H135.8Zm-5.18,3.5c0-.882.8-1.5,1.946-1.5,1.176,0,1.96.616,1.96,1.512s-.784,1.512-1.96,1.512S130.62-5.432,130.62-6.342Zm4.592,0c0-1.274-1.064-2.086-2.646-2.086-1.554,0-2.618.812-2.618,2.1s1.064,2.1,2.618,2.1C134.148-4.228,135.212-5.04,135.212-6.342ZM135.8.35c-2.044,0-3.346-.574-3.346-1.512s1.3-1.512,3.346-1.512,3.346.56,3.346,1.512S137.858.35,135.8.35Zm0-3.612c-2.548,0-4.074.756-4.074,2.1s1.526,2.1,4.074,2.1,4.074-.756,4.074-2.1S138.362-3.262,135.8-3.262ZM147.686.35c-2.128,0-3.486-.6-3.486-1.61s1.358-1.61,3.486-1.61,3.486.6,3.486,1.61S149.814.35,147.686.35Zm0-3.822c-2.632,0-4.228.8-4.228,2.212s1.6,2.212,4.228,2.212,4.228-.784,4.228-2.212S150.318-3.472,147.686-3.472Zm.35-1.694V-6.832h3.934v-.63h-7.728v-2.786h7.63v-.63h-8.358v4.046h3.794v1.666h-5.236v.63h11.242v-.63ZM162.064-7.91h-2.212a10.83,10.83,0,0,0,.182-1.9h-4.746v.63h4.018A8.656,8.656,0,0,1,154.84-2.31l.462.546a9.431,9.431,0,0,0,4.382-5.516h2.38v2.506h-2.576v.63h2.576V.294h.714V-11.1h-.714Zm2.464-3.542V.98h.714V-11.452Zm10.654,1.26H171.92V-11.55h-.742v1.358h-3.262V-9.6h7.266Zm-5.8,3c0-.756.868-1.274,2.17-1.274s2.184.518,2.184,1.274-.868,1.288-2.184,1.288S169.386-6.426,169.386-7.2Zm6.2,2.478c-1.162.168-2.422.266-3.668.322v-.966c1.54-.1,2.52-.756,2.52-1.834,0-1.12-1.148-1.82-2.884-1.82s-2.87.7-2.87,1.82c0,1.078.98,1.736,2.492,1.834v.994c-1.33.056-2.6.056-3.682.056l.112.63a53.208,53.208,0,0,0,8.022-.476ZM169.3-1.932h7.434v2.9h.742V-2.548H169.3Zm7.434-9.492v8.232h.742v-8.232Zm12.656,6.8V-4h2.884v1.96h.742v-9.408h-.742V-4.62Zm-2.814,1.75h.728v-3a37.294,37.294,0,0,0,3.766-.392l-.056-.574c-.49.07-1.022.14-1.54.2a18.945,18.945,0,0,0,.28-3.486v-.5H184.03V-10h5a17.318,17.318,0,0,1-.308,3.4c-2.044.168-4.144.182-5.81.182l.112.658c1.05,0,2.282-.014,3.556-.07ZM185.57.042V-3.122h-.742V.672h8.512V.042Zm19.11-8.876a26.6,26.6,0,0,1-.448,5.516l.756.112a28.963,28.963,0,0,0,.434-5.628V-10.08H196.91v.616h7.77Zm-3.654,7.28V-6.1H200.3v4.55h-4.606v.63h11.242v-.63Z" transform="translate(461.158 232.28)"/>
  <text id="_18" data-name="•" class="cls-6" transform="translate(111.073 443.176)"><tspan x="0" y="0">•</tspan></text>
  <path id="패스_23830" data-name="패스 23830" class="cls-7" d="M13.076-8.89v1.736H9.52v.616h3.556v1.5h.742v-6.412h-.742v1.946H9.912a5.148,5.148,0,0,0,.154-1.246H4.522v.63H9.268C9.1-7.84,7.056-6.174,3.934-5.39l.28.616c2.744-.7,4.76-2.114,5.516-4.116ZM6.706.238V-1.6h7.112V-4.41H5.936v.63H13.09V-2.2H5.978V.854h8.344V.238Zm16.072-4.76a31.108,31.108,0,0,0,.378-5.04v-.462H16.94v.616h5.488a29.438,29.438,0,0,1-.392,4.816Zm-2.94-1.946H19.11v3.906c-1.022.028-2,.028-2.884.028l.126.658a58.336,58.336,0,0,0,7.854-.462L24.15-2.9a42.5,42.5,0,0,1-4.312.308Zm8.106.322H25.76v-5.32h-.742V.98h.742V-5.474h2.184ZM34.1-7.49h6.972v2.618H34.1ZM37.94-1.316V-4.242H41.8v-6.286h-.728V-8.12H34.1v-2.408h-.742v6.286H37.2v2.926h-5.25v.63h11.3v-.63ZM53.634-8.834a26.6,26.6,0,0,1-.448,5.516l.756.112a28.964,28.964,0,0,0,.434-5.628V-10.08H45.864v.616h7.77ZM49.98-1.554V-6.1h-.728v4.55H44.646v.63H55.888v-.63Z" transform="translate(115.302 443.176)"/>
  <text id="_19" data-name="" class="cls-8" transform="translate(173.611 443.176)"><tspan x="0" y="0"></tspan></text>
  <text id="_20" data-name="•" class="cls-6" transform="translate(111.073 465.17)"><tspan x="0" y="0">•</tspan></text>
  <path id="패스_23831" data-name="패스 23831" class="cls-7" d="M13.076-3.738h.742v-7.714h-.742V-9.1H10.668v.63h2.408v1.526H10.668v.63h2.408ZM6.2-9.814h2.31v4.382c-.784.056-1.554.07-2.31.084Zm4.956,4.172c-.616.084-1.26.14-1.918.168v-4.34h1.4v-.63H4.1v.63H5.474v4.48c-.616.014-1.2.014-1.736.014l.112.658a49.043,49.043,0,0,0,7.35-.42ZM9.786.336c-2.03,0-3.318-.6-3.318-1.6S7.756-2.842,9.786-2.842s3.36.6,3.36,1.582S11.83.336,9.786.336Zm0-3.78c-2.534,0-4.06.784-4.06,2.184s1.526,2.2,4.06,2.2,4.088-.784,4.088-2.2S12.334-3.444,9.786-3.444ZM17.08-10.08v.63h4.872c-.2,3.024-2.03,5.684-5.39,7.35l.42.588c3.948-1.974,5.7-5.18,5.7-8.568ZM27.986-6.244H25.83v-5.208h-.742V.98h.742V-5.6h2.156Zm10.556-2.3v.63h2.786v2.926h.742v-6.482h-.742V-8.54Zm.63,2.73c-1.666-.574-3.122-2.044-3.122-3.654v-.63h2.926v-.616H32.368v.616h2.94v.616A4.661,4.661,0,0,1,32.1-5.5l.378.588A5.467,5.467,0,0,0,35.7-8.092a5.282,5.282,0,0,0,3.122,2.87ZM34.958.21V-1.526H42.07V-4.284H34.2v.616h7.14v1.554H34.23V.826H42.6V.21ZM48.58-8.6h2.926v-.63H48.58V-11.27h-.742v2.044H44.884v.63h2.968V-7.35A6.215,6.215,0,0,1,44.59-2.058l.434.574A6.871,6.871,0,0,0,48.23-5.628a6.483,6.483,0,0,0,3.052,3.906l.448-.588a5.943,5.943,0,0,1-3.15-5.04Zm7.7,2.408H54.1v-5.264h-.742V.98H54.1V-5.544H56.28Zm4.746-4.424v.63H65.8c-.182,2.394-2.282,4.186-5.376,5.068l.322.616C64.274-5.32,66.6-7.56,66.6-10.612Zm2.142,7.49h6.468V.154H63.168ZM62.454.77h7.91V-3.724h-7.91Zm7.168-12.222v3.36H66.584v.63h3.038V-4.27h.742v-7.182ZM78.89-1.3V-4.2h3.948v-.616H75.18V-7.042h7.266v-.616H75.18V-9.73h7.532v-.63H74.424V-4.2h3.724v2.9H72.9v.63H84.182V-1.3Zm19.7-10.164h-.742v7.2h.742ZM94.094-6.258H89.88V-10.01h4.214Zm.714-4.368H89.152v4.984h5.656ZM95.186-2.7h3.766v-.6H95.186V-4.648H94.43V-3.3H90.692v.6H94.43v.126c0,1.414-2.436,2.66-4.242,2.912l.266.588C92.148.63,94.108-.294,94.808-1.568c.686,1.26,2.576,2.2,4.284,2.492l.266-.588c-1.82-.28-4.172-1.512-4.172-2.912Zm9.38-7.1v.63h4.074a7.989,7.989,0,0,1-4.466,6.86l.448.546A8.7,8.7,0,0,0,109.368-9.8Zm9.282-1.652v5.18H111.79v-4.844h-.714V.308h.714v-5.95h2.058V.98h.714V-11.452Zm12.292,9.38h.742v-9.38h-.742v3.08h-2.982v.644h2.982Zm-2.212-2.814a4.782,4.782,0,0,1-3.164-4.13V-10.71h-.728v1.624A5.056,5.056,0,0,1,116.83-4.62l.392.6a5.7,5.7,0,0,0,3.192-3.5,5.564,5.564,0,0,0,3.108,3.206ZM119.784.042v-3.22h-.742V.672h8.148V.042Z" transform="translate(115.302 465.17)"/>
  <text id="_21" data-name="•" class="cls-6" transform="translate(456.93 443.176)"><tspan x="0" y="0">•</tspan></text>
  <path id="패스_23834" data-name="패스 23834" class="cls-7" d="M5.138-8.428c0-1.05.966-1.82,2.338-1.82s2.338.77,2.338,1.82S8.848-6.622,7.476-6.622,5.138-7.378,5.138-8.428ZM11.606-5a31.693,31.693,0,0,1-3.724.35V-6.034c1.6-.14,2.646-1.05,2.646-2.394,0-1.456-1.246-2.408-3.052-2.408s-3.038.952-3.038,2.408c0,1.358,1.092,2.282,2.7,2.394v1.428c-1.246.042-2.45.056-3.458.056l.126.644a46.366,46.366,0,0,0,7.84-.518ZM6.328-2.73H5.586V.658H13.65V.028H6.328Zm6.86-4.326v-4.382h-.742v9.52h.742V-6.426h1.974v-.63ZM23.926-9.87H20.552v-1.6H19.81v1.6H16.436v.63h7.49ZM18.018-6.09c0-.994.868-1.68,2.17-1.68s2.17.686,2.17,1.68-.882,1.68-2.17,1.68S18.018-5.11,18.018-6.09Zm2.534,2.254c1.512-.126,2.506-.966,2.506-2.254,0-1.4-1.162-2.282-2.87-2.282s-2.856.882-2.856,2.282c0,1.288.98,2.128,2.478,2.254v1.554c-1.288.056-2.52.056-3.584.056l.14.644a48.743,48.743,0,0,0,7.91-.49l-.056-.574c-1.162.182-2.422.266-3.668.336Zm7.392-2.2H25.788v-5.418h-.742V.966h.742V-5.39h2.156Zm11.7-1.232h2v3.724h.714v-7.91H41.65V-7.9h-2v-3.318h-.714V-4h.714ZM38.36-9.842H35.5v-1.526h-.742v1.526h-2.87v.616H38.36Zm-5.18,3.5c0-.882.8-1.5,1.946-1.5,1.176,0,1.96.616,1.96,1.512s-.784,1.512-1.96,1.512S33.18-5.432,33.18-6.342Zm4.592,0c0-1.274-1.064-2.086-2.646-2.086-1.554,0-2.618.812-2.618,2.1s1.064,2.1,2.618,2.1C36.708-4.228,37.772-5.04,37.772-6.342ZM38.36.35c-2.044,0-3.346-.574-3.346-1.512s1.3-1.512,3.346-1.512,3.346.56,3.346,1.512S40.418.35,38.36.35Zm0-3.612c-2.548,0-4.074.756-4.074,2.1s1.526,2.1,4.074,2.1,4.074-.756,4.074-2.1S40.922-3.262,38.36-3.262ZM50.246.35c-2.128,0-3.486-.6-3.486-1.61s1.358-1.61,3.486-1.61,3.486.6,3.486,1.61S52.374.35,50.246.35Zm0-3.822c-2.632,0-4.228.8-4.228,2.212S47.614.952,50.246.952,54.474.168,54.474-1.26,52.878-3.472,50.246-3.472Zm.35-1.694V-6.832H54.53v-.63H46.8v-2.786h7.63v-.63H46.074v4.046h3.794v1.666H44.632v.63H55.874v-.63ZM64.61-7.91H62.4a10.83,10.83,0,0,0,.182-1.9H57.834v.63h4.018A8.656,8.656,0,0,1,57.386-2.31l.462.546A9.431,9.431,0,0,0,62.23-7.28h2.38v2.506H62.034v.63H64.61V.294h.714V-11.1H64.61Zm2.464-3.542V.98h.714V-11.452Zm10.668,1.26H74.48V-11.55h-.742v1.358H70.476V-9.6h7.266Zm-5.8,3c0-.756.868-1.274,2.17-1.274S76.3-7.952,76.3-7.2s-.868,1.288-2.184,1.288S71.946-6.426,71.946-7.2Zm6.2,2.478c-1.162.168-2.422.266-3.668.322v-.966C76.02-5.46,77-6.118,77-7.2c0-1.12-1.148-1.82-2.884-1.82s-2.87.7-2.87,1.82c0,1.078.98,1.736,2.492,1.834v.994c-1.33.056-2.6.056-3.682.056l.112.63a53.208,53.208,0,0,0,8.022-.476ZM71.862-1.932H79.3v2.9h.742V-2.548H71.862ZM79.3-11.424v8.232h.742v-8.232Zm15.61-.028V.98h.742V-11.452ZM89.18-10.444c-1.82,0-3.094,1.68-3.094,4.27S87.36-1.9,89.18-1.9s3.08-1.666,3.08-4.27S90.986-10.444,89.18-10.444Zm0,.658c1.386,0,2.366,1.484,2.366,3.612s-.98,3.626-2.366,3.626-2.38-1.5-2.38-3.626S87.78-9.786,89.18-9.786Zm16.744,2.52h2v3.724h.714v-7.91h-.714V-7.9h-2v-3.318h-.714V-4h.714Zm-1.288-2.576H101.78v-1.526h-.742v1.526h-2.87v.616h6.468Zm-5.18,3.5c0-.882.8-1.5,1.946-1.5,1.176,0,1.96.616,1.96,1.512s-.784,1.512-1.96,1.512S99.456-5.432,99.456-6.342Zm4.592,0c0-1.274-1.064-2.086-2.646-2.086-1.554,0-2.618.812-2.618,2.1s1.064,2.1,2.618,2.1C102.984-4.228,104.048-5.04,104.048-6.342ZM104.636.35c-2.044,0-3.346-.574-3.346-1.512s1.3-1.512,3.346-1.512,3.346.56,3.346,1.512S106.694.35,104.636.35Zm0-3.612c-2.548,0-4.074.756-4.074,2.1s1.526,2.1,4.074,2.1,4.074-.756,4.074-2.1S107.2-3.262,104.636-3.262Zm19.278-8.2h-.742v7.2h.742ZM119.42-6.258h-4.214V-10.01h4.214Zm.714-4.368h-5.656v4.984h5.656Zm.378,7.924h3.766v-.6h-3.766V-4.648h-.756V-3.3h-3.738v.6h3.738v.126c0,1.414-2.436,2.66-4.242,2.912l.266.588c1.694-.294,3.654-1.218,4.354-2.492.686,1.26,2.576,2.2,4.284,2.492l.266-.588c-1.82-.28-4.172-1.512-4.172-2.912Zm18.27-6.188v1.736h-3.556v.616h3.556v1.5h.742v-6.412h-.742v1.946h-3.164a5.148,5.148,0,0,0,.154-1.246h-5.544v.63h4.746c-.168,2.282-2.212,3.948-5.334,4.732l.28.616c2.744-.7,4.76-2.114,5.516-4.116ZM132.412.238V-1.6h7.112V-4.41h-7.882v.63H138.8V-2.2h-7.112V.854h8.344V.238Zm16.058-4.76a31.108,31.108,0,0,0,.378-5.04v-.462h-6.216v.616h5.488a29.438,29.438,0,0,1-.392,4.816Zm-2.94-1.946H144.8v3.906c-1.022.028-2,.028-2.884.028l.126.658a58.336,58.336,0,0,0,7.854-.462l-.056-.56a42.5,42.5,0,0,1-4.312.308Zm8.106.322h-2.184v-5.32h-.742V.98h.742V-5.474h2.184Zm11.508-4.046H161.91v-1.372h-.742v1.372H157.92V-9.6h7.224Zm-5.74,3.01c0-.77.854-1.288,2.128-1.288s2.128.518,2.128,1.288-.854,1.274-2.128,1.274S159.4-6.412,159.4-7.182ZM165.55-4.69a34.1,34.1,0,0,1-3.64.35V-5.376c1.484-.1,2.436-.742,2.436-1.806,0-1.134-1.12-1.834-2.814-1.834s-2.828.7-2.828,1.834c0,1.064.952,1.708,2.464,1.806v1.064c-1.274.042-2.506.042-3.542.042l.112.63a45.386,45.386,0,0,0,7.868-.49Zm-6.426,2.814h7.28V.98h.742V-2.492h-8.022Zm10-5.7h-1.974v-3.864H166.4v8.246h.742V-6.93h1.974Zm11.326-3.864H179.7v9.17h.742ZM171.4-7.546a2.339,2.339,0,0,1,2.436-2.338,2.339,2.339,0,0,1,2.436,2.338,2.354,2.354,0,0,1-2.436,2.366A2.354,2.354,0,0,1,171.4-7.546Zm5.586,0a2.962,2.962,0,0,0-3.15-3,2.962,2.962,0,0,0-3.15,3,2.976,2.976,0,0,0,3.15,3.024A2.976,2.976,0,0,0,176.988-7.546ZM173.376.042V-3.234h-.742V.672h8.232V.042Z" transform="translate(461.158 443.176)"/>
  <text id="_22" data-name="" class="cls-8" transform="translate(648.338 443.176)"><tspan x="0" y="0"></tspan></text>
  <text id="_23" data-name="•" class="cls-6" transform="translate(456.93 465.17)"><tspan x="0" y="0">•</tspan></text>
  <path id="패스_23835" data-name="패스 23835" class="cls-7" d="M11.382-7.266h2v3.724H14.1v-7.91h-.714V-7.9h-2v-3.318h-.714V-4h.714ZM10.094-9.842H7.238v-1.526H6.5v1.526H3.626v.616h6.468Zm-5.18,3.5c0-.882.8-1.5,1.946-1.5,1.176,0,1.96.616,1.96,1.512S8.036-4.816,6.86-4.816,4.914-5.432,4.914-6.342Zm4.592,0c0-1.274-1.064-2.086-2.646-2.086-1.554,0-2.618.812-2.618,2.1s1.064,2.1,2.618,2.1C8.442-4.228,9.506-5.04,9.506-6.342ZM10.094.35C8.05.35,6.748-.224,6.748-1.162s1.3-1.512,3.346-1.512,3.346.56,3.346,1.512S12.152.35,10.094.35Zm0-3.612c-2.548,0-4.074.756-4.074,2.1s1.526,2.1,4.074,2.1,4.074-.756,4.074-2.1S12.656-3.262,10.094-3.262ZM21.994.35c-2.128,0-3.486-.6-3.486-1.61s1.358-1.61,3.486-1.61,3.486.6,3.486,1.61S24.122.35,21.994.35Zm0-3.822c-2.632,0-4.228.8-4.228,2.212S19.362.952,21.994.952,26.222.168,26.222-1.26,24.626-3.472,21.994-3.472Zm.35-1.694V-6.832h3.934v-.63H18.55v-2.786h7.63v-.63H17.822v4.046h3.794v1.666H16.38v.63H27.622v-.63ZM36.358-7.91H34.146a10.83,10.83,0,0,0,.182-1.9H29.582v.63H33.6A8.656,8.656,0,0,1,29.134-2.31l.462.546A9.431,9.431,0,0,0,33.978-7.28h2.38v2.506H33.782v.63h2.576V.294h.714V-11.1h-.714Zm2.464-3.542V.98h.714V-11.452Zm10.668,1.26H46.228V-11.55h-.742v1.358H42.224V-9.6H49.49Zm-5.8,3c0-.756.868-1.274,2.17-1.274s2.184.518,2.184,1.274-.868,1.288-2.184,1.288S43.694-6.426,43.694-7.2Zm6.2,2.478c-1.162.168-2.422.266-3.668.322v-.966c1.54-.1,2.52-.756,2.52-1.834,0-1.12-1.148-1.82-2.884-1.82s-2.87.7-2.87,1.82c0,1.078.98,1.736,2.492,1.834v.994c-1.33.056-2.6.056-3.682.056l.112.63a53.208,53.208,0,0,0,8.022-.476ZM43.61-1.932h7.434v2.9h.742V-2.548H43.61Zm7.434-9.492v8.232h.742v-8.232Zm15.6-.028V.98h.742V-11.452Zm-5.726,1.008c-1.82,0-3.094,1.68-3.094,4.27S59.094-1.9,60.914-1.9s3.08-1.666,3.08-4.27S62.72-10.444,60.914-10.444Zm0,.658c1.386,0,2.366,1.484,2.366,3.612s-.98,3.626-2.366,3.626-2.38-1.5-2.38-3.626S59.514-9.786,60.914-9.786Zm16.758,2.52h2v3.724h.714v-7.91h-.714V-7.9h-2v-3.318h-.714V-4h.714ZM76.384-9.842H73.528v-1.526h-.742v1.526h-2.87v.616h6.468Zm-5.18,3.5c0-.882.8-1.5,1.946-1.5,1.176,0,1.96.616,1.96,1.512s-.784,1.512-1.96,1.512S71.2-5.432,71.2-6.342Zm4.592,0c0-1.274-1.064-2.086-2.646-2.086-1.554,0-2.618.812-2.618,2.1s1.064,2.1,2.618,2.1C74.732-4.228,75.8-5.04,75.8-6.342ZM76.384.35c-2.044,0-3.346-.574-3.346-1.512s1.3-1.512,3.346-1.512,3.346.56,3.346,1.512S78.442.35,76.384.35Zm0-3.612c-2.548,0-4.074.756-4.074,2.1s1.526,2.1,4.074,2.1,4.074-.756,4.074-2.1S78.946-3.262,76.384-3.262Zm15.288-1.3a7.167,7.167,0,0,0,.182-1.61,7.279,7.279,0,0,0-.21-1.736h3.3v3.346ZM88.83-2.548c-1.372,0-2.324-1.512-2.324-3.626s.952-3.612,2.324-3.612S91.154-8.3,91.154-6.174,90.2-2.548,88.83-2.548Zm6.118-8.9V-8.54H91.42a2.8,2.8,0,0,0-2.59-1.9c-1.778,0-3.024,1.68-3.024,4.27S87.052-1.9,88.83-1.9a2.858,2.858,0,0,0,2.646-2.03h3.472V.98h.742V-11.452Zm12.32,5.18h-6.8v-2.17h6.8Zm.742-4.676h-.742v1.89h-6.8v-1.89h-.742v5.306h8.288Zm1.5,6.986H98.21v.63h5.25V.98h.742V-3.332h5.306Zm4.214,1.386c-1.148,0-1.932-1.456-1.932-3.542s.784-3.542,1.932-3.542,1.932,1.47,1.932,3.542S114.884-2.576,113.722-2.576Zm4.55-3.892h-1.918c-.1-2.366-1.106-3.864-2.632-3.864-1.582,0-2.618,1.638-2.618,4.214S112.14-1.9,113.722-1.9c1.54,0,2.548-1.512,2.632-3.934h1.918V.308h.714V-11.158h-.714Zm2.436-5V.98h.714V-11.466ZM127.736-2.9v-6.37h3.906v-.644h-4.634v7.658h.77a20.2,20.2,0,0,0,4.718-.392l-.1-.644a18.485,18.485,0,0,1-4.634.392Zm8.526-8.554v5.11H134.12v-4.8h-.714V.294h.714V-5.712h2.142V.966h.728V-11.452ZM146.58-9.8h-3.3v-1.638h-.742V-9.8h-3.318v.616h7.364Zm-5.922,3.724c0-.994.91-1.68,2.24-1.68s2.226.686,2.226,1.68c0,.966-.9,1.666-2.226,1.666S140.658-5.11,140.658-6.076Zm5.166,0c0-1.386-1.162-2.282-2.926-2.282s-2.94.9-2.94,2.282,1.176,2.268,2.94,2.268S145.824-4.7,145.824-6.076ZM141.9-2.87h-.742V.672h8.2V.042H141.9Zm6.846-4.312v-4.256h-.742V-2.1h.742V-6.552H150.7v-.63ZM164.136-8.89v1.736H160.58v.616h3.556v1.5h.742v-6.412h-.742v1.946h-3.164a5.148,5.148,0,0,0,.154-1.246h-5.544v.63h4.746c-.168,2.282-2.212,3.948-5.334,4.732l.28.616c2.744-.7,4.76-2.114,5.516-4.116ZM157.766.238V-1.6h7.112V-4.41H157v.63h7.154V-2.2h-7.112V.854h8.344V.238Zm16.058-4.76a31.108,31.108,0,0,0,.378-5.04v-.462h-6.216v.616h5.488a29.438,29.438,0,0,1-.392,4.816Zm-2.94-1.946h-.728v3.906c-1.022.028-2,.028-2.884.028l.126.658a58.336,58.336,0,0,0,7.854-.462L175.2-2.9a42.5,42.5,0,0,1-4.312.308Zm8.106.322h-2.184v-5.32h-.742V.98h.742V-5.474h2.184Zm9.52,1.022h-4.158V-7.686h4.158Zm.728-5.432h-.728V-8.3h-4.158v-2.254h-.742v6.062h5.628Zm-3.5,7.364H185V.672h8.2V.042h-7.462Zm6.846-4.34v-3.92h-.742v9.114h.742V-6.9h1.946v-.63ZM196.6-7.8a2.3,2.3,0,0,1,2.436-2.254A2.3,2.3,0,0,1,201.474-7.8a2.293,2.293,0,0,1-2.436,2.268A2.293,2.293,0,0,1,196.6-7.8Zm8.456-1.148v2.31h-3.094a3.123,3.123,0,0,0,.224-1.162,3.105,3.105,0,0,0-.224-1.148Zm0,2.94V-4.06h.742v-7.406h-.742v1.9h-3.472a3.192,3.192,0,0,0-2.548-1.12,2.916,2.916,0,0,0-3.15,2.884,2.932,2.932,0,0,0,3.15,2.926,3.2,3.2,0,0,0,2.548-1.134ZM201.768.336c-2.016,0-3.332-.672-3.332-1.736s1.316-1.736,3.332-1.736c2.044,0,3.36.686,3.36,1.736S203.812.336,201.768.336Zm0-4.074c-2.52,0-4.06.854-4.06,2.338s1.54,2.338,4.06,2.338,4.088-.854,4.088-2.338S204.3-3.738,201.768-3.738Z" transform="translate(461.158 465.17)"/>
  <rect id="사각형_19" data-name="사각형 19" class="cls-9" width="203.853" height="61" transform="translate(462.926 354.901)"/>
  <rect id="사각형_20" data-name="사각형 20" class="cls-10" width="203.853" height="58" transform="translate(457.176 355.151)"/>
  <rect id="사각형_21" data-name="사각형 21" class="cls-11" width="203.853" height="58" transform="translate(457.176 355.151)"/>
  <path id="패스_23832" data-name="패스 23832" class="cls-9" d="M3.7,0h1.74V-9.585H8.7V-11.04H.465v1.455H3.7ZM8.64,0h1.71V-5.145c.525-1.305,1.335-1.77,2.01-1.77a2.441,2.441,0,0,1,.825.135l.315-1.5a2.052,2.052,0,0,0-.93-.18,2.852,2.852,0,0,0-2.34,1.7h-.045L10.05-8.25H8.64Zm6.945.2A4.1,4.1,0,0,0,18.21-.945h.045L18.4,0h1.41V-4.965c0-2.19-.945-3.495-3-3.495a6.319,6.319,0,0,0-3.33,1.08l.645,1.17a4.537,4.537,0,0,1,2.385-.84c1.215,0,1.56.84,1.575,1.8-3.435.375-4.935,1.29-4.935,3.06A2.279,2.279,0,0,0,15.585.2ZM16.11-1.17c-.735,0-1.29-.33-1.29-1.14,0-.93.825-1.545,3.27-1.845V-2.13A2.908,2.908,0,0,1,16.11-1.17ZM25.32.2a4.02,4.02,0,0,0,2.67-1.02l-.705-1.14a2.826,2.826,0,0,1-1.8.75c-1.38,0-2.325-1.155-2.325-2.895,0-1.755.99-2.925,2.37-2.925a2.161,2.161,0,0,1,1.485.645l.855-1.125a3.542,3.542,0,0,0-2.415-.945,4.054,4.054,0,0,0-4.08,4.35C21.375-1.38,23.085.2,25.32.2Zm4.1-.2H31.1V-2.13l1.4-1.6L34.725,0H36.6L33.48-4.9,36.285-8.25h-1.9L31.14-4.245H31.1v-7.71h-1.68ZM37.74,0h1.71V-8.25H37.74ZM38.6-9.8a1.035,1.035,0,0,0,1.11-1.02,1.026,1.026,0,0,0-1.11-1.02,1.013,1.013,0,0,0-1.1,1.02A1.022,1.022,0,0,0,38.6-9.8ZM41.76,0h1.71V-5.85A2.817,2.817,0,0,1,45.5-6.975c.975,0,1.4.57,1.4,1.995V0h1.725V-5.19c0-2.1-.78-3.27-2.535-3.27a3.931,3.931,0,0,0-2.73,1.35h-.045L43.17-8.25H41.76ZM53.64,3.7c2.64,0,4.32-1.29,4.32-2.88,0-1.41-1.02-2.01-2.97-2.01H53.475c-1.05,0-1.38-.315-1.38-.81a1.094,1.094,0,0,1,.45-.87A2.868,2.868,0,0,0,53.7-2.61a2.819,2.819,0,0,0,3.09-2.835,2.23,2.23,0,0,0-.54-1.515h1.575V-8.25H54.9a3.44,3.44,0,0,0-1.2-.21,2.975,2.975,0,0,0-3.195,2.97,2.823,2.823,0,0,0,1.08,2.19v.06a2.036,2.036,0,0,0-.915,1.53,1.517,1.517,0,0,0,.75,1.365V-.27a2.18,2.18,0,0,0-1.2,1.8C50.22,2.97,51.66,3.7,53.64,3.7ZM53.7-3.72a1.609,1.609,0,0,1-1.56-1.77A1.571,1.571,0,0,1,53.7-7.245,1.579,1.579,0,0,1,55.26-5.49,1.609,1.609,0,0,1,53.7-3.72ZM53.9,2.565c-1.365,0-2.205-.48-2.205-1.29A1.484,1.484,0,0,1,52.4.075a5.245,5.245,0,0,0,1.11.12H54.75c1.005,0,1.545.21,1.545.9C56.295,1.86,55.335,2.565,53.9,2.565ZM62.43,0h1.74V-11.04H62.43Zm4.2,0h1.71V-5.85A2.785,2.785,0,0,1,70.2-6.975c.945,0,1.38.57,1.38,1.995V0h1.725V-5.85a2.754,2.754,0,0,1,1.86-1.125c.93,0,1.38.57,1.38,1.995V0H78.27V-5.19c0-2.1-.81-3.27-2.535-3.27A3.8,3.8,0,0,0,73.05-6.945,2.2,2.2,0,0,0,70.77-8.46a3.594,3.594,0,0,0-2.55,1.365h-.045L68.04-8.25H66.63ZM80.475,3.345h1.71V.675L82.14-.735A3.4,3.4,0,0,0,84.315.2c1.86,0,3.555-1.62,3.555-4.455,0-2.535-1.17-4.2-3.27-4.2a4.183,4.183,0,0,0-2.535,1.11H82.02l-.135-.9h-1.41Zm3.51-4.575a2.8,2.8,0,0,1-1.8-.75V-6.015A2.9,2.9,0,0,1,84.15-7.02c1.38,0,1.935,1.065,1.935,2.79C86.085-2.3,85.185-1.23,83.985-1.23ZM91.35.2A2.771,2.771,0,0,0,92.28.06l-.225-1.305a1.2,1.2,0,0,1-.285.03c-.21,0-.42-.165-.42-.63v-10.11H89.64v10.02C89.64-.6,90.1.2,91.35.2Zm5.91,0a5.005,5.005,0,0,0,2.79-.87l-.6-1.095a3.5,3.5,0,0,1-1.965.615,2.491,2.491,0,0,1-2.55-2.52h5.355a4.458,4.458,0,0,0,.075-.87c0-2.34-1.17-3.915-3.36-3.915C95.07-8.46,93.24-6.8,93.24-4.11A3.963,3.963,0,0,0,97.26.2ZM94.92-4.86a2.237,2.237,0,0,1,2.115-2.25c1.2,0,1.845.825,1.845,2.25Zm7.1,4.86h1.71V-5.85a2.785,2.785,0,0,1,1.86-1.125c.945,0,1.38.57,1.38,1.995V0h1.725V-5.85a2.754,2.754,0,0,1,1.86-1.125c.93,0,1.38.57,1.38,1.995V0h1.725V-5.19c0-2.1-.81-3.27-2.535-3.27a3.8,3.8,0,0,0-2.685,1.515,2.2,2.2,0,0,0-2.28-1.515,3.594,3.594,0,0,0-2.55,1.365h-.045l-.135-1.155h-1.41Zm17.28.2a5.005,5.005,0,0,0,2.79-.87l-.6-1.095a3.5,3.5,0,0,1-1.965.615,2.491,2.491,0,0,1-2.55-2.52h5.355a4.458,4.458,0,0,0,.075-.87c0-2.34-1.17-3.915-3.36-3.915-1.935,0-3.765,1.665-3.765,4.35A3.963,3.963,0,0,0,119.295.2Zm-2.34-5.055a2.237,2.237,0,0,1,2.115-2.25c1.2,0,1.845.825,1.845,2.25ZM124.05,0h1.71V-5.85a2.817,2.817,0,0,1,2.025-1.125c.975,0,1.4.57,1.4,1.995V0H130.9V-5.19c0-2.1-.78-3.27-2.535-3.27a3.931,3.931,0,0,0-2.73,1.35H125.6l-.135-1.14h-1.41ZM135.9.2a5.278,5.278,0,0,0,1.62-.3l-.315-1.275a2.46,2.46,0,0,1-.885.195c-.855,0-1.2-.51-1.2-1.5V-6.87h2.145V-8.25H135.12v-2.28h-1.455l-.2,2.28-1.275.09v1.29h1.2V-2.7C133.4-.96,134.04.2,135.9.2Zm4.1,0a4.1,4.1,0,0,0,2.625-1.14h.045l.15.945h1.41V-4.965c0-2.19-.945-3.495-3-3.495a6.319,6.319,0,0,0-3.33,1.08l.645,1.17a4.537,4.537,0,0,1,2.385-.84c1.215,0,1.56.84,1.575,1.8-3.435.375-4.935,1.29-4.935,3.06A2.279,2.279,0,0,0,140,.2Zm.525-1.365c-.735,0-1.29-.33-1.29-1.14,0-.93.825-1.545,3.27-1.845V-2.13A2.908,2.908,0,0,1,140.52-1.17ZM148.635.2a5.278,5.278,0,0,0,1.62-.3L149.94-1.38a2.46,2.46,0,0,1-.885.195c-.855,0-1.2-.51-1.2-1.5V-6.87H150V-8.25h-2.145v-2.28H146.4l-.2,2.28-1.275.09v1.29h1.2V-2.7C146.13-.96,146.775.2,148.635.2ZM151.5,0h1.71V-8.25H151.5Zm.855-9.8a1.035,1.035,0,0,0,1.11-1.02,1.026,1.026,0,0,0-1.11-1.02,1.013,1.013,0,0,0-1.1,1.02A1.022,1.022,0,0,0,152.355-9.8ZM158.82.2a3.963,3.963,0,0,0,3.885-4.3c0-2.76-1.845-4.35-3.885-4.35s-3.885,1.59-3.885,4.35A3.963,3.963,0,0,0,158.82.2Zm0-1.41c-1.29,0-2.1-1.155-2.1-2.895,0-1.755.81-2.925,2.1-2.925,1.305,0,2.115,1.17,2.115,2.925C160.935-2.37,160.125-1.215,158.82-1.215ZM164.43,0h1.71V-5.85a2.817,2.817,0,0,1,2.025-1.125c.975,0,1.4.57,1.4,1.995V0h1.725V-5.19c0-2.1-.78-3.27-2.535-3.27a3.931,3.931,0,0,0-2.73,1.35h-.045l-.135-1.14h-1.41Z" transform="translate(471.639 380.752)"/>
  <text id="_24" data-name=" " class="cls-12" transform="translate(650.169 380.752)"><tspan x="0" y="0"> </tspan></text>
  <path id="패스_23833" data-name="패스 23833" class="cls-9" d="M2.16-2.985a2.625,2.625,0,0,1,1.185-1.9,15.559,15.559,0,0,0,2.73,2.985,3.119,3.119,0,0,1-1.9.75A1.856,1.856,0,0,1,2.16-2.985Zm1.215-5.58A1.322,1.322,0,0,1,4.62-10.05c.675,0,.96.495.96,1.1,0,.915-.78,1.515-1.74,2.13A4.2,4.2,0,0,1,3.375-8.565Zm6.93,7.35A7.479,7.479,0,0,1,8.28-2.16,11.916,11.916,0,0,0,10.2-6.045H8.61a8.954,8.954,0,0,1-1.485,3.06A14.2,14.2,0,0,1,4.5-5.73C5.715-6.6,6.945-7.515,6.945-8.97a2.166,2.166,0,0,0-2.34-2.28A2.6,2.6,0,0,0,1.92-8.55a5.608,5.608,0,0,0,.72,2.49A3.844,3.844,0,0,0,.51-2.88,3.13,3.13,0,0,0,3.96.2,4.885,4.885,0,0,0,7.245-1.02,8.484,8.484,0,0,0,9.87.2Zm6.27-8.43H18.24c1.605,0,2.475.465,2.475,1.8s-.87,2-2.475,2H16.575ZM22.83,0l-2.7-4.68a3.073,3.073,0,0,0,2.31-3.165c0-2.385-1.71-3.195-3.99-3.195H14.835V0h1.74V-4.455H18.36L20.865,0Zm4.485.2a5.005,5.005,0,0,0,2.79-.87l-.6-1.095a3.5,3.5,0,0,1-1.965.615,2.491,2.491,0,0,1-2.55-2.52h5.355a4.458,4.458,0,0,0,.075-.87c0-2.34-1.17-3.915-3.36-3.915C25.125-8.46,23.3-6.8,23.3-4.11A3.963,3.963,0,0,0,27.315.2ZM24.975-4.86A2.237,2.237,0,0,1,27.09-7.11c1.2,0,1.845.825,1.845,2.25ZM34.305.2c2.04,0,3.135-1.125,3.135-2.5,0-1.56-1.275-2.07-2.43-2.505-.9-.33-1.755-.6-1.755-1.3,0-.57.42-1.02,1.32-1.02a3.087,3.087,0,0,1,1.845.72l.81-1.065a4.343,4.343,0,0,0-2.685-.975c-1.815,0-2.925,1.035-2.925,2.415s1.26,1.98,2.355,2.4c.9.345,1.83.675,1.83,1.425,0,.63-.465,1.11-1.455,1.11a3.657,3.657,0,0,1-2.34-.945L31.2-.945A5.075,5.075,0,0,0,34.305.2Zm7.08,0a3.459,3.459,0,0,0,2.7-1.44h.045L44.265,0h1.41V-8.25H43.95v5.73c-.69.87-1.215,1.23-1.98,1.23-.975,0-1.38-.555-1.38-1.98V-8.25H38.865v5.19C38.865-.96,39.63.2,41.385.2ZM49.68.2A2.771,2.771,0,0,0,50.61.06l-.225-1.305a1.2,1.2,0,0,1-.285.03c-.21,0-.42-.165-.42-.63v-10.11H47.97v10.02C47.97-.6,48.435.2,49.68.2Zm5.25,0a5.278,5.278,0,0,0,1.62-.3L56.235-1.38a2.46,2.46,0,0,1-.885.195c-.855,0-1.2-.51-1.2-1.5V-6.87h2.145V-8.25H54.15v-2.28H52.695L52.5-8.25l-1.275.09v1.29h1.2V-2.7C52.425-.96,53.07.2,54.93.2ZM59.7.2c2.04,0,3.135-1.125,3.135-2.5,0-1.56-1.275-2.07-2.43-2.505-.9-.33-1.755-.6-1.755-1.3,0-.57.42-1.02,1.32-1.02a3.087,3.087,0,0,1,1.845.72l.81-1.065A4.343,4.343,0,0,0,59.94-8.46c-1.815,0-2.925,1.035-2.925,2.415s1.26,1.98,2.355,2.4c.9.345,1.83.675,1.83,1.425,0,.63-.465,1.11-1.455,1.11a3.657,3.657,0,0,1-2.34-.945L56.6-.945A5.075,5.075,0,0,0,59.7.2Z" transform="translate(526.884 400.747)"/>
  <rect id="사각형_22" data-name="사각형 22" class="cls-9" width="203.853" height="61" transform="translate(117.073 354.901)"/>
  <rect id="사각형_23" data-name="사각형 23" class="cls-10" width="203.853" height="58" transform="translate(111.323 355.151)"/>
  <rect id="사각형_24" data-name="사각형 24" class="cls-11" width="203.853" height="58" transform="translate(111.323 355.151)"/>
  <path id="패스_23829" data-name="패스 23829" class="cls-9" d="M5.76.2a4.359,4.359,0,0,0,3.435-1.59l-.93-1.1A3.217,3.217,0,0,1,5.82-1.32c-1.95,0-3.18-1.605-3.18-4.23,0-2.595,1.32-4.185,3.225-4.185a2.936,2.936,0,0,1,2.16.99l.945-1.11A4.255,4.255,0,0,0,5.835-11.25c-2.79,0-4.98,2.16-4.98,5.76S2.985.2,5.76.2ZM14,.2a3.963,3.963,0,0,0,3.885-4.3c0-2.76-1.845-4.35-3.885-4.35S10.11-6.87,10.11-4.11A3.963,3.963,0,0,0,14,.2Zm0-1.41c-1.29,0-2.1-1.155-2.1-2.895,0-1.755.81-2.925,2.1-2.925S16.11-5.865,16.11-4.11C16.11-2.37,15.3-1.215,14-1.215ZM19.6,0h1.71V-5.85a2.785,2.785,0,0,1,1.86-1.125c.945,0,1.38.57,1.38,1.995V0H26.28V-5.85a2.754,2.754,0,0,1,1.86-1.125c.93,0,1.38.57,1.38,1.995V0h1.725V-5.19c0-2.1-.81-3.27-2.535-3.27a3.8,3.8,0,0,0-2.685,1.515,2.2,2.2,0,0,0-2.28-1.515,3.594,3.594,0,0,0-2.55,1.365H21.15L21.015-8.25H19.6ZM33.45,0h1.71V-5.85a2.785,2.785,0,0,1,1.86-1.125c.945,0,1.38.57,1.38,1.995V0h1.725V-5.85a2.754,2.754,0,0,1,1.86-1.125c.93,0,1.38.57,1.38,1.995V0H45.09V-5.19c0-2.1-.81-3.27-2.535-3.27A3.8,3.8,0,0,0,39.87-6.945,2.2,2.2,0,0,0,37.59-8.46a3.594,3.594,0,0,0-2.55,1.365h-.045L34.86-8.25H33.45ZM49.71.2a3.459,3.459,0,0,0,2.7-1.44h.045L52.59,0H54V-8.25H52.275v5.73c-.69.87-1.215,1.23-1.98,1.23-.975,0-1.38-.555-1.38-1.98V-8.25H47.19v5.19C47.19-.96,47.955.2,49.71.2ZM56.3,0h1.71V-5.85A2.817,2.817,0,0,1,60.03-6.975c.975,0,1.4.57,1.4,1.995V0H63.15V-5.19c0-2.1-.78-3.27-2.535-3.27a3.931,3.931,0,0,0-2.73,1.35H57.84l-.135-1.14H56.3Zm9.06,0h1.71V-8.25h-1.71Zm.855-9.8a1.035,1.035,0,0,0,1.11-1.02,1.026,1.026,0,0,0-1.11-1.02,1.013,1.013,0,0,0-1.1,1.02A1.022,1.022,0,0,0,66.21-9.8ZM72.735.2A4.02,4.02,0,0,0,75.4-.825L74.7-1.965a2.826,2.826,0,0,1-1.8.75c-1.38,0-2.325-1.155-2.325-2.895,0-1.755.99-2.925,2.37-2.925a2.161,2.161,0,0,1,1.485.645l.855-1.125A3.542,3.542,0,0,0,72.87-8.46a4.054,4.054,0,0,0-4.08,4.35C68.79-1.38,70.5.2,72.735.2ZM78.45.2a4.1,4.1,0,0,0,2.625-1.14h.045L81.27,0h1.41V-4.965c0-2.19-.945-3.495-3-3.495a6.319,6.319,0,0,0-3.33,1.08L77-6.21a4.537,4.537,0,0,1,2.385-.84c1.215,0,1.56.84,1.575,1.8-3.435.375-4.935,1.29-4.935,3.06A2.279,2.279,0,0,0,78.45.2Zm.525-1.365c-.735,0-1.29-.33-1.29-1.14,0-.93.825-1.545,3.27-1.845V-2.13A2.908,2.908,0,0,1,78.975-1.17ZM87.09.2a5.278,5.278,0,0,0,1.62-.3L88.4-1.38a2.46,2.46,0,0,1-.885.195c-.855,0-1.2-.51-1.2-1.5V-6.87h2.145V-8.25H86.31v-2.28H84.855L84.66-8.25l-1.275.09v1.29h1.2V-2.7C84.585-.96,85.23.2,87.09.2ZM89.955,0h1.71V-8.25h-1.71Zm.855-9.8a1.035,1.035,0,0,0,1.11-1.02,1.026,1.026,0,0,0-1.11-1.02,1.013,1.013,0,0,0-1.095,1.02A1.022,1.022,0,0,0,90.81-9.8ZM97.275.2a3.963,3.963,0,0,0,3.885-4.3c0-2.76-1.845-4.35-3.885-4.35S93.39-6.87,93.39-4.11A3.963,3.963,0,0,0,97.275.2Zm0-1.41c-1.29,0-2.1-1.155-2.1-2.895,0-1.755.81-2.925,2.1-2.925S99.39-5.865,99.39-4.11C99.39-2.37,98.58-1.215,97.275-1.215ZM102.885,0h1.71V-5.85a2.817,2.817,0,0,1,2.025-1.125c.975,0,1.395.57,1.395,1.995V0h1.725V-5.19c0-2.1-.78-3.27-2.535-3.27a3.931,3.931,0,0,0-2.73,1.35h-.045l-.135-1.14h-1.41Z" transform="translate(157.601 390.752)"/>
  <rect id="사각형_25" data-name="사각형 25" class="cls-9" width="203.853" height="61" transform="translate(462.926 100.001)"/>
  <rect id="사각형_26" data-name="사각형 26" class="cls-10" width="203.853" height="58" transform="translate(457.176 100.251)"/>
  <rect id="사각형_27" data-name="사각형 27" class="cls-11" width="203.853" height="58" transform="translate(457.176 100.251)"/>
  <path id="패스_23836" data-name="패스 23836" class="cls-9" d="M1.455,0h1.56V-5.46c0-.99-.135-2.415-.21-3.42h.06l.87,2.55L5.67-1.065H6.75L8.67-6.33l.885-2.55h.06c-.09,1.005-.225,2.43-.225,3.42V0h1.62V-11.04H9L7.005-5.46c-.255.735-.465,1.485-.72,2.235H6.21c-.255-.75-.48-1.5-.735-2.235L3.45-11.04h-2ZM13.47,0h1.71V-8.25H13.47Zm.855-9.8a1.035,1.035,0,0,0,1.11-1.02,1.026,1.026,0,0,0-1.11-1.02,1.013,1.013,0,0,0-1.1,1.02A1.022,1.022,0,0,0,14.325-9.8ZM20.265.2a5.278,5.278,0,0,0,1.62-.3L21.57-1.38a2.46,2.46,0,0,1-.885.195c-.855,0-1.2-.51-1.2-1.5V-6.87H21.63V-8.25H19.485v-2.28H18.03l-.195,2.28-1.275.09v1.29h1.2V-2.7C17.76-.96,18.4.2,20.265.2ZM23.13,0h1.71V-8.25H23.13Zm.855-9.8a1.035,1.035,0,0,0,1.11-1.02,1.026,1.026,0,0,0-1.11-1.02,1.013,1.013,0,0,0-1.095,1.02A1.022,1.022,0,0,0,23.985-9.8ZM29.97,3.7c2.64,0,4.32-1.29,4.32-2.88,0-1.41-1.02-2.01-2.97-2.01H29.805c-1.05,0-1.38-.315-1.38-.81a1.094,1.094,0,0,1,.45-.87,2.868,2.868,0,0,0,1.155.255,2.819,2.819,0,0,0,3.09-2.835,2.23,2.23,0,0,0-.54-1.515h1.575V-8.25H31.23a3.44,3.44,0,0,0-1.2-.21,2.975,2.975,0,0,0-3.195,2.97,2.823,2.823,0,0,0,1.08,2.19v.06A2.036,2.036,0,0,0,27-1.71a1.517,1.517,0,0,0,.75,1.365V-.27a2.18,2.18,0,0,0-1.2,1.8C26.55,2.97,27.99,3.7,29.97,3.7Zm.06-7.425a1.609,1.609,0,0,1-1.56-1.77,1.571,1.571,0,0,1,1.56-1.755A1.579,1.579,0,0,1,31.59-5.49,1.609,1.609,0,0,1,30.03-3.72Zm.195,6.285c-1.365,0-2.2-.48-2.2-1.29a1.484,1.484,0,0,1,.7-1.2,5.245,5.245,0,0,0,1.11.12H31.08c1,0,1.545.21,1.545.9C32.625,1.86,31.665,2.565,30.225,2.565ZM36.915.2A4.1,4.1,0,0,0,39.54-.945h.045l.15.945h1.41V-4.965c0-2.19-.945-3.495-3-3.495a6.319,6.319,0,0,0-3.33,1.08l.645,1.17a4.537,4.537,0,0,1,2.385-.84c1.215,0,1.56.84,1.575,1.8-3.435.375-4.935,1.29-4.935,3.06A2.279,2.279,0,0,0,36.915.2ZM37.44-1.17c-.735,0-1.29-.33-1.29-1.14,0-.93.825-1.545,3.27-1.845V-2.13A2.908,2.908,0,0,1,37.44-1.17ZM45.555.2a5.278,5.278,0,0,0,1.62-.3L46.86-1.38a2.46,2.46,0,0,1-.885.195c-.855,0-1.2-.51-1.2-1.5V-6.87H46.92V-8.25H44.775v-2.28H43.32l-.195,2.28-1.275.09v1.29h1.2V-2.7C43.05-.96,43.695.2,45.555.2ZM48.42,0h1.71V-8.25H48.42Zm.855-9.8a1.035,1.035,0,0,0,1.11-1.02,1.026,1.026,0,0,0-1.11-1.02,1.013,1.013,0,0,0-1.1,1.02A1.022,1.022,0,0,0,49.275-9.8ZM55.74.2a3.963,3.963,0,0,0,3.885-4.3c0-2.76-1.845-4.35-3.885-4.35s-3.885,1.59-3.885,4.35A3.963,3.963,0,0,0,55.74.2Zm0-1.41c-1.29,0-2.1-1.155-2.1-2.895,0-1.755.81-2.925,2.1-2.925s2.115,1.17,2.115,2.925C57.855-2.37,57.045-1.215,55.74-1.215ZM61.35,0h1.71V-5.85a2.817,2.817,0,0,1,2.025-1.125c.975,0,1.395.57,1.395,1.995V0h1.725V-5.19c0-2.1-.78-3.27-2.535-3.27a3.931,3.931,0,0,0-2.73,1.35h-.045L62.76-8.25H61.35ZM75.3-4.515,75.75-6c.36-1.2.705-2.415,1.02-3.675h.06C77.175-8.43,77.5-7.2,77.88-6l.435,1.485ZM79.665,0H81.51L77.85-11.04H75.84L72.18,0h1.77l.945-3.15h3.84Zm6.21.2a4.02,4.02,0,0,0,2.67-1.02l-.705-1.14a2.826,2.826,0,0,1-1.8.75c-1.38,0-2.325-1.155-2.325-2.895,0-1.755.99-2.925,2.37-2.925a2.161,2.161,0,0,1,1.485.645l.855-1.125A3.542,3.542,0,0,0,86.01-8.46a4.054,4.054,0,0,0-4.08,4.35C81.93-1.38,83.64.2,85.875.2Zm6.54,0a5.278,5.278,0,0,0,1.62-.3L93.72-1.38a2.46,2.46,0,0,1-.885.195c-.855,0-1.2-.51-1.2-1.5V-6.87H93.78V-8.25H91.635v-2.28H90.18l-.195,2.28-1.275.09v1.29h1.2V-2.7C89.91-.96,90.555.2,92.415.2ZM95.28,0h1.71V-8.25H95.28Zm.855-9.8a1.035,1.035,0,0,0,1.11-1.02,1.026,1.026,0,0,0-1.11-1.02,1.013,1.013,0,0,0-1.095,1.02A1.022,1.022,0,0,0,96.135-9.8ZM102.6.2a3.963,3.963,0,0,0,3.885-4.3c0-2.76-1.845-4.35-3.885-4.35s-3.885,1.59-3.885,4.35A3.963,3.963,0,0,0,102.6.2Zm0-1.41c-1.29,0-2.1-1.155-2.1-2.895,0-1.755.81-2.925,2.1-2.925s2.115,1.17,2.115,2.925C104.715-2.37,103.9-1.215,102.6-1.215ZM108.21,0h1.71V-5.85a2.817,2.817,0,0,1,2.025-1.125c.975,0,1.395.57,1.395,1.995V0h1.725V-5.19c0-2.1-.78-3.27-2.535-3.27a3.931,3.931,0,0,0-2.73,1.35h-.045l-.135-1.14h-1.41ZM119.5.2c2.04,0,3.135-1.125,3.135-2.5,0-1.56-1.275-2.07-2.43-2.505-.9-.33-1.755-.6-1.755-1.3,0-.57.42-1.02,1.32-1.02a3.087,3.087,0,0,1,1.845.72l.81-1.065a4.343,4.343,0,0,0-2.685-.975c-1.815,0-2.925,1.035-2.925,2.415s1.26,1.98,2.355,2.4c.9.345,1.83.675,1.83,1.425,0,.63-.465,1.11-1.455,1.11a3.657,3.657,0,0,1-2.34-.945l-.81,1.11A5.075,5.075,0,0,0,119.5.2Z" transform="translate(496.801 135.85)"/>
  <rect id="사각형_28" data-name="사각형 28" class="cls-9" width="203.853" height="61" transform="translate(117.073 100.001)"/>
  <rect id="사각형_29" data-name="사각형 29" class="cls-10" width="203.853" height="58" transform="translate(111.323 100.251)"/>
  <rect id="사각형_30" data-name="사각형 30" class="cls-11" width="203.853" height="58" transform="translate(111.323 100.251)"/>
  <path id="패스_55" data-name="패스 55" class="cls-9" d="M13618.048,1670.531h1.74v11.039h-1.74Zm4.186,2.79h1.409l.136,1.14h.045a3.929,3.929,0,0,1,2.729-1.35c1.755,0,2.535,1.17,2.535,3.27v5.189h-1.725v-4.979c0-1.425-.42-1.995-1.4-1.995a2.817,2.817,0,0,0-2.024,1.124v5.85h-1.71Zm8.5,4.139c0-2.684,1.694-4.349,3.54-4.349a3.183,3.183,0,0,1,2.22.93l-.075-1.365v-3.06h1.726v11.954h-1.41l-.15-.93h-.045a3.458,3.458,0,0,1-2.4,1.125C13632.073,1681.765,13630.738,1680.19,13630.738,1677.46Zm5.685,1.875V1675.3a2.587,2.587,0,0,0-1.814-.75c-1.155,0-2.085,1.095-2.085,2.879,0,1.875.734,2.91,2.024,2.91A2.423,2.423,0,0,0,13636.423,1679.335Zm3.436-1.875c0-2.684,1.83-4.349,3.765-4.349,2.19,0,3.36,1.575,3.36,3.914a4.482,4.482,0,0,1-.075.871h-5.355a2.492,2.492,0,0,0,2.55,2.519,3.507,3.507,0,0,0,1.966-.615l.6,1.095a5,5,0,0,1-2.79.87A3.963,3.963,0,0,1,13639.858,1677.46Zm5.64-.75c0-1.424-.646-2.249-1.845-2.249a2.237,2.237,0,0,0-2.115,2.249Zm3.12-3.389h1.41l.135,1.14h.045a3.931,3.931,0,0,1,2.73-1.35c1.755,0,2.534,1.17,2.534,3.27v5.189h-1.725v-4.979c0-1.425-.42-1.995-1.4-1.995a2.819,2.819,0,0,0-2.024,1.124v5.85h-1.71Zm9.33,5.549V1674.7h-1.2v-1.29l1.275-.09.194-2.28h1.455v2.28h2.146v1.38h-2.146v4.184c0,.99.345,1.5,1.2,1.5a2.457,2.457,0,0,0,.885-.2l.315,1.275a5.28,5.28,0,0,1-1.62.3C13658.593,1681.765,13657.948,1680.61,13657.948,1678.87Zm5.13-8.114a1.013,1.013,0,0,1,1.095-1.02,1.023,1.023,0,1,1-1.095,1.02Zm.24,2.565h1.71v8.249h-1.71Zm4.289-1.035c0-1.7.765-2.865,2.609-2.865a3.743,3.743,0,0,1,1.455.285l-.345,1.29a2.244,2.244,0,0,0-.9-.21c-.734,0-1.095.48-1.095,1.485v1.05H13671v1.38h-1.665v6.869h-1.725V1674.7h-1.124v-1.29l1.124-.09Zm4.949-1.53a1.114,1.114,0,1,1,1.11,1.02A1.027,1.027,0,0,1,13672.557,1670.756Zm.24,2.565h1.726v8.249h-1.726Zm3.436,4.139a4.053,4.053,0,0,1,4.079-4.349,3.54,3.54,0,0,1,2.415.945l-.854,1.125a2.162,2.162,0,0,0-1.485-.645c-1.38,0-2.37,1.17-2.37,2.924s.945,2.9,2.325,2.9a2.822,2.822,0,0,0,1.8-.75l.705,1.14a4.019,4.019,0,0,1-2.67,1.02C13677.942,1681.765,13676.232,1680.19,13676.232,1677.46Zm7.395,1.92c0-1.77,1.5-2.684,4.935-3.059-.015-.96-.359-1.8-1.574-1.8a4.54,4.54,0,0,0-2.386.84l-.645-1.17a6.317,6.317,0,0,1,3.33-1.08c2.055,0,3,1.305,3,3.494v4.965h-1.41l-.15-.945h-.045a4.1,4.1,0,0,1-2.625,1.14A2.279,2.279,0,0,1,13683.627,1679.38Zm4.935.06v-2.024c-2.444.3-3.27.915-3.27,1.844,0,.81.555,1.14,1.29,1.14A2.907,2.907,0,0,0,13688.562,1679.44Zm3.886-.57V1674.7h-1.2v-1.29l1.275-.09.194-2.28h1.455v2.28h2.146v1.38h-2.146v4.184c0,.99.345,1.5,1.2,1.5a2.457,2.457,0,0,0,.885-.2l.315,1.275a5.28,5.28,0,0,1-1.62.3C13693.092,1681.765,13692.447,1680.61,13692.447,1678.87Zm5.13-8.114a1.013,1.013,0,0,1,1.095-1.02,1.023,1.023,0,1,1-1.095,1.02Zm.24,2.565h1.71v8.249h-1.71Zm3.42,4.139c0-2.759,1.845-4.349,3.885-4.349s3.885,1.59,3.885,4.349a3.905,3.905,0,1,1-7.77,0Zm6,0c0-1.754-.811-2.924-2.115-2.924s-2.1,1.17-2.1,2.924.81,2.9,2.1,2.9S13707.237,1679.2,13707.237,1677.46Zm3.5-4.139h1.409l.136,1.14h.045a3.929,3.929,0,0,1,2.729-1.35c1.755,0,2.535,1.17,2.535,3.27v5.189h-1.725v-4.979c0-1.425-.42-1.995-1.4-1.995a2.817,2.817,0,0,0-2.024,1.124v5.85h-1.71Z" transform="translate(-13454.44 -1555.72)"/>
  <text id="_25" data-name=" " class="cls-12" transform="translate(267.948 125.85)"><tspan x="0" y="0"> </tspan></text>
  <path id="패스_23810" data-name="패스 23810" class="cls-9" d="M2.16-2.985a2.625,2.625,0,0,1,1.185-1.9,15.559,15.559,0,0,0,2.73,2.985,3.119,3.119,0,0,1-1.9.75A1.856,1.856,0,0,1,2.16-2.985Zm1.215-5.58A1.322,1.322,0,0,1,4.62-10.05c.675,0,.96.495.96,1.1,0,.915-.78,1.515-1.74,2.13A4.2,4.2,0,0,1,3.375-8.565Zm6.93,7.35A7.479,7.479,0,0,1,8.28-2.16,11.916,11.916,0,0,0,10.2-6.045H8.61a8.954,8.954,0,0,1-1.485,3.06A14.2,14.2,0,0,1,4.5-5.73C5.715-6.6,6.945-7.515,6.945-8.97a2.166,2.166,0,0,0-2.34-2.28A2.6,2.6,0,0,0,1.92-8.55a5.608,5.608,0,0,0,.72,2.49A3.844,3.844,0,0,0,.51-2.88,3.13,3.13,0,0,0,3.96.2,4.885,4.885,0,0,0,7.245-1.02,8.484,8.484,0,0,0,9.87.2Zm6.18-3.3L16.935-6c.36-1.2.7-2.415,1.02-3.675h.06C18.36-8.43,18.69-7.2,19.065-6L19.5-4.515ZM20.85,0h1.845l-3.66-11.04h-2.01L13.365,0h1.77l.945-3.15h3.84Zm5.775.2c2.04,0,3.135-1.125,3.135-2.5,0-1.56-1.275-2.07-2.43-2.505-.9-.33-1.755-.6-1.755-1.3,0-.57.42-1.02,1.32-1.02a3.087,3.087,0,0,1,1.845.72l.81-1.065a4.343,4.343,0,0,0-2.685-.975c-1.815,0-2.925,1.035-2.925,2.415s1.26,1.98,2.355,2.4c.9.345,1.83.675,1.83,1.425,0,.63-.465,1.11-1.455,1.11a3.657,3.657,0,0,1-2.34-.945l-.81,1.11A5.075,5.075,0,0,0,26.625.2Zm6.9,0c2.04,0,3.135-1.125,3.135-2.5,0-1.56-1.275-2.07-2.43-2.505-.9-.33-1.755-.6-1.755-1.3,0-.57.42-1.02,1.32-1.02a3.087,3.087,0,0,1,1.845.72l.81-1.065a4.343,4.343,0,0,0-2.685-.975c-1.815,0-2.925,1.035-2.925,2.415s1.26,1.98,2.355,2.4c.9.345,1.83.675,1.83,1.425,0,.63-.465,1.11-1.455,1.11a3.657,3.657,0,0,1-2.34-.945l-.81,1.11A5.075,5.075,0,0,0,33.525.2Zm8.1,0a5.005,5.005,0,0,0,2.79-.87l-.6-1.095a3.5,3.5,0,0,1-1.965.615,2.491,2.491,0,0,1-2.55-2.52h5.355a4.459,4.459,0,0,0,.075-.87c0-2.34-1.17-3.915-3.36-3.915C39.435-8.46,37.6-6.8,37.6-4.11A3.963,3.963,0,0,0,41.625.2ZM39.285-4.86A2.237,2.237,0,0,1,41.4-7.11c1.2,0,1.845.825,1.845,2.25ZM48.615.2c2.04,0,3.135-1.125,3.135-2.5,0-1.56-1.275-2.07-2.43-2.505-.9-.33-1.755-.6-1.755-1.3,0-.57.42-1.02,1.32-1.02a3.087,3.087,0,0,1,1.845.72l.81-1.065a4.343,4.343,0,0,0-2.685-.975c-1.815,0-2.925,1.035-2.925,2.415s1.26,1.98,2.355,2.4c.9.345,1.83.675,1.83,1.425,0,.63-.465,1.11-1.455,1.11a3.657,3.657,0,0,1-2.34-.945l-.81,1.11A5.075,5.075,0,0,0,48.615.2Zm6.9,0c2.04,0,3.135-1.125,3.135-2.5,0-1.56-1.275-2.07-2.43-2.505-.9-.33-1.755-.6-1.755-1.3,0-.57.42-1.02,1.32-1.02a3.087,3.087,0,0,1,1.845.72l.81-1.065a4.343,4.343,0,0,0-2.685-.975c-1.815,0-2.925,1.035-2.925,2.415s1.26,1.98,2.355,2.4c.9.345,1.83.675,1.83,1.425,0,.63-.465,1.11-1.455,1.11a3.657,3.657,0,0,1-2.34-.945l-.81,1.11A5.075,5.075,0,0,0,55.515.2ZM60.18,0h1.71V-5.85a2.785,2.785,0,0,1,1.86-1.125c.945,0,1.38.57,1.38,1.995V0h1.725V-5.85a2.754,2.754,0,0,1,1.86-1.125c.93,0,1.38.57,1.38,1.995V0H71.82V-5.19c0-2.1-.81-3.27-2.535-3.27A3.8,3.8,0,0,0,66.6-6.945,2.2,2.2,0,0,0,64.32-8.46a3.594,3.594,0,0,0-2.55,1.365h-.045L61.59-8.25H60.18ZM77.46.2a5.005,5.005,0,0,0,2.79-.87l-.6-1.095a3.5,3.5,0,0,1-1.965.615,2.491,2.491,0,0,1-2.55-2.52H80.49a4.458,4.458,0,0,0,.075-.87c0-2.34-1.17-3.915-3.36-3.915C75.27-8.46,73.44-6.8,73.44-4.11A3.963,3.963,0,0,0,77.46.2ZM75.12-4.86a2.237,2.237,0,0,1,2.115-2.25c1.2,0,1.845.825,1.845,2.25ZM82.215,0h1.71V-5.85A2.817,2.817,0,0,1,85.95-6.975c.975,0,1.395.57,1.395,1.995V0H89.07V-5.19c0-2.1-.78-3.27-2.535-3.27a3.931,3.931,0,0,0-2.73,1.35H83.76l-.135-1.14h-1.41ZM94.05.2a5.278,5.278,0,0,0,1.62-.3L95.355-1.38a2.46,2.46,0,0,1-.885.195c-.855,0-1.2-.51-1.2-1.5V-6.87h2.145V-8.25H93.27v-2.28H91.815L91.62-8.25l-1.275.09v1.29h1.2V-2.7C91.545-.96,92.19.2,94.05.2Z" transform="translate(165.093 145.845)"/>
</svg>
