<svg id="구성_요소_47_1" data-name="구성 요소 47 – 1" xmlns="http://www.w3.org/2000/svg" width="61.119" height="61.758" viewBox="0 0 61.119 61.758">
  <defs>
    <style>
      .cls-1 {
        fill: #2b2e34;
      }

      .cls-2 {
        fill: none;
        stroke: #2b2e34;
      }

      .cls-3 {
        fill: #fff;
      }
    </style>
  </defs>
  <g id="그룹_245" data-name="그룹 245" transform="translate(49.623 55.043)">
    <path id="패스_374" data-name="패스 374" class="cls-1" d="M0,0H-33.757a1.7,1.7,0,0,0-1.705,1.691V6.215H1.705V1.691A1.7,1.7,0,0,0,0,0"/>
  </g>
  <g id="그룹_246" data-name="그룹 246" transform="translate(49.623 55.043)">
    <path id="패스_375" data-name="패스 375" class="cls-2" d="M0,0H-33.757a1.7,1.7,0,0,0-1.705,1.691V6.215H1.705V1.691A1.7,1.7,0,0,0,0,0Z"/>
  </g>
  <g id="그룹_247" data-name="그룹 247" transform="translate(45.001 28.647)">
    <path id="패스_376" data-name="패스 376" class="cls-1" d="M0,0C-.016-.247-.042-.491-.081-.731A8.269,8.269,0,0,0-8.365-7.607h-7.411A8.267,8.267,0,0,0-24.059-.74c-.04.249-.066.493-.082.74q-1.26,11.376-2.521,22.751H2.521Q1.261,11.387,0,.022V.011Z"/>
  </g>
  <g id="그룹_248" data-name="그룹 248" transform="translate(45.001 28.647)">
    <path id="패스_377" data-name="패스 377" class="cls-2" d="M0,0C-.016-.247-.042-.491-.081-.731A8.269,8.269,0,0,0-8.365-7.607h-7.411A8.267,8.267,0,0,0-24.059-.74c-.04.249-.066.493-.082.74q-1.26,11.376-2.521,22.751H2.521Q1.261,11.387,0,.022V0Z"/>
  </g>
  <g id="그룹_249" data-name="그룹 249" transform="translate(47.437 50.917)">
    <path id="패스_378" data-name="패스 378" class="cls-3" d="M0,0H-33.757a1.7,1.7,0,0,0-1.705,1.691V6.215H1.705V1.691A1.7,1.7,0,0,0,0,0"/>
  </g>
  <g id="그룹_250" data-name="그룹 250" transform="translate(47.437 50.917)">
    <path id="패스_379" data-name="패스 379" class="cls-2" d="M0,0H-33.757a1.7,1.7,0,0,0-1.705,1.691V6.215H1.705V1.691A1.7,1.7,0,0,0,0,0Z"/>
  </g>
  <g id="그룹_251" data-name="그룹 251" transform="translate(42.686 24.533)">
    <path id="패스_380" data-name="패스 380" class="cls-3" d="M0,0C-.016-.247-.042-.491-.081-.731A8.243,8.243,0,0,0-8.332-7.6h-7.382A8.24,8.24,0,0,0-23.963-.74c-.04.249-.066.493-.083.74l-2.511,22.739H2.512Q1.256,11.38,0,.022V.011ZM-42.686,6.081h11.407M-33.714-16-25.8-7.835M9.269-16.693,1.357-8.531M7.025,6.081H18.433m-30.06-19.7V-24.533"/>
  </g>
  <g id="그룹_252" data-name="그룹 252" transform="translate(42.686 24.533)">
    <path id="패스_381" data-name="패스 381" class="cls-2" d="M0,0C-.016-.247-.042-.491-.081-.731A8.243,8.243,0,0,0-8.332-7.6h-7.382A8.24,8.24,0,0,0-23.963-.74c-.04.249-.066.493-.083.74l-2.511,22.739H2.512Q1.256,11.38,0,.022V0ZM-42.686,6.081h11.407M-33.714-16-25.8-7.835M9.269-16.693,1.357-8.531M7.025,6.081H18.433m-30.06-19.7V-24.533"/>
  </g>
  <g id="그룹_253" data-name="그룹 253" transform="translate(47.437 50.917)">
    <path id="패스_382" data-name="패스 382" class="cls-3" d="M0,0H-33.757a1.7,1.7,0,0,0-1.705,1.691V6.215H1.705V1.691A1.7,1.7,0,0,0,0,0"/>
  </g>
  <g id="그룹_254" data-name="그룹 254" transform="translate(47.437 50.917)">
    <path id="패스_383" data-name="패스 383" class="cls-2" d="M0,0H-33.757a1.7,1.7,0,0,0-1.705,1.691V6.215H1.705V1.691A1.7,1.7,0,0,0,0,0Z"/>
  </g>
  <g id="그룹_255" data-name="그룹 255" transform="translate(42.686 24.533)">
    <path id="패스_384" data-name="패스 384" class="cls-3" d="M0,0C-.016-.247-.042-.491-.081-.731A8.243,8.243,0,0,0-8.332-7.6h-7.382A8.24,8.24,0,0,0-23.963-.74c-.04.249-.066.493-.083.74l-2.511,22.739H2.512Q1.256,11.38,0,.022V.011ZM-42.686,6.081h11.407M-33.714-16-25.8-7.835M9.269-16.693,1.357-8.531M7.025,6.081H18.433m-30.06-19.7V-24.533"/>
  </g>
  <g id="그룹_256" data-name="그룹 256" transform="translate(42.686 24.533)">
    <path id="패스_385" data-name="패스 385" class="cls-2" d="M0,0C-.016-.247-.042-.491-.081-.731A8.243,8.243,0,0,0-8.332-7.6h-7.382A8.24,8.24,0,0,0-23.963-.74c-.04.249-.066.493-.083.74l-2.511,22.739H2.512Q1.256,11.38,0,.022V0ZM-42.686,6.081h11.407M-33.714-16-25.8-7.835M9.269-16.693,1.357-8.531M7.025,6.081H18.433m-30.06-19.7V-24.533"/>
  </g>
</svg>
