<?xml version="1.0" encoding="utf-8"?>
<!-- Generator: Adobe Illustrator 16.0.0, SVG Export Plug-In . SVG Version: 6.00 Build 0)  -->
<!DOCTYPE svg PUBLIC "-//W3C//DTD SVG 1.0//EN" "http://www.w3.org/TR/2001/REC-SVG-20010904/DTD/svg10.dtd">
<svg version="1.0" id="Layer_1" xmlns="http://www.w3.org/2000/svg" xmlns:xlink="http://www.w3.org/1999/xlink" x="0px" y="0px"
	 width="193.716px" height="44.429px" viewBox="0 0 193.716 44.429" enable-background="new 0 0 193.716 44.429"
	 xml:space="preserve">
<g>
	<g>
		<path fill="#00A7E0" d="M157.431,20.664v-4.445c0-11.02-7.949-16.01-15.314-16.01c-10.168,0-17.223,8.059-17.223,17.75
			c0,10.336,6.636,16.709,14.917,16.709c6.052,0,9.496-2.404,11.726-4.576c0.629,1.09,1.167,1.852,1.691,2.508
			c0.853,1.027,1.803,1.51,2.907,1.51c0.611,0,1.251-0.146,1.936-0.439c1.339-0.582,2.198-1.434,2.475-2.488
			c0.293-1.09-0.063-2.139-0.5-2.754C158.518,26.143,157.431,22.949,157.431,20.664 M148.413,17.107
			c-0.317,5.541-3.389,10.32-8.679,9.826c-4.12-0.371-6.541-4.768-5.787-10.189c0.766-5.416,4.145-9.219,8.491-8.861
			C146.694,8.105,148.696,11.678,148.413,17.107"/>
		<path fill="#00A7E0" d="M170.741,38.01c-1.632,4.191-1.034,5.359,0.607,6.01c2.841,1.131,6.807-0.078,8.208-3.676l13.197-33.928
			c1.629-4.186,1.034-5.353-0.611-6.004c-2.838-1.132-6.803,0.077-8.204,3.676l-4.776,12.293l-6.926-13.006
			c-1.796-3.381-5.87-4.115-8.564-2.676c-1.562,0.832-2.022,2.041,0.07,5.968l11.091,20.839L170.741,38.01z"/>
		<path fill="#00A7E0" d="M116.389,0.216c-2.959,0-4.581,1.321-5.049,3.746l-3.417,19.19c-0.021,0.111-0.182,0.117-0.21,0.008
			l-4.431-18.332c-0.828-3.187-1.774-4.612-4.486-4.612c-2.719,0-3.662,1.426-4.493,4.612l-4.43,18.332
			c-0.024,0.109-0.188,0.104-0.21-0.008l-3.417-19.19C85.785,1.538,84.16,0.216,81.2,0.216c-2.096,0-4.004,1.125-3.592,2.936
			l6.14,27.1c0.576,2.551,2.868,4.123,5.706,4.123c2.956,0,5.304-1.67,5.943-4.123l3.399-14.348l3.396,14.348
			c0.643,2.453,2.987,4.123,5.947,4.123c2.833,0,5.122-1.572,5.702-4.123l6.143-27.1C120.39,1.341,118.486,0.216,116.389,0.216"/>
		<path fill="#00A7E0" d="M55.071,0.208c-11.513,0-17.53,7.717-17.53,17.227s6.017,17.232,17.53,17.232
			c11.517,0,17.53-7.723,17.53-17.232S66.588,0.208,55.071,0.208 M55.071,26.996c-4.909,0-8.526-3.557-8.526-9.561
			c0-5.996,3.617-9.561,8.526-9.561c4.913,0,8.526,3.564,8.526,9.561C63.597,23.439,59.984,26.996,55.071,26.996"/>
		<path fill="#00A7E0" d="M29.341,24.229c-3.25,3.047-8.491,3.732-11.618,3.313c-4.448-0.588-8.721-3.369-8.721-10.105
			c0-5.996,3.62-9.561,8.529-9.561c3.278,0,5.36,1.063,7.722,2.914c2.928,2.299,6.786-0.699,6.332-3.535
			c-0.493-3.139-6.191-7.045-14.054-7.045C6.018,0.208,0,7.926,0,17.436c0,8.973,5.312,17.232,18.362,17.232
			c6.89,0,11.845-2.844,12.558-6.707C31.234,26.275,30.193,24.725,29.341,24.229"/>
	</g>
</g>
</svg>
