<svg id="구성_요소_32_1" data-name="구성 요소 32 – 1" xmlns="http://www.w3.org/2000/svg" xmlns:xlink="http://www.w3.org/1999/xlink" width="394" height="210.712" viewBox="0 0 394 210.712">
  <defs>
    <clipPath id="clip-path">
      <path id="패스_66" data-name="패스 66" d="M0,0H133.184V53.34H0Z" transform="translate(501.401 1342.29)" fill="none"/>
    </clipPath>
  </defs>
  <g id="그룹_62" data-name="그룹 62" transform="translate(-492 -1341.791)" opacity="0.7" style="mix-blend-mode: multiply;isolation: isolate">
    <g id="그룹_61" data-name="그룹 61">
      <rect id="사각형_47" data-name="사각형 47" width="394" height="210.712" transform="translate(492 1341.791)" fill="#8ba7b2" opacity="0.7" style="mix-blend-mode: multiply;isolation: isolate"/>
    </g>
  </g>
  <g id="그룹_111" data-name="그룹 111" transform="translate(-492 -1341.791)" opacity="0.9">
    <g id="그룹_110" data-name="그룹 110">
      <g id="마스크_그룹_2" data-name="마스크 그룹 2" clip-path="url(#clip-path)">
        <path id="패스_27" data-name="패스 27" d="M524.921,1364.691h-3.745v-2.215h10.191v2.215h-3.781V1375.8h-2.665ZM541.14,1375.8l-2.737-5.041h-1.854v5.041h-2.665v-13.324h4.645c2.791,0,5.006.972,5.006,4.033a3.813,3.813,0,0,1-2.539,3.835l3.115,5.456Zm-4.591-7.148h1.728c1.711,0,2.647-.72,2.647-2.143,0-1.44-.936-1.926-2.647-1.926h-1.728Zm9.9,1.152v-7.328h2.665v7.562c0,2.773.954,3.71,2.521,3.71,1.584,0,2.593-.937,2.593-3.71v-7.562h2.556v7.328c0,4.43-1.89,6.248-5.149,6.248C548.393,1376.052,546.448,1374.234,546.448,1369.8Zm12.8,4.3,1.53-1.836a5.247,5.247,0,0,0,3.385,1.477c1.387,0,2.125-.6,2.125-1.531,0-.99-.81-1.3-2-1.8l-1.782-.757a3.86,3.86,0,0,1-2.7-3.583c0-2.179,1.909-3.853,4.61-3.853a5.912,5.912,0,0,1,4.177,1.711l-1.351,1.674a4.249,4.249,0,0,0-2.826-1.1c-1.171,0-1.927.522-1.927,1.4,0,.954.954,1.3,2.089,1.747l1.746.738a3.68,3.68,0,0,1,2.683,3.619c0,2.179-1.819,4.033-4.9,4.033A7.1,7.1,0,0,1,559.246,1374.107Zm14.707-9.416h-3.745v-2.215H580.4v2.215h-3.781V1375.8h-2.665Z" fill="#fff"/>
      </g>
    </g>
  </g>
  <g id="그룹_211" data-name="그룹 211" transform="translate(-2738.756 -152.379)">
    <g id="그룹_209" data-name="그룹 209">
      <path id="패스_654" data-name="패스 654" d="M2778.129,221.172l-2.737-5.041h-1.855v5.041h-2.664V207.848h4.645c2.791,0,5,.972,5,4.033a3.812,3.812,0,0,1-2.539,3.835l3.116,5.456Zm-4.592-7.149h1.729c1.711,0,2.646-.719,2.646-2.142,0-1.441-.935-1.927-2.646-1.927h-1.729Z" fill="#fff"/>
      <path id="패스_655" data-name="패스 655" d="M2781.744,216.148c0-3.277,2.287-5.311,4.7-5.311,2.774,0,4.213,2.034,4.213,4.825a4.863,4.863,0,0,1-.126,1.206h-6.212a2.651,2.651,0,0,0,2.791,2.522,4.155,4.155,0,0,0,2.269-.7l.9,1.62a6.359,6.359,0,0,1-3.528,1.116C2783.94,221.424,2781.744,219.461,2781.744,216.148Zm6.644-1.026c0-1.368-.613-2.232-1.909-2.232a2.272,2.272,0,0,0-2.2,2.232Z" fill="#fff"/>
      <path id="패스_656" data-name="패스 656" d="M2791.842,216.148a5.034,5.034,0,0,1,5.15-5.311,4.407,4.407,0,0,1,2.934,1.116l-1.26,1.711a2.3,2.3,0,0,0-1.549-.667c-1.53,0-2.574,1.243-2.574,3.151,0,1.891,1.044,3.116,2.5,3.116a3.132,3.132,0,0,0,1.963-.811l1.045,1.746a5,5,0,0,1-3.295,1.225C2793.967,221.424,2791.842,219.479,2791.842,216.148Z" fill="#fff"/>
      <path id="패스_657" data-name="패스 657" d="M2800.428,216.148c0-3.277,2.287-5.311,4.7-5.311,2.773,0,4.213,2.034,4.213,4.825a4.922,4.922,0,0,1-.126,1.206H2803a2.651,2.651,0,0,0,2.791,2.522,4.158,4.158,0,0,0,2.269-.7l.9,1.62a6.36,6.36,0,0,1-3.528,1.116C2802.624,221.424,2800.428,219.461,2800.428,216.148Zm6.643-1.026c0-1.368-.612-2.232-1.908-2.232a2.272,2.272,0,0,0-2.2,2.232Z" fill="#fff"/>
      <path id="패스_658" data-name="패스 658" d="M2810.9,208.028a1.582,1.582,0,0,1,3.151,0,1.582,1.582,0,0,1-3.151,0Zm.252,3.061h2.629v10.083h-2.629Z" fill="#fff"/>
      <path id="패스_659" data-name="패스 659" d="M2815.115,211.089h2.665l1.477,5.023c.252.991.54,2.034.809,3.061h.09c.253-1.027.541-2.07.811-3.061l1.476-5.023h2.539l-3.367,10.083h-3.06Z" fill="#fff"/>
      <path id="패스_660" data-name="패스 660" d="M2825.537,216.148c0-3.277,2.287-5.311,4.7-5.311,2.774,0,4.214,2.034,4.214,4.825a4.91,4.91,0,0,1-.126,1.206h-6.212a2.649,2.649,0,0,0,2.79,2.522,4.162,4.162,0,0,0,2.27-.7l.9,1.62a6.362,6.362,0,0,1-3.529,1.116C2827.734,221.424,2825.537,219.461,2825.537,216.148Zm6.645-1.026c0-1.368-.613-2.232-1.909-2.232a2.273,2.273,0,0,0-2.2,2.232Z" fill="#fff"/>
      <path id="패스_661" data-name="패스 661" d="M2835.689,216.148c0-3.294,2.053-5.311,4.231-5.311a3.467,3.467,0,0,1,2.557,1.1l-.108-1.585V206.8h2.647v14.368h-2.143l-.216-1.044h-.053a4.188,4.188,0,0,1-2.791,1.3C2837.31,221.424,2835.689,219.443,2835.689,216.148Zm6.68,2.053v-4.43a2.681,2.681,0,0,0-1.873-.755c-1.134,0-2.088,1.08-2.088,3.1,0,2.089.756,3.133,2.088,3.133A2.242,2.242,0,0,0,2842.369,218.2Z" fill="#fff"/>
      <path id="패스_662" data-name="패스 662" d="M2854.266,208.316a2.822,2.822,0,0,0-1.765,2.557.7.7,0,0,1,.2-.019,1.367,1.367,0,0,1,1.441,1.387,1.4,1.4,0,0,1-1.441,1.513c-1.152,0-1.746-.9-1.746-2.431a4.478,4.478,0,0,1,2.7-4.177Zm4.5,0a2.823,2.823,0,0,0-1.766,2.557.708.708,0,0,1,.2-.019,1.367,1.367,0,0,1,1.44,1.387,1.4,1.4,0,0,1-1.44,1.513c-1.152,0-1.747-.9-1.747-2.431a4.476,4.476,0,0,1,2.7-4.177Z" fill="#fff"/>
      <path id="패스_663" data-name="패스 663" d="M2860.781,214.563c0-4.392,2.826-6.967,6.194-6.967a5.433,5.433,0,0,1,3.907,1.711l-1.4,1.692a3.437,3.437,0,0,0-2.449-1.116c-2.017,0-3.529,1.728-3.529,4.591,0,2.9,1.368,4.645,3.475,4.645a3.7,3.7,0,0,0,2.754-1.314l1.405,1.656a5.392,5.392,0,0,1-4.249,1.963C2863.518,221.424,2860.781,219.012,2860.781,214.563Z" fill="#fff"/>
      <path id="패스_664" data-name="패스 664" d="M2872.913,207.848h8.175v2.215h-5.51v3.079h4.682v2.232h-4.682v3.565h5.707v2.233h-8.372Z" fill="#fff"/>
      <path id="패스_665" data-name="패스 665" d="M2882.759,219.479l1.53-1.836a5.242,5.242,0,0,0,3.385,1.476c1.387,0,2.125-.594,2.125-1.53,0-.99-.811-1.3-2-1.8l-1.783-.756a3.86,3.86,0,0,1-2.7-3.583c0-2.178,1.91-3.853,4.61-3.853a5.912,5.912,0,0,1,4.178,1.711l-1.351,1.673a4.252,4.252,0,0,0-2.827-1.1c-1.17,0-1.926.521-1.926,1.4,0,.954.954,1.3,2.088,1.746l1.747.738a3.683,3.683,0,0,1,2.683,3.62c0,2.178-1.819,4.033-4.9,4.033A7.1,7.1,0,0,1,2882.759,219.479Z" fill="#fff"/>
      <path id="패스_666" data-name="패스 666" d="M2898.257,207.848h2.665v13.324h-2.665Z" fill="#fff"/>
      <path id="패스_667" data-name="패스 667" d="M2903.639,211.089h2.16l.18,1.332h.072a4.648,4.648,0,0,1,3.277-1.584c2.179,0,3.115,1.513,3.115,4.051v6.284H2909.8v-5.96c0-1.548-.433-2.107-1.423-2.107a2.894,2.894,0,0,0-2.1,1.135v6.932h-2.629Z" fill="#fff"/>
      <path id="패스_668" data-name="패스 668" d="M2914.834,211.089h2.16l.181,1.332h.071a4.649,4.649,0,0,1,3.277-1.584c2.179,0,3.116,1.513,3.116,4.051v6.284h-2.647v-5.96c0-1.548-.432-2.107-1.423-2.107a2.9,2.9,0,0,0-2.106,1.135v6.932h-2.629Z" fill="#fff"/>
      <path id="패스_669" data-name="패스 669" d="M2925.4,216.148c0-3.367,2.324-5.311,4.844-5.311s4.843,1.944,4.843,5.311a4.861,4.861,0,1,1-9.687,0Zm6.987,0c0-1.908-.775-3.151-2.143-3.151s-2.142,1.243-2.142,3.151c0,1.891.774,3.116,2.142,3.116S2932.386,218.039,2932.386,216.148Z" fill="#fff"/>
      <path id="패스_670" data-name="패스 670" d="M2935.623,211.089h2.665l1.477,5.023c.252.991.54,2.034.809,3.061h.09c.253-1.027.541-2.07.811-3.061l1.476-5.023h2.539l-3.367,10.083h-3.06Z" fill="#fff"/>
      <path id="패스_671" data-name="패스 671" d="M2945.9,218.436c0-2.162,1.746-3.3,5.8-3.728-.036-.99-.469-1.747-1.711-1.747a5.7,5.7,0,0,0-2.772.955l-.954-1.747a8.054,8.054,0,0,1,4.213-1.332c2.556,0,3.871,1.53,3.871,4.447v5.888h-2.16l-.2-1.08h-.052a4.745,4.745,0,0,1-3.043,1.332A2.865,2.865,0,0,1,2945.9,218.436Zm5.8-.073v-2.035c-2.449.324-3.277.99-3.277,1.891,0,.793.558,1.135,1.332,1.135A2.675,2.675,0,0,0,2951.7,218.363Z" fill="#fff"/>
      <path id="패스_672" data-name="패스 672" d="M2956.737,217.643v-4.465h-1.423v-1.963l1.549-.126.307-2.7h2.215v2.7h2.484v2.089h-2.484v4.465c0,1.152.468,1.692,1.368,1.692a2.927,2.927,0,0,0,.99-.216l.433,1.927a6.526,6.526,0,0,1-2.125.378C2957.656,221.424,2956.737,219.911,2956.737,217.643Z" fill="#fff"/>
      <path id="패스_673" data-name="패스 673" d="M2963.307,208.028a1.582,1.582,0,0,1,3.151,0,1.582,1.582,0,0,1-3.151,0Zm.252,3.061h2.629v10.083h-2.629Z" fill="#fff"/>
      <path id="패스_674" data-name="패스 674" d="M2968.059,216.148c0-3.367,2.322-5.311,4.843-5.311s4.844,1.944,4.844,5.311a4.861,4.861,0,1,1-9.687,0Zm6.986,0c0-1.908-.774-3.151-2.143-3.151s-2.142,1.243-2.142,3.151c0,1.891.773,3.116,2.142,3.116S2975.045,218.039,2975.045,216.148Z" fill="#fff"/>
      <path id="패스_675" data-name="패스 675" d="M2979.615,211.089h2.16l.18,1.332h.072a4.65,4.65,0,0,1,3.278-1.584c2.178,0,3.115,1.513,3.115,4.051v6.284h-2.648v-5.96c0-1.548-.432-2.107-1.422-2.107a2.9,2.9,0,0,0-2.106,1.135v6.932h-2.629Z" fill="#fff"/>
      <path id="패스_676" data-name="패스 676" d="M3001.018,217.751H2996.7l-.936,3.421h-2.7l4.267-13.324h3.133l4.285,13.324h-2.79Zm-.577-2.07-.4-1.459c-.414-1.387-.775-2.917-1.171-4.358h-.071c-.343,1.459-.739,2.971-1.135,4.358l-.4,1.459Z" fill="#fff"/>
      <path id="패스_677" data-name="패스 677" d="M3004.67,211.089h2.646l1.1,4.987c.2.973.323,1.945.5,2.936h.072c.2-.991.377-1.982.629-2.936l1.207-4.987h2.359l1.26,4.987c.235.973.414,1.945.63,2.936h.091c.18-.991.306-1.963.5-2.936l1.1-4.987h2.449l-2.485,10.083h-3.115l-1.062-4.394c-.217-.954-.378-1.872-.577-2.934h-.089c-.2,1.062-.342,2-.559,2.934l-1.026,4.394h-3.025Z" fill="#fff"/>
      <path id="패스_678" data-name="패스 678" d="M3020.078,218.436c0-2.162,1.746-3.3,5.8-3.728-.035-.99-.467-1.747-1.71-1.747a5.693,5.693,0,0,0-2.772.955l-.955-1.747a8.056,8.056,0,0,1,4.213-1.332c2.557,0,3.871,1.53,3.871,4.447v5.888h-2.161l-.2-1.08h-.055a4.737,4.737,0,0,1-3.043,1.332A2.863,2.863,0,0,1,3020.078,218.436Zm5.8-.073v-2.035c-2.448.324-3.276.99-3.276,1.891,0,.793.557,1.135,1.333,1.135A2.67,2.67,0,0,0,3025.875,218.363Z" fill="#fff"/>
      <path id="패스_679" data-name="패스 679" d="M3030.878,211.089h2.161l.18,1.782h.072a3.492,3.492,0,0,1,2.862-2.034,2.858,2.858,0,0,1,1.189.216l-.468,2.287a3.156,3.156,0,0,0-1.044-.162c-.793,0-1.747.521-2.323,1.98v6.014h-2.629Z" fill="#fff"/>
      <path id="패스_680" data-name="패스 680" d="M3037.592,216.148c0-3.294,2.053-5.311,4.23-5.311a3.467,3.467,0,0,1,2.557,1.1l-.108-1.585V206.8h2.647v14.368h-2.143l-.215-1.044h-.054a4.184,4.184,0,0,1-2.791,1.3C3039.212,221.424,3037.592,219.443,3037.592,216.148Zm6.679,2.053v-4.43a2.682,2.682,0,0,0-1.873-.755c-1.133,0-2.087,1.08-2.087,3.1,0,2.089.755,3.133,2.087,3.133A2.241,2.241,0,0,0,3044.271,218.2Z" fill="#fff"/>
      <path id="패스_681" data-name="패스 681" d="M3049.382,212.385a2.828,2.828,0,0,0,1.747-2.574.657.657,0,0,1-.181.017,1.365,1.365,0,0,1-1.44-1.386,1.4,1.4,0,0,1,1.44-1.512c1.135,0,1.747.9,1.747,2.448a4.424,4.424,0,0,1-2.718,4.159Zm4.5,0a2.828,2.828,0,0,0,1.747-2.574.65.65,0,0,1-.181.017,1.365,1.365,0,0,1-1.439-1.386,1.4,1.4,0,0,1,1.439-1.512c1.135,0,1.747.9,1.747,2.448a4.424,4.424,0,0,1-2.718,4.159Z" fill="#fff"/>
    </g>
    <g id="그룹_210" data-name="그룹 210">
      <path id="패스_682" data-name="패스 682" d="M2776.04,231.86a3.288,3.288,0,0,0-1.062-.215c-.792,0-1.224.467-1.224,1.584v.864h1.89v2.089h-1.89v7.994h-2.648v-7.994h-1.35v-1.963l1.35-.109v-.828c0-2.106.972-3.726,3.511-3.726a5.254,5.254,0,0,1,1.908.36Z" fill="#fff"/>
      <path id="패스_683" data-name="패스 683" d="M2776.164,239.152c0-3.367,2.322-5.311,4.844-5.311s4.843,1.944,4.843,5.311a4.861,4.861,0,1,1-9.687,0Zm6.986,0c0-1.908-.775-3.151-2.142-3.151s-2.143,1.243-2.143,3.151c0,1.891.774,3.116,2.143,3.116S2783.15,241.043,2783.15,239.152Z" fill="#fff"/>
      <path id="패스_684" data-name="패스 684" d="M2787.721,234.093h2.16l.18,1.782h.072a3.492,3.492,0,0,1,2.863-2.034,2.849,2.849,0,0,1,1.188.216l-.468,2.287a3.152,3.152,0,0,0-1.044-.162c-.793,0-1.746.521-2.322,1.98v6.014h-2.629Z" fill="#fff"/>
      <path id="패스_685" data-name="패스 685" d="M2798.016,242.609l1.224-1.692a4.144,4.144,0,0,0,2.935,1.351,2.238,2.238,0,0,0,2.358-2.45,2.156,2.156,0,0,0-2.25-2.412,3.19,3.19,0,0,0-2,.7l-1.206-.793.36-6.463h7.13v2.214h-4.843l-.252,2.828a3.442,3.442,0,0,1,1.6-.378,3.868,3.868,0,0,1,4.1,4.23,4.5,4.5,0,0,1-4.663,4.682A6.068,6.068,0,0,1,2798.016,242.609Z" fill="#fff"/>
      <path id="패스_686" data-name="패스 686" d="M2812.343,239.152a5.034,5.034,0,0,1,5.149-5.311,4.414,4.414,0,0,1,2.936,1.116l-1.261,1.711a2.3,2.3,0,0,0-1.548-.667c-1.531,0-2.575,1.243-2.575,3.151,0,1.891,1.044,3.116,2.5,3.116a3.136,3.136,0,0,0,1.963-.811l1.044,1.746a5,5,0,0,1-3.3,1.225C2814.468,244.428,2812.343,242.483,2812.343,239.152Z" fill="#fff"/>
      <path id="패스_687" data-name="패스 687" d="M2820.929,239.152c0-3.367,2.323-5.311,4.843-5.311s4.843,1.944,4.843,5.311a4.861,4.861,0,1,1-9.686,0Zm6.986,0c0-1.908-.774-3.151-2.143-3.151s-2.142,1.243-2.142,3.151c0,1.891.774,3.116,2.142,3.116S2827.915,241.043,2827.915,239.152Z" fill="#fff"/>
      <path id="패스_688" data-name="패스 688" d="M2832.484,234.093h2.162l.18,1.332h.071a4.65,4.65,0,0,1,3.278-1.584c2.179,0,3.114,1.513,3.114,4.051v6.284h-2.646v-5.96c0-1.548-.432-2.107-1.422-2.107a2.9,2.9,0,0,0-2.108,1.135v6.932h-2.629Z" fill="#fff"/>
      <path id="패스_689" data-name="패스 689" d="M2842.727,243.006l1.206-1.657a4.376,4.376,0,0,0,2.7,1.1c1.009,0,1.458-.431,1.458-1.062,0-.756-1.044-1.1-2.107-1.513-1.278-.485-2.755-1.26-2.755-2.934,0-1.819,1.477-3.1,3.746-3.1a5.642,5.642,0,0,1,3.438,1.242l-1.187,1.6a3.888,3.888,0,0,0-2.179-.865c-.9,0-1.333.4-1.333.973,0,.738.99,1.008,2.053,1.4,1.333.5,2.808,1.17,2.808,3.043,0,1.765-1.386,3.187-4.014,3.187A6.352,6.352,0,0,1,2842.727,243.006Z" fill="#fff"/>
      <path id="패스_690" data-name="패스 690" d="M2851.6,239.152c0-3.277,2.287-5.311,4.7-5.311,2.772,0,4.213,2.034,4.213,4.825a4.959,4.959,0,0,1-.126,1.206h-6.212a2.65,2.65,0,0,0,2.791,2.522,4.149,4.149,0,0,0,2.268-.7l.9,1.621a6.359,6.359,0,0,1-3.529,1.116C2853.8,244.428,2851.6,242.465,2851.6,239.152Zm6.643-1.026c0-1.368-.611-2.232-1.908-2.232a2.271,2.271,0,0,0-2.2,2.232Z" fill="#fff"/>
      <path id="패스_691" data-name="패스 691" d="M2861.7,239.152a5.034,5.034,0,0,1,5.15-5.311,4.409,4.409,0,0,1,2.935,1.116l-1.261,1.711a2.293,2.293,0,0,0-1.547-.667c-1.532,0-2.576,1.243-2.576,3.151,0,1.891,1.044,3.116,2.5,3.116a3.134,3.134,0,0,0,1.963-.811l1.044,1.746a5,5,0,0,1-3.3,1.225C2863.823,244.428,2861.7,242.483,2861.7,239.152Z" fill="#fff"/>
      <path id="패스_692" data-name="패스 692" d="M2871.347,240.4v-6.3h2.646v5.96c0,1.566.433,2.106,1.405,2.106a2.427,2.427,0,0,0,2.052-1.261v-6.8h2.648v10.083h-2.161l-.2-1.441h-.072a4.048,4.048,0,0,1-3.223,1.693C2872.283,244.428,2871.347,242.915,2871.347,240.4Z" fill="#fff"/>
      <path id="패스_693" data-name="패스 693" d="M2882.938,240.646v-4.464h-1.422v-1.963l1.548-.126.307-2.7h2.215v2.7h2.484v2.089h-2.484v4.464c0,1.153.468,1.693,1.368,1.693a2.95,2.95,0,0,0,.99-.216l.433,1.927a6.552,6.552,0,0,1-2.125.378C2883.857,244.428,2882.938,242.915,2882.938,240.646Z" fill="#fff"/>
      <path id="패스_694" data-name="패스 694" d="M2889.508,231.032a1.582,1.582,0,0,1,3.151,0,1.582,1.582,0,0,1-3.151,0Zm.252,3.061h2.629v10.083h-2.629Z" fill="#fff"/>
      <path id="패스_695" data-name="패스 695" d="M2893.72,234.093h2.665l1.476,5.023c.252.99.54,2.034.811,3.061h.09c.252-1.027.54-2.071.81-3.061l1.476-5.023h2.539l-3.367,10.083h-3.062Z" fill="#fff"/>
      <path id="패스_696" data-name="패스 696" d="M2904.142,239.152c0-3.277,2.287-5.311,4.7-5.311,2.772,0,4.213,2.034,4.213,4.825a4.959,4.959,0,0,1-.126,1.206h-6.212a2.65,2.65,0,0,0,2.791,2.522,4.147,4.147,0,0,0,2.268-.7l.9,1.621a6.359,6.359,0,0,1-3.529,1.116C2906.338,244.428,2904.142,242.465,2904.142,239.152Zm6.643-1.026c0-1.368-.611-2.232-1.908-2.232a2.271,2.271,0,0,0-2.2,2.232Z" fill="#fff"/>
      <path id="패스_697" data-name="패스 697" d="M2918.109,248.029l.487-2.035a2.662,2.662,0,0,0,.7.126,1.929,1.929,0,0,0,1.89-1.53l.181-.594-3.926-9.9h2.665l1.6,4.681c.306.9.559,1.872.846,2.845h.089c.235-.936.487-1.908.721-2.845l1.387-4.681h2.539l-3.584,10.388c-.882,2.377-1.963,3.746-4.213,3.746A4.282,4.282,0,0,1,2918.109,248.029Z" fill="#fff"/>
      <path id="패스_698" data-name="패스 698" d="M2927.829,239.152c0-3.277,2.287-5.311,4.7-5.311,2.773,0,4.213,2.034,4.213,4.825a4.91,4.91,0,0,1-.126,1.206H2930.4a2.65,2.65,0,0,0,2.791,2.522,4.154,4.154,0,0,0,2.269-.7l.9,1.621a6.356,6.356,0,0,1-3.528,1.116C2930.025,244.428,2927.829,242.465,2927.829,239.152Zm6.644-1.026c0-1.368-.612-2.232-1.909-2.232a2.272,2.272,0,0,0-2.2,2.232Z" fill="#fff"/>
      <path id="패스_699" data-name="패스 699" d="M2937.819,241.439c0-2.161,1.746-3.295,5.8-3.727-.036-.99-.469-1.747-1.711-1.747a5.7,5.7,0,0,0-2.772.955l-.954-1.747a8.054,8.054,0,0,1,4.213-1.332c2.556,0,3.871,1.53,3.871,4.447v5.888h-2.16l-.2-1.08h-.052a4.745,4.745,0,0,1-3.043,1.332A2.865,2.865,0,0,1,2937.819,241.439Zm5.8-.072v-2.035c-2.449.324-3.277.99-3.277,1.891,0,.793.558,1.134,1.332,1.134A2.674,2.674,0,0,0,2943.617,241.367Z" fill="#fff"/>
      <path id="패스_700" data-name="패스 700" d="M2948.619,234.093h2.16l.181,1.782h.071a3.5,3.5,0,0,1,2.864-2.034,2.852,2.852,0,0,1,1.188.216l-.468,2.287a3.157,3.157,0,0,0-1.045-.162c-.792,0-1.746.521-2.322,1.98v6.014h-2.629Z" fill="#fff"/>
      <path id="패스_701" data-name="패스 701" d="M2955.027,243.006l1.2-1.657a4.384,4.384,0,0,0,2.7,1.1c1.008,0,1.459-.431,1.459-1.062,0-.756-1.045-1.1-2.108-1.513-1.277-.485-2.754-1.26-2.754-2.934,0-1.819,1.477-3.1,3.744-3.1a5.647,5.647,0,0,1,3.44,1.242l-1.188,1.6a3.886,3.886,0,0,0-2.179-.865c-.9,0-1.332.4-1.332.973,0,.738.99,1.008,2.052,1.4,1.332.5,2.809,1.17,2.809,3.043,0,1.765-1.387,3.187-4.016,3.187A6.356,6.356,0,0,1,2955.027,243.006Z" fill="#fff"/>
    </g>
  </g>
</svg>
