<svg id="구성_요소_43_1" data-name="구성 요소 43 – 1" xmlns="http://www.w3.org/2000/svg" width="245.838" height="152" viewBox="0 0 245.838 152">
  <g id="구성_요소_36_1" data-name="구성 요소 36 – 1">
    <g id="그룹_113" data-name="그룹 113" transform="translate(-178.083 -1950)" opacity="0.4" style="mix-blend-mode: multiply;isolation: isolate">
      <g id="그룹_112" data-name="그룹 112">
        <rect id="사각형_74" data-name="사각형 74" width="245.838" height="152" transform="translate(178.083 1950)" fill="#2b6a7e"/>
      </g>
    </g>
    <g id="그룹_272" data-name="그룹 272" transform="translate(369.102 -521.479)">
      <g id="그룹_265" data-name="그룹 265">
        <path id="패스_1395" data-name="패스 1395" d="M-311.03,559.418c4.714-3.617,7.038-6.244,7.4-8.512.24-1.511-.378-2.609-2.017-2.609a4.45,4.45,0,0,0-2.979,1.53l-.806-.935a6.007,6.007,0,0,1,4.2-1.945c2.358,0,3.59,1.548,3.217,3.9-.417,2.627-2.912,5.309-6.473,8.242.692-.054,1.515-.126,2.181-.126h3.655l-.226,1.422h-8.3Z" fill="#fff"/>
        <path id="패스_1396" data-name="패스 1396" d="M-300.413,553.749c.727-4.589,2.68-6.8,5.2-6.8,2.5,0,3.752,2.232,3.027,6.8-.726,4.589-2.691,6.875-5.193,6.875C-299.9,560.624-301.14,558.338-300.413,553.749Zm6.626,0c.61-3.851-.141-5.471-1.635-5.471-1.513,0-2.778,1.62-3.389,5.471-.615,3.888.128,5.562,1.641,5.562C-295.676,559.311-294.4,557.637-293.787,553.749Z" fill="#fff"/>
        <path id="패스_1397" data-name="패스 1397" d="M-290.916,559.021h2.936l1.559-9.842h-2.341l.165-1.044a9.657,9.657,0,0,0,2.885-.936h1.26l-1.872,11.822h2.646l-.217,1.369h-7.238Z" fill="#fff"/>
        <path id="패스_1398" data-name="패스 1398" d="M-280.8,558.248a2.508,2.508,0,0,0,2.055,1.008c1.711,0,3.41-1.4,4.185-5.507a4.879,4.879,0,0,1-3.3,1.639c-2.2,0-3.412-1.422-2.979-4.158a4.813,4.813,0,0,1,4.459-4.283c2.539,0,4.1,2.088,3.436,6.281-.847,5.344-3.477,7.4-5.962,7.4a3.552,3.552,0,0,1-2.955-1.351Zm6.436-5.848c.25-2.717-.53-4.157-2.223-4.157-1.26,0-2.42,1.188-2.705,2.987-.282,1.782.327,2.933,1.894,2.933A4.224,4.224,0,0,0-274.367,552.4Z" fill="#fff"/>
        <path id="패스_1399" data-name="패스 1399" d="M-267.7,553.8c.676-4.266,3.643-6.857,7.135-6.857a4.239,4.239,0,0,1,3.541,1.638l-1.071,1.08a3.122,3.122,0,0,0-2.664-1.26c-2.646,0-4.7,2.052-5.222,5.344-.527,3.329.709,5.416,3.536,5.416a4.158,4.158,0,0,0,2.517-.773l.548-3.455h-2.791l.219-1.385h4.321l-.878,5.542a6.579,6.579,0,0,1-4.329,1.53C-266.312,560.624-268.376,558.086-267.7,553.8Z" fill="#fff"/>
        <path id="패스_1400" data-name="패스 1400" d="M-253.853,547.2h1.674l-.875,5.525h6.158l.875-5.525h1.656l-2.089,13.191h-1.656l.986-6.227h-6.158l-.987,6.227h-1.673Z" fill="#fff"/>
        <path id="패스_1401" data-name="패스 1401" d="M-242.912,553.8c.676-4.266,3.642-6.857,7.136-6.857a4.237,4.237,0,0,1,3.54,1.638l-1.071,1.08a3.122,3.122,0,0,0-2.664-1.26c-2.646,0-4.7,2.052-5.221,5.344-.528,3.329.708,5.416,3.535,5.416a4.158,4.158,0,0,0,2.517-.773l.548-3.455h-2.791l.219-1.385h4.321l-.878,5.542a6.577,6.577,0,0,1-4.329,1.53C-241.525,560.624-243.59,558.086-242.912,553.8Z" fill="#fff"/>
        <path id="패스_1402" data-name="패스 1402" d="M-225.4,547.2h7.616l-.222,1.4h-5.942l-.656,4.138h5.006l-.225,1.422h-5.006l-.761,4.8h6.141l-.226,1.422h-7.814Z" fill="#fff"/>
        <path id="패스_1403" data-name="패스 1403" d="M-215.857,550.618h1.35l-.081,1.422h.054a5.167,5.167,0,0,1,3.308-1.674,2.135,2.135,0,0,1,2.4,1.872,5.59,5.59,0,0,1,3.52-1.872c2.017,0,2.76,1.332,2.364,3.833l-.981,6.191h-1.639l.947-5.975c.291-1.836-.163-2.609-1.406-2.609a4.374,4.374,0,0,0-2.7,1.493l-1.123,7.091h-1.638l.946-5.975c.291-1.836-.163-2.609-1.4-2.609a4.374,4.374,0,0,0-2.7,1.493l-1.123,7.091H-217.4Z" fill="#fff"/>
        <path id="패스_1404" data-name="패스 1404" d="M-199.55,550.618h1.639l-1.548,9.772H-201.1Zm.182-3.077a1.256,1.256,0,0,1,1.3-1.062.872.872,0,0,1,.966,1.062,1.3,1.3,0,0,1-1.3,1.062A.894.894,0,0,1-199.368,547.541Z" fill="#fff"/>
        <path id="패스_1405" data-name="패스 1405" d="M-197.429,559.273l.981-1.079a3.78,3.78,0,0,0,2.717,1.152,1.958,1.958,0,0,0,2.168-1.53c.157-.99-.924-1.439-1.939-1.853-1.288-.5-2.731-1.17-2.47-2.825.246-1.548,1.683-2.772,3.807-2.772a4.358,4.358,0,0,1,2.869,1.1l-.96,1.061a3.153,3.153,0,0,0-2.115-.863,1.8,1.8,0,0,0-2,1.4c-.148.936.86,1.279,1.892,1.693,1.337.539,2.813,1.114,2.519,2.969-.251,1.584-1.72,2.9-4.024,2.9A5.057,5.057,0,0,1-197.429,559.273Z" fill="#fff"/>
        <path id="패스_1406" data-name="패스 1406" d="M-189.347,559.273l.981-1.079a3.78,3.78,0,0,0,2.717,1.152,1.958,1.958,0,0,0,2.168-1.53c.157-.99-.924-1.439-1.939-1.853-1.288-.5-2.731-1.17-2.47-2.825.246-1.548,1.683-2.772,3.807-2.772a4.358,4.358,0,0,1,2.869,1.1l-.96,1.061a3.153,3.153,0,0,0-2.115-.863,1.8,1.8,0,0,0-2,1.4c-.148.936.86,1.279,1.892,1.693,1.338.539,2.813,1.114,2.519,2.969-.251,1.584-1.72,2.9-4.024,2.9A5.057,5.057,0,0,1-189.347,559.273Z" fill="#fff"/>
        <path id="패스_1407" data-name="패스 1407" d="M-178.8,550.618h1.639l-1.548,9.772h-1.639Zm.182-3.077a1.256,1.256,0,0,1,1.3-1.062.872.872,0,0,1,.967,1.062,1.3,1.3,0,0,1-1.3,1.062A.894.894,0,0,1-178.614,547.541Z" fill="#fff"/>
        <path id="패스_1408" data-name="패스 1408" d="M-175.72,555.513c.516-3.257,2.958-5.147,5.354-5.147s4.238,1.89,3.721,5.147a5.66,5.66,0,0,1-5.346,5.111C-174.387,560.624-176.232,558.752-175.72,555.513Zm7.383,0c.357-2.249-.554-3.78-2.246-3.78s-3.069,1.531-3.426,3.78.541,3.743,2.235,3.743S-168.693,557.762-168.337,555.513Z" fill="#fff"/>
        <path id="패스_1409" data-name="패스 1409" d="M-163.641,550.618h1.351l-.078,1.4h.054a5.6,5.6,0,0,1,3.539-1.656c2.052,0,2.778,1.332,2.381,3.833l-.98,6.191h-1.639l.947-5.975c.291-1.836-.145-2.609-1.442-2.609-1.008,0-1.772.5-2.919,1.493l-1.123,7.091h-1.638Z" fill="#fff"/>
      </g>
      <g id="그룹_266" data-name="그룹 266">
        <path id="패스_1410" data-name="패스 1410" d="M-222.416,569.2h1.674l-2.089,13.191h-1.674Z" fill="#fff"/>
        <path id="패스_1411" data-name="패스 1411" d="M-218.188,572.615h1.351l-.078,1.4h.054a5.593,5.593,0,0,1,3.539-1.657c2.052,0,2.778,1.332,2.382,3.833l-.981,6.191h-1.639l.946-5.975c.291-1.835-.144-2.608-1.441-2.608-1.008,0-1.772.5-2.919,1.492l-1.123,7.091h-1.638Z" fill="#fff"/>
        <path id="패스_1412" data-name="패스 1412" d="M-208.331,579.363l.858-5.417h-1.458l.2-1.241,1.544-.09.631-2.735h1.369l-.434,2.735h2.647l-.211,1.331h-2.646l-.864,5.452c-.191,1.206.079,1.89,1.214,1.89a3.826,3.826,0,0,0,1.155-.252l.131,1.224a6.775,6.775,0,0,1-1.858.36C-208.145,582.62-208.642,581.324-208.331,579.363Z" fill="#fff"/>
        <path id="패스_1413" data-name="패스 1413" d="M-202.908,577.509c.5-3.166,2.958-5.147,5.227-5.147,2.485,0,3.6,1.8,3.162,4.589a6.743,6.743,0,0,1-.22.936h-6.59c-.222,2.088.846,3.42,2.7,3.42a4.8,4.8,0,0,0,2.571-.775l.423,1.08a6.628,6.628,0,0,1-3.4,1.008C-201.628,582.62-203.418,580.73-202.908,577.509Zm6.986-.792c.314-1.979-.419-3.041-1.949-3.041a3.668,3.668,0,0,0-3.29,3.041Z" fill="#fff"/>
        <path id="패스_1414" data-name="패스 1414" d="M-191.764,572.615h1.35l-.077,1.4h.053a5.6,5.6,0,0,1,3.54-1.657c2.052,0,2.777,1.332,2.381,3.833l-.98,6.191h-1.639l.946-5.975c.291-1.835-.144-2.608-1.441-2.608-1.008,0-1.772.5-2.919,1.492l-1.123,7.091h-1.639Z" fill="#fff"/>
        <path id="패스_1415" data-name="패스 1415" d="M-183.6,581.27l.981-1.08a3.78,3.78,0,0,0,2.717,1.152,1.958,1.958,0,0,0,2.168-1.529c.157-.991-.924-1.44-1.939-1.854-1.289-.5-2.732-1.17-2.47-2.824.245-1.549,1.682-2.773,3.806-2.773a4.349,4.349,0,0,1,2.869,1.1l-.96,1.06a3.153,3.153,0,0,0-2.114-.863,1.8,1.8,0,0,0-2.005,1.4c-.147.936.861,1.277,1.893,1.692,1.337.539,2.812,1.115,2.519,2.969-.251,1.584-1.72,2.9-4.024,2.9A5.061,5.061,0,0,1-183.6,581.27Z" fill="#fff"/>
        <path id="패스_1416" data-name="패스 1416" d="M-173.044,572.615h1.638l-1.547,9.771h-1.639Zm.181-3.078a1.256,1.256,0,0,1,1.3-1.06.871.871,0,0,1,.967,1.06,1.3,1.3,0,0,1-1.3,1.062A.894.894,0,0,1-172.863,569.537Z" fill="#fff"/>
        <path id="패스_1417" data-name="패스 1417" d="M-169.235,579.363l.858-5.417h-1.458l.2-1.241,1.545-.09.631-2.735h1.368l-.433,2.735h2.647l-.211,1.331h-2.647l-.864,5.452c-.19,1.206.08,1.89,1.214,1.89a3.826,3.826,0,0,0,1.156-.252l.13,1.224a6.761,6.761,0,0,1-1.857.36C-169.049,582.62-169.546,581.324-169.235,579.363Z" fill="#fff"/>
        <path id="패스_1418" data-name="패스 1418" d="M-165.2,586.4l.532-1.313a2.118,2.118,0,0,0,.713.161c1.116,0,1.96-.9,2.548-2.1l.333-.738-2.375-9.789h1.71l1.138,5.434c.155.847.337,1.853.5,2.735h.09c.409-.882.854-1.872,1.261-2.735l2.607-5.434h1.6L-159.9,583.2c-.99,1.925-2.232,3.4-4.176,3.4A2.773,2.773,0,0,1-165.2,586.4Z" fill="#fff"/>
      </g>
      <g id="그룹_267" data-name="그룹 267">
        <path id="패스_1419" data-name="패스 1419" d="M-269.383,614.057c1.131-7.141,4.168-10.584,8.088-10.584,3.892,0,5.834,3.471,4.708,10.584-1.131,7.139-4.187,10.7-8.079,10.7C-268.585,624.753-270.514,621.2-269.383,614.057Zm10.3,0c.949-5.993-.219-8.513-2.543-8.513-2.353,0-4.319,2.52-5.268,8.513-.958,6.047.2,8.652,2.549,8.652C-262.018,622.709-260.038,620.1-259.08,614.057Z" fill="#fff"/>
        <path id="패스_1420" data-name="패스 1420" d="M-255.12,622.821a2.308,2.308,0,0,1,2.162-1.988,1.584,1.584,0,0,1,1.534,1.988,2.245,2.245,0,0,1-2.155,1.932A1.544,1.544,0,0,1-255.12,622.821Z" fill="#fff"/>
        <path id="패스_1421" data-name="패스 1421" d="M-248.716,622.877c7.331-5.628,10.946-9.717,11.505-13.244.373-2.353-.588-4.061-3.136-4.061a6.92,6.92,0,0,0-4.634,2.38l-1.253-1.456c1.968-1.82,3.923-3.023,6.527-3.023,3.668,0,5.582,2.407,5,6.075-.647,4.089-4.527,8.262-10.067,12.825,1.078-.084,2.355-.2,3.391-.2h5.684l-.35,2.212h-12.908Z" fill="#fff"/>
        <path id="패스_1422" data-name="패스 1422" d="M-234.011,621.953l1.554-1.681a5.693,5.693,0,0,0,4.724,2.353,4.563,4.563,0,0,0,4.775-3.808c.391-2.464-1-4.117-5.731-4.117l.31-1.96c4.228,0,5.954-1.708,6.3-3.92.315-1.988-.829-3.248-2.948-3.3a7.608,7.608,0,0,0-4.58,2.043l-1.114-1.624a9.65,9.65,0,0,1,6.129-2.463c3.444,0,5.671,1.847,5.148,5.151a6.283,6.283,0,0,1-4.453,4.957l-.018.111a4.374,4.374,0,0,1,3.543,5.209c-.58,3.668-3.866,5.852-7.507,5.852A7.18,7.18,0,0,1-234.011,621.953Z" fill="#fff"/>
        <path id="패스_1423" data-name="패스 1423" d="M-204.689,618.733H-207.4l-.9,5.657h-2.436l.9-5.657h-8.932l.266-1.68,10.629-13.189h2.828l-2.032,12.824h2.716Zm-4.828-2.045,1-6.3c.16-1.008.533-2.66.758-3.724h-.113c-.663,1.008-1.382,2.016-2.131,3.024l-5.785,7Z" fill="#fff"/>
      </g>
      <g id="그룹_268" data-name="그룹 268">
        <path id="패스_1424" data-name="패스 1424" d="M-202.961,621.533l.811-5.117h-1.377l.185-1.173,1.459-.085.6-2.584h1.292l-.409,2.584h2.5l-.2,1.258h-2.5l-.815,5.15c-.181,1.14.073,1.787,1.145,1.787a3.635,3.635,0,0,0,1.091-.239l.122,1.157a6.377,6.377,0,0,1-1.752.339C-202.785,624.61-203.254,623.386-202.961,621.533Z" fill="#fff"/>
        <path id="패스_1425" data-name="패스 1425" d="M-197.208,618.167c.638-4.029,3.388-6.477,6.55-6.477a3.868,3.868,0,0,1,3.171,1.547l-1.011,1.02a2.859,2.859,0,0,0-2.361-1.19c-2.363,0-4.234,1.938-4.726,5.049-.5,3.145.685,5.116,3.065,5.116a4.491,4.491,0,0,0,3.11-1.393l.711.986a5.693,5.693,0,0,1-4.108,1.785C-195.9,624.61-197.849,622.213-197.208,618.167Z" fill="#fff"/>
        <path id="패스_1426" data-name="패스 1426" d="M-187.221,618.116c.632-4,3.21-6.426,6.338-6.426s4.935,2.431,4.3,6.426-3.222,6.494-6.349,6.494S-187.854,622.111-187.221,618.116Zm9.025,0c.495-3.129-.679-5.049-2.906-5.049-2.244,0-4.01,1.92-4.5,5.049-.493,3.112.651,5.116,2.9,5.116C-180.485,623.232-178.688,621.228-178.2,618.116Z" fill="#fff"/>
      </g>
      <g id="그룹_269" data-name="그룹 269">
        <path id="패스_1427" data-name="패스 1427" d="M-176.423,629.516c2.6-1.995,3.877-3.442,4.075-4.691.132-.834-.209-1.438-1.111-1.438a2.45,2.45,0,0,0-1.641.842l-.444-.515a3.308,3.308,0,0,1,2.312-1.071,1.676,1.676,0,0,1,1.772,2.152c-.23,1.447-1.6,2.926-3.566,4.542.381-.03.834-.069,1.2-.069h2.013l-.124.783h-4.572Z" fill="#fff"/>
      </g>
      <g id="그룹_270" data-name="그룹 270">
        <path id="패스_1428" data-name="패스 1428" d="M-170.045,619.782c.474-2.992,2.793-4.862,4.934-4.862,2.346,0,3.4,1.7,2.986,4.335a6.522,6.522,0,0,1-.209.885h-6.221c-.21,1.971.8,3.229,2.548,3.229a4.534,4.534,0,0,0,2.428-.73l.4,1.019a6.25,6.25,0,0,1-3.211.952C-168.838,624.61-170.527,622.825-170.045,619.782Zm6.6-.748c.3-1.87-.4-2.874-1.84-2.874a3.467,3.467,0,0,0-3.107,2.874Z" fill="#fff"/>
        <path id="패스_1429" data-name="패스 1429" d="M-155.125,610.908H-154l-7.7,16.525h-1.139Z" fill="#fff"/>
      </g>
      <g id="그룹_271" data-name="그룹 271">
        <path id="패스_1430" data-name="패스 1430" d="M-277.647,647.1h2.771l1.472-9.3h-2.21l.156-.987a9.139,9.139,0,0,0,2.725-.883h1.189l-1.769,11.169h2.5l-.205,1.292h-6.833Z" fill="#fff"/>
        <path id="패스_1431" data-name="패스 1431" d="M-268.427,642.12c.687-4.335,2.531-6.426,4.911-6.426,2.362,0,3.542,2.109,2.858,6.426-.687,4.336-2.542,6.494-4.9,6.494C-267.942,648.614-269.113,646.456-268.427,642.12Zm6.255,0c.576-3.637-.132-5.168-1.543-5.168-1.428,0-2.623,1.531-3.2,5.168-.581,3.672.12,5.253,1.548,5.253C-263.955,647.373-262.753,645.792-262.172,642.12Z" fill="#fff"/>
        <path id="패스_1432" data-name="패스 1432" d="M-259.332,642.12c.686-4.335,2.531-6.426,4.911-6.426,2.362,0,3.542,2.109,2.858,6.426-.687,4.336-2.542,6.494-4.9,6.494C-258.848,648.614-260.019,646.456-259.332,642.12Zm6.255,0c.576-3.637-.132-5.168-1.544-5.168s-2.622,1.531-3.2,5.168c-.581,3.672.12,5.253,1.548,5.253C-254.86,647.373-253.658,645.792-253.077,642.12Z" fill="#fff"/>
        <path id="패스_1433" data-name="패스 1433" d="M-245.569,639.163h1.275l-.077,1.343h.051a4.881,4.881,0,0,1,3.123-1.581,2.016,2.016,0,0,1,2.27,1.767,5.274,5.274,0,0,1,3.323-1.767c1.9,0,2.605,1.258,2.231,3.621l-.926,5.848h-1.547l.894-5.645c.275-1.733-.153-2.464-1.326-2.464a4.127,4.127,0,0,0-2.553,1.411l-1.061,6.7h-1.546l.893-5.645c.275-1.733-.153-2.464-1.326-2.464a4.13,4.13,0,0,0-2.553,1.411l-1.06,6.7h-1.547Z" fill="#fff"/>
        <path id="패스_1434" data-name="패스 1434" d="M-230.168,639.163h1.547l-1.462,9.231h-1.547Zm.171-2.907a1.187,1.187,0,0,1,1.23-1,.823.823,0,0,1,.913,1,1.227,1.227,0,0,1-1.23,1A.844.844,0,0,1-230,636.256Z" fill="#fff"/>
        <path id="패스_1435" data-name="패스 1435" d="M-227,646.557l1.852-11.7h1.547l-1.869,11.8c-.075.477.1.664.338.664a1.378,1.378,0,0,0,.328-.035l.033,1.191a2.659,2.659,0,0,1-.923.135C-226.854,648.614-227.212,647.867-227,646.557Z" fill="#fff"/>
        <path id="패스_1436" data-name="패스 1436" d="M-222.483,646.557l1.853-11.7h1.547l-1.869,11.8c-.075.477.1.664.337.664a1.385,1.385,0,0,0,.329-.035l.032,1.191a2.655,2.655,0,0,1-.923.135C-222.332,648.614-222.69,647.867-222.483,646.557Z" fill="#fff"/>
        <path id="패스_1437" data-name="패스 1437" d="M-216.789,639.163h1.547l-1.462,9.231h-1.547Zm.171-2.907a1.187,1.187,0,0,1,1.23-1,.823.823,0,0,1,.913,1,1.227,1.227,0,0,1-1.231,1A.844.844,0,0,1-216.618,636.256Z" fill="#fff"/>
        <path id="패스_1438" data-name="패스 1438" d="M-213.883,643.787a5.372,5.372,0,0,1,5.053-4.862c2.261,0,4,1.785,3.514,4.862a5.345,5.345,0,0,1-5.048,4.827C-212.625,648.614-214.367,646.847-213.883,643.787Zm6.969,0c.337-2.126-.523-3.571-2.12-3.571s-2.9,1.445-3.235,3.571.512,3.536,2.109,3.536S-207.251,645.912-206.914,643.787Z" fill="#fff"/>
        <path id="패스_1439" data-name="패스 1439" d="M-202.476,639.163h1.276l-.074,1.325h.05a5.289,5.289,0,0,1,3.342-1.563c1.938,0,2.623,1.258,2.248,3.621l-.926,5.848h-1.546l.893-5.645c.275-1.733-.137-2.464-1.36-2.464-.952,0-1.673.475-2.757,1.411l-1.061,6.7h-1.547Z" fill="#fff"/>
        <path id="패스_1440" data-name="패스 1440" d="M-188.313,635.933h1.581l-.992,6.255h.052l6.193-6.255h1.767l-4.644,4.743,3.283,7.718h-1.768l-2.694-6.495-2.547,2.55-.624,3.945h-1.58Z" fill="#fff"/>
        <path id="패스_1441" data-name="패스 1441" d="M-172.794,648.394l-2.188-5.287h-2.245l-.836,5.287h-1.581l1.974-12.461h3.909c2.533,0,4.209.9,3.8,3.5a4.133,4.133,0,0,1-3.376,3.5l2.331,5.457Zm-4.23-6.562h2.09c1.955,0,3.151-.782,3.407-2.4.26-1.65-.719-2.227-2.674-2.227h-2.091Z" fill="#fff"/>
        <path id="패스_1442" data-name="패스 1442" d="M-168.372,635.933h1.632l.234,6.783c.026,1.343.068,2.685.093,4.028h.068c.5-1.343,1.021-2.685,1.539-4.028l2.791-6.783h1.428l.677,6.783c.1,1.326.172,2.668.245,4.028h.085q.681-2.04,1.352-4.028l2.384-6.783h1.513l-4.558,12.461h-1.886l-.7-7.514c-.065-.985-.11-1.888-.163-2.84h-.067c-.355.952-.72,1.855-1.079,2.84l-3.043,7.514h-1.869Z" fill="#fff"/>
      </g>
    </g>
  </g>
  <line id="선_10" data-name="선 10" x1="44.597" transform="translate(41.82 93.96)" fill="none" stroke="#fff" stroke-miterlimit="10" stroke-width="1"/>
</svg>
