<svg id="구성_요소_36_1" data-name="구성 요소 36 – 1" xmlns="http://www.w3.org/2000/svg" width="245.838" height="152" viewBox="0 0 245.838 152">
  <defs>
    <style>
      .cls-1 {
        opacity: 0.4;
        mix-blend-mode: multiply;
        isolation: isolate;
      }

      .cls-2 {
        fill: #2b6a7e;
      }

      .cls-3 {
        fill: #fff;
      }

      .cls-4 {
        fill: none;
        stroke: #fff;
        stroke-miterlimit: 10;
      }
    </style>
  </defs>
  <g id="그룹_113" data-name="그룹 113" class="cls-1" transform="translate(-178.083 -1950)">
    <g id="그룹_112" data-name="그룹 112">
      <rect id="사각형_74" data-name="사각형 74" class="cls-2" width="245.838" height="152" transform="translate(178.083 1950)"/>
    </g>
  </g>
  <g id="그룹_243" data-name="그룹 243" transform="translate(-2340.01 901.882)">
    <g id="그룹_238" data-name="그룹 238">
      <g id="그룹_235" data-name="그룹 235">
        <g id="그룹_219" data-name="그룹 219">
          <path id="패스_843" data-name="패스 843" class="cls-3" d="M2552.238-863.089l.981-1.079a3.782,3.782,0,0,0,2.718,1.151,1.956,1.956,0,0,0,2.167-1.529c.157-.99-.924-1.439-1.939-1.853-1.288-.5-2.731-1.17-2.47-2.825.246-1.548,1.683-2.772,3.807-2.772a4.354,4.354,0,0,1,2.869,1.1l-.96,1.06a3.148,3.148,0,0,0-2.114-.863,1.8,1.8,0,0,0-2.005,1.4c-.147.937.86,1.277,1.893,1.693,1.336.539,2.812,1.115,2.518,2.968-.25,1.584-1.719,2.9-4.023,2.9A5.059,5.059,0,0,1,2552.238-863.089Z"/>
        </g>
        <g id="그룹_220" data-name="그룹 220">
          <path id="패스_844" data-name="패스 844" class="cls-3" d="M2544.068-871.743h1.351l-.077,1.4h.053a5.6,5.6,0,0,1,3.54-1.656c2.051,0,2.777,1.332,2.381,3.833l-.98,6.19H2548.7l.946-5.974c.291-1.835-.145-2.609-1.442-2.609-1.008,0-1.771.5-2.918,1.493l-1.123,7.09h-1.639Z"/>
        </g>
        <g id="그룹_221" data-name="그룹 221">
          <path id="패스_845" data-name="패스 845" class="cls-3" d="M2532.008-866.85c.515-3.256,2.958-5.146,5.353-5.146s4.239,1.89,3.723,5.146a5.662,5.662,0,0,1-5.348,5.112C2533.342-861.738,2531.5-863.61,2532.008-866.85Zm7.383,0c.356-2.249-.554-3.779-2.246-3.779s-3.07,1.53-3.426,3.779.541,3.744,2.234,3.744S2539.035-864.6,2539.391-866.85Z"/>
        </g>
        <g id="그룹_222" data-name="그룹 222">
          <path id="패스_846" data-name="패스 846" class="cls-3" d="M2528.932-871.743h1.638l-1.547,9.77h-1.638Zm.181-3.078a1.257,1.257,0,0,1,1.3-1.061.871.871,0,0,1,.966,1.061,1.3,1.3,0,0,1-1.3,1.061A.894.894,0,0,1,2529.113-874.821Z"/>
        </g>
        <g id="그룹_223" data-name="그룹 223">
          <path id="패스_847" data-name="패스 847" class="cls-3" d="M2518.4-863.089l.981-1.079a3.782,3.782,0,0,0,2.718,1.151,1.957,1.957,0,0,0,2.168-1.529c.156-.99-.925-1.439-1.94-1.853-1.288-.5-2.731-1.17-2.47-2.825a3.557,3.557,0,0,1,3.807-2.772,4.351,4.351,0,0,1,2.869,1.1l-.96,1.06a3.148,3.148,0,0,0-2.114-.863,1.8,1.8,0,0,0-2.005,1.4c-.147.937.861,1.277,1.893,1.693,1.337.539,2.812,1.115,2.518,2.968-.25,1.584-1.718,2.9-4.023,2.9A5.059,5.059,0,0,1,2518.4-863.089Z"/>
        </g>
        <g id="그룹_224" data-name="그룹 224">
          <path id="패스_848" data-name="패스 848" class="cls-3" d="M2510.334-863.089l.98-1.079a3.784,3.784,0,0,0,2.718,1.151,1.957,1.957,0,0,0,2.168-1.529c.156-.99-.925-1.439-1.939-1.853-1.288-.5-2.732-1.17-2.47-2.825.246-1.548,1.683-2.772,3.807-2.772a4.354,4.354,0,0,1,2.869,1.1l-.96,1.06a3.153,3.153,0,0,0-2.114-.863,1.8,1.8,0,0,0-2.005,1.4c-.148.937.86,1.277,1.892,1.693,1.337.539,2.813,1.115,2.519,2.968-.25,1.584-1.719,2.9-4.024,2.9A5.057,5.057,0,0,1,2510.334-863.089Z"/>
        </g>
        <g id="그룹_225" data-name="그룹 225">
          <path id="패스_849" data-name="패스 849" class="cls-3" d="M2508.213-871.743h1.639l-1.547,9.77h-1.639Zm.182-3.078a1.255,1.255,0,0,1,1.3-1.061.871.871,0,0,1,.966,1.061,1.3,1.3,0,0,1-1.3,1.061A.893.893,0,0,1,2508.4-874.821Z"/>
        </g>
        <g id="그룹_226" data-name="그룹 226">
          <path id="패스_850" data-name="패스 850" class="cls-3" d="M2491.905-871.743h1.351l-.08,1.421h.053a5.165,5.165,0,0,1,3.308-1.674,2.136,2.136,0,0,1,2.4,1.872,5.583,5.583,0,0,1,3.52-1.872c2.017,0,2.76,1.332,2.363,3.833l-.98,6.19h-1.639l.947-5.974c.29-1.835-.164-2.609-1.406-2.609a4.372,4.372,0,0,0-2.7,1.493l-1.123,7.09h-1.639l.948-5.974c.29-1.835-.165-2.609-1.407-2.609a4.375,4.375,0,0,0-2.7,1.493l-1.123,7.09h-1.639Z"/>
        </g>
        <g id="그룹_227" data-name="그룹 227">
          <path id="패스_851" data-name="패스 851" class="cls-3" d="M2482.367-875.163h7.617l-.222,1.4h-5.943l-.655,4.14h5.006l-.226,1.421h-5.006l-.76,4.8h6.14l-.224,1.422h-7.815Z"/>
        </g>
        <g id="그룹_228" data-name="그룹 228">
          <path id="패스_852" data-name="패스 852" class="cls-3" d="M2464.852-868.559c.674-4.265,3.642-6.855,7.134-6.855a4.239,4.239,0,0,1,3.541,1.637l-1.071,1.08a3.122,3.122,0,0,0-2.664-1.26c-2.646,0-4.7,2.052-5.222,5.345-.527,3.328.709,5.416,3.536,5.416a4.152,4.152,0,0,0,2.517-.775l.548-3.454h-2.791l.22-1.386h4.32l-.877,5.543a6.585,6.585,0,0,1-4.33,1.53C2466.238-861.738,2464.173-864.276,2464.852-868.559Z"/>
        </g>
        <g id="그룹_229" data-name="그룹 229">
          <path id="패스_853" data-name="패스 853" class="cls-3" d="M2453.91-875.163h1.674l-.874,5.524h6.158l.874-5.524h1.656l-2.087,13.19h-1.657l.986-6.226h-6.159l-.985,6.226h-1.674Z"/>
        </g>
        <g id="그룹_230" data-name="그룹 230">
          <path id="패스_854" data-name="패스 854" class="cls-3" d="M2440.064-868.559c.676-4.265,3.645-6.855,7.137-6.855a4.239,4.239,0,0,1,3.54,1.637l-1.071,1.08a3.123,3.123,0,0,0-2.664-1.26c-2.647,0-4.7,2.052-5.221,5.345-.527,3.328.708,5.416,3.535,5.416a4.156,4.156,0,0,0,2.518-.775l.547-3.454h-2.791l.219-1.386h4.322l-.879,5.543a6.584,6.584,0,0,1-4.328,1.53C2441.451-861.738,2439.387-864.276,2440.064-868.559Z"/>
        </g>
        <g id="그룹_231" data-name="그룹 231">
          <path id="패스_855" data-name="패스 855" class="cls-3" d="M2426.961-864.114a2.508,2.508,0,0,0,2.055,1.008c1.711,0,3.409-1.4,4.185-5.506a4.877,4.877,0,0,1-3.3,1.637c-2.2,0-3.413-1.421-2.979-4.157a4.811,4.811,0,0,1,4.459-4.282c2.539,0,4.1,2.087,3.435,6.279-.846,5.345-3.476,7.4-5.96,7.4a3.554,3.554,0,0,1-2.956-1.351Zm6.435-5.848c.251-2.717-.529-4.157-2.222-4.157-1.26,0-2.42,1.187-2.705,2.987-.282,1.781.327,2.933,1.893,2.933A4.22,4.22,0,0,0,2433.4-869.962Z"/>
        </g>
        <g id="그룹_232" data-name="그룹 232">
          <path id="패스_856" data-name="패스 856" class="cls-3" d="M2416.847-863.341h2.935l1.56-9.843H2419l.166-1.044a9.617,9.617,0,0,0,2.885-.935h1.26l-1.873,11.822h2.647l-.216,1.368h-7.238Z"/>
        </g>
        <g id="그룹_233" data-name="그룹 233">
          <path id="패스_857" data-name="패스 857" class="cls-3" d="M2407.352-868.612c.726-4.589,2.679-6.8,5.2-6.8,2.5,0,3.75,2.23,3.027,6.8-.727,4.588-2.691,6.874-5.193,6.874C2407.865-861.738,2406.624-864.024,2407.352-868.612Zm6.625,0c.61-3.852-.141-5.471-1.635-5.471-1.514,0-2.779,1.619-3.389,5.471-.615,3.886.129,5.56,1.641,5.56C2412.088-863.052,2413.361-864.726,2413.977-868.612Z"/>
        </g>
        <g id="그룹_234" data-name="그룹 234">
          <path id="패스_858" data-name="패스 858" class="cls-3" d="M2396.733-862.944c4.714-3.617,7.039-6.244,7.4-8.512.24-1.512-.379-2.609-2.018-2.609a4.448,4.448,0,0,0-2.978,1.53l-.807-.936a6.015,6.015,0,0,1,4.2-1.943c2.36,0,3.59,1.547,3.217,3.9-.416,2.627-2.911,5.309-6.472,8.242.692-.054,1.514-.127,2.18-.127h3.655l-.224,1.422h-8.3Z"/>
        </g>
      </g>
      <g id="그룹_237" data-name="그룹 237">
        <path id="패스_859" data-name="패스 859" class="cls-3" d="M2446.444-840.306c1.131-7.139,4.169-10.584,8.089-10.584,3.891,0,5.833,3.473,4.707,10.584-1.131,7.141-4.186,10.7-8.078,10.7C2447.242-829.608,2445.313-833.165,2446.444-840.306Zm10.3,0c.949-5.991-.219-8.511-2.543-8.511-2.353,0-4.319,2.52-5.268,8.511-.958,6.049.2,8.654,2.549,8.654C2453.811-831.652,2455.79-834.257,2456.748-840.306Z"/>
        <path id="패스_860" data-name="패스 860" class="cls-3" d="M2460.707-831.541a2.309,2.309,0,0,1,2.163-1.987,1.584,1.584,0,0,1,1.534,1.987,2.246,2.246,0,0,1-2.155,1.933A1.545,1.545,0,0,1,2460.707-831.541Z"/>
        <path id="패스_861" data-name="패스 861" class="cls-3" d="M2467.111-831.484c7.331-5.628,10.947-9.717,11.506-13.245.372-2.352-.589-4.06-3.137-4.06a6.916,6.916,0,0,0-4.633,2.38l-1.253-1.456c1.968-1.821,3.924-3.025,6.527-3.025,3.668,0,5.582,2.409,5,6.077-.647,4.088-4.528,8.26-10.067,12.825,1.078-.084,2.355-.2,3.391-.2h5.684l-.351,2.211h-12.907Z"/>
        <path id="패스_862" data-name="패스 862" class="cls-3" d="M2481.816-832.408l1.555-1.681a5.691,5.691,0,0,0,4.724,2.353,4.564,4.564,0,0,0,4.775-3.808c.39-2.465-1-4.117-5.731-4.117l.309-1.96c4.228,0,5.954-1.708,6.3-3.92.315-1.988-.829-3.248-2.948-3.3a7.627,7.627,0,0,0-4.58,2.044l-1.115-1.624a9.653,9.653,0,0,1,6.13-2.464c3.444,0,5.671,1.849,5.148,5.153a6.282,6.282,0,0,1-4.453,4.956l-.018.112a4.374,4.374,0,0,1,3.543,5.208c-.581,3.669-3.866,5.853-7.507,5.853A7.182,7.182,0,0,1,2481.816-832.408Z"/>
        <path id="패스_863" data-name="패스 863" class="cls-3" d="M2511.139-835.628h-2.717l-.9,5.655h-2.435l.9-5.655h-8.931l.265-1.681,10.629-13.189h2.828l-2.031,12.825h2.716Zm-4.828-2.045,1-6.3c.159-1.007.532-2.66.757-3.723h-.112c-.663,1.008-1.383,2.015-2.132,3.024l-5.784,7Z"/>
      </g>
    </g>
    <g id="그룹_239" data-name="그룹 239">
      <path id="패스_864" data-name="패스 864" class="cls-3" d="M2512.867-832.828l.811-5.117H2512.3l.185-1.173,1.458-.085.6-2.584h1.292l-.409,2.584h2.5l-.2,1.258h-2.5l-.817,5.15c-.179,1.14.074,1.785,1.146,1.785a3.579,3.579,0,0,0,1.091-.238l.123,1.157a6.384,6.384,0,0,1-1.753.339C2513.043-829.752,2512.574-830.976,2512.867-832.828Z"/>
      <path id="패스_865" data-name="패스 865" class="cls-3" d="M2518.62-836.194c.638-4.03,3.388-6.478,6.55-6.478a3.873,3.873,0,0,1,3.172,1.547l-1.012,1.021a2.852,2.852,0,0,0-2.361-1.19c-2.363,0-4.234,1.938-4.727,5.048-.5,3.145.686,5.118,3.066,5.118a4.493,4.493,0,0,0,3.11-1.394l.711.985a5.689,5.689,0,0,1-4.108,1.785C2519.928-829.752,2517.979-832.148,2518.62-836.194Z"/>
      <path id="패스_866" data-name="패스 866" class="cls-3" d="M2528.606-836.246c.633-4,3.21-6.426,6.339-6.426s4.935,2.431,4.3,6.426-3.222,6.494-6.349,6.494S2527.975-832.251,2528.606-836.246Zm9.026,0c.495-3.128-.679-5.048-2.905-5.048-2.245,0-4.01,1.92-4.506,5.048-.492,3.111.651,5.118,2.9,5.118C2535.343-831.128,2537.139-833.135,2537.632-836.246Z"/>
    </g>
    <g id="그룹_240" data-name="그룹 240">
      <path id="패스_867" data-name="패스 867" class="cls-3" d="M2539.4-824.847c2.6-1.993,3.877-3.441,4.075-4.69.132-.833-.208-1.438-1.111-1.438a2.445,2.445,0,0,0-1.639.843l-.446-.516a3.314,3.314,0,0,1,2.313-1.071,1.676,1.676,0,0,1,1.771,2.153c-.229,1.447-1.6,2.924-3.566,4.542.382-.031.834-.071,1.2-.071h2.014l-.123.783h-4.573Z"/>
    </g>
    <path id="패스_1056" data-name="패스 1056" class="cls-3" d="M4.8-9.089a4.055,4.055,0,0,1,1.834.444A3.383,3.383,0,0,1,7.985-7.5a3.966,3.966,0,0,1,.6,1.569,10.264,10.264,0,0,1,.133,1.959H2.2A3.8,3.8,0,0,0,2.839-1.8,2.14,2.14,0,0,0,4.69-.979a2.393,2.393,0,0,0,1.868-.772,2.6,2.6,0,0,0,.564-1.038H8.591A3.094,3.094,0,0,1,8.205-1.7a3.882,3.882,0,0,1-.735.984,3.482,3.482,0,0,1-1.685.9,5.119,5.119,0,0,1-1.22.133A3.744,3.744,0,0,1,1.751-.892,4.7,4.7,0,0,1,.6-4.275,5.11,5.11,0,0,1,1.76-7.753,3.834,3.834,0,0,1,4.8-9.089ZM7.18-5.155a3.871,3.871,0,0,0-.423-1.552,2.17,2.17,0,0,0-2.05-1.079,2.273,2.273,0,0,0-1.727.743,2.806,2.806,0,0,0-.739,1.888ZM13-12.194h1.262L10.393,0H9.132Z" transform="translate(2544.817 -828.826)"/>
    <g id="그룹_241" data-name="그룹 241">
      <path id="패스_868" data-name="패스 868" class="cls-3" d="M2438.182-807.262h2.769l1.473-9.3h-2.209l.156-.987a9.076,9.076,0,0,0,2.724-.883h1.189l-1.768,11.168h2.5l-.2,1.293h-6.833Z"/>
      <path id="패스_869" data-name="패스 869" class="cls-3" d="M2447.4-812.242c.686-4.335,2.53-6.426,4.911-6.426,2.361,0,3.541,2.108,2.857,6.426-.687,4.335-2.542,6.494-4.9,6.494C2447.886-805.748,2446.715-807.907,2447.4-812.242Zm6.254,0c.576-3.638-.133-5.168-1.543-5.168-1.427,0-2.623,1.53-3.2,5.168-.581,3.672.121,5.253,1.549,5.253C2451.873-806.989,2453.075-808.57,2453.656-812.242Z"/>
      <path id="패스_870" data-name="패스 870" class="cls-3" d="M2456.5-812.242c.688-4.335,2.531-6.426,4.91-6.426s3.543,2.108,2.86,6.426c-.688,4.335-2.543,6.494-4.906,6.494C2456.98-805.748,2455.81-807.907,2456.5-812.242Zm6.256,0c.575-3.638-.133-5.168-1.545-5.168-1.428,0-2.622,1.53-3.2,5.168-.582,3.672.119,5.253,1.547,5.253C2460.969-806.989,2462.17-808.57,2462.752-812.242Z"/>
      <path id="패스_871" data-name="패스 871" class="cls-3" d="M2470.259-815.2h1.275l-.077,1.342h.051a4.884,4.884,0,0,1,3.123-1.58,2.015,2.015,0,0,1,2.27,1.767,5.272,5.272,0,0,1,3.324-1.767c1.9,0,2.6,1.257,2.23,3.62l-.926,5.848h-1.547l.9-5.644c.273-1.734-.154-2.465-1.327-2.465a4.129,4.129,0,0,0-2.553,1.411l-1.06,6.7h-1.547l.893-5.644c.276-1.734-.153-2.465-1.326-2.465a4.129,4.129,0,0,0-2.553,1.411l-1.06,6.7H2468.8Z"/>
      <path id="패스_872" data-name="패스 872" class="cls-3" d="M2485.66-815.2h1.547l-1.462,9.23H2484.2Zm.172-2.907a1.187,1.187,0,0,1,1.23-1,.825.825,0,0,1,.913,1,1.228,1.228,0,0,1-1.231,1A.843.843,0,0,1,2485.832-818.106Z"/>
      <path id="패스_873" data-name="패스 873" class="cls-3" d="M2488.824-807.806l1.852-11.7h1.547l-1.869,11.8c-.075.476.1.663.337.663a1.426,1.426,0,0,0,.33-.034l.032,1.19a2.632,2.632,0,0,1-.923.136C2488.975-805.748,2488.616-806.5,2488.824-807.806Z"/>
      <path id="패스_874" data-name="패스 874" class="cls-3" d="M2493.346-807.806l1.851-11.7h1.547l-1.868,11.8c-.075.476.1.663.337.663a1.419,1.419,0,0,0,.329-.034l.032,1.19a2.625,2.625,0,0,1-.923.136C2493.5-805.748,2493.138-806.5,2493.346-807.806Z"/>
      <path id="패스_875" data-name="패스 875" class="cls-3" d="M2499.039-815.2h1.547l-1.462,9.23h-1.547Zm.172-2.907a1.187,1.187,0,0,1,1.229-1,.825.825,0,0,1,.914,1,1.228,1.228,0,0,1-1.231,1A.843.843,0,0,1,2499.211-818.106Z"/>
      <path id="패스_876" data-name="패스 876" class="cls-3" d="M2501.945-810.575a5.372,5.372,0,0,1,5.053-4.862c2.262,0,4,1.785,3.514,4.862a5.346,5.346,0,0,1-5.048,4.827C2503.2-805.748,2501.461-807.517,2501.945-810.575Zm6.969,0c.337-2.126-.522-3.571-2.12-3.571s-2.9,1.445-3.234,3.571.51,3.535,2.108,3.535S2508.578-808.451,2508.914-810.575Z"/>
      <path id="패스_877" data-name="패스 877" class="cls-3" d="M2513.353-815.2h1.275l-.074,1.325h.05a5.289,5.289,0,0,1,3.341-1.563c1.94,0,2.623,1.257,2.25,3.62l-.926,5.848h-1.547l.893-5.644c.276-1.734-.136-2.465-1.36-2.465-.952,0-1.673.475-2.757,1.411l-1.06,6.7h-1.547Z"/>
      <path id="패스_878" data-name="패스 878" class="cls-3" d="M2527.516-818.43h1.58l-.992,6.256h.052l6.193-6.256h1.767l-4.643,4.743,3.282,7.718h-1.768l-2.694-6.494-2.547,2.55-.624,3.944h-1.58Z"/>
      <path id="패스_879" data-name="패스 879" class="cls-3" d="M2543.034-805.969l-2.188-5.287H2538.6l-.837,5.287h-1.58l1.973-12.461h3.909c2.534,0,4.209.9,3.8,3.5a4.13,4.13,0,0,1-3.376,3.5l2.331,5.458Zm-4.23-6.562h2.091c1.955,0,3.15-.782,3.406-2.4.262-1.649-.719-2.227-2.674-2.227h-2.091Z"/>
      <path id="패스_880" data-name="패스 880" class="cls-3" d="M2547.456-818.43h1.632l.234,6.783c.026,1.343.068,2.686.094,4.029h.068c.5-1.343,1.02-2.686,1.538-4.029l2.791-6.783h1.428l.677,6.783c.1,1.326.172,2.668.246,4.029h.084q.681-2.042,1.353-4.029l2.383-6.783h1.513l-4.558,12.461h-1.886l-.7-7.513c-.064-.987-.109-1.888-.162-2.84h-.067c-.355.952-.72,1.853-1.079,2.84L2550-805.969h-1.869Z"/>
    </g>
    <g id="그룹_242" data-name="그룹 242">
      <line id="선_8" data-name="선 8" class="cls-4" x1="30" transform="translate(2395.927 -838.373)"/>
    </g>
  </g>
</svg>
