<svg id="구성_요소_25_1" data-name="구성 요소 25 – 1" xmlns="http://www.w3.org/2000/svg" width="155.543" height="75.639" viewBox="0 0 155.543 75.639">
  <g id="그룹_125" data-name="그룹 125" transform="translate(-619.543 -1060.134)" opacity="0.8" style="mix-blend-mode: multiply;isolation: isolate">
    <g id="그룹_124" data-name="그룹 124">
      <rect id="사각형_80" data-name="사각형 80" width="155.543" height="75.639" transform="translate(619.543 1060.134)" fill="#c4d5db"/>
    </g>
  </g>
  <path id="패스_35" data-name="패스 35" d="M5.616.252c3.078,0,4.9-1.854,4.9-4.032A3.68,3.68,0,0,0,7.83-7.4L6.084-8.136C4.95-8.586,4-8.928,4-9.882c0-.882.756-1.4,1.926-1.4a4.249,4.249,0,0,1,2.826,1.1l1.35-1.674a5.911,5.911,0,0,0-4.176-1.71c-2.7,0-4.608,1.674-4.608,3.852a3.859,3.859,0,0,0,2.7,3.582L5.8-5.382c1.188.5,2,.81,2,1.8,0,.936-.738,1.53-2.124,1.53A5.241,5.241,0,0,1,2.286-3.528L.756-1.692A7.1,7.1,0,0,0,5.616.252ZM16.434-5.49l.4-1.458c.4-1.386.792-2.9,1.134-4.356h.072c.4,1.44.756,2.97,1.17,4.356l.4,1.458ZM21.114,0H23.9L19.62-13.32H16.488L12.222,0h2.7l.936-3.42h4.32ZM26.55,0h2.664V-5.4h4.734V-7.632H29.214v-3.474h5.544V-13.32H26.55ZM38.16,0h8.37V-2.232H40.824V-5.8H45.5V-8.028h-4.68v-3.078h5.508V-13.32H38.16Zm14.8,0H55.62V-11.106H59.4V-13.32H49.212v2.214h3.744Zm11.25,0H66.87V-4.878l4.014-8.442H68.112L66.78-10.08c-.378.99-.774,1.926-1.188,2.952H65.52c-.414-1.026-.774-1.962-1.152-2.952l-1.332-3.24H60.21l4,8.442Z" transform="translate(15.947 27.812)" fill="#fff"/>
</svg>
