<svg id="구성_요소_32_1" data-name="구성 요소 32 – 1" xmlns="http://www.w3.org/2000/svg" xmlns:xlink="http://www.w3.org/1999/xlink" width="394" height="210.712" viewBox="0 0 394 210.712">
  <defs>
    <style>
      .cls-1 {
        fill: none;
      }

      .cls-2 {
        opacity: 0.7;
      }

      .cls-2, .cls-3 {
        mix-blend-mode: multiply;
        isolation: isolate;
      }

      .cls-3 {
        fill: #8ba7b2;
        opacity: 0.7;
      }

      .cls-4 {
        opacity: 0.9;
      }

      .cls-5 {
        clip-path: url(#clip-path);
      }

      .cls-6 {
        fill: #fff;
      }

      .cls-7 {
        clip-path: url(#clip-path-2);
      }
    </style>
    <clipPath id="clip-path">
      <path id="패스_65" data-name="패스 65" class="cls-1" d="M0,0H252.229V53.34H0Z" transform="translate(502.6 1377.03)"/>
    </clipPath>
    <clipPath id="clip-path-2">
      <path id="패스_66" data-name="패스 66" class="cls-1" d="M0,0H133.184V53.34H0Z" transform="translate(501.401 1342.29)"/>
    </clipPath>
  </defs>
  <g id="그룹_62" data-name="그룹 62" class="cls-2" transform="translate(-492 -1341.791)">
    <g id="그룹_61" data-name="그룹 61">
      <rect id="사각형_47" data-name="사각형 47" class="cls-3" width="394" height="210.712" transform="translate(492 1341.791)"/>
    </g>
  </g>
  <g id="그룹_87" data-name="그룹 87" class="cls-4" transform="translate(-492 -1341.791)">
    <g id="그룹_86" data-name="그룹 86">
      <g id="마스크_그룹_1" data-name="마스크 그룹 1" class="cls-5">
        <path id="패스_24" data-name="패스 24" class="cls-6" d="M526.282,1397.683a2.819,2.819,0,0,0-1.765,2.556.735.735,0,0,1,.2-.018,1.366,1.366,0,0,1,1.441,1.387,1.4,1.4,0,0,1-1.441,1.512c-1.152,0-1.746-.9-1.746-2.431a4.475,4.475,0,0,1,2.7-4.177Zm2.015,6.247c0-4.393,2.826-6.968,6.193-6.968a5.435,5.435,0,0,1,3.908,1.711l-1.405,1.692a3.436,3.436,0,0,0-2.449-1.116c-2.016,0-3.529,1.729-3.529,4.591,0,2.9,1.369,4.646,3.475,4.646a3.7,3.7,0,0,0,2.755-1.315l1.405,1.657a5.4,5.4,0,0,1-4.25,1.963C531.033,1410.791,528.3,1408.378,528.3,1403.93Zm12.132-6.716H548.6v2.215h-5.51v3.079h4.682v2.233h-4.682v3.565H548.8v2.232h-8.372Zm9.827,11.632,1.531-1.837a5.24,5.24,0,0,0,3.385,1.477c1.386,0,2.125-.594,2.125-1.531,0-.99-.811-1.3-2-1.8l-1.783-.757a3.859,3.859,0,0,1-2.7-3.583c0-2.178,1.908-3.853,4.609-3.853a5.91,5.91,0,0,1,4.177,1.711l-1.35,1.674a4.251,4.251,0,0,0-2.827-1.1c-1.17,0-1.927.522-1.927,1.4,0,.955.955,1.3,2.089,1.747l1.747.738a3.681,3.681,0,0,1,2.682,3.619c0,2.179-1.818,4.034-4.9,4.034A7.1,7.1,0,0,1,550.256,1408.846Zm23.763-10.065h-9.093v-1.855H568.4v-1.548h2.377v1.548h3.241Zm-4.429,6.914c-2.215,0-3.889-1.332-3.889-3.169s1.674-3.169,3.889-3.169,3.871,1.332,3.871,3.169S571.8,1405.695,569.59,1405.695Zm-2.143,1.1h11.289v5.312H576.36v-3.421h-8.913Zm2.143-2.881c.954,0,1.674-.522,1.674-1.386s-.72-1.369-1.674-1.369c-.973,0-1.675.505-1.675,1.369S568.617,1403.912,569.59,1403.912Zm9.146-8.408v10.551H576.36v-1.764h-2.179V1402.4h2.179v-1.3h-2.125v-1.891h2.125V1395.5Zm11.285,9.6a6.367,6.367,0,0,1-3.817-3.4,6.684,6.684,0,0,1-3.98,3.691l-1.206-1.891a5.623,5.623,0,0,0,3.943-5.456v-1.62h2.413v1.62a5.231,5.231,0,0,0,3.853,5.168Zm5.239,4.807v1.891H583.809v-5.348h2.377v3.457Zm-.414-2.3h-2.4v-12.082h2.4Zm10.961-2.917a6.1,6.1,0,0,1-3.656-3.1,6.381,6.381,0,0,1-3.889,3.565l-1.242-1.873a5.409,5.409,0,0,0,3.889-5.384V1396.4h2.413v1.693a4.861,4.861,0,0,0,3.727,4.753Zm4.7,4.195c0,2.016-2.161,3.205-5.6,3.205-3.457,0-5.617-1.189-5.617-3.205,0-2,2.16-3.187,5.617-3.187C608.345,1405.695,610.506,1406.883,610.506,1408.882Zm-2.359,0c0-.918-1.134-1.351-3.241-1.351-2.124,0-3.259.433-3.259,1.351,0,.936,1.135,1.368,3.259,1.368C607.013,1410.25,608.147,1409.818,608.147,1408.882Zm4.376-9.525v1.963h-2.2v4h-2.377v-9.8h2.377v3.835Zm1.579,2.395a2.828,2.828,0,0,0,1.747-2.575.614.614,0,0,1-.18.018,1.366,1.366,0,0,1-1.441-1.386,1.4,1.4,0,0,1,1.441-1.513c1.134,0,1.746.9,1.746,2.449a4.423,4.423,0,0,1-2.719,4.159Zm8.28,7.22,1.224-1.693a4.14,4.14,0,0,0,2.935,1.351,2.238,2.238,0,0,0,2.359-2.449,2.157,2.157,0,0,0-2.251-2.413,3.191,3.191,0,0,0-2,.7l-1.206-.792.36-6.464h7.13v2.215h-4.843l-.252,2.827a3.446,3.446,0,0,1,1.6-.378,3.869,3.869,0,0,1,4.105,4.231,4.5,4.5,0,0,1-4.663,4.682A6.072,6.072,0,0,1,622.382,1408.972Zm18.38-5.24a4.463,4.463,0,0,1-3.259,1.351,4.295,4.295,0,1,1,0-8.589,4.421,4.421,0,0,1,3.223,1.315h3.691v-2.3h2.377v12.135h-2.377v-3.907Zm-3.259-.72a2.227,2.227,0,1,0-2.107-2.233A2.062,2.062,0,0,0,637.5,1403.012Zm9.669,6.9v1.891H635.865v-5.348h2.376v3.457Zm-5.42-10.209a5.223,5.223,0,0,1,.126,1.08,4.093,4.093,0,0,1-.126,1.063h2.665V1399.7Zm22.376,3.835v1.891h-15v-1.891h6.284v-2.142h2.376v2.142Zm-1.692-1.188c-2.791-.4-4.808-1.549-5.852-3.2-1.044,1.638-3.061,2.809-5.834,3.2l-.882-1.855c3.727-.45,5.51-2.34,5.51-4.213v-.486h2.43v.486c0,1.927,1.747,3.763,5.492,4.213Zm-11.65,4.249H662.31v5.51h-2.377v-3.637h-9.147Zm33.268-.144H677.7v5.654h-2.377v-5.654h-6.247v-1.927h14.98Zm-1.44-3.151a8.13,8.13,0,0,1-6.032-3.565,8.168,8.168,0,0,1-6.05,3.565l-.9-1.908c3.781-.523,5.671-2.665,5.671-4.61v-.792h2.539v.792c0,1.927,1.909,4.087,5.672,4.61Zm11.176,1.387a6.091,6.091,0,0,1-3.655-3.1,6.383,6.383,0,0,1-3.889,3.565L685,1403.282a5.41,5.41,0,0,0,3.89-5.384V1396.4H691.3v1.693a4.862,4.862,0,0,0,3.727,4.753Zm4.7,4.195c0,2.016-2.16,3.205-5.6,3.205-3.457,0-5.618-1.189-5.618-3.205,0-2,2.161-3.187,5.618-3.187C696.329,1405.695,698.489,1406.883,698.489,1408.882Zm-2.358,0c0-.918-1.135-1.351-3.241-1.351-2.125,0-3.259.433-3.259,1.351,0,.936,1.134,1.368,3.259,1.368C695,1410.25,696.131,1409.818,696.131,1408.882Zm4.375-9.525v1.963h-2.2v4h-2.376v-9.8h2.376v3.835Z"/>
      </g>
    </g>
  </g>
  <g id="그룹_111" data-name="그룹 111" class="cls-4" transform="translate(-492 -1341.791)">
    <g id="그룹_110" data-name="그룹 110">
      <g id="마스크_그룹_2" data-name="마스크 그룹 2" class="cls-7">
        <path id="패스_27" data-name="패스 27" class="cls-6" d="M524.921,1364.691h-3.745v-2.215h10.191v2.215h-3.781V1375.8h-2.665ZM541.14,1375.8l-2.737-5.041h-1.854v5.041h-2.665v-13.324h4.645c2.791,0,5.006.972,5.006,4.033a3.813,3.813,0,0,1-2.539,3.835l3.115,5.456Zm-4.591-7.148h1.728c1.711,0,2.647-.72,2.647-2.143,0-1.44-.936-1.926-2.647-1.926h-1.728Zm9.9,1.152v-7.328h2.665v7.562c0,2.773.954,3.71,2.521,3.71,1.584,0,2.593-.937,2.593-3.71v-7.562h2.556v7.328c0,4.43-1.89,6.248-5.149,6.248C548.393,1376.052,546.448,1374.234,546.448,1369.8Zm12.8,4.3,1.53-1.836a5.247,5.247,0,0,0,3.385,1.477c1.387,0,2.125-.6,2.125-1.531,0-.99-.81-1.3-2-1.8l-1.782-.757a3.86,3.86,0,0,1-2.7-3.583c0-2.179,1.909-3.853,4.61-3.853a5.912,5.912,0,0,1,4.177,1.711l-1.351,1.674a4.249,4.249,0,0,0-2.826-1.1c-1.171,0-1.927.522-1.927,1.4,0,.954.954,1.3,2.089,1.747l1.746.738a3.68,3.68,0,0,1,2.683,3.619c0,2.179-1.819,4.033-4.9,4.033A7.1,7.1,0,0,1,559.246,1374.107Zm14.707-9.416h-3.745v-2.215H580.4v2.215h-3.781V1375.8h-2.665Z"/>
      </g>
    </g>
  </g>
</svg>
