<svg id="구성_요소_12_1" data-name="구성 요소 12 – 1" xmlns="http://www.w3.org/2000/svg" xmlns:xlink="http://www.w3.org/1999/xlink" width="327.996" height="160" viewBox="0 0 327.996 160">
  <defs>
    <style>
      .cls-1, .cls-6 {
        fill: none;
      }

      .cls-2 {
        opacity: 0.4;
        mix-blend-mode: multiply;
        isolation: isolate;
      }

      .cls-3 {
        clip-path: url(#clip-path);
      }

      .cls-4 {
        fill: #2b7a90;
      }

      .cls-5, .cls-8, .cls-9 {
        fill: #fff;
      }

      .cls-5, .cls-9 {
        font-size: 18px;
      }

      .cls-5 {
        font-family: NotoSansKR-Regular, Noto Sans KR;
      }

      .cls-6 {
        stroke: #fff;
        stroke-miterlimit: 10;
      }

      .cls-7 {
        clip-path: url(#clip-path-2);
      }

      .cls-9 {
        font-family: NotoSansCJKkr-Regular, Noto Sans CJK KR;
      }
    </style>
    <clipPath id="clip-path">
      <rect id="사각형_94" data-name="사각형 94" class="cls-1" width="263.838" height="160" transform="translate(169.083 1943)"/>
    </clipPath>
    <clipPath id="clip-path-2">
      <path id="패스_16" data-name="패스 16" class="cls-1" d="M0,0H276.079V-125.344H0Z"/>
    </clipPath>
  </defs>
  <g id="그룹_127" data-name="그룹 127" class="cls-2" transform="translate(-169.083 -1943)">
    <g id="그룹_126" data-name="그룹 126">
      <g id="그룹_125" data-name="그룹 125" class="cls-3">
        <rect id="사각형_93" data-name="사각형 93" class="cls-4" width="245.838" height="152" transform="translate(178.083 1950)"/>
      </g>
    </g>
  </g>
  <text id="_" data-name=" " class="cls-5" transform="matrix(0.988, 0.155, -0.155, 0.988, 235.944, 56.852)"><tspan x="0" y="0"> </tspan></text>
  <text id="_2" data-name=" " class="cls-5" transform="matrix(0.988, 0.155, -0.155, 0.988, 235.944, 80.852)"><tspan x="0" y="0"> </tspan></text>
  <line id="선_7" data-name="선 7" class="cls-6" x1="37.786" transform="translate(34.227 103.5)"/>
  <g id="그룹_18" data-name="그룹 18" transform="translate(51.917 143.688)">
    <g id="그룹_13" data-name="그룹 13" class="cls-7">
      <g id="그룹_12" data-name="그룹 12" transform="translate(60.934 -86.344)">
        <path id="패스_15" data-name="패스 15" class="cls-8" d="M0,0H8.3l.225-1.422H4.869c-.666,0-1.487.072-2.18.126C6.25-4.23,8.745-6.912,9.161-9.54c.373-2.358-.857-3.906-3.215-3.906A6.008,6.008,0,0,0,1.75-11.5l.805.936A4.45,4.45,0,0,1,5.534-12.1c1.638,0,2.256,1.1,2.016,2.61C7.191-7.218,4.867-4.59.154-.972ZM13.805.234c2.5,0,4.466-2.286,5.193-6.876.724-4.572-.524-6.8-3.027-6.8-2.519,0-4.472,2.214-5.2,6.8S11.285.234,13.805.234m.208-1.314c-1.512,0-2.255-1.674-1.639-5.562.61-3.852,1.875-5.472,3.387-5.472,1.494,0,2.245,1.62,1.635,5.472C16.78-2.754,15.507-1.08,14.013-1.08M20.052,0h7.236L27.5-1.368H24.858l1.873-11.826h-1.26a9.64,9.64,0,0,1-2.884.936l-.165,1.044h2.34L23.2-1.368H20.268Zm13.73-6.228c-1.566,0-2.176-1.152-1.893-2.934.285-1.8,1.445-2.988,2.705-2.988,1.692,0,2.472,1.44,2.221,4.158a4.222,4.222,0,0,1-3.033,1.764M29.318-1.116A3.554,3.554,0,0,0,32.273.234c2.484,0,5.113-2.052,5.959-7.4.665-4.194-.895-6.282-3.433-6.282a4.813,4.813,0,0,0-4.458,4.284C29.907-6.426,31.122-5,33.318-5a4.877,4.877,0,0,0,3.3-1.638c-.776,4.1-2.475,5.508-4.185,5.508a2.506,2.506,0,0,1-2.054-1.008ZM50.94-2.844h1.494L54.327-14.8H52.833L52.5-12.708H47.948L47.76-11.52h4.554l-.3,1.908H47.458l-.185,1.17h4.554Zm-2-4.212a40.062,40.062,0,0,1-6.823.576l1.134-7.164H41.778L40.447-5.238h1.224a39.77,39.77,0,0,0,7.24-.594Zm-5.8,6.822.575-3.636H42.246L41.48.972H52.244l.191-1.206ZM63.494-3.69H62.018L61.279.972H72.385l.191-1.206h-9.63Zm.958-7.416c.2-1.278,1.943-2.034,4.5-2.034,2.52,0,4.02.756,3.817,2.034S70.829-9.09,68.309-9.09c-2.556,0-4.059-.738-3.857-2.016m4.142,4.878.268-1.692c3.031-.162,5.125-1.332,5.418-3.186.32-2.016-1.7-3.222-5.141-3.222-3.474,0-5.879,1.206-6.2,3.222-.3,1.872,1.429,3.024,4.446,3.186l-.268,1.692h-6.57l-.191,1.206h14.58l.191-1.206ZM91.335-14.8H89.859L88.536-6.444h1.476ZM86.813-8.064a4.6,4.6,0,0,1-3.288-5.04l.194-1.224H82.243L82.049-13.1A7.227,7.227,0,0,1,77.1-7.758l.574,1.152a8.571,8.571,0,0,0,4.739-4.014,5.5,5.5,0,0,0,3.481,3.708ZM80.048-.018l.274-1.728h8.964L89.9-5.634H79.444l-.186,1.17h9L88-2.862H79.041L78.4,1.152H89.367l.185-1.17ZM94.9-13.086,94.7-11.862h5.922c-.946,3.816-3.651,6.912-8.1,8.982l.628,1.152c5.633-2.61,8.4-6.768,9.125-11.358Zm13.384,4.824H105.69l1.038-6.552h-1.476L102.694,1.332h1.476l1.326-8.37h2.592ZM123.136-6.7c-2.741-.54-5.413-2.988-4.977-5.742l.2-1.242h-1.548l-.2,1.242c-.436,2.754-3.863,5.184-6.777,5.742l.472,1.224a10.98,10.98,0,0,0,6.714-4.662,7.063,7.063,0,0,0,5.256,4.662Zm-14.65,4.644-.194,1.224h14.634l.194-1.224Z"/>
      </g>
    </g>
    <text id="_3" data-name=" " class="cls-9" transform="matrix(-0.988, -0.156, -0.156, 0.988, 185.077, -86.344)"><tspan x="0" y="0"> </tspan></text>
    <text id="_4" data-name=" " class="cls-9" transform="matrix(-0.988, -0.156, -0.156, 0.988, 185.077, -86.344)"><tspan x="0" y="0"> </tspan></text>
    <g id="그룹_15" data-name="그룹 15" class="cls-7">
      <g id="그룹_14" data-name="그룹 14" transform="translate(91.824 -67.618)">
        <path id="패스_17" data-name="패스 17" class="cls-8" d="M0,0-.174,1.1H3.1L2.84,2.754H4.316L6.263-9.54H4.787L3.276,0ZM-2.06-7.794c1.53,0,2.466.684,2.3,1.71C.078-5.04-1.074-4.356-2.6-4.356S-5.07-5.04-4.9-6.084c.162-1.026,1.314-1.71,2.844-1.71m-.718,4.536c2.358,0,4.152-1.1,4.426-2.826C1.916-7.776.472-8.892-1.886-8.892S-6.04-7.776-6.308-6.084c-.274,1.728,1.172,2.826,3.53,2.826M-4.215,2.178h1.476l.505-3.186C-.762-1.1.758-1.26,2.214-1.476l.042-1.062A89.552,89.552,0,0,1-8.222-2.07l0,1.224c1.332,0,2.883-.018,4.5-.09ZM-5.568,5.04l.553-3.492H-6.491l-.744,4.7H4.177L4.368,5.04ZM17.473-2.466a35.432,35.432,0,0,1-7.214.54l.8-5.022h5.67l.189-1.188H9.767L8.592-.72h1.26a36.213,36.213,0,0,0,7.594-.558ZM11.546.972H10.07L9.235,6.246H20L20.19,5.04H10.9Zm9.475-5.724.758-4.788H20.3L18.453,2.142h1.476l.9-5.67h2.394l.194-1.224ZM30.429-7.56c1.566,0,2.548.846,2.349,2.106a2.813,2.813,0,0,1-3.016,2.106c-1.584,0-2.566-.846-2.366-2.106A2.819,2.819,0,0,1,30.429-7.56m-.858,5.418c2.394,0,4.318-1.35,4.629-3.312.313-1.98-1.183-3.33-3.577-3.33-2.412,0-4.336,1.35-4.649,3.33-.311,1.962,1.185,3.312,3.6,3.312m5.185.792a76.037,76.037,0,0,1-10.729.576V.468c1.332,0,2.865-.018,4.478-.09L27.6,6.1h1.476L30,.288a42.721,42.721,0,0,0,4.712-.54ZM37.22-9.522,34.663,6.624h1.476L38.7-9.522ZM48.959,1.368H45.575L46.251-2.9h3.384Zm.861-5.436H46.436l.625-3.942h-1.4L43.983,2.556h6.174L51.831-8.01H50.445ZM57.635-9.54,56.623-3.15H54.445L55.4-9.18H54.014L51.639,5.814h1.386l1.229-7.758h2.178l-1.354,8.55h1.4L59.039-9.54ZM61.708-3.1c2.752-.216,5.278-1.044,6.5-2.538.754,1.494,3,2.322,5.664,2.538L74.5-4.212C71.528-4.41,69.255-5.4,69.257-7h4.968L74.4-8.118H69.344l.242-1.53H68.11l-.242,1.53H62.792L62.615-7H67.6c-.506,1.6-3.129,2.592-6.148,2.79ZM74.789-1.242l.179-1.134H60.406l-.179,1.134h6.534L66.524.252H61.718l-.174,1.1h9.522l-.217,1.368H61.381l-.587,3.708H72.206l.177-1.116H62.411l.242-1.53h9.486L72.7.252h-4.68l.237-1.494ZM86.1-2.448a40.878,40.878,0,0,1-7.427.522l.353-2.232h5.778L85.5-8.532H78.229l-.191,1.206h5.814L83.53-5.292H77.752L77.028-.72h1.278a44.212,44.212,0,0,0,7.751-.522Zm-3.376,7.9c-2.412,0-3.765-.666-3.585-1.8s1.743-1.8,4.155-1.8,3.747.666,3.567,1.8-1.725,1.8-4.137,1.8M83.481.7C80.187.7,78,1.782,77.7,3.654s1.551,2.934,4.845,2.934c3.276,0,5.479-1.062,5.775-2.934S86.757.7,83.481.7m8.571-6.5.194-1.224H89.852l.4-2.5H88.772L87.227.234H88.7l.416-2.628h2.394l.194-1.224H89.313L89.658-5.8Z"/>
      </g>
    </g>
    <text id="_5" data-name=" " class="cls-9" transform="matrix(-0.988, -0.156, -0.156, 0.988, 185.077, -62.344)"><tspan x="0" y="0"> </tspan></text>
    <g id="그룹_17" data-name="그룹 17" class="cls-7">
      <g id="그룹_16" data-name="그룹 16" transform="translate(37.023 -29.98)">
        <path id="패스_19" data-name="패스 19" class="cls-8" d="M0,0C3.892,0,6.947-3.556,8.078-10.7,9.2-17.808,7.262-21.28,3.37-21.28c-3.92,0-6.957,3.444-8.088,10.584S-3.92,0,0,0M.324-2.044c-2.352,0-3.508-2.6-2.55-8.652.949-5.992,2.916-8.512,5.268-8.512,2.324,0,3.493,2.52,2.544,8.512C4.628-4.648,2.648-2.044.324-2.044M11.088,0a2.246,2.246,0,0,0,2.154-1.932A1.584,1.584,0,0,0,11.709-3.92,2.309,2.309,0,0,0,9.546-1.932,1.544,1.544,0,0,0,11.088,0m4.621-.364H28.617l.351-2.212H23.284c-1.036,0-2.314.112-3.391.2C25.432-6.944,29.312-11.116,29.96-15.2c.581-3.668-1.334-6.076-5-6.076-2.6,0-4.558,1.2-6.527,3.024L19.685-16.8a6.92,6.92,0,0,1,4.633-2.38c2.548,0,3.509,1.708,3.137,4.06C26.9-11.592,23.28-7.5,15.949-1.876ZM36.792,0c3.64,0,6.925-2.184,7.506-5.852a4.372,4.372,0,0,0-3.543-5.208l.018-.112a6.282,6.282,0,0,0,4.453-4.956c.523-3.3-1.7-5.152-5.148-5.152a9.654,9.654,0,0,0-6.13,2.464l1.115,1.624a7.61,7.61,0,0,1,4.579-2.044c2.119.056,3.264,1.316,2.949,3.3-.35,2.212-2.077,3.92-6.305,3.92l-.31,1.96c4.732,0,6.122,1.652,5.732,4.116a4.564,4.564,0,0,1-4.775,3.808A5.7,5.7,0,0,1,32.209-4.48L30.655-2.8A7.179,7.179,0,0,0,36.792,0M48.877-8.064l5.784-7c.748-1.008,1.468-2.016,2.131-3.024H56.9c-.224,1.064-.6,2.716-.758,3.724l-1,6.3Zm11.424,0H57.585l2.031-12.824H56.788L46.159-7.7l-.266,1.68h8.932l-.9,5.656h2.436l.9-5.656h2.716ZM64.114-.13a6.731,6.731,0,0,0,1.857-.36l-.13-1.224a3.825,3.825,0,0,1-1.156.252c-1.134,0-1.4-.684-1.213-1.89l.864-5.454h2.646l.211-1.332H64.547l.433-2.736H63.612l-.631,2.736-1.544.09-.2,1.242H62.7L61.84-3.388c-.311,1.962.186,3.258,2.274,3.258m8.478,0a6.029,6.029,0,0,0,4.349-1.89l-.753-1.044a4.755,4.755,0,0,1-3.293,1.476c-2.52,0-3.774-2.088-3.246-5.418.522-3.294,2.5-5.346,5-5.346a3.024,3.024,0,0,1,2.5,1.26l1.071-1.08a4.1,4.1,0,0,0-3.359-1.638c-3.348,0-6.26,2.592-6.936,6.858C67.252-2.668,69.316-.13,72.592-.13m10.44,0c3.312,0,6.053-2.646,6.723-6.876s-1.245-6.8-4.557-6.8-6.041,2.574-6.711,6.8S79.72-.13,83.032-.13m.23-1.458c-2.376,0-3.587-2.124-3.065-5.418.524-3.312,2.394-5.346,4.77-5.346,2.358,0,3.6,2.034,3.078,5.346-.522,3.294-2.425,5.418-4.783,5.418M90.178-.364h8.3L98.7-1.786H95.048c-.666,0-1.488.072-2.18.126,3.56-2.934,6.055-5.616,6.471-8.244.374-2.358-.857-3.906-3.215-3.906a6.008,6.008,0,0,0-4.2,1.944l.806.936a4.448,4.448,0,0,1,2.978-1.53c1.638,0,2.256,1.1,2.017,2.61-.359,2.268-2.684,4.9-7.4,8.514Zm14.4.234a6.631,6.631,0,0,0,3.4-1.008l-.423-1.08a4.8,4.8,0,0,1-2.571.774c-1.854,0-2.921-1.332-2.7-3.42h6.588a6.889,6.889,0,0,0,.22-.936c.442-2.79-.677-4.59-3.161-4.59-2.268,0-4.723,1.98-5.225,5.148-.51,3.222,1.278,5.112,3.87,5.112m-2.125-5.9a3.669,3.669,0,0,1,3.29-3.042c1.53,0,2.262,1.062,1.948,3.042Zm6.069,7.6h1.188l8.18-17.55h-1.17Zm10.784-5.13h9.306L127.89.986h1.494l.909-5.742h-10.8Zm2.573-4.194a2.181,2.181,0,0,1-2.335-2.646,3.155,3.155,0,0,1,3.167-2.61,2.182,2.182,0,0,1,2.341,2.61,3.178,3.178,0,0,1-3.173,2.646m8.569-7.4-.655,4.14H126.48c.037-1.944-1.41-3.258-3.57-3.258a4.7,4.7,0,0,0-4.771,3.87c-.365,2.3,1.145,3.906,3.539,3.906a4.73,4.73,0,0,0,4.629-3.312H129.6l-.659,4.158h1.494l1.5-9.5Zm11.344,9.522-.174,1.1h3.276l-.262,1.656h1.476l1.947-12.294h-1.476l-1.511,9.54Zm-2.059-7.794c1.53,0,2.465.684,2.3,1.71-.166,1.044-1.318,1.728-2.848,1.728s-2.466-.684-2.3-1.728c.162-1.026,1.315-1.71,2.845-1.71M139.013-8.9c2.358,0,4.152-1.1,4.426-2.826.268-1.692-1.176-2.808-3.534-2.808s-4.154,1.116-4.422,2.808c-.274,1.728,1.172,2.826,3.53,2.826M137.576-3.46h1.476l.505-3.186c1.472-.09,2.992-.252,4.448-.468l.042-1.062a89.552,89.552,0,0,1-10.478.468l0,1.224c1.332,0,2.883-.018,4.5-.09ZM136.223-.6l.553-3.492H135.3l-.744,4.7h11.412L146.159-.6Z"/>
      </g>
    </g>
  </g>
</svg>
