<svg id="구성_요소_85_1" data-name="구성 요소 85 – 1" xmlns="http://www.w3.org/2000/svg" xmlns:xlink="http://www.w3.org/1999/xlink" width="9.717" height="9.716" viewBox="0 0 9.717 9.716">
  <defs>
    <clipPath id="clip-path">
      <path id="패스_8691" data-name="패스 8691" d="M15.186-326.055H24.9v-9.716H15.186Z" fill="none"/>
    </clipPath>
  </defs>
  <g id="그룹_8322" data-name="그룹 8322" transform="translate(-15.186 335.771)" clip-path="url(#clip-path)">
    <g id="그룹_8294" data-name="그룹 8294" transform="translate(95.726 -436.663)">
      <path id="패스_8663" data-name="패스 8663" d="M0,0-151.363,102.33" fill="none" stroke="#92bb48" stroke-width="1"/>
    </g>
    <g id="그룹_8295" data-name="그룹 8295" transform="translate(95.726 -420.49)">
      <path id="패스_8664" data-name="패스 8664" d="M0,0-151.363,102.33" fill="none" stroke="#92bb48" stroke-width="1"/>
    </g>
    <g id="그룹_8296" data-name="그룹 8296" transform="translate(95.726 -404.317)">
      <path id="패스_8665" data-name="패스 8665" d="M0,0-151.363,102.33" fill="none" stroke="#92bb48" stroke-width="1"/>
    </g>
    <g id="그룹_8297" data-name="그룹 8297" transform="translate(95.726 -428.577)">
      <path id="패스_8666" data-name="패스 8666" d="M0,0-151.363,102.33" fill="none" stroke="#92bb48" stroke-width="1"/>
    </g>
    <g id="그룹_8298" data-name="그룹 8298" transform="translate(95.726 -388.143)">
      <path id="패스_8667" data-name="패스 8667" d="M0,0-151.363,102.33" fill="none" stroke="#92bb48" stroke-width="1"/>
    </g>
    <g id="그룹_8299" data-name="그룹 8299" transform="translate(95.726 -412.403)">
      <path id="패스_8668" data-name="패스 8668" d="M0,0-151.363,102.33" fill="none" stroke="#92bb48" stroke-width="1"/>
    </g>
    <g id="그룹_8300" data-name="그룹 8300" transform="translate(95.726 -371.97)">
      <path id="패스_8669" data-name="패스 8669" d="M0,0-151.363,102.33" fill="none" stroke="#92bb48" stroke-width="1"/>
    </g>
    <g id="그룹_8301" data-name="그룹 8301" transform="translate(95.726 -396.23)">
      <path id="패스_8670" data-name="패스 8670" d="M0,0-151.363,102.33" fill="none" stroke="#92bb48" stroke-width="1"/>
    </g>
    <g id="그룹_8302" data-name="그룹 8302" transform="translate(95.726 -355.796)">
      <path id="패스_8671" data-name="패스 8671" d="M0,0-151.363,102.33" fill="none" stroke="#92bb48" stroke-width="1"/>
    </g>
    <g id="그룹_8303" data-name="그룹 8303" transform="translate(95.726 -380.056)">
      <path id="패스_8672" data-name="패스 8672" d="M0,0-151.363,102.33" fill="none" stroke="#92bb48" stroke-width="1"/>
    </g>
    <g id="그룹_8304" data-name="그룹 8304" transform="translate(95.726 -339.623)">
      <path id="패스_8673" data-name="패스 8673" d="M0,0-151.363,102.33" fill="none" stroke="#92bb48" stroke-width="1"/>
    </g>
    <g id="그룹_8305" data-name="그룹 8305" transform="translate(95.726 -363.883)">
      <path id="패스_8674" data-name="패스 8674" d="M0,0-151.363,102.33" fill="none" stroke="#92bb48" stroke-width="1"/>
    </g>
    <g id="그룹_8306" data-name="그룹 8306" transform="translate(95.726 -347.71)">
      <path id="패스_8675" data-name="패스 8675" d="M0,0-151.363,102.33" fill="none" stroke="#92bb48" stroke-width="1"/>
    </g>
    <g id="그룹_8307" data-name="그룹 8307" transform="translate(95.726 -331.536)">
      <path id="패스_8676" data-name="패스 8676" d="M0,0-151.363,102.33" fill="none" stroke="#92bb48" stroke-width="1"/>
    </g>
    <g id="그룹_8308" data-name="그룹 8308" transform="translate(95.726 -432.62)">
      <path id="패스_8677" data-name="패스 8677" d="M0,0-151.363,102.33" fill="none" stroke="#92bb48" stroke-width="1"/>
    </g>
    <g id="그룹_8309" data-name="그룹 8309" transform="translate(95.726 -416.447)">
      <path id="패스_8678" data-name="패스 8678" d="M0,0-151.363,102.33" fill="none" stroke="#92bb48" stroke-width="1"/>
    </g>
    <g id="그룹_8310" data-name="그룹 8310" transform="translate(95.726 -400.273)">
      <path id="패스_8679" data-name="패스 8679" d="M0,0-151.363,102.33" fill="none" stroke="#92bb48" stroke-width="1"/>
    </g>
    <g id="그룹_8311" data-name="그룹 8311" transform="translate(95.726 -424.533)">
      <path id="패스_8680" data-name="패스 8680" d="M0,0-151.363,102.33" fill="none" stroke="#92bb48" stroke-width="1"/>
    </g>
    <g id="그룹_8312" data-name="그룹 8312" transform="translate(95.726 -384.1)">
      <path id="패스_8681" data-name="패스 8681" d="M0,0-151.363,102.33" fill="none" stroke="#92bb48" stroke-width="1"/>
    </g>
    <g id="그룹_8313" data-name="그룹 8313" transform="translate(95.726 -408.36)">
      <path id="패스_8682" data-name="패스 8682" d="M0,0-151.363,102.33" fill="none" stroke="#92bb48" stroke-width="1"/>
    </g>
    <g id="그룹_8314" data-name="그룹 8314" transform="translate(95.726 -367.927)">
      <path id="패스_8683" data-name="패스 8683" d="M0,0-151.363,102.33" fill="none" stroke="#92bb48" stroke-width="1"/>
    </g>
    <g id="그룹_8315" data-name="그룹 8315" transform="translate(95.726 -392.187)">
      <path id="패스_8684" data-name="패스 8684" d="M0,0-151.363,102.33" fill="none" stroke="#92bb48" stroke-width="1"/>
    </g>
    <g id="그룹_8316" data-name="그룹 8316" transform="translate(95.726 -351.753)">
      <path id="패스_8685" data-name="패스 8685" d="M0,0-151.363,102.33" fill="none" stroke="#92bb48" stroke-width="1"/>
    </g>
    <g id="그룹_8317" data-name="그룹 8317" transform="translate(95.726 -376.013)">
      <path id="패스_8686" data-name="패스 8686" d="M0,0-151.363,102.33" fill="none" stroke="#92bb48" stroke-width="1"/>
    </g>
    <g id="그룹_8318" data-name="그룹 8318" transform="translate(95.726 -335.58)">
      <path id="패스_8687" data-name="패스 8687" d="M0,0-151.363,102.33" fill="none" stroke="#92bb48" stroke-width="1"/>
    </g>
    <g id="그룹_8319" data-name="그룹 8319" transform="translate(95.726 -359.84)">
      <path id="패스_8688" data-name="패스 8688" d="M0,0-151.363,102.33" fill="none" stroke="#92bb48" stroke-width="1"/>
    </g>
    <g id="그룹_8320" data-name="그룹 8320" transform="translate(95.726 -343.666)">
      <path id="패스_8689" data-name="패스 8689" d="M0,0-151.363,102.33" fill="none" stroke="#92bb48" stroke-width="1"/>
    </g>
    <g id="그룹_8321" data-name="그룹 8321" transform="translate(95.726 -327.493)">
      <path id="패스_8690" data-name="패스 8690" d="M0,0-151.363,102.33" fill="none" stroke="#92bb48" stroke-width="1"/>
    </g>
  </g>
</svg>
