<svg id="구성_요소_84_1" data-name="구성 요소 84 – 1" xmlns="http://www.w3.org/2000/svg" xmlns:xlink="http://www.w3.org/1999/xlink" width="9.717" height="9.716" viewBox="0 0 9.717 9.716">
  <defs>
    <clipPath id="clip-path">
      <path id="패스_8662" data-name="패스 8662" d="M15.186-347.633H24.9v-9.716H15.186Z" fill="none"/>
    </clipPath>
  </defs>
  <g id="그룹_8293" data-name="그룹 8293" transform="translate(-15.186 357.349)" clip-path="url(#clip-path)">
    <g id="그룹_8265" data-name="그룹 8265" transform="translate(95.726 -458.241)">
      <path id="패스_8634" data-name="패스 8634" d="M0,0-151.363,102.33" fill="none" stroke="#c6da97" stroke-width="1"/>
    </g>
    <g id="그룹_8266" data-name="그룹 8266" transform="translate(95.726 -442.068)">
      <path id="패스_8635" data-name="패스 8635" d="M0,0-151.363,102.33" fill="none" stroke="#c6da97" stroke-width="1"/>
    </g>
    <g id="그룹_8267" data-name="그룹 8267" transform="translate(95.726 -425.895)">
      <path id="패스_8636" data-name="패스 8636" d="M0,0-151.363,102.33" fill="none" stroke="#c6da97" stroke-width="1"/>
    </g>
    <g id="그룹_8268" data-name="그룹 8268" transform="translate(95.726 -450.155)">
      <path id="패스_8637" data-name="패스 8637" d="M0,0-151.363,102.33" fill="none" stroke="#c6da97" stroke-width="1"/>
    </g>
    <g id="그룹_8269" data-name="그룹 8269" transform="translate(95.726 -409.721)">
      <path id="패스_8638" data-name="패스 8638" d="M0,0-151.363,102.33" fill="none" stroke="#c6da97" stroke-width="1"/>
    </g>
    <g id="그룹_8270" data-name="그룹 8270" transform="translate(95.726 -433.981)">
      <path id="패스_8639" data-name="패스 8639" d="M0,0-151.363,102.33" fill="none" stroke="#c6da97" stroke-width="1"/>
    </g>
    <g id="그룹_8271" data-name="그룹 8271" transform="translate(95.726 -393.548)">
      <path id="패스_8640" data-name="패스 8640" d="M0,0-151.363,102.33" fill="none" stroke="#c6da97" stroke-width="1"/>
    </g>
    <g id="그룹_8272" data-name="그룹 8272" transform="translate(95.726 -417.808)">
      <path id="패스_8641" data-name="패스 8641" d="M0,0-151.363,102.33" fill="none" stroke="#c6da97" stroke-width="1"/>
    </g>
    <g id="그룹_8273" data-name="그룹 8273" transform="translate(95.726 -377.375)">
      <path id="패스_8642" data-name="패스 8642" d="M0,0-151.363,102.33" fill="none" stroke="#c6da97" stroke-width="1"/>
    </g>
    <g id="그룹_8274" data-name="그룹 8274" transform="translate(95.726 -401.635)">
      <path id="패스_8643" data-name="패스 8643" d="M0,0-151.363,102.33" fill="none" stroke="#c6da97" stroke-width="1"/>
    </g>
    <g id="그룹_8275" data-name="그룹 8275" transform="translate(95.726 -361.201)">
      <path id="패스_8644" data-name="패스 8644" d="M0,0-151.363,102.33" fill="none" stroke="#c6da97" stroke-width="1"/>
    </g>
    <g id="그룹_8276" data-name="그룹 8276" transform="translate(95.726 -385.461)">
      <path id="패스_8645" data-name="패스 8645" d="M0,0-151.363,102.33" fill="none" stroke="#c6da97" stroke-width="1"/>
    </g>
    <g id="그룹_8277" data-name="그룹 8277" transform="translate(95.726 -369.288)">
      <path id="패스_8646" data-name="패스 8646" d="M0,0-151.363,102.33" fill="none" stroke="#c6da97" stroke-width="1"/>
    </g>
    <g id="그룹_8278" data-name="그룹 8278" transform="translate(95.726 -353.115)">
      <path id="패스_8647" data-name="패스 8647" d="M0,0-151.363,102.33" fill="none" stroke="#c6da97" stroke-width="1"/>
    </g>
    <g id="그룹_8279" data-name="그룹 8279" transform="translate(95.726 -454.198)">
      <path id="패스_8648" data-name="패스 8648" d="M0,0-151.363,102.33" fill="none" stroke="#c6da97" stroke-width="1"/>
    </g>
    <g id="그룹_8280" data-name="그룹 8280" transform="translate(95.726 -438.025)">
      <path id="패스_8649" data-name="패스 8649" d="M0,0-151.363,102.33" fill="none" stroke="#c6da97" stroke-width="1"/>
    </g>
    <g id="그룹_8281" data-name="그룹 8281" transform="translate(95.726 -421.851)">
      <path id="패스_8650" data-name="패스 8650" d="M0,0-151.363,102.33" fill="none" stroke="#c6da97" stroke-width="1"/>
    </g>
    <g id="그룹_8282" data-name="그룹 8282" transform="translate(95.726 -446.111)">
      <path id="패스_8651" data-name="패스 8651" d="M0,0-151.363,102.33" fill="none" stroke="#c6da97" stroke-width="1"/>
    </g>
    <g id="그룹_8283" data-name="그룹 8283" transform="translate(95.726 -405.678)">
      <path id="패스_8652" data-name="패스 8652" d="M0,0-151.363,102.33" fill="none" stroke="#c6da97" stroke-width="1"/>
    </g>
    <g id="그룹_8284" data-name="그룹 8284" transform="translate(95.726 -429.938)">
      <path id="패스_8653" data-name="패스 8653" d="M0,0-151.363,102.33" fill="none" stroke="#c6da97" stroke-width="1"/>
    </g>
    <g id="그룹_8285" data-name="그룹 8285" transform="translate(95.726 -389.505)">
      <path id="패스_8654" data-name="패스 8654" d="M0,0-151.363,102.33" fill="none" stroke="#c6da97" stroke-width="1"/>
    </g>
    <g id="그룹_8286" data-name="그룹 8286" transform="translate(95.726 -413.765)">
      <path id="패스_8655" data-name="패스 8655" d="M0,0-151.363,102.33" fill="none" stroke="#c6da97" stroke-width="1"/>
    </g>
    <g id="그룹_8287" data-name="그룹 8287" transform="translate(95.726 -373.331)">
      <path id="패스_8656" data-name="패스 8656" d="M0,0-151.363,102.33" fill="none" stroke="#c6da97" stroke-width="1"/>
    </g>
    <g id="그룹_8288" data-name="그룹 8288" transform="translate(95.726 -397.591)">
      <path id="패스_8657" data-name="패스 8657" d="M0,0-151.363,102.33" fill="none" stroke="#c6da97" stroke-width="1"/>
    </g>
    <g id="그룹_8289" data-name="그룹 8289" transform="translate(95.726 -357.158)">
      <path id="패스_8658" data-name="패스 8658" d="M0,0-151.363,102.33" fill="none" stroke="#c6da97" stroke-width="1"/>
    </g>
    <g id="그룹_8290" data-name="그룹 8290" transform="translate(95.726 -381.418)">
      <path id="패스_8659" data-name="패스 8659" d="M0,0-151.363,102.33" fill="none" stroke="#c6da97" stroke-width="1"/>
    </g>
    <g id="그룹_8291" data-name="그룹 8291" transform="translate(95.726 -365.245)">
      <path id="패스_8660" data-name="패스 8660" d="M0,0-151.363,102.33" fill="none" stroke="#c6da97" stroke-width="1"/>
    </g>
    <g id="그룹_8292" data-name="그룹 8292" transform="translate(95.726 -349.071)">
      <path id="패스_8661" data-name="패스 8661" d="M0,0-151.363,102.33" fill="none" stroke="#c6da97" stroke-width="1"/>
    </g>
  </g>
</svg>
