<svg xmlns="http://www.w3.org/2000/svg" id="prefix__구성_요소_16_1" width="81.27" height="81.27" data-name="구성 요소 16 – 1" viewBox="0 0 81.27 81.27">
    <defs>
        <style>
            .prefix__cls-2{fill:#fff}
        </style>
    </defs>
    <path id="prefix__패스_278" d="M3093.635 2798.22a40.635 40.635 0 1 1-40.635-40.635 40.635 40.635 0 0 1 40.635 40.635" data-name="패스 278" transform="translate(-3012.365 -2757.585)" style="fill:#64cdf2"/>
    <path id="prefix__패스_279" d="M3065.285 2816.278c0-6.016-11.294-19.494-11.294-19.494s-11.294 13.478-11.294 19.494a11.3 11.3 0 0 0 22.588 0m-7.145-5.724c1.485 2.512 2.453 4.626 2.453 5.724a6.5 6.5 0 0 1-6.6 6.369" data-name="패스 279" transform="translate(-3012.365 -2757.585)"/>
    <path id="prefix__패스_280" d="M3053.588 2822.361a8.078 8.078 0 1 0-8.386-8.072 8.233 8.233 0 0 0 8.386 8.072" class="prefix__cls-2" data-name="패스 280" transform="translate(-3012.365 -2757.585)"/>
    <path id="prefix__패스_281" d="M3063.372 2815.093c0-5.974-11.217-19.357-11.217-19.357s-11.215 13.383-11.215 19.357a11.223 11.223 0 0 0 22.432 0m-7.095-5.684c1.473 2.5 2.435 4.593 2.435 5.684a6.451 6.451 0 0 1-6.557 6.324" class="prefix__cls-2" data-name="패스 281" transform="translate(-3012.365 -2757.585)"/>
    <path id="prefix__패스_282" d="M3063.125 2815.073c0-5.849-10.969-18.952-10.969-18.952s-10.969 13.1-10.969 18.952a10.976 10.976 0 0 0 21.938 0zm-6.938-5.565c1.441 2.442 2.381 4.5 2.381 5.565a6.312 6.312 0 0 1-6.412 6.191" data-name="패스 282" transform="translate(-3012.365 -2757.585)" style="fill:none;stroke:#000;stroke-miterlimit:10;stroke-width:.945px"/>
</svg>
