<svg xmlns="http://www.w3.org/2000/svg" width="49.075" height="47.911" viewBox="0 0 49.075 47.911">
    <defs>
        <style>
            .prefix__cls-1{fill:none;stroke:#f0c560;stroke-miterlimit:10;stroke-width:.143px}
        </style>
    </defs>
    <g id="prefix__구성_요소_26_1" data-name="구성 요소 26 – 1" transform="translate(.071 .072)">
        <g id="prefix__그룹_25" data-name="그룹 25" transform="translate(-964.361 -5118.498)">
            <path id="prefix__패스_128" d="M1013.293 5143.586a22.68 22.68 0 1 1-22.68-22.68 22.68 22.68 0 0 1 22.68 22.68" data-name="패스 128"/>
            <path id="prefix__패스_129" d="M1013.293 5143.586a22.68 22.68 0 1 1-22.68-22.68 22.68 22.68 0 0 1 22.68 22.68z" class="prefix__cls-1" data-name="패스 129"/>
            <path id="prefix__패스_130" fill="#d6a803" d="M1009.721 5141.177a22.68 22.68 0 1 1-22.68-22.679 22.679 22.679 0 0 1 22.68 22.679" data-name="패스 130"/>
            <path id="prefix__패스_131" d="M1009.721 5141.177a22.68 22.68 0 1 1-22.68-22.679 22.679 22.679 0 0 1 22.68 22.679z" class="prefix__cls-1" data-name="패스 131"/>
        </g>
        <text id="prefix___02" fill="#fff" data-name="2" font-family="NotoSansKR-Medium, Noto Sans KR" font-size="16px" font-weight="500" transform="translate(13.72 28.428)">
            <tspan x="0" y="0" letter-spacing="-0.019em">0</tspan><tspan y="0">2</tspan>
        </text>
    </g>
</svg>
