<svg xmlns="http://www.w3.org/2000/svg" id="prefix__구성_요소_8_1" width="402.505" height="327.804" data-name="구성 요소 8 – 1" viewBox="0 0 402.505 327.804">
    <defs>
        <clipPath id="prefix__clip-path">
            <path id="prefix__사각형_52" d="M0 0H40V172.878H0z" class="prefix__cls-1" data-name="사각형 52" transform="translate(1392.909 3343.881)"/>
        </clipPath>
        <clipPath id="prefix__clip-path-2">
            <path id="prefix__사각형_54" d="M0 0H40V194H0z" class="prefix__cls-1" data-name="사각형 54" transform="translate(1325.622 3322.759)"/>
        </clipPath>
        <clipPath id="prefix__clip-path-3">
            <path id="prefix__사각형_56" d="M0 0H40V172.878H0z" class="prefix__cls-1" data-name="사각형 56" transform="translate(1258.375 3343.881)"/>
        </clipPath>
        <style>
            .prefix__cls-1,.prefix__cls-15{fill:none}.prefix__cls-9{fill:#1e2323}.prefix__cls-3{letter-spacing:-.02em}.prefix__cls-5{letter-spacing:-.019em}.prefix__cls-9{font-family:NotoSansKR-Light,Noto Sans KR;font-weight:300}.prefix__cls-7{letter-spacing:-.014em}.prefix__cls-8{letter-spacing:-.015em}.prefix__cls-9{font-size:14px}.prefix__cls-13{font-size:15px}.prefix__cls-12{fill:#f5f6f7}.prefix__cls-13{fill:#4b4f50;font-family:NotoSansKR-Regular,Noto Sans KR}.prefix__cls-15{stroke:#1394d1}
        </style>
    </defs>
    <text id="prefix__코웨이_고객만족도" fill="#1e2323" data-name="코웨이 고객만족도" font-family="NotoSansKR-Medium, Noto Sans KR" font-size="16px" font-weight="500" transform="translate(0 19)">
        <tspan x="0" y="0" class="prefix__cls-3">코웨이 고객만족</tspan><tspan y="0">도</tspan>
    </text>
    <text id="prefix___1_" fill="#1e2323" data-name="1)" font-family="NotoSansKR-Medium, Noto Sans KR" font-size="9.328px" font-weight="500" transform="translate(119.36 13.672)">
        <tspan x="0" y="0" class="prefix__cls-5">1</tspan><tspan y="0">)</tspan>
    </text>
    <text id="prefix___단위_:_" fill="#1e2323" data-name="(단위 : )" font-family="NotoSansKR-Light, Noto Sans KR" font-size="12px" font-weight="300" transform="translate(0 40)">
        <tspan x="0" y="0" class="prefix__cls-7">(</tspan><tspan y="0" class="prefix__cls-8">단</tspan><tspan y="0" class="prefix__cls-7">위</tspan><tspan y="0" class="prefix__cls-8"> </tspan><tspan y="0" class="prefix__cls-7">: </tspan><tspan y="0">)</tspan>
    </text>
    <text id="prefix___2017" class="prefix__cls-9" data-name="2017" transform="translate(151.215 322.364)">
        <tspan x="0" y="0" class="prefix__cls-7">201</tspan><tspan y="0">7</tspan>
    </text>
    <text id="prefix___2018" class="prefix__cls-9" data-name="2018" transform="translate(218.457 322.364)">
        <tspan x="0" y="0" class="prefix__cls-7">201</tspan><tspan y="0">8</tspan>
    </text>
    <text id="prefix___2019" class="prefix__cls-9" data-name="2019" transform="translate(282.409 322.364)">
        <tspan x="0" y="0" class="prefix__cls-7">201</tspan><tspan y="0">9</tspan>
    </text>
    <text id="prefix___2_" fill="#1e2323" data-name="2)" font-family="NotoSansKR-Light, Noto Sans KR" font-size="8.162px" font-weight="300" transform="translate(312.932 317.702)">
        <tspan x="0" y="0" class="prefix__cls-7">2</tspan><tspan y="0">)</tspan>
    </text>
    <text id="prefix___2020_목표" fill="#1f4a8c" data-name="2020 목표" font-family="NotoSansKR-Medium, Noto Sans KR" font-size="15px" font-weight="500" transform="translate(338.306 322.804)">
        <tspan x="0" y="0" class="prefix__cls-5">2020</tspan><tspan y="0" class="prefix__cls-3"> 목</tspan><tspan y="0">표</tspan>
    </text>
    <path id="prefix__사각형_51" d="M0 0H40V253.684H0z" class="prefix__cls-12" data-name="사각형 51" transform="translate(280.338 44.919)"/>
    <text id="prefix___75_1" class="prefix__cls-13" data-name="75.1" transform="translate(286.283 69.12)">
        <tspan x="0" y="0" class="prefix__cls-3">7</tspan><tspan y="0" class="prefix__cls-5">5.</tspan><tspan y="0">1</tspan>
    </text>
    <g id="prefix__그룹_62" data-name="그룹 62" transform="translate(-1112.495 -3218.156)">
        <g id="prefix__그룹_61" clip-path="url(#prefix__clip-path)" data-name="그룹 61">
            <path id="prefix__선_39" d="M151.363 0L0 102.33" class="prefix__cls-15" data-name="선 39" transform="translate(1337.227 3259.876)"/>
            <path id="prefix__선_40" d="M151.363 0L0 102.33" class="prefix__cls-15" data-name="선 40" transform="translate(1337.227 3251.79)"/>
            <path id="prefix__선_41" d="M151.363 0L0 102.33" class="prefix__cls-15" data-name="선 41" transform="translate(1337.227 3267.963)"/>
            <path id="prefix__선_42" d="M151.363 0L0 102.33" class="prefix__cls-15" data-name="선 42" transform="translate(1337.227 3255.833)"/>
            <path id="prefix__선_43" d="M151.363 0L0 102.33" class="prefix__cls-15" data-name="선 43" transform="translate(1337.227 3276.049)"/>
            <path id="prefix__선_44" d="M151.363 0L0 102.33" class="prefix__cls-15" data-name="선 44" transform="translate(1337.227 3263.919)"/>
            <path id="prefix__선_45" d="M151.363 0L0 102.33" class="prefix__cls-15" data-name="선 45" transform="translate(1337.227 3284.136)"/>
            <path id="prefix__선_46" d="M151.363 0L0 102.33" class="prefix__cls-15" data-name="선 46" transform="translate(1337.227 3272.006)"/>
            <path id="prefix__선_47" d="M151.363 0L0 102.33" class="prefix__cls-15" data-name="선 47" transform="translate(1337.227 3292.223)"/>
            <path id="prefix__선_48" d="M151.363 0L0 102.33" class="prefix__cls-15" data-name="선 48" transform="translate(1337.227 3280.093)"/>
            <path id="prefix__선_49" d="M151.363 0L0 102.33" class="prefix__cls-15" data-name="선 49" transform="translate(1337.227 3300.31)"/>
            <path id="prefix__선_50" d="M151.363 0L0 102.33" class="prefix__cls-15" data-name="선 50" transform="translate(1337.227 3288.18)"/>
            <path id="prefix__선_51" d="M151.363 0L0 102.33" class="prefix__cls-15" data-name="선 51" transform="translate(1337.227 3308.396)"/>
            <path id="prefix__선_52" d="M151.363 0L0 102.33" class="prefix__cls-15" data-name="선 52" transform="translate(1337.227 3296.266)"/>
            <path id="prefix__선_53" d="M151.363 0L0 102.33" class="prefix__cls-15" data-name="선 53" transform="translate(1337.227 3324.569)"/>
            <path id="prefix__선_54" d="M151.363 0L0 102.33" class="prefix__cls-15" data-name="선 54" transform="translate(1337.227 3304.353)"/>
            <path id="prefix__선_55" d="M151.363 0L0 102.33" class="prefix__cls-15" data-name="선 55" transform="translate(1337.227 3340.743)"/>
            <path id="prefix__선_56" d="M151.363 0L0 102.33" class="prefix__cls-15" data-name="선 56" transform="translate(1337.227 3316.483)"/>
            <path id="prefix__선_57" d="M151.363 0L0 102.33" class="prefix__cls-15" data-name="선 57" transform="translate(1337.227 3356.917)"/>
            <path id="prefix__선_58" d="M151.363 0L0 102.33" class="prefix__cls-15" data-name="선 58" transform="translate(1337.227 3332.656)"/>
            <path id="prefix__선_59" d="M151.363 0L0 102.33" class="prefix__cls-15" data-name="선 59" transform="translate(1337.227 3373.09)"/>
            <path id="prefix__선_60" d="M151.363 0L0 102.33" class="prefix__cls-15" data-name="선 60" transform="translate(1337.227 3348.83)"/>
            <path id="prefix__선_61" d="M151.363 0L0 102.33" class="prefix__cls-15" data-name="선 61" transform="translate(1337.227 3389.263)"/>
            <path id="prefix__선_62" d="M151.363 0L0 102.33" class="prefix__cls-15" data-name="선 62" transform="translate(1337.227 3365.003)"/>
            <path id="prefix__선_63" d="M151.363 0L0 102.33" class="prefix__cls-15" data-name="선 63" transform="translate(1337.227 3405.437)"/>
            <path id="prefix__선_64" d="M151.363 0L0 102.33" class="prefix__cls-15" data-name="선 64" transform="translate(1337.227 3381.176)"/>
            <path id="prefix__선_65" d="M151.363 0L0 102.33" class="prefix__cls-15" data-name="선 65" transform="translate(1337.227 3421.61)"/>
            <path id="prefix__선_66" d="M151.363 0L0 102.33" class="prefix__cls-15" data-name="선 66" transform="translate(1337.227 3397.35)"/>
            <path id="prefix__선_67" d="M151.363 0L0 102.33" class="prefix__cls-15" data-name="선 67" transform="translate(1337.227 3437.783)"/>
            <path id="prefix__선_68" d="M151.363 0L0 102.33" class="prefix__cls-15" data-name="선 68" transform="translate(1337.227 3413.523)"/>
            <path id="prefix__선_69" d="M151.363 0L0 102.33" class="prefix__cls-15" data-name="선 69" transform="translate(1337.227 3449.913)"/>
            <path id="prefix__선_70" d="M151.363 0L0 102.33" class="prefix__cls-15" data-name="선 70" transform="translate(1337.227 3429.696)"/>
            <path id="prefix__선_71" d="M151.363 0L0 102.33" class="prefix__cls-15" data-name="선 71" transform="translate(1337.227 3328.613)"/>
            <path id="prefix__선_72" d="M151.363 0L0 102.33" class="prefix__cls-15" data-name="선 72" transform="translate(1337.227 3312.439)"/>
            <path id="prefix__선_73" d="M151.363 0L0 102.33" class="prefix__cls-15" data-name="선 73" transform="translate(1337.227 3344.786)"/>
            <path id="prefix__선_74" d="M151.363 0L0 102.33" class="prefix__cls-15" data-name="선 74" transform="translate(1337.227 3320.526)"/>
            <path id="prefix__선_75" d="M151.363 0L0 102.33" class="prefix__cls-15" data-name="선 75" transform="translate(1337.227 3360.959)"/>
            <path id="prefix__선_76" d="M151.363 0L0 102.33" class="prefix__cls-15" data-name="선 76" transform="translate(1337.227 3336.7)"/>
            <path id="prefix__선_77" d="M151.363 0L0 102.33" class="prefix__cls-15" data-name="선 77" transform="translate(1337.227 3377.133)"/>
            <path id="prefix__선_78" d="M151.363 0L0 102.33" class="prefix__cls-15" data-name="선 78" transform="translate(1337.227 3352.873)"/>
            <path id="prefix__선_79" d="M151.363 0L0 102.33" class="prefix__cls-15" data-name="선 79" transform="translate(1337.227 3393.306)"/>
            <path id="prefix__선_80" d="M151.363 0L0 102.33" class="prefix__cls-15" data-name="선 80" transform="translate(1337.227 3369.046)"/>
            <path id="prefix__선_81" d="M151.363 0L0 102.33" class="prefix__cls-15" data-name="선 81" transform="translate(1337.227 3409.479)"/>
            <path id="prefix__선_82" d="M151.363 0L0 102.33" class="prefix__cls-15" data-name="선 82" transform="translate(1337.227 3385.22)"/>
            <path id="prefix__선_83" d="M151.363 0L0 102.33" class="prefix__cls-15" data-name="선 83" transform="translate(1337.227 3425.653)"/>
            <path id="prefix__선_84" d="M151.363 0L0 102.33" class="prefix__cls-15" data-name="선 84" transform="translate(1337.227 3401.393)"/>
            <path id="prefix__선_85" d="M151.363 0L0 102.33" class="prefix__cls-15" data-name="선 85" transform="translate(1337.227 3441.827)"/>
            <path id="prefix__선_86" d="M151.363 0L0 102.33" class="prefix__cls-15" data-name="선 86" transform="translate(1337.227 3417.566)"/>
            <path id="prefix__선_87" d="M151.363 0L0 102.33" class="prefix__cls-15" data-name="선 87" transform="translate(1337.227 3453.957)"/>
            <path id="prefix__선_88" d="M151.363 0L0 102.33" class="prefix__cls-15" data-name="선 88" transform="translate(1337.227 3433.74)"/>
            <path id="prefix__선_89" d="M151.363 0L0 102.33" class="prefix__cls-15" data-name="선 89" transform="translate(1337.227 3462.043)"/>
            <path id="prefix__선_90" d="M151.363 0L0 102.33" class="prefix__cls-15" data-name="선 90" transform="translate(1337.227 3445.87)"/>
            <path id="prefix__선_91" d="M151.363 0L0 102.33" class="prefix__cls-15" data-name="선 91" transform="translate(1337.227 3470.13)"/>
            <path id="prefix__선_92" d="M151.363 0L0 102.33" class="prefix__cls-15" data-name="선 92" transform="translate(1337.227 3458)"/>
            <path id="prefix__선_93" d="M151.363 0L0 102.33" class="prefix__cls-15" data-name="선 93" transform="translate(1337.227 3478.216)"/>
            <path id="prefix__선_94" d="M151.363 0L0 102.33" class="prefix__cls-15" data-name="선 94" transform="translate(1337.227 3466.086)"/>
            <path id="prefix__선_95" d="M151.363 0L0 102.33" class="prefix__cls-15" data-name="선 95" transform="translate(1337.227 3486.303)"/>
            <path id="prefix__선_96" d="M151.363 0L0 102.33" class="prefix__cls-15" data-name="선 96" transform="translate(1337.227 3474.173)"/>
            <path id="prefix__선_97" d="M151.363 0L0 102.33" class="prefix__cls-15" data-name="선 97" transform="translate(1337.227 3494.39)"/>
            <path id="prefix__선_98" d="M151.363 0L0 102.33" class="prefix__cls-15" data-name="선 98" transform="translate(1337.227 3482.26)"/>
            <path id="prefix__선_99" d="M151.363 0L0 102.33" class="prefix__cls-15" data-name="선 99" transform="translate(1337.227 3502.477)"/>
            <path id="prefix__선_100" d="M151.363 0L0 102.33" class="prefix__cls-15" data-name="선 100" transform="translate(1337.227 3490.347)"/>
            <path id="prefix__선_101" d="M151.363 0L0 102.33" class="prefix__cls-15" data-name="선 101" transform="translate(1337.227 3506.52)"/>
            <path id="prefix__선_102" d="M151.363 0L0 102.33" class="prefix__cls-15" data-name="선 102" transform="translate(1337.227 3498.433)"/>
        </g>
    </g>
    <path id="prefix__사각형_53" d="M0 0H40V253.684H0z" class="prefix__cls-12" data-name="사각형 53" transform="translate(213.128 44.919)"/>
    <text id="prefix___79" class="prefix__cls-13" data-name="79" transform="translate(224.953 69.12)">
        <tspan x="0" y="0" class="prefix__cls-3">7</tspan><tspan y="0">9</tspan>
    </text>
    <g id="prefix__그룹_64" data-name="그룹 64" transform="translate(-1112.495 -3218.156)">
        <g id="prefix__그룹_63" clip-path="url(#prefix__clip-path-2)" data-name="그룹 63">
            <path id="prefix__선_103" d="M151.363 0L0 102.33" class="prefix__cls-15" data-name="선 103" transform="translate(1261.766 3259.876)"/>
            <path id="prefix__선_104" d="M151.363 0L0 102.33" class="prefix__cls-15" data-name="선 104" transform="translate(1261.766 3251.79)"/>
            <path id="prefix__선_105" d="M151.363 0L0 102.33" class="prefix__cls-15" data-name="선 105" transform="translate(1261.766 3267.963)"/>
            <path id="prefix__선_106" d="M151.363 0L0 102.33" class="prefix__cls-15" data-name="선 106" transform="translate(1261.766 3255.833)"/>
            <path id="prefix__선_107" d="M151.363 0L0 102.33" class="prefix__cls-15" data-name="선 107" transform="translate(1261.766 3276.049)"/>
            <path id="prefix__선_108" d="M151.363 0L0 102.33" class="prefix__cls-15" data-name="선 108" transform="translate(1261.766 3263.919)"/>
            <path id="prefix__선_109" d="M151.363 0L0 102.33" class="prefix__cls-15" data-name="선 109" transform="translate(1261.766 3284.136)"/>
            <path id="prefix__선_110" d="M151.363 0L0 102.33" class="prefix__cls-15" data-name="선 110" transform="translate(1261.766 3272.006)"/>
            <path id="prefix__선_111" d="M151.363 0L0 102.33" class="prefix__cls-15" data-name="선 111" transform="translate(1261.766 3292.223)"/>
            <path id="prefix__선_112" d="M151.363 0L0 102.33" class="prefix__cls-15" data-name="선 112" transform="translate(1261.766 3280.093)"/>
            <path id="prefix__선_113" d="M151.363 0L0 102.33" class="prefix__cls-15" data-name="선 113" transform="translate(1261.766 3300.31)"/>
            <path id="prefix__선_114" d="M151.363 0L0 102.33" class="prefix__cls-15" data-name="선 114" transform="translate(1261.766 3288.18)"/>
            <path id="prefix__선_115" d="M151.363 0L0 102.33" class="prefix__cls-15" data-name="선 115" transform="translate(1261.766 3308.396)"/>
            <path id="prefix__선_116" d="M151.363 0L0 102.33" class="prefix__cls-15" data-name="선 116" transform="translate(1261.766 3296.266)"/>
            <path id="prefix__선_117" d="M151.363 0L0 102.33" class="prefix__cls-15" data-name="선 117" transform="translate(1261.766 3324.569)"/>
            <path id="prefix__선_118" d="M151.363 0L0 102.33" class="prefix__cls-15" data-name="선 118" transform="translate(1261.766 3304.353)"/>
            <path id="prefix__선_119" d="M151.363 0L0 102.33" class="prefix__cls-15" data-name="선 119" transform="translate(1261.766 3340.743)"/>
            <path id="prefix__선_120" d="M151.363 0L0 102.33" class="prefix__cls-15" data-name="선 120" transform="translate(1261.766 3316.483)"/>
            <path id="prefix__선_121" d="M151.363 0L0 102.33" class="prefix__cls-15" data-name="선 121" transform="translate(1261.766 3356.917)"/>
            <path id="prefix__선_122" d="M151.363 0L0 102.33" class="prefix__cls-15" data-name="선 122" transform="translate(1261.766 3332.656)"/>
            <path id="prefix__선_123" d="M151.363 0L0 102.33" class="prefix__cls-15" data-name="선 123" transform="translate(1261.766 3373.09)"/>
            <path id="prefix__선_124" d="M151.363 0L0 102.33" class="prefix__cls-15" data-name="선 124" transform="translate(1261.766 3348.83)"/>
            <path id="prefix__선_125" d="M151.363 0L0 102.33" class="prefix__cls-15" data-name="선 125" transform="translate(1261.766 3389.263)"/>
            <path id="prefix__선_126" d="M151.363 0L0 102.33" class="prefix__cls-15" data-name="선 126" transform="translate(1261.766 3365.003)"/>
            <path id="prefix__선_127" d="M151.363 0L0 102.33" class="prefix__cls-15" data-name="선 127" transform="translate(1261.766 3405.437)"/>
            <path id="prefix__선_128" d="M151.363 0L0 102.33" class="prefix__cls-15" data-name="선 128" transform="translate(1261.766 3381.176)"/>
            <path id="prefix__선_129" d="M151.363 0L0 102.33" class="prefix__cls-15" data-name="선 129" transform="translate(1261.766 3421.61)"/>
            <path id="prefix__선_130" d="M151.363 0L0 102.33" class="prefix__cls-15" data-name="선 130" transform="translate(1261.766 3397.35)"/>
            <path id="prefix__선_131" d="M151.363 0L0 102.33" class="prefix__cls-15" data-name="선 131" transform="translate(1261.766 3437.783)"/>
            <path id="prefix__선_132" d="M151.363 0L0 102.33" class="prefix__cls-15" data-name="선 132" transform="translate(1261.766 3413.523)"/>
            <path id="prefix__선_133" d="M151.363 0L0 102.33" class="prefix__cls-15" data-name="선 133" transform="translate(1261.766 3449.913)"/>
            <path id="prefix__선_134" d="M151.363 0L0 102.33" class="prefix__cls-15" data-name="선 134" transform="translate(1261.766 3429.696)"/>
            <path id="prefix__선_135" d="M151.363 0L0 102.33" class="prefix__cls-15" data-name="선 135" transform="translate(1261.766 3328.613)"/>
            <path id="prefix__선_136" d="M151.363 0L0 102.33" class="prefix__cls-15" data-name="선 136" transform="translate(1261.766 3312.439)"/>
            <path id="prefix__선_137" d="M151.363 0L0 102.33" class="prefix__cls-15" data-name="선 137" transform="translate(1261.766 3344.786)"/>
            <path id="prefix__선_138" d="M151.363 0L0 102.33" class="prefix__cls-15" data-name="선 138" transform="translate(1261.766 3320.526)"/>
            <path id="prefix__선_139" d="M151.363 0L0 102.33" class="prefix__cls-15" data-name="선 139" transform="translate(1261.766 3360.959)"/>
            <path id="prefix__선_140" d="M151.363 0L0 102.33" class="prefix__cls-15" data-name="선 140" transform="translate(1261.766 3336.7)"/>
            <path id="prefix__선_141" d="M151.363 0L0 102.33" class="prefix__cls-15" data-name="선 141" transform="translate(1261.766 3377.133)"/>
            <path id="prefix__선_142" d="M151.363 0L0 102.33" class="prefix__cls-15" data-name="선 142" transform="translate(1261.766 3352.873)"/>
            <path id="prefix__선_143" d="M151.363 0L0 102.33" class="prefix__cls-15" data-name="선 143" transform="translate(1261.766 3393.306)"/>
            <path id="prefix__선_144" d="M151.363 0L0 102.33" class="prefix__cls-15" data-name="선 144" transform="translate(1261.766 3369.046)"/>
            <path id="prefix__선_145" d="M151.363 0L0 102.33" class="prefix__cls-15" data-name="선 145" transform="translate(1261.766 3409.479)"/>
            <path id="prefix__선_146" d="M151.363 0L0 102.33" class="prefix__cls-15" data-name="선 146" transform="translate(1261.766 3385.22)"/>
            <path id="prefix__선_147" d="M151.363 0L0 102.33" class="prefix__cls-15" data-name="선 147" transform="translate(1261.766 3425.653)"/>
            <path id="prefix__선_148" d="M151.363 0L0 102.33" class="prefix__cls-15" data-name="선 148" transform="translate(1261.766 3401.393)"/>
            <path id="prefix__선_149" d="M151.363 0L0 102.33" class="prefix__cls-15" data-name="선 149" transform="translate(1261.766 3441.827)"/>
            <path id="prefix__선_150" d="M151.363 0L0 102.33" class="prefix__cls-15" data-name="선 150" transform="translate(1261.766 3417.566)"/>
            <path id="prefix__선_151" d="M151.363 0L0 102.33" class="prefix__cls-15" data-name="선 151" transform="translate(1261.766 3453.957)"/>
            <path id="prefix__선_152" d="M151.363 0L0 102.33" class="prefix__cls-15" data-name="선 152" transform="translate(1261.766 3433.74)"/>
            <path id="prefix__선_153" d="M151.363 0L0 102.33" class="prefix__cls-15" data-name="선 153" transform="translate(1261.766 3462.043)"/>
            <path id="prefix__선_154" d="M151.363 0L0 102.33" class="prefix__cls-15" data-name="선 154" transform="translate(1261.766 3445.87)"/>
            <path id="prefix__선_155" d="M151.363 0L0 102.33" class="prefix__cls-15" data-name="선 155" transform="translate(1261.766 3470.13)"/>
            <path id="prefix__선_156" d="M151.363 0L0 102.33" class="prefix__cls-15" data-name="선 156" transform="translate(1261.766 3458)"/>
            <path id="prefix__선_157" d="M151.363 0L0 102.33" class="prefix__cls-15" data-name="선 157" transform="translate(1261.766 3478.216)"/>
            <path id="prefix__선_158" d="M151.363 0L0 102.33" class="prefix__cls-15" data-name="선 158" transform="translate(1261.766 3466.086)"/>
            <path id="prefix__선_159" d="M151.363 0L0 102.33" class="prefix__cls-15" data-name="선 159" transform="translate(1261.766 3486.303)"/>
            <path id="prefix__선_160" d="M151.363 0L0 102.33" class="prefix__cls-15" data-name="선 160" transform="translate(1261.766 3474.173)"/>
            <path id="prefix__선_161" d="M151.363 0L0 102.33" class="prefix__cls-15" data-name="선 161" transform="translate(1261.766 3494.39)"/>
            <path id="prefix__선_162" d="M151.363 0L0 102.33" class="prefix__cls-15" data-name="선 162" transform="translate(1261.766 3482.26)"/>
            <path id="prefix__선_163" d="M151.363 0L0 102.33" class="prefix__cls-15" data-name="선 163" transform="translate(1261.766 3502.477)"/>
            <path id="prefix__선_164" d="M151.363 0L0 102.33" class="prefix__cls-15" data-name="선 164" transform="translate(1261.766 3490.347)"/>
            <path id="prefix__선_165" d="M151.363 0L0 102.33" class="prefix__cls-15" data-name="선 165" transform="translate(1261.766 3506.52)"/>
            <path id="prefix__선_166" d="M151.363 0L0 102.33" class="prefix__cls-15" data-name="선 166" transform="translate(1261.766 3498.433)"/>
        </g>
    </g>
    <path id="prefix__사각형_55" d="M0 0H40V253.684H0z" class="prefix__cls-12" data-name="사각형 55" transform="translate(145.88 44.919)"/>
    <text id="prefix___76" class="prefix__cls-13" data-name="76" transform="translate(157.705 69.12)">
        <tspan x="0" y="0" class="prefix__cls-3">7</tspan><tspan y="0">6</tspan>
    </text>
    <g id="prefix__그룹_66" data-name="그룹 66" transform="translate(-1112.495 -3218.156)">
        <g id="prefix__그룹_65" clip-path="url(#prefix__clip-path-3)" data-name="그룹 65">
            <path id="prefix__선_167" d="M151.363 0L0 102.33" class="prefix__cls-15" data-name="선 167" transform="translate(1202.693 3259.876)"/>
            <path id="prefix__선_168" d="M151.363 0L0 102.33" class="prefix__cls-15" data-name="선 168" transform="translate(1202.693 3251.79)"/>
            <path id="prefix__선_169" d="M151.363 0L0 102.33" class="prefix__cls-15" data-name="선 169" transform="translate(1202.693 3267.963)"/>
            <path id="prefix__선_170" d="M151.363 0L0 102.33" class="prefix__cls-15" data-name="선 170" transform="translate(1202.693 3255.833)"/>
            <path id="prefix__선_171" d="M151.363 0L0 102.33" class="prefix__cls-15" data-name="선 171" transform="translate(1202.693 3276.049)"/>
            <path id="prefix__선_172" d="M151.363 0L0 102.33" class="prefix__cls-15" data-name="선 172" transform="translate(1202.693 3263.919)"/>
            <path id="prefix__선_173" d="M151.363 0L0 102.33" class="prefix__cls-15" data-name="선 173" transform="translate(1202.693 3284.136)"/>
            <path id="prefix__선_174" d="M151.363 0L0 102.33" class="prefix__cls-15" data-name="선 174" transform="translate(1202.693 3272.006)"/>
            <path id="prefix__선_175" d="M151.363 0L0 102.33" class="prefix__cls-15" data-name="선 175" transform="translate(1202.693 3292.223)"/>
            <path id="prefix__선_176" d="M151.363 0L0 102.33" class="prefix__cls-15" data-name="선 176" transform="translate(1202.693 3280.093)"/>
            <path id="prefix__선_177" d="M151.363 0L0 102.33" class="prefix__cls-15" data-name="선 177" transform="translate(1202.693 3300.31)"/>
            <path id="prefix__선_178" d="M151.363 0L0 102.33" class="prefix__cls-15" data-name="선 178" transform="translate(1202.693 3288.18)"/>
            <path id="prefix__선_179" d="M151.363 0L0 102.33" class="prefix__cls-15" data-name="선 179" transform="translate(1202.693 3308.396)"/>
            <path id="prefix__선_180" d="M151.363 0L0 102.33" class="prefix__cls-15" data-name="선 180" transform="translate(1202.693 3296.266)"/>
            <path id="prefix__선_181" d="M151.363 0L0 102.33" class="prefix__cls-15" data-name="선 181" transform="translate(1202.693 3324.569)"/>
            <path id="prefix__선_182" d="M151.363 0L0 102.33" class="prefix__cls-15" data-name="선 182" transform="translate(1202.693 3304.353)"/>
            <path id="prefix__선_183" d="M151.363 0L0 102.33" class="prefix__cls-15" data-name="선 183" transform="translate(1202.693 3340.743)"/>
            <path id="prefix__선_184" d="M151.363 0L0 102.33" class="prefix__cls-15" data-name="선 184" transform="translate(1202.693 3316.483)"/>
            <path id="prefix__선_185" d="M151.363 0L0 102.33" class="prefix__cls-15" data-name="선 185" transform="translate(1202.693 3356.917)"/>
            <path id="prefix__선_186" d="M151.363 0L0 102.33" class="prefix__cls-15" data-name="선 186" transform="translate(1202.693 3332.656)"/>
            <path id="prefix__선_187" d="M151.363 0L0 102.33" class="prefix__cls-15" data-name="선 187" transform="translate(1202.693 3373.09)"/>
            <path id="prefix__선_188" d="M151.363 0L0 102.33" class="prefix__cls-15" data-name="선 188" transform="translate(1202.693 3348.83)"/>
            <path id="prefix__선_189" d="M151.363 0L0 102.33" class="prefix__cls-15" data-name="선 189" transform="translate(1202.693 3389.263)"/>
            <path id="prefix__선_190" d="M151.363 0L0 102.33" class="prefix__cls-15" data-name="선 190" transform="translate(1202.693 3365.003)"/>
            <path id="prefix__선_191" d="M151.363 0L0 102.33" class="prefix__cls-15" data-name="선 191" transform="translate(1202.693 3405.437)"/>
            <path id="prefix__선_192" d="M151.363 0L0 102.33" class="prefix__cls-15" data-name="선 192" transform="translate(1202.693 3381.176)"/>
            <path id="prefix__선_193" d="M151.363 0L0 102.33" class="prefix__cls-15" data-name="선 193" transform="translate(1202.693 3421.61)"/>
            <path id="prefix__선_194" d="M151.363 0L0 102.33" class="prefix__cls-15" data-name="선 194" transform="translate(1202.693 3397.35)"/>
            <path id="prefix__선_195" d="M151.363 0L0 102.33" class="prefix__cls-15" data-name="선 195" transform="translate(1202.693 3437.783)"/>
            <path id="prefix__선_196" d="M151.363 0L0 102.33" class="prefix__cls-15" data-name="선 196" transform="translate(1202.693 3413.523)"/>
            <path id="prefix__선_197" d="M151.363 0L0 102.33" class="prefix__cls-15" data-name="선 197" transform="translate(1202.693 3449.913)"/>
            <path id="prefix__선_198" d="M151.363 0L0 102.33" class="prefix__cls-15" data-name="선 198" transform="translate(1202.693 3429.696)"/>
            <path id="prefix__선_199" d="M151.363 0L0 102.33" class="prefix__cls-15" data-name="선 199" transform="translate(1202.693 3328.613)"/>
            <path id="prefix__선_200" d="M151.363 0L0 102.33" class="prefix__cls-15" data-name="선 200" transform="translate(1202.693 3312.439)"/>
            <path id="prefix__선_201" d="M151.363 0L0 102.33" class="prefix__cls-15" data-name="선 201" transform="translate(1202.693 3344.786)"/>
            <path id="prefix__선_202" d="M151.363 0L0 102.33" class="prefix__cls-15" data-name="선 202" transform="translate(1202.693 3320.526)"/>
            <path id="prefix__선_203" d="M151.363 0L0 102.33" class="prefix__cls-15" data-name="선 203" transform="translate(1202.693 3360.959)"/>
            <path id="prefix__선_204" d="M151.363 0L0 102.33" class="prefix__cls-15" data-name="선 204" transform="translate(1202.693 3336.7)"/>
            <path id="prefix__선_205" d="M151.363 0L0 102.33" class="prefix__cls-15" data-name="선 205" transform="translate(1202.693 3377.133)"/>
            <path id="prefix__선_206" d="M151.363 0L0 102.33" class="prefix__cls-15" data-name="선 206" transform="translate(1202.693 3352.873)"/>
            <path id="prefix__선_207" d="M151.363 0L0 102.33" class="prefix__cls-15" data-name="선 207" transform="translate(1202.693 3393.306)"/>
            <path id="prefix__선_208" d="M151.363 0L0 102.33" class="prefix__cls-15" data-name="선 208" transform="translate(1202.693 3369.046)"/>
            <path id="prefix__선_209" d="M151.363 0L0 102.33" class="prefix__cls-15" data-name="선 209" transform="translate(1202.693 3409.479)"/>
            <path id="prefix__선_210" d="M151.363 0L0 102.33" class="prefix__cls-15" data-name="선 210" transform="translate(1202.693 3385.22)"/>
            <path id="prefix__선_211" d="M151.363 0L0 102.33" class="prefix__cls-15" data-name="선 211" transform="translate(1202.693 3425.653)"/>
            <path id="prefix__선_212" d="M151.363 0L0 102.33" class="prefix__cls-15" data-name="선 212" transform="translate(1202.693 3401.393)"/>
            <path id="prefix__선_213" d="M151.363 0L0 102.33" class="prefix__cls-15" data-name="선 213" transform="translate(1202.693 3441.827)"/>
            <path id="prefix__선_214" d="M151.363 0L0 102.33" class="prefix__cls-15" data-name="선 214" transform="translate(1202.693 3417.566)"/>
            <path id="prefix__선_215" d="M151.363 0L0 102.33" class="prefix__cls-15" data-name="선 215" transform="translate(1202.693 3453.957)"/>
            <path id="prefix__선_216" d="M151.363 0L0 102.33" class="prefix__cls-15" data-name="선 216" transform="translate(1202.693 3433.74)"/>
            <path id="prefix__선_217" d="M151.363 0L0 102.33" class="prefix__cls-15" data-name="선 217" transform="translate(1202.693 3462.043)"/>
            <path id="prefix__선_218" d="M151.363 0L0 102.33" class="prefix__cls-15" data-name="선 218" transform="translate(1202.693 3445.87)"/>
            <path id="prefix__선_219" d="M151.363 0L0 102.33" class="prefix__cls-15" data-name="선 219" transform="translate(1202.693 3470.13)"/>
            <path id="prefix__선_220" d="M151.363 0L0 102.33" class="prefix__cls-15" data-name="선 220" transform="translate(1202.693 3458)"/>
            <path id="prefix__선_221" d="M151.363 0L0 102.33" class="prefix__cls-15" data-name="선 221" transform="translate(1202.693 3478.216)"/>
            <path id="prefix__선_222" d="M151.363 0L0 102.33" class="prefix__cls-15" data-name="선 222" transform="translate(1202.693 3466.086)"/>
            <path id="prefix__선_223" d="M151.363 0L0 102.33" class="prefix__cls-15" data-name="선 223" transform="translate(1202.693 3486.303)"/>
            <path id="prefix__선_224" d="M151.363 0L0 102.33" class="prefix__cls-15" data-name="선 224" transform="translate(1202.693 3474.173)"/>
            <path id="prefix__선_225" d="M151.363 0L0 102.33" class="prefix__cls-15" data-name="선 225" transform="translate(1202.693 3494.39)"/>
            <path id="prefix__선_226" d="M151.363 0L0 102.33" class="prefix__cls-15" data-name="선 226" transform="translate(1202.693 3482.26)"/>
            <path id="prefix__선_227" d="M151.363 0L0 102.33" class="prefix__cls-15" data-name="선 227" transform="translate(1202.693 3502.477)"/>
            <path id="prefix__선_228" d="M151.363 0L0 102.33" class="prefix__cls-15" data-name="선 228" transform="translate(1202.693 3490.347)"/>
            <path id="prefix__선_229" d="M151.363 0L0 102.33" class="prefix__cls-15" data-name="선 229" transform="translate(1202.693 3506.52)"/>
            <path id="prefix__선_230" d="M151.363 0L0 102.33" class="prefix__cls-15" data-name="선 230" transform="translate(1202.693 3498.433)"/>
        </g>
    </g>
    <path id="prefix__사각형_57" d="M0 0H40V253.684H0z" class="prefix__cls-12" data-name="사각형 57" transform="translate(347.624 44.919)"/>
    <text id="prefix___80" fill="#1f4a8c" data-name="80" font-family="NotoSansKR-Medium, Noto Sans KR" font-size="21px" font-weight="500" transform="translate(355.863 73.4)">
        <tspan x="0" y="0" class="prefix__cls-5">8</tspan><tspan y="0">0</tspan>
    </text>
    <path id="prefix__사각형_58" fill="#1f4a8c" d="M0 0H40V208H0z" data-name="사각형 58" transform="translate(347.624 90.604)"/>
    <path id="prefix__선_231" fill="none" stroke="#3e3a39" d="M0 0L402.505 0" data-name="선 231" transform="translate(0 299.104)"/>
</svg>
