<svg xmlns="http://www.w3.org/2000/svg" width="49.075" height="47.911" viewBox="0 0 49.075 47.911">
    <defs>
        <style>
            .prefix__cls-1{fill:none;stroke:#f0c560;stroke-miterlimit:10;stroke-width:.143px}
        </style>
    </defs>
    <g id="prefix__구성_요소_28_1" data-name="구성 요소 28 – 1" transform="translate(.072 .072)">
        <g id="prefix__그룹_21" data-name="그룹 21" transform="translate(-1369.521 -5118.498)">
            <path id="prefix__패스_112" d="M1418.453 5143.586a22.68 22.68 0 1 1-22.68-22.68 22.68 22.68 0 0 1 22.68 22.68" data-name="패스 112"/>
            <path id="prefix__패스_113" d="M1418.453 5143.586a22.68 22.68 0 1 1-22.68-22.68 22.68 22.68 0 0 1 22.68 22.68z" class="prefix__cls-1" data-name="패스 113"/>
            <path id="prefix__패스_114" fill="#d6a803" d="M1414.881 5141.177a22.68 22.68 0 1 1-22.68-22.679 22.679 22.679 0 0 1 22.68 22.679" data-name="패스 114"/>
            <path id="prefix__패스_115" d="M1414.881 5141.177a22.68 22.68 0 1 1-22.68-22.679 22.679 22.679 0 0 1 22.68 22.679z" class="prefix__cls-1" data-name="패스 115"/>
        </g>
        <text id="prefix___04" fill="#fff" data-name="4" font-family="NotoSansKR-Medium, Noto Sans KR" font-size="16px" font-weight="500" transform="translate(13.72 28.428)">
            <tspan x="0" y="0" letter-spacing="-0.019em">0</tspan><tspan y="0">4</tspan>
        </text>
    </g>
</svg>
