<svg xmlns="http://www.w3.org/2000/svg" width="69.057" height="91" viewBox="0 0 69.057 91">
  <defs>
    <style>
      .cls-1 {
        fill: #1e2323;
        font-size: 15px;
        font-family: NotoSansKR-Medium, Noto Sans KR;
        font-weight: 500;
      }

      .cls-2 {
        fill: #2b2e34;
      }

      .cls-3, .cls-5 {
        fill: none;
      }

      .cls-3, .cls-5, .cls-6 {
        stroke: #2b2e34;
      }

      .cls-3 {
        stroke-width: 0.283px;
      }

      .cls-4, .cls-6 {
        fill: #fff;
      }
    </style>
  </defs>
  <g id="구성_요소_38_1" data-name="구성 요소 38 – 1" transform="translate(0.524 0.5)">
    <text id="_" data-name=" " class="cls-1" transform="translate(64.533 48.7)"><tspan x="0" y="0"> </tspan></text>
    <g id="그룹_217" data-name="그룹 217" transform="translate(65.192 17.015)">
      <path id="패스_346" data-name="패스 346" class="cls-2" d="M0,0V-6.131A2.306,2.306,0,0,0-2.206-8.525H-9.057v-5.586a.769.769,0,0,0-.736-.8h-36.77a.768.768,0,0,0-.735.8v5.586h-6.851c-1.219,0-3.484,1.072-3.484,2.394V0c0,6.749,6.321,12.221,12.541,12.221l-.171-1.606c-5.44-.74-9.622-5.086-9.622-10.351V-4.991a2.133,2.133,0,0,1,2.207-2.052h5.38V-1a33.345,33.345,0,0,0,8.616,22.569l4.8,5.208a5,5,0,0,1,1.293,3.385v7.592a1.538,1.538,0,0,1-1.471,1.6A3.074,3.074,0,0,0-37,42.542v1.6h-.735a5.381,5.381,0,0,0-5.148,5.586v5.585H-13.47V49.723a5.38,5.38,0,0,0-5.147-5.586h-.736v-1.6a3.074,3.074,0,0,0-2.941-3.192,1.537,1.537,0,0,1-1.471-1.6V30.162a5,5,0,0,1,1.292-3.385l4.8-5.208A33.345,33.345,0,0,0-9.057-1V-7.043h5.38A2.133,2.133,0,0,1-1.471-4.991V.264c0,5.265-4.181,9.611-9.622,10.351l-.17,1.606C-5.043,12.221,0,6.749,0,0"/>
    </g>
    <g id="그룹_218" data-name="그룹 218" transform="translate(65.192 17.015)">
      <path id="패스_347" data-name="패스 347" class="cls-3" d="M0,0V-6.131A2.306,2.306,0,0,0-2.206-8.525H-9.057v-5.586a.769.769,0,0,0-.736-.8h-36.77a.768.768,0,0,0-.735.8v5.586h-6.851c-1.219,0-3.484,1.072-3.484,2.394V0c0,6.749,6.321,12.221,12.541,12.221l-.171-1.606c-5.44-.74-9.622-5.086-9.622-10.351V-4.991a2.133,2.133,0,0,1,2.207-2.052h5.38V-1a33.345,33.345,0,0,0,8.616,22.569l4.8,5.208a5,5,0,0,1,1.293,3.385v7.592a1.538,1.538,0,0,1-1.471,1.6A3.074,3.074,0,0,0-37,42.542v1.6h-.735a5.381,5.381,0,0,0-5.148,5.586v5.585H-13.47V49.723a5.38,5.38,0,0,0-5.147-5.586h-.736v-1.6a3.074,3.074,0,0,0-2.941-3.192,1.537,1.537,0,0,1-1.471-1.6V30.162a5,5,0,0,1,1.292-3.385l4.8-5.208A33.345,33.345,0,0,0-9.057-1V-7.043h5.38A2.133,2.133,0,0,1-1.471-4.991V.264c0,5.265-4.181,9.611-9.622,10.351l-.17,1.606C-5.043,12.221,0,6.749,0,0Z"/>
    </g>
    <g id="그룹_219" data-name="그룹 219" transform="translate(8.597 15.342)">
      <path id="패스_348" data-name="패스 348" class="cls-4" d="M0,0V-5.542A1.794,1.794,0,0,1,1.9-7.207H8.469l-.061-.554L8.237-9.324l-.049-.445H.3A2.965,2.965,0,0,0-2.6-6.745V-.279C-2.6,7.1,3.115,13.11,10.136,13.11h.558l-.061-.554-.186-1.694-.042-.39-.389-.051C4.306,9.666,0,5.186,0,0"/>
    </g>
    <g id="그룹_220" data-name="그룹 220" transform="translate(8.597 15.342)">
      <path id="패스_349" data-name="패스 349" class="cls-5" d="M0,0V-5.542A1.794,1.794,0,0,1,1.9-7.207H8.469l-.061-.554L8.237-9.324l-.049-.445H.3A2.965,2.965,0,0,0-2.6-6.745V-.279C-2.6,7.1,3.115,13.11,10.136,13.11h.558l-.061-.554-.186-1.694-.042-.39-.389-.051C4.306,9.666,0,5.186,0,0Z"/>
    </g>
    <g id="그룹_221" data-name="그룹 221" transform="translate(61.559 15.342)">
      <path id="패스_350" data-name="패스 350" class="cls-4" d="M0,0V-5.542A1.794,1.794,0,0,0-1.9-7.207H-8.468l.06-.554.171-1.563.049-.445H-.3A2.965,2.965,0,0,1,2.6-6.745V-.279C2.6,7.1-3.115,13.11-10.136,13.11h-.557l.06-.554.186-1.694.042-.39.389-.051C-4.306,9.666,0,5.186,0,0"/>
    </g>
    <g id="그룹_222" data-name="그룹 222" transform="translate(61.559 15.342)">
      <path id="패스_351" data-name="패스 351" class="cls-5" d="M0,0V-5.542A1.794,1.794,0,0,0-1.9-7.207H-8.468l.06-.554.171-1.563.049-.445H-.3A2.965,2.965,0,0,1,2.6-6.745V-.279C2.6,7.1-3.115,13.11-10.136,13.11h-.557l.06-.554.186-1.694.042-.39.389-.051C-4.306,9.666,0,5.186,0,0Z"/>
    </g>
    <g id="그룹_223" data-name="그룹 223" transform="translate(49.986 69.049)">
      <path id="패스_352" data-name="패스 352" class="cls-4" d="M0,0H-29.815V-4.227c0-3.268,2.336-5.917,5.217-5.917h19.38C-2.336-10.144,0-7.495,0-4.227Z"/>
    </g>
    <g id="그룹_224" data-name="그룹 224" transform="translate(49.986 69.049)">
      <path id="패스_353" data-name="패스 353" class="cls-5" d="M0,0H-29.815V-4.227c0-3.268,2.336-5.917,5.217-5.917h19.38C-2.336-10.144,0-7.495,0-4.227Z"/>
    </g>
    <g id="그룹_225" data-name="그룹 225" transform="translate(54.388 14.015)">
      <path id="패스_354" data-name="패스 354" class="cls-4" d="M0,0V-13.211a.776.776,0,0,0-.743-.8H-37.877a.776.776,0,0,0-.743.8V0a33.559,33.559,0,0,0,8.7,22.741l4.848,5.248a5.034,5.034,0,0,1,1.3,3.411v7.65a1.55,1.55,0,0,1-1.485,1.608,3.1,3.1,0,0,0-2.971,3.216v1.608H-10.4V43.874a3.1,3.1,0,0,0-2.97-3.216,1.55,1.55,0,0,1-1.486-1.608V31.4a5.034,5.034,0,0,1,1.305-3.411L-8.7,22.741A33.559,33.559,0,0,0,0,0"/>
    </g>
    <g id="그룹_226" data-name="그룹 226" transform="translate(54.388 14.015)">
      <path id="패스_355" data-name="패스 355" class="cls-5" d="M0,0V-13.211a.776.776,0,0,0-.743-.8H-37.877a.776.776,0,0,0-.743.8V0a33.559,33.559,0,0,0,8.7,22.741l4.848,5.248a5.034,5.034,0,0,1,1.3,3.411v7.65a1.55,1.55,0,0,1-1.485,1.608,3.1,3.1,0,0,0-2.971,3.216v1.608H-10.4V43.874a3.1,3.1,0,0,0-2.97-3.216,1.55,1.55,0,0,1-1.486-1.608V31.4a5.034,5.034,0,0,1,1.305-3.411L-8.7,22.741A33.559,33.559,0,0,0,0,0Z"/>
    </g>
    <g id="그룹_228" data-name="그룹 228" transform="translate(18.529 76.211)">
      <path id="패스_357" data-name="패스 357" class="cls-2" d="M0,0,6.214,13.228,9.422,7.905l6.143.953L9.5-4.015"/>
    </g>
    <g id="그룹_231" data-name="그룹 231" transform="translate(18.241 76.33)">
      <path id="패스_360" data-name="패스 360" class="cls-2" d="M0,0-6.142,13.11-9.351,7.787l-6.144.953L-9.38-4.133"/>
    </g>
    <g id="그룹_232" data-name="그룹 232" transform="translate(18.241 76.33)">
      <path id="패스_361" data-name="패스 361" class="cls-5" d="M0,0-6.142,13.11-9.351,7.787l-6.144.953L-9.38-4.133"/>
    </g>
    <g id="그룹_233" data-name="그룹 233" transform="translate(19.327 44.672)">
      <path id="패스_362" data-name="패스 362" class="cls-2" d="M0,0,2.479,1.419a1.823,1.823,0,0,0,.906.241H6.248a1.816,1.816,0,0,1,1.569.9L9.248,5.017a1.811,1.811,0,0,0,.663.658L12.39,7.094A1.8,1.8,0,0,1,13.3,8.651V11.49a1.784,1.784,0,0,0,.242.9l1.432,2.459a1.787,1.787,0,0,1,0,1.8L13.539,19.1a1.785,1.785,0,0,0-.242.9V22.84A1.794,1.794,0,0,1,12.39,24.4L9.911,25.815a1.811,1.811,0,0,0-.663.658L7.817,28.932a1.815,1.815,0,0,1-1.569.9H3.385a1.823,1.823,0,0,0-.906.241L0,31.49a1.825,1.825,0,0,1-1.812,0l-2.479-1.419A1.823,1.823,0,0,0-5.2,29.83H-8.06a1.815,1.815,0,0,1-1.569-.9l-1.431-2.459a1.811,1.811,0,0,0-.663-.658L-14.2,24.4a1.8,1.8,0,0,1-.906-1.556V20a1.785,1.785,0,0,0-.242-.9l-1.432-2.458a1.787,1.787,0,0,1,0-1.8l1.432-2.459a1.784,1.784,0,0,0,.242-.9V8.651A1.8,1.8,0,0,1-14.2,7.094l2.48-1.419a1.811,1.811,0,0,0,.663-.658l1.431-2.458a1.816,1.816,0,0,1,1.569-.9H-5.2a1.823,1.823,0,0,0,.906-.241L-1.812,0A1.825,1.825,0,0,1,0,0"/>
    </g>
    <g id="그룹_234" data-name="그룹 234" transform="translate(19.327 44.672)">
      <path id="패스_363" data-name="패스 363" class="cls-5" d="M0,0,2.479,1.419a1.823,1.823,0,0,0,.906.241H6.248a1.816,1.816,0,0,1,1.569.9L9.248,5.017a1.811,1.811,0,0,0,.663.658L12.39,7.094A1.8,1.8,0,0,1,13.3,8.651V11.49a1.784,1.784,0,0,0,.242.9l1.432,2.459a1.787,1.787,0,0,1,0,1.8L13.539,19.1a1.785,1.785,0,0,0-.242.9V22.84A1.794,1.794,0,0,1,12.39,24.4L9.911,25.815a1.811,1.811,0,0,0-.663.658L7.817,28.932a1.815,1.815,0,0,1-1.569.9H3.385a1.823,1.823,0,0,0-.906.241L0,31.49a1.825,1.825,0,0,1-1.812,0l-2.479-1.419A1.823,1.823,0,0,0-5.2,29.83H-8.06a1.815,1.815,0,0,1-1.569-.9l-1.431-2.459a1.811,1.811,0,0,0-.663-.658L-14.2,24.4a1.8,1.8,0,0,1-.906-1.556V20a1.785,1.785,0,0,0-.242-.9l-1.432-2.458a1.787,1.787,0,0,1,0-1.8l1.432-2.459a1.784,1.784,0,0,0,.242-.9V8.651A1.8,1.8,0,0,1-14.2,7.094l2.48-1.419a1.811,1.811,0,0,0,.663-.658l1.431-2.458a1.816,1.816,0,0,1,1.569-.9H-5.2a1.823,1.823,0,0,0,.906-.241L-1.812,0A1.825,1.825,0,0,1,0,0Z"/>
    </g>
    <g id="그룹_235" data-name="그룹 235" transform="translate(27.19 60.417)">
      <path id="패스_364" data-name="패스 364" class="cls-2" d="M0,0A8.733,8.733,0,0,0-8.769-8.7,8.734,8.734,0,0,0-17.539,0a8.734,8.734,0,0,0,8.77,8.7A8.733,8.733,0,0,0,0,0"/>
    </g>
    <g id="그룹_236" data-name="그룹 236" transform="translate(27.19 60.417)">
      <path id="패스_365" data-name="패스 365" class="cls-5" d="M0,0A8.733,8.733,0,0,0-8.769-8.7,8.734,8.734,0,0,0-17.539,0a8.734,8.734,0,0,0,8.77,8.7A8.733,8.733,0,0,0,0,0Z"/>
    </g>
    <g id="그룹_238" data-name="그룹 238" transform="translate(16.228 73.781)">
      <path id="패스_367" data-name="패스 367" class="cls-6" d="M0,0,6.214,13.228,9.422,7.905l6.143.953L9.5-4.015"/>
    </g>
    <g id="그룹_239" data-name="그룹 239" transform="translate(15.94 73.899)">
      <path id="패스_368" data-name="패스 368" class="cls-6" d="M0,0-6.142,13.11-9.351,7.787l-6.144.953L-9.38-4.133"/>
    </g>
    <g id="그룹_240" data-name="그룹 240" transform="translate(17.025 42.241)">
      <path id="패스_369" data-name="패스 369" class="cls-4" d="M0,0,2.479,1.419a1.823,1.823,0,0,0,.906.241H6.248a1.816,1.816,0,0,1,1.569.9L9.248,5.017a1.811,1.811,0,0,0,.663.658L12.39,7.094A1.8,1.8,0,0,1,13.3,8.651V11.49a1.784,1.784,0,0,0,.242.9l1.432,2.459a1.787,1.787,0,0,1,0,1.8L13.539,19.1a1.785,1.785,0,0,0-.242.9V22.84A1.794,1.794,0,0,1,12.39,24.4L9.911,25.815a1.811,1.811,0,0,0-.663.658L7.817,28.932a1.815,1.815,0,0,1-1.569.9H3.385a1.823,1.823,0,0,0-.906.241L0,31.49a1.825,1.825,0,0,1-1.812,0l-2.479-1.419A1.823,1.823,0,0,0-5.2,29.83H-8.06a1.815,1.815,0,0,1-1.569-.9l-1.431-2.459a1.806,1.806,0,0,0-.664-.658L-14.2,24.4a1.8,1.8,0,0,1-.906-1.556V20a1.785,1.785,0,0,0-.242-.9l-1.432-2.458a1.787,1.787,0,0,1,0-1.8l1.432-2.459a1.784,1.784,0,0,0,.242-.9V8.651A1.8,1.8,0,0,1-14.2,7.094l2.479-1.419a1.806,1.806,0,0,0,.664-.658l1.431-2.458a1.816,1.816,0,0,1,1.569-.9H-5.2a1.823,1.823,0,0,0,.906-.241L-1.812,0A1.825,1.825,0,0,1,0,0"/>
    </g>
    <g id="그룹_241" data-name="그룹 241" transform="translate(17.025 42.241)">
      <path id="패스_370" data-name="패스 370" class="cls-5" d="M0,0,2.479,1.419a1.823,1.823,0,0,0,.906.241H6.248a1.816,1.816,0,0,1,1.569.9L9.248,5.017a1.811,1.811,0,0,0,.663.658L12.39,7.094A1.8,1.8,0,0,1,13.3,8.651V11.49a1.784,1.784,0,0,0,.242.9l1.432,2.459a1.787,1.787,0,0,1,0,1.8L13.539,19.1a1.785,1.785,0,0,0-.242.9V22.84A1.794,1.794,0,0,1,12.39,24.4L9.911,25.815a1.811,1.811,0,0,0-.663.658L7.817,28.932a1.815,1.815,0,0,1-1.569.9H3.385a1.823,1.823,0,0,0-.906.241L0,31.49a1.825,1.825,0,0,1-1.812,0l-2.479-1.419A1.823,1.823,0,0,0-5.2,29.83H-8.06a1.815,1.815,0,0,1-1.569-.9l-1.431-2.459a1.806,1.806,0,0,0-.664-.658L-14.2,24.4a1.8,1.8,0,0,1-.906-1.556V20a1.785,1.785,0,0,0-.242-.9l-1.432-2.458a1.787,1.787,0,0,1,0-1.8l1.432-2.459a1.784,1.784,0,0,0,.242-.9V8.651A1.8,1.8,0,0,1-14.2,7.094l2.479-1.419a1.806,1.806,0,0,0,.664-.658l1.431-2.458a1.816,1.816,0,0,1,1.569-.9H-5.2a1.823,1.823,0,0,0,.906-.241L-1.812,0A1.825,1.825,0,0,1,0,0Z"/>
    </g>
    <g id="그룹_242" data-name="그룹 242" transform="translate(24.889 57.986)">
      <path id="패스_371" data-name="패스 371" class="cls-4" d="M0,0A8.733,8.733,0,0,0-8.769-8.7,8.734,8.734,0,0,0-17.539,0a8.734,8.734,0,0,0,8.77,8.7A8.733,8.733,0,0,0,0,0"/>
    </g>
    <g id="그룹_243" data-name="그룹 243" transform="translate(24.889 57.986)">
      <path id="패스_372" data-name="패스 372" class="cls-5" d="M0,0A8.733,8.733,0,0,0-8.769-8.7,8.734,8.734,0,0,0-17.539,0a8.734,8.734,0,0,0,8.77,8.7A8.733,8.733,0,0,0,0,0Z"/>
    </g>
    <g id="그룹_244" data-name="그룹 244" transform="translate(22.5 11.5)">
      <path id="패스_373" data-name="패스 373" class="cls-6" d="M0,0S-1,17,8,21"/>
    </g>
  </g>
</svg>
