<svg id="구성_요소_13_1" data-name="구성 요소 13 – 1" xmlns="http://www.w3.org/2000/svg" width="73.477" height="70" viewBox="0 0 73.477 70">
  <defs>
    <style>
      .cls-1 {
        fill: #00a6d9;
      }

      .cls-2 {
        fill: #fff;
      }
    </style>
  </defs>
  <rect id="사각형_85" data-name="사각형 85" class="cls-1" width="73.477" height="70"/>
  <g id="그룹_68" data-name="그룹 68" transform="translate(-9032.963 -4987.761)">
    <path id="패스_237" data-name="패스 237" class="cls-2" d="M9081.391,5020.921a3.288,3.288,0,0,0-2.518.154c-3.309,1.347-5.56,1.831-9.041.737-2.191-.69-4.242-2.133-6.666-1.254a13.674,13.674,0,0,1-4.926,1.121l-1.05-5.409h24.956Zm-8.459,16.065a5.1,5.1,0,0,1-6.366,0,4.765,4.765,0,0,1-.591-5.789c.431-.807,3.5-5.438,3.764-5.832v-.031l.012.015.011-.015v.031c.257.394,3.331,5.025,3.762,5.832a4.768,4.768,0,0,1-.591,5.789m10.307-21.792a.322.322,0,0,0-.241-.106h-26.666a.3.3,0,0,0-.307.359l4.479,27.22a.316.316,0,0,0,.308.263h5.5l.375,4.433-2.312,0,5.384,5.408,5.4-5.421-2.312,0,.375-4.425h5.595a.31.31,0,0,0,.307-.267l4.19-27.216a.318.318,0,0,0-.069-.253"/>
    <path id="패스_238" data-name="패스 238" class="cls-2" d="M9042.914,5002.775c.044-.833.393-1.36,1.18-1.36.853,0,1.182.527,1.182,1.493v2.591c0,.944-.35,1.494-1.2,1.494-.832,0-1.159-.571-1.159-1.494Zm1.159,6.26c2.644,0,3.672-1.45,3.672-3.756v-2.2c0-2.438-.962-3.667-2.755-3.667a2.131,2.131,0,0,0-2.055,1.208h-.021v-3.206c0-.9.284-1.537,1.18-1.537s1.159.527,1.159,1.449v.988h2.273v-.79c0-2.2-.722-3.733-3.476-3.733-2.623,0-3.606,1.69-3.606,4.018v7.246c0,2.307,1.006,3.976,3.629,3.976"/>
    <path id="패스_239" data-name="패스 239" class="cls-2" d="M9054.278,4998.739v-3.011c0-.973.456-1.68,1.553-1.68,1.152,0,1.472.643,1.472,1.561v.734h-.951v-.816c0-.386-.128-.607-.5-.607s-.529.267-.529.643v3.341c0,.377.154.643.529.643s.5-.239.5-.606v-1.148h.951v1.075c0,.89-.366,1.551-1.472,1.551a1.469,1.469,0,0,1-1.553-1.68"/>
  </g>
  <path id="패스_240" data-name="패스 240" class="cls-2" d="M9057.868,4994.121h1.042v5.37h1.241v.854h-2.283Z" transform="translate(-9032.963 -4987.761)"/>
  <path id="패스_241" data-name="패스 241" class="cls-2" d="M9060.627,4994.121h2.484v.854h-1.442v1.781h1.032v.844h-1.032v1.891h1.442v.854h-2.484Z" transform="translate(-9032.963 -4987.761)"/>
  <path id="패스_242" data-name="패스 242" class="cls-2" d="M9064.811,4998.371h.831l-.41-2.5h-.01Zm-1.307,1.974,1.171-6.224h1.187l1.179,6.224h-1.068l-.191-1.138h-1.105l-.184,1.138Z" transform="translate(-9032.963 -4987.761)"/>
  <path id="패스_243" data-name="패스 243" class="cls-2" d="M9068.346,4996.435v3.91h-.877v-6.223h1.023l1.124,3.57v-3.57h.868v6.223h-.913Z" transform="translate(-9032.963 -4987.761)"/>
  <path id="패스_244" data-name="패스 244" class="cls-2" d="M9074.284,4996.5l-.584,3.846h-.979l-.831-6.224h1l.484,3.947h.009l.521-3.947h.851l.575,3.947h.01l.476-3.947h.876l-.8,6.224h-.986l-.613-3.846Z" transform="translate(-9032.963 -4987.761)"/>
  <path id="패스_245" data-name="패스 245" class="cls-2" d="M9077.919,4998.371h.832l-.411-2.5h-.01Zm-1.306,1.974,1.169-6.224h1.188l1.18,6.224h-1.069l-.192-1.138h-1.105l-.183,1.138Z" transform="translate(-9032.963 -4987.761)"/>
  <path id="패스_246" data-name="패스 246" class="cls-2" d="M9080,4994.121h2.769v.854h-.858v5.37h-1.052v-5.37H9080Z" transform="translate(-9032.963 -4987.761)"/>
  <path id="패스_247" data-name="패스 247" class="cls-2" d="M9083.254,4994.121h2.484v.854h-1.443v1.781h1.033v.844h-1.033v1.891h1.443v.854h-2.484Z" transform="translate(-9032.963 -4987.761)"/>
  <g id="그룹_69" data-name="그룹 69" transform="translate(-9032.963 -4987.761)">
    <path id="패스_248" data-name="패스 248" class="cls-2" d="M9087.338,4994.976v1.937h.347a.453.453,0,0,0,.513-.515v-.917c0-.34-.155-.5-.513-.5Zm0,2.514v2.856H9086.3v-6.224h1.519c1.05,0,1.434.524,1.434,1.4v.8c0,.67-.238,1.064-.831,1.2l1,2.828h-1.1Z"/>
  </g>
  <path id="패스_249" data-name="패스 249" class="cls-2" d="M9055.42,5007.089h.831l-.41-2.5h-.01Zm-1.306,1.974,1.169-6.224h1.188l1.18,6.224h-1.069l-.192-1.138h-1.105l-.183,1.138Z" transform="translate(-9032.963 -4987.761)"/>
  <path id="패스_250" data-name="패스 250" class="cls-2" d="M9058.955,5005.153v3.91h-.878v-6.223h1.024l1.123,3.571v-3.571h.869v6.223h-.914Z" transform="translate(-9032.963 -4987.761)"/>
  <g id="그룹_70" data-name="그룹 70" transform="translate(-9032.963 -4987.761)">
    <path id="패스_251" data-name="패스 251" class="cls-2" d="M9063.167,5008.209c.43,0,.594-.257.594-.633v-3.259a.544.544,0,0,0-.594-.624h-.438v4.516Zm1.636-3.7v2.882c0,.955-.394,1.671-1.508,1.671h-1.609v-6.224h1.609c1.114,0,1.508.707,1.508,1.671"/>
    <path id="패스_252" data-name="패스 252" class="cls-2" d="M9066.3,5007.723v-.836h.969v.854c0,.349.155.55.513.55.328,0,.474-.219.474-.55v-.238a1.127,1.127,0,0,0-.465-.882l-.613-.615a2.1,2.1,0,0,1-.867-1.661v-.212a1.3,1.3,0,0,1,1.463-1.368c1.04,0,1.451.515,1.451,1.415v.5h-.949v-.542c0-.358-.165-.532-.493-.532a.458.458,0,0,0-.494.514v.128c0,.348.191.551.494.845l.666.66a2.1,2.1,0,0,1,.841,1.616v.3a1.345,1.345,0,0,1-1.516,1.46,1.294,1.294,0,0,1-1.473-1.414"/>
  </g>
  <path id="패스_253" data-name="패스 253" class="cls-2" d="M9070.885,5007.089h.831l-.411-2.5h-.01Zm-1.307,1.974,1.17-6.224h1.187l1.18,6.224h-1.069l-.191-1.138h-1.105l-.183,1.138Z" transform="translate(-9032.963 -4987.761)"/>
  <path id="패스_254" data-name="패스 254" class="cls-2" d="M9074.421,5005.153v3.91h-.878v-6.223h1.022l1.125,3.571v-3.571h.867v6.223h-.913Z" transform="translate(-9032.963 -4987.761)"/>
  <rect id="사각형_86" data-name="사각형 86" class="cls-2" width="1.042" height="6.224" transform="translate(44.188 15.078)"/>
  <path id="패스_255" data-name="패스 255" class="cls-2" d="M9078.677,5002.839h2.769v.854h-.857v5.37h-1.053v-5.37h-.858Z" transform="translate(-9032.963 -4987.761)"/>
  <path id="패스_256" data-name="패스 256" class="cls-2" d="M9082.614,5007.089h.831l-.41-2.5h-.01Zm-1.307,1.974,1.169-6.224h1.188l1.179,6.224h-1.068l-.192-1.138h-1.106l-.182,1.138Z" transform="translate(-9032.963 -4987.761)"/>
  <path id="패스_257" data-name="패스 257" class="cls-2" d="M9084.7,5002.839h2.769v.854h-.859v5.37h-1.052v-5.37h-.857Z" transform="translate(-9032.963 -4987.761)"/>
  <rect id="사각형_87" data-name="사각형 87" class="cls-2" width="1.042" height="6.224" transform="translate(54.986 15.078)"/>
  <g id="그룹_71" data-name="그룹 71" transform="translate(-9032.963 -4987.761)">
    <path id="패스_258" data-name="패스 258" class="cls-2" d="M9091.705,5007.622v-3.341c0-.376-.164-.643-.54-.643s-.529.267-.529.643v3.341c0,.377.164.643.529.643s.54-.266.54-.643m-2.112-.165v-3.011a1.58,1.58,0,1,1,3.153,0v3.011a1.58,1.58,0,1,1-3.153,0"/>
  </g>
  <path id="패스_259" data-name="패스 259" class="cls-2" d="M9094.217,5005.153v3.91h-.878v-6.223h1.022l1.126,3.571v-3.571h.866v6.223h-.913Z" transform="translate(-9032.963 -4987.761)"/>
</svg>
