<svg id="구성_요소_19_1" data-name="구성 요소 19 – 1" xmlns="http://www.w3.org/2000/svg" width="81.27" height="81.269" viewBox="0 0 81.27 81.269">
  <defs>
    <style>
      .cls-1 {
        fill: #85c16b;
      }

      .cls-2 {
        fill: #fff;
      }

      .cls-3 {
        fill: none;
        stroke: #000;
        stroke-miterlimit: 10;
        stroke-width: 0.945px;
      }

      .cls-4 {
        font-size: 16.065px;
        font-family: NotoSansKR-Medium, Noto Sans KR;
        font-weight: 500;
      }
    </style>
  </defs>
  <g id="그룹_23" data-name="그룹 23" transform="translate(-948.722 -2781.311)">
    <path id="패스_76" data-name="패스 76" class="cls-1" d="M1029.992,2821.945a40.635,40.635,0,1,1-40.635-40.634,40.635,40.635,0,0,1,40.635,40.634"/>
    <path id="패스_77" data-name="패스 77" d="M1001.642,2840c0-6.016-11.294-19.494-11.294-19.494s-11.294,13.478-11.294,19.494a11.3,11.3,0,0,0,22.588,0m-7.145-5.724c1.485,2.512,2.453,4.626,2.453,5.724a6.5,6.5,0,0,1-6.6,6.369"/>
    <path id="패스_78" data-name="패스 78" class="cls-2" d="M989.945,2846.087a8.078,8.078,0,1,0-8.386-8.072,8.233,8.233,0,0,0,8.386,8.072"/>
    <path id="패스_79" data-name="패스 79" class="cls-2" d="M999.729,2838.818c0-5.974-11.217-19.357-11.217-19.357s-11.215,13.383-11.215,19.357a11.223,11.223,0,0,0,22.432,0m-7.1-5.684c1.473,2.495,2.435,4.593,2.435,5.684a6.451,6.451,0,0,1-6.557,6.324"/>
    <path id="패스_80" data-name="패스 80" class="cls-3" d="M999.481,2838.8c0-5.849-10.969-18.952-10.969-18.952s-10.968,13.1-10.968,18.952a10.975,10.975,0,0,0,21.937,0Zm-6.938-5.565c1.441,2.442,2.381,4.5,2.381,5.565a6.311,6.311,0,0,1-6.412,6.191"/>
  </g>
  <text id="_2" data-name="2" class="cls-4" transform="translate(36.056 26.421)"><tspan x="0" y="0">2</tspan></text>
</svg>
