<svg xmlns="http://www.w3.org/2000/svg" width="834.004" height="281.273" viewBox="0 0 834.004 281.273">
  <defs>
    <style>
      .cls-1, .cls-19, .cls-2, .cls-22, .cls-23, .cls-24, .cls-3, .cls-6 {
        fill: none;
      }

      .cls-1, .cls-19, .cls-2, .cls-3 {
        stroke: #3e3a39;
      }

      .cls-1, .cls-2, .cls-22, .cls-23, .cls-3 {
        stroke-linecap: round;
        stroke-linejoin: round;
      }

      .cls-1, .cls-2, .cls-22, .cls-23, .cls-24, .cls-3, .cls-6 {
        stroke-width: 0.99px;
      }

      .cls-1 {
        stroke-dasharray: 0 2.949;
      }

      .cls-2 {
        stroke-dasharray: 0 2.941;
      }

      .cls-4 {
        fill: #80b0de;
      }

      .cls-13, .cls-21, .cls-5 {
        fill: #fff;
      }

      .cls-6 {
        stroke: #000;
      }

      .cls-19, .cls-6 {
        stroke-miterlimit: 10;
      }

      .cls-12, .cls-7, .cls-9 {
        fill: #1e2323;
      }

      .cls-13, .cls-7 {
        font-size: 15px;
      }

      .cls-21, .cls-7, .cls-9 {
        font-family: NotoSansKR-Medium, Noto Sans KR;
        font-weight: 500;
      }

      .cls-8 {
        letter-spacing: -0.02em;
      }

      .cls-21, .cls-9 {
        font-size: 14.85px;
      }

      .cls-10 {
        letter-spacing: -0.019em;
      }

      .cls-11 {
        fill: #71a1d3;
      }

      .cls-11, .cls-12 {
        font-size: 15.84px;
      }

      .cls-11, .cls-12, .cls-13 {
        font-family: NotoSansKR-Light, Noto Sans KR;
        font-weight: 300;
      }

      .cls-14 {
        letter-spacing: -0.031em;
      }

      .cls-15 {
        letter-spacing: 0.016em;
      }

      .cls-16 {
        letter-spacing: -0.04em;
      }

      .cls-17 {
        letter-spacing: -0.03em;
      }

      .cls-18 {
        letter-spacing: -0.011em;
      }

      .cls-20 {
        fill: #313d72;
      }

      .cls-22, .cls-23, .cls-24 {
        stroke: #5e6366;
      }

      .cls-22 {
        stroke-dasharray: 0 3.067;
      }
    </style>
  </defs>
  <g id="구성_요소_1_1" data-name="구성 요소 1 – 1" transform="translate(0 0.495)">
    <g id="그룹_8" data-name="그룹 8" transform="translate(-679.998 -1049.216)">
      <path id="패스_36" data-name="패스 36" class="cls-1" d="M719.18,1076.344a89.54,89.54,0,0,0-24.389,60.089"/>
      <path id="패스_37" data-name="패스 37" class="cls-2" d="M694.826,1140.848a89.865,89.865,0,0,0,88.345,86.91"/>
      <path id="패스_38" data-name="패스 38" class="cls-2" d="M787.582,1227.723a89.864,89.864,0,0,0,86.91-88.344"/>
      <path id="패스_39" data-name="패스 39" class="cls-3" d="M874.5,1137.908h0m-89.862,89.862h0m-89.863-89.862h0m26.457-63.679h0"/>
      <path id="패스_40" data-name="패스 40" class="cls-4" d="M784.641,1209.328a71.42,71.42,0,1,0-71.42-71.42,71.42,71.42,0,0,0,71.42,71.42"/>
      <path id="패스_41" data-name="패스 41" class="cls-4" d="M1207.538,1209.328a71.42,71.42,0,1,0-71.42-71.42,71.42,71.42,0,0,0,71.42,71.42"/>
      <path id="패스_42" data-name="패스 42" class="cls-4" d="M996.026,1209.328a71.42,71.42,0,1,0-71.42-71.42,71.42,71.42,0,0,0,71.42,71.42"/>
      <path id="패스_43" data-name="패스 43" class="cls-4" d="M1418.922,1209.328a71.42,71.42,0,1,0-71.42-71.42,71.42,71.42,0,0,0,71.42,71.42"/>
      <path id="패스_44" data-name="패스 44" d="M801.689,1119.816c0-7.87-15.673-25.5-15.673-25.5s-15.671,17.63-15.671,25.5,7.016,14.251,15.671,14.251,15.673-6.381,15.673-14.251m-9.915-7.488c2.061,3.286,3.4,6.052,3.4,7.488,0,4.593-4.109,8.33-9.161,8.33"/>
      <path id="패스_45" data-name="패스 45" class="cls-5" d="M785.457,1127.773c6.427,0,11.637-4.727,11.637-10.559s-5.21-10.558-11.637-10.558-11.637,4.727-11.637,10.558,5.21,10.559,11.637,10.559"/>
      <path id="패스_46" data-name="패스 46" class="cls-5" d="M799.035,1118.266c0-7.815-15.565-25.32-15.565-25.32s-15.564,17.505-15.564,25.32,6.969,14.15,15.564,14.15,15.565-6.335,15.565-14.15m-9.846-7.435c2.045,3.263,3.379,6.008,3.379,7.435,0,4.561-4.082,8.272-9.1,8.272"/>
      <path id="패스_47" data-name="패스 47" class="cls-6" d="M798.852,1118.24c0-7.719-15.383-25.009-15.383-25.009s-15.381,17.29-15.381,25.009,6.888,13.975,15.381,13.975S798.852,1125.958,798.852,1118.24Zm-9.73-7.344c2.021,3.223,3.339,5.934,3.339,7.344,0,4.505-4.034,8.169-8.992,8.169"/>
      <path id="패스_48" data-name="패스 48" d="M1225.407,1119.816c0-7.87-15.673-25.5-15.673-25.5s-15.671,17.63-15.671,25.5,7.016,14.251,15.671,14.251,15.673-6.381,15.673-14.251m-9.915-7.488c2.061,3.286,3.4,6.052,3.4,7.488,0,4.593-4.109,8.33-9.161,8.33"/>
      <path id="패스_49" data-name="패스 49" class="cls-5" d="M1209.175,1127.773c6.427,0,11.637-4.727,11.637-10.559s-5.21-10.558-11.637-10.558-11.637,4.727-11.637,10.558,5.21,10.559,11.637,10.559"/>
      <path id="패스_50" data-name="패스 50" class="cls-5" d="M1222.753,1118.266c0-7.815-15.565-25.32-15.565-25.32s-15.564,17.505-15.564,25.32,6.969,14.15,15.564,14.15,15.565-6.335,15.565-14.15m-9.846-7.435c2.045,3.263,3.379,6.008,3.379,7.435,0,4.561-4.082,8.272-9.1,8.272"/>
      <path id="패스_51" data-name="패스 51" class="cls-6" d="M1222.57,1118.24c0-7.719-15.383-25.009-15.383-25.009s-15.381,17.29-15.381,25.009,6.888,13.975,15.381,13.975S1222.57,1125.958,1222.57,1118.24Zm-9.73-7.344c2.021,3.223,3.339,5.934,3.339,7.344,0,4.505-4.034,8.169-8.992,8.169"/>
      <path id="패스_52" data-name="패스 52" d="M1013.074,1119.816c0-7.87-15.673-25.5-15.673-25.5s-15.671,17.63-15.671,25.5,7.016,14.251,15.671,14.251,15.673-6.381,15.673-14.251m-9.915-7.488c2.061,3.286,3.4,6.052,3.4,7.488,0,4.593-4.109,8.33-9.161,8.33"/>
      <path id="패스_53" data-name="패스 53" class="cls-5" d="M996.842,1127.773c6.427,0,11.637-4.727,11.637-10.559s-5.21-10.558-11.637-10.558-11.637,4.727-11.637,10.558,5.21,10.559,11.637,10.559"/>
      <path id="패스_54" data-name="패스 54" class="cls-5" d="M1010.42,1118.266c0-7.815-15.565-25.32-15.565-25.32s-15.564,17.505-15.564,25.32,6.969,14.15,15.564,14.15,15.565-6.335,15.565-14.15m-9.846-7.435c2.045,3.263,3.379,6.008,3.379,7.435,0,4.561-4.082,8.272-9.1,8.272"/>
      <path id="패스_55" data-name="패스 55" class="cls-6" d="M1010.237,1118.24c0-7.719-15.383-25.009-15.383-25.009s-15.381,17.29-15.381,25.009,6.888,13.975,15.381,13.975S1010.237,1125.958,1010.237,1118.24Zm-9.73-7.344c2.021,3.223,3.339,5.934,3.339,7.344,0,4.505-4.034,8.169-8.992,8.169"/>
      <path id="패스_56" data-name="패스 56" d="M1435.97,1119.816c0-7.87-15.673-25.5-15.673-25.5s-15.671,17.63-15.671,25.5,7.016,14.251,15.671,14.251,15.673-6.381,15.673-14.251m-9.915-7.488c2.061,3.286,3.4,6.052,3.4,7.488,0,4.593-4.109,8.33-9.161,8.33"/>
      <path id="패스_57" data-name="패스 57" class="cls-5" d="M1419.738,1127.773c6.427,0,11.637-4.727,11.637-10.559s-5.21-10.558-11.637-10.558-11.637,4.727-11.637,10.558,5.21,10.559,11.637,10.559"/>
      <path id="패스_58" data-name="패스 58" class="cls-5" d="M1433.316,1118.266c0-7.815-15.565-25.32-15.565-25.32s-15.564,17.505-15.564,25.32,6.969,14.15,15.564,14.15,15.565-6.335,15.565-14.15m-9.846-7.435c2.045,3.263,3.379,6.008,3.379,7.435,0,4.561-4.082,8.272-9.1,8.272"/>
      <path id="패스_59" data-name="패스 59" class="cls-6" d="M1433.133,1118.24c0-7.719-15.383-25.009-15.383-25.009s-15.381,17.29-15.381,25.009,6.888,13.975,15.381,13.975S1433.133,1125.958,1433.133,1118.24Zm-9.73-7.344c2.021,3.223,3.339,5.934,3.339,7.344,0,4.505-4.034,8.169-8.992,8.169"/>
    </g>
    <text id="조달" class="cls-7" transform="translate(90.003 104.953)"><tspan class="cls-8" x="0" y="0">조</tspan><tspan y="0">달</tspan></text>
    <text id="판매_및_서비스" data-name="판매 및 서비스" class="cls-9" transform="translate(484.257 104.82)"><tspan class="cls-8" x="0" y="0">판</tspan><tspan class="cls-10" y="0">매</tspan><tspan class="cls-8" y="0"> </tspan><tspan class="cls-10" y="0">및</tspan><tspan class="cls-8" y="0"> </tspan><tspan class="cls-10" y="0">서</tspan><tspan class="cls-8" y="0">비</tspan><tspan y="0">스</tspan></text>
    <text id="연구개발_및_생산" data-name="연구개발 및 생산" class="cls-9" transform="translate(266.556 103.528)"><tspan class="cls-8" x="0" y="0">연구개발 및 생</tspan><tspan y="0">산</tspan></text>
    <text id="폐기_및_재활용" data-name="폐기 및 재활용" class="cls-9" transform="translate(694.815 104.82)"><tspan class="cls-8" x="0" y="0">폐</tspan><tspan class="cls-10" y="0">기</tspan><tspan class="cls-8" y="0"> </tspan><tspan class="cls-10" y="0">및</tspan><tspan class="cls-8" y="0"> </tspan><tspan class="cls-10" y="0">재</tspan><tspan class="cls-8" y="0">활</tspan><tspan y="0">용</tspan></text>
    <text id="_" data-name="• " class="cls-11" transform="translate(67.168 226.294)"><tspan class="cls-10" x="0" y="0">•</tspan><tspan y="0"> </tspan></text>
    <text id="자재_공급" data-name="자재 공급" class="cls-12" transform="translate(75.991 226.294)"><tspan class="cls-8" x="0" y="0">자재 공</tspan><tspan y="0">급</tspan></text>
    <text id="_2" data-name="• " class="cls-11" transform="translate(67.168 251.036)"><tspan class="cls-10" x="0" y="0">•</tspan><tspan y="0"> </tspan></text>
    <text id="부품_공급" data-name="부품 공급" class="cls-12" transform="translate(75.991 251.036)"><tspan class="cls-8" x="0" y="0">부품 공</tspan><tspan y="0">급</tspan></text>
    <text id="_3" data-name="• " class="cls-11" transform="translate(441.942 226.294)"><tspan class="cls-10" x="0" y="0">•</tspan><tspan y="0"> </tspan></text>
    <text id="판매_렌탈_멤버쉽_일시불_" data-name="판매(렌탈, 멤버쉽, 일시불)" class="cls-12" transform="translate(450.765 226.294)"><tspan class="cls-8" x="0" y="0">판</tspan><tspan class="cls-10" y="0">매</tspan><tspan class="cls-8" y="0">(</tspan><tspan class="cls-10" y="0">렌</tspan><tspan class="cls-8" y="0">탈</tspan><tspan class="cls-10" y="0">, </tspan><tspan class="cls-8" y="0">멤버</tspan><tspan class="cls-10" y="0">쉽,</tspan><tspan class="cls-8" y="0" xml:space="preserve"> 일</tspan><tspan class="cls-10" y="0">시</tspan><tspan class="cls-8" y="0">불</tspan><tspan y="0">)</tspan></text>
    <text id="_4" data-name="• " class="cls-11" transform="translate(441.942 251.036)"><tspan class="cls-10" x="0" y="0">•</tspan><tspan y="0"> </tspan></text>
    <text id="서비스_프로그램" data-name="서비스 프로그램" class="cls-12" transform="translate(450.765 251.036)"><tspan class="cls-8" x="0" y="0">서</tspan><tspan class="cls-10" y="0">비</tspan><tspan class="cls-8" y="0">스 </tspan><tspan class="cls-10" y="0">프</tspan><tspan class="cls-8" y="0">로그</tspan><tspan y="0">램</tspan></text>
    <text id="_5" data-name="• " class="cls-11" transform="translate(441.942 275.778)"><tspan class="cls-10" x="0" y="0">•</tspan><tspan y="0"> </tspan></text>
    <text id="고객_커뮤니케이션" data-name="고객 커뮤니케이션" class="cls-12" transform="translate(450.765 275.778)"><tspan class="cls-8" x="0" y="0">고</tspan><tspan class="cls-10" y="0">객</tspan><tspan class="cls-8" y="0" xml:space="preserve"> 커</tspan><tspan class="cls-10" y="0">뮤</tspan><tspan class="cls-8" y="0">니케</tspan><tspan class="cls-10" y="0">이</tspan><tspan y="0">션</tspan></text>
    <text id="_6" data-name="• " class="cls-11" transform="translate(282.418 226.278)"><tspan class="cls-10" x="0" y="0">•</tspan><tspan y="0"> </tspan></text>
    <text id="연구개발" class="cls-12" transform="translate(291.24 226.278)"><tspan class="cls-8" x="0" y="0">연구개</tspan><tspan y="0">발</tspan></text>
    <text id="_7" data-name="• " class="cls-11" transform="translate(282.418 251.02)"><tspan class="cls-10" x="0" y="0">•</tspan><tspan y="0"> </tspan></text>
    <text id="제품생산" class="cls-12" transform="translate(291.24 251.02)"><tspan class="cls-8" x="0" y="0">제품생</tspan><tspan y="0">산</tspan></text>
    <text id="_8" data-name="• " class="cls-11" transform="translate(686.211 226.278)"><tspan class="cls-10" x="0" y="0">•</tspan><tspan y="0"> </tspan></text>
    <text id="리퍼브_제품_판매" data-name="리퍼브 제품 판매" class="cls-12" transform="translate(695.033 226.278)"><tspan class="cls-8" x="0" y="0">리</tspan><tspan class="cls-10" y="0">퍼</tspan><tspan class="cls-8" y="0">브 </tspan><tspan class="cls-10" y="0">제</tspan><tspan class="cls-8" y="0">품 </tspan><tspan class="cls-10" y="0">판</tspan><tspan y="0">매</tspan></text>
    <text id="_9" data-name="• " class="cls-11" transform="translate(686.211 251.02)"><tspan class="cls-10" x="0" y="0">•</tspan><tspan y="0"> </tspan></text>
    <text id="원재료_재활용" data-name="원재료 재활용" class="cls-12" transform="translate(695.033 251.02)"><tspan class="cls-8" x="0" y="0">원</tspan><tspan class="cls-10" y="0">재</tspan><tspan class="cls-8" y="0">료 </tspan><tspan class="cls-10" y="0">재</tspan><tspan class="cls-8" y="0">활</tspan><tspan y="0">용</tspan></text>
    <text id="Procurement" class="cls-13" transform="translate(61.773 123.87)"><tspan class="cls-8" x="0" y="0">P</tspan><tspan class="cls-14" y="0">r</tspan><tspan class="cls-8" y="0">ocu</tspan><tspan class="cls-14" y="0">r</tspan><tspan class="cls-8" y="0">e</tspan><tspan class="cls-10" y="0">m</tspan><tspan class="cls-8" y="0">e</tspan><tspan class="cls-10" y="0">n</tspan><tspan y="0">t</tspan></text>
    <text id="Sales_" data-name="Sales &amp; " class="cls-13" transform="translate(504.439 123.87)"><tspan class="cls-10" x="0" y="0">S</tspan><tspan class="cls-8" y="0">ales </tspan><tspan y="0">&amp; </tspan></text>
    <text id="Services" class="cls-13" transform="translate(501.453 140.865)"><tspan class="cls-10" x="0" y="0">S</tspan><tspan class="cls-8" y="0">e</tspan><tspan class="cls-15" y="0">r</tspan><tspan class="cls-8" y="0">v</tspan><tspan class="cls-10" y="0">i</tspan><tspan class="cls-16" y="0">c</tspan><tspan class="cls-8" y="0">e</tspan><tspan y="0">s</tspan></text>
    <text id="R_D_" data-name="R&amp;D " class="cls-13" transform="translate(301.894 123.87)"><tspan class="cls-10" x="0" y="0">R&amp;</tspan><tspan y="0">D </tspan></text>
    <text id="Production" class="cls-13" transform="translate(279.633 140.865)"><tspan class="cls-8" x="0" y="0">P</tspan><tspan class="cls-14" y="0">r</tspan><tspan class="cls-8" y="0">odu</tspan><tspan class="cls-14" y="0">c</tspan><tspan class="cls-10" y="0">ti</tspan><tspan class="cls-8" y="0">o</tspan><tspan y="0">n</tspan></text>
    <text id="Disposal_" data-name="Disposal &amp; " class="cls-13" transform="translate(704.493 123.87)"><tspan class="cls-8" x="0" y="0">D</tspan><tspan class="cls-10" y="0">i</tspan><tspan class="cls-8" y="0">sposal </tspan><tspan y="0">&amp; </tspan></text>
    <text id="Recycling" class="cls-13" transform="translate(707.943 140.865)"><tspan class="cls-17" x="0" y="0">R</tspan><tspan class="cls-8" y="0">e</tspan><tspan class="cls-18" y="0">c</tspan><tspan class="cls-10" y="0">y</tspan><tspan class="cls-8" y="0">cl</tspan><tspan class="cls-10" y="0">in</tspan><tspan y="0">g</tspan></text>
    <g id="그룹_9" data-name="그룹 9" transform="translate(-679.998 -1049.216)">
      <path id="패스_60" data-name="패스 60" class="cls-2" d="M1117.723,1140.848a89.864,89.864,0,0,0,88.344,86.91"/>
      <path id="패스_61" data-name="패스 61" class="cls-2" d="M1210.478,1227.723a89.864,89.864,0,0,0,86.91-88.344"/>
      <path id="패스_62" data-name="패스 62" class="cls-3" d="M1297.4,1137.908h0m-89.862,89.862h0m-89.862-89.862h0"/>
      <path id="패스_63" data-name="패스 63" class="cls-2" d="M906.211,1136.137a89.864,89.864,0,0,1,88.344-86.91"/>
      <path id="패스_64" data-name="패스 64" class="cls-2" d="M998.967,1049.262a89.865,89.865,0,0,1,86.91,88.345"/>
      <path id="패스_65" data-name="패스 65" class="cls-3" d="M1085.888,1139.077h0m-89.862-89.861h0m-89.862,89.861h0"/>
      <path id="패스_66" data-name="패스 66" class="cls-2" d="M1329.107,1136.137a89.864,89.864,0,0,1,88.344-86.91"/>
      <path id="패스_67" data-name="패스 67" class="cls-2" d="M1421.863,1049.262a89.865,89.865,0,0,1,86.91,88.345"/>
      <path id="패스_68" data-name="패스 68" class="cls-3" d="M1508.784,1139.077h0m-89.862-89.861h0m-89.862,89.861h0"/>
    </g>
    <line id="선_63" data-name="선 63" class="cls-19" y2="12" transform="translate(104.643 187.544)"/>
    <line id="선_64" data-name="선 64" class="cls-19" y2="12" transform="translate(527.045 187.544)"/>
    <line id="선_65" data-name="선 65" class="cls-19" y2="12" transform="translate(315.533 187.544)"/>
    <line id="선_66" data-name="선 66" class="cls-19" y2="12" transform="translate(739.419 187.544)"/>
    <g id="그룹_10" data-name="그룹 10" transform="translate(-679.998 -1049.216)">
      <path id="패스_69" data-name="패스 69" class="cls-20" d="M694.77,1152.679A14.771,14.771,0,1,0,680,1137.907a14.772,14.772,0,0,0,14.772,14.772"/>
    </g>
    <text id="_1" data-name="1" class="cls-21" transform="translate(10.54 94.354)"><tspan x="0" y="0">1</tspan></text>
    <line id="선_67" data-name="선 67" class="cls-22" x2="26.07" transform="translate(201.037 88.692)"/>
    <path id="패스_70" data-name="패스 70" class="cls-23" d="M908.638,1137.908h0m-30.67,0h0" transform="translate(-679.998 -1049.216)"/>
    <line id="선_68" data-name="선 68" class="cls-22" x2="26.07" transform="translate(620.964 88.692)"/>
    <path id="패스_71" data-name="패스 71" class="cls-23" d="M1328.565,1137.908h0m-30.67,0h0" transform="translate(-679.998 -1049.216)"/>
    <line id="선_69" data-name="선 69" class="cls-22" x2="26.07" transform="translate(411.054 89.97)"/>
    <path id="패스_72" data-name="패스 72" class="cls-23" d="M1118.655,1139.186h0m-30.67,0h0" transform="translate(-679.998 -1049.216)"/>
    <g id="그룹_11" data-name="그룹 11" transform="translate(-679.998 -1049.216)">
      <path id="패스_73" data-name="패스 73" class="cls-20" d="M905.183,1150.921a14.771,14.771,0,1,0-14.772-14.772,14.772,14.772,0,0,0,14.772,14.772"/>
    </g>
    <text id="_2-2" data-name="2" class="cls-21" transform="translate(220.953 92.597)"><tspan x="0" y="0">2</tspan></text>
    <g id="그룹_12" data-name="그룹 12" transform="translate(-679.998 -1049.216)">
      <path id="패스_74" data-name="패스 74" class="cls-20" d="M1110.016,1153.958a14.771,14.771,0,1,0-14.772-14.772,14.772,14.772,0,0,0,14.772,14.772"/>
    </g>
    <text id="_3-2" data-name="3" class="cls-21" transform="translate(425.786 95.633)"><tspan x="0" y="0">3</tspan></text>
    <g id="그룹_13" data-name="그룹 13" transform="translate(-679.998 -1049.216)">
      <path id="패스_75" data-name="패스 75" class="cls-20" d="M1322.7,1153.958a14.771,14.771,0,1,0-14.772-14.772,14.772,14.772,0,0,0,14.772,14.772"/>
    </g>
    <text id="_4-2" data-name="4" class="cls-21" transform="translate(638.469 95.633)"><tspan x="0" y="0">4</tspan></text>
    <path id="패스_76" data-name="패스 76" class="cls-24" d="M1513.656,1139.164l-4.4,4.308-4.4-4.308" transform="translate(-679.998 -1049.216)"/>
    <path id="패스_77" data-name="패스 77" class="cls-24" d="M718.517,1070.991l6.1.814-.686,6.119" transform="translate(-679.998 -1049.216)"/>
  </g>
</svg>
