<svg id="구성_요소_20_1" data-name="구성 요소 20 – 1" xmlns="http://www.w3.org/2000/svg" width="81.27" height="81.269" viewBox="0 0 81.27 81.269">
  <defs>
    <style>
      .cls-1 {
        fill: #85c16b;
      }

      .cls-2 {
        fill: #fff;
      }

      .cls-3 {
        fill: none;
        stroke: #000;
        stroke-miterlimit: 10;
        stroke-width: 0.945px;
      }

      .cls-4 {
        font-size: 16.065px;
        font-family: NotoSansKR-Medium, Noto Sans KR;
        font-weight: 500;
      }
    </style>
  </defs>
  <g id="그룹_24" data-name="그룹 24" transform="translate(-1159.043 -2781.311)">
    <path id="패스_81" data-name="패스 81" class="cls-1" d="M1240.313,2821.945a40.635,40.635,0,1,1-40.635-40.634,40.635,40.635,0,0,1,40.635,40.634"/>
    <path id="패스_82" data-name="패스 82" d="M1211.964,2840c0-6.016-11.294-19.494-11.294-19.494s-11.3,13.478-11.3,19.494a11.3,11.3,0,0,0,22.589,0m-7.145-5.724c1.485,2.512,2.452,4.626,2.452,5.724a6.5,6.5,0,0,1-6.6,6.369"/>
    <path id="패스_83" data-name="패스 83" class="cls-2" d="M1200.267,2846.087a8.078,8.078,0,1,0-8.387-8.072,8.233,8.233,0,0,0,8.387,8.072"/>
    <path id="패스_84" data-name="패스 84" class="cls-2" d="M1210.051,2838.818c0-5.974-11.217-19.357-11.217-19.357s-11.215,13.383-11.215,19.357a11.223,11.223,0,0,0,22.432,0m-7.095-5.684c1.473,2.495,2.435,4.593,2.435,5.684a6.451,6.451,0,0,1-6.557,6.324"/>
    <path id="패스_85" data-name="패스 85" class="cls-3" d="M1209.8,2838.8c0-5.849-10.969-18.952-10.969-18.952s-10.968,13.1-10.968,18.952a10.975,10.975,0,0,0,21.937,0Zm-6.938-5.565c1.441,2.442,2.381,4.5,2.381,5.565a6.311,6.311,0,0,1-6.412,6.191"/>
  </g>
  <text id="_3" data-name="3" class="cls-4" transform="translate(36.057 26.421)"><tspan x="0" y="0">3</tspan></text>
</svg>
