<svg id="구성_요소_22_1" data-name="구성 요소 22 – 1" xmlns="http://www.w3.org/2000/svg" xmlns:xlink="http://www.w3.org/1999/xlink" width="494.667" height="357.117" viewBox="0 0 494.667 357.117">
  <defs>
    <style>
      .cls-1, .cls-15, .cls-19, .cls-21, .cls-25, .cls-26 {
        fill: none;
      }

      .cls-2 {
        fill: #f5f7f7;
      }

      .cls-3, .cls-5 {
        fill: #5171b1;
      }

      .cls-12, .cls-17, .cls-24, .cls-3 {
        font-size: 15px;
      }

      .cls-17, .cls-24, .cls-3 {
        font-family: NotoSansKR-Regular, Noto Sans KR;
      }

      .cls-4 {
        letter-spacing: -0.02em;
      }

      .cls-16, .cls-6 {
        fill: #1e2323;
      }

      .cls-6 {
        font-size: 12px;
      }

      .cls-10, .cls-16, .cls-6 {
        font-family: NotoSansKR-Light, Noto Sans KR;
        font-weight: 300;
      }

      .cls-7 {
        letter-spacing: -0.014em;
      }

      .cls-8 {
        letter-spacing: -0.015em;
      }

      .cls-9 {
        fill: #d5ddec;
      }

      .cls-10, .cls-16 {
        font-size: 14px;
      }

      .cls-11 {
        fill: #4d4d4d;
        font-size: 16px;
      }

      .cls-11, .cls-12, .cls-14 {
        font-family: NotoSansKR-Medium, Noto Sans KR;
        font-weight: 500;
      }

      .cls-12, .cls-14 {
        fill: #1f4a8c;
      }

      .cls-13 {
        letter-spacing: -0.019em;
      }

      .cls-14 {
        font-size: 21px;
      }

      .cls-15 {
        stroke: #3e3a39;
      }

      .cls-17 {
        fill: #80aae4;
      }

      .cls-18 {
        clip-path: url(#clip-path);
      }

      .cls-19 {
        stroke: #a0c0eb;
      }

      .cls-20 {
        clip-path: url(#clip-path-2);
      }

      .cls-21, .cls-25 {
        stroke: #5171b1;
      }

      .cls-22 {
        clip-path: url(#clip-path-3);
      }

      .cls-23 {
        clip-path: url(#clip-path-4);
      }

      .cls-24 {
        fill: #4b4f50;
      }

      .cls-25 {
        stroke-width: 0.5px;
      }

      .cls-26 {
        stroke: #78a5e2;
        stroke-width: 0.54px;
      }
    </style>
    <clipPath id="clip-path">
      <rect id="사각형_135" data-name="사각형 135" class="cls-1" width="40" height="16.001" transform="translate(3316.706 5455.776)"/>
    </clipPath>
    <clipPath id="clip-path-2">
      <rect id="사각형_136" data-name="사각형 136" class="cls-1" width="40" height="142.712" transform="translate(3316.706 5313.064)"/>
    </clipPath>
    <clipPath id="clip-path-3">
      <rect id="사각형_137" data-name="사각형 137" class="cls-1" width="40" height="50.604" transform="translate(3193.396 5421.451)"/>
    </clipPath>
    <clipPath id="clip-path-4">
      <rect id="사각형_138" data-name="사각형 138" class="cls-1" width="40" height="57.292" transform="translate(3193.396 5364.159)"/>
    </clipPath>
  </defs>
  <rect id="사각형_129" data-name="사각형 129" class="cls-2" width="79.858" height="253.684" transform="translate(266.453 74.233)"/>
  <text id="_58" data-name="58" class="cls-3" transform="translate(326.962 184.625)"><tspan class="cls-4" x="0" y="0">5</tspan><tspan y="0">8</tspan></text>
  <rect id="사각형_130" data-name="사각형 130" class="cls-2" width="80" height="253.684" transform="translate(143.143 74.233)"/>
  <rect id="사각형_131" data-name="사각형 131" class="cls-5" width="9" height="9" transform="translate(0 53.122)"/>
  <text id="자체_검증" data-name="자체 검증" class="cls-6" transform="translate(12 62.121)"><tspan class="cls-7" x="0" y="0">자체</tspan><tspan class="cls-8" y="0"> </tspan><tspan class="cls-7" y="0">검</tspan><tspan y="0">증</tspan></text>
  <text id="외부_의회" data-name="외부 의회" class="cls-6" transform="translate(12 81.993)"><tspan class="cls-7" x="0" y="0">외부</tspan><tspan class="cls-8" y="0"> </tspan><tspan class="cls-7" y="0">의</tspan><tspan y="0">회</tspan></text>
  <rect id="사각형_132" data-name="사각형 132" class="cls-9" width="9" height="9" transform="translate(0 73.28)"/>
  <text id="전량_자체_" data-name="전량 자체 " class="cls-10" transform="translate(394.667 45.58)"><tspan class="cls-8" x="0" y="0">전</tspan><tspan class="cls-7" y="0">량</tspan><tspan class="cls-8" y="0"> </tspan><tspan class="cls-7" y="0">자</tspan><tspan y="0">체 </tspan></text>
  <text id="_" data-name="	" class="cls-10" transform="translate(452.767 45.58)"><tspan x="0" y="0">	</tspan></text>
  <text id="시험소_활용" data-name="시험소 활용" class="cls-10" transform="translate(394.667 64.578)"><tspan class="cls-8" x="0" y="0">시</tspan><tspan class="cls-7" y="0">험소</tspan><tspan class="cls-8" y="0" xml:space="preserve"> 활</tspan><tspan y="0">용</tspan></text>
  <text id="연도별_검증_진행_현황" data-name="연도별 검증 진행 현황" class="cls-11" transform="translate(0 19)"><tspan class="cls-4" x="0" y="0">연도별 검증 진행 현</tspan><tspan y="0">황</tspan></text>
  <text id="_단위_:_건_" data-name="(단위 : 건)" class="cls-6" transform="translate(0 40)"><tspan class="cls-7" x="0" y="0">(단위 :</tspan><tspan class="cls-8" y="0"> </tspan><tspan class="cls-7" y="0">건</tspan><tspan y="0">)</tspan></text>
  <text id="_2020" data-name="2020" class="cls-12" transform="translate(398.018 352.117)"><tspan class="cls-13" x="0" y="0">202</tspan><tspan y="0">0</tspan></text>
  <rect id="사각형_133" data-name="사각형 133" class="cls-2" width="80" height="253.684" transform="translate(394.667 74.233)"/>
  <text id="_90" data-name="90" class="cls-14" transform="translate(448.148 102.715)"><tspan class="cls-13" x="0" y="0">9</tspan><tspan y="0">0</tspan></text>
  <rect id="사각형_134" data-name="사각형 134" class="cls-5" width="40" height="214.848" transform="translate(394.667 113.069)"/>
  <line id="선_563" data-name="선 563" class="cls-15" x2="494.667" transform="translate(0 328.418)"/>
  <text id="_2018" data-name="2018" class="cls-16" transform="translate(168.479 351.678)"><tspan class="cls-7" x="0" y="0">201</tspan><tspan y="0">8</tspan></text>
  <text id="_2019" data-name="2019" class="cls-16" transform="translate(291.791 351.678)"><tspan class="cls-7" x="0" y="0">201</tspan><tspan y="0">9</tspan></text>
  <text id="_2" data-name="2" class="cls-17" transform="translate(333.975 326.338)"><tspan x="0" y="0">2</tspan></text>
  <g id="그룹_72" data-name="그룹 72" transform="translate(-3050.253 -5143.639)">
    <g id="그룹_71" data-name="그룹 71" class="cls-18">
      <line id="선_564" data-name="선 564" class="cls-19" x1="151.363" y2="102.33" transform="translate(3252.85 5360.453)"/>
      <line id="선_565" data-name="선 565" class="cls-19" x1="151.363" y2="102.33" transform="translate(3252.85 5376.626)"/>
      <line id="선_566" data-name="선 566" class="cls-19" x1="151.363" y2="102.33" transform="translate(3252.85 5352.366)"/>
      <line id="선_567" data-name="선 567" class="cls-19" x1="151.363" y2="102.33" transform="translate(3252.85 5392.8)"/>
      <line id="선_568" data-name="선 568" class="cls-19" x1="151.363" y2="102.33" transform="translate(3252.85 5368.54)"/>
      <line id="선_569" data-name="선 569" class="cls-19" x1="151.363" y2="102.33" transform="translate(3252.85 5404.93)"/>
      <line id="선_570" data-name="선 570" class="cls-19" x1="151.363" y2="102.33" transform="translate(3252.85 5384.713)"/>
      <line id="선_571" data-name="선 571" class="cls-19" x1="151.363" y2="102.33" transform="translate(3252.85 5364.497)"/>
      <line id="선_572" data-name="선 572" class="cls-19" x1="151.363" y2="102.33" transform="translate(3252.85 5380.67)"/>
      <line id="선_573" data-name="선 573" class="cls-19" x1="151.363" y2="102.33" transform="translate(3252.85 5356.41)"/>
      <line id="선_574" data-name="선 574" class="cls-19" x1="151.363" y2="102.33" transform="translate(3252.85 5396.843)"/>
      <line id="선_575" data-name="선 575" class="cls-19" x1="151.363" y2="102.33" transform="translate(3252.85 5372.583)"/>
      <line id="선_576" data-name="선 576" class="cls-19" x1="151.363" y2="102.33" transform="translate(3252.85 5408.973)"/>
      <line id="선_577" data-name="선 577" class="cls-19" x1="151.363" y2="102.33" transform="translate(3252.85 5388.756)"/>
      <line id="선_578" data-name="선 578" class="cls-19" x1="151.363" y2="102.33" transform="translate(3252.85 5417.06)"/>
      <line id="선_579" data-name="선 579" class="cls-19" x1="151.363" y2="102.33" transform="translate(3252.85 5400.887)"/>
      <line id="선_580" data-name="선 580" class="cls-19" x1="151.363" y2="102.33" transform="translate(3252.85 5425.146)"/>
      <line id="선_581" data-name="선 581" class="cls-19" x1="151.363" y2="102.33" transform="translate(3252.85 5413.017)"/>
      <line id="선_582" data-name="선 582" class="cls-19" x1="151.363" y2="102.33" transform="translate(3252.85 5433.233)"/>
      <line id="선_583" data-name="선 583" class="cls-19" x1="151.363" y2="102.33" transform="translate(3252.85 5421.103)"/>
      <line id="선_584" data-name="선 584" class="cls-19" x1="151.363" y2="102.33" transform="translate(3252.85 5441.32)"/>
      <line id="선_585" data-name="선 585" class="cls-19" x1="151.363" y2="102.33" transform="translate(3252.85 5429.19)"/>
      <line id="선_586" data-name="선 586" class="cls-19" x1="151.363" y2="102.33" transform="translate(3252.85 5449.407)"/>
      <line id="선_587" data-name="선 587" class="cls-19" x1="151.363" y2="102.33" transform="translate(3252.85 5437.276)"/>
      <line id="선_588" data-name="선 588" class="cls-19" x1="151.363" y2="102.33" transform="translate(3252.85 5457.493)"/>
      <line id="선_589" data-name="선 589" class="cls-19" x1="151.363" y2="102.33" transform="translate(3252.85 5445.363)"/>
      <line id="선_590" data-name="선 590" class="cls-19" x1="151.363" y2="102.33" transform="translate(3252.85 5461.537)"/>
      <line id="선_591" data-name="선 591" class="cls-19" x1="151.363" y2="102.33" transform="translate(3252.85 5453.45)"/>
    </g>
  </g>
  <g id="그룹_74" data-name="그룹 74" transform="translate(-3050.253 -5143.639)">
    <g id="그룹_73" data-name="그룹 73" class="cls-20">
      <line id="선_592" data-name="선 592" class="cls-21" x1="151.363" y2="102.33" transform="translate(3261.025 5213.976)"/>
      <line id="선_593" data-name="선 593" class="cls-21" x1="151.363" y2="102.33" transform="translate(3261.025 5222.063)"/>
      <line id="선_594" data-name="선 594" class="cls-21" x1="151.363" y2="102.33" transform="translate(3261.025 5209.933)"/>
      <line id="선_595" data-name="선 595" class="cls-21" x1="151.363" y2="102.33" transform="translate(3261.025 5230.15)"/>
      <line id="선_596" data-name="선 596" class="cls-21" x1="151.363" y2="102.33" transform="translate(3261.025 5218.02)"/>
      <line id="선_597" data-name="선 597" class="cls-21" x1="151.363" y2="102.33" transform="translate(3261.025 5238.236)"/>
      <line id="선_598" data-name="선 598" class="cls-21" x1="151.363" y2="102.33" transform="translate(3261.025 5226.106)"/>
      <line id="선_599" data-name="선 599" class="cls-21" x1="151.363" y2="102.33" transform="translate(3261.025 5246.323)"/>
      <line id="선_600" data-name="선 600" class="cls-21" x1="151.363" y2="102.33" transform="translate(3261.025 5234.193)"/>
      <line id="선_601" data-name="선 601" class="cls-21" x1="151.363" y2="102.33" transform="translate(3261.025 5254.41)"/>
      <line id="선_602" data-name="선 602" class="cls-21" x1="151.363" y2="102.33" transform="translate(3261.025 5242.28)"/>
      <line id="선_603" data-name="선 603" class="cls-21" x1="151.363" y2="102.33" transform="translate(3261.025 5262.497)"/>
      <line id="선_604" data-name="선 604" class="cls-21" x1="151.363" y2="102.33" transform="translate(3261.025 5250.366)"/>
      <line id="선_605" data-name="선 605" class="cls-21" x1="151.363" y2="102.33" transform="translate(3261.025 5278.67)"/>
      <line id="선_606" data-name="선 606" class="cls-21" x1="151.363" y2="102.33" transform="translate(3261.025 5258.453)"/>
      <line id="선_607" data-name="선 607" class="cls-21" x1="151.363" y2="102.33" transform="translate(3261.025 5294.843)"/>
      <line id="선_608" data-name="선 608" class="cls-21" x1="151.363" y2="102.33" transform="translate(3261.025 5270.583)"/>
      <line id="선_609" data-name="선 609" class="cls-21" x1="151.363" y2="102.33" transform="translate(3261.025 5311.017)"/>
      <line id="선_610" data-name="선 610" class="cls-21" x1="151.363" y2="102.33" transform="translate(3261.025 5286.756)"/>
      <line id="선_611" data-name="선 611" class="cls-21" x1="151.363" y2="102.33" transform="translate(3261.025 5327.19)"/>
      <line id="선_612" data-name="선 612" class="cls-21" x1="151.363" y2="102.33" transform="translate(3261.025 5302.93)"/>
      <line id="선_613" data-name="선 613" class="cls-21" x1="151.363" y2="102.33" transform="translate(3261.025 5343.363)"/>
      <line id="선_614" data-name="선 614" class="cls-21" x1="151.363" y2="102.33" transform="translate(3261.025 5319.103)"/>
      <line id="선_615" data-name="선 615" class="cls-21" x1="151.363" y2="102.33" transform="translate(3261.025 5359.537)"/>
      <line id="선_616" data-name="선 616" class="cls-21" x1="151.363" y2="102.33" transform="translate(3261.025 5335.276)"/>
      <line id="선_617" data-name="선 617" class="cls-21" x1="151.363" y2="102.33" transform="translate(3261.025 5375.71)"/>
      <line id="선_618" data-name="선 618" class="cls-21" x1="151.363" y2="102.33" transform="translate(3261.025 5351.45)"/>
      <line id="선_619" data-name="선 619" class="cls-21" x1="151.363" y2="102.33" transform="translate(3261.025 5391.883)"/>
      <line id="선_620" data-name="선 620" class="cls-21" x1="151.363" y2="102.33" transform="translate(3261.025 5367.623)"/>
      <line id="선_621" data-name="선 621" class="cls-21" x1="151.363" y2="102.33" transform="translate(3261.025 5404.013)"/>
      <line id="선_622" data-name="선 622" class="cls-21" x1="151.363" y2="102.33" transform="translate(3261.025 5383.796)"/>
      <line id="선_623" data-name="선 623" class="cls-21" x1="151.363" y2="102.33" transform="translate(3261.025 5282.713)"/>
      <line id="선_624" data-name="선 624" class="cls-21" x1="151.363" y2="102.33" transform="translate(3261.025 5266.54)"/>
      <line id="선_625" data-name="선 625" class="cls-21" x1="151.363" y2="102.33" transform="translate(3261.025 5298.886)"/>
      <line id="선_626" data-name="선 626" class="cls-21" x1="151.363" y2="102.33" transform="translate(3261.025 5274.626)"/>
      <line id="선_627" data-name="선 627" class="cls-21" x1="151.363" y2="102.33" transform="translate(3261.025 5315.06)"/>
      <line id="선_628" data-name="선 628" class="cls-21" x1="151.363" y2="102.33" transform="translate(3261.025 5290.8)"/>
      <line id="선_629" data-name="선 629" class="cls-21" x1="151.363" y2="102.33" transform="translate(3261.025 5331.233)"/>
      <line id="선_630" data-name="선 630" class="cls-21" x1="151.363" y2="102.33" transform="translate(3261.025 5306.973)"/>
      <line id="선_631" data-name="선 631" class="cls-21" x1="151.363" y2="102.33" transform="translate(3261.025 5347.407)"/>
      <line id="선_632" data-name="선 632" class="cls-21" x1="151.363" y2="102.33" transform="translate(3261.025 5323.146)"/>
      <line id="선_633" data-name="선 633" class="cls-21" x1="151.363" y2="102.33" transform="translate(3261.025 5363.58)"/>
      <line id="선_634" data-name="선 634" class="cls-21" x1="151.363" y2="102.33" transform="translate(3261.025 5339.32)"/>
      <line id="선_635" data-name="선 635" class="cls-21" x1="151.363" y2="102.33" transform="translate(3261.025 5379.753)"/>
      <line id="선_636" data-name="선 636" class="cls-21" x1="151.363" y2="102.33" transform="translate(3261.025 5355.493)"/>
      <line id="선_637" data-name="선 637" class="cls-21" x1="151.363" y2="102.33" transform="translate(3261.025 5395.927)"/>
      <line id="선_638" data-name="선 638" class="cls-21" x1="151.363" y2="102.33" transform="translate(3261.025 5371.667)"/>
      <line id="선_639" data-name="선 639" class="cls-21" x1="151.363" y2="102.33" transform="translate(3261.025 5408.057)"/>
      <line id="선_640" data-name="선 640" class="cls-21" x1="151.363" y2="102.33" transform="translate(3261.025 5387.84)"/>
      <line id="선_641" data-name="선 641" class="cls-21" x1="151.363" y2="102.33" transform="translate(3261.025 5416.144)"/>
      <line id="선_642" data-name="선 642" class="cls-21" x1="151.363" y2="102.33" transform="translate(3261.025 5399.97)"/>
      <line id="선_643" data-name="선 643" class="cls-21" x1="151.363" y2="102.33" transform="translate(3261.025 5424.23)"/>
      <line id="선_644" data-name="선 644" class="cls-21" x1="151.363" y2="102.33" transform="translate(3261.025 5412.1)"/>
      <line id="선_645" data-name="선 645" class="cls-21" x1="151.363" y2="102.33" transform="translate(3261.025 5432.317)"/>
      <line id="선_646" data-name="선 646" class="cls-21" x1="151.363" y2="102.33" transform="translate(3261.025 5420.187)"/>
      <line id="선_647" data-name="선 647" class="cls-21" x1="151.363" y2="102.33" transform="translate(3261.025 5440.403)"/>
      <line id="선_648" data-name="선 648" class="cls-21" x1="151.363" y2="102.33" transform="translate(3261.025 5428.273)"/>
      <line id="선_649" data-name="선 649" class="cls-21" x1="151.363" y2="102.33" transform="translate(3261.025 5448.49)"/>
      <line id="선_650" data-name="선 650" class="cls-21" x1="151.363" y2="102.33" transform="translate(3261.025 5436.36)"/>
      <line id="선_651" data-name="선 651" class="cls-21" x1="151.363" y2="102.33" transform="translate(3261.025 5456.577)"/>
      <line id="선_652" data-name="선 652" class="cls-21" x1="151.363" y2="102.33" transform="translate(3261.025 5444.447)"/>
      <line id="선_653" data-name="선 653" class="cls-21" x1="151.363" y2="102.33" transform="translate(3261.025 5452.533)"/>
    </g>
  </g>
  <text id="_18" data-name="18" class="cls-17" transform="translate(203.794 292.66)"><tspan class="cls-4" x="0" y="0">1</tspan><tspan y="0">8</tspan></text>
  <g id="그룹_76" data-name="그룹 76" transform="translate(-3050.253 -5143.639)">
    <g id="그룹_75" data-name="그룹 75" class="cls-22">
      <line id="선_654" data-name="선 654" class="cls-19" x1="151.363" y2="102.33" transform="translate(3129.54 5328.386)"/>
      <line id="선_655" data-name="선 655" class="cls-19" x1="151.363" y2="102.33" transform="translate(3129.54 5344.559)"/>
      <line id="선_656" data-name="선 656" class="cls-19" x1="151.363" y2="102.33" transform="translate(3129.54 5320.299)"/>
      <line id="선_657" data-name="선 657" class="cls-19" x1="151.363" y2="102.33" transform="translate(3129.54 5360.732)"/>
      <line id="선_658" data-name="선 658" class="cls-19" x1="151.363" y2="102.33" transform="translate(3129.54 5336.472)"/>
      <line id="선_659" data-name="선 659" class="cls-19" x1="151.363" y2="102.33" transform="translate(3129.54 5376.906)"/>
      <line id="선_660" data-name="선 660" class="cls-19" x1="151.363" y2="102.33" transform="translate(3129.54 5352.646)"/>
      <line id="선_661" data-name="선 661" class="cls-19" x1="151.363" y2="102.33" transform="translate(3129.54 5393.079)"/>
      <line id="선_662" data-name="선 662" class="cls-19" x1="151.363" y2="102.33" transform="translate(3129.54 5368.819)"/>
      <line id="선_663" data-name="선 663" class="cls-19" x1="151.363" y2="102.33" transform="translate(3129.54 5405.209)"/>
      <line id="선_664" data-name="선 664" class="cls-19" x1="151.363" y2="102.33" transform="translate(3129.54 5384.992)"/>
      <line id="선_665" data-name="선 665" class="cls-19" x1="151.363" y2="102.33" transform="translate(3129.54 5332.429)"/>
      <line id="선_666" data-name="선 666" class="cls-19" x1="151.363" y2="102.33" transform="translate(3129.54 5348.603)"/>
      <line id="선_667" data-name="선 667" class="cls-19" x1="151.363" y2="102.33" transform="translate(3129.54 5324.342)"/>
      <line id="선_668" data-name="선 668" class="cls-19" x1="151.363" y2="102.33" transform="translate(3129.54 5364.776)"/>
      <line id="선_669" data-name="선 669" class="cls-19" x1="151.363" y2="102.33" transform="translate(3129.54 5340.516)"/>
      <line id="선_670" data-name="선 670" class="cls-19" x1="151.363" y2="102.33" transform="translate(3129.54 5380.949)"/>
      <line id="선_671" data-name="선 671" class="cls-19" x1="151.363" y2="102.33" transform="translate(3129.54 5356.689)"/>
      <line id="선_672" data-name="선 672" class="cls-19" x1="151.363" y2="102.33" transform="translate(3129.54 5397.123)"/>
      <line id="선_673" data-name="선 673" class="cls-19" x1="151.363" y2="102.33" transform="translate(3129.54 5372.862)"/>
      <line id="선_674" data-name="선 674" class="cls-19" x1="151.363" y2="102.33" transform="translate(3129.54 5409.252)"/>
      <line id="선_675" data-name="선 675" class="cls-19" x1="151.363" y2="102.33" transform="translate(3129.54 5389.036)"/>
      <line id="선_676" data-name="선 676" class="cls-19" x1="151.363" y2="102.33" transform="translate(3129.54 5417.339)"/>
      <line id="선_677" data-name="선 677" class="cls-19" x1="151.363" y2="102.33" transform="translate(3129.54 5401.166)"/>
      <line id="선_678" data-name="선 678" class="cls-19" x1="151.363" y2="102.33" transform="translate(3129.54 5425.426)"/>
      <line id="선_679" data-name="선 679" class="cls-19" x1="151.363" y2="102.33" transform="translate(3129.54 5413.296)"/>
      <line id="선_680" data-name="선 680" class="cls-19" x1="151.363" y2="102.33" transform="translate(3129.54 5433.513)"/>
      <line id="선_681" data-name="선 681" class="cls-19" x1="151.363" y2="102.33" transform="translate(3129.54 5421.382)"/>
      <line id="선_682" data-name="선 682" class="cls-19" x1="151.363" y2="102.33" transform="translate(3129.54 5441.599)"/>
      <line id="선_683" data-name="선 683" class="cls-19" x1="151.363" y2="102.33" transform="translate(3129.54 5429.469)"/>
      <line id="선_684" data-name="선 684" class="cls-19" x1="151.363" y2="102.33" transform="translate(3129.54 5449.686)"/>
      <line id="선_685" data-name="선 685" class="cls-19" x1="151.363" y2="102.33" transform="translate(3129.54 5437.556)"/>
      <line id="선_686" data-name="선 686" class="cls-19" x1="151.363" y2="102.33" transform="translate(3129.54 5457.772)"/>
      <line id="선_687" data-name="선 687" class="cls-19" x1="151.363" y2="102.33" transform="translate(3129.54 5445.643)"/>
      <line id="선_688" data-name="선 688" class="cls-19" x1="151.363" y2="102.33" transform="translate(3129.54 5461.816)"/>
      <line id="선_689" data-name="선 689" class="cls-19" x1="151.363" y2="102.33" transform="translate(3129.54 5453.729)"/>
    </g>
  </g>
  <text id="_19" data-name="19" class="cls-3" transform="translate(203.794 235.844)"><tspan class="cls-4" x="0" y="0">1</tspan><tspan y="0">9</tspan></text>
  <g id="그룹_78" data-name="그룹 78" transform="translate(-3050.253 -5143.639)">
    <g id="그룹_77" data-name="그룹 77" class="cls-23">
      <line id="선_690" data-name="선 690" class="cls-21" x1="151.363" y2="102.33" transform="translate(3129.54 5265.544)"/>
      <line id="선_691" data-name="선 691" class="cls-21" x1="151.363" y2="102.33" transform="translate(3129.54 5281.718)"/>
      <line id="선_692" data-name="선 692" class="cls-21" x1="151.363" y2="102.33" transform="translate(3129.54 5297.891)"/>
      <line id="선_693" data-name="선 693" class="cls-21" x1="151.363" y2="102.33" transform="translate(3129.54 5273.631)"/>
      <line id="선_694" data-name="선 694" class="cls-21" x1="151.363" y2="102.33" transform="translate(3129.54 5314.064)"/>
      <line id="선_695" data-name="선 695" class="cls-21" x1="151.363" y2="102.33" transform="translate(3129.54 5289.804)"/>
      <line id="선_696" data-name="선 696" class="cls-21" x1="151.363" y2="102.33" transform="translate(3129.54 5330.238)"/>
      <line id="선_697" data-name="선 697" class="cls-21" x1="151.363" y2="102.33" transform="translate(3129.54 5305.978)"/>
      <line id="선_698" data-name="선 698" class="cls-21" x1="151.363" y2="102.33" transform="translate(3129.54 5346.411)"/>
      <line id="선_699" data-name="선 699" class="cls-21" x1="151.363" y2="102.33" transform="translate(3129.54 5322.151)"/>
      <line id="선_700" data-name="선 700" class="cls-21" x1="151.363" y2="102.33" transform="translate(3129.54 5358.541)"/>
      <line id="선_701" data-name="선 701" class="cls-21" x1="151.363" y2="102.33" transform="translate(3129.54 5338.324)"/>
      <line id="선_702" data-name="선 702" class="cls-21" x1="151.363" y2="102.33" transform="translate(3129.54 5269.588)"/>
      <line id="선_703" data-name="선 703" class="cls-21" x1="151.363" y2="102.33" transform="translate(3129.54 5285.761)"/>
      <line id="선_704" data-name="선 704" class="cls-21" x1="151.363" y2="102.33" transform="translate(3129.54 5261.501)"/>
      <line id="선_705" data-name="선 705" class="cls-21" x1="151.363" y2="102.33" transform="translate(3129.54 5301.935)"/>
      <line id="선_706" data-name="선 706" class="cls-21" x1="151.363" y2="102.33" transform="translate(3129.54 5277.674)"/>
      <line id="선_707" data-name="선 707" class="cls-21" x1="151.363" y2="102.33" transform="translate(3129.54 5318.108)"/>
      <line id="선_708" data-name="선 708" class="cls-21" x1="151.363" y2="102.33" transform="translate(3129.54 5293.848)"/>
      <line id="선_709" data-name="선 709" class="cls-21" x1="151.363" y2="102.33" transform="translate(3129.54 5334.281)"/>
      <line id="선_710" data-name="선 710" class="cls-21" x1="151.363" y2="102.33" transform="translate(3129.54 5310.021)"/>
      <line id="선_711" data-name="선 711" class="cls-21" x1="151.363" y2="102.33" transform="translate(3129.54 5350.455)"/>
      <line id="선_712" data-name="선 712" class="cls-21" x1="151.363" y2="102.33" transform="translate(3129.54 5326.194)"/>
      <line id="선_713" data-name="선 713" class="cls-21" x1="151.363" y2="102.33" transform="translate(3129.54 5362.584)"/>
      <line id="선_714" data-name="선 714" class="cls-21" x1="151.363" y2="102.33" transform="translate(3129.54 5342.368)"/>
      <line id="선_715" data-name="선 715" class="cls-21" x1="151.363" y2="102.33" transform="translate(3129.54 5370.671)"/>
      <line id="선_716" data-name="선 716" class="cls-21" x1="151.363" y2="102.33" transform="translate(3129.54 5354.498)"/>
      <line id="선_717" data-name="선 717" class="cls-21" x1="151.363" y2="102.33" transform="translate(3129.54 5378.758)"/>
      <line id="선_718" data-name="선 718" class="cls-21" x1="151.363" y2="102.33" transform="translate(3129.54 5366.628)"/>
      <line id="선_719" data-name="선 719" class="cls-21" x1="151.363" y2="102.33" transform="translate(3129.54 5386.845)"/>
      <line id="선_720" data-name="선 720" class="cls-21" x1="151.363" y2="102.33" transform="translate(3129.54 5374.714)"/>
      <line id="선_721" data-name="선 721" class="cls-21" x1="151.363" y2="102.33" transform="translate(3129.54 5394.931)"/>
      <line id="선_722" data-name="선 722" class="cls-21" x1="151.363" y2="102.33" transform="translate(3129.54 5382.801)"/>
      <line id="선_723" data-name="선 723" class="cls-21" x1="151.363" y2="102.33" transform="translate(3129.54 5403.018)"/>
      <line id="선_724" data-name="선 724" class="cls-21" x1="151.363" y2="102.33" transform="translate(3129.54 5390.888)"/>
      <line id="선_725" data-name="선 725" class="cls-21" x1="151.363" y2="102.33" transform="translate(3129.54 5411.104)"/>
      <line id="선_726" data-name="선 726" class="cls-21" x1="151.363" y2="102.33" transform="translate(3129.54 5398.975)"/>
      <line id="선_727" data-name="선 727" class="cls-21" x1="151.363" y2="102.33" transform="translate(3129.54 5415.148)"/>
      <line id="선_728" data-name="선 728" class="cls-21" x1="151.363" y2="102.33" transform="translate(3129.54 5407.061)"/>
    </g>
  </g>
  <text id="_37" data-name="37" class="cls-24" transform="translate(204.17 208.764)"><tspan class="cls-4" x="0" y="0">3</tspan><tspan y="0">7</tspan></text>
  <text id="_60" data-name="60" class="cls-24" transform="translate(326.96 158.423)"><tspan class="cls-4" x="0" y="0">6</tspan><tspan y="0">0</tspan></text>
  <path id="패스_337" data-name="패스 337" class="cls-25" d="M3193.4,5363.524h80l43.31-50.318h80l48.214-56.865h80" transform="translate(-3050.253 -5143.639)"/>
  <path id="패스_338" data-name="패스 338" class="cls-26" d="M3193.4,5421.6h80l43.31,34.319h80l48.214,15.638" transform="translate(-3050.253 -5143.639)"/>
</svg>
