<svg id="구성_요소_34_1" data-name="구성 요소 34 – 1" xmlns="http://www.w3.org/2000/svg" width="796.001" height="344.188" viewBox="0 0 796.001 344.188">
  <defs>
    <style>
      .cls-1, .cls-11, .cls-14, .cls-15, .cls-2, .cls-3, .cls-6 {
        fill: none;
        stroke-width: 0.99px;
      }

      .cls-1, .cls-11, .cls-14, .cls-15, .cls-2, .cls-3 {
        stroke: #5e6366;
      }

      .cls-1, .cls-14, .cls-2, .cls-3 {
        stroke-linecap: round;
        stroke-linejoin: round;
      }

      .cls-1 {
        stroke-dasharray: 0 2.936;
      }

      .cls-2 {
        stroke-dasharray: 0 2.993;
      }

      .cls-4 {
        fill: #78a5e2;
      }

      .cls-13, .cls-5 {
        fill: #fff;
      }

      .cls-6 {
        stroke: #000;
      }

      .cls-11, .cls-6 {
        stroke-miterlimit: 10;
      }

      .cls-7 {
        fill: #333;
        font-size: 15px;
      }

      .cls-13, .cls-16, .cls-7 {
        font-family: NotoSansKR-Medium, Noto Sans KR;
        font-weight: 500;
      }

      .cls-8 {
        letter-spacing: -0.02em;
      }

      .cls-9 {
        letter-spacing: -0.019em;
      }

      .cls-10 {
        fill: #1e2323;
        font-size: 15.84px;
        font-family: NotoSansKR-Light, Noto Sans KR;
        font-weight: 300;
      }

      .cls-12 {
        fill: #132e54;
      }

      .cls-13 {
        font-size: 14.85px;
      }

      .cls-14 {
        stroke-dasharray: 0 2.923;
      }

      .cls-16 {
        fill: #4d4d4d;
        font-size: 16px;
      }
    </style>
  </defs>
  <g id="그룹_37" data-name="그룹 37" transform="translate(-7597.919 -1950.055)">
    <path id="패스_176" data-name="패스 176" class="cls-1" d="M7635.249,2021.45a85.432,85.432,0,0,0-23.187,57.184"/>
    <path id="패스_177" data-name="패스 177" class="cls-2" d="M7612.1,2083.094a85.745,85.745,0,0,0,84.2,82.736"/>
    <path id="패스_178" data-name="패스 178" class="cls-2" d="M7700.787,2165.792a85.744,85.744,0,0,0,82.739-84.193"/>
    <path id="패스_179" data-name="패스 179" class="cls-3" d="M7783.539,2080.1h0m-85.745,85.741h0M7612.05,2080.1h0m25.244-60.758h0"/>
    <path id="패스_180" data-name="패스 180" class="cls-4" d="M7697.795,2148.264a68.166,68.166,0,1,0-68.166-68.166,68.166,68.166,0,0,0,68.166,68.166"/>
    <path id="패스_181" data-name="패스 181" class="cls-4" d="M8101.421,2148.264a68.166,68.166,0,1,0-68.166-68.166,68.165,68.165,0,0,0,68.166,68.166"/>
    <path id="패스_182" data-name="패스 182" class="cls-4" d="M7899.547,2148.264a68.166,68.166,0,1,0-68.166-68.166,68.166,68.166,0,0,0,68.166,68.166"/>
    <path id="패스_183" data-name="패스 183" class="cls-4" d="M8303.173,2148.264a68.166,68.166,0,1,0-68.166-68.166,68.166,68.166,0,0,0,68.166,68.166"/>
    <path id="패스_184" data-name="패스 184" d="M7714.065,2062.83c0-7.511-14.958-24.337-14.958-24.337s-14.957,16.826-14.957,24.337,6.7,13.6,14.957,13.6,14.958-6.09,14.958-13.6m-9.462-7.146c1.967,3.136,3.248,5.776,3.248,7.146,0,4.384-3.921,7.951-8.744,7.951"/>
    <path id="패스_185" data-name="패스 185" class="cls-5" d="M7698.573,2070.425c6.135,0,11.107-4.512,11.107-10.078s-4.972-10.076-11.107-10.076-11.107,4.511-11.107,10.076,4.973,10.078,11.107,10.078"/>
    <path id="패스_186" data-name="패스 186" class="cls-5" d="M7711.532,2061.351c0-7.459-14.856-24.166-14.856-24.166s-14.854,16.707-14.854,24.166,6.651,13.506,14.854,13.506,14.856-6.047,14.856-13.506m-9.4-7.1c1.951,3.114,3.225,5.734,3.225,7.1,0,4.354-3.9,7.9-8.684,7.9"/>
    <path id="패스_187" data-name="패스 187" class="cls-6" d="M7711.335,2061.324c0-7.355-14.658-23.832-14.658-23.832s-14.658,16.477-14.658,23.832,6.563,13.319,14.658,13.319S7711.335,2068.68,7711.335,2061.324Zm-9.272-7c1.926,3.071,3.182,5.655,3.182,7,0,4.294-3.844,7.786-8.568,7.786"/>
    <path id="패스_188" data-name="패스 188" d="M8118.475,2062.83c0-7.511-14.958-24.337-14.958-24.337s-14.958,16.826-14.958,24.337,6.7,13.6,14.958,13.6,14.958-6.09,14.958-13.6m-9.463-7.146c1.967,3.136,3.248,5.776,3.248,7.146,0,4.384-3.921,7.951-8.743,7.951"/>
    <path id="패스_189" data-name="패스 189" class="cls-5" d="M8102.983,2070.425c6.135,0,11.107-4.512,11.107-10.078s-4.972-10.076-11.107-10.076-11.107,4.511-11.107,10.076,4.972,10.078,11.107,10.078"/>
    <path id="패스_190" data-name="패스 190" class="cls-5" d="M8115.942,2061.351c0-7.459-14.856-24.166-14.856-24.166s-14.854,16.707-14.854,24.166,6.651,13.506,14.854,13.506,14.856-6.047,14.856-13.506m-9.4-7.1c1.951,3.114,3.225,5.734,3.225,7.1,0,4.354-3.9,7.9-8.684,7.9"/>
    <path id="패스_191" data-name="패스 191" class="cls-6" d="M8115.745,2061.324c0-7.355-14.659-23.832-14.659-23.832s-14.657,16.477-14.657,23.832,6.563,13.319,14.657,13.319S8115.745,2068.68,8115.745,2061.324Zm-9.272-7c1.926,3.071,3.182,5.655,3.182,7,0,4.294-3.844,7.786-8.569,7.786"/>
    <path id="패스_192" data-name="패스 192" d="M7915.818,2062.83c0-7.511-14.959-24.337-14.959-24.337s-14.957,16.826-14.957,24.337,6.7,13.6,14.957,13.6,14.959-6.09,14.959-13.6m-9.463-7.146c1.967,3.136,3.248,5.776,3.248,7.146,0,4.384-3.922,7.951-8.744,7.951"/>
    <path id="패스_193" data-name="패스 193" class="cls-5" d="M7900.326,2070.425c6.135,0,11.107-4.512,11.107-10.078s-4.972-10.076-11.107-10.076-11.107,4.511-11.107,10.076,4.973,10.078,11.107,10.078"/>
    <path id="패스_194" data-name="패스 194" class="cls-5" d="M7913.285,2061.351c0-7.459-14.856-24.166-14.856-24.166s-14.854,16.707-14.854,24.166,6.651,13.506,14.854,13.506,14.856-6.047,14.856-13.506m-9.4-7.1c1.951,3.114,3.225,5.734,3.225,7.1,0,4.354-3.9,7.9-8.684,7.9"/>
    <path id="패스_195" data-name="패스 195" class="cls-6" d="M7913.087,2061.324c0-7.355-14.658-23.832-14.658-23.832s-14.658,16.477-14.658,23.832,6.563,13.319,14.658,13.319S7913.087,2068.68,7913.087,2061.324Zm-9.272-7c1.926,3.071,3.182,5.655,3.182,7,0,4.294-3.844,7.786-8.568,7.786"/>
    <path id="패스_196" data-name="패스 196" d="M8319.444,2062.83c0-7.511-14.958-24.337-14.958-24.337s-14.958,16.826-14.958,24.337,6.7,13.6,14.958,13.6,14.958-6.09,14.958-13.6m-9.463-7.146c1.967,3.136,3.247,5.776,3.247,7.146,0,4.384-3.921,7.951-8.742,7.951"/>
    <path id="패스_197" data-name="패스 197" class="cls-5" d="M8303.952,2070.425c6.135,0,11.106-4.512,11.106-10.078s-4.972-10.076-11.106-10.076-11.107,4.511-11.107,10.076,4.973,10.078,11.107,10.078"/>
    <path id="패스_198" data-name="패스 198" class="cls-5" d="M8316.911,2061.351c0-7.459-14.856-24.166-14.856-24.166s-14.854,16.707-14.854,24.166,6.65,13.506,14.854,13.506,14.856-6.047,14.856-13.506m-9.4-7.1c1.951,3.114,3.226,5.734,3.226,7.1,0,4.354-3.9,7.9-8.685,7.9"/>
    <path id="패스_199" data-name="패스 199" class="cls-6" d="M8316.713,2061.324c0-7.355-14.659-23.832-14.659-23.832s-14.656,16.477-14.656,23.832,6.563,13.319,14.656,13.319S8316.713,2068.68,8316.713,2061.324Zm-9.271-7c1.926,3.071,3.182,5.655,3.182,7,0,4.294-3.844,7.786-8.569,7.786"/>
  </g>
  <text id="고객제보" class="cls-7" transform="translate(71.781 155.664)"><tspan class="cls-8" x="0" y="0">고객제</tspan><tspan y="0">보</tspan></text>
  <text id="제보_사항_" data-name="제보 사항 " class="cls-7" transform="translate(272.556 155.664)"><tspan class="cls-8" x="0" y="0">제보 사</tspan><tspan y="0">항 </tspan></text>
  <text id="_" data-name=" " class="cls-7" transform="translate(334.355 155.664)"><tspan x="0" y="0"> </tspan></text>
  <text id="확인" class="cls-7" transform="translate(288.006 176.664)"><tspan class="cls-8" x="0" y="0">확</tspan><tspan y="0">인</tspan></text>
  <text id="결과_안내" data-name="결과 안내" class="cls-7" transform="translate(477.741 155.664)"><tspan class="cls-8" x="0" y="0">결</tspan><tspan class="cls-9" y="0">과</tspan><tspan class="cls-8" y="0" xml:space="preserve"> 안</tspan><tspan y="0">내</tspan></text>
  <text id="사례_내부_" data-name="사례 내부 " class="cls-7" transform="translate(676.161 155.664)"><tspan class="cls-8" x="0" y="0">사례</tspan><tspan class="cls-9" y="0"> </tspan><tspan class="cls-8" y="0">내</tspan><tspan y="0">부 </tspan></text>
  <text id="_2" data-name=" " class="cls-7" transform="translate(737.961 155.664)"><tspan x="0" y="0"> </tspan></text>
  <text id="공유" class="cls-7" transform="translate(691.611 176.664)"><tspan class="cls-8" x="0" y="0">공</tspan><tspan y="0">유</tspan></text>
  <text id="윤리_제보센터로_고객_" data-name="윤리 제보센터로 고객 " class="cls-10" transform="translate(30.502 265.01)"><tspan class="cls-8" x="0" y="0">윤리 제보센터로 고</tspan><tspan y="0">객 </tspan></text>
  <text id="제보를_접수_받습니다._" data-name="제보를 접수 받습니다. " class="cls-10" transform="translate(28.665 289.752)"><tspan class="cls-8" x="0" y="0">제보를 접수 받습니다</tspan><tspan y="0">. </tspan></text>
  <text id="_우편_또는_팩스_가능_" data-name="(우편 또는 팩스 가능)" class="cls-10" transform="translate(30.898 314.494)"><tspan class="cls-8" x="0" y="0">(우편 또는 팩스 가능</tspan><tspan y="0">)</tspan></text>
  <text id="처리결과에_대하여_제" data-name="처리결과에 대하여 제" class="cls-10" transform="translate(434.581 264.994)"><tspan class="cls-8" x="0" y="0">처</tspan><tspan class="cls-9" y="0">리</tspan><tspan class="cls-8" y="0">결과</tspan><tspan class="cls-9" y="0">에</tspan><tspan class="cls-8" y="0" xml:space="preserve"> 대</tspan><tspan class="cls-9" y="0">하</tspan><tspan class="cls-8" y="0">여 </tspan><tspan y="0">제</tspan></text>
  <text id="보자에게_안내_합니다._" data-name="보자에게 안내 합니다. " class="cls-10" transform="translate(432.743 289.736)"><tspan class="cls-8" x="0" y="0">보</tspan><tspan class="cls-9" y="0">자</tspan><tspan class="cls-8" y="0">에게</tspan><tspan class="cls-9" y="0"> </tspan><tspan class="cls-8" y="0">안내</tspan><tspan class="cls-9" y="0"> </tspan><tspan class="cls-8" y="0">합니</tspan><tspan class="cls-9" y="0">다</tspan><tspan y="0">. </tspan></text>
  <text id="_우편_또는_이메일_등_" data-name="(우편 또는 이메일 등)" class="cls-10" transform="translate(434.992 314.479)"><tspan class="cls-8" x="0" y="0">(우편</tspan><tspan class="cls-9" y="0"> </tspan><tspan class="cls-8" y="0">또는</tspan><tspan class="cls-9" y="0"> </tspan><tspan class="cls-8" y="0">이메</tspan><tspan class="cls-9" y="0">일</tspan><tspan class="cls-8" y="0" xml:space="preserve"> 등</tspan><tspan y="0">)</tspan></text>
  <text id="접수내용에_대해_관련" data-name="접수내용에 대해 관련" class="cls-10" transform="translate(231.876 264.979)"><tspan class="cls-8" x="0" y="0">접수내용에 대해 관</tspan><tspan y="0">련</tspan></text>
  <text id="부서에서_확인_및_조치" data-name="부서에서 확인 및 조치" class="cls-10" transform="translate(229.817 289.721)"><tspan class="cls-8" x="0" y="0">부서에서 확인 및 </tspan><tspan class="cls-9" y="0">조</tspan><tspan y="0">치</tspan></text>
  <text id="합니다." class="cls-10" transform="translate(276.925 314.463)"><tspan class="cls-8" x="0" y="0">합니다</tspan><tspan y="0">.</tspan></text>
  <text id="부정행위의_반복을_예" data-name="부정행위의 반복을 예" class="cls-10" transform="translate(629.429 264.963)"><tspan class="cls-8" x="0" y="0">부</tspan><tspan class="cls-9" y="0">정</tspan><tspan class="cls-8" y="0">행위</tspan><tspan class="cls-9" y="0">의</tspan><tspan class="cls-8" y="0" xml:space="preserve"> 반</tspan><tspan class="cls-9" y="0">복</tspan><tspan class="cls-8" y="0">을 </tspan><tspan y="0">예</tspan></text>
  <text id="방하고_모범사례를_전" data-name="방하고 모범사례를 전" class="cls-10" transform="translate(629.429 289.704)"><tspan class="cls-8" x="0" y="0">방</tspan><tspan class="cls-9" y="0">하</tspan><tspan class="cls-8" y="0">고 </tspan><tspan class="cls-9" y="0">모</tspan><tspan class="cls-8" y="0">범사</tspan><tspan class="cls-9" y="0">례</tspan><tspan class="cls-8" y="0">를 </tspan><tspan y="0">전</tspan></text>
  <text id="파하기_위해_관련_사례" data-name="파하기 위해 관련 사례" class="cls-10" transform="translate(627.369 314.446)"><tspan class="cls-8" x="0" y="0">파</tspan><tspan class="cls-9" y="0">하</tspan><tspan class="cls-8" y="0">기 </tspan><tspan class="cls-9" y="0">위</tspan><tspan class="cls-8" y="0">해 </tspan><tspan class="cls-9" y="0">관</tspan><tspan class="cls-8" y="0">련 </tspan><tspan class="cls-9" y="0">사</tspan><tspan y="0">례</tspan></text>
  <text id="를_내부에_공유합니다." data-name="를 내부에 공유합니다." class="cls-10" transform="translate(627.606 339.188)"><tspan class="cls-8" x="0" y="0">를</tspan><tspan class="cls-9" y="0"> </tspan><tspan class="cls-8" y="0">내부</tspan><tspan class="cls-9" y="0">에</tspan><tspan class="cls-8" y="0" xml:space="preserve"> 공</tspan><tspan class="cls-9" y="0">유</tspan><tspan class="cls-8" y="0">합니</tspan><tspan class="cls-9" y="0">다</tspan><tspan y="0">.</tspan></text>
  <g id="그룹_38" data-name="그룹 38" transform="translate(-7597.919 -1950.055)">
    <path id="패스_200" data-name="패스 200" class="cls-2" d="M8015.727,2083.113a85.736,85.736,0,0,0,84.2,82.717"/>
    <path id="패스_201" data-name="패스 201" class="cls-2" d="M8104.413,2165.792a85.735,85.735,0,0,0,82.74-84.175"/>
    <path id="패스_202" data-name="패스 202" class="cls-3" d="M8187.166,2080.12h0m-85.745,85.723h0m-85.745-85.723h0"/>
    <path id="패스_203" data-name="패스 203" class="cls-2" d="M7813.854,2078.2a85.735,85.735,0,0,1,84.2-82.717"/>
    <path id="패스_204" data-name="패스 204" class="cls-2" d="M7902.54,1995.521a85.736,85.736,0,0,1,82.74,84.175"/>
    <path id="패스_205" data-name="패스 205" class="cls-3" d="M7985.292,2081.192h0m-85.745-85.722h0m-85.745,85.722h0"/>
    <path id="패스_206" data-name="패스 206" class="cls-2" d="M8217.479,2078.2a85.737,85.737,0,0,1,84.2-82.717"/>
    <path id="패스_207" data-name="패스 207" class="cls-2" d="M8306.166,1995.521a85.737,85.737,0,0,1,82.74,84.175"/>
    <path id="패스_208" data-name="패스 208" class="cls-3" d="M8388.918,2081.192h0m-85.745-85.722h0m-85.745,85.722h0"/>
  </g>
  <line id="선_180" data-name="선 180" class="cls-11" y2="11.339" transform="translate(99.42 228.393)"/>
  <line id="선_181" data-name="선 181" class="cls-11" y2="11.339" transform="translate(503.023 228.393)"/>
  <line id="선_182" data-name="선 182" class="cls-11" y2="11.339" transform="translate(301.161 228.393)"/>
  <line id="선_183" data-name="선 183" class="cls-11" y2="11.339" transform="translate(704.765 228.393)"/>
  <g id="그룹_39" data-name="그룹 39" transform="translate(-7597.919 -1950.055)">
    <path id="패스_209" data-name="패스 209" class="cls-12" d="M7612.018,2094.2a14.1,14.1,0,1,0-14.1-14.1,14.1,14.1,0,0,0,14.1,14.1"/>
  </g>
  <text id="_1" data-name="1" class="cls-13" transform="translate(9.867 136.043)"><tspan x="0" y="0">1</tspan></text>
  <line id="선_184" data-name="선 184" class="cls-14" x2="24.844" transform="translate(191.896 130.051)"/>
  <path id="패스_210" data-name="패스 210" class="cls-3" d="M7816.12,2080.1h0m-29.228,0h0" transform="translate(-7597.919 -1950.055)"/>
  <line id="선_185" data-name="선 185" class="cls-14" x2="24.844" transform="translate(592.687 130.051)"/>
  <path id="패스_211" data-name="패스 211" class="cls-3" d="M8216.911,2080.1h0m-29.228,0h0" transform="translate(-7597.919 -1950.055)"/>
  <line id="선_186" data-name="선 186" class="cls-14" x2="24.844" transform="translate(392.342 131.271)"/>
  <path id="패스_212" data-name="패스 212" class="cls-3" d="M8016.566,2081.326h0m-29.227,0h0" transform="translate(-7597.919 -1950.055)"/>
  <g id="그룹_40" data-name="그룹 40" transform="translate(-7597.919 -1950.055)">
    <path id="패스_213" data-name="패스 213" class="cls-12" d="M7812.844,2092.519a14.1,14.1,0,1,0-14.1-14.1,14.1,14.1,0,0,0,14.1,14.1"/>
  </g>
  <text id="_2-2" data-name="2" class="cls-13" transform="translate(210.693 134.365)"><tspan x="0" y="0">2</tspan></text>
  <g id="그룹_41" data-name="그룹 41" transform="translate(-7597.919 -1950.055)">
    <path id="패스_214" data-name="패스 214" class="cls-12" d="M8008.343,2095.417a14.1,14.1,0,1,0-14.1-14.1,14.1,14.1,0,0,0,14.1,14.1"/>
  </g>
  <text id="_3" data-name="3" class="cls-13" transform="translate(406.192 137.264)"><tspan x="0" y="0">3</tspan></text>
  <g id="그룹_42" data-name="그룹 42" transform="translate(-7597.919 -1950.055)">
    <path id="패스_215" data-name="패스 215" class="cls-12" d="M8211.334,2095.417a14.1,14.1,0,1,0-14.1-14.1,14.1,14.1,0,0,0,14.1,14.1"/>
  </g>
  <text id="_4" data-name="4" class="cls-13" transform="translate(609.183 137.264)"><tspan x="0" y="0">4</tspan></text>
  <path id="패스_216" data-name="패스 216" class="cls-15" d="M7898.6,1991.54l4.065,4.184-4.065,4.184" transform="translate(-7597.919 -1950.055)"/>
  <path id="패스_217" data-name="패스 217" class="cls-15" d="M8100,2162.154l4.065,4.184-4.065,4.184" transform="translate(-7597.919 -1950.055)"/>
  <path id="패스_218" data-name="패스 218" class="cls-15" d="M8393.575,2081.314l-4.185,4.065-4.184-4.065" transform="translate(-7597.919 -1950.055)"/>
  <path id="패스_219" data-name="패스 219" class="cls-15" d="M7634.687,2016.253l5.8.774-.652,5.818" transform="translate(-7597.919 -1950.055)"/>
  <text id="코웨이_윤리_제보_프로세스" data-name="코웨이 윤리 제보 프로세스" class="cls-16" transform="translate(0.001 19)"><tspan class="cls-8" x="0" y="0">코웨이 윤리 제보 프로세</tspan><tspan y="0">스</tspan></text>
</svg>
