<svg id="구성_요소_36_1" data-name="구성 요소 36 – 1" xmlns="http://www.w3.org/2000/svg" width="418" height="388.407" viewBox="0 0 418 388.407">
  <defs>
    <style>
      .cls-1, .cls-9 {
        fill: #1e2323;
      }

      .cls-1 {
        font-size: 16px;
      }

      .cls-1, .cls-7, .cls-9 {
        font-family: NotoSansKR-Medium, Noto Sans KR;
        font-weight: 500;
      }

      .cls-2 {
        letter-spacing: -0.019em;
      }

      .cls-3 {
        letter-spacing: -0.02em;
      }

      .cls-4 {
        fill: #f9fafa;
      }

      .cls-5, .cls-8 {
        fill: none;
        stroke: #5e6366;
      }

      .cls-6 {
        fill: #92bc49;
      }

      .cls-7 {
        fill: #fff;
        font-size: 14px;
      }

      .cls-8 {
        stroke-miterlimit: 10;
      }

      .cls-9 {
        font-size: 15px;
      }
    </style>
  </defs>
  <text id="_2020_코웨이_리퍼프_제품_판매_목표" data-name="2020 코웨이 리퍼프 제품 판매 목표" class="cls-1" transform="translate(0 19)"><tspan class="cls-2" x="0" y="0">2020</tspan><tspan class="cls-3" y="0" xml:space="preserve"> 코웨이 리퍼프 제품 판매 목</tspan><tspan y="0">표</tspan></text>
  <g id="구성_요소_34_1" data-name="구성 요소 34 – 1" transform="translate(0 49.407)">
    <rect id="사각형_128" data-name="사각형 128" class="cls-4" width="418" height="339"/>
    <line id="선_928" data-name="선 928" class="cls-5" y2="57.5" transform="translate(37 91.5)"/>
    <line id="선_929" data-name="선 929" class="cls-5" x1="4.5" transform="translate(34.75 91.5)"/>
    <line id="선_930" data-name="선 930" class="cls-5" y2="57.5" transform="translate(37 211.5)"/>
    <line id="선_931" data-name="선 931" class="cls-5" x1="4.5" transform="translate(34.75 211.5)"/>
    <g id="그룹_114" data-name="그룹 114" transform="translate(-2959 -7951)">
      <path id="패스_257" data-name="패스 257" class="cls-6" d="M2996,8027.762A16.762,16.762,0,1,0,2979.238,8011,16.761,16.761,0,0,0,2996,8027.762"/>
    </g>
    <text id="_1" data-name="1" class="cls-7" transform="translate(33.01 66.16)"><tspan x="0" y="0">1</tspan></text>
    <g id="그룹_115" data-name="그룹 115" transform="translate(-2959 -7951)">
      <path id="패스_258" data-name="패스 258" class="cls-8" d="M2996,7990.5a20.493,20.493,0,1,0,11.066,3.24"/>
    </g>
    <path id="패스_259" data-name="패스 259" class="cls-8" d="M3005.907,7996.139l-1-3.923,3.957-.716" transform="translate(-2959 -7951)"/>
    <text id="리퍼브_확대에_따른_친환경_기업_이미지_강화_" data-name="리퍼브 확대에 따른 친환경 기업 이미지 강화 " class="cls-9" transform="translate(72.365 55.6)"><tspan class="cls-3" x="0" y="0">리퍼브 확대에 따른 친환경 기업 이미지 강</tspan><tspan y="0">화 </tspan></text>
    <text id="_" data-name="
" class="cls-9" transform="translate(342.665 55.6)"><tspan x="0" y="0"></tspan><tspan x="0" y="18"></tspan></text>
    <text id="_고객_의식_있는_소비_유도" data-name="→ 고객 “의식 있는 소비” 유도" class="cls-9" transform="translate(72.365 78.596)"><tspan class="cls-3" x="0" y="0">→ 고객 </tspan><tspan class="cls-2" y="0">“</tspan><tspan class="cls-3" y="0">의식 있는 소비</tspan><tspan class="cls-2" y="0">”</tspan><tspan class="cls-3" y="0" xml:space="preserve"> 유</tspan><tspan y="0">도</tspan></text>
    <g id="그룹_116" data-name="그룹 116" transform="translate(-2959 -7951)">
      <path id="패스_260" data-name="패스 260" class="cls-6" d="M2996,8147.762A16.762,16.762,0,1,0,2979.238,8131,16.761,16.761,0,0,0,2996,8147.762"/>
    </g>
    <text id="_2" data-name="2" class="cls-7" transform="translate(33.01 186.16)"><tspan x="0" y="0">2</tspan></text>
    <g id="그룹_117" data-name="그룹 117" transform="translate(-2959 -7951)">
      <path id="패스_261" data-name="패스 261" class="cls-8" d="M2996,8110.5a20.493,20.493,0,1,0,11.066,3.24"/>
    </g>
    <path id="패스_262" data-name="패스 262" class="cls-8" d="M3005.907,8116.139l-1-3.923,3.957-.716" transform="translate(-2959 -7951)"/>
    <text id="단순_폐기가_아닌_제품_재사용_확대" data-name="단순 폐기가 아닌 제품 재사용 확대" class="cls-9" transform="translate(72.365 186.6)"><tspan class="cls-3" x="0" y="0">단순 폐기가 아닌 제품 재사용 확</tspan><tspan y="0">대</tspan></text>
    <g id="그룹_118" data-name="그룹 118" transform="translate(-2959 -7951)">
      <path id="패스_263" data-name="패스 263" class="cls-6" d="M2996,8267.762A16.761,16.761,0,1,0,2979.238,8251,16.761,16.761,0,0,0,2996,8267.762"/>
    </g>
    <text id="_3" data-name="3" class="cls-7" transform="translate(33.01 306.16)"><tspan x="0" y="0">3</tspan></text>
    <g id="그룹_119" data-name="그룹 119" transform="translate(-2959 -7951)">
      <path id="패스_264" data-name="패스 264" class="cls-8" d="M2996,8230.5a20.493,20.493,0,1,0,11.066,3.24"/>
    </g>
    <path id="패스_265" data-name="패스 265" class="cls-8" d="M3005.907,8236.139l-1-3.923,3.957-.716" transform="translate(-2959 -7951)"/>
    <text id="환경_보호_및_소비자에_환경적_가치_및_가성비_제공" data-name="환경 보호 및 소비자에 환경적 가치 및 가성비 제공" class="cls-9" transform="translate(72.365 306.6)"><tspan class="cls-3" x="0" y="0">환경 보호 및 소비자에 환경적 가치 및 가성비 </tspan><tspan class="cls-2" y="0">제</tspan><tspan y="0">공</tspan></text>
  </g>
</svg>
