<svg xmlns="http://www.w3.org/2000/svg" width="41.332" height="58.731" viewBox="0 0 41.332 58.731">
  <defs>
    <style>
      .cls-1 {
        fill: #2b2e34;
      }

      .cls-2, .cls-3 {
        fill: #fff;
      }

      .cls-2, .cls-4 {
        stroke: #2b2e34;
      }

      .cls-4 {
        fill: none;
      }
    </style>
  </defs>
  <g id="구성_요소_42_1" data-name="구성 요소 42 – 1" transform="translate(0.5 0.652)">
    <g id="그룹_149" data-name="그룹 149" transform="translate(1.832 58.08)">
      <path id="패스_270" data-name="패스 270" class="cls-1" d="M0,0V-3.945a4.75,4.75,0,0,1,4.75-4.75h29.5A4.746,4.746,0,0,1,39-3.949V0ZM20-8.695a16,16,0,0,1-15.192-11h5.4a10.992,10.992,0,0,0,9.79,6,11,11,0,0,0,11-11,10.931,10.931,0,0,0-3.311-7.831,4.211,4.211,0,0,1-.939.113,4.208,4.208,0,0,1-2.905-1.171l-1.431,1.469-7.881-7.674,13.3-13.659a1.748,1.748,0,0,1,2.474-.033l.179.174,2.6-2.668a2,2,0,0,1,2.828-.038l2.149,2.093a2,2,0,0,1,.038,2.828l-2.6,2.669.179.174a1.751,1.751,0,0,1,.033,2.475l-5.93,6.089A4.277,4.277,0,0,1,31-36.695c0,.141-.028.273-.041.41A15.889,15.889,0,0,1,36-24.695a16,16,0,0,1-16,16M10.864-30.288a1.5,1.5,0,0,1-.028-2.121l1.857-1.908,4.3,4.186-1.858,1.908a1.5,1.5,0,0,1-2.121.028Zm.809-5.023a2.074,2.074,0,0,1-.039-2.934l.834-.857a1.932,1.932,0,0,1,2.733-.036l6.544,6.372a1.934,1.934,0,0,1,.037,2.734l-.934.958a1.933,1.933,0,0,1-2.733.037Z"/>
    </g>
    <g id="그룹_150" data-name="그룹 150" transform="translate(10.211 36.885)">
      <path id="패스_271" data-name="패스 271" class="cls-2" d="M0,0A10.992,10.992,0,0,0,9.79,6a11,11,0,0,0,11-11,10.984,10.984,0,0,0-5-9.213v-5.613A16,16,0,0,1,25.79-5a16,16,0,0,1-16,16A16,16,0,0,1-5.4,0"/>
    </g>
    <g id="그룹_151" data-name="그룹 151" transform="translate(22.5 19.885)">
      <path id="패스_272" data-name="패스 272" class="cls-3" d="M0,0A4.25,4.25,0,1,0,8.5,0,4.265,4.265,0,0,0,4.25-4.281,4.265,4.265,0,0,0,0,0"/>
    </g>
    <g id="그룹_152" data-name="그룹 152" transform="translate(22.5 19.885)">
      <path id="패스_273" data-name="패스 273" class="cls-4" d="M0,0A4.25,4.25,0,1,0,8.5,0,4.265,4.265,0,0,0,4.25-4.281,4.265,4.265,0,0,0,0,0Z"/>
    </g>
    <g id="그룹_153" data-name="그룹 153" transform="translate(35.503 8.156)">
      <path id="패스_274" data-name="패스 274" class="cls-3" d="M0,0,2.6-2.668A2,2,0,0,0,2.561-5.5L.411-7.589a2,2,0,0,0-2.828.037l-2.6,2.668Z"/>
    </g>
    <g id="그룹_154" data-name="그룹 154" transform="translate(35.503 8.156)">
      <path id="패스_275" data-name="패스 275" class="cls-4" d="M0,0,2.6-2.668A2,2,0,0,0,2.561-5.5L.411-7.589a2,2,0,0,0-2.828.037l-2.6,2.668Z"/>
    </g>
    <g id="그룹_155" data-name="그룹 155" transform="translate(22.414 24.465)">
      <path id="패스_276" data-name="패스 276" class="cls-3" d="M0,0,13.3-13.659a1.751,1.751,0,0,0-.033-2.475L7.895-21.366a1.749,1.749,0,0,0-2.475.033L-7.881-7.674Z"/>
    </g>
    <g id="그룹_156" data-name="그룹 156" transform="translate(22.414 24.465)">
      <path id="패스_277" data-name="패스 277" class="cls-4" d="M0,0,13.3-13.659a1.751,1.751,0,0,0-.033-2.475L7.895-21.366a1.749,1.749,0,0,0-2.475.033L-7.881-7.674Z"/>
    </g>
    <g id="그룹_157" data-name="그룹 157" transform="translate(20.848 27.506)">
      <path id="패스_278" data-name="패스 278" class="cls-3" d="M0,0,.934-.959A1.933,1.933,0,0,0,.9-3.692l-6.544-6.372a1.932,1.932,0,0,0-2.733.036l-.834.856a2.075,2.075,0,0,0,.039,2.935L-2.733.036A1.932,1.932,0,0,0,0,0"/>
    </g>
    <g id="그룹_158" data-name="그룹 158" transform="translate(20.848 27.506)">
      <path id="패스_279" data-name="패스 279" class="cls-4" d="M0,0,.934-.959A1.933,1.933,0,0,0,.9-3.692l-6.544-6.372a1.932,1.932,0,0,0-2.733.036l-.834.856a2.075,2.075,0,0,0,.039,2.935L-2.733.036A1.932,1.932,0,0,0,0,0Z"/>
    </g>
    <g id="그룹_159" data-name="그룹 159" transform="translate(15.134 28.357)">
      <path id="패스_280" data-name="패스 280" class="cls-3" d="M0,0,1.858-1.908l-4.3-4.186L-4.3-4.186A1.5,1.5,0,0,0-4.27-2.065L-2.121.028A1.5,1.5,0,0,0,0,0"/>
    </g>
    <g id="그룹_160" data-name="그룹 160" transform="translate(15.134 28.357)">
      <path id="패스_281" data-name="패스 281" class="cls-4" d="M0,0,1.858-1.908l-4.3-4.186L-4.3-4.186A1.5,1.5,0,0,0-4.27-2.065L-2.121.028A1.5,1.5,0,0,0,0,0Z"/>
    </g>
    <g id="그룹_161" data-name="그룹 161" transform="translate(0 55.885)">
      <path id="패스_282" data-name="패스 282" class="cls-3" d="M0,0H39V-3.254A4.746,4.746,0,0,0,34.254-8H4.75A4.75,4.75,0,0,0,0-3.25Z"/>
    </g>
    <g id="그룹_162" data-name="그룹 162" transform="translate(0 55.885)">
      <path id="패스_283" data-name="패스 283" class="cls-4" d="M0,0H39V-3.254A4.746,4.746,0,0,0,34.254-8H4.75A4.75,4.75,0,0,0,0-3.25Z"/>
    </g>
    <g id="그룹_164" data-name="그룹 164" transform="translate(14.5 37)">
      <path id="패스_285" data-name="패스 285" class="cls-4" d="M0,0H-13"/>
    </g>
  </g>
</svg>
