<svg xmlns="http://www.w3.org/2000/svg" width="47.69" height="52" viewBox="0 0 47.69 52">
  <defs>
    <style>
      .cls-1 {
        fill: #2b2e34;
      }

      .cls-2, .cls-4 {
        fill: none;
        stroke: #2b2e34;
      }

      .cls-2 {
        stroke-width: 0.283px;
      }

      .cls-3 {
        fill: #fff;
      }
    </style>
  </defs>
  <g id="구성_요소_43_1" data-name="구성 요소 43 – 1" transform="translate(0.5 0.5)">
    <g id="그룹_186" data-name="그룹 186" transform="translate(47.049 11.456)">
      <path id="패스_307" data-name="패스 307" class="cls-1" d="M0,0V-4.423A1.727,1.727,0,0,0-1.727-6.15H-7.091v-4.03a.576.576,0,0,0-.575-.576H-36.453a.576.576,0,0,0-.576.576v4.03h-5.363c-.954,0-2.727.773-2.727,1.727V0c0,4.869,4.948,8.817,9.817,8.817l-.133-1.159c-4.259-.534-7.533-3.669-7.533-7.467V-3.6a1.617,1.617,0,0,1,1.727-1.48h4.212v4.36a23.027,23.027,0,0,0,6.745,16.282l3.758,3.757a3.455,3.455,0,0,1,1.012,2.442v5.478a1.151,1.151,0,0,1-1.152,1.151,2.3,2.3,0,0,0-2.3,2.3v1.151h-.575a4.03,4.03,0,0,0-4.03,4.03V39.9h23.029V35.873a4.03,4.03,0,0,0-4.03-4.03h-.576V30.692a2.3,2.3,0,0,0-2.3-2.3A1.151,1.151,0,0,1-18.6,27.238V21.76a3.458,3.458,0,0,1,1.011-2.442l3.758-3.757A23.023,23.023,0,0,0-7.091-.721v-4.36h4.212A1.618,1.618,0,0,1-1.151-3.6V.191c0,3.8-3.274,6.933-7.533,7.467l-.134,1.159A8.818,8.818,0,0,0,0,0"/>
    </g>
    <g id="그룹_187" data-name="그룹 187" transform="translate(47.049 11.456)">
      <path id="패스_308" data-name="패스 308" class="cls-2" d="M0,0V-4.423A1.727,1.727,0,0,0-1.727-6.15H-7.091v-4.03a.576.576,0,0,0-.575-.576H-36.453a.576.576,0,0,0-.576.576v4.03h-5.363c-.954,0-2.727.773-2.727,1.727V0c0,4.869,4.948,8.817,9.817,8.817l-.133-1.159c-4.259-.534-7.533-3.669-7.533-7.467V-3.6a1.617,1.617,0,0,1,1.727-1.48h4.212v4.36a23.027,23.027,0,0,0,6.745,16.282l3.758,3.757a3.455,3.455,0,0,1,1.012,2.442v5.478a1.151,1.151,0,0,1-1.152,1.151,2.3,2.3,0,0,0-2.3,2.3v1.151h-.575a4.03,4.03,0,0,0-4.03,4.03V39.9h23.029V35.873a4.03,4.03,0,0,0-4.03-4.03h-.576V30.692a2.3,2.3,0,0,0-2.3-2.3A1.151,1.151,0,0,1-18.6,27.238V21.76a3.458,3.458,0,0,1,1.011-2.442l3.758-3.757A23.023,23.023,0,0,0-7.091-.721v-4.36h4.212A1.618,1.618,0,0,1-1.151-3.6V.191c0,3.8-3.274,6.933-7.533,7.467l-.134,1.159A8.818,8.818,0,0,0,0,0Z"/>
    </g>
    <g id="그룹_188" data-name="그룹 188" transform="translate(2.192 10.99)">
      <path id="패스_309" data-name="패스 309" class="cls-3" d="M0,0V-3.864A1.174,1.174,0,0,1,1.287-4.873H6.336L6.27-5.432,6.142-6.521l-.051-.442H.1A2.277,2.277,0,0,0-2.192-4.7V-.194A9.568,9.568,0,0,0,7.433,9.292h.562L7.93,8.734,7.791,7.553l-.045-.39-.39-.048C3.162,6.6,0,3.538,0,0"/>
    </g>
    <g id="그룹_189" data-name="그룹 189" transform="translate(2.192 10.99)">
      <path id="패스_310" data-name="패스 310" class="cls-4" d="M0,0V-3.864A1.174,1.174,0,0,1,1.287-4.873H6.336L6.27-5.432,6.142-6.521l-.051-.442H.1A2.277,2.277,0,0,0-2.192-4.7V-.194A9.568,9.568,0,0,0,7.433,9.292h.562L7.93,8.734,7.791,7.553l-.045-.39-.39-.048C3.162,6.6,0,3.538,0,0Z"/>
    </g>
    <g id="그룹_190" data-name="그룹 190" transform="translate(43.184 10.99)">
      <path id="패스_311" data-name="패스 311" class="cls-3" d="M0,0V-3.864A1.174,1.174,0,0,0-1.287-4.873H-6.335l.065-.559.128-1.089.051-.442h6A2.277,2.277,0,0,1,2.192-4.7V-.194A9.568,9.568,0,0,1-7.433,9.292h-.562l.065-.558.139-1.181.045-.39.39-.048C-3.162,6.6,0,3.538,0,0"/>
    </g>
    <g id="그룹_191" data-name="그룹 191" transform="translate(43.184 10.99)">
      <path id="패스_312" data-name="패스 312" class="cls-4" d="M0,0V-3.864A1.174,1.174,0,0,0-1.287-4.873H-6.335l.065-.559.128-1.089.051-.442h6A2.277,2.277,0,0,1,2.192-4.7V-.194A9.568,9.568,0,0,1-7.433,9.292h-.562l.065-.558.139-1.181.045-.39.39-.048C-3.162,6.6,0,3.538,0,0Z"/>
    </g>
    <g id="그룹_192" data-name="그룹 192" transform="translate(34.267 49.616)">
      <path id="패스_313" data-name="패스 313" class="cls-3" d="M0,0H-23.157V-2.939A4.082,4.082,0,0,1-19.1-7.052H-4.053A4.083,4.083,0,0,1,0-2.939Z"/>
    </g>
    <g id="그룹_193" data-name="그룹 193" transform="translate(34.267 49.616)">
      <path id="패스_314" data-name="패스 314" class="cls-4" d="M0,0H-23.157V-2.939A4.082,4.082,0,0,1-19.1-7.052H-4.053A4.083,4.083,0,0,1,0-2.939Z"/>
    </g>
    <g id="그룹_194" data-name="그룹 194" transform="translate(37.718 10.062)">
      <path id="패스_315" data-name="패스 315" class="cls-3" d="M0,0V-9.484a.578.578,0,0,0-.578-.578h-28.9a.578.578,0,0,0-.578.578V0a23.071,23.071,0,0,0,6.772,16.326l3.773,3.767A3.465,3.465,0,0,1-18.5,22.542v5.492a1.156,1.156,0,0,1-1.156,1.155A2.31,2.31,0,0,0-21.966,31.5v1.155H-8.093V31.5A2.31,2.31,0,0,0-10.4,29.189a1.155,1.155,0,0,1-1.156-1.155V22.542a3.461,3.461,0,0,1,1.016-2.449l3.772-3.767A23.068,23.068,0,0,0,0,0"/>
    </g>
    <g id="그룹_195" data-name="그룹 195" transform="translate(37.718 10.062)">
      <path id="패스_316" data-name="패스 316" class="cls-4" d="M0,0V-9.484a.578.578,0,0,0-.578-.578h-28.9a.578.578,0,0,0-.578.578V0a23.071,23.071,0,0,0,6.772,16.326l3.773,3.767A3.465,3.465,0,0,1-18.5,22.542v5.492a1.156,1.156,0,0,1-1.156,1.155A2.31,2.31,0,0,0-21.966,31.5v1.155H-8.093V31.5A2.31,2.31,0,0,0-10.4,29.189a1.155,1.155,0,0,1-1.156-1.155V22.542a3.461,3.461,0,0,1,1.016-2.449l3.772-3.767A23.068,23.068,0,0,0,0,0Z"/>
    </g>
  </g>
</svg>
