<svg xmlns="http://www.w3.org/2000/svg" width="53.976" height="50" viewBox="0 0 53.976 50">
  <defs>
    <style>
      .cls-1 {
        fill: #2b2e34;
      }

      .cls-2, .cls-3 {
        fill: #fff;
      }

      .cls-2, .cls-4, .cls-5 {
        stroke: #2b2e34;
      }

      .cls-4, .cls-5 {
        fill: none;
      }

      .cls-5 {
        stroke-linecap: round;
      }
    </style>
  </defs>
  <g id="구성_요소_44_1" data-name="구성 요소 44 – 1" transform="translate(0.5 0.5)">
    <g id="그룹_165" data-name="그룹 165" transform="translate(43.11 10.841)">
      <path id="패스_286" data-name="패스 286" class="cls-1" d="M0,0-6.207-3.1v-.3L-9.044-4.573h0a16.767,16.767,0,0,1-6.89,1.484,16.767,16.767,0,0,1-6.89-1.484h0l-1.084.587-.836.418-.024-.021c0,.011,0,.021,0,.031L-31.884,0l-6.328,15.817,8.041,5.627V38.129H-1.713V21.444l8.041-5.627Z"/>
    </g>
    <g id="그룹_166" data-name="그룹 166" transform="translate(35.392 5.248)">
      <path id="패스_287" data-name="패스 287" class="cls-2" d="M0,0V2.4L-1.613,5.6l-6.452,4-9.679-4L-20.163.8l3.629-1.958h0A16.732,16.732,0,0,0-9.678.311a16.736,16.736,0,0,0,6.854-1.47h0"/>
    </g>
    <g id="그룹_167" data-name="그룹 167" transform="translate(11.508 46.697)">
      <path id="패스_288" data-name="패스 288" class="cls-3" d="M0,0V-16.639l-8.021-5.612,6.313-15.774,8.616-4.306a7.307,7.307,0,0,0,7.286,6.85,7.307,7.307,0,0,0,7.286-6.85L30.1-38.025l6.312,15.774-8.02,5.612V0Z"/>
    </g>
    <g id="그룹_168" data-name="그룹 168" transform="translate(11.508 46.697)">
      <path id="패스_289" data-name="패스 289" class="cls-4" d="M0,0V-16.639l-8.021-5.612,6.313-15.774,8.616-4.306a7.307,7.307,0,0,0,7.286,6.85,7.307,7.307,0,0,0,7.286-6.85L30.1-38.025l6.312,15.774-8.02,5.612V0Z"/>
    </g>
    <g id="그룹_170" data-name="그룹 170" transform="translate(11.495 20.483)">
      <path id="패스_291" data-name="패스 291" class="cls-4" d="M0,0V18.75"/>
    </g>
    <g id="그룹_171" data-name="그룹 171" transform="translate(39.909 39.233)">
      <path id="패스_292" data-name="패스 292" class="cls-4" d="M0,0V-18.75"/>
    </g>
    <g id="그룹_174" data-name="그룹 174" transform="translate(5.557 1.54)">
      <path id="패스_295" data-name="패스 295" class="cls-5" d="M0,0V1.792"/>
    </g>
    <g id="그룹_175" data-name="그룹 175" transform="translate(2.019 5.078)">
      <path id="패스_296" data-name="패스 296" class="cls-5" d="M0,0H1.792"/>
    </g>
    <g id="그룹_176" data-name="그룹 176" transform="translate(5.557 8.617)">
      <path id="패스_297" data-name="패스 297" class="cls-5" d="M0,0V-1.792"/>
    </g>
    <g id="그룹_177" data-name="그룹 177" transform="translate(9.096 5.078)">
      <path id="패스_298" data-name="패스 298" class="cls-5" d="M0,0H-1.792"/>
    </g>
    <g id="그룹_178" data-name="그룹 178" transform="translate(49.438)">
      <path id="패스_299" data-name="패스 299" class="cls-5" d="M0,0V1.792"/>
    </g>
    <g id="그룹_179" data-name="그룹 179" transform="translate(45.9 3.538)">
      <path id="패스_300" data-name="패스 300" class="cls-5" d="M0,0H1.792"/>
    </g>
    <g id="그룹_180" data-name="그룹 180" transform="translate(49.438 7.077)">
      <path id="패스_301" data-name="패스 301" class="cls-5" d="M0,0V-1.792"/>
    </g>
    <g id="그룹_181" data-name="그룹 181" transform="translate(52.976 3.538)">
      <path id="패스_302" data-name="패스 302" class="cls-5" d="M0,0H-1.792"/>
    </g>
    <g id="그룹_182" data-name="그룹 182" transform="translate(3.538 41.923)">
      <path id="패스_303" data-name="패스 303" class="cls-5" d="M0,0V1.792"/>
    </g>
    <g id="그룹_183" data-name="그룹 183" transform="translate(0 45.462)">
      <path id="패스_304" data-name="패스 304" class="cls-5" d="M0,0H1.792"/>
    </g>
    <g id="그룹_184" data-name="그룹 184" transform="translate(3.538 49)">
      <path id="패스_305" data-name="패스 305" class="cls-5" d="M0,0V-1.792"/>
    </g>
    <g id="그룹_185" data-name="그룹 185" transform="translate(7.077 45.462)">
      <path id="패스_306" data-name="패스 306" class="cls-5" d="M0,0H-1.792"/>
    </g>
  </g>
</svg>
