<svg xmlns="http://www.w3.org/2000/svg" width="836.256" height="286.134" viewBox="0 0 836.256 286.134">
  <defs>
    <style>
      .cls-1 {
        fill: #fafafb;
      }

      .cls-13, .cls-2 {
        fill: #1e2323;
      }

      .cls-2 {
        font-size: 14px;
        font-family: NotoSansKR-Light, Noto Sans KR;
        font-weight: 300;
      }

      .cls-3 {
        letter-spacing: -0.032em;
      }

      .cls-4 {
        letter-spacing: -0.014em;
      }

      .cls-5 {
        letter-spacing: -0.007em;
      }

      .cls-6 {
        letter-spacing: -0.029em;
      }

      .cls-7 {
        letter-spacing: -0.015em;
      }

      .cls-8 {
        letter-spacing: -0.027em;
      }

      .cls-9 {
        letter-spacing: -0.037em;
      }

      .cls-10 {
        letter-spacing: -0.042em;
      }

      .cls-11 {
        letter-spacing: -0.025em;
      }

      .cls-12, .cls-18, .cls-19, .cls-24, .cls-26, .cls-27, .cls-28, .cls-29 {
        fill: none;
      }

      .cls-12 {
        stroke: #1f4a8c;
      }

      .cls-12, .cls-19, .cls-24, .cls-26, .cls-27, .cls-28, .cls-29 {
        stroke-width: 0.5px;
      }

      .cls-13, .cls-25 {
        font-size: 15px;
      }

      .cls-13 {
        font-family: NotoSansKR-Regular, Noto Sans KR;
      }

      .cls-14 {
        letter-spacing: -0.02em;
      }

      .cls-15 {
        letter-spacing: -0.024em;
      }

      .cls-16 {
        fill: #f5f6f7;
      }

      .cls-17 {
        letter-spacing: -0.019em;
      }

      .cls-18, .cls-19, .cls-28, .cls-29 {
        stroke: #000;
      }

      .cls-18 {
        stroke-width: 0.283px;
      }

      .cls-20 {
        fill: #1f4a8c;
      }

      .cls-21 {
        fill: #1394d1;
      }

      .cls-22 {
        fill: #91c9e0;
      }

      .cls-23 {
        fill: #fff;
      }

      .cls-24 {
        stroke: #313d72;
      }

      .cls-25 {
        fill: #313d72;
        font-family: NotoSansKR-Medium, Noto Sans KR;
        font-weight: 500;
      }

      .cls-26, .cls-27 {
        stroke: #3e3a39;
      }

      .cls-26, .cls-27, .cls-28, .cls-29 {
        stroke-linecap: round;
        stroke-linejoin: round;
      }

      .cls-26 {
        stroke-dasharray: 0 1.501;
      }

      .cls-28 {
        stroke-dasharray: 0 1.495;
      }
    </style>
  </defs>
  <g id="구성_요소_17_1" data-name="구성 요소 17 – 1" transform="translate(0.25)">
    <rect id="사각형_119" data-name="사각형 119" class="cls-1" width="705.733" height="142.916" transform="translate(130.273)"/>
    <text id="KOLAS" class="cls-2" transform="translate(142.508 43.267)"><tspan class="cls-3" x="0" y="0">K</tspan><tspan class="cls-4" y="0">O</tspan><tspan class="cls-5" y="0">L</tspan><tspan class="cls-4" y="0">A</tspan><tspan y="0">S</tspan></text>
    <text id="KC제조자" class="cls-2" transform="translate(206.39 33.271)"><tspan class="cls-3" x="0" y="0">K</tspan><tspan class="cls-4" y="0">C</tspan><tspan class="cls-4" y="0">제조</tspan><tspan y="0">자</tspan></text>
    <text id="시험소" class="cls-2" transform="translate(214.804 53.277)"><tspan class="cls-4" x="0" y="0">시험</tspan><tspan y="0">소</tspan></text>
    <text id="KTL_CIF_" data-name="KTL CIF " class="cls-2" transform="translate(281.206 33.271)"><tspan class="cls-6" x="0" y="0">K</tspan><tspan class="cls-7" y="0">T</tspan><tspan class="cls-4" y="0">L CI</tspan><tspan y="0">F </tspan></text>
    <text id="tv3_" data-name="tv3 " class="cls-2" transform="translate(295.122 53.277)"><tspan class="cls-4" x="0" y="0">tv</tspan><tspan y="0">3 </tspan></text>
    <text id="UL_" data-name="UL " class="cls-2" transform="translate(366.689 33.271)"><tspan class="cls-4" x="0" y="0">U</tspan><tspan y="0">L </tspan></text>
    <text id="WLIDP" class="cls-2" transform="translate(355.056 53.277)"><tspan class="cls-4" x="0" y="0">WLID</tspan><tspan y="0">P</tspan></text>
    <text id="I" class="cls-2" transform="translate(414.976 33.271)"><tspan x="0" y="0">I</tspan></text>
    <text id="NTERTEK_" data-name="NTERTEK " class="cls-2" transform="translate(418.574 33.271)"><tspan class="cls-4" x="0" y="0">NTE</tspan><tspan class="cls-8" y="0">R</tspan><tspan class="cls-7" y="0">T</tspan><tspan class="cls-4" y="0">E</tspan><tspan y="0">K </tspan></text>
    <text id="_" data-name="" class="cls-2" transform="translate(480.16 33.271)"><tspan x="0" y="0"></tspan></text>
    <text id="satellite_2_" data-name="satellite 2 " class="cls-2" transform="translate(416.446 53.277)"><tspan class="cls-7" x="0" y="0">s</tspan><tspan class="cls-8" y="0">at</tspan><tspan class="cls-4" y="0">e</tspan><tspan class="cls-7" y="0">ll</tspan><tspan class="cls-4" y="0">i</tspan><tspan class="cls-8" y="0">t</tspan><tspan class="cls-7" y="0">e </tspan><tspan y="0">2 </tspan></text>
    <text id="NEMKO_" data-name="NEMKO " class="cls-2" transform="translate(493.082 33.271)"><tspan class="cls-4" x="0" y="0">NEM</tspan><tspan class="cls-3" y="0">K</tspan><tspan y="0">O </tspan></text>
    <text id="CTF_2_" data-name="CTF 2 " class="cls-2" transform="translate(499.116 53.277)"><tspan class="cls-9" x="0" y="0">C</tspan><tspan class="cls-4" y="0">TF</tspan><tspan class="cls-7" y="0"> </tspan><tspan y="0">2 </tspan></text>
    <text id="IEC_61770_" data-name="IEC 61770 " class="cls-2" transform="translate(557.118 43.281)"><tspan class="cls-4" x="0" y="0">IEC</tspan><tspan class="cls-10" y="0"> </tspan><tspan class="cls-4" y="0">6177</tspan><tspan y="0">0 </tspan></text>
    <text id="CQC_" data-name="CQC " class="cls-2" transform="translate(644.24 33.285)"><tspan class="cls-10" x="0" y="0">C</tspan><tspan class="cls-7" y="0">Q</tspan><tspan y="0">C </tspan></text>
    <text id="WMT" class="cls-2" transform="translate(642.322 53.292)"><tspan class="cls-4" x="0" y="0">WM</tspan><tspan y="0">T</tspan></text>
    <text id="CVC_WMT" data-name="CVC WMT" class="cls-2" transform="translate(698.868 43.295)"><tspan class="cls-4" x="0" y="0">C</tspan><tspan class="cls-11" y="0">V</tspan><tspan class="cls-4" y="0">C</tspan><tspan class="cls-7" y="0"> </tspan><tspan class="cls-4" y="0">WM</tspan><tspan y="0">T</tspan></text>
    <text id="N" class="cls-2" transform="translate(775.616 33.299)"><tspan x="0" y="0">N</tspan></text>
    <text id="EMKO_" data-name="EMKO " class="cls-2" transform="translate(785.304 33.299)"><tspan class="cls-4" x="0" y="0">EM</tspan><tspan class="cls-3" y="0">K</tspan><tspan y="0">O </tspan></text>
    <text id="EMC_TBM" data-name="EMC TBM" class="cls-2" transform="translate(769.652 53.305)"><tspan class="cls-4" x="0" y="0">EMC</tspan><tspan class="cls-7" y="0"> </tspan><tspan class="cls-4" y="0">T</tspan><tspan class="cls-7" y="0">B</tspan><tspan y="0">M</tspan></text>
    <text id="국제" class="cls-2" transform="translate(150.516 113.057)"><tspan class="cls-4" x="0" y="0">국</tspan><tspan y="0">제</tspan></text>
    <text id="국내" class="cls-2" transform="translate(221.146 113.057)"><tspan class="cls-4" x="0" y="0">국</tspan><tspan y="0">내</tspan></text>
    <text id="국제_CB_" data-name="국제(CB)" class="cls-2" transform="translate(278.924 113.057)"><tspan class="cls-4" x="0" y="0">국제(</tspan><tspan class="cls-4" y="0">C</tspan><tspan class="cls-7" y="0">B</tspan><tspan y="0">)</tspan></text>
    <text id="북미" class="cls-2" transform="translate(362.42 113.057)"><tspan class="cls-7" x="0" y="0">북</tspan><tspan y="0">미</tspan></text>
    <text id="북미-2" data-name="북미" class="cls-2" transform="translate(433.05 113.057)"><tspan class="cls-4" x="0" y="0">북</tspan><tspan y="0">미</tspan></text>
    <text id="유럽" class="cls-2" transform="translate(503.68 113.057)"><tspan class="cls-7" x="0" y="0">유</tspan><tspan y="0">럽</tspan></text>
    <text id="국제_" data-name="국제 " class="cls-2" transform="translate(574.311 103.061)"><tspan class="cls-4" x="0" y="0">국</tspan><tspan y="0">제 </tspan></text>
    <text id="_2" data-name="" class="cls-2" transform="translate(603.36 103.061)"><tspan x="0" y="0"></tspan></text>
    <text id="_수배관_" data-name="(수배관)" class="cls-2" transform="translate(563.796 123.067)"><tspan class="cls-7" x="0" y="0">(</tspan><tspan class="cls-4" y="0">수</tspan><tspan class="cls-7" y="0">배</tspan><tspan class="cls-4" y="0">관</tspan><tspan y="0">)</tspan></text>
    <text id="중국" class="cls-2" transform="translate(644.954 113.071)"><tspan class="cls-4" x="0" y="0">중</tspan><tspan y="0">국</tspan></text>
    <text id="중국-2" data-name="중국" class="cls-2" transform="translate(715.584 113.071)"><tspan class="cls-7" x="0" y="0">중</tspan><tspan y="0">국</tspan></text>
    <text id="유럽-2" data-name="유럽" class="cls-2" transform="translate(786.214 113.071)"><tspan class="cls-4" x="0" y="0">유</tspan><tspan y="0">럽</tspan></text>
    <path id="패스_185" data-name="패스 185" class="cls-12" d="M3088.625,5193.635h-10v82.713h10" transform="translate(-2958.494 -5170.764)"/>
    <text id="_10개_시험소_운영" data-name="10개 시험소 운영" class="cls-13" transform="translate(0.006 113.133)"><tspan class="cls-14" x="0" y="0">10개</tspan><tspan class="cls-15" y="0"> </tspan><tspan class="cls-14" y="0">시험소</tspan><tspan class="cls-15" y="0"> </tspan><tspan class="cls-14" y="0">운</tspan><tspan y="0">영</tspan></text>
    <rect id="사각형_120" data-name="사각형 120" class="cls-16" width="274.577" height="65" transform="translate(128.429 180.511)"/>
    <text id="대기전력" class="cls-2" transform="translate(135.484 219.173)"><tspan class="cls-4" x="0" y="0">대기전</tspan><tspan y="0">력</tspan></text>
    <text id="ERP" class="cls-2" transform="translate(218.588 219.173)"><tspan class="cls-4" x="0" y="0">ER</tspan><tspan y="0">P</tspan></text>
    <text id="_3" data-name=" " class="cls-2" transform="translate(243.27 219.173)"><tspan x="0" y="0"> </tspan></text>
    <text id="국내-2" data-name="국내" class="cls-2" transform="translate(287.734 219.635)"><tspan class="cls-4" x="0" y="0">국</tspan><tspan y="0">내</tspan></text>
    <text id="유럽-3" data-name="유럽" class="cls-2" transform="translate(357.734 219.635)"><tspan class="cls-7" x="0" y="0">유</tspan><tspan y="0">럽</tspan></text>
    <text id="_2개_시험소_운영" data-name="2개 시험소 운영" class="cls-13" transform="translate(4.188 260.54)"><tspan class="cls-14" x="0" y="0">2개 시험소 운</tspan><tspan y="0">영</tspan></text>
    <text id="_1개_시험소_운영" data-name="1개 시험소 운영" class="cls-13" transform="translate(438.947 259.009)"><tspan class="cls-14" x="0" y="0">1</tspan><tspan class="cls-17" y="0">개</tspan><tspan class="cls-14" y="0" xml:space="preserve"> 시험</tspan><tspan class="cls-17" y="0">소</tspan><tspan class="cls-14" y="0" xml:space="preserve"> 운</tspan><tspan y="0">영</tspan></text>
    <text id="전기안전_172건" data-name="전기안전 172건" class="cls-13" transform="translate(3.197 133.73)"><tspan class="cls-14" x="0" y="0">전기안전 172</tspan><tspan y="0">건</tspan></text>
    <text id="환경_40건" data-name="환경 40건" class="cls-13" transform="translate(20.958 281.134)"><tspan class="cls-14" x="0" y="0">환경 40</tspan><tspan y="0">건</tspan></text>
    <text id="에너지_92건" data-name="에너지 92건" class="cls-13" transform="translate(453.438 278)"><tspan class="cls-14" x="0" y="0">에</tspan><tspan class="cls-17" y="0">너</tspan><tspan class="cls-14" y="0">지 9</tspan><tspan class="cls-17" y="0">2</tspan><tspan y="0">건</tspan></text>
    <line id="선_410" data-name="선 410" class="cls-18" x2="14.875" transform="translate(105.006 64.013)"/>
    <line id="선_411" data-name="선 411" class="cls-18" x2="23.423" transform="translate(105.006 213.247)"/>
    <line id="선_412" data-name="선 412" class="cls-19" x2="23.423" transform="translate(542.016 210.865)"/>
    <rect id="사각형_121" data-name="사각형 121" class="cls-20" width="103.015" height="40.353" transform="translate(6.247 46.254)"/>
    <rect id="사각형_122" data-name="사각형 122" class="cls-21" width="103.015" height="40.48" transform="translate(6.247 194.334)"/>
    <rect id="사각형_123" data-name="사각형 123" class="cls-22" width="103.015" height="40.48" transform="translate(441.001 194.334)"/>
    <rect id="사각형_124" data-name="사각형 124" class="cls-23" width="102.645" height="37.042" transform="translate(0 46.505)"/>
    <rect id="사각형_125" data-name="사각형 125" class="cls-24" width="102.645" height="37.042" transform="translate(0 46.505)"/>
    <rect id="사각형_126" data-name="사각형 126" class="cls-23" width="102.645" height="37.042" transform="translate(0 194.585)"/>
    <rect id="사각형_127" data-name="사각형 127" class="cls-24" width="102.645" height="37.042" transform="translate(0 194.585)"/>
    <rect id="사각형_128" data-name="사각형 128" class="cls-23" width="102.645" height="37.042" transform="translate(434.754 194.585)"/>
    <rect id="사각형_129" data-name="사각형 129" class="cls-24" width="102.645" height="37.042" transform="translate(434.754 194.585)"/>
    <text id="안정성" class="cls-25" transform="translate(30.922 70.472)"><tspan class="cls-14" x="0" y="0">안정</tspan><tspan y="0">성</tspan></text>
    <text id="환경" class="cls-25" transform="translate(37.672 218.551)"><tspan class="cls-14" x="0" y="0">환</tspan><tspan y="0">경</tspan></text>
    <text id="에너지" class="cls-25" transform="translate(465.683 218.551)"><tspan class="cls-14" x="0" y="0">에</tspan><tspan class="cls-17" y="0">너</tspan><tspan y="0">지</tspan></text>
    <rect id="사각형_130" data-name="사각형 130" class="cls-16" width="132.685" height="65" transform="translate(565.689 180.603)"/>
    <text id="에너지_" data-name="에너지 " class="cls-2" transform="translate(579.079 209.265)"><tspan class="cls-7" x="0" y="0">에</tspan><tspan class="cls-4" y="0">너</tspan><tspan y="0">지 </tspan></text>
    <text id="_4" data-name="" class="cls-2" transform="translate(620.799 209.265)"><tspan x="0" y="0"></tspan></text>
    <text id="효율" class="cls-2" transform="translate(585.421 229.271)"><tspan class="cls-4" x="0" y="0">효</tspan><tspan y="0">율</tspan></text>
    <text id="국내-3" data-name="국내" class="cls-2" transform="translate(655.603 219.275)"><tspan class="cls-7" x="0" y="0">국</tspan><tspan y="0">내</tspan></text>
    <line id="선_413" data-name="선 413" class="cls-26" x2="683.624" transform="translate(141.632 71.458)"/>
    <path id="패스_186" data-name="패스 186" class="cls-27" d="M3784.5,5242.222h0m-685.875,0h0" transform="translate(-2958.494 -5170.764)"/>
    <line id="선_414" data-name="선 414" class="cls-28" y2="41.114" transform="translate(198.592 16.924)"/>
    <path id="패스_187" data-name="패스 187" class="cls-29" d="M3157.086,5229.55h0m0-43.357h0" transform="translate(-2958.494 -5170.764)"/>
    <line id="선_415" data-name="선 415" class="cls-28" y2="41.114" transform="translate(198.592 86.682)"/>
    <path id="패스_188" data-name="패스 188" class="cls-29" d="M3157.086,5299.307h0m0-43.356h0" transform="translate(-2958.494 -5170.764)"/>
    <line id="선_416" data-name="선 416" class="cls-28" y2="41.114" transform="translate(198.592 192.83)"/>
    <path id="패스_189" data-name="패스 189" class="cls-29" d="M3157.086,5405.455h0m0-43.356h0" transform="translate(-2958.494 -5170.764)"/>
    <line id="선_417" data-name="선 417" class="cls-28" y2="41.114" transform="translate(269.224 86.682)"/>
    <path id="패스_190" data-name="패스 190" class="cls-29" d="M3227.718,5299.307h0m0-43.356h0" transform="translate(-2958.494 -5170.764)"/>
    <line id="선_418" data-name="선 418" class="cls-28" y2="41.114" transform="translate(269.224 192.83)"/>
    <path id="패스_191" data-name="패스 191" class="cls-29" d="M3227.718,5405.455h0m0-43.356h0" transform="translate(-2958.494 -5170.764)"/>
    <line id="선_419" data-name="선 419" class="cls-28" y2="41.114" transform="translate(339.855 86.682)"/>
    <path id="패스_192" data-name="패스 192" class="cls-29" d="M3298.35,5299.307h0m0-43.356h0" transform="translate(-2958.494 -5170.764)"/>
    <line id="선_420" data-name="선 420" class="cls-28" y2="41.114" transform="translate(339.855 192.83)"/>
    <path id="패스_193" data-name="패스 193" class="cls-29" d="M3298.35,5405.455h0m0-43.356h0" transform="translate(-2958.494 -5170.764)"/>
    <line id="선_421" data-name="선 421" class="cls-28" y2="41.114" transform="translate(410.487 86.682)"/>
    <path id="패스_194" data-name="패스 194" class="cls-29" d="M3368.981,5299.307h0m0-43.356h0" transform="translate(-2958.494 -5170.764)"/>
    <line id="선_422" data-name="선 422" class="cls-28" y2="41.114" transform="translate(481.119 86.682)"/>
    <path id="패스_195" data-name="패스 195" class="cls-29" d="M3439.613,5299.307h0m0-43.356h0" transform="translate(-2958.494 -5170.764)"/>
    <line id="선_423" data-name="선 423" class="cls-28" y2="41.114" transform="translate(551.75 86.682)"/>
    <path id="패스_196" data-name="패스 196" class="cls-29" d="M3510.245,5299.307h0m0-43.356h0" transform="translate(-2958.494 -5170.764)"/>
    <line id="선_424" data-name="선 424" class="cls-28" y2="41.114" transform="translate(622.382 86.682)"/>
    <path id="패스_197" data-name="패스 197" class="cls-29" d="M3580.876,5299.307h0m0-43.356h0" transform="translate(-2958.494 -5170.764)"/>
    <line id="선_425" data-name="선 425" class="cls-28" y2="41.114" transform="translate(632.297 193.297)"/>
    <path id="패스_198" data-name="패스 198" class="cls-29" d="M3590.791,5405.922h0m0-43.356h0" transform="translate(-2958.494 -5170.764)"/>
    <line id="선_426" data-name="선 426" class="cls-28" y2="41.114" transform="translate(693.014 86.682)"/>
    <path id="패스_199" data-name="패스 199" class="cls-29" d="M3651.508,5299.307h0m0-43.356h0" transform="translate(-2958.494 -5170.764)"/>
    <line id="선_427" data-name="선 427" class="cls-28" y2="41.114" transform="translate(763.646 86.682)"/>
    <path id="패스_200" data-name="패스 200" class="cls-29" d="M3722.14,5299.307h0m0-43.356h0" transform="translate(-2958.494 -5170.764)"/>
    <line id="선_428" data-name="선 428" class="cls-28" y2="41.114" transform="translate(269.224 16.924)"/>
    <path id="패스_201" data-name="패스 201" class="cls-29" d="M3227.718,5229.55h0m0-43.357h0" transform="translate(-2958.494 -5170.764)"/>
    <line id="선_429" data-name="선 429" class="cls-28" y2="41.114" transform="translate(339.855 16.924)"/>
    <path id="패스_202" data-name="패스 202" class="cls-29" d="M3298.35,5229.55h0m0-43.357h0" transform="translate(-2958.494 -5170.764)"/>
    <line id="선_430" data-name="선 430" class="cls-28" y2="41.114" transform="translate(410.487 16.924)"/>
    <path id="패스_203" data-name="패스 203" class="cls-29" d="M3368.981,5229.55h0m0-43.357h0" transform="translate(-2958.494 -5170.764)"/>
    <line id="선_431" data-name="선 431" class="cls-28" y2="41.114" transform="translate(481.119 16.924)"/>
    <path id="패스_204" data-name="패스 204" class="cls-29" d="M3439.613,5229.55h0m0-43.357h0" transform="translate(-2958.494 -5170.764)"/>
    <line id="선_432" data-name="선 432" class="cls-28" y2="41.114" transform="translate(551.75 16.924)"/>
    <path id="패스_205" data-name="패스 205" class="cls-29" d="M3510.245,5229.55h0m0-43.357h0" transform="translate(-2958.494 -5170.764)"/>
    <line id="선_433" data-name="선 433" class="cls-28" y2="41.114" transform="translate(622.382 16.924)"/>
    <path id="패스_206" data-name="패스 206" class="cls-29" d="M3580.876,5229.55h0m0-43.357h0" transform="translate(-2958.494 -5170.764)"/>
    <line id="선_434" data-name="선 434" class="cls-28" y2="41.114" transform="translate(693.014 16.924)"/>
    <path id="패스_207" data-name="패스 207" class="cls-29" d="M3651.508,5229.55h0m0-43.357h0" transform="translate(-2958.494 -5170.764)"/>
    <line id="선_435" data-name="선 435" class="cls-28" y2="41.114" transform="translate(763.646 16.924)"/>
    <path id="패스_208" data-name="패스 208" class="cls-29" d="M3722.14,5229.55h0m0-43.357h0" transform="translate(-2958.494 -5170.764)"/>
  </g>
</svg>
