<svg id="구성_요소_18_1" data-name="구성 요소 18 – 1" xmlns="http://www.w3.org/2000/svg" width="836" height="355.5" viewBox="0 0 836 355.5">
  <defs>
    <style>
      .cls-1 {
        fill: #f5f6f7;
      }

      .cls-2 {
        fill: #e0e0e0;
      }

      .cls-14, .cls-3 {
        fill: #1f4a8c;
      }

      .cls-11, .cls-3 {
        font-size: 15px;
        font-family: NotoSansKR-Medium, Noto Sans KR;
        font-weight: 500;
      }

      .cls-4 {
        letter-spacing: -0.02em;
      }

      .cls-5 {
        letter-spacing: -0.019em;
      }

      .cls-10, .cls-15, .cls-6, .cls-7 {
        fill: none;
      }

      .cls-6, .cls-7 {
        stroke: #828282;
        stroke-linecap: round;
        stroke-linejoin: round;
        stroke-width: 2px;
      }

      .cls-6 {
        stroke-dasharray: 0 6.012;
      }

      .cls-8 {
        fill: #241714;
      }

      .cls-9 {
        fill: #fff;
      }

      .cls-10 {
        stroke: #241714;
        stroke-miterlimit: 10;
      }

      .cls-11, .cls-12, .cls-13 {
        fill: #1e2323;
      }

      .cls-12 {
        font-size: 13px;
        font-family: NotoSansKR-Regular, Noto Sans KR;
      }

      .cls-15 {
        stroke: #1f4a8c;
        stroke-width: 0.5px;
      }

      .cls-16 {
        fill: #1394d1;
      }

      .cls-17 {
        fill: #91c9e0;
      }
    </style>
  </defs>
  <rect id="사각형_115" data-name="사각형 115" class="cls-1" width="836" height="355.5"/>
  <rect id="사각형_116" data-name="사각형 116" class="cls-2" width="118.472" height="77.1" transform="translate(73.092 196.04)"/>
  <rect id="사각형_117" data-name="사각형 117" class="cls-2" width="118.472" height="77.1" transform="translate(637.114 190.244)"/>
  <rect id="사각형_118" data-name="사각형 118" class="cls-2" width="166.472" height="60.226" transform="translate(334.2 268.834)"/>
  <text id="차별화된_" data-name="차별화된 " class="cls-3" transform="translate(389.526 110.39)"><tspan class="cls-4" x="0" y="0">차별</tspan><tspan class="cls-5" y="0">화</tspan><tspan y="0">된 </tspan></text>
  <text id="_" data-name=" " class="cls-3" transform="translate(447.426 110.39)"><tspan x="0" y="0"> </tspan></text>
  <text id="제품_위생_관리_" data-name="제품 위생 관리 " class="cls-3" transform="translate(372.126 133.385)"><tspan class="cls-4" x="0" y="0">제</tspan><tspan class="cls-5" y="0">품</tspan><tspan class="cls-4" y="0" xml:space="preserve"> 위생 </tspan><tspan class="cls-5" y="0">관</tspan><tspan y="0">리 </tspan></text>
  <text id="_2" data-name=" " class="cls-3" transform="translate(464.826 133.385)"><tspan x="0" y="0"> </tspan></text>
  <text id="강화" class="cls-3" transform="translate(403.026 156.38)"><tspan class="cls-4" x="0" y="0">강</tspan><tspan y="0">화</tspan></text>
  <g id="그룹_54" data-name="그룹 54" transform="translate(-2958.75 -5761.862)">
    <path id="패스_149" data-name="패스 149" class="cls-6" d="M3215.817,5814.013c3.086,85.539,71.759,154.125,156.6,155.711"/>
    <path id="패스_150" data-name="패스 150" class="cls-6" d="M3381.437,5969.64c84.441-3.164,152.133-72.716,153.679-158.632"/>
    <path id="패스_151" data-name="패스 151" class="cls-7" d="M3535.143,5808h0m-159.717,161.75h0M3215.709,5808h0"/>
    <path id="패스_152" data-name="패스 152" class="cls-8" d="M3366.8,5822.1c0-9.732-18.269-31.533-18.269-31.533s-18.267,21.8-18.267,31.533,8.178,17.623,18.267,17.623,18.269-7.891,18.269-17.623m-11.557-9.259c2.4,4.064,3.967,7.483,3.967,9.259a10.507,10.507,0,0,1-10.679,10.3"/>
    <path id="패스_153" data-name="패스 153" class="cls-9" d="M3347.879,5831.939a13.066,13.066,0,1,0-13.565-13.057,13.318,13.318,0,0,0,13.565,13.057"/>
    <path id="패스_154" data-name="패스 154" class="cls-9" d="M3363.705,5820.182c0-9.664-18.143-31.311-18.143-31.311s-18.141,21.647-18.141,31.311,8.123,17.5,18.141,17.5,18.143-7.834,18.143-17.5m-11.476-9.194c2.383,4.035,3.938,7.43,3.938,9.194a10.434,10.434,0,0,1-10.6,10.23"/>
    <path id="패스_155" data-name="패스 155" class="cls-10" d="M3363.569,5820.171c0-9.595-18.007-31.089-18.007-31.089s-18.006,21.494-18.006,31.089,8.063,17.374,18.006,17.374S3363.569,5829.766,3363.569,5820.171Zm-11.39-9.129c2.365,4.006,3.909,7.377,3.909,9.129a10.358,10.358,0,0,1-10.526,10.156"/>
    <path id="패스_156" data-name="패스 156" class="cls-8" d="M3397.578,5822.1c0-9.732-18.269-31.533-18.269-31.533s-18.267,21.8-18.267,31.533,8.178,17.623,18.267,17.623,18.269-7.891,18.269-17.623m-11.557-9.259c2.4,4.064,3.967,7.483,3.967,9.259a10.507,10.507,0,0,1-10.679,10.3"/>
    <path id="패스_157" data-name="패스 157" class="cls-9" d="M3378.658,5831.939a13.066,13.066,0,1,0-13.565-13.057,13.318,13.318,0,0,0,13.565,13.057"/>
    <path id="패스_158" data-name="패스 158" class="cls-9" d="M3394.484,5820.182c0-9.664-18.143-31.311-18.143-31.311s-18.141,21.647-18.141,31.311,8.123,17.5,18.141,17.5,18.143-7.834,18.143-17.5m-11.476-9.194c2.383,4.035,3.938,7.43,3.938,9.194a10.434,10.434,0,0,1-10.6,10.23"/>
    <path id="패스_159" data-name="패스 159" class="cls-10" d="M3394.348,5820.171c0-9.595-18.007-31.089-18.007-31.089s-18.006,21.494-18.006,31.089,8.063,17.374,18.006,17.374S3394.348,5829.766,3394.348,5820.171Zm-11.39-9.129c2.365,4.006,3.909,7.377,3.909,9.129a10.358,10.358,0,0,1-10.526,10.156"/>
    <path id="패스_160" data-name="패스 160" class="cls-8" d="M3423.795,5822.1c0-9.732-18.269-31.533-18.269-31.533s-18.267,21.8-18.267,31.533,8.178,17.623,18.267,17.623,18.269-7.891,18.269-17.623m-11.557-9.259c2.4,4.064,3.967,7.483,3.967,9.259a10.508,10.508,0,0,1-10.679,10.3"/>
    <path id="패스_161" data-name="패스 161" class="cls-9" d="M3404.875,5831.939a13.066,13.066,0,1,0-13.565-13.057,13.318,13.318,0,0,0,13.565,13.057"/>
    <path id="패스_162" data-name="패스 162" class="cls-9" d="M3420.7,5820.182c0-9.664-18.143-31.311-18.143-31.311s-18.141,21.647-18.141,31.311,8.123,17.5,18.141,17.5,18.143-7.834,18.143-17.5m-11.476-9.194c2.383,4.035,3.938,7.43,3.938,9.194a10.434,10.434,0,0,1-10.6,10.23"/>
    <path id="패스_163" data-name="패스 163" class="cls-10" d="M3420.565,5820.171c0-9.595-18.007-31.089-18.007-31.089s-18.006,21.494-18.006,31.089,8.063,17.374,18.006,17.374S3420.565,5829.766,3420.565,5820.171Zm-11.39-9.129c2.365,4.006,3.909,7.377,3.909,9.129a10.358,10.358,0,0,1-10.526,10.156"/>
  </g>
  <text id="제품설계" class="cls-11" transform="translate(105.235 215.927)"><tspan class="cls-4" x="0" y="0">제품설</tspan><tspan y="0">계</tspan></text>
  <text id="제품_모듈_설계_및_" data-name="제품 모듈 설계 및 " class="cls-12" transform="translate(86.235 247.927)"><tspan class="cls-4" x="0" y="0">제품 모듈 설계 </tspan><tspan y="0">및 </tspan></text>
  <text id="_3" data-name=" " class="cls-12" transform="translate(181.655 247.927)"><tspan x="0" y="0"> </tspan></text>
  <text id="위생_기능_적용" data-name="위생 기능 적용" class="cls-12" transform="translate(93.775 264.931)"><tspan class="cls-4" x="0" y="0">위생 기능 적</tspan><tspan y="0">용</tspan></text>
  <text id="제품소재" class="cls-11" transform="translate(390.286 287.784)"><tspan class="cls-4" x="0" y="0">제품</tspan><tspan class="cls-5" y="0">소</tspan><tspan y="0">재</tspan></text>
  <text id="안전성_강화_신소재_개발" data-name="안전성 강화 신소재 개발" class="cls-12" transform="translate(353.736 314.784)"><tspan class="cls-4" x="0" y="0">안전성</tspan><tspan class="cls-5" y="0"> </tspan><tspan class="cls-4" y="0">강화</tspan><tspan class="cls-5" y="0"> </tspan><tspan class="cls-4" y="0">신소재 개</tspan><tspan y="0">발</tspan></text>
  <text id="관리서비스" class="cls-11" transform="translate(662.429 210.894)"><tspan class="cls-4" x="0" y="0">관</tspan><tspan class="cls-5" y="0">리</tspan><tspan class="cls-4" y="0">서비</tspan><tspan y="0">스</tspan></text>
  <text id="안전_및_위생_" data-name="안전 및 위생 " class="cls-12" transform="translate(663.569 237.894)"><tspan class="cls-4" x="0" y="0">안전 및 위</tspan><tspan y="0">생 </tspan></text>
  <text id="_4" data-name=" " class="cls-12" transform="translate(732.209 237.894)"><tspan x="0" y="0"> </tspan></text>
  <text id="강화_서비스" data-name="강화 서비스" class="cls-12" transform="translate(665.259 254.898)"><tspan class="cls-4" x="0" y="0">강화</tspan><tspan class="cls-5" y="0"> </tspan><tspan class="cls-4" y="0">서비</tspan><tspan y="0">스</tspan></text>
  <g id="그룹_55" data-name="그룹 55" transform="translate(-2958.75 -5761.862)">
    <path id="패스_164" data-name="패스 164" class="cls-13" d="M3238.233,5927.752a27.75,27.75,0,1,0-27.75-27.75,27.75,27.75,0,0,0,27.75,27.75"/>
    <path id="패스_165" data-name="패스 165" class="cls-14" d="M3233.507,5923.025a27.75,27.75,0,1,0-27.75-27.75,27.75,27.75,0,0,0,27.75,27.75"/>
    <path id="패스_166" data-name="패스 166" class="cls-8" d="M3246.282,5900.515c0-6.305-11.745-20.43-11.745-20.43s-11.744,14.125-11.744,20.43a11.749,11.749,0,0,0,23.489,0m-7.43-6c1.544,2.633,2.55,4.848,2.55,6a6.779,6.779,0,0,1-6.865,6.674"/>
    <path id="패스_167" data-name="패스 167" class="cls-9" d="M3234.118,5906.89a8.463,8.463,0,1,0-8.721-8.46,8.592,8.592,0,0,0,8.721,8.46"/>
    <path id="패스_168" data-name="패스 168" class="cls-9" d="M3244.293,5899.273c0-6.261-11.664-20.287-11.664-20.287s-11.663,14.026-11.663,20.287a11.668,11.668,0,0,0,23.327,0m-7.378-5.957c1.532,2.614,2.532,4.814,2.532,5.957a6.733,6.733,0,0,1-6.818,6.627"/>
    <path id="패스_169" data-name="패스 169" class="cls-10" d="M3244.027,5899.253c0-6.127-11.4-19.851-11.4-19.851s-11.4,13.724-11.4,19.851a11.4,11.4,0,0,0,22.8,0Zm-7.21-5.829c1.5,2.558,2.474,4.71,2.474,5.829a6.583,6.583,0,0,1-6.662,6.485"/>
  </g>
  <line id="선_403" data-name="선 403" class="cls-15" x1="53.585" y2="35.301" transform="translate(197.813 155.677)"/>
  <g id="그룹_56" data-name="그룹 56" transform="translate(-2958.75 -5761.862)">
    <path id="패스_170" data-name="패스 170" class="cls-14" d="M3156.632,5954.838a2,2,0,1,0-2.069-1.929,2,2,0,0,0,2.069,1.929"/>
    <path id="패스_171" data-name="패스 171" class="cls-13" d="M3377.789,5997.809a27.75,27.75,0,1,0-27.75-27.75,27.75,27.75,0,0,0,27.75,27.75"/>
    <path id="패스_172" data-name="패스 172" class="cls-16" d="M3373.063,5993.082a27.75,27.75,0,1,0-27.75-27.75,27.75,27.75,0,0,0,27.75,27.75"/>
    <path id="패스_173" data-name="패스 173" class="cls-8" d="M3385.838,5970.571c0-6.3-11.745-20.43-11.745-20.43s-11.744,14.125-11.744,20.43a11.749,11.749,0,0,0,23.489,0m-7.43-6c1.544,2.633,2.55,4.848,2.55,6a6.779,6.779,0,0,1-6.865,6.674"/>
    <path id="패스_174" data-name="패스 174" class="cls-9" d="M3373.675,5976.946a8.463,8.463,0,1,0-8.722-8.46,8.593,8.593,0,0,0,8.722,8.46"/>
    <path id="패스_175" data-name="패스 175" class="cls-9" d="M3383.849,5969.329c0-6.261-11.664-20.287-11.664-20.287s-11.663,14.026-11.663,20.287a11.668,11.668,0,0,0,23.327,0m-7.378-5.957c1.532,2.614,2.532,4.814,2.532,5.957a6.732,6.732,0,0,1-6.818,6.627"/>
    <path id="패스_176" data-name="패스 176" class="cls-10" d="M3383.583,5969.309c0-6.127-11.4-19.851-11.4-19.851s-11.4,13.724-11.4,19.851a11.4,11.4,0,0,0,22.795,0Zm-7.21-5.829c1.5,2.558,2.474,4.71,2.474,5.829a6.583,6.583,0,0,1-6.662,6.485"/>
    <path id="패스_177" data-name="패스 177" class="cls-13" d="M3505.29,5929.352a27.75,27.75,0,1,0-27.75-27.75,27.75,27.75,0,0,0,27.75,27.75"/>
    <path id="패스_178" data-name="패스 178" class="cls-17" d="M3500.563,5924.626a27.75,27.75,0,1,0-27.75-27.75,27.75,27.75,0,0,0,27.75,27.75"/>
    <path id="패스_179" data-name="패스 179" class="cls-8" d="M3513.339,5902.115c0-6.305-11.745-20.43-11.745-20.43s-11.744,14.125-11.744,20.43a11.749,11.749,0,0,0,23.489,0m-7.43-6c1.544,2.633,2.55,4.848,2.55,6a6.779,6.779,0,0,1-6.865,6.674"/>
    <path id="패스_180" data-name="패스 180" class="cls-9" d="M3501.175,5908.49a8.463,8.463,0,1,0-8.721-8.46,8.593,8.593,0,0,0,8.721,8.46"/>
    <path id="패스_181" data-name="패스 181" class="cls-9" d="M3511.349,5900.873c0-6.261-11.664-20.287-11.664-20.287s-11.663,14.026-11.663,20.287a11.668,11.668,0,0,0,23.327,0m-7.378-5.957c1.532,2.614,2.532,4.814,2.532,5.957a6.732,6.732,0,0,1-6.818,6.627"/>
    <path id="패스_182" data-name="패스 182" class="cls-10" d="M3511.084,5900.853c0-6.127-11.4-19.851-11.4-19.851s-11.4,13.724-11.4,19.851a11.4,11.4,0,0,0,22.795,0Zm-7.21-5.829c1.5,2.558,2.474,4.71,2.474,5.829a6.583,6.583,0,0,1-6.662,6.485"/>
  </g>
  <line id="선_404" data-name="선 404" class="cls-15" y2="20" transform="translate(416.676 241.39)"/>
  <g id="그룹_57" data-name="그룹 57" transform="translate(-2958.75 -5761.862)">
    <path id="패스_183" data-name="패스 183" class="cls-14" d="M3375.426,6025.252a2,2,0,1,0-2-2,2,2,0,0,0,2,2"/>
  </g>
  <line id="선_405" data-name="선 405" class="cls-15" x2="53.585" y2="35.301" transform="translate(577.53 148.944)"/>
  <g id="그룹_58" data-name="그룹 58" transform="translate(-2958.75 -5761.862)">
    <path id="패스_184" data-name="패스 184" class="cls-14" d="M3589.8,5948.1a2,2,0,1,1,2.069-1.928,2,2,0,0,1-2.069,1.928"/>
  </g>
  <line id="선_406" data-name="선 406" class="cls-15" y2="76.695" transform="translate(191.564 196.138)"/>
  <line id="선_407" data-name="선 407" class="cls-15" x1="166.549" transform="translate(334.2 268.584)"/>
  <line id="선_408" data-name="선 408" class="cls-15" y1="77.1" transform="translate(637.364 190.244)"/>
</svg>
