<svg id="구성_요소_22_1" data-name="구성 요소 22 – 1" xmlns="http://www.w3.org/2000/svg" width="835.902" height="546.587" viewBox="0 0 835.902 546.587">
  <defs>
    <style>
      .cls-1 {
        fill: #f5f6f7;
      }

      .cls-10, .cls-2 {
        fill: #1f4a8c;
      }

      .cls-3 {
        fill: none;
        stroke: #1f4a8c;
        stroke-width: 0.5px;
      }

      .cls-4, .cls-9 {
        fill: #fff;
      }

      .cls-10, .cls-4 {
        font-size: 15px;
      }

      .cls-10, .cls-16, .cls-4 {
        font-family: NotoSansKR-Regular, Noto Sans KR;
      }

      .cls-5 {
        letter-spacing: -0.019em;
      }

      .cls-6 {
        letter-spacing: -0.02em;
      }

      .cls-7 {
        fill: #1394d1;
      }

      .cls-8 {
        fill: #91c9e0;
      }

      .cls-11 {
        fill: #1e2323;
        font-size: 12px;
      }

      .cls-11, .cls-21 {
        font-family: NotoSansKR-Light, Noto Sans KR;
        font-weight: 300;
      }

      .cls-12 {
        letter-spacing: -0.014em;
      }

      .cls-13 {
        letter-spacing: -0.015em;
      }

      .cls-14 {
        letter-spacing: -0.027em;
      }

      .cls-15 {
        letter-spacing: -0.036em;
      }

      .cls-16 {
        fill: #4b4f50;
        font-size: 13px;
      }

      .cls-17 {
        letter-spacing: -0.042em;
      }

      .cls-18 {
        letter-spacing: -0.039em;
      }

      .cls-19 {
        fill: #5e6366;
      }

      .cls-20 {
        fill: #828585;
      }

      .cls-21 {
        fill: #656464;
        font-size: 11px;
      }

      .cls-22 {
        fill: #4d4d4d;
        font-size: 16px;
        font-family: NotoSansKR-Medium, Noto Sans KR;
        font-weight: 500;
      }
    </style>
  </defs>
  <rect id="사각형_28" data-name="사각형 28" class="cls-1" width="835.902" height="546.587"/>
  <rect id="사각형_29" data-name="사각형 29" class="cls-2" width="247.378" height="36.75" transform="translate(568.858 66.116)"/>
  <rect id="사각형_30" data-name="사각형 30" class="cls-2" width="513.993" height="36.75" transform="translate(26.108 66.116)"/>
  <line id="선_122" data-name="선 122" class="cls-3" y2="143.795" transform="translate(278.705 161.821)"/>
  <rect id="사각형_31" data-name="사각형 31" class="cls-2" width="253.618" height="30" transform="translate(151.891 131.823)"/>
  <text id="CEO" class="cls-4" transform="translate(264.241 152.542)"><tspan class="cls-5" x="0" y="0">C</tspan><tspan class="cls-6" y="0">E</tspan><tspan y="0">O</tspan></text>
  <rect id="사각형_32" data-name="사각형 32" class="cls-7" width="253.618" height="30" transform="translate(151.891 190.278)"/>
  <text id="CISO_CPO_IT센터장" data-name="CISO/CPO IT센터장" class="cls-4" transform="translate(216.099 210.998)"><tspan class="cls-5" x="0" y="0">C</tspan><tspan class="cls-6" y="0">I</tspan><tspan class="cls-5" y="0">SO/CPO</tspan><tspan class="cls-6" y="0" xml:space="preserve"> IT</tspan><tspan class="cls-6" y="0">센터</tspan><tspan y="0">장</tspan></text>
  <rect id="사각형_33" data-name="사각형 33" class="cls-8" width="253.618" height="30" transform="translate(151.891 248.733)"/>
  <text id="정보보호관리자_보안팀장" data-name="정보보호관리자 보안팀장" class="cls-4" transform="translate(202.351 269.454)"><tspan class="cls-6" x="0" y="0">정보보호관리자 보안팀</tspan><tspan y="0">장</tspan></text>
  <rect id="사각형_34" data-name="사각형 34" class="cls-9" width="513.993" height="33.5" transform="translate(20.108 66.366)"/>
  <rect id="사각형_35" data-name="사각형 35" class="cls-3" width="513.993" height="33.5" transform="translate(20.108 66.366)"/>
  <text id="_01._책임_및_담당자" data-name="01. 책임 및 담당자" class="cls-10" transform="translate(220.637 89.163)"><tspan class="cls-6" x="0" y="0">01</tspan><tspan class="cls-5" y="0">.</tspan><tspan class="cls-6" y="0" xml:space="preserve"> 책임 및 담당</tspan><tspan y="0">자</tspan></text>
  <line id="선_123" data-name="선 123" class="cls-3" x2="276.145" transform="translate(278.463 175.116)"/>
  <rect id="사각형_36" data-name="사각형 36" class="cls-8" width="350.795" height="30" transform="translate(174.005 305.745)"/>
  <text id="보안팀" class="cls-4" transform="translate(329.002 327.453)"><tspan class="cls-6" x="0" y="0">보안</tspan><tspan y="0">팀</tspan></text>
  <text id="정보보호_기획_및_" data-name="정보보호 기획 및 " class="cls-11" transform="translate(189.608 368.024)"><tspan class="cls-12" x="0" y="0">정보보호 기획 </tspan><tspan y="0">및 </tspan></text>
  <text id="계획_수립" data-name="계획 수립" class="cls-11" transform="translate(207.488 384.021)"><tspan class="cls-12" x="0" y="0">계획 수</tspan><tspan y="0">립</tspan></text>
  <rect id="사각형_37" data-name="사각형 37" class="cls-3" width="113.266" height="49.5" transform="translate(174.255 345.995)"/>
  <text id="정보보호_사업_" data-name="정보보호 사업 " class="cls-11" transform="translate(315.143 368.024)"><tspan class="cls-12" x="0" y="0">정보보</tspan><tspan class="cls-13" y="0">호</tspan><tspan class="cls-12" y="0" xml:space="preserve"> 사</tspan><tspan y="0">업 </tspan></text>
  <text id="_" data-name="" class="cls-11" transform="translate(386.663 368.024)"><tspan x="0" y="0"></tspan></text>
  <text id="관리_개선_구축_등_" data-name="관리(개선, 구축 등)" class="cls-11" transform="translate(303.119 384.021)"><tspan class="cls-12" x="0" y="0">관리(개선, 구축 </tspan><tspan class="cls-13" y="0">등</tspan><tspan y="0">)</tspan></text>
  <rect id="사각형_38" data-name="사각형 38" class="cls-3" width="113.266" height="49.5" transform="translate(292.77 345.995)"/>
  <text id="ISMS_ISO27001인" data-name="ISMS/ISO27001인" class="cls-11" transform="translate(422.367 368.024)"><tspan class="cls-12" x="0" y="0">ISMS/ISO27001</tspan><tspan y="0">인</tspan></text>
  <text id="증_위험평가" data-name="증, 위험평가" class="cls-11" transform="translate(437.667 384.021)"><tspan class="cls-12" x="0" y="0">증, 위험평</tspan><tspan y="0">가</tspan></text>
  <rect id="사각형_39" data-name="사각형 39" class="cls-3" width="113.266" height="49.5" transform="translate(411.285 345.995)"/>
  <text id="정보보호진단" class="cls-11" transform="translate(316.733 436.024)"><tspan class="cls-12" x="0" y="0">정보보호진</tspan><tspan y="0">단</tspan></text>
  <rect id="사각형_40" data-name="사각형 40" class="cls-3" width="113.266" height="49.5" transform="translate(292.77 405.993)"/>
  <text id="CERT_모의해킹" data-name="CERT, 모의해킹" class="cls-11" transform="translate(192.158 436.024)"><tspan class="cls-12" x="0" y="0">CE</tspan><tspan class="cls-14" y="0">R</tspan><tspan class="cls-12" y="0">T, </tspan><tspan class="cls-12" y="0">모의해</tspan><tspan y="0">킹</tspan></text>
  <rect id="사각형_41" data-name="사각형 41" class="cls-3" width="113.266" height="49.5" transform="translate(174.255 405.993)"/>
  <text id="정보보호_" data-name="정보보호 " class="cls-11" transform="translate(446.108 428.024)"><tspan class="cls-12" x="0" y="0">정보보</tspan><tspan y="0">호 </tspan></text>
  <text id="_2" data-name="" class="cls-11" transform="translate(492.728 428.024)"><tspan x="0" y="0"></tspan></text>
  <text id="시스템_운영" data-name="시스템 운영" class="cls-11" transform="translate(439.087 444.021)"><tspan class="cls-12" x="0" y="0">시스템</tspan><tspan class="cls-13" y="0"> </tspan><tspan class="cls-12" y="0">운</tspan><tspan y="0">영</tspan></text>
  <rect id="사각형_42" data-name="사각형 42" class="cls-3" width="113.266" height="49.5" transform="translate(411.285 405.993)"/>
  <text id="정보보호_라이플_" data-name="정보보호 라이플 " class="cls-11" transform="translate(191.198 488.024)"><tspan class="cls-12" x="0" y="0">정보보호 라이</tspan><tspan y="0">플 </tspan></text>
  <text id="사이클_관리" data-name="사이클 관리" class="cls-11" transform="translate(202.058 504.021)"><tspan class="cls-12" x="0" y="0">사이클 관</tspan><tspan y="0">리</tspan></text>
  <rect id="사각형_43" data-name="사각형 43" class="cls-3" width="113.266" height="49.5" transform="translate(174.255 465.995)"/>
  <text id="공용업무_:_Compliance_검토_" data-name="공용업무 : Compliance 검토, " class="cls-11" transform="translate(336.829 488.024)"><tspan class="cls-12" x="0" y="0">공</tspan><tspan class="cls-13" y="0">용</tspan><tspan class="cls-12" y="0">업</tspan><tspan class="cls-13" y="0">무</tspan><tspan class="cls-12" y="0" xml:space="preserve"> :</tspan><tspan class="cls-13" y="0"> </tspan><tspan class="cls-12" y="0">Comp</tspan><tspan class="cls-13" y="0">l</tspan><tspan class="cls-12" y="0">ian</tspan><tspan class="cls-15" y="0">c</tspan><tspan class="cls-13" y="0">e</tspan><tspan class="cls-12" y="0" xml:space="preserve"> 검토</tspan><tspan y="0">, </tspan></text>
  <text id="_3" data-name="" class="cls-11" transform="translate(483.493 488.024)"><tspan x="0" y="0"></tspan></text>
  <text id="부서_커뮤니케이션" data-name="부서 커뮤니케이션" class="cls-11" transform="translate(363.541 504.021)"><tspan class="cls-12" x="0" y="0">부서 </tspan><tspan class="cls-13" y="0">커</tspan><tspan class="cls-12" y="0">뮤</tspan><tspan class="cls-13" y="0">니</tspan><tspan class="cls-12" y="0">케</tspan><tspan class="cls-13" y="0">이</tspan><tspan y="0">션</tspan></text>
  <rect id="사각형_44" data-name="사각형 44" class="cls-3" width="231.78" height="49.5" transform="translate(292.77 465.995)"/>
  <rect id="사각형_45" data-name="사각형 45" class="cls-8" width="125.271" height="30" transform="translate(19.858 305.745)"/>
  <text id="현업_부서" data-name="현업 부서" class="cls-4" transform="translate(53.394 327.453)"><tspan class="cls-6" x="0" y="0">현업 부</tspan><tspan y="0">서</tspan></text>
  <text id="법무_검토" data-name="법무 검토" class="cls-16" transform="translate(57.273 368.464)"><tspan class="cls-6" x="0" y="0">법무 검</tspan><tspan y="0">토</tspan></text>
  <text id="법무팀" class="cls-11" transform="translate(66.114 384.464)"><tspan class="cls-12" x="0" y="0">법무</tspan><tspan y="0">팀</tspan></text>
  <rect id="사각형_46" data-name="사각형 46" class="cls-3" width="124.771" height="49.5" transform="translate(20.108 345.995)"/>
  <text id="영업현장_진단" data-name="영업현장 진단" class="cls-16" transform="translate(45.574 428.464)"><tspan class="cls-6" x="0" y="0">영업현장 진</tspan><tspan y="0">단</tspan></text>
  <text id="준법경영팀_진단팀" data-name="준법경영팀, 진단팀" class="cls-11" transform="translate(35.958 444.464)"><tspan class="cls-12" x="0" y="0">준법경영팀, 진단</tspan><tspan y="0">팀</tspan></text>
  <rect id="사각형_47" data-name="사각형 47" class="cls-3" width="124.771" height="49.5" transform="translate(20.108 405.995)"/>
  <text id="민원_관리" data-name="민원 관리" class="cls-16" transform="translate(57.273 488.464)"><tspan class="cls-6" x="0" y="0">민원 관</tspan><tspan y="0">리</tspan></text>
  <text id="CCM팀_CS전략팀" data-name="CCM팀, CS전략팀" class="cls-11" transform="translate(38.946 504.464)"><tspan class="cls-17" x="0" y="0">C</tspan><tspan class="cls-12" y="0">CM</tspan><tspan class="cls-12" y="0">팀, </tspan><tspan class="cls-18" y="0">C</tspan><tspan class="cls-12" y="0">S</tspan><tspan class="cls-12" y="0">전략</tspan><tspan y="0">팀</tspan></text>
  <rect id="사각형_48" data-name="사각형 48" class="cls-3" width="124.771" height="49.5" transform="translate(20.108 465.995)"/>
  <rect id="사각형_49" data-name="사각형 49" class="cls-9" width="247.378" height="33.5" transform="translate(562.858 66.366)"/>
  <rect id="사각형_50" data-name="사각형 50" class="cls-3" width="247.378" height="33.5" transform="translate(562.858 66.366)"/>
  <text id="_02._정보보호_위원회" data-name="02. 정보보호 위원회" class="cls-10" transform="translate(620.472 89.163)"><tspan class="cls-6" x="0" y="0">0</tspan><tspan class="cls-5" y="0">2.</tspan><tspan class="cls-6" y="0" xml:space="preserve"> 정</tspan><tspan class="cls-5" y="0">보</tspan><tspan class="cls-6" y="0">보호 </tspan><tspan class="cls-5" y="0">위</tspan><tspan class="cls-6" y="0">원</tspan><tspan y="0">회</tspan></text>
  <line id="선_124" data-name="선 124" class="cls-3" y2="86.912" transform="translate(689.515 161.823)"/>
  <rect id="사각형_51" data-name="사각형 51" class="cls-19" width="248.869" height="30" transform="translate(565.089 131.823)"/>
  <text id="대표이사_CEO_" data-name="대표이사(CEO)" class="cls-4" transform="translate(643.294 152.542)"><tspan class="cls-6" x="0" y="0">대</tspan><tspan class="cls-5" y="0">표</tspan><tspan class="cls-6" y="0">이사(</tspan><tspan class="cls-5" y="0">C</tspan><tspan class="cls-6" y="0">E</tspan><tspan class="cls-5" y="0">O</tspan><tspan y="0">)</tspan></text>
  <rect id="사각형_52" data-name="사각형 52" class="cls-19" width="248.869" height="30" transform="translate(565.089 190.278)"/>
  <text id="정보보호_위원장_CISO_CPO_IT센터장" data-name="정보보호 위원장(CISO/CPO) IT센터장" class="cls-4" transform="translate(572.952 210.998)"><tspan class="cls-6" x="0" y="0">정보</tspan><tspan class="cls-5" y="0">보</tspan><tspan class="cls-6" y="0">호 위</tspan><tspan class="cls-5" y="0">원</tspan><tspan class="cls-6" y="0">장(</tspan><tspan class="cls-5" y="0">C</tspan><tspan class="cls-6" y="0">I</tspan><tspan class="cls-5" y="0">SO/CPO</tspan><tspan class="cls-6" y="0">) IT</tspan><tspan class="cls-6" y="0">센터</tspan><tspan y="0">장</tspan></text>
  <rect id="사각형_53" data-name="사각형 53" class="cls-20" width="248.869" height="30" transform="translate(565.089 258.733)"/>
  <text id="정보보호_위원" data-name="정보보호 위원" class="cls-4" transform="translate(646.924 278.734)"><tspan class="cls-6" x="0" y="0">정</tspan><tspan class="cls-5" y="0">보</tspan><tspan class="cls-6" y="0">보호 위</tspan><tspan y="0">원</tspan></text>
  <text id="관리_본부장_및_팀장" data-name="관리 본부장 및 팀장" class="cls-11" transform="translate(641.224 468.693)"><tspan class="cls-12" x="0" y="0">관리</tspan><tspan class="cls-13" y="0"> </tspan><tspan class="cls-12" y="0">본</tspan><tspan class="cls-13" y="0">부</tspan><tspan class="cls-12" y="0">장</tspan><tspan class="cls-13" y="0"> </tspan><tspan class="cls-12" y="0">및 </tspan><tspan class="cls-13" y="0">팀</tspan><tspan y="0">장</tspan></text>
  <rect id="사각형_54" data-name="사각형 54" class="cls-3" width="248.369" height="42.424" transform="translate(565.339 442.202)"/>
  <text id="환경가전사업" class="cls-11" transform="translate(593.251 365.309)"><tspan class="cls-12" x="0" y="0">환경가전사</tspan><tspan y="0">업</tspan></text>
  <text id="_4" data-name="" class="cls-11" transform="translate(658.591 365.309)"><tspan x="0" y="0"></tspan></text>
  <text id="본부장" class="cls-11" transform="translate(609.536 381.305)"><tspan class="cls-12" x="0" y="0">본부</tspan><tspan y="0">장</tspan></text>
  <rect id="사각형_55" data-name="사각형 55" class="cls-3" width="121.164" height="42.424" transform="translate(565.339 346.817)"/>
  <text id="코스메틱사업" class="cls-11" transform="translate(720.457 365.309)"><tspan class="cls-12" x="0" y="0">코스메틱사</tspan><tspan y="0">업</tspan></text>
  <text id="_5" data-name="" class="cls-11" transform="translate(785.796 365.309)"><tspan x="0" y="0"></tspan></text>
  <text id="본부장-2" data-name="본부장" class="cls-11" transform="translate(736.741 381.305)"><tspan class="cls-12" x="0" y="0">본부</tspan><tspan y="0">장</tspan></text>
  <rect id="사각형_56" data-name="사각형 56" class="cls-3" width="121.164" height="42.424" transform="translate(692.545 346.817)"/>
  <text id="윤리경영실장" class="cls-11" transform="translate(593.251 325.617)"><tspan class="cls-12" x="0" y="0">윤리경영실</tspan><tspan y="0">장</tspan></text>
  <rect id="사각형_57" data-name="사각형 57" class="cls-3" width="121.164" height="42.422" transform="translate(565.339 299.125)"/>
  <text id="마케팅본부장" class="cls-11" transform="translate(720.457 325.617)"><tspan class="cls-12" x="0" y="0">마케팅본부</tspan><tspan y="0">장</tspan></text>
  <rect id="사각형_58" data-name="사각형 58" class="cls-3" width="121.164" height="42.422" transform="translate(692.545 299.125)"/>
  <text id="CS본부장" class="cls-11" transform="translate(602.624 421)"><tspan class="cls-18" x="0" y="0">C</tspan><tspan class="cls-12" y="0">S</tspan><tspan class="cls-12" y="0">본</tspan><tspan class="cls-13" y="0">부</tspan><tspan y="0">장</tspan></text>
  <rect id="사각형_59" data-name="사각형 59" class="cls-3" width="121.164" height="42.422" transform="translate(565.339 394.51)"/>
  <text id="정보보호관리자" class="cls-11" transform="translate(715.026 413.001)"><tspan class="cls-12" x="0" y="0">정보보호관리</tspan><tspan y="0">자</tspan></text>
  <text id="_6" data-name="" class="cls-11" transform="translate(791.226 413.001)"><tspan x="0" y="0"></tspan></text>
  <text id="_보안팀장_" data-name="(보안팀장)" class="cls-11" transform="translate(727.735 428.998)"><tspan class="cls-13" x="0" y="0">(</tspan><tspan class="cls-12" y="0">보</tspan><tspan class="cls-13" y="0">안</tspan><tspan class="cls-12" y="0">팀</tspan><tspan class="cls-13" y="0">장</tspan><tspan y="0">)</tspan></text>
  <rect id="사각형_60" data-name="사각형 60" class="cls-3" width="121.164" height="41.469" transform="translate(692.545 394.987)"/>
  <text id="_관련_본부장_및_팀장은_위원회_안건에_따라_유동적_구성" data-name="*관련 본부장 및 팀장은 위원회 안건에 따라 유동적 구성" class="cls-21" transform="translate(565.089 510.212)"><tspan class="cls-13" x="0" y="0">*</tspan><tspan class="cls-12" y="0">관</tspan><tspan class="cls-13" y="0">련</tspan><tspan class="cls-12" y="0"> </tspan><tspan class="cls-13" y="0">본부장</tspan><tspan class="cls-12" y="0"> </tspan><tspan class="cls-13" y="0">및</tspan><tspan class="cls-12" y="0"> </tspan><tspan class="cls-13" y="0">팀장</tspan><tspan class="cls-12" y="0">은</tspan><tspan class="cls-13" y="0" xml:space="preserve"> 위</tspan><tspan class="cls-12" y="0">원</tspan><tspan class="cls-13" y="0">회 </tspan><tspan class="cls-12" y="0">안</tspan><tspan class="cls-13" y="0">건에</tspan><tspan class="cls-12" y="0"> </tspan><tspan class="cls-13" y="0">따라</tspan><tspan class="cls-12" y="0"> </tspan><tspan class="cls-13" y="0">유동</tspan><tspan class="cls-12" y="0">적</tspan><tspan class="cls-13" y="0"> </tspan><tspan class="cls-12" y="0">구</tspan><tspan y="0">성</tspan></text>
  <text id="정보보호_조직_현황" data-name="정보보호 조직 현황" class="cls-22" transform="translate(19.858 40.196)"><tspan class="cls-6" x="0" y="0">정보보호 조직 현</tspan><tspan y="0">황</tspan></text>
  <path id="패스_61" data-name="패스 61" class="cls-3" d="M5903.731,2160.172H5893.5v57.956h10.231" transform="translate(-5338.642 -2013.099)"/>
</svg>
