<svg xmlns="http://www.w3.org/2000/svg" width="54.553" height="70.579" viewBox="0 0 54.553 70.579">
    <defs>
        <style>
            .prefix__cls-1{fill:#fff}
        </style>
    </defs>
    <g id="prefix__구성_요소_10_1" data-name="구성 요소 10 – 1" transform="translate(.5 .778)">
        <path id="prefix__패스_192" d="M3291.955 1060.39c0-13.359-25.077-43.284-25.077-43.284s-25.074 29.925-25.074 43.284 11.226 24.19 25.074 24.19 25.077-10.832 25.077-24.19m-15.864-12.71c3.3 5.578 5.445 10.272 5.445 12.71a14.422 14.422 0 0 1-14.658 14.14" data-name="패스 192" transform="translate(-3237.902 -1014.779)"/>
        <path id="prefix__패스_193" d="M3265.984 1073.9c10.284 0 18.62-8.024 18.62-17.923s-8.336-17.921-18.62-17.921-18.62 8.024-18.62 17.921 8.336 17.923 18.62 17.923" class="prefix__cls-1" data-name="패스 193" transform="translate(-3237.902 -1014.779)"/>
        <path id="prefix__패스_194" d="M3287.708 1057.759c0-13.266-24.9-42.98-24.9-42.98s-24.9 29.714-24.9 42.98 11.15 24.019 24.9 24.019 24.9-10.754 24.9-24.019m-15.753-12.621c3.271 5.539 5.406 10.2 5.406 12.621a14.323 14.323 0 0 1-14.561 14.041" class="prefix__cls-1" data-name="패스 194" transform="translate(-3237.902 -1014.779)"/>
        <path id="prefix__패스_195" d="M3287.708 1057.759c0-13.266-24.9-42.98-24.9-42.98s-24.9 29.714-24.9 42.98 11.15 24.019 24.9 24.019 24.9-10.754 24.9-24.019zm-15.753-12.621c3.271 5.539 5.406 10.2 5.406 12.621a14.323 14.323 0 0 1-14.561 14.041" data-name="패스 195" transform="translate(-3237.902 -1014.779)" style="fill:none;stroke:#000;stroke-miterlimit:10"/>
    </g>
</svg>
