<svg xmlns="http://www.w3.org/2000/svg" width="150.646" height="155.287" viewBox="0 0 150.646 155.287">
    <defs>
        <style>
            .prefix__cls-3{font-size:25px;font-family:NotoSans-Regular,Noto Sans}.prefix__cls-4{letter-spacing:-.014em}.prefix__cls-5{font-size:13px;font-family:AppleSDGothicNeo-Regular,Apple SD Gothic Neo}.prefix__cls-6{letter-spacing:-.015em}
        </style>
    </defs>
    <g id="prefix__구성_요소_15_1" data-name="구성 요소 15 – 1" transform="translate(.525)">
        <g id="prefix__그룹_131" data-name="그룹 131" transform="translate(-3618.49 -1283.086)">
            <path id="prefix__패스_204" d="M3768.61 1366.21a71.925 71.925 0 1 1-72.163-71.687 71.926 71.926 0 0 1 72.163 71.687" data-name="패스 204"/>
            <path id="prefix__패스_205" d="M3684.981 1289.067q2.256-.15 4.549-.158a71.206 71.206 0 1 1-10.006.73" data-name="패스 205" style="fill:#fff"/>
            <path id="prefix__패스_206" d="M3684.981 1289.067q2.256-.15 4.549-.158a71.2 71.2 0 1 1-12.255 1.091" data-name="패스 206" style="fill:none;stroke:#000;stroke-miterlimit:10;stroke-width:1.05px"/>
        </g>
        <path id="prefix__패스_207" d="M3672.206 1299.91l-1.713-1.218 6.012-8.431-8.849-5.38 1.094-1.8 10.775 6.555z" data-name="패스 207" transform="translate(-3618.49 -1283.086)"/>
        <text id="prefix__NET_" class="prefix__cls-3" data-name="NET" transform="translate(49.988 79.972)">
            <tspan x="0" y="0" class="prefix__cls-4">NE</tspan><tspan y="0">T</tspan>
        </text>
        <text id="prefix__ZERO" class="prefix__cls-3" transform="translate(41.938 106.972)">
            <tspan x="0" y="0" class="prefix__cls-4">ZER</tspan><tspan y="0">O</tspan>
        </text>
        <text id="prefix__달성" class="prefix__cls-5" transform="translate(61.613 125.972)">
            <tspan x="0" y="0" class="prefix__cls-4">달</tspan><tspan y="0">성</tspan>
        </text>
        <text id="prefix__탄소_배출량" class="prefix__cls-5" data-name="탄소 배출량" transform="translate(42.243 45.582)">
            <tspan x="0" y="0" class="prefix__cls-4">탄</tspan><tspan y="0" class="prefix__cls-6">소</tspan><tspan y="0" style="letter-spacing:-.014em;font-family:NotoSans-Regular,Noto Sans"> </tspan><tspan y="0" class="prefix__cls-4">배</tspan><tspan y="0" class="prefix__cls-6">출</tspan><tspan y="0">량</tspan>
        </text>
    </g>
</svg>
