<svg xmlns="http://www.w3.org/2000/svg" id="prefix__구성_요소_16_1" width="81.27" height="81.27" data-name="구성 요소 16 – 1" viewBox="0 0 81.27 81.27">
    <defs>
        <style>
            .prefix__cls-2{fill:#fff}
        </style>
    </defs>
    <path id="prefix__패스_122" d="M1275.3 2752.55a40.635 40.635 0 1 1-40.635-40.635 40.635 40.635 0 0 1 40.635 40.635" data-name="패스 122" transform="translate(-1194.032 -2711.915)" style="fill:#4aa85a"/>
    <path id="prefix__패스_123" d="M1246.952 2770.608c0-6.016-11.294-19.494-11.294-19.494s-11.294 13.478-11.294 19.494a11.3 11.3 0 0 0 22.588 0m-7.145-5.724c1.485 2.512 2.453 4.626 2.453 5.724a6.5 6.5 0 0 1-6.6 6.369" data-name="패스 123" transform="translate(-1194.032 -2711.915)"/>
    <path id="prefix__패스_124" d="M1235.255 2776.691a8.078 8.078 0 1 0-8.386-8.072 8.233 8.233 0 0 0 8.386 8.072" class="prefix__cls-2" data-name="패스 124" transform="translate(-1194.032 -2711.915)"/>
    <path id="prefix__패스_125" d="M1245.039 2769.423c0-5.974-11.217-19.357-11.217-19.357s-11.215 13.383-11.215 19.357a11.223 11.223 0 0 0 22.432 0m-7.095-5.684c1.473 2.495 2.435 4.593 2.435 5.684a6.451 6.451 0 0 1-6.557 6.324" class="prefix__cls-2" data-name="패스 125" transform="translate(-1194.032 -2711.915)"/>
    <path id="prefix__패스_126" d="M1244.791 2769.4c0-5.849-10.969-18.952-10.969-18.952s-10.968 13.1-10.968 18.952a10.975 10.975 0 0 0 21.937 0zm-6.938-5.565c1.441 2.442 2.381 4.5 2.381 5.565a6.311 6.311 0 0 1-6.412 6.191" data-name="패스 126" transform="translate(-1194.032 -2711.915)" style="fill:none;stroke:#000;stroke-miterlimit:10;stroke-width:.945px"/>
    <text id="prefix___3" data-name="3" transform="translate(36.056 26.422)" style="font-size:16.065px;font-family:NotoSansCJKkr-Medium,Noto Sans CJK KR;font-weight:500">
        <tspan x="0" y="0">3</tspan>
    </text>
</svg>
