<svg xmlns="http://www.w3.org/2000/svg" width="517.666" height="181.412" viewBox="0 0 517.666 181.412">
    <defs>
        <style>
            .prefix__cls-11,.prefix__cls-4,.prefix__cls-7,.prefix__cls-8,.prefix__cls-9{fill:none}.prefix__cls-11,.prefix__cls-4,.prefix__cls-8,.prefix__cls-9{stroke:#666}.prefix__cls-4,.prefix__cls-8{stroke-linecap:round;stroke-linejoin:round}.prefix__cls-5{fill:#b59c56}.prefix__cls-6{fill:#fff}.prefix__cls-7{stroke:#000}.prefix__cls-7,.prefix__cls-9{stroke-miterlimit:10}.prefix__cls-8{stroke-dasharray:0 2.971}
        </style>
    </defs>
    <g id="prefix__구성_요소_10_1" data-name="구성 요소 10 – 1" transform="translate(.361 .5)">
        <g id="prefix__그룹_22" data-name="그룹 22" transform="translate(-826.058 -1814.562)">
            <path id="prefix__패스_69" d="M1321.458 1844.84a79.465 79.465 0 0 1 21.391 52.875" data-name="패스 69" style="stroke-dasharray:0 2.992;stroke-linecap:round;stroke-linejoin:round;stroke:#666;fill:none"/>
            <path id="prefix__패스_70" d="M1342.808 1902.194a79.767 79.767 0 0 1-78.225 76.764" data-name="패스 70" style="stroke-dasharray:0 2.984;stroke-linecap:round;stroke-linejoin:round;stroke:#666;fill:none"/>
            <path id="prefix__패스_71" d="M1260.071 1978.916a79.8 79.8 0 0 1-75.356-64.773" data-name="패스 71" style="stroke-dasharray:0 3.022;stroke-linecap:round;stroke-linejoin:round;stroke:#666;fill:none"/>
            <path id="prefix__패스_73" d="M1263.092 1966.288a65 65 0 1 0-65-65 65 65 0 0 0 65 65" class="prefix__cls-5" data-name="패스 73"/>
            <path id="prefix__패스_74" d="M924.582 1966.288a65 65 0 1 0-65-65 65 65 0 0 0 65 65" class="prefix__cls-5" data-name="패스 74"/>
            <path id="prefix__패스_75" d="M941.8 1909.36c0-7.949-15.831-25.756-15.831-25.756s-15.83 17.807-15.83 25.756 7.087 14.4 15.83 14.4 15.831-6.445 15.831-14.4m-10.015-7.563c2.081 3.319 3.438 6.112 3.438 7.563 0 4.64-4.151 8.415-9.254 8.415" data-name="패스 75"/>
            <path id="prefix__패스_76" d="M925.406 1917.4c6.492 0 11.755-4.774 11.755-10.665s-5.263-10.664-11.755-10.664-11.755 4.775-11.755 10.664 5.263 10.665 11.755 10.665" class="prefix__cls-6" data-name="패스 76"/>
            <path id="prefix__패스_77" d="M939.12 1907.794c0-7.894-15.722-25.576-15.722-25.576s-15.721 17.682-15.721 25.576 7.039 14.294 15.721 14.294 15.722-6.4 15.722-14.294m-9.945-7.51c2.065 3.3 3.413 6.07 3.413 7.51 0 4.608-4.123 8.356-9.19 8.356" class="prefix__cls-6" data-name="패스 77"/>
            <path id="prefix__패스_78" d="M938.937 1907.768c0-7.8-15.538-25.26-15.538-25.26s-15.537 17.464-15.537 25.26 6.957 14.118 15.537 14.118 15.538-6.321 15.538-14.118zm-9.829-7.417c2.041 3.255 3.373 5.994 3.373 7.417 0 4.551-4.075 8.253-9.082 8.253" class="prefix__cls-7" data-name="패스 78"/>
            <path id="prefix__패스_79" d="M1280.311 1909.36c0-7.949-15.831-25.756-15.831-25.756s-15.83 17.807-15.83 25.756 7.087 14.4 15.83 14.4 15.831-6.445 15.831-14.4m-10.011-7.56c2.081 3.319 3.438 6.112 3.438 7.563 0 4.64-4.151 8.415-9.254 8.415" data-name="패스 79"/>
            <path id="prefix__패스_80" d="M1263.916 1917.4c6.491 0 11.754-4.774 11.754-10.665s-5.263-10.664-11.754-10.664-11.755 4.775-11.755 10.664 5.262 10.665 11.755 10.665" class="prefix__cls-6" data-name="패스 80"/>
            <path id="prefix__패스_81" d="M1277.63 1907.794c0-7.894-15.722-25.576-15.722-25.576s-15.721 17.682-15.721 25.576 7.039 14.294 15.721 14.294 15.722-6.4 15.722-14.294m-9.945-7.51c2.065 3.3 3.413 6.07 3.413 7.51 0 4.608-4.123 8.356-9.19 8.356" class="prefix__cls-6" data-name="패스 81"/>
            <path id="prefix__패스_82" d="M1277.446 1907.768c0-7.8-15.538-25.26-15.538-25.26s-15.537 17.464-15.537 25.26 6.957 14.118 15.537 14.118 15.538-6.321 15.538-14.118zm-9.829-7.417c2.041 3.255 3.373 5.994 3.373 7.417 0 4.551-4.075 8.253-9.082 8.253" class="prefix__cls-7" data-name="패스 82"/>
            <path id="prefix__패스_83" d="M833.859 1902.361a90.773 90.773 0 0 1 89.237-87.787" class="prefix__cls-8" data-name="패스 83"/>
            <path id="prefix__패스_84" d="M927.552 1814.609a90.774 90.774 0 0 1 87.788 89.238" class="prefix__cls-8" data-name="패스 84"/>
        </g>
        <path id="prefix__선_467" d="M0 0L0 12" class="prefix__cls-9" data-name="선 467" transform="translate(99.024 162.912)"/>
        <path id="prefix__선_468" d="M0 0L0 12" class="prefix__cls-9" data-name="선 468" transform="translate(438.098 168.912)"/>
        <path id="prefix__선_469" d="M0 0L159.603 0" data-name="선 469" transform="translate(193.277 93.146)" style="stroke-dasharray:0 2.983;stroke-linecap:round;stroke-linejoin:round;stroke:#666;fill:none"/>
        <path id="prefix__패스_88" d="M841.711 1906.558l-7.826 8.17-7.827-8.17" class="prefix__cls-11" data-name="패스 88" transform="translate(-826.058 -1814.562)"/>
        <path id="prefix__패스_89" d="M1093.408 1898.482l9.418 9.226-9.418 9.226" class="prefix__cls-6" data-name="패스 89" transform="translate(-826.058 -1814.562)"/>
        <path id="prefix__패스_90" d="M1093.408 1898.482l9.418 9.226-9.418 9.226" data-name="패스 90" transform="translate(-826.058 -1814.562)" style="stroke-width:1.5px;stroke:#666;fill:none"/>
        <path id="prefix__패스_91" d="M1317.463 1848.252l-.835-11.283 11.309-.349" class="prefix__cls-11" data-name="패스 91" transform="translate(-826.058 -1814.562)"/>
    </g>
</svg>
