<svg xmlns="http://www.w3.org/2000/svg" width="63.198" height="63.198" viewBox="0 0 63.198 63.198">
    <defs>
        <style>
            .prefix__cls-3{fill:#fff}
        </style>
    </defs>
    <g id="prefix__구성_요소_19_1" data-name="구성 요소 19 – 1" transform="translate(.099 .099)">
        <path id="prefix__패스_97" fill="#d6a803" d="M1129.72 3412.489a31.5 31.5 0 1 1-31.5-31.5 31.5 31.5 0 0 1 31.5 31.5" data-name="패스 97" transform="translate(-1066.72 -3380.989)"/>
        <circle id="prefix__타원_2" cx="31.5" cy="31.5" r="31.5" fill="none" stroke="#f0c560" stroke-miterlimit="10" stroke-width="0.198px" data-name="타원 2"/>
        <path id="prefix__패스_98" d="M1112.69 3418.4c0-7.116-13.3-23.057-13.3-23.057s-13.3 15.941-13.3 23.057a13.309 13.309 0 0 0 26.6 0m-8.416-6.771c1.749 2.972 2.889 5.472 2.889 6.771a7.666 7.666 0 0 1-7.776 7.532" data-name="패스 98" transform="translate(-1066.72 -3380.989)"/>
        <path id="prefix__패스_99" d="M1098.912 3425.6a9.553 9.553 0 1 0-9.878-9.547 9.716 9.716 0 0 0 9.878 9.547" class="prefix__cls-3" data-name="패스 99" transform="translate(-1066.72 -3380.989)"/>
        <path id="prefix__패스_100" d="M1110.437 3417c0-7.066-13.212-22.9-13.212-22.9s-13.21 15.829-13.21 22.9a13.218 13.218 0 0 0 26.422 0m-8.357-6.723c1.735 2.951 2.868 5.433 2.868 6.723a7.613 7.613 0 0 1-7.723 7.479" class="prefix__cls-3" data-name="패스 100" transform="translate(-1066.72 -3380.989)"/>
        <path id="prefix__패스_101" fill="none" stroke="#000" stroke-miterlimit="10" stroke-width="0.661px" d="M1110.372 3417c0-7.033-13.147-22.788-13.147-22.788s-13.145 15.755-13.145 22.788a13.153 13.153 0 0 0 26.292 0zm-8.316-6.691c1.727 2.937 2.854 5.407 2.854 6.691a7.577 7.577 0 0 1-7.685 7.445" data-name="패스 101" transform="translate(-1066.72 -3380.989)"/>
    </g>
</svg>
