<svg xmlns="http://www.w3.org/2000/svg" id="prefix__구성_요소_17_1" width="81.27" height="81.27" data-name="구성 요소 17 – 1" viewBox="0 0 81.27 81.27">
    <defs>
        <style>
            .prefix__cls-2{fill:#fff}
        </style>
    </defs>
    <path id="prefix__패스_127" d="M1495.635 2752.55a40.635 40.635 0 1 1-40.635-40.635 40.635 40.635 0 0 1 40.635 40.635" data-name="패스 127" transform="translate(-1414.365 -2711.915)" style="fill:#4aa85a"/>
    <path id="prefix__패스_128" d="M1467.285 2770.608c0-6.016-11.294-19.494-11.294-19.494s-11.294 13.478-11.294 19.494a11.3 11.3 0 0 0 22.588 0m-7.145-5.724c1.485 2.512 2.453 4.626 2.453 5.724a6.5 6.5 0 0 1-6.6 6.369" data-name="패스 128" transform="translate(-1414.365 -2711.915)"/>
    <path id="prefix__패스_129" d="M1455.588 2776.691a8.078 8.078 0 1 0-8.386-8.072 8.233 8.233 0 0 0 8.386 8.072" class="prefix__cls-2" data-name="패스 129" transform="translate(-1414.365 -2711.915)"/>
    <path id="prefix__패스_130" d="M1465.372 2769.423c0-5.974-11.217-19.357-11.217-19.357s-11.215 13.383-11.215 19.357a11.223 11.223 0 0 0 22.432 0m-7.095-5.684c1.473 2.495 2.435 4.593 2.435 5.684a6.451 6.451 0 0 1-6.557 6.324" class="prefix__cls-2" data-name="패스 130" transform="translate(-1414.365 -2711.915)"/>
    <path id="prefix__패스_131" d="M1465.125 2769.4c0-5.849-10.969-18.952-10.969-18.952s-10.968 13.1-10.968 18.952a10.975 10.975 0 0 0 21.937 0zm-6.938-5.565c1.44 2.442 2.381 4.5 2.381 5.565a6.312 6.312 0 0 1-6.412 6.191" data-name="패스 131" transform="translate(-1414.365 -2711.915)" style="fill:none;stroke:#000;stroke-miterlimit:10;stroke-width:.945px"/>
    <text id="prefix___4" data-name="4" transform="translate(36.057 26.422)" style="font-size:16.065px;font-family:NotoSansCJKkr-Medium,Noto Sans CJK KR;font-weight:500">
        <tspan x="0" y="0">4</tspan>
    </text>
</svg>
